<svg xmlns="http://www.w3.org/2000/svg" fill="none" viewBox="0 0 240 50" height="50" width="240">
<path fill="black" d="M5.232 22L3.312 18.664H2.268V22H0.9V13.66H3.78C4.42 13.66 4.96 13.772 5.4 13.996C5.848 14.22 6.18 14.52 6.396 14.896C6.62 15.272 6.732 15.692 6.732 16.156C6.732 16.7 6.572 17.196 6.252 17.644C5.94 18.084 5.456 18.384 4.8 18.544L6.864 22H5.232ZM2.268 17.572H3.78C4.292 17.572 4.676 17.444 4.932 17.188C5.196 16.932 5.328 16.588 5.328 16.156C5.328 15.724 5.2 15.388 4.944 15.148C4.688 14.9 4.3 14.776 3.78 14.776H2.268V17.572ZM14.542 18.532C14.542 18.78 14.526 19.004 14.494 19.204H9.44203C9.48203 19.732 9.67803 20.156 10.03 20.476C10.382 20.796 10.814 20.956 11.326 20.956C12.062 20.956 12.582 20.648 12.886 20.032H14.362C14.162 20.64 13.798 21.14 13.27 21.532C12.75 21.916 12.102 22.108 11.326 22.108C10.694 22.108 10.126 21.968 9.62203 21.688C9.12603 21.4 8.73403 21 8.44603 20.488C8.16603 19.968 8.02603 19.368 8.02603 18.688C8.02603 18.008 8.16203 17.412 8.43403 16.9C8.71403 16.38 9.10203 15.98 9.59803 15.7C10.102 15.42 10.678 15.28 11.326 15.28C11.95 15.28 12.506 15.416 12.994 15.688C13.482 15.96 13.862 16.344 14.134 16.84C14.406 17.328 14.542 17.892 14.542 18.532ZM13.114 18.1C13.106 17.596 12.926 17.192 12.574 16.888C12.222 16.584 11.786 16.432 11.266 16.432C10.794 16.432 10.39 16.584 10.054 16.888C9.71803 17.184 9.51803 17.588 9.45403 18.1H13.114ZM17.4843 16.504V20.164C17.4843 20.412 17.5403 20.592 17.6523 20.704C17.7723 20.808 17.9723 20.86 18.2523 20.86H19.0923V22H18.0123C17.3963 22 16.9243 21.856 16.5963 21.568C16.2683 21.28 16.1043 20.812 16.1043 20.164V16.504H15.3243V15.388H16.1043V13.744H17.4843V15.388H19.0923V16.504H17.4843ZM26.3411 15.388V22H24.9731V21.22C24.7571 21.492 24.4731 21.708 24.1211 21.868C23.7771 22.02 23.4091 22.096 23.0171 22.096C22.4971 22.096 22.0291 21.988 21.6131 21.772C21.2051 21.556 20.8811 21.236 20.6411 20.812C20.4091 20.388 20.2931 19.876 20.2931 19.276V15.388H21.6491V19.072C21.6491 19.664 21.7971 20.12 22.0931 20.44C22.3891 20.752 22.7931 20.908 23.3051 20.908C23.8171 20.908 24.2211 20.752 24.5171 20.44C24.8211 20.12 24.9731 19.664 24.9731 19.072V15.388H26.3411ZM29.5141 16.348C29.7141 16.012 29.9781 15.752 30.3061 15.568C30.6421 15.376 31.0381 15.28 31.4941 15.28V16.696H31.1461C30.6101 16.696 30.2021 16.832 29.9221 17.104C29.6501 17.376 29.5141 17.848 29.5141 18.52V22H28.1461V15.388H29.5141V16.348ZM36.0876 15.28C36.6076 15.28 37.0716 15.388 37.4796 15.604C37.8956 15.82 38.2196 16.14 38.4516 16.564C38.6836 16.988 38.7996 17.5 38.7996 18.1V22H37.4436V18.304C37.4436 17.712 37.2956 17.26 36.9996 16.948C36.7036 16.628 36.2996 16.468 35.7876 16.468C35.2756 16.468 34.8676 16.628 34.5636 16.948C34.2676 17.26 34.1196 17.712 34.1196 18.304V22H32.7516V15.388H34.1196V16.144C34.3436 15.872 34.6276 15.66 34.9716 15.508C35.3236 15.356 35.6956 15.28 36.0876 15.28Z"></path>
<path fill="#808080" d="M4.47 34.43C4.84333 34.4967 5.16 34.6933 5.42 35.02C5.68 35.3467 5.81 35.7167 5.81 36.13C5.81 36.4833 5.71667 36.8033 5.53 37.09C5.35 37.37 5.08667 37.5933 4.74 37.76C4.39333 37.92 3.99 38 3.53 38H0.75V31.05H3.4C3.87333 31.05 4.28 31.13 4.62 31.29C4.96 31.45 5.21667 31.6667 5.39 31.94C5.56333 32.2067 5.65 32.5067 5.65 32.84C5.65 33.24 5.54333 33.5733 5.33 33.84C5.11667 34.1067 4.83 34.3033 4.47 34.43ZM1.89 33.97H3.3C3.67333 33.97 3.96333 33.8867 4.17 33.72C4.38333 33.5467 4.49 33.3 4.49 32.98C4.49 32.6667 4.38333 32.4233 4.17 32.25C3.96333 32.07 3.67333 31.98 3.3 31.98H1.89V33.97ZM3.43 37.07C3.81667 37.07 4.12 36.9767 4.34 36.79C4.56 36.6033 4.67 36.3433 4.67 36.01C4.67 35.67 4.55333 35.4 4.32 35.2C4.08667 35 3.77667 34.9 3.39 34.9H1.89V37.07H3.43ZM10.2388 34.53L12.3988 38H11.1188L9.54883 35.48L8.07883 38H6.80883L8.96883 34.53L6.79883 31.05H8.07883L9.65883 33.59L11.1388 31.05H12.4088L10.2388 34.53ZM15.9204 31.05C16.6604 31.05 17.3071 31.1933 17.8604 31.48C18.4204 31.76 18.8504 32.1667 19.1504 32.7C19.4571 33.2267 19.6104 33.8433 19.6104 34.55C19.6104 35.2567 19.4571 35.87 19.1504 36.39C18.8504 36.91 18.4204 37.31 17.8604 37.59C17.3071 37.8633 16.6604 38 15.9204 38H13.6504V31.05H15.9204ZM15.9204 37.07C16.7337 37.07 17.3571 36.85 17.7904 36.41C18.2237 35.97 18.4404 35.35 18.4404 34.55C18.4404 33.7433 18.2237 33.1133 17.7904 32.66C17.3571 32.2067 16.7337 31.98 15.9204 31.98H14.7904V37.07H15.9204ZM26.4502 38H25.3102L21.8802 32.81V38H20.7402V31.04H21.8802L25.3102 36.22V31.04H26.4502V38Z"></path>
</svg>
