<svg width="480" height="360" viewBox="0 0 480 360" fill="none" xmlns="http://www.w3.org/2000/svg">
<g clip-path="url(#clip0_158_68)">
<path d="M177.904 28.728H173.248L172.448 31H170.544L174.528 19.864H176.64L180.624 31H178.704L177.904 28.728ZM177.392 27.24L175.584 22.072L173.76 27.24H177.392ZM184.18 19.16V31H182.356V19.16H184.18ZM188.399 19.16V31H186.575V19.16H188.399ZM198.646 23.672H197.014V31H195.174V23.672H194.134V22.184H195.174V21.56C195.174 20.5467 195.441 19.8107 195.974 19.352C196.518 18.8827 197.366 18.648 198.518 18.648V20.168C197.963 20.168 197.574 20.2747 197.35 20.488C197.126 20.6907 197.014 21.048 197.014 21.56V22.184H198.646V23.672ZM201.191 21.016C200.86 21.016 200.583 20.904 200.359 20.68C200.135 20.456 200.023 20.1787 200.023 19.848C200.023 19.5173 200.135 19.24 200.359 19.016C200.583 18.792 200.86 18.68 201.191 18.68C201.511 18.68 201.783 18.792 202.007 19.016C202.231 19.24 202.343 19.5173 202.343 19.848C202.343 20.1787 202.231 20.456 202.007 20.68C201.783 20.904 201.511 21.016 201.191 21.016ZM202.087 22.184V31H200.263V22.184H202.087ZM206.305 19.16V31H204.481V19.16H206.305ZM216.78 26.376C216.78 26.7067 216.759 27.0053 216.716 27.272H209.98C210.033 27.976 210.295 28.5413 210.764 28.968C211.233 29.3947 211.809 29.608 212.492 29.608C213.473 29.608 214.167 29.1973 214.572 28.376H216.54C216.273 29.1867 215.788 29.8533 215.084 30.376C214.391 30.888 213.527 31.144 212.492 31.144C211.649 31.144 210.892 30.9573 210.22 30.584C209.559 30.2 209.036 29.6667 208.652 28.984C208.279 28.2907 208.092 27.4907 208.092 26.584C208.092 25.6773 208.273 24.8827 208.636 24.2C209.009 23.5067 209.527 22.9733 210.188 22.6C210.86 22.2267 211.628 22.04 212.492 22.04C213.324 22.04 214.065 22.2213 214.716 22.584C215.367 22.9467 215.873 23.4587 216.236 24.12C216.599 24.7707 216.78 25.5227 216.78 26.376ZM214.876 25.8C214.865 25.128 214.625 24.5893 214.156 24.184C213.687 23.7787 213.105 23.576 212.412 23.576C211.783 23.576 211.244 23.7787 210.796 24.184C210.348 24.5787 210.081 25.1173 209.996 25.8H214.876ZM221.775 31.144C221.082 31.144 220.458 31.0213 219.903 30.776C219.359 30.52 218.927 30.1787 218.607 29.752C218.287 29.3147 218.116 28.8293 218.095 28.296H219.983C220.015 28.6693 220.191 28.984 220.511 29.24C220.842 29.4853 221.252 29.608 221.743 29.608C222.255 29.608 222.65 29.512 222.927 29.32C223.215 29.1173 223.359 28.8613 223.359 28.552C223.359 28.2213 223.199 27.976 222.879 27.816C222.57 27.656 222.074 27.48 221.391 27.288C220.73 27.1067 220.191 26.9307 219.775 26.76C219.359 26.5893 218.996 26.328 218.687 25.976C218.388 25.624 218.239 25.16 218.239 24.584C218.239 24.1147 218.378 23.688 218.655 23.304C218.932 22.9093 219.327 22.6 219.839 22.376C220.362 22.152 220.959 22.04 221.631 22.04C222.634 22.04 223.439 22.296 224.047 22.808C224.666 23.3093 224.996 23.9973 225.039 24.872H223.215C223.183 24.4773 223.023 24.1627 222.735 23.928C222.447 23.6933 222.058 23.576 221.567 23.576C221.087 23.576 220.719 23.6667 220.463 23.848C220.207 24.0293 220.079 24.2693 220.079 24.568C220.079 24.8027 220.164 25 220.335 25.16C220.506 25.32 220.714 25.448 220.959 25.544C221.204 25.6293 221.567 25.7413 222.047 25.88C222.687 26.0507 223.21 26.2267 223.615 26.408C224.031 26.5787 224.388 26.8347 224.687 27.176C224.986 27.5173 225.14 27.9707 225.151 28.536C225.151 29.0373 225.012 29.4853 224.735 29.88C224.458 30.2747 224.063 30.584 223.551 30.808C223.05 31.032 222.458 31.144 221.775 31.144Z" fill="white"/>
<path d="M177.752 69H176.384L172.268 62.772V69H170.9V60.648H172.268L176.384 66.864V60.648H177.752V69ZM179.092 65.664C179.092 65 179.228 64.412 179.5 63.9C179.78 63.388 180.156 62.992 180.628 62.712C181.108 62.424 181.636 62.28 182.212 62.28C182.732 62.28 183.184 62.384 183.568 62.592C183.96 62.792 184.272 63.044 184.504 63.348V62.388H185.884V69H184.504V68.016C184.272 68.328 183.956 68.588 183.556 68.796C183.156 69.004 182.7 69.108 182.188 69.108C181.62 69.108 181.1 68.964 180.628 68.676C180.156 68.38 179.78 67.972 179.5 67.452C179.228 66.924 179.092 66.328 179.092 65.664ZM184.504 65.688C184.504 65.232 184.408 64.836 184.216 64.5C184.032 64.164 183.788 63.908 183.484 63.732C183.18 63.556 182.852 63.468 182.5 63.468C182.148 63.468 181.82 63.556 181.516 63.732C181.212 63.9 180.964 64.152 180.772 64.488C180.588 64.816 180.496 65.208 180.496 65.664C180.496 66.12 180.588 66.52 180.772 66.864C180.964 67.208 181.212 67.472 181.516 67.656C181.828 67.832 182.156 67.92 182.5 67.92C182.852 67.92 183.18 67.832 183.484 67.656C183.788 67.48 184.032 67.224 184.216 66.888C184.408 66.544 184.504 66.144 184.504 65.688ZM195.685 62.28C196.205 62.28 196.669 62.388 197.077 62.604C197.493 62.82 197.817 63.14 198.049 63.564C198.289 63.988 198.409 64.5 198.409 65.1V69H197.053V65.304C197.053 64.712 196.905 64.26 196.609 63.948C196.313 63.628 195.909 63.468 195.397 63.468C194.885 63.468 194.477 63.628 194.173 63.948C193.877 64.26 193.729 64.712 193.729 65.304V69H192.373V65.304C192.373 64.712 192.225 64.26 191.929 63.948C191.633 63.628 191.229 63.468 190.717 63.468C190.205 63.468 189.797 63.628 189.493 63.948C189.197 64.26 189.049 64.712 189.049 65.304V69H187.681V62.388H189.049V63.144C189.273 62.872 189.557 62.66 189.901 62.508C190.245 62.356 190.613 62.28 191.005 62.28C191.533 62.28 192.005 62.392 192.421 62.616C192.837 62.84 193.157 63.164 193.381 63.588C193.581 63.188 193.893 62.872 194.317 62.64C194.741 62.4 195.197 62.28 195.685 62.28ZM206.21 65.532C206.21 65.78 206.194 66.004 206.162 66.204H201.11C201.15 66.732 201.346 67.156 201.698 67.476C202.05 67.796 202.482 67.956 202.994 67.956C203.73 67.956 204.25 67.648 204.554 67.032H206.03C205.83 67.64 205.466 68.14 204.938 68.532C204.418 68.916 203.77 69.108 202.994 69.108C202.362 69.108 201.794 68.968 201.29 68.688C200.794 68.4 200.402 68 200.114 67.488C199.834 66.968 199.694 66.368 199.694 65.688C199.694 65.008 199.83 64.412 200.102 63.9C200.382 63.38 200.77 62.98 201.266 62.7C201.77 62.42 202.346 62.28 202.994 62.28C203.618 62.28 204.174 62.416 204.662 62.688C205.15 62.96 205.53 63.344 205.802 63.84C206.074 64.328 206.21 64.892 206.21 65.532ZM204.782 65.1C204.774 64.596 204.594 64.192 204.242 63.888C203.89 63.584 203.454 63.432 202.934 63.432C202.462 63.432 202.058 63.584 201.722 63.888C201.386 64.184 201.186 64.588 201.122 65.1H204.782Z" fill="white"/>
<path d="M302.624 60.66C303.512 60.66 304.288 60.832 304.952 61.176C305.624 61.512 306.14 62 306.5 62.64C306.868 63.272 307.052 64.012 307.052 64.86C307.052 65.708 306.868 66.444 306.5 67.068C306.14 67.692 305.624 68.172 304.952 68.508C304.288 68.836 303.512 69 302.624 69H299.9V60.66H302.624ZM302.624 67.884C303.6 67.884 304.348 67.62 304.868 67.092C305.388 66.564 305.648 65.82 305.648 64.86C305.648 63.892 305.388 63.136 304.868 62.592C304.348 62.048 303.6 61.776 302.624 61.776H301.268V67.884H302.624ZM307.952 65.664C307.952 65 308.088 64.412 308.36 63.9C308.64 63.388 309.016 62.992 309.488 62.712C309.968 62.424 310.496 62.28 311.072 62.28C311.592 62.28 312.044 62.384 312.428 62.592C312.82 62.792 313.132 63.044 313.364 63.348V62.388H314.744V69H313.364V68.016C313.132 68.328 312.816 68.588 312.416 68.796C312.016 69.004 311.56 69.108 311.048 69.108C310.48 69.108 309.96 68.964 309.488 68.676C309.016 68.38 308.64 67.972 308.36 67.452C308.088 66.924 307.952 66.328 307.952 65.664ZM313.364 65.688C313.364 65.232 313.268 64.836 313.076 64.5C312.892 64.164 312.648 63.908 312.344 63.732C312.04 63.556 311.712 63.468 311.36 63.468C311.008 63.468 310.68 63.556 310.376 63.732C310.072 63.9 309.824 64.152 309.632 64.488C309.448 64.816 309.356 65.208 309.356 65.664C309.356 66.12 309.448 66.52 309.632 66.864C309.824 67.208 310.072 67.472 310.376 67.656C310.688 67.832 311.016 67.92 311.36 67.92C311.712 67.92 312.04 67.832 312.344 67.656C312.648 67.48 312.892 67.224 313.076 66.888C313.268 66.544 313.364 66.144 313.364 65.688ZM318.137 63.504V67.164C318.137 67.412 318.193 67.592 318.305 67.704C318.425 67.808 318.625 67.86 318.905 67.86H319.745V69H318.665C318.049 69 317.577 68.856 317.249 68.568C316.921 68.28 316.757 67.812 316.757 67.164V63.504H315.977V62.388H316.757V60.744H318.137V62.388H319.745V63.504H318.137ZM327.065 65.532C327.065 65.78 327.049 66.004 327.017 66.204H321.965C322.005 66.732 322.201 67.156 322.553 67.476C322.905 67.796 323.337 67.956 323.849 67.956C324.585 67.956 325.105 67.648 325.409 67.032H326.885C326.685 67.64 326.321 68.14 325.793 68.532C325.273 68.916 324.625 69.108 323.849 69.108C323.217 69.108 322.649 68.968 322.145 68.688C321.649 68.4 321.257 68 320.969 67.488C320.689 66.968 320.549 66.368 320.549 65.688C320.549 65.008 320.685 64.412 320.957 63.9C321.237 63.38 321.625 62.98 322.121 62.7C322.625 62.42 323.201 62.28 323.849 62.28C324.473 62.28 325.029 62.416 325.517 62.688C326.005 62.96 326.385 63.344 326.657 63.84C326.929 64.328 327.065 64.892 327.065 65.532ZM325.637 65.1C325.629 64.596 325.449 64.192 325.097 63.888C324.745 63.584 324.309 63.432 323.789 63.432C323.317 63.432 322.913 63.584 322.577 63.888C322.241 64.184 322.041 64.588 321.977 65.1H325.637Z" fill="white"/>
<path d="M387.648 69.084C387.088 69.084 386.584 68.988 386.136 68.796C385.688 68.596 385.336 68.316 385.08 67.956C384.824 67.596 384.696 67.176 384.696 66.696H386.16C386.192 67.056 386.332 67.352 386.58 67.584C386.836 67.816 387.192 67.932 387.648 67.932C388.12 67.932 388.488 67.82 388.752 67.596C389.016 67.364 389.148 67.068 389.148 66.708C389.148 66.428 389.064 66.2 388.896 66.024C388.736 65.848 388.532 65.712 388.284 65.616C388.044 65.52 387.708 65.416 387.276 65.304C386.732 65.16 386.288 65.016 385.944 64.872C385.608 64.72 385.32 64.488 385.08 64.176C384.84 63.864 384.72 63.448 384.72 62.928C384.72 62.448 384.84 62.028 385.08 61.668C385.32 61.308 385.656 61.032 386.088 60.84C386.52 60.648 387.02 60.552 387.588 60.552C388.396 60.552 389.056 60.756 389.568 61.164C390.088 61.564 390.376 62.116 390.432 62.82H388.92C388.896 62.516 388.752 62.256 388.488 62.04C388.224 61.824 387.876 61.716 387.444 61.716C387.052 61.716 386.732 61.816 386.484 62.016C386.236 62.216 386.112 62.504 386.112 62.88C386.112 63.136 386.188 63.348 386.34 63.516C386.5 63.676 386.7 63.804 386.94 63.9C387.18 63.996 387.508 64.1 387.924 64.212C388.476 64.364 388.924 64.516 389.268 64.668C389.62 64.82 389.916 65.056 390.156 65.376C390.404 65.688 390.528 66.108 390.528 66.636C390.528 67.06 390.412 67.46 390.18 67.836C389.956 68.212 389.624 68.516 389.184 68.748C388.752 68.972 388.24 69.084 387.648 69.084ZM392.838 61.512C392.59 61.512 392.382 61.428 392.214 61.26C392.046 61.092 391.962 60.884 391.962 60.636C391.962 60.388 392.046 60.18 392.214 60.012C392.382 59.844 392.59 59.76 392.838 59.76C393.078 59.76 393.282 59.844 393.45 60.012C393.618 60.18 393.702 60.388 393.702 60.636C393.702 60.884 393.618 61.092 393.45 61.26C393.282 61.428 393.078 61.512 392.838 61.512ZM393.51 62.388V69H392.142V62.388H393.51ZM396.518 67.884H399.518V69H394.934V67.884L397.946 63.504H394.934V62.388H399.518V63.504L396.518 67.884ZM407.015 65.532C407.015 65.78 406.999 66.004 406.967 66.204H401.915C401.955 66.732 402.151 67.156 402.503 67.476C402.855 67.796 403.287 67.956 403.799 67.956C404.535 67.956 405.055 67.648 405.359 67.032H406.835C406.635 67.64 406.271 68.14 405.743 68.532C405.223 68.916 404.575 69.108 403.799 69.108C403.167 69.108 402.599 68.968 402.095 68.688C401.599 68.4 401.207 68 400.919 67.488C400.639 66.968 400.499 66.368 400.499 65.688C400.499 65.008 400.635 64.412 400.907 63.9C401.187 63.38 401.575 62.98 402.071 62.7C402.575 62.42 403.151 62.28 403.799 62.28C404.423 62.28 404.979 62.416 405.467 62.688C405.955 62.96 406.335 63.344 406.607 63.84C406.879 64.328 407.015 64.892 407.015 65.532ZM405.587 65.1C405.579 64.596 405.399 64.192 405.047 63.888C404.695 63.584 404.259 63.432 403.739 63.432C403.267 63.432 402.863 63.584 402.527 63.888C402.191 64.184 401.991 64.588 401.927 65.1H405.587Z" fill="white"/>
</g>
<defs>
<clipPath id="clip0_158_68">
<rect width="480" height="360" fill="white"/>
</clipPath>
</defs>
</svg>
