<svg width="480" height="360" viewBox="0 0 480 360" fill="none" xmlns="http://www.w3.org/2000/svg">
<rect x="290" y="150" width="180" height="120" rx="15" fill="black" fill-opacity="0.5"/>
<path d="M377.53 200.26L383.756 204.152C384.383 204.544 384.383 205.456 383.756 205.848L377.53 209.74C376.864 210.156 376 209.677 376 208.892V201.108C376 200.323 376.864 199.844 377.53 200.26Z" stroke="white" stroke-width="2"/>
<path d="M416.53 200.26L422.756 204.152C423.383 204.544 423.383 205.456 422.756 205.848L416.53 209.74C415.864 210.156 415 209.677 415 208.892V201.108C415 200.323 415.864 199.844 416.53 200.26Z" stroke="white" stroke-width="2"/>
<rect x="424" y="199" width="2" height="12" rx="1" fill="white"/>
<path d="M343.47 209.74L337.244 205.848C336.617 205.456 336.617 204.544 337.244 204.152L343.47 200.26C344.136 199.844 345 200.323 345 201.108L345 208.892C345 209.677 344.136 210.156 343.47 209.74Z" stroke="white" stroke-width="2"/>
<rect x="336" y="211" width="2" height="12" rx="1" transform="rotate(180 336 211)" fill="white"/>
<path d="M351.156 169.05V176H350.016V171.24L347.896 176H347.106L344.976 171.24V176H343.836V169.05H345.066L347.506 174.5L349.936 169.05H351.156ZM357.644 170.49V176H356.504V175.35C356.324 175.577 356.088 175.757 355.794 175.89C355.508 176.017 355.201 176.08 354.874 176.08C354.441 176.08 354.051 175.99 353.704 175.81C353.364 175.63 353.094 175.363 352.894 175.01C352.701 174.657 352.604 174.23 352.604 173.73V170.49H353.734V173.56C353.734 174.053 353.858 174.433 354.104 174.7C354.351 174.96 354.688 175.09 355.114 175.09C355.541 175.09 355.878 174.96 356.124 174.7C356.378 174.433 356.504 174.053 356.504 173.56V170.49H357.644ZM361.148 176.09C360.715 176.09 360.325 176.013 359.978 175.86C359.638 175.7 359.368 175.487 359.168 175.22C358.968 174.947 358.862 174.643 358.848 174.31H360.028C360.048 174.543 360.158 174.74 360.358 174.9C360.565 175.053 360.822 175.13 361.128 175.13C361.448 175.13 361.695 175.07 361.868 174.95C362.048 174.823 362.138 174.663 362.138 174.47C362.138 174.263 362.038 174.11 361.838 174.01C361.645 173.91 361.335 173.8 360.908 173.68C360.495 173.567 360.158 173.457 359.898 173.35C359.638 173.243 359.412 173.08 359.218 172.86C359.032 172.64 358.938 172.35 358.938 171.99C358.938 171.697 359.025 171.43 359.198 171.19C359.372 170.943 359.618 170.75 359.938 170.61C360.265 170.47 360.638 170.4 361.058 170.4C361.685 170.4 362.188 170.56 362.568 170.88C362.955 171.193 363.162 171.623 363.188 172.17H362.048C362.028 171.923 361.928 171.727 361.748 171.58C361.568 171.433 361.325 171.36 361.018 171.36C360.718 171.36 360.488 171.417 360.328 171.53C360.168 171.643 360.088 171.793 360.088 171.98C360.088 172.127 360.142 172.25 360.248 172.35C360.355 172.45 360.485 172.53 360.638 172.59C360.792 172.643 361.018 172.713 361.318 172.8C361.718 172.907 362.045 173.017 362.298 173.13C362.558 173.237 362.782 173.397 362.968 173.61C363.155 173.823 363.252 174.107 363.258 174.46C363.258 174.773 363.172 175.053 362.998 175.3C362.825 175.547 362.578 175.74 362.258 175.88C361.945 176.02 361.575 176.09 361.148 176.09ZM365.07 169.76C364.864 169.76 364.69 169.69 364.55 169.55C364.41 169.41 364.34 169.237 364.34 169.03C364.34 168.823 364.41 168.65 364.55 168.51C364.69 168.37 364.864 168.3 365.07 168.3C365.27 168.3 365.44 168.37 365.58 168.51C365.72 168.65 365.79 168.823 365.79 169.03C365.79 169.237 365.72 169.41 365.58 169.55C365.44 169.69 365.27 169.76 365.07 169.76ZM365.63 170.49V176H364.49V170.49H365.63ZM366.747 173.24C366.747 172.673 366.86 172.177 367.087 171.75C367.32 171.317 367.64 170.983 368.047 170.75C368.454 170.517 368.92 170.4 369.447 170.4C370.114 170.4 370.664 170.56 371.097 170.88C371.537 171.193 371.834 171.643 371.987 172.23H370.757C370.657 171.957 370.497 171.743 370.277 171.59C370.057 171.437 369.78 171.36 369.447 171.36C368.98 171.36 368.607 171.527 368.327 171.86C368.054 172.187 367.917 172.647 367.917 173.24C367.917 173.833 368.054 174.297 368.327 174.63C368.607 174.963 368.98 175.13 369.447 175.13C370.107 175.13 370.544 174.84 370.757 174.26H371.987C371.827 174.82 371.527 175.267 371.087 175.6C370.647 175.927 370.1 176.09 369.447 176.09C368.92 176.09 368.454 175.973 368.047 175.74C367.64 175.5 367.32 175.167 367.087 174.74C366.86 174.307 366.747 173.807 366.747 173.24ZM377.721 176.09C377.287 176.09 376.897 176.013 376.551 175.86C376.211 175.7 375.941 175.487 375.741 175.22C375.541 174.947 375.434 174.643 375.421 174.31H376.601C376.621 174.543 376.731 174.74 376.931 174.9C377.137 175.053 377.394 175.13 377.701 175.13C378.021 175.13 378.267 175.07 378.441 174.95C378.621 174.823 378.711 174.663 378.711 174.47C378.711 174.263 378.611 174.11 378.411 174.01C378.217 173.91 377.907 173.8 377.481 173.68C377.067 173.567 376.731 173.457 376.471 173.35C376.211 173.243 375.984 173.08 375.791 172.86C375.604 172.64 375.511 172.35 375.511 171.99C375.511 171.697 375.597 171.43 375.771 171.19C375.944 170.943 376.191 170.75 376.511 170.61C376.837 170.47 377.211 170.4 377.631 170.4C378.257 170.4 378.761 170.56 379.141 170.88C379.527 171.193 379.734 171.623 379.761 172.17H378.621C378.601 171.923 378.501 171.727 378.321 171.58C378.141 171.433 377.897 171.36 377.591 171.36C377.291 171.36 377.061 171.417 376.901 171.53C376.741 171.643 376.661 171.793 376.661 171.98C376.661 172.127 376.714 172.25 376.821 172.35C376.927 172.45 377.057 172.53 377.211 172.59C377.364 172.643 377.591 172.713 377.891 172.8C378.291 172.907 378.617 173.017 378.871 173.13C379.131 173.237 379.354 173.397 379.541 173.61C379.727 173.823 379.824 174.107 379.831 174.46C379.831 174.773 379.744 175.053 379.571 175.3C379.397 175.547 379.151 175.74 378.831 175.88C378.517 176.02 378.147 176.09 377.721 176.09ZM382.393 171.42V174.47C382.393 174.677 382.439 174.827 382.533 174.92C382.633 175.007 382.799 175.05 383.033 175.05H383.733V176H382.833C382.319 176 381.926 175.88 381.653 175.64C381.379 175.4 381.243 175.01 381.243 174.47V171.42H380.593V170.49H381.243V169.12H382.393V170.49H383.733V171.42H382.393ZM387.173 176.09C386.653 176.09 386.183 175.973 385.763 175.74C385.343 175.5 385.013 175.167 384.773 174.74C384.533 174.307 384.413 173.807 384.413 173.24C384.413 172.68 384.537 172.183 384.783 171.75C385.03 171.317 385.367 170.983 385.793 170.75C386.22 170.517 386.697 170.4 387.223 170.4C387.75 170.4 388.227 170.517 388.653 170.75C389.08 170.983 389.417 171.317 389.663 171.75C389.91 172.183 390.033 172.68 390.033 173.24C390.033 173.8 389.907 174.297 389.653 174.73C389.4 175.163 389.053 175.5 388.613 175.74C388.18 175.973 387.7 176.09 387.173 176.09ZM387.173 175.1C387.467 175.1 387.74 175.03 387.993 174.89C388.253 174.75 388.463 174.54 388.623 174.26C388.783 173.98 388.863 173.64 388.863 173.24C388.863 172.84 388.787 172.503 388.633 172.23C388.48 171.95 388.277 171.74 388.023 171.6C387.77 171.46 387.497 171.39 387.203 171.39C386.91 171.39 386.637 171.46 386.383 171.6C386.137 171.74 385.94 171.95 385.793 172.23C385.647 172.503 385.573 172.84 385.573 173.24C385.573 173.833 385.723 174.293 386.023 174.62C386.33 174.94 386.713 175.1 387.173 175.1ZM392.3 171.3C392.493 171.047 392.757 170.833 393.09 170.66C393.423 170.487 393.8 170.4 394.22 170.4C394.7 170.4 395.137 170.52 395.53 170.76C395.93 170.993 396.243 171.323 396.47 171.75C396.697 172.177 396.81 172.667 396.81 173.22C396.81 173.773 396.697 174.27 396.47 174.71C396.243 175.143 395.93 175.483 395.53 175.73C395.137 175.97 394.7 176.09 394.22 176.09C393.8 176.09 393.427 176.007 393.1 175.84C392.773 175.667 392.507 175.453 392.3 175.2V178.62H391.16V170.49H392.3V171.3ZM395.65 173.22C395.65 172.84 395.57 172.513 395.41 172.24C395.257 171.96 395.05 171.75 394.79 171.61C394.537 171.463 394.263 171.39 393.97 171.39C393.683 171.39 393.41 171.463 393.15 171.61C392.897 171.757 392.69 171.97 392.53 172.25C392.377 172.53 392.3 172.86 392.3 173.24C392.3 173.62 392.377 173.953 392.53 174.24C392.69 174.52 392.897 174.733 393.15 174.88C393.41 175.027 393.683 175.1 393.97 175.1C394.263 175.1 394.537 175.027 394.79 174.88C395.05 174.727 395.257 174.507 395.41 174.22C395.57 173.933 395.65 173.6 395.65 173.22ZM399.078 171.3C399.271 171.047 399.534 170.833 399.868 170.66C400.201 170.487 400.578 170.4 400.998 170.4C401.478 170.4 401.914 170.52 402.308 170.76C402.708 170.993 403.021 171.323 403.248 171.75C403.474 172.177 403.588 172.667 403.588 173.22C403.588 173.773 403.474 174.27 403.248 174.71C403.021 175.143 402.708 175.483 402.308 175.73C401.914 175.97 401.478 176.09 400.998 176.09C400.578 176.09 400.204 176.007 399.878 175.84C399.551 175.667 399.284 175.453 399.078 175.2V178.62H397.938V170.49H399.078V171.3ZM402.428 173.22C402.428 172.84 402.348 172.513 402.188 172.24C402.034 171.96 401.828 171.75 401.568 171.61C401.314 171.463 401.041 171.39 400.748 171.39C400.461 171.39 400.188 171.463 399.928 171.61C399.674 171.757 399.468 171.97 399.308 172.25C399.154 172.53 399.078 172.86 399.078 173.24C399.078 173.62 399.154 173.953 399.308 174.24C399.468 174.52 399.674 174.733 399.928 174.88C400.188 175.027 400.461 175.1 400.748 175.1C401.041 175.1 401.314 175.027 401.568 174.88C401.828 174.727 402.034 174.507 402.188 174.22C402.348 173.933 402.428 173.6 402.428 173.22ZM409.765 173.11C409.765 173.317 409.752 173.503 409.725 173.67H405.515C405.548 174.11 405.712 174.463 406.005 174.73C406.298 174.997 406.658 175.13 407.085 175.13C407.698 175.13 408.132 174.873 408.385 174.36H409.615C409.448 174.867 409.145 175.283 408.705 175.61C408.272 175.93 407.732 176.09 407.085 176.09C406.558 176.09 406.085 175.973 405.665 175.74C405.252 175.5 404.925 175.167 404.685 174.74C404.452 174.307 404.335 173.807 404.335 173.24C404.335 172.673 404.448 172.177 404.675 171.75C404.908 171.317 405.232 170.983 405.645 170.75C406.065 170.517 406.545 170.4 407.085 170.4C407.605 170.4 408.068 170.513 408.475 170.74C408.882 170.967 409.198 171.287 409.425 171.7C409.652 172.107 409.765 172.577 409.765 173.11ZM408.575 172.75C408.568 172.33 408.418 171.993 408.125 171.74C407.832 171.487 407.468 171.36 407.035 171.36C406.642 171.36 406.305 171.487 406.025 171.74C405.745 171.987 405.578 172.323 405.525 172.75H408.575ZM410.507 173.22C410.507 172.667 410.62 172.177 410.847 171.75C411.08 171.323 411.393 170.993 411.787 170.76C412.187 170.52 412.63 170.4 413.117 170.4C413.477 170.4 413.83 170.48 414.177 170.64C414.53 170.793 414.81 171 415.017 171.26V168.6H416.167V176H415.017V175.17C414.83 175.437 414.57 175.657 414.237 175.83C413.91 176.003 413.533 176.09 413.107 176.09C412.627 176.09 412.187 175.97 411.787 175.73C411.393 175.483 411.08 175.143 410.847 174.71C410.62 174.27 410.507 173.773 410.507 173.22ZM415.017 173.24C415.017 172.86 414.937 172.53 414.777 172.25C414.623 171.97 414.42 171.757 414.167 171.61C413.913 171.463 413.64 171.39 413.347 171.39C413.053 171.39 412.78 171.463 412.527 171.61C412.273 171.75 412.067 171.96 411.907 172.24C411.753 172.513 411.677 172.84 411.677 173.22C411.677 173.6 411.753 173.933 411.907 174.22C412.067 174.507 412.273 174.727 412.527 174.88C412.787 175.027 413.06 175.1 413.347 175.1C413.64 175.1 413.913 175.027 414.167 174.88C414.42 174.733 414.623 174.52 414.777 174.24C414.937 173.953 415.017 173.62 415.017 173.24Z" fill="white"/>
<rect x="305" y="235" width="150" height="20" rx="10" fill="white" fill-opacity="0.1"/>
</svg>
