<svg width="480" height="360" viewBox="0 0 480 360" fill="none" xmlns="http://www.w3.org/2000/svg">
<path d="M188.804 194.084C188.244 194.084 187.74 193.988 187.292 193.796C186.844 193.596 186.492 193.316 186.236 192.956C185.98 192.596 185.852 192.176 185.852 191.696H187.316C187.348 192.056 187.488 192.352 187.736 192.584C187.992 192.816 188.348 192.932 188.804 192.932C189.276 192.932 189.644 192.82 189.908 192.596C190.172 192.364 190.304 192.068 190.304 191.708C190.304 191.428 190.22 191.2 190.052 191.024C189.892 190.848 189.688 190.712 189.44 190.616C189.2 190.52 188.864 190.416 188.432 190.304C187.888 190.16 187.444 190.016 187.1 189.872C186.764 189.72 186.476 189.488 186.236 189.176C185.996 188.864 185.876 188.448 185.876 187.928C185.876 187.448 185.996 187.028 186.236 186.668C186.476 186.308 186.812 186.032 187.244 185.84C187.676 185.648 188.176 185.552 188.744 185.552C189.552 185.552 190.212 185.756 190.724 186.164C191.244 186.564 191.532 187.116 191.588 187.82H190.076C190.052 187.516 189.908 187.256 189.644 187.04C189.38 186.824 189.032 186.716 188.6 186.716C188.208 186.716 187.888 186.816 187.64 187.016C187.392 187.216 187.268 187.504 187.268 187.88C187.268 188.136 187.344 188.348 187.496 188.516C187.656 188.676 187.856 188.804 188.096 188.9C188.336 188.996 188.664 189.1 189.08 189.212C189.632 189.364 190.08 189.516 190.424 189.668C190.776 189.82 191.072 190.056 191.312 190.376C191.56 190.688 191.684 191.108 191.684 191.636C191.684 192.06 191.568 192.46 191.336 192.836C191.112 193.212 190.78 193.516 190.34 193.748C189.908 193.972 189.396 194.084 188.804 194.084ZM199.358 190.532C199.358 190.78 199.342 191.004 199.31 191.204H194.258C194.298 191.732 194.494 192.156 194.846 192.476C195.198 192.796 195.63 192.956 196.142 192.956C196.878 192.956 197.398 192.648 197.702 192.032H199.178C198.978 192.64 198.614 193.14 198.086 193.532C197.566 193.916 196.918 194.108 196.142 194.108C195.51 194.108 194.942 193.968 194.438 193.688C193.942 193.4 193.55 193 193.262 192.488C192.982 191.968 192.842 191.368 192.842 190.688C192.842 190.008 192.978 189.412 193.25 188.9C193.53 188.38 193.918 187.98 194.414 187.7C194.918 187.42 195.494 187.28 196.142 187.28C196.766 187.28 197.322 187.416 197.81 187.688C198.298 187.96 198.678 188.344 198.95 188.84C199.222 189.328 199.358 189.892 199.358 190.532ZM197.93 190.1C197.922 189.596 197.742 189.192 197.39 188.888C197.038 188.584 196.602 188.432 196.082 188.432C195.61 188.432 195.206 188.584 194.87 188.888C194.534 189.184 194.334 189.588 194.27 190.1H197.93ZM202.073 185.12V194H200.705V185.12H202.073ZM209.929 190.532C209.929 190.78 209.913 191.004 209.881 191.204H204.829C204.869 191.732 205.065 192.156 205.417 192.476C205.769 192.796 206.201 192.956 206.713 192.956C207.449 192.956 207.969 192.648 208.273 192.032H209.749C209.549 192.64 209.185 193.14 208.657 193.532C208.137 193.916 207.489 194.108 206.713 194.108C206.081 194.108 205.513 193.968 205.009 193.688C204.513 193.4 204.121 193 203.833 192.488C203.553 191.968 203.413 191.368 203.413 190.688C203.413 190.008 203.549 189.412 203.821 188.9C204.101 188.38 204.489 187.98 204.985 187.7C205.489 187.42 206.065 187.28 206.713 187.28C207.337 187.28 207.893 187.416 208.381 187.688C208.869 187.96 209.249 188.344 209.521 188.84C209.793 189.328 209.929 189.892 209.929 190.532ZM208.501 190.1C208.493 189.596 208.313 189.192 207.961 188.888C207.609 188.584 207.173 188.432 206.653 188.432C206.181 188.432 205.777 188.584 205.441 188.888C205.105 189.184 204.905 189.588 204.841 190.1H208.501ZM210.819 190.688C210.819 190.008 210.955 189.412 211.227 188.9C211.507 188.38 211.891 187.98 212.379 187.7C212.867 187.42 213.427 187.28 214.059 187.28C214.859 187.28 215.519 187.472 216.039 187.856C216.567 188.232 216.923 188.772 217.107 189.476H215.631C215.511 189.148 215.319 188.892 215.055 188.708C214.791 188.524 214.459 188.432 214.059 188.432C213.499 188.432 213.051 188.632 212.715 189.032C212.387 189.424 212.223 189.976 212.223 190.688C212.223 191.4 212.387 191.956 212.715 192.356C213.051 192.756 213.499 192.956 214.059 192.956C214.851 192.956 215.375 192.608 215.631 191.912H217.107C216.915 192.584 216.555 193.12 216.027 193.52C215.499 193.912 214.843 194.108 214.059 194.108C213.427 194.108 212.867 193.968 212.379 193.688C211.891 193.4 211.507 193 211.227 192.488C210.955 191.968 210.819 191.368 210.819 190.688ZM220.066 188.504V192.164C220.066 192.412 220.122 192.592 220.234 192.704C220.354 192.808 220.554 192.86 220.834 192.86H221.674V194H220.594C219.978 194 219.506 193.856 219.178 193.568C218.85 193.28 218.686 192.812 218.686 192.164V188.504H217.906V187.388H218.686V185.744H220.066V187.388H221.674V188.504H220.066ZM232.004 187.388L227.948 197.108H226.532L227.876 193.892L225.272 187.388H226.796L228.656 192.428L230.588 187.388H232.004ZM235.905 194.108C235.281 194.108 234.717 193.968 234.213 193.688C233.709 193.4 233.313 193 233.025 192.488C232.737 191.968 232.593 191.368 232.593 190.688C232.593 190.016 232.741 189.42 233.037 188.9C233.333 188.38 233.737 187.98 234.249 187.7C234.761 187.42 235.333 187.28 235.965 187.28C236.597 187.28 237.169 187.42 237.681 187.7C238.193 187.98 238.597 188.38 238.893 188.9C239.189 189.42 239.337 190.016 239.337 190.688C239.337 191.36 239.185 191.956 238.881 192.476C238.577 192.996 238.161 193.4 237.633 193.688C237.113 193.968 236.537 194.108 235.905 194.108ZM235.905 192.92C236.257 192.92 236.585 192.836 236.889 192.668C237.201 192.5 237.453 192.248 237.645 191.912C237.837 191.576 237.933 191.168 237.933 190.688C237.933 190.208 237.841 189.804 237.657 189.476C237.473 189.14 237.229 188.888 236.925 188.72C236.621 188.552 236.293 188.468 235.941 188.468C235.589 188.468 235.261 188.552 234.957 188.72C234.661 188.888 234.425 189.14 234.249 189.476C234.073 189.804 233.985 190.208 233.985 190.688C233.985 191.4 234.165 191.952 234.525 192.344C234.893 192.728 235.353 192.92 235.905 192.92ZM246.677 187.388V194H245.309V193.22C245.093 193.492 244.809 193.708 244.457 193.868C244.113 194.02 243.745 194.096 243.353 194.096C242.833 194.096 242.365 193.988 241.949 193.772C241.541 193.556 241.217 193.236 240.977 192.812C240.745 192.388 240.629 191.876 240.629 191.276V187.388H241.985V191.072C241.985 191.664 242.133 192.12 242.429 192.44C242.725 192.752 243.129 192.908 243.641 192.908C244.153 192.908 244.557 192.752 244.853 192.44C245.157 192.12 245.309 191.664 245.309 191.072V187.388H246.677ZM249.85 188.348C250.05 188.012 250.314 187.752 250.642 187.568C250.978 187.376 251.374 187.28 251.83 187.28V188.696H251.482C250.946 188.696 250.538 188.832 250.258 189.104C249.986 189.376 249.85 189.848 249.85 190.52V194H248.482V187.388H249.85V188.348ZM257.801 188.504V192.164C257.801 192.412 257.857 192.592 257.969 192.704C258.089 192.808 258.289 192.86 258.569 192.86H259.409V194H258.329C257.713 194 257.241 193.856 256.913 193.568C256.585 193.28 256.421 192.812 256.421 192.164V188.504H255.641V187.388H256.421V185.744H257.801V187.388H259.409V188.504H257.801ZM264.09 187.28C264.594 187.28 265.042 187.388 265.434 187.604C265.834 187.82 266.146 188.14 266.37 188.564C266.602 188.988 266.718 189.5 266.718 190.1V194H265.362V190.304C265.362 189.712 265.214 189.26 264.918 188.948C264.622 188.628 264.218 188.468 263.706 188.468C263.194 188.468 262.786 188.628 262.482 188.948C262.186 189.26 262.038 189.712 262.038 190.304V194H260.67V185.12H262.038V188.156C262.27 187.876 262.562 187.66 262.914 187.508C263.274 187.356 263.666 187.28 264.09 187.28ZM274.523 190.532C274.523 190.78 274.507 191.004 274.475 191.204H269.423C269.463 191.732 269.659 192.156 270.011 192.476C270.363 192.796 270.795 192.956 271.307 192.956C272.043 192.956 272.563 192.648 272.867 192.032H274.342C274.143 192.64 273.779 193.14 273.251 193.532C272.731 193.916 272.083 194.108 271.307 194.108C270.675 194.108 270.107 193.968 269.603 193.688C269.107 193.4 268.715 193 268.427 192.488C268.147 191.968 268.007 191.368 268.007 190.688C268.007 190.008 268.143 189.412 268.415 188.9C268.695 188.38 269.083 187.98 269.579 187.7C270.083 187.42 270.659 187.28 271.307 187.28C271.931 187.28 272.487 187.416 272.975 187.688C273.463 187.96 273.843 188.344 274.115 188.84C274.387 189.328 274.523 189.892 274.523 190.532ZM273.095 190.1C273.087 189.596 272.907 189.192 272.555 188.888C272.203 188.584 271.767 188.432 271.247 188.432C270.775 188.432 270.371 188.584 270.035 188.888C269.699 189.184 269.499 189.588 269.435 190.1H273.095ZM283.873 187.28C284.393 187.28 284.857 187.388 285.265 187.604C285.681 187.82 286.005 188.14 286.237 188.564C286.477 188.988 286.597 189.5 286.597 190.1V194H285.241V190.304C285.241 189.712 285.093 189.26 284.797 188.948C284.501 188.628 284.097 188.468 283.585 188.468C283.073 188.468 282.665 188.628 282.361 188.948C282.065 189.26 281.917 189.712 281.917 190.304V194H280.561V190.304C280.561 189.712 280.413 189.26 280.117 188.948C279.821 188.628 279.417 188.468 278.905 188.468C278.393 188.468 277.985 188.628 277.681 188.948C277.385 189.26 277.237 189.712 277.237 190.304V194H275.869V187.388H277.237V188.144C277.461 187.872 277.745 187.66 278.089 187.508C278.433 187.356 278.801 187.28 279.193 187.28C279.721 187.28 280.193 187.392 280.609 187.616C281.025 187.84 281.345 188.164 281.569 188.588C281.769 188.188 282.081 187.872 282.505 187.64C282.929 187.4 283.385 187.28 283.873 187.28ZM294.398 190.532C294.398 190.78 294.382 191.004 294.35 191.204H289.298C289.338 191.732 289.534 192.156 289.886 192.476C290.238 192.796 290.67 192.956 291.182 192.956C291.918 192.956 292.438 192.648 292.742 192.032H294.217C294.018 192.64 293.654 193.14 293.126 193.532C292.606 193.916 291.958 194.108 291.182 194.108C290.55 194.108 289.982 193.968 289.478 193.688C288.982 193.4 288.59 193 288.302 192.488C288.022 191.968 287.882 191.368 287.882 190.688C287.882 190.008 288.018 189.412 288.29 188.9C288.57 188.38 288.958 187.98 289.454 187.7C289.958 187.42 290.534 187.28 291.182 187.28C291.806 187.28 292.362 187.416 292.85 187.688C293.338 187.96 293.718 188.344 293.99 188.84C294.262 189.328 294.398 189.892 294.398 190.532ZM292.97 190.1C292.962 189.596 292.782 189.192 292.43 188.888C292.078 188.584 291.642 188.432 291.122 188.432C290.65 188.432 290.246 188.584 289.91 188.888C289.574 189.184 289.374 189.588 289.31 190.1H292.97Z" fill="white"/>
<rect x="160" y="225" width="70" height="30" rx="15" fill="white" fill-opacity="0.1"/>
<path d="M174.136 234.484C174.522 233.821 175.478 233.821 175.864 234.484L177.041 236.504C177.182 236.747 177.419 236.919 177.694 236.979L179.979 237.474C180.728 237.636 181.024 238.546 180.513 239.117L178.955 240.861C178.768 241.07 178.678 241.349 178.706 241.628L178.942 243.955C179.019 244.717 178.245 245.28 177.543 244.971L175.403 244.028C175.146 243.914 174.854 243.914 174.597 244.028L172.457 244.971C171.755 245.28 170.981 244.717 171.058 243.955L171.294 241.628C171.322 241.349 171.232 241.07 171.045 240.861L169.487 239.117C168.976 238.546 169.272 237.636 170.021 237.474L172.306 236.979C172.581 236.919 172.818 236.747 172.959 236.504L174.136 234.484Z" fill="white"/>
<path d="M193.624 235.66C194.512 235.66 195.288 235.832 195.952 236.176C196.624 236.512 197.14 237 197.5 237.64C197.868 238.272 198.052 239.012 198.052 239.86C198.052 240.708 197.868 241.444 197.5 242.068C197.14 242.692 196.624 243.172 195.952 243.508C195.288 243.836 194.512 244 193.624 244H190.9V235.66H193.624ZM193.624 242.884C194.6 242.884 195.348 242.62 195.868 242.092C196.388 241.564 196.648 240.82 196.648 239.86C196.648 238.892 196.388 238.136 195.868 237.592C195.348 237.048 194.6 236.776 193.624 236.776H192.268V242.884H193.624ZM198.952 240.664C198.952 240 199.088 239.412 199.36 238.9C199.64 238.388 200.016 237.992 200.488 237.712C200.968 237.424 201.496 237.28 202.072 237.28C202.592 237.28 203.044 237.384 203.428 237.592C203.82 237.792 204.132 238.044 204.364 238.348V237.388H205.744V244H204.364V243.016C204.132 243.328 203.816 243.588 203.416 243.796C203.016 244.004 202.56 244.108 202.048 244.108C201.48 244.108 200.96 243.964 200.488 243.676C200.016 243.38 199.64 242.972 199.36 242.452C199.088 241.924 198.952 241.328 198.952 240.664ZM204.364 240.688C204.364 240.232 204.268 239.836 204.076 239.5C203.892 239.164 203.648 238.908 203.344 238.732C203.04 238.556 202.712 238.468 202.36 238.468C202.008 238.468 201.68 238.556 201.376 238.732C201.072 238.9 200.824 239.152 200.632 239.488C200.448 239.816 200.356 240.208 200.356 240.664C200.356 241.12 200.448 241.52 200.632 241.864C200.824 242.208 201.072 242.472 201.376 242.656C201.688 242.832 202.016 242.92 202.36 242.92C202.712 242.92 203.04 242.832 203.344 242.656C203.648 242.48 203.892 242.224 204.076 241.888C204.268 241.544 204.364 241.144 204.364 240.688ZM208.909 238.348C209.109 238.012 209.373 237.752 209.701 237.568C210.037 237.376 210.433 237.28 210.889 237.28V238.696H210.541C210.005 238.696 209.597 238.832 209.317 239.104C209.045 239.376 208.909 239.848 208.909 240.52V244H207.541V237.388H208.909V238.348ZM214.762 240.7L217.81 244H215.962L213.514 241.156V244H212.146V235.12H213.514V240.28L215.914 237.388H217.81L214.762 240.7Z" fill="white"/>
<rect x="250" y="225" width="70" height="30" rx="15" fill="white" fill-opacity="0.1"/>
<path d="M282.268 242.896H285.088V244H280.9V235.66H282.268V242.896ZM286.928 236.512C286.68 236.512 286.472 236.428 286.304 236.26C286.136 236.092 286.052 235.884 286.052 235.636C286.052 235.388 286.136 235.18 286.304 235.012C286.472 234.844 286.68 234.76 286.928 234.76C287.168 234.76 287.372 234.844 287.54 235.012C287.708 235.18 287.792 235.388 287.792 235.636C287.792 235.884 287.708 236.092 287.54 236.26C287.372 236.428 287.168 236.512 286.928 236.512ZM287.6 237.388V244H286.232V237.388H287.6ZM292.06 237.28C292.572 237.28 293.024 237.384 293.416 237.592C293.816 237.792 294.128 238.044 294.352 238.348V237.388H295.732V244.108C295.732 244.716 295.604 245.256 295.348 245.728C295.092 246.208 294.72 246.584 294.232 246.856C293.752 247.128 293.176 247.264 292.504 247.264C291.608 247.264 290.864 247.052 290.272 246.628C289.68 246.212 289.344 245.644 289.264 244.924H290.62C290.724 245.268 290.944 245.544 291.28 245.752C291.624 245.968 292.032 246.076 292.504 246.076C293.056 246.076 293.5 245.908 293.836 245.572C294.18 245.236 294.352 244.748 294.352 244.108V243.004C294.12 243.316 293.804 243.58 293.404 243.796C293.012 244.004 292.564 244.108 292.06 244.108C291.484 244.108 290.956 243.964 290.476 243.676C290.004 243.38 289.628 242.972 289.348 242.452C289.076 241.924 288.94 241.328 288.94 240.664C288.94 240 289.076 239.412 289.348 238.9C289.628 238.388 290.004 237.992 290.476 237.712C290.956 237.424 291.484 237.28 292.06 237.28ZM294.352 240.688C294.352 240.232 294.256 239.836 294.064 239.5C293.88 239.164 293.636 238.908 293.332 238.732C293.028 238.556 292.7 238.468 292.348 238.468C291.996 238.468 291.668 238.556 291.364 238.732C291.06 238.9 290.812 239.152 290.62 239.488C290.436 239.816 290.344 240.208 290.344 240.664C290.344 241.12 290.436 241.52 290.62 241.864C290.812 242.208 291.06 242.472 291.364 242.656C291.676 242.832 292.004 242.92 292.348 242.92C292.7 242.92 293.028 242.832 293.332 242.656C293.636 242.48 293.88 242.224 294.064 241.888C294.256 241.544 294.352 241.144 294.352 240.688ZM300.949 237.28C301.453 237.28 301.901 237.388 302.293 237.604C302.693 237.82 303.005 238.14 303.229 238.564C303.461 238.988 303.577 239.5 303.577 240.1V244H302.221V240.304C302.221 239.712 302.073 239.26 301.777 238.948C301.481 238.628 301.077 238.468 300.565 238.468C300.053 238.468 299.645 238.628 299.341 238.948C299.045 239.26 298.897 239.712 298.897 240.304V244H297.529V235.12H298.897V238.156C299.129 237.876 299.421 237.66 299.773 237.508C300.133 237.356 300.525 237.28 300.949 237.28ZM306.918 238.504V242.164C306.918 242.412 306.974 242.592 307.086 242.704C307.206 242.808 307.406 242.86 307.686 242.86H308.526V244H307.446C306.83 244 306.358 243.856 306.03 243.568C305.702 243.28 305.538 242.812 305.538 242.164V238.504H304.758V237.388H305.538V235.744H306.918V237.388H308.526V238.504H306.918Z" fill="white"/>
<rect x="262" y="237" width="6" height="6" rx="3" fill="white"/>
<rect x="264" y="234" width="2" height="2" rx="1" fill="white"/>
<rect x="264" y="244" width="2" height="2" rx="1" fill="white"/>
<rect x="269.696" y="236.134" width="2" height="2" rx="1" transform="rotate(60 269.696 236.134)" fill="white"/>
<rect x="261.036" y="241.134" width="2" height="2" rx="1" transform="rotate(60 261.036 241.134)" fill="white"/>
<rect x="259.304" y="237.866" width="2" height="2" rx="1" transform="rotate(-60 259.304 237.866)" fill="white"/>
<rect x="267.964" y="242.866" width="2" height="2" rx="1" transform="rotate(-60 267.964 242.866)" fill="white"/>
</svg>
