<svg xmlns="http://www.w3.org/2000/svg" fill="none" viewBox="0 0 80 30" height="30" width="80">
<rect fill-opacity="0.25" fill="white" rx="15" height="30" width="80"></rect>
<path fill="black" d="M21.4668 19H20.0988L15.9828 12.772V19H14.6148V10.648H15.9828L20.0988 16.864V10.648H21.4668V19ZM26.1313 19.108C25.5073 19.108 24.9433 18.968 24.4393 18.688C23.9353 18.4 23.5393 18 23.2513 17.488C22.9633 16.968 22.8193 16.368 22.8193 15.688C22.8193 15.016 22.9673 14.42 23.2633 13.9C23.5593 13.38 23.9633 12.98 24.4753 12.7C24.9873 12.42 25.5593 12.28 26.1913 12.28C26.8233 12.28 27.3953 12.42 27.9073 12.7C28.4193 12.98 28.8233 13.38 29.1193 13.9C29.4153 14.42 29.5633 15.016 29.5633 15.688C29.5633 16.36 29.4113 16.956 29.1073 17.476C28.8033 17.996 28.3873 18.4 27.8593 18.688C27.3393 18.968 26.7633 19.108 26.1313 19.108ZM26.1313 17.92C26.4833 17.92 26.8113 17.836 27.1153 17.668C27.4273 17.5 27.6793 17.248 27.8713 16.912C28.0633 16.576 28.1593 16.168 28.1593 15.688C28.1593 15.208 28.0673 14.804 27.8833 14.476C27.6993 14.14 27.4553 13.888 27.1513 13.72C26.8473 13.552 26.5193 13.468 26.1673 13.468C25.8153 13.468 25.4873 13.552 25.1833 13.72C24.8873 13.888 24.6513 14.14 24.4753 14.476C24.2993 14.804 24.2113 15.208 24.2113 15.688C24.2113 16.4 24.3913 16.952 24.7513 17.344C25.1193 17.728 25.5793 17.92 26.1313 17.92ZM32.5116 13.504V17.164C32.5116 17.412 32.5676 17.592 32.6796 17.704C32.7996 17.808 32.9996 17.86 33.2796 17.86H34.1196V19H33.0396C32.4236 19 31.9516 18.856 31.6236 18.568C31.2956 18.28 31.1316 17.812 31.1316 17.164V13.504H30.3516V12.388H31.1316V10.744H32.5116V12.388H34.1196V13.504H32.5116ZM41.4405 15.532C41.4405 15.78 41.4245 16.004 41.3925 16.204H36.3405C36.3805 16.732 36.5765 17.156 36.9285 17.476C37.2805 17.796 37.7125 17.956 38.2245 17.956C38.9605 17.956 39.4805 17.648 39.7845 17.032H41.2605C41.0605 17.64 40.6965 18.14 40.1685 18.532C39.6485 18.916 39.0005 19.108 38.2245 19.108C37.5925 19.108 37.0245 18.968 36.5205 18.688C36.0245 18.4 35.6325 18 35.3445 17.488C35.0645 16.968 34.9245 16.368 34.9245 15.688C34.9245 15.008 35.0605 14.412 35.3325 13.9C35.6125 13.38 36.0005 12.98 36.4965 12.7C37.0005 12.42 37.5765 12.28 38.2245 12.28C38.8485 12.28 39.4045 12.416 39.8925 12.688C40.3805 12.96 40.7605 13.344 41.0325 13.84C41.3045 14.328 41.4405 14.892 41.4405 15.532ZM40.0125 15.1C40.0045 14.596 39.8245 14.192 39.4725 13.888C39.1205 13.584 38.6845 13.432 38.1645 13.432C37.6925 13.432 37.2885 13.584 36.9525 13.888C36.6165 14.184 36.4165 14.588 36.3525 15.1H40.0125ZM44.1547 13.36C44.3867 13.056 44.7027 12.8 45.1027 12.592C45.5027 12.384 45.9547 12.28 46.4587 12.28C47.0347 12.28 47.5587 12.424 48.0307 12.712C48.5107 12.992 48.8867 13.388 49.1587 13.9C49.4307 14.412 49.5667 15 49.5667 15.664C49.5667 16.328 49.4307 16.924 49.1587 17.452C48.8867 17.972 48.5107 18.38 48.0307 18.676C47.5587 18.964 47.0347 19.108 46.4587 19.108C45.9547 19.108 45.5067 19.008 45.1147 18.808C44.7227 18.6 44.4027 18.344 44.1547 18.04V22.144H42.7867V12.388H44.1547V13.36ZM48.1747 15.664C48.1747 15.208 48.0787 14.816 47.8867 14.488C47.7027 14.152 47.4547 13.9 47.1427 13.732C46.8387 13.556 46.5107 13.468 46.1587 13.468C45.8147 13.468 45.4867 13.556 45.1747 13.732C44.8707 13.908 44.6227 14.164 44.4307 14.5C44.2467 14.836 44.1547 15.232 44.1547 15.688C44.1547 16.144 44.2467 16.544 44.4307 16.888C44.6227 17.224 44.8707 17.48 45.1747 17.656C45.4867 17.832 45.8147 17.92 46.1587 17.92C46.5107 17.92 46.8387 17.832 47.1427 17.656C47.4547 17.472 47.7027 17.208 47.8867 16.864C48.0787 16.52 48.1747 16.12 48.1747 15.664ZM50.4635 15.664C50.4635 15 50.5995 14.412 50.8715 13.9C51.1515 13.388 51.5275 12.992 51.9995 12.712C52.4795 12.424 53.0075 12.28 53.5835 12.28C54.1035 12.28 54.5555 12.384 54.9395 12.592C55.3315 12.792 55.6435 13.044 55.8755 13.348V12.388H57.2555V19H55.8755V18.016C55.6435 18.328 55.3275 18.588 54.9275 18.796C54.5275 19.004 54.0715 19.108 53.5595 19.108C52.9915 19.108 52.4715 18.964 51.9995 18.676C51.5275 18.38 51.1515 17.972 50.8715 17.452C50.5995 16.924 50.4635 16.328 50.4635 15.664ZM55.8755 15.688C55.8755 15.232 55.7795 14.836 55.5875 14.5C55.4035 14.164 55.1595 13.908 54.8555 13.732C54.5515 13.556 54.2235 13.468 53.8715 13.468C53.5195 13.468 53.1915 13.556 52.8875 13.732C52.5835 13.9 52.3355 14.152 52.1435 14.488C51.9595 14.816 51.8675 15.208 51.8675 15.664C51.8675 16.12 51.9595 16.52 52.1435 16.864C52.3355 17.208 52.5835 17.472 52.8875 17.656C53.1995 17.832 53.5275 17.92 53.8715 17.92C54.2235 17.92 54.5515 17.832 54.8555 17.656C55.1595 17.48 55.4035 17.224 55.5875 16.888C55.7795 16.544 55.8755 16.144 55.8755 15.688ZM58.5963 15.664C58.5963 15 58.7323 14.412 59.0043 13.9C59.2843 13.388 59.6603 12.992 60.1323 12.712C60.6123 12.424 61.1443 12.28 61.7283 12.28C62.1603 12.28 62.5843 12.376 63.0003 12.568C63.4243 12.752 63.7603 13 64.0083 13.312V10.12H65.3883V19H64.0083V18.004C63.7843 18.324 63.4723 18.588 63.0723 18.796C62.6803 19.004 62.2283 19.108 61.7163 19.108C61.1403 19.108 60.6123 18.964 60.1323 18.676C59.6603 18.38 59.2843 17.972 59.0043 17.452C58.7323 16.924 58.5963 16.328 58.5963 15.664ZM64.0083 15.688C64.0083 15.232 63.9123 14.836 63.7203 14.5C63.5363 14.164 63.2923 13.908 62.9883 13.732C62.6843 13.556 62.3563 13.468 62.0043 13.468C61.6523 13.468 61.3243 13.556 61.0203 13.732C60.7163 13.9 60.4683 14.152 60.2763 14.488C60.0923 14.816 60.0003 15.208 60.0003 15.664C60.0003 16.12 60.0923 16.52 60.2763 16.864C60.4683 17.208 60.7163 17.472 61.0203 17.656C61.3323 17.832 61.6603 17.92 62.0043 17.92C62.3563 17.92 62.6843 17.832 62.9883 17.656C63.2923 17.48 63.5363 17.224 63.7203 16.888C63.9123 16.544 64.0083 16.144 64.0083 15.688Z"></path>
</svg>
