<svg xmlns="http://www.w3.org/2000/svg" fill="none" viewBox="0 0 480 360" height="360" width="480">
<rect fill-opacity="0.1" fill="white" rx="15" height="220" width="320" y="130" x="10"></rect>
<path fill="white" d="M149.36 194.462L144.356 206H142.286L147.344 194.678H140.684V192.932H149.36V194.462Z"></path>
<path fill="white" d="M90.8873 202.344L89.0633 200.52L87.2393 202.344L86.3393 201.444L88.1753 199.62L86.3873 197.832L87.2633 196.956L89.0513 198.744L90.8393 196.956L91.7393 197.856L89.9513 199.644L91.7633 201.468L90.8873 202.344ZM93.7939 196.5V195.252H96.2899V204H94.9099V196.5H93.7939ZM98.1692 199.512C98.1692 198.128 98.4012 197.048 98.8652 196.272C99.3372 195.488 100.145 195.096 101.289 195.096C102.433 195.096 103.237 195.488 103.701 196.272C104.173 197.048 104.409 198.128 104.409 199.512C104.409 200.912 104.173 202.008 103.701 202.8C103.237 203.584 102.433 203.976 101.289 203.976C100.145 203.976 99.3372 203.584 98.8652 202.8C98.4012 202.008 98.1692 200.912 98.1692 199.512ZM103.065 199.512C103.065 198.864 103.021 198.316 102.933 197.868C102.853 197.42 102.685 197.056 102.429 196.776C102.173 196.488 101.793 196.344 101.289 196.344C100.785 196.344 100.405 196.488 100.149 196.776C99.8932 197.056 99.7212 197.42 99.6332 197.868C99.5532 198.316 99.5132 198.864 99.5132 199.512C99.5132 200.184 99.5532 200.748 99.6332 201.204C99.7132 201.66 99.8812 202.028 100.137 202.308C100.401 202.588 100.785 202.728 101.289 202.728C101.793 202.728 102.173 202.588 102.429 202.308C102.693 202.028 102.865 201.66 102.945 201.204C103.025 200.748 103.065 200.184 103.065 199.512Z"></path>
<path fill="white" d="M140.001 243.264V241.716L146.049 233.04H148.533V241.482H150.207V243.264H148.533V246H146.517V243.264H140.001ZM146.607 235.128L142.359 241.482H146.607V235.128Z"></path>
<path fill="white" d="M84.651 244.099C84.1743 244.099 83.7453 244.015 83.364 243.846C82.99 243.67 82.693 243.435 82.473 243.142C82.253 242.841 82.1356 242.508 82.121 242.141H83.419C83.441 242.398 83.562 242.614 83.782 242.79C84.0093 242.959 84.2916 243.043 84.629 243.043C84.981 243.043 85.2523 242.977 85.443 242.845C85.641 242.706 85.74 242.53 85.74 242.317C85.74 242.09 85.63 241.921 85.41 241.811C85.1973 241.701 84.8563 241.58 84.387 241.448C83.9323 241.323 83.562 241.202 83.276 241.085C82.99 240.968 82.7406 240.788 82.528 240.546C82.3226 240.304 82.22 239.985 82.22 239.589C82.22 239.266 82.3153 238.973 82.506 238.709C82.6966 238.438 82.968 238.225 83.32 238.071C83.6793 237.917 84.09 237.84 84.552 237.84C85.2413 237.84 85.795 238.016 86.213 238.368C86.6383 238.713 86.8656 239.186 86.895 239.787H85.641C85.619 239.516 85.509 239.299 85.311 239.138C85.113 238.977 84.8453 238.896 84.508 238.896C84.178 238.896 83.925 238.958 83.749 239.083C83.573 239.208 83.485 239.373 83.485 239.578C83.485 239.739 83.5436 239.875 83.661 239.985C83.7783 240.095 83.9213 240.183 84.09 240.249C84.2586 240.308 84.508 240.385 84.838 240.48C85.278 240.597 85.6373 240.718 85.916 240.843C86.202 240.96 86.4476 241.136 86.653 241.371C86.8583 241.606 86.9646 241.917 86.972 242.306C86.972 242.651 86.8766 242.959 86.686 243.23C86.4953 243.501 86.224 243.714 85.872 243.868C85.5273 244.022 85.1203 244.099 84.651 244.099ZM88.965 237.136C88.7376 237.136 88.547 237.059 88.393 236.905C88.239 236.751 88.162 236.56 88.162 236.333C88.162 236.106 88.239 235.915 88.393 235.761C88.547 235.607 88.7376 235.53 88.965 235.53C89.185 235.53 89.372 235.607 89.526 235.761C89.68 235.915 89.757 236.106 89.757 236.333C89.757 236.56 89.68 236.751 89.526 236.905C89.372 237.059 89.185 237.136 88.965 237.136ZM89.581 237.939V244H88.327V237.939H89.581ZM94.2853 237.84C94.762 237.84 95.1873 237.939 95.5613 238.137C95.9427 238.335 96.2397 238.628 96.4523 239.017C96.665 239.406 96.7713 239.875 96.7713 240.425V244H95.5283V240.612C95.5283 240.069 95.3927 239.655 95.1213 239.369C94.85 239.076 94.4797 238.929 94.0103 238.929C93.541 238.929 93.167 239.076 92.8883 239.369C92.617 239.655 92.4813 240.069 92.4813 240.612V244H91.2273V237.939H92.4813V238.632C92.6867 238.383 92.947 238.188 93.2623 238.049C93.585 237.91 93.926 237.84 94.2853 237.84ZM101.143 246.046C100.424 245.357 99.8706 244.48 99.4819 243.417C99.1006 242.354 98.9099 241.213 98.9099 239.996C98.9099 238.749 99.1152 237.572 99.5259 236.465C99.9439 235.358 100.556 234.445 101.363 233.726H102.661V233.847C101.818 234.624 101.183 235.556 100.758 236.641C100.333 237.726 100.12 238.845 100.12 239.996C100.12 241.103 100.318 242.174 100.714 243.208C101.11 244.242 101.686 245.148 102.441 245.925V246.046H101.143ZM103.477 246.046V245.925C104.232 245.148 104.808 244.242 105.204 243.208C105.6 242.174 105.798 241.103 105.798 239.996C105.798 238.845 105.585 237.726 105.16 236.641C104.735 235.556 104.1 234.624 103.257 233.847V233.726H104.555C105.362 234.445 105.97 235.358 106.381 236.465C106.799 237.572 107.008 238.749 107.008 239.996C107.008 241.213 106.814 242.354 106.425 243.417C106.044 244.48 105.494 245.357 104.775 246.046H103.477Z"></path>
<path fill="white" d="M28.3054 240.942C28.3054 240.333 28.4301 239.794 28.6794 239.325C28.9361 238.856 29.2808 238.493 29.7134 238.236C30.1534 237.972 30.6374 237.84 31.1654 237.84C31.6421 237.84 32.0564 237.935 32.4084 238.126C32.7678 238.309 33.0538 238.54 33.2664 238.819V237.939H34.5314V244H33.2664V243.098C33.0538 243.384 32.7641 243.622 32.3974 243.813C32.0308 244.004 31.6128 244.099 31.1434 244.099C30.6228 244.099 30.1461 243.967 29.7134 243.703C29.2808 243.432 28.9361 243.058 28.6794 242.581C28.4301 242.097 28.3054 241.551 28.3054 240.942ZM33.2664 240.964C33.2664 240.546 33.1784 240.183 33.0024 239.875C32.8338 239.567 32.6101 239.332 32.3314 239.171C32.0528 239.01 31.7521 238.929 31.4294 238.929C31.1068 238.929 30.8061 239.01 30.5274 239.171C30.2488 239.325 30.0214 239.556 29.8454 239.864C29.6768 240.165 29.5924 240.524 29.5924 240.942C29.5924 241.36 29.6768 241.727 29.8454 242.042C30.0214 242.357 30.2488 242.599 30.5274 242.768C30.8134 242.929 31.1141 243.01 31.4294 243.01C31.7521 243.01 32.0528 242.929 32.3314 242.768C32.6101 242.607 32.8338 242.372 33.0024 242.064C33.1784 241.749 33.2664 241.382 33.2664 240.964ZM38.3785 244.099C37.9018 244.099 37.4728 244.015 37.0915 243.846C36.7175 243.67 36.4205 243.435 36.2005 243.142C35.9805 242.841 35.8632 242.508 35.8485 242.141H37.1465C37.1685 242.398 37.2895 242.614 37.5095 242.79C37.7368 242.959 38.0192 243.043 38.3565 243.043C38.7085 243.043 38.9798 242.977 39.1705 242.845C39.3685 242.706 39.4675 242.53 39.4675 242.317C39.4675 242.09 39.3575 241.921 39.1375 241.811C38.9248 241.701 38.5838 241.58 38.1145 241.448C37.6598 241.323 37.2895 241.202 37.0035 241.085C36.7175 240.968 36.4682 240.788 36.2555 240.546C36.0502 240.304 35.9475 239.985 35.9475 239.589C35.9475 239.266 36.0428 238.973 36.2335 238.709C36.4242 238.438 36.6955 238.225 37.0475 238.071C37.4068 237.917 37.8175 237.84 38.2795 237.84C38.9688 237.84 39.5225 238.016 39.9405 238.368C40.3658 238.713 40.5932 239.186 40.6225 239.787H39.3685C39.3465 239.516 39.2365 239.299 39.0385 239.138C38.8405 238.977 38.5728 238.896 38.2355 238.896C37.9055 238.896 37.6525 238.958 37.4765 239.083C37.3005 239.208 37.2125 239.373 37.2125 239.578C37.2125 239.739 37.2712 239.875 37.3885 239.985C37.5058 240.095 37.6488 240.183 37.8175 240.249C37.9862 240.308 38.2355 240.385 38.5655 240.48C39.0055 240.597 39.3648 240.718 39.6435 240.843C39.9295 240.96 40.1752 241.136 40.3805 241.371C40.5858 241.606 40.6922 241.917 40.6995 242.306C40.6995 242.651 40.6042 242.959 40.4135 243.23C40.2228 243.501 39.9515 243.714 39.5995 243.868C39.2548 244.022 38.8478 244.099 38.3785 244.099ZM42.6925 237.136C42.4652 237.136 42.2745 237.059 42.1205 236.905C41.9665 236.751 41.8895 236.56 41.8895 236.333C41.8895 236.106 41.9665 235.915 42.1205 235.761C42.2745 235.607 42.4652 235.53 42.6925 235.53C42.9125 235.53 43.0995 235.607 43.2535 235.761C43.4075 235.915 43.4845 236.106 43.4845 236.333C43.4845 236.56 43.4075 236.751 43.2535 236.905C43.0995 237.059 42.9125 237.136 42.6925 237.136ZM43.3085 237.939V244H42.0545V237.939H43.3085ZM48.0129 237.84C48.4895 237.84 48.9149 237.939 49.2889 238.137C49.6702 238.335 49.9672 238.628 50.1799 239.017C50.3925 239.406 50.4989 239.875 50.4989 240.425V244H49.2559V240.612C49.2559 240.069 49.1202 239.655 48.8489 239.369C48.5775 239.076 48.2072 238.929 47.7379 238.929C47.2685 238.929 46.8945 239.076 46.6159 239.369C46.3445 239.655 46.2089 240.069 46.2089 240.612V244H44.9549V237.939H46.2089V238.632C46.4142 238.383 46.6745 238.188 46.9899 238.049C47.3125 237.91 47.6535 237.84 48.0129 237.84ZM54.8704 246.046C54.1518 245.357 53.5981 244.48 53.2094 243.417C52.8281 242.354 52.6374 241.213 52.6374 239.996C52.6374 238.749 52.8428 237.572 53.2534 236.465C53.6714 235.358 54.2838 234.445 55.0904 233.726H56.3884V233.847C55.5451 234.624 54.9108 235.556 54.4854 236.641C54.0601 237.726 53.8474 238.845 53.8474 239.996C53.8474 241.103 54.0454 242.174 54.4414 243.208C54.8374 244.242 55.4131 245.148 56.1684 245.925V246.046H54.8704ZM57.2045 246.046V245.925C57.9598 245.148 58.5355 244.242 58.9315 243.208C59.3275 242.174 59.5255 241.103 59.5255 239.996C59.5255 238.845 59.3128 237.726 58.8875 236.641C58.4622 235.556 57.8278 234.624 56.9845 233.847V233.726H58.2825C59.0892 234.445 59.6978 235.358 60.1085 236.465C60.5265 237.572 60.7355 238.749 60.7355 239.996C60.7355 241.213 60.5412 242.354 60.1525 243.417C59.7712 244.48 59.2212 245.357 58.5025 246.046H57.2045Z"></path>
<path fill="white" d="M142.664 274.75V272.878H146.408V286H144.338V274.75H142.664Z"></path>
<path fill="white" d="M80.2498 280.964C80.2498 280.341 80.3744 279.794 80.6238 279.325C80.8804 278.848 81.2324 278.482 81.6798 278.225C82.1271 277.968 82.6404 277.84 83.2198 277.84C83.9531 277.84 84.5581 278.016 85.0348 278.368C85.5188 278.713 85.8451 279.208 86.0138 279.853H84.6608C84.5508 279.552 84.3748 279.318 84.1328 279.149C83.8908 278.98 83.5864 278.896 83.2198 278.896C82.7064 278.896 82.2958 279.079 81.9878 279.446C81.6871 279.805 81.5368 280.311 81.5368 280.964C81.5368 281.617 81.6871 282.126 81.9878 282.493C82.2958 282.86 82.7064 283.043 83.2198 283.043C83.9458 283.043 84.4261 282.724 84.6608 282.086H86.0138C85.8378 282.702 85.5078 283.193 85.0238 283.56C84.5398 283.919 83.9384 284.099 83.2198 284.099C82.6404 284.099 82.1271 283.971 81.6798 283.714C81.2324 283.45 80.8804 283.083 80.6238 282.614C80.3744 282.137 80.2498 281.587 80.2498 280.964ZM89.8925 284.099C89.3205 284.099 88.8035 283.971 88.3415 283.714C87.8795 283.45 87.5165 283.083 87.2525 282.614C86.9885 282.137 86.8565 281.587 86.8565 280.964C86.8565 280.348 86.9921 279.802 87.2635 279.325C87.5348 278.848 87.9051 278.482 88.3745 278.225C88.8438 277.968 89.3681 277.84 89.9475 277.84C90.5268 277.84 91.0511 277.968 91.5205 278.225C91.9898 278.482 92.3601 278.848 92.6315 279.325C92.9028 279.802 93.0385 280.348 93.0385 280.964C93.0385 281.58 92.8991 282.126 92.6205 282.603C92.3418 283.08 91.9605 283.45 91.4765 283.714C90.9998 283.971 90.4718 284.099 89.8925 284.099ZM89.8925 283.01C90.2151 283.01 90.5158 282.933 90.7945 282.779C91.0805 282.625 91.3115 282.394 91.4875 282.086C91.6635 281.778 91.7515 281.404 91.7515 280.964C91.7515 280.524 91.6671 280.154 91.4985 279.853C91.3298 279.545 91.1061 279.314 90.8275 279.16C90.5488 279.006 90.2481 278.929 89.9255 278.929C89.6028 278.929 89.3021 279.006 89.0235 279.16C88.7521 279.314 88.5358 279.545 88.3745 279.853C88.2131 280.154 88.1325 280.524 88.1325 280.964C88.1325 281.617 88.2975 282.123 88.6275 282.482C88.9648 282.834 89.3865 283.01 89.8925 283.01ZM96.4781 284.099C96.0015 284.099 95.5725 284.015 95.1911 283.846C94.8171 283.67 94.5201 283.435 94.3001 283.142C94.0801 282.841 93.9628 282.508 93.9481 282.141H95.2461C95.2681 282.398 95.3891 282.614 95.6091 282.79C95.8365 282.959 96.1188 283.043 96.4561 283.043C96.8081 283.043 97.0795 282.977 97.2701 282.845C97.4681 282.706 97.5671 282.53 97.5671 282.317C97.5671 282.09 97.4571 281.921 97.2371 281.811C97.0245 281.701 96.6835 281.58 96.2141 281.448C95.7595 281.323 95.3891 281.202 95.1031 281.085C94.8171 280.968 94.5678 280.788 94.3551 280.546C94.1498 280.304 94.0471 279.985 94.0471 279.589C94.0471 279.266 94.1425 278.973 94.3331 278.709C94.5238 278.438 94.7951 278.225 95.1471 278.071C95.5065 277.917 95.9171 277.84 96.3791 277.84C97.0685 277.84 97.6221 278.016 98.0401 278.368C98.4655 278.713 98.6928 279.186 98.7221 279.787H97.4681C97.4461 279.516 97.3361 279.299 97.1381 279.138C96.9401 278.977 96.6725 278.896 96.3351 278.896C96.0051 278.896 95.7521 278.958 95.5761 279.083C95.4001 279.208 95.3121 279.373 95.3121 279.578C95.3121 279.739 95.3708 279.875 95.4881 279.985C95.6055 280.095 95.7485 280.183 95.9171 280.249C96.0858 280.308 96.3351 280.385 96.6651 280.48C97.1051 280.597 97.4645 280.718 97.7431 280.843C98.0291 280.96 98.2748 281.136 98.4801 281.371C98.6855 281.606 98.7918 281.917 98.7991 282.306C98.7991 282.651 98.7038 282.959 98.5131 283.23C98.3225 283.501 98.0511 283.714 97.6991 283.868C97.3545 284.022 96.9475 284.099 96.4781 284.099ZM102.926 286.046C102.207 285.357 101.654 284.48 101.265 283.417C100.884 282.354 100.693 281.213 100.693 279.996C100.693 278.749 100.898 277.572 101.309 276.465C101.727 275.358 102.339 274.445 103.146 273.726H104.444V273.847C103.601 274.624 102.966 275.556 102.541 276.641C102.116 277.726 101.903 278.845 101.903 279.996C101.903 281.103 102.101 282.174 102.497 283.208C102.893 284.242 103.469 285.148 104.224 285.925V286.046H102.926ZM105.26 286.046V285.925C106.015 285.148 106.591 284.242 106.987 283.208C107.383 282.174 107.581 281.103 107.581 279.996C107.581 278.845 107.368 277.726 106.943 276.641C106.518 275.556 105.883 274.624 105.04 273.847V273.726H106.338C107.145 274.445 107.753 275.358 108.164 276.465C108.582 277.572 108.791 278.749 108.791 279.996C108.791 281.213 108.597 282.354 108.208 283.417C107.827 284.48 107.277 285.357 106.558 286.046H105.26Z"></path>
<path fill="white" d="M26.5222 280.942C26.5222 280.333 26.6469 279.794 26.8962 279.325C27.1529 278.856 27.4976 278.493 27.9302 278.236C28.3702 277.972 28.8542 277.84 29.3822 277.84C29.8589 277.84 30.2732 277.935 30.6252 278.126C30.9846 278.309 31.2706 278.54 31.4832 278.819V277.939H32.7482V284H31.4832V283.098C31.2706 283.384 30.9809 283.622 30.6142 283.813C30.2476 284.004 29.8296 284.099 29.3602 284.099C28.8396 284.099 28.3629 283.967 27.9302 283.703C27.4976 283.432 27.1529 283.058 26.8962 282.581C26.6469 282.097 26.5222 281.551 26.5222 280.942ZM31.4832 280.964C31.4832 280.546 31.3952 280.183 31.2192 279.875C31.0506 279.567 30.8269 279.332 30.5482 279.171C30.2696 279.01 29.9689 278.929 29.6462 278.929C29.3236 278.929 29.0229 279.01 28.7442 279.171C28.4656 279.325 28.2382 279.556 28.0622 279.864C27.8936 280.165 27.8092 280.524 27.8092 280.942C27.8092 281.36 27.8936 281.727 28.0622 282.042C28.2382 282.357 28.4656 282.599 28.7442 282.768C29.0302 282.929 29.3309 283.01 29.6462 283.01C29.9689 283.01 30.2696 282.929 30.5482 282.768C30.8269 282.607 31.0506 282.372 31.2192 282.064C31.3952 281.749 31.4832 281.382 31.4832 280.964ZM33.9773 280.964C33.9773 280.341 34.102 279.794 34.3513 279.325C34.608 278.848 34.96 278.482 35.4073 278.225C35.8546 277.968 36.368 277.84 36.9473 277.84C37.6806 277.84 38.2856 278.016 38.7623 278.368C39.2463 278.713 39.5726 279.208 39.7413 279.853H38.3883C38.2783 279.552 38.1023 279.318 37.8603 279.149C37.6183 278.98 37.314 278.896 36.9473 278.896C36.434 278.896 36.0233 279.079 35.7153 279.446C35.4146 279.805 35.2643 280.311 35.2643 280.964C35.2643 281.617 35.4146 282.126 35.7153 282.493C36.0233 282.86 36.434 283.043 36.9473 283.043C37.6733 283.043 38.1536 282.724 38.3883 282.086H39.7413C39.5653 282.702 39.2353 283.193 38.7513 283.56C38.2673 283.919 37.666 284.099 36.9473 284.099C36.368 284.099 35.8546 283.971 35.4073 283.714C34.96 283.45 34.608 283.083 34.3513 282.614C34.102 282.137 33.9773 281.587 33.9773 280.964ZM43.62 284.099C43.048 284.099 42.531 283.971 42.069 283.714C41.607 283.45 41.244 283.083 40.98 282.614C40.716 282.137 40.584 281.587 40.584 280.964C40.584 280.348 40.7197 279.802 40.991 279.325C41.2623 278.848 41.6327 278.482 42.102 278.225C42.5713 277.968 43.0957 277.84 43.675 277.84C44.2543 277.84 44.7787 277.968 45.248 278.225C45.7173 278.482 46.0877 278.848 46.359 279.325C46.6303 279.802 46.766 280.348 46.766 280.964C46.766 281.58 46.6267 282.126 46.348 282.603C46.0693 283.08 45.688 283.45 45.204 283.714C44.7273 283.971 44.1993 284.099 43.62 284.099ZM43.62 283.01C43.9427 283.01 44.2433 282.933 44.522 282.779C44.808 282.625 45.039 282.394 45.215 282.086C45.391 281.778 45.479 281.404 45.479 280.964C45.479 280.524 45.3947 280.154 45.226 279.853C45.0573 279.545 44.8337 279.314 44.555 279.16C44.2763 279.006 43.9757 278.929 43.653 278.929C43.3303 278.929 43.0297 279.006 42.751 279.16C42.4797 279.314 42.2633 279.545 42.102 279.853C41.9407 280.154 41.86 280.524 41.86 280.964C41.86 281.617 42.025 282.123 42.355 282.482C42.6923 282.834 43.114 283.01 43.62 283.01ZM50.2057 284.099C49.729 284.099 49.3 284.015 48.9187 283.846C48.5447 283.67 48.2477 283.435 48.0277 283.142C47.8077 282.841 47.6903 282.508 47.6757 282.141H48.9737C48.9957 282.398 49.1167 282.614 49.3367 282.79C49.564 282.959 49.8463 283.043 50.1837 283.043C50.5357 283.043 50.807 282.977 50.9977 282.845C51.1957 282.706 51.2947 282.53 51.2947 282.317C51.2947 282.09 51.1847 281.921 50.9647 281.811C50.752 281.701 50.411 281.58 49.9417 281.448C49.487 281.323 49.1167 281.202 48.8307 281.085C48.5447 280.968 48.2953 280.788 48.0827 280.546C47.8773 280.304 47.7747 279.985 47.7747 279.589C47.7747 279.266 47.87 278.973 48.0607 278.709C48.2513 278.438 48.5227 278.225 48.8747 278.071C49.234 277.917 49.6447 277.84 50.1067 277.84C50.796 277.84 51.3497 278.016 51.7677 278.368C52.193 278.713 52.4203 279.186 52.4497 279.787H51.1957C51.1737 279.516 51.0637 279.299 50.8657 279.138C50.6677 278.977 50.4 278.896 50.0627 278.896C49.7327 278.896 49.4797 278.958 49.3037 279.083C49.1277 279.208 49.0397 279.373 49.0397 279.578C49.0397 279.739 49.0983 279.875 49.2157 279.985C49.333 280.095 49.476 280.183 49.6447 280.249C49.8133 280.308 50.0627 280.385 50.3927 280.48C50.8327 280.597 51.192 280.718 51.4707 280.843C51.7567 280.96 52.0023 281.136 52.2077 281.371C52.413 281.606 52.5193 281.917 52.5267 282.306C52.5267 282.651 52.4313 282.959 52.2407 283.23C52.05 283.501 51.7787 283.714 51.4267 283.868C51.082 284.022 50.675 284.099 50.2057 284.099ZM56.6536 286.046C55.935 285.357 55.3813 284.48 54.9926 283.417C54.6113 282.354 54.4206 281.213 54.4206 279.996C54.4206 278.749 54.626 277.572 55.0366 276.465C55.4546 275.358 56.067 274.445 56.8736 273.726H58.1716V273.847C57.3283 274.624 56.694 275.556 56.2686 276.641C55.8433 277.726 55.6306 278.845 55.6306 279.996C55.6306 281.103 55.8286 282.174 56.2246 283.208C56.6206 284.242 57.1963 285.148 57.9516 285.925V286.046H56.6536ZM58.9877 286.046V285.925C59.743 285.148 60.3187 284.242 60.7147 283.208C61.1107 282.174 61.3087 281.103 61.3087 279.996C61.3087 278.845 61.096 277.726 60.6707 276.641C60.2454 275.556 59.611 274.624 58.7677 273.847V273.726H60.0657C60.8724 274.445 61.481 275.358 61.8917 276.465C62.3097 277.572 62.5187 278.749 62.5187 279.996C62.5187 281.213 62.3244 282.354 61.9357 283.417C61.5544 284.48 61.0044 285.357 60.2857 286.046H58.9877Z"></path>
<path fill="white" d="M145.007 326.126C144.635 326.126 144.323 326 144.071 325.748C143.819 325.496 143.693 325.184 143.693 324.812C143.693 324.44 143.819 324.128 144.071 323.876C144.323 323.624 144.635 323.498 145.007 323.498C145.367 323.498 145.673 323.624 145.925 323.876C146.177 324.128 146.303 324.44 146.303 324.812C146.303 325.184 146.177 325.496 145.925 325.748C145.673 326 145.367 326.126 145.007 326.126Z"></path>
<path fill="white" d="M82.5282 318.962V322.317C82.5282 322.544 82.5796 322.709 82.6822 322.812C82.7922 322.907 82.9756 322.955 83.2322 322.955H84.0022V324H83.0122C82.4476 324 82.0149 323.868 81.7142 323.604C81.4136 323.34 81.2632 322.911 81.2632 322.317V318.962H80.5482V317.939H81.2632V316.432H82.5282V317.939H84.0022V318.962H82.5282ZM84.74 320.942C84.74 320.333 84.8647 319.794 85.114 319.325C85.3707 318.856 85.7153 318.493 86.148 318.236C86.588 317.972 87.072 317.84 87.6 317.84C88.0767 317.84 88.491 317.935 88.843 318.126C89.2023 318.309 89.4883 318.54 89.701 318.819V317.939H90.966V324H89.701V323.098C89.4883 323.384 89.1987 323.622 88.832 323.813C88.4653 324.004 88.0473 324.099 87.578 324.099C87.0573 324.099 86.5807 323.967 86.148 323.703C85.7153 323.432 85.3707 323.058 85.114 322.581C84.8647 322.097 84.74 321.551 84.74 320.942ZM89.701 320.964C89.701 320.546 89.613 320.183 89.437 319.875C89.2683 319.567 89.0447 319.332 88.766 319.171C88.4873 319.01 88.1867 318.929 87.864 318.929C87.5413 318.929 87.2407 319.01 86.962 319.171C86.6833 319.325 86.456 319.556 86.28 319.864C86.1113 320.165 86.027 320.524 86.027 320.942C86.027 321.36 86.1113 321.727 86.28 322.042C86.456 322.357 86.6833 322.599 86.962 322.768C87.248 322.929 87.5487 323.01 87.864 323.01C88.1867 323.01 88.4873 322.929 88.766 322.768C89.0447 322.607 89.2683 322.372 89.437 322.064C89.613 321.749 89.701 321.382 89.701 320.964ZM95.6711 317.84C96.1478 317.84 96.5731 317.939 96.9471 318.137C97.3284 318.335 97.6254 318.628 97.8381 319.017C98.0508 319.406 98.1571 319.875 98.1571 320.425V324H96.9141V320.612C96.9141 320.069 96.7784 319.655 96.5071 319.369C96.2358 319.076 95.8654 318.929 95.3961 318.929C94.9268 318.929 94.5528 319.076 94.2741 319.369C94.0028 319.655 93.8671 320.069 93.8671 320.612V324H92.6131V317.939H93.8671V318.632C94.0724 318.383 94.3328 318.188 94.6481 318.049C94.9708 317.91 95.3118 317.84 95.6711 317.84ZM102.529 326.046C101.81 325.357 101.256 324.48 100.868 323.417C100.486 322.354 100.296 321.213 100.296 319.996C100.296 318.749 100.501 317.572 100.912 316.465C101.33 315.358 101.942 314.445 102.749 313.726H104.047V313.847C103.203 314.624 102.569 315.556 102.144 316.641C101.718 317.726 101.506 318.845 101.506 319.996C101.506 321.103 101.704 322.174 102.1 323.208C102.496 324.242 103.071 325.148 103.827 325.925V326.046H102.529ZM104.863 326.046V325.925C105.618 325.148 106.194 324.242 106.59 323.208C106.986 322.174 107.184 321.103 107.184 319.996C107.184 318.845 106.971 317.726 106.546 316.641C106.12 315.556 105.486 314.624 104.643 313.847V313.726H105.941C106.747 314.445 107.356 315.358 107.767 316.465C108.185 317.572 108.394 318.749 108.394 319.996C108.394 321.213 108.199 322.354 107.811 323.417C107.429 324.48 106.879 325.357 106.161 326.046H104.863Z"></path>
<path fill="white" d="M26.9197 320.942C26.9197 320.333 27.0444 319.794 27.2937 319.325C27.5504 318.856 27.895 318.493 28.3277 318.236C28.7677 317.972 29.2517 317.84 29.7797 317.84C30.2564 317.84 30.6707 317.935 31.0227 318.126C31.382 318.309 31.668 318.54 31.8807 318.819V317.939H33.1457V324H31.8807V323.098C31.668 323.384 31.3784 323.622 31.0117 323.813C30.645 324.004 30.227 324.099 29.7577 324.099C29.237 324.099 28.7604 323.967 28.3277 323.703C27.895 323.432 27.5504 323.058 27.2937 322.581C27.0444 322.097 26.9197 321.551 26.9197 320.942ZM31.8807 320.964C31.8807 320.546 31.7927 320.183 31.6167 319.875C31.448 319.567 31.2244 319.332 30.9457 319.171C30.667 319.01 30.3664 318.929 30.0437 318.929C29.721 318.929 29.4204 319.01 29.1417 319.171C28.863 319.325 28.6357 319.556 28.4597 319.864C28.291 320.165 28.2067 320.524 28.2067 320.942C28.2067 321.36 28.291 321.727 28.4597 322.042C28.6357 322.357 28.863 322.599 29.1417 322.768C29.4277 322.929 29.7284 323.01 30.0437 323.01C30.3664 323.01 30.667 322.929 30.9457 322.768C31.2244 322.607 31.448 322.372 31.6167 322.064C31.7927 321.749 31.8807 321.382 31.8807 320.964ZM36.2558 318.962V322.317C36.2558 322.544 36.3071 322.709 36.4098 322.812C36.5198 322.907 36.7031 322.955 36.9598 322.955H37.7298V324H36.7398C36.1751 324 35.7424 323.868 35.4418 323.604C35.1411 323.34 34.9908 322.911 34.9908 322.317V318.962H34.2758V317.939H34.9908V316.432H36.2558V317.939H37.7298V318.962H36.2558ZM38.4675 320.942C38.4675 320.333 38.5922 319.794 38.8415 319.325C39.0982 318.856 39.4429 318.493 39.8755 318.236C40.3155 317.972 40.7995 317.84 41.3275 317.84C41.8042 317.84 42.2185 317.935 42.5705 318.126C42.9299 318.309 43.2159 318.54 43.4285 318.819V317.939H44.6935V324H43.4285V323.098C43.2159 323.384 42.9262 323.622 42.5595 323.813C42.1929 324.004 41.7749 324.099 41.3055 324.099C40.7849 324.099 40.3082 323.967 39.8755 323.703C39.4429 323.432 39.0982 323.058 38.8415 322.581C38.5922 322.097 38.4675 321.551 38.4675 320.942ZM43.4285 320.964C43.4285 320.546 43.3405 320.183 43.1645 319.875C42.9959 319.567 42.7722 319.332 42.4935 319.171C42.2149 319.01 41.9142 318.929 41.5915 318.929C41.2689 318.929 40.9682 319.01 40.6895 319.171C40.4109 319.325 40.1835 319.556 40.0075 319.864C39.8389 320.165 39.7545 320.524 39.7545 320.942C39.7545 321.36 39.8389 321.727 40.0075 322.042C40.1835 322.357 40.4109 322.599 40.6895 322.768C40.9755 322.929 41.2762 323.01 41.5915 323.01C41.9142 323.01 42.2149 322.929 42.4935 322.768C42.7722 322.607 42.9959 322.372 43.1645 322.064C43.3405 321.749 43.4285 321.382 43.4285 320.964ZM49.3986 317.84C49.8753 317.84 50.3006 317.939 50.6746 318.137C51.056 318.335 51.353 318.628 51.5656 319.017C51.7783 319.406 51.8846 319.875 51.8846 320.425V324H50.6416V320.612C50.6416 320.069 50.506 319.655 50.2346 319.369C49.9633 319.076 49.593 318.929 49.1236 318.929C48.6543 318.929 48.2803 319.076 48.0016 319.369C47.7303 319.655 47.5946 320.069 47.5946 320.612V324H46.3406V317.939H47.5946V318.632C47.8 318.383 48.0603 318.188 48.3756 318.049C48.6983 317.91 49.0393 317.84 49.3986 317.84ZM56.2562 326.046C55.5375 325.357 54.9838 324.48 54.5952 323.417C54.2138 322.354 54.0232 321.213 54.0232 319.996C54.0232 318.749 54.2285 317.572 54.6392 316.465C55.0572 315.358 55.6695 314.445 56.4762 313.726H57.7742V313.847C56.9308 314.624 56.2965 315.556 55.8712 316.641C55.4458 317.726 55.2332 318.845 55.2332 319.996C55.2332 321.103 55.4312 322.174 55.8272 323.208C56.2232 324.242 56.7988 325.148 57.5542 325.925V326.046H56.2562ZM58.5902 326.046V325.925C59.3456 325.148 59.9212 324.242 60.3172 323.208C60.7132 322.174 60.9112 321.103 60.9112 319.996C60.9112 318.845 60.6986 317.726 60.2732 316.641C59.8479 315.556 59.2136 314.624 58.3702 313.847V313.726H59.6682C60.4749 314.445 61.0836 315.358 61.4942 316.465C61.9122 317.572 62.1212 318.749 62.1212 319.996C62.1212 321.213 61.9269 322.354 61.5382 323.417C61.1569 324.48 60.6069 325.357 59.8882 326.046H58.5902Z"></path>
<path fill="white" d="M192.555 199.142C191.307 198.518 190.683 197.534 190.683 196.19C190.683 195.542 190.845 194.948 191.169 194.408C191.493 193.868 191.979 193.442 192.627 193.13C193.275 192.806 194.067 192.644 195.003 192.644C195.927 192.644 196.713 192.806 197.361 193.13C198.021 193.442 198.513 193.868 198.837 194.408C199.161 194.948 199.323 195.542 199.323 196.19C199.323 196.862 199.149 197.456 198.801 197.972C198.465 198.476 198.015 198.866 197.451 199.142C198.135 199.394 198.675 199.808 199.071 200.384C199.467 200.948 199.665 201.614 199.665 202.382C199.665 203.162 199.467 203.852 199.071 204.452C198.675 205.052 198.123 205.514 197.415 205.838C196.707 206.162 195.903 206.324 195.003 206.324C194.103 206.324 193.299 206.162 192.591 205.838C191.895 205.514 191.349 205.052 190.953 204.452C190.557 203.852 190.359 203.162 190.359 202.382C190.359 201.602 190.557 200.93 190.953 200.366C191.349 199.802 191.883 199.394 192.555 199.142ZM197.361 196.442C197.361 195.77 197.151 195.254 196.731 194.894C196.311 194.534 195.735 194.354 195.003 194.354C194.283 194.354 193.713 194.534 193.293 194.894C192.873 195.254 192.663 195.776 192.663 196.46C192.663 197.06 192.879 197.552 193.311 197.936C193.755 198.308 194.319 198.494 195.003 198.494C195.687 198.494 196.251 198.302 196.695 197.918C197.139 197.534 197.361 197.042 197.361 196.442ZM195.003 200.042C194.211 200.042 193.563 200.24 193.059 200.636C192.567 201.02 192.321 201.578 192.321 202.31C192.321 202.994 192.561 203.552 193.041 203.984C193.521 204.404 194.175 204.614 195.003 204.614C195.819 204.614 196.461 204.398 196.929 203.966C197.409 203.534 197.649 202.982 197.649 202.31C197.649 201.59 197.403 201.032 196.911 200.636C196.431 200.24 195.795 200.042 195.003 200.042Z"></path>
<path fill="white" d="M198.792 234.642H192.762V238.224C193.014 237.888 193.386 237.606 193.878 237.378C194.382 237.15 194.916 237.036 195.48 237.036C196.488 237.036 197.304 237.252 197.928 237.684C198.564 238.116 199.014 238.662 199.278 239.322C199.554 239.982 199.692 240.678 199.692 241.41C199.692 242.298 199.518 243.09 199.17 243.786C198.834 244.47 198.324 245.01 197.64 245.406C196.968 245.802 196.14 246 195.156 246C193.848 246 192.798 245.676 192.006 245.028C191.214 244.38 190.74 243.522 190.584 242.454H192.582C192.714 243.018 193.008 243.468 193.464 243.804C193.92 244.128 194.49 244.29 195.174 244.29C196.026 244.29 196.662 244.032 197.082 243.516C197.514 243 197.73 242.316 197.73 241.464C197.73 240.6 197.514 239.94 197.082 239.484C196.65 239.016 196.014 238.782 195.174 238.782C194.586 238.782 194.088 238.932 193.68 239.232C193.284 239.52 192.996 239.916 192.816 240.42H190.872V232.842H198.792V234.642Z"></path>
<path fill="white" d="M192.02 283.21C193.172 282.214 194.078 281.398 194.738 280.762C195.41 280.114 195.968 279.442 196.412 278.746C196.856 278.05 197.078 277.354 197.078 276.658C197.078 275.938 196.904 275.374 196.556 274.966C196.22 274.558 195.686 274.354 194.954 274.354C194.246 274.354 193.694 274.582 193.298 275.038C192.914 275.482 192.71 276.082 192.686 276.838H190.706C190.742 275.47 191.15 274.426 191.93 273.706C192.722 272.974 193.724 272.608 194.936 272.608C196.244 272.608 197.264 272.968 197.996 273.688C198.74 274.408 199.112 275.368 199.112 276.568C199.112 277.432 198.89 278.266 198.446 279.07C198.014 279.862 197.492 280.576 196.88 281.212C196.28 281.836 195.512 282.562 194.576 283.39L193.766 284.11H199.472V285.82H190.724V284.326L192.02 283.21Z"></path>
<path fill="white" d="M190.314 319.268C190.314 317.192 190.662 315.572 191.358 314.408C192.066 313.232 193.278 312.644 194.994 312.644C196.71 312.644 197.916 313.232 198.612 314.408C199.32 315.572 199.674 317.192 199.674 319.268C199.674 321.368 199.32 323.012 198.612 324.2C197.916 325.376 196.71 325.964 194.994 325.964C193.278 325.964 192.066 325.376 191.358 324.2C190.662 323.012 190.314 321.368 190.314 319.268ZM197.658 319.268C197.658 318.296 197.592 317.474 197.46 316.802C197.34 316.13 197.088 315.584 196.704 315.164C196.32 314.732 195.75 314.516 194.994 314.516C194.238 314.516 193.668 314.732 193.284 315.164C192.9 315.584 192.642 316.13 192.51 316.802C192.39 317.474 192.33 318.296 192.33 319.268C192.33 320.276 192.39 321.122 192.51 321.806C192.63 322.49 192.882 323.042 193.266 323.462C193.662 323.882 194.238 324.092 194.994 324.092C195.75 324.092 196.32 323.882 196.704 323.462C197.1 323.042 197.358 322.49 197.478 321.806C197.598 321.122 197.658 320.276 197.658 319.268Z"></path>
<path fill="white" d="M242.923 202.436C243.043 203.036 243.301 203.492 243.697 203.804C244.093 204.116 244.627 204.272 245.299 204.272C246.151 204.272 246.775 203.936 247.171 203.264C247.567 202.592 247.765 201.446 247.765 199.826C247.477 200.234 247.069 200.552 246.541 200.78C246.025 200.996 245.461 201.104 244.849 201.104C244.069 201.104 243.361 200.948 242.725 200.636C242.089 200.312 241.585 199.838 241.213 199.214C240.853 198.578 240.673 197.81 240.673 196.91C240.673 195.59 241.057 194.54 241.825 193.76C242.605 192.968 243.673 192.572 245.029 192.572C246.661 192.572 247.819 193.118 248.503 194.21C249.199 195.29 249.547 196.952 249.547 199.196C249.547 200.744 249.415 202.01 249.151 202.994C248.899 203.978 248.455 204.722 247.819 205.226C247.183 205.73 246.301 205.982 245.173 205.982C243.889 205.982 242.899 205.646 242.203 204.974C241.507 204.302 241.117 203.456 241.033 202.436H242.923ZM245.209 199.376C245.929 199.376 246.493 199.154 246.901 198.71C247.321 198.254 247.531 197.654 247.531 196.91C247.531 196.082 247.309 195.44 246.865 194.984C246.433 194.516 245.839 194.282 245.083 194.282C244.327 194.282 243.727 194.522 243.283 195.002C242.851 195.47 242.635 196.088 242.635 196.856C242.635 197.588 242.845 198.194 243.265 198.674C243.697 199.142 244.345 199.376 245.209 199.376Z"></path>
<path fill="white" d="M299.591 200.366H295.955V204.092H294.047V200.366H290.411V198.638H294.047V194.912H295.955V198.638H299.591V200.366Z"></path>
<path fill="white" d="M141.469 160.244H139.045V162.728H137.773V160.244H135.349V159.092H137.773V156.608H139.045V159.092H141.469V160.244ZM148.031 152.672L144.767 166.1H143.423L146.675 152.672H148.031ZM154.831 159.08V160.232H149.899V159.08H154.831Z"></path>
<path fill="white" d="M38.7051 159.718C38.7051 158.494 38.9871 157.396 39.5511 156.424C40.1271 155.452 40.9011 154.696 41.8731 154.156C42.8571 153.604 43.9311 153.328 45.0951 153.328C46.4271 153.328 47.6091 153.658 48.6411 154.318C49.6851 154.966 50.4411 155.89 50.9091 157.09H48.4431C48.1191 156.43 47.6691 155.938 47.0931 155.614C46.5171 155.29 45.8511 155.128 45.0951 155.128C44.2671 155.128 43.5291 155.314 42.8811 155.686C42.2331 156.058 41.7231 156.592 41.3511 157.288C40.9911 157.984 40.8111 158.794 40.8111 159.718C40.8111 160.642 40.9911 161.452 41.3511 162.148C41.7231 162.844 42.2331 163.384 42.8811 163.768C43.5291 164.14 44.2671 164.326 45.0951 164.326C45.8511 164.326 46.5171 164.164 47.0931 163.84C47.6691 163.516 48.1191 163.024 48.4431 162.364H50.9091C50.4411 163.564 49.6851 164.488 48.6411 165.136C47.6091 165.784 46.4271 166.108 45.0951 166.108C43.9191 166.108 42.8451 165.838 41.8731 165.298C40.9011 164.746 40.1271 163.984 39.5511 163.012C38.9871 162.04 38.7051 160.942 38.7051 159.718Z"></path>
<path fill="white" d="M39.1503 197.94C38.9023 197.94 38.6943 197.856 38.5263 197.688C38.3583 197.52 38.2743 197.312 38.2743 197.064C38.2743 196.816 38.3583 196.608 38.5263 196.44C38.6943 196.272 38.9023 196.188 39.1503 196.188C39.3903 196.188 39.5943 196.272 39.7623 196.44C39.9303 196.608 40.0143 196.816 40.0143 197.064C40.0143 197.312 39.9303 197.52 39.7623 197.688C39.5943 197.856 39.3903 197.94 39.1503 197.94ZM42.1863 199.08V200.232H36.0663V199.08H42.1863ZM39.1503 203.1C38.9023 203.1 38.6943 203.016 38.5263 202.848C38.3583 202.68 38.2743 202.472 38.2743 202.224C38.2743 201.976 38.3583 201.768 38.5263 201.6C38.6943 201.432 38.9023 201.348 39.1503 201.348C39.3903 201.348 39.5943 201.432 39.7623 201.6C39.9303 201.768 40.0143 201.976 40.0143 202.224C40.0143 202.472 39.9303 202.68 39.7623 202.848C39.5943 203.016 39.3903 203.1 39.1503 203.1ZM43.6709 196.5V195.252H46.1669V204H44.7869V196.5H43.6709ZM48.0462 199.512C48.0462 198.128 48.2782 197.048 48.7422 196.272C49.2142 195.488 50.0222 195.096 51.1662 195.096C52.3102 195.096 53.1142 195.488 53.5782 196.272C54.0502 197.048 54.2862 198.128 54.2862 199.512C54.2862 200.912 54.0502 202.008 53.5782 202.8C53.1142 203.584 52.3102 203.976 51.1662 203.976C50.0222 203.976 49.2142 203.584 48.7422 202.8C48.2782 202.008 48.0462 200.912 48.0462 199.512ZM52.9422 199.512C52.9422 198.864 52.8982 198.316 52.8102 197.868C52.7302 197.42 52.5622 197.056 52.3062 196.776C52.0502 196.488 51.6702 196.344 51.1662 196.344C50.6622 196.344 50.2822 196.488 50.0262 196.776C49.7702 197.056 49.5982 197.42 49.5102 197.868C49.4302 198.316 49.3902 198.864 49.3902 199.512C49.3902 200.184 49.4302 200.748 49.5102 201.204C49.5902 201.66 49.7582 202.028 50.0142 202.308C50.2782 202.588 50.6622 202.728 51.1662 202.728C51.6702 202.728 52.0502 202.588 52.3062 202.308C52.5702 202.028 52.7422 201.66 52.8222 201.204C52.9022 200.748 52.9422 200.184 52.9422 199.512Z"></path>
<path fill="white" d="M188.61 156.046C188.61 155.17 188.862 154.486 189.366 153.994C189.882 153.49 190.542 153.238 191.346 153.238C192.15 153.238 192.804 153.49 193.308 153.994C193.824 154.486 194.082 155.17 194.082 156.046C194.082 156.922 193.824 157.612 193.308 158.116C192.804 158.62 192.15 158.872 191.346 158.872C190.542 158.872 189.882 158.62 189.366 158.116C188.862 157.612 188.61 156.922 188.61 156.046ZM199.59 153.472L192.408 166H190.392L197.574 153.472H199.59ZM191.346 154.48C190.59 154.48 190.212 155.002 190.212 156.046C190.212 157.102 190.59 157.63 191.346 157.63C191.706 157.63 191.982 157.504 192.174 157.252C192.378 156.988 192.48 156.586 192.48 156.046C192.48 155.002 192.102 154.48 191.346 154.48ZM195.936 163.408C195.936 162.532 196.188 161.848 196.692 161.356C197.208 160.852 197.868 160.6 198.672 160.6C199.464 160.6 200.112 160.852 200.616 161.356C201.132 161.848 201.39 162.532 201.39 163.408C201.39 164.284 201.132 164.974 200.616 165.478C200.112 165.982 199.464 166.234 198.672 166.234C197.868 166.234 197.208 165.982 196.692 165.478C196.188 164.974 195.936 164.284 195.936 163.408ZM198.654 161.842C197.898 161.842 197.52 162.364 197.52 163.408C197.52 164.452 197.898 164.974 198.654 164.974C199.41 164.974 199.788 164.452 199.788 163.408C199.788 162.364 199.41 161.842 198.654 161.842Z"></path>
<path fill="white" d="M247.305 158.368V159.664H242.463V158.476L244.407 157.054C244.803 156.742 245.097 156.454 245.289 156.19C245.493 155.926 245.595 155.638 245.595 155.326C245.595 155.05 245.517 154.834 245.361 154.678C245.217 154.51 245.031 154.426 244.803 154.426C244.587 154.426 244.413 154.486 244.281 154.606C244.149 154.726 244.071 154.894 244.047 155.11H242.427C242.451 154.534 242.673 154.072 243.093 153.724C243.525 153.376 244.113 153.202 244.857 153.202C245.349 153.202 245.775 153.298 246.135 153.49C246.507 153.682 246.789 153.934 246.981 154.246C247.185 154.558 247.287 154.894 247.287 155.254C247.287 155.686 247.155 156.07 246.891 156.406C246.639 156.742 246.207 157.114 245.595 157.522L244.281 158.368H247.305Z"></path>
<path fill="white" d="M302.262 150.178L293.19 166.774H292.146L289.77 162.58L288.528 163.318L287.916 162.292L290.922 160.51L293.064 164.308L300.786 150.178H302.262Z"></path>
<path fill="white" d="M247.362 235.92C247.23 235.368 246.99 234.954 246.642 234.678C246.294 234.402 245.808 234.264 245.184 234.264C244.236 234.264 243.528 234.63 243.06 235.362C242.592 236.082 242.346 237.282 242.322 238.962C242.634 238.434 243.09 238.026 243.69 237.738C244.29 237.45 244.938 237.306 245.634 237.306C246.426 237.306 247.122 237.48 247.722 237.828C248.334 238.164 248.808 238.656 249.144 239.304C249.492 239.952 249.666 240.726 249.666 241.626C249.666 242.466 249.498 243.216 249.162 243.876C248.838 244.536 248.352 245.058 247.704 245.442C247.056 245.814 246.276 246 245.364 246C244.128 246 243.156 245.73 242.448 245.19C241.752 244.638 241.26 243.864 240.972 242.868C240.696 241.872 240.558 240.63 240.558 239.142C240.558 234.75 242.106 232.554 245.202 232.554C246.402 232.554 247.344 232.878 248.028 233.526C248.724 234.174 249.132 234.972 249.252 235.92H247.362ZM245.184 239.034C244.452 239.034 243.828 239.256 243.312 239.7C242.808 240.132 242.556 240.762 242.556 241.59C242.556 242.418 242.79 243.078 243.258 243.57C243.738 244.05 244.404 244.29 245.256 244.29C246.012 244.29 246.606 244.056 247.038 243.588C247.482 243.12 247.704 242.496 247.704 241.716C247.704 240.9 247.488 240.252 247.056 239.772C246.636 239.28 246.012 239.034 245.184 239.034Z"></path>
<path fill="white" d="M298.699 238.62V240.348H291.301V238.62H298.699Z"></path>
<path fill="white" d="M240.7 276.118C240.772 275.002 241.198 274.132 241.978 273.508C242.77 272.884 243.778 272.572 245.002 272.572C245.842 272.572 246.568 272.722 247.18 273.022C247.792 273.322 248.254 273.73 248.566 274.246C248.878 274.762 249.034 275.344 249.034 275.992C249.034 276.736 248.836 277.372 248.44 277.9C248.044 278.428 247.57 278.782 247.018 278.962V279.034C247.726 279.25 248.278 279.646 248.674 280.222C249.07 280.786 249.268 281.512 249.268 282.4C249.268 283.108 249.106 283.738 248.782 284.29C248.458 284.842 247.978 285.28 247.342 285.604C246.706 285.916 245.944 286.072 245.056 286.072C243.76 286.072 242.692 285.742 241.852 285.082C241.024 284.41 240.58 283.45 240.52 282.202H242.5C242.548 282.838 242.794 283.36 243.238 283.768C243.682 284.164 244.282 284.362 245.038 284.362C245.77 284.362 246.334 284.164 246.73 283.768C247.126 283.36 247.324 282.838 247.324 282.202C247.324 281.362 247.054 280.768 246.514 280.42C245.986 280.06 245.17 279.88 244.066 279.88H243.598V278.188H244.084C245.056 278.176 245.794 278.014 246.298 277.702C246.814 277.39 247.072 276.898 247.072 276.226C247.072 275.65 246.886 275.194 246.514 274.858C246.142 274.51 245.614 274.336 244.93 274.336C244.258 274.336 243.736 274.51 243.364 274.858C242.992 275.194 242.77 275.614 242.698 276.118H240.7Z"></path>
<path fill="white" d="M297.743 283.516L295.007 280.78L292.271 283.516L290.921 282.166L293.675 279.43L290.993 276.748L292.307 275.434L294.989 278.116L297.671 275.434L299.021 276.784L296.339 279.466L299.057 282.202L297.743 283.516Z"></path>
<path fill="white" d="M249.784 316.586V318.314H240.208V316.586H249.784ZM249.784 320.672V322.4H240.208V320.672H249.784Z"></path>
<path fill="white" d="M295.138 316.91C294.766 316.91 294.454 316.784 294.202 316.532C293.95 316.28 293.824 315.968 293.824 315.596C293.824 315.224 293.95 314.912 294.202 314.66C294.454 314.408 294.766 314.282 295.138 314.282C295.498 314.282 295.804 314.408 296.056 314.66C296.308 314.912 296.434 315.224 296.434 315.596C296.434 315.968 296.308 316.28 296.056 316.532C295.804 316.784 295.498 316.91 295.138 316.91ZM299.692 318.62V320.348H290.512V318.62H299.692ZM295.138 324.65C294.766 324.65 294.454 324.524 294.202 324.272C293.95 324.02 293.824 323.708 293.824 323.336C293.824 322.964 293.95 322.652 294.202 322.4C294.454 322.148 294.766 322.022 295.138 322.022C295.498 322.022 295.804 322.148 296.056 322.4C296.308 322.652 296.434 322.964 296.434 323.336C296.434 323.708 296.308 324.02 296.056 324.272C295.804 324.524 295.498 324.65 295.138 324.65Z"></path>
<path stroke-linecap="round" stroke-width="2" stroke="white" d="M92 155L88.4142 158.586C87.6332 159.367 87.6332 160.633 88.4142 161.414L92 165"></path>
<rect fill="white" transform="rotate(135 102.536 157.878)" rx="1" height="2" width="8" y="157.878" x="102.536"></rect>
<rect fill="white" transform="rotate(-135 101.121 163.536)" rx="1" height="2" width="8" y="163.536" x="101.121"></rect>
<rect fill-opacity="0.05" fill="white" rx="10" height="40" width="50" y="300" x="220"></rect>
<rect fill-opacity="0.1" fill="white" rx="15" height="80" width="320" y="40" x="10"></rect>
<rect fill-opacity="0.1" fill="white" rx="15" height="310" width="130" y="40" x="340"></rect>
<path fill="white" d="M357.56 15.66V24H356.192V20.352H352.268V24H350.9V15.66H352.268V19.236H356.192V15.66H357.56ZM360.057 16.512C359.809 16.512 359.601 16.428 359.433 16.26C359.265 16.092 359.181 15.884 359.181 15.636C359.181 15.388 359.265 15.18 359.433 15.012C359.601 14.844 359.809 14.76 360.057 14.76C360.297 14.76 360.501 14.844 360.669 15.012C360.837 15.18 360.921 15.388 360.921 15.636C360.921 15.884 360.837 16.092 360.669 16.26C360.501 16.428 360.297 16.512 360.057 16.512ZM360.729 17.388V24H359.361V17.388H360.729ZM364.925 24.108C364.405 24.108 363.937 24.016 363.521 23.832C363.113 23.64 362.789 23.384 362.549 23.064C362.309 22.736 362.181 22.372 362.165 21.972H363.581C363.605 22.252 363.737 22.488 363.977 22.68C364.225 22.864 364.533 22.956 364.901 22.956C365.285 22.956 365.581 22.884 365.789 22.74C366.005 22.588 366.113 22.396 366.113 22.164C366.113 21.916 365.993 21.732 365.753 21.612C365.521 21.492 365.149 21.36 364.637 21.216C364.141 21.08 363.737 20.948 363.425 20.82C363.113 20.692 362.841 20.496 362.609 20.232C362.385 19.968 362.273 19.62 362.273 19.188C362.273 18.836 362.377 18.516 362.585 18.228C362.793 17.932 363.089 17.7 363.473 17.532C363.865 17.364 364.313 17.28 364.817 17.28C365.569 17.28 366.173 17.472 366.629 17.856C367.093 18.232 367.341 18.748 367.373 19.404H366.005C365.981 19.108 365.861 18.872 365.645 18.696C365.429 18.52 365.137 18.432 364.769 18.432C364.409 18.432 364.133 18.5 363.941 18.636C363.749 18.772 363.653 18.952 363.653 19.176C363.653 19.352 363.717 19.5 363.845 19.62C363.973 19.74 364.129 19.836 364.313 19.908C364.497 19.972 364.769 20.056 365.129 20.16C365.609 20.288 366.001 20.42 366.305 20.556C366.617 20.684 366.885 20.876 367.109 21.132C367.333 21.388 367.449 21.728 367.457 22.152C367.457 22.528 367.353 22.864 367.145 23.16C366.937 23.456 366.641 23.688 366.257 23.856C365.881 24.024 365.437 24.108 364.925 24.108ZM370.531 18.504V22.164C370.531 22.412 370.587 22.592 370.699 22.704C370.819 22.808 371.019 22.86 371.299 22.86H372.139V24H371.059C370.443 24 369.971 23.856 369.643 23.568C369.315 23.28 369.151 22.812 369.151 22.164V18.504H368.371V17.388H369.151V15.744H370.531V17.388H372.139V18.504H370.531ZM376.268 24.108C375.644 24.108 375.08 23.968 374.576 23.688C374.072 23.4 373.676 23 373.388 22.488C373.1 21.968 372.956 21.368 372.956 20.688C372.956 20.016 373.104 19.42 373.4 18.9C373.696 18.38 374.1 17.98 374.612 17.7C375.124 17.42 375.696 17.28 376.328 17.28C376.96 17.28 377.532 17.42 378.044 17.7C378.556 17.98 378.96 18.38 379.256 18.9C379.552 19.42 379.7 20.016 379.7 20.688C379.7 21.36 379.548 21.956 379.244 22.476C378.94 22.996 378.524 23.4 377.996 23.688C377.476 23.968 376.9 24.108 376.268 24.108ZM376.268 22.92C376.62 22.92 376.948 22.836 377.252 22.668C377.564 22.5 377.816 22.248 378.008 21.912C378.2 21.576 378.296 21.168 378.296 20.688C378.296 20.208 378.204 19.804 378.02 19.476C377.836 19.14 377.592 18.888 377.288 18.72C376.984 18.552 376.656 18.468 376.304 18.468C375.952 18.468 375.624 18.552 375.32 18.72C375.024 18.888 374.788 19.14 374.612 19.476C374.436 19.804 374.348 20.208 374.348 20.688C374.348 21.4 374.528 21.952 374.888 22.344C375.256 22.728 375.716 22.92 376.268 22.92ZM382.42 18.348C382.62 18.012 382.884 17.752 383.212 17.568C383.548 17.376 383.944 17.28 384.4 17.28V18.696H384.052C383.516 18.696 383.108 18.832 382.828 19.104C382.556 19.376 382.42 19.848 382.42 20.52V24H381.052V17.388H382.42V18.348ZM391.61 17.388L387.554 27.108H386.138L387.482 23.892L384.878 17.388H386.402L388.262 22.428L390.194 17.388H391.61Z"></path>
</svg>
