<svg width="480" height="360" viewBox="0 0 480 360" fill="none" xmlns="http://www.w3.org/2000/svg">
<rect x="170" y="50" width="280" height="280" fill="black"/>
<rect x="176" y="56" width="268" height="268" rx="6" stroke="#191919" stroke-width="12"/>
<path d="M298.242 189.12C298.242 189.473 298.159 189.807 297.992 190.12C297.825 190.433 297.559 190.69 297.192 190.89C296.825 191.083 296.355 191.18 295.782 191.18H294.522V194H293.382V187.05H295.782C296.315 187.05 296.765 187.143 297.132 187.33C297.505 187.51 297.782 187.757 297.962 188.07C298.149 188.383 298.242 188.733 298.242 189.12ZM295.782 190.25C296.215 190.25 296.539 190.153 296.752 189.96C296.965 189.76 297.072 189.48 297.072 189.12C297.072 188.36 296.642 187.98 295.782 187.98H294.522V190.25H295.782ZM298.949 191.22C298.949 190.667 299.062 190.177 299.289 189.75C299.522 189.323 299.836 188.993 300.229 188.76C300.629 188.52 301.069 188.4 301.549 188.4C301.982 188.4 302.359 188.487 302.679 188.66C303.006 188.827 303.266 189.037 303.459 189.29V188.49H304.609V194H303.459V193.18C303.266 193.44 303.002 193.657 302.669 193.83C302.336 194.003 301.956 194.09 301.529 194.09C301.056 194.09 300.622 193.97 300.229 193.73C299.836 193.483 299.522 193.143 299.289 192.71C299.062 192.27 298.949 191.773 298.949 191.22ZM303.459 191.24C303.459 190.86 303.379 190.53 303.219 190.25C303.066 189.97 302.862 189.757 302.609 189.61C302.356 189.463 302.082 189.39 301.789 189.39C301.496 189.39 301.222 189.463 300.969 189.61C300.716 189.75 300.509 189.96 300.349 190.24C300.196 190.513 300.119 190.84 300.119 191.22C300.119 191.6 300.196 191.933 300.349 192.22C300.509 192.507 300.716 192.727 300.969 192.88C301.229 193.027 301.502 193.1 301.789 193.1C302.082 193.1 302.356 193.027 302.609 192.88C302.862 192.733 303.066 192.52 303.219 192.24C303.379 191.953 303.459 191.62 303.459 191.24ZM308.106 194.09C307.673 194.09 307.283 194.013 306.936 193.86C306.596 193.7 306.326 193.487 306.126 193.22C305.926 192.947 305.82 192.643 305.806 192.31H306.986C307.006 192.543 307.116 192.74 307.316 192.9C307.523 193.053 307.78 193.13 308.086 193.13C308.406 193.13 308.653 193.07 308.826 192.95C309.006 192.823 309.096 192.663 309.096 192.47C309.096 192.263 308.996 192.11 308.796 192.01C308.603 191.91 308.293 191.8 307.866 191.68C307.453 191.567 307.116 191.457 306.856 191.35C306.596 191.243 306.37 191.08 306.176 190.86C305.99 190.64 305.896 190.35 305.896 189.99C305.896 189.697 305.983 189.43 306.156 189.19C306.33 188.943 306.576 188.75 306.896 188.61C307.223 188.47 307.596 188.4 308.016 188.4C308.643 188.4 309.146 188.56 309.526 188.88C309.913 189.193 310.12 189.623 310.146 190.17H309.006C308.986 189.923 308.886 189.727 308.706 189.58C308.526 189.433 308.283 189.36 307.976 189.36C307.676 189.36 307.446 189.417 307.286 189.53C307.126 189.643 307.046 189.793 307.046 189.98C307.046 190.127 307.1 190.25 307.206 190.35C307.313 190.45 307.443 190.53 307.596 190.59C307.75 190.643 307.976 190.713 308.276 190.8C308.676 190.907 309.003 191.017 309.256 191.13C309.516 191.237 309.74 191.397 309.926 191.61C310.113 191.823 310.21 192.107 310.216 192.46C310.216 192.773 310.13 193.053 309.956 193.3C309.783 193.547 309.536 193.74 309.216 193.88C308.903 194.02 308.533 194.09 308.106 194.09ZM312.778 189.42V192.47C312.778 192.677 312.825 192.827 312.918 192.92C313.018 193.007 313.185 193.05 313.418 193.05H314.118V194H313.218C312.705 194 312.312 193.88 312.038 193.64C311.765 193.4 311.628 193.01 311.628 192.47V189.42H310.978V188.49H311.628V187.12H312.778V188.49H314.118V189.42H312.778ZM320.219 191.11C320.219 191.317 320.206 191.503 320.179 191.67H315.969C316.002 192.11 316.166 192.463 316.459 192.73C316.752 192.997 317.112 193.13 317.539 193.13C318.152 193.13 318.586 192.873 318.839 192.36H320.069C319.902 192.867 319.599 193.283 319.159 193.61C318.726 193.93 318.186 194.09 317.539 194.09C317.012 194.09 316.539 193.973 316.119 193.74C315.706 193.5 315.379 193.167 315.139 192.74C314.906 192.307 314.789 191.807 314.789 191.24C314.789 190.673 314.902 190.177 315.129 189.75C315.362 189.317 315.686 188.983 316.099 188.75C316.519 188.517 316.999 188.4 317.539 188.4C318.059 188.4 318.522 188.513 318.929 188.74C319.336 188.967 319.652 189.287 319.879 189.7C320.106 190.107 320.219 190.577 320.219 191.11ZM319.029 190.75C319.022 190.33 318.872 189.993 318.579 189.74C318.286 189.487 317.922 189.36 317.489 189.36C317.096 189.36 316.759 189.487 316.479 189.74C316.199 189.987 316.032 190.323 315.979 190.75H319.029ZM320.961 191.22C320.961 190.667 321.074 190.177 321.301 189.75C321.534 189.323 321.847 188.993 322.241 188.76C322.641 188.52 323.084 188.4 323.571 188.4C323.931 188.4 324.284 188.48 324.631 188.64C324.984 188.793 325.264 189 325.471 189.26V186.6H326.621V194H325.471V193.17C325.284 193.437 325.024 193.657 324.691 193.83C324.364 194.003 323.987 194.09 323.561 194.09C323.081 194.09 322.641 193.97 322.241 193.73C321.847 193.483 321.534 193.143 321.301 192.71C321.074 192.27 320.961 191.773 320.961 191.22ZM325.471 191.24C325.471 190.86 325.391 190.53 325.231 190.25C325.077 189.97 324.874 189.757 324.621 189.61C324.367 189.463 324.094 189.39 323.801 189.39C323.507 189.39 323.234 189.463 322.981 189.61C322.727 189.75 322.521 189.96 322.361 190.24C322.207 190.513 322.131 190.84 322.131 191.22C322.131 191.6 322.207 191.933 322.361 192.22C322.521 192.507 322.727 192.727 322.981 192.88C323.241 193.027 323.514 193.1 323.801 193.1C324.094 193.1 324.367 193.027 324.621 192.88C324.874 192.733 325.077 192.52 325.231 192.24C325.391 191.953 325.471 191.62 325.471 191.24Z" fill="white"/>
</svg>
