<svg width="80" height="28" viewBox="0 0 80 28" fill="none" xmlns="http://www.w3.org/2000/svg">
<rect width="80" height="28" rx="5" fill="#1B1B1B"/>
<path d="M12.75 18.09C12.3167 18.09 11.9267 18.0133 11.58 17.86C11.24 17.7 10.97 17.4867 10.77 17.22C10.57 16.9467 10.4633 16.6433 10.45 16.31H11.63C11.65 16.5433 11.76 16.74 11.96 16.9C12.1667 17.0533 12.4233 17.13 12.73 17.13C13.05 17.13 13.2967 17.07 13.47 16.95C13.65 16.8233 13.74 16.6633 13.74 16.47C13.74 16.2633 13.64 16.11 13.44 16.01C13.2467 15.91 12.9367 15.8 12.51 15.68C12.0967 15.5667 11.76 15.4567 11.5 15.35C11.24 15.2433 11.0133 15.08 10.82 14.86C10.6333 14.64 10.54 14.35 10.54 13.99C10.54 13.6967 10.6267 13.43 10.8 13.19C10.9733 12.9433 11.22 12.75 11.54 12.61C11.8667 12.47 12.24 12.4 12.66 12.4C13.2867 12.4 13.79 12.56 14.17 12.88C14.5567 13.1933 14.7633 13.6233 14.79 14.17H13.65C13.63 13.9233 13.53 13.7267 13.35 13.58C13.17 13.4333 12.9267 13.36 12.62 13.36C12.32 13.36 12.09 13.4167 11.93 13.53C11.77 13.6433 11.69 13.7933 11.69 13.98C11.69 14.1267 11.7433 14.25 11.85 14.35C11.9567 14.45 12.0867 14.53 12.24 14.59C12.3933 14.6433 12.62 14.7133 12.92 14.8C13.32 14.9067 13.6467 15.0167 13.9 15.13C14.16 15.2367 14.3833 15.3967 14.57 15.61C14.7567 15.8233 14.8533 16.1067 14.86 16.46C14.86 16.7733 14.7733 17.0533 14.6 17.3C14.4267 17.5467 14.18 17.74 13.86 17.88C13.5467 18.02 13.1767 18.09 12.75 18.09ZM18.9418 12.4C19.3618 12.4 19.7351 12.49 20.0618 12.67C20.3951 12.85 20.6551 13.1167 20.8418 13.47C21.0351 13.8233 21.1318 14.25 21.1318 14.75V18H20.0018V14.92C20.0018 14.4267 19.8785 14.05 19.6318 13.79C19.3851 13.5233 19.0485 13.39 18.6218 13.39C18.1951 13.39 17.8551 13.5233 17.6018 13.79C17.3551 14.05 17.2318 14.4267 17.2318 14.92V18H16.0918V10.6H17.2318V13.13C17.4251 12.8967 17.6685 12.7167 17.9618 12.59C18.2618 12.4633 18.5885 12.4 18.9418 12.4ZM27.5759 12.49V18H26.4359V17.35C26.2559 17.5767 26.0193 17.7567 25.7259 17.89C25.4393 18.0167 25.1326 18.08 24.8059 18.08C24.3726 18.08 23.9826 17.99 23.6359 17.81C23.2959 17.63 23.0259 17.3633 22.8259 17.01C22.6326 16.6567 22.5359 16.23 22.5359 15.73V12.49H23.6659V15.56C23.6659 16.0533 23.7893 16.4333 24.0359 16.7C24.2826 16.96 24.6193 17.09 25.0459 17.09C25.4726 17.09 25.8093 16.96 26.0559 16.7C26.3093 16.4333 26.4359 16.0533 26.4359 15.56V12.49H27.5759ZM30.4101 13.42V16.47C30.4101 16.6767 30.4567 16.8267 30.5501 16.92C30.6501 17.0067 30.8167 17.05 31.0501 17.05H31.7501V18H30.8501C30.3367 18 29.9434 17.88 29.6701 17.64C29.3967 17.4 29.2601 17.01 29.2601 16.47V13.42H28.6101V12.49H29.2601V11.12H30.4101V12.49H31.7501V13.42H30.4101ZM32.4208 15.22C32.4208 14.6667 32.5341 14.1767 32.7608 13.75C32.9941 13.3233 33.3074 12.9933 33.7008 12.76C34.1008 12.52 34.5441 12.4 35.0308 12.4C35.3908 12.4 35.7441 12.48 36.0908 12.64C36.4441 12.7933 36.7241 13 36.9308 13.26V10.6H38.0808V18H36.9308V17.17C36.7441 17.4367 36.4841 17.6567 36.1508 17.83C35.8241 18.0033 35.4474 18.09 35.0208 18.09C34.5408 18.09 34.1008 17.97 33.7008 17.73C33.3074 17.4833 32.9941 17.1433 32.7608 16.71C32.5341 16.27 32.4208 15.7733 32.4208 15.22ZM36.9308 15.24C36.9308 14.86 36.8508 14.53 36.6908 14.25C36.5374 13.97 36.3341 13.7567 36.0808 13.61C35.8274 13.4633 35.5541 13.39 35.2608 13.39C34.9674 13.39 34.6941 13.4633 34.4408 13.61C34.1874 13.75 33.9808 13.96 33.8208 14.24C33.6674 14.5133 33.5908 14.84 33.5908 15.22C33.5908 15.6 33.6674 15.9333 33.8208 16.22C33.9808 16.5067 34.1874 16.7267 34.4408 16.88C34.7008 17.0267 34.9741 17.1 35.2608 17.1C35.5541 17.1 35.8274 17.0267 36.0808 16.88C36.3341 16.7333 36.5374 16.52 36.6908 16.24C36.8508 15.9533 36.9308 15.62 36.9308 15.24ZM41.9681 18.09C41.4481 18.09 40.9781 17.9733 40.5581 17.74C40.1381 17.5 39.8081 17.1667 39.5681 16.74C39.3281 16.3067 39.2081 15.8067 39.2081 15.24C39.2081 14.68 39.3315 14.1833 39.5781 13.75C39.8248 13.3167 40.1615 12.9833 40.5881 12.75C41.0148 12.5167 41.4915 12.4 42.0181 12.4C42.5448 12.4 43.0215 12.5167 43.4481 12.75C43.8748 12.9833 44.2115 13.3167 44.4581 13.75C44.7048 14.1833 44.8281 14.68 44.8281 15.24C44.8281 15.8 44.7015 16.2967 44.4481 16.73C44.1948 17.1633 43.8481 17.5 43.4081 17.74C42.9748 17.9733 42.4948 18.09 41.9681 18.09ZM41.9681 17.1C42.2615 17.1 42.5348 17.03 42.7881 16.89C43.0481 16.75 43.2581 16.54 43.4181 16.26C43.5781 15.98 43.6581 15.64 43.6581 15.24C43.6581 14.84 43.5815 14.5033 43.4281 14.23C43.2748 13.95 43.0715 13.74 42.8181 13.6C42.5648 13.46 42.2915 13.39 41.9981 13.39C41.7048 13.39 41.4315 13.46 41.1781 13.6C40.9315 13.74 40.7348 13.95 40.5881 14.23C40.4415 14.5033 40.3681 14.84 40.3681 15.24C40.3681 15.8333 40.5181 16.2933 40.8181 16.62C41.1248 16.94 41.5081 17.1 41.9681 17.1ZM53.3551 12.49L51.6451 18H50.4451L49.3351 13.93L48.2251 18H47.0251L45.3051 12.49H46.4651L47.6151 16.92L48.7851 12.49H49.9751L51.0951 16.9L52.2351 12.49H53.3551ZM56.987 12.4C57.4204 12.4 57.807 12.49 58.147 12.67C58.4937 12.85 58.7637 13.1167 58.957 13.47C59.1504 13.8233 59.247 14.25 59.247 14.75V18H58.117V14.92C58.117 14.4267 57.9937 14.05 57.747 13.79C57.5004 13.5233 57.1637 13.39 56.737 13.39C56.3104 13.39 55.9704 13.5233 55.717 13.79C55.4704 14.05 55.347 14.4267 55.347 14.92V18H54.207V12.49H55.347V13.12C55.5337 12.8933 55.7704 12.7167 56.057 12.59C56.3504 12.4633 56.6604 12.4 56.987 12.4Z" fill="white"/>
</svg>
