<svg width="240" height="50" viewBox="0 0 240 50" fill="none" xmlns="http://www.w3.org/2000/svg">
<path d="M7.56 13.66V22H6.192V18.352H2.268V22H0.9V13.66H2.268V17.236H6.192V13.66H7.56ZM15.4209 18.532C15.4209 18.78 15.4049 19.004 15.3729 19.204H10.3209C10.3609 19.732 10.5569 20.156 10.9089 20.476C11.2609 20.796 11.6929 20.956 12.2049 20.956C12.9409 20.956 13.4609 20.648 13.7649 20.032H15.2409C15.0409 20.64 14.6769 21.14 14.1489 21.532C13.6289 21.916 12.9809 22.108 12.2049 22.108C11.5729 22.108 11.0049 21.968 10.5009 21.688C10.0049 21.4 9.61294 21 9.32494 20.488C9.04494 19.968 8.90494 19.368 8.90494 18.688C8.90494 18.008 9.04094 17.412 9.31294 16.9C9.59294 16.38 9.98094 15.98 10.4769 15.7C10.9809 15.42 11.5569 15.28 12.2049 15.28C12.8289 15.28 13.3849 15.416 13.8729 15.688C14.3609 15.96 14.7409 16.344 15.0129 16.84C15.2849 17.328 15.4209 17.892 15.4209 18.532ZM13.9929 18.1C13.9849 17.596 13.8049 17.192 13.4529 16.888C13.1009 16.584 12.6649 16.432 12.1449 16.432C11.6729 16.432 11.2689 16.584 10.9329 16.888C10.5969 17.184 10.3969 17.588 10.3329 18.1H13.9929ZM18.1352 16.348C18.3352 16.012 18.5992 15.752 18.9272 15.568C19.2632 15.376 19.6592 15.28 20.1152 15.28V16.696H19.7672C19.2312 16.696 18.8232 16.832 18.5432 17.104C18.2712 17.376 18.1352 17.848 18.1352 18.52V22H16.7672V15.388H18.1352V16.348ZM27.4327 18.532C27.4327 18.78 27.4167 19.004 27.3847 19.204H22.3327C22.3727 19.732 22.5687 20.156 22.9207 20.476C23.2727 20.796 23.7047 20.956 24.2167 20.956C24.9527 20.956 25.4727 20.648 25.7767 20.032H27.2527C27.0527 20.64 26.6887 21.14 26.1607 21.532C25.6407 21.916 24.9927 22.108 24.2167 22.108C23.5847 22.108 23.0167 21.968 22.5127 21.688C22.0167 21.4 21.6247 21 21.3367 20.488C21.0567 19.968 20.9167 19.368 20.9167 18.688C20.9167 18.008 21.0527 17.412 21.3247 16.9C21.6047 16.38 21.9927 15.98 22.4887 15.7C22.9927 15.42 23.5687 15.28 24.2167 15.28C24.8407 15.28 25.3967 15.416 25.8847 15.688C26.3727 15.96 26.7527 16.344 27.0247 16.84C27.2967 17.328 27.4327 17.892 27.4327 18.532ZM26.0047 18.1C25.9967 17.596 25.8167 17.192 25.4647 16.888C25.1127 16.584 24.6767 16.432 24.1567 16.432C23.6847 16.432 23.2807 16.584 22.9447 16.888C22.6087 17.184 22.4087 17.588 22.3447 18.1H26.0047ZM36.8041 13.66V14.776H33.2641V17.236H36.0241V18.352H33.2641V22H31.8961V13.66H36.8041ZM40.9399 22.108C40.3159 22.108 39.7519 21.968 39.2479 21.688C38.7439 21.4 38.3479 21 38.0599 20.488C37.7719 19.968 37.6279 19.368 37.6279 18.688C37.6279 18.016 37.7759 17.42 38.0719 16.9C38.3679 16.38 38.7719 15.98 39.2839 15.7C39.7959 15.42 40.3679 15.28 40.9999 15.28C41.6319 15.28 42.2039 15.42 42.7159 15.7C43.2279 15.98 43.6319 16.38 43.9279 16.9C44.2239 17.42 44.3719 18.016 44.3719 18.688C44.3719 19.36 44.2199 19.956 43.9159 20.476C43.6119 20.996 43.1959 21.4 42.6679 21.688C42.1479 21.968 41.5719 22.108 40.9399 22.108ZM40.9399 20.92C41.2919 20.92 41.6199 20.836 41.9239 20.668C42.2359 20.5 42.4879 20.248 42.6799 19.912C42.8719 19.576 42.9679 19.168 42.9679 18.688C42.9679 18.208 42.8759 17.804 42.6919 17.476C42.5079 17.14 42.2639 16.888 41.9599 16.72C41.6559 16.552 41.3279 16.468 40.9759 16.468C40.6239 16.468 40.2959 16.552 39.9919 16.72C39.6959 16.888 39.4599 17.14 39.2839 17.476C39.1079 17.804 39.0199 18.208 39.0199 18.688C39.0199 19.4 39.1999 19.952 39.5599 20.344C39.9279 20.728 40.3879 20.92 40.9399 20.92ZM47.0922 16.348C47.2922 16.012 47.5562 15.752 47.8842 15.568C48.2202 15.376 48.6162 15.28 49.0722 15.28V16.696H48.7242C48.1882 16.696 47.7802 16.832 47.5002 17.104C47.2282 17.376 47.0922 17.848 47.0922 18.52V22H45.7242V15.388H47.0922V16.348ZM59.6269 13.66L56.8669 18.976V22H55.4989V18.976L52.7269 13.66H54.2509L56.1829 17.752L58.1149 13.66H59.6269ZM63.5805 22.108C62.9565 22.108 62.3925 21.968 61.8885 21.688C61.3845 21.4 60.9885 21 60.7005 20.488C60.4125 19.968 60.2685 19.368 60.2685 18.688C60.2685 18.016 60.4165 17.42 60.7125 16.9C61.0085 16.38 61.4125 15.98 61.9245 15.7C62.4365 15.42 63.0085 15.28 63.6405 15.28C64.2725 15.28 64.8445 15.42 65.3565 15.7C65.8685 15.98 66.2725 16.38 66.5685 16.9C66.8645 17.42 67.0125 18.016 67.0125 18.688C67.0125 19.36 66.8605 19.956 66.5565 20.476C66.2525 20.996 65.8365 21.4 65.3085 21.688C64.7885 21.968 64.2125 22.108 63.5805 22.108ZM63.5805 20.92C63.9325 20.92 64.2605 20.836 64.5645 20.668C64.8765 20.5 65.1285 20.248 65.3205 19.912C65.5125 19.576 65.6085 19.168 65.6085 18.688C65.6085 18.208 65.5165 17.804 65.3325 17.476C65.1485 17.14 64.9045 16.888 64.6005 16.72C64.2965 16.552 63.9685 16.468 63.6165 16.468C63.2645 16.468 62.9365 16.552 62.6325 16.72C62.3365 16.888 62.1005 17.14 61.9245 17.476C61.7485 17.804 61.6605 18.208 61.6605 18.688C61.6605 19.4 61.8405 19.952 62.2005 20.344C62.5685 20.728 63.0285 20.92 63.5805 20.92ZM74.3528 15.388V22H72.9848V21.22C72.7688 21.492 72.4848 21.708 72.1328 21.868C71.7888 22.02 71.4208 22.096 71.0288 22.096C70.5088 22.096 70.0408 21.988 69.6248 21.772C69.2168 21.556 68.8928 21.236 68.6528 20.812C68.4208 20.388 68.3048 19.876 68.3048 19.276V15.388H69.6608V19.072C69.6608 19.664 69.8088 20.12 70.1048 20.44C70.4008 20.752 70.8048 20.908 71.3168 20.908C71.8288 20.908 72.2328 20.752 72.5288 20.44C72.8328 20.12 72.9848 19.664 72.9848 19.072V15.388H74.3528Z" fill="black"/>
<path d="M6.74 31.05L4.13 38H2.81L0.19 31.05H1.41L3.47 36.83L5.54 31.05H6.74ZM12.7434 35.11C12.7434 35.3167 12.73 35.5033 12.7034 35.67H8.49336C8.52669 36.11 8.69003 36.4633 8.98336 36.73C9.27669 36.9967 9.63669 37.13 10.0634 37.13C10.6767 37.13 11.11 36.8733 11.3634 36.36H12.5934C12.4267 36.8667 12.1234 37.2833 11.6834 37.61C11.25 37.93 10.71 38.09 10.0634 38.09C9.53669 38.09 9.06336 37.9733 8.64336 37.74C8.23003 37.5 7.90336 37.1667 7.66336 36.74C7.43003 36.3067 7.31336 35.8067 7.31336 35.24C7.31336 34.6733 7.42669 34.1767 7.65336 33.75C7.88669 33.3167 8.21003 32.9833 8.62336 32.75C9.04336 32.5167 9.52336 32.4 10.0634 32.4C10.5834 32.4 11.0467 32.5133 11.4534 32.74C11.86 32.9667 12.1767 33.2867 12.4034 33.7C12.63 34.1067 12.7434 34.5767 12.7434 35.11ZM11.5534 34.75C11.5467 34.33 11.3967 33.9933 11.1034 33.74C10.81 33.4867 10.4467 33.36 10.0134 33.36C9.62003 33.36 9.28336 33.4867 9.00336 33.74C8.72336 33.9867 8.55669 34.3233 8.50336 34.75H11.5534ZM16.6452 32.4C17.0786 32.4 17.4652 32.49 17.8052 32.67C18.1519 32.85 18.4219 33.1167 18.6152 33.47C18.8086 33.8233 18.9052 34.25 18.9052 34.75V38H17.7752V34.92C17.7752 34.4267 17.6519 34.05 17.4052 33.79C17.1586 33.5233 16.8219 33.39 16.3952 33.39C15.9686 33.39 15.6286 33.5233 15.3752 33.79C15.1286 34.05 15.0052 34.4267 15.0052 34.92V38H13.8652V32.49H15.0052V33.12C15.1919 32.8933 15.4286 32.7167 15.7152 32.59C16.0086 32.4633 16.3186 32.4 16.6452 32.4ZM19.9794 35.22C19.9794 34.6667 20.0927 34.1767 20.3194 33.75C20.5527 33.3233 20.866 32.9933 21.2594 32.76C21.6594 32.52 22.1027 32.4 22.5894 32.4C22.9494 32.4 23.3027 32.48 23.6494 32.64C24.0027 32.7933 24.2827 33 24.4894 33.26V30.6H25.6394V38H24.4894V37.17C24.3027 37.4367 24.0427 37.6567 23.7094 37.83C23.3827 38.0033 23.006 38.09 22.5794 38.09C22.0994 38.09 21.6594 37.97 21.2594 37.73C20.866 37.4833 20.5527 37.1433 20.3194 36.71C20.0927 36.27 19.9794 35.7733 19.9794 35.22ZM24.4894 35.24C24.4894 34.86 24.4094 34.53 24.2494 34.25C24.096 33.97 23.8927 33.7567 23.6394 33.61C23.386 33.4633 23.1127 33.39 22.8194 33.39C22.526 33.39 22.2527 33.4633 21.9994 33.61C21.746 33.75 21.5394 33.96 21.3794 34.24C21.226 34.5133 21.1494 34.84 21.1494 35.22C21.1494 35.6 21.226 35.9333 21.3794 36.22C21.5394 36.5067 21.746 36.7267 21.9994 36.88C22.2594 37.0267 22.5327 37.1 22.8194 37.1C23.1127 37.1 23.386 37.0267 23.6394 36.88C23.8927 36.7333 24.096 36.52 24.2494 36.24C24.4094 35.9533 24.4894 35.62 24.4894 35.24ZM28.2767 33.29C28.4434 33.01 28.6634 32.7933 28.9367 32.64C29.2167 32.48 29.5467 32.4 29.9267 32.4V33.58H29.6367C29.1901 33.58 28.8501 33.6933 28.6167 33.92C28.3901 34.1467 28.2767 34.54 28.2767 35.1V38H27.1367V32.49H28.2767V33.29ZM36.0246 35.11C36.0246 35.3167 36.0113 35.5033 35.9846 35.67H31.7746C31.8079 36.11 31.9713 36.4633 32.2646 36.73C32.5579 36.9967 32.9179 37.13 33.3446 37.13C33.9579 37.13 34.3913 36.8733 34.6446 36.36H35.8746C35.7079 36.8667 35.4046 37.2833 34.9646 37.61C34.5313 37.93 33.9913 38.09 33.3446 38.09C32.8179 38.09 32.3446 37.9733 31.9246 37.74C31.5113 37.5 31.1846 37.1667 30.9446 36.74C30.7113 36.3067 30.5946 35.8067 30.5946 35.24C30.5946 34.6733 30.7079 34.1767 30.9346 33.75C31.1679 33.3167 31.4913 32.9833 31.9046 32.75C32.3246 32.5167 32.8046 32.4 33.3446 32.4C33.8646 32.4 34.3279 32.5133 34.7346 32.74C35.1413 32.9667 35.4579 33.2867 35.6846 33.7C35.9113 34.1067 36.0246 34.5767 36.0246 35.11ZM34.8346 34.75C34.8279 34.33 34.6779 33.9933 34.3846 33.74C34.0913 33.4867 33.7279 33.36 33.2946 33.36C32.9013 33.36 32.5646 33.4867 32.2846 33.74C32.0046 33.9867 31.8379 34.3233 31.7846 34.75H34.8346ZM36.7665 35.22C36.7665 34.6667 36.8798 34.1767 37.1065 33.75C37.3398 33.3233 37.6532 32.9933 38.0465 32.76C38.4465 32.52 38.8898 32.4 39.3765 32.4C39.7365 32.4 40.0898 32.48 40.4365 32.64C40.7898 32.7933 41.0698 33 41.2765 33.26V30.6H42.4265V38H41.2765V37.17C41.0898 37.4367 40.8298 37.6567 40.4965 37.83C40.1698 38.0033 39.7932 38.09 39.3665 38.09C38.8865 38.09 38.4465 37.97 38.0465 37.73C37.6532 37.4833 37.3398 37.1433 37.1065 36.71C36.8798 36.27 36.7665 35.7733 36.7665 35.22ZM41.2765 35.24C41.2765 34.86 41.1965 34.53 41.0365 34.25C40.8832 33.97 40.6798 33.7567 40.4265 33.61C40.1732 33.4633 39.8998 33.39 39.6065 33.39C39.3132 33.39 39.0398 33.4633 38.7865 33.61C38.5332 33.75 38.3265 33.96 38.1665 34.24C38.0132 34.5133 37.9365 34.84 37.9365 35.22C37.9365 35.6 38.0132 35.9333 38.1665 36.22C38.3265 36.5067 38.5332 36.7267 38.7865 36.88C39.0465 37.0267 39.3198 37.1 39.6065 37.1C39.8998 37.1 40.1732 37.0267 40.4265 36.88C40.6798 36.7333 40.8832 36.52 41.0365 36.24C41.1965 35.9533 41.2765 35.62 41.2765 35.24ZM44.5038 31.76C44.2972 31.76 44.1238 31.69 43.9838 31.55C43.8438 31.41 43.7738 31.2367 43.7738 31.03C43.7738 30.8233 43.8438 30.65 43.9838 30.51C44.1238 30.37 44.2972 30.3 44.5038 30.3C44.7038 30.3 44.8738 30.37 45.0138 30.51C45.1538 30.65 45.2238 30.8233 45.2238 31.03C45.2238 31.2367 45.1538 31.41 45.0138 31.55C44.8738 31.69 44.7038 31.76 44.5038 31.76ZM45.0638 32.49V38H43.9238V32.49H45.0638Z" fill="#808080"/>
</svg>
