<svg width="300" height="40" viewBox="0 0 300 40" fill="none" xmlns="http://www.w3.org/2000/svg">
<rect width="300" height="40" rx="15" fill="black" fill-opacity="0.1"/>
<path d="M49.684 15.66V24H48.316V18.288L45.772 24H44.824L42.268 18.288V24H40.9V15.66H42.376L45.304 22.2L48.22 15.66H49.684ZM57.47 17.388V24H56.102V23.22C55.886 23.492 55.602 23.708 55.25 23.868C54.906 24.02 54.538 24.096 54.146 24.096C53.626 24.096 53.158 23.988 52.742 23.772C52.334 23.556 52.01 23.236 51.77 22.812C51.538 22.388 51.422 21.876 51.422 21.276V17.388H52.778V21.072C52.778 21.664 52.926 22.12 53.222 22.44C53.518 22.752 53.922 22.908 54.434 22.908C54.946 22.908 55.35 22.752 55.646 22.44C55.95 22.12 56.102 21.664 56.102 21.072V17.388H57.47ZM61.675 24.108C61.155 24.108 60.687 24.016 60.271 23.832C59.863 23.64 59.539 23.384 59.299 23.064C59.059 22.736 58.931 22.372 58.915 21.972H60.331C60.355 22.252 60.487 22.488 60.727 22.68C60.975 22.864 61.283 22.956 61.651 22.956C62.035 22.956 62.331 22.884 62.539 22.74C62.755 22.588 62.863 22.396 62.863 22.164C62.863 21.916 62.743 21.732 62.503 21.612C62.271 21.492 61.899 21.36 61.387 21.216C60.891 21.08 60.487 20.948 60.175 20.82C59.863 20.692 59.591 20.496 59.359 20.232C59.135 19.968 59.023 19.62 59.023 19.188C59.023 18.836 59.127 18.516 59.335 18.228C59.543 17.932 59.839 17.7 60.223 17.532C60.615 17.364 61.063 17.28 61.567 17.28C62.319 17.28 62.923 17.472 63.379 17.856C63.843 18.232 64.091 18.748 64.123 19.404H62.755C62.731 19.108 62.611 18.872 62.395 18.696C62.179 18.52 61.887 18.432 61.519 18.432C61.159 18.432 60.883 18.5 60.691 18.636C60.499 18.772 60.403 18.952 60.403 19.176C60.403 19.352 60.467 19.5 60.595 19.62C60.723 19.74 60.879 19.836 61.063 19.908C61.247 19.972 61.519 20.056 61.879 20.16C62.359 20.288 62.751 20.42 63.055 20.556C63.367 20.684 63.635 20.876 63.859 21.132C64.083 21.388 64.199 21.728 64.207 22.152C64.207 22.528 64.103 22.864 63.895 23.16C63.687 23.456 63.391 23.688 63.007 23.856C62.631 24.024 62.187 24.108 61.675 24.108ZM66.3812 16.512C66.1332 16.512 65.9252 16.428 65.7572 16.26C65.5892 16.092 65.5052 15.884 65.5052 15.636C65.5052 15.388 65.5892 15.18 65.7572 15.012C65.9252 14.844 66.1332 14.76 66.3812 14.76C66.6212 14.76 66.8252 14.844 66.9932 15.012C67.1612 15.18 67.2452 15.388 67.2452 15.636C67.2452 15.884 67.1612 16.092 66.9932 16.26C66.8252 16.428 66.6212 16.512 66.3812 16.512ZM67.0532 17.388V24H65.6852V17.388H67.0532ZM68.3932 20.688C68.3932 20.008 68.5292 19.412 68.8012 18.9C69.0812 18.38 69.4652 17.98 69.9532 17.7C70.4412 17.42 71.0012 17.28 71.6332 17.28C72.4332 17.28 73.0932 17.472 73.6132 17.856C74.1412 18.232 74.4972 18.772 74.6812 19.476H73.2052C73.0852 19.148 72.8932 18.892 72.6292 18.708C72.3652 18.524 72.0332 18.432 71.6332 18.432C71.0732 18.432 70.6252 18.632 70.2892 19.032C69.9612 19.424 69.7972 19.976 69.7972 20.688C69.7972 21.4 69.9612 21.956 70.2892 22.356C70.6252 22.756 71.0732 22.956 71.6332 22.956C72.4252 22.956 72.9492 22.608 73.2052 21.912H74.6812C74.4892 22.584 74.1292 23.12 73.6012 23.52C73.0732 23.912 72.4172 24.108 71.6332 24.108C71.0012 24.108 70.4412 23.968 69.9532 23.688C69.4652 23.4 69.0812 23 68.8012 22.488C68.5292 21.968 68.3932 21.368 68.3932 20.688ZM81.0217 21.564C80.7337 21.564 80.4697 21.496 80.2297 21.36C79.9977 21.216 79.8097 21.028 79.6657 20.796C79.5297 20.556 79.4617 20.292 79.4617 20.004C79.4617 19.564 79.6137 19.192 79.9177 18.888C80.2217 18.584 80.5897 18.432 81.0217 18.432C81.4697 18.432 81.8457 18.584 82.1497 18.888C82.4537 19.192 82.6057 19.564 82.6057 20.004C82.6057 20.444 82.4537 20.816 82.1497 21.12C81.8457 21.416 81.4697 21.564 81.0217 21.564ZM92.8499 22.296H89.3579L88.7579 24H87.3299L90.3179 15.648H91.9019L94.8899 24H93.4499L92.8499 22.296ZM92.4659 21.18L91.1099 17.304L89.7419 21.18H92.4659ZM97.5571 18.36C97.7891 18.056 98.1051 17.8 98.5051 17.592C98.9051 17.384 99.3571 17.28 99.8611 17.28C100.437 17.28 100.961 17.424 101.433 17.712C101.913 17.992 102.289 18.388 102.561 18.9C102.833 19.412 102.969 20 102.969 20.664C102.969 21.328 102.833 21.924 102.561 22.452C102.289 22.972 101.913 23.38 101.433 23.676C100.961 23.964 100.437 24.108 99.8611 24.108C99.3571 24.108 98.9091 24.008 98.5171 23.808C98.1251 23.6 97.8051 23.344 97.5571 23.04V27.144H96.1891V17.388H97.5571V18.36ZM101.577 20.664C101.577 20.208 101.481 19.816 101.289 19.488C101.105 19.152 100.857 18.9 100.545 18.732C100.241 18.556 99.9131 18.468 99.5611 18.468C99.2171 18.468 98.8891 18.556 98.5771 18.732C98.2731 18.908 98.0251 19.164 97.8331 19.5C97.6491 19.836 97.5571 20.232 97.5571 20.688C97.5571 21.144 97.6491 21.544 97.8331 21.888C98.0251 22.224 98.2731 22.48 98.5771 22.656C98.8891 22.832 99.2171 22.92 99.5611 22.92C99.9131 22.92 100.241 22.832 100.545 22.656C100.857 22.472 101.105 22.208 101.289 21.864C101.481 21.52 101.577 21.12 101.577 20.664ZM105.69 18.36C105.922 18.056 106.238 17.8 106.638 17.592C107.038 17.384 107.49 17.28 107.994 17.28C108.57 17.28 109.094 17.424 109.566 17.712C110.046 17.992 110.422 18.388 110.694 18.9C110.966 19.412 111.102 20 111.102 20.664C111.102 21.328 110.966 21.924 110.694 22.452C110.422 22.972 110.046 23.38 109.566 23.676C109.094 23.964 108.57 24.108 107.994 24.108C107.49 24.108 107.042 24.008 106.65 23.808C106.258 23.6 105.938 23.344 105.69 23.04V27.144H104.322V17.388H105.69V18.36ZM109.71 20.664C109.71 20.208 109.614 19.816 109.422 19.488C109.238 19.152 108.99 18.9 108.678 18.732C108.374 18.556 108.046 18.468 107.694 18.468C107.35 18.468 107.022 18.556 106.71 18.732C106.406 18.908 106.158 19.164 105.966 19.5C105.782 19.836 105.69 20.232 105.69 20.688C105.69 21.144 105.782 21.544 105.966 21.888C106.158 22.224 106.406 22.48 106.71 22.656C107.022 22.832 107.35 22.92 107.694 22.92C108.046 22.92 108.374 22.832 108.678 22.656C108.99 22.472 109.238 22.208 109.422 21.864C109.614 21.52 109.71 21.12 109.71 20.664Z" fill="black"/>
<rect x="13" y="17" width="10" height="10" rx="5" stroke="black" stroke-width="2"/>
<path d="M22 16C22 13.7909 23.7909 12 26 12H27C27.5523 12 28 12.4477 28 13V13C28 13.5523 27.5523 14 27 14H26C24.8954 14 24 14.8954 24 16V22H22V16Z" fill="black"/>
<rect x="16" y="20" width="4" height="4" rx="2" fill="black"/>
</svg>
