<svg xmlns="http://www.w3.org/2000/svg" fill="none" viewBox="0 0 480 360" height="360" width="480">
<rect fill="black" height="40" width="96" y="320" x="161"></rect>
<rect fill="black" height="40" width="96" y="320" x="267"></rect>
<path fill="white" d="M207.442 336.5V335.252H209.938V344H208.558V336.5H207.442Z"></path>
<path fill="white" d="M313.013 342.14C313.781 341.476 314.385 340.932 314.825 340.508C315.273 340.076 315.645 339.628 315.941 339.164C316.237 338.7 316.385 338.236 316.385 337.772C316.385 337.292 316.269 336.916 316.037 336.644C315.813 336.372 315.457 336.236 314.969 336.236C314.497 336.236 314.129 336.388 313.865 336.692C313.609 336.988 313.473 337.388 313.457 337.892H312.137C312.161 336.98 312.433 336.284 312.953 335.804C313.481 335.316 314.149 335.072 314.957 335.072C315.829 335.072 316.509 335.312 316.997 335.792C317.493 336.272 317.741 336.912 317.741 337.712C317.741 338.288 317.593 338.844 317.297 339.38C317.009 339.908 316.661 340.384 316.253 340.808C315.853 341.224 315.341 341.708 314.717 342.26L314.177 342.74H317.981V343.88H312.149V342.884L313.013 342.14Z"></path>
</svg>
