<svg xmlns="http://www.w3.org/2000/svg" fill="none" viewBox="0 0 450 360" height="360" width="450">
<rect fill-opacity="0.1" fill="black" rx="15" height="40" width="450"></rect>
<path fill="black" d="M25.232 24L23.312 20.664H22.268V24H20.9V15.66H23.78C24.42 15.66 24.96 15.772 25.4 15.996C25.848 16.22 26.18 16.52 26.396 16.896C26.62 17.272 26.732 17.692 26.732 18.156C26.732 18.7 26.572 19.196 26.252 19.644C25.94 20.084 25.456 20.384 24.8 20.544L26.864 24H25.232ZM22.268 19.572H23.78C24.292 19.572 24.676 19.444 24.932 19.188C25.196 18.932 25.328 18.588 25.328 18.156C25.328 17.724 25.2 17.388 24.944 17.148C24.688 16.9 24.3 16.776 23.78 16.776H22.268V19.572ZM34.542 20.532C34.542 20.78 34.526 21.004 34.494 21.204H29.442C29.482 21.732 29.678 22.156 30.03 22.476C30.382 22.796 30.814 22.956 31.326 22.956C32.062 22.956 32.582 22.648 32.886 22.032H34.362C34.162 22.64 33.798 23.14 33.27 23.532C32.75 23.916 32.102 24.108 31.326 24.108C30.694 24.108 30.126 23.968 29.622 23.688C29.126 23.4 28.734 23 28.446 22.488C28.166 21.968 28.026 21.368 28.026 20.688C28.026 20.008 28.162 19.412 28.434 18.9C28.714 18.38 29.102 17.98 29.598 17.7C30.102 17.42 30.678 17.28 31.326 17.28C31.95 17.28 32.506 17.416 32.994 17.688C33.482 17.96 33.862 18.344 34.134 18.84C34.406 19.328 34.542 19.892 34.542 20.532ZM33.114 20.1C33.106 19.596 32.926 19.192 32.574 18.888C32.222 18.584 31.786 18.432 31.266 18.432C30.794 18.432 30.39 18.584 30.054 18.888C29.718 19.184 29.518 19.588 29.454 20.1H33.114ZM37.4843 18.504V22.164C37.4843 22.412 37.5403 22.592 37.6523 22.704C37.7723 22.808 37.9723 22.86 38.2523 22.86H39.0923V24H38.0123C37.3963 24 36.9243 23.856 36.5963 23.568C36.2683 23.28 36.1043 22.812 36.1043 22.164V18.504H35.3243V17.388H36.1043V15.744H37.4843V17.388H39.0923V18.504H37.4843ZM46.3411 17.388V24H44.9731V23.22C44.7571 23.492 44.4731 23.708 44.1211 23.868C43.7771 24.02 43.4091 24.096 43.0171 24.096C42.4971 24.096 42.0291 23.988 41.6131 23.772C41.2051 23.556 40.8811 23.236 40.6411 22.812C40.4091 22.388 40.2931 21.876 40.2931 21.276V17.388H41.6491V21.072C41.6491 21.664 41.7971 22.12 42.0931 22.44C42.3891 22.752 42.7931 22.908 43.3051 22.908C43.8171 22.908 44.2211 22.752 44.5171 22.44C44.8211 22.12 44.9731 21.664 44.9731 21.072V17.388H46.3411ZM49.5141 18.348C49.7141 18.012 49.9781 17.752 50.3061 17.568C50.6421 17.376 51.0381 17.28 51.4941 17.28V18.696H51.1461C50.6101 18.696 50.2021 18.832 49.9221 19.104C49.6501 19.376 49.5141 19.848 49.5141 20.52V24H48.1461V17.388H49.5141V18.348ZM56.0876 17.28C56.6076 17.28 57.0716 17.388 57.4796 17.604C57.8956 17.82 58.2196 18.14 58.4516 18.564C58.6836 18.988 58.7996 19.5 58.7996 20.1V24H57.4436V20.304C57.4436 19.712 57.2956 19.26 56.9996 18.948C56.7036 18.628 56.2996 18.468 55.7876 18.468C55.2756 18.468 54.8676 18.628 54.5636 18.948C54.2676 19.26 54.1196 19.712 54.1196 20.304V24H52.7516V17.388H54.1196V18.144C54.3436 17.872 54.6276 17.66 54.9716 17.508C55.3236 17.356 55.6956 17.28 56.0876 17.28Z"></path>
<path fill="#808080" d="M234.47 20.43C234.843 20.4967 235.16 20.6933 235.42 21.02C235.68 21.3467 235.81 21.7167 235.81 22.13C235.81 22.4833 235.717 22.8033 235.53 23.09C235.35 23.37 235.087 23.5933 234.74 23.76C234.393 23.92 233.99 24 233.53 24H230.75V17.05H233.4C233.873 17.05 234.28 17.13 234.62 17.29C234.96 17.45 235.217 17.6667 235.39 17.94C235.563 18.2067 235.65 18.5067 235.65 18.84C235.65 19.24 235.543 19.5733 235.33 19.84C235.117 20.1067 234.83 20.3033 234.47 20.43ZM231.89 19.97H233.3C233.673 19.97 233.963 19.8867 234.17 19.72C234.383 19.5467 234.49 19.3 234.49 18.98C234.49 18.6667 234.383 18.4233 234.17 18.25C233.963 18.07 233.673 17.98 233.3 17.98H231.89V19.97ZM233.43 23.07C233.817 23.07 234.12 22.9767 234.34 22.79C234.56 22.6033 234.67 22.3433 234.67 22.01C234.67 21.67 234.553 21.4 234.32 21.2C234.087 21 233.777 20.9 233.39 20.9H231.89V23.07H233.43ZM240.239 20.53L242.399 24H241.119L239.549 21.48L238.079 24H236.809L238.969 20.53L236.799 17.05H238.079L239.659 19.59L241.139 17.05H242.409L240.239 20.53ZM245.92 17.05C246.66 17.05 247.307 17.1933 247.86 17.48C248.42 17.76 248.85 18.1667 249.15 18.7C249.457 19.2267 249.61 19.8433 249.61 20.55C249.61 21.2567 249.457 21.87 249.15 22.39C248.85 22.91 248.42 23.31 247.86 23.59C247.307 23.8633 246.66 24 245.92 24H243.65V17.05H245.92ZM245.92 23.07C246.734 23.07 247.357 22.85 247.79 22.41C248.224 21.97 248.44 21.35 248.44 20.55C248.44 19.7433 248.224 19.1133 247.79 18.66C247.357 18.2067 246.734 17.98 245.92 17.98H244.79V23.07H245.92ZM256.45 24H255.31L251.88 18.81V24H250.74V17.04H251.88L255.31 22.22V17.04H256.45V24Z"></path>
<path fill="#808080" d="M412.267 22.48V21.62L415.627 16.8H417.007V21.49H417.937V22.48H417.007V24H415.887V22.48H412.267ZM415.937 17.96L413.577 21.49H415.937V17.96ZM419.491 24.07C419.285 24.07 419.111 24 418.971 23.86C418.831 23.72 418.761 23.5467 418.761 23.34C418.761 23.1333 418.831 22.96 418.971 22.82C419.111 22.68 419.285 22.61 419.491 22.61C419.691 22.61 419.861 22.68 420.001 22.82C420.141 22.96 420.211 23.1333 420.211 23.34C420.211 23.5467 420.141 23.72 420.001 23.86C419.861 24 419.691 24.07 419.491 24.07ZM419.491 19.87C419.285 19.87 419.111 19.8 418.971 19.66C418.831 19.52 418.761 19.3467 418.761 19.14C418.761 18.9333 418.831 18.76 418.971 18.62C419.111 18.48 419.285 18.41 419.491 18.41C419.691 18.41 419.861 18.48 420.001 18.62C420.141 18.76 420.211 18.9333 420.211 19.14C420.211 19.3467 420.141 19.52 420.001 19.66C419.861 19.8 419.691 19.87 419.491 19.87ZM421.182 17.75V16.71H423.262V24H422.112V17.75H421.182ZM425.459 22.45C426.099 21.8967 426.602 21.4433 426.969 21.09C427.342 20.73 427.652 20.3567 427.899 19.97C428.145 19.5833 428.269 19.1967 428.269 18.81C428.269 18.41 428.172 18.0967 427.979 17.87C427.792 17.6433 427.495 17.53 427.089 17.53C426.695 17.53 426.389 17.6567 426.169 17.91C425.955 18.1567 425.842 18.49 425.829 18.91H424.729C424.749 18.15 424.975 17.57 425.409 17.17C425.849 16.7633 426.405 16.56 427.079 16.56C427.805 16.56 428.372 16.76 428.779 17.16C429.192 17.56 429.399 18.0933 429.399 18.76C429.399 19.24 429.275 19.7033 429.029 20.15C428.789 20.59 428.499 20.9867 428.159 21.34C427.825 21.6867 427.399 22.09 426.879 22.55L426.429 22.95H429.599V23.9H424.739V23.07L425.459 22.45Z"></path>
</svg>
