<svg width="480" height="360" viewBox="0 0 480 360" fill="none" xmlns="http://www.w3.org/2000/svg">
<path d="M0 340H15C12.2386 340 10 342.239 10 345C10 347.761 12.2386 350 15 350H0V340Z" fill="black"/>
<path d="M15.24 327.05V327.98H13.39V334H12.25V327.98H10.39V327.05H15.24ZM16.9745 327.76C16.7679 327.76 16.5945 327.69 16.4545 327.55C16.3145 327.41 16.2445 327.237 16.2445 327.03C16.2445 326.823 16.3145 326.65 16.4545 326.51C16.5945 326.37 16.7679 326.3 16.9745 326.3C17.1745 326.3 17.3445 326.37 17.4845 326.51C17.6245 326.65 17.6945 326.823 17.6945 327.03C17.6945 327.237 17.6245 327.41 17.4845 327.55C17.3445 327.69 17.1745 327.76 16.9745 327.76ZM17.5345 328.49V334H16.3945V328.49H17.5345ZM25.7013 328.4C26.1346 328.4 26.5213 328.49 26.8613 328.67C27.2079 328.85 27.4779 329.117 27.6713 329.47C27.8713 329.823 27.9713 330.25 27.9713 330.75V334H26.8413V330.92C26.8413 330.427 26.7179 330.05 26.4713 329.79C26.2246 329.523 25.8879 329.39 25.4613 329.39C25.0346 329.39 24.6946 329.523 24.4413 329.79C24.1946 330.05 24.0713 330.427 24.0713 330.92V334H22.9413V330.92C22.9413 330.427 22.8179 330.05 22.5713 329.79C22.3246 329.523 21.9879 329.39 21.5613 329.39C21.1346 329.39 20.7946 329.523 20.5413 329.79C20.2946 330.05 20.1713 330.427 20.1713 330.92V334H19.0313V328.49H20.1713V329.12C20.3579 328.893 20.5946 328.717 20.8813 328.59C21.1679 328.463 21.4746 328.4 21.8013 328.4C22.2413 328.4 22.6346 328.493 22.9813 328.68C23.3279 328.867 23.5946 329.137 23.7813 329.49C23.9479 329.157 24.2079 328.893 24.5613 328.7C24.9146 328.5 25.2946 328.4 25.7013 328.4ZM34.4719 331.11C34.4719 331.317 34.4585 331.503 34.4319 331.67H30.2219C30.2552 332.11 30.4185 332.463 30.7119 332.73C31.0052 332.997 31.3652 333.13 31.7919 333.13C32.4052 333.13 32.8385 332.873 33.0919 332.36H34.3219C34.1552 332.867 33.8519 333.283 33.4119 333.61C32.9785 333.93 32.4385 334.09 31.7919 334.09C31.2652 334.09 30.7919 333.973 30.3719 333.74C29.9585 333.5 29.6319 333.167 29.3919 332.74C29.1585 332.307 29.0419 331.807 29.0419 331.24C29.0419 330.673 29.1552 330.177 29.3819 329.75C29.6152 329.317 29.9385 328.983 30.3519 328.75C30.7719 328.517 31.2519 328.4 31.7919 328.4C32.3119 328.4 32.7752 328.513 33.1819 328.74C33.5885 328.967 33.9052 329.287 34.1319 329.7C34.3585 330.107 34.4719 330.577 34.4719 331.11ZM33.2819 330.75C33.2752 330.33 33.1252 329.993 32.8319 329.74C32.5385 329.487 32.1752 329.36 31.7419 329.36C31.3485 329.36 31.0119 329.487 30.7319 329.74C30.4519 329.987 30.2852 330.323 30.2319 330.75H33.2819ZM39.3314 326.6V334H38.1914V326.6H39.3314ZM45.8781 331.11C45.8781 331.317 45.8648 331.503 45.8381 331.67H41.6281C41.6615 332.11 41.8248 332.463 42.1181 332.73C42.4115 332.997 42.7715 333.13 43.1981 333.13C43.8115 333.13 44.2448 332.873 44.4981 332.36H45.7281C45.5615 332.867 45.2581 333.283 44.8181 333.61C44.3848 333.93 43.8448 334.09 43.1981 334.09C42.6715 334.09 42.1981 333.973 41.7781 333.74C41.3648 333.5 41.0381 333.167 40.7981 332.74C40.5648 332.307 40.4481 331.807 40.4481 331.24C40.4481 330.673 40.5615 330.177 40.7881 329.75C41.0215 329.317 41.3448 328.983 41.7581 328.75C42.1781 328.517 42.6581 328.4 43.1981 328.4C43.7181 328.4 44.1815 328.513 44.5881 328.74C44.9948 328.967 45.3115 329.287 45.5381 329.7C45.7648 330.107 45.8781 330.577 45.8781 331.11ZM44.6881 330.75C44.6815 330.33 44.5315 329.993 44.2381 329.74C43.9448 329.487 43.5815 329.36 43.1481 329.36C42.7548 329.36 42.4181 329.487 42.1381 329.74C41.8581 329.987 41.6915 330.323 41.6381 330.75H44.6881ZM49.31 329.42H48.29V334H47.14V329.42H46.49V328.49H47.14V328.1C47.14 327.467 47.3067 327.007 47.64 326.72C47.98 326.427 48.51 326.28 49.23 326.28V327.23C48.8833 327.23 48.64 327.297 48.5 327.43C48.36 327.557 48.29 327.78 48.29 328.1V328.49H49.31V329.42ZM51.6503 329.42V332.47C51.6503 332.677 51.697 332.827 51.7903 332.92C51.8903 333.007 52.057 333.05 52.2903 333.05H52.9903V334H52.0903C51.577 334 51.1836 333.88 50.9103 333.64C50.637 333.4 50.5003 333.01 50.5003 332.47V329.42H49.8503V328.49H50.5003V327.12H51.6503V328.49H52.9903V329.42H51.6503Z" fill="white"/>
<path d="M221.496 19.88C222.68 19.88 223.715 20.1093 224.6 20.568C225.496 21.016 226.184 21.6667 226.664 22.52C227.155 23.3627 227.4 24.3493 227.4 25.48C227.4 26.6107 227.155 27.592 226.664 28.424C226.184 29.256 225.496 29.896 224.6 30.344C223.715 30.7813 222.68 31 221.496 31H217.864V19.88H221.496ZM221.496 29.512C222.797 29.512 223.795 29.16 224.488 28.456C225.181 27.752 225.528 26.76 225.528 25.48C225.528 24.1893 225.181 23.1813 224.488 22.456C223.795 21.7307 222.797 21.368 221.496 21.368H219.688V29.512H221.496ZM231.032 23.464C231.298 23.016 231.65 22.6693 232.088 22.424C232.536 22.168 233.064 22.04 233.672 22.04V23.928H233.208C232.493 23.928 231.949 24.1093 231.576 24.472C231.213 24.8347 231.032 25.464 231.032 26.36V31H229.208V22.184H231.032V23.464ZM234.74 26.552C234.74 25.6667 234.922 24.8827 235.284 24.2C235.658 23.5173 236.159 22.9893 236.788 22.616C237.428 22.232 238.132 22.04 238.9 22.04C239.594 22.04 240.196 22.1787 240.708 22.456C241.231 22.7227 241.647 23.0587 241.956 23.464V22.184H243.796V31H241.956V29.688C241.647 30.104 241.226 30.4507 240.692 30.728C240.159 31.0053 239.551 31.144 238.868 31.144C238.111 31.144 237.418 30.952 236.788 30.568C236.159 30.1733 235.658 29.6293 235.284 28.936C234.922 28.232 234.74 27.4373 234.74 26.552ZM241.956 26.584C241.956 25.976 241.828 25.448 241.572 25C241.327 24.552 241.002 24.2107 240.596 23.976C240.191 23.7413 239.754 23.624 239.284 23.624C238.815 23.624 238.378 23.7413 237.972 23.976C237.567 24.2 237.236 24.536 236.98 24.984C236.735 25.4213 236.612 25.944 236.612 26.552C236.612 27.16 236.735 27.6933 236.98 28.152C237.236 28.6107 237.567 28.9627 237.972 29.208C238.388 29.4427 238.826 29.56 239.284 29.56C239.754 29.56 240.191 29.4427 240.596 29.208C241.002 28.9733 241.327 28.632 241.572 28.184C241.828 27.7253 241.956 27.192 241.956 26.584ZM258.032 22.184L255.296 31H253.376L251.6 24.488L249.824 31H247.904L245.152 22.184H247.008L248.848 29.272L250.72 22.184H252.624L254.416 29.24L256.24 22.184H258.032ZM261.683 19.88L261.475 27.64H259.955L259.747 19.88H261.683ZM260.771 31.112C260.441 31.112 260.163 31 259.939 30.776C259.715 30.552 259.603 30.2747 259.603 29.944C259.603 29.6133 259.715 29.336 259.939 29.112C260.163 28.888 260.441 28.776 260.771 28.776C261.091 28.776 261.363 28.888 261.587 29.112C261.811 29.336 261.923 29.6133 261.923 29.944C261.923 30.2747 261.811 30.552 261.587 30.776C261.363 31 261.091 31.112 260.771 31.112Z" fill="white"/>
<rect opacity="0.1" x="70" y="50" width="340" height="260" rx="10" fill="white"/>
</svg>
