<svg xmlns="http://www.w3.org/2000/svg" fill="none" viewBox="0 0 480 360" height="360" width="480">
<g clip-path="url(#clip0_621_124)">
<rect fill="#0080FF" height="360" width="480"></rect>
<path fill="#0000FF" d="M0 0H150V360H0V0Z"></path>
<path fill-opacity="0.25" fill="white" d="M0 50H150V80H0V50Z"></path>
<path fill="white" d="M50.864 23.112C50.1173 23.112 49.4453 22.984 48.848 22.728C48.2507 22.4613 47.7813 22.088 47.44 21.608C47.0987 21.128 46.928 20.568 46.928 19.928H48.88C48.9227 20.408 49.1093 20.8027 49.44 21.112C49.7813 21.4213 50.256 21.576 50.864 21.576C51.4933 21.576 51.984 21.4267 52.336 21.128C52.688 20.8187 52.864 20.424 52.864 19.944C52.864 19.5707 52.752 19.2667 52.528 19.032C52.3147 18.7973 52.0427 18.616 51.712 18.488C51.392 18.36 50.944 18.2213 50.368 18.072C49.6427 17.88 49.0507 17.688 48.592 17.496C48.144 17.2933 47.76 16.984 47.44 16.568C47.12 16.152 46.96 15.5973 46.96 14.904C46.96 14.264 47.12 13.704 47.44 13.224C47.76 12.744 48.208 12.376 48.784 12.12C49.36 11.864 50.0267 11.736 50.784 11.736C51.8613 11.736 52.7413 12.008 53.424 12.552C54.1173 13.0853 54.5013 13.8213 54.576 14.76H52.56C52.528 14.3547 52.336 14.008 51.984 13.72C51.632 13.432 51.168 13.288 50.592 13.288C50.0693 13.288 49.6427 13.4213 49.312 13.688C48.9813 13.9547 48.816 14.3387 48.816 14.84C48.816 15.1813 48.9173 15.464 49.12 15.688C49.3333 15.9013 49.6 16.072 49.92 16.2C50.24 16.328 50.6773 16.4667 51.232 16.616C51.968 16.8187 52.5653 17.0213 53.024 17.224C53.4933 17.4267 53.888 17.7413 54.208 18.168C54.5387 18.584 54.704 19.144 54.704 19.848C54.704 20.4133 54.5493 20.9467 54.24 21.448C53.9413 21.9493 53.4987 22.3547 52.912 22.664C52.336 22.9627 51.6533 23.112 50.864 23.112ZM56.2483 18.584C56.2483 17.6773 56.4296 16.8827 56.7923 16.2C57.1656 15.5067 57.6776 14.9733 58.3283 14.6C58.9789 14.2267 59.7256 14.04 60.5683 14.04C61.6349 14.04 62.5149 14.296 63.2083 14.808C63.9123 15.3093 64.3869 16.0293 64.6323 16.968H62.6643C62.5043 16.5307 62.2483 16.1893 61.8963 15.944C61.5443 15.6987 61.1016 15.576 60.5683 15.576C59.8216 15.576 59.2243 15.8427 58.7763 16.376C58.3389 16.8987 58.1203 17.6347 58.1203 18.584C58.1203 19.5333 58.3389 20.2747 58.7763 20.808C59.2243 21.3413 59.8216 21.608 60.5683 21.608C61.6243 21.608 62.3229 21.144 62.6643 20.216H64.6323C64.3763 21.112 63.8963 21.8267 63.1923 22.36C62.4883 22.8827 61.6136 23.144 60.5683 23.144C59.7256 23.144 58.9789 22.9573 58.3283 22.584C57.6776 22.2 57.1656 21.6667 56.7923 20.984C56.4296 20.2907 56.2483 19.4907 56.2483 18.584ZM68.274 15.464C68.5407 15.016 68.8927 14.6693 69.33 14.424C69.778 14.168 70.306 14.04 70.914 14.04V15.928H70.45C69.7353 15.928 69.1913 16.1093 68.818 16.472C68.4553 16.8347 68.274 17.464 68.274 18.36V23H66.45V14.184H68.274V15.464ZM71.9826 18.552C71.9826 17.6667 72.164 16.8827 72.5266 16.2C72.9 15.5173 73.4013 14.9893 74.0306 14.616C74.6706 14.232 75.3746 14.04 76.1426 14.04C76.836 14.04 77.4386 14.1787 77.9506 14.456C78.4733 14.7227 78.8893 15.0587 79.1986 15.464V14.184H81.0386V23H79.1986V21.688C78.8893 22.104 78.468 22.4507 77.9346 22.728C77.4013 23.0053 76.7933 23.144 76.1106 23.144C75.3533 23.144 74.66 22.952 74.0306 22.568C73.4013 22.1733 72.9 21.6293 72.5266 20.936C72.164 20.232 71.9826 19.4373 71.9826 18.552ZM79.1986 18.584C79.1986 17.976 79.0706 17.448 78.8146 17C78.5693 16.552 78.244 16.2107 77.8386 15.976C77.4333 15.7413 76.996 15.624 76.5266 15.624C76.0573 15.624 75.62 15.7413 75.2146 15.976C74.8093 16.2 74.4786 16.536 74.2226 16.984C73.9773 17.4213 73.8546 17.944 73.8546 18.552C73.8546 19.16 73.9773 19.6933 74.2226 20.152C74.4786 20.6107 74.8093 20.9627 75.2146 21.208C75.6306 21.4427 76.068 21.56 76.5266 21.56C76.996 21.56 77.4333 21.4427 77.8386 21.208C78.244 20.9733 78.5693 20.632 78.8146 20.184C79.0706 19.7253 79.1986 19.192 79.1986 18.584ZM85.5624 15.672V20.552C85.5624 20.8827 85.637 21.1227 85.7864 21.272C85.9464 21.4107 86.213 21.48 86.5864 21.48H87.7064V23H86.2664C85.445 23 84.8157 22.808 84.3784 22.424C83.941 22.04 83.7224 21.416 83.7224 20.552V15.672H82.6824V14.184H83.7224V11.992H85.5624V14.184H87.7064V15.672H85.5624ZM88.7795 18.584C88.7795 17.6773 88.9608 16.8827 89.3235 16.2C89.6968 15.5067 90.2088 14.9733 90.8595 14.6C91.5102 14.2267 92.2568 14.04 93.0995 14.04C94.1662 14.04 95.0462 14.296 95.7395 14.808C96.4435 15.3093 96.9182 16.0293 97.1635 16.968H95.1955C95.0355 16.5307 94.7795 16.1893 94.4275 15.944C94.0755 15.6987 93.6328 15.576 93.0995 15.576C92.3528 15.576 91.7555 15.8427 91.3075 16.376C90.8702 16.8987 90.6515 17.6347 90.6515 18.584C90.6515 19.5333 90.8702 20.2747 91.3075 20.808C91.7555 21.3413 92.3528 21.608 93.0995 21.608C94.1555 21.608 94.8542 21.144 95.1955 20.216H97.1635C96.9075 21.112 96.4275 21.8267 95.7235 22.36C95.0195 22.8827 94.1448 23.144 93.0995 23.144C92.2568 23.144 91.5102 22.9573 90.8595 22.584C90.2088 22.2 89.6968 21.6667 89.3235 20.984C88.9608 20.2907 88.7795 19.4907 88.7795 18.584ZM103.541 14.04C104.213 14.04 104.811 14.184 105.333 14.472C105.867 14.76 106.283 15.1867 106.581 15.752C106.891 16.3173 107.045 17 107.045 17.8V23H105.237V18.072C105.237 17.2827 105.04 16.68 104.645 16.264C104.251 15.8373 103.712 15.624 103.029 15.624C102.347 15.624 101.803 15.8373 101.397 16.264C101.003 16.68 100.805 17.2827 100.805 18.072V23H98.9813V11.16H100.805V15.208C101.115 14.8347 101.504 14.5467 101.973 14.344C102.453 14.1413 102.976 14.04 103.541 14.04ZM114.444 23.112C113.409 23.112 112.455 22.872 111.58 22.392C110.716 21.9013 110.028 21.224 109.516 20.36C109.015 19.4853 108.764 18.504 108.764 17.416C108.764 16.328 109.015 15.352 109.516 14.488C110.028 13.624 110.716 12.952 111.58 12.472C112.455 11.9813 113.409 11.736 114.444 11.736C115.489 11.736 116.444 11.9813 117.308 12.472C118.183 12.952 118.871 13.624 119.372 14.488C119.873 15.352 120.124 16.328 120.124 17.416C120.124 18.504 119.873 19.4853 119.372 20.36C118.871 21.224 118.183 21.9013 117.308 22.392C116.444 22.872 115.489 23.112 114.444 23.112ZM114.444 21.528C115.18 21.528 115.836 21.3627 116.412 21.032C116.988 20.6907 117.436 20.2107 117.756 19.592C118.087 18.9627 118.252 18.2373 118.252 17.416C118.252 16.5947 118.087 15.8747 117.756 15.256C117.436 14.6373 116.988 14.1627 116.412 13.832C115.836 13.5013 115.18 13.336 114.444 13.336C113.708 13.336 113.052 13.5013 112.476 13.832C111.9 14.1627 111.447 14.6373 111.116 15.256C110.796 15.8747 110.636 16.5947 110.636 17.416C110.636 18.2373 110.796 18.9627 111.116 19.592C111.447 20.2107 111.9 20.6907 112.476 21.032C113.052 21.3627 113.708 21.528 114.444 21.528ZM125.583 23.112C124.836 23.112 124.164 22.984 123.567 22.728C122.969 22.4613 122.5 22.088 122.159 21.608C121.817 21.128 121.647 20.568 121.647 19.928H123.599C123.641 20.408 123.828 20.8027 124.159 21.112C124.5 21.4213 124.975 21.576 125.583 21.576C126.212 21.576 126.703 21.4267 127.055 21.128C127.407 20.8187 127.583 20.424 127.583 19.944C127.583 19.5707 127.471 19.2667 127.247 19.032C127.033 18.7973 126.761 18.616 126.431 18.488C126.111 18.36 125.663 18.2213 125.087 18.072C124.361 17.88 123.769 17.688 123.311 17.496C122.863 17.2933 122.479 16.984 122.159 16.568C121.839 16.152 121.679 15.5973 121.679 14.904C121.679 14.264 121.839 13.704 122.159 13.224C122.479 12.744 122.927 12.376 123.503 12.12C124.079 11.864 124.745 11.736 125.503 11.736C126.58 11.736 127.46 12.008 128.143 12.552C128.836 13.0853 129.22 13.8213 129.295 14.76H127.279C127.247 14.3547 127.055 14.008 126.703 13.72C126.351 13.432 125.887 13.288 125.311 13.288C124.788 13.288 124.361 13.4213 124.031 13.688C123.7 13.9547 123.535 14.3387 123.535 14.84C123.535 15.1813 123.636 15.464 123.839 15.688C124.052 15.9013 124.319 16.072 124.639 16.2C124.959 16.328 125.396 16.4667 125.951 16.616C126.687 16.8187 127.284 17.0213 127.743 17.224C128.212 17.4267 128.607 17.7413 128.927 18.168C129.257 18.584 129.423 19.144 129.423 19.848C129.423 20.4133 129.268 20.9467 128.959 21.448C128.66 21.9493 128.217 22.3547 127.631 22.664C127.055 22.9627 126.372 23.112 125.583 23.112ZM52.976 39L50.416 34.552H49.024V39H47.2V27.88H51.04C51.8933 27.88 52.6133 28.0293 53.2 28.328C53.7973 28.6267 54.24 29.0267 54.528 29.528C54.8267 30.0293 54.976 30.5893 54.976 31.208C54.976 31.9333 54.7627 32.5947 54.336 33.192C53.92 33.7787 53.2747 34.1787 52.4 34.392L55.152 39H52.976ZM49.024 33.096H51.04C51.7227 33.096 52.2347 32.9253 52.576 32.584C52.928 32.2427 53.104 31.784 53.104 31.208C53.104 30.632 52.9333 30.184 52.592 29.864C52.2507 29.5333 51.7333 29.368 51.04 29.368H49.024V33.096ZM65.3894 34.376C65.3894 34.7067 65.368 35.0053 65.3254 35.272H58.5894C58.6427 35.976 58.904 36.5413 59.3734 36.968C59.8427 37.3947 60.4187 37.608 61.1014 37.608C62.0827 37.608 62.776 37.1973 63.1814 36.376H65.1494C64.8827 37.1867 64.3974 37.8533 63.6934 38.376C63 38.888 62.136 39.144 61.1014 39.144C60.2587 39.144 59.5014 38.9573 58.8294 38.584C58.168 38.2 57.6454 37.6667 57.2614 36.984C56.888 36.2907 56.7014 35.4907 56.7014 34.584C56.7014 33.6773 56.8827 32.8827 57.2454 32.2C57.6187 31.5067 58.136 30.9733 58.7974 30.6C59.4694 30.2267 60.2374 30.04 61.1014 30.04C61.9334 30.04 62.6747 30.2213 63.3254 30.584C63.976 30.9467 64.4827 31.4587 64.8454 32.12C65.208 32.7707 65.3894 33.5227 65.3894 34.376ZM63.4854 33.8C63.4747 33.128 63.2347 32.5893 62.7654 32.184C62.296 31.7787 61.7147 31.576 61.0214 31.576C60.392 31.576 59.8534 31.7787 59.4054 32.184C58.9574 32.5787 58.6907 33.1173 58.6054 33.8H63.4854ZM66.5764 34.584C66.5764 33.6773 66.7577 32.8827 67.1204 32.2C67.4937 31.5067 68.0057 30.9733 68.6564 30.6C69.307 30.2267 70.0537 30.04 70.8964 30.04C71.963 30.04 72.843 30.296 73.5364 30.808C74.2404 31.3093 74.715 32.0293 74.9604 32.968H72.9924C72.8324 32.5307 72.5764 32.1893 72.2244 31.944C71.8724 31.6987 71.4297 31.576 70.8964 31.576C70.1497 31.576 69.5524 31.8427 69.1044 32.376C68.667 32.8987 68.4484 33.6347 68.4484 34.584C68.4484 35.5333 68.667 36.2747 69.1044 36.808C69.5524 37.3413 70.1497 37.608 70.8964 37.608C71.9524 37.608 72.651 37.144 72.9924 36.216H74.9604C74.7044 37.112 74.2244 37.8267 73.5204 38.36C72.8164 38.8827 71.9417 39.144 70.8964 39.144C70.0537 39.144 69.307 38.9573 68.6564 38.584C68.0057 38.2 67.4937 37.6667 67.1204 36.984C66.7577 36.2907 66.5764 35.4907 66.5764 34.584ZM80.6021 39.144C79.7701 39.144 79.0181 38.9573 78.3461 38.584C77.6741 38.2 77.1461 37.6667 76.7621 36.984C76.3781 36.2907 76.1861 35.4907 76.1861 34.584C76.1861 33.688 76.3835 32.8933 76.7781 32.2C77.1728 31.5067 77.7115 30.9733 78.3941 30.6C79.0768 30.2267 79.8395 30.04 80.6821 30.04C81.5248 30.04 82.2875 30.2267 82.9701 30.6C83.6528 30.9733 84.1915 31.5067 84.5861 32.2C84.9808 32.8933 85.1781 33.688 85.1781 34.584C85.1781 35.48 84.9755 36.2747 84.5701 36.968C84.1648 37.6613 83.6101 38.2 82.9061 38.584C82.2128 38.9573 81.4448 39.144 80.6021 39.144ZM80.6021 37.56C81.0715 37.56 81.5088 37.448 81.9141 37.224C82.3301 37 82.6661 36.664 82.9221 36.216C83.1781 35.768 83.3061 35.224 83.3061 34.584C83.3061 33.944 83.1835 33.4053 82.9381 32.968C82.6928 32.52 82.3675 32.184 81.9621 31.96C81.5568 31.736 81.1195 31.624 80.6501 31.624C80.1808 31.624 79.7435 31.736 79.3381 31.96C78.9435 32.184 78.6288 32.52 78.3941 32.968C78.1595 33.4053 78.0421 33.944 78.0421 34.584C78.0421 35.5333 78.2821 36.2693 78.7621 36.792C79.2528 37.304 79.8661 37.56 80.6021 37.56ZM90.3893 37.368L92.8853 30.184H94.8212L91.4613 39H89.2853L85.9413 30.184H87.8932L90.3893 37.368ZM104.28 34.376C104.28 34.7067 104.259 35.0053 104.216 35.272H97.48C97.5333 35.976 97.7947 36.5413 98.264 36.968C98.7333 37.3947 99.3093 37.608 99.992 37.608C100.973 37.608 101.667 37.1973 102.072 36.376H104.04C103.773 37.1867 103.288 37.8533 102.584 38.376C101.891 38.888 101.027 39.144 99.992 39.144C99.1493 39.144 98.392 38.9573 97.72 38.584C97.0587 38.2 96.536 37.6667 96.152 36.984C95.7787 36.2907 95.592 35.4907 95.592 34.584C95.592 33.6773 95.7733 32.8827 96.136 32.2C96.5093 31.5067 97.0267 30.9733 97.688 30.6C98.36 30.2267 99.128 30.04 99.992 30.04C100.824 30.04 101.565 30.2213 102.216 30.584C102.867 30.9467 103.373 31.4587 103.736 32.12C104.099 32.7707 104.28 33.5227 104.28 34.376ZM102.376 33.8C102.365 33.128 102.125 32.5893 101.656 32.184C101.187 31.7787 100.605 31.576 99.912 31.576C99.2827 31.576 98.744 31.7787 98.296 32.184C97.848 32.5787 97.5813 33.1173 97.496 33.8H102.376ZM107.899 31.464C108.166 31.016 108.518 30.6693 108.955 30.424C109.403 30.168 109.931 30.04 110.539 30.04V31.928H110.075C109.36 31.928 108.816 32.1093 108.443 32.472C108.08 32.8347 107.899 33.464 107.899 34.36V39H106.075V30.184H107.899V31.464ZM120.152 30.184L114.744 43.144H112.856L114.648 38.856L111.176 30.184H113.208L115.688 36.904L118.264 30.184H120.152Z"></path>
<path fill="white" d="M24.728 32.3162C24.592 32.7246 24.21 33 23.779 33H22.221C21.79 33 21.408 32.7246 21.272 32.3162L20.5 30H25.5L24.728 32.3162Z"></path>
<path fill="white" d="M15.7958 22.8569C15.5068 22.5349 15.4578 22.0635 15.6738 21.6888L16.4168 20.4016C16.6338 20.0268 17.0668 19.8337 17.4898 19.9231L19.8678 20.4253L17.4198 24.665L15.7958 22.8569Z"></path>
<path fill="white" d="M30.2001 27.1617C30.4861 27.4838 30.5331 27.9524 30.3181 28.3252L29.5391 29.6749C29.3231 30.0476 28.8941 30.2409 28.4721 30.1546L26.0801 29.6651L28.5801 25.335L30.2001 27.1617Z"></path>
<path fill="white" d="M28.5098 19.9228C28.9328 19.8334 29.3658 20.0265 29.5818 20.4012L30.3258 21.6887C30.5418 22.0635 30.4928 22.5349 30.2038 22.8569L28.5798 24.6651L26.1318 20.4249L28.5098 19.9228Z"></path>
<path fill="white" d="M17.528 30.1546C17.106 30.2409 16.677 30.0477 16.461 29.6749L15.6821 28.3252C15.4671 27.9525 15.5141 27.4838 15.8001 27.1618L17.42 25.335L19.92 29.6651L17.528 30.1546Z"></path>
<path fill="white" d="M25.25 21.103C25.664 20.3855 26.6 20.1289 27.192 20.7077C27.769 21.2714 28.231 21.9493 28.543 22.704C29.049 23.9243 29.137 25.2772 28.796 26.553C28.454 27.8288 27.7 28.9562 26.653 29.7602C25.605 30.5643 24.321 31.0001 23 31.0001C21.679 31.0001 20.395 30.5643 19.347 29.7602C18.3 28.9562 17.546 27.8288 17.204 26.553C16.863 25.2772 16.951 23.9243 17.457 22.704C17.769 21.9493 18.231 21.2714 18.808 20.7077C19.4 20.1289 20.336 20.3855 20.75 21.103C21.164 21.8204 20.869 22.7318 20.438 23.4392C20.358 23.5706 20.288 23.7085 20.228 23.8521C19.976 24.4622 19.931 25.1387 20.102 25.7766C20.273 26.4145 20.65 26.9781 21.174 27.3802C21.698 27.7822 22.34 28.0001 23 28.0001C23.66 28.0001 24.302 27.7822 24.826 27.3802C25.35 26.9781 25.727 26.4145 25.898 25.7766C26.069 25.1387 26.024 24.4622 25.772 23.852C25.712 23.7085 25.642 23.5706 25.562 23.4392C25.131 22.7318 24.836 21.8204 25.25 21.103Z"></path>
<path fill="white" d="M24 25C24 24.4477 23.5523 24 23 24C22.4477 24 22 24.4477 22 25C22 25.5523 22.4477 26 23 26C23.5523 26 24 25.5523 24 25Z"></path>
<path fill="white" d="M24 18C24 17.4477 23.5523 17 23 17C22.4477 17 22 17.4477 22 18V22C22 22.5523 22.4477 23 23 23C23.5523 23 24 22.5523 24 22V18Z"></path>
<path fill="white" d="M178.384 19.88V21.368H175.424V31H173.6V21.368H170.624V19.88H178.384ZM182.055 23.464C182.322 23.016 182.674 22.6693 183.111 22.424C183.559 22.168 184.087 22.04 184.695 22.04V23.928H184.231C183.517 23.928 182.973 24.1093 182.599 24.472C182.237 24.8347 182.055 25.464 182.055 26.36V31H180.231V22.184H182.055V23.464ZM190.196 31.144C189.364 31.144 188.612 30.9573 187.94 30.584C187.268 30.2 186.74 29.6667 186.356 28.984C185.972 28.2907 185.78 27.4907 185.78 26.584C185.78 25.688 185.977 24.8933 186.372 24.2C186.767 23.5067 187.305 22.9733 187.988 22.6C188.671 22.2267 189.433 22.04 190.276 22.04C191.119 22.04 191.881 22.2267 192.564 22.6C193.247 22.9733 193.785 23.5067 194.18 24.2C194.575 24.8933 194.772 25.688 194.772 26.584C194.772 27.48 194.569 28.2747 194.164 28.968C193.759 29.6613 193.204 30.2 192.5 30.584C191.807 30.9573 191.039 31.144 190.196 31.144ZM190.196 29.56C190.665 29.56 191.103 29.448 191.508 29.224C191.924 29 192.26 28.664 192.516 28.216C192.772 27.768 192.9 27.224 192.9 26.584C192.9 25.944 192.777 25.4053 192.532 24.968C192.287 24.52 191.961 24.184 191.556 23.96C191.151 23.736 190.713 23.624 190.244 23.624C189.775 23.624 189.337 23.736 188.932 23.96C188.537 24.184 188.223 24.52 187.988 24.968C187.753 25.4053 187.636 25.944 187.636 26.584C187.636 27.5333 187.876 28.2693 188.356 28.792C188.847 29.304 189.46 29.56 190.196 29.56ZM204.559 22.184V31H202.735V29.96C202.447 30.3227 202.068 30.6107 201.599 30.824C201.14 31.0267 200.65 31.128 200.127 31.128C199.434 31.128 198.81 30.984 198.255 30.696C197.711 30.408 197.279 29.9813 196.959 29.416C196.65 28.8507 196.495 28.168 196.495 27.368V22.184H198.303V27.096C198.303 27.8853 198.5 28.4933 198.895 28.92C199.29 29.336 199.828 29.544 200.511 29.544C201.194 29.544 201.732 29.336 202.127 28.92C202.532 28.4933 202.735 27.8853 202.735 27.096V22.184H204.559ZM208.79 23.496C209.099 23.0693 209.52 22.7227 210.054 22.456C210.598 22.1787 211.2 22.04 211.862 22.04C212.64 22.04 213.344 22.2267 213.974 22.6C214.603 22.9733 215.099 23.5067 215.462 24.2C215.824 24.8827 216.006 25.6667 216.006 26.552C216.006 27.4373 215.824 28.232 215.462 28.936C215.099 29.6293 214.598 30.1733 213.958 30.568C213.328 30.952 212.63 31.144 211.862 31.144C211.179 31.144 210.571 31.0107 210.038 30.744C209.515 30.4773 209.099 30.136 208.79 29.72V31H206.966V19.16H208.79V23.496ZM214.15 26.552C214.15 25.944 214.022 25.4213 213.766 24.984C213.52 24.536 213.19 24.2 212.774 23.976C212.368 23.7413 211.931 23.624 211.462 23.624C211.003 23.624 210.566 23.7413 210.15 23.976C209.744 24.2107 209.414 24.552 209.158 25C208.912 25.448 208.79 25.976 208.79 26.584C208.79 27.192 208.912 27.7253 209.158 28.184C209.414 28.632 209.744 28.9733 210.15 29.208C210.566 29.4427 211.003 29.56 211.462 29.56C211.931 29.56 212.368 29.4427 212.774 29.208C213.19 28.9627 213.52 28.6107 213.766 28.152C214.022 27.6933 214.15 27.16 214.15 26.552ZM219.633 19.16V31H217.809V19.16H219.633ZM230.108 26.376C230.108 26.7067 230.087 27.0053 230.044 27.272H223.308C223.361 27.976 223.623 28.5413 224.092 28.968C224.561 29.3947 225.137 29.608 225.82 29.608C226.801 29.608 227.495 29.1973 227.9 28.376H229.868C229.601 29.1867 229.116 29.8533 228.412 30.376C227.719 30.888 226.855 31.144 225.82 31.144C224.977 31.144 224.22 30.9573 223.548 30.584C222.887 30.2 222.364 29.6667 221.98 28.984C221.607 28.2907 221.42 27.4907 221.42 26.584C221.42 25.6773 221.601 24.8827 221.964 24.2C222.337 23.5067 222.855 22.9733 223.516 22.6C224.188 22.2267 224.956 22.04 225.82 22.04C226.652 22.04 227.393 22.2213 228.044 22.584C228.695 22.9467 229.201 23.4587 229.564 24.12C229.927 24.7707 230.108 25.5227 230.108 26.376ZM228.204 25.8C228.193 25.128 227.953 24.5893 227.484 24.184C227.015 23.7787 226.433 23.576 225.74 23.576C225.111 23.576 224.572 23.7787 224.124 24.184C223.676 24.5787 223.409 25.1173 223.324 25.8H228.204ZM235.103 31.144C234.41 31.144 233.786 31.0213 233.231 30.776C232.687 30.52 232.255 30.1787 231.935 29.752C231.615 29.3147 231.444 28.8293 231.423 28.296H233.311C233.343 28.6693 233.519 28.984 233.839 29.24C234.17 29.4853 234.58 29.608 235.071 29.608C235.583 29.608 235.978 29.512 236.255 29.32C236.543 29.1173 236.687 28.8613 236.687 28.552C236.687 28.2213 236.527 27.976 236.207 27.816C235.898 27.656 235.402 27.48 234.719 27.288C234.058 27.1067 233.519 26.9307 233.103 26.76C232.687 26.5893 232.324 26.328 232.015 25.976C231.716 25.624 231.567 25.16 231.567 24.584C231.567 24.1147 231.706 23.688 231.983 23.304C232.26 22.9093 232.655 22.6 233.167 22.376C233.69 22.152 234.287 22.04 234.959 22.04C235.962 22.04 236.767 22.296 237.375 22.808C237.994 23.3093 238.324 23.9973 238.367 24.872H236.543C236.511 24.4773 236.351 24.1627 236.063 23.928C235.775 23.6933 235.386 23.576 234.895 23.576C234.415 23.576 234.047 23.6667 233.791 23.848C233.535 24.0293 233.407 24.2693 233.407 24.568C233.407 24.8027 233.492 25 233.663 25.16C233.834 25.32 234.042 25.448 234.287 25.544C234.532 25.6293 234.895 25.7413 235.375 25.88C236.015 26.0507 236.538 26.2267 236.943 26.408C237.359 26.5787 237.716 26.8347 238.015 27.176C238.314 27.5173 238.468 27.9707 238.479 28.536C238.479 29.0373 238.34 29.4853 238.063 29.88C237.786 30.2747 237.391 30.584 236.879 30.808C236.378 31.032 235.786 31.144 235.103 31.144ZM245.01 22.04C245.682 22.04 246.279 22.184 246.802 22.472C247.335 22.76 247.751 23.1867 248.05 23.752C248.359 24.3173 248.514 25 248.514 25.8V31H246.706V26.072C246.706 25.2827 246.509 24.68 246.114 24.264C245.719 23.8373 245.181 23.624 244.498 23.624C243.815 23.624 243.271 23.8373 242.866 24.264C242.471 24.68 242.274 25.2827 242.274 26.072V31H240.45V19.16H242.274V23.208C242.583 22.8347 242.973 22.5467 243.442 22.344C243.922 22.1413 244.445 22.04 245.01 22.04ZM254.665 31.144C253.833 31.144 253.081 30.9573 252.409 30.584C251.737 30.2 251.209 29.6667 250.825 28.984C250.441 28.2907 250.249 27.4907 250.249 26.584C250.249 25.688 250.446 24.8933 250.841 24.2C251.235 23.5067 251.774 22.9733 252.457 22.6C253.139 22.2267 253.902 22.04 254.745 22.04C255.587 22.04 256.35 22.2267 257.033 22.6C257.715 22.9733 258.254 23.5067 258.649 24.2C259.043 24.8933 259.241 25.688 259.241 26.584C259.241 27.48 259.038 28.2747 258.633 28.968C258.227 29.6613 257.673 30.2 256.969 30.584C256.275 30.9573 255.507 31.144 254.665 31.144ZM254.665 29.56C255.134 29.56 255.571 29.448 255.977 29.224C256.393 29 256.729 28.664 256.985 28.216C257.241 27.768 257.369 27.224 257.369 26.584C257.369 25.944 257.246 25.4053 257.001 24.968C256.755 24.52 256.43 24.184 256.025 23.96C255.619 23.736 255.182 23.624 254.713 23.624C254.243 23.624 253.806 23.736 253.401 23.96C253.006 24.184 252.691 24.52 252.457 24.968C252.222 25.4053 252.105 25.944 252.105 26.584C252.105 27.5333 252.345 28.2693 252.825 28.792C253.315 29.304 253.929 29.56 254.665 29.56ZM264.868 31.144C264.036 31.144 263.284 30.9573 262.612 30.584C261.94 30.2 261.412 29.6667 261.028 28.984C260.644 28.2907 260.452 27.4907 260.452 26.584C260.452 25.688 260.649 24.8933 261.044 24.2C261.438 23.5067 261.977 22.9733 262.66 22.6C263.342 22.2267 264.105 22.04 264.948 22.04C265.79 22.04 266.553 22.2267 267.236 22.6C267.918 22.9733 268.457 23.5067 268.852 24.2C269.246 24.8933 269.444 25.688 269.444 26.584C269.444 27.48 269.241 28.2747 268.836 28.968C268.43 29.6613 267.876 30.2 267.172 30.584C266.478 30.9573 265.71 31.144 264.868 31.144ZM264.868 29.56C265.337 29.56 265.774 29.448 266.18 29.224C266.596 29 266.932 28.664 267.188 28.216C267.444 27.768 267.572 27.224 267.572 26.584C267.572 25.944 267.449 25.4053 267.204 24.968C266.958 24.52 266.633 24.184 266.228 23.96C265.822 23.736 265.385 23.624 264.916 23.624C264.446 23.624 264.009 23.736 263.604 23.96C263.209 24.184 262.894 24.52 262.66 24.968C262.425 25.4053 262.308 25.944 262.308 26.584C262.308 27.5333 262.548 28.2693 263.028 28.792C263.518 29.304 264.132 29.56 264.868 29.56ZM273.375 23.672V28.552C273.375 28.8827 273.45 29.1227 273.599 29.272C273.759 29.4107 274.026 29.48 274.399 29.48H275.519V31H274.079C273.258 31 272.628 30.808 272.191 30.424C271.754 30.04 271.535 29.416 271.535 28.552V23.672H270.495V22.184H271.535V19.992H273.375V22.184H275.519V23.672H273.375Z"></path>
<rect fill="black" height="260" width="330" y="50" x="150"></rect>
<path fill="white" d="M36.288 60.66V61.776H34.068V69H32.7V61.776H30.468V60.66H36.288ZM39.0414 63.348C39.2414 63.012 39.5054 62.752 39.8334 62.568C40.1694 62.376 40.5654 62.28 41.0214 62.28V63.696H40.6734C40.1374 63.696 39.7294 63.832 39.4494 64.104C39.1774 64.376 39.0414 64.848 39.0414 65.52V69H37.6734V62.388H39.0414V63.348ZM45.1469 69.108C44.5229 69.108 43.9589 68.968 43.4549 68.688C42.9509 68.4 42.5549 68 42.2669 67.488C41.9789 66.968 41.8349 66.368 41.8349 65.688C41.8349 65.016 41.9829 64.42 42.2789 63.9C42.5749 63.38 42.9789 62.98 43.4909 62.7C44.0029 62.42 44.5749 62.28 45.2069 62.28C45.8389 62.28 46.4109 62.42 46.9229 62.7C47.4349 62.98 47.8389 63.38 48.1349 63.9C48.4309 64.42 48.5789 65.016 48.5789 65.688C48.5789 66.36 48.4269 66.956 48.1229 67.476C47.8189 67.996 47.4029 68.4 46.8749 68.688C46.3549 68.968 45.7789 69.108 45.1469 69.108ZM45.1469 67.92C45.4989 67.92 45.8269 67.836 46.1309 67.668C46.4429 67.5 46.6949 67.248 46.8869 66.912C47.0789 66.576 47.1749 66.168 47.1749 65.688C47.1749 65.208 47.0829 64.804 46.8989 64.476C46.7149 64.14 46.4709 63.888 46.1669 63.72C45.8629 63.552 45.5349 63.468 45.1829 63.468C44.8309 63.468 44.5029 63.552 44.1989 63.72C43.9029 63.888 43.6669 64.14 43.4909 64.476C43.3149 64.804 43.2269 65.208 43.2269 65.688C43.2269 66.4 43.4069 66.952 43.7669 67.344C44.1349 67.728 44.5949 67.92 45.1469 67.92ZM55.9193 62.388V69H54.5513V68.22C54.3353 68.492 54.0513 68.708 53.6993 68.868C53.3553 69.02 52.9873 69.096 52.5953 69.096C52.0753 69.096 51.6073 68.988 51.1913 68.772C50.7833 68.556 50.4593 68.236 50.2193 67.812C49.9873 67.388 49.8713 66.876 49.8713 66.276V62.388H51.2273V66.072C51.2273 66.664 51.3753 67.12 51.6713 67.44C51.9673 67.752 52.3713 67.908 52.8833 67.908C53.3953 67.908 53.7993 67.752 54.0953 67.44C54.3993 67.12 54.5513 66.664 54.5513 66.072V62.388H55.9193ZM59.0922 63.372C59.3242 63.052 59.6402 62.792 60.0402 62.592C60.4482 62.384 60.9002 62.28 61.3962 62.28C61.9802 62.28 62.5082 62.42 62.9802 62.7C63.4522 62.98 63.8242 63.38 64.0962 63.9C64.3682 64.412 64.5042 65 64.5042 65.664C64.5042 66.328 64.3682 66.924 64.0962 67.452C63.8242 67.972 63.4482 68.38 62.9682 68.676C62.4962 68.964 61.9722 69.108 61.3962 69.108C60.8842 69.108 60.4282 69.008 60.0282 68.808C59.6362 68.608 59.3242 68.352 59.0922 68.04V69H57.7242V60.12H59.0922V63.372ZM63.1122 65.664C63.1122 65.208 63.0162 64.816 62.8242 64.488C62.6402 64.152 62.3922 63.9 62.0802 63.732C61.7762 63.556 61.4482 63.468 61.0962 63.468C60.7522 63.468 60.4242 63.556 60.1122 63.732C59.8082 63.908 59.5602 64.164 59.3682 64.5C59.1842 64.836 59.0922 65.232 59.0922 65.688C59.0922 66.144 59.1842 66.544 59.3682 66.888C59.5602 67.224 59.8082 67.48 60.1122 67.656C60.4242 67.832 60.7522 67.92 61.0962 67.92C61.4482 67.92 61.7762 67.832 62.0802 67.656C62.3922 67.472 62.6402 67.208 62.8242 66.864C63.0162 66.52 63.1122 66.12 63.1122 65.664ZM67.225 60.12V69H65.857V60.12H67.225ZM75.0811 65.532C75.0811 65.78 75.0651 66.004 75.0331 66.204H69.9811C70.0211 66.732 70.2171 67.156 70.5691 67.476C70.9211 67.796 71.3531 67.956 71.8651 67.956C72.6011 67.956 73.1211 67.648 73.4251 67.032H74.9011C74.7011 67.64 74.3371 68.14 73.8091 68.532C73.2891 68.916 72.6411 69.108 71.8651 69.108C71.2331 69.108 70.6651 68.968 70.1611 68.688C69.6651 68.4 69.2731 68 68.9851 67.488C68.7051 66.968 68.5651 66.368 68.5651 65.688C68.5651 65.008 68.7011 64.412 68.9731 63.9C69.2531 63.38 69.6411 62.98 70.1371 62.7C70.6411 62.42 71.2171 62.28 71.8651 62.28C72.4891 62.28 73.0451 62.416 73.5331 62.688C74.0211 62.96 74.4011 63.344 74.6731 63.84C74.9451 64.328 75.0811 64.892 75.0811 65.532ZM73.6531 65.1C73.6451 64.596 73.4651 64.192 73.1131 63.888C72.7611 63.584 72.3251 63.432 71.8051 63.432C71.3331 63.432 70.9291 63.584 70.5931 63.888C70.2571 64.184 70.0571 64.588 69.9931 65.1H73.6531ZM78.8273 69.108C78.3073 69.108 77.8393 69.016 77.4233 68.832C77.0153 68.64 76.6913 68.384 76.4513 68.064C76.2113 67.736 76.0833 67.372 76.0673 66.972H77.4833C77.5073 67.252 77.6393 67.488 77.8793 67.68C78.1273 67.864 78.4353 67.956 78.8033 67.956C79.1873 67.956 79.4833 67.884 79.6913 67.74C79.9073 67.588 80.0153 67.396 80.0153 67.164C80.0153 66.916 79.8953 66.732 79.6553 66.612C79.4233 66.492 79.0513 66.36 78.5393 66.216C78.0433 66.08 77.6393 65.948 77.3273 65.82C77.0153 65.692 76.7433 65.496 76.5113 65.232C76.2873 64.968 76.1753 64.62 76.1753 64.188C76.1753 63.836 76.2793 63.516 76.4873 63.228C76.6953 62.932 76.9913 62.7 77.3753 62.532C77.7673 62.364 78.2153 62.28 78.7193 62.28C79.4713 62.28 80.0753 62.472 80.5313 62.856C80.9953 63.232 81.2433 63.748 81.2753 64.404H79.9073C79.8833 64.108 79.7633 63.872 79.5473 63.696C79.3313 63.52 79.0393 63.432 78.6713 63.432C78.3113 63.432 78.0353 63.5 77.8433 63.636C77.6513 63.772 77.5553 63.952 77.5553 64.176C77.5553 64.352 77.6193 64.5 77.7473 64.62C77.8753 64.74 78.0313 64.836 78.2153 64.908C78.3993 64.972 78.6713 65.056 79.0313 65.16C79.5113 65.288 79.9033 65.42 80.2073 65.556C80.5193 65.684 80.7873 65.876 81.0113 66.132C81.2353 66.388 81.3513 66.728 81.3593 67.152C81.3593 67.528 81.2553 67.864 81.0473 68.16C80.8393 68.456 80.5433 68.688 80.1593 68.856C79.7833 69.024 79.3393 69.108 78.8273 69.108ZM86.2575 62.28C86.7615 62.28 87.2095 62.388 87.6015 62.604C88.0015 62.82 88.3135 63.14 88.5375 63.564C88.7695 63.988 88.8855 64.5 88.8855 65.1V69H87.5295V65.304C87.5295 64.712 87.3815 64.26 87.0855 63.948C86.7895 63.628 86.3855 63.468 85.8735 63.468C85.3615 63.468 84.9535 63.628 84.6495 63.948C84.3535 64.26 84.2055 64.712 84.2055 65.304V69H82.8375V60.12H84.2055V63.156C84.4375 62.876 84.7295 62.66 85.0815 62.508C85.4415 62.356 85.8335 62.28 86.2575 62.28ZM93.4985 69.108C92.8745 69.108 92.3105 68.968 91.8065 68.688C91.3025 68.4 90.9065 68 90.6185 67.488C90.3305 66.968 90.1865 66.368 90.1865 65.688C90.1865 65.016 90.3345 64.42 90.6305 63.9C90.9265 63.38 91.3305 62.98 91.8425 62.7C92.3545 62.42 92.9265 62.28 93.5585 62.28C94.1905 62.28 94.7625 62.42 95.2745 62.7C95.7865 62.98 96.1905 63.38 96.4865 63.9C96.7825 64.42 96.9305 65.016 96.9305 65.688C96.9305 66.36 96.7785 66.956 96.4745 67.476C96.1705 67.996 95.7545 68.4 95.2265 68.688C94.7065 68.968 94.1305 69.108 93.4985 69.108ZM93.4985 67.92C93.8505 67.92 94.1785 67.836 94.4825 67.668C94.7945 67.5 95.0465 67.248 95.2385 66.912C95.4305 66.576 95.5265 66.168 95.5265 65.688C95.5265 65.208 95.4345 64.804 95.2505 64.476C95.0665 64.14 94.8225 63.888 94.5185 63.72C94.2145 63.552 93.8865 63.468 93.5345 63.468C93.1825 63.468 92.8545 63.552 92.5505 63.72C92.2545 63.888 92.0185 64.14 91.8425 64.476C91.6665 64.804 91.5785 65.208 91.5785 65.688C91.5785 66.4 91.7585 66.952 92.1185 67.344C92.4865 67.728 92.9465 67.92 93.4985 67.92ZM101.151 69.108C100.527 69.108 99.9628 68.968 99.4588 68.688C98.9548 68.4 98.5588 68 98.2708 67.488C97.9828 66.968 97.8388 66.368 97.8388 65.688C97.8388 65.016 97.9868 64.42 98.2828 63.9C98.5788 63.38 98.9828 62.98 99.4948 62.7C100.007 62.42 100.579 62.28 101.211 62.28C101.843 62.28 102.415 62.42 102.927 62.7C103.439 62.98 103.843 63.38 104.139 63.9C104.435 64.42 104.583 65.016 104.583 65.688C104.583 66.36 104.431 66.956 104.127 67.476C103.823 67.996 103.407 68.4 102.879 68.688C102.359 68.968 101.783 69.108 101.151 69.108ZM101.151 67.92C101.503 67.92 101.831 67.836 102.135 67.668C102.447 67.5 102.699 67.248 102.891 66.912C103.083 66.576 103.179 66.168 103.179 65.688C103.179 65.208 103.087 64.804 102.903 64.476C102.719 64.14 102.475 63.888 102.171 63.72C101.867 63.552 101.539 63.468 101.187 63.468C100.835 63.468 100.507 63.552 100.203 63.72C99.9068 63.888 99.6708 64.14 99.4948 64.476C99.3188 64.804 99.2308 65.208 99.2308 65.688C99.2308 66.4 99.4108 66.952 99.7708 67.344C100.139 67.728 100.599 67.92 101.151 67.92ZM107.531 63.504V67.164C107.531 67.412 107.587 67.592 107.699 67.704C107.819 67.808 108.019 67.86 108.299 67.86H109.139V69H108.059C107.443 69 106.971 68.856 106.643 68.568C106.315 68.28 106.151 67.812 106.151 67.164V63.504H105.371V62.388H106.151V60.744H107.531V62.388H109.139V63.504H107.531Z"></path>
<path fill="white" d="M10 61C10 60.4477 10.4477 60 11 60H21C21.5523 60 22 60.4477 22 61V61C22 61.5523 21.5523 62 21 62H11C10.4477 62 10 61.5523 10 61V61Z"></path>
<path fill="white" d="M10 65C10 64.4477 10.4477 64 11 64H15C15.5523 64 16 64.4477 16 65V65C16 65.5523 15.5523 66 15 66H11C10.4477 66 10 65.5523 10 65V65Z"></path>
<path fill="white" d="M10 69C10 68.4477 10.4477 68 11 68H18C18.5523 68 19 68.4477 19 69V69C19 69.5523 18.5523 70 18 70H11C10.4477 70 10 69.5523 10 69V69Z"></path>
<path fill="white" d="M32.268 121.764V124.212H35.148V125.328H32.268V127.884H35.508V129H30.9V120.648H35.508V121.764H32.268ZM40.025 125.652L42.161 129H40.613L39.185 126.756L37.841 129H36.413L38.549 125.748L36.413 122.388H37.961L39.389 124.632L40.733 122.388H42.161L40.025 125.652ZM43.8773 121.512C43.6293 121.512 43.4213 121.428 43.2533 121.26C43.0853 121.092 43.0013 120.884 43.0013 120.636C43.0013 120.388 43.0853 120.18 43.2533 120.012C43.4213 119.844 43.6293 119.76 43.8773 119.76C44.1173 119.76 44.3213 119.844 44.4893 120.012C44.6573 120.18 44.7413 120.388 44.7413 120.636C44.7413 120.884 44.6573 121.092 44.4893 121.26C44.3213 121.428 44.1173 121.512 43.8773 121.512ZM44.5493 122.388V129H43.1813V122.388H44.5493ZM47.9413 123.504V127.164C47.9413 127.412 47.9973 127.592 48.1093 127.704C48.2293 127.808 48.4293 127.86 48.7093 127.86H49.5493V129H48.4693C47.8533 129 47.3813 128.856 47.0533 128.568C46.7253 128.28 46.5613 127.812 46.5613 127.164V123.504H45.7813V122.388H46.5613V120.744H47.9413V122.388H49.5493V123.504H47.9413Z"></path>
<rect stroke-width="2" stroke="white" rx="3" height="6" width="6" y="122" x="12"></rect>
<path fill="white" d="M13.886 120.009C13.954 119.804 14.1451 119.667 14.3603 119.667H15.6395C15.8548 119.667 16.0458 119.804 16.1139 120.009L16.6666 121.667H13.3333L13.886 120.009Z"></path>
<path fill="white" d="M16.114 129.991C16.046 130.196 15.8549 130.333 15.6397 130.333L14.3605 130.333C14.1452 130.333 13.9542 130.196 13.8861 129.991L13.3334 128.333L16.6667 128.333L16.114 129.991Z"></path>
<path fill="white" d="M18.7657 121.539C18.9765 121.496 19.1913 121.593 19.2989 121.779L19.9385 122.887C20.0462 123.074 20.0224 123.308 19.8796 123.469L18.72 124.777L17.0533 121.89L18.7657 121.539Z"></path>
<path fill="white" d="M11.2343 128.461C11.0235 128.504 10.8087 128.407 10.7011 128.221L10.0615 127.113C9.95385 126.926 9.97758 126.692 10.1204 126.531L11.28 125.223L12.9467 128.11L11.2343 128.461Z"></path>
<path fill="white" d="M10.1203 123.469C9.9775 123.308 9.95377 123.074 10.0614 122.887L10.701 121.779C10.8086 121.593 11.0234 121.496 11.2342 121.54L12.9466 121.89L11.2799 124.777L10.1203 123.469Z"></path>
<path fill="white" d="M19.8797 126.531C20.0225 126.692 20.0462 126.926 19.9386 127.113L19.299 128.221C19.1914 128.407 18.9766 128.504 18.7658 128.46L17.0534 128.11L18.7201 125.223L19.8797 126.531Z"></path>
<path fill="white" d="M33.648 99.084C33.088 99.084 32.584 98.988 32.136 98.796C31.688 98.596 31.336 98.316 31.08 97.956C30.824 97.596 30.696 97.176 30.696 96.696H32.16C32.192 97.056 32.332 97.352 32.58 97.584C32.836 97.816 33.192 97.932 33.648 97.932C34.12 97.932 34.488 97.82 34.752 97.596C35.016 97.364 35.148 97.068 35.148 96.708C35.148 96.428 35.064 96.2 34.896 96.024C34.736 95.848 34.532 95.712 34.284 95.616C34.044 95.52 33.708 95.416 33.276 95.304C32.732 95.16 32.288 95.016 31.944 94.872C31.608 94.72 31.32 94.488 31.08 94.176C30.84 93.864 30.72 93.448 30.72 92.928C30.72 92.448 30.84 92.028 31.08 91.668C31.32 91.308 31.656 91.032 32.088 90.84C32.52 90.648 33.02 90.552 33.588 90.552C34.396 90.552 35.056 90.756 35.568 91.164C36.088 91.564 36.376 92.116 36.432 92.82H34.92C34.896 92.516 34.752 92.256 34.488 92.04C34.224 91.824 33.876 91.716 33.444 91.716C33.052 91.716 32.732 91.816 32.484 92.016C32.236 92.216 32.112 92.504 32.112 92.88C32.112 93.136 32.188 93.348 32.34 93.516C32.5 93.676 32.7 93.804 32.94 93.9C33.18 93.996 33.508 94.1 33.924 94.212C34.476 94.364 34.924 94.516 35.268 94.668C35.62 94.82 35.916 95.056 36.156 95.376C36.404 95.688 36.528 96.108 36.528 96.636C36.528 97.06 36.412 97.46 36.18 97.836C35.956 98.212 35.624 98.516 35.184 98.748C34.752 98.972 34.24 99.084 33.648 99.084ZM44.0942 92.388L40.0382 102.108H38.6222L39.9662 98.892L37.3622 92.388H38.8862L40.7462 97.428L42.6782 92.388H44.0942ZM47.5266 99.108C47.0066 99.108 46.5386 99.016 46.1226 98.832C45.7146 98.64 45.3906 98.384 45.1506 98.064C44.9106 97.736 44.7826 97.372 44.7666 96.972H46.1826C46.2066 97.252 46.3386 97.488 46.5786 97.68C46.8266 97.864 47.1346 97.956 47.5026 97.956C47.8866 97.956 48.1826 97.884 48.3906 97.74C48.6066 97.588 48.7146 97.396 48.7146 97.164C48.7146 96.916 48.5946 96.732 48.3546 96.612C48.1226 96.492 47.7506 96.36 47.2386 96.216C46.7426 96.08 46.3386 95.948 46.0266 95.82C45.7146 95.692 45.4426 95.496 45.2106 95.232C44.9866 94.968 44.8746 94.62 44.8746 94.188C44.8746 93.836 44.9786 93.516 45.1866 93.228C45.3946 92.932 45.6906 92.7 46.0746 92.532C46.4666 92.364 46.9146 92.28 47.4186 92.28C48.1706 92.28 48.7746 92.472 49.2306 92.856C49.6946 93.232 49.9426 93.748 49.9746 94.404H48.6066C48.5826 94.108 48.4626 93.872 48.2466 93.696C48.0306 93.52 47.7386 93.432 47.3706 93.432C47.0106 93.432 46.7346 93.5 46.5426 93.636C46.3506 93.772 46.2546 93.952 46.2546 94.176C46.2546 94.352 46.3186 94.5 46.4466 94.62C46.5746 94.74 46.7306 94.836 46.9146 94.908C47.0986 94.972 47.3706 95.056 47.7306 95.16C48.2106 95.288 48.6026 95.42 48.9066 95.556C49.2186 95.684 49.4866 95.876 49.7106 96.132C49.9346 96.388 50.0506 96.728 50.0586 97.152C50.0586 97.528 49.9546 97.864 49.7466 98.16C49.5386 98.456 49.2426 98.688 48.8586 98.856C48.4826 99.024 48.0386 99.108 47.5266 99.108ZM53.1327 93.504V97.164C53.1327 97.412 53.1887 97.592 53.3007 97.704C53.4207 97.808 53.6207 97.86 53.9007 97.86H54.7407V99H53.6607C53.0447 99 52.5727 98.856 52.2447 98.568C51.9167 98.28 51.7527 97.812 51.7527 97.164V93.504H50.9727V92.388H51.7527V90.744H53.1327V92.388H54.7407V93.504H53.1327ZM62.0616 95.532C62.0616 95.78 62.0456 96.004 62.0136 96.204H56.9616C57.0016 96.732 57.1976 97.156 57.5496 97.476C57.9016 97.796 58.3336 97.956 58.8456 97.956C59.5816 97.956 60.1016 97.648 60.4056 97.032H61.8816C61.6816 97.64 61.3176 98.14 60.7896 98.532C60.2696 98.916 59.6216 99.108 58.8456 99.108C58.2136 99.108 57.6456 98.968 57.1416 98.688C56.6456 98.4 56.2536 98 55.9656 97.488C55.6856 96.968 55.5456 96.368 55.5456 95.688C55.5456 95.008 55.6816 94.412 55.9536 93.9C56.2336 93.38 56.6216 92.98 57.1176 92.7C57.6216 92.42 58.1976 92.28 58.8456 92.28C59.4696 92.28 60.0256 92.416 60.5136 92.688C61.0016 92.96 61.3816 93.344 61.6536 93.84C61.9256 94.328 62.0616 94.892 62.0616 95.532ZM60.6336 95.1C60.6256 94.596 60.4456 94.192 60.0936 93.888C59.7416 93.584 59.3056 93.432 58.7856 93.432C58.3136 93.432 57.9096 93.584 57.5736 93.888C57.2376 94.184 57.0376 94.588 56.9736 95.1H60.6336ZM71.4118 92.28C71.9318 92.28 72.3958 92.388 72.8038 92.604C73.2198 92.82 73.5438 93.14 73.7758 93.564C74.0158 93.988 74.1358 94.5 74.1358 95.1V99H72.7798V95.304C72.7798 94.712 72.6318 94.26 72.3358 93.948C72.0398 93.628 71.6358 93.468 71.1238 93.468C70.6118 93.468 70.2038 93.628 69.8998 93.948C69.6038 94.26 69.4558 94.712 69.4558 95.304V99H68.0998V95.304C68.0998 94.712 67.9518 94.26 67.6558 93.948C67.3598 93.628 66.9558 93.468 66.4438 93.468C65.9318 93.468 65.5238 93.628 65.2198 93.948C64.9238 94.26 64.7758 94.712 64.7758 95.304V99H63.4078V92.388H64.7758V93.144C64.9998 92.872 65.2838 92.66 65.6278 92.508C65.9718 92.356 66.3398 92.28 66.7318 92.28C67.2598 92.28 67.7318 92.392 68.1478 92.616C68.5638 92.84 68.8838 93.164 69.1078 93.588C69.3078 93.188 69.6198 92.872 70.0438 92.64C70.4678 92.4 70.9238 92.28 71.4118 92.28ZM79.6898 91.512C79.4418 91.512 79.2338 91.428 79.0658 91.26C78.8978 91.092 78.8138 90.884 78.8138 90.636C78.8138 90.388 78.8978 90.18 79.0658 90.012C79.2338 89.844 79.4418 89.76 79.6898 89.76C79.9298 89.76 80.1338 89.844 80.3018 90.012C80.4698 90.18 80.5538 90.388 80.5538 90.636C80.5538 90.884 80.4698 91.092 80.3018 91.26C80.1338 91.428 79.9298 91.512 79.6898 91.512ZM80.3618 92.388V99H78.9938V92.388H80.3618ZM85.4938 92.28C86.0138 92.28 86.4778 92.388 86.8858 92.604C87.3018 92.82 87.6258 93.14 87.8578 93.564C88.0898 93.988 88.2058 94.5 88.2058 95.1V99H86.8498V95.304C86.8498 94.712 86.7018 94.26 86.4058 93.948C86.1098 93.628 85.7058 93.468 85.1938 93.468C84.6818 93.468 84.2738 93.628 83.9698 93.948C83.6738 94.26 83.5258 94.712 83.5258 95.304V99H82.1578V92.388H83.5258V93.144C83.7498 92.872 84.0338 92.66 84.3778 92.508C84.7298 92.356 85.1018 92.28 85.4938 92.28ZM92.7228 93.504H91.4988V99H90.1188V93.504H89.3388V92.388H90.1188V91.92C90.1188 91.16 90.3188 90.608 90.7188 90.264C91.1268 89.912 91.7628 89.736 92.6268 89.736V90.876C92.2108 90.876 91.9188 90.956 91.7508 91.116C91.5828 91.268 91.4988 91.536 91.4988 91.92V92.388H92.7228V93.504ZM96.8032 99.108C96.1792 99.108 95.6152 98.968 95.1112 98.688C94.6072 98.4 94.2112 98 93.9232 97.488C93.6352 96.968 93.4912 96.368 93.4912 95.688C93.4912 95.016 93.6392 94.42 93.9352 93.9C94.2312 93.38 94.6352 92.98 95.1472 92.7C95.6592 92.42 96.2312 92.28 96.8632 92.28C97.4952 92.28 98.0672 92.42 98.5792 92.7C99.0912 92.98 99.4952 93.38 99.7912 93.9C100.087 94.42 100.235 95.016 100.235 95.688C100.235 96.36 100.083 96.956 99.7792 97.476C99.4752 97.996 99.0592 98.4 98.5312 98.688C98.0112 98.968 97.4352 99.108 96.8032 99.108ZM96.8032 97.92C97.1552 97.92 97.4832 97.836 97.7872 97.668C98.0992 97.5 98.3512 97.248 98.5432 96.912C98.7352 96.576 98.8312 96.168 98.8312 95.688C98.8312 95.208 98.7392 94.804 98.5552 94.476C98.3712 94.14 98.1272 93.888 97.8232 93.72C97.5192 93.552 97.1912 93.468 96.8392 93.468C96.4872 93.468 96.1592 93.552 95.8552 93.72C95.5592 93.888 95.3232 94.14 95.1472 94.476C94.9712 94.804 94.8832 95.208 94.8832 95.688C94.8832 96.4 95.0632 96.952 95.4232 97.344C95.7912 97.728 96.2512 97.92 96.8032 97.92Z"></path>
<circle fill="white" transform="rotate(-180 15 91)" r="1" cy="91" cx="15"></circle>
<path fill="white" d="M14 99C14 99.5523 14.4477 100 15 100C15.5523 100 16 99.5523 16 99L16 95C16 94.4477 15.5523 94 15 94C14.4477 94 14 94.4477 14 95L14 99Z"></path>
</g>
<defs>
<clipPath id="clip0_621_124">
<rect fill="white" height="360" width="480"></rect>
</clipPath>
</defs>
</svg>
