<svg width="480" height="360" viewBox="0 0 480 360" fill="none" xmlns="http://www.w3.org/2000/svg">
<path d="M0 0H480V80C480 91.0457 471.046 100 460 100H20C8.95431 100 0 91.0457 0 80V0Z" fill="#E6E6E6" fill-opacity="0.75"/>
<path d="M172.832 19.88C174.016 19.88 175.051 20.1093 175.936 20.568C176.832 21.016 177.52 21.6667 178 22.52C178.491 23.3627 178.736 24.3493 178.736 25.48C178.736 26.6107 178.491 27.592 178 28.424C177.52 29.256 176.832 29.896 175.936 30.344C175.051 30.7813 174.016 31 172.832 31H169.2V19.88H172.832ZM172.832 29.512C174.133 29.512 175.131 29.16 175.824 28.456C176.517 27.752 176.864 26.76 176.864 25.48C176.864 24.1893 176.517 23.1813 175.824 22.456C175.131 21.7307 174.133 21.368 172.832 21.368H171.024V29.512H172.832ZM188.624 26.376C188.624 26.7067 188.602 27.0053 188.56 27.272H181.824C181.877 27.976 182.138 28.5413 182.608 28.968C183.077 29.3947 183.653 29.608 184.336 29.608C185.317 29.608 186.01 29.1973 186.416 28.376H188.384C188.117 29.1867 187.632 29.8533 186.928 30.376C186.234 30.888 185.37 31.144 184.336 31.144C183.493 31.144 182.736 30.9573 182.064 30.584C181.402 30.2 180.88 29.6667 180.496 28.984C180.122 28.2907 179.936 27.4907 179.936 26.584C179.936 25.6773 180.117 24.8827 180.48 24.2C180.853 23.5067 181.37 22.9733 182.032 22.6C182.704 22.2267 183.472 22.04 184.336 22.04C185.168 22.04 185.909 22.2213 186.56 22.584C187.21 22.9467 187.717 23.4587 188.08 24.12C188.442 24.7707 188.624 25.5227 188.624 26.376ZM186.72 25.8C186.709 25.128 186.469 24.5893 186 24.184C185.53 23.7787 184.949 23.576 184.256 23.576C183.626 23.576 183.088 23.7787 182.64 24.184C182.192 24.5787 181.925 25.1173 181.84 25.8H186.72ZM193.827 29.368L196.323 22.184H198.259L194.899 31H192.723L189.379 22.184H191.331L193.827 29.368ZM207.718 26.376C207.718 26.7067 207.696 27.0053 207.654 27.272H200.918C200.971 27.976 201.232 28.5413 201.702 28.968C202.171 29.3947 202.747 29.608 203.43 29.608C204.411 29.608 205.104 29.1973 205.51 28.376H207.477C207.211 29.1867 206.726 29.8533 206.022 30.376C205.328 30.888 204.464 31.144 203.43 31.144C202.587 31.144 201.83 30.9573 201.158 30.584C200.496 30.2 199.974 29.6667 199.59 28.984C199.216 28.2907 199.03 27.4907 199.03 26.584C199.03 25.6773 199.211 24.8827 199.574 24.2C199.947 23.5067 200.464 22.9733 201.126 22.6C201.798 22.2267 202.566 22.04 203.43 22.04C204.262 22.04 205.003 22.2213 205.654 22.584C206.304 22.9467 206.811 23.4587 207.174 24.12C207.536 24.7707 207.718 25.5227 207.718 26.376ZM205.814 25.8C205.803 25.128 205.563 24.5893 205.094 24.184C204.624 23.7787 204.043 23.576 203.35 23.576C202.72 23.576 202.182 23.7787 201.734 24.184C201.286 24.5787 201.019 25.1173 200.934 25.8H205.814ZM211.337 19.16V31H209.513V19.16H211.337ZM217.555 31.144C216.723 31.144 215.971 30.9573 215.299 30.584C214.627 30.2 214.099 29.6667 213.715 28.984C213.331 28.2907 213.139 27.4907 213.139 26.584C213.139 25.688 213.337 24.8933 213.731 24.2C214.126 23.5067 214.665 22.9733 215.347 22.6C216.03 22.2267 216.793 22.04 217.635 22.04C218.478 22.04 219.241 22.2267 219.923 22.6C220.606 22.9733 221.145 23.5067 221.539 24.2C221.934 24.8933 222.131 25.688 222.131 26.584C222.131 27.48 221.929 28.2747 221.523 28.968C221.118 29.6613 220.563 30.2 219.859 30.584C219.166 30.9573 218.398 31.144 217.555 31.144ZM217.555 29.56C218.025 29.56 218.462 29.448 218.867 29.224C219.283 29 219.619 28.664 219.875 28.216C220.131 27.768 220.259 27.224 220.259 26.584C220.259 25.944 220.137 25.4053 219.891 24.968C219.646 24.52 219.321 24.184 218.915 23.96C218.51 23.736 218.073 23.624 217.603 23.624C217.134 23.624 216.697 23.736 216.291 23.96C215.897 24.184 215.582 24.52 215.347 24.968C215.113 25.4053 214.995 25.944 214.995 26.584C214.995 27.5333 215.235 28.2693 215.715 28.792C216.206 29.304 216.819 29.56 217.555 29.56ZM225.758 23.48C226.068 23.0747 226.489 22.7333 227.022 22.456C227.556 22.1787 228.158 22.04 228.83 22.04C229.598 22.04 230.297 22.232 230.926 22.616C231.566 22.9893 232.068 23.5173 232.43 24.2C232.793 24.8827 232.974 25.6667 232.974 26.552C232.974 27.4373 232.793 28.232 232.43 28.936C232.068 29.6293 231.566 30.1733 230.926 30.568C230.297 30.952 229.598 31.144 228.83 31.144C228.158 31.144 227.561 31.0107 227.038 30.744C226.516 30.4667 226.089 30.1253 225.758 29.72V35.192H223.934V22.184H225.758V23.48ZM231.118 26.552C231.118 25.944 230.99 25.4213 230.734 24.984C230.489 24.536 230.158 24.2 229.742 23.976C229.337 23.7413 228.9 23.624 228.43 23.624C227.972 23.624 227.534 23.7413 227.118 23.976C226.713 24.2107 226.382 24.552 226.126 25C225.881 25.448 225.758 25.976 225.758 26.584C225.758 27.192 225.881 27.7253 226.126 28.184C226.382 28.632 226.713 28.9733 227.118 29.208C227.534 29.4427 227.972 29.56 228.43 29.56C228.9 29.56 229.337 29.4427 229.742 29.208C230.158 28.9627 230.489 28.6107 230.734 28.152C230.99 27.6933 231.118 27.16 231.118 26.552ZM245.45 22.04C246.143 22.04 246.762 22.184 247.306 22.472C247.861 22.76 248.293 23.1867 248.602 23.752C248.922 24.3173 249.082 25 249.082 25.8V31H247.274V26.072C247.274 25.2827 247.077 24.68 246.682 24.264C246.287 23.8373 245.749 23.624 245.066 23.624C244.383 23.624 243.839 23.8373 243.434 24.264C243.039 24.68 242.842 25.2827 242.842 26.072V31H241.034V26.072C241.034 25.2827 240.837 24.68 240.442 24.264C240.047 23.8373 239.509 23.624 238.826 23.624C238.143 23.624 237.599 23.8373 237.194 24.264C236.799 24.68 236.602 25.2827 236.602 26.072V31H234.778V22.184H236.602V23.192C236.901 22.8293 237.279 22.5467 237.738 22.344C238.197 22.1413 238.687 22.04 239.21 22.04C239.914 22.04 240.543 22.1893 241.098 22.488C241.653 22.7867 242.079 23.2187 242.378 23.784C242.645 23.2507 243.061 22.8293 243.626 22.52C244.191 22.2 244.799 22.04 245.45 22.04ZM259.483 26.376C259.483 26.7067 259.462 27.0053 259.419 27.272H252.683C252.736 27.976 252.998 28.5413 253.467 28.968C253.936 29.3947 254.512 29.608 255.195 29.608C256.176 29.608 256.87 29.1973 257.275 28.376H259.243C258.976 29.1867 258.491 29.8533 257.787 30.376C257.094 30.888 256.23 31.144 255.195 31.144C254.352 31.144 253.595 30.9573 252.923 30.584C252.262 30.2 251.739 29.6667 251.355 28.984C250.982 28.2907 250.795 27.4907 250.795 26.584C250.795 25.6773 250.976 24.8827 251.339 24.2C251.712 23.5067 252.23 22.9733 252.891 22.6C253.563 22.2267 254.331 22.04 255.195 22.04C256.027 22.04 256.768 22.2213 257.419 22.584C258.07 22.9467 258.576 23.4587 258.939 24.12C259.302 24.7707 259.483 25.5227 259.483 26.376ZM257.579 25.8C257.568 25.128 257.328 24.5893 256.859 24.184C256.39 23.7787 255.808 23.576 255.115 23.576C254.486 23.576 253.947 23.7787 253.499 24.184C253.051 24.5787 252.784 25.1173 252.699 25.8H257.579ZM265.726 22.04C266.419 22.04 267.038 22.184 267.582 22.472C268.137 22.76 268.569 23.1867 268.878 23.752C269.187 24.3173 269.342 25 269.342 25.8V31H267.534V26.072C267.534 25.2827 267.337 24.68 266.942 24.264C266.547 23.8373 266.009 23.624 265.326 23.624C264.643 23.624 264.099 23.8373 263.694 24.264C263.299 24.68 263.102 25.2827 263.102 26.072V31H261.278V22.184H263.102V23.192C263.401 22.8293 263.779 22.5467 264.238 22.344C264.707 22.1413 265.203 22.04 265.726 22.04ZM273.797 23.672V28.552C273.797 28.8827 273.871 29.1227 274.021 29.272C274.181 29.4107 274.447 29.48 274.821 29.48H275.941V31H274.501C273.679 31 273.05 30.808 272.613 30.424C272.175 30.04 271.957 29.416 271.957 28.552V23.672H270.917V22.184H271.957V19.992H273.797V22.184H275.941V23.672H273.797ZM285.474 23.672H283.842V31H282.002V23.672H280.962V22.184H282.002V21.56C282.002 20.5467 282.269 19.8107 282.802 19.352C283.346 18.8827 284.194 18.648 285.346 18.648V20.168C284.791 20.168 284.402 20.2747 284.178 20.488C283.954 20.6907 283.842 21.048 283.842 21.56V22.184H285.474V23.672ZM295.075 22.184V31H293.251V29.96C292.963 30.3227 292.584 30.6107 292.115 30.824C291.656 31.0267 291.165 31.128 290.643 31.128C289.949 31.128 289.325 30.984 288.771 30.696C288.227 30.408 287.795 29.9813 287.475 29.416C287.165 28.8507 287.011 28.168 287.011 27.368V22.184H288.819V27.096C288.819 27.8853 289.016 28.4933 289.411 28.92C289.805 29.336 290.344 29.544 291.027 29.544C291.709 29.544 292.248 29.336 292.643 28.92C293.048 28.4933 293.251 27.8853 293.251 27.096V22.184H295.075ZM301.929 22.04C302.623 22.04 303.241 22.184 303.785 22.472C304.34 22.76 304.772 23.1867 305.081 23.752C305.391 24.3173 305.545 25 305.545 25.8V31H303.737V26.072C303.737 25.2827 303.54 24.68 303.145 24.264C302.751 23.8373 302.212 23.624 301.529 23.624C300.847 23.624 300.303 23.8373 299.897 24.264C299.503 24.68 299.305 25.2827 299.305 26.072V31H297.481V22.184H299.305V23.192C299.604 22.8293 299.983 22.5467 300.441 22.344C300.911 22.1413 301.407 22.04 301.929 22.04ZM307.264 26.584C307.264 25.6773 307.445 24.8827 307.808 24.2C308.181 23.5067 308.693 22.9733 309.344 22.6C309.995 22.2267 310.741 22.04 311.584 22.04C312.651 22.04 313.531 22.296 314.224 22.808C314.928 23.3093 315.403 24.0293 315.648 24.968H313.68C313.52 24.5307 313.264 24.1893 312.912 23.944C312.56 23.6987 312.117 23.576 311.584 23.576C310.837 23.576 310.24 23.8427 309.792 24.376C309.355 24.8987 309.136 25.6347 309.136 26.584C309.136 27.5333 309.355 28.2747 309.792 28.808C310.24 29.3413 310.837 29.608 311.584 29.608C312.64 29.608 313.339 29.144 313.68 28.216H315.648C315.392 29.112 314.912 29.8267 314.208 30.36C313.504 30.8827 312.629 31.144 311.584 31.144C310.741 31.144 309.995 30.9573 309.344 30.584C308.693 30.2 308.181 29.6667 307.808 28.984C307.445 28.2907 307.264 27.4907 307.264 26.584ZM319.594 23.672V28.552C319.594 28.8827 319.668 29.1227 319.818 29.272C319.978 29.4107 320.244 29.48 320.618 29.48H321.738V31H320.298C319.476 31 318.847 30.808 318.41 30.424C317.972 30.04 317.754 29.416 317.754 28.552V23.672H316.714V22.184H317.754V19.992H319.594V22.184H321.738V23.672H319.594ZM324.347 21.016C324.016 21.016 323.739 20.904 323.515 20.68C323.291 20.456 323.179 20.1787 323.179 19.848C323.179 19.5173 323.291 19.24 323.515 19.016C323.739 18.792 324.016 18.68 324.347 18.68C324.667 18.68 324.939 18.792 325.163 19.016C325.387 19.24 325.499 19.5173 325.499 19.848C325.499 20.1787 325.387 20.456 325.163 20.68C324.939 20.904 324.667 21.016 324.347 21.016ZM325.243 22.184V31H323.419V22.184H325.243ZM331.462 31.144C330.63 31.144 329.878 30.9573 329.206 30.584C328.534 30.2 328.006 29.6667 327.622 28.984C327.238 28.2907 327.046 27.4907 327.046 26.584C327.046 25.688 327.243 24.8933 327.638 24.2C328.032 23.5067 328.571 22.9733 329.254 22.6C329.936 22.2267 330.699 22.04 331.542 22.04C332.384 22.04 333.147 22.2267 333.83 22.6C334.512 22.9733 335.051 23.5067 335.446 24.2C335.84 24.8933 336.038 25.688 336.038 26.584C336.038 27.48 335.835 28.2747 335.43 28.968C335.024 29.6613 334.47 30.2 333.766 30.584C333.072 30.9573 332.304 31.144 331.462 31.144ZM331.462 29.56C331.931 29.56 332.368 29.448 332.774 29.224C333.19 29 333.526 28.664 333.782 28.216C334.038 27.768 334.166 27.224 334.166 26.584C334.166 25.944 334.043 25.4053 333.798 24.968C333.552 24.52 333.227 24.184 332.822 23.96C332.416 23.736 331.979 23.624 331.51 23.624C331.04 23.624 330.603 23.736 330.198 23.96C329.803 24.184 329.488 24.52 329.254 24.968C329.019 25.4053 328.902 25.944 328.902 26.584C328.902 27.5333 329.142 28.2693 329.622 28.792C330.112 29.304 330.726 29.56 331.462 29.56ZM342.289 22.04C342.982 22.04 343.601 22.184 344.145 22.472C344.699 22.76 345.131 23.1867 345.441 23.752C345.75 24.3173 345.905 25 345.905 25.8V31H344.097V26.072C344.097 25.2827 343.899 24.68 343.505 24.264C343.11 23.8373 342.571 23.624 341.889 23.624C341.206 23.624 340.662 23.8373 340.257 24.264C339.862 24.68 339.665 25.2827 339.665 26.072V31H337.841V22.184H339.665V23.192C339.963 22.8293 340.342 22.5467 340.801 22.344C341.27 22.1413 341.766 22.04 342.289 22.04Z" fill="black"/>
<path d="M141.728 32.3162C141.592 32.7246 141.21 33 140.779 33L139.221 33C138.79 33 138.408 32.7246 138.272 32.3162L137.5 30L142.5 30L141.728 32.3162Z" fill="black"/>
<path d="M132.796 22.8569C132.507 22.5349 132.458 22.0635 132.674 21.6888L133.417 20.4016C133.634 20.0268 134.067 19.8337 134.49 19.9231L136.868 20.4253L134.42 24.665L132.796 22.8569Z" fill="black"/>
<path d="M147.2 27.1617C147.486 27.4838 147.533 27.9524 147.318 28.3252L146.539 29.6749C146.323 30.0476 145.894 30.2409 145.472 30.1546L143.08 29.6651L145.58 25.335L147.2 27.1617Z" fill="black"/>
<path d="M145.51 19.9228C145.933 19.8334 146.366 20.0265 146.582 20.4012L147.326 21.6887C147.542 22.0635 147.493 22.5349 147.204 22.8569L145.58 24.6651L143.132 20.4249L145.51 19.9228Z" fill="black"/>
<path d="M134.528 30.1545C134.106 30.2408 133.677 30.0476 133.461 29.6748L132.682 28.3251C132.467 27.9524 132.514 27.4837 132.8 27.1617L134.42 25.3349L136.92 29.665L134.528 30.1545Z" fill="black"/>
<mask id="path-8-inside-1_135_16" fill="white">
<path d="M142.25 21.1029C142.664 20.3854 143.6 20.1288 144.192 20.7076C144.769 21.2713 145.231 21.9492 145.543 22.7039C146.049 23.9242 146.137 25.2771 145.796 26.5529C145.454 27.8287 144.7 28.9561 143.653 29.7601C142.605 30.5642 141.321 31 140 31C138.679 31 137.395 30.5642 136.347 29.7601C135.3 28.9561 134.546 27.8287 134.204 26.5529C133.863 25.2771 133.951 23.9242 134.457 22.7039C134.769 21.9492 135.231 21.2713 135.808 20.7076C136.4 20.1288 137.336 20.3854 137.75 21.1029V21.1029C138.164 21.8203 137.869 22.7317 137.438 23.4391C137.358 23.5705 137.288 23.7084 137.228 23.852C136.976 24.4621 136.931 25.1386 137.102 25.7765C137.273 26.4144 137.65 26.978 138.174 27.3801C138.698 27.7821 139.34 28 140 28C140.66 28 141.302 27.7821 141.826 27.3801C142.35 26.978 142.727 26.4144 142.898 25.7765C143.069 25.1386 143.024 24.4621 142.772 23.8519C142.712 23.7084 142.642 23.5705 142.562 23.4391C142.131 22.7317 141.836 21.8203 142.25 21.1029V21.1029Z"/>
</mask>
<path d="M142.25 21.1029C142.664 20.3854 143.6 20.1288 144.192 20.7076C144.769 21.2713 145.231 21.9492 145.543 22.7039C146.049 23.9242 146.137 25.2771 145.796 26.5529C145.454 27.8287 144.7 28.9561 143.653 29.7601C142.605 30.5642 141.321 31 140 31C138.679 31 137.395 30.5642 136.347 29.7601C135.3 28.9561 134.546 27.8287 134.204 26.5529C133.863 25.2771 133.951 23.9242 134.457 22.7039C134.769 21.9492 135.231 21.2713 135.808 20.7076C136.4 20.1288 137.336 20.3854 137.75 21.1029V21.1029C138.164 21.8203 137.869 22.7317 137.438 23.4391C137.358 23.5705 137.288 23.7084 137.228 23.852C136.976 24.4621 136.931 25.1386 137.102 25.7765C137.273 26.4144 137.65 26.978 138.174 27.3801C138.698 27.7821 139.34 28 140 28C140.66 28 141.302 27.7821 141.826 27.3801C142.35 26.978 142.727 26.4144 142.898 25.7765C143.069 25.1386 143.024 24.4621 142.772 23.8519C142.712 23.7084 142.642 23.5705 142.562 23.4391C142.131 22.7317 141.836 21.8203 142.25 21.1029V21.1029Z" stroke="black" stroke-width="6" stroke-linejoin="round" mask="url(#path-8-inside-1_135_16)"/>
<rect x="139" y="24" width="2" height="2" rx="1" fill="black"/>
<rect x="139" y="17" width="2" height="6" rx="1" fill="black"/>
<path d="M29.7665 56.66V57.776H27.5465V65H26.1785V57.776H23.9465V56.66H29.7665ZM34.572 58.28C35.076 58.28 35.524 58.388 35.916 58.604C36.316 58.82 36.628 59.14 36.852 59.564C37.084 59.988 37.2 60.5 37.2 61.1V65H35.844V61.304C35.844 60.712 35.696 60.26 35.4 59.948C35.104 59.628 34.7 59.468 34.188 59.468C33.676 59.468 33.268 59.628 32.964 59.948C32.668 60.26 32.52 60.712 32.52 61.304V65H31.152V56.12H32.52V59.156C32.752 58.876 33.044 58.66 33.396 58.508C33.756 58.356 34.148 58.28 34.572 58.28ZM39.6409 57.512C39.3929 57.512 39.1849 57.428 39.0169 57.26C38.8489 57.092 38.7649 56.884 38.7649 56.636C38.7649 56.388 38.8489 56.18 39.0169 56.012C39.1849 55.844 39.3929 55.76 39.6409 55.76C39.8809 55.76 40.0849 55.844 40.2529 56.012C40.4209 56.18 40.5049 56.388 40.5049 56.636C40.5049 56.884 40.4209 57.092 40.2529 57.26C40.0849 57.428 39.8809 57.512 39.6409 57.512ZM40.3129 58.388V65H38.9449V58.388H40.3129ZM44.509 65.108C43.989 65.108 43.521 65.016 43.105 64.832C42.697 64.64 42.373 64.384 42.133 64.064C41.893 63.736 41.765 63.372 41.749 62.972H43.165C43.189 63.252 43.321 63.488 43.561 63.68C43.809 63.864 44.117 63.956 44.485 63.956C44.869 63.956 45.165 63.884 45.373 63.74C45.589 63.588 45.697 63.396 45.697 63.164C45.697 62.916 45.577 62.732 45.337 62.612C45.105 62.492 44.733 62.36 44.221 62.216C43.725 62.08 43.321 61.948 43.009 61.82C42.697 61.692 42.425 61.496 42.193 61.232C41.969 60.968 41.857 60.62 41.857 60.188C41.857 59.836 41.961 59.516 42.169 59.228C42.377 58.932 42.673 58.7 43.057 58.532C43.449 58.364 43.897 58.28 44.401 58.28C45.153 58.28 45.757 58.472 46.213 58.856C46.677 59.232 46.925 59.748 46.957 60.404H45.589C45.565 60.108 45.445 59.872 45.229 59.696C45.013 59.52 44.721 59.432 44.353 59.432C43.993 59.432 43.717 59.5 43.525 59.636C43.333 59.772 43.237 59.952 43.237 60.176C43.237 60.352 43.301 60.5 43.429 60.62C43.557 60.74 43.713 60.836 43.897 60.908C44.081 60.972 44.353 61.056 44.713 61.16C45.193 61.288 45.585 61.42 45.889 61.556C46.201 61.684 46.469 61.876 46.693 62.132C46.917 62.388 47.033 62.728 47.041 63.152C47.041 63.528 46.937 63.864 46.729 64.16C46.521 64.456 46.225 64.688 45.841 64.856C45.465 65.024 45.021 65.108 44.509 65.108ZM51.1803 61.664C51.1803 61 51.3163 60.412 51.5883 59.9C51.8683 59.388 52.2443 58.992 52.7163 58.712C53.1963 58.424 53.7243 58.28 54.3003 58.28C54.8203 58.28 55.2723 58.384 55.6563 58.592C56.0483 58.792 56.3603 59.044 56.5923 59.348V58.388H57.9723V65H56.5923V64.016C56.3603 64.328 56.0443 64.588 55.6443 64.796C55.2443 65.004 54.7883 65.108 54.2763 65.108C53.7083 65.108 53.1883 64.964 52.7163 64.676C52.2443 64.38 51.8683 63.972 51.5883 63.452C51.3163 62.924 51.1803 62.328 51.1803 61.664ZM56.5923 61.688C56.5923 61.232 56.4963 60.836 56.3043 60.5C56.1203 60.164 55.8763 59.908 55.5723 59.732C55.2683 59.556 54.9403 59.468 54.5883 59.468C54.2363 59.468 53.9083 59.556 53.6043 59.732C53.3003 59.9 53.0523 60.152 52.8603 60.488C52.6763 60.816 52.5843 61.208 52.5843 61.664C52.5843 62.12 52.6763 62.52 52.8603 62.864C53.0523 63.208 53.3003 63.472 53.6043 63.656C53.9163 63.832 54.2443 63.92 54.5883 63.92C54.9403 63.92 55.2683 63.832 55.5723 63.656C55.8763 63.48 56.1203 63.224 56.3043 62.888C56.4963 62.544 56.5923 62.144 56.5923 61.688ZM61.1371 59.36C61.3691 59.056 61.6851 58.8 62.0851 58.592C62.4851 58.384 62.9371 58.28 63.4411 58.28C64.0171 58.28 64.5411 58.424 65.0131 58.712C65.4931 58.992 65.8691 59.388 66.1411 59.9C66.4131 60.412 66.5491 61 66.5491 61.664C66.5491 62.328 66.4131 62.924 66.1411 63.452C65.8691 63.972 65.4931 64.38 65.0131 64.676C64.5411 64.964 64.0171 65.108 63.4411 65.108C62.9371 65.108 62.4891 65.008 62.0971 64.808C61.7051 64.6 61.3851 64.344 61.1371 64.04V68.144H59.7691V58.388H61.1371V59.36ZM65.1571 61.664C65.1571 61.208 65.0611 60.816 64.8691 60.488C64.6851 60.152 64.4371 59.9 64.1251 59.732C63.8211 59.556 63.4931 59.468 63.1411 59.468C62.7971 59.468 62.4691 59.556 62.1571 59.732C61.8531 59.908 61.6051 60.164 61.4131 60.5C61.2291 60.836 61.1371 61.232 61.1371 61.688C61.1371 62.144 61.2291 62.544 61.4131 62.888C61.6051 63.224 61.8531 63.48 62.1571 63.656C62.4691 63.832 62.7971 63.92 63.1411 63.92C63.4931 63.92 63.8211 63.832 64.1251 63.656C64.4371 63.472 64.6851 63.208 64.8691 62.864C65.0611 62.52 65.1571 62.12 65.1571 61.664ZM69.27 59.36C69.502 59.056 69.818 58.8 70.218 58.592C70.618 58.384 71.07 58.28 71.574 58.28C72.15 58.28 72.674 58.424 73.146 58.712C73.626 58.992 74.002 59.388 74.274 59.9C74.546 60.412 74.682 61 74.682 61.664C74.682 62.328 74.546 62.924 74.274 63.452C74.002 63.972 73.626 64.38 73.146 64.676C72.674 64.964 72.15 65.108 71.574 65.108C71.07 65.108 70.622 65.008 70.23 64.808C69.838 64.6 69.518 64.344 69.27 64.04V68.144H67.902V58.388H69.27V59.36ZM73.29 61.664C73.29 61.208 73.194 60.816 73.002 60.488C72.818 60.152 72.57 59.9 72.258 59.732C71.954 59.556 71.626 59.468 71.274 59.468C70.93 59.468 70.602 59.556 70.29 59.732C69.986 59.908 69.738 60.164 69.546 60.5C69.362 60.836 69.27 61.232 69.27 61.688C69.27 62.144 69.362 62.544 69.546 62.888C69.738 63.224 69.986 63.48 70.29 63.656C70.602 63.832 70.93 63.92 71.274 63.92C71.626 63.92 71.954 63.832 72.258 63.656C72.57 63.472 72.818 63.208 73.002 62.864C73.194 62.52 73.29 62.12 73.29 61.664ZM77.4028 56.12V65H76.0348V56.12H77.4028ZM79.8948 57.512C79.6468 57.512 79.4388 57.428 79.2708 57.26C79.1028 57.092 79.0188 56.884 79.0188 56.636C79.0188 56.388 79.1028 56.18 79.2708 56.012C79.4388 55.844 79.6468 55.76 79.8948 55.76C80.1348 55.76 80.3388 55.844 80.5068 56.012C80.6748 56.18 80.7588 56.388 80.7588 56.636C80.7588 56.884 80.6748 57.092 80.5068 57.26C80.3388 57.428 80.1348 57.512 79.8948 57.512ZM80.5668 58.388V65H79.1988V58.388H80.5668ZM81.9069 61.688C81.9069 61.008 82.0429 60.412 82.3149 59.9C82.5949 59.38 82.9789 58.98 83.4669 58.7C83.9549 58.42 84.5149 58.28 85.1469 58.28C85.9469 58.28 86.6069 58.472 87.1269 58.856C87.6549 59.232 88.0109 59.772 88.1949 60.476H86.7189C86.5989 60.148 86.4069 59.892 86.1429 59.708C85.8789 59.524 85.5469 59.432 85.1469 59.432C84.5869 59.432 84.1389 59.632 83.8029 60.032C83.4749 60.424 83.3109 60.976 83.3109 61.688C83.3109 62.4 83.4749 62.956 83.8029 63.356C84.1389 63.756 84.5869 63.956 85.1469 63.956C85.9389 63.956 86.4629 63.608 86.7189 62.912H88.1949C88.0029 63.584 87.6429 64.12 87.1149 64.52C86.5869 64.912 85.9309 65.108 85.1469 65.108C84.5149 65.108 83.9549 64.968 83.4669 64.688C82.9789 64.4 82.5949 64 82.3149 63.488C82.0429 62.968 81.9069 62.368 81.9069 61.688ZM89.1022 61.664C89.1022 61 89.2382 60.412 89.5102 59.9C89.7902 59.388 90.1662 58.992 90.6382 58.712C91.1182 58.424 91.6462 58.28 92.2222 58.28C92.7422 58.28 93.1942 58.384 93.5782 58.592C93.9702 58.792 94.2822 59.044 94.5142 59.348V58.388H95.8942V65H94.5142V64.016C94.2822 64.328 93.9662 64.588 93.5662 64.796C93.1662 65.004 92.7102 65.108 92.1982 65.108C91.6302 65.108 91.1102 64.964 90.6382 64.676C90.1662 64.38 89.7902 63.972 89.5102 63.452C89.2382 62.924 89.1022 62.328 89.1022 61.664ZM94.5142 61.688C94.5142 61.232 94.4182 60.836 94.2262 60.5C94.0422 60.164 93.7982 59.908 93.4942 59.732C93.1902 59.556 92.8622 59.468 92.5102 59.468C92.1582 59.468 91.8302 59.556 91.5262 59.732C91.2222 59.9 90.9742 60.152 90.7822 60.488C90.5982 60.816 90.5062 61.208 90.5062 61.664C90.5062 62.12 90.5982 62.52 90.7822 62.864C90.9742 63.208 91.2222 63.472 91.5262 63.656C91.8382 63.832 92.1662 63.92 92.5102 63.92C92.8622 63.92 93.1902 63.832 93.4942 63.656C93.7982 63.48 94.0422 63.224 94.2262 62.888C94.4182 62.544 94.5142 62.144 94.5142 61.688ZM99.287 59.504V63.164C99.287 63.412 99.343 63.592 99.455 63.704C99.575 63.808 99.775 63.86 100.055 63.86H100.895V65H99.815C99.199 65 98.727 64.856 98.399 64.568C98.071 64.28 97.907 63.812 97.907 63.164V59.504H97.127V58.388H97.907V56.744H99.287V58.388H100.895V59.504H99.287ZM102.852 57.512C102.604 57.512 102.396 57.428 102.228 57.26C102.06 57.092 101.976 56.884 101.976 56.636C101.976 56.388 102.06 56.18 102.228 56.012C102.396 55.844 102.604 55.76 102.852 55.76C103.092 55.76 103.296 55.844 103.464 56.012C103.632 56.18 103.716 56.388 103.716 56.636C103.716 56.884 103.632 57.092 103.464 57.26C103.296 57.428 103.092 57.512 102.852 57.512ZM103.524 58.388V65H102.156V58.388H103.524ZM108.188 65.108C107.564 65.108 107 64.968 106.496 64.688C105.992 64.4 105.596 64 105.308 63.488C105.02 62.968 104.876 62.368 104.876 61.688C104.876 61.016 105.024 60.42 105.32 59.9C105.616 59.38 106.02 58.98 106.532 58.7C107.044 58.42 107.616 58.28 108.248 58.28C108.88 58.28 109.452 58.42 109.964 58.7C110.476 58.98 110.88 59.38 111.176 59.9C111.472 60.42 111.62 61.016 111.62 61.688C111.62 62.36 111.468 62.956 111.164 63.476C110.86 63.996 110.444 64.4 109.916 64.688C109.396 64.968 108.82 65.108 108.188 65.108ZM108.188 63.92C108.54 63.92 108.868 63.836 109.172 63.668C109.484 63.5 109.736 63.248 109.928 62.912C110.12 62.576 110.216 62.168 110.216 61.688C110.216 61.208 110.124 60.804 109.94 60.476C109.756 60.14 109.512 59.888 109.208 59.72C108.904 59.552 108.576 59.468 108.224 59.468C107.872 59.468 107.544 59.552 107.24 59.72C106.944 59.888 106.708 60.14 106.532 60.476C106.356 60.804 106.268 61.208 106.268 61.688C106.268 62.4 106.448 62.952 106.808 63.344C107.176 63.728 107.636 63.92 108.188 63.92ZM116.308 58.28C116.828 58.28 117.292 58.388 117.7 58.604C118.116 58.82 118.44 59.14 118.672 59.564C118.904 59.988 119.02 60.5 119.02 61.1V65H117.664V61.304C117.664 60.712 117.516 60.26 117.22 59.948C116.924 59.628 116.52 59.468 116.008 59.468C115.496 59.468 115.088 59.628 114.784 59.948C114.488 60.26 114.34 60.712 114.34 61.304V65H112.972V58.388H114.34V59.144C114.564 58.872 114.848 58.66 115.192 58.508C115.544 58.356 115.916 58.28 116.308 58.28ZM124.578 57.512C124.33 57.512 124.122 57.428 123.954 57.26C123.786 57.092 123.702 56.884 123.702 56.636C123.702 56.388 123.786 56.18 123.954 56.012C124.122 55.844 124.33 55.76 124.578 55.76C124.818 55.76 125.022 55.844 125.19 56.012C125.358 56.18 125.442 56.388 125.442 56.636C125.442 56.884 125.358 57.092 125.19 57.26C125.022 57.428 124.818 57.512 124.578 57.512ZM125.25 58.388V65H123.882V58.388H125.25ZM129.446 65.108C128.926 65.108 128.458 65.016 128.042 64.832C127.634 64.64 127.31 64.384 127.07 64.064C126.83 63.736 126.702 63.372 126.686 62.972H128.102C128.126 63.252 128.258 63.488 128.498 63.68C128.746 63.864 129.054 63.956 129.422 63.956C129.806 63.956 130.102 63.884 130.31 63.74C130.526 63.588 130.634 63.396 130.634 63.164C130.634 62.916 130.514 62.732 130.274 62.612C130.042 62.492 129.67 62.36 129.158 62.216C128.662 62.08 128.258 61.948 127.946 61.82C127.634 61.692 127.362 61.496 127.13 61.232C126.906 60.968 126.794 60.62 126.794 60.188C126.794 59.836 126.898 59.516 127.106 59.228C127.314 58.932 127.61 58.7 127.994 58.532C128.386 58.364 128.834 58.28 129.338 58.28C130.09 58.28 130.694 58.472 131.15 58.856C131.614 59.232 131.862 59.748 131.894 60.404H130.526C130.502 60.108 130.382 59.872 130.166 59.696C129.95 59.52 129.658 59.432 129.29 59.432C128.93 59.432 128.654 59.5 128.462 59.636C128.27 59.772 128.174 59.952 128.174 60.176C128.174 60.352 128.238 60.5 128.366 60.62C128.494 60.74 128.65 60.836 128.834 60.908C129.018 60.972 129.29 61.056 129.65 61.16C130.13 61.288 130.522 61.42 130.826 61.556C131.138 61.684 131.406 61.876 131.63 62.132C131.854 62.388 131.97 62.728 131.978 63.152C131.978 63.528 131.874 63.864 131.666 64.16C131.458 64.456 131.162 64.688 130.778 64.856C130.402 65.024 129.958 65.108 129.446 65.108ZM142.562 58.388V65H141.194V64.22C140.978 64.492 140.694 64.708 140.342 64.868C139.998 65.02 139.63 65.096 139.238 65.096C138.718 65.096 138.25 64.988 137.834 64.772C137.426 64.556 137.102 64.236 136.862 63.812C136.63 63.388 136.514 62.876 136.514 62.276V58.388H137.87V62.072C137.87 62.664 138.018 63.12 138.314 63.44C138.61 63.752 139.014 63.908 139.526 63.908C140.038 63.908 140.442 63.752 140.738 63.44C141.042 63.12 141.194 62.664 141.194 62.072V58.388H142.562ZM147.703 58.28C148.223 58.28 148.687 58.388 149.095 58.604C149.511 58.82 149.835 59.14 150.067 59.564C150.299 59.988 150.415 60.5 150.415 61.1V65H149.059V61.304C149.059 60.712 148.911 60.26 148.615 59.948C148.319 59.628 147.915 59.468 147.403 59.468C146.891 59.468 146.483 59.628 146.179 59.948C145.883 60.26 145.735 60.712 145.735 61.304V65H144.367V58.388H145.735V59.144C145.959 58.872 146.243 58.66 146.587 58.508C146.939 58.356 147.311 58.28 147.703 58.28ZM151.704 61.664C151.704 61 151.84 60.412 152.112 59.9C152.392 59.388 152.768 58.992 153.24 58.712C153.72 58.424 154.252 58.28 154.836 58.28C155.268 58.28 155.692 58.376 156.108 58.568C156.532 58.752 156.868 59 157.116 59.312V56.12H158.496V65H157.116V64.004C156.892 64.324 156.58 64.588 156.18 64.796C155.788 65.004 155.336 65.108 154.824 65.108C154.248 65.108 153.72 64.964 153.24 64.676C152.768 64.38 152.392 63.972 152.112 63.452C151.84 62.924 151.704 62.328 151.704 61.664ZM157.116 61.688C157.116 61.232 157.02 60.836 156.828 60.5C156.644 60.164 156.4 59.908 156.096 59.732C155.792 59.556 155.464 59.468 155.112 59.468C154.76 59.468 154.432 59.556 154.128 59.732C153.824 59.9 153.576 60.152 153.384 60.488C153.2 60.816 153.108 61.208 153.108 61.664C153.108 62.12 153.2 62.52 153.384 62.864C153.576 63.208 153.824 63.472 154.128 63.656C154.44 63.832 154.768 63.92 155.112 63.92C155.464 63.92 155.792 63.832 156.096 63.656C156.4 63.48 156.644 63.224 156.828 62.888C157.02 62.544 157.116 62.144 157.116 61.688ZM166.353 61.532C166.353 61.78 166.337 62.004 166.305 62.204H161.253C161.293 62.732 161.489 63.156 161.841 63.476C162.193 63.796 162.625 63.956 163.137 63.956C163.873 63.956 164.393 63.648 164.697 63.032H166.173C165.973 63.64 165.609 64.14 165.081 64.532C164.561 64.916 163.913 65.108 163.137 65.108C162.505 65.108 161.937 64.968 161.433 64.688C160.937 64.4 160.545 64 160.257 63.488C159.977 62.968 159.837 62.368 159.837 61.688C159.837 61.008 159.973 60.412 160.245 59.9C160.525 59.38 160.913 58.98 161.409 58.7C161.913 58.42 162.489 58.28 163.137 58.28C163.761 58.28 164.317 58.416 164.805 58.688C165.293 58.96 165.673 59.344 165.945 59.84C166.217 60.328 166.353 60.892 166.353 61.532ZM164.925 61.1C164.917 60.596 164.737 60.192 164.385 59.888C164.033 59.584 163.597 59.432 163.077 59.432C162.605 59.432 162.201 59.584 161.865 59.888C161.529 60.184 161.329 60.588 161.265 61.1H164.925ZM169.067 59.348C169.267 59.012 169.531 58.752 169.859 58.568C170.195 58.376 170.591 58.28 171.047 58.28V59.696H170.699C170.163 59.696 169.755 59.832 169.475 60.104C169.203 60.376 169.067 60.848 169.067 61.52V65H167.699V58.388H169.067V59.348ZM174.965 61.664C174.965 61 175.101 60.412 175.373 59.9C175.653 59.388 176.029 58.992 176.501 58.712C176.981 58.424 177.513 58.28 178.097 58.28C178.529 58.28 178.953 58.376 179.369 58.568C179.793 58.752 180.129 59 180.377 59.312V56.12H181.757V65H180.377V64.004C180.153 64.324 179.841 64.588 179.441 64.796C179.049 65.004 178.597 65.108 178.085 65.108C177.509 65.108 176.981 64.964 176.501 64.676C176.029 64.38 175.653 63.972 175.373 63.452C175.101 62.924 174.965 62.328 174.965 61.664ZM180.377 61.688C180.377 61.232 180.281 60.836 180.089 60.5C179.905 60.164 179.661 59.908 179.357 59.732C179.053 59.556 178.725 59.468 178.373 59.468C178.021 59.468 177.693 59.556 177.389 59.732C177.085 59.9 176.837 60.152 176.645 60.488C176.461 60.816 176.369 61.208 176.369 61.664C176.369 62.12 176.461 62.52 176.645 62.864C176.837 63.208 177.085 63.472 177.389 63.656C177.701 63.832 178.029 63.92 178.373 63.92C178.725 63.92 179.053 63.832 179.357 63.656C179.661 63.48 179.905 63.224 180.089 62.888C180.281 62.544 180.377 62.144 180.377 61.688ZM189.614 61.532C189.614 61.78 189.598 62.004 189.566 62.204H184.514C184.554 62.732 184.75 63.156 185.102 63.476C185.454 63.796 185.886 63.956 186.398 63.956C187.134 63.956 187.654 63.648 187.958 63.032H189.434C189.234 63.64 188.87 64.14 188.342 64.532C187.822 64.916 187.174 65.108 186.398 65.108C185.766 65.108 185.198 64.968 184.694 64.688C184.198 64.4 183.806 64 183.518 63.488C183.238 62.968 183.098 62.368 183.098 61.688C183.098 61.008 183.234 60.412 183.506 59.9C183.786 59.38 184.174 58.98 184.67 58.7C185.174 58.42 185.75 58.28 186.398 58.28C187.022 58.28 187.578 58.416 188.066 58.688C188.554 58.96 188.934 59.344 189.206 59.84C189.478 60.328 189.614 60.892 189.614 61.532ZM188.186 61.1C188.178 60.596 187.998 60.192 187.646 59.888C187.294 59.584 186.858 59.432 186.338 59.432C185.866 59.432 185.462 59.584 185.126 59.888C184.79 60.184 184.59 60.588 184.526 61.1H188.186ZM193.517 63.776L195.389 58.388H196.841L194.321 65H192.689L190.181 58.388H191.645L193.517 63.776ZM203.935 61.532C203.935 61.78 203.919 62.004 203.887 62.204H198.835C198.875 62.732 199.071 63.156 199.423 63.476C199.775 63.796 200.207 63.956 200.719 63.956C201.455 63.956 201.975 63.648 202.279 63.032H203.755C203.555 63.64 203.191 64.14 202.663 64.532C202.143 64.916 201.495 65.108 200.719 65.108C200.087 65.108 199.519 64.968 199.015 64.688C198.519 64.4 198.127 64 197.839 63.488C197.559 62.968 197.419 62.368 197.419 61.688C197.419 61.008 197.555 60.412 197.827 59.9C198.107 59.38 198.495 58.98 198.991 58.7C199.495 58.42 200.071 58.28 200.719 58.28C201.343 58.28 201.899 58.416 202.387 58.688C202.875 58.96 203.255 59.344 203.527 59.84C203.799 60.328 203.935 60.892 203.935 61.532ZM202.507 61.1C202.499 60.596 202.319 60.192 201.967 59.888C201.615 59.584 201.179 59.432 200.659 59.432C200.187 59.432 199.783 59.584 199.447 59.888C199.111 60.184 198.911 60.588 198.847 61.1H202.507ZM206.649 56.12V65H205.281V56.12H206.649ZM211.313 65.108C210.689 65.108 210.125 64.968 209.621 64.688C209.117 64.4 208.721 64 208.433 63.488C208.145 62.968 208.001 62.368 208.001 61.688C208.001 61.016 208.149 60.42 208.445 59.9C208.741 59.38 209.145 58.98 209.657 58.7C210.169 58.42 210.741 58.28 211.373 58.28C212.005 58.28 212.577 58.42 213.089 58.7C213.601 58.98 214.005 59.38 214.301 59.9C214.597 60.42 214.745 61.016 214.745 61.688C214.745 62.36 214.593 62.956 214.289 63.476C213.985 63.996 213.569 64.4 213.041 64.688C212.521 64.968 211.945 65.108 211.313 65.108ZM211.313 63.92C211.665 63.92 211.993 63.836 212.297 63.668C212.609 63.5 212.861 63.248 213.053 62.912C213.245 62.576 213.341 62.168 213.341 61.688C213.341 61.208 213.249 60.804 213.065 60.476C212.881 60.14 212.637 59.888 212.333 59.72C212.029 59.552 211.701 59.468 211.349 59.468C210.997 59.468 210.669 59.552 210.365 59.72C210.069 59.888 209.833 60.14 209.657 60.476C209.481 60.804 209.393 61.208 209.393 61.688C209.393 62.4 209.573 62.952 209.933 63.344C210.301 63.728 210.761 63.92 211.313 63.92ZM217.465 59.36C217.697 59.056 218.013 58.8 218.413 58.592C218.813 58.384 219.265 58.28 219.769 58.28C220.345 58.28 220.869 58.424 221.341 58.712C221.821 58.992 222.197 59.388 222.469 59.9C222.741 60.412 222.877 61 222.877 61.664C222.877 62.328 222.741 62.924 222.469 63.452C222.197 63.972 221.821 64.38 221.341 64.676C220.869 64.964 220.345 65.108 219.769 65.108C219.265 65.108 218.817 65.008 218.425 64.808C218.033 64.6 217.713 64.344 217.465 64.04V68.144H216.097V58.388H217.465V59.36ZM221.485 61.664C221.485 61.208 221.389 60.816 221.197 60.488C221.013 60.152 220.765 59.9 220.453 59.732C220.149 59.556 219.821 59.468 219.469 59.468C219.125 59.468 218.797 59.556 218.485 59.732C218.181 59.908 217.933 60.164 217.741 60.5C217.557 60.836 217.465 61.232 217.465 61.688C217.465 62.144 217.557 62.544 217.741 62.888C217.933 63.224 218.181 63.48 218.485 63.656C218.797 63.832 219.125 63.92 219.469 63.92C219.821 63.92 220.149 63.832 220.453 63.656C220.765 63.472 221.013 63.208 221.197 62.864C221.389 62.52 221.485 62.12 221.485 61.664ZM232.234 58.28C232.754 58.28 233.218 58.388 233.626 58.604C234.042 58.82 234.366 59.14 234.598 59.564C234.838 59.988 234.958 60.5 234.958 61.1V65H233.602V61.304C233.602 60.712 233.454 60.26 233.158 59.948C232.862 59.628 232.458 59.468 231.946 59.468C231.434 59.468 231.026 59.628 230.722 59.948C230.426 60.26 230.278 60.712 230.278 61.304V65H228.922V61.304C228.922 60.712 228.774 60.26 228.478 59.948C228.182 59.628 227.778 59.468 227.266 59.468C226.754 59.468 226.346 59.628 226.042 59.948C225.746 60.26 225.598 60.712 225.598 61.304V65H224.23V58.388H225.598V59.144C225.822 58.872 226.106 58.66 226.45 58.508C226.794 58.356 227.162 58.28 227.554 58.28C228.082 58.28 228.554 58.392 228.97 58.616C229.386 58.84 229.706 59.164 229.93 59.588C230.13 59.188 230.442 58.872 230.866 58.64C231.29 58.4 231.746 58.28 232.234 58.28ZM242.759 61.532C242.759 61.78 242.743 62.004 242.711 62.204H237.659C237.699 62.732 237.895 63.156 238.247 63.476C238.599 63.796 239.031 63.956 239.543 63.956C240.279 63.956 240.799 63.648 241.103 63.032H242.579C242.379 63.64 242.015 64.14 241.487 64.532C240.967 64.916 240.319 65.108 239.543 65.108C238.911 65.108 238.343 64.968 237.839 64.688C237.343 64.4 236.951 64 236.663 63.488C236.383 62.968 236.243 62.368 236.243 61.688C236.243 61.008 236.379 60.412 236.651 59.9C236.931 59.38 237.319 58.98 237.815 58.7C238.319 58.42 238.895 58.28 239.543 58.28C240.167 58.28 240.723 58.416 241.211 58.688C241.699 58.96 242.079 59.344 242.351 59.84C242.623 60.328 242.759 60.892 242.759 61.532ZM241.331 61.1C241.323 60.596 241.143 60.192 240.791 59.888C240.439 59.584 240.003 59.432 239.483 59.432C239.011 59.432 238.607 59.584 238.271 59.888C237.935 60.184 237.735 60.588 237.671 61.1H241.331ZM247.441 58.28C247.961 58.28 248.425 58.388 248.833 58.604C249.249 58.82 249.573 59.14 249.805 59.564C250.037 59.988 250.153 60.5 250.153 61.1V65H248.797V61.304C248.797 60.712 248.649 60.26 248.353 59.948C248.057 59.628 247.653 59.468 247.141 59.468C246.629 59.468 246.221 59.628 245.917 59.948C245.621 60.26 245.473 60.712 245.473 61.304V65H244.105V58.388H245.473V59.144C245.697 58.872 245.981 58.66 246.325 58.508C246.677 58.356 247.049 58.28 247.441 58.28ZM253.494 59.504V63.164C253.494 63.412 253.55 63.592 253.662 63.704C253.782 63.808 253.982 63.86 254.262 63.86H255.102V65H254.022C253.406 65 252.934 64.856 252.606 64.568C252.278 64.28 252.114 63.812 252.114 63.164V59.504H251.334V58.388H252.114V56.744H253.494V58.388H255.102V59.504H253.494ZM256.915 65.084C256.667 65.084 256.459 65 256.291 64.832C256.123 64.664 256.039 64.456 256.039 64.208C256.039 63.96 256.123 63.752 256.291 63.584C256.459 63.416 256.667 63.332 256.915 63.332C257.155 63.332 257.359 63.416 257.527 63.584C257.695 63.752 257.779 63.96 257.779 64.208C257.779 64.456 257.695 64.664 257.527 64.832C257.359 65 257.155 65.084 256.915 65.084ZM267.763 56.66V57.776H265.543V65H264.175V57.776H261.943V56.66H267.763ZM272.016 65.108C271.392 65.108 270.828 64.968 270.324 64.688C269.82 64.4 269.424 64 269.136 63.488C268.848 62.968 268.704 62.368 268.704 61.688C268.704 61.016 268.852 60.42 269.148 59.9C269.444 59.38 269.848 58.98 270.36 58.7C270.872 58.42 271.444 58.28 272.076 58.28C272.708 58.28 273.28 58.42 273.792 58.7C274.304 58.98 274.708 59.38 275.004 59.9C275.3 60.42 275.448 61.016 275.448 61.688C275.448 62.36 275.296 62.956 274.992 63.476C274.688 63.996 274.272 64.4 273.744 64.688C273.224 64.968 272.648 65.108 272.016 65.108ZM272.016 63.92C272.368 63.92 272.696 63.836 273 63.668C273.312 63.5 273.564 63.248 273.756 62.912C273.948 62.576 274.044 62.168 274.044 61.688C274.044 61.208 273.952 60.804 273.768 60.476C273.584 60.14 273.34 59.888 273.036 59.72C272.732 59.552 272.404 59.468 272.052 59.468C271.7 59.468 271.372 59.552 271.068 59.72C270.772 59.888 270.536 60.14 270.36 60.476C270.184 60.804 270.096 61.208 270.096 61.688C270.096 62.4 270.276 62.952 270.636 63.344C271.004 63.728 271.464 63.92 272.016 63.92ZM279.462 61.664C279.462 61 279.598 60.412 279.87 59.9C280.15 59.388 280.526 58.992 280.998 58.712C281.478 58.424 282.006 58.28 282.582 58.28C283.102 58.28 283.554 58.384 283.938 58.592C284.33 58.792 284.642 59.044 284.874 59.348V58.388H286.254V65H284.874V64.016C284.642 64.328 284.326 64.588 283.926 64.796C283.526 65.004 283.07 65.108 282.558 65.108C281.99 65.108 281.47 64.964 280.998 64.676C280.526 64.38 280.15 63.972 279.87 63.452C279.598 62.924 279.462 62.328 279.462 61.664ZM284.874 61.688C284.874 61.232 284.778 60.836 284.586 60.5C284.402 60.164 284.158 59.908 283.854 59.732C283.55 59.556 283.222 59.468 282.87 59.468C282.518 59.468 282.19 59.556 281.886 59.732C281.582 59.9 281.334 60.152 281.142 60.488C280.958 60.816 280.866 61.208 280.866 61.664C280.866 62.12 280.958 62.52 281.142 62.864C281.334 63.208 281.582 63.472 281.886 63.656C282.198 63.832 282.526 63.92 282.87 63.92C283.222 63.92 283.55 63.832 283.854 63.656C284.158 63.48 284.402 63.224 284.586 62.888C284.778 62.544 284.874 62.144 284.874 61.688ZM287.594 61.688C287.594 61.008 287.73 60.412 288.002 59.9C288.282 59.38 288.666 58.98 289.154 58.7C289.642 58.42 290.202 58.28 290.834 58.28C291.634 58.28 292.294 58.472 292.814 58.856C293.342 59.232 293.698 59.772 293.882 60.476H292.406C292.286 60.148 292.094 59.892 291.83 59.708C291.566 59.524 291.234 59.432 290.834 59.432C290.274 59.432 289.826 59.632 289.49 60.032C289.162 60.424 288.998 60.976 288.998 61.688C288.998 62.4 289.162 62.956 289.49 63.356C289.826 63.756 290.274 63.956 290.834 63.956C291.626 63.956 292.15 63.608 292.406 62.912H293.882C293.69 63.584 293.33 64.12 292.802 64.52C292.274 64.912 291.618 65.108 290.834 65.108C290.202 65.108 289.642 64.968 289.154 64.688C288.666 64.4 288.282 64 288.002 63.488C287.73 62.968 287.594 62.368 287.594 61.688ZM294.79 61.688C294.79 61.008 294.926 60.412 295.198 59.9C295.478 59.38 295.862 58.98 296.35 58.7C296.838 58.42 297.398 58.28 298.03 58.28C298.83 58.28 299.49 58.472 300.01 58.856C300.538 59.232 300.894 59.772 301.078 60.476H299.602C299.482 60.148 299.29 59.892 299.026 59.708C298.762 59.524 298.43 59.432 298.03 59.432C297.47 59.432 297.022 59.632 296.686 60.032C296.358 60.424 296.194 60.976 296.194 61.688C296.194 62.4 296.358 62.956 296.686 63.356C297.022 63.756 297.47 63.956 298.03 63.956C298.822 63.956 299.346 63.608 299.602 62.912H301.078C300.886 63.584 300.526 64.12 299.998 64.52C299.47 64.912 298.814 65.108 298.03 65.108C297.398 65.108 296.838 64.968 296.35 64.688C295.862 64.4 295.478 64 295.198 63.488C294.926 62.968 294.79 62.368 294.79 61.688ZM308.501 61.532C308.501 61.78 308.485 62.004 308.453 62.204H303.401C303.441 62.732 303.637 63.156 303.989 63.476C304.341 63.796 304.773 63.956 305.285 63.956C306.021 63.956 306.541 63.648 306.845 63.032H308.321C308.121 63.64 307.757 64.14 307.229 64.532C306.709 64.916 306.061 65.108 305.285 65.108C304.653 65.108 304.085 64.968 303.581 64.688C303.085 64.4 302.693 64 302.405 63.488C302.125 62.968 301.985 62.368 301.985 61.688C301.985 61.008 302.121 60.412 302.393 59.9C302.673 59.38 303.061 58.98 303.557 58.7C304.061 58.42 304.637 58.28 305.285 58.28C305.909 58.28 306.465 58.416 306.953 58.688C307.441 58.96 307.821 59.344 308.093 59.84C308.365 60.328 308.501 60.892 308.501 61.532ZM307.073 61.1C307.065 60.596 306.885 60.192 306.533 59.888C306.181 59.584 305.745 59.432 305.225 59.432C304.753 59.432 304.349 59.584 304.013 59.888C303.677 60.184 303.477 60.588 303.413 61.1H307.073ZM312.247 65.108C311.727 65.108 311.259 65.016 310.843 64.832C310.435 64.64 310.111 64.384 309.871 64.064C309.631 63.736 309.503 63.372 309.487 62.972H310.903C310.927 63.252 311.059 63.488 311.299 63.68C311.547 63.864 311.855 63.956 312.223 63.956C312.607 63.956 312.903 63.884 313.111 63.74C313.327 63.588 313.435 63.396 313.435 63.164C313.435 62.916 313.315 62.732 313.075 62.612C312.843 62.492 312.471 62.36 311.959 62.216C311.463 62.08 311.059 61.948 310.747 61.82C310.435 61.692 310.163 61.496 309.931 61.232C309.707 60.968 309.595 60.62 309.595 60.188C309.595 59.836 309.699 59.516 309.907 59.228C310.115 58.932 310.411 58.7 310.795 58.532C311.187 58.364 311.635 58.28 312.139 58.28C312.891 58.28 313.495 58.472 313.951 58.856C314.415 59.232 314.663 59.748 314.695 60.404H313.327C313.303 60.108 313.183 59.872 312.967 59.696C312.751 59.52 312.459 59.432 312.091 59.432C311.731 59.432 311.455 59.5 311.263 59.636C311.071 59.772 310.975 59.952 310.975 60.176C310.975 60.352 311.039 60.5 311.167 60.62C311.295 60.74 311.451 60.836 311.635 60.908C311.819 60.972 312.091 61.056 312.451 61.16C312.931 61.288 313.323 61.42 313.627 61.556C313.939 61.684 314.207 61.876 314.431 62.132C314.655 62.388 314.771 62.728 314.779 63.152C314.779 63.528 314.675 63.864 314.467 64.16C314.259 64.456 313.963 64.688 313.579 64.856C313.203 65.024 312.759 65.108 312.247 65.108ZM318.657 65.108C318.137 65.108 317.669 65.016 317.253 64.832C316.845 64.64 316.521 64.384 316.281 64.064C316.041 63.736 315.913 63.372 315.897 62.972H317.313C317.337 63.252 317.469 63.488 317.709 63.68C317.957 63.864 318.265 63.956 318.633 63.956C319.017 63.956 319.313 63.884 319.521 63.74C319.737 63.588 319.845 63.396 319.845 63.164C319.845 62.916 319.725 62.732 319.485 62.612C319.253 62.492 318.881 62.36 318.369 62.216C317.873 62.08 317.469 61.948 317.157 61.82C316.845 61.692 316.573 61.496 316.341 61.232C316.117 60.968 316.005 60.62 316.005 60.188C316.005 59.836 316.109 59.516 316.317 59.228C316.525 58.932 316.821 58.7 317.205 58.532C317.597 58.364 318.045 58.28 318.549 58.28C319.301 58.28 319.905 58.472 320.361 58.856C320.825 59.232 321.073 59.748 321.105 60.404H319.737C319.713 60.108 319.593 59.872 319.377 59.696C319.161 59.52 318.869 59.432 318.501 59.432C318.141 59.432 317.865 59.5 317.673 59.636C317.481 59.772 317.385 59.952 317.385 60.176C317.385 60.352 317.449 60.5 317.577 60.62C317.705 60.74 317.861 60.836 318.045 60.908C318.229 60.972 318.501 61.056 318.861 61.16C319.341 61.288 319.733 61.42 320.037 61.556C320.349 61.684 320.617 61.876 320.841 62.132C321.065 62.388 321.181 62.728 321.189 63.152C321.189 63.528 321.085 63.864 320.877 64.16C320.669 64.456 320.373 64.688 319.989 64.856C319.613 65.024 319.169 65.108 318.657 65.108ZM326.481 57.512C326.233 57.512 326.025 57.428 325.857 57.26C325.689 57.092 325.605 56.884 325.605 56.636C325.605 56.388 325.689 56.18 325.857 56.012C326.025 55.844 326.233 55.76 326.481 55.76C326.721 55.76 326.925 55.844 327.093 56.012C327.261 56.18 327.345 56.388 327.345 56.636C327.345 56.884 327.261 57.092 327.093 57.26C326.925 57.428 326.721 57.512 326.481 57.512ZM327.153 58.388V65H325.785V58.388H327.153ZM330.545 59.504V63.164C330.545 63.412 330.601 63.592 330.713 63.704C330.833 63.808 331.033 63.86 331.313 63.86H332.153V65H331.073C330.457 65 329.985 64.856 329.657 64.568C329.329 64.28 329.165 63.812 329.165 63.164V59.504H328.385V58.388H329.165V56.744H330.545V58.388H332.153V59.504H330.545ZM334.914 63.356L333.462 66.668H332.574L333.426 63.356H334.914ZM338.77 61.664C338.77 61 338.906 60.412 339.178 59.9C339.458 59.388 339.834 58.992 340.306 58.712C340.786 58.424 341.314 58.28 341.89 58.28C342.41 58.28 342.862 58.384 343.246 58.592C343.638 58.792 343.95 59.044 344.182 59.348V58.388H345.562V65H344.182V64.016C343.95 64.328 343.634 64.588 343.234 64.796C342.834 65.004 342.378 65.108 341.866 65.108C341.298 65.108 340.778 64.964 340.306 64.676C339.834 64.38 339.458 63.972 339.178 63.452C338.906 62.924 338.77 62.328 338.77 61.664ZM344.182 61.688C344.182 61.232 344.086 60.836 343.894 60.5C343.71 60.164 343.466 59.908 343.162 59.732C342.858 59.556 342.53 59.468 342.178 59.468C341.826 59.468 341.498 59.556 341.194 59.732C340.89 59.9 340.642 60.152 340.45 60.488C340.266 60.816 340.174 61.208 340.174 61.664C340.174 62.12 340.266 62.52 340.45 62.864C340.642 63.208 340.89 63.472 341.194 63.656C341.506 63.832 341.834 63.92 342.178 63.92C342.53 63.92 342.858 63.832 343.162 63.656C343.466 63.48 343.71 63.224 343.894 62.888C344.086 62.544 344.182 62.144 344.182 61.688ZM346.903 61.688C346.903 61.008 347.039 60.412 347.311 59.9C347.591 59.38 347.975 58.98 348.463 58.7C348.951 58.42 349.511 58.28 350.143 58.28C350.943 58.28 351.603 58.472 352.123 58.856C352.651 59.232 353.007 59.772 353.191 60.476H351.715C351.595 60.148 351.403 59.892 351.139 59.708C350.875 59.524 350.543 59.432 350.143 59.432C349.583 59.432 349.135 59.632 348.799 60.032C348.471 60.424 348.307 60.976 348.307 61.688C348.307 62.4 348.471 62.956 348.799 63.356C349.135 63.756 349.583 63.956 350.143 63.956C350.935 63.956 351.459 63.608 351.715 62.912H353.191C352.999 63.584 352.639 64.12 352.111 64.52C351.583 64.912 350.927 65.108 350.143 65.108C349.511 65.108 348.951 64.968 348.463 64.688C347.975 64.4 347.591 64 347.311 63.488C347.039 62.968 346.903 62.368 346.903 61.688ZM356.15 59.504V63.164C356.15 63.412 356.206 63.592 356.318 63.704C356.438 63.808 356.638 63.86 356.918 63.86H357.758V65H356.678C356.062 65 355.59 64.856 355.262 64.568C354.934 64.28 354.77 63.812 354.77 63.164V59.504H353.99V58.388H354.77V56.744H356.15V58.388H357.758V59.504H356.15ZM359.715 57.512C359.467 57.512 359.259 57.428 359.091 57.26C358.923 57.092 358.839 56.884 358.839 56.636C358.839 56.388 358.923 56.18 359.091 56.012C359.259 55.844 359.467 55.76 359.715 55.76C359.955 55.76 360.159 55.844 360.327 56.012C360.495 56.18 360.579 56.388 360.579 56.636C360.579 56.884 360.495 57.092 360.327 57.26C360.159 57.428 359.955 57.512 359.715 57.512ZM360.387 58.388V65H359.019V58.388H360.387ZM364.739 63.776L366.611 58.388H368.063L365.543 65H363.911L361.403 58.388H362.867L364.739 63.776ZM368.641 61.664C368.641 61 368.777 60.412 369.049 59.9C369.329 59.388 369.705 58.992 370.177 58.712C370.657 58.424 371.185 58.28 371.761 58.28C372.281 58.28 372.733 58.384 373.117 58.592C373.509 58.792 373.821 59.044 374.053 59.348V58.388H375.433V65H374.053V64.016C373.821 64.328 373.505 64.588 373.105 64.796C372.705 65.004 372.249 65.108 371.737 65.108C371.169 65.108 370.649 64.964 370.177 64.676C369.705 64.38 369.329 63.972 369.049 63.452C368.777 62.924 368.641 62.328 368.641 61.664ZM374.053 61.688C374.053 61.232 373.957 60.836 373.765 60.5C373.581 60.164 373.337 59.908 373.033 59.732C372.729 59.556 372.401 59.468 372.049 59.468C371.697 59.468 371.369 59.556 371.065 59.732C370.761 59.9 370.513 60.152 370.321 60.488C370.137 60.816 370.045 61.208 370.045 61.664C370.045 62.12 370.137 62.52 370.321 62.864C370.513 63.208 370.761 63.472 371.065 63.656C371.377 63.832 371.705 63.92 372.049 63.92C372.401 63.92 372.729 63.832 373.033 63.656C373.337 63.48 373.581 63.224 373.765 62.888C373.957 62.544 374.053 62.144 374.053 61.688ZM378.826 59.504V63.164C378.826 63.412 378.882 63.592 378.994 63.704C379.114 63.808 379.314 63.86 379.594 63.86H380.434V65H379.354C378.738 65 378.266 64.856 377.938 64.568C377.61 64.28 377.446 63.812 377.446 63.164V59.504H376.666V58.388H377.446V56.744H378.826V58.388H380.434V59.504H378.826ZM387.755 61.532C387.755 61.78 387.739 62.004 387.707 62.204H382.655C382.695 62.732 382.891 63.156 383.243 63.476C383.595 63.796 384.027 63.956 384.539 63.956C385.275 63.956 385.795 63.648 386.099 63.032H387.575C387.375 63.64 387.011 64.14 386.483 64.532C385.963 64.916 385.315 65.108 384.539 65.108C383.907 65.108 383.339 64.968 382.835 64.688C382.339 64.4 381.947 64 381.659 63.488C381.379 62.968 381.239 62.368 381.239 61.688C381.239 61.008 381.375 60.412 381.647 59.9C381.927 59.38 382.315 58.98 382.811 58.7C383.315 58.42 383.891 58.28 384.539 58.28C385.163 58.28 385.719 58.416 386.207 58.688C386.695 58.96 387.075 59.344 387.347 59.84C387.619 60.328 387.755 60.892 387.755 61.532ZM386.327 61.1C386.319 60.596 386.139 60.192 385.787 59.888C385.435 59.584 384.999 59.432 384.479 59.432C384.007 59.432 383.603 59.584 383.267 59.888C382.931 60.184 382.731 60.588 382.667 61.1H386.327ZM393.814 59.504V63.164C393.814 63.412 393.87 63.592 393.982 63.704C394.102 63.808 394.302 63.86 394.582 63.86H395.422V65H394.342C393.726 65 393.254 64.856 392.926 64.568C392.598 64.28 392.434 63.812 392.434 63.164V59.504H391.654V58.388H392.434V56.744H393.814V58.388H395.422V59.504H393.814ZM400.103 58.28C400.607 58.28 401.055 58.388 401.447 58.604C401.847 58.82 402.159 59.14 402.383 59.564C402.615 59.988 402.731 60.5 402.731 61.1V65H401.375V61.304C401.375 60.712 401.227 60.26 400.931 59.948C400.635 59.628 400.231 59.468 399.719 59.468C399.207 59.468 398.799 59.628 398.495 59.948C398.199 60.26 398.051 60.712 398.051 61.304V65H396.683V56.12H398.051V59.156C398.283 58.876 398.575 58.66 398.927 58.508C399.287 58.356 399.679 58.28 400.103 58.28ZM410.536 61.532C410.536 61.78 410.52 62.004 410.488 62.204H405.436C405.476 62.732 405.672 63.156 406.024 63.476C406.376 63.796 406.808 63.956 407.32 63.956C408.056 63.956 408.576 63.648 408.88 63.032H410.356C410.156 63.64 409.792 64.14 409.264 64.532C408.744 64.916 408.096 65.108 407.32 65.108C406.688 65.108 406.12 64.968 405.616 64.688C405.12 64.4 404.728 64 404.44 63.488C404.16 62.968 404.02 62.368 404.02 61.688C404.02 61.008 404.156 60.412 404.428 59.9C404.708 59.38 405.096 58.98 405.592 58.7C406.096 58.42 406.672 58.28 407.32 58.28C407.944 58.28 408.5 58.416 408.988 58.688C409.476 58.96 409.856 59.344 410.128 59.84C410.4 60.328 410.536 60.892 410.536 61.532ZM409.108 61.1C409.1 60.596 408.92 60.192 408.568 59.888C408.216 59.584 407.78 59.432 407.26 59.432C406.788 59.432 406.384 59.584 406.048 59.888C405.712 60.184 405.512 60.588 405.448 61.1H409.108ZM418.42 58.28C418.924 58.28 419.372 58.388 419.764 58.604C420.164 58.82 420.476 59.14 420.7 59.564C420.932 59.988 421.048 60.5 421.048 61.1V65H419.692V61.304C419.692 60.712 419.544 60.26 419.248 59.948C418.952 59.628 418.548 59.468 418.036 59.468C417.524 59.468 417.116 59.628 416.812 59.948C416.516 60.26 416.368 60.712 416.368 61.304V65H415V56.12H416.368V59.156C416.6 58.876 416.892 58.66 417.244 58.508C417.604 58.356 417.996 58.28 418.42 58.28ZM423.489 57.512C423.241 57.512 423.033 57.428 422.865 57.26C422.697 57.092 422.613 56.884 422.613 56.636C422.613 56.388 422.697 56.18 422.865 56.012C423.033 55.844 423.241 55.76 423.489 55.76C423.729 55.76 423.933 55.844 424.101 56.012C424.269 56.18 424.353 56.388 424.353 56.636C424.353 56.884 424.269 57.092 424.101 57.26C423.933 57.428 423.729 57.512 423.489 57.512ZM424.161 58.388V65H422.793V58.388H424.161ZM425.501 61.664C425.501 61 425.637 60.412 425.909 59.9C426.189 59.388 426.565 58.992 427.037 58.712C427.517 58.424 428.049 58.28 428.633 58.28C429.065 58.28 429.489 58.376 429.905 58.568C430.329 58.752 430.665 59 430.913 59.312V56.12H432.293V65H430.913V64.004C430.689 64.324 430.377 64.588 429.977 64.796C429.585 65.004 429.133 65.108 428.621 65.108C428.045 65.108 427.517 64.964 427.037 64.676C426.565 64.38 426.189 63.972 425.909 63.452C425.637 62.924 425.501 62.328 425.501 61.664ZM430.913 61.688C430.913 61.232 430.817 60.836 430.625 60.5C430.441 60.164 430.197 59.908 429.893 59.732C429.589 59.556 429.261 59.468 428.909 59.468C428.557 59.468 428.229 59.556 427.925 59.732C427.621 59.9 427.373 60.152 427.181 60.488C426.997 60.816 426.905 61.208 426.905 61.664C426.905 62.12 426.997 62.52 427.181 62.864C427.373 63.208 427.621 63.472 427.925 63.656C428.237 63.832 428.565 63.92 428.909 63.92C429.261 63.92 429.589 63.832 429.893 63.656C430.197 63.48 430.441 63.224 430.625 62.888C430.817 62.544 430.913 62.144 430.913 61.688ZM433.633 61.664C433.633 61 433.769 60.412 434.041 59.9C434.321 59.388 434.697 58.992 435.169 58.712C435.649 58.424 436.181 58.28 436.765 58.28C437.197 58.28 437.621 58.376 438.037 58.568C438.461 58.752 438.797 59 439.045 59.312V56.12H440.425V65H439.045V64.004C438.821 64.324 438.509 64.588 438.109 64.796C437.717 65.004 437.265 65.108 436.753 65.108C436.177 65.108 435.649 64.964 435.169 64.676C434.697 64.38 434.321 63.972 434.041 63.452C433.769 62.924 433.633 62.328 433.633 61.664ZM439.045 61.688C439.045 61.232 438.949 60.836 438.757 60.5C438.573 60.164 438.329 59.908 438.025 59.732C437.721 59.556 437.393 59.468 437.041 59.468C436.689 59.468 436.361 59.556 436.057 59.732C435.753 59.9 435.505 60.152 435.313 60.488C435.129 60.816 435.037 61.208 435.037 61.664C435.037 62.12 435.129 62.52 435.313 62.864C435.505 63.208 435.753 63.472 436.057 63.656C436.369 63.832 436.697 63.92 437.041 63.92C437.393 63.92 437.721 63.832 438.025 63.656C438.329 63.48 438.573 63.224 438.757 62.888C438.949 62.544 439.045 62.144 439.045 61.688ZM448.282 61.532C448.282 61.78 448.266 62.004 448.234 62.204H443.182C443.222 62.732 443.418 63.156 443.77 63.476C444.122 63.796 444.554 63.956 445.066 63.956C445.802 63.956 446.322 63.648 446.626 63.032H448.102C447.902 63.64 447.538 64.14 447.01 64.532C446.49 64.916 445.842 65.108 445.066 65.108C444.434 65.108 443.866 64.968 443.362 64.688C442.866 64.4 442.474 64 442.186 63.488C441.906 62.968 441.766 62.368 441.766 61.688C441.766 61.008 441.902 60.412 442.174 59.9C442.454 59.38 442.842 58.98 443.338 58.7C443.842 58.42 444.418 58.28 445.066 58.28C445.69 58.28 446.246 58.416 446.734 58.688C447.222 58.96 447.602 59.344 447.874 59.84C448.146 60.328 448.282 60.892 448.282 61.532ZM446.854 61.1C446.846 60.596 446.666 60.192 446.314 59.888C445.962 59.584 445.526 59.432 445.006 59.432C444.534 59.432 444.13 59.584 443.794 59.888C443.458 60.184 443.258 60.588 443.194 61.1H446.854ZM452.965 58.28C453.485 58.28 453.949 58.388 454.357 58.604C454.773 58.82 455.097 59.14 455.329 59.564C455.561 59.988 455.677 60.5 455.677 61.1V65H454.321V61.304C454.321 60.712 454.173 60.26 453.877 59.948C453.581 59.628 453.177 59.468 452.665 59.468C452.153 59.468 451.745 59.628 451.441 59.948C451.145 60.26 450.997 60.712 450.997 61.304V65H449.629V58.388H450.997V59.144C451.221 58.872 451.505 58.66 451.849 58.508C452.201 58.356 452.573 58.28 452.965 58.28ZM80.7668 83.108C80.2468 83.108 79.7788 83.016 79.3628 82.832C78.9548 82.64 78.6308 82.384 78.3908 82.064C78.1508 81.736 78.0228 81.372 78.0068 80.972H79.4228C79.4468 81.252 79.5788 81.488 79.8188 81.68C80.0668 81.864 80.3748 81.956 80.7428 81.956C81.1268 81.956 81.4228 81.884 81.6308 81.74C81.8468 81.588 81.9548 81.396 81.9548 81.164C81.9548 80.916 81.8348 80.732 81.5948 80.612C81.3628 80.492 80.9908 80.36 80.4788 80.216C79.9828 80.08 79.5788 79.948 79.2668 79.82C78.9548 79.692 78.6828 79.496 78.4508 79.232C78.2268 78.968 78.1148 78.62 78.1148 78.188C78.1148 77.836 78.2188 77.516 78.4268 77.228C78.6348 76.932 78.9308 76.7 79.3148 76.532C79.7068 76.364 80.1548 76.28 80.6588 76.28C81.4108 76.28 82.0148 76.472 82.4708 76.856C82.9348 77.232 83.1828 77.748 83.2148 78.404H81.8468C81.8228 78.108 81.7028 77.872 81.4868 77.696C81.2708 77.52 80.9788 77.432 80.6108 77.432C80.2508 77.432 79.9748 77.5 79.7828 77.636C79.5908 77.772 79.4948 77.952 79.4948 78.176C79.4948 78.352 79.5588 78.5 79.6868 78.62C79.8148 78.74 79.9708 78.836 80.1548 78.908C80.3388 78.972 80.6108 79.056 80.9708 79.16C81.4508 79.288 81.8428 79.42 82.1468 79.556C82.4588 79.684 82.7268 79.876 82.9508 80.132C83.1748 80.388 83.2908 80.728 83.2988 81.152C83.2988 81.528 83.1948 81.864 82.9868 82.16C82.7788 82.456 82.4828 82.688 82.0988 82.856C81.7228 83.024 81.2788 83.108 80.7668 83.108ZM90.837 79.532C90.837 79.78 90.821 80.004 90.789 80.204H85.737C85.777 80.732 85.973 81.156 86.325 81.476C86.677 81.796 87.109 81.956 87.621 81.956C88.357 81.956 88.877 81.648 89.181 81.032H90.657C90.457 81.64 90.093 82.14 89.565 82.532C89.045 82.916 88.397 83.108 87.621 83.108C86.989 83.108 86.421 82.968 85.917 82.688C85.421 82.4 85.029 82 84.741 81.488C84.461 80.968 84.321 80.368 84.321 79.688C84.321 79.008 84.457 78.412 84.729 77.9C85.009 77.38 85.397 76.98 85.893 76.7C86.397 76.42 86.973 76.28 87.621 76.28C88.245 76.28 88.801 76.416 89.289 76.688C89.777 76.96 90.157 77.344 90.429 77.84C90.701 78.328 90.837 78.892 90.837 79.532ZM89.409 79.1C89.401 78.596 89.221 78.192 88.869 77.888C88.517 77.584 88.081 77.432 87.561 77.432C87.089 77.432 86.685 77.584 86.349 77.888C86.013 78.184 85.813 78.588 85.749 79.1H89.409ZM93.7792 77.504V81.164C93.7792 81.412 93.8352 81.592 93.9472 81.704C94.0672 81.808 94.2672 81.86 94.5472 81.86H95.3872V83H94.3072C93.6912 83 93.2192 82.856 92.8912 82.568C92.5632 82.28 92.3992 81.812 92.3992 81.164V77.504H91.6192V76.388H92.3992V74.744H93.7792V76.388H95.3872V77.504H93.7792ZM98.244 77.504V81.164C98.244 81.412 98.3 81.592 98.412 81.704C98.532 81.808 98.732 81.86 99.012 81.86H99.852V83H98.772C98.156 83 97.684 82.856 97.356 82.568C97.028 82.28 96.864 81.812 96.864 81.164V77.504H96.084V76.388H96.864V74.744H98.244V76.388H99.852V77.504H98.244ZM101.809 75.512C101.561 75.512 101.353 75.428 101.185 75.26C101.017 75.092 100.933 74.884 100.933 74.636C100.933 74.388 101.017 74.18 101.185 74.012C101.353 73.844 101.561 73.76 101.809 73.76C102.049 73.76 102.253 73.844 102.421 74.012C102.589 74.18 102.673 74.388 102.673 74.636C102.673 74.884 102.589 75.092 102.421 75.26C102.253 75.428 102.049 75.512 101.809 75.512ZM102.481 76.388V83H101.113V76.388H102.481ZM107.613 76.28C108.133 76.28 108.597 76.388 109.005 76.604C109.421 76.82 109.745 77.14 109.977 77.564C110.209 77.988 110.325 78.5 110.325 79.1V83H108.969V79.304C108.969 78.712 108.821 78.26 108.525 77.948C108.229 77.628 107.825 77.468 107.313 77.468C106.801 77.468 106.393 77.628 106.089 77.948C105.793 78.26 105.645 78.712 105.645 79.304V83H104.277V76.388H105.645V77.144C105.869 76.872 106.153 76.66 106.497 76.508C106.849 76.356 107.221 76.28 107.613 76.28ZM114.734 76.28C115.246 76.28 115.698 76.384 116.09 76.592C116.49 76.792 116.802 77.044 117.026 77.348V76.388H118.406V83.108C118.406 83.716 118.278 84.256 118.022 84.728C117.766 85.208 117.394 85.584 116.906 85.856C116.426 86.128 115.85 86.264 115.178 86.264C114.282 86.264 113.538 86.052 112.946 85.628C112.354 85.212 112.018 84.644 111.938 83.924H113.294C113.398 84.268 113.618 84.544 113.954 84.752C114.298 84.968 114.706 85.076 115.178 85.076C115.73 85.076 116.174 84.908 116.51 84.572C116.854 84.236 117.026 83.748 117.026 83.108V82.004C116.794 82.316 116.478 82.58 116.078 82.796C115.686 83.004 115.238 83.108 114.734 83.108C114.158 83.108 113.63 82.964 113.15 82.676C112.678 82.38 112.302 81.972 112.022 81.452C111.75 80.924 111.614 80.328 111.614 79.664C111.614 79 111.75 78.412 112.022 77.9C112.302 77.388 112.678 76.992 113.15 76.712C113.63 76.424 114.158 76.28 114.734 76.28ZM117.026 79.688C117.026 79.232 116.93 78.836 116.738 78.5C116.554 78.164 116.31 77.908 116.006 77.732C115.702 77.556 115.374 77.468 115.022 77.468C114.67 77.468 114.342 77.556 114.038 77.732C113.734 77.9 113.486 78.152 113.294 78.488C113.11 78.816 113.018 79.208 113.018 79.664C113.018 80.12 113.11 80.52 113.294 80.864C113.486 81.208 113.734 81.472 114.038 81.656C114.35 81.832 114.678 81.92 115.022 81.92C115.374 81.92 115.702 81.832 116.006 81.656C116.31 81.48 116.554 81.224 116.738 80.888C116.93 80.544 117.026 80.144 117.026 79.688ZM122.603 83.108C122.083 83.108 121.615 83.016 121.199 82.832C120.791 82.64 120.467 82.384 120.227 82.064C119.987 81.736 119.859 81.372 119.843 80.972H121.259C121.283 81.252 121.415 81.488 121.655 81.68C121.903 81.864 122.211 81.956 122.579 81.956C122.963 81.956 123.259 81.884 123.467 81.74C123.683 81.588 123.791 81.396 123.791 81.164C123.791 80.916 123.671 80.732 123.431 80.612C123.199 80.492 122.827 80.36 122.315 80.216C121.819 80.08 121.415 79.948 121.103 79.82C120.791 79.692 120.519 79.496 120.287 79.232C120.063 78.968 119.951 78.62 119.951 78.188C119.951 77.836 120.055 77.516 120.263 77.228C120.471 76.932 120.767 76.7 121.151 76.532C121.543 76.364 121.991 76.28 122.495 76.28C123.247 76.28 123.851 76.472 124.307 76.856C124.771 77.232 125.019 77.748 125.051 78.404H123.683C123.659 78.108 123.539 77.872 123.323 77.696C123.107 77.52 122.815 77.432 122.447 77.432C122.087 77.432 121.811 77.5 121.619 77.636C121.427 77.772 121.331 77.952 121.331 78.176C121.331 78.352 121.395 78.5 121.523 78.62C121.651 78.74 121.807 78.836 121.991 78.908C122.175 78.972 122.447 79.056 122.807 79.16C123.287 79.288 123.679 79.42 123.983 79.556C124.295 79.684 124.563 79.876 124.787 80.132C125.011 80.388 125.127 80.728 125.135 81.152C125.135 81.528 125.031 81.864 124.823 82.16C124.615 82.456 124.319 82.688 123.935 82.856C123.559 83.024 123.115 83.108 122.603 83.108ZM131.098 77.372C131.33 77.052 131.646 76.792 132.046 76.592C132.454 76.384 132.906 76.28 133.402 76.28C133.986 76.28 134.514 76.42 134.986 76.7C135.458 76.98 135.83 77.38 136.102 77.9C136.374 78.412 136.51 79 136.51 79.664C136.51 80.328 136.374 80.924 136.102 81.452C135.83 81.972 135.454 82.38 134.974 82.676C134.502 82.964 133.978 83.108 133.402 83.108C132.89 83.108 132.434 83.008 132.034 82.808C131.642 82.608 131.33 82.352 131.098 82.04V83H129.73V74.12H131.098V77.372ZM135.118 79.664C135.118 79.208 135.022 78.816 134.83 78.488C134.646 78.152 134.398 77.9 134.086 77.732C133.782 77.556 133.454 77.468 133.102 77.468C132.758 77.468 132.43 77.556 132.118 77.732C131.814 77.908 131.566 78.164 131.374 78.5C131.19 78.836 131.098 79.232 131.098 79.688C131.098 80.144 131.19 80.544 131.374 80.888C131.566 81.224 131.814 81.48 132.118 81.656C132.43 81.832 132.758 81.92 133.102 81.92C133.454 81.92 133.782 81.832 134.086 81.656C134.398 81.472 134.646 81.208 134.83 80.864C135.022 80.52 135.118 80.12 135.118 79.664ZM143.815 76.388L139.759 86.108H138.343L139.687 82.892L137.083 76.388H138.607L140.467 81.428L142.399 76.388H143.815ZM147.508 79.688C147.508 79.008 147.644 78.412 147.916 77.9C148.196 77.38 148.58 76.98 149.068 76.7C149.556 76.42 150.116 76.28 150.748 76.28C151.548 76.28 152.208 76.472 152.728 76.856C153.256 77.232 153.612 77.772 153.796 78.476H152.32C152.2 78.148 152.008 77.892 151.744 77.708C151.48 77.524 151.148 77.432 150.748 77.432C150.188 77.432 149.74 77.632 149.404 78.032C149.076 78.424 148.912 78.976 148.912 79.688C148.912 80.4 149.076 80.956 149.404 81.356C149.74 81.756 150.188 81.956 150.748 81.956C151.54 81.956 152.064 81.608 152.32 80.912H153.796C153.604 81.584 153.244 82.12 152.716 82.52C152.188 82.912 151.532 83.108 150.748 83.108C150.116 83.108 149.556 82.968 149.068 82.688C148.58 82.4 148.196 82 147.916 81.488C147.644 80.968 147.508 80.368 147.508 79.688ZM156.528 74.12V83H155.16V74.12H156.528ZM159.02 75.512C158.772 75.512 158.564 75.428 158.396 75.26C158.228 75.092 158.144 74.884 158.144 74.636C158.144 74.388 158.228 74.18 158.396 74.012C158.564 73.844 158.772 73.76 159.02 73.76C159.26 73.76 159.464 73.844 159.632 74.012C159.8 74.18 159.884 74.388 159.884 74.636C159.884 74.884 159.8 75.092 159.632 75.26C159.464 75.428 159.26 75.512 159.02 75.512ZM159.692 76.388V83H158.324V76.388H159.692ZM161.032 79.688C161.032 79.008 161.168 78.412 161.44 77.9C161.72 77.38 162.104 76.98 162.592 76.7C163.08 76.42 163.64 76.28 164.272 76.28C165.072 76.28 165.732 76.472 166.252 76.856C166.78 77.232 167.136 77.772 167.32 78.476H165.844C165.724 78.148 165.532 77.892 165.268 77.708C165.004 77.524 164.672 77.432 164.272 77.432C163.712 77.432 163.264 77.632 162.928 78.032C162.6 78.424 162.436 78.976 162.436 79.688C162.436 80.4 162.6 80.956 162.928 81.356C163.264 81.756 163.712 81.956 164.272 81.956C165.064 81.956 165.588 81.608 165.844 80.912H167.32C167.128 81.584 166.768 82.12 166.24 82.52C165.712 82.912 165.056 83.108 164.272 83.108C163.64 83.108 163.08 82.968 162.592 82.688C162.104 82.4 161.72 82 161.44 81.488C161.168 80.968 161.032 80.368 161.032 79.688ZM171.299 79.7L174.347 83H172.499L170.051 80.156V83H168.683V74.12H170.051V79.28L172.451 76.388H174.347L171.299 79.7ZM176.024 75.512C175.776 75.512 175.568 75.428 175.4 75.26C175.232 75.092 175.148 74.884 175.148 74.636C175.148 74.388 175.232 74.18 175.4 74.012C175.568 73.844 175.776 73.76 176.024 73.76C176.264 73.76 176.468 73.844 176.636 74.012C176.804 74.18 176.888 74.388 176.888 74.636C176.888 74.884 176.804 75.092 176.636 75.26C176.468 75.428 176.264 75.512 176.024 75.512ZM176.696 76.388V83H175.328V76.388H176.696ZM181.828 76.28C182.348 76.28 182.812 76.388 183.22 76.604C183.636 76.82 183.96 77.14 184.192 77.564C184.424 77.988 184.54 78.5 184.54 79.1V83H183.184V79.304C183.184 78.712 183.036 78.26 182.74 77.948C182.444 77.628 182.04 77.468 181.528 77.468C181.016 77.468 180.608 77.628 180.304 77.948C180.008 78.26 179.86 78.712 179.86 79.304V83H178.492V76.388H179.86V77.144C180.084 76.872 180.368 76.66 180.712 76.508C181.064 76.356 181.436 76.28 181.828 76.28ZM188.949 76.28C189.461 76.28 189.913 76.384 190.305 76.592C190.705 76.792 191.017 77.044 191.241 77.348V76.388H192.621V83.108C192.621 83.716 192.493 84.256 192.237 84.728C191.981 85.208 191.609 85.584 191.121 85.856C190.641 86.128 190.065 86.264 189.393 86.264C188.497 86.264 187.753 86.052 187.161 85.628C186.569 85.212 186.233 84.644 186.153 83.924H187.509C187.613 84.268 187.833 84.544 188.169 84.752C188.513 84.968 188.921 85.076 189.393 85.076C189.945 85.076 190.389 84.908 190.725 84.572C191.069 84.236 191.241 83.748 191.241 83.108V82.004C191.009 82.316 190.693 82.58 190.293 82.796C189.901 83.004 189.453 83.108 188.949 83.108C188.373 83.108 187.845 82.964 187.365 82.676C186.893 82.38 186.517 81.972 186.237 81.452C185.965 80.924 185.829 80.328 185.829 79.664C185.829 79 185.965 78.412 186.237 77.9C186.517 77.388 186.893 76.992 187.365 76.712C187.845 76.424 188.373 76.28 188.949 76.28ZM191.241 79.688C191.241 79.232 191.145 78.836 190.953 78.5C190.769 78.164 190.525 77.908 190.221 77.732C189.917 77.556 189.589 77.468 189.237 77.468C188.885 77.468 188.557 77.556 188.253 77.732C187.949 77.9 187.701 78.152 187.509 78.488C187.325 78.816 187.233 79.208 187.233 79.664C187.233 80.12 187.325 80.52 187.509 80.864C187.701 81.208 187.949 81.472 188.253 81.656C188.565 81.832 188.893 81.92 189.237 81.92C189.589 81.92 189.917 81.832 190.221 81.656C190.525 81.48 190.769 81.224 190.953 80.888C191.145 80.544 191.241 80.144 191.241 79.688ZM200.403 83.108C199.779 83.108 199.215 82.968 198.711 82.688C198.207 82.4 197.811 82 197.523 81.488C197.235 80.968 197.091 80.368 197.091 79.688C197.091 79.016 197.239 78.42 197.535 77.9C197.831 77.38 198.235 76.98 198.747 76.7C199.259 76.42 199.831 76.28 200.463 76.28C201.095 76.28 201.667 76.42 202.179 76.7C202.691 76.98 203.095 77.38 203.391 77.9C203.687 78.42 203.835 79.016 203.835 79.688C203.835 80.36 203.683 80.956 203.379 81.476C203.075 81.996 202.659 82.4 202.131 82.688C201.611 82.968 201.035 83.108 200.403 83.108ZM200.403 81.92C200.755 81.92 201.083 81.836 201.387 81.668C201.699 81.5 201.951 81.248 202.143 80.912C202.335 80.576 202.431 80.168 202.431 79.688C202.431 79.208 202.339 78.804 202.155 78.476C201.971 78.14 201.727 77.888 201.423 77.72C201.119 77.552 200.791 77.468 200.439 77.468C200.087 77.468 199.759 77.552 199.455 77.72C199.159 77.888 198.923 78.14 198.747 78.476C198.571 78.804 198.483 79.208 198.483 79.688C198.483 80.4 198.663 80.952 199.023 81.344C199.391 81.728 199.851 81.92 200.403 81.92ZM208.523 76.28C209.043 76.28 209.507 76.388 209.915 76.604C210.331 76.82 210.655 77.14 210.887 77.564C211.119 77.988 211.235 78.5 211.235 79.1V83H209.879V79.304C209.879 78.712 209.731 78.26 209.435 77.948C209.139 77.628 208.735 77.468 208.223 77.468C207.711 77.468 207.303 77.628 206.999 77.948C206.703 78.26 206.555 78.712 206.555 79.304V83H205.187V76.388H206.555V77.144C206.779 76.872 207.063 76.66 207.407 76.508C207.759 76.356 208.131 76.28 208.523 76.28ZM217.693 77.504V81.164C217.693 81.412 217.749 81.592 217.861 81.704C217.981 81.808 218.181 81.86 218.461 81.86H219.301V83H218.221C217.605 83 217.133 82.856 216.805 82.568C216.477 82.28 216.313 81.812 216.313 81.164V77.504H215.533V76.388H216.313V74.744H217.693V76.388H219.301V77.504H217.693ZM223.982 76.28C224.486 76.28 224.934 76.388 225.326 76.604C225.726 76.82 226.038 77.14 226.262 77.564C226.494 77.988 226.61 78.5 226.61 79.1V83H225.254V79.304C225.254 78.712 225.106 78.26 224.81 77.948C224.514 77.628 224.11 77.468 223.598 77.468C223.086 77.468 222.678 77.628 222.374 77.948C222.078 78.26 221.93 78.712 221.93 79.304V83H220.562V74.12H221.93V77.156C222.162 76.876 222.454 76.66 222.806 76.508C223.166 76.356 223.558 76.28 223.982 76.28ZM234.415 79.532C234.415 79.78 234.399 80.004 234.367 80.204H229.315C229.355 80.732 229.551 81.156 229.903 81.476C230.255 81.796 230.687 81.956 231.199 81.956C231.935 81.956 232.455 81.648 232.759 81.032H234.235C234.035 81.64 233.671 82.14 233.143 82.532C232.623 82.916 231.975 83.108 231.199 83.108C230.567 83.108 229.999 82.968 229.495 82.688C228.999 82.4 228.607 82 228.319 81.488C228.039 80.968 227.899 80.368 227.899 79.688C227.899 79.008 228.035 78.412 228.307 77.9C228.587 77.38 228.975 76.98 229.471 76.7C229.975 76.42 230.551 76.28 231.199 76.28C231.823 76.28 232.379 76.416 232.867 76.688C233.355 76.96 233.735 77.344 234.007 77.84C234.279 78.328 234.415 78.892 234.415 79.532ZM232.987 79.1C232.979 78.596 232.799 78.192 232.447 77.888C232.095 77.584 231.659 77.432 231.139 77.432C230.667 77.432 230.263 77.584 229.927 77.888C229.591 78.184 229.391 78.588 229.327 79.1H232.987ZM241.627 83.084C241.067 83.084 240.563 82.988 240.115 82.796C239.667 82.596 239.315 82.316 239.059 81.956C238.803 81.596 238.675 81.176 238.675 80.696H240.139C240.171 81.056 240.311 81.352 240.559 81.584C240.815 81.816 241.171 81.932 241.627 81.932C242.099 81.932 242.467 81.82 242.731 81.596C242.995 81.364 243.127 81.068 243.127 80.708C243.127 80.428 243.043 80.2 242.875 80.024C242.715 79.848 242.511 79.712 242.263 79.616C242.023 79.52 241.687 79.416 241.255 79.304C240.711 79.16 240.267 79.016 239.923 78.872C239.587 78.72 239.299 78.488 239.059 78.176C238.819 77.864 238.699 77.448 238.699 76.928C238.699 76.448 238.819 76.028 239.059 75.668C239.299 75.308 239.635 75.032 240.067 74.84C240.499 74.648 240.999 74.552 241.567 74.552C242.375 74.552 243.035 74.756 243.547 75.164C244.067 75.564 244.355 76.116 244.411 76.82H242.899C242.875 76.516 242.731 76.256 242.467 76.04C242.203 75.824 241.855 75.716 241.423 75.716C241.031 75.716 240.711 75.816 240.463 76.016C240.215 76.216 240.091 76.504 240.091 76.88C240.091 77.136 240.167 77.348 240.319 77.516C240.479 77.676 240.679 77.804 240.919 77.9C241.159 77.996 241.487 78.1 241.903 78.212C242.455 78.364 242.903 78.516 243.247 78.668C243.599 78.82 243.895 79.056 244.135 79.376C244.383 79.688 244.507 80.108 244.507 80.636C244.507 81.06 244.391 81.46 244.159 81.836C243.935 82.212 243.603 82.516 243.163 82.748C242.731 82.972 242.219 83.084 241.627 83.084ZM245.665 79.688C245.665 79.008 245.801 78.412 246.073 77.9C246.353 77.38 246.737 76.98 247.225 76.7C247.713 76.42 248.273 76.28 248.905 76.28C249.705 76.28 250.365 76.472 250.885 76.856C251.413 77.232 251.769 77.772 251.953 78.476H250.477C250.357 78.148 250.165 77.892 249.901 77.708C249.637 77.524 249.305 77.432 248.905 77.432C248.345 77.432 247.897 77.632 247.561 78.032C247.233 78.424 247.069 78.976 247.069 79.688C247.069 80.4 247.233 80.956 247.561 81.356C247.897 81.756 248.345 81.956 248.905 81.956C249.697 81.956 250.221 81.608 250.477 80.912H251.953C251.761 81.584 251.401 82.12 250.873 82.52C250.345 82.912 249.689 83.108 248.905 83.108C248.273 83.108 247.713 82.968 247.225 82.688C246.737 82.4 246.353 82 246.073 81.488C245.801 80.968 245.665 80.368 245.665 79.688ZM254.684 77.348C254.884 77.012 255.148 76.752 255.476 76.568C255.812 76.376 256.208 76.28 256.664 76.28V77.696H256.316C255.78 77.696 255.372 77.832 255.092 78.104C254.82 78.376 254.684 78.848 254.684 79.52V83H253.316V76.388H254.684V77.348ZM257.465 79.664C257.465 79 257.601 78.412 257.873 77.9C258.153 77.388 258.529 76.992 259.001 76.712C259.481 76.424 260.009 76.28 260.585 76.28C261.105 76.28 261.557 76.384 261.941 76.592C262.333 76.792 262.645 77.044 262.877 77.348V76.388H264.257V83H262.877V82.016C262.645 82.328 262.329 82.588 261.929 82.796C261.529 83.004 261.073 83.108 260.561 83.108C259.993 83.108 259.473 82.964 259.001 82.676C258.529 82.38 258.153 81.972 257.873 81.452C257.601 80.924 257.465 80.328 257.465 79.664ZM262.877 79.688C262.877 79.232 262.781 78.836 262.589 78.5C262.405 78.164 262.161 77.908 261.857 77.732C261.553 77.556 261.225 77.468 260.873 77.468C260.521 77.468 260.193 77.556 259.889 77.732C259.585 77.9 259.337 78.152 259.145 78.488C258.961 78.816 258.869 79.208 258.869 79.664C258.869 80.12 258.961 80.52 259.145 80.864C259.337 81.208 259.585 81.472 259.889 81.656C260.201 81.832 260.529 81.92 260.873 81.92C261.225 81.92 261.553 81.832 261.857 81.656C262.161 81.48 262.405 81.224 262.589 80.888C262.781 80.544 262.877 80.144 262.877 79.688ZM267.65 77.504V81.164C267.65 81.412 267.706 81.592 267.818 81.704C267.938 81.808 268.138 81.86 268.418 81.86H269.258V83H268.178C267.562 83 267.09 82.856 266.762 82.568C266.434 82.28 266.27 81.812 266.27 81.164V77.504H265.49V76.388H266.27V74.744H267.65V76.388H269.258V77.504H267.65ZM270.063 79.688C270.063 79.008 270.199 78.412 270.471 77.9C270.751 77.38 271.135 76.98 271.623 76.7C272.111 76.42 272.671 76.28 273.303 76.28C274.103 76.28 274.763 76.472 275.283 76.856C275.811 77.232 276.167 77.772 276.351 78.476H274.875C274.755 78.148 274.563 77.892 274.299 77.708C274.035 77.524 273.703 77.432 273.303 77.432C272.743 77.432 272.295 77.632 271.959 78.032C271.631 78.424 271.467 78.976 271.467 79.688C271.467 80.4 271.631 80.956 271.959 81.356C272.295 81.756 272.743 81.956 273.303 81.956C274.095 81.956 274.619 81.608 274.875 80.912H276.351C276.159 81.584 275.799 82.12 275.271 82.52C274.743 82.912 274.087 83.108 273.303 83.108C272.671 83.108 272.111 82.968 271.623 82.688C271.135 82.4 270.751 82 270.471 81.488C270.199 80.968 270.063 80.368 270.063 79.688ZM281.134 76.28C281.638 76.28 282.086 76.388 282.478 76.604C282.878 76.82 283.19 77.14 283.414 77.564C283.646 77.988 283.762 78.5 283.762 79.1V83H282.406V79.304C282.406 78.712 282.258 78.26 281.962 77.948C281.666 77.628 281.262 77.468 280.75 77.468C280.238 77.468 279.83 77.628 279.526 77.948C279.23 78.26 279.082 78.712 279.082 79.304V83H277.714V74.12H279.082V77.156C279.314 76.876 279.606 76.66 279.958 76.508C280.318 76.356 280.71 76.28 281.134 76.28ZM289.311 83.084C288.535 83.084 287.819 82.904 287.163 82.544C286.515 82.176 285.999 81.668 285.615 81.02C285.239 80.364 285.051 79.628 285.051 78.812C285.051 77.996 285.239 77.264 285.615 76.616C285.999 75.968 286.515 75.464 287.163 75.104C287.819 74.736 288.535 74.552 289.311 74.552C290.095 74.552 290.811 74.736 291.459 75.104C292.115 75.464 292.631 75.968 293.007 76.616C293.383 77.264 293.571 77.996 293.571 78.812C293.571 79.628 293.383 80.364 293.007 81.02C292.631 81.668 292.115 82.176 291.459 82.544C290.811 82.904 290.095 83.084 289.311 83.084ZM289.311 81.896C289.863 81.896 290.355 81.772 290.787 81.524C291.219 81.268 291.555 80.908 291.795 80.444C292.043 79.972 292.167 79.428 292.167 78.812C292.167 78.196 292.043 77.656 291.795 77.192C291.555 76.728 291.219 76.372 290.787 76.124C290.355 75.876 289.863 75.752 289.311 75.752C288.759 75.752 288.267 75.876 287.835 76.124C287.403 76.372 287.063 76.728 286.815 77.192C286.575 77.656 286.455 78.196 286.455 78.812C286.455 79.428 286.575 79.972 286.815 80.444C287.063 80.908 287.403 81.268 287.835 81.524C288.267 81.772 288.759 81.896 289.311 81.896ZM297.666 83.084C297.106 83.084 296.602 82.988 296.154 82.796C295.706 82.596 295.354 82.316 295.098 81.956C294.842 81.596 294.714 81.176 294.714 80.696H296.178C296.21 81.056 296.35 81.352 296.598 81.584C296.854 81.816 297.21 81.932 297.666 81.932C298.138 81.932 298.506 81.82 298.77 81.596C299.034 81.364 299.166 81.068 299.166 80.708C299.166 80.428 299.082 80.2 298.914 80.024C298.754 79.848 298.55 79.712 298.302 79.616C298.062 79.52 297.726 79.416 297.294 79.304C296.75 79.16 296.306 79.016 295.962 78.872C295.626 78.72 295.338 78.488 295.098 78.176C294.858 77.864 294.738 77.448 294.738 76.928C294.738 76.448 294.858 76.028 295.098 75.668C295.338 75.308 295.674 75.032 296.106 74.84C296.538 74.648 297.038 74.552 297.606 74.552C298.414 74.552 299.074 74.756 299.586 75.164C300.106 75.564 300.394 76.116 300.45 76.82H298.938C298.914 76.516 298.77 76.256 298.506 76.04C298.242 75.824 297.894 75.716 297.462 75.716C297.07 75.716 296.75 75.816 296.502 76.016C296.254 76.216 296.13 76.504 296.13 76.88C296.13 77.136 296.206 77.348 296.358 77.516C296.518 77.676 296.718 77.804 296.958 77.9C297.198 77.996 297.526 78.1 297.942 78.212C298.494 78.364 298.942 78.516 299.286 78.668C299.638 78.82 299.934 79.056 300.174 79.376C300.422 79.688 300.546 80.108 300.546 80.636C300.546 81.06 300.43 81.46 300.198 81.836C299.974 82.212 299.642 82.516 299.202 82.748C298.77 82.972 298.258 83.084 297.666 83.084ZM307.833 81.776L309.705 76.388H311.157L308.637 83H307.005L304.497 76.388H305.961L307.833 81.776ZM318.251 79.532C318.251 79.78 318.235 80.004 318.203 80.204H313.151C313.191 80.732 313.387 81.156 313.739 81.476C314.091 81.796 314.523 81.956 315.035 81.956C315.771 81.956 316.291 81.648 316.595 81.032H318.071C317.871 81.64 317.507 82.14 316.979 82.532C316.459 82.916 315.811 83.108 315.035 83.108C314.403 83.108 313.835 82.968 313.331 82.688C312.835 82.4 312.443 82 312.155 81.488C311.875 80.968 311.735 80.368 311.735 79.688C311.735 79.008 311.871 78.412 312.143 77.9C312.423 77.38 312.811 76.98 313.307 76.7C313.811 76.42 314.387 76.28 315.035 76.28C315.659 76.28 316.215 76.416 316.703 76.688C317.191 76.96 317.571 77.344 317.843 77.84C318.115 78.328 318.251 78.892 318.251 79.532ZM316.823 79.1C316.815 78.596 316.635 78.192 316.283 77.888C315.931 77.584 315.495 77.432 314.975 77.432C314.503 77.432 314.099 77.584 313.763 77.888C313.427 78.184 313.227 78.588 313.163 79.1H316.823ZM320.965 77.348C321.165 77.012 321.429 76.752 321.757 76.568C322.093 76.376 322.489 76.28 322.945 76.28V77.696H322.597C322.061 77.696 321.653 77.832 321.373 78.104C321.101 78.376 320.965 78.848 320.965 79.52V83H319.597V76.388H320.965V77.348ZM326.603 83.108C326.083 83.108 325.615 83.016 325.199 82.832C324.791 82.64 324.467 82.384 324.227 82.064C323.987 81.736 323.859 81.372 323.843 80.972H325.259C325.283 81.252 325.415 81.488 325.655 81.68C325.903 81.864 326.211 81.956 326.579 81.956C326.963 81.956 327.259 81.884 327.467 81.74C327.683 81.588 327.791 81.396 327.791 81.164C327.791 80.916 327.671 80.732 327.431 80.612C327.199 80.492 326.827 80.36 326.315 80.216C325.819 80.08 325.415 79.948 325.103 79.82C324.791 79.692 324.519 79.496 324.287 79.232C324.063 78.968 323.951 78.62 323.951 78.188C323.951 77.836 324.055 77.516 324.263 77.228C324.471 76.932 324.767 76.7 325.151 76.532C325.543 76.364 325.991 76.28 326.495 76.28C327.247 76.28 327.851 76.472 328.307 76.856C328.771 77.232 329.019 77.748 329.051 78.404H327.683C327.659 78.108 327.539 77.872 327.323 77.696C327.107 77.52 326.815 77.432 326.447 77.432C326.087 77.432 325.811 77.5 325.619 77.636C325.427 77.772 325.331 77.952 325.331 78.176C325.331 78.352 325.395 78.5 325.523 78.62C325.651 78.74 325.807 78.836 325.991 78.908C326.175 78.972 326.447 79.056 326.807 79.16C327.287 79.288 327.679 79.42 327.983 79.556C328.295 79.684 328.563 79.876 328.787 80.132C329.011 80.388 329.127 80.728 329.135 81.152C329.135 81.528 329.031 81.864 328.823 82.16C328.615 82.456 328.319 82.688 327.935 82.856C327.559 83.024 327.115 83.108 326.603 83.108ZM331.309 75.512C331.061 75.512 330.853 75.428 330.685 75.26C330.517 75.092 330.433 74.884 330.433 74.636C330.433 74.388 330.517 74.18 330.685 74.012C330.853 73.844 331.061 73.76 331.309 73.76C331.549 73.76 331.753 73.844 331.921 74.012C332.089 74.18 332.173 74.388 332.173 74.636C332.173 74.884 332.089 75.092 331.921 75.26C331.753 75.428 331.549 75.512 331.309 75.512ZM331.981 76.388V83H330.613V76.388H331.981ZM336.645 83.108C336.021 83.108 335.457 82.968 334.953 82.688C334.449 82.4 334.053 82 333.765 81.488C333.477 80.968 333.333 80.368 333.333 79.688C333.333 79.016 333.481 78.42 333.777 77.9C334.073 77.38 334.477 76.98 334.989 76.7C335.501 76.42 336.073 76.28 336.705 76.28C337.337 76.28 337.909 76.42 338.421 76.7C338.933 76.98 339.337 77.38 339.633 77.9C339.929 78.42 340.077 79.016 340.077 79.688C340.077 80.36 339.925 80.956 339.621 81.476C339.317 81.996 338.901 82.4 338.373 82.688C337.853 82.968 337.277 83.108 336.645 83.108ZM336.645 81.92C336.997 81.92 337.325 81.836 337.629 81.668C337.941 81.5 338.193 81.248 338.385 80.912C338.577 80.576 338.673 80.168 338.673 79.688C338.673 79.208 338.581 78.804 338.397 78.476C338.213 78.14 337.969 77.888 337.665 77.72C337.361 77.552 337.033 77.468 336.681 77.468C336.329 77.468 336.001 77.552 335.697 77.72C335.401 77.888 335.165 78.14 334.989 78.476C334.813 78.804 334.725 79.208 334.725 79.688C334.725 80.4 334.905 80.952 335.265 81.344C335.633 81.728 336.093 81.92 336.645 81.92ZM344.765 76.28C345.285 76.28 345.749 76.388 346.157 76.604C346.573 76.82 346.897 77.14 347.129 77.564C347.361 77.988 347.477 78.5 347.477 79.1V83H346.121V79.304C346.121 78.712 345.973 78.26 345.677 77.948C345.381 77.628 344.977 77.468 344.465 77.468C343.953 77.468 343.545 77.628 343.241 77.948C342.945 78.26 342.797 78.712 342.797 79.304V83H341.429V76.388H342.797V77.144C343.021 76.872 343.305 76.66 343.649 76.508C344.001 76.356 344.373 76.28 344.765 76.28ZM355.675 76.28C356.195 76.28 356.659 76.388 357.067 76.604C357.483 76.82 357.807 77.14 358.039 77.564C358.271 77.988 358.387 78.5 358.387 79.1V83H357.031V79.304C357.031 78.712 356.883 78.26 356.587 77.948C356.291 77.628 355.887 77.468 355.375 77.468C354.863 77.468 354.455 77.628 354.151 77.948C353.855 78.26 353.707 78.712 353.707 79.304V83H352.339V76.388H353.707V77.144C353.931 76.872 354.215 76.66 354.559 76.508C354.911 76.356 355.283 76.28 355.675 76.28ZM366.12 76.388V83H364.752V82.22C364.536 82.492 364.252 82.708 363.9 82.868C363.556 83.02 363.188 83.096 362.796 83.096C362.276 83.096 361.808 82.988 361.392 82.772C360.984 82.556 360.66 82.236 360.42 81.812C360.188 81.388 360.072 80.876 360.072 80.276V76.388H361.428V80.072C361.428 80.664 361.576 81.12 361.872 81.44C362.168 81.752 362.572 81.908 363.084 81.908C363.596 81.908 364 81.752 364.296 81.44C364.6 81.12 364.752 80.664 364.752 80.072V76.388H366.12ZM375.929 76.28C376.449 76.28 376.913 76.388 377.321 76.604C377.737 76.82 378.061 77.14 378.293 77.564C378.533 77.988 378.653 78.5 378.653 79.1V83H377.297V79.304C377.297 78.712 377.149 78.26 376.853 77.948C376.557 77.628 376.153 77.468 375.641 77.468C375.129 77.468 374.721 77.628 374.417 77.948C374.121 78.26 373.973 78.712 373.973 79.304V83H372.617V79.304C372.617 78.712 372.469 78.26 372.173 77.948C371.877 77.628 371.473 77.468 370.961 77.468C370.449 77.468 370.041 77.628 369.737 77.948C369.441 78.26 369.293 78.712 369.293 79.304V83H367.925V76.388H369.293V77.144C369.517 76.872 369.801 76.66 370.145 76.508C370.489 76.356 370.857 76.28 371.249 76.28C371.777 76.28 372.249 76.392 372.665 76.616C373.081 76.84 373.401 77.164 373.625 77.588C373.825 77.188 374.137 76.872 374.561 76.64C374.985 76.4 375.441 76.28 375.929 76.28ZM381.762 77.372C381.994 77.052 382.31 76.792 382.71 76.592C383.118 76.384 383.57 76.28 384.066 76.28C384.65 76.28 385.178 76.42 385.65 76.7C386.122 76.98 386.494 77.38 386.766 77.9C387.038 78.412 387.174 79 387.174 79.664C387.174 80.328 387.038 80.924 386.766 81.452C386.494 81.972 386.118 82.38 385.638 82.676C385.166 82.964 384.642 83.108 384.066 83.108C383.554 83.108 383.098 83.008 382.698 82.808C382.306 82.608 381.994 82.352 381.762 82.04V83H380.394V74.12H381.762V77.372ZM385.782 79.664C385.782 79.208 385.686 78.816 385.494 78.488C385.31 78.152 385.062 77.9 384.75 77.732C384.446 77.556 384.118 77.468 383.766 77.468C383.422 77.468 383.094 77.556 382.782 77.732C382.478 77.908 382.23 78.164 382.038 78.5C381.854 78.836 381.762 79.232 381.762 79.688C381.762 80.144 381.854 80.544 382.038 80.888C382.23 81.224 382.478 81.48 382.782 81.656C383.094 81.832 383.422 81.92 383.766 81.92C384.118 81.92 384.446 81.832 384.75 81.656C385.062 81.472 385.31 81.208 385.494 80.864C385.686 80.52 385.782 80.12 385.782 79.664ZM394.587 79.532C394.587 79.78 394.571 80.004 394.539 80.204H389.487C389.527 80.732 389.723 81.156 390.075 81.476C390.427 81.796 390.859 81.956 391.371 81.956C392.107 81.956 392.627 81.648 392.931 81.032H394.407C394.207 81.64 393.843 82.14 393.315 82.532C392.795 82.916 392.147 83.108 391.371 83.108C390.739 83.108 390.171 82.968 389.667 82.688C389.171 82.4 388.779 82 388.491 81.488C388.211 80.968 388.071 80.368 388.071 79.688C388.071 79.008 388.207 78.412 388.479 77.9C388.759 77.38 389.147 76.98 389.643 76.7C390.147 76.42 390.723 76.28 391.371 76.28C391.995 76.28 392.551 76.416 393.039 76.688C393.527 76.96 393.907 77.344 394.179 77.84C394.451 78.328 394.587 78.892 394.587 79.532ZM393.159 79.1C393.151 78.596 392.971 78.192 392.619 77.888C392.267 77.584 391.831 77.432 391.311 77.432C390.839 77.432 390.435 77.584 390.099 77.888C389.763 78.184 389.563 78.588 389.499 79.1H393.159ZM397.301 77.348C397.501 77.012 397.765 76.752 398.093 76.568C398.429 76.376 398.825 76.28 399.281 76.28V77.696H398.933C398.397 77.696 397.989 77.832 397.709 78.104C397.437 78.376 397.301 78.848 397.301 79.52V83H395.933V76.388H397.301V77.348ZM401.091 83.084C400.843 83.084 400.635 83 400.467 82.832C400.299 82.664 400.215 82.456 400.215 82.208C400.215 81.96 400.299 81.752 400.467 81.584C400.635 81.416 400.843 81.332 401.091 81.332C401.331 81.332 401.535 81.416 401.703 81.584C401.871 81.752 401.955 81.96 401.955 82.208C401.955 82.456 401.871 82.664 401.703 82.832C401.535 83 401.331 83.084 401.091 83.084Z" fill="black"/>
</svg>
