<svg width="480" height="360" viewBox="0 0 480 360" fill="none" xmlns="http://www.w3.org/2000/svg">
<g clip-path="url(#clip0_153_337)">
<path d="M174.864 31.112C174.117 31.112 173.445 30.984 172.848 30.728C172.251 30.4613 171.781 30.088 171.44 29.608C171.099 29.128 170.928 28.568 170.928 27.928H172.88C172.923 28.408 173.109 28.8027 173.44 29.112C173.781 29.4213 174.256 29.576 174.864 29.576C175.493 29.576 175.984 29.4267 176.336 29.128C176.688 28.8187 176.864 28.424 176.864 27.944C176.864 27.5707 176.752 27.2667 176.528 27.032C176.315 26.7973 176.043 26.616 175.712 26.488C175.392 26.36 174.944 26.2213 174.368 26.072C173.643 25.88 173.051 25.688 172.592 25.496C172.144 25.2933 171.76 24.984 171.44 24.568C171.12 24.152 170.96 23.5973 170.96 22.904C170.96 22.264 171.12 21.704 171.44 21.224C171.76 20.744 172.208 20.376 172.784 20.12C173.36 19.864 174.027 19.736 174.784 19.736C175.861 19.736 176.741 20.008 177.424 20.552C178.117 21.0853 178.501 21.8213 178.576 22.76H176.56C176.528 22.3547 176.336 22.008 175.984 21.72C175.632 21.432 175.168 21.288 174.592 21.288C174.069 21.288 173.643 21.4213 173.312 21.688C172.981 21.9547 172.816 22.3387 172.816 22.84C172.816 23.1813 172.917 23.464 173.12 23.688C173.333 23.9013 173.6 24.072 173.92 24.2C174.24 24.328 174.677 24.4667 175.232 24.616C175.968 24.8187 176.565 25.0213 177.024 25.224C177.493 25.4267 177.888 25.7413 178.208 26.168C178.539 26.584 178.704 27.144 178.704 27.848C178.704 28.4133 178.549 28.9467 178.24 29.448C177.941 29.9493 177.499 30.3547 176.912 30.664C176.336 30.9627 175.653 31.112 174.864 31.112ZM180.248 26.552C180.248 25.6667 180.43 24.8827 180.792 24.2C181.166 23.5173 181.667 22.9893 182.296 22.616C182.936 22.232 183.64 22.04 184.408 22.04C185.102 22.04 185.704 22.1787 186.216 22.456C186.739 22.7227 187.155 23.0587 187.464 23.464V22.184H189.304V31H187.464V29.688C187.155 30.104 186.734 30.4507 186.2 30.728C185.667 31.0053 185.059 31.144 184.376 31.144C183.619 31.144 182.926 30.952 182.296 30.568C181.667 30.1733 181.166 29.6293 180.792 28.936C180.43 28.232 180.248 27.4373 180.248 26.552ZM187.464 26.584C187.464 25.976 187.336 25.448 187.08 25C186.835 24.552 186.51 24.2107 186.104 23.976C185.699 23.7413 185.262 23.624 184.792 23.624C184.323 23.624 183.886 23.7413 183.48 23.976C183.075 24.2 182.744 24.536 182.488 24.984C182.243 25.4213 182.12 25.944 182.12 26.552C182.12 27.16 182.243 27.6933 182.488 28.152C182.744 28.6107 183.075 28.9627 183.48 29.208C183.896 29.4427 184.334 29.56 184.792 29.56C185.262 29.56 185.699 29.4427 186.104 29.208C186.51 28.9733 186.835 28.632 187.08 28.184C187.336 27.7253 187.464 27.192 187.464 26.584ZM195.108 29.368L197.604 22.184H199.54L196.18 31H194.004L190.66 22.184H192.612L195.108 29.368ZM208.999 26.376C208.999 26.7067 208.977 27.0053 208.935 27.272H202.199C202.252 27.976 202.513 28.5413 202.983 28.968C203.452 29.3947 204.028 29.608 204.711 29.608C205.692 29.608 206.385 29.1973 206.791 28.376H208.759C208.492 29.1867 208.007 29.8533 207.303 30.376C206.609 30.888 205.745 31.144 204.711 31.144C203.868 31.144 203.111 30.9573 202.439 30.584C201.777 30.2 201.255 29.6667 200.871 28.984C200.497 28.2907 200.311 27.4907 200.311 26.584C200.311 25.6773 200.492 24.8827 200.855 24.2C201.228 23.5067 201.745 22.9733 202.407 22.6C203.079 22.2267 203.847 22.04 204.711 22.04C205.543 22.04 206.284 22.2213 206.935 22.584C207.585 22.9467 208.092 23.4587 208.455 24.12C208.817 24.7707 208.999 25.5227 208.999 26.376ZM207.095 25.8C207.084 25.128 206.844 24.5893 206.375 24.184C205.905 23.7787 205.324 23.576 204.631 23.576C204.001 23.576 203.463 23.7787 203.015 24.184C202.567 24.5787 202.3 25.1173 202.215 25.8H207.095Z" fill="white"/>
<path d="M177.752 69H176.384L172.268 62.772V69H170.9V60.648H172.268L176.384 66.864V60.648H177.752V69ZM179.092 65.664C179.092 65 179.228 64.412 179.5 63.9C179.78 63.388 180.156 62.992 180.628 62.712C181.108 62.424 181.636 62.28 182.212 62.28C182.732 62.28 183.184 62.384 183.568 62.592C183.96 62.792 184.272 63.044 184.504 63.348V62.388H185.884V69H184.504V68.016C184.272 68.328 183.956 68.588 183.556 68.796C183.156 69.004 182.7 69.108 182.188 69.108C181.62 69.108 181.1 68.964 180.628 68.676C180.156 68.38 179.78 67.972 179.5 67.452C179.228 66.924 179.092 66.328 179.092 65.664ZM184.504 65.688C184.504 65.232 184.408 64.836 184.216 64.5C184.032 64.164 183.788 63.908 183.484 63.732C183.18 63.556 182.852 63.468 182.5 63.468C182.148 63.468 181.82 63.556 181.516 63.732C181.212 63.9 180.964 64.152 180.772 64.488C180.588 64.816 180.496 65.208 180.496 65.664C180.496 66.12 180.588 66.52 180.772 66.864C180.964 67.208 181.212 67.472 181.516 67.656C181.828 67.832 182.156 67.92 182.5 67.92C182.852 67.92 183.18 67.832 183.484 67.656C183.788 67.48 184.032 67.224 184.216 66.888C184.408 66.544 184.504 66.144 184.504 65.688ZM195.685 62.28C196.205 62.28 196.669 62.388 197.077 62.604C197.493 62.82 197.817 63.14 198.049 63.564C198.289 63.988 198.409 64.5 198.409 65.1V69H197.053V65.304C197.053 64.712 196.905 64.26 196.609 63.948C196.313 63.628 195.909 63.468 195.397 63.468C194.885 63.468 194.477 63.628 194.173 63.948C193.877 64.26 193.729 64.712 193.729 65.304V69H192.373V65.304C192.373 64.712 192.225 64.26 191.929 63.948C191.633 63.628 191.229 63.468 190.717 63.468C190.205 63.468 189.797 63.628 189.493 63.948C189.197 64.26 189.049 64.712 189.049 65.304V69H187.681V62.388H189.049V63.144C189.273 62.872 189.557 62.66 189.901 62.508C190.245 62.356 190.613 62.28 191.005 62.28C191.533 62.28 192.005 62.392 192.421 62.616C192.837 62.84 193.157 63.164 193.381 63.588C193.581 63.188 193.893 62.872 194.317 62.64C194.741 62.4 195.197 62.28 195.685 62.28ZM206.21 65.532C206.21 65.78 206.194 66.004 206.162 66.204H201.11C201.15 66.732 201.346 67.156 201.698 67.476C202.05 67.796 202.482 67.956 202.994 67.956C203.73 67.956 204.25 67.648 204.554 67.032H206.03C205.83 67.64 205.466 68.14 204.938 68.532C204.418 68.916 203.77 69.108 202.994 69.108C202.362 69.108 201.794 68.968 201.29 68.688C200.794 68.4 200.402 68 200.114 67.488C199.834 66.968 199.694 66.368 199.694 65.688C199.694 65.008 199.83 64.412 200.102 63.9C200.382 63.38 200.77 62.98 201.266 62.7C201.77 62.42 202.346 62.28 202.994 62.28C203.618 62.28 204.174 62.416 204.662 62.688C205.15 62.96 205.53 63.344 205.802 63.84C206.074 64.328 206.21 64.892 206.21 65.532ZM204.782 65.1C204.774 64.596 204.594 64.192 204.242 63.888C203.89 63.584 203.454 63.432 202.934 63.432C202.462 63.432 202.058 63.584 201.722 63.888C201.386 64.184 201.186 64.588 201.122 65.1H204.782Z" fill="white"/>
<path d="M302.624 60.66C303.512 60.66 304.288 60.832 304.952 61.176C305.624 61.512 306.14 62 306.5 62.64C306.868 63.272 307.052 64.012 307.052 64.86C307.052 65.708 306.868 66.444 306.5 67.068C306.14 67.692 305.624 68.172 304.952 68.508C304.288 68.836 303.512 69 302.624 69H299.9V60.66H302.624ZM302.624 67.884C303.6 67.884 304.348 67.62 304.868 67.092C305.388 66.564 305.648 65.82 305.648 64.86C305.648 63.892 305.388 63.136 304.868 62.592C304.348 62.048 303.6 61.776 302.624 61.776H301.268V67.884H302.624ZM307.952 65.664C307.952 65 308.088 64.412 308.36 63.9C308.64 63.388 309.016 62.992 309.488 62.712C309.968 62.424 310.496 62.28 311.072 62.28C311.592 62.28 312.044 62.384 312.428 62.592C312.82 62.792 313.132 63.044 313.364 63.348V62.388H314.744V69H313.364V68.016C313.132 68.328 312.816 68.588 312.416 68.796C312.016 69.004 311.56 69.108 311.048 69.108C310.48 69.108 309.96 68.964 309.488 68.676C309.016 68.38 308.64 67.972 308.36 67.452C308.088 66.924 307.952 66.328 307.952 65.664ZM313.364 65.688C313.364 65.232 313.268 64.836 313.076 64.5C312.892 64.164 312.648 63.908 312.344 63.732C312.04 63.556 311.712 63.468 311.36 63.468C311.008 63.468 310.68 63.556 310.376 63.732C310.072 63.9 309.824 64.152 309.632 64.488C309.448 64.816 309.356 65.208 309.356 65.664C309.356 66.12 309.448 66.52 309.632 66.864C309.824 67.208 310.072 67.472 310.376 67.656C310.688 67.832 311.016 67.92 311.36 67.92C311.712 67.92 312.04 67.832 312.344 67.656C312.648 67.48 312.892 67.224 313.076 66.888C313.268 66.544 313.364 66.144 313.364 65.688ZM318.137 63.504V67.164C318.137 67.412 318.193 67.592 318.305 67.704C318.425 67.808 318.625 67.86 318.905 67.86H319.745V69H318.665C318.049 69 317.577 68.856 317.249 68.568C316.921 68.28 316.757 67.812 316.757 67.164V63.504H315.977V62.388H316.757V60.744H318.137V62.388H319.745V63.504H318.137ZM327.065 65.532C327.065 65.78 327.049 66.004 327.017 66.204H321.965C322.005 66.732 322.201 67.156 322.553 67.476C322.905 67.796 323.337 67.956 323.849 67.956C324.585 67.956 325.105 67.648 325.409 67.032H326.885C326.685 67.64 326.321 68.14 325.793 68.532C325.273 68.916 324.625 69.108 323.849 69.108C323.217 69.108 322.649 68.968 322.145 68.688C321.649 68.4 321.257 68 320.969 67.488C320.689 66.968 320.549 66.368 320.549 65.688C320.549 65.008 320.685 64.412 320.957 63.9C321.237 63.38 321.625 62.98 322.121 62.7C322.625 62.42 323.201 62.28 323.849 62.28C324.473 62.28 325.029 62.416 325.517 62.688C326.005 62.96 326.385 63.344 326.657 63.84C326.929 64.328 327.065 64.892 327.065 65.532ZM325.637 65.1C325.629 64.596 325.449 64.192 325.097 63.888C324.745 63.584 324.309 63.432 323.789 63.432C323.317 63.432 322.913 63.584 322.577 63.888C322.241 64.184 322.041 64.588 321.977 65.1H325.637Z" fill="white"/>
<path d="M387.648 69.084C387.088 69.084 386.584 68.988 386.136 68.796C385.688 68.596 385.336 68.316 385.08 67.956C384.824 67.596 384.696 67.176 384.696 66.696H386.16C386.192 67.056 386.332 67.352 386.58 67.584C386.836 67.816 387.192 67.932 387.648 67.932C388.12 67.932 388.488 67.82 388.752 67.596C389.016 67.364 389.148 67.068 389.148 66.708C389.148 66.428 389.064 66.2 388.896 66.024C388.736 65.848 388.532 65.712 388.284 65.616C388.044 65.52 387.708 65.416 387.276 65.304C386.732 65.16 386.288 65.016 385.944 64.872C385.608 64.72 385.32 64.488 385.08 64.176C384.84 63.864 384.72 63.448 384.72 62.928C384.72 62.448 384.84 62.028 385.08 61.668C385.32 61.308 385.656 61.032 386.088 60.84C386.52 60.648 387.02 60.552 387.588 60.552C388.396 60.552 389.056 60.756 389.568 61.164C390.088 61.564 390.376 62.116 390.432 62.82H388.92C388.896 62.516 388.752 62.256 388.488 62.04C388.224 61.824 387.876 61.716 387.444 61.716C387.052 61.716 386.732 61.816 386.484 62.016C386.236 62.216 386.112 62.504 386.112 62.88C386.112 63.136 386.188 63.348 386.34 63.516C386.5 63.676 386.7 63.804 386.94 63.9C387.18 63.996 387.508 64.1 387.924 64.212C388.476 64.364 388.924 64.516 389.268 64.668C389.62 64.82 389.916 65.056 390.156 65.376C390.404 65.688 390.528 66.108 390.528 66.636C390.528 67.06 390.412 67.46 390.18 67.836C389.956 68.212 389.624 68.516 389.184 68.748C388.752 68.972 388.24 69.084 387.648 69.084ZM392.838 61.512C392.59 61.512 392.382 61.428 392.214 61.26C392.046 61.092 391.962 60.884 391.962 60.636C391.962 60.388 392.046 60.18 392.214 60.012C392.382 59.844 392.59 59.76 392.838 59.76C393.078 59.76 393.282 59.844 393.45 60.012C393.618 60.18 393.702 60.388 393.702 60.636C393.702 60.884 393.618 61.092 393.45 61.26C393.282 61.428 393.078 61.512 392.838 61.512ZM393.51 62.388V69H392.142V62.388H393.51ZM396.518 67.884H399.518V69H394.934V67.884L397.946 63.504H394.934V62.388H399.518V63.504L396.518 67.884ZM407.015 65.532C407.015 65.78 406.999 66.004 406.967 66.204H401.915C401.955 66.732 402.151 67.156 402.503 67.476C402.855 67.796 403.287 67.956 403.799 67.956C404.535 67.956 405.055 67.648 405.359 67.032H406.835C406.635 67.64 406.271 68.14 405.743 68.532C405.223 68.916 404.575 69.108 403.799 69.108C403.167 69.108 402.599 68.968 402.095 68.688C401.599 68.4 401.207 68 400.919 67.488C400.639 66.968 400.499 66.368 400.499 65.688C400.499 65.008 400.635 64.412 400.907 63.9C401.187 63.38 401.575 62.98 402.071 62.7C402.575 62.42 403.151 62.28 403.799 62.28C404.423 62.28 404.979 62.416 405.467 62.688C405.955 62.96 406.335 63.344 406.607 63.84C406.879 64.328 407.015 64.892 407.015 65.532ZM405.587 65.1C405.579 64.596 405.399 64.192 405.047 63.888C404.695 63.584 404.259 63.432 403.739 63.432C403.267 63.432 402.863 63.584 402.527 63.888C402.191 64.184 401.991 64.588 401.927 65.1H405.587Z" fill="white"/>
<path d="M170.37 322.51C170.37 321.83 170.527 321.22 170.84 320.68C171.16 320.14 171.59 319.72 172.13 319.42C172.677 319.113 173.273 318.96 173.92 318.96C174.66 318.96 175.317 319.143 175.89 319.51C176.47 319.87 176.89 320.383 177.15 321.05H175.78C175.6 320.683 175.35 320.41 175.03 320.23C174.71 320.05 174.34 319.96 173.92 319.96C173.46 319.96 173.05 320.063 172.69 320.27C172.33 320.477 172.047 320.773 171.84 321.16C171.64 321.547 171.54 321.997 171.54 322.51C171.54 323.023 171.64 323.473 171.84 323.86C172.047 324.247 172.33 324.547 172.69 324.76C173.05 324.967 173.46 325.07 173.92 325.07C174.34 325.07 174.71 324.98 175.03 324.8C175.35 324.62 175.6 324.347 175.78 323.98H177.15C176.89 324.647 176.47 325.16 175.89 325.52C175.317 325.88 174.66 326.06 173.92 326.06C173.267 326.06 172.67 325.91 172.13 325.61C171.59 325.303 171.16 324.88 170.84 324.34C170.527 323.8 170.37 323.19 170.37 322.51ZM179.624 318.6V326H178.484V318.6H179.624ZM181.701 319.76C181.494 319.76 181.321 319.69 181.181 319.55C181.041 319.41 180.971 319.237 180.971 319.03C180.971 318.823 181.041 318.65 181.181 318.51C181.321 318.37 181.494 318.3 181.701 318.3C181.901 318.3 182.071 318.37 182.211 318.51C182.351 318.65 182.421 318.823 182.421 319.03C182.421 319.237 182.351 319.41 182.211 319.55C182.071 319.69 181.901 319.76 181.701 319.76ZM182.261 320.49V326H181.121V320.49H182.261ZM183.378 323.24C183.378 322.673 183.491 322.177 183.718 321.75C183.951 321.317 184.271 320.983 184.678 320.75C185.084 320.517 185.551 320.4 186.078 320.4C186.744 320.4 187.294 320.56 187.728 320.88C188.168 321.193 188.464 321.643 188.618 322.23H187.388C187.288 321.957 187.128 321.743 186.908 321.59C186.688 321.437 186.411 321.36 186.078 321.36C185.611 321.36 185.238 321.527 184.958 321.86C184.684 322.187 184.548 322.647 184.548 323.24C184.548 323.833 184.684 324.297 184.958 324.63C185.238 324.963 185.611 325.13 186.078 325.13C186.738 325.13 187.174 324.84 187.388 324.26H188.618C188.458 324.82 188.158 325.267 187.718 325.6C187.278 325.927 186.731 326.09 186.078 326.09C185.551 326.09 185.084 325.973 184.678 325.74C184.271 325.5 183.951 325.167 183.718 324.74C183.491 324.307 183.378 323.807 183.378 323.24ZM191.934 323.25L194.474 326H192.934L190.894 323.63V326H189.754V318.6H190.894V322.9L192.894 320.49H194.474L191.934 323.25ZM200.279 326.09C199.759 326.09 199.289 325.973 198.869 325.74C198.449 325.5 198.119 325.167 197.879 324.74C197.639 324.307 197.519 323.807 197.519 323.24C197.519 322.68 197.642 322.183 197.889 321.75C198.135 321.317 198.472 320.983 198.899 320.75C199.325 320.517 199.802 320.4 200.329 320.4C200.855 320.4 201.332 320.517 201.759 320.75C202.185 320.983 202.522 321.317 202.769 321.75C203.015 322.183 203.139 322.68 203.139 323.24C203.139 323.8 203.012 324.297 202.759 324.73C202.505 325.163 202.159 325.5 201.719 325.74C201.285 325.973 200.805 326.09 200.279 326.09ZM200.279 325.1C200.572 325.1 200.845 325.03 201.099 324.89C201.359 324.75 201.569 324.54 201.729 324.26C201.889 323.98 201.969 323.64 201.969 323.24C201.969 322.84 201.892 322.503 201.739 322.23C201.585 321.95 201.382 321.74 201.129 321.6C200.875 321.46 200.602 321.39 200.309 321.39C200.015 321.39 199.742 321.46 199.489 321.6C199.242 321.74 199.045 321.95 198.899 322.23C198.752 322.503 198.679 322.84 198.679 323.24C198.679 323.833 198.829 324.293 199.129 324.62C199.435 324.94 199.819 325.1 200.279 325.1ZM207.046 320.4C207.479 320.4 207.866 320.49 208.206 320.67C208.552 320.85 208.822 321.117 209.016 321.47C209.209 321.823 209.306 322.25 209.306 322.75V326H208.176V322.92C208.176 322.427 208.052 322.05 207.806 321.79C207.559 321.523 207.222 321.39 206.796 321.39C206.369 321.39 206.029 321.523 205.776 321.79C205.529 322.05 205.406 322.427 205.406 322.92V326H204.266V320.49H205.406V321.12C205.592 320.893 205.829 320.717 206.116 320.59C206.409 320.463 206.719 320.4 207.046 320.4ZM212.977 323.22C212.977 322.667 213.091 322.177 213.317 321.75C213.551 321.323 213.864 320.993 214.257 320.76C214.657 320.52 215.097 320.4 215.577 320.4C216.011 320.4 216.387 320.487 216.707 320.66C217.034 320.827 217.294 321.037 217.487 321.29V320.49H218.637V326H217.487V325.18C217.294 325.44 217.031 325.657 216.697 325.83C216.364 326.003 215.984 326.09 215.557 326.09C215.084 326.09 214.651 325.97 214.257 325.73C213.864 325.483 213.551 325.143 213.317 324.71C213.091 324.27 212.977 323.773 212.977 323.22ZM217.487 323.24C217.487 322.86 217.407 322.53 217.247 322.25C217.094 321.97 216.891 321.757 216.637 321.61C216.384 321.463 216.111 321.39 215.817 321.39C215.524 321.39 215.251 321.463 214.997 321.61C214.744 321.75 214.537 321.96 214.377 322.24C214.224 322.513 214.147 322.84 214.147 323.22C214.147 323.6 214.224 323.933 214.377 324.22C214.537 324.507 214.744 324.727 214.997 324.88C215.257 325.027 215.531 325.1 215.817 325.1C216.111 325.1 216.384 325.027 216.637 324.88C216.891 324.733 217.094 324.52 217.247 324.24C217.407 323.953 217.487 323.62 217.487 323.24ZM222.915 320.4C223.348 320.4 223.735 320.49 224.075 320.67C224.421 320.85 224.691 321.117 224.885 321.47C225.078 321.823 225.175 322.25 225.175 322.75V326H224.045V322.92C224.045 322.427 223.921 322.05 223.675 321.79C223.428 321.523 223.091 321.39 222.665 321.39C222.238 321.39 221.898 321.523 221.645 321.79C221.398 322.05 221.275 322.427 221.275 322.92V326H220.135V320.49H221.275V321.12C221.461 320.893 221.698 320.717 221.985 320.59C222.278 320.463 222.588 320.4 222.915 320.4ZM234.277 323.11C234.277 323.317 234.263 323.503 234.237 323.67H230.027C230.06 324.11 230.223 324.463 230.517 324.73C230.81 324.997 231.17 325.13 231.597 325.13C232.21 325.13 232.643 324.873 232.897 324.36H234.127C233.96 324.867 233.657 325.283 233.217 325.61C232.783 325.93 232.243 326.09 231.597 326.09C231.07 326.09 230.597 325.973 230.177 325.74C229.763 325.5 229.437 325.167 229.197 324.74C228.963 324.307 228.847 323.807 228.847 323.24C228.847 322.673 228.96 322.177 229.187 321.75C229.42 321.317 229.743 320.983 230.157 320.75C230.577 320.517 231.057 320.4 231.597 320.4C232.117 320.4 232.58 320.513 232.987 320.74C233.393 320.967 233.71 321.287 233.937 321.7C234.163 322.107 234.277 322.577 234.277 323.11ZM233.087 322.75C233.08 322.33 232.93 321.993 232.637 321.74C232.343 321.487 231.98 321.36 231.547 321.36C231.153 321.36 230.817 321.487 230.537 321.74C230.257 321.987 230.09 322.323 230.037 322.75H233.087ZM237.758 323.21L239.538 326H238.248L237.058 324.13L235.938 326H234.748L236.528 323.29L234.748 320.49H236.038L237.228 322.36L238.348 320.49H239.538L237.758 323.21ZM240.969 319.76C240.762 319.76 240.589 319.69 240.449 319.55C240.309 319.41 240.239 319.237 240.239 319.03C240.239 318.823 240.309 318.65 240.449 318.51C240.589 318.37 240.762 318.3 240.969 318.3C241.169 318.3 241.339 318.37 241.479 318.51C241.619 318.65 241.689 318.823 241.689 319.03C241.689 319.237 241.619 319.41 241.479 319.55C241.339 319.69 241.169 319.76 240.969 319.76ZM241.529 320.49V326H240.389V320.49H241.529ZM245.025 326.09C244.592 326.09 244.202 326.013 243.855 325.86C243.515 325.7 243.245 325.487 243.045 325.22C242.845 324.947 242.739 324.643 242.725 324.31H243.905C243.925 324.543 244.035 324.74 244.235 324.9C244.442 325.053 244.699 325.13 245.005 325.13C245.325 325.13 245.572 325.07 245.745 324.95C245.925 324.823 246.015 324.663 246.015 324.47C246.015 324.263 245.915 324.11 245.715 324.01C245.522 323.91 245.212 323.8 244.785 323.68C244.372 323.567 244.035 323.457 243.775 323.35C243.515 323.243 243.289 323.08 243.095 322.86C242.909 322.64 242.815 322.35 242.815 321.99C242.815 321.697 242.902 321.43 243.075 321.19C243.249 320.943 243.495 320.75 243.815 320.61C244.142 320.47 244.515 320.4 244.935 320.4C245.562 320.4 246.065 320.56 246.445 320.88C246.832 321.193 247.039 321.623 247.065 322.17H245.925C245.905 321.923 245.805 321.727 245.625 321.58C245.445 321.433 245.202 321.36 244.895 321.36C244.595 321.36 244.365 321.417 244.205 321.53C244.045 321.643 243.965 321.793 243.965 321.98C243.965 322.127 244.019 322.25 244.125 322.35C244.232 322.45 244.362 322.53 244.515 322.59C244.669 322.643 244.895 322.713 245.195 322.8C245.595 322.907 245.922 323.017 246.175 323.13C246.435 323.237 246.659 323.397 246.845 323.61C247.032 323.823 247.129 324.107 247.135 324.46C247.135 324.773 247.049 325.053 246.875 325.3C246.702 325.547 246.455 325.74 246.135 325.88C245.822 326.02 245.452 326.09 245.025 326.09ZM249.697 321.42V324.47C249.697 324.677 249.744 324.827 249.837 324.92C249.937 325.007 250.104 325.05 250.337 325.05H251.037V326H250.137C249.624 326 249.231 325.88 248.957 325.64C248.684 325.4 248.547 325.01 248.547 324.47V321.42H247.897V320.49H248.547V319.12H249.697V320.49H251.037V321.42H249.697ZM252.668 319.76C252.461 319.76 252.288 319.69 252.148 319.55C252.008 319.41 251.938 319.237 251.938 319.03C251.938 318.823 252.008 318.65 252.148 318.51C252.288 318.37 252.461 318.3 252.668 318.3C252.868 318.3 253.038 318.37 253.178 318.51C253.318 318.65 253.388 318.823 253.388 319.03C253.388 319.237 253.318 319.41 253.178 319.55C253.038 319.69 252.868 319.76 252.668 319.76ZM253.228 320.49V326H252.088V320.49H253.228ZM257.505 320.4C257.938 320.4 258.325 320.49 258.665 320.67C259.011 320.85 259.281 321.117 259.475 321.47C259.668 321.823 259.765 322.25 259.765 322.75V326H258.635V322.92C258.635 322.427 258.511 322.05 258.265 321.79C258.018 321.523 257.681 321.39 257.255 321.39C256.828 321.39 256.488 321.523 256.235 321.79C255.988 322.05 255.865 322.427 255.865 322.92V326H254.725V320.49H255.865V321.12C256.051 320.893 256.288 320.717 256.575 320.59C256.868 320.463 257.178 320.4 257.505 320.4ZM263.439 320.4C263.865 320.4 264.242 320.487 264.569 320.66C264.902 320.827 265.162 321.037 265.349 321.29V320.49H266.499V326.09C266.499 326.597 266.392 327.047 266.179 327.44C265.965 327.84 265.655 328.153 265.249 328.38C264.849 328.607 264.369 328.72 263.809 328.72C263.062 328.72 262.442 328.543 261.949 328.19C261.455 327.843 261.175 327.37 261.109 326.77H262.239C262.325 327.057 262.509 327.287 262.789 327.46C263.075 327.64 263.415 327.73 263.809 327.73C264.269 327.73 264.639 327.59 264.919 327.31C265.205 327.03 265.349 326.623 265.349 326.09V325.17C265.155 325.43 264.892 325.65 264.559 325.83C264.232 326.003 263.859 326.09 263.439 326.09C262.959 326.09 262.519 325.97 262.119 325.73C261.725 325.483 261.412 325.143 261.179 324.71C260.952 324.27 260.839 323.773 260.839 323.22C260.839 322.667 260.952 322.177 261.179 321.75C261.412 321.323 261.725 320.993 262.119 320.76C262.519 320.52 262.959 320.4 263.439 320.4ZM265.349 323.24C265.349 322.86 265.269 322.53 265.109 322.25C264.955 321.97 264.752 321.757 264.499 321.61C264.245 321.463 263.972 321.39 263.679 321.39C263.385 321.39 263.112 321.463 262.859 321.61C262.605 321.75 262.399 321.96 262.239 322.24C262.085 322.513 262.009 322.84 262.009 323.22C262.009 323.6 262.085 323.933 262.239 324.22C262.399 324.507 262.605 324.727 262.859 324.88C263.119 325.027 263.392 325.1 263.679 325.1C263.972 325.1 264.245 325.027 264.499 324.88C264.752 324.733 264.955 324.52 265.109 324.24C265.269 323.953 265.349 323.62 265.349 323.24ZM272.904 321.42H271.884V326H270.734V321.42H270.084V320.49H270.734V320.1C270.734 319.467 270.9 319.007 271.234 318.72C271.574 318.427 272.104 318.28 272.824 318.28V319.23C272.477 319.23 272.234 319.297 272.094 319.43C271.954 319.557 271.884 319.78 271.884 320.1V320.49H272.904V321.42ZM274.494 319.76C274.287 319.76 274.114 319.69 273.974 319.55C273.834 319.41 273.764 319.237 273.764 319.03C273.764 318.823 273.834 318.65 273.974 318.51C274.114 318.37 274.287 318.3 274.494 318.3C274.694 318.3 274.864 318.37 275.004 318.51C275.144 318.65 275.214 318.823 275.214 319.03C275.214 319.237 275.144 319.41 275.004 319.55C274.864 319.69 274.694 319.76 274.494 319.76ZM275.054 320.49V326H273.914V320.49H275.054ZM277.691 318.6V326H276.551V318.6H277.691ZM284.238 323.11C284.238 323.317 284.224 323.503 284.198 323.67H279.988C280.021 324.11 280.184 324.463 280.478 324.73C280.771 324.997 281.131 325.13 281.558 325.13C282.171 325.13 282.604 324.873 282.858 324.36H284.087C283.921 324.867 283.618 325.283 283.178 325.61C282.744 325.93 282.204 326.09 281.558 326.09C281.031 326.09 280.558 325.973 280.138 325.74C279.724 325.5 279.398 325.167 279.158 324.74C278.924 324.307 278.808 323.807 278.808 323.24C278.808 322.673 278.921 322.177 279.148 321.75C279.381 321.317 279.704 320.983 280.118 320.75C280.538 320.517 281.018 320.4 281.558 320.4C282.078 320.4 282.541 320.513 282.948 320.74C283.354 320.967 283.671 321.287 283.898 321.7C284.124 322.107 284.238 322.577 284.238 323.11ZM283.048 322.75C283.041 322.33 282.891 321.993 282.598 321.74C282.304 321.487 281.941 321.36 281.508 321.36C281.114 321.36 280.778 321.487 280.498 321.74C280.218 321.987 280.051 322.323 279.998 322.75H283.048ZM289.287 321.42V324.47C289.287 324.677 289.334 324.827 289.427 324.92C289.527 325.007 289.694 325.05 289.927 325.05H290.627V326H289.727C289.214 326 288.82 325.88 288.547 325.64C288.274 325.4 288.137 325.01 288.137 324.47V321.42H287.487V320.49H288.137V319.12H289.287V320.49H290.627V321.42H289.287ZM294.068 326.09C293.548 326.09 293.078 325.973 292.658 325.74C292.238 325.5 291.908 325.167 291.668 324.74C291.428 324.307 291.308 323.807 291.308 323.24C291.308 322.68 291.431 322.183 291.678 321.75C291.924 321.317 292.261 320.983 292.688 320.75C293.114 320.517 293.591 320.4 294.118 320.4C294.644 320.4 295.121 320.517 295.548 320.75C295.974 320.983 296.311 321.317 296.558 321.75C296.804 322.183 296.928 322.68 296.928 323.24C296.928 323.8 296.801 324.297 296.548 324.73C296.294 325.163 295.948 325.5 295.508 325.74C295.074 325.973 294.594 326.09 294.068 326.09ZM294.068 325.1C294.361 325.1 294.634 325.03 294.888 324.89C295.148 324.75 295.358 324.54 295.518 324.26C295.678 323.98 295.758 323.64 295.758 323.24C295.758 322.84 295.681 322.503 295.528 322.23C295.374 321.95 295.171 321.74 294.918 321.6C294.664 321.46 294.391 321.39 294.098 321.39C293.804 321.39 293.531 321.46 293.278 321.6C293.031 321.74 292.834 321.95 292.688 322.23C292.541 322.503 292.468 322.84 292.468 323.24C292.468 323.833 292.618 324.293 292.918 324.62C293.224 324.94 293.608 325.1 294.068 325.1ZM301.792 321.29C301.959 321.01 302.179 320.793 302.452 320.64C302.732 320.48 303.062 320.4 303.442 320.4V321.58H303.152C302.706 321.58 302.366 321.693 302.132 321.92C301.906 322.147 301.792 322.54 301.792 323.1V326H300.652V320.49H301.792V321.29ZM309.54 323.11C309.54 323.317 309.527 323.503 309.5 323.67H305.29C305.324 324.11 305.487 324.463 305.78 324.73C306.074 324.997 306.434 325.13 306.86 325.13C307.474 325.13 307.907 324.873 308.16 324.36H309.39C309.224 324.867 308.92 325.283 308.48 325.61C308.047 325.93 307.507 326.09 306.86 326.09C306.334 326.09 305.86 325.973 305.44 325.74C305.027 325.5 304.7 325.167 304.46 324.74C304.227 324.307 304.11 323.807 304.11 323.24C304.11 322.673 304.224 322.177 304.45 321.75C304.684 321.317 305.007 320.983 305.42 320.75C305.84 320.517 306.32 320.4 306.86 320.4C307.38 320.4 307.844 320.513 308.25 320.74C308.657 320.967 308.974 321.287 309.2 321.7C309.427 322.107 309.54 322.577 309.54 323.11ZM308.35 322.75C308.344 322.33 308.194 321.993 307.9 321.74C307.607 321.487 307.244 321.36 306.81 321.36C306.417 321.36 306.08 321.487 305.8 321.74C305.52 321.987 305.354 322.323 305.3 322.75H308.35ZM311.802 321.3C311.995 321.047 312.259 320.833 312.592 320.66C312.925 320.487 313.302 320.4 313.722 320.4C314.202 320.4 314.639 320.52 315.032 320.76C315.432 320.993 315.745 321.323 315.972 321.75C316.199 322.177 316.312 322.667 316.312 323.22C316.312 323.773 316.199 324.27 315.972 324.71C315.745 325.143 315.432 325.483 315.032 325.73C314.639 325.97 314.202 326.09 313.722 326.09C313.302 326.09 312.929 326.007 312.602 325.84C312.275 325.667 312.009 325.453 311.802 325.2V328.62H310.662V320.49H311.802V321.3ZM315.152 323.22C315.152 322.84 315.072 322.513 314.912 322.24C314.759 321.96 314.552 321.75 314.292 321.61C314.039 321.463 313.765 321.39 313.472 321.39C313.185 321.39 312.912 321.463 312.652 321.61C312.399 321.757 312.192 321.97 312.032 322.25C311.879 322.53 311.802 322.86 311.802 323.24C311.802 323.62 311.879 323.953 312.032 324.24C312.192 324.52 312.399 324.733 312.652 324.88C312.912 325.027 313.185 325.1 313.472 325.1C313.765 325.1 314.039 325.027 314.292 324.88C314.552 324.727 314.759 324.507 314.912 324.22C315.072 323.933 315.152 323.6 315.152 323.22ZM318.579 318.6V326H317.439V318.6H318.579ZM319.696 323.22C319.696 322.667 319.81 322.177 320.036 321.75C320.27 321.323 320.583 320.993 320.976 320.76C321.376 320.52 321.816 320.4 322.296 320.4C322.73 320.4 323.106 320.487 323.426 320.66C323.753 320.827 324.013 321.037 324.206 321.29V320.49H325.356V326H324.206V325.18C324.013 325.44 323.75 325.657 323.416 325.83C323.083 326.003 322.703 326.09 322.276 326.09C321.803 326.09 321.37 325.97 320.976 325.73C320.583 325.483 320.27 325.143 320.036 324.71C319.81 324.27 319.696 323.773 319.696 323.22ZM324.206 323.24C324.206 322.86 324.126 322.53 323.966 322.25C323.813 321.97 323.61 321.757 323.356 321.61C323.103 321.463 322.83 321.39 322.536 321.39C322.243 321.39 321.97 321.463 321.716 321.61C321.463 321.75 321.256 321.96 321.096 322.24C320.943 322.513 320.866 322.84 320.866 323.22C320.866 323.6 320.943 323.933 321.096 324.22C321.256 324.507 321.463 324.727 321.716 324.88C321.976 325.027 322.25 325.1 322.536 325.1C322.83 325.1 323.103 325.027 323.356 324.88C323.61 324.733 323.813 324.52 323.966 324.24C324.126 323.953 324.206 323.62 324.206 323.24ZM326.474 323.24C326.474 322.673 326.587 322.177 326.814 321.75C327.047 321.317 327.367 320.983 327.774 320.75C328.18 320.517 328.647 320.4 329.174 320.4C329.84 320.4 330.39 320.56 330.824 320.88C331.264 321.193 331.56 321.643 331.714 322.23H330.484C330.384 321.957 330.224 321.743 330.004 321.59C329.784 321.437 329.507 321.36 329.174 321.36C328.707 321.36 328.334 321.527 328.054 321.86C327.78 322.187 327.644 322.647 327.644 323.24C327.644 323.833 327.78 324.297 328.054 324.63C328.334 324.963 328.707 325.13 329.174 325.13C329.834 325.13 330.27 324.84 330.484 324.26H331.714C331.554 324.82 331.254 325.267 330.814 325.6C330.374 325.927 329.827 326.09 329.174 326.09C328.647 326.09 328.18 325.973 327.774 325.74C327.367 325.5 327.047 325.167 326.814 324.74C326.587 324.307 326.474 323.807 326.474 323.24ZM337.9 323.11C337.9 323.317 337.886 323.503 337.86 323.67H333.65C333.683 324.11 333.846 324.463 334.14 324.73C334.433 324.997 334.793 325.13 335.22 325.13C335.833 325.13 336.266 324.873 336.52 324.36H337.75C337.583 324.867 337.28 325.283 336.84 325.61C336.406 325.93 335.866 326.09 335.22 326.09C334.693 326.09 334.22 325.973 333.8 325.74C333.386 325.5 333.06 325.167 332.82 324.74C332.586 324.307 332.47 323.807 332.47 323.24C332.47 322.673 332.583 322.177 332.81 321.75C333.043 321.317 333.366 320.983 333.78 320.75C334.2 320.517 334.68 320.4 335.22 320.4C335.74 320.4 336.203 320.513 336.61 320.74C337.016 320.967 337.333 321.287 337.56 321.7C337.786 322.107 337.9 322.577 337.9 323.11ZM336.71 322.75C336.703 322.33 336.553 321.993 336.26 321.74C335.966 321.487 335.603 321.36 335.17 321.36C334.776 321.36 334.44 321.487 334.16 321.74C333.88 321.987 333.713 322.323 333.66 322.75H336.71ZM342.199 319.76C341.992 319.76 341.819 319.69 341.679 319.55C341.539 319.41 341.469 319.237 341.469 319.03C341.469 318.823 341.539 318.65 341.679 318.51C341.819 318.37 341.992 318.3 342.199 318.3C342.399 318.3 342.569 318.37 342.709 318.51C342.849 318.65 342.919 318.823 342.919 319.03C342.919 319.237 342.849 319.41 342.709 319.55C342.569 319.69 342.399 319.76 342.199 319.76ZM342.759 320.49V326H341.619V320.49H342.759ZM345.586 321.42V324.47C345.586 324.677 345.633 324.827 345.726 324.92C345.826 325.007 345.993 325.05 346.226 325.05H346.926V326H346.026C345.513 326 345.119 325.88 344.846 325.64C344.573 325.4 344.436 325.01 344.436 324.47V321.42H343.786V320.49H344.436V319.12H345.586V320.49H346.926V321.42H345.586ZM348.437 326.07C348.23 326.07 348.057 326 347.917 325.86C347.777 325.72 347.707 325.547 347.707 325.34C347.707 325.133 347.777 324.96 347.917 324.82C348.057 324.68 348.23 324.61 348.437 324.61C348.637 324.61 348.807 324.68 348.947 324.82C349.087 324.96 349.157 325.133 349.157 325.34C349.157 325.547 349.087 325.72 348.947 325.86C348.807 326 348.637 326.07 348.437 326.07ZM354.126 319.05V326H352.986V319.05H354.126ZM357.933 321.42H356.913V326H355.763V321.42H355.113V320.49H355.763V320.1C355.763 319.467 355.93 319.007 356.263 318.72C356.603 318.427 357.133 318.28 357.853 318.28V319.23C357.506 319.23 357.263 319.297 357.123 319.43C356.983 319.557 356.913 319.78 356.913 320.1V320.49H357.933V321.42ZM361.161 323.22C361.161 322.667 361.274 322.177 361.501 321.75C361.734 321.323 362.048 320.993 362.441 320.76C362.841 320.52 363.281 320.4 363.761 320.4C364.194 320.4 364.571 320.487 364.891 320.66C365.218 320.827 365.478 321.037 365.671 321.29V320.49H366.821V326H365.671V325.18C365.478 325.44 365.214 325.657 364.881 325.83C364.548 326.003 364.168 326.09 363.741 326.09C363.268 326.09 362.834 325.97 362.441 325.73C362.048 325.483 361.734 325.143 361.501 324.71C361.274 324.27 361.161 323.773 361.161 323.22ZM365.671 323.24C365.671 322.86 365.591 322.53 365.431 322.25C365.278 321.97 365.074 321.757 364.821 321.61C364.568 321.463 364.294 321.39 364.001 321.39C363.708 321.39 363.434 321.463 363.181 321.61C362.928 321.75 362.721 321.96 362.561 322.24C362.408 322.513 362.331 322.84 362.331 323.22C362.331 323.6 362.408 323.933 362.561 324.22C362.721 324.507 362.928 324.727 363.181 324.88C363.441 325.027 363.714 325.1 364.001 325.1C364.294 325.1 364.568 325.027 364.821 324.88C365.074 324.733 365.278 324.52 365.431 324.24C365.591 323.953 365.671 323.62 365.671 323.24ZM373.226 321.42H372.206V326H371.056V321.42H370.406V320.49H371.056V320.1C371.056 319.467 371.223 319.007 371.556 318.72C371.896 318.427 372.426 318.28 373.146 318.28V319.23C372.799 319.23 372.556 319.297 372.416 319.43C372.276 319.557 372.206 319.78 372.206 320.1V320.49H373.226V321.42ZM374.816 319.76C374.61 319.76 374.436 319.69 374.296 319.55C374.156 319.41 374.086 319.237 374.086 319.03C374.086 318.823 374.156 318.65 374.296 318.51C374.436 318.37 374.61 318.3 374.816 318.3C375.016 318.3 375.186 318.37 375.326 318.51C375.466 318.65 375.536 318.823 375.536 319.03C375.536 319.237 375.466 319.41 375.326 319.55C375.186 319.69 375.016 319.76 374.816 319.76ZM375.376 320.49V326H374.236V320.49H375.376ZM378.013 318.6V326H376.873V318.6H378.013ZM384.56 323.11C384.56 323.317 384.546 323.503 384.52 323.67H380.31C380.343 324.11 380.506 324.463 380.8 324.73C381.093 324.997 381.453 325.13 381.88 325.13C382.493 325.13 382.926 324.873 383.18 324.36H384.41C384.243 324.867 383.94 325.283 383.5 325.61C383.066 325.93 382.526 326.09 381.88 326.09C381.353 326.09 380.88 325.973 380.46 325.74C380.046 325.5 379.72 325.167 379.48 324.74C379.246 324.307 379.13 323.807 379.13 323.24C379.13 322.673 379.243 322.177 379.47 321.75C379.703 321.317 380.026 320.983 380.44 320.75C380.86 320.517 381.34 320.4 381.88 320.4C382.4 320.4 382.863 320.513 383.27 320.74C383.676 320.967 383.993 321.287 384.22 321.7C384.446 322.107 384.56 322.577 384.56 323.11ZM383.37 322.75C383.363 322.33 383.213 321.993 382.92 321.74C382.626 321.487 382.263 321.36 381.83 321.36C381.436 321.36 381.1 321.487 380.82 321.74C380.54 321.987 380.373 322.323 380.32 322.75H383.37ZM395.679 320.49L393.969 326H392.769L391.659 321.93L390.549 326H389.349L387.629 320.49H388.789L389.939 324.92L391.109 320.49H392.299L393.419 324.9L394.559 320.49H395.679ZM397.111 319.76C396.905 319.76 396.731 319.69 396.591 319.55C396.451 319.41 396.381 319.237 396.381 319.03C396.381 318.823 396.451 318.65 396.591 318.51C396.731 318.37 396.905 318.3 397.111 318.3C397.311 318.3 397.481 318.37 397.621 318.51C397.761 318.65 397.831 318.823 397.831 319.03C397.831 319.237 397.761 319.41 397.621 319.55C397.481 319.69 397.311 319.76 397.111 319.76ZM397.671 320.49V326H396.531V320.49H397.671ZM400.498 321.42V324.47C400.498 324.677 400.545 324.827 400.638 324.92C400.738 325.007 400.905 325.05 401.138 325.05H401.838V326H400.938C400.425 326 400.031 325.88 399.758 325.64C399.485 325.4 399.348 325.01 399.348 324.47V321.42H398.698V320.49H399.348V319.12H400.498V320.49H401.838V321.42H400.498ZM405.739 320.4C406.159 320.4 406.532 320.49 406.859 320.67C407.192 320.85 407.452 321.117 407.639 321.47C407.832 321.823 407.929 322.25 407.929 322.75V326H406.799V322.92C406.799 322.427 406.675 322.05 406.429 321.79C406.182 321.523 405.845 321.39 405.419 321.39C404.992 321.39 404.652 321.523 404.399 321.79C404.152 322.05 404.029 322.427 404.029 322.92V326H402.889V318.6H404.029V321.13C404.222 320.897 404.465 320.717 404.759 320.59C405.059 320.463 405.385 320.4 405.739 320.4ZM413.31 321.42V324.47C413.31 324.677 413.357 324.827 413.45 324.92C413.55 325.007 413.717 325.05 413.95 325.05H414.65V326H413.75C413.237 326 412.844 325.88 412.57 325.64C412.297 325.4 412.16 325.01 412.16 324.47V321.42H411.51V320.49H412.16V319.12H413.31V320.49H414.65V321.42H413.31ZM418.551 320.4C418.971 320.4 419.345 320.49 419.671 320.67C420.005 320.85 420.265 321.117 420.451 321.47C420.645 321.823 420.741 322.25 420.741 322.75V326H419.611V322.92C419.611 322.427 419.488 322.05 419.241 321.79C418.995 321.523 418.658 321.39 418.231 321.39C417.805 321.39 417.465 321.523 417.211 321.79C416.965 322.05 416.841 322.427 416.841 322.92V326H415.701V318.6H416.841V321.13C417.035 320.897 417.278 320.717 417.571 320.59C417.871 320.463 418.198 320.4 418.551 320.4ZM427.245 323.11C427.245 323.317 427.232 323.503 427.205 323.67H422.995C423.029 324.11 423.192 324.463 423.485 324.73C423.779 324.997 424.139 325.13 424.565 325.13C425.179 325.13 425.612 324.873 425.865 324.36H427.095C426.929 324.867 426.625 325.283 426.185 325.61C425.752 325.93 425.212 326.09 424.565 326.09C424.039 326.09 423.565 325.973 423.145 325.74C422.732 325.5 422.405 325.167 422.165 324.74C421.932 324.307 421.815 323.807 421.815 323.24C421.815 322.673 421.929 322.177 422.155 321.75C422.389 321.317 422.712 320.983 423.125 320.75C423.545 320.517 424.025 320.4 424.565 320.4C425.085 320.4 425.549 320.513 425.955 320.74C426.362 320.967 426.679 321.287 426.905 321.7C427.132 322.107 427.245 322.577 427.245 323.11ZM426.055 322.75C426.049 322.33 425.899 321.993 425.605 321.74C425.312 321.487 424.949 321.36 424.515 321.36C424.122 321.36 423.785 321.487 423.505 321.74C423.225 321.987 423.059 322.323 423.005 322.75H426.055ZM432.965 326.09C432.532 326.09 432.142 326.013 431.795 325.86C431.455 325.7 431.185 325.487 430.985 325.22C430.785 324.947 430.678 324.643 430.665 324.31H431.845C431.865 324.543 431.975 324.74 432.175 324.9C432.382 325.053 432.638 325.13 432.945 325.13C433.265 325.13 433.512 325.07 433.685 324.95C433.865 324.823 433.955 324.663 433.955 324.47C433.955 324.263 433.855 324.11 433.655 324.01C433.462 323.91 433.152 323.8 432.725 323.68C432.312 323.567 431.975 323.457 431.715 323.35C431.455 323.243 431.228 323.08 431.035 322.86C430.848 322.64 430.755 322.35 430.755 321.99C430.755 321.697 430.842 321.43 431.015 321.19C431.188 320.943 431.435 320.75 431.755 320.61C432.082 320.47 432.455 320.4 432.875 320.4C433.502 320.4 434.005 320.56 434.385 320.88C434.772 321.193 434.978 321.623 435.005 322.17H433.865C433.845 321.923 433.745 321.727 433.565 321.58C433.385 321.433 433.142 321.36 432.835 321.36C432.535 321.36 432.305 321.417 432.145 321.53C431.985 321.643 431.905 321.793 431.905 321.98C431.905 322.127 431.958 322.25 432.065 322.35C432.172 322.45 432.302 322.53 432.455 322.59C432.608 322.643 432.835 322.713 433.135 322.8C433.535 322.907 433.862 323.017 434.115 323.13C434.375 323.237 434.598 323.397 434.785 323.61C434.972 323.823 435.068 324.107 435.075 324.46C435.075 324.773 434.988 325.053 434.815 325.3C434.642 325.547 434.395 325.74 434.075 325.88C433.762 326.02 433.392 326.09 432.965 326.09ZM435.927 323.22C435.927 322.667 436.04 322.177 436.267 321.75C436.5 321.323 436.813 320.993 437.207 320.76C437.607 320.52 438.047 320.4 438.527 320.4C438.96 320.4 439.337 320.487 439.657 320.66C439.983 320.827 440.243 321.037 440.437 321.29V320.49H441.587V326H440.437V325.18C440.243 325.44 439.98 325.657 439.647 325.83C439.313 326.003 438.933 326.09 438.507 326.09C438.033 326.09 437.6 325.97 437.207 325.73C436.813 325.483 436.5 325.143 436.267 324.71C436.04 324.27 435.927 323.773 435.927 323.22ZM440.437 323.24C440.437 322.86 440.357 322.53 440.197 322.25C440.043 321.97 439.84 321.757 439.587 321.61C439.333 321.463 439.06 321.39 438.767 321.39C438.473 321.39 438.2 321.463 437.947 321.61C437.693 321.75 437.487 321.96 437.327 322.24C437.173 322.513 437.097 322.84 437.097 323.22C437.097 323.6 437.173 323.933 437.327 324.22C437.487 324.507 437.693 324.727 437.947 324.88C438.207 325.027 438.48 325.1 438.767 325.1C439.06 325.1 439.333 325.027 439.587 324.88C439.84 324.733 440.043 324.52 440.197 324.24C440.357 323.953 440.437 323.62 440.437 323.24ZM449.754 320.4C450.187 320.4 450.574 320.49 450.914 320.67C451.261 320.85 451.531 321.117 451.724 321.47C451.924 321.823 452.024 322.25 452.024 322.75V326H450.894V322.92C450.894 322.427 450.771 322.05 450.524 321.79C450.277 321.523 449.941 321.39 449.514 321.39C449.087 321.39 448.747 321.523 448.494 321.79C448.247 322.05 448.124 322.427 448.124 322.92V326H446.994V322.92C446.994 322.427 446.871 322.05 446.624 321.79C446.377 321.523 446.041 321.39 445.614 321.39C445.187 321.39 444.847 321.523 444.594 321.79C444.347 322.05 444.224 322.427 444.224 322.92V326H443.084V320.49H444.224V321.12C444.411 320.893 444.647 320.717 444.934 320.59C445.221 320.463 445.527 320.4 445.854 320.4C446.294 320.4 446.687 320.493 447.034 320.68C447.381 320.867 447.647 321.137 447.834 321.49C448.001 321.157 448.261 320.893 448.614 320.7C448.967 320.5 449.347 320.4 449.754 320.4ZM458.525 323.11C458.525 323.317 458.511 323.503 458.485 323.67H454.275C454.308 324.11 454.471 324.463 454.765 324.73C455.058 324.997 455.418 325.13 455.845 325.13C456.458 325.13 456.891 324.873 457.145 324.36H458.375C458.208 324.867 457.905 325.283 457.465 325.61C457.031 325.93 456.491 326.09 455.845 326.09C455.318 326.09 454.845 325.973 454.425 325.74C454.011 325.5 453.685 325.167 453.445 324.74C453.211 324.307 453.095 323.807 453.095 323.24C453.095 322.673 453.208 322.177 453.435 321.75C453.668 321.317 453.991 320.983 454.405 320.75C454.825 320.517 455.305 320.4 455.845 320.4C456.365 320.4 456.828 320.513 457.235 320.74C457.641 320.967 457.958 321.287 458.185 321.7C458.411 322.107 458.525 322.577 458.525 323.11ZM457.335 322.75C457.328 322.33 457.178 321.993 456.885 321.74C456.591 321.487 456.228 321.36 455.795 321.36C455.401 321.36 455.065 321.487 454.785 321.74C454.505 321.987 454.338 322.323 454.285 322.75H457.335ZM173.53 335.4C173.963 335.4 174.35 335.49 174.69 335.67C175.037 335.85 175.307 336.117 175.5 336.47C175.693 336.823 175.79 337.25 175.79 337.75V341H174.66V337.92C174.66 337.427 174.537 337.05 174.29 336.79C174.043 336.523 173.707 336.39 173.28 336.39C172.853 336.39 172.513 336.523 172.26 336.79C172.013 337.05 171.89 337.427 171.89 337.92V341H170.75V335.49H171.89V336.12C172.077 335.893 172.313 335.717 172.6 335.59C172.893 335.463 173.203 335.4 173.53 335.4ZM176.864 338.22C176.864 337.667 176.977 337.177 177.204 336.75C177.437 336.323 177.751 335.993 178.144 335.76C178.544 335.52 178.984 335.4 179.464 335.4C179.897 335.4 180.274 335.487 180.594 335.66C180.921 335.827 181.181 336.037 181.374 336.29V335.49H182.524V341H181.374V340.18C181.181 340.44 180.917 340.657 180.584 340.83C180.251 341.003 179.871 341.09 179.444 341.09C178.971 341.09 178.537 340.97 178.144 340.73C177.751 340.483 177.437 340.143 177.204 339.71C176.977 339.27 176.864 338.773 176.864 338.22ZM181.374 338.24C181.374 337.86 181.294 337.53 181.134 337.25C180.981 336.97 180.777 336.757 180.524 336.61C180.271 336.463 179.997 336.39 179.704 336.39C179.411 336.39 179.137 336.463 178.884 336.61C178.631 336.75 178.424 336.96 178.264 337.24C178.111 337.513 178.034 337.84 178.034 338.22C178.034 338.6 178.111 338.933 178.264 339.22C178.424 339.507 178.631 339.727 178.884 339.88C179.144 340.027 179.417 340.1 179.704 340.1C179.997 340.1 180.271 340.027 180.524 339.88C180.777 339.733 180.981 339.52 181.134 339.24C181.294 338.953 181.374 338.62 181.374 338.24ZM190.691 335.4C191.125 335.4 191.511 335.49 191.851 335.67C192.198 335.85 192.468 336.117 192.661 336.47C192.861 336.823 192.961 337.25 192.961 337.75V341H191.831V337.92C191.831 337.427 191.708 337.05 191.461 336.79C191.215 336.523 190.878 336.39 190.451 336.39C190.025 336.39 189.685 336.523 189.431 336.79C189.185 337.05 189.061 337.427 189.061 337.92V341H187.931V337.92C187.931 337.427 187.808 337.05 187.561 336.79C187.315 336.523 186.978 336.39 186.551 336.39C186.125 336.39 185.785 336.523 185.531 336.79C185.285 337.05 185.161 337.427 185.161 337.92V341H184.021V335.49H185.161V336.12C185.348 335.893 185.585 335.717 185.871 335.59C186.158 335.463 186.465 335.4 186.791 335.4C187.231 335.4 187.625 335.493 187.971 335.68C188.318 335.867 188.585 336.137 188.771 336.49C188.938 336.157 189.198 335.893 189.551 335.7C189.905 335.5 190.285 335.4 190.691 335.4ZM199.462 338.11C199.462 338.317 199.449 338.503 199.422 338.67H195.212C195.245 339.11 195.409 339.463 195.702 339.73C195.995 339.997 196.355 340.13 196.782 340.13C197.395 340.13 197.829 339.873 198.082 339.36H199.312C199.145 339.867 198.842 340.283 198.402 340.61C197.969 340.93 197.429 341.09 196.782 341.09C196.255 341.09 195.782 340.973 195.362 340.74C194.949 340.5 194.622 340.167 194.382 339.74C194.149 339.307 194.032 338.807 194.032 338.24C194.032 337.673 194.145 337.177 194.372 336.75C194.605 336.317 194.929 335.983 195.342 335.75C195.762 335.517 196.242 335.4 196.782 335.4C197.302 335.4 197.765 335.513 198.172 335.74C198.579 335.967 198.895 336.287 199.122 336.7C199.349 337.107 199.462 337.577 199.462 338.11ZM198.272 337.75C198.265 337.33 198.115 336.993 197.822 336.74C197.529 336.487 197.165 336.36 196.732 336.36C196.339 336.36 196.002 336.487 195.722 336.74C195.442 336.987 195.275 337.323 195.222 337.75H198.272ZM202.802 338.22C202.802 337.667 202.915 337.177 203.142 336.75C203.375 336.323 203.688 335.993 204.082 335.76C204.482 335.52 204.922 335.4 205.402 335.4C205.835 335.4 206.212 335.487 206.532 335.66C206.858 335.827 207.118 336.037 207.312 336.29V335.49H208.462V341H207.312V340.18C207.118 340.44 206.855 340.657 206.522 340.83C206.188 341.003 205.808 341.09 205.382 341.09C204.908 341.09 204.475 340.97 204.082 340.73C203.688 340.483 203.375 340.143 203.142 339.71C202.915 339.27 202.802 338.773 202.802 338.22ZM207.312 338.24C207.312 337.86 207.232 337.53 207.072 337.25C206.918 336.97 206.715 336.757 206.462 336.61C206.208 336.463 205.935 336.39 205.642 336.39C205.348 336.39 205.075 336.463 204.822 336.61C204.568 336.75 204.362 336.96 204.202 337.24C204.048 337.513 203.972 337.84 203.972 338.22C203.972 338.6 204.048 338.933 204.202 339.22C204.362 339.507 204.568 339.727 204.822 339.88C205.082 340.027 205.355 340.1 205.642 340.1C205.935 340.1 206.208 340.027 206.462 339.88C206.715 339.733 206.918 339.52 207.072 339.24C207.232 338.953 207.312 338.62 207.312 338.24ZM211.099 333.6V341H209.959V333.6H211.099ZM213.736 336.29C213.902 336.01 214.122 335.793 214.396 335.64C214.676 335.48 215.006 335.4 215.386 335.4V336.58H215.096C214.649 336.58 214.309 336.693 214.076 336.92C213.849 337.147 213.736 337.54 213.736 338.1V341H212.596V335.49H213.736V336.29ZM221.484 338.11C221.484 338.317 221.47 338.503 221.444 338.67H217.234C217.267 339.11 217.43 339.463 217.724 339.73C218.017 339.997 218.377 340.13 218.804 340.13C219.417 340.13 219.85 339.873 220.104 339.36H221.334C221.167 339.867 220.864 340.283 220.424 340.61C219.99 340.93 219.45 341.09 218.804 341.09C218.277 341.09 217.804 340.973 217.384 340.74C216.97 340.5 216.644 340.167 216.404 339.74C216.17 339.307 216.054 338.807 216.054 338.24C216.054 337.673 216.167 337.177 216.394 336.75C216.627 336.317 216.95 335.983 217.364 335.75C217.784 335.517 218.264 335.4 218.804 335.4C219.324 335.4 219.787 335.513 220.194 335.74C220.6 335.967 220.917 336.287 221.144 336.7C221.37 337.107 221.484 337.577 221.484 338.11ZM220.294 337.75C220.287 337.33 220.137 336.993 219.844 336.74C219.55 336.487 219.187 336.36 218.754 336.36C218.36 336.36 218.024 336.487 217.744 336.74C217.464 336.987 217.297 337.323 217.244 337.75H220.294ZM222.225 338.22C222.225 337.667 222.339 337.177 222.565 336.75C222.799 336.323 223.112 335.993 223.505 335.76C223.905 335.52 224.345 335.4 224.825 335.4C225.259 335.4 225.635 335.487 225.955 335.66C226.282 335.827 226.542 336.037 226.735 336.29V335.49H227.885V341H226.735V340.18C226.542 340.44 226.279 340.657 225.945 340.83C225.612 341.003 225.232 341.09 224.805 341.09C224.332 341.09 223.899 340.97 223.505 340.73C223.112 340.483 222.799 340.143 222.565 339.71C222.339 339.27 222.225 338.773 222.225 338.22ZM226.735 338.24C226.735 337.86 226.655 337.53 226.495 337.25C226.342 336.97 226.139 336.757 225.885 336.61C225.632 336.463 225.359 336.39 225.065 336.39C224.772 336.39 224.499 336.463 224.245 336.61C223.992 336.75 223.785 336.96 223.625 337.24C223.472 337.513 223.395 337.84 223.395 338.22C223.395 338.6 223.472 338.933 223.625 339.22C223.785 339.507 223.992 339.727 224.245 339.88C224.505 340.027 224.779 340.1 225.065 340.1C225.359 340.1 225.632 340.027 225.885 339.88C226.139 339.733 226.342 339.52 226.495 339.24C226.655 338.953 226.735 338.62 226.735 338.24ZM229.003 338.22C229.003 337.667 229.116 337.177 229.343 336.75C229.576 336.323 229.889 335.993 230.283 335.76C230.683 335.52 231.126 335.4 231.613 335.4C231.973 335.4 232.326 335.48 232.673 335.64C233.026 335.793 233.306 336 233.513 336.26V333.6H234.663V341H233.513V340.17C233.326 340.437 233.066 340.657 232.733 340.83C232.406 341.003 232.029 341.09 231.603 341.09C231.123 341.09 230.683 340.97 230.283 340.73C229.889 340.483 229.576 340.143 229.343 339.71C229.116 339.27 229.003 338.773 229.003 338.22ZM233.513 338.24C233.513 337.86 233.433 337.53 233.273 337.25C233.119 336.97 232.916 336.757 232.663 336.61C232.409 336.463 232.136 336.39 231.843 336.39C231.549 336.39 231.276 336.463 231.023 336.61C230.769 336.75 230.563 336.96 230.403 337.24C230.249 337.513 230.173 337.84 230.173 338.22C230.173 338.6 230.249 338.933 230.403 339.22C230.563 339.507 230.769 339.727 231.023 339.88C231.283 340.027 231.556 340.1 231.843 340.1C232.136 340.1 232.409 340.027 232.663 339.88C232.916 339.733 233.119 339.52 233.273 339.24C233.433 338.953 233.513 338.62 233.513 338.24ZM241.12 335.49L237.74 343.59H236.56L237.68 340.91L235.51 335.49H236.78L238.33 339.69L239.94 335.49H241.12ZM249.628 338.11C249.628 338.317 249.615 338.503 249.588 338.67H245.378C245.411 339.11 245.575 339.463 245.868 339.73C246.161 339.997 246.521 340.13 246.948 340.13C247.561 340.13 247.995 339.873 248.248 339.36H249.478C249.311 339.867 249.008 340.283 248.568 340.61C248.135 340.93 247.595 341.09 246.948 341.09C246.421 341.09 245.948 340.973 245.528 340.74C245.115 340.5 244.788 340.167 244.548 339.74C244.315 339.307 244.198 338.807 244.198 338.24C244.198 337.673 244.311 337.177 244.538 336.75C244.771 336.317 245.095 335.983 245.508 335.75C245.928 335.517 246.408 335.4 246.948 335.4C247.468 335.4 247.931 335.513 248.338 335.74C248.745 335.967 249.061 336.287 249.288 336.7C249.515 337.107 249.628 337.577 249.628 338.11ZM248.438 337.75C248.431 337.33 248.281 336.993 247.988 336.74C247.695 336.487 247.331 336.36 246.898 336.36C246.505 336.36 246.168 336.487 245.888 336.74C245.608 336.987 245.441 337.323 245.388 337.75H248.438ZM253.11 338.21L254.89 341H253.6L252.41 339.13L251.29 341H250.1L251.88 338.29L250.1 335.49H251.39L252.58 337.36L253.7 335.49H254.89L253.11 338.21ZM256.32 334.76C256.114 334.76 255.94 334.69 255.8 334.55C255.66 334.41 255.59 334.237 255.59 334.03C255.59 333.823 255.66 333.65 255.8 333.51C255.94 333.37 256.114 333.3 256.32 333.3C256.52 333.3 256.69 333.37 256.83 333.51C256.97 333.65 257.04 333.823 257.04 334.03C257.04 334.237 256.97 334.41 256.83 334.55C256.69 334.69 256.52 334.76 256.32 334.76ZM256.88 335.49V341H255.74V335.49H256.88ZM260.377 341.09C259.944 341.09 259.554 341.013 259.207 340.86C258.867 340.7 258.597 340.487 258.397 340.22C258.197 339.947 258.09 339.643 258.077 339.31H259.257C259.277 339.543 259.387 339.74 259.587 339.9C259.794 340.053 260.05 340.13 260.357 340.13C260.677 340.13 260.924 340.07 261.097 339.95C261.277 339.823 261.367 339.663 261.367 339.47C261.367 339.263 261.267 339.11 261.067 339.01C260.874 338.91 260.564 338.8 260.137 338.68C259.724 338.567 259.387 338.457 259.127 338.35C258.867 338.243 258.64 338.08 258.447 337.86C258.26 337.64 258.167 337.35 258.167 336.99C258.167 336.697 258.254 336.43 258.427 336.19C258.6 335.943 258.847 335.75 259.167 335.61C259.494 335.47 259.867 335.4 260.287 335.4C260.914 335.4 261.417 335.56 261.797 335.88C262.184 336.193 262.39 336.623 262.417 337.17H261.277C261.257 336.923 261.157 336.727 260.977 336.58C260.797 336.433 260.554 336.36 260.247 336.36C259.947 336.36 259.717 336.417 259.557 336.53C259.397 336.643 259.317 336.793 259.317 336.98C259.317 337.127 259.37 337.25 259.477 337.35C259.584 337.45 259.714 337.53 259.867 337.59C260.02 337.643 260.247 337.713 260.547 337.8C260.947 337.907 261.274 338.017 261.527 338.13C261.787 338.237 262.01 338.397 262.197 338.61C262.384 338.823 262.48 339.107 262.487 339.46C262.487 339.773 262.4 340.053 262.227 340.3C262.054 340.547 261.807 340.74 261.487 340.88C261.174 341.02 260.804 341.09 260.377 341.09ZM265.049 336.42V339.47C265.049 339.677 265.095 339.827 265.189 339.92C265.289 340.007 265.455 340.05 265.689 340.05H266.389V341H265.489C264.975 341 264.582 340.88 264.309 340.64C264.035 340.4 263.899 340.01 263.899 339.47V336.42H263.249V335.49H263.899V334.12H265.049V335.49H266.389V336.42H265.049ZM269.439 341.09C269.006 341.09 268.616 341.013 268.269 340.86C267.929 340.7 267.659 340.487 267.459 340.22C267.259 339.947 267.153 339.643 267.139 339.31H268.319C268.339 339.543 268.449 339.74 268.649 339.9C268.856 340.053 269.113 340.13 269.419 340.13C269.739 340.13 269.986 340.07 270.159 339.95C270.339 339.823 270.429 339.663 270.429 339.47C270.429 339.263 270.329 339.11 270.129 339.01C269.936 338.91 269.626 338.8 269.199 338.68C268.786 338.567 268.449 338.457 268.189 338.35C267.929 338.243 267.703 338.08 267.509 337.86C267.323 337.64 267.229 337.35 267.229 336.99C267.229 336.697 267.316 336.43 267.489 336.19C267.663 335.943 267.909 335.75 268.229 335.61C268.556 335.47 268.929 335.4 269.349 335.4C269.976 335.4 270.479 335.56 270.859 335.88C271.246 336.193 271.453 336.623 271.479 337.17H270.339C270.319 336.923 270.219 336.727 270.039 336.58C269.859 336.433 269.616 336.36 269.309 336.36C269.009 336.36 268.779 336.417 268.619 336.53C268.459 336.643 268.379 336.793 268.379 336.98C268.379 337.127 268.433 337.25 268.539 337.35C268.646 337.45 268.776 337.53 268.929 337.59C269.083 337.643 269.309 337.713 269.609 337.8C270.009 337.907 270.336 338.017 270.589 338.13C270.849 338.237 271.073 338.397 271.259 338.61C271.446 338.823 271.543 339.107 271.549 339.46C271.549 339.773 271.463 340.053 271.289 340.3C271.116 340.547 270.869 340.74 270.549 340.88C270.236 341.02 269.866 341.09 269.439 341.09ZM274.031 339.63L272.821 342.39H272.081L272.791 339.63H274.031ZM278.205 334.76C277.998 334.76 277.825 334.69 277.685 334.55C277.545 334.41 277.475 334.237 277.475 334.03C277.475 333.823 277.545 333.65 277.685 333.51C277.825 333.37 277.998 333.3 278.205 333.3C278.405 333.3 278.575 333.37 278.715 333.51C278.855 333.65 278.925 333.823 278.925 334.03C278.925 334.237 278.855 334.41 278.715 334.55C278.575 334.69 278.405 334.76 278.205 334.76ZM278.765 335.49V341H277.625V335.49H278.765ZM281.592 336.42V339.47C281.592 339.677 281.638 339.827 281.732 339.92C281.832 340.007 281.998 340.05 282.232 340.05H282.932V341H282.032C281.518 341 281.125 340.88 280.852 340.64C280.578 340.4 280.442 340.01 280.442 339.47V336.42H279.792V335.49H280.442V334.12H281.592V335.49H282.932V336.42H281.592ZM293.98 335.49L292.27 341H291.07L289.96 336.93L288.85 341H287.65L285.93 335.49H287.09L288.24 339.92L289.41 335.49H290.6L291.72 339.9L292.86 335.49H293.98ZM295.412 334.76C295.205 334.76 295.032 334.69 294.892 334.55C294.752 334.41 294.682 334.237 294.682 334.03C294.682 333.823 294.752 333.65 294.892 333.51C295.032 333.37 295.205 333.3 295.412 333.3C295.612 333.3 295.782 333.37 295.922 333.51C296.062 333.65 296.132 333.823 296.132 334.03C296.132 334.237 296.062 334.41 295.922 334.55C295.782 334.69 295.612 334.76 295.412 334.76ZM295.972 335.49V341H294.832V335.49H295.972ZM298.609 333.6V341H297.469V333.6H298.609ZM301.245 333.6V341H300.105V333.6H301.245ZM306.48 336.31C306.673 336.043 306.937 335.827 307.27 335.66C307.61 335.487 307.987 335.4 308.4 335.4C308.887 335.4 309.327 335.517 309.72 335.75C310.113 335.983 310.423 336.317 310.65 336.75C310.877 337.177 310.99 337.667 310.99 338.22C310.99 338.773 310.877 339.27 310.65 339.71C310.423 340.143 310.11 340.483 309.71 340.73C309.317 340.97 308.88 341.09 308.4 341.09C307.973 341.09 307.593 341.007 307.26 340.84C306.933 340.673 306.673 340.46 306.48 340.2V341H305.34V333.6H306.48V336.31ZM309.83 338.22C309.83 337.84 309.75 337.513 309.59 337.24C309.437 336.96 309.23 336.75 308.97 336.61C308.717 336.463 308.443 336.39 308.15 336.39C307.863 336.39 307.59 336.463 307.33 336.61C307.077 336.757 306.87 336.97 306.71 337.25C306.557 337.53 306.48 337.86 306.48 338.24C306.48 338.62 306.557 338.953 306.71 339.24C306.87 339.52 307.077 339.733 307.33 339.88C307.59 340.027 307.863 340.1 308.15 340.1C308.443 340.1 308.717 340.027 308.97 339.88C309.23 339.727 309.437 339.507 309.59 339.22C309.75 338.933 309.83 338.6 309.83 338.22ZM317.167 338.11C317.167 338.317 317.154 338.503 317.127 338.67H312.917C312.951 339.11 313.114 339.463 313.407 339.73C313.701 339.997 314.061 340.13 314.487 340.13C315.101 340.13 315.534 339.873 315.787 339.36H317.017C316.851 339.867 316.547 340.283 316.107 340.61C315.674 340.93 315.134 341.09 314.487 341.09C313.961 341.09 313.487 340.973 313.067 340.74C312.654 340.5 312.327 340.167 312.087 339.74C311.854 339.307 311.737 338.807 311.737 338.24C311.737 337.673 311.851 337.177 312.077 336.75C312.311 336.317 312.634 335.983 313.047 335.75C313.467 335.517 313.947 335.4 314.487 335.4C315.007 335.4 315.471 335.513 315.877 335.74C316.284 335.967 316.601 336.287 316.827 336.7C317.054 337.107 317.167 337.577 317.167 338.11ZM315.977 337.75C315.971 337.33 315.821 336.993 315.527 336.74C315.234 336.487 314.871 336.36 314.437 336.36C314.044 336.36 313.707 336.487 313.427 336.74C313.147 336.987 312.981 337.323 312.927 337.75H315.977ZM322.027 336.29C322.193 336.01 322.413 335.793 322.687 335.64C322.967 335.48 323.297 335.4 323.677 335.4V336.58H323.387C322.94 336.58 322.6 336.693 322.367 336.92C322.14 337.147 322.027 337.54 322.027 338.1V341H320.887V335.49H322.027V336.29ZM329.775 338.11C329.775 338.317 329.761 338.503 329.735 338.67H325.525C325.558 339.11 325.721 339.463 326.015 339.73C326.308 339.997 326.668 340.13 327.095 340.13C327.708 340.13 328.141 339.873 328.395 339.36H329.625C329.458 339.867 329.155 340.283 328.715 340.61C328.281 340.93 327.741 341.09 327.095 341.09C326.568 341.09 326.095 340.973 325.675 340.74C325.261 340.5 324.935 340.167 324.695 339.74C324.461 339.307 324.345 338.807 324.345 338.24C324.345 337.673 324.458 337.177 324.685 336.75C324.918 336.317 325.241 335.983 325.655 335.75C326.075 335.517 326.555 335.4 327.095 335.4C327.615 335.4 328.078 335.513 328.485 335.74C328.891 335.967 329.208 336.287 329.435 336.7C329.661 337.107 329.775 337.577 329.775 338.11ZM328.585 337.75C328.578 337.33 328.428 336.993 328.135 336.74C327.841 336.487 327.478 336.36 327.045 336.36C326.651 336.36 326.315 336.487 326.035 336.74C325.755 336.987 325.588 337.323 325.535 337.75H328.585ZM332.036 336.3C332.23 336.047 332.493 335.833 332.826 335.66C333.16 335.487 333.536 335.4 333.956 335.4C334.436 335.4 334.873 335.52 335.266 335.76C335.666 335.993 335.98 336.323 336.206 336.75C336.433 337.177 336.546 337.667 336.546 338.22C336.546 338.773 336.433 339.27 336.206 339.71C335.98 340.143 335.666 340.483 335.266 340.73C334.873 340.97 334.436 341.09 333.956 341.09C333.536 341.09 333.163 341.007 332.836 340.84C332.51 340.667 332.243 340.453 332.036 340.2V343.62H330.896V335.49H332.036V336.3ZM335.386 338.22C335.386 337.84 335.306 337.513 335.146 337.24C334.993 336.96 334.786 336.75 334.526 336.61C334.273 336.463 334 336.39 333.706 336.39C333.42 336.39 333.146 336.463 332.886 336.61C332.633 336.757 332.426 336.97 332.266 337.25C332.113 337.53 332.036 337.86 332.036 338.24C332.036 338.62 332.113 338.953 332.266 339.24C332.426 339.52 332.633 339.733 332.886 339.88C333.146 340.027 333.42 340.1 333.706 340.1C334 340.1 334.273 340.027 334.526 339.88C334.786 339.727 334.993 339.507 335.146 339.22C335.306 338.933 335.386 338.6 335.386 338.22ZM338.814 333.6V341H337.674V333.6H338.814ZM339.931 338.22C339.931 337.667 340.044 337.177 340.271 336.75C340.504 336.323 340.817 335.993 341.211 335.76C341.611 335.52 342.051 335.4 342.531 335.4C342.964 335.4 343.341 335.487 343.661 335.66C343.987 335.827 344.247 336.037 344.441 336.29V335.49H345.591V341H344.441V340.18C344.247 340.44 343.984 340.657 343.651 340.83C343.317 341.003 342.937 341.09 342.511 341.09C342.037 341.09 341.604 340.97 341.211 340.73C340.817 340.483 340.504 340.143 340.271 339.71C340.044 339.27 339.931 338.773 339.931 338.22ZM344.441 338.24C344.441 337.86 344.361 337.53 344.201 337.25C344.047 336.97 343.844 336.757 343.591 336.61C343.337 336.463 343.064 336.39 342.771 336.39C342.477 336.39 342.204 336.463 341.951 336.61C341.697 336.75 341.491 336.96 341.331 337.24C341.177 337.513 341.101 337.84 341.101 338.22C341.101 338.6 341.177 338.933 341.331 339.22C341.491 339.507 341.697 339.727 341.951 339.88C342.211 340.027 342.484 340.1 342.771 340.1C343.064 340.1 343.337 340.027 343.591 339.88C343.844 339.733 344.047 339.52 344.201 339.24C344.361 338.953 344.441 338.62 344.441 338.24ZM346.708 338.24C346.708 337.673 346.821 337.177 347.048 336.75C347.281 336.317 347.601 335.983 348.008 335.75C348.415 335.517 348.881 335.4 349.408 335.4C350.075 335.4 350.625 335.56 351.058 335.88C351.498 336.193 351.795 336.643 351.948 337.23H350.718C350.618 336.957 350.458 336.743 350.238 336.59C350.018 336.437 349.741 336.36 349.408 336.36C348.941 336.36 348.568 336.527 348.288 336.86C348.015 337.187 347.878 337.647 347.878 338.24C347.878 338.833 348.015 339.297 348.288 339.63C348.568 339.963 348.941 340.13 349.408 340.13C350.068 340.13 350.505 339.84 350.718 339.26H351.948C351.788 339.82 351.488 340.267 351.048 340.6C350.608 340.927 350.061 341.09 349.408 341.09C348.881 341.09 348.415 340.973 348.008 340.74C347.601 340.5 347.281 340.167 347.048 339.74C346.821 339.307 346.708 338.807 346.708 338.24ZM358.134 338.11C358.134 338.317 358.121 338.503 358.094 338.67H353.884C353.917 339.11 354.081 339.463 354.374 339.73C354.667 339.997 355.027 340.13 355.454 340.13C356.067 340.13 356.501 339.873 356.754 339.36H357.984C357.817 339.867 357.514 340.283 357.074 340.61C356.641 340.93 356.101 341.09 355.454 341.09C354.927 341.09 354.454 340.973 354.034 340.74C353.621 340.5 353.294 340.167 353.054 339.74C352.821 339.307 352.704 338.807 352.704 338.24C352.704 337.673 352.817 337.177 353.044 336.75C353.277 336.317 353.601 335.983 354.014 335.75C354.434 335.517 354.914 335.4 355.454 335.4C355.974 335.4 356.437 335.513 356.844 335.74C357.251 335.967 357.567 336.287 357.794 336.7C358.021 337.107 358.134 337.577 358.134 338.11ZM356.944 337.75C356.937 337.33 356.787 336.993 356.494 336.74C356.201 336.487 355.837 336.36 355.404 336.36C355.011 336.36 354.674 336.487 354.394 336.74C354.114 336.987 353.947 337.323 353.894 337.75H356.944ZM358.876 338.22C358.876 337.667 358.989 337.177 359.216 336.75C359.449 336.323 359.763 335.993 360.156 335.76C360.556 335.52 360.999 335.4 361.486 335.4C361.846 335.4 362.199 335.48 362.546 335.64C362.899 335.793 363.179 336 363.386 336.26V333.6H364.536V341H363.386V340.17C363.199 340.437 362.939 340.657 362.606 340.83C362.279 341.003 361.903 341.09 361.476 341.09C360.996 341.09 360.556 340.97 360.156 340.73C359.763 340.483 359.449 340.143 359.216 339.71C358.989 339.27 358.876 338.773 358.876 338.22ZM363.386 338.24C363.386 337.86 363.306 337.53 363.146 337.25C362.993 336.97 362.789 336.757 362.536 336.61C362.283 336.463 362.009 336.39 361.716 336.39C361.423 336.39 361.149 336.463 360.896 336.61C360.643 336.75 360.436 336.96 360.276 337.24C360.123 337.513 360.046 337.84 360.046 338.22C360.046 338.6 360.123 338.933 360.276 339.22C360.436 339.507 360.643 339.727 360.896 339.88C361.156 340.027 361.429 340.1 361.716 340.1C362.009 340.1 362.283 340.027 362.536 339.88C362.789 339.733 362.993 339.52 363.146 339.24C363.306 338.953 363.386 338.62 363.386 338.24ZM366.493 341.07C366.287 341.07 366.113 341 365.973 340.86C365.833 340.72 365.763 340.547 365.763 340.34C365.763 340.133 365.833 339.96 365.973 339.82C366.113 339.68 366.287 339.61 366.493 339.61C366.693 339.61 366.863 339.68 367.003 339.82C367.143 339.96 367.213 340.133 367.213 340.34C367.213 340.547 367.143 340.72 367.003 340.86C366.863 341 366.693 341.07 366.493 341.07Z" fill="#808080"/>
<rect x="160" y="270" width="220" height="30" rx="15" fill="white" fill-opacity="0.1"/>
<rect x="390" y="270" width="80" height="30" rx="15" fill="white" fill-opacity="0.1"/>
<path d="M418.8 289.084C418.24 289.084 417.736 288.988 417.288 288.796C416.84 288.596 416.488 288.316 416.232 287.956C415.976 287.596 415.848 287.176 415.848 286.696H417.312C417.344 287.056 417.484 287.352 417.732 287.584C417.988 287.816 418.344 287.932 418.8 287.932C419.272 287.932 419.64 287.82 419.904 287.596C420.168 287.364 420.3 287.068 420.3 286.708C420.3 286.428 420.216 286.2 420.048 286.024C419.888 285.848 419.684 285.712 419.436 285.616C419.196 285.52 418.86 285.416 418.428 285.304C417.884 285.16 417.44 285.016 417.096 284.872C416.76 284.72 416.472 284.488 416.232 284.176C415.992 283.864 415.872 283.448 415.872 282.928C415.872 282.448 415.992 282.028 416.232 281.668C416.472 281.308 416.808 281.032 417.24 280.84C417.672 280.648 418.172 280.552 418.74 280.552C419.548 280.552 420.208 280.756 420.72 281.164C421.24 281.564 421.528 282.116 421.584 282.82H420.072C420.048 282.516 419.904 282.256 419.64 282.04C419.376 281.824 419.028 281.716 418.596 281.716C418.204 281.716 417.884 281.816 417.636 282.016C417.388 282.216 417.264 282.504 417.264 282.88C417.264 283.136 417.34 283.348 417.492 283.516C417.652 283.676 417.852 283.804 418.092 283.9C418.332 283.996 418.66 284.1 419.076 284.212C419.628 284.364 420.076 284.516 420.42 284.668C420.772 284.82 421.068 285.056 421.308 285.376C421.556 285.688 421.68 286.108 421.68 286.636C421.68 287.06 421.564 287.46 421.332 287.836C421.108 288.212 420.776 288.516 420.336 288.748C419.904 288.972 419.392 289.084 418.8 289.084ZM422.839 285.664C422.839 285 422.975 284.412 423.247 283.9C423.527 283.388 423.903 282.992 424.375 282.712C424.855 282.424 425.383 282.28 425.959 282.28C426.479 282.28 426.931 282.384 427.315 282.592C427.707 282.792 428.019 283.044 428.251 283.348V282.388H429.631V289H428.251V288.016C428.019 288.328 427.703 288.588 427.303 288.796C426.903 289.004 426.447 289.108 425.935 289.108C425.367 289.108 424.847 288.964 424.375 288.676C423.903 288.38 423.527 287.972 423.247 287.452C422.975 286.924 422.839 286.328 422.839 285.664ZM428.251 285.688C428.251 285.232 428.155 284.836 427.963 284.5C427.779 284.164 427.535 283.908 427.231 283.732C426.927 283.556 426.599 283.468 426.247 283.468C425.895 283.468 425.567 283.556 425.263 283.732C424.959 283.9 424.711 284.152 424.519 284.488C424.335 284.816 424.243 285.208 424.243 285.664C424.243 286.12 424.335 286.52 424.519 286.864C424.711 287.208 424.959 287.472 425.263 287.656C425.575 287.832 425.903 287.92 426.247 287.92C426.599 287.92 426.927 287.832 427.231 287.656C427.535 287.48 427.779 287.224 427.963 286.888C428.155 286.544 428.251 286.144 428.251 285.688ZM433.983 287.776L435.855 282.388H437.307L434.787 289H433.155L430.647 282.388H432.111L433.983 287.776ZM444.401 285.532C444.401 285.78 444.385 286.004 444.353 286.204H439.301C439.341 286.732 439.537 287.156 439.889 287.476C440.241 287.796 440.673 287.956 441.185 287.956C441.921 287.956 442.441 287.648 442.745 287.032H444.221C444.021 287.64 443.657 288.14 443.129 288.532C442.609 288.916 441.961 289.108 441.185 289.108C440.553 289.108 439.985 288.968 439.481 288.688C438.985 288.4 438.593 288 438.305 287.488C438.025 286.968 437.885 286.368 437.885 285.688C437.885 285.008 438.021 284.412 438.293 283.9C438.573 283.38 438.961 282.98 439.457 282.7C439.961 282.42 440.537 282.28 441.185 282.28C441.809 282.28 442.365 282.416 442.853 282.688C443.341 282.96 443.721 283.344 443.993 283.84C444.265 284.328 444.401 284.892 444.401 285.532ZM442.973 285.1C442.965 284.596 442.785 284.192 442.433 283.888C442.081 283.584 441.645 283.432 441.125 283.432C440.653 283.432 440.249 283.584 439.913 283.888C439.577 284.184 439.377 284.588 439.313 285.1H442.973Z" fill="white"/>
</g>
<defs>
<clipPath id="clip0_153_337">
<rect width="480" height="360" fill="white"/>
</clipPath>
</defs>
</svg>
