<svg width="80" height="28" viewBox="0 0 80 28" fill="none" xmlns="http://www.w3.org/2000/svg">
<rect width="80" height="28" rx="5" fill="#E6E6E6"/>
<path d="M11.89 13.29C12.0567 13.01 12.2767 12.7933 12.55 12.64C12.83 12.48 13.16 12.4 13.54 12.4V13.58H13.25C12.8033 13.58 12.4633 13.6933 12.23 13.92C12.0033 14.1467 11.89 14.54 11.89 15.1V18H10.75V12.49H11.89V13.29ZM19.6379 15.11C19.6379 15.3167 19.6246 15.5033 19.5979 15.67H15.3879C15.4212 16.11 15.5846 16.4633 15.8779 16.73C16.1712 16.9967 16.5312 17.13 16.9579 17.13C17.5712 17.13 18.0046 16.8733 18.2579 16.36H19.4879C19.3212 16.8667 19.0179 17.2833 18.5779 17.61C18.1446 17.93 17.6046 18.09 16.9579 18.09C16.4312 18.09 15.9579 17.9733 15.5379 17.74C15.1246 17.5 14.7979 17.1667 14.5579 16.74C14.3246 16.3067 14.2079 15.8067 14.2079 15.24C14.2079 14.6733 14.3212 14.1767 14.5479 13.75C14.7812 13.3167 15.1046 12.9833 15.5179 12.75C15.9379 12.5167 16.4179 12.4 16.9579 12.4C17.4779 12.4 17.9412 12.5133 18.3479 12.74C18.7546 12.9667 19.0712 13.2867 19.2979 13.7C19.5246 14.1067 19.6379 14.5767 19.6379 15.11ZM18.4479 14.75C18.4412 14.33 18.2912 13.9933 17.9979 13.74C17.7046 13.4867 17.3412 13.36 16.9079 13.36C16.5146 13.36 16.1779 13.4867 15.8979 13.74C15.6179 13.9867 15.4512 14.3233 15.3979 14.75H18.4479ZM23.5398 12.4C23.9731 12.4 24.3598 12.49 24.6998 12.67C25.0464 12.85 25.3164 13.1167 25.5098 13.47C25.7031 13.8233 25.7998 14.25 25.7998 14.75V18H24.6698V14.92C24.6698 14.4267 24.5464 14.05 24.2998 13.79C24.0531 13.5233 23.7164 13.39 23.2898 13.39C22.8631 13.39 22.5231 13.5233 22.2698 13.79C22.0231 14.05 21.8998 14.4267 21.8998 14.92V18H20.7598V12.49H21.8998V13.12C22.0864 12.8933 22.3231 12.7167 22.6098 12.59C22.9031 12.4633 23.2131 12.4 23.5398 12.4ZM26.8739 15.22C26.8739 14.6667 26.9872 14.1767 27.2139 13.75C27.4472 13.3233 27.7606 12.9933 28.1539 12.76C28.5539 12.52 28.9939 12.4 29.4739 12.4C29.9072 12.4 30.2839 12.4867 30.6039 12.66C30.9306 12.8267 31.1906 13.0367 31.3839 13.29V12.49H32.5339V18H31.3839V17.18C31.1906 17.44 30.9272 17.6567 30.5939 17.83C30.2606 18.0033 29.8806 18.09 29.4539 18.09C28.9806 18.09 28.5472 17.97 28.1539 17.73C27.7606 17.4833 27.4472 17.1433 27.2139 16.71C26.9872 16.27 26.8739 15.7733 26.8739 15.22ZM31.3839 15.24C31.3839 14.86 31.3039 14.53 31.1439 14.25C30.9906 13.97 30.7872 13.7567 30.5339 13.61C30.2806 13.4633 30.0072 13.39 29.7139 13.39C29.4206 13.39 29.1472 13.4633 28.8939 13.61C28.6406 13.75 28.4339 13.96 28.2739 14.24C28.1206 14.5133 28.0439 14.84 28.0439 15.22C28.0439 15.6 28.1206 15.9333 28.2739 16.22C28.4339 16.5067 28.6406 16.7267 28.8939 16.88C29.1539 17.0267 29.4272 17.1 29.7139 17.1C30.0072 17.1 30.2806 17.0267 30.5339 16.88C30.7872 16.7333 30.9906 16.52 31.1439 16.24C31.3039 15.9533 31.3839 15.62 31.3839 15.24ZM40.7013 12.4C41.1346 12.4 41.5213 12.49 41.8613 12.67C42.2079 12.85 42.4779 13.1167 42.6713 13.47C42.8713 13.8233 42.9713 14.25 42.9713 14.75V18H41.8413V14.92C41.8413 14.4267 41.7179 14.05 41.4713 13.79C41.2246 13.5233 40.8879 13.39 40.4613 13.39C40.0346 13.39 39.6946 13.5233 39.4413 13.79C39.1946 14.05 39.0713 14.4267 39.0713 14.92V18H37.9413V14.92C37.9413 14.4267 37.8179 14.05 37.5713 13.79C37.3246 13.5233 36.9879 13.39 36.5613 13.39C36.1346 13.39 35.7946 13.5233 35.5413 13.79C35.2946 14.05 35.1713 14.4267 35.1713 14.92V18H34.0313V12.49H35.1713V13.12C35.3579 12.8933 35.5946 12.7167 35.8813 12.59C36.1679 12.4633 36.4746 12.4 36.8013 12.4C37.2413 12.4 37.6346 12.4933 37.9813 12.68C38.3279 12.8667 38.5946 13.1367 38.7813 13.49C38.9479 13.1567 39.2079 12.8933 39.5613 12.7C39.9146 12.5 40.2946 12.4 40.7013 12.4ZM49.4719 15.11C49.4719 15.3167 49.4585 15.5033 49.4319 15.67H45.2219C45.2552 16.11 45.4185 16.4633 45.7119 16.73C46.0052 16.9967 46.3652 17.13 46.7919 17.13C47.4052 17.13 47.8385 16.8733 48.0919 16.36H49.3219C49.1552 16.8667 48.8519 17.2833 48.4119 17.61C47.9785 17.93 47.4385 18.09 46.7919 18.09C46.2652 18.09 45.7919 17.9733 45.3719 17.74C44.9585 17.5 44.6319 17.1667 44.3919 16.74C44.1585 16.3067 44.0419 15.8067 44.0419 15.24C44.0419 14.6733 44.1552 14.1767 44.3819 13.75C44.6152 13.3167 44.9385 12.9833 45.3519 12.75C45.7719 12.5167 46.2519 12.4 46.7919 12.4C47.3119 12.4 47.7752 12.5133 48.1819 12.74C48.5885 12.9667 48.9052 13.2867 49.1319 13.7C49.3585 14.1067 49.4719 14.5767 49.4719 15.11ZM48.2819 14.75C48.2752 14.33 48.1252 13.9933 47.8319 13.74C47.5385 13.4867 47.1752 13.36 46.7419 13.36C46.3485 13.36 46.0119 13.4867 45.7319 13.74C45.4519 13.9867 45.2852 14.3233 45.2319 14.75H48.2819Z" fill="black"/>
</svg>
