<svg width="480" height="360" viewBox="0 0 480 360" fill="none" xmlns="http://www.w3.org/2000/svg">
<path d="M177.744 19.88V21.368H173.024V24.648H176.704V26.136H173.024V31H171.2V19.88H177.744ZM183.258 31.144C182.426 31.144 181.674 30.9573 181.002 30.584C180.33 30.2 179.802 29.6667 179.418 28.984C179.034 28.2907 178.842 27.4907 178.842 26.584C178.842 25.688 179.04 24.8933 179.434 24.2C179.829 23.5067 180.368 22.9733 181.05 22.6C181.733 22.2267 182.496 22.04 183.338 22.04C184.181 22.04 184.944 22.2267 185.626 22.6C186.309 22.9733 186.848 23.5067 187.242 24.2C187.637 24.8933 187.834 25.688 187.834 26.584C187.834 27.48 187.632 28.2747 187.226 28.968C186.821 29.6613 186.266 30.2 185.562 30.584C184.869 30.9573 184.101 31.144 183.258 31.144ZM183.258 29.56C183.728 29.56 184.165 29.448 184.57 29.224C184.986 29 185.322 28.664 185.578 28.216C185.834 27.768 185.962 27.224 185.962 26.584C185.962 25.944 185.84 25.4053 185.594 24.968C185.349 24.52 185.024 24.184 184.618 23.96C184.213 23.736 183.776 23.624 183.306 23.624C182.837 23.624 182.4 23.736 181.994 23.96C181.6 24.184 181.285 24.52 181.05 24.968C180.816 25.4053 180.698 25.944 180.698 26.584C180.698 27.5333 180.938 28.2693 181.418 28.792C181.909 29.304 182.522 29.56 183.258 29.56ZM194.086 22.04C194.779 22.04 195.398 22.184 195.942 22.472C196.496 22.76 196.928 23.1867 197.238 23.752C197.547 24.3173 197.702 25 197.702 25.8V31H195.894V26.072C195.894 25.2827 195.696 24.68 195.302 24.264C194.907 23.8373 194.368 23.624 193.686 23.624C193.003 23.624 192.459 23.8373 192.054 24.264C191.659 24.68 191.462 25.2827 191.462 26.072V31H189.638V22.184H191.462V23.192C191.76 22.8293 192.139 22.5467 192.598 22.344C193.067 22.1413 193.563 22.04 194.086 22.04ZM202.156 23.672V28.552C202.156 28.8827 202.231 29.1227 202.38 29.272C202.54 29.4107 202.807 29.48 203.18 29.48H204.3V31H202.86C202.039 31 201.409 30.808 200.972 30.424C200.535 30.04 200.316 29.416 200.316 28.552V23.672H199.276V22.184H200.316V19.992H202.156V22.184H204.3V23.672H202.156ZM213.338 31.144C212.644 31.144 212.02 31.0213 211.466 30.776C210.922 30.52 210.49 30.1787 210.17 29.752C209.85 29.3147 209.679 28.8293 209.658 28.296H211.546C211.578 28.6693 211.754 28.984 212.074 29.24C212.404 29.4853 212.815 29.608 213.306 29.608C213.818 29.608 214.212 29.512 214.49 29.32C214.778 29.1173 214.922 28.8613 214.922 28.552C214.922 28.2213 214.762 27.976 214.442 27.816C214.132 27.656 213.636 27.48 212.954 27.288C212.292 27.1067 211.754 26.9307 211.338 26.76C210.922 26.5893 210.559 26.328 210.25 25.976C209.951 25.624 209.802 25.16 209.802 24.584C209.802 24.1147 209.94 23.688 210.218 23.304C210.495 22.9093 210.89 22.6 211.402 22.376C211.924 22.152 212.522 22.04 213.194 22.04C214.196 22.04 215.002 22.296 215.61 22.808C216.228 23.3093 216.559 23.9973 216.602 24.872H214.778C214.746 24.4773 214.586 24.1627 214.298 23.928C214.01 23.6933 213.62 23.576 213.13 23.576C212.65 23.576 212.282 23.6667 212.026 23.848C211.77 24.0293 211.642 24.2693 211.642 24.568C211.642 24.8027 211.727 25 211.898 25.16C212.068 25.32 212.276 25.448 212.522 25.544C212.767 25.6293 213.13 25.7413 213.61 25.88C214.25 26.0507 214.772 26.2267 215.178 26.408C215.594 26.5787 215.951 26.8347 216.25 27.176C216.548 27.5173 216.703 27.9707 216.714 28.536C216.714 29.0373 216.575 29.4853 216.298 29.88C216.02 30.2747 215.626 30.584 215.114 30.808C214.612 31.032 214.02 31.144 213.338 31.144ZM219.612 21.016C219.282 21.016 219.004 20.904 218.78 20.68C218.556 20.456 218.444 20.1787 218.444 19.848C218.444 19.5173 218.556 19.24 218.78 19.016C219.004 18.792 219.282 18.68 219.612 18.68C219.932 18.68 220.204 18.792 220.428 19.016C220.652 19.24 220.764 19.5173 220.764 19.848C220.764 20.1787 220.652 20.456 220.428 20.68C220.204 20.904 219.932 21.016 219.612 21.016ZM220.508 22.184V31H218.684V22.184H220.508ZM224.519 29.512H228.519V31H222.407V29.512L226.423 23.672H222.407V22.184H228.519V23.672L224.519 29.512ZM238.514 26.376C238.514 26.7067 238.493 27.0053 238.45 27.272H231.714C231.768 27.976 232.029 28.5413 232.498 28.968C232.968 29.3947 233.544 29.608 234.226 29.608C235.208 29.608 235.901 29.1973 236.306 28.376H238.274C238.008 29.1867 237.522 29.8533 236.818 30.376C236.125 30.888 235.261 31.144 234.226 31.144C233.384 31.144 232.626 30.9573 231.954 30.584C231.293 30.2 230.77 29.6667 230.386 28.984C230.013 28.2907 229.826 27.4907 229.826 26.584C229.826 25.6773 230.008 24.8827 230.37 24.2C230.744 23.5067 231.261 22.9733 231.922 22.6C232.594 22.2267 233.362 22.04 234.226 22.04C235.058 22.04 235.8 22.2213 236.45 22.584C237.101 22.9467 237.608 23.4587 237.97 24.12C238.333 24.7707 238.514 25.5227 238.514 26.376ZM236.61 25.8C236.6 25.128 236.36 24.5893 235.89 24.184C235.421 23.7787 234.84 23.576 234.146 23.576C233.517 23.576 232.978 23.7787 232.53 24.184C232.082 24.5787 231.816 25.1173 231.73 25.8H236.61Z" fill="black"/>
<path d="M170.444 64.812C170.444 63.996 170.632 63.264 171.008 62.616C171.392 61.968 171.908 61.464 172.556 61.104C173.212 60.736 173.928 60.552 174.704 60.552C175.592 60.552 176.38 60.772 177.068 61.212C177.764 61.644 178.268 62.26 178.58 63.06H176.936C176.72 62.62 176.42 62.292 176.036 62.076C175.652 61.86 175.208 61.752 174.704 61.752C174.152 61.752 173.66 61.876 173.228 62.124C172.796 62.372 172.456 62.728 172.208 63.192C171.968 63.656 171.848 64.196 171.848 64.812C171.848 65.428 171.968 65.968 172.208 66.432C172.456 66.896 172.796 67.256 173.228 67.512C173.66 67.76 174.152 67.884 174.704 67.884C175.208 67.884 175.652 67.776 176.036 67.56C176.42 67.344 176.72 67.016 176.936 66.576H178.58C178.268 67.376 177.764 67.992 177.068 68.424C176.38 68.856 175.592 69.072 174.704 69.072C173.92 69.072 173.204 68.892 172.556 68.532C171.908 68.164 171.392 67.656 171.008 67.008C170.632 66.36 170.444 65.628 170.444 64.812ZM186.169 62.388V69H184.801V68.22C184.585 68.492 184.301 68.708 183.949 68.868C183.605 69.02 183.237 69.096 182.845 69.096C182.325 69.096 181.857 68.988 181.441 68.772C181.033 68.556 180.709 68.236 180.469 67.812C180.237 67.388 180.121 66.876 180.121 66.276V62.388H181.477V66.072C181.477 66.664 181.625 67.12 181.921 67.44C182.217 67.752 182.621 67.908 183.133 67.908C183.645 67.908 184.049 67.752 184.345 67.44C184.649 67.12 184.801 66.664 184.801 66.072V62.388H186.169ZM190.374 69.108C189.854 69.108 189.386 69.016 188.97 68.832C188.562 68.64 188.238 68.384 187.998 68.064C187.758 67.736 187.63 67.372 187.614 66.972H189.03C189.054 67.252 189.186 67.488 189.426 67.68C189.674 67.864 189.982 67.956 190.35 67.956C190.734 67.956 191.03 67.884 191.238 67.74C191.454 67.588 191.562 67.396 191.562 67.164C191.562 66.916 191.442 66.732 191.202 66.612C190.97 66.492 190.598 66.36 190.086 66.216C189.59 66.08 189.186 65.948 188.874 65.82C188.562 65.692 188.29 65.496 188.058 65.232C187.834 64.968 187.722 64.62 187.722 64.188C187.722 63.836 187.826 63.516 188.034 63.228C188.242 62.932 188.538 62.7 188.922 62.532C189.314 62.364 189.762 62.28 190.266 62.28C191.018 62.28 191.622 62.472 192.078 62.856C192.542 63.232 192.79 63.748 192.822 64.404H191.454C191.43 64.108 191.31 63.872 191.094 63.696C190.878 63.52 190.586 63.432 190.218 63.432C189.858 63.432 189.582 63.5 189.39 63.636C189.198 63.772 189.102 63.952 189.102 64.176C189.102 64.352 189.166 64.5 189.294 64.62C189.422 64.74 189.578 64.836 189.762 64.908C189.946 64.972 190.218 65.056 190.578 65.16C191.058 65.288 191.45 65.42 191.754 65.556C192.066 65.684 192.334 65.876 192.558 66.132C192.782 66.388 192.898 66.728 192.906 67.152C192.906 67.528 192.802 67.864 192.594 68.16C192.386 68.456 192.09 68.688 191.706 68.856C191.33 69.024 190.886 69.108 190.374 69.108ZM195.98 63.504V67.164C195.98 67.412 196.036 67.592 196.148 67.704C196.268 67.808 196.468 67.86 196.748 67.86H197.588V69H196.508C195.892 69 195.42 68.856 195.092 68.568C194.764 68.28 194.6 67.812 194.6 67.164V63.504H193.82V62.388H194.6V60.744H195.98V62.388H197.588V63.504H195.98ZM201.717 69.108C201.093 69.108 200.529 68.968 200.025 68.688C199.521 68.4 199.125 68 198.837 67.488C198.549 66.968 198.405 66.368 198.405 65.688C198.405 65.016 198.553 64.42 198.849 63.9C199.145 63.38 199.549 62.98 200.061 62.7C200.573 62.42 201.145 62.28 201.777 62.28C202.409 62.28 202.981 62.42 203.493 62.7C204.005 62.98 204.409 63.38 204.705 63.9C205.001 64.42 205.149 65.016 205.149 65.688C205.149 66.36 204.997 66.956 204.693 67.476C204.389 67.996 203.973 68.4 203.445 68.688C202.925 68.968 202.349 69.108 201.717 69.108ZM201.717 67.92C202.069 67.92 202.397 67.836 202.701 67.668C203.013 67.5 203.265 67.248 203.457 66.912C203.649 66.576 203.745 66.168 203.745 65.688C203.745 65.208 203.653 64.804 203.469 64.476C203.285 64.14 203.041 63.888 202.737 63.72C202.433 63.552 202.105 63.468 201.753 63.468C201.401 63.468 201.073 63.552 200.769 63.72C200.473 63.888 200.237 64.14 200.061 64.476C199.885 64.804 199.797 65.208 199.797 65.688C199.797 66.4 199.977 66.952 200.337 67.344C200.705 67.728 201.165 67.92 201.717 67.92ZM214.506 62.28C215.026 62.28 215.49 62.388 215.898 62.604C216.314 62.82 216.638 63.14 216.87 63.564C217.11 63.988 217.23 64.5 217.23 65.1V69H215.874V65.304C215.874 64.712 215.726 64.26 215.43 63.948C215.134 63.628 214.73 63.468 214.218 63.468C213.706 63.468 213.298 63.628 212.994 63.948C212.698 64.26 212.55 64.712 212.55 65.304V69H211.194V65.304C211.194 64.712 211.046 64.26 210.75 63.948C210.454 63.628 210.05 63.468 209.538 63.468C209.026 63.468 208.618 63.628 208.314 63.948C208.018 64.26 207.87 64.712 207.87 65.304V69H206.502V62.388H207.87V63.144C208.094 62.872 208.378 62.66 208.722 62.508C209.066 62.356 209.434 62.28 209.826 62.28C210.354 62.28 210.826 62.392 211.242 62.616C211.658 62.84 211.978 63.164 212.202 63.588C212.402 63.188 212.714 62.872 213.138 62.64C213.562 62.4 214.018 62.28 214.506 62.28Z" fill="black"/>
<path d="M176.732 133.144C176.732 133.568 176.632 133.968 176.432 134.344C176.232 134.72 175.912 135.028 175.472 135.268C175.032 135.5 174.468 135.616 173.78 135.616H172.268V139H170.9V130.66H173.78C174.42 130.66 174.96 130.772 175.4 130.996C175.848 131.212 176.18 131.508 176.396 131.884C176.62 132.26 176.732 132.68 176.732 133.144ZM173.78 134.5C174.3 134.5 174.688 134.384 174.944 134.152C175.2 133.912 175.328 133.576 175.328 133.144C175.328 132.232 174.812 131.776 173.78 131.776H172.268V134.5H173.78ZM179.405 133.348C179.605 133.012 179.869 132.752 180.197 132.568C180.533 132.376 180.929 132.28 181.385 132.28V133.696H181.037C180.501 133.696 180.093 133.832 179.813 134.104C179.541 134.376 179.405 134.848 179.405 135.52V139H178.037V132.388H179.405V133.348ZM188.702 135.532C188.702 135.78 188.686 136.004 188.654 136.204H183.602C183.642 136.732 183.838 137.156 184.19 137.476C184.542 137.796 184.974 137.956 185.486 137.956C186.222 137.956 186.742 137.648 187.046 137.032H188.522C188.322 137.64 187.958 138.14 187.43 138.532C186.91 138.916 186.262 139.108 185.486 139.108C184.854 139.108 184.286 138.968 183.782 138.688C183.286 138.4 182.894 138 182.606 137.488C182.326 136.968 182.186 136.368 182.186 135.688C182.186 135.008 182.322 134.412 182.594 133.9C182.874 133.38 183.262 132.98 183.758 132.7C184.262 132.42 184.838 132.28 185.486 132.28C186.11 132.28 186.666 132.416 187.154 132.688C187.642 132.96 188.022 133.344 188.294 133.84C188.566 134.328 188.702 134.892 188.702 135.532ZM187.274 135.1C187.266 134.596 187.086 134.192 186.734 133.888C186.382 133.584 185.946 133.432 185.426 133.432C184.954 133.432 184.55 133.584 184.214 133.888C183.878 134.184 183.678 134.588 183.614 135.1H187.274ZM195.124 134.08V135.232H190.192V134.08H195.124ZM199.468 139.108C198.948 139.108 198.48 139.016 198.064 138.832C197.656 138.64 197.332 138.384 197.092 138.064C196.852 137.736 196.724 137.372 196.708 136.972H198.124C198.148 137.252 198.28 137.488 198.52 137.68C198.768 137.864 199.076 137.956 199.444 137.956C199.828 137.956 200.124 137.884 200.332 137.74C200.548 137.588 200.656 137.396 200.656 137.164C200.656 136.916 200.536 136.732 200.296 136.612C200.064 136.492 199.692 136.36 199.18 136.216C198.684 136.08 198.28 135.948 197.968 135.82C197.656 135.692 197.384 135.496 197.152 135.232C196.928 134.968 196.816 134.62 196.816 134.188C196.816 133.836 196.92 133.516 197.128 133.228C197.336 132.932 197.632 132.7 198.016 132.532C198.408 132.364 198.856 132.28 199.36 132.28C200.112 132.28 200.716 132.472 201.172 132.856C201.636 133.232 201.884 133.748 201.916 134.404H200.548C200.524 134.108 200.404 133.872 200.188 133.696C199.972 133.52 199.68 133.432 199.312 133.432C198.952 133.432 198.676 133.5 198.484 133.636C198.292 133.772 198.196 133.952 198.196 134.176C198.196 134.352 198.26 134.5 198.388 134.62C198.516 134.74 198.672 134.836 198.856 134.908C199.04 134.972 199.312 135.056 199.672 135.16C200.152 135.288 200.544 135.42 200.848 135.556C201.16 135.684 201.428 135.876 201.652 136.132C201.876 136.388 201.992 136.728 202 137.152C202 137.528 201.896 137.864 201.688 138.16C201.48 138.456 201.184 138.688 200.8 138.856C200.424 139.024 199.98 139.108 199.468 139.108ZM209.538 135.532C209.538 135.78 209.522 136.004 209.49 136.204H204.438C204.478 136.732 204.674 137.156 205.026 137.476C205.378 137.796 205.81 137.956 206.322 137.956C207.058 137.956 207.578 137.648 207.882 137.032H209.358C209.158 137.64 208.794 138.14 208.266 138.532C207.746 138.916 207.098 139.108 206.322 139.108C205.69 139.108 205.122 138.968 204.618 138.688C204.122 138.4 203.73 138 203.442 137.488C203.162 136.968 203.022 136.368 203.022 135.688C203.022 135.008 203.158 134.412 203.43 133.9C203.71 133.38 204.098 132.98 204.594 132.7C205.098 132.42 205.674 132.28 206.322 132.28C206.946 132.28 207.502 132.416 207.99 132.688C208.478 132.96 208.858 133.344 209.13 133.84C209.402 134.328 209.538 134.892 209.538 135.532ZM208.11 135.1C208.102 134.596 207.922 134.192 207.57 133.888C207.218 133.584 206.782 133.432 206.262 133.432C205.79 133.432 205.386 133.584 205.05 133.888C204.714 134.184 204.514 134.588 204.45 135.1H208.11ZM212.48 133.504V137.164C212.48 137.412 212.536 137.592 212.648 137.704C212.768 137.808 212.968 137.86 213.248 137.86H214.088V139H213.008C212.392 139 211.92 138.856 211.592 138.568C211.264 138.28 211.1 137.812 211.1 137.164V133.504H210.32V132.388H211.1V130.744H212.48V132.388H214.088V133.504H212.48ZM216.945 133.504V137.164C216.945 137.412 217.001 137.592 217.113 137.704C217.233 137.808 217.433 137.86 217.713 137.86H218.553V139H217.473C216.857 139 216.385 138.856 216.057 138.568C215.729 138.28 215.565 137.812 215.565 137.164V133.504H214.785V132.388H215.565V130.744H216.945V132.388H218.553V133.504H216.945ZM220.51 131.512C220.262 131.512 220.054 131.428 219.886 131.26C219.718 131.092 219.634 130.884 219.634 130.636C219.634 130.388 219.718 130.18 219.886 130.012C220.054 129.844 220.262 129.76 220.51 129.76C220.75 129.76 220.954 129.844 221.122 130.012C221.29 130.18 221.374 130.388 221.374 130.636C221.374 130.884 221.29 131.092 221.122 131.26C220.954 131.428 220.75 131.512 220.51 131.512ZM221.182 132.388V139H219.814V132.388H221.182ZM226.314 132.28C226.834 132.28 227.298 132.388 227.706 132.604C228.122 132.82 228.446 133.14 228.678 133.564C228.91 133.988 229.026 134.5 229.026 135.1V139H227.67V135.304C227.67 134.712 227.522 134.26 227.226 133.948C226.93 133.628 226.526 133.468 226.014 133.468C225.502 133.468 225.094 133.628 224.79 133.948C224.494 134.26 224.346 134.712 224.346 135.304V139H222.978V132.388H224.346V133.144C224.57 132.872 224.854 132.66 225.198 132.508C225.55 132.356 225.922 132.28 226.314 132.28ZM233.435 132.28C233.947 132.28 234.399 132.384 234.791 132.592C235.191 132.792 235.503 133.044 235.727 133.348V132.388H237.107V139.108C237.107 139.716 236.979 140.256 236.723 140.728C236.467 141.208 236.095 141.584 235.607 141.856C235.127 142.128 234.551 142.264 233.879 142.264C232.983 142.264 232.239 142.052 231.647 141.628C231.055 141.212 230.719 140.644 230.639 139.924H231.995C232.099 140.268 232.319 140.544 232.655 140.752C232.999 140.968 233.407 141.076 233.879 141.076C234.431 141.076 234.875 140.908 235.211 140.572C235.555 140.236 235.727 139.748 235.727 139.108V138.004C235.495 138.316 235.179 138.58 234.779 138.796C234.387 139.004 233.939 139.108 233.435 139.108C232.859 139.108 232.331 138.964 231.851 138.676C231.379 138.38 231.003 137.972 230.723 137.452C230.451 136.924 230.315 136.328 230.315 135.664C230.315 135 230.451 134.412 230.723 133.9C231.003 133.388 231.379 132.992 231.851 132.712C232.331 132.424 232.859 132.28 233.435 132.28ZM235.727 135.688C235.727 135.232 235.631 134.836 235.439 134.5C235.255 134.164 235.011 133.908 234.707 133.732C234.403 133.556 234.075 133.468 233.723 133.468C233.371 133.468 233.043 133.556 232.739 133.732C232.435 133.9 232.187 134.152 231.995 134.488C231.811 134.816 231.719 135.208 231.719 135.664C231.719 136.12 231.811 136.52 231.995 136.864C232.187 137.208 232.435 137.472 232.739 137.656C233.051 137.832 233.379 137.92 233.723 137.92C234.075 137.92 234.403 137.832 234.707 137.656C235.011 137.48 235.255 137.224 235.439 136.888C235.631 136.544 235.727 136.144 235.727 135.688ZM241.304 139.108C240.784 139.108 240.316 139.016 239.9 138.832C239.492 138.64 239.168 138.384 238.928 138.064C238.688 137.736 238.56 137.372 238.544 136.972H239.96C239.984 137.252 240.116 137.488 240.356 137.68C240.604 137.864 240.912 137.956 241.28 137.956C241.664 137.956 241.96 137.884 242.168 137.74C242.384 137.588 242.492 137.396 242.492 137.164C242.492 136.916 242.372 136.732 242.132 136.612C241.9 136.492 241.528 136.36 241.016 136.216C240.52 136.08 240.116 135.948 239.804 135.82C239.492 135.692 239.22 135.496 238.988 135.232C238.764 134.968 238.652 134.62 238.652 134.188C238.652 133.836 238.756 133.516 238.964 133.228C239.172 132.932 239.468 132.7 239.852 132.532C240.244 132.364 240.692 132.28 241.196 132.28C241.948 132.28 242.552 132.472 243.008 132.856C243.472 133.232 243.72 133.748 243.752 134.404H242.384C242.36 134.108 242.24 133.872 242.024 133.696C241.808 133.52 241.516 133.432 241.148 133.432C240.788 133.432 240.512 133.5 240.32 133.636C240.128 133.772 240.032 133.952 240.032 134.176C240.032 134.352 240.096 134.5 240.224 134.62C240.352 134.74 240.508 134.836 240.692 134.908C240.876 134.972 241.148 135.056 241.508 135.16C241.988 135.288 242.38 135.42 242.684 135.556C242.996 135.684 243.264 135.876 243.488 136.132C243.712 136.388 243.828 136.728 243.836 137.152C243.836 137.528 243.732 137.864 243.524 138.16C243.316 138.456 243.02 138.688 242.636 138.856C242.26 139.024 241.816 139.108 241.304 139.108Z" fill="black"/>
<path d="M176.732 203.144C176.732 203.568 176.632 203.968 176.432 204.344C176.232 204.72 175.912 205.028 175.472 205.268C175.032 205.5 174.468 205.616 173.78 205.616H172.268V209H170.9V200.66H173.78C174.42 200.66 174.96 200.772 175.4 200.996C175.848 201.212 176.18 201.508 176.396 201.884C176.62 202.26 176.732 202.68 176.732 203.144ZM173.78 204.5C174.3 204.5 174.688 204.384 174.944 204.152C175.2 203.912 175.328 203.576 175.328 203.144C175.328 202.232 174.812 201.776 173.78 201.776H172.268V204.5H173.78ZM179.405 203.348C179.605 203.012 179.869 202.752 180.197 202.568C180.533 202.376 180.929 202.28 181.385 202.28V203.696H181.037C180.501 203.696 180.093 203.832 179.813 204.104C179.541 204.376 179.405 204.848 179.405 205.52V209H178.037V202.388H179.405V203.348ZM188.702 205.532C188.702 205.78 188.686 206.004 188.654 206.204H183.602C183.642 206.732 183.838 207.156 184.19 207.476C184.542 207.796 184.974 207.956 185.486 207.956C186.222 207.956 186.742 207.648 187.046 207.032H188.522C188.322 207.64 187.958 208.14 187.43 208.532C186.91 208.916 186.262 209.108 185.486 209.108C184.854 209.108 184.286 208.968 183.782 208.688C183.286 208.4 182.894 208 182.606 207.488C182.326 206.968 182.186 206.368 182.186 205.688C182.186 205.008 182.322 204.412 182.594 203.9C182.874 203.38 183.262 202.98 183.758 202.7C184.262 202.42 184.838 202.28 185.486 202.28C186.11 202.28 186.666 202.416 187.154 202.688C187.642 202.96 188.022 203.344 188.294 203.84C188.566 204.328 188.702 204.892 188.702 205.532ZM187.274 205.1C187.266 204.596 187.086 204.192 186.734 203.888C186.382 203.584 185.946 203.432 185.426 203.432C184.954 203.432 184.55 203.584 184.214 203.888C183.878 204.184 183.678 204.588 183.614 205.1H187.274ZM192.604 207.776L194.476 202.388H195.928L193.408 209H191.776L189.268 202.388H190.732L192.604 207.776ZM197.659 201.512C197.411 201.512 197.203 201.428 197.035 201.26C196.867 201.092 196.783 200.884 196.783 200.636C196.783 200.388 196.867 200.18 197.035 200.012C197.203 199.844 197.411 199.76 197.659 199.76C197.899 199.76 198.103 199.844 198.271 200.012C198.439 200.18 198.523 200.388 198.523 200.636C198.523 200.884 198.439 201.092 198.271 201.26C198.103 201.428 197.899 201.512 197.659 201.512ZM198.331 202.388V209H196.963V202.388H198.331ZM206.187 205.532C206.187 205.78 206.171 206.004 206.139 206.204H201.087C201.127 206.732 201.323 207.156 201.675 207.476C202.027 207.796 202.459 207.956 202.971 207.956C203.707 207.956 204.227 207.648 204.531 207.032H206.007C205.807 207.64 205.443 208.14 204.915 208.532C204.395 208.916 203.747 209.108 202.971 209.108C202.339 209.108 201.771 208.968 201.267 208.688C200.771 208.4 200.379 208 200.091 207.488C199.811 206.968 199.671 206.368 199.671 205.688C199.671 205.008 199.807 204.412 200.079 203.9C200.359 203.38 200.747 202.98 201.243 202.7C201.747 202.42 202.323 202.28 202.971 202.28C203.595 202.28 204.151 202.416 204.639 202.688C205.127 202.96 205.507 203.344 205.779 203.84C206.051 204.328 206.187 204.892 206.187 205.532ZM204.759 205.1C204.751 204.596 204.571 204.192 204.219 203.888C203.867 203.584 203.431 203.432 202.911 203.432C202.439 203.432 202.035 203.584 201.699 203.888C201.363 204.184 201.163 204.588 201.099 205.1H204.759ZM216.413 202.388L214.361 209H212.921L211.589 204.116L210.257 209H208.817L206.753 202.388H208.145L209.525 207.704L210.929 202.388H212.357L213.701 207.68L215.069 202.388H216.413Z" fill="black"/>
<rect x="165" y="85" width="300" height="20" rx="10" fill="black" fill-opacity="0.1"/>
<path d="M183.37 164.428C182.538 164.012 182.122 163.356 182.122 162.46C182.122 162.028 182.23 161.632 182.446 161.272C182.662 160.912 182.986 160.628 183.418 160.42C183.85 160.204 184.378 160.096 185.002 160.096C185.618 160.096 186.142 160.204 186.574 160.42C187.014 160.628 187.342 160.912 187.558 161.272C187.774 161.632 187.882 162.028 187.882 162.46C187.882 162.908 187.766 163.304 187.534 163.648C187.31 163.984 187.01 164.244 186.634 164.428C187.09 164.596 187.45 164.872 187.714 165.256C187.978 165.632 188.11 166.076 188.11 166.588C188.11 167.108 187.978 167.568 187.714 167.968C187.45 168.368 187.082 168.676 186.61 168.892C186.138 169.108 185.602 169.216 185.002 169.216C184.402 169.216 183.866 169.108 183.394 168.892C182.93 168.676 182.566 168.368 182.302 167.968C182.038 167.568 181.906 167.108 181.906 166.588C181.906 166.068 182.038 165.62 182.302 165.244C182.566 164.868 182.922 164.596 183.37 164.428ZM186.574 162.628C186.574 162.18 186.434 161.836 186.154 161.596C185.874 161.356 185.49 161.236 185.002 161.236C184.522 161.236 184.142 161.356 183.862 161.596C183.582 161.836 183.442 162.184 183.442 162.64C183.442 163.04 183.586 163.368 183.874 163.624C184.17 163.872 184.546 163.996 185.002 163.996C185.458 163.996 185.834 163.868 186.13 163.612C186.426 163.356 186.574 163.028 186.574 162.628ZM185.002 165.028C184.474 165.028 184.042 165.16 183.706 165.424C183.378 165.68 183.214 166.052 183.214 166.54C183.214 166.996 183.374 167.368 183.694 167.656C184.014 167.936 184.45 168.076 185.002 168.076C185.546 168.076 185.974 167.932 186.286 167.644C186.606 167.356 186.766 166.988 186.766 166.54C186.766 166.06 186.602 165.688 186.274 165.424C185.954 165.16 185.53 165.028 185.002 165.028Z" fill="black"/>
<path d="M229.979 161.5V160.252H232.475V169H231.095V161.5H229.979ZM235.111 167.14C235.879 166.476 236.483 165.932 236.923 165.508C237.371 165.076 237.743 164.628 238.039 164.164C238.335 163.7 238.483 163.236 238.483 162.772C238.483 162.292 238.367 161.916 238.135 161.644C237.911 161.372 237.555 161.236 237.067 161.236C236.595 161.236 236.227 161.388 235.963 161.692C235.707 161.988 235.571 162.388 235.555 162.892H234.235C234.259 161.98 234.531 161.284 235.051 160.804C235.579 160.316 236.247 160.072 237.055 160.072C237.927 160.072 238.607 160.312 239.095 160.792C239.591 161.272 239.839 161.912 239.839 162.712C239.839 163.288 239.691 163.844 239.395 164.38C239.107 164.908 238.759 165.384 238.351 165.808C237.951 166.224 237.439 166.708 236.815 167.26L236.275 167.74H240.079V168.88H234.247V167.884L235.111 167.14Z" fill="black"/>
<path d="M279.593 161.5V160.252H282.089V169H280.709V161.5H279.593ZM288.672 162.28C288.584 161.912 288.424 161.636 288.192 161.452C287.96 161.268 287.636 161.176 287.22 161.176C286.588 161.176 286.116 161.42 285.804 161.908C285.492 162.388 285.328 163.188 285.312 164.308C285.52 163.956 285.824 163.684 286.224 163.492C286.624 163.3 287.056 163.204 287.52 163.204C288.048 163.204 288.512 163.32 288.912 163.552C289.32 163.776 289.636 164.104 289.86 164.536C290.092 164.968 290.208 165.484 290.208 166.084C290.208 166.644 290.096 167.144 289.872 167.584C289.656 168.024 289.332 168.372 288.9 168.628C288.468 168.876 287.948 169 287.34 169C286.516 169 285.868 168.82 285.396 168.46C284.932 168.092 284.604 167.576 284.412 166.912C284.228 166.248 284.136 165.42 284.136 164.428C284.136 161.5 285.168 160.036 287.232 160.036C288.032 160.036 288.66 160.252 289.116 160.684C289.58 161.116 289.852 161.648 289.932 162.28H288.672ZM287.22 164.356C286.732 164.356 286.316 164.504 285.972 164.8C285.636 165.088 285.468 165.508 285.468 166.06C285.468 166.612 285.624 167.052 285.936 167.38C286.256 167.7 286.7 167.86 287.268 167.86C287.772 167.86 288.168 167.704 288.456 167.392C288.752 167.08 288.9 166.664 288.9 166.144C288.9 165.6 288.756 165.168 288.468 164.848C288.188 164.52 287.772 164.356 287.22 164.356Z" fill="black"/>
<path d="M329.616 161.5V160.252H332.112V169H330.732V161.5H329.616ZM335.467 164.428C334.635 164.012 334.219 163.356 334.219 162.46C334.219 162.028 334.327 161.632 334.543 161.272C334.759 160.912 335.083 160.628 335.515 160.42C335.947 160.204 336.475 160.096 337.099 160.096C337.715 160.096 338.239 160.204 338.671 160.42C339.111 160.628 339.439 160.912 339.655 161.272C339.871 161.632 339.979 162.028 339.979 162.46C339.979 162.908 339.863 163.304 339.631 163.648C339.407 163.984 339.107 164.244 338.731 164.428C339.187 164.596 339.547 164.872 339.811 165.256C340.075 165.632 340.207 166.076 340.207 166.588C340.207 167.108 340.075 167.568 339.811 167.968C339.547 168.368 339.179 168.676 338.707 168.892C338.235 169.108 337.699 169.216 337.099 169.216C336.499 169.216 335.963 169.108 335.491 168.892C335.027 168.676 334.663 168.368 334.399 167.968C334.135 167.568 334.003 167.108 334.003 166.588C334.003 166.068 334.135 165.62 334.399 165.244C334.663 164.868 335.019 164.596 335.467 164.428ZM338.671 162.628C338.671 162.18 338.531 161.836 338.251 161.596C337.971 161.356 337.587 161.236 337.099 161.236C336.619 161.236 336.239 161.356 335.959 161.596C335.679 161.836 335.539 162.184 335.539 162.64C335.539 163.04 335.683 163.368 335.971 163.624C336.267 163.872 336.643 163.996 337.099 163.996C337.555 163.996 337.931 163.868 338.227 163.612C338.523 163.356 338.671 163.028 338.671 162.628ZM337.099 165.028C336.571 165.028 336.139 165.16 335.803 165.424C335.475 165.68 335.311 166.052 335.311 166.54C335.311 166.996 335.471 167.368 335.791 167.656C336.111 167.936 336.547 168.076 337.099 168.076C337.643 168.076 338.071 167.932 338.383 167.644C338.703 167.356 338.863 166.988 338.863 166.54C338.863 166.06 338.699 165.688 338.371 165.424C338.051 165.16 337.627 165.028 337.099 165.028Z" fill="black"/>
<path d="M379.128 167.14C379.896 166.476 380.5 165.932 380.94 165.508C381.388 165.076 381.76 164.628 382.056 164.164C382.352 163.7 382.5 163.236 382.5 162.772C382.5 162.292 382.384 161.916 382.152 161.644C381.928 161.372 381.572 161.236 381.084 161.236C380.612 161.236 380.244 161.388 379.98 161.692C379.724 161.988 379.588 162.388 379.572 162.892H378.252C378.276 161.98 378.548 161.284 379.068 160.804C379.596 160.316 380.264 160.072 381.072 160.072C381.944 160.072 382.624 160.312 383.112 160.792C383.608 161.272 383.856 161.912 383.856 162.712C383.856 163.288 383.708 163.844 383.412 164.38C383.124 164.908 382.776 165.384 382.368 165.808C381.968 166.224 381.456 166.708 380.832 167.26L380.292 167.74H384.096V168.88H378.264V167.884L379.128 167.14ZM385.13 167.176V166.144L389.162 160.36H390.818V165.988H391.934V167.176H390.818V169H389.474V167.176H385.13ZM389.534 161.752L386.702 165.988H389.534V161.752Z" fill="black"/>
<path d="M428.284 162.412C428.332 161.668 428.616 161.088 429.136 160.672C429.664 160.256 430.336 160.048 431.152 160.048C431.712 160.048 432.196 160.148 432.604 160.348C433.012 160.548 433.32 160.82 433.528 161.164C433.736 161.508 433.84 161.896 433.84 162.328C433.84 162.824 433.708 163.248 433.444 163.6C433.18 163.952 432.864 164.188 432.496 164.308V164.356C432.968 164.5 433.336 164.764 433.6 165.148C433.864 165.524 433.996 166.008 433.996 166.6C433.996 167.072 433.888 167.492 433.672 167.86C433.456 168.228 433.136 168.52 432.712 168.736C432.288 168.944 431.78 169.048 431.188 169.048C430.324 169.048 429.612 168.828 429.052 168.388C428.5 167.94 428.204 167.3 428.164 166.468H429.484C429.516 166.892 429.68 167.24 429.976 167.512C430.272 167.776 430.672 167.908 431.176 167.908C431.664 167.908 432.04 167.776 432.304 167.512C432.568 167.24 432.7 166.892 432.7 166.468C432.7 165.908 432.52 165.512 432.16 165.28C431.808 165.04 431.264 164.92 430.528 164.92H430.216V163.792H430.54C431.188 163.784 431.68 163.676 432.016 163.468C432.36 163.26 432.532 162.932 432.532 162.484C432.532 162.1 432.408 161.796 432.16 161.572C431.912 161.34 431.56 161.224 431.104 161.224C430.656 161.224 430.308 161.34 430.06 161.572C429.812 161.796 429.664 162.076 429.616 162.412H428.284ZM440.137 162.28C440.049 161.912 439.889 161.636 439.657 161.452C439.425 161.268 439.101 161.176 438.685 161.176C438.053 161.176 437.581 161.42 437.269 161.908C436.957 162.388 436.793 163.188 436.777 164.308C436.985 163.956 437.289 163.684 437.689 163.492C438.089 163.3 438.521 163.204 438.985 163.204C439.513 163.204 439.977 163.32 440.377 163.552C440.785 163.776 441.101 164.104 441.325 164.536C441.557 164.968 441.673 165.484 441.673 166.084C441.673 166.644 441.561 167.144 441.337 167.584C441.121 168.024 440.797 168.372 440.365 168.628C439.933 168.876 439.413 169 438.805 169C437.981 169 437.333 168.82 436.861 168.46C436.397 168.092 436.069 167.576 435.877 166.912C435.693 166.248 435.601 165.42 435.601 164.428C435.601 161.5 436.633 160.036 438.697 160.036C439.497 160.036 440.125 160.252 440.581 160.684C441.045 161.116 441.317 161.648 441.397 162.28H440.137ZM438.685 164.356C438.197 164.356 437.781 164.504 437.437 164.8C437.101 165.088 436.933 165.508 436.933 166.06C436.933 166.612 437.089 167.052 437.401 167.38C437.721 167.7 438.165 167.86 438.733 167.86C439.237 167.86 439.633 167.704 439.921 167.392C440.217 167.08 440.365 166.664 440.365 166.144C440.365 165.6 440.221 165.168 439.933 164.848C439.653 164.52 439.237 164.356 438.685 164.356Z" fill="black"/>
</svg>
