<svg xmlns="http://www.w3.org/2000/svg" fill="none" viewBox="0 0 110 30" height="30" width="110">
<rect fill-opacity="0.25" fill="black" rx="15" height="30" width="110"></rect>
<path fill="white" d="M18.1023 10.66V16.672C18.1023 17.416 17.8743 18.004 17.4183 18.436C16.9703 18.868 16.3783 19.084 15.6423 19.084C14.9063 19.084 14.3103 18.868 13.8543 18.436C13.4063 18.004 13.1823 17.416 13.1823 16.672H14.5623C14.5703 17.04 14.6623 17.332 14.8383 17.548C15.0223 17.764 15.2903 17.872 15.6423 17.872C15.9943 17.872 16.2623 17.764 16.4463 17.548C16.6303 17.324 16.7223 17.032 16.7223 16.672V10.66H18.1023ZM21.6957 10.12V19H20.3277V10.12H21.6957ZM26.3598 19.108C25.7358 19.108 25.1718 18.968 24.6678 18.688C24.1638 18.4 23.7678 18 23.4798 17.488C23.1918 16.968 23.0478 16.368 23.0478 15.688C23.0478 15.016 23.1958 14.42 23.4918 13.9C23.7878 13.38 24.1918 12.98 24.7038 12.7C25.2158 12.42 25.7878 12.28 26.4198 12.28C27.0518 12.28 27.6238 12.42 28.1358 12.7C28.6478 12.98 29.0518 13.38 29.3478 13.9C29.6438 14.42 29.7918 15.016 29.7918 15.688C29.7918 16.36 29.6398 16.956 29.3358 17.476C29.0318 17.996 28.6158 18.4 28.0878 18.688C27.5678 18.968 26.9918 19.108 26.3598 19.108ZM26.3598 17.92C26.7118 17.92 27.0398 17.836 27.3438 17.668C27.6558 17.5 27.9078 17.248 28.0998 16.912C28.2918 16.576 28.3878 16.168 28.3878 15.688C28.3878 15.208 28.2958 14.804 28.1118 14.476C27.9278 14.14 27.6838 13.888 27.3798 13.72C27.0758 13.552 26.7478 13.468 26.3958 13.468C26.0438 13.468 25.7158 13.552 25.4118 13.72C25.1158 13.888 24.8798 14.14 24.7038 14.476C24.5278 14.804 24.4398 15.208 24.4398 15.688C24.4398 16.4 24.6198 16.952 24.9798 17.344C25.3478 17.728 25.8078 17.92 26.3598 17.92ZM36.1721 17.296H32.6801L32.0801 19H30.6521L33.6401 10.648H35.2241L38.2121 19H36.7721L36.1721 17.296ZM35.7881 16.18L34.4321 12.304L33.0641 16.18H35.7881ZM45.4993 12.388V19H44.1313V18.22C43.9153 18.492 43.6313 18.708 43.2793 18.868C42.9353 19.02 42.5673 19.096 42.1753 19.096C41.6553 19.096 41.1873 18.988 40.7713 18.772C40.3633 18.556 40.0393 18.236 39.7993 17.812C39.5673 17.388 39.4513 16.876 39.4513 16.276V12.388H40.8073V16.072C40.8073 16.664 40.9553 17.12 41.2513 17.44C41.5473 17.752 41.9513 17.908 42.4633 17.908C42.9753 17.908 43.3793 17.752 43.6753 17.44C43.9793 17.12 44.1313 16.664 44.1313 16.072V12.388H45.4993ZM47.5203 10.66H49.0083L47.7483 13.516H46.7883L47.5203 10.66ZM52.6105 19.108C52.0905 19.108 51.6225 19.016 51.2065 18.832C50.7985 18.64 50.4745 18.384 50.2345 18.064C49.9945 17.736 49.8665 17.372 49.8505 16.972H51.2665C51.2905 17.252 51.4225 17.488 51.6625 17.68C51.9105 17.864 52.2185 17.956 52.5865 17.956C52.9705 17.956 53.2665 17.884 53.4745 17.74C53.6905 17.588 53.7985 17.396 53.7985 17.164C53.7985 16.916 53.6785 16.732 53.4385 16.612C53.2065 16.492 52.8345 16.36 52.3225 16.216C51.8265 16.08 51.4225 15.948 51.1105 15.82C50.7985 15.692 50.5265 15.496 50.2945 15.232C50.0705 14.968 49.9585 14.62 49.9585 14.188C49.9585 13.836 50.0625 13.516 50.2705 13.228C50.4785 12.932 50.7745 12.7 51.1585 12.532C51.5505 12.364 51.9985 12.28 52.5025 12.28C53.2545 12.28 53.8585 12.472 54.3145 12.856C54.7785 13.232 55.0265 13.748 55.0585 14.404H53.6905C53.6665 14.108 53.5465 13.872 53.3305 13.696C53.1145 13.52 52.8225 13.432 52.4545 13.432C52.0945 13.432 51.8185 13.5 51.6265 13.636C51.4345 13.772 51.3385 13.952 51.3385 14.176C51.3385 14.352 51.4025 14.5 51.5305 14.62C51.6585 14.74 51.8145 14.836 51.9985 14.908C52.1825 14.972 52.4545 15.056 52.8145 15.16C53.2945 15.288 53.6865 15.42 53.9905 15.556C54.3025 15.684 54.5705 15.876 54.7945 16.132C55.0185 16.388 55.1345 16.728 55.1425 17.152C55.1425 17.528 55.0385 17.864 54.8305 18.16C54.6225 18.456 54.3265 18.688 53.9425 18.856C53.5665 19.024 53.1225 19.108 52.6105 19.108ZM62.4859 19.084C61.9259 19.084 61.4219 18.988 60.9739 18.796C60.5259 18.596 60.1739 18.316 59.9179 17.956C59.6619 17.596 59.5339 17.176 59.5339 16.696H60.9979C61.0299 17.056 61.1699 17.352 61.4179 17.584C61.6739 17.816 62.0299 17.932 62.4859 17.932C62.9579 17.932 63.3259 17.82 63.5899 17.596C63.8539 17.364 63.9859 17.068 63.9859 16.708C63.9859 16.428 63.9019 16.2 63.7339 16.024C63.5739 15.848 63.3699 15.712 63.1219 15.616C62.8819 15.52 62.5459 15.416 62.1139 15.304C61.5699 15.16 61.1259 15.016 60.7819 14.872C60.4459 14.72 60.1579 14.488 59.9179 14.176C59.6779 13.864 59.5579 13.448 59.5579 12.928C59.5579 12.448 59.6779 12.028 59.9179 11.668C60.1579 11.308 60.4939 11.032 60.9259 10.84C61.3579 10.648 61.8579 10.552 62.4259 10.552C63.2339 10.552 63.8939 10.756 64.4059 11.164C64.9259 11.564 65.2139 12.116 65.2699 12.82H63.7579C63.7339 12.516 63.5899 12.256 63.3259 12.04C63.0619 11.824 62.7139 11.716 62.2819 11.716C61.8899 11.716 61.5699 11.816 61.3219 12.016C61.0739 12.216 60.9499 12.504 60.9499 12.88C60.9499 13.136 61.0259 13.348 61.1779 13.516C61.3379 13.676 61.5379 13.804 61.7779 13.9C62.0179 13.996 62.3459 14.1 62.7619 14.212C63.3139 14.364 63.7619 14.516 64.1059 14.668C64.4579 14.82 64.7539 15.056 64.9939 15.376C65.2419 15.688 65.3659 16.108 65.3659 16.636C65.3659 17.06 65.2499 17.46 65.0179 17.836C64.7939 18.212 64.4619 18.516 64.0219 18.748C63.5899 18.972 63.0779 19.084 62.4859 19.084ZM68.5761 13.504V17.164C68.5761 17.412 68.6321 17.592 68.7441 17.704C68.8641 17.808 69.0641 17.86 69.3441 17.86H70.1841V19H69.1041C68.4881 19 68.0161 18.856 67.6881 18.568C67.3601 18.28 67.1961 17.812 67.1961 17.164V13.504H66.4161V12.388H67.1961V10.744H68.5761V12.388H70.1841V13.504H68.5761ZM70.9889 15.664C70.9889 15 71.1249 14.412 71.3969 13.9C71.6769 13.388 72.0529 12.992 72.5249 12.712C73.0049 12.424 73.5329 12.28 74.1089 12.28C74.6289 12.28 75.0809 12.384 75.4649 12.592C75.8569 12.792 76.1689 13.044 76.4009 13.348V12.388H77.7809V19H76.4009V18.016C76.1689 18.328 75.8529 18.588 75.4529 18.796C75.0529 19.004 74.5969 19.108 74.0849 19.108C73.5169 19.108 72.9969 18.964 72.5249 18.676C72.0529 18.38 71.6769 17.972 71.3969 17.452C71.1249 16.924 70.9889 16.328 70.9889 15.664ZM76.4009 15.688C76.4009 15.232 76.3049 14.836 76.1129 14.5C75.9289 14.164 75.6849 13.908 75.3809 13.732C75.0769 13.556 74.7489 13.468 74.3969 13.468C74.0449 13.468 73.7169 13.556 73.4129 13.732C73.1089 13.9 72.8609 14.152 72.6689 14.488C72.4849 14.816 72.3929 15.208 72.3929 15.664C72.3929 16.12 72.4849 16.52 72.6689 16.864C72.8609 17.208 73.1089 17.472 73.4129 17.656C73.7249 17.832 74.0529 17.92 74.3969 17.92C74.7489 17.92 75.0769 17.832 75.3809 17.656C75.6849 17.48 75.9289 17.224 76.1129 16.888C76.3049 16.544 76.4009 16.144 76.4009 15.688ZM81.1737 13.504V17.164C81.1737 17.412 81.2297 17.592 81.3417 17.704C81.4617 17.808 81.6617 17.86 81.9417 17.86H82.7817V19H81.7017C81.0857 19 80.6137 18.856 80.2857 18.568C79.9577 18.28 79.7937 17.812 79.7937 17.164V13.504H79.0137V12.388H79.7937V10.744H81.1737V12.388H82.7817V13.504H81.1737ZM90.0306 12.388V19H88.6626V18.22C88.4466 18.492 88.1626 18.708 87.8106 18.868C87.4666 19.02 87.0986 19.096 86.7066 19.096C86.1866 19.096 85.7186 18.988 85.3026 18.772C84.8946 18.556 84.5706 18.236 84.3306 17.812C84.0986 17.388 83.9826 16.876 83.9826 16.276V12.388H85.3386V16.072C85.3386 16.664 85.4866 17.12 85.7826 17.44C86.0786 17.752 86.4826 17.908 86.9946 17.908C87.5066 17.908 87.9106 17.752 88.2066 17.44C88.5106 17.12 88.6626 16.664 88.6626 16.072V12.388H90.0306ZM94.2355 19.108C93.7155 19.108 93.2475 19.016 92.8315 18.832C92.4235 18.64 92.0995 18.384 91.8595 18.064C91.6195 17.736 91.4915 17.372 91.4755 16.972H92.8915C92.9155 17.252 93.0475 17.488 93.2875 17.68C93.5355 17.864 93.8435 17.956 94.2115 17.956C94.5955 17.956 94.8915 17.884 95.0995 17.74C95.3155 17.588 95.4235 17.396 95.4235 17.164C95.4235 16.916 95.3035 16.732 95.0635 16.612C94.8315 16.492 94.4595 16.36 93.9475 16.216C93.4515 16.08 93.0475 15.948 92.7355 15.82C92.4235 15.692 92.1515 15.496 91.9195 15.232C91.6955 14.968 91.5835 14.62 91.5835 14.188C91.5835 13.836 91.6875 13.516 91.8955 13.228C92.1035 12.932 92.3995 12.7 92.7835 12.532C93.1755 12.364 93.6235 12.28 94.1275 12.28C94.8795 12.28 95.4835 12.472 95.9395 12.856C96.4035 13.232 96.6515 13.748 96.6835 14.404H95.3155C95.2915 14.108 95.1715 13.872 94.9555 13.696C94.7395 13.52 94.4475 13.432 94.0795 13.432C93.7195 13.432 93.4435 13.5 93.2515 13.636C93.0595 13.772 92.9635 13.952 92.9635 14.176C92.9635 14.352 93.0275 14.5 93.1555 14.62C93.2835 14.74 93.4395 14.836 93.6235 14.908C93.8075 14.972 94.0795 15.056 94.4395 15.16C94.9195 15.288 95.3115 15.42 95.6155 15.556C95.9275 15.684 96.1955 15.876 96.4195 16.132C96.6435 16.388 96.7595 16.728 96.7675 17.152C96.7675 17.528 96.6635 17.864 96.4555 18.16C96.2475 18.456 95.9515 18.688 95.5675 18.856C95.1915 19.024 94.7475 19.108 94.2355 19.108Z"></path>
</svg>
