<svg width="150" height="30" viewBox="0 0 150 30" fill="none" xmlns="http://www.w3.org/2000/svg">
<rect width="150" height="30" rx="15" fill="white" fill-opacity="0.1"/>
<path d="M25.844 17.296H22.352L21.752 19H20.324L23.312 10.648H24.896L27.884 19H26.444L25.844 17.296ZM25.46 16.18L24.104 12.304L22.736 16.18H25.46ZM28.7272 15.664C28.7272 15 28.8632 14.412 29.1352 13.9C29.4152 13.388 29.7912 12.992 30.2632 12.712C30.7432 12.424 31.2752 12.28 31.8592 12.28C32.2912 12.28 32.7152 12.376 33.1312 12.568C33.5552 12.752 33.8912 13 34.1392 13.312V10.12H35.5192V19H34.1392V18.004C33.9152 18.324 33.6032 18.588 33.2032 18.796C32.8112 19.004 32.3592 19.108 31.8472 19.108C31.2712 19.108 30.7432 18.964 30.2632 18.676C29.7912 18.38 29.4152 17.972 29.1352 17.452C28.8632 16.924 28.7272 16.328 28.7272 15.664ZM34.1392 15.688C34.1392 15.232 34.0432 14.836 33.8512 14.5C33.6672 14.164 33.4232 13.908 33.1192 13.732C32.8152 13.556 32.4872 13.468 32.1352 13.468C31.7832 13.468 31.4552 13.556 31.1512 13.732C30.8472 13.9 30.5992 14.152 30.4072 14.488C30.2232 14.816 30.1312 15.208 30.1312 15.664C30.1312 16.12 30.2232 16.52 30.4072 16.864C30.5992 17.208 30.8472 17.472 31.1512 17.656C31.4632 17.832 31.7912 17.92 32.1352 17.92C32.4872 17.92 32.8152 17.832 33.1192 17.656C33.4232 17.48 33.6672 17.224 33.8512 16.888C34.0432 16.544 34.1392 16.144 34.1392 15.688ZM36.86 15.664C36.86 15 36.996 14.412 37.268 13.9C37.548 13.388 37.924 12.992 38.396 12.712C38.876 12.424 39.408 12.28 39.992 12.28C40.424 12.28 40.848 12.376 41.264 12.568C41.688 12.752 42.024 13 42.272 13.312V10.12H43.652V19H42.272V18.004C42.048 18.324 41.736 18.588 41.336 18.796C40.944 19.004 40.492 19.108 39.98 19.108C39.404 19.108 38.876 18.964 38.396 18.676C37.924 18.38 37.548 17.972 37.268 17.452C36.996 16.924 36.86 16.328 36.86 15.664ZM42.272 15.688C42.272 15.232 42.176 14.836 41.984 14.5C41.8 14.164 41.556 13.908 41.252 13.732C40.948 13.556 40.62 13.468 40.268 13.468C39.916 13.468 39.588 13.556 39.284 13.732C38.98 13.9 38.732 14.152 38.54 14.488C38.356 14.816 38.264 15.208 38.264 15.664C38.264 16.12 38.356 16.52 38.54 16.864C38.732 17.208 38.98 17.472 39.284 17.656C39.596 17.832 39.924 17.92 40.268 17.92C40.62 17.92 40.948 17.832 41.252 17.656C41.556 17.48 41.8 17.224 41.984 16.888C42.176 16.544 42.272 16.144 42.272 15.688ZM50.162 13.504V17.164C50.162 17.412 50.218 17.592 50.33 17.704C50.45 17.808 50.65 17.86 50.93 17.86H51.77V19H50.69C50.074 19 49.602 18.856 49.274 18.568C48.946 18.28 48.782 17.812 48.782 17.164V13.504H48.002V12.388H48.782V10.744H50.162V12.388H51.77V13.504H50.162ZM55.8989 19.108C55.2749 19.108 54.7109 18.968 54.2069 18.688C53.7029 18.4 53.3069 18 53.0189 17.488C52.7309 16.968 52.5869 16.368 52.5869 15.688C52.5869 15.016 52.7349 14.42 53.0309 13.9C53.3269 13.38 53.7309 12.98 54.2429 12.7C54.7549 12.42 55.3269 12.28 55.9589 12.28C56.5909 12.28 57.1629 12.42 57.6749 12.7C58.1869 12.98 58.5909 13.38 58.8869 13.9C59.1829 14.42 59.3309 15.016 59.3309 15.688C59.3309 16.36 59.1789 16.956 58.8749 17.476C58.5709 17.996 58.1549 18.4 57.6269 18.688C57.1069 18.968 56.5309 19.108 55.8989 19.108ZM55.8989 17.92C56.2509 17.92 56.5789 17.836 56.8829 17.668C57.1949 17.5 57.4469 17.248 57.6389 16.912C57.8309 16.576 57.9269 16.168 57.9269 15.688C57.9269 15.208 57.8349 14.804 57.6509 14.476C57.4669 14.14 57.2229 13.888 56.9189 13.72C56.6149 13.552 56.2869 13.468 55.9349 13.468C55.5829 13.468 55.2549 13.552 54.9509 13.72C54.6549 13.888 54.4189 14.14 54.2429 14.476C54.0669 14.804 53.9789 15.208 53.9789 15.688C53.9789 16.4 54.1589 16.952 54.5189 17.344C54.8869 17.728 55.3469 17.92 55.8989 17.92ZM69.7524 12.388L65.6964 22.108H64.2804L65.6244 18.892L63.0204 12.388H64.5444L66.4044 17.428L68.3364 12.388H69.7524ZM73.6528 19.108C73.0288 19.108 72.4648 18.968 71.9608 18.688C71.4568 18.4 71.0608 18 70.7728 17.488C70.4848 16.968 70.3408 16.368 70.3408 15.688C70.3408 15.016 70.4888 14.42 70.7848 13.9C71.0808 13.38 71.4848 12.98 71.9968 12.7C72.5088 12.42 73.0808 12.28 73.7128 12.28C74.3448 12.28 74.9168 12.42 75.4288 12.7C75.9408 12.98 76.3448 13.38 76.6408 13.9C76.9368 14.42 77.0848 15.016 77.0848 15.688C77.0848 16.36 76.9328 16.956 76.6288 17.476C76.3248 17.996 75.9088 18.4 75.3808 18.688C74.8608 18.968 74.2848 19.108 73.6528 19.108ZM73.6528 17.92C74.0048 17.92 74.3328 17.836 74.6368 17.668C74.9488 17.5 75.2008 17.248 75.3928 16.912C75.5848 16.576 75.6808 16.168 75.6808 15.688C75.6808 15.208 75.5888 14.804 75.4048 14.476C75.2208 14.14 74.9768 13.888 74.6728 13.72C74.3688 13.552 74.0408 13.468 73.6888 13.468C73.3368 13.468 73.0088 13.552 72.7048 13.72C72.4088 13.888 72.1728 14.14 71.9968 14.476C71.8208 14.804 71.7328 15.208 71.7328 15.688C71.7328 16.4 71.9128 16.952 72.2728 17.344C72.6408 17.728 73.1008 17.92 73.6528 17.92ZM84.4251 12.388V19H83.0571V18.22C82.8411 18.492 82.5571 18.708 82.2051 18.868C81.8611 19.02 81.4931 19.096 81.1011 19.096C80.5811 19.096 80.1131 18.988 79.6971 18.772C79.2891 18.556 78.9651 18.236 78.7251 17.812C78.4931 17.388 78.3771 16.876 78.3771 16.276V12.388H79.7331V16.072C79.7331 16.664 79.8811 17.12 80.1771 17.44C80.4731 17.752 80.8771 17.908 81.3891 17.908C81.9011 17.908 82.3051 17.752 82.6011 17.44C82.9051 17.12 83.0571 16.664 83.0571 16.072V12.388H84.4251ZM87.5981 13.348C87.7981 13.012 88.0621 12.752 88.3901 12.568C88.7261 12.376 89.1221 12.28 89.5781 12.28V13.696H89.2301C88.6941 13.696 88.2861 13.832 88.0061 14.104C87.7341 14.376 87.5981 14.848 87.5981 15.52V19H86.2301V12.388H87.5981V13.348ZM101.957 12.28C102.477 12.28 102.941 12.388 103.349 12.604C103.765 12.82 104.089 13.14 104.321 13.564C104.561 13.988 104.681 14.5 104.681 15.1V19H103.325V15.304C103.325 14.712 103.177 14.26 102.881 13.948C102.585 13.628 102.181 13.468 101.669 13.468C101.157 13.468 100.749 13.628 100.445 13.948C100.149 14.26 100.001 14.712 100.001 15.304V19H98.6447V15.304C98.6447 14.712 98.4967 14.26 98.2007 13.948C97.9047 13.628 97.5007 13.468 96.9887 13.468C96.4767 13.468 96.0687 13.628 95.7647 13.948C95.4687 14.26 95.3207 14.712 95.3207 15.304V19H93.9527V12.388H95.3207V13.144C95.5447 12.872 95.8287 12.66 96.1727 12.508C96.5167 12.356 96.8847 12.28 97.2767 12.28C97.8047 12.28 98.2767 12.392 98.6927 12.616C99.1087 12.84 99.4287 13.164 99.6527 13.588C99.8527 13.188 100.165 12.872 100.589 12.64C101.013 12.4 101.469 12.28 101.957 12.28ZM112.409 12.388V19H111.041V18.22C110.825 18.492 110.541 18.708 110.189 18.868C109.845 19.02 109.477 19.096 109.085 19.096C108.565 19.096 108.097 18.988 107.681 18.772C107.273 18.556 106.949 18.236 106.709 17.812C106.477 17.388 106.361 16.876 106.361 16.276V12.388H107.717V16.072C107.717 16.664 107.865 17.12 108.161 17.44C108.457 17.752 108.861 17.908 109.373 17.908C109.885 17.908 110.289 17.752 110.585 17.44C110.889 17.12 111.041 16.664 111.041 16.072V12.388H112.409ZM116.614 19.108C116.094 19.108 115.626 19.016 115.21 18.832C114.802 18.64 114.478 18.384 114.238 18.064C113.998 17.736 113.87 17.372 113.854 16.972H115.27C115.294 17.252 115.426 17.488 115.666 17.68C115.914 17.864 116.222 17.956 116.59 17.956C116.974 17.956 117.27 17.884 117.478 17.74C117.694 17.588 117.802 17.396 117.802 17.164C117.802 16.916 117.682 16.732 117.442 16.612C117.21 16.492 116.838 16.36 116.326 16.216C115.83 16.08 115.426 15.948 115.114 15.82C114.802 15.692 114.53 15.496 114.298 15.232C114.074 14.968 113.962 14.62 113.962 14.188C113.962 13.836 114.066 13.516 114.274 13.228C114.482 12.932 114.778 12.7 115.162 12.532C115.554 12.364 116.002 12.28 116.506 12.28C117.258 12.28 117.862 12.472 118.318 12.856C118.782 13.232 119.03 13.748 119.062 14.404H117.694C117.67 14.108 117.55 13.872 117.334 13.696C117.118 13.52 116.826 13.432 116.458 13.432C116.098 13.432 115.822 13.5 115.63 13.636C115.438 13.772 115.342 13.952 115.342 14.176C115.342 14.352 115.406 14.5 115.534 14.62C115.662 14.74 115.818 14.836 116.002 14.908C116.186 14.972 116.458 15.056 116.818 15.16C117.298 15.288 117.69 15.42 117.994 15.556C118.306 15.684 118.574 15.876 118.798 16.132C119.022 16.388 119.138 16.728 119.146 17.152C119.146 17.528 119.042 17.864 118.834 18.16C118.626 18.456 118.33 18.688 117.946 18.856C117.57 19.024 117.126 19.108 116.614 19.108ZM121.321 11.512C121.073 11.512 120.865 11.428 120.697 11.26C120.529 11.092 120.445 10.884 120.445 10.636C120.445 10.388 120.529 10.18 120.697 10.012C120.865 9.844 121.073 9.76 121.321 9.76C121.561 9.76 121.765 9.844 121.933 10.012C122.101 10.18 122.185 10.388 122.185 10.636C122.185 10.884 122.101 11.092 121.933 11.26C121.765 11.428 121.561 11.512 121.321 11.512ZM121.993 12.388V19H120.625V12.388H121.993ZM123.333 15.688C123.333 15.008 123.469 14.412 123.741 13.9C124.021 13.38 124.405 12.98 124.893 12.7C125.381 12.42 125.941 12.28 126.573 12.28C127.373 12.28 128.033 12.472 128.553 12.856C129.081 13.232 129.437 13.772 129.621 14.476H128.145C128.025 14.148 127.833 13.892 127.569 13.708C127.305 13.524 126.973 13.432 126.573 13.432C126.013 13.432 125.565 13.632 125.229 14.032C124.901 14.424 124.737 14.976 124.737 15.688C124.737 16.4 124.901 16.956 125.229 17.356C125.565 17.756 126.013 17.956 126.573 17.956C127.365 17.956 127.889 17.608 128.145 16.912H129.621C129.429 17.584 129.069 18.12 128.541 18.52C128.013 18.912 127.357 19.108 126.573 19.108C125.941 19.108 125.381 18.968 124.893 18.688C124.405 18.4 124.021 18 123.741 17.488C123.469 16.968 123.333 16.368 123.333 15.688Z" fill="white"/>
</svg>
