<svg xmlns="http://www.w3.org/2000/svg" fill="none" viewBox="0 0 480 360" height="360" width="480">
<g clip-path="url(#clip0_658_24)">
<path fill="black" d="M194.722 25.288C195.32 25.3947 195.826 25.7093 196.242 26.232C196.658 26.7547 196.866 27.3467 196.866 28.008C196.866 28.5733 196.717 29.0853 196.418 29.544C196.13 29.992 195.709 30.3493 195.154 30.616C194.6 30.872 193.954 31 193.218 31H188.77V19.88H193.01C193.768 19.88 194.418 20.008 194.962 20.264C195.506 20.52 195.917 20.8667 196.194 21.304C196.472 21.7307 196.61 22.2107 196.61 22.744C196.61 23.384 196.44 23.9173 196.098 24.344C195.757 24.7707 195.298 25.0853 194.722 25.288ZM190.594 24.552H192.85C193.448 24.552 193.912 24.4187 194.242 24.152C194.584 23.8747 194.754 23.48 194.754 22.968C194.754 22.4667 194.584 22.0773 194.242 21.8C193.912 21.512 193.448 21.368 192.85 21.368H190.594V24.552ZM193.058 29.512C193.677 29.512 194.162 29.3627 194.514 29.064C194.866 28.7653 195.042 28.3493 195.042 27.816C195.042 27.272 194.856 26.84 194.482 26.52C194.109 26.2 193.613 26.04 192.994 26.04H190.594V29.512H193.058ZM200.672 23.464C200.939 23.016 201.291 22.6693 201.728 22.424C202.176 22.168 202.704 22.04 203.312 22.04V23.928H202.848C202.134 23.928 201.59 24.1093 201.216 24.472C200.854 24.8347 200.672 25.464 200.672 26.36V31H198.848V22.184H200.672V23.464ZM205.917 21.016C205.586 21.016 205.309 20.904 205.085 20.68C204.861 20.456 204.749 20.1787 204.749 19.848C204.749 19.5173 204.861 19.24 205.085 19.016C205.309 18.792 205.586 18.68 205.917 18.68C206.237 18.68 206.509 18.792 206.733 19.016C206.957 19.24 207.069 19.5173 207.069 19.848C207.069 20.1787 206.957 20.456 206.733 20.68C206.509 20.904 206.237 21.016 205.917 21.016ZM206.813 22.184V31H204.989V22.184H206.813ZM208.6 26.584C208.6 25.6773 208.781 24.8827 209.144 24.2C209.517 23.5067 210.029 22.9733 210.68 22.6C211.33 22.2267 212.077 22.04 212.92 22.04C213.986 22.04 214.866 22.296 215.56 22.808C216.264 23.3093 216.738 24.0293 216.984 24.968H215.016C214.856 24.5307 214.6 24.1893 214.248 23.944C213.896 23.6987 213.453 23.576 212.92 23.576C212.173 23.576 211.576 23.8427 211.128 24.376C210.69 24.8987 210.472 25.6347 210.472 26.584C210.472 27.5333 210.69 28.2747 211.128 28.808C211.576 29.3413 212.173 29.608 212.92 29.608C213.976 29.608 214.674 29.144 215.016 28.216H216.984C216.728 29.112 216.248 29.8267 215.544 30.36C214.84 30.8827 213.965 31.144 212.92 31.144C212.077 31.144 211.33 30.9573 210.68 30.584C210.029 30.2 209.517 29.6667 209.144 28.984C208.781 28.2907 208.6 27.4907 208.6 26.584ZM222.29 26.6L226.354 31H223.89L220.626 27.208V31H218.802V19.16H220.626V26.04L223.826 22.184H226.354L222.29 26.6ZM237.769 25.288C238.367 25.3947 238.873 25.7093 239.289 26.232C239.705 26.7547 239.913 27.3467 239.913 28.008C239.913 28.5733 239.764 29.0853 239.465 29.544C239.177 29.992 238.756 30.3493 238.201 30.616C237.647 30.872 237.001 31 236.265 31H231.817V19.88H236.057C236.815 19.88 237.465 20.008 238.009 20.264C238.553 20.52 238.964 20.8667 239.241 21.304C239.519 21.7307 239.657 22.2107 239.657 22.744C239.657 23.384 239.487 23.9173 239.145 24.344C238.804 24.7707 238.345 25.0853 237.769 25.288ZM233.641 24.552H235.897C236.495 24.552 236.959 24.4187 237.289 24.152C237.631 23.8747 237.801 23.48 237.801 22.968C237.801 22.4667 237.631 22.0773 237.289 21.8C236.959 21.512 236.495 21.368 235.897 21.368H233.641V24.552ZM236.105 29.512C236.724 29.512 237.209 29.3627 237.561 29.064C237.913 28.7653 238.089 28.3493 238.089 27.816C238.089 27.272 237.903 26.84 237.529 26.52C237.156 26.2 236.66 26.04 236.041 26.04H233.641V29.512H236.105ZM243.719 23.464C243.986 23.016 244.338 22.6693 244.775 22.424C245.223 22.168 245.751 22.04 246.359 22.04V23.928H245.895C245.181 23.928 244.637 24.1093 244.263 24.472C243.901 24.8347 243.719 25.464 243.719 26.36V31H241.895V22.184H243.719V23.464ZM256.116 26.376C256.116 26.7067 256.095 27.0053 256.052 27.272H249.316C249.369 27.976 249.631 28.5413 250.1 28.968C250.569 29.3947 251.145 29.608 251.828 29.608C252.809 29.608 253.503 29.1973 253.908 28.376H255.876C255.609 29.1867 255.124 29.8533 254.42 30.376C253.727 30.888 252.863 31.144 251.828 31.144C250.985 31.144 250.228 30.9573 249.556 30.584C248.895 30.2 248.372 29.6667 247.988 28.984C247.615 28.2907 247.428 27.4907 247.428 26.584C247.428 25.6773 247.609 24.8827 247.972 24.2C248.345 23.5067 248.863 22.9733 249.524 22.6C250.196 22.2267 250.964 22.04 251.828 22.04C252.66 22.04 253.401 22.2213 254.052 22.584C254.703 22.9467 255.209 23.4587 255.572 24.12C255.935 24.7707 256.116 25.5227 256.116 26.376ZM254.212 25.8C254.201 25.128 253.961 24.5893 253.492 24.184C253.023 23.7787 252.441 23.576 251.748 23.576C251.119 23.576 250.58 23.7787 250.132 24.184C249.684 24.5787 249.417 25.1173 249.332 25.8H254.212ZM257.303 26.552C257.303 25.6667 257.484 24.8827 257.847 24.2C258.22 23.5173 258.722 22.9893 259.351 22.616C259.991 22.232 260.695 22.04 261.463 22.04C262.156 22.04 262.759 22.1787 263.271 22.456C263.794 22.7227 264.21 23.0587 264.519 23.464V22.184H266.359V31H264.519V29.688C264.21 30.104 263.788 30.4507 263.255 30.728C262.722 31.0053 262.114 31.144 261.431 31.144C260.674 31.144 259.98 30.952 259.351 30.568C258.722 30.1733 258.22 29.6293 257.847 28.936C257.484 28.232 257.303 27.4373 257.303 26.552ZM264.519 26.584C264.519 25.976 264.391 25.448 264.135 25C263.89 24.552 263.564 24.2107 263.159 23.976C262.754 23.7413 262.316 23.624 261.847 23.624C261.378 23.624 260.94 23.7413 260.535 23.976C260.13 24.2 259.799 24.536 259.543 24.984C259.298 25.4213 259.175 25.944 259.175 26.552C259.175 27.16 259.298 27.6933 259.543 28.152C259.799 28.6107 260.13 28.9627 260.535 29.208C260.951 29.4427 261.388 29.56 261.847 29.56C262.316 29.56 262.754 29.4427 263.159 29.208C263.564 28.9733 263.89 28.632 264.135 28.184C264.391 27.7253 264.519 27.192 264.519 26.584ZM272.243 26.6L276.307 31H273.843L270.579 27.208V31H268.755V19.16H270.579V26.04L273.779 22.184H276.307L272.243 26.6ZM285.694 26.376C285.694 26.7067 285.673 27.0053 285.63 27.272H278.894C278.947 27.976 279.209 28.5413 279.678 28.968C280.147 29.3947 280.723 29.608 281.406 29.608C282.387 29.608 283.081 29.1973 283.486 28.376H285.454C285.187 29.1867 284.702 29.8533 283.998 30.376C283.305 30.888 282.441 31.144 281.406 31.144C280.563 31.144 279.806 30.9573 279.134 30.584C278.473 30.2 277.95 29.6667 277.566 28.984C277.193 28.2907 277.006 27.4907 277.006 26.584C277.006 25.6773 277.187 24.8827 277.55 24.2C277.923 23.5067 278.441 22.9733 279.102 22.6C279.774 22.2267 280.542 22.04 281.406 22.04C282.238 22.04 282.979 22.2213 283.63 22.584C284.281 22.9467 284.787 23.4587 285.15 24.12C285.513 24.7707 285.694 25.5227 285.694 26.376ZM283.79 25.8C283.779 25.128 283.539 24.5893 283.07 24.184C282.601 23.7787 282.019 23.576 281.326 23.576C280.697 23.576 280.158 23.7787 279.71 24.184C279.262 24.5787 278.995 25.1173 278.91 25.8H283.79ZM289.313 23.464C289.58 23.016 289.932 22.6693 290.369 22.424C290.817 22.168 291.345 22.04 291.953 22.04V23.928H291.489C290.774 23.928 290.23 24.1093 289.857 24.472C289.494 24.8347 289.313 25.464 289.313 26.36V31H287.489V22.184H289.313V23.464Z"></path>
<rect fill-opacity="0.05" fill="black" rx="15" height="60" width="100" y="130" x="10"></rect>
<rect fill-opacity="0.05" fill="black" rx="15" height="60" width="100" y="130" x="370"></rect>
<rect fill-opacity="0.05" fill="black" rx="15" height="60" width="100" y="50" x="310"></rect>
<rect fill-opacity="0.05" fill="black" rx="15" height="60" width="100" y="50" x="190"></rect>
<rect fill-opacity="0.05" fill="black" rx="15" height="60" width="100" y="50" x="70"></rect>
<rect fill-opacity="0.05" fill="black" rx="15" height="60" width="100" y="50" x="-50"></rect>
<rect fill-opacity="0.05" fill="black" rx="15" height="60" width="100" y="50" x="430"></rect>
<rect fill-opacity="0.05" fill="black" rx="15" height="60" width="100" y="210" x="430"></rect>
<rect fill-opacity="0.05" fill="black" rx="15" height="60" width="100" y="210" x="310"></rect>
<rect fill-opacity="0.05" fill="black" rx="15" height="60" width="100" y="210" x="190"></rect>
<rect fill-opacity="0.05" fill="black" rx="15" height="60" width="100" y="210" x="70"></rect>
<rect fill-opacity="0.05" fill="black" rx="15" height="60" width="100" y="210" x="-50"></rect>
<rect fill-opacity="0.05" fill="black" rx="15" height="60" width="100" y="290" x="370"></rect>
<rect fill-opacity="0.05" fill="black" rx="15" height="60" width="100" y="290" x="250"></rect>
<rect fill-opacity="0.05" fill="black" rx="15" height="60" width="100" y="290" x="130"></rect>
<rect fill-opacity="0.05" fill="black" rx="15" height="60" width="100" y="290" x="10"></rect>
</g>
<defs>
<clipPath id="clip0_658_24">
<rect fill="white" height="360" width="480"></rect>
</clipPath>
</defs>
</svg>
