<svg width="80" height="28" viewBox="0 0 80 28" fill="none" xmlns="http://www.w3.org/2000/svg">
<rect width="80" height="28" rx="5" fill="#E6E6E6"/>
<path d="M15.8 15.11C15.8 15.3167 15.7867 15.5033 15.76 15.67H11.55C11.5833 16.11 11.7467 16.4633 12.04 16.73C12.3333 16.9967 12.6933 17.13 13.12 17.13C13.7333 17.13 14.1667 16.8733 14.42 16.36H15.65C15.4833 16.8667 15.18 17.2833 14.74 17.61C14.3067 17.93 13.7667 18.09 13.12 18.09C12.5933 18.09 12.12 17.9733 11.7 17.74C11.2867 17.5 10.96 17.1667 10.72 16.74C10.4867 16.3067 10.37 15.8067 10.37 15.24C10.37 14.6733 10.4833 14.1767 10.71 13.75C10.9433 13.3167 11.2667 12.9833 11.68 12.75C12.1 12.5167 12.58 12.4 13.12 12.4C13.64 12.4 14.1033 12.5133 14.51 12.74C14.9167 12.9667 15.2333 13.2867 15.46 13.7C15.6867 14.1067 15.8 14.5767 15.8 15.11ZM14.61 14.75C14.6033 14.33 14.4533 13.9933 14.16 13.74C13.8667 13.4867 13.5033 13.36 13.07 13.36C12.6767 13.36 12.34 13.4867 12.06 13.74C11.78 13.9867 11.6133 14.3233 11.56 14.75H14.61ZM18.0619 13.29C18.2285 13.01 18.4485 12.7933 18.7219 12.64C19.0019 12.48 19.3319 12.4 19.7119 12.4V13.58H19.4219C18.9752 13.58 18.6352 13.6933 18.4019 13.92C18.1752 14.1467 18.0619 14.54 18.0619 15.1V18H16.9219V12.49H18.0619V13.29ZM21.8998 13.29C22.0664 13.01 22.2864 12.7933 22.5598 12.64C22.8398 12.48 23.1698 12.4 23.5498 12.4V13.58H23.2598C22.8131 13.58 22.4731 13.6933 22.2398 13.92C22.0131 14.1467 21.8998 14.54 21.8998 15.1V18H20.7598V12.49H21.8998V13.29ZM26.9877 18.09C26.4677 18.09 25.9977 17.9733 25.5777 17.74C25.1577 17.5 24.8277 17.1667 24.5877 16.74C24.3477 16.3067 24.2277 15.8067 24.2277 15.24C24.2277 14.68 24.351 14.1833 24.5977 13.75C24.8443 13.3167 25.181 12.9833 25.6077 12.75C26.0343 12.5167 26.511 12.4 27.0377 12.4C27.5643 12.4 28.041 12.5167 28.4677 12.75C28.8943 12.9833 29.231 13.3167 29.4777 13.75C29.7243 14.1833 29.8477 14.68 29.8477 15.24C29.8477 15.8 29.721 16.2967 29.4677 16.73C29.2143 17.1633 28.8677 17.5 28.4277 17.74C27.9943 17.9733 27.5143 18.09 26.9877 18.09ZM26.9877 17.1C27.281 17.1 27.5543 17.03 27.8077 16.89C28.0677 16.75 28.2777 16.54 28.4377 16.26C28.5977 15.98 28.6777 15.64 28.6777 15.24C28.6777 14.84 28.601 14.5033 28.4477 14.23C28.2943 13.95 28.091 13.74 27.8377 13.6C27.5843 13.46 27.311 13.39 27.0177 13.39C26.7243 13.39 26.451 13.46 26.1977 13.6C25.951 13.74 25.7543 13.95 25.6077 14.23C25.461 14.5033 25.3877 14.84 25.3877 15.24C25.3877 15.8333 25.5377 16.2933 25.8377 16.62C26.1443 16.94 26.5277 17.1 26.9877 17.1ZM32.1146 13.29C32.2813 13.01 32.5013 12.7933 32.7746 12.64C33.0546 12.48 33.3846 12.4 33.7646 12.4V13.58H33.4746C33.0279 13.58 32.6879 13.6933 32.4546 13.92C32.2279 14.1467 32.1146 14.54 32.1146 15.1V18H30.9746V12.49H32.1146V13.29Z" fill="black"/>
</svg>
