<svg width="480" height="360" viewBox="0 0 480 360" fill="none" xmlns="http://www.w3.org/2000/svg">
<path d="M174.864 31.112C174.117 31.112 173.445 30.984 172.848 30.728C172.251 30.4613 171.781 30.088 171.44 29.608C171.099 29.128 170.928 28.568 170.928 27.928H172.88C172.923 28.408 173.109 28.8027 173.44 29.112C173.781 29.4213 174.256 29.576 174.864 29.576C175.493 29.576 175.984 29.4267 176.336 29.128C176.688 28.8187 176.864 28.424 176.864 27.944C176.864 27.5707 176.752 27.2667 176.528 27.032C176.315 26.7973 176.043 26.616 175.712 26.488C175.392 26.36 174.944 26.2213 174.368 26.072C173.643 25.88 173.051 25.688 172.592 25.496C172.144 25.2933 171.76 24.984 171.44 24.568C171.12 24.152 170.96 23.5973 170.96 22.904C170.96 22.264 171.12 21.704 171.44 21.224C171.76 20.744 172.208 20.376 172.784 20.12C173.36 19.864 174.027 19.736 174.784 19.736C175.861 19.736 176.741 20.008 177.424 20.552C178.117 21.0853 178.501 21.8213 178.576 22.76H176.56C176.528 22.3547 176.336 22.008 175.984 21.72C175.632 21.432 175.168 21.288 174.592 21.288C174.069 21.288 173.643 21.4213 173.312 21.688C172.981 21.9547 172.816 22.3387 172.816 22.84C172.816 23.1813 172.917 23.464 173.12 23.688C173.333 23.9013 173.6 24.072 173.92 24.2C174.24 24.328 174.677 24.4667 175.232 24.616C175.968 24.8187 176.565 25.0213 177.024 25.224C177.493 25.4267 177.888 25.7413 178.208 26.168C178.539 26.584 178.704 27.144 178.704 27.848C178.704 28.4133 178.549 28.9467 178.24 29.448C177.941 29.9493 177.499 30.3547 176.912 30.664C176.336 30.9627 175.653 31.112 174.864 31.112ZM184.68 31.144C183.848 31.144 183.096 30.9573 182.424 30.584C181.752 30.2 181.224 29.6667 180.84 28.984C180.456 28.2907 180.264 27.4907 180.264 26.584C180.264 25.688 180.462 24.8933 180.856 24.2C181.251 23.5067 181.79 22.9733 182.472 22.6C183.155 22.2267 183.918 22.04 184.76 22.04C185.603 22.04 186.366 22.2267 187.048 22.6C187.731 22.9733 188.27 23.5067 188.664 24.2C189.059 24.8933 189.256 25.688 189.256 26.584C189.256 27.48 189.054 28.2747 188.648 28.968C188.243 29.6613 187.688 30.2 186.984 30.584C186.291 30.9573 185.523 31.144 184.68 31.144ZM184.68 29.56C185.15 29.56 185.587 29.448 185.992 29.224C186.408 29 186.744 28.664 187 28.216C187.256 27.768 187.384 27.224 187.384 26.584C187.384 25.944 187.262 25.4053 187.016 24.968C186.771 24.52 186.446 24.184 186.04 23.96C185.635 23.736 185.198 23.624 184.728 23.624C184.259 23.624 183.822 23.736 183.416 23.96C183.022 24.184 182.707 24.52 182.472 24.968C182.238 25.4053 182.12 25.944 182.12 26.584C182.12 27.5333 182.36 28.2693 182.84 28.792C183.331 29.304 183.944 29.56 184.68 29.56ZM199.043 22.184V31H197.219V29.96C196.931 30.3227 196.553 30.6107 196.083 30.824C195.625 31.0267 195.134 31.128 194.611 31.128C193.918 31.128 193.294 30.984 192.739 30.696C192.195 30.408 191.763 29.9813 191.443 29.416C191.134 28.8507 190.979 28.168 190.979 27.368V22.184H192.787V27.096C192.787 27.8853 192.985 28.4933 193.379 28.92C193.774 29.336 194.313 29.544 194.995 29.544C195.678 29.544 196.217 29.336 196.611 28.92C197.017 28.4933 197.219 27.8853 197.219 27.096V22.184H199.043ZM205.898 22.04C206.591 22.04 207.21 22.184 207.754 22.472C208.309 22.76 208.741 23.1867 209.05 23.752C209.359 24.3173 209.514 25 209.514 25.8V31H207.706V26.072C207.706 25.2827 207.509 24.68 207.114 24.264C206.719 23.8373 206.181 23.624 205.498 23.624C204.815 23.624 204.271 23.8373 203.866 24.264C203.471 24.68 203.274 25.2827 203.274 26.072V31H201.45V22.184H203.274V23.192C203.573 22.8293 203.951 22.5467 204.41 22.344C204.879 22.1413 205.375 22.04 205.898 22.04ZM211.233 26.552C211.233 25.6667 211.414 24.8827 211.777 24.2C212.15 23.5173 212.651 22.9893 213.281 22.616C213.921 22.232 214.63 22.04 215.409 22.04C215.985 22.04 216.55 22.168 217.105 22.424C217.67 22.6693 218.118 23 218.449 23.416V19.16H220.289V31H218.449V29.672C218.15 30.0987 217.734 30.4507 217.201 30.728C216.678 31.0053 216.075 31.144 215.393 31.144C214.625 31.144 213.921 30.952 213.281 30.568C212.651 30.1733 212.15 29.6293 211.777 28.936C211.414 28.232 211.233 27.4373 211.233 26.552ZM218.449 26.584C218.449 25.976 218.321 25.448 218.065 25C217.819 24.552 217.494 24.2107 217.089 23.976C216.683 23.7413 216.246 23.624 215.777 23.624C215.307 23.624 214.87 23.7413 214.465 23.976C214.059 24.2 213.729 24.536 213.473 24.984C213.227 25.4213 213.105 25.944 213.105 26.552C213.105 27.16 213.227 27.6933 213.473 28.152C213.729 28.6107 214.059 28.9627 214.465 29.208C214.881 29.4427 215.318 29.56 215.777 29.56C216.246 29.56 216.683 29.4427 217.089 29.208C217.494 28.9733 217.819 28.632 218.065 28.184C218.321 27.7253 218.449 27.192 218.449 26.584ZM225.884 31.144C225.191 31.144 224.567 31.0213 224.012 30.776C223.468 30.52 223.036 30.1787 222.716 29.752C222.396 29.3147 222.226 28.8293 222.204 28.296H224.092C224.124 28.6693 224.3 28.984 224.62 29.24C224.951 29.4853 225.362 29.608 225.852 29.608C226.364 29.608 226.759 29.512 227.036 29.32C227.324 29.1173 227.468 28.8613 227.468 28.552C227.468 28.2213 227.308 27.976 226.988 27.816C226.679 27.656 226.183 27.48 225.5 27.288C224.839 27.1067 224.3 26.9307 223.884 26.76C223.468 26.5893 223.106 26.328 222.796 25.976C222.498 25.624 222.348 25.16 222.348 24.584C222.348 24.1147 222.487 23.688 222.764 23.304C223.042 22.9093 223.436 22.6 223.948 22.376C224.471 22.152 225.068 22.04 225.74 22.04C226.743 22.04 227.548 22.296 228.156 22.808C228.775 23.3093 229.106 23.9973 229.148 24.872H227.324C227.292 24.4773 227.132 24.1627 226.844 23.928C226.556 23.6933 226.167 23.576 225.676 23.576C225.196 23.576 224.828 23.6667 224.572 23.848C224.316 24.0293 224.188 24.2693 224.188 24.568C224.188 24.8027 224.274 25 224.444 25.16C224.615 25.32 224.823 25.448 225.068 25.544C225.314 25.6293 225.676 25.7413 226.156 25.88C226.796 26.0507 227.319 26.2267 227.724 26.408C228.14 26.5787 228.498 26.8347 228.796 27.176C229.095 27.5173 229.25 27.9707 229.26 28.536C229.26 29.0373 229.122 29.4853 228.844 29.88C228.567 30.2747 228.172 30.584 227.66 30.808C227.159 31.032 226.567 31.144 225.884 31.144Z" fill="black"/>
<path d="M175.364 64.716C175.812 64.796 176.192 65.032 176.504 65.424C176.816 65.816 176.972 66.26 176.972 66.756C176.972 67.18 176.86 67.564 176.636 67.908C176.42 68.244 176.104 68.512 175.688 68.712C175.272 68.904 174.788 69 174.236 69H170.9V60.66H174.08C174.648 60.66 175.136 60.756 175.544 60.948C175.952 61.14 176.26 61.4 176.468 61.728C176.676 62.048 176.78 62.408 176.78 62.808C176.78 63.288 176.652 63.688 176.396 64.008C176.14 64.328 175.796 64.564 175.364 64.716ZM172.268 64.164H173.96C174.408 64.164 174.756 64.064 175.004 63.864C175.26 63.656 175.388 63.36 175.388 62.976C175.388 62.6 175.26 62.308 175.004 62.1C174.756 61.884 174.408 61.776 173.96 61.776H172.268V64.164ZM174.116 67.884C174.58 67.884 174.944 67.772 175.208 67.548C175.472 67.324 175.604 67.012 175.604 66.612C175.604 66.204 175.464 65.88 175.184 65.64C174.904 65.4 174.532 65.28 174.068 65.28H172.268V67.884H174.116ZM178.003 65.664C178.003 65 178.139 64.412 178.411 63.9C178.691 63.388 179.067 62.992 179.539 62.712C180.019 62.424 180.547 62.28 181.123 62.28C181.643 62.28 182.095 62.384 182.479 62.592C182.871 62.792 183.183 63.044 183.415 63.348V62.388H184.795V69H183.415V68.016C183.183 68.328 182.867 68.588 182.467 68.796C182.067 69.004 181.611 69.108 181.099 69.108C180.531 69.108 180.011 68.964 179.539 68.676C179.067 68.38 178.691 67.972 178.411 67.452C178.139 66.924 178.003 66.328 178.003 65.664ZM183.415 65.688C183.415 65.232 183.319 64.836 183.127 64.5C182.943 64.164 182.699 63.908 182.395 63.732C182.091 63.556 181.763 63.468 181.411 63.468C181.059 63.468 180.731 63.556 180.427 63.732C180.123 63.9 179.875 64.152 179.683 64.488C179.499 64.816 179.407 65.208 179.407 65.664C179.407 66.12 179.499 66.52 179.683 66.864C179.875 67.208 180.123 67.472 180.427 67.656C180.739 67.832 181.067 67.92 181.411 67.92C181.763 67.92 182.091 67.832 182.395 67.656C182.699 67.48 182.943 67.224 183.127 66.888C183.319 66.544 183.415 66.144 183.415 65.688ZM186.135 65.688C186.135 65.008 186.271 64.412 186.543 63.9C186.823 63.38 187.207 62.98 187.695 62.7C188.183 62.42 188.743 62.28 189.375 62.28C190.175 62.28 190.835 62.472 191.355 62.856C191.883 63.232 192.239 63.772 192.423 64.476H190.947C190.827 64.148 190.635 63.892 190.371 63.708C190.107 63.524 189.775 63.432 189.375 63.432C188.815 63.432 188.367 63.632 188.031 64.032C187.703 64.424 187.539 64.976 187.539 65.688C187.539 66.4 187.703 66.956 188.031 67.356C188.367 67.756 188.815 67.956 189.375 67.956C190.167 67.956 190.691 67.608 190.947 66.912H192.423C192.231 67.584 191.871 68.12 191.343 68.52C190.815 68.912 190.159 69.108 189.375 69.108C188.743 69.108 188.183 68.968 187.695 68.688C187.207 68.4 186.823 68 186.543 67.488C186.271 66.968 186.135 66.368 186.135 65.688ZM196.403 65.7L199.451 69H197.603L195.155 66.156V69H193.787V60.12H195.155V65.28L197.555 62.388H199.451L196.403 65.7ZM203.095 62.28C203.607 62.28 204.059 62.384 204.451 62.592C204.851 62.792 205.163 63.044 205.387 63.348V62.388H206.767V69.108C206.767 69.716 206.639 70.256 206.383 70.728C206.127 71.208 205.755 71.584 205.267 71.856C204.787 72.128 204.211 72.264 203.539 72.264C202.643 72.264 201.899 72.052 201.307 71.628C200.715 71.212 200.379 70.644 200.299 69.924H201.655C201.759 70.268 201.979 70.544 202.315 70.752C202.659 70.968 203.067 71.076 203.539 71.076C204.091 71.076 204.535 70.908 204.871 70.572C205.215 70.236 205.387 69.748 205.387 69.108V68.004C205.155 68.316 204.839 68.58 204.439 68.796C204.047 69.004 203.599 69.108 203.095 69.108C202.519 69.108 201.991 68.964 201.511 68.676C201.039 68.38 200.663 67.972 200.383 67.452C200.111 66.924 199.975 66.328 199.975 65.664C199.975 65 200.111 64.412 200.383 63.9C200.663 63.388 201.039 62.992 201.511 62.712C201.991 62.424 202.519 62.28 203.095 62.28ZM205.387 65.688C205.387 65.232 205.291 64.836 205.099 64.5C204.915 64.164 204.671 63.908 204.367 63.732C204.063 63.556 203.735 63.468 203.383 63.468C203.031 63.468 202.703 63.556 202.399 63.732C202.095 63.9 201.847 64.152 201.655 64.488C201.471 64.816 201.379 65.208 201.379 65.664C201.379 66.12 201.471 66.52 201.655 66.864C201.847 67.208 202.095 67.472 202.399 67.656C202.711 67.832 203.039 67.92 203.383 67.92C203.735 67.92 204.063 67.832 204.367 67.656C204.671 67.48 204.915 67.224 205.099 66.888C205.291 66.544 205.387 66.144 205.387 65.688ZM209.932 63.348C210.132 63.012 210.396 62.752 210.724 62.568C211.06 62.376 211.456 62.28 211.912 62.28V63.696H211.564C211.028 63.696 210.62 63.832 210.34 64.104C210.068 64.376 209.932 64.848 209.932 65.52V69H208.564V62.388H209.932V63.348ZM216.038 69.108C215.414 69.108 214.85 68.968 214.346 68.688C213.842 68.4 213.446 68 213.158 67.488C212.87 66.968 212.726 66.368 212.726 65.688C212.726 65.016 212.874 64.42 213.17 63.9C213.466 63.38 213.87 62.98 214.382 62.7C214.894 62.42 215.466 62.28 216.098 62.28C216.73 62.28 217.302 62.42 217.814 62.7C218.326 62.98 218.73 63.38 219.026 63.9C219.322 64.42 219.47 65.016 219.47 65.688C219.47 66.36 219.318 66.956 219.014 67.476C218.71 67.996 218.294 68.4 217.766 68.688C217.246 68.968 216.67 69.108 216.038 69.108ZM216.038 67.92C216.39 67.92 216.718 67.836 217.022 67.668C217.334 67.5 217.586 67.248 217.778 66.912C217.97 66.576 218.066 66.168 218.066 65.688C218.066 65.208 217.974 64.804 217.79 64.476C217.606 64.14 217.362 63.888 217.058 63.72C216.754 63.552 216.426 63.468 216.074 63.468C215.722 63.468 215.394 63.552 215.09 63.72C214.794 63.888 214.558 64.14 214.382 64.476C214.206 64.804 214.118 65.208 214.118 65.688C214.118 66.4 214.298 66.952 214.658 67.344C215.026 67.728 215.486 67.92 216.038 67.92ZM226.81 62.388V69H225.442V68.22C225.226 68.492 224.942 68.708 224.59 68.868C224.246 69.02 223.878 69.096 223.486 69.096C222.966 69.096 222.498 68.988 222.082 68.772C221.674 68.556 221.35 68.236 221.11 67.812C220.878 67.388 220.762 66.876 220.762 66.276V62.388H222.118V66.072C222.118 66.664 222.266 67.12 222.562 67.44C222.858 67.752 223.262 67.908 223.774 67.908C224.286 67.908 224.69 67.752 224.986 67.44C225.29 67.12 225.442 66.664 225.442 66.072V62.388H226.81ZM231.951 62.28C232.471 62.28 232.935 62.388 233.343 62.604C233.759 62.82 234.083 63.14 234.315 63.564C234.547 63.988 234.663 64.5 234.663 65.1V69H233.307V65.304C233.307 64.712 233.159 64.26 232.863 63.948C232.567 63.628 232.163 63.468 231.651 63.468C231.139 63.468 230.731 63.628 230.427 63.948C230.131 64.26 229.983 64.712 229.983 65.304V69H228.615V62.388H229.983V63.144C230.207 62.872 230.491 62.66 230.835 62.508C231.187 62.356 231.559 62.28 231.951 62.28ZM235.952 65.664C235.952 65 236.088 64.412 236.36 63.9C236.64 63.388 237.016 62.992 237.488 62.712C237.968 62.424 238.5 62.28 239.084 62.28C239.516 62.28 239.94 62.376 240.356 62.568C240.78 62.752 241.116 63 241.364 63.312V60.12H242.744V69H241.364V68.004C241.14 68.324 240.828 68.588 240.428 68.796C240.036 69.004 239.584 69.108 239.072 69.108C238.496 69.108 237.968 68.964 237.488 68.676C237.016 68.38 236.64 67.972 236.36 67.452C236.088 66.924 235.952 66.328 235.952 65.664ZM241.364 65.688C241.364 65.232 241.268 64.836 241.076 64.5C240.892 64.164 240.648 63.908 240.344 63.732C240.04 63.556 239.712 63.468 239.36 63.468C239.008 63.468 238.68 63.556 238.376 63.732C238.072 63.9 237.824 64.152 237.632 64.488C237.448 64.816 237.356 65.208 237.356 65.664C237.356 66.12 237.448 66.52 237.632 66.864C237.824 67.208 238.072 67.472 238.376 67.656C238.688 67.832 239.016 67.92 239.36 67.92C239.712 67.92 240.04 67.832 240.344 67.656C240.648 67.48 240.892 67.224 241.076 66.888C241.268 66.544 241.364 66.144 241.364 65.688ZM255.662 62.28C256.182 62.28 256.646 62.388 257.054 62.604C257.47 62.82 257.794 63.14 258.026 63.564C258.266 63.988 258.386 64.5 258.386 65.1V69H257.03V65.304C257.03 64.712 256.882 64.26 256.586 63.948C256.29 63.628 255.886 63.468 255.374 63.468C254.862 63.468 254.454 63.628 254.15 63.948C253.854 64.26 253.706 64.712 253.706 65.304V69H252.35V65.304C252.35 64.712 252.202 64.26 251.906 63.948C251.61 63.628 251.206 63.468 250.694 63.468C250.182 63.468 249.774 63.628 249.47 63.948C249.174 64.26 249.026 64.712 249.026 65.304V69H247.658V62.388H249.026V63.144C249.25 62.872 249.534 62.66 249.878 62.508C250.222 62.356 250.59 62.28 250.982 62.28C251.51 62.28 251.982 62.392 252.398 62.616C252.814 62.84 253.134 63.164 253.358 63.588C253.558 63.188 253.87 62.872 254.294 62.64C254.718 62.4 255.174 62.28 255.662 62.28ZM266.115 62.388V69H264.747V68.22C264.531 68.492 264.247 68.708 263.895 68.868C263.551 69.02 263.183 69.096 262.791 69.096C262.271 69.096 261.803 68.988 261.387 68.772C260.979 68.556 260.655 68.236 260.415 67.812C260.183 67.388 260.067 66.876 260.067 66.276V62.388H261.423V66.072C261.423 66.664 261.571 67.12 261.867 67.44C262.163 67.752 262.567 67.908 263.079 67.908C263.591 67.908 263.995 67.752 264.291 67.44C264.595 67.12 264.747 66.664 264.747 66.072V62.388H266.115ZM270.32 69.108C269.8 69.108 269.332 69.016 268.916 68.832C268.508 68.64 268.184 68.384 267.944 68.064C267.704 67.736 267.576 67.372 267.56 66.972H268.976C269 67.252 269.132 67.488 269.372 67.68C269.62 67.864 269.928 67.956 270.296 67.956C270.68 67.956 270.976 67.884 271.184 67.74C271.4 67.588 271.508 67.396 271.508 67.164C271.508 66.916 271.388 66.732 271.148 66.612C270.916 66.492 270.544 66.36 270.032 66.216C269.536 66.08 269.132 65.948 268.82 65.82C268.508 65.692 268.236 65.496 268.004 65.232C267.78 64.968 267.668 64.62 267.668 64.188C267.668 63.836 267.772 63.516 267.98 63.228C268.188 62.932 268.484 62.7 268.868 62.532C269.26 62.364 269.708 62.28 270.212 62.28C270.964 62.28 271.568 62.472 272.024 62.856C272.488 63.232 272.736 63.748 272.768 64.404H271.4C271.376 64.108 271.256 63.872 271.04 63.696C270.824 63.52 270.532 63.432 270.164 63.432C269.804 63.432 269.528 63.5 269.336 63.636C269.144 63.772 269.048 63.952 269.048 64.176C269.048 64.352 269.112 64.5 269.24 64.62C269.368 64.74 269.524 64.836 269.708 64.908C269.892 64.972 270.164 65.056 270.524 65.16C271.004 65.288 271.396 65.42 271.7 65.556C272.012 65.684 272.28 65.876 272.504 66.132C272.728 66.388 272.844 66.728 272.852 67.152C272.852 67.528 272.748 67.864 272.54 68.16C272.332 68.456 272.036 68.688 271.652 68.856C271.276 69.024 270.832 69.108 270.32 69.108ZM275.026 61.512C274.778 61.512 274.57 61.428 274.402 61.26C274.234 61.092 274.15 60.884 274.15 60.636C274.15 60.388 274.234 60.18 274.402 60.012C274.57 59.844 274.778 59.76 275.026 59.76C275.266 59.76 275.47 59.844 275.638 60.012C275.806 60.18 275.89 60.388 275.89 60.636C275.89 60.884 275.806 61.092 275.638 61.26C275.47 61.428 275.266 61.512 275.026 61.512ZM275.698 62.388V69H274.33V62.388H275.698ZM277.038 65.688C277.038 65.008 277.174 64.412 277.446 63.9C277.726 63.38 278.11 62.98 278.598 62.7C279.086 62.42 279.646 62.28 280.278 62.28C281.078 62.28 281.738 62.472 282.258 62.856C282.786 63.232 283.142 63.772 283.326 64.476H281.85C281.73 64.148 281.538 63.892 281.274 63.708C281.01 63.524 280.678 63.432 280.278 63.432C279.718 63.432 279.27 63.632 278.934 64.032C278.606 64.424 278.442 64.976 278.442 65.688C278.442 66.4 278.606 66.956 278.934 67.356C279.27 67.756 279.718 67.956 280.278 67.956C281.07 67.956 281.594 67.608 281.85 66.912H283.326C283.134 67.584 282.774 68.12 282.246 68.52C281.718 68.912 281.062 69.108 280.278 69.108C279.646 69.108 279.086 68.968 278.598 68.688C278.11 68.4 277.726 68 277.446 67.488C277.174 66.968 277.038 66.368 277.038 65.688ZM290.362 67.776L292.234 62.388H293.686L291.166 69H289.534L287.026 62.388H288.49L290.362 67.776ZM297.588 69.108C296.964 69.108 296.4 68.968 295.896 68.688C295.392 68.4 294.996 68 294.708 67.488C294.42 66.968 294.276 66.368 294.276 65.688C294.276 65.016 294.424 64.42 294.72 63.9C295.016 63.38 295.42 62.98 295.932 62.7C296.444 62.42 297.016 62.28 297.648 62.28C298.28 62.28 298.852 62.42 299.364 62.7C299.876 62.98 300.28 63.38 300.576 63.9C300.872 64.42 301.02 65.016 301.02 65.688C301.02 66.36 300.868 66.956 300.564 67.476C300.26 67.996 299.844 68.4 299.316 68.688C298.796 68.968 298.22 69.108 297.588 69.108ZM297.588 67.92C297.94 67.92 298.268 67.836 298.572 67.668C298.884 67.5 299.136 67.248 299.328 66.912C299.52 66.576 299.616 66.168 299.616 65.688C299.616 65.208 299.524 64.804 299.34 64.476C299.156 64.14 298.912 63.888 298.608 63.72C298.304 63.552 297.976 63.468 297.624 63.468C297.272 63.468 296.944 63.552 296.64 63.72C296.344 63.888 296.108 64.14 295.932 64.476C295.756 64.804 295.668 65.208 295.668 65.688C295.668 66.4 295.848 66.952 296.208 67.344C296.576 67.728 297.036 67.92 297.588 67.92ZM303.741 60.12V69H302.373V60.12H303.741ZM311.525 62.388V69H310.157V68.22C309.941 68.492 309.657 68.708 309.305 68.868C308.961 69.02 308.593 69.096 308.201 69.096C307.681 69.096 307.213 68.988 306.797 68.772C306.389 68.556 306.065 68.236 305.825 67.812C305.593 67.388 305.477 66.876 305.477 66.276V62.388H306.833V66.072C306.833 66.664 306.981 67.12 307.277 67.44C307.573 67.752 307.977 67.908 308.489 67.908C309.001 67.908 309.405 67.752 309.701 67.44C310.005 67.12 310.157 66.664 310.157 66.072V62.388H311.525ZM321.334 62.28C321.854 62.28 322.318 62.388 322.726 62.604C323.142 62.82 323.466 63.14 323.698 63.564C323.938 63.988 324.058 64.5 324.058 65.1V69H322.702V65.304C322.702 64.712 322.554 64.26 322.258 63.948C321.962 63.628 321.558 63.468 321.046 63.468C320.534 63.468 320.126 63.628 319.822 63.948C319.526 64.26 319.378 64.712 319.378 65.304V69H318.022V65.304C318.022 64.712 317.874 64.26 317.578 63.948C317.282 63.628 316.878 63.468 316.366 63.468C315.854 63.468 315.446 63.628 315.142 63.948C314.846 64.26 314.698 64.712 314.698 65.304V69H313.33V62.388H314.698V63.144C314.922 62.872 315.206 62.66 315.55 62.508C315.894 62.356 316.262 62.28 316.654 62.28C317.182 62.28 317.654 62.392 318.07 62.616C318.486 62.84 318.806 63.164 319.03 63.588C319.23 63.188 319.542 62.872 319.966 62.64C320.39 62.4 320.846 62.28 321.334 62.28ZM331.858 65.532C331.858 65.78 331.842 66.004 331.81 66.204H326.758C326.798 66.732 326.994 67.156 327.346 67.476C327.698 67.796 328.13 67.956 328.642 67.956C329.378 67.956 329.898 67.648 330.202 67.032H331.678C331.478 67.64 331.114 68.14 330.586 68.532C330.066 68.916 329.418 69.108 328.642 69.108C328.01 69.108 327.442 68.968 326.938 68.688C326.442 68.4 326.05 68 325.762 67.488C325.482 66.968 325.342 66.368 325.342 65.688C325.342 65.008 325.478 64.412 325.75 63.9C326.03 63.38 326.418 62.98 326.914 62.7C327.418 62.42 327.994 62.28 328.642 62.28C329.266 62.28 329.822 62.416 330.31 62.688C330.798 62.96 331.178 63.344 331.45 63.84C331.722 64.328 331.858 64.892 331.858 65.532ZM330.43 65.1C330.422 64.596 330.242 64.192 329.89 63.888C329.538 63.584 329.102 63.432 328.582 63.432C328.11 63.432 327.706 63.584 327.37 63.888C327.034 64.184 326.834 64.588 326.77 65.1H330.43Z" fill="black"/>
<rect x="165" y="85" width="300" height="20" rx="10" fill="black" fill-opacity="0.1"/>
<path d="M173.648 139.084C173.088 139.084 172.584 138.988 172.136 138.796C171.688 138.596 171.336 138.316 171.08 137.956C170.824 137.596 170.696 137.176 170.696 136.696H172.16C172.192 137.056 172.332 137.352 172.58 137.584C172.836 137.816 173.192 137.932 173.648 137.932C174.12 137.932 174.488 137.82 174.752 137.596C175.016 137.364 175.148 137.068 175.148 136.708C175.148 136.428 175.064 136.2 174.896 136.024C174.736 135.848 174.532 135.712 174.284 135.616C174.044 135.52 173.708 135.416 173.276 135.304C172.732 135.16 172.288 135.016 171.944 134.872C171.608 134.72 171.32 134.488 171.08 134.176C170.84 133.864 170.72 133.448 170.72 132.928C170.72 132.448 170.84 132.028 171.08 131.668C171.32 131.308 171.656 131.032 172.088 130.84C172.52 130.648 173.02 130.552 173.588 130.552C174.396 130.552 175.056 130.756 175.568 131.164C176.088 131.564 176.376 132.116 176.432 132.82H174.92C174.896 132.516 174.752 132.256 174.488 132.04C174.224 131.824 173.876 131.716 173.444 131.716C173.052 131.716 172.732 131.816 172.484 132.016C172.236 132.216 172.112 132.504 172.112 132.88C172.112 133.136 172.188 133.348 172.34 133.516C172.5 133.676 172.7 133.804 172.94 133.9C173.18 133.996 173.508 134.1 173.924 134.212C174.476 134.364 174.924 134.516 175.268 134.668C175.62 134.82 175.916 135.056 176.156 135.376C176.404 135.688 176.528 136.108 176.528 136.636C176.528 137.06 176.412 137.46 176.18 137.836C175.956 138.212 175.624 138.516 175.184 138.748C174.752 138.972 174.24 139.084 173.648 139.084ZM184.094 132.388L180.038 142.108H178.622L179.966 138.892L177.362 132.388H178.886L180.746 137.428L182.678 132.388H184.094ZM187.527 139.108C187.007 139.108 186.539 139.016 186.123 138.832C185.715 138.64 185.391 138.384 185.151 138.064C184.911 137.736 184.783 137.372 184.767 136.972H186.183C186.207 137.252 186.339 137.488 186.579 137.68C186.827 137.864 187.135 137.956 187.503 137.956C187.887 137.956 188.183 137.884 188.391 137.74C188.607 137.588 188.715 137.396 188.715 137.164C188.715 136.916 188.595 136.732 188.355 136.612C188.123 136.492 187.751 136.36 187.239 136.216C186.743 136.08 186.339 135.948 186.027 135.82C185.715 135.692 185.443 135.496 185.211 135.232C184.987 134.968 184.875 134.62 184.875 134.188C184.875 133.836 184.979 133.516 185.187 133.228C185.395 132.932 185.691 132.7 186.075 132.532C186.467 132.364 186.915 132.28 187.419 132.28C188.171 132.28 188.775 132.472 189.231 132.856C189.695 133.232 189.943 133.748 189.975 134.404H188.607C188.583 134.108 188.463 133.872 188.247 133.696C188.031 133.52 187.739 133.432 187.371 133.432C187.011 133.432 186.735 133.5 186.543 133.636C186.351 133.772 186.255 133.952 186.255 134.176C186.255 134.352 186.319 134.5 186.447 134.62C186.575 134.74 186.731 134.836 186.915 134.908C187.099 134.972 187.371 135.056 187.731 135.16C188.211 135.288 188.603 135.42 188.907 135.556C189.219 135.684 189.487 135.876 189.711 136.132C189.935 136.388 190.051 136.728 190.059 137.152C190.059 137.528 189.955 137.864 189.747 138.16C189.539 138.456 189.243 138.688 188.859 138.856C188.483 139.024 188.039 139.108 187.527 139.108ZM193.133 133.504V137.164C193.133 137.412 193.189 137.592 193.301 137.704C193.421 137.808 193.621 137.86 193.901 137.86H194.741V139H193.661C193.045 139 192.573 138.856 192.245 138.568C191.917 138.28 191.753 137.812 191.753 137.164V133.504H190.973V132.388H191.753V130.744H193.133V132.388H194.741V133.504H193.133ZM202.062 135.532C202.062 135.78 202.046 136.004 202.014 136.204H196.962C197.002 136.732 197.198 137.156 197.55 137.476C197.902 137.796 198.334 137.956 198.846 137.956C199.582 137.956 200.102 137.648 200.406 137.032H201.882C201.682 137.64 201.318 138.14 200.79 138.532C200.27 138.916 199.622 139.108 198.846 139.108C198.214 139.108 197.646 138.968 197.142 138.688C196.646 138.4 196.254 138 195.966 137.488C195.686 136.968 195.546 136.368 195.546 135.688C195.546 135.008 195.682 134.412 195.954 133.9C196.234 133.38 196.622 132.98 197.118 132.7C197.622 132.42 198.198 132.28 198.846 132.28C199.47 132.28 200.026 132.416 200.514 132.688C201.002 132.96 201.382 133.344 201.654 133.84C201.926 134.328 202.062 134.892 202.062 135.532ZM200.634 135.1C200.626 134.596 200.446 134.192 200.094 133.888C199.742 133.584 199.306 133.432 198.786 133.432C198.314 133.432 197.91 133.584 197.574 133.888C197.238 134.184 197.038 134.588 196.974 135.1H200.634ZM211.412 132.28C211.932 132.28 212.396 132.388 212.804 132.604C213.22 132.82 213.544 133.14 213.776 133.564C214.016 133.988 214.136 134.5 214.136 135.1V139H212.78V135.304C212.78 134.712 212.632 134.26 212.336 133.948C212.04 133.628 211.636 133.468 211.124 133.468C210.612 133.468 210.204 133.628 209.9 133.948C209.604 134.26 209.456 134.712 209.456 135.304V139H208.1V135.304C208.1 134.712 207.952 134.26 207.656 133.948C207.36 133.628 206.956 133.468 206.444 133.468C205.932 133.468 205.524 133.628 205.22 133.948C204.924 134.26 204.776 134.712 204.776 135.304V139H203.408V132.388H204.776V133.144C205 132.872 205.284 132.66 205.628 132.508C205.972 132.356 206.34 132.28 206.732 132.28C207.26 132.28 207.732 132.392 208.148 132.616C208.564 132.84 208.884 133.164 209.108 133.588C209.308 133.188 209.62 132.872 210.044 132.64C210.468 132.4 210.924 132.28 211.412 132.28ZM221.55 137.776L223.422 132.388H224.874L222.354 139H220.722L218.214 132.388H219.678L221.55 137.776ZM228.776 139.108C228.152 139.108 227.588 138.968 227.084 138.688C226.58 138.4 226.184 138 225.896 137.488C225.608 136.968 225.464 136.368 225.464 135.688C225.464 135.016 225.612 134.42 225.908 133.9C226.204 133.38 226.608 132.98 227.12 132.7C227.632 132.42 228.204 132.28 228.836 132.28C229.468 132.28 230.04 132.42 230.552 132.7C231.064 132.98 231.468 133.38 231.764 133.9C232.06 134.42 232.208 135.016 232.208 135.688C232.208 136.36 232.056 136.956 231.752 137.476C231.448 137.996 231.032 138.4 230.504 138.688C229.984 138.968 229.408 139.108 228.776 139.108ZM228.776 137.92C229.128 137.92 229.456 137.836 229.76 137.668C230.072 137.5 230.324 137.248 230.516 136.912C230.708 136.576 230.804 136.168 230.804 135.688C230.804 135.208 230.712 134.804 230.528 134.476C230.344 134.14 230.1 133.888 229.796 133.72C229.492 133.552 229.164 133.468 228.812 133.468C228.46 133.468 228.132 133.552 227.828 133.72C227.532 133.888 227.296 134.14 227.12 134.476C226.944 134.804 226.856 135.208 226.856 135.688C226.856 136.4 227.036 136.952 227.396 137.344C227.764 137.728 228.224 137.92 228.776 137.92ZM234.928 130.12V139H233.56V130.12H234.928ZM242.712 132.388V139H241.344V138.22C241.128 138.492 240.844 138.708 240.492 138.868C240.148 139.02 239.78 139.096 239.388 139.096C238.868 139.096 238.4 138.988 237.984 138.772C237.576 138.556 237.252 138.236 237.012 137.812C236.78 137.388 236.664 136.876 236.664 136.276V132.388H238.02V136.072C238.02 136.664 238.168 137.12 238.464 137.44C238.76 137.752 239.164 137.908 239.676 137.908C240.188 137.908 240.592 137.752 240.888 137.44C241.192 137.12 241.344 136.664 241.344 136.072V132.388H242.712ZM252.521 132.28C253.041 132.28 253.505 132.388 253.913 132.604C254.329 132.82 254.653 133.14 254.885 133.564C255.125 133.988 255.245 134.5 255.245 135.1V139H253.889V135.304C253.889 134.712 253.741 134.26 253.445 133.948C253.149 133.628 252.745 133.468 252.233 133.468C251.721 133.468 251.313 133.628 251.009 133.948C250.713 134.26 250.565 134.712 250.565 135.304V139H249.209V135.304C249.209 134.712 249.061 134.26 248.765 133.948C248.469 133.628 248.065 133.468 247.553 133.468C247.041 133.468 246.633 133.628 246.329 133.948C246.033 134.26 245.885 134.712 245.885 135.304V139H244.517V132.388H245.885V133.144C246.109 132.872 246.393 132.66 246.737 132.508C247.081 132.356 247.449 132.28 247.841 132.28C248.369 132.28 248.841 132.392 249.257 132.616C249.673 132.84 249.993 133.164 250.217 133.588C250.417 133.188 250.729 132.872 251.153 132.64C251.577 132.4 252.033 132.28 252.521 132.28ZM263.046 135.532C263.046 135.78 263.03 136.004 262.998 136.204H257.946C257.986 136.732 258.182 137.156 258.534 137.476C258.886 137.796 259.318 137.956 259.83 137.956C260.566 137.956 261.086 137.648 261.39 137.032H262.866C262.666 137.64 262.302 138.14 261.774 138.532C261.254 138.916 260.606 139.108 259.83 139.108C259.198 139.108 258.63 138.968 258.126 138.688C257.63 138.4 257.238 138 256.95 137.488C256.67 136.968 256.53 136.368 256.53 135.688C256.53 135.008 256.666 134.412 256.938 133.9C257.218 133.38 257.606 132.98 258.102 132.7C258.606 132.42 259.182 132.28 259.83 132.28C260.454 132.28 261.01 132.416 261.498 132.688C261.986 132.96 262.366 133.344 262.638 133.84C262.91 134.328 263.046 134.892 263.046 135.532ZM261.618 135.1C261.61 134.596 261.43 134.192 261.078 133.888C260.726 133.584 260.29 133.432 259.77 133.432C259.298 133.432 258.894 133.584 258.558 133.888C258.222 134.184 258.022 134.588 257.958 135.1H261.618Z" fill="black"/>
<rect x="165" y="155" width="300" height="20" rx="10" fill="black" fill-opacity="0.1"/>
<path d="M179.684 200.66V209H178.316V203.288L175.772 209H174.824L172.268 203.288V209H170.9V200.66H172.376L175.304 207.2L178.22 200.66H179.684ZM187.542 205.532C187.542 205.78 187.526 206.004 187.494 206.204H182.442C182.482 206.732 182.678 207.156 183.03 207.476C183.382 207.796 183.814 207.956 184.326 207.956C185.062 207.956 185.582 207.648 185.886 207.032H187.362C187.162 207.64 186.798 208.14 186.27 208.532C185.75 208.916 185.102 209.108 184.326 209.108C183.694 209.108 183.126 208.968 182.622 208.688C182.126 208.4 181.734 208 181.446 207.488C181.166 206.968 181.026 206.368 181.026 205.688C181.026 205.008 181.162 204.412 181.434 203.9C181.714 203.38 182.102 202.98 182.598 202.7C183.102 202.42 183.678 202.28 184.326 202.28C184.95 202.28 185.506 202.416 185.994 202.688C186.482 202.96 186.862 203.344 187.134 203.84C187.406 204.328 187.542 204.892 187.542 205.532ZM186.114 205.1C186.106 204.596 185.926 204.192 185.574 203.888C185.222 203.584 184.786 203.432 184.266 203.432C183.794 203.432 183.39 203.584 183.054 203.888C182.718 204.184 182.518 204.588 182.454 205.1H186.114ZM188.432 205.664C188.432 205 188.568 204.412 188.84 203.9C189.12 203.388 189.496 202.992 189.968 202.712C190.448 202.424 190.98 202.28 191.564 202.28C191.996 202.28 192.42 202.376 192.836 202.568C193.26 202.752 193.596 203 193.844 203.312V200.12H195.224V209H193.844V208.004C193.62 208.324 193.308 208.588 192.908 208.796C192.516 209.004 192.064 209.108 191.552 209.108C190.976 209.108 190.448 208.964 189.968 208.676C189.496 208.38 189.12 207.972 188.84 207.452C188.568 206.924 188.432 206.328 188.432 205.664ZM193.844 205.688C193.844 205.232 193.748 204.836 193.556 204.5C193.372 204.164 193.128 203.908 192.824 203.732C192.52 203.556 192.192 203.468 191.84 203.468C191.488 203.468 191.16 203.556 190.856 203.732C190.552 203.9 190.304 204.152 190.112 204.488C189.928 204.816 189.836 205.208 189.836 205.664C189.836 206.12 189.928 206.52 190.112 206.864C190.304 207.208 190.552 207.472 190.856 207.656C191.168 207.832 191.496 207.92 191.84 207.92C192.192 207.92 192.52 207.832 192.824 207.656C193.128 207.48 193.372 207.224 193.556 206.888C193.748 206.544 193.844 206.144 193.844 205.688ZM197.717 201.512C197.469 201.512 197.261 201.428 197.093 201.26C196.925 201.092 196.841 200.884 196.841 200.636C196.841 200.388 196.925 200.18 197.093 200.012C197.261 199.844 197.469 199.76 197.717 199.76C197.957 199.76 198.161 199.844 198.329 200.012C198.497 200.18 198.581 200.388 198.581 200.636C198.581 200.884 198.497 201.092 198.329 201.26C198.161 201.428 197.957 201.512 197.717 201.512ZM198.389 202.388V209H197.021V202.388H198.389ZM199.729 205.664C199.729 205 199.865 204.412 200.137 203.9C200.417 203.388 200.793 202.992 201.265 202.712C201.745 202.424 202.273 202.28 202.849 202.28C203.369 202.28 203.821 202.384 204.205 202.592C204.597 202.792 204.909 203.044 205.141 203.348V202.388H206.521V209H205.141V208.016C204.909 208.328 204.593 208.588 204.193 208.796C203.793 209.004 203.337 209.108 202.825 209.108C202.257 209.108 201.737 208.964 201.265 208.676C200.793 208.38 200.417 207.972 200.137 207.452C199.865 206.924 199.729 206.328 199.729 205.664ZM205.141 205.688C205.141 205.232 205.045 204.836 204.853 204.5C204.669 204.164 204.425 203.908 204.121 203.732C203.817 203.556 203.489 203.468 203.137 203.468C202.785 203.468 202.457 203.556 202.153 203.732C201.849 203.9 201.601 204.152 201.409 204.488C201.225 204.816 201.133 205.208 201.133 205.664C201.133 206.12 201.225 206.52 201.409 206.864C201.601 207.208 201.849 207.472 202.153 207.656C202.465 207.832 202.793 207.92 203.137 207.92C203.489 207.92 203.817 207.832 204.121 207.656C204.425 207.48 204.669 207.224 204.853 206.888C205.045 206.544 205.141 206.144 205.141 205.688ZM213.991 207.776L215.863 202.388H217.315L214.795 209H213.163L210.655 202.388H212.119L213.991 207.776ZM221.217 209.108C220.593 209.108 220.029 208.968 219.525 208.688C219.021 208.4 218.625 208 218.337 207.488C218.049 206.968 217.905 206.368 217.905 205.688C217.905 205.016 218.053 204.42 218.349 203.9C218.645 203.38 219.049 202.98 219.561 202.7C220.073 202.42 220.645 202.28 221.277 202.28C221.909 202.28 222.481 202.42 222.993 202.7C223.505 202.98 223.909 203.38 224.205 203.9C224.501 204.42 224.649 205.016 224.649 205.688C224.649 206.36 224.497 206.956 224.193 207.476C223.889 207.996 223.473 208.4 222.945 208.688C222.425 208.968 221.849 209.108 221.217 209.108ZM221.217 207.92C221.569 207.92 221.897 207.836 222.201 207.668C222.513 207.5 222.765 207.248 222.957 206.912C223.149 206.576 223.245 206.168 223.245 205.688C223.245 205.208 223.153 204.804 222.969 204.476C222.785 204.14 222.541 203.888 222.237 203.72C221.933 203.552 221.605 203.468 221.253 203.468C220.901 203.468 220.573 203.552 220.269 203.72C219.973 203.888 219.737 204.14 219.561 204.476C219.385 204.804 219.297 205.208 219.297 205.688C219.297 206.4 219.477 206.952 219.837 207.344C220.205 207.728 220.665 207.92 221.217 207.92ZM227.37 200.12V209H226.002V200.12H227.37ZM235.154 202.388V209H233.786V208.22C233.57 208.492 233.286 208.708 232.934 208.868C232.59 209.02 232.222 209.096 231.83 209.096C231.31 209.096 230.842 208.988 230.426 208.772C230.018 208.556 229.694 208.236 229.454 207.812C229.222 207.388 229.106 206.876 229.106 206.276V202.388H230.462V206.072C230.462 206.664 230.61 207.12 230.906 207.44C231.202 207.752 231.606 207.908 232.118 207.908C232.63 207.908 233.034 207.752 233.33 207.44C233.634 207.12 233.786 206.664 233.786 206.072V202.388H235.154ZM244.963 202.28C245.483 202.28 245.947 202.388 246.355 202.604C246.771 202.82 247.095 203.14 247.327 203.564C247.567 203.988 247.687 204.5 247.687 205.1V209H246.331V205.304C246.331 204.712 246.183 204.26 245.887 203.948C245.591 203.628 245.187 203.468 244.675 203.468C244.163 203.468 243.755 203.628 243.451 203.948C243.155 204.26 243.007 204.712 243.007 205.304V209H241.651V205.304C241.651 204.712 241.503 204.26 241.207 203.948C240.911 203.628 240.507 203.468 239.995 203.468C239.483 203.468 239.075 203.628 238.771 203.948C238.475 204.26 238.327 204.712 238.327 205.304V209H236.959V202.388H238.327V203.144C238.551 202.872 238.835 202.66 239.179 202.508C239.523 202.356 239.891 202.28 240.283 202.28C240.811 202.28 241.283 202.392 241.699 202.616C242.115 202.84 242.435 203.164 242.659 203.588C242.859 203.188 243.171 202.872 243.595 202.64C244.019 202.4 244.475 202.28 244.963 202.28ZM255.487 205.532C255.487 205.78 255.471 206.004 255.439 206.204H250.387C250.427 206.732 250.623 207.156 250.975 207.476C251.327 207.796 251.759 207.956 252.271 207.956C253.007 207.956 253.527 207.648 253.831 207.032H255.307C255.107 207.64 254.743 208.14 254.215 208.532C253.695 208.916 253.047 209.108 252.271 209.108C251.639 209.108 251.071 208.968 250.567 208.688C250.071 208.4 249.679 208 249.391 207.488C249.111 206.968 248.971 206.368 248.971 205.688C248.971 205.008 249.107 204.412 249.379 203.9C249.659 203.38 250.047 202.98 250.543 202.7C251.047 202.42 251.623 202.28 252.271 202.28C252.895 202.28 253.451 202.416 253.939 202.688C254.427 202.96 254.807 203.344 255.079 203.84C255.351 204.328 255.487 204.892 255.487 205.532ZM254.059 205.1C254.051 204.596 253.871 204.192 253.519 203.888C253.167 203.584 252.731 203.432 252.211 203.432C251.739 203.432 251.335 203.584 250.999 203.888C250.663 204.184 250.463 204.588 250.399 205.1H254.059Z" fill="black"/>
<rect x="165" y="225" width="300" height="20" rx="10" fill="black" fill-opacity="0.1"/>
</svg>
