<svg width="254" height="72" viewBox="0 0 254 72" fill="none" xmlns="http://www.w3.org/2000/svg">
<path d="M15.0295 53.336C12.7895 53.336 10.7735 52.952 8.9815 52.184C7.1895 51.384 5.7815 50.264 4.7575 48.824C3.7335 47.384 3.2215 45.704 3.2215 43.784H9.0775C9.2055 45.224 9.7655 46.408 10.7575 47.336C11.7815 48.264 13.2055 48.728 15.0295 48.728C16.9175 48.728 18.3895 48.28 19.4455 47.384C20.5015 46.456 21.0295 45.272 21.0295 43.832C21.0295 42.712 20.6935 41.8 20.0215 41.096C19.3815 40.392 18.5655 39.848 17.5735 39.464C16.6135 39.08 15.2695 38.664 13.5415 38.216C11.3655 37.64 9.5895 37.064 8.2135 36.488C6.8695 35.88 5.7175 34.952 4.7575 33.704C3.7975 32.456 3.3175 30.792 3.3175 28.712C3.3175 26.792 3.7975 25.112 4.7575 23.672C5.7175 22.232 7.0615 21.128 8.7895 20.36C10.5175 19.592 12.5175 19.208 14.7895 19.208C18.0215 19.208 20.6615 20.024 22.7095 21.656C24.7895 23.256 25.9415 25.464 26.1655 28.28H20.1175C20.0215 27.064 19.4455 26.024 18.3895 25.16C17.3335 24.296 15.9415 23.864 14.2135 23.864C12.6455 23.864 11.3655 24.264 10.3735 25.064C9.3815 25.864 8.8855 27.016 8.8855 28.52C8.8855 29.544 9.1895 30.392 9.7975 31.064C10.4375 31.704 11.2375 32.216 12.1975 32.6C13.1575 32.984 14.4695 33.4 16.1335 33.848C18.3415 34.456 20.1335 35.064 21.5095 35.672C22.9175 36.28 24.1015 37.224 25.0615 38.504C26.0535 39.752 26.5495 41.432 26.5495 43.544C26.5495 45.24 26.0855 46.84 25.1575 48.344C24.2615 49.848 22.9335 51.064 21.1735 51.992C19.4455 52.888 17.3975 53.336 15.0295 53.336ZM31.1823 39.752C31.1823 37.032 31.7263 34.648 32.8143 32.6C33.9343 30.52 35.4703 28.92 37.4223 27.8C39.3743 26.68 41.6143 26.12 44.1423 26.12C47.3423 26.12 49.9823 26.888 52.0623 28.424C54.1743 29.928 55.5983 32.088 56.3343 34.904H50.4303C49.9503 33.592 49.1823 32.568 48.1263 31.832C47.0703 31.096 45.7423 30.728 44.1423 30.728C41.9023 30.728 40.1103 31.528 38.7663 33.128C37.4543 34.696 36.7983 36.904 36.7983 39.752C36.7983 42.6 37.4543 44.824 38.7663 46.424C40.1103 48.024 41.9023 48.824 44.1423 48.824C47.3103 48.824 49.4063 47.432 50.4303 44.648H56.3343C55.5663 47.336 54.1263 49.48 52.0143 51.08C49.9023 52.648 47.2783 53.432 44.1423 53.432C41.6143 53.432 39.3743 52.872 37.4223 51.752C35.4703 50.6 33.9343 49 32.8143 46.952C31.7263 44.872 31.1823 42.472 31.1823 39.752ZM67.2595 30.392C68.0595 29.048 69.1155 28.008 70.4275 27.272C71.7715 26.504 73.3555 26.12 75.1795 26.12V31.784H73.7875C71.6435 31.784 70.0115 32.328 68.8915 33.416C67.8035 34.504 67.2595 36.392 67.2595 39.08V53H61.7875V26.552H67.2595V30.392ZM78.3854 39.656C78.3854 37 78.9294 34.648 80.0174 32.6C81.1374 30.552 82.6414 28.968 84.5294 27.848C86.4494 26.696 88.5614 26.12 90.8654 26.12C92.9454 26.12 94.7534 26.536 96.2894 27.368C97.8574 28.168 99.1054 29.176 100.033 30.392V26.552H105.553V53H100.033V49.064C99.1054 50.312 97.8414 51.352 96.2414 52.184C94.6414 53.016 92.8174 53.432 90.7694 53.432C88.4974 53.432 86.4174 52.856 84.5294 51.704C82.6414 50.52 81.1374 48.888 80.0174 46.808C78.9294 44.696 78.3854 42.312 78.3854 39.656ZM100.033 39.752C100.033 37.928 99.6494 36.344 98.8814 35C98.1454 33.656 97.1694 32.632 95.9534 31.928C94.7374 31.224 93.4254 30.872 92.0174 30.872C90.6094 30.872 89.2974 31.224 88.0814 31.928C86.8654 32.6 85.8734 33.608 85.1054 34.952C84.3694 36.264 84.0014 37.832 84.0014 39.656C84.0014 41.48 84.3694 43.08 85.1054 44.456C85.8734 45.832 86.8654 46.888 88.0814 47.624C89.3294 48.328 90.6414 48.68 92.0174 48.68C93.4254 48.68 94.7374 48.328 95.9534 47.624C97.1694 46.92 98.1454 45.896 98.8814 44.552C99.6494 43.176 100.033 41.576 100.033 39.752ZM119.125 31.016V45.656C119.125 46.648 119.349 47.368 119.797 47.816C120.277 48.232 121.077 48.44 122.197 48.44H125.557V53H121.237C118.773 53 116.885 52.424 115.573 51.272C114.261 50.12 113.605 48.248 113.605 45.656V31.016H110.485V26.552H113.605V19.976H119.125V26.552H125.557V31.016H119.125ZM128.776 39.752C128.776 37.032 129.32 34.648 130.408 32.6C131.528 30.52 133.064 28.92 135.016 27.8C136.968 26.68 139.208 26.12 141.736 26.12C144.936 26.12 147.576 26.888 149.656 28.424C151.768 29.928 153.192 32.088 153.928 34.904H148.024C147.544 33.592 146.776 32.568 145.72 31.832C144.664 31.096 143.336 30.728 141.736 30.728C139.496 30.728 137.704 31.528 136.36 33.128C135.048 34.696 134.392 36.904 134.392 39.752C134.392 42.6 135.048 44.824 136.36 46.424C137.704 48.024 139.496 48.824 141.736 48.824C144.904 48.824 147 47.432 148.024 44.648H153.928C153.16 47.336 151.72 49.48 149.608 51.08C147.496 52.648 144.872 53.432 141.736 53.432C139.208 53.432 136.968 52.872 135.016 51.752C133.064 50.6 131.528 49 130.408 46.952C129.32 44.872 128.776 42.472 128.776 39.752ZM173.061 26.12C175.077 26.12 176.869 26.552 178.437 27.416C180.037 28.28 181.285 29.56 182.181 31.256C183.109 32.952 183.573 35 183.573 37.4V53H178.149V38.216C178.149 35.848 177.557 34.04 176.373 32.792C175.189 31.512 173.573 30.872 171.525 30.872C169.477 30.872 167.845 31.512 166.629 32.792C165.445 34.04 164.853 35.848 164.853 38.216V53H159.381V17.48H164.853V29.624C165.781 28.504 166.949 27.64 168.357 27.032C169.797 26.424 171.365 26.12 173.061 26.12ZM205.769 53.336C202.665 53.336 199.801 52.616 197.177 51.176C194.585 49.704 192.521 47.672 190.985 45.08C189.481 42.456 188.729 39.512 188.729 36.248C188.729 32.984 189.481 30.056 190.985 27.464C192.521 24.872 194.585 22.856 197.177 21.416C199.801 19.944 202.665 19.208 205.769 19.208C208.905 19.208 211.769 19.944 214.361 21.416C216.985 22.856 219.049 24.872 220.553 27.464C222.057 30.056 222.809 32.984 222.809 36.248C222.809 39.512 222.057 42.456 220.553 45.08C219.049 47.672 216.985 49.704 214.361 51.176C211.769 52.616 208.905 53.336 205.769 53.336ZM205.769 48.584C207.977 48.584 209.945 48.088 211.673 47.096C213.401 46.072 214.745 44.632 215.705 42.776C216.697 40.888 217.193 38.712 217.193 36.248C217.193 33.784 216.697 31.624 215.705 29.768C214.745 27.912 213.401 26.488 211.673 25.496C209.945 24.504 207.977 24.008 205.769 24.008C203.561 24.008 201.593 24.504 199.865 25.496C198.137 26.488 196.777 27.912 195.785 29.768C194.825 31.624 194.345 33.784 194.345 36.248C194.345 38.712 194.825 40.888 195.785 42.776C196.777 44.632 198.137 46.072 199.865 47.096C201.593 48.088 203.561 48.584 205.769 48.584ZM239.186 53.336C236.946 53.336 234.93 52.952 233.138 52.184C231.346 51.384 229.938 50.264 228.914 48.824C227.89 47.384 227.378 45.704 227.378 43.784H233.234C233.362 45.224 233.922 46.408 234.914 47.336C235.938 48.264 237.362 48.728 239.186 48.728C241.074 48.728 242.546 48.28 243.602 47.384C244.658 46.456 245.186 45.272 245.186 43.832C245.186 42.712 244.85 41.8 244.178 41.096C243.538 40.392 242.722 39.848 241.73 39.464C240.77 39.08 239.426 38.664 237.698 38.216C235.522 37.64 233.746 37.064 232.37 36.488C231.026 35.88 229.874 34.952 228.914 33.704C227.954 32.456 227.474 30.792 227.474 28.712C227.474 26.792 227.954 25.112 228.914 23.672C229.874 22.232 231.218 21.128 232.946 20.36C234.674 19.592 236.674 19.208 238.946 19.208C242.178 19.208 244.818 20.024 246.866 21.656C248.946 23.256 250.098 25.464 250.322 28.28H244.274C244.178 27.064 243.602 26.024 242.546 25.16C241.49 24.296 240.098 23.864 238.37 23.864C236.802 23.864 235.522 24.264 234.53 25.064C233.538 25.864 233.042 27.016 233.042 28.52C233.042 29.544 233.346 30.392 233.954 31.064C234.594 31.704 235.394 32.216 236.354 32.6C237.314 32.984 238.626 33.4 240.29 33.848C242.498 34.456 244.29 35.064 245.666 35.672C247.074 36.28 248.258 37.224 249.218 38.504C250.21 39.752 250.706 41.432 250.706 43.544C250.706 45.24 250.242 46.84 249.314 48.344C248.418 49.848 247.09 51.064 245.33 51.992C243.602 52.888 241.554 53.336 239.186 53.336Z" fill="white"/>
</svg>
