<svg width="240" height="50" viewBox="0 0 240 50" fill="none" xmlns="http://www.w3.org/2000/svg">
<path d="M3.648 22.084C3.088 22.084 2.584 21.988 2.136 21.796C1.688 21.596 1.336 21.316 1.08 20.956C0.824 20.596 0.696 20.176 0.696 19.696H2.16C2.192 20.056 2.332 20.352 2.58 20.584C2.836 20.816 3.192 20.932 3.648 20.932C4.12 20.932 4.488 20.82 4.752 20.596C5.016 20.364 5.148 20.068 5.148 19.708C5.148 19.428 5.064 19.2 4.896 19.024C4.736 18.848 4.532 18.712 4.284 18.616C4.044 18.52 3.708 18.416 3.276 18.304C2.732 18.16 2.288 18.016 1.944 17.872C1.608 17.72 1.32 17.488 1.08 17.176C0.84 16.864 0.72 16.448 0.72 15.928C0.72 15.448 0.84 15.028 1.08 14.668C1.32 14.308 1.656 14.032 2.088 13.84C2.52 13.648 3.02 13.552 3.588 13.552C4.396 13.552 5.056 13.756 5.568 14.164C6.088 14.564 6.376 15.116 6.432 15.82H4.92C4.896 15.516 4.752 15.256 4.488 15.04C4.224 14.824 3.876 14.716 3.444 14.716C3.052 14.716 2.732 14.816 2.484 15.016C2.236 15.216 2.112 15.504 2.112 15.88C2.112 16.136 2.188 16.348 2.34 16.516C2.5 16.676 2.7 16.804 2.94 16.9C3.18 16.996 3.508 17.1 3.924 17.212C4.476 17.364 4.924 17.516 5.268 17.668C5.62 17.82 5.916 18.056 6.156 18.376C6.404 18.688 6.528 19.108 6.528 19.636C6.528 20.06 6.412 20.46 6.18 20.836C5.956 21.212 5.624 21.516 5.184 21.748C4.752 21.972 4.24 22.084 3.648 22.084ZM9.73819 16.504V20.164C9.73819 20.412 9.79419 20.592 9.90619 20.704C10.0262 20.808 10.2262 20.86 10.5062 20.86H11.3462V22H10.2662C9.65019 22 9.17819 21.856 8.85019 21.568C8.52219 21.28 8.35819 20.812 8.35819 20.164V16.504H7.57819V15.388H8.35819V13.744H9.73819V15.388H11.3462V16.504H9.73819ZM15.475 22.108C14.851 22.108 14.287 21.968 13.783 21.688C13.279 21.4 12.883 21 12.595 20.488C12.307 19.968 12.163 19.368 12.163 18.688C12.163 18.016 12.311 17.42 12.607 16.9C12.903 16.38 13.307 15.98 13.819 15.7C14.331 15.42 14.903 15.28 15.535 15.28C16.167 15.28 16.739 15.42 17.251 15.7C17.763 15.98 18.167 16.38 18.463 16.9C18.759 17.42 18.907 18.016 18.907 18.688C18.907 19.36 18.755 19.956 18.451 20.476C18.147 20.996 17.731 21.4 17.203 21.688C16.683 21.968 16.107 22.108 15.475 22.108ZM15.475 20.92C15.827 20.92 16.155 20.836 16.459 20.668C16.771 20.5 17.023 20.248 17.215 19.912C17.407 19.576 17.503 19.168 17.503 18.688C17.503 18.208 17.411 17.804 17.227 17.476C17.043 17.14 16.799 16.888 16.495 16.72C16.191 16.552 15.863 16.468 15.511 16.468C15.159 16.468 14.831 16.552 14.527 16.72C14.231 16.888 13.995 17.14 13.819 17.476C13.643 17.804 13.555 18.208 13.555 18.688C13.555 19.4 13.735 19.952 14.095 20.344C14.463 20.728 14.923 20.92 15.475 20.92ZM21.6274 16.348C21.8274 16.012 22.0914 15.752 22.4194 15.568C22.7554 15.376 23.1514 15.28 23.6074 15.28V16.696H23.2594C22.7234 16.696 22.3154 16.832 22.0354 17.104C21.7634 17.376 21.6274 17.848 21.6274 18.52V22H20.2594V15.388H21.6274V16.348ZM30.8168 15.388L26.7608 25.108H25.3448L26.6888 21.892L24.0848 15.388H25.6088L27.4688 20.428L29.4008 15.388H30.8168ZM33.4452 16.504V20.164C33.4452 20.412 33.5012 20.592 33.6132 20.704C33.7332 20.808 33.9332 20.86 34.2132 20.86H35.0532V22H33.9732C33.3572 22 32.8852 21.856 32.5572 21.568C32.2292 21.28 32.0652 20.812 32.0652 20.164V16.504H31.2852V15.388H32.0652V13.744H33.4452V15.388H35.0532V16.504H33.4452ZM37.0101 14.512C36.7621 14.512 36.5541 14.428 36.3861 14.26C36.2181 14.092 36.1341 13.884 36.1341 13.636C36.1341 13.388 36.2181 13.18 36.3861 13.012C36.5541 12.844 36.7621 12.76 37.0101 12.76C37.2501 12.76 37.4541 12.844 37.6221 13.012C37.7901 13.18 37.8741 13.388 37.8741 13.636C37.8741 13.884 37.7901 14.092 37.6221 14.26C37.4541 14.428 37.2501 14.512 37.0101 14.512ZM37.6821 15.388V22H36.3141V15.388H37.6821ZM47.4821 15.28C48.0021 15.28 48.4661 15.388 48.8741 15.604C49.2901 15.82 49.6141 16.14 49.8461 16.564C50.0861 16.988 50.2061 17.5 50.2061 18.1V22H48.8501V18.304C48.8501 17.712 48.7021 17.26 48.4061 16.948C48.1101 16.628 47.7061 16.468 47.1941 16.468C46.6821 16.468 46.2741 16.628 45.9701 16.948C45.6741 17.26 45.5261 17.712 45.5261 18.304V22H44.1701V18.304C44.1701 17.712 44.0221 17.26 43.7261 16.948C43.4301 16.628 43.0261 16.468 42.5141 16.468C42.0021 16.468 41.5941 16.628 41.2901 16.948C40.9941 17.26 40.8461 17.712 40.8461 18.304V22H39.4781V15.388H40.8461V16.144C41.0701 15.872 41.3541 15.66 41.6981 15.508C42.0421 15.356 42.4101 15.28 42.8021 15.28C43.3301 15.28 43.8021 15.392 44.2181 15.616C44.6341 15.84 44.9541 16.164 45.1781 16.588C45.3781 16.188 45.6901 15.872 46.1141 15.64C46.5381 15.4 46.9941 15.28 47.4821 15.28ZM58.0069 18.532C58.0069 18.78 57.9909 19.004 57.9589 19.204H52.9069C52.9469 19.732 53.1429 20.156 53.4949 20.476C53.8469 20.796 54.2789 20.956 54.7909 20.956C55.5269 20.956 56.0469 20.648 56.3509 20.032H57.8269C57.6269 20.64 57.2629 21.14 56.7349 21.532C56.2149 21.916 55.5669 22.108 54.7909 22.108C54.1589 22.108 53.5909 21.968 53.0869 21.688C52.5909 21.4 52.1989 21 51.9109 20.488C51.6309 19.968 51.4909 19.368 51.4909 18.688C51.4909 18.008 51.6269 17.412 51.8989 16.9C52.1789 16.38 52.5669 15.98 53.0629 15.7C53.5669 15.42 54.1429 15.28 54.7909 15.28C55.4149 15.28 55.9709 15.416 56.4589 15.688C56.9469 15.96 57.3269 16.344 57.5989 16.84C57.8709 17.328 58.0069 17.892 58.0069 18.532ZM56.5789 18.1C56.5709 17.596 56.3909 17.192 56.0389 16.888C55.6869 16.584 55.2509 16.432 54.7309 16.432C54.2589 16.432 53.8549 16.584 53.5189 16.888C53.1829 17.184 52.9829 17.588 52.9189 18.1H56.5789Z" fill="white"/>
<path d="M8.07 31.05V38H6.93V33.24L4.81 38H4.02L1.89 33.24V38H0.75V31.05H1.98L4.42 36.5L6.85 31.05H8.07ZM14.5284 32.49L11.1484 40.59H9.96836L11.0884 37.91L8.91836 32.49H10.1884L11.7384 36.69L13.3484 32.49H14.5284ZM20.3787 32.49V38H19.2387V37.35C19.0587 37.5767 18.822 37.7567 18.5287 37.89C18.242 38.0167 17.9353 38.08 17.6087 38.08C17.1753 38.08 16.7853 37.99 16.4387 37.81C16.0987 37.63 15.8287 37.3633 15.6287 37.01C15.4353 36.6567 15.3387 36.23 15.3387 35.73V32.49H16.4687V35.56C16.4687 36.0533 16.592 36.4333 16.8387 36.7C17.0853 36.96 17.422 37.09 17.8487 37.09C18.2753 37.09 18.612 36.96 18.8587 36.7C19.112 36.4333 19.2387 36.0533 19.2387 35.56V32.49H20.3787ZM26.8728 32.49V38H25.7328V37.35C25.5528 37.5767 25.3161 37.7567 25.0228 37.89C24.7361 38.0167 24.4295 38.08 24.1028 38.08C23.6695 38.08 23.2795 37.99 22.9328 37.81C22.5928 37.63 22.3228 37.3633 22.1228 37.01C21.9295 36.6567 21.8328 36.23 21.8328 35.73V32.49H22.9628V35.56C22.9628 36.0533 23.0861 36.4333 23.3328 36.7C23.5795 36.96 23.9161 37.09 24.3428 37.09C24.7695 37.09 25.1061 36.96 25.3528 36.7C25.6061 36.4333 25.7328 36.0533 25.7328 35.56V32.49H26.8728Z" fill="#808080"/>
</svg>
