<svg xmlns="http://www.w3.org/2000/svg" fill="none" viewBox="0 0 30 30" height="30" width="30">
<rect fill="#191919" rx="15" height="30" width="30"></rect>
<path fill="white" d="M13.1089 13.4C13.0355 13.0933 12.9022 12.8633 12.7089 12.71C12.5155 12.5567 12.2455 12.48 11.8989 12.48C11.3722 12.48 10.9789 12.6833 10.7189 13.09C10.4589 13.49 10.3222 14.1567 10.3089 15.09C10.4822 14.7967 10.7355 14.57 11.0689 14.41C11.4022 14.25 11.7622 14.17 12.1489 14.17C12.5889 14.17 12.9755 14.2667 13.3089 14.46C13.6489 14.6467 13.9122 14.92 14.0989 15.28C14.2922 15.64 14.3889 16.07 14.3889 16.57C14.3889 17.0367 14.2955 17.4533 14.1089 17.82C13.9289 18.1867 13.6589 18.4767 13.2989 18.69C12.9389 18.8967 12.5055 19 11.9989 19C11.3122 19 10.7722 18.85 10.3789 18.55C9.9922 18.2433 9.71887 17.8133 9.55887 17.26C9.40553 16.7067 9.32887 16.0167 9.32887 15.19C9.32887 12.75 10.1889 11.53 11.9089 11.53C12.5755 11.53 13.0989 11.71 13.4789 12.07C13.8655 12.43 14.0922 12.8733 14.1589 13.4H13.1089ZM11.8989 15.13C11.4922 15.13 11.1455 15.2533 10.8589 15.5C10.5789 15.74 10.4389 16.09 10.4389 16.55C10.4389 17.01 10.5689 17.3767 10.8289 17.65C11.0955 17.9167 11.4655 18.05 11.9389 18.05C12.3589 18.05 12.6889 17.92 12.9289 17.66C13.1755 17.4 13.2989 17.0533 13.2989 16.62C13.2989 16.1667 13.1789 15.8067 12.9389 15.54C12.7055 15.2667 12.3589 15.13 11.8989 15.13ZM15.6049 15.26C15.6049 14.1067 15.7982 13.2067 16.1849 12.56C16.5782 11.9067 17.2515 11.58 18.2049 11.58C19.1582 11.58 19.8282 11.9067 20.2149 12.56C20.6082 13.2067 20.8049 14.1067 20.8049 15.26C20.8049 16.4267 20.6082 17.34 20.2149 18C19.8282 18.6533 19.1582 18.98 18.2049 18.98C17.2515 18.98 16.5782 18.6533 16.1849 18C15.7982 17.34 15.6049 16.4267 15.6049 15.26ZM19.6849 15.26C19.6849 14.72 19.6482 14.2633 19.5749 13.89C19.5082 13.5167 19.3682 13.2133 19.1549 12.98C18.9415 12.74 18.6249 12.62 18.2049 12.62C17.7849 12.62 17.4682 12.74 17.2549 12.98C17.0415 13.2133 16.8982 13.5167 16.8249 13.89C16.7582 14.2633 16.7249 14.72 16.7249 15.26C16.7249 15.82 16.7582 16.29 16.8249 16.67C16.8915 17.05 17.0315 17.3567 17.2449 17.59C17.4649 17.8233 17.7849 17.94 18.2049 17.94C18.6249 17.94 18.9415 17.8233 19.1549 17.59C19.3749 17.3567 19.5182 17.05 19.5849 16.67C19.6515 16.29 19.6849 15.82 19.6849 15.26Z"></path>
</svg>
