<svg width="480" height="360" viewBox="0 0 480 360" fill="none" xmlns="http://www.w3.org/2000/svg">
<rect x="160" y="140" width="310" height="30" rx="15" fill="black" fill-opacity="0.1"/>
<path d="M277.184 150.66V155.976C277.184 156.608 277.348 157.084 277.676 157.404C278.012 157.724 278.476 157.884 279.068 157.884C279.668 157.884 280.132 157.724 280.46 157.404C280.796 157.084 280.964 156.608 280.964 155.976V150.66H282.332V155.952C282.332 156.632 282.184 157.208 281.888 157.68C281.592 158.152 281.196 158.504 280.7 158.736C280.204 158.968 279.656 159.084 279.056 159.084C278.456 159.084 277.908 158.968 277.412 158.736C276.924 158.504 276.536 158.152 276.248 157.68C275.96 157.208 275.816 156.632 275.816 155.952V150.66H277.184ZM287.449 152.28C287.969 152.28 288.433 152.388 288.841 152.604C289.257 152.82 289.581 153.14 289.813 153.564C290.045 153.988 290.161 154.5 290.161 155.1V159H288.805V155.304C288.805 154.712 288.657 154.26 288.361 153.948C288.065 153.628 287.661 153.468 287.149 153.468C286.637 153.468 286.229 153.628 285.925 153.948C285.629 154.26 285.481 154.712 285.481 155.304V159H284.113V152.388H285.481V153.144C285.705 152.872 285.989 152.66 286.333 152.508C286.685 152.356 287.057 152.28 287.449 152.28ZM292.602 151.512C292.354 151.512 292.146 151.428 291.978 151.26C291.81 151.092 291.726 150.884 291.726 150.636C291.726 150.388 291.81 150.18 291.978 150.012C292.146 149.844 292.354 149.76 292.602 149.76C292.842 149.76 293.046 149.844 293.214 150.012C293.382 150.18 293.466 150.388 293.466 150.636C293.466 150.884 293.382 151.092 293.214 151.26C293.046 151.428 292.842 151.512 292.602 151.512ZM293.274 152.388V159H291.906V152.388H293.274ZM298.406 152.28C298.926 152.28 299.39 152.388 299.798 152.604C300.214 152.82 300.538 153.14 300.77 153.564C301.002 153.988 301.118 154.5 301.118 155.1V159H299.762V155.304C299.762 154.712 299.614 154.26 299.318 153.948C299.022 153.628 298.618 153.468 298.106 153.468C297.594 153.468 297.186 153.628 296.882 153.948C296.586 154.26 296.438 154.712 296.438 155.304V159H295.07V152.388H296.438V153.144C296.662 152.872 296.946 152.66 297.29 152.508C297.642 152.356 298.014 152.28 298.406 152.28ZM305.263 159.108C304.743 159.108 304.275 159.016 303.859 158.832C303.451 158.64 303.127 158.384 302.887 158.064C302.647 157.736 302.519 157.372 302.503 156.972H303.919C303.943 157.252 304.075 157.488 304.315 157.68C304.563 157.864 304.871 157.956 305.239 157.956C305.623 157.956 305.919 157.884 306.127 157.74C306.343 157.588 306.451 157.396 306.451 157.164C306.451 156.916 306.331 156.732 306.091 156.612C305.859 156.492 305.487 156.36 304.975 156.216C304.479 156.08 304.075 155.948 303.763 155.82C303.451 155.692 303.179 155.496 302.947 155.232C302.723 154.968 302.611 154.62 302.611 154.188C302.611 153.836 302.715 153.516 302.923 153.228C303.131 152.932 303.427 152.7 303.811 152.532C304.203 152.364 304.651 152.28 305.155 152.28C305.907 152.28 306.511 152.472 306.967 152.856C307.431 153.232 307.679 153.748 307.711 154.404H306.343C306.319 154.108 306.199 153.872 305.983 153.696C305.767 153.52 305.475 153.432 305.107 153.432C304.747 153.432 304.471 153.5 304.279 153.636C304.087 153.772 303.991 153.952 303.991 154.176C303.991 154.352 304.055 154.5 304.183 154.62C304.311 154.74 304.467 154.836 304.651 154.908C304.835 154.972 305.107 155.056 305.467 155.16C305.947 155.288 306.339 155.42 306.643 155.556C306.955 155.684 307.223 155.876 307.447 156.132C307.671 156.388 307.787 156.728 307.795 157.152C307.795 157.528 307.691 157.864 307.483 158.16C307.275 158.456 306.979 158.688 306.595 158.856C306.219 159.024 305.775 159.108 305.263 159.108ZM310.869 153.504V157.164C310.869 157.412 310.925 157.592 311.037 157.704C311.157 157.808 311.357 157.86 311.637 157.86H312.477V159H311.397C310.781 159 310.309 158.856 309.981 158.568C309.653 158.28 309.489 157.812 309.489 157.164V153.504H308.709V152.388H309.489V150.744H310.869V152.388H312.477V153.504H310.869ZM313.282 155.664C313.282 155 313.418 154.412 313.69 153.9C313.97 153.388 314.346 152.992 314.818 152.712C315.298 152.424 315.826 152.28 316.402 152.28C316.922 152.28 317.374 152.384 317.758 152.592C318.15 152.792 318.462 153.044 318.694 153.348V152.388H320.074V159H318.694V158.016C318.462 158.328 318.146 158.588 317.746 158.796C317.346 159.004 316.89 159.108 316.378 159.108C315.81 159.108 315.29 158.964 314.818 158.676C314.346 158.38 313.97 157.972 313.69 157.452C313.418 156.924 313.282 156.328 313.282 155.664ZM318.694 155.688C318.694 155.232 318.598 154.836 318.406 154.5C318.222 154.164 317.978 153.908 317.674 153.732C317.37 153.556 317.042 153.468 316.69 153.468C316.338 153.468 316.01 153.556 315.706 153.732C315.402 153.9 315.154 154.152 314.962 154.488C314.778 154.816 314.686 155.208 314.686 155.664C314.686 156.12 314.778 156.52 314.962 156.864C315.154 157.208 315.402 157.472 315.706 157.656C316.018 157.832 316.346 157.92 316.69 157.92C317.042 157.92 317.37 157.832 317.674 157.656C317.978 157.48 318.222 157.224 318.406 156.888C318.598 156.544 318.694 156.144 318.694 155.688ZM323.239 150.12V159H321.871V150.12H323.239ZM326.403 150.12V159H325.035V150.12H326.403ZM328.895 151.512C328.647 151.512 328.439 151.428 328.271 151.26C328.103 151.092 328.019 150.884 328.019 150.636C328.019 150.388 328.103 150.18 328.271 150.012C328.439 149.844 328.647 149.76 328.895 149.76C329.135 149.76 329.339 149.844 329.507 150.012C329.675 150.18 329.759 150.388 329.759 150.636C329.759 150.884 329.675 151.092 329.507 151.26C329.339 151.428 329.135 151.512 328.895 151.512ZM329.567 152.388V159H328.199V152.388H329.567ZM334.699 152.28C335.219 152.28 335.683 152.388 336.091 152.604C336.507 152.82 336.831 153.14 337.063 153.564C337.295 153.988 337.411 154.5 337.411 155.1V159H336.055V155.304C336.055 154.712 335.907 154.26 335.611 153.948C335.315 153.628 334.911 153.468 334.399 153.468C333.887 153.468 333.479 153.628 333.175 153.948C332.879 154.26 332.731 154.712 332.731 155.304V159H331.363V152.388H332.731V153.144C332.955 152.872 333.239 152.66 333.583 152.508C333.935 152.356 334.307 152.28 334.699 152.28ZM341.82 152.28C342.332 152.28 342.784 152.384 343.176 152.592C343.576 152.792 343.888 153.044 344.112 153.348V152.388H345.492V159.108C345.492 159.716 345.364 160.256 345.108 160.728C344.852 161.208 344.48 161.584 343.992 161.856C343.512 162.128 342.936 162.264 342.264 162.264C341.368 162.264 340.624 162.052 340.032 161.628C339.44 161.212 339.104 160.644 339.024 159.924H340.38C340.484 160.268 340.704 160.544 341.04 160.752C341.384 160.968 341.792 161.076 342.264 161.076C342.816 161.076 343.26 160.908 343.596 160.572C343.94 160.236 344.112 159.748 344.112 159.108V158.004C343.88 158.316 343.564 158.58 343.164 158.796C342.772 159.004 342.324 159.108 341.82 159.108C341.244 159.108 340.716 158.964 340.236 158.676C339.764 158.38 339.388 157.972 339.108 157.452C338.836 156.924 338.7 156.328 338.7 155.664C338.7 155 338.836 154.412 339.108 153.9C339.388 153.388 339.764 152.992 340.236 152.712C340.716 152.424 341.244 152.28 341.82 152.28ZM344.112 155.688C344.112 155.232 344.016 154.836 343.824 154.5C343.64 154.164 343.396 153.908 343.092 153.732C342.788 153.556 342.46 153.468 342.108 153.468C341.756 153.468 341.428 153.556 341.124 153.732C340.82 153.9 340.572 154.152 340.38 154.488C340.196 154.816 340.104 155.208 340.104 155.664C340.104 156.12 340.196 156.52 340.38 156.864C340.572 157.208 340.82 157.472 341.124 157.656C341.436 157.832 341.764 157.92 342.108 157.92C342.46 157.92 342.788 157.832 343.092 157.656C343.396 157.48 343.64 157.224 343.824 156.888C344.016 156.544 344.112 156.144 344.112 155.688ZM347.841 159.084C347.593 159.084 347.385 159 347.217 158.832C347.049 158.664 346.965 158.456 346.965 158.208C346.965 157.96 347.049 157.752 347.217 157.584C347.385 157.416 347.593 157.332 347.841 157.332C348.081 157.332 348.285 157.416 348.453 157.584C348.621 157.752 348.705 157.96 348.705 158.208C348.705 158.456 348.621 158.664 348.453 158.832C348.285 159 348.081 159.084 347.841 159.084ZM350.735 159.084C350.487 159.084 350.279 159 350.111 158.832C349.943 158.664 349.859 158.456 349.859 158.208C349.859 157.96 349.943 157.752 350.111 157.584C350.279 157.416 350.487 157.332 350.735 157.332C350.975 157.332 351.179 157.416 351.347 157.584C351.515 157.752 351.599 157.96 351.599 158.208C351.599 158.456 351.515 158.664 351.347 158.832C351.179 159 350.975 159.084 350.735 159.084ZM353.63 159.084C353.382 159.084 353.174 159 353.006 158.832C352.838 158.664 352.754 158.456 352.754 158.208C352.754 157.96 352.838 157.752 353.006 157.584C353.174 157.416 353.382 157.332 353.63 157.332C353.87 157.332 354.074 157.416 354.242 157.584C354.41 157.752 354.494 157.96 354.494 158.208C354.494 158.456 354.41 158.664 354.242 158.832C354.074 159 353.87 159.084 353.63 159.084Z" fill="black"/>
</svg>
