<svg width="240" height="50" viewBox="0 0 240 50" fill="none" xmlns="http://www.w3.org/2000/svg">
<path d="M6.936 16.06C6.72 15.644 6.42 15.332 6.036 15.124C5.652 14.908 5.208 14.8 4.704 14.8C4.152 14.8 3.66 14.924 3.228 15.172C2.796 15.42 2.456 15.772 2.208 16.228C1.968 16.684 1.848 17.212 1.848 17.812C1.848 18.412 1.968 18.944 2.208 19.408C2.456 19.864 2.796 20.216 3.228 20.464C3.66 20.712 4.152 20.836 4.704 20.836C5.448 20.836 6.052 20.628 6.516 20.212C6.98 19.796 7.264 19.232 7.368 18.52H4.236V17.428H8.832V18.496C8.744 19.144 8.512 19.74 8.136 20.284C7.768 20.828 7.284 21.264 6.684 21.592C6.092 21.912 5.432 22.072 4.704 22.072C3.92 22.072 3.204 21.892 2.556 21.532C1.908 21.164 1.392 20.656 1.008 20.008C0.632 19.36 0.444 18.628 0.444 17.812C0.444 16.996 0.632 16.264 1.008 15.616C1.392 14.968 1.908 14.464 2.556 14.104C3.212 13.736 3.928 13.552 4.704 13.552C5.592 13.552 6.38 13.772 7.068 14.212C7.764 14.644 8.268 15.26 8.58 16.06H6.936ZM11.5493 13.12V22H10.1813V13.12H11.5493ZM16.2133 22.108C15.5893 22.108 15.0253 21.968 14.5213 21.688C14.0173 21.4 13.6213 21 13.3333 20.488C13.0453 19.968 12.9013 19.368 12.9013 18.688C12.9013 18.016 13.0493 17.42 13.3453 16.9C13.6413 16.38 14.0453 15.98 14.5573 15.7C15.0693 15.42 15.6413 15.28 16.2733 15.28C16.9053 15.28 17.4773 15.42 17.9893 15.7C18.5013 15.98 18.9053 16.38 19.2013 16.9C19.4973 17.42 19.6453 18.016 19.6453 18.688C19.6453 19.36 19.4933 19.956 19.1893 20.476C18.8853 20.996 18.4693 21.4 17.9413 21.688C17.4213 21.968 16.8453 22.108 16.2133 22.108ZM16.2133 20.92C16.5653 20.92 16.8933 20.836 17.1973 20.668C17.5093 20.5 17.7613 20.248 17.9533 19.912C18.1453 19.576 18.2413 19.168 18.2413 18.688C18.2413 18.208 18.1493 17.804 17.9653 17.476C17.7813 17.14 17.5373 16.888 17.2333 16.72C16.9293 16.552 16.6013 16.468 16.2493 16.468C15.8973 16.468 15.5693 16.552 15.2653 16.72C14.9693 16.888 14.7333 17.14 14.5573 17.476C14.3813 17.804 14.2933 18.208 14.2933 18.688C14.2933 19.4 14.4733 19.952 14.8333 20.344C15.2013 20.728 15.6613 20.92 16.2133 20.92ZM29.8777 15.388L27.8257 22H26.3857L25.0537 17.116L23.7217 22H22.2817L20.2177 15.388H21.6097L22.9897 20.704L24.3937 15.388H25.8217L27.1657 20.68L28.5337 15.388H29.8777Z" fill="black"/>
<path d="M1.89 37.08H4.24V38H0.75V31.05H1.89V37.08ZM5.77336 31.76C5.56669 31.76 5.39336 31.69 5.25336 31.55C5.11336 31.41 5.04336 31.2367 5.04336 31.03C5.04336 30.8233 5.11336 30.65 5.25336 30.51C5.39336 30.37 5.56669 30.3 5.77336 30.3C5.97336 30.3 6.14336 30.37 6.28336 30.51C6.42336 30.65 6.49336 30.8233 6.49336 31.03C6.49336 31.2367 6.42336 31.41 6.28336 31.55C6.14336 31.69 5.97336 31.76 5.77336 31.76ZM6.33336 32.49V38H5.19336V32.49H6.33336ZM13.2101 39.26L11.9901 37.94C11.6901 38.0267 11.3601 38.07 11.0001 38.07C10.3534 38.07 9.75674 37.92 9.21008 37.62C8.67008 37.3133 8.24008 36.89 7.92008 36.35C7.60674 35.8033 7.45008 35.19 7.45008 34.51C7.45008 33.83 7.60674 33.22 7.92008 32.68C8.24008 32.14 8.67008 31.72 9.21008 31.42C9.75674 31.1133 10.3534 30.96 11.0001 30.96C11.6534 30.96 12.2501 31.1133 12.7901 31.42C13.3367 31.72 13.7667 32.14 14.0801 32.68C14.3934 33.22 14.5501 33.83 14.5501 34.51C14.5501 35.15 14.4101 35.73 14.1301 36.25C13.8567 36.7633 13.4767 37.1767 12.9901 37.49L14.6601 39.26H13.2101ZM8.62008 34.51C8.62008 35.0233 8.72008 35.4767 8.92008 35.87C9.12674 36.2567 9.41008 36.5567 9.77008 36.77C10.1301 36.9767 10.5401 37.08 11.0001 37.08C11.4601 37.08 11.8701 36.9767 12.2301 36.77C12.5901 36.5567 12.8701 36.2567 13.0701 35.87C13.2767 35.4767 13.3801 35.0233 13.3801 34.51C13.3801 33.9967 13.2767 33.5467 13.0701 33.16C12.8701 32.7733 12.5901 32.4767 12.2301 32.27C11.8701 32.0633 11.4601 31.96 11.0001 31.96C10.5401 31.96 10.1301 32.0633 9.77008 32.27C9.41008 32.4767 9.12674 32.7733 8.92008 33.16C8.72008 33.5467 8.62008 33.9967 8.62008 34.51ZM24.7512 31.05L22.6912 38H21.4012L19.9412 32.74L18.3912 38L17.1112 38.01L15.1412 31.05H16.3512L17.7912 36.71L19.3512 31.05H20.6312L22.0812 36.68L23.5312 31.05H24.7512ZM30.8414 31.05L28.5414 35.48V38H27.4014V35.48L25.0914 31.05H26.3614L27.9714 34.46L29.5814 31.05H30.8414ZM34.0161 31.05C34.7561 31.05 35.4028 31.1933 35.9561 31.48C36.5161 31.76 36.9461 32.1667 37.2461 32.7C37.5528 33.2267 37.7061 33.8433 37.7061 34.55C37.7061 35.2567 37.5528 35.87 37.2461 36.39C36.9461 36.91 36.5161 37.31 35.9561 37.59C35.4028 37.8633 34.7561 38 34.0161 38H31.7461V31.05H34.0161ZM34.0161 37.07C34.8294 37.07 35.4528 36.85 35.8861 36.41C36.3194 35.97 36.5361 35.35 36.5361 34.55C36.5361 33.7433 36.3194 33.1133 35.8861 32.66C35.4528 32.2067 34.8294 31.98 34.0161 31.98H32.8861V37.07H34.0161Z" fill="#808080"/>
</svg>
