<svg xmlns="http://www.w3.org/2000/svg" fill="none" viewBox="0 0 60 80" height="80" width="60">
<path fill="#FF5A5A" d="M25.3043 52C24.8243 52 24.4043 51.82 24.0443 51.46C23.6843 51.1 23.5043 50.668 23.5043 50.164C23.5043 49.972 23.5283 49.792 23.5763 49.624C23.6483 49.432 23.7323 49.228 23.8283 49.012L34.1603 27.556H23.2163C22.6883 27.556 22.2443 27.388 21.8843 27.052C21.5483 26.692 21.3803 26.248 21.3803 25.72C21.3803 25.192 21.5483 24.76 21.8843 24.424C22.2443 24.064 22.6883 23.884 23.2163 23.884H36.9323C37.4363 23.884 37.8683 24.064 38.2283 24.424C38.5883 24.784 38.7683 25.216 38.7683 25.72C38.7683 25.888 38.7443 26.056 38.6963 26.224C38.6483 26.368 38.5883 26.524 38.5163 26.692L26.9963 50.992C26.6123 51.664 26.0483 52 25.3043 52Z"></path>
<path fill="#FF5A5A" d="M23.5763 49.624L22.6399 49.2729C22.6305 49.298 22.6221 49.3235 22.6147 49.3493L23.5763 49.624ZM23.8283 49.012L22.9273 48.5781C22.9229 48.5873 22.9186 48.5966 22.9144 48.6059L23.8283 49.012ZM34.1603 27.556L35.0612 27.9899C35.2104 27.68 35.19 27.3152 35.007 27.024C34.824 26.7327 34.5042 26.556 34.1603 26.556V27.556ZM21.8843 27.052L21.1532 27.7343C21.1689 27.7511 21.1851 27.7674 21.2019 27.7831L21.8843 27.052ZM21.8843 24.424L21.1771 23.7169L21.1771 23.7169L21.8843 24.424ZM38.2283 24.424L38.9354 23.7169L38.9354 23.7169L38.2283 24.424ZM38.6963 26.224L39.6449 26.5402C39.6495 26.5265 39.6538 26.5126 39.6578 26.4987L38.6963 26.224ZM38.5163 26.692L39.4199 27.1204C39.4253 27.109 39.4304 27.0975 39.4354 27.0859L38.5163 26.692ZM26.9963 50.992L27.8645 51.4881C27.8771 51.466 27.8889 51.4434 27.8999 51.4204L26.9963 50.992ZM25.3043 51C25.1068 51 24.9364 50.938 24.7514 50.7529L23.3371 52.1671C23.8721 52.702 24.5417 53 25.3043 53V51ZM24.7514 50.7529C24.5768 50.5783 24.5043 50.3998 24.5043 50.164H22.5043C22.5043 50.9362 22.7917 51.6217 23.3371 52.1671L24.7514 50.7529ZM24.5043 50.164C24.5043 50.0558 24.5177 49.969 24.5378 49.8987L22.6147 49.3493C22.5388 49.615 22.5043 49.8882 22.5043 50.164H24.5043ZM24.5126 49.9751C24.5767 49.8042 24.6529 49.6187 24.7421 49.4181L22.9144 48.6059C22.8116 48.8373 22.7198 49.0598 22.6399 49.2729L24.5126 49.9751ZM24.7292 49.4459L35.0612 27.9899L33.2593 27.1221L22.9273 48.5781L24.7292 49.4459ZM34.1603 26.556H23.2163V28.556H34.1603V26.556ZM23.2163 26.556C22.9215 26.556 22.7273 26.4709 22.5666 26.3209L21.2019 27.7831C21.7612 28.3051 22.455 28.556 23.2163 28.556V26.556ZM22.6153 26.3697C22.4653 26.209 22.3803 26.0147 22.3803 25.72H20.3803C20.3803 26.4813 20.6312 27.175 21.1532 27.7343L22.6153 26.3697ZM22.3803 25.72C22.3803 25.4249 22.4646 25.2579 22.5914 25.1311L21.1771 23.7169C20.6319 24.2621 20.3803 24.9591 20.3803 25.72H22.3803ZM22.5914 25.1311C22.7562 24.9663 22.9425 24.884 23.2163 24.884V22.884C22.434 22.884 21.7323 23.1617 21.1771 23.7169L22.5914 25.1311ZM23.2163 24.884H36.9323V22.884H23.2163V24.884ZM36.9323 24.884C37.168 24.884 37.3465 24.9565 37.5211 25.1311L38.9354 23.7169C38.39 23.1715 37.7045 22.884 36.9323 22.884V24.884ZM37.5211 25.1311C37.6957 25.3057 37.7683 25.4842 37.7683 25.72H39.7683C39.7683 24.9478 39.4808 24.2623 38.9354 23.7169L37.5211 25.1311ZM37.7683 25.72C37.7683 25.7914 37.7582 25.867 37.7347 25.9493L39.6578 26.4987C39.7303 26.245 39.7683 25.9846 39.7683 25.72H37.7683ZM37.7476 25.9078C37.7099 26.0208 37.6603 26.1506 37.5971 26.2981L39.4354 27.0859C39.5162 26.8974 39.5866 26.7152 39.6449 26.5402L37.7476 25.9078ZM37.6127 26.2636L26.0926 50.5636L27.8999 51.4204L39.4199 27.1204L37.6127 26.2636ZM26.128 50.4959C25.9132 50.8718 25.6719 51 25.3043 51V53C26.4246 53 27.3113 52.4562 27.8645 51.4881L26.128 50.4959Z"></path>
</svg>
