<svg width="250" height="28" viewBox="0 0 250 28" fill="none" xmlns="http://www.w3.org/2000/svg">
<rect width="250" height="28" rx="5" fill="#E6E6E6"/>
<path d="M13.56 8.66V9.6H12.55V18.91H13.56V19.86H11.48V8.66H13.56ZM17.9135 13.42H16.8935V18H15.7435V13.42H15.0935V12.49H15.7435V12.1C15.7435 11.4667 15.9102 11.0067 16.2435 10.72C16.5835 10.4267 17.1135 10.28 17.8335 10.28V11.23C17.4868 11.23 17.2435 11.2967 17.1035 11.43C16.9635 11.5567 16.8935 11.78 16.8935 12.1V12.49H17.9135V13.42ZM19.5038 11.76C19.2972 11.76 19.1238 11.69 18.9838 11.55C18.8438 11.41 18.7738 11.2367 18.7738 11.03C18.7738 10.8233 18.8438 10.65 18.9838 10.51C19.1238 10.37 19.2972 10.3 19.5038 10.3C19.7038 10.3 19.8738 10.37 20.0138 10.51C20.1538 10.65 20.2238 10.8233 20.2238 11.03C20.2238 11.2367 20.1538 11.41 20.0138 11.55C19.8738 11.69 19.7038 11.76 19.5038 11.76ZM20.0638 12.49V18H18.9238V12.49H20.0638ZM22.7005 10.6V18H21.5605V10.6H22.7005ZM29.2473 15.11C29.2473 15.3167 29.2339 15.5033 29.2073 15.67H24.9973C25.0306 16.11 25.1939 16.4633 25.4873 16.73C25.7806 16.9967 26.1406 17.13 26.5673 17.13C27.1806 17.13 27.6139 16.8733 27.8673 16.36H29.0973C28.9306 16.8667 28.6273 17.2833 28.1873 17.61C27.7539 17.93 27.2139 18.09 26.5673 18.09C26.0406 18.09 25.5673 17.9733 25.1473 17.74C24.7339 17.5 24.4073 17.1667 24.1673 16.74C23.9339 16.3067 23.8173 15.8067 23.8173 15.24C23.8173 14.6733 23.9306 14.1767 24.1573 13.75C24.3906 13.3167 24.7139 12.9833 25.1273 12.75C25.5473 12.5167 26.0273 12.4 26.5673 12.4C27.0873 12.4 27.5506 12.5133 27.9573 12.74C28.3639 12.9667 28.6806 13.2867 28.9073 13.7C29.1339 14.1067 29.2473 14.5767 29.2473 15.11ZM28.0573 14.75C28.0506 14.33 27.9006 13.9933 27.6073 13.74C27.3139 13.4867 26.9506 13.36 26.5173 13.36C26.1239 13.36 25.7873 13.4867 25.5073 13.74C25.2273 13.9867 25.0606 14.3233 25.0073 14.75H28.0573ZM35.7468 12.4C36.1801 12.4 36.5668 12.49 36.9068 12.67C37.2535 12.85 37.5235 13.1167 37.7168 13.47C37.9101 13.8233 38.0068 14.25 38.0068 14.75V18H36.8768V14.92C36.8768 14.4267 36.7535 14.05 36.5068 13.79C36.2601 13.5233 35.9235 13.39 35.4968 13.39C35.0701 13.39 34.7301 13.5233 34.4768 13.79C34.2301 14.05 34.1068 14.4267 34.1068 14.92V18H32.9668V12.49H34.1068V13.12C34.2935 12.8933 34.5301 12.7167 34.8168 12.59C35.1101 12.4633 35.4201 12.4 35.7468 12.4ZM39.0809 15.22C39.0809 14.6667 39.1943 14.1767 39.4209 13.75C39.6543 13.3233 39.9676 12.9933 40.3609 12.76C40.7609 12.52 41.2009 12.4 41.6809 12.4C42.1143 12.4 42.4909 12.4867 42.8109 12.66C43.1376 12.8267 43.3976 13.0367 43.5909 13.29V12.49H44.7409V18H43.5909V17.18C43.3976 17.44 43.1343 17.6567 42.8009 17.83C42.4676 18.0033 42.0876 18.09 41.6609 18.09C41.1876 18.09 40.7543 17.97 40.3609 17.73C39.9676 17.4833 39.6543 17.1433 39.4209 16.71C39.1943 16.27 39.0809 15.7733 39.0809 15.22ZM43.5909 15.24C43.5909 14.86 43.5109 14.53 43.3509 14.25C43.1976 13.97 42.9943 13.7567 42.7409 13.61C42.4876 13.4633 42.2143 13.39 41.9209 13.39C41.6276 13.39 41.3543 13.4633 41.1009 13.61C40.8476 13.75 40.6409 13.96 40.4809 14.24C40.3276 14.5133 40.2509 14.84 40.2509 15.22C40.2509 15.6 40.3276 15.9333 40.4809 16.22C40.6409 16.5067 40.8476 16.7267 41.1009 16.88C41.3609 17.0267 41.6343 17.1 41.9209 17.1C42.2143 17.1 42.4876 17.0267 42.7409 16.88C42.9943 16.7333 43.1976 16.52 43.3509 16.24C43.5109 15.9533 43.5909 15.62 43.5909 15.24ZM52.9083 12.4C53.3416 12.4 53.7283 12.49 54.0683 12.67C54.4149 12.85 54.6849 13.1167 54.8783 13.47C55.0783 13.8233 55.1783 14.25 55.1783 14.75V18H54.0483V14.92C54.0483 14.4267 53.9249 14.05 53.6783 13.79C53.4316 13.5233 53.0949 13.39 52.6683 13.39C52.2416 13.39 51.9016 13.5233 51.6483 13.79C51.4016 14.05 51.2783 14.4267 51.2783 14.92V18H50.1483V14.92C50.1483 14.4267 50.0249 14.05 49.7783 13.79C49.5316 13.5233 49.1949 13.39 48.7683 13.39C48.3416 13.39 48.0016 13.5233 47.7483 13.79C47.5016 14.05 47.3783 14.4267 47.3783 14.92V18H46.2383V12.49H47.3783V13.12C47.5649 12.8933 47.8016 12.7167 48.0883 12.59C48.3749 12.4633 48.6816 12.4 49.0083 12.4C49.4483 12.4 49.8416 12.4933 50.1883 12.68C50.5349 12.8667 50.8016 13.1367 50.9883 13.49C51.1549 13.1567 51.4149 12.8933 51.7683 12.7C52.1216 12.5 52.5016 12.4 52.9083 12.4ZM61.6789 15.11C61.6789 15.3167 61.6656 15.5033 61.6389 15.67H57.4289C57.4622 16.11 57.6256 16.4633 57.9189 16.73C58.2122 16.9967 58.5722 17.13 58.9989 17.13C59.6122 17.13 60.0456 16.8733 60.2989 16.36H61.5289C61.3622 16.8667 61.0589 17.2833 60.6189 17.61C60.1856 17.93 59.6456 18.09 58.9989 18.09C58.4722 18.09 57.9989 17.9733 57.5789 17.74C57.1656 17.5 56.8389 17.1667 56.5989 16.74C56.3656 16.3067 56.2489 15.8067 56.2489 15.24C56.2489 14.6733 56.3622 14.1767 56.5889 13.75C56.8222 13.3167 57.1456 12.9833 57.5589 12.75C57.9789 12.5167 58.4589 12.4 58.9989 12.4C59.5189 12.4 59.9822 12.5133 60.3889 12.74C60.7956 12.9667 61.1122 13.2867 61.3389 13.7C61.5656 14.1067 61.6789 14.5767 61.6789 15.11ZM60.4889 14.75C60.4822 14.33 60.3322 13.9933 60.0389 13.74C59.7456 13.4867 59.3822 13.36 58.9489 13.36C58.5556 13.36 58.2189 13.4867 57.9389 13.74C57.6589 13.9867 57.4922 14.3233 57.4389 14.75H60.4889ZM63.2608 18.07C63.0541 18.07 62.8808 18 62.7408 17.86C62.6008 17.72 62.5308 17.5467 62.5308 17.34C62.5308 17.1333 62.6008 16.96 62.7408 16.82C62.8808 16.68 63.0541 16.61 63.2608 16.61C63.4608 16.61 63.6308 16.68 63.7708 16.82C63.9108 16.96 63.9808 17.1333 63.9808 17.34C63.9808 17.5467 63.9108 17.72 63.7708 17.86C63.6308 18 63.4608 18.07 63.2608 18.07ZM70.2629 15.11C70.2629 15.3167 70.2496 15.5033 70.2229 15.67H66.0129C66.0462 16.11 66.2096 16.4633 66.5029 16.73C66.7962 16.9967 67.1562 17.13 67.5829 17.13C68.1962 17.13 68.6296 16.8733 68.8829 16.36H70.1129C69.9462 16.8667 69.6429 17.2833 69.2029 17.61C68.7696 17.93 68.2296 18.09 67.5829 18.09C67.0562 18.09 66.5829 17.9733 66.1629 17.74C65.7496 17.5 65.4229 17.1667 65.1829 16.74C64.9496 16.3067 64.8329 15.8067 64.8329 15.24C64.8329 14.6733 64.9462 14.1767 65.1729 13.75C65.4062 13.3167 65.7296 12.9833 66.1429 12.75C66.5629 12.5167 67.0429 12.4 67.5829 12.4C68.1029 12.4 68.5662 12.5133 68.9729 12.74C69.3796 12.9667 69.6962 13.2867 69.9229 13.7C70.1496 14.1067 70.2629 14.5767 70.2629 15.11ZM69.0729 14.75C69.0662 14.33 68.9162 13.9933 68.6229 13.74C68.3296 13.4867 67.9662 13.36 67.5329 13.36C67.1396 13.36 66.8029 13.4867 66.5229 13.74C66.2429 13.9867 66.0762 14.3233 66.0229 14.75H69.0729ZM73.7448 15.21L75.5248 18H74.2348L73.0448 16.13L71.9248 18H70.7348L72.5148 15.29L70.7348 12.49H72.0248L73.2148 14.36L74.3348 12.49H75.5248L73.7448 15.21ZM77.705 13.42V16.47C77.705 16.6767 77.7517 16.8267 77.845 16.92C77.945 17.0067 78.1117 17.05 78.345 17.05H79.045V18H78.145C77.6317 18 77.2383 17.88 76.965 17.64C76.6917 17.4 76.555 17.01 76.555 16.47V13.42H75.905V12.49H76.555V11.12H77.705V12.49H79.045V13.42H77.705ZM85.1457 15.11C85.1457 15.3167 85.1324 15.5033 85.1057 15.67H80.8957C80.929 16.11 81.0924 16.4633 81.3857 16.73C81.679 16.9967 82.039 17.13 82.4657 17.13C83.079 17.13 83.5124 16.8733 83.7657 16.36H84.9957C84.829 16.8667 84.5257 17.2833 84.0857 17.61C83.6524 17.93 83.1124 18.09 82.4657 18.09C81.939 18.09 81.4657 17.9733 81.0457 17.74C80.6324 17.5 80.3057 17.1667 80.0657 16.74C79.8324 16.3067 79.7157 15.8067 79.7157 15.24C79.7157 14.6733 79.829 14.1767 80.0557 13.75C80.289 13.3167 80.6124 12.9833 81.0257 12.75C81.4457 12.5167 81.9257 12.4 82.4657 12.4C82.9857 12.4 83.449 12.5133 83.8557 12.74C84.2624 12.9667 84.579 13.2867 84.8057 13.7C85.0324 14.1067 85.1457 14.5767 85.1457 15.11ZM83.9557 14.75C83.949 14.33 83.799 13.9933 83.5057 13.74C83.2124 13.4867 82.849 13.36 82.4157 13.36C82.0224 13.36 81.6857 13.4867 81.4057 13.74C81.1257 13.9867 80.959 14.3233 80.9057 14.75H83.9557ZM89.0476 12.4C89.4809 12.4 89.8676 12.49 90.2076 12.67C90.5542 12.85 90.8242 13.1167 91.0176 13.47C91.2109 13.8233 91.3076 14.25 91.3076 14.75V18H90.1776V14.92C90.1776 14.4267 90.0542 14.05 89.8076 13.79C89.5609 13.5233 89.2242 13.39 88.7976 13.39C88.3709 13.39 88.0309 13.5233 87.7776 13.79C87.5309 14.05 87.4076 14.4267 87.4076 14.92V18H86.2676V12.49H87.4076V13.12C87.5942 12.8933 87.8309 12.7167 88.1176 12.59C88.4109 12.4633 88.7209 12.4 89.0476 12.4ZM94.7617 18.09C94.3284 18.09 93.9384 18.0133 93.5917 17.86C93.2517 17.7 92.9817 17.4867 92.7817 17.22C92.5817 16.9467 92.4751 16.6433 92.4617 16.31H93.6417C93.6617 16.5433 93.7717 16.74 93.9717 16.9C94.1784 17.0533 94.4351 17.13 94.7417 17.13C95.0617 17.13 95.3084 17.07 95.4817 16.95C95.6617 16.8233 95.7517 16.6633 95.7517 16.47C95.7517 16.2633 95.6517 16.11 95.4517 16.01C95.2584 15.91 94.9484 15.8 94.5217 15.68C94.1084 15.5667 93.7717 15.4567 93.5117 15.35C93.2517 15.2433 93.0251 15.08 92.8317 14.86C92.6451 14.64 92.5517 14.35 92.5517 13.99C92.5517 13.6967 92.6384 13.43 92.8117 13.19C92.9851 12.9433 93.2317 12.75 93.5517 12.61C93.8784 12.47 94.2517 12.4 94.6717 12.4C95.2984 12.4 95.8017 12.56 96.1817 12.88C96.5684 13.1933 96.7751 13.6233 96.8017 14.17H95.6617C95.6417 13.9233 95.5417 13.7267 95.3617 13.58C95.1817 13.4333 94.9384 13.36 94.6317 13.36C94.3317 13.36 94.1017 13.4167 93.9417 13.53C93.7817 13.6433 93.7017 13.7933 93.7017 13.98C93.7017 14.1267 93.7551 14.25 93.8617 14.35C93.9684 14.45 94.0984 14.53 94.2517 14.59C94.4051 14.6433 94.6317 14.7133 94.9317 14.8C95.3317 14.9067 95.6584 15.0167 95.9117 15.13C96.1717 15.2367 96.3951 15.3967 96.5817 15.61C96.7684 15.8233 96.8651 16.1067 96.8717 16.46C96.8717 16.7733 96.7851 17.0533 96.6117 17.3C96.4384 17.5467 96.1917 17.74 95.8717 17.88C95.5584 18.02 95.1884 18.09 94.7617 18.09ZM98.6835 11.76C98.4768 11.76 98.3035 11.69 98.1635 11.55C98.0235 11.41 97.9535 11.2367 97.9535 11.03C97.9535 10.8233 98.0235 10.65 98.1635 10.51C98.3035 10.37 98.4768 10.3 98.6835 10.3C98.8835 10.3 99.0535 10.37 99.1935 10.51C99.3335 10.65 99.4035 10.8233 99.4035 11.03C99.4035 11.2367 99.3335 11.41 99.1935 11.55C99.0535 11.69 98.8835 11.76 98.6835 11.76ZM99.2435 12.49V18H98.1035V12.49H99.2435ZM103.13 18.09C102.61 18.09 102.14 17.9733 101.72 17.74C101.3 17.5 100.97 17.1667 100.73 16.74C100.49 16.3067 100.37 15.8067 100.37 15.24C100.37 14.68 100.494 14.1833 100.74 13.75C100.987 13.3167 101.324 12.9833 101.75 12.75C102.177 12.5167 102.654 12.4 103.18 12.4C103.707 12.4 104.184 12.5167 104.61 12.75C105.037 12.9833 105.374 13.3167 105.62 13.75C105.867 14.1833 105.99 14.68 105.99 15.24C105.99 15.8 105.864 16.2967 105.61 16.73C105.357 17.1633 105.01 17.5 104.57 17.74C104.137 17.9733 103.657 18.09 103.13 18.09ZM103.13 17.1C103.424 17.1 103.697 17.03 103.95 16.89C104.21 16.75 104.42 16.54 104.58 16.26C104.74 15.98 104.82 15.64 104.82 15.24C104.82 14.84 104.744 14.5033 104.59 14.23C104.437 13.95 104.234 13.74 103.98 13.6C103.727 13.46 103.454 13.39 103.16 13.39C102.867 13.39 102.594 13.46 102.34 13.6C102.094 13.74 101.897 13.95 101.75 14.23C101.604 14.5033 101.53 14.84 101.53 15.24C101.53 15.8333 101.68 16.2933 101.98 16.62C102.287 16.94 102.67 17.1 103.13 17.1ZM109.897 12.4C110.331 12.4 110.717 12.49 111.057 12.67C111.404 12.85 111.674 13.1167 111.867 13.47C112.061 13.8233 112.157 14.25 112.157 14.75V18H111.027V14.92C111.027 14.4267 110.904 14.05 110.657 13.79C110.411 13.5233 110.074 13.39 109.647 13.39C109.221 13.39 108.881 13.5233 108.627 13.79C108.381 14.05 108.257 14.4267 108.257 14.92V18H107.117V12.49H108.257V13.12C108.444 12.8933 108.681 12.7167 108.967 12.59C109.261 12.4633 109.571 12.4 109.897 12.4ZM116.221 19.86H114.141V18.91H115.151V9.6H114.141V8.66H116.221V19.86ZM123.863 8.66V9.6H122.853V18.91H123.863V19.86H121.783V8.66H123.863ZM128.686 12.4C129.12 12.4 129.506 12.49 129.846 12.67C130.193 12.85 130.463 13.1167 130.656 13.47C130.85 13.8233 130.946 14.25 130.946 14.75V18H129.816V14.92C129.816 14.4267 129.693 14.05 129.446 13.79C129.2 13.5233 128.863 13.39 128.436 13.39C128.01 13.39 127.67 13.5233 127.416 13.79C127.17 14.05 127.046 14.4267 127.046 14.92V18H125.906V12.49H127.046V13.12C127.233 12.8933 127.47 12.7167 127.756 12.59C128.05 12.4633 128.36 12.4 128.686 12.4ZM137.45 15.11C137.45 15.3167 137.437 15.5033 137.41 15.67H133.2C133.234 16.11 133.397 16.4633 133.69 16.73C133.984 16.9967 134.344 17.13 134.77 17.13C135.384 17.13 135.817 16.8733 136.07 16.36H137.3C137.134 16.8667 136.83 17.2833 136.39 17.61C135.957 17.93 135.417 18.09 134.77 18.09C134.244 18.09 133.77 17.9733 133.35 17.74C132.937 17.5 132.61 17.1667 132.37 16.74C132.137 16.3067 132.02 15.8067 132.02 15.24C132.02 14.6733 132.134 14.1767 132.36 13.75C132.594 13.3167 132.917 12.9833 133.33 12.75C133.75 12.5167 134.23 12.4 134.77 12.4C135.29 12.4 135.754 12.5133 136.16 12.74C136.567 12.9667 136.884 13.2867 137.11 13.7C137.337 14.1067 137.45 14.5767 137.45 15.11ZM136.26 14.75C136.254 14.33 136.104 13.9933 135.81 13.74C135.517 13.4867 135.154 13.36 134.72 13.36C134.327 13.36 133.99 13.4867 133.71 13.74C133.43 13.9867 133.264 14.3233 133.21 14.75H136.26ZM145.972 12.49L144.262 18H143.062L141.952 13.93L140.842 18H139.642L137.922 12.49H139.082L140.232 16.92L141.402 12.49H142.592L143.712 16.9L144.852 12.49H145.972ZM152.202 12.4C152.635 12.4 153.022 12.49 153.362 12.67C153.709 12.85 153.979 13.1167 154.172 13.47C154.365 13.8233 154.462 14.25 154.462 14.75V18H153.332V14.92C153.332 14.4267 153.209 14.05 152.962 13.79C152.715 13.5233 152.379 13.39 151.952 13.39C151.525 13.39 151.185 13.5233 150.932 13.79C150.685 14.05 150.562 14.4267 150.562 14.92V18H149.422V12.49H150.562V13.12C150.749 12.8933 150.985 12.7167 151.272 12.59C151.565 12.4633 151.875 12.4 152.202 12.4ZM155.536 15.22C155.536 14.6667 155.649 14.1767 155.876 13.75C156.109 13.3233 156.423 12.9933 156.816 12.76C157.216 12.52 157.656 12.4 158.136 12.4C158.569 12.4 158.946 12.4867 159.266 12.66C159.593 12.8267 159.853 13.0367 160.046 13.29V12.49H161.196V18H160.046V17.18C159.853 17.44 159.589 17.6567 159.256 17.83C158.923 18.0033 158.543 18.09 158.116 18.09C157.643 18.09 157.209 17.97 156.816 17.73C156.423 17.4833 156.109 17.1433 155.876 16.71C155.649 16.27 155.536 15.7733 155.536 15.22ZM160.046 15.24C160.046 14.86 159.966 14.53 159.806 14.25C159.653 13.97 159.449 13.7567 159.196 13.61C158.943 13.4633 158.669 13.39 158.376 13.39C158.083 13.39 157.809 13.4633 157.556 13.61C157.303 13.75 157.096 13.96 156.936 14.24C156.783 14.5133 156.706 14.84 156.706 15.22C156.706 15.6 156.783 15.9333 156.936 16.22C157.096 16.5067 157.303 16.7267 157.556 16.88C157.816 17.0267 158.089 17.1 158.376 17.1C158.669 17.1 158.943 17.0267 159.196 16.88C159.449 16.7333 159.653 16.52 159.806 16.24C159.966 15.9533 160.046 15.62 160.046 15.24ZM169.363 12.4C169.797 12.4 170.183 12.49 170.523 12.67C170.87 12.85 171.14 13.1167 171.333 13.47C171.533 13.8233 171.633 14.25 171.633 14.75V18H170.503V14.92C170.503 14.4267 170.38 14.05 170.133 13.79C169.887 13.5233 169.55 13.39 169.123 13.39C168.697 13.39 168.357 13.5233 168.103 13.79C167.857 14.05 167.733 14.4267 167.733 14.92V18H166.603V14.92C166.603 14.4267 166.48 14.05 166.233 13.79C165.987 13.5233 165.65 13.39 165.223 13.39C164.797 13.39 164.457 13.5233 164.203 13.79C163.957 14.05 163.833 14.4267 163.833 14.92V18H162.693V12.49H163.833V13.12C164.02 12.8933 164.257 12.7167 164.543 12.59C164.83 12.4633 165.137 12.4 165.463 12.4C165.903 12.4 166.297 12.4933 166.643 12.68C166.99 12.8667 167.257 13.1367 167.443 13.49C167.61 13.1567 167.87 12.8933 168.223 12.7C168.577 12.5 168.957 12.4 169.363 12.4ZM178.134 15.11C178.134 15.3167 178.121 15.5033 178.094 15.67H173.884C173.917 16.11 174.081 16.4633 174.374 16.73C174.667 16.9967 175.027 17.13 175.454 17.13C176.067 17.13 176.501 16.8733 176.754 16.36H177.984C177.817 16.8667 177.514 17.2833 177.074 17.61C176.641 17.93 176.101 18.09 175.454 18.09C174.927 18.09 174.454 17.9733 174.034 17.74C173.621 17.5 173.294 17.1667 173.054 16.74C172.821 16.3067 172.704 15.8067 172.704 15.24C172.704 14.6733 172.817 14.1767 173.044 13.75C173.277 13.3167 173.601 12.9833 174.014 12.75C174.434 12.5167 174.914 12.4 175.454 12.4C175.974 12.4 176.437 12.5133 176.844 12.74C177.251 12.9667 177.567 13.2867 177.794 13.7C178.021 14.1067 178.134 14.5767 178.134 15.11ZM176.944 14.75C176.937 14.33 176.787 13.9933 176.494 13.74C176.201 13.4867 175.837 13.36 175.404 13.36C175.011 13.36 174.674 13.4867 174.394 13.74C174.114 13.9867 173.947 14.3233 173.894 14.75H176.944ZM179.716 18.07C179.509 18.07 179.336 18 179.196 17.86C179.056 17.72 178.986 17.5467 178.986 17.34C178.986 17.1333 179.056 16.96 179.196 16.82C179.336 16.68 179.509 16.61 179.716 16.61C179.916 16.61 180.086 16.68 180.226 16.82C180.366 16.96 180.436 17.1333 180.436 17.34C180.436 17.5467 180.366 17.72 180.226 17.86C180.086 18 179.916 18.07 179.716 18.07ZM186.718 15.11C186.718 15.3167 186.705 15.5033 186.678 15.67H182.468C182.501 16.11 182.665 16.4633 182.958 16.73C183.251 16.9967 183.611 17.13 184.038 17.13C184.651 17.13 185.085 16.8733 185.338 16.36H186.568C186.401 16.8667 186.098 17.2833 185.658 17.61C185.225 17.93 184.685 18.09 184.038 18.09C183.511 18.09 183.038 17.9733 182.618 17.74C182.205 17.5 181.878 17.1667 181.638 16.74C181.405 16.3067 181.288 15.8067 181.288 15.24C181.288 14.6733 181.401 14.1767 181.628 13.75C181.861 13.3167 182.185 12.9833 182.598 12.75C183.018 12.5167 183.498 12.4 184.038 12.4C184.558 12.4 185.021 12.5133 185.428 12.74C185.835 12.9667 186.151 13.2867 186.378 13.7C186.605 14.1067 186.718 14.5767 186.718 15.11ZM185.528 14.75C185.521 14.33 185.371 13.9933 185.078 13.74C184.785 13.4867 184.421 13.36 183.988 13.36C183.595 13.36 183.258 13.4867 182.978 13.74C182.698 13.9867 182.531 14.3233 182.478 14.75H185.528ZM190.2 15.21L191.98 18H190.69L189.5 16.13L188.38 18H187.19L188.97 15.29L187.19 12.49H188.48L189.67 14.36L190.79 12.49H191.98L190.2 15.21ZM194.16 13.42V16.47C194.16 16.6767 194.207 16.8267 194.3 16.92C194.4 17.0067 194.567 17.05 194.8 17.05H195.5V18H194.6C194.087 18 193.693 17.88 193.42 17.64C193.147 17.4 193.01 17.01 193.01 16.47V13.42H192.36V12.49H193.01V11.12H194.16V12.49H195.5V13.42H194.16ZM201.601 15.11C201.601 15.3167 201.587 15.5033 201.561 15.67H197.351C197.384 16.11 197.547 16.4633 197.841 16.73C198.134 16.9967 198.494 17.13 198.921 17.13C199.534 17.13 199.967 16.8733 200.221 16.36H201.451C201.284 16.8667 200.981 17.2833 200.541 17.61C200.107 17.93 199.567 18.09 198.921 18.09C198.394 18.09 197.921 17.9733 197.501 17.74C197.087 17.5 196.761 17.1667 196.521 16.74C196.287 16.3067 196.171 15.8067 196.171 15.24C196.171 14.6733 196.284 14.1767 196.511 13.75C196.744 13.3167 197.067 12.9833 197.481 12.75C197.901 12.5167 198.381 12.4 198.921 12.4C199.441 12.4 199.904 12.5133 200.311 12.74C200.717 12.9667 201.034 13.2867 201.261 13.7C201.487 14.1067 201.601 14.5767 201.601 15.11ZM200.411 14.75C200.404 14.33 200.254 13.9933 199.961 13.74C199.667 13.4867 199.304 13.36 198.871 13.36C198.477 13.36 198.141 13.4867 197.861 13.74C197.581 13.9867 197.414 14.3233 197.361 14.75H200.411ZM205.503 12.4C205.936 12.4 206.323 12.49 206.663 12.67C207.009 12.85 207.279 13.1167 207.473 13.47C207.666 13.8233 207.763 14.25 207.763 14.75V18H206.633V14.92C206.633 14.4267 206.509 14.05 206.263 13.79C206.016 13.5233 205.679 13.39 205.253 13.39C204.826 13.39 204.486 13.5233 204.233 13.79C203.986 14.05 203.863 14.4267 203.863 14.92V18H202.723V12.49H203.863V13.12C204.049 12.8933 204.286 12.7167 204.573 12.59C204.866 12.4633 205.176 12.4 205.503 12.4ZM211.217 18.09C210.783 18.09 210.393 18.0133 210.047 17.86C209.707 17.7 209.437 17.4867 209.237 17.22C209.037 16.9467 208.93 16.6433 208.917 16.31H210.097C210.117 16.5433 210.227 16.74 210.427 16.9C210.633 17.0533 210.89 17.13 211.197 17.13C211.517 17.13 211.763 17.07 211.937 16.95C212.117 16.8233 212.207 16.6633 212.207 16.47C212.207 16.2633 212.107 16.11 211.907 16.01C211.713 15.91 211.403 15.8 210.977 15.68C210.563 15.5667 210.227 15.4567 209.967 15.35C209.707 15.2433 209.48 15.08 209.287 14.86C209.1 14.64 209.007 14.35 209.007 13.99C209.007 13.6967 209.093 13.43 209.267 13.19C209.44 12.9433 209.687 12.75 210.007 12.61C210.333 12.47 210.707 12.4 211.127 12.4C211.753 12.4 212.257 12.56 212.637 12.88C213.023 13.1933 213.23 13.6233 213.257 14.17H212.117C212.097 13.9233 211.997 13.7267 211.817 13.58C211.637 13.4333 211.393 13.36 211.087 13.36C210.787 13.36 210.557 13.4167 210.397 13.53C210.237 13.6433 210.157 13.7933 210.157 13.98C210.157 14.1267 210.21 14.25 210.317 14.35C210.423 14.45 210.553 14.53 210.707 14.59C210.86 14.6433 211.087 14.7133 211.387 14.8C211.787 14.9067 212.113 15.0167 212.367 15.13C212.627 15.2367 212.85 15.3967 213.037 15.61C213.223 15.8233 213.32 16.1067 213.327 16.46C213.327 16.7733 213.24 17.0533 213.067 17.3C212.893 17.5467 212.647 17.74 212.327 17.88C212.013 18.02 211.643 18.09 211.217 18.09ZM215.139 11.76C214.932 11.76 214.759 11.69 214.619 11.55C214.479 11.41 214.409 11.2367 214.409 11.03C214.409 10.8233 214.479 10.65 214.619 10.51C214.759 10.37 214.932 10.3 215.139 10.3C215.339 10.3 215.509 10.37 215.649 10.51C215.789 10.65 215.859 10.8233 215.859 11.03C215.859 11.2367 215.789 11.41 215.649 11.55C215.509 11.69 215.339 11.76 215.139 11.76ZM215.699 12.49V18H214.559V12.49H215.699ZM219.585 18.09C219.065 18.09 218.595 17.9733 218.175 17.74C217.755 17.5 217.425 17.1667 217.185 16.74C216.945 16.3067 216.825 15.8067 216.825 15.24C216.825 14.68 216.949 14.1833 217.195 13.75C217.442 13.3167 217.779 12.9833 218.205 12.75C218.632 12.5167 219.109 12.4 219.635 12.4C220.162 12.4 220.639 12.5167 221.065 12.75C221.492 12.9833 221.829 13.3167 222.075 13.75C222.322 14.1833 222.445 14.68 222.445 15.24C222.445 15.8 222.319 16.2967 222.065 16.73C221.812 17.1633 221.465 17.5 221.025 17.74C220.592 17.9733 220.112 18.09 219.585 18.09ZM219.585 17.1C219.879 17.1 220.152 17.03 220.405 16.89C220.665 16.75 220.875 16.54 221.035 16.26C221.195 15.98 221.275 15.64 221.275 15.24C221.275 14.84 221.199 14.5033 221.045 14.23C220.892 13.95 220.689 13.74 220.435 13.6C220.182 13.46 219.909 13.39 219.615 13.39C219.322 13.39 219.049 13.46 218.795 13.6C218.549 13.74 218.352 13.95 218.205 14.23C218.059 14.5033 217.985 14.84 217.985 15.24C217.985 15.8333 218.135 16.2933 218.435 16.62C218.742 16.94 219.125 17.1 219.585 17.1ZM226.352 12.4C226.786 12.4 227.172 12.49 227.512 12.67C227.859 12.85 228.129 13.1167 228.322 13.47C228.516 13.8233 228.612 14.25 228.612 14.75V18H227.482V14.92C227.482 14.4267 227.359 14.05 227.112 13.79C226.866 13.5233 226.529 13.39 226.102 13.39C225.676 13.39 225.336 13.5233 225.082 13.79C224.836 14.05 224.712 14.4267 224.712 14.92V18H223.572V12.49H224.712V13.12C224.899 12.8933 225.136 12.7167 225.422 12.59C225.716 12.4633 226.026 12.4 226.352 12.4ZM232.676 19.86H230.596V18.91H231.606V9.6H230.596V8.66H232.676V19.86Z" fill="black"/>
</svg>
