<svg xmlns="http://www.w3.org/2000/svg" fill="none" viewBox="0 0 60 80" height="80" width="60">
<path fill="#FF58FF" d="M29.9978 52C28.1738 52 26.6138 51.448 25.3178 50.344C24.0458 49.216 23.0738 47.608 22.4018 45.52C21.7298 43.408 21.3938 40.876 21.3938 37.924C21.3938 34.972 21.7298 32.452 22.4018 30.364C23.0738 28.252 24.0458 26.644 25.3178 25.54C26.6138 24.412 28.1738 23.848 29.9978 23.848C31.8218 23.848 33.3698 24.424 34.6418 25.576C35.9378 26.704 36.9218 28.324 37.5938 30.436C38.2657 32.524 38.6017 35.02 38.6017 37.924C38.6017 40.828 38.2657 43.336 37.5938 45.448C36.9218 47.536 35.9378 49.156 34.6418 50.308C33.3698 51.436 31.8218 52 29.9978 52ZM29.9978 48.256C31.1018 48.256 32.0138 47.812 32.7338 46.924C33.4538 46.012 33.9938 44.776 34.3538 43.216C34.7138 41.656 34.8938 39.892 34.8938 37.924C34.8938 35.956 34.7138 34.192 34.3538 32.632C33.9938 31.072 33.4538 29.836 32.7338 28.924C32.0138 28.012 31.1018 27.556 29.9978 27.556C28.8938 27.556 27.9818 28.012 27.2618 28.924C26.5418 29.812 26.0018 31.036 25.6418 32.596C25.2818 34.156 25.1018 35.932 25.1018 37.924C25.1018 39.916 25.2818 41.692 25.6418 43.252C26.0018 44.812 26.5418 46.036 27.2618 46.924C28.0058 47.812 28.9178 48.256 29.9978 48.256Z"></path>
<path fill="#FF59FF" d="M25.3178 50.344L24.6543 51.0922C24.6592 51.0966 24.6642 51.1009 24.6693 51.1052L25.3178 50.344ZM22.4018 45.52L21.4488 45.8232L21.4498 45.8264L22.4018 45.52ZM22.4018 30.364L23.3537 30.6704L23.3547 30.6672L22.4018 30.364ZM25.3178 25.54L25.9732 26.2952L25.9743 26.2943L25.3178 25.54ZM34.6418 25.576L33.9705 26.3172C33.9753 26.3216 33.9803 26.326 33.9852 26.3303L34.6418 25.576ZM37.5938 30.436L36.6408 30.7392L36.6418 30.7424L37.5938 30.436ZM37.5938 45.448L38.5457 45.7544L38.5467 45.7512L37.5938 45.448ZM34.6418 50.308L35.3052 51.0562L35.3061 51.0554L34.6418 50.308ZM32.7338 46.924L33.5106 47.5539L33.5186 47.5436L32.7338 46.924ZM34.3538 43.216L35.3281 43.4409L35.3281 43.4409L34.3538 43.216ZM34.3538 32.632L35.3281 32.4071L35.3281 32.4071L34.3538 32.632ZM27.2618 28.924L28.0386 29.5539L28.0466 29.5436L27.2618 28.924ZM27.2618 46.924L26.485 47.5538C26.4884 47.558 26.4918 47.5621 26.4952 47.5662L27.2618 46.924ZM29.9978 51C28.3931 51 27.0678 50.5212 25.9662 49.5828L24.6693 51.1052C26.1597 52.3748 27.9544 53 29.9978 53V51ZM25.9812 49.5958C24.8768 48.6164 23.9864 47.1797 23.3537 45.2136L21.4498 45.8264C22.1611 48.0363 23.2147 49.8156 24.6543 51.0922L25.9812 49.5958ZM23.3547 45.2168C22.7223 43.2292 22.3938 40.805 22.3938 37.924H20.3938C20.3938 40.947 20.7372 43.5868 21.4488 45.8232L23.3547 45.2168ZM22.3938 37.924C22.3938 35.0425 22.7224 32.6318 23.3537 30.6704L21.4498 30.0576C20.7371 32.2722 20.3938 34.9015 20.3938 37.924H22.3938ZM23.3547 30.6672C23.9881 28.6763 24.8774 27.2463 25.9732 26.2952L24.6623 24.7848C23.2141 26.0417 22.1594 27.8277 21.4488 30.0608L23.3547 30.6672ZM25.9743 26.2943C27.0764 25.335 28.3989 24.848 29.9978 24.848V22.848C27.9486 22.848 26.1511 23.489 24.6612 24.7857L25.9743 26.2943ZM29.9978 24.848C31.5907 24.848 32.8946 25.3429 33.9705 26.3172L35.313 24.8348C33.8449 23.5051 32.0528 22.848 29.9978 22.848V24.848ZM33.9852 26.3303C35.1082 27.3077 36.0086 28.7521 36.6408 30.7392L38.5467 30.1328C37.8349 27.8959 36.7673 26.1003 35.2983 24.8217L33.9852 26.3303ZM36.6418 30.7424C37.2736 32.7052 37.6017 35.0924 37.6017 37.924H39.6017C39.6017 34.9476 39.2579 32.3428 38.5457 30.1296L36.6418 30.7424ZM37.6017 37.924C37.6017 40.7551 37.2737 43.1558 36.6408 45.1448L38.5467 45.7512C39.2578 43.5162 39.6017 40.9009 39.6017 37.924H37.6017ZM36.6418 45.1416C36.0103 47.104 35.1088 48.5549 33.9774 49.5606L35.3061 51.0554C36.7667 49.7571 37.8332 47.968 38.5457 45.7544L36.6418 45.1416ZM33.9783 49.5598C32.9032 50.5132 31.5966 51 29.9978 51V53C32.0469 53 33.8363 52.3588 35.3052 51.0562L33.9783 49.5598ZM29.9978 49.256C31.4154 49.256 32.6084 48.6664 33.5105 47.5538L31.957 46.2942C31.4191 46.9576 30.7881 47.256 29.9978 47.256V49.256ZM33.5186 47.5436C34.358 46.4805 34.9467 45.0936 35.3281 43.4409L33.3794 42.9911C33.0408 44.4584 32.5495 45.5435 31.9489 46.3044L33.5186 47.5436ZM35.3281 43.4409C35.7085 41.7926 35.8938 39.9512 35.8938 37.924H33.8938C33.8938 39.8328 33.719 41.5194 33.3794 42.9911L35.3281 43.4409ZM35.8938 37.924C35.8938 35.8968 35.7085 34.0554 35.3281 32.4071L33.3794 32.8569C33.719 34.3286 33.8938 36.0152 33.8938 37.924H35.8938ZM35.3281 32.4071C34.9467 30.7544 34.358 29.3675 33.5186 28.3044L31.9489 29.5436C32.5495 30.3045 33.0408 31.3896 33.3794 32.8569L35.3281 32.4071ZM33.5186 28.3044C32.6205 27.1667 31.4259 26.556 29.9978 26.556V28.556C30.7776 28.556 31.407 28.8573 31.9489 29.5436L33.5186 28.3044ZM29.9978 26.556C28.5696 26.556 27.375 27.1667 26.4769 28.3044L28.0466 29.5436C28.5885 28.8573 29.2179 28.556 29.9978 28.556V26.556ZM26.485 28.2942C25.6387 29.3379 25.0487 30.7186 24.6674 32.3711L26.6161 32.8209C26.9548 31.3534 27.4448 30.2861 28.0385 29.5538L26.485 28.2942ZM24.6674 32.3711C24.2868 34.0202 24.1018 35.8739 24.1018 37.924H26.1018C26.1018 35.9901 26.2767 34.2918 26.6161 32.8209L24.6674 32.3711ZM24.1018 37.924C24.1018 39.9741 24.2868 41.8278 24.6674 43.4769L26.6161 43.0271C26.2767 41.5562 26.1018 39.8579 26.1018 37.924H24.1018ZM24.6674 43.4769C25.0487 45.1294 25.6387 46.5101 26.485 47.5538L28.0385 46.2942C27.4448 45.5619 26.9548 44.4946 26.6161 43.0271L24.6674 43.4769ZM26.4952 47.5662C27.4135 48.6622 28.5982 49.256 29.9978 49.256V47.256C29.2373 47.256 28.598 46.9618 28.0283 46.2818L26.4952 47.5662Z"></path>
</svg>
