<svg width="480" height="360" viewBox="0 0 480 360" fill="none" xmlns="http://www.w3.org/2000/svg">
<path d="M0 0H480V80C480 91.0457 471.046 100 460 100H20C8.95431 100 0 91.0457 0 80V0Z" fill="#191919" fill-opacity="0.75"/>
<path d="M172.832 19.88C174.016 19.88 175.051 20.1093 175.936 20.568C176.832 21.016 177.52 21.6667 178 22.52C178.491 23.3627 178.736 24.3493 178.736 25.48C178.736 26.6107 178.491 27.592 178 28.424C177.52 29.256 176.832 29.896 175.936 30.344C175.051 30.7813 174.016 31 172.832 31H169.2V19.88H172.832ZM172.832 29.512C174.133 29.512 175.131 29.16 175.824 28.456C176.517 27.752 176.864 26.76 176.864 25.48C176.864 24.1893 176.517 23.1813 175.824 22.456C175.131 21.7307 174.133 21.368 172.832 21.368H171.024V29.512H172.832ZM188.624 26.376C188.624 26.7067 188.602 27.0053 188.56 27.272H181.824C181.877 27.976 182.138 28.5413 182.608 28.968C183.077 29.3947 183.653 29.608 184.336 29.608C185.317 29.608 186.01 29.1973 186.416 28.376H188.384C188.117 29.1867 187.632 29.8533 186.928 30.376C186.234 30.888 185.37 31.144 184.336 31.144C183.493 31.144 182.736 30.9573 182.064 30.584C181.402 30.2 180.88 29.6667 180.496 28.984C180.122 28.2907 179.936 27.4907 179.936 26.584C179.936 25.6773 180.117 24.8827 180.48 24.2C180.853 23.5067 181.37 22.9733 182.032 22.6C182.704 22.2267 183.472 22.04 184.336 22.04C185.168 22.04 185.909 22.2213 186.56 22.584C187.21 22.9467 187.717 23.4587 188.08 24.12C188.442 24.7707 188.624 25.5227 188.624 26.376ZM186.72 25.8C186.709 25.128 186.469 24.5893 186 24.184C185.53 23.7787 184.949 23.576 184.256 23.576C183.626 23.576 183.088 23.7787 182.64 24.184C182.192 24.5787 181.925 25.1173 181.84 25.8H186.72ZM193.827 29.368L196.323 22.184H198.259L194.899 31H192.723L189.379 22.184H191.331L193.827 29.368ZM207.718 26.376C207.718 26.7067 207.696 27.0053 207.654 27.272H200.918C200.971 27.976 201.232 28.5413 201.702 28.968C202.171 29.3947 202.747 29.608 203.43 29.608C204.411 29.608 205.104 29.1973 205.51 28.376H207.477C207.211 29.1867 206.726 29.8533 206.022 30.376C205.328 30.888 204.464 31.144 203.43 31.144C202.587 31.144 201.83 30.9573 201.158 30.584C200.496 30.2 199.974 29.6667 199.59 28.984C199.216 28.2907 199.03 27.4907 199.03 26.584C199.03 25.6773 199.211 24.8827 199.574 24.2C199.947 23.5067 200.464 22.9733 201.126 22.6C201.798 22.2267 202.566 22.04 203.43 22.04C204.262 22.04 205.003 22.2213 205.654 22.584C206.304 22.9467 206.811 23.4587 207.174 24.12C207.536 24.7707 207.718 25.5227 207.718 26.376ZM205.814 25.8C205.803 25.128 205.563 24.5893 205.094 24.184C204.624 23.7787 204.043 23.576 203.35 23.576C202.72 23.576 202.182 23.7787 201.734 24.184C201.286 24.5787 201.019 25.1173 200.934 25.8H205.814ZM211.337 19.16V31H209.513V19.16H211.337ZM217.555 31.144C216.723 31.144 215.971 30.9573 215.299 30.584C214.627 30.2 214.099 29.6667 213.715 28.984C213.331 28.2907 213.139 27.4907 213.139 26.584C213.139 25.688 213.337 24.8933 213.731 24.2C214.126 23.5067 214.665 22.9733 215.347 22.6C216.03 22.2267 216.793 22.04 217.635 22.04C218.478 22.04 219.241 22.2267 219.923 22.6C220.606 22.9733 221.145 23.5067 221.539 24.2C221.934 24.8933 222.131 25.688 222.131 26.584C222.131 27.48 221.929 28.2747 221.523 28.968C221.118 29.6613 220.563 30.2 219.859 30.584C219.166 30.9573 218.398 31.144 217.555 31.144ZM217.555 29.56C218.025 29.56 218.462 29.448 218.867 29.224C219.283 29 219.619 28.664 219.875 28.216C220.131 27.768 220.259 27.224 220.259 26.584C220.259 25.944 220.137 25.4053 219.891 24.968C219.646 24.52 219.321 24.184 218.915 23.96C218.51 23.736 218.073 23.624 217.603 23.624C217.134 23.624 216.697 23.736 216.291 23.96C215.897 24.184 215.582 24.52 215.347 24.968C215.113 25.4053 214.995 25.944 214.995 26.584C214.995 27.5333 215.235 28.2693 215.715 28.792C216.206 29.304 216.819 29.56 217.555 29.56ZM225.758 23.48C226.068 23.0747 226.489 22.7333 227.022 22.456C227.556 22.1787 228.158 22.04 228.83 22.04C229.598 22.04 230.297 22.232 230.926 22.616C231.566 22.9893 232.068 23.5173 232.43 24.2C232.793 24.8827 232.974 25.6667 232.974 26.552C232.974 27.4373 232.793 28.232 232.43 28.936C232.068 29.6293 231.566 30.1733 230.926 30.568C230.297 30.952 229.598 31.144 228.83 31.144C228.158 31.144 227.561 31.0107 227.038 30.744C226.516 30.4667 226.089 30.1253 225.758 29.72V35.192H223.934V22.184H225.758V23.48ZM231.118 26.552C231.118 25.944 230.99 25.4213 230.734 24.984C230.489 24.536 230.158 24.2 229.742 23.976C229.337 23.7413 228.9 23.624 228.43 23.624C227.972 23.624 227.534 23.7413 227.118 23.976C226.713 24.2107 226.382 24.552 226.126 25C225.881 25.448 225.758 25.976 225.758 26.584C225.758 27.192 225.881 27.7253 226.126 28.184C226.382 28.632 226.713 28.9733 227.118 29.208C227.534 29.4427 227.972 29.56 228.43 29.56C228.9 29.56 229.337 29.4427 229.742 29.208C230.158 28.9627 230.489 28.6107 230.734 28.152C230.99 27.6933 231.118 27.16 231.118 26.552ZM245.45 22.04C246.143 22.04 246.762 22.184 247.306 22.472C247.861 22.76 248.293 23.1867 248.602 23.752C248.922 24.3173 249.082 25 249.082 25.8V31H247.274V26.072C247.274 25.2827 247.077 24.68 246.682 24.264C246.287 23.8373 245.749 23.624 245.066 23.624C244.383 23.624 243.839 23.8373 243.434 24.264C243.039 24.68 242.842 25.2827 242.842 26.072V31H241.034V26.072C241.034 25.2827 240.837 24.68 240.442 24.264C240.047 23.8373 239.509 23.624 238.826 23.624C238.143 23.624 237.599 23.8373 237.194 24.264C236.799 24.68 236.602 25.2827 236.602 26.072V31H234.778V22.184H236.602V23.192C236.901 22.8293 237.279 22.5467 237.738 22.344C238.197 22.1413 238.687 22.04 239.21 22.04C239.914 22.04 240.543 22.1893 241.098 22.488C241.653 22.7867 242.079 23.2187 242.378 23.784C242.645 23.2507 243.061 22.8293 243.626 22.52C244.191 22.2 244.799 22.04 245.45 22.04ZM259.483 26.376C259.483 26.7067 259.462 27.0053 259.419 27.272H252.683C252.736 27.976 252.998 28.5413 253.467 28.968C253.936 29.3947 254.512 29.608 255.195 29.608C256.176 29.608 256.87 29.1973 257.275 28.376H259.243C258.976 29.1867 258.491 29.8533 257.787 30.376C257.094 30.888 256.23 31.144 255.195 31.144C254.352 31.144 253.595 30.9573 252.923 30.584C252.262 30.2 251.739 29.6667 251.355 28.984C250.982 28.2907 250.795 27.4907 250.795 26.584C250.795 25.6773 250.976 24.8827 251.339 24.2C251.712 23.5067 252.23 22.9733 252.891 22.6C253.563 22.2267 254.331 22.04 255.195 22.04C256.027 22.04 256.768 22.2213 257.419 22.584C258.07 22.9467 258.576 23.4587 258.939 24.12C259.302 24.7707 259.483 25.5227 259.483 26.376ZM257.579 25.8C257.568 25.128 257.328 24.5893 256.859 24.184C256.39 23.7787 255.808 23.576 255.115 23.576C254.486 23.576 253.947 23.7787 253.499 24.184C253.051 24.5787 252.784 25.1173 252.699 25.8H257.579ZM265.726 22.04C266.419 22.04 267.038 22.184 267.582 22.472C268.137 22.76 268.569 23.1867 268.878 23.752C269.187 24.3173 269.342 25 269.342 25.8V31H267.534V26.072C267.534 25.2827 267.337 24.68 266.942 24.264C266.547 23.8373 266.009 23.624 265.326 23.624C264.643 23.624 264.099 23.8373 263.694 24.264C263.299 24.68 263.102 25.2827 263.102 26.072V31H261.278V22.184H263.102V23.192C263.401 22.8293 263.779 22.5467 264.238 22.344C264.707 22.1413 265.203 22.04 265.726 22.04ZM273.797 23.672V28.552C273.797 28.8827 273.871 29.1227 274.021 29.272C274.181 29.4107 274.447 29.48 274.821 29.48H275.941V31H274.501C273.679 31 273.05 30.808 272.613 30.424C272.175 30.04 271.957 29.416 271.957 28.552V23.672H270.917V22.184H271.957V19.992H273.797V22.184H275.941V23.672H273.797ZM285.474 23.672H283.842V31H282.002V23.672H280.962V22.184H282.002V21.56C282.002 20.5467 282.269 19.8107 282.802 19.352C283.346 18.8827 284.194 18.648 285.346 18.648V20.168C284.791 20.168 284.402 20.2747 284.178 20.488C283.954 20.6907 283.842 21.048 283.842 21.56V22.184H285.474V23.672ZM295.075 22.184V31H293.251V29.96C292.963 30.3227 292.584 30.6107 292.115 30.824C291.656 31.0267 291.165 31.128 290.643 31.128C289.949 31.128 289.325 30.984 288.771 30.696C288.227 30.408 287.795 29.9813 287.475 29.416C287.165 28.8507 287.011 28.168 287.011 27.368V22.184H288.819V27.096C288.819 27.8853 289.016 28.4933 289.411 28.92C289.805 29.336 290.344 29.544 291.027 29.544C291.709 29.544 292.248 29.336 292.643 28.92C293.048 28.4933 293.251 27.8853 293.251 27.096V22.184H295.075ZM301.929 22.04C302.623 22.04 303.241 22.184 303.785 22.472C304.34 22.76 304.772 23.1867 305.081 23.752C305.391 24.3173 305.545 25 305.545 25.8V31H303.737V26.072C303.737 25.2827 303.54 24.68 303.145 24.264C302.751 23.8373 302.212 23.624 301.529 23.624C300.847 23.624 300.303 23.8373 299.897 24.264C299.503 24.68 299.305 25.2827 299.305 26.072V31H297.481V22.184H299.305V23.192C299.604 22.8293 299.983 22.5467 300.441 22.344C300.911 22.1413 301.407 22.04 301.929 22.04ZM307.264 26.584C307.264 25.6773 307.445 24.8827 307.808 24.2C308.181 23.5067 308.693 22.9733 309.344 22.6C309.995 22.2267 310.741 22.04 311.584 22.04C312.651 22.04 313.531 22.296 314.224 22.808C314.928 23.3093 315.403 24.0293 315.648 24.968H313.68C313.52 24.5307 313.264 24.1893 312.912 23.944C312.56 23.6987 312.117 23.576 311.584 23.576C310.837 23.576 310.24 23.8427 309.792 24.376C309.355 24.8987 309.136 25.6347 309.136 26.584C309.136 27.5333 309.355 28.2747 309.792 28.808C310.24 29.3413 310.837 29.608 311.584 29.608C312.64 29.608 313.339 29.144 313.68 28.216H315.648C315.392 29.112 314.912 29.8267 314.208 30.36C313.504 30.8827 312.629 31.144 311.584 31.144C310.741 31.144 309.995 30.9573 309.344 30.584C308.693 30.2 308.181 29.6667 307.808 28.984C307.445 28.2907 307.264 27.4907 307.264 26.584ZM319.594 23.672V28.552C319.594 28.8827 319.668 29.1227 319.818 29.272C319.978 29.4107 320.244 29.48 320.618 29.48H321.738V31H320.298C319.476 31 318.847 30.808 318.41 30.424C317.972 30.04 317.754 29.416 317.754 28.552V23.672H316.714V22.184H317.754V19.992H319.594V22.184H321.738V23.672H319.594ZM324.347 21.016C324.016 21.016 323.739 20.904 323.515 20.68C323.291 20.456 323.179 20.1787 323.179 19.848C323.179 19.5173 323.291 19.24 323.515 19.016C323.739 18.792 324.016 18.68 324.347 18.68C324.667 18.68 324.939 18.792 325.163 19.016C325.387 19.24 325.499 19.5173 325.499 19.848C325.499 20.1787 325.387 20.456 325.163 20.68C324.939 20.904 324.667 21.016 324.347 21.016ZM325.243 22.184V31H323.419V22.184H325.243ZM331.462 31.144C330.63 31.144 329.878 30.9573 329.206 30.584C328.534 30.2 328.006 29.6667 327.622 28.984C327.238 28.2907 327.046 27.4907 327.046 26.584C327.046 25.688 327.243 24.8933 327.638 24.2C328.032 23.5067 328.571 22.9733 329.254 22.6C329.936 22.2267 330.699 22.04 331.542 22.04C332.384 22.04 333.147 22.2267 333.83 22.6C334.512 22.9733 335.051 23.5067 335.446 24.2C335.84 24.8933 336.038 25.688 336.038 26.584C336.038 27.48 335.835 28.2747 335.43 28.968C335.024 29.6613 334.47 30.2 333.766 30.584C333.072 30.9573 332.304 31.144 331.462 31.144ZM331.462 29.56C331.931 29.56 332.368 29.448 332.774 29.224C333.19 29 333.526 28.664 333.782 28.216C334.038 27.768 334.166 27.224 334.166 26.584C334.166 25.944 334.043 25.4053 333.798 24.968C333.552 24.52 333.227 24.184 332.822 23.96C332.416 23.736 331.979 23.624 331.51 23.624C331.04 23.624 330.603 23.736 330.198 23.96C329.803 24.184 329.488 24.52 329.254 24.968C329.019 25.4053 328.902 25.944 328.902 26.584C328.902 27.5333 329.142 28.2693 329.622 28.792C330.112 29.304 330.726 29.56 331.462 29.56ZM342.289 22.04C342.982 22.04 343.601 22.184 344.145 22.472C344.699 22.76 345.131 23.1867 345.441 23.752C345.75 24.3173 345.905 25 345.905 25.8V31H344.097V26.072C344.097 25.2827 343.899 24.68 343.505 24.264C343.11 23.8373 342.571 23.624 341.889 23.624C341.206 23.624 340.662 23.8373 340.257 24.264C339.862 24.68 339.665 25.2827 339.665 26.072V31H337.841V22.184H339.665V23.192C339.963 22.8293 340.342 22.5467 340.801 22.344C341.27 22.1413 341.766 22.04 342.289 22.04Z" fill="white"/>
<path d="M141.728 32.3162C141.592 32.7246 141.21 33 140.779 33L139.221 33C138.79 33 138.408 32.7246 138.272 32.3162L137.5 30L142.5 30L141.728 32.3162Z" fill="white"/>
<path d="M132.796 22.8569C132.507 22.5349 132.458 22.0635 132.674 21.6888L133.417 20.4016C133.634 20.0268 134.067 19.8337 134.49 19.9231L136.868 20.4253L134.42 24.665L132.796 22.8569Z" fill="white"/>
<path d="M147.2 27.1617C147.486 27.4838 147.533 27.9524 147.318 28.3252L146.539 29.6749C146.323 30.0476 145.894 30.2409 145.472 30.1546L143.08 29.6651L145.58 25.335L147.2 27.1617Z" fill="white"/>
<path d="M145.51 19.9228C145.933 19.8334 146.366 20.0265 146.582 20.4012L147.326 21.6887C147.542 22.0635 147.493 22.5349 147.204 22.8569L145.58 24.6651L143.132 20.4249L145.51 19.9228Z" fill="white"/>
<path d="M134.528 30.1545C134.106 30.2408 133.677 30.0476 133.461 29.6748L132.682 28.3251C132.467 27.9524 132.514 27.4837 132.8 27.1617L134.42 25.3349L136.92 29.665L134.528 30.1545Z" fill="white"/>
<mask id="path-8-inside-1_135_16" fill="white">
<path d="M142.25 21.1029C142.664 20.3854 143.6 20.1288 144.192 20.7076C144.769 21.2713 145.231 21.9492 145.543 22.7039C146.049 23.9242 146.137 25.2771 145.796 26.5529C145.454 27.8287 144.7 28.9561 143.653 29.7601C142.605 30.5642 141.321 31 140 31C138.679 31 137.395 30.5642 136.347 29.7601C135.3 28.9561 134.546 27.8287 134.204 26.5529C133.863 25.2771 133.951 23.9242 134.457 22.7039C134.769 21.9492 135.231 21.2713 135.808 20.7076C136.4 20.1288 137.336 20.3854 137.75 21.1029V21.1029C138.164 21.8203 137.869 22.7317 137.438 23.4391C137.358 23.5705 137.288 23.7084 137.228 23.852C136.976 24.4621 136.931 25.1386 137.102 25.7765C137.273 26.4144 137.65 26.978 138.174 27.3801C138.698 27.7821 139.34 28 140 28C140.66 28 141.302 27.7821 141.826 27.3801C142.35 26.978 142.727 26.4144 142.898 25.7765C143.069 25.1386 143.024 24.4621 142.772 23.8519C142.712 23.7084 142.642 23.5705 142.562 23.4391C142.131 22.7317 141.836 21.8203 142.25 21.1029V21.1029Z"/>
</mask>
<path d="M142.25 21.1029C142.664 20.3854 143.6 20.1288 144.192 20.7076C144.769 21.2713 145.231 21.9492 145.543 22.7039C146.049 23.9242 146.137 25.2771 145.796 26.5529C145.454 27.8287 144.7 28.9561 143.653 29.7601C142.605 30.5642 141.321 31 140 31C138.679 31 137.395 30.5642 136.347 29.7601C135.3 28.9561 134.546 27.8287 134.204 26.5529C133.863 25.2771 133.951 23.9242 134.457 22.7039C134.769 21.9492 135.231 21.2713 135.808 20.7076C136.4 20.1288 137.336 20.3854 137.75 21.1029V21.1029C138.164 21.8203 137.869 22.7317 137.438 23.4391C137.358 23.5705 137.288 23.7084 137.228 23.852C136.976 24.4621 136.931 25.1386 137.102 25.7765C137.273 26.4144 137.65 26.978 138.174 27.3801C138.698 27.7821 139.34 28 140 28C140.66 28 141.302 27.7821 141.826 27.3801C142.35 26.978 142.727 26.4144 142.898 25.7765C143.069 25.1386 143.024 24.4621 142.772 23.8519C142.712 23.7084 142.642 23.5705 142.562 23.4391C142.131 22.7317 141.836 21.8203 142.25 21.1029V21.1029Z" stroke="white" stroke-width="6" stroke-linejoin="round" mask="url(#path-8-inside-1_135_16)"/>
<rect x="139" y="24" width="2" height="2" rx="1" fill="white"/>
<rect x="139" y="17" width="2" height="6" rx="1" fill="white"/>
<path d="M69.2411 65.66V66.776H67.0211V74H65.6531V66.776H63.4211V65.66H69.2411ZM74.0466 67.28C74.5506 67.28 74.9986 67.388 75.3906 67.604C75.7906 67.82 76.1026 68.14 76.3266 68.564C76.5586 68.988 76.6746 69.5 76.6746 70.1V74H75.3186V70.304C75.3186 69.712 75.1706 69.26 74.8746 68.948C74.5786 68.628 74.1746 68.468 73.6626 68.468C73.1506 68.468 72.7426 68.628 72.4386 68.948C72.1426 69.26 71.9946 69.712 71.9946 70.304V74H70.6266V65.12H71.9946V68.156C72.2266 67.876 72.5186 67.66 72.8706 67.508C73.2306 67.356 73.6226 67.28 74.0466 67.28ZM79.1155 66.512C78.8675 66.512 78.6595 66.428 78.4915 66.26C78.3235 66.092 78.2395 65.884 78.2395 65.636C78.2395 65.388 78.3235 65.18 78.4915 65.012C78.6595 64.844 78.8675 64.76 79.1155 64.76C79.3555 64.76 79.5595 64.844 79.7275 65.012C79.8955 65.18 79.9795 65.388 79.9795 65.636C79.9795 65.884 79.8955 66.092 79.7275 66.26C79.5595 66.428 79.3555 66.512 79.1155 66.512ZM79.7875 67.388V74H78.4195V67.388H79.7875ZM83.9836 74.108C83.4636 74.108 82.9956 74.016 82.5796 73.832C82.1716 73.64 81.8476 73.384 81.6076 73.064C81.3676 72.736 81.2396 72.372 81.2236 71.972H82.6396C82.6636 72.252 82.7956 72.488 83.0356 72.68C83.2836 72.864 83.5916 72.956 83.9596 72.956C84.3436 72.956 84.6396 72.884 84.8476 72.74C85.0636 72.588 85.1716 72.396 85.1716 72.164C85.1716 71.916 85.0516 71.732 84.8116 71.612C84.5796 71.492 84.2076 71.36 83.6956 71.216C83.1996 71.08 82.7956 70.948 82.4836 70.82C82.1716 70.692 81.8996 70.496 81.6676 70.232C81.4436 69.968 81.3316 69.62 81.3316 69.188C81.3316 68.836 81.4356 68.516 81.6436 68.228C81.8516 67.932 82.1476 67.7 82.5316 67.532C82.9236 67.364 83.3716 67.28 83.8756 67.28C84.6276 67.28 85.2316 67.472 85.6876 67.856C86.1516 68.232 86.3996 68.748 86.4316 69.404H85.0636C85.0396 69.108 84.9196 68.872 84.7036 68.696C84.4876 68.52 84.1956 68.432 83.8276 68.432C83.4676 68.432 83.1916 68.5 82.9996 68.636C82.8076 68.772 82.7116 68.952 82.7116 69.176C82.7116 69.352 82.7756 69.5 82.9036 69.62C83.0316 69.74 83.1876 69.836 83.3716 69.908C83.5556 69.972 83.8276 70.056 84.1876 70.16C84.6676 70.288 85.0596 70.42 85.3636 70.556C85.6756 70.684 85.9436 70.876 86.1676 71.132C86.3916 71.388 86.5076 71.728 86.5156 72.152C86.5156 72.528 86.4116 72.864 86.2036 73.16C85.9956 73.456 85.6996 73.688 85.3156 73.856C84.9396 74.024 84.4956 74.108 83.9836 74.108ZM90.6549 70.664C90.6549 70 90.7909 69.412 91.0629 68.9C91.3429 68.388 91.7189 67.992 92.1909 67.712C92.6709 67.424 93.1989 67.28 93.7749 67.28C94.2949 67.28 94.7469 67.384 95.1309 67.592C95.5229 67.792 95.8349 68.044 96.0669 68.348V67.388H97.4469V74H96.0669V73.016C95.8349 73.328 95.5189 73.588 95.1189 73.796C94.7189 74.004 94.2629 74.108 93.7509 74.108C93.1829 74.108 92.6629 73.964 92.1909 73.676C91.7189 73.38 91.3429 72.972 91.0629 72.452C90.7909 71.924 90.6549 71.328 90.6549 70.664ZM96.0669 70.688C96.0669 70.232 95.9709 69.836 95.7789 69.5C95.5949 69.164 95.3509 68.908 95.0469 68.732C94.7429 68.556 94.4149 68.468 94.0629 68.468C93.7109 68.468 93.3829 68.556 93.0789 68.732C92.7749 68.9 92.5269 69.152 92.3349 69.488C92.1509 69.816 92.0589 70.208 92.0589 70.664C92.0589 71.12 92.1509 71.52 92.3349 71.864C92.5269 72.208 92.7749 72.472 93.0789 72.656C93.3909 72.832 93.7189 72.92 94.0629 72.92C94.4149 72.92 94.7429 72.832 95.0469 72.656C95.3509 72.48 95.5949 72.224 95.7789 71.888C95.9709 71.544 96.0669 71.144 96.0669 70.688ZM100.612 68.36C100.844 68.056 101.16 67.8 101.56 67.592C101.96 67.384 102.412 67.28 102.916 67.28C103.492 67.28 104.016 67.424 104.488 67.712C104.968 67.992 105.344 68.388 105.616 68.9C105.888 69.412 106.024 70 106.024 70.664C106.024 71.328 105.888 71.924 105.616 72.452C105.344 72.972 104.968 73.38 104.488 73.676C104.016 73.964 103.492 74.108 102.916 74.108C102.412 74.108 101.964 74.008 101.572 73.808C101.18 73.6 100.86 73.344 100.612 73.04V77.144H99.2438V67.388H100.612V68.36ZM104.632 70.664C104.632 70.208 104.536 69.816 104.344 69.488C104.16 69.152 103.912 68.9 103.6 68.732C103.296 68.556 102.968 68.468 102.616 68.468C102.272 68.468 101.944 68.556 101.632 68.732C101.328 68.908 101.08 69.164 100.888 69.5C100.704 69.836 100.612 70.232 100.612 70.688C100.612 71.144 100.704 71.544 100.888 71.888C101.08 72.224 101.328 72.48 101.632 72.656C101.944 72.832 102.272 72.92 102.616 72.92C102.968 72.92 103.296 72.832 103.6 72.656C103.912 72.472 104.16 72.208 104.344 71.864C104.536 71.52 104.632 71.12 104.632 70.664ZM108.745 68.36C108.977 68.056 109.293 67.8 109.693 67.592C110.093 67.384 110.545 67.28 111.049 67.28C111.625 67.28 112.149 67.424 112.621 67.712C113.101 67.992 113.477 68.388 113.749 68.9C114.021 69.412 114.157 70 114.157 70.664C114.157 71.328 114.021 71.924 113.749 72.452C113.477 72.972 113.101 73.38 112.621 73.676C112.149 73.964 111.625 74.108 111.049 74.108C110.545 74.108 110.097 74.008 109.705 73.808C109.313 73.6 108.993 73.344 108.745 73.04V77.144H107.377V67.388H108.745V68.36ZM112.765 70.664C112.765 70.208 112.669 69.816 112.477 69.488C112.293 69.152 112.045 68.9 111.733 68.732C111.429 68.556 111.101 68.468 110.749 68.468C110.405 68.468 110.077 68.556 109.765 68.732C109.461 68.908 109.213 69.164 109.021 69.5C108.837 69.836 108.745 70.232 108.745 70.688C108.745 71.144 108.837 71.544 109.021 71.888C109.213 72.224 109.461 72.48 109.765 72.656C110.077 72.832 110.405 72.92 110.749 72.92C111.101 72.92 111.429 72.832 111.733 72.656C112.045 72.472 112.293 72.208 112.477 71.864C112.669 71.52 112.765 71.12 112.765 70.664ZM116.877 65.12V74H115.509V65.12H116.877ZM119.369 66.512C119.121 66.512 118.913 66.428 118.745 66.26C118.577 66.092 118.493 65.884 118.493 65.636C118.493 65.388 118.577 65.18 118.745 65.012C118.913 64.844 119.121 64.76 119.369 64.76C119.609 64.76 119.813 64.844 119.981 65.012C120.149 65.18 120.233 65.388 120.233 65.636C120.233 65.884 120.149 66.092 119.981 66.26C119.813 66.428 119.609 66.512 119.369 66.512ZM120.041 67.388V74H118.673V67.388H120.041ZM121.382 70.688C121.382 70.008 121.518 69.412 121.79 68.9C122.07 68.38 122.454 67.98 122.942 67.7C123.43 67.42 123.99 67.28 124.622 67.28C125.422 67.28 126.082 67.472 126.602 67.856C127.13 68.232 127.486 68.772 127.67 69.476H126.194C126.074 69.148 125.882 68.892 125.618 68.708C125.354 68.524 125.022 68.432 124.622 68.432C124.062 68.432 123.614 68.632 123.278 69.032C122.95 69.424 122.786 69.976 122.786 70.688C122.786 71.4 122.95 71.956 123.278 72.356C123.614 72.756 124.062 72.956 124.622 72.956C125.414 72.956 125.938 72.608 126.194 71.912H127.67C127.478 72.584 127.118 73.12 126.59 73.52C126.062 73.912 125.406 74.108 124.622 74.108C123.99 74.108 123.43 73.968 122.942 73.688C122.454 73.4 122.07 73 121.79 72.488C121.518 71.968 121.382 71.368 121.382 70.688ZM128.577 70.664C128.577 70 128.713 69.412 128.985 68.9C129.265 68.388 129.641 67.992 130.113 67.712C130.593 67.424 131.121 67.28 131.697 67.28C132.217 67.28 132.669 67.384 133.053 67.592C133.445 67.792 133.757 68.044 133.989 68.348V67.388H135.369V74H133.989V73.016C133.757 73.328 133.441 73.588 133.041 73.796C132.641 74.004 132.185 74.108 131.673 74.108C131.105 74.108 130.585 73.964 130.113 73.676C129.641 73.38 129.265 72.972 128.985 72.452C128.713 71.924 128.577 71.328 128.577 70.664ZM133.989 70.688C133.989 70.232 133.893 69.836 133.701 69.5C133.517 69.164 133.273 68.908 132.969 68.732C132.665 68.556 132.337 68.468 131.985 68.468C131.633 68.468 131.305 68.556 131.001 68.732C130.697 68.9 130.449 69.152 130.257 69.488C130.073 69.816 129.981 70.208 129.981 70.664C129.981 71.12 130.073 71.52 130.257 71.864C130.449 72.208 130.697 72.472 131.001 72.656C131.313 72.832 131.641 72.92 131.985 72.92C132.337 72.92 132.665 72.832 132.969 72.656C133.273 72.48 133.517 72.224 133.701 71.888C133.893 71.544 133.989 71.144 133.989 70.688ZM138.762 68.504V72.164C138.762 72.412 138.818 72.592 138.93 72.704C139.05 72.808 139.25 72.86 139.53 72.86H140.37V74H139.29C138.674 74 138.202 73.856 137.874 73.568C137.546 73.28 137.382 72.812 137.382 72.164V68.504H136.602V67.388H137.382V65.744H138.762V67.388H140.37V68.504H138.762ZM142.326 66.512C142.078 66.512 141.87 66.428 141.702 66.26C141.534 66.092 141.45 65.884 141.45 65.636C141.45 65.388 141.534 65.18 141.702 65.012C141.87 64.844 142.078 64.76 142.326 64.76C142.566 64.76 142.77 64.844 142.938 65.012C143.106 65.18 143.19 65.388 143.19 65.636C143.19 65.884 143.106 66.092 142.938 66.26C142.77 66.428 142.566 66.512 142.326 66.512ZM142.998 67.388V74H141.63V67.388H142.998ZM147.663 74.108C147.039 74.108 146.475 73.968 145.971 73.688C145.467 73.4 145.071 73 144.783 72.488C144.495 71.968 144.351 71.368 144.351 70.688C144.351 70.016 144.499 69.42 144.795 68.9C145.091 68.38 145.495 67.98 146.007 67.7C146.519 67.42 147.091 67.28 147.723 67.28C148.355 67.28 148.927 67.42 149.439 67.7C149.951 67.98 150.355 68.38 150.651 68.9C150.947 69.42 151.095 70.016 151.095 70.688C151.095 71.36 150.943 71.956 150.639 72.476C150.335 72.996 149.919 73.4 149.391 73.688C148.871 73.968 148.295 74.108 147.663 74.108ZM147.663 72.92C148.015 72.92 148.343 72.836 148.647 72.668C148.959 72.5 149.211 72.248 149.403 71.912C149.595 71.576 149.691 71.168 149.691 70.688C149.691 70.208 149.599 69.804 149.415 69.476C149.231 69.14 148.987 68.888 148.683 68.72C148.379 68.552 148.051 68.468 147.699 68.468C147.347 68.468 147.019 68.552 146.715 68.72C146.419 68.888 146.183 69.14 146.007 69.476C145.831 69.804 145.743 70.208 145.743 70.688C145.743 71.4 145.923 71.952 146.283 72.344C146.651 72.728 147.111 72.92 147.663 72.92ZM155.783 67.28C156.303 67.28 156.767 67.388 157.175 67.604C157.591 67.82 157.915 68.14 158.147 68.564C158.379 68.988 158.495 69.5 158.495 70.1V74H157.139V70.304C157.139 69.712 156.991 69.26 156.695 68.948C156.399 68.628 155.995 68.468 155.483 68.468C154.971 68.468 154.563 68.628 154.259 68.948C153.963 69.26 153.815 69.712 153.815 70.304V74H152.447V67.388H153.815V68.144C154.039 67.872 154.323 67.66 154.667 67.508C155.019 67.356 155.391 67.28 155.783 67.28ZM164.053 66.512C163.805 66.512 163.597 66.428 163.429 66.26C163.261 66.092 163.177 65.884 163.177 65.636C163.177 65.388 163.261 65.18 163.429 65.012C163.597 64.844 163.805 64.76 164.053 64.76C164.293 64.76 164.497 64.844 164.665 65.012C164.833 65.18 164.917 65.388 164.917 65.636C164.917 65.884 164.833 66.092 164.665 66.26C164.497 66.428 164.293 66.512 164.053 66.512ZM164.725 67.388V74H163.357V67.388H164.725ZM168.921 74.108C168.401 74.108 167.933 74.016 167.517 73.832C167.109 73.64 166.785 73.384 166.545 73.064C166.305 72.736 166.177 72.372 166.161 71.972H167.577C167.601 72.252 167.733 72.488 167.973 72.68C168.221 72.864 168.529 72.956 168.897 72.956C169.281 72.956 169.577 72.884 169.785 72.74C170.001 72.588 170.109 72.396 170.109 72.164C170.109 71.916 169.989 71.732 169.749 71.612C169.517 71.492 169.145 71.36 168.633 71.216C168.137 71.08 167.733 70.948 167.421 70.82C167.109 70.692 166.837 70.496 166.605 70.232C166.381 69.968 166.269 69.62 166.269 69.188C166.269 68.836 166.373 68.516 166.581 68.228C166.789 67.932 167.085 67.7 167.469 67.532C167.861 67.364 168.309 67.28 168.813 67.28C169.565 67.28 170.169 67.472 170.625 67.856C171.089 68.232 171.337 68.748 171.369 69.404H170.001C169.977 69.108 169.857 68.872 169.641 68.696C169.425 68.52 169.133 68.432 168.765 68.432C168.405 68.432 168.129 68.5 167.937 68.636C167.745 68.772 167.649 68.952 167.649 69.176C167.649 69.352 167.713 69.5 167.841 69.62C167.969 69.74 168.125 69.836 168.309 69.908C168.493 69.972 168.765 70.056 169.125 70.16C169.605 70.288 169.997 70.42 170.301 70.556C170.613 70.684 170.881 70.876 171.105 71.132C171.329 71.388 171.445 71.728 171.453 72.152C171.453 72.528 171.349 72.864 171.141 73.16C170.933 73.456 170.637 73.688 170.253 73.856C169.877 74.024 169.433 74.108 168.921 74.108ZM182.036 67.388V74H180.668V73.22C180.452 73.492 180.168 73.708 179.816 73.868C179.472 74.02 179.104 74.096 178.712 74.096C178.192 74.096 177.724 73.988 177.308 73.772C176.9 73.556 176.576 73.236 176.336 72.812C176.104 72.388 175.988 71.876 175.988 71.276V67.388H177.344V71.072C177.344 71.664 177.492 72.12 177.788 72.44C178.084 72.752 178.488 72.908 179 72.908C179.512 72.908 179.916 72.752 180.212 72.44C180.516 72.12 180.668 71.664 180.668 71.072V67.388H182.036ZM187.177 67.28C187.697 67.28 188.161 67.388 188.569 67.604C188.985 67.82 189.309 68.14 189.541 68.564C189.773 68.988 189.889 69.5 189.889 70.1V74H188.533V70.304C188.533 69.712 188.385 69.26 188.089 68.948C187.793 68.628 187.389 68.468 186.877 68.468C186.365 68.468 185.957 68.628 185.653 68.948C185.357 69.26 185.209 69.712 185.209 70.304V74H183.841V67.388H185.209V68.144C185.433 67.872 185.717 67.66 186.061 67.508C186.413 67.356 186.785 67.28 187.177 67.28ZM191.178 70.664C191.178 70 191.314 69.412 191.586 68.9C191.866 68.388 192.242 67.992 192.714 67.712C193.194 67.424 193.726 67.28 194.31 67.28C194.742 67.28 195.166 67.376 195.582 67.568C196.006 67.752 196.342 68 196.59 68.312V65.12H197.97V74H196.59V73.004C196.366 73.324 196.054 73.588 195.654 73.796C195.262 74.004 194.81 74.108 194.298 74.108C193.722 74.108 193.194 73.964 192.714 73.676C192.242 73.38 191.866 72.972 191.586 72.452C191.314 71.924 191.178 71.328 191.178 70.664ZM196.59 70.688C196.59 70.232 196.494 69.836 196.302 69.5C196.118 69.164 195.874 68.908 195.57 68.732C195.266 68.556 194.938 68.468 194.586 68.468C194.234 68.468 193.906 68.556 193.602 68.732C193.298 68.9 193.05 69.152 192.858 69.488C192.674 69.816 192.582 70.208 192.582 70.664C192.582 71.12 192.674 71.52 192.858 71.864C193.05 72.208 193.298 72.472 193.602 72.656C193.914 72.832 194.242 72.92 194.586 72.92C194.938 72.92 195.266 72.832 195.57 72.656C195.874 72.48 196.118 72.224 196.302 71.888C196.494 71.544 196.59 71.144 196.59 70.688ZM205.827 70.532C205.827 70.78 205.811 71.004 205.779 71.204H200.727C200.767 71.732 200.963 72.156 201.315 72.476C201.667 72.796 202.099 72.956 202.611 72.956C203.347 72.956 203.867 72.648 204.171 72.032H205.647C205.447 72.64 205.083 73.14 204.555 73.532C204.035 73.916 203.387 74.108 202.611 74.108C201.979 74.108 201.411 73.968 200.907 73.688C200.411 73.4 200.019 73 199.731 72.488C199.451 71.968 199.311 71.368 199.311 70.688C199.311 70.008 199.447 69.412 199.719 68.9C199.999 68.38 200.387 67.98 200.883 67.7C201.387 67.42 201.963 67.28 202.611 67.28C203.235 67.28 203.791 67.416 204.279 67.688C204.767 67.96 205.147 68.344 205.419 68.84C205.691 69.328 205.827 69.892 205.827 70.532ZM204.399 70.1C204.391 69.596 204.211 69.192 203.859 68.888C203.507 68.584 203.071 68.432 202.551 68.432C202.079 68.432 201.675 68.584 201.339 68.888C201.003 69.184 200.803 69.588 200.739 70.1H204.399ZM208.541 68.348C208.741 68.012 209.005 67.752 209.333 67.568C209.669 67.376 210.065 67.28 210.521 67.28V68.696H210.173C209.637 68.696 209.229 68.832 208.949 69.104C208.677 69.376 208.541 69.848 208.541 70.52V74H207.173V67.388H208.541V68.348ZM214.44 70.664C214.44 70 214.576 69.412 214.848 68.9C215.128 68.388 215.504 67.992 215.976 67.712C216.456 67.424 216.988 67.28 217.572 67.28C218.004 67.28 218.428 67.376 218.844 67.568C219.268 67.752 219.604 68 219.852 68.312V65.12H221.232V74H219.852V73.004C219.628 73.324 219.316 73.588 218.916 73.796C218.524 74.004 218.072 74.108 217.56 74.108C216.984 74.108 216.456 73.964 215.976 73.676C215.504 73.38 215.128 72.972 214.848 72.452C214.576 71.924 214.44 71.328 214.44 70.664ZM219.852 70.688C219.852 70.232 219.756 69.836 219.564 69.5C219.38 69.164 219.136 68.908 218.832 68.732C218.528 68.556 218.2 68.468 217.848 68.468C217.496 68.468 217.168 68.556 216.864 68.732C216.56 68.9 216.312 69.152 216.12 69.488C215.936 69.816 215.844 70.208 215.844 70.664C215.844 71.12 215.936 71.52 216.12 71.864C216.312 72.208 216.56 72.472 216.864 72.656C217.176 72.832 217.504 72.92 217.848 72.92C218.2 72.92 218.528 72.832 218.832 72.656C219.136 72.48 219.38 72.224 219.564 71.888C219.756 71.544 219.852 71.144 219.852 70.688ZM229.089 70.532C229.089 70.78 229.073 71.004 229.041 71.204H223.989C224.029 71.732 224.225 72.156 224.577 72.476C224.929 72.796 225.361 72.956 225.873 72.956C226.609 72.956 227.129 72.648 227.433 72.032H228.909C228.709 72.64 228.345 73.14 227.817 73.532C227.297 73.916 226.649 74.108 225.873 74.108C225.241 74.108 224.673 73.968 224.169 73.688C223.673 73.4 223.281 73 222.993 72.488C222.713 71.968 222.573 71.368 222.573 70.688C222.573 70.008 222.709 69.412 222.981 68.9C223.261 68.38 223.649 67.98 224.145 67.7C224.649 67.42 225.225 67.28 225.873 67.28C226.497 67.28 227.053 67.416 227.541 67.688C228.029 67.96 228.409 68.344 228.681 68.84C228.953 69.328 229.089 69.892 229.089 70.532ZM227.661 70.1C227.653 69.596 227.473 69.192 227.121 68.888C226.769 68.584 226.333 68.432 225.813 68.432C225.341 68.432 224.937 68.584 224.601 68.888C224.265 69.184 224.065 69.588 224.001 70.1H227.661ZM232.991 72.776L234.863 67.388H236.315L233.795 74H232.163L229.655 67.388H231.119L232.991 72.776ZM243.409 70.532C243.409 70.78 243.393 71.004 243.361 71.204H238.309C238.349 71.732 238.545 72.156 238.897 72.476C239.249 72.796 239.681 72.956 240.193 72.956C240.929 72.956 241.449 72.648 241.753 72.032H243.229C243.029 72.64 242.665 73.14 242.137 73.532C241.617 73.916 240.969 74.108 240.193 74.108C239.561 74.108 238.993 73.968 238.489 73.688C237.993 73.4 237.601 73 237.313 72.488C237.033 71.968 236.893 71.368 236.893 70.688C236.893 70.008 237.029 69.412 237.301 68.9C237.581 68.38 237.969 67.98 238.465 67.7C238.969 67.42 239.545 67.28 240.193 67.28C240.817 67.28 241.373 67.416 241.861 67.688C242.349 67.96 242.729 68.344 243.001 68.84C243.273 69.328 243.409 69.892 243.409 70.532ZM241.981 70.1C241.973 69.596 241.793 69.192 241.441 68.888C241.089 68.584 240.653 68.432 240.133 68.432C239.661 68.432 239.257 68.584 238.921 68.888C238.585 69.184 238.385 69.588 238.321 70.1H241.981ZM246.123 65.12V74H244.755V65.12H246.123ZM250.788 74.108C250.164 74.108 249.6 73.968 249.096 73.688C248.592 73.4 248.196 73 247.908 72.488C247.62 71.968 247.476 71.368 247.476 70.688C247.476 70.016 247.624 69.42 247.92 68.9C248.216 68.38 248.62 67.98 249.132 67.7C249.644 67.42 250.216 67.28 250.848 67.28C251.48 67.28 252.052 67.42 252.564 67.7C253.076 67.98 253.48 68.38 253.776 68.9C254.072 69.42 254.22 70.016 254.22 70.688C254.22 71.36 254.068 71.956 253.764 72.476C253.46 72.996 253.044 73.4 252.516 73.688C251.996 73.968 251.42 74.108 250.788 74.108ZM250.788 72.92C251.14 72.92 251.468 72.836 251.772 72.668C252.084 72.5 252.336 72.248 252.528 71.912C252.72 71.576 252.816 71.168 252.816 70.688C252.816 70.208 252.724 69.804 252.54 69.476C252.356 69.14 252.112 68.888 251.808 68.72C251.504 68.552 251.176 68.468 250.824 68.468C250.472 68.468 250.144 68.552 249.84 68.72C249.544 68.888 249.308 69.14 249.132 69.476C248.956 69.804 248.868 70.208 248.868 70.688C248.868 71.4 249.048 71.952 249.408 72.344C249.776 72.728 250.236 72.92 250.788 72.92ZM256.94 68.36C257.172 68.056 257.488 67.8 257.888 67.592C258.288 67.384 258.74 67.28 259.244 67.28C259.82 67.28 260.344 67.424 260.816 67.712C261.296 67.992 261.672 68.388 261.944 68.9C262.216 69.412 262.352 70 262.352 70.664C262.352 71.328 262.216 71.924 261.944 72.452C261.672 72.972 261.296 73.38 260.816 73.676C260.344 73.964 259.82 74.108 259.244 74.108C258.74 74.108 258.292 74.008 257.9 73.808C257.508 73.6 257.188 73.344 256.94 73.04V77.144H255.572V67.388H256.94V68.36ZM260.96 70.664C260.96 70.208 260.864 69.816 260.672 69.488C260.488 69.152 260.24 68.9 259.928 68.732C259.624 68.556 259.296 68.468 258.944 68.468C258.6 68.468 258.272 68.556 257.96 68.732C257.656 68.908 257.408 69.164 257.216 69.5C257.032 69.836 256.94 70.232 256.94 70.688C256.94 71.144 257.032 71.544 257.216 71.888C257.408 72.224 257.656 72.48 257.96 72.656C258.272 72.832 258.6 72.92 258.944 72.92C259.296 72.92 259.624 72.832 259.928 72.656C260.24 72.472 260.488 72.208 260.672 71.864C260.864 71.52 260.96 71.12 260.96 70.664ZM271.709 67.28C272.229 67.28 272.693 67.388 273.101 67.604C273.517 67.82 273.841 68.14 274.073 68.564C274.313 68.988 274.433 69.5 274.433 70.1V74H273.077V70.304C273.077 69.712 272.929 69.26 272.633 68.948C272.337 68.628 271.933 68.468 271.421 68.468C270.909 68.468 270.501 68.628 270.197 68.948C269.901 69.26 269.753 69.712 269.753 70.304V74H268.397V70.304C268.397 69.712 268.249 69.26 267.953 68.948C267.657 68.628 267.253 68.468 266.741 68.468C266.229 68.468 265.821 68.628 265.517 68.948C265.221 69.26 265.073 69.712 265.073 70.304V74H263.705V67.388H265.073V68.144C265.297 67.872 265.581 67.66 265.925 67.508C266.269 67.356 266.637 67.28 267.029 67.28C267.557 67.28 268.029 67.392 268.445 67.616C268.861 67.84 269.181 68.164 269.405 68.588C269.605 68.188 269.917 67.872 270.341 67.64C270.765 67.4 271.221 67.28 271.709 67.28ZM282.233 70.532C282.233 70.78 282.217 71.004 282.185 71.204H277.133C277.173 71.732 277.369 72.156 277.721 72.476C278.073 72.796 278.505 72.956 279.017 72.956C279.753 72.956 280.273 72.648 280.577 72.032H282.053C281.853 72.64 281.489 73.14 280.961 73.532C280.441 73.916 279.793 74.108 279.017 74.108C278.385 74.108 277.817 73.968 277.313 73.688C276.817 73.4 276.425 73 276.137 72.488C275.857 71.968 275.717 71.368 275.717 70.688C275.717 70.008 275.853 69.412 276.125 68.9C276.405 68.38 276.793 67.98 277.289 67.7C277.793 67.42 278.369 67.28 279.017 67.28C279.641 67.28 280.197 67.416 280.685 67.688C281.173 67.96 281.553 68.344 281.825 68.84C282.097 69.328 282.233 69.892 282.233 70.532ZM280.805 70.1C280.797 69.596 280.617 69.192 280.265 68.888C279.913 68.584 279.477 68.432 278.957 68.432C278.485 68.432 278.081 68.584 277.745 68.888C277.409 69.184 277.209 69.588 277.145 70.1H280.805ZM286.916 67.28C287.436 67.28 287.9 67.388 288.308 67.604C288.724 67.82 289.048 68.14 289.28 68.564C289.512 68.988 289.628 69.5 289.628 70.1V74H288.272V70.304C288.272 69.712 288.124 69.26 287.828 68.948C287.532 68.628 287.128 68.468 286.616 68.468C286.104 68.468 285.696 68.628 285.392 68.948C285.096 69.26 284.948 69.712 284.948 70.304V74H283.58V67.388H284.948V68.144C285.172 67.872 285.456 67.66 285.8 67.508C286.152 67.356 286.524 67.28 286.916 67.28ZM292.969 68.504V72.164C292.969 72.412 293.025 72.592 293.137 72.704C293.257 72.808 293.457 72.86 293.737 72.86H294.577V74H293.497C292.881 74 292.409 73.856 292.081 73.568C291.753 73.28 291.589 72.812 291.589 72.164V68.504H290.809V67.388H291.589V65.744H292.969V67.388H294.577V68.504H292.969ZM297.338 72.356L295.886 75.668H294.998L295.85 72.356H297.338ZM302.346 66.512C302.098 66.512 301.89 66.428 301.722 66.26C301.554 66.092 301.47 65.884 301.47 65.636C301.47 65.388 301.554 65.18 301.722 65.012C301.89 64.844 302.098 64.76 302.346 64.76C302.586 64.76 302.79 64.844 302.958 65.012C303.126 65.18 303.21 65.388 303.21 65.636C303.21 65.884 303.126 66.092 302.958 66.26C302.79 66.428 302.586 66.512 302.346 66.512ZM303.018 67.388V74H301.65V67.388H303.018ZM306.41 68.504V72.164C306.41 72.412 306.466 72.592 306.578 72.704C306.698 72.808 306.898 72.86 307.178 72.86H308.018V74H306.938C306.322 74 305.85 73.856 305.522 73.568C305.194 73.28 305.03 72.812 305.03 72.164V68.504H304.25V67.388H305.03V65.744H306.41V67.388H308.018V68.504H306.41ZM320.4 67.28C320.92 67.28 321.384 67.388 321.792 67.604C322.208 67.82 322.532 68.14 322.764 68.564C323.004 68.988 323.124 69.5 323.124 70.1V74H321.768V70.304C321.768 69.712 321.62 69.26 321.324 68.948C321.028 68.628 320.624 68.468 320.112 68.468C319.6 68.468 319.192 68.628 318.888 68.948C318.592 69.26 318.444 69.712 318.444 70.304V74H317.088V70.304C317.088 69.712 316.94 69.26 316.644 68.948C316.348 68.628 315.944 68.468 315.432 68.468C314.92 68.468 314.512 68.628 314.208 68.948C313.912 69.26 313.764 69.712 313.764 70.304V74H312.396V67.388H313.764V68.144C313.988 67.872 314.272 67.66 314.616 67.508C314.96 67.356 315.328 67.28 315.72 67.28C316.248 67.28 316.72 67.392 317.136 67.616C317.552 67.84 317.872 68.164 318.096 68.588C318.296 68.188 318.608 67.872 319.032 67.64C319.456 67.4 319.912 67.28 320.4 67.28ZM324.409 70.664C324.409 70 324.545 69.412 324.817 68.9C325.097 68.388 325.473 67.992 325.945 67.712C326.425 67.424 326.953 67.28 327.529 67.28C328.049 67.28 328.501 67.384 328.885 67.592C329.277 67.792 329.589 68.044 329.821 68.348V67.388H331.201V74H329.821V73.016C329.589 73.328 329.273 73.588 328.873 73.796C328.473 74.004 328.017 74.108 327.505 74.108C326.937 74.108 326.417 73.964 325.945 73.676C325.473 73.38 325.097 72.972 324.817 72.452C324.545 71.924 324.409 71.328 324.409 70.664ZM329.821 70.688C329.821 70.232 329.725 69.836 329.533 69.5C329.349 69.164 329.105 68.908 328.801 68.732C328.497 68.556 328.169 68.468 327.817 68.468C327.465 68.468 327.137 68.556 326.833 68.732C326.529 68.9 326.281 69.152 326.089 69.488C325.905 69.816 325.813 70.208 325.813 70.664C325.813 71.12 325.905 71.52 326.089 71.864C326.281 72.208 326.529 72.472 326.833 72.656C327.145 72.832 327.473 72.92 327.817 72.92C328.169 72.92 328.497 72.832 328.801 72.656C329.105 72.48 329.349 72.224 329.533 71.888C329.725 71.544 329.821 71.144 329.821 70.688ZM338.95 67.388L334.894 77.108H333.478L334.822 73.892L332.218 67.388H333.742L335.602 72.428L337.534 67.388H338.95ZM344.467 68.372C344.699 68.052 345.015 67.792 345.415 67.592C345.823 67.384 346.275 67.28 346.771 67.28C347.355 67.28 347.883 67.42 348.355 67.7C348.827 67.98 349.199 68.38 349.471 68.9C349.743 69.412 349.879 70 349.879 70.664C349.879 71.328 349.743 71.924 349.471 72.452C349.199 72.972 348.823 73.38 348.343 73.676C347.871 73.964 347.347 74.108 346.771 74.108C346.259 74.108 345.803 74.008 345.403 73.808C345.011 73.608 344.699 73.352 344.467 73.04V74H343.099V65.12H344.467V68.372ZM348.487 70.664C348.487 70.208 348.391 69.816 348.199 69.488C348.015 69.152 347.767 68.9 347.455 68.732C347.151 68.556 346.823 68.468 346.471 68.468C346.127 68.468 345.799 68.556 345.487 68.732C345.183 68.908 344.935 69.164 344.743 69.5C344.559 69.836 344.467 70.232 344.467 70.688C344.467 71.144 344.559 71.544 344.743 71.888C344.935 72.224 345.183 72.48 345.487 72.656C345.799 72.832 346.127 72.92 346.471 72.92C346.823 72.92 347.151 72.832 347.455 72.656C347.767 72.472 348.015 72.208 348.199 71.864C348.391 71.52 348.487 71.12 348.487 70.664ZM357.292 70.532C357.292 70.78 357.276 71.004 357.244 71.204H352.192C352.232 71.732 352.428 72.156 352.78 72.476C353.132 72.796 353.564 72.956 354.076 72.956C354.812 72.956 355.332 72.648 355.636 72.032H357.112C356.912 72.64 356.548 73.14 356.02 73.532C355.5 73.916 354.852 74.108 354.076 74.108C353.444 74.108 352.876 73.968 352.372 73.688C351.876 73.4 351.484 73 351.196 72.488C350.916 71.968 350.776 71.368 350.776 70.688C350.776 70.008 350.912 69.412 351.184 68.9C351.464 68.38 351.852 67.98 352.348 67.7C352.852 67.42 353.428 67.28 354.076 67.28C354.7 67.28 355.256 67.416 355.744 67.688C356.232 67.96 356.612 68.344 356.884 68.84C357.156 69.328 357.292 69.892 357.292 70.532ZM355.864 70.1C355.856 69.596 355.676 69.192 355.324 68.888C354.972 68.584 354.536 68.432 354.016 68.432C353.544 68.432 353.14 68.584 352.804 68.888C352.468 69.184 352.268 69.588 352.204 70.1H355.864ZM367.743 67.388V74H366.375V73.22C366.159 73.492 365.875 73.708 365.523 73.868C365.179 74.02 364.811 74.096 364.419 74.096C363.899 74.096 363.431 73.988 363.015 73.772C362.607 73.556 362.283 73.236 362.043 72.812C361.811 72.388 361.695 71.876 361.695 71.276V67.388H363.051V71.072C363.051 71.664 363.199 72.12 363.495 72.44C363.791 72.752 364.195 72.908 364.707 72.908C365.219 72.908 365.623 72.752 365.919 72.44C366.223 72.12 366.375 71.664 366.375 71.072V67.388H367.743ZM372.884 67.28C373.404 67.28 373.868 67.388 374.276 67.604C374.692 67.82 375.016 68.14 375.248 68.564C375.48 68.988 375.596 69.5 375.596 70.1V74H374.24V70.304C374.24 69.712 374.092 69.26 373.796 68.948C373.5 68.628 373.096 68.468 372.584 68.468C372.072 68.468 371.664 68.628 371.36 68.948C371.064 69.26 370.916 69.712 370.916 70.304V74H369.548V67.388H370.916V68.144C371.14 67.872 371.424 67.66 371.768 67.508C372.12 67.356 372.492 67.28 372.884 67.28ZM379.741 74.108C379.221 74.108 378.753 74.016 378.337 73.832C377.929 73.64 377.605 73.384 377.365 73.064C377.125 72.736 376.997 72.372 376.981 71.972H378.397C378.421 72.252 378.553 72.488 378.793 72.68C379.041 72.864 379.349 72.956 379.717 72.956C380.101 72.956 380.397 72.884 380.605 72.74C380.821 72.588 380.929 72.396 380.929 72.164C380.929 71.916 380.809 71.732 380.569 71.612C380.337 71.492 379.965 71.36 379.453 71.216C378.957 71.08 378.553 70.948 378.241 70.82C377.929 70.692 377.657 70.496 377.425 70.232C377.201 69.968 377.089 69.62 377.089 69.188C377.089 68.836 377.193 68.516 377.401 68.228C377.609 67.932 377.905 67.7 378.289 67.532C378.681 67.364 379.129 67.28 379.633 67.28C380.385 67.28 380.989 67.472 381.445 67.856C381.909 68.232 382.157 68.748 382.189 69.404H380.821C380.797 69.108 380.677 68.872 380.461 68.696C380.245 68.52 379.953 68.432 379.585 68.432C379.225 68.432 378.949 68.5 378.757 68.636C378.565 68.772 378.469 68.952 378.469 69.176C378.469 69.352 378.533 69.5 378.661 69.62C378.789 69.74 378.945 69.836 379.129 69.908C379.313 69.972 379.585 70.056 379.945 70.16C380.425 70.288 380.817 70.42 381.121 70.556C381.433 70.684 381.701 70.876 381.925 71.132C382.149 71.388 382.265 71.728 382.273 72.152C382.273 72.528 382.169 72.864 381.961 73.16C381.753 73.456 381.457 73.688 381.073 73.856C380.697 74.024 380.253 74.108 379.741 74.108ZM385.348 68.504V72.164C385.348 72.412 385.404 72.592 385.516 72.704C385.636 72.808 385.836 72.86 386.116 72.86H386.956V74H385.876C385.26 74 384.788 73.856 384.46 73.568C384.132 73.28 383.968 72.812 383.968 72.164V68.504H383.188V67.388H383.968V65.744H385.348V67.388H386.956V68.504H385.348ZM387.76 70.664C387.76 70 387.896 69.412 388.168 68.9C388.448 68.388 388.824 67.992 389.296 67.712C389.776 67.424 390.304 67.28 390.88 67.28C391.4 67.28 391.852 67.384 392.236 67.592C392.628 67.792 392.94 68.044 393.172 68.348V67.388H394.552V74H393.172V73.016C392.94 73.328 392.624 73.588 392.224 73.796C391.824 74.004 391.368 74.108 390.856 74.108C390.288 74.108 389.768 73.964 389.296 73.676C388.824 73.38 388.448 72.972 388.168 72.452C387.896 71.924 387.76 71.328 387.76 70.664ZM393.172 70.688C393.172 70.232 393.076 69.836 392.884 69.5C392.7 69.164 392.456 68.908 392.152 68.732C391.848 68.556 391.52 68.468 391.168 68.468C390.816 68.468 390.488 68.556 390.184 68.732C389.88 68.9 389.632 69.152 389.44 69.488C389.256 69.816 389.164 70.208 389.164 70.664C389.164 71.12 389.256 71.52 389.44 71.864C389.632 72.208 389.88 72.472 390.184 72.656C390.496 72.832 390.824 72.92 391.168 72.92C391.52 72.92 391.848 72.832 392.152 72.656C392.456 72.48 392.7 72.224 392.884 71.888C393.076 71.544 393.172 71.144 393.172 70.688ZM397.717 68.372C397.949 68.052 398.265 67.792 398.665 67.592C399.073 67.384 399.525 67.28 400.021 67.28C400.605 67.28 401.133 67.42 401.605 67.7C402.077 67.98 402.449 68.38 402.721 68.9C402.993 69.412 403.129 70 403.129 70.664C403.129 71.328 402.993 71.924 402.721 72.452C402.449 72.972 402.073 73.38 401.593 73.676C401.121 73.964 400.597 74.108 400.021 74.108C399.509 74.108 399.053 74.008 398.653 73.808C398.261 73.608 397.949 73.352 397.717 73.04V74H396.349V65.12H397.717V68.372ZM401.737 70.664C401.737 70.208 401.641 69.816 401.449 69.488C401.265 69.152 401.017 68.9 400.705 68.732C400.401 68.556 400.073 68.468 399.721 68.468C399.377 68.468 399.049 68.556 398.737 68.732C398.433 68.908 398.185 69.164 397.993 69.5C397.809 69.836 397.717 70.232 397.717 70.688C397.717 71.144 397.809 71.544 397.993 71.888C398.185 72.224 398.433 72.48 398.737 72.656C399.049 72.832 399.377 72.92 399.721 72.92C400.073 72.92 400.401 72.832 400.705 72.656C401.017 72.472 401.265 72.208 401.449 71.864C401.641 71.52 401.737 71.12 401.737 70.664ZM405.85 65.12V74H404.482V65.12H405.85ZM413.706 70.532C413.706 70.78 413.69 71.004 413.658 71.204H408.606C408.646 71.732 408.842 72.156 409.194 72.476C409.546 72.796 409.978 72.956 410.49 72.956C411.226 72.956 411.746 72.648 412.05 72.032H413.526C413.326 72.64 412.962 73.14 412.434 73.532C411.914 73.916 411.266 74.108 410.49 74.108C409.858 74.108 409.29 73.968 408.786 73.688C408.29 73.4 407.898 73 407.61 72.488C407.33 71.968 407.19 71.368 407.19 70.688C407.19 70.008 407.326 69.412 407.598 68.9C407.878 68.38 408.266 67.98 408.762 67.7C409.266 67.42 409.842 67.28 410.49 67.28C411.114 67.28 411.67 67.416 412.158 67.688C412.646 67.96 413.026 68.344 413.298 68.84C413.57 69.328 413.706 69.892 413.706 70.532ZM412.278 70.1C412.27 69.596 412.09 69.192 411.738 68.888C411.386 68.584 410.95 68.432 410.43 68.432C409.958 68.432 409.554 68.584 409.218 68.888C408.882 69.184 408.682 69.588 408.618 70.1H412.278ZM415.604 74.084C415.356 74.084 415.148 74 414.98 73.832C414.812 73.664 414.728 73.456 414.728 73.208C414.728 72.96 414.812 72.752 414.98 72.584C415.148 72.416 415.356 72.332 415.604 72.332C415.844 72.332 416.048 72.416 416.216 72.584C416.384 72.752 416.468 72.96 416.468 73.208C416.468 73.456 416.384 73.664 416.216 73.832C416.048 74 415.844 74.084 415.604 74.084Z" fill="white"/>
</svg>
