<svg width="300" height="40" viewBox="0 0 300 40" fill="none" xmlns="http://www.w3.org/2000/svg">
<rect width="300" height="40" rx="15" fill="black" fill-opacity="0.1"/>
<path d="M45.928 22.296H42.436L41.836 24H40.408L43.396 15.648H44.98L47.968 24H46.528L45.928 22.296ZM45.544 21.18L44.188 17.304L42.82 21.18H45.544ZM52.6032 17.28C53.1232 17.28 53.5872 17.388 53.9952 17.604C54.4112 17.82 54.7352 18.14 54.9672 18.564C55.1992 18.988 55.3152 19.5 55.3152 20.1V24H53.9592V20.304C53.9592 19.712 53.8112 19.26 53.5152 18.948C53.2192 18.628 52.8152 18.468 52.3032 18.468C51.7912 18.468 51.3832 18.628 51.0792 18.948C50.7832 19.26 50.6352 19.712 50.6352 20.304V24H49.2672V17.388H50.6352V18.144C50.8592 17.872 51.1432 17.66 51.4872 17.508C51.8392 17.356 52.2112 17.28 52.6032 17.28ZM57.7562 16.512C57.5082 16.512 57.3002 16.428 57.1322 16.26C56.9642 16.092 56.8802 15.884 56.8802 15.636C56.8802 15.388 56.9642 15.18 57.1322 15.012C57.3002 14.844 57.5082 14.76 57.7562 14.76C57.9962 14.76 58.2002 14.844 58.3682 15.012C58.5362 15.18 58.6202 15.388 58.6202 15.636C58.6202 15.884 58.5362 16.092 58.3682 16.26C58.2002 16.428 57.9962 16.512 57.7562 16.512ZM58.4282 17.388V24H57.0602V17.388H58.4282ZM68.2282 17.28C68.7482 17.28 69.2122 17.388 69.6202 17.604C70.0362 17.82 70.3602 18.14 70.5922 18.564C70.8322 18.988 70.9522 19.5 70.9522 20.1V24H69.5962V20.304C69.5962 19.712 69.4482 19.26 69.1522 18.948C68.8562 18.628 68.4522 18.468 67.9402 18.468C67.4282 18.468 67.0202 18.628 66.7162 18.948C66.4202 19.26 66.2722 19.712 66.2722 20.304V24H64.9162V20.304C64.9162 19.712 64.7682 19.26 64.4722 18.948C64.1762 18.628 63.7722 18.468 63.2602 18.468C62.7482 18.468 62.3402 18.628 62.0362 18.948C61.7402 19.26 61.5922 19.712 61.5922 20.304V24H60.2242V17.388H61.5922V18.144C61.8162 17.872 62.1002 17.66 62.4442 17.508C62.7882 17.356 63.1562 17.28 63.5482 17.28C64.0762 17.28 64.5482 17.392 64.9642 17.616C65.3802 17.84 65.7002 18.164 65.9242 18.588C66.1242 18.188 66.4362 17.872 66.8602 17.64C67.2842 17.4 67.7402 17.28 68.2282 17.28ZM72.237 20.664C72.237 20 72.373 19.412 72.645 18.9C72.925 18.388 73.301 17.992 73.773 17.712C74.253 17.424 74.781 17.28 75.357 17.28C75.877 17.28 76.329 17.384 76.713 17.592C77.105 17.792 77.417 18.044 77.649 18.348V17.388H79.029V24H77.649V23.016C77.417 23.328 77.101 23.588 76.701 23.796C76.301 24.004 75.845 24.108 75.333 24.108C74.765 24.108 74.245 23.964 73.773 23.676C73.301 23.38 72.925 22.972 72.645 22.452C72.373 21.924 72.237 21.328 72.237 20.664ZM77.649 20.688C77.649 20.232 77.553 19.836 77.361 19.5C77.177 19.164 76.933 18.908 76.629 18.732C76.325 18.556 75.997 18.468 75.645 18.468C75.293 18.468 74.965 18.556 74.661 18.732C74.357 18.9 74.109 19.152 73.917 19.488C73.733 19.816 73.641 20.208 73.641 20.664C73.641 21.12 73.733 21.52 73.917 21.864C74.109 22.208 74.357 22.472 74.661 22.656C74.973 22.832 75.301 22.92 75.645 22.92C75.997 22.92 76.325 22.832 76.629 22.656C76.933 22.48 77.177 22.224 77.361 21.888C77.553 21.544 77.649 21.144 77.649 20.688ZM82.4218 18.504V22.164C82.4218 22.412 82.4778 22.592 82.5898 22.704C82.7098 22.808 82.9098 22.86 83.1898 22.86H84.0298V24H82.9498C82.3338 24 81.8618 23.856 81.5338 23.568C81.2058 23.28 81.0418 22.812 81.0418 22.164V18.504H80.2618V17.388H81.0418V15.744H82.4218V17.388H84.0298V18.504H82.4218ZM91.3506 20.532C91.3506 20.78 91.3346 21.004 91.3026 21.204H86.2506C86.2906 21.732 86.4866 22.156 86.8386 22.476C87.1906 22.796 87.6226 22.956 88.1346 22.956C88.8706 22.956 89.3906 22.648 89.6946 22.032H91.1706C90.9706 22.64 90.6066 23.14 90.0786 23.532C89.5586 23.916 88.9106 24.108 88.1346 24.108C87.5026 24.108 86.9346 23.968 86.4306 23.688C85.9346 23.4 85.5426 23 85.2546 22.488C84.9746 21.968 84.8346 21.368 84.8346 20.688C84.8346 20.008 84.9706 19.412 85.2426 18.9C85.5226 18.38 85.9106 17.98 86.4066 17.7C86.9106 17.42 87.4866 17.28 88.1346 17.28C88.7586 17.28 89.3146 17.416 89.8026 17.688C90.2906 17.96 90.6706 18.344 90.9426 18.84C91.2146 19.328 91.3506 19.892 91.3506 20.532ZM89.9226 20.1C89.9146 19.596 89.7346 19.192 89.3826 18.888C89.0306 18.584 88.5946 18.432 88.0746 18.432C87.6026 18.432 87.1986 18.584 86.8626 18.888C86.5266 19.184 86.3266 19.588 86.2626 20.1H89.9226ZM92.2409 20.664C92.2409 20 92.3769 19.412 92.6489 18.9C92.9289 18.388 93.3049 17.992 93.7769 17.712C94.2569 17.424 94.7889 17.28 95.3729 17.28C95.8049 17.28 96.2289 17.376 96.6449 17.568C97.0689 17.752 97.4049 18 97.6529 18.312V15.12H99.0329V24H97.6529V23.004C97.4289 23.324 97.1169 23.588 96.7169 23.796C96.3249 24.004 95.8729 24.108 95.3609 24.108C94.7849 24.108 94.2569 23.964 93.7769 23.676C93.3049 23.38 92.9289 22.972 92.6489 22.452C92.3769 21.924 92.2409 21.328 92.2409 20.664ZM97.6529 20.688C97.6529 20.232 97.5569 19.836 97.3649 19.5C97.1809 19.164 96.9369 18.908 96.6329 18.732C96.3289 18.556 96.0009 18.468 95.6489 18.468C95.2969 18.468 94.9689 18.556 94.6649 18.732C94.3609 18.9 94.1129 19.152 93.9209 19.488C93.7369 19.816 93.6449 20.208 93.6449 20.664C93.6449 21.12 93.7369 21.52 93.9209 21.864C94.1129 22.208 94.3609 22.472 94.6649 22.656C94.9769 22.832 95.3049 22.92 95.6489 22.92C96.0009 22.92 96.3289 22.832 96.6329 22.656C96.9369 22.48 97.1809 22.224 97.3649 21.888C97.5569 21.544 97.6529 21.144 97.6529 20.688ZM104.643 16.512C104.395 16.512 104.187 16.428 104.019 16.26C103.851 16.092 103.767 15.884 103.767 15.636C103.767 15.388 103.851 15.18 104.019 15.012C104.187 14.844 104.395 14.76 104.643 14.76C104.883 14.76 105.087 14.844 105.255 15.012C105.423 15.18 105.507 15.388 105.507 15.636C105.507 15.884 105.423 16.092 105.255 16.26C105.087 16.428 104.883 16.512 104.643 16.512ZM105.315 17.388V24H103.947V17.388H105.315ZM115.115 17.28C115.635 17.28 116.099 17.388 116.507 17.604C116.923 17.82 117.247 18.14 117.479 18.564C117.719 18.988 117.839 19.5 117.839 20.1V24H116.483V20.304C116.483 19.712 116.335 19.26 116.039 18.948C115.743 18.628 115.339 18.468 114.827 18.468C114.315 18.468 113.907 18.628 113.603 18.948C113.307 19.26 113.159 19.712 113.159 20.304V24H111.803V20.304C111.803 19.712 111.655 19.26 111.359 18.948C111.063 18.628 110.659 18.468 110.147 18.468C109.635 18.468 109.227 18.628 108.923 18.948C108.627 19.26 108.479 19.712 108.479 20.304V24H107.111V17.388H108.479V18.144C108.703 17.872 108.987 17.66 109.331 17.508C109.675 17.356 110.043 17.28 110.435 17.28C110.963 17.28 111.435 17.392 111.851 17.616C112.267 17.84 112.587 18.164 112.811 18.588C113.011 18.188 113.323 17.872 113.747 17.64C114.171 17.4 114.627 17.28 115.115 17.28ZM119.124 20.664C119.124 20 119.26 19.412 119.532 18.9C119.812 18.388 120.188 17.992 120.66 17.712C121.14 17.424 121.668 17.28 122.244 17.28C122.764 17.28 123.216 17.384 123.6 17.592C123.992 17.792 124.304 18.044 124.536 18.348V17.388H125.916V24H124.536V23.016C124.304 23.328 123.988 23.588 123.588 23.796C123.188 24.004 122.732 24.108 122.22 24.108C121.652 24.108 121.132 23.964 120.66 23.676C120.188 23.38 119.812 22.972 119.532 22.452C119.26 21.924 119.124 21.328 119.124 20.664ZM124.536 20.688C124.536 20.232 124.44 19.836 124.248 19.5C124.064 19.164 123.82 18.908 123.516 18.732C123.212 18.556 122.884 18.468 122.532 18.468C122.18 18.468 121.852 18.556 121.548 18.732C121.244 18.9 120.996 19.152 120.804 19.488C120.62 19.816 120.528 20.208 120.528 20.664C120.528 21.12 120.62 21.52 120.804 21.864C120.996 22.208 121.244 22.472 121.548 22.656C121.86 22.832 122.188 22.92 122.532 22.92C122.884 22.92 123.212 22.832 123.516 22.656C123.82 22.48 124.064 22.224 124.248 21.888C124.44 21.544 124.536 21.144 124.536 20.688ZM130.377 17.28C130.889 17.28 131.341 17.384 131.733 17.592C132.133 17.792 132.445 18.044 132.669 18.348V17.388H134.049V24.108C134.049 24.716 133.921 25.256 133.665 25.728C133.409 26.208 133.037 26.584 132.549 26.856C132.069 27.128 131.493 27.264 130.821 27.264C129.925 27.264 129.181 27.052 128.589 26.628C127.997 26.212 127.661 25.644 127.581 24.924H128.937C129.041 25.268 129.261 25.544 129.597 25.752C129.941 25.968 130.349 26.076 130.821 26.076C131.373 26.076 131.817 25.908 132.153 25.572C132.497 25.236 132.669 24.748 132.669 24.108V23.004C132.437 23.316 132.121 23.58 131.721 23.796C131.329 24.004 130.881 24.108 130.377 24.108C129.801 24.108 129.273 23.964 128.793 23.676C128.321 23.38 127.945 22.972 127.665 22.452C127.393 21.924 127.257 21.328 127.257 20.664C127.257 20 127.393 19.412 127.665 18.9C127.945 18.388 128.321 17.992 128.793 17.712C129.273 17.424 129.801 17.28 130.377 17.28ZM132.669 20.688C132.669 20.232 132.573 19.836 132.381 19.5C132.197 19.164 131.953 18.908 131.649 18.732C131.345 18.556 131.017 18.468 130.665 18.468C130.313 18.468 129.985 18.556 129.681 18.732C129.377 18.9 129.129 19.152 128.937 19.488C128.753 19.816 128.661 20.208 128.661 20.664C128.661 21.12 128.753 21.52 128.937 21.864C129.129 22.208 129.377 22.472 129.681 22.656C129.993 22.832 130.321 22.92 130.665 22.92C131.017 22.92 131.345 22.832 131.649 22.656C131.953 22.48 132.197 22.224 132.381 21.888C132.573 21.544 132.669 21.144 132.669 20.688ZM141.905 20.532C141.905 20.78 141.889 21.004 141.857 21.204H136.805C136.845 21.732 137.041 22.156 137.393 22.476C137.745 22.796 138.177 22.956 138.689 22.956C139.425 22.956 139.945 22.648 140.249 22.032H141.725C141.525 22.64 141.161 23.14 140.633 23.532C140.113 23.916 139.465 24.108 138.689 24.108C138.057 24.108 137.489 23.968 136.985 23.688C136.489 23.4 136.097 23 135.809 22.488C135.529 21.968 135.389 21.368 135.389 20.688C135.389 20.008 135.525 19.412 135.797 18.9C136.077 18.38 136.465 17.98 136.961 17.7C137.465 17.42 138.041 17.28 138.689 17.28C139.313 17.28 139.869 17.416 140.357 17.688C140.845 17.96 141.225 18.344 141.497 18.84C141.769 19.328 141.905 19.892 141.905 20.532ZM140.477 20.1C140.469 19.596 140.289 19.192 139.937 18.888C139.585 18.584 139.149 18.432 138.629 18.432C138.157 18.432 137.753 18.584 137.417 18.888C137.081 19.184 136.881 19.588 136.817 20.1H140.477ZM148.229 21.564C147.941 21.564 147.677 21.496 147.437 21.36C147.205 21.216 147.017 21.028 146.873 20.796C146.737 20.556 146.669 20.292 146.669 20.004C146.669 19.564 146.821 19.192 147.125 18.888C147.429 18.584 147.797 18.432 148.229 18.432C148.677 18.432 149.053 18.584 149.357 18.888C149.661 19.192 149.813 19.564 149.813 20.004C149.813 20.444 149.661 20.816 149.357 21.12C149.053 21.416 148.677 21.564 148.229 21.564ZM160.057 22.296H156.565L155.965 24H154.537L157.525 15.648H159.109L162.097 24H160.657L160.057 22.296ZM159.673 21.18L158.317 17.304L156.949 21.18H159.673ZM164.764 18.36C164.996 18.056 165.312 17.8 165.712 17.592C166.112 17.384 166.564 17.28 167.068 17.28C167.644 17.28 168.168 17.424 168.64 17.712C169.12 17.992 169.496 18.388 169.768 18.9C170.04 19.412 170.176 20 170.176 20.664C170.176 21.328 170.04 21.924 169.768 22.452C169.496 22.972 169.12 23.38 168.64 23.676C168.168 23.964 167.644 24.108 167.068 24.108C166.564 24.108 166.116 24.008 165.724 23.808C165.332 23.6 165.012 23.344 164.764 23.04V27.144H163.396V17.388H164.764V18.36ZM168.784 20.664C168.784 20.208 168.688 19.816 168.496 19.488C168.312 19.152 168.064 18.9 167.752 18.732C167.448 18.556 167.12 18.468 166.768 18.468C166.424 18.468 166.096 18.556 165.784 18.732C165.48 18.908 165.232 19.164 165.04 19.5C164.856 19.836 164.764 20.232 164.764 20.688C164.764 21.144 164.856 21.544 165.04 21.888C165.232 22.224 165.48 22.48 165.784 22.656C166.096 22.832 166.424 22.92 166.768 22.92C167.12 22.92 167.448 22.832 167.752 22.656C168.064 22.472 168.312 22.208 168.496 21.864C168.688 21.52 168.784 21.12 168.784 20.664ZM172.897 18.36C173.129 18.056 173.445 17.8 173.845 17.592C174.245 17.384 174.697 17.28 175.201 17.28C175.777 17.28 176.301 17.424 176.773 17.712C177.253 17.992 177.629 18.388 177.901 18.9C178.173 19.412 178.309 20 178.309 20.664C178.309 21.328 178.173 21.924 177.901 22.452C177.629 22.972 177.253 23.38 176.773 23.676C176.301 23.964 175.777 24.108 175.201 24.108C174.697 24.108 174.249 24.008 173.857 23.808C173.465 23.6 173.145 23.344 172.897 23.04V27.144H171.529V17.388H172.897V18.36ZM176.917 20.664C176.917 20.208 176.821 19.816 176.629 19.488C176.445 19.152 176.197 18.9 175.885 18.732C175.581 18.556 175.253 18.468 174.901 18.468C174.557 18.468 174.229 18.556 173.917 18.732C173.613 18.908 173.365 19.164 173.173 19.5C172.989 19.836 172.897 20.232 172.897 20.688C172.897 21.144 172.989 21.544 173.173 21.888C173.365 22.224 173.613 22.48 173.917 22.656C174.229 22.832 174.557 22.92 174.901 22.92C175.253 22.92 175.581 22.832 175.885 22.656C176.197 22.472 176.445 22.208 176.629 21.864C176.821 21.52 176.917 21.12 176.917 20.664Z" fill="black"/>
<circle cx="15" cy="20" r="3.5" fill="#949494" stroke="#E6E6E6"/>
<circle cx="20" cy="20" r="3.5" fill="#454545" stroke="#E6E6E6"/>
<circle cx="25" cy="20" r="3.5" fill="black" stroke="#E6E6E6"/>
</svg>
