<svg width="300" height="40" viewBox="0 0 300 40" fill="none" xmlns="http://www.w3.org/2000/svg">
<rect width="300" height="40" rx="15" fill="white" fill-opacity="0.1"/>
<path d="M13.7774 19.812C13.7774 18.996 13.9654 18.264 14.3414 17.616C14.7254 16.968 15.2414 16.464 15.8894 16.104C16.5454 15.736 17.2614 15.552 18.0374 15.552C18.9254 15.552 19.7134 15.772 20.4014 16.212C21.0974 16.644 21.6014 17.26 21.9134 18.06H20.2694C20.0534 17.62 19.7534 17.292 19.3694 17.076C18.9854 16.86 18.5414 16.752 18.0374 16.752C17.4854 16.752 16.9934 16.876 16.5614 17.124C16.1294 17.372 15.7894 17.728 15.5414 18.192C15.3014 18.656 15.1814 19.196 15.1814 19.812C15.1814 20.428 15.3014 20.968 15.5414 21.432C15.7894 21.896 16.1294 22.256 16.5614 22.512C16.9934 22.76 17.4854 22.884 18.0374 22.884C18.5414 22.884 18.9854 22.776 19.3694 22.56C19.7534 22.344 20.0534 22.016 20.2694 21.576H21.9134C21.6014 22.376 21.0974 22.992 20.4014 23.424C19.7134 23.856 18.9254 24.072 18.0374 24.072C17.2534 24.072 16.5374 23.892 15.8894 23.532C15.2414 23.164 14.7254 22.656 14.3414 22.008C13.9654 21.36 13.7774 20.628 13.7774 19.812ZM23.0586 20.664C23.0586 20 23.1946 19.412 23.4666 18.9C23.7466 18.388 24.1226 17.992 24.5946 17.712C25.0746 17.424 25.6026 17.28 26.1786 17.28C26.6986 17.28 27.1506 17.384 27.5346 17.592C27.9266 17.792 28.2386 18.044 28.4706 18.348V17.388H29.8506V24H28.4706V23.016C28.2386 23.328 27.9226 23.588 27.5226 23.796C27.1226 24.004 26.6666 24.108 26.1546 24.108C25.5866 24.108 25.0666 23.964 24.5946 23.676C24.1226 23.38 23.7466 22.972 23.4666 22.452C23.1946 21.924 23.0586 21.328 23.0586 20.664ZM28.4706 20.688C28.4706 20.232 28.3746 19.836 28.1826 19.5C27.9986 19.164 27.7546 18.908 27.4506 18.732C27.1466 18.556 26.8186 18.468 26.4666 18.468C26.1146 18.468 25.7866 18.556 25.4826 18.732C25.1786 18.9 24.9306 19.152 24.7386 19.488C24.5546 19.816 24.4626 20.208 24.4626 20.664C24.4626 21.12 24.5546 21.52 24.7386 21.864C24.9306 22.208 25.1786 22.472 25.4826 22.656C25.7946 22.832 26.1226 22.92 26.4666 22.92C26.8186 22.92 27.1466 22.832 27.4506 22.656C27.7546 22.48 27.9986 22.224 28.1826 21.888C28.3746 21.544 28.4706 21.144 28.4706 20.688ZM34.9834 17.28C35.5034 17.28 35.9674 17.388 36.3754 17.604C36.7914 17.82 37.1154 18.14 37.3474 18.564C37.5794 18.988 37.6954 19.5 37.6954 20.1V24H36.3394V20.304C36.3394 19.712 36.1914 19.26 35.8954 18.948C35.5994 18.628 35.1954 18.468 34.6834 18.468C34.1714 18.468 33.7634 18.628 33.4594 18.948C33.1634 19.26 33.0154 19.712 33.0154 20.304V24H31.6474V17.388H33.0154V18.144C33.2394 17.872 33.5234 17.66 33.8674 17.508C34.2194 17.356 34.5914 17.28 34.9834 17.28ZM48.7376 15.66L45.9776 20.976V24H44.6096V20.976L41.8376 15.66H43.3616L45.2936 19.752L47.2256 15.66H48.7376ZM52.6912 24.108C52.0672 24.108 51.5032 23.968 50.9992 23.688C50.4952 23.4 50.0992 23 49.8112 22.488C49.5232 21.968 49.3792 21.368 49.3792 20.688C49.3792 20.016 49.5272 19.42 49.8232 18.9C50.1192 18.38 50.5232 17.98 51.0352 17.7C51.5472 17.42 52.1192 17.28 52.7512 17.28C53.3832 17.28 53.9552 17.42 54.4672 17.7C54.9792 17.98 55.3832 18.38 55.6792 18.9C55.9752 19.42 56.1232 20.016 56.1232 20.688C56.1232 21.36 55.9712 21.956 55.6672 22.476C55.3632 22.996 54.9472 23.4 54.4192 23.688C53.8992 23.968 53.3232 24.108 52.6912 24.108ZM52.6912 22.92C53.0432 22.92 53.3712 22.836 53.6752 22.668C53.9872 22.5 54.2392 22.248 54.4312 21.912C54.6232 21.576 54.7192 21.168 54.7192 20.688C54.7192 20.208 54.6272 19.804 54.4432 19.476C54.2592 19.14 54.0152 18.888 53.7112 18.72C53.4072 18.552 53.0792 18.468 52.7272 18.468C52.3752 18.468 52.0472 18.552 51.7432 18.72C51.4472 18.888 51.2112 19.14 51.0352 19.476C50.8592 19.804 50.7712 20.208 50.7712 20.688C50.7712 21.4 50.9512 21.952 51.3112 22.344C51.6792 22.728 52.1392 22.92 52.6912 22.92ZM63.4636 17.388V24H62.0956V23.22C61.8796 23.492 61.5956 23.708 61.2436 23.868C60.8996 24.02 60.5316 24.096 60.1396 24.096C59.6196 24.096 59.1516 23.988 58.7356 23.772C58.3276 23.556 58.0036 23.236 57.7636 22.812C57.5316 22.388 57.4156 21.876 57.4156 21.276V17.388H58.7716V21.072C58.7716 21.664 58.9196 22.12 59.2156 22.44C59.5116 22.752 59.9156 22.908 60.4276 22.908C60.9396 22.908 61.3436 22.752 61.6396 22.44C61.9436 22.12 62.0956 21.664 62.0956 21.072V17.388H63.4636ZM73.2937 15.66V16.776H69.7537V19.236H72.5137V20.352H69.7537V24H68.3857V15.66H73.2937ZM80.6215 20.532C80.6215 20.78 80.6055 21.004 80.5735 21.204H75.5215C75.5615 21.732 75.7575 22.156 76.1095 22.476C76.4615 22.796 76.8935 22.956 77.4055 22.956C78.1415 22.956 78.6615 22.648 78.9655 22.032H80.4415C80.2415 22.64 79.8775 23.14 79.3495 23.532C78.8295 23.916 78.1815 24.108 77.4055 24.108C76.7735 24.108 76.2055 23.968 75.7015 23.688C75.2055 23.4 74.8135 23 74.5255 22.488C74.2455 21.968 74.1055 21.368 74.1055 20.688C74.1055 20.008 74.2415 19.412 74.5135 18.9C74.7935 18.38 75.1815 17.98 75.6775 17.7C76.1815 17.42 76.7575 17.28 77.4055 17.28C78.0295 17.28 78.5855 17.416 79.0735 17.688C79.5615 17.96 79.9415 18.344 80.2135 18.84C80.4855 19.328 80.6215 19.892 80.6215 20.532ZM79.1935 20.1C79.1855 19.596 79.0055 19.192 78.6535 18.888C78.3015 18.584 77.8655 18.432 77.3455 18.432C76.8735 18.432 76.4695 18.584 76.1335 18.888C75.7975 19.184 75.5975 19.588 75.5335 20.1H79.1935ZM88.0277 20.532C88.0277 20.78 88.0117 21.004 87.9797 21.204H82.9277C82.9677 21.732 83.1637 22.156 83.5157 22.476C83.8677 22.796 84.2997 22.956 84.8117 22.956C85.5477 22.956 86.0677 22.648 86.3717 22.032H87.8477C87.6477 22.64 87.2837 23.14 86.7557 23.532C86.2357 23.916 85.5877 24.108 84.8117 24.108C84.1797 24.108 83.6117 23.968 83.1077 23.688C82.6117 23.4 82.2197 23 81.9317 22.488C81.6517 21.968 81.5117 21.368 81.5117 20.688C81.5117 20.008 81.6477 19.412 81.9197 18.9C82.1997 18.38 82.5877 17.98 83.0837 17.7C83.5877 17.42 84.1637 17.28 84.8117 17.28C85.4357 17.28 85.9917 17.416 86.4797 17.688C86.9677 17.96 87.3477 18.344 87.6197 18.84C87.8917 19.328 88.0277 19.892 88.0277 20.532ZM86.5997 20.1C86.5917 19.596 86.4117 19.192 86.0597 18.888C85.7077 18.584 85.2717 18.432 84.7517 18.432C84.2797 18.432 83.8757 18.584 83.5397 18.888C83.2037 19.184 83.0037 19.588 82.9397 20.1H86.5997ZM90.742 15.12V24H89.374V15.12H90.742ZM104.439 15.66V24H103.071V18.288L100.527 24H99.5792L97.0232 18.288V24H95.6552V15.66H97.1312L100.059 22.2L102.975 15.66H104.439ZM112.297 20.532C112.297 20.78 112.281 21.004 112.249 21.204H107.197C107.237 21.732 107.433 22.156 107.785 22.476C108.137 22.796 108.569 22.956 109.081 22.956C109.817 22.956 110.337 22.648 110.641 22.032H112.117C111.917 22.64 111.553 23.14 111.025 23.532C110.505 23.916 109.857 24.108 109.081 24.108C108.449 24.108 107.881 23.968 107.377 23.688C106.881 23.4 106.489 23 106.201 22.488C105.921 21.968 105.781 21.368 105.781 20.688C105.781 20.008 105.917 19.412 106.189 18.9C106.469 18.38 106.857 17.98 107.353 17.7C107.857 17.42 108.433 17.28 109.081 17.28C109.705 17.28 110.261 17.416 110.749 17.688C111.237 17.96 111.617 18.344 111.889 18.84C112.161 19.328 112.297 19.892 112.297 20.532ZM110.869 20.1C110.861 19.596 110.681 19.192 110.329 18.888C109.977 18.584 109.541 18.432 109.021 18.432C108.549 18.432 108.145 18.584 107.809 18.888C107.473 19.184 107.273 19.588 107.209 20.1H110.869Z" fill="white"/>
<path d="M163.133 17.05L161.073 24H159.783L158.323 18.74L156.773 24L155.493 24.01L153.523 17.05H154.733L156.173 22.71L157.733 17.05H159.013L160.463 22.68L161.913 17.05H163.133ZM166.464 24.09C165.944 24.09 165.474 23.9733 165.054 23.74C164.634 23.5 164.304 23.1667 164.064 22.74C163.824 22.3067 163.704 21.8067 163.704 21.24C163.704 20.68 163.827 20.1833 164.074 19.75C164.32 19.3167 164.657 18.9833 165.084 18.75C165.51 18.5167 165.987 18.4 166.514 18.4C167.04 18.4 167.517 18.5167 167.944 18.75C168.37 18.9833 168.707 19.3167 168.954 19.75C169.2 20.1833 169.324 20.68 169.324 21.24C169.324 21.8 169.197 22.2967 168.944 22.73C168.69 23.1633 168.344 23.5 167.904 23.74C167.47 23.9733 166.99 24.09 166.464 24.09ZM166.464 23.1C166.757 23.1 167.03 23.03 167.284 22.89C167.544 22.75 167.754 22.54 167.914 22.26C168.074 21.98 168.154 21.64 168.154 21.24C168.154 20.84 168.077 20.5033 167.924 20.23C167.77 19.95 167.567 19.74 167.314 19.6C167.06 19.46 166.787 19.39 166.494 19.39C166.2 19.39 165.927 19.46 165.674 19.6C165.427 19.74 165.23 19.95 165.084 20.23C164.937 20.5033 164.864 20.84 164.864 21.24C164.864 21.8333 165.014 22.2933 165.314 22.62C165.62 22.94 166.004 23.1 166.464 23.1ZM173.231 18.4C173.664 18.4 174.051 18.49 174.391 18.67C174.737 18.85 175.007 19.1167 175.201 19.47C175.394 19.8233 175.491 20.25 175.491 20.75V24H174.361V20.92C174.361 20.4267 174.237 20.05 173.991 19.79C173.744 19.5233 173.407 19.39 172.981 19.39C172.554 19.39 172.214 19.5233 171.961 19.79C171.714 20.05 171.591 20.4267 171.591 20.92V24H170.451V18.49H171.591V19.12C171.777 18.8933 172.014 18.7167 172.301 18.59C172.594 18.4633 172.904 18.4 173.231 18.4ZM178.275 19.42V22.47C178.275 22.6767 178.321 22.8267 178.415 22.92C178.515 23.0067 178.681 23.05 178.915 23.05H179.615V24H178.715C178.201 24 177.808 23.88 177.535 23.64C177.261 23.4 177.125 23.01 177.125 22.47V19.42H176.475V18.49H177.125V17.12H178.275V18.49H179.615V19.42H178.275ZM183.055 24.09C182.535 24.09 182.065 23.9733 181.645 23.74C181.225 23.5 180.895 23.1667 180.655 22.74C180.415 22.3067 180.295 21.8067 180.295 21.24C180.295 20.68 180.419 20.1833 180.665 19.75C180.912 19.3167 181.249 18.9833 181.675 18.75C182.102 18.5167 182.579 18.4 183.105 18.4C183.632 18.4 184.109 18.5167 184.535 18.75C184.962 18.9833 185.299 19.3167 185.545 19.75C185.792 20.1833 185.915 20.68 185.915 21.24C185.915 21.8 185.789 22.2967 185.535 22.73C185.282 23.1633 184.935 23.5 184.495 23.74C184.062 23.9733 183.582 24.09 183.055 24.09ZM183.055 23.1C183.349 23.1 183.622 23.03 183.875 22.89C184.135 22.75 184.345 22.54 184.505 22.26C184.665 21.98 184.745 21.64 184.745 21.24C184.745 20.84 184.669 20.5033 184.515 20.23C184.362 19.95 184.159 19.74 183.905 19.6C183.652 19.46 183.379 19.39 183.085 19.39C182.792 19.39 182.519 19.46 182.265 19.6C182.019 19.74 181.822 19.95 181.675 20.23C181.529 20.5033 181.455 20.84 181.455 21.24C181.455 21.8333 181.605 22.2933 181.905 22.62C182.212 22.94 182.595 23.1 183.055 23.1ZM188.182 16.6V24H187.042V16.6H188.182ZM190.819 16.6V24H189.679V16.6H190.819ZM191.936 21.22C191.936 20.6667 192.049 20.1767 192.276 19.75C192.509 19.3233 192.822 18.9933 193.216 18.76C193.616 18.52 194.056 18.4 194.536 18.4C194.969 18.4 195.346 18.4867 195.666 18.66C195.992 18.8267 196.252 19.0367 196.446 19.29V18.49H197.596V24H196.446V23.18C196.252 23.44 195.989 23.6567 195.656 23.83C195.322 24.0033 194.942 24.09 194.516 24.09C194.042 24.09 193.609 23.97 193.216 23.73C192.822 23.4833 192.509 23.1433 192.276 22.71C192.049 22.27 191.936 21.7733 191.936 21.22ZM196.446 21.24C196.446 20.86 196.366 20.53 196.206 20.25C196.052 19.97 195.849 19.7567 195.596 19.61C195.342 19.4633 195.069 19.39 194.776 19.39C194.482 19.39 194.209 19.4633 193.956 19.61C193.702 19.75 193.496 19.96 193.336 20.24C193.182 20.5133 193.106 20.84 193.106 21.22C193.106 21.6 193.182 21.9333 193.336 22.22C193.496 22.5067 193.702 22.7267 193.956 22.88C194.216 23.0267 194.489 23.1 194.776 23.1C195.069 23.1 195.342 23.0267 195.596 22.88C195.849 22.7333 196.052 22.52 196.206 22.24C196.366 21.9533 196.446 21.62 196.446 21.24Z" fill="#808080"/>
<path d="M265.847 22.48V21.62L269.207 16.8H270.587V21.49H271.517V22.48H270.587V24H269.467V22.48H265.847ZM269.517 17.96L267.157 21.49H269.517V17.96ZM273.072 24.07C272.865 24.07 272.692 24 272.552 23.86C272.412 23.72 272.342 23.5467 272.342 23.34C272.342 23.1333 272.412 22.96 272.552 22.82C272.692 22.68 272.865 22.61 273.072 22.61C273.272 22.61 273.442 22.68 273.582 22.82C273.722 22.96 273.792 23.1333 273.792 23.34C273.792 23.5467 273.722 23.72 273.582 23.86C273.442 24 273.272 24.07 273.072 24.07ZM273.072 19.87C272.865 19.87 272.692 19.8 272.552 19.66C272.412 19.52 272.342 19.3467 272.342 19.14C272.342 18.9333 272.412 18.76 272.552 18.62C272.692 18.48 272.865 18.41 273.072 18.41C273.272 18.41 273.442 18.48 273.582 18.62C273.722 18.76 273.792 18.9333 273.792 19.14C273.792 19.3467 273.722 19.52 273.582 19.66C273.442 19.8 273.272 19.87 273.072 19.87ZM274.893 18.51C274.933 17.89 275.17 17.4067 275.603 17.06C276.043 16.7133 276.603 16.54 277.283 16.54C277.75 16.54 278.153 16.6233 278.493 16.79C278.833 16.9567 279.09 17.1833 279.263 17.47C279.436 17.7567 279.523 18.08 279.523 18.44C279.523 18.8533 279.413 19.2067 279.193 19.5C278.973 19.7933 278.71 19.99 278.403 20.09V20.13C278.796 20.25 279.103 20.47 279.323 20.79C279.543 21.1033 279.653 21.5067 279.653 22C279.653 22.3933 279.563 22.7433 279.383 23.05C279.203 23.3567 278.936 23.6 278.583 23.78C278.23 23.9533 277.806 24.04 277.313 24.04C276.593 24.04 276 23.8567 275.533 23.49C275.073 23.1167 274.826 22.5833 274.793 21.89H275.893C275.92 22.2433 276.056 22.5333 276.303 22.76C276.55 22.98 276.883 23.09 277.303 23.09C277.71 23.09 278.023 22.98 278.243 22.76C278.463 22.5333 278.573 22.2433 278.573 21.89C278.573 21.4233 278.423 21.0933 278.123 20.9C277.83 20.7 277.376 20.6 276.763 20.6H276.503V19.66H276.773C277.313 19.6533 277.723 19.5633 278.003 19.39C278.29 19.2167 278.433 18.9433 278.433 18.57C278.433 18.25 278.33 17.9967 278.123 17.81C277.916 17.6167 277.623 17.52 277.243 17.52C276.87 17.52 276.58 17.6167 276.373 17.81C276.166 17.9967 276.043 18.23 276.003 18.51H274.893ZM284.771 18.4C284.697 18.0933 284.564 17.8633 284.371 17.71C284.177 17.5567 283.907 17.48 283.561 17.48C283.034 17.48 282.641 17.6833 282.381 18.09C282.121 18.49 281.984 19.1567 281.971 20.09C282.144 19.7967 282.397 19.57 282.731 19.41C283.064 19.25 283.424 19.17 283.811 19.17C284.251 19.17 284.637 19.2667 284.971 19.46C285.311 19.6467 285.574 19.92 285.761 20.28C285.954 20.64 286.051 21.07 286.051 21.57C286.051 22.0367 285.957 22.4533 285.771 22.82C285.591 23.1867 285.321 23.4767 284.961 23.69C284.601 23.8967 284.167 24 283.661 24C282.974 24 282.434 23.85 282.041 23.55C281.654 23.2433 281.381 22.8133 281.221 22.26C281.067 21.7067 280.991 21.0167 280.991 20.19C280.991 17.75 281.851 16.53 283.571 16.53C284.237 16.53 284.761 16.71 285.141 17.07C285.527 17.43 285.754 17.8733 285.821 18.4H284.771ZM283.561 20.13C283.154 20.13 282.807 20.2533 282.521 20.5C282.241 20.74 282.101 21.09 282.101 21.55C282.101 22.01 282.231 22.3767 282.491 22.65C282.757 22.9167 283.127 23.05 283.601 23.05C284.021 23.05 284.351 22.92 284.591 22.66C284.837 22.4 284.961 22.0533 284.961 21.62C284.961 21.1667 284.841 20.8067 284.601 20.54C284.367 20.2667 284.021 20.13 283.561 20.13Z" fill="#808080"/>
</svg>
