<svg width="300" height="40" viewBox="0 0 300 40" fill="none" xmlns="http://www.w3.org/2000/svg">
<rect width="300" height="40" rx="15" fill="white" fill-opacity="0.1"/>
<path d="M43.624 15.66C44.512 15.66 45.288 15.832 45.952 16.176C46.624 16.512 47.14 17 47.5 17.64C47.868 18.272 48.052 19.012 48.052 19.86C48.052 20.708 47.868 21.444 47.5 22.068C47.14 22.692 46.624 23.172 45.952 23.508C45.288 23.836 44.512 24 43.624 24H40.9V15.66H43.624ZM43.624 22.884C44.6 22.884 45.348 22.62 45.868 22.092C46.388 21.564 46.648 20.82 46.648 19.86C46.648 18.892 46.388 18.136 45.868 17.592C45.348 17.048 44.6 16.776 43.624 16.776H42.268V22.884H43.624ZM50.7758 18.348C50.9758 18.012 51.2398 17.752 51.5678 17.568C51.9038 17.376 52.2998 17.28 52.7558 17.28V18.696H52.4078C51.8718 18.696 51.4638 18.832 51.1838 19.104C50.9118 19.376 50.7758 19.848 50.7758 20.52V24H49.4078V17.388H50.7758V18.348ZM53.5573 20.664C53.5573 20 53.6933 19.412 53.9653 18.9C54.2453 18.388 54.6213 17.992 55.0933 17.712C55.5733 17.424 56.1013 17.28 56.6773 17.28C57.1973 17.28 57.6493 17.384 58.0333 17.592C58.4253 17.792 58.7373 18.044 58.9693 18.348V17.388H60.3493V24H58.9693V23.016C58.7373 23.328 58.4213 23.588 58.0213 23.796C57.6213 24.004 57.1653 24.108 56.6533 24.108C56.0853 24.108 55.5653 23.964 55.0933 23.676C54.6213 23.38 54.2453 22.972 53.9653 22.452C53.6933 21.924 53.5573 21.328 53.5573 20.664ZM58.9693 20.688C58.9693 20.232 58.8733 19.836 58.6813 19.5C58.4973 19.164 58.2533 18.908 57.9493 18.732C57.6453 18.556 57.3173 18.468 56.9653 18.468C56.6133 18.468 56.2853 18.556 55.9813 18.732C55.6773 18.9 55.4293 19.152 55.2373 19.488C55.0533 19.816 54.9613 20.208 54.9613 20.664C54.9613 21.12 55.0533 21.52 55.2373 21.864C55.4293 22.208 55.6773 22.472 55.9813 22.656C56.2933 22.832 56.6213 22.92 56.9653 22.92C57.3173 22.92 57.6453 22.832 57.9493 22.656C58.2533 22.48 58.4973 22.224 58.6813 21.888C58.8733 21.544 58.9693 21.144 58.9693 20.688ZM71.0261 17.388L68.9741 24H67.5341L66.2021 19.116L64.8701 24H63.4301L61.3661 17.388H62.7581L64.1381 22.704L65.5421 17.388H66.9701L68.3141 22.68L69.6821 17.388H71.0261ZM80.5536 15.66V16.776H78.3336V24H76.9656V16.776H74.7336V15.66H80.5536ZM85.3591 17.28C85.8631 17.28 86.3111 17.388 86.7031 17.604C87.1031 17.82 87.4151 18.14 87.6391 18.564C87.8711 18.988 87.9871 19.5 87.9871 20.1V24H86.6311V20.304C86.6311 19.712 86.4831 19.26 86.1871 18.948C85.8911 18.628 85.4871 18.468 84.9751 18.468C84.4631 18.468 84.0551 18.628 83.7511 18.948C83.4551 19.26 83.3071 19.712 83.3071 20.304V24H81.9391V15.12H83.3071V18.156C83.5391 17.876 83.8311 17.66 84.1831 17.508C84.5431 17.356 84.9351 17.28 85.3591 17.28ZM90.428 16.512C90.18 16.512 89.972 16.428 89.804 16.26C89.636 16.092 89.552 15.884 89.552 15.636C89.552 15.388 89.636 15.18 89.804 15.012C89.972 14.844 90.18 14.76 90.428 14.76C90.668 14.76 90.872 14.844 91.04 15.012C91.208 15.18 91.292 15.388 91.292 15.636C91.292 15.884 91.208 16.092 91.04 16.26C90.872 16.428 90.668 16.512 90.428 16.512ZM91.1 17.388V24H89.732V17.388H91.1ZM95.2961 24.108C94.7761 24.108 94.3081 24.016 93.8921 23.832C93.4841 23.64 93.1601 23.384 92.9201 23.064C92.6801 22.736 92.5521 22.372 92.5361 21.972H93.9521C93.9761 22.252 94.1081 22.488 94.3481 22.68C94.5961 22.864 94.9041 22.956 95.2721 22.956C95.6561 22.956 95.9521 22.884 96.1601 22.74C96.3761 22.588 96.4841 22.396 96.4841 22.164C96.4841 21.916 96.3641 21.732 96.1241 21.612C95.8921 21.492 95.5201 21.36 95.0081 21.216C94.5121 21.08 94.1081 20.948 93.7961 20.82C93.4841 20.692 93.2121 20.496 92.9801 20.232C92.7561 19.968 92.6441 19.62 92.6441 19.188C92.6441 18.836 92.7481 18.516 92.9561 18.228C93.1641 17.932 93.4601 17.7 93.8441 17.532C94.2361 17.364 94.6841 17.28 95.1881 17.28C95.9401 17.28 96.5441 17.472 97.0001 17.856C97.4641 18.232 97.7121 18.748 97.7441 19.404H96.3761C96.3521 19.108 96.2321 18.872 96.0161 18.696C95.8001 18.52 95.5081 18.432 95.1401 18.432C94.7801 18.432 94.5041 18.5 94.3121 18.636C94.1201 18.772 94.0241 18.952 94.0241 19.176C94.0241 19.352 94.0881 19.5 94.2161 19.62C94.3441 19.74 94.5001 19.836 94.6841 19.908C94.8681 19.972 95.1401 20.056 95.5001 20.16C95.9801 20.288 96.3721 20.42 96.6761 20.556C96.9881 20.684 97.2561 20.876 97.4801 21.132C97.7041 21.388 97.8201 21.728 97.8281 22.152C97.8281 22.528 97.7241 22.864 97.5161 23.16C97.3081 23.456 97.0121 23.688 96.6281 23.856C96.2521 24.024 95.8081 24.108 95.2961 24.108ZM101.022 15.66L100.866 21.48H99.7263L99.5703 15.66H101.022ZM100.338 24.084C100.09 24.084 99.8823 24 99.7143 23.832C99.5463 23.664 99.4623 23.456 99.4623 23.208C99.4623 22.96 99.5463 22.752 99.7143 22.584C99.8823 22.416 100.09 22.332 100.338 22.332C100.578 22.332 100.782 22.416 100.95 22.584C101.118 22.752 101.202 22.96 101.202 23.208C101.202 23.456 101.118 23.664 100.95 23.832C100.782 24 100.578 24.084 100.338 24.084ZM108.139 21.564C107.851 21.564 107.587 21.496 107.347 21.36C107.115 21.216 106.927 21.028 106.783 20.796C106.647 20.556 106.579 20.292 106.579 20.004C106.579 19.564 106.731 19.192 107.035 18.888C107.339 18.584 107.707 18.432 108.139 18.432C108.587 18.432 108.963 18.584 109.267 18.888C109.571 19.192 109.723 19.564 109.723 20.004C109.723 20.444 109.571 20.816 109.267 21.12C108.963 21.416 108.587 21.564 108.139 21.564ZM120.975 18.06C120.759 17.644 120.459 17.332 120.075 17.124C119.691 16.908 119.247 16.8 118.743 16.8C118.191 16.8 117.699 16.924 117.267 17.172C116.835 17.42 116.495 17.772 116.247 18.228C116.007 18.684 115.887 19.212 115.887 19.812C115.887 20.412 116.007 20.944 116.247 21.408C116.495 21.864 116.835 22.216 117.267 22.464C117.699 22.712 118.191 22.836 118.743 22.836C119.487 22.836 120.091 22.628 120.555 22.212C121.019 21.796 121.303 21.232 121.407 20.52H118.275V19.428H122.871V20.496C122.783 21.144 122.551 21.74 122.175 22.284C121.807 22.828 121.323 23.264 120.723 23.592C120.131 23.912 119.471 24.072 118.743 24.072C117.959 24.072 117.243 23.892 116.595 23.532C115.947 23.164 115.431 22.656 115.047 22.008C114.671 21.36 114.483 20.628 114.483 19.812C114.483 18.996 114.671 18.264 115.047 17.616C115.431 16.968 115.947 16.464 116.595 16.104C117.251 15.736 117.967 15.552 118.743 15.552C119.631 15.552 120.419 15.772 121.107 16.212C121.803 16.644 122.307 17.26 122.619 18.06H120.975ZM123.764 20.664C123.764 20 123.9 19.412 124.172 18.9C124.452 18.388 124.828 17.992 125.3 17.712C125.78 17.424 126.308 17.28 126.884 17.28C127.404 17.28 127.856 17.384 128.24 17.592C128.632 17.792 128.944 18.044 129.176 18.348V17.388H130.556V24H129.176V23.016C128.944 23.328 128.628 23.588 128.228 23.796C127.828 24.004 127.372 24.108 126.86 24.108C126.292 24.108 125.772 23.964 125.3 23.676C124.828 23.38 124.452 22.972 124.172 22.452C123.9 21.924 123.764 21.328 123.764 20.664ZM129.176 20.688C129.176 20.232 129.08 19.836 128.888 19.5C128.704 19.164 128.46 18.908 128.156 18.732C127.852 18.556 127.524 18.468 127.172 18.468C126.82 18.468 126.492 18.556 126.188 18.732C125.884 18.9 125.636 19.152 125.444 19.488C125.26 19.816 125.168 20.208 125.168 20.664C125.168 21.12 125.26 21.52 125.444 21.864C125.636 22.208 125.884 22.472 126.188 22.656C126.5 22.832 126.828 22.92 127.172 22.92C127.524 22.92 127.852 22.832 128.156 22.656C128.46 22.48 128.704 22.224 128.888 21.888C129.08 21.544 129.176 21.144 129.176 20.688ZM140.357 17.28C140.877 17.28 141.341 17.388 141.749 17.604C142.165 17.82 142.489 18.14 142.721 18.564C142.961 18.988 143.081 19.5 143.081 20.1V24H141.725V20.304C141.725 19.712 141.577 19.26 141.281 18.948C140.985 18.628 140.581 18.468 140.069 18.468C139.557 18.468 139.149 18.628 138.845 18.948C138.549 19.26 138.401 19.712 138.401 20.304V24H137.045V20.304C137.045 19.712 136.897 19.26 136.601 18.948C136.305 18.628 135.901 18.468 135.389 18.468C134.877 18.468 134.469 18.628 134.165 18.948C133.869 19.26 133.721 19.712 133.721 20.304V24H132.353V17.388H133.721V18.144C133.945 17.872 134.229 17.66 134.573 17.508C134.917 17.356 135.285 17.28 135.677 17.28C136.205 17.28 136.677 17.392 137.093 17.616C137.509 17.84 137.829 18.164 138.053 18.588C138.253 18.188 138.565 17.872 138.989 17.64C139.413 17.4 139.869 17.28 140.357 17.28ZM150.882 20.532C150.882 20.78 150.866 21.004 150.834 21.204H145.782C145.822 21.732 146.018 22.156 146.37 22.476C146.722 22.796 147.154 22.956 147.666 22.956C148.402 22.956 148.922 22.648 149.226 22.032H150.702C150.502 22.64 150.138 23.14 149.61 23.532C149.09 23.916 148.442 24.108 147.666 24.108C147.034 24.108 146.466 23.968 145.962 23.688C145.466 23.4 145.074 23 144.786 22.488C144.506 21.968 144.366 21.368 144.366 20.688C144.366 20.008 144.502 19.412 144.774 18.9C145.054 18.38 145.442 17.98 145.938 17.7C146.442 17.42 147.018 17.28 147.666 17.28C148.29 17.28 148.846 17.416 149.334 17.688C149.822 17.96 150.202 18.344 150.474 18.84C150.746 19.328 150.882 19.892 150.882 20.532ZM149.454 20.1C149.446 19.596 149.266 19.192 148.914 18.888C148.562 18.584 148.126 18.432 147.606 18.432C147.134 18.432 146.73 18.584 146.394 18.888C146.058 19.184 145.858 19.588 145.794 20.1H149.454Z" fill="white"/>
<rect x="22.8284" y="14.3433" width="4" height="11" transform="rotate(45 22.8284 14.3433)" fill="white"/>
<path d="M17.1714 25.657L14.343 22.8286L13.9301 24.8933C13.7901 25.593 14.4071 26.2099 15.1068 26.07L17.1714 25.657Z" fill="white"/>
<path d="M24.2426 12.929C24.6331 12.5385 25.2663 12.5385 25.6568 12.929L27.071 14.3432C27.4616 14.7338 27.4616 15.3669 27.071 15.7575L26.3639 16.4646L23.5355 13.6361L24.2426 12.929Z" fill="white"/>
<rect x="16" y="14" width="2" height="2" rx="1" transform="rotate(-180 16 14)" fill="white"/>
<rect x="18" y="16" width="2" height="2" rx="1" transform="rotate(-180 18 16)" fill="white"/>
<rect x="14" y="16" width="2" height="2" rx="1" transform="rotate(-180 14 16)" fill="white"/>
<rect x="16" y="18" width="2" height="2" rx="1" transform="rotate(-180 16 18)" fill="white"/>
<rect x="28" y="26" width="6" height="2" rx="1" transform="rotate(-180 28 26)" fill="white"/>
<rect x="24" y="28" width="6" height="2" rx="1" transform="rotate(-90 24 28)" fill="white"/>
</svg>
