<svg xmlns="http://www.w3.org/2000/svg" fill="none" viewBox="0 0 70 30" height="30" width="70">
<rect fill-opacity="0.25" fill="white" rx="15" height="30" width="70"></rect>
<path fill="black" d="M14.1089 19.084C13.5489 19.084 13.0449 18.988 12.5969 18.796C12.1489 18.596 11.7969 18.316 11.5409 17.956C11.2849 17.596 11.1569 17.176 11.1569 16.696H12.6209C12.6529 17.056 12.7929 17.352 13.0409 17.584C13.2969 17.816 13.6529 17.932 14.1089 17.932C14.5809 17.932 14.9489 17.82 15.2129 17.596C15.4769 17.364 15.6089 17.068 15.6089 16.708C15.6089 16.428 15.5249 16.2 15.3569 16.024C15.1969 15.848 14.9929 15.712 14.7449 15.616C14.5049 15.52 14.1689 15.416 13.7369 15.304C13.1929 15.16 12.7489 15.016 12.4049 14.872C12.0689 14.72 11.7809 14.488 11.5409 14.176C11.3009 13.864 11.1809 13.448 11.1809 12.928C11.1809 12.448 11.3009 12.028 11.5409 11.668C11.7809 11.308 12.1169 11.032 12.5489 10.84C12.9809 10.648 13.4809 10.552 14.0489 10.552C14.8569 10.552 15.5169 10.756 16.0289 11.164C16.5489 11.564 16.8369 12.116 16.8929 12.82H15.3809C15.3569 12.516 15.2129 12.256 14.9489 12.04C14.6849 11.824 14.3369 11.716 13.9049 11.716C13.5129 11.716 13.1929 11.816 12.9449 12.016C12.6969 12.216 12.5729 12.504 12.5729 12.88C12.5729 13.136 12.6489 13.348 12.8009 13.516C12.9609 13.676 13.1609 13.804 13.4009 13.9C13.6409 13.996 13.9689 14.1 14.3849 14.212C14.9369 14.364 15.3849 14.516 15.7289 14.668C16.0809 14.82 16.3769 15.056 16.6169 15.376C16.8649 15.688 16.9889 16.108 16.9889 16.636C16.9889 17.06 16.8729 17.46 16.6409 17.836C16.4169 18.212 16.0849 18.516 15.6449 18.748C15.2129 18.972 14.7009 19.084 14.1089 19.084ZM24.6631 15.532C24.6631 15.78 24.6471 16.004 24.6151 16.204H19.5631C19.6031 16.732 19.7991 17.156 20.1511 17.476C20.5031 17.796 20.9351 17.956 21.4471 17.956C22.1831 17.956 22.7031 17.648 23.0071 17.032H24.4831C24.2831 17.64 23.9191 18.14 23.3911 18.532C22.8711 18.916 22.2231 19.108 21.4471 19.108C20.8151 19.108 20.2471 18.968 19.7431 18.688C19.2471 18.4 18.8551 18 18.5671 17.488C18.2871 16.968 18.1471 16.368 18.1471 15.688C18.1471 15.008 18.2831 14.412 18.5551 13.9C18.8351 13.38 19.2231 12.98 19.7191 12.7C20.2231 12.42 20.7991 12.28 21.4471 12.28C22.0711 12.28 22.6271 12.416 23.1151 12.688C23.6031 12.96 23.9831 13.344 24.2551 13.84C24.5271 14.328 24.6631 14.892 24.6631 15.532ZM23.2351 15.1C23.2271 14.596 23.0471 14.192 22.6951 13.888C22.3431 13.584 21.9071 13.432 21.3871 13.432C20.9151 13.432 20.5111 13.584 20.1751 13.888C19.8391 14.184 19.6391 14.588 19.5751 15.1H23.2351ZM27.6054 13.504V17.164C27.6054 17.412 27.6614 17.592 27.7734 17.704C27.8934 17.808 28.0934 17.86 28.3734 17.86H29.2134V19H28.1334C27.5174 19 27.0454 18.856 26.7174 18.568C26.3894 18.28 26.2254 17.812 26.2254 17.164V13.504H25.4454V12.388H26.2254V10.744H27.6054V12.388H29.2134V13.504H27.6054ZM32.0702 13.504V17.164C32.0702 17.412 32.1262 17.592 32.2382 17.704C32.3582 17.808 32.5582 17.86 32.8382 17.86H33.6782V19H32.5982C31.9822 19 31.5102 18.856 31.1822 18.568C30.8542 18.28 30.6902 17.812 30.6902 17.164V13.504H29.9102V12.388H30.6902V10.744H32.0702V12.388H33.6782V13.504H32.0702ZM35.6351 11.512C35.3871 11.512 35.1791 11.428 35.0111 11.26C34.8431 11.092 34.7591 10.884 34.7591 10.636C34.7591 10.388 34.8431 10.18 35.0111 10.012C35.1791 9.844 35.3871 9.76 35.6351 9.76C35.8751 9.76 36.0791 9.844 36.2471 10.012C36.4151 10.18 36.4991 10.388 36.4991 10.636C36.4991 10.884 36.4151 11.092 36.2471 11.26C36.0791 11.428 35.8751 11.512 35.6351 11.512ZM36.3071 12.388V19H34.9391V12.388H36.3071ZM41.4391 12.28C41.9591 12.28 42.4231 12.388 42.8311 12.604C43.2471 12.82 43.5711 13.14 43.8031 13.564C44.0351 13.988 44.1511 14.5 44.1511 15.1V19H42.7951V15.304C42.7951 14.712 42.6471 14.26 42.3511 13.948C42.0551 13.628 41.6511 13.468 41.1391 13.468C40.6271 13.468 40.2191 13.628 39.9151 13.948C39.6191 14.26 39.4711 14.712 39.4711 15.304V19H38.1031V12.388H39.4711V13.144C39.6951 12.872 39.9791 12.66 40.3231 12.508C40.6751 12.356 41.0471 12.28 41.4391 12.28ZM48.5601 12.28C49.0721 12.28 49.5241 12.384 49.9161 12.592C50.3161 12.792 50.6281 13.044 50.8521 13.348V12.388H52.2321V19.108C52.2321 19.716 52.1041 20.256 51.8481 20.728C51.5921 21.208 51.2201 21.584 50.7321 21.856C50.2521 22.128 49.6761 22.264 49.0041 22.264C48.1081 22.264 47.3641 22.052 46.7721 21.628C46.1801 21.212 45.8441 20.644 45.7641 19.924H47.1201C47.2241 20.268 47.4441 20.544 47.7801 20.752C48.1241 20.968 48.5321 21.076 49.0041 21.076C49.5561 21.076 50.0001 20.908 50.3361 20.572C50.6801 20.236 50.8521 19.748 50.8521 19.108V18.004C50.6201 18.316 50.3041 18.58 49.9041 18.796C49.5121 19.004 49.0641 19.108 48.5601 19.108C47.9841 19.108 47.4561 18.964 46.9761 18.676C46.5041 18.38 46.1281 17.972 45.8481 17.452C45.5761 16.924 45.4401 16.328 45.4401 15.664C45.4401 15 45.5761 14.412 45.8481 13.9C46.1281 13.388 46.5041 12.992 46.9761 12.712C47.4561 12.424 47.9841 12.28 48.5601 12.28ZM50.8521 15.688C50.8521 15.232 50.7561 14.836 50.5641 14.5C50.3801 14.164 50.1361 13.908 49.8321 13.732C49.5281 13.556 49.2001 13.468 48.8481 13.468C48.4961 13.468 48.1681 13.556 47.8641 13.732C47.5601 13.9 47.3121 14.152 47.1201 14.488C46.9361 14.816 46.8441 15.208 46.8441 15.664C46.8441 16.12 46.9361 16.52 47.1201 16.864C47.3121 17.208 47.5601 17.472 47.8641 17.656C48.1761 17.832 48.5041 17.92 48.8481 17.92C49.2001 17.92 49.5281 17.832 49.8321 17.656C50.1361 17.48 50.3801 17.224 50.5641 16.888C50.7561 16.544 50.8521 16.144 50.8521 15.688ZM56.4289 19.108C55.9089 19.108 55.4409 19.016 55.0249 18.832C54.6169 18.64 54.2929 18.384 54.0529 18.064C53.8129 17.736 53.6849 17.372 53.6689 16.972H55.0849C55.1089 17.252 55.2409 17.488 55.4809 17.68C55.7289 17.864 56.0369 17.956 56.4049 17.956C56.7889 17.956 57.0849 17.884 57.2929 17.74C57.5089 17.588 57.6169 17.396 57.6169 17.164C57.6169 16.916 57.4969 16.732 57.2569 16.612C57.0249 16.492 56.6529 16.36 56.1409 16.216C55.6449 16.08 55.2409 15.948 54.9289 15.82C54.6169 15.692 54.3449 15.496 54.1129 15.232C53.8889 14.968 53.7769 14.62 53.7769 14.188C53.7769 13.836 53.8809 13.516 54.0889 13.228C54.2969 12.932 54.5929 12.7 54.9769 12.532C55.3689 12.364 55.8169 12.28 56.3209 12.28C57.0729 12.28 57.6769 12.472 58.1329 12.856C58.5969 13.232 58.8449 13.748 58.8769 14.404H57.5089C57.4849 14.108 57.3649 13.872 57.1489 13.696C56.9329 13.52 56.6409 13.432 56.2729 13.432C55.9129 13.432 55.6369 13.5 55.4449 13.636C55.2529 13.772 55.1569 13.952 55.1569 14.176C55.1569 14.352 55.2209 14.5 55.3489 14.62C55.4769 14.74 55.6329 14.836 55.8169 14.908C56.0009 14.972 56.2729 15.056 56.6329 15.16C57.1129 15.288 57.5049 15.42 57.8089 15.556C58.1209 15.684 58.3889 15.876 58.6129 16.132C58.8369 16.388 58.9529 16.728 58.9609 17.152C58.9609 17.528 58.8569 17.864 58.6489 18.16C58.4409 18.456 58.1449 18.688 57.7609 18.856C57.3849 19.024 56.9409 19.108 56.4289 19.108Z"></path>
</svg>
