<svg width="70" height="68" viewBox="0 0 70 68" fill="none" xmlns="http://www.w3.org/2000/svg">
<path d="M0.928 53.216C0.992 52.224 1.37067 51.4507 2.064 50.896C2.768 50.3413 3.664 50.064 4.752 50.064C5.49867 50.064 6.144 50.1973 6.688 50.464C7.232 50.7307 7.64267 51.0933 7.92 51.552C8.19733 52.0107 8.336 52.528 8.336 53.104C8.336 53.7653 8.16 54.3307 7.808 54.8C7.456 55.2693 7.03467 55.584 6.544 55.744V55.808C7.17333 56 7.664 56.352 8.016 56.864C8.368 57.3653 8.544 58.0107 8.544 58.8C8.544 59.4293 8.4 59.9893 8.112 60.48C7.824 60.9707 7.39733 61.36 6.832 61.648C6.26667 61.9253 5.58933 62.064 4.8 62.064C3.648 62.064 2.69867 61.7707 1.952 61.184C1.216 60.5867 0.821333 59.7333 0.768 58.624H2.528C2.57067 59.1893 2.78933 59.6533 3.184 60.016C3.57867 60.368 4.112 60.544 4.784 60.544C5.43467 60.544 5.936 60.368 6.288 60.016C6.64 59.6533 6.816 59.1893 6.816 58.624C6.816 57.8773 6.576 57.3493 6.096 57.04C5.62667 56.72 4.90133 56.56 3.92 56.56H3.504V55.056H3.936C4.8 55.0453 5.456 54.9013 5.904 54.624C6.36267 54.3467 6.592 53.9093 6.592 53.312C6.592 52.8 6.42667 52.3947 6.096 52.096C5.76533 51.7867 5.296 51.632 4.688 51.632C4.09067 51.632 3.62667 51.7867 3.296 52.096C2.96533 52.3947 2.768 52.768 2.704 53.216H0.928ZM11.436 62.112C11.1053 62.112 10.828 62 10.604 61.776C10.38 61.552 10.268 61.2747 10.268 60.944C10.268 60.6133 10.38 60.336 10.604 60.112C10.828 59.888 11.1053 59.776 11.436 59.776C11.756 59.776 12.028 59.888 12.252 60.112C12.476 60.336 12.588 60.6133 12.588 60.944C12.588 61.2747 12.476 61.552 12.252 61.776C12.028 62 11.756 62.112 11.436 62.112ZM14.3194 56.016C14.3194 54.1707 14.6287 52.7307 15.2474 51.696C15.8767 50.6507 16.954 50.128 18.4794 50.128C20.0047 50.128 21.0767 50.6507 21.6954 51.696C22.3247 52.7307 22.6394 54.1707 22.6394 56.016C22.6394 57.8827 22.3247 59.344 21.6954 60.4C21.0767 61.4453 20.0047 61.968 18.4794 61.968C16.954 61.968 15.8767 61.4453 15.2474 60.4C14.6287 59.344 14.3194 57.8827 14.3194 56.016ZM20.8474 56.016C20.8474 55.152 20.7887 54.4213 20.6714 53.824C20.5647 53.2267 20.3407 52.7413 19.9994 52.368C19.658 51.984 19.1514 51.792 18.4794 51.792C17.8074 51.792 17.3007 51.984 16.9594 52.368C16.618 52.7413 16.3887 53.2267 16.2714 53.824C16.1647 54.4213 16.1114 55.152 16.1114 56.016C16.1114 56.912 16.1647 57.664 16.2714 58.272C16.378 58.88 16.602 59.3707 16.9434 59.744C17.2954 60.1173 17.8074 60.304 18.4794 60.304C19.1514 60.304 19.658 60.1173 19.9994 59.744C20.3514 59.3707 20.5807 58.88 20.6874 58.272C20.794 57.664 20.8474 56.912 20.8474 56.016Z" fill="white"/>
</svg>
