<svg width="250" height="28" viewBox="0 0 250 28" fill="none" xmlns="http://www.w3.org/2000/svg">
<rect width="250" height="28" rx="5" fill="#1B1B1B"/>
<path d="M13.59 12.4C14.2767 12.4 14.8233 12.5933 15.23 12.98C15.6433 13.3667 15.85 13.8867 15.85 14.54C15.85 14.6933 15.8333 14.8767 15.8 15.09C15.7733 15.2367 15.7267 15.4167 15.66 15.63H11.45C11.4433 15.6767 11.44 15.7467 11.44 15.84C11.44 16.2333 11.56 16.5467 11.8 16.78C12.0467 17.0133 12.3667 17.13 12.76 17.13C13.38 17.13 13.8567 16.8733 14.19 16.36H15.42C15.1667 16.8667 14.7933 17.2833 14.3 17.61C13.8067 17.93 13.2367 18.09 12.59 18.09C12.13 18.09 11.7267 18 11.38 17.82C11.0333 17.64 10.7633 17.3833 10.57 17.05C10.3767 16.71 10.28 16.3133 10.28 15.86C10.28 15.6667 10.3 15.46 10.34 15.24C10.44 14.6733 10.6433 14.1767 10.95 13.75C11.2567 13.3167 11.6367 12.9833 12.09 12.75C12.55 12.5167 13.05 12.4 13.59 12.4ZM14.66 14.81C14.6733 14.69 14.68 14.6033 14.68 14.55C14.68 14.1833 14.5567 13.8933 14.31 13.68C14.07 13.4667 13.7567 13.36 13.37 13.36C12.9633 13.36 12.5967 13.49 12.27 13.75C11.9433 14.01 11.72 14.3633 11.6 14.81H14.66ZM19.2619 15.2L20.5419 18H19.2519L18.3919 16.13L16.9419 18H15.7519L18.0119 15.29L16.7219 12.49H18.0119L18.8719 14.36L20.3219 12.49H21.5119L19.2619 15.2ZM21.5021 15.22C21.6021 14.6667 21.8021 14.1767 22.1021 13.75C22.4088 13.3233 22.7821 12.9933 23.2221 12.76C23.6621 12.52 24.1221 12.4 24.6021 12.4C25.0354 12.4 25.3988 12.4867 25.6921 12.66C25.9854 12.8267 26.2054 13.0367 26.3521 13.29L26.4921 12.49H27.6421L26.6721 18H25.5221L25.6721 17.18C25.4321 17.44 25.1288 17.6567 24.7621 17.83C24.4021 18.0033 24.0088 18.09 23.5821 18.09C23.1688 18.09 22.7988 17.9967 22.4721 17.81C22.1521 17.6233 21.8988 17.36 21.7121 17.02C21.5321 16.6733 21.4421 16.2767 21.4421 15.83C21.4421 15.63 21.4621 15.4267 21.5021 15.22ZM26.0121 15.24C26.0388 15.1133 26.0521 14.9767 26.0521 14.83C26.0521 14.3833 25.9188 14.0333 25.6521 13.78C25.3921 13.52 25.0654 13.39 24.6721 13.39C24.3788 13.39 24.0921 13.4633 23.8121 13.61C23.5321 13.75 23.2888 13.96 23.0821 14.24C22.8754 14.5133 22.7388 14.84 22.6721 15.22C22.6454 15.3467 22.6321 15.4833 22.6321 15.63C22.6321 16.0833 22.7621 16.4433 23.0221 16.71C23.2888 16.97 23.6188 17.1 24.0121 17.1C24.3054 17.1 24.5921 17.0267 24.8721 16.88C25.1521 16.7333 25.3954 16.52 25.6021 16.24C25.8088 15.9533 25.9454 15.62 26.0121 15.24ZM35.8295 12.4C36.4095 12.4 36.8728 12.5567 37.2195 12.87C37.5661 13.1833 37.7395 13.6267 37.7395 14.2C37.7395 14.3533 37.7228 14.5367 37.6895 14.75L37.1095 18H35.9795L36.5295 14.92C36.5561 14.7333 36.5695 14.6 36.5695 14.52C36.5695 14.1533 36.4661 13.8733 36.2595 13.68C36.0595 13.4867 35.7795 13.39 35.4195 13.39C34.9861 13.39 34.6195 13.5233 34.3195 13.79C34.0261 14.05 33.8395 14.4267 33.7595 14.92L33.2095 18H32.0795L32.6295 14.92C32.6561 14.7333 32.6695 14.6 32.6695 14.52C32.6695 14.1533 32.5661 13.8733 32.3595 13.68C32.1595 13.4867 31.8795 13.39 31.5195 13.39C31.0861 13.39 30.7195 13.5233 30.4195 13.79C30.1261 14.05 29.9395 14.4267 29.8595 14.92V14.89L29.3095 18H28.1695L29.1395 12.49H30.2795L30.1695 13.13C30.3895 12.9033 30.6528 12.7267 30.9595 12.6C31.2728 12.4667 31.5961 12.4 31.9295 12.4C32.3695 12.4 32.7461 12.4933 33.0595 12.68C33.3795 12.8667 33.6028 13.1367 33.7295 13.49C33.9495 13.1567 34.2528 12.8933 34.6395 12.7C35.0261 12.5 35.4228 12.4 35.8295 12.4ZM40.5301 13.3C40.7701 13.0467 41.0701 12.8333 41.4301 12.66C41.7967 12.4867 42.1901 12.4 42.6101 12.4C43.0301 12.4 43.4034 12.49 43.7301 12.67C44.0567 12.85 44.3101 13.1067 44.4901 13.44C44.6701 13.7733 44.7601 14.1633 44.7601 14.61C44.7601 14.8033 44.7401 15.0067 44.7001 15.22C44.6001 15.7733 44.3967 16.27 44.0901 16.71C43.7901 17.1433 43.4201 17.4833 42.9801 17.73C42.5467 17.97 42.0901 18.09 41.6101 18.09C41.1901 18.09 40.8301 18.0067 40.5301 17.84C40.2367 17.6667 40.0067 17.4533 39.8401 17.2L39.2401 20.62H38.1001L39.5301 12.49H40.6701L40.5301 13.3ZM43.5401 15.22C43.5667 15.0933 43.5801 14.9567 43.5801 14.81C43.5801 14.3633 43.4467 14.0167 43.1801 13.77C42.9201 13.5167 42.5901 13.39 42.1901 13.39C41.9034 13.39 41.6167 13.4633 41.3301 13.61C41.0501 13.7567 40.8067 13.97 40.6001 14.25C40.3934 14.53 40.2567 14.86 40.1901 15.24C40.1634 15.3667 40.1501 15.5033 40.1501 15.65C40.1501 16.0967 40.2801 16.45 40.5401 16.71C40.8067 16.97 41.1367 17.1 41.5301 17.1C41.8234 17.1 42.1101 17.0267 42.3901 16.88C42.6767 16.7267 42.9234 16.5067 43.1301 16.22C43.3367 15.9333 43.4734 15.6 43.5401 15.22ZM47.7874 10.6L46.4774 18H45.3374L46.6474 10.6H47.7874ZM51.3341 12.4C52.0208 12.4 52.5675 12.5933 52.9741 12.98C53.3875 13.3667 53.5941 13.8867 53.5941 14.54C53.5941 14.6933 53.5775 14.8767 53.5441 15.09C53.5175 15.2367 53.4708 15.4167 53.4041 15.63H49.1941C49.1875 15.6767 49.1841 15.7467 49.1841 15.84C49.1841 16.2333 49.3041 16.5467 49.5441 16.78C49.7908 17.0133 50.1108 17.13 50.5041 17.13C51.1241 17.13 51.6008 16.8733 51.9341 16.36H53.1641C52.9108 16.8667 52.5375 17.2833 52.0441 17.61C51.5508 17.93 50.9808 18.09 50.3341 18.09C49.8741 18.09 49.4708 18 49.1241 17.82C48.7775 17.64 48.5075 17.3833 48.3141 17.05C48.1208 16.71 48.0241 16.3133 48.0241 15.86C48.0241 15.6667 48.0441 15.46 48.0841 15.24C48.1841 14.6733 48.3875 14.1767 48.6941 13.75C49.0008 13.3167 49.3808 12.9833 49.8341 12.75C50.2941 12.5167 50.7941 12.4 51.3341 12.4ZM52.4041 14.81C52.4175 14.69 52.4241 14.6033 52.4241 14.55C52.4241 14.1833 52.3008 13.8933 52.0541 13.68C51.8141 13.4667 51.5008 13.36 51.1141 13.36C50.7075 13.36 50.3408 13.49 50.0141 13.75C49.6875 14.01 49.4641 14.3633 49.3441 14.81H52.4041ZM59.0541 15.97C58.7341 15.97 58.4707 15.87 58.2641 15.67C58.0641 15.47 57.9641 15.2167 57.9641 14.91C57.9641 14.63 58.0374 14.3733 58.1841 14.14C58.3307 13.9 58.5241 13.71 58.7641 13.57C59.0041 13.43 59.2541 13.36 59.5141 13.36C59.8407 13.36 60.1074 13.46 60.3141 13.66C60.5207 13.86 60.6241 14.1167 60.6241 14.43C60.6241 14.7033 60.5507 14.96 60.4041 15.2C60.2574 15.4333 60.0607 15.62 59.8141 15.76C59.5741 15.9 59.3207 15.97 59.0541 15.97ZM66.4413 11.76C66.2613 11.76 66.1146 11.7033 66.0012 11.59C65.8879 11.4767 65.8313 11.3333 65.8313 11.16C65.8313 10.9267 65.9179 10.7267 66.0913 10.56C66.2713 10.3867 66.4746 10.3 66.7013 10.3C66.8813 10.3 67.0246 10.3567 67.1313 10.47C67.2446 10.5833 67.3013 10.7267 67.3013 10.9C67.3013 11.1333 67.2146 11.3367 67.0413 11.51C66.8679 11.6767 66.6679 11.76 66.4413 11.76ZM66.8713 12.49L65.9013 18H64.7613L65.7313 12.49H66.8713ZM71.168 12.4C71.748 12.4 72.208 12.5567 72.548 12.87C72.8946 13.1767 73.068 13.62 73.068 14.2C73.068 14.3467 73.0513 14.53 73.018 14.75L72.438 18H71.308L71.858 14.92C71.8846 14.7333 71.898 14.6 71.898 14.52C71.898 14.1533 71.7946 13.8733 71.588 13.68C71.388 13.4867 71.108 13.39 70.748 13.39C70.3146 13.39 69.948 13.5233 69.648 13.79C69.3546 14.05 69.168 14.4267 69.088 14.92V14.89L68.538 18H67.398L68.368 12.49H69.508L69.398 13.13C69.6246 12.9033 69.8913 12.7267 70.198 12.6C70.5113 12.4667 70.8346 12.4 71.168 12.4ZM75.9221 18.09C75.5421 18.09 75.1954 18.0267 74.8821 17.9C74.5688 17.7667 74.3221 17.5833 74.1421 17.35C73.9621 17.11 73.8721 16.8367 73.8721 16.53C73.8721 16.4767 73.8788 16.4033 73.8921 16.31H75.0021C74.9754 16.5633 75.0521 16.7733 75.2321 16.94C75.4121 17.1067 75.6654 17.19 75.9921 17.19C76.3121 17.19 76.5754 17.1333 76.7821 17.02C76.9888 16.9067 77.0921 16.74 77.0921 16.52C77.0921 16.3333 77.0054 16.1833 76.8321 16.07C76.6654 15.9567 76.3954 15.83 76.0221 15.69C75.6688 15.55 75.3821 15.42 75.1621 15.3C74.9421 15.18 74.7521 15.0167 74.5921 14.81C74.4321 14.5967 74.3521 14.3333 74.3521 14.02C74.3521 13.7 74.4421 13.42 74.6221 13.18C74.8088 12.9333 75.0654 12.7433 75.3921 12.61C75.7254 12.47 76.1054 12.4 76.5321 12.4C76.9188 12.4 77.2621 12.4667 77.5621 12.6C77.8688 12.7267 78.1054 12.91 78.2721 13.15C78.4454 13.3833 78.5321 13.6533 78.5321 13.96C78.5321 14.0533 78.5288 14.1233 78.5221 14.17H77.4421C77.4688 13.91 77.3921 13.7 77.2121 13.54C77.0388 13.38 76.7888 13.3 76.4621 13.3C76.1754 13.3 75.9421 13.36 75.7621 13.48C75.5888 13.6 75.5021 13.7633 75.5021 13.97C75.5021 14.1767 75.5921 14.3433 75.7721 14.47C75.9521 14.59 76.2288 14.7233 76.6021 14.87C76.9421 15.0033 77.2188 15.13 77.4321 15.25C77.6454 15.37 77.8288 15.53 77.9821 15.73C78.1354 15.93 78.2121 16.18 78.2121 16.48C78.2121 16.8067 78.1121 17.0933 77.9121 17.34C77.7188 17.58 77.4488 17.7667 77.1021 17.9C76.7554 18.0267 76.3621 18.09 75.9221 18.09ZM80.8339 16.47C80.8206 16.5633 80.8139 16.6233 80.8139 16.65C80.8139 16.79 80.8572 16.8933 80.9439 16.96C81.0306 17.02 81.1739 17.05 81.3739 17.05H82.0739L81.9039 18H81.0039C80.5639 18 80.2272 17.9133 79.9939 17.74C79.7606 17.56 79.6439 17.2767 79.6439 16.89C79.6439 16.7433 79.6572 16.6033 79.6839 16.47L80.2239 13.42H79.5739L79.7339 12.49H80.3939L80.6339 11.12H81.7839L81.5439 12.49H82.8739L82.7139 13.42H81.3739L80.8339 16.47ZM83.0646 15.22C83.1646 14.6667 83.3646 14.1767 83.6646 13.75C83.9713 13.3233 84.3446 12.9933 84.7846 12.76C85.2246 12.52 85.6846 12.4 86.1646 12.4C86.5979 12.4 86.9613 12.4867 87.2546 12.66C87.5479 12.8267 87.7679 13.0367 87.9146 13.29L88.0546 12.49H89.2046L88.2346 18H87.0846L87.2346 17.18C86.9946 17.44 86.6913 17.6567 86.3246 17.83C85.9646 18.0033 85.5713 18.09 85.1446 18.09C84.7313 18.09 84.3613 17.9967 84.0346 17.81C83.7146 17.6233 83.4613 17.36 83.2746 17.02C83.0946 16.6733 83.0046 16.2767 83.0046 15.83C83.0046 15.63 83.0246 15.4267 83.0646 15.22ZM87.5746 15.24C87.6013 15.1133 87.6146 14.9767 87.6146 14.83C87.6146 14.3833 87.4813 14.0333 87.2146 13.78C86.9546 13.52 86.6279 13.39 86.2346 13.39C85.9413 13.39 85.6546 13.4633 85.3746 13.61C85.0946 13.75 84.8513 13.96 84.6446 14.24C84.4379 14.5133 84.3013 14.84 84.2346 15.22C84.2079 15.3467 84.1946 15.4833 84.1946 15.63C84.1946 16.0833 84.3246 16.4433 84.5846 16.71C84.8513 16.97 85.1813 17.1 85.5746 17.1C85.8679 17.1 86.1546 17.0267 86.4346 16.88C86.7146 16.7333 86.9579 16.52 87.1646 16.24C87.3713 15.9533 87.5079 15.62 87.5746 15.24ZM92.182 10.6L90.872 18H89.732L91.042 10.6H92.182ZM94.8187 10.6L93.5087 18H92.3687L93.6787 10.6H94.8187ZM101.773 12.4C102.353 12.4 102.813 12.5567 103.153 12.87C103.5 13.1767 103.673 13.62 103.673 14.2C103.673 14.3467 103.657 14.53 103.623 14.75L103.043 18H101.913L102.463 14.92C102.49 14.7333 102.503 14.6 102.503 14.52C102.503 14.1533 102.4 13.8733 102.193 13.68C101.993 13.4867 101.713 13.39 101.353 13.39C100.92 13.39 100.553 13.5233 100.253 13.79C99.9601 14.05 99.7734 14.4267 99.6934 14.92V14.89L99.1434 18H98.0034L98.9734 12.49H100.113L100.003 13.13C100.23 12.9033 100.497 12.7267 100.803 12.6C101.117 12.4667 101.44 12.4 101.773 12.4ZM106.908 18.09C106.441 18.09 106.031 17.9933 105.678 17.8C105.324 17.6067 105.048 17.3333 104.848 16.98C104.654 16.6267 104.558 16.2233 104.558 15.77C104.558 15.15 104.701 14.5833 104.988 14.07C105.281 13.5567 105.681 13.15 106.188 12.85C106.701 12.55 107.271 12.4 107.898 12.4C108.364 12.4 108.778 12.5 109.138 12.7C109.498 12.8933 109.778 13.1667 109.978 13.52C110.184 13.8667 110.288 14.27 110.288 14.73C110.288 15.35 110.138 15.9167 109.838 16.43C109.538 16.9433 109.131 17.35 108.618 17.65C108.104 17.9433 107.534 18.09 106.908 18.09ZM107.048 17.13C107.428 17.13 107.774 17.0233 108.088 16.81C108.408 16.59 108.658 16.3033 108.838 15.95C109.018 15.59 109.108 15.2067 109.108 14.8C109.108 14.34 108.978 13.9867 108.718 13.74C108.458 13.4867 108.131 13.36 107.738 13.36C107.351 13.36 107.004 13.47 106.698 13.69C106.398 13.9033 106.161 14.1933 105.988 14.56C105.821 14.92 105.738 15.3067 105.738 15.72C105.738 16.1667 105.858 16.5133 106.098 16.76C106.344 17.0067 106.661 17.13 107.048 17.13ZM112.475 16.47C112.461 16.5633 112.455 16.6233 112.455 16.65C112.455 16.79 112.498 16.8933 112.585 16.96C112.671 17.02 112.815 17.05 113.015 17.05H113.715L113.545 18H112.645C112.205 18 111.868 17.9133 111.635 17.74C111.401 17.56 111.285 17.2767 111.285 16.89C111.285 16.7433 111.298 16.6033 111.325 16.47L111.865 13.42H111.215L111.375 12.49H112.035L112.275 11.12H113.425L113.185 12.49H114.515L114.355 13.42H113.015L112.475 16.47ZM117.955 12.4C118.642 12.4 119.189 12.5933 119.595 12.98C120.009 13.3667 120.215 13.8867 120.215 14.54C120.215 14.6933 120.199 14.8767 120.165 15.09C120.139 15.2367 120.092 15.4167 120.025 15.63H115.815C115.809 15.6767 115.805 15.7467 115.805 15.84C115.805 16.2333 115.925 16.5467 116.165 16.78C116.412 17.0133 116.732 17.13 117.125 17.13C117.745 17.13 118.222 16.8733 118.555 16.36H119.785C119.532 16.8667 119.159 17.2833 118.665 17.61C118.172 17.93 117.602 18.09 116.955 18.09C116.495 18.09 116.092 18 115.745 17.82C115.399 17.64 115.129 17.3833 114.935 17.05C114.742 16.71 114.645 16.3133 114.645 15.86C114.645 15.6667 114.665 15.46 114.705 15.24C114.805 14.6733 115.009 14.1767 115.315 13.75C115.622 13.3167 116.002 12.9833 116.455 12.75C116.915 12.5167 117.415 12.4 117.955 12.4ZM119.025 14.81C119.039 14.69 119.045 14.6033 119.045 14.55C119.045 14.1833 118.922 13.8933 118.675 13.68C118.435 13.4667 118.122 13.36 117.735 13.36C117.329 13.36 116.962 13.49 116.635 13.75C116.309 14.01 116.085 14.3633 115.965 14.81H119.025ZM122.737 13.3C122.977 13.0467 123.277 12.8333 123.637 12.66C124.004 12.4867 124.397 12.4 124.817 12.4C125.237 12.4 125.61 12.49 125.937 12.67C126.264 12.85 126.517 13.1067 126.697 13.44C126.877 13.7733 126.967 14.1633 126.967 14.61C126.967 14.8033 126.947 15.0067 126.907 15.22C126.807 15.7733 126.604 16.27 126.297 16.71C125.997 17.1433 125.627 17.4833 125.187 17.73C124.754 17.97 124.297 18.09 123.817 18.09C123.397 18.09 123.037 18.0067 122.737 17.84C122.444 17.6667 122.214 17.4533 122.047 17.2L121.447 20.62H120.307L121.737 12.49H122.877L122.737 13.3ZM125.747 15.22C125.774 15.0933 125.787 14.9567 125.787 14.81C125.787 14.3633 125.654 14.0167 125.387 13.77C125.127 13.5167 124.797 13.39 124.397 13.39C124.11 13.39 123.824 13.4633 123.537 13.61C123.257 13.7567 123.014 13.97 122.807 14.25C122.6 14.53 122.464 14.86 122.397 15.24C122.37 15.3667 122.357 15.5033 122.357 15.65C122.357 16.0967 122.487 16.45 122.747 16.71C123.014 16.97 123.344 17.1 123.737 17.1C124.03 17.1 124.317 17.0267 124.597 16.88C124.884 16.7267 125.13 16.5067 125.337 16.22C125.544 15.9333 125.68 15.6 125.747 15.22ZM127.654 15.22C127.754 14.6667 127.954 14.1767 128.254 13.75C128.561 13.3233 128.934 12.9933 129.374 12.76C129.814 12.52 130.274 12.4 130.754 12.4C131.188 12.4 131.551 12.4867 131.844 12.66C132.138 12.8267 132.358 13.0367 132.504 13.29L132.644 12.49H133.794L132.824 18H131.674L131.824 17.18C131.584 17.44 131.281 17.6567 130.914 17.83C130.554 18.0033 130.161 18.09 129.734 18.09C129.321 18.09 128.951 17.9967 128.624 17.81C128.304 17.6233 128.051 17.36 127.864 17.02C127.684 16.6733 127.594 16.2767 127.594 15.83C127.594 15.63 127.614 15.4267 127.654 15.22ZM132.164 15.24C132.191 15.1133 132.204 14.9767 132.204 14.83C132.204 14.3833 132.071 14.0333 131.804 13.78C131.544 13.52 131.218 13.39 130.824 13.39C130.531 13.39 130.244 13.4633 129.964 13.61C129.684 13.75 129.441 13.96 129.234 14.24C129.028 14.5133 128.891 14.84 128.824 15.22C128.798 15.3467 128.784 15.4833 128.784 15.63C128.784 16.0833 128.914 16.4433 129.174 16.71C129.441 16.97 129.771 17.1 130.164 17.1C130.458 17.1 130.744 17.0267 131.024 16.88C131.304 16.7333 131.548 16.52 131.754 16.24C131.961 15.9533 132.098 15.62 132.164 15.24ZM134.432 15.22C134.532 14.6667 134.732 14.1767 135.032 13.75C135.338 13.3233 135.712 12.9933 136.152 12.76C136.592 12.52 137.055 12.4 137.542 12.4C137.902 12.4 138.242 12.48 138.562 12.64C138.882 12.7933 139.125 13 139.292 13.26L139.762 10.6H140.912L139.602 18H138.452L138.602 17.17C138.362 17.4433 138.062 17.6667 137.702 17.84C137.348 18.0067 136.958 18.09 136.532 18.09C136.112 18.09 135.738 17.9967 135.412 17.81C135.085 17.6233 134.828 17.36 134.642 17.02C134.462 16.6733 134.372 16.2767 134.372 15.83C134.372 15.63 134.392 15.4267 134.432 15.22ZM138.942 15.24C138.968 15.1133 138.982 14.9767 138.982 14.83C138.982 14.3833 138.848 14.0333 138.582 13.78C138.322 13.52 137.995 13.39 137.602 13.39C137.308 13.39 137.022 13.4633 136.742 13.61C136.462 13.75 136.218 13.96 136.012 14.24C135.805 14.5133 135.668 14.84 135.602 15.22C135.575 15.3467 135.562 15.4833 135.562 15.63C135.562 16.0833 135.692 16.4433 135.952 16.71C136.218 16.97 136.548 17.1 136.942 17.1C137.235 17.1 137.522 17.0267 137.802 16.88C138.082 16.7333 138.325 16.52 138.532 16.24C138.738 15.9533 138.875 15.62 138.942 15.24Z" fill="white" fill-opacity="0.5"/>
</svg>
