<svg xmlns="http://www.w3.org/2000/svg" fill="none" viewBox="0 0 480 360" height="360" width="480">
<path fill="#E6E6E6" d="M0 0H130C141.046 0 150 8.95431 150 20V340C150 351.046 141.046 360 130 360H0V0Z"></path>
<path fill="black" d="M58.912 11.88V23H57.088V15.384L53.696 23H52.432L49.024 15.384V23H47.2V11.88H49.168L53.072 20.6L56.96 11.88H58.912ZM69.2934 14.184V23H67.4694V21.96C67.1814 22.3227 66.8027 22.6107 66.3334 22.824C65.8747 23.0267 65.384 23.128 64.8614 23.128C64.168 23.128 63.544 22.984 62.9894 22.696C62.4454 22.408 62.0134 21.9813 61.6934 21.416C61.384 20.8507 61.2294 20.168 61.2294 19.368V14.184H63.0374V19.096C63.0374 19.8853 63.2347 20.4933 63.6294 20.92C64.024 21.336 64.5627 21.544 65.2454 21.544C65.928 21.544 66.4667 21.336 66.8614 20.92C67.2667 20.4933 67.4694 19.8853 67.4694 19.096V14.184H69.2934ZM74.9 23.144C74.2067 23.144 73.5827 23.0213 73.028 22.776C72.484 22.52 72.052 22.1787 71.732 21.752C71.412 21.3147 71.2413 20.8293 71.22 20.296H73.108C73.14 20.6693 73.316 20.984 73.636 21.24C73.9667 21.4853 74.3773 21.608 74.868 21.608C75.38 21.608 75.7747 21.512 76.052 21.32C76.34 21.1173 76.484 20.8613 76.484 20.552C76.484 20.2213 76.324 19.976 76.004 19.816C75.6947 19.656 75.1987 19.48 74.516 19.288C73.8547 19.1067 73.316 18.9307 72.9 18.76C72.484 18.5893 72.1213 18.328 71.812 17.976C71.5133 17.624 71.364 17.16 71.364 16.584C71.364 16.1147 71.5027 15.688 71.78 15.304C72.0573 14.9093 72.452 14.6 72.964 14.376C73.4867 14.152 74.084 14.04 74.756 14.04C75.7587 14.04 76.564 14.296 77.172 14.808C77.7907 15.3093 78.1213 15.9973 78.164 16.872H76.34C76.308 16.4773 76.148 16.1627 75.86 15.928C75.572 15.6933 75.1827 15.576 74.692 15.576C74.212 15.576 73.844 15.6667 73.588 15.848C73.332 16.0293 73.204 16.2693 73.204 16.568C73.204 16.8027 73.2893 17 73.46 17.16C73.6307 17.32 73.8387 17.448 74.084 17.544C74.3293 17.6293 74.692 17.7413 75.172 17.88C75.812 18.0507 76.3347 18.2267 76.74 18.408C77.156 18.5787 77.5133 18.8347 77.812 19.176C78.1107 19.5173 78.2653 19.9707 78.276 20.536C78.276 21.0373 78.1373 21.4853 77.86 21.88C77.5827 22.2747 77.188 22.584 76.676 22.808C76.1747 23.032 75.5827 23.144 74.9 23.144ZM81.1749 13.016C80.8442 13.016 80.5669 12.904 80.3429 12.68C80.1189 12.456 80.0069 12.1787 80.0069 11.848C80.0069 11.5173 80.1189 11.24 80.3429 11.016C80.5669 10.792 80.8442 10.68 81.1749 10.68C81.4949 10.68 81.7669 10.792 81.9909 11.016C82.2149 11.24 82.3269 11.5173 82.3269 11.848C82.3269 12.1787 82.2149 12.456 81.9909 12.68C81.7669 12.904 81.4949 13.016 81.1749 13.016ZM82.0709 14.184V23H80.2469V14.184H82.0709ZM83.8576 18.584C83.8576 17.6773 84.039 16.8827 84.4016 16.2C84.775 15.5067 85.287 14.9733 85.9376 14.6C86.5883 14.2267 87.335 14.04 88.1776 14.04C89.2443 14.04 90.1243 14.296 90.8176 14.808C91.5216 15.3093 91.9963 16.0293 92.2416 16.968H90.2736C90.1136 16.5307 89.8576 16.1893 89.5056 15.944C89.1536 15.6987 88.711 15.576 88.1776 15.576C87.431 15.576 86.8336 15.8427 86.3856 16.376C85.9483 16.8987 85.7296 17.6347 85.7296 18.584C85.7296 19.5333 85.9483 20.2747 86.3856 20.808C86.8336 21.3413 87.431 21.608 88.1776 21.608C89.2336 21.608 89.9323 21.144 90.2736 20.216H92.2416C91.9856 21.112 91.5056 21.8267 90.8016 22.36C90.0976 22.8827 89.223 23.144 88.1776 23.144C87.335 23.144 86.5883 22.9573 85.9376 22.584C85.287 22.2 84.775 21.6667 84.4016 20.984C84.039 20.2907 83.8576 19.4907 83.8576 18.584ZM57.872 30.04C58.5653 30.04 59.184 30.184 59.728 30.472C60.2827 30.76 60.7147 31.1867 61.024 31.752C61.344 32.3173 61.504 33 61.504 33.8V39H59.696V34.072C59.696 33.2827 59.4987 32.68 59.104 32.264C58.7093 31.8373 58.1707 31.624 57.488 31.624C56.8053 31.624 56.2613 31.8373 55.856 32.264C55.4613 32.68 55.264 33.2827 55.264 34.072V39H53.456V34.072C53.456 33.2827 53.2587 32.68 52.864 32.264C52.4693 31.8373 51.9307 31.624 51.248 31.624C50.5653 31.624 50.0213 31.8373 49.616 32.264C49.2213 32.68 49.024 33.2827 49.024 34.072V39H47.2V30.184H49.024V31.192C49.3227 30.8293 49.7013 30.5467 50.16 30.344C50.6187 30.1413 51.1093 30.04 51.632 30.04C52.336 30.04 52.9653 30.1893 53.52 30.488C54.0747 30.7867 54.5013 31.2187 54.8 31.784C55.0667 31.2507 55.4827 30.8293 56.048 30.52C56.6133 30.2 57.2213 30.04 57.872 30.04ZM63.217 34.552C63.217 33.6667 63.3983 32.8827 63.761 32.2C64.1343 31.5173 64.6357 30.9893 65.265 30.616C65.905 30.232 66.609 30.04 67.377 30.04C68.0703 30.04 68.673 30.1787 69.185 30.456C69.7077 30.7227 70.1237 31.0587 70.433 31.464V30.184H72.273V39H70.433V37.688C70.1237 38.104 69.7023 38.4507 69.169 38.728C68.6357 39.0053 68.0277 39.144 67.345 39.144C66.5877 39.144 65.8943 38.952 65.265 38.568C64.6357 38.1733 64.1343 37.6293 63.761 36.936C63.3983 36.232 63.217 35.4373 63.217 34.552ZM70.433 34.584C70.433 33.976 70.305 33.448 70.049 33C69.8037 32.552 69.4783 32.2107 69.073 31.976C68.6677 31.7413 68.2303 31.624 67.761 31.624C67.2917 31.624 66.8543 31.7413 66.449 31.976C66.0437 32.2 65.713 32.536 65.457 32.984C65.2117 33.4213 65.089 33.944 65.089 34.552C65.089 35.16 65.2117 35.6933 65.457 36.152C65.713 36.6107 66.0437 36.9627 66.449 37.208C66.865 37.4427 67.3023 37.56 67.761 37.56C68.2303 37.56 68.6677 37.4427 69.073 37.208C69.4783 36.9733 69.8037 36.632 70.049 36.184C70.305 35.7253 70.433 35.192 70.433 34.584ZM78.1568 34.6L82.2208 39H79.7568L76.4928 35.208V39H74.6688V27.16H76.4928V34.04L79.6928 30.184H82.2208L78.1568 34.6ZM91.6081 34.376C91.6081 34.7067 91.5868 35.0053 91.5441 35.272H84.8081C84.8615 35.976 85.1228 36.5413 85.5921 36.968C86.0615 37.3947 86.6375 37.608 87.3201 37.608C88.3015 37.608 88.9948 37.1973 89.4001 36.376H91.3681C91.1015 37.1867 90.6161 37.8533 89.9121 38.376C89.2188 38.888 88.3548 39.144 87.3201 39.144C86.4775 39.144 85.7201 38.9573 85.0481 38.584C84.3868 38.2 83.8641 37.6667 83.4801 36.984C83.1068 36.2907 82.9201 35.4907 82.9201 34.584C82.9201 33.6773 83.1015 32.8827 83.4641 32.2C83.8375 31.5067 84.3548 30.9733 85.0161 30.6C85.6881 30.2267 86.4561 30.04 87.3201 30.04C88.1521 30.04 88.8935 30.2213 89.5441 30.584C90.1948 30.9467 90.7015 31.4587 91.0641 32.12C91.4268 32.7707 91.6081 33.5227 91.6081 34.376ZM89.7041 33.8C89.6935 33.128 89.4535 32.5893 88.9841 32.184C88.5148 31.7787 87.9335 31.576 87.2401 31.576C86.6108 31.576 86.0721 31.7787 85.6241 32.184C85.1761 32.5787 84.9095 33.1173 84.8241 33.8H89.7041ZM95.2271 31.464C95.4938 31.016 95.8458 30.6693 96.2831 30.424C96.7311 30.168 97.2591 30.04 97.8671 30.04V31.928H97.4031C96.6885 31.928 96.1445 32.1093 95.7711 32.472C95.4085 32.8347 95.2271 33.464 95.2271 34.36V39H93.4031V30.184H95.2271V31.464Z"></path>
<path fill="black" d="M9 64.9367C9 64.3432 9.26365 63.7803 9.71963 63.4003L13.7196 60.067C14.4613 59.4489 15.5387 59.4489 16.2804 60.067L20.2804 63.4003C20.7364 63.7803 21 64.3432 21 64.9367V69C21 70.1046 20.1046 71 19 71H17V67C17 66.4477 16.5523 66 16 66H14C13.4477 66 13 66.4477 13 67V71H11C9.89543 71 9 70.1046 9 69V64.9367Z"></path>
<path fill="black" d="M37.56 60.66V69H36.192V65.352H32.268V69H30.9V60.66H32.268V64.236H36.192V60.66H37.56ZM42.2289 69.108C41.6049 69.108 41.0409 68.968 40.5369 68.688C40.0329 68.4 39.6369 68 39.3489 67.488C39.0609 66.968 38.9169 66.368 38.9169 65.688C38.9169 65.016 39.0649 64.42 39.3609 63.9C39.6569 63.38 40.0609 62.98 40.5729 62.7C41.0849 62.42 41.6569 62.28 42.2889 62.28C42.9209 62.28 43.4929 62.42 44.0049 62.7C44.5169 62.98 44.9209 63.38 45.2169 63.9C45.5129 64.42 45.6609 65.016 45.6609 65.688C45.6609 66.36 45.5089 66.956 45.2049 67.476C44.9009 67.996 44.4849 68.4 43.9569 68.688C43.4369 68.968 42.8609 69.108 42.2289 69.108ZM42.2289 67.92C42.5809 67.92 42.9089 67.836 43.2129 67.668C43.5249 67.5 43.7769 67.248 43.9689 66.912C44.1609 66.576 44.2569 66.168 44.2569 65.688C44.2569 65.208 44.1649 64.804 43.9809 64.476C43.7969 64.14 43.5529 63.888 43.2489 63.72C42.9449 63.552 42.6169 63.468 42.2649 63.468C41.9129 63.468 41.5849 63.552 41.2809 63.72C40.9849 63.888 40.7489 64.14 40.5729 64.476C40.3969 64.804 40.3089 65.208 40.3089 65.688C40.3089 66.4 40.4889 66.952 40.8489 67.344C41.2169 67.728 41.6769 67.92 42.2289 67.92ZM55.0173 62.28C55.5373 62.28 56.0013 62.388 56.4093 62.604C56.8253 62.82 57.1493 63.14 57.3813 63.564C57.6213 63.988 57.7413 64.5 57.7413 65.1V69H56.3853V65.304C56.3853 64.712 56.2373 64.26 55.9413 63.948C55.6453 63.628 55.2413 63.468 54.7293 63.468C54.2173 63.468 53.8093 63.628 53.5053 63.948C53.2093 64.26 53.0613 64.712 53.0613 65.304V69H51.7053V65.304C51.7053 64.712 51.5573 64.26 51.2613 63.948C50.9653 63.628 50.5613 63.468 50.0493 63.468C49.5373 63.468 49.1293 63.628 48.8253 63.948C48.5293 64.26 48.3813 64.712 48.3813 65.304V69H47.0133V62.388H48.3813V63.144C48.6053 62.872 48.8893 62.66 49.2333 62.508C49.5773 62.356 49.9453 62.28 50.3373 62.28C50.8653 62.28 51.3373 62.392 51.7533 62.616C52.1693 62.84 52.4893 63.164 52.7133 63.588C52.9133 63.188 53.2253 62.872 53.6493 62.64C54.0733 62.4 54.5293 62.28 55.0173 62.28ZM65.542 65.532C65.542 65.78 65.526 66.004 65.494 66.204H60.442C60.482 66.732 60.678 67.156 61.03 67.476C61.382 67.796 61.814 67.956 62.326 67.956C63.062 67.956 63.582 67.648 63.886 67.032H65.362C65.162 67.64 64.798 68.14 64.27 68.532C63.75 68.916 63.102 69.108 62.326 69.108C61.694 69.108 61.126 68.968 60.622 68.688C60.126 68.4 59.734 68 59.446 67.488C59.166 66.968 59.026 66.368 59.026 65.688C59.026 65.008 59.162 64.412 59.434 63.9C59.714 63.38 60.102 62.98 60.598 62.7C61.102 62.42 61.678 62.28 62.326 62.28C62.95 62.28 63.506 62.416 63.994 62.688C64.482 62.96 64.862 63.344 65.134 63.84C65.406 64.328 65.542 64.892 65.542 65.532ZM64.114 65.1C64.106 64.596 63.926 64.192 63.574 63.888C63.222 63.584 62.786 63.432 62.266 63.432C61.794 63.432 61.39 63.584 61.054 63.888C60.718 64.184 60.518 64.588 60.454 65.1H64.114Z"></path>
<path fill="black" d="M37.752 99H36.384L32.268 92.772V99H30.9V90.648H32.268L36.384 96.864V90.648H37.752V99ZM45.6084 95.532C45.6084 95.78 45.5924 96.004 45.5604 96.204H40.5084C40.5484 96.732 40.7444 97.156 41.0964 97.476C41.4484 97.796 41.8804 97.956 42.3924 97.956C43.1284 97.956 43.6484 97.648 43.9524 97.032H45.4284C45.2284 97.64 44.8644 98.14 44.3364 98.532C43.8164 98.916 43.1684 99.108 42.3924 99.108C41.7604 99.108 41.1924 98.968 40.6884 98.688C40.1924 98.4 39.8004 98 39.5124 97.488C39.2324 96.968 39.0924 96.368 39.0924 95.688C39.0924 95.008 39.2284 94.412 39.5004 93.9C39.7804 93.38 40.1684 92.98 40.6644 92.7C41.1684 92.42 41.7444 92.28 42.3924 92.28C43.0164 92.28 43.5724 92.416 44.0604 92.688C44.5484 92.96 44.9284 93.344 45.2004 93.84C45.4724 94.328 45.6084 94.892 45.6084 95.532ZM44.1804 95.1C44.1724 94.596 43.9924 94.192 43.6404 93.888C43.2884 93.584 42.8524 93.432 42.3324 93.432C41.8604 93.432 41.4564 93.584 41.1204 93.888C40.7844 94.184 40.5844 94.588 40.5204 95.1H44.1804ZM55.8347 92.388L53.7827 99H52.3427L51.0107 94.116L49.6787 99H48.2387L46.1747 92.388H47.5667L48.9467 97.704L50.3507 92.388H51.7787L53.1227 97.68L54.4907 92.388H55.8347ZM62.7462 93.504H61.5222V99H60.1422V93.504H59.3622V92.388H60.1422V91.92C60.1422 91.16 60.3422 90.608 60.7422 90.264C61.1502 89.912 61.7862 89.736 62.6502 89.736V90.876C62.2342 90.876 61.9422 90.956 61.7742 91.116C61.6062 91.268 61.5222 91.536 61.5222 91.92V92.388H62.7462V93.504ZM64.6546 91.512C64.4066 91.512 64.1986 91.428 64.0306 91.26C63.8626 91.092 63.7786 90.884 63.7786 90.636C63.7786 90.388 63.8626 90.18 64.0306 90.012C64.1986 89.844 64.4066 89.76 64.6546 89.76C64.8946 89.76 65.0986 89.844 65.2666 90.012C65.4346 90.18 65.5186 90.388 65.5186 90.636C65.5186 90.884 65.4346 91.092 65.2666 91.26C65.0986 91.428 64.8946 91.512 64.6546 91.512ZM65.3266 92.388V99H63.9586V92.388H65.3266ZM68.4907 90.12V99H67.1227V90.12H68.4907ZM76.3467 95.532C76.3467 95.78 76.3307 96.004 76.2987 96.204H71.2467C71.2867 96.732 71.4827 97.156 71.8347 97.476C72.1867 97.796 72.6187 97.956 73.1307 97.956C73.8667 97.956 74.3867 97.648 74.6907 97.032H76.1667C75.9667 97.64 75.6027 98.14 75.0747 98.532C74.5547 98.916 73.9067 99.108 73.1307 99.108C72.4987 99.108 71.9307 98.968 71.4267 98.688C70.9307 98.4 70.5387 98 70.2507 97.488C69.9707 96.968 69.8307 96.368 69.8307 95.688C69.8307 95.008 69.9667 94.412 70.2387 93.9C70.5187 93.38 70.9067 92.98 71.4027 92.7C71.9067 92.42 72.4827 92.28 73.1307 92.28C73.7547 92.28 74.3107 92.416 74.7987 92.688C75.2867 92.96 75.6667 93.344 75.9387 93.84C76.2107 94.328 76.3467 94.892 76.3467 95.532ZM74.9187 95.1C74.9107 94.596 74.7307 94.192 74.3787 93.888C74.0267 93.584 73.5907 93.432 73.0707 93.432C72.5987 93.432 72.1947 93.584 71.8587 93.888C71.5227 94.184 71.3227 94.588 71.2587 95.1H74.9187Z"></path>
<path fill="black" d="M9 95C9 94.4477 9.44772 94 10 94H20C20.5523 94 21 94.4477 21 95V95C21 95.5523 20.5523 96 20 96H10C9.44772 96 9 95.5523 9 95V95Z"></path>
<path fill="black" d="M15 89C15.5523 89 16 89.4477 16 90L16 100C16 100.552 15.5523 101 15 101V101C14.4477 101 14 100.552 14 100L14 90C14 89.4477 14.4477 89 15 89V89Z"></path>
<path fill="black" d="M33.648 159.084C33.088 159.084 32.584 158.988 32.136 158.796C31.688 158.596 31.336 158.316 31.08 157.956C30.824 157.596 30.696 157.176 30.696 156.696H32.16C32.192 157.056 32.332 157.352 32.58 157.584C32.836 157.816 33.192 157.932 33.648 157.932C34.12 157.932 34.488 157.82 34.752 157.596C35.016 157.364 35.148 157.068 35.148 156.708C35.148 156.428 35.064 156.2 34.896 156.024C34.736 155.848 34.532 155.712 34.284 155.616C34.044 155.52 33.708 155.416 33.276 155.304C32.732 155.16 32.288 155.016 31.944 154.872C31.608 154.72 31.32 154.488 31.08 154.176C30.84 153.864 30.72 153.448 30.72 152.928C30.72 152.448 30.84 152.028 31.08 151.668C31.32 151.308 31.656 151.032 32.088 150.84C32.52 150.648 33.02 150.552 33.588 150.552C34.396 150.552 35.056 150.756 35.568 151.164C36.088 151.564 36.376 152.116 36.432 152.82H34.92C34.896 152.516 34.752 152.256 34.488 152.04C34.224 151.824 33.876 151.716 33.444 151.716C33.052 151.716 32.732 151.816 32.484 152.016C32.236 152.216 32.112 152.504 32.112 152.88C32.112 153.136 32.188 153.348 32.34 153.516C32.5 153.676 32.7 153.804 32.94 153.9C33.18 153.996 33.508 154.1 33.924 154.212C34.476 154.364 34.924 154.516 35.268 154.668C35.62 154.82 35.916 155.056 36.156 155.376C36.404 155.688 36.528 156.108 36.528 156.636C36.528 157.06 36.412 157.46 36.18 157.836C35.956 158.212 35.624 158.516 35.184 158.748C34.752 158.972 34.24 159.084 33.648 159.084ZM37.6862 155.664C37.6862 155 37.8222 154.412 38.0942 153.9C38.3742 153.388 38.7502 152.992 39.2222 152.712C39.7022 152.424 40.2302 152.28 40.8062 152.28C41.3262 152.28 41.7782 152.384 42.1622 152.592C42.5542 152.792 42.8662 153.044 43.0982 153.348V152.388H44.4782V159H43.0982V158.016C42.8662 158.328 42.5502 158.588 42.1502 158.796C41.7502 159.004 41.2942 159.108 40.7822 159.108C40.2142 159.108 39.6942 158.964 39.2222 158.676C38.7502 158.38 38.3742 157.972 38.0942 157.452C37.8222 156.924 37.6862 156.328 37.6862 155.664ZM43.0982 155.688C43.0982 155.232 43.0022 154.836 42.8102 154.5C42.6262 154.164 42.3822 153.908 42.0782 153.732C41.7742 153.556 41.4462 153.468 41.0942 153.468C40.7422 153.468 40.4142 153.556 40.1102 153.732C39.8062 153.9 39.5582 154.152 39.3662 154.488C39.1822 154.816 39.0902 155.208 39.0902 155.664C39.0902 156.12 39.1822 156.52 39.3662 156.864C39.5582 157.208 39.8062 157.472 40.1102 157.656C40.4222 157.832 40.7502 157.92 41.0942 157.92C41.4462 157.92 41.7742 157.832 42.0782 157.656C42.3822 157.48 42.6262 157.224 42.8102 156.888C43.0022 156.544 43.0982 156.144 43.0982 155.688ZM48.831 157.776L50.703 152.388H52.155L49.635 159H48.003L45.495 152.388H46.959L48.831 157.776ZM59.2491 155.532C59.2491 155.78 59.2331 156.004 59.2011 156.204H54.1491C54.1891 156.732 54.3851 157.156 54.7371 157.476C55.0891 157.796 55.5211 157.956 56.0331 157.956C56.7691 157.956 57.2891 157.648 57.5931 157.032H59.0691C58.8691 157.64 58.5051 158.14 57.9771 158.532C57.4571 158.916 56.8091 159.108 56.0331 159.108C55.4011 159.108 54.8331 158.968 54.3291 158.688C53.8331 158.4 53.4411 158 53.1531 157.488C52.8731 156.968 52.7331 156.368 52.7331 155.688C52.7331 155.008 52.8691 154.412 53.1411 153.9C53.4211 153.38 53.8091 152.98 54.3051 152.7C54.8091 152.42 55.3851 152.28 56.0331 152.28C56.6571 152.28 57.2131 152.416 57.7011 152.688C58.1891 152.96 58.5691 153.344 58.8411 153.84C59.1131 154.328 59.2491 154.892 59.2491 155.532ZM57.8211 155.1C57.8131 154.596 57.6331 154.192 57.2811 153.888C56.9291 153.584 56.4931 153.432 55.9731 153.432C55.5011 153.432 55.0971 153.584 54.7611 153.888C54.4251 154.184 54.2251 154.588 54.1611 155.1H57.8211Z"></path>
<path fill="black" d="M9 152C9 150.343 10.3431 149 12 149H15.7574C16.553 149 17.3161 149.316 17.8787 149.879L20.1213 152.121C20.6839 152.684 21 153.447 21 154.243V158C21 159.657 19.6569 161 18 161H12C10.3431 161 9 159.657 9 158V152Z"></path>
<path fill="black" d="M34.704 129.084C33.928 129.084 33.212 128.904 32.556 128.544C31.908 128.176 31.392 127.668 31.008 127.02C30.632 126.364 30.444 125.628 30.444 124.812C30.444 123.996 30.632 123.264 31.008 122.616C31.392 121.968 31.908 121.464 32.556 121.104C33.212 120.736 33.928 120.552 34.704 120.552C35.488 120.552 36.204 120.736 36.852 121.104C37.508 121.464 38.024 121.968 38.4 122.616C38.776 123.264 38.964 123.996 38.964 124.812C38.964 125.628 38.776 126.364 38.4 127.02C38.024 127.668 37.508 128.176 36.852 128.544C36.204 128.904 35.488 129.084 34.704 129.084ZM34.704 127.896C35.256 127.896 35.748 127.772 36.18 127.524C36.612 127.268 36.948 126.908 37.188 126.444C37.436 125.972 37.56 125.428 37.56 124.812C37.56 124.196 37.436 123.656 37.188 123.192C36.948 122.728 36.612 122.372 36.18 122.124C35.748 121.876 35.256 121.752 34.704 121.752C34.152 121.752 33.66 121.876 33.228 122.124C32.796 122.372 32.456 122.728 32.208 123.192C31.968 123.656 31.848 124.196 31.848 124.812C31.848 125.428 31.968 125.972 32.208 126.444C32.456 126.908 32.796 127.268 33.228 127.524C33.66 127.772 34.152 127.896 34.704 127.896ZM41.6782 123.36C41.9102 123.056 42.2262 122.8 42.6262 122.592C43.0262 122.384 43.4782 122.28 43.9822 122.28C44.5582 122.28 45.0822 122.424 45.5542 122.712C46.0342 122.992 46.4102 123.388 46.6822 123.9C46.9542 124.412 47.0902 125 47.0902 125.664C47.0902 126.328 46.9542 126.924 46.6822 127.452C46.4102 127.972 46.0342 128.38 45.5542 128.676C45.0822 128.964 44.5582 129.108 43.9822 129.108C43.4782 129.108 43.0302 129.008 42.6382 128.808C42.2462 128.6 41.9262 128.344 41.6782 128.04V132.144H40.3102V122.388H41.6782V123.36ZM45.6982 125.664C45.6982 125.208 45.6022 124.816 45.4102 124.488C45.2262 124.152 44.9782 123.9 44.6662 123.732C44.3622 123.556 44.0342 123.468 43.6822 123.468C43.3382 123.468 43.0102 123.556 42.6982 123.732C42.3942 123.908 42.1462 124.164 41.9542 124.5C41.7702 124.836 41.6782 125.232 41.6782 125.688C41.6782 126.144 41.7702 126.544 41.9542 126.888C42.1462 127.224 42.3942 127.48 42.6982 127.656C43.0102 127.832 43.3382 127.92 43.6822 127.92C44.0342 127.92 44.3622 127.832 44.6662 127.656C44.9782 127.472 45.2262 127.208 45.4102 126.864C45.6022 126.52 45.6982 126.12 45.6982 125.664ZM54.503 125.532C54.503 125.78 54.487 126.004 54.455 126.204H49.403C49.443 126.732 49.639 127.156 49.991 127.476C50.343 127.796 50.775 127.956 51.287 127.956C52.023 127.956 52.543 127.648 52.847 127.032H54.323C54.123 127.64 53.759 128.14 53.231 128.532C52.711 128.916 52.063 129.108 51.287 129.108C50.655 129.108 50.087 128.968 49.583 128.688C49.087 128.4 48.695 128 48.407 127.488C48.127 126.968 47.987 126.368 47.987 125.688C47.987 125.008 48.123 124.412 48.395 123.9C48.675 123.38 49.063 122.98 49.559 122.7C50.063 122.42 50.639 122.28 51.287 122.28C51.911 122.28 52.467 122.416 52.955 122.688C53.443 122.96 53.823 123.344 54.095 123.84C54.367 124.328 54.503 124.892 54.503 125.532ZM53.075 125.1C53.067 124.596 52.887 124.192 52.535 123.888C52.183 123.584 51.747 123.432 51.227 123.432C50.755 123.432 50.351 123.584 50.015 123.888C49.679 124.184 49.479 124.588 49.415 125.1H53.075ZM59.1852 122.28C59.7052 122.28 60.1692 122.388 60.5772 122.604C60.9932 122.82 61.3172 123.14 61.5492 123.564C61.7812 123.988 61.8972 124.5 61.8972 125.1V129H60.5412V125.304C60.5412 124.712 60.3932 124.26 60.0972 123.948C59.8012 123.628 59.3972 123.468 58.8852 123.468C58.3732 123.468 57.9652 123.628 57.6612 123.948C57.3652 124.26 57.2172 124.712 57.2172 125.304V129H55.8492V122.388H57.2172V123.144C57.4412 122.872 57.7252 122.66 58.0692 122.508C58.4212 122.356 58.7932 122.28 59.1852 122.28Z"></path>
<path fill="black" d="M9 122C9 120.343 10.3431 119 12 119H14C15.1046 119 16 119.895 16 121V121H18C19.6569 121 21 122.343 21 124V128C21 129.657 19.6569 131 18 131H12C10.3431 131 9 129.657 9 128V122Z"></path>
<rect stroke-width="2" stroke="black" rx="3" height="6" width="6" y="25" x="16"></rect>
<path fill="black" d="M21 23C21 21.3431 22.3431 20 24 20V20C24.5523 20 25 20.4477 25 21V21C25 21.5523 24.5523 22 24 22V22C23.4477 22 23 22.4477 23 23V28H21V23Z"></path>
<rect fill="black" height="9" width="4" y="21" x="27"></rect>
<path fill="black" d="M31 31L27 31L28.1679 32.7519C28.5638 33.3457 29.4362 33.3457 29.832 32.7519L31 31Z"></path>
<path fill="black" d="M27 19C27 18.4477 27.4477 18 28 18L30 18C30.5523 18 31 18.4477 31 19L31 20L27 20L27 19Z"></path>
<rect fill="#E6E6E6" rx="1" height="2" width="6" y="125" x="12"></rect>
<rect fill="#E6E6E6" transform="rotate(90 16 123)" rx="1" height="2" width="6" y="123" x="16"></rect>
<rect fill="#E6E6E6" rx="1" height="2" width="6" y="156" x="12"></rect>
<path fill="black" d="M37.56 180.66V189H36.192V185.352H32.268V189H30.9V180.66H32.268V184.236H36.192V180.66H37.56ZM45.4209 185.532C45.4209 185.78 45.4049 186.004 45.3729 186.204H40.3209C40.3609 186.732 40.5569 187.156 40.9089 187.476C41.2609 187.796 41.6929 187.956 42.2049 187.956C42.9409 187.956 43.4609 187.648 43.7649 187.032H45.2409C45.0409 187.64 44.6769 188.14 44.1489 188.532C43.6289 188.916 42.9809 189.108 42.2049 189.108C41.5729 189.108 41.0049 188.968 40.5009 188.688C40.0049 188.4 39.6129 188 39.3249 187.488C39.0449 186.968 38.9049 186.368 38.9049 185.688C38.9049 185.008 39.0409 184.412 39.3129 183.9C39.5929 183.38 39.9809 182.98 40.4769 182.7C40.9809 182.42 41.5569 182.28 42.2049 182.28C42.8289 182.28 43.3849 182.416 43.8729 182.688C44.3609 182.96 44.7409 183.344 45.0129 183.84C45.2849 184.328 45.4209 184.892 45.4209 185.532ZM43.9929 185.1C43.9849 184.596 43.8049 184.192 43.4529 183.888C43.1009 183.584 42.6649 183.432 42.1449 183.432C41.6729 183.432 41.2689 183.584 40.9329 183.888C40.5969 184.184 40.3969 184.588 40.3329 185.1H43.9929ZM48.1352 180.12V189H46.7672V180.12H48.1352ZM51.2993 183.36C51.5313 183.056 51.8473 182.8 52.2473 182.592C52.6473 182.384 53.0993 182.28 53.6033 182.28C54.1793 182.28 54.7033 182.424 55.1753 182.712C55.6553 182.992 56.0313 183.388 56.3033 183.9C56.5753 184.412 56.7113 185 56.7113 185.664C56.7113 186.328 56.5753 186.924 56.3033 187.452C56.0313 187.972 55.6553 188.38 55.1753 188.676C54.7033 188.964 54.1793 189.108 53.6033 189.108C53.0993 189.108 52.6513 189.008 52.2593 188.808C51.8673 188.6 51.5473 188.344 51.2993 188.04V192.144H49.9313V182.388H51.2993V183.36ZM55.3193 185.664C55.3193 185.208 55.2233 184.816 55.0312 184.488C54.8473 184.152 54.5993 183.9 54.2873 183.732C53.9833 183.556 53.6553 183.468 53.3033 183.468C52.9593 183.468 52.6313 183.556 52.3193 183.732C52.0153 183.908 51.7673 184.164 51.5753 184.5C51.3913 184.836 51.2993 185.232 51.2993 185.688C51.2993 186.144 51.3913 186.544 51.5753 186.888C51.7673 187.224 52.0153 187.48 52.3193 187.656C52.6313 187.832 52.9593 187.92 53.3033 187.92C53.6553 187.92 53.9833 187.832 54.2873 187.656C54.5993 187.472 54.8473 187.208 55.0312 186.864C55.2233 186.52 55.3193 186.12 55.3193 185.664Z"></path>
<mask fill="white" id="path-21-inside-1_488_2">
<path d="M14.2235 185.898C14.0806 186.431 14.4006 186.993 14.9528 187C15.4906 187.006 16.0276 186.904 16.5307 186.696C17.3442 186.359 18.0238 185.763 18.4641 185C18.9044 184.237 19.0807 183.351 18.9658 182.478C18.8508 181.605 18.4511 180.794 17.8284 180.172C17.2058 179.549 16.3951 179.149 15.5221 179.034C14.6491 178.919 13.7626 179.096 13 179.536C12.2374 179.976 11.6414 180.656 11.3045 181.469C11.0961 181.972 10.9939 182.509 11.0003 183.047C11.0068 183.599 11.5688 183.919 12.1022 183.776V183.776C12.6357 183.634 12.9262 183.065 13.0565 182.528C13.0807 182.428 13.1126 182.33 13.1522 182.235C13.3207 181.828 13.6187 181.488 14 181.268C14.3813 181.048 14.8246 180.96 15.2611 181.017C15.6976 181.075 16.1029 181.274 16.4142 181.586C16.7255 181.897 16.9254 182.302 16.9829 182.739C17.0404 183.175 16.9522 183.619 16.7321 184C16.5119 184.381 16.1721 184.679 15.7654 184.848C15.6697 184.887 15.5716 184.919 15.4719 184.944C14.9352 185.074 14.3665 185.364 14.2235 185.898V185.898Z"></path>
</mask>
<path mask="url(#path-21-inside-1_488_2)" stroke-width="4" stroke="black" d="M14.2235 185.898C14.0806 186.431 14.4006 186.993 14.9528 187C15.4906 187.006 16.0276 186.904 16.5307 186.696C17.3442 186.359 18.0238 185.763 18.4641 185C18.9044 184.237 19.0807 183.351 18.9658 182.478C18.8508 181.605 18.4511 180.794 17.8284 180.172C17.2058 179.549 16.3951 179.149 15.5221 179.034C14.6491 178.919 13.7626 179.096 13 179.536C12.2374 179.976 11.6414 180.656 11.3045 181.469C11.0961 181.972 10.9939 182.509 11.0003 183.047C11.0068 183.599 11.5688 183.919 12.1022 183.776V183.776C12.6357 183.634 12.9262 183.065 13.0565 182.528C13.0807 182.428 13.1126 182.33 13.1522 182.235C13.3207 181.828 13.6187 181.488 14 181.268C14.3813 181.048 14.8246 180.96 15.2611 181.017C15.6976 181.075 16.1029 181.274 16.4142 181.586C16.7255 181.897 16.9254 182.302 16.9829 182.739C17.0404 183.175 16.9522 183.619 16.7321 184C16.5119 184.381 16.1721 184.679 15.7654 184.848C15.6697 184.887 15.5716 184.919 15.4719 184.944C14.9352 185.074 14.3665 185.364 14.2235 185.898V185.898Z"></path>
<circle fill="black" r="1" cy="190" cx="15"></circle>
</svg>
