<svg width="450" height="360" viewBox="0 0 450 360" fill="none" xmlns="http://www.w3.org/2000/svg">
<rect width="450" height="40" rx="15" fill="white" fill-opacity="0.1"/>
<path d="M25.364 19.716C25.812 19.796 26.192 20.032 26.504 20.424C26.816 20.816 26.972 21.26 26.972 21.756C26.972 22.18 26.86 22.564 26.636 22.908C26.42 23.244 26.104 23.512 25.688 23.712C25.272 23.904 24.788 24 24.236 24H20.9V15.66H24.08C24.648 15.66 25.136 15.756 25.544 15.948C25.952 16.14 26.26 16.4 26.468 16.728C26.676 17.048 26.78 17.408 26.78 17.808C26.78 18.288 26.652 18.688 26.396 19.008C26.14 19.328 25.796 19.564 25.364 19.716ZM22.268 19.164H23.96C24.408 19.164 24.756 19.064 25.004 18.864C25.26 18.656 25.388 18.36 25.388 17.976C25.388 17.6 25.26 17.308 25.004 17.1C24.756 16.884 24.408 16.776 23.96 16.776H22.268V19.164ZM24.116 22.884C24.58 22.884 24.944 22.772 25.208 22.548C25.472 22.324 25.604 22.012 25.604 21.612C25.604 21.204 25.464 20.88 25.184 20.64C24.904 20.4 24.532 20.28 24.068 20.28H22.268V22.884H24.116ZM28.0026 20.664C28.0026 20 28.1386 19.412 28.4106 18.9C28.6906 18.388 29.0666 17.992 29.5386 17.712C30.0186 17.424 30.5466 17.28 31.1226 17.28C31.6426 17.28 32.0946 17.384 32.4786 17.592C32.8706 17.792 33.1826 18.044 33.4146 18.348V17.388H34.7946V24H33.4146V23.016C33.1826 23.328 32.8666 23.588 32.4666 23.796C32.0666 24.004 31.6106 24.108 31.0986 24.108C30.5306 24.108 30.0106 23.964 29.5386 23.676C29.0666 23.38 28.6906 22.972 28.4106 22.452C28.1386 21.924 28.0026 21.328 28.0026 20.664ZM33.4146 20.688C33.4146 20.232 33.3186 19.836 33.1266 19.5C32.9426 19.164 32.6986 18.908 32.3946 18.732C32.0906 18.556 31.7626 18.468 31.4106 18.468C31.0586 18.468 30.7306 18.556 30.4266 18.732C30.1226 18.9 29.8746 19.152 29.6826 19.488C29.4986 19.816 29.4066 20.208 29.4066 20.664C29.4066 21.12 29.4986 21.52 29.6826 21.864C29.8746 22.208 30.1226 22.472 30.4266 22.656C30.7386 22.832 31.0666 22.92 31.4106 22.92C31.7626 22.92 32.0906 22.832 32.3946 22.656C32.6986 22.48 32.9426 22.224 33.1266 21.888C33.3186 21.544 33.4146 21.144 33.4146 20.688ZM38.1874 18.504V22.164C38.1874 22.412 38.2434 22.592 38.3554 22.704C38.4754 22.808 38.6754 22.86 38.9554 22.86H39.7954V24H38.7154C38.0994 24 37.6274 23.856 37.2994 23.568C36.9714 23.28 36.8074 22.812 36.8074 22.164V18.504H36.0274V17.388H36.8074V15.744H38.1874V17.388H39.7954V18.504H38.1874ZM42.6523 18.504V22.164C42.6523 22.412 42.7083 22.592 42.8203 22.704C42.9403 22.808 43.1403 22.86 43.4203 22.86H44.2603V24H43.1803C42.5643 24 42.0923 23.856 41.7643 23.568C41.4363 23.28 41.2723 22.812 41.2723 22.164V18.504H40.4923V17.388H41.2723V15.744H42.6523V17.388H44.2603V18.504H42.6523ZM46.8891 15.12V24H45.5211V15.12H46.8891ZM54.7452 20.532C54.7452 20.78 54.7292 21.004 54.6972 21.204H49.6452C49.6852 21.732 49.8812 22.156 50.2332 22.476C50.5852 22.796 51.0172 22.956 51.5292 22.956C52.2652 22.956 52.7852 22.648 53.0892 22.032H54.5652C54.3652 22.64 54.0012 23.14 53.4732 23.532C52.9532 23.916 52.3052 24.108 51.5292 24.108C50.8972 24.108 50.3292 23.968 49.8252 23.688C49.3292 23.4 48.9372 23 48.6492 22.488C48.3692 21.968 48.2292 21.368 48.2292 20.688C48.2292 20.008 48.3652 19.412 48.6372 18.9C48.9172 18.38 49.3052 17.98 49.8012 17.7C50.3052 17.42 50.8812 17.28 51.5292 17.28C52.1532 17.28 52.7092 17.416 53.1972 17.688C53.6852 17.96 54.0652 18.344 54.3372 18.84C54.6092 19.328 54.7452 19.892 54.7452 20.532ZM53.3172 20.1C53.3092 19.596 53.1292 19.192 52.7772 18.888C52.4252 18.584 51.9892 18.432 51.4692 18.432C50.9972 18.432 50.5932 18.584 50.2572 18.888C49.9212 19.184 49.7212 19.588 49.6572 20.1H53.3172ZM70.0686 15.66L67.5966 24H66.0486L64.2966 17.688L62.4366 24L60.9006 24.012L58.5366 15.66H59.9886L61.7166 22.452L63.5886 15.66H65.1246L66.8646 22.416L68.6046 15.66H70.0686ZM74.0649 24.108C73.4409 24.108 72.8769 23.968 72.3729 23.688C71.8689 23.4 71.4729 23 71.1849 22.488C70.8969 21.968 70.7529 21.368 70.7529 20.688C70.7529 20.016 70.9009 19.42 71.1969 18.9C71.4929 18.38 71.8969 17.98 72.4089 17.7C72.9209 17.42 73.4929 17.28 74.1249 17.28C74.7569 17.28 75.3289 17.42 75.8409 17.7C76.3529 17.98 76.7569 18.38 77.0529 18.9C77.3489 19.42 77.4969 20.016 77.4969 20.688C77.4969 21.36 77.3449 21.956 77.0409 22.476C76.7369 22.996 76.3209 23.4 75.7929 23.688C75.2729 23.968 74.6969 24.108 74.0649 24.108ZM74.0649 22.92C74.4169 22.92 74.7449 22.836 75.0489 22.668C75.3609 22.5 75.6129 22.248 75.8049 21.912C75.9969 21.576 76.0929 21.168 76.0929 20.688C76.0929 20.208 76.0009 19.804 75.8169 19.476C75.6329 19.14 75.3889 18.888 75.0849 18.72C74.7809 18.552 74.4529 18.468 74.1009 18.468C73.7489 18.468 73.4209 18.552 73.1169 18.72C72.8209 18.888 72.5849 19.14 72.4089 19.476C72.2329 19.804 72.1449 20.208 72.1449 20.688C72.1449 21.4 72.3249 21.952 72.6849 22.344C73.0529 22.728 73.5129 22.92 74.0649 22.92ZM80.2172 18.348C80.4172 18.012 80.6812 17.752 81.0092 17.568C81.3452 17.376 81.7412 17.28 82.1972 17.28V18.696H81.8492C81.3132 18.696 80.9052 18.832 80.6252 19.104C80.3532 19.376 80.2172 19.848 80.2172 20.52V24H78.8492V17.388H80.2172V18.348ZM84.8227 15.12V24H83.4547V15.12H84.8227ZM86.1628 20.664C86.1628 20 86.2988 19.412 86.5708 18.9C86.8508 18.388 87.2268 17.992 87.6988 17.712C88.1788 17.424 88.7108 17.28 89.2948 17.28C89.7268 17.28 90.1508 17.376 90.5668 17.568C90.9908 17.752 91.3268 18 91.5748 18.312V15.12H92.9548V24H91.5748V23.004C91.3508 23.324 91.0388 23.588 90.6388 23.796C90.2468 24.004 89.7948 24.108 89.2828 24.108C88.7068 24.108 88.1788 23.964 87.6988 23.676C87.2268 23.38 86.8508 22.972 86.5708 22.452C86.2988 21.924 86.1628 21.328 86.1628 20.664ZM91.5748 20.688C91.5748 20.232 91.4788 19.836 91.2868 19.5C91.1028 19.164 90.8588 18.908 90.5548 18.732C90.2508 18.556 89.9228 18.468 89.5708 18.468C89.2188 18.468 88.8908 18.556 88.5868 18.732C88.2828 18.9 88.0348 19.152 87.8428 19.488C87.6588 19.816 87.5668 20.208 87.5668 20.664C87.5668 21.12 87.6588 21.52 87.8428 21.864C88.0348 22.208 88.2828 22.472 88.5868 22.656C88.8988 22.832 89.2268 22.92 89.5708 22.92C89.9228 22.92 90.2508 22.832 90.5548 22.656C90.8588 22.48 91.1028 22.224 91.2868 21.888C91.4788 21.544 91.5748 21.144 91.5748 20.688Z" fill="white"/>
<path d="M232.23 17.7V18.21H235.68V17.7H232.23ZM235.95 17.7V18.21H239.39V17.7H235.95ZM233.7 17.11V19.69H234.27V17.11H233.7ZM235.33 20.24V22.36H236V20.24H235.33ZM237.28 17.11V19.69H237.86V17.11H237.28ZM233.36 21.54H238V22.15H233.36V21.54ZM233.36 20.51H238V21.12H233.36V20.51ZM232.7 20.03V22.64H238.69V20.03H232.7ZM236.61 23.38L236.68 23.82C237.28 23.78 237.93 23.73 238.67 23.66V23.29C237.88 23.33 237.18 23.36 236.61 23.38ZM233.69 17.92C233.32 18.43 232.62 18.97 231.97 19.22C232.1 19.33 232.27 19.52 232.36 19.66C233.02 19.34 233.74 18.7 234.11 18.09L233.69 17.92ZM237.26 17.92C236.9 18.43 236.21 18.97 235.58 19.22C235.7 19.33 235.87 19.52 235.96 19.66C236.6 19.34 237.32 18.7 237.69 18.09L237.26 17.92ZM237.93 17.98L237.5 18.17C237.88 18.72 238.61 19.37 239.2 19.68C239.3 19.54 239.48 19.34 239.61 19.23C239.02 18.98 238.31 18.45 237.93 17.98ZM233.97 22.51C233.77 23.41 233.23 23.94 231.63 24.25C231.77 24.38 231.97 24.66 232.04 24.83C233.81 24.42 234.46 23.71 234.71 22.51H233.97ZM235.66 22.51V23.95C235.66 24.61 235.9 24.76 236.85 24.76C237.04 24.76 238.48 24.76 238.68 24.76C239.39 24.76 239.58 24.55 239.67 23.68C239.48 23.64 239.22 23.56 239.07 23.46C239.04 24.13 238.97 24.22 238.61 24.22C238.31 24.22 237.12 24.22 236.89 24.22C236.4 24.22 236.32 24.18 236.32 23.95V22.51H235.66ZM235.11 19.44C235 19.65 234.79 19.96 234.63 20.19L235.18 20.35C235.36 20.14 235.61 19.88 235.83 19.57L235.11 19.44ZM237.26 22.39C237.2 22.69 237.07 23.15 236.96 23.46L237.38 23.59C237.49 23.32 237.62 22.93 237.77 22.55L237.26 22.39ZM238.01 22.91C238.29 23.22 238.58 23.65 238.68 23.96L239.13 23.77C239.02 23.48 238.73 23.05 238.45 22.75L238.01 22.91ZM234.23 18.27L233.9 18.52C234.22 18.71 235.02 19.2 235.27 19.41L235.64 18.99C235.42 18.85 234.5 18.39 234.23 18.27ZM234.88 15.61V16.8H235.65V15.61H234.88ZM231.57 16.4V17.04H239.52V16.4H231.57ZM231.14 16.4V19.53C231.14 20.98 231.07 22.96 230.29 24.38C230.45 24.46 230.74 24.69 230.87 24.83C231.71 23.32 231.84 21.07 231.84 19.53V16.4H231.14ZM242.31 18.23H247.67V19.32H242.31V18.23ZM242.31 16.56H247.67V17.63H242.31V16.56ZM241.56 15.93V19.94H248.44V15.93H241.56ZM246.1 19.53L245.46 19.77C246.25 20.91 247.68 21.86 249.11 22.32C249.22 22.12 249.44 21.83 249.61 21.68C248.21 21.31 246.8 20.5 246.1 19.53ZM243.94 19.53C243.22 20.49 241.79 21.35 240.44 21.74C240.61 21.89 240.83 22.17 240.95 22.36C242.32 21.87 243.79 20.91 244.59 19.8L243.94 19.53ZM243.11 21.29V21.89C243.11 22.63 242.93 23.6 241.17 24.26C241.34 24.41 241.58 24.67 241.69 24.86C243.63 24.08 243.87 22.87 243.87 21.91V21.29H243.11ZM244.6 16.26V19.66H245.36V16.26H244.6ZM246.29 21.29V24.78H247.06V21.29H246.29ZM253.04 24.07C252.573 24.07 252.153 23.99 251.78 23.83C251.407 23.6633 251.113 23.43 250.9 23.13C250.687 22.83 250.58 22.48 250.58 22.08H251.8C251.827 22.38 251.943 22.6267 252.15 22.82C252.363 23.0133 252.66 23.11 253.04 23.11C253.433 23.11 253.74 23.0167 253.96 22.83C254.18 22.6367 254.29 22.39 254.29 22.09C254.29 21.8567 254.22 21.6667 254.08 21.52C253.947 21.3733 253.777 21.26 253.57 21.18C253.37 21.1 253.09 21.0133 252.73 20.92C252.277 20.8 251.907 20.68 251.62 20.56C251.34 20.4333 251.1 20.24 250.9 19.98C250.7 19.72 250.6 19.3733 250.6 18.94C250.6 18.54 250.7 18.19 250.9 17.89C251.1 17.59 251.38 17.36 251.74 17.2C252.1 17.04 252.517 16.96 252.99 16.96C253.663 16.96 254.213 17.13 254.64 17.47C255.073 17.8033 255.313 18.2633 255.36 18.85H254.1C254.08 18.5967 253.96 18.38 253.74 18.2C253.52 18.02 253.23 17.93 252.87 17.93C252.543 17.93 252.277 18.0133 252.07 18.18C251.863 18.3467 251.76 18.5867 251.76 18.9C251.76 19.1133 251.823 19.29 251.95 19.43C252.083 19.5633 252.25 19.67 252.45 19.75C252.65 19.83 252.923 19.9167 253.27 20.01C253.73 20.1367 254.103 20.2633 254.39 20.39C254.683 20.5167 254.93 20.7133 255.13 20.98C255.337 21.24 255.44 21.59 255.44 22.03C255.44 22.3833 255.343 22.7167 255.15 23.03C254.963 23.3433 254.687 23.5967 254.32 23.79C253.96 23.9767 253.533 24.07 253.04 24.07ZM261.745 18.49L258.365 26.59H257.185L258.305 23.91L256.135 18.49H257.405L258.955 22.69L260.565 18.49H261.745ZM269.275 18.4C269.709 18.4 270.095 18.49 270.435 18.67C270.782 18.85 271.052 19.1167 271.245 19.47C271.445 19.8233 271.545 20.25 271.545 20.75V24H270.415V20.92C270.415 20.4267 270.292 20.05 270.045 19.79C269.799 19.5233 269.462 19.39 269.035 19.39C268.609 19.39 268.269 19.5233 268.015 19.79C267.769 20.05 267.645 20.4267 267.645 20.92V24H266.515V20.92C266.515 20.4267 266.392 20.05 266.145 19.79C265.899 19.5233 265.562 19.39 265.135 19.39C264.709 19.39 264.369 19.5233 264.115 19.79C263.869 20.05 263.745 20.4267 263.745 20.92V24H262.605V18.49H263.745V19.12C263.932 18.8933 264.169 18.7167 264.455 18.59C264.742 18.4633 265.049 18.4 265.375 18.4C265.815 18.4 266.209 18.4933 266.555 18.68C266.902 18.8667 267.169 19.1367 267.355 19.49C267.522 19.1567 267.782 18.8933 268.135 18.7C268.489 18.5 268.869 18.4 269.275 18.4ZM274.136 19.3C274.329 19.0467 274.593 18.8333 274.926 18.66C275.259 18.4867 275.636 18.4 276.056 18.4C276.536 18.4 276.973 18.52 277.366 18.76C277.766 18.9933 278.079 19.3233 278.306 19.75C278.533 20.1767 278.646 20.6667 278.646 21.22C278.646 21.7733 278.533 22.27 278.306 22.71C278.079 23.1433 277.766 23.4833 277.366 23.73C276.973 23.97 276.536 24.09 276.056 24.09C275.636 24.09 275.263 24.0067 274.936 23.84C274.609 23.6667 274.343 23.4533 274.136 23.2V26.62H272.996V18.49H274.136V19.3ZM277.486 21.22C277.486 20.84 277.406 20.5133 277.246 20.24C277.093 19.96 276.886 19.75 276.626 19.61C276.373 19.4633 276.099 19.39 275.806 19.39C275.519 19.39 275.246 19.4633 274.986 19.61C274.733 19.7567 274.526 19.97 274.366 20.25C274.213 20.53 274.136 20.86 274.136 21.24C274.136 21.62 274.213 21.9533 274.366 22.24C274.526 22.52 274.733 22.7333 274.986 22.88C275.246 23.0267 275.519 23.1 275.806 23.1C276.099 23.1 276.373 23.0267 276.626 22.88C276.886 22.7267 277.093 22.5067 277.246 22.22C277.406 21.9333 277.486 21.6 277.486 21.22ZM282.623 18.4C283.043 18.4 283.417 18.49 283.743 18.67C284.077 18.85 284.337 19.1167 284.523 19.47C284.717 19.8233 284.813 20.25 284.813 20.75V24H283.683V20.92C283.683 20.4267 283.56 20.05 283.313 19.79C283.067 19.5233 282.73 19.39 282.303 19.39C281.877 19.39 281.537 19.5233 281.283 19.79C281.037 20.05 280.913 20.4267 280.913 20.92V24H279.773V16.6H280.913V19.13C281.107 18.8967 281.35 18.7167 281.643 18.59C281.943 18.4633 282.27 18.4 282.623 18.4ZM288.658 24.09C288.138 24.09 287.668 23.9733 287.248 23.74C286.828 23.5 286.498 23.1667 286.258 22.74C286.018 22.3067 285.898 21.8067 285.898 21.24C285.898 20.68 286.021 20.1833 286.268 19.75C286.514 19.3167 286.851 18.9833 287.278 18.75C287.704 18.5167 288.181 18.4 288.708 18.4C289.234 18.4 289.711 18.5167 290.138 18.75C290.564 18.9833 290.901 19.3167 291.148 19.75C291.394 20.1833 291.518 20.68 291.518 21.24C291.518 21.8 291.391 22.2967 291.138 22.73C290.884 23.1633 290.538 23.5 290.098 23.74C289.664 23.9733 289.184 24.09 288.658 24.09ZM288.658 23.1C288.951 23.1 289.224 23.03 289.478 22.89C289.738 22.75 289.948 22.54 290.108 22.26C290.268 21.98 290.348 21.64 290.348 21.24C290.348 20.84 290.271 20.5033 290.118 20.23C289.964 19.95 289.761 19.74 289.508 19.6C289.254 19.46 288.981 19.39 288.688 19.39C288.394 19.39 288.121 19.46 287.868 19.6C287.621 19.74 287.424 19.95 287.278 20.23C287.131 20.5033 287.058 20.84 287.058 21.24C287.058 21.8333 287.208 22.2933 287.508 22.62C287.814 22.94 288.198 23.1 288.658 23.1ZM295.425 18.4C295.858 18.4 296.245 18.49 296.585 18.67C296.931 18.85 297.201 19.1167 297.395 19.47C297.588 19.8233 297.685 20.25 297.685 20.75V24H296.555V20.92C296.555 20.4267 296.431 20.05 296.185 19.79C295.938 19.5233 295.601 19.39 295.175 19.39C294.748 19.39 294.408 19.5233 294.155 19.79C293.908 20.05 293.785 20.4267 293.785 20.92V24H292.645V18.49H293.785V19.12C293.971 18.8933 294.208 18.7167 294.495 18.59C294.788 18.4633 295.098 18.4 295.425 18.4ZM304.099 18.49L300.719 26.59H299.539L300.659 23.91L298.489 18.49H299.759L301.309 22.69L302.919 18.49H304.099Z" fill="#808080"/>
<path d="M416.015 22.45C416.655 21.8967 417.158 21.4433 417.525 21.09C417.898 20.73 418.208 20.3567 418.455 19.97C418.702 19.5833 418.825 19.1967 418.825 18.81C418.825 18.41 418.728 18.0967 418.535 17.87C418.348 17.6433 418.052 17.53 417.645 17.53C417.252 17.53 416.945 17.6567 416.725 17.91C416.512 18.1567 416.398 18.49 416.385 18.91H415.285C415.305 18.15 415.532 17.57 415.965 17.17C416.405 16.7633 416.962 16.56 417.635 16.56C418.362 16.56 418.928 16.76 419.335 17.16C419.748 17.56 419.955 18.0933 419.955 18.76C419.955 19.24 419.832 19.7033 419.585 20.15C419.345 20.59 419.055 20.9867 418.715 21.34C418.382 21.6867 417.955 22.09 417.435 22.55L416.985 22.95H420.155V23.9H415.295V23.07L416.015 22.45ZM421.767 24.07C421.56 24.07 421.387 24 421.247 23.86C421.107 23.72 421.037 23.5467 421.037 23.34C421.037 23.1333 421.107 22.96 421.247 22.82C421.387 22.68 421.56 22.61 421.767 22.61C421.967 22.61 422.137 22.68 422.277 22.82C422.417 22.96 422.487 23.1333 422.487 23.34C422.487 23.5467 422.417 23.72 422.277 23.86C422.137 24 421.967 24.07 421.767 24.07ZM421.767 19.87C421.56 19.87 421.387 19.8 421.247 19.66C421.107 19.52 421.037 19.3467 421.037 19.14C421.037 18.9333 421.107 18.76 421.247 18.62C421.387 18.48 421.56 18.41 421.767 18.41C421.967 18.41 422.137 18.48 422.277 18.62C422.417 18.76 422.487 18.9333 422.487 19.14C422.487 19.3467 422.417 19.52 422.277 19.66C422.137 19.8 421.967 19.87 421.767 19.87ZM423.458 17.75V16.71H425.538V24H424.388V17.75H423.458ZM426.954 17.75V16.71H429.034V24H427.884V17.75H426.954Z" fill="#808080"/>
</svg>
