<svg xmlns="http://www.w3.org/2000/svg" fill="none" viewBox="0 0 480 360" height="360" width="480">
<path fill="#191919" d="M0 0H130C141.046 0 150 8.95431 150 20V340C150 351.046 141.046 360 130 360H0V0Z"></path>
<path fill="white" d="M53.744 19.88V21.368H49.024V24.648H52.704V26.136H49.024V31H47.2V19.88H53.744ZM56.3624 21.016C56.0317 21.016 55.7544 20.904 55.5304 20.68C55.3064 20.456 55.1944 20.1787 55.1944 19.848C55.1944 19.5173 55.3064 19.24 55.5304 19.016C55.7544 18.792 56.0317 18.68 56.3624 18.68C56.6824 18.68 56.9544 18.792 57.1784 19.016C57.4024 19.24 57.5144 19.5173 57.5144 19.848C57.5144 20.1787 57.4024 20.456 57.1784 20.68C56.9544 20.904 56.6824 21.016 56.3624 21.016ZM57.2584 22.184V31H55.4344V22.184H57.2584ZM61.4771 19.16V31H59.6531V19.16H61.4771ZM71.9519 26.376C71.9519 26.7067 71.9305 27.0053 71.8879 27.272H65.1519C65.2052 27.976 65.4665 28.5413 65.9359 28.968C66.4052 29.3947 66.9812 29.608 67.6639 29.608C68.6452 29.608 69.3385 29.1973 69.7439 28.376H71.7119C71.4452 29.1867 70.9599 29.8533 70.2559 30.376C69.5625 30.888 68.6985 31.144 67.6639 31.144C66.8212 31.144 66.0639 30.9573 65.3919 30.584C64.7305 30.2 64.2079 29.6667 63.8239 28.984C63.4505 28.2907 63.2639 27.4907 63.2639 26.584C63.2639 25.6773 63.4452 24.8827 63.8079 24.2C64.1812 23.5067 64.6985 22.9733 65.3599 22.6C66.0319 22.2267 66.7999 22.04 67.6639 22.04C68.4959 22.04 69.2372 22.2213 69.8879 22.584C70.5385 22.9467 71.0452 23.4587 71.4079 24.12C71.7705 24.7707 71.9519 25.5227 71.9519 26.376ZM70.0479 25.8C70.0372 25.128 69.7972 24.5893 69.3279 24.184C68.8585 23.7787 68.2772 23.576 67.5839 23.576C66.9545 23.576 66.4159 23.7787 65.9679 24.184C65.5199 24.5787 65.2532 25.1173 65.1679 25.8H70.0479ZM76.9469 31.144C76.2535 31.144 75.6295 31.0213 75.0749 30.776C74.5309 30.52 74.0989 30.1787 73.7789 29.752C73.4589 29.3147 73.2882 28.8293 73.2669 28.296H75.1549C75.1869 28.6693 75.3629 28.984 75.6829 29.24C76.0135 29.4853 76.4242 29.608 76.9149 29.608C77.4269 29.608 77.8215 29.512 78.0989 29.32C78.3869 29.1173 78.5309 28.8613 78.5309 28.552C78.5309 28.2213 78.3709 27.976 78.0509 27.816C77.7415 27.656 77.2455 27.48 76.5629 27.288C75.9015 27.1067 75.3629 26.9307 74.9469 26.76C74.5309 26.5893 74.1682 26.328 73.8589 25.976C73.5602 25.624 73.4109 25.16 73.4109 24.584C73.4109 24.1147 73.5495 23.688 73.8269 23.304C74.1042 22.9093 74.4989 22.6 75.0109 22.376C75.5335 22.152 76.1309 22.04 76.8029 22.04C77.8055 22.04 78.6109 22.296 79.2189 22.808C79.8375 23.3093 80.1682 23.9973 80.2109 24.872H78.3869C78.3549 24.4773 78.1949 24.1627 77.9069 23.928C77.6189 23.6933 77.2295 23.576 76.7389 23.576C76.2589 23.576 75.8909 23.6667 75.6349 23.848C75.3789 24.0293 75.2509 24.2693 75.2509 24.568C75.2509 24.8027 75.3362 25 75.5069 25.16C75.6775 25.32 75.8855 25.448 76.1309 25.544C76.3762 25.6293 76.7389 25.7413 77.2189 25.88C77.8589 26.0507 78.3815 26.2267 78.7869 26.408C79.2029 26.5787 79.5602 26.8347 79.8589 27.176C80.1575 27.5173 80.3122 27.9707 80.3229 28.536C80.3229 29.0373 80.1842 29.4853 79.9069 29.88C79.6295 30.2747 79.2349 30.584 78.7229 30.808C78.2215 31.032 77.6295 31.144 76.9469 31.144Z"></path>
<path fill="white" d="M9 64.9367C9 64.3432 9.26365 63.7803 9.71963 63.4003L13.7196 60.067C14.4613 59.4489 15.5387 59.4489 16.2804 60.067L20.2804 63.4003C20.7364 63.7803 21 64.3432 21 64.9367V69C21 70.1046 20.1046 71 19 71H17V67C17 66.4477 16.5523 66 16 66H14C13.4477 66 13 66.4477 13 67V71H11C9.89543 71 9 70.1046 9 69V64.9367Z"></path>
<path fill="white" d="M35.928 67.296H32.436L31.836 69H30.408L33.396 60.648H34.98L37.968 69H36.528L35.928 67.296ZM35.544 66.18L34.188 62.304L32.82 66.18H35.544ZM40.6352 60.12V69H39.2672V60.12H40.6352ZM43.7993 60.12V69H42.4313V60.12H43.7993ZM51.4845 63.504H50.2605V69H48.8805V63.504H48.1005V62.388H48.8805V61.92C48.8805 61.16 49.0805 60.608 49.4805 60.264C49.8885 59.912 50.5245 59.736 51.3885 59.736V60.876C50.9725 60.876 50.6805 60.956 50.5125 61.116C50.3445 61.268 50.2605 61.536 50.2605 61.92V62.388H51.4845V63.504ZM53.3929 61.512C53.1449 61.512 52.9369 61.428 52.7689 61.26C52.6009 61.092 52.5169 60.884 52.5169 60.636C52.5169 60.388 52.6009 60.18 52.7689 60.012C52.9369 59.844 53.1449 59.76 53.3929 59.76C53.6329 59.76 53.8369 59.844 54.0049 60.012C54.1729 60.18 54.2569 60.388 54.2569 60.636C54.2569 60.884 54.1729 61.092 54.0049 61.26C53.8369 61.428 53.6329 61.512 53.3929 61.512ZM54.0649 62.388V69H52.6969V62.388H54.0649ZM57.2289 60.12V69H55.8609V60.12H57.2289ZM65.085 65.532C65.085 65.78 65.069 66.004 65.037 66.204H59.985C60.025 66.732 60.221 67.156 60.573 67.476C60.925 67.796 61.357 67.956 61.869 67.956C62.605 67.956 63.125 67.648 63.429 67.032H64.905C64.705 67.64 64.341 68.14 63.813 68.532C63.293 68.916 62.645 69.108 61.869 69.108C61.237 69.108 60.669 68.968 60.165 68.688C59.669 68.4 59.277 68 58.989 67.488C58.709 66.968 58.569 66.368 58.569 65.688C58.569 65.008 58.705 64.412 58.977 63.9C59.257 63.38 59.645 62.98 60.141 62.7C60.645 62.42 61.221 62.28 61.869 62.28C62.493 62.28 63.049 62.416 63.537 62.688C64.025 62.96 64.405 63.344 64.677 63.84C64.949 64.328 65.085 64.892 65.085 65.532ZM63.657 65.1C63.649 64.596 63.469 64.192 63.117 63.888C62.765 63.584 62.329 63.432 61.809 63.432C61.337 63.432 60.933 63.584 60.597 63.888C60.261 64.184 60.061 64.588 59.997 65.1H63.657ZM68.8313 69.108C68.3113 69.108 67.8433 69.016 67.4273 68.832C67.0193 68.64 66.6953 68.384 66.4553 68.064C66.2153 67.736 66.0873 67.372 66.0713 66.972H67.4873C67.5113 67.252 67.6433 67.488 67.8833 67.68C68.1313 67.864 68.4393 67.956 68.8073 67.956C69.1913 67.956 69.4873 67.884 69.6953 67.74C69.9113 67.588 70.0193 67.396 70.0193 67.164C70.0193 66.916 69.8993 66.732 69.6593 66.612C69.4273 66.492 69.0553 66.36 68.5433 66.216C68.0473 66.08 67.6433 65.948 67.3313 65.82C67.0193 65.692 66.7473 65.496 66.5153 65.232C66.2913 64.968 66.1793 64.62 66.1793 64.188C66.1793 63.836 66.2833 63.516 66.4913 63.228C66.6993 62.932 66.9953 62.7 67.3793 62.532C67.7713 62.364 68.2193 62.28 68.7233 62.28C69.4753 62.28 70.0793 62.472 70.5353 62.856C70.9993 63.232 71.2473 63.748 71.2793 64.404H69.9113C69.8873 64.108 69.7673 63.872 69.5513 63.696C69.3353 63.52 69.0433 63.432 68.6753 63.432C68.3153 63.432 68.0393 63.5 67.8473 63.636C67.6553 63.772 67.5593 63.952 67.5593 64.176C67.5593 64.352 67.6233 64.5 67.7513 64.62C67.8793 64.74 68.0353 64.836 68.2193 64.908C68.4033 64.972 68.6753 65.056 69.0353 65.16C69.5153 65.288 69.9073 65.42 70.2113 65.556C70.5233 65.684 70.7913 65.876 71.0153 66.132C71.2393 66.388 71.3553 66.728 71.3633 67.152C71.3633 67.528 71.2593 67.864 71.0513 68.16C70.8433 68.456 70.5473 68.688 70.1633 68.856C69.7873 69.024 69.3433 69.108 68.8313 69.108Z"></path>
<path fill="white" d="M36.288 90.66V91.776H34.068V99H32.7V91.776H30.468V90.66H36.288ZM43.7334 95.532C43.7334 95.78 43.7174 96.004 43.6854 96.204H38.6334C38.6734 96.732 38.8694 97.156 39.2214 97.476C39.5734 97.796 40.0054 97.956 40.5174 97.956C41.2534 97.956 41.7734 97.648 42.0774 97.032H43.5534C43.3534 97.64 42.9894 98.14 42.4614 98.532C41.9414 98.916 41.2934 99.108 40.5174 99.108C39.8854 99.108 39.3174 98.968 38.8134 98.688C38.3174 98.4 37.9254 98 37.6374 97.488C37.3574 96.968 37.2174 96.368 37.2174 95.688C37.2174 95.008 37.3534 94.412 37.6254 93.9C37.9054 93.38 38.2934 92.98 38.7894 92.7C39.2934 92.42 39.8694 92.28 40.5174 92.28C41.1414 92.28 41.6974 92.416 42.1854 92.688C42.6734 92.96 43.0534 93.344 43.3254 93.84C43.5974 94.328 43.7334 94.892 43.7334 95.532ZM42.3054 95.1C42.2974 94.596 42.1174 94.192 41.7654 93.888C41.4134 93.584 40.9774 93.432 40.4574 93.432C39.9854 93.432 39.5814 93.584 39.2454 93.888C38.9094 94.184 38.7094 94.588 38.6454 95.1H42.3054ZM47.9117 95.652L50.0477 99H48.4997L47.0717 96.756L45.7277 99H44.2997L46.4357 95.748L44.2997 92.388H45.8477L47.2757 94.632L48.6197 92.388H50.0477L47.9117 95.652ZM52.664 93.504V97.164C52.664 97.412 52.72 97.592 52.832 97.704C52.952 97.808 53.152 97.86 53.432 97.86H54.272V99H53.192C52.576 99 52.104 98.856 51.776 98.568C51.448 98.28 51.284 97.812 51.284 97.164V93.504H50.504V92.388H51.284V90.744H52.664V92.388H54.272V93.504H52.664ZM57.9328 99.108C57.4128 99.108 56.9448 99.016 56.5288 98.832C56.1208 98.64 55.7968 98.384 55.5568 98.064C55.3168 97.736 55.1888 97.372 55.1728 96.972H56.5888C56.6128 97.252 56.7448 97.488 56.9848 97.68C57.2328 97.864 57.5408 97.956 57.9088 97.956C58.2928 97.956 58.5888 97.884 58.7968 97.74C59.0128 97.588 59.1208 97.396 59.1208 97.164C59.1208 96.916 59.0008 96.732 58.7608 96.612C58.5288 96.492 58.1568 96.36 57.6448 96.216C57.1488 96.08 56.7448 95.948 56.4328 95.82C56.1208 95.692 55.8488 95.496 55.6168 95.232C55.3928 94.968 55.2808 94.62 55.2808 94.188C55.2808 93.836 55.3848 93.516 55.5928 93.228C55.8008 92.932 56.0968 92.7 56.4808 92.532C56.8728 92.364 57.3208 92.28 57.8248 92.28C58.5768 92.28 59.1808 92.472 59.6368 92.856C60.1008 93.232 60.3488 93.748 60.3808 94.404H59.0128C58.9888 94.108 58.8688 93.872 58.6528 93.696C58.4368 93.52 58.1448 93.432 57.7768 93.432C57.4168 93.432 57.1408 93.5 56.9488 93.636C56.7568 93.772 56.6608 93.952 56.6608 94.176C56.6608 94.352 56.7248 94.5 56.8528 94.62C56.9808 94.74 57.1368 94.836 57.3208 94.908C57.5048 94.972 57.7768 95.056 58.1368 95.16C58.6168 95.288 59.0088 95.42 59.3128 95.556C59.6248 95.684 59.8928 95.876 60.1168 96.132C60.3408 96.388 60.4568 96.728 60.4648 97.152C60.4648 97.528 60.3608 97.864 60.1528 98.16C59.9448 98.456 59.6488 98.688 59.2648 98.856C58.8888 99.024 58.4448 99.108 57.9328 99.108Z"></path>
<rect fill="white" rx="2" height="12" width="10" y="89" x="10"></rect>
<rect fill="#191919" rx="1" height="2" width="5" y="91" x="12"></rect>
<rect fill="#191919" rx="1" height="2" width="6" y="94" x="12"></rect>
<rect fill="#191919" rx="1" height="2" width="4" y="97" x="12"></rect>
<path fill="white" d="M33.624 120.66C34.512 120.66 35.288 120.832 35.952 121.176C36.624 121.512 37.14 122 37.5 122.64C37.868 123.272 38.052 124.012 38.052 124.86C38.052 125.708 37.868 126.444 37.5 127.068C37.14 127.692 36.624 128.172 35.952 128.508C35.288 128.836 34.512 129 33.624 129H30.9V120.66H33.624ZM33.624 127.884C34.6 127.884 35.348 127.62 35.868 127.092C36.388 126.564 36.648 125.82 36.648 124.86C36.648 123.892 36.388 123.136 35.868 122.592C35.348 122.048 34.6 121.776 33.624 121.776H32.268V127.884H33.624ZM40.7758 123.348C40.9758 123.012 41.2398 122.752 41.5678 122.568C41.9038 122.376 42.2998 122.28 42.7558 122.28V123.696H42.4078C41.8718 123.696 41.4638 123.832 41.1838 124.104C40.9118 124.376 40.7758 124.848 40.7758 125.52V129H39.4078V122.388H40.7758V123.348ZM43.5573 125.664C43.5573 125 43.6933 124.412 43.9653 123.9C44.2453 123.388 44.6213 122.992 45.0933 122.712C45.5733 122.424 46.1013 122.28 46.6773 122.28C47.1973 122.28 47.6493 122.384 48.0333 122.592C48.4253 122.792 48.7373 123.044 48.9693 123.348V122.388H50.3493V129H48.9693V128.016C48.7373 128.328 48.4213 128.588 48.0213 128.796C47.6213 129.004 47.1653 129.108 46.6533 129.108C46.0853 129.108 45.5653 128.964 45.0933 128.676C44.6213 128.38 44.2453 127.972 43.9653 127.452C43.6933 126.924 43.5573 126.328 43.5573 125.664ZM48.9693 125.688C48.9693 125.232 48.8733 124.836 48.6813 124.5C48.4973 124.164 48.2533 123.908 47.9493 123.732C47.6453 123.556 47.3173 123.468 46.9653 123.468C46.6133 123.468 46.2853 123.556 45.9813 123.732C45.6773 123.9 45.4293 124.152 45.2373 124.488C45.0533 124.816 44.9613 125.208 44.9613 125.664C44.9613 126.12 45.0533 126.52 45.2373 126.864C45.4293 127.208 45.6773 127.472 45.9813 127.656C46.2933 127.832 46.6213 127.92 46.9653 127.92C47.3173 127.92 47.6453 127.832 47.9493 127.656C48.2533 127.48 48.4973 127.224 48.6813 126.888C48.8733 126.544 48.9693 126.144 48.9693 125.688ZM61.0261 122.388L58.9741 129H57.5341L56.2021 124.116L54.8701 129H53.4301L51.3661 122.388H52.7581L54.1381 127.704L55.5421 122.388H56.9701L58.3141 127.68L59.6821 122.388H61.0261ZM62.7444 121.512C62.4964 121.512 62.2884 121.428 62.1204 121.26C61.9524 121.092 61.8684 120.884 61.8684 120.636C61.8684 120.388 61.9524 120.18 62.1204 120.012C62.2884 119.844 62.4964 119.76 62.7444 119.76C62.9844 119.76 63.1884 119.844 63.3564 120.012C63.5244 120.18 63.6084 120.388 63.6084 120.636C63.6084 120.884 63.5244 121.092 63.3564 121.26C63.1884 121.428 62.9844 121.512 62.7444 121.512ZM63.4164 122.388V129H62.0484V122.388H63.4164ZM68.5485 122.28C69.0685 122.28 69.5325 122.388 69.9405 122.604C70.3565 122.82 70.6805 123.14 70.9125 123.564C71.1445 123.988 71.2605 124.5 71.2605 125.1V129H69.9045V125.304C69.9045 124.712 69.7565 124.26 69.4605 123.948C69.1645 123.628 68.7605 123.468 68.2485 123.468C67.7365 123.468 67.3285 123.628 67.0245 123.948C66.7285 124.26 66.5805 124.712 66.5805 125.304V129H65.2125V122.388H66.5805V123.144C66.8045 122.872 67.0885 122.66 67.4325 122.508C67.7845 122.356 68.1565 122.28 68.5485 122.28ZM75.6695 122.28C76.1815 122.28 76.6335 122.384 77.0255 122.592C77.4255 122.792 77.7375 123.044 77.9615 123.348V122.388H79.3415V129.108C79.3415 129.716 79.2135 130.256 78.9575 130.728C78.7015 131.208 78.3295 131.584 77.8415 131.856C77.3615 132.128 76.7855 132.264 76.1135 132.264C75.2175 132.264 74.4735 132.052 73.8815 131.628C73.2895 131.212 72.9535 130.644 72.8735 129.924H74.2295C74.3335 130.268 74.5535 130.544 74.8895 130.752C75.2335 130.968 75.6415 131.076 76.1135 131.076C76.6655 131.076 77.1095 130.908 77.4455 130.572C77.7895 130.236 77.9615 129.748 77.9615 129.108V128.004C77.7295 128.316 77.4135 128.58 77.0135 128.796C76.6215 129.004 76.1735 129.108 75.6695 129.108C75.0935 129.108 74.5655 128.964 74.0855 128.676C73.6135 128.38 73.2375 127.972 72.9575 127.452C72.6855 126.924 72.5495 126.328 72.5495 125.664C72.5495 125 72.6855 124.412 72.9575 123.9C73.2375 123.388 73.6135 122.992 74.0855 122.712C74.5655 122.424 75.0935 122.28 75.6695 122.28ZM77.9615 125.688C77.9615 125.232 77.8655 124.836 77.6735 124.5C77.4895 124.164 77.2455 123.908 76.9415 123.732C76.6375 123.556 76.3095 123.468 75.9575 123.468C75.6055 123.468 75.2775 123.556 74.9735 123.732C74.6695 123.9 74.4215 124.152 74.2295 124.488C74.0455 124.816 73.9535 125.208 73.9535 125.664C73.9535 126.12 74.0455 126.52 74.2295 126.864C74.4215 127.208 74.6695 127.472 74.9735 127.656C75.2855 127.832 75.6135 127.92 75.9575 127.92C76.3095 127.92 76.6375 127.832 76.9415 127.656C77.2455 127.48 77.4895 127.224 77.6735 126.888C77.8655 126.544 77.9615 126.144 77.9615 125.688ZM83.5383 129.108C83.0183 129.108 82.5503 129.016 82.1343 128.832C81.7263 128.64 81.4023 128.384 81.1623 128.064C80.9223 127.736 80.7943 127.372 80.7783 126.972H82.1943C82.2183 127.252 82.3503 127.488 82.5903 127.68C82.8383 127.864 83.1463 127.956 83.5143 127.956C83.8983 127.956 84.1943 127.884 84.4023 127.74C84.6183 127.588 84.7263 127.396 84.7263 127.164C84.7263 126.916 84.6063 126.732 84.3663 126.612C84.1343 126.492 83.7623 126.36 83.2503 126.216C82.7543 126.08 82.3503 125.948 82.0383 125.82C81.7263 125.692 81.4543 125.496 81.2223 125.232C80.9983 124.968 80.8863 124.62 80.8863 124.188C80.8863 123.836 80.9903 123.516 81.1983 123.228C81.4063 122.932 81.7023 122.7 82.0863 122.532C82.4783 122.364 82.9263 122.28 83.4303 122.28C84.1823 122.28 84.7863 122.472 85.2423 122.856C85.7063 123.232 85.9543 123.748 85.9863 124.404H84.6183C84.5943 124.108 84.4743 123.872 84.2583 123.696C84.0423 123.52 83.7503 123.432 83.3823 123.432C83.0223 123.432 82.7463 123.5 82.5543 123.636C82.3623 123.772 82.2663 123.952 82.2663 124.176C82.2663 124.352 82.3303 124.5 82.4583 124.62C82.5863 124.74 82.7423 124.836 82.9263 124.908C83.1103 124.972 83.3823 125.056 83.7423 125.16C84.2223 125.288 84.6143 125.42 84.9183 125.556C85.2303 125.684 85.4983 125.876 85.7223 126.132C85.9463 126.388 86.0623 126.728 86.0703 127.152C86.0703 127.528 85.9663 127.864 85.7583 128.16C85.5503 128.456 85.2543 128.688 84.8703 128.856C84.4943 129.024 84.0503 129.108 83.5383 129.108Z"></path>
<rect fill="white" transform="rotate(30 12.4146 120.936)" height="7.2" width="3.2" y="120.936" x="12.4146"></rect>
<path fill="white" d="M11.1858 129.464L8.41455 127.864L8.50365 129.246C8.54958 129.958 9.30515 130.394 9.94481 130.078L11.1858 129.464Z"></path>
<path fill="white" d="M13.1147 119.723C13.3909 119.245 14.0025 119.081 14.4808 119.357L15.52 119.957C15.9983 120.234 16.1622 120.845 15.886 121.323L15.586 121.843L12.8147 120.243L13.1147 119.723Z"></path>
<path fill="white" d="M11.7998 130C11.7998 129.558 12.158 129.2 12.5998 129.2H18.1998C18.6416 129.2 18.9998 128.842 18.9998 128.4V128.4C18.9998 127.958 18.6416 127.6 18.1998 127.6V127.6C16.8743 127.6 15.7998 126.525 15.7998 125.2V125.2C15.7998 123.875 16.8743 122.8 18.1998 122.8H20.5998C21.0416 122.8 21.3998 123.158 21.3998 123.6V123.6C21.3998 124.042 21.0416 124.4 20.5998 124.4H18.1998C17.758 124.4 17.3998 124.758 17.3998 125.2V125.2C17.3998 125.642 17.758 126 18.1998 126V126C19.5253 126 20.5998 127.075 20.5998 128.4V128.4C20.5998 129.725 19.5253 130.8 18.1998 130.8H12.5998C12.158 130.8 11.7998 130.442 11.7998 130V130Z"></path>
<path fill="white" d="M34.94 157.58H32.03L31.53 159H30.34L32.83 152.04H34.15L36.64 159H35.44L34.94 157.58ZM34.62 156.65L33.49 153.42L32.35 156.65H34.62ZM40.5027 153.4C40.936 153.4 41.3227 153.49 41.6627 153.67C42.0093 153.85 42.2793 154.117 42.4727 154.47C42.666 154.823 42.7627 155.25 42.7627 155.75V159H41.6327V155.92C41.6327 155.427 41.5093 155.05 41.2627 154.79C41.016 154.523 40.6793 154.39 40.2527 154.39C39.826 154.39 39.486 154.523 39.2327 154.79C38.986 155.05 38.8627 155.427 38.8627 155.92V159H37.7227V153.49H38.8627V154.12C39.0493 153.893 39.286 153.717 39.5727 153.59C39.866 153.463 40.176 153.4 40.5027 153.4ZM44.7968 152.76C44.5901 152.76 44.4168 152.69 44.2768 152.55C44.1368 152.41 44.0668 152.237 44.0668 152.03C44.0668 151.823 44.1368 151.65 44.2768 151.51C44.4168 151.37 44.5901 151.3 44.7968 151.3C44.9968 151.3 45.1668 151.37 45.3068 151.51C45.4468 151.65 45.5168 151.823 45.5168 152.03C45.5168 152.237 45.4468 152.41 45.3068 152.55C45.1668 152.69 44.9968 152.76 44.7968 152.76ZM45.3568 153.49V159H44.2168V153.49H45.3568ZM53.5235 153.4C53.9568 153.4 54.3435 153.49 54.6835 153.67C55.0302 153.85 55.3002 154.117 55.4935 154.47C55.6935 154.823 55.7935 155.25 55.7935 155.75V159H54.6635V155.92C54.6635 155.427 54.5402 155.05 54.2935 154.79C54.0468 154.523 53.7102 154.39 53.2835 154.39C52.8568 154.39 52.5168 154.523 52.2635 154.79C52.0168 155.05 51.8935 155.427 51.8935 155.92V159H50.7635V155.92C50.7635 155.427 50.6402 155.05 50.3935 154.79C50.1468 154.523 49.8102 154.39 49.3835 154.39C48.9568 154.39 48.6168 154.523 48.3635 154.79C48.1168 155.05 47.9935 155.427 47.9935 155.92V159H46.8535V153.49H47.9935V154.12C48.1802 153.893 48.4168 153.717 48.7035 153.59C48.9902 153.463 49.2968 153.4 49.6235 153.4C50.0635 153.4 50.4568 153.493 50.8035 153.68C51.1502 153.867 51.4168 154.137 51.6035 154.49C51.7702 154.157 52.0302 153.893 52.3835 153.7C52.7368 153.5 53.1168 153.4 53.5235 153.4ZM56.8641 156.22C56.8641 155.667 56.9775 155.177 57.2041 154.75C57.4375 154.323 57.7508 153.993 58.1441 153.76C58.5441 153.52 58.9841 153.4 59.4641 153.4C59.8975 153.4 60.2741 153.487 60.5941 153.66C60.9208 153.827 61.1808 154.037 61.3741 154.29V153.49H62.5241V159H61.3741V158.18C61.1808 158.44 60.9175 158.657 60.5841 158.83C60.2508 159.003 59.8708 159.09 59.4441 159.09C58.9708 159.09 58.5375 158.97 58.1441 158.73C57.7508 158.483 57.4375 158.143 57.2041 157.71C56.9775 157.27 56.8641 156.773 56.8641 156.22ZM61.3741 156.24C61.3741 155.86 61.2941 155.53 61.1341 155.25C60.9808 154.97 60.7775 154.757 60.5241 154.61C60.2708 154.463 59.9975 154.39 59.7041 154.39C59.4108 154.39 59.1375 154.463 58.8841 154.61C58.6308 154.75 58.4241 154.96 58.2641 155.24C58.1108 155.513 58.0341 155.84 58.0341 156.22C58.0341 156.6 58.1108 156.933 58.2641 157.22C58.4241 157.507 58.6308 157.727 58.8841 157.88C59.1441 158.027 59.4175 158.1 59.7041 158.1C59.9975 158.1 60.2708 158.027 60.5241 157.88C60.7775 157.733 60.9808 157.52 61.1341 157.24C61.2941 156.953 61.3741 156.62 61.3741 156.24ZM65.3515 154.42V157.47C65.3515 157.677 65.3982 157.827 65.4915 157.92C65.5915 158.007 65.7582 158.05 65.9915 158.05H66.6915V159H65.7915C65.2782 159 64.8848 158.88 64.6115 158.64C64.3382 158.4 64.2015 158.01 64.2015 157.47V154.42H63.5515V153.49H64.2015V152.12H65.3515V153.49H66.6915V154.42H65.3515ZM72.7922 156.11C72.7922 156.317 72.7789 156.503 72.7522 156.67H68.5422C68.5755 157.11 68.7389 157.463 69.0322 157.73C69.3255 157.997 69.6855 158.13 70.1122 158.13C70.7255 158.13 71.1589 157.873 71.4122 157.36H72.6422C72.4755 157.867 72.1722 158.283 71.7322 158.61C71.2989 158.93 70.7589 159.09 70.1122 159.09C69.5855 159.09 69.1122 158.973 68.6922 158.74C68.2789 158.5 67.9522 158.167 67.7122 157.74C67.4789 157.307 67.3622 156.807 67.3622 156.24C67.3622 155.673 67.4755 155.177 67.7022 154.75C67.9355 154.317 68.2589 153.983 68.6722 153.75C69.0922 153.517 69.5722 153.4 70.1122 153.4C70.6322 153.4 71.0955 153.513 71.5022 153.74C71.9089 153.967 72.2255 154.287 72.4522 154.7C72.6789 155.107 72.7922 155.577 72.7922 156.11ZM71.6022 155.75C71.5955 155.33 71.4455 154.993 71.1522 154.74C70.8589 154.487 70.4955 154.36 70.0622 154.36C69.6689 154.36 69.3322 154.487 69.0522 154.74C68.7722 154.987 68.6055 155.323 68.5522 155.75H71.6022ZM73.5341 156.22C73.5341 155.667 73.6474 155.177 73.8741 154.75C74.1074 154.323 74.4207 153.993 74.8141 153.76C75.2141 153.52 75.6574 153.4 76.1441 153.4C76.5041 153.4 76.8574 153.48 77.2041 153.64C77.5574 153.793 77.8374 154 78.0441 154.26V151.6H79.1941V159H78.0441V158.17C77.8574 158.437 77.5974 158.657 77.2641 158.83C76.9374 159.003 76.5607 159.09 76.1341 159.09C75.6541 159.09 75.2141 158.97 74.8141 158.73C74.4207 158.483 74.1074 158.143 73.8741 157.71C73.6474 157.27 73.5341 156.773 73.5341 156.22ZM78.0441 156.24C78.0441 155.86 77.9641 155.53 77.8041 155.25C77.6507 154.97 77.4474 154.757 77.1941 154.61C76.9407 154.463 76.6674 154.39 76.3741 154.39C76.0807 154.39 75.8074 154.463 75.5541 154.61C75.3007 154.75 75.0941 154.96 74.9341 155.24C74.7807 155.513 74.7041 155.84 74.7041 156.22C74.7041 156.6 74.7807 156.933 74.9341 157.22C75.0941 157.507 75.3007 157.727 75.5541 157.88C75.8141 158.027 76.0874 158.1 76.3741 158.1C76.6674 158.1 76.9407 158.027 77.1941 157.88C77.4474 157.733 77.6507 157.52 77.8041 157.24C77.9641 156.953 78.0441 156.62 78.0441 156.24ZM83.8691 152.76C83.6624 152.76 83.4891 152.69 83.3491 152.55C83.2091 152.41 83.1391 152.237 83.1391 152.03C83.1391 151.823 83.2091 151.65 83.3491 151.51C83.4891 151.37 83.6624 151.3 83.8691 151.3C84.0691 151.3 84.2391 151.37 84.3791 151.51C84.5191 151.65 84.5891 151.823 84.5891 152.03C84.5891 152.237 84.5191 152.41 84.3791 152.55C84.2391 152.69 84.0691 152.76 83.8691 152.76ZM84.4291 153.49V159H83.2891V153.49H84.4291ZM92.5958 153.4C93.0291 153.4 93.4158 153.49 93.7558 153.67C94.1024 153.85 94.3724 154.117 94.5658 154.47C94.7658 154.823 94.8658 155.25 94.8658 155.75V159H93.7358V155.92C93.7358 155.427 93.6124 155.05 93.3658 154.79C93.1191 154.523 92.7824 154.39 92.3558 154.39C91.9291 154.39 91.5891 154.523 91.3358 154.79C91.0891 155.05 90.9658 155.427 90.9658 155.92V159H89.8358V155.92C89.8358 155.427 89.7124 155.05 89.4658 154.79C89.2191 154.523 88.8824 154.39 88.4558 154.39C88.0291 154.39 87.6891 154.523 87.4358 154.79C87.1891 155.05 87.0658 155.427 87.0658 155.92V159H85.9258V153.49H87.0658V154.12C87.2524 153.893 87.4891 153.717 87.7758 153.59C88.0624 153.463 88.3691 153.4 88.6958 153.4C89.1358 153.4 89.5291 153.493 89.8758 153.68C90.2224 153.867 90.4891 154.137 90.6758 154.49C90.8424 154.157 91.1024 153.893 91.4558 153.7C91.8091 153.5 92.1891 153.4 92.5958 153.4ZM95.9364 156.22C95.9364 155.667 96.0497 155.177 96.2764 154.75C96.5097 154.323 96.8231 153.993 97.2164 153.76C97.6164 153.52 98.0564 153.4 98.5364 153.4C98.9697 153.4 99.3464 153.487 99.6664 153.66C99.9931 153.827 100.253 154.037 100.446 154.29V153.49H101.596V159H100.446V158.18C100.253 158.44 99.9897 158.657 99.6564 158.83C99.3231 159.003 98.9431 159.09 98.5164 159.09C98.0431 159.09 97.6097 158.97 97.2164 158.73C96.8231 158.483 96.5097 158.143 96.2764 157.71C96.0497 157.27 95.9364 156.773 95.9364 156.22ZM100.446 156.24C100.446 155.86 100.366 155.53 100.206 155.25C100.053 154.97 99.8497 154.757 99.5964 154.61C99.3431 154.463 99.0697 154.39 98.7764 154.39C98.4831 154.39 98.2097 154.463 97.9564 154.61C97.7031 154.75 97.4964 154.96 97.3364 155.24C97.1831 155.513 97.1064 155.84 97.1064 156.22C97.1064 156.6 97.1831 156.933 97.3364 157.22C97.4964 157.507 97.7031 157.727 97.9564 157.88C98.2164 158.027 98.4897 158.1 98.7764 158.1C99.0697 158.1 99.3431 158.027 99.5964 157.88C99.8497 157.733 100.053 157.52 100.206 157.24C100.366 156.953 100.446 156.62 100.446 156.24ZM105.314 153.4C105.74 153.4 106.117 153.487 106.444 153.66C106.777 153.827 107.037 154.037 107.224 154.29V153.49H108.374V159.09C108.374 159.597 108.267 160.047 108.054 160.44C107.84 160.84 107.53 161.153 107.124 161.38C106.724 161.607 106.244 161.72 105.684 161.72C104.937 161.72 104.317 161.543 103.824 161.19C103.33 160.843 103.05 160.37 102.984 159.77H104.114C104.2 160.057 104.384 160.287 104.664 160.46C104.95 160.64 105.29 160.73 105.684 160.73C106.144 160.73 106.514 160.59 106.794 160.31C107.08 160.03 107.224 159.623 107.224 159.09V158.17C107.03 158.43 106.767 158.65 106.434 158.83C106.107 159.003 105.734 159.09 105.314 159.09C104.834 159.09 104.394 158.97 103.994 158.73C103.6 158.483 103.287 158.143 103.054 157.71C102.827 157.27 102.714 156.773 102.714 156.22C102.714 155.667 102.827 155.177 103.054 154.75C103.287 154.323 103.6 153.993 103.994 153.76C104.394 153.52 104.834 153.4 105.314 153.4ZM107.224 156.24C107.224 155.86 107.144 155.53 106.984 155.25C106.83 154.97 106.627 154.757 106.374 154.61C106.12 154.463 105.847 154.39 105.554 154.39C105.26 154.39 104.987 154.463 104.734 154.61C104.48 154.75 104.274 154.96 104.114 155.24C103.96 155.513 103.884 155.84 103.884 156.22C103.884 156.6 103.96 156.933 104.114 157.22C104.274 157.507 104.48 157.727 104.734 157.88C104.994 158.027 105.267 158.1 105.554 158.1C105.847 158.1 106.12 158.027 106.374 157.88C106.627 157.733 106.83 157.52 106.984 157.24C107.144 156.953 107.224 156.62 107.224 156.24ZM114.921 156.11C114.921 156.317 114.908 156.503 114.881 156.67H110.671C110.704 157.11 110.868 157.463 111.161 157.73C111.454 157.997 111.814 158.13 112.241 158.13C112.854 158.13 113.288 157.873 113.541 157.36H114.771C114.604 157.867 114.301 158.283 113.861 158.61C113.428 158.93 112.888 159.09 112.241 159.09C111.714 159.09 111.241 158.973 110.821 158.74C110.408 158.5 110.081 158.167 109.841 157.74C109.608 157.307 109.491 156.807 109.491 156.24C109.491 155.673 109.604 155.177 109.831 154.75C110.064 154.317 110.388 153.983 110.801 153.75C111.221 153.517 111.701 153.4 112.241 153.4C112.761 153.4 113.224 153.513 113.631 153.74C114.038 153.967 114.354 154.287 114.581 154.7C114.808 155.107 114.921 155.577 114.921 156.11ZM113.731 155.75C113.724 155.33 113.574 154.993 113.281 154.74C112.988 154.487 112.624 154.36 112.191 154.36C111.798 154.36 111.461 154.487 111.181 154.74C110.901 154.987 110.734 155.323 110.681 155.75H113.731ZM118.043 159.09C117.61 159.09 117.22 159.013 116.873 158.86C116.533 158.7 116.263 158.487 116.063 158.22C115.863 157.947 115.756 157.643 115.743 157.31H116.923C116.943 157.543 117.053 157.74 117.253 157.9C117.46 158.053 117.716 158.13 118.023 158.13C118.343 158.13 118.59 158.07 118.763 157.95C118.943 157.823 119.033 157.663 119.033 157.47C119.033 157.263 118.933 157.11 118.733 157.01C118.54 156.91 118.23 156.8 117.803 156.68C117.39 156.567 117.053 156.457 116.793 156.35C116.533 156.243 116.306 156.08 116.113 155.86C115.926 155.64 115.833 155.35 115.833 154.99C115.833 154.697 115.92 154.43 116.093 154.19C116.266 153.943 116.513 153.75 116.833 153.61C117.16 153.47 117.533 153.4 117.953 153.4C118.58 153.4 119.083 153.56 119.463 153.88C119.85 154.193 120.056 154.623 120.083 155.17H118.943C118.923 154.923 118.823 154.727 118.643 154.58C118.463 154.433 118.22 154.36 117.913 154.36C117.613 154.36 117.383 154.417 117.223 154.53C117.063 154.643 116.983 154.793 116.983 154.98C116.983 155.127 117.036 155.25 117.143 155.35C117.25 155.45 117.38 155.53 117.533 155.59C117.686 155.643 117.913 155.713 118.213 155.8C118.613 155.907 118.94 156.017 119.193 156.13C119.453 156.237 119.676 156.397 119.863 156.61C120.05 156.823 120.146 157.107 120.153 157.46C120.153 157.773 120.066 158.053 119.893 158.3C119.72 158.547 119.473 158.74 119.153 158.88C118.84 159.02 118.47 159.09 118.043 159.09Z"></path>
<circle stroke="#191919" fill="#6C6C6C" r="3" cy="155.5" cx="11.5"></circle>
<path stroke="#191919" fill="#BBBBBB" d="M15.0001 158.5C16.5946 158.5 18 157.164 18 155.5C18 153.836 16.5946 152.5 15.0001 152.5C13.4057 152.5 12 153.836 12 155.5C12 157.164 13.4057 158.5 15.0001 158.5Z"></path>
<circle stroke="#191919" fill="white" r="3" cy="155.5" cx="18.5"></circle>
<path fill="white" d="M39.684 180.66V189H38.316V183.288L35.772 189H34.824L32.268 183.288V189H30.9V180.66H32.376L35.304 187.2L38.22 180.66H39.684ZM47.47 182.388V189H46.102V188.22C45.886 188.492 45.602 188.708 45.25 188.868C44.906 189.02 44.538 189.096 44.146 189.096C43.626 189.096 43.158 188.988 42.742 188.772C42.334 188.556 42.01 188.236 41.77 187.812C41.538 187.388 41.422 186.876 41.422 186.276V182.388H42.778V186.072C42.778 186.664 42.926 187.12 43.222 187.44C43.518 187.752 43.922 187.908 44.434 187.908C44.946 187.908 45.35 187.752 45.646 187.44C45.95 187.12 46.102 186.664 46.102 186.072V182.388H47.47ZM51.675 189.108C51.155 189.108 50.687 189.016 50.271 188.832C49.863 188.64 49.539 188.384 49.299 188.064C49.059 187.736 48.931 187.372 48.915 186.972H50.331C50.355 187.252 50.487 187.488 50.727 187.68C50.975 187.864 51.283 187.956 51.651 187.956C52.035 187.956 52.331 187.884 52.539 187.74C52.755 187.588 52.863 187.396 52.863 187.164C52.863 186.916 52.743 186.732 52.503 186.612C52.271 186.492 51.899 186.36 51.387 186.216C50.891 186.08 50.487 185.948 50.175 185.82C49.863 185.692 49.591 185.496 49.359 185.232C49.135 184.968 49.023 184.62 49.023 184.188C49.023 183.836 49.127 183.516 49.335 183.228C49.543 182.932 49.839 182.7 50.223 182.532C50.615 182.364 51.063 182.28 51.567 182.28C52.319 182.28 52.923 182.472 53.379 182.856C53.843 183.232 54.091 183.748 54.123 184.404H52.755C52.731 184.108 52.611 183.872 52.395 183.696C52.179 183.52 51.887 183.432 51.519 183.432C51.159 183.432 50.883 183.5 50.691 183.636C50.499 183.772 50.403 183.952 50.403 184.176C50.403 184.352 50.467 184.5 50.595 184.62C50.723 184.74 50.879 184.836 51.063 184.908C51.247 184.972 51.519 185.056 51.879 185.16C52.359 185.288 52.751 185.42 53.055 185.556C53.367 185.684 53.635 185.876 53.859 186.132C54.083 186.388 54.199 186.728 54.207 187.152C54.207 187.528 54.103 187.864 53.895 188.16C53.687 188.456 53.391 188.688 53.007 188.856C52.631 189.024 52.187 189.108 51.675 189.108ZM56.3812 181.512C56.1332 181.512 55.9252 181.428 55.7572 181.26C55.5892 181.092 55.5052 180.884 55.5052 180.636C55.5052 180.388 55.5892 180.18 55.7572 180.012C55.9252 179.844 56.1332 179.76 56.3812 179.76C56.6212 179.76 56.8252 179.844 56.9932 180.012C57.1612 180.18 57.2452 180.388 57.2452 180.636C57.2452 180.884 57.1612 181.092 56.9932 181.26C56.8252 181.428 56.6212 181.512 56.3812 181.512ZM57.0532 182.388V189H55.6852V182.388H57.0532ZM58.3932 185.688C58.3932 185.008 58.5292 184.412 58.8012 183.9C59.0812 183.38 59.4652 182.98 59.9532 182.7C60.4412 182.42 61.0012 182.28 61.6332 182.28C62.4332 182.28 63.0932 182.472 63.6132 182.856C64.1412 183.232 64.4972 183.772 64.6812 184.476H63.2052C63.0852 184.148 62.8932 183.892 62.6292 183.708C62.3652 183.524 62.0332 183.432 61.6332 183.432C61.0732 183.432 60.6252 183.632 60.2892 184.032C59.9612 184.424 59.7972 184.976 59.7972 185.688C59.7972 186.4 59.9612 186.956 60.2892 187.356C60.6252 187.756 61.0732 187.956 61.6332 187.956C62.4252 187.956 62.9492 187.608 63.2052 186.912H64.6812C64.4892 187.584 64.1292 188.12 63.6012 188.52C63.0732 188.912 62.4172 189.108 61.6332 189.108C61.0012 189.108 60.4412 188.968 59.9532 188.688C59.4652 188.4 59.0812 188 58.8012 187.488C58.5292 186.968 58.3932 186.368 58.3932 185.688ZM68.4445 189.108C67.9245 189.108 67.4565 189.016 67.0405 188.832C66.6325 188.64 66.3085 188.384 66.0685 188.064C65.8285 187.736 65.7005 187.372 65.6845 186.972H67.1005C67.1245 187.252 67.2565 187.488 67.4965 187.68C67.7445 187.864 68.0525 187.956 68.4205 187.956C68.8045 187.956 69.1005 187.884 69.3085 187.74C69.5245 187.588 69.6325 187.396 69.6325 187.164C69.6325 186.916 69.5125 186.732 69.2725 186.612C69.0405 186.492 68.6685 186.36 68.1565 186.216C67.6605 186.08 67.2565 185.948 66.9445 185.82C66.6325 185.692 66.3605 185.496 66.1285 185.232C65.9045 184.968 65.7925 184.62 65.7925 184.188C65.7925 183.836 65.8965 183.516 66.1045 183.228C66.3125 182.932 66.6085 182.7 66.9925 182.532C67.3845 182.364 67.8325 182.28 68.3365 182.28C69.0885 182.28 69.6925 182.472 70.1485 182.856C70.6125 183.232 70.8605 183.748 70.8925 184.404H69.5245C69.5005 184.108 69.3805 183.872 69.1645 183.696C68.9485 183.52 68.6565 183.432 68.2885 183.432C67.9285 183.432 67.6525 183.5 67.4605 183.636C67.2685 183.772 67.1725 183.952 67.1725 184.176C67.1725 184.352 67.2365 184.5 67.3645 184.62C67.4925 184.74 67.6485 184.836 67.8325 184.908C68.0165 184.972 68.2885 185.056 68.6485 185.16C69.1285 185.288 69.5205 185.42 69.8245 185.556C70.1365 185.684 70.4045 185.876 70.6285 186.132C70.8525 186.388 70.9685 186.728 70.9765 187.152C70.9765 187.528 70.8725 187.864 70.6645 188.16C70.4565 188.456 70.1605 188.688 69.7765 188.856C69.4005 189.024 68.9565 189.108 68.4445 189.108Z"></path>
<rect stroke-width="1.5" stroke="white" rx="2.25" height="4.5" width="4.5" y="184.25" x="9.75"></rect>
<path fill="white" d="M13.5 182.75C13.5 181.507 14.5074 180.5 15.75 180.5V180.5C16.1642 180.5 16.5 180.836 16.5 181.25V181.25C16.5 181.664 16.1642 182 15.75 182V182C15.3358 182 15 182.336 15 182.75V186.5H13.5V182.75Z"></path>
<rect fill="white" height="6.75" width="3" y="181.25" x="18"></rect>
<path fill="white" d="M21 188.75L18 188.75L18.668 189.752C19.0638 190.346 19.9362 190.346 20.3321 189.752L21 188.75Z"></path>
<path fill="white" d="M18 180C18 179.448 18.4477 179 19 179L20 179C20.5523 179 21 179.448 21 180L21 180.5L18 180.5L18 180Z"></path>
<rect fill="#191919" rx="1" height="2" width="8" y="20" x="18"></rect>
<rect fill="#191919" rx="1" height="2" width="10" y="24" x="18"></rect>
<rect fill="#191919" rx="1" height="2" width="5" y="28" x="18"></rect>
<path fill="white" d="M15 21C15 18.7909 16.7909 17 19 17H21C23.2091 17 25 18.7909 25 21V21L23 20H27C29.2091 20 31 21.7909 31 24V29C31 31.2091 29.2091 33 27 33H19C16.7909 33 15 31.2091 15 29V21Z"></path>
<rect fill="#191919" rx="1" height="2" width="8" y="27" x="19"></rect>
</svg>
