<svg width="480" height="360" viewBox="0 0 480 360" fill="none" xmlns="http://www.w3.org/2000/svg">
<path d="M104.581 0H450C466.569 0 480 13.4315 480 30V330C480 346.569 466.569 360 450 360H104.581H30C13.4315 360 0 346.569 0 330V30C0 13.4315 13.4315 0 30 0H104.581Z" fill="#191919"/>
<path d="M228.515 290.192C228.515 290.757 228.382 291.291 228.115 291.792C227.848 292.293 227.422 292.704 226.835 293.024C226.248 293.333 225.496 293.488 224.579 293.488H222.563V298H220.739V286.88H224.579C225.432 286.88 226.152 287.029 226.739 287.328C227.336 287.616 227.779 288.011 228.067 288.512C228.366 289.013 228.515 289.573 228.515 290.192ZM224.579 292C225.272 292 225.79 291.845 226.131 291.536C226.472 291.216 226.643 290.768 226.643 290.192C226.643 288.976 225.955 288.368 224.579 288.368H222.563V292H224.579ZM229.647 293.552C229.647 292.667 229.828 291.883 230.191 291.2C230.564 290.517 231.065 289.989 231.695 289.616C232.335 289.232 233.039 289.04 233.807 289.04C234.5 289.04 235.103 289.179 235.615 289.456C236.137 289.723 236.553 290.059 236.863 290.464V289.184H238.703V298H236.863V296.688C236.553 297.104 236.132 297.451 235.599 297.728C235.065 298.005 234.457 298.144 233.775 298.144C233.017 298.144 232.324 297.952 231.695 297.568C231.065 297.173 230.564 296.629 230.191 295.936C229.828 295.232 229.647 294.437 229.647 293.552ZM236.863 293.584C236.863 292.976 236.735 292.448 236.479 292C236.233 291.552 235.908 291.211 235.503 290.976C235.097 290.741 234.66 290.624 234.191 290.624C233.721 290.624 233.284 290.741 232.879 290.976C232.473 291.2 232.143 291.536 231.887 291.984C231.641 292.421 231.519 292.944 231.519 293.552C231.519 294.16 231.641 294.693 231.887 295.152C232.143 295.611 232.473 295.963 232.879 296.208C233.295 296.443 233.732 296.56 234.191 296.56C234.66 296.56 235.097 296.443 235.503 296.208C235.908 295.973 236.233 295.632 236.479 295.184C236.735 294.725 236.863 294.192 236.863 293.584ZM242.026 288.016C241.696 288.016 241.418 287.904 241.194 287.68C240.97 287.456 240.858 287.179 240.858 286.848C240.858 286.517 240.97 286.24 241.194 286.016C241.418 285.792 241.696 285.68 242.026 285.68C242.346 285.68 242.618 285.792 242.842 286.016C243.066 286.24 243.178 286.517 243.178 286.848C243.178 287.179 243.066 287.456 242.842 287.68C242.618 287.904 242.346 288.016 242.026 288.016ZM242.922 289.184V298H241.098V289.184H242.922ZM249.765 289.04C250.459 289.04 251.077 289.184 251.621 289.472C252.176 289.76 252.608 290.187 252.917 290.752C253.227 291.317 253.381 292 253.381 292.8V298H251.573V293.072C251.573 292.283 251.376 291.68 250.981 291.264C250.587 290.837 250.048 290.624 249.365 290.624C248.683 290.624 248.139 290.837 247.733 291.264C247.339 291.68 247.141 292.283 247.141 293.072V298H245.317V289.184H247.141V290.192C247.44 289.829 247.819 289.547 248.277 289.344C248.747 289.141 249.243 289.04 249.765 289.04ZM257.836 290.672V295.552C257.836 295.883 257.91 296.123 258.06 296.272C258.22 296.411 258.486 296.48 258.86 296.48H259.98V298H258.54C257.718 298 257.089 297.808 256.652 297.424C256.214 297.04 255.996 296.416 255.996 295.552V290.672H254.956V289.184H255.996V286.992H257.836V289.184H259.98V290.672H257.836Z" fill="white"/>
</svg>
