<svg width="480" height="360" viewBox="0 0 480 360" fill="none" xmlns="http://www.w3.org/2000/svg">
<path d="M104.581 0H450C466.569 0 480 13.4315 480 30V330C480 346.569 466.569 360 450 360H104.581H30C13.4315 360 0 346.569 0 330V30C0 13.4315 13.4315 0 30 0H104.581Z" fill="#E6E6E6"/>
<path d="M223.95 298.112C223.203 298.112 222.531 297.984 221.934 297.728C221.337 297.461 220.867 297.088 220.526 296.608C220.185 296.128 220.014 295.568 220.014 294.928H221.966C222.009 295.408 222.195 295.803 222.526 296.112C222.867 296.421 223.342 296.576 223.95 296.576C224.579 296.576 225.07 296.427 225.422 296.128C225.774 295.819 225.95 295.424 225.95 294.944C225.95 294.571 225.838 294.267 225.614 294.032C225.401 293.797 225.129 293.616 224.798 293.488C224.478 293.36 224.03 293.221 223.454 293.072C222.729 292.88 222.137 292.688 221.678 292.496C221.23 292.293 220.846 291.984 220.526 291.568C220.206 291.152 220.046 290.597 220.046 289.904C220.046 289.264 220.206 288.704 220.526 288.224C220.846 287.744 221.294 287.376 221.87 287.12C222.446 286.864 223.113 286.736 223.87 286.736C224.947 286.736 225.827 287.008 226.51 287.552C227.203 288.085 227.587 288.821 227.662 289.76H225.646C225.614 289.355 225.422 289.008 225.07 288.72C224.718 288.432 224.254 288.288 223.678 288.288C223.155 288.288 222.729 288.421 222.398 288.688C222.067 288.955 221.902 289.339 221.902 289.84C221.902 290.181 222.003 290.464 222.206 290.688C222.419 290.901 222.686 291.072 223.006 291.2C223.326 291.328 223.763 291.467 224.318 291.616C225.054 291.819 225.651 292.021 226.11 292.224C226.579 292.427 226.974 292.741 227.294 293.168C227.625 293.584 227.79 294.144 227.79 294.848C227.79 295.413 227.635 295.947 227.326 296.448C227.027 296.949 226.585 297.355 225.998 297.664C225.422 297.963 224.739 298.112 223.95 298.112ZM232.07 290.672V295.552C232.07 295.883 232.145 296.123 232.294 296.272C232.454 296.411 232.721 296.48 233.094 296.48H234.214V298H232.774C231.953 298 231.324 297.808 230.886 297.424C230.449 297.04 230.23 296.416 230.23 295.552V290.672H229.19V289.184H230.23V286.992H232.07V289.184H234.214V290.672H232.07ZM239.719 298.144C238.887 298.144 238.135 297.957 237.463 297.584C236.791 297.2 236.263 296.667 235.879 295.984C235.495 295.291 235.303 294.491 235.303 293.584C235.303 292.688 235.501 291.893 235.895 291.2C236.29 290.507 236.829 289.973 237.511 289.6C238.194 289.227 238.957 289.04 239.799 289.04C240.642 289.04 241.405 289.227 242.087 289.6C242.77 289.973 243.309 290.507 243.703 291.2C244.098 291.893 244.295 292.688 244.295 293.584C244.295 294.48 244.093 295.275 243.687 295.968C243.282 296.661 242.727 297.2 242.023 297.584C241.33 297.957 240.562 298.144 239.719 298.144ZM239.719 296.56C240.189 296.56 240.626 296.448 241.031 296.224C241.447 296 241.783 295.664 242.039 295.216C242.295 294.768 242.423 294.224 242.423 293.584C242.423 292.944 242.301 292.405 242.055 291.968C241.81 291.52 241.485 291.184 241.079 290.96C240.674 290.736 240.237 290.624 239.767 290.624C239.298 290.624 238.861 290.736 238.455 290.96C238.061 291.184 237.746 291.52 237.511 291.968C237.277 292.405 237.159 292.944 237.159 293.584C237.159 294.533 237.399 295.269 237.879 295.792C238.37 296.304 238.983 296.56 239.719 296.56ZM247.922 290.464C248.189 290.016 248.541 289.669 248.978 289.424C249.426 289.168 249.954 289.04 250.562 289.04V290.928H250.098C249.384 290.928 248.84 291.109 248.466 291.472C248.104 291.835 247.922 292.464 247.922 293.36V298H246.098V289.184H247.922V290.464ZM260.319 293.376C260.319 293.707 260.298 294.005 260.255 294.272H253.519C253.572 294.976 253.834 295.541 254.303 295.968C254.772 296.395 255.348 296.608 256.031 296.608C257.012 296.608 257.706 296.197 258.111 295.376H260.079C259.812 296.187 259.327 296.853 258.623 297.376C257.93 297.888 257.066 298.144 256.031 298.144C255.188 298.144 254.431 297.957 253.759 297.584C253.098 297.2 252.575 296.667 252.191 295.984C251.818 295.291 251.631 294.491 251.631 293.584C251.631 292.677 251.812 291.883 252.175 291.2C252.548 290.507 253.066 289.973 253.727 289.6C254.399 289.227 255.167 289.04 256.031 289.04C256.863 289.04 257.604 289.221 258.255 289.584C258.906 289.947 259.412 290.459 259.775 291.12C260.138 291.771 260.319 292.523 260.319 293.376ZM258.415 292.8C258.404 292.128 258.164 291.589 257.695 291.184C257.226 290.779 256.644 290.576 255.951 290.576C255.322 290.576 254.783 290.779 254.335 291.184C253.887 291.579 253.62 292.117 253.535 292.8H258.415Z" fill="black"/>
</svg>
