<svg width="250" height="28" viewBox="0 0 250 28" fill="none" xmlns="http://www.w3.org/2000/svg">
<rect width="250" height="28" rx="5" fill="#1B1B1B"/>
<path d="M13.56 8.66V9.6H12.55V18.91H13.56V19.86H11.48V8.66H13.56ZM20.5635 12.49L17.1835 20.59H16.0035L17.1235 17.91L14.9535 12.49H16.2235L17.7735 16.69L19.3835 12.49H20.5635ZM26.4738 15.11C26.4738 15.3167 26.4605 15.5033 26.4338 15.67H22.2238C22.2572 16.11 22.4205 16.4633 22.7138 16.73C23.0072 16.9967 23.3672 17.13 23.7938 17.13C24.4072 17.13 24.8405 16.8733 25.0938 16.36H26.3238C26.1572 16.8667 25.8538 17.2833 25.4138 17.61C24.9805 17.93 24.4405 18.09 23.7938 18.09C23.2672 18.09 22.7938 17.9733 22.3738 17.74C21.9605 17.5 21.6338 17.1667 21.3938 16.74C21.1605 16.3067 21.0438 15.8067 21.0438 15.24C21.0438 14.6733 21.1572 14.1767 21.3838 13.75C21.6172 13.3167 21.9405 12.9833 22.3538 12.75C22.7738 12.5167 23.2538 12.4 23.7938 12.4C24.3138 12.4 24.7772 12.5133 25.1838 12.74C25.5905 12.9667 25.9072 13.2867 26.1338 13.7C26.3605 14.1067 26.4738 14.5767 26.4738 15.11ZM25.2838 14.75C25.2772 14.33 25.1272 13.9933 24.8338 13.74C24.5405 13.4867 24.1772 13.36 23.7438 13.36C23.3505 13.36 23.0138 13.4867 22.7338 13.74C22.4538 13.9867 22.2872 14.3233 22.2338 14.75H25.2838ZM29.5957 18.09C29.1624 18.09 28.7724 18.0133 28.4257 17.86C28.0857 17.7 27.8157 17.4867 27.6157 17.22C27.4157 16.9467 27.309 16.6433 27.2957 16.31H28.4757C28.4957 16.5433 28.6057 16.74 28.8057 16.9C29.0124 17.0533 29.269 17.13 29.5757 17.13C29.8957 17.13 30.1424 17.07 30.3157 16.95C30.4957 16.8233 30.5857 16.6633 30.5857 16.47C30.5857 16.2633 30.4857 16.11 30.2857 16.01C30.0924 15.91 29.7824 15.8 29.3557 15.68C28.9424 15.5667 28.6057 15.4567 28.3457 15.35C28.0857 15.2433 27.859 15.08 27.6657 14.86C27.479 14.64 27.3857 14.35 27.3857 13.99C27.3857 13.6967 27.4724 13.43 27.6457 13.19C27.819 12.9433 28.0657 12.75 28.3857 12.61C28.7124 12.47 29.0857 12.4 29.5057 12.4C30.1324 12.4 30.6357 12.56 31.0157 12.88C31.4024 13.1933 31.609 13.6233 31.6357 14.17H30.4957C30.4757 13.9233 30.3757 13.7267 30.1957 13.58C30.0157 13.4333 29.7724 13.36 29.4657 13.36C29.1657 13.36 28.9357 13.4167 28.7757 13.53C28.6157 13.6433 28.5357 13.7933 28.5357 13.98C28.5357 14.1267 28.589 14.25 28.6957 14.35C28.8024 14.45 28.9324 14.53 29.0857 14.59C29.239 14.6433 29.4657 14.7133 29.7657 14.8C30.1657 14.9067 30.4924 15.0167 30.7457 15.13C31.0057 15.2367 31.229 15.3967 31.4157 15.61C31.6024 15.8233 31.699 16.1067 31.7057 16.46C31.7057 16.7733 31.619 17.0533 31.4457 17.3C31.2724 17.5467 31.0257 17.74 30.7057 17.88C30.3924 18.02 30.0224 18.09 29.5957 18.09ZM36.6375 8.56L33.9175 19.75H32.7975L35.5075 8.56H36.6375ZM40.8542 12.4C41.2876 12.4 41.6742 12.49 42.0142 12.67C42.3609 12.85 42.6309 13.1167 42.8242 13.47C43.0176 13.8233 43.1142 14.25 43.1142 14.75V18H41.9842V14.92C41.9842 14.4267 41.8609 14.05 41.6142 13.79C41.3676 13.5233 41.0309 13.39 40.6042 13.39C40.1776 13.39 39.8376 13.5233 39.5842 13.79C39.3376 14.05 39.2142 14.4267 39.2142 14.92V18H38.0742V12.49H39.2142V13.12C39.4009 12.8933 39.6376 12.7167 39.9242 12.59C40.2176 12.4633 40.5276 12.4 40.8542 12.4ZM46.9584 18.09C46.4384 18.09 45.9684 17.9733 45.5484 17.74C45.1284 17.5 44.7984 17.1667 44.5584 16.74C44.3184 16.3067 44.1984 15.8067 44.1984 15.24C44.1984 14.68 44.3217 14.1833 44.5684 13.75C44.815 13.3167 45.1517 12.9833 45.5784 12.75C46.005 12.5167 46.4817 12.4 47.0084 12.4C47.535 12.4 48.0117 12.5167 48.4384 12.75C48.865 12.9833 49.2017 13.3167 49.4484 13.75C49.695 14.1833 49.8184 14.68 49.8184 15.24C49.8184 15.8 49.6917 16.2967 49.4384 16.73C49.185 17.1633 48.8384 17.5 48.3984 17.74C47.965 17.9733 47.485 18.09 46.9584 18.09ZM46.9584 17.1C47.2517 17.1 47.525 17.03 47.7784 16.89C48.0384 16.75 48.2484 16.54 48.4084 16.26C48.5684 15.98 48.6484 15.64 48.6484 15.24C48.6484 14.84 48.5717 14.5033 48.4184 14.23C48.265 13.95 48.0617 13.74 47.8084 13.6C47.555 13.46 47.2817 13.39 46.9884 13.39C46.695 13.39 46.4217 13.46 46.1684 13.6C45.9217 13.74 45.725 13.95 45.5784 14.23C45.4317 14.5033 45.3584 14.84 45.3584 15.24C45.3584 15.8333 45.5084 16.2933 45.8084 16.62C46.115 16.94 46.4984 17.1 46.9584 17.1ZM53.5553 19.86H51.4753V18.91H52.4853V9.6H51.4753V8.66H53.5553V19.86ZM61.1967 8.66V9.6H60.1867V18.91H61.1967V19.86H59.1167V8.66H61.1967ZM66.0902 12.4C66.5102 12.4 66.8836 12.49 67.2102 12.67C67.5436 12.85 67.8036 13.1167 67.9902 13.47C68.1836 13.8233 68.2802 14.25 68.2802 14.75V18H67.1502V14.92C67.1502 14.4267 67.0269 14.05 66.7802 13.79C66.5336 13.5233 66.1969 13.39 65.7702 13.39C65.3436 13.39 65.0036 13.5233 64.7502 13.79C64.5036 14.05 64.3802 14.4267 64.3802 14.92V18H63.2402V10.6H64.3802V13.13C64.5736 12.8967 64.8169 12.7167 65.1102 12.59C65.4102 12.4633 65.7369 12.4 66.0902 12.4ZM72.1244 18.09C71.6044 18.09 71.1344 17.9733 70.7144 17.74C70.2944 17.5 69.9644 17.1667 69.7244 16.74C69.4844 16.3067 69.3644 15.8067 69.3644 15.24C69.3644 14.68 69.4877 14.1833 69.7344 13.75C69.981 13.3167 70.3177 12.9833 70.7444 12.75C71.171 12.5167 71.6477 12.4 72.1744 12.4C72.701 12.4 73.1777 12.5167 73.6044 12.75C74.031 12.9833 74.3677 13.3167 74.6144 13.75C74.861 14.1833 74.9844 14.68 74.9844 15.24C74.9844 15.8 74.8577 16.2967 74.6044 16.73C74.351 17.1633 74.0044 17.5 73.5644 17.74C73.131 17.9733 72.651 18.09 72.1244 18.09ZM72.1244 17.1C72.4177 17.1 72.691 17.03 72.9444 16.89C73.2044 16.75 73.4144 16.54 73.5744 16.26C73.7344 15.98 73.8144 15.64 73.8144 15.24C73.8144 14.84 73.7377 14.5033 73.5844 14.23C73.431 13.95 73.2277 13.74 72.9744 13.6C72.721 13.46 72.4477 13.39 72.1544 13.39C71.861 13.39 71.5877 13.46 71.3344 13.6C71.0877 13.74 70.891 13.95 70.7444 14.23C70.5977 14.5033 70.5244 14.84 70.5244 15.24C70.5244 15.8333 70.6744 16.2933 70.9744 16.62C71.281 16.94 71.6644 17.1 72.1244 17.1ZM81.1013 12.49V18H79.9613V17.35C79.7813 17.5767 79.5447 17.7567 79.2513 17.89C78.9647 18.0167 78.658 18.08 78.3313 18.08C77.898 18.08 77.508 17.99 77.1613 17.81C76.8213 17.63 76.5513 17.3633 76.3513 17.01C76.158 16.6567 76.0613 16.23 76.0613 15.73V12.49H77.1913V15.56C77.1913 16.0533 77.3147 16.4333 77.5613 16.7C77.808 16.96 78.1447 17.09 78.5713 17.09C78.998 17.09 79.3347 16.96 79.5813 16.7C79.8347 16.4333 79.9613 16.0533 79.9613 15.56V12.49H81.1013ZM83.7455 13.29C83.9121 13.01 84.1321 12.7933 84.4055 12.64C84.6855 12.48 85.0155 12.4 85.3955 12.4V13.58H85.1055C84.6588 13.58 84.3188 13.6933 84.0855 13.92C83.8588 14.1467 83.7455 14.54 83.7455 15.1V18H82.6055V12.49H83.7455V13.29ZM89.0534 19.86H86.9734V18.91H87.9834V9.6H86.9734V8.66H89.0534V19.86ZM96.6948 8.66V9.6H95.6848V18.91H96.6948V19.86H94.6148V8.66H96.6948ZM105.408 12.4C105.842 12.4 106.228 12.49 106.568 12.67C106.915 12.85 107.185 13.1167 107.378 13.47C107.578 13.8233 107.678 14.25 107.678 14.75V18H106.548V14.92C106.548 14.4267 106.425 14.05 106.178 13.79C105.932 13.5233 105.595 13.39 105.168 13.39C104.742 13.39 104.402 13.5233 104.148 13.79C103.902 14.05 103.778 14.4267 103.778 14.92V18H102.648V14.92C102.648 14.4267 102.525 14.05 102.278 13.79C102.032 13.5233 101.695 13.39 101.268 13.39C100.842 13.39 100.502 13.5233 100.248 13.79C100.002 14.05 99.8783 14.4267 99.8783 14.92V18H98.7383V12.49H99.8783V13.12C100.065 12.8933 100.302 12.7167 100.588 12.59C100.875 12.4633 101.182 12.4 101.508 12.4C101.948 12.4 102.342 12.4933 102.688 12.68C103.035 12.8667 103.302 13.1367 103.488 13.49C103.655 13.1567 103.915 12.8933 104.268 12.7C104.622 12.5 105.002 12.4 105.408 12.4ZM109.709 11.76C109.502 11.76 109.329 11.69 109.189 11.55C109.049 11.41 108.979 11.2367 108.979 11.03C108.979 10.8233 109.049 10.65 109.189 10.51C109.329 10.37 109.502 10.3 109.709 10.3C109.909 10.3 110.079 10.37 110.219 10.51C110.359 10.65 110.429 10.8233 110.429 11.03C110.429 11.2367 110.359 11.41 110.219 11.55C110.079 11.69 109.909 11.76 109.709 11.76ZM110.269 12.49V18H109.129V12.49H110.269ZM114.546 12.4C114.979 12.4 115.366 12.49 115.706 12.67C116.052 12.85 116.322 13.1167 116.516 13.47C116.709 13.8233 116.806 14.25 116.806 14.75V18H115.676V14.92C115.676 14.4267 115.552 14.05 115.306 13.79C115.059 13.5233 114.722 13.39 114.296 13.39C113.869 13.39 113.529 13.5233 113.276 13.79C113.029 14.05 112.906 14.4267 112.906 14.92V18H111.766V12.49H112.906V13.12C113.092 12.8933 113.329 12.7167 113.616 12.59C113.909 12.4633 114.219 12.4 114.546 12.4ZM123.25 12.49V18H122.11V17.35C121.93 17.5767 121.693 17.7567 121.4 17.89C121.113 18.0167 120.806 18.08 120.48 18.08C120.046 18.08 119.656 17.99 119.31 17.81C118.97 17.63 118.7 17.3633 118.5 17.01C118.306 16.6567 118.21 16.23 118.21 15.73V12.49H119.34V15.56C119.34 16.0533 119.463 16.4333 119.71 16.7C119.956 16.96 120.293 17.09 120.72 17.09C121.146 17.09 121.483 16.96 121.73 16.7C121.983 16.4333 122.11 16.0533 122.11 15.56V12.49H123.25ZM126.084 13.42V16.47C126.084 16.6767 126.131 16.8267 126.224 16.92C126.324 17.0067 126.491 17.05 126.724 17.05H127.424V18H126.524C126.011 18 125.617 17.88 125.344 17.64C125.071 17.4 124.934 17.01 124.934 16.47V13.42H124.284V12.49H124.934V11.12H126.084V12.49H127.424V13.42H126.084ZM133.525 15.11C133.525 15.3167 133.511 15.5033 133.485 15.67H129.275C129.308 16.11 129.471 16.4633 129.765 16.73C130.058 16.9967 130.418 17.13 130.845 17.13C131.458 17.13 131.891 16.8733 132.145 16.36H133.375C133.208 16.8667 132.905 17.2833 132.465 17.61C132.031 17.93 131.491 18.09 130.845 18.09C130.318 18.09 129.845 17.9733 129.425 17.74C129.011 17.5 128.685 17.1667 128.445 16.74C128.211 16.3067 128.095 15.8067 128.095 15.24C128.095 14.6733 128.208 14.1767 128.435 13.75C128.668 13.3167 128.991 12.9833 129.405 12.75C129.825 12.5167 130.305 12.4 130.845 12.4C131.365 12.4 131.828 12.5133 132.235 12.74C132.641 12.9667 132.958 13.2867 133.185 13.7C133.411 14.1067 133.525 14.5767 133.525 15.11ZM132.335 14.75C132.328 14.33 132.178 13.9933 131.885 13.74C131.591 13.4867 131.228 13.36 130.795 13.36C130.401 13.36 130.065 13.4867 129.785 13.74C129.505 13.9867 129.338 14.3233 129.285 14.75H132.335ZM137.256 19.86H135.176V18.91H136.186V9.6H135.176V8.66H137.256V19.86Z" fill="white"/>
</svg>
