<svg xmlns="http://www.w3.org/2000/svg" fill="none" viewBox="0 0 480 360" height="360" width="480">
<path fill="#191919" d="M104.581 0H450C466.569 0 480 13.4315 480 30V330C480 346.569 466.569 360 450 360H104.581H30C13.4315 360 0 346.569 0 330V30C0 13.4315 13.4315 0 30 0H104.581Z"></path>
<path fill="white" d="M212.712 286.88V288.368H209.752V298H207.928V288.368H204.952V286.88H212.712ZM222.639 293.376C222.639 293.707 222.618 294.005 222.575 294.272H215.839C215.893 294.976 216.154 295.541 216.623 295.968C217.093 296.395 217.669 296.608 218.351 296.608C219.333 296.608 220.026 296.197 220.431 295.376H222.399C222.133 296.187 221.647 296.853 220.943 297.376C220.25 297.888 219.386 298.144 218.351 298.144C217.509 298.144 216.751 297.957 216.079 297.584C215.418 297.2 214.895 296.667 214.511 295.984C214.138 295.291 213.951 294.491 213.951 293.584C213.951 292.677 214.133 291.883 214.495 291.2C214.869 290.507 215.386 289.973 216.047 289.6C216.719 289.227 217.487 289.04 218.351 289.04C219.183 289.04 219.925 289.221 220.575 289.584C221.226 289.947 221.733 290.459 222.095 291.12C222.458 291.771 222.639 292.523 222.639 293.376ZM220.735 292.8C220.725 292.128 220.485 291.589 220.015 291.184C219.546 290.779 218.965 290.576 218.271 290.576C217.642 290.576 217.103 290.779 216.655 291.184C216.207 291.579 215.941 292.117 215.855 292.8H220.735ZM226.258 290.464C226.525 290.016 226.877 289.669 227.314 289.424C227.762 289.168 228.29 289.04 228.898 289.04V290.928H228.434C227.72 290.928 227.176 291.109 226.802 291.472C226.44 291.835 226.258 292.464 226.258 293.36V298H224.434V289.184H226.258V290.464ZM241.247 289.04C241.94 289.04 242.559 289.184 243.103 289.472C243.658 289.76 244.09 290.187 244.399 290.752C244.719 291.317 244.879 292 244.879 292.8V298H243.071V293.072C243.071 292.283 242.874 291.68 242.479 291.264C242.084 290.837 241.546 290.624 240.863 290.624C240.18 290.624 239.636 290.837 239.231 291.264C238.836 291.68 238.639 292.283 238.639 293.072V298H236.831V293.072C236.831 292.283 236.634 291.68 236.239 291.264C235.844 290.837 235.306 290.624 234.623 290.624C233.94 290.624 233.396 290.837 232.991 291.264C232.596 291.68 232.399 292.283 232.399 293.072V298H230.575V289.184H232.399V290.192C232.698 289.829 233.076 289.547 233.535 289.344C233.994 289.141 234.484 289.04 235.007 289.04C235.711 289.04 236.34 289.189 236.895 289.488C237.45 289.787 237.876 290.219 238.175 290.784C238.442 290.251 238.858 289.829 239.423 289.52C239.988 289.2 240.596 289.04 241.247 289.04ZM248.128 288.016C247.797 288.016 247.52 287.904 247.296 287.68C247.072 287.456 246.96 287.179 246.96 286.848C246.96 286.517 247.072 286.24 247.296 286.016C247.52 285.792 247.797 285.68 248.128 285.68C248.448 285.68 248.72 285.792 248.944 286.016C249.168 286.24 249.28 286.517 249.28 286.848C249.28 287.179 249.168 287.456 248.944 287.68C248.72 287.904 248.448 288.016 248.128 288.016ZM249.024 289.184V298H247.2V289.184H249.024ZM255.867 289.04C256.56 289.04 257.179 289.184 257.723 289.472C258.277 289.76 258.709 290.187 259.019 290.752C259.328 291.317 259.483 292 259.483 292.8V298H257.675V293.072C257.675 292.283 257.477 291.68 257.083 291.264C256.688 290.837 256.149 290.624 255.467 290.624C254.784 290.624 254.24 290.837 253.835 291.264C253.44 291.68 253.243 292.283 253.243 293.072V298H251.419V289.184H253.243V290.192C253.541 289.829 253.92 289.547 254.379 289.344C254.848 289.141 255.344 289.04 255.867 289.04ZM261.201 293.552C261.201 292.667 261.383 291.883 261.745 291.2C262.119 290.517 262.62 289.989 263.249 289.616C263.889 289.232 264.593 289.04 265.361 289.04C266.055 289.04 266.657 289.179 267.169 289.456C267.692 289.723 268.108 290.059 268.417 290.464V289.184H270.257V298H268.417V296.688C268.108 297.104 267.687 297.451 267.153 297.728C266.62 298.005 266.012 298.144 265.329 298.144C264.572 298.144 263.879 297.952 263.249 297.568C262.62 297.173 262.119 296.629 261.745 295.936C261.383 295.232 261.201 294.437 261.201 293.552ZM268.417 293.584C268.417 292.976 268.289 292.448 268.033 292C267.788 291.552 267.463 291.211 267.057 290.976C266.652 290.741 266.215 290.624 265.745 290.624C265.276 290.624 264.839 290.741 264.433 290.976C264.028 291.2 263.697 291.536 263.441 291.984C263.196 292.421 263.073 292.944 263.073 293.552C263.073 294.16 263.196 294.693 263.441 295.152C263.697 295.611 264.028 295.963 264.433 296.208C264.849 296.443 265.287 296.56 265.745 296.56C266.215 296.56 266.652 296.443 267.057 296.208C267.463 295.973 267.788 295.632 268.033 295.184C268.289 294.725 268.417 294.192 268.417 293.584ZM274.477 286.16V298H272.653V286.16H274.477Z"></path>
</svg>
