<svg xmlns="http://www.w3.org/2000/svg" fill="none" viewBox="0 0 60 30" height="30" width="60">
<rect fill-opacity="0.25" fill="black" rx="15" height="30" width="60"></rect>
<path fill="white" d="M21.3746 13.144C21.3746 13.568 21.2746 13.968 21.0746 14.344C20.8746 14.72 20.5546 15.028 20.1146 15.268C19.6746 15.5 19.1106 15.616 18.4226 15.616H16.9106V19H15.5426V10.66H18.4226C19.0626 10.66 19.6026 10.772 20.0426 10.996C20.4906 11.212 20.8226 11.508 21.0386 11.884C21.2626 12.26 21.3746 12.68 21.3746 13.144ZM18.4226 14.5C18.9426 14.5 19.3306 14.384 19.5866 14.152C19.8426 13.912 19.9706 13.576 19.9706 13.144C19.9706 12.232 19.4546 11.776 18.4226 11.776H16.9106V14.5H18.4226ZM25.5473 19.108C24.9233 19.108 24.3593 18.968 23.8553 18.688C23.3513 18.4 22.9553 18 22.6673 17.488C22.3793 16.968 22.2353 16.368 22.2353 15.688C22.2353 15.016 22.3833 14.42 22.6793 13.9C22.9753 13.38 23.3793 12.98 23.8913 12.7C24.4033 12.42 24.9753 12.28 25.6073 12.28C26.2393 12.28 26.8113 12.42 27.3233 12.7C27.8353 12.98 28.2393 13.38 28.5353 13.9C28.8313 14.42 28.9793 15.016 28.9793 15.688C28.9793 16.36 28.8273 16.956 28.5233 17.476C28.2193 17.996 27.8033 18.4 27.2753 18.688C26.7553 18.968 26.1793 19.108 25.5473 19.108ZM25.5473 17.92C25.8993 17.92 26.2273 17.836 26.5313 17.668C26.8433 17.5 27.0953 17.248 27.2873 16.912C27.4793 16.576 27.5753 16.168 27.5753 15.688C27.5753 15.208 27.4833 14.804 27.2993 14.476C27.1153 14.14 26.8713 13.888 26.5673 13.72C26.2633 13.552 25.9353 13.468 25.5833 13.468C25.2313 13.468 24.9033 13.552 24.5993 13.72C24.3033 13.888 24.0673 14.14 23.8913 14.476C23.7153 14.804 23.6273 15.208 23.6273 15.688C23.6273 16.4 23.8073 16.952 24.1673 17.344C24.5353 17.728 24.9953 17.92 25.5473 17.92ZM33.6676 12.28C34.1876 12.28 34.6516 12.388 35.0596 12.604C35.4756 12.82 35.7996 13.14 36.0316 13.564C36.2636 13.988 36.3796 14.5 36.3796 15.1V19H35.0236V15.304C35.0236 14.712 34.8756 14.26 34.5796 13.948C34.2836 13.628 33.8796 13.468 33.3676 13.468C32.8556 13.468 32.4476 13.628 32.1436 13.948C31.8476 14.26 31.6996 14.712 31.6996 15.304V19H30.3316V12.388H31.6996V13.144C31.9236 12.872 32.2076 12.66 32.5516 12.508C32.9036 12.356 33.2756 12.28 33.6676 12.28ZM40.7886 12.28C41.3006 12.28 41.7526 12.384 42.1446 12.592C42.5446 12.792 42.8566 13.044 43.0806 13.348V12.388H44.4606V19.108C44.4606 19.716 44.3326 20.256 44.0766 20.728C43.8206 21.208 43.4486 21.584 42.9606 21.856C42.4806 22.128 41.9046 22.264 41.2326 22.264C40.3366 22.264 39.5926 22.052 39.0006 21.628C38.4086 21.212 38.0726 20.644 37.9926 19.924H39.3486C39.4526 20.268 39.6726 20.544 40.0086 20.752C40.3526 20.968 40.7606 21.076 41.2326 21.076C41.7846 21.076 42.2286 20.908 42.5646 20.572C42.9086 20.236 43.0806 19.748 43.0806 19.108V18.004C42.8486 18.316 42.5326 18.58 42.1326 18.796C41.7406 19.004 41.2926 19.108 40.7886 19.108C40.2126 19.108 39.6846 18.964 39.2046 18.676C38.7326 18.38 38.3566 17.972 38.0766 17.452C37.8046 16.924 37.6686 16.328 37.6686 15.664C37.6686 15 37.8046 14.412 38.0766 13.9C38.3566 13.388 38.7326 12.992 39.2046 12.712C39.6846 12.424 40.2126 12.28 40.7886 12.28ZM43.0806 15.688C43.0806 15.232 42.9846 14.836 42.7926 14.5C42.6086 14.164 42.3646 13.908 42.0606 13.732C41.7566 13.556 41.4286 13.468 41.0766 13.468C40.7246 13.468 40.3966 13.556 40.0926 13.732C39.7886 13.9 39.5406 14.152 39.3486 14.488C39.1646 14.816 39.0726 15.208 39.0726 15.664C39.0726 16.12 39.1646 16.52 39.3486 16.864C39.5406 17.208 39.7886 17.472 40.0926 17.656C40.4046 17.832 40.7326 17.92 41.0766 17.92C41.4286 17.92 41.7566 17.832 42.0606 17.656C42.3646 17.48 42.6086 17.224 42.7926 16.888C42.9846 16.544 43.0806 16.144 43.0806 15.688Z"></path>
</svg>
