<svg width="480" height="360" viewBox="0 0 480 360" fill="none" xmlns="http://www.w3.org/2000/svg">
<path d="M0 340H15V340C12.2386 340 10 342.239 10 345V345C10 347.761 12.2386 350 15 350V350H0V340Z" fill="white"/>
<path d="M15.24 327.05V327.98H13.39V334H12.25V327.98H10.39V327.05H15.24ZM16.9745 327.76C16.7679 327.76 16.5945 327.69 16.4545 327.55C16.3145 327.41 16.2445 327.237 16.2445 327.03C16.2445 326.823 16.3145 326.65 16.4545 326.51C16.5945 326.37 16.7679 326.3 16.9745 326.3C17.1745 326.3 17.3445 326.37 17.4845 326.51C17.6245 326.65 17.6945 326.823 17.6945 327.03C17.6945 327.237 17.6245 327.41 17.4845 327.55C17.3445 327.69 17.1745 327.76 16.9745 327.76ZM17.5345 328.49V334H16.3945V328.49H17.5345ZM25.7013 328.4C26.1346 328.4 26.5213 328.49 26.8613 328.67C27.2079 328.85 27.4779 329.117 27.6713 329.47C27.8713 329.823 27.9713 330.25 27.9713 330.75V334H26.8413V330.92C26.8413 330.427 26.7179 330.05 26.4713 329.79C26.2246 329.523 25.8879 329.39 25.4613 329.39C25.0346 329.39 24.6946 329.523 24.4413 329.79C24.1946 330.05 24.0713 330.427 24.0713 330.92V334H22.9413V330.92C22.9413 330.427 22.8179 330.05 22.5713 329.79C22.3246 329.523 21.9879 329.39 21.5613 329.39C21.1346 329.39 20.7946 329.523 20.5413 329.79C20.2946 330.05 20.1713 330.427 20.1713 330.92V334H19.0313V328.49H20.1713V329.12C20.3579 328.893 20.5946 328.717 20.8813 328.59C21.1679 328.463 21.4746 328.4 21.8013 328.4C22.2413 328.4 22.6346 328.493 22.9813 328.68C23.3279 328.867 23.5946 329.137 23.7813 329.49C23.9479 329.157 24.2079 328.893 24.5613 328.7C24.9146 328.5 25.2946 328.4 25.7013 328.4ZM34.4719 331.11C34.4719 331.317 34.4585 331.503 34.4319 331.67H30.2219C30.2552 332.11 30.4185 332.463 30.7119 332.73C31.0052 332.997 31.3652 333.13 31.7919 333.13C32.4052 333.13 32.8385 332.873 33.0919 332.36H34.3219C34.1552 332.867 33.8519 333.283 33.4119 333.61C32.9785 333.93 32.4385 334.09 31.7919 334.09C31.2652 334.09 30.7919 333.973 30.3719 333.74C29.9585 333.5 29.6319 333.167 29.3919 332.74C29.1585 332.307 29.0419 331.807 29.0419 331.24C29.0419 330.673 29.1552 330.177 29.3819 329.75C29.6152 329.317 29.9385 328.983 30.3519 328.75C30.7719 328.517 31.2519 328.4 31.7919 328.4C32.3119 328.4 32.7752 328.513 33.1819 328.74C33.5885 328.967 33.9052 329.287 34.1319 329.7C34.3585 330.107 34.4719 330.577 34.4719 331.11ZM33.2819 330.75C33.2752 330.33 33.1252 329.993 32.8319 329.74C32.5385 329.487 32.1752 329.36 31.7419 329.36C31.3485 329.36 31.0119 329.487 30.7319 329.74C30.4519 329.987 30.2852 330.323 30.2319 330.75H33.2819ZM39.3314 326.6V334H38.1914V326.6H39.3314ZM45.8781 331.11C45.8781 331.317 45.8648 331.503 45.8381 331.67H41.6281C41.6615 332.11 41.8248 332.463 42.1181 332.73C42.4115 332.997 42.7715 333.13 43.1981 333.13C43.8115 333.13 44.2448 332.873 44.4981 332.36H45.7281C45.5615 332.867 45.2581 333.283 44.8181 333.61C44.3848 333.93 43.8448 334.09 43.1981 334.09C42.6715 334.09 42.1981 333.973 41.7781 333.74C41.3648 333.5 41.0381 333.167 40.7981 332.74C40.5648 332.307 40.4481 331.807 40.4481 331.24C40.4481 330.673 40.5615 330.177 40.7881 329.75C41.0215 329.317 41.3448 328.983 41.7581 328.75C42.1781 328.517 42.6581 328.4 43.1981 328.4C43.7181 328.4 44.1815 328.513 44.5881 328.74C44.9948 328.967 45.3115 329.287 45.5381 329.7C45.7648 330.107 45.8781 330.577 45.8781 331.11ZM44.6881 330.75C44.6815 330.33 44.5315 329.993 44.2381 329.74C43.9448 329.487 43.5815 329.36 43.1481 329.36C42.7548 329.36 42.4181 329.487 42.1381 329.74C41.8581 329.987 41.6915 330.323 41.6381 330.75H44.6881ZM49.31 329.42H48.29V334H47.14V329.42H46.49V328.49H47.14V328.1C47.14 327.467 47.3067 327.007 47.64 326.72C47.98 326.427 48.51 326.28 49.23 326.28V327.23C48.8833 327.23 48.64 327.297 48.5 327.43C48.36 327.557 48.29 327.78 48.29 328.1V328.49H49.31V329.42ZM51.6503 329.42V332.47C51.6503 332.677 51.697 332.827 51.7903 332.92C51.8903 333.007 52.057 333.05 52.2903 333.05H52.9903V334H52.0903C51.577 334 51.1836 333.88 50.9103 333.64C50.637 333.4 50.5003 333.01 50.5003 332.47V329.42H49.8503V328.49H50.5003V327.12H51.6503V328.49H52.9903V329.42H51.6503Z" fill="black"/>
<path d="M195.703 23.192C195.703 23.7573 195.569 24.2907 195.303 24.792C195.036 25.2933 194.609 25.704 194.023 26.024C193.436 26.3333 192.684 26.488 191.767 26.488H189.751V31H187.927V19.88H191.767C192.62 19.88 193.34 20.0293 193.927 20.328C194.524 20.616 194.967 21.0107 195.255 21.512C195.553 22.0133 195.703 22.5733 195.703 23.192ZM191.767 25C192.46 25 192.977 24.8453 193.319 24.536C193.66 24.216 193.831 23.768 193.831 23.192C193.831 21.976 193.143 21.368 191.767 21.368H189.751V25H191.767ZM199.266 23.464C199.533 23.016 199.885 22.6693 200.322 22.424C200.77 22.168 201.298 22.04 201.906 22.04V23.928H201.442C200.728 23.928 200.184 24.1093 199.81 24.472C199.448 24.8347 199.266 25.464 199.266 26.36V31H197.442V22.184H199.266V23.464ZM211.663 26.376C211.663 26.7067 211.641 27.0053 211.599 27.272H204.863C204.916 27.976 205.177 28.5413 205.647 28.968C206.116 29.3947 206.692 29.608 207.375 29.608C208.356 29.608 209.049 29.1973 209.455 28.376H211.423C211.156 29.1867 210.671 29.8533 209.967 30.376C209.273 30.888 208.409 31.144 207.375 31.144C206.532 31.144 205.775 30.9573 205.103 30.584C204.441 30.2 203.919 29.6667 203.535 28.984C203.161 28.2907 202.975 27.4907 202.975 26.584C202.975 25.6773 203.156 24.8827 203.519 24.2C203.892 23.5067 204.409 22.9733 205.071 22.6C205.743 22.2267 206.511 22.04 207.375 22.04C208.207 22.04 208.948 22.2213 209.599 22.584C210.249 22.9467 210.756 23.4587 211.119 24.12C211.481 24.7707 211.663 25.5227 211.663 26.376ZM209.759 25.8C209.748 25.128 209.508 24.5893 209.039 24.184C208.569 23.7787 207.988 23.576 207.295 23.576C206.665 23.576 206.127 23.7787 205.679 24.184C205.231 24.5787 204.964 25.1173 204.879 25.8H209.759ZM215.282 23.48C215.591 23.0747 216.012 22.7333 216.546 22.456C217.079 22.1787 217.682 22.04 218.354 22.04C219.122 22.04 219.82 22.232 220.45 22.616C221.09 22.9893 221.591 23.5173 221.954 24.2C222.316 24.8827 222.498 25.6667 222.498 26.552C222.498 27.4373 222.316 28.232 221.954 28.936C221.591 29.6293 221.09 30.1733 220.45 30.568C219.82 30.952 219.122 31.144 218.354 31.144C217.682 31.144 217.084 31.0107 216.562 30.744C216.039 30.4667 215.612 30.1253 215.282 29.72V35.192H213.458V22.184H215.282V23.48ZM220.642 26.552C220.642 25.944 220.514 25.4213 220.258 24.984C220.012 24.536 219.682 24.2 219.266 23.976C218.86 23.7413 218.423 23.624 217.954 23.624C217.495 23.624 217.058 23.7413 216.642 23.976C216.236 24.2107 215.906 24.552 215.65 25C215.404 25.448 215.282 25.976 215.282 26.584C215.282 27.192 215.404 27.7253 215.65 28.184C215.906 28.632 216.236 28.9733 216.642 29.208C217.058 29.4427 217.495 29.56 217.954 29.56C218.423 29.56 218.86 29.4427 219.266 29.208C219.682 28.9627 220.012 28.6107 220.258 28.152C220.514 27.6933 220.642 27.16 220.642 26.552ZM223.694 26.552C223.694 25.6667 223.875 24.8827 224.238 24.2C224.611 23.5173 225.112 22.9893 225.742 22.616C226.382 22.232 227.086 22.04 227.854 22.04C228.547 22.04 229.15 22.1787 229.662 22.456C230.184 22.7227 230.6 23.0587 230.91 23.464V22.184H232.75V31H230.91V29.688C230.6 30.104 230.179 30.4507 229.646 30.728C229.112 31.0053 228.504 31.144 227.822 31.144C227.064 31.144 226.371 30.952 225.742 30.568C225.112 30.1733 224.611 29.6293 224.238 28.936C223.875 28.232 223.694 27.4373 223.694 26.552ZM230.91 26.584C230.91 25.976 230.782 25.448 230.526 25C230.28 24.552 229.955 24.2107 229.55 23.976C229.144 23.7413 228.707 23.624 228.238 23.624C227.768 23.624 227.331 23.7413 226.926 23.976C226.52 24.2 226.19 24.536 225.934 24.984C225.688 25.4213 225.566 25.944 225.566 26.552C225.566 27.16 225.688 27.6933 225.934 28.152C226.19 28.6107 226.52 28.9627 226.926 29.208C227.342 29.4427 227.779 29.56 228.238 29.56C228.707 29.56 229.144 29.4427 229.55 29.208C229.955 28.9733 230.28 28.632 230.526 28.184C230.782 27.7253 230.91 27.192 230.91 26.584ZM236.969 23.464C237.236 23.016 237.588 22.6693 238.025 22.424C238.473 22.168 239.001 22.04 239.609 22.04V23.928H239.145C238.431 23.928 237.887 24.1093 237.513 24.472C237.151 24.8347 236.969 25.464 236.969 26.36V31H235.145V22.184H236.969V23.464ZM240.678 26.552C240.678 25.6667 240.859 24.8827 241.222 24.2C241.595 23.5173 242.097 22.9893 242.726 22.616C243.366 22.232 244.07 22.04 244.838 22.04C245.531 22.04 246.134 22.1787 246.646 22.456C247.169 22.7227 247.585 23.0587 247.894 23.464V22.184H249.734V31H247.894V29.688C247.585 30.104 247.163 30.4507 246.63 30.728C246.097 31.0053 245.489 31.144 244.806 31.144C244.049 31.144 243.355 30.952 242.726 30.568C242.097 30.1733 241.595 29.6293 241.222 28.936C240.859 28.232 240.678 27.4373 240.678 26.552ZM247.894 26.584C247.894 25.976 247.766 25.448 247.51 25C247.265 24.552 246.939 24.2107 246.534 23.976C246.129 23.7413 245.691 23.624 245.222 23.624C244.753 23.624 244.315 23.7413 243.91 23.976C243.505 24.2 243.174 24.536 242.918 24.984C242.673 25.4213 242.55 25.944 242.55 26.552C242.55 27.16 242.673 27.6933 242.918 28.152C243.174 28.6107 243.505 28.9627 243.91 29.208C244.326 29.4427 244.763 29.56 245.222 29.56C245.691 29.56 246.129 29.4427 246.534 29.208C246.939 28.9733 247.265 28.632 247.51 28.184C247.766 27.7253 247.894 27.192 247.894 26.584ZM254.258 23.672V28.552C254.258 28.8827 254.332 29.1227 254.482 29.272C254.642 29.4107 254.908 29.48 255.282 29.48H256.402V31H254.962C254.14 31 253.511 30.808 253.074 30.424C252.636 30.04 252.418 29.416 252.418 28.552V23.672H251.378V22.184H252.418V19.992H254.258V22.184H256.402V23.672H254.258ZM259.011 21.016C258.68 21.016 258.403 20.904 258.179 20.68C257.955 20.456 257.843 20.1787 257.843 19.848C257.843 19.5173 257.955 19.24 258.179 19.016C258.403 18.792 258.68 18.68 259.011 18.68C259.331 18.68 259.603 18.792 259.827 19.016C260.051 19.24 260.163 19.5173 260.163 19.848C260.163 20.1787 260.051 20.456 259.827 20.68C259.603 20.904 259.331 21.016 259.011 21.016ZM259.907 22.184V31H258.083V22.184H259.907ZM266.126 31.144C265.294 31.144 264.542 30.9573 263.87 30.584C263.198 30.2 262.67 29.6667 262.286 28.984C261.902 28.2907 261.71 27.4907 261.71 26.584C261.71 25.688 261.907 24.8933 262.302 24.2C262.696 23.5067 263.235 22.9733 263.918 22.6C264.6 22.2267 265.363 22.04 266.206 22.04C267.048 22.04 267.811 22.2267 268.494 22.6C269.176 22.9733 269.715 23.5067 270.11 24.2C270.504 24.8933 270.702 25.688 270.702 26.584C270.702 27.48 270.499 28.2747 270.094 28.968C269.688 29.6613 269.134 30.2 268.43 30.584C267.736 30.9573 266.968 31.144 266.126 31.144ZM266.126 29.56C266.595 29.56 267.032 29.448 267.438 29.224C267.854 29 268.19 28.664 268.446 28.216C268.702 27.768 268.83 27.224 268.83 26.584C268.83 25.944 268.707 25.4053 268.462 24.968C268.216 24.52 267.891 24.184 267.486 23.96C267.08 23.736 266.643 23.624 266.174 23.624C265.704 23.624 265.267 23.736 264.862 23.96C264.467 24.184 264.152 24.52 263.918 24.968C263.683 25.4053 263.566 25.944 263.566 26.584C263.566 27.5333 263.806 28.2693 264.286 28.792C264.776 29.304 265.39 29.56 266.126 29.56ZM276.953 22.04C277.646 22.04 278.265 22.184 278.809 22.472C279.363 22.76 279.795 23.1867 280.105 23.752C280.414 24.3173 280.569 25 280.569 25.8V31H278.761V26.072C278.761 25.2827 278.563 24.68 278.169 24.264C277.774 23.8373 277.235 23.624 276.553 23.624C275.87 23.624 275.326 23.8373 274.921 24.264C274.526 24.68 274.329 25.2827 274.329 26.072V31H272.505V22.184H274.329V23.192C274.627 22.8293 275.006 22.5467 275.465 22.344C275.934 22.1413 276.43 22.04 276.953 22.04ZM283.631 31.112C283.301 31.112 283.023 31 282.799 30.776C282.575 30.552 282.463 30.2747 282.463 29.944C282.463 29.6133 282.575 29.336 282.799 29.112C283.023 28.888 283.301 28.776 283.631 28.776C283.951 28.776 284.223 28.888 284.447 29.112C284.671 29.336 284.783 29.6133 284.783 29.944C284.783 30.2747 284.671 30.552 284.447 30.776C284.223 31 283.951 31.112 283.631 31.112ZM287.491 31.112C287.16 31.112 286.883 31 286.659 30.776C286.435 30.552 286.323 30.2747 286.323 29.944C286.323 29.6133 286.435 29.336 286.659 29.112C286.883 28.888 287.16 28.776 287.491 28.776C287.811 28.776 288.083 28.888 288.307 29.112C288.531 29.336 288.643 29.6133 288.643 29.944C288.643 30.2747 288.531 30.552 288.307 30.776C288.083 31 287.811 31.112 287.491 31.112ZM291.35 31.112C291.019 31.112 290.742 31 290.518 30.776C290.294 30.552 290.182 30.2747 290.182 29.944C290.182 29.6133 290.294 29.336 290.518 29.112C290.742 28.888 291.019 28.776 291.35 28.776C291.67 28.776 291.942 28.888 292.166 29.112C292.39 29.336 292.502 29.6133 292.502 29.944C292.502 30.2747 292.39 30.552 292.166 30.776C291.942 31 291.67 31.112 291.35 31.112Z" fill="black"/>
<rect opacity="0.1" x="70" y="50" width="340" height="260" rx="10" fill="black"/>
</svg>
