<svg xmlns="http://www.w3.org/2000/svg" fill="none" viewBox="0 0 20 20" height="20" width="20">
<rect fill="#FF0080" rx="10" height="20" width="20"></rect>
<path stroke-linecap="round" stroke-width="2" stroke="white" d="M6 10C6 9.73736 6.05173 9.47728 6.15224 9.23463C6.25275 8.99198 6.40007 8.7715 6.58579 8.58579C6.7715 8.40007 6.99198 8.25275 7.23463 8.15224C7.47728 8.05173 7.73736 8 8 8C8.26264 8 8.52272 8.05173 8.76537 8.15224C9.00802 8.25275 9.2285 8.40007 9.41421 8.58579C9.59993 8.7715 9.74725 8.99198 9.84776 9.23463C9.94827 9.47728 10 9.73736 10 10"></path>
<path stroke-linecap="round" stroke-width="2" stroke="white" d="M14 10C14 10.2626 13.9483 10.5227 13.8478 10.7654C13.7472 11.008 13.5999 11.2285 13.4142 11.4142C13.2285 11.5999 13.008 11.7472 12.7654 11.8478C12.5227 11.9483 12.2626 12 12 12C11.7374 12 11.4773 11.9483 11.2346 11.8478C10.992 11.7472 10.7715 11.5999 10.5858 11.4142C10.4001 11.2285 10.2528 11.008 10.1522 10.7654C10.0517 10.5227 10 10.2626 10 10"></path>
</svg>
