<svg width="480" height="360" viewBox="0 0 480 360" fill="none" xmlns="http://www.w3.org/2000/svg">
<path d="M217.904 28.728H213.248L212.448 31H210.544L214.528 19.864H216.64L220.624 31H218.704L217.904 28.728ZM217.392 27.24L215.584 22.072L213.76 27.24H217.392ZM224.18 23.48C224.49 23.0747 224.911 22.7333 225.444 22.456C225.978 22.1787 226.58 22.04 227.252 22.04C228.02 22.04 228.719 22.232 229.348 22.616C229.988 22.9893 230.49 23.5173 230.852 24.2C231.215 24.8827 231.396 25.6667 231.396 26.552C231.396 27.4373 231.215 28.232 230.852 28.936C230.49 29.6293 229.988 30.1733 229.348 30.568C228.719 30.952 228.02 31.144 227.252 31.144C226.58 31.144 225.983 31.0107 225.46 30.744C224.938 30.4667 224.511 30.1253 224.18 29.72V35.192H222.356V22.184H224.18V23.48ZM229.54 26.552C229.54 25.944 229.412 25.4213 229.156 24.984C228.911 24.536 228.58 24.2 228.164 23.976C227.759 23.7413 227.322 23.624 226.852 23.624C226.394 23.624 225.956 23.7413 225.54 23.976C225.135 24.2107 224.804 24.552 224.548 25C224.303 25.448 224.18 25.976 224.18 26.584C224.18 27.192 224.303 27.7253 224.548 28.184C224.804 28.632 225.135 28.9733 225.54 29.208C225.956 29.4427 226.394 29.56 226.852 29.56C227.322 29.56 227.759 29.4427 228.164 29.208C228.58 28.9627 228.911 28.6107 229.156 28.152C229.412 27.6933 229.54 27.16 229.54 26.552ZM235.024 23.48C235.333 23.0747 235.755 22.7333 236.288 22.456C236.821 22.1787 237.424 22.04 238.096 22.04C238.864 22.04 239.563 22.232 240.192 22.616C240.832 22.9893 241.333 23.5173 241.696 24.2C242.059 24.8827 242.24 25.6667 242.24 26.552C242.24 27.4373 242.059 28.232 241.696 28.936C241.333 29.6293 240.832 30.1733 240.192 30.568C239.563 30.952 238.864 31.144 238.096 31.144C237.424 31.144 236.827 31.0107 236.304 30.744C235.781 30.4667 235.355 30.1253 235.024 29.72V35.192H233.2V22.184H235.024V23.48ZM240.384 26.552C240.384 25.944 240.256 25.4213 240 24.984C239.755 24.536 239.424 24.2 239.008 23.976C238.603 23.7413 238.165 23.624 237.696 23.624C237.237 23.624 236.8 23.7413 236.384 23.976C235.979 24.2107 235.648 24.552 235.392 25C235.147 25.448 235.024 25.976 235.024 26.584C235.024 27.192 235.147 27.7253 235.392 28.184C235.648 28.632 235.979 28.9733 236.384 29.208C236.8 29.4427 237.237 29.56 237.696 29.56C238.165 29.56 238.603 29.4427 239.008 29.208C239.424 28.9627 239.755 28.6107 240 28.152C240.256 27.6933 240.384 27.16 240.384 26.552ZM247.244 31.144C246.55 31.144 245.926 31.0213 245.372 30.776C244.828 30.52 244.396 30.1787 244.076 29.752C243.756 29.3147 243.585 28.8293 243.564 28.296H245.452C245.484 28.6693 245.66 28.984 245.98 29.24C246.31 29.4853 246.721 29.608 247.212 29.608C247.724 29.608 248.118 29.512 248.396 29.32C248.684 29.1173 248.828 28.8613 248.828 28.552C248.828 28.2213 248.668 27.976 248.348 27.816C248.038 27.656 247.542 27.48 246.86 27.288C246.198 27.1067 245.66 26.9307 245.244 26.76C244.828 26.5893 244.465 26.328 244.156 25.976C243.857 25.624 243.708 25.16 243.708 24.584C243.708 24.1147 243.846 23.688 244.124 23.304C244.401 22.9093 244.796 22.6 245.308 22.376C245.83 22.152 246.428 22.04 247.1 22.04C248.102 22.04 248.908 22.296 249.516 22.808C250.134 23.3093 250.465 23.9973 250.508 24.872H248.684C248.652 24.4773 248.492 24.1627 248.204 23.928C247.916 23.6933 247.526 23.576 247.036 23.576C246.556 23.576 246.188 23.6667 245.932 23.848C245.676 24.0293 245.548 24.2693 245.548 24.568C245.548 24.8027 245.633 25 245.804 25.16C245.974 25.32 246.182 25.448 246.428 25.544C246.673 25.6293 247.036 25.7413 247.516 25.88C248.156 26.0507 248.678 26.2267 249.084 26.408C249.5 26.5787 249.857 26.8347 250.156 27.176C250.454 27.5173 250.609 27.9707 250.62 28.536C250.62 29.0373 250.481 29.4853 250.204 29.88C249.926 30.2747 249.532 30.584 249.02 30.808C248.518 31.032 247.926 31.144 247.244 31.144ZM265.339 31L263.963 29.624C263.43 30.1573 262.848 30.5573 262.219 30.824C261.59 31.08 260.886 31.208 260.107 31.208C259.318 31.208 258.619 31.0693 258.011 30.792C257.403 30.5147 256.934 30.12 256.603 29.608C256.272 29.0853 256.107 28.4827 256.107 27.8C256.107 27.032 256.326 26.3493 256.763 25.752C257.2 25.144 257.851 24.664 258.715 24.312C258.406 23.9387 258.187 23.592 258.059 23.272C257.931 22.9413 257.867 22.5787 257.867 22.184C257.867 21.6933 257.99 21.256 258.235 20.872C258.491 20.488 258.854 20.184 259.323 19.96C259.792 19.736 260.336 19.624 260.955 19.624C261.584 19.624 262.118 19.7467 262.555 19.992C263.003 20.2267 263.334 20.552 263.547 20.968C263.771 21.384 263.862 21.848 263.819 22.36H261.995C262.006 21.9653 261.91 21.6613 261.707 21.448C261.504 21.224 261.227 21.112 260.875 21.112C260.523 21.112 260.235 21.2187 260.011 21.432C259.798 21.6347 259.691 21.8853 259.691 22.184C259.691 22.472 259.771 22.76 259.931 23.048C260.102 23.3253 260.395 23.688 260.811 24.136L263.755 27.064L264.891 25.192H266.859L265.419 27.656L265.019 28.312L267.723 31H265.339ZM260.107 29.656C261.11 29.656 261.995 29.2453 262.763 28.424L259.819 25.464C258.56 25.9653 257.931 26.7227 257.931 27.736C257.931 28.28 258.134 28.7387 258.539 29.112C258.944 29.4747 259.467 29.656 260.107 29.656ZM276.627 22.04C277.31 22.04 277.912 22.1787 278.435 22.456C278.968 22.7227 279.384 23.0587 279.683 23.464V22.184H281.523V31.144C281.523 31.9547 281.352 32.6747 281.011 33.304C280.67 33.944 280.174 34.4453 279.523 34.808C278.883 35.1707 278.115 35.352 277.219 35.352C276.024 35.352 275.032 35.0693 274.243 34.504C273.454 33.9493 273.006 33.192 272.899 32.232H274.707C274.846 32.6907 275.139 33.0587 275.587 33.336C276.046 33.624 276.59 33.768 277.219 33.768C277.955 33.768 278.547 33.544 278.995 33.096C279.454 32.648 279.683 31.9973 279.683 31.144V29.672C279.374 30.088 278.952 30.44 278.419 30.728C277.896 31.0053 277.299 31.144 276.627 31.144C275.859 31.144 275.155 30.952 274.515 30.568C273.886 30.1733 273.384 29.6293 273.011 28.936C272.648 28.232 272.467 27.4373 272.467 26.552C272.467 25.6667 272.648 24.8827 273.011 24.2C273.384 23.5173 273.886 22.9893 274.515 22.616C275.155 22.232 275.859 22.04 276.627 22.04ZM279.683 26.584C279.683 25.976 279.555 25.448 279.299 25C279.054 24.552 278.728 24.2107 278.323 23.976C277.918 23.7413 277.48 23.624 277.011 23.624C276.542 23.624 276.104 23.7413 275.699 23.976C275.294 24.2 274.963 24.536 274.707 24.984C274.462 25.4213 274.339 25.944 274.339 26.552C274.339 27.16 274.462 27.6933 274.707 28.152C274.963 28.6107 275.294 28.9627 275.699 29.208C276.115 29.4427 276.552 29.56 277.011 29.56C277.48 29.56 277.918 29.4427 278.323 29.208C278.728 28.9733 279.054 28.632 279.299 28.184C279.555 27.7253 279.683 27.192 279.683 26.584ZM283.311 26.552C283.311 25.6667 283.492 24.8827 283.855 24.2C284.228 23.5173 284.729 22.9893 285.359 22.616C285.999 22.232 286.703 22.04 287.471 22.04C288.164 22.04 288.767 22.1787 289.279 22.456C289.801 22.7227 290.217 23.0587 290.527 23.464V22.184H292.367V31H290.527V29.688C290.217 30.104 289.796 30.4507 289.263 30.728C288.729 31.0053 288.121 31.144 287.439 31.144C286.681 31.144 285.988 30.952 285.359 30.568C284.729 30.1733 284.228 29.6293 283.855 28.936C283.492 28.232 283.311 27.4373 283.311 26.552ZM290.527 26.584C290.527 25.976 290.399 25.448 290.143 25C289.897 24.552 289.572 24.2107 289.167 23.976C288.761 23.7413 288.324 23.624 287.855 23.624C287.385 23.624 286.948 23.7413 286.543 23.976C286.137 24.2 285.807 24.536 285.551 24.984C285.305 25.4213 285.183 25.944 285.183 26.552C285.183 27.16 285.305 27.6933 285.551 28.152C285.807 28.6107 286.137 28.9627 286.543 29.208C286.959 29.4427 287.396 29.56 287.855 29.56C288.324 29.56 288.761 29.4427 289.167 29.208C289.572 28.9733 289.897 28.632 290.143 28.184C290.399 27.7253 290.527 27.192 290.527 26.584ZM305.435 22.04C306.128 22.04 306.747 22.184 307.291 22.472C307.845 22.76 308.277 23.1867 308.587 23.752C308.907 24.3173 309.067 25 309.067 25.8V31H307.259V26.072C307.259 25.2827 307.061 24.68 306.667 24.264C306.272 23.8373 305.733 23.624 305.051 23.624C304.368 23.624 303.824 23.8373 303.419 24.264C303.024 24.68 302.827 25.2827 302.827 26.072V31H301.019V26.072C301.019 25.2827 300.821 24.68 300.427 24.264C300.032 23.8373 299.493 23.624 298.811 23.624C298.128 23.624 297.584 23.8373 297.179 24.264C296.784 24.68 296.587 25.2827 296.587 26.072V31H294.763V22.184H296.587V23.192C296.885 22.8293 297.264 22.5467 297.723 22.344C298.181 22.1413 298.672 22.04 299.195 22.04C299.899 22.04 300.528 22.1893 301.083 22.488C301.637 22.7867 302.064 23.2187 302.363 23.784C302.629 23.2507 303.045 22.8293 303.611 22.52C304.176 22.2 304.784 22.04 305.435 22.04ZM319.468 26.376C319.468 26.7067 319.446 27.0053 319.404 27.272H312.668C312.721 27.976 312.982 28.5413 313.452 28.968C313.921 29.3947 314.497 29.608 315.18 29.608C316.161 29.608 316.854 29.1973 317.26 28.376H319.227C318.961 29.1867 318.476 29.8533 317.772 30.376C317.078 30.888 316.214 31.144 315.18 31.144C314.337 31.144 313.58 30.9573 312.908 30.584C312.246 30.2 311.724 29.6667 311.34 28.984C310.966 28.2907 310.78 27.4907 310.78 26.584C310.78 25.6773 310.961 24.8827 311.324 24.2C311.697 23.5067 312.214 22.9733 312.876 22.6C313.548 22.2267 314.316 22.04 315.18 22.04C316.012 22.04 316.753 22.2213 317.404 22.584C318.054 22.9467 318.561 23.4587 318.924 24.12C319.286 24.7707 319.468 25.5227 319.468 26.376ZM317.564 25.8C317.553 25.128 317.313 24.5893 316.844 24.184C316.374 23.7787 315.793 23.576 315.1 23.576C314.47 23.576 313.932 23.7787 313.484 24.184C313.036 24.5787 312.769 25.1173 312.684 25.8H317.564ZM324.463 31.144C323.769 31.144 323.145 31.0213 322.591 30.776C322.047 30.52 321.615 30.1787 321.295 29.752C320.975 29.3147 320.804 28.8293 320.783 28.296H322.671C322.703 28.6693 322.879 28.984 323.199 29.24C323.529 29.4853 323.94 29.608 324.431 29.608C324.943 29.608 325.337 29.512 325.615 29.32C325.903 29.1173 326.047 28.8613 326.047 28.552C326.047 28.2213 325.887 27.976 325.567 27.816C325.257 27.656 324.761 27.48 324.079 27.288C323.417 27.1067 322.879 26.9307 322.463 26.76C322.047 26.5893 321.684 26.328 321.375 25.976C321.076 25.624 320.927 25.16 320.927 24.584C320.927 24.1147 321.065 23.688 321.343 23.304C321.62 22.9093 322.015 22.6 322.527 22.376C323.049 22.152 323.647 22.04 324.319 22.04C325.321 22.04 326.127 22.296 326.735 22.808C327.353 23.3093 327.684 23.9973 327.727 24.872H325.903C325.871 24.4773 325.711 24.1627 325.423 23.928C325.135 23.6933 324.745 23.576 324.255 23.576C323.775 23.576 323.407 23.6667 323.151 23.848C322.895 24.0293 322.767 24.2693 322.767 24.568C322.767 24.8027 322.852 25 323.023 25.16C323.193 25.32 323.401 25.448 323.647 25.544C323.892 25.6293 324.255 25.7413 324.735 25.88C325.375 26.0507 325.897 26.2267 326.303 26.408C326.719 26.5787 327.076 26.8347 327.375 27.176C327.673 27.5173 327.828 27.9707 327.839 28.536C327.839 29.0373 327.7 29.4853 327.423 29.88C327.145 30.2747 326.751 30.584 326.239 30.808C325.737 31.032 325.145 31.144 324.463 31.144Z" fill="black"/>
<rect x="160" y="50" width="80" height="80" rx="15" fill="#E6E6E6"/>
<rect x="186" y="84" width="20" height="20" rx="10" stroke="black" stroke-width="4"/>
<path d="M204 82C204 77.5817 207.582 74 212 74H214C215.105 74 216 74.8954 216 76V76C216 77.1046 215.105 78 214 78H212C209.791 78 208 79.7909 208 82V94H204V82Z" fill="black"/>
<rect x="192" y="90" width="8" height="8" rx="4" fill="black"/>
<path d="M272.912 59.88V71H271.088V63.384L267.696 71H266.432L263.024 63.384V71H261.2V59.88H263.168L267.072 68.6L270.96 59.88H272.912ZM283.293 62.184V71H281.469V69.96C281.181 70.3227 280.803 70.6107 280.333 70.824C279.875 71.0267 279.384 71.128 278.861 71.128C278.168 71.128 277.544 70.984 276.989 70.696C276.445 70.408 276.013 69.9813 275.693 69.416C275.384 68.8507 275.229 68.168 275.229 67.368V62.184H277.037V67.096C277.037 67.8853 277.235 68.4933 277.629 68.92C278.024 69.336 278.563 69.544 279.245 69.544C279.928 69.544 280.467 69.336 280.861 68.92C281.267 68.4933 281.469 67.8853 281.469 67.096V62.184H283.293ZM288.9 71.144C288.207 71.144 287.583 71.0213 287.028 70.776C286.484 70.52 286.052 70.1787 285.732 69.752C285.412 69.3147 285.241 68.8293 285.22 68.296H287.108C287.14 68.6693 287.316 68.984 287.636 69.24C287.967 69.4853 288.377 69.608 288.868 69.608C289.38 69.608 289.775 69.512 290.052 69.32C290.34 69.1173 290.484 68.8613 290.484 68.552C290.484 68.2213 290.324 67.976 290.004 67.816C289.695 67.656 289.199 67.48 288.516 67.288C287.855 67.1067 287.316 66.9307 286.9 66.76C286.484 66.5893 286.121 66.328 285.812 65.976C285.513 65.624 285.364 65.16 285.364 64.584C285.364 64.1147 285.503 63.688 285.78 63.304C286.057 62.9093 286.452 62.6 286.964 62.376C287.487 62.152 288.084 62.04 288.756 62.04C289.759 62.04 290.564 62.296 291.172 62.808C291.791 63.3093 292.121 63.9973 292.164 64.872H290.34C290.308 64.4773 290.148 64.1627 289.86 63.928C289.572 63.6933 289.183 63.576 288.692 63.576C288.212 63.576 287.844 63.6667 287.588 63.848C287.332 64.0293 287.204 64.2693 287.204 64.568C287.204 64.8027 287.289 65 287.46 65.16C287.631 65.32 287.839 65.448 288.084 65.544C288.329 65.6293 288.692 65.7413 289.172 65.88C289.812 66.0507 290.335 66.2267 290.74 66.408C291.156 66.5787 291.513 66.8347 291.812 67.176C292.111 67.5173 292.265 67.9707 292.276 68.536C292.276 69.0373 292.137 69.4853 291.86 69.88C291.583 70.2747 291.188 70.584 290.676 70.808C290.175 71.032 289.583 71.144 288.9 71.144ZM295.175 61.016C294.844 61.016 294.567 60.904 294.343 60.68C294.119 60.456 294.007 60.1787 294.007 59.848C294.007 59.5173 294.119 59.24 294.343 59.016C294.567 58.792 294.844 58.68 295.175 58.68C295.495 58.68 295.767 58.792 295.991 59.016C296.215 59.24 296.327 59.5173 296.327 59.848C296.327 60.1787 296.215 60.456 295.991 60.68C295.767 60.904 295.495 61.016 295.175 61.016ZM296.071 62.184V71H294.247V62.184H296.071ZM297.858 66.584C297.858 65.6773 298.039 64.8827 298.402 64.2C298.775 63.5067 299.287 62.9733 299.938 62.6C300.588 62.2267 301.335 62.04 302.178 62.04C303.244 62.04 304.124 62.296 304.818 62.808C305.522 63.3093 305.996 64.0293 306.242 64.968H304.274C304.114 64.5307 303.858 64.1893 303.506 63.944C303.154 63.6987 302.711 63.576 302.178 63.576C301.431 63.576 300.834 63.8427 300.386 64.376C299.948 64.8987 299.73 65.6347 299.73 66.584C299.73 67.5333 299.948 68.2747 300.386 68.808C300.834 69.3413 301.431 69.608 302.178 69.608C303.234 69.608 303.932 69.144 304.274 68.216H306.242C305.986 69.112 305.506 69.8267 304.802 70.36C304.098 70.8827 303.223 71.144 302.178 71.144C301.335 71.144 300.588 70.9573 299.938 70.584C299.287 70.2 298.775 69.6667 298.402 68.984C298.039 68.2907 297.858 67.4907 297.858 66.584ZM314.696 67.752C314.312 67.752 313.96 67.6613 313.64 67.48C313.33 67.288 313.08 67.0373 312.888 66.728C312.706 66.408 312.616 66.056 312.616 65.672C312.616 65.0853 312.818 64.5893 313.224 64.184C313.629 63.7787 314.12 63.576 314.696 63.576C315.293 63.576 315.794 63.7787 316.2 64.184C316.605 64.5893 316.808 65.0853 316.808 65.672C316.808 66.2587 316.605 66.7547 316.2 67.16C315.794 67.5547 315.293 67.752 314.696 67.752ZM330.467 68.728H325.811L325.011 71H323.107L327.091 59.864H329.203L333.187 71H331.267L330.467 68.728ZM329.955 67.24L328.147 62.072L326.323 67.24H329.955ZM336.743 63.48C337.052 63.0747 337.473 62.7333 338.007 62.456C338.54 62.1787 339.143 62.04 339.815 62.04C340.583 62.04 341.281 62.232 341.911 62.616C342.551 62.9893 343.052 63.5173 343.415 64.2C343.777 64.8827 343.959 65.6667 343.959 66.552C343.959 67.4373 343.777 68.232 343.415 68.936C343.052 69.6293 342.551 70.1733 341.911 70.568C341.281 70.952 340.583 71.144 339.815 71.144C339.143 71.144 338.545 71.0107 338.023 70.744C337.5 70.4667 337.073 70.1253 336.743 69.72V75.192H334.919V62.184H336.743V63.48ZM342.103 66.552C342.103 65.944 341.975 65.4213 341.719 64.984C341.473 64.536 341.143 64.2 340.727 63.976C340.321 63.7413 339.884 63.624 339.415 63.624C338.956 63.624 338.519 63.7413 338.103 63.976C337.697 64.2107 337.367 64.552 337.111 65C336.865 65.448 336.743 65.976 336.743 66.584C336.743 67.192 336.865 67.7253 337.111 68.184C337.367 68.632 337.697 68.9733 338.103 69.208C338.519 69.4427 338.956 69.56 339.415 69.56C339.884 69.56 340.321 69.4427 340.727 69.208C341.143 68.9627 341.473 68.6107 341.719 68.152C341.975 67.6933 342.103 67.16 342.103 66.552ZM347.587 63.48C347.896 63.0747 348.317 62.7333 348.851 62.456C349.384 62.1787 349.987 62.04 350.659 62.04C351.427 62.04 352.125 62.232 352.755 62.616C353.395 62.9893 353.896 63.5173 354.259 64.2C354.621 64.8827 354.803 65.6667 354.803 66.552C354.803 67.4373 354.621 68.232 354.259 68.936C353.896 69.6293 353.395 70.1733 352.755 70.568C352.125 70.952 351.427 71.144 350.659 71.144C349.987 71.144 349.389 71.0107 348.867 70.744C348.344 70.4667 347.917 70.1253 347.587 69.72V75.192H345.763V62.184H347.587V63.48ZM352.947 66.552C352.947 65.944 352.819 65.4213 352.562 64.984C352.317 64.536 351.987 64.2 351.571 63.976C351.165 63.7413 350.728 63.624 350.259 63.624C349.8 63.624 349.363 63.7413 348.947 63.976C348.541 64.2107 348.211 64.552 347.955 65C347.709 65.448 347.587 65.976 347.587 66.584C347.587 67.192 347.709 67.7253 347.955 68.184C348.211 68.632 348.541 68.9733 348.947 69.208C349.363 69.4427 349.8 69.56 350.259 69.56C350.728 69.56 351.165 69.4427 351.571 69.208C351.987 68.9627 352.317 68.6107 352.562 68.152C352.819 67.6933 352.947 67.16 352.947 66.552Z" fill="black"/>
<path d="M175.928 197.296H172.436L171.836 199H170.408L173.396 190.648H174.98L177.968 199H176.528L175.928 197.296ZM175.544 196.18L174.188 192.304L172.82 196.18H175.544ZM180.635 193.372C180.867 193.052 181.183 192.792 181.583 192.592C181.991 192.384 182.443 192.28 182.939 192.28C183.523 192.28 184.051 192.42 184.523 192.7C184.995 192.98 185.367 193.38 185.639 193.9C185.911 194.412 186.047 195 186.047 195.664C186.047 196.328 185.911 196.924 185.639 197.452C185.367 197.972 184.991 198.38 184.511 198.676C184.039 198.964 183.515 199.108 182.939 199.108C182.427 199.108 181.971 199.008 181.571 198.808C181.179 198.608 180.867 198.352 180.635 198.04V199H179.267V190.12H180.635V193.372ZM184.655 195.664C184.655 195.208 184.559 194.816 184.367 194.488C184.183 194.152 183.935 193.9 183.623 193.732C183.319 193.556 182.991 193.468 182.639 193.468C182.295 193.468 181.967 193.556 181.655 193.732C181.351 193.908 181.103 194.164 180.911 194.5C180.727 194.836 180.635 195.232 180.635 195.688C180.635 196.144 180.727 196.544 180.911 196.888C181.103 197.224 181.351 197.48 181.655 197.656C181.967 197.832 182.295 197.92 182.639 197.92C182.991 197.92 183.319 197.832 183.623 197.656C183.935 197.472 184.183 197.208 184.367 196.864C184.559 196.52 184.655 196.12 184.655 195.664ZM190.268 199.108C189.644 199.108 189.08 198.968 188.576 198.688C188.072 198.4 187.676 198 187.388 197.488C187.1 196.968 186.956 196.368 186.956 195.688C186.956 195.016 187.104 194.42 187.4 193.9C187.696 193.38 188.1 192.98 188.612 192.7C189.124 192.42 189.696 192.28 190.328 192.28C190.96 192.28 191.532 192.42 192.044 192.7C192.556 192.98 192.96 193.38 193.256 193.9C193.552 194.42 193.7 195.016 193.7 195.688C193.7 196.36 193.548 196.956 193.244 197.476C192.94 197.996 192.524 198.4 191.996 198.688C191.476 198.968 190.9 199.108 190.268 199.108ZM190.268 197.92C190.62 197.92 190.948 197.836 191.252 197.668C191.564 197.5 191.816 197.248 192.008 196.912C192.2 196.576 192.296 196.168 192.296 195.688C192.296 195.208 192.204 194.804 192.02 194.476C191.836 194.14 191.592 193.888 191.288 193.72C190.984 193.552 190.656 193.468 190.304 193.468C189.952 193.468 189.624 193.552 189.32 193.72C189.024 193.888 188.788 194.14 188.612 194.476C188.436 194.804 188.348 195.208 188.348 195.688C188.348 196.4 188.528 196.952 188.888 197.344C189.256 197.728 189.716 197.92 190.268 197.92ZM201.04 192.388V199H199.672V198.22C199.456 198.492 199.172 198.708 198.82 198.868C198.476 199.02 198.108 199.096 197.716 199.096C197.196 199.096 196.728 198.988 196.312 198.772C195.904 198.556 195.58 198.236 195.34 197.812C195.108 197.388 194.992 196.876 194.992 196.276V192.388H196.348V196.072C196.348 196.664 196.496 197.12 196.792 197.44C197.088 197.752 197.492 197.908 198.004 197.908C198.516 197.908 198.92 197.752 199.216 197.44C199.52 197.12 199.672 196.664 199.672 196.072V192.388H201.04ZM204.441 193.504V197.164C204.441 197.412 204.497 197.592 204.609 197.704C204.729 197.808 204.929 197.86 205.209 197.86H206.049V199H204.969C204.353 199 203.881 198.856 203.553 198.568C203.225 198.28 203.061 197.812 203.061 197.164V193.504H202.281V192.388H203.061V190.744H204.441V192.388H206.049V193.504H204.441ZM212.023 193.504V197.164C212.023 197.412 212.079 197.592 212.191 197.704C212.311 197.808 212.511 197.86 212.791 197.86H213.631V199H212.551C211.935 199 211.463 198.856 211.135 198.568C210.807 198.28 210.643 197.812 210.643 197.164V193.504H209.863V192.388H210.643V190.744H212.023V192.388H213.631V193.504H212.023ZM218.312 192.28C218.816 192.28 219.264 192.388 219.656 192.604C220.056 192.82 220.368 193.14 220.592 193.564C220.824 193.988 220.94 194.5 220.94 195.1V199H219.584V195.304C219.584 194.712 219.436 194.26 219.14 193.948C218.844 193.628 218.44 193.468 217.928 193.468C217.416 193.468 217.008 193.628 216.704 193.948C216.408 194.26 216.26 194.712 216.26 195.304V199H214.892V190.12H216.26V193.156C216.492 192.876 216.784 192.66 217.136 192.508C217.496 192.356 217.888 192.28 218.312 192.28ZM223.381 191.512C223.133 191.512 222.925 191.428 222.757 191.26C222.589 191.092 222.505 190.884 222.505 190.636C222.505 190.388 222.589 190.18 222.757 190.012C222.925 189.844 223.133 189.76 223.381 189.76C223.621 189.76 223.825 189.844 223.993 190.012C224.161 190.18 224.245 190.388 224.245 190.636C224.245 190.884 224.161 191.092 223.993 191.26C223.825 191.428 223.621 191.512 223.381 191.512ZM224.053 192.388V199H222.685V192.388H224.053ZM228.249 199.108C227.729 199.108 227.261 199.016 226.845 198.832C226.437 198.64 226.113 198.384 225.873 198.064C225.633 197.736 225.505 197.372 225.489 196.972H226.905C226.929 197.252 227.061 197.488 227.301 197.68C227.549 197.864 227.857 197.956 228.225 197.956C228.609 197.956 228.905 197.884 229.113 197.74C229.329 197.588 229.437 197.396 229.437 197.164C229.437 196.916 229.317 196.732 229.077 196.612C228.845 196.492 228.473 196.36 227.961 196.216C227.465 196.08 227.061 195.948 226.749 195.82C226.437 195.692 226.165 195.496 225.933 195.232C225.709 194.968 225.597 194.62 225.597 194.188C225.597 193.836 225.701 193.516 225.909 193.228C226.117 192.932 226.413 192.7 226.797 192.532C227.189 192.364 227.637 192.28 228.141 192.28C228.893 192.28 229.497 192.472 229.953 192.856C230.417 193.232 230.665 193.748 230.697 194.404H229.329C229.305 194.108 229.185 193.872 228.969 193.696C228.753 193.52 228.461 193.432 228.093 193.432C227.733 193.432 227.457 193.5 227.265 193.636C227.073 193.772 226.977 193.952 226.977 194.176C226.977 194.352 227.041 194.5 227.169 194.62C227.297 194.74 227.453 194.836 227.637 194.908C227.821 194.972 228.093 195.056 228.453 195.16C228.933 195.288 229.325 195.42 229.629 195.556C229.941 195.684 230.209 195.876 230.433 196.132C230.657 196.388 230.773 196.728 230.781 197.152C230.781 197.528 230.677 197.864 230.469 198.16C230.261 198.456 229.965 198.688 229.581 198.856C229.205 199.024 228.761 199.108 228.249 199.108ZM238.041 192.28C238.553 192.28 239.005 192.384 239.397 192.592C239.797 192.792 240.109 193.044 240.333 193.348V192.388H241.713V199.108C241.713 199.716 241.585 200.256 241.329 200.728C241.073 201.208 240.701 201.584 240.213 201.856C239.733 202.128 239.157 202.264 238.485 202.264C237.589 202.264 236.845 202.052 236.253 201.628C235.661 201.212 235.325 200.644 235.245 199.924H236.601C236.705 200.268 236.925 200.544 237.261 200.752C237.605 200.968 238.013 201.076 238.485 201.076C239.037 201.076 239.481 200.908 239.817 200.572C240.161 200.236 240.333 199.748 240.333 199.108V198.004C240.101 198.316 239.785 198.58 239.385 198.796C238.993 199.004 238.545 199.108 238.041 199.108C237.465 199.108 236.937 198.964 236.457 198.676C235.985 198.38 235.609 197.972 235.329 197.452C235.057 196.924 234.921 196.328 234.921 195.664C234.921 195 235.057 194.412 235.329 193.9C235.609 193.388 235.985 192.992 236.457 192.712C236.937 192.424 237.465 192.28 238.041 192.28ZM240.333 195.688C240.333 195.232 240.237 194.836 240.045 194.5C239.861 194.164 239.617 193.908 239.313 193.732C239.009 193.556 238.681 193.468 238.329 193.468C237.977 193.468 237.649 193.556 237.345 193.732C237.041 193.9 236.793 194.152 236.601 194.488C236.417 194.816 236.325 195.208 236.325 195.664C236.325 196.12 236.417 196.52 236.601 196.864C236.793 197.208 237.041 197.472 237.345 197.656C237.657 197.832 237.985 197.92 238.329 197.92C238.681 197.92 239.009 197.832 239.313 197.656C239.617 197.48 239.861 197.224 240.045 196.888C240.237 196.544 240.333 196.144 240.333 195.688ZM243.053 195.664C243.053 195 243.189 194.412 243.461 193.9C243.741 193.388 244.117 192.992 244.589 192.712C245.069 192.424 245.597 192.28 246.173 192.28C246.693 192.28 247.145 192.384 247.529 192.592C247.921 192.792 248.233 193.044 248.465 193.348V192.388H249.845V199H248.465V198.016C248.233 198.328 247.917 198.588 247.517 198.796C247.117 199.004 246.661 199.108 246.149 199.108C245.581 199.108 245.061 198.964 244.589 198.676C244.117 198.38 243.741 197.972 243.461 197.452C243.189 196.924 243.053 196.328 243.053 195.664ZM248.465 195.688C248.465 195.232 248.369 194.836 248.177 194.5C247.993 194.164 247.749 193.908 247.445 193.732C247.141 193.556 246.813 193.468 246.461 193.468C246.109 193.468 245.781 193.556 245.477 193.732C245.173 193.9 244.925 194.152 244.733 194.488C244.549 194.816 244.457 195.208 244.457 195.664C244.457 196.12 244.549 196.52 244.733 196.864C244.925 197.208 245.173 197.472 245.477 197.656C245.789 197.832 246.117 197.92 246.461 197.92C246.813 197.92 247.141 197.832 247.445 197.656C247.749 197.48 247.993 197.224 248.177 196.888C248.369 196.544 248.465 196.144 248.465 195.688ZM259.646 192.28C260.166 192.28 260.63 192.388 261.038 192.604C261.454 192.82 261.778 193.14 262.01 193.564C262.25 193.988 262.37 194.5 262.37 195.1V199H261.014V195.304C261.014 194.712 260.866 194.26 260.57 193.948C260.274 193.628 259.87 193.468 259.358 193.468C258.846 193.468 258.438 193.628 258.134 193.948C257.838 194.26 257.69 194.712 257.69 195.304V199H256.334V195.304C256.334 194.712 256.186 194.26 255.89 193.948C255.594 193.628 255.19 193.468 254.678 193.468C254.166 193.468 253.758 193.628 253.454 193.948C253.158 194.26 253.01 194.712 253.01 195.304V199H251.642V192.388H253.01V193.144C253.234 192.872 253.518 192.66 253.862 192.508C254.206 192.356 254.574 192.28 254.966 192.28C255.494 192.28 255.966 192.392 256.382 192.616C256.798 192.84 257.118 193.164 257.342 193.588C257.542 193.188 257.854 192.872 258.278 192.64C258.702 192.4 259.158 192.28 259.646 192.28ZM270.171 195.532C270.171 195.78 270.155 196.004 270.123 196.204H265.071C265.111 196.732 265.307 197.156 265.659 197.476C266.011 197.796 266.443 197.956 266.955 197.956C267.691 197.956 268.211 197.648 268.515 197.032H269.991C269.791 197.64 269.427 198.14 268.899 198.532C268.379 198.916 267.731 199.108 266.955 199.108C266.323 199.108 265.755 198.968 265.251 198.688C264.755 198.4 264.363 198 264.075 197.488C263.795 196.968 263.655 196.368 263.655 195.688C263.655 195.008 263.791 194.412 264.063 193.9C264.343 193.38 264.731 192.98 265.227 192.7C265.731 192.42 266.307 192.28 266.955 192.28C267.579 192.28 268.135 192.416 268.623 192.688C269.111 192.96 269.491 193.344 269.763 193.84C270.035 194.328 270.171 194.892 270.171 195.532ZM268.743 195.1C268.735 194.596 268.555 194.192 268.203 193.888C267.851 193.584 267.415 193.432 266.895 193.432C266.423 193.432 266.019 193.584 265.683 193.888C265.347 194.184 265.147 194.588 265.083 195.1H268.743Z" fill="black"/>
<path d="M264.54 89.05V94.06C264.54 94.68 264.35 95.17 263.97 95.53C263.597 95.89 263.103 96.07 262.49 96.07C261.877 96.07 261.38 95.89 261 95.53C260.627 95.17 260.44 94.68 260.44 94.06H261.59C261.597 94.3667 261.673 94.61 261.82 94.79C261.973 94.97 262.197 95.06 262.49 95.06C262.783 95.06 263.007 94.97 263.16 94.79C263.313 94.6033 263.39 94.36 263.39 94.06V89.05H264.54ZM267.535 88.6V96H266.395V88.6H267.535ZM271.421 96.09C270.901 96.09 270.431 95.9733 270.011 95.74C269.591 95.5 269.261 95.1667 269.021 94.74C268.781 94.3067 268.661 93.8067 268.661 93.24C268.661 92.68 268.785 92.1833 269.031 91.75C269.278 91.3167 269.615 90.9833 270.041 90.75C270.468 90.5167 270.945 90.4 271.471 90.4C271.998 90.4 272.475 90.5167 272.901 90.75C273.328 90.9833 273.665 91.3167 273.911 91.75C274.158 92.1833 274.281 92.68 274.281 93.24C274.281 93.8 274.155 94.2967 273.901 94.73C273.648 95.1633 273.301 95.5 272.861 95.74C272.428 95.9733 271.948 96.09 271.421 96.09ZM271.421 95.1C271.715 95.1 271.988 95.03 272.241 94.89C272.501 94.75 272.711 94.54 272.871 94.26C273.031 93.98 273.111 93.64 273.111 93.24C273.111 92.84 273.035 92.5033 272.881 92.23C272.728 91.95 272.525 91.74 272.271 91.6C272.018 91.46 271.745 91.39 271.451 91.39C271.158 91.39 270.885 91.46 270.631 91.6C270.385 91.74 270.188 91.95 270.041 92.23C269.895 92.5033 269.821 92.84 269.821 93.24C269.821 93.8333 269.971 94.2933 270.271 94.62C270.578 94.94 270.961 95.1 271.421 95.1ZM279.598 94.58H276.688L276.188 96H274.998L277.488 89.04H278.808L281.298 96H280.098L279.598 94.58ZM279.278 93.65L278.148 90.42L277.008 93.65H279.278ZM287.371 90.49V96H286.231V95.35C286.051 95.5767 285.814 95.7567 285.521 95.89C285.234 96.0167 284.928 96.08 284.601 96.08C284.168 96.08 283.778 95.99 283.431 95.81C283.091 95.63 282.821 95.3633 282.621 95.01C282.428 94.6567 282.331 94.23 282.331 93.73V90.49H283.461V93.56C283.461 94.0533 283.584 94.4333 283.831 94.7C284.078 94.96 284.414 95.09 284.841 95.09C285.268 95.09 285.604 94.96 285.851 94.7C286.104 94.4333 286.231 94.0533 286.231 93.56V90.49H287.371Z" fill="#808080"/>
<path d="M263.04 121.07C262.573 121.07 262.153 120.99 261.78 120.83C261.407 120.663 261.113 120.43 260.9 120.13C260.687 119.83 260.58 119.48 260.58 119.08H261.8C261.827 119.38 261.943 119.627 262.15 119.82C262.363 120.013 262.66 120.11 263.04 120.11C263.433 120.11 263.74 120.017 263.96 119.83C264.18 119.637 264.29 119.39 264.29 119.09C264.29 118.857 264.22 118.667 264.08 118.52C263.947 118.373 263.777 118.26 263.57 118.18C263.37 118.1 263.09 118.013 262.73 117.92C262.277 117.8 261.907 117.68 261.62 117.56C261.34 117.433 261.1 117.24 260.9 116.98C260.7 116.72 260.6 116.373 260.6 115.94C260.6 115.54 260.7 115.19 260.9 114.89C261.1 114.59 261.38 114.36 261.74 114.2C262.1 114.04 262.517 113.96 262.99 113.96C263.663 113.96 264.213 114.13 264.64 114.47C265.073 114.803 265.313 115.263 265.36 115.85H264.1C264.08 115.597 263.96 115.38 263.74 115.2C263.52 115.02 263.23 114.93 262.87 114.93C262.543 114.93 262.277 115.013 262.07 115.18C261.863 115.347 261.76 115.587 261.76 115.9C261.76 116.113 261.823 116.29 261.95 116.43C262.083 116.563 262.25 116.67 262.45 116.75C262.65 116.83 262.923 116.917 263.27 117.01C263.73 117.137 264.103 117.263 264.39 117.39C264.683 117.517 264.93 117.713 265.13 117.98C265.337 118.24 265.44 118.59 265.44 119.03C265.44 119.383 265.343 119.717 265.15 120.03C264.963 120.343 264.687 120.597 264.32 120.79C263.96 120.977 263.533 121.07 263.04 121.07ZM267.365 114.76C267.158 114.76 266.985 114.69 266.845 114.55C266.705 114.41 266.635 114.237 266.635 114.03C266.635 113.823 266.705 113.65 266.845 113.51C266.985 113.37 267.158 113.3 267.365 113.3C267.565 113.3 267.735 113.37 267.875 113.51C268.015 113.65 268.085 113.823 268.085 114.03C268.085 114.237 268.015 114.41 267.875 114.55C267.735 114.69 267.565 114.76 267.365 114.76ZM267.925 115.49V121H266.785V115.49H267.925ZM270.432 120.07H272.932V121H269.112V120.07L271.622 116.42H269.112V115.49H272.932V116.42L270.432 120.07ZM279.179 118.11C279.179 118.317 279.166 118.503 279.139 118.67H274.929C274.962 119.11 275.126 119.463 275.419 119.73C275.712 119.997 276.072 120.13 276.499 120.13C277.112 120.13 277.546 119.873 277.799 119.36H279.029C278.862 119.867 278.559 120.283 278.119 120.61C277.686 120.93 277.146 121.09 276.499 121.09C275.972 121.09 275.499 120.973 275.079 120.74C274.666 120.5 274.339 120.167 274.099 119.74C273.866 119.307 273.749 118.807 273.749 118.24C273.749 117.673 273.862 117.177 274.089 116.75C274.322 116.317 274.646 115.983 275.059 115.75C275.479 115.517 275.959 115.4 276.499 115.4C277.019 115.4 277.482 115.513 277.889 115.74C278.296 115.967 278.612 116.287 278.839 116.7C279.066 117.107 279.179 117.577 279.179 118.11ZM277.989 117.75C277.982 117.33 277.832 116.993 277.539 116.74C277.246 116.487 276.882 116.36 276.449 116.36C276.056 116.36 275.719 116.487 275.439 116.74C275.159 116.987 274.992 117.323 274.939 117.75H277.989ZM280.761 121.07C280.554 121.07 280.381 121 280.241 120.86C280.101 120.72 280.031 120.547 280.031 120.34C280.031 120.133 280.101 119.96 280.241 119.82C280.381 119.68 280.554 119.61 280.761 119.61C280.961 119.61 281.131 119.68 281.271 119.82C281.411 119.96 281.481 120.133 281.481 120.34C281.481 120.547 281.411 120.72 281.271 120.86C281.131 121 280.961 121.07 280.761 121.07ZM280.761 116.87C280.554 116.87 280.381 116.8 280.241 116.66C280.101 116.52 280.031 116.347 280.031 116.14C280.031 115.933 280.101 115.76 280.241 115.62C280.381 115.48 280.554 115.41 280.761 115.41C280.961 115.41 281.131 115.48 281.271 115.62C281.411 115.76 281.481 115.933 281.481 116.14C281.481 116.347 281.411 116.52 281.271 116.66C281.131 116.8 280.961 116.87 280.761 116.87Z" fill="black"/>
<rect x="200" y="10" width="30" height="30" rx="15" transform="rotate(90 200 10)" fill="black" fill-opacity="0.1"/>
<rect x="191" y="24" width="2" height="12" rx="1" transform="rotate(90 191 24)" fill="black"/>
<rect x="184" y="19.3433" width="2" height="8" rx="1" transform="rotate(45 184 19.3433)" fill="black"/>
<rect x="185.414" y="29.2427" width="2" height="8" rx="1" transform="rotate(135 185.414 29.2427)" fill="black"/>
<rect x="160" y="210" width="180" height="140" rx="15" fill="black" fill-opacity="0.1"/>
<path d="M354.54 214.05V219.06C354.54 219.68 354.35 220.17 353.97 220.53C353.597 220.89 353.103 221.07 352.49 221.07C351.877 221.07 351.38 220.89 351 220.53C350.627 220.17 350.44 219.68 350.44 219.06H351.59C351.597 219.367 351.673 219.61 351.82 219.79C351.973 219.97 352.197 220.06 352.49 220.06C352.783 220.06 353.007 219.97 353.16 219.79C353.313 219.603 353.39 219.36 353.39 219.06V214.05H354.54ZM361.385 215.49V221H360.245V220.35C360.065 220.577 359.828 220.757 359.535 220.89C359.248 221.017 358.941 221.08 358.615 221.08C358.181 221.08 357.791 220.99 357.445 220.81C357.105 220.63 356.835 220.363 356.635 220.01C356.441 219.657 356.345 219.23 356.345 218.73V215.49H357.475V218.56C357.475 219.053 357.598 219.433 357.845 219.7C358.091 219.96 358.428 220.09 358.855 220.09C359.281 220.09 359.618 219.96 359.865 219.7C360.118 219.433 360.245 219.053 360.245 218.56V215.49H361.385ZM364.889 221.09C364.455 221.09 364.065 221.013 363.719 220.86C363.379 220.7 363.109 220.487 362.909 220.22C362.709 219.947 362.602 219.643 362.589 219.31H363.769C363.789 219.543 363.899 219.74 364.099 219.9C364.305 220.053 364.562 220.13 364.869 220.13C365.189 220.13 365.435 220.07 365.609 219.95C365.789 219.823 365.879 219.663 365.879 219.47C365.879 219.263 365.779 219.11 365.579 219.01C365.385 218.91 365.075 218.8 364.649 218.68C364.235 218.567 363.899 218.457 363.639 218.35C363.379 218.243 363.152 218.08 362.959 217.86C362.772 217.64 362.679 217.35 362.679 216.99C362.679 216.697 362.765 216.43 362.939 216.19C363.112 215.943 363.359 215.75 363.679 215.61C364.005 215.47 364.379 215.4 364.799 215.4C365.425 215.4 365.929 215.56 366.309 215.88C366.695 216.193 366.902 216.623 366.929 217.17H365.789C365.769 216.923 365.669 216.727 365.489 216.58C365.309 216.433 365.065 216.36 364.759 216.36C364.459 216.36 364.229 216.417 364.069 216.53C363.909 216.643 363.829 216.793 363.829 216.98C363.829 217.127 363.882 217.25 363.989 217.35C364.095 217.45 364.225 217.53 364.379 217.59C364.532 217.643 364.759 217.713 365.059 217.8C365.459 217.907 365.785 218.017 366.039 218.13C366.299 218.237 366.522 218.397 366.709 218.61C366.895 218.823 366.992 219.107 366.999 219.46C366.999 219.773 366.912 220.053 366.739 220.3C366.565 220.547 366.319 220.74 365.999 220.88C365.685 221.02 365.315 221.09 364.889 221.09ZM369.56 216.42V219.47C369.56 219.677 369.607 219.827 369.7 219.92C369.8 220.007 369.967 220.05 370.2 220.05H370.9V221H370C369.487 221 369.094 220.88 368.82 220.64C368.547 220.4 368.41 220.01 368.41 219.47V216.42H367.76V215.49H368.41V214.12H369.56V215.49H370.9V216.42H369.56ZM375.689 213.6V221H374.549V213.6H375.689ZM377.766 214.76C377.559 214.76 377.386 214.69 377.246 214.55C377.106 214.41 377.036 214.237 377.036 214.03C377.036 213.823 377.106 213.65 377.246 213.51C377.386 213.37 377.559 213.3 377.766 213.3C377.966 213.3 378.136 213.37 378.276 213.51C378.416 213.65 378.486 213.823 378.486 214.03C378.486 214.237 378.416 214.41 378.276 214.55C378.136 214.69 377.966 214.76 377.766 214.76ZM378.326 215.49V221H377.186V215.49H378.326ZM381.822 221.09C381.389 221.09 380.999 221.013 380.652 220.86C380.312 220.7 380.042 220.487 379.842 220.22C379.642 219.947 379.536 219.643 379.522 219.31H380.702C380.722 219.543 380.832 219.74 381.032 219.9C381.239 220.053 381.496 220.13 381.802 220.13C382.122 220.13 382.369 220.07 382.542 219.95C382.722 219.823 382.812 219.663 382.812 219.47C382.812 219.263 382.712 219.11 382.512 219.01C382.319 218.91 382.009 218.8 381.582 218.68C381.169 218.567 380.832 218.457 380.572 218.35C380.312 218.243 380.086 218.08 379.892 217.86C379.706 217.64 379.612 217.35 379.612 216.99C379.612 216.697 379.699 216.43 379.872 216.19C380.046 215.943 380.292 215.75 380.612 215.61C380.939 215.47 381.312 215.4 381.732 215.4C382.359 215.4 382.862 215.56 383.242 215.88C383.629 216.193 383.836 216.623 383.862 217.17H382.722C382.702 216.923 382.602 216.727 382.422 216.58C382.242 216.433 381.999 216.36 381.692 216.36C381.392 216.36 381.162 216.417 381.002 216.53C380.842 216.643 380.762 216.793 380.762 216.98C380.762 217.127 380.816 217.25 380.922 217.35C381.029 217.45 381.159 217.53 381.312 217.59C381.466 217.643 381.692 217.713 381.992 217.8C382.392 217.907 382.719 218.017 382.972 218.13C383.232 218.237 383.456 218.397 383.642 218.61C383.829 218.823 383.926 219.107 383.932 219.46C383.932 219.773 383.846 220.053 383.672 220.3C383.499 220.547 383.252 220.74 382.932 220.88C382.619 221.02 382.249 221.09 381.822 221.09ZM386.494 216.42V219.47C386.494 219.677 386.541 219.827 386.634 219.92C386.734 220.007 386.901 220.05 387.134 220.05H387.834V221H386.934C386.421 221 386.027 220.88 385.754 220.64C385.481 220.4 385.344 220.01 385.344 219.47V216.42H384.694V215.49H385.344V214.12H386.494V215.49H387.834V216.42H386.494ZM393.935 218.11C393.935 218.317 393.921 218.503 393.895 218.67H389.685C389.718 219.11 389.881 219.463 390.175 219.73C390.468 219.997 390.828 220.13 391.255 220.13C391.868 220.13 392.301 219.873 392.555 219.36H393.785C393.618 219.867 393.315 220.283 392.875 220.61C392.441 220.93 391.901 221.09 391.255 221.09C390.728 221.09 390.255 220.973 389.835 220.74C389.421 220.5 389.095 220.167 388.855 219.74C388.621 219.307 388.505 218.807 388.505 218.24C388.505 217.673 388.618 217.177 388.845 216.75C389.078 216.317 389.401 215.983 389.815 215.75C390.235 215.517 390.715 215.4 391.255 215.4C391.775 215.4 392.238 215.513 392.645 215.74C393.051 215.967 393.368 216.287 393.595 216.7C393.821 217.107 393.935 217.577 393.935 218.11ZM392.745 217.75C392.738 217.33 392.588 216.993 392.295 216.74C392.001 216.487 391.638 216.36 391.205 216.36C390.811 216.36 390.475 216.487 390.195 216.74C389.915 216.987 389.748 217.323 389.695 217.75H392.745ZM397.837 215.4C398.27 215.4 398.657 215.49 398.997 215.67C399.343 215.85 399.613 216.117 399.807 216.47C400 216.823 400.097 217.25 400.097 217.75V221H398.967V217.92C398.967 217.427 398.843 217.05 398.597 216.79C398.35 216.523 398.013 216.39 397.587 216.39C397.16 216.39 396.82 216.523 396.567 216.79C396.32 217.05 396.197 217.427 396.197 217.92V221H395.057V215.49H396.197V216.12C396.383 215.893 396.62 215.717 396.907 215.59C397.2 215.463 397.51 215.4 397.837 215.4ZM405.478 216.42V219.47C405.478 219.677 405.525 219.827 405.618 219.92C405.718 220.007 405.885 220.05 406.118 220.05H406.818V221H405.918C405.405 221 405.012 220.88 404.738 220.64C404.465 220.4 404.328 220.01 404.328 219.47V216.42H403.678V215.49H404.328V214.12H405.478V215.49H406.818V216.42H405.478ZM410.259 221.09C409.739 221.09 409.269 220.973 408.849 220.74C408.429 220.5 408.099 220.167 407.859 219.74C407.619 219.307 407.499 218.807 407.499 218.24C407.499 217.68 407.622 217.183 407.869 216.75C408.116 216.317 408.452 215.983 408.879 215.75C409.306 215.517 409.782 215.4 410.309 215.4C410.836 215.4 411.312 215.517 411.739 215.75C412.166 215.983 412.502 216.317 412.749 216.75C412.996 217.183 413.119 217.68 413.119 218.24C413.119 218.8 412.992 219.297 412.739 219.73C412.486 220.163 412.139 220.5 411.699 220.74C411.266 220.973 410.786 221.09 410.259 221.09ZM410.259 220.1C410.552 220.1 410.826 220.03 411.079 219.89C411.339 219.75 411.549 219.54 411.709 219.26C411.869 218.98 411.949 218.64 411.949 218.24C411.949 217.84 411.872 217.503 411.719 217.23C411.566 216.95 411.362 216.74 411.109 216.6C410.856 216.46 410.582 216.39 410.289 216.39C409.996 216.39 409.722 216.46 409.469 216.6C409.222 216.74 409.026 216.95 408.879 217.23C408.732 217.503 408.659 217.84 408.659 218.24C408.659 218.833 408.809 219.293 409.109 219.62C409.416 219.94 409.799 220.1 410.259 220.1ZM418.174 216.42V219.47C418.174 219.677 418.22 219.827 418.314 219.92C418.414 220.007 418.58 220.05 418.814 220.05H419.514V221H418.614C418.1 221 417.707 220.88 417.434 220.64C417.16 220.4 417.024 220.01 417.024 219.47V216.42H416.374V215.49H417.024V214.12H418.174V215.49H419.514V216.42H418.174ZM423.414 215.4C423.834 215.4 424.208 215.49 424.534 215.67C424.868 215.85 425.128 216.117 425.314 216.47C425.508 216.823 425.604 217.25 425.604 217.75V221H424.474V217.92C424.474 217.427 424.351 217.05 424.104 216.79C423.858 216.523 423.521 216.39 423.094 216.39C422.668 216.39 422.328 216.523 422.074 216.79C421.828 217.05 421.704 217.427 421.704 217.92V221H420.564V213.6H421.704V216.13C421.898 215.897 422.141 215.717 422.434 215.59C422.734 215.463 423.061 215.4 423.414 215.4ZM432.109 218.11C432.109 218.317 432.095 218.503 432.069 218.67H427.859C427.892 219.11 428.055 219.463 428.349 219.73C428.642 219.997 429.002 220.13 429.429 220.13C430.042 220.13 430.475 219.873 430.729 219.36H431.959C431.792 219.867 431.489 220.283 431.049 220.61C430.615 220.93 430.075 221.09 429.429 221.09C428.902 221.09 428.429 220.973 428.009 220.74C427.595 220.5 427.269 220.167 427.029 219.74C426.795 219.307 426.679 218.807 426.679 218.24C426.679 217.673 426.792 217.177 427.019 216.75C427.252 216.317 427.575 215.983 427.989 215.75C428.409 215.517 428.889 215.4 429.429 215.4C429.949 215.4 430.412 215.513 430.819 215.74C431.225 215.967 431.542 216.287 431.769 216.7C431.995 217.107 432.109 217.577 432.109 218.11ZM430.919 217.75C430.912 217.33 430.762 216.993 430.469 216.74C430.175 216.487 429.812 216.36 429.379 216.36C428.985 216.36 428.649 216.487 428.369 216.74C428.089 216.987 427.922 217.323 427.869 217.75H430.919ZM442.498 215.4C442.931 215.4 443.318 215.49 443.658 215.67C444.005 215.85 444.275 216.117 444.468 216.47C444.668 216.823 444.768 217.25 444.768 217.75V221H443.638V217.92C443.638 217.427 443.515 217.05 443.268 216.79C443.021 216.523 442.685 216.39 442.258 216.39C441.831 216.39 441.491 216.523 441.238 216.79C440.991 217.05 440.868 217.427 440.868 217.92V221H439.738V217.92C439.738 217.427 439.615 217.05 439.368 216.79C439.121 216.523 438.785 216.39 438.358 216.39C437.931 216.39 437.591 216.523 437.338 216.79C437.091 217.05 436.968 217.427 436.968 217.92V221H435.828V215.49H436.968V216.12C437.155 215.893 437.391 215.717 437.678 215.59C437.965 215.463 438.271 215.4 438.598 215.4C439.038 215.4 439.431 215.493 439.778 215.68C440.125 215.867 440.391 216.137 440.578 216.49C440.745 216.157 441.005 215.893 441.358 215.7C441.711 215.5 442.091 215.4 442.498 215.4ZM451.209 215.49V221H450.069V220.35C449.889 220.577 449.652 220.757 449.359 220.89C449.072 221.017 448.765 221.08 448.439 221.08C448.005 221.08 447.615 220.99 447.269 220.81C446.929 220.63 446.659 220.363 446.459 220.01C446.265 219.657 446.169 219.23 446.169 218.73V215.49H447.299V218.56C447.299 219.053 447.422 219.433 447.669 219.7C447.915 219.96 448.252 220.09 448.679 220.09C449.105 220.09 449.442 219.96 449.689 219.7C449.942 219.433 450.069 219.053 450.069 218.56V215.49H451.209ZM454.713 221.09C454.28 221.09 453.89 221.013 453.543 220.86C453.203 220.7 452.933 220.487 452.733 220.22C452.533 219.947 452.426 219.643 452.413 219.31H453.593C453.613 219.543 453.723 219.74 453.923 219.9C454.13 220.053 454.386 220.13 454.693 220.13C455.013 220.13 455.26 220.07 455.433 219.95C455.613 219.823 455.703 219.663 455.703 219.47C455.703 219.263 455.603 219.11 455.403 219.01C455.21 218.91 454.9 218.8 454.473 218.68C454.06 218.567 453.723 218.457 453.463 218.35C453.203 218.243 452.976 218.08 452.783 217.86C452.596 217.64 452.503 217.35 452.503 216.99C452.503 216.697 452.59 216.43 452.763 216.19C452.936 215.943 453.183 215.75 453.503 215.61C453.83 215.47 454.203 215.4 454.623 215.4C455.25 215.4 455.753 215.56 456.133 215.88C456.52 216.193 456.726 216.623 456.753 217.17H455.613C455.593 216.923 455.493 216.727 455.313 216.58C455.133 216.433 454.89 216.36 454.583 216.36C454.283 216.36 454.053 216.417 453.893 216.53C453.733 216.643 453.653 216.793 453.653 216.98C453.653 217.127 453.706 217.25 453.813 217.35C453.92 217.45 454.05 217.53 454.203 217.59C454.356 217.643 454.583 217.713 454.883 217.8C455.283 217.907 455.61 218.017 455.863 218.13C456.123 218.237 456.346 218.397 456.533 218.61C456.72 218.823 456.816 219.107 456.823 219.46C456.823 219.773 456.736 220.053 456.563 220.3C456.39 220.547 456.143 220.74 455.823 220.88C455.51 221.02 455.14 221.09 454.713 221.09ZM458.635 214.76C458.428 214.76 458.255 214.69 458.115 214.55C457.975 214.41 457.905 214.237 457.905 214.03C457.905 213.823 457.975 213.65 458.115 213.51C458.255 213.37 458.428 213.3 458.635 213.3C458.835 213.3 459.005 213.37 459.145 213.51C459.285 213.65 459.355 213.823 459.355 214.03C459.355 214.237 459.285 214.41 459.145 214.55C459.005 214.69 458.835 214.76 458.635 214.76ZM459.195 215.49V221H458.055V215.49H459.195ZM460.311 218.24C460.311 217.673 460.425 217.177 460.651 216.75C460.885 216.317 461.205 215.983 461.611 215.75C462.018 215.517 462.485 215.4 463.011 215.4C463.678 215.4 464.228 215.56 464.661 215.88C465.101 216.193 465.398 216.643 465.551 217.23H464.321C464.221 216.957 464.061 216.743 463.841 216.59C463.621 216.437 463.345 216.36 463.011 216.36C462.545 216.36 462.171 216.527 461.891 216.86C461.618 217.187 461.481 217.647 461.481 218.24C461.481 218.833 461.618 219.297 461.891 219.63C462.171 219.963 462.545 220.13 463.011 220.13C463.671 220.13 464.108 219.84 464.321 219.26H465.551C465.391 219.82 465.091 220.267 464.651 220.6C464.211 220.927 463.665 221.09 463.011 221.09C462.485 221.09 462.018 220.973 461.611 220.74C461.205 220.5 460.885 220.167 460.651 219.74C460.425 219.307 460.311 218.807 460.311 218.24ZM468.118 214.05L467.988 218.9H467.038L466.908 214.05H468.118ZM467.548 221.07C467.341 221.07 467.168 221 467.028 220.86C466.888 220.72 466.818 220.547 466.818 220.34C466.818 220.133 466.888 219.96 467.028 219.82C467.168 219.68 467.341 219.61 467.548 219.61C467.748 219.61 467.918 219.68 468.058 219.82C468.198 219.96 468.268 220.133 468.268 220.34C468.268 220.547 468.198 220.72 468.058 220.86C467.918 221 467.748 221.07 467.548 221.07ZM350.45 229.75V228.71H352.53V236H351.38V229.75H350.45ZM358.796 229.69H355.446V231.68C355.586 231.493 355.793 231.337 356.066 231.21C356.346 231.083 356.643 231.02 356.956 231.02C357.516 231.02 357.969 231.14 358.316 231.38C358.669 231.62 358.919 231.923 359.066 232.29C359.219 232.657 359.296 233.043 359.296 233.45C359.296 233.943 359.199 234.383 359.006 234.77C358.819 235.15 358.536 235.45 358.156 235.67C357.783 235.89 357.323 236 356.776 236C356.049 236 355.466 235.82 355.026 235.46C354.586 235.1 354.323 234.623 354.236 234.03H355.346C355.419 234.343 355.583 234.593 355.836 234.78C356.089 234.96 356.406 235.05 356.786 235.05C357.259 235.05 357.613 234.907 357.846 234.62C358.086 234.333 358.206 233.953 358.206 233.48C358.206 233 358.086 232.633 357.846 232.38C357.606 232.12 357.253 231.99 356.786 231.99C356.459 231.99 356.183 232.073 355.956 232.24C355.736 232.4 355.576 232.62 355.476 232.9H354.396V228.69H358.796V229.69ZM364.56 231.42V234.47C364.56 234.677 364.607 234.827 364.7 234.92C364.8 235.007 364.967 235.05 365.2 235.05H365.9V236H365C364.487 236 364.094 235.88 363.82 235.64C363.547 235.4 363.41 235.01 363.41 234.47V231.42H362.76V230.49H363.41V229.12H364.56V230.49H365.9V231.42H364.56ZM371.941 230.49V236H370.801V235.35C370.621 235.577 370.385 235.757 370.091 235.89C369.805 236.017 369.498 236.08 369.171 236.08C368.738 236.08 368.348 235.99 368.001 235.81C367.661 235.63 367.391 235.363 367.191 235.01C366.998 234.657 366.901 234.23 366.901 233.73V230.49H368.031V233.56C368.031 234.053 368.155 234.433 368.401 234.7C368.648 234.96 368.985 235.09 369.411 235.09C369.838 235.09 370.175 234.96 370.421 234.7C370.675 234.433 370.801 234.053 370.801 233.56V230.49H371.941ZM376.225 230.4C376.659 230.4 377.045 230.49 377.385 230.67C377.732 230.85 378.002 231.117 378.195 231.47C378.389 231.823 378.485 232.25 378.485 232.75V236H377.355V232.92C377.355 232.427 377.232 232.05 376.985 231.79C376.739 231.523 376.402 231.39 375.975 231.39C375.549 231.39 375.209 231.523 374.955 231.79C374.709 232.05 374.585 232.427 374.585 232.92V236H373.445V230.49H374.585V231.12C374.772 230.893 375.009 230.717 375.295 230.59C375.589 230.463 375.899 230.4 376.225 230.4ZM384.989 233.11C384.989 233.317 384.976 233.503 384.949 233.67H380.739C380.773 234.11 380.936 234.463 381.229 234.73C381.523 234.997 381.883 235.13 382.309 235.13C382.923 235.13 383.356 234.873 383.609 234.36H384.839C384.673 234.867 384.369 235.283 383.929 235.61C383.496 235.93 382.956 236.09 382.309 236.09C381.783 236.09 381.309 235.973 380.889 235.74C380.476 235.5 380.149 235.167 379.909 234.74C379.676 234.307 379.559 233.807 379.559 233.24C379.559 232.673 379.673 232.177 379.899 231.75C380.133 231.317 380.456 230.983 380.869 230.75C381.289 230.517 381.769 230.4 382.309 230.4C382.829 230.4 383.293 230.513 383.699 230.74C384.106 230.967 384.423 231.287 384.649 231.7C384.876 232.107 384.989 232.577 384.989 233.11ZM383.799 232.75C383.793 232.33 383.643 231.993 383.349 231.74C383.056 231.487 382.693 231.36 382.259 231.36C381.866 231.36 381.529 231.487 381.249 231.74C380.969 231.987 380.803 232.323 380.749 232.75H383.799ZM388.111 236.09C387.678 236.09 387.288 236.013 386.941 235.86C386.601 235.7 386.331 235.487 386.131 235.22C385.931 234.947 385.825 234.643 385.811 234.31H386.991C387.011 234.543 387.121 234.74 387.321 234.9C387.528 235.053 387.785 235.13 388.091 235.13C388.411 235.13 388.658 235.07 388.831 234.95C389.011 234.823 389.101 234.663 389.101 234.47C389.101 234.263 389.001 234.11 388.801 234.01C388.608 233.91 388.298 233.8 387.871 233.68C387.458 233.567 387.121 233.457 386.861 233.35C386.601 233.243 386.375 233.08 386.181 232.86C385.995 232.64 385.901 232.35 385.901 231.99C385.901 231.697 385.988 231.43 386.161 231.19C386.335 230.943 386.581 230.75 386.901 230.61C387.228 230.47 387.601 230.4 388.021 230.4C388.648 230.4 389.151 230.56 389.531 230.88C389.918 231.193 390.125 231.623 390.151 232.17H389.011C388.991 231.923 388.891 231.727 388.711 231.58C388.531 231.433 388.288 231.36 387.981 231.36C387.681 231.36 387.451 231.417 387.291 231.53C387.131 231.643 387.051 231.793 387.051 231.98C387.051 232.127 387.105 232.25 387.211 232.35C387.318 232.45 387.448 232.53 387.601 232.59C387.755 232.643 387.981 232.713 388.281 232.8C388.681 232.907 389.008 233.017 389.261 233.13C389.521 233.237 389.745 233.397 389.931 233.61C390.118 233.823 390.215 234.107 390.221 234.46C390.221 234.773 390.135 235.053 389.961 235.3C389.788 235.547 389.541 235.74 389.221 235.88C388.908 236.02 388.538 236.09 388.111 236.09ZM393.671 233.22C393.671 232.667 393.784 232.177 394.011 231.75C394.244 231.323 394.557 230.993 394.951 230.76C395.351 230.52 395.791 230.4 396.271 230.4C396.704 230.4 397.081 230.487 397.401 230.66C397.727 230.827 397.987 231.037 398.181 231.29V230.49H399.331V236H398.181V235.18C397.987 235.44 397.724 235.657 397.391 235.83C397.057 236.003 396.677 236.09 396.251 236.09C395.777 236.09 395.344 235.97 394.951 235.73C394.557 235.483 394.244 235.143 394.011 234.71C393.784 234.27 393.671 233.773 393.671 233.22ZM398.181 233.24C398.181 232.86 398.101 232.53 397.941 232.25C397.787 231.97 397.584 231.757 397.331 231.61C397.077 231.463 396.804 231.39 396.511 231.39C396.217 231.39 395.944 231.463 395.691 231.61C395.437 231.75 395.231 231.96 395.071 232.24C394.917 232.513 394.841 232.84 394.841 233.22C394.841 233.6 394.917 233.933 395.071 234.22C395.231 234.507 395.437 234.727 395.691 234.88C395.951 235.027 396.224 235.1 396.511 235.1C396.804 235.1 397.077 235.027 397.331 234.88C397.584 234.733 397.787 234.52 397.941 234.24C398.101 233.953 398.181 233.62 398.181 233.24ZM401.968 231.29C402.135 231.01 402.355 230.793 402.628 230.64C402.908 230.48 403.238 230.4 403.618 230.4V231.58H403.328C402.881 231.58 402.541 231.693 402.308 231.92C402.081 232.147 401.968 232.54 401.968 233.1V236H400.828V230.49H401.968V231.29ZM409.716 233.11C409.716 233.317 409.703 233.503 409.676 233.67H405.466C405.499 234.11 405.663 234.463 405.956 234.73C406.249 234.997 406.609 235.13 407.036 235.13C407.649 235.13 408.083 234.873 408.336 234.36H409.566C409.399 234.867 409.096 235.283 408.656 235.61C408.223 235.93 407.683 236.09 407.036 236.09C406.509 236.09 406.036 235.973 405.616 235.74C405.203 235.5 404.876 235.167 404.636 234.74C404.403 234.307 404.286 233.807 404.286 233.24C404.286 232.673 404.399 232.177 404.626 231.75C404.859 231.317 405.183 230.983 405.596 230.75C406.016 230.517 406.496 230.4 407.036 230.4C407.556 230.4 408.019 230.513 408.426 230.74C408.833 230.967 409.149 231.287 409.376 231.7C409.603 232.107 409.716 232.577 409.716 233.11ZM408.526 232.75C408.519 232.33 408.369 231.993 408.076 231.74C407.783 231.487 407.419 231.36 406.986 231.36C406.593 231.36 406.256 231.487 405.976 231.74C405.696 231.987 405.529 232.323 405.476 232.75H408.526ZM413.056 233.22C413.056 232.667 413.169 232.177 413.396 231.75C413.629 231.323 413.942 230.993 414.336 230.76C414.736 230.52 415.176 230.4 415.656 230.4C416.089 230.4 416.466 230.487 416.786 230.66C417.112 230.827 417.372 231.037 417.566 231.29V230.49H418.716V236H417.566V235.18C417.372 235.44 417.109 235.657 416.776 235.83C416.442 236.003 416.062 236.09 415.636 236.09C415.162 236.09 414.729 235.97 414.336 235.73C413.942 235.483 413.629 235.143 413.396 234.71C413.169 234.27 413.056 233.773 413.056 233.22ZM417.566 233.24C417.566 232.86 417.486 232.53 417.326 232.25C417.172 231.97 416.969 231.757 416.716 231.61C416.462 231.463 416.189 231.39 415.896 231.39C415.602 231.39 415.329 231.463 415.076 231.61C414.822 231.75 414.616 231.96 414.456 232.24C414.302 232.513 414.226 232.84 414.226 233.22C414.226 233.6 414.302 233.933 414.456 234.22C414.616 234.507 414.822 234.727 415.076 234.88C415.336 235.027 415.609 235.1 415.896 235.1C416.189 235.1 416.462 235.027 416.716 234.88C416.969 234.733 417.172 234.52 417.326 234.24C417.486 233.953 417.566 233.62 417.566 233.24ZM422.343 234.98L423.903 230.49H425.113L423.013 236H421.653L419.563 230.49H420.783L422.343 234.98ZM425.595 233.22C425.595 232.667 425.708 232.177 425.935 231.75C426.168 231.323 426.481 230.993 426.875 230.76C427.275 230.52 427.715 230.4 428.195 230.4C428.628 230.4 429.005 230.487 429.325 230.66C429.651 230.827 429.911 231.037 430.105 231.29V230.49H431.255V236H430.105V235.18C429.911 235.44 429.648 235.657 429.315 235.83C428.981 236.003 428.601 236.09 428.175 236.09C427.701 236.09 427.268 235.97 426.875 235.73C426.481 235.483 426.168 235.143 425.935 234.71C425.708 234.27 425.595 233.773 425.595 233.22ZM430.105 233.24C430.105 232.86 430.025 232.53 429.865 232.25C429.711 231.97 429.508 231.757 429.255 231.61C429.001 231.463 428.728 231.39 428.435 231.39C428.141 231.39 427.868 231.463 427.615 231.61C427.361 231.75 427.155 231.96 426.995 232.24C426.841 232.513 426.765 232.84 426.765 233.22C426.765 233.6 426.841 233.933 426.995 234.22C427.155 234.507 427.361 234.727 427.615 234.88C427.875 235.027 428.148 235.1 428.435 235.1C428.728 235.1 429.001 235.027 429.255 234.88C429.508 234.733 429.711 234.52 429.865 234.24C430.025 233.953 430.105 233.62 430.105 233.24ZM433.332 229.76C433.125 229.76 432.952 229.69 432.812 229.55C432.672 229.41 432.602 229.237 432.602 229.03C432.602 228.823 432.672 228.65 432.812 228.51C432.952 228.37 433.125 228.3 433.332 228.3C433.532 228.3 433.702 228.37 433.842 228.51C433.982 228.65 434.052 228.823 434.052 229.03C434.052 229.237 433.982 229.41 433.842 229.55C433.702 229.69 433.532 229.76 433.332 229.76ZM433.892 230.49V236H432.752V230.49H433.892ZM436.529 228.6V236H435.389V228.6H436.529ZM437.645 233.22C437.645 232.667 437.759 232.177 437.985 231.75C438.219 231.323 438.532 230.993 438.925 230.76C439.325 230.52 439.765 230.4 440.245 230.4C440.679 230.4 441.055 230.487 441.375 230.66C441.702 230.827 441.962 231.037 442.155 231.29V230.49H443.305V236H442.155V235.18C441.962 235.44 441.699 235.657 441.365 235.83C441.032 236.003 440.652 236.09 440.225 236.09C439.752 236.09 439.319 235.97 438.925 235.73C438.532 235.483 438.219 235.143 437.985 234.71C437.759 234.27 437.645 233.773 437.645 233.22ZM442.155 233.24C442.155 232.86 442.075 232.53 441.915 232.25C441.762 231.97 441.559 231.757 441.305 231.61C441.052 231.463 440.779 231.39 440.485 231.39C440.192 231.39 439.919 231.463 439.665 231.61C439.412 231.75 439.205 231.96 439.045 232.24C438.892 232.513 438.815 232.84 438.815 233.22C438.815 233.6 438.892 233.933 439.045 234.22C439.205 234.507 439.412 234.727 439.665 234.88C439.925 235.027 440.199 235.1 440.485 235.1C440.779 235.1 441.052 235.027 441.305 234.88C441.559 234.733 441.762 234.52 441.915 234.24C442.075 233.953 442.155 233.62 442.155 233.24ZM445.943 231.31C446.136 231.043 446.399 230.827 446.733 230.66C447.073 230.487 447.449 230.4 447.863 230.4C448.349 230.4 448.789 230.517 449.183 230.75C449.576 230.983 449.886 231.317 450.113 231.75C450.339 232.177 450.453 232.667 450.453 233.22C450.453 233.773 450.339 234.27 450.113 234.71C449.886 235.143 449.573 235.483 449.173 235.73C448.779 235.97 448.343 236.09 447.863 236.09C447.436 236.09 447.056 236.007 446.723 235.84C446.396 235.673 446.136 235.46 445.943 235.2V236H444.803V228.6H445.943V231.31ZM449.293 233.22C449.293 232.84 449.213 232.513 449.053 232.24C448.899 231.96 448.693 231.75 448.433 231.61C448.179 231.463 447.906 231.39 447.613 231.39C447.326 231.39 447.053 231.463 446.793 231.61C446.539 231.757 446.333 231.97 446.173 232.25C446.019 232.53 445.943 232.86 445.943 233.24C445.943 233.62 446.019 233.953 446.173 234.24C446.333 234.52 446.539 234.733 446.793 234.88C447.053 235.027 447.326 235.1 447.613 235.1C447.906 235.1 448.179 235.027 448.433 234.88C448.693 234.727 448.899 234.507 449.053 234.22C449.213 233.933 449.293 233.6 449.293 233.22ZM452.72 228.6V236H451.58V228.6H452.72ZM459.267 233.11C459.267 233.317 459.253 233.503 459.227 233.67H455.017C455.05 234.11 455.213 234.463 455.507 234.73C455.8 234.997 456.16 235.13 456.587 235.13C457.2 235.13 457.633 234.873 457.887 234.36H459.117C458.95 234.867 458.647 235.283 458.207 235.61C457.773 235.93 457.233 236.09 456.587 236.09C456.06 236.09 455.587 235.973 455.167 235.74C454.753 235.5 454.427 235.167 454.187 234.74C453.953 234.307 453.837 233.807 453.837 233.24C453.837 232.673 453.95 232.177 454.177 231.75C454.41 231.317 454.733 230.983 455.147 230.75C455.567 230.517 456.047 230.4 456.587 230.4C457.107 230.4 457.57 230.513 457.977 230.74C458.383 230.967 458.7 231.287 458.927 231.7C459.153 232.107 459.267 232.577 459.267 233.11ZM458.077 232.75C458.07 232.33 457.92 231.993 457.627 231.74C457.333 231.487 456.97 231.36 456.537 231.36C456.143 231.36 455.807 231.487 455.527 231.74C455.247 231.987 455.08 232.323 455.027 232.75H458.077ZM461.639 234.63L460.429 237.39H459.689L460.399 234.63H461.639ZM350.37 248.22C350.37 247.667 350.483 247.177 350.71 246.75C350.943 246.323 351.257 245.993 351.65 245.76C352.05 245.52 352.49 245.4 352.97 245.4C353.403 245.4 353.78 245.487 354.1 245.66C354.427 245.827 354.687 246.037 354.88 246.29V245.49H356.03V251H354.88V250.18C354.687 250.44 354.423 250.657 354.09 250.83C353.757 251.003 353.377 251.09 352.95 251.09C352.477 251.09 352.043 250.97 351.65 250.73C351.257 250.483 350.943 250.143 350.71 249.71C350.483 249.27 350.37 248.773 350.37 248.22ZM354.88 248.24C354.88 247.86 354.8 247.53 354.64 247.25C354.487 246.97 354.283 246.757 354.03 246.61C353.777 246.463 353.503 246.39 353.21 246.39C352.917 246.39 352.643 246.463 352.39 246.61C352.137 246.75 351.93 246.96 351.77 247.24C351.617 247.513 351.54 247.84 351.54 248.22C351.54 248.6 351.617 248.933 351.77 249.22C351.93 249.507 352.137 249.727 352.39 249.88C352.65 250.027 352.923 250.1 353.21 250.1C353.503 250.1 353.777 250.027 354.03 249.88C354.283 249.733 354.487 249.52 354.64 249.24C354.8 248.953 354.88 248.62 354.88 248.24ZM360.307 245.4C360.741 245.4 361.127 245.49 361.467 245.67C361.814 245.85 362.084 246.117 362.277 246.47C362.471 246.823 362.567 247.25 362.567 247.75V251H361.437V247.92C361.437 247.427 361.314 247.05 361.067 246.79C360.821 246.523 360.484 246.39 360.057 246.39C359.631 246.39 359.291 246.523 359.037 246.79C358.791 247.05 358.667 247.427 358.667 247.92V251H357.527V245.49H358.667V246.12C358.854 245.893 359.091 245.717 359.377 245.59C359.671 245.463 359.981 245.4 360.307 245.4ZM363.641 248.22C363.641 247.667 363.755 247.177 363.981 246.75C364.215 246.323 364.528 245.993 364.921 245.76C365.321 245.52 365.765 245.4 366.251 245.4C366.611 245.4 366.965 245.48 367.311 245.64C367.665 245.793 367.945 246 368.151 246.26V243.6H369.301V251H368.151V250.17C367.965 250.437 367.705 250.657 367.371 250.83C367.045 251.003 366.668 251.09 366.241 251.09C365.761 251.09 365.321 250.97 364.921 250.73C364.528 250.483 364.215 250.143 363.981 249.71C363.755 249.27 363.641 248.773 363.641 248.22ZM368.151 248.24C368.151 247.86 368.071 247.53 367.911 247.25C367.758 246.97 367.555 246.757 367.301 246.61C367.048 246.463 366.775 246.39 366.481 246.39C366.188 246.39 365.915 246.463 365.661 246.61C365.408 246.75 365.201 246.96 365.041 247.24C364.888 247.513 364.811 247.84 364.811 248.22C364.811 248.6 364.888 248.933 365.041 249.22C365.201 249.507 365.408 249.727 365.661 249.88C365.921 250.027 366.195 250.1 366.481 250.1C366.775 250.1 367.048 250.027 367.301 249.88C367.555 249.733 367.758 249.52 367.911 249.24C368.071 248.953 368.151 248.62 368.151 248.24ZM378.356 245.49L374.976 253.59H373.796L374.916 250.91L372.746 245.49H374.016L375.566 249.69L377.176 245.49H378.356ZM381.607 251.09C381.087 251.09 380.617 250.973 380.197 250.74C379.777 250.5 379.447 250.167 379.207 249.74C378.967 249.307 378.847 248.807 378.847 248.24C378.847 247.68 378.97 247.183 379.217 246.75C379.463 246.317 379.8 245.983 380.227 245.75C380.653 245.517 381.13 245.4 381.657 245.4C382.183 245.4 382.66 245.517 383.087 245.75C383.513 245.983 383.85 246.317 384.097 246.75C384.343 247.183 384.467 247.68 384.467 248.24C384.467 248.8 384.34 249.297 384.087 249.73C383.833 250.163 383.487 250.5 383.047 250.74C382.613 250.973 382.133 251.09 381.607 251.09ZM381.607 250.1C381.9 250.1 382.173 250.03 382.427 249.89C382.687 249.75 382.897 249.54 383.057 249.26C383.217 248.98 383.297 248.64 383.297 248.24C383.297 247.84 383.22 247.503 383.067 247.23C382.913 246.95 382.71 246.74 382.457 246.6C382.203 246.46 381.93 246.39 381.637 246.39C381.343 246.39 381.07 246.46 380.817 246.6C380.57 246.74 380.373 246.95 380.227 247.23C380.08 247.503 380.007 247.84 380.007 248.24C380.007 248.833 380.157 249.293 380.457 249.62C380.763 249.94 381.147 250.1 381.607 250.1ZM390.584 245.49V251H389.444V250.35C389.264 250.577 389.027 250.757 388.734 250.89C388.447 251.017 388.14 251.08 387.814 251.08C387.38 251.08 386.99 250.99 386.644 250.81C386.304 250.63 386.034 250.363 385.834 250.01C385.64 249.657 385.544 249.23 385.544 248.73V245.49H386.674V248.56C386.674 249.053 386.797 249.433 387.044 249.7C387.29 249.96 387.627 250.09 388.054 250.09C388.48 250.09 388.817 249.96 389.064 249.7C389.317 249.433 389.444 249.053 389.444 248.56V245.49H390.584ZM394.306 248.24C394.306 247.673 394.419 247.177 394.646 246.75C394.879 246.317 395.199 245.983 395.606 245.75C396.012 245.517 396.479 245.4 397.006 245.4C397.672 245.4 398.222 245.56 398.656 245.88C399.096 246.193 399.392 246.643 399.546 247.23H398.316C398.216 246.957 398.056 246.743 397.836 246.59C397.616 246.437 397.339 246.36 397.006 246.36C396.539 246.36 396.166 246.527 395.886 246.86C395.612 247.187 395.476 247.647 395.476 248.24C395.476 248.833 395.612 249.297 395.886 249.63C396.166 249.963 396.539 250.13 397.006 250.13C397.666 250.13 398.102 249.84 398.316 249.26H399.546C399.386 249.82 399.086 250.267 398.646 250.6C398.206 250.927 397.659 251.09 397.006 251.09C396.479 251.09 396.012 250.973 395.606 250.74C395.199 250.5 394.879 250.167 394.646 249.74C394.419 249.307 394.306 248.807 394.306 248.24ZM400.302 248.22C400.302 247.667 400.415 247.177 400.642 246.75C400.875 246.323 401.188 245.993 401.582 245.76C401.982 245.52 402.422 245.4 402.902 245.4C403.335 245.4 403.712 245.487 404.032 245.66C404.358 245.827 404.618 246.037 404.812 246.29V245.49H405.962V251H404.812V250.18C404.618 250.44 404.355 250.657 404.022 250.83C403.688 251.003 403.308 251.09 402.882 251.09C402.408 251.09 401.975 250.97 401.582 250.73C401.188 250.483 400.875 250.143 400.642 249.71C400.415 249.27 400.302 248.773 400.302 248.22ZM404.812 248.24C404.812 247.86 404.732 247.53 404.572 247.25C404.418 246.97 404.215 246.757 403.962 246.61C403.708 246.463 403.435 246.39 403.142 246.39C402.848 246.39 402.575 246.463 402.322 246.61C402.068 246.75 401.862 246.96 401.702 247.24C401.548 247.513 401.472 247.84 401.472 248.22C401.472 248.6 401.548 248.933 401.702 249.22C401.862 249.507 402.068 249.727 402.322 249.88C402.582 250.027 402.855 250.1 403.142 250.1C403.435 250.1 403.708 250.027 403.962 249.88C404.215 249.733 404.418 249.52 404.572 249.24C404.732 248.953 404.812 248.62 404.812 248.24ZM410.239 245.4C410.672 245.4 411.059 245.49 411.399 245.67C411.746 245.85 412.016 246.117 412.209 246.47C412.402 246.823 412.499 247.25 412.499 247.75V251H411.369V247.92C411.369 247.427 411.246 247.05 410.999 246.79C410.752 246.523 410.416 246.39 409.989 246.39C409.562 246.39 409.222 246.523 408.969 246.79C408.722 247.05 408.599 247.427 408.599 247.92V251H407.459V245.49H408.599V246.12C408.786 245.893 409.022 245.717 409.309 245.59C409.602 245.463 409.912 245.4 410.239 245.4ZM417.691 243.6V251H416.551V243.6H417.691ZM419.768 244.76C419.561 244.76 419.388 244.69 419.248 244.55C419.108 244.41 419.038 244.237 419.038 244.03C419.038 243.823 419.108 243.65 419.248 243.51C419.388 243.37 419.561 243.3 419.768 243.3C419.968 243.3 420.138 243.37 420.278 243.51C420.418 243.65 420.488 243.823 420.488 244.03C420.488 244.237 420.418 244.41 420.278 244.55C420.138 244.69 419.968 244.76 419.768 244.76ZM420.328 245.49V251H419.188V245.49H420.328ZM423.824 251.09C423.391 251.09 423.001 251.013 422.654 250.86C422.314 250.7 422.044 250.487 421.844 250.22C421.644 249.947 421.538 249.643 421.524 249.31H422.704C422.724 249.543 422.834 249.74 423.034 249.9C423.241 250.053 423.498 250.13 423.804 250.13C424.124 250.13 424.371 250.07 424.544 249.95C424.724 249.823 424.814 249.663 424.814 249.47C424.814 249.263 424.714 249.11 424.514 249.01C424.321 248.91 424.011 248.8 423.584 248.68C423.171 248.567 422.834 248.457 422.574 248.35C422.314 248.243 422.088 248.08 421.894 247.86C421.708 247.64 421.614 247.35 421.614 246.99C421.614 246.697 421.701 246.43 421.874 246.19C422.048 245.943 422.294 245.75 422.614 245.61C422.941 245.47 423.314 245.4 423.734 245.4C424.361 245.4 424.864 245.56 425.244 245.88C425.631 246.193 425.838 246.623 425.864 247.17H424.724C424.704 246.923 424.604 246.727 424.424 246.58C424.244 246.433 424.001 246.36 423.694 246.36C423.394 246.36 423.164 246.417 423.004 246.53C422.844 246.643 422.764 246.793 422.764 246.98C422.764 247.127 422.818 247.25 422.924 247.35C423.031 247.45 423.161 247.53 423.314 247.59C423.468 247.643 423.694 247.713 423.994 247.8C424.394 247.907 424.721 248.017 424.974 248.13C425.234 248.237 425.458 248.397 425.644 248.61C425.831 248.823 425.928 249.107 425.934 249.46C425.934 249.773 425.848 250.053 425.674 250.3C425.501 250.547 425.254 250.74 424.934 250.88C424.621 251.02 424.251 251.09 423.824 251.09ZM428.496 246.42V249.47C428.496 249.677 428.543 249.827 428.636 249.92C428.736 250.007 428.903 250.05 429.136 250.05H429.836V251H428.936C428.423 251 428.029 250.88 427.756 250.64C427.483 250.4 427.346 250.01 427.346 249.47V246.42H426.696V245.49H427.346V244.12H428.496V245.49H429.836V246.42H428.496ZM435.937 248.11C435.937 248.317 435.923 248.503 435.897 248.67H431.687C431.72 249.11 431.883 249.463 432.177 249.73C432.47 249.997 432.83 250.13 433.257 250.13C433.87 250.13 434.303 249.873 434.557 249.36H435.787C435.62 249.867 435.317 250.283 434.877 250.61C434.443 250.93 433.903 251.09 433.257 251.09C432.73 251.09 432.257 250.973 431.837 250.74C431.423 250.5 431.097 250.167 430.857 249.74C430.623 249.307 430.507 248.807 430.507 248.24C430.507 247.673 430.62 247.177 430.847 246.75C431.08 246.317 431.403 245.983 431.817 245.75C432.237 245.517 432.717 245.4 433.257 245.4C433.777 245.4 434.24 245.513 434.647 245.74C435.053 245.967 435.37 246.287 435.597 246.7C435.823 247.107 435.937 247.577 435.937 248.11ZM434.747 247.75C434.74 247.33 434.59 246.993 434.297 246.74C434.003 246.487 433.64 246.36 433.207 246.36C432.813 246.36 432.477 246.487 432.197 246.74C431.917 246.987 431.75 247.323 431.697 247.75H434.747ZM439.839 245.4C440.272 245.4 440.659 245.49 440.999 245.67C441.345 245.85 441.615 246.117 441.809 246.47C442.002 246.823 442.099 247.25 442.099 247.75V251H440.969V247.92C440.969 247.427 440.845 247.05 440.599 246.79C440.352 246.523 440.015 246.39 439.589 246.39C439.162 246.39 438.822 246.523 438.569 246.79C438.322 247.05 438.199 247.427 438.199 247.92V251H437.059V245.49H438.199V246.12C438.385 245.893 438.622 245.717 438.909 245.59C439.202 245.463 439.512 245.4 439.839 245.4ZM447.48 246.42V249.47C447.48 249.677 447.527 249.827 447.62 249.92C447.72 250.007 447.887 250.05 448.12 250.05H448.82V251H447.92C447.407 251 447.014 250.88 446.74 250.64C446.467 250.4 446.33 250.01 446.33 249.47V246.42H445.68V245.49H446.33V244.12H447.48V245.49H448.82V246.42H447.48ZM452.261 251.09C451.741 251.09 451.271 250.973 450.851 250.74C450.431 250.5 450.101 250.167 449.861 249.74C449.621 249.307 449.501 248.807 449.501 248.24C449.501 247.68 449.624 247.183 449.871 246.75C450.118 246.317 450.454 245.983 450.881 245.75C451.308 245.517 451.784 245.4 452.311 245.4C452.838 245.4 453.314 245.517 453.741 245.75C454.168 245.983 454.504 246.317 454.751 246.75C454.998 247.183 455.121 247.68 455.121 248.24C455.121 248.8 454.994 249.297 454.741 249.73C454.488 250.163 454.141 250.5 453.701 250.74C453.268 250.973 452.788 251.09 452.261 251.09ZM452.261 250.1C452.554 250.1 452.828 250.03 453.081 249.89C453.341 249.75 453.551 249.54 453.711 249.26C453.871 248.98 453.951 248.64 453.951 248.24C453.951 247.84 453.874 247.503 453.721 247.23C453.568 246.95 453.364 246.74 453.111 246.6C452.858 246.46 452.584 246.39 452.291 246.39C451.998 246.39 451.724 246.46 451.471 246.6C451.224 246.74 451.028 246.95 450.881 247.23C450.734 247.503 450.661 247.84 450.661 248.24C450.661 248.833 450.811 249.293 451.111 249.62C451.418 249.94 451.801 250.1 452.261 250.1ZM352.08 261.42V264.47C352.08 264.677 352.127 264.827 352.22 264.92C352.32 265.007 352.487 265.05 352.72 265.05H353.42V266H352.52C352.007 266 351.613 265.88 351.34 265.64C351.067 265.4 350.93 265.01 350.93 264.47V261.42H350.28V260.49H350.93V259.12H352.08V260.49H353.42V261.42H352.08ZM357.321 260.4C357.741 260.4 358.114 260.49 358.441 260.67C358.774 260.85 359.034 261.117 359.221 261.47C359.414 261.823 359.511 262.25 359.511 262.75V266H358.381V262.92C358.381 262.427 358.257 262.05 358.011 261.79C357.764 261.523 357.427 261.39 357.001 261.39C356.574 261.39 356.234 261.523 355.981 261.79C355.734 262.05 355.611 262.427 355.611 262.92V266H354.471V258.6H355.611V261.13C355.804 260.897 356.047 260.717 356.341 260.59C356.641 260.463 356.967 260.4 357.321 260.4ZM366.015 263.11C366.015 263.317 366.002 263.503 365.975 263.67H361.765C361.798 264.11 361.962 264.463 362.255 264.73C362.548 264.997 362.908 265.13 363.335 265.13C363.948 265.13 364.382 264.873 364.635 264.36H365.865C365.698 264.867 365.395 265.283 364.955 265.61C364.522 265.93 363.982 266.09 363.335 266.09C362.808 266.09 362.335 265.973 361.915 265.74C361.502 265.5 361.175 265.167 360.935 264.74C360.702 264.307 360.585 263.807 360.585 263.24C360.585 262.673 360.698 262.177 360.925 261.75C361.158 261.317 361.482 260.983 361.895 260.75C362.315 260.517 362.795 260.4 363.335 260.4C363.855 260.4 364.318 260.513 364.725 260.74C365.132 260.967 365.448 261.287 365.675 261.7C365.902 262.107 366.015 262.577 366.015 263.11ZM364.825 262.75C364.818 262.33 364.668 261.993 364.375 261.74C364.082 261.487 363.718 261.36 363.285 261.36C362.892 261.36 362.555 261.487 362.275 261.74C361.995 261.987 361.828 262.323 361.775 262.75H364.825ZM373.807 260.4C374.24 260.4 374.627 260.49 374.967 260.67C375.313 260.85 375.583 261.117 375.777 261.47C375.977 261.823 376.077 262.25 376.077 262.75V266H374.947V262.92C374.947 262.427 374.823 262.05 374.577 261.79C374.33 261.523 373.993 261.39 373.567 261.39C373.14 261.39 372.8 261.523 372.547 261.79C372.3 262.05 372.177 262.427 372.177 262.92V266H371.047V262.92C371.047 262.427 370.923 262.05 370.677 261.79C370.43 261.523 370.093 261.39 369.667 261.39C369.24 261.39 368.9 261.523 368.647 261.79C368.4 262.05 368.277 262.427 368.277 262.92V266H367.137V260.49H368.277V261.12C368.463 260.893 368.7 260.717 368.987 260.59C369.273 260.463 369.58 260.4 369.907 260.4C370.347 260.4 370.74 260.493 371.087 260.68C371.433 260.867 371.7 261.137 371.887 261.49C372.053 261.157 372.313 260.893 372.667 260.7C373.02 260.5 373.4 260.4 373.807 260.4ZM380.705 259.76C380.498 259.76 380.325 259.69 380.185 259.55C380.045 259.41 379.975 259.237 379.975 259.03C379.975 258.823 380.045 258.65 380.185 258.51C380.325 258.37 380.498 258.3 380.705 258.3C380.905 258.3 381.075 258.37 381.215 258.51C381.355 258.65 381.425 258.823 381.425 259.03C381.425 259.237 381.355 259.41 381.215 259.55C381.075 259.69 380.905 259.76 380.705 259.76ZM381.265 260.49V266H380.125V260.49H381.265ZM385.542 260.4C385.975 260.4 386.362 260.49 386.702 260.67C387.048 260.85 387.318 261.117 387.512 261.47C387.705 261.823 387.802 262.25 387.802 262.75V266H386.672V262.92C386.672 262.427 386.548 262.05 386.302 261.79C386.055 261.523 385.718 261.39 385.292 261.39C384.865 261.39 384.525 261.523 384.272 261.79C384.025 262.05 383.902 262.427 383.902 262.92V266H382.762V260.49H383.902V261.12C384.088 260.893 384.325 260.717 384.612 260.59C384.905 260.463 385.215 260.4 385.542 260.4ZM393.184 261.42V264.47C393.184 264.677 393.23 264.827 393.324 264.92C393.424 265.007 393.59 265.05 393.824 265.05H394.524V266H393.624C393.11 266 392.717 265.88 392.444 265.64C392.17 265.4 392.034 265.01 392.034 264.47V261.42H391.384V260.49H392.034V259.12H393.184V260.49H394.524V261.42H393.184ZM398.424 260.4C398.844 260.4 399.218 260.49 399.544 260.67C399.878 260.85 400.138 261.117 400.324 261.47C400.518 261.823 400.614 262.25 400.614 262.75V266H399.484V262.92C399.484 262.427 399.361 262.05 399.114 261.79C398.868 261.523 398.531 261.39 398.104 261.39C397.678 261.39 397.338 261.523 397.084 261.79C396.838 262.05 396.714 262.427 396.714 262.92V266H395.574V258.6H396.714V261.13C396.908 260.897 397.151 260.717 397.444 260.59C397.744 260.463 398.071 260.4 398.424 260.4ZM407.118 263.11C407.118 263.317 407.105 263.503 407.078 263.67H402.868C402.902 264.11 403.065 264.463 403.358 264.73C403.652 264.997 404.012 265.13 404.438 265.13C405.052 265.13 405.485 264.873 405.738 264.36H406.968C406.802 264.867 406.498 265.283 406.058 265.61C405.625 265.93 405.085 266.09 404.438 266.09C403.912 266.09 403.438 265.973 403.018 265.74C402.605 265.5 402.278 265.167 402.038 264.74C401.805 264.307 401.688 263.807 401.688 263.24C401.688 262.673 401.802 262.177 402.028 261.75C402.262 261.317 402.585 260.983 402.998 260.75C403.418 260.517 403.898 260.4 404.438 260.4C404.958 260.4 405.422 260.513 405.828 260.74C406.235 260.967 406.552 261.287 406.778 261.7C407.005 262.107 407.118 262.577 407.118 263.11ZM405.928 262.75C405.922 262.33 405.772 261.993 405.478 261.74C405.185 261.487 404.822 261.36 404.388 261.36C403.995 261.36 403.658 261.487 403.378 261.74C403.098 261.987 402.932 262.323 402.878 262.75H405.928ZM351.89 276.31C352.083 276.043 352.347 275.827 352.68 275.66C353.02 275.487 353.397 275.4 353.81 275.4C354.297 275.4 354.737 275.517 355.13 275.75C355.523 275.983 355.833 276.317 356.06 276.75C356.287 277.177 356.4 277.667 356.4 278.22C356.4 278.773 356.287 279.27 356.06 279.71C355.833 280.143 355.52 280.483 355.12 280.73C354.727 280.97 354.29 281.09 353.81 281.09C353.383 281.09 353.003 281.007 352.67 280.84C352.343 280.673 352.083 280.46 351.89 280.2V281H350.75V273.6H351.89V276.31ZM355.24 278.22C355.24 277.84 355.16 277.513 355 277.24C354.847 276.96 354.64 276.75 354.38 276.61C354.127 276.463 353.853 276.39 353.56 276.39C353.273 276.39 353 276.463 352.74 276.61C352.487 276.757 352.28 276.97 352.12 277.25C351.967 277.53 351.89 277.86 351.89 278.24C351.89 278.62 351.967 278.953 352.12 279.24C352.28 279.52 352.487 279.733 352.74 279.88C353 280.027 353.273 280.1 353.56 280.1C353.853 280.1 354.127 280.027 354.38 279.88C354.64 279.727 354.847 279.507 355 279.22C355.16 278.933 355.24 278.6 355.24 278.22ZM357.147 278.22C357.147 277.667 357.261 277.177 357.487 276.75C357.721 276.323 358.034 275.993 358.427 275.76C358.827 275.52 359.267 275.4 359.747 275.4C360.181 275.4 360.557 275.487 360.877 275.66C361.204 275.827 361.464 276.037 361.657 276.29V275.49H362.807V281H361.657V280.18C361.464 280.44 361.201 280.657 360.867 280.83C360.534 281.003 360.154 281.09 359.727 281.09C359.254 281.09 358.821 280.97 358.427 280.73C358.034 280.483 357.721 280.143 357.487 279.71C357.261 279.27 357.147 278.773 357.147 278.22ZM361.657 278.24C361.657 277.86 361.577 277.53 361.417 277.25C361.264 276.97 361.061 276.757 360.807 276.61C360.554 276.463 360.281 276.39 359.987 276.39C359.694 276.39 359.421 276.463 359.167 276.61C358.914 276.75 358.707 276.96 358.547 277.24C358.394 277.513 358.317 277.84 358.317 278.22C358.317 278.6 358.394 278.933 358.547 279.22C358.707 279.507 358.914 279.727 359.167 279.88C359.427 280.027 359.701 280.1 359.987 280.1C360.281 280.1 360.554 280.027 360.807 279.88C361.061 279.733 361.264 279.52 361.417 279.24C361.577 278.953 361.657 278.62 361.657 278.24ZM363.925 278.24C363.925 277.673 364.038 277.177 364.265 276.75C364.498 276.317 364.818 275.983 365.225 275.75C365.631 275.517 366.098 275.4 366.625 275.4C367.291 275.4 367.841 275.56 368.275 275.88C368.715 276.193 369.011 276.643 369.165 277.23H367.935C367.835 276.957 367.675 276.743 367.455 276.59C367.235 276.437 366.958 276.36 366.625 276.36C366.158 276.36 365.785 276.527 365.505 276.86C365.231 277.187 365.095 277.647 365.095 278.24C365.095 278.833 365.231 279.297 365.505 279.63C365.785 279.963 366.158 280.13 366.625 280.13C367.285 280.13 367.721 279.84 367.935 279.26H369.165C369.005 279.82 368.705 280.267 368.265 280.6C367.825 280.927 367.278 281.09 366.625 281.09C366.098 281.09 365.631 280.973 365.225 280.74C364.818 280.5 364.498 280.167 364.265 279.74C364.038 279.307 363.925 278.807 363.925 278.24ZM372.481 278.25L375.021 281H373.481L371.441 278.63V281H370.301V273.6H371.441V277.9L373.441 275.49H375.021L372.481 278.25ZM378.058 275.4C378.485 275.4 378.861 275.487 379.188 275.66C379.521 275.827 379.781 276.037 379.968 276.29V275.49H381.118V281.09C381.118 281.597 381.011 282.047 380.798 282.44C380.585 282.84 380.275 283.153 379.868 283.38C379.468 283.607 378.988 283.72 378.428 283.72C377.681 283.72 377.061 283.543 376.568 283.19C376.075 282.843 375.795 282.37 375.728 281.77H376.858C376.945 282.057 377.128 282.287 377.408 282.46C377.695 282.64 378.035 282.73 378.428 282.73C378.888 282.73 379.258 282.59 379.538 282.31C379.825 282.03 379.968 281.623 379.968 281.09V280.17C379.775 280.43 379.511 280.65 379.178 280.83C378.851 281.003 378.478 281.09 378.058 281.09C377.578 281.09 377.138 280.97 376.738 280.73C376.345 280.483 376.031 280.143 375.798 279.71C375.571 279.27 375.458 278.773 375.458 278.22C375.458 277.667 375.571 277.177 375.798 276.75C376.031 276.323 376.345 275.993 376.738 275.76C377.138 275.52 377.578 275.4 378.058 275.4ZM379.968 278.24C379.968 277.86 379.888 277.53 379.728 277.25C379.575 276.97 379.371 276.757 379.118 276.61C378.865 276.463 378.591 276.39 378.298 276.39C378.005 276.39 377.731 276.463 377.478 276.61C377.225 276.75 377.018 276.96 376.858 277.24C376.705 277.513 376.628 277.84 376.628 278.22C376.628 278.6 376.705 278.933 376.858 279.22C377.018 279.507 377.225 279.727 377.478 279.88C377.738 280.027 378.011 280.1 378.298 280.1C378.591 280.1 378.865 280.027 379.118 279.88C379.371 279.733 379.575 279.52 379.728 279.24C379.888 278.953 379.968 278.62 379.968 278.24ZM383.755 276.29C383.922 276.01 384.142 275.793 384.415 275.64C384.695 275.48 385.025 275.4 385.405 275.4V276.58H385.115C384.669 276.58 384.329 276.693 384.095 276.92C383.869 277.147 383.755 277.54 383.755 278.1V281H382.615V275.49H383.755V276.29ZM388.843 281.09C388.323 281.09 387.853 280.973 387.433 280.74C387.013 280.5 386.683 280.167 386.443 279.74C386.203 279.307 386.083 278.807 386.083 278.24C386.083 277.68 386.206 277.183 386.453 276.75C386.7 276.317 387.036 275.983 387.463 275.75C387.89 275.517 388.366 275.4 388.893 275.4C389.42 275.4 389.896 275.517 390.323 275.75C390.75 275.983 391.086 276.317 391.333 276.75C391.58 277.183 391.703 277.68 391.703 278.24C391.703 278.8 391.576 279.297 391.323 279.73C391.07 280.163 390.723 280.5 390.283 280.74C389.85 280.973 389.37 281.09 388.843 281.09ZM388.843 280.1C389.136 280.1 389.41 280.03 389.663 279.89C389.923 279.75 390.133 279.54 390.293 279.26C390.453 278.98 390.533 278.64 390.533 278.24C390.533 277.84 390.456 277.503 390.303 277.23C390.15 276.95 389.946 276.74 389.693 276.6C389.44 276.46 389.166 276.39 388.873 276.39C388.58 276.39 388.306 276.46 388.053 276.6C387.806 276.74 387.61 276.95 387.463 277.23C387.316 277.503 387.243 277.84 387.243 278.24C387.243 278.833 387.393 279.293 387.693 279.62C388 279.94 388.383 280.1 388.843 280.1ZM397.82 275.49V281H396.68V280.35C396.5 280.577 396.263 280.757 395.97 280.89C395.683 281.017 395.377 281.08 395.05 281.08C394.617 281.08 394.227 280.99 393.88 280.81C393.54 280.63 393.27 280.363 393.07 280.01C392.877 279.657 392.78 279.23 392.78 278.73V275.49H393.91V278.56C393.91 279.053 394.033 279.433 394.28 279.7C394.527 279.96 394.863 280.09 395.29 280.09C395.717 280.09 396.053 279.96 396.3 279.7C396.553 279.433 396.68 279.053 396.68 278.56V275.49H397.82ZM402.104 275.4C402.538 275.4 402.924 275.49 403.264 275.67C403.611 275.85 403.881 276.117 404.074 276.47C404.268 276.823 404.364 277.25 404.364 277.75V281H403.234V277.92C403.234 277.427 403.111 277.05 402.864 276.79C402.618 276.523 402.281 276.39 401.854 276.39C401.428 276.39 401.088 276.523 400.834 276.79C400.588 277.05 400.464 277.427 400.464 277.92V281H399.324V275.49H400.464V276.12C400.651 275.893 400.888 275.717 401.174 275.59C401.468 275.463 401.778 275.4 402.104 275.4ZM405.438 278.22C405.438 277.667 405.552 277.177 405.778 276.75C406.012 276.323 406.325 275.993 406.718 275.76C407.118 275.52 407.562 275.4 408.048 275.4C408.408 275.4 408.762 275.48 409.108 275.64C409.462 275.793 409.742 276 409.948 276.26V273.6H411.098V281H409.948V280.17C409.762 280.437 409.502 280.657 409.168 280.83C408.842 281.003 408.465 281.09 408.038 281.09C407.558 281.09 407.118 280.97 406.718 280.73C406.325 280.483 406.012 280.143 405.778 279.71C405.552 279.27 405.438 278.773 405.438 278.22ZM409.948 278.24C409.948 277.86 409.868 277.53 409.708 277.25C409.555 276.97 409.352 276.757 409.098 276.61C408.845 276.463 408.572 276.39 408.278 276.39C407.985 276.39 407.712 276.463 407.458 276.61C407.205 276.75 406.998 276.96 406.838 277.24C406.685 277.513 406.608 277.84 406.608 278.22C406.608 278.6 406.685 278.933 406.838 279.22C406.998 279.507 407.205 279.727 407.458 279.88C407.718 280.027 407.992 280.1 408.278 280.1C408.572 280.1 408.845 280.027 409.098 279.88C409.352 279.733 409.555 279.52 409.708 279.24C409.868 278.953 409.948 278.62 409.948 278.24ZM414.026 274.05L413.896 278.9H412.946L412.816 274.05H414.026ZM413.456 281.07C413.249 281.07 413.076 281 412.936 280.86C412.796 280.72 412.726 280.547 412.726 280.34C412.726 280.133 412.796 279.96 412.936 279.82C413.076 279.68 413.249 279.61 413.456 279.61C413.656 279.61 413.826 279.68 413.966 279.82C414.106 279.96 414.176 280.133 414.176 280.34C414.176 280.547 414.106 280.72 413.966 280.86C413.826 281 413.656 281.07 413.456 281.07Z" fill="black"/>
</svg>
