<svg width="480" height="360" viewBox="0 0 480 360" fill="none" xmlns="http://www.w3.org/2000/svg">
<path d="M177.904 28.728H173.248L172.448 31H170.544L174.528 19.864H176.64L180.624 31H178.704L177.904 28.728ZM177.392 27.24L175.584 22.072L173.76 27.24H177.392ZM184.18 23.48C184.49 23.0747 184.911 22.7333 185.444 22.456C185.978 22.1787 186.58 22.04 187.252 22.04C188.02 22.04 188.719 22.232 189.348 22.616C189.988 22.9893 190.49 23.5173 190.852 24.2C191.215 24.8827 191.396 25.6667 191.396 26.552C191.396 27.4373 191.215 28.232 190.852 28.936C190.49 29.6293 189.988 30.1733 189.348 30.568C188.719 30.952 188.02 31.144 187.252 31.144C186.58 31.144 185.983 31.0107 185.46 30.744C184.938 30.4667 184.511 30.1253 184.18 29.72V35.192H182.356V22.184H184.18V23.48ZM189.54 26.552C189.54 25.944 189.412 25.4213 189.156 24.984C188.911 24.536 188.58 24.2 188.164 23.976C187.759 23.7413 187.322 23.624 186.852 23.624C186.394 23.624 185.956 23.7413 185.54 23.976C185.135 24.2107 184.804 24.552 184.548 25C184.303 25.448 184.18 25.976 184.18 26.584C184.18 27.192 184.303 27.7253 184.548 28.184C184.804 28.632 185.135 28.9733 185.54 29.208C185.956 29.4427 186.394 29.56 186.852 29.56C187.322 29.56 187.759 29.4427 188.164 29.208C188.58 28.9627 188.911 28.6107 189.156 28.152C189.412 27.6933 189.54 27.16 189.54 26.552ZM195.024 23.48C195.333 23.0747 195.755 22.7333 196.288 22.456C196.821 22.1787 197.424 22.04 198.096 22.04C198.864 22.04 199.563 22.232 200.192 22.616C200.832 22.9893 201.333 23.5173 201.696 24.2C202.059 24.8827 202.24 25.6667 202.24 26.552C202.24 27.4373 202.059 28.232 201.696 28.936C201.333 29.6293 200.832 30.1733 200.192 30.568C199.563 30.952 198.864 31.144 198.096 31.144C197.424 31.144 196.827 31.0107 196.304 30.744C195.781 30.4667 195.355 30.1253 195.024 29.72V35.192H193.2V22.184H195.024V23.48ZM200.384 26.552C200.384 25.944 200.256 25.4213 200 24.984C199.755 24.536 199.424 24.2 199.008 23.976C198.603 23.7413 198.165 23.624 197.696 23.624C197.237 23.624 196.8 23.7413 196.384 23.976C195.979 24.2107 195.648 24.552 195.392 25C195.147 25.448 195.024 25.976 195.024 26.584C195.024 27.192 195.147 27.7253 195.392 28.184C195.648 28.632 195.979 28.9733 196.384 29.208C196.8 29.4427 197.237 29.56 197.696 29.56C198.165 29.56 198.603 29.4427 199.008 29.208C199.424 28.9627 199.755 28.6107 200 28.152C200.256 27.6933 200.384 27.16 200.384 26.552ZM207.244 31.144C206.55 31.144 205.926 31.0213 205.372 30.776C204.828 30.52 204.396 30.1787 204.076 29.752C203.756 29.3147 203.585 28.8293 203.564 28.296H205.452C205.484 28.6693 205.66 28.984 205.98 29.24C206.31 29.4853 206.721 29.608 207.212 29.608C207.724 29.608 208.118 29.512 208.396 29.32C208.684 29.1173 208.828 28.8613 208.828 28.552C208.828 28.2213 208.668 27.976 208.348 27.816C208.038 27.656 207.542 27.48 206.86 27.288C206.198 27.1067 205.66 26.9307 205.244 26.76C204.828 26.5893 204.465 26.328 204.156 25.976C203.857 25.624 203.708 25.16 203.708 24.584C203.708 24.1147 203.846 23.688 204.124 23.304C204.401 22.9093 204.796 22.6 205.308 22.376C205.83 22.152 206.428 22.04 207.1 22.04C208.102 22.04 208.908 22.296 209.516 22.808C210.134 23.3093 210.465 23.9973 210.508 24.872H208.684C208.652 24.4773 208.492 24.1627 208.204 23.928C207.916 23.6933 207.526 23.576 207.036 23.576C206.556 23.576 206.188 23.6667 205.932 23.848C205.676 24.0293 205.548 24.2693 205.548 24.568C205.548 24.8027 205.633 25 205.804 25.16C205.974 25.32 206.182 25.448 206.428 25.544C206.673 25.6293 207.036 25.7413 207.516 25.88C208.156 26.0507 208.678 26.2267 209.084 26.408C209.5 26.5787 209.857 26.8347 210.156 27.176C210.454 27.5173 210.609 27.9707 210.62 28.536C210.62 29.0373 210.481 29.4853 210.204 29.88C209.926 30.2747 209.532 30.584 209.02 30.808C208.518 31.032 207.926 31.144 207.244 31.144ZM225.339 31L223.963 29.624C223.43 30.1573 222.848 30.5573 222.219 30.824C221.59 31.08 220.886 31.208 220.107 31.208C219.318 31.208 218.619 31.0693 218.011 30.792C217.403 30.5147 216.934 30.12 216.603 29.608C216.272 29.0853 216.107 28.4827 216.107 27.8C216.107 27.032 216.326 26.3493 216.763 25.752C217.2 25.144 217.851 24.664 218.715 24.312C218.406 23.9387 218.187 23.592 218.059 23.272C217.931 22.9413 217.867 22.5787 217.867 22.184C217.867 21.6933 217.99 21.256 218.235 20.872C218.491 20.488 218.854 20.184 219.323 19.96C219.792 19.736 220.336 19.624 220.955 19.624C221.584 19.624 222.118 19.7467 222.555 19.992C223.003 20.2267 223.334 20.552 223.547 20.968C223.771 21.384 223.862 21.848 223.819 22.36H221.995C222.006 21.9653 221.91 21.6613 221.707 21.448C221.504 21.224 221.227 21.112 220.875 21.112C220.523 21.112 220.235 21.2187 220.011 21.432C219.798 21.6347 219.691 21.8853 219.691 22.184C219.691 22.472 219.771 22.76 219.931 23.048C220.102 23.3253 220.395 23.688 220.811 24.136L223.755 27.064L224.891 25.192H226.859L225.419 27.656L225.019 28.312L227.723 31H225.339ZM220.107 29.656C221.11 29.656 221.995 29.2453 222.763 28.424L219.819 25.464C218.56 25.9653 217.931 26.7227 217.931 27.736C217.931 28.28 218.134 28.7387 218.539 29.112C218.944 29.4747 219.467 29.656 220.107 29.656ZM236.627 22.04C237.31 22.04 237.912 22.1787 238.435 22.456C238.968 22.7227 239.384 23.0587 239.683 23.464V22.184H241.523V31.144C241.523 31.9547 241.352 32.6747 241.011 33.304C240.67 33.944 240.174 34.4453 239.523 34.808C238.883 35.1707 238.115 35.352 237.219 35.352C236.024 35.352 235.032 35.0693 234.243 34.504C233.454 33.9493 233.006 33.192 232.899 32.232H234.707C234.846 32.6907 235.139 33.0587 235.587 33.336C236.046 33.624 236.59 33.768 237.219 33.768C237.955 33.768 238.547 33.544 238.995 33.096C239.454 32.648 239.683 31.9973 239.683 31.144V29.672C239.374 30.088 238.952 30.44 238.419 30.728C237.896 31.0053 237.299 31.144 236.627 31.144C235.859 31.144 235.155 30.952 234.515 30.568C233.886 30.1733 233.384 29.6293 233.011 28.936C232.648 28.232 232.467 27.4373 232.467 26.552C232.467 25.6667 232.648 24.8827 233.011 24.2C233.384 23.5173 233.886 22.9893 234.515 22.616C235.155 22.232 235.859 22.04 236.627 22.04ZM239.683 26.584C239.683 25.976 239.555 25.448 239.299 25C239.054 24.552 238.728 24.2107 238.323 23.976C237.918 23.7413 237.48 23.624 237.011 23.624C236.542 23.624 236.104 23.7413 235.699 23.976C235.294 24.2 234.963 24.536 234.707 24.984C234.462 25.4213 234.339 25.944 234.339 26.552C234.339 27.16 234.462 27.6933 234.707 28.152C234.963 28.6107 235.294 28.9627 235.699 29.208C236.115 29.4427 236.552 29.56 237.011 29.56C237.48 29.56 237.918 29.4427 238.323 29.208C238.728 28.9733 239.054 28.632 239.299 28.184C239.555 27.7253 239.683 27.192 239.683 26.584ZM243.311 26.552C243.311 25.6667 243.492 24.8827 243.855 24.2C244.228 23.5173 244.729 22.9893 245.359 22.616C245.999 22.232 246.703 22.04 247.471 22.04C248.164 22.04 248.767 22.1787 249.279 22.456C249.801 22.7227 250.217 23.0587 250.527 23.464V22.184H252.367V31H250.527V29.688C250.217 30.104 249.796 30.4507 249.263 30.728C248.729 31.0053 248.121 31.144 247.439 31.144C246.681 31.144 245.988 30.952 245.359 30.568C244.729 30.1733 244.228 29.6293 243.855 28.936C243.492 28.232 243.311 27.4373 243.311 26.552ZM250.527 26.584C250.527 25.976 250.399 25.448 250.143 25C249.897 24.552 249.572 24.2107 249.167 23.976C248.761 23.7413 248.324 23.624 247.855 23.624C247.385 23.624 246.948 23.7413 246.543 23.976C246.137 24.2 245.807 24.536 245.551 24.984C245.305 25.4213 245.183 25.944 245.183 26.552C245.183 27.16 245.305 27.6933 245.551 28.152C245.807 28.6107 246.137 28.9627 246.543 29.208C246.959 29.4427 247.396 29.56 247.855 29.56C248.324 29.56 248.761 29.4427 249.167 29.208C249.572 28.9733 249.897 28.632 250.143 28.184C250.399 27.7253 250.527 27.192 250.527 26.584ZM265.435 22.04C266.128 22.04 266.747 22.184 267.291 22.472C267.845 22.76 268.277 23.1867 268.587 23.752C268.907 24.3173 269.067 25 269.067 25.8V31H267.259V26.072C267.259 25.2827 267.061 24.68 266.667 24.264C266.272 23.8373 265.733 23.624 265.051 23.624C264.368 23.624 263.824 23.8373 263.419 24.264C263.024 24.68 262.827 25.2827 262.827 26.072V31H261.019V26.072C261.019 25.2827 260.821 24.68 260.427 24.264C260.032 23.8373 259.493 23.624 258.811 23.624C258.128 23.624 257.584 23.8373 257.179 24.264C256.784 24.68 256.587 25.2827 256.587 26.072V31H254.763V22.184H256.587V23.192C256.885 22.8293 257.264 22.5467 257.723 22.344C258.181 22.1413 258.672 22.04 259.195 22.04C259.899 22.04 260.528 22.1893 261.083 22.488C261.637 22.7867 262.064 23.2187 262.363 23.784C262.629 23.2507 263.045 22.8293 263.611 22.52C264.176 22.2 264.784 22.04 265.435 22.04ZM279.468 26.376C279.468 26.7067 279.446 27.0053 279.404 27.272H272.668C272.721 27.976 272.982 28.5413 273.452 28.968C273.921 29.3947 274.497 29.608 275.18 29.608C276.161 29.608 276.854 29.1973 277.26 28.376H279.227C278.961 29.1867 278.476 29.8533 277.772 30.376C277.078 30.888 276.214 31.144 275.18 31.144C274.337 31.144 273.58 30.9573 272.908 30.584C272.246 30.2 271.724 29.6667 271.34 28.984C270.966 28.2907 270.78 27.4907 270.78 26.584C270.78 25.6773 270.961 24.8827 271.324 24.2C271.697 23.5067 272.214 22.9733 272.876 22.6C273.548 22.2267 274.316 22.04 275.18 22.04C276.012 22.04 276.753 22.2213 277.404 22.584C278.054 22.9467 278.561 23.4587 278.924 24.12C279.286 24.7707 279.468 25.5227 279.468 26.376ZM277.564 25.8C277.553 25.128 277.313 24.5893 276.844 24.184C276.374 23.7787 275.793 23.576 275.1 23.576C274.47 23.576 273.932 23.7787 273.484 24.184C273.036 24.5787 272.769 25.1173 272.684 25.8H277.564ZM284.463 31.144C283.769 31.144 283.145 31.0213 282.591 30.776C282.047 30.52 281.615 30.1787 281.295 29.752C280.975 29.3147 280.804 28.8293 280.783 28.296H282.671C282.703 28.6693 282.879 28.984 283.199 29.24C283.529 29.4853 283.94 29.608 284.431 29.608C284.943 29.608 285.337 29.512 285.615 29.32C285.903 29.1173 286.047 28.8613 286.047 28.552C286.047 28.2213 285.887 27.976 285.567 27.816C285.257 27.656 284.761 27.48 284.079 27.288C283.417 27.1067 282.879 26.9307 282.463 26.76C282.047 26.5893 281.684 26.328 281.375 25.976C281.076 25.624 280.927 25.16 280.927 24.584C280.927 24.1147 281.065 23.688 281.343 23.304C281.62 22.9093 282.015 22.6 282.527 22.376C283.049 22.152 283.647 22.04 284.319 22.04C285.321 22.04 286.127 22.296 286.735 22.808C287.353 23.3093 287.684 23.9973 287.727 24.872H285.903C285.871 24.4773 285.711 24.1627 285.423 23.928C285.135 23.6933 284.745 23.576 284.255 23.576C283.775 23.576 283.407 23.6667 283.151 23.848C282.895 24.0293 282.767 24.2693 282.767 24.568C282.767 24.8027 282.852 25 283.023 25.16C283.193 25.32 283.401 25.448 283.647 25.544C283.892 25.6293 284.255 25.7413 284.735 25.88C285.375 26.0507 285.897 26.2267 286.303 26.408C286.719 26.5787 287.076 26.8347 287.375 27.176C287.673 27.5173 287.828 27.9707 287.839 28.536C287.839 29.0373 287.7 29.4853 287.423 29.88C287.145 30.2747 286.751 30.584 286.239 30.808C285.737 31.032 285.145 31.144 284.463 31.144Z" fill="white"/>
</svg>
