<svg xmlns="http://www.w3.org/2000/svg" fill="none" viewBox="0 0 140 42" height="42" width="140">
<path fill="black" d="M8.088 16.66L4.956 25H3.372L0.228 16.66H1.692L4.164 23.596L6.648 16.66H8.088ZM9.92803 17.512C9.68003 17.512 9.47203 17.428 9.30403 17.26C9.13603 17.092 9.05203 16.884 9.05203 16.636C9.05203 16.388 9.13603 16.18 9.30403 16.012C9.47203 15.844 9.68003 15.76 9.92803 15.76C10.168 15.76 10.372 15.844 10.54 16.012C10.708 16.18 10.792 16.388 10.792 16.636C10.792 16.884 10.708 17.092 10.54 17.26C10.372 17.428 10.168 17.512 9.92803 17.512ZM10.6 18.388V25H9.23203V18.388H10.6ZM13.7641 19.372C13.9961 19.052 14.3121 18.792 14.7121 18.592C15.1201 18.384 15.5721 18.28 16.0681 18.28C16.6521 18.28 17.1801 18.42 17.6521 18.7C18.1241 18.98 18.4961 19.38 18.7681 19.9C19.0401 20.412 19.1761 21 19.1761 21.664C19.1761 22.328 19.0401 22.924 18.7681 23.452C18.4961 23.972 18.1201 24.38 17.6401 24.676C17.1681 24.964 16.6441 25.108 16.0681 25.108C15.5561 25.108 15.1001 25.008 14.7001 24.808C14.3081 24.608 13.9961 24.352 13.7641 24.04V25H12.3961V16.12H13.7641V19.372ZM17.7841 21.664C17.7841 21.208 17.6881 20.816 17.4961 20.488C17.3121 20.152 17.0641 19.9 16.7521 19.732C16.4481 19.556 16.1201 19.468 15.7681 19.468C15.4241 19.468 15.0961 19.556 14.7841 19.732C14.4801 19.908 14.2321 20.164 14.0401 20.5C13.8561 20.836 13.7641 21.232 13.7641 21.688C13.7641 22.144 13.8561 22.544 14.0401 22.888C14.2321 23.224 14.4801 23.48 14.7841 23.656C15.0961 23.832 15.4241 23.92 15.7681 23.92C16.1201 23.92 16.4481 23.832 16.7521 23.656C17.0641 23.472 17.3121 23.208 17.4961 22.864C17.6881 22.52 17.7841 22.12 17.7841 21.664ZM21.8969 19.348C22.0969 19.012 22.3609 18.752 22.6889 18.568C23.0249 18.376 23.4209 18.28 23.8769 18.28V19.696H23.5289C22.9929 19.696 22.5849 19.832 22.3049 20.104C22.0329 20.376 21.8969 20.848 21.8969 21.52V25H20.5289V18.388H21.8969V19.348ZM24.6784 21.664C24.6784 21 24.8144 20.412 25.0864 19.9C25.3664 19.388 25.7424 18.992 26.2144 18.712C26.6944 18.424 27.2224 18.28 27.7984 18.28C28.3184 18.28 28.7704 18.384 29.1544 18.592C29.5464 18.792 29.8584 19.044 30.0904 19.348V18.388H31.4704V25H30.0904V24.016C29.8584 24.328 29.5424 24.588 29.1424 24.796C28.7424 25.004 28.2864 25.108 27.7744 25.108C27.2064 25.108 26.6864 24.964 26.2144 24.676C25.7424 24.38 25.3664 23.972 25.0864 23.452C24.8144 22.924 24.6784 22.328 24.6784 21.664ZM30.0904 21.688C30.0904 21.232 29.9944 20.836 29.8024 20.5C29.6184 20.164 29.3744 19.908 29.0704 19.732C28.7664 19.556 28.4384 19.468 28.0864 19.468C27.7344 19.468 27.4064 19.556 27.1024 19.732C26.7984 19.9 26.5504 20.152 26.3584 20.488C26.1744 20.816 26.0824 21.208 26.0824 21.664C26.0824 22.12 26.1744 22.52 26.3584 22.864C26.5504 23.208 26.7984 23.472 27.1024 23.656C27.4144 23.832 27.7424 23.92 28.0864 23.92C28.4384 23.92 28.7664 23.832 29.0704 23.656C29.3744 23.48 29.6184 23.224 29.8024 22.888C29.9944 22.544 30.0904 22.144 30.0904 21.688ZM34.6352 19.36C34.8672 19.056 35.1832 18.8 35.5832 18.592C35.9832 18.384 36.4352 18.28 36.9392 18.28C37.5152 18.28 38.0392 18.424 38.5112 18.712C38.9912 18.992 39.3672 19.388 39.6392 19.9C39.9112 20.412 40.0472 21 40.0472 21.664C40.0472 22.328 39.9112 22.924 39.6392 23.452C39.3672 23.972 38.9912 24.38 38.5112 24.676C38.0392 24.964 37.5152 25.108 36.9392 25.108C36.4352 25.108 35.9872 25.008 35.5952 24.808C35.2032 24.6 34.8832 24.344 34.6352 24.04V28.144H33.2672V18.388H34.6352V19.36ZM38.6552 21.664C38.6552 21.208 38.5592 20.816 38.3672 20.488C38.1832 20.152 37.9352 19.9 37.6232 19.732C37.3192 19.556 36.9912 19.468 36.6392 19.468C36.2952 19.468 35.9672 19.556 35.6552 19.732C35.3512 19.908 35.1032 20.164 34.9112 20.5C34.7272 20.836 34.6352 21.232 34.6352 21.688C34.6352 22.144 34.7272 22.544 34.9112 22.888C35.1032 23.224 35.3512 23.48 35.6552 23.656C35.9672 23.832 36.2952 23.92 36.6392 23.92C36.9912 23.92 37.3192 23.832 37.6232 23.656C37.9352 23.472 38.1832 23.208 38.3672 22.864C38.5592 22.52 38.6552 22.12 38.6552 21.664ZM44.82 18.28C45.324 18.28 45.772 18.388 46.164 18.604C46.564 18.82 46.876 19.14 47.1 19.564C47.332 19.988 47.448 20.5 47.448 21.1V25H46.092V21.304C46.092 20.712 45.944 20.26 45.648 19.948C45.352 19.628 44.948 19.468 44.436 19.468C43.924 19.468 43.516 19.628 43.212 19.948C42.916 20.26 42.768 20.712 42.768 21.304V25H41.4V16.12H42.768V19.156C43 18.876 43.292 18.66 43.644 18.508C44.004 18.356 44.396 18.28 44.82 18.28ZM52.061 25.108C51.437 25.108 50.873 24.968 50.369 24.688C49.865 24.4 49.469 24 49.181 23.488C48.893 22.968 48.749 22.368 48.749 21.688C48.749 21.016 48.897 20.42 49.193 19.9C49.489 19.38 49.893 18.98 50.405 18.7C50.917 18.42 51.489 18.28 52.121 18.28C52.753 18.28 53.325 18.42 53.837 18.7C54.349 18.98 54.753 19.38 55.049 19.9C55.345 20.42 55.493 21.016 55.493 21.688C55.493 22.36 55.341 22.956 55.037 23.476C54.733 23.996 54.317 24.4 53.789 24.688C53.269 24.968 52.693 25.108 52.061 25.108ZM52.061 23.92C52.413 23.92 52.741 23.836 53.045 23.668C53.357 23.5 53.609 23.248 53.801 22.912C53.993 22.576 54.089 22.168 54.089 21.688C54.089 21.208 53.997 20.804 53.813 20.476C53.629 20.14 53.385 19.888 53.081 19.72C52.777 19.552 52.449 19.468 52.097 19.468C51.745 19.468 51.417 19.552 51.113 19.72C50.817 19.888 50.581 20.14 50.405 20.476C50.229 20.804 50.141 21.208 50.141 21.688C50.141 22.4 50.321 22.952 50.681 23.344C51.049 23.728 51.509 23.92 52.061 23.92ZM60.1813 18.28C60.7013 18.28 61.1653 18.388 61.5733 18.604C61.9893 18.82 62.3133 19.14 62.5453 19.564C62.7773 19.988 62.8933 20.5 62.8933 21.1V25H61.5373V21.304C61.5373 20.712 61.3893 20.26 61.0933 19.948C60.7973 19.628 60.3933 19.468 59.8813 19.468C59.3693 19.468 58.9613 19.628 58.6573 19.948C58.3613 20.26 58.2133 20.712 58.2133 21.304V25H56.8453V18.388H58.2133V19.144C58.4373 18.872 58.7213 18.66 59.0653 18.508C59.4173 18.356 59.7893 18.28 60.1813 18.28ZM70.6983 21.532C70.6983 21.78 70.6823 22.004 70.6503 22.204H65.5983C65.6383 22.732 65.8343 23.156 66.1863 23.476C66.5383 23.796 66.9703 23.956 67.4823 23.956C68.2183 23.956 68.7383 23.648 69.0423 23.032H70.5183C70.3183 23.64 69.9543 24.14 69.4263 24.532C68.9063 24.916 68.2583 25.108 67.4823 25.108C66.8503 25.108 66.2823 24.968 65.7783 24.688C65.2823 24.4 64.8903 24 64.6023 23.488C64.3223 22.968 64.1823 22.368 64.1823 21.688C64.1823 21.008 64.3183 20.412 64.5903 19.9C64.8703 19.38 65.2583 18.98 65.7543 18.7C66.2583 18.42 66.8343 18.28 67.4823 18.28C68.1063 18.28 68.6623 18.416 69.1503 18.688C69.6383 18.96 70.0183 19.344 70.2903 19.84C70.5623 20.328 70.6983 20.892 70.6983 21.532ZM69.2703 21.1C69.2623 20.596 69.0823 20.192 68.7303 19.888C68.3783 19.584 67.9423 19.432 67.4223 19.432C66.9503 19.432 66.5463 19.584 66.2103 19.888C65.8743 20.184 65.6743 20.588 65.6103 21.1H69.2703Z"></path>
</svg>
