<svg width="480" height="360" viewBox="0 0 480 360" fill="none" xmlns="http://www.w3.org/2000/svg">
<rect x="160" y="140" width="310" height="30" rx="15" fill="white" fill-opacity="0.1"/>
<path d="M299.122 150.66V159H297.754V150.66H299.122ZM304.254 152.28C304.774 152.28 305.238 152.388 305.646 152.604C306.062 152.82 306.386 153.14 306.618 153.564C306.85 153.988 306.966 154.5 306.966 155.1V159H305.61V155.304C305.61 154.712 305.462 154.26 305.166 153.948C304.87 153.628 304.466 153.468 303.954 153.468C303.442 153.468 303.034 153.628 302.73 153.948C302.434 154.26 302.286 154.712 302.286 155.304V159H300.918V152.388H302.286V153.144C302.51 152.872 302.794 152.66 303.138 152.508C303.49 152.356 303.862 152.28 304.254 152.28ZM311.111 159.108C310.591 159.108 310.123 159.016 309.707 158.832C309.299 158.64 308.975 158.384 308.735 158.064C308.495 157.736 308.367 157.372 308.351 156.972H309.767C309.791 157.252 309.923 157.488 310.163 157.68C310.411 157.864 310.719 157.956 311.087 157.956C311.471 157.956 311.767 157.884 311.975 157.74C312.191 157.588 312.299 157.396 312.299 157.164C312.299 156.916 312.179 156.732 311.939 156.612C311.707 156.492 311.335 156.36 310.823 156.216C310.327 156.08 309.923 155.948 309.611 155.82C309.299 155.692 309.027 155.496 308.795 155.232C308.571 154.968 308.459 154.62 308.459 154.188C308.459 153.836 308.563 153.516 308.771 153.228C308.979 152.932 309.275 152.7 309.659 152.532C310.051 152.364 310.499 152.28 311.003 152.28C311.755 152.28 312.359 152.472 312.815 152.856C313.279 153.232 313.527 153.748 313.559 154.404H312.191C312.167 154.108 312.047 153.872 311.831 153.696C311.615 153.52 311.323 153.432 310.955 153.432C310.595 153.432 310.319 153.5 310.127 153.636C309.935 153.772 309.839 153.952 309.839 154.176C309.839 154.352 309.903 154.5 310.031 154.62C310.159 154.74 310.315 154.836 310.499 154.908C310.683 154.972 310.955 155.056 311.315 155.16C311.795 155.288 312.187 155.42 312.491 155.556C312.803 155.684 313.071 155.876 313.295 156.132C313.519 156.388 313.635 156.728 313.643 157.152C313.643 157.528 313.539 157.864 313.331 158.16C313.123 158.456 312.827 158.688 312.443 158.856C312.067 159.024 311.623 159.108 311.111 159.108ZM316.717 153.504V157.164C316.717 157.412 316.773 157.592 316.885 157.704C317.005 157.808 317.205 157.86 317.485 157.86H318.325V159H317.245C316.629 159 316.157 158.856 315.829 158.568C315.501 158.28 315.337 157.812 315.337 157.164V153.504H314.557V152.388H315.337V150.744H316.717V152.388H318.325V153.504H316.717ZM319.13 155.664C319.13 155 319.266 154.412 319.538 153.9C319.818 153.388 320.194 152.992 320.666 152.712C321.146 152.424 321.674 152.28 322.25 152.28C322.77 152.28 323.222 152.384 323.606 152.592C323.998 152.792 324.31 153.044 324.542 153.348V152.388H325.922V159H324.542V158.016C324.31 158.328 323.994 158.588 323.594 158.796C323.194 159.004 322.738 159.108 322.226 159.108C321.658 159.108 321.138 158.964 320.666 158.676C320.194 158.38 319.818 157.972 319.538 157.452C319.266 156.924 319.13 156.328 319.13 155.664ZM324.542 155.688C324.542 155.232 324.446 154.836 324.254 154.5C324.07 154.164 323.826 153.908 323.522 153.732C323.218 153.556 322.89 153.468 322.538 153.468C322.186 153.468 321.858 153.556 321.554 153.732C321.25 153.9 321.002 154.152 320.81 154.488C320.626 154.816 320.534 155.208 320.534 155.664C320.534 156.12 320.626 156.52 320.81 156.864C321.002 157.208 321.25 157.472 321.554 157.656C321.866 157.832 322.194 157.92 322.538 157.92C322.89 157.92 323.218 157.832 323.522 157.656C323.826 157.48 324.07 157.224 324.254 156.888C324.446 156.544 324.542 156.144 324.542 155.688ZM329.086 150.12V159H327.718V150.12H329.086ZM332.25 150.12V159H330.882V150.12H332.25Z" fill="white"/>
</svg>
