<svg width="480" height="360" viewBox="0 0 480 360" fill="none" xmlns="http://www.w3.org/2000/svg">
<path d="M104.581 0H450C466.569 0 480 13.4315 480 30V330C480 346.569 466.569 360 450 360H104.581H30C13.4315 360 0 346.569 0 330V30C0 13.4315 13.4315 0 30 0H104.581Z" fill="#E6E6E6"/>
<path d="M230.197 286.88V288.368H225.477V291.648H229.157V293.136H225.477V298H223.653V286.88H230.197ZM232.816 288.016C232.485 288.016 232.208 287.904 231.984 287.68C231.76 287.456 231.648 287.179 231.648 286.848C231.648 286.517 231.76 286.24 231.984 286.016C232.208 285.792 232.485 285.68 232.816 285.68C233.136 285.68 233.408 285.792 233.632 286.016C233.856 286.24 233.968 286.517 233.968 286.848C233.968 287.179 233.856 287.456 233.632 287.68C233.408 287.904 233.136 288.016 232.816 288.016ZM233.712 289.184V298H231.888V289.184H233.712ZM237.93 286.16V298H236.106V286.16H237.93ZM248.405 293.376C248.405 293.707 248.384 294.005 248.341 294.272H241.605C241.658 294.976 241.92 295.541 242.389 295.968C242.858 296.395 243.434 296.608 244.117 296.608C245.098 296.608 245.792 296.197 246.197 295.376H248.165C247.898 296.187 247.413 296.853 246.709 297.376C246.016 297.888 245.152 298.144 244.117 298.144C243.274 298.144 242.517 297.957 241.845 297.584C241.184 297.2 240.661 296.667 240.277 295.984C239.904 295.291 239.717 294.491 239.717 293.584C239.717 292.677 239.898 291.883 240.261 291.2C240.634 290.507 241.152 289.973 241.813 289.6C242.485 289.227 243.253 289.04 244.117 289.04C244.949 289.04 245.69 289.221 246.341 289.584C246.992 289.947 247.498 290.459 247.861 291.12C248.224 291.771 248.405 292.523 248.405 293.376ZM246.501 292.8C246.49 292.128 246.25 291.589 245.781 291.184C245.312 290.779 244.73 290.576 244.037 290.576C243.408 290.576 242.869 290.779 242.421 291.184C241.973 291.579 241.706 292.117 241.621 292.8H246.501ZM253.4 298.144C252.707 298.144 252.083 298.021 251.528 297.776C250.984 297.52 250.552 297.179 250.232 296.752C249.912 296.315 249.741 295.829 249.72 295.296H251.608C251.64 295.669 251.816 295.984 252.136 296.24C252.467 296.485 252.877 296.608 253.368 296.608C253.88 296.608 254.275 296.512 254.552 296.32C254.84 296.117 254.984 295.861 254.984 295.552C254.984 295.221 254.824 294.976 254.504 294.816C254.195 294.656 253.699 294.48 253.016 294.288C252.355 294.107 251.816 293.931 251.4 293.76C250.984 293.589 250.621 293.328 250.312 292.976C250.013 292.624 249.864 292.16 249.864 291.584C249.864 291.115 250.003 290.688 250.28 290.304C250.557 289.909 250.952 289.6 251.464 289.376C251.987 289.152 252.584 289.04 253.256 289.04C254.259 289.04 255.064 289.296 255.672 289.808C256.291 290.309 256.621 290.997 256.664 291.872H254.84C254.808 291.477 254.648 291.163 254.36 290.928C254.072 290.693 253.683 290.576 253.192 290.576C252.712 290.576 252.344 290.667 252.088 290.848C251.832 291.029 251.704 291.269 251.704 291.568C251.704 291.803 251.789 292 251.96 292.16C252.131 292.32 252.339 292.448 252.584 292.544C252.829 292.629 253.192 292.741 253.672 292.88C254.312 293.051 254.835 293.227 255.24 293.408C255.656 293.579 256.013 293.835 256.312 294.176C256.611 294.517 256.765 294.971 256.776 295.536C256.776 296.037 256.637 296.485 256.36 296.88C256.083 297.275 255.688 297.584 255.176 297.808C254.675 298.032 254.083 298.144 253.4 298.144Z" fill="black"/>
</svg>
