<svg width="240" height="50" viewBox="0 0 240 50" fill="none" xmlns="http://www.w3.org/2000/svg">
<path d="M5.928 20.296H2.436L1.836 22H0.408L3.396 13.648H4.98L7.968 22H6.528L5.928 20.296ZM5.544 19.18L4.188 15.304L2.82 19.18H5.544ZM10.6352 16.348C10.8352 16.012 11.0992 15.752 11.4272 15.568C11.7632 15.376 12.1592 15.28 12.6152 15.28V16.696H12.2672C11.7312 16.696 11.3232 16.832 11.0432 17.104C10.7712 17.376 10.6352 17.848 10.6352 18.52V22H9.26719V15.388H10.6352V16.348ZM19.9327 18.532C19.9327 18.78 19.9167 19.004 19.8847 19.204H14.8327C14.8727 19.732 15.0687 20.156 15.4207 20.476C15.7727 20.796 16.2047 20.956 16.7167 20.956C17.4527 20.956 17.9727 20.648 18.2767 20.032H19.7527C19.5527 20.64 19.1887 21.14 18.6607 21.532C18.1407 21.916 17.4927 22.108 16.7167 22.108C16.0847 22.108 15.5167 21.968 15.0127 21.688C14.5167 21.4 14.1247 21 13.8367 20.488C13.5567 19.968 13.4167 19.368 13.4167 18.688C13.4167 18.008 13.5527 17.412 13.8247 16.9C14.1047 16.38 14.4927 15.98 14.9887 15.7C15.4927 15.42 16.0687 15.28 16.7167 15.28C17.3407 15.28 17.8967 15.416 18.3847 15.688C18.8727 15.96 19.2527 16.344 19.5247 16.84C19.7967 17.328 19.9327 17.892 19.9327 18.532ZM18.5047 18.1C18.4967 17.596 18.3167 17.192 17.9647 16.888C17.6127 16.584 17.1767 16.432 16.6567 16.432C16.1847 16.432 15.7807 16.584 15.4447 16.888C15.1087 17.184 14.9087 17.588 14.8447 18.1H18.5047ZM30.5761 13.66L27.8161 18.976V22H26.4481V18.976L23.6761 13.66H25.2001L27.1321 17.752L29.0641 13.66H30.5761ZM34.5297 22.108C33.9057 22.108 33.3417 21.968 32.8377 21.688C32.3337 21.4 31.9377 21 31.6497 20.488C31.3617 19.968 31.2177 19.368 31.2177 18.688C31.2177 18.016 31.3657 17.42 31.6617 16.9C31.9577 16.38 32.3617 15.98 32.8737 15.7C33.3857 15.42 33.9577 15.28 34.5897 15.28C35.2217 15.28 35.7937 15.42 36.3057 15.7C36.8177 15.98 37.2217 16.38 37.5177 16.9C37.8137 17.42 37.9617 18.016 37.9617 18.688C37.9617 19.36 37.8097 19.956 37.5057 20.476C37.2017 20.996 36.7857 21.4 36.2577 21.688C35.7377 21.968 35.1617 22.108 34.5297 22.108ZM34.5297 20.92C34.8817 20.92 35.2097 20.836 35.5137 20.668C35.8257 20.5 36.0777 20.248 36.2697 19.912C36.4617 19.576 36.5577 19.168 36.5577 18.688C36.5577 18.208 36.4657 17.804 36.2817 17.476C36.0977 17.14 35.8537 16.888 35.5497 16.72C35.2457 16.552 34.9177 16.468 34.5657 16.468C34.2137 16.468 33.8857 16.552 33.5817 16.72C33.2857 16.888 33.0497 17.14 32.8737 17.476C32.6977 17.804 32.6097 18.208 32.6097 18.688C32.6097 19.4 32.7897 19.952 33.1497 20.344C33.5177 20.728 33.9777 20.92 34.5297 20.92ZM45.3021 15.388V22H43.9341V21.22C43.7181 21.492 43.4341 21.708 43.0821 21.868C42.7381 22.02 42.3701 22.096 41.9781 22.096C41.4581 22.096 40.9901 21.988 40.5741 21.772C40.1661 21.556 39.8421 21.236 39.6021 20.812C39.3701 20.388 39.2541 19.876 39.2541 19.276V15.388H40.6101V19.072C40.6101 19.664 40.7581 20.12 41.0541 20.44C41.3501 20.752 41.7541 20.908 42.2661 20.908C42.7781 20.908 43.1821 20.752 43.4781 20.44C43.7821 20.12 43.9341 19.664 43.9341 19.072V15.388H45.3021ZM61.0842 13.66L58.6122 22H57.0642L55.3122 15.688L53.4522 22L51.9162 22.012L49.5522 13.66H51.0042L52.7322 20.452L54.6042 13.66H56.1402L57.8802 20.416L59.6202 13.66H61.0842ZM62.9085 14.512C62.6605 14.512 62.4525 14.428 62.2845 14.26C62.1165 14.092 62.0325 13.884 62.0325 13.636C62.0325 13.388 62.1165 13.18 62.2845 13.012C62.4525 12.844 62.6605 12.76 62.9085 12.76C63.1485 12.76 63.3525 12.844 63.5205 13.012C63.6885 13.18 63.7725 13.388 63.7725 13.636C63.7725 13.884 63.6885 14.092 63.5205 14.26C63.3525 14.428 63.1485 14.512 62.9085 14.512ZM63.5805 15.388V22H62.2125V15.388H63.5805ZM66.9726 16.504V20.164C66.9726 20.412 67.0286 20.592 67.1406 20.704C67.2606 20.808 67.4606 20.86 67.7406 20.86H68.5806V22H67.5006C66.8846 22 66.4126 21.856 66.0846 21.568C65.7566 21.28 65.5926 20.812 65.5926 20.164V16.504H64.8126V15.388H65.5926V13.744H66.9726V15.388H68.5806V16.504H66.9726ZM73.2614 15.28C73.7654 15.28 74.2134 15.388 74.6054 15.604C75.0054 15.82 75.3174 16.14 75.5414 16.564C75.7734 16.988 75.8894 17.5 75.8894 18.1V22H74.5334V18.304C74.5334 17.712 74.3854 17.26 74.0894 16.948C73.7934 16.628 73.3894 16.468 72.8774 16.468C72.3654 16.468 71.9574 16.628 71.6534 16.948C71.3574 17.26 71.2094 17.712 71.2094 18.304V22H69.8414V13.12H71.2094V16.156C71.4414 15.876 71.7334 15.66 72.0854 15.508C72.4454 15.356 72.8374 15.28 73.2614 15.28ZM82.1076 13.66V18.976C82.1076 19.608 82.2716 20.084 82.5996 20.404C82.9356 20.724 83.3996 20.884 83.9916 20.884C84.5916 20.884 85.0556 20.724 85.3836 20.404C85.7196 20.084 85.8876 19.608 85.8876 18.976V13.66H87.2556V18.952C87.2556 19.632 87.1076 20.208 86.8116 20.68C86.5156 21.152 86.1196 21.504 85.6236 21.736C85.1276 21.968 84.5796 22.084 83.9796 22.084C83.3796 22.084 82.8316 21.968 82.3356 21.736C81.8476 21.504 81.4596 21.152 81.1716 20.68C80.8836 20.208 80.7396 19.632 80.7396 18.952V13.66H82.1076ZM91.4367 22.108C90.9167 22.108 90.4487 22.016 90.0327 21.832C89.6247 21.64 89.3007 21.384 89.0607 21.064C88.8207 20.736 88.6927 20.372 88.6767 19.972H90.0927C90.1167 20.252 90.2487 20.488 90.4887 20.68C90.7367 20.864 91.0447 20.956 91.4127 20.956C91.7967 20.956 92.0927 20.884 92.3007 20.74C92.5167 20.588 92.6247 20.396 92.6247 20.164C92.6247 19.916 92.5047 19.732 92.2647 19.612C92.0327 19.492 91.6607 19.36 91.1487 19.216C90.6527 19.08 90.2487 18.948 89.9367 18.82C89.6247 18.692 89.3527 18.496 89.1207 18.232C88.8967 17.968 88.7847 17.62 88.7847 17.188C88.7847 16.836 88.8887 16.516 89.0967 16.228C89.3047 15.932 89.6007 15.7 89.9847 15.532C90.3767 15.364 90.8247 15.28 91.3287 15.28C92.0807 15.28 92.6847 15.472 93.1407 15.856C93.6047 16.232 93.8527 16.748 93.8847 17.404H92.5167C92.4927 17.108 92.3727 16.872 92.1567 16.696C91.9407 16.52 91.6487 16.432 91.2807 16.432C90.9207 16.432 90.6447 16.5 90.4527 16.636C90.2607 16.772 90.1647 16.952 90.1647 17.176C90.1647 17.352 90.2287 17.5 90.3567 17.62C90.4847 17.74 90.6407 17.836 90.8247 17.908C91.0087 17.972 91.2807 18.056 91.6407 18.16C92.1207 18.288 92.5127 18.42 92.8167 18.556C93.1287 18.684 93.3967 18.876 93.6207 19.132C93.8447 19.388 93.9607 19.728 93.9687 20.152C93.9687 20.528 93.8647 20.864 93.6567 21.16C93.4487 21.456 93.1527 21.688 92.7687 21.856C92.3927 22.024 91.9487 22.108 91.4367 22.108ZM100.808 13.54C101.624 13.54 102.276 13.764 102.764 14.212C103.26 14.66 103.508 15.272 103.508 16.048C103.508 16.856 103.252 17.464 102.74 17.872C102.228 18.28 101.548 18.484 100.7 18.484L100.652 19.432H99.4641L99.4041 17.548H99.8001C100.576 17.548 101.168 17.444 101.576 17.236C101.992 17.028 102.2 16.632 102.2 16.048C102.2 15.624 102.076 15.292 101.828 15.052C101.588 14.812 101.252 14.692 100.82 14.692C100.388 14.692 100.048 14.808 99.8001 15.04C99.5521 15.272 99.4281 15.596 99.4281 16.012H98.1441C98.1441 15.532 98.2521 15.104 98.4681 14.728C98.6841 14.352 98.9921 14.06 99.3921 13.852C99.8001 13.644 100.272 13.54 100.808 13.54ZM100.04 22.084C99.7921 22.084 99.5841 22 99.4161 21.832C99.2481 21.664 99.1641 21.456 99.1641 21.208C99.1641 20.96 99.2481 20.752 99.4161 20.584C99.5841 20.416 99.7921 20.332 100.04 20.332C100.28 20.332 100.484 20.416 100.652 20.584C100.82 20.752 100.904 20.96 100.904 21.208C100.904 21.456 100.82 21.664 100.652 21.832C100.484 22 100.28 22.084 100.04 22.084Z" fill="black"/>
<path d="M9.8 31.05L7.74 38H6.45L4.99 32.74L3.44 38L2.16 38.01L0.19 31.05H1.4L2.84 36.71L4.4 31.05H5.68L7.13 36.68L8.58 31.05H9.8ZM13.1302 38.09C12.6102 38.09 12.1402 37.9733 11.7202 37.74C11.3002 37.5 10.9702 37.1667 10.7302 36.74C10.4902 36.3067 10.3702 35.8067 10.3702 35.24C10.3702 34.68 10.4936 34.1833 10.7402 33.75C10.9869 33.3167 11.3236 32.9833 11.7502 32.75C12.1769 32.5167 12.6536 32.4 13.1802 32.4C13.7069 32.4 14.1836 32.5167 14.6102 32.75C15.0369 32.9833 15.3736 33.3167 15.6202 33.75C15.8669 34.1833 15.9902 34.68 15.9902 35.24C15.9902 35.8 15.8636 36.2967 15.6102 36.73C15.3569 37.1633 15.0102 37.5 14.5702 37.74C14.1369 37.9733 13.6569 38.09 13.1302 38.09ZM13.1302 37.1C13.4236 37.1 13.6969 37.03 13.9502 36.89C14.2102 36.75 14.4202 36.54 14.5802 36.26C14.7402 35.98 14.8202 35.64 14.8202 35.24C14.8202 34.84 14.7436 34.5033 14.5902 34.23C14.4369 33.95 14.2336 33.74 13.9802 33.6C13.7269 33.46 13.4536 33.39 13.1602 33.39C12.8669 33.39 12.5936 33.46 12.3402 33.6C12.0936 33.74 11.8969 33.95 11.7502 34.23C11.6036 34.5033 11.5302 34.84 11.5302 35.24C11.5302 35.8333 11.6802 36.2933 11.9802 36.62C12.2869 36.94 12.6702 37.1 13.1302 37.1ZM19.8972 32.4C20.3305 32.4 20.7172 32.49 21.0572 32.67C21.4039 32.85 21.6739 33.1167 21.8672 33.47C22.0605 33.8233 22.1572 34.25 22.1572 34.75V38H21.0272V34.92C21.0272 34.4267 20.9039 34.05 20.6572 33.79C20.4105 33.5233 20.0739 33.39 19.6472 33.39C19.2205 33.39 18.8805 33.5233 18.6272 33.79C18.3805 34.05 18.2572 34.4267 18.2572 34.92V38H17.1172V32.49H18.2572V33.12C18.4439 32.8933 18.6805 32.7167 18.9672 32.59C19.2605 32.4633 19.5705 32.4 19.8972 32.4ZM24.9413 33.42V36.47C24.9413 36.6767 24.988 36.8267 25.0813 36.92C25.1813 37.0067 25.348 37.05 25.5813 37.05H26.2813V38H25.3813C24.868 38 24.4747 37.88 24.2013 37.64C23.928 37.4 23.7913 37.01 23.7913 36.47V33.42H23.1413V32.49H23.7913V31.12H24.9413V32.49H26.2813V33.42H24.9413ZM29.722 38.09C29.202 38.09 28.732 37.9733 28.312 37.74C27.892 37.5 27.562 37.1667 27.322 36.74C27.082 36.3067 26.962 35.8067 26.962 35.24C26.962 34.68 27.0854 34.1833 27.332 33.75C27.5787 33.3167 27.9154 32.9833 28.342 32.75C28.7687 32.5167 29.2454 32.4 29.772 32.4C30.2987 32.4 30.7754 32.5167 31.202 32.75C31.6287 32.9833 31.9654 33.3167 32.212 33.75C32.4587 34.1833 32.582 34.68 32.582 35.24C32.582 35.8 32.4554 36.2967 32.202 36.73C31.9487 37.1633 31.602 37.5 31.162 37.74C30.7287 37.9733 30.2487 38.09 29.722 38.09ZM29.722 37.1C30.0154 37.1 30.2887 37.03 30.542 36.89C30.802 36.75 31.012 36.54 31.172 36.26C31.332 35.98 31.412 35.64 31.412 35.24C31.412 34.84 31.3354 34.5033 31.182 34.23C31.0287 33.95 30.8254 33.74 30.572 33.6C30.3187 33.46 30.0454 33.39 29.752 33.39C29.4587 33.39 29.1854 33.46 28.932 33.6C28.6854 33.74 28.4887 33.95 28.342 34.23C28.1954 34.5033 28.122 34.84 28.122 35.24C28.122 35.8333 28.272 36.2933 28.572 36.62C28.8787 36.94 29.262 37.1 29.722 37.1ZM34.849 30.6V38H33.709V30.6H34.849ZM37.4857 30.6V38H36.3457V30.6H37.4857ZM38.6024 35.22C38.6024 34.6667 38.7158 34.1767 38.9424 33.75C39.1758 33.3233 39.4891 32.9933 39.8824 32.76C40.2824 32.52 40.7224 32.4 41.2024 32.4C41.6358 32.4 42.0124 32.4867 42.3324 32.66C42.6591 32.8267 42.9191 33.0367 43.1124 33.29V32.49H44.2624V38H43.1124V37.18C42.9191 37.44 42.6558 37.6567 42.3224 37.83C41.9891 38.0033 41.6091 38.09 41.1824 38.09C40.7091 38.09 40.2758 37.97 39.8824 37.73C39.4891 37.4833 39.1758 37.1433 38.9424 36.71C38.7158 36.27 38.6024 35.7733 38.6024 35.22ZM43.1124 35.24C43.1124 34.86 43.0324 34.53 42.8724 34.25C42.7191 33.97 42.5158 33.7567 42.2624 33.61C42.0091 33.4633 41.7358 33.39 41.4424 33.39C41.1491 33.39 40.8758 33.4633 40.6224 33.61C40.3691 33.75 40.1624 33.96 40.0024 34.24C39.8491 34.5133 39.7724 34.84 39.7724 35.22C39.7724 35.6 39.8491 35.9333 40.0024 36.22C40.1624 36.5067 40.3691 36.7267 40.6224 36.88C40.8824 37.0267 41.1558 37.1 41.4424 37.1C41.7358 37.1 42.0091 37.0267 42.2624 36.88C42.5158 36.7333 42.7191 36.52 42.8724 36.24C43.0324 35.9533 43.1124 35.62 43.1124 35.24Z" fill="#808080"/>
</svg>
