<svg width="240" height="50" viewBox="0 0 240 50" fill="none" xmlns="http://www.w3.org/2000/svg">
<path d="M6.936 16.06C6.72 15.644 6.42 15.332 6.036 15.124C5.652 14.908 5.208 14.8 4.704 14.8C4.152 14.8 3.66 14.924 3.228 15.172C2.796 15.42 2.456 15.772 2.208 16.228C1.968 16.684 1.848 17.212 1.848 17.812C1.848 18.412 1.968 18.944 2.208 19.408C2.456 19.864 2.796 20.216 3.228 20.464C3.66 20.712 4.152 20.836 4.704 20.836C5.448 20.836 6.052 20.628 6.516 20.212C6.98 19.796 7.264 19.232 7.368 18.52H4.236V17.428H8.832V18.496C8.744 19.144 8.512 19.74 8.136 20.284C7.768 20.828 7.284 21.264 6.684 21.592C6.092 21.912 5.432 22.072 4.704 22.072C3.92 22.072 3.204 21.892 2.556 21.532C1.908 21.164 1.392 20.656 1.008 20.008C0.632 19.36 0.444 18.628 0.444 17.812C0.444 16.996 0.632 16.264 1.008 15.616C1.392 14.968 1.908 14.464 2.556 14.104C3.212 13.736 3.928 13.552 4.704 13.552C5.592 13.552 6.38 13.772 7.068 14.212C7.764 14.644 8.268 15.26 8.58 16.06H6.936ZM16.2413 18.532C16.2413 18.78 16.2253 19.004 16.1933 19.204H11.1413C11.1813 19.732 11.3773 20.156 11.7293 20.476C12.0813 20.796 12.5133 20.956 13.0253 20.956C13.7613 20.956 14.2813 20.648 14.5853 20.032H16.0612C15.8613 20.64 15.4973 21.14 14.9693 21.532C14.4493 21.916 13.8013 22.108 13.0253 22.108C12.3933 22.108 11.8253 21.968 11.3213 21.688C10.8253 21.4 10.4333 21 10.1453 20.488C9.86525 19.968 9.72525 19.368 9.72525 18.688C9.72525 18.008 9.86125 17.412 10.1333 16.9C10.4133 16.38 10.8013 15.98 11.2973 15.7C11.8013 15.42 12.3773 15.28 13.0253 15.28C13.6493 15.28 14.2053 15.416 14.6933 15.688C15.1813 15.96 15.5613 16.344 15.8333 16.84C16.1053 17.328 16.2413 17.892 16.2413 18.532ZM14.8133 18.1C14.8053 17.596 14.6253 17.192 14.2733 16.888C13.9213 16.584 13.4853 16.432 12.9653 16.432C12.4933 16.432 12.0893 16.584 11.7533 16.888C11.4173 17.184 11.2173 17.588 11.1533 18.1H14.8133ZM17.1315 18.664C17.1315 18 17.2675 17.412 17.5395 16.9C17.8195 16.388 18.1955 15.992 18.6675 15.712C19.1475 15.424 19.6795 15.28 20.2635 15.28C20.6955 15.28 21.1195 15.376 21.5355 15.568C21.9595 15.752 22.2955 16 22.5435 16.312V13.12H23.9235V22H22.5435V21.004C22.3195 21.324 22.0075 21.588 21.6075 21.796C21.2155 22.004 20.7635 22.108 20.2515 22.108C19.6755 22.108 19.1475 21.964 18.6675 21.676C18.1955 21.38 17.8195 20.972 17.5395 20.452C17.2675 19.924 17.1315 19.328 17.1315 18.664ZM22.5435 18.688C22.5435 18.232 22.4475 17.836 22.2555 17.5C22.0715 17.164 21.8275 16.908 21.5235 16.732C21.2195 16.556 20.8915 16.468 20.5395 16.468C20.1875 16.468 19.8595 16.556 19.5555 16.732C19.2515 16.9 19.0035 17.152 18.8115 17.488C18.6275 17.816 18.5355 18.208 18.5355 18.664C18.5355 19.12 18.6275 19.52 18.8115 19.864C19.0035 20.208 19.2515 20.472 19.5555 20.656C19.8675 20.832 20.1955 20.92 20.5395 20.92C20.8915 20.92 21.2195 20.832 21.5235 20.656C21.8275 20.48 22.0715 20.224 22.2555 19.888C22.4475 19.544 22.5435 19.144 22.5435 18.688ZM25.2643 18.664C25.2643 18 25.4003 17.412 25.6723 16.9C25.9523 16.388 26.3283 15.992 26.8003 15.712C27.2803 15.424 27.8083 15.28 28.3843 15.28C28.9043 15.28 29.3563 15.384 29.7403 15.592C30.1323 15.792 30.4443 16.044 30.6763 16.348V15.388H32.0563V22H30.6763V21.016C30.4443 21.328 30.1283 21.588 29.7283 21.796C29.3283 22.004 28.8723 22.108 28.3603 22.108C27.7923 22.108 27.2723 21.964 26.8003 21.676C26.3283 21.38 25.9523 20.972 25.6723 20.452C25.4003 19.924 25.2643 19.328 25.2643 18.664ZM30.6763 18.688C30.6763 18.232 30.5803 17.836 30.3883 17.5C30.2043 17.164 29.9603 16.908 29.6563 16.732C29.3523 16.556 29.0243 16.468 28.6723 16.468C28.3203 16.468 27.9923 16.556 27.6883 16.732C27.3843 16.9 27.1363 17.152 26.9443 17.488C26.7603 17.816 26.6683 18.208 26.6683 18.664C26.6683 19.12 26.7603 19.52 26.9443 19.864C27.1363 20.208 27.3843 20.472 27.6883 20.656C28.0003 20.832 28.3283 20.92 28.6723 20.92C29.0243 20.92 29.3523 20.832 29.6563 20.656C29.9603 20.48 30.2043 20.224 30.3883 19.888C30.5803 19.544 30.6763 19.144 30.6763 18.688ZM37.1891 15.28C37.7091 15.28 38.1731 15.388 38.5811 15.604C38.9971 15.82 39.3211 16.14 39.5531 16.564C39.7851 16.988 39.9011 17.5 39.9011 18.1V22H38.5451V18.304C38.5451 17.712 38.3971 17.26 38.1011 16.948C37.8051 16.628 37.4011 16.468 36.8891 16.468C36.3771 16.468 35.9691 16.628 35.6651 16.948C35.3691 17.26 35.2211 17.712 35.2211 18.304V22H33.8531V15.388H35.2211V16.144C35.4451 15.872 35.7291 15.66 36.0731 15.508C36.4251 15.356 36.7971 15.28 37.1891 15.28ZM44.2621 18.7L47.3101 22H45.4621L43.0141 19.156V22H41.6461V13.12H43.0141V18.28L45.4141 15.388H47.3101L44.2621 18.7ZM54.3506 18.532C54.3506 18.78 54.3346 19.004 54.3026 19.204H49.2506C49.2906 19.732 49.4866 20.156 49.8386 20.476C50.1906 20.796 50.6226 20.956 51.1346 20.956C51.8706 20.956 52.3906 20.648 52.6946 20.032H54.1706C53.9706 20.64 53.6066 21.14 53.0786 21.532C52.5586 21.916 51.9106 22.108 51.1346 22.108C50.5026 22.108 49.9346 21.968 49.4306 21.688C48.9346 21.4 48.5426 21 48.2546 20.488C47.9746 19.968 47.8346 19.368 47.8346 18.688C47.8346 18.008 47.9706 17.412 48.2426 16.9C48.5226 16.38 48.9106 15.98 49.4066 15.7C49.9106 15.42 50.4866 15.28 51.1346 15.28C51.7586 15.28 52.3146 15.416 52.8026 15.688C53.2906 15.96 53.6706 16.344 53.9426 16.84C54.2146 17.328 54.3506 17.892 54.3506 18.532ZM52.9226 18.1C52.9146 17.596 52.7346 17.192 52.3826 16.888C52.0306 16.584 51.5946 16.432 51.0746 16.432C50.6026 16.432 50.1986 16.584 49.8626 16.888C49.5266 17.184 49.3266 17.588 49.2626 18.1H52.9226ZM59.0329 15.28C59.5529 15.28 60.0169 15.388 60.4249 15.604C60.8409 15.82 61.1649 16.14 61.3969 16.564C61.6289 16.988 61.7449 17.5 61.7449 18.1V22H60.3889V18.304C60.3889 17.712 60.2409 17.26 59.9449 16.948C59.6489 16.628 59.2449 16.468 58.7329 16.468C58.2209 16.468 57.8129 16.628 57.5089 16.948C57.2129 17.26 57.0649 17.712 57.0649 18.304V22H55.6969V15.388H57.0649V16.144C57.2889 15.872 57.5729 15.66 57.9169 15.508C58.2689 15.356 58.6409 15.28 59.0329 15.28Z" fill="white"/>
<path d="M1.89 31.05V38H0.75V31.05H1.89ZM5.38672 38.09C4.95339 38.09 4.56339 38.0133 4.21672 37.86C3.87672 37.7 3.60672 37.4867 3.40672 37.22C3.20672 36.9467 3.10005 36.6433 3.08672 36.31H4.26672C4.28672 36.5433 4.39672 36.74 4.59672 36.9C4.80339 37.0533 5.06005 37.13 5.36672 37.13C5.68672 37.13 5.93339 37.07 6.10672 36.95C6.28672 36.8233 6.37672 36.6633 6.37672 36.47C6.37672 36.2633 6.27672 36.11 6.07672 36.01C5.88339 35.91 5.57339 35.8 5.14672 35.68C4.73339 35.5667 4.39672 35.4567 4.13672 35.35C3.87672 35.2433 3.65005 35.08 3.45672 34.86C3.27005 34.64 3.17672 34.35 3.17672 33.99C3.17672 33.6967 3.26339 33.43 3.43672 33.19C3.61005 32.9433 3.85672 32.75 4.17672 32.61C4.50339 32.47 4.87672 32.4 5.29672 32.4C5.92339 32.4 6.42672 32.56 6.80672 32.88C7.19339 33.1933 7.40005 33.6233 7.42672 34.17H6.28672C6.26672 33.9233 6.16672 33.7267 5.98672 33.58C5.80672 33.4333 5.56339 33.36 5.25672 33.36C4.95672 33.36 4.72672 33.4167 4.56672 33.53C4.40672 33.6433 4.32672 33.7933 4.32672 33.98C4.32672 34.1267 4.38005 34.25 4.48672 34.35C4.59339 34.45 4.72339 34.53 4.87672 34.59C5.03005 34.6433 5.25672 34.7133 5.55672 34.8C5.95672 34.9067 6.28339 35.0167 6.53672 35.13C6.79672 35.2367 7.02005 35.3967 7.20672 35.61C7.39339 35.8233 7.49005 36.1067 7.49672 36.46C7.49672 36.7733 7.41005 37.0533 7.23672 37.3C7.06339 37.5467 6.81672 37.74 6.49672 37.88C6.18339 38.02 5.81339 38.09 5.38672 38.09ZM11.1185 38.09C10.5985 38.09 10.1285 37.9733 9.70852 37.74C9.28852 37.5 8.95852 37.1667 8.71852 36.74C8.47852 36.3067 8.35852 35.8067 8.35852 35.24C8.35852 34.68 8.48185 34.1833 8.72852 33.75C8.97518 33.3167 9.31185 32.9833 9.73852 32.75C10.1652 32.5167 10.6418 32.4 11.1685 32.4C11.6952 32.4 12.1718 32.5167 12.5985 32.75C13.0252 32.9833 13.3618 33.3167 13.6085 33.75C13.8552 34.1833 13.9785 34.68 13.9785 35.24C13.9785 35.8 13.8518 36.2967 13.5985 36.73C13.3452 37.1633 12.9985 37.5 12.5585 37.74C12.1252 37.9733 11.6452 38.09 11.1185 38.09ZM11.1185 37.1C11.4118 37.1 11.6852 37.03 11.9385 36.89C12.1985 36.75 12.4085 36.54 12.5685 36.26C12.7285 35.98 12.8085 35.64 12.8085 35.24C12.8085 34.84 12.7318 34.5033 12.5785 34.23C12.4252 33.95 12.2218 33.74 11.9685 33.6C11.7152 33.46 11.4418 33.39 11.1485 33.39C10.8552 33.39 10.5818 33.46 10.3285 33.6C10.0818 33.74 9.88518 33.95 9.73852 34.23C9.59185 34.5033 9.51852 34.84 9.51852 35.24C9.51852 35.8333 9.66852 36.2933 9.96852 36.62C10.2752 36.94 10.6585 37.1 11.1185 37.1ZM16.2455 30.6V38H15.1055V30.6H16.2455ZM17.3622 35.22C17.3622 34.6667 17.4755 34.1767 17.7022 33.75C17.9355 33.3233 18.2489 32.9933 18.6422 32.76C19.0422 32.52 19.4822 32.4 19.9622 32.4C20.3955 32.4 20.7722 32.4867 21.0922 32.66C21.4189 32.8267 21.6789 33.0367 21.8722 33.29V32.49H23.0222V38H21.8722V37.18C21.6789 37.44 21.4155 37.6567 21.0822 37.83C20.7489 38.0033 20.3689 38.09 19.9422 38.09C19.4689 38.09 19.0355 37.97 18.6422 37.73C18.2489 37.4833 17.9355 37.1433 17.7022 36.71C17.4755 36.27 17.3622 35.7733 17.3622 35.22ZM21.8722 35.24C21.8722 34.86 21.7922 34.53 21.6322 34.25C21.4789 33.97 21.2755 33.7567 21.0222 33.61C20.7689 33.4633 20.4955 33.39 20.2022 33.39C19.9089 33.39 19.6355 33.4633 19.3822 33.61C19.1289 33.75 18.9222 33.96 18.7622 34.24C18.6089 34.5133 18.5322 34.84 18.5322 35.22C18.5322 35.6 18.6089 35.9333 18.7622 36.22C18.9222 36.5067 19.1289 36.7267 19.3822 36.88C19.6422 37.0267 19.9155 37.1 20.2022 37.1C20.4955 37.1 20.7689 37.0267 21.0222 36.88C21.2755 36.7333 21.4789 36.52 21.6322 36.24C21.7922 35.9533 21.8722 35.62 21.8722 35.24ZM25.8495 33.42V36.47C25.8495 36.6767 25.8962 36.8267 25.9895 36.92C26.0895 37.0067 26.2562 37.05 26.4895 37.05H27.1895V38H26.2895C25.7762 38 25.3829 37.88 25.1095 37.64C24.8362 37.4 24.6995 37.01 24.6995 36.47V33.42H24.0495V32.49H24.6995V31.12H25.8495V32.49H27.1895V33.42H25.8495ZM33.2902 35.11C33.2902 35.3167 33.2769 35.5033 33.2502 35.67H29.0402C29.0736 36.11 29.2369 36.4633 29.5302 36.73C29.8236 36.9967 30.1836 37.13 30.6102 37.13C31.2236 37.13 31.6569 36.8733 31.9102 36.36H33.1402C32.9736 36.8667 32.6702 37.2833 32.2302 37.61C31.7969 37.93 31.2569 38.09 30.6102 38.09C30.0836 38.09 29.6102 37.9733 29.1902 37.74C28.7769 37.5 28.4502 37.1667 28.2102 36.74C27.9769 36.3067 27.8602 35.8067 27.8602 35.24C27.8602 34.6733 27.9736 34.1767 28.2002 33.75C28.4336 33.3167 28.7569 32.9833 29.1702 32.75C29.5902 32.5167 30.0702 32.4 30.6102 32.4C31.1302 32.4 31.5936 32.5133 32.0002 32.74C32.4069 32.9667 32.7236 33.2867 32.9502 33.7C33.1769 34.1067 33.2902 34.5767 33.2902 35.11ZM32.1002 34.75C32.0936 34.33 31.9436 33.9933 31.6502 33.74C31.3569 33.4867 30.9936 33.36 30.5602 33.36C30.1669 33.36 29.8302 33.4867 29.5502 33.74C29.2702 33.9867 29.1036 34.3233 29.0502 34.75H32.1002ZM34.0321 35.22C34.0321 34.6667 34.1454 34.1767 34.3721 33.75C34.6054 33.3233 34.9188 32.9933 35.3121 32.76C35.7121 32.52 36.1554 32.4 36.6421 32.4C37.0021 32.4 37.3554 32.48 37.7021 32.64C38.0554 32.7933 38.3354 33 38.5421 33.26V30.6H39.6921V38H38.5421V37.17C38.3554 37.4367 38.0954 37.6567 37.7621 37.83C37.4354 38.0033 37.0588 38.09 36.6321 38.09C36.1521 38.09 35.7121 37.97 35.3121 37.73C34.9188 37.4833 34.6054 37.1433 34.3721 36.71C34.1454 36.27 34.0321 35.7733 34.0321 35.22ZM38.5421 35.24C38.5421 34.86 38.4621 34.53 38.3021 34.25C38.1488 33.97 37.9454 33.7567 37.6921 33.61C37.4388 33.4633 37.1654 33.39 36.8721 33.39C36.5788 33.39 36.3054 33.4633 36.0521 33.61C35.7988 33.75 35.5921 33.96 35.4321 34.24C35.2788 34.5133 35.2021 34.84 35.2021 35.22C35.2021 35.6 35.2788 35.9333 35.4321 36.22C35.5921 36.5067 35.7988 36.7267 36.0521 36.88C36.3121 37.0267 36.5854 37.1 36.8721 37.1C37.1654 37.1 37.4388 37.0267 37.6921 36.88C37.9454 36.7333 38.1488 36.52 38.3021 36.24C38.4621 35.9533 38.5421 35.62 38.5421 35.24Z" fill="#808080"/>
</svg>
