<svg width="480" height="360" viewBox="0 0 480 360" fill="none" xmlns="http://www.w3.org/2000/svg">
<g clip-path="url(#clip0_185_5)">
<path d="M177.904 28.728H173.248L172.448 31H170.544L174.528 19.864H176.64L180.624 31H178.704L177.904 28.728ZM177.392 27.24L175.584 22.072L173.76 27.24H177.392ZM186.804 22.04C187.498 22.04 188.116 22.184 188.66 22.472C189.215 22.76 189.647 23.1867 189.956 23.752C190.266 24.3173 190.42 25 190.42 25.8V31H188.612V26.072C188.612 25.2827 188.415 24.68 188.02 24.264C187.626 23.8373 187.087 23.624 186.404 23.624C185.722 23.624 185.178 23.8373 184.772 24.264C184.378 24.68 184.18 25.2827 184.18 26.072V31H182.356V22.184H184.18V23.192C184.479 22.8293 184.858 22.5467 185.316 22.344C185.786 22.1413 186.282 22.04 186.804 22.04ZM193.675 21.016C193.344 21.016 193.067 20.904 192.843 20.68C192.619 20.456 192.507 20.1787 192.507 19.848C192.507 19.5173 192.619 19.24 192.843 19.016C193.067 18.792 193.344 18.68 193.675 18.68C193.995 18.68 194.267 18.792 194.491 19.016C194.715 19.24 194.827 19.5173 194.827 19.848C194.827 20.1787 194.715 20.456 194.491 20.68C194.267 20.904 193.995 21.016 193.675 21.016ZM194.571 22.184V31H192.747V22.184H194.571ZM207.638 22.04C208.331 22.04 208.95 22.184 209.494 22.472C210.048 22.76 210.48 23.1867 210.79 23.752C211.11 24.3173 211.27 25 211.27 25.8V31H209.462V26.072C209.462 25.2827 209.264 24.68 208.87 24.264C208.475 23.8373 207.936 23.624 207.254 23.624C206.571 23.624 206.027 23.8373 205.622 24.264C205.227 24.68 205.03 25.2827 205.03 26.072V31H203.222V26.072C203.222 25.2827 203.024 24.68 202.63 24.264C202.235 23.8373 201.696 23.624 201.014 23.624C200.331 23.624 199.787 23.8373 199.382 24.264C198.987 24.68 198.79 25.2827 198.79 26.072V31H196.966V22.184H198.79V23.192C199.088 22.8293 199.467 22.5467 199.926 22.344C200.384 22.1413 200.875 22.04 201.398 22.04C202.102 22.04 202.731 22.1893 203.286 22.488C203.84 22.7867 204.267 23.2187 204.566 23.784C204.832 23.2507 205.248 22.8293 205.814 22.52C206.379 22.2 206.987 22.04 207.638 22.04ZM212.983 26.552C212.983 25.6667 213.164 24.8827 213.527 24.2C213.9 23.5173 214.401 22.9893 215.031 22.616C215.671 22.232 216.375 22.04 217.143 22.04C217.836 22.04 218.439 22.1787 218.951 22.456C219.473 22.7227 219.889 23.0587 220.199 23.464V22.184H222.039V31H220.199V29.688C219.889 30.104 219.468 30.4507 218.935 30.728C218.401 31.0053 217.793 31.144 217.111 31.144C216.353 31.144 215.66 30.952 215.031 30.568C214.401 30.1733 213.9 29.6293 213.527 28.936C213.164 28.232 212.983 27.4373 212.983 26.552ZM220.199 26.584C220.199 25.976 220.071 25.448 219.815 25C219.569 24.552 219.244 24.2107 218.839 23.976C218.433 23.7413 217.996 23.624 217.527 23.624C217.057 23.624 216.62 23.7413 216.215 23.976C215.809 24.2 215.479 24.536 215.223 24.984C214.977 25.4213 214.855 25.944 214.855 26.552C214.855 27.16 214.977 27.6933 215.223 28.152C215.479 28.6107 215.809 28.9627 216.215 29.208C216.631 29.4427 217.068 29.56 217.527 29.56C217.996 29.56 218.433 29.4427 218.839 29.208C219.244 28.9733 219.569 28.632 219.815 28.184C220.071 27.7253 220.199 27.192 220.199 26.584ZM226.562 23.672V28.552C226.562 28.8827 226.637 29.1227 226.786 29.272C226.946 29.4107 227.213 29.48 227.586 29.48H228.706V31H227.266C226.445 31 225.816 30.808 225.378 30.424C224.941 30.04 224.722 29.416 224.722 28.552V23.672H223.682V22.184H224.722V19.992H226.562V22.184H228.706V23.672H226.562ZM238.468 26.376C238.468 26.7067 238.446 27.0053 238.404 27.272H231.668C231.721 27.976 231.982 28.5413 232.452 28.968C232.921 29.3947 233.497 29.608 234.18 29.608C235.161 29.608 235.854 29.1973 236.26 28.376H238.227C237.961 29.1867 237.476 29.8533 236.772 30.376C236.078 30.888 235.214 31.144 234.18 31.144C233.337 31.144 232.58 30.9573 231.908 30.584C231.246 30.2 230.724 29.6667 230.34 28.984C229.966 28.2907 229.78 27.4907 229.78 26.584C229.78 25.6773 229.961 24.8827 230.324 24.2C230.697 23.5067 231.214 22.9733 231.876 22.6C232.548 22.2267 233.316 22.04 234.18 22.04C235.012 22.04 235.753 22.2213 236.404 22.584C237.054 22.9467 237.561 23.4587 237.924 24.12C238.286 24.7707 238.468 25.5227 238.468 26.376ZM236.564 25.8C236.553 25.128 236.313 24.5893 235.844 24.184C235.374 23.7787 234.793 23.576 234.1 23.576C233.47 23.576 232.932 23.7787 232.484 24.184C232.036 24.5787 231.769 25.1173 231.684 25.8H236.564ZM239.655 26.552C239.655 25.6667 239.836 24.8827 240.199 24.2C240.572 23.5173 241.073 22.9893 241.703 22.616C242.343 22.232 243.052 22.04 243.831 22.04C244.407 22.04 244.972 22.168 245.527 22.424C246.092 22.6693 246.54 23 246.871 23.416V19.16H248.711V31H246.871V29.672C246.572 30.0987 246.156 30.4507 245.623 30.728C245.1 31.0053 244.497 31.144 243.815 31.144C243.047 31.144 242.343 30.952 241.703 30.568C241.073 30.1733 240.572 29.6293 240.199 28.936C239.836 28.232 239.655 27.4373 239.655 26.552ZM246.871 26.584C246.871 25.976 246.743 25.448 246.487 25C246.241 24.552 245.916 24.2107 245.511 23.976C245.105 23.7413 244.668 23.624 244.199 23.624C243.729 23.624 243.292 23.7413 242.887 23.976C242.481 24.2 242.151 24.536 241.895 24.984C241.649 25.4213 241.527 25.944 241.527 26.552C241.527 27.16 241.649 27.6933 241.895 28.152C242.151 28.6107 242.481 28.9627 242.887 29.208C243.303 29.4427 243.74 29.56 244.199 29.56C244.668 29.56 245.105 29.4427 245.511 29.208C245.916 28.9733 246.241 28.632 246.487 28.184C246.743 27.7253 246.871 27.192 246.871 26.584ZM256.191 21.016C255.86 21.016 255.583 20.904 255.359 20.68C255.135 20.456 255.023 20.1787 255.023 19.848C255.023 19.5173 255.135 19.24 255.359 19.016C255.583 18.792 255.86 18.68 256.191 18.68C256.511 18.68 256.783 18.792 257.007 19.016C257.231 19.24 257.343 19.5173 257.343 19.848C257.343 20.1787 257.231 20.456 257.007 20.68C256.783 20.904 256.511 21.016 256.191 21.016ZM257.087 22.184V31H255.263V22.184H257.087ZM270.153 22.04C270.847 22.04 271.465 22.184 272.009 22.472C272.564 22.76 272.996 23.1867 273.305 23.752C273.625 24.3173 273.785 25 273.785 25.8V31H271.977V26.072C271.977 25.2827 271.78 24.68 271.385 24.264C270.991 23.8373 270.452 23.624 269.769 23.624C269.087 23.624 268.543 23.8373 268.137 24.264C267.743 24.68 267.545 25.2827 267.545 26.072V31H265.737V26.072C265.737 25.2827 265.54 24.68 265.145 24.264C264.751 23.8373 264.212 23.624 263.529 23.624C262.847 23.624 262.303 23.8373 261.897 24.264C261.503 24.68 261.305 25.2827 261.305 26.072V31H259.481V22.184H261.305V23.192C261.604 22.8293 261.983 22.5467 262.441 22.344C262.9 22.1413 263.391 22.04 263.913 22.04C264.617 22.04 265.247 22.1893 265.801 22.488C266.356 22.7867 266.783 23.2187 267.081 23.784C267.348 23.2507 267.764 22.8293 268.329 22.52C268.895 22.2 269.503 22.04 270.153 22.04ZM275.498 26.552C275.498 25.6667 275.68 24.8827 276.042 24.2C276.416 23.5173 276.917 22.9893 277.546 22.616C278.186 22.232 278.89 22.04 279.658 22.04C280.352 22.04 280.954 22.1787 281.466 22.456C281.989 22.7227 282.405 23.0587 282.714 23.464V22.184H284.554V31H282.714V29.688C282.405 30.104 281.984 30.4507 281.45 30.728C280.917 31.0053 280.309 31.144 279.626 31.144C278.869 31.144 278.176 30.952 277.546 30.568C276.917 30.1733 276.416 29.6293 276.042 28.936C275.68 28.232 275.498 27.4373 275.498 26.552ZM282.714 26.584C282.714 25.976 282.586 25.448 282.33 25C282.085 24.552 281.76 24.2107 281.354 23.976C280.949 23.7413 280.512 23.624 280.042 23.624C279.573 23.624 279.136 23.7413 278.73 23.976C278.325 24.2 277.994 24.536 277.738 24.984C277.493 25.4213 277.37 25.944 277.37 26.552C277.37 27.16 277.493 27.6933 277.738 28.152C277.994 28.6107 278.325 28.9627 278.73 29.208C279.146 29.4427 279.584 29.56 280.042 29.56C280.512 29.56 280.949 29.4427 281.354 29.208C281.76 28.9733 282.085 28.632 282.33 28.184C282.586 27.7253 282.714 27.192 282.714 26.584ZM290.502 22.04C291.185 22.04 291.787 22.1787 292.31 22.456C292.843 22.7227 293.259 23.0587 293.558 23.464V22.184H295.398V31.144C295.398 31.9547 295.227 32.6747 294.886 33.304C294.545 33.944 294.049 34.4453 293.398 34.808C292.758 35.1707 291.99 35.352 291.094 35.352C289.899 35.352 288.907 35.0693 288.118 34.504C287.329 33.9493 286.881 33.192 286.774 32.232H288.582C288.721 32.6907 289.014 33.0587 289.462 33.336C289.921 33.624 290.465 33.768 291.094 33.768C291.83 33.768 292.422 33.544 292.87 33.096C293.329 32.648 293.558 31.9973 293.558 31.144V29.672C293.249 30.088 292.827 30.44 292.294 30.728C291.771 31.0053 291.174 31.144 290.502 31.144C289.734 31.144 289.03 30.952 288.39 30.568C287.761 30.1733 287.259 29.6293 286.886 28.936C286.523 28.232 286.342 27.4373 286.342 26.552C286.342 25.6667 286.523 24.8827 286.886 24.2C287.259 23.5173 287.761 22.9893 288.39 22.616C289.03 22.232 289.734 22.04 290.502 22.04ZM293.558 26.584C293.558 25.976 293.43 25.448 293.174 25C292.929 24.552 292.603 24.2107 292.198 23.976C291.793 23.7413 291.355 23.624 290.886 23.624C290.417 23.624 289.979 23.7413 289.574 23.976C289.169 24.2 288.838 24.536 288.582 24.984C288.337 25.4213 288.214 25.944 288.214 26.552C288.214 27.16 288.337 27.6933 288.582 28.152C288.838 28.6107 289.169 28.9627 289.574 29.208C289.99 29.4427 290.427 29.56 290.886 29.56C291.355 29.56 291.793 29.4427 292.198 29.208C292.603 28.9733 292.929 28.632 293.174 28.184C293.43 27.7253 293.558 27.192 293.558 26.584ZM305.874 26.376C305.874 26.7067 305.852 27.0053 305.81 27.272H299.074C299.127 27.976 299.388 28.5413 299.858 28.968C300.327 29.3947 300.903 29.608 301.586 29.608C302.567 29.608 303.26 29.1973 303.666 28.376H305.634C305.367 29.1867 304.882 29.8533 304.178 30.376C303.484 30.888 302.62 31.144 301.586 31.144C300.743 31.144 299.986 30.9573 299.314 30.584C298.652 30.2 298.13 29.6667 297.746 28.984C297.372 28.2907 297.186 27.4907 297.186 26.584C297.186 25.6773 297.367 24.8827 297.73 24.2C298.103 23.5067 298.62 22.9733 299.282 22.6C299.954 22.2267 300.722 22.04 301.586 22.04C302.418 22.04 303.159 22.2213 303.81 22.584C304.46 22.9467 304.967 23.4587 305.33 24.12C305.692 24.7707 305.874 25.5227 305.874 26.376ZM303.97 25.8C303.959 25.128 303.719 24.5893 303.25 24.184C302.78 23.7787 302.199 23.576 301.506 23.576C300.876 23.576 300.338 23.7787 299.89 24.184C299.442 24.5787 299.175 25.1173 299.09 25.8H303.97ZM310.869 31.144C310.175 31.144 309.551 31.0213 308.997 30.776C308.453 30.52 308.021 30.1787 307.701 29.752C307.381 29.3147 307.21 28.8293 307.189 28.296H309.077C309.109 28.6693 309.285 28.984 309.605 29.24C309.935 29.4853 310.346 29.608 310.837 29.608C311.349 29.608 311.743 29.512 312.021 29.32C312.309 29.1173 312.453 28.8613 312.453 28.552C312.453 28.2213 312.293 27.976 311.973 27.816C311.663 27.656 311.167 27.48 310.485 27.288C309.823 27.1067 309.285 26.9307 308.869 26.76C308.453 26.5893 308.09 26.328 307.781 25.976C307.482 25.624 307.333 25.16 307.333 24.584C307.333 24.1147 307.471 23.688 307.749 23.304C308.026 22.9093 308.421 22.6 308.933 22.376C309.455 22.152 310.053 22.04 310.725 22.04C311.727 22.04 312.533 22.296 313.141 22.808C313.759 23.3093 314.09 23.9973 314.133 24.872H312.309C312.277 24.4773 312.117 24.1627 311.829 23.928C311.541 23.6933 311.151 23.576 310.661 23.576C310.181 23.576 309.813 23.6667 309.557 23.848C309.301 24.0293 309.173 24.2693 309.173 24.568C309.173 24.8027 309.258 25 309.429 25.16C309.599 25.32 309.807 25.448 310.053 25.544C310.298 25.6293 310.661 25.7413 311.141 25.88C311.781 26.0507 312.303 26.2267 312.709 26.408C313.125 26.5787 313.482 26.8347 313.781 27.176C314.079 27.5173 314.234 27.9707 314.245 28.536C314.245 29.0373 314.106 29.4853 313.829 29.88C313.551 30.2747 313.157 30.584 312.645 30.808C312.143 31.032 311.551 31.144 310.869 31.144Z" fill="white"/>
<path d="M177.752 69H176.384L172.268 62.772V69H170.9V60.648H172.268L176.384 66.864V60.648H177.752V69ZM179.092 65.664C179.092 65 179.228 64.412 179.5 63.9C179.78 63.388 180.156 62.992 180.628 62.712C181.108 62.424 181.636 62.28 182.212 62.28C182.732 62.28 183.184 62.384 183.568 62.592C183.96 62.792 184.272 63.044 184.504 63.348V62.388H185.884V69H184.504V68.016C184.272 68.328 183.956 68.588 183.556 68.796C183.156 69.004 182.7 69.108 182.188 69.108C181.62 69.108 181.1 68.964 180.628 68.676C180.156 68.38 179.78 67.972 179.5 67.452C179.228 66.924 179.092 66.328 179.092 65.664ZM184.504 65.688C184.504 65.232 184.408 64.836 184.216 64.5C184.032 64.164 183.788 63.908 183.484 63.732C183.18 63.556 182.852 63.468 182.5 63.468C182.148 63.468 181.82 63.556 181.516 63.732C181.212 63.9 180.964 64.152 180.772 64.488C180.588 64.816 180.496 65.208 180.496 65.664C180.496 66.12 180.588 66.52 180.772 66.864C180.964 67.208 181.212 67.472 181.516 67.656C181.828 67.832 182.156 67.92 182.5 67.92C182.852 67.92 183.18 67.832 183.484 67.656C183.788 67.48 184.032 67.224 184.216 66.888C184.408 66.544 184.504 66.144 184.504 65.688ZM195.685 62.28C196.205 62.28 196.669 62.388 197.077 62.604C197.493 62.82 197.817 63.14 198.049 63.564C198.289 63.988 198.409 64.5 198.409 65.1V69H197.053V65.304C197.053 64.712 196.905 64.26 196.609 63.948C196.313 63.628 195.909 63.468 195.397 63.468C194.885 63.468 194.477 63.628 194.173 63.948C193.877 64.26 193.729 64.712 193.729 65.304V69H192.373V65.304C192.373 64.712 192.225 64.26 191.929 63.948C191.633 63.628 191.229 63.468 190.717 63.468C190.205 63.468 189.797 63.628 189.493 63.948C189.197 64.26 189.049 64.712 189.049 65.304V69H187.681V62.388H189.049V63.144C189.273 62.872 189.557 62.66 189.901 62.508C190.245 62.356 190.613 62.28 191.005 62.28C191.533 62.28 192.005 62.392 192.421 62.616C192.837 62.84 193.157 63.164 193.381 63.588C193.581 63.188 193.893 62.872 194.317 62.64C194.741 62.4 195.197 62.28 195.685 62.28ZM206.21 65.532C206.21 65.78 206.194 66.004 206.162 66.204H201.11C201.15 66.732 201.346 67.156 201.698 67.476C202.05 67.796 202.482 67.956 202.994 67.956C203.73 67.956 204.25 67.648 204.554 67.032H206.03C205.83 67.64 205.466 68.14 204.938 68.532C204.418 68.916 203.77 69.108 202.994 69.108C202.362 69.108 201.794 68.968 201.29 68.688C200.794 68.4 200.402 68 200.114 67.488C199.834 66.968 199.694 66.368 199.694 65.688C199.694 65.008 199.83 64.412 200.102 63.9C200.382 63.38 200.77 62.98 201.266 62.7C201.77 62.42 202.346 62.28 202.994 62.28C203.618 62.28 204.174 62.416 204.662 62.688C205.15 62.96 205.53 63.344 205.802 63.84C206.074 64.328 206.21 64.892 206.21 65.532ZM204.782 65.1C204.774 64.596 204.594 64.192 204.242 63.888C203.89 63.584 203.454 63.432 202.934 63.432C202.462 63.432 202.058 63.584 201.722 63.888C201.386 64.184 201.186 64.588 201.122 65.1H204.782Z" fill="white"/>
<path d="M302.624 60.66C303.512 60.66 304.288 60.832 304.952 61.176C305.624 61.512 306.14 62 306.5 62.64C306.868 63.272 307.052 64.012 307.052 64.86C307.052 65.708 306.868 66.444 306.5 67.068C306.14 67.692 305.624 68.172 304.952 68.508C304.288 68.836 303.512 69 302.624 69H299.9V60.66H302.624ZM302.624 67.884C303.6 67.884 304.348 67.62 304.868 67.092C305.388 66.564 305.648 65.82 305.648 64.86C305.648 63.892 305.388 63.136 304.868 62.592C304.348 62.048 303.6 61.776 302.624 61.776H301.268V67.884H302.624ZM307.952 65.664C307.952 65 308.088 64.412 308.36 63.9C308.64 63.388 309.016 62.992 309.488 62.712C309.968 62.424 310.496 62.28 311.072 62.28C311.592 62.28 312.044 62.384 312.428 62.592C312.82 62.792 313.132 63.044 313.364 63.348V62.388H314.744V69H313.364V68.016C313.132 68.328 312.816 68.588 312.416 68.796C312.016 69.004 311.56 69.108 311.048 69.108C310.48 69.108 309.96 68.964 309.488 68.676C309.016 68.38 308.64 67.972 308.36 67.452C308.088 66.924 307.952 66.328 307.952 65.664ZM313.364 65.688C313.364 65.232 313.268 64.836 313.076 64.5C312.892 64.164 312.648 63.908 312.344 63.732C312.04 63.556 311.712 63.468 311.36 63.468C311.008 63.468 310.68 63.556 310.376 63.732C310.072 63.9 309.824 64.152 309.632 64.488C309.448 64.816 309.356 65.208 309.356 65.664C309.356 66.12 309.448 66.52 309.632 66.864C309.824 67.208 310.072 67.472 310.376 67.656C310.688 67.832 311.016 67.92 311.36 67.92C311.712 67.92 312.04 67.832 312.344 67.656C312.648 67.48 312.892 67.224 313.076 66.888C313.268 66.544 313.364 66.144 313.364 65.688ZM318.137 63.504V67.164C318.137 67.412 318.193 67.592 318.305 67.704C318.425 67.808 318.625 67.86 318.905 67.86H319.745V69H318.665C318.049 69 317.577 68.856 317.249 68.568C316.921 68.28 316.757 67.812 316.757 67.164V63.504H315.977V62.388H316.757V60.744H318.137V62.388H319.745V63.504H318.137ZM327.065 65.532C327.065 65.78 327.049 66.004 327.017 66.204H321.965C322.005 66.732 322.201 67.156 322.553 67.476C322.905 67.796 323.337 67.956 323.849 67.956C324.585 67.956 325.105 67.648 325.409 67.032H326.885C326.685 67.64 326.321 68.14 325.793 68.532C325.273 68.916 324.625 69.108 323.849 69.108C323.217 69.108 322.649 68.968 322.145 68.688C321.649 68.4 321.257 68 320.969 67.488C320.689 66.968 320.549 66.368 320.549 65.688C320.549 65.008 320.685 64.412 320.957 63.9C321.237 63.38 321.625 62.98 322.121 62.7C322.625 62.42 323.201 62.28 323.849 62.28C324.473 62.28 325.029 62.416 325.517 62.688C326.005 62.96 326.385 63.344 326.657 63.84C326.929 64.328 327.065 64.892 327.065 65.532ZM325.637 65.1C325.629 64.596 325.449 64.192 325.097 63.888C324.745 63.584 324.309 63.432 323.789 63.432C323.317 63.432 322.913 63.584 322.577 63.888C322.241 64.184 322.041 64.588 321.977 65.1H325.637Z" fill="white"/>
<path d="M387.648 69.084C387.088 69.084 386.584 68.988 386.136 68.796C385.688 68.596 385.336 68.316 385.08 67.956C384.824 67.596 384.696 67.176 384.696 66.696H386.16C386.192 67.056 386.332 67.352 386.58 67.584C386.836 67.816 387.192 67.932 387.648 67.932C388.12 67.932 388.488 67.82 388.752 67.596C389.016 67.364 389.148 67.068 389.148 66.708C389.148 66.428 389.064 66.2 388.896 66.024C388.736 65.848 388.532 65.712 388.284 65.616C388.044 65.52 387.708 65.416 387.276 65.304C386.732 65.16 386.288 65.016 385.944 64.872C385.608 64.72 385.32 64.488 385.08 64.176C384.84 63.864 384.72 63.448 384.72 62.928C384.72 62.448 384.84 62.028 385.08 61.668C385.32 61.308 385.656 61.032 386.088 60.84C386.52 60.648 387.02 60.552 387.588 60.552C388.396 60.552 389.056 60.756 389.568 61.164C390.088 61.564 390.376 62.116 390.432 62.82H388.92C388.896 62.516 388.752 62.256 388.488 62.04C388.224 61.824 387.876 61.716 387.444 61.716C387.052 61.716 386.732 61.816 386.484 62.016C386.236 62.216 386.112 62.504 386.112 62.88C386.112 63.136 386.188 63.348 386.34 63.516C386.5 63.676 386.7 63.804 386.94 63.9C387.18 63.996 387.508 64.1 387.924 64.212C388.476 64.364 388.924 64.516 389.268 64.668C389.62 64.82 389.916 65.056 390.156 65.376C390.404 65.688 390.528 66.108 390.528 66.636C390.528 67.06 390.412 67.46 390.18 67.836C389.956 68.212 389.624 68.516 389.184 68.748C388.752 68.972 388.24 69.084 387.648 69.084ZM392.838 61.512C392.59 61.512 392.382 61.428 392.214 61.26C392.046 61.092 391.962 60.884 391.962 60.636C391.962 60.388 392.046 60.18 392.214 60.012C392.382 59.844 392.59 59.76 392.838 59.76C393.078 59.76 393.282 59.844 393.45 60.012C393.618 60.18 393.702 60.388 393.702 60.636C393.702 60.884 393.618 61.092 393.45 61.26C393.282 61.428 393.078 61.512 392.838 61.512ZM393.51 62.388V69H392.142V62.388H393.51ZM396.518 67.884H399.518V69H394.934V67.884L397.946 63.504H394.934V62.388H399.518V63.504L396.518 67.884ZM407.015 65.532C407.015 65.78 406.999 66.004 406.967 66.204H401.915C401.955 66.732 402.151 67.156 402.503 67.476C402.855 67.796 403.287 67.956 403.799 67.956C404.535 67.956 405.055 67.648 405.359 67.032H406.835C406.635 67.64 406.271 68.14 405.743 68.532C405.223 68.916 404.575 69.108 403.799 69.108C403.167 69.108 402.599 68.968 402.095 68.688C401.599 68.4 401.207 68 400.919 67.488C400.639 66.968 400.499 66.368 400.499 65.688C400.499 65.008 400.635 64.412 400.907 63.9C401.187 63.38 401.575 62.98 402.071 62.7C402.575 62.42 403.151 62.28 403.799 62.28C404.423 62.28 404.979 62.416 405.467 62.688C405.955 62.96 406.335 63.344 406.607 63.84C406.879 64.328 407.015 64.892 407.015 65.532ZM405.587 65.1C405.579 64.596 405.399 64.192 405.047 63.888C404.695 63.584 404.259 63.432 403.739 63.432C403.267 63.432 402.863 63.584 402.527 63.888C402.191 64.184 401.991 64.588 401.927 65.1H405.587Z" fill="white"/>
</g>
<defs>
<clipPath id="clip0_185_5">
<rect width="480" height="360" fill="white"/>
</clipPath>
</defs>
</svg>
