<svg width="450" height="360" viewBox="0 0 450 360" fill="none" xmlns="http://www.w3.org/2000/svg">
<rect width="450" height="40" rx="15" fill="black" fill-opacity="0.1"/>
<path d="M23.648 24.084C23.088 24.084 22.584 23.988 22.136 23.796C21.688 23.596 21.336 23.316 21.08 22.956C20.824 22.596 20.696 22.176 20.696 21.696H22.16C22.192 22.056 22.332 22.352 22.58 22.584C22.836 22.816 23.192 22.932 23.648 22.932C24.12 22.932 24.488 22.82 24.752 22.596C25.016 22.364 25.148 22.068 25.148 21.708C25.148 21.428 25.064 21.2 24.896 21.024C24.736 20.848 24.532 20.712 24.284 20.616C24.044 20.52 23.708 20.416 23.276 20.304C22.732 20.16 22.288 20.016 21.944 19.872C21.608 19.72 21.32 19.488 21.08 19.176C20.84 18.864 20.72 18.448 20.72 17.928C20.72 17.448 20.84 17.028 21.08 16.668C21.32 16.308 21.656 16.032 22.088 15.84C22.52 15.648 23.02 15.552 23.588 15.552C24.396 15.552 25.056 15.756 25.568 16.164C26.088 16.564 26.376 17.116 26.432 17.82H24.92C24.896 17.516 24.752 17.256 24.488 17.04C24.224 16.824 23.876 16.716 23.444 16.716C23.052 16.716 22.732 16.816 22.484 17.016C22.236 17.216 22.112 17.504 22.112 17.88C22.112 18.136 22.188 18.348 22.34 18.516C22.5 18.676 22.7 18.804 22.94 18.9C23.18 18.996 23.508 19.1 23.924 19.212C24.476 19.364 24.924 19.516 25.268 19.668C25.62 19.82 25.916 20.056 26.156 20.376C26.404 20.688 26.528 21.108 26.528 21.636C26.528 22.06 26.412 22.46 26.18 22.836C25.956 23.212 25.624 23.516 25.184 23.748C24.752 23.972 24.24 24.084 23.648 24.084ZM29.7382 18.504V22.164C29.7382 22.412 29.7942 22.592 29.9062 22.704C30.0262 22.808 30.2262 22.86 30.5062 22.86H31.3462V24H30.2662C29.6502 24 29.1782 23.856 28.8502 23.568C28.5222 23.28 28.3582 22.812 28.3582 22.164V18.504H27.5782V17.388H28.3582V15.744H29.7382V17.388H31.3462V18.504H29.7382ZM35.475 24.108C34.851 24.108 34.287 23.968 33.783 23.688C33.279 23.4 32.883 23 32.595 22.488C32.307 21.968 32.163 21.368 32.163 20.688C32.163 20.016 32.311 19.42 32.607 18.9C32.903 18.38 33.307 17.98 33.819 17.7C34.331 17.42 34.903 17.28 35.535 17.28C36.167 17.28 36.739 17.42 37.251 17.7C37.763 17.98 38.167 18.38 38.463 18.9C38.759 19.42 38.907 20.016 38.907 20.688C38.907 21.36 38.755 21.956 38.451 22.476C38.147 22.996 37.731 23.4 37.203 23.688C36.683 23.968 36.107 24.108 35.475 24.108ZM35.475 22.92C35.827 22.92 36.155 22.836 36.459 22.668C36.771 22.5 37.023 22.248 37.215 21.912C37.407 21.576 37.503 21.168 37.503 20.688C37.503 20.208 37.411 19.804 37.227 19.476C37.043 19.14 36.799 18.888 36.495 18.72C36.191 18.552 35.863 18.468 35.511 18.468C35.159 18.468 34.831 18.552 34.527 18.72C34.231 18.888 33.995 19.14 33.819 19.476C33.643 19.804 33.555 20.208 33.555 20.688C33.555 21.4 33.735 21.952 34.095 22.344C34.463 22.728 34.923 22.92 35.475 22.92ZM41.6274 18.348C41.8274 18.012 42.0914 17.752 42.4194 17.568C42.7554 17.376 43.1514 17.28 43.6074 17.28V18.696H43.2594C42.7234 18.696 42.3154 18.832 42.0354 19.104C41.7634 19.376 41.6274 19.848 41.6274 20.52V24H40.2594V17.388H41.6274V18.348ZM50.8168 17.388L46.7608 27.108H45.3448L46.6888 23.892L44.0848 17.388H45.6088L47.4688 22.428L49.4008 17.388H50.8168ZM53.4452 18.504V22.164C53.4452 22.412 53.5012 22.592 53.6132 22.704C53.7332 22.808 53.9332 22.86 54.2132 22.86H55.0532V24H53.9732C53.3572 24 52.8852 23.856 52.5572 23.568C52.2292 23.28 52.0652 22.812 52.0652 22.164V18.504H51.2852V17.388H52.0652V15.744H53.4452V17.388H55.0532V18.504H53.4452ZM57.0101 16.512C56.7621 16.512 56.5541 16.428 56.3861 16.26C56.2181 16.092 56.1341 15.884 56.1341 15.636C56.1341 15.388 56.2181 15.18 56.3861 15.012C56.5541 14.844 56.7621 14.76 57.0101 14.76C57.2501 14.76 57.4541 14.844 57.6221 15.012C57.7901 15.18 57.8741 15.388 57.8741 15.636C57.8741 15.884 57.7901 16.092 57.6221 16.26C57.4541 16.428 57.2501 16.512 57.0101 16.512ZM57.6821 17.388V24H56.3141V17.388H57.6821ZM67.4821 17.28C68.0021 17.28 68.4661 17.388 68.8741 17.604C69.2901 17.82 69.6141 18.14 69.8461 18.564C70.0861 18.988 70.2061 19.5 70.2061 20.1V24H68.8501V20.304C68.8501 19.712 68.7021 19.26 68.4061 18.948C68.1101 18.628 67.7061 18.468 67.1941 18.468C66.6821 18.468 66.2741 18.628 65.9701 18.948C65.6741 19.26 65.5261 19.712 65.5261 20.304V24H64.1701V20.304C64.1701 19.712 64.0221 19.26 63.7261 18.948C63.4301 18.628 63.0261 18.468 62.5141 18.468C62.0021 18.468 61.5941 18.628 61.2901 18.948C60.9941 19.26 60.8461 19.712 60.8461 20.304V24H59.4781V17.388H60.8461V18.144C61.0701 17.872 61.3541 17.66 61.6981 17.508C62.0421 17.356 62.4101 17.28 62.8021 17.28C63.3301 17.28 63.8021 17.392 64.2181 17.616C64.6341 17.84 64.9541 18.164 65.1781 18.588C65.3781 18.188 65.6901 17.872 66.1141 17.64C66.5381 17.4 66.9941 17.28 67.4821 17.28ZM78.0069 20.532C78.0069 20.78 77.9909 21.004 77.9589 21.204H72.9069C72.9469 21.732 73.1429 22.156 73.4949 22.476C73.8469 22.796 74.2789 22.956 74.7909 22.956C75.5269 22.956 76.0469 22.648 76.3509 22.032H77.8269C77.6269 22.64 77.2629 23.14 76.7349 23.532C76.2149 23.916 75.5669 24.108 74.7909 24.108C74.1589 24.108 73.5909 23.968 73.0869 23.688C72.5909 23.4 72.1989 23 71.9109 22.488C71.6309 21.968 71.4909 21.368 71.4909 20.688C71.4909 20.008 71.6269 19.412 71.8989 18.9C72.1789 18.38 72.5669 17.98 73.0629 17.7C73.5669 17.42 74.1429 17.28 74.7909 17.28C75.4149 17.28 75.9709 17.416 76.4589 17.688C76.9469 17.96 77.3269 18.344 77.5989 18.84C77.8709 19.328 78.0069 19.892 78.0069 20.532ZM76.5789 20.1C76.5709 19.596 76.3909 19.192 76.0389 18.888C75.6869 18.584 75.2509 18.432 74.7309 18.432C74.2589 18.432 73.8549 18.584 73.5189 18.888C73.1829 19.184 72.9829 19.588 72.9189 20.1H76.5789Z" fill="black"/>
<path d="M238.07 17.05V24H236.93V19.24L234.81 24H234.02L231.89 19.24V24H230.75V17.05H231.98L234.42 22.5L236.85 17.05H238.07ZM244.528 18.49L241.148 26.59H239.968L241.088 23.91L238.918 18.49H240.188L241.738 22.69L243.348 18.49H244.528ZM250.379 18.49V24H249.239V23.35C249.059 23.5767 248.822 23.7567 248.529 23.89C248.242 24.0167 247.935 24.08 247.609 24.08C247.175 24.08 246.785 23.99 246.439 23.81C246.099 23.63 245.829 23.3633 245.629 23.01C245.435 22.6567 245.339 22.23 245.339 21.73V18.49H246.469V21.56C246.469 22.0533 246.592 22.4333 246.839 22.7C247.085 22.96 247.422 23.09 247.849 23.09C248.275 23.09 248.612 22.96 248.859 22.7C249.112 22.4333 249.239 22.0533 249.239 21.56V18.49H250.379ZM256.873 18.49V24H255.733V23.35C255.553 23.5767 255.316 23.7567 255.023 23.89C254.736 24.0167 254.429 24.08 254.103 24.08C253.669 24.08 253.279 23.99 252.933 23.81C252.593 23.63 252.323 23.3633 252.123 23.01C251.929 22.6567 251.833 22.23 251.833 21.73V18.49H252.963V21.56C252.963 22.0533 253.086 22.4333 253.333 22.7C253.579 22.96 253.916 23.09 254.343 23.09C254.769 23.09 255.106 22.96 255.353 22.7C255.606 22.4333 255.733 22.0533 255.733 21.56V18.49H256.873Z" fill="#808080"/>
<path d="M410.595 22.45C411.235 21.8967 411.739 21.4433 412.105 21.09C412.479 20.73 412.789 20.3567 413.035 19.97C413.282 19.5833 413.405 19.1967 413.405 18.81C413.405 18.41 413.309 18.0967 413.115 17.87C412.929 17.6433 412.632 17.53 412.225 17.53C411.832 17.53 411.525 17.6567 411.305 17.91C411.092 18.1567 410.979 18.49 410.965 18.91H409.865C409.885 18.15 410.112 17.57 410.545 17.17C410.985 16.7633 411.542 16.56 412.215 16.56C412.942 16.56 413.509 16.76 413.915 17.16C414.329 17.56 414.535 18.0933 414.535 18.76C414.535 19.24 414.412 19.7033 414.165 20.15C413.925 20.59 413.635 20.9867 413.295 21.34C412.962 21.6867 412.535 22.09 412.015 22.55L411.565 22.95H414.735V23.9H409.875V23.07L410.595 22.45ZM416.347 24.07C416.14 24.07 415.967 24 415.827 23.86C415.687 23.72 415.617 23.5467 415.617 23.34C415.617 23.1333 415.687 22.96 415.827 22.82C415.967 22.68 416.14 22.61 416.347 22.61C416.547 22.61 416.717 22.68 416.857 22.82C416.997 22.96 417.067 23.1333 417.067 23.34C417.067 23.5467 416.997 23.72 416.857 23.86C416.717 24 416.547 24.07 416.347 24.07ZM416.347 19.87C416.14 19.87 415.967 19.8 415.827 19.66C415.687 19.52 415.617 19.3467 415.617 19.14C415.617 18.9333 415.687 18.76 415.827 18.62C415.967 18.48 416.14 18.41 416.347 18.41C416.547 18.41 416.717 18.48 416.857 18.62C416.997 18.76 417.067 18.9333 417.067 19.14C417.067 19.3467 416.997 19.52 416.857 19.66C416.717 19.8 416.547 19.87 416.347 19.87ZM418.168 18.51C418.208 17.89 418.445 17.4067 418.878 17.06C419.318 16.7133 419.878 16.54 420.558 16.54C421.025 16.54 421.428 16.6233 421.768 16.79C422.108 16.9567 422.365 17.1833 422.538 17.47C422.711 17.7567 422.798 18.08 422.798 18.44C422.798 18.8533 422.688 19.2067 422.468 19.5C422.248 19.7933 421.985 19.99 421.678 20.09V20.13C422.071 20.25 422.378 20.47 422.598 20.79C422.818 21.1033 422.928 21.5067 422.928 22C422.928 22.3933 422.838 22.7433 422.658 23.05C422.478 23.3567 422.211 23.6 421.858 23.78C421.505 23.9533 421.081 24.04 420.588 24.04C419.868 24.04 419.275 23.8567 418.808 23.49C418.348 23.1167 418.101 22.5833 418.068 21.89H419.168C419.195 22.2433 419.331 22.5333 419.578 22.76C419.825 22.98 420.158 23.09 420.578 23.09C420.985 23.09 421.298 22.98 421.518 22.76C421.738 22.5333 421.848 22.2433 421.848 21.89C421.848 21.4233 421.698 21.0933 421.398 20.9C421.105 20.7 420.651 20.6 420.038 20.6H419.778V19.66H420.048C420.588 19.6533 420.998 19.5633 421.278 19.39C421.565 19.2167 421.708 18.9433 421.708 18.57C421.708 18.25 421.605 17.9967 421.398 17.81C421.191 17.6167 420.898 17.52 420.518 17.52C420.145 17.52 419.855 17.6167 419.648 17.81C419.441 17.9967 419.318 18.23 419.278 18.51H418.168ZM423.985 22.48V21.62L427.345 16.8H428.725V21.49H429.655V22.48H428.725V24H427.605V22.48H423.985ZM427.655 17.96L425.295 21.49H427.655V17.96Z" fill="#808080"/>
</svg>
