<svg xmlns="http://www.w3.org/2000/svg" fill="none" viewBox="0 0 140 42" height="42" width="140">
<path fill="black" d="M5.364 20.716C5.812 20.796 6.192 21.032 6.504 21.424C6.816 21.816 6.972 22.26 6.972 22.756C6.972 23.18 6.86 23.564 6.636 23.908C6.42 24.244 6.104 24.512 5.688 24.712C5.272 24.904 4.788 25 4.236 25H0.9V16.66H4.08C4.648 16.66 5.136 16.756 5.544 16.948C5.952 17.14 6.26 17.4 6.468 17.728C6.676 18.048 6.78 18.408 6.78 18.808C6.78 19.288 6.652 19.688 6.396 20.008C6.14 20.328 5.796 20.564 5.364 20.716ZM2.268 20.164H3.96C4.408 20.164 4.756 20.064 5.004 19.864C5.26 19.656 5.388 19.36 5.388 18.976C5.388 18.6 5.26 18.308 5.004 18.1C4.756 17.884 4.408 17.776 3.96 17.776H2.268V20.164ZM4.116 23.884C4.58 23.884 4.944 23.772 5.208 23.548C5.472 23.324 5.604 23.012 5.604 22.612C5.604 22.204 5.464 21.88 5.184 21.64C4.904 21.4 4.532 21.28 4.068 21.28H2.268V23.884H4.116ZM8.00259 21.664C8.00259 21 8.13859 20.412 8.41059 19.9C8.69059 19.388 9.06659 18.992 9.53859 18.712C10.0186 18.424 10.5466 18.28 11.1226 18.28C11.6426 18.28 12.0946 18.384 12.4786 18.592C12.8706 18.792 13.1826 19.044 13.4146 19.348V18.388H14.7946V25H13.4146V24.016C13.1826 24.328 12.8666 24.588 12.4666 24.796C12.0666 25.004 11.6106 25.108 11.0986 25.108C10.5306 25.108 10.0106 24.964 9.53859 24.676C9.06659 24.38 8.69059 23.972 8.41059 23.452C8.13859 22.924 8.00259 22.328 8.00259 21.664ZM13.4146 21.688C13.4146 21.232 13.3186 20.836 13.1266 20.5C12.9426 20.164 12.6986 19.908 12.3946 19.732C12.0906 19.556 11.7626 19.468 11.4106 19.468C11.0586 19.468 10.7306 19.556 10.4266 19.732C10.1226 19.9 9.87459 20.152 9.68259 20.488C9.49859 20.816 9.40659 21.208 9.40659 21.664C9.40659 22.12 9.49859 22.52 9.68259 22.864C9.87459 23.208 10.1226 23.472 10.4266 23.656C10.7386 23.832 11.0666 23.92 11.4106 23.92C11.7626 23.92 12.0906 23.832 12.3946 23.656C12.6986 23.48 12.9426 23.224 13.1266 22.888C13.3186 22.544 13.4146 22.144 13.4146 21.688ZM18.9914 25.108C18.4714 25.108 18.0034 25.016 17.5874 24.832C17.1794 24.64 16.8554 24.384 16.6154 24.064C16.3754 23.736 16.2474 23.372 16.2314 22.972H17.6474C17.6714 23.252 17.8034 23.488 18.0434 23.68C18.2914 23.864 18.5994 23.956 18.9674 23.956C19.3514 23.956 19.6474 23.884 19.8554 23.74C20.0714 23.588 20.1794 23.396 20.1794 23.164C20.1794 22.916 20.0594 22.732 19.8194 22.612C19.5874 22.492 19.2154 22.36 18.7034 22.216C18.2074 22.08 17.8034 21.948 17.4914 21.82C17.1794 21.692 16.9074 21.496 16.6754 21.232C16.4514 20.968 16.3394 20.62 16.3394 20.188C16.3394 19.836 16.4434 19.516 16.6514 19.228C16.8594 18.932 17.1554 18.7 17.5394 18.532C17.9314 18.364 18.3794 18.28 18.8834 18.28C19.6354 18.28 20.2394 18.472 20.6954 18.856C21.1594 19.232 21.4074 19.748 21.4394 20.404H20.0714C20.0474 20.108 19.9274 19.872 19.7114 19.696C19.4954 19.52 19.2034 19.432 18.8354 19.432C18.4754 19.432 18.1994 19.5 18.0074 19.636C17.8154 19.772 17.7194 19.952 17.7194 20.176C17.7194 20.352 17.7834 20.5 17.9114 20.62C18.0394 20.74 18.1954 20.836 18.3794 20.908C18.5634 20.972 18.8354 21.056 19.1954 21.16C19.6754 21.288 20.0674 21.42 20.3714 21.556C20.6834 21.684 20.9514 21.876 21.1754 22.132C21.3994 22.388 21.5154 22.728 21.5234 23.152C21.5234 23.528 21.4194 23.864 21.2114 24.16C21.0034 24.456 20.7074 24.688 20.3234 24.856C19.9474 25.024 19.5034 25.108 18.9914 25.108ZM25.4016 25.108C24.8816 25.108 24.4136 25.016 23.9976 24.832C23.5896 24.64 23.2656 24.384 23.0256 24.064C22.7856 23.736 22.6576 23.372 22.6416 22.972H24.0576C24.0816 23.252 24.2136 23.488 24.4536 23.68C24.7016 23.864 25.0096 23.956 25.3776 23.956C25.7616 23.956 26.0576 23.884 26.2656 23.74C26.4816 23.588 26.5896 23.396 26.5896 23.164C26.5896 22.916 26.4696 22.732 26.2296 22.612C25.9976 22.492 25.6256 22.36 25.1136 22.216C24.6176 22.08 24.2136 21.948 23.9016 21.82C23.5896 21.692 23.3176 21.496 23.0856 21.232C22.8616 20.968 22.7496 20.62 22.7496 20.188C22.7496 19.836 22.8536 19.516 23.0616 19.228C23.2696 18.932 23.5656 18.7 23.9496 18.532C24.3416 18.364 24.7896 18.28 25.2936 18.28C26.0456 18.28 26.6496 18.472 27.1056 18.856C27.5696 19.232 27.8176 19.748 27.8496 20.404H26.4816C26.4576 20.108 26.3376 19.872 26.1216 19.696C25.9056 19.52 25.6136 19.432 25.2456 19.432C24.8856 19.432 24.6096 19.5 24.4176 19.636C24.2256 19.772 24.1296 19.952 24.1296 20.176C24.1296 20.352 24.1936 20.5 24.3216 20.62C24.4496 20.74 24.6056 20.836 24.7896 20.908C24.9736 20.972 25.2456 21.056 25.6056 21.16C26.0856 21.288 26.4776 21.42 26.7816 21.556C27.0936 21.684 27.3616 21.876 27.5856 22.132C27.8096 22.388 27.9256 22.728 27.9336 23.152C27.9336 23.528 27.8296 23.864 27.6216 24.16C27.4136 24.456 27.1176 24.688 26.7336 24.856C26.3576 25.024 25.9136 25.108 25.4016 25.108ZM32.2797 25.108C31.6557 25.108 31.0917 24.968 30.5877 24.688C30.0837 24.4 29.6877 24 29.3997 23.488C29.1117 22.968 28.9677 22.368 28.9677 21.688C28.9677 21.016 29.1157 20.42 29.4117 19.9C29.7077 19.38 30.1117 18.98 30.6237 18.7C31.1357 18.42 31.7077 18.28 32.3397 18.28C32.9717 18.28 33.5437 18.42 34.0557 18.7C34.5677 18.98 34.9717 19.38 35.2677 19.9C35.5637 20.42 35.7117 21.016 35.7117 21.688C35.7117 22.36 35.5597 22.956 35.2557 23.476C34.9517 23.996 34.5357 24.4 34.0077 24.688C33.4877 24.968 32.9117 25.108 32.2797 25.108ZM32.2797 23.92C32.6317 23.92 32.9597 23.836 33.2637 23.668C33.5757 23.5 33.8277 23.248 34.0197 22.912C34.2117 22.576 34.3077 22.168 34.3077 21.688C34.3077 21.208 34.2157 20.804 34.0317 20.476C33.8477 20.14 33.6037 19.888 33.2997 19.72C32.9957 19.552 32.6677 19.468 32.3157 19.468C31.9637 19.468 31.6357 19.552 31.3317 19.72C31.0357 19.888 30.7997 20.14 30.6237 20.476C30.4477 20.804 30.3597 21.208 30.3597 21.688C30.3597 22.4 30.5397 22.952 30.8997 23.344C31.2677 23.728 31.7277 23.92 32.2797 23.92ZM39.9321 25.108C39.3081 25.108 38.7441 24.968 38.2401 24.688C37.7361 24.4 37.3401 24 37.0521 23.488C36.7641 22.968 36.6201 22.368 36.6201 21.688C36.6201 21.016 36.7681 20.42 37.0641 19.9C37.3601 19.38 37.7641 18.98 38.2761 18.7C38.7881 18.42 39.3601 18.28 39.9921 18.28C40.6241 18.28 41.1961 18.42 41.7081 18.7C42.2201 18.98 42.6241 19.38 42.9201 19.9C43.2161 20.42 43.3641 21.016 43.3641 21.688C43.3641 22.36 43.2121 22.956 42.9081 23.476C42.6041 23.996 42.1881 24.4 41.6601 24.688C41.1401 24.968 40.5641 25.108 39.9321 25.108ZM39.9321 23.92C40.2841 23.92 40.6121 23.836 40.9161 23.668C41.2281 23.5 41.4801 23.248 41.6721 22.912C41.8641 22.576 41.9601 22.168 41.9601 21.688C41.9601 21.208 41.8681 20.804 41.6841 20.476C41.5001 20.14 41.2561 19.888 40.9521 19.72C40.6481 19.552 40.3201 19.468 39.9681 19.468C39.6161 19.468 39.2881 19.552 38.9841 19.72C38.6881 19.888 38.4521 20.14 38.2761 20.476C38.1001 20.804 38.0121 21.208 38.0121 21.688C38.0121 22.4 38.1921 22.952 38.5521 23.344C38.9201 23.728 39.3801 23.92 39.9321 23.92ZM48.0524 18.28C48.5724 18.28 49.0364 18.388 49.4444 18.604C49.8604 18.82 50.1844 19.14 50.4164 19.564C50.6484 19.988 50.7644 20.5 50.7644 21.1V25H49.4084V21.304C49.4084 20.712 49.2604 20.26 48.9644 19.948C48.6684 19.628 48.2644 19.468 47.7524 19.468C47.2404 19.468 46.8324 19.628 46.5284 19.948C46.2324 20.26 46.0844 20.712 46.0844 21.304V25H44.7164V18.388H46.0844V19.144C46.3084 18.872 46.5924 18.66 46.9364 18.508C47.2884 18.356 47.6604 18.28 48.0524 18.28Z"></path>
</svg>
