<svg width="480" height="360" viewBox="0 0 480 360" fill="none" xmlns="http://www.w3.org/2000/svg">
<path d="M0 0H480V80C480 91.0457 471.046 100 460 100H20C8.95431 100 0 91.0457 0 80V0Z" fill="#191919" fill-opacity="0.75"/>
<rect x="177.5" y="20.5" width="9" height="9" rx="4.5" stroke="white" stroke-width="3"/>
<path d="M180.272 17.6838C180.408 17.2754 180.79 17 181.221 17H182.779C183.21 17 183.592 17.2754 183.728 17.6838L184.5 20H179.5L180.272 17.6838Z" fill="white"/>
<path d="M183.728 32.3162C183.592 32.7246 183.21 33 182.779 33L181.221 33C180.79 33 180.408 32.7246 180.272 32.3162L179.5 30L184.5 30L183.728 32.3162Z" fill="white"/>
<path d="M174.8 22.8383C174.514 22.5162 174.467 22.0476 174.682 21.6748L175.461 20.3251C175.677 19.9524 176.106 19.7591 176.528 19.8454L178.92 20.3349L176.42 24.665L174.8 22.8383Z" fill="white"/>
<path d="M189.2 27.1617C189.486 27.4838 189.533 27.9524 189.318 28.3252L188.539 29.6749C188.323 30.0476 187.894 30.2409 187.472 30.1546L185.08 29.6651L187.58 25.335L189.2 27.1617Z" fill="white"/>
<path d="M187.472 19.8455C187.894 19.7592 188.323 19.9524 188.539 20.3252L189.318 21.6749C189.533 22.0476 189.486 22.5163 189.2 22.8383L187.58 24.6651L185.08 20.335L187.472 19.8455Z" fill="white"/>
<path d="M176.528 30.1545C176.106 30.2408 175.677 30.0476 175.461 29.6748L174.682 28.3251C174.467 27.9524 174.514 27.4837 174.8 27.1617L176.42 25.3349L178.92 29.665L176.528 30.1545Z" fill="white"/>
<path d="M211.864 31.112C211.117 31.112 210.445 30.984 209.848 30.728C209.251 30.4613 208.781 30.088 208.44 29.608C208.099 29.128 207.928 28.568 207.928 27.928H209.88C209.923 28.408 210.109 28.8027 210.44 29.112C210.781 29.4213 211.256 29.576 211.864 29.576C212.493 29.576 212.984 29.4267 213.336 29.128C213.688 28.8187 213.864 28.424 213.864 27.944C213.864 27.5707 213.752 27.2667 213.528 27.032C213.315 26.7973 213.043 26.616 212.712 26.488C212.392 26.36 211.944 26.2213 211.368 26.072C210.643 25.88 210.051 25.688 209.592 25.496C209.144 25.2933 208.76 24.984 208.44 24.568C208.12 24.152 207.96 23.5973 207.96 22.904C207.96 22.264 208.12 21.704 208.44 21.224C208.76 20.744 209.208 20.376 209.784 20.12C210.36 19.864 211.027 19.736 211.784 19.736C212.861 19.736 213.741 20.008 214.424 20.552C215.117 21.0853 215.501 21.8213 215.576 22.76H213.56C213.528 22.3547 213.336 22.008 212.984 21.72C212.632 21.432 212.168 21.288 211.592 21.288C211.069 21.288 210.643 21.4213 210.312 21.688C209.981 21.9547 209.816 22.3387 209.816 22.84C209.816 23.1813 209.917 23.464 210.12 23.688C210.333 23.9013 210.6 24.072 210.92 24.2C211.24 24.328 211.677 24.4667 212.232 24.616C212.968 24.8187 213.565 25.0213 214.024 25.224C214.493 25.4267 214.888 25.7413 215.208 26.168C215.539 26.584 215.704 27.144 215.704 27.848C215.704 28.4133 215.549 28.9467 215.24 29.448C214.941 29.9493 214.499 30.3547 213.912 30.664C213.336 30.9627 212.653 31.112 211.864 31.112ZM225.936 26.376C225.936 26.7067 225.915 27.0053 225.872 27.272H219.136C219.19 27.976 219.451 28.5413 219.92 28.968C220.39 29.3947 220.966 29.608 221.648 29.608C222.63 29.608 223.323 29.1973 223.728 28.376H225.696C225.43 29.1867 224.944 29.8533 224.24 30.376C223.547 30.888 222.683 31.144 221.648 31.144C220.806 31.144 220.048 30.9573 219.376 30.584C218.715 30.2 218.192 29.6667 217.808 28.984C217.435 28.2907 217.248 27.4907 217.248 26.584C217.248 25.6773 217.43 24.8827 217.792 24.2C218.166 23.5067 218.683 22.9733 219.344 22.6C220.016 22.2267 220.784 22.04 221.648 22.04C222.48 22.04 223.222 22.2213 223.872 22.584C224.523 22.9467 225.03 23.4587 225.392 24.12C225.755 24.7707 225.936 25.5227 225.936 26.376ZM224.032 25.8C224.022 25.128 223.782 24.5893 223.312 24.184C222.843 23.7787 222.262 23.576 221.568 23.576C220.939 23.576 220.4 23.7787 219.952 24.184C219.504 24.5787 219.238 25.1173 219.152 25.8H224.032ZM229.859 23.672V28.552C229.859 28.8827 229.934 29.1227 230.083 29.272C230.243 29.4107 230.51 29.48 230.883 29.48H232.003V31H230.563C229.742 31 229.113 30.808 228.675 30.424C228.238 30.04 228.019 29.416 228.019 28.552V23.672H226.979V22.184H228.019V19.992H229.859V22.184H232.003V23.672H229.859ZM235.812 23.672V28.552C235.812 28.8827 235.887 29.1227 236.036 29.272C236.196 29.4107 236.463 29.48 236.836 29.48H237.956V31H236.516C235.695 31 235.066 30.808 234.628 30.424C234.191 30.04 233.972 29.416 233.972 28.552V23.672H232.932V22.184H233.972V19.992H235.812V22.184H237.956V23.672H235.812ZM240.566 21.016C240.235 21.016 239.958 20.904 239.734 20.68C239.51 20.456 239.398 20.1787 239.398 19.848C239.398 19.5173 239.51 19.24 239.734 19.016C239.958 18.792 240.235 18.68 240.566 18.68C240.886 18.68 241.158 18.792 241.382 19.016C241.606 19.24 241.718 19.5173 241.718 19.848C241.718 20.1787 241.606 20.456 241.382 20.68C241.158 20.904 240.886 21.016 240.566 21.016ZM241.462 22.184V31H239.638V22.184H241.462ZM248.304 22.04C248.998 22.04 249.616 22.184 250.16 22.472C250.715 22.76 251.147 23.1867 251.456 23.752C251.766 24.3173 251.92 25 251.92 25.8V31H250.112V26.072C250.112 25.2827 249.915 24.68 249.52 24.264C249.126 23.8373 248.587 23.624 247.904 23.624C247.222 23.624 246.678 23.8373 246.272 24.264C245.878 24.68 245.68 25.2827 245.68 26.072V31H243.856V22.184H245.68V23.192C245.979 22.8293 246.358 22.5467 246.816 22.344C247.286 22.1413 247.782 22.04 248.304 22.04ZM257.799 22.04C258.482 22.04 259.084 22.1787 259.607 22.456C260.14 22.7227 260.556 23.0587 260.855 23.464V22.184H262.695V31.144C262.695 31.9547 262.524 32.6747 262.183 33.304C261.842 33.944 261.346 34.4453 260.695 34.808C260.055 35.1707 259.287 35.352 258.391 35.352C257.196 35.352 256.204 35.0693 255.415 34.504C254.626 33.9493 254.178 33.192 254.071 32.232H255.879C256.018 32.6907 256.311 33.0587 256.759 33.336C257.218 33.624 257.762 33.768 258.391 33.768C259.127 33.768 259.719 33.544 260.167 33.096C260.626 32.648 260.855 31.9973 260.855 31.144V29.672C260.546 30.088 260.124 30.44 259.591 30.728C259.068 31.0053 258.471 31.144 257.799 31.144C257.031 31.144 256.327 30.952 255.687 30.568C255.058 30.1733 254.556 29.6293 254.183 28.936C253.82 28.232 253.639 27.4373 253.639 26.552C253.639 25.6667 253.82 24.8827 254.183 24.2C254.556 23.5173 255.058 22.9893 255.687 22.616C256.327 22.232 257.031 22.04 257.799 22.04ZM260.855 26.584C260.855 25.976 260.727 25.448 260.471 25C260.226 24.552 259.9 24.2107 259.495 23.976C259.09 23.7413 258.652 23.624 258.183 23.624C257.714 23.624 257.276 23.7413 256.871 23.976C256.466 24.2 256.135 24.536 255.879 24.984C255.634 25.4213 255.511 25.944 255.511 26.552C255.511 27.16 255.634 27.6933 255.879 28.152C256.135 28.6107 256.466 28.9627 256.871 29.208C257.287 29.4427 257.724 29.56 258.183 29.56C258.652 29.56 259.09 29.4427 259.495 29.208C259.9 28.9733 260.226 28.632 260.471 28.184C260.727 27.7253 260.855 27.192 260.855 26.584ZM268.291 31.144C267.597 31.144 266.973 31.0213 266.419 30.776C265.875 30.52 265.443 30.1787 265.123 29.752C264.803 29.3147 264.632 28.8293 264.611 28.296H266.499C266.531 28.6693 266.707 28.984 267.027 29.24C267.357 29.4853 267.768 29.608 268.259 29.608C268.771 29.608 269.165 29.512 269.443 29.32C269.731 29.1173 269.875 28.8613 269.875 28.552C269.875 28.2213 269.715 27.976 269.395 27.816C269.085 27.656 268.589 27.48 267.907 27.288C267.245 27.1067 266.707 26.9307 266.291 26.76C265.875 26.5893 265.512 26.328 265.203 25.976C264.904 25.624 264.755 25.16 264.755 24.584C264.755 24.1147 264.893 23.688 265.171 23.304C265.448 22.9093 265.843 22.6 266.355 22.376C266.877 22.152 267.475 22.04 268.147 22.04C269.149 22.04 269.955 22.296 270.563 22.808C271.181 23.3093 271.512 23.9973 271.555 24.872H269.731C269.699 24.4773 269.539 24.1627 269.251 23.928C268.963 23.6933 268.573 23.576 268.083 23.576C267.603 23.576 267.235 23.6667 266.979 23.848C266.723 24.0293 266.595 24.2693 266.595 24.568C266.595 24.8027 266.68 25 266.851 25.16C267.021 25.32 267.229 25.448 267.475 25.544C267.72 25.6293 268.083 25.7413 268.563 25.88C269.203 26.0507 269.725 26.2267 270.131 26.408C270.547 26.5787 270.904 26.8347 271.203 27.176C271.501 27.5173 271.656 27.9707 271.667 28.536C271.667 29.0373 271.528 29.4853 271.251 29.88C270.973 30.2747 270.579 30.584 270.067 30.808C269.565 31.032 268.973 31.144 268.291 31.144Z" fill="white"/>
<path d="M88.7506 60.812C88.7506 59.996 88.9386 59.264 89.3146 58.616C89.6986 57.968 90.2146 57.464 90.8626 57.104C91.5186 56.736 92.2346 56.552 93.0106 56.552C93.8986 56.552 94.6866 56.772 95.3746 57.212C96.0706 57.644 96.5746 58.26 96.8866 59.06H95.2426C95.0266 58.62 94.7266 58.292 94.3426 58.076C93.9586 57.86 93.5146 57.752 93.0106 57.752C92.4586 57.752 91.9666 57.876 91.5346 58.124C91.1026 58.372 90.7626 58.728 90.5146 59.192C90.2746 59.656 90.1546 60.196 90.1546 60.812C90.1546 61.428 90.2746 61.968 90.5146 62.432C90.7626 62.896 91.1026 63.256 91.5346 63.512C91.9666 63.76 92.4586 63.884 93.0106 63.884C93.5146 63.884 93.9586 63.776 94.3426 63.56C94.7266 63.344 95.0266 63.016 95.2426 62.576H96.8866C96.5746 63.376 96.0706 63.992 95.3746 64.424C94.6866 64.856 93.8986 65.072 93.0106 65.072C92.2266 65.072 91.5106 64.892 90.8626 64.532C90.2146 64.164 89.6986 63.656 89.3146 63.008C88.9386 62.36 88.7506 61.628 88.7506 60.812ZM101.356 65.108C100.732 65.108 100.168 64.968 99.6639 64.688C99.1599 64.4 98.7639 64 98.4759 63.488C98.1879 62.968 98.0439 62.368 98.0439 61.688C98.0439 61.016 98.1919 60.42 98.4879 59.9C98.7839 59.38 99.1879 58.98 99.6999 58.7C100.212 58.42 100.784 58.28 101.416 58.28C102.048 58.28 102.62 58.42 103.132 58.7C103.644 58.98 104.048 59.38 104.344 59.9C104.64 60.42 104.788 61.016 104.788 61.688C104.788 62.36 104.636 62.956 104.332 63.476C104.028 63.996 103.612 64.4 103.084 64.688C102.564 64.968 101.988 65.108 101.356 65.108ZM101.356 63.92C101.708 63.92 102.036 63.836 102.34 63.668C102.652 63.5 102.904 63.248 103.096 62.912C103.288 62.576 103.384 62.168 103.384 61.688C103.384 61.208 103.292 60.804 103.108 60.476C102.924 60.14 102.68 59.888 102.376 59.72C102.072 59.552 101.744 59.468 101.392 59.468C101.04 59.468 100.712 59.552 100.408 59.72C100.112 59.888 99.8759 60.14 99.6999 60.476C99.5239 60.804 99.4359 61.208 99.4359 61.688C99.4359 62.4 99.6159 62.952 99.9759 63.344C100.344 63.728 100.804 63.92 101.356 63.92ZM109.476 58.28C109.996 58.28 110.46 58.388 110.868 58.604C111.284 58.82 111.608 59.14 111.84 59.564C112.072 59.988 112.188 60.5 112.188 61.1V65H110.832V61.304C110.832 60.712 110.684 60.26 110.388 59.948C110.092 59.628 109.688 59.468 109.176 59.468C108.664 59.468 108.256 59.628 107.952 59.948C107.656 60.26 107.508 60.712 107.508 61.304V65H106.14V58.388H107.508V59.144C107.732 58.872 108.016 58.66 108.36 58.508C108.712 58.356 109.084 58.28 109.476 58.28ZM116.597 58.28C117.109 58.28 117.561 58.384 117.953 58.592C118.353 58.792 118.665 59.044 118.889 59.348V58.388H120.269V65.108C120.269 65.716 120.141 66.256 119.885 66.728C119.629 67.208 119.257 67.584 118.769 67.856C118.289 68.128 117.713 68.264 117.041 68.264C116.145 68.264 115.401 68.052 114.809 67.628C114.217 67.212 113.881 66.644 113.801 65.924H115.157C115.261 66.268 115.481 66.544 115.817 66.752C116.161 66.968 116.569 67.076 117.041 67.076C117.593 67.076 118.037 66.908 118.373 66.572C118.717 66.236 118.889 65.748 118.889 65.108V64.004C118.657 64.316 118.341 64.58 117.941 64.796C117.549 65.004 117.101 65.108 116.597 65.108C116.021 65.108 115.493 64.964 115.013 64.676C114.541 64.38 114.165 63.972 113.885 63.452C113.613 62.924 113.477 62.328 113.477 61.664C113.477 61 113.613 60.412 113.885 59.9C114.165 59.388 114.541 58.992 115.013 58.712C115.493 58.424 116.021 58.28 116.597 58.28ZM118.889 61.688C118.889 61.232 118.793 60.836 118.601 60.5C118.417 60.164 118.173 59.908 117.869 59.732C117.565 59.556 117.237 59.468 116.885 59.468C116.533 59.468 116.205 59.556 115.901 59.732C115.597 59.9 115.349 60.152 115.157 60.488C114.973 60.816 114.881 61.208 114.881 61.664C114.881 62.12 114.973 62.52 115.157 62.864C115.349 63.208 115.597 63.472 115.901 63.656C116.213 63.832 116.541 63.92 116.885 63.92C117.237 63.92 117.565 63.832 117.869 63.656C118.173 63.48 118.417 63.224 118.601 62.888C118.793 62.544 118.889 62.144 118.889 61.688ZM123.434 59.348C123.634 59.012 123.898 58.752 124.226 58.568C124.562 58.376 124.958 58.28 125.414 58.28V59.696H125.066C124.53 59.696 124.122 59.832 123.842 60.104C123.57 60.376 123.434 60.848 123.434 61.52V65H122.066V58.388H123.434V59.348ZM126.215 61.664C126.215 61 126.351 60.412 126.623 59.9C126.903 59.388 127.279 58.992 127.751 58.712C128.231 58.424 128.759 58.28 129.335 58.28C129.855 58.28 130.307 58.384 130.691 58.592C131.083 58.792 131.395 59.044 131.627 59.348V58.388H133.007V65H131.627V64.016C131.395 64.328 131.079 64.588 130.679 64.796C130.279 65.004 129.823 65.108 129.311 65.108C128.743 65.108 128.223 64.964 127.751 64.676C127.279 64.38 126.903 63.972 126.623 63.452C126.351 62.924 126.215 62.328 126.215 61.664ZM131.627 61.688C131.627 61.232 131.531 60.836 131.339 60.5C131.155 60.164 130.911 59.908 130.607 59.732C130.303 59.556 129.975 59.468 129.623 59.468C129.271 59.468 128.943 59.556 128.639 59.732C128.335 59.9 128.087 60.152 127.895 60.488C127.711 60.816 127.619 61.208 127.619 61.664C127.619 62.12 127.711 62.52 127.895 62.864C128.087 63.208 128.335 63.472 128.639 63.656C128.951 63.832 129.279 63.92 129.623 63.92C129.975 63.92 130.303 63.832 130.607 63.656C130.911 63.48 131.155 63.224 131.339 62.888C131.531 62.544 131.627 62.144 131.627 61.688ZM136.4 59.504V63.164C136.4 63.412 136.456 63.592 136.568 63.704C136.688 63.808 136.888 63.86 137.168 63.86H138.008V65H136.928C136.312 65 135.84 64.856 135.512 64.568C135.184 64.28 135.02 63.812 135.02 63.164V59.504H134.24V58.388H135.02V56.744H136.4V58.388H138.008V59.504H136.4ZM145.257 58.388V65H143.889V64.22C143.673 64.492 143.389 64.708 143.037 64.868C142.693 65.02 142.325 65.096 141.933 65.096C141.413 65.096 140.945 64.988 140.529 64.772C140.121 64.556 139.797 64.236 139.557 63.812C139.325 63.388 139.209 62.876 139.209 62.276V58.388H140.565V62.072C140.565 62.664 140.713 63.12 141.009 63.44C141.305 63.752 141.709 63.908 142.221 63.908C142.733 63.908 143.137 63.752 143.433 63.44C143.737 63.12 143.889 62.664 143.889 62.072V58.388H145.257ZM148.43 56.12V65H147.062V56.12H148.43ZM149.77 61.664C149.77 61 149.906 60.412 150.178 59.9C150.458 59.388 150.834 58.992 151.306 58.712C151.786 58.424 152.314 58.28 152.89 58.28C153.41 58.28 153.862 58.384 154.246 58.592C154.638 58.792 154.95 59.044 155.182 59.348V58.388H156.562V65H155.182V64.016C154.95 64.328 154.634 64.588 154.234 64.796C153.834 65.004 153.378 65.108 152.866 65.108C152.298 65.108 151.778 64.964 151.306 64.676C150.834 64.38 150.458 63.972 150.178 63.452C149.906 62.924 149.77 62.328 149.77 61.664ZM155.182 61.688C155.182 61.232 155.086 60.836 154.894 60.5C154.71 60.164 154.466 59.908 154.162 59.732C153.858 59.556 153.53 59.468 153.178 59.468C152.826 59.468 152.498 59.556 152.194 59.732C151.89 59.9 151.642 60.152 151.45 60.488C151.266 60.816 151.174 61.208 151.174 61.664C151.174 62.12 151.266 62.52 151.45 62.864C151.642 63.208 151.89 63.472 152.194 63.656C152.506 63.832 152.834 63.92 153.178 63.92C153.53 63.92 153.858 63.832 154.162 63.656C154.466 63.48 154.71 63.224 154.894 62.888C155.086 62.544 155.182 62.144 155.182 61.688ZM159.955 59.504V63.164C159.955 63.412 160.011 63.592 160.123 63.704C160.243 63.808 160.443 63.86 160.723 63.86H161.563V65H160.483C159.867 65 159.395 64.856 159.067 64.568C158.739 64.28 158.575 63.812 158.575 63.164V59.504H157.795V58.388H158.575V56.744H159.955V58.388H161.563V59.504H159.955ZM163.52 57.512C163.272 57.512 163.064 57.428 162.896 57.26C162.728 57.092 162.644 56.884 162.644 56.636C162.644 56.388 162.728 56.18 162.896 56.012C163.064 55.844 163.272 55.76 163.52 55.76C163.76 55.76 163.964 55.844 164.132 56.012C164.3 56.18 164.384 56.388 164.384 56.636C164.384 56.884 164.3 57.092 164.132 57.26C163.964 57.428 163.76 57.512 163.52 57.512ZM164.192 58.388V65H162.824V58.388H164.192ZM168.856 65.108C168.232 65.108 167.668 64.968 167.164 64.688C166.66 64.4 166.264 64 165.976 63.488C165.688 62.968 165.544 62.368 165.544 61.688C165.544 61.016 165.692 60.42 165.988 59.9C166.284 59.38 166.688 58.98 167.2 58.7C167.712 58.42 168.284 58.28 168.916 58.28C169.548 58.28 170.12 58.42 170.632 58.7C171.144 58.98 171.548 59.38 171.844 59.9C172.14 60.42 172.288 61.016 172.288 61.688C172.288 62.36 172.136 62.956 171.832 63.476C171.528 63.996 171.112 64.4 170.584 64.688C170.064 64.968 169.488 65.108 168.856 65.108ZM168.856 63.92C169.208 63.92 169.536 63.836 169.84 63.668C170.152 63.5 170.404 63.248 170.596 62.912C170.788 62.576 170.884 62.168 170.884 61.688C170.884 61.208 170.792 60.804 170.608 60.476C170.424 60.14 170.18 59.888 169.876 59.72C169.572 59.552 169.244 59.468 168.892 59.468C168.54 59.468 168.212 59.552 167.908 59.72C167.612 59.888 167.376 60.14 167.2 60.476C167.024 60.804 166.936 61.208 166.936 61.688C166.936 62.4 167.116 62.952 167.476 63.344C167.844 63.728 168.304 63.92 168.856 63.92ZM176.976 58.28C177.496 58.28 177.96 58.388 178.368 58.604C178.784 58.82 179.108 59.14 179.34 59.564C179.572 59.988 179.688 60.5 179.688 61.1V65H178.332V61.304C178.332 60.712 178.184 60.26 177.888 59.948C177.592 59.628 177.188 59.468 176.676 59.468C176.164 59.468 175.756 59.628 175.452 59.948C175.156 60.26 175.008 60.712 175.008 61.304V65H173.64V58.388H175.008V59.144C175.232 58.872 175.516 58.66 175.86 58.508C176.212 58.356 176.584 58.28 176.976 58.28ZM183.149 56.66L182.993 62.48H181.853L181.697 56.66H183.149ZM182.465 65.084C182.217 65.084 182.009 65 181.841 64.832C181.673 64.664 181.589 64.456 181.589 64.208C181.589 63.96 181.673 63.752 181.841 63.584C182.009 63.416 182.217 63.332 182.465 63.332C182.705 63.332 182.909 63.416 183.077 63.584C183.245 63.752 183.329 63.96 183.329 64.208C183.329 64.456 183.245 64.664 183.077 64.832C182.909 65 182.705 65.084 182.465 65.084ZM194.586 56.66L191.826 61.976V65H190.458V61.976L187.686 56.66H189.21L191.142 60.752L193.074 56.66H194.586ZM198.539 65.108C197.915 65.108 197.351 64.968 196.847 64.688C196.343 64.4 195.947 64 195.659 63.488C195.371 62.968 195.227 62.368 195.227 61.688C195.227 61.016 195.375 60.42 195.671 59.9C195.967 59.38 196.371 58.98 196.883 58.7C197.395 58.42 197.967 58.28 198.599 58.28C199.231 58.28 199.803 58.42 200.315 58.7C200.827 58.98 201.231 59.38 201.527 59.9C201.823 60.42 201.971 61.016 201.971 61.688C201.971 62.36 201.819 62.956 201.515 63.476C201.211 63.996 200.795 64.4 200.267 64.688C199.747 64.968 199.171 65.108 198.539 65.108ZM198.539 63.92C198.891 63.92 199.219 63.836 199.523 63.668C199.835 63.5 200.087 63.248 200.279 62.912C200.471 62.576 200.567 62.168 200.567 61.688C200.567 61.208 200.475 60.804 200.291 60.476C200.107 60.14 199.863 59.888 199.559 59.72C199.255 59.552 198.927 59.468 198.575 59.468C198.223 59.468 197.895 59.552 197.591 59.72C197.295 59.888 197.059 60.14 196.883 60.476C196.707 60.804 196.619 61.208 196.619 61.688C196.619 62.4 196.799 62.952 197.159 63.344C197.527 63.728 197.987 63.92 198.539 63.92ZM209.312 58.388V65H207.944V64.22C207.728 64.492 207.444 64.708 207.092 64.868C206.748 65.02 206.38 65.096 205.988 65.096C205.468 65.096 205 64.988 204.584 64.772C204.176 64.556 203.852 64.236 203.612 63.812C203.38 63.388 203.264 62.876 203.264 62.276V58.388H204.62V62.072C204.62 62.664 204.768 63.12 205.064 63.44C205.36 63.752 205.764 63.908 206.276 63.908C206.788 63.908 207.192 63.752 207.488 63.44C207.792 63.12 207.944 62.664 207.944 62.072V58.388H209.312ZM220.222 58.388V65H218.854V64.22C218.638 64.492 218.354 64.708 218.002 64.868C217.658 65.02 217.29 65.096 216.898 65.096C216.378 65.096 215.91 64.988 215.494 64.772C215.086 64.556 214.762 64.236 214.522 63.812C214.29 63.388 214.174 62.876 214.174 62.276V58.388H215.53V62.072C215.53 62.664 215.678 63.12 215.974 63.44C216.27 63.752 216.674 63.908 217.186 63.908C217.698 63.908 218.102 63.752 218.398 63.44C218.702 63.12 218.854 62.664 218.854 62.072V58.388H220.222ZM225.363 58.28C225.883 58.28 226.347 58.388 226.755 58.604C227.171 58.82 227.495 59.14 227.727 59.564C227.959 59.988 228.075 60.5 228.075 61.1V65H226.719V61.304C226.719 60.712 226.571 60.26 226.275 59.948C225.979 59.628 225.575 59.468 225.063 59.468C224.551 59.468 224.143 59.628 223.839 59.948C223.543 60.26 223.395 60.712 223.395 61.304V65H222.027V58.388H223.395V59.144C223.619 58.872 223.903 58.66 224.247 58.508C224.599 58.356 224.971 58.28 225.363 58.28ZM231.188 56.12V65H229.82V56.12H231.188ZM235.852 65.108C235.228 65.108 234.664 64.968 234.16 64.688C233.656 64.4 233.26 64 232.972 63.488C232.684 62.968 232.54 62.368 232.54 61.688C232.54 61.016 232.688 60.42 232.984 59.9C233.28 59.38 233.684 58.98 234.196 58.7C234.708 58.42 235.28 58.28 235.912 58.28C236.544 58.28 237.116 58.42 237.628 58.7C238.14 58.98 238.544 59.38 238.84 59.9C239.136 60.42 239.284 61.016 239.284 61.688C239.284 62.36 239.132 62.956 238.828 63.476C238.524 63.996 238.108 64.4 237.58 64.688C237.06 64.968 236.484 65.108 235.852 65.108ZM235.852 63.92C236.204 63.92 236.532 63.836 236.836 63.668C237.148 63.5 237.4 63.248 237.592 62.912C237.784 62.576 237.88 62.168 237.88 61.688C237.88 61.208 237.788 60.804 237.604 60.476C237.42 60.14 237.176 59.888 236.872 59.72C236.568 59.552 236.24 59.468 235.888 59.468C235.536 59.468 235.208 59.552 234.904 59.72C234.608 59.888 234.372 60.14 234.196 60.476C234.02 60.804 233.932 61.208 233.932 61.688C233.932 62.4 234.112 62.952 234.472 63.344C234.84 63.728 235.3 63.92 235.852 63.92ZM240.18 61.688C240.18 61.008 240.316 60.412 240.588 59.9C240.868 59.38 241.252 58.98 241.74 58.7C242.228 58.42 242.788 58.28 243.42 58.28C244.22 58.28 244.88 58.472 245.4 58.856C245.928 59.232 246.284 59.772 246.468 60.476H244.992C244.872 60.148 244.68 59.892 244.416 59.708C244.152 59.524 243.82 59.432 243.42 59.432C242.86 59.432 242.412 59.632 242.076 60.032C241.748 60.424 241.584 60.976 241.584 61.688C241.584 62.4 241.748 62.956 242.076 63.356C242.412 63.756 242.86 63.956 243.42 63.956C244.212 63.956 244.736 63.608 244.992 62.912H246.468C246.276 63.584 245.916 64.12 245.388 64.52C244.86 64.912 244.204 65.108 243.42 65.108C242.788 65.108 242.228 64.968 241.74 64.688C241.252 64.4 240.868 64 240.588 63.488C240.316 62.968 240.18 62.368 240.18 61.688ZM250.448 61.7L253.496 65H251.648L249.2 62.156V65H247.832V56.12H249.2V61.28L251.6 58.388H253.496L250.448 61.7ZM260.536 61.532C260.536 61.78 260.52 62.004 260.488 62.204H255.436C255.476 62.732 255.672 63.156 256.024 63.476C256.376 63.796 256.808 63.956 257.32 63.956C258.056 63.956 258.576 63.648 258.88 63.032H260.356C260.156 63.64 259.792 64.14 259.264 64.532C258.744 64.916 258.096 65.108 257.32 65.108C256.688 65.108 256.12 64.968 255.616 64.688C255.12 64.4 254.728 64 254.44 63.488C254.16 62.968 254.02 62.368 254.02 61.688C254.02 61.008 254.156 60.412 254.428 59.9C254.708 59.38 255.096 58.98 255.592 58.7C256.096 58.42 256.672 58.28 257.32 58.28C257.944 58.28 258.5 58.416 258.988 58.688C259.476 58.96 259.856 59.344 260.128 59.84C260.4 60.328 260.536 60.892 260.536 61.532ZM259.108 61.1C259.1 60.596 258.92 60.192 258.568 59.888C258.216 59.584 257.78 59.432 257.26 59.432C256.788 59.432 256.384 59.584 256.048 59.888C255.712 60.184 255.512 60.588 255.448 61.1H259.108ZM261.426 61.664C261.426 61 261.562 60.412 261.834 59.9C262.114 59.388 262.49 58.992 262.962 58.712C263.442 58.424 263.974 58.28 264.558 58.28C264.99 58.28 265.414 58.376 265.83 58.568C266.254 58.752 266.59 59 266.838 59.312V56.12H268.218V65H266.838V64.004C266.614 64.324 266.302 64.588 265.902 64.796C265.51 65.004 265.058 65.108 264.546 65.108C263.97 65.108 263.442 64.964 262.962 64.676C262.49 64.38 262.114 63.972 261.834 63.452C261.562 62.924 261.426 62.328 261.426 61.664ZM266.838 61.688C266.838 61.232 266.742 60.836 266.55 60.5C266.366 60.164 266.122 59.908 265.818 59.732C265.514 59.556 265.186 59.468 264.834 59.468C264.482 59.468 264.154 59.556 263.85 59.732C263.546 59.9 263.298 60.152 263.106 60.488C262.922 60.816 262.83 61.208 262.83 61.664C262.83 62.12 262.922 62.52 263.106 62.864C263.298 63.208 263.546 63.472 263.85 63.656C264.162 63.832 264.49 63.92 264.834 63.92C265.186 63.92 265.514 63.832 265.818 63.656C266.122 63.48 266.366 63.224 266.55 62.888C266.742 62.544 266.838 62.144 266.838 61.688ZM274.728 59.504V63.164C274.728 63.412 274.784 63.592 274.896 63.704C275.016 63.808 275.216 63.86 275.496 63.86H276.336V65H275.256C274.64 65 274.168 64.856 273.84 64.568C273.512 64.28 273.348 63.812 273.348 63.164V59.504H272.568V58.388H273.348V56.744H274.728V58.388H276.336V59.504H274.728ZM281.017 58.28C281.521 58.28 281.969 58.388 282.361 58.604C282.761 58.82 283.073 59.14 283.297 59.564C283.529 59.988 283.645 60.5 283.645 61.1V65H282.289V61.304C282.289 60.712 282.141 60.26 281.845 59.948C281.549 59.628 281.145 59.468 280.633 59.468C280.121 59.468 279.713 59.628 279.409 59.948C279.113 60.26 278.965 60.712 278.965 61.304V65H277.597V56.12H278.965V59.156C279.197 58.876 279.489 58.66 279.841 58.508C280.201 58.356 280.593 58.28 281.017 58.28ZM291.45 61.532C291.45 61.78 291.434 62.004 291.402 62.204H286.35C286.39 62.732 286.586 63.156 286.938 63.476C287.29 63.796 287.722 63.956 288.234 63.956C288.97 63.956 289.49 63.648 289.794 63.032H291.27C291.07 63.64 290.706 64.14 290.178 64.532C289.658 64.916 289.01 65.108 288.234 65.108C287.602 65.108 287.034 64.968 286.53 64.688C286.034 64.4 285.642 64 285.354 63.488C285.074 62.968 284.934 62.368 284.934 61.688C284.934 61.008 285.07 60.412 285.342 59.9C285.622 59.38 286.01 58.98 286.506 58.7C287.01 58.42 287.586 58.28 288.234 58.28C288.858 58.28 289.414 58.416 289.902 58.688C290.39 58.96 290.77 59.344 291.042 59.84C291.314 60.328 291.45 60.892 291.45 61.532ZM290.022 61.1C290.014 60.596 289.834 60.192 289.482 59.888C289.13 59.584 288.694 59.432 288.174 59.432C287.702 59.432 287.298 59.584 286.962 59.888C286.626 60.184 286.426 60.588 286.362 61.1H290.022ZM299.334 58.28C299.838 58.28 300.286 58.388 300.678 58.604C301.078 58.82 301.39 59.14 301.614 59.564C301.846 59.988 301.962 60.5 301.962 61.1V65H300.606V61.304C300.606 60.712 300.458 60.26 300.162 59.948C299.866 59.628 299.462 59.468 298.95 59.468C298.438 59.468 298.03 59.628 297.726 59.948C297.43 60.26 297.282 60.712 297.282 61.304V65H295.914V56.12H297.282V59.156C297.514 58.876 297.806 58.66 298.158 58.508C298.518 58.356 298.91 58.28 299.334 58.28ZM304.403 57.512C304.155 57.512 303.947 57.428 303.779 57.26C303.611 57.092 303.527 56.884 303.527 56.636C303.527 56.388 303.611 56.18 303.779 56.012C303.947 55.844 304.155 55.76 304.403 55.76C304.643 55.76 304.847 55.844 305.015 56.012C305.183 56.18 305.267 56.388 305.267 56.636C305.267 56.884 305.183 57.092 305.015 57.26C304.847 57.428 304.643 57.512 304.403 57.512ZM305.075 58.388V65H303.707V58.388H305.075ZM306.415 61.664C306.415 61 306.551 60.412 306.823 59.9C307.103 59.388 307.479 58.992 307.951 58.712C308.431 58.424 308.963 58.28 309.547 58.28C309.979 58.28 310.403 58.376 310.819 58.568C311.243 58.752 311.579 59 311.827 59.312V56.12H313.207V65H311.827V64.004C311.603 64.324 311.291 64.588 310.891 64.796C310.499 65.004 310.047 65.108 309.535 65.108C308.959 65.108 308.431 64.964 307.951 64.676C307.479 64.38 307.103 63.972 306.823 63.452C306.551 62.924 306.415 62.328 306.415 61.664ZM311.827 61.688C311.827 61.232 311.731 60.836 311.539 60.5C311.355 60.164 311.111 59.908 310.807 59.732C310.503 59.556 310.175 59.468 309.823 59.468C309.471 59.468 309.143 59.556 308.839 59.732C308.535 59.9 308.287 60.152 308.095 60.488C307.911 60.816 307.819 61.208 307.819 61.664C307.819 62.12 307.911 62.52 308.095 62.864C308.287 63.208 308.535 63.472 308.839 63.656C309.151 63.832 309.479 63.92 309.823 63.92C310.175 63.92 310.503 63.832 310.807 63.656C311.111 63.48 311.355 63.224 311.539 62.888C311.731 62.544 311.827 62.144 311.827 61.688ZM314.548 61.664C314.548 61 314.684 60.412 314.956 59.9C315.236 59.388 315.612 58.992 316.084 58.712C316.564 58.424 317.096 58.28 317.68 58.28C318.112 58.28 318.536 58.376 318.952 58.568C319.376 58.752 319.712 59 319.96 59.312V56.12H321.34V65H319.96V64.004C319.736 64.324 319.424 64.588 319.024 64.796C318.632 65.004 318.18 65.108 317.668 65.108C317.092 65.108 316.564 64.964 316.084 64.676C315.612 64.38 315.236 63.972 314.956 63.452C314.684 62.924 314.548 62.328 314.548 61.664ZM319.96 61.688C319.96 61.232 319.864 60.836 319.672 60.5C319.488 60.164 319.244 59.908 318.94 59.732C318.636 59.556 318.308 59.468 317.956 59.468C317.604 59.468 317.276 59.556 316.972 59.732C316.668 59.9 316.42 60.152 316.228 60.488C316.044 60.816 315.952 61.208 315.952 61.664C315.952 62.12 316.044 62.52 316.228 62.864C316.42 63.208 316.668 63.472 316.972 63.656C317.284 63.832 317.612 63.92 317.956 63.92C318.308 63.92 318.636 63.832 318.94 63.656C319.244 63.48 319.488 63.224 319.672 62.888C319.864 62.544 319.96 62.144 319.96 61.688ZM329.196 61.532C329.196 61.78 329.18 62.004 329.148 62.204H324.096C324.136 62.732 324.332 63.156 324.684 63.476C325.036 63.796 325.468 63.956 325.98 63.956C326.716 63.956 327.236 63.648 327.54 63.032H329.016C328.816 63.64 328.452 64.14 327.924 64.532C327.404 64.916 326.756 65.108 325.98 65.108C325.348 65.108 324.78 64.968 324.276 64.688C323.78 64.4 323.388 64 323.1 63.488C322.82 62.968 322.68 62.368 322.68 61.688C322.68 61.008 322.816 60.412 323.088 59.9C323.368 59.38 323.756 58.98 324.252 58.7C324.756 58.42 325.332 58.28 325.98 58.28C326.604 58.28 327.16 58.416 327.648 58.688C328.136 58.96 328.516 59.344 328.788 59.84C329.06 60.328 329.196 60.892 329.196 61.532ZM327.768 61.1C327.76 60.596 327.58 60.192 327.228 59.888C326.876 59.584 326.44 59.432 325.92 59.432C325.448 59.432 325.044 59.584 324.708 59.888C324.372 60.184 324.172 60.588 324.108 61.1H327.768ZM333.879 58.28C334.399 58.28 334.863 58.388 335.271 58.604C335.687 58.82 336.011 59.14 336.243 59.564C336.475 59.988 336.591 60.5 336.591 61.1V65H335.235V61.304C335.235 60.712 335.087 60.26 334.791 59.948C334.495 59.628 334.091 59.468 333.579 59.468C333.067 59.468 332.659 59.628 332.355 59.948C332.059 60.26 331.911 60.712 331.911 61.304V65H330.543V58.388H331.911V59.144C332.135 58.872 332.419 58.66 332.763 58.508C333.115 58.356 333.487 58.28 333.879 58.28ZM343.853 65.108C343.333 65.108 342.865 65.016 342.449 64.832C342.041 64.64 341.717 64.384 341.477 64.064C341.237 63.736 341.109 63.372 341.093 62.972H342.509C342.533 63.252 342.665 63.488 342.905 63.68C343.153 63.864 343.461 63.956 343.829 63.956C344.213 63.956 344.509 63.884 344.717 63.74C344.933 63.588 345.041 63.396 345.041 63.164C345.041 62.916 344.921 62.732 344.681 62.612C344.449 62.492 344.077 62.36 343.565 62.216C343.069 62.08 342.665 61.948 342.353 61.82C342.041 61.692 341.769 61.496 341.537 61.232C341.313 60.968 341.201 60.62 341.201 60.188C341.201 59.836 341.305 59.516 341.513 59.228C341.721 58.932 342.017 58.7 342.401 58.532C342.793 58.364 343.241 58.28 343.745 58.28C344.497 58.28 345.101 58.472 345.557 58.856C346.021 59.232 346.269 59.748 346.301 60.404H344.933C344.909 60.108 344.789 59.872 344.573 59.696C344.357 59.52 344.065 59.432 343.697 59.432C343.337 59.432 343.061 59.5 342.869 59.636C342.677 59.772 342.581 59.952 342.581 60.176C342.581 60.352 342.645 60.5 342.773 60.62C342.901 60.74 343.057 60.836 343.241 60.908C343.425 60.972 343.697 61.056 344.057 61.16C344.537 61.288 344.929 61.42 345.233 61.556C345.545 61.684 345.813 61.876 346.037 62.132C346.261 62.388 346.377 62.728 346.385 63.152C346.385 63.528 346.281 63.864 346.073 64.16C345.865 64.456 345.569 64.688 345.185 64.856C344.809 65.024 344.365 65.108 343.853 65.108ZM353.923 61.532C353.923 61.78 353.907 62.004 353.875 62.204H348.823C348.863 62.732 349.059 63.156 349.411 63.476C349.763 63.796 350.195 63.956 350.707 63.956C351.443 63.956 351.963 63.648 352.267 63.032H353.743C353.543 63.64 353.179 64.14 352.651 64.532C352.131 64.916 351.483 65.108 350.707 65.108C350.075 65.108 349.507 64.968 349.003 64.688C348.507 64.4 348.115 64 347.827 63.488C347.547 62.968 347.407 62.368 347.407 61.688C347.407 61.008 347.543 60.412 347.815 59.9C348.095 59.38 348.483 58.98 348.979 58.7C349.483 58.42 350.059 58.28 350.707 58.28C351.331 58.28 351.887 58.416 352.375 58.688C352.863 58.96 353.243 59.344 353.515 59.84C353.787 60.328 353.923 60.892 353.923 61.532ZM352.495 61.1C352.487 60.596 352.307 60.192 351.955 59.888C351.603 59.584 351.167 59.432 350.647 59.432C350.175 59.432 349.771 59.584 349.435 59.888C349.099 60.184 348.899 60.588 348.835 61.1H352.495ZM356.865 59.504V63.164C356.865 63.412 356.921 63.592 357.033 63.704C357.153 63.808 357.353 63.86 357.633 63.86H358.473V65H357.393C356.777 65 356.305 64.856 355.977 64.568C355.649 64.28 355.485 63.812 355.485 63.164V59.504H354.705V58.388H355.485V56.744H356.865V58.388H358.473V59.504H356.865ZM361.33 59.504V63.164C361.33 63.412 361.386 63.592 361.498 63.704C361.618 63.808 361.818 63.86 362.098 63.86H362.938V65H361.858C361.242 65 360.77 64.856 360.442 64.568C360.114 64.28 359.95 63.812 359.95 63.164V59.504H359.17V58.388H359.95V56.744H361.33V58.388H362.938V59.504H361.33ZM364.895 57.512C364.647 57.512 364.439 57.428 364.271 57.26C364.103 57.092 364.019 56.884 364.019 56.636C364.019 56.388 364.103 56.18 364.271 56.012C364.439 55.844 364.647 55.76 364.895 55.76C365.135 55.76 365.339 55.844 365.507 56.012C365.675 56.18 365.759 56.388 365.759 56.636C365.759 56.884 365.675 57.092 365.507 57.26C365.339 57.428 365.135 57.512 364.895 57.512ZM365.567 58.388V65H364.199V58.388H365.567ZM370.699 58.28C371.219 58.28 371.683 58.388 372.091 58.604C372.507 58.82 372.831 59.14 373.063 59.564C373.295 59.988 373.411 60.5 373.411 61.1V65H372.055V61.304C372.055 60.712 371.907 60.26 371.611 59.948C371.315 59.628 370.911 59.468 370.399 59.468C369.887 59.468 369.479 59.628 369.175 59.948C368.879 60.26 368.731 60.712 368.731 61.304V65H367.363V58.388H368.731V59.144C368.955 58.872 369.239 58.66 369.583 58.508C369.935 58.356 370.307 58.28 370.699 58.28ZM377.82 58.28C378.332 58.28 378.784 58.384 379.176 58.592C379.576 58.792 379.888 59.044 380.112 59.348V58.388H381.492V65.108C381.492 65.716 381.364 66.256 381.108 66.728C380.852 67.208 380.48 67.584 379.992 67.856C379.512 68.128 378.936 68.264 378.264 68.264C377.368 68.264 376.624 68.052 376.032 67.628C375.44 67.212 375.104 66.644 375.024 65.924H376.38C376.484 66.268 376.704 66.544 377.04 66.752C377.384 66.968 377.792 67.076 378.264 67.076C378.816 67.076 379.26 66.908 379.596 66.572C379.94 66.236 380.112 65.748 380.112 65.108V64.004C379.88 64.316 379.564 64.58 379.164 64.796C378.772 65.004 378.324 65.108 377.82 65.108C377.244 65.108 376.716 64.964 376.236 64.676C375.764 64.38 375.388 63.972 375.108 63.452C374.836 62.924 374.7 62.328 374.7 61.664C374.7 61 374.836 60.412 375.108 59.9C375.388 59.388 375.764 58.992 376.236 58.712C376.716 58.424 377.244 58.28 377.82 58.28ZM380.112 61.688C380.112 61.232 380.016 60.836 379.824 60.5C379.64 60.164 379.396 59.908 379.092 59.732C378.788 59.556 378.46 59.468 378.108 59.468C377.756 59.468 377.428 59.556 377.124 59.732C376.82 59.9 376.572 60.152 376.38 60.488C376.196 60.816 376.104 61.208 376.104 61.664C376.104 62.12 376.196 62.52 376.38 62.864C376.572 63.208 376.82 63.472 377.124 63.656C377.436 63.832 377.764 63.92 378.108 63.92C378.46 63.92 378.788 63.832 379.092 63.656C379.396 63.48 379.64 63.224 379.824 62.888C380.016 62.544 380.112 62.144 380.112 61.688ZM385.689 65.108C385.169 65.108 384.701 65.016 384.285 64.832C383.877 64.64 383.553 64.384 383.313 64.064C383.073 63.736 382.945 63.372 382.929 62.972H384.345C384.369 63.252 384.501 63.488 384.741 63.68C384.989 63.864 385.297 63.956 385.665 63.956C386.049 63.956 386.345 63.884 386.553 63.74C386.769 63.588 386.877 63.396 386.877 63.164C386.877 62.916 386.757 62.732 386.517 62.612C386.285 62.492 385.913 62.36 385.401 62.216C384.905 62.08 384.501 61.948 384.189 61.82C383.877 61.692 383.605 61.496 383.373 61.232C383.149 60.968 383.037 60.62 383.037 60.188C383.037 59.836 383.141 59.516 383.349 59.228C383.557 58.932 383.853 58.7 384.237 58.532C384.629 58.364 385.077 58.28 385.581 58.28C386.333 58.28 386.937 58.472 387.393 58.856C387.857 59.232 388.105 59.748 388.137 60.404H386.769C386.745 60.108 386.625 59.872 386.409 59.696C386.193 59.52 385.901 59.432 385.533 59.432C385.173 59.432 384.897 59.5 384.705 59.636C384.513 59.772 384.417 59.952 384.417 60.176C384.417 60.352 384.481 60.5 384.609 60.62C384.737 60.74 384.893 60.836 385.077 60.908C385.261 60.972 385.533 61.056 385.893 61.16C386.373 61.288 386.765 61.42 387.069 61.556C387.381 61.684 387.649 61.876 387.873 62.132C388.097 62.388 388.213 62.728 388.221 63.152C388.221 63.528 388.117 63.864 387.909 64.16C387.701 64.456 387.405 64.688 387.021 64.856C386.645 65.024 386.201 65.108 385.689 65.108ZM390.251 65.084C390.003 65.084 389.795 65 389.627 64.832C389.459 64.664 389.375 64.456 389.375 64.208C389.375 63.96 389.459 63.752 389.627 63.584C389.795 63.416 390.003 63.332 390.251 63.332C390.491 63.332 390.695 63.416 390.863 63.584C391.031 63.752 391.115 63.96 391.115 64.208C391.115 64.456 391.031 64.664 390.863 64.832C390.695 65 390.491 65.084 390.251 65.084ZM117.438 78.812C117.438 77.996 117.626 77.264 118.002 76.616C118.386 75.968 118.902 75.464 119.55 75.104C120.206 74.736 120.922 74.552 121.698 74.552C122.586 74.552 123.374 74.772 124.062 75.212C124.758 75.644 125.262 76.26 125.574 77.06H123.93C123.714 76.62 123.414 76.292 123.03 76.076C122.646 75.86 122.202 75.752 121.698 75.752C121.146 75.752 120.654 75.876 120.222 76.124C119.79 76.372 119.45 76.728 119.202 77.192C118.962 77.656 118.842 78.196 118.842 78.812C118.842 79.428 118.962 79.968 119.202 80.432C119.45 80.896 119.79 81.256 120.222 81.512C120.654 81.76 121.146 81.884 121.698 81.884C122.202 81.884 122.646 81.776 123.03 81.56C123.414 81.344 123.714 81.016 123.93 80.576H125.574C125.262 81.376 124.758 81.992 124.062 82.424C123.374 82.856 122.586 83.072 121.698 83.072C120.914 83.072 120.198 82.892 119.55 82.532C118.902 82.164 118.386 81.656 118.002 81.008C117.626 80.36 117.438 79.628 117.438 78.812ZM130.043 83.108C129.419 83.108 128.855 82.968 128.351 82.688C127.847 82.4 127.451 82 127.163 81.488C126.875 80.968 126.731 80.368 126.731 79.688C126.731 79.016 126.879 78.42 127.175 77.9C127.471 77.38 127.875 76.98 128.387 76.7C128.899 76.42 129.471 76.28 130.103 76.28C130.735 76.28 131.307 76.42 131.819 76.7C132.331 76.98 132.735 77.38 133.031 77.9C133.327 78.42 133.475 79.016 133.475 79.688C133.475 80.36 133.323 80.956 133.019 81.476C132.715 81.996 132.299 82.4 131.771 82.688C131.251 82.968 130.675 83.108 130.043 83.108ZM130.043 81.92C130.395 81.92 130.723 81.836 131.027 81.668C131.339 81.5 131.591 81.248 131.783 80.912C131.975 80.576 132.071 80.168 132.071 79.688C132.071 79.208 131.979 78.804 131.795 78.476C131.611 78.14 131.367 77.888 131.063 77.72C130.759 77.552 130.431 77.468 130.079 77.468C129.727 77.468 129.399 77.552 129.095 77.72C128.799 77.888 128.563 78.14 128.387 78.476C128.211 78.804 128.123 79.208 128.123 79.688C128.123 80.4 128.303 80.952 128.663 81.344C129.031 81.728 129.491 81.92 130.043 81.92ZM142.832 76.28C143.352 76.28 143.816 76.388 144.224 76.604C144.64 76.82 144.964 77.14 145.196 77.564C145.436 77.988 145.556 78.5 145.556 79.1V83H144.2V79.304C144.2 78.712 144.052 78.26 143.756 77.948C143.46 77.628 143.056 77.468 142.544 77.468C142.032 77.468 141.624 77.628 141.32 77.948C141.024 78.26 140.876 78.712 140.876 79.304V83H139.52V79.304C139.52 78.712 139.372 78.26 139.076 77.948C138.78 77.628 138.376 77.468 137.864 77.468C137.352 77.468 136.944 77.628 136.64 77.948C136.344 78.26 136.196 78.712 136.196 79.304V83H134.828V76.388H136.196V77.144C136.42 76.872 136.704 76.66 137.048 76.508C137.392 76.356 137.76 76.28 138.152 76.28C138.68 76.28 139.152 76.392 139.568 76.616C139.984 76.84 140.304 77.164 140.528 77.588C140.728 77.188 141.04 76.872 141.464 76.64C141.888 76.4 142.344 76.28 142.832 76.28ZM155.3 76.28C155.82 76.28 156.284 76.388 156.692 76.604C157.108 76.82 157.432 77.14 157.664 77.564C157.904 77.988 158.024 78.5 158.024 79.1V83H156.668V79.304C156.668 78.712 156.52 78.26 156.224 77.948C155.928 77.628 155.524 77.468 155.012 77.468C154.5 77.468 154.092 77.628 153.788 77.948C153.492 78.26 153.344 78.712 153.344 79.304V83H151.988V79.304C151.988 78.712 151.84 78.26 151.544 77.948C151.248 77.628 150.844 77.468 150.332 77.468C149.82 77.468 149.412 77.628 149.108 77.948C148.812 78.26 148.664 78.712 148.664 79.304V83H147.296V76.388H148.664V77.144C148.888 76.872 149.172 76.66 149.516 76.508C149.86 76.356 150.228 76.28 150.62 76.28C151.148 76.28 151.62 76.392 152.036 76.616C152.452 76.84 152.772 77.164 152.996 77.588C153.196 77.188 153.508 76.872 153.932 76.64C154.356 76.4 154.812 76.28 155.3 76.28ZM165.825 79.532C165.825 79.78 165.809 80.004 165.777 80.204H160.725C160.765 80.732 160.961 81.156 161.313 81.476C161.665 81.796 162.097 81.956 162.609 81.956C163.345 81.956 163.865 81.648 164.169 81.032H165.645C165.445 81.64 165.081 82.14 164.553 82.532C164.033 82.916 163.385 83.108 162.609 83.108C161.977 83.108 161.409 82.968 160.905 82.688C160.409 82.4 160.017 82 159.729 81.488C159.449 80.968 159.309 80.368 159.309 79.688C159.309 79.008 159.445 78.412 159.717 77.9C159.997 77.38 160.385 76.98 160.881 76.7C161.385 76.42 161.961 76.28 162.609 76.28C163.233 76.28 163.789 76.416 164.277 76.688C164.765 76.96 165.145 77.344 165.417 77.84C165.689 78.328 165.825 78.892 165.825 79.532ZM164.397 79.1C164.389 78.596 164.209 78.192 163.857 77.888C163.505 77.584 163.069 77.432 162.549 77.432C162.077 77.432 161.673 77.584 161.337 77.888C161.001 78.184 160.801 78.588 160.737 79.1H164.397ZM170.507 76.28C171.027 76.28 171.491 76.388 171.899 76.604C172.315 76.82 172.639 77.14 172.871 77.564C173.103 77.988 173.219 78.5 173.219 79.1V83H171.863V79.304C171.863 78.712 171.715 78.26 171.419 77.948C171.123 77.628 170.719 77.468 170.207 77.468C169.695 77.468 169.287 77.628 168.983 77.948C168.687 78.26 168.539 78.712 168.539 79.304V83H167.171V76.388H168.539V77.144C168.763 76.872 169.047 76.66 169.391 76.508C169.743 76.356 170.115 76.28 170.507 76.28ZM176.56 77.504V81.164C176.56 81.412 176.616 81.592 176.728 81.704C176.848 81.808 177.048 81.86 177.328 81.86H178.168V83H177.088C176.472 83 176 82.856 175.672 82.568C175.344 82.28 175.18 81.812 175.18 81.164V77.504H174.4V76.388H175.18V74.744H176.56V76.388H178.168V77.504H176.56ZM183.098 83.084C182.85 83.084 182.642 83 182.474 82.832C182.306 82.664 182.222 82.456 182.222 82.208C182.222 81.96 182.306 81.752 182.474 81.584C182.642 81.416 182.85 81.332 183.098 81.332C183.338 81.332 183.542 81.416 183.71 81.584C183.878 81.752 183.962 81.96 183.962 82.208C183.962 82.456 183.878 82.664 183.71 82.832C183.542 83 183.338 83.084 183.098 83.084ZM183.098 78.044C182.85 78.044 182.642 77.96 182.474 77.792C182.306 77.624 182.222 77.416 182.222 77.168C182.222 76.92 182.306 76.712 182.474 76.544C182.642 76.376 182.85 76.292 183.098 76.292C183.338 76.292 183.542 76.376 183.71 76.544C183.878 76.712 183.962 76.92 183.962 77.168C183.962 77.416 183.878 77.624 183.71 77.792C183.542 77.96 183.338 78.044 183.098 78.044ZM189.493 77.516H188.005L189.265 74.66H190.225L189.493 77.516ZM191.653 77.516H190.165L191.425 74.66H192.385L191.653 77.516ZM195.036 74.66V83H193.668V74.66H195.036ZM202.721 77.504H201.497V83H200.117V77.504H199.337V76.388H200.117V75.92C200.117 75.16 200.317 74.608 200.717 74.264C201.125 73.912 201.761 73.736 202.625 73.736V74.876C202.209 74.876 201.917 74.956 201.749 75.116C201.581 75.268 201.497 75.536 201.497 75.92V76.388H202.721V77.504ZM206.801 83.108C206.177 83.108 205.613 82.968 205.109 82.688C204.605 82.4 204.209 82 203.921 81.488C203.633 80.968 203.489 80.368 203.489 79.688C203.489 79.016 203.637 78.42 203.933 77.9C204.229 77.38 204.633 76.98 205.145 76.7C205.657 76.42 206.229 76.28 206.861 76.28C207.493 76.28 208.065 76.42 208.577 76.7C209.089 76.98 209.493 77.38 209.789 77.9C210.085 78.42 210.233 79.016 210.233 79.688C210.233 80.36 210.081 80.956 209.777 81.476C209.473 81.996 209.057 82.4 208.529 82.688C208.009 82.968 207.433 83.108 206.801 83.108ZM206.801 81.92C207.153 81.92 207.481 81.836 207.785 81.668C208.097 81.5 208.349 81.248 208.541 80.912C208.733 80.576 208.829 80.168 208.829 79.688C208.829 79.208 208.737 78.804 208.553 78.476C208.369 78.14 208.125 77.888 207.821 77.72C207.517 77.552 207.189 77.468 206.837 77.468C206.485 77.468 206.157 77.552 205.853 77.72C205.557 77.888 205.321 78.14 205.145 78.476C204.969 78.804 204.881 79.208 204.881 79.688C204.881 80.4 205.061 80.952 205.421 81.344C205.789 81.728 206.249 81.92 206.801 81.92ZM217.574 76.388V83H216.206V82.22C215.99 82.492 215.706 82.708 215.354 82.868C215.01 83.02 214.642 83.096 214.25 83.096C213.73 83.096 213.262 82.988 212.846 82.772C212.438 82.556 212.114 82.236 211.874 81.812C211.642 81.388 211.526 80.876 211.526 80.276V76.388H212.882V80.072C212.882 80.664 213.03 81.12 213.326 81.44C213.622 81.752 214.026 81.908 214.538 81.908C215.05 81.908 215.454 81.752 215.75 81.44C216.054 81.12 216.206 80.664 216.206 80.072V76.388H217.574ZM222.715 76.28C223.235 76.28 223.699 76.388 224.107 76.604C224.523 76.82 224.847 77.14 225.079 77.564C225.311 77.988 225.427 78.5 225.427 79.1V83H224.071V79.304C224.071 78.712 223.923 78.26 223.627 77.948C223.331 77.628 222.927 77.468 222.415 77.468C221.903 77.468 221.495 77.628 221.191 77.948C220.895 78.26 220.747 78.712 220.747 79.304V83H219.379V76.388H220.747V77.144C220.971 76.872 221.255 76.66 221.599 76.508C221.951 76.356 222.323 76.28 222.715 76.28ZM226.715 79.664C226.715 79 226.851 78.412 227.123 77.9C227.403 77.388 227.779 76.992 228.251 76.712C228.731 76.424 229.263 76.28 229.847 76.28C230.279 76.28 230.703 76.376 231.119 76.568C231.543 76.752 231.879 77 232.127 77.312V74.12H233.507V83H232.127V82.004C231.903 82.324 231.591 82.588 231.191 82.796C230.799 83.004 230.347 83.108 229.835 83.108C229.259 83.108 228.731 82.964 228.251 82.676C227.779 82.38 227.403 81.972 227.123 81.452C226.851 80.924 226.715 80.328 226.715 79.664ZM232.127 79.688C232.127 79.232 232.031 78.836 231.839 78.5C231.655 78.164 231.411 77.908 231.107 77.732C230.803 77.556 230.475 77.468 230.123 77.468C229.771 77.468 229.443 77.556 229.139 77.732C228.835 77.9 228.587 78.152 228.395 78.488C228.211 78.816 228.119 79.208 228.119 79.664C228.119 80.12 228.211 80.52 228.395 80.864C228.587 81.208 228.835 81.472 229.139 81.656C229.451 81.832 229.779 81.92 230.123 81.92C230.475 81.92 230.803 81.832 231.107 81.656C231.411 81.48 231.655 81.224 231.839 80.888C232.031 80.544 232.127 80.144 232.127 79.688ZM240.017 77.504V81.164C240.017 81.412 240.073 81.592 240.185 81.704C240.305 81.808 240.505 81.86 240.785 81.86H241.625V83H240.545C239.929 83 239.457 82.856 239.129 82.568C238.801 82.28 238.637 81.812 238.637 81.164V77.504H237.857V76.388H238.637V74.744H240.017V76.388H241.625V77.504H240.017ZM246.306 76.28C246.81 76.28 247.258 76.388 247.65 76.604C248.05 76.82 248.362 77.14 248.586 77.564C248.818 77.988 248.934 78.5 248.934 79.1V83H247.578V79.304C247.578 78.712 247.43 78.26 247.134 77.948C246.838 77.628 246.434 77.468 245.922 77.468C245.41 77.468 245.002 77.628 244.698 77.948C244.402 78.26 244.254 78.712 244.254 79.304V83H242.886V74.12H244.254V77.156C244.486 76.876 244.778 76.66 245.13 76.508C245.49 76.356 245.882 76.28 246.306 76.28ZM256.739 79.532C256.739 79.78 256.723 80.004 256.691 80.204H251.639C251.679 80.732 251.875 81.156 252.227 81.476C252.579 81.796 253.011 81.956 253.523 81.956C254.259 81.956 254.779 81.648 255.083 81.032H256.559C256.359 81.64 255.995 82.14 255.467 82.532C254.947 82.916 254.299 83.108 253.523 83.108C252.891 83.108 252.323 82.968 251.819 82.688C251.323 82.4 250.931 82 250.643 81.488C250.363 80.968 250.223 80.368 250.223 79.688C250.223 79.008 250.359 78.412 250.631 77.9C250.911 77.38 251.299 76.98 251.795 76.7C252.299 76.42 252.875 76.28 253.523 76.28C254.147 76.28 254.703 76.416 255.191 76.688C255.679 76.96 256.059 77.344 256.331 77.84C256.603 78.328 256.739 78.892 256.739 79.532ZM255.311 79.1C255.303 78.596 255.123 78.192 254.771 77.888C254.419 77.584 253.983 77.432 253.463 77.432C252.991 77.432 252.587 77.584 252.251 77.888C251.915 78.184 251.715 78.588 251.651 79.1H255.311ZM264.623 76.28C265.127 76.28 265.575 76.388 265.967 76.604C266.367 76.82 266.679 77.14 266.903 77.564C267.135 77.988 267.251 78.5 267.251 79.1V83H265.895V79.304C265.895 78.712 265.747 78.26 265.451 77.948C265.155 77.628 264.751 77.468 264.239 77.468C263.727 77.468 263.319 77.628 263.015 77.948C262.719 78.26 262.571 78.712 262.571 79.304V83H261.203V74.12H262.571V77.156C262.803 76.876 263.095 76.66 263.447 76.508C263.807 76.356 264.199 76.28 264.623 76.28ZM269.692 75.512C269.444 75.512 269.236 75.428 269.068 75.26C268.9 75.092 268.816 74.884 268.816 74.636C268.816 74.388 268.9 74.18 269.068 74.012C269.236 73.844 269.444 73.76 269.692 73.76C269.932 73.76 270.136 73.844 270.304 74.012C270.472 74.18 270.556 74.388 270.556 74.636C270.556 74.884 270.472 75.092 270.304 75.26C270.136 75.428 269.932 75.512 269.692 75.512ZM270.364 76.388V83H268.996V76.388H270.364ZM271.704 79.664C271.704 79 271.84 78.412 272.112 77.9C272.392 77.388 272.768 76.992 273.24 76.712C273.72 76.424 274.252 76.28 274.836 76.28C275.268 76.28 275.692 76.376 276.108 76.568C276.532 76.752 276.868 77 277.116 77.312V74.12H278.496V83H277.116V82.004C276.892 82.324 276.58 82.588 276.18 82.796C275.788 83.004 275.336 83.108 274.824 83.108C274.248 83.108 273.72 82.964 273.24 82.676C272.768 82.38 272.392 81.972 272.112 81.452C271.84 80.924 271.704 80.328 271.704 79.664ZM277.116 79.688C277.116 79.232 277.02 78.836 276.828 78.5C276.644 78.164 276.4 77.908 276.096 77.732C275.792 77.556 275.464 77.468 275.112 77.468C274.76 77.468 274.432 77.556 274.128 77.732C273.824 77.9 273.576 78.152 273.384 78.488C273.2 78.816 273.108 79.208 273.108 79.664C273.108 80.12 273.2 80.52 273.384 80.864C273.576 81.208 273.824 81.472 274.128 81.656C274.44 81.832 274.768 81.92 275.112 81.92C275.464 81.92 275.792 81.832 276.096 81.656C276.4 81.48 276.644 81.224 276.828 80.888C277.02 80.544 277.116 80.144 277.116 79.688ZM279.837 79.664C279.837 79 279.973 78.412 280.245 77.9C280.525 77.388 280.901 76.992 281.373 76.712C281.853 76.424 282.385 76.28 282.969 76.28C283.401 76.28 283.825 76.376 284.241 76.568C284.665 76.752 285.001 77 285.249 77.312V74.12H286.629V83H285.249V82.004C285.025 82.324 284.713 82.588 284.313 82.796C283.921 83.004 283.469 83.108 282.957 83.108C282.381 83.108 281.853 82.964 281.373 82.676C280.901 82.38 280.525 81.972 280.245 81.452C279.973 80.924 279.837 80.328 279.837 79.664ZM285.249 79.688C285.249 79.232 285.153 78.836 284.961 78.5C284.777 78.164 284.533 77.908 284.229 77.732C283.925 77.556 283.597 77.468 283.245 77.468C282.893 77.468 282.565 77.556 282.261 77.732C281.957 77.9 281.709 78.152 281.517 78.488C281.333 78.816 281.241 79.208 281.241 79.664C281.241 80.12 281.333 80.52 281.517 80.864C281.709 81.208 281.957 81.472 282.261 81.656C282.573 81.832 282.901 81.92 283.245 81.92C283.597 81.92 283.925 81.832 284.229 81.656C284.533 81.48 284.777 81.224 284.961 80.888C285.153 80.544 285.249 80.144 285.249 79.688ZM294.485 79.532C294.485 79.78 294.469 80.004 294.437 80.204H289.385C289.425 80.732 289.621 81.156 289.973 81.476C290.325 81.796 290.757 81.956 291.269 81.956C292.005 81.956 292.525 81.648 292.829 81.032H294.305C294.105 81.64 293.741 82.14 293.213 82.532C292.693 82.916 292.045 83.108 291.269 83.108C290.637 83.108 290.069 82.968 289.565 82.688C289.069 82.4 288.677 82 288.389 81.488C288.109 80.968 287.969 80.368 287.969 79.688C287.969 79.008 288.105 78.412 288.377 77.9C288.657 77.38 289.045 76.98 289.541 76.7C290.045 76.42 290.621 76.28 291.269 76.28C291.893 76.28 292.449 76.416 292.937 76.688C293.425 76.96 293.805 77.344 294.077 77.84C294.349 78.328 294.485 78.892 294.485 79.532ZM293.057 79.1C293.049 78.596 292.869 78.192 292.517 77.888C292.165 77.584 291.729 77.432 291.209 77.432C290.737 77.432 290.333 77.584 289.997 77.888C289.661 78.184 289.461 78.588 289.397 79.1H293.057ZM299.168 76.28C299.688 76.28 300.152 76.388 300.56 76.604C300.976 76.82 301.3 77.14 301.532 77.564C301.764 77.988 301.88 78.5 301.88 79.1V83H300.524V79.304C300.524 78.712 300.376 78.26 300.08 77.948C299.784 77.628 299.38 77.468 298.868 77.468C298.356 77.468 297.948 77.628 297.644 77.948C297.348 78.26 297.2 78.712 297.2 79.304V83H295.832V76.388H297.2V77.144C297.424 76.872 297.708 76.66 298.052 76.508C298.404 76.356 298.776 76.28 299.168 76.28ZM309.142 83.108C308.622 83.108 308.154 83.016 307.738 82.832C307.33 82.64 307.006 82.384 306.766 82.064C306.526 81.736 306.398 81.372 306.382 80.972H307.798C307.822 81.252 307.954 81.488 308.194 81.68C308.442 81.864 308.75 81.956 309.118 81.956C309.502 81.956 309.798 81.884 310.006 81.74C310.222 81.588 310.33 81.396 310.33 81.164C310.33 80.916 310.21 80.732 309.97 80.612C309.738 80.492 309.366 80.36 308.854 80.216C308.358 80.08 307.954 79.948 307.642 79.82C307.33 79.692 307.058 79.496 306.826 79.232C306.602 78.968 306.49 78.62 306.49 78.188C306.49 77.836 306.594 77.516 306.802 77.228C307.01 76.932 307.306 76.7 307.69 76.532C308.082 76.364 308.53 76.28 309.034 76.28C309.786 76.28 310.39 76.472 310.846 76.856C311.31 77.232 311.558 77.748 311.59 78.404H310.222C310.198 78.108 310.078 77.872 309.862 77.696C309.646 77.52 309.354 77.432 308.986 77.432C308.626 77.432 308.35 77.5 308.158 77.636C307.966 77.772 307.87 77.952 307.87 78.176C307.87 78.352 307.934 78.5 308.062 78.62C308.19 78.74 308.346 78.836 308.53 78.908C308.714 78.972 308.986 79.056 309.346 79.16C309.826 79.288 310.218 79.42 310.522 79.556C310.834 79.684 311.102 79.876 311.326 80.132C311.55 80.388 311.666 80.728 311.674 81.152C311.674 81.528 311.57 81.864 311.362 82.16C311.154 82.456 310.858 82.688 310.474 82.856C310.098 83.024 309.654 83.108 309.142 83.108ZM319.212 79.532C319.212 79.78 319.196 80.004 319.164 80.204H314.112C314.152 80.732 314.348 81.156 314.7 81.476C315.052 81.796 315.484 81.956 315.996 81.956C316.732 81.956 317.252 81.648 317.556 81.032H319.032C318.832 81.64 318.468 82.14 317.94 82.532C317.42 82.916 316.772 83.108 315.996 83.108C315.364 83.108 314.796 82.968 314.292 82.688C313.796 82.4 313.404 82 313.116 81.488C312.836 80.968 312.696 80.368 312.696 79.688C312.696 79.008 312.832 78.412 313.104 77.9C313.384 77.38 313.772 76.98 314.268 76.7C314.772 76.42 315.348 76.28 315.996 76.28C316.62 76.28 317.176 76.416 317.664 76.688C318.152 76.96 318.532 77.344 318.804 77.84C319.076 78.328 319.212 78.892 319.212 79.532ZM317.784 79.1C317.776 78.596 317.596 78.192 317.244 77.888C316.892 77.584 316.456 77.432 315.936 77.432C315.464 77.432 315.06 77.584 314.724 77.888C314.388 78.184 314.188 78.588 314.124 79.1H317.784ZM322.154 77.504V81.164C322.154 81.412 322.21 81.592 322.322 81.704C322.442 81.808 322.642 81.86 322.922 81.86H323.762V83H322.682C322.066 83 321.594 82.856 321.266 82.568C320.938 82.28 320.774 81.812 320.774 81.164V77.504H319.994V76.388H320.774V74.744H322.154V76.388H323.762V77.504H322.154ZM326.619 77.504V81.164C326.619 81.412 326.675 81.592 326.787 81.704C326.907 81.808 327.107 81.86 327.387 81.86H328.227V83H327.147C326.531 83 326.059 82.856 325.731 82.568C325.403 82.28 325.239 81.812 325.239 81.164V77.504H324.459V76.388H325.239V74.744H326.619V76.388H328.227V77.504H326.619ZM330.184 75.512C329.936 75.512 329.728 75.428 329.56 75.26C329.392 75.092 329.308 74.884 329.308 74.636C329.308 74.388 329.392 74.18 329.56 74.012C329.728 73.844 329.936 73.76 330.184 73.76C330.424 73.76 330.628 73.844 330.796 74.012C330.964 74.18 331.048 74.388 331.048 74.636C331.048 74.884 330.964 75.092 330.796 75.26C330.628 75.428 330.424 75.512 330.184 75.512ZM330.856 76.388V83H329.488V76.388H330.856ZM335.988 76.28C336.508 76.28 336.972 76.388 337.38 76.604C337.796 76.82 338.12 77.14 338.352 77.564C338.584 77.988 338.7 78.5 338.7 79.1V83H337.344V79.304C337.344 78.712 337.196 78.26 336.9 77.948C336.604 77.628 336.2 77.468 335.688 77.468C335.176 77.468 334.768 77.628 334.464 77.948C334.168 78.26 334.02 78.712 334.02 79.304V83H332.652V76.388H334.02V77.144C334.244 76.872 334.528 76.66 334.872 76.508C335.224 76.356 335.596 76.28 335.988 76.28ZM343.109 76.28C343.621 76.28 344.073 76.384 344.465 76.592C344.865 76.792 345.177 77.044 345.401 77.348V76.388H346.781V83.108C346.781 83.716 346.653 84.256 346.397 84.728C346.141 85.208 345.769 85.584 345.281 85.856C344.801 86.128 344.225 86.264 343.553 86.264C342.657 86.264 341.913 86.052 341.321 85.628C340.729 85.212 340.393 84.644 340.313 83.924H341.669C341.773 84.268 341.993 84.544 342.329 84.752C342.673 84.968 343.081 85.076 343.553 85.076C344.105 85.076 344.549 84.908 344.885 84.572C345.229 84.236 345.401 83.748 345.401 83.108V82.004C345.169 82.316 344.853 82.58 344.453 82.796C344.061 83.004 343.613 83.108 343.109 83.108C342.533 83.108 342.005 82.964 341.525 82.676C341.053 82.38 340.677 81.972 340.397 81.452C340.125 80.924 339.989 80.328 339.989 79.664C339.989 79 340.125 78.412 340.397 77.9C340.677 77.388 341.053 76.992 341.525 76.712C342.005 76.424 342.533 76.28 343.109 76.28ZM345.401 79.688C345.401 79.232 345.305 78.836 345.113 78.5C344.929 78.164 344.685 77.908 344.381 77.732C344.077 77.556 343.749 77.468 343.397 77.468C343.045 77.468 342.717 77.556 342.413 77.732C342.109 77.9 341.861 78.152 341.669 78.488C341.485 78.816 341.393 79.208 341.393 79.664C341.393 80.12 341.485 80.52 341.669 80.864C341.861 81.208 342.109 81.472 342.413 81.656C342.725 81.832 343.053 81.92 343.397 81.92C343.749 81.92 344.077 81.832 344.381 81.656C344.685 81.48 344.929 81.224 345.113 80.888C345.305 80.544 345.401 80.144 345.401 79.688ZM350.978 83.108C350.458 83.108 349.99 83.016 349.574 82.832C349.166 82.64 348.842 82.384 348.602 82.064C348.362 81.736 348.234 81.372 348.218 80.972H349.634C349.658 81.252 349.79 81.488 350.03 81.68C350.278 81.864 350.586 81.956 350.954 81.956C351.338 81.956 351.634 81.884 351.842 81.74C352.058 81.588 352.166 81.396 352.166 81.164C352.166 80.916 352.046 80.732 351.806 80.612C351.574 80.492 351.202 80.36 350.69 80.216C350.194 80.08 349.79 79.948 349.478 79.82C349.166 79.692 348.894 79.496 348.662 79.232C348.438 78.968 348.326 78.62 348.326 78.188C348.326 77.836 348.43 77.516 348.638 77.228C348.846 76.932 349.142 76.7 349.526 76.532C349.918 76.364 350.366 76.28 350.87 76.28C351.622 76.28 352.226 76.472 352.682 76.856C353.146 77.232 353.394 77.748 353.426 78.404H352.058C352.034 78.108 351.914 77.872 351.698 77.696C351.482 77.52 351.19 77.432 350.822 77.432C350.462 77.432 350.186 77.5 349.994 77.636C349.802 77.772 349.706 77.952 349.706 78.176C349.706 78.352 349.77 78.5 349.898 78.62C350.026 78.74 350.182 78.836 350.366 78.908C350.55 78.972 350.822 79.056 351.182 79.16C351.662 79.288 352.054 79.42 352.358 79.556C352.67 79.684 352.938 79.876 353.162 80.132C353.386 80.388 353.502 80.728 353.51 81.152C353.51 81.528 353.406 81.864 353.198 82.16C352.99 82.456 352.694 82.688 352.31 82.856C351.934 83.024 351.49 83.108 350.978 83.108ZM356.704 74.66L356.548 80.48H355.408L355.252 74.66H356.704ZM356.02 83.084C355.772 83.084 355.564 83 355.396 82.832C355.228 82.664 355.144 82.456 355.144 82.208C355.144 81.96 355.228 81.752 355.396 81.584C355.564 81.416 355.772 81.332 356.02 81.332C356.26 81.332 356.464 81.416 356.632 81.584C356.8 81.752 356.884 81.96 356.884 82.208C356.884 82.456 356.8 82.664 356.632 82.832C356.464 83 356.26 83.084 356.02 83.084ZM359.059 74.66H360.547L359.287 77.516H358.327L359.059 74.66ZM361.219 74.66H362.707L361.447 77.516H360.487L361.219 74.66Z" fill="white"/>
</svg>
