<svg width="480" height="360" viewBox="0 0 480 360" fill="none" xmlns="http://www.w3.org/2000/svg">
<path d="M217.904 28.728H213.248L212.448 31H210.544L214.528 19.864H216.64L220.624 31H218.704L217.904 28.728ZM217.392 27.24L215.584 22.072L213.76 27.24H217.392ZM224.18 23.48C224.49 23.0747 224.911 22.7333 225.444 22.456C225.978 22.1787 226.58 22.04 227.252 22.04C228.02 22.04 228.719 22.232 229.348 22.616C229.988 22.9893 230.49 23.5173 230.852 24.2C231.215 24.8827 231.396 25.6667 231.396 26.552C231.396 27.4373 231.215 28.232 230.852 28.936C230.49 29.6293 229.988 30.1733 229.348 30.568C228.719 30.952 228.02 31.144 227.252 31.144C226.58 31.144 225.983 31.0107 225.46 30.744C224.938 30.4667 224.511 30.1253 224.18 29.72V35.192H222.356V22.184H224.18V23.48ZM229.54 26.552C229.54 25.944 229.412 25.4213 229.156 24.984C228.911 24.536 228.58 24.2 228.164 23.976C227.759 23.7413 227.322 23.624 226.852 23.624C226.394 23.624 225.956 23.7413 225.54 23.976C225.135 24.2107 224.804 24.552 224.548 25C224.303 25.448 224.18 25.976 224.18 26.584C224.18 27.192 224.303 27.7253 224.548 28.184C224.804 28.632 225.135 28.9733 225.54 29.208C225.956 29.4427 226.394 29.56 226.852 29.56C227.322 29.56 227.759 29.4427 228.164 29.208C228.58 28.9627 228.911 28.6107 229.156 28.152C229.412 27.6933 229.54 27.16 229.54 26.552ZM235.024 23.48C235.333 23.0747 235.755 22.7333 236.288 22.456C236.821 22.1787 237.424 22.04 238.096 22.04C238.864 22.04 239.563 22.232 240.192 22.616C240.832 22.9893 241.333 23.5173 241.696 24.2C242.059 24.8827 242.24 25.6667 242.24 26.552C242.24 27.4373 242.059 28.232 241.696 28.936C241.333 29.6293 240.832 30.1733 240.192 30.568C239.563 30.952 238.864 31.144 238.096 31.144C237.424 31.144 236.827 31.0107 236.304 30.744C235.781 30.4667 235.355 30.1253 235.024 29.72V35.192H233.2V22.184H235.024V23.48ZM240.384 26.552C240.384 25.944 240.256 25.4213 240 24.984C239.755 24.536 239.424 24.2 239.008 23.976C238.603 23.7413 238.165 23.624 237.696 23.624C237.237 23.624 236.8 23.7413 236.384 23.976C235.979 24.2107 235.648 24.552 235.392 25C235.147 25.448 235.024 25.976 235.024 26.584C235.024 27.192 235.147 27.7253 235.392 28.184C235.648 28.632 235.979 28.9733 236.384 29.208C236.8 29.4427 237.237 29.56 237.696 29.56C238.165 29.56 238.603 29.4427 239.008 29.208C239.424 28.9627 239.755 28.6107 240 28.152C240.256 27.6933 240.384 27.16 240.384 26.552ZM247.244 31.144C246.55 31.144 245.926 31.0213 245.372 30.776C244.828 30.52 244.396 30.1787 244.076 29.752C243.756 29.3147 243.585 28.8293 243.564 28.296H245.452C245.484 28.6693 245.66 28.984 245.98 29.24C246.31 29.4853 246.721 29.608 247.212 29.608C247.724 29.608 248.118 29.512 248.396 29.32C248.684 29.1173 248.828 28.8613 248.828 28.552C248.828 28.2213 248.668 27.976 248.348 27.816C248.038 27.656 247.542 27.48 246.86 27.288C246.198 27.1067 245.66 26.9307 245.244 26.76C244.828 26.5893 244.465 26.328 244.156 25.976C243.857 25.624 243.708 25.16 243.708 24.584C243.708 24.1147 243.846 23.688 244.124 23.304C244.401 22.9093 244.796 22.6 245.308 22.376C245.83 22.152 246.428 22.04 247.1 22.04C248.102 22.04 248.908 22.296 249.516 22.808C250.134 23.3093 250.465 23.9973 250.508 24.872H248.684C248.652 24.4773 248.492 24.1627 248.204 23.928C247.916 23.6933 247.526 23.576 247.036 23.576C246.556 23.576 246.188 23.6667 245.932 23.848C245.676 24.0293 245.548 24.2693 245.548 24.568C245.548 24.8027 245.633 25 245.804 25.16C245.974 25.32 246.182 25.448 246.428 25.544C246.673 25.6293 247.036 25.7413 247.516 25.88C248.156 26.0507 248.678 26.2267 249.084 26.408C249.5 26.5787 249.857 26.8347 250.156 27.176C250.454 27.5173 250.609 27.9707 250.62 28.536C250.62 29.0373 250.481 29.4853 250.204 29.88C249.926 30.2747 249.532 30.584 249.02 30.808C248.518 31.032 247.926 31.144 247.244 31.144ZM265.339 31L263.963 29.624C263.43 30.1573 262.848 30.5573 262.219 30.824C261.59 31.08 260.886 31.208 260.107 31.208C259.318 31.208 258.619 31.0693 258.011 30.792C257.403 30.5147 256.934 30.12 256.603 29.608C256.272 29.0853 256.107 28.4827 256.107 27.8C256.107 27.032 256.326 26.3493 256.763 25.752C257.2 25.144 257.851 24.664 258.715 24.312C258.406 23.9387 258.187 23.592 258.059 23.272C257.931 22.9413 257.867 22.5787 257.867 22.184C257.867 21.6933 257.99 21.256 258.235 20.872C258.491 20.488 258.854 20.184 259.323 19.96C259.792 19.736 260.336 19.624 260.955 19.624C261.584 19.624 262.118 19.7467 262.555 19.992C263.003 20.2267 263.334 20.552 263.547 20.968C263.771 21.384 263.862 21.848 263.819 22.36H261.995C262.006 21.9653 261.91 21.6613 261.707 21.448C261.504 21.224 261.227 21.112 260.875 21.112C260.523 21.112 260.235 21.2187 260.011 21.432C259.798 21.6347 259.691 21.8853 259.691 22.184C259.691 22.472 259.771 22.76 259.931 23.048C260.102 23.3253 260.395 23.688 260.811 24.136L263.755 27.064L264.891 25.192H266.859L265.419 27.656L265.019 28.312L267.723 31H265.339ZM260.107 29.656C261.11 29.656 261.995 29.2453 262.763 28.424L259.819 25.464C258.56 25.9653 257.931 26.7227 257.931 27.736C257.931 28.28 258.134 28.7387 258.539 29.112C258.944 29.4747 259.467 29.656 260.107 29.656ZM276.627 22.04C277.31 22.04 277.912 22.1787 278.435 22.456C278.968 22.7227 279.384 23.0587 279.683 23.464V22.184H281.523V31.144C281.523 31.9547 281.352 32.6747 281.011 33.304C280.67 33.944 280.174 34.4453 279.523 34.808C278.883 35.1707 278.115 35.352 277.219 35.352C276.024 35.352 275.032 35.0693 274.243 34.504C273.454 33.9493 273.006 33.192 272.899 32.232H274.707C274.846 32.6907 275.139 33.0587 275.587 33.336C276.046 33.624 276.59 33.768 277.219 33.768C277.955 33.768 278.547 33.544 278.995 33.096C279.454 32.648 279.683 31.9973 279.683 31.144V29.672C279.374 30.088 278.952 30.44 278.419 30.728C277.896 31.0053 277.299 31.144 276.627 31.144C275.859 31.144 275.155 30.952 274.515 30.568C273.886 30.1733 273.384 29.6293 273.011 28.936C272.648 28.232 272.467 27.4373 272.467 26.552C272.467 25.6667 272.648 24.8827 273.011 24.2C273.384 23.5173 273.886 22.9893 274.515 22.616C275.155 22.232 275.859 22.04 276.627 22.04ZM279.683 26.584C279.683 25.976 279.555 25.448 279.299 25C279.054 24.552 278.728 24.2107 278.323 23.976C277.918 23.7413 277.48 23.624 277.011 23.624C276.542 23.624 276.104 23.7413 275.699 23.976C275.294 24.2 274.963 24.536 274.707 24.984C274.462 25.4213 274.339 25.944 274.339 26.552C274.339 27.16 274.462 27.6933 274.707 28.152C274.963 28.6107 275.294 28.9627 275.699 29.208C276.115 29.4427 276.552 29.56 277.011 29.56C277.48 29.56 277.918 29.4427 278.323 29.208C278.728 28.9733 279.054 28.632 279.299 28.184C279.555 27.7253 279.683 27.192 279.683 26.584ZM283.311 26.552C283.311 25.6667 283.492 24.8827 283.855 24.2C284.228 23.5173 284.729 22.9893 285.359 22.616C285.999 22.232 286.703 22.04 287.471 22.04C288.164 22.04 288.767 22.1787 289.279 22.456C289.801 22.7227 290.217 23.0587 290.527 23.464V22.184H292.367V31H290.527V29.688C290.217 30.104 289.796 30.4507 289.263 30.728C288.729 31.0053 288.121 31.144 287.439 31.144C286.681 31.144 285.988 30.952 285.359 30.568C284.729 30.1733 284.228 29.6293 283.855 28.936C283.492 28.232 283.311 27.4373 283.311 26.552ZM290.527 26.584C290.527 25.976 290.399 25.448 290.143 25C289.897 24.552 289.572 24.2107 289.167 23.976C288.761 23.7413 288.324 23.624 287.855 23.624C287.385 23.624 286.948 23.7413 286.543 23.976C286.137 24.2 285.807 24.536 285.551 24.984C285.305 25.4213 285.183 25.944 285.183 26.552C285.183 27.16 285.305 27.6933 285.551 28.152C285.807 28.6107 286.137 28.9627 286.543 29.208C286.959 29.4427 287.396 29.56 287.855 29.56C288.324 29.56 288.761 29.4427 289.167 29.208C289.572 28.9733 289.897 28.632 290.143 28.184C290.399 27.7253 290.527 27.192 290.527 26.584ZM305.435 22.04C306.128 22.04 306.747 22.184 307.291 22.472C307.845 22.76 308.277 23.1867 308.587 23.752C308.907 24.3173 309.067 25 309.067 25.8V31H307.259V26.072C307.259 25.2827 307.061 24.68 306.667 24.264C306.272 23.8373 305.733 23.624 305.051 23.624C304.368 23.624 303.824 23.8373 303.419 24.264C303.024 24.68 302.827 25.2827 302.827 26.072V31H301.019V26.072C301.019 25.2827 300.821 24.68 300.427 24.264C300.032 23.8373 299.493 23.624 298.811 23.624C298.128 23.624 297.584 23.8373 297.179 24.264C296.784 24.68 296.587 25.2827 296.587 26.072V31H294.763V22.184H296.587V23.192C296.885 22.8293 297.264 22.5467 297.723 22.344C298.181 22.1413 298.672 22.04 299.195 22.04C299.899 22.04 300.528 22.1893 301.083 22.488C301.637 22.7867 302.064 23.2187 302.363 23.784C302.629 23.2507 303.045 22.8293 303.611 22.52C304.176 22.2 304.784 22.04 305.435 22.04ZM319.468 26.376C319.468 26.7067 319.446 27.0053 319.404 27.272H312.668C312.721 27.976 312.982 28.5413 313.452 28.968C313.921 29.3947 314.497 29.608 315.18 29.608C316.161 29.608 316.854 29.1973 317.26 28.376H319.227C318.961 29.1867 318.476 29.8533 317.772 30.376C317.078 30.888 316.214 31.144 315.18 31.144C314.337 31.144 313.58 30.9573 312.908 30.584C312.246 30.2 311.724 29.6667 311.34 28.984C310.966 28.2907 310.78 27.4907 310.78 26.584C310.78 25.6773 310.961 24.8827 311.324 24.2C311.697 23.5067 312.214 22.9733 312.876 22.6C313.548 22.2267 314.316 22.04 315.18 22.04C316.012 22.04 316.753 22.2213 317.404 22.584C318.054 22.9467 318.561 23.4587 318.924 24.12C319.286 24.7707 319.468 25.5227 319.468 26.376ZM317.564 25.8C317.553 25.128 317.313 24.5893 316.844 24.184C316.374 23.7787 315.793 23.576 315.1 23.576C314.47 23.576 313.932 23.7787 313.484 24.184C313.036 24.5787 312.769 25.1173 312.684 25.8H317.564ZM324.463 31.144C323.769 31.144 323.145 31.0213 322.591 30.776C322.047 30.52 321.615 30.1787 321.295 29.752C320.975 29.3147 320.804 28.8293 320.783 28.296H322.671C322.703 28.6693 322.879 28.984 323.199 29.24C323.529 29.4853 323.94 29.608 324.431 29.608C324.943 29.608 325.337 29.512 325.615 29.32C325.903 29.1173 326.047 28.8613 326.047 28.552C326.047 28.2213 325.887 27.976 325.567 27.816C325.257 27.656 324.761 27.48 324.079 27.288C323.417 27.1067 322.879 26.9307 322.463 26.76C322.047 26.5893 321.684 26.328 321.375 25.976C321.076 25.624 320.927 25.16 320.927 24.584C320.927 24.1147 321.065 23.688 321.343 23.304C321.62 22.9093 322.015 22.6 322.527 22.376C323.049 22.152 323.647 22.04 324.319 22.04C325.321 22.04 326.127 22.296 326.735 22.808C327.353 23.3093 327.684 23.9973 327.727 24.872H325.903C325.871 24.4773 325.711 24.1627 325.423 23.928C325.135 23.6933 324.745 23.576 324.255 23.576C323.775 23.576 323.407 23.6667 323.151 23.848C322.895 24.0293 322.767 24.2693 322.767 24.568C322.767 24.8027 322.852 25 323.023 25.16C323.193 25.32 323.401 25.448 323.647 25.544C323.892 25.6293 324.255 25.7413 324.735 25.88C325.375 26.0507 325.897 26.2267 326.303 26.408C326.719 26.5787 327.076 26.8347 327.375 27.176C327.673 27.5173 327.828 27.9707 327.839 28.536C327.839 29.0373 327.7 29.4853 327.423 29.88C327.145 30.2747 326.751 30.584 326.239 30.808C325.737 31.032 325.145 31.144 324.463 31.144Z" fill="white"/>
<rect x="160" y="50" width="80" height="80" rx="15" fill="#191919"/>
<rect x="205.657" y="78.6865" width="8" height="22" transform="rotate(45 205.657 78.6865)" fill="white"/>
<path d="M194.343 101.314L188.686 95.6572L187.86 99.7866C187.58 101.186 188.814 102.42 190.214 102.14L194.343 101.314Z" fill="white"/>
<path d="M208.485 75.8581C209.266 75.077 210.533 75.077 211.314 75.8581L214.142 78.6865C214.923 79.4675 214.923 80.7339 214.142 81.5149L212.728 82.9291L207.071 77.2723L208.485 75.8581Z" fill="white"/>
<rect x="192" y="78" width="4" height="4" rx="2" transform="rotate(-180 192 78)" fill="white"/>
<rect x="196" y="82" width="4" height="4" rx="2" transform="rotate(-180 196 82)" fill="white"/>
<rect x="188" y="82" width="4" height="4" rx="2" transform="rotate(-180 188 82)" fill="white"/>
<rect x="192" y="86" width="4" height="4" rx="2" transform="rotate(-180 192 86)" fill="white"/>
<rect x="216" y="102" width="12" height="4" rx="2" transform="rotate(-180 216 102)" fill="white"/>
<rect x="208" y="106" width="12" height="4" rx="2" transform="rotate(-90 208 106)" fill="white"/>
<path d="M264.832 59.88C266.016 59.88 267.051 60.1093 267.936 60.568C268.832 61.016 269.52 61.6667 270 62.52C270.491 63.3627 270.736 64.3493 270.736 65.48C270.736 66.6107 270.491 67.592 270 68.424C269.52 69.256 268.832 69.896 267.936 70.344C267.051 70.7813 266.016 71 264.832 71H261.2V59.88H264.832ZM264.832 69.512C266.133 69.512 267.131 69.16 267.824 68.456C268.517 67.752 268.864 66.76 268.864 65.48C268.864 64.1893 268.517 63.1813 267.824 62.456C267.131 61.7307 266.133 61.368 264.832 61.368H263.024V69.512H264.832ZM274.368 63.464C274.634 63.016 274.986 62.6693 275.424 62.424C275.872 62.168 276.4 62.04 277.008 62.04V63.928H276.544C275.829 63.928 275.285 64.1093 274.912 64.472C274.549 64.8347 274.368 65.464 274.368 66.36V71H272.544V62.184H274.368V63.464ZM278.076 66.552C278.076 65.6667 278.258 64.8827 278.62 64.2C278.994 63.5173 279.495 62.9893 280.124 62.616C280.764 62.232 281.468 62.04 282.236 62.04C282.93 62.04 283.532 62.1787 284.044 62.456C284.567 62.7227 284.983 63.0587 285.292 63.464V62.184H287.132V71H285.292V69.688C284.983 70.104 284.562 70.4507 284.028 70.728C283.495 71.0053 282.887 71.144 282.204 71.144C281.447 71.144 280.754 70.952 280.124 70.568C279.495 70.1733 278.994 69.6293 278.62 68.936C278.258 68.232 278.076 67.4373 278.076 66.552ZM285.292 66.584C285.292 65.976 285.164 65.448 284.908 65C284.663 64.552 284.338 64.2107 283.932 63.976C283.527 63.7413 283.09 63.624 282.62 63.624C282.151 63.624 281.714 63.7413 281.308 63.976C280.903 64.2 280.572 64.536 280.316 64.984C280.071 65.4213 279.948 65.944 279.948 66.552C279.948 67.16 280.071 67.6933 280.316 68.152C280.572 68.6107 280.903 68.9627 281.308 69.208C281.724 69.4427 282.162 69.56 282.62 69.56C283.09 69.56 283.527 69.4427 283.932 69.208C284.338 68.9733 284.663 68.632 284.908 68.184C285.164 67.7253 285.292 67.192 285.292 66.584ZM301.368 62.184L298.632 71H296.712L294.936 64.488L293.16 71H291.24L288.488 62.184H290.344L292.184 69.272L294.056 62.184H295.96L297.752 69.24L299.576 62.184H301.368ZM314.072 59.88V61.368H311.112V71H309.288V61.368H306.312V59.88H314.072ZM320.479 62.04C321.151 62.04 321.748 62.184 322.271 62.472C322.804 62.76 323.22 63.1867 323.519 63.752C323.828 64.3173 323.983 65 323.983 65.8V71H322.175V66.072C322.175 65.2827 321.977 64.68 321.583 64.264C321.188 63.8373 320.649 63.624 319.967 63.624C319.284 63.624 318.74 63.8373 318.335 64.264C317.94 64.68 317.743 65.2827 317.743 66.072V71H315.919V59.16H317.743V63.208C318.052 62.8347 318.441 62.5467 318.911 62.344C319.391 62.1413 319.913 62.04 320.479 62.04ZM327.237 61.016C326.907 61.016 326.629 60.904 326.405 60.68C326.181 60.456 326.069 60.1787 326.069 59.848C326.069 59.5173 326.181 59.24 326.405 59.016C326.629 58.792 326.907 58.68 327.237 58.68C327.557 58.68 327.829 58.792 328.053 59.016C328.277 59.24 328.389 59.5173 328.389 59.848C328.389 60.1787 328.277 60.456 328.053 60.68C327.829 60.904 327.557 61.016 327.237 61.016ZM328.133 62.184V71H326.309V62.184H328.133ZM333.728 71.144C333.035 71.144 332.411 71.0213 331.856 70.776C331.312 70.52 330.88 70.1787 330.56 69.752C330.24 69.3147 330.069 68.8293 330.048 68.296H331.936C331.968 68.6693 332.144 68.984 332.464 69.24C332.795 69.4853 333.205 69.608 333.696 69.608C334.208 69.608 334.603 69.512 334.88 69.32C335.168 69.1173 335.312 68.8613 335.312 68.552C335.312 68.2213 335.152 67.976 334.832 67.816C334.523 67.656 334.027 67.48 333.344 67.288C332.683 67.1067 332.144 66.9307 331.728 66.76C331.312 66.5893 330.949 66.328 330.64 65.976C330.341 65.624 330.192 65.16 330.192 64.584C330.192 64.1147 330.331 63.688 330.608 63.304C330.885 62.9093 331.28 62.6 331.792 62.376C332.315 62.152 332.912 62.04 333.584 62.04C334.587 62.04 335.392 62.296 336 62.808C336.619 63.3093 336.949 63.9973 336.992 64.872H335.168C335.136 64.4773 334.976 64.1627 334.688 63.928C334.4 63.6933 334.011 63.576 333.52 63.576C333.04 63.576 332.672 63.6667 332.416 63.848C332.16 64.0293 332.032 64.2693 332.032 64.568C332.032 64.8027 332.117 65 332.288 65.16C332.459 65.32 332.667 65.448 332.912 65.544C333.157 65.6293 333.52 65.7413 334 65.88C334.64 66.0507 335.163 66.2267 335.568 66.408C335.984 66.5787 336.341 66.8347 336.64 67.176C336.939 67.5173 337.093 67.9707 337.104 68.536C337.104 69.0373 336.965 69.4853 336.688 69.88C336.411 70.2747 336.016 70.584 335.504 70.808C335.003 71.032 334.411 71.144 333.728 71.144ZM341.363 59.88L341.155 67.64H339.635L339.427 59.88H341.363ZM340.451 71.112C340.12 71.112 339.843 71 339.619 70.776C339.395 70.552 339.283 70.2747 339.283 69.944C339.283 69.6133 339.395 69.336 339.619 69.112C339.843 68.888 340.12 68.776 340.451 68.776C340.771 68.776 341.043 68.888 341.267 69.112C341.491 69.336 341.603 69.6133 341.603 69.944C341.603 70.2747 341.491 70.552 341.267 70.776C341.043 71 340.771 71.112 340.451 71.112ZM350.852 67.752C350.468 67.752 350.116 67.6613 349.796 67.48C349.487 67.288 349.236 67.0373 349.044 66.728C348.863 66.408 348.772 66.056 348.772 65.672C348.772 65.0853 348.975 64.5893 349.38 64.184C349.785 63.7787 350.276 63.576 350.852 63.576C351.449 63.576 351.951 63.7787 352.356 64.184C352.761 64.5893 352.964 65.0853 352.964 65.672C352.964 66.2587 352.761 66.7547 352.356 67.16C351.951 67.5547 351.449 67.752 350.852 67.752ZM367.967 63.08C367.679 62.5253 367.279 62.1093 366.767 61.832C366.255 61.544 365.663 61.4 364.991 61.4C364.255 61.4 363.599 61.5653 363.023 61.896C362.447 62.2267 361.993 62.696 361.663 63.304C361.343 63.912 361.183 64.616 361.183 65.416C361.183 66.216 361.343 66.9253 361.663 67.544C361.993 68.152 362.447 68.6213 363.023 68.952C363.599 69.2827 364.255 69.448 364.991 69.448C365.983 69.448 366.788 69.1707 367.407 68.616C368.025 68.0613 368.404 67.3093 368.543 66.36H364.367V64.904H370.495V66.328C370.377 67.192 370.068 67.9867 369.567 68.712C369.076 69.4373 368.431 70.0187 367.631 70.456C366.841 70.8827 365.961 71.096 364.991 71.096C363.945 71.096 362.991 70.856 362.127 70.376C361.263 69.8853 360.575 69.208 360.063 68.344C359.561 67.48 359.311 66.504 359.311 65.416C359.311 64.328 359.561 63.352 360.063 62.488C360.575 61.624 361.263 60.952 362.127 60.472C363.001 59.9813 363.956 59.736 364.991 59.736C366.175 59.736 367.225 60.0293 368.143 60.616C369.071 61.192 369.743 62.0133 370.159 63.08H367.967ZM371.686 66.552C371.686 65.6667 371.867 64.8827 372.23 64.2C372.603 63.5173 373.104 62.9893 373.734 62.616C374.374 62.232 375.078 62.04 375.846 62.04C376.539 62.04 377.142 62.1787 377.654 62.456C378.176 62.7227 378.592 63.0587 378.902 63.464V62.184H380.742V71H378.902V69.688C378.592 70.104 378.171 70.4507 377.638 70.728C377.104 71.0053 376.496 71.144 375.814 71.144C375.056 71.144 374.363 70.952 373.734 70.568C373.104 70.1733 372.603 69.6293 372.23 68.936C371.867 68.232 371.686 67.4373 371.686 66.552ZM378.902 66.584C378.902 65.976 378.774 65.448 378.518 65C378.272 64.552 377.947 64.2107 377.542 63.976C377.136 63.7413 376.699 63.624 376.23 63.624C375.76 63.624 375.323 63.7413 374.918 63.976C374.512 64.2 374.182 64.536 373.926 64.984C373.68 65.4213 373.558 65.944 373.558 66.552C373.558 67.16 373.68 67.6933 373.926 68.152C374.182 68.6107 374.512 68.9627 374.918 69.208C375.334 69.4427 375.771 69.56 376.23 69.56C376.699 69.56 377.136 69.4427 377.542 69.208C377.947 68.9733 378.272 68.632 378.518 68.184C378.774 67.7253 378.902 67.192 378.902 66.584ZM393.81 62.04C394.503 62.04 395.122 62.184 395.666 62.472C396.22 62.76 396.652 63.1867 396.962 63.752C397.282 64.3173 397.442 65 397.442 65.8V71H395.634V66.072C395.634 65.2827 395.436 64.68 395.042 64.264C394.647 63.8373 394.108 63.624 393.426 63.624C392.743 63.624 392.199 63.8373 391.794 64.264C391.399 64.68 391.202 65.2827 391.202 66.072V71H389.394V66.072C389.394 65.2827 389.196 64.68 388.802 64.264C388.407 63.8373 387.868 63.624 387.186 63.624C386.503 63.624 385.959 63.8373 385.554 64.264C385.159 64.68 384.962 65.2827 384.962 66.072V71H383.138V62.184H384.962V63.192C385.26 62.8293 385.639 62.5467 386.098 62.344C386.556 62.1413 387.047 62.04 387.57 62.04C388.274 62.04 388.903 62.1893 389.458 62.488C390.012 62.7867 390.439 63.2187 390.738 63.784C391.004 63.2507 391.42 62.8293 391.986 62.52C392.551 62.2 393.159 62.04 393.81 62.04ZM407.843 66.376C407.843 66.7067 407.821 67.0053 407.779 67.272H401.043C401.096 67.976 401.357 68.5413 401.827 68.968C402.296 69.3947 402.872 69.608 403.555 69.608C404.536 69.608 405.229 69.1973 405.635 68.376H407.602C407.336 69.1867 406.851 69.8533 406.147 70.376C405.453 70.888 404.589 71.144 403.555 71.144C402.712 71.144 401.955 70.9573 401.283 70.584C400.621 70.2 400.099 69.6667 399.715 68.984C399.341 68.2907 399.155 67.4907 399.155 66.584C399.155 65.6773 399.336 64.8827 399.699 64.2C400.072 63.5067 400.589 62.9733 401.251 62.6C401.923 62.2267 402.691 62.04 403.555 62.04C404.387 62.04 405.128 62.2213 405.779 62.584C406.429 62.9467 406.936 63.4587 407.299 64.12C407.661 64.7707 407.843 65.5227 407.843 66.376ZM405.939 65.8C405.928 65.128 405.688 64.5893 405.219 64.184C404.749 63.7787 404.168 63.576 403.475 63.576C402.845 63.576 402.307 63.7787 401.859 64.184C401.411 64.5787 401.144 65.1173 401.059 65.8H405.939Z" fill="white"/>
<path d="M175.928 197.296H172.436L171.836 199H170.408L173.396 190.648H174.98L177.968 199H176.528L175.928 197.296ZM175.544 196.18L174.188 192.304L172.82 196.18H175.544ZM180.635 193.372C180.867 193.052 181.183 192.792 181.583 192.592C181.991 192.384 182.443 192.28 182.939 192.28C183.523 192.28 184.051 192.42 184.523 192.7C184.995 192.98 185.367 193.38 185.639 193.9C185.911 194.412 186.047 195 186.047 195.664C186.047 196.328 185.911 196.924 185.639 197.452C185.367 197.972 184.991 198.38 184.511 198.676C184.039 198.964 183.515 199.108 182.939 199.108C182.427 199.108 181.971 199.008 181.571 198.808C181.179 198.608 180.867 198.352 180.635 198.04V199H179.267V190.12H180.635V193.372ZM184.655 195.664C184.655 195.208 184.559 194.816 184.367 194.488C184.183 194.152 183.935 193.9 183.623 193.732C183.319 193.556 182.991 193.468 182.639 193.468C182.295 193.468 181.967 193.556 181.655 193.732C181.351 193.908 181.103 194.164 180.911 194.5C180.727 194.836 180.635 195.232 180.635 195.688C180.635 196.144 180.727 196.544 180.911 196.888C181.103 197.224 181.351 197.48 181.655 197.656C181.967 197.832 182.295 197.92 182.639 197.92C182.991 197.92 183.319 197.832 183.623 197.656C183.935 197.472 184.183 197.208 184.367 196.864C184.559 196.52 184.655 196.12 184.655 195.664ZM190.268 199.108C189.644 199.108 189.08 198.968 188.576 198.688C188.072 198.4 187.676 198 187.388 197.488C187.1 196.968 186.956 196.368 186.956 195.688C186.956 195.016 187.104 194.42 187.4 193.9C187.696 193.38 188.1 192.98 188.612 192.7C189.124 192.42 189.696 192.28 190.328 192.28C190.96 192.28 191.532 192.42 192.044 192.7C192.556 192.98 192.96 193.38 193.256 193.9C193.552 194.42 193.7 195.016 193.7 195.688C193.7 196.36 193.548 196.956 193.244 197.476C192.94 197.996 192.524 198.4 191.996 198.688C191.476 198.968 190.9 199.108 190.268 199.108ZM190.268 197.92C190.62 197.92 190.948 197.836 191.252 197.668C191.564 197.5 191.816 197.248 192.008 196.912C192.2 196.576 192.296 196.168 192.296 195.688C192.296 195.208 192.204 194.804 192.02 194.476C191.836 194.14 191.592 193.888 191.288 193.72C190.984 193.552 190.656 193.468 190.304 193.468C189.952 193.468 189.624 193.552 189.32 193.72C189.024 193.888 188.788 194.14 188.612 194.476C188.436 194.804 188.348 195.208 188.348 195.688C188.348 196.4 188.528 196.952 188.888 197.344C189.256 197.728 189.716 197.92 190.268 197.92ZM201.04 192.388V199H199.672V198.22C199.456 198.492 199.172 198.708 198.82 198.868C198.476 199.02 198.108 199.096 197.716 199.096C197.196 199.096 196.728 198.988 196.312 198.772C195.904 198.556 195.58 198.236 195.34 197.812C195.108 197.388 194.992 196.876 194.992 196.276V192.388H196.348V196.072C196.348 196.664 196.496 197.12 196.792 197.44C197.088 197.752 197.492 197.908 198.004 197.908C198.516 197.908 198.92 197.752 199.216 197.44C199.52 197.12 199.672 196.664 199.672 196.072V192.388H201.04ZM204.441 193.504V197.164C204.441 197.412 204.497 197.592 204.609 197.704C204.729 197.808 204.929 197.86 205.209 197.86H206.049V199H204.969C204.353 199 203.881 198.856 203.553 198.568C203.225 198.28 203.061 197.812 203.061 197.164V193.504H202.281V192.388H203.061V190.744H204.441V192.388H206.049V193.504H204.441ZM212.023 193.504V197.164C212.023 197.412 212.079 197.592 212.191 197.704C212.311 197.808 212.511 197.86 212.791 197.86H213.631V199H212.551C211.935 199 211.463 198.856 211.135 198.568C210.807 198.28 210.643 197.812 210.643 197.164V193.504H209.863V192.388H210.643V190.744H212.023V192.388H213.631V193.504H212.023ZM218.312 192.28C218.816 192.28 219.264 192.388 219.656 192.604C220.056 192.82 220.368 193.14 220.592 193.564C220.824 193.988 220.94 194.5 220.94 195.1V199H219.584V195.304C219.584 194.712 219.436 194.26 219.14 193.948C218.844 193.628 218.44 193.468 217.928 193.468C217.416 193.468 217.008 193.628 216.704 193.948C216.408 194.26 216.26 194.712 216.26 195.304V199H214.892V190.12H216.26V193.156C216.492 192.876 216.784 192.66 217.136 192.508C217.496 192.356 217.888 192.28 218.312 192.28ZM223.381 191.512C223.133 191.512 222.925 191.428 222.757 191.26C222.589 191.092 222.505 190.884 222.505 190.636C222.505 190.388 222.589 190.18 222.757 190.012C222.925 189.844 223.133 189.76 223.381 189.76C223.621 189.76 223.825 189.844 223.993 190.012C224.161 190.18 224.245 190.388 224.245 190.636C224.245 190.884 224.161 191.092 223.993 191.26C223.825 191.428 223.621 191.512 223.381 191.512ZM224.053 192.388V199H222.685V192.388H224.053ZM228.249 199.108C227.729 199.108 227.261 199.016 226.845 198.832C226.437 198.64 226.113 198.384 225.873 198.064C225.633 197.736 225.505 197.372 225.489 196.972H226.905C226.929 197.252 227.061 197.488 227.301 197.68C227.549 197.864 227.857 197.956 228.225 197.956C228.609 197.956 228.905 197.884 229.113 197.74C229.329 197.588 229.437 197.396 229.437 197.164C229.437 196.916 229.317 196.732 229.077 196.612C228.845 196.492 228.473 196.36 227.961 196.216C227.465 196.08 227.061 195.948 226.749 195.82C226.437 195.692 226.165 195.496 225.933 195.232C225.709 194.968 225.597 194.62 225.597 194.188C225.597 193.836 225.701 193.516 225.909 193.228C226.117 192.932 226.413 192.7 226.797 192.532C227.189 192.364 227.637 192.28 228.141 192.28C228.893 192.28 229.497 192.472 229.953 192.856C230.417 193.232 230.665 193.748 230.697 194.404H229.329C229.305 194.108 229.185 193.872 228.969 193.696C228.753 193.52 228.461 193.432 228.093 193.432C227.733 193.432 227.457 193.5 227.265 193.636C227.073 193.772 226.977 193.952 226.977 194.176C226.977 194.352 227.041 194.5 227.169 194.62C227.297 194.74 227.453 194.836 227.637 194.908C227.821 194.972 228.093 195.056 228.453 195.16C228.933 195.288 229.325 195.42 229.629 195.556C229.941 195.684 230.209 195.876 230.433 196.132C230.657 196.388 230.773 196.728 230.781 197.152C230.781 197.528 230.677 197.864 230.469 198.16C230.261 198.456 229.965 198.688 229.581 198.856C229.205 199.024 228.761 199.108 228.249 199.108ZM238.041 192.28C238.553 192.28 239.005 192.384 239.397 192.592C239.797 192.792 240.109 193.044 240.333 193.348V192.388H241.713V199.108C241.713 199.716 241.585 200.256 241.329 200.728C241.073 201.208 240.701 201.584 240.213 201.856C239.733 202.128 239.157 202.264 238.485 202.264C237.589 202.264 236.845 202.052 236.253 201.628C235.661 201.212 235.325 200.644 235.245 199.924H236.601C236.705 200.268 236.925 200.544 237.261 200.752C237.605 200.968 238.013 201.076 238.485 201.076C239.037 201.076 239.481 200.908 239.817 200.572C240.161 200.236 240.333 199.748 240.333 199.108V198.004C240.101 198.316 239.785 198.58 239.385 198.796C238.993 199.004 238.545 199.108 238.041 199.108C237.465 199.108 236.937 198.964 236.457 198.676C235.985 198.38 235.609 197.972 235.329 197.452C235.057 196.924 234.921 196.328 234.921 195.664C234.921 195 235.057 194.412 235.329 193.9C235.609 193.388 235.985 192.992 236.457 192.712C236.937 192.424 237.465 192.28 238.041 192.28ZM240.333 195.688C240.333 195.232 240.237 194.836 240.045 194.5C239.861 194.164 239.617 193.908 239.313 193.732C239.009 193.556 238.681 193.468 238.329 193.468C237.977 193.468 237.649 193.556 237.345 193.732C237.041 193.9 236.793 194.152 236.601 194.488C236.417 194.816 236.325 195.208 236.325 195.664C236.325 196.12 236.417 196.52 236.601 196.864C236.793 197.208 237.041 197.472 237.345 197.656C237.657 197.832 237.985 197.92 238.329 197.92C238.681 197.92 239.009 197.832 239.313 197.656C239.617 197.48 239.861 197.224 240.045 196.888C240.237 196.544 240.333 196.144 240.333 195.688ZM243.053 195.664C243.053 195 243.189 194.412 243.461 193.9C243.741 193.388 244.117 192.992 244.589 192.712C245.069 192.424 245.597 192.28 246.173 192.28C246.693 192.28 247.145 192.384 247.529 192.592C247.921 192.792 248.233 193.044 248.465 193.348V192.388H249.845V199H248.465V198.016C248.233 198.328 247.917 198.588 247.517 198.796C247.117 199.004 246.661 199.108 246.149 199.108C245.581 199.108 245.061 198.964 244.589 198.676C244.117 198.38 243.741 197.972 243.461 197.452C243.189 196.924 243.053 196.328 243.053 195.664ZM248.465 195.688C248.465 195.232 248.369 194.836 248.177 194.5C247.993 194.164 247.749 193.908 247.445 193.732C247.141 193.556 246.813 193.468 246.461 193.468C246.109 193.468 245.781 193.556 245.477 193.732C245.173 193.9 244.925 194.152 244.733 194.488C244.549 194.816 244.457 195.208 244.457 195.664C244.457 196.12 244.549 196.52 244.733 196.864C244.925 197.208 245.173 197.472 245.477 197.656C245.789 197.832 246.117 197.92 246.461 197.92C246.813 197.92 247.141 197.832 247.445 197.656C247.749 197.48 247.993 197.224 248.177 196.888C248.369 196.544 248.465 196.144 248.465 195.688ZM259.646 192.28C260.166 192.28 260.63 192.388 261.038 192.604C261.454 192.82 261.778 193.14 262.01 193.564C262.25 193.988 262.37 194.5 262.37 195.1V199H261.014V195.304C261.014 194.712 260.866 194.26 260.57 193.948C260.274 193.628 259.87 193.468 259.358 193.468C258.846 193.468 258.438 193.628 258.134 193.948C257.838 194.26 257.69 194.712 257.69 195.304V199H256.334V195.304C256.334 194.712 256.186 194.26 255.89 193.948C255.594 193.628 255.19 193.468 254.678 193.468C254.166 193.468 253.758 193.628 253.454 193.948C253.158 194.26 253.01 194.712 253.01 195.304V199H251.642V192.388H253.01V193.144C253.234 192.872 253.518 192.66 253.862 192.508C254.206 192.356 254.574 192.28 254.966 192.28C255.494 192.28 255.966 192.392 256.382 192.616C256.798 192.84 257.118 193.164 257.342 193.588C257.542 193.188 257.854 192.872 258.278 192.64C258.702 192.4 259.158 192.28 259.646 192.28ZM270.171 195.532C270.171 195.78 270.155 196.004 270.123 196.204H265.071C265.111 196.732 265.307 197.156 265.659 197.476C266.011 197.796 266.443 197.956 266.955 197.956C267.691 197.956 268.211 197.648 268.515 197.032H269.991C269.791 197.64 269.427 198.14 268.899 198.532C268.379 198.916 267.731 199.108 266.955 199.108C266.323 199.108 265.755 198.968 265.251 198.688C264.755 198.4 264.363 198 264.075 197.488C263.795 196.968 263.655 196.368 263.655 195.688C263.655 195.008 263.791 194.412 264.063 193.9C264.343 193.38 264.731 192.98 265.227 192.7C265.731 192.42 266.307 192.28 266.955 192.28C267.579 192.28 268.135 192.416 268.623 192.688C269.111 192.96 269.491 193.344 269.763 193.84C270.035 194.328 270.171 194.892 270.171 195.532ZM268.743 195.1C268.735 194.596 268.555 194.192 268.203 193.888C267.851 193.584 267.415 193.432 266.895 193.432C266.423 193.432 266.019 193.584 265.683 193.888C265.347 194.184 265.147 194.588 265.083 195.1H268.743Z" fill="white"/>
<path d="M264.54 89.05V94.06C264.54 94.68 264.35 95.17 263.97 95.53C263.597 95.89 263.103 96.07 262.49 96.07C261.877 96.07 261.38 95.89 261 95.53C260.627 95.17 260.44 94.68 260.44 94.06H261.59C261.597 94.3667 261.673 94.61 261.82 94.79C261.973 94.97 262.197 95.06 262.49 95.06C262.783 95.06 263.007 94.97 263.16 94.79C263.313 94.6033 263.39 94.36 263.39 94.06V89.05H264.54ZM267.535 88.6V96H266.395V88.6H267.535ZM271.421 96.09C270.901 96.09 270.431 95.9733 270.011 95.74C269.591 95.5 269.261 95.1667 269.021 94.74C268.781 94.3067 268.661 93.8067 268.661 93.24C268.661 92.68 268.785 92.1833 269.031 91.75C269.278 91.3167 269.615 90.9833 270.041 90.75C270.468 90.5167 270.945 90.4 271.471 90.4C271.998 90.4 272.475 90.5167 272.901 90.75C273.328 90.9833 273.665 91.3167 273.911 91.75C274.158 92.1833 274.281 92.68 274.281 93.24C274.281 93.8 274.155 94.2967 273.901 94.73C273.648 95.1633 273.301 95.5 272.861 95.74C272.428 95.9733 271.948 96.09 271.421 96.09ZM271.421 95.1C271.715 95.1 271.988 95.03 272.241 94.89C272.501 94.75 272.711 94.54 272.871 94.26C273.031 93.98 273.111 93.64 273.111 93.24C273.111 92.84 273.035 92.5033 272.881 92.23C272.728 91.95 272.525 91.74 272.271 91.6C272.018 91.46 271.745 91.39 271.451 91.39C271.158 91.39 270.885 91.46 270.631 91.6C270.385 91.74 270.188 91.95 270.041 92.23C269.895 92.5033 269.821 92.84 269.821 93.24C269.821 93.8333 269.971 94.2933 270.271 94.62C270.578 94.94 270.961 95.1 271.421 95.1ZM279.598 94.58H276.688L276.188 96H274.998L277.488 89.04H278.808L281.298 96H280.098L279.598 94.58ZM279.278 93.65L278.148 90.42L277.008 93.65H279.278ZM287.371 90.49V96H286.231V95.35C286.051 95.5767 285.814 95.7567 285.521 95.89C285.234 96.0167 284.928 96.08 284.601 96.08C284.168 96.08 283.778 95.99 283.431 95.81C283.091 95.63 282.821 95.3633 282.621 95.01C282.428 94.6567 282.331 94.23 282.331 93.73V90.49H283.461V93.56C283.461 94.0533 283.584 94.4333 283.831 94.7C284.078 94.96 284.414 95.09 284.841 95.09C285.268 95.09 285.604 94.96 285.851 94.7C286.104 94.4333 286.231 94.0533 286.231 93.56V90.49H287.371ZM293.023 93.97C292.783 93.97 292.563 93.9133 292.363 93.8C292.169 93.68 292.013 93.5233 291.893 93.33C291.779 93.13 291.723 92.91 291.723 92.67C291.723 92.3033 291.849 91.9933 292.103 91.74C292.356 91.4867 292.663 91.36 293.023 91.36C293.396 91.36 293.709 91.4867 293.963 91.74C294.216 91.9933 294.343 92.3033 294.343 92.67C294.343 93.0367 294.216 93.3467 293.963 93.6C293.709 93.8467 293.396 93.97 293.023 93.97ZM299.269 89.76C299.063 89.76 298.889 89.69 298.749 89.55C298.609 89.41 298.539 89.2367 298.539 89.03C298.539 88.8233 298.609 88.65 298.749 88.51C298.889 88.37 299.063 88.3 299.269 88.3C299.469 88.3 299.639 88.37 299.779 88.51C299.919 88.65 299.989 88.8233 299.989 89.03C299.989 89.2367 299.919 89.41 299.779 89.55C299.639 89.69 299.469 89.76 299.269 89.76ZM299.829 90.49V96H298.689V90.49H299.829ZM307.996 90.4C308.43 90.4 308.816 90.49 309.156 90.67C309.503 90.85 309.773 91.1167 309.966 91.47C310.166 91.8233 310.266 92.25 310.266 92.75V96H309.136V92.92C309.136 92.4267 309.013 92.05 308.766 91.79C308.52 91.5233 308.183 91.39 307.756 91.39C307.33 91.39 306.99 91.5233 306.736 91.79C306.49 92.05 306.366 92.4267 306.366 92.92V96H305.236V92.92C305.236 92.4267 305.113 92.05 304.866 91.79C304.62 91.5233 304.283 91.39 303.856 91.39C303.43 91.39 303.09 91.5233 302.836 91.79C302.59 92.05 302.466 92.4267 302.466 92.92V96H301.326V90.49H302.466V91.12C302.653 90.8933 302.89 90.7167 303.176 90.59C303.463 90.4633 303.77 90.4 304.096 90.4C304.536 90.4 304.93 90.4933 305.276 90.68C305.623 90.8667 305.89 91.1367 306.076 91.49C306.243 91.1567 306.503 90.8933 306.856 90.7C307.21 90.5 307.59 90.4 307.996 90.4ZM318.387 90.4C318.82 90.4 319.207 90.49 319.547 90.67C319.893 90.85 320.163 91.1167 320.357 91.47C320.557 91.8233 320.657 92.25 320.657 92.75V96H319.527V92.92C319.527 92.4267 319.403 92.05 319.157 91.79C318.91 91.5233 318.573 91.39 318.147 91.39C317.72 91.39 317.38 91.5233 317.127 91.79C316.88 92.05 316.757 92.4267 316.757 92.92V96H315.627V92.92C315.627 92.4267 315.503 92.05 315.257 91.79C315.01 91.5233 314.673 91.39 314.247 91.39C313.82 91.39 313.48 91.5233 313.227 91.79C312.98 92.05 312.857 92.4267 312.857 92.92V96H311.717V90.49H312.857V91.12C313.043 90.8933 313.28 90.7167 313.567 90.59C313.853 90.4633 314.16 90.4 314.487 90.4C314.927 90.4 315.32 90.4933 315.667 90.68C316.013 90.8667 316.28 91.1367 316.467 91.49C316.633 91.1567 316.893 90.8933 317.247 90.7C317.6 90.5 317.98 90.4 318.387 90.4ZM321.727 93.22C321.727 92.6667 321.841 92.1767 322.067 91.75C322.301 91.3233 322.614 90.9933 323.007 90.76C323.407 90.52 323.847 90.4 324.327 90.4C324.761 90.4 325.137 90.4867 325.457 90.66C325.784 90.8267 326.044 91.0367 326.237 91.29V90.49H327.387V96H326.237V95.18C326.044 95.44 325.781 95.6567 325.447 95.83C325.114 96.0033 324.734 96.09 324.307 96.09C323.834 96.09 323.401 95.97 323.007 95.73C322.614 95.4833 322.301 95.1433 322.067 94.71C321.841 94.27 321.727 93.7733 321.727 93.22ZM326.237 93.24C326.237 92.86 326.157 92.53 325.997 92.25C325.844 91.97 325.641 91.7567 325.387 91.61C325.134 91.4633 324.861 91.39 324.567 91.39C324.274 91.39 324.001 91.4633 323.747 91.61C323.494 91.75 323.287 91.96 323.127 92.24C322.974 92.5133 322.897 92.84 322.897 93.22C322.897 93.6 322.974 93.9333 323.127 94.22C323.287 94.5067 323.494 94.7267 323.747 94.88C324.007 95.0267 324.281 95.1 324.567 95.1C324.861 95.1 325.134 95.0267 325.387 94.88C325.641 94.7333 325.844 94.52 325.997 94.24C326.157 93.9533 326.237 93.62 326.237 93.24ZM334.975 96.4V97.46H329.395V96.4H334.975ZM336.483 93.24C336.483 92.6733 336.597 92.1767 336.823 91.75C337.057 91.3167 337.377 90.9833 337.783 90.75C338.19 90.5167 338.657 90.4 339.183 90.4C339.85 90.4 340.4 90.56 340.833 90.88C341.273 91.1933 341.57 91.6433 341.723 92.23H340.493C340.393 91.9567 340.233 91.7433 340.013 91.59C339.793 91.4367 339.517 91.36 339.183 91.36C338.717 91.36 338.343 91.5267 338.063 91.86C337.79 92.1867 337.653 92.6467 337.653 93.24C337.653 93.8333 337.79 94.2967 338.063 94.63C338.343 94.9633 338.717 95.13 339.183 95.13C339.843 95.13 340.28 94.84 340.493 94.26H341.723C341.563 94.82 341.263 95.2667 340.823 95.6C340.383 95.9267 339.837 96.09 339.183 96.09C338.657 96.09 338.19 95.9733 337.783 95.74C337.377 95.5 337.057 95.1667 336.823 94.74C336.597 94.3067 336.483 93.8067 336.483 93.24ZM345.249 96.09C344.729 96.09 344.259 95.9733 343.839 95.74C343.419 95.5 343.089 95.1667 342.849 94.74C342.609 94.3067 342.489 93.8067 342.489 93.24C342.489 92.68 342.613 92.1833 342.859 91.75C343.106 91.3167 343.443 90.9833 343.869 90.75C344.296 90.5167 344.773 90.4 345.299 90.4C345.826 90.4 346.303 90.5167 346.729 90.75C347.156 90.9833 347.493 91.3167 347.739 91.75C347.986 92.1833 348.109 92.68 348.109 93.24C348.109 93.8 347.983 94.2967 347.729 94.73C347.476 95.1633 347.129 95.5 346.689 95.74C346.256 95.9733 345.776 96.09 345.249 96.09ZM345.249 95.1C345.543 95.1 345.816 95.03 346.069 94.89C346.329 94.75 346.539 94.54 346.699 94.26C346.859 93.98 346.939 93.64 346.939 93.24C346.939 92.84 346.863 92.5033 346.709 92.23C346.556 91.95 346.353 91.74 346.099 91.6C345.846 91.46 345.573 91.39 345.279 91.39C344.986 91.39 344.713 91.46 344.459 91.6C344.213 91.74 344.016 91.95 343.869 92.23C343.723 92.5033 343.649 92.84 343.649 93.24C343.649 93.8333 343.799 94.2933 344.099 94.62C344.406 94.94 344.789 95.1 345.249 95.1ZM348.856 93.22C348.856 92.6667 348.97 92.1767 349.196 91.75C349.43 91.3233 349.743 90.9933 350.136 90.76C350.536 90.52 350.98 90.4 351.466 90.4C351.826 90.4 352.18 90.48 352.526 90.64C352.88 90.7933 353.16 91 353.366 91.26V88.6H354.516V96H353.366V95.17C353.18 95.4367 352.92 95.6567 352.586 95.83C352.26 96.0033 351.883 96.09 351.456 96.09C350.976 96.09 350.536 95.97 350.136 95.73C349.743 95.4833 349.43 95.1433 349.196 94.71C348.97 94.27 348.856 93.7733 348.856 93.22ZM353.366 93.24C353.366 92.86 353.286 92.53 353.126 92.25C352.973 91.97 352.77 91.7567 352.516 91.61C352.263 91.4633 351.99 91.39 351.696 91.39C351.403 91.39 351.13 91.4633 350.876 91.61C350.623 91.75 350.416 91.96 350.256 92.24C350.103 92.5133 350.026 92.84 350.026 93.22C350.026 93.6 350.103 93.9333 350.256 94.22C350.416 94.5067 350.623 94.7267 350.876 94.88C351.136 95.0267 351.41 95.1 351.696 95.1C351.99 95.1 352.263 95.0267 352.516 94.88C352.77 94.7333 352.973 94.52 353.126 94.24C353.286 93.9533 353.366 93.62 353.366 93.24ZM361.064 93.11C361.064 93.3167 361.05 93.5033 361.024 93.67H356.814C356.847 94.11 357.01 94.4633 357.304 94.73C357.597 94.9967 357.957 95.13 358.384 95.13C358.997 95.13 359.43 94.8733 359.684 94.36H360.914C360.747 94.8667 360.444 95.2833 360.004 95.61C359.57 95.93 359.03 96.09 358.384 96.09C357.857 96.09 357.384 95.9733 356.964 95.74C356.55 95.5 356.224 95.1667 355.984 94.74C355.75 94.3067 355.634 93.8067 355.634 93.24C355.634 92.6733 355.747 92.1767 355.974 91.75C356.207 91.3167 356.53 90.9833 356.944 90.75C357.364 90.5167 357.844 90.4 358.384 90.4C358.904 90.4 359.367 90.5133 359.774 90.74C360.18 90.9667 360.497 91.2867 360.724 91.7C360.95 92.1067 361.064 92.5767 361.064 93.11ZM359.874 92.75C359.867 92.33 359.717 91.9933 359.424 91.74C359.13 91.4867 358.767 91.36 358.334 91.36C357.94 91.36 357.604 91.4867 357.324 91.74C357.044 91.9867 356.877 92.3233 356.824 92.75H359.874ZM363.326 91.29C363.492 91.01 363.712 90.7933 363.986 90.64C364.266 90.48 364.596 90.4 364.976 90.4V91.58H364.686C364.239 91.58 363.899 91.6933 363.666 91.92C363.439 92.1467 363.326 92.54 363.326 93.1V96H362.186V90.49H363.326V91.29ZM372.113 96.4V97.46H366.533V96.4H372.113Z" fill="#808080"/>
<path d="M263.04 121.07C262.573 121.07 262.153 120.99 261.78 120.83C261.407 120.663 261.113 120.43 260.9 120.13C260.687 119.83 260.58 119.48 260.58 119.08H261.8C261.827 119.38 261.943 119.627 262.15 119.82C262.363 120.013 262.66 120.11 263.04 120.11C263.433 120.11 263.74 120.017 263.96 119.83C264.18 119.637 264.29 119.39 264.29 119.09C264.29 118.857 264.22 118.667 264.08 118.52C263.947 118.373 263.777 118.26 263.57 118.18C263.37 118.1 263.09 118.013 262.73 117.92C262.277 117.8 261.907 117.68 261.62 117.56C261.34 117.433 261.1 117.24 260.9 116.98C260.7 116.72 260.6 116.373 260.6 115.94C260.6 115.54 260.7 115.19 260.9 114.89C261.1 114.59 261.38 114.36 261.74 114.2C262.1 114.04 262.517 113.96 262.99 113.96C263.663 113.96 264.213 114.13 264.64 114.47C265.073 114.803 265.313 115.263 265.36 115.85H264.1C264.08 115.597 263.96 115.38 263.74 115.2C263.52 115.02 263.23 114.93 262.87 114.93C262.543 114.93 262.277 115.013 262.07 115.18C261.863 115.347 261.76 115.587 261.76 115.9C261.76 116.113 261.823 116.29 261.95 116.43C262.083 116.563 262.25 116.67 262.45 116.75C262.65 116.83 262.923 116.917 263.27 117.01C263.73 117.137 264.103 117.263 264.39 117.39C264.683 117.517 264.93 117.713 265.13 117.98C265.337 118.24 265.44 118.59 265.44 119.03C265.44 119.383 265.343 119.717 265.15 120.03C264.963 120.343 264.687 120.597 264.32 120.79C263.96 120.977 263.533 121.07 263.04 121.07ZM267.365 114.76C267.158 114.76 266.985 114.69 266.845 114.55C266.705 114.41 266.635 114.237 266.635 114.03C266.635 113.823 266.705 113.65 266.845 113.51C266.985 113.37 267.158 113.3 267.365 113.3C267.565 113.3 267.735 113.37 267.875 113.51C268.015 113.65 268.085 113.823 268.085 114.03C268.085 114.237 268.015 114.41 267.875 114.55C267.735 114.69 267.565 114.76 267.365 114.76ZM267.925 115.49V121H266.785V115.49H267.925ZM270.432 120.07H272.932V121H269.112V120.07L271.622 116.42H269.112V115.49H272.932V116.42L270.432 120.07ZM279.179 118.11C279.179 118.317 279.166 118.503 279.139 118.67H274.929C274.962 119.11 275.126 119.463 275.419 119.73C275.712 119.997 276.072 120.13 276.499 120.13C277.112 120.13 277.546 119.873 277.799 119.36H279.029C278.862 119.867 278.559 120.283 278.119 120.61C277.686 120.93 277.146 121.09 276.499 121.09C275.972 121.09 275.499 120.973 275.079 120.74C274.666 120.5 274.339 120.167 274.099 119.74C273.866 119.307 273.749 118.807 273.749 118.24C273.749 117.673 273.862 117.177 274.089 116.75C274.322 116.317 274.646 115.983 275.059 115.75C275.479 115.517 275.959 115.4 276.499 115.4C277.019 115.4 277.482 115.513 277.889 115.74C278.296 115.967 278.612 116.287 278.839 116.7C279.066 117.107 279.179 117.577 279.179 118.11ZM277.989 117.75C277.982 117.33 277.832 116.993 277.539 116.74C277.246 116.487 276.882 116.36 276.449 116.36C276.056 116.36 275.719 116.487 275.439 116.74C275.159 116.987 274.992 117.323 274.939 117.75H277.989ZM280.761 121.07C280.554 121.07 280.381 121 280.241 120.86C280.101 120.72 280.031 120.547 280.031 120.34C280.031 120.133 280.101 119.96 280.241 119.82C280.381 119.68 280.554 119.61 280.761 119.61C280.961 119.61 281.131 119.68 281.271 119.82C281.411 119.96 281.481 120.133 281.481 120.34C281.481 120.547 281.411 120.72 281.271 120.86C281.131 121 280.961 121.07 280.761 121.07ZM280.761 116.87C280.554 116.87 280.381 116.8 280.241 116.66C280.101 116.52 280.031 116.347 280.031 116.14C280.031 115.933 280.101 115.76 280.241 115.62C280.381 115.48 280.554 115.41 280.761 115.41C280.961 115.41 281.131 115.48 281.271 115.62C281.411 115.76 281.481 115.933 281.481 116.14C281.481 116.347 281.411 116.52 281.271 116.66C281.131 116.8 280.961 116.87 280.761 116.87Z" fill="white"/>
<rect x="200" y="10" width="30" height="30" rx="15" transform="rotate(90 200 10)" fill="white" fill-opacity="0.1"/>
<rect x="191" y="24" width="2" height="12" rx="1" transform="rotate(90 191 24)" fill="white"/>
<rect x="184" y="19.3433" width="2" height="8" rx="1" transform="rotate(45 184 19.3433)" fill="white"/>
<rect x="185.414" y="29.2427" width="2" height="8" rx="1" transform="rotate(135 185.414 29.2427)" fill="white"/>
<rect x="160" y="210" width="180" height="140" rx="15" fill="white" fill-opacity="0.1"/>
<path d="M350.37 217.51C350.37 216.83 350.527 216.22 350.84 215.68C351.16 215.14 351.59 214.72 352.13 214.42C352.677 214.113 353.273 213.96 353.92 213.96C354.66 213.96 355.317 214.143 355.89 214.51C356.47 214.87 356.89 215.383 357.15 216.05H355.78C355.6 215.683 355.35 215.41 355.03 215.23C354.71 215.05 354.34 214.96 353.92 214.96C353.46 214.96 353.05 215.063 352.69 215.27C352.33 215.477 352.047 215.773 351.84 216.16C351.64 216.547 351.54 216.997 351.54 217.51C351.54 218.023 351.64 218.473 351.84 218.86C352.047 219.247 352.33 219.547 352.69 219.76C353.05 219.967 353.46 220.07 353.92 220.07C354.34 220.07 354.71 219.98 355.03 219.8C355.35 219.62 355.6 219.347 355.78 218.98H357.15C356.89 219.647 356.47 220.16 355.89 220.52C355.317 220.88 354.66 221.06 353.92 221.06C353.267 221.06 352.67 220.91 352.13 220.61C351.59 220.303 351.16 219.88 350.84 219.34C350.527 218.8 350.37 218.19 350.37 217.51ZM360.874 221.09C360.354 221.09 359.884 220.973 359.464 220.74C359.044 220.5 358.714 220.167 358.474 219.74C358.234 219.307 358.114 218.807 358.114 218.24C358.114 217.68 358.238 217.183 358.484 216.75C358.731 216.317 359.068 215.983 359.494 215.75C359.921 215.517 360.398 215.4 360.924 215.4C361.451 215.4 361.928 215.517 362.354 215.75C362.781 215.983 363.118 216.317 363.364 216.75C363.611 217.183 363.734 217.68 363.734 218.24C363.734 218.8 363.608 219.297 363.354 219.73C363.101 220.163 362.754 220.5 362.314 220.74C361.881 220.973 361.401 221.09 360.874 221.09ZM360.874 220.1C361.168 220.1 361.441 220.03 361.694 219.89C361.954 219.75 362.164 219.54 362.324 219.26C362.484 218.98 362.564 218.64 362.564 218.24C362.564 217.84 362.488 217.503 362.334 217.23C362.181 216.95 361.978 216.74 361.724 216.6C361.471 216.46 361.198 216.39 360.904 216.39C360.611 216.39 360.338 216.46 360.084 216.6C359.838 216.74 359.641 216.95 359.494 217.23C359.348 217.503 359.274 217.84 359.274 218.24C359.274 218.833 359.424 219.293 359.724 219.62C360.031 219.94 360.414 220.1 360.874 220.1ZM366.001 216.3C366.195 216.047 366.458 215.833 366.791 215.66C367.125 215.487 367.501 215.4 367.921 215.4C368.401 215.4 368.838 215.52 369.231 215.76C369.631 215.993 369.945 216.323 370.171 216.75C370.398 217.177 370.511 217.667 370.511 218.22C370.511 218.773 370.398 219.27 370.171 219.71C369.945 220.143 369.631 220.483 369.231 220.73C368.838 220.97 368.401 221.09 367.921 221.09C367.501 221.09 367.128 221.007 366.801 220.84C366.475 220.667 366.208 220.453 366.001 220.2V223.62H364.861V215.49H366.001V216.3ZM369.351 218.22C369.351 217.84 369.271 217.513 369.111 217.24C368.958 216.96 368.751 216.75 368.491 216.61C368.238 216.463 367.965 216.39 367.671 216.39C367.385 216.39 367.111 216.463 366.851 216.61C366.598 216.757 366.391 216.97 366.231 217.25C366.078 217.53 366.001 217.86 366.001 218.24C366.001 218.62 366.078 218.953 366.231 219.24C366.391 219.52 366.598 219.733 366.851 219.88C367.111 220.027 367.385 220.1 367.671 220.1C367.965 220.1 368.238 220.027 368.491 219.88C368.751 219.727 368.958 219.507 369.111 219.22C369.271 218.933 369.351 218.6 369.351 218.22ZM376.599 215.49L373.219 223.59H372.039L373.159 220.91L370.989 215.49H372.259L373.809 219.69L375.419 215.49H376.599ZM381.387 216.42V219.47C381.387 219.677 381.433 219.827 381.527 219.92C381.627 220.007 381.793 220.05 382.027 220.05H382.727V221H381.827C381.313 221 380.92 220.88 380.647 220.64C380.373 220.4 380.237 220.01 380.237 219.47V216.42H379.587V215.49H380.237V214.12H381.387V215.49H382.727V216.42H381.387ZM386.627 215.4C387.047 215.4 387.421 215.49 387.747 215.67C388.081 215.85 388.341 216.117 388.527 216.47C388.721 216.823 388.817 217.25 388.817 217.75V221H387.687V217.92C387.687 217.427 387.564 217.05 387.317 216.79C387.071 216.523 386.734 216.39 386.307 216.39C385.881 216.39 385.541 216.523 385.287 216.79C385.041 217.05 384.917 217.427 384.917 217.92V221H383.777V213.6H384.917V216.13C385.111 215.897 385.354 215.717 385.647 215.59C385.947 215.463 386.274 215.4 386.627 215.4ZM395.321 218.11C395.321 218.317 395.308 218.503 395.281 218.67H391.071C391.105 219.11 391.268 219.463 391.561 219.73C391.855 219.997 392.215 220.13 392.641 220.13C393.255 220.13 393.688 219.873 393.941 219.36H395.171C395.005 219.867 394.701 220.283 394.261 220.61C393.828 220.93 393.288 221.09 392.641 221.09C392.115 221.09 391.641 220.973 391.221 220.74C390.808 220.5 390.481 220.167 390.241 219.74C390.008 219.307 389.891 218.807 389.891 218.24C389.891 217.673 390.005 217.177 390.231 216.75C390.465 216.317 390.788 215.983 391.201 215.75C391.621 215.517 392.101 215.4 392.641 215.4C393.161 215.4 393.625 215.513 394.031 215.74C394.438 215.967 394.755 216.287 394.981 216.7C395.208 217.107 395.321 217.577 395.321 218.11ZM394.131 217.75C394.125 217.33 393.975 216.993 393.681 216.74C393.388 216.487 393.025 216.36 392.591 216.36C392.198 216.36 391.861 216.487 391.581 216.74C391.301 216.987 391.135 217.323 391.081 217.75H394.131ZM398.661 218.22C398.661 217.667 398.774 217.177 399.001 216.75C399.234 216.323 399.548 215.993 399.941 215.76C400.341 215.52 400.784 215.4 401.271 215.4C401.631 215.4 401.984 215.48 402.331 215.64C402.684 215.793 402.964 216 403.171 216.26V213.6H404.321V221H403.171V220.17C402.984 220.437 402.724 220.657 402.391 220.83C402.064 221.003 401.688 221.09 401.261 221.09C400.781 221.09 400.341 220.97 399.941 220.73C399.548 220.483 399.234 220.143 399.001 219.71C398.774 219.27 398.661 218.773 398.661 218.22ZM403.171 218.24C403.171 217.86 403.091 217.53 402.931 217.25C402.778 216.97 402.574 216.757 402.321 216.61C402.068 216.463 401.794 216.39 401.501 216.39C401.208 216.39 400.934 216.463 400.681 216.61C400.428 216.75 400.221 216.96 400.061 217.24C399.908 217.513 399.831 217.84 399.831 218.22C399.831 218.6 399.908 218.933 400.061 219.22C400.221 219.507 400.428 219.727 400.681 219.88C400.941 220.027 401.214 220.1 401.501 220.1C401.794 220.1 402.068 220.027 402.321 219.88C402.574 219.733 402.778 219.52 402.931 219.24C403.091 218.953 403.171 218.62 403.171 218.24ZM406.398 214.76C406.192 214.76 406.018 214.69 405.878 214.55C405.738 214.41 405.668 214.237 405.668 214.03C405.668 213.823 405.738 213.65 405.878 213.51C406.018 213.37 406.192 213.3 406.398 213.3C406.598 213.3 406.768 213.37 406.908 213.51C407.048 213.65 407.118 213.823 407.118 214.03C407.118 214.237 407.048 214.41 406.908 214.55C406.768 214.69 406.598 214.76 406.398 214.76ZM406.958 215.49V221H405.818V215.49H406.958ZM410.455 221.09C410.022 221.09 409.632 221.013 409.285 220.86C408.945 220.7 408.675 220.487 408.475 220.22C408.275 219.947 408.168 219.643 408.155 219.31H409.335C409.355 219.543 409.465 219.74 409.665 219.9C409.872 220.053 410.128 220.13 410.435 220.13C410.755 220.13 411.002 220.07 411.175 219.95C411.355 219.823 411.445 219.663 411.445 219.47C411.445 219.263 411.345 219.11 411.145 219.01C410.952 218.91 410.642 218.8 410.215 218.68C409.802 218.567 409.465 218.457 409.205 218.35C408.945 218.243 408.718 218.08 408.525 217.86C408.338 217.64 408.245 217.35 408.245 216.99C408.245 216.697 408.332 216.43 408.505 216.19C408.678 215.943 408.925 215.75 409.245 215.61C409.572 215.47 409.945 215.4 410.365 215.4C410.992 215.4 411.495 215.56 411.875 215.88C412.262 216.193 412.468 216.623 412.495 217.17H411.355C411.335 216.923 411.235 216.727 411.055 216.58C410.875 216.433 410.632 216.36 410.325 216.36C410.025 216.36 409.795 216.417 409.635 216.53C409.475 216.643 409.395 216.793 409.395 216.98C409.395 217.127 409.448 217.25 409.555 217.35C409.662 217.45 409.792 217.53 409.945 217.59C410.098 217.643 410.325 217.713 410.625 217.8C411.025 217.907 411.352 218.017 411.605 218.13C411.865 218.237 412.088 218.397 412.275 218.61C412.462 218.823 412.558 219.107 412.565 219.46C412.565 219.773 412.478 220.053 412.305 220.3C412.132 220.547 411.885 220.74 411.565 220.88C411.252 221.02 410.882 221.09 410.455 221.09ZM414.937 216.3C415.13 216.047 415.394 215.833 415.727 215.66C416.06 215.487 416.437 215.4 416.857 215.4C417.337 215.4 417.774 215.52 418.167 215.76C418.567 215.993 418.88 216.323 419.107 216.75C419.334 217.177 419.447 217.667 419.447 218.22C419.447 218.773 419.334 219.27 419.107 219.71C418.88 220.143 418.567 220.483 418.167 220.73C417.774 220.97 417.337 221.09 416.857 221.09C416.437 221.09 416.064 221.007 415.737 220.84C415.41 220.667 415.144 220.453 414.937 220.2V223.62H413.797V215.49H414.937V216.3ZM418.287 218.22C418.287 217.84 418.207 217.513 418.047 217.24C417.894 216.96 417.687 216.75 417.427 216.61C417.174 216.463 416.9 216.39 416.607 216.39C416.32 216.39 416.047 216.463 415.787 216.61C415.534 216.757 415.327 216.97 415.167 217.25C415.014 217.53 414.937 217.86 414.937 218.24C414.937 218.62 415.014 218.953 415.167 219.24C415.327 219.52 415.534 219.733 415.787 219.88C416.047 220.027 416.32 220.1 416.607 220.1C416.9 220.1 417.174 220.027 417.427 219.88C417.687 219.727 417.894 219.507 418.047 219.22C418.207 218.933 418.287 218.6 418.287 218.22ZM421.714 213.6V221H420.574V213.6H421.714ZM422.831 218.22C422.831 217.667 422.944 217.177 423.171 216.75C423.404 216.323 423.718 215.993 424.111 215.76C424.511 215.52 424.951 215.4 425.431 215.4C425.864 215.4 426.241 215.487 426.561 215.66C426.888 215.827 427.148 216.037 427.341 216.29V215.49H428.491V221H427.341V220.18C427.148 220.44 426.884 220.657 426.551 220.83C426.218 221.003 425.838 221.09 425.411 221.09C424.938 221.09 424.504 220.97 424.111 220.73C423.718 220.483 423.404 220.143 423.171 219.71C422.944 219.27 422.831 218.773 422.831 218.22ZM427.341 218.24C427.341 217.86 427.261 217.53 427.101 217.25C426.948 216.97 426.744 216.757 426.491 216.61C426.238 216.463 425.964 216.39 425.671 216.39C425.378 216.39 425.104 216.463 424.851 216.61C424.598 216.75 424.391 216.96 424.231 217.24C424.078 217.513 424.001 217.84 424.001 218.22C424.001 218.6 424.078 218.933 424.231 219.22C424.391 219.507 424.598 219.727 424.851 219.88C425.111 220.027 425.384 220.1 425.671 220.1C425.964 220.1 426.238 220.027 426.491 219.88C426.744 219.733 426.948 219.52 427.101 219.24C427.261 218.953 427.341 218.62 427.341 218.24ZM434.948 215.49L431.568 223.59H430.388L431.508 220.91L429.338 215.49H430.608L432.158 219.69L433.768 215.49H434.948ZM440.859 218.11C440.859 218.317 440.845 218.503 440.819 218.67H436.609C436.642 219.11 436.805 219.463 437.099 219.73C437.392 219.997 437.752 220.13 438.179 220.13C438.792 220.13 439.225 219.873 439.479 219.36H440.709C440.542 219.867 440.239 220.283 439.799 220.61C439.365 220.93 438.825 221.09 438.179 221.09C437.652 221.09 437.179 220.973 436.759 220.74C436.345 220.5 436.019 220.167 435.779 219.74C435.545 219.307 435.429 218.807 435.429 218.24C435.429 217.673 435.542 217.177 435.769 216.75C436.002 216.317 436.325 215.983 436.739 215.75C437.159 215.517 437.639 215.4 438.179 215.4C438.699 215.4 439.162 215.513 439.569 215.74C439.975 215.967 440.292 216.287 440.519 216.7C440.745 217.107 440.859 217.577 440.859 218.11ZM439.669 217.75C439.662 217.33 439.512 216.993 439.219 216.74C438.925 216.487 438.562 216.36 438.129 216.36C437.735 216.36 437.399 216.487 437.119 216.74C436.839 216.987 436.672 217.323 436.619 217.75H439.669ZM441.6 218.22C441.6 217.667 441.714 217.177 441.94 216.75C442.174 216.323 442.487 215.993 442.88 215.76C443.28 215.52 443.724 215.4 444.21 215.4C444.57 215.4 444.924 215.48 445.27 215.64C445.624 215.793 445.904 216 446.11 216.26V213.6H447.26V221H446.11V220.17C445.924 220.437 445.664 220.657 445.33 220.83C445.004 221.003 444.627 221.09 444.2 221.09C443.72 221.09 443.28 220.97 442.88 220.73C442.487 220.483 442.174 220.143 441.94 219.71C441.714 219.27 441.6 218.773 441.6 218.22ZM446.11 218.24C446.11 217.86 446.03 217.53 445.87 217.25C445.717 216.97 445.514 216.757 445.26 216.61C445.007 216.463 444.734 216.39 444.44 216.39C444.147 216.39 443.874 216.463 443.62 216.61C443.367 216.75 443.16 216.96 443 217.24C442.847 217.513 442.77 217.84 442.77 218.22C442.77 218.6 442.847 218.933 443 219.22C443.16 219.507 443.367 219.727 443.62 219.88C443.88 220.027 444.154 220.1 444.44 220.1C444.734 220.1 445.007 220.027 445.26 219.88C445.514 219.733 445.717 219.52 445.87 219.24C446.03 218.953 446.11 218.62 446.11 218.24ZM350.37 233.22C350.37 232.667 350.483 232.177 350.71 231.75C350.943 231.323 351.257 230.993 351.65 230.76C352.05 230.52 352.493 230.4 352.98 230.4C353.34 230.4 353.693 230.48 354.04 230.64C354.393 230.793 354.673 231 354.88 231.26V228.6H356.03V236H354.88V235.17C354.693 235.437 354.433 235.657 354.1 235.83C353.773 236.003 353.397 236.09 352.97 236.09C352.49 236.09 352.05 235.97 351.65 235.73C351.257 235.483 350.943 235.143 350.71 234.71C350.483 234.27 350.37 233.773 350.37 233.22ZM354.88 233.24C354.88 232.86 354.8 232.53 354.64 232.25C354.487 231.97 354.283 231.757 354.03 231.61C353.777 231.463 353.503 231.39 353.21 231.39C352.917 231.39 352.643 231.463 352.39 231.61C352.137 231.75 351.93 231.96 351.77 232.24C351.617 232.513 351.54 232.84 351.54 233.22C351.54 233.6 351.617 233.933 351.77 234.22C351.93 234.507 352.137 234.727 352.39 234.88C352.65 235.027 352.923 235.1 353.21 235.1C353.503 235.1 353.777 235.027 354.03 234.88C354.283 234.733 354.487 234.52 354.64 234.24C354.8 233.953 354.88 233.62 354.88 233.24ZM362.577 233.11C362.577 233.317 362.564 233.503 362.537 233.67H358.327C358.361 234.11 358.524 234.463 358.817 234.73C359.111 234.997 359.471 235.13 359.897 235.13C360.511 235.13 360.944 234.873 361.197 234.36H362.427C362.261 234.867 361.957 235.283 361.517 235.61C361.084 235.93 360.544 236.09 359.897 236.09C359.371 236.09 358.897 235.973 358.477 235.74C358.064 235.5 357.737 235.167 357.497 234.74C357.264 234.307 357.147 233.807 357.147 233.24C357.147 232.673 357.261 232.177 357.487 231.75C357.721 231.317 358.044 230.983 358.457 230.75C358.877 230.517 359.357 230.4 359.897 230.4C360.417 230.4 360.881 230.513 361.287 230.74C361.694 230.967 362.011 231.287 362.237 231.7C362.464 232.107 362.577 232.577 362.577 233.11ZM361.387 232.75C361.381 232.33 361.231 231.993 360.937 231.74C360.644 231.487 360.281 231.36 359.847 231.36C359.454 231.36 359.117 231.487 358.837 231.74C358.557 231.987 358.391 232.323 358.337 232.75H361.387ZM365.699 236.09C365.266 236.09 364.876 236.013 364.529 235.86C364.189 235.7 363.919 235.487 363.719 235.22C363.519 234.947 363.413 234.643 363.399 234.31H364.579C364.599 234.543 364.709 234.74 364.909 234.9C365.116 235.053 365.373 235.13 365.679 235.13C365.999 235.13 366.246 235.07 366.419 234.95C366.599 234.823 366.689 234.663 366.689 234.47C366.689 234.263 366.589 234.11 366.389 234.01C366.196 233.91 365.886 233.8 365.459 233.68C365.046 233.567 364.709 233.457 364.449 233.35C364.189 233.243 363.963 233.08 363.769 232.86C363.583 232.64 363.489 232.35 363.489 231.99C363.489 231.697 363.576 231.43 363.749 231.19C363.923 230.943 364.169 230.75 364.489 230.61C364.816 230.47 365.189 230.4 365.609 230.4C366.236 230.4 366.739 230.56 367.119 230.88C367.506 231.193 367.713 231.623 367.739 232.17H366.599C366.579 231.923 366.479 231.727 366.299 231.58C366.119 231.433 365.876 231.36 365.569 231.36C365.269 231.36 365.039 231.417 364.879 231.53C364.719 231.643 364.639 231.793 364.639 231.98C364.639 232.127 364.693 232.25 364.799 232.35C364.906 232.45 365.036 232.53 365.189 232.59C365.343 232.643 365.569 232.713 365.869 232.8C366.269 232.907 366.596 233.017 366.849 233.13C367.109 233.237 367.333 233.397 367.519 233.61C367.706 233.823 367.803 234.107 367.809 234.46C367.809 234.773 367.723 235.053 367.549 235.3C367.376 235.547 367.129 235.74 366.809 235.88C366.496 236.02 366.126 236.09 365.699 236.09ZM369.621 229.76C369.414 229.76 369.241 229.69 369.101 229.55C368.961 229.41 368.891 229.237 368.891 229.03C368.891 228.823 368.961 228.65 369.101 228.51C369.241 228.37 369.414 228.3 369.621 228.3C369.821 228.3 369.991 228.37 370.131 228.51C370.271 228.65 370.341 228.823 370.341 229.03C370.341 229.237 370.271 229.41 370.131 229.55C369.991 229.69 369.821 229.76 369.621 229.76ZM370.181 230.49V236H369.041V230.49H370.181ZM373.898 230.4C374.324 230.4 374.701 230.487 375.028 230.66C375.361 230.827 375.621 231.037 375.808 231.29V230.49H376.958V236.09C376.958 236.597 376.851 237.047 376.638 237.44C376.424 237.84 376.114 238.153 375.708 238.38C375.308 238.607 374.828 238.72 374.268 238.72C373.521 238.72 372.901 238.543 372.408 238.19C371.914 237.843 371.634 237.37 371.568 236.77H372.698C372.784 237.057 372.968 237.287 373.248 237.46C373.534 237.64 373.874 237.73 374.268 237.73C374.728 237.73 375.098 237.59 375.378 237.31C375.664 237.03 375.808 236.623 375.808 236.09V235.17C375.614 235.43 375.351 235.65 375.018 235.83C374.691 236.003 374.318 236.09 373.898 236.09C373.418 236.09 372.978 235.97 372.578 235.73C372.184 235.483 371.871 235.143 371.638 234.71C371.411 234.27 371.298 233.773 371.298 233.22C371.298 232.667 371.411 232.177 371.638 231.75C371.871 231.323 372.184 230.993 372.578 230.76C372.978 230.52 373.418 230.4 373.898 230.4ZM375.808 233.24C375.808 232.86 375.728 232.53 375.568 232.25C375.414 231.97 375.211 231.757 374.958 231.61C374.704 231.463 374.431 231.39 374.138 231.39C373.844 231.39 373.571 231.463 373.318 231.61C373.064 231.75 372.858 231.96 372.698 232.24C372.544 232.513 372.468 232.84 372.468 233.22C372.468 233.6 372.544 233.933 372.698 234.22C372.858 234.507 373.064 234.727 373.318 234.88C373.578 235.027 373.851 235.1 374.138 235.1C374.431 235.1 374.704 235.027 374.958 234.88C375.211 234.733 375.414 234.52 375.568 234.24C375.728 233.953 375.808 233.62 375.808 233.24ZM381.235 230.4C381.668 230.4 382.055 230.49 382.395 230.67C382.742 230.85 383.012 231.117 383.205 231.47C383.398 231.823 383.495 232.25 383.495 232.75V236H382.365V232.92C382.365 232.427 382.242 232.05 381.995 231.79C381.748 231.523 381.412 231.39 380.985 231.39C380.558 231.39 380.218 231.523 379.965 231.79C379.718 232.05 379.595 232.427 379.595 232.92V236H378.455V230.49H379.595V231.12C379.782 230.893 380.018 230.717 380.305 230.59C380.598 230.463 380.908 230.4 381.235 230.4ZM388.127 229.76C387.92 229.76 387.747 229.69 387.607 229.55C387.467 229.41 387.397 229.237 387.397 229.03C387.397 228.823 387.467 228.65 387.607 228.51C387.747 228.37 387.92 228.3 388.127 228.3C388.327 228.3 388.497 228.37 388.637 228.51C388.777 228.65 388.847 228.823 388.847 229.03C388.847 229.237 388.777 229.41 388.637 229.55C388.497 229.69 388.327 229.76 388.127 229.76ZM388.687 230.49V236H387.547V230.49H388.687ZM392.964 230.4C393.397 230.4 393.784 230.49 394.124 230.67C394.47 230.85 394.74 231.117 394.934 231.47C395.127 231.823 395.224 232.25 395.224 232.75V236H394.094V232.92C394.094 232.427 393.97 232.05 393.724 231.79C393.477 231.523 393.14 231.39 392.714 231.39C392.287 231.39 391.947 231.523 391.694 231.79C391.447 232.05 391.324 232.427 391.324 232.92V236H390.184V230.49H391.324V231.12C391.51 230.893 391.747 230.717 392.034 230.59C392.327 230.463 392.637 230.4 392.964 230.4ZM401.275 236.09C400.842 236.09 400.452 236.013 400.105 235.86C399.765 235.7 399.495 235.487 399.295 235.22C399.095 234.947 398.989 234.643 398.975 234.31H400.155C400.175 234.543 400.285 234.74 400.485 234.9C400.692 235.053 400.949 235.13 401.255 235.13C401.575 235.13 401.822 235.07 401.995 234.95C402.175 234.823 402.265 234.663 402.265 234.47C402.265 234.263 402.165 234.11 401.965 234.01C401.772 233.91 401.462 233.8 401.035 233.68C400.622 233.567 400.285 233.457 400.025 233.35C399.765 233.243 399.539 233.08 399.345 232.86C399.159 232.64 399.065 232.35 399.065 231.99C399.065 231.697 399.152 231.43 399.325 231.19C399.499 230.943 399.745 230.75 400.065 230.61C400.392 230.47 400.765 230.4 401.185 230.4C401.812 230.4 402.315 230.56 402.695 230.88C403.082 231.193 403.289 231.623 403.315 232.17H402.175C402.155 231.923 402.055 231.727 401.875 231.58C401.695 231.433 401.452 231.36 401.145 231.36C400.845 231.36 400.615 231.417 400.455 231.53C400.295 231.643 400.215 231.793 400.215 231.98C400.215 232.127 400.269 232.25 400.375 232.35C400.482 232.45 400.612 232.53 400.765 232.59C400.919 232.643 401.145 232.713 401.445 232.8C401.845 232.907 402.172 233.017 402.425 233.13C402.685 233.237 402.909 233.397 403.095 233.61C403.282 233.823 403.379 234.107 403.385 234.46C403.385 234.773 403.299 235.053 403.125 235.3C402.952 235.547 402.705 235.74 402.385 235.88C402.072 236.02 401.702 236.09 401.275 236.09ZM409.667 233.11C409.667 233.317 409.654 233.503 409.627 233.67H405.417C405.451 234.11 405.614 234.463 405.907 234.73C406.201 234.997 406.561 235.13 406.987 235.13C407.601 235.13 408.034 234.873 408.287 234.36H409.517C409.351 234.867 409.047 235.283 408.607 235.61C408.174 235.93 407.634 236.09 406.987 236.09C406.461 236.09 405.987 235.973 405.567 235.74C405.154 235.5 404.827 235.167 404.587 234.74C404.354 234.307 404.237 233.807 404.237 233.24C404.237 232.673 404.351 232.177 404.577 231.75C404.811 231.317 405.134 230.983 405.547 230.75C405.967 230.517 406.447 230.4 406.987 230.4C407.507 230.4 407.971 230.513 408.377 230.74C408.784 230.967 409.101 231.287 409.327 231.7C409.554 232.107 409.667 232.577 409.667 233.11ZM408.477 232.75C408.471 232.33 408.321 231.993 408.027 231.74C407.734 231.487 407.371 231.36 406.937 231.36C406.544 231.36 406.207 231.487 405.927 231.74C405.647 231.987 405.481 232.323 405.427 232.75H408.477ZM410.409 233.24C410.409 232.673 410.522 232.177 410.749 231.75C410.982 231.317 411.302 230.983 411.709 230.75C412.116 230.517 412.582 230.4 413.109 230.4C413.776 230.4 414.326 230.56 414.759 230.88C415.199 231.193 415.496 231.643 415.649 232.23H414.419C414.319 231.957 414.159 231.743 413.939 231.59C413.719 231.437 413.442 231.36 413.109 231.36C412.642 231.36 412.269 231.527 411.989 231.86C411.716 232.187 411.579 232.647 411.579 233.24C411.579 233.833 411.716 234.297 411.989 234.63C412.269 234.963 412.642 235.13 413.109 235.13C413.769 235.13 414.206 234.84 414.419 234.26H415.649C415.489 234.82 415.189 235.267 414.749 235.6C414.309 235.927 413.762 236.09 413.109 236.09C412.582 236.09 412.116 235.973 411.709 235.74C411.302 235.5 410.982 235.167 410.749 234.74C410.522 234.307 410.409 233.807 410.409 233.24ZM419.175 236.09C418.655 236.09 418.185 235.973 417.765 235.74C417.345 235.5 417.015 235.167 416.775 234.74C416.535 234.307 416.415 233.807 416.415 233.24C416.415 232.68 416.538 232.183 416.785 231.75C417.032 231.317 417.368 230.983 417.795 230.75C418.222 230.517 418.698 230.4 419.225 230.4C419.752 230.4 420.228 230.517 420.655 230.75C421.082 230.983 421.418 231.317 421.665 231.75C421.912 232.183 422.035 232.68 422.035 233.24C422.035 233.8 421.908 234.297 421.655 234.73C421.402 235.163 421.055 235.5 420.615 235.74C420.182 235.973 419.702 236.09 419.175 236.09ZM419.175 235.1C419.468 235.1 419.742 235.03 419.995 234.89C420.255 234.75 420.465 234.54 420.625 234.26C420.785 233.98 420.865 233.64 420.865 233.24C420.865 232.84 420.788 232.503 420.635 232.23C420.482 231.95 420.278 231.74 420.025 231.6C419.772 231.46 419.498 231.39 419.205 231.39C418.912 231.39 418.638 231.46 418.385 231.6C418.138 231.74 417.942 231.95 417.795 232.23C417.648 232.503 417.575 232.84 417.575 233.24C417.575 233.833 417.725 234.293 418.025 234.62C418.332 234.94 418.715 235.1 419.175 235.1ZM425.942 230.4C426.375 230.4 426.762 230.49 427.102 230.67C427.449 230.85 427.719 231.117 427.912 231.47C428.105 231.823 428.202 232.25 428.202 232.75V236H427.072V232.92C427.072 232.427 426.949 232.05 426.702 231.79C426.455 231.523 426.119 231.39 425.692 231.39C425.265 231.39 424.925 231.523 424.672 231.79C424.425 232.05 424.302 232.427 424.302 232.92V236H423.162V230.49H424.302V231.12C424.489 230.893 424.725 230.717 425.012 230.59C425.305 230.463 425.615 230.4 425.942 230.4ZM429.276 233.22C429.276 232.667 429.39 232.177 429.616 231.75C429.85 231.323 430.163 230.993 430.556 230.76C430.956 230.52 431.4 230.4 431.886 230.4C432.246 230.4 432.6 230.48 432.946 230.64C433.3 230.793 433.58 231 433.786 231.26V228.6H434.936V236H433.786V235.17C433.6 235.437 433.34 235.657 433.006 235.83C432.68 236.003 432.303 236.09 431.876 236.09C431.396 236.09 430.956 235.97 430.556 235.73C430.163 235.483 429.85 235.143 429.616 234.71C429.39 234.27 429.276 233.773 429.276 233.22ZM433.786 233.24C433.786 232.86 433.706 232.53 433.546 232.25C433.393 231.97 433.19 231.757 432.936 231.61C432.683 231.463 432.41 231.39 432.116 231.39C431.823 231.39 431.55 231.463 431.296 231.61C431.043 231.75 430.836 231.96 430.676 232.24C430.523 232.513 430.446 232.84 430.446 233.22C430.446 233.6 430.523 233.933 430.676 234.22C430.836 234.507 431.043 234.727 431.296 234.88C431.556 235.027 431.83 235.1 432.116 235.1C432.41 235.1 432.683 235.027 432.936 234.88C433.19 234.733 433.393 234.52 433.546 234.24C433.706 233.953 433.786 233.62 433.786 233.24ZM438.434 236.09C438 236.09 437.61 236.013 437.264 235.86C436.924 235.7 436.654 235.487 436.454 235.22C436.254 234.947 436.147 234.643 436.134 234.31H437.314C437.334 234.543 437.444 234.74 437.644 234.9C437.85 235.053 438.107 235.13 438.414 235.13C438.734 235.13 438.98 235.07 439.154 234.95C439.334 234.823 439.424 234.663 439.424 234.47C439.424 234.263 439.324 234.11 439.124 234.01C438.93 233.91 438.62 233.8 438.194 233.68C437.78 233.567 437.444 233.457 437.184 233.35C436.924 233.243 436.697 233.08 436.504 232.86C436.317 232.64 436.224 232.35 436.224 231.99C436.224 231.697 436.31 231.43 436.484 231.19C436.657 230.943 436.904 230.75 437.224 230.61C437.55 230.47 437.924 230.4 438.344 230.4C438.97 230.4 439.474 230.56 439.854 230.88C440.24 231.193 440.447 231.623 440.474 232.17H439.334C439.314 231.923 439.214 231.727 439.034 231.58C438.854 231.433 438.61 231.36 438.304 231.36C438.004 231.36 437.774 231.417 437.614 231.53C437.454 231.643 437.374 231.793 437.374 231.98C437.374 232.127 437.427 232.25 437.534 232.35C437.64 232.45 437.77 232.53 437.924 232.59C438.077 232.643 438.304 232.713 438.604 232.8C439.004 232.907 439.33 233.017 439.584 233.13C439.844 233.237 440.067 233.397 440.254 233.61C440.44 233.823 440.537 234.107 440.544 234.46C440.544 234.773 440.457 235.053 440.284 235.3C440.11 235.547 439.864 235.74 439.544 235.88C439.23 236.02 438.86 236.09 438.434 236.09ZM443.993 233.22C443.993 232.667 444.106 232.177 444.333 231.75C444.566 231.323 444.88 230.993 445.273 230.76C445.673 230.52 446.113 230.4 446.593 230.4C447.026 230.4 447.403 230.487 447.723 230.66C448.05 230.827 448.31 231.037 448.503 231.29V230.49H449.653V236H448.503V235.18C448.31 235.44 448.046 235.657 447.713 235.83C447.38 236.003 447 236.09 446.573 236.09C446.1 236.09 445.666 235.97 445.273 235.73C444.88 235.483 444.566 235.143 444.333 234.71C444.106 234.27 443.993 233.773 443.993 233.22ZM448.503 233.24C448.503 232.86 448.423 232.53 448.263 232.25C448.11 231.97 447.906 231.757 447.653 231.61C447.4 231.463 447.126 231.39 446.833 231.39C446.54 231.39 446.266 231.463 446.013 231.61C445.76 231.75 445.553 231.96 445.393 232.24C445.24 232.513 445.163 232.84 445.163 233.22C445.163 233.6 445.24 233.933 445.393 234.22C445.553 234.507 445.76 234.727 446.013 234.88C446.273 235.027 446.546 235.1 446.833 235.1C447.126 235.1 447.4 235.027 447.653 234.88C447.906 234.733 448.11 234.52 448.263 234.24C448.423 233.953 448.503 233.62 448.503 233.24ZM453.93 230.4C454.364 230.4 454.75 230.49 455.09 230.67C455.437 230.85 455.707 231.117 455.9 231.47C456.094 231.823 456.19 232.25 456.19 232.75V236H455.06V232.92C455.06 232.427 454.937 232.05 454.69 231.79C454.444 231.523 454.107 231.39 453.68 231.39C453.254 231.39 452.914 231.523 452.66 231.79C452.414 232.05 452.29 232.427 452.29 232.92V236H451.15V230.49H452.29V231.12C452.477 230.893 452.714 230.717 453 230.59C453.294 230.463 453.604 230.4 453.93 230.4ZM457.265 233.22C457.265 232.667 457.378 232.177 457.605 231.75C457.838 231.323 458.151 230.993 458.545 230.76C458.945 230.52 459.388 230.4 459.875 230.4C460.235 230.4 460.588 230.48 460.935 230.64C461.288 230.793 461.568 231 461.775 231.26V228.6H462.925V236H461.775V235.17C461.588 235.437 461.328 235.657 460.995 235.83C460.668 236.003 460.291 236.09 459.865 236.09C459.385 236.09 458.945 235.97 458.545 235.73C458.151 235.483 457.838 235.143 457.605 234.71C457.378 234.27 457.265 233.773 457.265 233.22ZM461.775 233.24C461.775 232.86 461.695 232.53 461.535 232.25C461.381 231.97 461.178 231.757 460.925 231.61C460.671 231.463 460.398 231.39 460.105 231.39C459.811 231.39 459.538 231.463 459.285 231.61C459.031 231.75 458.825 231.96 458.665 232.24C458.511 232.513 458.435 232.84 458.435 233.22C458.435 233.6 458.511 233.933 458.665 234.22C458.825 234.507 459.031 234.727 459.285 234.88C459.545 235.027 459.818 235.1 460.105 235.1C460.398 235.1 460.671 235.027 460.925 234.88C461.178 234.733 461.381 234.52 461.535 234.24C461.695 233.953 461.775 233.62 461.775 233.24ZM352.75 251.09C352.317 251.09 351.927 251.013 351.58 250.86C351.24 250.7 350.97 250.487 350.77 250.22C350.57 249.947 350.463 249.643 350.45 249.31H351.63C351.65 249.543 351.76 249.74 351.96 249.9C352.167 250.053 352.423 250.13 352.73 250.13C353.05 250.13 353.297 250.07 353.47 249.95C353.65 249.823 353.74 249.663 353.74 249.47C353.74 249.263 353.64 249.11 353.44 249.01C353.247 248.91 352.937 248.8 352.51 248.68C352.097 248.567 351.76 248.457 351.5 248.35C351.24 248.243 351.013 248.08 350.82 247.86C350.633 247.64 350.54 247.35 350.54 246.99C350.54 246.697 350.627 246.43 350.8 246.19C350.973 245.943 351.22 245.75 351.54 245.61C351.867 245.47 352.24 245.4 352.66 245.4C353.287 245.4 353.79 245.56 354.17 245.88C354.557 246.193 354.763 246.623 354.79 247.17H353.65C353.63 246.923 353.53 246.727 353.35 246.58C353.17 246.433 352.927 246.36 352.62 246.36C352.32 246.36 352.09 246.417 351.93 246.53C351.77 246.643 351.69 246.793 351.69 246.98C351.69 247.127 351.743 247.25 351.85 247.35C351.957 247.45 352.087 247.53 352.24 247.59C352.393 247.643 352.62 247.713 352.92 247.8C353.32 247.907 353.647 248.017 353.9 248.13C354.16 248.237 354.383 248.397 354.57 248.61C354.757 248.823 354.853 249.107 354.86 249.46C354.86 249.773 354.773 250.053 354.6 250.3C354.427 250.547 354.18 250.74 353.86 250.88C353.547 251.02 353.177 251.09 352.75 251.09ZM355.712 248.24C355.712 247.673 355.825 247.177 356.052 246.75C356.285 246.317 356.605 245.983 357.012 245.75C357.418 245.517 357.885 245.4 358.412 245.4C359.078 245.4 359.628 245.56 360.062 245.88C360.502 246.193 360.798 246.643 360.952 247.23H359.722C359.622 246.957 359.462 246.743 359.242 246.59C359.022 246.437 358.745 246.36 358.412 246.36C357.945 246.36 357.572 246.527 357.292 246.86C357.018 247.187 356.882 247.647 356.882 248.24C356.882 248.833 357.018 249.297 357.292 249.63C357.572 249.963 357.945 250.13 358.412 250.13C359.072 250.13 359.508 249.84 359.722 249.26H360.952C360.792 249.82 360.492 250.267 360.052 250.6C359.612 250.927 359.065 251.09 358.412 251.09C357.885 251.09 357.418 250.973 357.012 250.74C356.605 250.5 356.285 250.167 356.052 249.74C355.825 249.307 355.712 248.807 355.712 248.24ZM364.478 251.09C363.958 251.09 363.488 250.973 363.068 250.74C362.648 250.5 362.318 250.167 362.078 249.74C361.838 249.307 361.718 248.807 361.718 248.24C361.718 247.68 361.841 247.183 362.088 246.75C362.335 246.317 362.671 245.983 363.098 245.75C363.525 245.517 364.001 245.4 364.528 245.4C365.055 245.4 365.531 245.517 365.958 245.75C366.385 245.983 366.721 246.317 366.968 246.75C367.215 247.183 367.338 247.68 367.338 248.24C367.338 248.8 367.211 249.297 366.958 249.73C366.705 250.163 366.358 250.5 365.918 250.74C365.485 250.973 365.005 251.09 364.478 251.09ZM364.478 250.1C364.771 250.1 365.045 250.03 365.298 249.89C365.558 249.75 365.768 249.54 365.928 249.26C366.088 248.98 366.168 248.64 366.168 248.24C366.168 247.84 366.091 247.503 365.938 247.23C365.785 246.95 365.581 246.74 365.328 246.6C365.075 246.46 364.801 246.39 364.508 246.39C364.215 246.39 363.941 246.46 363.688 246.6C363.441 246.74 363.245 246.95 363.098 247.23C362.951 247.503 362.878 247.84 362.878 248.24C362.878 248.833 363.028 249.293 363.328 249.62C363.635 249.94 364.018 250.1 364.478 250.1ZM369.605 246.29C369.772 246.01 369.992 245.793 370.265 245.64C370.545 245.48 370.875 245.4 371.255 245.4V246.58H370.965C370.518 246.58 370.178 246.693 369.945 246.92C369.718 247.147 369.605 247.54 369.605 248.1V251H368.465V245.49H369.605V246.29ZM377.353 248.11C377.353 248.317 377.339 248.503 377.313 248.67H373.103C373.136 249.11 373.299 249.463 373.593 249.73C373.886 249.997 374.246 250.13 374.673 250.13C375.286 250.13 375.719 249.873 375.973 249.36H377.203C377.036 249.867 376.733 250.283 376.293 250.61C375.859 250.93 375.319 251.09 374.673 251.09C374.146 251.09 373.673 250.973 373.253 250.74C372.839 250.5 372.513 250.167 372.273 249.74C372.039 249.307 371.923 248.807 371.923 248.24C371.923 247.673 372.036 247.177 372.263 246.75C372.496 246.317 372.819 245.983 373.233 245.75C373.653 245.517 374.133 245.4 374.673 245.4C375.193 245.4 375.656 245.513 376.063 245.74C376.469 245.967 376.786 246.287 377.013 246.7C377.239 247.107 377.353 247.577 377.353 248.11ZM376.163 247.75C376.156 247.33 376.006 246.993 375.713 246.74C375.419 246.487 375.056 246.36 374.623 246.36C374.229 246.36 373.893 246.487 373.613 246.74C373.333 246.987 373.166 247.323 373.113 247.75H376.163ZM380.692 248.22C380.692 247.667 380.806 247.177 381.032 246.75C381.266 246.323 381.579 245.993 381.972 245.76C382.372 245.52 382.812 245.4 383.292 245.4C383.726 245.4 384.102 245.487 384.422 245.66C384.749 245.827 385.009 246.037 385.202 246.29V245.49H386.352V251H385.202V250.18C385.009 250.44 384.746 250.657 384.412 250.83C384.079 251.003 383.699 251.09 383.272 251.09C382.799 251.09 382.366 250.97 381.972 250.73C381.579 250.483 381.266 250.143 381.032 249.71C380.806 249.27 380.692 248.773 380.692 248.22ZM385.202 248.24C385.202 247.86 385.122 247.53 384.962 247.25C384.809 246.97 384.606 246.757 384.352 246.61C384.099 246.463 383.826 246.39 383.532 246.39C383.239 246.39 382.966 246.463 382.712 246.61C382.459 246.75 382.252 246.96 382.092 247.24C381.939 247.513 381.862 247.84 381.862 248.22C381.862 248.6 381.939 248.933 382.092 249.22C382.252 249.507 382.459 249.727 382.712 249.88C382.972 250.027 383.246 250.1 383.532 250.1C383.826 250.1 384.099 250.027 384.352 249.88C384.606 249.733 384.809 249.52 384.962 249.24C385.122 248.953 385.202 248.62 385.202 248.24ZM389.85 251.09C389.416 251.09 389.026 251.013 388.68 250.86C388.34 250.7 388.07 250.487 387.87 250.22C387.67 249.947 387.563 249.643 387.55 249.31H388.73C388.75 249.543 388.86 249.74 389.06 249.9C389.266 250.053 389.523 250.13 389.83 250.13C390.15 250.13 390.396 250.07 390.57 249.95C390.75 249.823 390.84 249.663 390.84 249.47C390.84 249.263 390.74 249.11 390.54 249.01C390.346 248.91 390.036 248.8 389.61 248.68C389.196 248.567 388.86 248.457 388.6 248.35C388.34 248.243 388.113 248.08 387.92 247.86C387.733 247.64 387.64 247.35 387.64 246.99C387.64 246.697 387.726 246.43 387.9 246.19C388.073 245.943 388.32 245.75 388.64 245.61C388.966 245.47 389.34 245.4 389.76 245.4C390.386 245.4 390.89 245.56 391.27 245.88C391.656 246.193 391.863 246.623 391.89 247.17H390.75C390.73 246.923 390.63 246.727 390.45 246.58C390.27 246.433 390.026 246.36 389.72 246.36C389.42 246.36 389.19 246.417 389.03 246.53C388.87 246.643 388.79 246.793 388.79 246.98C388.79 247.127 388.843 247.25 388.95 247.35C389.056 247.45 389.186 247.53 389.34 247.59C389.493 247.643 389.72 247.713 390.02 247.8C390.42 247.907 390.746 248.017 391 248.13C391.26 248.237 391.483 248.397 391.67 248.61C391.856 248.823 391.953 249.107 391.96 249.46C391.96 249.773 391.873 250.053 391.7 250.3C391.526 250.547 391.28 250.74 390.96 250.88C390.646 251.02 390.276 251.09 389.85 251.09ZM402.459 245.4C402.892 245.4 403.279 245.49 403.619 245.67C403.966 245.85 404.236 246.117 404.429 246.47C404.629 246.823 404.729 247.25 404.729 247.75V251H403.599V247.92C403.599 247.427 403.476 247.05 403.229 246.79C402.982 246.523 402.646 246.39 402.219 246.39C401.792 246.39 401.452 246.523 401.199 246.79C400.952 247.05 400.829 247.427 400.829 247.92V251H399.699V247.92C399.699 247.427 399.576 247.05 399.329 246.79C399.082 246.523 398.746 246.39 398.319 246.39C397.892 246.39 397.552 246.523 397.299 246.79C397.052 247.05 396.929 247.427 396.929 247.92V251H395.789V245.49H396.929V246.12C397.116 245.893 397.352 245.717 397.639 245.59C397.926 245.463 398.232 245.4 398.559 245.4C398.999 245.4 399.392 245.493 399.739 245.68C400.086 245.867 400.352 246.137 400.539 246.49C400.706 246.157 400.966 245.893 401.319 245.7C401.672 245.5 402.052 245.4 402.459 245.4ZM405.8 248.22C405.8 247.667 405.913 247.177 406.14 246.75C406.373 246.323 406.686 245.993 407.08 245.76C407.48 245.52 407.92 245.4 408.4 245.4C408.833 245.4 409.21 245.487 409.53 245.66C409.856 245.827 410.116 246.037 410.31 246.29V245.49H411.46V251H410.31V250.18C410.116 250.44 409.853 250.657 409.52 250.83C409.186 251.003 408.806 251.09 408.38 251.09C407.906 251.09 407.473 250.97 407.08 250.73C406.686 250.483 406.373 250.143 406.14 249.71C405.913 249.27 405.8 248.773 405.8 248.22ZM410.31 248.24C410.31 247.86 410.23 247.53 410.07 247.25C409.916 246.97 409.713 246.757 409.46 246.61C409.206 246.463 408.933 246.39 408.64 246.39C408.346 246.39 408.073 246.463 407.82 246.61C407.566 246.75 407.36 246.96 407.2 247.24C407.046 247.513 406.97 247.84 406.97 248.22C406.97 248.6 407.046 248.933 407.2 249.22C407.36 249.507 407.566 249.727 407.82 249.88C408.08 250.027 408.353 250.1 408.64 250.1C408.933 250.1 409.206 250.027 409.46 249.88C409.713 249.733 409.916 249.52 410.07 249.24C410.23 248.953 410.31 248.62 410.31 248.24ZM415.737 245.4C416.17 245.4 416.557 245.49 416.897 245.67C417.244 245.85 417.514 246.117 417.707 246.47C417.9 246.823 417.997 247.25 417.997 247.75V251H416.867V247.92C416.867 247.427 416.744 247.05 416.497 246.79C416.25 246.523 415.914 246.39 415.487 246.39C415.06 246.39 414.72 246.523 414.467 246.79C414.22 247.05 414.097 247.427 414.097 247.92V251H412.957V245.49H414.097V246.12C414.284 245.893 414.52 245.717 414.807 245.59C415.1 245.463 415.41 245.4 415.737 245.4ZM424.411 245.49L421.031 253.59H419.851L420.971 250.91L418.801 245.49H420.071L421.621 249.69L423.231 245.49H424.411ZM429.009 246.3C429.202 246.047 429.466 245.833 429.799 245.66C430.132 245.487 430.509 245.4 430.929 245.4C431.409 245.4 431.846 245.52 432.239 245.76C432.639 245.993 432.952 246.323 433.179 246.75C433.406 247.177 433.519 247.667 433.519 248.22C433.519 248.773 433.406 249.27 433.179 249.71C432.952 250.143 432.639 250.483 432.239 250.73C431.846 250.97 431.409 251.09 430.929 251.09C430.509 251.09 430.136 251.007 429.809 250.84C429.482 250.667 429.216 250.453 429.009 250.2V253.62H427.869V245.49H429.009V246.3ZM432.359 248.22C432.359 247.84 432.279 247.513 432.119 247.24C431.966 246.96 431.759 246.75 431.499 246.61C431.246 246.463 430.972 246.39 430.679 246.39C430.392 246.39 430.119 246.463 429.859 246.61C429.606 246.757 429.399 246.97 429.239 247.25C429.086 247.53 429.009 247.86 429.009 248.24C429.009 248.62 429.086 248.953 429.239 249.24C429.399 249.52 429.606 249.733 429.859 249.88C430.119 250.027 430.392 250.1 430.679 250.1C430.972 250.1 431.246 250.027 431.499 249.88C431.759 249.727 431.966 249.507 432.119 249.22C432.279 248.933 432.359 248.6 432.359 248.22ZM437.036 251.09C436.516 251.09 436.046 250.973 435.626 250.74C435.206 250.5 434.876 250.167 434.636 249.74C434.396 249.307 434.276 248.807 434.276 248.24C434.276 247.68 434.4 247.183 434.646 246.75C434.893 246.317 435.23 245.983 435.656 245.75C436.083 245.517 436.56 245.4 437.086 245.4C437.613 245.4 438.09 245.517 438.516 245.75C438.943 245.983 439.28 246.317 439.526 246.75C439.773 247.183 439.896 247.68 439.896 248.24C439.896 248.8 439.77 249.297 439.516 249.73C439.263 250.163 438.916 250.5 438.476 250.74C438.043 250.973 437.563 251.09 437.036 251.09ZM437.036 250.1C437.33 250.1 437.603 250.03 437.856 249.89C438.116 249.75 438.326 249.54 438.486 249.26C438.646 248.98 438.726 248.64 438.726 248.24C438.726 247.84 438.65 247.503 438.496 247.23C438.343 246.95 438.14 246.74 437.886 246.6C437.633 246.46 437.36 246.39 437.066 246.39C436.773 246.39 436.5 246.46 436.246 246.6C436 246.74 435.803 246.95 435.656 247.23C435.51 247.503 435.436 247.84 435.436 248.24C435.436 248.833 435.586 249.293 435.886 249.62C436.193 249.94 436.576 250.1 437.036 250.1ZM441.603 244.76C441.397 244.76 441.223 244.69 441.083 244.55C440.943 244.41 440.873 244.237 440.873 244.03C440.873 243.823 440.943 243.65 441.083 243.51C441.223 243.37 441.397 243.3 441.603 243.3C441.803 243.3 441.973 243.37 442.113 243.51C442.253 243.65 442.323 243.823 442.323 244.03C442.323 244.237 442.253 244.41 442.113 244.55C441.973 244.69 441.803 244.76 441.603 244.76ZM442.163 245.49V251H441.023V245.49H442.163ZM446.44 245.4C446.873 245.4 447.26 245.49 447.6 245.67C447.947 245.85 448.217 246.117 448.41 246.47C448.603 246.823 448.7 247.25 448.7 247.75V251H447.57V247.92C447.57 247.427 447.447 247.05 447.2 246.79C446.953 246.523 446.617 246.39 446.19 246.39C445.763 246.39 445.423 246.523 445.17 246.79C444.923 247.05 444.8 247.427 444.8 247.92V251H443.66V245.49H444.8V246.12C444.987 245.893 445.223 245.717 445.51 245.59C445.803 245.463 446.113 245.4 446.44 245.4ZM451.484 246.42V249.47C451.484 249.677 451.531 249.827 451.624 249.92C451.724 250.007 451.891 250.05 452.124 250.05H452.824V251H451.924C451.411 251 451.018 250.88 450.744 250.64C450.471 250.4 450.334 250.01 450.334 249.47V246.42H449.684V245.49H450.334V244.12H451.484V245.49H452.824V246.42H451.484ZM455.875 251.09C455.442 251.09 455.052 251.013 454.705 250.86C454.365 250.7 454.095 250.487 453.895 250.22C453.695 249.947 453.588 249.643 453.575 249.31H454.755C454.775 249.543 454.885 249.74 455.085 249.9C455.292 250.053 455.548 250.13 455.855 250.13C456.175 250.13 456.422 250.07 456.595 249.95C456.775 249.823 456.865 249.663 456.865 249.47C456.865 249.263 456.765 249.11 456.565 249.01C456.372 248.91 456.062 248.8 455.635 248.68C455.222 248.567 454.885 248.457 454.625 248.35C454.365 248.243 454.138 248.08 453.945 247.86C453.758 247.64 453.665 247.35 453.665 246.99C453.665 246.697 453.752 246.43 453.925 246.19C454.098 245.943 454.345 245.75 454.665 245.61C454.992 245.47 455.365 245.4 455.785 245.4C456.412 245.4 456.915 245.56 457.295 245.88C457.682 246.193 457.888 246.623 457.915 247.17H456.775C456.755 246.923 456.655 246.727 456.475 246.58C456.295 246.433 456.052 246.36 455.745 246.36C455.445 246.36 455.215 246.417 455.055 246.53C454.895 246.643 454.815 246.793 454.815 246.98C454.815 247.127 454.868 247.25 454.975 247.35C455.082 247.45 455.212 247.53 455.365 247.59C455.518 247.643 455.745 247.713 456.045 247.8C456.445 247.907 456.772 248.017 457.025 248.13C457.285 248.237 457.508 248.397 457.695 248.61C457.882 248.823 457.978 249.107 457.985 249.46C457.985 249.773 457.898 250.053 457.725 250.3C457.552 250.547 457.305 250.74 456.985 250.88C456.672 251.02 456.302 251.09 455.875 251.09ZM350.37 263.22C350.37 262.667 350.483 262.177 350.71 261.75C350.943 261.323 351.257 260.993 351.65 260.76C352.05 260.52 352.49 260.4 352.97 260.4C353.403 260.4 353.78 260.487 354.1 260.66C354.427 260.827 354.687 261.037 354.88 261.29V260.49H356.03V266H354.88V265.18C354.687 265.44 354.423 265.657 354.09 265.83C353.757 266.003 353.377 266.09 352.95 266.09C352.477 266.09 352.043 265.97 351.65 265.73C351.257 265.483 350.943 265.143 350.71 264.71C350.483 264.27 350.37 263.773 350.37 263.22ZM354.88 263.24C354.88 262.86 354.8 262.53 354.64 262.25C354.487 261.97 354.283 261.757 354.03 261.61C353.777 261.463 353.503 261.39 353.21 261.39C352.917 261.39 352.643 261.463 352.39 261.61C352.137 261.75 351.93 261.96 351.77 262.24C351.617 262.513 351.54 262.84 351.54 263.22C351.54 263.6 351.617 263.933 351.77 264.22C351.93 264.507 352.137 264.727 352.39 264.88C352.65 265.027 352.923 265.1 353.21 265.1C353.503 265.1 353.777 265.027 354.03 264.88C354.283 264.733 354.487 264.52 354.64 264.24C354.8 263.953 354.88 263.62 354.88 263.24ZM359.527 266.09C359.094 266.09 358.704 266.013 358.357 265.86C358.017 265.7 357.747 265.487 357.547 265.22C357.347 264.947 357.241 264.643 357.227 264.31H358.407C358.427 264.543 358.537 264.74 358.737 264.9C358.944 265.053 359.201 265.13 359.507 265.13C359.827 265.13 360.074 265.07 360.247 264.95C360.427 264.823 360.517 264.663 360.517 264.47C360.517 264.263 360.417 264.11 360.217 264.01C360.024 263.91 359.714 263.8 359.287 263.68C358.874 263.567 358.537 263.457 358.277 263.35C358.017 263.243 357.791 263.08 357.597 262.86C357.411 262.64 357.317 262.35 357.317 261.99C357.317 261.697 357.404 261.43 357.577 261.19C357.751 260.943 357.997 260.75 358.317 260.61C358.644 260.47 359.017 260.4 359.437 260.4C360.064 260.4 360.567 260.56 360.947 260.88C361.334 261.193 361.541 261.623 361.567 262.17H360.427C360.407 261.923 360.307 261.727 360.127 261.58C359.947 261.433 359.704 261.36 359.397 261.36C359.097 261.36 358.867 261.417 358.707 261.53C358.547 261.643 358.467 261.793 358.467 261.98C358.467 262.127 358.521 262.25 358.627 262.35C358.734 262.45 358.864 262.53 359.017 262.59C359.171 262.643 359.397 262.713 359.697 262.8C360.097 262.907 360.424 263.017 360.677 263.13C360.937 263.237 361.161 263.397 361.347 263.61C361.534 263.823 361.631 264.107 361.637 264.46C361.637 264.773 361.551 265.053 361.377 265.3C361.204 265.547 360.957 265.74 360.637 265.88C360.324 266.02 359.954 266.09 359.527 266.09ZM366.607 261.3C366.8 261.047 367.063 260.833 367.397 260.66C367.73 260.487 368.107 260.4 368.527 260.4C369.007 260.4 369.443 260.52 369.837 260.76C370.237 260.993 370.55 261.323 370.777 261.75C371.003 262.177 371.117 262.667 371.117 263.22C371.117 263.773 371.003 264.27 370.777 264.71C370.55 265.143 370.237 265.483 369.837 265.73C369.443 265.97 369.007 266.09 368.527 266.09C368.107 266.09 367.733 266.007 367.407 265.84C367.08 265.667 366.813 265.453 366.607 265.2V268.62H365.467V260.49H366.607V261.3ZM369.957 263.22C369.957 262.84 369.877 262.513 369.717 262.24C369.563 261.96 369.357 261.75 369.097 261.61C368.843 261.463 368.57 261.39 368.277 261.39C367.99 261.39 367.717 261.463 367.457 261.61C367.203 261.757 366.997 261.97 366.837 262.25C366.683 262.53 366.607 262.86 366.607 263.24C366.607 263.62 366.683 263.953 366.837 264.24C366.997 264.52 367.203 264.733 367.457 264.88C367.717 265.027 367.99 265.1 368.277 265.1C368.57 265.1 368.843 265.027 369.097 264.88C369.357 264.727 369.563 264.507 369.717 264.22C369.877 263.933 369.957 263.6 369.957 263.22ZM374.634 266.09C374.114 266.09 373.644 265.973 373.224 265.74C372.804 265.5 372.474 265.167 372.234 264.74C371.994 264.307 371.874 263.807 371.874 263.24C371.874 262.68 371.997 262.183 372.244 261.75C372.491 261.317 372.827 260.983 373.254 260.75C373.681 260.517 374.157 260.4 374.684 260.4C375.211 260.4 375.687 260.517 376.114 260.75C376.541 260.983 376.877 261.317 377.124 261.75C377.371 262.183 377.494 262.68 377.494 263.24C377.494 263.8 377.367 264.297 377.114 264.73C376.861 265.163 376.514 265.5 376.074 265.74C375.641 265.973 375.161 266.09 374.634 266.09ZM374.634 265.1C374.927 265.1 375.201 265.03 375.454 264.89C375.714 264.75 375.924 264.54 376.084 264.26C376.244 263.98 376.324 263.64 376.324 263.24C376.324 262.84 376.247 262.503 376.094 262.23C375.941 261.95 375.737 261.74 375.484 261.6C375.231 261.46 374.957 261.39 374.664 261.39C374.371 261.39 374.097 261.46 373.844 261.6C373.597 261.74 373.401 261.95 373.254 262.23C373.107 262.503 373.034 262.84 373.034 263.24C373.034 263.833 373.184 264.293 373.484 264.62C373.791 264.94 374.174 265.1 374.634 265.1ZM380.621 266.09C380.188 266.09 379.798 266.013 379.451 265.86C379.111 265.7 378.841 265.487 378.641 265.22C378.441 264.947 378.334 264.643 378.321 264.31H379.501C379.521 264.543 379.631 264.74 379.831 264.9C380.038 265.053 380.294 265.13 380.601 265.13C380.921 265.13 381.168 265.07 381.341 264.95C381.521 264.823 381.611 264.663 381.611 264.47C381.611 264.263 381.511 264.11 381.311 264.01C381.118 263.91 380.808 263.8 380.381 263.68C379.968 263.567 379.631 263.457 379.371 263.35C379.111 263.243 378.884 263.08 378.691 262.86C378.504 262.64 378.411 262.35 378.411 261.99C378.411 261.697 378.498 261.43 378.671 261.19C378.844 260.943 379.091 260.75 379.411 260.61C379.738 260.47 380.111 260.4 380.531 260.4C381.158 260.4 381.661 260.56 382.041 260.88C382.428 261.193 382.634 261.623 382.661 262.17H381.521C381.501 261.923 381.401 261.727 381.221 261.58C381.041 261.433 380.798 261.36 380.491 261.36C380.191 261.36 379.961 261.417 379.801 261.53C379.641 261.643 379.561 261.793 379.561 261.98C379.561 262.127 379.614 262.25 379.721 262.35C379.828 262.45 379.958 262.53 380.111 262.59C380.264 262.643 380.491 262.713 380.791 262.8C381.191 262.907 381.518 263.017 381.771 263.13C382.031 263.237 382.254 263.397 382.441 263.61C382.628 263.823 382.724 264.107 382.731 264.46C382.731 264.773 382.644 265.053 382.471 265.3C382.298 265.547 382.051 265.74 381.731 265.88C381.418 266.02 381.048 266.09 380.621 266.09ZM385.963 266.09C385.53 266.09 385.14 266.013 384.793 265.86C384.453 265.7 384.183 265.487 383.983 265.22C383.783 264.947 383.676 264.643 383.663 264.31H384.843C384.863 264.543 384.973 264.74 385.173 264.9C385.38 265.053 385.636 265.13 385.943 265.13C386.263 265.13 386.51 265.07 386.683 264.95C386.863 264.823 386.953 264.663 386.953 264.47C386.953 264.263 386.853 264.11 386.653 264.01C386.46 263.91 386.15 263.8 385.723 263.68C385.31 263.567 384.973 263.457 384.713 263.35C384.453 263.243 384.226 263.08 384.033 262.86C383.846 262.64 383.753 262.35 383.753 261.99C383.753 261.697 383.84 261.43 384.013 261.19C384.186 260.943 384.433 260.75 384.753 260.61C385.08 260.47 385.453 260.4 385.873 260.4C386.5 260.4 387.003 260.56 387.383 260.88C387.77 261.193 387.976 261.623 388.003 262.17H386.863C386.843 261.923 386.743 261.727 386.563 261.58C386.383 261.433 386.14 261.36 385.833 261.36C385.533 261.36 385.303 261.417 385.143 261.53C384.983 261.643 384.903 261.793 384.903 261.98C384.903 262.127 384.956 262.25 385.063 262.35C385.17 262.45 385.3 262.53 385.453 262.59C385.606 262.643 385.833 262.713 386.133 262.8C386.533 262.907 386.86 263.017 387.113 263.13C387.373 263.237 387.596 263.397 387.783 263.61C387.97 263.823 388.066 264.107 388.073 264.46C388.073 264.773 387.986 265.053 387.813 265.3C387.64 265.547 387.393 265.74 387.073 265.88C386.76 266.02 386.39 266.09 385.963 266.09ZM389.885 259.76C389.678 259.76 389.505 259.69 389.365 259.55C389.225 259.41 389.155 259.237 389.155 259.03C389.155 258.823 389.225 258.65 389.365 258.51C389.505 258.37 389.678 258.3 389.885 258.3C390.085 258.3 390.255 258.37 390.395 258.51C390.535 258.65 390.605 258.823 390.605 259.03C390.605 259.237 390.535 259.41 390.395 259.55C390.255 259.69 390.085 259.76 389.885 259.76ZM390.445 260.49V266H389.305V260.49H390.445ZM393.081 261.31C393.275 261.043 393.538 260.827 393.871 260.66C394.211 260.487 394.588 260.4 395.001 260.4C395.488 260.4 395.928 260.517 396.321 260.75C396.715 260.983 397.025 261.317 397.251 261.75C397.478 262.177 397.591 262.667 397.591 263.22C397.591 263.773 397.478 264.27 397.251 264.71C397.025 265.143 396.711 265.483 396.311 265.73C395.918 265.97 395.481 266.09 395.001 266.09C394.575 266.09 394.195 266.007 393.861 265.84C393.535 265.673 393.275 265.46 393.081 265.2V266H391.941V258.6H393.081V261.31ZM396.431 263.22C396.431 262.84 396.351 262.513 396.191 262.24C396.038 261.96 395.831 261.75 395.571 261.61C395.318 261.463 395.045 261.39 394.751 261.39C394.465 261.39 394.191 261.463 393.931 261.61C393.678 261.757 393.471 261.97 393.311 262.25C393.158 262.53 393.081 262.86 393.081 263.24C393.081 263.62 393.158 263.953 393.311 264.24C393.471 264.52 393.678 264.733 393.931 264.88C394.191 265.027 394.465 265.1 394.751 265.1C395.045 265.1 395.318 265.027 395.571 264.88C395.831 264.727 396.038 264.507 396.191 264.22C396.351 263.933 396.431 263.6 396.431 263.22ZM399.859 258.6V266H398.719V258.6H399.859ZM406.405 263.11C406.405 263.317 406.392 263.503 406.365 263.67H402.155C402.189 264.11 402.352 264.463 402.645 264.73C402.939 264.997 403.299 265.13 403.725 265.13C404.339 265.13 404.772 264.873 405.025 264.36H406.255C406.089 264.867 405.785 265.283 405.345 265.61C404.912 265.93 404.372 266.09 403.725 266.09C403.199 266.09 402.725 265.973 402.305 265.74C401.892 265.5 401.565 265.167 401.325 264.74C401.092 264.307 400.975 263.807 400.975 263.24C400.975 262.673 401.089 262.177 401.315 261.75C401.549 261.317 401.872 260.983 402.285 260.75C402.705 260.517 403.185 260.4 403.725 260.4C404.245 260.4 404.709 260.513 405.115 260.74C405.522 260.967 405.839 261.287 406.065 261.7C406.292 262.107 406.405 262.577 406.405 263.11ZM405.215 262.75C405.209 262.33 405.059 261.993 404.765 261.74C404.472 261.487 404.109 261.36 403.675 261.36C403.282 261.36 402.945 261.487 402.665 261.74C402.385 261.987 402.219 262.323 402.165 262.75H405.215ZM408.957 259.05L408.827 263.9H407.877L407.747 259.05H408.957ZM408.387 266.07C408.181 266.07 408.007 266 407.867 265.86C407.727 265.72 407.657 265.547 407.657 265.34C407.657 265.133 407.727 264.96 407.867 264.82C408.007 264.68 408.181 264.61 408.387 264.61C408.587 264.61 408.757 264.68 408.897 264.82C409.037 264.96 409.107 265.133 409.107 265.34C409.107 265.547 409.037 265.72 408.897 265.86C408.757 266 408.587 266.07 408.387 266.07Z" fill="white"/>
</svg>
