<svg xmlns="http://www.w3.org/2000/svg" fill="none" viewBox="0 0 480 360" height="360" width="480">
<path fill="#0A0A0A" d="M0 40H150C161.046 40 170 48.9543 170 60V321C170 332.046 161.046 341 150 341H0V40Z"></path>
<path fill="white" d="M117.613 17.75V16.71H119.693V24H118.543V17.75H117.613ZM121.889 22.45C122.529 21.8967 123.033 21.4433 123.399 21.09C123.773 20.73 124.083 20.3567 124.329 19.97C124.576 19.5833 124.699 19.1967 124.699 18.81C124.699 18.41 124.603 18.0967 124.409 17.87C124.223 17.6433 123.926 17.53 123.519 17.53C123.126 17.53 122.819 17.6567 122.599 17.91C122.386 18.1567 122.273 18.49 122.259 18.91H121.159C121.179 18.15 121.406 17.57 121.839 17.17C122.279 16.7633 122.836 16.56 123.509 16.56C124.236 16.56 124.803 16.76 125.209 17.16C125.623 17.56 125.829 18.0933 125.829 18.76C125.829 19.24 125.706 19.7033 125.459 20.15C125.219 20.59 124.929 20.9867 124.589 21.34C124.256 21.6867 123.829 22.09 123.309 22.55L122.859 22.95H126.029V23.9H121.169V23.07L121.889 22.45ZM127.031 20.26C127.031 19.1067 127.224 18.2067 127.611 17.56C128.004 16.9067 128.677 16.58 129.631 16.58C130.584 16.58 131.254 16.9067 131.641 17.56C132.034 18.2067 132.231 19.1067 132.231 20.26C132.231 21.4267 132.034 22.34 131.641 23C131.254 23.6533 130.584 23.98 129.631 23.98C128.677 23.98 128.004 23.6533 127.611 23C127.224 22.34 127.031 21.4267 127.031 20.26ZM131.111 20.26C131.111 19.72 131.074 19.2633 131.001 18.89C130.934 18.5167 130.794 18.2133 130.581 17.98C130.367 17.74 130.051 17.62 129.631 17.62C129.211 17.62 128.894 17.74 128.681 17.98C128.467 18.2133 128.324 18.5167 128.251 18.89C128.184 19.2633 128.151 19.72 128.151 20.26C128.151 20.82 128.184 21.29 128.251 21.67C128.317 22.05 128.457 22.3567 128.671 22.59C128.891 22.8233 129.211 22.94 129.631 22.94C130.051 22.94 130.367 22.8233 130.581 22.59C130.801 22.3567 130.944 22.05 131.011 21.67C131.077 21.29 131.111 20.82 131.111 20.26Z"></path>
<path fill="white" d="M147.296 17.75V16.71H149.376V24H148.226V17.75H147.296ZM150.942 20.26C150.942 19.1067 151.135 18.2067 151.522 17.56C151.915 16.9067 152.588 16.58 153.542 16.58C154.495 16.58 155.165 16.9067 155.552 17.56C155.945 18.2067 156.142 19.1067 156.142 20.26C156.142 21.4267 155.945 22.34 155.552 23C155.165 23.6533 154.495 23.98 153.542 23.98C152.588 23.98 151.915 23.6533 151.522 23C151.135 22.34 150.942 21.4267 150.942 20.26ZM155.022 20.26C155.022 19.72 154.985 19.2633 154.912 18.89C154.845 18.5167 154.705 18.2133 154.492 17.98C154.278 17.74 153.962 17.62 153.542 17.62C153.122 17.62 152.805 17.74 152.592 17.98C152.378 18.2133 152.235 18.5167 152.162 18.89C152.095 19.2633 152.062 19.72 152.062 20.26C152.062 20.82 152.095 21.29 152.162 21.67C152.228 22.05 152.368 22.3567 152.582 22.59C152.802 22.8233 153.122 22.94 153.542 22.94C153.962 22.94 154.278 22.8233 154.492 22.59C154.712 22.3567 154.855 22.05 154.922 21.67C154.988 21.29 155.022 20.82 155.022 20.26ZM157.348 20.26C157.348 19.1067 157.541 18.2067 157.928 17.56C158.321 16.9067 158.995 16.58 159.948 16.58C160.901 16.58 161.571 16.9067 161.958 17.56C162.351 18.2067 162.548 19.1067 162.548 20.26C162.548 21.4267 162.351 22.34 161.958 23C161.571 23.6533 160.901 23.98 159.948 23.98C158.995 23.98 158.321 23.6533 157.928 23C157.541 22.34 157.348 21.4267 157.348 20.26ZM161.428 20.26C161.428 19.72 161.391 19.2633 161.318 18.89C161.251 18.5167 161.111 18.2133 160.898 17.98C160.685 17.74 160.368 17.62 159.948 17.62C159.528 17.62 159.211 17.74 158.998 17.98C158.785 18.2133 158.641 18.5167 158.568 18.89C158.501 19.2633 158.468 19.72 158.468 20.26C158.468 20.82 158.501 21.29 158.568 21.67C158.635 22.05 158.775 22.3567 158.988 22.59C159.208 22.8233 159.528 22.94 159.948 22.94C160.368 22.94 160.685 22.8233 160.898 22.59C161.118 22.3567 161.261 22.05 161.328 21.67C161.395 21.29 161.428 20.82 161.428 20.26Z"></path>
<path fill="white" d="M180.438 20.19C179.745 19.8433 179.398 19.2967 179.398 18.55C179.398 18.19 179.488 17.86 179.668 17.56C179.848 17.26 180.118 17.0233 180.478 16.85C180.838 16.67 181.278 16.58 181.798 16.58C182.312 16.58 182.748 16.67 183.108 16.85C183.475 17.0233 183.748 17.26 183.928 17.56C184.108 17.86 184.198 18.19 184.198 18.55C184.198 18.9233 184.102 19.2533 183.908 19.54C183.722 19.82 183.472 20.0367 183.158 20.19C183.538 20.33 183.838 20.56 184.058 20.88C184.278 21.1933 184.388 21.5633 184.388 21.99C184.388 22.4233 184.278 22.8067 184.058 23.14C183.838 23.4733 183.532 23.73 183.138 23.91C182.745 24.09 182.298 24.18 181.798 24.18C181.298 24.18 180.852 24.09 180.458 23.91C180.072 23.73 179.768 23.4733 179.548 23.14C179.328 22.8067 179.218 22.4233 179.218 21.99C179.218 21.5567 179.328 21.1833 179.548 20.87C179.768 20.5567 180.065 20.33 180.438 20.19ZM183.108 18.69C183.108 18.3167 182.992 18.03 182.758 17.83C182.525 17.63 182.205 17.53 181.798 17.53C181.398 17.53 181.082 17.63 180.848 17.83C180.615 18.03 180.498 18.32 180.498 18.7C180.498 19.0333 180.618 19.3067 180.858 19.52C181.105 19.7267 181.418 19.83 181.798 19.83C182.178 19.83 182.492 19.7233 182.738 19.51C182.985 19.2967 183.108 19.0233 183.108 18.69ZM181.798 20.69C181.358 20.69 180.998 20.8 180.718 21.02C180.445 21.2333 180.308 21.5433 180.308 21.95C180.308 22.33 180.442 22.64 180.708 22.88C180.975 23.1133 181.338 23.23 181.798 23.23C182.252 23.23 182.608 23.11 182.868 22.87C183.135 22.63 183.268 22.3233 183.268 21.95C183.268 21.55 183.132 21.24 182.858 21.02C182.592 20.8 182.238 20.69 181.798 20.69ZM185.585 20.26C185.585 19.1067 185.779 18.2067 186.165 17.56C186.559 16.9067 187.232 16.58 188.185 16.58C189.139 16.58 189.809 16.9067 190.195 17.56C190.589 18.2067 190.785 19.1067 190.785 20.26C190.785 21.4267 190.589 22.34 190.195 23C189.809 23.6533 189.139 23.98 188.185 23.98C187.232 23.98 186.559 23.6533 186.165 23C185.779 22.34 185.585 21.4267 185.585 20.26ZM189.665 20.26C189.665 19.72 189.629 19.2633 189.555 18.89C189.489 18.5167 189.349 18.2133 189.135 17.98C188.922 17.74 188.605 17.62 188.185 17.62C187.765 17.62 187.449 17.74 187.235 17.98C187.022 18.2133 186.879 18.5167 186.805 18.89C186.739 19.2633 186.705 19.72 186.705 20.26C186.705 20.82 186.739 21.29 186.805 21.67C186.872 22.05 187.012 22.3567 187.225 22.59C187.445 22.8233 187.765 22.94 188.185 22.94C188.605 22.94 188.922 22.8233 189.135 22.59C189.355 22.3567 189.499 22.05 189.565 21.67C189.632 21.29 189.665 20.82 189.665 20.26Z"></path>
<path fill="white" d="M213.109 18.4C213.036 18.0933 212.902 17.8633 212.709 17.71C212.516 17.5567 212.246 17.48 211.899 17.48C211.372 17.48 210.979 17.6833 210.719 18.09C210.459 18.49 210.322 19.1567 210.309 20.09C210.482 19.7967 210.736 19.57 211.069 19.41C211.402 19.25 211.762 19.17 212.149 19.17C212.589 19.17 212.976 19.2667 213.309 19.46C213.649 19.6467 213.912 19.92 214.099 20.28C214.292 20.64 214.389 21.07 214.389 21.57C214.389 22.0367 214.296 22.4533 214.109 22.82C213.929 23.1867 213.659 23.4767 213.299 23.69C212.939 23.8967 212.506 24 211.999 24C211.312 24 210.772 23.85 210.379 23.55C209.992 23.2433 209.719 22.8133 209.559 22.26C209.406 21.7067 209.329 21.0167 209.329 20.19C209.329 17.75 210.189 16.53 211.909 16.53C212.576 16.53 213.099 16.71 213.479 17.07C213.866 17.43 214.092 17.8733 214.159 18.4H213.109ZM211.899 20.13C211.492 20.13 211.146 20.2533 210.859 20.5C210.579 20.74 210.439 21.09 210.439 21.55C210.439 22.01 210.569 22.3767 210.829 22.65C211.096 22.9167 211.466 23.05 211.939 23.05C212.359 23.05 212.689 22.92 212.929 22.66C213.176 22.4 213.299 22.0533 213.299 21.62C213.299 21.1667 213.179 20.8067 212.939 20.54C212.706 20.2667 212.359 20.13 211.899 20.13ZM215.605 20.26C215.605 19.1067 215.798 18.2067 216.185 17.56C216.578 16.9067 217.252 16.58 218.205 16.58C219.158 16.58 219.828 16.9067 220.215 17.56C220.608 18.2067 220.805 19.1067 220.805 20.26C220.805 21.4267 220.608 22.34 220.215 23C219.828 23.6533 219.158 23.98 218.205 23.98C217.252 23.98 216.578 23.6533 216.185 23C215.798 22.34 215.605 21.4267 215.605 20.26ZM219.685 20.26C219.685 19.72 219.648 19.2633 219.575 18.89C219.508 18.5167 219.368 18.2133 219.155 17.98C218.942 17.74 218.625 17.62 218.205 17.62C217.785 17.62 217.468 17.74 217.255 17.98C217.042 18.2133 216.898 18.5167 216.825 18.89C216.758 19.2633 216.725 19.72 216.725 20.26C216.725 20.82 216.758 21.29 216.825 21.67C216.892 22.05 217.032 22.3567 217.245 22.59C217.465 22.8233 217.785 22.94 218.205 22.94C218.625 22.94 218.942 22.8233 219.155 22.59C219.375 22.3567 219.518 22.05 219.585 21.67C219.652 21.29 219.685 20.82 219.685 20.26Z"></path>
<path fill="white" d="M239.02 22.48V21.62L242.38 16.8H243.76V21.49H244.69V22.48H243.76V24H242.64V22.48H239.02ZM242.69 17.96L240.33 21.49H242.69V17.96ZM245.634 20.26C245.634 19.1067 245.828 18.2067 246.214 17.56C246.608 16.9067 247.281 16.58 248.234 16.58C249.188 16.58 249.858 16.9067 250.244 17.56C250.638 18.2067 250.834 19.1067 250.834 20.26C250.834 21.4267 250.638 22.34 250.244 23C249.858 23.6533 249.188 23.98 248.234 23.98C247.281 23.98 246.608 23.6533 246.214 23C245.828 22.34 245.634 21.4267 245.634 20.26ZM249.714 20.26C249.714 19.72 249.678 19.2633 249.604 18.89C249.538 18.5167 249.398 18.2133 249.184 17.98C248.971 17.74 248.654 17.62 248.234 17.62C247.814 17.62 247.498 17.74 247.284 17.98C247.071 18.2133 246.928 18.5167 246.854 18.89C246.788 19.2633 246.754 19.72 246.754 20.26C246.754 20.82 246.788 21.29 246.854 21.67C246.921 22.05 247.061 22.3567 247.274 22.59C247.494 22.8233 247.814 22.94 248.234 22.94C248.654 22.94 248.971 22.8233 249.184 22.59C249.404 22.3567 249.548 22.05 249.614 21.67C249.681 21.29 249.714 20.82 249.714 20.26Z"></path>
<path fill="white" d="M270.141 22.45C270.781 21.8967 271.284 21.4433 271.651 21.09C272.024 20.73 272.334 20.3567 272.581 19.97C272.828 19.5833 272.951 19.1967 272.951 18.81C272.951 18.41 272.854 18.0967 272.661 17.87C272.474 17.6433 272.178 17.53 271.771 17.53C271.378 17.53 271.071 17.6567 270.851 17.91C270.638 18.1567 270.524 18.49 270.511 18.91H269.411C269.431 18.15 269.658 17.57 270.091 17.17C270.531 16.7633 271.088 16.56 271.761 16.56C272.488 16.56 273.054 16.76 273.461 17.16C273.874 17.56 274.081 18.0933 274.081 18.76C274.081 19.24 273.958 19.7033 273.711 20.15C273.471 20.59 273.181 20.9867 272.841 21.34C272.508 21.6867 272.081 22.09 271.561 22.55L271.111 22.95H274.281V23.9H269.421V23.07L270.141 22.45ZM275.283 20.26C275.283 19.1067 275.476 18.2067 275.863 17.56C276.256 16.9067 276.929 16.58 277.883 16.58C278.836 16.58 279.506 16.9067 279.893 17.56C280.286 18.2067 280.483 19.1067 280.483 20.26C280.483 21.4267 280.286 22.34 279.893 23C279.506 23.6533 278.836 23.98 277.883 23.98C276.929 23.98 276.256 23.6533 275.863 23C275.476 22.34 275.283 21.4267 275.283 20.26ZM279.363 20.26C279.363 19.72 279.326 19.2633 279.253 18.89C279.186 18.5167 279.046 18.2133 278.833 17.98C278.619 17.74 278.303 17.62 277.883 17.62C277.463 17.62 277.146 17.74 276.933 17.98C276.719 18.2133 276.576 18.5167 276.503 18.89C276.436 19.2633 276.403 19.72 276.403 20.26C276.403 20.82 276.436 21.29 276.503 21.67C276.569 22.05 276.709 22.3567 276.923 22.59C277.143 22.8233 277.463 22.94 277.883 22.94C278.303 22.94 278.619 22.8233 278.833 22.59C279.053 22.3567 279.196 22.05 279.263 21.67C279.329 21.29 279.363 20.82 279.363 20.26Z"></path>
<path fill="white" d="M13.648 24.084C13.088 24.084 12.584 23.988 12.136 23.796C11.688 23.596 11.336 23.316 11.08 22.956C10.824 22.596 10.696 22.176 10.696 21.696H12.16C12.192 22.056 12.332 22.352 12.58 22.584C12.836 22.816 13.192 22.932 13.648 22.932C14.12 22.932 14.488 22.82 14.752 22.596C15.016 22.364 15.148 22.068 15.148 21.708C15.148 21.428 15.064 21.2 14.896 21.024C14.736 20.848 14.532 20.712 14.284 20.616C14.044 20.52 13.708 20.416 13.276 20.304C12.732 20.16 12.288 20.016 11.944 19.872C11.608 19.72 11.32 19.488 11.08 19.176C10.84 18.864 10.72 18.448 10.72 17.928C10.72 17.448 10.84 17.028 11.08 16.668C11.32 16.308 11.656 16.032 12.088 15.84C12.52 15.648 13.02 15.552 13.588 15.552C14.396 15.552 15.056 15.756 15.568 16.164C16.088 16.564 16.376 17.116 16.432 17.82H14.92C14.896 17.516 14.752 17.256 14.488 17.04C14.224 16.824 13.876 16.716 13.444 16.716C13.052 16.716 12.732 16.816 12.484 17.016C12.236 17.216 12.112 17.504 12.112 17.88C12.112 18.136 12.188 18.348 12.34 18.516C12.5 18.676 12.7 18.804 12.94 18.9C13.18 18.996 13.508 19.1 13.924 19.212C14.476 19.364 14.924 19.516 15.268 19.668C15.62 19.82 15.916 20.056 16.156 20.376C16.404 20.688 16.528 21.108 16.528 21.636C16.528 22.06 16.412 22.46 16.18 22.836C15.956 23.212 15.624 23.516 15.184 23.748C14.752 23.972 14.24 24.084 13.648 24.084ZM24.2022 20.532C24.2022 20.78 24.1862 21.004 24.1542 21.204H19.1022C19.1422 21.732 19.3382 22.156 19.6902 22.476C20.0422 22.796 20.4742 22.956 20.9862 22.956C21.7222 22.956 22.2422 22.648 22.5462 22.032H24.0222C23.8222 22.64 23.4582 23.14 22.9302 23.532C22.4102 23.916 21.7622 24.108 20.9862 24.108C20.3542 24.108 19.7862 23.968 19.2822 23.688C18.7862 23.4 18.3942 23 18.1062 22.488C17.8262 21.968 17.6862 21.368 17.6862 20.688C17.6862 20.008 17.8222 19.412 18.0942 18.9C18.3742 18.38 18.7622 17.98 19.2582 17.7C19.7622 17.42 20.3382 17.28 20.9862 17.28C21.6102 17.28 22.1662 17.416 22.6542 17.688C23.1422 17.96 23.5222 18.344 23.7942 18.84C24.0662 19.328 24.2022 19.892 24.2022 20.532ZM22.7742 20.1C22.7662 19.596 22.5862 19.192 22.2342 18.888C21.8822 18.584 21.4462 18.432 20.9262 18.432C20.4542 18.432 20.0502 18.584 19.7142 18.888C19.3782 19.184 19.1782 19.588 19.1142 20.1H22.7742ZM26.9164 15.12V24H25.5484V15.12H26.9164ZM34.7725 20.532C34.7725 20.78 34.7565 21.004 34.7245 21.204H29.6725C29.7125 21.732 29.9085 22.156 30.2605 22.476C30.6125 22.796 31.0445 22.956 31.5565 22.956C32.2925 22.956 32.8125 22.648 33.1165 22.032H34.5925C34.3925 22.64 34.0285 23.14 33.5005 23.532C32.9805 23.916 32.3325 24.108 31.5565 24.108C30.9245 24.108 30.3565 23.968 29.8525 23.688C29.3565 23.4 28.9645 23 28.6765 22.488C28.3965 21.968 28.2565 21.368 28.2565 20.688C28.2565 20.008 28.3925 19.412 28.6645 18.9C28.9445 18.38 29.3325 17.98 29.8285 17.7C30.3325 17.42 30.9085 17.28 31.5565 17.28C32.1805 17.28 32.7365 17.416 33.2245 17.688C33.7125 17.96 34.0925 18.344 34.3645 18.84C34.6365 19.328 34.7725 19.892 34.7725 20.532ZM33.3445 20.1C33.3365 19.596 33.1565 19.192 32.8045 18.888C32.4525 18.584 32.0165 18.432 31.4965 18.432C31.0245 18.432 30.6205 18.584 30.2845 18.888C29.9485 19.184 29.7485 19.588 29.6845 20.1H33.3445ZM35.6628 20.688C35.6628 20.008 35.7988 19.412 36.0708 18.9C36.3508 18.38 36.7348 17.98 37.2228 17.7C37.7108 17.42 38.2708 17.28 38.9028 17.28C39.7028 17.28 40.3628 17.472 40.8828 17.856C41.4108 18.232 41.7668 18.772 41.9508 19.476H40.4748C40.3548 19.148 40.1628 18.892 39.8988 18.708C39.6348 18.524 39.3028 18.432 38.9028 18.432C38.3428 18.432 37.8948 18.632 37.5588 19.032C37.2308 19.424 37.0668 19.976 37.0668 20.688C37.0668 21.4 37.2308 21.956 37.5588 22.356C37.8948 22.756 38.3428 22.956 38.9028 22.956C39.6948 22.956 40.2188 22.608 40.4748 21.912H41.9508C41.7588 22.584 41.3988 23.12 40.8708 23.52C40.3428 23.912 39.6868 24.108 38.9028 24.108C38.2708 24.108 37.7108 23.968 37.2228 23.688C36.7348 23.4 36.3508 23 36.0708 22.488C35.7988 21.968 35.6628 21.368 35.6628 20.688ZM44.9101 18.504V22.164C44.9101 22.412 44.9661 22.592 45.0781 22.704C45.1981 22.808 45.3981 22.86 45.6781 22.86H46.5181V24H45.4381C44.8221 24 44.3501 23.856 44.0221 23.568C43.6941 23.28 43.5301 22.812 43.5301 22.164V18.504H42.7501V17.388H43.5301V15.744H44.9101V17.388H46.5181V18.504H44.9101ZM53.8389 20.532C53.8389 20.78 53.8229 21.004 53.7909 21.204H48.7389C48.7789 21.732 48.9749 22.156 49.3269 22.476C49.6789 22.796 50.1109 22.956 50.6229 22.956C51.3589 22.956 51.8789 22.648 52.1829 22.032H53.6589C53.4589 22.64 53.0949 23.14 52.5669 23.532C52.0469 23.916 51.3989 24.108 50.6229 24.108C49.9909 24.108 49.4229 23.968 48.9189 23.688C48.4229 23.4 48.0309 23 47.7429 22.488C47.4629 21.968 47.3229 21.368 47.3229 20.688C47.3229 20.008 47.4589 19.412 47.7309 18.9C48.0109 18.38 48.3989 17.98 48.8949 17.7C49.3989 17.42 49.9749 17.28 50.6229 17.28C51.2469 17.28 51.8029 17.416 52.2909 17.688C52.7789 17.96 53.1589 18.344 53.4309 18.84C53.7029 19.328 53.8389 19.892 53.8389 20.532ZM52.4109 20.1C52.4029 19.596 52.2229 19.192 51.8709 18.888C51.5189 18.584 51.0829 18.432 50.5629 18.432C50.0909 18.432 49.6869 18.584 49.3509 18.888C49.0149 19.184 48.8149 19.588 48.7509 20.1H52.4109ZM54.7292 20.664C54.7292 20 54.8652 19.412 55.1372 18.9C55.4172 18.388 55.7932 17.992 56.2652 17.712C56.7452 17.424 57.2772 17.28 57.8612 17.28C58.2932 17.28 58.7172 17.376 59.1332 17.568C59.5572 17.752 59.8932 18 60.1412 18.312V15.12H61.5212V24H60.1412V23.004C59.9172 23.324 59.6052 23.588 59.2052 23.796C58.8132 24.004 58.3612 24.108 57.8492 24.108C57.2732 24.108 56.7452 23.964 56.2652 23.676C55.7932 23.38 55.4172 22.972 55.1372 22.452C54.8652 21.924 54.7292 21.328 54.7292 20.664ZM60.1412 20.688C60.1412 20.232 60.0452 19.836 59.8532 19.5C59.6692 19.164 59.4252 18.908 59.1212 18.732C58.8172 18.556 58.4892 18.468 58.1372 18.468C57.7852 18.468 57.4572 18.556 57.1532 18.732C56.8492 18.9 56.6012 19.152 56.4092 19.488C56.2252 19.816 56.1332 20.208 56.1332 20.664C56.1332 21.12 56.2252 21.52 56.4092 21.864C56.6012 22.208 56.8492 22.472 57.1532 22.656C57.4652 22.832 57.7932 22.92 58.1372 22.92C58.4892 22.92 58.8172 22.832 59.1212 22.656C59.4252 22.48 59.6692 22.224 59.8532 21.888C60.0452 21.544 60.1412 21.144 60.1412 20.688ZM69.7712 17.28C70.2912 17.28 70.7552 17.388 71.1632 17.604C71.5792 17.82 71.9032 18.14 72.1352 18.564C72.3672 18.988 72.4832 19.5 72.4832 20.1V24H71.1272V20.304C71.1272 19.712 70.9792 19.26 70.6832 18.948C70.3872 18.628 69.9832 18.468 69.4712 18.468C68.9592 18.468 68.5512 18.628 68.2472 18.948C67.9512 19.26 67.8032 19.712 67.8032 20.304V24H66.4352V17.388H67.8032V18.144C68.0272 17.872 68.3112 17.66 68.6552 17.508C69.0072 17.356 69.3792 17.28 69.7712 17.28ZM77.0961 24.108C76.4721 24.108 75.9081 23.968 75.4041 23.688C74.9001 23.4 74.5041 23 74.2161 22.488C73.9281 21.968 73.7841 21.368 73.7841 20.688C73.7841 20.016 73.9321 19.42 74.2281 18.9C74.5241 18.38 74.9281 17.98 75.4401 17.7C75.9521 17.42 76.5241 17.28 77.1561 17.28C77.7881 17.28 78.3601 17.42 78.8721 17.7C79.3841 17.98 79.7881 18.38 80.0841 18.9C80.3801 19.42 80.5281 20.016 80.5281 20.688C80.5281 21.36 80.3761 21.956 80.0721 22.476C79.7681 22.996 79.3521 23.4 78.8241 23.688C78.3041 23.968 77.7281 24.108 77.0961 24.108ZM77.0961 22.92C77.4481 22.92 77.7761 22.836 78.0801 22.668C78.3921 22.5 78.6441 22.248 78.8361 21.912C79.0281 21.576 79.1241 21.168 79.1241 20.688C79.1241 20.208 79.0321 19.804 78.8481 19.476C78.6641 19.14 78.4201 18.888 78.1161 18.72C77.8121 18.552 77.4841 18.468 77.1321 18.468C76.7801 18.468 76.4521 18.552 76.1481 18.72C75.8521 18.888 75.6161 19.14 75.4401 19.476C75.2641 19.804 75.1761 20.208 75.1761 20.688C75.1761 21.4 75.3561 21.952 75.7161 22.344C76.0841 22.728 76.5441 22.92 77.0961 22.92ZM83.4765 18.504V22.164C83.4765 22.412 83.5325 22.592 83.6445 22.704C83.7645 22.808 83.9645 22.86 84.2445 22.86H85.0845V24H84.0045C83.3885 24 82.9165 23.856 82.5885 23.568C82.2605 23.28 82.0965 22.812 82.0965 22.164V18.504H81.3165V17.388H82.0965V15.744H83.4765V17.388H85.0845V18.504H83.4765ZM92.4053 20.532C92.4053 20.78 92.3893 21.004 92.3573 21.204H87.3053C87.3453 21.732 87.5413 22.156 87.8933 22.476C88.2453 22.796 88.6773 22.956 89.1893 22.956C89.9253 22.956 90.4453 22.648 90.7493 22.032H92.2253C92.0253 22.64 91.6613 23.14 91.1333 23.532C90.6133 23.916 89.9653 24.108 89.1893 24.108C88.5573 24.108 87.9893 23.968 87.4853 23.688C86.9893 23.4 86.5973 23 86.3093 22.488C86.0293 21.968 85.8893 21.368 85.8893 20.688C85.8893 20.008 86.0253 19.412 86.2973 18.9C86.5773 18.38 86.9653 17.98 87.4613 17.7C87.9653 17.42 88.5413 17.28 89.1893 17.28C89.8133 17.28 90.3693 17.416 90.8573 17.688C91.3453 17.96 91.7253 18.344 91.9973 18.84C92.2693 19.328 92.4053 19.892 92.4053 20.532ZM90.9773 20.1C90.9693 19.596 90.7893 19.192 90.4373 18.888C90.0853 18.584 89.6493 18.432 89.1293 18.432C88.6573 18.432 88.2533 18.584 87.9173 18.888C87.5813 19.184 87.3813 19.588 87.3173 20.1H90.9773Z"></path>
<rect fill-opacity="0.1" fill="white" rx="15" height="30" width="30" y="5" x="300"></rect>
<rect stroke-width="2" stroke="white" rx="2" height="10" width="10" y="15" x="310"></rect>
</svg>
