<svg xmlns="http://www.w3.org/2000/svg" fill="none" viewBox="0 0 480 360" height="360" width="480">
<rect fill-opacity="0.1" fill="white" rx="15" height="30" width="95" y="320" x="160"></rect>
<path fill="white" d="M193.624 330.66C194.512 330.66 195.288 330.832 195.952 331.176C196.624 331.512 197.14 332 197.5 332.64C197.868 333.272 198.052 334.012 198.052 334.86C198.052 335.708 197.868 336.444 197.5 337.068C197.14 337.692 196.624 338.172 195.952 338.508C195.288 338.836 194.512 339 193.624 339H190.9V330.66H193.624ZM193.624 337.884C194.6 337.884 195.348 337.62 195.868 337.092C196.388 336.564 196.648 335.82 196.648 334.86C196.648 333.892 196.388 333.136 195.868 332.592C195.348 332.048 194.6 331.776 193.624 331.776H192.268V337.884H193.624ZM205.468 335.532C205.468 335.78 205.452 336.004 205.42 336.204H200.368C200.408 336.732 200.604 337.156 200.956 337.476C201.308 337.796 201.74 337.956 202.252 337.956C202.988 337.956 203.508 337.648 203.812 337.032H205.288C205.088 337.64 204.724 338.14 204.196 338.532C203.676 338.916 203.028 339.108 202.252 339.108C201.62 339.108 201.052 338.968 200.548 338.688C200.052 338.4 199.66 338 199.372 337.488C199.092 336.968 198.952 336.368 198.952 335.688C198.952 335.008 199.088 334.412 199.36 333.9C199.64 333.38 200.028 332.98 200.524 332.7C201.028 332.42 201.604 332.28 202.252 332.28C202.876 332.28 203.432 332.416 203.92 332.688C204.408 332.96 204.788 333.344 205.06 333.84C205.332 334.328 205.468 334.892 205.468 335.532ZM204.04 335.1C204.032 334.596 203.852 334.192 203.5 333.888C203.148 333.584 202.712 333.432 202.192 333.432C201.72 333.432 201.316 333.584 200.98 333.888C200.644 334.184 200.444 334.588 200.38 335.1H204.04ZM208.182 330.12V339H206.814V330.12H208.182ZM216.038 335.532C216.038 335.78 216.022 336.004 215.99 336.204H210.938C210.978 336.732 211.174 337.156 211.526 337.476C211.878 337.796 212.31 337.956 212.822 337.956C213.558 337.956 214.078 337.648 214.382 337.032H215.858C215.658 337.64 215.294 338.14 214.766 338.532C214.246 338.916 213.598 339.108 212.822 339.108C212.19 339.108 211.622 338.968 211.118 338.688C210.622 338.4 210.23 338 209.942 337.488C209.662 336.968 209.522 336.368 209.522 335.688C209.522 335.008 209.658 334.412 209.93 333.9C210.21 333.38 210.598 332.98 211.094 332.7C211.598 332.42 212.174 332.28 212.822 332.28C213.446 332.28 214.002 332.416 214.49 332.688C214.978 332.96 215.358 333.344 215.63 333.84C215.902 334.328 216.038 334.892 216.038 335.532ZM214.61 335.1C214.602 334.596 214.422 334.192 214.07 333.888C213.718 333.584 213.282 333.432 212.762 333.432C212.29 333.432 211.886 333.584 211.55 333.888C211.214 334.184 211.014 334.588 210.95 335.1H214.61ZM218.98 333.504V337.164C218.98 337.412 219.036 337.592 219.148 337.704C219.268 337.808 219.468 337.86 219.748 337.86H220.588V339H219.508C218.892 339 218.42 338.856 218.092 338.568C217.764 338.28 217.6 337.812 217.6 337.164V333.504H216.82V332.388H217.6V330.744H218.98V332.388H220.588V333.504H218.98ZM227.909 335.532C227.909 335.78 227.893 336.004 227.861 336.204H222.809C222.849 336.732 223.045 337.156 223.397 337.476C223.749 337.796 224.181 337.956 224.693 337.956C225.429 337.956 225.949 337.648 226.253 337.032H227.729C227.529 337.64 227.165 338.14 226.637 338.532C226.117 338.916 225.469 339.108 224.693 339.108C224.061 339.108 223.493 338.968 222.989 338.688C222.493 338.4 222.101 338 221.813 337.488C221.533 336.968 221.393 336.368 221.393 335.688C221.393 335.008 221.529 334.412 221.801 333.9C222.081 333.38 222.469 332.98 222.965 332.7C223.469 332.42 224.045 332.28 224.693 332.28C225.317 332.28 225.873 332.416 226.361 332.688C226.849 332.96 227.229 333.344 227.501 333.84C227.773 334.328 227.909 334.892 227.909 335.532ZM226.481 335.1C226.473 334.596 226.293 334.192 225.941 333.888C225.589 333.584 225.153 333.432 224.633 333.432C224.161 333.432 223.757 333.584 223.421 333.888C223.085 334.184 222.885 334.588 222.821 335.1H226.481Z"></path>
<path fill="white" d="M170.757 330.757C171.148 330.367 171.781 330.367 172.171 330.757L179.243 337.828C179.633 338.219 179.633 338.852 179.243 339.243V339.243C178.852 339.633 178.219 339.633 177.828 339.243L170.757 332.172C170.367 331.781 170.367 331.148 170.757 330.757V330.757Z"></path>
<path fill="white" d="M179.243 330.757C179.633 331.148 179.633 331.781 179.243 332.172L172.172 339.243C171.781 339.633 171.148 339.633 170.757 339.243V339.243C170.367 338.852 170.367 338.219 170.757 337.828L177.828 330.757C178.219 330.367 178.852 330.367 179.243 330.757V330.757Z"></path>
<g opacity="0.5">
<rect fill-opacity="0.1" fill="white" rx="15" height="30" width="95" y="320" x="265"></rect>
<path fill="white" d="M300.232 339L298.312 335.664H297.268V339H295.9V330.66H298.78C299.42 330.66 299.96 330.772 300.4 330.996C300.848 331.22 301.18 331.52 301.396 331.896C301.62 332.272 301.732 332.692 301.732 333.156C301.732 333.7 301.572 334.196 301.252 334.644C300.94 335.084 300.456 335.384 299.8 335.544L301.864 339H300.232ZM297.268 334.572H298.78C299.292 334.572 299.676 334.444 299.932 334.188C300.196 333.932 300.328 333.588 300.328 333.156C300.328 332.724 300.2 332.388 299.944 332.148C299.688 331.9 299.3 331.776 298.78 331.776H297.268V334.572ZM309.542 335.532C309.542 335.78 309.526 336.004 309.494 336.204H304.442C304.482 336.732 304.678 337.156 305.03 337.476C305.382 337.796 305.814 337.956 306.326 337.956C307.062 337.956 307.582 337.648 307.886 337.032H309.362C309.162 337.64 308.798 338.14 308.27 338.532C307.75 338.916 307.102 339.108 306.326 339.108C305.694 339.108 305.126 338.968 304.622 338.688C304.126 338.4 303.734 338 303.446 337.488C303.166 336.968 303.026 336.368 303.026 335.688C303.026 335.008 303.162 334.412 303.434 333.9C303.714 333.38 304.102 332.98 304.598 332.7C305.102 332.42 305.678 332.28 306.326 332.28C306.95 332.28 307.506 332.416 307.994 332.688C308.482 332.96 308.862 333.344 309.134 333.84C309.406 334.328 309.542 334.892 309.542 335.532ZM308.114 335.1C308.106 334.596 307.926 334.192 307.574 333.888C307.222 333.584 306.786 333.432 306.266 333.432C305.794 333.432 305.39 333.584 305.054 333.888C304.718 334.184 304.518 334.588 304.454 335.1H308.114ZM314.224 332.28C314.744 332.28 315.208 332.388 315.616 332.604C316.032 332.82 316.356 333.14 316.588 333.564C316.82 333.988 316.936 334.5 316.936 335.1V339H315.58V335.304C315.58 334.712 315.432 334.26 315.136 333.948C314.84 333.628 314.436 333.468 313.924 333.468C313.412 333.468 313.004 333.628 312.7 333.948C312.404 334.26 312.256 334.712 312.256 335.304V339H310.888V332.388H312.256V333.144C312.48 332.872 312.764 332.66 313.108 332.508C313.46 332.356 313.832 332.28 314.224 332.28ZM318.225 335.664C318.225 335 318.361 334.412 318.633 333.9C318.913 333.388 319.289 332.992 319.761 332.712C320.241 332.424 320.769 332.28 321.345 332.28C321.865 332.28 322.317 332.384 322.701 332.592C323.093 332.792 323.405 333.044 323.637 333.348V332.388H325.017V339H323.637V338.016C323.405 338.328 323.089 338.588 322.689 338.796C322.289 339.004 321.833 339.108 321.321 339.108C320.753 339.108 320.233 338.964 319.761 338.676C319.289 338.38 318.913 337.972 318.633 337.452C318.361 336.924 318.225 336.328 318.225 335.664ZM323.637 335.688C323.637 335.232 323.541 334.836 323.349 334.5C323.165 334.164 322.921 333.908 322.617 333.732C322.313 333.556 321.985 333.468 321.633 333.468C321.281 333.468 320.953 333.556 320.649 333.732C320.345 333.9 320.097 334.152 319.905 334.488C319.721 334.816 319.629 335.208 319.629 335.664C319.629 336.12 319.721 336.52 319.905 336.864C320.097 337.208 320.345 337.472 320.649 337.656C320.961 337.832 321.289 337.92 321.633 337.92C321.985 337.92 322.313 337.832 322.617 337.656C322.921 337.48 323.165 337.224 323.349 336.888C323.541 336.544 323.637 336.144 323.637 335.688ZM334.818 332.28C335.338 332.28 335.802 332.388 336.21 332.604C336.626 332.82 336.95 333.14 337.182 333.564C337.422 333.988 337.542 334.5 337.542 335.1V339H336.186V335.304C336.186 334.712 336.038 334.26 335.742 333.948C335.446 333.628 335.042 333.468 334.53 333.468C334.018 333.468 333.61 333.628 333.306 333.948C333.01 334.26 332.862 334.712 332.862 335.304V339H331.506V335.304C331.506 334.712 331.358 334.26 331.062 333.948C330.766 333.628 330.362 333.468 329.85 333.468C329.338 333.468 328.93 333.628 328.626 333.948C328.33 334.26 328.182 334.712 328.182 335.304V339H326.814V332.388H328.182V333.144C328.406 332.872 328.69 332.66 329.034 332.508C329.378 332.356 329.746 332.28 330.138 332.28C330.666 332.28 331.138 332.392 331.554 332.616C331.97 332.84 332.29 333.164 332.514 333.588C332.714 333.188 333.026 332.872 333.45 332.64C333.874 332.4 334.33 332.28 334.818 332.28ZM345.343 335.532C345.343 335.78 345.327 336.004 345.295 336.204H340.243C340.283 336.732 340.479 337.156 340.831 337.476C341.183 337.796 341.615 337.956 342.127 337.956C342.863 337.956 343.383 337.648 343.687 337.032H345.163C344.963 337.64 344.599 338.14 344.071 338.532C343.551 338.916 342.903 339.108 342.127 339.108C341.495 339.108 340.927 338.968 340.423 338.688C339.927 338.4 339.535 338 339.247 337.488C338.967 336.968 338.827 336.368 338.827 335.688C338.827 335.008 338.963 334.412 339.235 333.9C339.515 333.38 339.903 332.98 340.399 332.7C340.903 332.42 341.479 332.28 342.127 332.28C342.751 332.28 343.307 332.416 343.795 332.688C344.283 332.96 344.663 333.344 344.935 333.84C345.207 334.328 345.343 334.892 345.343 335.532ZM343.915 335.1C343.907 334.596 343.727 334.192 343.375 333.888C343.023 333.584 342.587 333.432 342.067 333.432C341.595 333.432 341.191 333.584 340.855 333.888C340.519 334.184 340.319 334.588 340.255 335.1H343.915Z"></path>
<path stroke-width="2" stroke="white" d="M276 332H284C284.552 332 285 332.448 285 333V337C285 337.552 284.552 338 284 338H276C275.448 338 275 337.552 275 337V333C275 332.448 275.448 332 276 332Z"></path>
<path fill="white" d="M281 329C281.552 329 282 329.448 282 330L282 340C282 340.552 281.552 341 281 341V341C280.448 341 280 340.552 280 340L280 330C280 329.448 280.448 329 281 329V329Z"></path>
</g>
<g opacity="0.5">
<rect fill-opacity="0.1" fill="white" rx="15" height="30" width="95" y="320" x="370"></rect>
<path fill="white" d="M404.704 339.084C403.928 339.084 403.212 338.904 402.556 338.544C401.908 338.176 401.392 337.668 401.008 337.02C400.632 336.364 400.444 335.628 400.444 334.812C400.444 333.996 400.632 333.264 401.008 332.616C401.392 331.968 401.908 331.464 402.556 331.104C403.212 330.736 403.928 330.552 404.704 330.552C405.488 330.552 406.204 330.736 406.852 331.104C407.508 331.464 408.024 331.968 408.4 332.616C408.776 333.264 408.964 333.996 408.964 334.812C408.964 335.628 408.776 336.364 408.4 337.02C408.024 337.668 407.508 338.176 406.852 338.544C406.204 338.904 405.488 339.084 404.704 339.084ZM404.704 337.896C405.256 337.896 405.748 337.772 406.18 337.524C406.612 337.268 406.948 336.908 407.188 336.444C407.436 335.972 407.56 335.428 407.56 334.812C407.56 334.196 407.436 333.656 407.188 333.192C406.948 332.728 406.612 332.372 406.18 332.124C405.748 331.876 405.256 331.752 404.704 331.752C404.152 331.752 403.66 331.876 403.228 332.124C402.796 332.372 402.456 332.728 402.208 333.192C401.968 333.656 401.848 334.196 401.848 334.812C401.848 335.428 401.968 335.972 402.208 336.444C402.456 336.908 402.796 337.268 403.228 337.524C403.66 337.772 404.152 337.896 404.704 337.896ZM411.678 333.36C411.91 333.056 412.226 332.8 412.626 332.592C413.026 332.384 413.478 332.28 413.982 332.28C414.558 332.28 415.082 332.424 415.554 332.712C416.034 332.992 416.41 333.388 416.682 333.9C416.954 334.412 417.09 335 417.09 335.664C417.09 336.328 416.954 336.924 416.682 337.452C416.41 337.972 416.034 338.38 415.554 338.676C415.082 338.964 414.558 339.108 413.982 339.108C413.478 339.108 413.03 339.008 412.638 338.808C412.246 338.6 411.926 338.344 411.678 338.04V342.144H410.31V332.388H411.678V333.36ZM415.698 335.664C415.698 335.208 415.602 334.816 415.41 334.488C415.226 334.152 414.978 333.9 414.666 333.732C414.362 333.556 414.034 333.468 413.682 333.468C413.338 333.468 413.01 333.556 412.698 333.732C412.394 333.908 412.146 334.164 411.954 334.5C411.77 334.836 411.678 335.232 411.678 335.688C411.678 336.144 411.77 336.544 411.954 336.888C412.146 337.224 412.394 337.48 412.698 337.656C413.01 337.832 413.338 337.92 413.682 337.92C414.034 337.92 414.362 337.832 414.666 337.656C414.978 337.472 415.226 337.208 415.41 336.864C415.602 336.52 415.698 336.12 415.698 335.664ZM424.503 335.532C424.503 335.78 424.487 336.004 424.455 336.204H419.403C419.443 336.732 419.639 337.156 419.991 337.476C420.343 337.796 420.775 337.956 421.287 337.956C422.023 337.956 422.543 337.648 422.847 337.032H424.323C424.123 337.64 423.759 338.14 423.231 338.532C422.711 338.916 422.063 339.108 421.287 339.108C420.655 339.108 420.087 338.968 419.583 338.688C419.087 338.4 418.695 338 418.407 337.488C418.127 336.968 417.987 336.368 417.987 335.688C417.987 335.008 418.123 334.412 418.395 333.9C418.675 333.38 419.063 332.98 419.559 332.7C420.063 332.42 420.639 332.28 421.287 332.28C421.911 332.28 422.467 332.416 422.955 332.688C423.443 332.96 423.823 333.344 424.095 333.84C424.367 334.328 424.503 334.892 424.503 335.532ZM423.075 335.1C423.067 334.596 422.887 334.192 422.535 333.888C422.183 333.584 421.747 333.432 421.227 333.432C420.755 333.432 420.351 333.584 420.015 333.888C419.679 334.184 419.479 334.588 419.415 335.1H423.075ZM429.185 332.28C429.705 332.28 430.169 332.388 430.577 332.604C430.993 332.82 431.317 333.14 431.549 333.564C431.781 333.988 431.897 334.5 431.897 335.1V339H430.541V335.304C430.541 334.712 430.393 334.26 430.097 333.948C429.801 333.628 429.397 333.468 428.885 333.468C428.373 333.468 427.965 333.628 427.661 333.948C427.365 334.26 427.217 334.712 427.217 335.304V339H425.849V332.388H427.217V333.144C427.441 332.872 427.725 332.66 428.069 332.508C428.421 332.356 428.793 332.28 429.185 332.28Z"></path>
<path fill="white" d="M379 332C379 330.343 380.343 329 382 329H384C385.105 329 386 329.895 386 331V331H388C389.657 331 391 332.343 391 334V338C391 339.657 389.657 341 388 341H382C380.343 341 379 339.657 379 338V332Z"></path>
<rect fill="#191919" rx="1" height="2" width="6" y="335" x="382"></rect>
<rect fill="#191919" transform="rotate(90 386 333)" rx="1" height="2" width="6" y="333" x="386"></rect>
</g>
</svg>
