<svg xmlns="http://www.w3.org/2000/svg" fill="none" viewBox="0 0 140 42" height="42" width="140">
<path fill="white" d="M9.684 16.66V25H8.316V19.288L5.772 25H4.824L2.268 19.288V25H0.9V16.66H2.376L5.304 23.2L8.22 16.66H9.684ZM17.47 18.388V25H16.102V24.22C15.886 24.492 15.602 24.708 15.25 24.868C14.906 25.02 14.538 25.096 14.146 25.096C13.626 25.096 13.158 24.988 12.742 24.772C12.334 24.556 12.01 24.236 11.77 23.812C11.538 23.388 11.422 22.876 11.422 22.276V18.388H12.778V22.072C12.778 22.664 12.926 23.12 13.222 23.44C13.518 23.752 13.922 23.908 14.434 23.908C14.946 23.908 15.35 23.752 15.646 23.44C15.95 23.12 16.102 22.664 16.102 22.072V18.388H17.47ZM21.675 25.108C21.155 25.108 20.687 25.016 20.271 24.832C19.863 24.64 19.539 24.384 19.299 24.064C19.059 23.736 18.931 23.372 18.915 22.972H20.331C20.355 23.252 20.487 23.488 20.727 23.68C20.975 23.864 21.283 23.956 21.651 23.956C22.035 23.956 22.331 23.884 22.539 23.74C22.755 23.588 22.863 23.396 22.863 23.164C22.863 22.916 22.743 22.732 22.503 22.612C22.271 22.492 21.899 22.36 21.387 22.216C20.891 22.08 20.487 21.948 20.175 21.82C19.863 21.692 19.591 21.496 19.359 21.232C19.135 20.968 19.023 20.62 19.023 20.188C19.023 19.836 19.127 19.516 19.335 19.228C19.543 18.932 19.839 18.7 20.223 18.532C20.615 18.364 21.063 18.28 21.567 18.28C22.319 18.28 22.923 18.472 23.379 18.856C23.843 19.232 24.091 19.748 24.123 20.404H22.755C22.731 20.108 22.611 19.872 22.395 19.696C22.179 19.52 21.887 19.432 21.519 19.432C21.159 19.432 20.883 19.5 20.691 19.636C20.499 19.772 20.403 19.952 20.403 20.176C20.403 20.352 20.467 20.5 20.595 20.62C20.723 20.74 20.879 20.836 21.063 20.908C21.247 20.972 21.519 21.056 21.879 21.16C22.359 21.288 22.751 21.42 23.055 21.556C23.367 21.684 23.635 21.876 23.859 22.132C24.083 22.388 24.199 22.728 24.207 23.152C24.207 23.528 24.103 23.864 23.895 24.16C23.687 24.456 23.391 24.688 23.007 24.856C22.631 25.024 22.187 25.108 21.675 25.108ZM26.3812 17.512C26.1332 17.512 25.9252 17.428 25.7572 17.26C25.5892 17.092 25.5052 16.884 25.5052 16.636C25.5052 16.388 25.5892 16.18 25.7572 16.012C25.9252 15.844 26.1332 15.76 26.3812 15.76C26.6212 15.76 26.8252 15.844 26.9932 16.012C27.1612 16.18 27.2452 16.388 27.2452 16.636C27.2452 16.884 27.1612 17.092 26.9932 17.26C26.8252 17.428 26.6212 17.512 26.3812 17.512ZM27.0532 18.388V25H25.6852V18.388H27.0532ZM28.3932 21.688C28.3932 21.008 28.5292 20.412 28.8012 19.9C29.0812 19.38 29.4652 18.98 29.9532 18.7C30.4412 18.42 31.0012 18.28 31.6332 18.28C32.4332 18.28 33.0932 18.472 33.6132 18.856C34.1412 19.232 34.4972 19.772 34.6812 20.476H33.2052C33.0852 20.148 32.8932 19.892 32.6292 19.708C32.3652 19.524 32.0332 19.432 31.6332 19.432C31.0732 19.432 30.6252 19.632 30.2892 20.032C29.9612 20.424 29.7972 20.976 29.7972 21.688C29.7972 22.4 29.9612 22.956 30.2892 23.356C30.6252 23.756 31.0732 23.956 31.6332 23.956C32.4252 23.956 32.9492 23.608 33.2052 22.912H34.6812C34.4892 23.584 34.1292 24.12 33.6012 24.52C33.0732 24.912 32.4172 25.108 31.6332 25.108C31.0012 25.108 30.4412 24.968 29.9532 24.688C29.4652 24.4 29.0812 24 28.8012 23.488C28.5292 22.968 28.3932 22.368 28.3932 21.688ZM43.6257 20.716C44.0737 20.796 44.4537 21.032 44.7657 21.424C45.0777 21.816 45.2337 22.26 45.2337 22.756C45.2337 23.18 45.1217 23.564 44.8977 23.908C44.6817 24.244 44.3657 24.512 43.9497 24.712C43.5337 24.904 43.0497 25 42.4977 25H39.1617V16.66H42.3417C42.9097 16.66 43.3977 16.756 43.8057 16.948C44.2137 17.14 44.5217 17.4 44.7297 17.728C44.9377 18.048 45.0417 18.408 45.0417 18.808C45.0417 19.288 44.9137 19.688 44.6577 20.008C44.4017 20.328 44.0577 20.564 43.6257 20.716ZM40.5297 20.164H42.2217C42.6697 20.164 43.0177 20.064 43.2657 19.864C43.5217 19.656 43.6497 19.36 43.6497 18.976C43.6497 18.6 43.5217 18.308 43.2657 18.1C43.0177 17.884 42.6697 17.776 42.2217 17.776H40.5297V20.164ZM42.3777 23.884C42.8417 23.884 43.2057 23.772 43.4697 23.548C43.7337 23.324 43.8657 23.012 43.8657 22.612C43.8657 22.204 43.7257 21.88 43.4457 21.64C43.1657 21.4 42.7937 21.28 42.3297 21.28H40.5297V23.884H42.3777ZM49.5883 25.108C48.9643 25.108 48.4003 24.968 47.8963 24.688C47.3923 24.4 46.9963 24 46.7083 23.488C46.4203 22.968 46.2763 22.368 46.2763 21.688C46.2763 21.016 46.4243 20.42 46.7203 19.9C47.0163 19.38 47.4203 18.98 47.9323 18.7C48.4443 18.42 49.0163 18.28 49.6483 18.28C50.2803 18.28 50.8523 18.42 51.3643 18.7C51.8763 18.98 52.2803 19.38 52.5763 19.9C52.8723 20.42 53.0203 21.016 53.0203 21.688C53.0203 22.36 52.8683 22.956 52.5643 23.476C52.2603 23.996 51.8443 24.4 51.3163 24.688C50.7963 24.968 50.2203 25.108 49.5883 25.108ZM49.5883 23.92C49.9403 23.92 50.2683 23.836 50.5723 23.668C50.8843 23.5 51.1363 23.248 51.3283 22.912C51.5203 22.576 51.6163 22.168 51.6163 21.688C51.6163 21.208 51.5243 20.804 51.3403 20.476C51.1563 20.14 50.9123 19.888 50.6083 19.72C50.3043 19.552 49.9763 19.468 49.6243 19.468C49.2723 19.468 48.9443 19.552 48.6403 19.72C48.3443 19.888 48.1083 20.14 47.9323 20.476C47.7563 20.804 47.6683 21.208 47.6683 21.688C47.6683 22.4 47.8483 22.952 48.2083 23.344C48.5763 23.728 49.0363 23.92 49.5883 23.92ZM57.2047 21.652L59.3407 25H57.7927L56.3647 22.756L55.0207 25H53.5927L55.7287 21.748L53.5927 18.388H55.1407L56.5687 20.632L57.9127 18.388H59.3407L57.2047 21.652Z"></path>
</svg>
