<svg xmlns="http://www.w3.org/2000/svg" fill="none" viewBox="0 0 480 360" height="360" width="480">
<path fill="black" d="M217.904 28.728H213.248L212.448 31H210.544L214.528 19.864H216.64L220.624 31H218.704L217.904 28.728ZM217.392 27.24L215.584 22.072L213.76 27.24H217.392ZM224.18 23.48C224.49 23.0747 224.911 22.7333 225.444 22.456C225.978 22.1787 226.58 22.04 227.252 22.04C228.02 22.04 228.719 22.232 229.348 22.616C229.988 22.9893 230.49 23.5173 230.852 24.2C231.215 24.8827 231.396 25.6667 231.396 26.552C231.396 27.4373 231.215 28.232 230.852 28.936C230.49 29.6293 229.988 30.1733 229.348 30.568C228.719 30.952 228.02 31.144 227.252 31.144C226.58 31.144 225.983 31.0107 225.46 30.744C224.938 30.4667 224.511 30.1253 224.18 29.72V35.192H222.356V22.184H224.18V23.48ZM229.54 26.552C229.54 25.944 229.412 25.4213 229.156 24.984C228.911 24.536 228.58 24.2 228.164 23.976C227.759 23.7413 227.322 23.624 226.852 23.624C226.394 23.624 225.956 23.7413 225.54 23.976C225.135 24.2107 224.804 24.552 224.548 25C224.303 25.448 224.18 25.976 224.18 26.584C224.18 27.192 224.303 27.7253 224.548 28.184C224.804 28.632 225.135 28.9733 225.54 29.208C225.956 29.4427 226.394 29.56 226.852 29.56C227.322 29.56 227.759 29.4427 228.164 29.208C228.58 28.9627 228.911 28.6107 229.156 28.152C229.412 27.6933 229.54 27.16 229.54 26.552ZM235.024 23.48C235.333 23.0747 235.755 22.7333 236.288 22.456C236.821 22.1787 237.424 22.04 238.096 22.04C238.864 22.04 239.563 22.232 240.192 22.616C240.832 22.9893 241.333 23.5173 241.696 24.2C242.059 24.8827 242.24 25.6667 242.24 26.552C242.24 27.4373 242.059 28.232 241.696 28.936C241.333 29.6293 240.832 30.1733 240.192 30.568C239.563 30.952 238.864 31.144 238.096 31.144C237.424 31.144 236.827 31.0107 236.304 30.744C235.781 30.4667 235.355 30.1253 235.024 29.72V35.192H233.2V22.184H235.024V23.48ZM240.384 26.552C240.384 25.944 240.256 25.4213 240 24.984C239.755 24.536 239.424 24.2 239.008 23.976C238.603 23.7413 238.165 23.624 237.696 23.624C237.237 23.624 236.8 23.7413 236.384 23.976C235.979 24.2107 235.648 24.552 235.392 25C235.147 25.448 235.024 25.976 235.024 26.584C235.024 27.192 235.147 27.7253 235.392 28.184C235.648 28.632 235.979 28.9733 236.384 29.208C236.8 29.4427 237.237 29.56 237.696 29.56C238.165 29.56 238.603 29.4427 239.008 29.208C239.424 28.9627 239.755 28.6107 240 28.152C240.256 27.6933 240.384 27.16 240.384 26.552ZM247.244 31.144C246.55 31.144 245.926 31.0213 245.372 30.776C244.828 30.52 244.396 30.1787 244.076 29.752C243.756 29.3147 243.585 28.8293 243.564 28.296H245.452C245.484 28.6693 245.66 28.984 245.98 29.24C246.31 29.4853 246.721 29.608 247.212 29.608C247.724 29.608 248.118 29.512 248.396 29.32C248.684 29.1173 248.828 28.8613 248.828 28.552C248.828 28.2213 248.668 27.976 248.348 27.816C248.038 27.656 247.542 27.48 246.86 27.288C246.198 27.1067 245.66 26.9307 245.244 26.76C244.828 26.5893 244.465 26.328 244.156 25.976C243.857 25.624 243.708 25.16 243.708 24.584C243.708 24.1147 243.846 23.688 244.124 23.304C244.401 22.9093 244.796 22.6 245.308 22.376C245.83 22.152 246.428 22.04 247.1 22.04C248.102 22.04 248.908 22.296 249.516 22.808C250.134 23.3093 250.465 23.9973 250.508 24.872H248.684C248.652 24.4773 248.492 24.1627 248.204 23.928C247.916 23.6933 247.526 23.576 247.036 23.576C246.556 23.576 246.188 23.6667 245.932 23.848C245.676 24.0293 245.548 24.2693 245.548 24.568C245.548 24.8027 245.633 25 245.804 25.16C245.974 25.32 246.182 25.448 246.428 25.544C246.673 25.6293 247.036 25.7413 247.516 25.88C248.156 26.0507 248.678 26.2267 249.084 26.408C249.5 26.5787 249.857 26.8347 250.156 27.176C250.454 27.5173 250.609 27.9707 250.62 28.536C250.62 29.0373 250.481 29.4853 250.204 29.88C249.926 30.2747 249.532 30.584 249.02 30.808C248.518 31.032 247.926 31.144 247.244 31.144ZM265.339 31L263.963 29.624C263.43 30.1573 262.848 30.5573 262.219 30.824C261.59 31.08 260.886 31.208 260.107 31.208C259.318 31.208 258.619 31.0693 258.011 30.792C257.403 30.5147 256.934 30.12 256.603 29.608C256.272 29.0853 256.107 28.4827 256.107 27.8C256.107 27.032 256.326 26.3493 256.763 25.752C257.2 25.144 257.851 24.664 258.715 24.312C258.406 23.9387 258.187 23.592 258.059 23.272C257.931 22.9413 257.867 22.5787 257.867 22.184C257.867 21.6933 257.99 21.256 258.235 20.872C258.491 20.488 258.854 20.184 259.323 19.96C259.792 19.736 260.336 19.624 260.955 19.624C261.584 19.624 262.118 19.7467 262.555 19.992C263.003 20.2267 263.334 20.552 263.547 20.968C263.771 21.384 263.862 21.848 263.819 22.36H261.995C262.006 21.9653 261.91 21.6613 261.707 21.448C261.504 21.224 261.227 21.112 260.875 21.112C260.523 21.112 260.235 21.2187 260.011 21.432C259.798 21.6347 259.691 21.8853 259.691 22.184C259.691 22.472 259.771 22.76 259.931 23.048C260.102 23.3253 260.395 23.688 260.811 24.136L263.755 27.064L264.891 25.192H266.859L265.419 27.656L265.019 28.312L267.723 31H265.339ZM260.107 29.656C261.11 29.656 261.995 29.2453 262.763 28.424L259.819 25.464C258.56 25.9653 257.931 26.7227 257.931 27.736C257.931 28.28 258.134 28.7387 258.539 29.112C258.944 29.4747 259.467 29.656 260.107 29.656ZM276.627 22.04C277.31 22.04 277.912 22.1787 278.435 22.456C278.968 22.7227 279.384 23.0587 279.683 23.464V22.184H281.523V31.144C281.523 31.9547 281.352 32.6747 281.011 33.304C280.67 33.944 280.174 34.4453 279.523 34.808C278.883 35.1707 278.115 35.352 277.219 35.352C276.024 35.352 275.032 35.0693 274.243 34.504C273.454 33.9493 273.006 33.192 272.899 32.232H274.707C274.846 32.6907 275.139 33.0587 275.587 33.336C276.046 33.624 276.59 33.768 277.219 33.768C277.955 33.768 278.547 33.544 278.995 33.096C279.454 32.648 279.683 31.9973 279.683 31.144V29.672C279.374 30.088 278.952 30.44 278.419 30.728C277.896 31.0053 277.299 31.144 276.627 31.144C275.859 31.144 275.155 30.952 274.515 30.568C273.886 30.1733 273.384 29.6293 273.011 28.936C272.648 28.232 272.467 27.4373 272.467 26.552C272.467 25.6667 272.648 24.8827 273.011 24.2C273.384 23.5173 273.886 22.9893 274.515 22.616C275.155 22.232 275.859 22.04 276.627 22.04ZM279.683 26.584C279.683 25.976 279.555 25.448 279.299 25C279.054 24.552 278.728 24.2107 278.323 23.976C277.918 23.7413 277.48 23.624 277.011 23.624C276.542 23.624 276.104 23.7413 275.699 23.976C275.294 24.2 274.963 24.536 274.707 24.984C274.462 25.4213 274.339 25.944 274.339 26.552C274.339 27.16 274.462 27.6933 274.707 28.152C274.963 28.6107 275.294 28.9627 275.699 29.208C276.115 29.4427 276.552 29.56 277.011 29.56C277.48 29.56 277.918 29.4427 278.323 29.208C278.728 28.9733 279.054 28.632 279.299 28.184C279.555 27.7253 279.683 27.192 279.683 26.584ZM283.311 26.552C283.311 25.6667 283.492 24.8827 283.855 24.2C284.228 23.5173 284.729 22.9893 285.359 22.616C285.999 22.232 286.703 22.04 287.471 22.04C288.164 22.04 288.767 22.1787 289.279 22.456C289.801 22.7227 290.217 23.0587 290.527 23.464V22.184H292.367V31H290.527V29.688C290.217 30.104 289.796 30.4507 289.263 30.728C288.729 31.0053 288.121 31.144 287.439 31.144C286.681 31.144 285.988 30.952 285.359 30.568C284.729 30.1733 284.228 29.6293 283.855 28.936C283.492 28.232 283.311 27.4373 283.311 26.552ZM290.527 26.584C290.527 25.976 290.399 25.448 290.143 25C289.897 24.552 289.572 24.2107 289.167 23.976C288.761 23.7413 288.324 23.624 287.855 23.624C287.385 23.624 286.948 23.7413 286.543 23.976C286.137 24.2 285.807 24.536 285.551 24.984C285.305 25.4213 285.183 25.944 285.183 26.552C285.183 27.16 285.305 27.6933 285.551 28.152C285.807 28.6107 286.137 28.9627 286.543 29.208C286.959 29.4427 287.396 29.56 287.855 29.56C288.324 29.56 288.761 29.4427 289.167 29.208C289.572 28.9733 289.897 28.632 290.143 28.184C290.399 27.7253 290.527 27.192 290.527 26.584ZM305.435 22.04C306.128 22.04 306.747 22.184 307.291 22.472C307.845 22.76 308.277 23.1867 308.587 23.752C308.907 24.3173 309.067 25 309.067 25.8V31H307.259V26.072C307.259 25.2827 307.061 24.68 306.667 24.264C306.272 23.8373 305.733 23.624 305.051 23.624C304.368 23.624 303.824 23.8373 303.419 24.264C303.024 24.68 302.827 25.2827 302.827 26.072V31H301.019V26.072C301.019 25.2827 300.821 24.68 300.427 24.264C300.032 23.8373 299.493 23.624 298.811 23.624C298.128 23.624 297.584 23.8373 297.179 24.264C296.784 24.68 296.587 25.2827 296.587 26.072V31H294.763V22.184H296.587V23.192C296.885 22.8293 297.264 22.5467 297.723 22.344C298.181 22.1413 298.672 22.04 299.195 22.04C299.899 22.04 300.528 22.1893 301.083 22.488C301.637 22.7867 302.064 23.2187 302.363 23.784C302.629 23.2507 303.045 22.8293 303.611 22.52C304.176 22.2 304.784 22.04 305.435 22.04ZM319.468 26.376C319.468 26.7067 319.446 27.0053 319.404 27.272H312.668C312.721 27.976 312.982 28.5413 313.452 28.968C313.921 29.3947 314.497 29.608 315.18 29.608C316.161 29.608 316.854 29.1973 317.26 28.376H319.227C318.961 29.1867 318.476 29.8533 317.772 30.376C317.078 30.888 316.214 31.144 315.18 31.144C314.337 31.144 313.58 30.9573 312.908 30.584C312.246 30.2 311.724 29.6667 311.34 28.984C310.966 28.2907 310.78 27.4907 310.78 26.584C310.78 25.6773 310.961 24.8827 311.324 24.2C311.697 23.5067 312.214 22.9733 312.876 22.6C313.548 22.2267 314.316 22.04 315.18 22.04C316.012 22.04 316.753 22.2213 317.404 22.584C318.054 22.9467 318.561 23.4587 318.924 24.12C319.286 24.7707 319.468 25.5227 319.468 26.376ZM317.564 25.8C317.553 25.128 317.313 24.5893 316.844 24.184C316.374 23.7787 315.793 23.576 315.1 23.576C314.47 23.576 313.932 23.7787 313.484 24.184C313.036 24.5787 312.769 25.1173 312.684 25.8H317.564ZM324.463 31.144C323.769 31.144 323.145 31.0213 322.591 30.776C322.047 30.52 321.615 30.1787 321.295 29.752C320.975 29.3147 320.804 28.8293 320.783 28.296H322.671C322.703 28.6693 322.879 28.984 323.199 29.24C323.529 29.4853 323.94 29.608 324.431 29.608C324.943 29.608 325.337 29.512 325.615 29.32C325.903 29.1173 326.047 28.8613 326.047 28.552C326.047 28.2213 325.887 27.976 325.567 27.816C325.257 27.656 324.761 27.48 324.079 27.288C323.417 27.1067 322.879 26.9307 322.463 26.76C322.047 26.5893 321.684 26.328 321.375 25.976C321.076 25.624 320.927 25.16 320.927 24.584C320.927 24.1147 321.065 23.688 321.343 23.304C321.62 22.9093 322.015 22.6 322.527 22.376C323.049 22.152 323.647 22.04 324.319 22.04C325.321 22.04 326.127 22.296 326.735 22.808C327.353 23.3093 327.684 23.9973 327.727 24.872H325.903C325.871 24.4773 325.711 24.1627 325.423 23.928C325.135 23.6933 324.745 23.576 324.255 23.576C323.775 23.576 323.407 23.6667 323.151 23.848C322.895 24.0293 322.767 24.2693 322.767 24.568C322.767 24.8027 322.852 25 323.023 25.16C323.193 25.32 323.401 25.448 323.647 25.544C323.892 25.6293 324.255 25.7413 324.735 25.88C325.375 26.0507 325.897 26.2267 326.303 26.408C326.719 26.5787 327.076 26.8347 327.375 27.176C327.673 27.5173 327.828 27.9707 327.839 28.536C327.839 29.0373 327.7 29.4853 327.423 29.88C327.145 30.2747 326.751 30.584 326.239 30.808C325.737 31.032 325.145 31.144 324.463 31.144Z"></path>
<rect fill="#E6E6E6" rx="15" height="80" width="80" y="50" x="160"></rect>
<rect stroke-width="4" stroke="black" rx="6" height="12" width="12" y="88" x="186"></rect>
<path fill="black" d="M196 84C196 80.6863 198.686 78 202 78V78C203.105 78 204 78.8954 204 80V80C204 81.1046 203.105 82 202 82V82C200.895 82 200 82.8954 200 84V94H196V84Z"></path>
<rect fill="black" height="18" width="8" y="80" x="208"></rect>
<path fill="black" d="M216 100L208 100L210.336 103.504C211.128 104.691 212.872 104.691 213.664 103.504L216 100Z"></path>
<path fill="black" d="M208 76C208 74.8954 208.895 74 210 74L214 74C215.105 74 216 74.8954 216 76L216 78L208 78L208 76Z"></path>
<path fill="black" d="M272.912 59.88V71H271.088V63.384L267.696 71H266.432L263.024 63.384V71H261.2V59.88H263.168L267.072 68.6L270.96 59.88H272.912ZM283.293 62.184V71H281.469V69.96C281.181 70.3227 280.803 70.6107 280.333 70.824C279.875 71.0267 279.384 71.128 278.861 71.128C278.168 71.128 277.544 70.984 276.989 70.696C276.445 70.408 276.013 69.9813 275.693 69.416C275.384 68.8507 275.229 68.168 275.229 67.368V62.184H277.037V67.096C277.037 67.8853 277.235 68.4933 277.629 68.92C278.024 69.336 278.563 69.544 279.245 69.544C279.928 69.544 280.467 69.336 280.861 68.92C281.267 68.4933 281.469 67.8853 281.469 67.096V62.184H283.293ZM288.9 71.144C288.207 71.144 287.583 71.0213 287.028 70.776C286.484 70.52 286.052 70.1787 285.732 69.752C285.412 69.3147 285.241 68.8293 285.22 68.296H287.108C287.14 68.6693 287.316 68.984 287.636 69.24C287.967 69.4853 288.377 69.608 288.868 69.608C289.38 69.608 289.775 69.512 290.052 69.32C290.34 69.1173 290.484 68.8613 290.484 68.552C290.484 68.2213 290.324 67.976 290.004 67.816C289.695 67.656 289.199 67.48 288.516 67.288C287.855 67.1067 287.316 66.9307 286.9 66.76C286.484 66.5893 286.121 66.328 285.812 65.976C285.513 65.624 285.364 65.16 285.364 64.584C285.364 64.1147 285.503 63.688 285.78 63.304C286.057 62.9093 286.452 62.6 286.964 62.376C287.487 62.152 288.084 62.04 288.756 62.04C289.759 62.04 290.564 62.296 291.172 62.808C291.791 63.3093 292.121 63.9973 292.164 64.872H290.34C290.308 64.4773 290.148 64.1627 289.86 63.928C289.572 63.6933 289.183 63.576 288.692 63.576C288.212 63.576 287.844 63.6667 287.588 63.848C287.332 64.0293 287.204 64.2693 287.204 64.568C287.204 64.8027 287.289 65 287.46 65.16C287.631 65.32 287.839 65.448 288.084 65.544C288.329 65.6293 288.692 65.7413 289.172 65.88C289.812 66.0507 290.335 66.2267 290.74 66.408C291.156 66.5787 291.513 66.8347 291.812 67.176C292.111 67.5173 292.265 67.9707 292.276 68.536C292.276 69.0373 292.137 69.4853 291.86 69.88C291.583 70.2747 291.188 70.584 290.676 70.808C290.175 71.032 289.583 71.144 288.9 71.144ZM295.175 61.016C294.844 61.016 294.567 60.904 294.343 60.68C294.119 60.456 294.007 60.1787 294.007 59.848C294.007 59.5173 294.119 59.24 294.343 59.016C294.567 58.792 294.844 58.68 295.175 58.68C295.495 58.68 295.767 58.792 295.991 59.016C296.215 59.24 296.327 59.5173 296.327 59.848C296.327 60.1787 296.215 60.456 295.991 60.68C295.767 60.904 295.495 61.016 295.175 61.016ZM296.071 62.184V71H294.247V62.184H296.071ZM297.858 66.584C297.858 65.6773 298.039 64.8827 298.402 64.2C298.775 63.5067 299.287 62.9733 299.938 62.6C300.588 62.2267 301.335 62.04 302.178 62.04C303.244 62.04 304.124 62.296 304.818 62.808C305.522 63.3093 305.996 64.0293 306.242 64.968H304.274C304.114 64.5307 303.858 64.1893 303.506 63.944C303.154 63.6987 302.711 63.576 302.178 63.576C301.431 63.576 300.834 63.8427 300.386 64.376C299.948 64.8987 299.73 65.6347 299.73 66.584C299.73 67.5333 299.948 68.2747 300.386 68.808C300.834 69.3413 301.431 69.608 302.178 69.608C303.234 69.608 303.932 69.144 304.274 68.216H306.242C305.986 69.112 305.506 69.8267 304.802 70.36C304.098 70.8827 303.223 71.144 302.178 71.144C301.335 71.144 300.588 70.9573 299.938 70.584C299.287 70.2 298.775 69.6667 298.402 68.984C298.039 68.2907 297.858 67.4907 297.858 66.584ZM323.928 59.88V71H322.104V63.384L318.712 71H317.448L314.04 63.384V71H312.216V59.88H314.184L318.088 68.6L321.976 59.88H323.928ZM325.717 66.552C325.717 65.6667 325.898 64.8827 326.261 64.2C326.634 63.5173 327.136 62.9893 327.765 62.616C328.405 62.232 329.109 62.04 329.877 62.04C330.57 62.04 331.173 62.1787 331.685 62.456C332.208 62.7227 332.624 63.0587 332.933 63.464V62.184H334.773V71H332.933V69.688C332.624 70.104 332.202 70.4507 331.669 70.728C331.136 71.0053 330.528 71.144 329.845 71.144C329.088 71.144 328.394 70.952 327.765 70.568C327.136 70.1733 326.634 69.6293 326.261 68.936C325.898 68.232 325.717 67.4373 325.717 66.552ZM332.933 66.584C332.933 65.976 332.805 65.448 332.549 65C332.304 64.552 331.978 64.2107 331.573 63.976C331.168 63.7413 330.73 63.624 330.261 63.624C329.792 63.624 329.354 63.7413 328.949 63.976C328.544 64.2 328.213 64.536 327.957 64.984C327.712 65.4213 327.589 65.944 327.589 66.552C327.589 67.16 327.712 67.6933 327.957 68.152C328.213 68.6107 328.544 68.9627 328.949 69.208C329.365 69.4427 329.802 69.56 330.261 69.56C330.73 69.56 331.168 69.4427 331.573 69.208C331.978 68.9733 332.304 68.632 332.549 68.184C332.805 67.7253 332.933 67.192 332.933 66.584ZM340.657 66.6L344.721 71H342.257L338.993 67.208V71H337.169V59.16H338.993V66.04L342.193 62.184H344.721L340.657 66.6ZM354.108 66.376C354.108 66.7067 354.087 67.0053 354.044 67.272H347.308C347.361 67.976 347.623 68.5413 348.092 68.968C348.561 69.3947 349.137 69.608 349.82 69.608C350.801 69.608 351.495 69.1973 351.9 68.376H353.868C353.601 69.1867 353.116 69.8533 352.412 70.376C351.719 70.888 350.855 71.144 349.82 71.144C348.977 71.144 348.22 70.9573 347.548 70.584C346.887 70.2 346.364 69.6667 345.98 68.984C345.607 68.2907 345.42 67.4907 345.42 66.584C345.42 65.6773 345.601 64.8827 345.964 64.2C346.337 63.5067 346.855 62.9733 347.516 62.6C348.188 62.2267 348.956 62.04 349.82 62.04C350.652 62.04 351.393 62.2213 352.044 62.584C352.695 62.9467 353.201 63.4587 353.564 64.12C353.927 64.7707 354.108 65.5227 354.108 66.376ZM352.204 65.8C352.193 65.128 351.953 64.5893 351.484 64.184C351.015 63.7787 350.433 63.576 349.74 63.576C349.111 63.576 348.572 63.7787 348.124 64.184C347.676 64.5787 347.409 65.1173 347.324 65.8H352.204ZM357.727 63.464C357.994 63.016 358.346 62.6693 358.783 62.424C359.231 62.168 359.759 62.04 360.367 62.04V63.928H359.903C359.188 63.928 358.644 64.1093 358.271 64.472C357.908 64.8347 357.727 65.464 357.727 66.36V71H355.903V62.184H357.727V63.464ZM368.68 67.752C368.296 67.752 367.944 67.6613 367.624 67.48C367.315 67.288 367.064 67.0373 366.872 66.728C366.691 66.408 366.6 66.056 366.6 65.672C366.6 65.0853 366.803 64.5893 367.208 64.184C367.613 63.7787 368.104 63.576 368.68 63.576C369.277 63.576 369.779 63.7787 370.184 64.184C370.589 64.5893 370.792 65.0853 370.792 65.672C370.792 66.2587 370.589 66.7547 370.184 67.16C369.779 67.5547 369.277 67.752 368.68 67.752ZM384.451 68.728H379.795L378.995 71H377.091L381.075 59.864H383.187L387.171 71H385.251L384.451 68.728ZM383.939 67.24L382.131 62.072L380.307 67.24H383.939ZM390.727 63.48C391.036 63.0747 391.458 62.7333 391.991 62.456C392.524 62.1787 393.127 62.04 393.799 62.04C394.567 62.04 395.266 62.232 395.895 62.616C396.535 62.9893 397.036 63.5173 397.399 64.2C397.762 64.8827 397.943 65.6667 397.943 66.552C397.943 67.4373 397.762 68.232 397.399 68.936C397.036 69.6293 396.535 70.1733 395.895 70.568C395.266 70.952 394.567 71.144 393.799 71.144C393.127 71.144 392.53 71.0107 392.007 70.744C391.484 70.4667 391.058 70.1253 390.727 69.72V75.192H388.903V62.184H390.727V63.48ZM396.087 66.552C396.087 65.944 395.959 65.4213 395.703 64.984C395.458 64.536 395.127 64.2 394.711 63.976C394.306 63.7413 393.868 63.624 393.399 63.624C392.94 63.624 392.503 63.7413 392.087 63.976C391.682 64.2107 391.351 64.552 391.095 65C390.85 65.448 390.727 65.976 390.727 66.584C390.727 67.192 390.85 67.7253 391.095 68.184C391.351 68.632 391.682 68.9733 392.087 69.208C392.503 69.4427 392.94 69.56 393.399 69.56C393.868 69.56 394.306 69.4427 394.711 69.208C395.127 68.9627 395.458 68.6107 395.703 68.152C395.959 67.6933 396.087 67.16 396.087 66.552ZM401.571 63.48C401.88 63.0747 402.302 62.7333 402.835 62.456C403.368 62.1787 403.971 62.04 404.643 62.04C405.411 62.04 406.11 62.232 406.739 62.616C407.379 62.9893 407.88 63.5173 408.243 64.2C408.606 64.8827 408.787 65.6667 408.787 66.552C408.787 67.4373 408.606 68.232 408.243 68.936C407.88 69.6293 407.379 70.1733 406.739 70.568C406.11 70.952 405.411 71.144 404.643 71.144C403.971 71.144 403.374 71.0107 402.851 70.744C402.328 70.4667 401.902 70.1253 401.571 69.72V75.192H399.747V62.184H401.571V63.48ZM406.931 66.552C406.931 65.944 406.803 65.4213 406.547 64.984C406.302 64.536 405.971 64.2 405.555 63.976C405.15 63.7413 404.712 63.624 404.243 63.624C403.784 63.624 403.347 63.7413 402.931 63.976C402.526 64.2107 402.195 64.552 401.939 65C401.694 65.448 401.571 65.976 401.571 66.584C401.571 67.192 401.694 67.7253 401.939 68.184C402.195 68.632 402.526 68.9733 402.931 69.208C403.347 69.4427 403.784 69.56 404.243 69.56C404.712 69.56 405.15 69.4427 405.555 69.208C405.971 68.9627 406.302 68.6107 406.547 68.152C406.803 67.6933 406.931 67.16 406.931 66.552Z"></path>
<path fill="black" d="M175.928 197.296H172.436L171.836 199H170.408L173.396 190.648H174.98L177.968 199H176.528L175.928 197.296ZM175.544 196.18L174.188 192.304L172.82 196.18H175.544ZM180.635 193.372C180.867 193.052 181.183 192.792 181.583 192.592C181.991 192.384 182.443 192.28 182.939 192.28C183.523 192.28 184.051 192.42 184.523 192.7C184.995 192.98 185.367 193.38 185.639 193.9C185.911 194.412 186.047 195 186.047 195.664C186.047 196.328 185.911 196.924 185.639 197.452C185.367 197.972 184.991 198.38 184.511 198.676C184.039 198.964 183.515 199.108 182.939 199.108C182.427 199.108 181.971 199.008 181.571 198.808C181.179 198.608 180.867 198.352 180.635 198.04V199H179.267V190.12H180.635V193.372ZM184.655 195.664C184.655 195.208 184.559 194.816 184.367 194.488C184.183 194.152 183.935 193.9 183.623 193.732C183.319 193.556 182.991 193.468 182.639 193.468C182.295 193.468 181.967 193.556 181.655 193.732C181.351 193.908 181.103 194.164 180.911 194.5C180.727 194.836 180.635 195.232 180.635 195.688C180.635 196.144 180.727 196.544 180.911 196.888C181.103 197.224 181.351 197.48 181.655 197.656C181.967 197.832 182.295 197.92 182.639 197.92C182.991 197.92 183.319 197.832 183.623 197.656C183.935 197.472 184.183 197.208 184.367 196.864C184.559 196.52 184.655 196.12 184.655 195.664ZM190.268 199.108C189.644 199.108 189.08 198.968 188.576 198.688C188.072 198.4 187.676 198 187.388 197.488C187.1 196.968 186.956 196.368 186.956 195.688C186.956 195.016 187.104 194.42 187.4 193.9C187.696 193.38 188.1 192.98 188.612 192.7C189.124 192.42 189.696 192.28 190.328 192.28C190.96 192.28 191.532 192.42 192.044 192.7C192.556 192.98 192.96 193.38 193.256 193.9C193.552 194.42 193.7 195.016 193.7 195.688C193.7 196.36 193.548 196.956 193.244 197.476C192.94 197.996 192.524 198.4 191.996 198.688C191.476 198.968 190.9 199.108 190.268 199.108ZM190.268 197.92C190.62 197.92 190.948 197.836 191.252 197.668C191.564 197.5 191.816 197.248 192.008 196.912C192.2 196.576 192.296 196.168 192.296 195.688C192.296 195.208 192.204 194.804 192.02 194.476C191.836 194.14 191.592 193.888 191.288 193.72C190.984 193.552 190.656 193.468 190.304 193.468C189.952 193.468 189.624 193.552 189.32 193.72C189.024 193.888 188.788 194.14 188.612 194.476C188.436 194.804 188.348 195.208 188.348 195.688C188.348 196.4 188.528 196.952 188.888 197.344C189.256 197.728 189.716 197.92 190.268 197.92ZM201.04 192.388V199H199.672V198.22C199.456 198.492 199.172 198.708 198.82 198.868C198.476 199.02 198.108 199.096 197.716 199.096C197.196 199.096 196.728 198.988 196.312 198.772C195.904 198.556 195.58 198.236 195.34 197.812C195.108 197.388 194.992 196.876 194.992 196.276V192.388H196.348V196.072C196.348 196.664 196.496 197.12 196.792 197.44C197.088 197.752 197.492 197.908 198.004 197.908C198.516 197.908 198.92 197.752 199.216 197.44C199.52 197.12 199.672 196.664 199.672 196.072V192.388H201.04ZM204.441 193.504V197.164C204.441 197.412 204.497 197.592 204.609 197.704C204.729 197.808 204.929 197.86 205.209 197.86H206.049V199H204.969C204.353 199 203.881 198.856 203.553 198.568C203.225 198.28 203.061 197.812 203.061 197.164V193.504H202.281V192.388H203.061V190.744H204.441V192.388H206.049V193.504H204.441ZM212.023 193.504V197.164C212.023 197.412 212.079 197.592 212.191 197.704C212.311 197.808 212.511 197.86 212.791 197.86H213.631V199H212.551C211.935 199 211.463 198.856 211.135 198.568C210.807 198.28 210.643 197.812 210.643 197.164V193.504H209.863V192.388H210.643V190.744H212.023V192.388H213.631V193.504H212.023ZM218.312 192.28C218.816 192.28 219.264 192.388 219.656 192.604C220.056 192.82 220.368 193.14 220.592 193.564C220.824 193.988 220.94 194.5 220.94 195.1V199H219.584V195.304C219.584 194.712 219.436 194.26 219.14 193.948C218.844 193.628 218.44 193.468 217.928 193.468C217.416 193.468 217.008 193.628 216.704 193.948C216.408 194.26 216.26 194.712 216.26 195.304V199H214.892V190.12H216.26V193.156C216.492 192.876 216.784 192.66 217.136 192.508C217.496 192.356 217.888 192.28 218.312 192.28ZM223.381 191.512C223.133 191.512 222.925 191.428 222.757 191.26C222.589 191.092 222.505 190.884 222.505 190.636C222.505 190.388 222.589 190.18 222.757 190.012C222.925 189.844 223.133 189.76 223.381 189.76C223.621 189.76 223.825 189.844 223.993 190.012C224.161 190.18 224.245 190.388 224.245 190.636C224.245 190.884 224.161 191.092 223.993 191.26C223.825 191.428 223.621 191.512 223.381 191.512ZM224.053 192.388V199H222.685V192.388H224.053ZM228.249 199.108C227.729 199.108 227.261 199.016 226.845 198.832C226.437 198.64 226.113 198.384 225.873 198.064C225.633 197.736 225.505 197.372 225.489 196.972H226.905C226.929 197.252 227.061 197.488 227.301 197.68C227.549 197.864 227.857 197.956 228.225 197.956C228.609 197.956 228.905 197.884 229.113 197.74C229.329 197.588 229.437 197.396 229.437 197.164C229.437 196.916 229.317 196.732 229.077 196.612C228.845 196.492 228.473 196.36 227.961 196.216C227.465 196.08 227.061 195.948 226.749 195.82C226.437 195.692 226.165 195.496 225.933 195.232C225.709 194.968 225.597 194.62 225.597 194.188C225.597 193.836 225.701 193.516 225.909 193.228C226.117 192.932 226.413 192.7 226.797 192.532C227.189 192.364 227.637 192.28 228.141 192.28C228.893 192.28 229.497 192.472 229.953 192.856C230.417 193.232 230.665 193.748 230.697 194.404H229.329C229.305 194.108 229.185 193.872 228.969 193.696C228.753 193.52 228.461 193.432 228.093 193.432C227.733 193.432 227.457 193.5 227.265 193.636C227.073 193.772 226.977 193.952 226.977 194.176C226.977 194.352 227.041 194.5 227.169 194.62C227.297 194.74 227.453 194.836 227.637 194.908C227.821 194.972 228.093 195.056 228.453 195.16C228.933 195.288 229.325 195.42 229.629 195.556C229.941 195.684 230.209 195.876 230.433 196.132C230.657 196.388 230.773 196.728 230.781 197.152C230.781 197.528 230.677 197.864 230.469 198.16C230.261 198.456 229.965 198.688 229.581 198.856C229.205 199.024 228.761 199.108 228.249 199.108ZM234.921 195.664C234.921 195 235.057 194.412 235.329 193.9C235.609 193.388 235.985 192.992 236.457 192.712C236.937 192.424 237.465 192.28 238.041 192.28C238.561 192.28 239.013 192.384 239.397 192.592C239.789 192.792 240.101 193.044 240.333 193.348V192.388H241.713V199H240.333V198.016C240.101 198.328 239.785 198.588 239.385 198.796C238.985 199.004 238.529 199.108 238.017 199.108C237.449 199.108 236.929 198.964 236.457 198.676C235.985 198.38 235.609 197.972 235.329 197.452C235.057 196.924 234.921 196.328 234.921 195.664ZM240.333 195.688C240.333 195.232 240.237 194.836 240.045 194.5C239.861 194.164 239.617 193.908 239.313 193.732C239.009 193.556 238.681 193.468 238.329 193.468C237.977 193.468 237.649 193.556 237.345 193.732C237.041 193.9 236.793 194.152 236.601 194.488C236.417 194.816 236.325 195.208 236.325 195.664C236.325 196.12 236.417 196.52 236.601 196.864C236.793 197.208 237.041 197.472 237.345 197.656C237.657 197.832 237.985 197.92 238.329 197.92C238.681 197.92 239.009 197.832 239.313 197.656C239.617 197.48 239.861 197.224 240.045 196.888C240.237 196.544 240.333 196.144 240.333 195.688ZM244.877 193.36C245.109 193.056 245.425 192.8 245.825 192.592C246.225 192.384 246.677 192.28 247.181 192.28C247.757 192.28 248.281 192.424 248.753 192.712C249.233 192.992 249.609 193.388 249.881 193.9C250.153 194.412 250.289 195 250.289 195.664C250.289 196.328 250.153 196.924 249.881 197.452C249.609 197.972 249.233 198.38 248.753 198.676C248.281 198.964 247.757 199.108 247.181 199.108C246.677 199.108 246.229 199.008 245.837 198.808C245.445 198.6 245.125 198.344 244.877 198.04V202.144H243.509V192.388H244.877V193.36ZM248.897 195.664C248.897 195.208 248.801 194.816 248.609 194.488C248.425 194.152 248.177 193.9 247.865 193.732C247.561 193.556 247.233 193.468 246.881 193.468C246.537 193.468 246.209 193.556 245.897 193.732C245.593 193.908 245.345 194.164 245.153 194.5C244.969 194.836 244.877 195.232 244.877 195.688C244.877 196.144 244.969 196.544 245.153 196.888C245.345 197.224 245.593 197.48 245.897 197.656C246.209 197.832 246.537 197.92 246.881 197.92C247.233 197.92 247.561 197.832 247.865 197.656C248.177 197.472 248.425 197.208 248.609 196.864C248.801 196.52 248.897 196.12 248.897 195.664ZM253.01 193.36C253.242 193.056 253.558 192.8 253.958 192.592C254.358 192.384 254.81 192.28 255.314 192.28C255.89 192.28 256.414 192.424 256.886 192.712C257.366 192.992 257.742 193.388 258.014 193.9C258.286 194.412 258.422 195 258.422 195.664C258.422 196.328 258.286 196.924 258.014 197.452C257.742 197.972 257.366 198.38 256.886 198.676C256.414 198.964 255.89 199.108 255.314 199.108C254.81 199.108 254.362 199.008 253.97 198.808C253.578 198.6 253.258 198.344 253.01 198.04V202.144H251.642V192.388H253.01V193.36ZM257.03 195.664C257.03 195.208 256.934 194.816 256.742 194.488C256.558 194.152 256.31 193.9 255.998 193.732C255.694 193.556 255.366 193.468 255.014 193.468C254.67 193.468 254.342 193.556 254.03 193.732C253.726 193.908 253.478 194.164 253.286 194.5C253.102 194.836 253.01 195.232 253.01 195.688C253.01 196.144 253.102 196.544 253.286 196.888C253.478 197.224 253.726 197.48 254.03 197.656C254.342 197.832 254.67 197.92 255.014 197.92C255.366 197.92 255.694 197.832 255.998 197.656C256.31 197.472 256.558 197.208 256.742 196.864C256.934 196.52 257.03 196.12 257.03 195.664Z"></path>
<path fill="#808080" d="M264.54 89.05V94.06C264.54 94.68 264.35 95.17 263.97 95.53C263.597 95.89 263.103 96.07 262.49 96.07C261.877 96.07 261.38 95.89 261 95.53C260.627 95.17 260.44 94.68 260.44 94.06H261.59C261.597 94.3667 261.673 94.61 261.82 94.79C261.973 94.97 262.197 95.06 262.49 95.06C262.783 95.06 263.007 94.97 263.16 94.79C263.313 94.6033 263.39 94.36 263.39 94.06V89.05H264.54ZM267.535 88.6V96H266.395V88.6H267.535ZM271.421 96.09C270.901 96.09 270.431 95.9733 270.011 95.74C269.591 95.5 269.261 95.1667 269.021 94.74C268.781 94.3067 268.661 93.8067 268.661 93.24C268.661 92.68 268.785 92.1833 269.031 91.75C269.278 91.3167 269.615 90.9833 270.041 90.75C270.468 90.5167 270.945 90.4 271.471 90.4C271.998 90.4 272.475 90.5167 272.901 90.75C273.328 90.9833 273.665 91.3167 273.911 91.75C274.158 92.1833 274.281 92.68 274.281 93.24C274.281 93.8 274.155 94.2967 273.901 94.73C273.648 95.1633 273.301 95.5 272.861 95.74C272.428 95.9733 271.948 96.09 271.421 96.09ZM271.421 95.1C271.715 95.1 271.988 95.03 272.241 94.89C272.501 94.75 272.711 94.54 272.871 94.26C273.031 93.98 273.111 93.64 273.111 93.24C273.111 92.84 273.035 92.5033 272.881 92.23C272.728 91.95 272.525 91.74 272.271 91.6C272.018 91.46 271.745 91.39 271.451 91.39C271.158 91.39 270.885 91.46 270.631 91.6C270.385 91.74 270.188 91.95 270.041 92.23C269.895 92.5033 269.821 92.84 269.821 93.24C269.821 93.8333 269.971 94.2933 270.271 94.62C270.578 94.94 270.961 95.1 271.421 95.1ZM279.598 94.58H276.688L276.188 96H274.998L277.488 89.04H278.808L281.298 96H280.098L279.598 94.58ZM279.278 93.65L278.148 90.42L277.008 93.65H279.278ZM287.371 90.49V96H286.231V95.35C286.051 95.5767 285.814 95.7567 285.521 95.89C285.234 96.0167 284.928 96.08 284.601 96.08C284.168 96.08 283.778 95.99 283.431 95.81C283.091 95.63 282.821 95.3633 282.621 95.01C282.428 94.6567 282.331 94.23 282.331 93.73V90.49H283.461V93.56C283.461 94.0533 283.584 94.4333 283.831 94.7C284.078 94.96 284.414 95.09 284.841 95.09C285.268 95.09 285.604 94.96 285.851 94.7C286.104 94.4333 286.231 94.0533 286.231 93.56V90.49H287.371Z"></path>
<path fill="black" d="M263.04 121.07C262.573 121.07 262.153 120.99 261.78 120.83C261.407 120.663 261.113 120.43 260.9 120.13C260.687 119.83 260.58 119.48 260.58 119.08H261.8C261.827 119.38 261.943 119.627 262.15 119.82C262.363 120.013 262.66 120.11 263.04 120.11C263.433 120.11 263.74 120.017 263.96 119.83C264.18 119.637 264.29 119.39 264.29 119.09C264.29 118.857 264.22 118.667 264.08 118.52C263.947 118.373 263.777 118.26 263.57 118.18C263.37 118.1 263.09 118.013 262.73 117.92C262.277 117.8 261.907 117.68 261.62 117.56C261.34 117.433 261.1 117.24 260.9 116.98C260.7 116.72 260.6 116.373 260.6 115.94C260.6 115.54 260.7 115.19 260.9 114.89C261.1 114.59 261.38 114.36 261.74 114.2C262.1 114.04 262.517 113.96 262.99 113.96C263.663 113.96 264.213 114.13 264.64 114.47C265.073 114.803 265.313 115.263 265.36 115.85H264.1C264.08 115.597 263.96 115.38 263.74 115.2C263.52 115.02 263.23 114.93 262.87 114.93C262.543 114.93 262.277 115.013 262.07 115.18C261.863 115.347 261.76 115.587 261.76 115.9C261.76 116.113 261.823 116.29 261.95 116.43C262.083 116.563 262.25 116.67 262.45 116.75C262.65 116.83 262.923 116.917 263.27 117.01C263.73 117.137 264.103 117.263 264.39 117.39C264.683 117.517 264.93 117.713 265.13 117.98C265.337 118.24 265.44 118.59 265.44 119.03C265.44 119.383 265.343 119.717 265.15 120.03C264.963 120.343 264.687 120.597 264.32 120.79C263.96 120.977 263.533 121.07 263.04 121.07ZM267.365 114.76C267.158 114.76 266.985 114.69 266.845 114.55C266.705 114.41 266.635 114.237 266.635 114.03C266.635 113.823 266.705 113.65 266.845 113.51C266.985 113.37 267.158 113.3 267.365 113.3C267.565 113.3 267.735 113.37 267.875 113.51C268.015 113.65 268.085 113.823 268.085 114.03C268.085 114.237 268.015 114.41 267.875 114.55C267.735 114.69 267.565 114.76 267.365 114.76ZM267.925 115.49V121H266.785V115.49H267.925ZM270.432 120.07H272.932V121H269.112V120.07L271.622 116.42H269.112V115.49H272.932V116.42L270.432 120.07ZM279.179 118.11C279.179 118.317 279.166 118.503 279.139 118.67H274.929C274.962 119.11 275.126 119.463 275.419 119.73C275.712 119.997 276.072 120.13 276.499 120.13C277.112 120.13 277.546 119.873 277.799 119.36H279.029C278.862 119.867 278.559 120.283 278.119 120.61C277.686 120.93 277.146 121.09 276.499 121.09C275.972 121.09 275.499 120.973 275.079 120.74C274.666 120.5 274.339 120.167 274.099 119.74C273.866 119.307 273.749 118.807 273.749 118.24C273.749 117.673 273.862 117.177 274.089 116.75C274.322 116.317 274.646 115.983 275.059 115.75C275.479 115.517 275.959 115.4 276.499 115.4C277.019 115.4 277.482 115.513 277.889 115.74C278.296 115.967 278.612 116.287 278.839 116.7C279.066 117.107 279.179 117.577 279.179 118.11ZM277.989 117.75C277.982 117.33 277.832 116.993 277.539 116.74C277.246 116.487 276.882 116.36 276.449 116.36C276.056 116.36 275.719 116.487 275.439 116.74C275.159 116.987 274.992 117.323 274.939 117.75H277.989ZM280.761 121.07C280.554 121.07 280.381 121 280.241 120.86C280.101 120.72 280.031 120.547 280.031 120.34C280.031 120.133 280.101 119.96 280.241 119.82C280.381 119.68 280.554 119.61 280.761 119.61C280.961 119.61 281.131 119.68 281.271 119.82C281.411 119.96 281.481 120.133 281.481 120.34C281.481 120.547 281.411 120.72 281.271 120.86C281.131 121 280.961 121.07 280.761 121.07ZM280.761 116.87C280.554 116.87 280.381 116.8 280.241 116.66C280.101 116.52 280.031 116.347 280.031 116.14C280.031 115.933 280.101 115.76 280.241 115.62C280.381 115.48 280.554 115.41 280.761 115.41C280.961 115.41 281.131 115.48 281.271 115.62C281.411 115.76 281.481 115.933 281.481 116.14C281.481 116.347 281.411 116.52 281.271 116.66C281.131 116.8 280.961 116.87 280.761 116.87Z"></path>
<rect fill-opacity="0.1" fill="black" transform="rotate(90 200 10)" rx="15" height="30" width="30" y="10" x="200"></rect>
<rect fill="black" transform="rotate(90 191 24)" rx="1" height="12" width="2" y="24" x="191"></rect>
<rect fill="black" transform="rotate(45 184 19.3433)" rx="1" height="8" width="2" y="19.3433" x="184"></rect>
<rect fill="black" transform="rotate(135 185.414 29.2427)" rx="1" height="8" width="2" y="29.2427" x="185.414"></rect>
<rect fill-opacity="0.1" fill="black" rx="15" height="140" width="180" y="210" x="160"></rect>
<path fill="black" d="M350.37 217.51C350.37 216.83 350.527 216.22 350.84 215.68C351.16 215.14 351.59 214.72 352.13 214.42C352.677 214.113 353.273 213.96 353.92 213.96C354.66 213.96 355.317 214.143 355.89 214.51C356.47 214.87 356.89 215.383 357.15 216.05H355.78C355.6 215.683 355.35 215.41 355.03 215.23C354.71 215.05 354.34 214.96 353.92 214.96C353.46 214.96 353.05 215.063 352.69 215.27C352.33 215.477 352.047 215.773 351.84 216.16C351.64 216.547 351.54 216.997 351.54 217.51C351.54 218.023 351.64 218.473 351.84 218.86C352.047 219.247 352.33 219.547 352.69 219.76C353.05 219.967 353.46 220.07 353.92 220.07C354.34 220.07 354.71 219.98 355.03 219.8C355.35 219.62 355.6 219.347 355.78 218.98H357.15C356.89 219.647 356.47 220.16 355.89 220.52C355.317 220.88 354.66 221.06 353.92 221.06C353.267 221.06 352.67 220.91 352.13 220.61C351.59 220.303 351.16 219.88 350.84 219.34C350.527 218.8 350.37 218.19 350.37 217.51ZM359.624 216.29C359.791 216.01 360.011 215.793 360.284 215.64C360.564 215.48 360.894 215.4 361.274 215.4V216.58H360.984C360.538 216.58 360.198 216.693 359.964 216.92C359.738 217.147 359.624 217.54 359.624 218.1V221H358.484V215.49H359.624V216.29ZM367.372 218.11C367.372 218.317 367.359 218.503 367.332 218.67H363.122C363.156 219.11 363.319 219.463 363.612 219.73C363.906 219.997 364.266 220.13 364.692 220.13C365.306 220.13 365.739 219.873 365.992 219.36H367.222C367.056 219.867 366.752 220.283 366.312 220.61C365.879 220.93 365.339 221.09 364.692 221.09C364.166 221.09 363.692 220.973 363.272 220.74C362.859 220.5 362.532 220.167 362.292 219.74C362.059 219.307 361.942 218.807 361.942 218.24C361.942 217.673 362.056 217.177 362.282 216.75C362.516 216.317 362.839 215.983 363.252 215.75C363.672 215.517 364.152 215.4 364.692 215.4C365.212 215.4 365.676 215.513 366.082 215.74C366.489 215.967 366.806 216.287 367.032 216.7C367.259 217.107 367.372 217.577 367.372 218.11ZM366.182 217.75C366.176 217.33 366.026 216.993 365.732 216.74C365.439 216.487 365.076 216.36 364.642 216.36C364.249 216.36 363.912 216.487 363.632 216.74C363.352 216.987 363.186 217.323 363.132 217.75H366.182ZM368.114 218.22C368.114 217.667 368.227 217.177 368.454 216.75C368.687 216.323 369.001 215.993 369.394 215.76C369.794 215.52 370.234 215.4 370.714 215.4C371.147 215.4 371.524 215.487 371.844 215.66C372.171 215.827 372.431 216.037 372.624 216.29V215.49H373.774V221H372.624V220.18C372.431 220.44 372.167 220.657 371.834 220.83C371.501 221.003 371.121 221.09 370.694 221.09C370.221 221.09 369.787 220.97 369.394 220.73C369.001 220.483 368.687 220.143 368.454 219.71C368.227 219.27 368.114 218.773 368.114 218.22ZM372.624 218.24C372.624 217.86 372.544 217.53 372.384 217.25C372.231 216.97 372.027 216.757 371.774 216.61C371.521 216.463 371.247 216.39 370.954 216.39C370.661 216.39 370.387 216.463 370.134 216.61C369.881 216.75 369.674 216.96 369.514 217.24C369.361 217.513 369.284 217.84 369.284 218.22C369.284 218.6 369.361 218.933 369.514 219.22C369.674 219.507 369.881 219.727 370.134 219.88C370.394 220.027 370.667 220.1 370.954 220.1C371.247 220.1 371.521 220.027 371.774 219.88C372.027 219.733 372.231 219.52 372.384 219.24C372.544 218.953 372.624 218.62 372.624 218.24ZM376.601 216.42V219.47C376.601 219.677 376.648 219.827 376.741 219.92C376.841 220.007 377.008 220.05 377.241 220.05H377.941V221H377.041C376.528 221 376.135 220.88 375.861 220.64C375.588 220.4 375.451 220.01 375.451 219.47V216.42H374.801V215.49H375.451V214.12H376.601V215.49H377.941V216.42H376.601ZM384.042 218.11C384.042 218.317 384.029 218.503 384.002 218.67H379.792C379.826 219.11 379.989 219.463 380.282 219.73C380.576 219.997 380.936 220.13 381.362 220.13C381.976 220.13 382.409 219.873 382.662 219.36H383.892C383.726 219.867 383.422 220.283 382.982 220.61C382.549 220.93 382.009 221.09 381.362 221.09C380.836 221.09 380.362 220.973 379.942 220.74C379.529 220.5 379.202 220.167 378.962 219.74C378.729 219.307 378.612 218.807 378.612 218.24C378.612 217.673 378.726 217.177 378.952 216.75C379.186 216.317 379.509 215.983 379.922 215.75C380.342 215.517 380.822 215.4 381.362 215.4C381.882 215.4 382.346 215.513 382.752 215.74C383.159 215.967 383.476 216.287 383.702 216.7C383.929 217.107 384.042 217.577 384.042 218.11ZM382.852 217.75C382.846 217.33 382.696 216.993 382.402 216.74C382.109 216.487 381.746 216.36 381.312 216.36C380.919 216.36 380.582 216.487 380.302 216.74C380.022 216.987 379.856 217.323 379.802 217.75H382.852ZM392.722 215.49L389.342 223.59H388.162L389.282 220.91L387.112 215.49H388.382L389.932 219.69L391.542 215.49H392.722ZM395.972 221.09C395.452 221.09 394.982 220.973 394.562 220.74C394.142 220.5 393.812 220.167 393.572 219.74C393.332 219.307 393.212 218.807 393.212 218.24C393.212 217.68 393.335 217.183 393.582 216.75C393.829 216.317 394.165 215.983 394.592 215.75C395.019 215.517 395.495 215.4 396.022 215.4C396.549 215.4 397.025 215.517 397.452 215.75C397.879 215.983 398.215 216.317 398.462 216.75C398.709 217.183 398.832 217.68 398.832 218.24C398.832 218.8 398.705 219.297 398.452 219.73C398.199 220.163 397.852 220.5 397.412 220.74C396.979 220.973 396.499 221.09 395.972 221.09ZM395.972 220.1C396.265 220.1 396.539 220.03 396.792 219.89C397.052 219.75 397.262 219.54 397.422 219.26C397.582 218.98 397.662 218.64 397.662 218.24C397.662 217.84 397.585 217.503 397.432 217.23C397.279 216.95 397.075 216.74 396.822 216.6C396.569 216.46 396.295 216.39 396.002 216.39C395.709 216.39 395.435 216.46 395.182 216.6C394.935 216.74 394.739 216.95 394.592 217.23C394.445 217.503 394.372 217.84 394.372 218.24C394.372 218.833 394.522 219.293 394.822 219.62C395.129 219.94 395.512 220.1 395.972 220.1ZM404.949 215.49V221H403.809V220.35C403.629 220.577 403.392 220.757 403.099 220.89C402.812 221.017 402.506 221.08 402.179 221.08C401.746 221.08 401.356 220.99 401.009 220.81C400.669 220.63 400.399 220.363 400.199 220.01C400.006 219.657 399.909 219.23 399.909 218.73V215.49H401.039V218.56C401.039 219.053 401.162 219.433 401.409 219.7C401.656 219.96 401.992 220.09 402.419 220.09C402.846 220.09 403.182 219.96 403.429 219.7C403.682 219.433 403.809 219.053 403.809 218.56V215.49H404.949ZM411.441 221.09C410.921 221.09 410.451 220.973 410.031 220.74C409.611 220.5 409.281 220.167 409.041 219.74C408.801 219.307 408.681 218.807 408.681 218.24C408.681 217.68 408.804 217.183 409.051 216.75C409.297 216.317 409.634 215.983 410.061 215.75C410.487 215.517 410.964 215.4 411.491 215.4C412.017 215.4 412.494 215.517 412.921 215.75C413.347 215.983 413.684 216.317 413.931 216.75C414.177 217.183 414.301 217.68 414.301 218.24C414.301 218.8 414.174 219.297 413.921 219.73C413.667 220.163 413.321 220.5 412.881 220.74C412.447 220.973 411.967 221.09 411.441 221.09ZM411.441 220.1C411.734 220.1 412.007 220.03 412.261 219.89C412.521 219.75 412.731 219.54 412.891 219.26C413.051 218.98 413.131 218.64 413.131 218.24C413.131 217.84 413.054 217.503 412.901 217.23C412.747 216.95 412.544 216.74 412.291 216.6C412.037 216.46 411.764 216.39 411.471 216.39C411.177 216.39 410.904 216.46 410.651 216.6C410.404 216.74 410.207 216.95 410.061 217.23C409.914 217.503 409.841 217.84 409.841 218.24C409.841 218.833 409.991 219.293 410.291 219.62C410.597 219.94 410.981 220.1 411.441 220.1ZM422.828 215.49L421.118 221H419.918L418.808 216.93L417.698 221H416.498L414.778 215.49H415.938L417.088 219.92L418.258 215.49H419.448L420.568 219.9L421.708 215.49H422.828ZM426.46 215.4C426.893 215.4 427.28 215.49 427.62 215.67C427.966 215.85 428.236 216.117 428.43 216.47C428.623 216.823 428.72 217.25 428.72 217.75V221H427.59V217.92C427.59 217.427 427.466 217.05 427.22 216.79C426.973 216.523 426.636 216.39 426.21 216.39C425.783 216.39 425.443 216.523 425.19 216.79C424.943 217.05 424.82 217.427 424.82 217.92V221H423.68V215.49H424.82V216.12C425.006 215.893 425.243 215.717 425.53 215.59C425.823 215.463 426.133 215.4 426.46 215.4ZM439.441 215.4C439.875 215.4 440.261 215.49 440.601 215.67C440.948 215.85 441.218 216.117 441.411 216.47C441.611 216.823 441.711 217.25 441.711 217.75V221H440.581V217.92C440.581 217.427 440.458 217.05 440.211 216.79C439.965 216.523 439.628 216.39 439.201 216.39C438.775 216.39 438.435 216.523 438.181 216.79C437.935 217.05 437.811 217.427 437.811 217.92V221H436.681V217.92C436.681 217.427 436.558 217.05 436.311 216.79C436.065 216.523 435.728 216.39 435.301 216.39C434.875 216.39 434.535 216.523 434.281 216.79C434.035 217.05 433.911 217.427 433.911 217.92V221H432.771V215.49H433.911V216.12C434.098 215.893 434.335 215.717 434.621 215.59C434.908 215.463 435.215 215.4 435.541 215.4C435.981 215.4 436.375 215.493 436.721 215.68C437.068 215.867 437.335 216.137 437.521 216.49C437.688 216.157 437.948 215.893 438.301 215.7C438.655 215.5 439.035 215.4 439.441 215.4ZM448.152 215.49V221H447.012V220.35C446.832 220.577 446.595 220.757 446.302 220.89C446.015 221.017 445.709 221.08 445.382 221.08C444.949 221.08 444.559 220.99 444.212 220.81C443.872 220.63 443.602 220.363 443.402 220.01C443.209 219.657 443.112 219.23 443.112 218.73V215.49H444.242V218.56C444.242 219.053 444.365 219.433 444.612 219.7C444.859 219.96 445.195 220.09 445.622 220.09C446.049 220.09 446.385 219.96 446.632 219.7C446.885 219.433 447.012 219.053 447.012 218.56V215.49H448.152ZM451.656 221.09C451.223 221.09 450.833 221.013 450.486 220.86C450.146 220.7 449.876 220.487 449.676 220.22C449.476 219.947 449.37 219.643 449.356 219.31H450.536C450.556 219.543 450.666 219.74 450.866 219.9C451.073 220.053 451.33 220.13 451.636 220.13C451.956 220.13 452.203 220.07 452.376 219.95C452.556 219.823 452.646 219.663 452.646 219.47C452.646 219.263 452.546 219.11 452.346 219.01C452.153 218.91 451.843 218.8 451.416 218.68C451.003 218.567 450.666 218.457 450.406 218.35C450.146 218.243 449.92 218.08 449.726 217.86C449.54 217.64 449.446 217.35 449.446 216.99C449.446 216.697 449.533 216.43 449.706 216.19C449.88 215.943 450.126 215.75 450.446 215.61C450.773 215.47 451.146 215.4 451.566 215.4C452.193 215.4 452.696 215.56 453.076 215.88C453.463 216.193 453.67 216.623 453.696 217.17H452.556C452.536 216.923 452.436 216.727 452.256 216.58C452.076 216.433 451.833 216.36 451.526 216.36C451.226 216.36 450.996 216.417 450.836 216.53C450.676 216.643 450.596 216.793 450.596 216.98C450.596 217.127 450.65 217.25 450.756 217.35C450.863 217.45 450.993 217.53 451.146 217.59C451.3 217.643 451.526 217.713 451.826 217.8C452.226 217.907 452.553 218.017 452.806 218.13C453.066 218.237 453.29 218.397 453.476 218.61C453.663 218.823 453.76 219.107 453.766 219.46C453.766 219.773 453.68 220.053 453.506 220.3C453.333 220.547 453.086 220.74 452.766 220.88C452.453 221.02 452.083 221.09 451.656 221.09ZM455.578 214.76C455.371 214.76 455.198 214.69 455.058 214.55C454.918 214.41 454.848 214.237 454.848 214.03C454.848 213.823 454.918 213.65 455.058 213.51C455.198 213.37 455.371 213.3 455.578 213.3C455.778 213.3 455.948 213.37 456.088 213.51C456.228 213.65 456.298 213.823 456.298 214.03C456.298 214.237 456.228 214.41 456.088 214.55C455.948 214.69 455.778 214.76 455.578 214.76ZM456.138 215.49V221H454.998V215.49H456.138ZM457.255 218.24C457.255 217.673 457.368 217.177 457.595 216.75C457.828 216.317 458.148 215.983 458.555 215.75C458.961 215.517 459.428 215.4 459.955 215.4C460.621 215.4 461.171 215.56 461.605 215.88C462.045 216.193 462.341 216.643 462.495 217.23H461.265C461.165 216.957 461.005 216.743 460.785 216.59C460.565 216.437 460.288 216.36 459.955 216.36C459.488 216.36 459.115 216.527 458.835 216.86C458.561 217.187 458.425 217.647 458.425 218.24C458.425 218.833 458.561 219.297 458.835 219.63C459.115 219.963 459.488 220.13 459.955 220.13C460.615 220.13 461.051 219.84 461.265 219.26H462.495C462.335 219.82 462.035 220.267 461.595 220.6C461.155 220.927 460.608 221.09 459.955 221.09C459.428 221.09 458.961 220.973 458.555 220.74C458.148 220.5 457.828 220.167 457.595 219.74C457.368 219.307 457.255 218.807 457.255 218.24ZM358.15 230.49L356.44 236H355.24L354.13 231.93L353.02 236H351.82L350.1 230.49H351.26L352.41 234.92L353.58 230.49H354.77L355.89 234.9L357.03 230.49H358.15ZM359.582 229.76C359.375 229.76 359.202 229.69 359.062 229.55C358.922 229.41 358.852 229.237 358.852 229.03C358.852 228.823 358.922 228.65 359.062 228.51C359.202 228.37 359.375 228.3 359.582 228.3C359.782 228.3 359.952 228.37 360.092 228.51C360.232 228.65 360.302 228.823 360.302 229.03C360.302 229.237 360.232 229.41 360.092 229.55C359.952 229.69 359.782 229.76 359.582 229.76ZM360.142 230.49V236H359.002V230.49H360.142ZM362.969 231.42V234.47C362.969 234.677 363.015 234.827 363.109 234.92C363.209 235.007 363.375 235.05 363.609 235.05H364.309V236H363.409C362.895 236 362.502 235.88 362.229 235.64C361.955 235.4 361.819 235.01 361.819 234.47V231.42H361.169V230.49H361.819V229.12H362.969V230.49H364.309V231.42H362.969ZM368.209 230.4C368.629 230.4 369.003 230.49 369.329 230.67C369.663 230.85 369.923 231.117 370.109 231.47C370.303 231.823 370.399 232.25 370.399 232.75V236H369.269V232.92C369.269 232.427 369.146 232.05 368.899 231.79C368.653 231.523 368.316 231.39 367.889 231.39C367.463 231.39 367.123 231.523 366.869 231.79C366.623 232.05 366.499 232.427 366.499 232.92V236H365.359V228.6H366.499V231.13C366.693 230.897 366.936 230.717 367.229 230.59C367.529 230.463 367.856 230.4 368.209 230.4ZM378.221 230.4C378.148 230.093 378.015 229.863 377.821 229.71C377.628 229.557 377.358 229.48 377.011 229.48C376.485 229.48 376.091 229.683 375.831 230.09C375.571 230.49 375.435 231.157 375.421 232.09C375.595 231.797 375.848 231.57 376.181 231.41C376.515 231.25 376.875 231.17 377.261 231.17C377.701 231.17 378.088 231.267 378.421 231.46C378.761 231.647 379.025 231.92 379.211 232.28C379.405 232.64 379.501 233.07 379.501 233.57C379.501 234.037 379.408 234.453 379.221 234.82C379.041 235.187 378.771 235.477 378.411 235.69C378.051 235.897 377.618 236 377.111 236C376.425 236 375.885 235.85 375.491 235.55C375.105 235.243 374.831 234.813 374.671 234.26C374.518 233.707 374.441 233.017 374.441 232.19C374.441 229.75 375.301 228.53 377.021 228.53C377.688 228.53 378.211 228.71 378.591 229.07C378.978 229.43 379.205 229.873 379.271 230.4H378.221ZM377.011 232.13C376.605 232.13 376.258 232.253 375.971 232.5C375.691 232.74 375.551 233.09 375.551 233.55C375.551 234.01 375.681 234.377 375.941 234.65C376.208 234.917 376.578 235.05 377.051 235.05C377.471 235.05 377.801 234.92 378.041 234.66C378.288 234.4 378.411 234.053 378.411 233.62C378.411 233.167 378.291 232.807 378.051 232.54C377.818 232.267 377.471 232.13 377.011 232.13ZM386.245 230.4C386.678 230.4 387.065 230.49 387.405 230.67C387.752 230.85 388.022 231.117 388.215 231.47C388.408 231.823 388.505 232.25 388.505 232.75V236H387.375V232.92C387.375 232.427 387.252 232.05 387.005 231.79C386.758 231.523 386.422 231.39 385.995 231.39C385.568 231.39 385.228 231.523 384.975 231.79C384.728 232.05 384.605 232.427 384.605 232.92V236H383.465V230.49H384.605V231.12C384.792 230.893 385.028 230.717 385.315 230.59C385.608 230.463 385.918 230.4 386.245 230.4ZM392.349 236.09C391.829 236.09 391.359 235.973 390.939 235.74C390.519 235.5 390.189 235.167 389.949 234.74C389.709 234.307 389.589 233.807 389.589 233.24C389.589 232.68 389.712 232.183 389.959 231.75C390.206 231.317 390.542 230.983 390.969 230.75C391.396 230.517 391.872 230.4 392.399 230.4C392.926 230.4 393.402 230.517 393.829 230.75C394.256 230.983 394.592 231.317 394.839 231.75C395.086 232.183 395.209 232.68 395.209 233.24C395.209 233.8 395.082 234.297 394.829 234.73C394.576 235.163 394.229 235.5 393.789 235.74C393.356 235.973 392.876 236.09 392.349 236.09ZM392.349 235.1C392.642 235.1 392.916 235.03 393.169 234.89C393.429 234.75 393.639 234.54 393.799 234.26C393.959 233.98 394.039 233.64 394.039 233.24C394.039 232.84 393.962 232.503 393.809 232.23C393.656 231.95 393.452 231.74 393.199 231.6C392.946 231.46 392.672 231.39 392.379 231.39C392.086 231.39 391.812 231.46 391.559 231.6C391.312 231.74 391.116 231.95 390.969 232.23C390.822 232.503 390.749 232.84 390.749 233.24C390.749 233.833 390.899 234.293 391.199 234.62C391.506 234.94 391.889 235.1 392.349 235.1ZM397.666 231.42V234.47C397.666 234.677 397.713 234.827 397.806 234.92C397.906 235.007 398.073 235.05 398.306 235.05H399.006V236H398.106C397.593 236 397.199 235.88 396.926 235.64C396.653 235.4 396.516 235.01 396.516 234.47V231.42H395.866V230.49H396.516V229.12H397.666V230.49H399.006V231.42H397.666ZM405.107 233.11C405.107 233.317 405.093 233.503 405.067 233.67H400.857C400.89 234.11 401.053 234.463 401.347 234.73C401.64 234.997 402 235.13 402.427 235.13C403.04 235.13 403.473 234.873 403.727 234.36H404.957C404.79 234.867 404.487 235.283 404.047 235.61C403.613 235.93 403.073 236.09 402.427 236.09C401.9 236.09 401.427 235.973 401.007 235.74C400.593 235.5 400.267 235.167 400.027 234.74C399.793 234.307 399.677 233.807 399.677 233.24C399.677 232.673 399.79 232.177 400.017 231.75C400.25 231.317 400.573 230.983 400.987 230.75C401.407 230.517 401.887 230.4 402.427 230.4C402.947 230.4 403.41 230.513 403.817 230.74C404.223 230.967 404.54 231.287 404.767 231.7C404.993 232.107 405.107 232.577 405.107 233.11ZM403.917 232.75C403.91 232.33 403.76 231.993 403.467 231.74C403.173 231.487 402.81 231.36 402.377 231.36C401.983 231.36 401.647 231.487 401.367 231.74C401.087 231.987 400.92 232.323 400.867 232.75H403.917ZM408.229 236.09C407.795 236.09 407.405 236.013 407.059 235.86C406.719 235.7 406.449 235.487 406.249 235.22C406.049 234.947 405.942 234.643 405.929 234.31H407.109C407.129 234.543 407.239 234.74 407.439 234.9C407.645 235.053 407.902 235.13 408.209 235.13C408.529 235.13 408.775 235.07 408.949 234.95C409.129 234.823 409.219 234.663 409.219 234.47C409.219 234.263 409.119 234.11 408.919 234.01C408.725 233.91 408.415 233.8 407.989 233.68C407.575 233.567 407.239 233.457 406.979 233.35C406.719 233.243 406.492 233.08 406.299 232.86C406.112 232.64 406.019 232.35 406.019 231.99C406.019 231.697 406.105 231.43 406.279 231.19C406.452 230.943 406.699 230.75 407.019 230.61C407.345 230.47 407.719 230.4 408.139 230.4C408.765 230.4 409.269 230.56 409.649 230.88C410.035 231.193 410.242 231.623 410.269 232.17H409.129C409.109 231.923 409.009 231.727 408.829 231.58C408.649 231.433 408.405 231.36 408.099 231.36C407.799 231.36 407.569 231.417 407.409 231.53C407.249 231.643 407.169 231.793 407.169 231.98C407.169 232.127 407.222 232.25 407.329 232.35C407.435 232.45 407.565 232.53 407.719 232.59C407.872 232.643 408.099 232.713 408.399 232.8C408.799 232.907 409.125 233.017 409.379 233.13C409.639 233.237 409.862 233.397 410.049 233.61C410.235 233.823 410.332 234.107 410.339 234.46C410.339 234.773 410.252 235.053 410.079 235.3C409.905 235.547 409.659 235.74 409.339 235.88C409.025 236.02 408.655 236.09 408.229 236.09ZM413.788 233.22C413.788 232.667 413.901 232.177 414.128 231.75C414.361 231.323 414.675 230.993 415.068 230.76C415.468 230.52 415.908 230.4 416.388 230.4C416.821 230.4 417.198 230.487 417.518 230.66C417.845 230.827 418.105 231.037 418.298 231.29V230.49H419.448V236H418.298V235.18C418.105 235.44 417.841 235.657 417.508 235.83C417.175 236.003 416.795 236.09 416.368 236.09C415.895 236.09 415.461 235.97 415.068 235.73C414.675 235.483 414.361 235.143 414.128 234.71C413.901 234.27 413.788 233.773 413.788 233.22ZM418.298 233.24C418.298 232.86 418.218 232.53 418.058 232.25C417.905 231.97 417.701 231.757 417.448 231.61C417.195 231.463 416.921 231.39 416.628 231.39C416.335 231.39 416.061 231.463 415.808 231.61C415.555 231.75 415.348 231.96 415.188 232.24C415.035 232.513 414.958 232.84 414.958 233.22C414.958 233.6 415.035 233.933 415.188 234.22C415.348 234.507 415.555 234.727 415.808 234.88C416.068 235.027 416.341 235.1 416.628 235.1C416.921 235.1 417.195 235.027 417.448 234.88C417.701 234.733 417.905 234.52 418.058 234.24C418.218 233.953 418.298 233.62 418.298 233.24ZM423.725 230.4C424.159 230.4 424.545 230.49 424.885 230.67C425.232 230.85 425.502 231.117 425.695 231.47C425.889 231.823 425.985 232.25 425.985 232.75V236H424.855V232.92C424.855 232.427 424.732 232.05 424.485 231.79C424.239 231.523 423.902 231.39 423.475 231.39C423.049 231.39 422.709 231.523 422.455 231.79C422.209 232.05 422.085 232.427 422.085 232.92V236H420.945V230.49H422.085V231.12C422.272 230.893 422.509 230.717 422.795 230.59C423.089 230.463 423.399 230.4 423.725 230.4ZM427.059 233.22C427.059 232.667 427.173 232.177 427.399 231.75C427.633 231.323 427.946 230.993 428.339 230.76C428.739 230.52 429.183 230.4 429.669 230.4C430.029 230.4 430.383 230.48 430.729 230.64C431.083 230.793 431.363 231 431.569 231.26V228.6H432.719V236H431.569V235.17C431.383 235.437 431.123 235.657 430.789 235.83C430.463 236.003 430.086 236.09 429.659 236.09C429.179 236.09 428.739 235.97 428.339 235.73C427.946 235.483 427.633 235.143 427.399 234.71C427.173 234.27 427.059 233.773 427.059 233.22ZM431.569 233.24C431.569 232.86 431.489 232.53 431.329 232.25C431.176 231.97 430.973 231.757 430.719 231.61C430.466 231.463 430.193 231.39 429.899 231.39C429.606 231.39 429.333 231.463 429.079 231.61C428.826 231.75 428.619 231.96 428.459 232.24C428.306 232.513 428.229 232.84 428.229 233.22C428.229 233.6 428.306 233.933 428.459 234.22C428.619 234.507 428.826 234.727 429.079 234.88C429.339 235.027 429.613 235.1 429.899 235.1C430.193 235.1 430.466 235.027 430.719 234.88C430.973 234.733 431.176 234.52 431.329 234.24C431.489 233.953 431.569 233.62 431.569 233.24ZM437.294 234.45C437.934 233.897 438.438 233.443 438.804 233.09C439.178 232.73 439.488 232.357 439.734 231.97C439.981 231.583 440.104 231.197 440.104 230.81C440.104 230.41 440.008 230.097 439.814 229.87C439.628 229.643 439.331 229.53 438.924 229.53C438.531 229.53 438.224 229.657 438.004 229.91C437.791 230.157 437.678 230.49 437.664 230.91H436.564C436.584 230.15 436.811 229.57 437.244 229.17C437.684 228.763 438.241 228.56 438.914 228.56C439.641 228.56 440.208 228.76 440.614 229.16C441.028 229.56 441.234 230.093 441.234 230.76C441.234 231.24 441.111 231.703 440.864 232.15C440.624 232.59 440.334 232.987 439.994 233.34C439.661 233.687 439.234 234.09 438.714 234.55L438.264 234.95H441.434V235.9H436.574V235.07L437.294 234.45ZM442.286 229.75V228.71H444.366V236H443.216V229.75H442.286ZM351.33 244.76C351.123 244.76 350.95 244.69 350.81 244.55C350.67 244.41 350.6 244.237 350.6 244.03C350.6 243.823 350.67 243.65 350.81 243.51C350.95 243.37 351.123 243.3 351.33 243.3C351.53 243.3 351.7 243.37 351.84 243.51C351.98 243.65 352.05 243.823 352.05 244.03C352.05 244.237 351.98 244.41 351.84 244.55C351.7 244.69 351.53 244.76 351.33 244.76ZM351.89 245.49V251H350.75V245.49H351.89ZM356.167 245.4C356.6 245.4 356.987 245.49 357.327 245.67C357.673 245.85 357.943 246.117 358.137 246.47C358.33 246.823 358.427 247.25 358.427 247.75V251H357.297V247.92C357.297 247.427 357.173 247.05 356.927 246.79C356.68 246.523 356.343 246.39 355.917 246.39C355.49 246.39 355.15 246.523 354.897 246.79C354.65 247.05 354.527 247.427 354.527 247.92V251H353.387V245.49H354.527V246.12C354.713 245.893 354.95 245.717 355.237 245.59C355.53 245.463 355.84 245.4 356.167 245.4ZM361.881 251.09C361.448 251.09 361.058 251.013 360.711 250.86C360.371 250.7 360.101 250.487 359.901 250.22C359.701 249.947 359.594 249.643 359.581 249.31H360.761C360.781 249.543 360.891 249.74 361.091 249.9C361.298 250.053 361.554 250.13 361.861 250.13C362.181 250.13 362.428 250.07 362.601 249.95C362.781 249.823 362.871 249.663 362.871 249.47C362.871 249.263 362.771 249.11 362.571 249.01C362.378 248.91 362.068 248.8 361.641 248.68C361.228 248.567 360.891 248.457 360.631 248.35C360.371 248.243 360.144 248.08 359.951 247.86C359.764 247.64 359.671 247.35 359.671 246.99C359.671 246.697 359.758 246.43 359.931 246.19C360.104 245.943 360.351 245.75 360.671 245.61C360.998 245.47 361.371 245.4 361.791 245.4C362.418 245.4 362.921 245.56 363.301 245.88C363.688 246.193 363.894 246.623 363.921 247.17H362.781C362.761 246.923 362.661 246.727 362.481 246.58C362.301 246.433 362.058 246.36 361.751 246.36C361.451 246.36 361.221 246.417 361.061 246.53C360.901 246.643 360.821 246.793 360.821 246.98C360.821 247.127 360.874 247.25 360.981 247.35C361.088 247.45 361.218 247.53 361.371 247.59C361.524 247.643 361.751 247.713 362.051 247.8C362.451 247.907 362.778 248.017 363.031 248.13C363.291 248.237 363.514 248.397 363.701 248.61C363.888 248.823 363.984 249.107 363.991 249.46C363.991 249.773 363.904 250.053 363.731 250.3C363.558 250.547 363.311 250.74 362.991 250.88C362.678 251.02 362.308 251.09 361.881 251.09ZM366.553 246.42V249.47C366.553 249.677 366.599 249.827 366.693 249.92C366.793 250.007 366.959 250.05 367.193 250.05H367.893V251H366.993C366.479 251 366.086 250.88 365.813 250.64C365.539 250.4 365.403 250.01 365.403 249.47V246.42H364.753V245.49H365.403V244.12H366.553V245.49H367.893V246.42H366.553ZM370.083 246.29C370.25 246.01 370.47 245.793 370.743 245.64C371.023 245.48 371.353 245.4 371.733 245.4V246.58H371.443C370.997 246.58 370.657 246.693 370.423 246.92C370.197 247.147 370.083 247.54 370.083 248.1V251H368.943V245.49H370.083V246.29ZM377.771 245.49V251H376.631V250.35C376.451 250.577 376.215 250.757 375.921 250.89C375.635 251.017 375.328 251.08 375.001 251.08C374.568 251.08 374.178 250.99 373.831 250.81C373.491 250.63 373.221 250.363 373.021 250.01C372.828 249.657 372.731 249.23 372.731 248.73V245.49H373.861V248.56C373.861 249.053 373.985 249.433 374.231 249.7C374.478 249.96 374.815 250.09 375.241 250.09C375.668 250.09 376.005 249.96 376.251 249.7C376.505 249.433 376.631 249.053 376.631 248.56V245.49H377.771ZM385.945 245.4C386.379 245.4 386.765 245.49 387.105 245.67C387.452 245.85 387.722 246.117 387.915 246.47C388.115 246.823 388.215 247.25 388.215 247.75V251H387.085V247.92C387.085 247.427 386.962 247.05 386.715 246.79C386.469 246.523 386.132 246.39 385.705 246.39C385.279 246.39 384.939 246.523 384.685 246.79C384.439 247.05 384.315 247.427 384.315 247.92V251H383.185V247.92C383.185 247.427 383.062 247.05 382.815 246.79C382.569 246.523 382.232 246.39 381.805 246.39C381.379 246.39 381.039 246.523 380.785 246.79C380.539 247.05 380.415 247.427 380.415 247.92V251H379.275V245.49H380.415V246.12C380.602 245.893 380.839 245.717 381.125 245.59C381.412 245.463 381.719 245.4 382.045 245.4C382.485 245.4 382.879 245.493 383.225 245.68C383.572 245.867 383.839 246.137 384.025 246.49C384.192 246.157 384.452 245.893 384.805 245.7C385.159 245.5 385.539 245.4 385.945 245.4ZM394.716 248.11C394.716 248.317 394.703 248.503 394.676 248.67H390.466C390.499 249.11 390.663 249.463 390.956 249.73C391.249 249.997 391.609 250.13 392.036 250.13C392.649 250.13 393.083 249.873 393.336 249.36H394.566C394.399 249.867 394.096 250.283 393.656 250.61C393.223 250.93 392.683 251.09 392.036 251.09C391.509 251.09 391.036 250.973 390.616 250.74C390.203 250.5 389.876 250.167 389.636 249.74C389.403 249.307 389.286 248.807 389.286 248.24C389.286 247.673 389.399 247.177 389.626 246.75C389.859 246.317 390.183 245.983 390.596 245.75C391.016 245.517 391.496 245.4 392.036 245.4C392.556 245.4 393.019 245.513 393.426 245.74C393.833 245.967 394.149 246.287 394.376 246.7C394.603 247.107 394.716 247.577 394.716 248.11ZM393.526 247.75C393.519 247.33 393.369 246.993 393.076 246.74C392.783 246.487 392.419 246.36 391.986 246.36C391.593 246.36 391.256 246.487 390.976 246.74C390.696 246.987 390.529 247.323 390.476 247.75H393.526ZM398.618 245.4C399.051 245.4 399.438 245.49 399.778 245.67C400.125 245.85 400.395 246.117 400.588 246.47C400.781 246.823 400.878 247.25 400.878 247.75V251H399.748V247.92C399.748 247.427 399.625 247.05 399.378 246.79C399.131 246.523 398.795 246.39 398.368 246.39C397.941 246.39 397.601 246.523 397.348 246.79C397.101 247.05 396.978 247.427 396.978 247.92V251H395.838V245.49H396.978V246.12C397.165 245.893 397.401 245.717 397.688 245.59C397.981 245.463 398.291 245.4 398.618 245.4ZM403.662 246.42V249.47C403.662 249.677 403.709 249.827 403.802 249.92C403.902 250.007 404.069 250.05 404.302 250.05H405.002V251H404.102C403.589 251 403.195 250.88 402.922 250.64C402.649 250.4 402.512 250.01 402.512 249.47V246.42H401.862V245.49H402.512V244.12H403.662V245.49H405.002V246.42H403.662ZM408.053 251.09C407.619 251.09 407.229 251.013 406.883 250.86C406.543 250.7 406.273 250.487 406.073 250.22C405.873 249.947 405.766 249.643 405.753 249.31H406.933C406.953 249.543 407.063 249.74 407.263 249.9C407.469 250.053 407.726 250.13 408.033 250.13C408.353 250.13 408.599 250.07 408.773 249.95C408.953 249.823 409.043 249.663 409.043 249.47C409.043 249.263 408.943 249.11 408.743 249.01C408.549 248.91 408.239 248.8 407.813 248.68C407.399 248.567 407.063 248.457 406.803 248.35C406.543 248.243 406.316 248.08 406.123 247.86C405.936 247.64 405.843 247.35 405.843 246.99C405.843 246.697 405.929 246.43 406.103 246.19C406.276 245.943 406.523 245.75 406.843 245.61C407.169 245.47 407.543 245.4 407.963 245.4C408.589 245.4 409.093 245.56 409.473 245.88C409.859 246.193 410.066 246.623 410.093 247.17H408.953C408.933 246.923 408.833 246.727 408.653 246.58C408.473 246.433 408.229 246.36 407.923 246.36C407.623 246.36 407.393 246.417 407.233 246.53C407.073 246.643 406.993 246.793 406.993 246.98C406.993 247.127 407.046 247.25 407.153 247.35C407.259 247.45 407.389 247.53 407.543 247.59C407.696 247.643 407.923 247.713 408.223 247.8C408.623 247.907 408.949 248.017 409.203 248.13C409.463 248.237 409.686 248.397 409.873 248.61C410.059 248.823 410.156 249.107 410.163 249.46C410.163 249.773 410.076 250.053 409.903 250.3C409.729 250.547 409.483 250.74 409.163 250.88C408.849 251.02 408.479 251.09 408.053 251.09ZM412.825 244.05L412.695 248.9H411.745L411.615 244.05H412.825ZM412.255 251.07C412.048 251.07 411.875 251 411.735 250.86C411.595 250.72 411.525 250.547 411.525 250.34C411.525 250.133 411.595 249.96 411.735 249.82C411.875 249.68 412.048 249.61 412.255 249.61C412.455 249.61 412.625 249.68 412.765 249.82C412.905 249.96 412.975 250.133 412.975 250.34C412.975 250.547 412.905 250.72 412.765 250.86C412.625 251 412.455 251.07 412.255 251.07Z"></path>
</svg>
