<svg width="480" height="360" viewBox="0 0 480 360" fill="none" xmlns="http://www.w3.org/2000/svg">
<g clip-path="url(#clip0_306_2)">
<path d="M28.976 23.192C28.976 23.7573 28.8427 24.2907 28.576 24.792C28.3093 25.2933 27.8827 25.704 27.296 26.024C26.7093 26.3333 25.9573 26.488 25.04 26.488H23.024V31H21.2V19.88H25.04C25.8933 19.88 26.6133 20.0293 27.2 20.328C27.7973 20.616 28.24 21.0107 28.528 21.512C28.8267 22.0133 28.976 22.5733 28.976 23.192ZM25.04 25C25.7333 25 26.2507 24.8453 26.592 24.536C26.9333 24.216 27.104 23.768 27.104 23.192C27.104 21.976 26.416 21.368 25.04 21.368H23.024V25H25.04ZM32.5396 19.16V31H30.7156V19.16H32.5396ZM34.3264 26.552C34.3264 25.6667 34.5077 24.8827 34.8704 24.2C35.2437 23.5173 35.745 22.9893 36.3744 22.616C37.0144 22.232 37.7184 22.04 38.4864 22.04C39.1797 22.04 39.7824 22.1787 40.2944 22.456C40.817 22.7227 41.233 23.0587 41.5424 23.464V22.184H43.3824V31H41.5424V29.688C41.233 30.104 40.8117 30.4507 40.2784 30.728C39.745 31.0053 39.137 31.144 38.4544 31.144C37.697 31.144 37.0037 30.952 36.3744 30.568C35.745 30.1733 35.2437 29.6293 34.8704 28.936C34.5077 28.232 34.3264 27.4373 34.3264 26.552ZM41.5424 26.584C41.5424 25.976 41.4144 25.448 41.1584 25C40.913 24.552 40.5877 24.2107 40.1824 23.976C39.777 23.7413 39.3397 23.624 38.8704 23.624C38.401 23.624 37.9637 23.7413 37.5584 23.976C37.153 24.2 36.8224 24.536 36.5664 24.984C36.321 25.4213 36.1984 25.944 36.1984 26.552C36.1984 27.16 36.321 27.6933 36.5664 28.152C36.8224 28.6107 37.153 28.9627 37.5584 29.208C37.9744 29.4427 38.4117 29.56 38.8704 29.56C39.3397 29.56 39.777 29.4427 40.1824 29.208C40.5877 28.9733 40.913 28.632 41.1584 28.184C41.4144 27.7253 41.5424 27.192 41.5424 26.584ZM53.7141 22.184L48.3061 35.144H46.4181L48.2101 30.856L44.7381 22.184H46.7701L49.2501 28.904L51.8261 22.184H53.7141Z" fill="white"/>
<path d="M23.648 69.084C23.088 69.084 22.584 68.988 22.136 68.796C21.688 68.596 21.336 68.316 21.08 67.956C20.824 67.596 20.696 67.176 20.696 66.696H22.16C22.192 67.056 22.332 67.352 22.58 67.584C22.836 67.816 23.192 67.932 23.648 67.932C24.12 67.932 24.488 67.82 24.752 67.596C25.016 67.364 25.148 67.068 25.148 66.708C25.148 66.428 25.064 66.2 24.896 66.024C24.736 65.848 24.532 65.712 24.284 65.616C24.044 65.52 23.708 65.416 23.276 65.304C22.732 65.16 22.288 65.016 21.944 64.872C21.608 64.72 21.32 64.488 21.08 64.176C20.84 63.864 20.72 63.448 20.72 62.928C20.72 62.448 20.84 62.028 21.08 61.668C21.32 61.308 21.656 61.032 22.088 60.84C22.52 60.648 23.02 60.552 23.588 60.552C24.396 60.552 25.056 60.756 25.568 61.164C26.088 61.564 26.376 62.116 26.432 62.82H24.92C24.896 62.516 24.752 62.256 24.488 62.04C24.224 61.824 23.876 61.716 23.444 61.716C23.052 61.716 22.732 61.816 22.484 62.016C22.236 62.216 22.112 62.504 22.112 62.88C22.112 63.136 22.188 63.348 22.34 63.516C22.5 63.676 22.7 63.804 22.94 63.9C23.18 63.996 23.508 64.1 23.924 64.212C24.476 64.364 24.924 64.516 25.268 64.668C25.62 64.82 25.916 65.056 26.156 65.376C26.404 65.688 26.528 66.108 26.528 66.636C26.528 67.06 26.412 67.46 26.18 67.836C25.956 68.212 25.624 68.516 25.184 68.748C24.752 68.972 24.24 69.084 23.648 69.084ZM34.2022 65.532C34.2022 65.78 34.1862 66.004 34.1542 66.204H29.1022C29.1422 66.732 29.3382 67.156 29.6902 67.476C30.0422 67.796 30.4742 67.956 30.9862 67.956C31.7222 67.956 32.2422 67.648 32.5462 67.032H34.0222C33.8222 67.64 33.4582 68.14 32.9302 68.532C32.4102 68.916 31.7622 69.108 30.9862 69.108C30.3542 69.108 29.7862 68.968 29.2822 68.688C28.7862 68.4 28.3942 68 28.1062 67.488C27.8262 66.968 27.6862 66.368 27.6862 65.688C27.6862 65.008 27.8222 64.412 28.0942 63.9C28.3742 63.38 28.7622 62.98 29.2582 62.7C29.7622 62.42 30.3382 62.28 30.9862 62.28C31.6102 62.28 32.1662 62.416 32.6542 62.688C33.1422 62.96 33.5222 63.344 33.7942 63.84C34.0662 64.328 34.2022 64.892 34.2022 65.532ZM32.7742 65.1C32.7662 64.596 32.5862 64.192 32.2342 63.888C31.8822 63.584 31.4462 63.432 30.9262 63.432C30.4542 63.432 30.0502 63.584 29.7142 63.888C29.3782 64.184 29.1782 64.588 29.1142 65.1H32.7742ZM37.1444 63.504V67.164C37.1444 67.412 37.2004 67.592 37.3124 67.704C37.4324 67.808 37.6324 67.86 37.9124 67.86H38.7524V69H37.6724C37.0564 69 36.5844 68.856 36.2564 68.568C35.9284 68.28 35.7644 67.812 35.7644 67.164V63.504H34.9844V62.388H35.7644V60.744H37.1444V62.388H38.7524V63.504H37.1444ZM41.6093 63.504V67.164C41.6093 67.412 41.6653 67.592 41.7773 67.704C41.8973 67.808 42.0973 67.86 42.3773 67.86H43.2173V69H42.1373C41.5213 69 41.0493 68.856 40.7213 68.568C40.3933 68.28 40.2293 67.812 40.2293 67.164V63.504H39.4493V62.388H40.2293V60.744H41.6093V62.388H43.2173V63.504H41.6093ZM45.1741 61.512C44.9261 61.512 44.7181 61.428 44.5501 61.26C44.3821 61.092 44.2981 60.884 44.2981 60.636C44.2981 60.388 44.3821 60.18 44.5501 60.012C44.7181 59.844 44.9261 59.76 45.1741 59.76C45.4141 59.76 45.6181 59.844 45.7861 60.012C45.9541 60.18 46.0381 60.388 46.0381 60.636C46.0381 60.884 45.9541 61.092 45.7861 61.26C45.6181 61.428 45.4141 61.512 45.1741 61.512ZM45.8461 62.388V69H44.4781V62.388H45.8461ZM50.9782 62.28C51.4982 62.28 51.9622 62.388 52.3702 62.604C52.7862 62.82 53.1102 63.14 53.3422 63.564C53.5742 63.988 53.6902 64.5 53.6902 65.1V69H52.3342V65.304C52.3342 64.712 52.1862 64.26 51.8902 63.948C51.5942 63.628 51.1902 63.468 50.6782 63.468C50.1662 63.468 49.7582 63.628 49.4542 63.948C49.1582 64.26 49.0102 64.712 49.0102 65.304V69H47.6422V62.388H49.0102V63.144C49.2342 62.872 49.5182 62.66 49.8622 62.508C50.2142 62.356 50.5862 62.28 50.9782 62.28ZM58.0992 62.28C58.6112 62.28 59.0632 62.384 59.4552 62.592C59.8552 62.792 60.1672 63.044 60.3912 63.348V62.388H61.7712V69.108C61.7712 69.716 61.6432 70.256 61.3872 70.728C61.1312 71.208 60.7592 71.584 60.2712 71.856C59.7912 72.128 59.2152 72.264 58.5432 72.264C57.6472 72.264 56.9032 72.052 56.3112 71.628C55.7192 71.212 55.3832 70.644 55.3032 69.924H56.6592C56.7632 70.268 56.9832 70.544 57.3192 70.752C57.6632 70.968 58.0712 71.076 58.5432 71.076C59.0952 71.076 59.5392 70.908 59.8752 70.572C60.2192 70.236 60.3912 69.748 60.3912 69.108V68.004C60.1592 68.316 59.8432 68.58 59.4432 68.796C59.0512 69.004 58.6032 69.108 58.0992 69.108C57.5232 69.108 56.9952 68.964 56.5152 68.676C56.0432 68.38 55.6672 67.972 55.3872 67.452C55.1152 66.924 54.9792 66.328 54.9792 65.664C54.9792 65 55.1152 64.412 55.3872 63.9C55.6672 63.388 56.0432 62.992 56.5152 62.712C56.9952 62.424 57.5232 62.28 58.0992 62.28ZM60.3912 65.688C60.3912 65.232 60.2952 64.836 60.1032 64.5C59.9192 64.164 59.6752 63.908 59.3712 63.732C59.0672 63.556 58.7392 63.468 58.3872 63.468C58.0352 63.468 57.7072 63.556 57.4032 63.732C57.0992 63.9 56.8512 64.152 56.6592 64.488C56.4752 64.816 56.3832 65.208 56.3832 65.664C56.3832 66.12 56.4752 66.52 56.6592 66.864C56.8512 67.208 57.0992 67.472 57.4032 67.656C57.7152 67.832 58.0432 67.92 58.3872 67.92C58.7392 67.92 59.0672 67.832 59.3712 67.656C59.6752 67.48 59.9192 67.224 60.1032 66.888C60.2952 66.544 60.3912 66.144 60.3912 65.688ZM65.968 69.108C65.448 69.108 64.98 69.016 64.564 68.832C64.156 68.64 63.832 68.384 63.592 68.064C63.352 67.736 63.224 67.372 63.208 66.972H64.624C64.648 67.252 64.78 67.488 65.02 67.68C65.268 67.864 65.576 67.956 65.944 67.956C66.328 67.956 66.624 67.884 66.832 67.74C67.048 67.588 67.156 67.396 67.156 67.164C67.156 66.916 67.036 66.732 66.796 66.612C66.564 66.492 66.192 66.36 65.68 66.216C65.184 66.08 64.78 65.948 64.468 65.82C64.156 65.692 63.884 65.496 63.652 65.232C63.428 64.968 63.316 64.62 63.316 64.188C63.316 63.836 63.42 63.516 63.628 63.228C63.836 62.932 64.132 62.7 64.516 62.532C64.908 62.364 65.356 62.28 65.86 62.28C66.612 62.28 67.216 62.472 67.672 62.856C68.136 63.232 68.384 63.748 68.416 64.404H67.048C67.024 64.108 66.904 63.872 66.688 63.696C66.472 63.52 66.18 63.432 65.812 63.432C65.452 63.432 65.176 63.5 64.984 63.636C64.792 63.772 64.696 63.952 64.696 64.176C64.696 64.352 64.76 64.5 64.888 64.62C65.016 64.74 65.172 64.836 65.356 64.908C65.54 64.972 65.812 65.056 66.172 65.16C66.652 65.288 67.044 65.42 67.348 65.556C67.66 65.684 67.928 65.876 68.152 66.132C68.376 66.388 68.492 66.728 68.5 67.152C68.5 67.528 68.396 67.864 68.188 68.16C67.98 68.456 67.684 68.688 67.3 68.856C66.924 69.024 66.48 69.108 65.968 69.108Z" fill="white"/>
<path d="M13.624 90.66C14.512 90.66 15.288 90.832 15.952 91.176C16.624 91.512 17.14 92 17.5 92.64C17.868 93.272 18.052 94.012 18.052 94.86C18.052 95.708 17.868 96.444 17.5 97.068C17.14 97.692 16.624 98.172 15.952 98.508C15.288 98.836 14.512 99 13.624 99H10.9V90.66H13.624ZM13.624 97.884C14.6 97.884 15.348 97.62 15.868 97.092C16.388 96.564 16.648 95.82 16.648 94.86C16.648 93.892 16.388 93.136 15.868 92.592C15.348 92.048 14.6 91.776 13.624 91.776H12.268V97.884H13.624ZM25.4678 95.532C25.4678 95.78 25.4518 96.004 25.4198 96.204H20.3678C20.4078 96.732 20.6038 97.156 20.9558 97.476C21.3078 97.796 21.7398 97.956 22.2518 97.956C22.9878 97.956 23.5078 97.648 23.8118 97.032H25.2878C25.0878 97.64 24.7238 98.14 24.1958 98.532C23.6758 98.916 23.0278 99.108 22.2518 99.108C21.6198 99.108 21.0518 98.968 20.5478 98.688C20.0518 98.4 19.6598 98 19.3718 97.488C19.0918 96.968 18.9518 96.368 18.9518 95.688C18.9518 95.008 19.0878 94.412 19.3598 93.9C19.6398 93.38 20.0278 92.98 20.5238 92.7C21.0278 92.42 21.6038 92.28 22.2518 92.28C22.8758 92.28 23.4318 92.416 23.9198 92.688C24.4078 92.96 24.7878 93.344 25.0598 93.84C25.3318 94.328 25.4678 94.892 25.4678 95.532ZM24.0398 95.1C24.0318 94.596 23.8518 94.192 23.4998 93.888C23.1478 93.584 22.7118 93.432 22.1918 93.432C21.7198 93.432 21.3158 93.584 20.9798 93.888C20.6438 94.184 20.4438 94.588 20.3798 95.1H24.0398ZM28.1821 90.12V99H26.8141V90.12H28.1821ZM29.5221 95.664C29.5221 95 29.6581 94.412 29.9301 93.9C30.2101 93.388 30.5861 92.992 31.0581 92.712C31.5381 92.424 32.0661 92.28 32.6421 92.28C33.1621 92.28 33.6141 92.384 33.9981 92.592C34.3901 92.792 34.7021 93.044 34.9341 93.348V92.388H36.3141V99H34.9341V98.016C34.7021 98.328 34.3861 98.588 33.9861 98.796C33.5861 99.004 33.1301 99.108 32.6181 99.108C32.0501 99.108 31.5301 98.964 31.0581 98.676C30.5861 98.38 30.2101 97.972 29.9301 97.452C29.6581 96.924 29.5221 96.328 29.5221 95.664ZM34.9341 95.688C34.9341 95.232 34.8381 94.836 34.6461 94.5C34.4621 94.164 34.2181 93.908 33.9141 93.732C33.6101 93.556 33.2821 93.468 32.9301 93.468C32.5781 93.468 32.2501 93.556 31.9461 93.732C31.6421 93.9 31.3941 94.152 31.2021 94.488C31.0181 94.816 30.9261 95.208 30.9261 95.664C30.9261 96.12 31.0181 96.52 31.2021 96.864C31.3941 97.208 31.6421 97.472 31.9461 97.656C32.2581 97.832 32.5861 97.92 32.9301 97.92C33.2821 97.92 33.6101 97.832 33.9141 97.656C34.2181 97.48 34.4621 97.224 34.6461 96.888C34.8381 96.544 34.9341 96.144 34.9341 95.688ZM44.0629 92.388L40.0069 102.108H38.5909L39.9349 98.892L37.3309 92.388H38.8549L40.7149 97.428L42.6469 92.388H44.0629ZM48.7645 99.084C48.5165 99.084 48.3085 99 48.1405 98.832C47.9725 98.664 47.8885 98.456 47.8885 98.208C47.8885 97.96 47.9725 97.752 48.1405 97.584C48.3085 97.416 48.5165 97.332 48.7645 97.332C49.0045 97.332 49.2085 97.416 49.3765 97.584C49.5445 97.752 49.6285 97.96 49.6285 98.208C49.6285 98.456 49.5445 98.664 49.3765 98.832C49.2085 99 49.0045 99.084 48.7645 99.084ZM48.7645 94.044C48.5165 94.044 48.3085 93.96 48.1405 93.792C47.9725 93.624 47.8885 93.416 47.8885 93.168C47.8885 92.92 47.9725 92.712 48.1405 92.544C48.3085 92.376 48.5165 92.292 48.7645 92.292C49.0045 92.292 49.2085 92.376 49.3765 92.544C49.5445 92.712 49.6285 92.92 49.6285 93.168C49.6285 93.416 49.5445 93.624 49.3765 93.792C49.2085 93.96 49.0045 94.044 48.7645 94.044Z" fill="white"/>
<path d="M16.732 133.144C16.732 133.568 16.632 133.968 16.432 134.344C16.232 134.72 15.912 135.028 15.472 135.268C15.032 135.5 14.468 135.616 13.78 135.616H12.268V139H10.9V130.66H13.78C14.42 130.66 14.96 130.772 15.4 130.996C15.848 131.212 16.18 131.508 16.396 131.884C16.62 132.26 16.732 132.68 16.732 133.144ZM13.78 134.5C14.3 134.5 14.688 134.384 14.944 134.152C15.2 133.912 15.328 133.576 15.328 133.144C15.328 132.232 14.812 131.776 13.78 131.776H12.268V134.5H13.78ZM19.4047 130.12V139H18.0367V130.12H19.4047ZM20.7448 135.664C20.7448 135 20.8808 134.412 21.1528 133.9C21.4328 133.388 21.8088 132.992 22.2808 132.712C22.7608 132.424 23.2888 132.28 23.8648 132.28C24.3848 132.28 24.8368 132.384 25.2208 132.592C25.6128 132.792 25.9248 133.044 26.1568 133.348V132.388H27.5368V139H26.1568V138.016C25.9248 138.328 25.6088 138.588 25.2088 138.796C24.8088 139.004 24.3528 139.108 23.8408 139.108C23.2728 139.108 22.7528 138.964 22.2808 138.676C21.8088 138.38 21.4328 137.972 21.1528 137.452C20.8808 136.924 20.7448 136.328 20.7448 135.664ZM26.1568 135.688C26.1568 135.232 26.0608 134.836 25.8688 134.5C25.6848 134.164 25.4408 133.908 25.1368 133.732C24.8328 133.556 24.5048 133.468 24.1528 133.468C23.8008 133.468 23.4728 133.556 23.1688 133.732C22.8648 133.9 22.6168 134.152 22.4248 134.488C22.2408 134.816 22.1488 135.208 22.1488 135.664C22.1488 136.12 22.2408 136.52 22.4248 136.864C22.6168 137.208 22.8648 137.472 23.1688 137.656C23.4808 137.832 23.8088 137.92 24.1528 137.92C24.5048 137.92 24.8328 137.832 25.1368 137.656C25.4408 137.48 25.6848 137.224 25.8688 136.888C26.0608 136.544 26.1568 136.144 26.1568 135.688ZM35.2856 132.388L31.2296 142.108H29.8136L31.1576 138.892L28.5536 132.388H30.0776L31.9376 137.428L33.8696 132.388H35.2856ZM37.686 133.372C37.918 133.052 38.234 132.792 38.634 132.592C39.042 132.384 39.494 132.28 39.99 132.28C40.574 132.28 41.102 132.42 41.574 132.7C42.046 132.98 42.418 133.38 42.69 133.9C42.962 134.412 43.098 135 43.098 135.664C43.098 136.328 42.962 136.924 42.69 137.452C42.418 137.972 42.042 138.38 41.562 138.676C41.09 138.964 40.566 139.108 39.99 139.108C39.478 139.108 39.022 139.008 38.622 138.808C38.23 138.608 37.918 138.352 37.686 138.04V139H36.318V130.12H37.686V133.372ZM41.706 135.664C41.706 135.208 41.61 134.816 41.418 134.488C41.234 134.152 40.986 133.9 40.674 133.732C40.37 133.556 40.042 133.468 39.69 133.468C39.346 133.468 39.018 133.556 38.706 133.732C38.402 133.908 38.154 134.164 37.962 134.5C37.778 134.836 37.686 135.232 37.686 135.688C37.686 136.144 37.778 136.544 37.962 136.888C38.154 137.224 38.402 137.48 38.706 137.656C39.018 137.832 39.346 137.92 39.69 137.92C40.042 137.92 40.37 137.832 40.674 137.656C40.986 137.472 41.234 137.208 41.418 136.864C41.61 136.52 41.706 136.12 41.706 135.664ZM43.9948 135.664C43.9948 135 44.1308 134.412 44.4028 133.9C44.6828 133.388 45.0588 132.992 45.5308 132.712C46.0108 132.424 46.5388 132.28 47.1148 132.28C47.6348 132.28 48.0868 132.384 48.4708 132.592C48.8628 132.792 49.1748 133.044 49.4068 133.348V132.388H50.7868V139H49.4068V138.016C49.1748 138.328 48.8588 138.588 48.4588 138.796C48.0588 139.004 47.6028 139.108 47.0908 139.108C46.5228 139.108 46.0028 138.964 45.5308 138.676C45.0588 138.38 44.6828 137.972 44.4028 137.452C44.1308 136.924 43.9948 136.328 43.9948 135.664ZM49.4068 135.688C49.4068 135.232 49.3108 134.836 49.1188 134.5C48.9348 134.164 48.6908 133.908 48.3868 133.732C48.0828 133.556 47.7548 133.468 47.4028 133.468C47.0508 133.468 46.7228 133.556 46.4188 133.732C46.1148 133.9 45.8668 134.152 45.6748 134.488C45.4908 134.816 45.3988 135.208 45.3988 135.664C45.3988 136.12 45.4908 136.52 45.6748 136.864C45.8668 137.208 46.1148 137.472 46.4188 137.656C46.7308 137.832 47.0588 137.92 47.4028 137.92C47.7548 137.92 48.0828 137.832 48.3868 137.656C48.6908 137.48 48.9348 137.224 49.1188 136.888C49.3108 136.544 49.4068 136.144 49.4068 135.688ZM52.1276 135.688C52.1276 135.008 52.2636 134.412 52.5356 133.9C52.8156 133.38 53.1996 132.98 53.6876 132.7C54.1756 132.42 54.7356 132.28 55.3676 132.28C56.1676 132.28 56.8276 132.472 57.3476 132.856C57.8756 133.232 58.2316 133.772 58.4156 134.476H56.9396C56.8196 134.148 56.6276 133.892 56.3636 133.708C56.0996 133.524 55.7676 133.432 55.3676 133.432C54.8076 133.432 54.3596 133.632 54.0236 134.032C53.6956 134.424 53.5316 134.976 53.5316 135.688C53.5316 136.4 53.6956 136.956 54.0236 137.356C54.3596 137.756 54.8076 137.956 55.3676 137.956C56.1596 137.956 56.6836 137.608 56.9396 136.912H58.4156C58.2236 137.584 57.8636 138.12 57.3356 138.52C56.8076 138.912 56.1516 139.108 55.3676 139.108C54.7356 139.108 54.1756 138.968 53.6876 138.688C53.1996 138.4 52.8156 138 52.5356 137.488C52.2636 136.968 52.1276 136.368 52.1276 135.688ZM62.3949 135.7L65.4429 139H63.5949L61.1469 136.156V139H59.7789V130.12H61.1469V135.28L63.5469 132.388H65.4429L62.3949 135.7ZM69.0846 135.664C69.0846 135 69.2206 134.412 69.4926 133.9C69.7726 133.388 70.1486 132.992 70.6206 132.712C71.1006 132.424 71.6326 132.28 72.2166 132.28C72.6486 132.28 73.0726 132.376 73.4886 132.568C73.9126 132.752 74.2486 133 74.4966 133.312V130.12H75.8766V139H74.4966V138.004C74.2726 138.324 73.9606 138.588 73.5606 138.796C73.1686 139.004 72.7166 139.108 72.2046 139.108C71.6286 139.108 71.1006 138.964 70.6206 138.676C70.1486 138.38 69.7726 137.972 69.4926 137.452C69.2206 136.924 69.0846 136.328 69.0846 135.664ZM74.4966 135.688C74.4966 135.232 74.4006 134.836 74.2086 134.5C74.0246 134.164 73.7806 133.908 73.4766 133.732C73.1726 133.556 72.8446 133.468 72.4926 133.468C72.1406 133.468 71.8126 133.556 71.5086 133.732C71.2046 133.9 70.9566 134.152 70.7646 134.488C70.5806 134.816 70.4886 135.208 70.4886 135.664C70.4886 136.12 70.5806 136.52 70.7646 136.864C70.9566 137.208 71.2046 137.472 71.5086 137.656C71.8206 137.832 72.1486 137.92 72.4926 137.92C72.8446 137.92 73.1726 137.832 73.4766 137.656C73.7806 137.48 74.0246 137.224 74.2086 136.888C74.4006 136.544 74.4966 136.144 74.4966 135.688ZM78.3694 131.512C78.1214 131.512 77.9134 131.428 77.7454 131.26C77.5774 131.092 77.4934 130.884 77.4934 130.636C77.4934 130.388 77.5774 130.18 77.7454 130.012C77.9134 129.844 78.1214 129.76 78.3694 129.76C78.6094 129.76 78.8134 129.844 78.9814 130.012C79.1494 130.18 79.2334 130.388 79.2334 130.636C79.2334 130.884 79.1494 131.092 78.9814 131.26C78.8134 131.428 78.6094 131.512 78.3694 131.512ZM79.0414 132.388V139H77.6734V132.388H79.0414ZM82.2055 133.348C82.4055 133.012 82.6695 132.752 82.9975 132.568C83.3335 132.376 83.7295 132.28 84.1855 132.28V133.696H83.8375C83.3015 133.696 82.8935 133.832 82.6135 134.104C82.3415 134.376 82.2055 134.848 82.2055 135.52V139H80.8375V132.388H82.2055V133.348ZM91.503 135.532C91.503 135.78 91.487 136.004 91.455 136.204H86.403C86.443 136.732 86.639 137.156 86.991 137.476C87.343 137.796 87.775 137.956 88.287 137.956C89.023 137.956 89.543 137.648 89.847 137.032H91.323C91.123 137.64 90.759 138.14 90.231 138.532C89.711 138.916 89.063 139.108 88.287 139.108C87.655 139.108 87.087 138.968 86.583 138.688C86.087 138.4 85.695 138 85.407 137.488C85.127 136.968 84.987 136.368 84.987 135.688C84.987 135.008 85.123 134.412 85.395 133.9C85.675 133.38 86.063 132.98 86.559 132.7C87.063 132.42 87.639 132.28 88.287 132.28C88.911 132.28 89.467 132.416 89.955 132.688C90.443 132.96 90.823 133.344 91.095 133.84C91.367 134.328 91.503 134.892 91.503 135.532ZM90.075 135.1C90.067 134.596 89.887 134.192 89.535 133.888C89.183 133.584 88.747 133.432 88.227 133.432C87.755 133.432 87.351 133.584 87.015 133.888C86.679 134.184 86.479 134.588 86.415 135.1H90.075ZM92.3932 135.688C92.3932 135.008 92.5292 134.412 92.8012 133.9C93.0812 133.38 93.4652 132.98 93.9532 132.7C94.4412 132.42 95.0012 132.28 95.6332 132.28C96.4332 132.28 97.0932 132.472 97.6132 132.856C98.1412 133.232 98.4972 133.772 98.6812 134.476H97.2052C97.0852 134.148 96.8932 133.892 96.6292 133.708C96.3652 133.524 96.0332 133.432 95.6332 133.432C95.0732 133.432 94.6252 133.632 94.2892 134.032C93.9612 134.424 93.7972 134.976 93.7972 135.688C93.7972 136.4 93.9612 136.956 94.2892 137.356C94.6252 137.756 95.0732 137.956 95.6332 137.956C96.4252 137.956 96.9492 137.608 97.2052 136.912H98.6812C98.4892 137.584 98.1292 138.12 97.6012 138.52C97.0732 138.912 96.4172 139.108 95.6332 139.108C95.0012 139.108 94.4412 138.968 93.9532 138.688C93.4652 138.4 93.0812 138 92.8012 137.488C92.5292 136.968 92.3932 136.368 92.3932 135.688ZM101.641 133.504V137.164C101.641 137.412 101.697 137.592 101.809 137.704C101.929 137.808 102.129 137.86 102.409 137.86H103.249V139H102.169C101.553 139 101.081 138.856 100.753 138.568C100.425 138.28 100.261 137.812 100.261 137.164V133.504H99.4805V132.388H100.261V130.744H101.641V132.388H103.249V133.504H101.641ZM105.205 131.512C104.957 131.512 104.749 131.428 104.581 131.26C104.413 131.092 104.329 130.884 104.329 130.636C104.329 130.388 104.413 130.18 104.581 130.012C104.749 129.844 104.957 129.76 105.205 129.76C105.445 129.76 105.649 129.844 105.817 130.012C105.985 130.18 106.069 130.388 106.069 130.636C106.069 130.884 105.985 131.092 105.817 131.26C105.649 131.428 105.445 131.512 105.205 131.512ZM105.877 132.388V139H104.509V132.388H105.877ZM110.541 139.108C109.917 139.108 109.353 138.968 108.849 138.688C108.345 138.4 107.949 138 107.661 137.488C107.373 136.968 107.229 136.368 107.229 135.688C107.229 135.016 107.377 134.42 107.673 133.9C107.969 133.38 108.373 132.98 108.885 132.7C109.397 132.42 109.969 132.28 110.601 132.28C111.233 132.28 111.805 132.42 112.317 132.7C112.829 132.98 113.233 133.38 113.529 133.9C113.825 134.42 113.973 135.016 113.973 135.688C113.973 136.36 113.821 136.956 113.517 137.476C113.213 137.996 112.797 138.4 112.269 138.688C111.749 138.968 111.173 139.108 110.541 139.108ZM110.541 137.92C110.893 137.92 111.221 137.836 111.525 137.668C111.837 137.5 112.089 137.248 112.281 136.912C112.473 136.576 112.569 136.168 112.569 135.688C112.569 135.208 112.477 134.804 112.293 134.476C112.109 134.14 111.865 133.888 111.561 133.72C111.257 133.552 110.929 133.468 110.577 133.468C110.225 133.468 109.897 133.552 109.593 133.72C109.297 133.888 109.061 134.14 108.885 134.476C108.709 134.804 108.621 135.208 108.621 135.688C108.621 136.4 108.801 136.952 109.161 137.344C109.529 137.728 109.989 137.92 110.541 137.92ZM118.662 132.28C119.182 132.28 119.646 132.388 120.054 132.604C120.47 132.82 120.794 133.14 121.026 133.564C121.258 133.988 121.374 134.5 121.374 135.1V139H120.018V135.304C120.018 134.712 119.87 134.26 119.574 133.948C119.278 133.628 118.874 133.468 118.362 133.468C117.85 133.468 117.442 133.628 117.138 133.948C116.842 134.26 116.694 134.712 116.694 135.304V139H115.326V132.388H116.694V133.144C116.918 132.872 117.202 132.66 117.546 132.508C117.898 132.356 118.27 132.28 118.662 132.28Z" fill="white"/>
<path d="M150.025 92.28C150.545 92.28 151.009 92.388 151.417 92.604C151.833 92.82 152.157 93.14 152.389 93.564C152.629 93.988 152.749 94.5 152.749 95.1V99H151.393V95.304C151.393 94.712 151.245 94.26 150.949 93.948C150.653 93.628 150.249 93.468 149.737 93.468C149.225 93.468 148.817 93.628 148.513 93.948C148.217 94.26 148.069 94.712 148.069 95.304V99H146.713V95.304C146.713 94.712 146.565 94.26 146.269 93.948C145.973 93.628 145.569 93.468 145.057 93.468C144.545 93.468 144.137 93.628 143.833 93.948C143.537 94.26 143.389 94.712 143.389 95.304V99H142.021V92.388H143.389V93.144C143.613 92.872 143.897 92.66 144.241 92.508C144.585 92.356 144.953 92.28 145.345 92.28C145.873 92.28 146.345 92.392 146.761 92.616C147.177 92.84 147.497 93.164 147.721 93.588C147.921 93.188 148.233 92.872 148.657 92.64C149.081 92.4 149.537 92.28 150.025 92.28ZM156.89 99.108C156.37 99.108 155.902 99.016 155.486 98.832C155.078 98.64 154.754 98.384 154.514 98.064C154.274 97.736 154.146 97.372 154.13 96.972H155.546C155.57 97.252 155.702 97.488 155.942 97.68C156.19 97.864 156.498 97.956 156.866 97.956C157.25 97.956 157.546 97.884 157.754 97.74C157.97 97.588 158.078 97.396 158.078 97.164C158.078 96.916 157.958 96.732 157.718 96.612C157.486 96.492 157.114 96.36 156.602 96.216C156.106 96.08 155.702 95.948 155.39 95.82C155.078 95.692 154.806 95.496 154.574 95.232C154.35 94.968 154.238 94.62 154.238 94.188C154.238 93.836 154.342 93.516 154.55 93.228C154.758 92.932 155.054 92.7 155.438 92.532C155.83 92.364 156.278 92.28 156.782 92.28C157.534 92.28 158.138 92.472 158.594 92.856C159.058 93.232 159.306 93.748 159.338 94.404H157.97C157.946 94.108 157.826 93.872 157.61 93.696C157.394 93.52 157.102 93.432 156.734 93.432C156.374 93.432 156.098 93.5 155.906 93.636C155.714 93.772 155.618 93.952 155.618 94.176C155.618 94.352 155.682 94.5 155.81 94.62C155.938 94.74 156.094 94.836 156.278 94.908C156.462 94.972 156.734 95.056 157.094 95.16C157.574 95.288 157.966 95.42 158.27 95.556C158.582 95.684 158.85 95.876 159.074 96.132C159.298 96.388 159.414 96.728 159.422 97.152C159.422 97.528 159.318 97.864 159.11 98.16C158.902 98.456 158.606 98.688 158.222 98.856C157.846 99.024 157.402 99.108 156.89 99.108Z" fill="white"/>
<rect x="60" y="80" width="70" height="30" rx="15" fill="white" fill-opacity="0.1"/>
<rect x="50" y="229" width="70" height="30" rx="15" fill="white" fill-opacity="0.1"/>
<path d="M79.023 242.144C79.023 242.568 78.923 242.968 78.723 243.344C78.523 243.72 78.203 244.028 77.763 244.268C77.323 244.5 76.759 244.616 76.071 244.616H74.559V248H73.191V239.66H76.071C76.711 239.66 77.251 239.772 77.691 239.996C78.139 240.212 78.471 240.508 78.687 240.884C78.911 241.26 79.023 241.68 79.023 242.144ZM76.071 243.5C76.591 243.5 76.979 243.384 77.235 243.152C77.491 242.912 77.619 242.576 77.619 242.144C77.619 241.232 77.103 240.776 76.071 240.776H74.559V243.5H76.071ZM81.6957 239.12V248H80.3277V239.12H81.6957ZM83.0358 244.664C83.0358 244 83.1718 243.412 83.4438 242.9C83.7238 242.388 84.0998 241.992 84.5718 241.712C85.0518 241.424 85.5798 241.28 86.1558 241.28C86.6758 241.28 87.1278 241.384 87.5118 241.592C87.9038 241.792 88.2158 242.044 88.4478 242.348V241.388H89.8278V248H88.4478V247.016C88.2158 247.328 87.8998 247.588 87.4998 247.796C87.0998 248.004 86.6438 248.108 86.1318 248.108C85.5638 248.108 85.0438 247.964 84.5718 247.676C84.0998 247.38 83.7238 246.972 83.4438 246.452C83.1718 245.924 83.0358 245.328 83.0358 244.664ZM88.4478 244.688C88.4478 244.232 88.3518 243.836 88.1598 243.5C87.9758 243.164 87.7318 242.908 87.4278 242.732C87.1238 242.556 86.7958 242.468 86.4438 242.468C86.0918 242.468 85.7638 242.556 85.4598 242.732C85.1558 242.9 84.9078 243.152 84.7158 243.488C84.5318 243.816 84.4398 244.208 84.4398 244.664C84.4398 245.12 84.5318 245.52 84.7158 245.864C84.9078 246.208 85.1558 246.472 85.4598 246.656C85.7718 246.832 86.0998 246.92 86.4438 246.92C86.7958 246.92 87.1238 246.832 87.4278 246.656C87.7318 246.48 87.9758 246.224 88.1598 245.888C88.3518 245.544 88.4478 245.144 88.4478 244.688ZM97.5766 241.388L93.5206 251.108H92.1046L93.4486 247.892L90.8446 241.388H92.3686L94.2286 246.428L96.1606 241.388H97.5766Z" fill="white"/>
<path d="M81 162C81 161.448 81.4477 161 82 161H86V159.46C86 159.056 86.4553 158.819 86.7867 159.051L90.4148 161.59C90.6992 161.789 90.6992 162.211 90.4148 162.41L86.7867 164.949C86.4553 165.181 86 164.944 86 164.54V163H82C81.4477 163 81 162.552 81 162V162Z" fill="white"/>
<path d="M89 168C89 168.552 88.5523 169 88 169L84 169L84 170.54C84 170.944 83.5447 171.181 83.2133 170.949L79.5852 168.41C79.3008 168.211 79.3008 167.789 79.5852 167.59L83.2133 165.051C83.5447 164.819 84 165.056 84 165.46L84 167L88 167C88.5523 167 89 167.448 89 168V168Z" fill="white"/>
<path d="M40 165C40 165.552 39.5523 166 39 166L35 166L35 167.54C35 167.944 34.5447 168.181 34.2133 167.949L30.5852 165.41C30.3008 165.211 30.3008 164.789 30.5852 164.59L34.2133 162.051C34.5447 161.819 35 162.056 35 162.46L35 164L39 164C39.5523 164 40 164.448 40 165V165Z" fill="white"/>
<path d="M130 165C130 164.448 130.448 164 131 164H135V162.46C135 162.056 135.455 161.819 135.787 162.051L139.415 164.59C139.699 164.789 139.699 165.211 139.415 165.41L135.787 167.949C135.455 168.181 135 167.944 135 167.54V166H131C130.448 166 130 165.552 130 165V165Z" fill="white"/>
<path d="M129 196C129 193.791 130.791 192 133 192H136V190.46C136 190.056 136.455 189.819 136.787 190.051L140.415 192.59C140.699 192.789 140.699 193.211 140.415 193.41L136.787 195.949C136.455 196.181 136 195.944 136 195.54V194H133C131.895 194 131 194.895 131 196V196C131 197.105 131.895 198 133 198H138C138.552 198 139 198.448 139 199V199C139 199.552 138.552 200 138 200H133C130.791 200 129 198.209 129 196V196Z" fill="white"/>
<path d="M75 196C75 193.791 76.7909 192 79 192V192V190.46C79 190.056 79.4553 189.819 79.7867 190.051L83.4148 192.59C83.6992 192.789 83.6992 193.211 83.4148 193.41L79.7867 195.949C79.4553 196.181 79 195.944 79 195.54V194V194C77.8954 194 77 194.895 77 196V196C77 197.105 77.8954 198 79 198H85C85.5523 198 86 198.448 86 199V199C86 199.552 85.5523 200 85 200H79C76.7909 200 75 198.209 75 196V196Z" fill="white"/>
<path d="M95 196C95 193.791 93.2091 192 91 192V192V190.46C91 190.056 90.5447 189.819 90.2133 190.051L86.5852 192.59C86.3008 192.789 86.3008 193.211 86.5852 193.41L90.2133 195.949C90.5447 196.181 91 195.944 91 195.54V194V194C92.1046 194 93 194.895 93 196V196C93 197.105 92.1046 198 91 198H85C84.4477 198 84 198.448 84 199V199C84 199.552 84.4477 200 85 200H91C93.2091 200 95 198.209 95 196V196Z" fill="white"/>
<path d="M41 196C41 193.791 39.2091 192 37 192L34 192L34 190.46C34 190.056 33.5447 189.819 33.2133 190.051L29.5852 192.59C29.3008 192.789 29.3008 193.211 29.5852 193.41L33.2133 195.949C33.5447 196.181 34 195.944 34 195.54L34 194L37 194C38.1046 194 39 194.895 39 196V196C39 197.105 38.1046 198 37 198L32 198C31.4477 198 31 198.448 31 199V199C31 199.552 31.4477 200 32 200L37 200C39.2091 200 41 198.209 41 196V196Z" fill="white"/>
</g>
<defs>
<clipPath id="clip0_306_2">
<rect width="480" height="360" fill="white"/>
</clipPath>
</defs>
</svg>
