<svg width="80" height="28" viewBox="0 0 80 28" fill="none" xmlns="http://www.w3.org/2000/svg">
<rect width="80" height="28" rx="5" fill="#E6E6E6"/>
<path d="M11.89 13.3C12.0833 13.0467 12.3467 12.8333 12.68 12.66C13.0133 12.4867 13.39 12.4 13.81 12.4C14.29 12.4 14.7267 12.52 15.12 12.76C15.52 12.9933 15.8333 13.3233 16.06 13.75C16.2867 14.1767 16.4 14.6667 16.4 15.22C16.4 15.7733 16.2867 16.27 16.06 16.71C15.8333 17.1433 15.52 17.4833 15.12 17.73C14.7267 17.97 14.29 18.09 13.81 18.09C13.39 18.09 13.0167 18.0067 12.69 17.84C12.3633 17.6667 12.0967 17.4533 11.89 17.2V20.62H10.75V12.49H11.89V13.3ZM15.24 15.22C15.24 14.84 15.16 14.5133 15 14.24C14.8467 13.96 14.64 13.75 14.38 13.61C14.1267 13.4633 13.8533 13.39 13.56 13.39C13.2733 13.39 13 13.4633 12.74 13.61C12.4867 13.7567 12.28 13.97 12.12 14.25C11.9667 14.53 11.89 14.86 11.89 15.24C11.89 15.62 11.9667 15.9533 12.12 16.24C12.28 16.52 12.4867 16.7333 12.74 16.88C13 17.0267 13.2733 17.1 13.56 17.1C13.8533 17.1 14.1267 17.0267 14.38 16.88C14.64 16.7267 14.8467 16.5067 15 16.22C15.16 15.9333 15.24 15.6 15.24 15.22ZM17.1473 15.22C17.1473 14.6667 17.2607 14.1767 17.4873 13.75C17.7207 13.3233 18.034 12.9933 18.4273 12.76C18.8273 12.52 19.2673 12.4 19.7473 12.4C20.1807 12.4 20.5573 12.4867 20.8773 12.66C21.204 12.8267 21.464 13.0367 21.6573 13.29V12.49H22.8073V18H21.6573V17.18C21.464 17.44 21.2007 17.6567 20.8673 17.83C20.534 18.0033 20.154 18.09 19.7273 18.09C19.254 18.09 18.8207 17.97 18.4273 17.73C18.034 17.4833 17.7207 17.1433 17.4873 16.71C17.2607 16.27 17.1473 15.7733 17.1473 15.22ZM21.6573 15.24C21.6573 14.86 21.5773 14.53 21.4173 14.25C21.264 13.97 21.0607 13.7567 20.8073 13.61C20.554 13.4633 20.2807 13.39 19.9873 13.39C19.694 13.39 19.4207 13.4633 19.1673 13.61C18.914 13.75 18.7073 13.96 18.5473 14.24C18.394 14.5133 18.3173 14.84 18.3173 15.22C18.3173 15.6 18.394 15.9333 18.5473 16.22C18.7073 16.5067 18.914 16.7267 19.1673 16.88C19.4273 17.0267 19.7007 17.1 19.9873 17.1C20.2807 17.1 20.554 17.0267 20.8073 16.88C21.0607 16.7333 21.264 16.52 21.4173 16.24C21.5773 15.9533 21.6573 15.62 21.6573 15.24ZM26.3047 18.09C25.8714 18.09 25.4814 18.0133 25.1347 17.86C24.7947 17.7 24.5247 17.4867 24.3247 17.22C24.1247 16.9467 24.018 16.6433 24.0047 16.31H25.1847C25.2047 16.5433 25.3147 16.74 25.5147 16.9C25.7214 17.0533 25.978 17.13 26.2847 17.13C26.6047 17.13 26.8514 17.07 27.0247 16.95C27.2047 16.8233 27.2947 16.6633 27.2947 16.47C27.2947 16.2633 27.1947 16.11 26.9947 16.01C26.8014 15.91 26.4914 15.8 26.0647 15.68C25.6514 15.5667 25.3147 15.4567 25.0547 15.35C24.7947 15.2433 24.568 15.08 24.3747 14.86C24.188 14.64 24.0947 14.35 24.0947 13.99C24.0947 13.6967 24.1814 13.43 24.3547 13.19C24.528 12.9433 24.7747 12.75 25.0947 12.61C25.4214 12.47 25.7947 12.4 26.2147 12.4C26.8414 12.4 27.3447 12.56 27.7247 12.88C28.1114 13.1933 28.318 13.6233 28.3447 14.17H27.2047C27.1847 13.9233 27.0847 13.7267 26.9047 13.58C26.7247 13.4333 26.4814 13.36 26.1747 13.36C25.8747 13.36 25.6447 13.4167 25.4847 13.53C25.3247 13.6433 25.2447 13.7933 25.2447 13.98C25.2447 14.1267 25.298 14.25 25.4047 14.35C25.5114 14.45 25.6414 14.53 25.7947 14.59C25.948 14.6433 26.1747 14.7133 26.4747 14.8C26.8747 14.9067 27.2014 15.0167 27.4547 15.13C27.7147 15.2367 27.938 15.3967 28.1247 15.61C28.3114 15.8233 28.408 16.1067 28.4147 16.46C28.4147 16.7733 28.328 17.0533 28.1547 17.3C27.9814 17.5467 27.7347 17.74 27.4147 17.88C27.1014 18.02 26.7314 18.09 26.3047 18.09ZM31.6465 18.09C31.2132 18.09 30.8232 18.0133 30.4765 17.86C30.1365 17.7 29.8665 17.4867 29.6665 17.22C29.4665 16.9467 29.3598 16.6433 29.3465 16.31H30.5265C30.5465 16.5433 30.6565 16.74 30.8565 16.9C31.0632 17.0533 31.3198 17.13 31.6265 17.13C31.9465 17.13 32.1932 17.07 32.3665 16.95C32.5465 16.8233 32.6365 16.6633 32.6365 16.47C32.6365 16.2633 32.5365 16.11 32.3365 16.01C32.1432 15.91 31.8332 15.8 31.4065 15.68C30.9932 15.5667 30.6565 15.4567 30.3965 15.35C30.1365 15.2433 29.9098 15.08 29.7165 14.86C29.5298 14.64 29.4365 14.35 29.4365 13.99C29.4365 13.6967 29.5232 13.43 29.6965 13.19C29.8698 12.9433 30.1165 12.75 30.4365 12.61C30.7632 12.47 31.1365 12.4 31.5565 12.4C32.1832 12.4 32.6865 12.56 33.0665 12.88C33.4532 13.1933 33.6598 13.6233 33.6865 14.17H32.5465C32.5265 13.9233 32.4265 13.7267 32.2465 13.58C32.0665 13.4333 31.8232 13.36 31.5165 13.36C31.2165 13.36 30.9865 13.4167 30.8265 13.53C30.6665 13.6433 30.5865 13.7933 30.5865 13.98C30.5865 14.1267 30.6398 14.25 30.7465 14.35C30.8532 14.45 30.9832 14.53 31.1365 14.59C31.2898 14.6433 31.5165 14.7133 31.8165 14.8C32.2165 14.9067 32.5432 15.0167 32.7965 15.13C33.0565 15.2367 33.2798 15.3967 33.4665 15.61C33.6532 15.8233 33.7498 16.1067 33.7565 16.46C33.7565 16.7733 33.6698 17.0533 33.4965 17.3C33.3232 17.5467 33.0765 17.74 32.7565 17.88C32.4432 18.02 32.0732 18.09 31.6465 18.09ZM42.3883 12.49L40.6783 18H39.4783L38.3683 13.93L37.2583 18H36.0583L34.3383 12.49H35.4983L36.6483 16.92L37.8183 12.49H39.0083L40.1283 16.9L41.2683 12.49H42.3883ZM45.6302 18.09C45.1102 18.09 44.6402 17.9733 44.2202 17.74C43.8002 17.5 43.4702 17.1667 43.2302 16.74C42.9902 16.3067 42.8702 15.8067 42.8702 15.24C42.8702 14.68 42.9936 14.1833 43.2402 13.75C43.4869 13.3167 43.8236 12.9833 44.2502 12.75C44.6769 12.5167 45.1536 12.4 45.6802 12.4C46.2069 12.4 46.6836 12.5167 47.1102 12.75C47.5369 12.9833 47.8736 13.3167 48.1202 13.75C48.3669 14.1833 48.4902 14.68 48.4902 15.24C48.4902 15.8 48.3636 16.2967 48.1102 16.73C47.8569 17.1633 47.5102 17.5 47.0702 17.74C46.6369 17.9733 46.1569 18.09 45.6302 18.09ZM45.6302 17.1C45.9236 17.1 46.1969 17.03 46.4502 16.89C46.7102 16.75 46.9202 16.54 47.0802 16.26C47.2402 15.98 47.3202 15.64 47.3202 15.24C47.3202 14.84 47.2436 14.5033 47.0902 14.23C46.9369 13.95 46.7336 13.74 46.4802 13.6C46.2269 13.46 45.9536 13.39 45.6602 13.39C45.3669 13.39 45.0936 13.46 44.8402 13.6C44.5936 13.74 44.3969 13.95 44.2502 14.23C44.1036 14.5033 44.0302 14.84 44.0302 15.24C44.0302 15.8333 44.1802 16.2933 44.4802 16.62C44.7869 16.94 45.1702 17.1 45.6302 17.1ZM50.7572 13.29C50.9239 13.01 51.1439 12.7933 51.4172 12.64C51.6972 12.48 52.0272 12.4 52.4072 12.4V13.58H52.1172C51.6705 13.58 51.3305 13.6933 51.0972 13.92C50.8705 14.1467 50.7572 14.54 50.7572 15.1V18H49.6172V12.49H50.7572V13.29ZM53.0751 15.22C53.0751 14.6667 53.1884 14.1767 53.4151 13.75C53.6484 13.3233 53.9617 12.9933 54.3551 12.76C54.7551 12.52 55.1984 12.4 55.6851 12.4C56.0451 12.4 56.3984 12.48 56.7451 12.64C57.0984 12.7933 57.3784 13 57.5851 13.26V10.6H58.7351V18H57.5851V17.17C57.3984 17.4367 57.1384 17.6567 56.8051 17.83C56.4784 18.0033 56.1017 18.09 55.6751 18.09C55.1951 18.09 54.7551 17.97 54.3551 17.73C53.9617 17.4833 53.6484 17.1433 53.4151 16.71C53.1884 16.27 53.0751 15.7733 53.0751 15.22ZM57.5851 15.24C57.5851 14.86 57.5051 14.53 57.3451 14.25C57.1917 13.97 56.9884 13.7567 56.7351 13.61C56.4817 13.4633 56.2084 13.39 55.9151 13.39C55.6217 13.39 55.3484 13.4633 55.0951 13.61C54.8417 13.75 54.6351 13.96 54.4751 14.24C54.3217 14.5133 54.2451 14.84 54.2451 15.22C54.2451 15.6 54.3217 15.9333 54.4751 16.22C54.6351 16.5067 54.8417 16.7267 55.0951 16.88C55.3551 17.0267 55.6284 17.1 55.9151 17.1C56.2084 17.1 56.4817 17.0267 56.7351 16.88C56.9884 16.7333 57.1917 16.52 57.3451 16.24C57.5051 15.9533 57.5851 15.62 57.5851 15.24Z" fill="black"/>
</svg>
