<svg xmlns="http://www.w3.org/2000/svg" fill="none" viewBox="0 0 140 42" height="42" width="140">
<path fill="black" d="M3.648 25.084C3.088 25.084 2.584 24.988 2.136 24.796C1.688 24.596 1.336 24.316 1.08 23.956C0.824 23.596 0.696 23.176 0.696 22.696H2.16C2.192 23.056 2.332 23.352 2.58 23.584C2.836 23.816 3.192 23.932 3.648 23.932C4.12 23.932 4.488 23.82 4.752 23.596C5.016 23.364 5.148 23.068 5.148 22.708C5.148 22.428 5.064 22.2 4.896 22.024C4.736 21.848 4.532 21.712 4.284 21.616C4.044 21.52 3.708 21.416 3.276 21.304C2.732 21.16 2.288 21.016 1.944 20.872C1.608 20.72 1.32 20.488 1.08 20.176C0.84 19.864 0.72 19.448 0.72 18.928C0.72 18.448 0.84 18.028 1.08 17.668C1.32 17.308 1.656 17.032 2.088 16.84C2.52 16.648 3.02 16.552 3.588 16.552C4.396 16.552 5.056 16.756 5.568 17.164C6.088 17.564 6.376 18.116 6.432 18.82H4.92C4.896 18.516 4.752 18.256 4.488 18.04C4.224 17.824 3.876 17.716 3.444 17.716C3.052 17.716 2.732 17.816 2.484 18.016C2.236 18.216 2.112 18.504 2.112 18.88C2.112 19.136 2.188 19.348 2.34 19.516C2.5 19.676 2.7 19.804 2.94 19.9C3.18 19.996 3.508 20.1 3.924 20.212C4.476 20.364 4.924 20.516 5.268 20.668C5.62 20.82 5.916 21.056 6.156 21.376C6.404 21.688 6.528 22.108 6.528 22.636C6.528 23.06 6.412 23.46 6.18 23.836C5.956 24.212 5.624 24.516 5.184 24.748C4.752 24.972 4.24 25.084 3.648 25.084ZM7.68619 21.664C7.68619 21 7.82219 20.412 8.09419 19.9C8.37419 19.388 8.75019 18.992 9.22219 18.712C9.70219 18.424 10.2302 18.28 10.8062 18.28C11.3262 18.28 11.7782 18.384 12.1622 18.592C12.5542 18.792 12.8662 19.044 13.0982 19.348V18.388H14.4782V25H13.0982V24.016C12.8662 24.328 12.5502 24.588 12.1502 24.796C11.7502 25.004 11.2942 25.108 10.7822 25.108C10.2142 25.108 9.69419 24.964 9.22219 24.676C8.75019 24.38 8.37419 23.972 8.09419 23.452C7.82219 22.924 7.68619 22.328 7.68619 21.664ZM13.0982 21.688C13.0982 21.232 13.0022 20.836 12.8102 20.5C12.6262 20.164 12.3822 19.908 12.0782 19.732C11.7742 19.556 11.4462 19.468 11.0942 19.468C10.7422 19.468 10.4142 19.556 10.1102 19.732C9.80619 19.9 9.55819 20.152 9.36619 20.488C9.18219 20.816 9.09019 21.208 9.09019 21.664C9.09019 22.12 9.18219 22.52 9.36619 22.864C9.55819 23.208 9.80619 23.472 10.1102 23.656C10.4222 23.832 10.7502 23.92 11.0942 23.92C11.4462 23.92 11.7742 23.832 12.0782 23.656C12.3822 23.48 12.6262 23.224 12.8102 22.888C13.0022 22.544 13.0982 22.144 13.0982 21.688ZM19.107 21.652L21.243 25H19.695L18.267 22.756L16.923 25H15.495L17.631 21.748L15.495 18.388H17.043L18.471 20.632L19.815 18.388H21.243L19.107 21.652ZM25.1313 25.108C24.5073 25.108 23.9433 24.968 23.4393 24.688C22.9353 24.4 22.5393 24 22.2513 23.488C21.9633 22.968 21.8193 22.368 21.8193 21.688C21.8193 21.016 21.9673 20.42 22.2633 19.9C22.5593 19.38 22.9633 18.98 23.4753 18.7C23.9873 18.42 24.5593 18.28 25.1913 18.28C25.8233 18.28 26.3953 18.42 26.9073 18.7C27.4193 18.98 27.8233 19.38 28.1193 19.9C28.4153 20.42 28.5633 21.016 28.5633 21.688C28.5633 22.36 28.4113 22.956 28.1073 23.476C27.8033 23.996 27.3873 24.4 26.8593 24.688C26.3393 24.968 25.7633 25.108 25.1313 25.108ZM25.1313 23.92C25.4833 23.92 25.8113 23.836 26.1153 23.668C26.4273 23.5 26.6793 23.248 26.8713 22.912C27.0633 22.576 27.1593 22.168 27.1593 21.688C27.1593 21.208 27.0673 20.804 26.8833 20.476C26.6993 20.14 26.4553 19.888 26.1513 19.72C25.8473 19.552 25.5193 19.468 25.1673 19.468C24.8153 19.468 24.4873 19.552 24.1833 19.72C23.8873 19.888 23.6513 20.14 23.4753 20.476C23.2993 20.804 23.2113 21.208 23.2113 21.688C23.2113 22.4 23.3913 22.952 23.7513 23.344C24.1193 23.728 24.5793 23.92 25.1313 23.92ZM31.2836 19.36C31.5156 19.056 31.8316 18.8 32.2316 18.592C32.6316 18.384 33.0836 18.28 33.5876 18.28C34.1636 18.28 34.6876 18.424 35.1596 18.712C35.6396 18.992 36.0156 19.388 36.2876 19.9C36.5596 20.412 36.6956 21 36.6956 21.664C36.6956 22.328 36.5596 22.924 36.2876 23.452C36.0156 23.972 35.6396 24.38 35.1596 24.676C34.6876 24.964 34.1636 25.108 33.5876 25.108C33.0836 25.108 32.6356 25.008 32.2436 24.808C31.8516 24.6 31.5316 24.344 31.2836 24.04V28.144H29.9156V18.388H31.2836V19.36ZM35.3036 21.664C35.3036 21.208 35.2076 20.816 35.0156 20.488C34.8316 20.152 34.5836 19.9 34.2716 19.732C33.9676 19.556 33.6396 19.468 33.2876 19.468C32.9436 19.468 32.6156 19.556 32.3036 19.732C31.9996 19.908 31.7516 20.164 31.5596 20.5C31.3756 20.836 31.2836 21.232 31.2836 21.688C31.2836 22.144 31.3756 22.544 31.5596 22.888C31.7516 23.224 31.9996 23.48 32.3036 23.656C32.6156 23.832 32.9436 23.92 33.2876 23.92C33.6396 23.92 33.9676 23.832 34.2716 23.656C34.5836 23.472 34.8316 23.208 35.0156 22.864C35.2076 22.52 35.3036 22.12 35.3036 21.664ZM41.4684 18.28C41.9724 18.28 42.4204 18.388 42.8124 18.604C43.2124 18.82 43.5244 19.14 43.7484 19.564C43.9804 19.988 44.0964 20.5 44.0964 21.1V25H42.7404V21.304C42.7404 20.712 42.5924 20.26 42.2964 19.948C42.0004 19.628 41.5964 19.468 41.0844 19.468C40.5724 19.468 40.1644 19.628 39.8604 19.948C39.5644 20.26 39.4164 20.712 39.4164 21.304V25H38.0484V16.12H39.4164V19.156C39.6484 18.876 39.9404 18.66 40.2924 18.508C40.6524 18.356 41.0444 18.28 41.4684 18.28ZM48.7094 25.108C48.0854 25.108 47.5214 24.968 47.0174 24.688C46.5134 24.4 46.1174 24 45.8294 23.488C45.5414 22.968 45.3974 22.368 45.3974 21.688C45.3974 21.016 45.5454 20.42 45.8414 19.9C46.1374 19.38 46.5414 18.98 47.0534 18.7C47.5654 18.42 48.1374 18.28 48.7694 18.28C49.4014 18.28 49.9734 18.42 50.4854 18.7C50.9974 18.98 51.4014 19.38 51.6974 19.9C51.9934 20.42 52.1414 21.016 52.1414 21.688C52.1414 22.36 51.9894 22.956 51.6854 23.476C51.3814 23.996 50.9654 24.4 50.4374 24.688C49.9174 24.968 49.3414 25.108 48.7094 25.108ZM48.7094 23.92C49.0614 23.92 49.3894 23.836 49.6934 23.668C50.0054 23.5 50.2574 23.248 50.4494 22.912C50.6414 22.576 50.7374 22.168 50.7374 21.688C50.7374 21.208 50.6454 20.804 50.4614 20.476C50.2774 20.14 50.0334 19.888 49.7294 19.72C49.4254 19.552 49.0974 19.468 48.7454 19.468C48.3934 19.468 48.0654 19.552 47.7614 19.72C47.4654 19.888 47.2294 20.14 47.0534 20.476C46.8774 20.804 46.7894 21.208 46.7894 21.688C46.7894 22.4 46.9694 22.952 47.3294 23.344C47.6974 23.728 48.1574 23.92 48.7094 23.92ZM56.8298 18.28C57.3498 18.28 57.8138 18.388 58.2218 18.604C58.6378 18.82 58.9618 19.14 59.1938 19.564C59.4258 19.988 59.5418 20.5 59.5418 21.1V25H58.1858V21.304C58.1858 20.712 58.0378 20.26 57.7418 19.948C57.4458 19.628 57.0418 19.468 56.5298 19.468C56.0178 19.468 55.6098 19.628 55.3058 19.948C55.0098 20.26 54.8618 20.712 54.8618 21.304V25H53.4938V18.388H54.8618V19.144C55.0858 18.872 55.3698 18.66 55.7138 18.508C56.0658 18.356 56.4378 18.28 56.8298 18.28ZM67.3467 21.532C67.3467 21.78 67.3307 22.004 67.2987 22.204H62.2467C62.2867 22.732 62.4827 23.156 62.8347 23.476C63.1867 23.796 63.6187 23.956 64.1307 23.956C64.8667 23.956 65.3867 23.648 65.6907 23.032H67.1667C66.9667 23.64 66.6027 24.14 66.0747 24.532C65.5547 24.916 64.9067 25.108 64.1307 25.108C63.4987 25.108 62.9307 24.968 62.4267 24.688C61.9307 24.4 61.5387 24 61.2507 23.488C60.9707 22.968 60.8307 22.368 60.8307 21.688C60.8307 21.008 60.9667 20.412 61.2387 19.9C61.5187 19.38 61.9067 18.98 62.4027 18.7C62.9067 18.42 63.4827 18.28 64.1307 18.28C64.7547 18.28 65.3107 18.416 65.7987 18.688C66.2867 18.96 66.6667 19.344 66.9387 19.84C67.2107 20.328 67.3467 20.892 67.3467 21.532ZM65.9187 21.1C65.9107 20.596 65.7307 20.192 65.3787 19.888C65.0267 19.584 64.5907 19.432 64.0707 19.432C63.5987 19.432 63.1947 19.584 62.8587 19.888C62.5227 20.184 62.3227 20.588 62.2587 21.1H65.9187Z"></path>
</svg>
