<svg width="40" height="40" viewBox="0 0 40 40" fill="none" xmlns="http://www.w3.org/2000/svg">
<rect width="40" height="40" rx="15" fill="#E6E6E6"/>
<rect x="16.7681" y="14.6699" width="4" height="9" transform="rotate(30 16.7681 14.6699)" fill="black"/>
<path d="M15.2322 25.3301L11.7681 23.3301L11.9036 25.4313C11.9495 26.1434 12.7051 26.5796 13.3447 26.2634L15.2322 25.3301Z" fill="black"/>
<path d="M17.7681 12.9378C18.0442 12.4595 18.6558 12.2957 19.1341 12.5718L20.8661 13.5718C21.3444 13.8479 21.5083 14.4595 21.2322 14.9378L20.7322 15.8038L17.2681 13.8038L17.7681 12.9378Z" fill="black"/>
<path d="M16 26C16 25.4477 16.4477 25 17 25H24C24.5523 25 25 24.5523 25 24V24C25 23.4477 24.5523 23 24 23V23C22.3431 23 21 21.6569 21 20V20C21 18.3431 22.3431 17 24 17H27C27.5523 17 28 17.4477 28 18V18C28 18.5523 27.5523 19 27 19H24C23.4477 19 23 19.4477 23 20V20C23 20.5523 23.4477 21 24 21V21C25.6569 21 27 22.3431 27 24V24C27 25.6569 25.6569 27 24 27H17C16.4477 27 16 26.5523 16 26V26Z" fill="black"/>
</svg>
