<svg xmlns="http://www.w3.org/2000/svg" fill="none" viewBox="0 0 60 80" height="80" width="60">
<path fill="#58ACFF" d="M30.1637 52C28.4357 52 26.8757 51.604 25.4837 50.812C24.1157 49.996 23.0237 48.892 22.2077 47.5C21.4157 46.108 21.0197 44.548 21.0197 42.82C21.0197 42.292 21.1877 41.86 21.5237 41.524C21.8597 41.164 22.2917 40.984 22.8197 40.984C23.3477 40.984 23.7917 41.164 24.1517 41.524C24.5117 41.86 24.6917 42.292 24.6917 42.82C24.6917 43.852 24.9317 44.788 25.4117 45.628C25.8917 46.468 26.5397 47.128 27.3557 47.608C28.1957 48.088 29.1317 48.328 30.1637 48.328C31.2197 48.328 32.1557 48.088 32.9717 47.608C33.8117 47.128 34.4717 46.468 34.9517 45.628C35.4317 44.788 35.6717 43.852 35.6717 42.82C35.6717 41.764 35.4317 40.828 34.9517 40.012C34.4717 39.172 33.8117 38.512 32.9717 38.032C32.1557 37.552 31.2197 37.312 30.1637 37.312H24.1517C23.6237 37.312 23.1917 37.144 22.8557 36.808C22.5197 36.448 22.3517 36.004 22.3517 35.476V25.756C22.3517 25.228 22.5197 24.784 22.8557 24.424C23.1917 24.064 23.6237 23.884 24.1517 23.884H36.1757C36.6797 23.884 37.1117 24.076 37.4717 24.46C37.8317 24.82 38.0117 25.252 38.0117 25.756C38.0117 26.236 37.8317 26.656 37.4717 27.016C37.1357 27.376 36.7037 27.556 36.1757 27.556H25.9877V33.64H30.1637C31.9157 33.64 33.4757 34.048 34.8437 34.864C36.2357 35.656 37.3277 36.748 38.1197 38.14C38.9357 39.508 39.3437 41.068 39.3437 42.82C39.3437 44.548 38.9357 46.108 38.1197 47.5C37.3277 48.892 36.2357 49.996 34.8437 50.812C33.4757 51.604 31.9157 52 30.1637 52Z"></path>
<path fill="#58ACFF" d="M25.4837 50.812L24.9714 51.6708C24.9773 51.6743 24.9832 51.6778 24.9892 51.6812L25.4837 50.812ZM22.2077 47.5L21.3385 47.9946L21.345 48.0057L22.2077 47.5ZM21.5237 41.524L22.2308 42.2311C22.2389 42.223 22.2469 42.2147 22.2547 42.2063L21.5237 41.524ZM24.1517 41.524L23.4446 42.2311C23.4527 42.2392 23.461 42.2472 23.4694 42.2551L24.1517 41.524ZM25.4117 45.628L24.5434 46.1241L24.5434 46.1241L25.4117 45.628ZM27.3557 47.608L26.8486 48.47L26.8595 48.4762L27.3557 47.608ZM32.9717 47.608L32.4755 46.7397L32.4647 46.7461L32.9717 47.608ZM34.9517 45.628L35.8199 46.1241L35.8199 46.1241L34.9517 45.628ZM34.9517 40.012L34.0834 40.5082L34.0898 40.519L34.9517 40.012ZM32.9717 38.032L32.4646 38.894L32.4755 38.9002L32.9717 38.032ZM22.8557 36.808L22.1246 37.4903C22.1325 37.4987 22.1405 37.507 22.1486 37.5151L22.8557 36.808ZM22.8557 24.424L22.1246 23.7417L22.1246 23.7417L22.8557 24.424ZM37.4717 24.46L36.7422 25.1439C36.7495 25.1518 36.757 25.1595 36.7646 25.1671L37.4717 24.46ZM37.4717 27.016L36.7646 26.3089C36.7565 26.317 36.7485 26.3253 36.7406 26.3337L37.4717 27.016ZM25.9877 27.556V26.556C25.4354 26.556 24.9877 27.0037 24.9877 27.556H25.9877ZM25.9877 33.64H24.9877C24.9877 34.1923 25.4354 34.64 25.9877 34.64V33.64ZM34.8437 34.864L34.3314 35.7228C34.3373 35.7263 34.3432 35.7298 34.3492 35.7332L34.8437 34.864ZM38.1197 38.14L37.2505 38.6345C37.2539 38.6405 37.2574 38.6464 37.2609 38.6523L38.1197 38.14ZM38.1197 47.5L37.2569 46.9942L37.2505 47.0055L38.1197 47.5ZM34.8437 50.812L35.3447 51.6774L35.3494 51.6747L34.8437 50.812ZM30.1637 51C28.595 51 27.2077 50.6424 25.9782 49.9428L24.9892 51.6812C26.5437 52.5656 28.2764 53 30.1637 53V51ZM25.996 49.9532C24.7746 49.2246 23.8023 48.2429 23.0704 46.9943L21.345 48.0057C22.245 49.5411 23.4568 50.7674 24.9714 51.6708L25.996 49.9532ZM23.0769 47.0055C22.3773 45.776 22.0197 44.3887 22.0197 42.82H20.0197C20.0197 44.7073 20.4541 46.44 21.3385 47.9945L23.0769 47.0055ZM22.0197 42.82C22.0197 42.5249 22.104 42.3579 22.2308 42.2311L20.8166 40.8169C20.2714 41.3621 20.0197 42.0591 20.0197 42.82H22.0197ZM22.2547 42.2063C22.3869 42.0648 22.5465 41.984 22.8197 41.984V39.984C22.0369 39.984 21.3325 40.2632 20.7926 40.8417L22.2547 42.2063ZM22.8197 41.984C23.0935 41.984 23.2797 42.0663 23.4446 42.2311L24.8588 40.8169C24.3036 40.2617 23.6019 39.984 22.8197 39.984V41.984ZM23.4694 42.2551C23.6109 42.3872 23.6917 42.5468 23.6917 42.82H25.6917C25.6917 42.0372 25.4125 41.3328 24.834 40.7929L23.4694 42.2551ZM23.6917 42.82C23.6917 44.014 23.9713 45.1229 24.5434 46.1241L26.2799 45.1319C25.892 44.4531 25.6917 43.69 25.6917 42.82H23.6917ZM24.5434 46.1241C25.1079 47.112 25.879 47.8996 26.8487 48.4699L27.8627 46.7461C27.2003 46.3564 26.6754 45.824 26.2799 45.1319L24.5434 46.1241ZM26.8595 48.4762C27.8607 49.0484 28.9697 49.328 30.1637 49.328V47.328C29.2937 47.328 28.5306 47.1276 27.8518 46.7398L26.8595 48.4762ZM30.1637 49.328C31.3769 49.328 32.4918 49.0505 33.4787 48.4699L32.4647 46.7461C31.8196 47.1255 31.0625 47.328 30.1637 47.328V49.328ZM33.4678 48.4762C34.4629 47.9077 35.2513 47.1192 35.8199 46.1241L34.0834 45.1319C33.692 45.8168 33.1605 46.3483 32.4755 46.7398L33.4678 48.4762ZM35.8199 46.1241C36.392 45.1229 36.6717 44.014 36.6717 42.82H34.6717C34.6717 43.69 34.4713 44.4531 34.0834 45.1319L35.8199 46.1241ZM36.6717 42.82C36.6717 41.6068 36.3941 40.4919 35.8136 39.505L34.0898 40.519C34.4692 41.1641 34.6717 41.9212 34.6717 42.82H36.6717ZM35.8199 39.5159C35.2513 38.5208 34.4629 37.7323 33.4678 37.1638L32.4755 38.9002C33.1605 39.2917 33.692 39.8232 34.0834 40.5081L35.8199 39.5159ZM33.4787 37.1701C32.4918 36.5895 31.3769 36.312 30.1637 36.312V38.312C31.0625 38.312 31.8196 38.5145 32.4647 38.8939L33.4787 37.1701ZM30.1637 36.312H24.1517V38.312H30.1637V36.312ZM24.1517 36.312C23.8566 36.312 23.6896 36.2277 23.5628 36.1009L22.1486 37.5151C22.6938 38.0603 23.3908 38.312 24.1517 38.312V36.312ZM23.5867 36.1257C23.4368 35.965 23.3517 35.7707 23.3517 35.476H21.3517C21.3517 36.2373 21.6026 36.931 22.1246 37.4903L23.5867 36.1257ZM23.3517 35.476V25.756H21.3517V35.476H23.3517ZM23.3517 25.756C23.3517 25.4613 23.4368 25.267 23.5867 25.1063L22.1246 23.7417C21.6026 24.301 21.3517 24.9947 21.3517 25.756H23.3517ZM23.5867 25.1063C23.7189 24.9648 23.8785 24.884 24.1517 24.884V22.884C23.3689 22.884 22.6645 23.1632 22.1246 23.7417L23.5867 25.1063ZM24.1517 24.884H36.1757V22.884H24.1517V24.884ZM36.1757 24.884C36.3898 24.884 36.5618 24.9515 36.7422 25.1439L38.2012 23.7761C37.6616 23.2005 36.9696 22.884 36.1757 22.884V24.884ZM36.7646 25.1671C36.9392 25.3417 37.0117 25.5202 37.0117 25.756H39.0117C39.0117 24.9838 38.7242 24.2983 38.1788 23.7529L36.7646 25.1671ZM37.0117 25.756C37.0117 25.9534 36.9497 26.1238 36.7646 26.3089L38.1788 27.7231C38.7137 27.1882 39.0117 26.5186 39.0117 25.756H37.0117ZM36.7406 26.3337C36.6085 26.4752 36.4489 26.556 36.1757 26.556V28.556C36.9585 28.556 37.6629 28.2768 38.2027 27.6983L36.7406 26.3337ZM36.1757 26.556H25.9877V28.556H36.1757V26.556ZM24.9877 27.556V33.64H26.9877V27.556H24.9877ZM25.9877 34.64H30.1637V32.64H25.9877V34.64ZM30.1637 34.64C31.7539 34.64 33.1335 35.0083 34.3314 35.7228L35.356 34.0052C33.8179 33.0877 32.0775 32.64 30.1637 32.64V34.64ZM34.3492 35.7332C35.5849 36.4362 36.5474 37.3988 37.2505 38.6345L38.9889 37.6455C38.1079 36.0972 36.8865 34.8758 35.3382 33.9948L34.3492 35.7332ZM37.2609 38.6523C37.9754 39.8502 38.3437 41.2298 38.3437 42.82H40.3437C40.3437 40.9062 39.896 39.1658 38.9785 37.6277L37.2609 38.6523ZM38.3437 42.82C38.3437 44.3833 37.9767 45.7665 37.257 46.9943L38.9824 48.0057C39.8947 46.4495 40.3437 44.7127 40.3437 42.82H38.3437ZM37.2505 47.0055C36.546 48.2438 35.5798 49.2213 34.338 49.9493L35.3494 51.6747C36.8916 50.7707 38.1094 49.5402 38.9889 47.9945L37.2505 47.0055ZM34.3427 49.9466C33.143 50.6411 31.7593 51 30.1637 51V53C32.0721 53 33.8084 52.5669 35.3447 51.6774L34.3427 49.9466Z"></path>
</svg>
