<svg width="176" height="30" viewBox="0 0 176 30" fill="none" xmlns="http://www.w3.org/2000/svg">
<path d="M103 15C103 6.71573 96.2843 0 88 0C79.7157 0 73 6.71573 73 15C73 23.2843 79.7157 30 88 30C96.2843 30 103 23.2843 103 15Z" fill="white" fill-opacity="0.1"/>
<path d="M123 11.1085C123 10.3231 123.864 9.84425 124.53 10.2605L130.756 14.152C131.383 14.5437 131.383 15.4563 130.756 15.848L124.53 19.7395C123.864 20.1558 123 19.6769 123 18.8915V11.1085Z" stroke="white" stroke-width="2"/>
<path d="M134 10C134 9.44772 133.552 9 133 9C132.448 9 132 9.44772 132 10V20C132 20.5523 132.448 21 133 21C133.552 21 134 20.5523 134 20V10Z" fill="white"/>
<path d="M53 18.8915C53 19.6769 52.136 20.1558 51.47 19.7395L45.2436 15.848C44.6169 15.4563 44.6169 14.5437 45.2436 14.152L51.47 10.2605C52.136 9.84425 53 10.3231 53 11.1085V18.8915Z" stroke="white" stroke-width="2"/>
<path d="M42 20C42 20.5523 42.4477 21 43 21C43.5523 21 44 20.5523 44 20V10C44 9.44771 43.5523 9 43 9C42.4477 9 42 9.44771 42 10V20Z" fill="white"/>
<path d="M172.33 12.5001C172.808 12.224 172.978 11.6054 172.626 11.1795C171.963 10.3766 171.099 9.75539 170.113 9.38456C168.814 8.89559 167.386 8.87222 166.071 9.31842C164.757 9.76462 163.638 10.6528 162.905 11.8316C162.172 13.0104 161.87 14.4069 162.051 15.7832C162.233 17.1594 162.885 18.4303 163.898 19.3792C164.912 20.3281 166.222 20.8964 167.608 20.9872C168.993 21.0779 170.367 20.6856 171.495 19.8771C172.351 19.2639 173.025 18.44 173.458 17.4929C173.687 16.9905 173.363 16.437 172.829 16.294C172.296 16.1511 171.758 16.4774 171.487 16.9589C171.202 17.4656 170.809 17.9078 170.33 18.2511C169.578 18.79 168.662 19.0516 167.738 18.991C166.815 18.9305 165.941 18.5517 165.266 17.9192C164.591 17.2866 164.155 16.4395 164.035 15.5221C163.914 14.6046 164.115 13.6737 164.604 12.8879C165.092 12.1021 165.838 11.5101 166.714 11.2127C167.591 10.9152 168.543 10.9308 169.409 11.2568C169.96 11.4643 170.455 11.7895 170.861 12.2053C171.247 12.6004 171.852 12.7762 172.33 12.5001Z" fill="white"/>
<rect x="167.5" y="14.5" width="8" height="8" rx="4" fill="white" stroke="#323232"/>
<rect x="171" y="17" width="1" height="3" rx="0.5" fill="black"/>
<path d="M169 13C169 12.4477 169.448 12 170 12H172V10C172 9.44772 172.448 9 173 9C173.552 9 174 9.44772 174 10V13C174 13.5523 173.552 14 173 14H170C169.448 14 169 13.5523 169 13Z" fill="white"/>
<path d="M2 12C2 11.4477 2.44772 11 3 11H4C6.20914 11 8 12.7909 8 15C8 16.1046 8.89543 17 10 17H13C13.5523 17 14 17.4477 14 18C14 18.5523 13.5523 19 13 19H10C7.79086 19 6 17.2091 6 15C6 13.8954 5.10457 13 4 13H3C2.44772 13 2 12.5523 2 12Z" fill="white"/>
<path d="M14 12C14 11.4477 13.5523 11 13 11H10C7.79086 11 6 12.7909 6 15C6 16.1046 5.10457 17 4 17H3C2.44772 17 2 17.4477 2 18C2 18.5523 2.44772 19 3 19H4C6.20914 19 8 17.2091 8 15C8 13.8954 8.89543 13 10 13H13C13.5523 13 14 12.5523 14 12Z" fill="white"/>
<path d="M10.6109 14.4748C10.2203 14.0842 10.2203 13.4511 10.6109 13.0606L11.6715 11.9999L10.6109 10.9392C10.2203 10.5487 10.2203 9.9156 10.6109 9.52508C11.0014 9.13455 11.6345 9.13455 12.0251 9.52508L13.7928 11.2928C14.1834 11.6833 14.1834 12.3165 13.7928 12.707L12.0251 14.4748C11.6345 14.8653 11.0014 14.8653 10.6109 14.4748Z" fill="white"/>
<path d="M10.6109 20.4749C10.2203 20.0843 10.2203 19.4512 10.6109 19.0607L11.6715 18L10.6109 16.9393C10.2203 16.5488 10.2203 15.9157 10.6109 15.5251C11.0014 15.1346 11.6345 15.1346 12.0251 15.5251L13.7928 17.2929C14.1834 17.6834 14.1834 18.3166 13.7928 18.7071L12.0251 20.4749C11.6345 20.8654 11.0014 20.8654 10.6109 20.4749Z" fill="white"/>
<rect x="83" y="10" width="10" height="10" rx="2" stroke="white" stroke-width="2"/>
</svg>
