<svg width="80" height="28" viewBox="0 0 80 28" fill="none" xmlns="http://www.w3.org/2000/svg">
<rect width="80" height="28" rx="5" fill="#E6E6E6"/>
<path d="M11.33 11.76C11.1233 11.76 10.95 11.69 10.81 11.55C10.67 11.41 10.6 11.2367 10.6 11.03C10.6 10.8233 10.67 10.65 10.81 10.51C10.95 10.37 11.1233 10.3 11.33 10.3C11.53 10.3 11.7 10.37 11.84 10.51C11.98 10.65 12.05 10.8233 12.05 11.03C12.05 11.2367 11.98 11.41 11.84 11.55C11.7 11.69 11.53 11.76 11.33 11.76ZM11.89 19.08C11.89 19.62 11.7533 20.01 11.48 20.25C11.2133 20.4967 10.8233 20.62 10.31 20.62H9.72V19.66H10.11C10.3433 19.66 10.5067 19.6133 10.6 19.52C10.7 19.4333 10.75 19.2867 10.75 19.08V12.49H11.89V19.08ZM14.5267 10.6V18H13.3867V10.6H14.5267ZM18.4134 18.09C17.8934 18.09 17.4234 17.9733 17.0034 17.74C16.5834 17.5 16.2534 17.1667 16.0134 16.74C15.7734 16.3067 15.6534 15.8067 15.6534 15.24C15.6534 14.68 15.7768 14.1833 16.0234 13.75C16.2701 13.3167 16.6068 12.9833 17.0334 12.75C17.4601 12.5167 17.9368 12.4 18.4634 12.4C18.9901 12.4 19.4668 12.5167 19.8934 12.75C20.3201 12.9833 20.6568 13.3167 20.9034 13.75C21.1501 14.1833 21.2734 14.68 21.2734 15.24C21.2734 15.8 21.1468 16.2967 20.8934 16.73C20.6401 17.1633 20.2934 17.5 19.8534 17.74C19.4201 17.9733 18.9401 18.09 18.4134 18.09ZM18.4134 17.1C18.7068 17.1 18.9801 17.03 19.2334 16.89C19.4934 16.75 19.7034 16.54 19.8634 16.26C20.0234 15.98 20.1034 15.64 20.1034 15.24C20.1034 14.84 20.0268 14.5033 19.8734 14.23C19.7201 13.95 19.5168 13.74 19.2634 13.6C19.0101 13.46 18.7368 13.39 18.4434 13.39C18.1501 13.39 17.8768 13.46 17.6234 13.6C17.3768 13.74 17.1801 13.95 17.0334 14.23C16.8868 14.5033 16.8134 14.84 16.8134 15.24C16.8134 15.8333 16.9634 16.2933 17.2634 16.62C17.5701 16.94 17.9534 17.1 18.4134 17.1ZM22.0204 15.22C22.0204 14.6667 22.1337 14.1767 22.3604 13.75C22.5937 13.3233 22.9071 12.9933 23.3004 12.76C23.7004 12.52 24.1404 12.4 24.6204 12.4C25.0537 12.4 25.4304 12.4867 25.7504 12.66C26.0771 12.8267 26.3371 13.0367 26.5304 13.29V12.49H27.6804V18H26.5304V17.18C26.3371 17.44 26.0737 17.6567 25.7404 17.83C25.4071 18.0033 25.0271 18.09 24.6004 18.09C24.1271 18.09 23.6937 17.97 23.3004 17.73C22.9071 17.4833 22.5937 17.1433 22.3604 16.71C22.1337 16.27 22.0204 15.7733 22.0204 15.22ZM26.5304 15.24C26.5304 14.86 26.4504 14.53 26.2904 14.25C26.1371 13.97 25.9337 13.7567 25.6804 13.61C25.4271 13.4633 25.1537 13.39 24.8604 13.39C24.5671 13.39 24.2937 13.4633 24.0404 13.61C23.7871 13.75 23.5804 13.96 23.4204 14.24C23.2671 14.5133 23.1904 14.84 23.1904 15.22C23.1904 15.6 23.2671 15.9333 23.4204 16.22C23.5804 16.5067 23.7871 16.7267 24.0404 16.88C24.3004 17.0267 24.5737 17.1 24.8604 17.1C25.1537 17.1 25.4271 17.0267 25.6804 16.88C25.9337 16.7333 26.1371 16.52 26.2904 16.24C26.4504 15.9533 26.5304 15.62 26.5304 15.24ZM34.1677 12.49V18H33.0277V17.35C32.8477 17.5767 32.6111 17.7567 32.3177 17.89C32.0311 18.0167 31.7244 18.08 31.3977 18.08C30.9644 18.08 30.5744 17.99 30.2277 17.81C29.8877 17.63 29.6177 17.3633 29.4177 17.01C29.2244 16.6567 29.1277 16.23 29.1277 15.73V12.49H30.2577V15.56C30.2577 16.0533 30.3811 16.4333 30.6277 16.7C30.8744 16.96 31.2111 17.09 31.6377 17.09C32.0644 17.09 32.4011 16.96 32.6477 16.7C32.9011 16.4333 33.0277 16.0533 33.0277 15.56V12.49H34.1677Z" fill="black"/>
</svg>
