<svg xmlns="http://www.w3.org/2000/svg" fill="none" viewBox="0 0 90 30" height="30" width="90">
<rect fill-opacity="0.25" fill="white" rx="15" height="30" width="90"></rect>
<path fill="black" d="M17.4931 10.66C18.3811 10.66 19.1571 10.832 19.8211 11.176C20.4931 11.512 21.0091 12 21.3691 12.64C21.7371 13.272 21.9211 14.012 21.9211 14.86C21.9211 15.708 21.7371 16.444 21.3691 17.068C21.0091 17.692 20.4931 18.172 19.8211 18.508C19.1571 18.836 18.3811 19 17.4931 19H14.7691V10.66H17.4931ZM17.4931 17.884C18.4691 17.884 19.2171 17.62 19.7371 17.092C20.2571 16.564 20.5171 15.82 20.5171 14.86C20.5171 13.892 20.2571 13.136 19.7371 12.592C19.2171 12.048 18.4691 11.776 17.4931 11.776H16.1371V17.884H17.4931ZM24.645 13.348C24.845 13.012 25.109 12.752 25.437 12.568C25.773 12.376 26.169 12.28 26.625 12.28V13.696H26.277C25.741 13.696 25.333 13.832 25.053 14.104C24.781 14.376 24.645 14.848 24.645 15.52V19H23.277V12.388H24.645V13.348ZM27.4264 15.664C27.4264 15 27.5624 14.412 27.8344 13.9C28.1144 13.388 28.4904 12.992 28.9624 12.712C29.4424 12.424 29.9704 12.28 30.5464 12.28C31.0664 12.28 31.5184 12.384 31.9024 12.592C32.2944 12.792 32.6064 13.044 32.8384 13.348V12.388H34.2184V19H32.8384V18.016C32.6064 18.328 32.2904 18.588 31.8904 18.796C31.4904 19.004 31.0344 19.108 30.5224 19.108C29.9544 19.108 29.4344 18.964 28.9624 18.676C28.4904 18.38 28.1144 17.972 27.8344 17.452C27.5624 16.924 27.4264 16.328 27.4264 15.664ZM32.8384 15.688C32.8384 15.232 32.7424 14.836 32.5504 14.5C32.3664 14.164 32.1224 13.908 31.8184 13.732C31.5144 13.556 31.1864 13.468 30.8344 13.468C30.4824 13.468 30.1544 13.556 29.8504 13.732C29.5464 13.9 29.2984 14.152 29.1064 14.488C28.9224 14.816 28.8304 15.208 28.8304 15.664C28.8304 16.12 28.9224 16.52 29.1064 16.864C29.2984 17.208 29.5464 17.472 29.8504 17.656C30.1624 17.832 30.4904 17.92 30.8344 17.92C31.1864 17.92 31.5144 17.832 31.8184 17.656C32.1224 17.48 32.3664 17.224 32.5504 16.888C32.7424 16.544 32.8384 16.144 32.8384 15.688ZM44.8952 12.388L42.8432 19H41.4032L40.0712 14.116L38.7392 19H37.2992L35.2352 12.388H36.6272L38.0072 17.704L39.4112 12.388H40.8392L42.1832 17.68L43.5512 12.388H44.8952ZM54.4228 10.66V11.776H52.2028V19H50.8348V11.776H48.6028V10.66H54.4228ZM59.2282 12.28C59.7322 12.28 60.1802 12.388 60.5722 12.604C60.9722 12.82 61.2842 13.14 61.5082 13.564C61.7402 13.988 61.8562 14.5 61.8562 15.1V19H60.5002V15.304C60.5002 14.712 60.3522 14.26 60.0562 13.948C59.7602 13.628 59.3562 13.468 58.8442 13.468C58.3322 13.468 57.9242 13.628 57.6202 13.948C57.3242 14.26 57.1762 14.712 57.1762 15.304V19H55.8082V10.12H57.1762V13.156C57.4082 12.876 57.7002 12.66 58.0522 12.508C58.4122 12.356 58.8042 12.28 59.2282 12.28ZM64.2972 11.512C64.0492 11.512 63.8412 11.428 63.6732 11.26C63.5052 11.092 63.4212 10.884 63.4212 10.636C63.4212 10.388 63.5052 10.18 63.6732 10.012C63.8412 9.844 64.0492 9.76 64.2972 9.76C64.5372 9.76 64.7412 9.844 64.9092 10.012C65.0772 10.18 65.1612 10.388 65.1612 10.636C65.1612 10.884 65.0772 11.092 64.9092 11.26C64.7412 11.428 64.5372 11.512 64.2972 11.512ZM64.9692 12.388V19H63.6012V12.388H64.9692ZM69.1652 19.108C68.6452 19.108 68.1772 19.016 67.7612 18.832C67.3532 18.64 67.0292 18.384 66.7892 18.064C66.5492 17.736 66.4212 17.372 66.4052 16.972H67.8212C67.8452 17.252 67.9772 17.488 68.2172 17.68C68.4652 17.864 68.7732 17.956 69.1412 17.956C69.5252 17.956 69.8212 17.884 70.0292 17.74C70.2452 17.588 70.3532 17.396 70.3532 17.164C70.3532 16.916 70.2332 16.732 69.9932 16.612C69.7612 16.492 69.3892 16.36 68.8772 16.216C68.3812 16.08 67.9772 15.948 67.6652 15.82C67.3532 15.692 67.0812 15.496 66.8492 15.232C66.6252 14.968 66.5132 14.62 66.5132 14.188C66.5132 13.836 66.6172 13.516 66.8252 13.228C67.0332 12.932 67.3292 12.7 67.7132 12.532C68.1052 12.364 68.5532 12.28 69.0572 12.28C69.8092 12.28 70.4132 12.472 70.8692 12.856C71.3332 13.232 71.5812 13.748 71.6132 14.404H70.2452C70.2212 14.108 70.1012 13.872 69.8852 13.696C69.6692 13.52 69.3772 13.432 69.0092 13.432C68.6492 13.432 68.3732 13.5 68.1812 13.636C67.9892 13.772 67.8932 13.952 67.8932 14.176C67.8932 14.352 67.9572 14.5 68.0852 14.62C68.2132 14.74 68.3692 14.836 68.5532 14.908C68.7372 14.972 69.0092 15.056 69.3692 15.16C69.8492 15.288 70.2412 15.42 70.5452 15.556C70.8572 15.684 71.1252 15.876 71.3492 16.132C71.5732 16.388 71.6892 16.728 71.6972 17.152C71.6972 17.528 71.5932 17.864 71.3852 18.16C71.1772 18.456 70.8812 18.688 70.4972 18.856C70.1212 19.024 69.6772 19.108 69.1652 19.108ZM74.8914 10.66L74.7354 16.48H73.5954L73.4394 10.66H74.8914ZM74.2074 19.084C73.9594 19.084 73.7514 19 73.5834 18.832C73.4154 18.664 73.3314 18.456 73.3314 18.208C73.3314 17.96 73.4154 17.752 73.5834 17.584C73.7514 17.416 73.9594 17.332 74.2074 17.332C74.4474 17.332 74.6514 17.416 74.8194 17.584C74.9874 17.752 75.0714 17.96 75.0714 18.208C75.0714 18.456 74.9874 18.664 74.8194 18.832C74.6514 19 74.4474 19.084 74.2074 19.084Z"></path>
</svg>
