<svg width="480" height="360" viewBox="0 0 480 360" fill="none" xmlns="http://www.w3.org/2000/svg">
<rect x="290" y="150" width="180" height="120" rx="15" fill="white" fill-opacity="0.5"/>
<path d="M377 200H383C384.105 200 385 200.895 385 202V208C385 209.105 384.105 210 383 210H377C375.895 210 375 209.105 375 208V202C375 200.895 375.895 200 377 200Z" stroke="black" stroke-width="2"/>
<path d="M416.53 200.26L422.756 204.152C423.383 204.544 423.383 205.456 422.756 205.848L416.53 209.74C415.864 210.156 415 209.677 415 208.892V201.108C415 200.323 415.864 199.844 416.53 200.26Z" stroke="black" stroke-width="2"/>
<rect x="424" y="199" width="2" height="12" rx="1" fill="black"/>
<path d="M343.47 209.74L337.244 205.848C336.617 205.456 336.617 204.544 337.244 204.152L343.47 200.26C344.136 199.844 345 200.323 345 201.108L345 208.892C345 209.677 344.136 210.156 343.47 209.74Z" stroke="black" stroke-width="2"/>
<rect x="336" y="211" width="2" height="12" rx="1" transform="rotate(180 336 211)" fill="black"/>
<path d="M373.28 166.05C373.1 165.703 372.85 165.443 372.53 165.27C372.21 165.09 371.84 165 371.42 165C370.96 165 370.55 165.103 370.19 165.31C369.83 165.517 369.547 165.81 369.34 166.19C369.14 166.57 369.04 167.01 369.04 167.51C369.04 168.01 369.14 168.453 369.34 168.84C369.547 169.22 369.83 169.513 370.19 169.72C370.55 169.927 370.96 170.03 371.42 170.03C372.04 170.03 372.543 169.857 372.93 169.51C373.317 169.163 373.553 168.693 373.64 168.1H371.03V167.19H374.86V168.08C374.787 168.62 374.593 169.117 374.28 169.57C373.973 170.023 373.57 170.387 373.07 170.66C372.577 170.927 372.027 171.06 371.42 171.06C370.767 171.06 370.17 170.91 369.63 170.61C369.09 170.303 368.66 169.88 368.34 169.34C368.027 168.8 367.87 168.19 367.87 167.51C367.87 166.83 368.027 166.22 368.34 165.68C368.66 165.14 369.09 164.72 369.63 164.42C370.177 164.113 370.773 163.96 371.42 163.96C372.16 163.96 372.817 164.143 373.39 164.51C373.97 164.87 374.39 165.383 374.65 166.05H373.28ZM377.124 163.6V171H375.984V163.6H377.124ZM381.011 171.09C380.491 171.09 380.021 170.973 379.601 170.74C379.181 170.5 378.851 170.167 378.611 169.74C378.371 169.307 378.251 168.807 378.251 168.24C378.251 167.68 378.374 167.183 378.621 166.75C378.868 166.317 379.204 165.983 379.631 165.75C380.058 165.517 380.534 165.4 381.061 165.4C381.588 165.4 382.064 165.517 382.491 165.75C382.918 165.983 383.254 166.317 383.501 166.75C383.748 167.183 383.871 167.68 383.871 168.24C383.871 168.8 383.744 169.297 383.491 169.73C383.238 170.163 382.891 170.5 382.451 170.74C382.018 170.973 381.538 171.09 381.011 171.09ZM381.011 170.1C381.304 170.1 381.578 170.03 381.831 169.89C382.091 169.75 382.301 169.54 382.461 169.26C382.621 168.98 382.701 168.64 382.701 168.24C382.701 167.84 382.624 167.503 382.471 167.23C382.318 166.95 382.114 166.74 381.861 166.6C381.608 166.46 381.334 166.39 381.041 166.39C380.748 166.39 380.474 166.46 380.221 166.6C379.974 166.74 379.778 166.95 379.631 167.23C379.484 167.503 379.411 167.84 379.411 168.24C379.411 168.833 379.561 169.293 379.861 169.62C380.168 169.94 380.551 170.1 381.011 170.1ZM392.398 165.49L390.688 171H389.488L388.378 166.93L387.268 171H386.068L384.348 165.49H385.508L386.658 169.92L387.828 165.49H389.018L390.138 169.9L391.278 165.49H392.398Z" fill="black"/>
<path d="M366.278 183.264H368.158V184H365.366V178.44H366.278V183.264ZM369.384 179.008C369.219 179.008 369.08 178.952 368.968 178.84C368.856 178.728 368.8 178.589 368.8 178.424C368.8 178.259 368.856 178.12 368.968 178.008C369.08 177.896 369.219 177.84 369.384 177.84C369.544 177.84 369.68 177.896 369.792 178.008C369.904 178.12 369.96 178.259 369.96 178.424C369.96 178.589 369.904 178.728 369.792 178.84C369.68 178.952 369.544 179.008 369.384 179.008ZM369.832 179.592V184H368.92V179.592H369.832ZM375.334 185.008L374.358 183.952C374.118 184.021 373.854 184.056 373.566 184.056C373.048 184.056 372.571 183.936 372.134 183.696C371.702 183.451 371.358 183.112 371.102 182.68C370.851 182.243 370.726 181.752 370.726 181.208C370.726 180.664 370.851 180.176 371.102 179.744C371.358 179.312 371.702 178.976 372.134 178.736C372.571 178.491 373.048 178.368 373.566 178.368C374.088 178.368 374.566 178.491 374.998 178.736C375.435 178.976 375.779 179.312 376.03 179.744C376.28 180.176 376.406 180.664 376.406 181.208C376.406 181.72 376.294 182.184 376.07 182.6C375.851 183.011 375.547 183.341 375.158 183.592L376.494 185.008H375.334ZM371.662 181.208C371.662 181.619 371.742 181.981 371.902 182.296C372.067 182.605 372.294 182.845 372.582 183.016C372.87 183.181 373.198 183.264 373.566 183.264C373.934 183.264 374.262 183.181 374.55 183.016C374.838 182.845 375.062 182.605 375.222 182.296C375.387 181.981 375.47 181.619 375.47 181.208C375.47 180.797 375.387 180.437 375.222 180.128C375.062 179.819 374.838 179.581 374.55 179.416C374.262 179.251 373.934 179.168 373.566 179.168C373.198 179.168 372.87 179.251 372.582 179.416C372.294 179.581 372.067 179.819 371.902 180.128C371.742 180.437 371.662 180.797 371.662 181.208ZM384.567 178.44L382.919 184H381.887L380.719 179.792L379.479 184L378.455 184.008L376.879 178.44H377.847L378.999 182.968L380.247 178.44H381.271L382.431 182.944L383.591 178.44H384.567ZM389.439 178.44L387.599 181.984V184H386.687V181.984L384.839 178.44H385.855L387.143 181.168L388.431 178.44H389.439ZM391.979 178.44C392.571 178.44 393.088 178.555 393.531 178.784C393.979 179.008 394.323 179.333 394.562 179.76C394.808 180.181 394.931 180.675 394.931 181.24C394.931 181.805 394.808 182.296 394.562 182.712C394.323 183.128 393.979 183.448 393.531 183.672C393.088 183.891 392.571 184 391.979 184H390.163V178.44H391.979ZM391.979 183.256C392.629 183.256 393.128 183.08 393.475 182.728C393.821 182.376 393.995 181.88 393.995 181.24C393.995 180.595 393.821 180.091 393.475 179.728C393.128 179.365 392.629 179.184 391.979 179.184H391.075V183.256H391.979Z" fill="#808080"/>
<rect x="305" y="235" width="150" height="20" rx="10" fill="black" fill-opacity="0.1"/>
</svg>
