<svg width="480" height="360" viewBox="0 0 480 360" fill="none" xmlns="http://www.w3.org/2000/svg">
<rect width="480" height="360" rx="30" fill="#E6E6E6"/>
<path d="M212.145 298.112C211.399 298.112 210.727 297.984 210.129 297.728C209.532 297.461 209.063 297.088 208.721 296.608C208.38 296.128 208.209 295.568 208.209 294.928H210.161C210.204 295.408 210.391 295.803 210.721 296.112C211.063 296.421 211.537 296.576 212.145 296.576C212.775 296.576 213.265 296.427 213.617 296.128C213.969 295.819 214.145 295.424 214.145 294.944C214.145 294.571 214.033 294.267 213.809 294.032C213.596 293.797 213.324 293.616 212.993 293.488C212.673 293.36 212.225 293.221 211.649 293.072C210.924 292.88 210.332 292.688 209.873 292.496C209.425 292.293 209.041 291.984 208.721 291.568C208.401 291.152 208.241 290.597 208.241 289.904C208.241 289.264 208.401 288.704 208.721 288.224C209.041 287.744 209.489 287.376 210.065 287.12C210.641 286.864 211.308 286.736 212.065 286.736C213.143 286.736 214.023 287.008 214.705 287.552C215.399 288.085 215.783 288.821 215.857 289.76H213.841C213.809 289.355 213.617 289.008 213.265 288.72C212.913 288.432 212.449 288.288 211.873 288.288C211.351 288.288 210.924 288.421 210.593 288.688C210.263 288.955 210.097 289.339 210.097 289.84C210.097 290.181 210.199 290.464 210.401 290.688C210.615 290.901 210.881 291.072 211.201 291.2C211.521 291.328 211.959 291.467 212.513 291.616C213.249 291.819 213.847 292.021 214.305 292.224C214.775 292.427 215.169 292.741 215.489 293.168C215.82 293.584 215.985 294.144 215.985 294.848C215.985 295.413 215.831 295.947 215.521 296.448C215.223 296.949 214.78 297.355 214.193 297.664C213.617 297.963 212.935 298.112 212.145 298.112ZM226.218 293.376C226.218 293.707 226.196 294.005 226.154 294.272H219.418C219.471 294.976 219.732 295.541 220.202 295.968C220.671 296.395 221.247 296.608 221.93 296.608C222.911 296.608 223.604 296.197 224.01 295.376H225.977C225.711 296.187 225.226 296.853 224.522 297.376C223.828 297.888 222.964 298.144 221.93 298.144C221.087 298.144 220.33 297.957 219.658 297.584C218.996 297.2 218.474 296.667 218.09 295.984C217.716 295.291 217.53 294.491 217.53 293.584C217.53 292.677 217.711 291.883 218.074 291.2C218.447 290.507 218.964 289.973 219.626 289.6C220.298 289.227 221.066 289.04 221.93 289.04C222.762 289.04 223.503 289.221 224.154 289.584C224.804 289.947 225.311 290.459 225.674 291.12C226.036 291.771 226.218 292.523 226.218 293.376ZM224.314 292.8C224.303 292.128 224.063 291.589 223.594 291.184C223.124 290.779 222.543 290.576 221.85 290.576C221.22 290.576 220.682 290.779 220.234 291.184C219.786 291.579 219.519 292.117 219.434 292.8H224.314ZM230.141 290.672V295.552C230.141 295.883 230.215 296.123 230.365 296.272C230.525 296.411 230.791 296.48 231.165 296.48H232.285V298H230.845C230.023 298 229.394 297.808 228.957 297.424C228.519 297.04 228.301 296.416 228.301 295.552V290.672H227.261V289.184H228.301V286.992H230.141V289.184H232.285V290.672H230.141ZM236.094 290.672V295.552C236.094 295.883 236.168 296.123 236.318 296.272C236.478 296.411 236.744 296.48 237.118 296.48H238.238V298H236.798C235.976 298 235.347 297.808 234.91 297.424C234.472 297.04 234.254 296.416 234.254 295.552V290.672H233.214V289.184H234.254V286.992H236.094V289.184H238.238V290.672H236.094ZM240.847 288.016C240.516 288.016 240.239 287.904 240.015 287.68C239.791 287.456 239.679 287.179 239.679 286.848C239.679 286.517 239.791 286.24 240.015 286.016C240.239 285.792 240.516 285.68 240.847 285.68C241.167 285.68 241.439 285.792 241.663 286.016C241.887 286.24 241.999 286.517 241.999 286.848C241.999 287.179 241.887 287.456 241.663 287.68C241.439 287.904 241.167 288.016 240.847 288.016ZM241.743 289.184V298H239.919V289.184H241.743ZM248.586 289.04C249.279 289.04 249.898 289.184 250.442 289.472C250.996 289.76 251.428 290.187 251.738 290.752C252.047 291.317 252.202 292 252.202 292.8V298H250.394V293.072C250.394 292.283 250.196 291.68 249.802 291.264C249.407 290.837 248.868 290.624 248.186 290.624C247.503 290.624 246.959 290.837 246.554 291.264C246.159 291.68 245.962 292.283 245.962 293.072V298H244.138V289.184H245.962V290.192C246.26 289.829 246.639 289.547 247.098 289.344C247.567 289.141 248.063 289.04 248.586 289.04ZM258.08 289.04C258.763 289.04 259.365 289.179 259.888 289.456C260.421 289.723 260.837 290.059 261.136 290.464V289.184H262.976V298.144C262.976 298.955 262.805 299.675 262.464 300.304C262.123 300.944 261.627 301.445 260.976 301.808C260.336 302.171 259.568 302.352 258.672 302.352C257.477 302.352 256.485 302.069 255.696 301.504C254.907 300.949 254.459 300.192 254.352 299.232H256.16C256.299 299.691 256.592 300.059 257.04 300.336C257.499 300.624 258.043 300.768 258.672 300.768C259.408 300.768 260 300.544 260.448 300.096C260.907 299.648 261.136 298.997 261.136 298.144V296.672C260.827 297.088 260.405 297.44 259.872 297.728C259.349 298.005 258.752 298.144 258.08 298.144C257.312 298.144 256.608 297.952 255.968 297.568C255.339 297.173 254.837 296.629 254.464 295.936C254.101 295.232 253.92 294.437 253.92 293.552C253.92 292.667 254.101 291.883 254.464 291.2C254.837 290.517 255.339 289.989 255.968 289.616C256.608 289.232 257.312 289.04 258.08 289.04ZM261.136 293.584C261.136 292.976 261.008 292.448 260.752 292C260.507 291.552 260.181 291.211 259.776 290.976C259.371 290.741 258.933 290.624 258.464 290.624C257.995 290.624 257.557 290.741 257.152 290.976C256.747 291.2 256.416 291.536 256.16 291.984C255.915 292.421 255.792 292.944 255.792 293.552C255.792 294.16 255.915 294.693 256.16 295.152C256.416 295.611 256.747 295.963 257.152 296.208C257.568 296.443 258.005 296.56 258.464 296.56C258.933 296.56 259.371 296.443 259.776 296.208C260.181 295.973 260.507 295.632 260.752 295.184C261.008 294.725 261.136 294.192 261.136 293.584ZM268.572 298.144C267.879 298.144 267.255 298.021 266.7 297.776C266.156 297.52 265.724 297.179 265.404 296.752C265.084 296.315 264.913 295.829 264.892 295.296H266.78C266.812 295.669 266.988 295.984 267.308 296.24C267.639 296.485 268.049 296.608 268.54 296.608C269.052 296.608 269.447 296.512 269.724 296.32C270.012 296.117 270.156 295.861 270.156 295.552C270.156 295.221 269.996 294.976 269.676 294.816C269.367 294.656 268.871 294.48 268.188 294.288C267.527 294.107 266.988 293.931 266.572 293.76C266.156 293.589 265.793 293.328 265.484 292.976C265.185 292.624 265.036 292.16 265.036 291.584C265.036 291.115 265.175 290.688 265.452 290.304C265.729 289.909 266.124 289.6 266.636 289.376C267.159 289.152 267.756 289.04 268.428 289.04C269.431 289.04 270.236 289.296 270.844 289.808C271.463 290.309 271.793 290.997 271.836 291.872H270.012C269.98 291.477 269.82 291.163 269.532 290.928C269.244 290.693 268.855 290.576 268.364 290.576C267.884 290.576 267.516 290.667 267.26 290.848C267.004 291.029 266.876 291.269 266.876 291.568C266.876 291.803 266.961 292 267.132 292.16C267.303 292.32 267.511 292.448 267.756 292.544C268.001 292.629 268.364 292.741 268.844 292.88C269.484 293.051 270.007 293.227 270.412 293.408C270.828 293.579 271.185 293.835 271.484 294.176C271.783 294.517 271.937 294.971 271.948 295.536C271.948 296.037 271.809 296.485 271.532 296.88C271.255 297.275 270.86 297.584 270.348 297.808C269.847 298.032 269.255 298.144 268.572 298.144Z" fill="black"/>
</svg>
