<svg width="480" height="360" viewBox="0 0 480 360" fill="none" xmlns="http://www.w3.org/2000/svg">
<path d="M0 240C0 228.954 8.95431 220 20 220H460C471.046 220 480 228.954 480 240V360H0V240Z" fill="#E6E6E6"/>
<path d="M407.351 308.52C408.375 307.635 409.18 306.909 409.767 306.344C410.364 305.768 410.86 305.171 411.255 304.552C411.649 303.933 411.847 303.315 411.847 302.696C411.847 302.056 411.692 301.555 411.383 301.192C411.084 300.829 410.609 300.648 409.959 300.648C409.329 300.648 408.839 300.851 408.487 301.256C408.145 301.651 407.964 302.184 407.943 302.856H406.183C406.215 301.64 406.577 300.712 407.271 300.072C407.975 299.421 408.865 299.096 409.943 299.096C411.105 299.096 412.012 299.416 412.663 300.056C413.324 300.696 413.655 301.549 413.655 302.616C413.655 303.384 413.457 304.125 413.063 304.84C412.679 305.544 412.215 306.179 411.671 306.744C411.137 307.299 410.455 307.944 409.623 308.68L408.903 309.32H413.975V310.84H406.199V309.512L407.351 308.52Z" fill="black"/>
<path d="M440.178 302.216C440.242 301.224 440.621 300.451 441.314 299.896C442.018 299.341 442.914 299.064 444.002 299.064C444.749 299.064 445.394 299.197 445.938 299.464C446.482 299.731 446.893 300.093 447.17 300.552C447.447 301.011 447.586 301.528 447.586 302.104C447.586 302.765 447.41 303.331 447.058 303.8C446.706 304.269 446.285 304.584 445.794 304.744V304.808C446.423 305 446.914 305.352 447.266 305.864C447.618 306.365 447.794 307.011 447.794 307.8C447.794 308.429 447.65 308.989 447.362 309.48C447.074 309.971 446.647 310.36 446.082 310.648C445.517 310.925 444.839 311.064 444.05 311.064C442.898 311.064 441.949 310.771 441.202 310.184C440.466 309.587 440.071 308.733 440.018 307.624H441.778C441.821 308.189 442.039 308.653 442.434 309.016C442.829 309.368 443.362 309.544 444.034 309.544C444.685 309.544 445.186 309.368 445.538 309.016C445.89 308.653 446.066 308.189 446.066 307.624C446.066 306.877 445.826 306.349 445.346 306.04C444.877 305.72 444.151 305.56 443.17 305.56H442.754V304.056H443.186C444.05 304.045 444.706 303.901 445.154 303.624C445.613 303.347 445.842 302.909 445.842 302.312C445.842 301.8 445.677 301.395 445.346 301.096C445.015 300.787 444.546 300.632 443.938 300.632C443.341 300.632 442.877 300.787 442.546 301.096C442.215 301.395 442.018 301.768 441.954 302.216H440.178Z" fill="black"/>
<path d="M371.556 278.568V277.192L376.932 269.48H379.14V276.984H380.628V278.568H379.14V281H377.348V278.568H371.556ZM377.428 271.336L373.652 276.984H377.428V271.336Z" fill="black"/>
<path d="M413.371 270.904H408.011V274.088C408.235 273.789 408.565 273.539 409.003 273.336C409.451 273.133 409.925 273.032 410.427 273.032C411.323 273.032 412.048 273.224 412.603 273.608C413.168 273.992 413.568 274.477 413.803 275.064C414.048 275.651 414.171 276.269 414.171 276.92C414.171 277.709 414.016 278.413 413.707 279.032C413.408 279.64 412.955 280.12 412.347 280.472C411.749 280.824 411.013 281 410.139 281C408.976 281 408.043 280.712 407.339 280.136C406.635 279.56 406.213 278.797 406.075 277.848H407.851C407.968 278.349 408.229 278.749 408.635 279.048C409.04 279.336 409.547 279.48 410.155 279.48C410.912 279.48 411.477 279.251 411.851 278.792C412.235 278.333 412.427 277.725 412.427 276.968C412.427 276.2 412.235 275.613 411.851 275.208C411.467 274.792 410.901 274.584 410.155 274.584C409.632 274.584 409.189 274.717 408.827 274.984C408.475 275.24 408.219 275.592 408.059 276.04H406.331V269.304H413.371V270.904Z" fill="black"/>
<path d="M446.099 272.04C445.982 271.549 445.769 271.181 445.459 270.936C445.15 270.691 444.718 270.568 444.163 270.568C443.321 270.568 442.691 270.893 442.275 271.544C441.859 272.184 441.641 273.251 441.619 274.744C441.897 274.275 442.302 273.912 442.835 273.656C443.369 273.4 443.945 273.272 444.563 273.272C445.267 273.272 445.886 273.427 446.419 273.736C446.963 274.035 447.385 274.472 447.683 275.048C447.993 275.624 448.147 276.312 448.147 277.112C448.147 277.859 447.998 278.525 447.699 279.112C447.411 279.699 446.979 280.163 446.403 280.504C445.827 280.835 445.134 281 444.323 281C443.225 281 442.361 280.76 441.731 280.28C441.113 279.789 440.675 279.101 440.419 278.216C440.174 277.331 440.051 276.227 440.051 274.904C440.051 271 441.427 269.048 444.179 269.048C445.246 269.048 446.083 269.336 446.691 269.912C447.31 270.488 447.673 271.197 447.779 272.04H446.099ZM444.163 274.808C443.513 274.808 442.958 275.005 442.499 275.4C442.051 275.784 441.827 276.344 441.827 277.08C441.827 277.816 442.035 278.403 442.451 278.84C442.878 279.267 443.47 279.48 444.227 279.48C444.899 279.48 445.427 279.272 445.811 278.856C446.206 278.44 446.403 277.885 446.403 277.192C446.403 276.467 446.211 275.891 445.827 275.464C445.454 275.027 444.899 274.808 444.163 274.808Z" fill="black"/>
<path d="M379.875 240.744L375.427 251H373.587L378.083 240.936H372.163V239.384H379.875V240.744Z" fill="black"/>
<path d="M407.826 244.904C406.717 244.349 406.162 243.475 406.162 242.28C406.162 241.704 406.306 241.176 406.594 240.696C406.882 240.216 407.314 239.837 407.89 239.56C408.466 239.272 409.17 239.128 410.002 239.128C410.824 239.128 411.522 239.272 412.098 239.56C412.685 239.837 413.122 240.216 413.41 240.696C413.698 241.176 413.842 241.704 413.842 242.28C413.842 242.877 413.688 243.405 413.378 243.864C413.08 244.312 412.68 244.659 412.178 244.904C412.786 245.128 413.266 245.496 413.618 246.008C413.97 246.509 414.146 247.101 414.146 247.784C414.146 248.477 413.97 249.091 413.618 249.624C413.266 250.157 412.776 250.568 412.146 250.856C411.517 251.144 410.802 251.288 410.002 251.288C409.202 251.288 408.488 251.144 407.858 250.856C407.24 250.568 406.754 250.157 406.402 249.624C406.05 249.091 405.874 248.477 405.874 247.784C405.874 247.091 406.05 246.493 406.402 245.992C406.754 245.491 407.229 245.128 407.826 244.904ZM412.098 242.504C412.098 241.907 411.912 241.448 411.538 241.128C411.165 240.808 410.653 240.648 410.002 240.648C409.362 240.648 408.856 240.808 408.482 241.128C408.109 241.448 407.922 241.912 407.922 242.52C407.922 243.053 408.114 243.491 408.498 243.832C408.893 244.163 409.394 244.328 410.002 244.328C410.61 244.328 411.112 244.157 411.506 243.816C411.901 243.475 412.098 243.037 412.098 242.504ZM410.002 245.704C409.298 245.704 408.722 245.88 408.274 246.232C407.837 246.573 407.618 247.069 407.618 247.72C407.618 248.328 407.832 248.824 408.258 249.208C408.685 249.581 409.266 249.768 410.002 249.768C410.728 249.768 411.298 249.576 411.714 249.192C412.141 248.808 412.354 248.317 412.354 247.72C412.354 247.08 412.136 246.584 411.698 246.232C411.272 245.88 410.706 245.704 410.002 245.704Z" fill="black"/>
<path d="M442.154 247.832C442.261 248.365 442.49 248.771 442.842 249.048C443.194 249.325 443.669 249.464 444.266 249.464C445.023 249.464 445.578 249.165 445.93 248.568C446.282 247.971 446.458 246.952 446.458 245.512C446.202 245.875 445.839 246.157 445.37 246.36C444.911 246.552 444.41 246.648 443.866 246.648C443.173 246.648 442.543 246.509 441.978 246.232C441.413 245.944 440.965 245.523 440.634 244.968C440.314 244.403 440.154 243.72 440.154 242.92C440.154 241.747 440.495 240.813 441.178 240.12C441.871 239.416 442.821 239.064 444.026 239.064C445.477 239.064 446.506 239.549 447.114 240.52C447.733 241.48 448.042 242.957 448.042 244.952C448.042 246.328 447.925 247.453 447.69 248.328C447.466 249.203 447.071 249.864 446.506 250.312C445.941 250.76 445.157 250.984 444.154 250.984C443.013 250.984 442.133 250.685 441.514 250.088C440.895 249.491 440.549 248.739 440.474 247.832H442.154ZM444.186 245.112C444.826 245.112 445.327 244.915 445.69 244.52C446.063 244.115 446.25 243.581 446.25 242.92C446.25 242.184 446.053 241.613 445.658 241.208C445.274 240.792 444.746 240.584 444.074 240.584C443.402 240.584 442.869 240.797 442.474 241.224C442.09 241.64 441.898 242.189 441.898 242.872C441.898 243.523 442.085 244.061 442.458 244.488C442.842 244.904 443.418 245.112 444.186 245.112Z" fill="black"/>
<path d="M371.835 335.016C371.835 333.171 372.144 331.731 372.763 330.696C373.392 329.651 374.47 329.128 375.995 329.128C377.52 329.128 378.592 329.651 379.211 330.696C379.84 331.731 380.155 333.171 380.155 335.016C380.155 336.883 379.84 338.344 379.211 339.4C378.592 340.445 377.52 340.968 375.995 340.968C374.47 340.968 373.392 340.445 372.763 339.4C372.144 338.344 371.835 336.883 371.835 335.016ZM378.363 335.016C378.363 334.152 378.304 333.421 378.187 332.824C378.08 332.227 377.856 331.741 377.515 331.368C377.174 330.984 376.667 330.792 375.995 330.792C375.323 330.792 374.816 330.984 374.475 331.368C374.134 331.741 373.904 332.227 373.787 332.824C373.68 333.421 373.627 334.152 373.627 335.016C373.627 335.912 373.68 336.664 373.787 337.272C373.894 337.88 374.118 338.371 374.459 338.744C374.811 339.117 375.323 339.304 375.995 339.304C376.667 339.304 377.174 339.117 377.515 338.744C377.867 338.371 378.096 337.88 378.203 337.272C378.31 336.664 378.363 335.912 378.363 335.016Z" fill="black"/>
<path d="M373.923 301V299.336H377.251V311H375.411V301H373.923Z" fill="black"/>
<rect x="98" y="331" width="214" height="8" rx="4" stroke="black" stroke-width="2"/>
<path d="M341.168 337.949L336.905 331.555C336.462 330.89 336.938 330 337.737 330H346.263C347.062 330 347.538 330.89 347.095 331.555L342.832 337.949C342.436 338.543 341.564 338.543 341.168 337.949Z" stroke="black" stroke-width="2"/>
<path d="M70.0359 281.112C69.2892 281.112 68.6172 280.984 68.0199 280.728C67.4225 280.461 66.9532 280.088 66.6119 279.608C66.2705 279.128 66.0999 278.568 66.0999 277.928H68.0519C68.0945 278.408 68.2812 278.803 68.6119 279.112C68.9532 279.421 69.4279 279.576 70.0359 279.576C70.6652 279.576 71.1559 279.427 71.5079 279.128C71.8599 278.819 72.0359 278.424 72.0359 277.944C72.0359 277.571 71.9239 277.267 71.6999 277.032C71.4865 276.797 71.2145 276.616 70.8839 276.488C70.5639 276.36 70.1159 276.221 69.5399 276.072C68.8145 275.88 68.2225 275.688 67.7639 275.496C67.3159 275.293 66.9319 274.984 66.6119 274.568C66.2919 274.152 66.1319 273.597 66.1319 272.904C66.1319 272.264 66.2919 271.704 66.6119 271.224C66.9319 270.744 67.3799 270.376 67.9559 270.12C68.5319 269.864 69.1985 269.736 69.9559 269.736C71.0332 269.736 71.9132 270.008 72.5959 270.552C73.2892 271.085 73.6732 271.821 73.7479 272.76H71.7319C71.6999 272.355 71.5079 272.008 71.1559 271.72C70.8039 271.432 70.3399 271.288 69.7639 271.288C69.2412 271.288 68.8145 271.421 68.4839 271.688C68.1532 271.955 67.9879 272.339 67.9879 272.84C67.9879 273.181 68.0892 273.464 68.2919 273.688C68.5052 273.901 68.7719 274.072 69.0919 274.2C69.4119 274.328 69.8492 274.467 70.4039 274.616C71.1399 274.819 71.7372 275.021 72.1959 275.224C72.6652 275.427 73.0599 275.741 73.3799 276.168C73.7105 276.584 73.8759 277.144 73.8759 277.848C73.8759 278.413 73.7212 278.947 73.4119 279.448C73.1132 279.949 72.6705 280.355 72.0839 280.664C71.5079 280.963 70.8252 281.112 70.0359 281.112Z" fill="black"/>
<path d="M103.16 269.88C104.344 269.88 105.379 270.109 106.264 270.568C107.16 271.016 107.848 271.667 108.328 272.52C108.819 273.363 109.064 274.349 109.064 275.48C109.064 276.611 108.819 277.592 108.328 278.424C107.848 279.256 107.16 279.896 106.264 280.344C105.379 280.781 104.344 281 103.16 281H99.5281V269.88H103.16ZM103.16 279.512C104.461 279.512 105.459 279.16 106.152 278.456C106.845 277.752 107.192 276.76 107.192 275.48C107.192 274.189 106.845 273.181 106.152 272.456C105.459 271.731 104.461 271.368 103.16 271.368H101.352V279.512H103.16Z" fill="black"/>
<path d="M141.627 269.88V271.368H136.907V274.648H140.587V276.136H136.907V281H135.083V269.88H141.627Z" fill="black"/>
<path d="M175.061 273.08C174.773 272.525 174.373 272.109 173.861 271.832C173.349 271.544 172.757 271.4 172.085 271.4C171.349 271.4 170.693 271.565 170.117 271.896C169.541 272.227 169.087 272.696 168.757 273.304C168.437 273.912 168.277 274.616 168.277 275.416C168.277 276.216 168.437 276.925 168.757 277.544C169.087 278.152 169.541 278.621 170.117 278.952C170.693 279.283 171.349 279.448 172.085 279.448C173.077 279.448 173.882 279.171 174.501 278.616C175.119 278.061 175.498 277.309 175.637 276.36H171.461V274.904H177.589V276.328C177.471 277.192 177.162 277.987 176.661 278.712C176.17 279.437 175.525 280.019 174.725 280.456C173.935 280.883 173.055 281.096 172.085 281.096C171.039 281.096 170.085 280.856 169.221 280.376C168.357 279.885 167.669 279.208 167.157 278.344C166.655 277.48 166.405 276.504 166.405 275.416C166.405 274.328 166.655 273.352 167.157 272.488C167.669 271.624 168.357 270.952 169.221 270.472C170.095 269.981 171.05 269.736 172.085 269.736C173.269 269.736 174.319 270.029 175.237 270.616C176.165 271.192 176.837 272.013 177.253 273.08H175.061Z" fill="black"/>
<path d="M210.439 269.88V281H208.615V276.136H203.383V281H201.559V269.88H203.383V274.648H208.615V269.88H210.439Z" fill="black"/>
<path d="M242.748 269.88V277.896C242.748 278.888 242.444 279.672 241.836 280.248C241.239 280.824 240.45 281.112 239.468 281.112C238.487 281.112 237.692 280.824 237.084 280.248C236.487 279.672 236.188 278.888 236.188 277.896H238.028C238.039 278.387 238.162 278.776 238.396 279.064C238.642 279.352 238.999 279.496 239.468 279.496C239.938 279.496 240.295 279.352 240.54 279.064C240.786 278.765 240.908 278.376 240.908 277.896V269.88H242.748Z" fill="black"/>
<path d="M276.266 281L271.962 276.024V281H270.138V269.88H271.962V274.952L276.282 269.88H278.57L273.738 275.448L278.65 281H276.266Z" fill="black"/>
<path d="M307.469 279.528H311.229V281H305.645V269.88H307.469V279.528Z" fill="black"/>
<path d="M38.3259 278.728H33.6699L32.8699 281H30.9659L34.9499 269.864H37.0619L41.0459 281H39.1259L38.3259 278.728ZM37.8139 277.24L36.0059 272.072L34.1819 277.24H37.8139Z" fill="black"/>
<path d="M339 270L335.414 273.586C334.633 274.367 334.633 275.633 335.414 276.414L339 280" stroke="black" stroke-width="2" stroke-linecap="round"/>
<rect x="349.536" y="272.879" width="8" height="2" rx="1" transform="rotate(135 349.536 272.879)" fill="black"/>
<rect x="348.121" y="278.536" width="8" height="2" rx="1" transform="rotate(-135 348.121 278.536)" fill="black"/>
<path d="M77.6878 239.88L74.3918 251H72.3278L69.9918 242.584L67.5118 251L65.4638 251.016L62.3118 239.88H64.2478L66.5518 248.936L69.0478 239.88H71.0958L73.4158 248.888L75.7358 239.88H77.6878Z" fill="black"/>
<path d="M102.829 241.352V244.616H106.669V246.104H102.829V249.512H107.149V251H101.005V239.864H107.149V241.352H102.829Z" fill="black"/>
<path d="M139.921 251L137.361 246.552H135.969V251H134.145V239.88H137.985C138.839 239.88 139.559 240.029 140.145 240.328C140.743 240.627 141.185 241.027 141.473 241.528C141.772 242.029 141.921 242.589 141.921 243.208C141.921 243.933 141.708 244.595 141.281 245.192C140.865 245.779 140.22 246.179 139.345 246.392L142.097 251H139.921ZM135.969 245.096H137.985C138.668 245.096 139.18 244.925 139.521 244.584C139.873 244.243 140.049 243.784 140.049 243.208C140.049 242.632 139.879 242.184 139.537 241.864C139.196 241.533 138.679 241.368 137.985 241.368H135.969V245.096Z" fill="black"/>
<path d="M175.868 239.88V241.368H172.908V251H171.084V241.368H168.108V239.88H175.868Z" fill="black"/>
<path d="M210.596 239.88L206.916 246.968V251H205.092V246.968L201.396 239.88H203.428L206.004 245.336L208.58 239.88H210.596Z" fill="black"/>
<path d="M237.485 239.88V246.968C237.485 247.811 237.703 248.445 238.141 248.872C238.589 249.299 239.207 249.512 239.997 249.512C240.797 249.512 241.415 249.299 241.853 248.872C242.301 248.445 242.525 247.811 242.525 246.968V239.88H244.349V246.936C244.349 247.843 244.151 248.611 243.757 249.24C243.362 249.869 242.834 250.339 242.173 250.648C241.511 250.957 240.781 251.112 239.981 251.112C239.181 251.112 238.45 250.957 237.789 250.648C237.138 250.339 236.621 249.869 236.237 249.24C235.853 248.611 235.661 247.843 235.661 246.936V239.88H237.485Z" fill="black"/>
<path d="M274.915 239.88V251H273.091V239.88H274.915Z" fill="black"/>
<path d="M307.999 251.112C306.964 251.112 306.009 250.872 305.135 250.392C304.271 249.901 303.583 249.224 303.071 248.36C302.569 247.485 302.319 246.504 302.319 245.416C302.319 244.328 302.569 243.352 303.071 242.488C303.583 241.624 304.271 240.952 305.135 240.472C306.009 239.981 306.964 239.736 307.999 239.736C309.044 239.736 309.999 239.981 310.863 240.472C311.737 240.952 312.425 241.624 312.927 242.488C313.428 243.352 313.679 244.328 313.679 245.416C313.679 246.504 313.428 247.485 312.927 248.36C312.425 249.224 311.737 249.901 310.863 250.392C309.999 250.872 309.044 251.112 307.999 251.112ZM307.999 249.528C308.735 249.528 309.391 249.363 309.967 249.032C310.543 248.691 310.991 248.211 311.311 247.592C311.641 246.963 311.807 246.237 311.807 245.416C311.807 244.595 311.641 243.875 311.311 243.256C310.991 242.637 310.543 242.163 309.967 241.832C309.391 241.501 308.735 241.336 307.999 241.336C307.263 241.336 306.607 241.501 306.031 241.832C305.455 242.163 305.001 242.637 304.671 243.256C304.351 243.875 304.191 244.595 304.191 245.416C304.191 246.237 304.351 246.963 304.671 247.592C305.001 248.211 305.455 248.691 306.031 249.032C306.607 249.363 307.263 249.528 307.999 249.528Z" fill="black"/>
<path d="M346.218 243.192C346.218 243.757 346.085 244.291 345.818 244.792C345.552 245.293 345.125 245.704 344.538 246.024C343.952 246.333 343.2 246.488 342.282 246.488H340.266V251H338.442V239.88H342.282C343.136 239.88 343.856 240.029 344.442 240.328C345.04 240.616 345.482 241.011 345.77 241.512C346.069 242.013 346.218 242.573 346.218 243.192ZM342.282 245C342.976 245 343.493 244.845 343.834 244.536C344.176 244.216 344.346 243.768 344.346 243.192C344.346 241.976 343.658 241.368 342.282 241.368H340.266V245H342.282Z" fill="black"/>
<path d="M39.5111 253.016L37.5591 250.904C37.0791 251.043 36.5511 251.112 35.9751 251.112C34.9405 251.112 33.9858 250.872 33.1111 250.392C32.2471 249.901 31.5591 249.224 31.0471 248.36C30.5458 247.485 30.2951 246.504 30.2951 245.416C30.2951 244.328 30.5458 243.352 31.0471 242.488C31.5591 241.624 32.2471 240.952 33.1111 240.472C33.9858 239.981 34.9405 239.736 35.9751 239.736C37.0205 239.736 37.9751 239.981 38.8391 240.472C39.7138 240.952 40.4018 241.624 40.9031 242.488C41.4045 243.352 41.6551 244.328 41.6551 245.416C41.6551 246.44 41.4311 247.368 40.9831 248.2C40.5458 249.021 39.9378 249.683 39.1591 250.184L41.8311 253.016H39.5111ZM32.1671 245.416C32.1671 246.237 32.3271 246.963 32.6471 247.592C32.9778 248.211 33.4311 248.691 34.0071 249.032C34.5831 249.363 35.2391 249.528 35.9751 249.528C36.7111 249.528 37.3671 249.363 37.9431 249.032C38.5191 248.691 38.9671 248.211 39.2871 247.592C39.6178 246.963 39.7831 246.237 39.7831 245.416C39.7831 244.595 39.6178 243.875 39.2871 243.256C38.9671 242.637 38.5191 242.163 37.9431 241.832C37.3671 241.501 36.7111 241.336 35.9751 241.336C35.2391 241.336 34.5831 241.501 34.0071 241.832C33.4311 242.163 32.9778 242.637 32.6471 243.256C32.3271 243.875 32.1671 244.595 32.1671 245.416Z" fill="black"/>
<path d="M68.4991 309.416H73.6671V311H66.3391V309.576L71.4911 301.464H66.3391V299.88H73.6671V301.304L68.4991 309.416Z" fill="black"/>
<path d="M105.023 305.448L108.479 311H106.431L103.919 306.968L101.567 311H99.5348L102.991 305.448L99.5188 299.88H101.567L104.095 303.944L106.463 299.88H108.495L105.023 305.448Z" fill="black"/>
<path d="M132.405 305.416C132.405 304.328 132.655 303.352 133.157 302.488C133.669 301.624 134.357 300.952 135.221 300.472C136.095 299.981 137.05 299.736 138.085 299.736C139.269 299.736 140.319 300.029 141.237 300.616C142.165 301.192 142.837 302.013 143.253 303.08H141.061C140.773 302.493 140.373 302.056 139.861 301.768C139.349 301.48 138.757 301.336 138.085 301.336C137.349 301.336 136.693 301.501 136.117 301.832C135.541 302.163 135.087 302.637 134.757 303.256C134.437 303.875 134.277 304.595 134.277 305.416C134.277 306.237 134.437 306.957 134.757 307.576C135.087 308.195 135.541 308.675 136.117 309.016C136.693 309.347 137.349 309.512 138.085 309.512C138.757 309.512 139.349 309.368 139.861 309.08C140.373 308.792 140.773 308.355 141.061 307.768H143.253C142.837 308.835 142.165 309.656 141.237 310.232C140.319 310.808 139.269 311.096 138.085 311.096C137.039 311.096 136.085 310.856 135.221 310.376C134.357 309.885 133.669 309.208 133.157 308.344C132.655 307.48 132.405 306.504 132.405 305.416Z" fill="black"/>
<path d="M177.229 299.88L173.053 311H170.941L166.749 299.88H168.701L171.997 309.128L175.309 299.88H177.229Z" fill="black"/>
<path d="M208.113 305.288C208.71 305.395 209.217 305.709 209.633 306.232C210.049 306.755 210.257 307.347 210.257 308.008C210.257 308.573 210.108 309.085 209.809 309.544C209.521 309.992 209.1 310.349 208.545 310.616C207.99 310.872 207.345 311 206.609 311H202.161V299.88H206.401C207.158 299.88 207.809 300.008 208.353 300.264C208.897 300.52 209.308 300.867 209.585 301.304C209.862 301.731 210.001 302.211 210.001 302.744C210.001 303.384 209.83 303.917 209.489 304.344C209.148 304.771 208.689 305.085 208.113 305.288ZM203.985 304.552H206.241C206.838 304.552 207.302 304.419 207.633 304.152C207.974 303.875 208.145 303.48 208.145 302.968C208.145 302.467 207.974 302.077 207.633 301.8C207.302 301.512 206.838 301.368 206.241 301.368H203.985V304.552ZM206.449 309.512C207.068 309.512 207.553 309.363 207.905 309.064C208.257 308.765 208.433 308.349 208.433 307.816C208.433 307.272 208.246 306.84 207.873 306.52C207.5 306.2 207.004 306.04 206.385 306.04H203.985V309.512H206.449Z" fill="black"/>
<path d="M244.57 311H242.746L237.258 302.696V311H235.434V299.864H237.258L242.746 308.152V299.864H244.57V311Z" fill="black"/>
<path d="M279.857 299.88V311H278.033V303.384L274.641 311H273.377L269.969 303.384V311H268.145V299.88H270.113L274.017 308.6L277.905 299.88H279.857Z" fill="black"/>
</svg>
