<svg width="480" height="360" viewBox="0 0 480 360" fill="none" xmlns="http://www.w3.org/2000/svg">
<path d="M0 280C0 268.954 8.95431 260 20 260H460C471.046 260 480 268.954 480 280V360H0V280Z" fill="white" fill-opacity="0.1"/>
<rect x="65" y="280" width="110" height="60" rx="15" fill="white" fill-opacity="0.1"/>
<path d="M94.5304 306.25V304.794H97.4424V315H95.8324V306.25H94.5304ZM110.286 308.168C110.286 308.663 110.169 309.129 109.936 309.568C109.702 310.007 109.329 310.366 108.816 310.646C108.302 310.917 107.644 311.052 106.842 311.052H105.078V315H103.482V305.27H106.842C107.588 305.27 108.218 305.401 108.732 305.662C109.254 305.914 109.642 306.259 109.894 306.698C110.155 307.137 110.286 307.627 110.286 308.168ZM106.842 309.75C107.448 309.75 107.901 309.615 108.2 309.344C108.498 309.064 108.648 308.672 108.648 308.168C108.648 307.104 108.046 306.572 106.842 306.572H105.078V309.75H106.842ZM113.404 304.64V315H111.808V304.64H113.404ZM114.967 311.108C114.967 310.333 115.126 309.647 115.443 309.05C115.77 308.453 116.209 307.991 116.759 307.664C117.319 307.328 117.935 307.16 118.607 307.16C119.214 307.16 119.741 307.281 120.189 307.524C120.647 307.757 121.011 308.051 121.281 308.406V307.286H122.891V315H121.281V313.852C121.011 314.216 120.642 314.519 120.175 314.762C119.709 315.005 119.177 315.126 118.579 315.126C117.917 315.126 117.31 314.958 116.759 314.622C116.209 314.277 115.77 313.801 115.443 313.194C115.126 312.578 114.967 311.883 114.967 311.108ZM121.281 311.136C121.281 310.604 121.169 310.142 120.945 309.75C120.731 309.358 120.446 309.059 120.091 308.854C119.737 308.649 119.354 308.546 118.943 308.546C118.533 308.546 118.15 308.649 117.795 308.854C117.441 309.05 117.151 309.344 116.927 309.736C116.713 310.119 116.605 310.576 116.605 311.108C116.605 311.64 116.713 312.107 116.927 312.508C117.151 312.909 117.441 313.217 117.795 313.432C118.159 313.637 118.542 313.74 118.943 313.74C119.354 313.74 119.737 313.637 120.091 313.432C120.446 313.227 120.731 312.928 120.945 312.536C121.169 312.135 121.281 311.668 121.281 311.136ZM131.932 307.286L127.2 318.626H125.548L127.116 314.874L124.078 307.286H125.856L128.026 313.166L130.28 307.286H131.932ZM140.206 310.954C140.206 311.243 140.187 311.505 140.15 311.738H134.256C134.303 312.354 134.531 312.849 134.942 313.222C135.353 313.595 135.857 313.782 136.454 313.782C137.313 313.782 137.919 313.423 138.274 312.704H139.996C139.763 313.413 139.338 313.997 138.722 314.454C138.115 314.902 137.359 315.126 136.454 315.126C135.717 315.126 135.054 314.963 134.466 314.636C133.887 314.3 133.43 313.833 133.094 313.236C132.767 312.629 132.604 311.929 132.604 311.136C132.604 310.343 132.763 309.647 133.08 309.05C133.407 308.443 133.859 307.977 134.438 307.65C135.026 307.323 135.698 307.16 136.454 307.16C137.182 307.16 137.831 307.319 138.4 307.636C138.969 307.953 139.413 308.401 139.73 308.98C140.047 309.549 140.206 310.207 140.206 310.954ZM138.54 310.45C138.531 309.862 138.321 309.391 137.91 309.036C137.499 308.681 136.991 308.504 136.384 308.504C135.833 308.504 135.362 308.681 134.97 309.036C134.578 309.381 134.345 309.853 134.27 310.45H138.54ZM143.373 308.406C143.606 308.014 143.914 307.711 144.297 307.496C144.689 307.272 145.151 307.16 145.683 307.16V308.812H145.277C144.651 308.812 144.175 308.971 143.849 309.288C143.531 309.605 143.373 310.156 143.373 310.94V315H141.777V307.286H143.373V308.406Z" fill="white"/>
<rect x="185" y="280" width="110" height="60" rx="15" fill="white" fill-opacity="0.1"/>
<path d="M199.17 306.25V304.794H202.082V315H200.472V306.25H199.17ZM214.925 308.168C214.925 308.663 214.809 309.129 214.575 309.568C214.342 310.007 213.969 310.366 213.455 310.646C212.942 310.917 212.284 311.052 211.481 311.052H209.717V315H208.121V305.27H211.481C212.228 305.27 212.858 305.401 213.371 305.662C213.894 305.914 214.281 306.259 214.533 306.698C214.795 307.137 214.925 307.627 214.925 308.168ZM211.481 309.75C212.088 309.75 212.541 309.615 212.839 309.344C213.138 309.064 213.287 308.672 213.287 308.168C213.287 307.104 212.685 306.572 211.481 306.572H209.717V309.75H211.481ZM218.043 304.64V315H216.447V304.64H218.043ZM219.607 311.108C219.607 310.333 219.766 309.647 220.083 309.05C220.41 308.453 220.848 307.991 221.399 307.664C221.959 307.328 222.575 307.16 223.247 307.16C223.854 307.16 224.381 307.281 224.829 307.524C225.286 307.757 225.65 308.051 225.921 308.406V307.286H227.531V315H225.921V313.852C225.65 314.216 225.282 314.519 224.815 314.762C224.348 315.005 223.816 315.126 223.219 315.126C222.556 315.126 221.95 314.958 221.399 314.622C220.848 314.277 220.41 313.801 220.083 313.194C219.766 312.578 219.607 311.883 219.607 311.108ZM225.921 311.136C225.921 310.604 225.809 310.142 225.585 309.75C225.37 309.358 225.086 309.059 224.731 308.854C224.376 308.649 223.994 308.546 223.583 308.546C223.172 308.546 222.79 308.649 222.435 308.854C222.08 309.05 221.791 309.344 221.567 309.736C221.352 310.119 221.245 310.576 221.245 311.108C221.245 311.64 221.352 312.107 221.567 312.508C221.791 312.909 222.08 313.217 222.435 313.432C222.799 313.637 223.182 313.74 223.583 313.74C223.994 313.74 224.376 313.637 224.731 313.432C225.086 313.227 225.37 312.928 225.585 312.536C225.809 312.135 225.921 311.668 225.921 311.136ZM236.571 307.286L231.839 318.626H230.187L231.755 314.874L228.717 307.286H230.495L232.665 313.166L234.919 307.286H236.571ZM244.846 310.954C244.846 311.243 244.827 311.505 244.79 311.738H238.896C238.942 312.354 239.171 312.849 239.582 313.222C239.992 313.595 240.496 313.782 241.094 313.782C241.952 313.782 242.559 313.423 242.914 312.704H244.636C244.402 313.413 243.978 313.997 243.362 314.454C242.755 314.902 241.999 315.126 241.094 315.126C240.356 315.126 239.694 314.963 239.106 314.636C238.527 314.3 238.07 313.833 237.734 313.236C237.407 312.629 237.244 311.929 237.244 311.136C237.244 310.343 237.402 309.647 237.72 309.05C238.046 308.443 238.499 307.977 239.078 307.65C239.666 307.323 240.338 307.16 241.094 307.16C241.822 307.16 242.47 307.319 243.04 307.636C243.609 307.953 244.052 308.401 244.37 308.98C244.687 309.549 244.846 310.207 244.846 310.954ZM243.18 310.45C243.17 309.862 242.96 309.391 242.55 309.036C242.139 308.681 241.63 308.504 241.024 308.504C240.473 308.504 240.002 308.681 239.61 309.036C239.218 309.381 238.984 309.853 238.91 310.45H243.18ZM248.012 308.406C248.246 308.014 248.554 307.711 248.936 307.496C249.328 307.272 249.79 307.16 250.322 307.16V308.812H249.916C249.291 308.812 248.815 308.971 248.488 309.288C248.171 309.605 248.012 310.156 248.012 310.94V315H246.416V307.286H248.012V308.406ZM262.944 310.618H260.116V313.516H258.632V310.618H255.804V309.274H258.632V306.376H260.116V309.274H262.944V310.618ZM274.923 313.012H270.849L270.149 315H268.483L271.969 305.256H273.817L277.303 315H275.623L274.923 313.012ZM274.475 311.71L272.893 307.188L271.297 311.71H274.475ZM280.415 305.27V315H278.819V305.27H280.415Z" fill="white"/>
<rect x="305" y="280" width="110" height="60" rx="15" fill="white" fill-opacity="0.1"/>
<path d="M330.29 312.83C331.186 312.055 331.891 311.421 332.404 310.926C332.927 310.422 333.361 309.899 333.706 309.358C334.052 308.817 334.224 308.275 334.224 307.734C334.224 307.174 334.089 306.735 333.818 306.418C333.557 306.101 333.142 305.942 332.572 305.942C332.022 305.942 331.592 306.119 331.284 306.474C330.986 306.819 330.827 307.286 330.808 307.874H329.268C329.296 306.81 329.614 305.998 330.22 305.438C330.836 304.869 331.616 304.584 332.558 304.584C333.576 304.584 334.369 304.864 334.938 305.424C335.517 305.984 335.806 306.731 335.806 307.664C335.806 308.336 335.634 308.985 335.288 309.61C334.952 310.226 334.546 310.781 334.07 311.276C333.604 311.761 333.006 312.326 332.278 312.97L331.648 313.53H336.086V314.86H329.282V313.698L330.29 312.83ZM348.139 308.168C348.139 308.663 348.022 309.129 347.789 309.568C347.556 310.007 347.182 310.366 346.669 310.646C346.156 310.917 345.498 311.052 344.695 311.052H342.931V315H341.335V305.27H344.695C345.442 305.27 346.072 305.401 346.585 305.662C347.108 305.914 347.495 306.259 347.747 306.698C348.008 307.137 348.139 307.627 348.139 308.168ZM344.695 309.75C345.302 309.75 345.754 309.615 346.053 309.344C346.352 309.064 346.501 308.672 346.501 308.168C346.501 307.104 345.899 306.572 344.695 306.572H342.931V309.75H344.695ZM351.257 304.64V315H349.661V304.64H351.257ZM352.821 311.108C352.821 310.333 352.979 309.647 353.297 309.05C353.623 308.453 354.062 307.991 354.613 307.664C355.173 307.328 355.789 307.16 356.461 307.16C357.067 307.16 357.595 307.281 358.043 307.524C358.5 307.757 358.864 308.051 359.135 308.406V307.286H360.745V315H359.135V313.852C358.864 314.216 358.495 314.519 358.029 314.762C357.562 315.005 357.03 315.126 356.433 315.126C355.77 315.126 355.163 314.958 354.613 314.622C354.062 314.277 353.623 313.801 353.297 313.194C352.979 312.578 352.821 311.883 352.821 311.108ZM359.135 311.136C359.135 310.604 359.023 310.142 358.799 309.75C358.584 309.358 358.299 309.059 357.945 308.854C357.59 308.649 357.207 308.546 356.797 308.546C356.386 308.546 356.003 308.649 355.649 308.854C355.294 309.05 355.005 309.344 354.781 309.736C354.566 310.119 354.459 310.576 354.459 311.108C354.459 311.64 354.566 312.107 354.781 312.508C355.005 312.909 355.294 313.217 355.649 313.432C356.013 313.637 356.395 313.74 356.797 313.74C357.207 313.74 357.59 313.637 357.945 313.432C358.299 313.227 358.584 312.928 358.799 312.536C359.023 312.135 359.135 311.668 359.135 311.136ZM369.785 307.286L365.053 318.626H363.401L364.969 314.874L361.931 307.286H363.709L365.879 313.166L368.133 307.286H369.785ZM378.059 310.954C378.059 311.243 378.041 311.505 378.003 311.738H372.109C372.156 312.354 372.385 312.849 372.795 313.222C373.206 313.595 373.71 313.782 374.307 313.782C375.166 313.782 375.773 313.423 376.127 312.704H377.849C377.616 313.413 377.191 313.997 376.575 314.454C375.969 314.902 375.213 315.126 374.307 315.126C373.57 315.126 372.907 314.963 372.319 314.636C371.741 314.3 371.283 313.833 370.947 313.236C370.621 312.629 370.457 311.929 370.457 311.136C370.457 310.343 370.616 309.647 370.933 309.05C371.26 308.443 371.713 307.977 372.291 307.65C372.879 307.323 373.551 307.16 374.307 307.16C375.035 307.16 375.684 307.319 376.253 307.636C376.823 307.953 377.266 308.401 377.583 308.98C377.901 309.549 378.059 310.207 378.059 310.954ZM376.393 310.45C376.384 309.862 376.174 309.391 375.763 309.036C375.353 308.681 374.844 308.504 374.237 308.504C373.687 308.504 373.215 308.681 372.823 309.036C372.431 309.381 372.198 309.853 372.123 310.45H376.393ZM381.226 308.406C381.459 308.014 381.767 307.711 382.15 307.496C382.542 307.272 383.004 307.16 383.536 307.16V308.812H383.13C382.505 308.812 382.029 308.971 381.702 309.288C381.385 309.605 381.226 310.156 381.226 310.94V315H379.63V307.286H381.226V308.406ZM387.803 315.126C387.196 315.126 386.65 315.019 386.165 314.804C385.689 314.58 385.311 314.281 385.031 313.908C384.751 313.525 384.602 313.101 384.583 312.634H386.235C386.263 312.961 386.417 313.236 386.697 313.46C386.986 313.675 387.346 313.782 387.775 313.782C388.223 313.782 388.568 313.698 388.811 313.53C389.063 313.353 389.189 313.129 389.189 312.858C389.189 312.569 389.049 312.354 388.769 312.214C388.498 312.074 388.064 311.92 387.467 311.752C386.888 311.593 386.417 311.439 386.053 311.29C385.689 311.141 385.372 310.912 385.101 310.604C384.84 310.296 384.709 309.89 384.709 309.386C384.709 308.975 384.83 308.602 385.073 308.266C385.316 307.921 385.661 307.65 386.109 307.454C386.566 307.258 387.089 307.16 387.677 307.16C388.554 307.16 389.259 307.384 389.791 307.832C390.332 308.271 390.622 308.873 390.659 309.638H389.063C389.035 309.293 388.895 309.017 388.643 308.812C388.391 308.607 388.05 308.504 387.621 308.504C387.201 308.504 386.879 308.583 386.655 308.742C386.431 308.901 386.319 309.111 386.319 309.372C386.319 309.577 386.394 309.75 386.543 309.89C386.692 310.03 386.874 310.142 387.089 310.226C387.304 310.301 387.621 310.399 388.041 310.52C388.601 310.669 389.058 310.823 389.413 310.982C389.777 311.131 390.09 311.355 390.351 311.654C390.612 311.953 390.748 312.349 390.757 312.844C390.757 313.283 390.636 313.675 390.393 314.02C390.15 314.365 389.805 314.636 389.357 314.832C388.918 315.028 388.4 315.126 387.803 315.126Z" fill="white"/>
<path d="M198.265 23.192C198.265 23.7573 198.132 24.2907 197.865 24.792C197.598 25.2933 197.172 25.704 196.585 26.024C195.998 26.3333 195.246 26.488 194.329 26.488H192.313V31H190.489V19.88H194.329C195.182 19.88 195.902 20.0293 196.489 20.328C197.086 20.616 197.529 21.0107 197.817 21.512C198.116 22.0133 198.265 22.5733 198.265 23.192ZM194.329 25C195.022 25 195.54 24.8453 195.881 24.536C196.222 24.216 196.393 23.768 196.393 23.192C196.393 21.976 195.705 21.368 194.329 21.368H192.313V25H194.329ZM203.829 31.144C202.997 31.144 202.245 30.9573 201.573 30.584C200.901 30.2 200.373 29.6667 199.989 28.984C199.605 28.2907 199.413 27.4907 199.413 26.584C199.413 25.688 199.61 24.8933 200.005 24.2C200.399 23.5067 200.938 22.9733 201.621 22.6C202.303 22.2267 203.066 22.04 203.909 22.04C204.751 22.04 205.514 22.2267 206.197 22.6C206.879 22.9733 207.418 23.5067 207.813 24.2C208.207 24.8933 208.405 25.688 208.405 26.584C208.405 27.48 208.202 28.2747 207.797 28.968C207.391 29.6613 206.837 30.2 206.133 30.584C205.439 30.9573 204.671 31.144 203.829 31.144ZM203.829 29.56C204.298 29.56 204.735 29.448 205.141 29.224C205.557 29 205.893 28.664 206.149 28.216C206.405 27.768 206.533 27.224 206.533 26.584C206.533 25.944 206.41 25.4053 206.165 24.968C205.919 24.52 205.594 24.184 205.189 23.96C204.783 23.736 204.346 23.624 203.877 23.624C203.407 23.624 202.97 23.736 202.565 23.96C202.17 24.184 201.855 24.52 201.621 24.968C201.386 25.4053 201.269 25.944 201.269 26.584C201.269 27.5333 201.509 28.2693 201.989 28.792C202.479 29.304 203.093 29.56 203.829 29.56ZM214.656 22.04C215.349 22.04 215.968 22.184 216.512 22.472C217.066 22.76 217.498 23.1867 217.808 23.752C218.117 24.3173 218.272 25 218.272 25.8V31H216.464V26.072C216.464 25.2827 216.266 24.68 215.872 24.264C215.477 23.8373 214.938 23.624 214.256 23.624C213.573 23.624 213.029 23.8373 212.624 24.264C212.229 24.68 212.032 25.2827 212.032 26.072V31H210.208V22.184H212.032V23.192C212.33 22.8293 212.709 22.5467 213.168 22.344C213.637 22.1413 214.133 22.04 214.656 22.04ZM224.15 22.04C224.833 22.04 225.436 22.1787 225.958 22.456C226.492 22.7227 226.908 23.0587 227.206 23.464V22.184H229.046V31.144C229.046 31.9547 228.876 32.6747 228.534 33.304C228.193 33.944 227.697 34.4453 227.046 34.808C226.406 35.1707 225.638 35.352 224.742 35.352C223.548 35.352 222.556 35.0693 221.766 34.504C220.977 33.9493 220.529 33.192 220.422 32.232H222.23C222.369 32.6907 222.662 33.0587 223.11 33.336C223.569 33.624 224.113 33.768 224.742 33.768C225.478 33.768 226.07 33.544 226.518 33.096C226.977 32.648 227.206 31.9973 227.206 31.144V29.672C226.897 30.088 226.476 30.44 225.942 30.728C225.42 31.0053 224.822 31.144 224.15 31.144C223.382 31.144 222.678 30.952 222.038 30.568C221.409 30.1733 220.908 29.6293 220.534 28.936C220.172 28.232 219.99 27.4373 219.99 26.552C219.99 25.6667 220.172 24.8827 220.534 24.2C220.908 23.5173 221.409 22.9893 222.038 22.616C222.678 22.232 223.382 22.04 224.15 22.04ZM227.206 26.584C227.206 25.976 227.078 25.448 226.822 25C226.577 24.552 226.252 24.2107 225.846 23.976C225.441 23.7413 225.004 23.624 224.534 23.624C224.065 23.624 223.628 23.7413 223.222 23.976C222.817 24.2 222.486 24.536 222.23 24.984C221.985 25.4213 221.862 25.944 221.862 26.552C221.862 27.16 221.985 27.6933 222.23 28.152C222.486 28.6107 222.817 28.9627 223.222 29.208C223.638 29.4427 224.076 29.56 224.534 29.56C225.004 29.56 225.441 29.4427 225.846 29.208C226.252 28.9733 226.577 28.632 226.822 28.184C227.078 27.7253 227.206 27.192 227.206 26.584ZM238.078 27.752C237.694 27.752 237.342 27.6613 237.022 27.48C236.713 27.288 236.462 27.0373 236.27 26.728C236.089 26.408 235.998 26.056 235.998 25.672C235.998 25.0853 236.201 24.5893 236.606 24.184C237.012 23.7787 237.502 23.576 238.078 23.576C238.676 23.576 239.177 23.7787 239.582 24.184C239.988 24.5893 240.19 25.0853 240.19 25.672C240.19 26.2587 239.988 26.7547 239.582 27.16C239.177 27.5547 238.676 27.752 238.078 27.752ZM258.857 19.88V31H257.033V23.384L253.641 31H252.377L248.969 23.384V31H247.145V19.88H249.113L253.017 28.6L256.905 19.88H258.857ZM269.335 26.376C269.335 26.7067 269.313 27.0053 269.271 27.272H262.535C262.588 27.976 262.849 28.5413 263.319 28.968C263.788 29.3947 264.364 29.608 265.047 29.608C266.028 29.608 266.721 29.1973 267.127 28.376H269.095C268.828 29.1867 268.343 29.8533 267.639 30.376C266.945 30.888 266.081 31.144 265.047 31.144C264.204 31.144 263.447 30.9573 262.775 30.584C262.113 30.2 261.591 29.6667 261.207 28.984C260.833 28.2907 260.647 27.4907 260.647 26.584C260.647 25.6773 260.828 24.8827 261.191 24.2C261.564 23.5067 262.081 22.9733 262.743 22.6C263.415 22.2267 264.183 22.04 265.047 22.04C265.879 22.04 266.62 22.2213 267.271 22.584C267.921 22.9467 268.428 23.4587 268.791 24.12C269.153 24.7707 269.335 25.5227 269.335 26.376ZM267.431 25.8C267.42 25.128 267.18 24.5893 266.711 24.184C266.241 23.7787 265.66 23.576 264.967 23.576C264.337 23.576 263.799 23.7787 263.351 24.184C262.903 24.5787 262.636 25.1173 262.551 25.8H267.431ZM275.578 22.04C276.271 22.04 276.89 22.184 277.434 22.472C277.988 22.76 278.42 23.1867 278.73 23.752C279.039 24.3173 279.194 25 279.194 25.8V31H277.386V26.072C277.386 25.2827 277.188 24.68 276.794 24.264C276.399 23.8373 275.86 23.624 275.178 23.624C274.495 23.624 273.951 23.8373 273.546 24.264C273.151 24.68 272.954 25.2827 272.954 26.072V31H271.13V22.184H272.954V23.192C273.252 22.8293 273.631 22.5467 274.09 22.344C274.559 22.1413 275.055 22.04 275.578 22.04ZM289.504 22.184V31H287.68V29.96C287.392 30.3227 287.014 30.6107 286.544 30.824C286.086 31.0267 285.595 31.128 285.072 31.128C284.379 31.128 283.755 30.984 283.2 30.696C282.656 30.408 282.224 29.9813 281.904 29.416C281.595 28.8507 281.44 28.168 281.44 27.368V22.184H283.248V27.096C283.248 27.8853 283.446 28.4933 283.84 28.92C284.235 29.336 284.774 29.544 285.456 29.544C286.139 29.544 286.678 29.336 287.072 28.92C287.478 28.4933 287.68 27.8853 287.68 27.096V22.184H289.504Z" fill="white"/>
</svg>
