<svg width="480" height="360" viewBox="0 0 480 360" fill="none" xmlns="http://www.w3.org/2000/svg">
<path d="M176.272 31.112C175.237 31.112 174.283 30.872 173.408 30.392C172.544 29.9013 171.856 29.224 171.344 28.36C170.843 27.4853 170.592 26.504 170.592 25.416C170.592 24.328 170.843 23.352 171.344 22.488C171.856 21.624 172.544 20.952 173.408 20.472C174.283 19.9813 175.237 19.736 176.272 19.736C177.317 19.736 178.272 19.9813 179.136 20.472C180.011 20.952 180.699 21.624 181.2 22.488C181.701 23.352 181.952 24.328 181.952 25.416C181.952 26.504 181.701 27.4853 181.2 28.36C180.699 29.224 180.011 29.9013 179.136 30.392C178.272 30.872 177.317 31.112 176.272 31.112ZM176.272 29.528C177.008 29.528 177.664 29.3627 178.24 29.032C178.816 28.6907 179.264 28.2107 179.584 27.592C179.915 26.9627 180.08 26.2373 180.08 25.416C180.08 24.5947 179.915 23.8747 179.584 23.256C179.264 22.6373 178.816 22.1627 178.24 21.832C177.664 21.5013 177.008 21.336 176.272 21.336C175.536 21.336 174.88 21.5013 174.304 21.832C173.728 22.1627 173.275 22.6373 172.944 23.256C172.624 23.8747 172.464 24.5947 172.464 25.416C172.464 26.2373 172.624 26.9627 172.944 27.592C173.275 28.2107 173.728 28.6907 174.304 29.032C174.88 29.3627 175.536 29.528 176.272 29.528ZM185.875 23.672V28.552C185.875 28.8827 185.95 29.1227 186.099 29.272C186.259 29.4107 186.526 29.48 186.899 29.48H188.019V31H186.579C185.758 31 185.128 30.808 184.691 30.424C184.254 30.04 184.035 29.416 184.035 28.552V23.672H182.995V22.184H184.035V19.992H185.875V22.184H188.019V23.672H185.875ZM194.26 22.04C194.932 22.04 195.529 22.184 196.052 22.472C196.585 22.76 197.001 23.1867 197.3 23.752C197.609 24.3173 197.764 25 197.764 25.8V31H195.956V26.072C195.956 25.2827 195.759 24.68 195.364 24.264C194.969 23.8373 194.431 23.624 193.748 23.624C193.065 23.624 192.521 23.8373 192.116 24.264C191.721 24.68 191.524 25.2827 191.524 26.072V31H189.7V19.16H191.524V23.208C191.833 22.8347 192.223 22.5467 192.692 22.344C193.172 22.1413 193.695 22.04 194.26 22.04ZM208.171 26.376C208.171 26.7067 208.149 27.0053 208.107 27.272H201.371C201.424 27.976 201.685 28.5413 202.155 28.968C202.624 29.3947 203.2 29.608 203.883 29.608C204.864 29.608 205.557 29.1973 205.963 28.376H207.931C207.664 29.1867 207.179 29.8533 206.475 30.376C205.781 30.888 204.917 31.144 203.883 31.144C203.04 31.144 202.283 30.9573 201.611 30.584C200.949 30.2 200.427 29.6667 200.043 28.984C199.669 28.2907 199.483 27.4907 199.483 26.584C199.483 25.6773 199.664 24.8827 200.027 24.2C200.4 23.5067 200.917 22.9733 201.579 22.6C202.251 22.2267 203.019 22.04 203.883 22.04C204.715 22.04 205.456 22.2213 206.107 22.584C206.757 22.9467 207.264 23.4587 207.627 24.12C207.989 24.7707 208.171 25.5227 208.171 26.376ZM206.267 25.8C206.256 25.128 206.016 24.5893 205.547 24.184C205.077 23.7787 204.496 23.576 203.803 23.576C203.173 23.576 202.635 23.7787 202.187 24.184C201.739 24.5787 201.472 25.1173 201.387 25.8H206.267ZM211.79 23.464C212.056 23.016 212.408 22.6693 212.846 22.424C213.294 22.168 213.822 22.04 214.43 22.04V23.928H213.966C213.251 23.928 212.707 24.1093 212.334 24.472C211.971 24.8347 211.79 25.464 211.79 26.36V31H209.966V22.184H211.79V23.464ZM219.306 31.144C218.613 31.144 217.989 31.0213 217.434 30.776C216.89 30.52 216.458 30.1787 216.138 29.752C215.818 29.3147 215.648 28.8293 215.626 28.296H217.514C217.546 28.6693 217.722 28.984 218.042 29.24C218.373 29.4853 218.784 29.608 219.274 29.608C219.786 29.608 220.181 29.512 220.458 29.32C220.746 29.1173 220.89 28.8613 220.89 28.552C220.89 28.2213 220.73 27.976 220.41 27.816C220.101 27.656 219.605 27.48 218.922 27.288C218.261 27.1067 217.722 26.9307 217.306 26.76C216.89 26.5893 216.528 26.328 216.218 25.976C215.92 25.624 215.77 25.16 215.77 24.584C215.77 24.1147 215.909 23.688 216.186 23.304C216.464 22.9093 216.858 22.6 217.37 22.376C217.893 22.152 218.49 22.04 219.162 22.04C220.165 22.04 220.97 22.296 221.578 22.808C222.197 23.3093 222.528 23.9973 222.57 24.872H220.746C220.714 24.4773 220.554 24.1627 220.266 23.928C219.978 23.6933 219.589 23.576 219.098 23.576C218.618 23.576 218.25 23.6667 217.994 23.848C217.738 24.0293 217.61 24.2693 217.61 24.568C217.61 24.8027 217.696 25 217.866 25.16C218.037 25.32 218.245 25.448 218.49 25.544C218.736 25.6293 219.098 25.7413 219.578 25.88C220.218 26.0507 220.741 26.2267 221.146 26.408C221.562 26.5787 221.92 26.8347 222.218 27.176C222.517 27.5173 222.672 27.9707 222.682 28.536C222.682 29.0373 222.544 29.4853 222.266 29.88C221.989 30.2747 221.594 30.584 221.082 30.808C220.581 31.032 219.989 31.144 219.306 31.144Z" fill="white"/>
<path d="M175.808 60.66V61.776H172.268V64.236H175.028V65.352H172.268V69H170.9V60.66H175.808ZM182.908 63.144C182.908 63.568 182.808 63.968 182.608 64.344C182.408 64.72 182.088 65.028 181.648 65.268C181.208 65.5 180.644 65.616 179.956 65.616H178.444V69H177.076V60.66H179.956C180.596 60.66 181.136 60.772 181.576 60.996C182.024 61.212 182.356 61.508 182.572 61.884C182.796 62.26 182.908 62.68 182.908 63.144ZM179.956 64.5C180.476 64.5 180.864 64.384 181.12 64.152C181.376 63.912 181.504 63.576 181.504 63.144C181.504 62.232 180.988 61.776 179.956 61.776H178.444V64.5H179.956ZM186.961 69.084C186.401 69.084 185.897 68.988 185.449 68.796C185.001 68.596 184.649 68.316 184.393 67.956C184.137 67.596 184.009 67.176 184.009 66.696H185.473C185.505 67.056 185.645 67.352 185.893 67.584C186.149 67.816 186.505 67.932 186.961 67.932C187.433 67.932 187.801 67.82 188.065 67.596C188.329 67.364 188.461 67.068 188.461 66.708C188.461 66.428 188.377 66.2 188.209 66.024C188.049 65.848 187.845 65.712 187.597 65.616C187.357 65.52 187.021 65.416 186.589 65.304C186.045 65.16 185.601 65.016 185.257 64.872C184.921 64.72 184.633 64.488 184.393 64.176C184.153 63.864 184.033 63.448 184.033 62.928C184.033 62.448 184.153 62.028 184.393 61.668C184.633 61.308 184.969 61.032 185.401 60.84C185.833 60.648 186.333 60.552 186.901 60.552C187.709 60.552 188.369 60.756 188.881 61.164C189.401 61.564 189.689 62.116 189.745 62.82H188.233C188.209 62.516 188.065 62.256 187.801 62.04C187.537 61.824 187.189 61.716 186.757 61.716C186.365 61.716 186.045 61.816 185.797 62.016C185.549 62.216 185.425 62.504 185.425 62.88C185.425 63.136 185.501 63.348 185.653 63.516C185.813 63.676 186.013 63.804 186.253 63.9C186.493 63.996 186.821 64.1 187.237 64.212C187.789 64.364 188.237 64.516 188.581 64.668C188.933 64.82 189.229 65.056 189.469 65.376C189.717 65.688 189.841 66.108 189.841 66.636C189.841 67.06 189.725 67.46 189.493 67.836C189.269 68.212 188.937 68.516 188.497 68.748C188.065 68.972 187.553 69.084 186.961 69.084Z" fill="white"/>
<path d="M163.04 99.07C162.573 99.07 162.153 98.99 161.78 98.83C161.407 98.6633 161.113 98.43 160.9 98.13C160.687 97.83 160.58 97.48 160.58 97.08H161.8C161.827 97.38 161.943 97.6267 162.15 97.82C162.363 98.0133 162.66 98.11 163.04 98.11C163.433 98.11 163.74 98.0167 163.96 97.83C164.18 97.6367 164.29 97.39 164.29 97.09C164.29 96.8567 164.22 96.6667 164.08 96.52C163.947 96.3733 163.777 96.26 163.57 96.18C163.37 96.1 163.09 96.0133 162.73 95.92C162.277 95.8 161.907 95.68 161.62 95.56C161.34 95.4333 161.1 95.24 160.9 94.98C160.7 94.72 160.6 94.3733 160.6 93.94C160.6 93.54 160.7 93.19 160.9 92.89C161.1 92.59 161.38 92.36 161.74 92.2C162.1 92.04 162.517 91.96 162.99 91.96C163.663 91.96 164.213 92.13 164.64 92.47C165.073 92.8033 165.313 93.2633 165.36 93.85H164.1C164.08 93.5967 163.96 93.38 163.74 93.2C163.52 93.02 163.23 92.93 162.87 92.93C162.543 92.93 162.277 93.0133 162.07 93.18C161.863 93.3467 161.76 93.5867 161.76 93.9C161.76 94.1133 161.823 94.29 161.95 94.43C162.083 94.5633 162.25 94.67 162.45 94.75C162.65 94.83 162.923 94.9167 163.27 95.01C163.73 95.1367 164.103 95.2633 164.39 95.39C164.683 95.5167 164.93 95.7133 165.13 95.98C165.337 96.24 165.44 96.59 165.44 97.03C165.44 97.3833 165.343 97.7167 165.15 98.03C164.963 98.3433 164.687 98.5967 164.32 98.79C163.96 98.9767 163.533 99.07 163.04 99.07ZM169.635 93.4C170.055 93.4 170.428 93.49 170.755 93.67C171.088 93.85 171.348 94.1167 171.535 94.47C171.728 94.8233 171.825 95.25 171.825 95.75V99H170.695V95.92C170.695 95.4267 170.572 95.05 170.325 94.79C170.078 94.5233 169.742 94.39 169.315 94.39C168.888 94.39 168.548 94.5233 168.295 94.79C168.048 95.05 167.925 95.4267 167.925 95.92V99H166.785V91.6H167.925V94.13C168.118 93.8967 168.362 93.7167 168.655 93.59C168.955 93.4633 169.282 93.4 169.635 93.4ZM175.669 99.09C175.149 99.09 174.679 98.9733 174.259 98.74C173.839 98.5 173.509 98.1667 173.269 97.74C173.029 97.3067 172.909 96.8067 172.909 96.24C172.909 95.68 173.033 95.1833 173.279 94.75C173.526 94.3167 173.863 93.9833 174.289 93.75C174.716 93.5167 175.193 93.4 175.719 93.4C176.246 93.4 176.723 93.5167 177.149 93.75C177.576 93.9833 177.913 94.3167 178.159 94.75C178.406 95.1833 178.529 95.68 178.529 96.24C178.529 96.8 178.403 97.2967 178.149 97.73C177.896 98.1633 177.549 98.5 177.109 98.74C176.676 98.9733 176.196 99.09 175.669 99.09ZM175.669 98.1C175.963 98.1 176.236 98.03 176.489 97.89C176.749 97.75 176.959 97.54 177.119 97.26C177.279 96.98 177.359 96.64 177.359 96.24C177.359 95.84 177.283 95.5033 177.129 95.23C176.976 94.95 176.773 94.74 176.519 94.6C176.266 94.46 175.993 94.39 175.699 94.39C175.406 94.39 175.133 94.46 174.879 94.6C174.633 94.74 174.436 94.95 174.289 95.23C174.143 95.5033 174.069 95.84 174.069 96.24C174.069 96.8333 174.219 97.2933 174.519 97.62C174.826 97.94 175.209 98.1 175.669 98.1ZM187.056 93.49L185.346 99H184.146L183.036 94.93L181.926 99H180.726L179.006 93.49H180.166L181.316 97.92L182.486 93.49H183.676L184.796 97.9L185.936 93.49H187.056ZM190.126 96.22C190.126 95.6667 190.239 95.1767 190.466 94.75C190.699 94.3233 191.013 93.9933 191.406 93.76C191.806 93.52 192.246 93.4 192.726 93.4C193.159 93.4 193.536 93.4867 193.856 93.66C194.183 93.8267 194.443 94.0367 194.636 94.29V93.49H195.786V99H194.636V98.18C194.443 98.44 194.179 98.6567 193.846 98.83C193.513 99.0033 193.133 99.09 192.706 99.09C192.233 99.09 191.799 98.97 191.406 98.73C191.013 98.4833 190.699 98.1433 190.466 97.71C190.239 97.27 190.126 96.7733 190.126 96.22ZM194.636 96.24C194.636 95.86 194.556 95.53 194.396 95.25C194.243 94.97 194.039 94.7567 193.786 94.61C193.533 94.4633 193.259 94.39 192.966 94.39C192.673 94.39 192.399 94.4633 192.146 94.61C191.893 94.75 191.686 94.96 191.526 95.24C191.373 95.5133 191.296 95.84 191.296 96.22C191.296 96.6 191.373 96.9333 191.526 97.22C191.686 97.5067 191.893 97.7267 192.146 97.88C192.406 98.0267 192.679 98.1 192.966 98.1C193.259 98.1 193.533 98.0267 193.786 97.88C194.039 97.7333 194.243 97.52 194.396 97.24C194.556 96.9533 194.636 96.62 194.636 96.24ZM203.971 92.05V92.98H201.021V95.03H203.321V95.96H201.021V99H199.881V92.05H203.971ZM209.887 94.12C209.887 94.4733 209.804 94.8067 209.637 95.12C209.471 95.4333 209.204 95.69 208.837 95.89C208.471 96.0833 208.001 96.18 207.427 96.18H206.167V99H205.027V92.05H207.427C207.961 92.05 208.411 92.1433 208.777 92.33C209.151 92.51 209.427 92.7567 209.607 93.07C209.794 93.3833 209.887 93.7333 209.887 94.12ZM207.427 95.25C207.861 95.25 208.184 95.1533 208.397 94.96C208.611 94.76 208.717 94.48 208.717 94.12C208.717 93.36 208.287 92.98 207.427 92.98H206.167V95.25H207.427ZM213.265 99.07C212.798 99.07 212.378 98.99 212.005 98.83C211.631 98.6633 211.338 98.43 211.125 98.13C210.911 97.83 210.805 97.48 210.805 97.08H212.025C212.051 97.38 212.168 97.6267 212.375 97.82C212.588 98.0133 212.885 98.11 213.265 98.11C213.658 98.11 213.965 98.0167 214.185 97.83C214.405 97.6367 214.515 97.39 214.515 97.09C214.515 96.8567 214.445 96.6667 214.305 96.52C214.171 96.3733 214.001 96.26 213.795 96.18C213.595 96.1 213.315 96.0133 212.955 95.92C212.501 95.8 212.131 95.68 211.845 95.56C211.565 95.4333 211.325 95.24 211.125 94.98C210.925 94.72 210.825 94.3733 210.825 93.94C210.825 93.54 210.925 93.19 211.125 92.89C211.325 92.59 211.605 92.36 211.965 92.2C212.325 92.04 212.741 91.96 213.215 91.96C213.888 91.96 214.438 92.13 214.865 92.47C215.298 92.8033 215.538 93.2633 215.585 93.85H214.325C214.305 93.5967 214.185 93.38 213.965 93.2C213.745 93.02 213.455 92.93 213.095 92.93C212.768 92.93 212.501 93.0133 212.295 93.18C212.088 93.3467 211.985 93.5867 211.985 93.9C211.985 94.1133 212.048 94.29 212.175 94.43C212.308 94.5633 212.475 94.67 212.675 94.75C212.875 94.83 213.148 94.9167 213.495 95.01C213.955 95.1367 214.328 95.2633 214.615 95.39C214.908 95.5167 215.155 95.7133 215.355 95.98C215.561 96.24 215.665 96.59 215.665 97.03C215.665 97.3833 215.568 97.7167 215.375 98.03C215.188 98.3433 214.911 98.5967 214.545 98.79C214.185 98.9767 213.758 99.07 213.265 99.07ZM219.227 96.24C219.227 95.6733 219.341 95.1767 219.567 94.75C219.801 94.3167 220.121 93.9833 220.527 93.75C220.934 93.5167 221.401 93.4 221.927 93.4C222.594 93.4 223.144 93.56 223.577 93.88C224.017 94.1933 224.314 94.6433 224.467 95.23H223.237C223.137 94.9567 222.977 94.7433 222.757 94.59C222.537 94.4367 222.261 94.36 221.927 94.36C221.461 94.36 221.087 94.5267 220.807 94.86C220.534 95.1867 220.397 95.6467 220.397 96.24C220.397 96.8333 220.534 97.2967 220.807 97.63C221.087 97.9633 221.461 98.13 221.927 98.13C222.587 98.13 223.024 97.84 223.237 97.26H224.467C224.307 97.82 224.007 98.2667 223.567 98.6C223.127 98.9267 222.581 99.09 221.927 99.09C221.401 99.09 220.934 98.9733 220.527 98.74C220.121 98.5 219.801 98.1667 219.567 97.74C219.341 97.3067 219.227 96.8067 219.227 96.24ZM227.994 99.09C227.474 99.09 227.004 98.9733 226.584 98.74C226.164 98.5 225.834 98.1667 225.594 97.74C225.354 97.3067 225.234 96.8067 225.234 96.24C225.234 95.68 225.357 95.1833 225.604 94.75C225.85 94.3167 226.187 93.9833 226.614 93.75C227.04 93.5167 227.517 93.4 228.044 93.4C228.57 93.4 229.047 93.5167 229.474 93.75C229.9 93.9833 230.237 94.3167 230.484 94.75C230.73 95.1833 230.854 95.68 230.854 96.24C230.854 96.8 230.727 97.2967 230.474 97.73C230.22 98.1633 229.874 98.5 229.434 98.74C229 98.9733 228.52 99.09 227.994 99.09ZM227.994 98.1C228.287 98.1 228.56 98.03 228.814 97.89C229.074 97.75 229.284 97.54 229.444 97.26C229.604 96.98 229.684 96.64 229.684 96.24C229.684 95.84 229.607 95.5033 229.454 95.23C229.3 94.95 229.097 94.74 228.844 94.6C228.59 94.46 228.317 94.39 228.024 94.39C227.73 94.39 227.457 94.46 227.204 94.6C226.957 94.74 226.76 94.95 226.614 95.23C226.467 95.5033 226.394 95.84 226.394 96.24C226.394 96.8333 226.544 97.2933 226.844 97.62C227.15 97.94 227.534 98.1 227.994 98.1ZM236.97 93.49V99H235.83V98.35C235.65 98.5767 235.414 98.7567 235.12 98.89C234.834 99.0167 234.527 99.08 234.2 99.08C233.767 99.08 233.377 98.99 233.03 98.81C232.69 98.63 232.42 98.3633 232.22 98.01C232.027 97.6567 231.93 97.23 231.93 96.73V93.49H233.06V96.56C233.06 97.0533 233.184 97.4333 233.43 97.7C233.677 97.96 234.014 98.09 234.44 98.09C234.867 98.09 235.204 97.96 235.45 97.7C235.704 97.4333 235.83 97.0533 235.83 96.56V93.49H236.97ZM241.255 93.4C241.688 93.4 242.075 93.49 242.415 93.67C242.761 93.85 243.031 94.1167 243.225 94.47C243.418 94.8233 243.515 95.25 243.515 95.75V99H242.385V95.92C242.385 95.4267 242.261 95.05 242.015 94.79C241.768 94.5233 241.431 94.39 241.005 94.39C240.578 94.39 240.238 94.5233 239.985 94.79C239.738 95.05 239.615 95.4267 239.615 95.92V99H238.475V93.49H239.615V94.12C239.801 93.8933 240.038 93.7167 240.325 93.59C240.618 93.4633 240.928 93.4 241.255 93.4ZM246.299 94.42V97.47C246.299 97.6767 246.345 97.8267 246.439 97.92C246.539 98.0067 246.705 98.05 246.939 98.05H247.639V99H246.739C246.225 99 245.832 98.88 245.559 98.64C245.285 98.4 245.149 98.01 245.149 97.47V94.42H244.499V93.49H245.149V92.12H246.299V93.49H247.639V94.42H246.299ZM253.739 96.11C253.739 96.3167 253.726 96.5033 253.699 96.67H249.489C249.523 97.11 249.686 97.4633 249.979 97.73C250.273 97.9967 250.633 98.13 251.059 98.13C251.673 98.13 252.106 97.8733 252.359 97.36H253.589C253.423 97.8667 253.119 98.2833 252.679 98.61C252.246 98.93 251.706 99.09 251.059 99.09C250.533 99.09 250.059 98.9733 249.639 98.74C249.226 98.5 248.899 98.1667 248.659 97.74C248.426 97.3067 248.309 96.8067 248.309 96.24C248.309 95.6733 248.423 95.1767 248.649 94.75C248.883 94.3167 249.206 93.9833 249.619 93.75C250.039 93.5167 250.519 93.4 251.059 93.4C251.579 93.4 252.043 93.5133 252.449 93.74C252.856 93.9667 253.173 94.2867 253.399 94.7C253.626 95.1067 253.739 95.5767 253.739 96.11ZM252.549 95.75C252.543 95.33 252.393 94.9933 252.099 94.74C251.806 94.4867 251.443 94.36 251.009 94.36C250.616 94.36 250.279 94.4867 249.999 94.74C249.719 94.9867 249.553 95.3233 249.499 95.75H252.549ZM256.001 94.29C256.168 94.01 256.388 93.7933 256.661 93.64C256.941 93.48 257.271 93.4 257.651 93.4V94.58H257.361C256.915 94.58 256.575 94.6933 256.341 94.92C256.115 95.1467 256.001 95.54 256.001 96.1V99H254.861V93.49H256.001V94.29Z" fill="white"/>
<path d="M356.539 90.66L353.779 95.976V99H352.411V95.976L349.639 90.66H351.163L353.095 94.752L355.027 90.66H356.539ZM363.685 95.532C363.685 95.78 363.669 96.004 363.637 96.204H358.585C358.625 96.732 358.821 97.156 359.173 97.476C359.525 97.796 359.957 97.956 360.469 97.956C361.205 97.956 361.725 97.648 362.029 97.032H363.505C363.305 97.64 362.941 98.14 362.413 98.532C361.893 98.916 361.245 99.108 360.469 99.108C359.837 99.108 359.269 98.968 358.765 98.688C358.269 98.4 357.877 98 357.589 97.488C357.309 96.968 357.169 96.368 357.169 95.688C357.169 95.008 357.305 94.412 357.577 93.9C357.857 93.38 358.245 92.98 358.741 92.7C359.245 92.42 359.821 92.28 360.469 92.28C361.093 92.28 361.649 92.416 362.137 92.688C362.625 92.96 363.005 93.344 363.277 93.84C363.549 94.328 363.685 94.892 363.685 95.532ZM362.257 95.1C362.249 94.596 362.069 94.192 361.717 93.888C361.365 93.584 360.929 93.432 360.409 93.432C359.937 93.432 359.533 93.584 359.197 93.888C358.861 94.184 358.661 94.588 358.597 95.1H362.257ZM367.431 99.108C366.911 99.108 366.443 99.016 366.027 98.832C365.619 98.64 365.295 98.384 365.055 98.064C364.815 97.736 364.687 97.372 364.671 96.972H366.087C366.111 97.252 366.243 97.488 366.483 97.68C366.731 97.864 367.039 97.956 367.407 97.956C367.791 97.956 368.087 97.884 368.295 97.74C368.511 97.588 368.619 97.396 368.619 97.164C368.619 96.916 368.499 96.732 368.259 96.612C368.027 96.492 367.655 96.36 367.143 96.216C366.647 96.08 366.243 95.948 365.931 95.82C365.619 95.692 365.347 95.496 365.115 95.232C364.891 94.968 364.779 94.62 364.779 94.188C364.779 93.836 364.883 93.516 365.091 93.228C365.299 92.932 365.595 92.7 365.979 92.532C366.371 92.364 366.819 92.28 367.323 92.28C368.075 92.28 368.679 92.472 369.135 92.856C369.599 93.232 369.847 93.748 369.879 94.404H368.511C368.487 94.108 368.367 93.872 368.151 93.696C367.935 93.52 367.643 93.432 367.275 93.432C366.915 93.432 366.639 93.5 366.447 93.636C366.255 93.772 366.159 93.952 366.159 94.176C366.159 94.352 366.223 94.5 366.351 94.62C366.479 94.74 366.635 94.836 366.819 94.908C367.003 94.972 367.275 95.056 367.635 95.16C368.115 95.288 368.507 95.42 368.811 95.556C369.123 95.684 369.391 95.876 369.615 96.132C369.839 96.388 369.955 96.728 369.963 97.152C369.963 97.528 369.859 97.864 369.651 98.16C369.443 98.456 369.147 98.688 368.763 98.856C368.387 99.024 367.943 99.108 367.431 99.108Z" fill="white"/>
<path d="M429.602 99H428.234L424.118 92.772V99H422.75V90.648H424.118L428.234 96.864V90.648H429.602V99ZM434.266 99.108C433.642 99.108 433.078 98.968 432.574 98.688C432.07 98.4 431.674 98 431.386 97.488C431.098 96.968 430.954 96.368 430.954 95.688C430.954 95.016 431.102 94.42 431.398 93.9C431.694 93.38 432.098 92.98 432.61 92.7C433.122 92.42 433.694 92.28 434.326 92.28C434.958 92.28 435.53 92.42 436.042 92.7C436.554 92.98 436.958 93.38 437.254 93.9C437.55 94.42 437.698 95.016 437.698 95.688C437.698 96.36 437.546 96.956 437.242 97.476C436.938 97.996 436.522 98.4 435.994 98.688C435.474 98.968 434.898 99.108 434.266 99.108ZM434.266 97.92C434.618 97.92 434.946 97.836 435.25 97.668C435.562 97.5 435.814 97.248 436.006 96.912C436.198 96.576 436.294 96.168 436.294 95.688C436.294 95.208 436.202 94.804 436.018 94.476C435.834 94.14 435.59 93.888 435.286 93.72C434.982 93.552 434.654 93.468 434.302 93.468C433.95 93.468 433.622 93.552 433.318 93.72C433.022 93.888 432.786 94.14 432.61 94.476C432.434 94.804 432.346 95.208 432.346 95.688C432.346 96.4 432.526 96.952 432.886 97.344C433.254 97.728 433.714 97.92 434.266 97.92Z" fill="white"/>
<path d="M175.232 139L173.312 135.664H172.268V139H170.9V130.66H173.78C174.42 130.66 174.96 130.772 175.4 130.996C175.848 131.22 176.18 131.52 176.396 131.896C176.62 132.272 176.732 132.692 176.732 133.156C176.732 133.7 176.572 134.196 176.252 134.644C175.94 135.084 175.456 135.384 174.8 135.544L176.864 139H175.232ZM172.268 134.572H173.78C174.292 134.572 174.676 134.444 174.932 134.188C175.196 133.932 175.328 133.588 175.328 133.156C175.328 132.724 175.2 132.388 174.944 132.148C174.688 131.9 174.3 131.776 173.78 131.776H172.268V134.572ZM184.542 135.532C184.542 135.78 184.526 136.004 184.494 136.204H179.442C179.482 136.732 179.678 137.156 180.03 137.476C180.382 137.796 180.814 137.956 181.326 137.956C182.062 137.956 182.582 137.648 182.886 137.032H184.362C184.162 137.64 183.798 138.14 183.27 138.532C182.75 138.916 182.102 139.108 181.326 139.108C180.694 139.108 180.126 138.968 179.622 138.688C179.126 138.4 178.734 138 178.446 137.488C178.166 136.968 178.026 136.368 178.026 135.688C178.026 135.008 178.162 134.412 178.434 133.9C178.714 133.38 179.102 132.98 179.598 132.7C180.102 132.42 180.678 132.28 181.326 132.28C181.95 132.28 182.506 132.416 182.994 132.688C183.482 132.96 183.862 133.344 184.134 133.84C184.406 134.328 184.542 134.892 184.542 135.532ZM183.114 135.1C183.106 134.596 182.926 134.192 182.574 133.888C182.222 133.584 181.786 133.432 181.266 133.432C180.794 133.432 180.39 133.584 180.054 133.888C179.718 134.184 179.518 134.588 179.454 135.1H183.114ZM188.288 139.108C187.768 139.108 187.3 139.016 186.884 138.832C186.476 138.64 186.152 138.384 185.912 138.064C185.672 137.736 185.544 137.372 185.528 136.972H186.944C186.968 137.252 187.1 137.488 187.34 137.68C187.588 137.864 187.896 137.956 188.264 137.956C188.648 137.956 188.944 137.884 189.152 137.74C189.368 137.588 189.476 137.396 189.476 137.164C189.476 136.916 189.356 136.732 189.116 136.612C188.884 136.492 188.512 136.36 188 136.216C187.504 136.08 187.1 135.948 186.788 135.82C186.476 135.692 186.204 135.496 185.972 135.232C185.748 134.968 185.636 134.62 185.636 134.188C185.636 133.836 185.74 133.516 185.948 133.228C186.156 132.932 186.452 132.7 186.836 132.532C187.228 132.364 187.676 132.28 188.18 132.28C188.932 132.28 189.536 132.472 189.992 132.856C190.456 133.232 190.704 133.748 190.736 134.404H189.368C189.344 134.108 189.224 133.872 189.008 133.696C188.792 133.52 188.5 133.432 188.132 133.432C187.772 133.432 187.496 133.5 187.304 133.636C187.112 133.772 187.016 133.952 187.016 134.176C187.016 134.352 187.08 134.5 187.208 134.62C187.336 134.74 187.492 134.836 187.676 134.908C187.86 134.972 188.132 135.056 188.492 135.16C188.972 135.288 189.364 135.42 189.668 135.556C189.98 135.684 190.248 135.876 190.472 136.132C190.696 136.388 190.812 136.728 190.82 137.152C190.82 137.528 190.716 137.864 190.508 138.16C190.3 138.456 190.004 138.688 189.62 138.856C189.244 139.024 188.8 139.108 188.288 139.108ZM198.358 135.532C198.358 135.78 198.342 136.004 198.31 136.204H193.258C193.298 136.732 193.494 137.156 193.846 137.476C194.198 137.796 194.63 137.956 195.142 137.956C195.878 137.956 196.398 137.648 196.702 137.032H198.178C197.978 137.64 197.614 138.14 197.086 138.532C196.566 138.916 195.918 139.108 195.142 139.108C194.51 139.108 193.942 138.968 193.438 138.688C192.942 138.4 192.55 138 192.262 137.488C191.982 136.968 191.842 136.368 191.842 135.688C191.842 135.008 191.978 134.412 192.25 133.9C192.53 133.38 192.918 132.98 193.414 132.7C193.918 132.42 194.494 132.28 195.142 132.28C195.766 132.28 196.322 132.416 196.81 132.688C197.298 132.96 197.678 133.344 197.95 133.84C198.222 134.328 198.358 134.892 198.358 135.532ZM196.93 135.1C196.922 134.596 196.742 134.192 196.39 133.888C196.038 133.584 195.602 133.432 195.082 133.432C194.61 133.432 194.206 133.584 193.87 133.888C193.534 134.184 193.334 134.588 193.27 135.1H196.93ZM201.301 133.504V137.164C201.301 137.412 201.357 137.592 201.469 137.704C201.589 137.808 201.789 137.86 202.069 137.86H202.909V139H201.829C201.213 139 200.741 138.856 200.413 138.568C200.085 138.28 199.921 137.812 199.921 137.164V133.504H199.141V132.388H199.921V130.744H201.301V132.388H202.909V133.504H201.301Z" fill="white"/>
<path d="M176.288 200.66V201.776H174.068V209H172.7V201.776H170.468V200.66H176.288ZM180.541 209.108C179.917 209.108 179.353 208.968 178.849 208.688C178.345 208.4 177.949 208 177.661 207.488C177.373 206.968 177.229 206.368 177.229 205.688C177.229 205.016 177.377 204.42 177.673 203.9C177.969 203.38 178.373 202.98 178.885 202.7C179.397 202.42 179.969 202.28 180.601 202.28C181.233 202.28 181.805 202.42 182.317 202.7C182.829 202.98 183.233 203.38 183.529 203.9C183.825 204.42 183.973 205.016 183.973 205.688C183.973 206.36 183.821 206.956 183.517 207.476C183.213 207.996 182.797 208.4 182.269 208.688C181.749 208.968 181.173 209.108 180.541 209.108ZM180.541 207.92C180.893 207.92 181.221 207.836 181.525 207.668C181.837 207.5 182.089 207.248 182.281 206.912C182.473 206.576 182.569 206.168 182.569 205.688C182.569 205.208 182.477 204.804 182.293 204.476C182.109 204.14 181.865 203.888 181.561 203.72C181.257 203.552 180.929 203.468 180.577 203.468C180.225 203.468 179.897 203.552 179.593 203.72C179.297 203.888 179.061 204.14 178.885 204.476C178.709 204.804 178.621 205.208 178.621 205.688C178.621 206.4 178.801 206.952 179.161 207.344C179.529 207.728 179.989 207.92 180.541 207.92ZM191.314 202.388V209H189.946V208.22C189.73 208.492 189.446 208.708 189.094 208.868C188.75 209.02 188.382 209.096 187.99 209.096C187.47 209.096 187.002 208.988 186.586 208.772C186.178 208.556 185.854 208.236 185.614 207.812C185.382 207.388 185.266 206.876 185.266 206.276V202.388H186.622V206.072C186.622 206.664 186.77 207.12 187.066 207.44C187.362 207.752 187.766 207.908 188.278 207.908C188.79 207.908 189.194 207.752 189.49 207.44C189.794 207.12 189.946 206.664 189.946 206.072V202.388H191.314ZM192.663 205.688C192.663 205.008 192.799 204.412 193.071 203.9C193.351 203.38 193.735 202.98 194.223 202.7C194.711 202.42 195.271 202.28 195.903 202.28C196.703 202.28 197.363 202.472 197.883 202.856C198.411 203.232 198.767 203.772 198.951 204.476H197.475C197.355 204.148 197.163 203.892 196.899 203.708C196.635 203.524 196.303 203.432 195.903 203.432C195.343 203.432 194.895 203.632 194.559 204.032C194.231 204.424 194.067 204.976 194.067 205.688C194.067 206.4 194.231 206.956 194.559 207.356C194.895 207.756 195.343 207.956 195.903 207.956C196.695 207.956 197.219 207.608 197.475 206.912H198.951C198.759 207.584 198.399 208.12 197.871 208.52C197.343 208.912 196.687 209.108 195.903 209.108C195.271 209.108 194.711 208.968 194.223 208.688C193.735 208.4 193.351 208 193.071 207.488C192.799 206.968 192.663 206.368 192.663 205.688ZM203.734 202.28C204.238 202.28 204.686 202.388 205.078 202.604C205.478 202.82 205.79 203.14 206.014 203.564C206.246 203.988 206.362 204.5 206.362 205.1V209H205.006V205.304C205.006 204.712 204.858 204.26 204.562 203.948C204.266 203.628 203.862 203.468 203.35 203.468C202.838 203.468 202.43 203.628 202.126 203.948C201.83 204.26 201.682 204.712 201.682 205.304V209H200.314V200.12H201.682V203.156C201.914 202.876 202.206 202.66 202.558 202.508C202.918 202.356 203.31 202.28 203.734 202.28ZM210.507 209.108C209.987 209.108 209.519 209.016 209.103 208.832C208.695 208.64 208.371 208.384 208.131 208.064C207.891 207.736 207.763 207.372 207.747 206.972H209.163C209.187 207.252 209.319 207.488 209.559 207.68C209.807 207.864 210.115 207.956 210.483 207.956C210.867 207.956 211.163 207.884 211.371 207.74C211.587 207.588 211.695 207.396 211.695 207.164C211.695 206.916 211.575 206.732 211.335 206.612C211.103 206.492 210.731 206.36 210.219 206.216C209.723 206.08 209.319 205.948 209.007 205.82C208.695 205.692 208.423 205.496 208.191 205.232C207.967 204.968 207.855 204.62 207.855 204.188C207.855 203.836 207.959 203.516 208.167 203.228C208.375 202.932 208.671 202.7 209.055 202.532C209.447 202.364 209.895 202.28 210.399 202.28C211.151 202.28 211.755 202.472 212.211 202.856C212.675 203.232 212.923 203.748 212.955 204.404H211.587C211.563 204.108 211.443 203.872 211.227 203.696C211.011 203.52 210.719 203.432 210.351 203.432C209.991 203.432 209.715 203.5 209.523 203.636C209.331 203.772 209.235 203.952 209.235 204.176C209.235 204.352 209.299 204.5 209.427 204.62C209.555 204.74 209.711 204.836 209.895 204.908C210.079 204.972 210.351 205.056 210.711 205.16C211.191 205.288 211.583 205.42 211.887 205.556C212.199 205.684 212.467 205.876 212.691 206.132C212.915 206.388 213.031 206.728 213.039 207.152C213.039 207.528 212.935 207.864 212.727 208.16C212.519 208.456 212.223 208.688 211.839 208.856C211.463 209.024 211.019 209.108 210.507 209.108ZM214.061 205.688C214.061 205.008 214.197 204.412 214.469 203.9C214.749 203.38 215.133 202.98 215.621 202.7C216.109 202.42 216.669 202.28 217.301 202.28C218.101 202.28 218.761 202.472 219.281 202.856C219.809 203.232 220.165 203.772 220.349 204.476H218.873C218.753 204.148 218.561 203.892 218.297 203.708C218.033 203.524 217.701 203.432 217.301 203.432C216.741 203.432 216.293 203.632 215.957 204.032C215.629 204.424 215.465 204.976 215.465 205.688C215.465 206.4 215.629 206.956 215.957 207.356C216.293 207.756 216.741 207.956 217.301 207.956C218.093 207.956 218.617 207.608 218.873 206.912H220.349C220.157 207.584 219.797 208.12 219.269 208.52C218.741 208.912 218.085 209.108 217.301 209.108C216.669 209.108 216.109 208.968 215.621 208.688C215.133 208.4 214.749 208 214.469 207.488C214.197 206.968 214.061 206.368 214.061 205.688ZM223.081 203.348C223.281 203.012 223.545 202.752 223.873 202.568C224.209 202.376 224.605 202.28 225.061 202.28V203.696H224.713C224.177 203.696 223.769 203.832 223.489 204.104C223.217 204.376 223.081 204.848 223.081 205.52V209H221.713V202.388H223.081V203.348ZM232.378 205.532C232.378 205.78 232.362 206.004 232.33 206.204H227.278C227.318 206.732 227.514 207.156 227.866 207.476C228.218 207.796 228.65 207.956 229.162 207.956C229.898 207.956 230.418 207.648 230.722 207.032H232.198C231.998 207.64 231.634 208.14 231.106 208.532C230.586 208.916 229.938 209.108 229.162 209.108C228.53 209.108 227.962 208.968 227.458 208.688C226.962 208.4 226.57 208 226.282 207.488C226.002 206.968 225.862 206.368 225.862 205.688C225.862 205.008 225.998 204.412 226.27 203.9C226.55 203.38 226.938 202.98 227.434 202.7C227.938 202.42 228.514 202.28 229.162 202.28C229.786 202.28 230.342 202.416 230.83 202.688C231.318 202.96 231.698 203.344 231.97 203.84C232.242 204.328 232.378 204.892 232.378 205.532ZM230.95 205.1C230.942 204.596 230.762 204.192 230.41 203.888C230.058 203.584 229.622 203.432 229.102 203.432C228.63 203.432 228.226 203.584 227.89 203.888C227.554 204.184 227.354 204.588 227.29 205.1H230.95ZM239.784 205.532C239.784 205.78 239.768 206.004 239.736 206.204H234.684C234.724 206.732 234.92 207.156 235.272 207.476C235.624 207.796 236.056 207.956 236.568 207.956C237.304 207.956 237.824 207.648 238.128 207.032H239.604C239.404 207.64 239.04 208.14 238.512 208.532C237.992 208.916 237.344 209.108 236.568 209.108C235.936 209.108 235.368 208.968 234.864 208.688C234.368 208.4 233.976 208 233.688 207.488C233.408 206.968 233.268 206.368 233.268 205.688C233.268 205.008 233.404 204.412 233.676 203.9C233.956 203.38 234.344 202.98 234.84 202.7C235.344 202.42 235.92 202.28 236.568 202.28C237.192 202.28 237.748 202.416 238.236 202.688C238.724 202.96 239.104 203.344 239.376 203.84C239.648 204.328 239.784 204.892 239.784 205.532ZM238.356 205.1C238.348 204.596 238.168 204.192 237.816 203.888C237.464 203.584 237.028 203.432 236.508 203.432C236.036 203.432 235.632 203.584 235.296 203.888C234.96 204.184 234.76 204.588 234.696 205.1H238.356ZM244.466 202.28C244.986 202.28 245.45 202.388 245.858 202.604C246.274 202.82 246.598 203.14 246.83 203.564C247.062 203.988 247.178 204.5 247.178 205.1V209H245.822V205.304C245.822 204.712 245.674 204.26 245.378 203.948C245.082 203.628 244.678 203.468 244.166 203.468C243.654 203.468 243.246 203.628 242.942 203.948C242.646 204.26 242.498 204.712 242.498 205.304V209H241.13V202.388H242.498V203.144C242.722 202.872 243.006 202.66 243.35 202.508C243.702 202.356 244.074 202.28 244.466 202.28Z" fill="white"/>
<path d="M164.36 169L162.76 166.22H161.89V169H160.75V162.05H163.15C163.683 162.05 164.133 162.143 164.5 162.33C164.873 162.517 165.15 162.767 165.33 163.08C165.517 163.393 165.61 163.743 165.61 164.13C165.61 164.583 165.477 164.997 165.21 165.37C164.95 165.737 164.547 165.987 164 166.12L165.72 169H164.36ZM161.89 165.31H163.15C163.577 165.31 163.897 165.203 164.11 164.99C164.33 164.777 164.44 164.49 164.44 164.13C164.44 163.77 164.333 163.49 164.12 163.29C163.907 163.083 163.583 162.98 163.15 162.98H161.89V165.31ZM172.118 166.11C172.118 166.317 172.105 166.503 172.078 166.67H167.868C167.902 167.11 168.065 167.463 168.358 167.73C168.652 167.997 169.012 168.13 169.438 168.13C170.052 168.13 170.485 167.873 170.738 167.36H171.968C171.802 167.867 171.498 168.283 171.058 168.61C170.625 168.93 170.085 169.09 169.438 169.09C168.912 169.09 168.438 168.973 168.018 168.74C167.605 168.5 167.278 168.167 167.038 167.74C166.805 167.307 166.688 166.807 166.688 166.24C166.688 165.673 166.802 165.177 167.028 164.75C167.262 164.317 167.585 163.983 167.998 163.75C168.418 163.517 168.898 163.4 169.438 163.4C169.958 163.4 170.422 163.513 170.828 163.74C171.235 163.967 171.552 164.287 171.778 164.7C172.005 165.107 172.118 165.577 172.118 166.11ZM170.928 165.75C170.922 165.33 170.772 164.993 170.478 164.74C170.185 164.487 169.822 164.36 169.388 164.36C168.995 164.36 168.658 164.487 168.378 164.74C168.098 164.987 167.932 165.323 167.878 165.75H170.928ZM175.24 169.09C174.807 169.09 174.417 169.013 174.07 168.86C173.73 168.7 173.46 168.487 173.26 168.22C173.06 167.947 172.954 167.643 172.94 167.31H174.12C174.14 167.543 174.25 167.74 174.45 167.9C174.657 168.053 174.914 168.13 175.22 168.13C175.54 168.13 175.787 168.07 175.96 167.95C176.14 167.823 176.23 167.663 176.23 167.47C176.23 167.263 176.13 167.11 175.93 167.01C175.737 166.91 175.427 166.8 175 166.68C174.587 166.567 174.25 166.457 173.99 166.35C173.73 166.243 173.504 166.08 173.31 165.86C173.124 165.64 173.03 165.35 173.03 164.99C173.03 164.697 173.117 164.43 173.29 164.19C173.464 163.943 173.71 163.75 174.03 163.61C174.357 163.47 174.73 163.4 175.15 163.4C175.777 163.4 176.28 163.56 176.66 163.88C177.047 164.193 177.254 164.623 177.28 165.17H176.14C176.12 164.923 176.02 164.727 175.84 164.58C175.66 164.433 175.417 164.36 175.11 164.36C174.81 164.36 174.58 164.417 174.42 164.53C174.26 164.643 174.18 164.793 174.18 164.98C174.18 165.127 174.234 165.25 174.34 165.35C174.447 165.45 174.577 165.53 174.73 165.59C174.884 165.643 175.11 165.713 175.41 165.8C175.81 165.907 176.137 166.017 176.39 166.13C176.65 166.237 176.874 166.397 177.06 166.61C177.247 166.823 177.344 167.107 177.35 167.46C177.35 167.773 177.264 168.053 177.09 168.3C176.917 168.547 176.67 168.74 176.35 168.88C176.037 169.02 175.667 169.09 175.24 169.09ZM183.632 166.11C183.632 166.317 183.619 166.503 183.592 166.67H179.382C179.415 167.11 179.579 167.463 179.872 167.73C180.165 167.997 180.525 168.13 180.952 168.13C181.565 168.13 181.999 167.873 182.252 167.36H183.482C183.315 167.867 183.012 168.283 182.572 168.61C182.139 168.93 181.599 169.09 180.952 169.09C180.425 169.09 179.952 168.973 179.532 168.74C179.119 168.5 178.792 168.167 178.552 167.74C178.319 167.307 178.202 166.807 178.202 166.24C178.202 165.673 178.315 165.177 178.542 164.75C178.775 164.317 179.099 163.983 179.512 163.75C179.932 163.517 180.412 163.4 180.952 163.4C181.472 163.4 181.935 163.513 182.342 163.74C182.749 163.967 183.065 164.287 183.292 164.7C183.519 165.107 183.632 165.577 183.632 166.11ZM182.442 165.75C182.435 165.33 182.285 164.993 181.992 164.74C181.699 164.487 181.335 164.36 180.902 164.36C180.509 164.36 180.172 164.487 179.892 164.74C179.612 164.987 179.445 165.323 179.392 165.75H182.442ZM186.084 164.42V167.47C186.084 167.677 186.131 167.827 186.224 167.92C186.324 168.007 186.491 168.05 186.724 168.05H187.424V169H186.524C186.011 169 185.617 168.88 185.344 168.64C185.071 168.4 184.934 168.01 184.934 167.47V164.42H184.284V163.49H184.934V162.12H186.084V163.49H187.424V164.42H186.084ZM193.362 169.07C192.896 169.07 192.476 168.99 192.102 168.83C191.729 168.663 191.436 168.43 191.222 168.13C191.009 167.83 190.902 167.48 190.902 167.08H192.122C192.149 167.38 192.266 167.627 192.472 167.82C192.686 168.013 192.982 168.11 193.362 168.11C193.756 168.11 194.062 168.017 194.282 167.83C194.502 167.637 194.612 167.39 194.612 167.09C194.612 166.857 194.542 166.667 194.402 166.52C194.269 166.373 194.099 166.26 193.892 166.18C193.692 166.1 193.412 166.013 193.052 165.92C192.599 165.8 192.229 165.68 191.942 165.56C191.662 165.433 191.422 165.24 191.222 164.98C191.022 164.72 190.922 164.373 190.922 163.94C190.922 163.54 191.022 163.19 191.222 162.89C191.422 162.59 191.702 162.36 192.062 162.2C192.422 162.04 192.839 161.96 193.312 161.96C193.986 161.96 194.536 162.13 194.962 162.47C195.396 162.803 195.636 163.263 195.682 163.85H194.422C194.402 163.597 194.282 163.38 194.062 163.2C193.842 163.02 193.552 162.93 193.192 162.93C192.866 162.93 192.599 163.013 192.392 163.18C192.186 163.347 192.082 163.587 192.082 163.9C192.082 164.113 192.146 164.29 192.272 164.43C192.406 164.563 192.572 164.67 192.772 164.75C192.972 164.83 193.246 164.917 193.592 165.01C194.052 165.137 194.426 165.263 194.712 165.39C195.006 165.517 195.252 165.713 195.452 165.98C195.659 166.24 195.762 166.59 195.762 167.03C195.762 167.383 195.666 167.717 195.472 168.03C195.286 168.343 195.009 168.597 194.642 168.79C194.282 168.977 193.856 169.07 193.362 169.07ZM196.727 166.24C196.727 165.673 196.841 165.177 197.067 164.75C197.301 164.317 197.621 163.983 198.027 163.75C198.434 163.517 198.901 163.4 199.427 163.4C200.094 163.4 200.644 163.56 201.077 163.88C201.517 164.193 201.814 164.643 201.967 165.23H200.737C200.637 164.957 200.477 164.743 200.257 164.59C200.037 164.437 199.761 164.36 199.427 164.36C198.961 164.36 198.587 164.527 198.307 164.86C198.034 165.187 197.897 165.647 197.897 166.24C197.897 166.833 198.034 167.297 198.307 167.63C198.587 167.963 198.961 168.13 199.427 168.13C200.087 168.13 200.524 167.84 200.737 167.26H201.967C201.807 167.82 201.507 168.267 201.067 168.6C200.627 168.927 200.081 169.09 199.427 169.09C198.901 169.09 198.434 168.973 198.027 168.74C197.621 168.5 197.301 168.167 197.067 167.74C196.841 167.307 196.727 166.807 196.727 166.24ZM204.244 164.29C204.41 164.01 204.63 163.793 204.904 163.64C205.184 163.48 205.514 163.4 205.894 163.4V164.58H205.604C205.157 164.58 204.817 164.693 204.584 164.92C204.357 165.147 204.244 165.54 204.244 166.1V169H203.104V163.49H204.244V164.29ZM206.561 166.22C206.561 165.667 206.675 165.177 206.901 164.75C207.135 164.323 207.448 163.993 207.841 163.76C208.241 163.52 208.681 163.4 209.161 163.4C209.595 163.4 209.971 163.487 210.291 163.66C210.618 163.827 210.878 164.037 211.071 164.29V163.49H212.221V169H211.071V168.18C210.878 168.44 210.615 168.657 210.281 168.83C209.948 169.003 209.568 169.09 209.141 169.09C208.668 169.09 208.235 168.97 207.841 168.73C207.448 168.483 207.135 168.143 206.901 167.71C206.675 167.27 206.561 166.773 206.561 166.22ZM211.071 166.24C211.071 165.86 210.991 165.53 210.831 165.25C210.678 164.97 210.475 164.757 210.221 164.61C209.968 164.463 209.695 164.39 209.401 164.39C209.108 164.39 208.835 164.463 208.581 164.61C208.328 164.75 208.121 164.96 207.961 165.24C207.808 165.513 207.731 165.84 207.731 166.22C207.731 166.6 207.808 166.933 207.961 167.22C208.121 167.507 208.328 167.727 208.581 167.88C208.841 168.027 209.115 168.1 209.401 168.1C209.695 168.1 209.968 168.027 210.221 167.88C210.475 167.733 210.678 167.52 210.831 167.24C210.991 166.953 211.071 166.62 211.071 166.24ZM215.049 164.42V167.47C215.049 167.677 215.095 167.827 215.189 167.92C215.289 168.007 215.455 168.05 215.689 168.05H216.389V169H215.489C214.975 169 214.582 168.88 214.309 168.64C214.035 168.4 213.899 168.01 213.899 167.47V164.42H213.249V163.49H213.899V162.12H215.049V163.49H216.389V164.42H215.049ZM217.059 166.24C217.059 165.673 217.173 165.177 217.399 164.75C217.633 164.317 217.953 163.983 218.359 163.75C218.766 163.517 219.233 163.4 219.759 163.4C220.426 163.4 220.976 163.56 221.409 163.88C221.849 164.193 222.146 164.643 222.299 165.23H221.069C220.969 164.957 220.809 164.743 220.589 164.59C220.369 164.437 220.093 164.36 219.759 164.36C219.293 164.36 218.919 164.527 218.639 164.86C218.366 165.187 218.229 165.647 218.229 166.24C218.229 166.833 218.366 167.297 218.639 167.63C218.919 167.963 219.293 168.13 219.759 168.13C220.419 168.13 220.856 167.84 221.069 167.26H222.299C222.139 167.82 221.839 168.267 221.399 168.6C220.959 168.927 220.413 169.09 219.759 169.09C219.233 169.09 218.766 168.973 218.359 168.74C217.953 168.5 217.633 168.167 217.399 167.74C217.173 167.307 217.059 166.807 217.059 166.24ZM226.286 163.4C226.706 163.4 227.079 163.49 227.406 163.67C227.739 163.85 227.999 164.117 228.186 164.47C228.379 164.823 228.476 165.25 228.476 165.75V169H227.346V165.92C227.346 165.427 227.222 165.05 226.976 164.79C226.729 164.523 226.392 164.39 225.966 164.39C225.539 164.39 225.199 164.523 224.946 164.79C224.699 165.05 224.576 165.427 224.576 165.92V169H223.436V161.6H224.576V164.13C224.769 163.897 225.012 163.717 225.306 163.59C225.606 163.463 225.932 163.4 226.286 163.4ZM233.1 169.07C232.453 169.07 231.856 168.92 231.31 168.62C230.77 168.313 230.34 167.89 230.02 167.35C229.706 166.803 229.55 166.19 229.55 165.51C229.55 164.83 229.706 164.22 230.02 163.68C230.34 163.14 230.77 162.72 231.31 162.42C231.856 162.113 232.453 161.96 233.1 161.96C233.753 161.96 234.35 162.113 234.89 162.42C235.436 162.72 235.866 163.14 236.18 163.68C236.493 164.22 236.65 164.83 236.65 165.51C236.65 166.19 236.493 166.803 236.18 167.35C235.866 167.89 235.436 168.313 234.89 168.62C234.35 168.92 233.753 169.07 233.1 169.07ZM233.1 168.08C233.56 168.08 233.97 167.977 234.33 167.77C234.69 167.557 234.97 167.257 235.17 166.87C235.376 166.477 235.48 166.023 235.48 165.51C235.48 164.997 235.376 164.547 235.17 164.16C234.97 163.773 234.69 163.477 234.33 163.27C233.97 163.063 233.56 162.96 233.1 162.96C232.64 162.96 232.23 163.063 231.87 163.27C231.51 163.477 231.226 163.773 231.02 164.16C230.82 164.547 230.72 164.997 230.72 165.51C230.72 166.023 230.82 166.477 231.02 166.87C231.226 167.257 231.51 167.557 231.87 167.77C232.23 167.977 232.64 168.08 233.1 168.08ZM240.061 169.07C239.595 169.07 239.175 168.99 238.801 168.83C238.428 168.663 238.135 168.43 237.921 168.13C237.708 167.83 237.601 167.48 237.601 167.08H238.821C238.848 167.38 238.965 167.627 239.171 167.82C239.385 168.013 239.681 168.11 240.061 168.11C240.455 168.11 240.761 168.017 240.981 167.83C241.201 167.637 241.311 167.39 241.311 167.09C241.311 166.857 241.241 166.667 241.101 166.52C240.968 166.373 240.798 166.26 240.591 166.18C240.391 166.1 240.111 166.013 239.751 165.92C239.298 165.8 238.928 165.68 238.641 165.56C238.361 165.433 238.121 165.24 237.921 164.98C237.721 164.72 237.621 164.373 237.621 163.94C237.621 163.54 237.721 163.19 237.921 162.89C238.121 162.59 238.401 162.36 238.761 162.2C239.121 162.04 239.538 161.96 240.011 161.96C240.685 161.96 241.235 162.13 241.661 162.47C242.095 162.803 242.335 163.263 242.381 163.85H241.121C241.101 163.597 240.981 163.38 240.761 163.2C240.541 163.02 240.251 162.93 239.891 162.93C239.565 162.93 239.298 163.013 239.091 163.18C238.885 163.347 238.781 163.587 238.781 163.9C238.781 164.113 238.845 164.29 238.971 164.43C239.105 164.563 239.271 164.67 239.471 164.75C239.671 164.83 239.945 164.917 240.291 165.01C240.751 165.137 241.125 165.263 241.411 165.39C241.705 165.517 241.951 165.713 242.151 165.98C242.358 166.24 242.461 166.59 242.461 167.03C242.461 167.383 242.365 167.717 242.171 168.03C241.985 168.343 241.708 168.597 241.341 168.79C240.981 168.977 240.555 169.07 240.061 169.07ZM244.267 169.07C244.06 169.07 243.887 169 243.747 168.86C243.607 168.72 243.537 168.547 243.537 168.34C243.537 168.133 243.607 167.96 243.747 167.82C243.887 167.68 244.06 167.61 244.267 167.61C244.467 167.61 244.637 167.68 244.777 167.82C244.917 167.96 244.987 168.133 244.987 168.34C244.987 168.547 244.917 168.72 244.777 168.86C244.637 169 244.467 169.07 244.267 169.07ZM253.966 162.05L251.666 166.48V169H250.526V166.48L248.216 162.05H249.486L251.096 165.46L252.706 162.05H253.966ZM257.261 169.09C256.741 169.09 256.271 168.973 255.851 168.74C255.431 168.5 255.101 168.167 254.861 167.74C254.621 167.307 254.501 166.807 254.501 166.24C254.501 165.68 254.624 165.183 254.871 164.75C255.118 164.317 255.454 163.983 255.881 163.75C256.308 163.517 256.784 163.4 257.311 163.4C257.838 163.4 258.314 163.517 258.741 163.75C259.168 163.983 259.504 164.317 259.751 164.75C259.998 165.183 260.121 165.68 260.121 166.24C260.121 166.8 259.994 167.297 259.741 167.73C259.488 168.163 259.141 168.5 258.701 168.74C258.268 168.973 257.788 169.09 257.261 169.09ZM257.261 168.1C257.554 168.1 257.828 168.03 258.081 167.89C258.341 167.75 258.551 167.54 258.711 167.26C258.871 166.98 258.951 166.64 258.951 166.24C258.951 165.84 258.874 165.503 258.721 165.23C258.568 164.95 258.364 164.74 258.111 164.6C257.858 164.46 257.584 164.39 257.291 164.39C256.998 164.39 256.724 164.46 256.471 164.6C256.224 164.74 256.028 164.95 255.881 165.23C255.734 165.503 255.661 165.84 255.661 166.24C255.661 166.833 255.811 167.293 256.111 167.62C256.418 167.94 256.801 168.1 257.261 168.1ZM266.238 163.49V169H265.098V168.35C264.918 168.577 264.681 168.757 264.388 168.89C264.101 169.017 263.795 169.08 263.468 169.08C263.035 169.08 262.645 168.99 262.298 168.81C261.958 168.63 261.688 168.363 261.488 168.01C261.295 167.657 261.198 167.23 261.198 166.73V163.49H262.328V166.56C262.328 167.053 262.451 167.433 262.698 167.7C262.945 167.96 263.281 168.09 263.708 168.09C264.135 168.09 264.471 167.96 264.718 167.7C264.971 167.433 265.098 167.053 265.098 166.56V163.49H266.238ZM271.48 161.6V169H270.34V161.6H271.48ZM275.367 169.09C274.847 169.09 274.377 168.973 273.957 168.74C273.537 168.5 273.207 168.167 272.967 167.74C272.727 167.307 272.607 166.807 272.607 166.24C272.607 165.68 272.73 165.183 272.977 164.75C273.223 164.317 273.56 163.983 273.987 163.75C274.413 163.517 274.89 163.4 275.417 163.4C275.943 163.4 276.42 163.517 276.847 163.75C277.273 163.983 277.61 164.317 277.857 164.75C278.103 165.183 278.227 165.68 278.227 166.24C278.227 166.8 278.1 167.297 277.847 167.73C277.593 168.163 277.247 168.5 276.807 168.74C276.373 168.973 275.893 169.09 275.367 169.09ZM275.367 168.1C275.66 168.1 275.933 168.03 276.187 167.89C276.447 167.75 276.657 167.54 276.817 167.26C276.977 166.98 277.057 166.64 277.057 166.24C277.057 165.84 276.98 165.503 276.827 165.23C276.673 164.95 276.47 164.74 276.217 164.6C275.963 164.46 275.69 164.39 275.397 164.39C275.103 164.39 274.83 164.46 274.577 164.6C274.33 164.74 274.133 164.95 273.987 165.23C273.84 165.503 273.767 165.84 273.767 166.24C273.767 166.833 273.917 167.293 274.217 167.62C274.523 167.94 274.907 168.1 275.367 168.1ZM281.354 169.09C280.92 169.09 280.53 169.013 280.184 168.86C279.844 168.7 279.574 168.487 279.374 168.22C279.174 167.947 279.067 167.643 279.054 167.31H280.234C280.254 167.543 280.364 167.74 280.564 167.9C280.77 168.053 281.027 168.13 281.334 168.13C281.654 168.13 281.9 168.07 282.074 167.95C282.254 167.823 282.344 167.663 282.344 167.47C282.344 167.263 282.244 167.11 282.044 167.01C281.85 166.91 281.54 166.8 281.114 166.68C280.7 166.567 280.364 166.457 280.104 166.35C279.844 166.243 279.617 166.08 279.424 165.86C279.237 165.64 279.144 165.35 279.144 164.99C279.144 164.697 279.23 164.43 279.404 164.19C279.577 163.943 279.824 163.75 280.144 163.61C280.47 163.47 280.844 163.4 281.264 163.4C281.89 163.4 282.394 163.56 282.774 163.88C283.16 164.193 283.367 164.623 283.394 165.17H282.254C282.234 164.923 282.134 164.727 281.954 164.58C281.774 164.433 281.53 164.36 281.224 164.36C280.924 164.36 280.694 164.417 280.534 164.53C280.374 164.643 280.294 164.793 280.294 164.98C280.294 165.127 280.347 165.25 280.454 165.35C280.56 165.45 280.69 165.53 280.844 165.59C280.997 165.643 281.224 165.713 281.524 165.8C281.924 165.907 282.25 166.017 282.504 166.13C282.764 166.237 282.987 166.397 283.174 166.61C283.36 166.823 283.457 167.107 283.464 167.46C283.464 167.773 283.377 168.053 283.204 168.3C283.03 168.547 282.784 168.74 282.464 168.88C282.15 169.02 281.78 169.09 281.354 169.09ZM289.745 166.11C289.745 166.317 289.732 166.503 289.705 166.67H285.495C285.529 167.11 285.692 167.463 285.985 167.73C286.279 167.997 286.639 168.13 287.065 168.13C287.679 168.13 288.112 167.873 288.365 167.36H289.595C289.429 167.867 289.125 168.283 288.685 168.61C288.252 168.93 287.712 169.09 287.065 169.09C286.539 169.09 286.065 168.973 285.645 168.74C285.232 168.5 284.905 168.167 284.665 167.74C284.432 167.307 284.315 166.807 284.315 166.24C284.315 165.673 284.429 165.177 284.655 164.75C284.889 164.317 285.212 163.983 285.625 163.75C286.045 163.517 286.525 163.4 287.065 163.4C287.585 163.4 288.049 163.513 288.455 163.74C288.862 163.967 289.179 164.287 289.405 164.7C289.632 165.107 289.745 165.577 289.745 166.11ZM288.555 165.75C288.549 165.33 288.399 164.993 288.105 164.74C287.812 164.487 287.449 164.36 287.015 164.36C286.622 164.36 286.285 164.487 286.005 164.74C285.725 164.987 285.559 165.323 285.505 165.75H288.555ZM293.085 166.22C293.085 165.667 293.198 165.177 293.425 164.75C293.658 164.323 293.972 163.993 294.365 163.76C294.765 163.52 295.205 163.4 295.685 163.4C296.118 163.4 296.495 163.487 296.815 163.66C297.142 163.827 297.402 164.037 297.595 164.29V163.49H298.745V169H297.595V168.18C297.402 168.44 297.138 168.657 296.805 168.83C296.472 169.003 296.092 169.09 295.665 169.09C295.192 169.09 294.758 168.97 294.365 168.73C293.972 168.483 293.658 168.143 293.425 167.71C293.198 167.27 293.085 166.773 293.085 166.22ZM297.595 166.24C297.595 165.86 297.515 165.53 297.355 165.25C297.202 164.97 296.998 164.757 296.745 164.61C296.492 164.463 296.218 164.39 295.925 164.39C295.632 164.39 295.358 164.463 295.105 164.61C294.852 164.75 294.645 164.96 294.485 165.24C294.332 165.513 294.255 165.84 294.255 166.22C294.255 166.6 294.332 166.933 294.485 167.22C294.645 167.507 294.852 167.727 295.105 167.88C295.365 168.027 295.638 168.1 295.925 168.1C296.218 168.1 296.492 168.027 296.745 167.88C296.998 167.733 297.202 167.52 297.355 167.24C297.515 166.953 297.595 166.62 297.595 166.24ZM301.382 161.6V169H300.242V161.6H301.382ZM304.019 161.6V169H302.879V161.6H304.019ZM313.073 163.49L309.693 171.59H308.513L309.633 168.91L307.463 163.49H308.733L310.283 167.69L311.893 163.49H313.073ZM316.324 169.09C315.804 169.09 315.334 168.973 314.914 168.74C314.494 168.5 314.164 168.167 313.924 167.74C313.684 167.307 313.564 166.807 313.564 166.24C313.564 165.68 313.687 165.183 313.934 164.75C314.18 164.317 314.517 163.983 314.944 163.75C315.37 163.517 315.847 163.4 316.374 163.4C316.9 163.4 317.377 163.517 317.804 163.75C318.23 163.983 318.567 164.317 318.814 164.75C319.06 165.183 319.184 165.68 319.184 166.24C319.184 166.8 319.057 167.297 318.804 167.73C318.55 168.163 318.204 168.5 317.764 168.74C317.33 168.973 316.85 169.09 316.324 169.09ZM316.324 168.1C316.617 168.1 316.89 168.03 317.144 167.89C317.404 167.75 317.614 167.54 317.774 167.26C317.934 166.98 318.014 166.64 318.014 166.24C318.014 165.84 317.937 165.503 317.784 165.23C317.63 164.95 317.427 164.74 317.174 164.6C316.92 164.46 316.647 164.39 316.354 164.39C316.06 164.39 315.787 164.46 315.534 164.6C315.287 164.74 315.09 164.95 314.944 165.23C314.797 165.503 314.724 165.84 314.724 166.24C314.724 166.833 314.874 167.293 315.174 167.62C315.48 167.94 315.864 168.1 316.324 168.1ZM325.301 163.49V169H324.161V168.35C323.981 168.577 323.744 168.757 323.451 168.89C323.164 169.017 322.857 169.08 322.531 169.08C322.097 169.08 321.707 168.99 321.361 168.81C321.021 168.63 320.751 168.363 320.551 168.01C320.357 167.657 320.261 167.23 320.261 166.73V163.49H321.391V166.56C321.391 167.053 321.514 167.433 321.761 167.7C322.007 167.96 322.344 168.09 322.771 168.09C323.197 168.09 323.534 167.96 323.781 167.7C324.034 167.433 324.161 167.053 324.161 166.56V163.49H325.301ZM327.945 164.29C328.111 164.01 328.331 163.793 328.605 163.64C328.885 163.48 329.215 163.4 329.595 163.4V164.58H329.305C328.858 164.58 328.518 164.693 328.285 164.92C328.058 165.147 327.945 165.54 327.945 166.1V169H326.805V163.49H327.945V164.29ZM335.55 164.42H334.53V169H333.38V164.42H332.73V163.49H333.38V163.1C333.38 162.467 333.547 162.007 333.88 161.72C334.22 161.427 334.75 161.28 335.47 161.28V162.23C335.124 162.23 334.88 162.297 334.74 162.43C334.6 162.557 334.53 162.78 334.53 163.1V163.49H335.55V164.42ZM337.141 162.76C336.934 162.76 336.761 162.69 336.621 162.55C336.481 162.41 336.411 162.237 336.411 162.03C336.411 161.823 336.481 161.65 336.621 161.51C336.761 161.37 336.934 161.3 337.141 161.3C337.341 161.3 337.511 161.37 337.651 161.51C337.791 161.65 337.861 161.823 337.861 162.03C337.861 162.237 337.791 162.41 337.651 162.55C337.511 162.69 337.341 162.76 337.141 162.76ZM337.701 163.49V169H336.561V163.49H337.701ZM340.337 161.6V169H339.197V161.6H340.337ZM346.884 166.11C346.884 166.317 346.871 166.503 346.844 166.67H342.634C342.667 167.11 342.831 167.463 343.124 167.73C343.417 167.997 343.777 168.13 344.204 168.13C344.817 168.13 345.251 167.873 345.504 167.36H346.734C346.567 167.867 346.264 168.283 345.824 168.61C345.391 168.93 344.851 169.09 344.204 169.09C343.677 169.09 343.204 168.973 342.784 168.74C342.371 168.5 342.044 168.167 341.804 167.74C341.571 167.307 341.454 166.807 341.454 166.24C341.454 165.673 341.567 165.177 341.794 164.75C342.027 164.317 342.351 163.983 342.764 163.75C343.184 163.517 343.664 163.4 344.204 163.4C344.724 163.4 345.187 163.513 345.594 163.74C346.001 163.967 346.317 164.287 346.544 164.7C346.771 165.107 346.884 165.577 346.884 166.11ZM345.694 165.75C345.687 165.33 345.537 164.993 345.244 164.74C344.951 164.487 344.587 164.36 344.154 164.36C343.761 164.36 343.424 164.487 343.144 164.74C342.864 164.987 342.697 165.323 342.644 165.75H345.694ZM350.006 169.09C349.573 169.09 349.183 169.013 348.836 168.86C348.496 168.7 348.226 168.487 348.026 168.22C347.826 167.947 347.719 167.643 347.706 167.31H348.886C348.906 167.543 349.016 167.74 349.216 167.9C349.423 168.053 349.679 168.13 349.986 168.13C350.306 168.13 350.553 168.07 350.726 167.95C350.906 167.823 350.996 167.663 350.996 167.47C350.996 167.263 350.896 167.11 350.696 167.01C350.503 166.91 350.193 166.8 349.766 166.68C349.353 166.567 349.016 166.457 348.756 166.35C348.496 166.243 348.269 166.08 348.076 165.86C347.889 165.64 347.796 165.35 347.796 164.99C347.796 164.697 347.883 164.43 348.056 164.19C348.229 163.943 348.476 163.75 348.796 163.61C349.123 163.47 349.496 163.4 349.916 163.4C350.543 163.4 351.046 163.56 351.426 163.88C351.813 164.193 352.019 164.623 352.046 165.17H350.906C350.886 164.923 350.786 164.727 350.606 164.58C350.426 164.433 350.183 164.36 349.876 164.36C349.576 164.36 349.346 164.417 349.186 164.53C349.026 164.643 348.946 164.793 348.946 164.98C348.946 165.127 348.999 165.25 349.106 165.35C349.213 165.45 349.343 165.53 349.496 165.59C349.649 165.643 349.876 165.713 350.176 165.8C350.576 165.907 350.903 166.017 351.156 166.13C351.416 166.237 351.639 166.397 351.826 166.61C352.013 166.823 352.109 167.107 352.116 167.46C352.116 167.773 352.029 168.053 351.856 168.3C351.683 168.547 351.436 168.74 351.116 168.88C350.803 169.02 350.433 169.09 350.006 169.09ZM353.808 169.07C353.601 169.07 353.428 169 353.288 168.86C353.148 168.72 353.078 168.547 353.078 168.34C353.078 168.133 353.148 167.96 353.288 167.82C353.428 167.68 353.601 167.61 353.808 167.61C354.008 167.61 354.178 167.68 354.318 167.82C354.458 167.96 354.528 168.133 354.528 168.34C354.528 168.547 354.458 168.72 354.318 168.86C354.178 169 354.008 169.07 353.808 169.07Z" fill="white"/>
<path d="M163.02 232.05C163.76 232.05 164.407 232.193 164.96 232.48C165.52 232.76 165.95 233.167 166.25 233.7C166.557 234.227 166.71 234.843 166.71 235.55C166.71 236.257 166.557 236.87 166.25 237.39C165.95 237.91 165.52 238.31 164.96 238.59C164.407 238.863 163.76 239 163.02 239H160.75V232.05H163.02ZM163.02 238.07C163.833 238.07 164.457 237.85 164.89 237.41C165.323 236.97 165.54 236.35 165.54 235.55C165.54 234.743 165.323 234.113 164.89 233.66C164.457 233.207 163.833 232.98 163.02 232.98H161.89V238.07H163.02ZM168.42 232.76C168.213 232.76 168.04 232.69 167.9 232.55C167.76 232.41 167.69 232.237 167.69 232.03C167.69 231.823 167.76 231.65 167.9 231.51C168.04 231.37 168.213 231.3 168.42 231.3C168.62 231.3 168.79 231.37 168.93 231.51C169.07 231.65 169.14 231.823 169.14 232.03C169.14 232.237 169.07 232.41 168.93 232.55C168.79 232.69 168.62 232.76 168.42 232.76ZM168.98 233.49V239H167.84V233.49H168.98ZM172.477 239.09C172.043 239.09 171.653 239.013 171.307 238.86C170.967 238.7 170.697 238.487 170.497 238.22C170.297 237.947 170.19 237.643 170.177 237.31H171.357C171.377 237.543 171.487 237.74 171.687 237.9C171.893 238.053 172.15 238.13 172.457 238.13C172.777 238.13 173.023 238.07 173.197 237.95C173.377 237.823 173.467 237.663 173.467 237.47C173.467 237.263 173.367 237.11 173.167 237.01C172.973 236.91 172.663 236.8 172.237 236.68C171.823 236.567 171.487 236.457 171.227 236.35C170.967 236.243 170.74 236.08 170.547 235.86C170.36 235.64 170.267 235.35 170.267 234.99C170.267 234.697 170.353 234.43 170.527 234.19C170.7 233.943 170.947 233.75 171.267 233.61C171.593 233.47 171.967 233.4 172.387 233.4C173.013 233.4 173.517 233.56 173.897 233.88C174.283 234.193 174.49 234.623 174.517 235.17H173.377C173.357 234.923 173.257 234.727 173.077 234.58C172.897 234.433 172.653 234.36 172.347 234.36C172.047 234.36 171.817 234.417 171.657 234.53C171.497 234.643 171.417 234.793 171.417 234.98C171.417 235.127 171.47 235.25 171.577 235.35C171.683 235.45 171.813 235.53 171.967 235.59C172.12 235.643 172.347 235.713 172.647 235.8C173.047 235.907 173.373 236.017 173.627 236.13C173.887 236.237 174.11 236.397 174.297 236.61C174.483 236.823 174.58 237.107 174.587 237.46C174.587 237.773 174.5 238.053 174.327 238.3C174.153 238.547 173.907 238.74 173.587 238.88C173.273 239.02 172.903 239.09 172.477 239.09ZM176.958 234.3C177.152 234.047 177.415 233.833 177.748 233.66C178.082 233.487 178.458 233.4 178.878 233.4C179.358 233.4 179.795 233.52 180.188 233.76C180.588 233.993 180.902 234.323 181.128 234.75C181.355 235.177 181.468 235.667 181.468 236.22C181.468 236.773 181.355 237.27 181.128 237.71C180.902 238.143 180.588 238.483 180.188 238.73C179.795 238.97 179.358 239.09 178.878 239.09C178.458 239.09 178.085 239.007 177.758 238.84C177.432 238.667 177.165 238.453 176.958 238.2V241.62H175.818V233.49H176.958V234.3ZM180.308 236.22C180.308 235.84 180.228 235.513 180.068 235.24C179.915 234.96 179.708 234.75 179.448 234.61C179.195 234.463 178.922 234.39 178.628 234.39C178.342 234.39 178.068 234.463 177.808 234.61C177.555 234.757 177.348 234.97 177.188 235.25C177.035 235.53 176.958 235.86 176.958 236.24C176.958 236.62 177.035 236.953 177.188 237.24C177.348 237.52 177.555 237.733 177.808 237.88C178.068 238.027 178.342 238.1 178.628 238.1C178.922 238.1 179.195 238.027 179.448 237.88C179.708 237.727 179.915 237.507 180.068 237.22C180.228 236.933 180.308 236.6 180.308 236.22ZM183.736 231.6V239H182.596V231.6H183.736ZM184.852 236.22C184.852 235.667 184.966 235.177 185.192 234.75C185.426 234.323 185.739 233.993 186.132 233.76C186.532 233.52 186.972 233.4 187.452 233.4C187.886 233.4 188.262 233.487 188.582 233.66C188.909 233.827 189.169 234.037 189.362 234.29V233.49H190.512V239H189.362V238.18C189.169 238.44 188.906 238.657 188.572 238.83C188.239 239.003 187.859 239.09 187.432 239.09C186.959 239.09 186.526 238.97 186.132 238.73C185.739 238.483 185.426 238.143 185.192 237.71C184.966 237.27 184.852 236.773 184.852 236.22ZM189.362 236.24C189.362 235.86 189.282 235.53 189.122 235.25C188.969 234.97 188.766 234.757 188.512 234.61C188.259 234.463 187.986 234.39 187.692 234.39C187.399 234.39 187.126 234.463 186.872 234.61C186.619 234.75 186.412 234.96 186.252 235.24C186.099 235.513 186.022 235.84 186.022 236.22C186.022 236.6 186.099 236.933 186.252 237.22C186.412 237.507 186.619 237.727 186.872 237.88C187.132 238.027 187.406 238.1 187.692 238.1C187.986 238.1 188.259 238.027 188.512 237.88C188.766 237.733 188.969 237.52 189.122 237.24C189.282 236.953 189.362 236.62 189.362 236.24ZM196.97 233.49L193.59 241.59H192.41L193.53 238.91L191.36 233.49H192.63L194.18 237.69L195.79 233.49H196.97ZM200.048 236.22C200.048 235.667 200.161 235.177 200.388 234.75C200.621 234.323 200.934 233.993 201.328 233.76C201.728 233.52 202.168 233.4 202.648 233.4C203.081 233.4 203.458 233.487 203.778 233.66C204.104 233.827 204.364 234.037 204.558 234.29V233.49H205.708V239H204.558V238.18C204.364 238.44 204.101 238.657 203.768 238.83C203.434 239.003 203.054 239.09 202.628 239.09C202.154 239.09 201.721 238.97 201.328 238.73C200.934 238.483 200.621 238.143 200.388 237.71C200.161 237.27 200.048 236.773 200.048 236.22ZM204.558 236.24C204.558 235.86 204.478 235.53 204.318 235.25C204.164 234.97 203.961 234.757 203.708 234.61C203.454 234.463 203.181 234.39 202.888 234.39C202.594 234.39 202.321 234.463 202.068 234.61C201.814 234.75 201.608 234.96 201.448 235.24C201.294 235.513 201.218 235.84 201.218 236.22C201.218 236.6 201.294 236.933 201.448 237.22C201.608 237.507 201.814 237.727 202.068 237.88C202.328 238.027 202.601 238.1 202.888 238.1C203.181 238.1 203.454 238.027 203.708 237.88C203.961 237.733 204.164 237.52 204.318 237.24C204.478 236.953 204.558 236.62 204.558 236.24ZM211.933 237.98L213.493 233.49H214.703L212.603 239H211.243L209.153 233.49H210.373L211.933 237.98ZM216.144 232.76C215.938 232.76 215.764 232.69 215.624 232.55C215.484 232.41 215.414 232.237 215.414 232.03C215.414 231.823 215.484 231.65 215.624 231.51C215.764 231.37 215.938 231.3 216.144 231.3C216.344 231.3 216.514 231.37 216.654 231.51C216.794 231.65 216.864 231.823 216.864 232.03C216.864 232.237 216.794 232.41 216.654 232.55C216.514 232.69 216.344 232.76 216.144 232.76ZM216.704 233.49V239H215.564V233.49H216.704ZM219.341 234.29C219.508 234.01 219.728 233.793 220.001 233.64C220.281 233.48 220.611 233.4 220.991 233.4V234.58H220.701C220.255 234.58 219.915 234.693 219.681 234.92C219.455 235.147 219.341 235.54 219.341 236.1V239H218.201V233.49H219.341V234.29ZM223.369 234.42V237.47C223.369 237.677 223.416 237.827 223.509 237.92C223.609 238.007 223.776 238.05 224.009 238.05H224.709V239H223.809C223.296 239 222.902 238.88 222.629 238.64C222.356 238.4 222.219 238.01 222.219 237.47V234.42H221.569V233.49H222.219V232.12H223.369V233.49H224.709V234.42H223.369ZM230.75 233.49V239H229.61V238.35C229.43 238.577 229.193 238.757 228.9 238.89C228.613 239.017 228.306 239.08 227.98 239.08C227.546 239.08 227.156 238.99 226.81 238.81C226.47 238.63 226.2 238.363 226 238.01C225.806 237.657 225.71 237.23 225.71 236.73V233.49H226.84V236.56C226.84 237.053 226.963 237.433 227.21 237.7C227.456 237.96 227.793 238.09 228.22 238.09C228.646 238.09 228.983 237.96 229.23 237.7C229.483 237.433 229.61 237.053 229.61 236.56V233.49H230.75ZM231.874 236.22C231.874 235.667 231.987 235.177 232.214 234.75C232.447 234.323 232.761 233.993 233.154 233.76C233.554 233.52 233.994 233.4 234.474 233.4C234.907 233.4 235.284 233.487 235.604 233.66C235.931 233.827 236.191 234.037 236.384 234.29V233.49H237.534V239H236.384V238.18C236.191 238.44 235.927 238.657 235.594 238.83C235.261 239.003 234.881 239.09 234.454 239.09C233.981 239.09 233.547 238.97 233.154 238.73C232.761 238.483 232.447 238.143 232.214 237.71C231.987 237.27 231.874 236.773 231.874 236.22ZM236.384 236.24C236.384 235.86 236.304 235.53 236.144 235.25C235.991 234.97 235.787 234.757 235.534 234.61C235.281 234.463 235.007 234.39 234.714 234.39C234.421 234.39 234.147 234.463 233.894 234.61C233.641 234.75 233.434 234.96 233.274 235.24C233.121 235.513 233.044 235.84 233.044 236.22C233.044 236.6 233.121 236.933 233.274 237.22C233.434 237.507 233.641 237.727 233.894 237.88C234.154 238.027 234.427 238.1 234.714 238.1C235.007 238.1 235.281 238.027 235.534 237.88C235.787 237.733 235.991 237.52 236.144 237.24C236.304 236.953 236.384 236.62 236.384 236.24ZM240.171 231.6V239H239.031V231.6H240.171ZM246.446 236.25L248.986 239H247.446L245.406 236.63V239H244.266V231.6H245.406V235.9L247.406 233.49H248.986L246.446 236.25ZM254.853 236.11C254.853 236.317 254.839 236.503 254.813 236.67H250.603C250.636 237.11 250.799 237.463 251.093 237.73C251.386 237.997 251.746 238.13 252.173 238.13C252.786 238.13 253.219 237.873 253.473 237.36H254.703C254.536 237.867 254.233 238.283 253.793 238.61C253.359 238.93 252.819 239.09 252.173 239.09C251.646 239.09 251.173 238.973 250.753 238.74C250.339 238.5 250.013 238.167 249.773 237.74C249.539 237.307 249.423 236.807 249.423 236.24C249.423 235.673 249.536 235.177 249.763 234.75C249.996 234.317 250.319 233.983 250.733 233.75C251.153 233.517 251.633 233.4 252.173 233.4C252.693 233.4 253.156 233.513 253.563 233.74C253.969 233.967 254.286 234.287 254.513 234.7C254.739 235.107 254.853 235.577 254.853 236.11ZM253.663 235.75C253.656 235.33 253.506 234.993 253.213 234.74C252.919 234.487 252.556 234.36 252.123 234.36C251.729 234.36 251.393 234.487 251.113 234.74C250.833 234.987 250.666 235.323 250.613 235.75H253.663ZM260.935 233.49L257.555 241.59H256.375L257.495 238.91L255.325 233.49H256.595L258.145 237.69L259.755 233.49H260.935ZM262.935 234.31C263.128 234.043 263.392 233.827 263.725 233.66C264.065 233.487 264.442 233.4 264.855 233.4C265.342 233.4 265.782 233.517 266.175 233.75C266.568 233.983 266.878 234.317 267.105 234.75C267.332 235.177 267.445 235.667 267.445 236.22C267.445 236.773 267.332 237.27 267.105 237.71C266.878 238.143 266.565 238.483 266.165 238.73C265.772 238.97 265.335 239.09 264.855 239.09C264.428 239.09 264.048 239.007 263.715 238.84C263.388 238.673 263.128 238.46 262.935 238.2V239H261.795V231.6H262.935V234.31ZM266.285 236.22C266.285 235.84 266.205 235.513 266.045 235.24C265.892 234.96 265.685 234.75 265.425 234.61C265.172 234.463 264.898 234.39 264.605 234.39C264.318 234.39 264.045 234.463 263.785 234.61C263.532 234.757 263.325 234.97 263.165 235.25C263.012 235.53 262.935 235.86 262.935 236.24C262.935 236.62 263.012 236.953 263.165 237.24C263.325 237.52 263.532 237.733 263.785 237.88C264.045 238.027 264.318 238.1 264.605 238.1C264.898 238.1 265.172 238.027 265.425 237.88C265.685 237.727 265.892 237.507 266.045 237.22C266.205 236.933 266.285 236.6 266.285 236.22ZM270.962 239.09C270.442 239.09 269.972 238.973 269.552 238.74C269.132 238.5 268.802 238.167 268.562 237.74C268.322 237.307 268.202 236.807 268.202 236.24C268.202 235.68 268.326 235.183 268.572 234.75C268.819 234.317 269.156 233.983 269.582 233.75C270.009 233.517 270.486 233.4 271.012 233.4C271.539 233.4 272.016 233.517 272.442 233.75C272.869 233.983 273.206 234.317 273.452 234.75C273.699 235.183 273.822 235.68 273.822 236.24C273.822 236.8 273.696 237.297 273.442 237.73C273.189 238.163 272.842 238.5 272.402 238.74C271.969 238.973 271.489 239.09 270.962 239.09ZM270.962 238.1C271.256 238.1 271.529 238.03 271.782 237.89C272.042 237.75 272.252 237.54 272.412 237.26C272.572 236.98 272.652 236.64 272.652 236.24C272.652 235.84 272.576 235.503 272.422 235.23C272.269 234.95 272.066 234.74 271.812 234.6C271.559 234.46 271.286 234.39 270.992 234.39C270.699 234.39 270.426 234.46 270.172 234.6C269.926 234.74 269.729 234.95 269.582 235.23C269.436 235.503 269.362 235.84 269.362 236.24C269.362 236.833 269.512 237.293 269.812 237.62C270.119 237.94 270.502 238.1 270.962 238.1ZM274.569 236.22C274.569 235.667 274.683 235.177 274.909 234.75C275.143 234.323 275.456 233.993 275.849 233.76C276.249 233.52 276.689 233.4 277.169 233.4C277.603 233.4 277.979 233.487 278.299 233.66C278.626 233.827 278.886 234.037 279.079 234.29V233.49H280.229V239H279.079V238.18C278.886 238.44 278.623 238.657 278.289 238.83C277.956 239.003 277.576 239.09 277.149 239.09C276.676 239.09 276.243 238.97 275.849 238.73C275.456 238.483 275.143 238.143 274.909 237.71C274.683 237.27 274.569 236.773 274.569 236.22ZM279.079 236.24C279.079 235.86 278.999 235.53 278.839 235.25C278.686 234.97 278.483 234.757 278.229 234.61C277.976 234.463 277.703 234.39 277.409 234.39C277.116 234.39 276.843 234.463 276.589 234.61C276.336 234.75 276.129 234.96 275.969 235.24C275.816 235.513 275.739 235.84 275.739 236.22C275.739 236.6 275.816 236.933 275.969 237.22C276.129 237.507 276.336 237.727 276.589 237.88C276.849 238.027 277.123 238.1 277.409 238.1C277.703 238.1 277.976 238.027 278.229 237.88C278.483 237.733 278.686 237.52 278.839 237.24C278.999 236.953 279.079 236.62 279.079 236.24ZM282.867 234.29C283.033 234.01 283.253 233.793 283.527 233.64C283.807 233.48 284.137 233.4 284.517 233.4V234.58H284.227C283.78 234.58 283.44 234.693 283.207 234.92C282.98 235.147 282.867 235.54 282.867 236.1V239H281.727V233.49H282.867V234.29ZM285.184 236.22C285.184 235.667 285.298 235.177 285.524 234.75C285.758 234.323 286.071 233.993 286.464 233.76C286.864 233.52 287.308 233.4 287.794 233.4C288.154 233.4 288.508 233.48 288.854 233.64C289.208 233.793 289.488 234 289.694 234.26V231.6H290.844V239H289.694V238.17C289.508 238.437 289.248 238.657 288.914 238.83C288.588 239.003 288.211 239.09 287.784 239.09C287.304 239.09 286.864 238.97 286.464 238.73C286.071 238.483 285.758 238.143 285.524 237.71C285.298 237.27 285.184 236.773 285.184 236.22ZM289.694 236.24C289.694 235.86 289.614 235.53 289.454 235.25C289.301 234.97 289.098 234.757 288.844 234.61C288.591 234.463 288.318 234.39 288.024 234.39C287.731 234.39 287.458 234.463 287.204 234.61C286.951 234.75 286.744 234.96 286.584 235.24C286.431 235.513 286.354 235.84 286.354 236.22C286.354 236.6 286.431 236.933 286.584 237.22C286.744 237.507 286.951 237.727 287.204 237.88C287.464 238.027 287.738 238.1 288.024 238.1C288.318 238.1 288.591 238.027 288.844 237.88C289.098 237.733 289.301 237.52 289.454 237.24C289.614 236.953 289.694 236.62 289.694 236.24Z" fill="white"/>
<path d="M423.597 169L421.677 165.664H420.633V169H419.265V160.66H422.145C422.785 160.66 423.325 160.772 423.765 160.996C424.213 161.22 424.545 161.52 424.761 161.896C424.985 162.272 425.097 162.692 425.097 163.156C425.097 163.7 424.937 164.196 424.617 164.644C424.305 165.084 423.821 165.384 423.165 165.544L425.229 169H423.597ZM420.633 164.572H422.145C422.657 164.572 423.041 164.444 423.297 164.188C423.561 163.932 423.693 163.588 423.693 163.156C423.693 162.724 423.565 162.388 423.309 162.148C423.053 161.9 422.665 161.776 422.145 161.776H420.633V164.572ZM432.907 165.532C432.907 165.78 432.891 166.004 432.859 166.204H427.807C427.847 166.732 428.043 167.156 428.395 167.476C428.747 167.796 429.179 167.956 429.691 167.956C430.427 167.956 430.947 167.648 431.251 167.032H432.727C432.527 167.64 432.163 168.14 431.635 168.532C431.115 168.916 430.467 169.108 429.691 169.108C429.059 169.108 428.491 168.968 427.987 168.688C427.491 168.4 427.099 168 426.811 167.488C426.531 166.968 426.391 166.368 426.391 165.688C426.391 165.008 426.527 164.412 426.799 163.9C427.079 163.38 427.467 162.98 427.963 162.7C428.467 162.42 429.043 162.28 429.691 162.28C430.315 162.28 430.871 162.416 431.359 162.688C431.847 162.96 432.227 163.344 432.499 163.84C432.771 164.328 432.907 164.892 432.907 165.532ZM431.479 165.1C431.471 164.596 431.291 164.192 430.939 163.888C430.587 163.584 430.151 163.432 429.631 163.432C429.159 163.432 428.755 163.584 428.419 163.888C428.083 164.184 427.883 164.588 427.819 165.1H431.479ZM436.654 169.108C436.134 169.108 435.666 169.016 435.25 168.832C434.842 168.64 434.518 168.384 434.278 168.064C434.038 167.736 433.91 167.372 433.894 166.972H435.31C435.334 167.252 435.466 167.488 435.706 167.68C435.954 167.864 436.262 167.956 436.63 167.956C437.014 167.956 437.31 167.884 437.518 167.74C437.734 167.588 437.842 167.396 437.842 167.164C437.842 166.916 437.722 166.732 437.482 166.612C437.25 166.492 436.878 166.36 436.366 166.216C435.87 166.08 435.466 165.948 435.154 165.82C434.842 165.692 434.57 165.496 434.338 165.232C434.114 164.968 434.002 164.62 434.002 164.188C434.002 163.836 434.106 163.516 434.314 163.228C434.522 162.932 434.818 162.7 435.202 162.532C435.594 162.364 436.042 162.28 436.546 162.28C437.298 162.28 437.902 162.472 438.358 162.856C438.822 163.232 439.07 163.748 439.102 164.404H437.734C437.71 164.108 437.59 163.872 437.374 163.696C437.158 163.52 436.866 163.432 436.498 163.432C436.138 163.432 435.862 163.5 435.67 163.636C435.478 163.772 435.382 163.952 435.382 164.176C435.382 164.352 435.446 164.5 435.574 164.62C435.702 164.74 435.858 164.836 436.042 164.908C436.226 164.972 436.498 165.056 436.858 165.16C437.338 165.288 437.73 165.42 438.034 165.556C438.346 165.684 438.614 165.876 438.838 166.132C439.062 166.388 439.178 166.728 439.186 167.152C439.186 167.528 439.082 167.864 438.874 168.16C438.666 168.456 438.37 168.688 437.986 168.856C437.61 169.024 437.166 169.108 436.654 169.108ZM446.724 165.532C446.724 165.78 446.708 166.004 446.676 166.204H441.624C441.664 166.732 441.86 167.156 442.212 167.476C442.564 167.796 442.996 167.956 443.508 167.956C444.244 167.956 444.764 167.648 445.068 167.032H446.544C446.344 167.64 445.98 168.14 445.452 168.532C444.932 168.916 444.284 169.108 443.508 169.108C442.876 169.108 442.308 168.968 441.804 168.688C441.308 168.4 440.916 168 440.628 167.488C440.348 166.968 440.208 166.368 440.208 165.688C440.208 165.008 440.344 164.412 440.616 163.9C440.896 163.38 441.284 162.98 441.78 162.7C442.284 162.42 442.86 162.28 443.508 162.28C444.132 162.28 444.688 162.416 445.176 162.688C445.664 162.96 446.044 163.344 446.316 163.84C446.588 164.328 446.724 164.892 446.724 165.532ZM445.296 165.1C445.288 164.596 445.108 164.192 444.756 163.888C444.404 163.584 443.968 163.432 443.448 163.432C442.976 163.432 442.572 163.584 442.236 163.888C441.9 164.184 441.7 164.588 441.636 165.1H445.296ZM449.666 163.504V167.164C449.666 167.412 449.722 167.592 449.834 167.704C449.954 167.808 450.154 167.86 450.434 167.86H451.274V169H450.194C449.578 169 449.106 168.856 448.778 168.568C448.45 168.28 448.286 167.812 448.286 167.164V163.504H447.506V162.388H448.286V160.744H449.666V162.388H451.274V163.504H449.666Z" fill="white"/>
<path d="M356.539 230.66L353.779 235.976V239H352.411V235.976L349.639 230.66H351.163L353.095 234.752L355.027 230.66H356.539ZM363.685 235.532C363.685 235.78 363.669 236.004 363.637 236.204H358.585C358.625 236.732 358.821 237.156 359.173 237.476C359.525 237.796 359.957 237.956 360.469 237.956C361.205 237.956 361.725 237.648 362.029 237.032H363.505C363.305 237.64 362.941 238.14 362.413 238.532C361.893 238.916 361.245 239.108 360.469 239.108C359.837 239.108 359.269 238.968 358.765 238.688C358.269 238.4 357.877 238 357.589 237.488C357.309 236.968 357.169 236.368 357.169 235.688C357.169 235.008 357.305 234.412 357.577 233.9C357.857 233.38 358.245 232.98 358.741 232.7C359.245 232.42 359.821 232.28 360.469 232.28C361.093 232.28 361.649 232.416 362.137 232.688C362.625 232.96 363.005 233.344 363.277 233.84C363.549 234.328 363.685 234.892 363.685 235.532ZM362.257 235.1C362.249 234.596 362.069 234.192 361.717 233.888C361.365 233.584 360.929 233.432 360.409 233.432C359.937 233.432 359.533 233.584 359.197 233.888C358.861 234.184 358.661 234.588 358.597 235.1H362.257ZM367.431 239.108C366.911 239.108 366.443 239.016 366.027 238.832C365.619 238.64 365.295 238.384 365.055 238.064C364.815 237.736 364.687 237.372 364.671 236.972H366.087C366.111 237.252 366.243 237.488 366.483 237.68C366.731 237.864 367.039 237.956 367.407 237.956C367.791 237.956 368.087 237.884 368.295 237.74C368.511 237.588 368.619 237.396 368.619 237.164C368.619 236.916 368.499 236.732 368.259 236.612C368.027 236.492 367.655 236.36 367.143 236.216C366.647 236.08 366.243 235.948 365.931 235.82C365.619 235.692 365.347 235.496 365.115 235.232C364.891 234.968 364.779 234.62 364.779 234.188C364.779 233.836 364.883 233.516 365.091 233.228C365.299 232.932 365.595 232.7 365.979 232.532C366.371 232.364 366.819 232.28 367.323 232.28C368.075 232.28 368.679 232.472 369.135 232.856C369.599 233.232 369.847 233.748 369.879 234.404H368.511C368.487 234.108 368.367 233.872 368.151 233.696C367.935 233.52 367.643 233.432 367.275 233.432C366.915 233.432 366.639 233.5 366.447 233.636C366.255 233.772 366.159 233.952 366.159 234.176C366.159 234.352 366.223 234.5 366.351 234.62C366.479 234.74 366.635 234.836 366.819 234.908C367.003 234.972 367.275 235.056 367.635 235.16C368.115 235.288 368.507 235.42 368.811 235.556C369.123 235.684 369.391 235.876 369.615 236.132C369.839 236.388 369.955 236.728 369.963 237.152C369.963 237.528 369.859 237.864 369.651 238.16C369.443 238.456 369.147 238.688 368.763 238.856C368.387 239.024 367.943 239.108 367.431 239.108Z" fill="white"/>
<path d="M429.602 239H428.234L424.118 232.772V239H422.75V230.648H424.118L428.234 236.864V230.648H429.602V239ZM434.266 239.108C433.642 239.108 433.078 238.968 432.574 238.688C432.07 238.4 431.674 238 431.386 237.488C431.098 236.968 430.954 236.368 430.954 235.688C430.954 235.016 431.102 234.42 431.398 233.9C431.694 233.38 432.098 232.98 432.61 232.7C433.122 232.42 433.694 232.28 434.326 232.28C434.958 232.28 435.53 232.42 436.042 232.7C436.554 232.98 436.958 233.38 437.254 233.9C437.55 234.42 437.698 235.016 437.698 235.688C437.698 236.36 437.546 236.956 437.242 237.476C436.938 237.996 436.522 238.4 435.994 238.688C435.474 238.968 434.898 239.108 434.266 239.108ZM434.266 237.92C434.618 237.92 434.946 237.836 435.25 237.668C435.562 237.5 435.814 237.248 436.006 236.912C436.198 236.576 436.294 236.168 436.294 235.688C436.294 235.208 436.202 234.804 436.018 234.476C435.834 234.14 435.59 233.888 435.286 233.72C434.982 233.552 434.654 233.468 434.302 233.468C433.95 233.468 433.622 233.552 433.318 233.72C433.022 233.888 432.786 234.14 432.61 234.476C432.434 234.804 432.346 235.208 432.346 235.688C432.346 236.4 432.526 236.952 432.886 237.344C433.254 237.728 433.714 237.92 434.266 237.92Z" fill="white"/>
<path d="M170.444 274.812C170.444 273.996 170.632 273.264 171.008 272.616C171.392 271.968 171.908 271.464 172.556 271.104C173.212 270.736 173.928 270.552 174.704 270.552C175.592 270.552 176.38 270.772 177.068 271.212C177.764 271.644 178.268 272.26 178.58 273.06H176.936C176.72 272.62 176.42 272.292 176.036 272.076C175.652 271.86 175.208 271.752 174.704 271.752C174.152 271.752 173.66 271.876 173.228 272.124C172.796 272.372 172.456 272.728 172.208 273.192C171.968 273.656 171.848 274.196 171.848 274.812C171.848 275.428 171.968 275.968 172.208 276.432C172.456 276.896 172.796 277.256 173.228 277.512C173.66 277.76 174.152 277.884 174.704 277.884C175.208 277.884 175.652 277.776 176.036 277.56C176.42 277.344 176.72 277.016 176.936 276.576H178.58C178.268 277.376 177.764 277.992 177.068 278.424C176.38 278.856 175.592 279.072 174.704 279.072C173.92 279.072 173.204 278.892 172.556 278.532C171.908 278.164 171.392 277.656 171.008 277.008C170.632 276.36 170.444 275.628 170.444 274.812ZM181.549 270.12V279H180.181V270.12H181.549ZM186.213 279.108C185.589 279.108 185.025 278.968 184.521 278.688C184.017 278.4 183.621 278 183.333 277.488C183.045 276.968 182.901 276.368 182.901 275.688C182.901 275.016 183.049 274.42 183.345 273.9C183.641 273.38 184.045 272.98 184.557 272.7C185.069 272.42 185.641 272.28 186.273 272.28C186.905 272.28 187.477 272.42 187.989 272.7C188.501 272.98 188.905 273.38 189.201 273.9C189.497 274.42 189.645 275.016 189.645 275.688C189.645 276.36 189.493 276.956 189.189 277.476C188.885 277.996 188.469 278.4 187.941 278.688C187.421 278.968 186.845 279.108 186.213 279.108ZM186.213 277.92C186.565 277.92 186.893 277.836 187.197 277.668C187.509 277.5 187.761 277.248 187.953 276.912C188.145 276.576 188.241 276.168 188.241 275.688C188.241 275.208 188.149 274.804 187.965 274.476C187.781 274.14 187.537 273.888 187.233 273.72C186.929 273.552 186.601 273.468 186.249 273.468C185.897 273.468 185.569 273.552 185.265 273.72C184.969 273.888 184.733 274.14 184.557 274.476C184.381 274.804 184.293 275.208 184.293 275.688C184.293 276.4 184.473 276.952 184.833 277.344C185.201 277.728 185.661 277.92 186.213 277.92ZM190.542 275.688C190.542 275.008 190.678 274.412 190.95 273.9C191.23 273.38 191.614 272.98 192.102 272.7C192.59 272.42 193.15 272.28 193.782 272.28C194.582 272.28 195.242 272.472 195.762 272.856C196.29 273.232 196.646 273.772 196.83 274.476H195.354C195.234 274.148 195.042 273.892 194.778 273.708C194.514 273.524 194.182 273.432 193.782 273.432C193.222 273.432 192.774 273.632 192.438 274.032C192.11 274.424 191.946 274.976 191.946 275.688C191.946 276.4 192.11 276.956 192.438 277.356C192.774 277.756 193.222 277.956 193.782 277.956C194.574 277.956 195.098 277.608 195.354 276.912H196.83C196.638 277.584 196.278 278.12 195.75 278.52C195.222 278.912 194.566 279.108 193.782 279.108C193.15 279.108 192.59 278.968 192.102 278.688C191.614 278.4 191.23 278 190.95 277.488C190.678 276.968 190.542 276.368 190.542 275.688ZM200.809 275.7L203.857 279H202.009L199.561 276.156V279H198.193V270.12H199.561V275.28L201.961 272.388H203.857L200.809 275.7ZM215.959 272.28C216.479 272.28 216.943 272.388 217.351 272.604C217.767 272.82 218.091 273.14 218.323 273.564C218.563 273.988 218.683 274.5 218.683 275.1V279H217.327V275.304C217.327 274.712 217.179 274.26 216.883 273.948C216.587 273.628 216.183 273.468 215.671 273.468C215.159 273.468 214.751 273.628 214.447 273.948C214.151 274.26 214.003 274.712 214.003 275.304V279H212.647V275.304C212.647 274.712 212.499 274.26 212.203 273.948C211.907 273.628 211.503 273.468 210.991 273.468C210.479 273.468 210.071 273.628 209.767 273.948C209.471 274.26 209.323 274.712 209.323 275.304V279H207.955V272.388H209.323V273.144C209.547 272.872 209.831 272.66 210.175 272.508C210.519 272.356 210.887 272.28 211.279 272.28C211.807 272.28 212.279 272.392 212.695 272.616C213.111 272.84 213.431 273.164 213.655 273.588C213.855 273.188 214.167 272.872 214.591 272.64C215.015 272.4 215.471 272.28 215.959 272.28ZM223.291 279.108C222.667 279.108 222.103 278.968 221.599 278.688C221.095 278.4 220.699 278 220.411 277.488C220.123 276.968 219.979 276.368 219.979 275.688C219.979 275.016 220.127 274.42 220.423 273.9C220.719 273.38 221.123 272.98 221.635 272.7C222.147 272.42 222.719 272.28 223.351 272.28C223.983 272.28 224.555 272.42 225.067 272.7C225.579 272.98 225.983 273.38 226.279 273.9C226.575 274.42 226.723 275.016 226.723 275.688C226.723 276.36 226.571 276.956 226.267 277.476C225.963 277.996 225.547 278.4 225.019 278.688C224.499 278.968 223.923 279.108 223.291 279.108ZM223.291 277.92C223.643 277.92 223.971 277.836 224.275 277.668C224.587 277.5 224.839 277.248 225.031 276.912C225.223 276.576 225.319 276.168 225.319 275.688C225.319 275.208 225.227 274.804 225.043 274.476C224.859 274.14 224.615 273.888 224.311 273.72C224.007 273.552 223.679 273.468 223.327 273.468C222.975 273.468 222.647 273.552 222.343 273.72C222.047 273.888 221.811 274.14 221.635 274.476C221.459 274.804 221.371 275.208 221.371 275.688C221.371 276.4 221.551 276.952 221.911 277.344C222.279 277.728 222.739 277.92 223.291 277.92ZM227.62 275.664C227.62 275 227.756 274.412 228.028 273.9C228.308 273.388 228.684 272.992 229.156 272.712C229.636 272.424 230.168 272.28 230.752 272.28C231.184 272.28 231.608 272.376 232.024 272.568C232.448 272.752 232.784 273 233.032 273.312V270.12H234.412V279H233.032V278.004C232.808 278.324 232.496 278.588 232.096 278.796C231.704 279.004 231.252 279.108 230.74 279.108C230.164 279.108 229.636 278.964 229.156 278.676C228.684 278.38 228.308 277.972 228.028 277.452C227.756 276.924 227.62 276.328 227.62 275.664ZM233.032 275.688C233.032 275.232 232.936 274.836 232.744 274.5C232.56 274.164 232.316 273.908 232.012 273.732C231.708 273.556 231.38 273.468 231.028 273.468C230.676 273.468 230.348 273.556 230.044 273.732C229.74 273.9 229.492 274.152 229.3 274.488C229.116 274.816 229.024 275.208 229.024 275.664C229.024 276.12 229.116 276.52 229.3 276.864C229.492 277.208 229.74 277.472 230.044 277.656C230.356 277.832 230.684 277.92 231.028 277.92C231.38 277.92 231.708 277.832 232.012 277.656C232.316 277.48 232.56 277.224 232.744 276.888C232.936 276.544 233.032 276.144 233.032 275.688ZM242.269 275.532C242.269 275.78 242.253 276.004 242.221 276.204H237.169C237.209 276.732 237.405 277.156 237.757 277.476C238.109 277.796 238.541 277.956 239.053 277.956C239.789 277.956 240.309 277.648 240.613 277.032H242.089C241.889 277.64 241.525 278.14 240.997 278.532C240.477 278.916 239.829 279.108 239.053 279.108C238.421 279.108 237.853 278.968 237.349 278.688C236.853 278.4 236.461 278 236.173 277.488C235.893 276.968 235.753 276.368 235.753 275.688C235.753 275.008 235.889 274.412 236.161 273.9C236.441 273.38 236.829 272.98 237.325 272.7C237.829 272.42 238.405 272.28 239.053 272.28C239.677 272.28 240.233 272.416 240.721 272.688C241.209 272.96 241.589 273.344 241.861 273.84C242.133 274.328 242.269 274.892 242.269 275.532ZM240.841 275.1C240.833 274.596 240.653 274.192 240.301 273.888C239.949 273.584 239.513 273.432 238.993 273.432C238.521 273.432 238.117 273.584 237.781 273.888C237.445 274.184 237.245 274.588 237.181 275.1H240.841Z" fill="white"/>
<path d="M160.45 302.75V301.71H162.53V309H161.38V302.75H160.45ZM164.726 307.45C165.366 306.897 165.869 306.443 166.236 306.09C166.609 305.73 166.919 305.357 167.166 304.97C167.413 304.583 167.536 304.197 167.536 303.81C167.536 303.41 167.439 303.097 167.246 302.87C167.059 302.643 166.763 302.53 166.356 302.53C165.963 302.53 165.656 302.657 165.436 302.91C165.223 303.157 165.109 303.49 165.096 303.91H163.996C164.016 303.15 164.243 302.57 164.676 302.17C165.116 301.763 165.673 301.56 166.346 301.56C167.073 301.56 167.639 301.76 168.046 302.16C168.459 302.56 168.666 303.093 168.666 303.76C168.666 304.24 168.543 304.703 168.296 305.15C168.056 305.59 167.766 305.987 167.426 306.34C167.093 306.687 166.666 307.09 166.146 307.55L165.696 307.95H168.866V308.9H164.006V308.07L164.726 307.45ZM175.005 309.09C174.485 309.09 174.015 308.973 173.595 308.74C173.175 308.5 172.845 308.167 172.605 307.74C172.365 307.307 172.245 306.807 172.245 306.24C172.245 305.68 172.369 305.183 172.615 304.75C172.862 304.317 173.199 303.983 173.625 303.75C174.052 303.517 174.529 303.4 175.055 303.4C175.582 303.4 176.059 303.517 176.485 303.75C176.912 303.983 177.249 304.317 177.495 304.75C177.742 305.183 177.865 305.68 177.865 306.24C177.865 306.8 177.739 307.297 177.485 307.73C177.232 308.163 176.885 308.5 176.445 308.74C176.012 308.973 175.532 309.09 175.005 309.09ZM175.005 308.1C175.299 308.1 175.572 308.03 175.825 307.89C176.085 307.75 176.295 307.54 176.455 307.26C176.615 306.98 176.695 306.64 176.695 306.24C176.695 305.84 176.619 305.503 176.465 305.23C176.312 304.95 176.109 304.74 175.855 304.6C175.602 304.46 175.329 304.39 175.035 304.39C174.742 304.39 174.469 304.46 174.215 304.6C173.969 304.74 173.772 304.95 173.625 305.23C173.479 305.503 173.405 305.84 173.405 306.24C173.405 306.833 173.555 307.293 173.855 307.62C174.162 307.94 174.545 308.1 175.005 308.1ZM180.132 304.29C180.299 304.01 180.519 303.793 180.792 303.64C181.072 303.48 181.402 303.4 181.782 303.4V304.58H181.492C181.046 304.58 180.706 304.693 180.472 304.92C180.246 305.147 180.132 305.54 180.132 306.1V309H178.992V303.49H180.132V304.29ZM185.908 307.45C186.548 306.897 187.051 306.443 187.418 306.09C187.791 305.73 188.101 305.357 188.348 304.97C188.594 304.583 188.718 304.197 188.718 303.81C188.718 303.41 188.621 303.097 188.428 302.87C188.241 302.643 187.944 302.53 187.538 302.53C187.144 302.53 186.838 302.657 186.618 302.91C186.404 303.157 186.291 303.49 186.278 303.91H185.178C185.198 303.15 185.424 302.57 185.858 302.17C186.298 301.763 186.854 301.56 187.528 301.56C188.254 301.56 188.821 301.76 189.228 302.16C189.641 302.56 189.848 303.093 189.848 303.76C189.848 304.24 189.724 304.703 189.478 305.15C189.238 305.59 188.948 305.987 188.608 306.34C188.274 306.687 187.848 307.09 187.328 307.55L186.878 307.95H190.048V308.9H185.188V308.07L185.908 307.45ZM190.909 307.48V306.62L194.269 301.8H195.649V306.49H196.579V307.48H195.649V309H194.529V307.48H190.909ZM194.579 302.96L192.219 306.49H194.579V302.96ZM203.121 303.4C203.541 303.4 203.915 303.49 204.241 303.67C204.575 303.85 204.835 304.117 205.021 304.47C205.215 304.823 205.311 305.25 205.311 305.75V309H204.181V305.92C204.181 305.427 204.058 305.05 203.811 304.79C203.565 304.523 203.228 304.39 202.801 304.39C202.375 304.39 202.035 304.523 201.781 304.79C201.535 305.05 201.411 305.427 201.411 305.92V309H200.271V301.6H201.411V304.13C201.605 303.897 201.848 303.717 202.141 303.59C202.441 303.463 202.768 303.4 203.121 303.4ZM209.156 309.09C208.636 309.09 208.166 308.973 207.746 308.74C207.326 308.5 206.996 308.167 206.756 307.74C206.516 307.307 206.396 306.807 206.396 306.24C206.396 305.68 206.519 305.183 206.766 304.75C207.012 304.317 207.349 303.983 207.776 303.75C208.202 303.517 208.679 303.4 209.206 303.4C209.732 303.4 210.209 303.517 210.636 303.75C211.062 303.983 211.399 304.317 211.646 304.75C211.892 305.183 212.016 305.68 212.016 306.24C212.016 306.8 211.889 307.297 211.636 307.73C211.382 308.163 211.036 308.5 210.596 308.74C210.162 308.973 209.682 309.09 209.156 309.09ZM209.156 308.1C209.449 308.1 209.722 308.03 209.976 307.89C210.236 307.75 210.446 307.54 210.606 307.26C210.766 306.98 210.846 306.64 210.846 306.24C210.846 305.84 210.769 305.503 210.616 305.23C210.462 304.95 210.259 304.74 210.006 304.6C209.752 304.46 209.479 304.39 209.186 304.39C208.892 304.39 208.619 304.46 208.366 304.6C208.119 304.74 207.922 304.95 207.776 305.23C207.629 305.503 207.556 305.84 207.556 306.24C207.556 306.833 207.706 307.293 208.006 307.62C208.312 307.94 208.696 308.1 209.156 308.1ZM218.133 303.49V309H216.993V308.35C216.813 308.577 216.576 308.757 216.283 308.89C215.996 309.017 215.689 309.08 215.363 309.08C214.929 309.08 214.539 308.99 214.193 308.81C213.853 308.63 213.583 308.363 213.383 308.01C213.189 307.657 213.093 307.23 213.093 306.73V303.49H214.223V306.56C214.223 307.053 214.346 307.433 214.593 307.7C214.839 307.96 215.176 308.09 215.603 308.09C216.029 308.09 216.366 307.96 216.613 307.7C216.866 307.433 216.993 307.053 216.993 306.56V303.49H218.133ZM220.777 304.29C220.943 304.01 221.163 303.793 221.437 303.64C221.717 303.48 222.047 303.4 222.427 303.4V304.58H222.137C221.69 304.58 221.35 304.693 221.117 304.92C220.89 305.147 220.777 305.54 220.777 306.1V309H219.637V303.49H220.777V304.29ZM225.692 306.24C225.692 305.673 225.806 305.177 226.032 304.75C226.266 304.317 226.586 303.983 226.992 303.75C227.399 303.517 227.866 303.4 228.392 303.4C229.059 303.4 229.609 303.56 230.042 303.88C230.482 304.193 230.779 304.643 230.932 305.23H229.702C229.602 304.957 229.442 304.743 229.222 304.59C229.002 304.437 228.726 304.36 228.392 304.36C227.926 304.36 227.552 304.527 227.272 304.86C226.999 305.187 226.862 305.647 226.862 306.24C226.862 306.833 226.999 307.297 227.272 307.63C227.552 307.963 227.926 308.13 228.392 308.13C229.052 308.13 229.489 307.84 229.702 307.26H230.932C230.772 307.82 230.472 308.267 230.032 308.6C229.592 308.927 229.046 309.09 228.392 309.09C227.866 309.09 227.399 308.973 226.992 308.74C226.586 308.5 226.266 308.167 226.032 307.74C225.806 307.307 225.692 306.807 225.692 306.24ZM233.208 301.6V309H232.068V301.6H233.208ZM237.095 309.09C236.575 309.09 236.105 308.973 235.685 308.74C235.265 308.5 234.935 308.167 234.695 307.74C234.455 307.307 234.335 306.807 234.335 306.24C234.335 305.68 234.458 305.183 234.705 304.75C234.952 304.317 235.288 303.983 235.715 303.75C236.142 303.517 236.618 303.4 237.145 303.4C237.672 303.4 238.148 303.517 238.575 303.75C239.002 303.983 239.338 304.317 239.585 304.75C239.832 305.183 239.955 305.68 239.955 306.24C239.955 306.8 239.828 307.297 239.575 307.73C239.322 308.163 238.975 308.5 238.535 308.74C238.102 308.973 237.622 309.09 237.095 309.09ZM237.095 308.1C237.388 308.1 237.662 308.03 237.915 307.89C238.175 307.75 238.385 307.54 238.545 307.26C238.705 306.98 238.785 306.64 238.785 306.24C238.785 305.84 238.708 305.503 238.555 305.23C238.402 304.95 238.198 304.74 237.945 304.6C237.692 304.46 237.418 304.39 237.125 304.39C236.832 304.39 236.558 304.46 236.305 304.6C236.058 304.74 235.862 304.95 235.715 305.23C235.568 305.503 235.495 305.84 235.495 306.24C235.495 306.833 235.645 307.293 235.945 307.62C236.252 307.94 236.635 308.1 237.095 308.1ZM240.702 306.24C240.702 305.673 240.815 305.177 241.042 304.75C241.275 304.317 241.595 303.983 242.002 303.75C242.409 303.517 242.875 303.4 243.402 303.4C244.069 303.4 244.619 303.56 245.052 303.88C245.492 304.193 245.789 304.643 245.942 305.23H244.712C244.612 304.957 244.452 304.743 244.232 304.59C244.012 304.437 243.735 304.36 243.402 304.36C242.935 304.36 242.562 304.527 242.282 304.86C242.009 305.187 241.872 305.647 241.872 306.24C241.872 306.833 242.009 307.297 242.282 307.63C242.562 307.963 242.935 308.13 243.402 308.13C244.062 308.13 244.499 307.84 244.712 307.26H245.942C245.782 307.82 245.482 308.267 245.042 308.6C244.602 308.927 244.055 309.09 243.402 309.09C242.875 309.09 242.409 308.973 242.002 308.74C241.595 308.5 241.275 308.167 241.042 307.74C240.815 307.307 240.702 306.807 240.702 306.24ZM249.258 306.25L251.798 309H250.258L248.218 306.63V309H247.078V301.6H248.218V305.9L250.218 303.49H251.798L249.258 306.25Z" fill="white"/>
<path d="M339.499 301.5V300.252H341.995V309H340.615V301.5H339.499ZM344.63 307.14C345.398 306.476 346.002 305.932 346.442 305.508C346.89 305.076 347.262 304.628 347.558 304.164C347.854 303.7 348.002 303.236 348.002 302.772C348.002 302.292 347.886 301.916 347.654 301.644C347.43 301.372 347.074 301.236 346.586 301.236C346.114 301.236 345.746 301.388 345.482 301.692C345.226 301.988 345.09 302.388 345.074 302.892H343.754C343.778 301.98 344.05 301.284 344.57 300.804C345.098 300.316 345.766 300.072 346.574 300.072C347.446 300.072 348.126 300.312 348.614 300.792C349.11 301.272 349.358 301.912 349.358 302.712C349.358 303.288 349.21 303.844 348.914 304.38C348.626 304.908 348.278 305.384 347.87 305.808C347.47 306.224 346.958 306.708 346.334 307.26L345.794 307.74H349.598V308.88H343.766V307.884L344.63 307.14ZM357.517 302.28C358.021 302.28 358.469 302.388 358.861 302.604C359.261 302.82 359.573 303.14 359.797 303.564C360.029 303.988 360.145 304.5 360.145 305.1V309H358.789V305.304C358.789 304.712 358.641 304.26 358.345 303.948C358.049 303.628 357.645 303.468 357.133 303.468C356.621 303.468 356.213 303.628 355.909 303.948C355.613 304.26 355.465 304.712 355.465 305.304V309H354.097V300.12H355.465V303.156C355.697 302.876 355.989 302.66 356.341 302.508C356.701 302.356 357.093 302.28 357.517 302.28ZM364.758 309.108C364.134 309.108 363.57 308.968 363.066 308.688C362.562 308.4 362.166 308 361.878 307.488C361.59 306.968 361.446 306.368 361.446 305.688C361.446 305.016 361.594 304.42 361.89 303.9C362.186 303.38 362.59 302.98 363.102 302.7C363.614 302.42 364.186 302.28 364.818 302.28C365.45 302.28 366.022 302.42 366.534 302.7C367.046 302.98 367.45 303.38 367.746 303.9C368.042 304.42 368.19 305.016 368.19 305.688C368.19 306.36 368.038 306.956 367.734 307.476C367.43 307.996 367.014 308.4 366.486 308.688C365.966 308.968 365.39 309.108 364.758 309.108ZM364.758 307.92C365.11 307.92 365.438 307.836 365.742 307.668C366.054 307.5 366.306 307.248 366.498 306.912C366.69 306.576 366.786 306.168 366.786 305.688C366.786 305.208 366.694 304.804 366.51 304.476C366.326 304.14 366.082 303.888 365.778 303.72C365.474 303.552 365.146 303.468 364.794 303.468C364.442 303.468 364.114 303.552 363.81 303.72C363.514 303.888 363.278 304.14 363.102 304.476C362.926 304.804 362.838 305.208 362.838 305.688C362.838 306.4 363.018 306.952 363.378 307.344C363.746 307.728 364.206 307.92 364.758 307.92ZM375.531 302.388V309H374.163V308.22C373.947 308.492 373.663 308.708 373.311 308.868C372.967 309.02 372.599 309.096 372.207 309.096C371.687 309.096 371.219 308.988 370.803 308.772C370.395 308.556 370.071 308.236 369.831 307.812C369.599 307.388 369.483 306.876 369.483 306.276V302.388H370.839V306.072C370.839 306.664 370.987 307.12 371.283 307.44C371.579 307.752 371.983 307.908 372.495 307.908C373.007 307.908 373.411 307.752 373.707 307.44C374.011 307.12 374.163 306.664 374.163 306.072V302.388H375.531ZM378.704 303.348C378.904 303.012 379.168 302.752 379.496 302.568C379.832 302.376 380.228 302.28 380.684 302.28V303.696H380.336C379.8 303.696 379.392 303.832 379.112 304.104C378.84 304.376 378.704 304.848 378.704 305.52V309H377.336V302.388H378.704V303.348Z" fill="white"/>
<path d="M408.648 307.14C409.416 306.476 410.02 305.932 410.46 305.508C410.908 305.076 411.28 304.628 411.576 304.164C411.872 303.7 412.02 303.236 412.02 302.772C412.02 302.292 411.904 301.916 411.672 301.644C411.448 301.372 411.092 301.236 410.604 301.236C410.132 301.236 409.764 301.388 409.5 301.692C409.244 301.988 409.108 302.388 409.092 302.892H407.772C407.796 301.98 408.068 301.284 408.588 300.804C409.116 300.316 409.784 300.072 410.592 300.072C411.464 300.072 412.144 300.312 412.632 300.792C413.128 301.272 413.376 301.912 413.376 302.712C413.376 303.288 413.228 303.844 412.932 304.38C412.644 304.908 412.296 305.384 411.888 305.808C411.488 306.224 410.976 306.708 410.352 307.26L409.812 307.74H413.616V308.88H407.784V307.884L408.648 307.14ZM414.65 307.176V306.144L418.682 300.36H420.338V305.988H421.454V307.176H420.338V309H418.994V307.176H414.65ZM419.054 301.752L416.222 305.988H419.054V301.752ZM429.304 302.28C429.808 302.28 430.256 302.388 430.648 302.604C431.048 302.82 431.36 303.14 431.584 303.564C431.816 303.988 431.932 304.5 431.932 305.1V309H430.576V305.304C430.576 304.712 430.428 304.26 430.132 303.948C429.836 303.628 429.432 303.468 428.92 303.468C428.408 303.468 428 303.628 427.696 303.948C427.4 304.26 427.252 304.712 427.252 305.304V309H425.884V300.12H427.252V303.156C427.484 302.876 427.776 302.66 428.128 302.508C428.488 302.356 428.88 302.28 429.304 302.28ZM436.545 309.108C435.921 309.108 435.357 308.968 434.853 308.688C434.349 308.4 433.953 308 433.665 307.488C433.377 306.968 433.233 306.368 433.233 305.688C433.233 305.016 433.381 304.42 433.677 303.9C433.973 303.38 434.377 302.98 434.889 302.7C435.401 302.42 435.973 302.28 436.605 302.28C437.237 302.28 437.809 302.42 438.321 302.7C438.833 302.98 439.237 303.38 439.533 303.9C439.829 304.42 439.977 305.016 439.977 305.688C439.977 306.36 439.825 306.956 439.521 307.476C439.217 307.996 438.801 308.4 438.273 308.688C437.753 308.968 437.177 309.108 436.545 309.108ZM436.545 307.92C436.897 307.92 437.225 307.836 437.529 307.668C437.841 307.5 438.093 307.248 438.285 306.912C438.477 306.576 438.573 306.168 438.573 305.688C438.573 305.208 438.481 304.804 438.297 304.476C438.113 304.14 437.869 303.888 437.565 303.72C437.261 303.552 436.933 303.468 436.581 303.468C436.229 303.468 435.901 303.552 435.597 303.72C435.301 303.888 435.065 304.14 434.889 304.476C434.713 304.804 434.625 305.208 434.625 305.688C434.625 306.4 434.805 306.952 435.165 307.344C435.533 307.728 435.993 307.92 436.545 307.92ZM447.318 302.388V309H445.95V308.22C445.734 308.492 445.45 308.708 445.098 308.868C444.754 309.02 444.386 309.096 443.994 309.096C443.474 309.096 443.006 308.988 442.59 308.772C442.182 308.556 441.858 308.236 441.618 307.812C441.386 307.388 441.27 306.876 441.27 306.276V302.388H442.626V306.072C442.626 306.664 442.774 307.12 443.07 307.44C443.366 307.752 443.77 307.908 444.282 307.908C444.794 307.908 445.198 307.752 445.494 307.44C445.798 307.12 445.95 306.664 445.95 306.072V302.388H447.318ZM450.491 303.348C450.691 303.012 450.955 302.752 451.283 302.568C451.619 302.376 452.015 302.28 452.471 302.28V303.696H452.123C451.587 303.696 451.179 303.832 450.899 304.104C450.627 304.376 450.491 304.848 450.491 305.52V309H449.123V302.388H450.491V303.348Z" fill="white"/>
</svg>
