<svg width="300" height="40" viewBox="0 0 300 40" fill="none" xmlns="http://www.w3.org/2000/svg">
<rect width="300" height="40" rx="15" fill="white" fill-opacity="0.1"/>
<path d="M46.732 18.144C46.732 18.568 46.632 18.968 46.432 19.344C46.232 19.72 45.912 20.028 45.472 20.268C45.032 20.5 44.468 20.616 43.78 20.616H42.268V24H40.9V15.66H43.78C44.42 15.66 44.96 15.772 45.4 15.996C45.848 16.212 46.18 16.508 46.396 16.884C46.62 17.26 46.732 17.68 46.732 18.144ZM43.78 19.5C44.3 19.5 44.688 19.384 44.944 19.152C45.2 18.912 45.328 18.576 45.328 18.144C45.328 17.232 44.812 16.776 43.78 16.776H42.268V19.5H43.78ZM47.5807 20.664C47.5807 20 47.7167 19.412 47.9887 18.9C48.2687 18.388 48.6447 17.992 49.1167 17.712C49.5967 17.424 50.1247 17.28 50.7007 17.28C51.2207 17.28 51.6727 17.384 52.0567 17.592C52.4487 17.792 52.7607 18.044 52.9927 18.348V17.388H54.3727V24H52.9927V23.016C52.7607 23.328 52.4447 23.588 52.0447 23.796C51.6447 24.004 51.1887 24.108 50.6767 24.108C50.1087 24.108 49.5887 23.964 49.1167 23.676C48.6447 23.38 48.2687 22.972 47.9887 22.452C47.7167 21.924 47.5807 21.328 47.5807 20.664ZM52.9927 20.688C52.9927 20.232 52.8967 19.836 52.7047 19.5C52.5207 19.164 52.2767 18.908 51.9727 18.732C51.6687 18.556 51.3407 18.468 50.9887 18.468C50.6367 18.468 50.3087 18.556 50.0047 18.732C49.7007 18.9 49.4527 19.152 49.2607 19.488C49.0767 19.816 48.9847 20.208 48.9847 20.664C48.9847 21.12 49.0767 21.52 49.2607 21.864C49.4527 22.208 49.7007 22.472 50.0047 22.656C50.3167 22.832 50.6447 22.92 50.9887 22.92C51.3407 22.92 51.6687 22.832 51.9727 22.656C52.2767 22.48 52.5207 22.224 52.7047 21.888C52.8967 21.544 52.9927 21.144 52.9927 20.688ZM56.8655 16.512C56.6175 16.512 56.4095 16.428 56.2415 16.26C56.0735 16.092 55.9895 15.884 55.9895 15.636C55.9895 15.388 56.0735 15.18 56.2415 15.012C56.4095 14.844 56.6175 14.76 56.8655 14.76C57.1055 14.76 57.3095 14.844 57.4775 15.012C57.6455 15.18 57.7295 15.388 57.7295 15.636C57.7295 15.884 57.6455 16.092 57.4775 16.26C57.3095 16.428 57.1055 16.512 56.8655 16.512ZM57.5375 17.388V24H56.1695V17.388H57.5375ZM62.6696 17.28C63.1896 17.28 63.6536 17.388 64.0616 17.604C64.4776 17.82 64.8016 18.14 65.0336 18.564C65.2656 18.988 65.3816 19.5 65.3816 20.1V24H64.0256V20.304C64.0256 19.712 63.8776 19.26 63.5816 18.948C63.2856 18.628 62.8816 18.468 62.3696 18.468C61.8576 18.468 61.4496 18.628 61.1456 18.948C60.8496 19.26 60.7016 19.712 60.7016 20.304V24H59.3336V17.388H60.7016V18.144C60.9256 17.872 61.2096 17.66 61.5536 17.508C61.9056 17.356 62.2776 17.28 62.6696 17.28ZM68.7226 18.504V22.164C68.7226 22.412 68.7786 22.592 68.8906 22.704C69.0106 22.808 69.2106 22.86 69.4906 22.86H70.3306V24H69.2506C68.6346 24 68.1626 23.856 67.8346 23.568C67.5066 23.28 67.3426 22.812 67.3426 22.164V18.504H66.5626V17.388H67.3426V15.744H68.7226V17.388H70.3306V18.504H68.7226ZM76.5686 21.564C76.2806 21.564 76.0166 21.496 75.7766 21.36C75.5446 21.216 75.3566 21.028 75.2126 20.796C75.0766 20.556 75.0086 20.292 75.0086 20.004C75.0086 19.564 75.1606 19.192 75.4646 18.888C75.7686 18.584 76.1366 18.432 76.5686 18.432C77.0166 18.432 77.3926 18.584 77.6966 18.888C78.0006 19.192 78.1526 19.564 78.1526 20.004C78.1526 20.444 78.0006 20.816 77.6966 21.12C77.3926 21.416 77.0166 21.564 76.5686 21.564ZM88.3968 22.296H84.9048L84.3048 24H82.8768L85.8648 15.648H87.4488L90.4368 24H88.9968L88.3968 22.296ZM88.0128 21.18L86.6568 17.304L85.2888 21.18H88.0128ZM93.1039 18.36C93.3359 18.056 93.6519 17.8 94.0519 17.592C94.4519 17.384 94.9039 17.28 95.4079 17.28C95.9839 17.28 96.5079 17.424 96.9799 17.712C97.4599 17.992 97.8359 18.388 98.1079 18.9C98.3799 19.412 98.5159 20 98.5159 20.664C98.5159 21.328 98.3799 21.924 98.1079 22.452C97.8359 22.972 97.4599 23.38 96.9799 23.676C96.5079 23.964 95.9839 24.108 95.4079 24.108C94.9039 24.108 94.4559 24.008 94.0639 23.808C93.6719 23.6 93.3519 23.344 93.1039 23.04V27.144H91.7359V17.388H93.1039V18.36ZM97.1239 20.664C97.1239 20.208 97.0279 19.816 96.8359 19.488C96.6519 19.152 96.4039 18.9 96.0919 18.732C95.7879 18.556 95.4599 18.468 95.1079 18.468C94.7639 18.468 94.4359 18.556 94.1239 18.732C93.8199 18.908 93.5719 19.164 93.3799 19.5C93.1959 19.836 93.1039 20.232 93.1039 20.688C93.1039 21.144 93.1959 21.544 93.3799 21.888C93.5719 22.224 93.8199 22.48 94.1239 22.656C94.4359 22.832 94.7639 22.92 95.1079 22.92C95.4599 22.92 95.7879 22.832 96.0919 22.656C96.4039 22.472 96.6519 22.208 96.8359 21.864C97.0279 21.52 97.1239 21.12 97.1239 20.664ZM101.237 18.36C101.469 18.056 101.785 17.8 102.185 17.592C102.585 17.384 103.037 17.28 103.541 17.28C104.117 17.28 104.641 17.424 105.113 17.712C105.593 17.992 105.969 18.388 106.241 18.9C106.513 19.412 106.649 20 106.649 20.664C106.649 21.328 106.513 21.924 106.241 22.452C105.969 22.972 105.593 23.38 105.113 23.676C104.641 23.964 104.117 24.108 103.541 24.108C103.037 24.108 102.589 24.008 102.197 23.808C101.805 23.6 101.485 23.344 101.237 23.04V27.144H99.8688V17.388H101.237V18.36ZM105.257 20.664C105.257 20.208 105.161 19.816 104.969 19.488C104.785 19.152 104.537 18.9 104.225 18.732C103.921 18.556 103.593 18.468 103.241 18.468C102.897 18.468 102.569 18.556 102.257 18.732C101.953 18.908 101.705 19.164 101.513 19.5C101.329 19.836 101.237 20.232 101.237 20.688C101.237 21.144 101.329 21.544 101.513 21.888C101.705 22.224 101.953 22.48 102.257 22.656C102.569 22.832 102.897 22.92 103.241 22.92C103.593 22.92 103.921 22.832 104.225 22.656C104.537 22.472 104.785 22.208 104.969 21.864C105.161 21.52 105.257 21.12 105.257 20.664Z" fill="white"/>
<rect x="16.7681" y="14.6699" width="4" height="9" transform="rotate(30 16.7681 14.6699)" fill="white"/>
<path d="M15.2322 25.3301L11.7681 23.3301L11.9036 25.4313C11.9495 26.1434 12.7051 26.5796 13.3447 26.2633L15.2322 25.3301Z" fill="white"/>
<path d="M17.7681 12.9378C18.0442 12.4595 18.6558 12.2956 19.1341 12.5718L20.8661 13.5718C21.3444 13.8479 21.5083 14.4595 21.2322 14.9378L20.7322 15.8038L17.2681 13.8038L17.7681 12.9378Z" fill="white"/>
<path d="M16 26C16 25.4477 16.4477 25 17 25H24C24.5523 25 25 24.5523 25 24V24C25 23.4477 24.5523 23 24 23V23C22.3431 23 21 21.6569 21 20V20C21 18.3431 22.3431 17 24 17H27C27.5523 17 28 17.4477 28 18V18C28 18.5523 27.5523 19 27 19H24C23.4477 19 23 19.4477 23 20V20C23 20.5523 23.4477 21 24 21V21C25.6569 21 27 22.3431 27 24V24C27 25.6569 25.6569 27 24 27H17C16.4477 27 16 26.5523 16 26V26Z" fill="white"/>
</svg>
