<svg width="480" height="360" viewBox="0 0 480 360" fill="none" xmlns="http://www.w3.org/2000/svg">
<path d="M0 0H480V80C480 91.0457 471.046 100 460 100H20C8.95432 100 0 91.0457 0 80V0Z" fill="#191919" fill-opacity="0.75"/>
<path d="M190.864 31.112C190.117 31.112 189.445 30.984 188.848 30.728C188.251 30.4613 187.781 30.088 187.44 29.608C187.099 29.128 186.928 28.568 186.928 27.928H188.88C188.923 28.408 189.109 28.8027 189.44 29.112C189.781 29.4213 190.256 29.576 190.864 29.576C191.493 29.576 191.984 29.4267 192.336 29.128C192.688 28.8187 192.864 28.424 192.864 27.944C192.864 27.5707 192.752 27.2667 192.528 27.032C192.315 26.7973 192.043 26.616 191.712 26.488C191.392 26.36 190.944 26.2213 190.368 26.072C189.643 25.88 189.051 25.688 188.592 25.496C188.144 25.2933 187.76 24.984 187.44 24.568C187.12 24.152 186.96 23.5973 186.96 22.904C186.96 22.264 187.12 21.704 187.44 21.224C187.76 20.744 188.208 20.376 188.784 20.12C189.36 19.864 190.027 19.736 190.784 19.736C191.861 19.736 192.741 20.008 193.424 20.552C194.117 21.0853 194.501 21.8213 194.576 22.76H192.56C192.528 22.3547 192.336 22.008 191.984 21.72C191.632 21.432 191.168 21.288 190.592 21.288C190.069 21.288 189.643 21.4213 189.312 21.688C188.981 21.9547 188.816 22.3387 188.816 22.84C188.816 23.1813 188.917 23.464 189.12 23.688C189.333 23.9013 189.6 24.072 189.92 24.2C190.24 24.328 190.677 24.4667 191.232 24.616C191.968 24.8187 192.565 25.0213 193.024 25.224C193.493 25.4267 193.888 25.7413 194.208 26.168C194.539 26.584 194.704 27.144 194.704 27.848C194.704 28.4133 194.549 28.9467 194.24 29.448C193.941 29.9493 193.499 30.3547 192.912 30.664C192.336 30.9627 191.653 31.112 190.864 31.112ZM198.984 23.672V28.552C198.984 28.8827 199.059 29.1227 199.208 29.272C199.368 29.4107 199.635 29.48 200.008 29.48H201.128V31H199.688C198.867 31 198.238 30.808 197.8 30.424C197.363 30.04 197.144 29.416 197.144 28.552V23.672H196.104V22.184H197.144V19.992H198.984V22.184H201.128V23.672H198.984ZM206.633 31.144C205.801 31.144 205.049 30.9573 204.377 30.584C203.705 30.2 203.177 29.6667 202.793 28.984C202.409 28.2907 202.217 27.4907 202.217 26.584C202.217 25.688 202.415 24.8933 202.809 24.2C203.204 23.5067 203.743 22.9733 204.425 22.6C205.108 22.2267 205.871 22.04 206.713 22.04C207.556 22.04 208.319 22.2267 209.001 22.6C209.684 22.9733 210.223 23.5067 210.617 24.2C211.012 24.8933 211.209 25.688 211.209 26.584C211.209 27.48 211.007 28.2747 210.601 28.968C210.196 29.6613 209.641 30.2 208.937 30.584C208.244 30.9573 207.476 31.144 206.633 31.144ZM206.633 29.56C207.103 29.56 207.54 29.448 207.945 29.224C208.361 29 208.697 28.664 208.953 28.216C209.209 27.768 209.337 27.224 209.337 26.584C209.337 25.944 209.215 25.4053 208.969 24.968C208.724 24.52 208.399 24.184 207.993 23.96C207.588 23.736 207.151 23.624 206.681 23.624C206.212 23.624 205.775 23.736 205.369 23.96C204.975 24.184 204.66 24.52 204.425 24.968C204.191 25.4053 204.073 25.944 204.073 26.584C204.073 27.5333 204.313 28.2693 204.793 28.792C205.284 29.304 205.897 29.56 206.633 29.56ZM214.837 23.464C215.103 23.016 215.455 22.6693 215.893 22.424C216.341 22.168 216.869 22.04 217.477 22.04V23.928H217.013C216.298 23.928 215.754 24.1093 215.381 24.472C215.018 24.8347 214.837 25.464 214.837 26.36V31H213.013V22.184H214.837V23.464ZM218.545 26.552C218.545 25.6667 218.726 24.8827 219.089 24.2C219.462 23.5173 219.964 22.9893 220.593 22.616C221.233 22.232 221.937 22.04 222.705 22.04C223.398 22.04 224.001 22.1787 224.513 22.456C225.036 22.7227 225.452 23.0587 225.761 23.464V22.184H227.601V31H225.761V29.688C225.452 30.104 225.03 30.4507 224.497 30.728C223.964 31.0053 223.356 31.144 222.673 31.144C221.916 31.144 221.222 30.952 220.593 30.568C219.964 30.1733 219.462 29.6293 219.089 28.936C218.726 28.232 218.545 27.4373 218.545 26.552ZM225.761 26.584C225.761 25.976 225.633 25.448 225.377 25C225.132 24.552 224.806 24.2107 224.401 23.976C223.996 23.7413 223.558 23.624 223.089 23.624C222.62 23.624 222.182 23.7413 221.777 23.976C221.372 24.2 221.041 24.536 220.785 24.984C220.54 25.4213 220.417 25.944 220.417 26.552C220.417 27.16 220.54 27.6933 220.785 28.152C221.041 28.6107 221.372 28.9627 221.777 29.208C222.193 29.4427 222.63 29.56 223.089 29.56C223.558 29.56 223.996 29.4427 224.401 29.208C224.806 28.9733 225.132 28.632 225.377 28.184C225.633 27.7253 225.761 27.192 225.761 26.584ZM233.549 22.04C234.232 22.04 234.834 22.1787 235.357 22.456C235.89 22.7227 236.306 23.0587 236.605 23.464V22.184H238.445V31.144C238.445 31.9547 238.274 32.6747 237.933 33.304C237.592 33.944 237.096 34.4453 236.445 34.808C235.805 35.1707 235.037 35.352 234.141 35.352C232.946 35.352 231.954 35.0693 231.165 34.504C230.376 33.9493 229.928 33.192 229.821 32.232H231.629C231.768 32.6907 232.061 33.0587 232.509 33.336C232.968 33.624 233.512 33.768 234.141 33.768C234.877 33.768 235.469 33.544 235.917 33.096C236.376 32.648 236.605 31.9973 236.605 31.144V29.672C236.296 30.088 235.874 30.44 235.341 30.728C234.818 31.0053 234.221 31.144 233.549 31.144C232.781 31.144 232.077 30.952 231.437 30.568C230.808 30.1733 230.306 29.6293 229.933 28.936C229.57 28.232 229.389 27.4373 229.389 26.552C229.389 25.6667 229.57 24.8827 229.933 24.2C230.306 23.5173 230.808 22.9893 231.437 22.616C232.077 22.232 232.781 22.04 233.549 22.04ZM236.605 26.584C236.605 25.976 236.477 25.448 236.221 25C235.976 24.552 235.65 24.2107 235.245 23.976C234.84 23.7413 234.402 23.624 233.933 23.624C233.464 23.624 233.026 23.7413 232.621 23.976C232.216 24.2 231.885 24.536 231.629 24.984C231.384 25.4213 231.261 25.944 231.261 26.552C231.261 27.16 231.384 27.6933 231.629 28.152C231.885 28.6107 232.216 28.9627 232.621 29.208C233.037 29.4427 233.474 29.56 233.933 29.56C234.402 29.56 234.84 29.4427 235.245 29.208C235.65 28.9733 235.976 28.632 236.221 28.184C236.477 27.7253 236.605 27.192 236.605 26.584ZM248.921 26.376C248.921 26.7067 248.899 27.0053 248.857 27.272H242.121C242.174 27.976 242.435 28.5413 242.905 28.968C243.374 29.3947 243.95 29.608 244.633 29.608C245.614 29.608 246.307 29.1973 246.713 28.376H248.681C248.414 29.1867 247.929 29.8533 247.225 30.376C246.531 30.888 245.667 31.144 244.633 31.144C243.79 31.144 243.033 30.9573 242.361 30.584C241.699 30.2 241.177 29.6667 240.793 28.984C240.419 28.2907 240.233 27.4907 240.233 26.584C240.233 25.6773 240.414 24.8827 240.777 24.2C241.15 23.5067 241.667 22.9733 242.329 22.6C243.001 22.2267 243.769 22.04 244.633 22.04C245.465 22.04 246.206 22.2213 246.857 22.584C247.507 22.9467 248.014 23.4587 248.377 24.12C248.739 24.7707 248.921 25.5227 248.921 26.376ZM247.017 25.8C247.006 25.128 246.766 24.5893 246.297 24.184C245.827 23.7787 245.246 23.576 244.553 23.576C243.923 23.576 243.385 23.7787 242.937 24.184C242.489 24.5787 242.222 25.1173 242.137 25.8H247.017ZM265.544 22.04C266.237 22.04 266.856 22.184 267.4 22.472C267.955 22.76 268.387 23.1867 268.696 23.752C269.016 24.3173 269.176 25 269.176 25.8V31H267.368V26.072C267.368 25.2827 267.171 24.68 266.776 24.264C266.381 23.8373 265.843 23.624 265.16 23.624C264.477 23.624 263.933 23.8373 263.528 24.264C263.133 24.68 262.936 25.2827 262.936 26.072V31H261.128V26.072C261.128 25.2827 260.931 24.68 260.536 24.264C260.141 23.8373 259.603 23.624 258.92 23.624C258.237 23.624 257.693 23.8373 257.288 24.264C256.893 24.68 256.696 25.2827 256.696 26.072V31H254.872V22.184H256.696V23.192C256.995 22.8293 257.373 22.5467 257.832 22.344C258.291 22.1413 258.781 22.04 259.304 22.04C260.008 22.04 260.637 22.1893 261.192 22.488C261.747 22.7867 262.173 23.2187 262.472 23.784C262.739 23.2507 263.155 22.8293 263.72 22.52C264.285 22.2 264.893 22.04 265.544 22.04ZM270.889 26.552C270.889 25.6667 271.07 24.8827 271.433 24.2C271.806 23.5173 272.308 22.9893 272.937 22.616C273.577 22.232 274.281 22.04 275.049 22.04C275.742 22.04 276.345 22.1787 276.857 22.456C277.38 22.7227 277.796 23.0587 278.105 23.464V22.184H279.945V31H278.105V29.688C277.796 30.104 277.374 30.4507 276.841 30.728C276.308 31.0053 275.7 31.144 275.017 31.144C274.26 31.144 273.566 30.952 272.937 30.568C272.308 30.1733 271.806 29.6293 271.433 28.936C271.07 28.232 270.889 27.4373 270.889 26.552ZM278.105 26.584C278.105 25.976 277.977 25.448 277.721 25C277.476 24.552 277.15 24.2107 276.745 23.976C276.34 23.7413 275.902 23.624 275.433 23.624C274.964 23.624 274.526 23.7413 274.121 23.976C273.716 24.2 273.385 24.536 273.129 24.984C272.884 25.4213 272.761 25.944 272.761 26.552C272.761 27.16 272.884 27.6933 273.129 28.152C273.385 28.6107 273.716 28.9627 274.121 29.208C274.537 29.4427 274.974 29.56 275.433 29.56C275.902 29.56 276.34 29.4427 276.745 29.208C277.15 28.9733 277.476 28.632 277.721 28.184C277.977 27.7253 278.105 27.192 278.105 26.584ZM286.789 22.04C287.482 22.04 288.101 22.184 288.645 22.472C289.199 22.76 289.631 23.1867 289.941 23.752C290.25 24.3173 290.405 25 290.405 25.8V31H288.597V26.072C288.597 25.2827 288.399 24.68 288.005 24.264C287.61 23.8373 287.071 23.624 286.389 23.624C285.706 23.624 285.162 23.8373 284.757 24.264C284.362 24.68 284.165 25.2827 284.165 26.072V31H282.341V22.184H284.165V23.192C284.463 22.8293 284.842 22.5467 285.301 22.344C285.77 22.1413 286.266 22.04 286.789 22.04ZM292.123 26.552C292.123 25.6667 292.305 24.8827 292.667 24.2C293.041 23.5173 293.542 22.9893 294.171 22.616C294.811 22.232 295.515 22.04 296.283 22.04C296.977 22.04 297.579 22.1787 298.091 22.456C298.614 22.7227 299.03 23.0587 299.339 23.464V22.184H301.179V31H299.339V29.688C299.03 30.104 298.609 30.4507 298.075 30.728C297.542 31.0053 296.934 31.144 296.251 31.144C295.494 31.144 294.801 30.952 294.171 30.568C293.542 30.1733 293.041 29.6293 292.667 28.936C292.305 28.232 292.123 27.4373 292.123 26.552ZM299.339 26.584C299.339 25.976 299.211 25.448 298.955 25C298.71 24.552 298.385 24.2107 297.979 23.976C297.574 23.7413 297.137 23.624 296.667 23.624C296.198 23.624 295.761 23.7413 295.355 23.976C294.95 24.2 294.619 24.536 294.363 24.984C294.118 25.4213 293.995 25.944 293.995 26.552C293.995 27.16 294.118 27.6933 294.363 28.152C294.619 28.6107 294.95 28.9627 295.355 29.208C295.771 29.4427 296.209 29.56 296.667 29.56C297.137 29.56 297.574 29.4427 297.979 29.208C298.385 28.9733 298.71 28.632 298.955 28.184C299.211 27.7253 299.339 27.192 299.339 26.584ZM307.127 22.04C307.81 22.04 308.412 22.1787 308.935 22.456C309.468 22.7227 309.884 23.0587 310.183 23.464V22.184H312.023V31.144C312.023 31.9547 311.852 32.6747 311.511 33.304C311.17 33.944 310.674 34.4453 310.023 34.808C309.383 35.1707 308.615 35.352 307.719 35.352C306.524 35.352 305.532 35.0693 304.743 34.504C303.954 33.9493 303.506 33.192 303.399 32.232H305.207C305.346 32.6907 305.639 33.0587 306.087 33.336C306.546 33.624 307.09 33.768 307.719 33.768C308.455 33.768 309.047 33.544 309.495 33.096C309.954 32.648 310.183 31.9973 310.183 31.144V29.672C309.874 30.088 309.452 30.44 308.919 30.728C308.396 31.0053 307.799 31.144 307.127 31.144C306.359 31.144 305.655 30.952 305.015 30.568C304.386 30.1733 303.884 29.6293 303.511 28.936C303.148 28.232 302.967 27.4373 302.967 26.552C302.967 25.6667 303.148 24.8827 303.511 24.2C303.884 23.5173 304.386 22.9893 305.015 22.616C305.655 22.232 306.359 22.04 307.127 22.04ZM310.183 26.584C310.183 25.976 310.055 25.448 309.799 25C309.554 24.552 309.228 24.2107 308.823 23.976C308.418 23.7413 307.98 23.624 307.511 23.624C307.042 23.624 306.604 23.7413 306.199 23.976C305.794 24.2 305.463 24.536 305.207 24.984C304.962 25.4213 304.839 25.944 304.839 26.552C304.839 27.16 304.962 27.6933 305.207 28.152C305.463 28.6107 305.794 28.9627 306.199 29.208C306.615 29.4427 307.052 29.56 307.511 29.56C307.98 29.56 308.418 29.4427 308.823 29.208C309.228 28.9733 309.554 28.632 309.799 28.184C310.055 27.7253 310.183 27.192 310.183 26.584ZM322.499 26.376C322.499 26.7067 322.477 27.0053 322.435 27.272H315.699C315.752 27.976 316.013 28.5413 316.483 28.968C316.952 29.3947 317.528 29.608 318.211 29.608C319.192 29.608 319.885 29.1973 320.291 28.376H322.259C321.992 29.1867 321.507 29.8533 320.803 30.376C320.109 30.888 319.245 31.144 318.211 31.144C317.368 31.144 316.611 30.9573 315.939 30.584C315.277 30.2 314.755 29.6667 314.371 28.984C313.997 28.2907 313.811 27.4907 313.811 26.584C313.811 25.6773 313.992 24.8827 314.355 24.2C314.728 23.5067 315.245 22.9733 315.907 22.6C316.579 22.2267 317.347 22.04 318.211 22.04C319.043 22.04 319.784 22.2213 320.435 22.584C321.085 22.9467 321.592 23.4587 321.955 24.12C322.317 24.7707 322.499 25.5227 322.499 26.376ZM320.595 25.8C320.584 25.128 320.344 24.5893 319.875 24.184C319.405 23.7787 318.824 23.576 318.131 23.576C317.501 23.576 316.963 23.7787 316.515 24.184C316.067 24.5787 315.8 25.1173 315.715 25.8H320.595ZM326.118 23.464C326.384 23.016 326.736 22.6693 327.174 22.424C327.622 22.168 328.15 22.04 328.758 22.04V23.928H328.294C327.579 23.928 327.035 24.1093 326.662 24.472C326.299 24.8347 326.118 25.464 326.118 26.36V31H324.294V22.184H326.118V23.464Z" fill="white"/>
<path d="M150 20C150 18.3431 151.343 17 153 17H159.757C160.553 17 161.316 17.3161 161.879 17.8787L165.121 21.1213C165.684 21.6839 166 22.447 166 23.2426V30C166 31.6569 164.657 33 163 33H153C151.343 33 150 31.6569 150 30V20Z" fill="white"/>
<rect x="154" y="26" width="8" height="3" rx="1.5" fill="#191919"/>
<path d="M94.4591 65.66V70.976C94.4591 71.608 94.6231 72.084 94.9511 72.404C95.2871 72.724 95.7511 72.884 96.3431 72.884C96.9431 72.884 97.4071 72.724 97.7351 72.404C98.0711 72.084 98.2391 71.608 98.2391 70.976V65.66H99.6071V70.952C99.6071 71.632 99.4591 72.208 99.1631 72.68C98.8671 73.152 98.4711 73.504 97.9751 73.736C97.4791 73.968 96.9311 74.084 96.3311 74.084C95.7311 74.084 95.1831 73.968 94.6871 73.736C94.1991 73.504 93.8111 73.152 93.5231 72.68C93.2351 72.208 93.0911 71.632 93.0911 70.952V65.66H94.4591ZM104.724 67.28C105.244 67.28 105.708 67.388 106.116 67.604C106.532 67.82 106.856 68.14 107.088 68.564C107.32 68.988 107.436 69.5 107.436 70.1V74H106.08V70.304C106.08 69.712 105.932 69.26 105.636 68.948C105.34 68.628 104.936 68.468 104.424 68.468C103.912 68.468 103.504 68.628 103.2 68.948C102.904 69.26 102.756 69.712 102.756 70.304V74H101.388V67.388H102.756V68.144C102.98 67.872 103.264 67.66 103.608 67.508C103.96 67.356 104.332 67.28 104.724 67.28ZM108.725 70.664C108.725 70 108.861 69.412 109.133 68.9C109.413 68.388 109.789 67.992 110.261 67.712C110.741 67.424 111.269 67.28 111.845 67.28C112.365 67.28 112.817 67.384 113.201 67.592C113.593 67.792 113.905 68.044 114.137 68.348V67.388H115.517V74H114.137V73.016C113.905 73.328 113.589 73.588 113.189 73.796C112.789 74.004 112.333 74.108 111.821 74.108C111.253 74.108 110.733 73.964 110.261 73.676C109.789 73.38 109.413 72.972 109.133 72.452C108.861 71.924 108.725 71.328 108.725 70.664ZM114.137 70.688C114.137 70.232 114.041 69.836 113.849 69.5C113.665 69.164 113.421 68.908 113.117 68.732C112.813 68.556 112.485 68.468 112.133 68.468C111.781 68.468 111.453 68.556 111.149 68.732C110.845 68.9 110.597 69.152 110.405 69.488C110.221 69.816 110.129 70.208 110.129 70.664C110.129 71.12 110.221 71.52 110.405 71.864C110.597 72.208 110.845 72.472 111.149 72.656C111.461 72.832 111.789 72.92 112.133 72.92C112.485 72.92 112.813 72.832 113.117 72.656C113.421 72.48 113.665 72.224 113.849 71.888C114.041 71.544 114.137 71.144 114.137 70.688ZM118.682 68.372C118.914 68.052 119.23 67.792 119.63 67.592C120.038 67.384 120.49 67.28 120.986 67.28C121.57 67.28 122.098 67.42 122.57 67.7C123.042 67.98 123.414 68.38 123.686 68.9C123.958 69.412 124.094 70 124.094 70.664C124.094 71.328 123.958 71.924 123.686 72.452C123.414 72.972 123.038 73.38 122.558 73.676C122.086 73.964 121.562 74.108 120.986 74.108C120.474 74.108 120.018 74.008 119.618 73.808C119.226 73.608 118.914 73.352 118.682 73.04V74H117.314V65.12H118.682V68.372ZM122.702 70.664C122.702 70.208 122.606 69.816 122.414 69.488C122.23 69.152 121.982 68.9 121.67 68.732C121.366 68.556 121.038 68.468 120.686 68.468C120.342 68.468 120.014 68.556 119.702 68.732C119.398 68.908 119.15 69.164 118.958 69.5C118.774 69.836 118.682 70.232 118.682 70.688C118.682 71.144 118.774 71.544 118.958 71.888C119.15 72.224 119.398 72.48 119.702 72.656C120.014 72.832 120.342 72.92 120.686 72.92C121.038 72.92 121.366 72.832 121.67 72.656C121.982 72.472 122.23 72.208 122.414 71.864C122.606 71.52 122.702 71.12 122.702 70.664ZM126.815 65.12V74H125.447V65.12H126.815ZM134.671 70.532C134.671 70.78 134.655 71.004 134.623 71.204H129.571C129.611 71.732 129.807 72.156 130.159 72.476C130.511 72.796 130.943 72.956 131.455 72.956C132.191 72.956 132.711 72.648 133.015 72.032H134.491C134.291 72.64 133.927 73.14 133.399 73.532C132.879 73.916 132.231 74.108 131.455 74.108C130.823 74.108 130.255 73.968 129.751 73.688C129.255 73.4 128.863 73 128.575 72.488C128.295 71.968 128.155 71.368 128.155 70.688C128.155 70.008 128.291 69.412 128.563 68.9C128.843 68.38 129.231 67.98 129.727 67.7C130.231 67.42 130.807 67.28 131.455 67.28C132.079 67.28 132.635 67.416 133.123 67.688C133.611 67.96 133.991 68.344 134.263 68.84C134.535 69.328 134.671 69.892 134.671 70.532ZM133.243 70.1C133.235 69.596 133.055 69.192 132.703 68.888C132.351 68.584 131.915 68.432 131.395 68.432C130.923 68.432 130.519 68.584 130.183 68.888C129.847 69.184 129.647 69.588 129.583 70.1H133.243ZM140.73 68.504V72.164C140.73 72.412 140.786 72.592 140.898 72.704C141.018 72.808 141.218 72.86 141.498 72.86H142.338V74H141.258C140.642 74 140.17 73.856 139.842 73.568C139.514 73.28 139.35 72.812 139.35 72.164V68.504H138.57V67.388H139.35V65.744H140.73V67.388H142.338V68.504H140.73ZM146.467 74.108C145.843 74.108 145.279 73.968 144.775 73.688C144.271 73.4 143.875 73 143.587 72.488C143.299 71.968 143.155 71.368 143.155 70.688C143.155 70.016 143.303 69.42 143.599 68.9C143.895 68.38 144.299 67.98 144.811 67.7C145.323 67.42 145.895 67.28 146.527 67.28C147.159 67.28 147.731 67.42 148.243 67.7C148.755 67.98 149.159 68.38 149.455 68.9C149.751 69.42 149.899 70.016 149.899 70.688C149.899 71.36 149.747 71.956 149.443 72.476C149.139 72.996 148.723 73.4 148.195 73.688C147.675 73.968 147.099 74.108 146.467 74.108ZM146.467 72.92C146.819 72.92 147.147 72.836 147.451 72.668C147.763 72.5 148.015 72.248 148.207 71.912C148.399 71.576 148.495 71.168 148.495 70.688C148.495 70.208 148.403 69.804 148.219 69.476C148.035 69.14 147.791 68.888 147.487 68.72C147.183 68.552 146.855 68.468 146.503 68.468C146.151 68.468 145.823 68.552 145.519 68.72C145.223 68.888 144.987 69.14 144.811 69.476C144.635 69.804 144.547 70.208 144.547 70.688C144.547 71.4 144.727 71.952 145.087 72.344C145.455 72.728 145.915 72.92 146.467 72.92ZM156.769 74.108C156.249 74.108 155.781 74.016 155.365 73.832C154.957 73.64 154.633 73.384 154.393 73.064C154.153 72.736 154.025 72.372 154.009 71.972H155.425C155.449 72.252 155.581 72.488 155.821 72.68C156.069 72.864 156.377 72.956 156.745 72.956C157.129 72.956 157.425 72.884 157.633 72.74C157.849 72.588 157.957 72.396 157.957 72.164C157.957 71.916 157.837 71.732 157.597 71.612C157.365 71.492 156.993 71.36 156.481 71.216C155.985 71.08 155.581 70.948 155.269 70.82C154.957 70.692 154.685 70.496 154.453 70.232C154.229 69.968 154.117 69.62 154.117 69.188C154.117 68.836 154.221 68.516 154.429 68.228C154.637 67.932 154.933 67.7 155.317 67.532C155.709 67.364 156.157 67.28 156.661 67.28C157.413 67.28 158.017 67.472 158.473 67.856C158.937 68.232 159.185 68.748 159.217 69.404H157.849C157.825 69.108 157.705 68.872 157.489 68.696C157.273 68.52 156.981 68.432 156.613 68.432C156.253 68.432 155.977 68.5 155.785 68.636C155.593 68.772 155.497 68.952 155.497 69.176C155.497 69.352 155.561 69.5 155.689 69.62C155.817 69.74 155.973 69.836 156.157 69.908C156.341 69.972 156.613 70.056 156.973 70.16C157.453 70.288 157.845 70.42 158.149 70.556C158.461 70.684 158.729 70.876 158.953 71.132C159.177 71.388 159.293 71.728 159.301 72.152C159.301 72.528 159.197 72.864 158.989 73.16C158.781 73.456 158.485 73.688 158.101 73.856C157.725 74.024 157.281 74.108 156.769 74.108ZM160.323 70.664C160.323 70 160.459 69.412 160.731 68.9C161.011 68.388 161.387 67.992 161.859 67.712C162.339 67.424 162.867 67.28 163.443 67.28C163.963 67.28 164.415 67.384 164.799 67.592C165.191 67.792 165.503 68.044 165.735 68.348V67.388H167.115V74H165.735V73.016C165.503 73.328 165.187 73.588 164.787 73.796C164.387 74.004 163.931 74.108 163.419 74.108C162.851 74.108 162.331 73.964 161.859 73.676C161.387 73.38 161.011 72.972 160.731 72.452C160.459 71.924 160.323 71.328 160.323 70.664ZM165.735 70.688C165.735 70.232 165.639 69.836 165.447 69.5C165.263 69.164 165.019 68.908 164.715 68.732C164.411 68.556 164.083 68.468 163.731 68.468C163.379 68.468 163.051 68.556 162.747 68.732C162.443 68.9 162.195 69.152 162.003 69.488C161.819 69.816 161.727 70.208 161.727 70.664C161.727 71.12 161.819 71.52 162.003 71.864C162.195 72.208 162.443 72.472 162.747 72.656C163.059 72.832 163.387 72.92 163.731 72.92C164.083 72.92 164.411 72.832 164.715 72.656C165.019 72.48 165.263 72.224 165.447 71.888C165.639 71.544 165.735 71.144 165.735 70.688ZM171.468 72.776L173.34 67.388H174.792L172.272 74H170.64L168.132 67.388H169.596L171.468 72.776ZM181.886 70.532C181.886 70.78 181.87 71.004 181.838 71.204H176.786C176.826 71.732 177.022 72.156 177.374 72.476C177.726 72.796 178.158 72.956 178.67 72.956C179.406 72.956 179.926 72.648 180.23 72.032H181.706C181.506 72.64 181.142 73.14 180.614 73.532C180.094 73.916 179.446 74.108 178.67 74.108C178.038 74.108 177.47 73.968 176.966 73.688C176.47 73.4 176.078 73 175.79 72.488C175.51 71.968 175.37 71.368 175.37 70.688C175.37 70.008 175.506 69.412 175.778 68.9C176.058 68.38 176.446 67.98 176.942 67.7C177.446 67.42 178.022 67.28 178.67 67.28C179.294 67.28 179.85 67.416 180.338 67.688C180.826 67.96 181.206 68.344 181.478 68.84C181.75 69.328 181.886 69.892 181.886 70.532ZM180.458 70.1C180.45 69.596 180.27 69.192 179.918 68.888C179.566 68.584 179.13 68.432 178.61 68.432C178.138 68.432 177.734 68.584 177.398 68.888C177.062 69.184 176.862 69.588 176.798 70.1H180.458ZM187.945 68.504V72.164C187.945 72.412 188.001 72.592 188.113 72.704C188.233 72.808 188.433 72.86 188.713 72.86H189.553V74H188.473C187.857 74 187.385 73.856 187.057 73.568C186.729 73.28 186.565 72.812 186.565 72.164V68.504H185.785V67.388H186.565V65.744H187.945V67.388H189.553V68.504H187.945ZM194.234 67.28C194.738 67.28 195.186 67.388 195.578 67.604C195.978 67.82 196.29 68.14 196.514 68.564C196.746 68.988 196.862 69.5 196.862 70.1V74H195.506V70.304C195.506 69.712 195.358 69.26 195.062 68.948C194.766 68.628 194.362 68.468 193.85 68.468C193.338 68.468 192.93 68.628 192.626 68.948C192.33 69.26 192.182 69.712 192.182 70.304V74H190.814V65.12H192.182V68.156C192.414 67.876 192.706 67.66 193.058 67.508C193.418 67.356 193.81 67.28 194.234 67.28ZM204.667 70.532C204.667 70.78 204.651 71.004 204.619 71.204H199.567C199.607 71.732 199.803 72.156 200.155 72.476C200.507 72.796 200.939 72.956 201.451 72.956C202.187 72.956 202.707 72.648 203.011 72.032H204.487C204.287 72.64 203.923 73.14 203.395 73.532C202.875 73.916 202.227 74.108 201.451 74.108C200.819 74.108 200.251 73.968 199.747 73.688C199.251 73.4 198.859 73 198.571 72.488C198.291 71.968 198.151 71.368 198.151 70.688C198.151 70.008 198.287 69.412 198.559 68.9C198.839 68.38 199.227 67.98 199.723 67.7C200.227 67.42 200.803 67.28 201.451 67.28C202.075 67.28 202.631 67.416 203.119 67.688C203.607 67.96 203.987 68.344 204.259 68.84C204.531 69.328 204.667 69.892 204.667 70.532ZM203.239 70.1C203.231 69.596 203.051 69.192 202.699 68.888C202.347 68.584 201.911 68.432 201.391 68.432C200.919 68.432 200.515 68.584 200.179 68.888C199.843 69.184 199.643 69.588 199.579 70.1H203.239ZM211.902 68.504H210.678V74H209.298V68.504H208.518V67.388H209.298V66.92C209.298 66.16 209.498 65.608 209.898 65.264C210.306 64.912 210.942 64.736 211.806 64.736V65.876C211.39 65.876 211.098 65.956 210.93 66.116C210.762 66.268 210.678 66.536 210.678 66.92V67.388H211.902V68.504ZM213.811 66.512C213.563 66.512 213.355 66.428 213.187 66.26C213.019 66.092 212.935 65.884 212.935 65.636C212.935 65.388 213.019 65.18 213.187 65.012C213.355 64.844 213.563 64.76 213.811 64.76C214.051 64.76 214.255 64.844 214.423 65.012C214.591 65.18 214.675 65.388 214.675 65.636C214.675 65.884 214.591 66.092 214.423 66.26C214.255 66.428 214.051 66.512 213.811 66.512ZM214.483 67.388V74H213.115V67.388H214.483ZM217.647 65.12V74H216.279V65.12H217.647ZM225.503 70.532C225.503 70.78 225.487 71.004 225.455 71.204H220.403C220.443 71.732 220.639 72.156 220.991 72.476C221.343 72.796 221.775 72.956 222.287 72.956C223.023 72.956 223.543 72.648 223.847 72.032H225.323C225.123 72.64 224.759 73.14 224.231 73.532C223.711 73.916 223.063 74.108 222.287 74.108C221.655 74.108 221.087 73.968 220.583 73.688C220.087 73.4 219.695 73 219.407 72.488C219.127 71.968 218.987 71.368 218.987 70.688C218.987 70.008 219.123 69.412 219.395 68.9C219.675 68.38 220.063 67.98 220.559 67.7C221.063 67.42 221.639 67.28 222.287 67.28C222.911 67.28 223.467 67.416 223.955 67.688C224.443 67.96 224.823 68.344 225.095 68.84C225.367 69.328 225.503 69.892 225.503 70.532ZM224.075 70.1C224.067 69.596 223.887 69.192 223.535 68.888C223.183 68.584 222.747 68.432 222.227 68.432C221.755 68.432 221.351 68.584 221.015 68.888C220.679 69.184 220.479 69.588 220.415 70.1H224.075ZM228.349 72.356L226.897 75.668H226.009L226.861 72.356H228.349ZM234.258 68.504V72.164C234.258 72.412 234.314 72.592 234.426 72.704C234.546 72.808 234.746 72.86 235.026 72.86H235.866V74H234.786C234.17 74 233.698 73.856 233.37 73.568C233.042 73.28 232.878 72.812 232.878 72.164V68.504H232.098V67.388H232.878V65.744H234.258V67.388H235.866V68.504H234.258ZM240.547 67.28C241.051 67.28 241.499 67.388 241.891 67.604C242.291 67.82 242.603 68.14 242.827 68.564C243.059 68.988 243.175 69.5 243.175 70.1V74H241.819V70.304C241.819 69.712 241.671 69.26 241.375 68.948C241.079 68.628 240.675 68.468 240.163 68.468C239.651 68.468 239.243 68.628 238.939 68.948C238.643 69.26 238.495 69.712 238.495 70.304V74H237.127V65.12H238.495V68.156C238.727 67.876 239.019 67.66 239.371 67.508C239.731 67.356 240.123 67.28 240.547 67.28ZM250.98 70.532C250.98 70.78 250.964 71.004 250.932 71.204H245.88C245.92 71.732 246.116 72.156 246.468 72.476C246.82 72.796 247.252 72.956 247.764 72.956C248.5 72.956 249.02 72.648 249.324 72.032H250.8C250.6 72.64 250.236 73.14 249.708 73.532C249.188 73.916 248.54 74.108 247.764 74.108C247.132 74.108 246.564 73.968 246.06 73.688C245.564 73.4 245.172 73 244.884 72.488C244.604 71.968 244.464 71.368 244.464 70.688C244.464 70.008 244.6 69.412 244.872 68.9C245.152 68.38 245.54 67.98 246.036 67.7C246.54 67.42 247.116 67.28 247.764 67.28C248.388 67.28 248.944 67.416 249.432 67.688C249.92 67.96 250.3 68.344 250.572 68.84C250.844 69.328 250.98 69.892 250.98 70.532ZM249.552 70.1C249.544 69.596 249.364 69.192 249.012 68.888C248.66 68.584 248.224 68.432 247.704 68.432C247.232 68.432 246.828 68.584 246.492 68.888C246.156 69.184 245.956 69.588 245.892 70.1H249.552ZM256.139 66.512C255.891 66.512 255.683 66.428 255.515 66.26C255.347 66.092 255.263 65.884 255.263 65.636C255.263 65.388 255.347 65.18 255.515 65.012C255.683 64.844 255.891 64.76 256.139 64.76C256.379 64.76 256.583 64.844 256.751 65.012C256.919 65.18 257.003 65.388 257.003 65.636C257.003 65.884 256.919 66.092 256.751 66.26C256.583 66.428 256.379 66.512 256.139 66.512ZM256.811 67.388V74H255.443V67.388H256.811ZM261.943 67.28C262.463 67.28 262.927 67.388 263.335 67.604C263.751 67.82 264.075 68.14 264.307 68.564C264.539 68.988 264.655 69.5 264.655 70.1V74H263.299V70.304C263.299 69.712 263.151 69.26 262.855 68.948C262.559 68.628 262.155 68.468 261.643 68.468C261.131 68.468 260.723 68.628 260.419 68.948C260.123 69.26 259.975 69.712 259.975 70.304V74H258.607V67.388H259.975V68.144C260.199 67.872 260.483 67.66 260.827 67.508C261.179 67.356 261.551 67.28 261.943 67.28ZM267.996 68.504V72.164C267.996 72.412 268.052 72.592 268.164 72.704C268.284 72.808 268.484 72.86 268.764 72.86H269.604V74H268.524C267.908 74 267.436 73.856 267.108 73.568C266.78 73.28 266.616 72.812 266.616 72.164V68.504H265.836V67.388H266.616V65.744H267.996V67.388H269.604V68.504H267.996ZM276.925 70.532C276.925 70.78 276.909 71.004 276.877 71.204H271.825C271.865 71.732 272.061 72.156 272.413 72.476C272.765 72.796 273.197 72.956 273.709 72.956C274.445 72.956 274.965 72.648 275.269 72.032H276.745C276.545 72.64 276.181 73.14 275.653 73.532C275.133 73.916 274.485 74.108 273.709 74.108C273.077 74.108 272.509 73.968 272.005 73.688C271.509 73.4 271.117 73 270.829 72.488C270.549 71.968 270.409 71.368 270.409 70.688C270.409 70.008 270.545 69.412 270.817 68.9C271.097 68.38 271.485 67.98 271.981 67.7C272.485 67.42 273.061 67.28 273.709 67.28C274.333 67.28 274.889 67.416 275.377 67.688C275.865 67.96 276.245 68.344 276.517 68.84C276.789 69.328 276.925 69.892 276.925 70.532ZM275.497 70.1C275.489 69.596 275.309 69.192 274.957 68.888C274.605 68.584 274.169 68.432 273.649 68.432C273.177 68.432 272.773 68.584 272.437 68.888C272.101 69.184 271.901 69.588 271.837 70.1H275.497ZM279.639 68.348C279.839 68.012 280.103 67.752 280.431 67.568C280.767 67.376 281.163 67.28 281.619 67.28V68.696H281.271C280.735 68.696 280.327 68.832 280.047 69.104C279.775 69.376 279.639 69.848 279.639 70.52V74H278.271V67.388H279.639V68.348ZM286.213 67.28C286.733 67.28 287.197 67.388 287.605 67.604C288.021 67.82 288.345 68.14 288.577 68.564C288.809 68.988 288.925 69.5 288.925 70.1V74H287.569V70.304C287.569 69.712 287.421 69.26 287.125 68.948C286.829 68.628 286.425 68.468 285.913 68.468C285.401 68.468 284.993 68.628 284.689 68.948C284.393 69.26 284.245 69.712 284.245 70.304V74H282.877V67.388H284.245V68.144C284.469 67.872 284.753 67.66 285.097 67.508C285.449 67.356 285.821 67.28 286.213 67.28ZM290.214 70.664C290.214 70 290.35 69.412 290.622 68.9C290.902 68.388 291.278 67.992 291.75 67.712C292.23 67.424 292.758 67.28 293.334 67.28C293.854 67.28 294.306 67.384 294.69 67.592C295.082 67.792 295.394 68.044 295.626 68.348V67.388H297.006V74H295.626V73.016C295.394 73.328 295.078 73.588 294.678 73.796C294.278 74.004 293.822 74.108 293.31 74.108C292.742 74.108 292.222 73.964 291.75 73.676C291.278 73.38 290.902 72.972 290.622 72.452C290.35 71.924 290.214 71.328 290.214 70.664ZM295.626 70.688C295.626 70.232 295.53 69.836 295.338 69.5C295.154 69.164 294.91 68.908 294.606 68.732C294.302 68.556 293.974 68.468 293.622 68.468C293.27 68.468 292.942 68.556 292.638 68.732C292.334 68.9 292.086 69.152 291.894 69.488C291.71 69.816 291.618 70.208 291.618 70.664C291.618 71.12 291.71 71.52 291.894 71.864C292.086 72.208 292.334 72.472 292.638 72.656C292.95 72.832 293.278 72.92 293.622 72.92C293.974 72.92 294.302 72.832 294.606 72.656C294.91 72.48 295.154 72.224 295.338 71.888C295.53 71.544 295.626 71.144 295.626 70.688ZM300.17 65.12V74H298.802V65.12H300.17ZM307.484 74.108C306.964 74.108 306.496 74.016 306.08 73.832C305.672 73.64 305.348 73.384 305.108 73.064C304.868 72.736 304.74 72.372 304.724 71.972H306.14C306.164 72.252 306.296 72.488 306.536 72.68C306.784 72.864 307.092 72.956 307.46 72.956C307.844 72.956 308.14 72.884 308.348 72.74C308.564 72.588 308.672 72.396 308.672 72.164C308.672 71.916 308.552 71.732 308.312 71.612C308.08 71.492 307.708 71.36 307.196 71.216C306.7 71.08 306.296 70.948 305.984 70.82C305.672 70.692 305.4 70.496 305.168 70.232C304.944 69.968 304.832 69.62 304.832 69.188C304.832 68.836 304.936 68.516 305.144 68.228C305.352 67.932 305.648 67.7 306.032 67.532C306.424 67.364 306.872 67.28 307.376 67.28C308.128 67.28 308.732 67.472 309.188 67.856C309.652 68.232 309.9 68.748 309.932 69.404H308.564C308.54 69.108 308.42 68.872 308.204 68.696C307.988 68.52 307.696 68.432 307.328 68.432C306.968 68.432 306.692 68.5 306.5 68.636C306.308 68.772 306.212 68.952 306.212 69.176C306.212 69.352 306.276 69.5 306.404 69.62C306.532 69.74 306.688 69.836 306.872 69.908C307.056 69.972 307.328 70.056 307.688 70.16C308.168 70.288 308.56 70.42 308.864 70.556C309.176 70.684 309.444 70.876 309.668 71.132C309.892 71.388 310.008 71.728 310.016 72.152C310.016 72.528 309.912 72.864 309.704 73.16C309.496 73.456 309.2 73.688 308.816 73.856C308.44 74.024 307.996 74.108 307.484 74.108ZM313.09 68.504V72.164C313.09 72.412 313.146 72.592 313.258 72.704C313.378 72.808 313.578 72.86 313.858 72.86H314.698V74H313.618C313.002 74 312.53 73.856 312.202 73.568C311.874 73.28 311.71 72.812 311.71 72.164V68.504H310.93V67.388H311.71V65.744H313.09V67.388H314.698V68.504H313.09ZM318.827 74.108C318.203 74.108 317.639 73.968 317.135 73.688C316.631 73.4 316.235 73 315.947 72.488C315.659 71.968 315.515 71.368 315.515 70.688C315.515 70.016 315.663 69.42 315.959 68.9C316.255 68.38 316.659 67.98 317.171 67.7C317.683 67.42 318.255 67.28 318.887 67.28C319.519 67.28 320.091 67.42 320.603 67.7C321.115 67.98 321.519 68.38 321.815 68.9C322.111 69.42 322.259 70.016 322.259 70.688C322.259 71.36 322.107 71.956 321.803 72.476C321.499 72.996 321.083 73.4 320.555 73.688C320.035 73.968 319.459 74.108 318.827 74.108ZM318.827 72.92C319.179 72.92 319.507 72.836 319.811 72.668C320.123 72.5 320.375 72.248 320.567 71.912C320.759 71.576 320.855 71.168 320.855 70.688C320.855 70.208 320.763 69.804 320.579 69.476C320.395 69.14 320.151 68.888 319.847 68.72C319.543 68.552 319.215 68.468 318.863 68.468C318.511 68.468 318.183 68.552 317.879 68.72C317.583 68.888 317.347 69.14 317.171 69.476C316.995 69.804 316.907 70.208 316.907 70.688C316.907 71.4 317.087 71.952 317.447 72.344C317.815 72.728 318.275 72.92 318.827 72.92ZM324.979 68.348C325.179 68.012 325.443 67.752 325.771 67.568C326.107 67.376 326.503 67.28 326.959 67.28V68.696H326.611C326.075 68.696 325.667 68.832 325.387 69.104C325.115 69.376 324.979 69.848 324.979 70.52V74H323.611V67.388H324.979V68.348ZM327.76 70.664C327.76 70 327.896 69.412 328.168 68.9C328.448 68.388 328.824 67.992 329.296 67.712C329.776 67.424 330.304 67.28 330.88 67.28C331.4 67.28 331.852 67.384 332.236 67.592C332.628 67.792 332.94 68.044 333.172 68.348V67.388H334.552V74H333.172V73.016C332.94 73.328 332.624 73.588 332.224 73.796C331.824 74.004 331.368 74.108 330.856 74.108C330.288 74.108 329.768 73.964 329.296 73.676C328.824 73.38 328.448 72.972 328.168 72.452C327.896 71.924 327.76 71.328 327.76 70.664ZM333.172 70.688C333.172 70.232 333.076 69.836 332.884 69.5C332.7 69.164 332.456 68.908 332.152 68.732C331.848 68.556 331.52 68.468 331.168 68.468C330.816 68.468 330.488 68.556 330.184 68.732C329.88 68.9 329.632 69.152 329.44 69.488C329.256 69.816 329.164 70.208 329.164 70.664C329.164 71.12 329.256 71.52 329.44 71.864C329.632 72.208 329.88 72.472 330.184 72.656C330.496 72.832 330.824 72.92 331.168 72.92C331.52 72.92 331.848 72.832 332.152 72.656C332.456 72.48 332.7 72.224 332.884 71.888C333.076 71.544 333.172 71.144 333.172 70.688ZM339.013 67.28C339.525 67.28 339.977 67.384 340.369 67.592C340.769 67.792 341.081 68.044 341.305 68.348V67.388H342.685V74.108C342.685 74.716 342.557 75.256 342.301 75.728C342.045 76.208 341.673 76.584 341.185 76.856C340.705 77.128 340.129 77.264 339.457 77.264C338.561 77.264 337.817 77.052 337.225 76.628C336.633 76.212 336.297 75.644 336.217 74.924H337.573C337.677 75.268 337.897 75.544 338.233 75.752C338.577 75.968 338.985 76.076 339.457 76.076C340.009 76.076 340.453 75.908 340.789 75.572C341.133 75.236 341.305 74.748 341.305 74.108V73.004C341.073 73.316 340.757 73.58 340.357 73.796C339.965 74.004 339.517 74.108 339.013 74.108C338.437 74.108 337.909 73.964 337.429 73.676C336.957 73.38 336.581 72.972 336.301 72.452C336.029 71.924 335.893 71.328 335.893 70.664C335.893 70 336.029 69.412 336.301 68.9C336.581 68.388 336.957 67.992 337.429 67.712C337.909 67.424 338.437 67.28 339.013 67.28ZM341.305 70.688C341.305 70.232 341.209 69.836 341.017 69.5C340.833 69.164 340.589 68.908 340.285 68.732C339.981 68.556 339.653 68.468 339.301 68.468C338.949 68.468 338.621 68.556 338.317 68.732C338.013 68.9 337.765 69.152 337.573 69.488C337.389 69.816 337.297 70.208 337.297 70.664C337.297 71.12 337.389 71.52 337.573 71.864C337.765 72.208 338.013 72.472 338.317 72.656C338.629 72.832 338.957 72.92 339.301 72.92C339.653 72.92 339.981 72.832 340.285 72.656C340.589 72.48 340.833 72.224 341.017 71.888C341.209 71.544 341.305 71.144 341.305 70.688ZM350.542 70.532C350.542 70.78 350.526 71.004 350.494 71.204H345.442C345.482 71.732 345.678 72.156 346.03 72.476C346.382 72.796 346.814 72.956 347.326 72.956C348.062 72.956 348.582 72.648 348.886 72.032H350.362C350.162 72.64 349.798 73.14 349.27 73.532C348.75 73.916 348.102 74.108 347.326 74.108C346.694 74.108 346.126 73.968 345.622 73.688C345.126 73.4 344.734 73 344.446 72.488C344.166 71.968 344.026 71.368 344.026 70.688C344.026 70.008 344.162 69.412 344.434 68.9C344.714 68.38 345.102 67.98 345.598 67.7C346.102 67.42 346.678 67.28 347.326 67.28C347.95 67.28 348.506 67.416 348.994 67.688C349.482 67.96 349.862 68.344 350.134 68.84C350.406 69.328 350.542 69.892 350.542 70.532ZM349.114 70.1C349.106 69.596 348.926 69.192 348.574 68.888C348.222 68.584 347.786 68.432 347.266 68.432C346.794 68.432 346.39 68.584 346.054 68.888C345.718 69.184 345.518 69.588 345.454 70.1H349.114ZM355.701 66.512C355.453 66.512 355.245 66.428 355.077 66.26C354.909 66.092 354.825 65.884 354.825 65.636C354.825 65.388 354.909 65.18 355.077 65.012C355.245 64.844 355.453 64.76 355.701 64.76C355.941 64.76 356.145 64.844 356.313 65.012C356.481 65.18 356.565 65.388 356.565 65.636C356.565 65.884 356.481 66.092 356.313 66.26C356.145 66.428 355.941 66.512 355.701 66.512ZM356.373 67.388V74H355.005V67.388H356.373ZM360.57 74.108C360.05 74.108 359.582 74.016 359.166 73.832C358.758 73.64 358.434 73.384 358.194 73.064C357.954 72.736 357.826 72.372 357.81 71.972H359.226C359.25 72.252 359.382 72.488 359.622 72.68C359.87 72.864 360.178 72.956 360.546 72.956C360.93 72.956 361.226 72.884 361.434 72.74C361.65 72.588 361.758 72.396 361.758 72.164C361.758 71.916 361.638 71.732 361.398 71.612C361.166 71.492 360.794 71.36 360.282 71.216C359.786 71.08 359.382 70.948 359.07 70.82C358.758 70.692 358.486 70.496 358.254 70.232C358.03 69.968 357.918 69.62 357.918 69.188C357.918 68.836 358.022 68.516 358.23 68.228C358.438 67.932 358.734 67.7 359.118 67.532C359.51 67.364 359.958 67.28 360.462 67.28C361.214 67.28 361.818 67.472 362.274 67.856C362.738 68.232 362.986 68.748 363.018 69.404H361.65C361.626 69.108 361.506 68.872 361.29 68.696C361.074 68.52 360.782 68.432 360.414 68.432C360.054 68.432 359.778 68.5 359.586 68.636C359.394 68.772 359.298 68.952 359.298 69.176C359.298 69.352 359.362 69.5 359.49 69.62C359.618 69.74 359.774 69.836 359.958 69.908C360.142 69.972 360.414 70.056 360.774 70.16C361.254 70.288 361.646 70.42 361.95 70.556C362.262 70.684 362.53 70.876 362.754 71.132C362.978 71.388 363.094 71.728 363.102 72.152C363.102 72.528 362.998 72.864 362.79 73.16C362.582 73.456 362.286 73.688 361.902 73.856C361.526 74.024 361.082 74.108 360.57 74.108ZM370.469 68.504H369.245V74H367.865V68.504H367.085V67.388H367.865V66.92C367.865 66.16 368.065 65.608 368.465 65.264C368.873 64.912 369.509 64.736 370.373 64.736V65.876C369.957 65.876 369.665 65.956 369.497 66.116C369.329 66.268 369.245 66.536 369.245 66.92V67.388H370.469V68.504ZM377.669 67.388V74H376.301V73.22C376.085 73.492 375.801 73.708 375.449 73.868C375.105 74.02 374.737 74.096 374.345 74.096C373.825 74.096 373.357 73.988 372.941 73.772C372.533 73.556 372.209 73.236 371.969 72.812C371.737 72.388 371.621 71.876 371.621 71.276V67.388H372.977V71.072C372.977 71.664 373.125 72.12 373.421 72.44C373.717 72.752 374.121 72.908 374.633 72.908C375.145 72.908 375.549 72.752 375.845 72.44C376.149 72.12 376.301 71.664 376.301 71.072V67.388H377.669ZM380.842 65.12V74H379.474V65.12H380.842ZM384.006 65.12V74H382.638V65.12H384.006ZM386.354 74.084C386.106 74.084 385.898 74 385.73 73.832C385.562 73.664 385.478 73.456 385.478 73.208C385.478 72.96 385.562 72.752 385.73 72.584C385.898 72.416 386.106 72.332 386.354 72.332C386.594 72.332 386.798 72.416 386.966 72.584C387.134 72.752 387.218 72.96 387.218 73.208C387.218 73.456 387.134 73.664 386.966 73.832C386.798 74 386.594 74.084 386.354 74.084Z" fill="white"/>
</svg>
