<svg width="40" height="40" viewBox="0 0 40 40" fill="none" xmlns="http://www.w3.org/2000/svg">
<path d="M20.8249 8.7414L23.3899 12.4841C24.0401 13.4328 24.9974 14.1283 26.1005 14.4535L30.4527 15.7364C31.1266 15.9351 31.3909 16.7485 30.9625 17.3054L28.1956 20.9015C27.4943 21.8129 27.1286 22.9383 27.1602 24.0879L27.285 28.6235C27.3043 29.3259 26.6123 29.8287 25.9503 29.5932L21.6752 28.073C20.5917 27.6877 19.4084 27.6877 18.3248 28.073L14.0497 29.5932C13.3877 29.8287 12.6957 29.3259 12.715 28.6235L12.8398 24.0879C12.8714 22.9383 12.5057 21.8129 11.8044 20.9015L9.03754 17.3054C8.60908 16.7485 8.87339 15.9351 9.54734 15.7364L13.8995 14.4535C15.0026 14.1283 15.9599 13.4328 16.6101 12.4841L19.1751 8.7414C19.5723 8.16183 20.4277 8.16183 20.8249 8.7414Z" stroke="#FF0000" stroke-width="4"/>
</svg>
