<svg xmlns="http://www.w3.org/2000/svg" fill="none" viewBox="0 0 80 30" height="30" width="80">
<rect fill-opacity="0.25" fill="black" rx="15" height="30" width="80"></rect>
<path fill="white" d="M23.2489 10.66V11.776H21.0289V19H19.6609V11.776H17.4289V10.66H23.2489ZM24.1784 15.664C24.1784 15 24.3144 14.412 24.5864 13.9C24.8664 13.388 25.2424 12.992 25.7144 12.712C26.1944 12.424 26.7224 12.28 27.2984 12.28C27.8184 12.28 28.2704 12.384 28.6544 12.592C29.0464 12.792 29.3584 13.044 29.5904 13.348V12.388H30.9704V19H29.5904V18.016C29.3584 18.328 29.0424 18.588 28.6424 18.796C28.2424 19.004 27.7864 19.108 27.2744 19.108C26.7064 19.108 26.1864 18.964 25.7144 18.676C25.2424 18.38 24.8664 17.972 24.5864 17.452C24.3144 16.924 24.1784 16.328 24.1784 15.664ZM29.5904 15.688C29.5904 15.232 29.4944 14.836 29.3024 14.5C29.1184 14.164 28.8744 13.908 28.5704 13.732C28.2664 13.556 27.9384 13.468 27.5864 13.468C27.2344 13.468 26.9064 13.556 26.6024 13.732C26.2984 13.9 26.0504 14.152 25.8584 14.488C25.6744 14.816 25.5824 15.208 25.5824 15.664C25.5824 16.12 25.6744 16.52 25.8584 16.864C26.0504 17.208 26.2984 17.472 26.6024 17.656C26.9144 17.832 27.2424 17.92 27.5864 17.92C27.9384 17.92 28.2664 17.832 28.5704 17.656C28.8744 17.48 29.1184 17.224 29.3024 16.888C29.4944 16.544 29.5904 16.144 29.5904 15.688ZM34.1352 13.36C34.3672 13.056 34.6832 12.8 35.0832 12.592C35.4832 12.384 35.9352 12.28 36.4392 12.28C37.0152 12.28 37.5392 12.424 38.0112 12.712C38.4912 12.992 38.8672 13.388 39.1392 13.9C39.4112 14.412 39.5472 15 39.5472 15.664C39.5472 16.328 39.4112 16.924 39.1392 17.452C38.8672 17.972 38.4912 18.38 38.0112 18.676C37.5392 18.964 37.0152 19.108 36.4392 19.108C35.9352 19.108 35.4872 19.008 35.0952 18.808C34.7032 18.6 34.3832 18.344 34.1352 18.04V22.144H32.7672V12.388H34.1352V13.36ZM38.1552 15.664C38.1552 15.208 38.0592 14.816 37.8672 14.488C37.6832 14.152 37.4352 13.9 37.1232 13.732C36.8192 13.556 36.4912 13.468 36.1392 13.468C35.7952 13.468 35.4672 13.556 35.1552 13.732C34.8512 13.908 34.6032 14.164 34.4112 14.5C34.2272 14.836 34.1352 15.232 34.1352 15.688C34.1352 16.144 34.2272 16.544 34.4112 16.888C34.6032 17.224 34.8512 17.48 35.1552 17.656C35.4672 17.832 35.7952 17.92 36.1392 17.92C36.4912 17.92 36.8192 17.832 37.1232 17.656C37.4352 17.472 37.6832 17.208 37.8672 16.864C38.0592 16.52 38.1552 16.12 38.1552 15.664ZM46.288 10.66V11.776H44.068V19H42.7V11.776H40.468V10.66H46.288ZM47.2174 15.664C47.2174 15 47.3534 14.412 47.6254 13.9C47.9054 13.388 48.2814 12.992 48.7534 12.712C49.2334 12.424 49.7614 12.28 50.3374 12.28C50.8574 12.28 51.3094 12.384 51.6934 12.592C52.0854 12.792 52.3974 13.044 52.6294 13.348V12.388H54.0094V19H52.6294V18.016C52.3974 18.328 52.0814 18.588 51.6814 18.796C51.2814 19.004 50.8254 19.108 50.3134 19.108C49.7454 19.108 49.2254 18.964 48.7534 18.676C48.2814 18.38 47.9054 17.972 47.6254 17.452C47.3534 16.924 47.2174 16.328 47.2174 15.664ZM52.6294 15.688C52.6294 15.232 52.5334 14.836 52.3414 14.5C52.1574 14.164 51.9134 13.908 51.6094 13.732C51.3054 13.556 50.9774 13.468 50.6254 13.468C50.2734 13.468 49.9454 13.556 49.6414 13.732C49.3374 13.9 49.0894 14.152 48.8974 14.488C48.7134 14.816 48.6214 15.208 48.6214 15.664C48.6214 16.12 48.7134 16.52 48.8974 16.864C49.0894 17.208 49.3374 17.472 49.6414 17.656C49.9534 17.832 50.2814 17.92 50.6254 17.92C50.9774 17.92 51.3054 17.832 51.6094 17.656C51.9134 17.48 52.1574 17.224 52.3414 16.888C52.5334 16.544 52.6294 16.144 52.6294 15.688ZM57.1743 13.36C57.4063 13.056 57.7223 12.8 58.1223 12.592C58.5223 12.384 58.9743 12.28 59.4783 12.28C60.0543 12.28 60.5783 12.424 61.0503 12.712C61.5303 12.992 61.9063 13.388 62.1783 13.9C62.4503 14.412 62.5863 15 62.5863 15.664C62.5863 16.328 62.4503 16.924 62.1783 17.452C61.9063 17.972 61.5303 18.38 61.0503 18.676C60.5783 18.964 60.0543 19.108 59.4783 19.108C58.9743 19.108 58.5263 19.008 58.1343 18.808C57.7423 18.6 57.4223 18.344 57.1743 18.04V22.144H55.8063V12.388H57.1743V13.36ZM61.1943 15.664C61.1943 15.208 61.0983 14.816 60.9062 14.488C60.7223 14.152 60.4743 13.9 60.1623 13.732C59.8583 13.556 59.5303 13.468 59.1783 13.468C58.8343 13.468 58.5063 13.556 58.1943 13.732C57.8903 13.908 57.6423 14.164 57.4503 14.5C57.2663 14.836 57.1743 15.232 57.1743 15.688C57.1743 16.144 57.2663 16.544 57.4503 16.888C57.6423 17.224 57.8903 17.48 58.1943 17.656C58.5063 17.832 58.8343 17.92 59.1783 17.92C59.5303 17.92 59.8583 17.832 60.1623 17.656C60.4743 17.472 60.7223 17.208 60.9062 16.864C61.0983 16.52 61.1943 16.12 61.1943 15.664Z"></path>
</svg>
