<svg width="480" height="360" viewBox="0 0 480 360" fill="none" xmlns="http://www.w3.org/2000/svg">
<path d="M178.384 19.88V21.368H175.424V31H173.6V21.368H170.624V19.88H178.384ZM181.159 21.016C180.829 21.016 180.551 20.904 180.327 20.68C180.103 20.456 179.991 20.1787 179.991 19.848C179.991 19.5173 180.103 19.24 180.327 19.016C180.551 18.792 180.829 18.68 181.159 18.68C181.479 18.68 181.751 18.792 181.975 19.016C182.199 19.24 182.311 19.5173 182.311 19.848C182.311 20.1787 182.199 20.456 181.975 20.68C181.751 20.904 181.479 21.016 181.159 21.016ZM182.055 22.184V31H180.231V22.184H182.055ZM195.122 22.04C195.815 22.04 196.434 22.184 196.978 22.472C197.533 22.76 197.965 23.1867 198.274 23.752C198.594 24.3173 198.754 25 198.754 25.8V31H196.946V26.072C196.946 25.2827 196.749 24.68 196.354 24.264C195.959 23.8373 195.421 23.624 194.738 23.624C194.055 23.624 193.511 23.8373 193.106 24.264C192.711 24.68 192.514 25.2827 192.514 26.072V31H190.706V26.072C190.706 25.2827 190.509 24.68 190.114 24.264C189.719 23.8373 189.181 23.624 188.498 23.624C187.815 23.624 187.271 23.8373 186.866 24.264C186.471 24.68 186.274 25.2827 186.274 26.072V31H184.45V22.184H186.274V23.192C186.573 22.8293 186.951 22.5467 187.41 22.344C187.869 22.1413 188.359 22.04 188.882 22.04C189.586 22.04 190.215 22.1893 190.77 22.488C191.325 22.7867 191.751 23.2187 192.05 23.784C192.317 23.2507 192.733 22.8293 193.298 22.52C193.863 22.2 194.471 22.04 195.122 22.04ZM209.155 26.376C209.155 26.7067 209.134 27.0053 209.091 27.272H202.355C202.408 27.976 202.67 28.5413 203.139 28.968C203.608 29.3947 204.184 29.608 204.867 29.608C205.848 29.608 206.542 29.1973 206.947 28.376H208.915C208.648 29.1867 208.163 29.8533 207.459 30.376C206.766 30.888 205.902 31.144 204.867 31.144C204.024 31.144 203.267 30.9573 202.595 30.584C201.934 30.2 201.411 29.6667 201.027 28.984C200.654 28.2907 200.467 27.4907 200.467 26.584C200.467 25.6773 200.648 24.8827 201.011 24.2C201.384 23.5067 201.902 22.9733 202.563 22.6C203.235 22.2267 204.003 22.04 204.867 22.04C205.699 22.04 206.44 22.2213 207.091 22.584C207.742 22.9467 208.248 23.4587 208.611 24.12C208.974 24.7707 209.155 25.5227 209.155 26.376ZM207.251 25.8C207.24 25.128 207 24.5893 206.531 24.184C206.062 23.7787 205.48 23.576 204.787 23.576C204.158 23.576 203.619 23.7787 203.171 24.184C202.723 24.5787 202.456 25.1173 202.371 25.8H207.251ZM212.774 23.464C213.041 23.016 213.393 22.6693 213.83 22.424C214.278 22.168 214.806 22.04 215.414 22.04V23.928H214.95C214.235 23.928 213.691 24.1093 213.318 24.472C212.955 24.8347 212.774 25.464 212.774 26.36V31H210.95V22.184H212.774V23.464Z" fill="white"/>
<rect x="285" y="320" width="60" height="30" rx="15" fill="white" fill-opacity="0.1"/>
<path d="M303.597 339L301.677 335.664H300.633V339H299.265V330.66H302.145C302.785 330.66 303.325 330.772 303.765 330.996C304.213 331.22 304.545 331.52 304.761 331.896C304.985 332.272 305.097 332.692 305.097 333.156C305.097 333.7 304.937 334.196 304.617 334.644C304.305 335.084 303.821 335.384 303.165 335.544L305.229 339H303.597ZM300.633 334.572H302.145C302.657 334.572 303.041 334.444 303.297 334.188C303.561 333.932 303.693 333.588 303.693 333.156C303.693 332.724 303.565 332.388 303.309 332.148C303.053 331.9 302.665 331.776 302.145 331.776H300.633V334.572ZM312.907 335.532C312.907 335.78 312.891 336.004 312.859 336.204H307.807C307.847 336.732 308.043 337.156 308.395 337.476C308.747 337.796 309.179 337.956 309.691 337.956C310.427 337.956 310.947 337.648 311.251 337.032H312.727C312.527 337.64 312.163 338.14 311.635 338.532C311.115 338.916 310.467 339.108 309.691 339.108C309.059 339.108 308.491 338.968 307.987 338.688C307.491 338.4 307.099 338 306.811 337.488C306.531 336.968 306.391 336.368 306.391 335.688C306.391 335.008 306.527 334.412 306.799 333.9C307.079 333.38 307.467 332.98 307.963 332.7C308.467 332.42 309.043 332.28 309.691 332.28C310.315 332.28 310.871 332.416 311.359 332.688C311.847 332.96 312.227 333.344 312.499 333.84C312.771 334.328 312.907 334.892 312.907 335.532ZM311.479 335.1C311.471 334.596 311.291 334.192 310.939 333.888C310.587 333.584 310.151 333.432 309.631 333.432C309.159 333.432 308.755 333.584 308.419 333.888C308.083 334.184 307.883 334.588 307.819 335.1H311.479ZM316.654 339.108C316.134 339.108 315.666 339.016 315.25 338.832C314.842 338.64 314.518 338.384 314.278 338.064C314.038 337.736 313.91 337.372 313.894 336.972H315.31C315.334 337.252 315.466 337.488 315.706 337.68C315.954 337.864 316.262 337.956 316.63 337.956C317.014 337.956 317.31 337.884 317.518 337.74C317.734 337.588 317.842 337.396 317.842 337.164C317.842 336.916 317.722 336.732 317.482 336.612C317.25 336.492 316.878 336.36 316.366 336.216C315.87 336.08 315.466 335.948 315.154 335.82C314.842 335.692 314.57 335.496 314.338 335.232C314.114 334.968 314.002 334.62 314.002 334.188C314.002 333.836 314.106 333.516 314.314 333.228C314.522 332.932 314.818 332.7 315.202 332.532C315.594 332.364 316.042 332.28 316.546 332.28C317.298 332.28 317.902 332.472 318.358 332.856C318.822 333.232 319.07 333.748 319.102 334.404H317.734C317.71 334.108 317.59 333.872 317.374 333.696C317.158 333.52 316.866 333.432 316.498 333.432C316.138 333.432 315.862 333.5 315.67 333.636C315.478 333.772 315.382 333.952 315.382 334.176C315.382 334.352 315.446 334.5 315.574 334.62C315.702 334.74 315.858 334.836 316.042 334.908C316.226 334.972 316.498 335.056 316.858 335.16C317.338 335.288 317.73 335.42 318.034 335.556C318.346 335.684 318.614 335.876 318.838 336.132C319.062 336.388 319.178 336.728 319.186 337.152C319.186 337.528 319.082 337.864 318.874 338.16C318.666 338.456 318.37 338.688 317.986 338.856C317.61 339.024 317.166 339.108 316.654 339.108ZM326.724 335.532C326.724 335.78 326.708 336.004 326.676 336.204H321.624C321.664 336.732 321.86 337.156 322.212 337.476C322.564 337.796 322.996 337.956 323.508 337.956C324.244 337.956 324.764 337.648 325.068 337.032H326.544C326.344 337.64 325.98 338.14 325.452 338.532C324.932 338.916 324.284 339.108 323.508 339.108C322.876 339.108 322.308 338.968 321.804 338.688C321.308 338.4 320.916 338 320.628 337.488C320.348 336.968 320.208 336.368 320.208 335.688C320.208 335.008 320.344 334.412 320.616 333.9C320.896 333.38 321.284 332.98 321.78 332.7C322.284 332.42 322.86 332.28 323.508 332.28C324.132 332.28 324.688 332.416 325.176 332.688C325.664 332.96 326.044 333.344 326.316 333.84C326.588 334.328 326.724 334.892 326.724 335.532ZM325.296 335.1C325.288 334.596 325.108 334.192 324.756 333.888C324.404 333.584 323.968 333.432 323.448 333.432C322.976 333.432 322.572 333.584 322.236 333.888C321.9 334.184 321.7 334.588 321.636 335.1H325.296ZM329.666 333.504V337.164C329.666 337.412 329.722 337.592 329.834 337.704C329.954 337.808 330.154 337.86 330.434 337.86H331.274V339H330.194C329.578 339 329.106 338.856 328.778 338.568C328.45 338.28 328.286 337.812 328.286 337.164V333.504H327.506V332.388H328.286V330.744H329.666V332.388H331.274V333.504H329.666Z" fill="white"/>
</svg>
