<svg xmlns="http://www.w3.org/2000/svg" fill="none" viewBox="0 0 140 42" height="42" width="140">
<path fill="black" d="M0.444 20.812C0.444 19.996 0.632 19.264 1.008 18.616C1.392 17.968 1.908 17.464 2.556 17.104C3.212 16.736 3.928 16.552 4.704 16.552C5.592 16.552 6.38 16.772 7.068 17.212C7.764 17.644 8.268 18.26 8.58 19.06H6.936C6.72 18.62 6.42 18.292 6.036 18.076C5.652 17.86 5.208 17.752 4.704 17.752C4.152 17.752 3.66 17.876 3.228 18.124C2.796 18.372 2.456 18.728 2.208 19.192C1.968 19.656 1.848 20.196 1.848 20.812C1.848 21.428 1.968 21.968 2.208 22.432C2.456 22.896 2.796 23.256 3.228 23.512C3.66 23.76 4.152 23.884 4.704 23.884C5.208 23.884 5.652 23.776 6.036 23.56C6.42 23.344 6.72 23.016 6.936 22.576H8.58C8.268 23.376 7.764 23.992 7.068 24.424C6.38 24.856 5.592 25.072 4.704 25.072C3.92 25.072 3.204 24.892 2.556 24.532C1.908 24.164 1.392 23.656 1.008 23.008C0.632 22.36 0.444 21.628 0.444 20.812ZM16.2413 21.532C16.2413 21.78 16.2253 22.004 16.1933 22.204H11.1413C11.1813 22.732 11.3773 23.156 11.7293 23.476C12.0813 23.796 12.5133 23.956 13.0253 23.956C13.7613 23.956 14.2813 23.648 14.5853 23.032H16.0612C15.8613 23.64 15.4973 24.14 14.9693 24.532C14.4493 24.916 13.8013 25.108 13.0253 25.108C12.3933 25.108 11.8253 24.968 11.3213 24.688C10.8253 24.4 10.4333 24 10.1453 23.488C9.86525 22.968 9.72525 22.368 9.72525 21.688C9.72525 21.008 9.86125 20.412 10.1333 19.9C10.4133 19.38 10.8013 18.98 11.2973 18.7C11.8013 18.42 12.3773 18.28 13.0253 18.28C13.6493 18.28 14.2053 18.416 14.6933 18.688C15.1813 18.96 15.5613 19.344 15.8333 19.84C16.1053 20.328 16.2413 20.892 16.2413 21.532ZM14.8133 21.1C14.8053 20.596 14.6253 20.192 14.2733 19.888C13.9213 19.584 13.4853 19.432 12.9653 19.432C12.4933 19.432 12.0893 19.584 11.7533 19.888C11.4173 20.184 11.2173 20.588 11.1533 21.1H14.8133ZM18.9555 16.12V25H17.5875V16.12H18.9555ZM22.1196 16.12V25H20.7516V16.12H22.1196ZM26.7836 25.108C26.1596 25.108 25.5956 24.968 25.0916 24.688C24.5876 24.4 24.1916 24 23.9036 23.488C23.6156 22.968 23.4716 22.368 23.4716 21.688C23.4716 21.016 23.6196 20.42 23.9156 19.9C24.2116 19.38 24.6156 18.98 25.1276 18.7C25.6396 18.42 26.2116 18.28 26.8436 18.28C27.4756 18.28 28.0476 18.42 28.5596 18.7C29.0716 18.98 29.4756 19.38 29.7716 19.9C30.0676 20.42 30.2156 21.016 30.2156 21.688C30.2156 22.36 30.0636 22.956 29.7596 23.476C29.4556 23.996 29.0396 24.4 28.5116 24.688C27.9916 24.968 27.4156 25.108 26.7836 25.108ZM26.7836 23.92C27.1356 23.92 27.4636 23.836 27.7676 23.668C28.0796 23.5 28.3316 23.248 28.5236 22.912C28.7156 22.576 28.8116 22.168 28.8116 21.688C28.8116 21.208 28.7196 20.804 28.5356 20.476C28.3516 20.14 28.1076 19.888 27.8036 19.72C27.4996 19.552 27.1716 19.468 26.8196 19.468C26.4676 19.468 26.1396 19.552 25.8356 19.72C25.5396 19.888 25.3036 20.14 25.1276 20.476C24.9516 20.804 24.8636 21.208 24.8636 21.688C24.8636 22.4 25.0436 22.952 25.4036 23.344C25.7716 23.728 26.2316 23.92 26.7836 23.92Z"></path>
</svg>
