<svg xmlns="http://www.w3.org/2000/svg" fill="none" viewBox="0 0 50 30" height="30" width="50">
<rect fill-opacity="0.25" fill="black" rx="15" height="30" width="50"></rect>
<path fill="white" d="M17.6478 10.66V11.776H14.1078V14.236H16.8678V15.352H14.1078V19H12.7398V10.66H17.6478ZM19.6116 11.512C19.3636 11.512 19.1556 11.428 18.9876 11.26C18.8196 11.092 18.7356 10.884 18.7356 10.636C18.7356 10.388 18.8196 10.18 18.9876 10.012C19.1556 9.844 19.3636 9.76 19.6116 9.76C19.8516 9.76 20.0556 9.844 20.2236 10.012C20.3916 10.18 20.4756 10.388 20.4756 10.636C20.4756 10.884 20.3916 11.092 20.2236 11.26C20.0556 11.428 19.8516 11.512 19.6116 11.512ZM20.2836 12.388V19H18.9156V12.388H20.2836ZM23.4477 10.12V19H22.0797V10.12H23.4477ZM31.3038 15.532C31.3038 15.78 31.2878 16.004 31.2558 16.204H26.2038C26.2438 16.732 26.4398 17.156 26.7918 17.476C27.1438 17.796 27.5758 17.956 28.0878 17.956C28.8238 17.956 29.3438 17.648 29.6478 17.032H31.1237C30.9238 17.64 30.5598 18.14 30.0318 18.532C29.5118 18.916 28.8638 19.108 28.0878 19.108C27.4558 19.108 26.8878 18.968 26.3838 18.688C25.8878 18.4 25.4958 18 25.2078 17.488C24.9278 16.968 24.7878 16.368 24.7878 15.688C24.7878 15.008 24.9238 14.412 25.1958 13.9C25.4758 13.38 25.8638 12.98 26.3598 12.7C26.8638 12.42 27.4398 12.28 28.0878 12.28C28.7118 12.28 29.2678 12.416 29.7558 12.688C30.2438 12.96 30.6238 13.344 30.8958 13.84C31.1678 14.328 31.3038 14.892 31.3038 15.532ZM29.8758 15.1C29.8678 14.596 29.6878 14.192 29.3358 13.888C28.9838 13.584 28.5478 13.432 28.0278 13.432C27.5558 13.432 27.1518 13.584 26.8158 13.888C26.4798 14.184 26.2798 14.588 26.2158 15.1H29.8758ZM35.05 19.108C34.53 19.108 34.062 19.016 33.646 18.832C33.238 18.64 32.914 18.384 32.674 18.064C32.434 17.736 32.306 17.372 32.29 16.972H33.706C33.73 17.252 33.862 17.488 34.102 17.68C34.35 17.864 34.658 17.956 35.026 17.956C35.41 17.956 35.706 17.884 35.914 17.74C36.13 17.588 36.238 17.396 36.238 17.164C36.238 16.916 36.118 16.732 35.878 16.612C35.646 16.492 35.274 16.36 34.762 16.216C34.266 16.08 33.862 15.948 33.55 15.82C33.238 15.692 32.966 15.496 32.734 15.232C32.51 14.968 32.398 14.62 32.398 14.188C32.398 13.836 32.502 13.516 32.71 13.228C32.918 12.932 33.214 12.7 33.598 12.532C33.99 12.364 34.438 12.28 34.942 12.28C35.694 12.28 36.298 12.472 36.754 12.856C37.218 13.232 37.466 13.748 37.498 14.404H36.13C36.106 14.108 35.986 13.872 35.77 13.696C35.554 13.52 35.262 13.432 34.894 13.432C34.534 13.432 34.258 13.5 34.066 13.636C33.874 13.772 33.778 13.952 33.778 14.176C33.778 14.352 33.842 14.5 33.97 14.62C34.098 14.74 34.254 14.836 34.438 14.908C34.622 14.972 34.894 15.056 35.254 15.16C35.734 15.288 36.126 15.42 36.43 15.556C36.742 15.684 37.01 15.876 37.234 16.132C37.458 16.388 37.574 16.728 37.582 17.152C37.582 17.528 37.478 17.864 37.27 18.16C37.062 18.456 36.766 18.688 36.382 18.856C36.006 19.024 35.562 19.108 35.05 19.108Z"></path>
</svg>
