<svg width="96" height="50" viewBox="0 0 96 50" fill="none" xmlns="http://www.w3.org/2000/svg">
<rect width="96" height="50" rx="10" fill="#FF0000" fill-opacity="0.25"/>
<rect x="9" y="32" width="7" height="6" rx="2" fill="white"/>
<path d="M19 33V33C20.1046 33 21 33.8954 21 35V35C21 36.1046 20.1046 37 19 37V37V33Z" fill="white"/>
<path d="M13 32L15.2929 29.7071C15.9229 29.0771 17 29.5233 17 30.4142V39.5858C17 40.4767 15.9229 40.9229 15.2929 40.2929L13 38V32Z" fill="white"/>
<path d="M33.02 12.05C33.76 12.05 34.4067 12.1933 34.96 12.48C35.52 12.76 35.95 13.1667 36.25 13.7C36.5567 14.2267 36.71 14.8433 36.71 15.55C36.71 16.2567 36.5567 16.87 36.25 17.39C35.95 17.91 35.52 18.31 34.96 18.59C34.4067 18.8633 33.76 19 33.02 19H30.75V12.05H33.02ZM33.02 18.07C33.8333 18.07 34.4567 17.85 34.89 17.41C35.3233 16.97 35.54 16.35 35.54 15.55C35.54 14.7433 35.3233 14.1133 34.89 13.66C34.4567 13.2067 33.8333 12.98 33.02 12.98H31.89V18.07H33.02ZM37.4598 16.22C37.4598 15.6667 37.5732 15.1767 37.7998 14.75C38.0332 14.3233 38.3465 13.9933 38.7398 13.76C39.1398 13.52 39.5798 13.4 40.0598 13.4C40.4932 13.4 40.8698 13.4867 41.1898 13.66C41.5165 13.8267 41.7765 14.0367 41.9698 14.29V13.49H43.1198V19H41.9698V18.18C41.7765 18.44 41.5132 18.6567 41.1798 18.83C40.8465 19.0033 40.4665 19.09 40.0398 19.09C39.5665 19.09 39.1332 18.97 38.7398 18.73C38.3465 18.4833 38.0332 18.1433 37.7998 17.71C37.5732 17.27 37.4598 16.7733 37.4598 16.22ZM41.9698 16.24C41.9698 15.86 41.8898 15.53 41.7298 15.25C41.5765 14.97 41.3732 14.7567 41.1198 14.61C40.8665 14.4633 40.5932 14.39 40.2998 14.39C40.0065 14.39 39.7332 14.4633 39.4798 14.61C39.2265 14.75 39.0198 14.96 38.8598 15.24C38.7065 15.5133 38.6298 15.84 38.6298 16.22C38.6298 16.6 38.7065 16.9333 38.8598 17.22C39.0198 17.5067 39.2265 17.7267 39.4798 17.88C39.7398 18.0267 40.0132 18.1 40.2998 18.1C40.5932 18.1 40.8665 18.0267 41.1198 17.88C41.3732 17.7333 41.5765 17.52 41.7298 17.24C41.8898 16.9533 41.9698 16.62 41.9698 16.24ZM45.7572 14.29C45.9239 14.01 46.1439 13.7933 46.4172 13.64C46.6972 13.48 47.0272 13.4 47.4072 13.4V14.58H47.1172C46.6705 14.58 46.3305 14.6933 46.0972 14.92C45.8705 15.1467 45.7572 15.54 45.7572 16.1V19H44.6172V13.49H45.7572V14.29ZM50.6351 16.25L53.1751 19H51.6351L49.5951 16.63V19H48.4551V11.6H49.5951V15.9L51.5951 13.49H53.1751L50.6351 16.25Z" fill="white"/>
<rect x="30" y="32" width="56" height="6" rx="3" fill="black"/>
<path d="M14.1359 9.48359C14.5216 8.82132 15.4784 8.82132 15.8641 9.48359L17.0412 11.5045C17.1825 11.7471 17.4193 11.9191 17.6937 11.9785L19.9794 12.4735C20.7284 12.6357 21.0241 13.5456 20.5134 14.1172L18.9552 15.8611C18.7681 16.0705 18.6777 16.3488 18.706 16.6281L18.9415 18.955C19.0188 19.7175 18.2447 20.2798 17.5434 19.9708L15.4032 19.0277C15.1463 18.9145 14.8537 18.9145 14.5968 19.0277L12.4566 19.9708C11.7553 20.2798 10.9812 19.7175 11.0585 18.955L11.294 16.6281C11.3223 16.3488 11.2319 16.0705 11.0448 15.8611L9.48655 14.1172C8.9759 13.5456 9.27155 12.6357 10.0206 12.4735L12.3063 11.9785C12.5807 11.9191 12.8175 11.7471 12.9588 11.5045L14.1359 9.48359Z" fill="white"/>
</svg>
