<svg xmlns="http://www.w3.org/2000/svg" fill="none" viewBox="0 0 300 40" height="40" width="300">
<rect fill-opacity="0.1" fill="white" rx="15" height="40" width="300"></rect>
<path fill="white" d="M45.364 19.716C45.812 19.796 46.192 20.032 46.504 20.424C46.816 20.816 46.972 21.26 46.972 21.756C46.972 22.18 46.86 22.564 46.636 22.908C46.42 23.244 46.104 23.512 45.688 23.712C45.272 23.904 44.788 24 44.236 24H40.9V15.66H44.08C44.648 15.66 45.136 15.756 45.544 15.948C45.952 16.14 46.26 16.4 46.468 16.728C46.676 17.048 46.78 17.408 46.78 17.808C46.78 18.288 46.652 18.688 46.396 19.008C46.14 19.328 45.796 19.564 45.364 19.716ZM42.268 19.164H43.96C44.408 19.164 44.756 19.064 45.004 18.864C45.26 18.656 45.388 18.36 45.388 17.976C45.388 17.6 45.26 17.308 45.004 17.1C44.756 16.884 44.408 16.776 43.96 16.776H42.268V19.164ZM44.116 22.884C44.58 22.884 44.944 22.772 45.208 22.548C45.472 22.324 45.604 22.012 45.604 21.612C45.604 21.204 45.464 20.88 45.184 20.64C44.904 20.4 44.532 20.28 44.068 20.28H42.268V22.884H44.116ZM49.8266 18.348C50.0266 18.012 50.2906 17.752 50.6186 17.568C50.9546 17.376 51.3506 17.28 51.8066 17.28V18.696H51.4586C50.9226 18.696 50.5146 18.832 50.2346 19.104C49.9626 19.376 49.8266 19.848 49.8266 20.52V24H48.4586V17.388H49.8266V18.348ZM53.7601 16.512C53.5121 16.512 53.3041 16.428 53.1361 16.26C52.9681 16.092 52.8841 15.884 52.8841 15.636C52.8841 15.388 52.9681 15.18 53.1361 15.012C53.3041 14.844 53.5121 14.76 53.7601 14.76C54.0001 14.76 54.2041 14.844 54.3721 15.012C54.5401 15.18 54.6241 15.388 54.6241 15.636C54.6241 15.884 54.5401 16.092 54.3721 16.26C54.2041 16.428 54.0001 16.512 53.7601 16.512ZM54.4321 17.388V24H53.0641V17.388H54.4321ZM55.7721 20.688C55.7721 20.008 55.9081 19.412 56.1801 18.9C56.4601 18.38 56.8441 17.98 57.3321 17.7C57.8201 17.42 58.3801 17.28 59.0121 17.28C59.8121 17.28 60.4721 17.472 60.9921 17.856C61.5201 18.232 61.8761 18.772 62.0601 19.476H60.5841C60.4641 19.148 60.2721 18.892 60.0081 18.708C59.7441 18.524 59.4121 18.432 59.0121 18.432C58.4521 18.432 58.0041 18.632 57.6681 19.032C57.3401 19.424 57.1761 19.976 57.1761 20.688C57.1761 21.4 57.3401 21.956 57.6681 22.356C58.0041 22.756 58.4521 22.956 59.0121 22.956C59.8041 22.956 60.3281 22.608 60.5841 21.912H62.0601C61.8681 22.584 61.5081 23.12 60.9801 23.52C60.4521 23.912 59.7961 24.108 59.0121 24.108C58.3801 24.108 57.8201 23.968 57.3321 23.688C56.8441 23.4 56.4601 23 56.1801 22.488C55.9081 21.968 55.7721 21.368 55.7721 20.688ZM66.0394 20.7L69.0874 24H67.2394L64.7914 21.156V24H63.4234V15.12H64.7914V20.28L67.1914 17.388H69.0874L66.0394 20.7ZM77.6492 19.716C78.0972 19.796 78.4772 20.032 78.7892 20.424C79.1012 20.816 79.2572 21.26 79.2572 21.756C79.2572 22.18 79.1452 22.564 78.9212 22.908C78.7052 23.244 78.3892 23.512 77.9732 23.712C77.5572 23.904 77.0732 24 76.5212 24H73.1852V15.66H76.3652C76.9332 15.66 77.4212 15.756 77.8292 15.948C78.2372 16.14 78.5452 16.4 78.7532 16.728C78.9612 17.048 79.0652 17.408 79.0652 17.808C79.0652 18.288 78.9372 18.688 78.6812 19.008C78.4252 19.328 78.0812 19.564 77.6492 19.716ZM74.5532 19.164H76.2452C76.6932 19.164 77.0412 19.064 77.2892 18.864C77.5452 18.656 77.6732 18.36 77.6732 17.976C77.6732 17.6 77.5452 17.308 77.2892 17.1C77.0412 16.884 76.6932 16.776 76.2452 16.776H74.5532V19.164ZM76.4012 22.884C76.8652 22.884 77.2292 22.772 77.4932 22.548C77.7572 22.324 77.8892 22.012 77.8892 21.612C77.8892 21.204 77.7492 20.88 77.4692 20.64C77.1892 20.4 76.8172 20.28 76.3532 20.28H74.5532V22.884H76.4012ZM82.1118 18.348C82.3118 18.012 82.5758 17.752 82.9038 17.568C83.2398 17.376 83.6358 17.28 84.0918 17.28V18.696H83.7438C83.2078 18.696 82.7998 18.832 82.5198 19.104C82.2478 19.376 82.1118 19.848 82.1118 20.52V24H80.7438V17.388H82.1118V18.348ZM91.4092 20.532C91.4092 20.78 91.3932 21.004 91.3612 21.204H86.3092C86.3492 21.732 86.5452 22.156 86.8972 22.476C87.2492 22.796 87.6812 22.956 88.1932 22.956C88.9292 22.956 89.4492 22.648 89.7532 22.032H91.2292C91.0292 22.64 90.6652 23.14 90.1372 23.532C89.6172 23.916 88.9692 24.108 88.1932 24.108C87.5612 24.108 86.9932 23.968 86.4892 23.688C85.9932 23.4 85.6012 23 85.3132 22.488C85.0332 21.968 84.8932 21.368 84.8932 20.688C84.8932 20.008 85.0292 19.412 85.3012 18.9C85.5812 18.38 85.9692 17.98 86.4652 17.7C86.9692 17.42 87.5452 17.28 88.1932 17.28C88.8172 17.28 89.3732 17.416 89.8612 17.688C90.3492 17.96 90.7292 18.344 91.0012 18.84C91.2732 19.328 91.4092 19.892 91.4092 20.532ZM89.9812 20.1C89.9732 19.596 89.7932 19.192 89.4412 18.888C89.0892 18.584 88.6532 18.432 88.1332 18.432C87.6612 18.432 87.2572 18.584 86.9212 18.888C86.5852 19.184 86.3852 19.588 86.3212 20.1H89.9812ZM92.2995 20.664C92.2995 20 92.4355 19.412 92.7075 18.9C92.9875 18.388 93.3635 17.992 93.8355 17.712C94.3155 17.424 94.8435 17.28 95.4195 17.28C95.9395 17.28 96.3915 17.384 96.7755 17.592C97.1675 17.792 97.4795 18.044 97.7115 18.348V17.388H99.0915V24H97.7115V23.016C97.4795 23.328 97.1635 23.588 96.7635 23.796C96.3635 24.004 95.9075 24.108 95.3955 24.108C94.8275 24.108 94.3075 23.964 93.8355 23.676C93.3635 23.38 92.9875 22.972 92.7075 22.452C92.4355 21.924 92.2995 21.328 92.2995 20.664ZM97.7115 20.688C97.7115 20.232 97.6155 19.836 97.4235 19.5C97.2395 19.164 96.9955 18.908 96.6915 18.732C96.3875 18.556 96.0595 18.468 95.7075 18.468C95.3555 18.468 95.0275 18.556 94.7235 18.732C94.4195 18.9 94.1715 19.152 93.9795 19.488C93.7955 19.816 93.7035 20.208 93.7035 20.664C93.7035 21.12 93.7955 21.52 93.9795 21.864C94.1715 22.208 94.4195 22.472 94.7235 22.656C95.0355 22.832 95.3635 22.92 95.7075 22.92C96.0595 22.92 96.3875 22.832 96.6915 22.656C96.9955 22.48 97.2395 22.224 97.4235 21.888C97.6155 21.544 97.7115 21.144 97.7115 20.688ZM103.504 20.7L106.552 24H104.704L102.256 21.156V24H100.888V15.12H102.256V20.28L104.656 17.388H106.552L103.504 20.7ZM113.593 20.532C113.593 20.78 113.577 21.004 113.545 21.204H108.493C108.533 21.732 108.729 22.156 109.081 22.476C109.433 22.796 109.865 22.956 110.377 22.956C111.113 22.956 111.633 22.648 111.937 22.032H113.413C113.213 22.64 112.849 23.14 112.321 23.532C111.801 23.916 111.153 24.108 110.377 24.108C109.745 24.108 109.177 23.968 108.673 23.688C108.177 23.4 107.785 23 107.497 22.488C107.217 21.968 107.077 21.368 107.077 20.688C107.077 20.008 107.213 19.412 107.485 18.9C107.765 18.38 108.153 17.98 108.649 17.7C109.153 17.42 109.729 17.28 110.377 17.28C111.001 17.28 111.557 17.416 112.045 17.688C112.533 17.96 112.913 18.344 113.185 18.84C113.457 19.328 113.593 19.892 113.593 20.532ZM112.165 20.1C112.157 19.596 111.977 19.192 111.625 18.888C111.273 18.584 110.837 18.432 110.317 18.432C109.845 18.432 109.441 18.584 109.105 18.888C108.769 19.184 108.569 19.588 108.505 20.1H112.165ZM116.307 18.348C116.507 18.012 116.771 17.752 117.099 17.568C117.435 17.376 117.831 17.28 118.287 17.28V18.696H117.939C117.403 18.696 116.995 18.832 116.715 19.104C116.443 19.376 116.307 19.848 116.307 20.52V24H114.939V17.388H116.307V18.348ZM124.522 21.564C124.234 21.564 123.97 21.496 123.73 21.36C123.498 21.216 123.31 21.028 123.166 20.796C123.03 20.556 122.962 20.292 122.962 20.004C122.962 19.564 123.114 19.192 123.418 18.888C123.722 18.584 124.09 18.432 124.522 18.432C124.97 18.432 125.346 18.584 125.65 18.888C125.954 19.192 126.106 19.564 126.106 20.004C126.106 20.444 125.954 20.816 125.65 21.12C125.346 21.416 124.97 21.564 124.522 21.564ZM137.358 18.06C137.142 17.644 136.842 17.332 136.458 17.124C136.074 16.908 135.63 16.8 135.126 16.8C134.574 16.8 134.082 16.924 133.65 17.172C133.218 17.42 132.878 17.772 132.63 18.228C132.39 18.684 132.27 19.212 132.27 19.812C132.27 20.412 132.39 20.944 132.63 21.408C132.878 21.864 133.218 22.216 133.65 22.464C134.082 22.712 134.574 22.836 135.126 22.836C135.87 22.836 136.474 22.628 136.938 22.212C137.402 21.796 137.686 21.232 137.79 20.52H134.658V19.428H139.254V20.496C139.166 21.144 138.934 21.74 138.558 22.284C138.19 22.828 137.706 23.264 137.106 23.592C136.514 23.912 135.854 24.072 135.126 24.072C134.342 24.072 133.626 23.892 132.978 23.532C132.33 23.164 131.814 22.656 131.43 22.008C131.054 21.36 130.866 20.628 130.866 19.812C130.866 18.996 131.054 18.264 131.43 17.616C131.814 16.968 132.33 16.464 132.978 16.104C133.634 15.736 134.35 15.552 135.126 15.552C136.014 15.552 136.802 15.772 137.49 16.212C138.186 16.644 138.69 17.26 139.002 18.06H137.358ZM140.147 20.664C140.147 20 140.283 19.412 140.555 18.9C140.835 18.388 141.211 17.992 141.683 17.712C142.163 17.424 142.691 17.28 143.267 17.28C143.787 17.28 144.239 17.384 144.623 17.592C145.015 17.792 145.327 18.044 145.559 18.348V17.388H146.939V24H145.559V23.016C145.327 23.328 145.011 23.588 144.611 23.796C144.211 24.004 143.755 24.108 143.243 24.108C142.675 24.108 142.155 23.964 141.683 23.676C141.211 23.38 140.835 22.972 140.555 22.452C140.283 21.924 140.147 21.328 140.147 20.664ZM145.559 20.688C145.559 20.232 145.463 19.836 145.271 19.5C145.087 19.164 144.843 18.908 144.539 18.732C144.235 18.556 143.907 18.468 143.555 18.468C143.203 18.468 142.875 18.556 142.571 18.732C142.267 18.9 142.019 19.152 141.827 19.488C141.643 19.816 141.551 20.208 141.551 20.664C141.551 21.12 141.643 21.52 141.827 21.864C142.019 22.208 142.267 22.472 142.571 22.656C142.883 22.832 143.211 22.92 143.555 22.92C143.907 22.92 144.235 22.832 144.539 22.656C144.843 22.48 145.087 22.224 145.271 21.888C145.463 21.544 145.559 21.144 145.559 20.688ZM156.74 17.28C157.26 17.28 157.724 17.388 158.132 17.604C158.548 17.82 158.872 18.14 159.104 18.564C159.344 18.988 159.464 19.5 159.464 20.1V24H158.108V20.304C158.108 19.712 157.96 19.26 157.664 18.948C157.368 18.628 156.964 18.468 156.452 18.468C155.94 18.468 155.532 18.628 155.228 18.948C154.932 19.26 154.784 19.712 154.784 20.304V24H153.428V20.304C153.428 19.712 153.28 19.26 152.984 18.948C152.688 18.628 152.284 18.468 151.772 18.468C151.26 18.468 150.852 18.628 150.548 18.948C150.252 19.26 150.104 19.712 150.104 20.304V24H148.736V17.388H150.104V18.144C150.328 17.872 150.612 17.66 150.956 17.508C151.3 17.356 151.668 17.28 152.06 17.28C152.588 17.28 153.06 17.392 153.476 17.616C153.892 17.84 154.212 18.164 154.436 18.588C154.636 18.188 154.948 17.872 155.372 17.64C155.796 17.4 156.252 17.28 156.74 17.28ZM167.265 20.532C167.265 20.78 167.249 21.004 167.217 21.204H162.165C162.205 21.732 162.401 22.156 162.753 22.476C163.105 22.796 163.537 22.956 164.049 22.956C164.785 22.956 165.305 22.648 165.609 22.032H167.085C166.885 22.64 166.521 23.14 165.993 23.532C165.473 23.916 164.825 24.108 164.049 24.108C163.417 24.108 162.849 23.968 162.345 23.688C161.849 23.4 161.457 23 161.169 22.488C160.889 21.968 160.749 21.368 160.749 20.688C160.749 20.008 160.885 19.412 161.157 18.9C161.437 18.38 161.825 17.98 162.321 17.7C162.825 17.42 163.401 17.28 164.049 17.28C164.673 17.28 165.229 17.416 165.717 17.688C166.205 17.96 166.585 18.344 166.857 18.84C167.129 19.328 167.265 19.892 167.265 20.532ZM165.837 20.1C165.829 19.596 165.649 19.192 165.297 18.888C164.945 18.584 164.509 18.432 163.989 18.432C163.517 18.432 163.113 18.584 162.777 18.888C162.441 19.184 162.241 19.588 162.177 20.1H165.837Z"></path>
<rect fill="white" rx="2" height="5" width="7" y="12" x="11"></rect>
<rect fill="white" rx="2" height="5" width="7" y="12" x="19"></rect>
<rect fill="white" rx="2" height="5" width="7" y="18" x="22"></rect>
<path fill-opacity="0.5" fill="white" d="M14 19.75C14 18.7835 14.7835 18 15.75 18V18L16.9167 23H16C14.8954 23 14 22.1046 14 21V19.75Z"></path>
<path fill-opacity="0.5" fill="white" d="M17.5 18H19C20.1046 18 21 18.8954 21 20V21C21 22.1046 20.1046 23 19 23H18.6667L17.5 18Z"></path>
<rect fill="white" rx="2" height="4" width="4" y="24" x="13"></rect>
</svg>
