<svg width="300" height="40" viewBox="0 0 300 40" fill="none" xmlns="http://www.w3.org/2000/svg">
<rect width="300" height="40" rx="15" fill="black" fill-opacity="0.1"/>
<path d="M45.928 22.296H42.436L41.836 24H40.408L43.396 15.648H44.98L47.968 24H46.528L45.928 22.296ZM45.544 21.18L44.188 17.304L42.82 21.18H45.544ZM50.6352 15.12V24H49.2672V15.12H50.6352ZM51.9753 20.664C51.9753 20 52.1113 19.412 52.3833 18.9C52.6633 18.388 53.0393 17.992 53.5113 17.712C53.9913 17.424 54.5193 17.28 55.0953 17.28C55.6153 17.28 56.0673 17.384 56.4513 17.592C56.8433 17.792 57.1553 18.044 57.3873 18.348V17.388H58.7673V24H57.3873V23.016C57.1553 23.328 56.8393 23.588 56.4393 23.796C56.0393 24.004 55.5833 24.108 55.0713 24.108C54.5033 24.108 53.9833 23.964 53.5113 23.676C53.0393 23.38 52.6633 22.972 52.3833 22.452C52.1113 21.924 51.9753 21.328 51.9753 20.664ZM57.3873 20.688C57.3873 20.232 57.2913 19.836 57.0993 19.5C56.9153 19.164 56.6713 18.908 56.3673 18.732C56.0633 18.556 55.7353 18.468 55.3833 18.468C55.0313 18.468 54.7033 18.556 54.3993 18.732C54.0953 18.9 53.8473 19.152 53.6553 19.488C53.4713 19.816 53.3793 20.208 53.3793 20.664C53.3793 21.12 53.4713 21.52 53.6553 21.864C53.8473 22.208 54.0953 22.472 54.3993 22.656C54.7113 22.832 55.0393 22.92 55.3833 22.92C55.7353 22.92 56.0633 22.832 56.3673 22.656C56.6713 22.48 56.9153 22.224 57.0993 21.888C57.2913 21.544 57.3873 21.144 57.3873 20.688ZM61.9321 18.348C62.1321 18.012 62.3961 17.752 62.7241 17.568C63.0601 17.376 63.4561 17.28 63.9121 17.28V18.696H63.5641C63.0281 18.696 62.6201 18.832 62.3401 19.104C62.0681 19.376 61.9321 19.848 61.9321 20.52V24H60.5641V17.388H61.9321V18.348ZM73.1735 17.28C73.6935 17.28 74.1575 17.388 74.5655 17.604C74.9815 17.82 75.3055 18.14 75.5375 18.564C75.7775 18.988 75.8975 19.5 75.8975 20.1V24H74.5415V20.304C74.5415 19.712 74.3935 19.26 74.0975 18.948C73.8015 18.628 73.3975 18.468 72.8855 18.468C72.3735 18.468 71.9655 18.628 71.6615 18.948C71.3655 19.26 71.2175 19.712 71.2175 20.304V24H69.8615V20.304C69.8615 19.712 69.7135 19.26 69.4175 18.948C69.1215 18.628 68.7175 18.468 68.2055 18.468C67.6935 18.468 67.2855 18.628 66.9815 18.948C66.6855 19.26 66.5375 19.712 66.5375 20.304V24H65.1695V17.388H66.5375V18.144C66.7615 17.872 67.0455 17.66 67.3895 17.508C67.7335 17.356 68.1015 17.28 68.4935 17.28C69.0215 17.28 69.4935 17.392 69.9095 17.616C70.3255 17.84 70.6455 18.164 70.8695 18.588C71.0695 18.188 71.3815 17.872 71.8055 17.64C72.2295 17.4 72.6855 17.28 73.1735 17.28ZM87.1995 24L86.1675 22.968C85.7675 23.368 85.3315 23.668 84.8595 23.868C84.3875 24.06 83.8595 24.156 83.2755 24.156C82.6835 24.156 82.1595 24.052 81.7035 23.844C81.2475 23.636 80.8955 23.34 80.6475 22.956C80.3995 22.564 80.2755 22.112 80.2755 21.6C80.2755 21.024 80.4395 20.512 80.7675 20.064C81.0955 19.608 81.5835 19.248 82.2315 18.984C81.9995 18.704 81.8355 18.444 81.7395 18.204C81.6435 17.956 81.5955 17.684 81.5955 17.388C81.5955 17.02 81.6875 16.692 81.8715 16.404C82.0635 16.116 82.3355 15.888 82.6875 15.72C83.0395 15.552 83.4475 15.468 83.9115 15.468C84.3835 15.468 84.7835 15.56 85.1115 15.744C85.4475 15.92 85.6955 16.164 85.8555 16.476C86.0235 16.788 86.0915 17.136 86.0595 17.52H84.6915C84.6995 17.224 84.6275 16.996 84.4755 16.836C84.3235 16.668 84.1155 16.584 83.8515 16.584C83.5875 16.584 83.3715 16.664 83.2035 16.824C83.0435 16.976 82.9635 17.164 82.9635 17.388C82.9635 17.604 83.0235 17.82 83.1435 18.036C83.2715 18.244 83.4915 18.516 83.8035 18.852L86.0115 21.048L86.8635 19.644H88.3395L87.2595 21.492L86.9595 21.984L88.9875 24H87.1995ZM83.2755 22.992C84.0275 22.992 84.6915 22.684 85.2675 22.068L83.0595 19.848C82.1155 20.224 81.6435 20.792 81.6435 21.552C81.6435 21.96 81.7955 22.304 82.0995 22.584C82.4035 22.856 82.7955 22.992 83.2755 22.992ZM92.5456 19.812C92.5456 18.996 92.7336 18.264 93.1096 17.616C93.4936 16.968 94.0096 16.464 94.6576 16.104C95.3136 15.736 96.0296 15.552 96.8056 15.552C97.6936 15.552 98.4816 15.772 99.1696 16.212C99.8656 16.644 100.37 17.26 100.682 18.06H99.0376C98.8216 17.62 98.5216 17.292 98.1376 17.076C97.7536 16.86 97.3096 16.752 96.8056 16.752C96.2536 16.752 95.7616 16.876 95.3296 17.124C94.8976 17.372 94.5576 17.728 94.3096 18.192C94.0696 18.656 93.9496 19.196 93.9496 19.812C93.9496 20.428 94.0696 20.968 94.3096 21.432C94.5576 21.896 94.8976 22.256 95.3296 22.512C95.7616 22.76 96.2536 22.884 96.8056 22.884C97.3096 22.884 97.7536 22.776 98.1376 22.56C98.5216 22.344 98.8216 22.016 99.0376 21.576H100.682C100.37 22.376 99.8656 22.992 99.1696 23.424C98.4816 23.856 97.6936 24.072 96.8056 24.072C96.0216 24.072 95.3056 23.892 94.6576 23.532C94.0096 23.164 93.4936 22.656 93.1096 22.008C92.7336 21.36 92.5456 20.628 92.5456 19.812ZM103.651 15.12V24H102.283V15.12H103.651ZM108.315 24.108C107.691 24.108 107.127 23.968 106.623 23.688C106.119 23.4 105.723 23 105.435 22.488C105.147 21.968 105.003 21.368 105.003 20.688C105.003 20.016 105.151 19.42 105.447 18.9C105.743 18.38 106.147 17.98 106.659 17.7C107.171 17.42 107.743 17.28 108.375 17.28C109.007 17.28 109.579 17.42 110.091 17.7C110.603 17.98 111.007 18.38 111.303 18.9C111.599 19.42 111.747 20.016 111.747 20.688C111.747 21.36 111.595 21.956 111.291 22.476C110.987 22.996 110.571 23.4 110.043 23.688C109.523 23.968 108.947 24.108 108.315 24.108ZM108.315 22.92C108.667 22.92 108.995 22.836 109.299 22.668C109.611 22.5 109.863 22.248 110.055 21.912C110.247 21.576 110.343 21.168 110.343 20.688C110.343 20.208 110.251 19.804 110.067 19.476C109.883 19.14 109.639 18.888 109.335 18.72C109.031 18.552 108.703 18.468 108.351 18.468C107.999 18.468 107.671 18.552 107.367 18.72C107.071 18.888 106.835 19.14 106.659 19.476C106.483 19.804 106.395 20.208 106.395 20.688C106.395 21.4 106.575 21.952 106.935 22.344C107.303 22.728 107.763 22.92 108.315 22.92ZM112.643 20.688C112.643 20.008 112.779 19.412 113.051 18.9C113.331 18.38 113.715 17.98 114.203 17.7C114.691 17.42 115.251 17.28 115.883 17.28C116.683 17.28 117.343 17.472 117.863 17.856C118.391 18.232 118.747 18.772 118.931 19.476H117.455C117.335 19.148 117.143 18.892 116.879 18.708C116.615 18.524 116.283 18.432 115.883 18.432C115.323 18.432 114.875 18.632 114.539 19.032C114.211 19.424 114.047 19.976 114.047 20.688C114.047 21.4 114.211 21.956 114.539 22.356C114.875 22.756 115.323 22.956 115.883 22.956C116.675 22.956 117.199 22.608 117.455 21.912H118.931C118.739 22.584 118.379 23.12 117.851 23.52C117.323 23.912 116.667 24.108 115.883 24.108C115.251 24.108 114.691 23.968 114.203 23.688C113.715 23.4 113.331 23 113.051 22.488C112.779 21.968 112.643 21.368 112.643 20.688ZM122.911 20.7L125.959 24H124.111L121.663 21.156V24H120.295V15.12H121.663V20.28L124.063 17.388H125.959L122.911 20.7ZM131.916 21.564C131.628 21.564 131.364 21.496 131.124 21.36C130.892 21.216 130.704 21.028 130.56 20.796C130.424 20.556 130.356 20.292 130.356 20.004C130.356 19.564 130.508 19.192 130.812 18.888C131.116 18.584 131.484 18.432 131.916 18.432C132.364 18.432 132.74 18.584 133.044 18.888C133.348 19.192 133.5 19.564 133.5 20.004C133.5 20.444 133.348 20.816 133.044 21.12C132.74 21.416 132.364 21.564 131.916 21.564ZM143.744 22.296H140.252L139.652 24H138.224L141.212 15.648H142.796L145.784 24H144.344L143.744 22.296ZM143.36 21.18L142.004 17.304L140.636 21.18H143.36ZM148.452 18.36C148.684 18.056 149 17.8 149.4 17.592C149.8 17.384 150.252 17.28 150.756 17.28C151.332 17.28 151.856 17.424 152.328 17.712C152.808 17.992 153.184 18.388 153.456 18.9C153.728 19.412 153.864 20 153.864 20.664C153.864 21.328 153.728 21.924 153.456 22.452C153.184 22.972 152.808 23.38 152.328 23.676C151.856 23.964 151.332 24.108 150.756 24.108C150.252 24.108 149.804 24.008 149.412 23.808C149.02 23.6 148.7 23.344 148.452 23.04V27.144H147.084V17.388H148.452V18.36ZM152.472 20.664C152.472 20.208 152.376 19.816 152.184 19.488C152 19.152 151.752 18.9 151.44 18.732C151.136 18.556 150.808 18.468 150.456 18.468C150.112 18.468 149.784 18.556 149.472 18.732C149.168 18.908 148.92 19.164 148.728 19.5C148.544 19.836 148.452 20.232 148.452 20.688C148.452 21.144 148.544 21.544 148.728 21.888C148.92 22.224 149.168 22.48 149.472 22.656C149.784 22.832 150.112 22.92 150.456 22.92C150.808 22.92 151.136 22.832 151.44 22.656C151.752 22.472 152 22.208 152.184 21.864C152.376 21.52 152.472 21.12 152.472 20.664ZM156.584 18.36C156.816 18.056 157.132 17.8 157.532 17.592C157.932 17.384 158.384 17.28 158.888 17.28C159.464 17.28 159.988 17.424 160.46 17.712C160.94 17.992 161.316 18.388 161.588 18.9C161.86 19.412 161.996 20 161.996 20.664C161.996 21.328 161.86 21.924 161.588 22.452C161.316 22.972 160.94 23.38 160.46 23.676C159.988 23.964 159.464 24.108 158.888 24.108C158.384 24.108 157.936 24.008 157.544 23.808C157.152 23.6 156.832 23.344 156.584 23.04V27.144H155.216V17.388H156.584V18.36ZM160.604 20.664C160.604 20.208 160.508 19.816 160.316 19.488C160.132 19.152 159.884 18.9 159.572 18.732C159.268 18.556 158.94 18.468 158.588 18.468C158.244 18.468 157.916 18.556 157.604 18.732C157.3 18.908 157.052 19.164 156.86 19.5C156.676 19.836 156.584 20.232 156.584 20.688C156.584 21.144 156.676 21.544 156.86 21.888C157.052 22.224 157.3 22.48 157.604 22.656C157.916 22.832 158.244 22.92 158.588 22.92C158.94 22.92 159.268 22.832 159.572 22.656C159.884 22.472 160.132 22.208 160.316 21.864C160.508 21.52 160.604 21.12 160.604 20.664Z" fill="black"/>
<circle cx="20" cy="20" r="7" stroke="black" stroke-width="2"/>
<rect x="19" y="15" width="2" height="6" rx="1" fill="black"/>
<rect x="18.5857" y="22.8286" width="2" height="4" rx="1" transform="rotate(-135 18.5857 22.8286)" fill="black"/>
</svg>
