<svg width="450" height="360" viewBox="0 0 450 360" fill="none" xmlns="http://www.w3.org/2000/svg">
<rect width="450" height="40" rx="15" fill="white" fill-opacity="0.1"/>
<path d="M20.444 19.812C20.444 18.996 20.632 18.264 21.008 17.616C21.392 16.968 21.908 16.464 22.556 16.104C23.212 15.736 23.928 15.552 24.704 15.552C25.592 15.552 26.38 15.772 27.068 16.212C27.764 16.644 28.268 17.26 28.58 18.06H26.936C26.72 17.62 26.42 17.292 26.036 17.076C25.652 16.86 25.208 16.752 24.704 16.752C24.152 16.752 23.66 16.876 23.228 17.124C22.796 17.372 22.456 17.728 22.208 18.192C21.968 18.656 21.848 19.196 21.848 19.812C21.848 20.428 21.968 20.968 22.208 21.432C22.456 21.896 22.796 22.256 23.228 22.512C23.66 22.76 24.152 22.884 24.704 22.884C25.208 22.884 25.652 22.776 26.036 22.56C26.42 22.344 26.72 22.016 26.936 21.576H28.58C28.268 22.376 27.764 22.992 27.068 23.424C26.38 23.856 25.592 24.072 24.704 24.072C23.92 24.072 23.204 23.892 22.556 23.532C21.908 23.164 21.392 22.656 21.008 22.008C20.632 21.36 20.444 20.628 20.444 19.812ZM29.7253 20.664C29.7253 20 29.8613 19.412 30.1333 18.9C30.4133 18.388 30.7893 17.992 31.2613 17.712C31.7413 17.424 32.2693 17.28 32.8453 17.28C33.3653 17.28 33.8173 17.384 34.2013 17.592C34.5933 17.792 34.9053 18.044 35.1373 18.348V17.388H36.5173V24H35.1373V23.016C34.9053 23.328 34.5893 23.588 34.1893 23.796C33.7893 24.004 33.3333 24.108 32.8213 24.108C32.2533 24.108 31.7333 23.964 31.2613 23.676C30.7893 23.38 30.4133 22.972 30.1333 22.452C29.8613 21.924 29.7253 21.328 29.7253 20.664ZM35.1373 20.688C35.1373 20.232 35.0413 19.836 34.8493 19.5C34.6653 19.164 34.4213 18.908 34.1173 18.732C33.8133 18.556 33.4853 18.468 33.1333 18.468C32.7813 18.468 32.4533 18.556 32.1493 18.732C31.8453 18.9 31.5973 19.152 31.4053 19.488C31.2213 19.816 31.1293 20.208 31.1293 20.664C31.1293 21.12 31.2213 21.52 31.4053 21.864C31.5973 22.208 31.8453 22.472 32.1493 22.656C32.4613 22.832 32.7893 22.92 33.1333 22.92C33.4853 22.92 33.8133 22.832 34.1173 22.656C34.4213 22.48 34.6653 22.224 34.8493 21.888C35.0413 21.544 35.1373 21.144 35.1373 20.688ZM41.6501 17.28C42.1701 17.28 42.6341 17.388 43.0421 17.604C43.4581 17.82 43.7821 18.14 44.0141 18.564C44.2461 18.988 44.3621 19.5 44.3621 20.1V24H43.0061V20.304C43.0061 19.712 42.8581 19.26 42.5621 18.948C42.2661 18.628 41.8621 18.468 41.3501 18.468C40.8381 18.468 40.4301 18.628 40.1261 18.948C39.8301 19.26 39.6821 19.712 39.6821 20.304V24H38.3141V17.388H39.6821V18.144C39.9061 17.872 40.1901 17.66 40.5341 17.508C40.8861 17.356 41.2581 17.28 41.6501 17.28ZM55.4042 15.66L52.6442 20.976V24H51.2762V20.976L48.5042 15.66H50.0282L51.9602 19.752L53.8922 15.66H55.4042ZM59.3578 24.108C58.7338 24.108 58.1698 23.968 57.6658 23.688C57.1618 23.4 56.7658 23 56.4778 22.488C56.1898 21.968 56.0458 21.368 56.0458 20.688C56.0458 20.016 56.1938 19.42 56.4898 18.9C56.7858 18.38 57.1898 17.98 57.7018 17.7C58.2138 17.42 58.7858 17.28 59.4178 17.28C60.0498 17.28 60.6218 17.42 61.1338 17.7C61.6458 17.98 62.0498 18.38 62.3458 18.9C62.6418 19.42 62.7898 20.016 62.7898 20.688C62.7898 21.36 62.6378 21.956 62.3338 22.476C62.0298 22.996 61.6138 23.4 61.0858 23.688C60.5658 23.968 59.9898 24.108 59.3578 24.108ZM59.3578 22.92C59.7098 22.92 60.0378 22.836 60.3418 22.668C60.6538 22.5 60.9058 22.248 61.0978 21.912C61.2898 21.576 61.3858 21.168 61.3858 20.688C61.3858 20.208 61.2938 19.804 61.1098 19.476C60.9258 19.14 60.6818 18.888 60.3778 18.72C60.0738 18.552 59.7458 18.468 59.3938 18.468C59.0418 18.468 58.7138 18.552 58.4098 18.72C58.1138 18.888 57.8778 19.14 57.7018 19.476C57.5258 19.804 57.4378 20.208 57.4378 20.688C57.4378 21.4 57.6178 21.952 57.9778 22.344C58.3458 22.728 58.8058 22.92 59.3578 22.92ZM70.1302 17.388V24H68.7622V23.22C68.5462 23.492 68.2622 23.708 67.9102 23.868C67.5662 24.02 67.1982 24.096 66.8062 24.096C66.2862 24.096 65.8182 23.988 65.4022 23.772C64.9942 23.556 64.6702 23.236 64.4302 22.812C64.1982 22.388 64.0822 21.876 64.0822 21.276V17.388H65.4382V21.072C65.4382 21.664 65.5862 22.12 65.8822 22.44C66.1782 22.752 66.5822 22.908 67.0942 22.908C67.6062 22.908 68.0102 22.752 68.3062 22.44C68.6102 22.12 68.7622 21.664 68.7622 21.072V17.388H70.1302ZM79.9603 15.66V16.776H76.4203V19.236H79.1803V20.352H76.4203V24H75.0523V15.66H79.9603ZM87.2881 20.532C87.2881 20.78 87.2721 21.004 87.2401 21.204H82.1881C82.2281 21.732 82.4241 22.156 82.7761 22.476C83.1281 22.796 83.5601 22.956 84.0721 22.956C84.8081 22.956 85.3281 22.648 85.6321 22.032H87.1081C86.9081 22.64 86.5441 23.14 86.0161 23.532C85.4961 23.916 84.8481 24.108 84.0721 24.108C83.4401 24.108 82.8721 23.968 82.3681 23.688C81.8721 23.4 81.4801 23 81.1921 22.488C80.9121 21.968 80.7721 21.368 80.7721 20.688C80.7721 20.008 80.9081 19.412 81.1801 18.9C81.4601 18.38 81.8481 17.98 82.3441 17.7C82.8481 17.42 83.4241 17.28 84.0721 17.28C84.6961 17.28 85.2521 17.416 85.7401 17.688C86.2281 17.96 86.6081 18.344 86.8801 18.84C87.1521 19.328 87.2881 19.892 87.2881 20.532ZM85.8601 20.1C85.8521 19.596 85.6721 19.192 85.3201 18.888C84.9681 18.584 84.5321 18.432 84.0121 18.432C83.5401 18.432 83.1361 18.584 82.8001 18.888C82.4641 19.184 82.2641 19.588 82.2001 20.1H85.8601ZM94.6944 20.532C94.6944 20.78 94.6784 21.004 94.6464 21.204H89.5944C89.6344 21.732 89.8304 22.156 90.1824 22.476C90.5344 22.796 90.9664 22.956 91.4784 22.956C92.2144 22.956 92.7344 22.648 93.0384 22.032H94.5144C94.3144 22.64 93.9504 23.14 93.4224 23.532C92.9024 23.916 92.2544 24.108 91.4784 24.108C90.8464 24.108 90.2784 23.968 89.7744 23.688C89.2784 23.4 88.8864 23 88.5984 22.488C88.3184 21.968 88.1784 21.368 88.1784 20.688C88.1784 20.008 88.3144 19.412 88.5864 18.9C88.8664 18.38 89.2544 17.98 89.7504 17.7C90.2544 17.42 90.8304 17.28 91.4784 17.28C92.1024 17.28 92.6584 17.416 93.1464 17.688C93.6344 17.96 94.0144 18.344 94.2864 18.84C94.5584 19.328 94.6944 19.892 94.6944 20.532ZM93.2664 20.1C93.2584 19.596 93.0784 19.192 92.7264 18.888C92.3744 18.584 91.9384 18.432 91.4184 18.432C90.9464 18.432 90.5424 18.584 90.2064 18.888C89.8704 19.184 89.6704 19.588 89.6064 20.1H93.2664ZM97.4086 15.12V24H96.0406V15.12H97.4086ZM111.106 15.66V24H109.738V18.288L107.194 24H106.246L103.69 18.288V24H102.322V15.66H103.798L106.726 22.2L109.642 15.66H111.106ZM118.964 20.532C118.964 20.78 118.948 21.004 118.916 21.204H113.864C113.904 21.732 114.1 22.156 114.452 22.476C114.804 22.796 115.236 22.956 115.748 22.956C116.484 22.956 117.004 22.648 117.308 22.032H118.784C118.584 22.64 118.22 23.14 117.692 23.532C117.172 23.916 116.524 24.108 115.748 24.108C115.116 24.108 114.548 23.968 114.044 23.688C113.548 23.4 113.156 23 112.868 22.488C112.588 21.968 112.448 21.368 112.448 20.688C112.448 20.008 112.584 19.412 112.856 18.9C113.136 18.38 113.524 17.98 114.02 17.7C114.524 17.42 115.1 17.28 115.748 17.28C116.372 17.28 116.928 17.416 117.416 17.688C117.904 17.96 118.284 18.344 118.556 18.84C118.828 19.328 118.964 19.892 118.964 20.532ZM117.536 20.1C117.528 19.596 117.348 19.192 116.996 18.888C116.644 18.584 116.208 18.432 115.688 18.432C115.216 18.432 114.812 18.584 114.476 18.888C114.14 19.184 113.94 19.588 113.876 20.1H117.536Z" fill="white"/>
<path d="M239.8 17.05L237.74 24H236.45L234.99 18.74L233.44 24L232.16 24.01L230.19 17.05H231.4L232.84 22.71L234.4 17.05H235.68L237.13 22.68L238.58 17.05H239.8ZM243.13 24.09C242.61 24.09 242.14 23.9733 241.72 23.74C241.3 23.5 240.97 23.1667 240.73 22.74C240.49 22.3067 240.37 21.8067 240.37 21.24C240.37 20.68 240.494 20.1833 240.74 19.75C240.987 19.3167 241.324 18.9833 241.75 18.75C242.177 18.5167 242.654 18.4 243.18 18.4C243.707 18.4 244.184 18.5167 244.61 18.75C245.037 18.9833 245.374 19.3167 245.62 19.75C245.867 20.1833 245.99 20.68 245.99 21.24C245.99 21.8 245.864 22.2967 245.61 22.73C245.357 23.1633 245.01 23.5 244.57 23.74C244.137 23.9733 243.657 24.09 243.13 24.09ZM243.13 23.1C243.424 23.1 243.697 23.03 243.95 22.89C244.21 22.75 244.42 22.54 244.58 22.26C244.74 21.98 244.82 21.64 244.82 21.24C244.82 20.84 244.744 20.5033 244.59 20.23C244.437 19.95 244.234 19.74 243.98 19.6C243.727 19.46 243.454 19.39 243.16 19.39C242.867 19.39 242.594 19.46 242.34 19.6C242.094 19.74 241.897 19.95 241.75 20.23C241.604 20.5033 241.53 20.84 241.53 21.24C241.53 21.8333 241.68 22.2933 241.98 22.62C242.287 22.94 242.67 23.1 243.13 23.1ZM249.897 18.4C250.331 18.4 250.717 18.49 251.057 18.67C251.404 18.85 251.674 19.1167 251.867 19.47C252.061 19.8233 252.157 20.25 252.157 20.75V24H251.027V20.92C251.027 20.4267 250.904 20.05 250.657 19.79C250.411 19.5233 250.074 19.39 249.647 19.39C249.221 19.39 248.881 19.5233 248.627 19.79C248.381 20.05 248.257 20.4267 248.257 20.92V24H247.117V18.49H248.257V19.12C248.444 18.8933 248.681 18.7167 248.967 18.59C249.261 18.4633 249.571 18.4 249.897 18.4ZM254.941 19.42V22.47C254.941 22.6767 254.988 22.8267 255.081 22.92C255.181 23.0067 255.348 23.05 255.581 23.05H256.281V24H255.381C254.868 24 254.475 23.88 254.201 23.64C253.928 23.4 253.791 23.01 253.791 22.47V19.42H253.141V18.49H253.791V17.12H254.941V18.49H256.281V19.42H254.941ZM259.722 24.09C259.202 24.09 258.732 23.9733 258.312 23.74C257.892 23.5 257.562 23.1667 257.322 22.74C257.082 22.3067 256.962 21.8067 256.962 21.24C256.962 20.68 257.085 20.1833 257.332 19.75C257.579 19.3167 257.915 18.9833 258.342 18.75C258.769 18.5167 259.245 18.4 259.772 18.4C260.299 18.4 260.775 18.5167 261.202 18.75C261.629 18.9833 261.965 19.3167 262.212 19.75C262.459 20.1833 262.582 20.68 262.582 21.24C262.582 21.8 262.455 22.2967 262.202 22.73C261.949 23.1633 261.602 23.5 261.162 23.74C260.729 23.9733 260.249 24.09 259.722 24.09ZM259.722 23.1C260.015 23.1 260.289 23.03 260.542 22.89C260.802 22.75 261.012 22.54 261.172 22.26C261.332 21.98 261.412 21.64 261.412 21.24C261.412 20.84 261.335 20.5033 261.182 20.23C261.029 19.95 260.825 19.74 260.572 19.6C260.319 19.46 260.045 19.39 259.752 19.39C259.459 19.39 259.185 19.46 258.932 19.6C258.685 19.74 258.489 19.95 258.342 20.23C258.195 20.5033 258.122 20.84 258.122 21.24C258.122 21.8333 258.272 22.2933 258.572 22.62C258.879 22.94 259.262 23.1 259.722 23.1ZM264.849 16.6V24H263.709V16.6H264.849ZM267.486 16.6V24H266.346V16.6H267.486ZM268.602 21.22C268.602 20.6667 268.716 20.1767 268.942 19.75C269.176 19.3233 269.489 18.9933 269.882 18.76C270.282 18.52 270.722 18.4 271.202 18.4C271.636 18.4 272.012 18.4867 272.332 18.66C272.659 18.8267 272.919 19.0367 273.112 19.29V18.49H274.262V24H273.112V23.18C272.919 23.44 272.656 23.6567 272.322 23.83C271.989 24.0033 271.609 24.09 271.182 24.09C270.709 24.09 270.276 23.97 269.882 23.73C269.489 23.4833 269.176 23.1433 268.942 22.71C268.716 22.27 268.602 21.7733 268.602 21.22ZM273.112 21.24C273.112 20.86 273.032 20.53 272.872 20.25C272.719 19.97 272.516 19.7567 272.262 19.61C272.009 19.4633 271.736 19.39 271.442 19.39C271.149 19.39 270.876 19.4633 270.622 19.61C270.369 19.75 270.162 19.96 270.002 20.24C269.849 20.5133 269.772 20.84 269.772 21.22C269.772 21.6 269.849 21.9333 270.002 22.22C270.162 22.5067 270.369 22.7267 270.622 22.88C270.882 23.0267 271.156 23.1 271.442 23.1C271.736 23.1 272.009 23.0267 272.262 22.88C272.516 22.7333 272.719 22.52 272.872 22.24C273.032 21.9533 273.112 21.62 273.112 21.24Z" fill="#808080"/>
<path d="M409.181 22.48V21.62L412.541 16.8H413.921V21.49H414.851V22.48H413.921V24H412.801V22.48H409.181ZM412.851 17.96L410.491 21.49H412.851V17.96ZM416.405 24.07C416.199 24.07 416.025 24 415.885 23.86C415.745 23.72 415.675 23.5467 415.675 23.34C415.675 23.1333 415.745 22.96 415.885 22.82C416.025 22.68 416.199 22.61 416.405 22.61C416.605 22.61 416.775 22.68 416.915 22.82C417.055 22.96 417.125 23.1333 417.125 23.34C417.125 23.5467 417.055 23.72 416.915 23.86C416.775 24 416.605 24.07 416.405 24.07ZM416.405 19.87C416.199 19.87 416.025 19.8 415.885 19.66C415.745 19.52 415.675 19.3467 415.675 19.14C415.675 18.9333 415.745 18.76 415.885 18.62C416.025 18.48 416.199 18.41 416.405 18.41C416.605 18.41 416.775 18.48 416.915 18.62C417.055 18.76 417.125 18.9333 417.125 19.14C417.125 19.3467 417.055 19.52 416.915 19.66C416.775 19.8 416.605 19.87 416.405 19.87ZM418.226 18.51C418.266 17.89 418.503 17.4067 418.936 17.06C419.376 16.7133 419.936 16.54 420.616 16.54C421.083 16.54 421.486 16.6233 421.826 16.79C422.166 16.9567 422.423 17.1833 422.596 17.47C422.77 17.7567 422.856 18.08 422.856 18.44C422.856 18.8533 422.746 19.2067 422.526 19.5C422.306 19.7933 422.043 19.99 421.736 20.09V20.13C422.13 20.25 422.436 20.47 422.656 20.79C422.876 21.1033 422.986 21.5067 422.986 22C422.986 22.3933 422.896 22.7433 422.716 23.05C422.536 23.3567 422.27 23.6 421.916 23.78C421.563 23.9533 421.14 24.04 420.646 24.04C419.926 24.04 419.333 23.8567 418.866 23.49C418.406 23.1167 418.16 22.5833 418.126 21.89H419.226C419.253 22.2433 419.39 22.5333 419.636 22.76C419.883 22.98 420.216 23.09 420.636 23.09C421.043 23.09 421.356 22.98 421.576 22.76C421.796 22.5333 421.906 22.2433 421.906 21.89C421.906 21.4233 421.756 21.0933 421.456 20.9C421.163 20.7 420.71 20.6 420.096 20.6H419.836V19.66H420.106C420.646 19.6533 421.056 19.5633 421.336 19.39C421.623 19.2167 421.766 18.9433 421.766 18.57C421.766 18.25 421.663 17.9967 421.456 17.81C421.25 17.6167 420.956 17.52 420.576 17.52C420.203 17.52 419.913 17.6167 419.706 17.81C419.5 17.9967 419.376 18.23 419.336 18.51H418.226ZM428.104 18.4C428.031 18.0933 427.897 17.8633 427.704 17.71C427.511 17.5567 427.241 17.48 426.894 17.48C426.367 17.48 425.974 17.6833 425.714 18.09C425.454 18.49 425.317 19.1567 425.304 20.09C425.477 19.7967 425.731 19.57 426.064 19.41C426.397 19.25 426.757 19.17 427.144 19.17C427.584 19.17 427.971 19.2667 428.304 19.46C428.644 19.6467 428.907 19.92 429.094 20.28C429.287 20.64 429.384 21.07 429.384 21.57C429.384 22.0367 429.291 22.4533 429.104 22.82C428.924 23.1867 428.654 23.4767 428.294 23.69C427.934 23.8967 427.501 24 426.994 24C426.307 24 425.767 23.85 425.374 23.55C424.987 23.2433 424.714 22.8133 424.554 22.26C424.401 21.7067 424.324 21.0167 424.324 20.19C424.324 17.75 425.184 16.53 426.904 16.53C427.571 16.53 428.094 16.71 428.474 17.07C428.861 17.43 429.087 17.8733 429.154 18.4H428.104ZM426.894 20.13C426.487 20.13 426.141 20.2533 425.854 20.5C425.574 20.74 425.434 21.09 425.434 21.55C425.434 22.01 425.564 22.3767 425.824 22.65C426.091 22.9167 426.461 23.05 426.934 23.05C427.354 23.05 427.684 22.92 427.924 22.66C428.171 22.4 428.294 22.0533 428.294 21.62C428.294 21.1667 428.174 20.8067 427.934 20.54C427.701 20.2667 427.354 20.13 426.894 20.13Z" fill="#808080"/>
</svg>
