<svg xmlns="http://www.w3.org/2000/svg" fill="none" viewBox="0 0 480 360" height="360" width="480">
<rect fill="black" height="40" width="96" y="320" x="161"></rect>
<rect fill="black" height="40" width="96" y="320" x="267"></rect>
<rect fill="black" height="40" width="96" y="320" x="373"></rect>
<path fill="white" d="M207.442 336.5V335.252H209.938V344H208.558V336.5H207.442Z"></path>
<path fill="white" d="M313.013 342.14C313.781 341.476 314.385 340.932 314.825 340.508C315.273 340.076 315.645 339.628 315.941 339.164C316.237 338.7 316.385 338.236 316.385 337.772C316.385 337.292 316.269 336.916 316.037 336.644C315.813 336.372 315.457 336.236 314.969 336.236C314.497 336.236 314.129 336.388 313.865 336.692C313.609 336.988 313.473 337.388 313.457 337.892H312.137C312.161 336.98 312.433 336.284 312.953 335.804C313.481 335.316 314.149 335.072 314.957 335.072C315.829 335.072 316.509 335.312 316.997 335.792C317.493 336.272 317.741 336.912 317.741 337.712C317.741 338.288 317.593 338.844 317.297 339.38C317.009 339.908 316.661 340.384 316.253 340.808C315.853 341.224 315.341 341.708 314.717 342.26L314.177 342.74H317.981V343.88H312.149V342.884L313.013 342.14Z"></path>
<path fill="white" d="M418.134 337.412C418.182 336.668 418.466 336.088 418.986 335.672C419.514 335.256 420.186 335.048 421.002 335.048C421.562 335.048 422.046 335.148 422.454 335.348C422.862 335.548 423.17 335.82 423.378 336.164C423.586 336.508 423.69 336.896 423.69 337.328C423.69 337.824 423.558 338.248 423.294 338.6C423.03 338.952 422.714 339.188 422.346 339.308V339.356C422.818 339.5 423.186 339.764 423.45 340.148C423.714 340.524 423.846 341.008 423.846 341.6C423.846 342.072 423.738 342.492 423.522 342.86C423.306 343.228 422.986 343.52 422.562 343.736C422.138 343.944 421.63 344.048 421.038 344.048C420.174 344.048 419.462 343.828 418.902 343.388C418.35 342.94 418.054 342.3 418.014 341.468H419.334C419.366 341.892 419.53 342.24 419.826 342.512C420.122 342.776 420.522 342.908 421.026 342.908C421.514 342.908 421.89 342.776 422.154 342.512C422.418 342.24 422.55 341.892 422.55 341.468C422.55 340.908 422.37 340.512 422.01 340.28C421.658 340.04 421.114 339.92 420.378 339.92H420.066V338.792H420.39C421.038 338.784 421.53 338.676 421.866 338.468C422.21 338.26 422.382 337.932 422.382 337.484C422.382 337.1 422.258 336.796 422.01 336.572C421.762 336.34 421.41 336.224 420.954 336.224C420.506 336.224 420.158 336.34 419.91 336.572C419.662 336.796 419.514 337.076 419.466 337.412H418.134Z"></path>
</svg>
