<svg width="250" height="28" viewBox="0 0 250 28" fill="none" xmlns="http://www.w3.org/2000/svg">
<rect width="250" height="28" rx="5" fill="#1B1B1B"/>
<path d="M13.59 12.4C14.2767 12.4 14.8233 12.5933 15.23 12.98C15.6433 13.3667 15.85 13.8867 15.85 14.54C15.85 14.6933 15.8333 14.8767 15.8 15.09C15.7733 15.2367 15.7267 15.4167 15.66 15.63H11.45C11.4433 15.6767 11.44 15.7467 11.44 15.84C11.44 16.2333 11.56 16.5467 11.8 16.78C12.0467 17.0133 12.3667 17.13 12.76 17.13C13.38 17.13 13.8567 16.8733 14.19 16.36H15.42C15.1667 16.8667 14.7933 17.2833 14.3 17.61C13.8067 17.93 13.2367 18.09 12.59 18.09C12.13 18.09 11.7267 18 11.38 17.82C11.0333 17.64 10.7633 17.3833 10.57 17.05C10.3767 16.71 10.28 16.3133 10.28 15.86C10.28 15.6667 10.3 15.46 10.34 15.24C10.44 14.6733 10.6433 14.1767 10.95 13.75C11.2567 13.3167 11.6367 12.9833 12.09 12.75C12.55 12.5167 13.05 12.4 13.59 12.4ZM14.66 14.81C14.6733 14.69 14.68 14.6033 14.68 14.55C14.68 14.1833 14.5567 13.8933 14.31 13.68C14.07 13.4667 13.7567 13.36 13.37 13.36C12.9633 13.36 12.5967 13.49 12.27 13.75C11.9433 14.01 11.72 14.3633 11.6 14.81H14.66ZM19.2619 15.2L20.5419 18H19.2519L18.3919 16.13L16.9419 18H15.7519L18.0119 15.29L16.7219 12.49H18.0119L18.8719 14.36L20.3219 12.49H21.5119L19.2619 15.2ZM21.5021 15.22C21.6021 14.6667 21.8021 14.1767 22.1021 13.75C22.4088 13.3233 22.7821 12.9933 23.2221 12.76C23.6621 12.52 24.1221 12.4 24.6021 12.4C25.0354 12.4 25.3988 12.4867 25.6921 12.66C25.9854 12.8267 26.2054 13.0367 26.3521 13.29L26.4921 12.49H27.6421L26.6721 18H25.5221L25.6721 17.18C25.4321 17.44 25.1288 17.6567 24.7621 17.83C24.4021 18.0033 24.0088 18.09 23.5821 18.09C23.1688 18.09 22.7988 17.9967 22.4721 17.81C22.1521 17.6233 21.8988 17.36 21.7121 17.02C21.5321 16.6733 21.4421 16.2767 21.4421 15.83C21.4421 15.63 21.4621 15.4267 21.5021 15.22ZM26.0121 15.24C26.0388 15.1133 26.0521 14.9767 26.0521 14.83C26.0521 14.3833 25.9188 14.0333 25.6521 13.78C25.3921 13.52 25.0654 13.39 24.6721 13.39C24.3788 13.39 24.0921 13.4633 23.8121 13.61C23.5321 13.75 23.2888 13.96 23.0821 14.24C22.8754 14.5133 22.7388 14.84 22.6721 15.22C22.6454 15.3467 22.6321 15.4833 22.6321 15.63C22.6321 16.0833 22.7621 16.4433 23.0221 16.71C23.2888 16.97 23.6188 17.1 24.0121 17.1C24.3054 17.1 24.5921 17.0267 24.8721 16.88C25.1521 16.7333 25.3954 16.52 25.6021 16.24C25.8088 15.9533 25.9454 15.62 26.0121 15.24ZM35.8295 12.4C36.4095 12.4 36.8728 12.5567 37.2195 12.87C37.5661 13.1833 37.7395 13.6267 37.7395 14.2C37.7395 14.3533 37.7228 14.5367 37.6895 14.75L37.1095 18H35.9795L36.5295 14.92C36.5561 14.7333 36.5695 14.6 36.5695 14.52C36.5695 14.1533 36.4661 13.8733 36.2595 13.68C36.0595 13.4867 35.7795 13.39 35.4195 13.39C34.9861 13.39 34.6195 13.5233 34.3195 13.79C34.0261 14.05 33.8395 14.4267 33.7595 14.92L33.2095 18H32.0795L32.6295 14.92C32.6561 14.7333 32.6695 14.6 32.6695 14.52C32.6695 14.1533 32.5661 13.8733 32.3595 13.68C32.1595 13.4867 31.8795 13.39 31.5195 13.39C31.0861 13.39 30.7195 13.5233 30.4195 13.79C30.1261 14.05 29.9395 14.4267 29.8595 14.92V14.89L29.3095 18H28.1695L29.1395 12.49H30.2795L30.1695 13.13C30.3895 12.9033 30.6528 12.7267 30.9595 12.6C31.2728 12.4667 31.5961 12.4 31.9295 12.4C32.3695 12.4 32.7461 12.4933 33.0595 12.68C33.3795 12.8667 33.6028 13.1367 33.7295 13.49C33.9495 13.1567 34.2528 12.8933 34.6395 12.7C35.0261 12.5 35.4228 12.4 35.8295 12.4ZM40.5301 13.3C40.7701 13.0467 41.0701 12.8333 41.4301 12.66C41.7967 12.4867 42.1901 12.4 42.6101 12.4C43.0301 12.4 43.4034 12.49 43.7301 12.67C44.0567 12.85 44.3101 13.1067 44.4901 13.44C44.6701 13.7733 44.7601 14.1633 44.7601 14.61C44.7601 14.8033 44.7401 15.0067 44.7001 15.22C44.6001 15.7733 44.3967 16.27 44.0901 16.71C43.7901 17.1433 43.4201 17.4833 42.9801 17.73C42.5467 17.97 42.0901 18.09 41.6101 18.09C41.1901 18.09 40.8301 18.0067 40.5301 17.84C40.2367 17.6667 40.0067 17.4533 39.8401 17.2L39.2401 20.62H38.1001L39.5301 12.49H40.6701L40.5301 13.3ZM43.5401 15.22C43.5667 15.0933 43.5801 14.9567 43.5801 14.81C43.5801 14.3633 43.4467 14.0167 43.1801 13.77C42.9201 13.5167 42.5901 13.39 42.1901 13.39C41.9034 13.39 41.6167 13.4633 41.3301 13.61C41.0501 13.7567 40.8067 13.97 40.6001 14.25C40.3934 14.53 40.2567 14.86 40.1901 15.24C40.1634 15.3667 40.1501 15.5033 40.1501 15.65C40.1501 16.0967 40.2801 16.45 40.5401 16.71C40.8067 16.97 41.1367 17.1 41.5301 17.1C41.8234 17.1 42.1101 17.0267 42.3901 16.88C42.6767 16.7267 42.9234 16.5067 43.1301 16.22C43.3367 15.9333 43.4734 15.6 43.5401 15.22ZM47.7874 10.6L46.4774 18H45.3374L46.6474 10.6H47.7874ZM51.3341 12.4C52.0208 12.4 52.5675 12.5933 52.9741 12.98C53.3875 13.3667 53.5941 13.8867 53.5941 14.54C53.5941 14.6933 53.5775 14.8767 53.5441 15.09C53.5175 15.2367 53.4708 15.4167 53.4041 15.63H49.1941C49.1875 15.6767 49.1841 15.7467 49.1841 15.84C49.1841 16.2333 49.3041 16.5467 49.5441 16.78C49.7908 17.0133 50.1108 17.13 50.5041 17.13C51.1241 17.13 51.6008 16.8733 51.9341 16.36H53.1641C52.9108 16.8667 52.5375 17.2833 52.0441 17.61C51.5508 17.93 50.9808 18.09 50.3341 18.09C49.8741 18.09 49.4708 18 49.1241 17.82C48.7775 17.64 48.5075 17.3833 48.3141 17.05C48.1208 16.71 48.0241 16.3133 48.0241 15.86C48.0241 15.6667 48.0441 15.46 48.0841 15.24C48.1841 14.6733 48.3875 14.1767 48.6941 13.75C49.0008 13.3167 49.3808 12.9833 49.8341 12.75C50.2941 12.5167 50.7941 12.4 51.3341 12.4ZM52.4041 14.81C52.4175 14.69 52.4241 14.6033 52.4241 14.55C52.4241 14.1833 52.3008 13.8933 52.0541 13.68C51.8141 13.4667 51.5008 13.36 51.1141 13.36C50.7075 13.36 50.3408 13.49 50.0141 13.75C49.6875 14.01 49.4641 14.3633 49.3441 14.81H52.4041ZM59.0541 15.97C58.7341 15.97 58.4707 15.87 58.2641 15.67C58.0641 15.47 57.9641 15.2167 57.9641 14.91C57.9641 14.63 58.0374 14.3733 58.1841 14.14C58.3307 13.9 58.5241 13.71 58.7641 13.57C59.0041 13.43 59.2541 13.36 59.5141 13.36C59.8407 13.36 60.1074 13.46 60.3141 13.66C60.5207 13.86 60.6241 14.1167 60.6241 14.43C60.6241 14.7033 60.5507 14.96 60.4041 15.2C60.2574 15.4333 60.0607 15.62 59.8141 15.76C59.5741 15.9 59.3207 15.97 59.0541 15.97ZM67.1712 18.09C66.7046 18.09 66.2946 17.9933 65.9413 17.8C65.5879 17.6067 65.3113 17.3333 65.1113 16.98C64.9179 16.6267 64.8213 16.2233 64.8213 15.77C64.8213 15.15 64.9646 14.5833 65.2513 14.07C65.5446 13.5567 65.9446 13.15 66.4513 12.85C66.9646 12.55 67.5346 12.4 68.1613 12.4C68.6279 12.4 69.0413 12.5 69.4013 12.7C69.7613 12.8933 70.0413 13.1667 70.2413 13.52C70.4479 13.8667 70.5513 14.27 70.5513 14.73C70.5513 15.35 70.4013 15.9167 70.1013 16.43C69.8013 16.9433 69.3946 17.35 68.8813 17.65C68.3679 17.9433 67.7979 18.09 67.1712 18.09ZM67.3113 17.13C67.6913 17.13 68.0379 17.0233 68.3513 16.81C68.6713 16.59 68.9213 16.3033 69.1013 15.95C69.2813 15.59 69.3713 15.2067 69.3713 14.8C69.3713 14.34 69.2413 13.9867 68.9813 13.74C68.7213 13.4867 68.3946 13.36 68.0013 13.36C67.6146 13.36 67.2679 13.47 66.9613 13.69C66.6613 13.9033 66.4246 14.1933 66.2513 14.56C66.0846 14.92 66.0012 15.3067 66.0012 15.72C66.0012 16.1667 66.1213 16.5133 66.3613 16.76C66.6079 17.0067 66.9246 17.13 67.3113 17.13ZM73.1082 13.3C73.3482 13.0467 73.6482 12.8333 74.0082 12.66C74.3749 12.4867 74.7682 12.4 75.1882 12.4C75.6082 12.4 75.9815 12.49 76.3082 12.67C76.6349 12.85 76.8882 13.1067 77.0682 13.44C77.2482 13.7733 77.3382 14.1633 77.3382 14.61C77.3382 14.8033 77.3182 15.0067 77.2782 15.22C77.1782 15.7733 76.9749 16.27 76.6682 16.71C76.3682 17.1433 75.9982 17.4833 75.5582 17.73C75.1249 17.97 74.6682 18.09 74.1882 18.09C73.7682 18.09 73.4082 18.0067 73.1082 17.84C72.8149 17.6667 72.5849 17.4533 72.4182 17.2L71.8182 20.62H70.6782L72.1082 12.49H73.2482L73.1082 13.3ZM76.1182 15.22C76.1449 15.0933 76.1582 14.9567 76.1582 14.81C76.1582 14.3633 76.0249 14.0167 75.7582 13.77C75.4982 13.5167 75.1682 13.39 74.7682 13.39C74.4815 13.39 74.1949 13.4633 73.9082 13.61C73.6282 13.7567 73.3849 13.97 73.1782 14.25C72.9715 14.53 72.8349 14.86 72.7682 15.24C72.7415 15.3667 72.7282 15.5033 72.7282 15.65C72.7282 16.0967 72.8582 16.45 73.1182 16.71C73.3849 16.97 73.7149 17.1 74.1082 17.1C74.4015 17.1 74.6882 17.0267 74.9682 16.88C75.2549 16.7267 75.5015 16.5067 75.7082 16.22C75.9149 15.9333 76.0515 15.6 76.1182 15.22ZM81.2755 12.4C81.9622 12.4 82.5089 12.5933 82.9155 12.98C83.3289 13.3667 83.5355 13.8867 83.5355 14.54C83.5355 14.6933 83.5189 14.8767 83.4855 15.09C83.4589 15.2367 83.4122 15.4167 83.3455 15.63H79.1355C79.1289 15.6767 79.1255 15.7467 79.1255 15.84C79.1255 16.2333 79.2455 16.5467 79.4855 16.78C79.7322 17.0133 80.0522 17.13 80.4455 17.13C81.0655 17.13 81.5422 16.8733 81.8755 16.36H83.1055C82.8522 16.8667 82.4789 17.2833 81.9855 17.61C81.4922 17.93 80.9222 18.09 80.2755 18.09C79.8155 18.09 79.4122 18 79.0655 17.82C78.7189 17.64 78.4489 17.3833 78.2555 17.05C78.0622 16.71 77.9655 16.3133 77.9655 15.86C77.9655 15.6667 77.9855 15.46 78.0255 15.24C78.1255 14.6733 78.3289 14.1767 78.6355 13.75C78.9422 13.3167 79.3222 12.9833 79.7755 12.75C80.2355 12.5167 80.7355 12.4 81.2755 12.4ZM82.3455 14.81C82.3589 14.69 82.3655 14.6033 82.3655 14.55C82.3655 14.1833 82.2422 13.8933 81.9955 13.68C81.7555 13.4667 81.4422 13.36 81.0555 13.36C80.6489 13.36 80.2822 13.49 79.9555 13.75C79.6289 14.01 79.4055 14.3633 79.2855 14.81H82.3455ZM87.8574 12.4C88.4374 12.4 88.8974 12.5567 89.2374 12.87C89.5841 13.1767 89.7574 13.62 89.7574 14.2C89.7574 14.3467 89.7408 14.53 89.7074 14.75L89.1274 18H87.9974L88.5474 14.92C88.5741 14.7333 88.5874 14.6 88.5874 14.52C88.5874 14.1533 88.4841 13.8733 88.2774 13.68C88.0774 13.4867 87.7974 13.39 87.4374 13.39C87.0041 13.39 86.6374 13.5233 86.3374 13.79C86.0441 14.05 85.8574 14.4267 85.7774 14.92V14.89L85.2274 18H84.0874L85.0574 12.49H86.1974L86.0874 13.13C86.3141 12.9033 86.5808 12.7267 86.8874 12.6C87.2008 12.4667 87.5241 12.4 87.8574 12.4ZM93.6896 15.22C93.7896 14.6667 93.9896 14.1767 94.2896 13.75C94.5963 13.3233 94.9696 12.9933 95.4096 12.76C95.8496 12.52 96.3129 12.4 96.7996 12.4C97.1596 12.4 97.4996 12.48 97.8196 12.64C98.1396 12.7933 98.3829 13 98.5496 13.26L99.0196 10.6H100.17L98.8596 18H97.7096L97.8596 17.17C97.6196 17.4433 97.3196 17.6667 96.9596 17.84C96.6063 18.0067 96.2163 18.09 95.7896 18.09C95.3696 18.09 94.9963 17.9967 94.6696 17.81C94.3429 17.6233 94.0863 17.36 93.8996 17.02C93.7196 16.6733 93.6296 16.2767 93.6296 15.83C93.6296 15.63 93.6496 15.4267 93.6896 15.22ZM98.1996 15.24C98.2263 15.1133 98.2396 14.9767 98.2396 14.83C98.2396 14.3833 98.1063 14.0333 97.8396 13.78C97.5796 13.52 97.2529 13.39 96.8596 13.39C96.5663 13.39 96.2796 13.4633 95.9996 13.61C95.7196 13.75 95.4763 13.96 95.2696 14.24C95.0629 14.5133 94.9263 14.84 94.8596 15.22C94.8329 15.3467 94.8196 15.4833 94.8196 15.63C94.8196 16.0833 94.9496 16.4433 95.2096 16.71C95.4763 16.97 95.8063 17.1 96.1996 17.1C96.4929 17.1 96.7796 17.0267 97.0596 16.88C97.3396 16.7333 97.5829 16.52 97.7896 16.24C97.9963 15.9533 98.1329 15.62 98.1996 15.24ZM102.767 18.09C102.3 18.09 101.89 17.9933 101.537 17.8C101.184 17.6067 100.907 17.3333 100.707 16.98C100.514 16.6267 100.417 16.2233 100.417 15.77C100.417 15.15 100.56 14.5833 100.847 14.07C101.14 13.5567 101.54 13.15 102.047 12.85C102.56 12.55 103.13 12.4 103.757 12.4C104.224 12.4 104.637 12.5 104.997 12.7C105.357 12.8933 105.637 13.1667 105.837 13.52C106.044 13.8667 106.147 14.27 106.147 14.73C106.147 15.35 105.997 15.9167 105.697 16.43C105.397 16.9433 104.99 17.35 104.477 17.65C103.964 17.9433 103.394 18.09 102.767 18.09ZM102.907 17.13C103.287 17.13 103.634 17.0233 103.947 16.81C104.267 16.59 104.517 16.3033 104.697 15.95C104.877 15.59 104.967 15.2067 104.967 14.8C104.967 14.34 104.837 13.9867 104.577 13.74C104.317 13.4867 103.99 13.36 103.597 13.36C103.21 13.36 102.864 13.47 102.557 13.69C102.257 13.9033 102.02 14.1933 101.847 14.56C101.68 14.92 101.597 15.3067 101.597 15.72C101.597 16.1667 101.717 16.5133 101.957 16.76C102.204 17.0067 102.52 17.13 102.907 17.13ZM106.844 15.24C106.944 14.6733 107.144 14.1767 107.444 13.75C107.751 13.3167 108.127 12.9833 108.574 12.75C109.027 12.5167 109.517 12.4 110.044 12.4C110.711 12.4 111.234 12.56 111.614 12.88C111.994 13.1933 112.211 13.6433 112.264 14.23H111.034C110.981 13.9567 110.857 13.7433 110.664 13.59C110.471 13.4367 110.207 13.36 109.874 13.36C109.407 13.36 109.007 13.5267 108.674 13.86C108.341 14.1867 108.121 14.6467 108.014 15.24C107.981 15.4533 107.964 15.6267 107.964 15.76C107.964 16.2 108.074 16.54 108.294 16.78C108.514 17.0133 108.821 17.13 109.214 17.13C109.874 17.13 110.361 16.84 110.674 16.26H111.904C111.644 16.82 111.264 17.2667 110.764 17.6C110.271 17.9267 109.697 18.09 109.044 18.09C108.351 18.09 107.801 17.8933 107.394 17.5C106.987 17.1 106.784 16.56 106.784 15.88C106.784 15.6733 106.804 15.46 106.844 15.24ZM118.69 12.49L117.72 18H116.58L116.69 17.35C116.47 17.5767 116.203 17.7567 115.89 17.89C115.583 18.0167 115.267 18.08 114.94 18.08C114.36 18.08 113.897 17.9233 113.55 17.61C113.203 17.2967 113.03 16.8533 113.03 16.28C113.03 16.1267 113.047 15.9433 113.08 15.73L113.65 12.49H114.78L114.24 15.56C114.213 15.7467 114.2 15.88 114.2 15.96C114.2 16.3267 114.3 16.6067 114.5 16.8C114.707 16.9933 114.99 17.09 115.35 17.09C115.77 17.09 116.127 16.9667 116.42 16.72C116.713 16.4667 116.907 16.1033 117 15.63L117.55 12.49H118.69ZM126.884 12.4C127.464 12.4 127.927 12.5567 128.274 12.87C128.621 13.1833 128.794 13.6267 128.794 14.2C128.794 14.3533 128.777 14.5367 128.744 14.75L128.164 18H127.034L127.584 14.92C127.611 14.7333 127.624 14.6 127.624 14.52C127.624 14.1533 127.521 13.8733 127.314 13.68C127.114 13.4867 126.834 13.39 126.474 13.39C126.041 13.39 125.674 13.5233 125.374 13.79C125.081 14.05 124.894 14.4267 124.814 14.92L124.264 18H123.134L123.684 14.92C123.711 14.7333 123.724 14.6 123.724 14.52C123.724 14.1533 123.621 13.8733 123.414 13.68C123.214 13.4867 122.934 13.39 122.574 13.39C122.141 13.39 121.774 13.5233 121.474 13.79C121.181 14.05 120.994 14.4267 120.914 14.92V14.89L120.364 18H119.224L120.194 12.49H121.334L121.224 13.13C121.444 12.9033 121.707 12.7267 122.014 12.6C122.327 12.4667 122.651 12.4 122.984 12.4C123.424 12.4 123.801 12.4933 124.114 12.68C124.434 12.8667 124.657 13.1367 124.784 13.49C125.004 13.1567 125.307 12.8933 125.694 12.7C126.081 12.5 126.477 12.4 126.884 12.4ZM132.975 12.4C133.661 12.4 134.208 12.5933 134.615 12.98C135.028 13.3667 135.235 13.8867 135.235 14.54C135.235 14.6933 135.218 14.8767 135.185 15.09C135.158 15.2367 135.111 15.4167 135.045 15.63H130.835C130.828 15.6767 130.825 15.7467 130.825 15.84C130.825 16.2333 130.945 16.5467 131.185 16.78C131.431 17.0133 131.751 17.13 132.145 17.13C132.765 17.13 133.241 16.8733 133.575 16.36H134.805C134.551 16.8667 134.178 17.2833 133.685 17.61C133.191 17.93 132.621 18.09 131.975 18.09C131.515 18.09 131.111 18 130.765 17.82C130.418 17.64 130.148 17.3833 129.955 17.05C129.761 16.71 129.665 16.3133 129.665 15.86C129.665 15.6667 129.685 15.46 129.725 15.24C129.825 14.6733 130.028 14.1767 130.335 13.75C130.641 13.3167 131.021 12.9833 131.475 12.75C131.935 12.5167 132.435 12.4 132.975 12.4ZM134.045 14.81C134.058 14.69 134.065 14.6033 134.065 14.55C134.065 14.1833 133.941 13.8933 133.695 13.68C133.455 13.4667 133.141 13.36 132.755 13.36C132.348 13.36 131.981 13.49 131.655 13.75C131.328 14.01 131.105 14.3633 130.985 14.81H134.045ZM139.557 12.4C140.137 12.4 140.597 12.5567 140.937 12.87C141.283 13.1767 141.457 13.62 141.457 14.2C141.457 14.3467 141.44 14.53 141.407 14.75L140.827 18H139.697L140.247 14.92C140.273 14.7333 140.287 14.6 140.287 14.52C140.287 14.1533 140.183 13.8733 139.977 13.68C139.777 13.4867 139.497 13.39 139.137 13.39C138.703 13.39 138.337 13.5233 138.037 13.79C137.743 14.05 137.557 14.4267 137.477 14.92V14.89L136.927 18H135.787L136.757 12.49H137.897L137.787 13.13C138.013 12.9033 138.28 12.7267 138.587 12.6C138.9 12.4667 139.223 12.4 139.557 12.4ZM143.881 16.47C143.867 16.5633 143.861 16.6233 143.861 16.65C143.861 16.79 143.904 16.8933 143.991 16.96C144.077 17.02 144.221 17.05 144.421 17.05H145.121L144.951 18H144.051C143.611 18 143.274 17.9133 143.041 17.74C142.807 17.56 142.691 17.2767 142.691 16.89C142.691 16.7433 142.704 16.6033 142.731 16.47L143.271 13.42H142.621L142.781 12.49H143.441L143.681 11.12H144.831L144.591 12.49H145.921L145.761 13.42H144.421L143.881 16.47ZM146.451 18.07C146.271 18.07 146.125 18.0133 146.011 17.9C145.898 17.7867 145.841 17.6433 145.841 17.47C145.841 17.2367 145.928 17.0367 146.101 16.87C146.281 16.6967 146.485 16.61 146.711 16.61C146.891 16.61 147.035 16.6667 147.141 16.78C147.255 16.8933 147.311 17.0367 147.311 17.21C147.311 17.4433 147.225 17.6467 147.051 17.82C146.878 17.9867 146.678 18.07 146.451 18.07ZM150.014 16.47C150 16.5633 149.994 16.6233 149.994 16.65C149.994 16.79 150.037 16.8933 150.124 16.96C150.21 17.02 150.354 17.05 150.554 17.05H151.254L151.084 18H150.184C149.744 18 149.407 17.9133 149.174 17.74C148.94 17.56 148.824 17.2767 148.824 16.89C148.824 16.7433 148.837 16.6033 148.864 16.47L149.404 13.42H148.754L148.914 12.49H149.574L149.814 11.12H150.964L150.724 12.49H152.054L151.894 13.42H150.554L150.014 16.47ZM154.994 15.2L156.274 18H154.984L154.124 16.13L152.674 18H151.484L153.744 15.29L152.454 12.49H153.744L154.604 14.36L156.054 12.49H157.244L154.994 15.2ZM158.725 16.47C158.711 16.5633 158.705 16.6233 158.705 16.65C158.705 16.79 158.748 16.8933 158.835 16.96C158.921 17.02 159.065 17.05 159.265 17.05H159.965L159.795 18H158.895C158.455 18 158.118 17.9133 157.885 17.74C157.651 17.56 157.535 17.2767 157.535 16.89C157.535 16.7433 157.548 16.6033 157.575 16.47L158.115 13.42H157.465L157.625 12.49H158.285L158.525 11.12H159.675L159.435 12.49H160.765L160.605 13.42H159.265L158.725 16.47Z" fill="white" fill-opacity="0.5"/>
</svg>
