<svg width="480" height="360" viewBox="0 0 480 360" fill="none" xmlns="http://www.w3.org/2000/svg">
<path d="M0 0H480V80C480 91.0457 471.046 100 460 100H20C8.95432 100 0 91.0457 0 80V0Z" fill="#E6E6E6" fill-opacity="0.75"/>
<path d="M237.864 31.112C237.117 31.112 236.445 30.984 235.848 30.728C235.251 30.4613 234.781 30.088 234.44 29.608C234.099 29.128 233.928 28.568 233.928 27.928H235.88C235.923 28.408 236.109 28.8027 236.44 29.112C236.781 29.4213 237.256 29.576 237.864 29.576C238.493 29.576 238.984 29.4267 239.336 29.128C239.688 28.8187 239.864 28.424 239.864 27.944C239.864 27.5707 239.752 27.2667 239.528 27.032C239.315 26.7973 239.043 26.616 238.712 26.488C238.392 26.36 237.944 26.2213 237.368 26.072C236.643 25.88 236.051 25.688 235.592 25.496C235.144 25.2933 234.76 24.984 234.44 24.568C234.12 24.152 233.96 23.5973 233.96 22.904C233.96 22.264 234.12 21.704 234.44 21.224C234.76 20.744 235.208 20.376 235.784 20.12C236.36 19.864 237.027 19.736 237.784 19.736C238.861 19.736 239.741 20.008 240.424 20.552C241.117 21.0853 241.501 21.8213 241.576 22.76H239.56C239.528 22.3547 239.336 22.008 238.984 21.72C238.632 21.432 238.168 21.288 237.592 21.288C237.069 21.288 236.643 21.4213 236.312 21.688C235.981 21.9547 235.816 22.3387 235.816 22.84C235.816 23.1813 235.917 23.464 236.12 23.688C236.333 23.9013 236.6 24.072 236.92 24.2C237.24 24.328 237.677 24.4667 238.232 24.616C238.968 24.8187 239.565 25.0213 240.024 25.224C240.493 25.4267 240.888 25.7413 241.208 26.168C241.539 26.584 241.704 27.144 241.704 27.848C241.704 28.4133 241.549 28.9467 241.24 29.448C240.941 29.9493 240.499 30.3547 239.912 30.664C239.336 30.9627 238.653 31.112 237.864 31.112ZM245.984 23.672V28.552C245.984 28.8827 246.059 29.1227 246.208 29.272C246.368 29.4107 246.635 29.48 247.008 29.48H248.128V31H246.688C245.867 31 245.238 30.808 244.8 30.424C244.363 30.04 244.144 29.416 244.144 28.552V23.672H243.104V22.184H244.144V19.992H245.984V22.184H248.128V23.672H245.984ZM253.633 31.144C252.801 31.144 252.049 30.9573 251.377 30.584C250.705 30.2 250.177 29.6667 249.793 28.984C249.409 28.2907 249.217 27.4907 249.217 26.584C249.217 25.688 249.415 24.8933 249.809 24.2C250.204 23.5067 250.743 22.9733 251.425 22.6C252.108 22.2267 252.871 22.04 253.713 22.04C254.556 22.04 255.319 22.2267 256.001 22.6C256.684 22.9733 257.223 23.5067 257.617 24.2C258.012 24.8933 258.209 25.688 258.209 26.584C258.209 27.48 258.007 28.2747 257.601 28.968C257.196 29.6613 256.641 30.2 255.937 30.584C255.244 30.9573 254.476 31.144 253.633 31.144ZM253.633 29.56C254.103 29.56 254.54 29.448 254.945 29.224C255.361 29 255.697 28.664 255.953 28.216C256.209 27.768 256.337 27.224 256.337 26.584C256.337 25.944 256.215 25.4053 255.969 24.968C255.724 24.52 255.399 24.184 254.993 23.96C254.588 23.736 254.151 23.624 253.681 23.624C253.212 23.624 252.775 23.736 252.369 23.96C251.975 24.184 251.66 24.52 251.425 24.968C251.191 25.4053 251.073 25.944 251.073 26.584C251.073 27.5333 251.313 28.2693 251.793 28.792C252.284 29.304 252.897 29.56 253.633 29.56ZM261.837 23.464C262.103 23.016 262.455 22.6693 262.893 22.424C263.341 22.168 263.869 22.04 264.477 22.04V23.928H264.013C263.298 23.928 262.754 24.1093 262.381 24.472C262.018 24.8347 261.837 25.464 261.837 26.36V31H260.013V22.184H261.837V23.464ZM274.233 26.376C274.233 26.7067 274.212 27.0053 274.169 27.272H267.433C267.486 27.976 267.748 28.5413 268.217 28.968C268.686 29.3947 269.262 29.608 269.945 29.608C270.926 29.608 271.62 29.1973 272.025 28.376H273.993C273.726 29.1867 273.241 29.8533 272.537 30.376C271.844 30.888 270.98 31.144 269.945 31.144C269.102 31.144 268.345 30.9573 267.673 30.584C267.012 30.2 266.489 29.6667 266.105 28.984C265.732 28.2907 265.545 27.4907 265.545 26.584C265.545 25.6773 265.726 24.8827 266.089 24.2C266.462 23.5067 266.98 22.9733 267.641 22.6C268.313 22.2267 269.081 22.04 269.945 22.04C270.777 22.04 271.518 22.2213 272.169 22.584C272.82 22.9467 273.326 23.4587 273.689 24.12C274.052 24.7707 274.233 25.5227 274.233 26.376ZM272.329 25.8C272.318 25.128 272.078 24.5893 271.609 24.184C271.14 23.7787 270.558 23.576 269.865 23.576C269.236 23.576 268.697 23.7787 268.249 24.184C267.801 24.5787 267.534 25.1173 267.449 25.8H272.329Z" fill="black"/>
<rect x="202" y="17" width="2" height="12" rx="1" fill="black"/>
<rect x="197.343" y="24" width="2" height="8" rx="1" transform="rotate(-45 197.343 24)" fill="black"/>
<rect x="207.243" y="22.5858" width="2" height="8" rx="1" transform="rotate(45 207.243 22.5858)" fill="black"/>
<path d="M209 29V30C209 31.1046 208.105 32 207 32L199 32C197.895 32 197 31.1046 197 30L197 29" stroke="black" stroke-width="2" stroke-linecap="round"/>
<path d="M85.2892 65.66V70.976C85.2892 71.608 85.4532 72.084 85.7812 72.404C86.1172 72.724 86.5812 72.884 87.1732 72.884C87.7732 72.884 88.2372 72.724 88.5652 72.404C88.9012 72.084 89.0692 71.608 89.0692 70.976V65.66H90.4372V70.952C90.4372 71.632 90.2892 72.208 89.9932 72.68C89.6972 73.152 89.3012 73.504 88.8052 73.736C88.3092 73.968 87.7612 74.084 87.1612 74.084C86.5612 74.084 86.0132 73.968 85.5172 73.736C85.0292 73.504 84.6412 73.152 84.3532 72.68C84.0652 72.208 83.9212 71.632 83.9212 70.952V65.66H85.2892ZM95.5544 67.28C96.0744 67.28 96.5384 67.388 96.9464 67.604C97.3624 67.82 97.6864 68.14 97.9184 68.564C98.1504 68.988 98.2664 69.5 98.2664 70.1V74H96.9104V70.304C96.9104 69.712 96.7624 69.26 96.4664 68.948C96.1704 68.628 95.7664 68.468 95.2544 68.468C94.7424 68.468 94.3344 68.628 94.0304 68.948C93.7344 69.26 93.5864 69.712 93.5864 70.304V74H92.2184V67.388H93.5864V68.144C93.8104 67.872 94.0944 67.66 94.4384 67.508C94.7904 67.356 95.1624 67.28 95.5544 67.28ZM99.5553 70.664C99.5553 70 99.6913 69.412 99.9633 68.9C100.243 68.388 100.619 67.992 101.091 67.712C101.571 67.424 102.099 67.28 102.675 67.28C103.195 67.28 103.647 67.384 104.031 67.592C104.423 67.792 104.735 68.044 104.967 68.348V67.388H106.347V74H104.967V73.016C104.735 73.328 104.419 73.588 104.019 73.796C103.619 74.004 103.163 74.108 102.651 74.108C102.083 74.108 101.563 73.964 101.091 73.676C100.619 73.38 100.243 72.972 99.9633 72.452C99.6913 71.924 99.5553 71.328 99.5553 70.664ZM104.967 70.688C104.967 70.232 104.871 69.836 104.679 69.5C104.495 69.164 104.251 68.908 103.947 68.732C103.643 68.556 103.315 68.468 102.963 68.468C102.611 68.468 102.283 68.556 101.979 68.732C101.675 68.9 101.427 69.152 101.235 69.488C101.051 69.816 100.959 70.208 100.959 70.664C100.959 71.12 101.051 71.52 101.235 71.864C101.427 72.208 101.675 72.472 101.979 72.656C102.291 72.832 102.619 72.92 102.963 72.92C103.315 72.92 103.643 72.832 103.947 72.656C104.251 72.48 104.495 72.224 104.679 71.888C104.871 71.544 104.967 71.144 104.967 70.688ZM109.512 68.372C109.744 68.052 110.06 67.792 110.46 67.592C110.868 67.384 111.32 67.28 111.816 67.28C112.4 67.28 112.928 67.42 113.4 67.7C113.872 67.98 114.244 68.38 114.516 68.9C114.788 69.412 114.924 70 114.924 70.664C114.924 71.328 114.788 71.924 114.516 72.452C114.244 72.972 113.868 73.38 113.388 73.676C112.916 73.964 112.392 74.108 111.816 74.108C111.304 74.108 110.848 74.008 110.448 73.808C110.056 73.608 109.744 73.352 109.512 73.04V74H108.144V65.12H109.512V68.372ZM113.532 70.664C113.532 70.208 113.436 69.816 113.244 69.488C113.06 69.152 112.812 68.9 112.5 68.732C112.196 68.556 111.868 68.468 111.516 68.468C111.172 68.468 110.844 68.556 110.532 68.732C110.228 68.908 109.98 69.164 109.788 69.5C109.604 69.836 109.512 70.232 109.512 70.688C109.512 71.144 109.604 71.544 109.788 71.888C109.98 72.224 110.228 72.48 110.532 72.656C110.844 72.832 111.172 72.92 111.516 72.92C111.868 72.92 112.196 72.832 112.5 72.656C112.812 72.472 113.06 72.208 113.244 71.864C113.436 71.52 113.532 71.12 113.532 70.664ZM117.645 65.12V74H116.277V65.12H117.645ZM125.501 70.532C125.501 70.78 125.485 71.004 125.453 71.204H120.401C120.441 71.732 120.637 72.156 120.989 72.476C121.341 72.796 121.773 72.956 122.285 72.956C123.021 72.956 123.541 72.648 123.845 72.032H125.321C125.121 72.64 124.757 73.14 124.229 73.532C123.709 73.916 123.061 74.108 122.285 74.108C121.653 74.108 121.085 73.968 120.581 73.688C120.085 73.4 119.693 73 119.405 72.488C119.125 71.968 118.985 71.368 118.985 70.688C118.985 70.008 119.121 69.412 119.393 68.9C119.673 68.38 120.061 67.98 120.557 67.7C121.061 67.42 121.637 67.28 122.285 67.28C122.909 67.28 123.465 67.416 123.953 67.688C124.441 67.96 124.821 68.344 125.093 68.84C125.365 69.328 125.501 69.892 125.501 70.532ZM124.073 70.1C124.065 69.596 123.885 69.192 123.533 68.888C123.181 68.584 122.745 68.432 122.225 68.432C121.753 68.432 121.349 68.584 121.013 68.888C120.677 69.184 120.477 69.588 120.413 70.1H124.073ZM131.56 68.504V72.164C131.56 72.412 131.616 72.592 131.728 72.704C131.848 72.808 132.048 72.86 132.328 72.86H133.168V74H132.088C131.472 74 131 73.856 130.672 73.568C130.344 73.28 130.18 72.812 130.18 72.164V68.504H129.4V67.388H130.18V65.744H131.56V67.388H133.168V68.504H131.56ZM137.297 74.108C136.673 74.108 136.109 73.968 135.605 73.688C135.101 73.4 134.705 73 134.417 72.488C134.129 71.968 133.985 71.368 133.985 70.688C133.985 70.016 134.133 69.42 134.429 68.9C134.725 68.38 135.129 67.98 135.641 67.7C136.153 67.42 136.725 67.28 137.357 67.28C137.989 67.28 138.561 67.42 139.073 67.7C139.585 67.98 139.989 68.38 140.285 68.9C140.581 69.42 140.729 70.016 140.729 70.688C140.729 71.36 140.577 71.956 140.273 72.476C139.969 72.996 139.553 73.4 139.025 73.688C138.505 73.968 137.929 74.108 137.297 74.108ZM137.297 72.92C137.649 72.92 137.977 72.836 138.281 72.668C138.593 72.5 138.845 72.248 139.037 71.912C139.229 71.576 139.325 71.168 139.325 70.688C139.325 70.208 139.233 69.804 139.049 69.476C138.865 69.14 138.621 68.888 138.317 68.72C138.013 68.552 137.685 68.468 137.333 68.468C136.981 68.468 136.653 68.552 136.349 68.72C136.053 68.888 135.817 69.14 135.641 69.476C135.465 69.804 135.377 70.208 135.377 70.688C135.377 71.4 135.557 71.952 135.917 72.344C136.285 72.728 136.745 72.92 137.297 72.92ZM144.743 70.664C144.743 70 144.879 69.412 145.151 68.9C145.431 68.388 145.807 67.992 146.279 67.712C146.759 67.424 147.287 67.28 147.863 67.28C148.383 67.28 148.835 67.384 149.219 67.592C149.611 67.792 149.923 68.044 150.155 68.348V67.388H151.535V74H150.155V73.016C149.923 73.328 149.607 73.588 149.207 73.796C148.807 74.004 148.351 74.108 147.839 74.108C147.271 74.108 146.751 73.964 146.279 73.676C145.807 73.38 145.431 72.972 145.151 72.452C144.879 71.924 144.743 71.328 144.743 70.664ZM150.155 70.688C150.155 70.232 150.059 69.836 149.867 69.5C149.683 69.164 149.439 68.908 149.135 68.732C148.831 68.556 148.503 68.468 148.151 68.468C147.799 68.468 147.471 68.556 147.167 68.732C146.863 68.9 146.615 69.152 146.423 69.488C146.239 69.816 146.147 70.208 146.147 70.664C146.147 71.12 146.239 71.52 146.423 71.864C146.615 72.208 146.863 72.472 147.167 72.656C147.479 72.832 147.807 72.92 148.151 72.92C148.503 72.92 148.831 72.832 149.135 72.656C149.439 72.48 149.683 72.224 149.867 71.888C150.059 71.544 150.155 71.144 150.155 70.688ZM152.876 70.664C152.876 70 153.012 69.412 153.284 68.9C153.564 68.388 153.94 67.992 154.412 67.712C154.892 67.424 155.424 67.28 156.008 67.28C156.44 67.28 156.864 67.376 157.28 67.568C157.704 67.752 158.04 68 158.288 68.312V65.12H159.668V74H158.288V73.004C158.064 73.324 157.752 73.588 157.352 73.796C156.96 74.004 156.508 74.108 155.996 74.108C155.42 74.108 154.892 73.964 154.412 73.676C153.94 73.38 153.564 72.972 153.284 72.452C153.012 71.924 152.876 71.328 152.876 70.664ZM158.288 70.688C158.288 70.232 158.192 69.836 158 69.5C157.816 69.164 157.572 68.908 157.268 68.732C156.964 68.556 156.636 68.468 156.284 68.468C155.932 68.468 155.604 68.556 155.3 68.732C154.996 68.9 154.748 69.152 154.556 69.488C154.372 69.816 154.28 70.208 154.28 70.664C154.28 71.12 154.372 71.52 154.556 71.864C154.748 72.208 154.996 72.472 155.3 72.656C155.612 72.832 155.94 72.92 156.284 72.92C156.636 72.92 156.964 72.832 157.268 72.656C157.572 72.48 157.816 72.224 158 71.888C158.192 71.544 158.288 71.144 158.288 70.688ZM161.008 70.664C161.008 70 161.144 69.412 161.416 68.9C161.696 68.388 162.072 67.992 162.544 67.712C163.024 67.424 163.556 67.28 164.14 67.28C164.572 67.28 164.996 67.376 165.412 67.568C165.836 67.752 166.172 68 166.42 68.312V65.12H167.8V74H166.42V73.004C166.196 73.324 165.884 73.588 165.484 73.796C165.092 74.004 164.64 74.108 164.128 74.108C163.552 74.108 163.024 73.964 162.544 73.676C162.072 73.38 161.696 72.972 161.416 72.452C161.144 71.924 161.008 71.328 161.008 70.664ZM166.42 70.688C166.42 70.232 166.324 69.836 166.132 69.5C165.948 69.164 165.704 68.908 165.4 68.732C165.096 68.556 164.768 68.468 164.416 68.468C164.064 68.468 163.736 68.556 163.432 68.732C163.128 68.9 162.88 69.152 162.688 69.488C162.504 69.816 162.412 70.208 162.412 70.664C162.412 71.12 162.504 71.52 162.688 71.864C162.88 72.208 163.128 72.472 163.432 72.656C163.744 72.832 164.072 72.92 164.416 72.92C164.768 72.92 165.096 72.832 165.4 72.656C165.704 72.48 165.948 72.224 166.132 71.888C166.324 71.544 166.42 71.144 166.42 70.688ZM174.31 68.504V72.164C174.31 72.412 174.366 72.592 174.478 72.704C174.598 72.808 174.798 72.86 175.078 72.86H175.918V74H174.838C174.222 74 173.75 73.856 173.422 73.568C173.094 73.28 172.93 72.812 172.93 72.164V68.504H172.15V67.388H172.93V65.744H174.31V67.388H175.918V68.504H174.31ZM180.599 67.28C181.103 67.28 181.551 67.388 181.943 67.604C182.343 67.82 182.655 68.14 182.879 68.564C183.111 68.988 183.227 69.5 183.227 70.1V74H181.871V70.304C181.871 69.712 181.723 69.26 181.427 68.948C181.131 68.628 180.727 68.468 180.215 68.468C179.703 68.468 179.295 68.628 178.991 68.948C178.695 69.26 178.547 69.712 178.547 70.304V74H177.179V65.12H178.547V68.156C178.779 67.876 179.071 67.66 179.423 67.508C179.783 67.356 180.175 67.28 180.599 67.28ZM191.032 70.532C191.032 70.78 191.016 71.004 190.984 71.204H185.932C185.972 71.732 186.168 72.156 186.52 72.476C186.872 72.796 187.304 72.956 187.816 72.956C188.552 72.956 189.072 72.648 189.376 72.032H190.852C190.652 72.64 190.288 73.14 189.76 73.532C189.24 73.916 188.592 74.108 187.816 74.108C187.184 74.108 186.616 73.968 186.112 73.688C185.616 73.4 185.224 73 184.936 72.488C184.656 71.968 184.516 71.368 184.516 70.688C184.516 70.008 184.652 69.412 184.924 68.9C185.204 68.38 185.592 67.98 186.088 67.7C186.592 67.42 187.168 67.28 187.816 67.28C188.44 67.28 188.996 67.416 189.484 67.688C189.972 67.96 190.352 68.344 190.624 68.84C190.896 69.328 191.032 69.892 191.032 70.532ZM189.604 70.1C189.596 69.596 189.416 69.192 189.064 68.888C188.712 68.584 188.276 68.432 187.756 68.432C187.284 68.432 186.88 68.584 186.544 68.888C186.208 69.184 186.008 69.588 185.944 70.1H189.604ZM203.5 67.28C204.02 67.28 204.484 67.388 204.892 67.604C205.308 67.82 205.632 68.14 205.864 68.564C206.104 68.988 206.224 69.5 206.224 70.1V74H204.868V70.304C204.868 69.712 204.72 69.26 204.424 68.948C204.128 68.628 203.724 68.468 203.212 68.468C202.7 68.468 202.292 68.628 201.988 68.948C201.692 69.26 201.544 69.712 201.544 70.304V74H200.188V70.304C200.188 69.712 200.04 69.26 199.744 68.948C199.448 68.628 199.044 68.468 198.532 68.468C198.02 68.468 197.612 68.628 197.308 68.948C197.012 69.26 196.864 69.712 196.864 70.304V74H195.496V67.388H196.864V68.144C197.088 67.872 197.372 67.66 197.716 67.508C198.06 67.356 198.428 67.28 198.82 67.28C199.348 67.28 199.82 67.392 200.236 67.616C200.652 67.84 200.972 68.164 201.196 68.588C201.396 68.188 201.708 67.872 202.132 67.64C202.556 67.4 203.012 67.28 203.5 67.28ZM213.952 67.388V74H212.584V73.22C212.368 73.492 212.084 73.708 211.732 73.868C211.388 74.02 211.02 74.096 210.628 74.096C210.108 74.096 209.64 73.988 209.224 73.772C208.816 73.556 208.492 73.236 208.252 72.812C208.02 72.388 207.904 71.876 207.904 71.276V67.388H209.26V71.072C209.26 71.664 209.408 72.12 209.704 72.44C210 72.752 210.404 72.908 210.916 72.908C211.428 72.908 211.832 72.752 212.128 72.44C212.432 72.12 212.584 71.664 212.584 71.072V67.388H213.952ZM218.157 74.108C217.637 74.108 217.169 74.016 216.753 73.832C216.345 73.64 216.021 73.384 215.781 73.064C215.541 72.736 215.413 72.372 215.397 71.972H216.813C216.837 72.252 216.969 72.488 217.209 72.68C217.457 72.864 217.765 72.956 218.133 72.956C218.517 72.956 218.813 72.884 219.021 72.74C219.237 72.588 219.345 72.396 219.345 72.164C219.345 71.916 219.225 71.732 218.985 71.612C218.753 71.492 218.381 71.36 217.869 71.216C217.373 71.08 216.969 70.948 216.657 70.82C216.345 70.692 216.073 70.496 215.841 70.232C215.617 69.968 215.505 69.62 215.505 69.188C215.505 68.836 215.609 68.516 215.817 68.228C216.025 67.932 216.321 67.7 216.705 67.532C217.097 67.364 217.545 67.28 218.049 67.28C218.801 67.28 219.405 67.472 219.861 67.856C220.325 68.232 220.573 68.748 220.605 69.404H219.237C219.213 69.108 219.093 68.872 218.877 68.696C218.661 68.52 218.369 68.432 218.001 68.432C217.641 68.432 217.365 68.5 217.173 68.636C216.981 68.772 216.885 68.952 216.885 69.176C216.885 69.352 216.949 69.5 217.077 69.62C217.205 69.74 217.361 69.836 217.545 69.908C217.729 69.972 218.001 70.056 218.361 70.16C218.841 70.288 219.233 70.42 219.537 70.556C219.849 70.684 220.117 70.876 220.341 71.132C220.565 71.388 220.681 71.728 220.689 72.152C220.689 72.528 220.585 72.864 220.377 73.16C220.169 73.456 219.873 73.688 219.489 73.856C219.113 74.024 218.669 74.108 218.157 74.108ZM222.864 66.512C222.616 66.512 222.408 66.428 222.24 66.26C222.072 66.092 221.988 65.884 221.988 65.636C221.988 65.388 222.072 65.18 222.24 65.012C222.408 64.844 222.616 64.76 222.864 64.76C223.104 64.76 223.308 64.844 223.476 65.012C223.644 65.18 223.728 65.388 223.728 65.636C223.728 65.884 223.644 66.092 223.476 66.26C223.308 66.428 223.104 66.512 222.864 66.512ZM223.536 67.388V74H222.168V67.388H223.536ZM224.876 70.688C224.876 70.008 225.012 69.412 225.284 68.9C225.564 68.38 225.948 67.98 226.436 67.7C226.924 67.42 227.484 67.28 228.116 67.28C228.916 67.28 229.576 67.472 230.096 67.856C230.624 68.232 230.98 68.772 231.164 69.476H229.688C229.568 69.148 229.376 68.892 229.112 68.708C228.848 68.524 228.516 68.432 228.116 68.432C227.556 68.432 227.108 68.632 226.772 69.032C226.444 69.424 226.28 69.976 226.28 70.688C226.28 71.4 226.444 71.956 226.772 72.356C227.108 72.756 227.556 72.956 228.116 72.956C228.908 72.956 229.432 72.608 229.688 71.912H231.164C230.972 72.584 230.612 73.12 230.084 73.52C229.556 73.912 228.9 74.108 228.116 74.108C227.484 74.108 226.924 73.968 226.436 73.688C225.948 73.4 225.564 73 225.284 72.488C225.012 71.968 224.876 71.368 224.876 70.688ZM234.027 72.356L232.575 75.668H231.687L232.539 72.356H234.027ZM239.035 66.512C238.787 66.512 238.579 66.428 238.411 66.26C238.243 66.092 238.159 65.884 238.159 65.636C238.159 65.388 238.243 65.18 238.411 65.012C238.579 64.844 238.787 64.76 239.035 64.76C239.275 64.76 239.479 64.844 239.647 65.012C239.815 65.18 239.899 65.388 239.899 65.636C239.899 65.884 239.815 66.092 239.647 66.26C239.479 66.428 239.275 66.512 239.035 66.512ZM239.707 67.388V74H238.339V67.388H239.707ZM244.84 67.28C245.36 67.28 245.824 67.388 246.232 67.604C246.648 67.82 246.972 68.14 247.204 68.564C247.436 68.988 247.552 69.5 247.552 70.1V74H246.196V70.304C246.196 69.712 246.048 69.26 245.752 68.948C245.456 68.628 245.052 68.468 244.54 68.468C244.028 68.468 243.62 68.628 243.316 68.948C243.02 69.26 242.872 69.712 242.872 70.304V74H241.504V67.388H242.872V68.144C243.096 67.872 243.38 67.66 243.724 67.508C244.076 67.356 244.448 67.28 244.84 67.28ZM251.696 74.108C251.176 74.108 250.708 74.016 250.292 73.832C249.884 73.64 249.56 73.384 249.32 73.064C249.08 72.736 248.952 72.372 248.936 71.972H250.352C250.376 72.252 250.508 72.488 250.748 72.68C250.996 72.864 251.304 72.956 251.672 72.956C252.056 72.956 252.352 72.884 252.56 72.74C252.776 72.588 252.884 72.396 252.884 72.164C252.884 71.916 252.764 71.732 252.524 71.612C252.292 71.492 251.92 71.36 251.408 71.216C250.912 71.08 250.508 70.948 250.196 70.82C249.884 70.692 249.612 70.496 249.38 70.232C249.156 69.968 249.044 69.62 249.044 69.188C249.044 68.836 249.148 68.516 249.356 68.228C249.564 67.932 249.86 67.7 250.244 67.532C250.636 67.364 251.084 67.28 251.588 67.28C252.34 67.28 252.944 67.472 253.4 67.856C253.864 68.232 254.112 68.748 254.144 69.404H252.776C252.752 69.108 252.632 68.872 252.416 68.696C252.2 68.52 251.908 68.432 251.54 68.432C251.18 68.432 250.904 68.5 250.712 68.636C250.52 68.772 250.424 68.952 250.424 69.176C250.424 69.352 250.488 69.5 250.616 69.62C250.744 69.74 250.9 69.836 251.084 69.908C251.268 69.972 251.54 70.056 251.9 70.16C252.38 70.288 252.772 70.42 253.076 70.556C253.388 70.684 253.656 70.876 253.88 71.132C254.104 71.388 254.22 71.728 254.228 72.152C254.228 72.528 254.124 72.864 253.916 73.16C253.708 73.456 253.412 73.688 253.028 73.856C252.652 74.024 252.208 74.108 251.696 74.108ZM261.695 67.388V74H260.327V73.22C260.111 73.492 259.827 73.708 259.475 73.868C259.131 74.02 258.763 74.096 258.371 74.096C257.851 74.096 257.383 73.988 256.967 73.772C256.559 73.556 256.235 73.236 255.995 72.812C255.763 72.388 255.647 71.876 255.647 71.276V67.388H257.003V71.072C257.003 71.664 257.151 72.12 257.447 72.44C257.743 72.752 258.147 72.908 258.659 72.908C259.171 72.908 259.575 72.752 259.871 72.44C260.175 72.12 260.327 71.664 260.327 71.072V67.388H261.695ZM266.272 68.504H265.048V74H263.668V68.504H262.888V67.388H263.668V66.92C263.668 66.16 263.868 65.608 264.268 65.264C264.676 64.912 265.312 64.736 266.176 64.736V65.876C265.76 65.876 265.468 65.956 265.3 66.116C265.132 66.268 265.048 66.536 265.048 66.92V67.388H266.272V68.504ZM270.256 68.504H269.032V74H267.652V68.504H266.872V67.388H267.652V66.92C267.652 66.16 267.852 65.608 268.252 65.264C268.66 64.912 269.296 64.736 270.16 64.736V65.876C269.744 65.876 269.452 65.956 269.284 66.116C269.116 66.268 269.032 66.536 269.032 66.92V67.388H270.256V68.504ZM272.164 66.512C271.916 66.512 271.708 66.428 271.54 66.26C271.372 66.092 271.288 65.884 271.288 65.636C271.288 65.388 271.372 65.18 271.54 65.012C271.708 64.844 271.916 64.76 272.164 64.76C272.404 64.76 272.608 64.844 272.776 65.012C272.944 65.18 273.028 65.388 273.028 65.636C273.028 65.884 272.944 66.092 272.776 66.26C272.608 66.428 272.404 66.512 272.164 66.512ZM272.836 67.388V74H271.468V67.388H272.836ZM274.176 70.688C274.176 70.008 274.312 69.412 274.584 68.9C274.864 68.38 275.248 67.98 275.736 67.7C276.224 67.42 276.784 67.28 277.416 67.28C278.216 67.28 278.876 67.472 279.396 67.856C279.924 68.232 280.28 68.772 280.464 69.476H278.988C278.868 69.148 278.676 68.892 278.412 68.708C278.148 68.524 277.816 68.432 277.416 68.432C276.856 68.432 276.408 68.632 276.072 69.032C275.744 69.424 275.58 69.976 275.58 70.688C275.58 71.4 275.744 71.956 276.072 72.356C276.408 72.756 276.856 72.956 277.416 72.956C278.208 72.956 278.732 72.608 278.988 71.912H280.464C280.272 72.584 279.912 73.12 279.384 73.52C278.856 73.912 278.2 74.108 277.416 74.108C276.784 74.108 276.224 73.968 275.736 73.688C275.248 73.4 274.864 73 274.584 72.488C274.312 71.968 274.176 71.368 274.176 70.688ZM282.524 66.512C282.276 66.512 282.068 66.428 281.9 66.26C281.732 66.092 281.648 65.884 281.648 65.636C281.648 65.388 281.732 65.18 281.9 65.012C282.068 64.844 282.276 64.76 282.524 64.76C282.764 64.76 282.968 64.844 283.136 65.012C283.304 65.18 283.388 65.388 283.388 65.636C283.388 65.884 283.304 66.092 283.136 66.26C282.968 66.428 282.764 66.512 282.524 66.512ZM283.196 67.388V74H281.828V67.388H283.196ZM291.052 70.532C291.052 70.78 291.036 71.004 291.004 71.204H285.952C285.992 71.732 286.188 72.156 286.54 72.476C286.892 72.796 287.324 72.956 287.836 72.956C288.572 72.956 289.092 72.648 289.396 72.032H290.872C290.672 72.64 290.308 73.14 289.78 73.532C289.26 73.916 288.612 74.108 287.836 74.108C287.204 74.108 286.636 73.968 286.132 73.688C285.636 73.4 285.244 73 284.956 72.488C284.676 71.968 284.536 71.368 284.536 70.688C284.536 70.008 284.672 69.412 284.944 68.9C285.224 68.38 285.612 67.98 286.108 67.7C286.612 67.42 287.188 67.28 287.836 67.28C288.46 67.28 289.016 67.416 289.504 67.688C289.992 67.96 290.372 68.344 290.644 68.84C290.916 69.328 291.052 69.892 291.052 70.532ZM289.624 70.1C289.616 69.596 289.436 69.192 289.084 68.888C288.732 68.584 288.296 68.432 287.776 68.432C287.304 68.432 286.9 68.584 286.564 68.888C286.228 69.184 286.028 69.588 285.964 70.1H289.624ZM295.734 67.28C296.254 67.28 296.718 67.388 297.126 67.604C297.542 67.82 297.866 68.14 298.098 68.564C298.33 68.988 298.446 69.5 298.446 70.1V74H297.09V70.304C297.09 69.712 296.942 69.26 296.646 68.948C296.35 68.628 295.946 68.468 295.434 68.468C294.922 68.468 294.514 68.628 294.21 68.948C293.914 69.26 293.766 69.712 293.766 70.304V74H292.398V67.388H293.766V68.144C293.99 67.872 294.274 67.66 294.618 67.508C294.97 67.356 295.342 67.28 295.734 67.28ZM301.787 68.504V72.164C301.787 72.412 301.843 72.592 301.955 72.704C302.075 72.808 302.275 72.86 302.555 72.86H303.395V74H302.315C301.699 74 301.227 73.856 300.899 73.568C300.571 73.28 300.407 72.812 300.407 72.164V68.504H299.627V67.388H300.407V65.744H301.787V67.388H303.395V68.504H301.787ZM310.173 74.108C309.653 74.108 309.185 74.016 308.769 73.832C308.361 73.64 308.037 73.384 307.797 73.064C307.557 72.736 307.429 72.372 307.413 71.972H308.829C308.853 72.252 308.985 72.488 309.225 72.68C309.473 72.864 309.781 72.956 310.149 72.956C310.533 72.956 310.829 72.884 311.037 72.74C311.253 72.588 311.361 72.396 311.361 72.164C311.361 71.916 311.241 71.732 311.001 71.612C310.769 71.492 310.397 71.36 309.885 71.216C309.389 71.08 308.985 70.948 308.673 70.82C308.361 70.692 308.089 70.496 307.857 70.232C307.633 69.968 307.521 69.62 307.521 69.188C307.521 68.836 307.625 68.516 307.833 68.228C308.041 67.932 308.337 67.7 308.721 67.532C309.113 67.364 309.561 67.28 310.065 67.28C310.817 67.28 311.421 67.472 311.877 67.856C312.341 68.232 312.589 68.748 312.621 69.404H311.253C311.229 69.108 311.109 68.872 310.893 68.696C310.677 68.52 310.385 68.432 310.017 68.432C309.657 68.432 309.381 68.5 309.189 68.636C308.997 68.772 308.901 68.952 308.901 69.176C308.901 69.352 308.965 69.5 309.093 69.62C309.221 69.74 309.377 69.836 309.561 69.908C309.745 69.972 310.017 70.056 310.377 70.16C310.857 70.288 311.249 70.42 311.553 70.556C311.865 70.684 312.133 70.876 312.357 71.132C312.581 71.388 312.697 71.728 312.705 72.152C312.705 72.528 312.601 72.864 312.393 73.16C312.185 73.456 311.889 73.688 311.505 73.856C311.129 74.024 310.685 74.108 310.173 74.108ZM315.779 68.504V72.164C315.779 72.412 315.835 72.592 315.947 72.704C316.067 72.808 316.267 72.86 316.547 72.86H317.387V74H316.307C315.691 74 315.219 73.856 314.891 73.568C314.563 73.28 314.399 72.812 314.399 72.164V68.504H313.619V67.388H314.399V65.744H315.779V67.388H317.387V68.504H315.779ZM321.516 74.108C320.892 74.108 320.328 73.968 319.824 73.688C319.32 73.4 318.924 73 318.636 72.488C318.348 71.968 318.204 71.368 318.204 70.688C318.204 70.016 318.352 69.42 318.648 68.9C318.944 68.38 319.348 67.98 319.86 67.7C320.372 67.42 320.944 67.28 321.576 67.28C322.208 67.28 322.78 67.42 323.292 67.7C323.804 67.98 324.208 68.38 324.504 68.9C324.8 69.42 324.948 70.016 324.948 70.688C324.948 71.36 324.796 71.956 324.492 72.476C324.188 72.996 323.772 73.4 323.244 73.688C322.724 73.968 322.148 74.108 321.516 74.108ZM321.516 72.92C321.868 72.92 322.196 72.836 322.5 72.668C322.812 72.5 323.064 72.248 323.256 71.912C323.448 71.576 323.544 71.168 323.544 70.688C323.544 70.208 323.452 69.804 323.268 69.476C323.084 69.14 322.84 68.888 322.536 68.72C322.232 68.552 321.904 68.468 321.552 68.468C321.2 68.468 320.872 68.552 320.568 68.72C320.272 68.888 320.036 69.14 319.86 69.476C319.684 69.804 319.596 70.208 319.596 70.688C319.596 71.4 319.776 71.952 320.136 72.344C320.504 72.728 320.964 72.92 321.516 72.92ZM327.668 68.348C327.868 68.012 328.132 67.752 328.46 67.568C328.796 67.376 329.192 67.28 329.648 67.28V68.696H329.3C328.764 68.696 328.356 68.832 328.076 69.104C327.804 69.376 327.668 69.848 327.668 70.52V74H326.3V67.388H327.668V68.348ZM330.45 70.664C330.45 70 330.586 69.412 330.858 68.9C331.138 68.388 331.514 67.992 331.986 67.712C332.466 67.424 332.994 67.28 333.57 67.28C334.09 67.28 334.542 67.384 334.926 67.592C335.318 67.792 335.63 68.044 335.862 68.348V67.388H337.242V74H335.862V73.016C335.63 73.328 335.314 73.588 334.914 73.796C334.514 74.004 334.058 74.108 333.546 74.108C332.978 74.108 332.458 73.964 331.986 73.676C331.514 73.38 331.138 72.972 330.858 72.452C330.586 71.924 330.45 71.328 330.45 70.664ZM335.862 70.688C335.862 70.232 335.766 69.836 335.574 69.5C335.39 69.164 335.146 68.908 334.842 68.732C334.538 68.556 334.21 68.468 333.858 68.468C333.506 68.468 333.178 68.556 332.874 68.732C332.57 68.9 332.322 69.152 332.13 69.488C331.946 69.816 331.854 70.208 331.854 70.664C331.854 71.12 331.946 71.52 332.13 71.864C332.322 72.208 332.57 72.472 332.874 72.656C333.186 72.832 333.514 72.92 333.858 72.92C334.21 72.92 334.538 72.832 334.842 72.656C335.146 72.48 335.39 72.224 335.574 71.888C335.766 71.544 335.862 71.144 335.862 70.688ZM341.703 67.28C342.215 67.28 342.667 67.384 343.059 67.592C343.459 67.792 343.771 68.044 343.995 68.348V67.388H345.375V74.108C345.375 74.716 345.247 75.256 344.991 75.728C344.735 76.208 344.363 76.584 343.875 76.856C343.395 77.128 342.819 77.264 342.147 77.264C341.251 77.264 340.507 77.052 339.915 76.628C339.323 76.212 338.987 75.644 338.907 74.924H340.263C340.367 75.268 340.587 75.544 340.923 75.752C341.267 75.968 341.675 76.076 342.147 76.076C342.699 76.076 343.143 75.908 343.479 75.572C343.823 75.236 343.995 74.748 343.995 74.108V73.004C343.763 73.316 343.447 73.58 343.047 73.796C342.655 74.004 342.207 74.108 341.703 74.108C341.127 74.108 340.599 73.964 340.119 73.676C339.647 73.38 339.271 72.972 338.991 72.452C338.719 71.924 338.583 71.328 338.583 70.664C338.583 70 338.719 69.412 338.991 68.9C339.271 68.388 339.647 67.992 340.119 67.712C340.599 67.424 341.127 67.28 341.703 67.28ZM343.995 70.688C343.995 70.232 343.899 69.836 343.707 69.5C343.523 69.164 343.279 68.908 342.975 68.732C342.671 68.556 342.343 68.468 341.991 68.468C341.639 68.468 341.311 68.556 341.007 68.732C340.703 68.9 340.455 69.152 340.263 69.488C340.079 69.816 339.987 70.208 339.987 70.664C339.987 71.12 340.079 71.52 340.263 71.864C340.455 72.208 340.703 72.472 341.007 72.656C341.319 72.832 341.647 72.92 341.991 72.92C342.343 72.92 342.671 72.832 342.975 72.656C343.279 72.48 343.523 72.224 343.707 71.888C343.899 71.544 343.995 71.144 343.995 70.688ZM353.231 70.532C353.231 70.78 353.215 71.004 353.183 71.204H348.131C348.171 71.732 348.367 72.156 348.719 72.476C349.071 72.796 349.503 72.956 350.015 72.956C350.751 72.956 351.271 72.648 351.575 72.032H353.051C352.851 72.64 352.487 73.14 351.959 73.532C351.439 73.916 350.791 74.108 350.015 74.108C349.383 74.108 348.815 73.968 348.311 73.688C347.815 73.4 347.423 73 347.135 72.488C346.855 71.968 346.715 71.368 346.715 70.688C346.715 70.008 346.851 69.412 347.123 68.9C347.403 68.38 347.791 67.98 348.287 67.7C348.791 67.42 349.367 67.28 350.015 67.28C350.639 67.28 351.195 67.416 351.683 67.688C352.171 67.96 352.551 68.344 352.823 68.84C353.095 69.328 353.231 69.892 353.231 70.532ZM351.803 70.1C351.795 69.596 351.615 69.192 351.263 68.888C350.911 68.584 350.475 68.432 349.955 68.432C349.483 68.432 349.079 68.584 348.743 68.888C348.407 69.184 348.207 69.588 348.143 70.1H351.803ZM360.095 74.108C359.575 74.108 359.107 74.016 358.691 73.832C358.283 73.64 357.959 73.384 357.719 73.064C357.479 72.736 357.351 72.372 357.335 71.972H358.751C358.775 72.252 358.907 72.488 359.147 72.68C359.395 72.864 359.703 72.956 360.071 72.956C360.455 72.956 360.751 72.884 360.959 72.74C361.175 72.588 361.283 72.396 361.283 72.164C361.283 71.916 361.163 71.732 360.923 71.612C360.691 71.492 360.319 71.36 359.807 71.216C359.311 71.08 358.907 70.948 358.595 70.82C358.283 70.692 358.011 70.496 357.779 70.232C357.555 69.968 357.443 69.62 357.443 69.188C357.443 68.836 357.547 68.516 357.755 68.228C357.963 67.932 358.259 67.7 358.643 67.532C359.035 67.364 359.483 67.28 359.987 67.28C360.739 67.28 361.343 67.472 361.799 67.856C362.263 68.232 362.511 68.748 362.543 69.404H361.175C361.151 69.108 361.031 68.872 360.815 68.696C360.599 68.52 360.307 68.432 359.939 68.432C359.579 68.432 359.303 68.5 359.111 68.636C358.919 68.772 358.823 68.952 358.823 69.176C358.823 69.352 358.887 69.5 359.015 69.62C359.143 69.74 359.299 69.836 359.483 69.908C359.667 69.972 359.939 70.056 360.299 70.16C360.779 70.288 361.171 70.42 361.475 70.556C361.787 70.684 362.055 70.876 362.279 71.132C362.503 71.388 362.619 71.728 362.627 72.152C362.627 72.528 362.523 72.864 362.315 73.16C362.107 73.456 361.811 73.688 361.427 73.856C361.051 74.024 360.607 74.108 360.095 74.108ZM365.473 68.36C365.705 68.056 366.021 67.8 366.421 67.592C366.821 67.384 367.273 67.28 367.777 67.28C368.353 67.28 368.877 67.424 369.349 67.712C369.829 67.992 370.205 68.388 370.477 68.9C370.749 69.412 370.885 70 370.885 70.664C370.885 71.328 370.749 71.924 370.477 72.452C370.205 72.972 369.829 73.38 369.349 73.676C368.877 73.964 368.353 74.108 367.777 74.108C367.273 74.108 366.825 74.008 366.433 73.808C366.041 73.6 365.721 73.344 365.473 73.04V77.144H364.105V67.388H365.473V68.36ZM369.493 70.664C369.493 70.208 369.397 69.816 369.205 69.488C369.021 69.152 368.773 68.9 368.461 68.732C368.157 68.556 367.829 68.468 367.477 68.468C367.133 68.468 366.805 68.556 366.493 68.732C366.189 68.908 365.941 69.164 365.749 69.5C365.565 69.836 365.473 70.232 365.473 70.688C365.473 71.144 365.565 71.544 365.749 71.888C365.941 72.224 366.189 72.48 366.493 72.656C366.805 72.832 367.133 72.92 367.477 72.92C367.829 72.92 368.157 72.832 368.461 72.656C368.773 72.472 369.021 72.208 369.205 71.864C369.397 71.52 369.493 71.12 369.493 70.664ZM371.782 70.664C371.782 70 371.918 69.412 372.19 68.9C372.47 68.388 372.846 67.992 373.318 67.712C373.798 67.424 374.326 67.28 374.902 67.28C375.422 67.28 375.874 67.384 376.258 67.592C376.65 67.792 376.962 68.044 377.194 68.348V67.388H378.574V74H377.194V73.016C376.962 73.328 376.646 73.588 376.246 73.796C375.846 74.004 375.39 74.108 374.878 74.108C374.31 74.108 373.79 73.964 373.318 73.676C372.846 73.38 372.47 72.972 372.19 72.452C371.918 71.924 371.782 71.328 371.782 70.664ZM377.194 70.688C377.194 70.232 377.098 69.836 376.906 69.5C376.722 69.164 376.478 68.908 376.174 68.732C375.87 68.556 375.542 68.468 375.19 68.468C374.838 68.468 374.51 68.556 374.206 68.732C373.902 68.9 373.654 69.152 373.462 69.488C373.278 69.816 373.186 70.208 373.186 70.664C373.186 71.12 373.278 71.52 373.462 71.864C373.654 72.208 373.902 72.472 374.206 72.656C374.518 72.832 374.846 72.92 375.19 72.92C375.542 72.92 375.87 72.832 376.174 72.656C376.478 72.48 376.722 72.224 376.906 71.888C377.098 71.544 377.194 71.144 377.194 70.688ZM379.915 70.688C379.915 70.008 380.051 69.412 380.323 68.9C380.603 68.38 380.987 67.98 381.475 67.7C381.963 67.42 382.523 67.28 383.155 67.28C383.955 67.28 384.615 67.472 385.135 67.856C385.663 68.232 386.019 68.772 386.203 69.476H384.727C384.607 69.148 384.415 68.892 384.151 68.708C383.887 68.524 383.555 68.432 383.155 68.432C382.595 68.432 382.147 68.632 381.811 69.032C381.483 69.424 381.319 69.976 381.319 70.688C381.319 71.4 381.483 71.956 381.811 72.356C382.147 72.756 382.595 72.956 383.155 72.956C383.947 72.956 384.471 72.608 384.727 71.912H386.203C386.011 72.584 385.651 73.12 385.123 73.52C384.595 73.912 383.939 74.108 383.155 74.108C382.523 74.108 381.963 73.968 381.475 73.688C380.987 73.4 380.603 73 380.323 72.488C380.051 71.968 379.915 71.368 379.915 70.688ZM393.626 70.532C393.626 70.78 393.61 71.004 393.578 71.204H388.526C388.566 71.732 388.762 72.156 389.114 72.476C389.466 72.796 389.898 72.956 390.41 72.956C391.146 72.956 391.666 72.648 391.97 72.032H393.446C393.246 72.64 392.882 73.14 392.354 73.532C391.834 73.916 391.186 74.108 390.41 74.108C389.778 74.108 389.21 73.968 388.706 73.688C388.21 73.4 387.818 73 387.53 72.488C387.25 71.968 387.11 71.368 387.11 70.688C387.11 70.008 387.246 69.412 387.518 68.9C387.798 68.38 388.186 67.98 388.682 67.7C389.186 67.42 389.762 67.28 390.41 67.28C391.034 67.28 391.59 67.416 392.078 67.688C392.566 67.96 392.946 68.344 393.218 68.84C393.49 69.328 393.626 69.892 393.626 70.532ZM392.198 70.1C392.19 69.596 392.01 69.192 391.658 68.888C391.306 68.584 390.87 68.432 390.35 68.432C389.878 68.432 389.474 68.584 389.138 68.888C388.802 69.184 388.602 69.588 388.538 70.1H392.198ZM395.524 74.084C395.276 74.084 395.068 74 394.9 73.832C394.732 73.664 394.648 73.456 394.648 73.208C394.648 72.96 394.732 72.752 394.9 72.584C395.068 72.416 395.276 72.332 395.524 72.332C395.764 72.332 395.968 72.416 396.136 72.584C396.304 72.752 396.388 72.96 396.388 73.208C396.388 73.456 396.304 73.664 396.136 73.832C395.968 74 395.764 74.084 395.524 74.084Z" fill="black"/>
</svg>
