<svg width="480" height="360" viewBox="0 0 480 360" fill="none" xmlns="http://www.w3.org/2000/svg">
<path d="M0 340H15V340C12.2386 340 10 342.239 10 345V345C10 347.761 12.2386 350 15 350V350H0V340Z" fill="black"/>
<path d="M15.24 327.05V327.98H13.39V334H12.25V327.98H10.39V327.05H15.24ZM16.9745 327.76C16.7679 327.76 16.5945 327.69 16.4545 327.55C16.3145 327.41 16.2445 327.237 16.2445 327.03C16.2445 326.823 16.3145 326.65 16.4545 326.51C16.5945 326.37 16.7679 326.3 16.9745 326.3C17.1745 326.3 17.3445 326.37 17.4845 326.51C17.6245 326.65 17.6945 326.823 17.6945 327.03C17.6945 327.237 17.6245 327.41 17.4845 327.55C17.3445 327.69 17.1745 327.76 16.9745 327.76ZM17.5345 328.49V334H16.3945V328.49H17.5345ZM25.7013 328.4C26.1346 328.4 26.5213 328.49 26.8613 328.67C27.2079 328.85 27.4779 329.117 27.6713 329.47C27.8713 329.823 27.9713 330.25 27.9713 330.75V334H26.8413V330.92C26.8413 330.427 26.7179 330.05 26.4713 329.79C26.2246 329.523 25.8879 329.39 25.4613 329.39C25.0346 329.39 24.6946 329.523 24.4413 329.79C24.1946 330.05 24.0713 330.427 24.0713 330.92V334H22.9413V330.92C22.9413 330.427 22.8179 330.05 22.5713 329.79C22.3246 329.523 21.9879 329.39 21.5613 329.39C21.1346 329.39 20.7946 329.523 20.5413 329.79C20.2946 330.05 20.1713 330.427 20.1713 330.92V334H19.0313V328.49H20.1713V329.12C20.3579 328.893 20.5946 328.717 20.8813 328.59C21.1679 328.463 21.4746 328.4 21.8013 328.4C22.2413 328.4 22.6346 328.493 22.9813 328.68C23.3279 328.867 23.5946 329.137 23.7813 329.49C23.9479 329.157 24.2079 328.893 24.5613 328.7C24.9146 328.5 25.2946 328.4 25.7013 328.4ZM34.4719 331.11C34.4719 331.317 34.4585 331.503 34.4319 331.67H30.2219C30.2552 332.11 30.4185 332.463 30.7119 332.73C31.0052 332.997 31.3652 333.13 31.7919 333.13C32.4052 333.13 32.8385 332.873 33.0919 332.36H34.3219C34.1552 332.867 33.8519 333.283 33.4119 333.61C32.9785 333.93 32.4385 334.09 31.7919 334.09C31.2652 334.09 30.7919 333.973 30.3719 333.74C29.9585 333.5 29.6319 333.167 29.3919 332.74C29.1585 332.307 29.0419 331.807 29.0419 331.24C29.0419 330.673 29.1552 330.177 29.3819 329.75C29.6152 329.317 29.9385 328.983 30.3519 328.75C30.7719 328.517 31.2519 328.4 31.7919 328.4C32.3119 328.4 32.7752 328.513 33.1819 328.74C33.5885 328.967 33.9052 329.287 34.1319 329.7C34.3585 330.107 34.4719 330.577 34.4719 331.11ZM33.2819 330.75C33.2752 330.33 33.1252 329.993 32.8319 329.74C32.5385 329.487 32.1752 329.36 31.7419 329.36C31.3485 329.36 31.0119 329.487 30.7319 329.74C30.4519 329.987 30.2852 330.323 30.2319 330.75H33.2819ZM39.3314 326.6V334H38.1914V326.6H39.3314ZM45.8781 331.11C45.8781 331.317 45.8648 331.503 45.8381 331.67H41.6281C41.6615 332.11 41.8248 332.463 42.1181 332.73C42.4115 332.997 42.7715 333.13 43.1981 333.13C43.8115 333.13 44.2448 332.873 44.4981 332.36H45.7281C45.5615 332.867 45.2581 333.283 44.8181 333.61C44.3848 333.93 43.8448 334.09 43.1981 334.09C42.6715 334.09 42.1981 333.973 41.7781 333.74C41.3648 333.5 41.0381 333.167 40.7981 332.74C40.5648 332.307 40.4481 331.807 40.4481 331.24C40.4481 330.673 40.5615 330.177 40.7881 329.75C41.0215 329.317 41.3448 328.983 41.7581 328.75C42.1781 328.517 42.6581 328.4 43.1981 328.4C43.7181 328.4 44.1815 328.513 44.5881 328.74C44.9948 328.967 45.3115 329.287 45.5381 329.7C45.7648 330.107 45.8781 330.577 45.8781 331.11ZM44.6881 330.75C44.6815 330.33 44.5315 329.993 44.2381 329.74C43.9448 329.487 43.5815 329.36 43.1481 329.36C42.7548 329.36 42.4181 329.487 42.1381 329.74C41.8581 329.987 41.6915 330.323 41.6381 330.75H44.6881ZM49.31 329.42H48.29V334H47.14V329.42H46.49V328.49H47.14V328.1C47.14 327.467 47.3067 327.007 47.64 326.72C47.98 326.427 48.51 326.28 49.23 326.28V327.23C48.8833 327.23 48.64 327.297 48.5 327.43C48.36 327.557 48.29 327.78 48.29 328.1V328.49H49.31V329.42ZM51.6503 329.42V332.47C51.6503 332.677 51.697 332.827 51.7903 332.92C51.8903 333.007 52.057 333.05 52.2903 333.05H52.9903V334H52.0903C51.577 334 51.1836 333.88 50.9103 333.64C50.637 333.4 50.5003 333.01 50.5003 332.47V329.42H49.8503V328.49H50.5003V327.12H51.6503V328.49H52.9903V329.42H51.6503Z" fill="white"/>
<path d="M215.745 19.88L212.065 26.968V31H210.241V26.968L206.545 19.88H208.577L211.153 25.336L213.729 19.88H215.745ZM221.016 31.144C220.184 31.144 219.432 30.9573 218.76 30.584C218.088 30.2 217.56 29.6667 217.176 28.984C216.792 28.2907 216.6 27.4907 216.6 26.584C216.6 25.688 216.798 24.8933 217.192 24.2C217.587 23.5067 218.126 22.9733 218.808 22.6C219.491 22.2267 220.254 22.04 221.096 22.04C221.939 22.04 222.702 22.2267 223.384 22.6C224.067 22.9733 224.606 23.5067 225 24.2C225.395 24.8933 225.592 25.688 225.592 26.584C225.592 27.48 225.39 28.2747 224.984 28.968C224.579 29.6613 224.024 30.2 223.32 30.584C222.627 30.9573 221.859 31.144 221.016 31.144ZM221.016 29.56C221.486 29.56 221.923 29.448 222.328 29.224C222.744 29 223.08 28.664 223.336 28.216C223.592 27.768 223.72 27.224 223.72 26.584C223.72 25.944 223.598 25.4053 223.352 24.968C223.107 24.52 222.782 24.184 222.376 23.96C221.971 23.736 221.534 23.624 221.064 23.624C220.595 23.624 220.158 23.736 219.752 23.96C219.358 24.184 219.043 24.52 218.808 24.968C218.574 25.4053 218.456 25.944 218.456 26.584C218.456 27.5333 218.696 28.2693 219.176 28.792C219.667 29.304 220.28 29.56 221.016 29.56ZM235.379 22.184V31H233.555V29.96C233.267 30.3227 232.889 30.6107 232.419 30.824C231.961 31.0267 231.47 31.128 230.947 31.128C230.254 31.128 229.63 30.984 229.075 30.696C228.531 30.408 228.099 29.9813 227.779 29.416C227.47 28.8507 227.315 28.168 227.315 27.368V22.184H229.123V27.096C229.123 27.8853 229.321 28.4933 229.715 28.92C230.11 29.336 230.649 29.544 231.331 29.544C232.014 29.544 232.553 29.336 232.947 28.92C233.353 28.4933 233.555 27.8853 233.555 27.096V22.184H235.379ZM253.782 22.184L251.046 31H249.126L247.35 24.488L245.574 31H243.654L240.902 22.184H242.758L244.598 29.272L246.47 22.184H248.374L250.166 29.24L251.99 22.184H253.782ZM256.073 21.016C255.743 21.016 255.465 20.904 255.241 20.68C255.017 20.456 254.905 20.1787 254.905 19.848C254.905 19.5173 255.017 19.24 255.241 19.016C255.465 18.792 255.743 18.68 256.073 18.68C256.393 18.68 256.665 18.792 256.889 19.016C257.113 19.24 257.225 19.5173 257.225 19.848C257.225 20.1787 257.113 20.456 256.889 20.68C256.665 20.904 256.393 21.016 256.073 21.016ZM256.969 22.184V31H255.145V22.184H256.969ZM263.812 22.04C264.505 22.04 265.124 22.184 265.668 22.472C266.223 22.76 266.655 23.1867 266.964 23.752C267.273 24.3173 267.428 25 267.428 25.8V31H265.62V26.072C265.62 25.2827 265.423 24.68 265.028 24.264C264.633 23.8373 264.095 23.624 263.412 23.624C262.729 23.624 262.185 23.8373 261.78 24.264C261.385 24.68 261.188 25.2827 261.188 26.072V31H259.364V22.184H261.188V23.192C261.487 22.8293 261.865 22.5467 262.324 22.344C262.793 22.1413 263.289 22.04 263.812 22.04ZM272.043 19.88L271.835 27.64H270.315L270.107 19.88H272.043ZM271.131 31.112C270.8 31.112 270.523 31 270.299 30.776C270.075 30.552 269.963 30.2747 269.963 29.944C269.963 29.6133 270.075 29.336 270.299 29.112C270.523 28.888 270.8 28.776 271.131 28.776C271.451 28.776 271.723 28.888 271.947 29.112C272.171 29.336 272.283 29.6133 272.283 29.944C272.283 30.2747 272.171 30.552 271.947 30.776C271.723 31 271.451 31.112 271.131 31.112Z" fill="white"/>
<rect opacity="0.1" x="70" y="50" width="340" height="260" rx="10" fill="white"/>
</svg>
