<svg width="80" height="28" viewBox="0 0 80 28" fill="none" xmlns="http://www.w3.org/2000/svg">
<rect width="80" height="28" rx="5" fill="#E6E6E6"/>
<path d="M12.75 18.09C12.3167 18.09 11.9267 18.0133 11.58 17.86C11.24 17.7 10.97 17.4867 10.77 17.22C10.57 16.9467 10.4633 16.6433 10.45 16.31H11.63C11.65 16.5433 11.76 16.74 11.96 16.9C12.1667 17.0533 12.4233 17.13 12.73 17.13C13.05 17.13 13.2967 17.07 13.47 16.95C13.65 16.8233 13.74 16.6633 13.74 16.47C13.74 16.2633 13.64 16.11 13.44 16.01C13.2467 15.91 12.9367 15.8 12.51 15.68C12.0967 15.5667 11.76 15.4567 11.5 15.35C11.24 15.2433 11.0133 15.08 10.82 14.86C10.6333 14.64 10.54 14.35 10.54 13.99C10.54 13.6967 10.6267 13.43 10.8 13.19C10.9733 12.9433 11.22 12.75 11.54 12.61C11.8667 12.47 12.24 12.4 12.66 12.4C13.2867 12.4 13.79 12.56 14.17 12.88C14.5567 13.1933 14.7633 13.6233 14.79 14.17H13.65C13.63 13.9233 13.53 13.7267 13.35 13.58C13.17 13.4333 12.9267 13.36 12.62 13.36C12.32 13.36 12.09 13.4167 11.93 13.53C11.77 13.6433 11.69 13.7933 11.69 13.98C11.69 14.1267 11.7433 14.25 11.85 14.35C11.9567 14.45 12.0867 14.53 12.24 14.59C12.3933 14.6433 12.62 14.7133 12.92 14.8C13.32 14.9067 13.6467 15.0167 13.9 15.13C14.16 15.2367 14.3833 15.3967 14.57 15.61C14.7567 15.8233 14.8533 16.1067 14.86 16.46C14.86 16.7733 14.7733 17.0533 14.6 17.3C14.4267 17.5467 14.18 17.74 13.86 17.88C13.5467 18.02 13.1767 18.09 12.75 18.09ZM17.4218 13.42V16.47C17.4218 16.6767 17.4685 16.8267 17.5618 16.92C17.6618 17.0067 17.8285 17.05 18.0618 17.05H18.7618V18H17.8618C17.3485 18 16.9551 17.88 16.6818 17.64C16.4085 17.4 16.2718 17.01 16.2718 16.47V13.42H15.6218V12.49H16.2718V11.12H17.4218V12.49H18.7618V13.42H17.4218ZM22.2025 18.09C21.6825 18.09 21.2125 17.9733 20.7925 17.74C20.3725 17.5 20.0425 17.1667 19.8025 16.74C19.5625 16.3067 19.4425 15.8067 19.4425 15.24C19.4425 14.68 19.5658 14.1833 19.8125 13.75C20.0592 13.3167 20.3958 12.9833 20.8225 12.75C21.2492 12.5167 21.7258 12.4 22.2525 12.4C22.7792 12.4 23.2558 12.5167 23.6825 12.75C24.1092 12.9833 24.4458 13.3167 24.6925 13.75C24.9392 14.1833 25.0625 14.68 25.0625 15.24C25.0625 15.8 24.9358 16.2967 24.6825 16.73C24.4292 17.1633 24.0825 17.5 23.6425 17.74C23.2092 17.9733 22.7292 18.09 22.2025 18.09ZM22.2025 17.1C22.4958 17.1 22.7692 17.03 23.0225 16.89C23.2825 16.75 23.4925 16.54 23.6525 16.26C23.8125 15.98 23.8925 15.64 23.8925 15.24C23.8925 14.84 23.8158 14.5033 23.6625 14.23C23.5092 13.95 23.3058 13.74 23.0525 13.6C22.7992 13.46 22.5258 13.39 22.2325 13.39C21.9392 13.39 21.6658 13.46 21.4125 13.6C21.1658 13.74 20.9692 13.95 20.8225 14.23C20.6758 14.5033 20.6025 14.84 20.6025 15.24C20.6025 15.8333 20.7525 16.2933 21.0525 16.62C21.3592 16.94 21.7425 17.1 22.2025 17.1ZM27.3295 13.3C27.5228 13.0467 27.7861 12.8333 28.1195 12.66C28.4528 12.4867 28.8295 12.4 29.2495 12.4C29.7295 12.4 30.1661 12.52 30.5595 12.76C30.9595 12.9933 31.2728 13.3233 31.4995 13.75C31.7261 14.1767 31.8395 14.6667 31.8395 15.22C31.8395 15.7733 31.7261 16.27 31.4995 16.71C31.2728 17.1433 30.9595 17.4833 30.5595 17.73C30.1661 17.97 29.7295 18.09 29.2495 18.09C28.8295 18.09 28.4561 18.0067 28.1295 17.84C27.8028 17.6667 27.5361 17.4533 27.3295 17.2V20.62H26.1895V12.49H27.3295V13.3ZM30.6795 15.22C30.6795 14.84 30.5995 14.5133 30.4395 14.24C30.2861 13.96 30.0795 13.75 29.8195 13.61C29.5661 13.4633 29.2928 13.39 28.9995 13.39C28.7128 13.39 28.4395 13.4633 28.1795 13.61C27.9261 13.7567 27.7195 13.97 27.5595 14.25C27.4061 14.53 27.3295 14.86 27.3295 15.24C27.3295 15.62 27.4061 15.9533 27.5595 16.24C27.7195 16.52 27.9261 16.7333 28.1795 16.88C28.4395 17.0267 28.7128 17.1 28.9995 17.1C29.2928 17.1 29.5661 17.0267 29.8195 16.88C30.0795 16.7267 30.2861 16.5067 30.4395 16.22C30.5995 15.9333 30.6795 15.6 30.6795 15.22ZM39.6368 12.4C40.0701 12.4 40.4568 12.49 40.7968 12.67C41.1435 12.85 41.4135 13.1167 41.6068 13.47C41.8068 13.8233 41.9068 14.25 41.9068 14.75V18H40.7768V14.92C40.7768 14.4267 40.6535 14.05 40.4068 13.79C40.1601 13.5233 39.8235 13.39 39.3968 13.39C38.9701 13.39 38.6301 13.5233 38.3768 13.79C38.1301 14.05 38.0068 14.4267 38.0068 14.92V18H36.8768V14.92C36.8768 14.4267 36.7535 14.05 36.5068 13.79C36.2601 13.5233 35.9235 13.39 35.4968 13.39C35.0701 13.39 34.7301 13.5233 34.4768 13.79C34.2301 14.05 34.1068 14.4267 34.1068 14.92V18H32.9668V12.49H34.1068V13.12C34.2935 12.8933 34.5301 12.7167 34.8168 12.59C35.1035 12.4633 35.4101 12.4 35.7368 12.4C36.1768 12.4 36.5701 12.4933 36.9168 12.68C37.2635 12.8667 37.5301 13.1367 37.7168 13.49C37.8835 13.1567 38.1435 12.8933 38.4968 12.7C38.8501 12.5 39.2301 12.4 39.6368 12.4ZM48.3474 12.49V18H47.2074V17.35C47.0274 17.5767 46.7908 17.7567 46.4974 17.89C46.2108 18.0167 45.9041 18.08 45.5774 18.08C45.1441 18.08 44.7541 17.99 44.4074 17.81C44.0674 17.63 43.7974 17.3633 43.5974 17.01C43.4041 16.6567 43.3074 16.23 43.3074 15.73V12.49H44.4374V15.56C44.4374 16.0533 44.5608 16.4333 44.8074 16.7C45.0541 16.96 45.3908 17.09 45.8174 17.09C46.2441 17.09 46.5808 16.96 46.8274 16.7C47.0808 16.4333 47.2074 16.0533 47.2074 15.56V12.49H48.3474ZM51.8516 18.09C51.4182 18.09 51.0282 18.0133 50.6816 17.86C50.3416 17.7 50.0716 17.4867 49.8716 17.22C49.6716 16.9467 49.5649 16.6433 49.5516 16.31H50.7316C50.7516 16.5433 50.8616 16.74 51.0616 16.9C51.2682 17.0533 51.5249 17.13 51.8316 17.13C52.1516 17.13 52.3982 17.07 52.5716 16.95C52.7516 16.8233 52.8416 16.6633 52.8416 16.47C52.8416 16.2633 52.7416 16.11 52.5416 16.01C52.3482 15.91 52.0382 15.8 51.6116 15.68C51.1982 15.5667 50.8616 15.4567 50.6016 15.35C50.3416 15.2433 50.1149 15.08 49.9216 14.86C49.7349 14.64 49.6416 14.35 49.6416 13.99C49.6416 13.6967 49.7282 13.43 49.9016 13.19C50.0749 12.9433 50.3216 12.75 50.6416 12.61C50.9682 12.47 51.3416 12.4 51.7616 12.4C52.3882 12.4 52.8916 12.56 53.2716 12.88C53.6582 13.1933 53.8649 13.6233 53.8916 14.17H52.7516C52.7316 13.9233 52.6316 13.7267 52.4516 13.58C52.2716 13.4333 52.0282 13.36 51.7216 13.36C51.4216 13.36 51.1916 13.4167 51.0316 13.53C50.8716 13.6433 50.7916 13.7933 50.7916 13.98C50.7916 14.1267 50.8449 14.25 50.9516 14.35C51.0582 14.45 51.1882 14.53 51.3416 14.59C51.4949 14.6433 51.7216 14.7133 52.0216 14.8C52.4216 14.9067 52.7482 15.0167 53.0016 15.13C53.2616 15.2367 53.4849 15.3967 53.6716 15.61C53.8582 15.8233 53.9549 16.1067 53.9616 16.46C53.9616 16.7733 53.8749 17.0533 53.7016 17.3C53.5282 17.5467 53.2816 17.74 52.9616 17.88C52.6482 18.02 52.2782 18.09 51.8516 18.09ZM55.7734 11.76C55.5667 11.76 55.3934 11.69 55.2534 11.55C55.1134 11.41 55.0434 11.2367 55.0434 11.03C55.0434 10.8233 55.1134 10.65 55.2534 10.51C55.3934 10.37 55.5667 10.3 55.7734 10.3C55.9734 10.3 56.1434 10.37 56.2834 10.51C56.4234 10.65 56.4934 10.8233 56.4934 11.03C56.4934 11.2367 56.4234 11.41 56.2834 11.55C56.1434 11.69 55.9734 11.76 55.7734 11.76ZM56.3334 12.49V18H55.1934V12.49H56.3334ZM57.4501 15.24C57.4501 14.6733 57.5634 14.1767 57.7901 13.75C58.0234 13.3167 58.3434 12.9833 58.7501 12.75C59.1567 12.5167 59.6234 12.4 60.1501 12.4C60.8167 12.4 61.3667 12.56 61.8001 12.88C62.2401 13.1933 62.5367 13.6433 62.6901 14.23H61.4601C61.3601 13.9567 61.2001 13.7433 60.9801 13.59C60.7601 13.4367 60.4834 13.36 60.1501 13.36C59.6834 13.36 59.3101 13.5267 59.0301 13.86C58.7567 14.1867 58.6201 14.6467 58.6201 15.24C58.6201 15.8333 58.7567 16.2967 59.0301 16.63C59.3101 16.9633 59.6834 17.13 60.1501 17.13C60.8101 17.13 61.2467 16.84 61.4601 16.26H62.6901C62.5301 16.82 62.2301 17.2667 61.7901 17.6C61.3501 17.9267 60.8034 18.09 60.1501 18.09C59.6234 18.09 59.1567 17.9733 58.7501 17.74C58.3434 17.5 58.0234 17.1667 57.7901 16.74C57.5634 16.3067 57.4501 15.8067 57.4501 15.24Z" fill="black"/>
</svg>
