<svg width="480" height="360" viewBox="0 0 480 360" fill="none" xmlns="http://www.w3.org/2000/svg">
<path d="M0 0H480V80C480 91.0457 471.046 100 460 100H20C8.95432 100 0 91.0457 0 80V0Z" fill="#191919" fill-opacity="0.75"/>
<path d="M237.864 31.112C237.117 31.112 236.445 30.984 235.848 30.728C235.251 30.4613 234.781 30.088 234.44 29.608C234.099 29.128 233.928 28.568 233.928 27.928H235.88C235.923 28.408 236.109 28.8027 236.44 29.112C236.781 29.4213 237.256 29.576 237.864 29.576C238.493 29.576 238.984 29.4267 239.336 29.128C239.688 28.8187 239.864 28.424 239.864 27.944C239.864 27.5707 239.752 27.2667 239.528 27.032C239.315 26.7973 239.043 26.616 238.712 26.488C238.392 26.36 237.944 26.2213 237.368 26.072C236.643 25.88 236.051 25.688 235.592 25.496C235.144 25.2933 234.76 24.984 234.44 24.568C234.12 24.152 233.96 23.5973 233.96 22.904C233.96 22.264 234.12 21.704 234.44 21.224C234.76 20.744 235.208 20.376 235.784 20.12C236.36 19.864 237.027 19.736 237.784 19.736C238.861 19.736 239.741 20.008 240.424 20.552C241.117 21.0853 241.501 21.8213 241.576 22.76H239.56C239.528 22.3547 239.336 22.008 238.984 21.72C238.632 21.432 238.168 21.288 237.592 21.288C237.069 21.288 236.643 21.4213 236.312 21.688C235.981 21.9547 235.816 22.3387 235.816 22.84C235.816 23.1813 235.917 23.464 236.12 23.688C236.333 23.9013 236.6 24.072 236.92 24.2C237.24 24.328 237.677 24.4667 238.232 24.616C238.968 24.8187 239.565 25.0213 240.024 25.224C240.493 25.4267 240.888 25.7413 241.208 26.168C241.539 26.584 241.704 27.144 241.704 27.848C241.704 28.4133 241.549 28.9467 241.24 29.448C240.941 29.9493 240.499 30.3547 239.912 30.664C239.336 30.9627 238.653 31.112 237.864 31.112ZM245.984 23.672V28.552C245.984 28.8827 246.059 29.1227 246.208 29.272C246.368 29.4107 246.635 29.48 247.008 29.48H248.128V31H246.688C245.867 31 245.238 30.808 244.8 30.424C244.363 30.04 244.144 29.416 244.144 28.552V23.672H243.104V22.184H244.144V19.992H245.984V22.184H248.128V23.672H245.984ZM253.633 31.144C252.801 31.144 252.049 30.9573 251.377 30.584C250.705 30.2 250.177 29.6667 249.793 28.984C249.409 28.2907 249.217 27.4907 249.217 26.584C249.217 25.688 249.415 24.8933 249.809 24.2C250.204 23.5067 250.743 22.9733 251.425 22.6C252.108 22.2267 252.871 22.04 253.713 22.04C254.556 22.04 255.319 22.2267 256.001 22.6C256.684 22.9733 257.223 23.5067 257.617 24.2C258.012 24.8933 258.209 25.688 258.209 26.584C258.209 27.48 258.007 28.2747 257.601 28.968C257.196 29.6613 256.641 30.2 255.937 30.584C255.244 30.9573 254.476 31.144 253.633 31.144ZM253.633 29.56C254.103 29.56 254.54 29.448 254.945 29.224C255.361 29 255.697 28.664 255.953 28.216C256.209 27.768 256.337 27.224 256.337 26.584C256.337 25.944 256.215 25.4053 255.969 24.968C255.724 24.52 255.399 24.184 254.993 23.96C254.588 23.736 254.151 23.624 253.681 23.624C253.212 23.624 252.775 23.736 252.369 23.96C251.975 24.184 251.66 24.52 251.425 24.968C251.191 25.4053 251.073 25.944 251.073 26.584C251.073 27.5333 251.313 28.2693 251.793 28.792C252.284 29.304 252.897 29.56 253.633 29.56ZM261.837 23.464C262.103 23.016 262.455 22.6693 262.893 22.424C263.341 22.168 263.869 22.04 264.477 22.04V23.928H264.013C263.298 23.928 262.754 24.1093 262.381 24.472C262.018 24.8347 261.837 25.464 261.837 26.36V31H260.013V22.184H261.837V23.464ZM274.233 26.376C274.233 26.7067 274.212 27.0053 274.169 27.272H267.433C267.486 27.976 267.748 28.5413 268.217 28.968C268.686 29.3947 269.262 29.608 269.945 29.608C270.926 29.608 271.62 29.1973 272.025 28.376H273.993C273.726 29.1867 273.241 29.8533 272.537 30.376C271.844 30.888 270.98 31.144 269.945 31.144C269.102 31.144 268.345 30.9573 267.673 30.584C267.012 30.2 266.489 29.6667 266.105 28.984C265.732 28.2907 265.545 27.4907 265.545 26.584C265.545 25.6773 265.726 24.8827 266.089 24.2C266.462 23.5067 266.98 22.9733 267.641 22.6C268.313 22.2267 269.081 22.04 269.945 22.04C270.777 22.04 271.518 22.2213 272.169 22.584C272.82 22.9467 273.326 23.4587 273.689 24.12C274.052 24.7707 274.233 25.5227 274.233 26.376ZM272.329 25.8C272.318 25.128 272.078 24.5893 271.609 24.184C271.14 23.7787 270.558 23.576 269.865 23.576C269.236 23.576 268.697 23.7787 268.249 24.184C267.801 24.5787 267.534 25.1173 267.449 25.8H272.329Z" fill="white"/>
<rect x="202" y="17" width="2" height="12" rx="1" fill="white"/>
<rect x="197.343" y="24" width="2" height="8" rx="1" transform="rotate(-45 197.343 24)" fill="white"/>
<rect x="207.243" y="22.5858" width="2" height="8" rx="1" transform="rotate(45 207.243 22.5858)" fill="white"/>
<path d="M209 29V30C209 31.1046 208.105 32 207 32L199 32C197.895 32 197 31.1046 197 30L197 29" stroke="white" stroke-width="2" stroke-linecap="round"/>
<path d="M63.1935 65.66V70.976C63.1935 71.608 63.3575 72.084 63.6855 72.404C64.0215 72.724 64.4855 72.884 65.0775 72.884C65.6775 72.884 66.1415 72.724 66.4695 72.404C66.8055 72.084 66.9735 71.608 66.9735 70.976V65.66H68.3415V70.952C68.3415 71.632 68.1935 72.208 67.8975 72.68C67.6015 73.152 67.2055 73.504 66.7095 73.736C66.2135 73.968 65.6655 74.084 65.0655 74.084C64.4655 74.084 63.9175 73.968 63.4215 73.736C62.9335 73.504 62.5455 73.152 62.2575 72.68C61.9695 72.208 61.8255 71.632 61.8255 70.952V65.66H63.1935ZM73.4587 67.28C73.9787 67.28 74.4427 67.388 74.8507 67.604C75.2667 67.82 75.5907 68.14 75.8227 68.564C76.0547 68.988 76.1707 69.5 76.1707 70.1V74H74.8147V70.304C74.8147 69.712 74.6667 69.26 74.3707 68.948C74.0747 68.628 73.6707 68.468 73.1587 68.468C72.6467 68.468 72.2387 68.628 71.9347 68.948C71.6387 69.26 71.4907 69.712 71.4907 70.304V74H70.1227V67.388H71.4907V68.144C71.7147 67.872 71.9987 67.66 72.3427 67.508C72.6947 67.356 73.0667 67.28 73.4587 67.28ZM77.4596 70.664C77.4596 70 77.5956 69.412 77.8676 68.9C78.1476 68.388 78.5236 67.992 78.9956 67.712C79.4756 67.424 80.0036 67.28 80.5796 67.28C81.0996 67.28 81.5516 67.384 81.9356 67.592C82.3276 67.792 82.6396 68.044 82.8716 68.348V67.388H84.2516V74H82.8716V73.016C82.6396 73.328 82.3236 73.588 81.9236 73.796C81.5236 74.004 81.0676 74.108 80.5556 74.108C79.9876 74.108 79.4676 73.964 78.9956 73.676C78.5236 73.38 78.1476 72.972 77.8676 72.452C77.5956 71.924 77.4596 71.328 77.4596 70.664ZM82.8716 70.688C82.8716 70.232 82.7756 69.836 82.5836 69.5C82.3996 69.164 82.1556 68.908 81.8516 68.732C81.5476 68.556 81.2196 68.468 80.8676 68.468C80.5156 68.468 80.1876 68.556 79.8836 68.732C79.5796 68.9 79.3316 69.152 79.1396 69.488C78.9556 69.816 78.8636 70.208 78.8636 70.664C78.8636 71.12 78.9556 71.52 79.1396 71.864C79.3316 72.208 79.5796 72.472 79.8836 72.656C80.1956 72.832 80.5236 72.92 80.8676 72.92C81.2196 72.92 81.5476 72.832 81.8516 72.656C82.1556 72.48 82.3996 72.224 82.5836 71.888C82.7756 71.544 82.8716 71.144 82.8716 70.688ZM87.4164 68.372C87.6484 68.052 87.9644 67.792 88.3644 67.592C88.7724 67.384 89.2244 67.28 89.7204 67.28C90.3044 67.28 90.8324 67.42 91.3044 67.7C91.7764 67.98 92.1484 68.38 92.4204 68.9C92.6924 69.412 92.8284 70 92.8284 70.664C92.8284 71.328 92.6924 71.924 92.4204 72.452C92.1484 72.972 91.7724 73.38 91.2924 73.676C90.8204 73.964 90.2964 74.108 89.7204 74.108C89.2084 74.108 88.7524 74.008 88.3524 73.808C87.9604 73.608 87.6484 73.352 87.4164 73.04V74H86.0484V65.12H87.4164V68.372ZM91.4364 70.664C91.4364 70.208 91.3404 69.816 91.1484 69.488C90.9644 69.152 90.7164 68.9 90.4044 68.732C90.1004 68.556 89.7724 68.468 89.4204 68.468C89.0764 68.468 88.7484 68.556 88.4364 68.732C88.1324 68.908 87.8844 69.164 87.6924 69.5C87.5084 69.836 87.4164 70.232 87.4164 70.688C87.4164 71.144 87.5084 71.544 87.6924 71.888C87.8844 72.224 88.1324 72.48 88.4364 72.656C88.7484 72.832 89.0764 72.92 89.4204 72.92C89.7724 72.92 90.1004 72.832 90.4044 72.656C90.7164 72.472 90.9644 72.208 91.1484 71.864C91.3404 71.52 91.4364 71.12 91.4364 70.664ZM95.5493 65.12V74H94.1813V65.12H95.5493ZM103.405 70.532C103.405 70.78 103.389 71.004 103.357 71.204H98.3053C98.3453 71.732 98.5413 72.156 98.8933 72.476C99.2453 72.796 99.6773 72.956 100.189 72.956C100.925 72.956 101.445 72.648 101.749 72.032H103.225C103.025 72.64 102.661 73.14 102.133 73.532C101.613 73.916 100.965 74.108 100.189 74.108C99.5573 74.108 98.9893 73.968 98.4853 73.688C97.9893 73.4 97.5973 73 97.3093 72.488C97.0293 71.968 96.8893 71.368 96.8893 70.688C96.8893 70.008 97.0253 69.412 97.2973 68.9C97.5773 68.38 97.9653 67.98 98.4613 67.7C98.9653 67.42 99.5413 67.28 100.189 67.28C100.813 67.28 101.369 67.416 101.857 67.688C102.345 67.96 102.725 68.344 102.997 68.84C103.269 69.328 103.405 69.892 103.405 70.532ZM101.977 70.1C101.969 69.596 101.789 69.192 101.437 68.888C101.085 68.584 100.649 68.432 100.129 68.432C99.6573 68.432 99.2533 68.584 98.9173 68.888C98.5813 69.184 98.3813 69.588 98.3173 70.1H101.977ZM109.465 68.504V72.164C109.465 72.412 109.521 72.592 109.633 72.704C109.753 72.808 109.953 72.86 110.233 72.86H111.073V74H109.993C109.377 74 108.905 73.856 108.577 73.568C108.249 73.28 108.085 72.812 108.085 72.164V68.504H107.305V67.388H108.085V65.744H109.465V67.388H111.073V68.504H109.465ZM115.202 74.108C114.578 74.108 114.014 73.968 113.51 73.688C113.006 73.4 112.61 73 112.322 72.488C112.034 71.968 111.89 71.368 111.89 70.688C111.89 70.016 112.038 69.42 112.334 68.9C112.63 68.38 113.034 67.98 113.546 67.7C114.058 67.42 114.63 67.28 115.262 67.28C115.894 67.28 116.466 67.42 116.978 67.7C117.49 67.98 117.894 68.38 118.19 68.9C118.486 69.42 118.634 70.016 118.634 70.688C118.634 71.36 118.482 71.956 118.178 72.476C117.874 72.996 117.458 73.4 116.93 73.688C116.41 73.968 115.834 74.108 115.202 74.108ZM115.202 72.92C115.554 72.92 115.882 72.836 116.186 72.668C116.498 72.5 116.75 72.248 116.942 71.912C117.134 71.576 117.23 71.168 117.23 70.688C117.23 70.208 117.138 69.804 116.954 69.476C116.77 69.14 116.526 68.888 116.222 68.72C115.918 68.552 115.59 68.468 115.238 68.468C114.886 68.468 114.558 68.552 114.254 68.72C113.958 68.888 113.722 69.14 113.546 69.476C113.37 69.804 113.282 70.208 113.282 70.688C113.282 71.4 113.462 71.952 113.822 72.344C114.19 72.728 114.65 72.92 115.202 72.92ZM123.799 66.512C123.551 66.512 123.343 66.428 123.175 66.26C123.007 66.092 122.923 65.884 122.923 65.636C122.923 65.388 123.007 65.18 123.175 65.012C123.343 64.844 123.551 64.76 123.799 64.76C124.039 64.76 124.243 64.844 124.411 65.012C124.579 65.18 124.663 65.388 124.663 65.636C124.663 65.884 124.579 66.092 124.411 66.26C124.243 66.428 124.039 66.512 123.799 66.512ZM124.471 67.388V74H123.103V67.388H124.471ZM129.603 67.28C130.123 67.28 130.587 67.388 130.995 67.604C131.411 67.82 131.735 68.14 131.967 68.564C132.199 68.988 132.315 69.5 132.315 70.1V74H130.959V70.304C130.959 69.712 130.811 69.26 130.515 68.948C130.219 68.628 129.815 68.468 129.303 68.468C128.791 68.468 128.383 68.628 128.079 68.948C127.783 69.26 127.635 69.712 127.635 70.304V74H126.267V67.388H127.635V68.144C127.859 67.872 128.143 67.66 128.487 67.508C128.839 67.356 129.211 67.28 129.603 67.28ZM136.46 74.108C135.94 74.108 135.472 74.016 135.056 73.832C134.648 73.64 134.324 73.384 134.084 73.064C133.844 72.736 133.716 72.372 133.7 71.972H135.116C135.14 72.252 135.272 72.488 135.512 72.68C135.76 72.864 136.068 72.956 136.436 72.956C136.82 72.956 137.116 72.884 137.324 72.74C137.54 72.588 137.648 72.396 137.648 72.164C137.648 71.916 137.528 71.732 137.288 71.612C137.056 71.492 136.684 71.36 136.172 71.216C135.676 71.08 135.272 70.948 134.96 70.82C134.648 70.692 134.376 70.496 134.144 70.232C133.92 69.968 133.808 69.62 133.808 69.188C133.808 68.836 133.912 68.516 134.12 68.228C134.328 67.932 134.624 67.7 135.008 67.532C135.4 67.364 135.848 67.28 136.352 67.28C137.104 67.28 137.708 67.472 138.164 67.856C138.628 68.232 138.876 68.748 138.908 69.404H137.54C137.516 69.108 137.396 68.872 137.18 68.696C136.964 68.52 136.672 68.432 136.304 68.432C135.944 68.432 135.668 68.5 135.476 68.636C135.284 68.772 135.188 68.952 135.188 69.176C135.188 69.352 135.252 69.5 135.38 69.62C135.508 69.74 135.664 69.836 135.848 69.908C136.032 69.972 136.304 70.056 136.664 70.16C137.144 70.288 137.536 70.42 137.84 70.556C138.152 70.684 138.42 70.876 138.644 71.132C138.868 71.388 138.984 71.728 138.992 72.152C138.992 72.528 138.888 72.864 138.68 73.16C138.472 73.456 138.176 73.688 137.792 73.856C137.416 74.024 136.972 74.108 136.46 74.108ZM142.066 68.504V72.164C142.066 72.412 142.122 72.592 142.234 72.704C142.354 72.808 142.554 72.86 142.834 72.86H143.674V74H142.594C141.978 74 141.506 73.856 141.178 73.568C140.85 73.28 140.686 72.812 140.686 72.164V68.504H139.906V67.388H140.686V65.744H142.066V67.388H143.674V68.504H142.066ZM144.479 70.664C144.479 70 144.615 69.412 144.887 68.9C145.167 68.388 145.543 67.992 146.015 67.712C146.495 67.424 147.023 67.28 147.599 67.28C148.119 67.28 148.571 67.384 148.955 67.592C149.347 67.792 149.659 68.044 149.891 68.348V67.388H151.271V74H149.891V73.016C149.659 73.328 149.343 73.588 148.943 73.796C148.543 74.004 148.087 74.108 147.575 74.108C147.007 74.108 146.487 73.964 146.015 73.676C145.543 73.38 145.167 72.972 144.887 72.452C144.615 71.924 144.479 71.328 144.479 70.664ZM149.891 70.688C149.891 70.232 149.795 69.836 149.603 69.5C149.419 69.164 149.175 68.908 148.871 68.732C148.567 68.556 148.239 68.468 147.887 68.468C147.535 68.468 147.207 68.556 146.903 68.732C146.599 68.9 146.351 69.152 146.159 69.488C145.975 69.816 145.883 70.208 145.883 70.664C145.883 71.12 145.975 71.52 146.159 71.864C146.351 72.208 146.599 72.472 146.903 72.656C147.215 72.832 147.543 72.92 147.887 72.92C148.239 72.92 148.567 72.832 148.871 72.656C149.175 72.48 149.419 72.224 149.603 71.888C149.795 71.544 149.891 71.144 149.891 70.688ZM154.436 65.12V74H153.068V65.12H154.436ZM157.6 65.12V74H156.232V65.12H157.6ZM164.109 68.504V72.164C164.109 72.412 164.165 72.592 164.277 72.704C164.397 72.808 164.597 72.86 164.877 72.86H165.717V74H164.637C164.021 74 163.549 73.856 163.221 73.568C162.893 73.28 162.729 72.812 162.729 72.164V68.504H161.949V67.388H162.729V65.744H164.109V67.388H165.717V68.504H164.109ZM170.398 67.28C170.902 67.28 171.35 67.388 171.742 67.604C172.142 67.82 172.454 68.14 172.678 68.564C172.91 68.988 173.026 69.5 173.026 70.1V74H171.67V70.304C171.67 69.712 171.522 69.26 171.226 68.948C170.93 68.628 170.526 68.468 170.014 68.468C169.502 68.468 169.094 68.628 168.79 68.948C168.494 69.26 168.346 69.712 168.346 70.304V74H166.978V65.12H168.346V68.156C168.578 67.876 168.87 67.66 169.222 67.508C169.582 67.356 169.974 67.28 170.398 67.28ZM180.831 70.532C180.831 70.78 180.815 71.004 180.783 71.204H175.731C175.771 71.732 175.967 72.156 176.319 72.476C176.671 72.796 177.103 72.956 177.615 72.956C178.351 72.956 178.871 72.648 179.175 72.032H180.651C180.451 72.64 180.087 73.14 179.559 73.532C179.039 73.916 178.391 74.108 177.615 74.108C176.983 74.108 176.415 73.968 175.911 73.688C175.415 73.4 175.023 73 174.735 72.488C174.455 71.968 174.315 71.368 174.315 70.688C174.315 70.008 174.451 69.412 174.723 68.9C175.003 68.38 175.391 67.98 175.887 67.7C176.391 67.42 176.967 67.28 177.615 67.28C178.239 67.28 178.795 67.416 179.283 67.688C179.771 67.96 180.151 68.344 180.423 68.84C180.695 69.328 180.831 69.892 180.831 70.532ZM179.403 70.1C179.395 69.596 179.215 69.192 178.863 68.888C178.511 68.584 178.075 68.432 177.555 68.432C177.083 68.432 176.679 68.584 176.343 68.888C176.007 69.184 175.807 69.588 175.743 70.1H179.403ZM184.839 70.664C184.839 70 184.975 69.412 185.247 68.9C185.527 68.388 185.903 67.992 186.375 67.712C186.855 67.424 187.383 67.28 187.959 67.28C188.479 67.28 188.931 67.384 189.315 67.592C189.707 67.792 190.019 68.044 190.251 68.348V67.388H191.631V74H190.251V73.016C190.019 73.328 189.703 73.588 189.303 73.796C188.903 74.004 188.447 74.108 187.935 74.108C187.367 74.108 186.847 73.964 186.375 73.676C185.903 73.38 185.527 72.972 185.247 72.452C184.975 71.924 184.839 71.328 184.839 70.664ZM190.251 70.688C190.251 70.232 190.155 69.836 189.963 69.5C189.779 69.164 189.535 68.908 189.231 68.732C188.927 68.556 188.599 68.468 188.247 68.468C187.895 68.468 187.567 68.556 187.263 68.732C186.959 68.9 186.711 69.152 186.519 69.488C186.335 69.816 186.243 70.208 186.243 70.664C186.243 71.12 186.335 71.52 186.519 71.864C186.711 72.208 186.959 72.472 187.263 72.656C187.575 72.832 187.903 72.92 188.247 72.92C188.599 72.92 188.927 72.832 189.231 72.656C189.535 72.48 189.779 72.224 189.963 71.888C190.155 71.544 190.251 71.144 190.251 70.688ZM194.795 68.36C195.027 68.056 195.343 67.8 195.743 67.592C196.143 67.384 196.595 67.28 197.099 67.28C197.675 67.28 198.199 67.424 198.671 67.712C199.151 67.992 199.527 68.388 199.799 68.9C200.071 69.412 200.207 70 200.207 70.664C200.207 71.328 200.071 71.924 199.799 72.452C199.527 72.972 199.151 73.38 198.671 73.676C198.199 73.964 197.675 74.108 197.099 74.108C196.595 74.108 196.147 74.008 195.755 73.808C195.363 73.6 195.043 73.344 194.795 73.04V77.144H193.427V67.388H194.795V68.36ZM198.815 70.664C198.815 70.208 198.719 69.816 198.527 69.488C198.343 69.152 198.095 68.9 197.783 68.732C197.479 68.556 197.151 68.468 196.799 68.468C196.455 68.468 196.127 68.556 195.815 68.732C195.511 68.908 195.263 69.164 195.071 69.5C194.887 69.836 194.795 70.232 194.795 70.688C194.795 71.144 194.887 71.544 195.071 71.888C195.263 72.224 195.511 72.48 195.815 72.656C196.127 72.832 196.455 72.92 196.799 72.92C197.151 72.92 197.479 72.832 197.783 72.656C198.095 72.472 198.343 72.208 198.527 71.864C198.719 71.52 198.815 71.12 198.815 70.664ZM202.928 68.36C203.16 68.056 203.476 67.8 203.876 67.592C204.276 67.384 204.728 67.28 205.232 67.28C205.808 67.28 206.332 67.424 206.804 67.712C207.284 67.992 207.66 68.388 207.932 68.9C208.204 69.412 208.34 70 208.34 70.664C208.34 71.328 208.204 71.924 207.932 72.452C207.66 72.972 207.284 73.38 206.804 73.676C206.332 73.964 205.808 74.108 205.232 74.108C204.728 74.108 204.28 74.008 203.888 73.808C203.496 73.6 203.176 73.344 202.928 73.04V77.144H201.56V67.388H202.928V68.36ZM206.948 70.664C206.948 70.208 206.852 69.816 206.66 69.488C206.476 69.152 206.228 68.9 205.916 68.732C205.612 68.556 205.284 68.468 204.932 68.468C204.588 68.468 204.26 68.556 203.948 68.732C203.644 68.908 203.396 69.164 203.204 69.5C203.02 69.836 202.928 70.232 202.928 70.688C202.928 71.144 203.02 71.544 203.204 71.888C203.396 72.224 203.644 72.48 203.948 72.656C204.26 72.832 204.588 72.92 204.932 72.92C205.284 72.92 205.612 72.832 205.916 72.656C206.228 72.472 206.476 72.208 206.66 71.864C206.852 71.52 206.948 71.12 206.948 70.664ZM211.061 65.12V74H209.693V65.12H211.061ZM213.553 66.512C213.305 66.512 213.097 66.428 212.929 66.26C212.761 66.092 212.677 65.884 212.677 65.636C212.677 65.388 212.761 65.18 212.929 65.012C213.097 64.844 213.305 64.76 213.553 64.76C213.793 64.76 213.997 64.844 214.165 65.012C214.333 65.18 214.417 65.388 214.417 65.636C214.417 65.884 214.333 66.092 214.165 66.26C213.997 66.428 213.793 66.512 213.553 66.512ZM214.225 67.388V74H212.857V67.388H214.225ZM215.565 70.688C215.565 70.008 215.701 69.412 215.973 68.9C216.253 68.38 216.637 67.98 217.125 67.7C217.613 67.42 218.173 67.28 218.805 67.28C219.605 67.28 220.265 67.472 220.785 67.856C221.313 68.232 221.669 68.772 221.853 69.476H220.377C220.257 69.148 220.065 68.892 219.801 68.708C219.537 68.524 219.205 68.432 218.805 68.432C218.245 68.432 217.797 68.632 217.461 69.032C217.133 69.424 216.969 69.976 216.969 70.688C216.969 71.4 217.133 71.956 217.461 72.356C217.797 72.756 218.245 72.956 218.805 72.956C219.597 72.956 220.121 72.608 220.377 71.912H221.853C221.661 72.584 221.301 73.12 220.773 73.52C220.245 73.912 219.589 74.108 218.805 74.108C218.173 74.108 217.613 73.968 217.125 73.688C216.637 73.4 216.253 73 215.973 72.488C215.701 71.968 215.565 71.368 215.565 70.688ZM222.76 70.664C222.76 70 222.896 69.412 223.168 68.9C223.448 68.388 223.824 67.992 224.296 67.712C224.776 67.424 225.304 67.28 225.88 67.28C226.4 67.28 226.852 67.384 227.236 67.592C227.628 67.792 227.94 68.044 228.172 68.348V67.388H229.552V74H228.172V73.016C227.94 73.328 227.624 73.588 227.224 73.796C226.824 74.004 226.368 74.108 225.856 74.108C225.288 74.108 224.768 73.964 224.296 73.676C223.824 73.38 223.448 72.972 223.168 72.452C222.896 71.924 222.76 71.328 222.76 70.664ZM228.172 70.688C228.172 70.232 228.076 69.836 227.884 69.5C227.7 69.164 227.456 68.908 227.152 68.732C226.848 68.556 226.52 68.468 226.168 68.468C225.816 68.468 225.488 68.556 225.184 68.732C224.88 68.9 224.632 69.152 224.44 69.488C224.256 69.816 224.164 70.208 224.164 70.664C224.164 71.12 224.256 71.52 224.44 71.864C224.632 72.208 224.88 72.472 225.184 72.656C225.496 72.832 225.824 72.92 226.168 72.92C226.52 72.92 226.848 72.832 227.152 72.656C227.456 72.48 227.7 72.224 227.884 71.888C228.076 71.544 228.172 71.144 228.172 70.688ZM232.945 68.504V72.164C232.945 72.412 233.001 72.592 233.113 72.704C233.233 72.808 233.433 72.86 233.713 72.86H234.553V74H233.473C232.857 74 232.385 73.856 232.057 73.568C231.729 73.28 231.565 72.812 231.565 72.164V68.504H230.785V67.388H231.565V65.744H232.945V67.388H234.553V68.504H232.945ZM236.51 66.512C236.262 66.512 236.054 66.428 235.886 66.26C235.718 66.092 235.634 65.884 235.634 65.636C235.634 65.388 235.718 65.18 235.886 65.012C236.054 64.844 236.262 64.76 236.51 64.76C236.75 64.76 236.954 64.844 237.122 65.012C237.29 65.18 237.374 65.388 237.374 65.636C237.374 65.884 237.29 66.092 237.122 66.26C236.954 66.428 236.75 66.512 236.51 66.512ZM237.182 67.388V74H235.814V67.388H237.182ZM241.846 74.108C241.222 74.108 240.658 73.968 240.154 73.688C239.65 73.4 239.254 73 238.966 72.488C238.678 71.968 238.534 71.368 238.534 70.688C238.534 70.016 238.682 69.42 238.978 68.9C239.274 68.38 239.678 67.98 240.19 67.7C240.702 67.42 241.274 67.28 241.906 67.28C242.538 67.28 243.11 67.42 243.622 67.7C244.134 67.98 244.538 68.38 244.834 68.9C245.13 69.42 245.278 70.016 245.278 70.688C245.278 71.36 245.126 71.956 244.822 72.476C244.518 72.996 244.102 73.4 243.574 73.688C243.054 73.968 242.478 74.108 241.846 74.108ZM241.846 72.92C242.198 72.92 242.526 72.836 242.83 72.668C243.142 72.5 243.394 72.248 243.586 71.912C243.778 71.576 243.874 71.168 243.874 70.688C243.874 70.208 243.782 69.804 243.598 69.476C243.414 69.14 243.17 68.888 242.866 68.72C242.562 68.552 242.234 68.468 241.882 68.468C241.53 68.468 241.202 68.552 240.898 68.72C240.602 68.888 240.366 69.14 240.19 69.476C240.014 69.804 239.926 70.208 239.926 70.688C239.926 71.4 240.106 71.952 240.466 72.344C240.834 72.728 241.294 72.92 241.846 72.92ZM249.966 67.28C250.486 67.28 250.95 67.388 251.358 67.604C251.774 67.82 252.098 68.14 252.33 68.564C252.562 68.988 252.678 69.5 252.678 70.1V74H251.322V70.304C251.322 69.712 251.174 69.26 250.878 68.948C250.582 68.628 250.178 68.468 249.666 68.468C249.154 68.468 248.746 68.628 248.442 68.948C248.146 69.26 247.998 69.712 247.998 70.304V74H246.63V67.388H247.998V68.144C248.222 67.872 248.506 67.66 248.85 67.508C249.202 67.356 249.574 67.28 249.966 67.28ZM254.975 74.084C254.727 74.084 254.519 74 254.351 73.832C254.183 73.664 254.099 73.456 254.099 73.208C254.099 72.96 254.183 72.752 254.351 72.584C254.519 72.416 254.727 72.332 254.975 72.332C255.215 72.332 255.419 72.416 255.587 72.584C255.755 72.752 255.839 72.96 255.839 73.208C255.839 73.456 255.755 73.664 255.587 73.832C255.419 74 255.215 74.084 254.975 74.084ZM261.803 65.66V74H260.435V65.66H261.803ZM266.935 67.28C267.455 67.28 267.919 67.388 268.327 67.604C268.743 67.82 269.067 68.14 269.299 68.564C269.531 68.988 269.647 69.5 269.647 70.1V74H268.291V70.304C268.291 69.712 268.143 69.26 267.847 68.948C267.551 68.628 267.147 68.468 266.635 68.468C266.123 68.468 265.715 68.628 265.411 68.948C265.115 69.26 264.967 69.712 264.967 70.304V74H263.599V67.388H264.967V68.144C265.191 67.872 265.475 67.66 265.819 67.508C266.171 67.356 266.543 67.28 266.935 67.28ZM273.792 74.108C273.272 74.108 272.804 74.016 272.388 73.832C271.98 73.64 271.656 73.384 271.416 73.064C271.176 72.736 271.048 72.372 271.032 71.972H272.448C272.472 72.252 272.604 72.488 272.844 72.68C273.092 72.864 273.4 72.956 273.768 72.956C274.152 72.956 274.448 72.884 274.656 72.74C274.872 72.588 274.98 72.396 274.98 72.164C274.98 71.916 274.86 71.732 274.62 71.612C274.388 71.492 274.016 71.36 273.504 71.216C273.008 71.08 272.604 70.948 272.292 70.82C271.98 70.692 271.708 70.496 271.476 70.232C271.252 69.968 271.14 69.62 271.14 69.188C271.14 68.836 271.244 68.516 271.452 68.228C271.66 67.932 271.956 67.7 272.34 67.532C272.732 67.364 273.18 67.28 273.684 67.28C274.436 67.28 275.04 67.472 275.496 67.856C275.96 68.232 276.208 68.748 276.24 69.404H274.872C274.848 69.108 274.728 68.872 274.512 68.696C274.296 68.52 274.004 68.432 273.636 68.432C273.276 68.432 273 68.5 272.808 68.636C272.616 68.772 272.52 68.952 272.52 69.176C272.52 69.352 272.584 69.5 272.712 69.62C272.84 69.74 272.996 69.836 273.18 69.908C273.364 69.972 273.636 70.056 273.996 70.16C274.476 70.288 274.868 70.42 275.172 70.556C275.484 70.684 275.752 70.876 275.976 71.132C276.2 71.388 276.316 71.728 276.324 72.152C276.324 72.528 276.22 72.864 276.012 73.16C275.804 73.456 275.508 73.688 275.124 73.856C274.748 74.024 274.304 74.108 273.792 74.108ZM283.79 67.388V74H282.422V73.22C282.206 73.492 281.922 73.708 281.57 73.868C281.226 74.02 280.858 74.096 280.466 74.096C279.946 74.096 279.478 73.988 279.062 73.772C278.654 73.556 278.33 73.236 278.09 72.812C277.858 72.388 277.742 71.876 277.742 71.276V67.388H279.098V71.072C279.098 71.664 279.246 72.12 279.542 72.44C279.838 72.752 280.242 72.908 280.754 72.908C281.266 72.908 281.67 72.752 281.966 72.44C282.27 72.12 282.422 71.664 282.422 71.072V67.388H283.79ZM288.367 68.504H287.143V74H285.763V68.504H284.983V67.388H285.763V66.92C285.763 66.16 285.963 65.608 286.363 65.264C286.771 64.912 287.407 64.736 288.271 64.736V65.876C287.855 65.876 287.563 65.956 287.395 66.116C287.227 66.268 287.143 66.536 287.143 66.92V67.388H288.367V68.504ZM292.352 68.504H291.128V74H289.748V68.504H288.968V67.388H289.748V66.92C289.748 66.16 289.948 65.608 290.348 65.264C290.756 64.912 291.392 64.736 292.256 64.736V65.876C291.84 65.876 291.548 65.956 291.38 66.116C291.212 66.268 291.128 66.536 291.128 66.92V67.388H292.352V68.504ZM294.26 66.512C294.012 66.512 293.804 66.428 293.636 66.26C293.468 66.092 293.384 65.884 293.384 65.636C293.384 65.388 293.468 65.18 293.636 65.012C293.804 64.844 294.012 64.76 294.26 64.76C294.5 64.76 294.704 64.844 294.872 65.012C295.04 65.18 295.124 65.388 295.124 65.636C295.124 65.884 295.04 66.092 294.872 66.26C294.704 66.428 294.5 66.512 294.26 66.512ZM294.932 67.388V74H293.564V67.388H294.932ZM296.272 70.688C296.272 70.008 296.408 69.412 296.68 68.9C296.96 68.38 297.344 67.98 297.832 67.7C298.32 67.42 298.88 67.28 299.512 67.28C300.312 67.28 300.972 67.472 301.492 67.856C302.02 68.232 302.376 68.772 302.56 69.476H301.084C300.964 69.148 300.772 68.892 300.508 68.708C300.244 68.524 299.912 68.432 299.512 68.432C298.952 68.432 298.504 68.632 298.168 69.032C297.84 69.424 297.676 69.976 297.676 70.688C297.676 71.4 297.84 71.956 298.168 72.356C298.504 72.756 298.952 72.956 299.512 72.956C300.304 72.956 300.828 72.608 301.084 71.912H302.56C302.368 72.584 302.008 73.12 301.48 73.52C300.952 73.912 300.296 74.108 299.512 74.108C298.88 74.108 298.32 73.968 297.832 73.688C297.344 73.4 296.96 73 296.68 72.488C296.408 71.968 296.272 71.368 296.272 70.688ZM304.619 66.512C304.371 66.512 304.163 66.428 303.995 66.26C303.827 66.092 303.743 65.884 303.743 65.636C303.743 65.388 303.827 65.18 303.995 65.012C304.163 64.844 304.371 64.76 304.619 64.76C304.859 64.76 305.063 64.844 305.231 65.012C305.399 65.18 305.483 65.388 305.483 65.636C305.483 65.884 305.399 66.092 305.231 66.26C305.063 66.428 304.859 66.512 304.619 66.512ZM305.291 67.388V74H303.923V67.388H305.291ZM313.148 70.532C313.148 70.78 313.132 71.004 313.1 71.204H308.048C308.088 71.732 308.284 72.156 308.636 72.476C308.988 72.796 309.42 72.956 309.932 72.956C310.668 72.956 311.188 72.648 311.492 72.032H312.967C312.768 72.64 312.404 73.14 311.876 73.532C311.356 73.916 310.708 74.108 309.932 74.108C309.3 74.108 308.732 73.968 308.228 73.688C307.732 73.4 307.34 73 307.052 72.488C306.772 71.968 306.632 71.368 306.632 70.688C306.632 70.008 306.768 69.412 307.04 68.9C307.32 68.38 307.708 67.98 308.204 67.7C308.708 67.42 309.284 67.28 309.932 67.28C310.556 67.28 311.112 67.416 311.6 67.688C312.088 67.96 312.468 68.344 312.74 68.84C313.012 69.328 313.148 69.892 313.148 70.532ZM311.72 70.1C311.712 69.596 311.532 69.192 311.18 68.888C310.828 68.584 310.392 68.432 309.872 68.432C309.4 68.432 308.996 68.584 308.66 68.888C308.324 69.184 308.124 69.588 308.06 70.1H311.72ZM317.83 67.28C318.35 67.28 318.814 67.388 319.222 67.604C319.638 67.82 319.962 68.14 320.194 68.564C320.426 68.988 320.542 69.5 320.542 70.1V74H319.186V70.304C319.186 69.712 319.038 69.26 318.742 68.948C318.446 68.628 318.042 68.468 317.53 68.468C317.018 68.468 316.61 68.628 316.306 68.948C316.01 69.26 315.862 69.712 315.862 70.304V74H314.494V67.388H315.862V68.144C316.086 67.872 316.37 67.66 316.714 67.508C317.066 67.356 317.438 67.28 317.83 67.28ZM323.883 68.504V72.164C323.883 72.412 323.939 72.592 324.051 72.704C324.171 72.808 324.371 72.86 324.651 72.86H325.491V74H324.411C323.795 74 323.323 73.856 322.995 73.568C322.667 73.28 322.503 72.812 322.503 72.164V68.504H321.723V67.388H322.503V65.744H323.883V67.388H325.491V68.504H323.883ZM332.269 74.108C331.749 74.108 331.281 74.016 330.865 73.832C330.457 73.64 330.133 73.384 329.893 73.064C329.653 72.736 329.525 72.372 329.509 71.972H330.925C330.949 72.252 331.081 72.488 331.321 72.68C331.569 72.864 331.877 72.956 332.245 72.956C332.629 72.956 332.925 72.884 333.133 72.74C333.349 72.588 333.457 72.396 333.457 72.164C333.457 71.916 333.337 71.732 333.097 71.612C332.865 71.492 332.493 71.36 331.981 71.216C331.485 71.08 331.081 70.948 330.769 70.82C330.457 70.692 330.185 70.496 329.953 70.232C329.729 69.968 329.617 69.62 329.617 69.188C329.617 68.836 329.721 68.516 329.929 68.228C330.137 67.932 330.433 67.7 330.817 67.532C331.209 67.364 331.657 67.28 332.161 67.28C332.913 67.28 333.517 67.472 333.973 67.856C334.437 68.232 334.685 68.748 334.717 69.404H333.349C333.325 69.108 333.205 68.872 332.989 68.696C332.773 68.52 332.481 68.432 332.113 68.432C331.753 68.432 331.477 68.5 331.285 68.636C331.093 68.772 330.997 68.952 330.997 69.176C330.997 69.352 331.061 69.5 331.189 69.62C331.317 69.74 331.473 69.836 331.657 69.908C331.841 69.972 332.113 70.056 332.473 70.16C332.953 70.288 333.345 70.42 333.649 70.556C333.961 70.684 334.229 70.876 334.453 71.132C334.677 71.388 334.793 71.728 334.801 72.152C334.801 72.528 334.697 72.864 334.489 73.16C334.281 73.456 333.985 73.688 333.601 73.856C333.225 74.024 332.781 74.108 332.269 74.108ZM337.875 68.504V72.164C337.875 72.412 337.931 72.592 338.043 72.704C338.163 72.808 338.363 72.86 338.643 72.86H339.483V74H338.403C337.787 74 337.315 73.856 336.987 73.568C336.659 73.28 336.495 72.812 336.495 72.164V68.504H335.715V67.388H336.495V65.744H337.875V67.388H339.483V68.504H337.875ZM343.612 74.108C342.988 74.108 342.424 73.968 341.92 73.688C341.416 73.4 341.02 73 340.732 72.488C340.444 71.968 340.3 71.368 340.3 70.688C340.3 70.016 340.448 69.42 340.744 68.9C341.04 68.38 341.444 67.98 341.956 67.7C342.468 67.42 343.04 67.28 343.672 67.28C344.304 67.28 344.876 67.42 345.388 67.7C345.9 67.98 346.304 68.38 346.6 68.9C346.896 69.42 347.044 70.016 347.044 70.688C347.044 71.36 346.892 71.956 346.588 72.476C346.284 72.996 345.868 73.4 345.34 73.688C344.82 73.968 344.244 74.108 343.612 74.108ZM343.612 72.92C343.964 72.92 344.292 72.836 344.596 72.668C344.908 72.5 345.16 72.248 345.352 71.912C345.544 71.576 345.64 71.168 345.64 70.688C345.64 70.208 345.548 69.804 345.364 69.476C345.18 69.14 344.936 68.888 344.632 68.72C344.328 68.552 344 68.468 343.648 68.468C343.296 68.468 342.968 68.552 342.664 68.72C342.368 68.888 342.132 69.14 341.956 69.476C341.78 69.804 341.692 70.208 341.692 70.688C341.692 71.4 341.872 71.952 342.232 72.344C342.6 72.728 343.06 72.92 343.612 72.92ZM349.764 68.348C349.964 68.012 350.228 67.752 350.556 67.568C350.892 67.376 351.288 67.28 351.744 67.28V68.696H351.396C350.86 68.696 350.452 68.832 350.172 69.104C349.9 69.376 349.764 69.848 349.764 70.52V74H348.396V67.388H349.764V68.348ZM352.546 70.664C352.546 70 352.682 69.412 352.954 68.9C353.234 68.388 353.61 67.992 354.082 67.712C354.562 67.424 355.09 67.28 355.666 67.28C356.186 67.28 356.638 67.384 357.022 67.592C357.414 67.792 357.726 68.044 357.958 68.348V67.388H359.338V74H357.958V73.016C357.726 73.328 357.41 73.588 357.01 73.796C356.61 74.004 356.154 74.108 355.642 74.108C355.074 74.108 354.554 73.964 354.082 73.676C353.61 73.38 353.234 72.972 352.954 72.452C352.682 71.924 352.546 71.328 352.546 70.664ZM357.958 70.688C357.958 70.232 357.862 69.836 357.67 69.5C357.486 69.164 357.242 68.908 356.938 68.732C356.634 68.556 356.306 68.468 355.954 68.468C355.602 68.468 355.274 68.556 354.97 68.732C354.666 68.9 354.418 69.152 354.226 69.488C354.042 69.816 353.95 70.208 353.95 70.664C353.95 71.12 354.042 71.52 354.226 71.864C354.418 72.208 354.666 72.472 354.97 72.656C355.282 72.832 355.61 72.92 355.954 72.92C356.306 72.92 356.634 72.832 356.938 72.656C357.242 72.48 357.486 72.224 357.67 71.888C357.862 71.544 357.958 71.144 357.958 70.688ZM363.798 67.28C364.31 67.28 364.762 67.384 365.154 67.592C365.554 67.792 365.866 68.044 366.09 68.348V67.388H367.47V74.108C367.47 74.716 367.342 75.256 367.086 75.728C366.83 76.208 366.458 76.584 365.97 76.856C365.49 77.128 364.914 77.264 364.242 77.264C363.346 77.264 362.602 77.052 362.01 76.628C361.418 76.212 361.082 75.644 361.002 74.924H362.358C362.462 75.268 362.682 75.544 363.018 75.752C363.362 75.968 363.77 76.076 364.242 76.076C364.794 76.076 365.238 75.908 365.574 75.572C365.918 75.236 366.09 74.748 366.09 74.108V73.004C365.858 73.316 365.542 73.58 365.142 73.796C364.75 74.004 364.302 74.108 363.798 74.108C363.222 74.108 362.694 73.964 362.214 73.676C361.742 73.38 361.366 72.972 361.086 72.452C360.814 71.924 360.678 71.328 360.678 70.664C360.678 70 360.814 69.412 361.086 68.9C361.366 68.388 361.742 67.992 362.214 67.712C362.694 67.424 363.222 67.28 363.798 67.28ZM366.09 70.688C366.09 70.232 365.994 69.836 365.802 69.5C365.618 69.164 365.374 68.908 365.07 68.732C364.766 68.556 364.438 68.468 364.086 68.468C363.734 68.468 363.406 68.556 363.102 68.732C362.798 68.9 362.55 69.152 362.358 69.488C362.174 69.816 362.082 70.208 362.082 70.664C362.082 71.12 362.174 71.52 362.358 71.864C362.55 72.208 362.798 72.472 363.102 72.656C363.414 72.832 363.742 72.92 364.086 72.92C364.438 72.92 364.766 72.832 365.07 72.656C365.374 72.48 365.618 72.224 365.802 71.888C365.994 71.544 366.09 71.144 366.09 70.688ZM375.327 70.532C375.327 70.78 375.311 71.004 375.279 71.204H370.227C370.267 71.732 370.463 72.156 370.815 72.476C371.167 72.796 371.599 72.956 372.111 72.956C372.847 72.956 373.367 72.648 373.671 72.032H375.147C374.947 72.64 374.583 73.14 374.055 73.532C373.535 73.916 372.887 74.108 372.111 74.108C371.479 74.108 370.911 73.968 370.407 73.688C369.911 73.4 369.519 73 369.231 72.488C368.951 71.968 368.811 71.368 368.811 70.688C368.811 70.008 368.947 69.412 369.219 68.9C369.499 68.38 369.887 67.98 370.383 67.7C370.887 67.42 371.463 67.28 372.111 67.28C372.735 67.28 373.291 67.416 373.779 67.688C374.267 67.96 374.647 68.344 374.919 68.84C375.191 69.328 375.327 69.892 375.327 70.532ZM373.899 70.1C373.891 69.596 373.711 69.192 373.359 68.888C373.007 68.584 372.571 68.432 372.051 68.432C371.579 68.432 371.175 68.584 370.839 68.888C370.503 69.184 370.303 69.588 370.239 70.1H373.899ZM382.191 74.108C381.671 74.108 381.203 74.016 380.787 73.832C380.379 73.64 380.055 73.384 379.815 73.064C379.575 72.736 379.447 72.372 379.431 71.972H380.847C380.871 72.252 381.003 72.488 381.243 72.68C381.491 72.864 381.799 72.956 382.167 72.956C382.551 72.956 382.847 72.884 383.055 72.74C383.271 72.588 383.379 72.396 383.379 72.164C383.379 71.916 383.259 71.732 383.019 71.612C382.787 71.492 382.415 71.36 381.903 71.216C381.407 71.08 381.003 70.948 380.691 70.82C380.379 70.692 380.107 70.496 379.875 70.232C379.651 69.968 379.539 69.62 379.539 69.188C379.539 68.836 379.643 68.516 379.851 68.228C380.059 67.932 380.355 67.7 380.739 67.532C381.131 67.364 381.579 67.28 382.083 67.28C382.835 67.28 383.439 67.472 383.895 67.856C384.359 68.232 384.607 68.748 384.639 69.404H383.271C383.247 69.108 383.127 68.872 382.911 68.696C382.695 68.52 382.403 68.432 382.035 68.432C381.675 68.432 381.399 68.5 381.207 68.636C381.015 68.772 380.919 68.952 380.919 69.176C380.919 69.352 380.983 69.5 381.111 69.62C381.239 69.74 381.395 69.836 381.579 69.908C381.763 69.972 382.035 70.056 382.395 70.16C382.875 70.288 383.267 70.42 383.571 70.556C383.883 70.684 384.151 70.876 384.375 71.132C384.599 71.388 384.715 71.728 384.723 72.152C384.723 72.528 384.619 72.864 384.411 73.16C384.203 73.456 383.907 73.688 383.523 73.856C383.147 74.024 382.703 74.108 382.191 74.108ZM387.569 68.36C387.801 68.056 388.117 67.8 388.517 67.592C388.917 67.384 389.369 67.28 389.873 67.28C390.449 67.28 390.973 67.424 391.445 67.712C391.925 67.992 392.301 68.388 392.573 68.9C392.845 69.412 392.981 70 392.981 70.664C392.981 71.328 392.845 71.924 392.573 72.452C392.301 72.972 391.925 73.38 391.445 73.676C390.973 73.964 390.449 74.108 389.873 74.108C389.369 74.108 388.921 74.008 388.529 73.808C388.137 73.6 387.817 73.344 387.569 73.04V77.144H386.201V67.388H387.569V68.36ZM391.589 70.664C391.589 70.208 391.493 69.816 391.301 69.488C391.117 69.152 390.869 68.9 390.557 68.732C390.253 68.556 389.925 68.468 389.573 68.468C389.229 68.468 388.901 68.556 388.589 68.732C388.285 68.908 388.037 69.164 387.845 69.5C387.661 69.836 387.569 70.232 387.569 70.688C387.569 71.144 387.661 71.544 387.845 71.888C388.037 72.224 388.285 72.48 388.589 72.656C388.901 72.832 389.229 72.92 389.573 72.92C389.925 72.92 390.253 72.832 390.557 72.656C390.869 72.472 391.117 72.208 391.301 71.864C391.493 71.52 391.589 71.12 391.589 70.664ZM393.878 70.664C393.878 70 394.014 69.412 394.286 68.9C394.566 68.388 394.942 67.992 395.414 67.712C395.894 67.424 396.422 67.28 396.998 67.28C397.518 67.28 397.97 67.384 398.354 67.592C398.746 67.792 399.058 68.044 399.29 68.348V67.388H400.67V74H399.29V73.016C399.058 73.328 398.742 73.588 398.342 73.796C397.942 74.004 397.486 74.108 396.974 74.108C396.406 74.108 395.886 73.964 395.414 73.676C394.942 73.38 394.566 72.972 394.286 72.452C394.014 71.924 393.878 71.328 393.878 70.664ZM399.29 70.688C399.29 70.232 399.194 69.836 399.002 69.5C398.818 69.164 398.574 68.908 398.27 68.732C397.966 68.556 397.638 68.468 397.286 68.468C396.934 68.468 396.606 68.556 396.302 68.732C395.998 68.9 395.75 69.152 395.558 69.488C395.374 69.816 395.282 70.208 395.282 70.664C395.282 71.12 395.374 71.52 395.558 71.864C395.75 72.208 395.998 72.472 396.302 72.656C396.614 72.832 396.942 72.92 397.286 72.92C397.638 72.92 397.966 72.832 398.27 72.656C398.574 72.48 398.818 72.224 399.002 71.888C399.194 71.544 399.29 71.144 399.29 70.688ZM402.01 70.688C402.01 70.008 402.146 69.412 402.418 68.9C402.698 68.38 403.082 67.98 403.57 67.7C404.058 67.42 404.618 67.28 405.25 67.28C406.05 67.28 406.71 67.472 407.23 67.856C407.758 68.232 408.114 68.772 408.298 69.476H406.822C406.702 69.148 406.51 68.892 406.246 68.708C405.982 68.524 405.65 68.432 405.25 68.432C404.69 68.432 404.242 68.632 403.906 69.032C403.578 69.424 403.414 69.976 403.414 70.688C403.414 71.4 403.578 71.956 403.906 72.356C404.242 72.756 404.69 72.956 405.25 72.956C406.042 72.956 406.566 72.608 406.822 71.912H408.298C408.106 72.584 407.746 73.12 407.218 73.52C406.69 73.912 406.034 74.108 405.25 74.108C404.618 74.108 404.058 73.968 403.57 73.688C403.082 73.4 402.698 73 402.418 72.488C402.146 71.968 402.01 71.368 402.01 70.688ZM415.722 70.532C415.722 70.78 415.706 71.004 415.674 71.204H410.622C410.662 71.732 410.858 72.156 411.21 72.476C411.562 72.796 411.994 72.956 412.506 72.956C413.242 72.956 413.762 72.648 414.066 72.032H415.542C415.342 72.64 414.978 73.14 414.45 73.532C413.93 73.916 413.282 74.108 412.506 74.108C411.874 74.108 411.306 73.968 410.802 73.688C410.306 73.4 409.914 73 409.626 72.488C409.346 71.968 409.206 71.368 409.206 70.688C409.206 70.008 409.342 69.412 409.614 68.9C409.894 68.38 410.282 67.98 410.778 67.7C411.282 67.42 411.858 67.28 412.506 67.28C413.13 67.28 413.686 67.416 414.174 67.688C414.662 67.96 415.042 68.344 415.314 68.84C415.586 69.328 415.722 69.892 415.722 70.532ZM414.294 70.1C414.286 69.596 414.106 69.192 413.754 68.888C413.402 68.584 412.966 68.432 412.446 68.432C411.974 68.432 411.57 68.584 411.234 68.888C410.898 69.184 410.698 69.588 410.634 70.1H414.294ZM417.62 74.084C417.372 74.084 417.164 74 416.996 73.832C416.828 73.664 416.744 73.456 416.744 73.208C416.744 72.96 416.828 72.752 416.996 72.584C417.164 72.416 417.372 72.332 417.62 72.332C417.86 72.332 418.064 72.416 418.232 72.584C418.4 72.752 418.484 72.96 418.484 73.208C418.484 73.456 418.4 73.664 418.232 73.832C418.064 74 417.86 74.084 417.62 74.084Z" fill="white"/>
</svg>
