<svg xmlns="http://www.w3.org/2000/svg" fill="none" viewBox="0 0 480 360" height="360" width="480">
<g id="Music">
<g id="Music_2">
<rect fill-opacity="0.5" fill="black" rx="15" height="120" width="180" y="150" x="290" id="Rectangle 367"></rect>
<g id="Stop">
<path stroke-width="2" stroke="white" d="M375 208V202C375 200.895 375.895 200 377 200H383C384.105 200 385 200.895 385 202V208C385 209.105 384.105 210 383 210H377C375.895 210 375 209.105 375 208Z" id="Rectangle 368"></path>
</g>
<g id="Next">
<path stroke-width="2" stroke="white" d="M415 201.108C415 200.323 415.864 199.844 416.53 200.26L422.756 204.152C423.383 204.544 423.383 205.456 422.756 205.848L416.53 209.74C415.864 210.156 415 209.677 415 208.892V201.108Z" id="Rectangle 369"></path>
<rect fill="white" rx="1" height="12" width="2" y="199" x="424" id="Rectangle 370"></rect>
</g>
<g id="Previous">
<path stroke-width="2" stroke="white" d="M345 208.892C345 209.677 344.136 210.156 343.47 209.74L337.244 205.848C336.617 205.456 336.617 204.544 337.244 204.152L343.47 200.26C344.136 199.844 345 200.323 345 201.108L345 208.892Z" id="Rectangle 369_2"></path>
<rect fill="white" transform="rotate(180 336 211)" rx="1" height="12" width="2" y="211" x="336" id="Rectangle 370_2"></rect>
</g>
<rect fill-opacity="0.1" fill="white" rx="10" height="20" width="150" y="235" x="305" id="Rectangle 465"></rect>
<path fill="white" d="M367.841 171L366.241 168.22H365.371V171H364.231V164.05H366.631C367.165 164.05 367.615 164.143 367.981 164.33C368.355 164.517 368.631 164.767 368.811 165.08C368.998 165.393 369.091 165.743 369.091 166.13C369.091 166.583 368.958 166.997 368.691 167.37C368.431 167.737 368.028 167.987 367.481 168.12L369.201 171H367.841ZM365.371 167.31H366.631C367.058 167.31 367.378 167.203 367.591 166.99C367.811 166.777 367.921 166.49 367.921 166.13C367.921 165.77 367.815 165.49 367.601 165.29C367.388 165.083 367.065 164.98 366.631 164.98H365.371V167.31ZM375.6 168.11C375.6 168.317 375.586 168.503 375.56 168.67H371.35C371.383 169.11 371.546 169.463 371.84 169.73C372.133 169.997 372.493 170.13 372.92 170.13C373.533 170.13 373.966 169.873 374.22 169.36H375.45C375.283 169.867 374.98 170.283 374.54 170.61C374.106 170.93 373.566 171.09 372.92 171.09C372.393 171.09 371.92 170.973 371.5 170.74C371.086 170.5 370.76 170.167 370.52 169.74C370.286 169.307 370.17 168.807 370.17 168.24C370.17 167.673 370.283 167.177 370.51 166.75C370.743 166.317 371.066 165.983 371.48 165.75C371.9 165.517 372.38 165.4 372.92 165.4C373.44 165.4 373.903 165.513 374.31 165.74C374.716 165.967 375.033 166.287 375.26 166.7C375.486 167.107 375.6 167.577 375.6 168.11ZM374.41 167.75C374.403 167.33 374.253 166.993 373.96 166.74C373.666 166.487 373.303 166.36 372.87 166.36C372.476 166.36 372.14 166.487 371.86 166.74C371.58 166.987 371.413 167.323 371.36 167.75H374.41ZM378.052 166.42V169.47C378.052 169.677 378.098 169.827 378.192 169.92C378.292 170.007 378.458 170.05 378.692 170.05H379.392V171H378.492C377.978 171 377.585 170.88 377.312 170.64C377.038 170.4 376.902 170.01 376.902 169.47V166.42H376.252V165.49H376.902V164.12H378.052V165.49H379.392V166.42H378.052ZM385.432 165.49V171H384.292V170.35C384.112 170.577 383.876 170.757 383.582 170.89C383.296 171.017 382.989 171.08 382.662 171.08C382.229 171.08 381.839 170.99 381.492 170.81C381.152 170.63 380.882 170.363 380.682 170.01C380.489 169.657 380.392 169.23 380.392 168.73V165.49H381.522V168.56C381.522 169.053 381.646 169.433 381.892 169.7C382.139 169.96 382.476 170.09 382.902 170.09C383.329 170.09 383.666 169.96 383.912 169.7C384.166 169.433 384.292 169.053 384.292 168.56V165.49H385.432ZM388.077 166.29C388.243 166.01 388.463 165.793 388.737 165.64C389.017 165.48 389.347 165.4 389.727 165.4V166.58H389.437C388.99 166.58 388.65 166.693 388.417 166.92C388.19 167.147 388.077 167.54 388.077 168.1V171H386.937V165.49H388.077V166.29ZM393.554 165.4C393.988 165.4 394.374 165.49 394.714 165.67C395.061 165.85 395.331 166.117 395.524 166.47C395.718 166.823 395.814 167.25 395.814 167.75V171H394.684V167.92C394.684 167.427 394.561 167.05 394.314 166.79C394.068 166.523 393.731 166.39 393.304 166.39C392.878 166.39 392.538 166.523 392.284 166.79C392.038 167.05 391.914 167.427 391.914 167.92V171H390.774V165.49H391.914V166.12C392.101 165.893 392.338 165.717 392.624 165.59C392.918 165.463 393.228 165.4 393.554 165.4Z" id="Return"></path>
<path fill="#808080" d="M370.871 181.43C371.245 181.497 371.561 181.693 371.821 182.02C372.081 182.347 372.211 182.717 372.211 183.13C372.211 183.483 372.118 183.803 371.931 184.09C371.751 184.37 371.488 184.593 371.141 184.76C370.795 184.92 370.391 185 369.931 185H367.151V178.05H369.801C370.275 178.05 370.681 178.13 371.021 178.29C371.361 178.45 371.618 178.667 371.791 178.94C371.965 179.207 372.051 179.507 372.051 179.84C372.051 180.24 371.945 180.573 371.731 180.84C371.518 181.107 371.231 181.303 370.871 181.43ZM368.291 180.97H369.701C370.075 180.97 370.365 180.887 370.571 180.72C370.785 180.547 370.891 180.3 370.891 179.98C370.891 179.667 370.785 179.423 370.571 179.25C370.365 179.07 370.075 178.98 369.701 178.98H368.291V180.97ZM369.831 184.07C370.218 184.07 370.521 183.977 370.741 183.79C370.961 183.603 371.071 183.343 371.071 183.01C371.071 182.67 370.955 182.4 370.721 182.2C370.488 182 370.178 181.9 369.791 181.9H368.291V184.07H369.831ZM376.64 181.53L378.8 185H377.52L375.95 182.48L374.48 185H373.21L375.37 181.53L373.2 178.05H374.48L376.06 180.59L377.54 178.05H378.81L376.64 181.53ZM382.322 178.05C383.062 178.05 383.708 178.193 384.262 178.48C384.822 178.76 385.252 179.167 385.552 179.7C385.858 180.227 386.012 180.843 386.012 181.55C386.012 182.257 385.858 182.87 385.552 183.39C385.252 183.91 384.822 184.31 384.262 184.59C383.708 184.863 383.062 185 382.322 185H380.052V178.05H382.322ZM382.322 184.07C383.135 184.07 383.758 183.85 384.192 183.41C384.625 182.97 384.842 182.35 384.842 181.55C384.842 180.743 384.625 180.113 384.192 179.66C383.758 179.207 383.135 178.98 382.322 178.98H381.192V184.07H382.322ZM392.852 185H391.712L388.282 179.81V185H387.142V178.04H388.282L391.712 183.22V178.04H392.852V185Z" id="BXDN"></path>
</g>
</g>
</svg>
