<svg xmlns="http://www.w3.org/2000/svg" fill="none" viewBox="0 0 140 42" height="42" width="140">
<path fill="black" d="M5.364 20.716C5.812 20.796 6.192 21.032 6.504 21.424C6.816 21.816 6.972 22.26 6.972 22.756C6.972 23.18 6.86 23.564 6.636 23.908C6.42 24.244 6.104 24.512 5.688 24.712C5.272 24.904 4.788 25 4.236 25H0.9V16.66H4.08C4.648 16.66 5.136 16.756 5.544 16.948C5.952 17.14 6.26 17.4 6.468 17.728C6.676 18.048 6.78 18.408 6.78 18.808C6.78 19.288 6.652 19.688 6.396 20.008C6.14 20.328 5.796 20.564 5.364 20.716ZM2.268 20.164H3.96C4.408 20.164 4.756 20.064 5.004 19.864C5.26 19.656 5.388 19.36 5.388 18.976C5.388 18.6 5.26 18.308 5.004 18.1C4.756 17.884 4.408 17.776 3.96 17.776H2.268V20.164ZM4.116 23.884C4.58 23.884 4.944 23.772 5.208 23.548C5.472 23.324 5.604 23.012 5.604 22.612C5.604 22.204 5.464 21.88 5.184 21.64C4.904 21.4 4.532 21.28 4.068 21.28H2.268V23.884H4.116ZM8.00259 21.664C8.00259 21 8.13859 20.412 8.41059 19.9C8.69059 19.388 9.06659 18.992 9.53859 18.712C10.0186 18.424 10.5466 18.28 11.1226 18.28C11.6426 18.28 12.0946 18.384 12.4786 18.592C12.8706 18.792 13.1826 19.044 13.4146 19.348V18.388H14.7946V25H13.4146V24.016C13.1826 24.328 12.8666 24.588 12.4666 24.796C12.0666 25.004 11.6106 25.108 11.0986 25.108C10.5306 25.108 10.0106 24.964 9.53859 24.676C9.06659 24.38 8.69059 23.972 8.41059 23.452C8.13859 22.924 8.00259 22.328 8.00259 21.664ZM13.4146 21.688C13.4146 21.232 13.3186 20.836 13.1266 20.5C12.9426 20.164 12.6986 19.908 12.3946 19.732C12.0906 19.556 11.7626 19.468 11.4106 19.468C11.0586 19.468 10.7306 19.556 10.4266 19.732C10.1226 19.9 9.87459 20.152 9.68259 20.488C9.49859 20.816 9.40659 21.208 9.40659 21.664C9.40659 22.12 9.49859 22.52 9.68259 22.864C9.87459 23.208 10.1226 23.472 10.4266 23.656C10.7386 23.832 11.0666 23.92 11.4106 23.92C11.7626 23.92 12.0906 23.832 12.3946 23.656C12.6986 23.48 12.9426 23.224 13.1266 22.888C13.3186 22.544 13.4146 22.144 13.4146 21.688ZM18.9914 25.108C18.4714 25.108 18.0034 25.016 17.5874 24.832C17.1794 24.64 16.8554 24.384 16.6154 24.064C16.3754 23.736 16.2474 23.372 16.2314 22.972H17.6474C17.6714 23.252 17.8034 23.488 18.0434 23.68C18.2914 23.864 18.5994 23.956 18.9674 23.956C19.3514 23.956 19.6474 23.884 19.8554 23.74C20.0714 23.588 20.1794 23.396 20.1794 23.164C20.1794 22.916 20.0594 22.732 19.8194 22.612C19.5874 22.492 19.2154 22.36 18.7034 22.216C18.2074 22.08 17.8034 21.948 17.4914 21.82C17.1794 21.692 16.9074 21.496 16.6754 21.232C16.4514 20.968 16.3394 20.62 16.3394 20.188C16.3394 19.836 16.4434 19.516 16.6514 19.228C16.8594 18.932 17.1554 18.7 17.5394 18.532C17.9314 18.364 18.3794 18.28 18.8834 18.28C19.6354 18.28 20.2394 18.472 20.6954 18.856C21.1594 19.232 21.4074 19.748 21.4394 20.404H20.0714C20.0474 20.108 19.9274 19.872 19.7114 19.696C19.4954 19.52 19.2034 19.432 18.8354 19.432C18.4754 19.432 18.1994 19.5 18.0074 19.636C17.8154 19.772 17.7194 19.952 17.7194 20.176C17.7194 20.352 17.7834 20.5 17.9114 20.62C18.0394 20.74 18.1954 20.836 18.3794 20.908C18.5634 20.972 18.8354 21.056 19.1954 21.16C19.6754 21.288 20.0674 21.42 20.3714 21.556C20.6834 21.684 20.9514 21.876 21.1754 22.132C21.3994 22.388 21.5154 22.728 21.5234 23.152C21.5234 23.528 21.4194 23.864 21.2114 24.16C21.0034 24.456 20.7074 24.688 20.3234 24.856C19.9474 25.024 19.5034 25.108 18.9914 25.108ZM25.4016 25.108C24.8816 25.108 24.4136 25.016 23.9976 24.832C23.5896 24.64 23.2656 24.384 23.0256 24.064C22.7856 23.736 22.6576 23.372 22.6416 22.972H24.0576C24.0816 23.252 24.2136 23.488 24.4536 23.68C24.7016 23.864 25.0096 23.956 25.3776 23.956C25.7616 23.956 26.0576 23.884 26.2656 23.74C26.4816 23.588 26.5896 23.396 26.5896 23.164C26.5896 22.916 26.4696 22.732 26.2296 22.612C25.9976 22.492 25.6256 22.36 25.1136 22.216C24.6176 22.08 24.2136 21.948 23.9016 21.82C23.5896 21.692 23.3176 21.496 23.0856 21.232C22.8616 20.968 22.7496 20.62 22.7496 20.188C22.7496 19.836 22.8536 19.516 23.0616 19.228C23.2696 18.932 23.5656 18.7 23.9496 18.532C24.3416 18.364 24.7896 18.28 25.2936 18.28C26.0456 18.28 26.6496 18.472 27.1056 18.856C27.5696 19.232 27.8176 19.748 27.8496 20.404H26.4816C26.4576 20.108 26.3376 19.872 26.1216 19.696C25.9056 19.52 25.6136 19.432 25.2456 19.432C24.8856 19.432 24.6096 19.5 24.4176 19.636C24.2256 19.772 24.1296 19.952 24.1296 20.176C24.1296 20.352 24.1936 20.5 24.3216 20.62C24.4496 20.74 24.6056 20.836 24.7896 20.908C24.9736 20.972 25.2456 21.056 25.6056 21.16C26.0856 21.288 26.4776 21.42 26.7816 21.556C27.0936 21.684 27.3616 21.876 27.5856 22.132C27.8096 22.388 27.9256 22.728 27.9336 23.152C27.9336 23.528 27.8296 23.864 27.6216 24.16C27.4136 24.456 27.1176 24.688 26.7336 24.856C26.3576 25.024 25.9136 25.108 25.4016 25.108Z"></path>
</svg>
