<svg xmlns="http://www.w3.org/2000/svg" fill="none" viewBox="0 0 40 40" height="40" width="40">
<rect fill="#E6E6E6" rx="15" height="40" width="40"></rect>
<path fill="black" d="M10 18C10 17.4477 10.4477 17 11 17H15C15.5523 17 16 17.4477 16 18V18C16 18.5523 15.5523 19 15 19H14V23C14 23.5523 13.5523 24 13 24V24C12.4477 24 12 23.5523 12 23V19H11C10.4477 19 10 18.5523 10 18V18Z"></path>
<path fill="black" d="M18.6284 17.5495C19.0107 16.8698 19.9893 16.8698 20.3716 17.5495L23.1617 22.5097C23.5367 23.1763 23.055 24 22.2902 24H16.7098C15.945 24 15.4633 23.1763 15.8383 22.5097L18.6284 17.5495Z"></path>
<rect fill="black" rx="1" height="5" width="2" y="19" x="25"></rect>
<circle stroke-width="2" stroke="black" r="1.5" cy="19.5" cx="27.5"></circle>
</svg>
