<svg xmlns="http://www.w3.org/2000/svg" fill="none" viewBox="0 0 480 360" height="360" width="480">
<g clip-path="url(#clip0_621_187)">
<rect fill="#0080FF" height="360" width="480"></rect>
<path fill="#0000FF" d="M0 0H150V360H0V0Z"></path>
<path fill-opacity="0.25" fill="white" d="M0 80H150V110H0V80Z"></path>
<path fill="white" d="M50.864 23.112C50.1173 23.112 49.4453 22.984 48.848 22.728C48.2507 22.4613 47.7813 22.088 47.44 21.608C47.0987 21.128 46.928 20.568 46.928 19.928H48.88C48.9227 20.408 49.1093 20.8027 49.44 21.112C49.7813 21.4213 50.256 21.576 50.864 21.576C51.4933 21.576 51.984 21.4267 52.336 21.128C52.688 20.8187 52.864 20.424 52.864 19.944C52.864 19.5707 52.752 19.2667 52.528 19.032C52.3147 18.7973 52.0427 18.616 51.712 18.488C51.392 18.36 50.944 18.2213 50.368 18.072C49.6427 17.88 49.0507 17.688 48.592 17.496C48.144 17.2933 47.76 16.984 47.44 16.568C47.12 16.152 46.96 15.5973 46.96 14.904C46.96 14.264 47.12 13.704 47.44 13.224C47.76 12.744 48.208 12.376 48.784 12.12C49.36 11.864 50.0267 11.736 50.784 11.736C51.8613 11.736 52.7413 12.008 53.424 12.552C54.1173 13.0853 54.5013 13.8213 54.576 14.76H52.56C52.528 14.3547 52.336 14.008 51.984 13.72C51.632 13.432 51.168 13.288 50.592 13.288C50.0693 13.288 49.6427 13.4213 49.312 13.688C48.9813 13.9547 48.816 14.3387 48.816 14.84C48.816 15.1813 48.9173 15.464 49.12 15.688C49.3333 15.9013 49.6 16.072 49.92 16.2C50.24 16.328 50.6773 16.4667 51.232 16.616C51.968 16.8187 52.5653 17.0213 53.024 17.224C53.4933 17.4267 53.888 17.7413 54.208 18.168C54.5387 18.584 54.704 19.144 54.704 19.848C54.704 20.4133 54.5493 20.9467 54.24 21.448C53.9413 21.9493 53.4987 22.3547 52.912 22.664C52.336 22.9627 51.6533 23.112 50.864 23.112ZM56.2483 18.584C56.2483 17.6773 56.4296 16.8827 56.7923 16.2C57.1656 15.5067 57.6776 14.9733 58.3283 14.6C58.9789 14.2267 59.7256 14.04 60.5683 14.04C61.6349 14.04 62.5149 14.296 63.2083 14.808C63.9123 15.3093 64.3869 16.0293 64.6323 16.968H62.6643C62.5043 16.5307 62.2483 16.1893 61.8963 15.944C61.5443 15.6987 61.1016 15.576 60.5683 15.576C59.8216 15.576 59.2243 15.8427 58.7763 16.376C58.3389 16.8987 58.1203 17.6347 58.1203 18.584C58.1203 19.5333 58.3389 20.2747 58.7763 20.808C59.2243 21.3413 59.8216 21.608 60.5683 21.608C61.6243 21.608 62.3229 21.144 62.6643 20.216H64.6323C64.3763 21.112 63.8963 21.8267 63.1923 22.36C62.4883 22.8827 61.6136 23.144 60.5683 23.144C59.7256 23.144 58.9789 22.9573 58.3283 22.584C57.6776 22.2 57.1656 21.6667 56.7923 20.984C56.4296 20.2907 56.2483 19.4907 56.2483 18.584ZM68.274 15.464C68.5407 15.016 68.8927 14.6693 69.33 14.424C69.778 14.168 70.306 14.04 70.914 14.04V15.928H70.45C69.7353 15.928 69.1913 16.1093 68.818 16.472C68.4553 16.8347 68.274 17.464 68.274 18.36V23H66.45V14.184H68.274V15.464ZM71.9826 18.552C71.9826 17.6667 72.164 16.8827 72.5266 16.2C72.9 15.5173 73.4013 14.9893 74.0306 14.616C74.6706 14.232 75.3746 14.04 76.1426 14.04C76.836 14.04 77.4386 14.1787 77.9506 14.456C78.4733 14.7227 78.8893 15.0587 79.1986 15.464V14.184H81.0386V23H79.1986V21.688C78.8893 22.104 78.468 22.4507 77.9346 22.728C77.4013 23.0053 76.7933 23.144 76.1106 23.144C75.3533 23.144 74.66 22.952 74.0306 22.568C73.4013 22.1733 72.9 21.6293 72.5266 20.936C72.164 20.232 71.9826 19.4373 71.9826 18.552ZM79.1986 18.584C79.1986 17.976 79.0706 17.448 78.8146 17C78.5693 16.552 78.244 16.2107 77.8386 15.976C77.4333 15.7413 76.996 15.624 76.5266 15.624C76.0573 15.624 75.62 15.7413 75.2146 15.976C74.8093 16.2 74.4786 16.536 74.2226 16.984C73.9773 17.4213 73.8546 17.944 73.8546 18.552C73.8546 19.16 73.9773 19.6933 74.2226 20.152C74.4786 20.6107 74.8093 20.9627 75.2146 21.208C75.6306 21.4427 76.068 21.56 76.5266 21.56C76.996 21.56 77.4333 21.4427 77.8386 21.208C78.244 20.9733 78.5693 20.632 78.8146 20.184C79.0706 19.7253 79.1986 19.192 79.1986 18.584ZM85.5624 15.672V20.552C85.5624 20.8827 85.637 21.1227 85.7864 21.272C85.9464 21.4107 86.213 21.48 86.5864 21.48H87.7064V23H86.2664C85.445 23 84.8157 22.808 84.3784 22.424C83.941 22.04 83.7224 21.416 83.7224 20.552V15.672H82.6824V14.184H83.7224V11.992H85.5624V14.184H87.7064V15.672H85.5624ZM88.7795 18.584C88.7795 17.6773 88.9608 16.8827 89.3235 16.2C89.6968 15.5067 90.2088 14.9733 90.8595 14.6C91.5102 14.2267 92.2568 14.04 93.0995 14.04C94.1662 14.04 95.0462 14.296 95.7395 14.808C96.4435 15.3093 96.9182 16.0293 97.1635 16.968H95.1955C95.0355 16.5307 94.7795 16.1893 94.4275 15.944C94.0755 15.6987 93.6328 15.576 93.0995 15.576C92.3528 15.576 91.7555 15.8427 91.3075 16.376C90.8702 16.8987 90.6515 17.6347 90.6515 18.584C90.6515 19.5333 90.8702 20.2747 91.3075 20.808C91.7555 21.3413 92.3528 21.608 93.0995 21.608C94.1555 21.608 94.8542 21.144 95.1955 20.216H97.1635C96.9075 21.112 96.4275 21.8267 95.7235 22.36C95.0195 22.8827 94.1448 23.144 93.0995 23.144C92.2568 23.144 91.5102 22.9573 90.8595 22.584C90.2088 22.2 89.6968 21.6667 89.3235 20.984C88.9608 20.2907 88.7795 19.4907 88.7795 18.584ZM103.541 14.04C104.213 14.04 104.811 14.184 105.333 14.472C105.867 14.76 106.283 15.1867 106.581 15.752C106.891 16.3173 107.045 17 107.045 17.8V23H105.237V18.072C105.237 17.2827 105.04 16.68 104.645 16.264C104.251 15.8373 103.712 15.624 103.029 15.624C102.347 15.624 101.803 15.8373 101.397 16.264C101.003 16.68 100.805 17.2827 100.805 18.072V23H98.9813V11.16H100.805V15.208C101.115 14.8347 101.504 14.5467 101.973 14.344C102.453 14.1413 102.976 14.04 103.541 14.04ZM114.444 23.112C113.409 23.112 112.455 22.872 111.58 22.392C110.716 21.9013 110.028 21.224 109.516 20.36C109.015 19.4853 108.764 18.504 108.764 17.416C108.764 16.328 109.015 15.352 109.516 14.488C110.028 13.624 110.716 12.952 111.58 12.472C112.455 11.9813 113.409 11.736 114.444 11.736C115.489 11.736 116.444 11.9813 117.308 12.472C118.183 12.952 118.871 13.624 119.372 14.488C119.873 15.352 120.124 16.328 120.124 17.416C120.124 18.504 119.873 19.4853 119.372 20.36C118.871 21.224 118.183 21.9013 117.308 22.392C116.444 22.872 115.489 23.112 114.444 23.112ZM114.444 21.528C115.18 21.528 115.836 21.3627 116.412 21.032C116.988 20.6907 117.436 20.2107 117.756 19.592C118.087 18.9627 118.252 18.2373 118.252 17.416C118.252 16.5947 118.087 15.8747 117.756 15.256C117.436 14.6373 116.988 14.1627 116.412 13.832C115.836 13.5013 115.18 13.336 114.444 13.336C113.708 13.336 113.052 13.5013 112.476 13.832C111.9 14.1627 111.447 14.6373 111.116 15.256C110.796 15.8747 110.636 16.5947 110.636 17.416C110.636 18.2373 110.796 18.9627 111.116 19.592C111.447 20.2107 111.9 20.6907 112.476 21.032C113.052 21.3627 113.708 21.528 114.444 21.528ZM125.583 23.112C124.836 23.112 124.164 22.984 123.567 22.728C122.969 22.4613 122.5 22.088 122.159 21.608C121.817 21.128 121.647 20.568 121.647 19.928H123.599C123.641 20.408 123.828 20.8027 124.159 21.112C124.5 21.4213 124.975 21.576 125.583 21.576C126.212 21.576 126.703 21.4267 127.055 21.128C127.407 20.8187 127.583 20.424 127.583 19.944C127.583 19.5707 127.471 19.2667 127.247 19.032C127.033 18.7973 126.761 18.616 126.431 18.488C126.111 18.36 125.663 18.2213 125.087 18.072C124.361 17.88 123.769 17.688 123.311 17.496C122.863 17.2933 122.479 16.984 122.159 16.568C121.839 16.152 121.679 15.5973 121.679 14.904C121.679 14.264 121.839 13.704 122.159 13.224C122.479 12.744 122.927 12.376 123.503 12.12C124.079 11.864 124.745 11.736 125.503 11.736C126.58 11.736 127.46 12.008 128.143 12.552C128.836 13.0853 129.22 13.8213 129.295 14.76H127.279C127.247 14.3547 127.055 14.008 126.703 13.72C126.351 13.432 125.887 13.288 125.311 13.288C124.788 13.288 124.361 13.4213 124.031 13.688C123.7 13.9547 123.535 14.3387 123.535 14.84C123.535 15.1813 123.636 15.464 123.839 15.688C124.052 15.9013 124.319 16.072 124.639 16.2C124.959 16.328 125.396 16.4667 125.951 16.616C126.687 16.8187 127.284 17.0213 127.743 17.224C128.212 17.4267 128.607 17.7413 128.927 18.168C129.257 18.584 129.423 19.144 129.423 19.848C129.423 20.4133 129.268 20.9467 128.959 21.448C128.66 21.9493 128.217 22.3547 127.631 22.664C127.055 22.9627 126.372 23.112 125.583 23.112ZM52.976 39L50.416 34.552H49.024V39H47.2V27.88H51.04C51.8933 27.88 52.6133 28.0293 53.2 28.328C53.7973 28.6267 54.24 29.0267 54.528 29.528C54.8267 30.0293 54.976 30.5893 54.976 31.208C54.976 31.9333 54.7627 32.5947 54.336 33.192C53.92 33.7787 53.2747 34.1787 52.4 34.392L55.152 39H52.976ZM49.024 33.096H51.04C51.7227 33.096 52.2347 32.9253 52.576 32.584C52.928 32.2427 53.104 31.784 53.104 31.208C53.104 30.632 52.9333 30.184 52.592 29.864C52.2507 29.5333 51.7333 29.368 51.04 29.368H49.024V33.096ZM65.3894 34.376C65.3894 34.7067 65.368 35.0053 65.3254 35.272H58.5894C58.6427 35.976 58.904 36.5413 59.3734 36.968C59.8427 37.3947 60.4187 37.608 61.1014 37.608C62.0827 37.608 62.776 37.1973 63.1814 36.376H65.1494C64.8827 37.1867 64.3974 37.8533 63.6934 38.376C63 38.888 62.136 39.144 61.1014 39.144C60.2587 39.144 59.5014 38.9573 58.8294 38.584C58.168 38.2 57.6454 37.6667 57.2614 36.984C56.888 36.2907 56.7014 35.4907 56.7014 34.584C56.7014 33.6773 56.8827 32.8827 57.2454 32.2C57.6187 31.5067 58.136 30.9733 58.7974 30.6C59.4694 30.2267 60.2374 30.04 61.1014 30.04C61.9334 30.04 62.6747 30.2213 63.3254 30.584C63.976 30.9467 64.4827 31.4587 64.8454 32.12C65.208 32.7707 65.3894 33.5227 65.3894 34.376ZM63.4854 33.8C63.4747 33.128 63.2347 32.5893 62.7654 32.184C62.296 31.7787 61.7147 31.576 61.0214 31.576C60.392 31.576 59.8534 31.7787 59.4054 32.184C58.9574 32.5787 58.6907 33.1173 58.6054 33.8H63.4854ZM66.5764 34.584C66.5764 33.6773 66.7577 32.8827 67.1204 32.2C67.4937 31.5067 68.0057 30.9733 68.6564 30.6C69.307 30.2267 70.0537 30.04 70.8964 30.04C71.963 30.04 72.843 30.296 73.5364 30.808C74.2404 31.3093 74.715 32.0293 74.9604 32.968H72.9924C72.8324 32.5307 72.5764 32.1893 72.2244 31.944C71.8724 31.6987 71.4297 31.576 70.8964 31.576C70.1497 31.576 69.5524 31.8427 69.1044 32.376C68.667 32.8987 68.4484 33.6347 68.4484 34.584C68.4484 35.5333 68.667 36.2747 69.1044 36.808C69.5524 37.3413 70.1497 37.608 70.8964 37.608C71.9524 37.608 72.651 37.144 72.9924 36.216H74.9604C74.7044 37.112 74.2244 37.8267 73.5204 38.36C72.8164 38.8827 71.9417 39.144 70.8964 39.144C70.0537 39.144 69.307 38.9573 68.6564 38.584C68.0057 38.2 67.4937 37.6667 67.1204 36.984C66.7577 36.2907 66.5764 35.4907 66.5764 34.584ZM80.6021 39.144C79.7701 39.144 79.0181 38.9573 78.3461 38.584C77.6741 38.2 77.1461 37.6667 76.7621 36.984C76.3781 36.2907 76.1861 35.4907 76.1861 34.584C76.1861 33.688 76.3835 32.8933 76.7781 32.2C77.1728 31.5067 77.7115 30.9733 78.3941 30.6C79.0768 30.2267 79.8395 30.04 80.6821 30.04C81.5248 30.04 82.2875 30.2267 82.9701 30.6C83.6528 30.9733 84.1915 31.5067 84.5861 32.2C84.9808 32.8933 85.1781 33.688 85.1781 34.584C85.1781 35.48 84.9755 36.2747 84.5701 36.968C84.1648 37.6613 83.6101 38.2 82.9061 38.584C82.2128 38.9573 81.4448 39.144 80.6021 39.144ZM80.6021 37.56C81.0715 37.56 81.5088 37.448 81.9141 37.224C82.3301 37 82.6661 36.664 82.9221 36.216C83.1781 35.768 83.3061 35.224 83.3061 34.584C83.3061 33.944 83.1835 33.4053 82.9381 32.968C82.6928 32.52 82.3675 32.184 81.9621 31.96C81.5568 31.736 81.1195 31.624 80.6501 31.624C80.1808 31.624 79.7435 31.736 79.3381 31.96C78.9435 32.184 78.6288 32.52 78.3941 32.968C78.1595 33.4053 78.0421 33.944 78.0421 34.584C78.0421 35.5333 78.2821 36.2693 78.7621 36.792C79.2528 37.304 79.8661 37.56 80.6021 37.56ZM90.3893 37.368L92.8853 30.184H94.8212L91.4613 39H89.2853L85.9413 30.184H87.8932L90.3893 37.368ZM104.28 34.376C104.28 34.7067 104.259 35.0053 104.216 35.272H97.48C97.5333 35.976 97.7947 36.5413 98.264 36.968C98.7333 37.3947 99.3093 37.608 99.992 37.608C100.973 37.608 101.667 37.1973 102.072 36.376H104.04C103.773 37.1867 103.288 37.8533 102.584 38.376C101.891 38.888 101.027 39.144 99.992 39.144C99.1493 39.144 98.392 38.9573 97.72 38.584C97.0587 38.2 96.536 37.6667 96.152 36.984C95.7787 36.2907 95.592 35.4907 95.592 34.584C95.592 33.6773 95.7733 32.8827 96.136 32.2C96.5093 31.5067 97.0267 30.9733 97.688 30.6C98.36 30.2267 99.128 30.04 99.992 30.04C100.824 30.04 101.565 30.2213 102.216 30.584C102.867 30.9467 103.373 31.4587 103.736 32.12C104.099 32.7707 104.28 33.5227 104.28 34.376ZM102.376 33.8C102.365 33.128 102.125 32.5893 101.656 32.184C101.187 31.7787 100.605 31.576 99.912 31.576C99.2827 31.576 98.744 31.7787 98.296 32.184C97.848 32.5787 97.5813 33.1173 97.496 33.8H102.376ZM107.899 31.464C108.166 31.016 108.518 30.6693 108.955 30.424C109.403 30.168 109.931 30.04 110.539 30.04V31.928H110.075C109.36 31.928 108.816 32.1093 108.443 32.472C108.08 32.8347 107.899 33.464 107.899 34.36V39H106.075V30.184H107.899V31.464ZM120.152 30.184L114.744 43.144H112.856L114.648 38.856L111.176 30.184H113.208L115.688 36.904L118.264 30.184H120.152Z"></path>
<path fill="white" d="M36.288 60.66V61.776H34.068V69H32.7V61.776H30.468V60.66H36.288ZM39.0414 63.348C39.2414 63.012 39.5054 62.752 39.8334 62.568C40.1694 62.376 40.5654 62.28 41.0214 62.28V63.696H40.6734C40.1374 63.696 39.7294 63.832 39.4494 64.104C39.1774 64.376 39.0414 64.848 39.0414 65.52V69H37.6734V62.388H39.0414V63.348ZM45.1469 69.108C44.5229 69.108 43.9589 68.968 43.4549 68.688C42.9509 68.4 42.5549 68 42.2669 67.488C41.9789 66.968 41.8349 66.368 41.8349 65.688C41.8349 65.016 41.9829 64.42 42.2789 63.9C42.5749 63.38 42.9789 62.98 43.4909 62.7C44.0029 62.42 44.5749 62.28 45.2069 62.28C45.8389 62.28 46.4109 62.42 46.9229 62.7C47.4349 62.98 47.8389 63.38 48.1349 63.9C48.4309 64.42 48.5789 65.016 48.5789 65.688C48.5789 66.36 48.4269 66.956 48.1229 67.476C47.8189 67.996 47.4029 68.4 46.8749 68.688C46.3549 68.968 45.7789 69.108 45.1469 69.108ZM45.1469 67.92C45.4989 67.92 45.8269 67.836 46.1309 67.668C46.4429 67.5 46.6949 67.248 46.8869 66.912C47.0789 66.576 47.1749 66.168 47.1749 65.688C47.1749 65.208 47.0829 64.804 46.8989 64.476C46.7149 64.14 46.4709 63.888 46.1669 63.72C45.8629 63.552 45.5349 63.468 45.1829 63.468C44.8309 63.468 44.5029 63.552 44.1989 63.72C43.9029 63.888 43.6669 64.14 43.4909 64.476C43.3149 64.804 43.2269 65.208 43.2269 65.688C43.2269 66.4 43.4069 66.952 43.7669 67.344C44.1349 67.728 44.5949 67.92 45.1469 67.92ZM55.9193 62.388V69H54.5513V68.22C54.3353 68.492 54.0513 68.708 53.6993 68.868C53.3553 69.02 52.9873 69.096 52.5953 69.096C52.0753 69.096 51.6073 68.988 51.1913 68.772C50.7833 68.556 50.4593 68.236 50.2193 67.812C49.9873 67.388 49.8713 66.876 49.8713 66.276V62.388H51.2273V66.072C51.2273 66.664 51.3753 67.12 51.6713 67.44C51.9673 67.752 52.3713 67.908 52.8833 67.908C53.3953 67.908 53.7993 67.752 54.0953 67.44C54.3993 67.12 54.5513 66.664 54.5513 66.072V62.388H55.9193ZM59.0922 63.372C59.3242 63.052 59.6402 62.792 60.0402 62.592C60.4482 62.384 60.9002 62.28 61.3962 62.28C61.9802 62.28 62.5082 62.42 62.9802 62.7C63.4522 62.98 63.8242 63.38 64.0962 63.9C64.3682 64.412 64.5042 65 64.5042 65.664C64.5042 66.328 64.3682 66.924 64.0962 67.452C63.8242 67.972 63.4482 68.38 62.9682 68.676C62.4962 68.964 61.9722 69.108 61.3962 69.108C60.8842 69.108 60.4282 69.008 60.0282 68.808C59.6362 68.608 59.3242 68.352 59.0922 68.04V69H57.7242V60.12H59.0922V63.372ZM63.1122 65.664C63.1122 65.208 63.0162 64.816 62.8242 64.488C62.6402 64.152 62.3922 63.9 62.0802 63.732C61.7762 63.556 61.4482 63.468 61.0962 63.468C60.7522 63.468 60.4242 63.556 60.1122 63.732C59.8082 63.908 59.5602 64.164 59.3682 64.5C59.1842 64.836 59.0922 65.232 59.0922 65.688C59.0922 66.144 59.1842 66.544 59.3682 66.888C59.5602 67.224 59.8082 67.48 60.1122 67.656C60.4242 67.832 60.7522 67.92 61.0962 67.92C61.4482 67.92 61.7762 67.832 62.0802 67.656C62.3922 67.472 62.6402 67.208 62.8242 66.864C63.0162 66.52 63.1122 66.12 63.1122 65.664ZM67.225 60.12V69H65.857V60.12H67.225ZM75.0811 65.532C75.0811 65.78 75.0651 66.004 75.0331 66.204H69.9811C70.0211 66.732 70.2171 67.156 70.5691 67.476C70.9211 67.796 71.3531 67.956 71.8651 67.956C72.6011 67.956 73.1211 67.648 73.4251 67.032H74.9011C74.7011 67.64 74.3371 68.14 73.8091 68.532C73.2891 68.916 72.6411 69.108 71.8651 69.108C71.2331 69.108 70.6651 68.968 70.1611 68.688C69.6651 68.4 69.2731 68 68.9851 67.488C68.7051 66.968 68.5651 66.368 68.5651 65.688C68.5651 65.008 68.7011 64.412 68.9731 63.9C69.2531 63.38 69.6411 62.98 70.1371 62.7C70.6411 62.42 71.2171 62.28 71.8651 62.28C72.4891 62.28 73.0451 62.416 73.5331 62.688C74.0211 62.96 74.4011 63.344 74.6731 63.84C74.9451 64.328 75.0811 64.892 75.0811 65.532ZM73.6531 65.1C73.6451 64.596 73.4651 64.192 73.1131 63.888C72.7611 63.584 72.3251 63.432 71.8051 63.432C71.3331 63.432 70.9291 63.584 70.5931 63.888C70.2571 64.184 70.0571 64.588 69.9931 65.1H73.6531ZM78.8273 69.108C78.3073 69.108 77.8393 69.016 77.4233 68.832C77.0153 68.64 76.6913 68.384 76.4513 68.064C76.2113 67.736 76.0833 67.372 76.0673 66.972H77.4833C77.5073 67.252 77.6393 67.488 77.8793 67.68C78.1273 67.864 78.4353 67.956 78.8033 67.956C79.1873 67.956 79.4833 67.884 79.6913 67.74C79.9073 67.588 80.0153 67.396 80.0153 67.164C80.0153 66.916 79.8953 66.732 79.6553 66.612C79.4233 66.492 79.0513 66.36 78.5393 66.216C78.0433 66.08 77.6393 65.948 77.3273 65.82C77.0153 65.692 76.7433 65.496 76.5113 65.232C76.2873 64.968 76.1753 64.62 76.1753 64.188C76.1753 63.836 76.2793 63.516 76.4873 63.228C76.6953 62.932 76.9913 62.7 77.3753 62.532C77.7673 62.364 78.2153 62.28 78.7193 62.28C79.4713 62.28 80.0753 62.472 80.5313 62.856C80.9953 63.232 81.2433 63.748 81.2753 64.404H79.9073C79.8833 64.108 79.7633 63.872 79.5473 63.696C79.3313 63.52 79.0393 63.432 78.6713 63.432C78.3113 63.432 78.0353 63.5 77.8433 63.636C77.6513 63.772 77.5553 63.952 77.5553 64.176C77.5553 64.352 77.6193 64.5 77.7473 64.62C77.8753 64.74 78.0313 64.836 78.2153 64.908C78.3993 64.972 78.6713 65.056 79.0313 65.16C79.5113 65.288 79.9033 65.42 80.2073 65.556C80.5193 65.684 80.7873 65.876 81.0113 66.132C81.2353 66.388 81.3513 66.728 81.3593 67.152C81.3593 67.528 81.2553 67.864 81.0473 68.16C80.8393 68.456 80.5433 68.688 80.1593 68.856C79.7833 69.024 79.3393 69.108 78.8273 69.108ZM86.2575 62.28C86.7615 62.28 87.2095 62.388 87.6015 62.604C88.0015 62.82 88.3135 63.14 88.5375 63.564C88.7695 63.988 88.8855 64.5 88.8855 65.1V69H87.5295V65.304C87.5295 64.712 87.3815 64.26 87.0855 63.948C86.7895 63.628 86.3855 63.468 85.8735 63.468C85.3615 63.468 84.9535 63.628 84.6495 63.948C84.3535 64.26 84.2055 64.712 84.2055 65.304V69H82.8375V60.12H84.2055V63.156C84.4375 62.876 84.7295 62.66 85.0815 62.508C85.4415 62.356 85.8335 62.28 86.2575 62.28ZM93.4985 69.108C92.8745 69.108 92.3105 68.968 91.8065 68.688C91.3025 68.4 90.9065 68 90.6185 67.488C90.3305 66.968 90.1865 66.368 90.1865 65.688C90.1865 65.016 90.3345 64.42 90.6305 63.9C90.9265 63.38 91.3305 62.98 91.8425 62.7C92.3545 62.42 92.9265 62.28 93.5585 62.28C94.1905 62.28 94.7625 62.42 95.2745 62.7C95.7865 62.98 96.1905 63.38 96.4865 63.9C96.7825 64.42 96.9305 65.016 96.9305 65.688C96.9305 66.36 96.7785 66.956 96.4745 67.476C96.1705 67.996 95.7545 68.4 95.2265 68.688C94.7065 68.968 94.1305 69.108 93.4985 69.108ZM93.4985 67.92C93.8505 67.92 94.1785 67.836 94.4825 67.668C94.7945 67.5 95.0465 67.248 95.2385 66.912C95.4305 66.576 95.5265 66.168 95.5265 65.688C95.5265 65.208 95.4345 64.804 95.2505 64.476C95.0665 64.14 94.8225 63.888 94.5185 63.72C94.2145 63.552 93.8865 63.468 93.5345 63.468C93.1825 63.468 92.8545 63.552 92.5505 63.72C92.2545 63.888 92.0185 64.14 91.8425 64.476C91.6665 64.804 91.5785 65.208 91.5785 65.688C91.5785 66.4 91.7585 66.952 92.1185 67.344C92.4865 67.728 92.9465 67.92 93.4985 67.92ZM101.151 69.108C100.527 69.108 99.9628 68.968 99.4588 68.688C98.9548 68.4 98.5588 68 98.2708 67.488C97.9828 66.968 97.8388 66.368 97.8388 65.688C97.8388 65.016 97.9868 64.42 98.2828 63.9C98.5788 63.38 98.9828 62.98 99.4948 62.7C100.007 62.42 100.579 62.28 101.211 62.28C101.843 62.28 102.415 62.42 102.927 62.7C103.439 62.98 103.843 63.38 104.139 63.9C104.435 64.42 104.583 65.016 104.583 65.688C104.583 66.36 104.431 66.956 104.127 67.476C103.823 67.996 103.407 68.4 102.879 68.688C102.359 68.968 101.783 69.108 101.151 69.108ZM101.151 67.92C101.503 67.92 101.831 67.836 102.135 67.668C102.447 67.5 102.699 67.248 102.891 66.912C103.083 66.576 103.179 66.168 103.179 65.688C103.179 65.208 103.087 64.804 102.903 64.476C102.719 64.14 102.475 63.888 102.171 63.72C101.867 63.552 101.539 63.468 101.187 63.468C100.835 63.468 100.507 63.552 100.203 63.72C99.9068 63.888 99.6708 64.14 99.4948 64.476C99.3188 64.804 99.2308 65.208 99.2308 65.688C99.2308 66.4 99.4108 66.952 99.7708 67.344C100.139 67.728 100.599 67.92 101.151 67.92ZM107.531 63.504V67.164C107.531 67.412 107.587 67.592 107.699 67.704C107.819 67.808 108.019 67.86 108.299 67.86H109.139V69H108.059C107.443 69 106.971 68.856 106.643 68.568C106.315 68.28 106.151 67.812 106.151 67.164V63.504H105.371V62.388H106.151V60.744H107.531V62.388H109.139V63.504H107.531Z"></path>
<path fill="white" d="M10 61C10 60.4477 10.4477 60 11 60H21C21.5523 60 22 60.4477 22 61V61C22 61.5523 21.5523 62 21 62H11C10.4477 62 10 61.5523 10 61V61Z"></path>
<path fill="white" d="M10 65C10 64.4477 10.4477 64 11 64H15C15.5523 64 16 64.4477 16 65V65C16 65.5523 15.5523 66 15 66H11C10.4477 66 10 65.5523 10 65V65Z"></path>
<path fill="white" d="M10 69C10 68.4477 10.4477 68 11 68H18C18.5523 68 19 68.4477 19 69V69C19 69.5523 18.5523 70 18 70H11C10.4477 70 10 69.5523 10 69V69Z"></path>
<path fill="white" d="M32.268 121.764V124.212H35.148V125.328H32.268V127.884H35.508V129H30.9V120.648H35.508V121.764H32.268ZM40.025 125.652L42.161 129H40.613L39.185 126.756L37.841 129H36.413L38.549 125.748L36.413 122.388H37.961L39.389 124.632L40.733 122.388H42.161L40.025 125.652ZM43.8773 121.512C43.6293 121.512 43.4213 121.428 43.2533 121.26C43.0853 121.092 43.0013 120.884 43.0013 120.636C43.0013 120.388 43.0853 120.18 43.2533 120.012C43.4213 119.844 43.6293 119.76 43.8773 119.76C44.1173 119.76 44.3213 119.844 44.4893 120.012C44.6573 120.18 44.7413 120.388 44.7413 120.636C44.7413 120.884 44.6573 121.092 44.4893 121.26C44.3213 121.428 44.1173 121.512 43.8773 121.512ZM44.5493 122.388V129H43.1813V122.388H44.5493ZM47.9413 123.504V127.164C47.9413 127.412 47.9973 127.592 48.1093 127.704C48.2293 127.808 48.4293 127.86 48.7093 127.86H49.5493V129H48.4693C47.8533 129 47.3813 128.856 47.0533 128.568C46.7253 128.28 46.5613 127.812 46.5613 127.164V123.504H45.7813V122.388H46.5613V120.744H47.9413V122.388H49.5493V123.504H47.9413Z"></path>
<rect stroke-width="2" stroke="white" rx="3" height="6" width="6" y="122" x="12"></rect>
<path fill="white" d="M13.886 120.009C13.954 119.804 14.1451 119.667 14.3603 119.667H15.6395C15.8548 119.667 16.0458 119.804 16.1139 120.009L16.6666 121.667H13.3333L13.886 120.009Z"></path>
<path fill="white" d="M16.114 129.991C16.046 130.196 15.8549 130.333 15.6397 130.333L14.3605 130.333C14.1452 130.333 13.9542 130.196 13.8861 129.991L13.3334 128.333L16.6667 128.333L16.114 129.991Z"></path>
<path fill="white" d="M18.7657 121.539C18.9765 121.496 19.1913 121.593 19.2989 121.779L19.9385 122.887C20.0462 123.074 20.0224 123.308 19.8796 123.469L18.72 124.777L17.0533 121.89L18.7657 121.539Z"></path>
<path fill="white" d="M11.2343 128.461C11.0235 128.504 10.8087 128.407 10.7011 128.221L10.0615 127.113C9.95385 126.926 9.97758 126.692 10.1204 126.531L11.28 125.223L12.9467 128.11L11.2343 128.461Z"></path>
<path fill="white" d="M10.1203 123.469C9.9775 123.308 9.95377 123.074 10.0614 122.887L10.701 121.779C10.8086 121.593 11.0234 121.496 11.2342 121.54L12.9466 121.89L11.2799 124.777L10.1203 123.469Z"></path>
<path fill="white" d="M19.8797 126.531C20.0225 126.692 20.0462 126.926 19.9386 127.113L19.299 128.221C19.1914 128.407 18.9766 128.504 18.7658 128.46L17.0534 128.11L18.7201 125.223L19.8797 126.531Z"></path>
<path fill="white" d="M33.648 99.084C33.088 99.084 32.584 98.988 32.136 98.796C31.688 98.596 31.336 98.316 31.08 97.956C30.824 97.596 30.696 97.176 30.696 96.696H32.16C32.192 97.056 32.332 97.352 32.58 97.584C32.836 97.816 33.192 97.932 33.648 97.932C34.12 97.932 34.488 97.82 34.752 97.596C35.016 97.364 35.148 97.068 35.148 96.708C35.148 96.428 35.064 96.2 34.896 96.024C34.736 95.848 34.532 95.712 34.284 95.616C34.044 95.52 33.708 95.416 33.276 95.304C32.732 95.16 32.288 95.016 31.944 94.872C31.608 94.72 31.32 94.488 31.08 94.176C30.84 93.864 30.72 93.448 30.72 92.928C30.72 92.448 30.84 92.028 31.08 91.668C31.32 91.308 31.656 91.032 32.088 90.84C32.52 90.648 33.02 90.552 33.588 90.552C34.396 90.552 35.056 90.756 35.568 91.164C36.088 91.564 36.376 92.116 36.432 92.82H34.92C34.896 92.516 34.752 92.256 34.488 92.04C34.224 91.824 33.876 91.716 33.444 91.716C33.052 91.716 32.732 91.816 32.484 92.016C32.236 92.216 32.112 92.504 32.112 92.88C32.112 93.136 32.188 93.348 32.34 93.516C32.5 93.676 32.7 93.804 32.94 93.9C33.18 93.996 33.508 94.1 33.924 94.212C34.476 94.364 34.924 94.516 35.268 94.668C35.62 94.82 35.916 95.056 36.156 95.376C36.404 95.688 36.528 96.108 36.528 96.636C36.528 97.06 36.412 97.46 36.18 97.836C35.956 98.212 35.624 98.516 35.184 98.748C34.752 98.972 34.24 99.084 33.648 99.084ZM44.0942 92.388L40.0382 102.108H38.6222L39.9662 98.892L37.3622 92.388H38.8862L40.7462 97.428L42.6782 92.388H44.0942ZM47.5266 99.108C47.0066 99.108 46.5386 99.016 46.1226 98.832C45.7146 98.64 45.3906 98.384 45.1506 98.064C44.9106 97.736 44.7826 97.372 44.7666 96.972H46.1826C46.2066 97.252 46.3386 97.488 46.5786 97.68C46.8266 97.864 47.1346 97.956 47.5026 97.956C47.8866 97.956 48.1826 97.884 48.3906 97.74C48.6066 97.588 48.7146 97.396 48.7146 97.164C48.7146 96.916 48.5946 96.732 48.3546 96.612C48.1226 96.492 47.7506 96.36 47.2386 96.216C46.7426 96.08 46.3386 95.948 46.0266 95.82C45.7146 95.692 45.4426 95.496 45.2106 95.232C44.9866 94.968 44.8746 94.62 44.8746 94.188C44.8746 93.836 44.9786 93.516 45.1866 93.228C45.3946 92.932 45.6906 92.7 46.0746 92.532C46.4666 92.364 46.9146 92.28 47.4186 92.28C48.1706 92.28 48.7746 92.472 49.2306 92.856C49.6946 93.232 49.9426 93.748 49.9746 94.404H48.6066C48.5826 94.108 48.4626 93.872 48.2466 93.696C48.0306 93.52 47.7386 93.432 47.3706 93.432C47.0106 93.432 46.7346 93.5 46.5426 93.636C46.3506 93.772 46.2546 93.952 46.2546 94.176C46.2546 94.352 46.3186 94.5 46.4466 94.62C46.5746 94.74 46.7306 94.836 46.9146 94.908C47.0986 94.972 47.3706 95.056 47.7306 95.16C48.2106 95.288 48.6026 95.42 48.9066 95.556C49.2186 95.684 49.4866 95.876 49.7106 96.132C49.9346 96.388 50.0506 96.728 50.0586 97.152C50.0586 97.528 49.9546 97.864 49.7466 98.16C49.5386 98.456 49.2426 98.688 48.8586 98.856C48.4826 99.024 48.0386 99.108 47.5266 99.108ZM53.1327 93.504V97.164C53.1327 97.412 53.1887 97.592 53.3007 97.704C53.4207 97.808 53.6207 97.86 53.9007 97.86H54.7407V99H53.6607C53.0447 99 52.5727 98.856 52.2447 98.568C51.9167 98.28 51.7527 97.812 51.7527 97.164V93.504H50.9727V92.388H51.7527V90.744H53.1327V92.388H54.7407V93.504H53.1327ZM62.0616 95.532C62.0616 95.78 62.0456 96.004 62.0136 96.204H56.9616C57.0016 96.732 57.1976 97.156 57.5496 97.476C57.9016 97.796 58.3336 97.956 58.8456 97.956C59.5816 97.956 60.1016 97.648 60.4056 97.032H61.8816C61.6816 97.64 61.3176 98.14 60.7896 98.532C60.2696 98.916 59.6216 99.108 58.8456 99.108C58.2136 99.108 57.6456 98.968 57.1416 98.688C56.6456 98.4 56.2536 98 55.9656 97.488C55.6856 96.968 55.5456 96.368 55.5456 95.688C55.5456 95.008 55.6816 94.412 55.9536 93.9C56.2336 93.38 56.6216 92.98 57.1176 92.7C57.6216 92.42 58.1976 92.28 58.8456 92.28C59.4696 92.28 60.0256 92.416 60.5136 92.688C61.0016 92.96 61.3816 93.344 61.6536 93.84C61.9256 94.328 62.0616 94.892 62.0616 95.532ZM60.6336 95.1C60.6256 94.596 60.4456 94.192 60.0936 93.888C59.7416 93.584 59.3056 93.432 58.7856 93.432C58.3136 93.432 57.9096 93.584 57.5736 93.888C57.2376 94.184 57.0376 94.588 56.9736 95.1H60.6336ZM71.4118 92.28C71.9318 92.28 72.3958 92.388 72.8038 92.604C73.2198 92.82 73.5438 93.14 73.7758 93.564C74.0158 93.988 74.1358 94.5 74.1358 95.1V99H72.7798V95.304C72.7798 94.712 72.6318 94.26 72.3358 93.948C72.0398 93.628 71.6358 93.468 71.1238 93.468C70.6118 93.468 70.2038 93.628 69.8998 93.948C69.6038 94.26 69.4558 94.712 69.4558 95.304V99H68.0998V95.304C68.0998 94.712 67.9518 94.26 67.6558 93.948C67.3598 93.628 66.9558 93.468 66.4438 93.468C65.9318 93.468 65.5238 93.628 65.2198 93.948C64.9238 94.26 64.7758 94.712 64.7758 95.304V99H63.4078V92.388H64.7758V93.144C64.9998 92.872 65.2838 92.66 65.6278 92.508C65.9718 92.356 66.3398 92.28 66.7318 92.28C67.2598 92.28 67.7318 92.392 68.1478 92.616C68.5638 92.84 68.8838 93.164 69.1078 93.588C69.3078 93.188 69.6198 92.872 70.0438 92.64C70.4678 92.4 70.9238 92.28 71.4118 92.28ZM79.6898 91.512C79.4418 91.512 79.2338 91.428 79.0658 91.26C78.8978 91.092 78.8138 90.884 78.8138 90.636C78.8138 90.388 78.8978 90.18 79.0658 90.012C79.2338 89.844 79.4418 89.76 79.6898 89.76C79.9298 89.76 80.1338 89.844 80.3018 90.012C80.4698 90.18 80.5538 90.388 80.5538 90.636C80.5538 90.884 80.4698 91.092 80.3018 91.26C80.1338 91.428 79.9298 91.512 79.6898 91.512ZM80.3618 92.388V99H78.9938V92.388H80.3618ZM85.4938 92.28C86.0138 92.28 86.4778 92.388 86.8858 92.604C87.3018 92.82 87.6258 93.14 87.8578 93.564C88.0898 93.988 88.2058 94.5 88.2058 95.1V99H86.8498V95.304C86.8498 94.712 86.7018 94.26 86.4058 93.948C86.1098 93.628 85.7058 93.468 85.1938 93.468C84.6818 93.468 84.2738 93.628 83.9698 93.948C83.6738 94.26 83.5258 94.712 83.5258 95.304V99H82.1578V92.388H83.5258V93.144C83.7498 92.872 84.0338 92.66 84.3778 92.508C84.7298 92.356 85.1018 92.28 85.4938 92.28ZM92.7228 93.504H91.4988V99H90.1188V93.504H89.3388V92.388H90.1188V91.92C90.1188 91.16 90.3188 90.608 90.7188 90.264C91.1268 89.912 91.7628 89.736 92.6268 89.736V90.876C92.2108 90.876 91.9188 90.956 91.7508 91.116C91.5828 91.268 91.4988 91.536 91.4988 91.92V92.388H92.7228V93.504ZM96.8032 99.108C96.1792 99.108 95.6152 98.968 95.1112 98.688C94.6072 98.4 94.2112 98 93.9232 97.488C93.6352 96.968 93.4912 96.368 93.4912 95.688C93.4912 95.016 93.6392 94.42 93.9352 93.9C94.2312 93.38 94.6352 92.98 95.1472 92.7C95.6592 92.42 96.2312 92.28 96.8632 92.28C97.4952 92.28 98.0672 92.42 98.5792 92.7C99.0912 92.98 99.4952 93.38 99.7912 93.9C100.087 94.42 100.235 95.016 100.235 95.688C100.235 96.36 100.083 96.956 99.7792 97.476C99.4752 97.996 99.0592 98.4 98.5312 98.688C98.0112 98.968 97.4352 99.108 96.8032 99.108ZM96.8032 97.92C97.1552 97.92 97.4832 97.836 97.7872 97.668C98.0992 97.5 98.3512 97.248 98.5432 96.912C98.7352 96.576 98.8312 96.168 98.8312 95.688C98.8312 95.208 98.7392 94.804 98.5552 94.476C98.3712 94.14 98.1272 93.888 97.8232 93.72C97.5192 93.552 97.1912 93.468 96.8392 93.468C96.4872 93.468 96.1592 93.552 95.8552 93.72C95.5592 93.888 95.3232 94.14 95.1472 94.476C94.9712 94.804 94.8832 95.208 94.8832 95.688C94.8832 96.4 95.0632 96.952 95.4232 97.344C95.7912 97.728 96.2512 97.92 96.8032 97.92Z"></path>
<circle fill="white" transform="rotate(-180 15 91)" r="1" cy="91" cx="15"></circle>
<path fill="white" d="M14 99C14 99.5523 14.4477 100 15 100C15.5523 100 16 99.5523 16 99L16 95C16 94.4477 15.5523 94 15 94C14.4477 94 14 94.4477 14 95L14 99Z"></path>
<path fill="white" d="M24.728 32.3162C24.592 32.7246 24.21 33 23.779 33H22.221C21.79 33 21.408 32.7246 21.272 32.3162L20.5 30H25.5L24.728 32.3162Z"></path>
<path fill="white" d="M15.7958 22.8569C15.5068 22.5349 15.4578 22.0635 15.6738 21.6888L16.4168 20.4016C16.6338 20.0268 17.0668 19.8337 17.4898 19.9231L19.8678 20.4253L17.4198 24.665L15.7958 22.8569Z"></path>
<path fill="white" d="M30.2001 27.1617C30.4861 27.4838 30.5331 27.9524 30.3181 28.3252L29.5391 29.6749C29.3231 30.0476 28.8941 30.2409 28.4721 30.1546L26.0801 29.6651L28.5801 25.335L30.2001 27.1617Z"></path>
<path fill="white" d="M28.5098 19.9228C28.9328 19.8334 29.3658 20.0265 29.5818 20.4012L30.3258 21.6887C30.5418 22.0635 30.4928 22.5349 30.2038 22.8569L28.5798 24.6651L26.1318 20.4249L28.5098 19.9228Z"></path>
<path fill="white" d="M17.528 30.1546C17.106 30.2409 16.677 30.0477 16.461 29.6749L15.6821 28.3252C15.4671 27.9525 15.5141 27.4838 15.8001 27.1618L17.42 25.335L19.92 29.6651L17.528 30.1546Z"></path>
<path fill="white" d="M25.25 21.103C25.664 20.3855 26.6 20.1289 27.192 20.7077C27.769 21.2714 28.231 21.9493 28.543 22.704C29.049 23.9243 29.137 25.2772 28.796 26.553C28.454 27.8288 27.7 28.9562 26.653 29.7602C25.605 30.5643 24.321 31.0001 23 31.0001C21.679 31.0001 20.395 30.5643 19.347 29.7602C18.3 28.9562 17.546 27.8288 17.204 26.553C16.863 25.2772 16.951 23.9243 17.457 22.704C17.769 21.9493 18.231 21.2714 18.808 20.7077C19.4 20.1289 20.336 20.3855 20.75 21.103C21.164 21.8204 20.869 22.7318 20.438 23.4392C20.358 23.5706 20.288 23.7085 20.228 23.8521C19.976 24.4622 19.931 25.1387 20.102 25.7766C20.273 26.4145 20.65 26.9781 21.174 27.3802C21.698 27.7822 22.34 28.0001 23 28.0001C23.66 28.0001 24.302 27.7822 24.826 27.3802C25.35 26.9781 25.727 26.4145 25.898 25.7766C26.069 25.1387 26.024 24.4622 25.772 23.852C25.712 23.7085 25.642 23.5706 25.562 23.4392C25.131 22.7318 24.836 21.8204 25.25 21.103Z"></path>
<path fill="white" d="M24 25C24 24.4477 23.5523 24 23 24C22.4477 24 22 24.4477 22 25C22 25.5523 22.4477 26 23 26C23.5523 26 24 25.5523 24 25Z"></path>
<path fill="white" d="M24 18C24 17.4477 23.5523 17 23 17C22.4477 17 22 17.4477 22 18V22C22 22.5523 22.4477 23 23 23C23.5523 23 24 22.5523 24 22V18Z"></path>
<path fill="white" d="M174.864 31.112C174.117 31.112 173.445 30.984 172.848 30.728C172.251 30.4613 171.781 30.088 171.44 29.608C171.099 29.128 170.928 28.568 170.928 27.928H172.88C172.923 28.408 173.109 28.8027 173.44 29.112C173.781 29.4213 174.256 29.576 174.864 29.576C175.493 29.576 175.984 29.4267 176.336 29.128C176.688 28.8187 176.864 28.424 176.864 27.944C176.864 27.5707 176.752 27.2667 176.528 27.032C176.315 26.7973 176.043 26.616 175.712 26.488C175.392 26.36 174.944 26.2213 174.368 26.072C173.643 25.88 173.051 25.688 172.592 25.496C172.144 25.2933 171.76 24.984 171.44 24.568C171.12 24.152 170.96 23.5973 170.96 22.904C170.96 22.264 171.12 21.704 171.44 21.224C171.76 20.744 172.208 20.376 172.784 20.12C173.36 19.864 174.027 19.736 174.784 19.736C175.861 19.736 176.741 20.008 177.424 20.552C178.117 21.0853 178.501 21.8213 178.576 22.76H176.56C176.528 22.3547 176.336 22.008 175.984 21.72C175.632 21.432 175.168 21.288 174.592 21.288C174.069 21.288 173.643 21.4213 173.312 21.688C172.981 21.9547 172.816 22.3387 172.816 22.84C172.816 23.1813 172.917 23.464 173.12 23.688C173.333 23.9013 173.6 24.072 173.92 24.2C174.24 24.328 174.677 24.4667 175.232 24.616C175.968 24.8187 176.565 25.0213 177.024 25.224C177.493 25.4267 177.888 25.7413 178.208 26.168C178.539 26.584 178.704 27.144 178.704 27.848C178.704 28.4133 178.549 28.9467 178.24 29.448C177.941 29.9493 177.499 30.3547 176.912 30.664C176.336 30.9627 175.653 31.112 174.864 31.112ZM188.792 22.184L183.384 35.144H181.496L183.288 30.856L179.816 22.184H181.848L184.328 28.904L186.904 22.184H188.792ZM193.369 31.144C192.675 31.144 192.051 31.0213 191.497 30.776C190.953 30.52 190.521 30.1787 190.201 29.752C189.881 29.3147 189.71 28.8293 189.689 28.296H191.577C191.609 28.6693 191.785 28.984 192.105 29.24C192.435 29.4853 192.846 29.608 193.337 29.608C193.849 29.608 194.243 29.512 194.521 29.32C194.809 29.1173 194.953 28.8613 194.953 28.552C194.953 28.2213 194.793 27.976 194.473 27.816C194.163 27.656 193.667 27.48 192.985 27.288C192.323 27.1067 191.785 26.9307 191.369 26.76C190.953 26.5893 190.59 26.328 190.281 25.976C189.982 25.624 189.833 25.16 189.833 24.584C189.833 24.1147 189.971 23.688 190.249 23.304C190.526 22.9093 190.921 22.6 191.433 22.376C191.955 22.152 192.553 22.04 193.225 22.04C194.227 22.04 195.033 22.296 195.641 22.808C196.259 23.3093 196.59 23.9973 196.633 24.872H194.809C194.777 24.4773 194.617 24.1627 194.329 23.928C194.041 23.6933 193.651 23.576 193.161 23.576C192.681 23.576 192.313 23.6667 192.057 23.848C191.801 24.0293 191.673 24.2693 191.673 24.568C191.673 24.8027 191.758 25 191.929 25.16C192.099 25.32 192.307 25.448 192.553 25.544C192.798 25.6293 193.161 25.7413 193.641 25.88C194.281 26.0507 194.803 26.2267 195.209 26.408C195.625 26.5787 195.982 26.8347 196.281 27.176C196.579 27.5173 196.734 27.9707 196.745 28.536C196.745 29.0373 196.606 29.4853 196.329 29.88C196.051 30.2747 195.657 30.584 195.145 30.808C194.643 31.032 194.051 31.144 193.369 31.144ZM200.844 23.672V28.552C200.844 28.8827 200.918 29.1227 201.068 29.272C201.228 29.4107 201.494 29.48 201.868 29.48H202.988V31H201.548C200.726 31 200.097 30.808 199.66 30.424C199.222 30.04 199.004 29.416 199.004 28.552V23.672H197.964V22.184H199.004V19.992H200.844V22.184H202.988V23.672H200.844ZM212.749 26.376C212.749 26.7067 212.727 27.0053 212.685 27.272H205.949C206.002 27.976 206.263 28.5413 206.733 28.968C207.202 29.3947 207.778 29.608 208.461 29.608C209.442 29.608 210.135 29.1973 210.541 28.376H212.509C212.242 29.1867 211.757 29.8533 211.053 30.376C210.359 30.888 209.495 31.144 208.461 31.144C207.618 31.144 206.861 30.9573 206.189 30.584C205.527 30.2 205.005 29.6667 204.621 28.984C204.247 28.2907 204.061 27.4907 204.061 26.584C204.061 25.6773 204.242 24.8827 204.605 24.2C204.978 23.5067 205.495 22.9733 206.157 22.6C206.829 22.2267 207.597 22.04 208.461 22.04C209.293 22.04 210.034 22.2213 210.685 22.584C211.335 22.9467 211.842 23.4587 212.205 24.12C212.567 24.7707 212.749 25.5227 212.749 26.376ZM210.845 25.8C210.834 25.128 210.594 24.5893 210.125 24.184C209.655 23.7787 209.074 23.576 208.381 23.576C207.751 23.576 207.213 23.7787 206.765 24.184C206.317 24.5787 206.05 25.1173 205.965 25.8H210.845ZM225.216 22.04C225.909 22.04 226.528 22.184 227.072 22.472C227.626 22.76 228.058 23.1867 228.368 23.752C228.688 24.3173 228.848 25 228.848 25.8V31H227.04V26.072C227.04 25.2827 226.842 24.68 226.448 24.264C226.053 23.8373 225.514 23.624 224.832 23.624C224.149 23.624 223.605 23.8373 223.2 24.264C222.805 24.68 222.608 25.2827 222.608 26.072V31H220.8V26.072C220.8 25.2827 220.602 24.68 220.208 24.264C219.813 23.8373 219.274 23.624 218.592 23.624C217.909 23.624 217.365 23.8373 216.96 24.264C216.565 24.68 216.368 25.2827 216.368 26.072V31H214.544V22.184H216.368V23.192C216.666 22.8293 217.045 22.5467 217.504 22.344C217.962 22.1413 218.453 22.04 218.976 22.04C219.68 22.04 220.309 22.1893 220.864 22.488C221.418 22.7867 221.845 23.2187 222.144 23.784C222.41 23.2507 222.826 22.8293 223.392 22.52C223.957 22.2 224.565 22.04 225.216 22.04ZM236.253 21.016C235.922 21.016 235.645 20.904 235.421 20.68C235.197 20.456 235.085 20.1787 235.085 19.848C235.085 19.5173 235.197 19.24 235.421 19.016C235.645 18.792 235.922 18.68 236.253 18.68C236.573 18.68 236.845 18.792 237.069 19.016C237.293 19.24 237.405 19.5173 237.405 19.848C237.405 20.1787 237.293 20.456 237.069 20.68C236.845 20.904 236.573 21.016 236.253 21.016ZM237.149 22.184V31H235.325V22.184H237.149ZM243.992 22.04C244.685 22.04 245.304 22.184 245.848 22.472C246.402 22.76 246.834 23.1867 247.144 23.752C247.453 24.3173 247.608 25 247.608 25.8V31H245.8V26.072C245.8 25.2827 245.602 24.68 245.208 24.264C244.813 23.8373 244.274 23.624 243.592 23.624C242.909 23.624 242.365 23.8373 241.96 24.264C241.565 24.68 241.368 25.2827 241.368 26.072V31H239.544V22.184H241.368V23.192C241.666 22.8293 242.045 22.5467 242.504 22.344C242.973 22.1413 243.469 22.04 243.992 22.04ZM253.63 23.672H251.998V31H250.158V23.672H249.118V22.184H250.158V21.56C250.158 20.5467 250.425 19.8107 250.958 19.352C251.502 18.8827 252.35 18.648 253.502 18.648V20.168C252.948 20.168 252.558 20.2747 252.334 20.488C252.11 20.6907 251.998 21.048 251.998 21.56V22.184H253.63V23.672ZM259.071 31.144C258.239 31.144 257.487 30.9573 256.815 30.584C256.143 30.2 255.615 29.6667 255.231 28.984C254.847 28.2907 254.655 27.4907 254.655 26.584C254.655 25.688 254.852 24.8933 255.247 24.2C255.642 23.5067 256.18 22.9733 256.863 22.6C257.546 22.2267 258.308 22.04 259.151 22.04C259.994 22.04 260.756 22.2267 261.439 22.6C262.122 22.9733 262.66 23.5067 263.055 24.2C263.45 24.8933 263.647 25.688 263.647 26.584C263.647 27.48 263.444 28.2747 263.039 28.968C262.634 29.6613 262.079 30.2 261.375 30.584C260.682 30.9573 259.914 31.144 259.071 31.144ZM259.071 29.56C259.54 29.56 259.978 29.448 260.383 29.224C260.799 29 261.135 28.664 261.391 28.216C261.647 27.768 261.775 27.224 261.775 26.584C261.775 25.944 261.652 25.4053 261.407 24.968C261.162 24.52 260.836 24.184 260.431 23.96C260.026 23.736 259.588 23.624 259.119 23.624C258.65 23.624 258.212 23.736 257.807 23.96C257.412 24.184 257.098 24.52 256.863 24.968C256.628 25.4053 256.511 25.944 256.511 26.584C256.511 27.5333 256.751 28.2693 257.231 28.792C257.722 29.304 258.335 29.56 259.071 29.56Z"></path>
<path fill="white" d="M164.704 69.084C163.928 69.084 163.212 68.904 162.556 68.544C161.908 68.176 161.392 67.668 161.008 67.02C160.632 66.364 160.444 65.628 160.444 64.812C160.444 63.996 160.632 63.264 161.008 62.616C161.392 61.968 161.908 61.464 162.556 61.104C163.212 60.736 163.928 60.552 164.704 60.552C165.488 60.552 166.204 60.736 166.852 61.104C167.508 61.464 168.024 61.968 168.4 62.616C168.776 63.264 168.964 63.996 168.964 64.812C168.964 65.628 168.776 66.364 168.4 67.02C168.024 67.668 167.508 68.176 166.852 68.544C166.204 68.904 165.488 69.084 164.704 69.084ZM164.704 67.896C165.256 67.896 165.748 67.772 166.18 67.524C166.612 67.268 166.948 66.908 167.188 66.444C167.436 65.972 167.56 65.428 167.56 64.812C167.56 64.196 167.436 63.656 167.188 63.192C166.948 62.728 166.612 62.372 166.18 62.124C165.748 61.876 165.256 61.752 164.704 61.752C164.152 61.752 163.66 61.876 163.228 62.124C162.796 62.372 162.456 62.728 162.208 63.192C161.968 63.656 161.848 64.196 161.848 64.812C161.848 65.428 161.968 65.972 162.208 66.444C162.456 66.908 162.796 67.268 163.228 67.524C163.66 67.772 164.152 67.896 164.704 67.896ZM173.058 69.084C172.498 69.084 171.994 68.988 171.546 68.796C171.098 68.596 170.746 68.316 170.49 67.956C170.234 67.596 170.106 67.176 170.106 66.696H171.57C171.602 67.056 171.742 67.352 171.99 67.584C172.246 67.816 172.602 67.932 173.058 67.932C173.53 67.932 173.898 67.82 174.162 67.596C174.426 67.364 174.558 67.068 174.558 66.708C174.558 66.428 174.474 66.2 174.306 66.024C174.146 65.848 173.942 65.712 173.694 65.616C173.454 65.52 173.118 65.416 172.686 65.304C172.142 65.16 171.698 65.016 171.354 64.872C171.018 64.72 170.73 64.488 170.49 64.176C170.25 63.864 170.13 63.448 170.13 62.928C170.13 62.448 170.25 62.028 170.49 61.668C170.73 61.308 171.066 61.032 171.498 60.84C171.93 60.648 172.43 60.552 172.998 60.552C173.806 60.552 174.466 60.756 174.978 61.164C175.498 61.564 175.786 62.116 175.842 62.82H174.33C174.306 62.516 174.162 62.256 173.898 62.04C173.634 61.824 173.286 61.716 172.854 61.716C172.462 61.716 172.142 61.816 171.894 62.016C171.646 62.216 171.522 62.504 171.522 62.88C171.522 63.136 171.598 63.348 171.75 63.516C171.91 63.676 172.11 63.804 172.35 63.9C172.59 63.996 172.918 64.1 173.334 64.212C173.886 64.364 174.334 64.516 174.678 64.668C175.03 64.82 175.326 65.056 175.566 65.376C175.814 65.688 175.938 66.108 175.938 66.636C175.938 67.06 175.822 67.46 175.59 67.836C175.366 68.212 175.034 68.516 174.594 68.748C174.162 68.972 173.65 69.084 173.058 69.084ZM183.226 67.776L185.098 62.388H186.55L184.03 69H182.398L179.89 62.388H181.354L183.226 67.776ZM193.644 65.532C193.644 65.78 193.628 66.004 193.596 66.204H188.544C188.584 66.732 188.78 67.156 189.132 67.476C189.484 67.796 189.916 67.956 190.428 67.956C191.164 67.956 191.684 67.648 191.988 67.032H193.464C193.264 67.64 192.9 68.14 192.372 68.532C191.852 68.916 191.204 69.108 190.428 69.108C189.796 69.108 189.228 68.968 188.724 68.688C188.228 68.4 187.836 68 187.548 67.488C187.268 66.968 187.128 66.368 187.128 65.688C187.128 65.008 187.264 64.412 187.536 63.9C187.816 63.38 188.204 62.98 188.7 62.7C189.204 62.42 189.78 62.28 190.428 62.28C191.052 62.28 191.608 62.416 192.096 62.688C192.584 62.96 192.964 63.344 193.236 63.84C193.508 64.328 193.644 64.892 193.644 65.532ZM192.216 65.1C192.208 64.596 192.028 64.192 191.676 63.888C191.324 63.584 190.888 63.432 190.368 63.432C189.896 63.432 189.492 63.584 189.156 63.888C188.82 64.184 188.62 64.588 188.556 65.1H192.216ZM196.358 63.348C196.558 63.012 196.822 62.752 197.15 62.568C197.486 62.376 197.882 62.28 198.338 62.28V63.696H197.99C197.454 63.696 197.046 63.832 196.766 64.104C196.494 64.376 196.358 64.848 196.358 65.52V69H194.99V62.388H196.358V63.348ZM201.995 69.108C201.475 69.108 201.007 69.016 200.591 68.832C200.183 68.64 199.859 68.384 199.619 68.064C199.379 67.736 199.251 67.372 199.235 66.972H200.651C200.675 67.252 200.807 67.488 201.047 67.68C201.295 67.864 201.603 67.956 201.971 67.956C202.355 67.956 202.651 67.884 202.859 67.74C203.075 67.588 203.183 67.396 203.183 67.164C203.183 66.916 203.063 66.732 202.823 66.612C202.591 66.492 202.219 66.36 201.707 66.216C201.211 66.08 200.807 65.948 200.495 65.82C200.183 65.692 199.911 65.496 199.679 65.232C199.455 64.968 199.343 64.62 199.343 64.188C199.343 63.836 199.447 63.516 199.655 63.228C199.863 62.932 200.159 62.7 200.543 62.532C200.935 62.364 201.383 62.28 201.887 62.28C202.639 62.28 203.243 62.472 203.699 62.856C204.163 63.232 204.411 63.748 204.443 64.404H203.075C203.051 64.108 202.931 63.872 202.715 63.696C202.499 63.52 202.207 63.432 201.839 63.432C201.479 63.432 201.203 63.5 201.011 63.636C200.819 63.772 200.723 63.952 200.723 64.176C200.723 64.352 200.787 64.5 200.915 64.62C201.043 64.74 201.199 64.836 201.383 64.908C201.567 64.972 201.839 65.056 202.199 65.16C202.679 65.288 203.071 65.42 203.375 65.556C203.687 65.684 203.955 65.876 204.179 66.132C204.403 66.388 204.519 66.728 204.527 67.152C204.527 67.528 204.423 67.864 204.215 68.16C204.007 68.456 203.711 68.688 203.327 68.856C202.951 69.024 202.507 69.108 201.995 69.108ZM206.701 61.512C206.453 61.512 206.245 61.428 206.077 61.26C205.909 61.092 205.825 60.884 205.825 60.636C205.825 60.388 205.909 60.18 206.077 60.012C206.245 59.844 206.453 59.76 206.701 59.76C206.941 59.76 207.145 59.844 207.313 60.012C207.481 60.18 207.565 60.388 207.565 60.636C207.565 60.884 207.481 61.092 207.313 61.26C207.145 61.428 206.941 61.512 206.701 61.512ZM207.373 62.388V69H206.005V62.388H207.373ZM212.038 69.108C211.414 69.108 210.85 68.968 210.346 68.688C209.842 68.4 209.446 68 209.158 67.488C208.87 66.968 208.726 66.368 208.726 65.688C208.726 65.016 208.874 64.42 209.17 63.9C209.466 63.38 209.87 62.98 210.382 62.7C210.894 62.42 211.466 62.28 212.098 62.28C212.73 62.28 213.302 62.42 213.814 62.7C214.326 62.98 214.73 63.38 215.026 63.9C215.322 64.42 215.47 65.016 215.47 65.688C215.47 66.36 215.318 66.956 215.014 67.476C214.71 67.996 214.294 68.4 213.766 68.688C213.246 68.968 212.67 69.108 212.038 69.108ZM212.038 67.92C212.39 67.92 212.718 67.836 213.022 67.668C213.334 67.5 213.586 67.248 213.778 66.912C213.97 66.576 214.066 66.168 214.066 65.688C214.066 65.208 213.974 64.804 213.79 64.476C213.606 64.14 213.362 63.888 213.058 63.72C212.754 63.552 212.426 63.468 212.074 63.468C211.722 63.468 211.394 63.552 211.09 63.72C210.794 63.888 210.558 64.14 210.382 64.476C210.206 64.804 210.118 65.208 210.118 65.688C210.118 66.4 210.298 66.952 210.658 67.344C211.026 67.728 211.486 67.92 212.038 67.92ZM220.158 62.28C220.678 62.28 221.142 62.388 221.55 62.604C221.966 62.82 222.29 63.14 222.522 63.564C222.754 63.988 222.87 64.5 222.87 65.1V69H221.514V65.304C221.514 64.712 221.366 64.26 221.07 63.948C220.774 63.628 220.37 63.468 219.858 63.468C219.346 63.468 218.938 63.628 218.634 63.948C218.338 64.26 218.19 64.712 218.19 65.304V69H216.822V62.388H218.19V63.144C218.414 62.872 218.698 62.66 219.042 62.508C219.394 62.356 219.766 62.28 220.158 62.28Z"></path>
<path fill="white" d="M160.444 94.812C160.444 93.996 160.632 93.264 161.008 92.616C161.392 91.968 161.908 91.464 162.556 91.104C163.212 90.736 163.928 90.552 164.704 90.552C165.592 90.552 166.38 90.772 167.068 91.212C167.764 91.644 168.268 92.26 168.58 93.06H166.936C166.72 92.62 166.42 92.292 166.036 92.076C165.652 91.86 165.208 91.752 164.704 91.752C164.152 91.752 163.66 91.876 163.228 92.124C162.796 92.372 162.456 92.728 162.208 93.192C161.968 93.656 161.848 94.196 161.848 94.812C161.848 95.428 161.968 95.968 162.208 96.432C162.456 96.896 162.796 97.256 163.228 97.512C163.66 97.76 164.152 97.884 164.704 97.884C165.208 97.884 165.652 97.776 166.036 97.56C166.42 97.344 166.72 97.016 166.936 96.576H168.58C168.268 97.376 167.764 97.992 167.068 98.424C166.38 98.856 165.592 99.072 164.704 99.072C163.92 99.072 163.204 98.892 162.556 98.532C161.908 98.164 161.392 97.656 161.008 97.008C160.632 96.36 160.444 95.628 160.444 94.812ZM176.013 93.144C176.013 93.568 175.913 93.968 175.713 94.344C175.513 94.72 175.193 95.028 174.753 95.268C174.313 95.5 173.749 95.616 173.061 95.616H171.549V99H170.181V90.66H173.061C173.701 90.66 174.241 90.772 174.681 90.996C175.129 91.212 175.461 91.508 175.677 91.884C175.901 92.26 176.013 92.68 176.013 93.144ZM173.061 94.5C173.581 94.5 173.969 94.384 174.225 94.152C174.481 93.912 174.609 93.576 174.609 93.144C174.609 92.232 174.093 91.776 173.061 91.776H171.549V94.5H173.061ZM178.674 90.66V95.976C178.674 96.608 178.838 97.084 179.166 97.404C179.502 97.724 179.966 97.884 180.558 97.884C181.158 97.884 181.622 97.724 181.95 97.404C182.286 97.084 182.454 96.608 182.454 95.976V90.66H183.822V95.952C183.822 96.632 183.674 97.208 183.378 97.68C183.082 98.152 182.686 98.504 182.19 98.736C181.694 98.968 181.146 99.084 180.546 99.084C179.946 99.084 179.398 98.968 178.902 98.736C178.414 98.504 178.026 98.152 177.738 97.68C177.45 97.208 177.306 96.632 177.306 95.952V90.66H178.674Z"></path>
<path fill="white" d="M166.936 123.06C166.72 122.644 166.42 122.332 166.036 122.124C165.652 121.908 165.208 121.8 164.704 121.8C164.152 121.8 163.66 121.924 163.228 122.172C162.796 122.42 162.456 122.772 162.208 123.228C161.968 123.684 161.848 124.212 161.848 124.812C161.848 125.412 161.968 125.944 162.208 126.408C162.456 126.864 162.796 127.216 163.228 127.464C163.66 127.712 164.152 127.836 164.704 127.836C165.448 127.836 166.052 127.628 166.516 127.212C166.98 126.796 167.264 126.232 167.368 125.52H164.236V124.428H168.832V125.496C168.744 126.144 168.512 126.74 168.136 127.284C167.768 127.828 167.284 128.264 166.684 128.592C166.092 128.912 165.432 129.072 164.704 129.072C163.92 129.072 163.204 128.892 162.556 128.532C161.908 128.164 161.392 127.656 161.008 127.008C160.632 126.36 160.444 125.628 160.444 124.812C160.444 123.996 160.632 123.264 161.008 122.616C161.392 121.968 161.908 121.464 162.556 121.104C163.212 120.736 163.928 120.552 164.704 120.552C165.592 120.552 166.38 120.772 167.068 121.212C167.764 121.644 168.268 122.26 168.58 123.06H166.936ZM176.013 123.144C176.013 123.568 175.913 123.968 175.713 124.344C175.513 124.72 175.193 125.028 174.753 125.268C174.313 125.5 173.749 125.616 173.061 125.616H171.549V129H170.181V120.66H173.061C173.701 120.66 174.241 120.772 174.681 120.996C175.129 121.212 175.461 121.508 175.677 121.884C175.901 122.26 176.013 122.68 176.013 123.144ZM173.061 124.5C173.581 124.5 173.969 124.384 174.225 124.152C174.481 123.912 174.609 123.576 174.609 123.144C174.609 122.232 174.093 121.776 173.061 121.776H171.549V124.5H173.061ZM178.674 120.66V125.976C178.674 126.608 178.838 127.084 179.166 127.404C179.502 127.724 179.966 127.884 180.558 127.884C181.158 127.884 181.622 127.724 181.95 127.404C182.286 127.084 182.454 126.608 182.454 125.976V120.66H183.822V125.952C183.822 126.632 183.674 127.208 183.378 127.68C183.082 128.152 182.686 128.504 182.19 128.736C181.694 128.968 181.146 129.084 180.546 129.084C179.946 129.084 179.398 128.968 178.902 128.736C178.414 128.504 178.026 128.152 177.738 127.68C177.45 127.208 177.306 126.632 177.306 125.952V120.66H178.674Z"></path>
<path fill="white" d="M165.232 159L163.312 155.664H162.268V159H160.9V150.66H163.78C164.42 150.66 164.96 150.772 165.4 150.996C165.848 151.22 166.18 151.52 166.396 151.896C166.62 152.272 166.732 152.692 166.732 153.156C166.732 153.7 166.572 154.196 166.252 154.644C165.94 155.084 165.456 155.384 164.8 155.544L166.864 159H165.232ZM162.268 154.572H163.78C164.292 154.572 164.676 154.444 164.932 154.188C165.196 153.932 165.328 153.588 165.328 153.156C165.328 152.724 165.2 152.388 164.944 152.148C164.688 151.9 164.3 151.776 163.78 151.776H162.268V154.572ZM173.51 157.296H170.018L169.418 159H167.99L170.978 150.648H172.562L175.55 159H174.11L173.51 157.296ZM173.126 156.18L171.77 152.304L170.402 156.18H173.126ZM185.633 150.66V159H184.265V153.288L181.721 159H180.773L178.217 153.288V159H176.849V150.66H178.325L181.253 157.2L184.169 150.66H185.633Z"></path>
<path fill="white" d="M163.648 189.084C163.088 189.084 162.584 188.988 162.136 188.796C161.688 188.596 161.336 188.316 161.08 187.956C160.824 187.596 160.696 187.176 160.696 186.696H162.16C162.192 187.056 162.332 187.352 162.58 187.584C162.836 187.816 163.192 187.932 163.648 187.932C164.12 187.932 164.488 187.82 164.752 187.596C165.016 187.364 165.148 187.068 165.148 186.708C165.148 186.428 165.064 186.2 164.896 186.024C164.736 185.848 164.532 185.712 164.284 185.616C164.044 185.52 163.708 185.416 163.276 185.304C162.732 185.16 162.288 185.016 161.944 184.872C161.608 184.72 161.32 184.488 161.08 184.176C160.84 183.864 160.72 183.448 160.72 182.928C160.72 182.448 160.84 182.028 161.08 181.668C161.32 181.308 161.656 181.032 162.088 180.84C162.52 180.648 163.02 180.552 163.588 180.552C164.396 180.552 165.056 180.756 165.568 181.164C166.088 181.564 166.376 182.116 166.432 182.82H164.92C164.896 182.516 164.752 182.256 164.488 182.04C164.224 181.824 163.876 181.716 163.444 181.716C163.052 181.716 162.732 181.816 162.484 182.016C162.236 182.216 162.112 182.504 162.112 182.88C162.112 183.136 162.188 183.348 162.34 183.516C162.5 183.676 162.7 183.804 162.94 183.9C163.18 183.996 163.508 184.1 163.924 184.212C164.476 184.364 164.924 184.516 165.268 184.668C165.62 184.82 165.916 185.056 166.156 185.376C166.404 185.688 166.528 186.108 166.528 186.636C166.528 187.06 166.412 187.46 166.18 187.836C165.956 188.212 165.624 188.516 165.184 188.748C164.752 188.972 164.24 189.084 163.648 189.084ZM169.738 183.504V187.164C169.738 187.412 169.794 187.592 169.906 187.704C170.026 187.808 170.226 187.86 170.506 187.86H171.346V189H170.266C169.65 189 169.178 188.856 168.85 188.568C168.522 188.28 168.358 187.812 168.358 187.164V183.504H167.578V182.388H168.358V180.744H169.738V182.388H171.346V183.504H169.738ZM175.475 189.108C174.851 189.108 174.287 188.968 173.783 188.688C173.279 188.4 172.883 188 172.595 187.488C172.307 186.968 172.163 186.368 172.163 185.688C172.163 185.016 172.311 184.42 172.607 183.9C172.903 183.38 173.307 182.98 173.819 182.7C174.331 182.42 174.903 182.28 175.535 182.28C176.167 182.28 176.739 182.42 177.251 182.7C177.763 182.98 178.167 183.38 178.463 183.9C178.759 184.42 178.907 185.016 178.907 185.688C178.907 186.36 178.755 186.956 178.451 187.476C178.147 187.996 177.731 188.4 177.203 188.688C176.683 188.968 176.107 189.108 175.475 189.108ZM175.475 187.92C175.827 187.92 176.155 187.836 176.459 187.668C176.771 187.5 177.023 187.248 177.215 186.912C177.407 186.576 177.503 186.168 177.503 185.688C177.503 185.208 177.411 184.804 177.227 184.476C177.043 184.14 176.799 183.888 176.495 183.72C176.191 183.552 175.863 183.468 175.511 183.468C175.159 183.468 174.831 183.552 174.527 183.72C174.231 183.888 173.995 184.14 173.819 184.476C173.643 184.804 173.555 185.208 173.555 185.688C173.555 186.4 173.735 186.952 174.095 187.344C174.463 187.728 174.923 187.92 175.475 187.92ZM181.627 183.348C181.827 183.012 182.091 182.752 182.419 182.568C182.755 182.376 183.151 182.28 183.607 182.28V183.696H183.259C182.723 183.696 182.315 183.832 182.035 184.104C181.763 184.376 181.627 184.848 181.627 185.52V189H180.259V182.388H181.627V183.348ZM184.409 185.664C184.409 185 184.545 184.412 184.817 183.9C185.097 183.388 185.473 182.992 185.945 182.712C186.425 182.424 186.953 182.28 187.529 182.28C188.049 182.28 188.501 182.384 188.885 182.592C189.277 182.792 189.589 183.044 189.821 183.348V182.388H191.201V189H189.821V188.016C189.589 188.328 189.273 188.588 188.873 188.796C188.473 189.004 188.017 189.108 187.505 189.108C186.937 189.108 186.417 188.964 185.945 188.676C185.473 188.38 185.097 187.972 184.817 187.452C184.545 186.924 184.409 186.328 184.409 185.664ZM189.821 185.688C189.821 185.232 189.725 184.836 189.533 184.5C189.349 184.164 189.105 183.908 188.801 183.732C188.497 183.556 188.169 183.468 187.817 183.468C187.465 183.468 187.137 183.556 186.833 183.732C186.529 183.9 186.281 184.152 186.089 184.488C185.905 184.816 185.813 185.208 185.813 185.664C185.813 186.12 185.905 186.52 186.089 186.864C186.281 187.208 186.529 187.472 186.833 187.656C187.145 187.832 187.473 187.92 187.817 187.92C188.169 187.92 188.497 187.832 188.801 187.656C189.105 187.48 189.349 187.224 189.533 186.888C189.725 186.544 189.821 186.144 189.821 185.688ZM195.662 182.28C196.174 182.28 196.626 182.384 197.018 182.592C197.418 182.792 197.73 183.044 197.954 183.348V182.388H199.334V189.108C199.334 189.716 199.206 190.256 198.95 190.728C198.694 191.208 198.322 191.584 197.834 191.856C197.354 192.128 196.778 192.264 196.106 192.264C195.21 192.264 194.466 192.052 193.874 191.628C193.282 191.212 192.946 190.644 192.866 189.924H194.222C194.326 190.268 194.546 190.544 194.882 190.752C195.226 190.968 195.634 191.076 196.106 191.076C196.658 191.076 197.102 190.908 197.438 190.572C197.782 190.236 197.954 189.748 197.954 189.108V188.004C197.722 188.316 197.406 188.58 197.006 188.796C196.614 189.004 196.166 189.108 195.662 189.108C195.086 189.108 194.558 188.964 194.078 188.676C193.606 188.38 193.23 187.972 192.95 187.452C192.678 186.924 192.542 186.328 192.542 185.664C192.542 185 192.678 184.412 192.95 183.9C193.23 183.388 193.606 182.992 194.078 182.712C194.558 182.424 195.086 182.28 195.662 182.28ZM197.954 185.688C197.954 185.232 197.858 184.836 197.666 184.5C197.482 184.164 197.238 183.908 196.934 183.732C196.63 183.556 196.302 183.468 195.95 183.468C195.598 183.468 195.27 183.556 194.966 183.732C194.662 183.9 194.414 184.152 194.222 184.488C194.038 184.816 193.946 185.208 193.946 185.664C193.946 186.12 194.038 186.52 194.222 186.864C194.414 187.208 194.662 187.472 194.966 187.656C195.278 187.832 195.606 187.92 195.95 187.92C196.302 187.92 196.63 187.832 196.934 187.656C197.238 187.48 197.482 187.224 197.666 186.888C197.858 186.544 197.954 186.144 197.954 185.688ZM207.19 185.532C207.19 185.78 207.174 186.004 207.142 186.204H202.09C202.13 186.732 202.326 187.156 202.678 187.476C203.03 187.796 203.462 187.956 203.974 187.956C204.71 187.956 205.23 187.648 205.534 187.032H207.01C206.81 187.64 206.446 188.14 205.918 188.532C205.398 188.916 204.75 189.108 203.974 189.108C203.342 189.108 202.774 188.968 202.27 188.688C201.774 188.4 201.382 188 201.094 187.488C200.814 186.968 200.674 186.368 200.674 185.688C200.674 185.008 200.81 184.412 201.082 183.9C201.362 183.38 201.75 182.98 202.246 182.7C202.75 182.42 203.326 182.28 203.974 182.28C204.598 182.28 205.154 182.416 205.642 182.688C206.13 182.96 206.51 183.344 206.782 183.84C207.054 184.328 207.19 184.892 207.19 185.532ZM205.762 185.1C205.754 184.596 205.574 184.192 205.222 183.888C204.87 183.584 204.434 183.432 203.914 183.432C203.442 183.432 203.038 183.584 202.702 183.888C202.366 184.184 202.166 184.588 202.102 185.1H205.762Z"></path>
<path fill="white" d="M282.268 90.66V99H280.9V90.66H282.268ZM287.4 92.28C287.92 92.28 288.384 92.388 288.792 92.604C289.208 92.82 289.532 93.14 289.764 93.564C289.996 93.988 290.112 94.5 290.112 95.1V99H288.756V95.304C288.756 94.712 288.608 94.26 288.312 93.948C288.016 93.628 287.612 93.468 287.1 93.468C286.588 93.468 286.18 93.628 285.876 93.948C285.58 94.26 285.432 94.712 285.432 95.304V99H284.064V92.388H285.432V93.144C285.656 92.872 285.94 92.66 286.284 92.508C286.636 92.356 287.008 92.28 287.4 92.28ZM293.453 93.504V97.164C293.453 97.412 293.509 97.592 293.621 97.704C293.741 97.808 293.941 97.86 294.221 97.86H295.061V99H293.981C293.365 99 292.893 98.856 292.565 98.568C292.237 98.28 292.073 97.812 292.073 97.164V93.504H291.293V92.388H292.073V90.744H293.453V92.388H295.061V93.504H293.453ZM302.382 95.532C302.382 95.78 302.366 96.004 302.334 96.204H297.282C297.322 96.732 297.518 97.156 297.87 97.476C298.222 97.796 298.654 97.956 299.166 97.956C299.902 97.956 300.422 97.648 300.726 97.032H302.202C302.002 97.64 301.638 98.14 301.11 98.532C300.59 98.916 299.942 99.108 299.166 99.108C298.534 99.108 297.966 98.968 297.462 98.688C296.966 98.4 296.574 98 296.286 97.488C296.006 96.968 295.866 96.368 295.866 95.688C295.866 95.008 296.002 94.412 296.274 93.9C296.554 93.38 296.942 92.98 297.438 92.7C297.942 92.42 298.518 92.28 299.166 92.28C299.79 92.28 300.346 92.416 300.834 92.688C301.322 92.96 301.702 93.344 301.974 93.84C302.246 94.328 302.382 94.892 302.382 95.532ZM300.954 95.1C300.946 94.596 300.766 94.192 300.414 93.888C300.062 93.584 299.626 93.432 299.106 93.432C298.634 93.432 298.23 93.584 297.894 93.888C297.558 94.184 297.358 94.588 297.294 95.1H300.954ZM305.096 90.12V99H303.728V90.12H305.096ZM309.553 94.812C309.553 93.996 309.741 93.264 310.117 92.616C310.501 91.968 311.017 91.464 311.665 91.104C312.321 90.736 313.037 90.552 313.813 90.552C314.701 90.552 315.489 90.772 316.177 91.212C316.873 91.644 317.377 92.26 317.689 93.06H316.045C315.829 92.62 315.529 92.292 315.145 92.076C314.761 91.86 314.317 91.752 313.813 91.752C313.261 91.752 312.769 91.876 312.337 92.124C311.905 92.372 311.565 92.728 311.317 93.192C311.077 93.656 310.957 94.196 310.957 94.812C310.957 95.428 311.077 95.968 311.317 96.432C311.565 96.896 311.905 97.256 312.337 97.512C312.769 97.76 313.261 97.884 313.813 97.884C314.317 97.884 314.761 97.776 315.145 97.56C315.529 97.344 315.829 97.016 316.045 96.576H317.689C317.377 97.376 316.873 97.992 316.177 98.424C315.489 98.856 314.701 99.072 313.813 99.072C313.029 99.072 312.313 98.892 311.665 98.532C311.017 98.164 310.501 97.656 310.117 97.008C309.741 96.36 309.553 95.628 309.553 94.812ZM322.159 99.108C321.535 99.108 320.971 98.968 320.467 98.688C319.963 98.4 319.567 98 319.279 97.488C318.991 96.968 318.847 96.368 318.847 95.688C318.847 95.016 318.995 94.42 319.291 93.9C319.587 93.38 319.991 92.98 320.503 92.7C321.015 92.42 321.587 92.28 322.219 92.28C322.851 92.28 323.423 92.42 323.935 92.7C324.447 92.98 324.851 93.38 325.147 93.9C325.443 94.42 325.591 95.016 325.591 95.688C325.591 96.36 325.439 96.956 325.135 97.476C324.831 97.996 324.415 98.4 323.887 98.688C323.367 98.968 322.791 99.108 322.159 99.108ZM322.159 97.92C322.511 97.92 322.839 97.836 323.143 97.668C323.455 97.5 323.707 97.248 323.899 96.912C324.091 96.576 324.187 96.168 324.187 95.688C324.187 95.208 324.095 94.804 323.911 94.476C323.727 94.14 323.483 93.888 323.179 93.72C322.875 93.552 322.547 93.468 322.195 93.468C321.843 93.468 321.515 93.552 321.211 93.72C320.915 93.888 320.679 94.14 320.503 94.476C320.327 94.804 320.239 95.208 320.239 95.688C320.239 96.4 320.419 96.952 320.779 97.344C321.147 97.728 321.607 97.92 322.159 97.92ZM328.311 93.348C328.511 93.012 328.775 92.752 329.103 92.568C329.439 92.376 329.835 92.28 330.291 92.28V93.696H329.943C329.407 93.696 328.999 93.832 328.719 94.104C328.447 94.376 328.311 94.848 328.311 95.52V99H326.943V92.388H328.311V93.348ZM337.608 95.532C337.608 95.78 337.592 96.004 337.56 96.204H332.508C332.548 96.732 332.744 97.156 333.096 97.476C333.448 97.796 333.88 97.956 334.392 97.956C335.128 97.956 335.648 97.648 335.952 97.032H337.428C337.228 97.64 336.864 98.14 336.336 98.532C335.816 98.916 335.168 99.108 334.392 99.108C333.76 99.108 333.192 98.968 332.688 98.688C332.192 98.4 331.8 98 331.512 97.488C331.232 96.968 331.092 96.368 331.092 95.688C331.092 95.008 331.228 94.412 331.5 93.9C331.78 93.38 332.168 92.98 332.664 92.7C333.168 92.42 333.744 92.28 334.392 92.28C335.016 92.28 335.572 92.416 336.06 92.688C336.548 92.96 336.928 93.344 337.2 93.84C337.472 94.328 337.608 94.892 337.608 95.532ZM336.18 95.1C336.172 94.596 335.992 94.192 335.64 93.888C335.288 93.584 334.852 93.432 334.332 93.432C333.86 93.432 333.456 93.584 333.12 93.888C332.784 94.184 332.584 94.588 332.52 95.1H336.18ZM342.768 91.512C342.52 91.512 342.312 91.428 342.144 91.26C341.976 91.092 341.892 90.884 341.892 90.636C341.892 90.388 341.976 90.18 342.144 90.012C342.312 89.844 342.52 89.76 342.768 89.76C343.008 89.76 343.212 89.844 343.38 90.012C343.548 90.18 343.632 90.388 343.632 90.636C343.632 90.884 343.548 91.092 343.38 91.26C343.212 91.428 343.008 91.512 342.768 91.512ZM343.44 92.388V99H342.072V92.388H343.44ZM350.6 91.308L347.264 99H345.884L349.256 91.452H344.816V90.288H350.6V91.308ZM357.027 94.08V95.232H352.095V94.08H357.027ZM359.546 97.14C360.314 96.476 360.918 95.932 361.358 95.508C361.806 95.076 362.178 94.628 362.474 94.164C362.77 93.7 362.918 93.236 362.918 92.772C362.918 92.292 362.802 91.916 362.57 91.644C362.346 91.372 361.99 91.236 361.502 91.236C361.03 91.236 360.662 91.388 360.398 91.692C360.142 91.988 360.006 92.388 359.99 92.892H358.67C358.694 91.98 358.966 91.284 359.486 90.804C360.014 90.316 360.682 90.072 361.49 90.072C362.362 90.072 363.042 90.312 363.53 90.792C364.026 91.272 364.274 91.912 364.274 92.712C364.274 93.288 364.126 93.844 363.83 94.38C363.542 94.908 363.194 95.384 362.786 95.808C362.386 96.224 361.874 96.708 361.25 97.26L360.71 97.74H364.514V98.88H358.682V97.884L359.546 97.14ZM370.42 92.28C370.332 91.912 370.172 91.636 369.94 91.452C369.708 91.268 369.384 91.176 368.968 91.176C368.336 91.176 367.864 91.42 367.552 91.908C367.24 92.388 367.076 93.188 367.06 94.308C367.268 93.956 367.572 93.684 367.972 93.492C368.372 93.3 368.804 93.204 369.268 93.204C369.796 93.204 370.26 93.32 370.66 93.552C371.068 93.776 371.384 94.104 371.608 94.536C371.84 94.968 371.956 95.484 371.956 96.084C371.956 96.644 371.844 97.144 371.62 97.584C371.404 98.024 371.08 98.372 370.648 98.628C370.216 98.876 369.696 99 369.088 99C368.264 99 367.616 98.82 367.144 98.46C366.68 98.092 366.352 97.576 366.16 96.912C365.976 96.248 365.884 95.42 365.884 94.428C365.884 91.5 366.916 90.036 368.98 90.036C369.78 90.036 370.408 90.252 370.864 90.684C371.328 91.116 371.6 91.648 371.68 92.28H370.42ZM368.968 94.356C368.48 94.356 368.064 94.504 367.72 94.8C367.384 95.088 367.216 95.508 367.216 96.06C367.216 96.612 367.372 97.052 367.684 97.38C368.004 97.7 368.448 97.86 369.016 97.86C369.52 97.86 369.916 97.704 370.204 97.392C370.5 97.08 370.648 96.664 370.648 96.144C370.648 95.6 370.504 95.168 370.216 94.848C369.936 94.52 369.52 94.356 368.968 94.356ZM373.415 94.512C373.415 93.128 373.647 92.048 374.111 91.272C374.583 90.488 375.391 90.096 376.535 90.096C377.679 90.096 378.483 90.488 378.947 91.272C379.419 92.048 379.655 93.128 379.655 94.512C379.655 95.912 379.419 97.008 378.947 97.8C378.483 98.584 377.679 98.976 376.535 98.976C375.391 98.976 374.583 98.584 374.111 97.8C373.647 97.008 373.415 95.912 373.415 94.512ZM378.311 94.512C378.311 93.864 378.267 93.316 378.179 92.868C378.099 92.42 377.931 92.056 377.675 91.776C377.419 91.488 377.039 91.344 376.535 91.344C376.031 91.344 375.651 91.488 375.395 91.776C375.139 92.056 374.967 92.42 374.879 92.868C374.799 93.316 374.759 93.864 374.759 94.512C374.759 95.184 374.799 95.748 374.879 96.204C374.959 96.66 375.127 97.028 375.383 97.308C375.647 97.588 376.031 97.728 376.535 97.728C377.039 97.728 377.419 97.588 377.675 97.308C377.939 97.028 378.111 96.66 378.191 96.204C378.271 95.748 378.311 95.184 378.311 94.512ZM381.103 94.512C381.103 93.128 381.335 92.048 381.799 91.272C382.271 90.488 383.079 90.096 384.223 90.096C385.367 90.096 386.171 90.488 386.635 91.272C387.107 92.048 387.343 93.128 387.343 94.512C387.343 95.912 387.107 97.008 386.635 97.8C386.171 98.584 385.367 98.976 384.223 98.976C383.079 98.976 382.271 98.584 381.799 97.8C381.335 97.008 381.103 95.912 381.103 94.512ZM385.999 94.512C385.999 93.864 385.955 93.316 385.867 92.868C385.787 92.42 385.619 92.056 385.363 91.776C385.107 91.488 384.727 91.344 384.223 91.344C383.719 91.344 383.339 91.488 383.083 91.776C382.827 92.056 382.655 92.42 382.567 92.868C382.487 93.316 382.447 93.864 382.447 94.512C382.447 95.184 382.487 95.748 382.567 96.204C382.647 96.66 382.815 97.028 383.071 97.308C383.335 97.588 383.719 97.728 384.223 97.728C384.727 97.728 385.107 97.588 385.363 97.308C385.627 97.028 385.799 96.66 385.879 96.204C385.959 95.748 385.999 95.184 385.999 94.512ZM391.586 95.7L394.634 99H392.786L390.338 96.156V99H388.97V90.12H390.338V95.28L392.738 92.388H394.634L391.586 95.7ZM404.888 91.248C405.8 91.248 406.588 91.416 407.252 91.752C407.916 92.088 408.42 92.56 408.764 93.168C409.116 93.768 409.292 94.468 409.292 95.268C409.292 95.908 409.18 96.52 408.956 97.104C408.74 97.688 408.424 98.164 408.008 98.532C407.6 98.9 407.116 99.084 406.556 99.084C406.148 99.084 405.828 98.996 405.596 98.82C405.364 98.636 405.22 98.38 405.164 98.052C404.916 98.372 404.604 98.624 404.228 98.808C403.852 98.992 403.46 99.084 403.052 99.084C402.436 99.084 401.952 98.9 401.6 98.532C401.256 98.156 401.084 97.648 401.084 97.008C401.084 96.4 401.208 95.832 401.456 95.304C401.712 94.776 402.068 94.356 402.524 94.044C402.98 93.724 403.492 93.564 404.06 93.564C404.756 93.564 405.244 93.8 405.524 94.272L405.632 93.672H406.82L406.22 97.104C406.196 97.272 406.184 97.42 406.184 97.548C406.184 97.756 406.224 97.912 406.304 98.016C406.392 98.12 406.544 98.172 406.76 98.172C407.064 98.172 407.324 98.024 407.54 97.728C407.756 97.424 407.916 97.052 408.02 96.612C408.132 96.172 408.188 95.744 408.188 95.328C408.188 94.312 407.892 93.536 407.3 93C406.708 92.464 405.848 92.196 404.72 92.196C403.776 92.196 402.928 92.42 402.176 92.868C401.432 93.316 400.848 93.932 400.424 94.716C400 95.5 399.788 96.372 399.788 97.332C399.788 98.356 400.092 99.136 400.7 99.672C401.308 100.208 402.176 100.476 403.304 100.476C404.064 100.476 404.728 100.336 405.296 100.056L405.476 100.968C404.748 101.28 403.932 101.436 403.028 101.436C402.156 101.436 401.392 101.272 400.736 100.944C400.08 100.616 399.572 100.148 399.212 99.54C398.852 98.94 398.672 98.24 398.672 97.44C398.672 96.296 398.936 95.252 399.464 94.308C400 93.364 400.74 92.62 401.684 92.076C402.628 91.524 403.696 91.248 404.888 91.248ZM403.472 98.028C403.808 98.028 404.112 97.932 404.384 97.74C404.664 97.54 404.884 97.28 405.044 96.96C405.204 96.632 405.284 96.284 405.284 95.916C405.284 95.532 405.176 95.22 404.96 94.98C404.752 94.732 404.456 94.608 404.072 94.608C403.728 94.608 403.424 94.716 403.16 94.932C402.904 95.14 402.704 95.412 402.56 95.748C402.424 96.084 402.356 96.436 402.356 96.804C402.356 97.18 402.448 97.48 402.632 97.704C402.816 97.92 403.096 98.028 403.472 98.028ZM410.833 92.412C410.881 91.668 411.165 91.088 411.685 90.672C412.213 90.256 412.885 90.048 413.701 90.048C414.261 90.048 414.745 90.148 415.153 90.348C415.561 90.548 415.869 90.82 416.077 91.164C416.285 91.508 416.389 91.896 416.389 92.328C416.389 92.824 416.257 93.248 415.993 93.6C415.729 93.952 415.413 94.188 415.045 94.308V94.356C415.517 94.5 415.885 94.764 416.149 95.148C416.413 95.524 416.545 96.008 416.545 96.6C416.545 97.072 416.437 97.492 416.221 97.86C416.005 98.228 415.685 98.52 415.261 98.736C414.837 98.944 414.329 99.048 413.737 99.048C412.873 99.048 412.161 98.828 411.601 98.388C411.049 97.94 410.753 97.3 410.713 96.468H412.033C412.065 96.892 412.229 97.24 412.525 97.512C412.821 97.776 413.221 97.908 413.725 97.908C414.213 97.908 414.589 97.776 414.853 97.512C415.117 97.24 415.249 96.892 415.249 96.468C415.249 95.908 415.069 95.512 414.709 95.28C414.357 95.04 413.813 94.92 413.077 94.92H412.765V93.792H413.089C413.737 93.784 414.229 93.676 414.565 93.468C414.909 93.26 415.081 92.932 415.081 92.484C415.081 92.1 414.957 91.796 414.709 91.572C414.461 91.34 414.109 91.224 413.653 91.224C413.205 91.224 412.857 91.34 412.609 91.572C412.361 91.796 412.213 92.076 412.165 92.412H410.833ZM418.714 99.084C418.466 99.084 418.258 99 418.09 98.832C417.922 98.664 417.838 98.456 417.838 98.208C417.838 97.96 417.922 97.752 418.09 97.584C418.258 97.416 418.466 97.332 418.714 97.332C418.954 97.332 419.158 97.416 419.326 97.584C419.494 97.752 419.578 97.96 419.578 98.208C419.578 98.456 419.494 98.664 419.326 98.832C419.158 99 418.954 99.084 418.714 99.084ZM420.708 97.176V96.144L424.74 90.36H426.396V95.988H427.512V97.176H426.396V99H425.052V97.176H420.708ZM425.112 91.752L422.28 95.988H425.112V91.752ZM428.646 94.512C428.646 93.128 428.878 92.048 429.342 91.272C429.814 90.488 430.622 90.096 431.766 90.096C432.91 90.096 433.714 90.488 434.178 91.272C434.65 92.048 434.886 93.128 434.886 94.512C434.886 95.912 434.65 97.008 434.178 97.8C433.714 98.584 432.91 98.976 431.766 98.976C430.622 98.976 429.814 98.584 429.342 97.8C428.878 97.008 428.646 95.912 428.646 94.512ZM433.542 94.512C433.542 93.864 433.498 93.316 433.41 92.868C433.33 92.42 433.162 92.056 432.906 91.776C432.65 91.488 432.27 91.344 431.766 91.344C431.262 91.344 430.882 91.488 430.626 91.776C430.37 92.056 430.198 92.42 430.11 92.868C430.03 93.316 429.99 93.864 429.99 94.512C429.99 95.184 430.03 95.748 430.11 96.204C430.19 96.66 430.358 97.028 430.614 97.308C430.878 97.588 431.262 97.728 431.766 97.728C432.27 97.728 432.65 97.588 432.906 97.308C433.17 97.028 433.342 96.66 433.422 96.204C433.502 95.748 433.542 95.184 433.542 94.512ZM445.666 93.06C445.45 92.644 445.15 92.332 444.766 92.124C444.382 91.908 443.938 91.8 443.434 91.8C442.882 91.8 442.39 91.924 441.958 92.172C441.526 92.42 441.186 92.772 440.938 93.228C440.698 93.684 440.578 94.212 440.578 94.812C440.578 95.412 440.698 95.944 440.938 96.408C441.186 96.864 441.526 97.216 441.958 97.464C442.39 97.712 442.882 97.836 443.434 97.836C444.178 97.836 444.782 97.628 445.246 97.212C445.71 96.796 445.994 96.232 446.098 95.52H442.966V94.428H447.562V95.496C447.474 96.144 447.242 96.74 446.866 97.284C446.498 97.828 446.014 98.264 445.414 98.592C444.822 98.912 444.162 99.072 443.434 99.072C442.65 99.072 441.934 98.892 441.286 98.532C440.638 98.164 440.122 97.656 439.738 97.008C439.362 96.36 439.174 95.628 439.174 94.812C439.174 93.996 439.362 93.264 439.738 92.616C440.122 91.968 440.638 91.464 441.286 91.104C441.942 90.736 442.658 90.552 443.434 90.552C444.322 90.552 445.11 90.772 445.798 91.212C446.494 91.644 446.998 92.26 447.31 93.06H445.666ZM455.572 90.66V99H454.204V95.352H450.28V99H448.912V90.66H450.28V94.236H454.204V90.66H455.572ZM458.585 97.884H461.585V99H457.001V97.884L460.013 93.504H457.001V92.388H461.585V93.504L458.585 97.884Z"></path>
<path fill="white" d="M287.752 129H286.384L282.268 122.772V129H280.9V120.648H282.268L286.384 126.864V120.648H287.752V129ZM296.736 120.66L293.604 129H292.02L288.876 120.66H290.34L292.812 127.596L295.296 120.66H296.736ZM299.248 120.66V129H297.88V120.66H299.248ZM303.769 120.66C304.657 120.66 305.433 120.832 306.097 121.176C306.769 121.512 307.285 122 307.645 122.64C308.013 123.272 308.197 124.012 308.197 124.86C308.197 125.708 308.013 126.444 307.645 127.068C307.285 127.692 306.769 128.172 306.097 128.508C305.433 128.836 304.657 129 303.769 129H301.045V120.66H303.769ZM303.769 127.884C304.745 127.884 305.493 127.62 306.013 127.092C306.533 126.564 306.793 125.82 306.793 124.86C306.793 123.892 306.533 123.136 306.013 122.592C305.493 122.048 304.745 121.776 303.769 121.776H302.413V127.884H303.769ZM310.92 120.66V129H309.552V120.66H310.92ZM317.744 127.296H314.252L313.652 129H312.224L315.212 120.648H316.796L319.784 129H318.344L317.744 127.296ZM317.36 126.18L316.004 122.304L314.636 126.18H317.36ZM330.657 130.512L329.193 128.928C328.833 129.032 328.437 129.084 328.005 129.084C327.229 129.084 326.513 128.904 325.857 128.544C325.209 128.176 324.693 127.668 324.309 127.02C323.933 126.364 323.745 125.628 323.745 124.812C323.745 123.996 323.933 123.264 324.309 122.616C324.693 121.968 325.209 121.464 325.857 121.104C326.513 120.736 327.229 120.552 328.005 120.552C328.789 120.552 329.505 120.736 330.153 121.104C330.809 121.464 331.325 121.968 331.701 122.616C332.077 123.264 332.265 123.996 332.265 124.812C332.265 125.58 332.097 126.276 331.761 126.9C331.433 127.516 330.977 128.012 330.393 128.388L332.397 130.512H330.657ZM325.149 124.812C325.149 125.428 325.269 125.972 325.509 126.444C325.757 126.908 326.097 127.268 326.529 127.524C326.961 127.772 327.453 127.896 328.005 127.896C328.557 127.896 329.049 127.772 329.481 127.524C329.913 127.268 330.249 126.908 330.489 126.444C330.737 125.972 330.861 125.428 330.861 124.812C330.861 124.196 330.737 123.656 330.489 123.192C330.249 122.728 329.913 122.372 329.481 122.124C329.049 121.876 328.557 121.752 328.005 121.752C327.453 121.752 326.961 121.876 326.529 122.124C326.097 122.372 325.757 122.728 325.509 123.192C325.269 123.656 325.149 124.196 325.149 124.812ZM339.634 122.388V129H338.266V128.22C338.05 128.492 337.766 128.708 337.414 128.868C337.07 129.02 336.702 129.096 336.31 129.096C335.79 129.096 335.322 128.988 334.906 128.772C334.498 128.556 334.174 128.236 333.934 127.812C333.702 127.388 333.586 126.876 333.586 126.276V122.388H334.942V126.072C334.942 126.664 335.09 127.12 335.386 127.44C335.682 127.752 336.086 127.908 336.598 127.908C337.11 127.908 337.514 127.752 337.81 127.44C338.114 127.12 338.266 126.664 338.266 126.072V122.388H339.634ZM340.983 125.664C340.983 125 341.119 124.412 341.391 123.9C341.671 123.388 342.047 122.992 342.519 122.712C342.999 122.424 343.527 122.28 344.103 122.28C344.623 122.28 345.075 122.384 345.459 122.592C345.851 122.792 346.163 123.044 346.395 123.348V122.388H347.775V129H346.395V128.016C346.163 128.328 345.847 128.588 345.447 128.796C345.047 129.004 344.591 129.108 344.079 129.108C343.511 129.108 342.991 128.964 342.519 128.676C342.047 128.38 341.671 127.972 341.391 127.452C341.119 126.924 340.983 126.328 340.983 125.664ZM346.395 125.688C346.395 125.232 346.299 124.836 346.107 124.5C345.923 124.164 345.679 123.908 345.375 123.732C345.071 123.556 344.743 123.468 344.391 123.468C344.039 123.468 343.711 123.556 343.407 123.732C343.103 123.9 342.855 124.152 342.663 124.488C342.479 124.816 342.387 125.208 342.387 125.664C342.387 126.12 342.479 126.52 342.663 126.864C342.855 127.208 343.103 127.472 343.407 127.656C343.719 127.832 344.047 127.92 344.391 127.92C344.743 127.92 345.071 127.832 345.375 127.656C345.679 127.48 345.923 127.224 346.107 126.888C346.299 126.544 346.395 126.144 346.395 125.688ZM349.116 125.664C349.116 125 349.252 124.412 349.524 123.9C349.804 123.388 350.18 122.992 350.652 122.712C351.132 122.424 351.664 122.28 352.248 122.28C352.68 122.28 353.104 122.376 353.52 122.568C353.944 122.752 354.28 123 354.528 123.312V120.12H355.908V129H354.528V128.004C354.304 128.324 353.992 128.588 353.592 128.796C353.2 129.004 352.748 129.108 352.236 129.108C351.66 129.108 351.132 128.964 350.652 128.676C350.18 128.38 349.804 127.972 349.524 127.452C349.252 126.924 349.116 126.328 349.116 125.664ZM354.528 125.688C354.528 125.232 354.432 124.836 354.24 124.5C354.056 124.164 353.812 123.908 353.508 123.732C353.204 123.556 352.876 123.468 352.524 123.468C352.172 123.468 351.844 123.556 351.54 123.732C351.236 123.9 350.988 124.152 350.796 124.488C350.612 124.816 350.52 125.208 350.52 125.664C350.52 126.12 350.612 126.52 350.796 126.864C350.988 127.208 351.236 127.472 351.54 127.656C351.852 127.832 352.18 127.92 352.524 127.92C352.876 127.92 353.204 127.832 353.508 127.656C353.812 127.48 354.056 127.224 354.24 126.888C354.432 126.544 354.528 126.144 354.528 125.688ZM359.073 123.348C359.273 123.012 359.537 122.752 359.865 122.568C360.201 122.376 360.597 122.28 361.053 122.28V123.696H360.705C360.169 123.696 359.761 123.832 359.481 124.104C359.209 124.376 359.073 124.848 359.073 125.52V129H357.705V122.388H359.073V123.348ZM365.178 129.108C364.554 129.108 363.99 128.968 363.486 128.688C362.982 128.4 362.586 128 362.298 127.488C362.01 126.968 361.866 126.368 361.866 125.688C361.866 125.016 362.014 124.42 362.31 123.9C362.606 123.38 363.01 122.98 363.522 122.7C364.034 122.42 364.606 122.28 365.238 122.28C365.87 122.28 366.442 122.42 366.954 122.7C367.466 122.98 367.87 123.38 368.166 123.9C368.462 124.42 368.61 125.016 368.61 125.688C368.61 126.36 368.458 126.956 368.154 127.476C367.85 127.996 367.434 128.4 366.906 128.688C366.386 128.968 365.81 129.108 365.178 129.108ZM365.178 127.92C365.53 127.92 365.858 127.836 366.162 127.668C366.474 127.5 366.726 127.248 366.918 126.912C367.11 126.576 367.206 126.168 367.206 125.688C367.206 125.208 367.114 124.804 366.93 124.476C366.746 124.14 366.502 123.888 366.198 123.72C365.894 123.552 365.566 123.468 365.214 123.468C364.862 123.468 364.534 123.552 364.23 123.72C363.934 123.888 363.698 124.14 363.522 124.476C363.346 124.804 363.258 125.208 363.258 125.688C363.258 126.4 363.438 126.952 363.798 127.344C364.166 127.728 364.626 127.92 365.178 127.92ZM377.676 129L374.448 125.268V129H373.08V120.66H374.448V124.464L377.688 120.66H379.404L375.78 124.836L379.464 129H377.676ZM385.197 122.28C385.109 121.912 384.949 121.636 384.717 121.452C384.485 121.268 384.161 121.176 383.745 121.176C383.113 121.176 382.641 121.42 382.329 121.908C382.017 122.388 381.853 123.188 381.837 124.308C382.045 123.956 382.349 123.684 382.749 123.492C383.149 123.3 383.581 123.204 384.045 123.204C384.573 123.204 385.037 123.32 385.437 123.552C385.845 123.776 386.161 124.104 386.385 124.536C386.617 124.968 386.733 125.484 386.733 126.084C386.733 126.644 386.621 127.144 386.397 127.584C386.181 128.024 385.857 128.372 385.425 128.628C384.993 128.876 384.473 129 383.865 129C383.041 129 382.393 128.82 381.921 128.46C381.457 128.092 381.129 127.576 380.937 126.912C380.753 126.248 380.661 125.42 380.661 124.428C380.661 121.5 381.693 120.036 383.757 120.036C384.557 120.036 385.185 120.252 385.641 120.684C386.105 121.116 386.377 121.648 386.457 122.28H385.197ZM383.745 124.356C383.257 124.356 382.841 124.504 382.497 124.8C382.161 125.088 381.993 125.508 381.993 126.06C381.993 126.612 382.149 127.052 382.461 127.38C382.781 127.7 383.225 127.86 383.793 127.86C384.297 127.86 384.693 127.704 384.981 127.392C385.277 127.08 385.425 126.664 385.425 126.144C385.425 125.6 385.281 125.168 384.993 124.848C384.713 124.52 384.297 124.356 383.745 124.356ZM388.949 127.14C389.717 126.476 390.321 125.932 390.761 125.508C391.209 125.076 391.581 124.628 391.877 124.164C392.173 123.7 392.321 123.236 392.321 122.772C392.321 122.292 392.205 121.916 391.973 121.644C391.749 121.372 391.393 121.236 390.905 121.236C390.433 121.236 390.065 121.388 389.801 121.692C389.545 121.988 389.409 122.388 389.393 122.892H388.073C388.097 121.98 388.369 121.284 388.889 120.804C389.417 120.316 390.085 120.072 390.893 120.072C391.765 120.072 392.445 120.312 392.933 120.792C393.429 121.272 393.677 121.912 393.677 122.712C393.677 123.288 393.529 123.844 393.233 124.38C392.945 124.908 392.597 125.384 392.189 125.808C391.789 126.224 391.277 126.708 390.653 127.26L390.113 127.74H393.917V128.88H388.085V127.884L388.949 127.14ZM395.118 124.512C395.118 123.128 395.35 122.048 395.814 121.272C396.286 120.488 397.094 120.096 398.238 120.096C399.382 120.096 400.186 120.488 400.65 121.272C401.122 122.048 401.358 123.128 401.358 124.512C401.358 125.912 401.122 127.008 400.65 127.8C400.186 128.584 399.382 128.976 398.238 128.976C397.094 128.976 396.286 128.584 395.814 127.8C395.35 127.008 395.118 125.912 395.118 124.512ZM400.014 124.512C400.014 123.864 399.97 123.316 399.882 122.868C399.802 122.42 399.634 122.056 399.378 121.776C399.122 121.488 398.742 121.344 398.238 121.344C397.734 121.344 397.354 121.488 397.098 121.776C396.842 122.056 396.67 122.42 396.582 122.868C396.502 123.316 396.462 123.864 396.462 124.512C396.462 125.184 396.502 125.748 396.582 126.204C396.662 126.66 396.83 127.028 397.086 127.308C397.35 127.588 397.734 127.728 398.238 127.728C398.742 127.728 399.122 127.588 399.378 127.308C399.642 127.028 399.814 126.66 399.894 126.204C399.974 125.748 400.014 125.184 400.014 124.512Z"></path>
<path fill="white" d="M282.196 154.428C281.364 154.012 280.948 153.356 280.948 152.46C280.948 152.028 281.056 151.632 281.272 151.272C281.488 150.912 281.812 150.628 282.244 150.42C282.676 150.204 283.204 150.096 283.828 150.096C284.444 150.096 284.968 150.204 285.4 150.42C285.84 150.628 286.168 150.912 286.384 151.272C286.6 151.632 286.708 152.028 286.708 152.46C286.708 152.908 286.592 153.304 286.36 153.648C286.136 153.984 285.836 154.244 285.46 154.428C285.916 154.596 286.276 154.872 286.54 155.256C286.804 155.632 286.936 156.076 286.936 156.588C286.936 157.108 286.804 157.568 286.54 157.968C286.276 158.368 285.908 158.676 285.436 158.892C284.964 159.108 284.428 159.216 283.828 159.216C283.228 159.216 282.692 159.108 282.22 158.892C281.756 158.676 281.392 158.368 281.128 157.968C280.864 157.568 280.732 157.108 280.732 156.588C280.732 156.068 280.864 155.62 281.128 155.244C281.392 154.868 281.748 154.596 282.196 154.428ZM285.4 152.628C285.4 152.18 285.26 151.836 284.98 151.596C284.7 151.356 284.316 151.236 283.828 151.236C283.348 151.236 282.968 151.356 282.688 151.596C282.408 151.836 282.268 152.184 282.268 152.64C282.268 153.04 282.412 153.368 282.7 153.624C282.996 153.872 283.372 153.996 283.828 153.996C284.284 153.996 284.66 153.868 284.956 153.612C285.252 153.356 285.4 153.028 285.4 152.628ZM283.828 155.028C283.3 155.028 282.868 155.16 282.532 155.424C282.204 155.68 282.04 156.052 282.04 156.54C282.04 156.996 282.2 157.368 282.52 157.656C282.84 157.936 283.276 158.076 283.828 158.076C284.372 158.076 284.8 157.932 285.112 157.644C285.432 157.356 285.592 156.988 285.592 156.54C285.592 156.06 285.428 155.688 285.1 155.424C284.78 155.16 284.356 155.028 283.828 155.028ZM297.706 153.06C297.49 152.644 297.19 152.332 296.806 152.124C296.422 151.908 295.978 151.8 295.474 151.8C294.922 151.8 294.43 151.924 293.998 152.172C293.566 152.42 293.226 152.772 292.978 153.228C292.738 153.684 292.618 154.212 292.618 154.812C292.618 155.412 292.738 155.944 292.978 156.408C293.226 156.864 293.566 157.216 293.998 157.464C294.43 157.712 294.922 157.836 295.474 157.836C296.218 157.836 296.822 157.628 297.286 157.212C297.75 156.796 298.034 156.232 298.138 155.52H295.006V154.428H299.602V155.496C299.514 156.144 299.282 156.74 298.906 157.284C298.538 157.828 298.054 158.264 297.454 158.592C296.862 158.912 296.202 159.072 295.474 159.072C294.69 159.072 293.974 158.892 293.326 158.532C292.678 158.164 292.162 157.656 291.778 157.008C291.402 156.36 291.214 155.628 291.214 154.812C291.214 153.996 291.402 153.264 291.778 152.616C292.162 151.968 292.678 151.464 293.326 151.104C293.982 150.736 294.698 150.552 295.474 150.552C296.362 150.552 297.15 150.772 297.838 151.212C298.534 151.644 299.038 152.26 299.35 153.06H297.706ZM305.415 154.716C305.863 154.796 306.243 155.032 306.555 155.424C306.867 155.816 307.023 156.26 307.023 156.756C307.023 157.18 306.911 157.564 306.687 157.908C306.471 158.244 306.155 158.512 305.739 158.712C305.323 158.904 304.839 159 304.287 159H300.951V150.66H304.131C304.699 150.66 305.187 150.756 305.595 150.948C306.003 151.14 306.311 151.4 306.519 151.728C306.727 152.048 306.831 152.408 306.831 152.808C306.831 153.288 306.703 153.688 306.447 154.008C306.191 154.328 305.847 154.564 305.415 154.716ZM302.319 154.164H304.011C304.459 154.164 304.807 154.064 305.055 153.864C305.311 153.656 305.439 153.36 305.439 152.976C305.439 152.6 305.311 152.308 305.055 152.1C304.807 151.884 304.459 151.776 304.011 151.776H302.319V154.164ZM304.167 157.884C304.631 157.884 304.995 157.772 305.259 157.548C305.523 157.324 305.655 157.012 305.655 156.612C305.655 156.204 305.515 155.88 305.235 155.64C304.955 155.4 304.583 155.28 304.119 155.28H302.319V157.884H304.167ZM314.351 150.66C315.239 150.66 316.015 150.832 316.679 151.176C317.351 151.512 317.867 152 318.227 152.64C318.595 153.272 318.779 154.012 318.779 154.86C318.779 155.708 318.595 156.444 318.227 157.068C317.867 157.692 317.351 158.172 316.679 158.508C316.015 158.836 315.239 159 314.351 159H311.627V150.66H314.351ZM314.351 157.884C315.327 157.884 316.075 157.62 316.595 157.092C317.115 156.564 317.375 155.82 317.375 154.86C317.375 153.892 317.115 153.136 316.595 152.592C316.075 152.048 315.327 151.776 314.351 151.776H312.995V157.884H314.351ZM322.858 150.66C323.746 150.66 324.522 150.832 325.186 151.176C325.858 151.512 326.374 152 326.734 152.64C327.102 153.272 327.286 154.012 327.286 154.86C327.286 155.708 327.102 156.444 326.734 157.068C326.374 157.692 325.858 158.172 325.186 158.508C324.522 158.836 323.746 159 322.858 159H320.134V150.66H322.858ZM322.858 157.884C323.834 157.884 324.582 157.62 325.102 157.092C325.622 156.564 325.882 155.82 325.882 154.86C325.882 153.892 325.622 153.136 325.102 152.592C324.582 152.048 323.834 151.776 322.858 151.776H321.502V157.884H322.858ZM332.974 159L331.054 155.664H330.01V159H328.642V150.66H331.522C332.162 150.66 332.702 150.772 333.142 150.996C333.59 151.22 333.922 151.52 334.138 151.896C334.362 152.272 334.474 152.692 334.474 153.156C334.474 153.7 334.314 154.196 333.994 154.644C333.682 155.084 333.198 155.384 332.542 155.544L334.606 159H332.974ZM330.01 154.572H331.522C332.034 154.572 332.418 154.444 332.674 154.188C332.938 153.932 333.07 153.588 333.07 153.156C333.07 152.724 332.942 152.388 332.686 152.148C332.43 151.9 332.042 151.776 331.522 151.776H330.01V154.572ZM336.02 152.412C336.068 151.668 336.352 151.088 336.872 150.672C337.4 150.256 338.072 150.048 338.888 150.048C339.448 150.048 339.932 150.148 340.34 150.348C340.748 150.548 341.056 150.82 341.264 151.164C341.472 151.508 341.576 151.896 341.576 152.328C341.576 152.824 341.444 153.248 341.18 153.6C340.916 153.952 340.6 154.188 340.232 154.308V154.356C340.704 154.5 341.072 154.764 341.336 155.148C341.6 155.524 341.732 156.008 341.732 156.6C341.732 157.072 341.624 157.492 341.408 157.86C341.192 158.228 340.872 158.52 340.448 158.736C340.024 158.944 339.516 159.048 338.924 159.048C338.06 159.048 337.348 158.828 336.788 158.388C336.236 157.94 335.94 157.3 335.9 156.468H337.22C337.252 156.892 337.416 157.24 337.712 157.512C338.008 157.776 338.408 157.908 338.912 157.908C339.4 157.908 339.776 157.776 340.04 157.512C340.304 157.24 340.436 156.892 340.436 156.468C340.436 155.908 340.256 155.512 339.896 155.28C339.544 155.04 339 154.92 338.264 154.92H337.952V153.792H338.276C338.924 153.784 339.416 153.676 339.752 153.468C340.096 153.26 340.268 152.932 340.268 152.484C340.268 152.1 340.144 151.796 339.896 151.572C339.648 151.34 339.296 151.224 338.84 151.224C338.392 151.224 338.044 151.34 337.796 151.572C337.548 151.796 337.4 152.076 337.352 152.412H336.02Z"></path>
</g>
<defs>
<clipPath id="clip0_621_187">
<rect fill="white" height="360" width="480"></rect>
</clipPath>
</defs>
</svg>
