<svg width="480" height="360" viewBox="0 0 480 360" fill="none" xmlns="http://www.w3.org/2000/svg">
<rect x="290" y="150" width="180" height="120" rx="15" fill="white" fill-opacity="0.5"/>
<path d="M377 200H383C384.105 200 385 200.895 385 202V208C385 209.105 384.105 210 383 210H377C375.895 210 375 209.105 375 208V202C375 200.895 375.895 200 377 200Z" stroke="black" stroke-width="2"/>
<path d="M416.53 200.26L422.756 204.152C423.383 204.544 423.383 205.456 422.756 205.848L416.53 209.74C415.864 210.156 415 209.677 415 208.892V201.108C415 200.323 415.864 199.844 416.53 200.26Z" stroke="black" stroke-width="2"/>
<rect x="424" y="199" width="2" height="12" rx="1" fill="black"/>
<path d="M343.47 209.74L337.244 205.848C336.617 205.456 336.617 204.544 337.244 204.152L343.47 200.26C344.136 199.844 345 200.323 345 201.108L345 208.892C345 209.677 344.136 210.156 343.47 209.74Z" stroke="black" stroke-width="2"/>
<rect x="336" y="211" width="2" height="12" rx="1" transform="rotate(180 336 211)" fill="black"/>
<path d="M359.701 166.05C359.521 165.703 359.271 165.443 358.951 165.27C358.631 165.09 358.261 165 357.841 165C357.381 165 356.971 165.103 356.611 165.31C356.251 165.517 355.968 165.81 355.761 166.19C355.561 166.57 355.461 167.01 355.461 167.51C355.461 168.01 355.561 168.453 355.761 168.84C355.968 169.22 356.251 169.513 356.611 169.72C356.971 169.927 357.381 170.03 357.841 170.03C358.461 170.03 358.964 169.857 359.351 169.51C359.738 169.163 359.974 168.693 360.061 168.1H357.451V167.19H361.281V168.08C361.208 168.62 361.014 169.117 360.701 169.57C360.394 170.023 359.991 170.387 359.491 170.66C358.998 170.927 358.448 171.06 357.841 171.06C357.188 171.06 356.591 170.91 356.051 170.61C355.511 170.303 355.081 169.88 354.761 169.34C354.448 168.8 354.291 168.19 354.291 167.51C354.291 166.83 354.448 166.22 354.761 165.68C355.081 165.14 355.511 164.72 356.051 164.42C356.598 164.113 357.194 163.96 357.841 163.96C358.581 163.96 359.238 164.143 359.811 164.51C360.391 164.87 360.811 165.383 361.071 166.05H359.701ZM367.455 168.11C367.455 168.317 367.442 168.503 367.415 168.67H363.205C363.239 169.11 363.402 169.463 363.695 169.73C363.989 169.997 364.349 170.13 364.775 170.13C365.389 170.13 365.822 169.873 366.075 169.36H367.305C367.139 169.867 366.835 170.283 366.395 170.61C365.962 170.93 365.422 171.09 364.775 171.09C364.249 171.09 363.775 170.973 363.355 170.74C362.942 170.5 362.615 170.167 362.375 169.74C362.142 169.307 362.025 168.807 362.025 168.24C362.025 167.673 362.139 167.177 362.365 166.75C362.599 166.317 362.922 165.983 363.335 165.75C363.755 165.517 364.235 165.4 364.775 165.4C365.295 165.4 365.759 165.513 366.165 165.74C366.572 165.967 366.889 166.287 367.115 166.7C367.342 167.107 367.455 167.577 367.455 168.11ZM366.265 167.75C366.259 167.33 366.109 166.993 365.815 166.74C365.522 166.487 365.159 166.36 364.725 166.36C364.332 166.36 363.995 166.487 363.715 166.74C363.435 166.987 363.269 167.323 363.215 167.75H366.265ZM368.197 168.22C368.197 167.667 368.31 167.177 368.537 166.75C368.77 166.323 369.084 165.993 369.477 165.76C369.877 165.52 370.32 165.4 370.807 165.4C371.167 165.4 371.52 165.48 371.867 165.64C372.22 165.793 372.5 166 372.707 166.26V163.6H373.857V171H372.707V170.17C372.52 170.437 372.26 170.657 371.927 170.83C371.6 171.003 371.224 171.09 370.797 171.09C370.317 171.09 369.877 170.97 369.477 170.73C369.084 170.483 368.77 170.143 368.537 169.71C368.31 169.27 368.197 168.773 368.197 168.22ZM372.707 168.24C372.707 167.86 372.627 167.53 372.467 167.25C372.314 166.97 372.11 166.757 371.857 166.61C371.604 166.463 371.33 166.39 371.037 166.39C370.744 166.39 370.47 166.463 370.217 166.61C369.964 166.75 369.757 166.96 369.597 167.24C369.444 167.513 369.367 167.84 369.367 168.22C369.367 168.6 369.444 168.933 369.597 169.22C369.757 169.507 369.964 169.727 370.217 169.88C370.477 170.027 370.75 170.1 371.037 170.1C371.33 170.1 371.604 170.027 371.857 169.88C372.11 169.733 372.314 169.52 372.467 169.24C372.627 168.953 372.707 168.62 372.707 168.24ZM374.974 168.22C374.974 167.667 375.088 167.177 375.314 166.75C375.548 166.323 375.861 165.993 376.254 165.76C376.654 165.52 377.094 165.4 377.574 165.4C378.008 165.4 378.384 165.487 378.704 165.66C379.031 165.827 379.291 166.037 379.484 166.29V165.49H380.634V171H379.484V170.18C379.291 170.44 379.028 170.657 378.694 170.83C378.361 171.003 377.981 171.09 377.554 171.09C377.081 171.09 376.648 170.97 376.254 170.73C375.861 170.483 375.548 170.143 375.314 169.71C375.088 169.27 374.974 168.773 374.974 168.22ZM379.484 168.24C379.484 167.86 379.404 167.53 379.244 167.25C379.091 166.97 378.888 166.757 378.634 166.61C378.381 166.463 378.108 166.39 377.814 166.39C377.521 166.39 377.248 166.463 376.994 166.61C376.741 166.75 376.534 166.96 376.374 167.24C376.221 167.513 376.144 167.84 376.144 168.22C376.144 168.6 376.221 168.933 376.374 169.22C376.534 169.507 376.741 169.727 376.994 169.88C377.254 170.027 377.528 170.1 377.814 170.1C378.108 170.1 378.381 170.027 378.634 169.88C378.888 169.733 379.091 169.52 379.244 169.24C379.404 168.953 379.484 168.62 379.484 168.24ZM384.912 165.4C385.345 165.4 385.732 165.49 386.072 165.67C386.419 165.85 386.689 166.117 386.882 166.47C387.075 166.823 387.172 167.25 387.172 167.75V171H386.042V167.92C386.042 167.427 385.919 167.05 385.672 166.79C385.425 166.523 385.089 166.39 384.662 166.39C384.235 166.39 383.895 166.523 383.642 166.79C383.395 167.05 383.272 167.427 383.272 167.92V171H382.132V165.49H383.272V166.12C383.459 165.893 383.695 165.717 383.982 165.59C384.275 165.463 384.585 165.4 384.912 165.4ZM390.806 168.25L393.346 171H391.806L389.766 168.63V171H388.626V163.6H389.766V167.9L391.766 165.49H393.346L390.806 168.25ZM399.213 168.11C399.213 168.317 399.2 168.503 399.173 168.67H394.963C394.996 169.11 395.16 169.463 395.453 169.73C395.746 169.997 396.106 170.13 396.533 170.13C397.146 170.13 397.58 169.873 397.833 169.36H399.063C398.896 169.867 398.593 170.283 398.153 170.61C397.72 170.93 397.18 171.09 396.533 171.09C396.006 171.09 395.533 170.973 395.113 170.74C394.7 170.5 394.373 170.167 394.133 169.74C393.9 169.307 393.783 168.807 393.783 168.24C393.783 167.673 393.896 167.177 394.123 166.75C394.356 166.317 394.68 165.983 395.093 165.75C395.513 165.517 395.993 165.4 396.533 165.4C397.053 165.4 397.516 165.513 397.923 165.74C398.33 165.967 398.646 166.287 398.873 166.7C399.1 167.107 399.213 167.577 399.213 168.11ZM398.023 167.75C398.016 167.33 397.866 166.993 397.573 166.74C397.28 166.487 396.916 166.36 396.483 166.36C396.09 166.36 395.753 166.487 395.473 166.74C395.193 166.987 395.026 167.323 394.973 167.75H398.023ZM403.115 165.4C403.548 165.4 403.935 165.49 404.275 165.67C404.622 165.85 404.892 166.117 405.085 166.47C405.278 166.823 405.375 167.25 405.375 167.75V171H404.245V167.92C404.245 167.427 404.122 167.05 403.875 166.79C403.628 166.523 403.292 166.39 402.865 166.39C402.438 166.39 402.098 166.523 401.845 166.79C401.598 167.05 401.475 167.427 401.475 167.92V171H400.335V165.49H401.475V166.12C401.662 165.893 401.898 165.717 402.185 165.59C402.478 165.463 402.788 165.4 403.115 165.4Z" fill="black"/>
<path d="M365.336 178.44V184H364.424V178.44H365.336ZM368.134 184.072C367.787 184.072 367.475 184.011 367.198 183.888C366.926 183.76 366.71 183.589 366.55 183.376C366.39 183.157 366.304 182.915 366.294 182.648H367.238C367.254 182.835 367.342 182.992 367.502 183.12C367.667 183.243 367.872 183.304 368.118 183.304C368.374 183.304 368.571 183.256 368.71 183.16C368.854 183.059 368.926 182.931 368.926 182.776C368.926 182.611 368.846 182.488 368.686 182.408C368.531 182.328 368.283 182.24 367.942 182.144C367.611 182.053 367.342 181.965 367.134 181.88C366.926 181.795 366.744 181.664 366.59 181.488C366.44 181.312 366.366 181.08 366.366 180.792C366.366 180.557 366.435 180.344 366.574 180.152C366.712 179.955 366.91 179.8 367.166 179.688C367.427 179.576 367.726 179.52 368.062 179.52C368.563 179.52 368.966 179.648 369.27 179.904C369.579 180.155 369.744 180.499 369.766 180.936H368.854C368.838 180.739 368.758 180.581 368.614 180.464C368.47 180.347 368.275 180.288 368.03 180.288C367.79 180.288 367.606 180.333 367.478 180.424C367.35 180.515 367.286 180.635 367.286 180.784C367.286 180.901 367.328 181 367.414 181.08C367.499 181.16 367.603 181.224 367.726 181.272C367.848 181.315 368.03 181.371 368.27 181.44C368.59 181.525 368.851 181.613 369.054 181.704C369.262 181.789 369.44 181.917 369.59 182.088C369.739 182.259 369.816 182.485 369.822 182.768C369.822 183.019 369.752 183.243 369.614 183.44C369.475 183.637 369.278 183.792 369.022 183.904C368.771 184.016 368.475 184.072 368.134 184.072ZM372.719 184.072C372.303 184.072 371.927 183.979 371.591 183.792C371.255 183.6 370.991 183.333 370.799 182.992C370.607 182.645 370.511 182.245 370.511 181.792C370.511 181.344 370.61 180.947 370.807 180.6C371.004 180.253 371.274 179.987 371.615 179.8C371.956 179.613 372.338 179.52 372.759 179.52C373.18 179.52 373.562 179.613 373.903 179.8C374.244 179.987 374.514 180.253 374.711 180.6C374.908 180.947 375.007 181.344 375.007 181.792C375.007 182.24 374.906 182.637 374.703 182.984C374.5 183.331 374.223 183.6 373.871 183.792C373.524 183.979 373.14 184.072 372.719 184.072ZM372.719 183.28C372.954 183.28 373.172 183.224 373.375 183.112C373.583 183 373.751 182.832 373.879 182.608C374.007 182.384 374.071 182.112 374.071 181.792C374.071 181.472 374.01 181.203 373.887 180.984C373.764 180.76 373.602 180.592 373.399 180.48C373.196 180.368 372.978 180.312 372.743 180.312C372.508 180.312 372.29 180.368 372.087 180.48C371.89 180.592 371.732 180.76 371.615 180.984C371.498 181.203 371.439 181.472 371.439 181.792C371.439 182.267 371.559 182.635 371.799 182.896C372.044 183.152 372.351 183.28 372.719 183.28ZM376.821 178.08V184H375.909V178.08H376.821ZM377.714 181.776C377.714 181.333 377.805 180.941 377.986 180.6C378.173 180.259 378.423 179.995 378.738 179.808C379.058 179.616 379.41 179.52 379.794 179.52C380.141 179.52 380.442 179.589 380.698 179.728C380.959 179.861 381.167 180.029 381.322 180.232V179.592H382.242V184H381.322V183.344C381.167 183.552 380.957 183.725 380.69 183.864C380.423 184.003 380.119 184.072 379.778 184.072C379.399 184.072 379.053 183.976 378.738 183.784C378.423 183.587 378.173 183.315 377.986 182.968C377.805 182.616 377.714 182.219 377.714 181.776ZM381.322 181.792C381.322 181.488 381.258 181.224 381.13 181C381.007 180.776 380.845 180.605 380.642 180.488C380.439 180.371 380.221 180.312 379.986 180.312C379.751 180.312 379.533 180.371 379.33 180.488C379.127 180.6 378.962 180.768 378.834 180.992C378.711 181.211 378.65 181.472 378.65 181.776C378.65 182.08 378.711 182.347 378.834 182.576C378.962 182.805 379.127 182.981 379.33 183.104C379.538 183.221 379.757 183.28 379.986 183.28C380.221 183.28 380.439 183.221 380.642 183.104C380.845 182.987 381.007 182.816 381.13 182.592C381.258 182.363 381.322 182.096 381.322 181.792ZM384.504 180.336V182.776C384.504 182.941 384.541 183.061 384.616 183.136C384.696 183.205 384.829 183.24 385.016 183.24H385.576V184H384.856C384.445 184 384.131 183.904 383.912 183.712C383.693 183.52 383.584 183.208 383.584 182.776V180.336H383.064V179.592H383.584V178.496H384.504V179.592H385.576V180.336H384.504ZM390.456 181.688C390.456 181.853 390.446 182.003 390.424 182.136H387.056C387.083 182.488 387.214 182.771 387.448 182.984C387.683 183.197 387.971 183.304 388.312 183.304C388.803 183.304 389.15 183.099 389.352 182.688H390.336C390.203 183.093 389.96 183.427 389.608 183.688C389.262 183.944 388.83 184.072 388.312 184.072C387.891 184.072 387.512 183.979 387.176 183.792C386.846 183.6 386.584 183.333 386.392 182.992C386.206 182.645 386.112 182.245 386.112 181.792C386.112 181.339 386.203 180.941 386.384 180.6C386.571 180.253 386.83 179.987 387.16 179.8C387.496 179.613 387.88 179.52 388.312 179.52C388.728 179.52 389.099 179.611 389.424 179.792C389.75 179.973 390.003 180.229 390.184 180.56C390.366 180.885 390.456 181.261 390.456 181.688ZM389.504 181.4C389.499 181.064 389.379 180.795 389.144 180.592C388.91 180.389 388.619 180.288 388.272 180.288C387.958 180.288 387.688 180.389 387.464 180.592C387.24 180.789 387.107 181.059 387.064 181.4H389.504ZM391.05 181.776C391.05 181.333 391.141 180.941 391.322 180.6C391.509 180.259 391.759 179.995 392.074 179.808C392.394 179.616 392.749 179.52 393.138 179.52C393.426 179.52 393.709 179.584 393.986 179.712C394.269 179.835 394.493 180 394.658 180.208V178.08H395.578V184H394.658V183.336C394.509 183.549 394.301 183.725 394.034 183.864C393.773 184.003 393.471 184.072 393.13 184.072C392.746 184.072 392.394 183.976 392.074 183.784C391.759 183.587 391.509 183.315 391.322 182.968C391.141 182.616 391.05 182.219 391.05 181.776ZM394.658 181.792C394.658 181.488 394.594 181.224 394.466 181C394.343 180.776 394.181 180.605 393.978 180.488C393.775 180.371 393.557 180.312 393.322 180.312C393.087 180.312 392.869 180.371 392.666 180.488C392.463 180.6 392.298 180.768 392.17 180.992C392.047 181.211 391.986 181.472 391.986 181.776C391.986 182.08 392.047 182.347 392.17 182.576C392.298 182.805 392.463 182.981 392.666 183.104C392.874 183.221 393.093 183.28 393.322 183.28C393.557 183.28 393.775 183.221 393.978 183.104C394.181 182.987 394.343 182.816 394.466 182.592C394.594 182.363 394.658 182.096 394.658 181.792Z" fill="#808080"/>
<rect x="305" y="235" width="150" height="20" rx="10" fill="black" fill-opacity="0.1"/>
</svg>
