<svg width="480" height="360" viewBox="0 0 480 360" fill="none" xmlns="http://www.w3.org/2000/svg">
<path d="M175 240C175 228.954 183.954 220 195 220H285C296.046 220 305 228.954 305 240V360H175V240Z" fill="#191919"/>
<path d="M237.351 308.52C238.375 307.635 239.18 306.909 239.767 306.344C240.364 305.768 240.86 305.171 241.255 304.552C241.649 303.933 241.847 303.315 241.847 302.696C241.847 302.056 241.692 301.555 241.383 301.192C241.084 300.829 240.609 300.648 239.959 300.648C239.329 300.648 238.839 300.851 238.487 301.256C238.145 301.651 237.964 302.184 237.943 302.856H236.183C236.215 301.64 236.577 300.712 237.271 300.072C237.975 299.421 238.865 299.096 239.943 299.096C241.105 299.096 242.012 299.416 242.663 300.056C243.324 300.696 243.655 301.549 243.655 302.616C243.655 303.384 243.457 304.125 243.063 304.84C242.679 305.544 242.215 306.179 241.671 306.744C241.137 307.299 240.455 307.944 239.623 308.68L238.903 309.32H243.975V310.84H236.199V309.512L237.351 308.52Z" fill="white"/>
<path d="M270.178 302.216C270.242 301.224 270.621 300.451 271.314 299.896C272.018 299.341 272.914 299.064 274.002 299.064C274.749 299.064 275.394 299.197 275.938 299.464C276.482 299.731 276.893 300.093 277.17 300.552C277.447 301.011 277.586 301.528 277.586 302.104C277.586 302.765 277.41 303.331 277.058 303.8C276.706 304.269 276.285 304.584 275.794 304.744V304.808C276.423 305 276.914 305.352 277.266 305.864C277.618 306.365 277.794 307.011 277.794 307.8C277.794 308.429 277.65 308.989 277.362 309.48C277.074 309.971 276.647 310.36 276.082 310.648C275.517 310.925 274.839 311.064 274.05 311.064C272.898 311.064 271.949 310.771 271.202 310.184C270.466 309.587 270.071 308.733 270.018 307.624H271.778C271.821 308.189 272.039 308.653 272.434 309.016C272.829 309.368 273.362 309.544 274.034 309.544C274.685 309.544 275.186 309.368 275.538 309.016C275.89 308.653 276.066 308.189 276.066 307.624C276.066 306.877 275.826 306.349 275.346 306.04C274.877 305.72 274.151 305.56 273.17 305.56H272.754V304.056H273.186C274.05 304.045 274.706 303.901 275.154 303.624C275.613 303.347 275.842 302.909 275.842 302.312C275.842 301.8 275.677 301.395 275.346 301.096C275.015 300.787 274.546 300.632 273.938 300.632C273.341 300.632 272.877 300.787 272.546 301.096C272.215 301.395 272.018 301.768 271.954 302.216H270.178Z" fill="white"/>
<path d="M201.556 278.568V277.192L206.932 269.48H209.14V276.984H210.628V278.568H209.14V281H207.348V278.568H201.556ZM207.428 271.336L203.652 276.984H207.428V271.336Z" fill="white"/>
<path d="M243.371 270.904H238.011V274.088C238.235 273.789 238.565 273.539 239.003 273.336C239.451 273.133 239.925 273.032 240.427 273.032C241.323 273.032 242.048 273.224 242.603 273.608C243.168 273.992 243.568 274.477 243.803 275.064C244.048 275.651 244.171 276.269 244.171 276.92C244.171 277.709 244.016 278.413 243.707 279.032C243.408 279.64 242.955 280.12 242.347 280.472C241.749 280.824 241.013 281 240.139 281C238.976 281 238.043 280.712 237.339 280.136C236.635 279.56 236.213 278.797 236.075 277.848H237.851C237.968 278.349 238.229 278.749 238.635 279.048C239.04 279.336 239.547 279.48 240.155 279.48C240.912 279.48 241.477 279.251 241.851 278.792C242.235 278.333 242.427 277.725 242.427 276.968C242.427 276.2 242.235 275.613 241.851 275.208C241.467 274.792 240.901 274.584 240.155 274.584C239.632 274.584 239.189 274.717 238.827 274.984C238.475 275.24 238.219 275.592 238.059 276.04H236.331V269.304H243.371V270.904Z" fill="white"/>
<path d="M276.099 272.04C275.982 271.549 275.769 271.181 275.459 270.936C275.15 270.691 274.718 270.568 274.163 270.568C273.321 270.568 272.691 270.893 272.275 271.544C271.859 272.184 271.641 273.251 271.619 274.744C271.897 274.275 272.302 273.912 272.835 273.656C273.369 273.4 273.945 273.272 274.563 273.272C275.267 273.272 275.886 273.427 276.419 273.736C276.963 274.035 277.385 274.472 277.683 275.048C277.993 275.624 278.147 276.312 278.147 277.112C278.147 277.859 277.998 278.525 277.699 279.112C277.411 279.699 276.979 280.163 276.403 280.504C275.827 280.835 275.134 281 274.323 281C273.225 281 272.361 280.76 271.731 280.28C271.113 279.789 270.675 279.101 270.419 278.216C270.174 277.331 270.051 276.227 270.051 274.904C270.051 271 271.427 269.048 274.179 269.048C275.246 269.048 276.083 269.336 276.691 269.912C277.31 270.488 277.673 271.197 277.779 272.04H276.099ZM274.163 274.808C273.513 274.808 272.958 275.005 272.499 275.4C272.051 275.784 271.827 276.344 271.827 277.08C271.827 277.816 272.035 278.403 272.451 278.84C272.878 279.267 273.47 279.48 274.227 279.48C274.899 279.48 275.427 279.272 275.811 278.856C276.206 278.44 276.403 277.885 276.403 277.192C276.403 276.467 276.211 275.891 275.827 275.464C275.454 275.027 274.899 274.808 274.163 274.808Z" fill="white"/>
<path d="M209.875 240.744L205.427 251H203.587L208.083 240.936H202.163V239.384H209.875V240.744Z" fill="white"/>
<path d="M237.826 244.904C236.717 244.349 236.162 243.475 236.162 242.28C236.162 241.704 236.306 241.176 236.594 240.696C236.882 240.216 237.314 239.837 237.89 239.56C238.466 239.272 239.17 239.128 240.002 239.128C240.824 239.128 241.522 239.272 242.098 239.56C242.685 239.837 243.122 240.216 243.41 240.696C243.698 241.176 243.842 241.704 243.842 242.28C243.842 242.877 243.688 243.405 243.378 243.864C243.08 244.312 242.68 244.659 242.178 244.904C242.786 245.128 243.266 245.496 243.618 246.008C243.97 246.509 244.146 247.101 244.146 247.784C244.146 248.477 243.97 249.091 243.618 249.624C243.266 250.157 242.776 250.568 242.146 250.856C241.517 251.144 240.802 251.288 240.002 251.288C239.202 251.288 238.488 251.144 237.858 250.856C237.24 250.568 236.754 250.157 236.402 249.624C236.05 249.091 235.874 248.477 235.874 247.784C235.874 247.091 236.05 246.493 236.402 245.992C236.754 245.491 237.229 245.128 237.826 244.904ZM242.098 242.504C242.098 241.907 241.912 241.448 241.538 241.128C241.165 240.808 240.653 240.648 240.002 240.648C239.362 240.648 238.856 240.808 238.482 241.128C238.109 241.448 237.922 241.912 237.922 242.52C237.922 243.053 238.114 243.491 238.498 243.832C238.893 244.163 239.394 244.328 240.002 244.328C240.61 244.328 241.112 244.157 241.506 243.816C241.901 243.475 242.098 243.037 242.098 242.504ZM240.002 245.704C239.298 245.704 238.722 245.88 238.274 246.232C237.837 246.573 237.618 247.069 237.618 247.72C237.618 248.328 237.832 248.824 238.258 249.208C238.685 249.581 239.266 249.768 240.002 249.768C240.728 249.768 241.298 249.576 241.714 249.192C242.141 248.808 242.354 248.317 242.354 247.72C242.354 247.08 242.136 246.584 241.698 246.232C241.272 245.88 240.706 245.704 240.002 245.704Z" fill="white"/>
<path d="M272.154 247.832C272.261 248.365 272.49 248.771 272.842 249.048C273.194 249.325 273.669 249.464 274.266 249.464C275.023 249.464 275.578 249.165 275.93 248.568C276.282 247.971 276.458 246.952 276.458 245.512C276.202 245.875 275.839 246.157 275.37 246.36C274.911 246.552 274.41 246.648 273.866 246.648C273.173 246.648 272.543 246.509 271.978 246.232C271.413 245.944 270.965 245.523 270.634 244.968C270.314 244.403 270.154 243.72 270.154 242.92C270.154 241.747 270.495 240.813 271.178 240.12C271.871 239.416 272.821 239.064 274.026 239.064C275.477 239.064 276.506 239.549 277.114 240.52C277.733 241.48 278.042 242.957 278.042 244.952C278.042 246.328 277.925 247.453 277.69 248.328C277.466 249.203 277.071 249.864 276.506 250.312C275.941 250.76 275.157 250.984 274.154 250.984C273.013 250.984 272.133 250.685 271.514 250.088C270.895 249.491 270.549 248.739 270.474 247.832H272.154ZM274.186 245.112C274.826 245.112 275.327 244.915 275.69 244.52C276.063 244.115 276.25 243.581 276.25 242.92C276.25 242.184 276.053 241.613 275.658 241.208C275.274 240.792 274.746 240.584 274.074 240.584C273.402 240.584 272.869 240.797 272.474 241.224C272.09 241.64 271.898 242.189 271.898 242.872C271.898 243.523 272.085 244.061 272.458 244.488C272.842 244.904 273.418 245.112 274.186 245.112Z" fill="white"/>
<path d="M201.835 335.016C201.835 333.171 202.144 331.731 202.763 330.696C203.392 329.651 204.47 329.128 205.995 329.128C207.52 329.128 208.592 329.651 209.211 330.696C209.84 331.731 210.155 333.171 210.155 335.016C210.155 336.883 209.84 338.344 209.211 339.4C208.592 340.445 207.52 340.968 205.995 340.968C204.47 340.968 203.392 340.445 202.763 339.4C202.144 338.344 201.835 336.883 201.835 335.016ZM208.363 335.016C208.363 334.152 208.304 333.421 208.187 332.824C208.08 332.227 207.856 331.741 207.515 331.368C207.174 330.984 206.667 330.792 205.995 330.792C205.323 330.792 204.816 330.984 204.475 331.368C204.134 331.741 203.904 332.227 203.787 332.824C203.68 333.421 203.627 334.152 203.627 335.016C203.627 335.912 203.68 336.664 203.787 337.272C203.894 337.88 204.118 338.371 204.459 338.744C204.811 339.117 205.323 339.304 205.995 339.304C206.667 339.304 207.174 339.117 207.515 338.744C207.867 338.371 208.096 337.88 208.203 337.272C208.31 336.664 208.363 335.912 208.363 335.016Z" fill="white"/>
<path d="M203.923 301V299.336H207.251V311H205.411V301H203.923Z" fill="white"/>
<path d="M273.168 337.949L268.905 331.555C268.462 330.89 268.938 330 269.737 330H278.263C279.062 330 279.538 330.89 279.095 331.555L274.832 337.949C274.436 338.543 273.564 338.543 273.168 337.949Z" stroke="white" stroke-width="2"/>
<path d="M237 330L233.414 333.586C232.633 334.367 232.633 335.633 233.414 336.414L237 340" stroke="white" stroke-width="2" stroke-linecap="round"/>
<rect x="247.536" y="332.879" width="8" height="2" rx="1" transform="rotate(135 247.536 332.879)" fill="white"/>
<rect x="246.121" y="338.536" width="8" height="2" rx="1" transform="rotate(-135 246.121 338.536)" fill="white"/>
</svg>
