<svg xmlns="http://www.w3.org/2000/svg" fill="none" viewBox="0 0 100 30" height="30" width="100">
<rect fill-opacity="0.25" fill="black" rx="15" height="30" width="100"></rect>
<path fill="white" d="M21.8383 10.66V19H20.4703V13.288L17.9263 19H16.9783L14.4223 13.288V19H13.0543V10.66H14.5303L17.4583 17.2L20.3743 10.66H21.8383ZM29.6243 12.388V19H28.2563V18.22C28.0403 18.492 27.7563 18.708 27.4043 18.868C27.0603 19.02 26.6923 19.096 26.3003 19.096C25.7803 19.096 25.3123 18.988 24.8963 18.772C24.4883 18.556 24.1643 18.236 23.9243 17.812C23.6923 17.388 23.5763 16.876 23.5763 16.276V12.388H24.9323V16.072C24.9323 16.664 25.0803 17.12 25.3763 17.44C25.6723 17.752 26.0763 17.908 26.5883 17.908C27.1003 17.908 27.5043 17.752 27.8003 17.44C28.1043 17.12 28.2563 16.664 28.2563 16.072V12.388H29.6243ZM33.8293 19.108C33.3093 19.108 32.8413 19.016 32.4253 18.832C32.0173 18.64 31.6933 18.384 31.4533 18.064C31.2133 17.736 31.0853 17.372 31.0693 16.972H32.4853C32.5093 17.252 32.6413 17.488 32.8813 17.68C33.1293 17.864 33.4373 17.956 33.8053 17.956C34.1893 17.956 34.4853 17.884 34.6933 17.74C34.9093 17.588 35.0173 17.396 35.0173 17.164C35.0173 16.916 34.8973 16.732 34.6573 16.612C34.4253 16.492 34.0533 16.36 33.5413 16.216C33.0453 16.08 32.6413 15.948 32.3293 15.82C32.0173 15.692 31.7453 15.496 31.5133 15.232C31.2893 14.968 31.1773 14.62 31.1773 14.188C31.1773 13.836 31.2813 13.516 31.4893 13.228C31.6973 12.932 31.9933 12.7 32.3773 12.532C32.7693 12.364 33.2173 12.28 33.7213 12.28C34.4733 12.28 35.0773 12.472 35.5333 12.856C35.9973 13.232 36.2453 13.748 36.2773 14.404H34.9093C34.8853 14.108 34.7653 13.872 34.5493 13.696C34.3333 13.52 34.0413 13.432 33.6733 13.432C33.3133 13.432 33.0373 13.5 32.8453 13.636C32.6533 13.772 32.5573 13.952 32.5573 14.176C32.5573 14.352 32.6213 14.5 32.7493 14.62C32.8773 14.74 33.0333 14.836 33.2173 14.908C33.4013 14.972 33.6733 15.056 34.0333 15.16C34.5133 15.288 34.9053 15.42 35.2093 15.556C35.5213 15.684 35.7893 15.876 36.0133 16.132C36.2373 16.388 36.3533 16.728 36.3613 17.152C36.3613 17.528 36.2573 17.864 36.0493 18.16C35.8413 18.456 35.5453 18.688 35.1613 18.856C34.7853 19.024 34.3413 19.108 33.8293 19.108ZM38.5355 11.512C38.2875 11.512 38.0795 11.428 37.9115 11.26C37.7435 11.092 37.6595 10.884 37.6595 10.636C37.6595 10.388 37.7435 10.18 37.9115 10.012C38.0795 9.844 38.2875 9.76 38.5355 9.76C38.7755 9.76 38.9795 9.844 39.1475 10.012C39.3155 10.18 39.3995 10.388 39.3995 10.636C39.3995 10.884 39.3155 11.092 39.1475 11.26C38.9795 11.428 38.7755 11.512 38.5355 11.512ZM39.2075 12.388V19H37.8395V12.388H39.2075ZM40.5475 15.688C40.5475 15.008 40.6835 14.412 40.9555 13.9C41.2355 13.38 41.6195 12.98 42.1075 12.7C42.5955 12.42 43.1555 12.28 43.7875 12.28C44.5875 12.28 45.2475 12.472 45.7675 12.856C46.2955 13.232 46.6515 13.772 46.8355 14.476H45.3595C45.2395 14.148 45.0475 13.892 44.7835 13.708C44.5195 13.524 44.1875 13.432 43.7875 13.432C43.2275 13.432 42.7795 13.632 42.4435 14.032C42.1155 14.424 41.9515 14.976 41.9515 15.688C41.9515 16.4 42.1155 16.956 42.4435 17.356C42.7795 17.756 43.2275 17.956 43.7875 17.956C44.5795 17.956 45.1035 17.608 45.3595 16.912H46.8355C46.6435 17.584 46.2835 18.12 45.7555 18.52C45.2275 18.912 44.5715 19.108 43.7875 19.108C43.1555 19.108 42.5955 18.968 42.1075 18.688C41.6195 18.4 41.2355 18 40.9555 17.488C40.6835 16.968 40.5475 16.368 40.5475 15.688ZM57.148 13.144C57.148 13.568 57.048 13.968 56.848 14.344C56.648 14.72 56.328 15.028 55.888 15.268C55.448 15.5 54.884 15.616 54.196 15.616H52.684V19H51.316V10.66H54.196C54.836 10.66 55.376 10.772 55.816 10.996C56.264 11.212 56.596 11.508 56.812 11.884C57.036 12.26 57.148 12.68 57.148 13.144ZM54.196 14.5C54.716 14.5 55.104 14.384 55.36 14.152C55.616 13.912 55.744 13.576 55.744 13.144C55.744 12.232 55.228 11.776 54.196 11.776H52.684V14.5H54.196ZM59.8207 10.12V19H58.4527V10.12H59.8207ZM61.1608 15.664C61.1608 15 61.2968 14.412 61.5688 13.9C61.8488 13.388 62.2248 12.992 62.6968 12.712C63.1768 12.424 63.7048 12.28 64.2808 12.28C64.8008 12.28 65.2528 12.384 65.6368 12.592C66.0288 12.792 66.3408 13.044 66.5728 13.348V12.388H67.9528V19H66.5728V18.016C66.3408 18.328 66.0248 18.588 65.6248 18.796C65.2248 19.004 64.7688 19.108 64.2568 19.108C63.6888 19.108 63.1688 18.964 62.6968 18.676C62.2248 18.38 61.8488 17.972 61.5688 17.452C61.2968 16.924 61.1608 16.328 61.1608 15.664ZM66.5728 15.688C66.5728 15.232 66.4768 14.836 66.2848 14.5C66.1008 14.164 65.8568 13.908 65.5528 13.732C65.2488 13.556 64.9208 13.468 64.5688 13.468C64.2168 13.468 63.8888 13.556 63.5848 13.732C63.2808 13.9 63.0328 14.152 62.8408 14.488C62.6568 14.816 62.5648 15.208 62.5648 15.664C62.5648 16.12 62.6568 16.52 62.8408 16.864C63.0328 17.208 63.2808 17.472 63.5848 17.656C63.8968 17.832 64.2248 17.92 64.5688 17.92C64.9208 17.92 65.2488 17.832 65.5528 17.656C65.8568 17.48 66.1008 17.224 66.2848 16.888C66.4768 16.544 66.5728 16.144 66.5728 15.688ZM75.7016 12.388L71.6456 22.108H70.2296L71.5736 18.892L68.9696 12.388H70.4936L72.3536 17.428L74.2856 12.388H75.7016ZM82.794 15.532C82.794 15.78 82.778 16.004 82.746 16.204H77.694C77.734 16.732 77.93 17.156 78.282 17.476C78.634 17.796 79.066 17.956 79.578 17.956C80.314 17.956 80.834 17.648 81.138 17.032H82.614C82.414 17.64 82.05 18.14 81.522 18.532C81.002 18.916 80.354 19.108 79.578 19.108C78.946 19.108 78.378 18.968 77.874 18.688C77.378 18.4 76.986 18 76.698 17.488C76.418 16.968 76.278 16.368 76.278 15.688C76.278 15.008 76.414 14.412 76.686 13.9C76.966 13.38 77.354 12.98 77.85 12.7C78.354 12.42 78.93 12.28 79.578 12.28C80.202 12.28 80.758 12.416 81.246 12.688C81.734 12.96 82.114 13.344 82.386 13.84C82.658 14.328 82.794 14.892 82.794 15.532ZM81.366 15.1C81.358 14.596 81.178 14.192 80.826 13.888C80.474 13.584 80.038 13.432 79.518 13.432C79.046 13.432 78.642 13.584 78.306 13.888C77.97 14.184 77.77 14.588 77.706 15.1H81.366ZM85.5082 13.348C85.7082 13.012 85.9722 12.752 86.3002 12.568C86.6362 12.376 87.0322 12.28 87.4882 12.28V13.696H87.1402C86.6042 13.696 86.1962 13.832 85.9162 14.104C85.6442 14.376 85.5082 14.848 85.5082 15.52V19H84.1402V12.388H85.5082V13.348Z"></path>
</svg>
