<svg width="480" height="360" viewBox="0 0 480 360" fill="none" xmlns="http://www.w3.org/2000/svg">
<path d="M104.581 0H450C466.569 0 480 13.4315 480 30V330C480 346.569 466.569 360 450 360H104.581H30C13.4315 360 0 346.569 0 330V30C0 13.4315 13.4315 0 30 0H104.581Z" fill="#191919"/>
<path d="M228.499 290.192C228.499 290.757 228.366 291.291 228.099 291.792C227.833 292.293 227.406 292.704 226.819 293.024C226.233 293.333 225.481 293.488 224.563 293.488H222.547V298H220.723V286.88H224.563C225.417 286.88 226.137 287.029 226.723 287.328C227.321 287.616 227.763 288.011 228.051 288.512C228.35 289.013 228.499 289.573 228.499 290.192ZM224.563 292C225.257 292 225.774 291.845 226.115 291.536C226.457 291.216 226.627 290.768 226.627 290.192C226.627 288.976 225.939 288.368 224.563 288.368H222.547V292H224.563ZM234.063 298.144C233.231 298.144 232.479 297.957 231.807 297.584C231.135 297.2 230.607 296.667 230.223 295.984C229.839 295.291 229.647 294.491 229.647 293.584C229.647 292.688 229.844 291.893 230.239 291.2C230.634 290.507 231.172 289.973 231.855 289.6C232.538 289.227 233.3 289.04 234.143 289.04C234.986 289.04 235.748 289.227 236.431 289.6C237.114 289.973 237.652 290.507 238.047 291.2C238.442 291.893 238.639 292.688 238.639 293.584C238.639 294.48 238.436 295.275 238.031 295.968C237.626 296.661 237.071 297.2 236.367 297.584C235.674 297.957 234.906 298.144 234.063 298.144ZM234.063 296.56C234.532 296.56 234.97 296.448 235.375 296.224C235.791 296 236.127 295.664 236.383 295.216C236.639 294.768 236.767 294.224 236.767 293.584C236.767 292.944 236.644 292.405 236.399 291.968C236.154 291.52 235.828 291.184 235.423 290.96C235.018 290.736 234.58 290.624 234.111 290.624C233.642 290.624 233.204 290.736 232.799 290.96C232.404 291.184 232.09 291.52 231.855 291.968C231.62 292.405 231.503 292.944 231.503 293.584C231.503 294.533 231.743 295.269 232.223 295.792C232.714 296.304 233.327 296.56 234.063 296.56ZM244.89 289.04C245.584 289.04 246.202 289.184 246.746 289.472C247.301 289.76 247.733 290.187 248.042 290.752C248.352 291.317 248.506 292 248.506 292.8V298H246.698V293.072C246.698 292.283 246.501 291.68 246.106 291.264C245.712 290.837 245.173 290.624 244.49 290.624C243.808 290.624 243.264 290.837 242.858 291.264C242.464 291.68 242.266 292.283 242.266 293.072V298H240.442V289.184H242.266V290.192C242.565 289.829 242.944 289.547 243.402 289.344C243.872 289.141 244.368 289.04 244.89 289.04ZM254.385 289.04C255.067 289.04 255.67 289.179 256.193 289.456C256.726 289.723 257.142 290.059 257.441 290.464V289.184H259.281V298.144C259.281 298.955 259.11 299.675 258.769 300.304C258.427 300.944 257.931 301.445 257.281 301.808C256.641 302.171 255.873 302.352 254.977 302.352C253.782 302.352 252.79 302.069 252.001 301.504C251.211 300.949 250.763 300.192 250.657 299.232H252.465C252.603 299.691 252.897 300.059 253.345 300.336C253.803 300.624 254.347 300.768 254.977 300.768C255.713 300.768 256.305 300.544 256.753 300.096C257.211 299.648 257.441 298.997 257.441 298.144V296.672C257.131 297.088 256.71 297.44 256.177 297.728C255.654 298.005 255.057 298.144 254.385 298.144C253.617 298.144 252.913 297.952 252.273 297.568C251.643 297.173 251.142 296.629 250.769 295.936C250.406 295.232 250.225 294.437 250.225 293.552C250.225 292.667 250.406 291.883 250.769 291.2C251.142 290.517 251.643 289.989 252.273 289.616C252.913 289.232 253.617 289.04 254.385 289.04ZM257.441 293.584C257.441 292.976 257.313 292.448 257.057 292C256.811 291.552 256.486 291.211 256.081 290.976C255.675 290.741 255.238 290.624 254.769 290.624C254.299 290.624 253.862 290.741 253.457 290.976C253.051 291.2 252.721 291.536 252.465 291.984C252.219 292.421 252.097 292.944 252.097 293.552C252.097 294.16 252.219 294.693 252.465 295.152C252.721 295.611 253.051 295.963 253.457 296.208C253.873 296.443 254.31 296.56 254.769 296.56C255.238 296.56 255.675 296.443 256.081 296.208C256.486 295.973 256.811 295.632 257.057 295.184C257.313 294.725 257.441 294.192 257.441 293.584Z" fill="white"/>
</svg>
