<svg xmlns="http://www.w3.org/2000/svg" fill="none" viewBox="0 0 140 42" height="42" width="140">
<path fill="white" d="M2.268 17.764V20.212H5.148V21.328H2.268V23.884H5.508V25H0.9V16.648H5.508V17.764H2.268ZM8.56097 16.12V25H7.19297V16.12H8.56097ZM16.417 21.532C16.417 21.78 16.401 22.004 16.369 22.204H11.317C11.357 22.732 11.553 23.156 11.905 23.476C12.257 23.796 12.689 23.956 13.201 23.956C13.937 23.956 14.457 23.648 14.761 23.032H16.237C16.037 23.64 15.673 24.14 15.145 24.532C14.625 24.916 13.977 25.108 13.201 25.108C12.569 25.108 12.001 24.968 11.497 24.688C11.001 24.4 10.609 24 10.321 23.488C10.041 22.968 9.90103 22.368 9.90103 21.688C9.90103 21.008 10.037 20.412 10.309 19.9C10.589 19.38 10.977 18.98 11.473 18.7C11.977 18.42 12.553 18.28 13.201 18.28C13.825 18.28 14.381 18.416 14.869 18.688C15.357 18.96 15.737 19.344 16.009 19.84C16.281 20.328 16.417 20.892 16.417 21.532ZM14.989 21.1C14.981 20.596 14.801 20.192 14.449 19.888C14.097 19.584 13.661 19.432 13.141 19.432C12.669 19.432 12.265 19.584 11.929 19.888C11.593 20.184 11.393 20.588 11.329 21.1H14.989ZM17.3073 21.688C17.3073 21.008 17.4433 20.412 17.7153 19.9C17.9953 19.38 18.3793 18.98 18.8673 18.7C19.3553 18.42 19.9153 18.28 20.5473 18.28C21.3473 18.28 22.0073 18.472 22.5273 18.856C23.0553 19.232 23.4113 19.772 23.5953 20.476H22.1193C21.9993 20.148 21.8073 19.892 21.5433 19.708C21.2793 19.524 20.9473 19.432 20.5473 19.432C19.9873 19.432 19.5393 19.632 19.2033 20.032C18.8753 20.424 18.7113 20.976 18.7113 21.688C18.7113 22.4 18.8753 22.956 19.2033 23.356C19.5393 23.756 19.9873 23.956 20.5473 23.956C21.3393 23.956 21.8633 23.608 22.1193 22.912H23.5953C23.4033 23.584 23.0433 24.12 22.5153 24.52C21.9873 24.912 21.3313 25.108 20.5473 25.108C19.9153 25.108 19.3553 24.968 18.8673 24.688C18.3793 24.4 17.9953 24 17.7153 23.488C17.4433 22.968 17.3073 22.368 17.3073 21.688ZM26.5546 19.504V23.164C26.5546 23.412 26.6106 23.592 26.7226 23.704C26.8426 23.808 27.0426 23.86 27.3226 23.86H28.1626V25H27.0826C26.4666 25 25.9946 24.856 25.6666 24.568C25.3386 24.28 25.1746 23.812 25.1746 23.164V19.504H24.3946V18.388H25.1746V16.744H26.5546V18.388H28.1626V19.504H26.5546ZM30.7914 19.348C30.9914 19.012 31.2554 18.752 31.5834 18.568C31.9194 18.376 32.3154 18.28 32.7714 18.28V19.696H32.4234C31.8874 19.696 31.4794 19.832 31.1994 20.104C30.9274 20.376 30.7914 20.848 30.7914 21.52V25H29.4234V18.388H30.7914V19.348ZM34.7249 17.512C34.4769 17.512 34.2689 17.428 34.1009 17.26C33.9329 17.092 33.8489 16.884 33.8489 16.636C33.8489 16.388 33.9329 16.18 34.1009 16.012C34.2689 15.844 34.4769 15.76 34.7249 15.76C34.9649 15.76 35.1689 15.844 35.3369 16.012C35.5049 16.18 35.5889 16.388 35.5889 16.636C35.5889 16.884 35.5049 17.092 35.3369 17.26C35.1689 17.428 34.9649 17.512 34.7249 17.512ZM35.3969 18.388V25H34.0289V18.388H35.3969ZM36.737 21.688C36.737 21.008 36.873 20.412 37.145 19.9C37.425 19.38 37.809 18.98 38.297 18.7C38.785 18.42 39.345 18.28 39.977 18.28C40.777 18.28 41.437 18.472 41.957 18.856C42.485 19.232 42.841 19.772 43.025 20.476H41.549C41.429 20.148 41.237 19.892 40.973 19.708C40.709 19.524 40.377 19.432 39.977 19.432C39.417 19.432 38.969 19.632 38.633 20.032C38.305 20.424 38.141 20.976 38.141 21.688C38.141 22.4 38.305 22.956 38.633 23.356C38.969 23.756 39.417 23.956 39.977 23.956C40.769 23.956 41.293 23.608 41.549 22.912H43.025C42.833 23.584 42.473 24.12 41.945 24.52C41.417 24.912 40.761 25.108 39.977 25.108C39.345 25.108 38.785 24.968 38.297 24.688C37.809 24.4 37.425 24 37.145 23.488C36.873 22.968 36.737 22.368 36.737 21.688ZM48.8735 19.36C49.1055 19.056 49.4215 18.8 49.8215 18.592C50.2215 18.384 50.6735 18.28 51.1775 18.28C51.7535 18.28 52.2775 18.424 52.7495 18.712C53.2295 18.992 53.6055 19.388 53.8775 19.9C54.1495 20.412 54.2855 21 54.2855 21.664C54.2855 22.328 54.1495 22.924 53.8775 23.452C53.6055 23.972 53.2295 24.38 52.7495 24.676C52.2775 24.964 51.7535 25.108 51.1775 25.108C50.6735 25.108 50.2255 25.008 49.8335 24.808C49.4415 24.6 49.1215 24.344 48.8735 24.04V28.144H47.5055V18.388H48.8735V19.36ZM52.8935 21.664C52.8935 21.208 52.7975 20.816 52.6055 20.488C52.4215 20.152 52.1735 19.9 51.8615 19.732C51.5575 19.556 51.2295 19.468 50.8775 19.468C50.5335 19.468 50.2055 19.556 49.8935 19.732C49.5895 19.908 49.3415 20.164 49.1495 20.5C48.9655 20.836 48.8735 21.232 48.8735 21.688C48.8735 22.144 48.9655 22.544 49.1495 22.888C49.3415 23.224 49.5895 23.48 49.8935 23.656C50.2055 23.832 50.5335 23.92 50.8775 23.92C51.2295 23.92 51.5575 23.832 51.8615 23.656C52.1735 23.472 52.4215 23.208 52.6055 22.864C52.7975 22.52 52.8935 22.12 52.8935 21.664ZM56.3343 17.512C56.0863 17.512 55.8783 17.428 55.7103 17.26C55.5423 17.092 55.4583 16.884 55.4583 16.636C55.4583 16.388 55.5423 16.18 55.7103 16.012C55.8783 15.844 56.0863 15.76 56.3343 15.76C56.5743 15.76 56.7783 15.844 56.9463 16.012C57.1143 16.18 57.1983 16.388 57.1983 16.636C57.1983 16.884 57.1143 17.092 56.9463 17.26C56.7783 17.428 56.5743 17.512 56.3343 17.512ZM57.0063 18.388V25H55.6383V18.388H57.0063ZM58.3463 21.664C58.3463 21 58.4823 20.412 58.7543 19.9C59.0343 19.388 59.4103 18.992 59.8823 18.712C60.3623 18.424 60.8903 18.28 61.4663 18.28C61.9863 18.28 62.4383 18.384 62.8223 18.592C63.2143 18.792 63.5263 19.044 63.7583 19.348V18.388H65.1383V25H63.7583V24.016C63.5263 24.328 63.2103 24.588 62.8103 24.796C62.4103 25.004 61.9543 25.108 61.4423 25.108C60.8743 25.108 60.3543 24.964 59.8823 24.676C59.4103 24.38 59.0343 23.972 58.7543 23.452C58.4823 22.924 58.3463 22.328 58.3463 21.664ZM63.7583 21.688C63.7583 21.232 63.6623 20.836 63.4703 20.5C63.2863 20.164 63.0423 19.908 62.7383 19.732C62.4343 19.556 62.1063 19.468 61.7543 19.468C61.4023 19.468 61.0743 19.556 60.7703 19.732C60.4663 19.9 60.2183 20.152 60.0263 20.488C59.8423 20.816 59.7503 21.208 59.7503 21.664C59.7503 22.12 59.8423 22.52 60.0263 22.864C60.2183 23.208 60.4663 23.472 60.7703 23.656C61.0823 23.832 61.4103 23.92 61.7543 23.92C62.1063 23.92 62.4343 23.832 62.7383 23.656C63.0423 23.48 63.2863 23.224 63.4703 22.888C63.6623 22.544 63.7583 22.144 63.7583 21.688ZM70.2712 18.28C70.7912 18.28 71.2552 18.388 71.6632 18.604C72.0792 18.82 72.4032 19.14 72.6352 19.564C72.8672 19.988 72.9832 20.5 72.9832 21.1V25H71.6272V21.304C71.6272 20.712 71.4792 20.26 71.1832 19.948C70.8872 19.628 70.4832 19.468 69.9712 19.468C69.4592 19.468 69.0512 19.628 68.7472 19.948C68.4512 20.26 68.3032 20.712 68.3032 21.304V25H66.9352V18.388H68.3032V19.144C68.5272 18.872 68.8112 18.66 69.1552 18.508C69.5072 18.356 69.8792 18.28 70.2712 18.28ZM77.5961 25.108C76.9721 25.108 76.4081 24.968 75.9041 24.688C75.4001 24.4 75.0041 24 74.7161 23.488C74.4281 22.968 74.2841 22.368 74.2841 21.688C74.2841 21.016 74.4321 20.42 74.7281 19.9C75.0241 19.38 75.4281 18.98 75.9401 18.7C76.4521 18.42 77.0241 18.28 77.6561 18.28C78.2881 18.28 78.8601 18.42 79.3721 18.7C79.8841 18.98 80.2881 19.38 80.5841 19.9C80.8801 20.42 81.0281 21.016 81.0281 21.688C81.0281 22.36 80.8761 22.956 80.5721 23.476C80.2681 23.996 79.8521 24.4 79.3241 24.688C78.8041 24.968 78.2281 25.108 77.5961 25.108ZM77.5961 23.92C77.9481 23.92 78.2761 23.836 78.5801 23.668C78.8921 23.5 79.1441 23.248 79.3361 22.912C79.5281 22.576 79.6241 22.168 79.6241 21.688C79.6241 21.208 79.5321 20.804 79.3481 20.476C79.1641 20.14 78.9201 19.888 78.6161 19.72C78.3121 19.552 77.9841 19.468 77.6321 19.468C77.2801 19.468 76.9521 19.552 76.6481 19.72C76.3521 19.888 76.1161 20.14 75.9401 20.476C75.7641 20.804 75.6761 21.208 75.6761 21.688C75.6761 22.4 75.8561 22.952 76.2161 23.344C76.5841 23.728 77.0441 23.92 77.5961 23.92Z"></path>
</svg>
