<svg width="150" height="30" viewBox="0 0 150 30" fill="none" xmlns="http://www.w3.org/2000/svg">
<path d="M31.4225 14.812C31.4225 13.996 31.6105 13.264 31.9865 12.616C32.3705 11.968 32.8865 11.464 33.5345 11.104C34.1905 10.736 34.9065 10.552 35.6825 10.552C36.5705 10.552 37.3585 10.772 38.0465 11.212C38.7425 11.644 39.2465 12.26 39.5585 13.06H37.9145C37.6985 12.62 37.3985 12.292 37.0145 12.076C36.6305 11.86 36.1865 11.752 35.6825 11.752C35.1305 11.752 34.6385 11.876 34.2065 12.124C33.7745 12.372 33.4345 12.728 33.1865 13.192C32.9465 13.656 32.8265 14.196 32.8265 14.812C32.8265 15.428 32.9465 15.968 33.1865 16.432C33.4345 16.896 33.7745 17.256 34.2065 17.512C34.6385 17.76 35.1305 17.884 35.6825 17.884C36.1865 17.884 36.6305 17.776 37.0145 17.56C37.3985 17.344 37.6985 17.016 37.9145 16.576H39.5585C39.2465 17.376 38.7425 17.992 38.0465 18.424C37.3585 18.856 36.5705 19.072 35.6825 19.072C34.8985 19.072 34.1825 18.892 33.5345 18.532C32.8865 18.164 32.3705 17.656 31.9865 17.008C31.6105 16.36 31.4225 15.628 31.4225 14.812ZM42.5278 10.12V19H41.1598V10.12H42.5278ZM45.0198 11.512C44.7718 11.512 44.5638 11.428 44.3958 11.26C44.2278 11.092 44.1438 10.884 44.1438 10.636C44.1438 10.388 44.2278 10.18 44.3958 10.012C44.5638 9.844 44.7718 9.76 45.0198 9.76C45.2598 9.76 45.4638 9.844 45.6318 10.012C45.7998 10.18 45.8838 10.388 45.8838 10.636C45.8838 10.884 45.7998 11.092 45.6318 11.26C45.4638 11.428 45.2598 11.512 45.0198 11.512ZM45.6918 12.388V19H44.3238V12.388H45.6918ZM47.0319 15.688C47.0319 15.008 47.1679 14.412 47.4399 13.9C47.7199 13.38 48.1039 12.98 48.5919 12.7C49.0799 12.42 49.6399 12.28 50.2719 12.28C51.0719 12.28 51.7319 12.472 52.2519 12.856C52.7799 13.232 53.1359 13.772 53.3199 14.476H51.8439C51.7239 14.148 51.5319 13.892 51.2679 13.708C51.0039 13.524 50.6719 13.432 50.2719 13.432C49.7119 13.432 49.2639 13.632 48.9279 14.032C48.5999 14.424 48.4359 14.976 48.4359 15.688C48.4359 16.4 48.5999 16.956 48.9279 17.356C49.2639 17.756 49.7119 17.956 50.2719 17.956C51.0639 17.956 51.5879 17.608 51.8439 16.912H53.3199C53.1279 17.584 52.7679 18.12 52.2399 18.52C51.7119 18.912 51.0559 19.108 50.2719 19.108C49.6399 19.108 49.0799 18.968 48.5919 18.688C48.1039 18.4 47.7199 18 47.4399 17.488C47.1679 16.968 47.0319 16.368 47.0319 15.688ZM57.2992 15.7L60.3472 19H58.4992L56.0512 16.156V19H54.6832V10.12H56.0512V15.28L58.4512 12.388H60.3472L57.2992 15.7ZM66.0409 13.504V17.164C66.0409 17.412 66.0969 17.592 66.2089 17.704C66.3289 17.808 66.5289 17.86 66.8089 17.86H67.6489V19H66.5689C65.9529 19 65.4809 18.856 65.1529 18.568C64.8249 18.28 64.6609 17.812 64.6609 17.164V13.504H63.8809V12.388H64.6609V10.744H66.0409V12.388H67.6489V13.504H66.0409ZM71.7778 19.108C71.1538 19.108 70.5898 18.968 70.0858 18.688C69.5818 18.4 69.1858 18 68.8978 17.488C68.6098 16.968 68.4658 16.368 68.4658 15.688C68.4658 15.016 68.6138 14.42 68.9098 13.9C69.2058 13.38 69.6098 12.98 70.1218 12.7C70.6338 12.42 71.2058 12.28 71.8378 12.28C72.4698 12.28 73.0418 12.42 73.5538 12.7C74.0658 12.98 74.4698 13.38 74.7658 13.9C75.0618 14.42 75.2098 15.016 75.2098 15.688C75.2098 16.36 75.0578 16.956 74.7538 17.476C74.4498 17.996 74.0338 18.4 73.5058 18.688C72.9858 18.968 72.4098 19.108 71.7778 19.108ZM71.7778 17.92C72.1298 17.92 72.4578 17.836 72.7618 17.668C73.0738 17.5 73.3258 17.248 73.5178 16.912C73.7098 16.576 73.8058 16.168 73.8058 15.688C73.8058 15.208 73.7138 14.804 73.5298 14.476C73.3458 14.14 73.1018 13.888 72.7978 13.72C72.4938 13.552 72.1658 13.468 71.8138 13.468C71.4618 13.468 71.1338 13.552 70.8298 13.72C70.5338 13.888 70.2978 14.14 70.1218 14.476C69.9458 14.804 69.8578 15.208 69.8578 15.688C69.8578 16.4 70.0378 16.952 70.3978 17.344C70.7658 17.728 71.2258 17.92 71.7778 17.92ZM85.6673 12.388V19H84.2993V18.22C84.0833 18.492 83.7993 18.708 83.4473 18.868C83.1033 19.02 82.7353 19.096 82.3433 19.096C81.8233 19.096 81.3553 18.988 80.9393 18.772C80.5313 18.556 80.2073 18.236 79.9673 17.812C79.7353 17.388 79.6193 16.876 79.6193 16.276V12.388H80.9753V16.072C80.9753 16.664 81.1233 17.12 81.4193 17.44C81.7153 17.752 82.1193 17.908 82.6313 17.908C83.1433 17.908 83.5473 17.752 83.8433 17.44C84.1473 17.12 84.2993 16.664 84.2993 16.072V12.388H85.6673ZM90.8083 12.28C91.3283 12.28 91.7923 12.388 92.2003 12.604C92.6163 12.82 92.9403 13.14 93.1723 13.564C93.4043 13.988 93.5203 14.5 93.5203 15.1V19H92.1643V15.304C92.1643 14.712 92.0163 14.26 91.7203 13.948C91.4243 13.628 91.0203 13.468 90.5083 13.468C89.9963 13.468 89.5883 13.628 89.2843 13.948C88.9883 14.26 88.8403 14.712 88.8403 15.304V19H87.4723V12.388H88.8403V13.144C89.0643 12.872 89.3483 12.66 89.6923 12.508C90.0443 12.356 90.4163 12.28 90.8083 12.28ZM96.6332 10.12V19H95.2652V10.12H96.6332ZM101.297 19.108C100.673 19.108 100.109 18.968 99.6053 18.688C99.1013 18.4 98.7053 18 98.4173 17.488C98.1293 16.968 97.9853 16.368 97.9853 15.688C97.9853 15.016 98.1333 14.42 98.4293 13.9C98.7253 13.38 99.1293 12.98 99.6413 12.7C100.153 12.42 100.725 12.28 101.357 12.28C101.989 12.28 102.561 12.42 103.073 12.7C103.585 12.98 103.989 13.38 104.285 13.9C104.581 14.42 104.729 15.016 104.729 15.688C104.729 16.36 104.577 16.956 104.273 17.476C103.969 17.996 103.553 18.4 103.025 18.688C102.505 18.968 101.929 19.108 101.297 19.108ZM101.297 17.92C101.649 17.92 101.977 17.836 102.281 17.668C102.593 17.5 102.845 17.248 103.037 16.912C103.229 16.576 103.325 16.168 103.325 15.688C103.325 15.208 103.233 14.804 103.049 14.476C102.865 14.14 102.621 13.888 102.317 13.72C102.013 13.552 101.685 13.468 101.333 13.468C100.981 13.468 100.653 13.552 100.349 13.72C100.053 13.888 99.8173 14.14 99.6413 14.476C99.4653 14.804 99.3773 15.208 99.3773 15.688C99.3773 16.4 99.5573 16.952 99.9173 17.344C100.285 17.728 100.745 17.92 101.297 17.92ZM105.626 15.688C105.626 15.008 105.762 14.412 106.034 13.9C106.314 13.38 106.698 12.98 107.186 12.7C107.674 12.42 108.234 12.28 108.866 12.28C109.666 12.28 110.326 12.472 110.846 12.856C111.374 13.232 111.73 13.772 111.914 14.476H110.438C110.318 14.148 110.126 13.892 109.862 13.708C109.598 13.524 109.266 13.432 108.866 13.432C108.306 13.432 107.858 13.632 107.522 14.032C107.194 14.424 107.03 14.976 107.03 15.688C107.03 16.4 107.194 16.956 107.522 17.356C107.858 17.756 108.306 17.956 108.866 17.956C109.658 17.956 110.182 17.608 110.438 16.912H111.914C111.722 17.584 111.362 18.12 110.834 18.52C110.306 18.912 109.65 19.108 108.866 19.108C108.234 19.108 107.674 18.968 107.186 18.688C106.698 18.4 106.314 18 106.034 17.488C105.762 16.968 105.626 16.368 105.626 15.688ZM115.893 15.7L118.941 19H117.093L114.645 16.156V19H113.277V10.12H114.645V15.28L117.045 12.388H118.941L115.893 15.7Z" fill="white"/>
</svg>
