<svg width="480" height="360" viewBox="0 0 480 360" fill="none" xmlns="http://www.w3.org/2000/svg">
<rect x="170" y="50" width="280" height="280" fill="white"/>
<rect x="176" y="56" width="268" height="268" rx="6" stroke="#E6E6E6" stroke-width="12"/>
<path d="M292.133 190.51C292.133 189.83 292.289 189.22 292.603 188.68C292.923 188.14 293.353 187.72 293.893 187.42C294.439 187.113 295.036 186.96 295.683 186.96C296.423 186.96 297.079 187.143 297.653 187.51C298.233 187.87 298.653 188.383 298.913 189.05H297.543C297.363 188.683 297.113 188.41 296.793 188.23C296.473 188.05 296.103 187.96 295.683 187.96C295.223 187.96 294.813 188.063 294.453 188.27C294.093 188.477 293.809 188.773 293.603 189.16C293.403 189.547 293.303 189.997 293.303 190.51C293.303 191.023 293.403 191.473 293.603 191.86C293.809 192.247 294.093 192.547 294.453 192.76C294.813 192.967 295.223 193.07 295.683 193.07C296.103 193.07 296.473 192.98 296.793 192.8C297.113 192.62 297.363 192.347 297.543 191.98H298.913C298.653 192.647 298.233 193.16 297.653 193.52C297.079 193.88 296.423 194.06 295.683 194.06C295.029 194.06 294.433 193.91 293.893 193.61C293.353 193.303 292.923 192.88 292.603 192.34C292.289 191.8 292.133 191.19 292.133 190.51ZM302.637 194.09C302.117 194.09 301.647 193.973 301.227 193.74C300.807 193.5 300.477 193.167 300.237 192.74C299.997 192.307 299.877 191.807 299.877 191.24C299.877 190.68 300 190.183 300.247 189.75C300.494 189.317 300.83 188.983 301.257 188.75C301.684 188.517 302.16 188.4 302.687 188.4C303.214 188.4 303.69 188.517 304.117 188.75C304.544 188.983 304.88 189.317 305.127 189.75C305.374 190.183 305.497 190.68 305.497 191.24C305.497 191.8 305.37 192.297 305.117 192.73C304.864 193.163 304.517 193.5 304.077 193.74C303.644 193.973 303.164 194.09 302.637 194.09ZM302.637 193.1C302.93 193.1 303.204 193.03 303.457 192.89C303.717 192.75 303.927 192.54 304.087 192.26C304.247 191.98 304.327 191.64 304.327 191.24C304.327 190.84 304.25 190.503 304.097 190.23C303.944 189.95 303.74 189.74 303.487 189.6C303.234 189.46 302.96 189.39 302.667 189.39C302.374 189.39 302.1 189.46 301.847 189.6C301.6 189.74 301.404 189.95 301.257 190.23C301.11 190.503 301.037 190.84 301.037 191.24C301.037 191.833 301.187 192.293 301.487 192.62C301.794 192.94 302.177 193.1 302.637 193.1ZM307.764 189.3C307.957 189.047 308.221 188.833 308.554 188.66C308.887 188.487 309.264 188.4 309.684 188.4C310.164 188.4 310.601 188.52 310.994 188.76C311.394 188.993 311.707 189.323 311.934 189.75C312.161 190.177 312.274 190.667 312.274 191.22C312.274 191.773 312.161 192.27 311.934 192.71C311.707 193.143 311.394 193.483 310.994 193.73C310.601 193.97 310.164 194.09 309.684 194.09C309.264 194.09 308.891 194.007 308.564 193.84C308.237 193.667 307.971 193.453 307.764 193.2V196.62H306.624V188.49H307.764V189.3ZM311.114 191.22C311.114 190.84 311.034 190.513 310.874 190.24C310.721 189.96 310.514 189.75 310.254 189.61C310.001 189.463 309.727 189.39 309.434 189.39C309.147 189.39 308.874 189.463 308.614 189.61C308.361 189.757 308.154 189.97 307.994 190.25C307.841 190.53 307.764 190.86 307.764 191.24C307.764 191.62 307.841 191.953 307.994 192.24C308.154 192.52 308.361 192.733 308.614 192.88C308.874 193.027 309.147 193.1 309.434 193.1C309.727 193.1 310.001 193.027 310.254 192.88C310.514 192.727 310.721 192.507 310.874 192.22C311.034 191.933 311.114 191.6 311.114 191.22ZM313.981 187.76C313.775 187.76 313.601 187.69 313.461 187.55C313.321 187.41 313.251 187.237 313.251 187.03C313.251 186.823 313.321 186.65 313.461 186.51C313.601 186.37 313.775 186.3 313.981 186.3C314.181 186.3 314.351 186.37 314.491 186.51C314.631 186.65 314.701 186.823 314.701 187.03C314.701 187.237 314.631 187.41 314.491 187.55C314.351 187.69 314.181 187.76 313.981 187.76ZM314.541 188.49V194H313.401V188.49H314.541ZM321.088 191.11C321.088 191.317 321.075 191.503 321.048 191.67H316.838C316.871 192.11 317.035 192.463 317.328 192.73C317.621 192.997 317.981 193.13 318.408 193.13C319.021 193.13 319.455 192.873 319.708 192.36H320.938C320.771 192.867 320.468 193.283 320.028 193.61C319.595 193.93 319.055 194.09 318.408 194.09C317.881 194.09 317.408 193.973 316.988 193.74C316.575 193.5 316.248 193.167 316.008 192.74C315.775 192.307 315.658 191.807 315.658 191.24C315.658 190.673 315.771 190.177 315.998 189.75C316.231 189.317 316.555 188.983 316.968 188.75C317.388 188.517 317.868 188.4 318.408 188.4C318.928 188.4 319.391 188.513 319.798 188.74C320.205 188.967 320.521 189.287 320.748 189.7C320.975 190.107 321.088 190.577 321.088 191.11ZM319.898 190.75C319.891 190.33 319.741 189.993 319.448 189.74C319.155 189.487 318.791 189.36 318.358 189.36C317.965 189.36 317.628 189.487 317.348 189.74C317.068 189.987 316.901 190.323 316.848 190.75H319.898ZM321.83 191.22C321.83 190.667 321.943 190.177 322.17 189.75C322.403 189.323 322.717 188.993 323.11 188.76C323.51 188.52 323.953 188.4 324.44 188.4C324.8 188.4 325.153 188.48 325.5 188.64C325.853 188.793 326.133 189 326.34 189.26V186.6H327.49V194H326.34V193.17C326.153 193.437 325.893 193.657 325.56 193.83C325.233 194.003 324.857 194.09 324.43 194.09C323.95 194.09 323.51 193.97 323.11 193.73C322.717 193.483 322.403 193.143 322.17 192.71C321.943 192.27 321.83 191.773 321.83 191.22ZM326.34 191.24C326.34 190.86 326.26 190.53 326.1 190.25C325.947 189.97 325.743 189.757 325.49 189.61C325.237 189.463 324.963 189.39 324.67 189.39C324.377 189.39 324.103 189.463 323.85 189.61C323.597 189.75 323.39 189.96 323.23 190.24C323.077 190.513 323 190.84 323 191.22C323 191.6 323.077 191.933 323.23 192.22C323.39 192.507 323.597 192.727 323.85 192.88C324.11 193.027 324.383 193.1 324.67 193.1C324.963 193.1 325.237 193.027 325.49 192.88C325.743 192.733 325.947 192.52 326.1 192.24C326.26 191.953 326.34 191.62 326.34 191.24Z" fill="black"/>
</svg>
