<svg xmlns="http://www.w3.org/2000/svg" fill="none" viewBox="0 0 480 360" height="360" width="480">
<path fill-opacity="0.75" fill="#191919" d="M0 0H480V80C480 91.0457 471.046 100 460 100H20C8.95432 100 0 91.0457 0 80V0Z"></path>
<path fill="white" d="M228.592 25.416C228.592 24.328 228.843 23.352 229.344 22.488C229.856 21.624 230.544 20.952 231.408 20.472C232.283 19.9813 233.237 19.736 234.272 19.736C235.456 19.736 236.507 20.0293 237.424 20.616C238.352 21.192 239.024 22.0133 239.44 23.08H237.248C236.96 22.4933 236.56 22.056 236.048 21.768C235.536 21.48 234.944 21.336 234.272 21.336C233.536 21.336 232.88 21.5013 232.304 21.832C231.728 22.1627 231.275 22.6373 230.944 23.256C230.624 23.8747 230.464 24.5947 230.464 25.416C230.464 26.2373 230.624 26.9573 230.944 27.576C231.275 28.1947 231.728 28.6747 232.304 29.016C232.88 29.3467 233.536 29.512 234.272 29.512C234.944 29.512 235.536 29.368 236.048 29.08C236.56 28.792 236.96 28.3547 237.248 27.768H239.44C239.024 28.8347 238.352 29.656 237.424 30.232C236.507 30.808 235.456 31.096 234.272 31.096C233.227 31.096 232.272 30.856 231.408 30.376C230.544 29.8853 229.856 29.208 229.344 28.344C228.843 27.48 228.592 26.504 228.592 25.416ZM243.399 23.464C243.666 23.016 244.018 22.6693 244.455 22.424C244.903 22.168 245.431 22.04 246.039 22.04V23.928H245.575C244.86 23.928 244.316 24.1093 243.943 24.472C243.58 24.8347 243.399 25.464 243.399 26.36V31H241.575V22.184H243.399V23.464ZM247.108 26.552C247.108 25.6667 247.289 24.8827 247.652 24.2C248.025 23.5173 248.526 22.9893 249.156 22.616C249.796 22.232 250.5 22.04 251.268 22.04C251.961 22.04 252.564 22.1787 253.076 22.456C253.598 22.7227 254.014 23.0587 254.324 23.464V22.184H256.164V31H254.324V29.688C254.014 30.104 253.593 30.4507 253.06 30.728C252.526 31.0053 251.918 31.144 251.236 31.144C250.478 31.144 249.785 30.952 249.156 30.568C248.526 30.1733 248.025 29.6293 247.652 28.936C247.289 28.232 247.108 27.4373 247.108 26.552ZM254.324 26.584C254.324 25.976 254.196 25.448 253.94 25C253.694 24.552 253.369 24.2107 252.964 23.976C252.558 23.7413 252.121 23.624 251.652 23.624C251.182 23.624 250.745 23.7413 250.34 23.976C249.934 24.2 249.604 24.536 249.348 24.984C249.102 25.4213 248.98 25.944 248.98 26.552C248.98 27.16 249.102 27.6933 249.348 28.152C249.604 28.6107 249.934 28.9627 250.34 29.208C250.756 29.4427 251.193 29.56 251.652 29.56C252.121 29.56 252.558 29.4427 252.964 29.208C253.369 28.9733 253.694 28.632 253.94 28.184C254.196 27.7253 254.324 27.192 254.324 26.584ZM261.759 31.144C261.066 31.144 260.442 31.0213 259.887 30.776C259.343 30.52 258.911 30.1787 258.591 29.752C258.271 29.3147 258.101 28.8293 258.079 28.296H259.967C259.999 28.6693 260.175 28.984 260.495 29.24C260.826 29.4853 261.237 29.608 261.727 29.608C262.239 29.608 262.634 29.512 262.911 29.32C263.199 29.1173 263.343 28.8613 263.343 28.552C263.343 28.2213 263.183 27.976 262.863 27.816C262.554 27.656 262.058 27.48 261.375 27.288C260.714 27.1067 260.175 26.9307 259.759 26.76C259.343 26.5893 258.981 26.328 258.671 25.976C258.373 25.624 258.223 25.16 258.223 24.584C258.223 24.1147 258.362 23.688 258.639 23.304C258.917 22.9093 259.311 22.6 259.823 22.376C260.346 22.152 260.943 22.04 261.615 22.04C262.618 22.04 263.423 22.296 264.031 22.808C264.65 23.3093 264.981 23.9973 265.023 24.872H263.199C263.167 24.4773 263.007 24.1627 262.719 23.928C262.431 23.6933 262.042 23.576 261.551 23.576C261.071 23.576 260.703 23.6667 260.447 23.848C260.191 24.0293 260.063 24.2693 260.063 24.568C260.063 24.8027 260.149 25 260.319 25.16C260.49 25.32 260.698 25.448 260.943 25.544C261.189 25.6293 261.551 25.7413 262.031 25.88C262.671 26.0507 263.194 26.2267 263.599 26.408C264.015 26.5787 264.373 26.8347 264.671 27.176C264.97 27.5173 265.125 27.9707 265.135 28.536C265.135 29.0373 264.997 29.4853 264.719 29.88C264.442 30.2747 264.047 30.584 263.535 30.808C263.034 31.032 262.442 31.144 261.759 31.144ZM271.666 22.04C272.338 22.04 272.936 22.184 273.458 22.472C273.992 22.76 274.408 23.1867 274.706 23.752C275.016 24.3173 275.17 25 275.17 25.8V31H273.362V26.072C273.362 25.2827 273.165 24.68 272.77 24.264C272.376 23.8373 271.837 23.624 271.154 23.624C270.472 23.624 269.928 23.8373 269.522 24.264C269.128 24.68 268.93 25.2827 268.93 26.072V31H267.106V19.16H268.93V23.208C269.24 22.8347 269.629 22.5467 270.098 22.344C270.578 22.1413 271.101 22.04 271.666 22.04Z"></path>
<path fill="white" d="M211.728 32.3162C211.592 32.7246 211.21 33 210.779 33H209.221C208.79 33 208.408 32.7246 208.272 32.3162L207.5 30H212.5L211.728 32.3162Z"></path>
<path fill="white" d="M202.796 22.8569C202.507 22.5349 202.458 22.0635 202.674 21.6888L203.417 20.4016C203.634 20.0268 204.067 19.8337 204.49 19.9231L206.868 20.4253L204.42 24.665L202.796 22.8569Z"></path>
<path fill="white" d="M217.2 27.1617C217.486 27.4838 217.533 27.9524 217.318 28.3252L216.539 29.6749C216.323 30.0476 215.894 30.2409 215.472 30.1546L213.08 29.6651L215.58 25.335L217.2 27.1617Z"></path>
<path fill="white" d="M215.51 19.9228C215.933 19.8334 216.366 20.0265 216.582 20.4012L217.326 21.6887C217.542 22.0635 217.493 22.5349 217.204 22.8569L215.58 24.6651L213.132 20.4249L215.51 19.9228Z"></path>
<path fill="white" d="M204.528 30.1546C204.106 30.2409 203.677 30.0477 203.461 29.6749L202.682 28.3252C202.467 27.9525 202.514 27.4838 202.8 27.1618L204.42 25.335L206.92 29.6651L204.528 30.1546Z"></path>
<path fill="white" d="M212.25 21.103C212.664 20.3855 213.6 20.1289 214.192 20.7077C214.769 21.2714 215.231 21.9493 215.543 22.704C216.049 23.9243 216.137 25.2772 215.796 26.553C215.454 27.8288 214.7 28.9562 213.653 29.7602C212.605 30.5643 211.321 31.0001 210 31.0001C208.679 31.0001 207.395 30.5643 206.347 29.7602C205.3 28.9562 204.546 27.8288 204.204 26.553C203.863 25.2772 203.951 23.9243 204.457 22.704C204.769 21.9493 205.231 21.2714 205.808 20.7077C206.4 20.1289 207.336 20.3855 207.75 21.103C208.164 21.8204 207.869 22.7318 207.438 23.4392C207.358 23.5706 207.288 23.7085 207.228 23.8521C206.976 24.4622 206.931 25.1387 207.102 25.7766C207.273 26.4145 207.65 26.9781 208.174 27.3802C208.698 27.7822 209.34 28.0001 210 28.0001C210.66 28.0001 211.302 27.7822 211.826 27.3802C212.35 26.9781 212.727 26.4145 212.898 25.7766C213.069 25.1387 213.024 24.4622 212.772 23.852C212.712 23.7085 212.642 23.5706 212.562 23.4392C212.131 22.7318 211.836 21.8204 212.25 21.103Z"></path>
<path fill="white" d="M211 25C211 24.4477 210.552 24 210 24C209.448 24 209 24.4477 209 25C209 25.5523 209.448 26 210 26C210.552 26 211 25.5523 211 25Z"></path>
<path fill="white" d="M211 18C211 17.4477 210.552 17 210 17C209.448 17 209 17.4477 209 18V22C209 22.5523 209.448 23 210 23C210.552 23 211 22.5523 211 22V18Z"></path>
<path fill="white" d="M61.9149 74.084C61.1389 74.084 60.4229 73.904 59.7669 73.544C59.1189 73.176 58.6029 72.668 58.2189 72.02C57.8429 71.364 57.6549 70.628 57.6549 69.812C57.6549 68.996 57.8429 68.264 58.2189 67.616C58.6029 66.968 59.1189 66.464 59.7669 66.104C60.4229 65.736 61.1389 65.552 61.9149 65.552C62.6989 65.552 63.4149 65.736 64.0629 66.104C64.7189 66.464 65.2349 66.968 65.6109 67.616C65.9869 68.264 66.1749 68.996 66.1749 69.812C66.1749 70.628 65.9869 71.364 65.6109 72.02C65.2349 72.668 64.7189 73.176 64.0629 73.544C63.4149 73.904 62.6989 74.084 61.9149 74.084ZM61.9149 72.896C62.4669 72.896 62.9589 72.772 63.3909 72.524C63.8229 72.268 64.1589 71.908 64.3989 71.444C64.6469 70.972 64.7709 70.428 64.7709 69.812C64.7709 69.196 64.6469 68.656 64.3989 68.192C64.1589 67.728 63.8229 67.372 63.3909 67.124C62.9589 66.876 62.4669 66.752 61.9149 66.752C61.3629 66.752 60.8709 66.876 60.4389 67.124C60.0069 67.372 59.6669 67.728 59.4189 68.192C59.1789 68.656 59.0589 69.196 59.0589 69.812C59.0589 70.428 59.1789 70.972 59.4189 71.444C59.6669 71.908 60.0069 72.268 60.4389 72.524C60.8709 72.772 61.3629 72.896 61.9149 72.896ZM70.3891 74.108C69.7651 74.108 69.2011 73.968 68.6971 73.688C68.1931 73.4 67.7971 73 67.5091 72.488C67.2211 71.968 67.0771 71.368 67.0771 70.688C67.0771 70.016 67.2251 69.42 67.5211 68.9C67.8171 68.38 68.2211 67.98 68.7331 67.7C69.2451 67.42 69.8171 67.28 70.4491 67.28C71.0811 67.28 71.6531 67.42 72.1651 67.7C72.6771 67.98 73.0811 68.38 73.3771 68.9C73.6731 69.42 73.8211 70.016 73.8211 70.688C73.8211 71.36 73.6691 71.956 73.3651 72.476C73.0611 72.996 72.6451 73.4 72.1171 73.688C71.5971 73.968 71.0211 74.108 70.3891 74.108ZM70.3891 72.92C70.7411 72.92 71.0691 72.836 71.3731 72.668C71.6851 72.5 71.9371 72.248 72.1291 71.912C72.3211 71.576 72.4171 71.168 72.4171 70.688C72.4171 70.208 72.3251 69.804 72.1411 69.476C71.9571 69.14 71.7131 68.888 71.4091 68.72C71.1051 68.552 70.7771 68.468 70.4251 68.468C70.0731 68.468 69.7451 68.552 69.4411 68.72C69.1451 68.888 68.9091 69.14 68.7331 69.476C68.5571 69.804 68.4691 70.208 68.4691 70.688C68.4691 71.4 68.6491 71.952 69.0091 72.344C69.3771 72.728 69.8371 72.92 70.3891 72.92ZM76.5414 68.36C76.7734 68.056 77.0894 67.8 77.4894 67.592C77.8894 67.384 78.3414 67.28 78.8454 67.28C79.4214 67.28 79.9454 67.424 80.4174 67.712C80.8974 67.992 81.2734 68.388 81.5454 68.9C81.8174 69.412 81.9534 70 81.9534 70.664C81.9534 71.328 81.8174 71.924 81.5454 72.452C81.2734 72.972 80.8974 73.38 80.4174 73.676C79.9454 73.964 79.4214 74.108 78.8454 74.108C78.3414 74.108 77.8934 74.008 77.5014 73.808C77.1094 73.6 76.7894 73.344 76.5414 73.04V77.144H75.1734V67.388H76.5414V68.36ZM80.5614 70.664C80.5614 70.208 80.4654 69.816 80.2734 69.488C80.0894 69.152 79.8414 68.9 79.5294 68.732C79.2254 68.556 78.8974 68.468 78.5454 68.468C78.2014 68.468 77.8734 68.556 77.5614 68.732C77.2574 68.908 77.0094 69.164 76.8174 69.5C76.6334 69.836 76.5414 70.232 76.5414 70.688C76.5414 71.144 76.6334 71.544 76.8174 71.888C77.0094 72.224 77.2574 72.48 77.5614 72.656C77.8734 72.832 78.2014 72.92 78.5454 72.92C78.8974 72.92 79.2254 72.832 79.5294 72.656C79.8414 72.472 80.0894 72.208 80.2734 71.864C80.4654 71.52 80.5614 71.12 80.5614 70.664ZM85.7063 74.108C85.1863 74.108 84.7183 74.016 84.3023 73.832C83.8943 73.64 83.5703 73.384 83.3303 73.064C83.0903 72.736 82.9623 72.372 82.9463 71.972H84.3623C84.3863 72.252 84.5183 72.488 84.7583 72.68C85.0063 72.864 85.3143 72.956 85.6823 72.956C86.0663 72.956 86.3623 72.884 86.5703 72.74C86.7863 72.588 86.8943 72.396 86.8943 72.164C86.8943 71.916 86.7743 71.732 86.5343 71.612C86.3023 71.492 85.9303 71.36 85.4183 71.216C84.9223 71.08 84.5183 70.948 84.2063 70.82C83.8943 70.692 83.6223 70.496 83.3903 70.232C83.1663 69.968 83.0543 69.62 83.0543 69.188C83.0543 68.836 83.1583 68.516 83.3663 68.228C83.5743 67.932 83.8703 67.7 84.2543 67.532C84.6463 67.364 85.0943 67.28 85.5983 67.28C86.3503 67.28 86.9543 67.472 87.4103 67.856C87.8743 68.232 88.1223 68.748 88.1543 69.404H86.7863C86.7623 69.108 86.6423 68.872 86.4263 68.696C86.2103 68.52 85.9183 68.432 85.5503 68.432C85.1903 68.432 84.9143 68.5 84.7223 68.636C84.5303 68.772 84.4343 68.952 84.4343 69.176C84.4343 69.352 84.4983 69.5 84.6263 69.62C84.7543 69.74 84.9103 69.836 85.0943 69.908C85.2783 69.972 85.5503 70.056 85.9103 70.16C86.3903 70.288 86.7823 70.42 87.0863 70.556C87.3983 70.684 87.6663 70.876 87.8903 71.132C88.1143 71.388 88.2303 71.728 88.2383 72.152C88.2383 72.528 88.1343 72.864 87.9263 73.16C87.7183 73.456 87.4223 73.688 87.0383 73.856C86.6623 74.024 86.2183 74.108 85.7063 74.108ZM91.4324 65.66L91.2764 71.48H90.1364L89.9804 65.66H91.4324ZM90.7484 74.084C90.5004 74.084 90.2924 74 90.1244 73.832C89.9564 73.664 89.8724 73.456 89.8724 73.208C89.8724 72.96 89.9564 72.752 90.1244 72.584C90.2924 72.416 90.5004 72.332 90.7484 72.332C90.9884 72.332 91.1924 72.416 91.3604 72.584C91.5284 72.752 91.6124 72.96 91.6124 73.208C91.6124 73.456 91.5284 73.664 91.3604 73.832C91.1924 74 90.9884 74.084 90.7484 74.084ZM99.4371 74.084C98.8771 74.084 98.3731 73.988 97.9251 73.796C97.4771 73.596 97.1251 73.316 96.8691 72.956C96.6131 72.596 96.4851 72.176 96.4851 71.696H97.9491C97.9811 72.056 98.1211 72.352 98.3691 72.584C98.6251 72.816 98.9811 72.932 99.4371 72.932C99.9091 72.932 100.277 72.82 100.541 72.596C100.805 72.364 100.937 72.068 100.937 71.708C100.937 71.428 100.853 71.2 100.685 71.024C100.525 70.848 100.321 70.712 100.073 70.616C99.8331 70.52 99.4971 70.416 99.0651 70.304C98.5211 70.16 98.0771 70.016 97.7331 69.872C97.3971 69.72 97.1091 69.488 96.8691 69.176C96.6291 68.864 96.5091 68.448 96.5091 67.928C96.5091 67.448 96.6291 67.028 96.8691 66.668C97.1091 66.308 97.4451 66.032 97.8771 65.84C98.3091 65.648 98.8091 65.552 99.3771 65.552C100.185 65.552 100.845 65.756 101.357 66.164C101.877 66.564 102.165 67.116 102.221 67.82H100.709C100.685 67.516 100.541 67.256 100.277 67.04C100.013 66.824 99.6651 66.716 99.2331 66.716C98.8411 66.716 98.5211 66.816 98.2731 67.016C98.0251 67.216 97.9011 67.504 97.9011 67.88C97.9011 68.136 97.9771 68.348 98.1291 68.516C98.2891 68.676 98.4891 68.804 98.7291 68.9C98.9691 68.996 99.2971 69.1 99.7131 69.212C100.265 69.364 100.713 69.516 101.057 69.668C101.409 69.82 101.705 70.056 101.945 70.376C102.193 70.688 102.317 71.108 102.317 71.636C102.317 72.06 102.201 72.46 101.969 72.836C101.745 73.212 101.413 73.516 100.973 73.748C100.541 73.972 100.029 74.084 99.4371 74.084ZM106.799 74.108C106.175 74.108 105.611 73.968 105.107 73.688C104.603 73.4 104.207 73 103.919 72.488C103.631 71.968 103.487 71.368 103.487 70.688C103.487 70.016 103.635 69.42 103.931 68.9C104.227 68.38 104.631 67.98 105.143 67.7C105.655 67.42 106.227 67.28 106.859 67.28C107.491 67.28 108.063 67.42 108.575 67.7C109.087 67.98 109.491 68.38 109.787 68.9C110.083 69.42 110.231 70.016 110.231 70.688C110.231 71.36 110.079 71.956 109.775 72.476C109.471 72.996 109.055 73.4 108.527 73.688C108.007 73.968 107.431 74.108 106.799 74.108ZM106.799 72.92C107.151 72.92 107.479 72.836 107.783 72.668C108.095 72.5 108.347 72.248 108.539 71.912C108.731 71.576 108.827 71.168 108.827 70.688C108.827 70.208 108.735 69.804 108.551 69.476C108.367 69.14 108.123 68.888 107.819 68.72C107.515 68.552 107.187 68.468 106.835 68.468C106.483 68.468 106.155 68.552 105.851 68.72C105.555 68.888 105.319 69.14 105.143 69.476C104.967 69.804 104.879 70.208 104.879 70.688C104.879 71.4 105.059 71.952 105.419 72.344C105.787 72.728 106.247 72.92 106.799 72.92ZM119.588 67.28C120.108 67.28 120.572 67.388 120.98 67.604C121.396 67.82 121.72 68.14 121.952 68.564C122.192 68.988 122.312 69.5 122.312 70.1V74H120.956V70.304C120.956 69.712 120.808 69.26 120.512 68.948C120.216 68.628 119.812 68.468 119.3 68.468C118.788 68.468 118.38 68.628 118.076 68.948C117.78 69.26 117.632 69.712 117.632 70.304V74H116.276V70.304C116.276 69.712 116.128 69.26 115.832 68.948C115.536 68.628 115.132 68.468 114.62 68.468C114.108 68.468 113.7 68.628 113.396 68.948C113.1 69.26 112.952 69.712 112.952 70.304V74H111.584V67.388H112.952V68.144C113.176 67.872 113.46 67.66 113.804 67.508C114.148 67.356 114.516 67.28 114.908 67.28C115.436 67.28 115.908 67.392 116.324 67.616C116.74 67.84 117.06 68.164 117.284 68.588C117.484 68.188 117.796 67.872 118.22 67.64C118.644 67.4 119.1 67.28 119.588 67.28ZM130.112 70.532C130.112 70.78 130.096 71.004 130.064 71.204H125.012C125.052 71.732 125.248 72.156 125.6 72.476C125.952 72.796 126.384 72.956 126.896 72.956C127.632 72.956 128.152 72.648 128.456 72.032H129.932C129.732 72.64 129.368 73.14 128.84 73.532C128.32 73.916 127.672 74.108 126.896 74.108C126.264 74.108 125.696 73.968 125.192 73.688C124.696 73.4 124.304 73 124.016 72.488C123.736 71.968 123.596 71.368 123.596 70.688C123.596 70.008 123.732 69.412 124.004 68.9C124.284 68.38 124.672 67.98 125.168 67.7C125.672 67.42 126.248 67.28 126.896 67.28C127.52 67.28 128.076 67.416 128.564 67.688C129.052 67.96 129.432 68.344 129.704 68.84C129.976 69.328 130.112 69.892 130.112 70.532ZM128.684 70.1C128.676 69.596 128.496 69.192 128.144 68.888C127.792 68.584 127.356 68.432 126.836 68.432C126.364 68.432 125.96 68.584 125.624 68.888C125.288 69.184 125.088 69.588 125.024 70.1H128.684ZM133.055 68.504V72.164C133.055 72.412 133.111 72.592 133.223 72.704C133.343 72.808 133.543 72.86 133.823 72.86H134.663V74H133.583C132.967 74 132.495 73.856 132.167 73.568C131.839 73.28 131.675 72.812 131.675 72.164V68.504H130.895V67.388H131.675V65.744H133.055V67.388H134.663V68.504H133.055ZM139.343 67.28C139.847 67.28 140.295 67.388 140.687 67.604C141.087 67.82 141.399 68.14 141.623 68.564C141.855 68.988 141.971 69.5 141.971 70.1V74H140.615V70.304C140.615 69.712 140.467 69.26 140.171 68.948C139.875 68.628 139.471 68.468 138.959 68.468C138.447 68.468 138.039 68.628 137.735 68.948C137.439 69.26 137.291 69.712 137.291 70.304V74H135.923V65.12H137.291V68.156C137.523 67.876 137.815 67.66 138.167 67.508C138.527 67.356 138.919 67.28 139.343 67.28ZM144.412 66.512C144.164 66.512 143.956 66.428 143.788 66.26C143.62 66.092 143.536 65.884 143.536 65.636C143.536 65.388 143.62 65.18 143.788 65.012C143.956 64.844 144.164 64.76 144.412 64.76C144.652 64.76 144.856 64.844 145.024 65.012C145.192 65.18 145.276 65.388 145.276 65.636C145.276 65.884 145.192 66.092 145.024 66.26C144.856 66.428 144.652 66.512 144.412 66.512ZM145.084 67.388V74H143.716V67.388H145.084ZM150.216 67.28C150.736 67.28 151.2 67.388 151.608 67.604C152.024 67.82 152.348 68.14 152.58 68.564C152.812 68.988 152.928 69.5 152.928 70.1V74H151.572V70.304C151.572 69.712 151.424 69.26 151.128 68.948C150.832 68.628 150.428 68.468 149.916 68.468C149.404 68.468 148.996 68.628 148.692 68.948C148.396 69.26 148.248 69.712 148.248 70.304V74H146.88V67.388H148.248V68.144C148.472 67.872 148.756 67.66 149.1 67.508C149.452 67.356 149.824 67.28 150.216 67.28ZM157.337 67.28C157.849 67.28 158.301 67.384 158.693 67.592C159.093 67.792 159.405 68.044 159.629 68.348V67.388H161.009V74.108C161.009 74.716 160.881 75.256 160.625 75.728C160.369 76.208 159.997 76.584 159.509 76.856C159.029 77.128 158.453 77.264 157.781 77.264C156.885 77.264 156.141 77.052 155.549 76.628C154.957 76.212 154.621 75.644 154.541 74.924H155.897C156.001 75.268 156.221 75.544 156.557 75.752C156.901 75.968 157.309 76.076 157.781 76.076C158.333 76.076 158.777 75.908 159.113 75.572C159.457 75.236 159.629 74.748 159.629 74.108V73.004C159.397 73.316 159.081 73.58 158.681 73.796C158.289 74.004 157.841 74.108 157.337 74.108C156.761 74.108 156.233 73.964 155.753 73.676C155.281 73.38 154.905 72.972 154.625 72.452C154.353 71.924 154.217 71.328 154.217 70.664C154.217 70 154.353 69.412 154.625 68.9C154.905 68.388 155.281 67.992 155.753 67.712C156.233 67.424 156.761 67.28 157.337 67.28ZM159.629 70.688C159.629 70.232 159.533 69.836 159.341 69.5C159.157 69.164 158.913 68.908 158.609 68.732C158.305 68.556 157.977 68.468 157.625 68.468C157.273 68.468 156.945 68.556 156.641 68.732C156.337 68.9 156.089 69.152 155.897 69.488C155.713 69.816 155.621 70.208 155.621 70.664C155.621 71.12 155.713 71.52 155.897 71.864C156.089 72.208 156.337 72.472 156.641 72.656C156.953 72.832 157.281 72.92 157.625 72.92C157.977 72.92 158.305 72.832 158.609 72.656C158.913 72.48 159.157 72.224 159.341 71.888C159.533 71.544 159.629 71.144 159.629 70.688ZM174.803 67.388L172.751 74H171.311L169.979 69.116L168.647 74H167.207L165.143 67.388H166.535L167.915 72.704L169.319 67.388H170.747L172.091 72.68L173.459 67.388H174.803ZM181.886 70.532C181.886 70.78 181.87 71.004 181.838 71.204H176.786C176.826 71.732 177.022 72.156 177.374 72.476C177.726 72.796 178.158 72.956 178.67 72.956C179.406 72.956 179.926 72.648 180.23 72.032H181.706C181.506 72.64 181.142 73.14 180.614 73.532C180.094 73.916 179.446 74.108 178.67 74.108C178.038 74.108 177.47 73.968 176.966 73.688C176.47 73.4 176.078 73 175.79 72.488C175.51 71.968 175.37 71.368 175.37 70.688C175.37 70.008 175.506 69.412 175.778 68.9C176.058 68.38 176.446 67.98 176.942 67.7C177.446 67.42 178.022 67.28 178.67 67.28C179.294 67.28 179.85 67.416 180.338 67.688C180.826 67.96 181.206 68.344 181.478 68.84C181.75 69.328 181.886 69.892 181.886 70.532ZM180.458 70.1C180.45 69.596 180.27 69.192 179.918 68.888C179.566 68.584 179.13 68.432 178.61 68.432C178.138 68.432 177.734 68.584 177.398 68.888C177.062 69.184 176.862 69.588 176.798 70.1H180.458ZM186.568 67.28C187.088 67.28 187.552 67.388 187.96 67.604C188.376 67.82 188.7 68.14 188.932 68.564C189.164 68.988 189.28 69.5 189.28 70.1V74H187.924V70.304C187.924 69.712 187.776 69.26 187.48 68.948C187.184 68.628 186.78 68.468 186.268 68.468C185.756 68.468 185.348 68.628 185.044 68.948C184.748 69.26 184.6 69.712 184.6 70.304V74H183.232V67.388H184.6V68.144C184.824 67.872 185.108 67.66 185.452 67.508C185.804 67.356 186.176 67.28 186.568 67.28ZM192.621 68.504V72.164C192.621 72.412 192.677 72.592 192.789 72.704C192.909 72.808 193.109 72.86 193.389 72.86H194.229V74H193.149C192.533 74 192.061 73.856 191.733 73.568C191.405 73.28 191.241 72.812 191.241 72.164V68.504H190.461V67.388H191.241V65.744H192.621V67.388H194.229V68.504H192.621ZM207.487 67.388L205.435 74H203.995L202.663 69.116L201.331 74H199.891L197.827 67.388H199.219L200.599 72.704L202.003 67.388H203.431L204.775 72.68L206.143 67.388H207.487ZM209.877 68.348C210.077 68.012 210.341 67.752 210.669 67.568C211.005 67.376 211.401 67.28 211.857 67.28V68.696H211.509C210.973 68.696 210.565 68.832 210.285 69.104C210.013 69.376 209.877 69.848 209.877 70.52V74H208.509V67.388H209.877V68.348ZM215.983 74.108C215.359 74.108 214.795 73.968 214.291 73.688C213.787 73.4 213.391 73 213.103 72.488C212.815 71.968 212.671 71.368 212.671 70.688C212.671 70.016 212.819 69.42 213.115 68.9C213.411 68.38 213.815 67.98 214.327 67.7C214.839 67.42 215.411 67.28 216.043 67.28C216.675 67.28 217.247 67.42 217.759 67.7C218.271 67.98 218.675 68.38 218.971 68.9C219.267 69.42 219.415 70.016 219.415 70.688C219.415 71.36 219.263 71.956 218.959 72.476C218.655 72.996 218.239 73.4 217.711 73.688C217.191 73.968 216.615 74.108 215.983 74.108ZM215.983 72.92C216.335 72.92 216.663 72.836 216.967 72.668C217.279 72.5 217.531 72.248 217.723 71.912C217.915 71.576 218.011 71.168 218.011 70.688C218.011 70.208 217.919 69.804 217.735 69.476C217.551 69.14 217.307 68.888 217.003 68.72C216.699 68.552 216.371 68.468 216.019 68.468C215.667 68.468 215.339 68.552 215.035 68.72C214.739 68.888 214.503 69.14 214.327 69.476C214.151 69.804 214.063 70.208 214.063 70.688C214.063 71.4 214.243 71.952 214.603 72.344C214.971 72.728 215.431 72.92 215.983 72.92ZM224.103 67.28C224.623 67.28 225.087 67.388 225.495 67.604C225.911 67.82 226.235 68.14 226.467 68.564C226.699 68.988 226.815 69.5 226.815 70.1V74H225.459V70.304C225.459 69.712 225.311 69.26 225.015 68.948C224.719 68.628 224.315 68.468 223.803 68.468C223.291 68.468 222.883 68.628 222.579 68.948C222.283 69.26 222.135 69.712 222.135 70.304V74H220.767V67.388H222.135V68.144C222.359 67.872 222.643 67.66 222.987 67.508C223.339 67.356 223.711 67.28 224.103 67.28ZM231.224 67.28C231.736 67.28 232.188 67.384 232.58 67.592C232.98 67.792 233.292 68.044 233.516 68.348V67.388H234.896V74.108C234.896 74.716 234.768 75.256 234.512 75.728C234.256 76.208 233.884 76.584 233.396 76.856C232.916 77.128 232.34 77.264 231.668 77.264C230.772 77.264 230.028 77.052 229.436 76.628C228.844 76.212 228.508 75.644 228.428 74.924H229.784C229.888 75.268 230.108 75.544 230.444 75.752C230.788 75.968 231.196 76.076 231.668 76.076C232.22 76.076 232.664 75.908 233 75.572C233.344 75.236 233.516 74.748 233.516 74.108V73.004C233.284 73.316 232.968 73.58 232.568 73.796C232.176 74.004 231.728 74.108 231.224 74.108C230.648 74.108 230.12 73.964 229.64 73.676C229.168 73.38 228.792 72.972 228.512 72.452C228.24 71.924 228.104 71.328 228.104 70.664C228.104 70 228.24 69.412 228.512 68.9C228.792 68.388 229.168 67.992 229.64 67.712C230.12 67.424 230.648 67.28 231.224 67.28ZM233.516 70.688C233.516 70.232 233.42 69.836 233.228 69.5C233.044 69.164 232.8 68.908 232.496 68.732C232.192 68.556 231.864 68.468 231.512 68.468C231.16 68.468 230.832 68.556 230.528 68.732C230.224 68.9 229.976 69.152 229.784 69.488C229.6 69.816 229.508 70.208 229.508 70.664C229.508 71.12 229.6 71.52 229.784 71.864C229.976 72.208 230.224 72.472 230.528 72.656C230.84 72.832 231.168 72.92 231.512 72.92C231.864 72.92 232.192 72.832 232.496 72.656C232.8 72.48 233.044 72.224 233.228 71.888C233.42 71.544 233.516 71.144 233.516 70.688ZM237.245 74.084C236.997 74.084 236.789 74 236.621 73.832C236.453 73.664 236.369 73.456 236.369 73.208C236.369 72.96 236.453 72.752 236.621 72.584C236.789 72.416 236.997 72.332 237.245 72.332C237.485 72.332 237.689 72.416 237.857 72.584C238.025 72.752 238.109 72.96 238.109 73.208C238.109 73.456 238.025 73.664 237.857 73.832C237.689 74 237.485 74.084 237.245 74.084ZM253.565 65.66L251.093 74H249.545L247.793 67.688L245.933 74L244.397 74.012L242.033 65.66H243.485L245.213 72.452L247.085 65.66H248.621L250.361 72.416L252.101 65.66H253.565ZM260.753 70.532C260.753 70.78 260.737 71.004 260.705 71.204H255.653C255.693 71.732 255.889 72.156 256.241 72.476C256.593 72.796 257.025 72.956 257.537 72.956C258.273 72.956 258.793 72.648 259.097 72.032H260.573C260.373 72.64 260.009 73.14 259.481 73.532C258.961 73.916 258.313 74.108 257.537 74.108C256.905 74.108 256.337 73.968 255.833 73.688C255.337 73.4 254.945 73 254.657 72.488C254.377 71.968 254.237 71.368 254.237 70.688C254.237 70.008 254.373 69.412 254.645 68.9C254.925 68.38 255.313 67.98 255.809 67.7C256.313 67.42 256.889 67.28 257.537 67.28C258.161 67.28 258.717 67.416 259.205 67.688C259.693 67.96 260.073 68.344 260.345 68.84C260.617 69.328 260.753 69.892 260.753 70.532ZM259.325 70.1C259.317 69.596 259.137 69.192 258.785 68.888C258.433 68.584 257.997 68.432 257.477 68.432C257.005 68.432 256.601 68.584 256.265 68.888C255.929 69.184 255.729 69.588 255.665 70.1H259.325ZM268.552 67.28C269.072 67.28 269.536 67.388 269.944 67.604C270.36 67.82 270.684 68.14 270.916 68.564C271.148 68.988 271.264 69.5 271.264 70.1V74H269.908V70.304C269.908 69.712 269.76 69.26 269.464 68.948C269.168 68.628 268.764 68.468 268.252 68.468C267.74 68.468 267.332 68.628 267.028 68.948C266.732 69.26 266.584 69.712 266.584 70.304V74H265.216V67.388H266.584V68.144C266.808 67.872 267.092 67.66 267.436 67.508C267.788 67.356 268.16 67.28 268.552 67.28ZM279.069 70.532C279.069 70.78 279.053 71.004 279.021 71.204H273.969C274.009 71.732 274.205 72.156 274.557 72.476C274.909 72.796 275.341 72.956 275.853 72.956C276.589 72.956 277.109 72.648 277.413 72.032H278.889C278.689 72.64 278.325 73.14 277.797 73.532C277.277 73.916 276.629 74.108 275.853 74.108C275.221 74.108 274.653 73.968 274.149 73.688C273.653 73.4 273.261 73 272.973 72.488C272.693 71.968 272.553 71.368 272.553 70.688C272.553 70.008 272.689 69.412 272.961 68.9C273.241 68.38 273.629 67.98 274.125 67.7C274.629 67.42 275.205 67.28 275.853 67.28C276.477 67.28 277.033 67.416 277.521 67.688C278.009 67.96 278.389 68.344 278.661 68.84C278.933 69.328 279.069 69.892 279.069 70.532ZM277.641 70.1C277.633 69.596 277.453 69.192 277.101 68.888C276.749 68.584 276.313 68.432 275.793 68.432C275.321 68.432 274.917 68.584 274.581 68.888C274.245 69.184 274.045 69.588 273.981 70.1H277.641ZM286.476 70.532C286.476 70.78 286.46 71.004 286.428 71.204H281.376C281.416 71.732 281.612 72.156 281.964 72.476C282.316 72.796 282.748 72.956 283.26 72.956C283.996 72.956 284.516 72.648 284.82 72.032H286.296C286.096 72.64 285.732 73.14 285.204 73.532C284.684 73.916 284.036 74.108 283.26 74.108C282.628 74.108 282.06 73.968 281.556 73.688C281.06 73.4 280.668 73 280.38 72.488C280.1 71.968 279.96 71.368 279.96 70.688C279.96 70.008 280.096 69.412 280.368 68.9C280.648 68.38 281.036 67.98 281.532 67.7C282.036 67.42 282.612 67.28 283.26 67.28C283.884 67.28 284.44 67.416 284.928 67.688C285.416 67.96 285.796 68.344 286.068 68.84C286.34 69.328 286.476 69.892 286.476 70.532ZM285.048 70.1C285.04 69.596 284.86 69.192 284.508 68.888C284.156 68.584 283.72 68.432 283.2 68.432C282.728 68.432 282.324 68.584 281.988 68.888C281.652 69.184 281.452 69.588 281.388 70.1H285.048ZM287.366 70.664C287.366 70 287.502 69.412 287.774 68.9C288.054 68.388 288.43 67.992 288.902 67.712C289.382 67.424 289.914 67.28 290.498 67.28C290.93 67.28 291.354 67.376 291.77 67.568C292.194 67.752 292.53 68 292.778 68.312V65.12H294.158V74H292.778V73.004C292.554 73.324 292.242 73.588 291.842 73.796C291.45 74.004 290.998 74.108 290.486 74.108C289.91 74.108 289.382 73.964 288.902 73.676C288.43 73.38 288.054 72.972 287.774 72.452C287.502 71.924 287.366 71.328 287.366 70.664ZM292.778 70.688C292.778 70.232 292.682 69.836 292.49 69.5C292.306 69.164 292.062 68.908 291.758 68.732C291.454 68.556 291.126 68.468 290.774 68.468C290.422 68.468 290.094 68.556 289.79 68.732C289.486 68.9 289.238 69.152 289.046 69.488C288.862 69.816 288.77 70.208 288.77 70.664C288.77 71.12 288.862 71.52 289.046 71.864C289.238 72.208 289.486 72.472 289.79 72.656C290.102 72.832 290.43 72.92 290.774 72.92C291.126 72.92 291.454 72.832 291.758 72.656C292.062 72.48 292.306 72.224 292.49 71.888C292.682 71.544 292.778 71.144 292.778 70.688ZM300.668 68.504V72.164C300.668 72.412 300.724 72.592 300.836 72.704C300.956 72.808 301.156 72.86 301.436 72.86H302.276V74H301.196C300.58 74 300.108 73.856 299.78 73.568C299.452 73.28 299.288 72.812 299.288 72.164V68.504H298.508V67.388H299.288V65.744H300.668V67.388H302.276V68.504H300.668ZM306.405 74.108C305.781 74.108 305.217 73.968 304.713 73.688C304.209 73.4 303.813 73 303.525 72.488C303.237 71.968 303.093 71.368 303.093 70.688C303.093 70.016 303.241 69.42 303.537 68.9C303.833 68.38 304.237 67.98 304.749 67.7C305.261 67.42 305.833 67.28 306.465 67.28C307.097 67.28 307.669 67.42 308.181 67.7C308.693 67.98 309.097 68.38 309.393 68.9C309.689 69.42 309.837 70.016 309.837 70.688C309.837 71.36 309.685 71.956 309.381 72.476C309.077 72.996 308.661 73.4 308.133 73.688C307.613 73.968 307.037 74.108 306.405 74.108ZM306.405 72.92C306.757 72.92 307.085 72.836 307.389 72.668C307.701 72.5 307.953 72.248 308.145 71.912C308.337 71.576 308.433 71.168 308.433 70.688C308.433 70.208 308.341 69.804 308.157 69.476C307.973 69.14 307.729 68.888 307.425 68.72C307.121 68.552 306.793 68.468 306.441 68.468C306.089 68.468 305.761 68.552 305.457 68.72C305.161 68.888 304.925 69.14 304.749 69.476C304.573 69.804 304.485 70.208 304.485 70.688C304.485 71.4 304.665 71.952 305.025 72.344C305.393 72.728 305.853 72.92 306.405 72.92ZM315.674 68.348C315.874 68.012 316.138 67.752 316.466 67.568C316.802 67.376 317.198 67.28 317.654 67.28V68.696H317.306C316.77 68.696 316.362 68.832 316.082 69.104C315.81 69.376 315.674 69.848 315.674 70.52V74H314.306V67.388H315.674V68.348ZM324.972 70.532C324.972 70.78 324.956 71.004 324.924 71.204H319.872C319.912 71.732 320.108 72.156 320.46 72.476C320.812 72.796 321.244 72.956 321.756 72.956C322.492 72.956 323.012 72.648 323.316 72.032H324.792C324.592 72.64 324.228 73.14 323.7 73.532C323.18 73.916 322.532 74.108 321.756 74.108C321.124 74.108 320.556 73.968 320.052 73.688C319.556 73.4 319.164 73 318.876 72.488C318.596 71.968 318.456 71.368 318.456 70.688C318.456 70.008 318.592 69.412 318.864 68.9C319.144 68.38 319.532 67.98 320.028 67.7C320.532 67.42 321.108 67.28 321.756 67.28C322.38 67.28 322.936 67.416 323.424 67.688C323.912 67.96 324.292 68.344 324.564 68.84C324.836 69.328 324.972 69.892 324.972 70.532ZM323.544 70.1C323.536 69.596 323.356 69.192 323.004 68.888C322.652 68.584 322.216 68.432 321.696 68.432C321.224 68.432 320.82 68.584 320.484 68.888C320.148 69.184 319.948 69.588 319.884 70.1H323.544ZM328.718 74.108C328.198 74.108 327.73 74.016 327.314 73.832C326.906 73.64 326.582 73.384 326.342 73.064C326.102 72.736 325.974 72.372 325.958 71.972H327.374C327.398 72.252 327.53 72.488 327.77 72.68C328.018 72.864 328.326 72.956 328.694 72.956C329.078 72.956 329.374 72.884 329.582 72.74C329.798 72.588 329.906 72.396 329.906 72.164C329.906 71.916 329.786 71.732 329.546 71.612C329.314 71.492 328.942 71.36 328.43 71.216C327.934 71.08 327.53 70.948 327.218 70.82C326.906 70.692 326.634 70.496 326.402 70.232C326.178 69.968 326.066 69.62 326.066 69.188C326.066 68.836 326.17 68.516 326.378 68.228C326.586 67.932 326.882 67.7 327.266 67.532C327.658 67.364 328.106 67.28 328.61 67.28C329.362 67.28 329.966 67.472 330.422 67.856C330.886 68.232 331.134 68.748 331.166 69.404H329.798C329.774 69.108 329.654 68.872 329.438 68.696C329.222 68.52 328.93 68.432 328.562 68.432C328.202 68.432 327.926 68.5 327.734 68.636C327.542 68.772 327.446 68.952 327.446 69.176C327.446 69.352 327.51 69.5 327.638 69.62C327.766 69.74 327.922 69.836 328.106 69.908C328.29 69.972 328.562 70.056 328.922 70.16C329.402 70.288 329.794 70.42 330.098 70.556C330.41 70.684 330.678 70.876 330.902 71.132C331.126 71.388 331.242 71.728 331.25 72.152C331.25 72.528 331.146 72.864 330.938 73.16C330.73 73.456 330.434 73.688 330.05 73.856C329.674 74.024 329.23 74.108 328.718 74.108ZM334.324 68.504V72.164C334.324 72.412 334.38 72.592 334.492 72.704C334.612 72.808 334.812 72.86 335.092 72.86H335.932V74H334.852C334.236 74 333.764 73.856 333.436 73.568C333.108 73.28 332.944 72.812 332.944 72.164V68.504H332.164V67.388H332.944V65.744H334.324V67.388H335.932V68.504H334.324ZM336.737 70.664C336.737 70 336.873 69.412 337.145 68.9C337.425 68.388 337.801 67.992 338.273 67.712C338.753 67.424 339.281 67.28 339.857 67.28C340.377 67.28 340.829 67.384 341.213 67.592C341.605 67.792 341.917 68.044 342.149 68.348V67.388H343.529V74H342.149V73.016C341.917 73.328 341.601 73.588 341.201 73.796C340.801 74.004 340.345 74.108 339.833 74.108C339.265 74.108 338.745 73.964 338.273 73.676C337.801 73.38 337.425 72.972 337.145 72.452C336.873 71.924 336.737 71.328 336.737 70.664ZM342.149 70.688C342.149 70.232 342.053 69.836 341.861 69.5C341.677 69.164 341.433 68.908 341.129 68.732C340.825 68.556 340.497 68.468 340.145 68.468C339.793 68.468 339.465 68.556 339.161 68.732C338.857 68.9 338.609 69.152 338.417 69.488C338.233 69.816 338.141 70.208 338.141 70.664C338.141 71.12 338.233 71.52 338.417 71.864C338.609 72.208 338.857 72.472 339.161 72.656C339.473 72.832 339.801 72.92 340.145 72.92C340.497 72.92 340.825 72.832 341.129 72.656C341.433 72.48 341.677 72.224 341.861 71.888C342.053 71.544 342.149 71.144 342.149 70.688ZM346.694 68.348C346.894 68.012 347.158 67.752 347.486 67.568C347.822 67.376 348.218 67.28 348.674 67.28V68.696H348.326C347.79 68.696 347.382 68.832 347.102 69.104C346.83 69.376 346.694 69.848 346.694 70.52V74H345.326V67.388H346.694V68.348ZM351.527 68.504V72.164C351.527 72.412 351.583 72.592 351.695 72.704C351.815 72.808 352.015 72.86 352.295 72.86H353.135V74H352.055C351.439 74 350.967 73.856 350.639 73.568C350.311 73.28 350.147 72.812 350.147 72.164V68.504H349.367V67.388H350.147V65.744H351.527V67.388H353.135V68.504H351.527ZM360.261 74.084C359.701 74.084 359.197 73.988 358.749 73.796C358.301 73.596 357.949 73.316 357.693 72.956C357.437 72.596 357.309 72.176 357.309 71.696H358.773C358.805 72.056 358.945 72.352 359.193 72.584C359.449 72.816 359.805 72.932 360.261 72.932C360.733 72.932 361.101 72.82 361.365 72.596C361.629 72.364 361.761 72.068 361.761 71.708C361.761 71.428 361.677 71.2 361.509 71.024C361.349 70.848 361.145 70.712 360.897 70.616C360.657 70.52 360.321 70.416 359.889 70.304C359.345 70.16 358.901 70.016 358.557 69.872C358.221 69.72 357.933 69.488 357.693 69.176C357.453 68.864 357.333 68.448 357.333 67.928C357.333 67.448 357.453 67.028 357.693 66.668C357.933 66.308 358.269 66.032 358.701 65.84C359.133 65.648 359.633 65.552 360.201 65.552C361.009 65.552 361.669 65.756 362.181 66.164C362.701 66.564 362.989 67.116 363.045 67.82H361.533C361.509 67.516 361.365 67.256 361.101 67.04C360.837 66.824 360.489 66.716 360.057 66.716C359.665 66.716 359.345 66.816 359.097 67.016C358.849 67.216 358.725 67.504 358.725 67.88C358.725 68.136 358.801 68.348 358.953 68.516C359.113 68.676 359.313 68.804 359.553 68.9C359.793 68.996 360.121 69.1 360.537 69.212C361.089 69.364 361.537 69.516 361.881 69.668C362.233 69.82 362.529 70.056 362.769 70.376C363.017 70.688 363.141 71.108 363.141 71.636C363.141 72.06 363.025 72.46 362.793 72.836C362.569 73.212 362.237 73.516 361.797 73.748C361.365 73.972 360.853 74.084 360.261 74.084ZM364.299 70.688C364.299 70.008 364.435 69.412 364.707 68.9C364.987 68.38 365.371 67.98 365.859 67.7C366.347 67.42 366.907 67.28 367.539 67.28C368.339 67.28 368.999 67.472 369.519 67.856C370.047 68.232 370.403 68.772 370.587 69.476H369.111C368.991 69.148 368.799 68.892 368.535 68.708C368.271 68.524 367.939 68.432 367.539 68.432C366.979 68.432 366.531 68.632 366.195 69.032C365.867 69.424 365.703 69.976 365.703 70.688C365.703 71.4 365.867 71.956 366.195 72.356C366.531 72.756 366.979 72.956 367.539 72.956C368.331 72.956 368.855 72.608 369.111 71.912H370.587C370.395 72.584 370.035 73.12 369.507 73.52C368.979 73.912 368.323 74.108 367.539 74.108C366.907 74.108 366.347 73.968 365.859 73.688C365.371 73.4 364.987 73 364.707 72.488C364.435 71.968 364.299 71.368 364.299 70.688ZM373.319 68.348C373.519 68.012 373.783 67.752 374.111 67.568C374.447 67.376 374.843 67.28 375.299 67.28V68.696H374.951C374.415 68.696 374.007 68.832 373.727 69.104C373.455 69.376 373.319 69.848 373.319 70.52V74H371.951V67.388H373.319V68.348ZM376.1 70.664C376.1 70 376.236 69.412 376.508 68.9C376.788 68.388 377.164 67.992 377.636 67.712C378.116 67.424 378.644 67.28 379.22 67.28C379.74 67.28 380.192 67.384 380.576 67.592C380.968 67.792 381.28 68.044 381.512 68.348V67.388H382.892V74H381.512V73.016C381.28 73.328 380.964 73.588 380.564 73.796C380.164 74.004 379.708 74.108 379.196 74.108C378.628 74.108 378.108 73.964 377.636 73.676C377.164 73.38 376.788 72.972 376.508 72.452C376.236 71.924 376.1 71.328 376.1 70.664ZM381.512 70.688C381.512 70.232 381.416 69.836 381.224 69.5C381.04 69.164 380.796 68.908 380.492 68.732C380.188 68.556 379.86 68.468 379.508 68.468C379.156 68.468 378.828 68.556 378.524 68.732C378.22 68.9 377.972 69.152 377.78 69.488C377.596 69.816 377.504 70.208 377.504 70.664C377.504 71.12 377.596 71.52 377.78 71.864C377.972 72.208 378.22 72.472 378.524 72.656C378.836 72.832 379.164 72.92 379.508 72.92C379.86 72.92 380.188 72.832 380.492 72.656C380.796 72.48 381.04 72.224 381.224 71.888C381.416 71.544 381.512 71.144 381.512 70.688ZM386.285 68.504V72.164C386.285 72.412 386.341 72.592 386.453 72.704C386.573 72.808 386.773 72.86 387.053 72.86H387.893V74H386.813C386.197 74 385.725 73.856 385.397 73.568C385.069 73.28 384.905 72.812 384.905 72.164V68.504H384.125V67.388H384.905V65.744H386.285V67.388H387.893V68.504H386.285ZM388.698 70.688C388.698 70.008 388.834 69.412 389.106 68.9C389.386 68.38 389.77 67.98 390.258 67.7C390.746 67.42 391.306 67.28 391.938 67.28C392.738 67.28 393.398 67.472 393.918 67.856C394.446 68.232 394.802 68.772 394.986 69.476H393.51C393.39 69.148 393.198 68.892 392.934 68.708C392.67 68.524 392.338 68.432 391.938 68.432C391.378 68.432 390.93 68.632 390.594 69.032C390.266 69.424 390.102 69.976 390.102 70.688C390.102 71.4 390.266 71.956 390.594 72.356C390.93 72.756 391.378 72.956 391.938 72.956C392.73 72.956 393.254 72.608 393.51 71.912H394.986C394.794 72.584 394.434 73.12 393.906 73.52C393.378 73.912 392.722 74.108 391.938 74.108C391.306 74.108 390.746 73.968 390.258 73.688C389.77 73.4 389.386 73 389.106 72.488C388.834 71.968 388.698 71.368 388.698 70.688ZM399.769 67.28C400.273 67.28 400.721 67.388 401.113 67.604C401.513 67.82 401.825 68.14 402.049 68.564C402.281 68.988 402.397 69.5 402.397 70.1V74H401.041V70.304C401.041 69.712 400.893 69.26 400.597 68.948C400.301 68.628 399.897 68.468 399.385 68.468C398.873 68.468 398.465 68.628 398.161 68.948C397.865 69.26 397.717 69.712 397.717 70.304V74H396.349V65.12H397.717V68.156C397.949 67.876 398.241 67.66 398.593 67.508C398.953 67.356 399.345 67.28 399.769 67.28ZM407.946 74.084C407.17 74.084 406.454 73.904 405.798 73.544C405.15 73.176 404.634 72.668 404.25 72.02C403.874 71.364 403.686 70.628 403.686 69.812C403.686 68.996 403.874 68.264 404.25 67.616C404.634 66.968 405.15 66.464 405.798 66.104C406.454 65.736 407.17 65.552 407.946 65.552C408.73 65.552 409.446 65.736 410.094 66.104C410.75 66.464 411.266 66.968 411.642 67.616C412.018 68.264 412.206 68.996 412.206 69.812C412.206 70.628 412.018 71.364 411.642 72.02C411.266 72.668 410.75 73.176 410.094 73.544C409.446 73.904 408.73 74.084 407.946 74.084ZM407.946 72.896C408.498 72.896 408.99 72.772 409.422 72.524C409.854 72.268 410.19 71.908 410.43 71.444C410.678 70.972 410.802 70.428 410.802 69.812C410.802 69.196 410.678 68.656 410.43 68.192C410.19 67.728 409.854 67.372 409.422 67.124C408.99 66.876 408.498 66.752 407.946 66.752C407.394 66.752 406.902 66.876 406.47 67.124C406.038 67.372 405.698 67.728 405.45 68.192C405.21 68.656 405.09 69.196 405.09 69.812C405.09 70.428 405.21 70.972 405.45 71.444C405.698 71.908 406.038 72.268 406.47 72.524C406.902 72.772 407.394 72.896 407.946 72.896ZM416.3 74.084C415.74 74.084 415.236 73.988 414.788 73.796C414.34 73.596 413.988 73.316 413.732 72.956C413.476 72.596 413.348 72.176 413.348 71.696H414.812C414.844 72.056 414.984 72.352 415.232 72.584C415.488 72.816 415.844 72.932 416.3 72.932C416.772 72.932 417.14 72.82 417.404 72.596C417.668 72.364 417.8 72.068 417.8 71.708C417.8 71.428 417.716 71.2 417.548 71.024C417.388 70.848 417.184 70.712 416.936 70.616C416.696 70.52 416.36 70.416 415.928 70.304C415.384 70.16 414.94 70.016 414.596 69.872C414.26 69.72 413.972 69.488 413.732 69.176C413.492 68.864 413.372 68.448 413.372 67.928C413.372 67.448 413.492 67.028 413.732 66.668C413.972 66.308 414.308 66.032 414.74 65.84C415.172 65.648 415.672 65.552 416.24 65.552C417.048 65.552 417.708 65.756 418.22 66.164C418.74 66.564 419.028 67.116 419.084 67.82H417.572C417.548 67.516 417.404 67.256 417.14 67.04C416.876 66.824 416.528 66.716 416.096 66.716C415.704 66.716 415.384 66.816 415.136 67.016C414.888 67.216 414.764 67.504 414.764 67.88C414.764 68.136 414.84 68.348 414.992 68.516C415.152 68.676 415.352 68.804 415.592 68.9C415.832 68.996 416.16 69.1 416.576 69.212C417.128 69.364 417.576 69.516 417.92 69.668C418.272 69.82 418.568 70.056 418.808 70.376C419.056 70.688 419.18 71.108 419.18 71.636C419.18 72.06 419.064 72.46 418.832 72.836C418.608 73.212 418.276 73.516 417.836 73.748C417.404 73.972 416.892 74.084 416.3 74.084ZM421.347 74.084C421.099 74.084 420.891 74 420.723 73.832C420.555 73.664 420.471 73.456 420.471 73.208C420.471 72.96 420.555 72.752 420.723 72.584C420.891 72.416 421.099 72.332 421.347 72.332C421.587 72.332 421.791 72.416 421.959 72.584C422.127 72.752 422.211 72.96 422.211 73.208C422.211 73.456 422.127 73.664 421.959 73.832C421.791 74 421.587 74.084 421.347 74.084Z"></path>
</svg>
