<svg width="80" height="28" viewBox="0 0 80 28" fill="none" xmlns="http://www.w3.org/2000/svg">
<rect width="80" height="28" rx="5" fill="#E6E6E6"/>
<path d="M10.37 15.22C10.37 14.6667 10.4833 14.1767 10.71 13.75C10.9433 13.3233 11.2567 12.9933 11.65 12.76C12.05 12.52 12.4933 12.4 12.98 12.4C13.34 12.4 13.6933 12.48 14.04 12.64C14.3933 12.7933 14.6733 13 14.88 13.26V10.6H16.03V18H14.88V17.17C14.6933 17.4367 14.4333 17.6567 14.1 17.83C13.7733 18.0033 13.3967 18.09 12.97 18.09C12.49 18.09 12.05 17.97 11.65 17.73C11.2567 17.4833 10.9433 17.1433 10.71 16.71C10.4833 16.27 10.37 15.7733 10.37 15.22ZM14.88 15.24C14.88 14.86 14.8 14.53 14.64 14.25C14.4867 13.97 14.2833 13.7567 14.03 13.61C13.7767 13.4633 13.5033 13.39 13.21 13.39C12.9167 13.39 12.6433 13.4633 12.39 13.61C12.1367 13.75 11.93 13.96 11.77 14.24C11.6167 14.5133 11.54 14.84 11.54 15.22C11.54 15.6 11.6167 15.9333 11.77 16.22C11.93 16.5067 12.1367 16.7267 12.39 16.88C12.65 17.0267 12.9233 17.1 13.21 17.1C13.5033 17.1 13.7767 17.0267 14.03 16.88C14.2833 16.7333 14.4867 16.52 14.64 16.24C14.8 15.9533 14.88 15.62 14.88 15.24ZM22.5773 15.11C22.5773 15.3167 22.564 15.5033 22.5373 15.67H18.3273C18.3607 16.11 18.524 16.4633 18.8173 16.73C19.1107 16.9967 19.4707 17.13 19.8973 17.13C20.5107 17.13 20.944 16.8733 21.1973 16.36H22.4273C22.2607 16.8667 21.9573 17.2833 21.5173 17.61C21.084 17.93 20.544 18.09 19.8973 18.09C19.3707 18.09 18.8973 17.9733 18.4773 17.74C18.064 17.5 17.7373 17.1667 17.4973 16.74C17.264 16.3067 17.1473 15.8067 17.1473 15.24C17.1473 14.6733 17.2607 14.1767 17.4873 13.75C17.7207 13.3167 18.044 12.9833 18.4573 12.75C18.8773 12.5167 19.3573 12.4 19.8973 12.4C20.4173 12.4 20.8807 12.5133 21.2873 12.74C21.694 12.9667 22.0107 13.2867 22.2373 13.7C22.464 14.1067 22.5773 14.5767 22.5773 15.11ZM21.3873 14.75C21.3807 14.33 21.2307 13.9933 20.9373 13.74C20.644 13.4867 20.2807 13.36 19.8473 13.36C19.454 13.36 19.1173 13.4867 18.8373 13.74C18.5573 13.9867 18.3907 14.3233 18.3373 14.75H21.3873ZM24.8392 10.6V18H23.6992V10.6H24.8392Z" fill="black"/>
</svg>
