<svg xmlns="http://www.w3.org/2000/svg" fill="none" viewBox="0 0 480 360" height="360" width="480">
<path fill="#191919" d="M104.581 0H450C466.569 0 480 13.4315 480 30V330C480 346.569 466.569 360 450 360H104.581H30C13.4315 360 0 346.569 0 330V30C0 13.4315 13.4315 0 30 0H104.581Z"></path>
<path fill="white" d="M202.49 286.88V298H200.666V290.384L197.274 298H196.01L192.602 290.384V298H190.778V286.88H192.746L196.65 295.6L200.538 286.88H202.49ZM212.872 289.184V298H211.048V296.96C210.76 297.323 210.381 297.611 209.912 297.824C209.453 298.027 208.962 298.128 208.44 298.128C207.746 298.128 207.122 297.984 206.568 297.696C206.024 297.408 205.592 296.981 205.272 296.416C204.962 295.851 204.808 295.168 204.808 294.368V289.184H206.616V294.096C206.616 294.885 206.813 295.493 207.208 295.92C207.602 296.336 208.141 296.544 208.824 296.544C209.506 296.544 210.045 296.336 210.44 295.92C210.845 295.493 211.048 294.885 211.048 294.096V289.184H212.872ZM218.478 298.144C217.785 298.144 217.161 298.021 216.606 297.776C216.062 297.52 215.63 297.179 215.31 296.752C214.99 296.315 214.819 295.829 214.798 295.296H216.686C216.718 295.669 216.894 295.984 217.214 296.24C217.545 296.485 217.955 296.608 218.446 296.608C218.958 296.608 219.353 296.512 219.63 296.32C219.918 296.117 220.062 295.861 220.062 295.552C220.062 295.221 219.902 294.976 219.582 294.816C219.273 294.656 218.777 294.48 218.094 294.288C217.433 294.107 216.894 293.931 216.478 293.76C216.062 293.589 215.699 293.328 215.39 292.976C215.091 292.624 214.942 292.16 214.942 291.584C214.942 291.115 215.081 290.688 215.358 290.304C215.635 289.909 216.03 289.6 216.542 289.376C217.065 289.152 217.662 289.04 218.334 289.04C219.337 289.04 220.142 289.296 220.75 289.808C221.369 290.309 221.699 290.997 221.742 291.872H219.918C219.886 291.477 219.726 291.163 219.438 290.928C219.15 290.693 218.761 290.576 218.27 290.576C217.79 290.576 217.422 290.667 217.166 290.848C216.91 291.029 216.782 291.269 216.782 291.568C216.782 291.803 216.867 292 217.038 292.16C217.209 292.32 217.417 292.448 217.662 292.544C217.907 292.629 218.27 292.741 218.75 292.88C219.39 293.051 219.913 293.227 220.318 293.408C220.734 293.579 221.091 293.835 221.39 294.176C221.689 294.517 221.843 294.971 221.854 295.536C221.854 296.037 221.715 296.485 221.438 296.88C221.161 297.275 220.766 297.584 220.254 297.808C219.753 298.032 219.161 298.144 218.478 298.144ZM224.753 288.016C224.422 288.016 224.145 287.904 223.921 287.68C223.697 287.456 223.585 287.179 223.585 286.848C223.585 286.517 223.697 286.24 223.921 286.016C224.145 285.792 224.422 285.68 224.753 285.68C225.073 285.68 225.345 285.792 225.569 286.016C225.793 286.24 225.905 286.517 225.905 286.848C225.905 287.179 225.793 287.456 225.569 287.68C225.345 287.904 225.073 288.016 224.753 288.016ZM225.649 289.184V298H223.825V289.184H225.649ZM227.436 293.584C227.436 292.677 227.617 291.883 227.98 291.2C228.353 290.507 228.865 289.973 229.516 289.6C230.166 289.227 230.913 289.04 231.756 289.04C232.822 289.04 233.702 289.296 234.396 289.808C235.1 290.309 235.574 291.029 235.82 291.968H233.852C233.692 291.531 233.436 291.189 233.084 290.944C232.732 290.699 232.289 290.576 231.756 290.576C231.009 290.576 230.412 290.843 229.964 291.376C229.526 291.899 229.308 292.635 229.308 293.584C229.308 294.533 229.526 295.275 229.964 295.808C230.412 296.341 231.009 296.608 231.756 296.608C232.812 296.608 233.51 296.144 233.852 295.216H235.82C235.564 296.112 235.084 296.827 234.38 297.36C233.676 297.883 232.801 298.144 231.756 298.144C230.913 298.144 230.166 297.957 229.516 297.584C228.865 297.2 228.353 296.667 227.98 295.984C227.617 295.291 227.436 294.491 227.436 293.584ZM253.506 286.88V298H251.682V290.384L248.29 298H247.026L243.618 290.384V298H241.794V286.88H243.762L247.666 295.6L251.554 286.88H253.506ZM255.295 293.552C255.295 292.667 255.476 291.883 255.839 291.2C256.212 290.517 256.714 289.989 257.343 289.616C257.983 289.232 258.687 289.04 259.455 289.04C260.148 289.04 260.751 289.179 261.263 289.456C261.786 289.723 262.202 290.059 262.511 290.464V289.184H264.351V298H262.511V296.688C262.202 297.104 261.78 297.451 261.247 297.728C260.714 298.005 260.106 298.144 259.423 298.144C258.666 298.144 257.972 297.952 257.343 297.568C256.714 297.173 256.212 296.629 255.839 295.936C255.476 295.232 255.295 294.437 255.295 293.552ZM262.511 293.584C262.511 292.976 262.383 292.448 262.127 292C261.882 291.552 261.556 291.211 261.151 290.976C260.746 290.741 260.308 290.624 259.839 290.624C259.37 290.624 258.932 290.741 258.527 290.976C258.122 291.2 257.791 291.536 257.535 291.984C257.29 292.421 257.167 292.944 257.167 293.552C257.167 294.16 257.29 294.693 257.535 295.152C257.791 295.611 258.122 295.963 258.527 296.208C258.943 296.443 259.38 296.56 259.839 296.56C260.308 296.56 260.746 296.443 261.151 296.208C261.556 295.973 261.882 295.632 262.127 295.184C262.383 294.725 262.511 294.192 262.511 293.584ZM270.235 293.6L274.299 298H271.835L268.571 294.208V298H266.747V286.16H268.571V293.04L271.771 289.184H274.299L270.235 293.6ZM283.686 293.376C283.686 293.707 283.665 294.005 283.622 294.272H276.886C276.94 294.976 277.201 295.541 277.67 295.968C278.14 296.395 278.716 296.608 279.398 296.608C280.38 296.608 281.073 296.197 281.478 295.376H283.446C283.18 296.187 282.694 296.853 281.99 297.376C281.297 297.888 280.433 298.144 279.398 298.144C278.556 298.144 277.798 297.957 277.126 297.584C276.465 297.2 275.942 296.667 275.558 295.984C275.185 295.291 274.998 294.491 274.998 293.584C274.998 292.677 275.18 291.883 275.542 291.2C275.916 290.507 276.433 289.973 277.094 289.6C277.766 289.227 278.534 289.04 279.398 289.04C280.23 289.04 280.972 289.221 281.622 289.584C282.273 289.947 282.78 290.459 283.142 291.12C283.505 291.771 283.686 292.523 283.686 293.376ZM281.782 292.8C281.772 292.128 281.532 291.589 281.062 291.184C280.593 290.779 280.012 290.576 279.318 290.576C278.689 290.576 278.15 290.779 277.702 291.184C277.254 291.579 276.988 292.117 276.902 292.8H281.782ZM287.305 290.464C287.572 290.016 287.924 289.669 288.361 289.424C288.809 289.168 289.337 289.04 289.945 289.04V290.928H289.481C288.767 290.928 288.223 291.109 287.849 291.472C287.487 291.835 287.305 292.464 287.305 293.36V298H285.481V289.184H287.305V290.464Z"></path>
</svg>
