<svg width="40" height="40" viewBox="0 0 40 40" fill="none" xmlns="http://www.w3.org/2000/svg">
<rect width="40" height="40" rx="15" fill="#191919"/>
<rect x="15.5" y="15.5" width="9" height="9" rx="4.5" stroke="white" stroke-width="3"/>
<path d="M18.2721 12.6838C18.4082 12.2754 18.7903 12 19.2208 12H20.7792C21.2097 12 21.5918 12.2754 21.7279 12.6838L22.5 15H17.5L18.2721 12.6838Z" fill="white"/>
<path d="M21.7279 27.3162C21.5918 27.7246 21.2097 28 20.7792 28L19.2208 28C18.7903 28 18.4082 27.7246 18.2721 27.3162L17.5 25L22.5 25L21.7279 27.3162Z" fill="white"/>
<path d="M12.8 17.8383C12.5144 17.5162 12.4669 17.0476 12.6822 16.6748L13.4614 15.3251C13.6766 14.9524 14.1062 14.7591 14.5279 14.8454L16.9199 15.3349L14.4199 19.665L12.8 17.8383Z" fill="white"/>
<path d="M27.2 22.1617C27.4856 22.4838 27.5331 22.9524 27.3178 23.3252L26.5386 24.6749C26.3234 25.0476 25.8938 25.2409 25.4721 25.1546L23.0801 24.6651L25.5801 20.335L27.2 22.1617Z" fill="white"/>
<path d="M25.4721 14.8455C25.8938 14.7592 26.3234 14.9524 26.5386 15.3252L27.3178 16.6749C27.5331 17.0476 27.4856 17.5163 27.2 17.8383L25.5801 19.6651L23.0801 15.335L25.4721 14.8455Z" fill="white"/>
<path d="M14.5279 25.1545C14.1062 25.2408 13.6766 25.0476 13.4614 24.6748L12.6822 23.3251C12.4669 22.9524 12.5144 22.4837 12.8 22.1617L14.4199 20.3349L16.9199 24.665L14.5279 25.1545Z" fill="white"/>
</svg>
