<svg width="480" height="360" viewBox="0 0 480 360" fill="none" xmlns="http://www.w3.org/2000/svg">
<g clip-path="url(#clip0_339_2)">
<path d="M0 0H130C141.046 0 150 8.95431 150 20V340C150 351.046 141.046 360 130 360H0V0Z" fill="#191919"/>
<path d="M53.904 20.728H49.248L48.448 23H46.544L50.528 11.864H52.64L56.624 23H54.704L53.904 20.728ZM53.392 19.24L51.584 14.072L49.76 19.24H53.392ZM60.1803 11.16V23H58.3563V11.16H60.1803ZM61.967 18.552C61.967 17.6667 62.1483 16.8827 62.511 16.2C62.8843 15.5173 63.3857 14.9893 64.015 14.616C64.655 14.232 65.359 14.04 66.127 14.04C66.8203 14.04 67.423 14.1787 67.935 14.456C68.4577 14.7227 68.8737 15.0587 69.183 15.464V14.184H71.023V23H69.183V21.688C68.8737 22.104 68.4523 22.4507 67.919 22.728C67.3857 23.0053 66.7777 23.144 66.095 23.144C65.3377 23.144 64.6443 22.952 64.015 22.568C63.3857 22.1733 62.8843 21.6293 62.511 20.936C62.1483 20.232 61.967 19.4373 61.967 18.552ZM69.183 18.584C69.183 17.976 69.055 17.448 68.799 17C68.5537 16.552 68.2283 16.2107 67.823 15.976C67.4177 15.7413 66.9803 15.624 66.511 15.624C66.0417 15.624 65.6043 15.7413 65.199 15.976C64.7937 16.2 64.463 16.536 64.207 16.984C63.9617 17.4213 63.839 17.944 63.839 18.552C63.839 19.16 63.9617 19.6933 64.207 20.152C64.463 20.6107 64.7937 20.9627 65.199 21.208C65.615 21.4427 66.0523 21.56 66.511 21.56C66.9803 21.56 67.4177 21.4427 67.823 21.208C68.2283 20.9733 68.5537 20.632 68.799 20.184C69.055 19.7253 69.183 19.192 69.183 18.584ZM75.2428 15.464C75.5094 15.016 75.8614 14.6693 76.2988 14.424C76.7468 14.168 77.2748 14.04 77.8828 14.04V15.928H77.4188C76.7041 15.928 76.1601 16.1093 75.7868 16.472C75.4241 16.8347 75.2428 17.464 75.2428 18.36V23H73.4188V14.184H75.2428V15.464ZM90.2314 14.04C90.9247 14.04 91.5434 14.184 92.0874 14.472C92.642 14.76 93.074 15.1867 93.3834 15.752C93.7034 16.3173 93.8634 17 93.8634 17.8V23H92.0554V18.072C92.0554 17.2827 91.858 16.68 91.4634 16.264C91.0687 15.8373 90.53 15.624 89.8474 15.624C89.1647 15.624 88.6207 15.8373 88.2154 16.264C87.8207 16.68 87.6234 17.2827 87.6234 18.072V23H85.8154V18.072C85.8154 17.2827 85.618 16.68 85.2234 16.264C84.8287 15.8373 84.29 15.624 83.6074 15.624C82.9247 15.624 82.3807 15.8373 81.9754 16.264C81.5807 16.68 81.3834 17.2827 81.3834 18.072V23H79.5594V14.184H81.3834V15.192C81.682 14.8293 82.0607 14.5467 82.5194 14.344C82.978 14.1413 83.4687 14.04 83.9914 14.04C84.6954 14.04 85.3247 14.1893 85.8794 14.488C86.434 14.7867 86.8607 15.2187 87.1594 15.784C87.426 15.2507 87.842 14.8293 88.4074 14.52C88.9727 14.2 89.5807 14.04 90.2314 14.04ZM108.933 23L107.557 21.624C107.023 22.1573 106.442 22.5573 105.813 22.824C105.183 23.08 104.479 23.208 103.701 23.208C102.911 23.208 102.213 23.0693 101.605 22.792C100.997 22.5147 100.527 22.12 100.197 21.608C99.866 21.0853 99.7006 20.4827 99.7006 19.8C99.7006 19.032 99.9193 18.3493 100.357 17.752C100.794 17.144 101.445 16.664 102.309 16.312C101.999 15.9387 101.781 15.592 101.653 15.272C101.525 14.9413 101.461 14.5787 101.461 14.184C101.461 13.6933 101.583 13.256 101.829 12.872C102.085 12.488 102.447 12.184 102.917 11.96C103.386 11.736 103.93 11.624 104.549 11.624C105.178 11.624 105.711 11.7467 106.149 11.992C106.597 12.2267 106.927 12.552 107.141 12.968C107.365 13.384 107.455 13.848 107.413 14.36H105.589C105.599 13.9653 105.503 13.6613 105.301 13.448C105.098 13.224 104.821 13.112 104.469 13.112C104.117 13.112 103.829 13.2187 103.605 13.432C103.391 13.6347 103.285 13.8853 103.285 14.184C103.285 14.472 103.365 14.76 103.525 15.048C103.695 15.3253 103.989 15.688 104.405 16.136L107.349 19.064L108.485 17.192H110.453L109.013 19.656L108.613 20.312L111.317 23H108.933ZM103.701 21.656C104.703 21.656 105.589 21.2453 106.357 20.424L103.413 17.464C102.154 17.9653 101.525 18.7227 101.525 19.736C101.525 20.28 101.727 20.7387 102.133 21.112C102.538 21.4747 103.061 21.656 103.701 21.656ZM46.592 33.416C46.592 32.328 46.8427 31.352 47.344 30.488C47.856 29.624 48.544 28.952 49.408 28.472C50.2827 27.9813 51.2373 27.736 52.272 27.736C53.456 27.736 54.5067 28.0293 55.424 28.616C56.352 29.192 57.024 30.0133 57.44 31.08H55.248C54.96 30.4933 54.56 30.056 54.048 29.768C53.536 29.48 52.944 29.336 52.272 29.336C51.536 29.336 50.88 29.5013 50.304 29.832C49.728 30.1627 49.2747 30.6373 48.944 31.256C48.624 31.8747 48.464 32.5947 48.464 33.416C48.464 34.2373 48.624 34.9573 48.944 35.576C49.2747 36.1947 49.728 36.6747 50.304 37.016C50.88 37.3467 51.536 37.512 52.272 37.512C52.944 37.512 53.536 37.368 54.048 37.08C54.56 36.792 54.96 36.3547 55.248 35.768H57.44C57.024 36.8347 56.352 37.656 55.424 38.232C54.5067 38.808 53.456 39.096 52.272 39.096C51.2267 39.096 50.272 38.856 49.408 38.376C48.544 37.8853 47.856 37.208 47.344 36.344C46.8427 35.48 46.592 34.504 46.592 33.416ZM61.399 27.16V39H59.575V27.16H61.399ZM67.6178 39.144C66.7858 39.144 66.0338 38.9573 65.3618 38.584C64.6898 38.2 64.1618 37.6667 63.7778 36.984C63.3938 36.2907 63.2018 35.4907 63.2018 34.584C63.2018 33.688 63.3991 32.8933 63.7938 32.2C64.1884 31.5067 64.7271 30.9733 65.4098 30.6C66.0924 30.2267 66.8551 30.04 67.6978 30.04C68.5404 30.04 69.3031 30.2267 69.9858 30.6C70.6684 30.9733 71.2071 31.5067 71.6018 32.2C71.9964 32.8933 72.1938 33.688 72.1938 34.584C72.1938 35.48 71.9911 36.2747 71.5858 36.968C71.1804 37.6613 70.6258 38.2 69.9218 38.584C69.2284 38.9573 68.4604 39.144 67.6178 39.144ZM67.6178 37.56C68.0871 37.56 68.5244 37.448 68.9298 37.224C69.3458 37 69.6818 36.664 69.9378 36.216C70.1938 35.768 70.3218 35.224 70.3218 34.584C70.3218 33.944 70.1991 33.4053 69.9538 32.968C69.7084 32.52 69.3831 32.184 68.9778 31.96C68.5724 31.736 68.1351 31.624 67.6658 31.624C67.1964 31.624 66.7591 31.736 66.3538 31.96C65.9591 32.184 65.6444 32.52 65.4098 32.968C65.1751 33.4053 65.0578 33.944 65.0578 34.584C65.0578 35.5333 65.2978 36.2693 65.7778 36.792C66.2684 37.304 66.8818 37.56 67.6178 37.56ZM73.3889 34.584C73.3889 33.6773 73.5702 32.8827 73.9329 32.2C74.3062 31.5067 74.8182 30.9733 75.4689 30.6C76.1195 30.2267 76.8662 30.04 77.7089 30.04C78.7755 30.04 79.6555 30.296 80.3489 30.808C81.0529 31.3093 81.5275 32.0293 81.7729 32.968H79.8049C79.6449 32.5307 79.3889 32.1893 79.0369 31.944C78.6849 31.6987 78.2422 31.576 77.7089 31.576C76.9622 31.576 76.3649 31.8427 75.9169 32.376C75.4795 32.8987 75.2609 33.6347 75.2609 34.584C75.2609 35.5333 75.4795 36.2747 75.9169 36.808C76.3649 37.3413 76.9622 37.608 77.7089 37.608C78.7649 37.608 79.4635 37.144 79.8049 36.216H81.7729C81.5169 37.112 81.0369 37.8267 80.3329 38.36C79.6289 38.8827 78.7542 39.144 77.7089 39.144C76.8662 39.144 76.1195 38.9573 75.4689 38.584C74.8182 38.2 74.3062 37.6667 73.9329 36.984C73.5702 36.2907 73.3889 35.4907 73.3889 34.584ZM87.0786 34.6L91.1426 39H88.6786L85.4146 35.208V39H83.5906V27.16H85.4146V34.04L88.6146 30.184H91.1426L87.0786 34.6Z" fill="white"/>
<path d="M32.268 67.896H35.088V69H30.9V60.66H32.268V67.896ZM36.928 61.512C36.68 61.512 36.472 61.428 36.304 61.26C36.136 61.092 36.052 60.884 36.052 60.636C36.052 60.388 36.136 60.18 36.304 60.012C36.472 59.844 36.68 59.76 36.928 59.76C37.168 59.76 37.372 59.844 37.54 60.012C37.708 60.18 37.792 60.388 37.792 60.636C37.792 60.884 37.708 61.092 37.54 61.26C37.372 61.428 37.168 61.512 36.928 61.512ZM37.6 62.388V69H36.232V62.388H37.6ZM41.9521 67.776L43.8241 62.388H45.2761L42.7561 69H41.1241L38.6161 62.388H40.0801L41.9521 67.776ZM52.3702 65.532C52.3702 65.78 52.3542 66.004 52.3222 66.204H47.2702C47.3102 66.732 47.5062 67.156 47.8582 67.476C48.2102 67.796 48.6422 67.956 49.1542 67.956C49.8902 67.956 50.4102 67.648 50.7142 67.032H52.1902C51.9902 67.64 51.6262 68.14 51.0982 68.532C50.5782 68.916 49.9302 69.108 49.1542 69.108C48.5222 69.108 47.9542 68.968 47.4502 68.688C46.9542 68.4 46.5622 68 46.2742 67.488C45.9942 66.968 45.8542 66.368 45.8542 65.688C45.8542 65.008 45.9902 64.412 46.2622 63.9C46.5422 63.38 46.9302 62.98 47.4262 62.7C47.9302 62.42 48.5062 62.28 49.1542 62.28C49.7782 62.28 50.3342 62.416 50.8222 62.688C51.3102 62.96 51.6902 63.344 51.9622 63.84C52.2342 64.328 52.3702 64.892 52.3702 65.532ZM50.9422 65.1C50.9342 64.596 50.7542 64.192 50.4022 63.888C50.0502 63.584 49.6142 63.432 49.0942 63.432C48.6222 63.432 48.2182 63.584 47.8822 63.888C47.5462 64.184 47.3462 64.588 47.2822 65.1H50.9422ZM56.3776 65.688C56.3776 65.008 56.5136 64.412 56.7856 63.9C57.0656 63.38 57.4496 62.98 57.9376 62.7C58.4256 62.42 58.9856 62.28 59.6176 62.28C60.4176 62.28 61.0776 62.472 61.5976 62.856C62.1256 63.232 62.4816 63.772 62.6656 64.476H61.1896C61.0696 64.148 60.8776 63.892 60.6136 63.708C60.3496 63.524 60.0176 63.432 59.6176 63.432C59.0576 63.432 58.6096 63.632 58.2736 64.032C57.9456 64.424 57.7816 64.976 57.7816 65.688C57.7816 66.4 57.9456 66.956 58.2736 67.356C58.6096 67.756 59.0576 67.956 59.6176 67.956C60.4096 67.956 60.9336 67.608 61.1896 66.912H62.6656C62.4736 67.584 62.1136 68.12 61.5856 68.52C61.0576 68.912 60.4016 69.108 59.6176 69.108C58.9856 69.108 58.4256 68.968 57.9376 68.688C57.4496 68.4 57.0656 68 56.7856 67.488C56.5136 66.968 56.3776 66.368 56.3776 65.688ZM65.3969 60.12V69H64.0289V60.12H65.3969ZM70.061 69.108C69.437 69.108 68.873 68.968 68.369 68.688C67.865 68.4 67.469 68 67.181 67.488C66.893 66.968 66.749 66.368 66.749 65.688C66.749 65.016 66.897 64.42 67.193 63.9C67.489 63.38 67.893 62.98 68.405 62.7C68.917 62.42 69.489 62.28 70.121 62.28C70.753 62.28 71.325 62.42 71.837 62.7C72.349 62.98 72.753 63.38 73.049 63.9C73.345 64.42 73.493 65.016 73.493 65.688C73.493 66.36 73.341 66.956 73.037 67.476C72.733 67.996 72.317 68.4 71.789 68.688C71.269 68.968 70.693 69.108 70.061 69.108ZM70.061 67.92C70.413 67.92 70.741 67.836 71.045 67.668C71.357 67.5 71.609 67.248 71.801 66.912C71.993 66.576 72.089 66.168 72.089 65.688C72.089 65.208 71.997 64.804 71.813 64.476C71.629 64.14 71.385 63.888 71.081 63.72C70.777 63.552 70.449 63.468 70.097 63.468C69.745 63.468 69.417 63.552 69.113 63.72C68.817 63.888 68.581 64.14 68.405 64.476C68.229 64.804 68.141 65.208 68.141 65.688C68.141 66.4 68.321 66.952 68.681 67.344C69.049 67.728 69.509 67.92 70.061 67.92ZM74.3893 65.688C74.3893 65.008 74.5253 64.412 74.7973 63.9C75.0773 63.38 75.4613 62.98 75.9493 62.7C76.4373 62.42 76.9973 62.28 77.6293 62.28C78.4293 62.28 79.0893 62.472 79.6093 62.856C80.1373 63.232 80.4933 63.772 80.6773 64.476H79.2013C79.0813 64.148 78.8893 63.892 78.6253 63.708C78.3613 63.524 78.0293 63.432 77.6293 63.432C77.0693 63.432 76.6213 63.632 76.2853 64.032C75.9573 64.424 75.7933 64.976 75.7933 65.688C75.7933 66.4 75.9573 66.956 76.2853 67.356C76.6213 67.756 77.0693 67.956 77.6293 67.956C78.4213 67.956 78.9453 67.608 79.2013 66.912H80.6773C80.4853 67.584 80.1253 68.12 79.5973 68.52C79.0693 68.912 78.4133 69.108 77.6293 69.108C76.9973 69.108 76.4373 68.968 75.9493 68.688C75.4613 68.4 75.0773 68 74.7973 67.488C74.5253 66.968 74.3893 66.368 74.3893 65.688ZM84.6566 65.7L87.7046 69H85.8566L83.4086 66.156V69H82.0406V60.12H83.4086V65.28L85.8086 62.388H87.7046L84.6566 65.7Z" fill="white"/>
<path d="M19.5 64.134C20.1667 64.5189 20.1667 65.4811 19.5 65.866L13.5 69.3301C12.8333 69.715 12 69.2339 12 68.4641L12 61.5359C12 60.7661 12.8333 60.285 13.5 60.6699L19.5 64.134Z" stroke="white" stroke-width="2"/>
<path d="M35.928 97.296H32.436L31.836 99H30.408L33.396 90.648H34.98L37.968 99H36.528L35.928 97.296ZM35.544 96.18L34.188 92.304L32.82 96.18H35.544ZM40.6352 90.12V99H39.2672V90.12H40.6352ZM41.9753 95.664C41.9753 95 42.1113 94.412 42.3833 93.9C42.6633 93.388 43.0393 92.992 43.5113 92.712C43.9913 92.424 44.5193 92.28 45.0953 92.28C45.6153 92.28 46.0673 92.384 46.4513 92.592C46.8433 92.792 47.1553 93.044 47.3873 93.348V92.388H48.7673V99H47.3873V98.016C47.1553 98.328 46.8393 98.588 46.4393 98.796C46.0393 99.004 45.5833 99.108 45.0713 99.108C44.5033 99.108 43.9833 98.964 43.5113 98.676C43.0393 98.38 42.6633 97.972 42.3833 97.452C42.1113 96.924 41.9753 96.328 41.9753 95.664ZM47.3873 95.688C47.3873 95.232 47.2913 94.836 47.0993 94.5C46.9153 94.164 46.6713 93.908 46.3673 93.732C46.0633 93.556 45.7353 93.468 45.3833 93.468C45.0313 93.468 44.7033 93.556 44.3993 93.732C44.0953 93.9 43.8473 94.152 43.6553 94.488C43.4713 94.816 43.3793 95.208 43.3793 95.664C43.3793 96.12 43.4713 96.52 43.6553 96.864C43.8473 97.208 44.0953 97.472 44.3993 97.656C44.7113 97.832 45.0393 97.92 45.3833 97.92C45.7353 97.92 46.0633 97.832 46.3673 97.656C46.6713 97.48 46.9153 97.224 47.0993 96.888C47.2913 96.544 47.3873 96.144 47.3873 95.688ZM51.9321 93.348C52.1321 93.012 52.3961 92.752 52.7241 92.568C53.0601 92.376 53.4561 92.28 53.9121 92.28V93.696H53.5641C53.0281 93.696 52.6201 93.832 52.3401 94.104C52.0681 94.376 51.9321 94.848 51.9321 95.52V99H50.5641V92.388H51.9321V93.348ZM63.1735 92.28C63.6935 92.28 64.1575 92.388 64.5655 92.604C64.9815 92.82 65.3055 93.14 65.5375 93.564C65.7775 93.988 65.8975 94.5 65.8975 95.1V99H64.5415V95.304C64.5415 94.712 64.3935 94.26 64.0975 93.948C63.8015 93.628 63.3975 93.468 62.8855 93.468C62.3735 93.468 61.9655 93.628 61.6615 93.948C61.3655 94.26 61.2175 94.712 61.2175 95.304V99H59.8615V95.304C59.8615 94.712 59.7135 94.26 59.4175 93.948C59.1215 93.628 58.7175 93.468 58.2055 93.468C57.6935 93.468 57.2855 93.628 56.9815 93.948C56.6855 94.26 56.5375 94.712 56.5375 95.304V99H55.1695V92.388H56.5375V93.144C56.7615 92.872 57.0455 92.66 57.3895 92.508C57.7335 92.356 58.1015 92.28 58.4935 92.28C59.0215 92.28 59.4935 92.392 59.9095 92.616C60.3255 92.84 60.6455 93.164 60.8695 93.588C61.0695 93.188 61.3815 92.872 61.8055 92.64C62.2295 92.4 62.6855 92.28 63.1735 92.28Z" fill="white"/>
<circle cx="15" cy="94.9999" r="5" stroke="white" stroke-width="2"/>
<rect x="14" y="91.9999" width="2" height="4" rx="1" fill="white"/>
<rect x="14.2928" y="97.1212" width="2" height="3" rx="1" transform="rotate(-135 14.2928 97.1212)" fill="white"/>
<rect x="7.92896" y="90.9999" width="4" height="1" rx="0.5" transform="rotate(-45 7.92896 90.9999)" fill="white"/>
<rect x="21.364" y="91.7069" width="4" height="1" rx="0.5" transform="rotate(-135 21.364 91.7069)" fill="white"/>
<path d="M36.288 120.66V121.776H34.068V129H32.7V121.776H30.468V120.66H36.288ZM38.3694 121.512C38.1214 121.512 37.9134 121.428 37.7454 121.26C37.5774 121.092 37.4934 120.884 37.4934 120.636C37.4934 120.388 37.5774 120.18 37.7454 120.012C37.9134 119.844 38.1214 119.76 38.3694 119.76C38.6094 119.76 38.8134 119.844 38.9814 120.012C39.1494 120.18 39.2334 120.388 39.2334 120.636C39.2334 120.884 39.1494 121.092 38.9814 121.26C38.8134 121.428 38.6094 121.512 38.3694 121.512ZM39.0414 122.388V129H37.6734V122.388H39.0414ZM48.8415 122.28C49.3615 122.28 49.8255 122.388 50.2335 122.604C50.6495 122.82 50.9735 123.14 51.2055 123.564C51.4455 123.988 51.5655 124.5 51.5655 125.1V129H50.2095V125.304C50.2095 124.712 50.0615 124.26 49.7655 123.948C49.4695 123.628 49.0655 123.468 48.5535 123.468C48.0415 123.468 47.6335 123.628 47.3295 123.948C47.0335 124.26 46.8855 124.712 46.8855 125.304V129H45.5295V125.304C45.5295 124.712 45.3815 124.26 45.0855 123.948C44.7895 123.628 44.3855 123.468 43.8735 123.468C43.3615 123.468 42.9535 123.628 42.6495 123.948C42.3535 124.26 42.2055 124.712 42.2055 125.304V129H40.8375V122.388H42.2055V123.144C42.4295 122.872 42.7135 122.66 43.0575 122.508C43.4015 122.356 43.7695 122.28 44.1615 122.28C44.6895 122.28 45.1615 122.392 45.5775 122.616C45.9935 122.84 46.3135 123.164 46.5375 123.588C46.7375 123.188 47.0495 122.872 47.4735 122.64C47.8975 122.4 48.3535 122.28 48.8415 122.28ZM59.3663 125.532C59.3663 125.78 59.3503 126.004 59.3183 126.204H54.2663C54.3063 126.732 54.5023 127.156 54.8543 127.476C55.2063 127.796 55.6383 127.956 56.1503 127.956C56.8863 127.956 57.4063 127.648 57.7103 127.032H59.1862C58.9863 127.64 58.6223 128.14 58.0943 128.532C57.5743 128.916 56.9263 129.108 56.1503 129.108C55.5183 129.108 54.9503 128.968 54.4463 128.688C53.9503 128.4 53.5583 128 53.2703 127.488C52.9903 126.968 52.8503 126.368 52.8503 125.688C52.8503 125.008 52.9863 124.412 53.2583 123.9C53.5383 123.38 53.9263 122.98 54.4223 122.7C54.9263 122.42 55.5023 122.28 56.1503 122.28C56.7743 122.28 57.3303 122.416 57.8183 122.688C58.3063 122.96 58.6863 123.344 58.9583 123.84C59.2303 124.328 59.3663 124.892 59.3663 125.532ZM57.9383 125.1C57.9303 124.596 57.7503 124.192 57.3983 123.888C57.0463 123.584 56.6103 123.432 56.0903 123.432C55.6183 123.432 55.2143 123.584 54.8783 123.888C54.5423 124.184 54.3423 124.588 54.2783 125.1H57.9383ZM62.0805 123.348C62.2805 123.012 62.5445 122.752 62.8725 122.568C63.2085 122.376 63.6045 122.28 64.0605 122.28V123.696H63.7125C63.1765 123.696 62.7685 123.832 62.4885 124.104C62.2165 124.376 62.0805 124.848 62.0805 125.52V129H60.7125V122.388H62.0805V123.348Z" fill="white"/>
<path d="M15.1679 124.445L15 124.697L14.8321 124.445L11.8685 120H18.1315L15.1679 124.445ZM14.8321 125.555L15 125.303L15.1679 125.555L18.1315 130H11.8685L14.8321 125.555Z" stroke="white" stroke-width="2"/>
<rect x="13" y="127" width="4" height="3" fill="white"/>
<path d="M33.648 159.084C33.088 159.084 32.584 158.988 32.136 158.796C31.688 158.596 31.336 158.316 31.08 157.956C30.824 157.596 30.696 157.176 30.696 156.696H32.16C32.192 157.056 32.332 157.352 32.58 157.584C32.836 157.816 33.192 157.932 33.648 157.932C34.12 157.932 34.488 157.82 34.752 157.596C35.016 157.364 35.148 157.068 35.148 156.708C35.148 156.428 35.064 156.2 34.896 156.024C34.736 155.848 34.532 155.712 34.284 155.616C34.044 155.52 33.708 155.416 33.276 155.304C32.732 155.16 32.288 155.016 31.944 154.872C31.608 154.72 31.32 154.488 31.08 154.176C30.84 153.864 30.72 153.448 30.72 152.928C30.72 152.448 30.84 152.028 31.08 151.668C31.32 151.308 31.656 151.032 32.088 150.84C32.52 150.648 33.02 150.552 33.588 150.552C34.396 150.552 35.056 150.756 35.568 151.164C36.088 151.564 36.376 152.116 36.432 152.82H34.92C34.896 152.516 34.752 152.256 34.488 152.04C34.224 151.824 33.876 151.716 33.444 151.716C33.052 151.716 32.732 151.816 32.484 152.016C32.236 152.216 32.112 152.504 32.112 152.88C32.112 153.136 32.188 153.348 32.34 153.516C32.5 153.676 32.7 153.804 32.94 153.9C33.18 153.996 33.508 154.1 33.924 154.212C34.476 154.364 34.924 154.516 35.268 154.668C35.62 154.82 35.916 155.056 36.156 155.376C36.404 155.688 36.528 156.108 36.528 156.636C36.528 157.06 36.412 157.46 36.18 157.836C35.956 158.212 35.624 158.516 35.184 158.748C34.752 158.972 34.24 159.084 33.648 159.084ZM39.7382 153.504V157.164C39.7382 157.412 39.7942 157.592 39.9062 157.704C40.0262 157.808 40.2262 157.86 40.5062 157.86H41.3462V159H40.2662C39.6502 159 39.1782 158.856 38.8502 158.568C38.5222 158.28 38.3582 157.812 38.3582 157.164V153.504H37.5782V152.388H38.3582V150.744H39.7382V152.388H41.3462V153.504H39.7382ZM45.475 159.108C44.851 159.108 44.287 158.968 43.783 158.688C43.279 158.4 42.883 158 42.595 157.488C42.307 156.968 42.163 156.368 42.163 155.688C42.163 155.016 42.311 154.42 42.607 153.9C42.903 153.38 43.307 152.98 43.819 152.7C44.331 152.42 44.903 152.28 45.535 152.28C46.167 152.28 46.739 152.42 47.251 152.7C47.763 152.98 48.167 153.38 48.463 153.9C48.759 154.42 48.907 155.016 48.907 155.688C48.907 156.36 48.755 156.956 48.451 157.476C48.147 157.996 47.731 158.4 47.203 158.688C46.683 158.968 46.107 159.108 45.475 159.108ZM45.475 157.92C45.827 157.92 46.155 157.836 46.459 157.668C46.771 157.5 47.023 157.248 47.215 156.912C47.407 156.576 47.503 156.168 47.503 155.688C47.503 155.208 47.411 154.804 47.227 154.476C47.043 154.14 46.799 153.888 46.495 153.72C46.191 153.552 45.863 153.468 45.511 153.468C45.159 153.468 44.831 153.552 44.527 153.72C44.231 153.888 43.995 154.14 43.819 154.476C43.643 154.804 43.555 155.208 43.555 155.688C43.555 156.4 43.735 156.952 44.095 157.344C44.463 157.728 44.923 157.92 45.475 157.92ZM51.6274 153.36C51.8594 153.056 52.1754 152.8 52.5754 152.592C52.9754 152.384 53.4274 152.28 53.9314 152.28C54.5074 152.28 55.0314 152.424 55.5034 152.712C55.9834 152.992 56.3594 153.388 56.6314 153.9C56.9034 154.412 57.0394 155 57.0394 155.664C57.0394 156.328 56.9034 156.924 56.6314 157.452C56.3594 157.972 55.9834 158.38 55.5034 158.676C55.0314 158.964 54.5074 159.108 53.9314 159.108C53.4274 159.108 52.9794 159.008 52.5874 158.808C52.1954 158.6 51.8754 158.344 51.6274 158.04V162.144H50.2594V152.388H51.6274V153.36ZM55.6474 155.664C55.6474 155.208 55.5514 154.816 55.3594 154.488C55.1754 154.152 54.9274 153.9 54.6154 153.732C54.3114 153.556 53.9834 153.468 53.6314 153.468C53.2874 153.468 52.9594 153.556 52.6474 153.732C52.3434 153.908 52.0954 154.164 51.9034 154.5C51.7194 154.836 51.6274 155.232 51.6274 155.688C51.6274 156.144 51.7194 156.544 51.9034 156.888C52.0954 157.224 52.3434 157.48 52.6474 157.656C52.9594 157.832 53.2874 157.92 53.6314 157.92C53.9834 157.92 54.3114 157.832 54.6154 157.656C54.9274 157.472 55.1754 157.208 55.3594 156.864C55.5514 156.52 55.6474 156.12 55.6474 155.664ZM67.2722 152.388L65.2202 159H63.7802L62.4482 154.116L61.1162 159H59.6762L57.6122 152.388H59.0042L60.3842 157.704L61.7882 152.388H63.2162L64.5602 157.68L65.9282 152.388H67.2722ZM67.8385 155.664C67.8385 155 67.9745 154.412 68.2465 153.9C68.5265 153.388 68.9025 152.992 69.3745 152.712C69.8545 152.424 70.3825 152.28 70.9585 152.28C71.4785 152.28 71.9305 152.384 72.3145 152.592C72.7065 152.792 73.0185 153.044 73.2505 153.348V152.388H74.6305V159H73.2505V158.016C73.0185 158.328 72.7025 158.588 72.3025 158.796C71.9025 159.004 71.4465 159.108 70.9345 159.108C70.3665 159.108 69.8465 158.964 69.3745 158.676C68.9025 158.38 68.5265 157.972 68.2465 157.452C67.9745 156.924 67.8385 156.328 67.8385 155.664ZM73.2505 155.688C73.2505 155.232 73.1545 154.836 72.9625 154.5C72.7785 154.164 72.5345 153.908 72.2305 153.732C71.9265 153.556 71.5985 153.468 71.2465 153.468C70.8945 153.468 70.5665 153.556 70.2625 153.732C69.9585 153.9 69.7105 154.152 69.5185 154.488C69.3345 154.816 69.2425 155.208 69.2425 155.664C69.2425 156.12 69.3345 156.52 69.5185 156.864C69.7105 157.208 69.9585 157.472 70.2625 157.656C70.5745 157.832 70.9025 157.92 71.2465 157.92C71.5985 157.92 71.9265 157.832 72.2305 157.656C72.5345 157.48 72.7785 157.224 72.9625 156.888C73.1545 156.544 73.2505 156.144 73.2505 155.688ZM78.0233 153.504V157.164C78.0233 157.412 78.0793 157.592 78.1913 157.704C78.3113 157.808 78.5113 157.86 78.7913 157.86H79.6313V159H78.5513C77.9353 159 77.4633 158.856 77.1353 158.568C76.8073 158.28 76.6433 157.812 76.6433 157.164V153.504H75.8633V152.388H76.6433V150.744H78.0233V152.388H79.6313V153.504H78.0233ZM80.4362 155.688C80.4362 155.008 80.5722 154.412 80.8442 153.9C81.1242 153.38 81.5082 152.98 81.9962 152.7C82.4842 152.42 83.0442 152.28 83.6762 152.28C84.4762 152.28 85.1362 152.472 85.6562 152.856C86.1842 153.232 86.5402 153.772 86.7242 154.476H85.2482C85.1282 154.148 84.9362 153.892 84.6722 153.708C84.4082 153.524 84.0762 153.432 83.6762 153.432C83.1162 153.432 82.6682 153.632 82.3322 154.032C82.0042 154.424 81.8402 154.976 81.8402 155.688C81.8402 156.4 82.0042 156.956 82.3322 157.356C82.6682 157.756 83.1162 157.956 83.6762 157.956C84.4682 157.956 84.9922 157.608 85.2482 156.912H86.7242C86.5322 157.584 86.1722 158.12 85.6442 158.52C85.1162 158.912 84.4602 159.108 83.6762 159.108C83.0442 159.108 82.4842 158.968 81.9962 158.688C81.5082 158.4 81.1242 158 80.8442 157.488C80.5722 156.968 80.4362 156.368 80.4362 155.688ZM91.5075 152.28C92.0115 152.28 92.4595 152.388 92.8515 152.604C93.2515 152.82 93.5635 153.14 93.7875 153.564C94.0195 153.988 94.1355 154.5 94.1355 155.1V159H92.7795V155.304C92.7795 154.712 92.6315 154.26 92.3355 153.948C92.0395 153.628 91.6355 153.468 91.1235 153.468C90.6115 153.468 90.2035 153.628 89.8995 153.948C89.6035 154.26 89.4555 154.712 89.4555 155.304V159H88.0875V150.12H89.4555V153.156C89.6875 152.876 89.9795 152.66 90.3315 152.508C90.6915 152.356 91.0835 152.28 91.5075 152.28Z" fill="white"/>
<circle cx="15" cy="155" r="5" stroke="white" stroke-width="2"/>
<rect x="16.4142" y="152.172" width="2" height="4" rx="1" transform="rotate(45 16.4142 152.172)" fill="white"/>
<rect x="13" y="147" width="4" height="1" rx="0.5" fill="white"/>
<rect x="18" y="20" width="8" height="2" rx="1" fill="#191919"/>
<rect x="18" y="24" width="10" height="2" rx="1" fill="#191919"/>
<rect x="18" y="28" width="5" height="2" rx="1" fill="#191919"/>
<circle cx="23" cy="25" r="7" stroke="white" stroke-width="2"/>
<rect x="22" y="20" width="2" height="6" rx="1" fill="white"/>
<rect x="21.5858" y="27.8284" width="2" height="4" rx="1" transform="rotate(-135 21.5858 27.8284)" fill="white"/>
</g>
<defs>
<clipPath id="clip0_339_2">
<rect width="480" height="360" fill="white"/>
</clipPath>
</defs>
</svg>
