<svg width="250" height="28" viewBox="0 0 250 28" fill="none" xmlns="http://www.w3.org/2000/svg">
<rect width="250" height="28" rx="5" fill="#1B1B1B"/>
<path d="M13.59 12.4C14.2767 12.4 14.8233 12.5933 15.23 12.98C15.6433 13.3667 15.85 13.8867 15.85 14.54C15.85 14.6933 15.8333 14.8767 15.8 15.09C15.7733 15.2367 15.7267 15.4167 15.66 15.63H11.45C11.4433 15.6767 11.44 15.7467 11.44 15.84C11.44 16.2333 11.56 16.5467 11.8 16.78C12.0467 17.0133 12.3667 17.13 12.76 17.13C13.38 17.13 13.8567 16.8733 14.19 16.36H15.42C15.1667 16.8667 14.7933 17.2833 14.3 17.61C13.8067 17.93 13.2367 18.09 12.59 18.09C12.13 18.09 11.7267 18 11.38 17.82C11.0333 17.64 10.7633 17.3833 10.57 17.05C10.3767 16.71 10.28 16.3133 10.28 15.86C10.28 15.6667 10.3 15.46 10.34 15.24C10.44 14.6733 10.6433 14.1767 10.95 13.75C11.2567 13.3167 11.6367 12.9833 12.09 12.75C12.55 12.5167 13.05 12.4 13.59 12.4ZM14.66 14.81C14.6733 14.69 14.68 14.6033 14.68 14.55C14.68 14.1833 14.5567 13.8933 14.31 13.68C14.07 13.4667 13.7567 13.36 13.37 13.36C12.9633 13.36 12.5967 13.49 12.27 13.75C11.9433 14.01 11.72 14.3633 11.6 14.81H14.66ZM19.2619 15.2L20.5419 18H19.2519L18.3919 16.13L16.9419 18H15.7519L18.0119 15.29L16.7219 12.49H18.0119L18.8719 14.36L20.3219 12.49H21.5119L19.2619 15.2ZM21.5021 15.22C21.6021 14.6667 21.8021 14.1767 22.1021 13.75C22.4088 13.3233 22.7821 12.9933 23.2221 12.76C23.6621 12.52 24.1221 12.4 24.6021 12.4C25.0354 12.4 25.3988 12.4867 25.6921 12.66C25.9854 12.8267 26.2054 13.0367 26.3521 13.29L26.4921 12.49H27.6421L26.6721 18H25.5221L25.6721 17.18C25.4321 17.44 25.1288 17.6567 24.7621 17.83C24.4021 18.0033 24.0088 18.09 23.5821 18.09C23.1688 18.09 22.7988 17.9967 22.4721 17.81C22.1521 17.6233 21.8988 17.36 21.7121 17.02C21.5321 16.6733 21.4421 16.2767 21.4421 15.83C21.4421 15.63 21.4621 15.4267 21.5021 15.22ZM26.0121 15.24C26.0388 15.1133 26.0521 14.9767 26.0521 14.83C26.0521 14.3833 25.9188 14.0333 25.6521 13.78C25.3921 13.52 25.0654 13.39 24.6721 13.39C24.3788 13.39 24.0921 13.4633 23.8121 13.61C23.5321 13.75 23.2888 13.96 23.0821 14.24C22.8754 14.5133 22.7388 14.84 22.6721 15.22C22.6454 15.3467 22.6321 15.4833 22.6321 15.63C22.6321 16.0833 22.7621 16.4433 23.0221 16.71C23.2888 16.97 23.6188 17.1 24.0121 17.1C24.3054 17.1 24.5921 17.0267 24.8721 16.88C25.1521 16.7333 25.3954 16.52 25.6021 16.24C25.8088 15.9533 25.9454 15.62 26.0121 15.24ZM35.8295 12.4C36.4095 12.4 36.8728 12.5567 37.2195 12.87C37.5661 13.1833 37.7395 13.6267 37.7395 14.2C37.7395 14.3533 37.7228 14.5367 37.6895 14.75L37.1095 18H35.9795L36.5295 14.92C36.5561 14.7333 36.5695 14.6 36.5695 14.52C36.5695 14.1533 36.4661 13.8733 36.2595 13.68C36.0595 13.4867 35.7795 13.39 35.4195 13.39C34.9861 13.39 34.6195 13.5233 34.3195 13.79C34.0261 14.05 33.8395 14.4267 33.7595 14.92L33.2095 18H32.0795L32.6295 14.92C32.6561 14.7333 32.6695 14.6 32.6695 14.52C32.6695 14.1533 32.5661 13.8733 32.3595 13.68C32.1595 13.4867 31.8795 13.39 31.5195 13.39C31.0861 13.39 30.7195 13.5233 30.4195 13.79C30.1261 14.05 29.9395 14.4267 29.8595 14.92V14.89L29.3095 18H28.1695L29.1395 12.49H30.2795L30.1695 13.13C30.3895 12.9033 30.6528 12.7267 30.9595 12.6C31.2728 12.4667 31.5961 12.4 31.9295 12.4C32.3695 12.4 32.7461 12.4933 33.0595 12.68C33.3795 12.8667 33.6028 13.1367 33.7295 13.49C33.9495 13.1567 34.2528 12.8933 34.6395 12.7C35.0261 12.5 35.4228 12.4 35.8295 12.4ZM40.5301 13.3C40.7701 13.0467 41.0701 12.8333 41.4301 12.66C41.7967 12.4867 42.1901 12.4 42.6101 12.4C43.0301 12.4 43.4034 12.49 43.7301 12.67C44.0567 12.85 44.3101 13.1067 44.4901 13.44C44.6701 13.7733 44.7601 14.1633 44.7601 14.61C44.7601 14.8033 44.7401 15.0067 44.7001 15.22C44.6001 15.7733 44.3967 16.27 44.0901 16.71C43.7901 17.1433 43.4201 17.4833 42.9801 17.73C42.5467 17.97 42.0901 18.09 41.6101 18.09C41.1901 18.09 40.8301 18.0067 40.5301 17.84C40.2367 17.6667 40.0067 17.4533 39.8401 17.2L39.2401 20.62H38.1001L39.5301 12.49H40.6701L40.5301 13.3ZM43.5401 15.22C43.5667 15.0933 43.5801 14.9567 43.5801 14.81C43.5801 14.3633 43.4467 14.0167 43.1801 13.77C42.9201 13.5167 42.5901 13.39 42.1901 13.39C41.9034 13.39 41.6167 13.4633 41.3301 13.61C41.0501 13.7567 40.8067 13.97 40.6001 14.25C40.3934 14.53 40.2567 14.86 40.1901 15.24C40.1634 15.3667 40.1501 15.5033 40.1501 15.65C40.1501 16.0967 40.2801 16.45 40.5401 16.71C40.8067 16.97 41.1367 17.1 41.5301 17.1C41.8234 17.1 42.1101 17.0267 42.3901 16.88C42.6767 16.7267 42.9234 16.5067 43.1301 16.22C43.3367 15.9333 43.4734 15.6 43.5401 15.22ZM47.7874 10.6L46.4774 18H45.3374L46.6474 10.6H47.7874ZM51.3341 12.4C52.0208 12.4 52.5675 12.5933 52.9741 12.98C53.3875 13.3667 53.5941 13.8867 53.5941 14.54C53.5941 14.6933 53.5775 14.8767 53.5441 15.09C53.5175 15.2367 53.4708 15.4167 53.4041 15.63H49.1941C49.1875 15.6767 49.1841 15.7467 49.1841 15.84C49.1841 16.2333 49.3041 16.5467 49.5441 16.78C49.7908 17.0133 50.1108 17.13 50.5041 17.13C51.1241 17.13 51.6008 16.8733 51.9341 16.36H53.1641C52.9108 16.8667 52.5375 17.2833 52.0441 17.61C51.5508 17.93 50.9808 18.09 50.3341 18.09C49.8741 18.09 49.4708 18 49.1241 17.82C48.7775 17.64 48.5075 17.3833 48.3141 17.05C48.1208 16.71 48.0241 16.3133 48.0241 15.86C48.0241 15.6667 48.0441 15.46 48.0841 15.24C48.1841 14.6733 48.3875 14.1767 48.6941 13.75C49.0008 13.3167 49.3808 12.9833 49.8341 12.75C50.2941 12.5167 50.7941 12.4 51.3341 12.4ZM52.4041 14.81C52.4175 14.69 52.4241 14.6033 52.4241 14.55C52.4241 14.1833 52.3008 13.8933 52.0541 13.68C51.8141 13.4667 51.5008 13.36 51.1141 13.36C50.7075 13.36 50.3408 13.49 50.0141 13.75C49.6875 14.01 49.4641 14.3633 49.3441 14.81H52.4041ZM59.0541 15.97C58.7341 15.97 58.4707 15.87 58.2641 15.67C58.0641 15.47 57.9641 15.2167 57.9641 14.91C57.9641 14.63 58.0374 14.3733 58.1841 14.14C58.3307 13.9 58.5241 13.71 58.7641 13.57C59.0041 13.43 59.2541 13.36 59.5141 13.36C59.8407 13.36 60.1074 13.46 60.3141 13.66C60.5207 13.86 60.6241 14.1167 60.6241 14.43C60.6241 14.7033 60.5507 14.96 60.4041 15.2C60.2574 15.4333 60.0607 15.62 59.8141 15.76C59.5741 15.9 59.3207 15.97 59.0541 15.97ZM66.7313 13.3C66.9713 13.0467 67.2713 12.8333 67.6313 12.66C67.9979 12.4867 68.3913 12.4 68.8113 12.4C69.2313 12.4 69.6046 12.49 69.9313 12.67C70.2579 12.85 70.5113 13.1067 70.6913 13.44C70.8713 13.7733 70.9613 14.1633 70.9613 14.61C70.9613 14.8033 70.9413 15.0067 70.9013 15.22C70.8013 15.7733 70.5979 16.27 70.2913 16.71C69.9913 17.1433 69.6213 17.4833 69.1813 17.73C68.7479 17.97 68.2913 18.09 67.8113 18.09C67.3913 18.09 67.0313 18.0067 66.7313 17.84C66.4379 17.6667 66.2079 17.4533 66.0413 17.2L65.4413 20.62H64.3012L65.7313 12.49H66.8713L66.7313 13.3ZM69.7413 15.22C69.7679 15.0933 69.7813 14.9567 69.7813 14.81C69.7813 14.3633 69.6479 14.0167 69.3813 13.77C69.1213 13.5167 68.7913 13.39 68.3913 13.39C68.1046 13.39 67.8179 13.4633 67.5313 13.61C67.2513 13.7567 67.0079 13.97 66.8013 14.25C66.5946 14.53 66.4579 14.86 66.3913 15.24C66.3646 15.3667 66.3513 15.5033 66.3513 15.65C66.3513 16.0967 66.4813 16.45 66.7413 16.71C67.0079 16.97 67.3379 17.1 67.7313 17.1C68.0246 17.1 68.3113 17.0267 68.5913 16.88C68.8779 16.7267 69.1246 16.5067 69.3313 16.22C69.5379 15.9333 69.6746 15.6 69.7413 15.22ZM71.6486 15.22C71.7486 14.6667 71.9486 14.1767 72.2486 13.75C72.5553 13.3233 72.9286 12.9933 73.3686 12.76C73.8086 12.52 74.2686 12.4 74.7486 12.4C75.1819 12.4 75.5453 12.4867 75.8386 12.66C76.1319 12.8267 76.3519 13.0367 76.4986 13.29L76.6386 12.49H77.7886L76.8186 18H75.6686L75.8186 17.18C75.5786 17.44 75.2753 17.6567 74.9086 17.83C74.5486 18.0033 74.1553 18.09 73.7286 18.09C73.3153 18.09 72.9453 17.9967 72.6186 17.81C72.2986 17.6233 72.0453 17.36 71.8586 17.02C71.6786 16.6733 71.5886 16.2767 71.5886 15.83C71.5886 15.63 71.6086 15.4267 71.6486 15.22ZM76.1586 15.24C76.1853 15.1133 76.1986 14.9767 76.1986 14.83C76.1986 14.3833 76.0653 14.0333 75.7986 13.78C75.5386 13.52 75.2119 13.39 74.8186 13.39C74.5253 13.39 74.2386 13.4633 73.9586 13.61C73.6786 13.75 73.4353 13.96 73.2286 14.24C73.0219 14.5133 72.8853 14.84 72.8186 15.22C72.7919 15.3467 72.7786 15.4833 72.7786 15.63C72.7786 16.0833 72.9086 16.4433 73.1686 16.71C73.4353 16.97 73.7653 17.1 74.1586 17.1C74.4519 17.1 74.7386 17.0267 75.0186 16.88C75.2986 16.7333 75.5419 16.52 75.7486 16.24C75.9553 15.9533 76.0919 15.62 76.1586 15.24ZM80.3459 18.09C79.9659 18.09 79.6193 18.0267 79.3059 17.9C78.9926 17.7667 78.7459 17.5833 78.5659 17.35C78.3859 17.11 78.2959 16.8367 78.2959 16.53C78.2959 16.4767 78.3026 16.4033 78.3159 16.31H79.4259C79.3993 16.5633 79.4759 16.7733 79.6559 16.94C79.8359 17.1067 80.0893 17.19 80.4159 17.19C80.7359 17.19 80.9993 17.1333 81.2059 17.02C81.4126 16.9067 81.5159 16.74 81.5159 16.52C81.5159 16.3333 81.4293 16.1833 81.2559 16.07C81.0893 15.9567 80.8193 15.83 80.4459 15.69C80.0926 15.55 79.8059 15.42 79.5859 15.3C79.3659 15.18 79.1759 15.0167 79.0159 14.81C78.8559 14.5967 78.7759 14.3333 78.7759 14.02C78.7759 13.7 78.8659 13.42 79.0459 13.18C79.2326 12.9333 79.4893 12.7433 79.8159 12.61C80.1493 12.47 80.5293 12.4 80.9559 12.4C81.3426 12.4 81.6859 12.4667 81.9859 12.6C82.2926 12.7267 82.5293 12.91 82.6959 13.15C82.8693 13.3833 82.9559 13.6533 82.9559 13.96C82.9559 14.0533 82.9526 14.1233 82.9459 14.17H81.8659C81.8926 13.91 81.8159 13.7 81.6359 13.54C81.4626 13.38 81.2126 13.3 80.8859 13.3C80.5993 13.3 80.3659 13.36 80.1859 13.48C80.0126 13.6 79.9259 13.7633 79.9259 13.97C79.9259 14.1767 80.0159 14.3433 80.1959 14.47C80.3759 14.59 80.6526 14.7233 81.0259 14.87C81.3659 15.0033 81.6426 15.13 81.8559 15.25C82.0693 15.37 82.2526 15.53 82.4059 15.73C82.5593 15.93 82.6359 16.18 82.6359 16.48C82.6359 16.8067 82.5359 17.0933 82.3359 17.34C82.1426 17.58 81.8726 17.7667 81.5259 17.9C81.1793 18.0267 80.7859 18.09 80.3459 18.09ZM85.6877 18.09C85.3077 18.09 84.9611 18.0267 84.6477 17.9C84.3344 17.7667 84.0877 17.5833 83.9077 17.35C83.7277 17.11 83.6377 16.8367 83.6377 16.53C83.6377 16.4767 83.6444 16.4033 83.6577 16.31H84.7677C84.7411 16.5633 84.8177 16.7733 84.9977 16.94C85.1777 17.1067 85.4311 17.19 85.7577 17.19C86.0777 17.19 86.3411 17.1333 86.5477 17.02C86.7544 16.9067 86.8577 16.74 86.8577 16.52C86.8577 16.3333 86.7711 16.1833 86.5977 16.07C86.4311 15.9567 86.1611 15.83 85.7877 15.69C85.4344 15.55 85.1477 15.42 84.9277 15.3C84.7077 15.18 84.5177 15.0167 84.3577 14.81C84.1977 14.5967 84.1177 14.3333 84.1177 14.02C84.1177 13.7 84.2077 13.42 84.3877 13.18C84.5744 12.9333 84.8311 12.7433 85.1577 12.61C85.4911 12.47 85.8711 12.4 86.2977 12.4C86.6844 12.4 87.0277 12.4667 87.3277 12.6C87.6344 12.7267 87.8711 12.91 88.0377 13.15C88.2111 13.3833 88.2977 13.6533 88.2977 13.96C88.2977 14.0533 88.2944 14.1233 88.2877 14.17H87.2077C87.2344 13.91 87.1577 13.7 86.9777 13.54C86.8044 13.38 86.5544 13.3 86.2277 13.3C85.9411 13.3 85.7077 13.36 85.5277 13.48C85.3544 13.6 85.2677 13.7633 85.2677 13.97C85.2677 14.1767 85.3577 14.3433 85.5377 14.47C85.7177 14.59 85.9944 14.7233 86.3677 14.87C86.7077 15.0033 86.9844 15.13 87.1977 15.25C87.4111 15.37 87.5944 15.53 87.7477 15.73C87.9011 15.93 87.9777 16.18 87.9777 16.48C87.9777 16.8067 87.8777 17.0933 87.6777 17.34C87.4844 17.58 87.2144 17.7667 86.8677 17.9C86.5211 18.0267 86.1277 18.09 85.6877 18.09ZM97.3695 12.49L94.6895 18H93.4895L93.1095 13.93L91.2695 18H90.0695L89.3195 12.49H90.4795L90.8595 16.92L92.7995 12.49H93.9895L94.3395 16.9L96.2495 12.49H97.3695ZM99.6615 18.09C99.1948 18.09 98.7848 17.9933 98.4315 17.8C98.0782 17.6067 97.8015 17.3333 97.6015 16.98C97.4082 16.6267 97.3115 16.2233 97.3115 15.77C97.3115 15.15 97.4548 14.5833 97.7415 14.07C98.0348 13.5567 98.4348 13.15 98.9415 12.85C99.4548 12.55 100.025 12.4 100.651 12.4C101.118 12.4 101.531 12.5 101.891 12.7C102.251 12.8933 102.531 13.1667 102.731 13.52C102.938 13.8667 103.041 14.27 103.041 14.73C103.041 15.35 102.891 15.9167 102.591 16.43C102.291 16.9433 101.885 17.35 101.371 17.65C100.858 17.9433 100.288 18.09 99.6615 18.09ZM99.8015 17.13C100.181 17.13 100.528 17.0233 100.841 16.81C101.161 16.59 101.411 16.3033 101.591 15.95C101.771 15.59 101.861 15.2067 101.861 14.8C101.861 14.34 101.731 13.9867 101.471 13.74C101.211 13.4867 100.885 13.36 100.491 13.36C100.105 13.36 99.7582 13.47 99.4515 13.69C99.1515 13.9033 98.9148 14.1933 98.7415 14.56C98.5748 14.92 98.4915 15.3067 98.4915 15.72C98.4915 16.1667 98.6115 16.5133 98.8515 16.76C99.0982 17.0067 99.4148 17.13 99.8015 17.13ZM105.568 13.46C105.795 13.1267 106.062 12.8667 106.368 12.68C106.682 12.4933 107.028 12.4 107.408 12.4L107.198 13.58H106.908C106.468 13.58 106.115 13.69 105.848 13.91C105.582 14.13 105.395 14.51 105.288 15.05L104.768 18H103.628L104.598 12.49H105.738L105.568 13.46ZM107.576 15.22C107.676 14.6667 107.876 14.1767 108.176 13.75C108.483 13.3233 108.856 12.9933 109.296 12.76C109.736 12.52 110.2 12.4 110.686 12.4C111.046 12.4 111.386 12.48 111.706 12.64C112.026 12.7933 112.27 13 112.436 13.26L112.906 10.6H114.056L112.746 18H111.596L111.746 17.17C111.506 17.4433 111.206 17.6667 110.846 17.84C110.493 18.0067 110.103 18.09 109.676 18.09C109.256 18.09 108.883 17.9967 108.556 17.81C108.23 17.6233 107.973 17.36 107.786 17.02C107.606 16.6733 107.516 16.2767 107.516 15.83C107.516 15.63 107.536 15.4267 107.576 15.22ZM112.086 15.24C112.113 15.1133 112.126 14.9767 112.126 14.83C112.126 14.3833 111.993 14.0333 111.726 13.78C111.466 13.52 111.14 13.39 110.746 13.39C110.453 13.39 110.166 13.4633 109.886 13.61C109.606 13.75 109.363 13.96 109.156 14.24C108.95 14.5133 108.813 14.84 108.746 15.22C108.72 15.3467 108.706 15.4833 108.706 15.63C108.706 16.0833 108.836 16.4433 109.096 16.71C109.363 16.97 109.693 17.1 110.086 17.1C110.38 17.1 110.666 17.0267 110.946 16.88C111.226 16.7333 111.47 16.52 111.676 16.24C111.883 15.9533 112.02 15.62 112.086 15.24ZM118.832 12.49L119.642 16.69L121.992 12.49H123.172L118.372 20.59H117.192L118.782 17.91L117.562 12.49H118.832ZM126.422 12.4C127.109 12.4 127.655 12.5933 128.062 12.98C128.475 13.3667 128.682 13.8867 128.682 14.54C128.682 14.6933 128.665 14.8767 128.632 15.09C128.605 15.2367 128.559 15.4167 128.492 15.63H124.282C124.275 15.6767 124.272 15.7467 124.272 15.84C124.272 16.2333 124.392 16.5467 124.632 16.78C124.879 17.0133 125.199 17.13 125.592 17.13C126.212 17.13 126.689 16.8733 127.022 16.36H128.252C127.999 16.8667 127.625 17.2833 127.132 17.61C126.639 17.93 126.069 18.09 125.422 18.09C124.962 18.09 124.559 18 124.212 17.82C123.865 17.64 123.595 17.3833 123.402 17.05C123.209 16.71 123.112 16.3133 123.112 15.86C123.112 15.6667 123.132 15.46 123.172 15.24C123.272 14.6733 123.475 14.1767 123.782 13.75C124.089 13.3167 124.469 12.9833 124.922 12.75C125.382 12.5167 125.882 12.4 126.422 12.4ZM127.492 14.81C127.505 14.69 127.512 14.6033 127.512 14.55C127.512 14.1833 127.389 13.8933 127.142 13.68C126.902 13.4667 126.589 13.36 126.202 13.36C125.795 13.36 125.429 13.49 125.102 13.75C124.775 14.01 124.552 14.3633 124.432 14.81H127.492ZM131.264 18.09C130.884 18.09 130.537 18.0267 130.224 17.9C129.911 17.7667 129.664 17.5833 129.484 17.35C129.304 17.11 129.214 16.8367 129.214 16.53C129.214 16.4767 129.221 16.4033 129.234 16.31H130.344C130.317 16.5633 130.394 16.7733 130.574 16.94C130.754 17.1067 131.007 17.19 131.334 17.19C131.654 17.19 131.917 17.1333 132.124 17.02C132.331 16.9067 132.434 16.74 132.434 16.52C132.434 16.3333 132.347 16.1833 132.174 16.07C132.007 15.9567 131.737 15.83 131.364 15.69C131.011 15.55 130.724 15.42 130.504 15.3C130.284 15.18 130.094 15.0167 129.934 14.81C129.774 14.5967 129.694 14.3333 129.694 14.02C129.694 13.7 129.784 13.42 129.964 13.18C130.151 12.9333 130.407 12.7433 130.734 12.61C131.067 12.47 131.447 12.4 131.874 12.4C132.261 12.4 132.604 12.4667 132.904 12.6C133.211 12.7267 133.447 12.91 133.614 13.15C133.787 13.3833 133.874 13.6533 133.874 13.96C133.874 14.0533 133.871 14.1233 133.864 14.17H132.784C132.811 13.91 132.734 13.7 132.554 13.54C132.381 13.38 132.131 13.3 131.804 13.3C131.517 13.3 131.284 13.36 131.104 13.48C130.931 13.6 130.844 13.7633 130.844 13.97C130.844 14.1767 130.934 14.3433 131.114 14.47C131.294 14.59 131.571 14.7233 131.944 14.87C132.284 15.0033 132.561 15.13 132.774 15.25C132.987 15.37 133.171 15.53 133.324 15.73C133.477 15.93 133.554 16.18 133.554 16.48C133.554 16.8067 133.454 17.0933 133.254 17.34C133.061 17.58 132.791 17.7667 132.444 17.9C132.097 18.0267 131.704 18.09 131.264 18.09ZM139.544 13.3C139.784 13.0467 140.084 12.8333 140.444 12.66C140.81 12.4867 141.204 12.4 141.624 12.4C142.044 12.4 142.417 12.49 142.744 12.67C143.07 12.85 143.324 13.1067 143.504 13.44C143.684 13.7733 143.774 14.1633 143.774 14.61C143.774 14.8033 143.754 15.0067 143.714 15.22C143.614 15.7733 143.41 16.27 143.104 16.71C142.804 17.1433 142.434 17.4833 141.994 17.73C141.56 17.97 141.104 18.09 140.624 18.09C140.204 18.09 139.844 18.0067 139.544 17.84C139.25 17.6667 139.02 17.4533 138.854 17.2L138.254 20.62H137.114L138.544 12.49H139.684L139.544 13.3ZM142.554 15.22C142.58 15.0933 142.594 14.9567 142.594 14.81C142.594 14.3633 142.46 14.0167 142.194 13.77C141.934 13.5167 141.604 13.39 141.204 13.39C140.917 13.39 140.63 13.4633 140.344 13.61C140.064 13.7567 139.82 13.97 139.614 14.25C139.407 14.53 139.27 14.86 139.204 15.24C139.177 15.3667 139.164 15.5033 139.164 15.65C139.164 16.0967 139.294 16.45 139.554 16.71C139.82 16.97 140.15 17.1 140.544 17.1C140.837 17.1 141.124 17.0267 141.404 16.88C141.69 16.7267 141.937 16.5067 142.144 16.22C142.35 15.9333 142.487 15.6 142.554 15.22ZM144.331 16.48L144.481 15.62L148.691 10.8H150.071L149.251 15.49H150.181L150.001 16.48H149.071L148.801 18H147.681L147.951 16.48H144.331ZM148.801 11.96L145.821 15.49H148.181L148.801 11.96ZM152.856 18.09C152.476 18.09 152.129 18.0267 151.816 17.9C151.502 17.7667 151.256 17.5833 151.076 17.35C150.896 17.11 150.806 16.8367 150.806 16.53C150.806 16.4767 150.812 16.4033 150.826 16.31H151.936C151.909 16.5633 151.986 16.7733 152.166 16.94C152.346 17.1067 152.599 17.19 152.926 17.19C153.246 17.19 153.509 17.1333 153.716 17.02C153.922 16.9067 154.026 16.74 154.026 16.52C154.026 16.3333 153.939 16.1833 153.766 16.07C153.599 15.9567 153.329 15.83 152.956 15.69C152.602 15.55 152.316 15.42 152.096 15.3C151.876 15.18 151.686 15.0167 151.526 14.81C151.366 14.5967 151.286 14.3333 151.286 14.02C151.286 13.7 151.376 13.42 151.556 13.18C151.742 12.9333 151.999 12.7433 152.326 12.61C152.659 12.47 153.039 12.4 153.466 12.4C153.852 12.4 154.196 12.4667 154.496 12.6C154.802 12.7267 155.039 12.91 155.206 13.15C155.379 13.3833 155.466 13.6533 155.466 13.96C155.466 14.0533 155.462 14.1233 155.456 14.17H154.376C154.402 13.91 154.326 13.7 154.146 13.54C153.972 13.38 153.722 13.3 153.396 13.3C153.109 13.3 152.876 13.36 152.696 13.48C152.522 13.6 152.436 13.7633 152.436 13.97C152.436 14.1767 152.526 14.3433 152.706 14.47C152.886 14.59 153.162 14.7233 153.536 14.87C153.876 15.0033 154.152 15.13 154.366 15.25C154.579 15.37 154.762 15.53 154.916 15.73C155.069 15.93 155.146 16.18 155.146 16.48C155.146 16.8067 155.046 17.0933 154.846 17.34C154.652 17.58 154.382 17.7667 154.036 17.9C153.689 18.0267 153.296 18.09 152.856 18.09ZM158.198 18.09C157.818 18.09 157.471 18.0267 157.158 17.9C156.844 17.7667 156.598 17.5833 156.418 17.35C156.238 17.11 156.148 16.8367 156.148 16.53C156.148 16.4767 156.154 16.4033 156.168 16.31H157.278C157.251 16.5633 157.328 16.7733 157.508 16.94C157.688 17.1067 157.941 17.19 158.268 17.19C158.588 17.19 158.851 17.1333 159.058 17.02C159.264 16.9067 159.368 16.74 159.368 16.52C159.368 16.3333 159.281 16.1833 159.108 16.07C158.941 15.9567 158.671 15.83 158.298 15.69C157.944 15.55 157.658 15.42 157.438 15.3C157.218 15.18 157.028 15.0167 156.868 14.81C156.708 14.5967 156.628 14.3333 156.628 14.02C156.628 13.7 156.718 13.42 156.898 13.18C157.084 12.9333 157.341 12.7433 157.668 12.61C158.001 12.47 158.381 12.4 158.808 12.4C159.194 12.4 159.538 12.4667 159.838 12.6C160.144 12.7267 160.381 12.91 160.548 13.15C160.721 13.3833 160.808 13.6533 160.808 13.96C160.808 14.0533 160.804 14.1233 160.798 14.17H159.718C159.744 13.91 159.668 13.7 159.488 13.54C159.314 13.38 159.064 13.3 158.738 13.3C158.451 13.3 158.218 13.36 158.038 13.48C157.864 13.6 157.778 13.7633 157.778 13.97C157.778 14.1767 157.868 14.3433 158.048 14.47C158.228 14.59 158.504 14.7233 158.877 14.87C159.218 15.0033 159.494 15.13 159.708 15.25C159.921 15.37 160.104 15.53 160.258 15.73C160.411 15.93 160.488 16.18 160.488 16.48C160.488 16.8067 160.388 17.0933 160.188 17.34C159.994 17.58 159.724 17.7667 159.378 17.9C159.031 18.0267 158.638 18.09 158.198 18.09ZM169.879 12.49L167.199 18H165.999L165.619 13.93L163.779 18H162.579L161.829 12.49H162.989L163.369 16.92L165.309 12.49H166.499L166.849 16.9L168.759 12.49H169.879ZM170.261 14.34C170.461 13.2133 170.811 12.3267 171.311 11.68C171.818 11.0333 172.548 10.71 173.501 10.71C174.241 10.71 174.775 10.9133 175.101 11.32C175.428 11.72 175.591 12.28 175.591 13C175.591 13.3867 175.548 13.8333 175.461 14.34C175.261 15.4733 174.908 16.3633 174.401 17.01C173.901 17.6567 173.175 17.98 172.221 17.98C171.481 17.98 170.948 17.78 170.621 17.38C170.295 16.9733 170.131 16.4067 170.131 15.68C170.131 15.3067 170.175 14.86 170.261 14.34ZM174.341 14.34C174.428 13.8067 174.471 13.3933 174.471 13.1C174.471 12.6733 174.385 12.3433 174.211 12.11C174.038 11.87 173.741 11.75 173.321 11.75C172.901 11.75 172.561 11.8667 172.301 12.1C172.048 12.3333 171.855 12.6333 171.721 13C171.588 13.3667 171.475 13.8133 171.381 14.34C171.288 14.8533 171.241 15.2667 171.241 15.58C171.241 16.0133 171.328 16.35 171.501 16.59C171.675 16.8233 171.975 16.94 172.401 16.94C172.821 16.94 173.158 16.8233 173.411 16.59C173.671 16.3567 173.868 16.0567 174.001 15.69C174.135 15.3233 174.248 14.8733 174.341 14.34ZM178.108 13.46C178.334 13.1267 178.601 12.8667 178.908 12.68C179.221 12.4933 179.568 12.4 179.948 12.4L179.738 13.58H179.448C179.008 13.58 178.654 13.69 178.388 13.91C178.121 14.13 177.934 14.51 177.828 15.05L177.308 18H176.168L177.138 12.49H178.278L178.108 13.46ZM180.115 15.22C180.215 14.6667 180.415 14.1767 180.715 13.75C181.022 13.3233 181.395 12.9933 181.835 12.76C182.275 12.52 182.739 12.4 183.225 12.4C183.585 12.4 183.925 12.48 184.245 12.64C184.565 12.7933 184.809 13 184.975 13.26L185.445 10.6H186.595L185.285 18H184.135L184.285 17.17C184.045 17.4433 183.745 17.6667 183.385 17.84C183.032 18.0067 182.642 18.09 182.215 18.09C181.795 18.09 181.422 17.9967 181.095 17.81C180.769 17.6233 180.512 17.36 180.325 17.02C180.145 16.6733 180.055 16.2767 180.055 15.83C180.055 15.63 180.075 15.4267 180.115 15.22ZM184.625 15.24C184.652 15.1133 184.665 14.9767 184.665 14.83C184.665 14.3833 184.532 14.0333 184.265 13.78C184.005 13.52 183.679 13.39 183.285 13.39C182.992 13.39 182.705 13.4633 182.425 13.61C182.145 13.75 181.902 13.96 181.695 14.24C181.489 14.5133 181.352 14.84 181.285 15.22C181.259 15.3467 181.245 15.4833 181.245 15.63C181.245 16.0833 181.375 16.4433 181.635 16.71C181.902 16.97 182.232 17.1 182.625 17.1C182.919 17.1 183.205 17.0267 183.485 16.88C183.765 16.7333 184.009 16.52 184.215 16.24C184.422 15.9533 184.559 15.62 184.625 15.24Z" fill="white" fill-opacity="0.5"/>
</svg>
