<svg xmlns="http://www.w3.org/2000/svg" fill="none" viewBox="0 0 480 360" height="360" width="480">
<path fill="#191919" d="M310 180C310 141.34 278.66 110 240 110C201.34 110 170 141.34 170 180C170 218.66 201.34 250 240 250C278.66 250 310 218.66 310 180Z"></path>
<path fill="url(#paint0_linear_601_4)" d="M247.884 171.194C246.279 168.413 247.231 164.857 250.012 163.252V163.252C252.793 161.646 256.349 162.599 257.954 165.38L267.162 181.328C274.419 193.897 270.112 209.969 257.543 217.225L256.665 217.732C245.804 224.003 231.917 220.282 225.646 209.421V209.421C219.591 198.933 223.185 185.522 233.673 179.467L237.239 177.408C240.048 175.786 243.64 176.749 245.261 179.558V179.558C246.883 182.367 245.921 185.959 243.112 187.58L238.733 190.108C234.255 192.694 232.721 198.419 235.306 202.897V202.897C238.56 208.532 245.765 210.462 251.4 207.209L251.828 206.962C258.748 202.966 261.119 194.118 257.124 187.198L247.884 171.194Z"></path>
<path fill="url(#paint1_linear_601_4)" d="M202.937 170.086C201.315 167.277 202.277 163.685 205.086 162.063L238.215 142.937C241.024 141.315 244.616 142.277 246.238 145.086V145.086C247.86 147.895 246.897 151.487 244.088 153.109L210.959 172.236C208.15 173.858 204.558 172.895 202.937 170.086V170.086Z"></path>
<defs>
<linearGradient gradientUnits="userSpaceOnUse" y2="221.993" x2="232.325" y1="143.671" x1="260.365" id="paint0_linear_601_4">
<stop stop-color="#FF0000"></stop>
<stop stop-color="#FF00FF" offset="1"></stop>
</linearGradient>
<linearGradient gradientUnits="userSpaceOnUse" y2="221.993" x2="232.325" y1="143.671" x1="260.365" id="paint1_linear_601_4">
<stop stop-color="#FF0000"></stop>
<stop stop-color="#FF00FF" offset="1"></stop>
</linearGradient>
</defs>
</svg>
