<svg width="250" height="28" viewBox="0 0 250 28" fill="none" xmlns="http://www.w3.org/2000/svg">
<rect width="250" height="28" rx="5" fill="#E6E6E6"/>
<path d="M13.56 8.66V9.6H12.55V18.91H13.56V19.86H11.48V8.66H13.56ZM22.2735 12.4C22.7068 12.4 23.0935 12.49 23.4335 12.67C23.7802 12.85 24.0502 13.1167 24.2435 13.47C24.4435 13.8233 24.5435 14.25 24.5435 14.75V18H23.4135V14.92C23.4135 14.4267 23.2902 14.05 23.0435 13.79C22.7968 13.5233 22.4602 13.39 22.0335 13.39C21.6068 13.39 21.2668 13.5233 21.0135 13.79C20.7668 14.05 20.6435 14.4267 20.6435 14.92V18H19.5135V14.92C19.5135 14.4267 19.3902 14.05 19.1435 13.79C18.8968 13.5233 18.5602 13.39 18.1335 13.39C17.7068 13.39 17.3668 13.5233 17.1135 13.79C16.8668 14.05 16.7435 14.4267 16.7435 14.92V18H15.6035V12.49H16.7435V13.12C16.9302 12.8933 17.1668 12.7167 17.4535 12.59C17.7402 12.4633 18.0468 12.4 18.3735 12.4C18.8135 12.4 19.2068 12.4933 19.5535 12.68C19.9002 12.8667 20.1668 13.1367 20.3535 13.49C20.5202 13.1567 20.7802 12.8933 21.1335 12.7C21.4868 12.5 21.8668 12.4 22.2735 12.4ZM30.9841 12.49V18H29.8441V17.35C29.6641 17.5767 29.4275 17.7567 29.1341 17.89C28.8475 18.0167 28.5408 18.08 28.2141 18.08C27.7808 18.08 27.3908 17.99 27.0441 17.81C26.7041 17.63 26.4341 17.3633 26.2341 17.01C26.0408 16.6567 25.9441 16.23 25.9441 15.73V12.49H27.0741V15.56C27.0741 16.0533 27.1975 16.4333 27.4441 16.7C27.6908 16.96 28.0275 17.09 28.4541 17.09C28.8808 17.09 29.2175 16.96 29.4641 16.7C29.7175 16.4333 29.8441 16.0533 29.8441 15.56V12.49H30.9841ZM34.4883 18.09C34.0549 18.09 33.6649 18.0133 33.3183 17.86C32.9783 17.7 32.7083 17.4867 32.5083 17.22C32.3083 16.9467 32.2016 16.6433 32.1883 16.31H33.3683C33.3883 16.5433 33.4983 16.74 33.6983 16.9C33.9049 17.0533 34.1616 17.13 34.4683 17.13C34.7883 17.13 35.0349 17.07 35.2083 16.95C35.3883 16.8233 35.4783 16.6633 35.4783 16.47C35.4783 16.2633 35.3783 16.11 35.1783 16.01C34.9849 15.91 34.6749 15.8 34.2483 15.68C33.8349 15.5667 33.4983 15.4567 33.2383 15.35C32.9783 15.2433 32.7516 15.08 32.5583 14.86C32.3716 14.64 32.2783 14.35 32.2783 13.99C32.2783 13.6967 32.3649 13.43 32.5383 13.19C32.7116 12.9433 32.9583 12.75 33.2783 12.61C33.6049 12.47 33.9783 12.4 34.3983 12.4C35.0249 12.4 35.5283 12.56 35.9083 12.88C36.2949 13.1933 36.5016 13.6233 36.5283 14.17H35.3883C35.3683 13.9233 35.2683 13.7267 35.0883 13.58C34.9083 13.4333 34.6649 13.36 34.3583 13.36C34.0583 13.36 33.8283 13.4167 33.6683 13.53C33.5083 13.6433 33.4283 13.7933 33.4283 13.98C33.4283 14.1267 33.4816 14.25 33.5883 14.35C33.6949 14.45 33.8249 14.53 33.9783 14.59C34.1316 14.6433 34.3583 14.7133 34.6583 14.8C35.0583 14.9067 35.3849 15.0167 35.6383 15.13C35.8983 15.2367 36.1216 15.3967 36.3083 15.61C36.4949 15.8233 36.5916 16.1067 36.5983 16.46C36.5983 16.7733 36.5116 17.0533 36.3383 17.3C36.1649 17.5467 35.9183 17.74 35.5983 17.88C35.2849 18.02 34.9149 18.09 34.4883 18.09ZM38.4101 11.76C38.2034 11.76 38.0301 11.69 37.8901 11.55C37.7501 11.41 37.6801 11.2367 37.6801 11.03C37.6801 10.8233 37.7501 10.65 37.8901 10.51C38.0301 10.37 38.2034 10.3 38.4101 10.3C38.6101 10.3 38.7801 10.37 38.9201 10.51C39.0601 10.65 39.1301 10.8233 39.1301 11.03C39.1301 11.2367 39.0601 11.41 38.9201 11.55C38.7801 11.69 38.6101 11.76 38.4101 11.76ZM38.9701 12.49V18H37.8301V12.49H38.9701ZM40.0868 15.24C40.0868 14.6733 40.2001 14.1767 40.4268 13.75C40.6601 13.3167 40.9801 12.9833 41.3868 12.75C41.7935 12.5167 42.2601 12.4 42.7868 12.4C43.4535 12.4 44.0035 12.56 44.4368 12.88C44.8768 13.1933 45.1735 13.6433 45.3268 14.23H44.0968C43.9968 13.9567 43.8368 13.7433 43.6168 13.59C43.3968 13.4367 43.1201 13.36 42.7868 13.36C42.3201 13.36 41.9468 13.5267 41.6668 13.86C41.3935 14.1867 41.2568 14.6467 41.2568 15.24C41.2568 15.8333 41.3935 16.2967 41.6668 16.63C41.9468 16.9633 42.3201 17.13 42.7868 17.13C43.4468 17.13 43.8835 16.84 44.0968 16.26H45.3268C45.1668 16.82 44.8668 17.2667 44.4268 17.6C43.9868 17.9267 43.4401 18.09 42.7868 18.09C42.2601 18.09 41.7935 17.9733 41.3868 17.74C40.9801 17.5 40.6601 17.1667 40.4268 16.74C40.2001 16.3067 40.0868 15.8067 40.0868 15.24ZM51.8405 12.4C52.2739 12.4 52.6605 12.49 53.0005 12.67C53.3472 12.85 53.6172 13.1167 53.8105 13.47C54.0039 13.8233 54.1005 14.25 54.1005 14.75V18H52.9705V14.92C52.9705 14.4267 52.8472 14.05 52.6005 13.79C52.3539 13.5233 52.0172 13.39 51.5905 13.39C51.1639 13.39 50.8239 13.5233 50.5705 13.79C50.3239 14.05 50.2005 14.4267 50.2005 14.92V18H49.0605V12.49H50.2005V13.12C50.3872 12.8933 50.6239 12.7167 50.9105 12.59C51.2039 12.4633 51.5139 12.4 51.8405 12.4ZM55.1747 15.22C55.1747 14.6667 55.288 14.1767 55.5147 13.75C55.748 13.3233 56.0614 12.9933 56.4547 12.76C56.8547 12.52 57.2947 12.4 57.7747 12.4C58.208 12.4 58.5847 12.4867 58.9047 12.66C59.2314 12.8267 59.4914 13.0367 59.6847 13.29V12.49H60.8347V18H59.6847V17.18C59.4914 17.44 59.228 17.6567 58.8947 17.83C58.5614 18.0033 58.1814 18.09 57.7547 18.09C57.2814 18.09 56.848 17.97 56.4547 17.73C56.0614 17.4833 55.748 17.1433 55.5147 16.71C55.288 16.27 55.1747 15.7733 55.1747 15.22ZM59.6847 15.24C59.6847 14.86 59.6047 14.53 59.4447 14.25C59.2914 13.97 59.088 13.7567 58.8347 13.61C58.5814 13.4633 58.308 13.39 58.0147 13.39C57.7214 13.39 57.448 13.4633 57.1947 13.61C56.9414 13.75 56.7347 13.96 56.5747 14.24C56.4214 14.5133 56.3447 14.84 56.3447 15.22C56.3447 15.6 56.4214 15.9333 56.5747 16.22C56.7347 16.5067 56.9414 16.7267 57.1947 16.88C57.4547 17.0267 57.728 17.1 58.0147 17.1C58.308 17.1 58.5814 17.0267 58.8347 16.88C59.088 16.7333 59.2914 16.52 59.4447 16.24C59.6047 15.9533 59.6847 15.62 59.6847 15.24ZM69.002 12.4C69.4354 12.4 69.822 12.49 70.162 12.67C70.5087 12.85 70.7787 13.1167 70.972 13.47C71.172 13.8233 71.272 14.25 71.272 14.75V18H70.142V14.92C70.142 14.4267 70.0187 14.05 69.772 13.79C69.5254 13.5233 69.1887 13.39 68.762 13.39C68.3354 13.39 67.9954 13.5233 67.742 13.79C67.4954 14.05 67.372 14.4267 67.372 14.92V18H66.242V14.92C66.242 14.4267 66.1187 14.05 65.872 13.79C65.6254 13.5233 65.2887 13.39 64.862 13.39C64.4354 13.39 64.0954 13.5233 63.842 13.79C63.5954 14.05 63.472 14.4267 63.472 14.92V18H62.332V12.49H63.472V13.12C63.6587 12.8933 63.8954 12.7167 64.182 12.59C64.4687 12.4633 64.7754 12.4 65.102 12.4C65.542 12.4 65.9354 12.4933 66.282 12.68C66.6287 12.8667 66.8954 13.1367 67.082 13.49C67.2487 13.1567 67.5087 12.8933 67.862 12.7C68.2154 12.5 68.5954 12.4 69.002 12.4ZM77.7727 15.11C77.7727 15.3167 77.7593 15.5033 77.7327 15.67H73.5227C73.556 16.11 73.7193 16.4633 74.0127 16.73C74.306 16.9967 74.666 17.13 75.0927 17.13C75.706 17.13 76.1393 16.8733 76.3927 16.36H77.6227C77.456 16.8667 77.1527 17.2833 76.7127 17.61C76.2793 17.93 75.7393 18.09 75.0927 18.09C74.566 18.09 74.0927 17.9733 73.6727 17.74C73.2593 17.5 72.9327 17.1667 72.6927 16.74C72.4593 16.3067 72.3427 15.8067 72.3427 15.24C72.3427 14.6733 72.456 14.1767 72.6827 13.75C72.916 13.3167 73.2393 12.9833 73.6527 12.75C74.0727 12.5167 74.5527 12.4 75.0927 12.4C75.6127 12.4 76.076 12.5133 76.4827 12.74C76.8893 12.9667 77.206 13.2867 77.4327 13.7C77.6593 14.1067 77.7727 14.5767 77.7727 15.11ZM76.5827 14.75C76.576 14.33 76.426 13.9933 76.1327 13.74C75.8393 13.4867 75.476 13.36 75.0427 13.36C74.6493 13.36 74.3127 13.4867 74.0327 13.74C73.7527 13.9867 73.586 14.3233 73.5327 14.75H76.5827ZM81.5045 19.86H79.4245V18.91H80.4345V9.6H79.4245V8.66H81.5045V19.86Z" fill="black"/>
</svg>
