<svg width="480" height="360" viewBox="0 0 480 360" fill="none" xmlns="http://www.w3.org/2000/svg">
<rect x="290" y="150" width="180" height="120" rx="15" fill="white" fill-opacity="0.5"/>
<path d="M377 200H383C384.105 200 385 200.895 385 202V208C385 209.105 384.105 210 383 210H377C375.895 210 375 209.105 375 208V202C375 200.895 375.895 200 377 200Z" stroke="black" stroke-width="2"/>
<path d="M416.53 200.26L422.756 204.152C423.383 204.544 423.383 205.456 422.756 205.848L416.53 209.74C415.864 210.156 415 209.677 415 208.892V201.108C415 200.323 415.864 199.844 416.53 200.26Z" stroke="black" stroke-width="2"/>
<rect x="424" y="199" width="2" height="12" rx="1" fill="black"/>
<path d="M343.47 209.74L337.244 205.848C336.617 205.456 336.617 204.544 337.244 204.152L343.47 200.26C344.136 199.844 345 200.323 345 201.108L345 208.892C345 209.677 344.136 210.156 343.47 209.74Z" stroke="black" stroke-width="2"/>
<rect x="336" y="211" width="2" height="12" rx="1" transform="rotate(180 336 211)" fill="black"/>
<path d="M338.949 167.51C338.949 166.83 339.106 166.22 339.419 165.68C339.739 165.14 340.169 164.72 340.709 164.42C341.256 164.113 341.852 163.96 342.499 163.96C343.239 163.96 343.896 164.143 344.469 164.51C345.049 164.87 345.469 165.383 345.729 166.05H344.359C344.179 165.683 343.929 165.41 343.609 165.23C343.289 165.05 342.919 164.96 342.499 164.96C342.039 164.96 341.629 165.063 341.269 165.27C340.909 165.477 340.626 165.773 340.419 166.16C340.219 166.547 340.119 166.997 340.119 167.51C340.119 168.023 340.219 168.473 340.419 168.86C340.626 169.247 340.909 169.547 341.269 169.76C341.629 169.967 342.039 170.07 342.499 170.07C342.919 170.07 343.289 169.98 343.609 169.8C343.929 169.62 344.179 169.347 344.359 168.98H345.729C345.469 169.647 345.049 170.16 344.469 170.52C343.896 170.88 343.239 171.06 342.499 171.06C341.846 171.06 341.249 170.91 340.709 170.61C340.169 170.303 339.739 169.88 339.419 169.34C339.106 168.8 338.949 168.19 338.949 167.51ZM346.683 168.22C346.683 167.667 346.797 167.177 347.023 166.75C347.257 166.323 347.57 165.993 347.963 165.76C348.363 165.52 348.803 165.4 349.283 165.4C349.717 165.4 350.093 165.487 350.413 165.66C350.74 165.827 351 166.037 351.193 166.29V165.49H352.343V171H351.193V170.18C351 170.44 350.737 170.657 350.403 170.83C350.07 171.003 349.69 171.09 349.263 171.09C348.79 171.09 348.357 170.97 347.963 170.73C347.57 170.483 347.257 170.143 347.023 169.71C346.797 169.27 346.683 168.773 346.683 168.22ZM351.193 168.24C351.193 167.86 351.113 167.53 350.953 167.25C350.8 166.97 350.597 166.757 350.343 166.61C350.09 166.463 349.817 166.39 349.523 166.39C349.23 166.39 348.957 166.463 348.703 166.61C348.45 166.75 348.243 166.96 348.083 167.24C347.93 167.513 347.853 167.84 347.853 168.22C347.853 168.6 347.93 168.933 348.083 169.22C348.243 169.507 348.45 169.727 348.703 169.88C348.963 170.027 349.237 170.1 349.523 170.1C349.817 170.1 350.09 170.027 350.343 169.88C350.597 169.733 350.8 169.52 350.953 169.24C351.113 168.953 351.193 168.62 351.193 168.24ZM356.621 165.4C357.054 165.4 357.441 165.49 357.781 165.67C358.127 165.85 358.397 166.117 358.591 166.47C358.784 166.823 358.881 167.25 358.881 167.75V171H357.751V167.92C357.751 167.427 357.627 167.05 357.381 166.79C357.134 166.523 356.797 166.39 356.371 166.39C355.944 166.39 355.604 166.523 355.351 166.79C355.104 167.05 354.981 167.427 354.981 167.92V171H353.841V165.49H354.981V166.12C355.167 165.893 355.404 165.717 355.691 165.59C355.984 165.463 356.294 165.4 356.621 165.4ZM368.083 164.05L365.783 168.48V171H364.643V168.48L362.333 164.05H363.603L365.213 167.46L366.823 164.05H368.083ZM371.377 171.09C370.857 171.09 370.387 170.973 369.967 170.74C369.547 170.5 369.217 170.167 368.977 169.74C368.737 169.307 368.617 168.807 368.617 168.24C368.617 167.68 368.741 167.183 368.987 166.75C369.234 166.317 369.571 165.983 369.997 165.75C370.424 165.517 370.901 165.4 371.427 165.4C371.954 165.4 372.431 165.517 372.857 165.75C373.284 165.983 373.621 166.317 373.867 166.75C374.114 167.183 374.237 167.68 374.237 168.24C374.237 168.8 374.111 169.297 373.857 169.73C373.604 170.163 373.257 170.5 372.817 170.74C372.384 170.973 371.904 171.09 371.377 171.09ZM371.377 170.1C371.671 170.1 371.944 170.03 372.197 169.89C372.457 169.75 372.667 169.54 372.827 169.26C372.987 168.98 373.067 168.64 373.067 168.24C373.067 167.84 372.991 167.503 372.837 167.23C372.684 166.95 372.481 166.74 372.227 166.6C371.974 166.46 371.701 166.39 371.407 166.39C371.114 166.39 370.841 166.46 370.587 166.6C370.341 166.74 370.144 166.95 369.997 167.23C369.851 167.503 369.777 167.84 369.777 168.24C369.777 168.833 369.927 169.293 370.227 169.62C370.534 169.94 370.917 170.1 371.377 170.1ZM380.354 165.49V171H379.214V170.35C379.034 170.577 378.798 170.757 378.504 170.89C378.218 171.017 377.911 171.08 377.584 171.08C377.151 171.08 376.761 170.99 376.414 170.81C376.074 170.63 375.804 170.363 375.604 170.01C375.411 169.657 375.314 169.23 375.314 168.73V165.49H376.444V168.56C376.444 169.053 376.568 169.433 376.814 169.7C377.061 169.96 377.398 170.09 377.824 170.09C378.251 170.09 378.588 169.96 378.834 169.7C379.088 169.433 379.214 169.053 379.214 168.56V165.49H380.354ZM388.546 164.05V164.98H385.596V167.03H387.896V167.96H385.596V171H384.456V164.05H388.546ZM394.653 168.11C394.653 168.317 394.639 168.503 394.613 168.67H390.403C390.436 169.11 390.599 169.463 390.893 169.73C391.186 169.997 391.546 170.13 391.973 170.13C392.586 170.13 393.019 169.873 393.273 169.36H394.503C394.336 169.867 394.033 170.283 393.593 170.61C393.159 170.93 392.619 171.09 391.973 171.09C391.446 171.09 390.973 170.973 390.553 170.74C390.139 170.5 389.813 170.167 389.573 169.74C389.339 169.307 389.223 168.807 389.223 168.24C389.223 167.673 389.336 167.177 389.563 166.75C389.796 166.317 390.119 165.983 390.533 165.75C390.953 165.517 391.433 165.4 391.973 165.4C392.493 165.4 392.956 165.513 393.363 165.74C393.769 165.967 394.086 166.287 394.313 166.7C394.539 167.107 394.653 167.577 394.653 168.11ZM393.463 167.75C393.456 167.33 393.306 166.993 393.013 166.74C392.719 166.487 392.356 166.36 391.923 166.36C391.529 166.36 391.193 166.487 390.913 166.74C390.633 166.987 390.466 167.323 390.413 167.75H393.463ZM400.824 168.11C400.824 168.317 400.811 168.503 400.784 168.67H396.574C396.608 169.11 396.771 169.463 397.064 169.73C397.358 169.997 397.718 170.13 398.144 170.13C398.758 170.13 399.191 169.873 399.444 169.36H400.674C400.508 169.867 400.204 170.283 399.764 170.61C399.331 170.93 398.791 171.09 398.144 171.09C397.618 171.09 397.144 170.973 396.724 170.74C396.311 170.5 395.984 170.167 395.744 169.74C395.511 169.307 395.394 168.807 395.394 168.24C395.394 167.673 395.508 167.177 395.734 166.75C395.968 166.317 396.291 165.983 396.704 165.75C397.124 165.517 397.604 165.4 398.144 165.4C398.664 165.4 399.128 165.513 399.534 165.74C399.941 165.967 400.258 166.287 400.484 166.7C400.711 167.107 400.824 167.577 400.824 168.11ZM399.634 167.75C399.628 167.33 399.478 166.993 399.184 166.74C398.891 166.487 398.528 166.36 398.094 166.36C397.701 166.36 397.364 166.487 397.084 166.74C396.804 166.987 396.638 167.323 396.584 167.75H399.634ZM403.086 163.6V171H401.946V163.6H403.086ZM414.501 164.05V171H413.361V166.24L411.241 171H410.451L408.321 166.24V171H407.181V164.05H408.411L410.851 169.5L413.281 164.05H414.501ZM421.049 168.11C421.049 168.317 421.036 168.503 421.009 168.67H416.799C416.832 169.11 416.996 169.463 417.289 169.73C417.582 169.997 417.942 170.13 418.369 170.13C418.982 170.13 419.416 169.873 419.669 169.36H420.899C420.732 169.867 420.429 170.283 419.989 170.61C419.556 170.93 419.016 171.09 418.369 171.09C417.842 171.09 417.369 170.973 416.949 170.74C416.536 170.5 416.209 170.167 415.969 169.74C415.736 169.307 415.619 168.807 415.619 168.24C415.619 167.673 415.732 167.177 415.959 166.75C416.192 166.317 416.516 165.983 416.929 165.75C417.349 165.517 417.829 165.4 418.369 165.4C418.889 165.4 419.352 165.513 419.759 165.74C420.166 165.967 420.482 166.287 420.709 166.7C420.936 167.107 421.049 167.577 421.049 168.11ZM419.859 167.75C419.852 167.33 419.702 166.993 419.409 166.74C419.116 166.487 418.752 166.36 418.319 166.36C417.926 166.36 417.589 166.487 417.309 166.74C417.029 166.987 416.862 167.323 416.809 167.75H419.859Z" fill="black"/>
<path d="M369.836 178.44L368.188 184H367.156L365.988 179.792L364.748 184L363.724 184.008L362.148 178.44H363.116L364.268 182.968L365.516 178.44H366.54L367.7 182.944L368.86 178.44H369.836ZM372.5 184.072C372.084 184.072 371.708 183.979 371.372 183.792C371.036 183.6 370.772 183.333 370.58 182.992C370.388 182.645 370.292 182.245 370.292 181.792C370.292 181.344 370.391 180.947 370.588 180.6C370.786 180.253 371.055 179.987 371.396 179.8C371.738 179.613 372.119 179.52 372.54 179.52C372.962 179.52 373.343 179.613 373.684 179.8C374.026 179.987 374.295 180.253 374.492 180.6C374.69 180.947 374.788 181.344 374.788 181.792C374.788 182.24 374.687 182.637 374.484 182.984C374.282 183.331 374.004 183.6 373.652 183.792C373.306 183.979 372.922 184.072 372.5 184.072ZM372.5 183.28C372.735 183.28 372.954 183.224 373.156 183.112C373.364 183 373.532 182.832 373.66 182.608C373.788 182.384 373.852 182.112 373.852 181.792C373.852 181.472 373.791 181.203 373.668 180.984C373.546 180.76 373.383 180.592 373.18 180.48C372.978 180.368 372.759 180.312 372.524 180.312C372.29 180.312 372.071 180.368 371.868 180.48C371.671 180.592 371.514 180.76 371.396 180.984C371.279 181.203 371.22 181.472 371.22 181.792C371.22 182.267 371.34 182.635 371.58 182.896C371.826 183.152 372.132 183.28 372.5 183.28ZM377.914 179.52C378.261 179.52 378.57 179.592 378.842 179.736C379.119 179.88 379.335 180.093 379.49 180.376C379.645 180.659 379.722 181 379.722 181.4V184H378.818V181.536C378.818 181.141 378.719 180.84 378.522 180.632C378.325 180.419 378.055 180.312 377.714 180.312C377.373 180.312 377.101 180.419 376.898 180.632C376.701 180.84 376.602 181.141 376.602 181.536V184H375.69V179.592H376.602V180.096C376.751 179.915 376.941 179.773 377.17 179.672C377.405 179.571 377.653 179.52 377.914 179.52ZM381.949 180.336V182.776C381.949 182.941 381.986 183.061 382.061 183.136C382.141 183.205 382.274 183.24 382.461 183.24H383.021V184H382.301C381.89 184 381.576 183.904 381.357 183.712C381.138 183.52 381.029 183.208 381.029 182.776V180.336H380.509V179.592H381.029V178.496H381.949V179.592H383.021V180.336H381.949ZM385.774 184.072C385.358 184.072 384.982 183.979 384.646 183.792C384.31 183.6 384.046 183.333 383.854 182.992C383.662 182.645 383.566 182.245 383.566 181.792C383.566 181.344 383.664 180.947 383.862 180.6C384.059 180.253 384.328 179.987 384.67 179.8C385.011 179.613 385.392 179.52 385.814 179.52C386.235 179.52 386.616 179.613 386.958 179.8C387.299 179.987 387.568 180.253 387.766 180.6C387.963 180.947 388.062 181.344 388.062 181.792C388.062 182.24 387.96 182.637 387.758 182.984C387.555 183.331 387.278 183.6 386.926 183.792C386.579 183.979 386.195 184.072 385.774 184.072ZM385.774 183.28C386.008 183.28 386.227 183.224 386.43 183.112C386.638 183 386.806 182.832 386.934 182.608C387.062 182.384 387.126 182.112 387.126 181.792C387.126 181.472 387.064 181.203 386.942 180.984C386.819 180.76 386.656 180.592 386.454 180.48C386.251 180.368 386.032 180.312 385.798 180.312C385.563 180.312 385.344 180.368 385.142 180.48C384.944 180.592 384.787 180.76 384.67 180.984C384.552 181.203 384.494 181.472 384.494 181.792C384.494 182.267 384.614 182.635 384.854 182.896C385.099 183.152 385.406 183.28 385.774 183.28ZM389.875 178.08V184H388.963V178.08H389.875ZM391.985 178.08V184H391.073V178.08H391.985ZM392.878 181.776C392.878 181.333 392.969 180.941 393.15 180.6C393.337 180.259 393.587 179.995 393.902 179.808C394.222 179.616 394.574 179.52 394.958 179.52C395.305 179.52 395.606 179.589 395.862 179.728C396.123 179.861 396.331 180.029 396.486 180.232V179.592H397.406V184H396.486V183.344C396.331 183.552 396.121 183.725 395.854 183.864C395.587 184.003 395.283 184.072 394.942 184.072C394.563 184.072 394.217 183.976 393.902 183.784C393.587 183.587 393.337 183.315 393.15 182.968C392.969 182.616 392.878 182.219 392.878 181.776ZM396.486 181.792C396.486 181.488 396.422 181.224 396.294 181C396.171 180.776 396.009 180.605 395.806 180.488C395.603 180.371 395.385 180.312 395.15 180.312C394.915 180.312 394.697 180.371 394.494 180.488C394.291 180.6 394.126 180.768 393.998 180.992C393.875 181.211 393.814 181.472 393.814 181.776C393.814 182.08 393.875 182.347 393.998 182.576C394.126 182.805 394.291 182.981 394.494 183.104C394.702 183.221 394.921 183.28 395.15 183.28C395.385 183.28 395.603 183.221 395.806 183.104C396.009 182.987 396.171 182.816 396.294 182.592C396.422 182.363 396.486 182.096 396.486 181.792Z" fill="#808080"/>
<rect x="305" y="235" width="150" height="20" rx="10" fill="black" fill-opacity="0.1"/>
</svg>
