<svg width="480" height="360" viewBox="0 0 480 360" fill="none" xmlns="http://www.w3.org/2000/svg">
<rect x="290" y="150" width="180" height="120" rx="15" fill="black" fill-opacity="0.5"/>
<path d="M377 200H383C384.105 200 385 200.895 385 202V208C385 209.105 384.105 210 383 210H377C375.895 210 375 209.105 375 208V202C375 200.895 375.895 200 377 200Z" stroke="white" stroke-width="2"/>
<path d="M416.53 200.26L422.756 204.152C423.383 204.544 423.383 205.456 422.756 205.848L416.53 209.74C415.864 210.156 415 209.677 415 208.892V201.108C415 200.323 415.864 199.844 416.53 200.26Z" stroke="white" stroke-width="2"/>
<rect x="424" y="199" width="2" height="12" rx="1" fill="white"/>
<path d="M343.47 209.74L337.244 205.848C336.617 205.456 336.617 204.544 337.244 204.152L343.47 200.26C344.136 199.844 345 200.323 345 201.108L345 208.892C345 209.677 344.136 210.156 343.47 209.74Z" stroke="white" stroke-width="2"/>
<rect x="336" y="211" width="2" height="12" rx="1" transform="rotate(180 336 211)" fill="white"/>
<path d="M363.93 171.07C363.283 171.07 362.686 170.92 362.14 170.62C361.6 170.313 361.17 169.89 360.85 169.35C360.536 168.803 360.38 168.19 360.38 167.51C360.38 166.83 360.536 166.22 360.85 165.68C361.17 165.14 361.6 164.72 362.14 164.42C362.686 164.113 363.283 163.96 363.93 163.96C364.583 163.96 365.18 164.113 365.72 164.42C366.266 164.72 366.696 165.14 367.01 165.68C367.323 166.22 367.48 166.83 367.48 167.51C367.48 168.19 367.323 168.803 367.01 169.35C366.696 169.89 366.266 170.313 365.72 170.62C365.18 170.92 364.583 171.07 363.93 171.07ZM363.93 170.08C364.39 170.08 364.8 169.977 365.16 169.77C365.52 169.557 365.8 169.257 366 168.87C366.206 168.477 366.31 168.023 366.31 167.51C366.31 166.997 366.206 166.547 366 166.16C365.8 165.773 365.52 165.477 365.16 165.27C364.8 165.063 364.39 164.96 363.93 164.96C363.47 164.96 363.06 165.063 362.7 165.27C362.34 165.477 362.056 165.773 361.85 166.16C361.65 166.547 361.55 166.997 361.55 167.51C361.55 168.023 361.65 168.477 361.85 168.87C362.056 169.257 362.34 169.557 362.7 169.77C363.06 169.977 363.47 170.08 363.93 170.08ZM371.382 165.4C371.815 165.4 372.202 165.49 372.542 165.67C372.888 165.85 373.158 166.117 373.352 166.47C373.545 166.823 373.642 167.25 373.642 167.75V171H372.512V167.92C372.512 167.427 372.388 167.05 372.142 166.79C371.895 166.523 371.558 166.39 371.132 166.39C370.705 166.39 370.365 166.523 370.112 166.79C369.865 167.05 369.742 167.427 369.742 167.92V171H368.602V165.49H369.742V166.12C369.928 165.893 370.165 165.717 370.452 165.59C370.745 165.463 371.055 165.4 371.382 165.4ZM382.496 165.49L380.786 171H379.586L378.476 166.93L377.366 171H376.166L374.446 165.49H375.606L376.756 169.92L377.926 165.49H379.116L380.236 169.9L381.376 165.49H382.496ZM382.968 168.22C382.968 167.667 383.081 167.177 383.308 166.75C383.541 166.323 383.854 165.993 384.248 165.76C384.648 165.52 385.088 165.4 385.568 165.4C386.001 165.4 386.378 165.487 386.698 165.66C387.024 165.827 387.284 166.037 387.478 166.29V165.49H388.628V171H387.478V170.18C387.284 170.44 387.021 170.657 386.688 170.83C386.354 171.003 385.974 171.09 385.548 171.09C385.074 171.09 384.641 170.97 384.248 170.73C383.854 170.483 383.541 170.143 383.308 169.71C383.081 169.27 382.968 168.773 382.968 168.22ZM387.478 168.24C387.478 167.86 387.398 167.53 387.238 167.25C387.084 166.97 386.881 166.757 386.628 166.61C386.374 166.463 386.101 166.39 385.808 166.39C385.514 166.39 385.241 166.463 384.988 166.61C384.734 166.75 384.528 166.96 384.368 167.24C384.214 167.513 384.138 167.84 384.138 168.22C384.138 168.6 384.214 168.933 384.368 169.22C384.528 169.507 384.734 169.727 384.988 169.88C385.248 170.027 385.521 170.1 385.808 170.1C386.101 170.1 386.374 170.027 386.628 169.88C386.881 169.733 387.084 169.52 387.238 169.24C387.398 168.953 387.478 168.62 387.478 168.24ZM391.265 166.29C391.432 166.01 391.652 165.793 391.925 165.64C392.205 165.48 392.535 165.4 392.915 165.4V166.58H392.625C392.178 166.58 391.838 166.693 391.605 166.92C391.378 167.147 391.265 167.54 391.265 168.1V171H390.125V165.49H391.265V166.29ZM393.583 168.22C393.583 167.667 393.696 167.177 393.923 166.75C394.156 166.323 394.47 165.993 394.863 165.76C395.263 165.52 395.706 165.4 396.193 165.4C396.553 165.4 396.906 165.48 397.253 165.64C397.606 165.793 397.886 166 398.093 166.26V163.6H399.243V171H398.093V170.17C397.906 170.437 397.646 170.657 397.313 170.83C396.986 171.003 396.61 171.09 396.183 171.09C395.703 171.09 395.263 170.97 394.863 170.73C394.47 170.483 394.156 170.143 393.923 169.71C393.696 169.27 393.583 168.773 393.583 168.22ZM398.093 168.24C398.093 167.86 398.013 167.53 397.853 167.25C397.7 166.97 397.496 166.757 397.243 166.61C396.99 166.463 396.716 166.39 396.423 166.39C396.13 166.39 395.856 166.463 395.603 166.61C395.35 166.75 395.143 166.96 394.983 167.24C394.83 167.513 394.753 167.84 394.753 168.22C394.753 168.6 394.83 168.933 394.983 169.22C395.143 169.507 395.35 169.727 395.603 169.88C395.863 170.027 396.136 170.1 396.423 170.1C396.716 170.1 396.99 170.027 397.243 169.88C397.496 169.733 397.7 169.52 397.853 169.24C398.013 168.953 398.093 168.62 398.093 168.24Z" fill="white"/>
<path d="M330.6 178.44C331.192 178.44 331.709 178.555 332.152 178.784C332.6 179.008 332.944 179.333 333.184 179.76C333.429 180.181 333.552 180.675 333.552 181.24C333.552 181.805 333.429 182.296 333.184 182.712C332.944 183.128 332.6 183.448 332.152 183.672C331.709 183.891 331.192 184 330.6 184H328.784V178.44H330.6ZM330.6 183.256C331.25 183.256 331.749 183.08 332.096 182.728C332.442 182.376 332.616 181.88 332.616 181.24C332.616 180.595 332.442 180.091 332.096 179.728C331.749 179.365 331.25 179.184 330.6 179.184H329.696V183.256H330.6ZM334.151 181.776C334.151 181.333 334.242 180.941 334.423 180.6C334.61 180.259 334.861 179.995 335.175 179.808C335.495 179.616 335.847 179.52 336.231 179.52C336.578 179.52 336.879 179.589 337.135 179.728C337.397 179.861 337.605 180.029 337.759 180.232V179.592H338.679V184H337.759V183.344C337.605 183.552 337.394 183.725 337.127 183.864C336.861 184.003 336.557 184.072 336.215 184.072C335.837 184.072 335.49 183.976 335.175 183.784C334.861 183.587 334.61 183.315 334.423 182.968C334.242 182.616 334.151 182.219 334.151 181.776ZM337.759 181.792C337.759 181.488 337.695 181.224 337.567 181C337.445 180.776 337.282 180.605 337.079 180.488C336.877 180.371 336.658 180.312 336.423 180.312C336.189 180.312 335.97 180.371 335.767 180.488C335.565 180.6 335.399 180.768 335.271 180.992C335.149 181.211 335.087 181.472 335.087 181.776C335.087 182.08 335.149 182.347 335.271 182.576C335.399 182.805 335.565 182.981 335.767 183.104C335.975 183.221 336.194 183.28 336.423 183.28C336.658 183.28 336.877 183.221 337.079 183.104C337.282 182.987 337.445 182.816 337.567 182.592C337.695 182.363 337.759 182.096 337.759 181.792ZM342.101 179.52C342.448 179.52 342.757 179.592 343.029 179.736C343.307 179.88 343.523 180.093 343.677 180.376C343.832 180.659 343.909 181 343.909 181.4V184H343.005V181.536C343.005 181.141 342.907 180.84 342.709 180.632C342.512 180.419 342.243 180.312 341.901 180.312C341.56 180.312 341.288 180.419 341.085 180.632C340.888 180.84 340.789 181.141 340.789 181.536V184H339.877V179.592H340.789V180.096C340.939 179.915 341.128 179.773 341.357 179.672C341.592 179.571 341.84 179.52 342.101 179.52ZM345.537 179.008C345.371 179.008 345.233 178.952 345.121 178.84C345.009 178.728 344.953 178.589 344.953 178.424C344.953 178.259 345.009 178.12 345.121 178.008C345.233 177.896 345.371 177.84 345.537 177.84C345.697 177.84 345.833 177.896 345.945 178.008C346.057 178.12 346.113 178.259 346.113 178.424C346.113 178.589 346.057 178.728 345.945 178.84C345.833 178.952 345.697 179.008 345.537 179.008ZM345.985 179.592V184H345.073V179.592H345.985ZM352.148 184L350.868 181.776H350.172V184H349.26V178.44H351.18C351.607 178.44 351.967 178.515 352.26 178.664C352.559 178.813 352.78 179.013 352.924 179.264C353.073 179.515 353.148 179.795 353.148 180.104C353.148 180.467 353.041 180.797 352.828 181.096C352.62 181.389 352.297 181.589 351.86 181.696L353.236 184H352.148ZM350.172 181.048H351.18C351.521 181.048 351.777 180.963 351.948 180.792C352.124 180.621 352.212 180.392 352.212 180.104C352.212 179.816 352.127 179.592 351.956 179.432C351.785 179.267 351.527 179.184 351.18 179.184H350.172V181.048ZM356.227 184.072C355.811 184.072 355.435 183.979 355.099 183.792C354.763 183.6 354.499 183.333 354.307 182.992C354.115 182.645 354.019 182.245 354.019 181.792C354.019 181.344 354.118 180.947 354.315 180.6C354.512 180.253 354.782 179.987 355.123 179.8C355.464 179.613 355.846 179.52 356.267 179.52C356.688 179.52 357.07 179.613 357.411 179.8C357.752 179.987 358.022 180.253 358.219 180.6C358.416 180.947 358.515 181.344 358.515 181.792C358.515 182.24 358.414 182.637 358.211 182.984C358.008 183.331 357.731 183.6 357.379 183.792C357.032 183.979 356.648 184.072 356.227 184.072ZM356.227 183.28C356.462 183.28 356.68 183.224 356.883 183.112C357.091 183 357.259 182.832 357.387 182.608C357.515 182.384 357.579 182.112 357.579 181.792C357.579 181.472 357.518 181.203 357.395 180.984C357.272 180.76 357.11 180.592 356.907 180.48C356.704 180.368 356.486 180.312 356.251 180.312C356.016 180.312 355.798 180.368 355.595 180.48C355.398 180.592 355.24 180.76 355.123 180.984C355.006 181.203 354.947 181.472 354.947 181.792C354.947 182.267 355.067 182.635 355.307 182.896C355.552 183.152 355.859 183.28 356.227 183.28ZM361.016 184.072C360.67 184.072 360.358 184.011 360.08 183.888C359.808 183.76 359.592 183.589 359.432 183.376C359.272 183.157 359.187 182.915 359.176 182.648H360.12C360.136 182.835 360.224 182.992 360.384 183.12C360.55 183.243 360.755 183.304 361 183.304C361.256 183.304 361.454 183.256 361.592 183.16C361.736 183.059 361.808 182.931 361.808 182.776C361.808 182.611 361.728 182.488 361.568 182.408C361.414 182.328 361.166 182.24 360.824 182.144C360.494 182.053 360.224 181.965 360.016 181.88C359.808 181.795 359.627 181.664 359.472 181.488C359.323 181.312 359.248 181.08 359.248 180.792C359.248 180.557 359.318 180.344 359.456 180.152C359.595 179.955 359.792 179.8 360.048 179.688C360.31 179.576 360.608 179.52 360.944 179.52C361.446 179.52 361.848 179.648 362.152 179.904C362.462 180.155 362.627 180.499 362.648 180.936H361.736C361.72 180.739 361.64 180.581 361.496 180.464C361.352 180.347 361.158 180.288 360.912 180.288C360.672 180.288 360.488 180.333 360.36 180.424C360.232 180.515 360.168 180.635 360.168 180.784C360.168 180.901 360.211 181 360.296 181.08C360.382 181.16 360.486 181.224 360.608 181.272C360.731 181.315 360.912 181.371 361.152 181.44C361.472 181.525 361.734 181.613 361.936 181.704C362.144 181.789 362.323 181.917 362.472 182.088C362.622 182.259 362.699 182.485 362.704 182.768C362.704 183.019 362.635 183.243 362.496 183.44C362.358 183.637 362.16 183.792 361.904 183.904C361.654 184.016 361.358 184.072 361.016 184.072ZM367.73 181.688C367.73 181.853 367.719 182.003 367.698 182.136H364.33C364.357 182.488 364.487 182.771 364.722 182.984C364.957 183.197 365.245 183.304 365.586 183.304C366.077 183.304 366.423 183.099 366.626 182.688H367.61C367.477 183.093 367.234 183.427 366.882 183.688C366.535 183.944 366.103 184.072 365.586 184.072C365.165 184.072 364.786 183.979 364.45 183.792C364.119 183.6 363.858 183.333 363.666 182.992C363.479 182.645 363.386 182.245 363.386 181.792C363.386 181.339 363.477 180.941 363.658 180.6C363.845 180.253 364.103 179.987 364.434 179.8C364.77 179.613 365.154 179.52 365.586 179.52C366.002 179.52 366.373 179.611 366.698 179.792C367.023 179.973 367.277 180.229 367.458 180.56C367.639 180.885 367.73 181.261 367.73 181.688ZM366.778 181.4C366.773 181.064 366.653 180.795 366.418 180.592C366.183 180.389 365.893 180.288 365.546 180.288C365.231 180.288 364.962 180.389 364.738 180.592C364.514 180.789 364.381 181.059 364.338 181.4H366.778ZM370.851 179.52C371.198 179.52 371.507 179.592 371.779 179.736C372.057 179.88 372.273 180.093 372.427 180.376C372.582 180.659 372.659 181 372.659 181.4V184H371.755V181.536C371.755 181.141 371.657 180.84 371.459 180.632C371.262 180.419 370.993 180.312 370.651 180.312C370.31 180.312 370.038 180.419 369.835 180.632C369.638 180.84 369.539 181.141 369.539 181.536V184H368.627V179.592H369.539V180.096C369.689 179.915 369.878 179.773 370.107 179.672C370.342 179.571 370.59 179.52 370.851 179.52ZM375.735 184.072C375.319 184.072 374.943 183.979 374.607 183.792C374.271 183.6 374.007 183.333 373.815 182.992C373.623 182.645 373.527 182.245 373.527 181.792C373.527 181.344 373.625 180.947 373.823 180.6C374.02 180.253 374.289 179.987 374.631 179.8C374.972 179.613 375.353 179.52 375.775 179.52C376.196 179.52 376.577 179.613 376.919 179.8C377.26 179.987 377.529 180.253 377.727 180.6C377.924 180.947 378.023 181.344 378.023 181.792C378.023 182.24 377.921 182.637 377.719 182.984C377.516 183.331 377.239 183.6 376.887 183.792C376.54 183.979 376.156 184.072 375.735 184.072ZM375.735 183.28C375.969 183.28 376.188 183.224 376.391 183.112C376.599 183 376.767 182.832 376.895 182.608C377.023 182.384 377.087 182.112 377.087 181.792C377.087 181.472 377.025 181.203 376.903 180.984C376.78 180.76 376.617 180.592 376.415 180.48C376.212 180.368 375.993 180.312 375.759 180.312C375.524 180.312 375.305 180.368 375.103 180.48C374.905 180.592 374.748 180.76 374.631 180.984C374.513 181.203 374.455 181.472 374.455 181.792C374.455 182.267 374.575 182.635 374.815 182.896C375.06 183.152 375.367 183.28 375.735 183.28ZM382.964 181.688C382.964 181.853 382.954 182.003 382.932 182.136H379.564C379.591 182.488 379.722 182.771 379.956 182.984C380.191 183.197 380.479 183.304 380.82 183.304C381.311 183.304 381.658 183.099 381.86 182.688H382.844C382.711 183.093 382.468 183.427 382.116 183.688C381.77 183.944 381.338 184.072 380.82 184.072C380.399 184.072 380.02 183.979 379.684 183.792C379.354 183.6 379.092 183.333 378.9 182.992C378.714 182.645 378.62 182.245 378.62 181.792C378.62 181.339 378.711 180.941 378.892 180.6C379.079 180.253 379.338 179.987 379.668 179.8C380.004 179.613 380.388 179.52 380.82 179.52C381.236 179.52 381.607 179.611 381.932 179.792C382.258 179.973 382.511 180.229 382.692 180.56C382.874 180.885 382.964 181.261 382.964 181.688ZM382.012 181.4C382.007 181.064 381.887 180.795 381.652 180.592C381.418 180.389 381.127 180.288 380.78 180.288C380.466 180.288 380.196 180.389 379.972 180.592C379.748 180.789 379.615 181.059 379.572 181.4H382.012ZM384.774 180.232C384.907 180.008 385.083 179.835 385.302 179.712C385.526 179.584 385.79 179.52 386.094 179.52V180.464H385.862C385.504 180.464 385.232 180.555 385.046 180.736C384.864 180.917 384.774 181.232 384.774 181.68V184H383.862V179.592H384.774V180.232ZM390.25 182.376C390.058 182.376 389.882 182.331 389.722 182.24C389.567 182.144 389.442 182.019 389.346 181.864C389.255 181.704 389.21 181.528 389.21 181.336C389.21 181.043 389.311 180.795 389.514 180.592C389.717 180.389 389.962 180.288 390.25 180.288C390.549 180.288 390.799 180.389 391.002 180.592C391.205 180.795 391.306 181.043 391.306 181.336C391.306 181.629 391.205 181.877 391.002 182.08C390.799 182.277 390.549 182.376 390.25 182.376ZM398.136 182.864H395.808L395.408 184H394.456L396.448 178.432H397.504L399.496 184H398.536L398.136 182.864ZM397.88 182.12L396.976 179.536L396.064 182.12H397.88ZM401.274 180.232C401.407 180.008 401.583 179.835 401.802 179.712C402.026 179.584 402.29 179.52 402.594 179.52V180.464H402.362C402.004 180.464 401.732 180.555 401.546 180.736C401.364 180.917 401.274 181.232 401.274 181.68V184H400.362V179.592H401.274V180.232ZM403.128 181.792C403.128 181.339 403.219 180.941 403.4 180.6C403.587 180.253 403.843 179.987 404.168 179.8C404.493 179.613 404.867 179.52 405.288 179.52C405.821 179.52 406.261 179.648 406.608 179.904C406.96 180.155 407.197 180.515 407.32 180.984H406.336C406.256 180.765 406.128 180.595 405.952 180.472C405.776 180.349 405.555 180.288 405.288 180.288C404.915 180.288 404.616 180.421 404.392 180.688C404.173 180.949 404.064 181.317 404.064 181.792C404.064 182.267 404.173 182.637 404.392 182.904C404.616 183.171 404.915 183.304 405.288 183.304C405.816 183.304 406.165 183.072 406.336 182.608H407.32C407.192 183.056 406.952 183.413 406.6 183.68C406.248 183.941 405.811 184.072 405.288 184.072C404.867 184.072 404.493 183.979 404.168 183.792C403.843 183.6 403.587 183.333 403.4 182.992C403.219 182.645 403.128 182.245 403.128 181.792ZM414.875 184H413.963L411.219 179.848V184H410.307V178.432H411.219L413.963 182.576V178.432H414.875V184ZM417.985 184.072C417.569 184.072 417.193 183.979 416.857 183.792C416.521 183.6 416.257 183.333 416.065 182.992C415.873 182.645 415.777 182.245 415.777 181.792C415.777 181.344 415.875 180.947 416.073 180.6C416.27 180.253 416.539 179.987 416.881 179.8C417.222 179.613 417.603 179.52 418.025 179.52C418.446 179.52 418.827 179.613 419.169 179.8C419.51 179.987 419.779 180.253 419.977 180.6C420.174 180.947 420.273 181.344 420.273 181.792C420.273 182.24 420.171 182.637 419.969 182.984C419.766 183.331 419.489 183.6 419.137 183.792C418.79 183.979 418.406 184.072 417.985 184.072ZM417.985 183.28C418.219 183.28 418.438 183.224 418.641 183.112C418.849 183 419.017 182.832 419.145 182.608C419.273 182.384 419.337 182.112 419.337 181.792C419.337 181.472 419.275 181.203 419.153 180.984C419.03 180.76 418.867 180.592 418.665 180.48C418.462 180.368 418.243 180.312 418.009 180.312C417.774 180.312 417.555 180.368 417.353 180.48C417.155 180.592 416.998 180.76 416.881 180.984C416.763 181.203 416.705 181.472 416.705 181.792C416.705 182.267 416.825 182.635 417.065 182.896C417.31 183.152 417.617 183.28 417.985 183.28ZM422.086 180.232C422.22 180.008 422.396 179.835 422.614 179.712C422.838 179.584 423.102 179.52 423.406 179.52V180.464H423.174C422.817 180.464 422.545 180.555 422.358 180.736C422.177 180.917 422.086 181.232 422.086 181.68V184H421.174V179.592H422.086V180.232ZM425.309 180.336V182.776C425.309 182.941 425.346 183.061 425.421 183.136C425.501 183.205 425.634 183.24 425.821 183.24H426.381V184H425.661C425.25 184 424.935 183.904 424.717 183.712C424.498 183.52 424.389 183.208 424.389 182.776V180.336H423.869V179.592H424.389V178.496H425.309V179.592H426.381V180.336H425.309ZM429.501 179.52C429.837 179.52 430.136 179.592 430.397 179.736C430.664 179.88 430.872 180.093 431.021 180.376C431.176 180.659 431.253 181 431.253 181.4V184H430.349V181.536C430.349 181.141 430.25 180.84 430.053 180.632C429.856 180.419 429.586 180.312 429.245 180.312C428.904 180.312 428.632 180.419 428.429 180.632C428.232 180.84 428.133 181.141 428.133 181.536V184H427.221V178.08H428.133V180.104C428.288 179.917 428.482 179.773 428.717 179.672C428.957 179.571 429.218 179.52 429.501 179.52Z" fill="#808080"/>
<rect x="305" y="235" width="150" height="20" rx="10" fill="white" fill-opacity="0.1"/>
</svg>
