<svg width="480" height="360" viewBox="0 0 480 360" fill="none" xmlns="http://www.w3.org/2000/svg">
<rect x="360" y="40" width="30" height="30" rx="15" transform="rotate(-90 360 40)" fill="white" fill-opacity="0.1"/>
<path d="M375 29C375 28.4477 375.448 28 376 28H377C378.105 28 379 27.1046 379 26V26C379 24.8954 378.105 24 377 24H373V26.0657C373 26.4651 372.555 26.7033 372.223 26.4818L367.624 23.416C367.327 23.2181 367.327 22.7819 367.624 22.584L372.223 19.5182C372.555 19.2967 373 19.5349 373 19.9343V22H377C379.209 22 381 23.7909 381 26V26C381 28.2091 379.209 30 377 30H376C375.448 30 375 29.5523 375 29V29Z" fill="white"/>
</svg>
