<svg width="80" height="28" viewBox="0 0 80 28" fill="none" xmlns="http://www.w3.org/2000/svg">
<rect width="80" height="28" rx="5" fill="#E6E6E6"/>
<path d="M11.89 13.29C12.0567 13.01 12.2767 12.7933 12.55 12.64C12.83 12.48 13.16 12.4 13.54 12.4V13.58H13.25C12.8033 13.58 12.4633 13.6933 12.23 13.92C12.0033 14.1467 11.89 14.54 11.89 15.1V18H10.75V12.49H11.89V13.29ZM19.6379 15.11C19.6379 15.3167 19.6246 15.5033 19.5979 15.67H15.3879C15.4212 16.11 15.5846 16.4633 15.8779 16.73C16.1712 16.9967 16.5312 17.13 16.9579 17.13C17.5712 17.13 18.0046 16.8733 18.2579 16.36H19.4879C19.3212 16.8667 19.0179 17.2833 18.5779 17.61C18.1446 17.93 17.6046 18.09 16.9579 18.09C16.4312 18.09 15.9579 17.9733 15.5379 17.74C15.1246 17.5 14.7979 17.1667 14.5579 16.74C14.3246 16.3067 14.2079 15.8067 14.2079 15.24C14.2079 14.6733 14.3212 14.1767 14.5479 13.75C14.7812 13.3167 15.1046 12.9833 15.5179 12.75C15.9379 12.5167 16.4179 12.4 16.9579 12.4C17.4779 12.4 17.9412 12.5133 18.3479 12.74C18.7546 12.9667 19.0712 13.2867 19.2979 13.7C19.5246 14.1067 19.6379 14.5767 19.6379 15.11ZM18.4479 14.75C18.4412 14.33 18.2912 13.9933 17.9979 13.74C17.7046 13.4867 17.3412 13.36 16.9079 13.36C16.5146 13.36 16.1779 13.4867 15.8979 13.74C15.6179 13.9867 15.4512 14.3233 15.3979 14.75H18.4479ZM22.7598 18.09C22.3264 18.09 21.9364 18.0133 21.5898 17.86C21.2498 17.7 20.9798 17.4867 20.7798 17.22C20.5798 16.9467 20.4731 16.6433 20.4598 16.31H21.6398C21.6598 16.5433 21.7698 16.74 21.9698 16.9C22.1764 17.0533 22.4331 17.13 22.7398 17.13C23.0598 17.13 23.3064 17.07 23.4798 16.95C23.6598 16.8233 23.7498 16.6633 23.7498 16.47C23.7498 16.2633 23.6498 16.11 23.4498 16.01C23.2564 15.91 22.9464 15.8 22.5198 15.68C22.1064 15.5667 21.7698 15.4567 21.5098 15.35C21.2498 15.2433 21.0231 15.08 20.8298 14.86C20.6431 14.64 20.5498 14.35 20.5498 13.99C20.5498 13.6967 20.6364 13.43 20.8098 13.19C20.9831 12.9433 21.2298 12.75 21.5498 12.61C21.8764 12.47 22.2498 12.4 22.6698 12.4C23.2964 12.4 23.7998 12.56 24.1798 12.88C24.5664 13.1933 24.7731 13.6233 24.7998 14.17H23.6598C23.6398 13.9233 23.5398 13.7267 23.3598 13.58C23.1798 13.4333 22.9364 13.36 22.6298 13.36C22.3298 13.36 22.0998 13.4167 21.9398 13.53C21.7798 13.6433 21.6998 13.7933 21.6998 13.98C21.6998 14.1267 21.7531 14.25 21.8598 14.35C21.9664 14.45 22.0964 14.53 22.2498 14.59C22.4031 14.6433 22.6298 14.7133 22.9298 14.8C23.3298 14.9067 23.6564 15.0167 23.9098 15.13C24.1698 15.2367 24.3931 15.3967 24.5798 15.61C24.7664 15.8233 24.8631 16.1067 24.8698 16.46C24.8698 16.7733 24.7831 17.0533 24.6098 17.3C24.4364 17.5467 24.1898 17.74 23.8698 17.88C23.5564 18.02 23.1864 18.09 22.7598 18.09ZM31.1516 15.11C31.1516 15.3167 31.1382 15.5033 31.1116 15.67H26.9016C26.9349 16.11 27.0982 16.4633 27.3916 16.73C27.6849 16.9967 28.0449 17.13 28.4716 17.13C29.0849 17.13 29.5182 16.8733 29.7716 16.36H31.0016C30.8349 16.8667 30.5316 17.2833 30.0916 17.61C29.6582 17.93 29.1182 18.09 28.4716 18.09C27.9449 18.09 27.4716 17.9733 27.0516 17.74C26.6382 17.5 26.3116 17.1667 26.0716 16.74C25.8382 16.3067 25.7216 15.8067 25.7216 15.24C25.7216 14.6733 25.8349 14.1767 26.0616 13.75C26.2949 13.3167 26.6182 12.9833 27.0316 12.75C27.4516 12.5167 27.9316 12.4 28.4716 12.4C28.9916 12.4 29.4549 12.5133 29.8616 12.74C30.2682 12.9667 30.5849 13.2867 30.8116 13.7C31.0382 14.1067 31.1516 14.5767 31.1516 15.11ZM29.9616 14.75C29.9549 14.33 29.8049 13.9933 29.5116 13.74C29.2182 13.4867 28.8549 13.36 28.4216 13.36C28.0282 13.36 27.6916 13.4867 27.4116 13.74C27.1316 13.9867 26.9649 14.3233 26.9116 14.75H29.9616ZM33.6034 13.42V16.47C33.6034 16.6767 33.6501 16.8267 33.7434 16.92C33.8434 17.0067 34.0101 17.05 34.2434 17.05H34.9434V18H34.0434C33.5301 18 33.1368 17.88 32.8634 17.64C32.5901 17.4 32.4534 17.01 32.4534 16.47V13.42H31.8034V12.49H32.4534V11.12H33.6034V12.49H34.9434V13.42H33.6034Z" fill="black"/>
</svg>
