<svg xmlns="http://www.w3.org/2000/svg" fill="none" viewBox="0 0 480 360" height="360" width="480">
<path fill="#191919" d="M104.581 0H450C466.569 0 480 13.4315 480 30V330C480 346.569 466.569 360 450 360H104.581H30C13.4315 360 0 346.569 0 330V30C0 13.4315 13.4315 0 30 0H104.581Z"></path>
<path fill="white" d="M194.722 292.288C195.32 292.395 195.826 292.709 196.242 293.232C196.658 293.755 196.866 294.347 196.866 295.008C196.866 295.573 196.717 296.085 196.418 296.544C196.13 296.992 195.709 297.349 195.154 297.616C194.6 297.872 193.954 298 193.218 298H188.77V286.88H193.01C193.768 286.88 194.418 287.008 194.962 287.264C195.506 287.52 195.917 287.867 196.194 288.304C196.472 288.731 196.61 289.211 196.61 289.744C196.61 290.384 196.44 290.917 196.098 291.344C195.757 291.771 195.298 292.085 194.722 292.288ZM190.594 291.552H192.85C193.448 291.552 193.912 291.419 194.242 291.152C194.584 290.875 194.754 290.48 194.754 289.968C194.754 289.467 194.584 289.077 194.242 288.8C193.912 288.512 193.448 288.368 192.85 288.368H190.594V291.552ZM193.058 296.512C193.677 296.512 194.162 296.363 194.514 296.064C194.866 295.765 195.042 295.349 195.042 294.816C195.042 294.272 194.856 293.84 194.482 293.52C194.109 293.2 193.613 293.04 192.994 293.04H190.594V296.512H193.058ZM200.672 290.464C200.939 290.016 201.291 289.669 201.728 289.424C202.176 289.168 202.704 289.04 203.312 289.04V290.928H202.848C202.134 290.928 201.59 291.109 201.216 291.472C200.854 291.835 200.672 292.464 200.672 293.36V298H198.848V289.184H200.672V290.464ZM205.917 288.016C205.586 288.016 205.309 287.904 205.085 287.68C204.861 287.456 204.749 287.179 204.749 286.848C204.749 286.517 204.861 286.24 205.085 286.016C205.309 285.792 205.586 285.68 205.917 285.68C206.237 285.68 206.509 285.792 206.733 286.016C206.957 286.24 207.069 286.517 207.069 286.848C207.069 287.179 206.957 287.456 206.733 287.68C206.509 287.904 206.237 288.016 205.917 288.016ZM206.813 289.184V298H204.989V289.184H206.813ZM208.6 293.584C208.6 292.677 208.781 291.883 209.144 291.2C209.517 290.507 210.029 289.973 210.68 289.6C211.33 289.227 212.077 289.04 212.92 289.04C213.986 289.04 214.866 289.296 215.56 289.808C216.264 290.309 216.738 291.029 216.984 291.968H215.016C214.856 291.531 214.6 291.189 214.248 290.944C213.896 290.699 213.453 290.576 212.92 290.576C212.173 290.576 211.576 290.843 211.128 291.376C210.69 291.899 210.472 292.635 210.472 293.584C210.472 294.533 210.69 295.275 211.128 295.808C211.576 296.341 212.173 296.608 212.92 296.608C213.976 296.608 214.674 296.144 215.016 295.216H216.984C216.728 296.112 216.248 296.827 215.544 297.36C214.84 297.883 213.965 298.144 212.92 298.144C212.077 298.144 211.33 297.957 210.68 297.584C210.029 297.2 209.517 296.667 209.144 295.984C208.781 295.291 208.6 294.491 208.6 293.584ZM222.29 293.6L226.354 298H223.89L220.626 294.208V298H218.802V286.16H220.626V293.04L223.826 289.184H226.354L222.29 293.6ZM237.769 292.288C238.367 292.395 238.873 292.709 239.289 293.232C239.705 293.755 239.913 294.347 239.913 295.008C239.913 295.573 239.764 296.085 239.465 296.544C239.177 296.992 238.756 297.349 238.201 297.616C237.647 297.872 237.001 298 236.265 298H231.817V286.88H236.057C236.815 286.88 237.465 287.008 238.009 287.264C238.553 287.52 238.964 287.867 239.241 288.304C239.519 288.731 239.657 289.211 239.657 289.744C239.657 290.384 239.487 290.917 239.145 291.344C238.804 291.771 238.345 292.085 237.769 292.288ZM233.641 291.552H235.897C236.495 291.552 236.959 291.419 237.289 291.152C237.631 290.875 237.801 290.48 237.801 289.968C237.801 289.467 237.631 289.077 237.289 288.8C236.959 288.512 236.495 288.368 235.897 288.368H233.641V291.552ZM236.105 296.512C236.724 296.512 237.209 296.363 237.561 296.064C237.913 295.765 238.089 295.349 238.089 294.816C238.089 294.272 237.903 293.84 237.529 293.52C237.156 293.2 236.66 293.04 236.041 293.04H233.641V296.512H236.105ZM243.719 290.464C243.986 290.016 244.338 289.669 244.775 289.424C245.223 289.168 245.751 289.04 246.359 289.04V290.928H245.895C245.181 290.928 244.637 291.109 244.263 291.472C243.901 291.835 243.719 292.464 243.719 293.36V298H241.895V289.184H243.719V290.464ZM256.116 293.376C256.116 293.707 256.095 294.005 256.052 294.272H249.316C249.369 294.976 249.631 295.541 250.1 295.968C250.569 296.395 251.145 296.608 251.828 296.608C252.809 296.608 253.503 296.197 253.908 295.376H255.876C255.609 296.187 255.124 296.853 254.42 297.376C253.727 297.888 252.863 298.144 251.828 298.144C250.985 298.144 250.228 297.957 249.556 297.584C248.895 297.2 248.372 296.667 247.988 295.984C247.615 295.291 247.428 294.491 247.428 293.584C247.428 292.677 247.609 291.883 247.972 291.2C248.345 290.507 248.863 289.973 249.524 289.6C250.196 289.227 250.964 289.04 251.828 289.04C252.66 289.04 253.401 289.221 254.052 289.584C254.703 289.947 255.209 290.459 255.572 291.12C255.935 291.771 256.116 292.523 256.116 293.376ZM254.212 292.8C254.201 292.128 253.961 291.589 253.492 291.184C253.023 290.779 252.441 290.576 251.748 290.576C251.119 290.576 250.58 290.779 250.132 291.184C249.684 291.579 249.417 292.117 249.332 292.8H254.212ZM257.303 293.552C257.303 292.667 257.484 291.883 257.847 291.2C258.22 290.517 258.722 289.989 259.351 289.616C259.991 289.232 260.695 289.04 261.463 289.04C262.156 289.04 262.759 289.179 263.271 289.456C263.794 289.723 264.21 290.059 264.519 290.464V289.184H266.359V298H264.519V296.688C264.21 297.104 263.788 297.451 263.255 297.728C262.722 298.005 262.114 298.144 261.431 298.144C260.674 298.144 259.98 297.952 259.351 297.568C258.722 297.173 258.22 296.629 257.847 295.936C257.484 295.232 257.303 294.437 257.303 293.552ZM264.519 293.584C264.519 292.976 264.391 292.448 264.135 292C263.89 291.552 263.564 291.211 263.159 290.976C262.754 290.741 262.316 290.624 261.847 290.624C261.378 290.624 260.94 290.741 260.535 290.976C260.13 291.2 259.799 291.536 259.543 291.984C259.298 292.421 259.175 292.944 259.175 293.552C259.175 294.16 259.298 294.693 259.543 295.152C259.799 295.611 260.13 295.963 260.535 296.208C260.951 296.443 261.388 296.56 261.847 296.56C262.316 296.56 262.754 296.443 263.159 296.208C263.564 295.973 263.89 295.632 264.135 295.184C264.391 294.725 264.519 294.192 264.519 293.584ZM272.243 293.6L276.307 298H273.843L270.579 294.208V298H268.755V286.16H270.579V293.04L273.779 289.184H276.307L272.243 293.6ZM285.694 293.376C285.694 293.707 285.673 294.005 285.63 294.272H278.894C278.947 294.976 279.209 295.541 279.678 295.968C280.147 296.395 280.723 296.608 281.406 296.608C282.387 296.608 283.081 296.197 283.486 295.376H285.454C285.187 296.187 284.702 296.853 283.998 297.376C283.305 297.888 282.441 298.144 281.406 298.144C280.563 298.144 279.806 297.957 279.134 297.584C278.473 297.2 277.95 296.667 277.566 295.984C277.193 295.291 277.006 294.491 277.006 293.584C277.006 292.677 277.187 291.883 277.55 291.2C277.923 290.507 278.441 289.973 279.102 289.6C279.774 289.227 280.542 289.04 281.406 289.04C282.238 289.04 282.979 289.221 283.63 289.584C284.281 289.947 284.787 290.459 285.15 291.12C285.513 291.771 285.694 292.523 285.694 293.376ZM283.79 292.8C283.779 292.128 283.539 291.589 283.07 291.184C282.601 290.779 282.019 290.576 281.326 290.576C280.697 290.576 280.158 290.779 279.71 291.184C279.262 291.579 278.995 292.117 278.91 292.8H283.79ZM289.313 290.464C289.58 290.016 289.932 289.669 290.369 289.424C290.817 289.168 291.345 289.04 291.953 289.04V290.928H291.489C290.774 290.928 290.23 291.109 289.857 291.472C289.494 291.835 289.313 292.464 289.313 293.36V298H287.489V289.184H289.313V290.464Z"></path>
</svg>
