<svg width="480" height="360" viewBox="0 0 480 360" fill="none" xmlns="http://www.w3.org/2000/svg">
<rect x="290" y="150" width="180" height="120" rx="15" fill="white" fill-opacity="0.5"/>
<path d="M377 200H383C384.105 200 385 200.895 385 202V208C385 209.105 384.105 210 383 210H377C375.895 210 375 209.105 375 208V202C375 200.895 375.895 200 377 200Z" stroke="black" stroke-width="2"/>
<path d="M416.53 200.26L422.756 204.152C423.383 204.544 423.383 205.456 422.756 205.848L416.53 209.74C415.864 210.156 415 209.677 415 208.892V201.108C415 200.323 415.864 199.844 416.53 200.26Z" stroke="black" stroke-width="2"/>
<rect x="424" y="199" width="2" height="12" rx="1" fill="black"/>
<path d="M343.47 209.74L337.244 205.848C336.617 205.456 336.617 204.544 337.244 204.152L343.47 200.26C344.136 199.844 345 200.323 345 201.108L345 208.892C345 209.677 344.136 210.156 343.47 209.74Z" stroke="black" stroke-width="2"/>
<rect x="336" y="211" width="2" height="12" rx="1" transform="rotate(180 336 211)" fill="black"/>
<path d="M357.349 164.05V164.98H355.499V171H354.359V164.98H352.499V164.05H357.349ZM363.554 168.11C363.554 168.317 363.541 168.503 363.514 168.67H359.304C359.337 169.11 359.501 169.463 359.794 169.73C360.087 169.997 360.447 170.13 360.874 170.13C361.487 170.13 361.921 169.873 362.174 169.36H363.404C363.237 169.867 362.934 170.283 362.494 170.61C362.061 170.93 361.521 171.09 360.874 171.09C360.347 171.09 359.874 170.973 359.454 170.74C359.041 170.5 358.714 170.167 358.474 169.74C358.241 169.307 358.124 168.807 358.124 168.24C358.124 167.673 358.237 167.177 358.464 166.75C358.697 166.317 359.021 165.983 359.434 165.75C359.854 165.517 360.334 165.4 360.874 165.4C361.394 165.4 361.857 165.513 362.264 165.74C362.671 165.967 362.987 166.287 363.214 166.7C363.441 167.107 363.554 167.577 363.554 168.11ZM362.364 167.75C362.357 167.33 362.207 166.993 361.914 166.74C361.621 166.487 361.257 166.36 360.824 166.36C360.431 166.36 360.094 166.487 359.814 166.74C359.534 166.987 359.367 167.323 359.314 167.75H362.364ZM371.346 165.4C371.779 165.4 372.166 165.49 372.506 165.67C372.852 165.85 373.122 166.117 373.316 166.47C373.516 166.823 373.616 167.25 373.616 167.75V171H372.486V167.92C372.486 167.427 372.362 167.05 372.116 166.79C371.869 166.523 371.532 166.39 371.106 166.39C370.679 166.39 370.339 166.523 370.086 166.79C369.839 167.05 369.716 167.427 369.716 167.92V171H368.586V167.92C368.586 167.427 368.462 167.05 368.216 166.79C367.969 166.523 367.632 166.39 367.206 166.39C366.779 166.39 366.439 166.523 366.186 166.79C365.939 167.05 365.816 167.427 365.816 167.92V171H364.676V165.49H365.816V166.12C366.002 165.893 366.239 165.717 366.526 165.59C366.812 165.463 367.119 165.4 367.446 165.4C367.886 165.4 368.279 165.493 368.626 165.68C368.972 165.867 369.239 166.137 369.426 166.49C369.592 166.157 369.852 165.893 370.206 165.7C370.559 165.5 370.939 165.4 371.346 165.4ZM376.206 166.3C376.4 166.047 376.663 165.833 376.996 165.66C377.33 165.487 377.706 165.4 378.126 165.4C378.606 165.4 379.043 165.52 379.436 165.76C379.836 165.993 380.15 166.323 380.376 166.75C380.603 167.177 380.716 167.667 380.716 168.22C380.716 168.773 380.603 169.27 380.376 169.71C380.15 170.143 379.836 170.483 379.436 170.73C379.043 170.97 378.606 171.09 378.126 171.09C377.706 171.09 377.333 171.007 377.006 170.84C376.68 170.667 376.413 170.453 376.206 170.2V173.62H375.066V165.49H376.206V166.3ZM379.556 168.22C379.556 167.84 379.476 167.513 379.316 167.24C379.163 166.96 378.956 166.75 378.696 166.61C378.443 166.463 378.17 166.39 377.876 166.39C377.59 166.39 377.316 166.463 377.056 166.61C376.803 166.757 376.596 166.97 376.436 167.25C376.283 167.53 376.206 167.86 376.206 168.24C376.206 168.62 376.283 168.953 376.436 169.24C376.596 169.52 376.803 169.733 377.056 169.88C377.316 170.027 377.59 170.1 377.876 170.1C378.17 170.1 378.443 170.027 378.696 169.88C378.956 169.727 379.163 169.507 379.316 169.22C379.476 168.933 379.556 168.6 379.556 168.22ZM386.894 168.11C386.894 168.317 386.88 168.503 386.854 168.67H382.644C382.677 169.11 382.84 169.463 383.134 169.73C383.427 169.997 383.787 170.13 384.214 170.13C384.827 170.13 385.26 169.873 385.514 169.36H386.744C386.577 169.867 386.274 170.283 385.834 170.61C385.4 170.93 384.86 171.09 384.214 171.09C383.687 171.09 383.214 170.973 382.794 170.74C382.38 170.5 382.054 170.167 381.814 169.74C381.58 169.307 381.464 168.807 381.464 168.24C381.464 167.673 381.577 167.177 381.804 166.75C382.037 166.317 382.36 165.983 382.774 165.75C383.194 165.517 383.674 165.4 384.214 165.4C384.734 165.4 385.197 165.513 385.604 165.74C386.01 165.967 386.327 166.287 386.554 166.7C386.78 167.107 386.894 167.577 386.894 168.11ZM385.704 167.75C385.697 167.33 385.547 166.993 385.254 166.74C384.96 166.487 384.597 166.36 384.164 166.36C383.77 166.36 383.434 166.487 383.154 166.74C382.874 166.987 382.707 167.323 382.654 167.75H385.704ZM389.156 166.29C389.322 166.01 389.542 165.793 389.816 165.64C390.096 165.48 390.426 165.4 390.806 165.4V166.58H390.516C390.069 166.58 389.729 166.693 389.496 166.92C389.269 167.147 389.156 167.54 389.156 168.1V171H388.016V165.49H389.156V166.29ZM391.474 168.22C391.474 167.667 391.587 167.177 391.814 166.75C392.047 166.323 392.36 165.993 392.754 165.76C393.154 165.52 393.594 165.4 394.074 165.4C394.507 165.4 394.884 165.487 395.204 165.66C395.53 165.827 395.79 166.037 395.984 166.29V165.49H397.134V171H395.984V170.18C395.79 170.44 395.527 170.657 395.194 170.83C394.86 171.003 394.48 171.09 394.054 171.09C393.58 171.09 393.147 170.97 392.754 170.73C392.36 170.483 392.047 170.143 391.814 169.71C391.587 169.27 391.474 168.773 391.474 168.22ZM395.984 168.24C395.984 167.86 395.904 167.53 395.744 167.25C395.59 166.97 395.387 166.757 395.134 166.61C394.88 166.463 394.607 166.39 394.314 166.39C394.02 166.39 393.747 166.463 393.494 166.61C393.24 166.75 393.034 166.96 392.874 167.24C392.72 167.513 392.644 167.84 392.644 168.22C392.644 168.6 392.72 168.933 392.874 169.22C393.034 169.507 393.24 169.727 393.494 169.88C393.754 170.027 394.027 170.1 394.314 170.1C394.607 170.1 394.88 170.027 395.134 169.88C395.387 169.733 395.59 169.52 395.744 169.24C395.904 168.953 395.984 168.62 395.984 168.24ZM399.771 166.29C399.938 166.01 400.158 165.793 400.431 165.64C400.711 165.48 401.041 165.4 401.421 165.4V166.58H401.131C400.684 166.58 400.344 166.693 400.111 166.92C399.884 167.147 399.771 167.54 399.771 168.1V171H398.631V165.49H399.771V166.29ZM407.519 168.11C407.519 168.317 407.505 168.503 407.479 168.67H403.269C403.302 169.11 403.465 169.463 403.759 169.73C404.052 169.997 404.412 170.13 404.839 170.13C405.452 170.13 405.885 169.873 406.139 169.36H407.369C407.202 169.867 406.899 170.283 406.459 170.61C406.025 170.93 405.485 171.09 404.839 171.09C404.312 171.09 403.839 170.973 403.419 170.74C403.005 170.5 402.679 170.167 402.439 169.74C402.205 169.307 402.089 168.807 402.089 168.24C402.089 167.673 402.202 167.177 402.429 166.75C402.662 166.317 402.985 165.983 403.399 165.75C403.819 165.517 404.299 165.4 404.839 165.4C405.359 165.4 405.822 165.513 406.229 165.74C406.635 165.967 406.952 166.287 407.179 166.7C407.405 167.107 407.519 167.577 407.519 168.11ZM406.329 167.75C406.322 167.33 406.172 166.993 405.879 166.74C405.585 166.487 405.222 166.36 404.789 166.36C404.395 166.36 404.059 166.487 403.779 166.74C403.499 166.987 403.332 167.323 403.279 167.75H406.329Z" fill="black"/>
<path d="M365.336 178.44V184H364.424V178.44H365.336ZM368.134 184.072C367.787 184.072 367.475 184.011 367.198 183.888C366.926 183.76 366.71 183.589 366.55 183.376C366.39 183.157 366.304 182.915 366.294 182.648H367.238C367.254 182.835 367.342 182.992 367.502 183.12C367.667 183.243 367.872 183.304 368.118 183.304C368.374 183.304 368.571 183.256 368.71 183.16C368.854 183.059 368.926 182.931 368.926 182.776C368.926 182.611 368.846 182.488 368.686 182.408C368.531 182.328 368.283 182.24 367.942 182.144C367.611 182.053 367.342 181.965 367.134 181.88C366.926 181.795 366.744 181.664 366.59 181.488C366.44 181.312 366.366 181.08 366.366 180.792C366.366 180.557 366.435 180.344 366.574 180.152C366.712 179.955 366.91 179.8 367.166 179.688C367.427 179.576 367.726 179.52 368.062 179.52C368.563 179.52 368.966 179.648 369.27 179.904C369.579 180.155 369.744 180.499 369.766 180.936H368.854C368.838 180.739 368.758 180.581 368.614 180.464C368.47 180.347 368.275 180.288 368.03 180.288C367.79 180.288 367.606 180.333 367.478 180.424C367.35 180.515 367.286 180.635 367.286 180.784C367.286 180.901 367.328 181 367.414 181.08C367.499 181.16 367.603 181.224 367.726 181.272C367.848 181.315 368.03 181.371 368.27 181.44C368.59 181.525 368.851 181.613 369.054 181.704C369.262 181.789 369.44 181.917 369.59 182.088C369.739 182.259 369.816 182.485 369.822 182.768C369.822 183.019 369.752 183.243 369.614 183.44C369.475 183.637 369.278 183.792 369.022 183.904C368.771 184.016 368.475 184.072 368.134 184.072ZM372.719 184.072C372.303 184.072 371.927 183.979 371.591 183.792C371.255 183.6 370.991 183.333 370.799 182.992C370.607 182.645 370.511 182.245 370.511 181.792C370.511 181.344 370.61 180.947 370.807 180.6C371.004 180.253 371.274 179.987 371.615 179.8C371.956 179.613 372.338 179.52 372.759 179.52C373.18 179.52 373.562 179.613 373.903 179.8C374.244 179.987 374.514 180.253 374.711 180.6C374.908 180.947 375.007 181.344 375.007 181.792C375.007 182.24 374.906 182.637 374.703 182.984C374.5 183.331 374.223 183.6 373.871 183.792C373.524 183.979 373.14 184.072 372.719 184.072ZM372.719 183.28C372.954 183.28 373.172 183.224 373.375 183.112C373.583 183 373.751 182.832 373.879 182.608C374.007 182.384 374.071 182.112 374.071 181.792C374.071 181.472 374.01 181.203 373.887 180.984C373.764 180.76 373.602 180.592 373.399 180.48C373.196 180.368 372.978 180.312 372.743 180.312C372.508 180.312 372.29 180.368 372.087 180.48C371.89 180.592 371.732 180.76 371.615 180.984C371.498 181.203 371.439 181.472 371.439 181.792C371.439 182.267 371.559 182.635 371.799 182.896C372.044 183.152 372.351 183.28 372.719 183.28ZM376.821 178.08V184H375.909V178.08H376.821ZM377.714 181.776C377.714 181.333 377.805 180.941 377.986 180.6C378.173 180.259 378.423 179.995 378.738 179.808C379.058 179.616 379.41 179.52 379.794 179.52C380.141 179.52 380.442 179.589 380.698 179.728C380.959 179.861 381.167 180.029 381.322 180.232V179.592H382.242V184H381.322V183.344C381.167 183.552 380.957 183.725 380.69 183.864C380.423 184.003 380.119 184.072 379.778 184.072C379.399 184.072 379.053 183.976 378.738 183.784C378.423 183.587 378.173 183.315 377.986 182.968C377.805 182.616 377.714 182.219 377.714 181.776ZM381.322 181.792C381.322 181.488 381.258 181.224 381.13 181C381.007 180.776 380.845 180.605 380.642 180.488C380.439 180.371 380.221 180.312 379.986 180.312C379.751 180.312 379.533 180.371 379.33 180.488C379.127 180.6 378.962 180.768 378.834 180.992C378.711 181.211 378.65 181.472 378.65 181.776C378.65 182.08 378.711 182.347 378.834 182.576C378.962 182.805 379.127 182.981 379.33 183.104C379.538 183.221 379.757 183.28 379.986 183.28C380.221 183.28 380.439 183.221 380.642 183.104C380.845 182.987 381.007 182.816 381.13 182.592C381.258 182.363 381.322 182.096 381.322 181.792ZM384.504 180.336V182.776C384.504 182.941 384.541 183.061 384.616 183.136C384.696 183.205 384.829 183.24 385.016 183.24H385.576V184H384.856C384.445 184 384.131 183.904 383.912 183.712C383.693 183.52 383.584 183.208 383.584 182.776V180.336H383.064V179.592H383.584V178.496H384.504V179.592H385.576V180.336H384.504ZM390.456 181.688C390.456 181.853 390.446 182.003 390.424 182.136H387.056C387.083 182.488 387.214 182.771 387.448 182.984C387.683 183.197 387.971 183.304 388.312 183.304C388.803 183.304 389.15 183.099 389.352 182.688H390.336C390.203 183.093 389.96 183.427 389.608 183.688C389.262 183.944 388.83 184.072 388.312 184.072C387.891 184.072 387.512 183.979 387.176 183.792C386.846 183.6 386.584 183.333 386.392 182.992C386.206 182.645 386.112 182.245 386.112 181.792C386.112 181.339 386.203 180.941 386.384 180.6C386.571 180.253 386.83 179.987 387.16 179.8C387.496 179.613 387.88 179.52 388.312 179.52C388.728 179.52 389.099 179.611 389.424 179.792C389.75 179.973 390.003 180.229 390.184 180.56C390.366 180.885 390.456 181.261 390.456 181.688ZM389.504 181.4C389.499 181.064 389.379 180.795 389.144 180.592C388.91 180.389 388.619 180.288 388.272 180.288C387.958 180.288 387.688 180.389 387.464 180.592C387.24 180.789 387.107 181.059 387.064 181.4H389.504ZM391.05 181.776C391.05 181.333 391.141 180.941 391.322 180.6C391.509 180.259 391.759 179.995 392.074 179.808C392.394 179.616 392.749 179.52 393.138 179.52C393.426 179.52 393.709 179.584 393.986 179.712C394.269 179.835 394.493 180 394.658 180.208V178.08H395.578V184H394.658V183.336C394.509 183.549 394.301 183.725 394.034 183.864C393.773 184.003 393.471 184.072 393.13 184.072C392.746 184.072 392.394 183.976 392.074 183.784C391.759 183.587 391.509 183.315 391.322 182.968C391.141 182.616 391.05 182.219 391.05 181.776ZM394.658 181.792C394.658 181.488 394.594 181.224 394.466 181C394.343 180.776 394.181 180.605 393.978 180.488C393.775 180.371 393.557 180.312 393.322 180.312C393.087 180.312 392.869 180.371 392.666 180.488C392.463 180.6 392.298 180.768 392.17 180.992C392.047 181.211 391.986 181.472 391.986 181.776C391.986 182.08 392.047 182.347 392.17 182.576C392.298 182.805 392.463 182.981 392.666 183.104C392.874 183.221 393.093 183.28 393.322 183.28C393.557 183.28 393.775 183.221 393.978 183.104C394.181 182.987 394.343 182.816 394.466 182.592C394.594 182.363 394.658 182.096 394.658 181.792Z" fill="#808080"/>
<rect x="305" y="235" width="150" height="20" rx="10" fill="black" fill-opacity="0.1"/>
</svg>
