<svg xmlns="http://www.w3.org/2000/svg" fill="none" viewBox="0 0 60 80" height="80" width="60">
<path fill="#FF5A5A" d="M31.6096 52C31.1296 52 30.7096 51.82 30.3496 51.46C29.9896 51.1 29.8096 50.668 29.8096 50.164V28.204L27.1816 29.32C26.7736 29.488 26.3896 29.572 26.0296 29.572C25.5016 29.572 25.0576 29.404 24.6976 29.068C24.3616 28.732 24.1936 28.3 24.1936 27.772C24.1936 27.388 24.2896 27.04 24.4816 26.728C24.6736 26.416 24.9736 26.188 25.3816 26.044L30.9976 24.028C31.1176 23.98 31.2376 23.944 31.3576 23.92C31.4776 23.896 31.5856 23.884 31.6816 23.884C32.2336 23.884 32.6656 24.064 32.9776 24.424C33.3136 24.76 33.4816 25.204 33.4816 25.756V50.164C33.4816 50.668 33.3016 51.1 32.9416 51.46C32.5816 51.82 32.1376 52 31.6096 52Z"></path>
<path fill="#FF5A5A" d="M29.8096 28.204H30.8096C30.8096 27.8684 30.6413 27.5553 30.3615 27.3701C30.0816 27.1849 29.7276 27.1524 29.4187 27.2836L29.8096 28.204ZM27.1816 29.32L27.5624 30.2447L27.5725 30.2404L27.1816 29.32ZM24.6976 29.068L23.9905 29.7751C23.9986 29.7832 24.0069 29.7912 24.0153 29.7991L24.6976 29.068ZM25.3816 26.044L25.7144 26.987L25.7195 26.9852L25.3816 26.044ZM30.9976 24.028L31.3355 24.9692C31.3467 24.9652 31.3579 24.9609 31.369 24.9565L30.9976 24.028ZM32.9776 24.424L32.2219 25.0789C32.2375 25.0969 32.2537 25.1143 32.2705 25.1311L32.9776 24.424ZM32.9416 51.46L33.6487 52.1671L33.6487 52.1671L32.9416 51.46ZM31.6096 51C31.4121 51 31.2418 50.938 31.0567 50.7529L29.6425 52.1671C30.1774 52.702 30.847 53 31.6096 53V51ZM31.0567 50.7529C30.8821 50.5783 30.8096 50.3998 30.8096 50.164H28.8096C28.8096 50.9362 29.0971 51.6217 29.6425 52.1671L31.0567 50.7529ZM30.8096 50.164V28.204H28.8096V50.164H30.8096ZM29.4187 27.2836L26.7907 28.3996L27.5725 30.2404L30.2005 29.1244L29.4187 27.2836ZM26.8008 28.3953C26.4871 28.5245 26.2331 28.572 26.0296 28.572V30.572C26.5461 30.572 27.06 30.4515 27.5623 30.2447L26.8008 28.3953ZM26.0296 28.572C25.7349 28.572 25.5406 28.4869 25.3799 28.3369L24.0153 29.7991C24.5746 30.3211 25.2683 30.572 26.0296 30.572V28.572ZM25.4047 28.3609C25.2779 28.2341 25.1936 28.0671 25.1936 27.772H23.1936C23.1936 28.5329 23.4453 29.2299 23.9905 29.7751L25.4047 28.3609ZM25.1936 27.772C25.1936 27.5637 25.243 27.3987 25.3333 27.2521L23.6299 26.2039C23.3362 26.6813 23.1936 27.2123 23.1936 27.772H25.1936ZM25.3333 27.2521C25.3845 27.1689 25.4814 27.0692 25.7144 26.987L25.0488 25.101C24.4658 25.3068 23.9627 25.6631 23.6299 26.2039L25.3333 27.2521ZM25.7195 26.9852L31.3355 24.9692L30.6597 23.0868L25.0437 25.1028L25.7195 26.9852ZM31.369 24.9565C31.4354 24.9299 31.4968 24.912 31.5537 24.9006L31.1615 22.9394C30.9783 22.976 30.7998 23.0301 30.6262 23.0995L31.369 24.9565ZM31.5537 24.9006C31.6258 24.8862 31.6665 24.884 31.6816 24.884V22.884C31.5047 22.884 31.3294 22.9058 31.1615 22.9394L31.5537 24.9006ZM31.6816 24.884C31.9946 24.884 32.1309 24.9739 32.2219 25.0789L33.7333 23.7691C33.2003 23.1541 32.4726 22.884 31.6816 22.884V24.884ZM32.2705 25.1311C32.3885 25.2492 32.4816 25.4229 32.4816 25.756H34.4816C34.4816 24.9851 34.2387 24.2708 33.6847 23.7169L32.2705 25.1311ZM32.4816 25.756V50.164H34.4816V25.756H32.4816ZM32.4816 50.164C32.4816 50.3998 32.4091 50.5783 32.2345 50.7529L33.6487 52.1671C34.1941 51.6217 34.4816 50.9362 34.4816 50.164H32.4816ZM32.2345 50.7529C32.0697 50.9177 31.8834 51 31.6096 51V53C32.3918 53 33.0935 52.7223 33.6487 52.1671L32.2345 50.7529Z"></path>
</svg>
