<svg width="80" height="28" viewBox="0 0 80 28" fill="none" xmlns="http://www.w3.org/2000/svg">
<rect width="80" height="28" rx="5" fill="#E6E6E6"/>
<path d="M11.89 13.3C12.0833 13.0467 12.3467 12.8333 12.68 12.66C13.0133 12.4867 13.39 12.4 13.81 12.4C14.29 12.4 14.7267 12.52 15.12 12.76C15.52 12.9933 15.8333 13.3233 16.06 13.75C16.2867 14.1767 16.4 14.6667 16.4 15.22C16.4 15.7733 16.2867 16.27 16.06 16.71C15.8333 17.1433 15.52 17.4833 15.12 17.73C14.7267 17.97 14.29 18.09 13.81 18.09C13.39 18.09 13.0167 18.0067 12.69 17.84C12.3633 17.6667 12.0967 17.4533 11.89 17.2V20.62H10.75V12.49H11.89V13.3ZM15.24 15.22C15.24 14.84 15.16 14.5133 15 14.24C14.8467 13.96 14.64 13.75 14.38 13.61C14.1267 13.4633 13.8533 13.39 13.56 13.39C13.2733 13.39 13 13.4633 12.74 13.61C12.4867 13.7567 12.28 13.97 12.12 14.25C11.9667 14.53 11.89 14.86 11.89 15.24C11.89 15.62 11.9667 15.9533 12.12 16.24C12.28 16.52 12.4867 16.7333 12.74 16.88C13 17.0267 13.2733 17.1 13.56 17.1C13.8533 17.1 14.1267 17.0267 14.38 16.88C14.64 16.7267 14.8467 16.5067 15 16.22C15.16 15.9333 15.24 15.6 15.24 15.22ZM18.6673 10.6V18H17.5273V10.6H18.6673ZM19.7841 15.22C19.7841 14.6667 19.8974 14.1767 20.1241 13.75C20.3574 13.3233 20.6707 12.9933 21.0641 12.76C21.4641 12.52 21.9041 12.4 22.3841 12.4C22.8174 12.4 23.1941 12.4867 23.5141 12.66C23.8407 12.8267 24.1007 13.0367 24.2941 13.29V12.49H25.4441V18H24.2941V17.18C24.1007 17.44 23.8374 17.6567 23.5041 17.83C23.1707 18.0033 22.7907 18.09 22.3641 18.09C21.8907 18.09 21.4574 17.97 21.0641 17.73C20.6707 17.4833 20.3574 17.1433 20.1241 16.71C19.8974 16.27 19.7841 15.7733 19.7841 15.22ZM24.2941 15.24C24.2941 14.86 24.2141 14.53 24.0541 14.25C23.9007 13.97 23.6974 13.7567 23.4441 13.61C23.1907 13.4633 22.9174 13.39 22.6241 13.39C22.3307 13.39 22.0574 13.4633 21.8041 13.61C21.5507 13.75 21.3441 13.96 21.1841 14.24C21.0307 14.5133 20.9541 14.84 20.9541 15.22C20.9541 15.6 21.0307 15.9333 21.1841 16.22C21.3441 16.5067 21.5507 16.7267 21.8041 16.88C22.0641 17.0267 22.3374 17.1 22.6241 17.1C22.9174 17.1 23.1907 17.0267 23.4441 16.88C23.6974 16.7333 23.9007 16.52 24.0541 16.24C24.2141 15.9533 24.2941 15.62 24.2941 15.24ZM31.9014 12.49L28.5214 20.59H27.3414L28.4614 17.91L26.2914 12.49H27.5614L29.1114 16.69L30.7214 12.49H31.9014Z" fill="black"/>
</svg>
