<svg width="480" height="360" viewBox="0 0 480 360" fill="none" xmlns="http://www.w3.org/2000/svg">
<rect x="160" y="140" width="310" height="30" rx="15" fill="white" fill-opacity="0.1"/>
<path d="M291.07 150.66V155.976C291.07 156.608 291.234 157.084 291.562 157.404C291.898 157.724 292.362 157.884 292.954 157.884C293.554 157.884 294.018 157.724 294.346 157.404C294.682 157.084 294.85 156.608 294.85 155.976V150.66H296.218V155.952C296.218 156.632 296.07 157.208 295.774 157.68C295.478 158.152 295.082 158.504 294.586 158.736C294.09 158.968 293.542 159.084 292.942 159.084C292.342 159.084 291.794 158.968 291.298 158.736C290.81 158.504 290.422 158.152 290.134 157.68C289.846 157.208 289.702 156.632 289.702 155.952V150.66H291.07ZM301.336 152.28C301.856 152.28 302.32 152.388 302.728 152.604C303.144 152.82 303.468 153.14 303.7 153.564C303.932 153.988 304.048 154.5 304.048 155.1V159H302.692V155.304C302.692 154.712 302.544 154.26 302.248 153.948C301.952 153.628 301.548 153.468 301.036 153.468C300.524 153.468 300.116 153.628 299.812 153.948C299.516 154.26 299.368 154.712 299.368 155.304V159H298V152.388H299.368V153.144C299.592 152.872 299.876 152.66 300.22 152.508C300.572 152.356 300.944 152.28 301.336 152.28ZM306.489 151.512C306.241 151.512 306.033 151.428 305.865 151.26C305.697 151.092 305.613 150.884 305.613 150.636C305.613 150.388 305.697 150.18 305.865 150.012C306.033 149.844 306.241 149.76 306.489 149.76C306.729 149.76 306.933 149.844 307.101 150.012C307.269 150.18 307.353 150.388 307.353 150.636C307.353 150.884 307.269 151.092 307.101 151.26C306.933 151.428 306.729 151.512 306.489 151.512ZM307.161 152.388V159H305.793V152.388H307.161ZM312.293 152.28C312.813 152.28 313.277 152.388 313.685 152.604C314.101 152.82 314.425 153.14 314.657 153.564C314.889 153.988 315.005 154.5 315.005 155.1V159H313.649V155.304C313.649 154.712 313.501 154.26 313.205 153.948C312.909 153.628 312.505 153.468 311.993 153.468C311.481 153.468 311.073 153.628 310.769 153.948C310.473 154.26 310.325 154.712 310.325 155.304V159H308.957V152.388H310.325V153.144C310.549 152.872 310.833 152.66 311.177 152.508C311.529 152.356 311.901 152.28 312.293 152.28ZM319.15 159.108C318.63 159.108 318.162 159.016 317.746 158.832C317.338 158.64 317.014 158.384 316.774 158.064C316.534 157.736 316.406 157.372 316.39 156.972H317.806C317.83 157.252 317.962 157.488 318.202 157.68C318.45 157.864 318.758 157.956 319.126 157.956C319.51 157.956 319.806 157.884 320.014 157.74C320.23 157.588 320.338 157.396 320.338 157.164C320.338 156.916 320.218 156.732 319.978 156.612C319.746 156.492 319.374 156.36 318.862 156.216C318.366 156.08 317.962 155.948 317.65 155.82C317.338 155.692 317.066 155.496 316.834 155.232C316.61 154.968 316.498 154.62 316.498 154.188C316.498 153.836 316.602 153.516 316.81 153.228C317.018 152.932 317.314 152.7 317.698 152.532C318.09 152.364 318.538 152.28 319.042 152.28C319.794 152.28 320.398 152.472 320.854 152.856C321.318 153.232 321.566 153.748 321.598 154.404H320.23C320.206 154.108 320.086 153.872 319.87 153.696C319.654 153.52 319.362 153.432 318.994 153.432C318.634 153.432 318.358 153.5 318.166 153.636C317.974 153.772 317.878 153.952 317.878 154.176C317.878 154.352 317.942 154.5 318.07 154.62C318.198 154.74 318.354 154.836 318.538 154.908C318.722 154.972 318.994 155.056 319.354 155.16C319.834 155.288 320.226 155.42 320.53 155.556C320.842 155.684 321.11 155.876 321.334 156.132C321.558 156.388 321.674 156.728 321.682 157.152C321.682 157.528 321.578 157.864 321.37 158.16C321.162 158.456 320.866 158.688 320.482 158.856C320.106 159.024 319.662 159.108 319.15 159.108ZM324.756 153.504V157.164C324.756 157.412 324.812 157.592 324.924 157.704C325.044 157.808 325.244 157.86 325.524 157.86H326.364V159H325.284C324.668 159 324.196 158.856 323.868 158.568C323.54 158.28 323.376 157.812 323.376 157.164V153.504H322.596V152.388H323.376V150.744H324.756V152.388H326.364V153.504H324.756ZM327.169 155.664C327.169 155 327.305 154.412 327.577 153.9C327.857 153.388 328.233 152.992 328.705 152.712C329.185 152.424 329.713 152.28 330.289 152.28C330.809 152.28 331.261 152.384 331.645 152.592C332.037 152.792 332.349 153.044 332.581 153.348V152.388H333.961V159H332.581V158.016C332.349 158.328 332.033 158.588 331.633 158.796C331.233 159.004 330.777 159.108 330.265 159.108C329.697 159.108 329.177 158.964 328.705 158.676C328.233 158.38 327.857 157.972 327.577 157.452C327.305 156.924 327.169 156.328 327.169 155.664ZM332.581 155.688C332.581 155.232 332.485 154.836 332.293 154.5C332.109 154.164 331.865 153.908 331.561 153.732C331.257 153.556 330.929 153.468 330.577 153.468C330.225 153.468 329.897 153.556 329.593 153.732C329.289 153.9 329.041 154.152 328.849 154.488C328.665 154.816 328.573 155.208 328.573 155.664C328.573 156.12 328.665 156.52 328.849 156.864C329.041 157.208 329.289 157.472 329.593 157.656C329.905 157.832 330.233 157.92 330.577 157.92C330.929 157.92 331.257 157.832 331.561 157.656C331.865 157.48 332.109 157.224 332.293 156.888C332.485 156.544 332.581 156.144 332.581 155.688ZM337.125 150.12V159H335.757V150.12H337.125ZM340.289 150.12V159H338.921V150.12H340.289Z" fill="white"/>
</svg>
