<svg width="480" height="360" viewBox="0 0 480 360" fill="none" xmlns="http://www.w3.org/2000/svg">
<g clip-path="url(#clip0_156_514)">
<path d="M176.272 31.112C175.237 31.112 174.283 30.872 173.408 30.392C172.544 29.9013 171.856 29.224 171.344 28.36C170.843 27.4853 170.592 26.504 170.592 25.416C170.592 24.328 170.843 23.352 171.344 22.488C171.856 21.624 172.544 20.952 173.408 20.472C174.283 19.9813 175.237 19.736 176.272 19.736C177.317 19.736 178.272 19.9813 179.136 20.472C180.011 20.952 180.699 21.624 181.2 22.488C181.701 23.352 181.952 24.328 181.952 25.416C181.952 26.504 181.701 27.4853 181.2 28.36C180.699 29.224 180.011 29.9013 179.136 30.392C178.272 30.872 177.317 31.112 176.272 31.112ZM176.272 29.528C177.008 29.528 177.664 29.3627 178.24 29.032C178.816 28.6907 179.264 28.2107 179.584 27.592C179.915 26.9627 180.08 26.2373 180.08 25.416C180.08 24.5947 179.915 23.8747 179.584 23.256C179.264 22.6373 178.816 22.1627 178.24 21.832C177.664 21.5013 177.008 21.336 176.272 21.336C175.536 21.336 174.88 21.5013 174.304 21.832C173.728 22.1627 173.275 22.6373 172.944 23.256C172.624 23.8747 172.464 24.5947 172.464 25.416C172.464 26.2373 172.624 26.9627 172.944 27.592C173.275 28.2107 173.728 28.6907 174.304 29.032C174.88 29.3627 175.536 29.528 176.272 29.528ZM185.571 23.48C185.88 23.0747 186.302 22.7333 186.835 22.456C187.368 22.1787 187.971 22.04 188.643 22.04C189.411 22.04 190.11 22.232 190.739 22.616C191.379 22.9893 191.88 23.5173 192.243 24.2C192.606 24.8827 192.787 25.6667 192.787 26.552C192.787 27.4373 192.606 28.232 192.243 28.936C191.88 29.6293 191.379 30.1733 190.739 30.568C190.11 30.952 189.411 31.144 188.643 31.144C187.971 31.144 187.374 31.0107 186.851 30.744C186.328 30.4667 185.902 30.1253 185.571 29.72V35.192H183.747V22.184H185.571V23.48ZM190.931 26.552C190.931 25.944 190.803 25.4213 190.547 24.984C190.302 24.536 189.971 24.2 189.555 23.976C189.15 23.7413 188.712 23.624 188.243 23.624C187.784 23.624 187.347 23.7413 186.931 23.976C186.526 24.2107 186.195 24.552 185.939 25C185.694 25.448 185.571 25.976 185.571 26.584C185.571 27.192 185.694 27.7253 185.939 28.184C186.195 28.632 186.526 28.9733 186.931 29.208C187.347 29.4427 187.784 29.56 188.243 29.56C188.712 29.56 189.15 29.4427 189.555 29.208C189.971 28.9627 190.302 28.6107 190.547 28.152C190.803 27.6933 190.931 27.16 190.931 26.552ZM202.671 26.376C202.671 26.7067 202.649 27.0053 202.607 27.272H195.871C195.924 27.976 196.185 28.5413 196.655 28.968C197.124 29.3947 197.7 29.608 198.383 29.608C199.364 29.608 200.057 29.1973 200.463 28.376H202.431C202.164 29.1867 201.679 29.8533 200.975 30.376C200.281 30.888 199.417 31.144 198.383 31.144C197.54 31.144 196.783 30.9573 196.111 30.584C195.449 30.2 194.927 29.6667 194.543 28.984C194.169 28.2907 193.983 27.4907 193.983 26.584C193.983 25.6773 194.164 24.8827 194.527 24.2C194.9 23.5067 195.417 22.9733 196.079 22.6C196.751 22.2267 197.519 22.04 198.383 22.04C199.215 22.04 199.956 22.2213 200.607 22.584C201.257 22.9467 201.764 23.4587 202.127 24.12C202.489 24.7707 202.671 25.5227 202.671 26.376ZM200.767 25.8C200.756 25.128 200.516 24.5893 200.047 24.184C199.577 23.7787 198.996 23.576 198.303 23.576C197.673 23.576 197.135 23.7787 196.687 24.184C196.239 24.5787 195.972 25.1173 195.887 25.8H200.767ZM208.914 22.04C209.607 22.04 210.226 22.184 210.77 22.472C211.324 22.76 211.756 23.1867 212.066 23.752C212.375 24.3173 212.53 25 212.53 25.8V31H210.722V26.072C210.722 25.2827 210.524 24.68 210.13 24.264C209.735 23.8373 209.196 23.624 208.514 23.624C207.831 23.624 207.287 23.8373 206.882 24.264C206.487 24.68 206.29 25.2827 206.29 26.072V31H204.466V22.184H206.29V23.192C206.588 22.8293 206.967 22.5467 207.426 22.344C207.895 22.1413 208.391 22.04 208.914 22.04Z" fill="white"/>
<path d="M177.752 69H176.384L172.268 62.772V69H170.9V60.648H172.268L176.384 66.864V60.648H177.752V69ZM179.092 65.664C179.092 65 179.228 64.412 179.5 63.9C179.78 63.388 180.156 62.992 180.628 62.712C181.108 62.424 181.636 62.28 182.212 62.28C182.732 62.28 183.184 62.384 183.568 62.592C183.96 62.792 184.272 63.044 184.504 63.348V62.388H185.884V69H184.504V68.016C184.272 68.328 183.956 68.588 183.556 68.796C183.156 69.004 182.7 69.108 182.188 69.108C181.62 69.108 181.1 68.964 180.628 68.676C180.156 68.38 179.78 67.972 179.5 67.452C179.228 66.924 179.092 66.328 179.092 65.664ZM184.504 65.688C184.504 65.232 184.408 64.836 184.216 64.5C184.032 64.164 183.788 63.908 183.484 63.732C183.18 63.556 182.852 63.468 182.5 63.468C182.148 63.468 181.82 63.556 181.516 63.732C181.212 63.9 180.964 64.152 180.772 64.488C180.588 64.816 180.496 65.208 180.496 65.664C180.496 66.12 180.588 66.52 180.772 66.864C180.964 67.208 181.212 67.472 181.516 67.656C181.828 67.832 182.156 67.92 182.5 67.92C182.852 67.92 183.18 67.832 183.484 67.656C183.788 67.48 184.032 67.224 184.216 66.888C184.408 66.544 184.504 66.144 184.504 65.688ZM195.685 62.28C196.205 62.28 196.669 62.388 197.077 62.604C197.493 62.82 197.817 63.14 198.049 63.564C198.289 63.988 198.409 64.5 198.409 65.1V69H197.053V65.304C197.053 64.712 196.905 64.26 196.609 63.948C196.313 63.628 195.909 63.468 195.397 63.468C194.885 63.468 194.477 63.628 194.173 63.948C193.877 64.26 193.729 64.712 193.729 65.304V69H192.373V65.304C192.373 64.712 192.225 64.26 191.929 63.948C191.633 63.628 191.229 63.468 190.717 63.468C190.205 63.468 189.797 63.628 189.493 63.948C189.197 64.26 189.049 64.712 189.049 65.304V69H187.681V62.388H189.049V63.144C189.273 62.872 189.557 62.66 189.901 62.508C190.245 62.356 190.613 62.28 191.005 62.28C191.533 62.28 192.005 62.392 192.421 62.616C192.837 62.84 193.157 63.164 193.381 63.588C193.581 63.188 193.893 62.872 194.317 62.64C194.741 62.4 195.197 62.28 195.685 62.28ZM206.21 65.532C206.21 65.78 206.194 66.004 206.162 66.204H201.11C201.15 66.732 201.346 67.156 201.698 67.476C202.05 67.796 202.482 67.956 202.994 67.956C203.73 67.956 204.25 67.648 204.554 67.032H206.03C205.83 67.64 205.466 68.14 204.938 68.532C204.418 68.916 203.77 69.108 202.994 69.108C202.362 69.108 201.794 68.968 201.29 68.688C200.794 68.4 200.402 68 200.114 67.488C199.834 66.968 199.694 66.368 199.694 65.688C199.694 65.008 199.83 64.412 200.102 63.9C200.382 63.38 200.77 62.98 201.266 62.7C201.77 62.42 202.346 62.28 202.994 62.28C203.618 62.28 204.174 62.416 204.662 62.688C205.15 62.96 205.53 63.344 205.802 63.84C206.074 64.328 206.21 64.892 206.21 65.532ZM204.782 65.1C204.774 64.596 204.594 64.192 204.242 63.888C203.89 63.584 203.454 63.432 202.934 63.432C202.462 63.432 202.058 63.584 201.722 63.888C201.386 64.184 201.186 64.588 201.122 65.1H204.782Z" fill="white"/>
<path d="M302.624 60.66C303.512 60.66 304.288 60.832 304.952 61.176C305.624 61.512 306.14 62 306.5 62.64C306.868 63.272 307.052 64.012 307.052 64.86C307.052 65.708 306.868 66.444 306.5 67.068C306.14 67.692 305.624 68.172 304.952 68.508C304.288 68.836 303.512 69 302.624 69H299.9V60.66H302.624ZM302.624 67.884C303.6 67.884 304.348 67.62 304.868 67.092C305.388 66.564 305.648 65.82 305.648 64.86C305.648 63.892 305.388 63.136 304.868 62.592C304.348 62.048 303.6 61.776 302.624 61.776H301.268V67.884H302.624ZM307.952 65.664C307.952 65 308.088 64.412 308.36 63.9C308.64 63.388 309.016 62.992 309.488 62.712C309.968 62.424 310.496 62.28 311.072 62.28C311.592 62.28 312.044 62.384 312.428 62.592C312.82 62.792 313.132 63.044 313.364 63.348V62.388H314.744V69H313.364V68.016C313.132 68.328 312.816 68.588 312.416 68.796C312.016 69.004 311.56 69.108 311.048 69.108C310.48 69.108 309.96 68.964 309.488 68.676C309.016 68.38 308.64 67.972 308.36 67.452C308.088 66.924 307.952 66.328 307.952 65.664ZM313.364 65.688C313.364 65.232 313.268 64.836 313.076 64.5C312.892 64.164 312.648 63.908 312.344 63.732C312.04 63.556 311.712 63.468 311.36 63.468C311.008 63.468 310.68 63.556 310.376 63.732C310.072 63.9 309.824 64.152 309.632 64.488C309.448 64.816 309.356 65.208 309.356 65.664C309.356 66.12 309.448 66.52 309.632 66.864C309.824 67.208 310.072 67.472 310.376 67.656C310.688 67.832 311.016 67.92 311.36 67.92C311.712 67.92 312.04 67.832 312.344 67.656C312.648 67.48 312.892 67.224 313.076 66.888C313.268 66.544 313.364 66.144 313.364 65.688ZM318.137 63.504V67.164C318.137 67.412 318.193 67.592 318.305 67.704C318.425 67.808 318.625 67.86 318.905 67.86H319.745V69H318.665C318.049 69 317.577 68.856 317.249 68.568C316.921 68.28 316.757 67.812 316.757 67.164V63.504H315.977V62.388H316.757V60.744H318.137V62.388H319.745V63.504H318.137ZM327.065 65.532C327.065 65.78 327.049 66.004 327.017 66.204H321.965C322.005 66.732 322.201 67.156 322.553 67.476C322.905 67.796 323.337 67.956 323.849 67.956C324.585 67.956 325.105 67.648 325.409 67.032H326.885C326.685 67.64 326.321 68.14 325.793 68.532C325.273 68.916 324.625 69.108 323.849 69.108C323.217 69.108 322.649 68.968 322.145 68.688C321.649 68.4 321.257 68 320.969 67.488C320.689 66.968 320.549 66.368 320.549 65.688C320.549 65.008 320.685 64.412 320.957 63.9C321.237 63.38 321.625 62.98 322.121 62.7C322.625 62.42 323.201 62.28 323.849 62.28C324.473 62.28 325.029 62.416 325.517 62.688C326.005 62.96 326.385 63.344 326.657 63.84C326.929 64.328 327.065 64.892 327.065 65.532ZM325.637 65.1C325.629 64.596 325.449 64.192 325.097 63.888C324.745 63.584 324.309 63.432 323.789 63.432C323.317 63.432 322.913 63.584 322.577 63.888C322.241 64.184 322.041 64.588 321.977 65.1H325.637Z" fill="white"/>
<path d="M387.648 69.084C387.088 69.084 386.584 68.988 386.136 68.796C385.688 68.596 385.336 68.316 385.08 67.956C384.824 67.596 384.696 67.176 384.696 66.696H386.16C386.192 67.056 386.332 67.352 386.58 67.584C386.836 67.816 387.192 67.932 387.648 67.932C388.12 67.932 388.488 67.82 388.752 67.596C389.016 67.364 389.148 67.068 389.148 66.708C389.148 66.428 389.064 66.2 388.896 66.024C388.736 65.848 388.532 65.712 388.284 65.616C388.044 65.52 387.708 65.416 387.276 65.304C386.732 65.16 386.288 65.016 385.944 64.872C385.608 64.72 385.32 64.488 385.08 64.176C384.84 63.864 384.72 63.448 384.72 62.928C384.72 62.448 384.84 62.028 385.08 61.668C385.32 61.308 385.656 61.032 386.088 60.84C386.52 60.648 387.02 60.552 387.588 60.552C388.396 60.552 389.056 60.756 389.568 61.164C390.088 61.564 390.376 62.116 390.432 62.82H388.92C388.896 62.516 388.752 62.256 388.488 62.04C388.224 61.824 387.876 61.716 387.444 61.716C387.052 61.716 386.732 61.816 386.484 62.016C386.236 62.216 386.112 62.504 386.112 62.88C386.112 63.136 386.188 63.348 386.34 63.516C386.5 63.676 386.7 63.804 386.94 63.9C387.18 63.996 387.508 64.1 387.924 64.212C388.476 64.364 388.924 64.516 389.268 64.668C389.62 64.82 389.916 65.056 390.156 65.376C390.404 65.688 390.528 66.108 390.528 66.636C390.528 67.06 390.412 67.46 390.18 67.836C389.956 68.212 389.624 68.516 389.184 68.748C388.752 68.972 388.24 69.084 387.648 69.084ZM392.838 61.512C392.59 61.512 392.382 61.428 392.214 61.26C392.046 61.092 391.962 60.884 391.962 60.636C391.962 60.388 392.046 60.18 392.214 60.012C392.382 59.844 392.59 59.76 392.838 59.76C393.078 59.76 393.282 59.844 393.45 60.012C393.618 60.18 393.702 60.388 393.702 60.636C393.702 60.884 393.618 61.092 393.45 61.26C393.282 61.428 393.078 61.512 392.838 61.512ZM393.51 62.388V69H392.142V62.388H393.51ZM396.518 67.884H399.518V69H394.934V67.884L397.946 63.504H394.934V62.388H399.518V63.504L396.518 67.884ZM407.015 65.532C407.015 65.78 406.999 66.004 406.967 66.204H401.915C401.955 66.732 402.151 67.156 402.503 67.476C402.855 67.796 403.287 67.956 403.799 67.956C404.535 67.956 405.055 67.648 405.359 67.032H406.835C406.635 67.64 406.271 68.14 405.743 68.532C405.223 68.916 404.575 69.108 403.799 69.108C403.167 69.108 402.599 68.968 402.095 68.688C401.599 68.4 401.207 68 400.919 67.488C400.639 66.968 400.499 66.368 400.499 65.688C400.499 65.008 400.635 64.412 400.907 63.9C401.187 63.38 401.575 62.98 402.071 62.7C402.575 62.42 403.151 62.28 403.799 62.28C404.423 62.28 404.979 62.416 405.467 62.688C405.955 62.96 406.335 63.344 406.607 63.84C406.879 64.328 407.015 64.892 407.015 65.532ZM405.587 65.1C405.579 64.596 405.399 64.192 405.047 63.888C404.695 63.584 404.259 63.432 403.739 63.432C403.267 63.432 402.863 63.584 402.527 63.888C402.191 64.184 401.991 64.588 401.927 65.1H405.587Z" fill="white"/>
</g>
<defs>
<clipPath id="clip0_156_514">
<rect width="480" height="360" fill="white"/>
</clipPath>
</defs>
</svg>
