<svg width="150" height="360" viewBox="0 0 150 360" fill="none" xmlns="http://www.w3.org/2000/svg">
<path d="M0 0H130C141.046 0 150 8.95431 150 20V340C150 351.046 141.046 360 130 360H0V0Z" fill="#191919"/>
<path d="M50.864 31.112C50.1173 31.112 49.4453 30.984 48.848 30.728C48.2507 30.4613 47.7813 30.088 47.44 29.608C47.0987 29.128 46.928 28.568 46.928 27.928H48.88C48.9227 28.408 49.1093 28.8027 49.44 29.112C49.7813 29.4213 50.256 29.576 50.864 29.576C51.4933 29.576 51.984 29.4267 52.336 29.128C52.688 28.8187 52.864 28.424 52.864 27.944C52.864 27.5707 52.752 27.2667 52.528 27.032C52.3147 26.7973 52.0427 26.616 51.712 26.488C51.392 26.36 50.944 26.2213 50.368 26.072C49.6427 25.88 49.0507 25.688 48.592 25.496C48.144 25.2933 47.76 24.984 47.44 24.568C47.12 24.152 46.96 23.5973 46.96 22.904C46.96 22.264 47.12 21.704 47.44 21.224C47.76 20.744 48.208 20.376 48.784 20.12C49.36 19.864 50.0267 19.736 50.784 19.736C51.8613 19.736 52.7413 20.008 53.424 20.552C54.1173 21.0853 54.5013 21.8213 54.576 22.76H52.56C52.528 22.3547 52.336 22.008 51.984 21.72C51.632 21.432 51.168 21.288 50.592 21.288C50.0693 21.288 49.6427 21.4213 49.312 21.688C48.9813 21.9547 48.816 22.3387 48.816 22.84C48.816 23.1813 48.9173 23.464 49.12 23.688C49.3333 23.9013 49.6 24.072 49.92 24.2C50.24 24.328 50.6773 24.4667 51.232 24.616C51.968 24.8187 52.5653 25.0213 53.024 25.224C53.4933 25.4267 53.888 25.7413 54.208 26.168C54.5387 26.584 54.704 27.144 54.704 27.848C54.704 28.4133 54.5493 28.9467 54.24 29.448C53.9413 29.9493 53.4987 30.3547 52.912 30.664C52.336 30.9627 51.6533 31.112 50.864 31.112ZM64.9363 26.376C64.9363 26.7067 64.9149 27.0053 64.8723 27.272H58.1363C58.1896 27.976 58.4509 28.5413 58.9203 28.968C59.3896 29.3947 59.9656 29.608 60.6483 29.608C61.6296 29.608 62.3229 29.1973 62.7283 28.376H64.6962C64.4296 29.1867 63.9443 29.8533 63.2403 30.376C62.5469 30.888 61.6829 31.144 60.6483 31.144C59.8056 31.144 59.0483 30.9573 58.3763 30.584C57.7149 30.2 57.1923 29.6667 56.8083 28.984C56.4349 28.2907 56.2483 27.4907 56.2483 26.584C56.2483 25.6773 56.4296 24.8827 56.7923 24.2C57.1656 23.5067 57.6829 22.9733 58.3443 22.6C59.0163 22.2267 59.7843 22.04 60.6483 22.04C61.4803 22.04 62.2216 22.2213 62.8723 22.584C63.5229 22.9467 64.0296 23.4587 64.3923 24.12C64.7549 24.7707 64.9363 25.5227 64.9363 26.376ZM63.0323 25.8C63.0216 25.128 62.7816 24.5893 62.3123 24.184C61.8429 23.7787 61.2616 23.576 60.5683 23.576C59.9389 23.576 59.4003 23.7787 58.9523 24.184C58.5043 24.5787 58.2376 25.1173 58.1523 25.8H63.0323ZM68.8593 23.672V28.552C68.8593 28.8827 68.9339 29.1227 69.0833 29.272C69.2433 29.4107 69.5099 29.48 69.8833 29.48H71.0033V31H69.5633C68.7419 31 68.1126 30.808 67.6753 30.424C67.2379 30.04 67.0193 29.416 67.0193 28.552V23.672H65.9793V22.184H67.0193V19.992H68.8593V22.184H71.0033V23.672H68.8593ZM74.8124 23.672V28.552C74.8124 28.8827 74.887 29.1227 75.0364 29.272C75.1964 29.4107 75.463 29.48 75.8364 29.48H76.9564V31H75.5164C74.695 31 74.0657 30.808 73.6284 30.424C73.191 30.04 72.9724 29.416 72.9724 28.552V23.672H71.9324V22.184H72.9724V19.992H74.8124V22.184H76.9564V23.672H74.8124ZM79.5655 21.016C79.2348 21.016 78.9575 20.904 78.7335 20.68C78.5095 20.456 78.3975 20.1787 78.3975 19.848C78.3975 19.5173 78.5095 19.24 78.7335 19.016C78.9575 18.792 79.2348 18.68 79.5655 18.68C79.8855 18.68 80.1575 18.792 80.3815 19.016C80.6055 19.24 80.7175 19.5173 80.7175 19.848C80.7175 20.1787 80.6055 20.456 80.3815 20.68C80.1575 20.904 79.8855 21.016 79.5655 21.016ZM80.4615 22.184V31H78.6375V22.184H80.4615ZM87.3043 22.04C87.9976 22.04 88.6163 22.184 89.1603 22.472C89.7149 22.76 90.1469 23.1867 90.4563 23.752C90.7656 24.3173 90.9203 25 90.9203 25.8V31H89.1123V26.072C89.1123 25.2827 88.9149 24.68 88.5203 24.264C88.1256 23.8373 87.5869 23.624 86.9043 23.624C86.2216 23.624 85.6776 23.8373 85.2723 24.264C84.8776 24.68 84.6803 25.2827 84.6803 26.072V31H82.8563V22.184H84.6803V23.192C84.9789 22.8293 85.3576 22.5467 85.8163 22.344C86.2856 22.1413 86.7816 22.04 87.3043 22.04ZM96.7989 22.04C97.4815 22.04 98.0842 22.1787 98.6069 22.456C99.1402 22.7227 99.5562 23.0587 99.8549 23.464V22.184H101.695V31.144C101.695 31.9547 101.524 32.6747 101.183 33.304C100.842 33.944 100.346 34.4453 99.6949 34.808C99.0549 35.1707 98.2869 35.352 97.3909 35.352C96.1962 35.352 95.2042 35.0693 94.4149 34.504C93.6255 33.9493 93.1775 33.192 93.0709 32.232H94.8789C95.0175 32.6907 95.3109 33.0587 95.7589 33.336C96.2175 33.624 96.7615 33.768 97.3909 33.768C98.1269 33.768 98.7189 33.544 99.1669 33.096C99.6255 32.648 99.8549 31.9973 99.8549 31.144V29.672C99.5455 30.088 99.1242 30.44 98.5909 30.728C98.0682 31.0053 97.4709 31.144 96.7989 31.144C96.0309 31.144 95.3269 30.952 94.6869 30.568C94.0575 30.1733 93.5562 29.6293 93.1829 28.936C92.8202 28.232 92.6389 27.4373 92.6389 26.552C92.6389 25.6667 92.8202 24.8827 93.1829 24.2C93.5562 23.5173 94.0575 22.9893 94.6869 22.616C95.3269 22.232 96.0309 22.04 96.7989 22.04ZM99.8549 26.584C99.8549 25.976 99.7269 25.448 99.4709 25C99.2255 24.552 98.9002 24.2107 98.4949 23.976C98.0895 23.7413 97.6522 23.624 97.1829 23.624C96.7135 23.624 96.2762 23.7413 95.8709 23.976C95.4655 24.2 95.1349 24.536 94.8789 24.984C94.6335 25.4213 94.5109 25.944 94.5109 26.552C94.5109 27.16 94.6335 27.6933 94.8789 28.152C95.1349 28.6107 95.4655 28.9627 95.8709 29.208C96.2869 29.4427 96.7242 29.56 97.1829 29.56C97.6522 29.56 98.0895 29.4427 98.4949 29.208C98.9002 28.9733 99.2255 28.632 99.4709 28.184C99.7269 27.7253 99.8549 27.192 99.8549 26.584ZM107.291 31.144C106.597 31.144 105.973 31.0213 105.419 30.776C104.875 30.52 104.443 30.1787 104.123 29.752C103.803 29.3147 103.632 28.8293 103.611 28.296H105.499C105.531 28.6693 105.707 28.984 106.027 29.24C106.357 29.4853 106.768 29.608 107.259 29.608C107.771 29.608 108.165 29.512 108.443 29.32C108.731 29.1173 108.875 28.8613 108.875 28.552C108.875 28.2213 108.715 27.976 108.395 27.816C108.085 27.656 107.589 27.48 106.907 27.288C106.245 27.1067 105.707 26.9307 105.291 26.76C104.875 26.5893 104.512 26.328 104.203 25.976C103.904 25.624 103.755 25.16 103.755 24.584C103.755 24.1147 103.893 23.688 104.171 23.304C104.448 22.9093 104.843 22.6 105.355 22.376C105.877 22.152 106.475 22.04 107.147 22.04C108.149 22.04 108.955 22.296 109.563 22.808C110.181 23.3093 110.512 23.9973 110.555 24.872H108.731C108.699 24.4773 108.539 24.1627 108.251 23.928C107.963 23.6933 107.573 23.576 107.083 23.576C106.603 23.576 106.235 23.6667 105.979 23.848C105.723 24.0293 105.595 24.2693 105.595 24.568C105.595 24.8027 105.68 25 105.851 25.16C106.021 25.32 106.229 25.448 106.475 25.544C106.72 25.6293 107.083 25.7413 107.563 25.88C108.203 26.0507 108.725 26.2267 109.131 26.408C109.547 26.5787 109.904 26.8347 110.203 27.176C110.501 27.5173 110.656 27.9707 110.667 28.536C110.667 29.0373 110.528 29.4853 110.251 29.88C109.973 30.2747 109.579 30.584 109.067 30.808C108.565 31.032 107.973 31.144 107.291 31.144Z" fill="white"/>
<rect x="12" y="59" width="6" height="6" rx="3" fill="white"/>
<path d="M10 69.5714C10 67.599 11.599 66 13.5714 66H16.4286C18.401 66 20 67.599 20 69.5714V69.5714C20 70.3604 19.3604 71 18.5714 71H11.4286C10.6396 71 10 70.3604 10 69.5714V69.5714Z" fill="white"/>
<path d="M35.928 67.296H32.436L31.836 69H30.408L33.396 60.648H34.98L37.968 69H36.528L35.928 67.296ZM35.544 66.18L34.188 62.304L32.82 66.18H35.544ZM38.8112 65.688C38.8112 65.008 38.9472 64.412 39.2192 63.9C39.4992 63.38 39.8832 62.98 40.3712 62.7C40.8592 62.42 41.4192 62.28 42.0512 62.28C42.8512 62.28 43.5112 62.472 44.0312 62.856C44.5592 63.232 44.9152 63.772 45.0992 64.476H43.6232C43.5032 64.148 43.3112 63.892 43.0472 63.708C42.7832 63.524 42.4512 63.432 42.0512 63.432C41.4912 63.432 41.0432 63.632 40.7072 64.032C40.3792 64.424 40.2152 64.976 40.2152 65.688C40.2152 66.4 40.3792 66.956 40.7072 67.356C41.0432 67.756 41.4912 67.956 42.0512 67.956C42.8432 67.956 43.3672 67.608 43.6232 66.912H45.0992C44.9072 67.584 44.5472 68.12 44.0192 68.52C43.4912 68.912 42.8352 69.108 42.0512 69.108C41.4192 69.108 40.8592 68.968 40.3712 68.688C39.8832 68.4 39.4992 68 39.2192 67.488C38.9472 66.968 38.8112 66.368 38.8112 65.688ZM46.0065 65.688C46.0065 65.008 46.1425 64.412 46.4145 63.9C46.6945 63.38 47.0785 62.98 47.5665 62.7C48.0545 62.42 48.6145 62.28 49.2465 62.28C50.0465 62.28 50.7065 62.472 51.2265 62.856C51.7545 63.232 52.1105 63.772 52.2945 64.476H50.8185C50.6985 64.148 50.5065 63.892 50.2425 63.708C49.9785 63.524 49.6465 63.432 49.2465 63.432C48.6865 63.432 48.2385 63.632 47.9025 64.032C47.5745 64.424 47.4105 64.976 47.4105 65.688C47.4105 66.4 47.5745 66.956 47.9025 67.356C48.2385 67.756 48.6865 67.956 49.2465 67.956C50.0385 67.956 50.5625 67.608 50.8185 66.912H52.2945C52.1025 67.584 51.7425 68.12 51.2145 68.52C50.6865 68.912 50.0305 69.108 49.2465 69.108C48.6145 69.108 48.0545 68.968 47.5665 68.688C47.0785 68.4 46.6945 68 46.4145 67.488C46.1425 66.968 46.0065 66.368 46.0065 65.688ZM56.5258 69.108C55.9018 69.108 55.3378 68.968 54.8338 68.688C54.3298 68.4 53.9338 68 53.6458 67.488C53.3578 66.968 53.2138 66.368 53.2138 65.688C53.2138 65.016 53.3618 64.42 53.6578 63.9C53.9538 63.38 54.3578 62.98 54.8698 62.7C55.3818 62.42 55.9538 62.28 56.5858 62.28C57.2178 62.28 57.7898 62.42 58.3018 62.7C58.8138 62.98 59.2178 63.38 59.5138 63.9C59.8098 64.42 59.9578 65.016 59.9578 65.688C59.9578 66.36 59.8058 66.956 59.5018 67.476C59.1978 67.996 58.7818 68.4 58.2538 68.688C57.7338 68.968 57.1578 69.108 56.5258 69.108ZM56.5258 67.92C56.8778 67.92 57.2058 67.836 57.5098 67.668C57.8218 67.5 58.0738 67.248 58.2658 66.912C58.4578 66.576 58.5538 66.168 58.5538 65.688C58.5538 65.208 58.4618 64.804 58.2778 64.476C58.0938 64.14 57.8498 63.888 57.5458 63.72C57.2418 63.552 56.9138 63.468 56.5618 63.468C56.2098 63.468 55.8818 63.552 55.5778 63.72C55.2818 63.888 55.0458 64.14 54.8698 64.476C54.6938 64.804 54.6058 65.208 54.6058 65.688C54.6058 66.4 54.7858 66.952 55.1458 67.344C55.5138 67.728 55.9738 67.92 56.5258 67.92ZM67.2982 62.388V69H65.9302V68.22C65.7142 68.492 65.4302 68.708 65.0782 68.868C64.7342 69.02 64.3662 69.096 63.9742 69.096C63.4542 69.096 62.9862 68.988 62.5702 68.772C62.1622 68.556 61.8382 68.236 61.5982 67.812C61.3662 67.388 61.2502 66.876 61.2502 66.276V62.388H62.6062V66.072C62.6062 66.664 62.7542 67.12 63.0502 67.44C63.3462 67.752 63.7502 67.908 64.2622 67.908C64.7742 67.908 65.1782 67.752 65.4742 67.44C65.7782 67.12 65.9302 66.664 65.9302 66.072V62.388H67.2982ZM72.4391 62.28C72.9591 62.28 73.4231 62.388 73.8311 62.604C74.2471 62.82 74.5711 63.14 74.8031 63.564C75.0351 63.988 75.1511 64.5 75.1511 65.1V69H73.7951V65.304C73.7951 64.712 73.6471 64.26 73.3511 63.948C73.0551 63.628 72.6511 63.468 72.1391 63.468C71.6271 63.468 71.2191 63.628 70.9151 63.948C70.6191 64.26 70.4711 64.712 70.4711 65.304V69H69.1031V62.388H70.4711V63.144C70.6951 62.872 70.9791 62.66 71.3231 62.508C71.6751 62.356 72.0471 62.28 72.4391 62.28ZM78.4921 63.504V67.164C78.4921 67.412 78.5481 67.592 78.6601 67.704C78.7801 67.808 78.9801 67.86 79.2601 67.86H80.1001V69H79.0201C78.4041 69 77.9321 68.856 77.6041 68.568C77.2761 68.28 77.1121 67.812 77.1121 67.164V63.504H76.3321V62.388H77.1121V60.744H78.4921V62.388H80.1001V63.504H78.4921Z" fill="white"/>
<path d="M35.928 97.296H32.436L31.836 99H30.408L33.396 90.648H34.98L37.968 99H36.528L35.928 97.296ZM35.544 96.18L34.188 92.304L32.82 96.18H35.544ZM40.6352 93.36C40.8672 93.056 41.1832 92.8 41.5832 92.592C41.9832 92.384 42.4352 92.28 42.9392 92.28C43.5152 92.28 44.0392 92.424 44.5112 92.712C44.9912 92.992 45.3672 93.388 45.6392 93.9C45.9112 94.412 46.0472 95 46.0472 95.664C46.0472 96.328 45.9112 96.924 45.6392 97.452C45.3672 97.972 44.9912 98.38 44.5112 98.676C44.0392 98.964 43.5152 99.108 42.9392 99.108C42.4352 99.108 41.9872 99.008 41.5952 98.808C41.2032 98.6 40.8832 98.344 40.6352 98.04V102.144H39.2672V92.388H40.6352V93.36ZM44.6552 95.664C44.6552 95.208 44.5592 94.816 44.3672 94.488C44.1832 94.152 43.9352 93.9 43.6232 93.732C43.3192 93.556 42.9912 93.468 42.6392 93.468C42.2952 93.468 41.9672 93.556 41.6552 93.732C41.3512 93.908 41.1032 94.164 40.9112 94.5C40.7272 94.836 40.6352 95.232 40.6352 95.688C40.6352 96.144 40.7272 96.544 40.9112 96.888C41.1032 97.224 41.3512 97.48 41.6552 97.656C41.9672 97.832 42.2952 97.92 42.6392 97.92C42.9912 97.92 43.3192 97.832 43.6232 97.656C43.9352 97.472 44.1832 97.208 44.3672 96.864C44.5592 96.52 44.6552 96.12 44.6552 95.664ZM48.768 93.36C49 93.056 49.316 92.8 49.716 92.592C50.116 92.384 50.568 92.28 51.072 92.28C51.648 92.28 52.172 92.424 52.644 92.712C53.124 92.992 53.5 93.388 53.772 93.9C54.044 94.412 54.18 95 54.18 95.664C54.18 96.328 54.044 96.924 53.772 97.452C53.5 97.972 53.124 98.38 52.644 98.676C52.172 98.964 51.648 99.108 51.072 99.108C50.568 99.108 50.12 99.008 49.728 98.808C49.336 98.6 49.016 98.344 48.768 98.04V102.144H47.4V92.388H48.768V93.36ZM52.788 95.664C52.788 95.208 52.692 94.816 52.5 94.488C52.316 94.152 52.068 93.9 51.756 93.732C51.452 93.556 51.124 93.468 50.772 93.468C50.428 93.468 50.1 93.556 49.788 93.732C49.484 93.908 49.236 94.164 49.044 94.5C48.86 94.836 48.768 95.232 48.768 95.688C48.768 96.144 48.86 96.544 49.044 96.888C49.236 97.224 49.484 97.48 49.788 97.656C50.1 97.832 50.428 97.92 50.772 97.92C51.124 97.92 51.452 97.832 51.756 97.656C52.068 97.472 52.316 97.208 52.5 96.864C52.692 96.52 52.788 96.12 52.788 95.664ZM61.5928 95.532C61.5928 95.78 61.5768 96.004 61.5448 96.204H56.4928C56.5328 96.732 56.7288 97.156 57.0808 97.476C57.4328 97.796 57.8648 97.956 58.3768 97.956C59.1128 97.956 59.6328 97.648 59.9368 97.032H61.4128C61.2128 97.64 60.8488 98.14 60.3208 98.532C59.8008 98.916 59.1528 99.108 58.3768 99.108C57.7448 99.108 57.1768 98.968 56.6728 98.688C56.1768 98.4 55.7848 98 55.4968 97.488C55.2168 96.968 55.0768 96.368 55.0768 95.688C55.0768 95.008 55.2128 94.412 55.4848 93.9C55.7648 93.38 56.1528 92.98 56.6488 92.7C57.1528 92.42 57.7288 92.28 58.3768 92.28C59.0008 92.28 59.5568 92.416 60.0448 92.688C60.5328 92.96 60.9128 93.344 61.1848 93.84C61.4568 94.328 61.5928 94.892 61.5928 95.532ZM60.1648 95.1C60.1568 94.596 59.9768 94.192 59.6248 93.888C59.2728 93.584 58.8368 93.432 58.3168 93.432C57.8448 93.432 57.4408 93.584 57.1048 93.888C56.7688 94.184 56.5688 94.588 56.5048 95.1H60.1648ZM62.4831 95.664C62.4831 95 62.6191 94.412 62.8911 93.9C63.1711 93.388 63.5471 92.992 64.0191 92.712C64.4991 92.424 65.0271 92.28 65.6031 92.28C66.1231 92.28 66.5751 92.384 66.9591 92.592C67.3511 92.792 67.6631 93.044 67.8951 93.348V92.388H69.2751V99H67.8951V98.016C67.6631 98.328 67.3471 98.588 66.9471 98.796C66.5471 99.004 66.0911 99.108 65.5791 99.108C65.0111 99.108 64.4911 98.964 64.0191 98.676C63.5471 98.38 63.1711 97.972 62.8911 97.452C62.6191 96.924 62.4831 96.328 62.4831 95.664ZM67.8951 95.688C67.8951 95.232 67.7991 94.836 67.6071 94.5C67.4231 94.164 67.1791 93.908 66.8751 93.732C66.5711 93.556 66.2431 93.468 65.8911 93.468C65.5391 93.468 65.2111 93.556 64.9071 93.732C64.6031 93.9 64.3551 94.152 64.1631 94.488C63.9791 94.816 63.8871 95.208 63.8871 95.664C63.8871 96.12 63.9791 96.52 64.1631 96.864C64.3551 97.208 64.6031 97.472 64.9071 97.656C65.2191 97.832 65.5471 97.92 65.8911 97.92C66.2431 97.92 66.5711 97.832 66.8751 97.656C67.1791 97.48 67.4231 97.224 67.6071 96.888C67.7991 96.544 67.8951 96.144 67.8951 95.688ZM72.4399 93.348C72.6399 93.012 72.9039 92.752 73.2319 92.568C73.5679 92.376 73.9639 92.28 74.4199 92.28V93.696H74.0719C73.5359 93.696 73.1279 93.832 72.8479 94.104C72.5759 94.376 72.4399 94.848 72.4399 95.52V99H71.0719V92.388H72.4399V93.348ZM75.2213 95.664C75.2213 95 75.3573 94.412 75.6293 93.9C75.9093 93.388 76.2853 92.992 76.7573 92.712C77.2373 92.424 77.7653 92.28 78.3413 92.28C78.8613 92.28 79.3133 92.384 79.6973 92.592C80.0893 92.792 80.4013 93.044 80.6333 93.348V92.388H82.0133V99H80.6333V98.016C80.4013 98.328 80.0853 98.588 79.6853 98.796C79.2853 99.004 78.8293 99.108 78.3173 99.108C77.7493 99.108 77.2293 98.964 76.7573 98.676C76.2853 98.38 75.9093 97.972 75.6293 97.452C75.3573 96.924 75.2213 96.328 75.2213 95.664ZM80.6333 95.688C80.6333 95.232 80.5373 94.836 80.3453 94.5C80.1613 94.164 79.9173 93.908 79.6133 93.732C79.3093 93.556 78.9813 93.468 78.6293 93.468C78.2773 93.468 77.9493 93.556 77.6453 93.732C77.3413 93.9 77.0933 94.152 76.9013 94.488C76.7173 94.816 76.6253 95.208 76.6253 95.664C76.6253 96.12 76.7173 96.52 76.9013 96.864C77.0933 97.208 77.3413 97.472 77.6453 97.656C77.9573 97.832 78.2853 97.92 78.6293 97.92C78.9813 97.92 79.3093 97.832 79.6133 97.656C79.9173 97.48 80.1613 97.224 80.3453 96.888C80.5373 96.544 80.6333 96.144 80.6333 95.688ZM87.1462 92.28C87.6662 92.28 88.1302 92.388 88.5382 92.604C88.9542 92.82 89.2782 93.14 89.5102 93.564C89.7422 93.988 89.8582 94.5 89.8582 95.1V99H88.5022V95.304C88.5022 94.712 88.3542 94.26 88.0582 93.948C87.7622 93.628 87.3582 93.468 86.8462 93.468C86.3342 93.468 85.9262 93.628 85.6222 93.948C85.3262 94.26 85.1782 94.712 85.1782 95.304V99H83.8102V92.388H85.1782V93.144C85.4022 92.872 85.6862 92.66 86.0302 92.508C86.3822 92.356 86.7542 92.28 87.1462 92.28ZM91.1471 95.688C91.1471 95.008 91.2831 94.412 91.5551 93.9C91.8351 93.38 92.2191 92.98 92.7071 92.7C93.1951 92.42 93.7551 92.28 94.3871 92.28C95.1871 92.28 95.8471 92.472 96.3671 92.856C96.8951 93.232 97.2511 93.772 97.4351 94.476H95.9591C95.8391 94.148 95.6471 93.892 95.3831 93.708C95.1191 93.524 94.7871 93.432 94.3871 93.432C93.8271 93.432 93.3791 93.632 93.0431 94.032C92.7151 94.424 92.5511 94.976 92.5511 95.688C92.5511 96.4 92.7151 96.956 93.0431 97.356C93.3791 97.756 93.8271 97.956 94.3871 97.956C95.1791 97.956 95.7031 97.608 95.9591 96.912H97.4351C97.2431 97.584 96.8831 98.12 96.3551 98.52C95.8271 98.912 95.1711 99.108 94.3871 99.108C93.7551 99.108 93.1951 98.968 92.7071 98.688C92.2191 98.4 91.8351 98 91.5551 97.488C91.2831 96.968 91.1471 96.368 91.1471 95.688ZM104.858 95.532C104.858 95.78 104.842 96.004 104.81 96.204H99.7584C99.7984 96.732 99.9944 97.156 100.346 97.476C100.698 97.796 101.13 97.956 101.642 97.956C102.378 97.956 102.898 97.648 103.202 97.032H104.678C104.478 97.64 104.114 98.14 103.586 98.532C103.066 98.916 102.418 99.108 101.642 99.108C101.01 99.108 100.442 98.968 99.9384 98.688C99.4424 98.4 99.0504 98 98.7624 97.488C98.4824 96.968 98.3424 96.368 98.3424 95.688C98.3424 95.008 98.4784 94.412 98.7504 93.9C99.0304 93.38 99.4184 92.98 99.9144 92.7C100.418 92.42 100.994 92.28 101.642 92.28C102.266 92.28 102.822 92.416 103.31 92.688C103.798 92.96 104.178 93.344 104.45 93.84C104.722 94.328 104.858 94.892 104.858 95.532ZM103.43 95.1C103.422 94.596 103.242 94.192 102.89 93.888C102.538 93.584 102.102 93.432 101.582 93.432C101.11 93.432 100.706 93.584 100.37 93.888C100.034 94.184 99.8344 94.588 99.7704 95.1H103.43Z" fill="white"/>
<path d="M11.495 95.6313C11.7896 95.2631 12.3013 95.1507 12.7231 95.3615L15.2535 96.6268C15.6858 96.8429 16.2108 96.719 16.5007 96.3323L18.3082 93.9224C18.6733 93.4356 19.385 93.385 19.8153 93.8153L20.4142 94.4142C20.7893 94.7893 21 95.298 21 95.8284V98C21 99.1046 20.1046 100 19 100H10.0806C9.24212 100 8.77595 99.0301 9.29976 98.3753L11.495 95.6313Z" fill="white"/>
<rect x="11" y="90" width="3" height="3" rx="1.5" fill="white"/>
<path d="M33.648 159.084C33.088 159.084 32.584 158.988 32.136 158.796C31.688 158.596 31.336 158.316 31.08 157.956C30.824 157.596 30.696 157.176 30.696 156.696H32.16C32.192 157.056 32.332 157.352 32.58 157.584C32.836 157.816 33.192 157.932 33.648 157.932C34.12 157.932 34.488 157.82 34.752 157.596C35.016 157.364 35.148 157.068 35.148 156.708C35.148 156.428 35.064 156.2 34.896 156.024C34.736 155.848 34.532 155.712 34.284 155.616C34.044 155.52 33.708 155.416 33.276 155.304C32.732 155.16 32.288 155.016 31.944 154.872C31.608 154.72 31.32 154.488 31.08 154.176C30.84 153.864 30.72 153.448 30.72 152.928C30.72 152.448 30.84 152.028 31.08 151.668C31.32 151.308 31.656 151.032 32.088 150.84C32.52 150.648 33.02 150.552 33.588 150.552C34.396 150.552 35.056 150.756 35.568 151.164C36.088 151.564 36.376 152.116 36.432 152.82H34.92C34.896 152.516 34.752 152.256 34.488 152.04C34.224 151.824 33.876 151.716 33.444 151.716C33.052 151.716 32.732 151.816 32.484 152.016C32.236 152.216 32.112 152.504 32.112 152.88C32.112 153.136 32.188 153.348 32.34 153.516C32.5 153.676 32.7 153.804 32.94 153.9C33.18 153.996 33.508 154.1 33.924 154.212C34.476 154.364 34.924 154.516 35.268 154.668C35.62 154.82 35.916 155.056 36.156 155.376C36.404 155.688 36.528 156.108 36.528 156.636C36.528 157.06 36.412 157.46 36.18 157.836C35.956 158.212 35.624 158.516 35.184 158.748C34.752 158.972 34.24 159.084 33.648 159.084ZM39.7382 153.504V157.164C39.7382 157.412 39.7942 157.592 39.9062 157.704C40.0262 157.808 40.2262 157.86 40.5062 157.86H41.3462V159H40.2662C39.6502 159 39.1782 158.856 38.8502 158.568C38.5222 158.28 38.3582 157.812 38.3582 157.164V153.504H37.5782V152.388H38.3582V150.744H39.7382V152.388H41.3462V153.504H39.7382ZM45.475 159.108C44.851 159.108 44.287 158.968 43.783 158.688C43.279 158.4 42.883 158 42.595 157.488C42.307 156.968 42.163 156.368 42.163 155.688C42.163 155.016 42.311 154.42 42.607 153.9C42.903 153.38 43.307 152.98 43.819 152.7C44.331 152.42 44.903 152.28 45.535 152.28C46.167 152.28 46.739 152.42 47.251 152.7C47.763 152.98 48.167 153.38 48.463 153.9C48.759 154.42 48.907 155.016 48.907 155.688C48.907 156.36 48.755 156.956 48.451 157.476C48.147 157.996 47.731 158.4 47.203 158.688C46.683 158.968 46.107 159.108 45.475 159.108ZM45.475 157.92C45.827 157.92 46.155 157.836 46.459 157.668C46.771 157.5 47.023 157.248 47.215 156.912C47.407 156.576 47.503 156.168 47.503 155.688C47.503 155.208 47.411 154.804 47.227 154.476C47.043 154.14 46.799 153.888 46.495 153.72C46.191 153.552 45.863 153.468 45.511 153.468C45.159 153.468 44.831 153.552 44.527 153.72C44.231 153.888 43.995 154.14 43.819 154.476C43.643 154.804 43.555 155.208 43.555 155.688C43.555 156.4 43.735 156.952 44.095 157.344C44.463 157.728 44.923 157.92 45.475 157.92ZM51.6274 153.348C51.8274 153.012 52.0914 152.752 52.4194 152.568C52.7554 152.376 53.1514 152.28 53.6074 152.28V153.696H53.2594C52.7234 153.696 52.3154 153.832 52.0354 154.104C51.7634 154.376 51.6274 154.848 51.6274 155.52V159H50.2594V152.388H51.6274V153.348ZM54.4088 155.664C54.4088 155 54.5448 154.412 54.8168 153.9C55.0968 153.388 55.4728 152.992 55.9448 152.712C56.4248 152.424 56.9528 152.28 57.5288 152.28C58.0488 152.28 58.5008 152.384 58.8848 152.592C59.2768 152.792 59.5888 153.044 59.8208 153.348V152.388H61.2008V159H59.8208V158.016C59.5888 158.328 59.2728 158.588 58.8728 158.796C58.4728 159.004 58.0168 159.108 57.5048 159.108C56.9368 159.108 56.4168 158.964 55.9448 158.676C55.4728 158.38 55.0968 157.972 54.8168 157.452C54.5448 156.924 54.4088 156.328 54.4088 155.664ZM59.8208 155.688C59.8208 155.232 59.7248 154.836 59.5328 154.5C59.3488 154.164 59.1048 153.908 58.8008 153.732C58.4968 153.556 58.1688 153.468 57.8168 153.468C57.4648 153.468 57.1368 153.556 56.8328 153.732C56.5288 153.9 56.2808 154.152 56.0888 154.488C55.9048 154.816 55.8128 155.208 55.8128 155.664C55.8128 156.12 55.9048 156.52 56.0888 156.864C56.2808 157.208 56.5288 157.472 56.8328 157.656C57.1448 157.832 57.4728 157.92 57.8168 157.92C58.1688 157.92 58.4968 157.832 58.8008 157.656C59.1048 157.48 59.3488 157.224 59.5328 156.888C59.7248 156.544 59.8208 156.144 59.8208 155.688ZM65.6617 152.28C66.1737 152.28 66.6257 152.384 67.0177 152.592C67.4177 152.792 67.7297 153.044 67.9537 153.348V152.388H69.3337V159.108C69.3337 159.716 69.2057 160.256 68.9497 160.728C68.6937 161.208 68.3217 161.584 67.8337 161.856C67.3537 162.128 66.7777 162.264 66.1057 162.264C65.2097 162.264 64.4657 162.052 63.8737 161.628C63.2817 161.212 62.9457 160.644 62.8657 159.924H64.2217C64.3257 160.268 64.5457 160.544 64.8817 160.752C65.2257 160.968 65.6337 161.076 66.1057 161.076C66.6577 161.076 67.1017 160.908 67.4377 160.572C67.7817 160.236 67.9537 159.748 67.9537 159.108V158.004C67.7217 158.316 67.4057 158.58 67.0057 158.796C66.6137 159.004 66.1657 159.108 65.6617 159.108C65.0857 159.108 64.5577 158.964 64.0777 158.676C63.6057 158.38 63.2297 157.972 62.9497 157.452C62.6777 156.924 62.5417 156.328 62.5417 155.664C62.5417 155 62.6777 154.412 62.9497 153.9C63.2297 153.388 63.6057 152.992 64.0777 152.712C64.5577 152.424 65.0857 152.28 65.6617 152.28ZM67.9537 155.688C67.9537 155.232 67.8577 154.836 67.6657 154.5C67.4817 154.164 67.2377 153.908 66.9337 153.732C66.6297 153.556 66.3017 153.468 65.9497 153.468C65.5977 153.468 65.2697 153.556 64.9657 153.732C64.6617 153.9 64.4137 154.152 64.2217 154.488C64.0377 154.816 63.9457 155.208 63.9457 155.664C63.9457 156.12 64.0377 156.52 64.2217 156.864C64.4137 157.208 64.6617 157.472 64.9657 157.656C65.2777 157.832 65.6057 157.92 65.9497 157.92C66.3017 157.92 66.6297 157.832 66.9337 157.656C67.2377 157.48 67.4817 157.224 67.6657 156.888C67.8577 156.544 67.9537 156.144 67.9537 155.688ZM77.1905 155.532C77.1905 155.78 77.1745 156.004 77.1425 156.204H72.0905C72.1305 156.732 72.3265 157.156 72.6785 157.476C73.0305 157.796 73.4625 157.956 73.9745 157.956C74.7105 157.956 75.2305 157.648 75.5345 157.032H77.0105C76.8105 157.64 76.4465 158.14 75.9185 158.532C75.3985 158.916 74.7505 159.108 73.9745 159.108C73.3425 159.108 72.7745 158.968 72.2705 158.688C71.7745 158.4 71.3825 158 71.0945 157.488C70.8145 156.968 70.6745 156.368 70.6745 155.688C70.6745 155.008 70.8105 154.412 71.0825 153.9C71.3625 153.38 71.7505 152.98 72.2465 152.7C72.7505 152.42 73.3265 152.28 73.9745 152.28C74.5985 152.28 75.1545 152.416 75.6425 152.688C76.1305 152.96 76.5105 153.344 76.7825 153.84C77.0545 154.328 77.1905 154.892 77.1905 155.532ZM75.7625 155.1C75.7545 154.596 75.5745 154.192 75.2225 153.888C74.8705 153.584 74.4345 153.432 73.9145 153.432C73.4425 153.432 73.0385 153.584 72.7025 153.888C72.3665 154.184 72.1665 154.588 72.1025 155.1H75.7625Z" fill="white"/>
<rect x="9" y="152" width="12" height="6" rx="3" fill="white"/>
<rect x="17" y="154" width="2" height="2" rx="1" fill="#191919"/>
<path d="M34.704 189.084C33.928 189.084 33.212 188.904 32.556 188.544C31.908 188.176 31.392 187.668 31.008 187.02C30.632 186.364 30.444 185.628 30.444 184.812C30.444 183.996 30.632 183.264 31.008 182.616C31.392 181.968 31.908 181.464 32.556 181.104C33.212 180.736 33.928 180.552 34.704 180.552C35.488 180.552 36.204 180.736 36.852 181.104C37.508 181.464 38.024 181.968 38.4 182.616C38.776 183.264 38.964 183.996 38.964 184.812C38.964 185.628 38.776 186.364 38.4 187.02C38.024 187.668 37.508 188.176 36.852 188.544C36.204 188.904 35.488 189.084 34.704 189.084ZM34.704 187.896C35.256 187.896 35.748 187.772 36.18 187.524C36.612 187.268 36.948 186.908 37.188 186.444C37.436 185.972 37.56 185.428 37.56 184.812C37.56 184.196 37.436 183.656 37.188 183.192C36.948 182.728 36.612 182.372 36.18 182.124C35.748 181.876 35.256 181.752 34.704 181.752C34.152 181.752 33.66 181.876 33.228 182.124C32.796 182.372 32.456 182.728 32.208 183.192C31.968 183.656 31.848 184.196 31.848 184.812C31.848 185.428 31.968 185.972 32.208 186.444C32.456 186.908 32.796 187.268 33.228 187.524C33.66 187.772 34.152 187.896 34.704 187.896ZM41.9062 183.504V187.164C41.9062 187.412 41.9622 187.592 42.0742 187.704C42.1942 187.808 42.3942 187.86 42.6742 187.86H43.5142V189H42.4342C41.8182 189 41.3462 188.856 41.0182 188.568C40.6902 188.28 40.5262 187.812 40.5262 187.164V183.504H39.7462V182.388H40.5262V180.744H41.9062V182.388H43.5142V183.504H41.9062ZM48.195 182.28C48.699 182.28 49.147 182.388 49.539 182.604C49.939 182.82 50.251 183.14 50.475 183.564C50.707 183.988 50.823 184.5 50.823 185.1V189H49.467V185.304C49.467 184.712 49.319 184.26 49.023 183.948C48.727 183.628 48.323 183.468 47.811 183.468C47.299 183.468 46.891 183.628 46.587 183.948C46.291 184.26 46.143 184.712 46.143 185.304V189H44.775V180.12H46.143V183.156C46.375 182.876 46.667 182.66 47.019 182.508C47.379 182.356 47.771 182.28 48.195 182.28ZM58.628 185.532C58.628 185.78 58.612 186.004 58.58 186.204H53.528C53.568 186.732 53.764 187.156 54.116 187.476C54.468 187.796 54.9 187.956 55.412 187.956C56.148 187.956 56.668 187.648 56.972 187.032H58.448C58.248 187.64 57.884 188.14 57.356 188.532C56.836 188.916 56.188 189.108 55.412 189.108C54.78 189.108 54.212 188.968 53.708 188.688C53.212 188.4 52.82 188 52.532 187.488C52.252 186.968 52.112 186.368 52.112 185.688C52.112 185.008 52.248 184.412 52.52 183.9C52.8 183.38 53.188 182.98 53.684 182.7C54.188 182.42 54.764 182.28 55.412 182.28C56.036 182.28 56.592 182.416 57.08 182.688C57.568 182.96 57.948 183.344 58.22 183.84C58.492 184.328 58.628 184.892 58.628 185.532ZM57.2 185.1C57.192 184.596 57.012 184.192 56.66 183.888C56.308 183.584 55.872 183.432 55.352 183.432C54.88 183.432 54.476 183.584 54.14 183.888C53.804 184.184 53.604 184.588 53.54 185.1H57.2ZM61.3422 183.348C61.5422 183.012 61.8062 182.752 62.1342 182.568C62.4702 182.376 62.8662 182.28 63.3222 182.28V183.696H62.9742C62.4382 183.696 62.0302 183.832 61.7502 184.104C61.4782 184.376 61.3422 184.848 61.3422 185.52V189H59.9742V182.388H61.3422V183.348ZM66.9797 189.108C66.4597 189.108 65.9917 189.016 65.5757 188.832C65.1677 188.64 64.8437 188.384 64.6037 188.064C64.3637 187.736 64.2357 187.372 64.2197 186.972H65.6357C65.6597 187.252 65.7917 187.488 66.0317 187.68C66.2797 187.864 66.5877 187.956 66.9557 187.956C67.3397 187.956 67.6357 187.884 67.8437 187.74C68.0597 187.588 68.1677 187.396 68.1677 187.164C68.1677 186.916 68.0477 186.732 67.8077 186.612C67.5757 186.492 67.2037 186.36 66.6917 186.216C66.1957 186.08 65.7917 185.948 65.4797 185.82C65.1677 185.692 64.8957 185.496 64.6637 185.232C64.4397 184.968 64.3277 184.62 64.3277 184.188C64.3277 183.836 64.4317 183.516 64.6397 183.228C64.8477 182.932 65.1437 182.7 65.5277 182.532C65.9197 182.364 66.3677 182.28 66.8717 182.28C67.6237 182.28 68.2277 182.472 68.6837 182.856C69.1477 183.232 69.3957 183.748 69.4277 184.404H68.0597C68.0357 184.108 67.9157 183.872 67.6997 183.696C67.4837 183.52 67.1917 183.432 66.8237 183.432C66.4637 183.432 66.1877 183.5 65.9957 183.636C65.8037 183.772 65.7077 183.952 65.7077 184.176C65.7077 184.352 65.7717 184.5 65.8997 184.62C66.0277 184.74 66.1837 184.836 66.3677 184.908C66.5517 184.972 66.8237 185.056 67.1837 185.16C67.6637 185.288 68.0557 185.42 68.3597 185.556C68.6717 185.684 68.9397 185.876 69.1637 186.132C69.3877 186.388 69.5037 186.728 69.5117 187.152C69.5117 187.528 69.4077 187.864 69.1997 188.16C68.9917 188.456 68.6957 188.688 68.3117 188.856C67.9357 189.024 67.4917 189.108 66.9797 189.108Z" fill="white"/>
<rect x="10" y="184" width="2" height="2" rx="1" fill="white"/>
<rect x="14" y="184" width="2" height="2" rx="1" fill="white"/>
<rect x="18" y="184" width="2" height="2" rx="1" fill="white"/>
<path d="M37.56 330.66V339H36.192V335.352H32.268V339H30.9V330.66H32.268V334.236H36.192V330.66H37.56ZM40.0569 331.512C39.8089 331.512 39.6009 331.428 39.4329 331.26C39.2649 331.092 39.1809 330.884 39.1809 330.636C39.1809 330.388 39.2649 330.18 39.4329 330.012C39.6009 329.844 39.8089 329.76 40.0569 329.76C40.2969 329.76 40.5009 329.844 40.6689 330.012C40.8369 330.18 40.9209 330.388 40.9209 330.636C40.9209 330.884 40.8369 331.092 40.6689 331.26C40.5009 331.428 40.2969 331.512 40.0569 331.512ZM40.7289 332.388V339H39.3609V332.388H40.7289ZM42.069 335.664C42.069 335 42.205 334.412 42.477 333.9C42.757 333.388 43.133 332.992 43.605 332.712C44.085 332.424 44.617 332.28 45.201 332.28C45.633 332.28 46.057 332.376 46.473 332.568C46.897 332.752 47.233 333 47.481 333.312V330.12H48.861V339H47.481V338.004C47.257 338.324 46.945 338.588 46.545 338.796C46.153 339.004 45.701 339.108 45.189 339.108C44.613 339.108 44.085 338.964 43.605 338.676C43.133 338.38 42.757 337.972 42.477 337.452C42.205 336.924 42.069 336.328 42.069 335.664ZM47.481 335.688C47.481 335.232 47.385 334.836 47.193 334.5C47.009 334.164 46.765 333.908 46.461 333.732C46.157 333.556 45.829 333.468 45.477 333.468C45.125 333.468 44.797 333.556 44.493 333.732C44.189 333.9 43.941 334.152 43.749 334.488C43.565 334.816 43.473 335.208 43.473 335.664C43.473 336.12 43.565 336.52 43.749 336.864C43.941 337.208 44.189 337.472 44.493 337.656C44.805 337.832 45.133 337.92 45.477 337.92C45.829 337.92 46.157 337.832 46.461 337.656C46.765 337.48 47.009 337.224 47.193 336.888C47.385 336.544 47.481 336.144 47.481 335.688ZM50.2018 335.664C50.2018 335 50.3378 334.412 50.6098 333.9C50.8898 333.388 51.2658 332.992 51.7378 332.712C52.2178 332.424 52.7498 332.28 53.3338 332.28C53.7658 332.28 54.1898 332.376 54.6058 332.568C55.0298 332.752 55.3658 333 55.6138 333.312V330.12H56.9938V339H55.6138V338.004C55.3898 338.324 55.0778 338.588 54.6778 338.796C54.2858 339.004 53.8338 339.108 53.3218 339.108C52.7458 339.108 52.2178 338.964 51.7378 338.676C51.2658 338.38 50.8898 337.972 50.6098 337.452C50.3378 336.924 50.2018 336.328 50.2018 335.664ZM55.6138 335.688C55.6138 335.232 55.5178 334.836 55.3258 334.5C55.1418 334.164 54.8978 333.908 54.5938 333.732C54.2898 333.556 53.9618 333.468 53.6098 333.468C53.2578 333.468 52.9298 333.556 52.6258 333.732C52.3218 333.9 52.0738 334.152 51.8818 334.488C51.6978 334.816 51.6058 335.208 51.6058 335.664C51.6058 336.12 51.6978 336.52 51.8818 336.864C52.0738 337.208 52.3218 337.472 52.6258 337.656C52.9378 337.832 53.2658 337.92 53.6098 337.92C53.9618 337.92 54.2898 337.832 54.5938 337.656C54.8978 337.48 55.1418 337.224 55.3258 336.888C55.5178 336.544 55.6138 336.144 55.6138 335.688ZM64.8506 335.532C64.8506 335.78 64.8346 336.004 64.8026 336.204H59.7506C59.7906 336.732 59.9866 337.156 60.3386 337.476C60.6906 337.796 61.1226 337.956 61.6346 337.956C62.3706 337.956 62.8906 337.648 63.1946 337.032H64.6706C64.4706 337.64 64.1066 338.14 63.5786 338.532C63.0586 338.916 62.4106 339.108 61.6346 339.108C61.0026 339.108 60.4346 338.968 59.9306 338.688C59.4346 338.4 59.0426 338 58.7546 337.488C58.4746 336.968 58.3346 336.368 58.3346 335.688C58.3346 335.008 58.4706 334.412 58.7426 333.9C59.0226 333.38 59.4106 332.98 59.9066 332.7C60.4106 332.42 60.9866 332.28 61.6346 332.28C62.2586 332.28 62.8146 332.416 63.3026 332.688C63.7906 332.96 64.1706 333.344 64.4426 333.84C64.7146 334.328 64.8506 334.892 64.8506 335.532ZM63.4226 335.1C63.4146 334.596 63.2346 334.192 62.8826 333.888C62.5306 333.584 62.0946 333.432 61.5746 333.432C61.1026 333.432 60.6986 333.584 60.3626 333.888C60.0266 334.184 59.8266 334.588 59.7626 335.1H63.4226ZM69.5329 332.28C70.0529 332.28 70.5169 332.388 70.9249 332.604C71.3409 332.82 71.6649 333.14 71.8969 333.564C72.1289 333.988 72.2449 334.5 72.2449 335.1V339H70.8889V335.304C70.8889 334.712 70.7409 334.26 70.4449 333.948C70.1489 333.628 69.7449 333.468 69.2329 333.468C68.7209 333.468 68.3129 333.628 68.0089 333.948C67.7129 334.26 67.5649 334.712 67.5649 335.304V339H66.1969V332.388H67.5649V333.144C67.7889 332.872 68.0729 332.66 68.4169 332.508C68.7689 332.356 69.1409 332.28 69.5329 332.28ZM79.975 339.108C79.351 339.108 78.787 338.968 78.283 338.688C77.779 338.4 77.383 338 77.095 337.488C76.807 336.968 76.663 336.368 76.663 335.688C76.663 335.016 76.811 334.42 77.107 333.9C77.403 333.38 77.807 332.98 78.319 332.7C78.831 332.42 79.403 332.28 80.035 332.28C80.667 332.28 81.239 332.42 81.751 332.7C82.263 332.98 82.667 333.38 82.963 333.9C83.259 334.42 83.407 335.016 83.407 335.688C83.407 336.36 83.255 336.956 82.951 337.476C82.647 337.996 82.231 338.4 81.703 338.688C81.183 338.968 80.607 339.108 79.975 339.108ZM79.975 337.92C80.327 337.92 80.655 337.836 80.959 337.668C81.271 337.5 81.523 337.248 81.715 336.912C81.907 336.576 82.003 336.168 82.003 335.688C82.003 335.208 81.911 334.804 81.727 334.476C81.543 334.14 81.299 333.888 80.995 333.72C80.691 333.552 80.363 333.468 80.011 333.468C79.659 333.468 79.331 333.552 79.027 333.72C78.731 333.888 78.495 334.14 78.319 334.476C78.143 334.804 78.055 335.208 78.055 335.688C78.055 336.4 78.235 336.952 78.595 337.344C78.963 337.728 79.423 337.92 79.975 337.92ZM86.1274 333.36C86.3594 333.056 86.6754 332.8 87.0754 332.592C87.4754 332.384 87.9274 332.28 88.4314 332.28C89.0074 332.28 89.5314 332.424 90.0034 332.712C90.4834 332.992 90.8594 333.388 91.1314 333.9C91.4034 334.412 91.5394 335 91.5394 335.664C91.5394 336.328 91.4034 336.924 91.1314 337.452C90.8594 337.972 90.4834 338.38 90.0034 338.676C89.5314 338.964 89.0074 339.108 88.4314 339.108C87.9274 339.108 87.4794 339.008 87.0874 338.808C86.6954 338.6 86.3754 338.344 86.1274 338.04V342.144H84.7594V332.388H86.1274V333.36ZM90.1474 335.664C90.1474 335.208 90.0514 334.816 89.8594 334.488C89.6754 334.152 89.4274 333.9 89.1154 333.732C88.8114 333.556 88.4834 333.468 88.1314 333.468C87.7874 333.468 87.4594 333.556 87.1474 333.732C86.8434 333.908 86.5954 334.164 86.4034 334.5C86.2194 334.836 86.1274 335.232 86.1274 335.688C86.1274 336.144 86.2194 336.544 86.4034 336.888C86.5954 337.224 86.8434 337.48 87.1474 337.656C87.4594 337.832 87.7874 337.92 88.1314 337.92C88.4834 337.92 88.8114 337.832 89.1154 337.656C89.4274 337.472 89.6754 337.208 89.8594 336.864C90.0514 336.52 90.1474 336.12 90.1474 335.664ZM94.4882 333.504V337.164C94.4882 337.412 94.5442 337.592 94.6562 337.704C94.7762 337.808 94.9762 337.86 95.2562 337.86H96.0962V339H95.0162C94.4002 339 93.9282 338.856 93.6002 338.568C93.2722 338.28 93.1082 337.812 93.1082 337.164V333.504H92.3282V332.388H93.1082V330.744H94.4882V332.388H96.0962V333.504H94.4882ZM98.053 331.512C97.805 331.512 97.597 331.428 97.429 331.26C97.261 331.092 97.177 330.884 97.177 330.636C97.177 330.388 97.261 330.18 97.429 330.012C97.597 329.844 97.805 329.76 98.053 329.76C98.293 329.76 98.497 329.844 98.665 330.012C98.833 330.18 98.917 330.388 98.917 330.636C98.917 330.884 98.833 331.092 98.665 331.26C98.497 331.428 98.293 331.512 98.053 331.512ZM98.725 332.388V339H97.357V332.388H98.725ZM103.389 339.108C102.765 339.108 102.201 338.968 101.697 338.688C101.193 338.4 100.797 338 100.509 337.488C100.221 336.968 100.077 336.368 100.077 335.688C100.077 335.016 100.225 334.42 100.521 333.9C100.817 333.38 101.221 332.98 101.733 332.7C102.245 332.42 102.817 332.28 103.449 332.28C104.081 332.28 104.653 332.42 105.165 332.7C105.677 332.98 106.081 333.38 106.377 333.9C106.673 334.42 106.821 335.016 106.821 335.688C106.821 336.36 106.669 336.956 106.365 337.476C106.061 337.996 105.645 338.4 105.117 338.688C104.597 338.968 104.021 339.108 103.389 339.108ZM103.389 337.92C103.741 337.92 104.069 337.836 104.373 337.668C104.685 337.5 104.937 337.248 105.129 336.912C105.321 336.576 105.417 336.168 105.417 335.688C105.417 335.208 105.325 334.804 105.141 334.476C104.957 334.14 104.713 333.888 104.409 333.72C104.105 333.552 103.777 333.468 103.425 333.468C103.073 333.468 102.745 333.552 102.441 333.72C102.145 333.888 101.909 334.14 101.733 334.476C101.557 334.804 101.469 335.208 101.469 335.688C101.469 336.4 101.649 336.952 102.009 337.344C102.377 337.728 102.837 337.92 103.389 337.92ZM111.509 332.28C112.029 332.28 112.493 332.388 112.901 332.604C113.317 332.82 113.641 333.14 113.873 333.564C114.105 333.988 114.221 334.5 114.221 335.1V339H112.865V335.304C112.865 334.712 112.717 334.26 112.421 333.948C112.125 333.628 111.721 333.468 111.209 333.468C110.697 333.468 110.289 333.628 109.985 333.948C109.689 334.26 109.541 334.712 109.541 335.304V339H108.173V332.388H109.541V333.144C109.765 332.872 110.049 332.66 110.393 332.508C110.745 332.356 111.117 332.28 111.509 332.28ZM118.366 339.108C117.846 339.108 117.378 339.016 116.962 338.832C116.554 338.64 116.23 338.384 115.99 338.064C115.75 337.736 115.622 337.372 115.606 336.972H117.022C117.046 337.252 117.178 337.488 117.418 337.68C117.666 337.864 117.974 337.956 118.342 337.956C118.726 337.956 119.022 337.884 119.23 337.74C119.446 337.588 119.554 337.396 119.554 337.164C119.554 336.916 119.434 336.732 119.194 336.612C118.962 336.492 118.59 336.36 118.078 336.216C117.582 336.08 117.178 335.948 116.866 335.82C116.554 335.692 116.282 335.496 116.05 335.232C115.826 334.968 115.714 334.62 115.714 334.188C115.714 333.836 115.818 333.516 116.026 333.228C116.234 332.932 116.53 332.7 116.914 332.532C117.306 332.364 117.754 332.28 118.258 332.28C119.01 332.28 119.614 332.472 120.07 332.856C120.534 333.232 120.782 333.748 120.814 334.404H119.446C119.422 334.108 119.302 333.872 119.086 333.696C118.87 333.52 118.578 333.432 118.21 333.432C117.85 333.432 117.574 333.5 117.382 333.636C117.19 333.772 117.094 333.952 117.094 334.176C117.094 334.352 117.158 334.5 117.286 334.62C117.414 334.74 117.57 334.836 117.754 334.908C117.938 334.972 118.21 335.056 118.57 335.16C119.05 335.288 119.442 335.42 119.746 335.556C120.058 335.684 120.326 335.876 120.55 336.132C120.774 336.388 120.89 336.728 120.898 337.152C120.898 337.528 120.794 337.864 120.586 338.16C120.378 338.456 120.082 338.688 119.698 338.856C119.322 339.024 118.878 339.108 118.366 339.108Z" fill="white"/>
<path d="M9.70711 335.707L11.4645 337.464C13.4171 339.417 16.5829 339.417 18.5355 337.464L20.2929 335.707C20.6834 335.317 20.6834 334.683 20.2929 334.293L18.5355 332.536C16.5829 330.583 13.4171 330.583 11.4645 332.536L9.70711 334.293C9.31658 334.683 9.31658 335.317 9.70711 335.707Z" fill="white"/>
<rect x="13" y="333" width="4" height="4" rx="2" fill="#191919"/>
<rect x="14" y="334" width="2" height="2" rx="1" fill="white"/>
<path d="M35.928 217.296H32.436L31.836 219H30.408L33.396 210.648H34.98L37.968 219H36.528L35.928 217.296ZM35.544 216.18L34.188 212.304L32.82 216.18H35.544ZM40.6352 213.372C40.8672 213.052 41.1832 212.792 41.5832 212.592C41.9912 212.384 42.4432 212.28 42.9392 212.28C43.5232 212.28 44.0512 212.42 44.5232 212.7C44.9952 212.98 45.3672 213.38 45.6392 213.9C45.9112 214.412 46.0472 215 46.0472 215.664C46.0472 216.328 45.9112 216.924 45.6392 217.452C45.3672 217.972 44.9912 218.38 44.5112 218.676C44.0392 218.964 43.5152 219.108 42.9392 219.108C42.4272 219.108 41.9712 219.008 41.5712 218.808C41.1792 218.608 40.8672 218.352 40.6352 218.04V219H39.2672V210.12H40.6352V213.372ZM44.6552 215.664C44.6552 215.208 44.5592 214.816 44.3672 214.488C44.1832 214.152 43.9352 213.9 43.6232 213.732C43.3192 213.556 42.9912 213.468 42.6392 213.468C42.2952 213.468 41.9672 213.556 41.6552 213.732C41.3512 213.908 41.1032 214.164 40.9112 214.5C40.7272 214.836 40.6352 215.232 40.6352 215.688C40.6352 216.144 40.7272 216.544 40.9112 216.888C41.1032 217.224 41.3512 217.48 41.6552 217.656C41.9672 217.832 42.2952 217.92 42.6392 217.92C42.9912 217.92 43.3192 217.832 43.6232 217.656C43.9352 217.472 44.1832 217.208 44.3672 216.864C44.5592 216.52 44.6552 216.12 44.6552 215.664ZM50.268 219.108C49.644 219.108 49.08 218.968 48.576 218.688C48.072 218.4 47.676 218 47.388 217.488C47.1 216.968 46.956 216.368 46.956 215.688C46.956 215.016 47.104 214.42 47.4 213.9C47.696 213.38 48.1 212.98 48.612 212.7C49.124 212.42 49.696 212.28 50.328 212.28C50.96 212.28 51.532 212.42 52.044 212.7C52.556 212.98 52.96 213.38 53.256 213.9C53.552 214.42 53.7 215.016 53.7 215.688C53.7 216.36 53.548 216.956 53.244 217.476C52.94 217.996 52.524 218.4 51.996 218.688C51.476 218.968 50.9 219.108 50.268 219.108ZM50.268 217.92C50.62 217.92 50.948 217.836 51.252 217.668C51.564 217.5 51.816 217.248 52.008 216.912C52.2 216.576 52.296 216.168 52.296 215.688C52.296 215.208 52.204 214.804 52.02 214.476C51.836 214.14 51.592 213.888 51.288 213.72C50.984 213.552 50.656 213.468 50.304 213.468C49.952 213.468 49.624 213.552 49.32 213.72C49.024 213.888 48.788 214.14 48.612 214.476C48.436 214.804 48.348 215.208 48.348 215.688C48.348 216.4 48.528 216.952 48.888 217.344C49.256 217.728 49.716 217.92 50.268 217.92ZM61.0403 212.388V219H59.6723V218.22C59.4563 218.492 59.1723 218.708 58.8203 218.868C58.4763 219.02 58.1083 219.096 57.7163 219.096C57.1963 219.096 56.7283 218.988 56.3123 218.772C55.9043 218.556 55.5803 218.236 55.3403 217.812C55.1083 217.388 54.9923 216.876 54.9923 216.276V212.388H56.3483V216.072C56.3483 216.664 56.4963 217.12 56.7923 217.44C57.0883 217.752 57.4923 217.908 58.0043 217.908C58.5163 217.908 58.9203 217.752 59.2163 217.44C59.5203 217.12 59.6723 216.664 59.6723 216.072V212.388H61.0403ZM64.4413 213.504V217.164C64.4413 217.412 64.4973 217.592 64.6093 217.704C64.7293 217.808 64.9293 217.86 65.2093 217.86H66.0493V219H64.9693C64.3533 219 63.8813 218.856 63.5533 218.568C63.2253 218.28 63.0613 217.812 63.0613 217.164V213.504H62.2813V212.388H63.0613V210.744H64.4413V212.388H66.0493V213.504H64.4413Z" fill="white"/>
<rect x="16" y="219" width="2" height="2" rx="1" transform="rotate(90 16 219)" fill="white"/>
<mask id="path-22-inside-1_16_8" fill="white">
<path d="M14.2235 215.898C14.0806 216.431 14.4006 216.993 14.9528 217C15.4906 217.006 16.0276 216.904 16.5307 216.696C17.3442 216.359 18.0238 215.763 18.4641 215C18.9044 214.237 19.0807 213.351 18.9658 212.478C18.8508 211.605 18.4511 210.794 17.8284 210.172C17.2058 209.549 16.3951 209.149 15.5221 209.034C14.6491 208.919 13.7626 209.096 13 209.536C12.2374 209.976 11.6414 210.656 11.3045 211.469C11.0961 211.972 10.9939 212.509 11.0003 213.047C11.0068 213.599 11.5688 213.919 12.1022 213.776V213.776C12.6357 213.634 12.9262 213.065 13.0565 212.528C13.0807 212.428 13.1126 212.33 13.1522 212.235C13.3207 211.828 13.6187 211.488 14 211.268C14.3813 211.048 14.8246 210.96 15.2611 211.017C15.6976 211.075 16.1029 211.274 16.4142 211.586C16.7255 211.897 16.9254 212.302 16.9829 212.739C17.0404 213.175 16.9522 213.619 16.7321 214C16.5119 214.381 16.1721 214.679 15.7654 214.848C15.6697 214.887 15.5716 214.919 15.4719 214.944C14.9352 215.074 14.3665 215.364 14.2235 215.898V215.898Z"/>
</mask>
<path d="M14.2235 215.898C14.0806 216.431 14.4006 216.993 14.9528 217C15.4906 217.006 16.0276 216.904 16.5307 216.696C17.3442 216.359 18.0238 215.763 18.4641 215C18.9044 214.237 19.0807 213.351 18.9658 212.478C18.8508 211.605 18.4511 210.794 17.8284 210.172C17.2058 209.549 16.3951 209.149 15.5221 209.034C14.6491 208.919 13.7626 209.096 13 209.536C12.2374 209.976 11.6414 210.656 11.3045 211.469C11.0961 211.972 10.9939 212.509 11.0003 213.047C11.0068 213.599 11.5688 213.919 12.1022 213.776V213.776C12.6357 213.634 12.9262 213.065 13.0565 212.528C13.0807 212.428 13.1126 212.33 13.1522 212.235C13.3207 211.828 13.6187 211.488 14 211.268C14.3813 211.048 14.8246 210.96 15.2611 211.017C15.6976 211.075 16.1029 211.274 16.4142 211.586C16.7255 211.897 16.9254 212.302 16.9829 212.739C17.0404 213.175 16.9522 213.619 16.7321 214C16.5119 214.381 16.1721 214.679 15.7654 214.848C15.6697 214.887 15.5716 214.919 15.4719 214.944C14.9352 215.074 14.3665 215.364 14.2235 215.898V215.898Z" stroke="white" stroke-width="4" mask="url(#path-22-inside-1_16_8)"/>
<path d="M33.648 129.084C33.088 129.084 32.584 128.988 32.136 128.796C31.688 128.596 31.336 128.316 31.08 127.956C30.824 127.596 30.696 127.176 30.696 126.696H32.16C32.192 127.056 32.332 127.352 32.58 127.584C32.836 127.816 33.192 127.932 33.648 127.932C34.12 127.932 34.488 127.82 34.752 127.596C35.016 127.364 35.148 127.068 35.148 126.708C35.148 126.428 35.064 126.2 34.896 126.024C34.736 125.848 34.532 125.712 34.284 125.616C34.044 125.52 33.708 125.416 33.276 125.304C32.732 125.16 32.288 125.016 31.944 124.872C31.608 124.72 31.32 124.488 31.08 124.176C30.84 123.864 30.72 123.448 30.72 122.928C30.72 122.448 30.84 122.028 31.08 121.668C31.32 121.308 31.656 121.032 32.088 120.84C32.52 120.648 33.02 120.552 33.588 120.552C34.396 120.552 35.056 120.756 35.568 121.164C36.088 121.564 36.376 122.116 36.432 122.82H34.92C34.896 122.516 34.752 122.256 34.488 122.04C34.224 121.824 33.876 121.716 33.444 121.716C33.052 121.716 32.732 121.816 32.484 122.016C32.236 122.216 32.112 122.504 32.112 122.88C32.112 123.136 32.188 123.348 32.34 123.516C32.5 123.676 32.7 123.804 32.94 123.9C33.18 123.996 33.508 124.1 33.924 124.212C34.476 124.364 34.924 124.516 35.268 124.668C35.62 124.82 35.916 125.056 36.156 125.376C36.404 125.688 36.528 126.108 36.528 126.636C36.528 127.06 36.412 127.46 36.18 127.836C35.956 128.212 35.624 128.516 35.184 128.748C34.752 128.972 34.24 129.084 33.648 129.084ZM41.0102 129.108C40.3862 129.108 39.8222 128.968 39.3182 128.688C38.8142 128.4 38.4182 128 38.1302 127.488C37.8422 126.968 37.6982 126.368 37.6982 125.688C37.6982 125.016 37.8462 124.42 38.1422 123.9C38.4382 123.38 38.8422 122.98 39.3542 122.7C39.8662 122.42 40.4382 122.28 41.0702 122.28C41.7022 122.28 42.2742 122.42 42.7862 122.7C43.2982 122.98 43.7022 123.38 43.9982 123.9C44.2942 124.42 44.4422 125.016 44.4422 125.688C44.4422 126.36 44.2902 126.956 43.9862 127.476C43.6822 127.996 43.2662 128.4 42.7382 128.688C42.2182 128.968 41.6422 129.108 41.0102 129.108ZM41.0102 127.92C41.3622 127.92 41.6902 127.836 41.9942 127.668C42.3062 127.5 42.5582 127.248 42.7502 126.912C42.9422 126.576 43.0382 126.168 43.0382 125.688C43.0382 125.208 42.9462 124.804 42.7622 124.476C42.5782 124.14 42.3342 123.888 42.0302 123.72C41.7262 123.552 41.3982 123.468 41.0462 123.468C40.6942 123.468 40.3662 123.552 40.0622 123.72C39.7662 123.888 39.5302 124.14 39.3542 124.476C39.1782 124.804 39.0902 125.208 39.0902 125.688C39.0902 126.4 39.2702 126.952 39.6302 127.344C39.9982 127.728 40.4582 127.92 41.0102 127.92ZM51.7825 122.388V129H50.4145V128.22C50.1985 128.492 49.9145 128.708 49.5625 128.868C49.2185 129.02 48.8505 129.096 48.4585 129.096C47.9385 129.096 47.4705 128.988 47.0545 128.772C46.6465 128.556 46.3225 128.236 46.0825 127.812C45.8505 127.388 45.7345 126.876 45.7345 126.276V122.388H47.0905V126.072C47.0905 126.664 47.2385 127.12 47.5345 127.44C47.8305 127.752 48.2345 127.908 48.7465 127.908C49.2585 127.908 49.6625 127.752 49.9585 127.44C50.2625 127.12 50.4145 126.664 50.4145 126.072V122.388H51.7825ZM56.9235 122.28C57.4435 122.28 57.9075 122.388 58.3155 122.604C58.7315 122.82 59.0555 123.14 59.2875 123.564C59.5195 123.988 59.6355 124.5 59.6355 125.1V129H58.2795V125.304C58.2795 124.712 58.1315 124.26 57.8355 123.948C57.5395 123.628 57.1355 123.468 56.6235 123.468C56.1115 123.468 55.7035 123.628 55.3995 123.948C55.1035 124.26 54.9555 124.712 54.9555 125.304V129H53.5875V122.388H54.9555V123.144C55.1795 122.872 55.4635 122.66 55.8075 122.508C56.1595 122.356 56.5315 122.28 56.9235 122.28ZM60.9245 125.664C60.9245 125 61.0605 124.412 61.3325 123.9C61.6125 123.388 61.9885 122.992 62.4605 122.712C62.9405 122.424 63.4725 122.28 64.0565 122.28C64.4885 122.28 64.9125 122.376 65.3285 122.568C65.7525 122.752 66.0885 123 66.3365 123.312V120.12H67.7165V129H66.3365V128.004C66.1125 128.324 65.8005 128.588 65.4005 128.796C65.0085 129.004 64.5565 129.108 64.0445 129.108C63.4685 129.108 62.9405 128.964 62.4605 128.676C61.9885 128.38 61.6125 127.972 61.3325 127.452C61.0605 126.924 60.9245 126.328 60.9245 125.664ZM66.3365 125.688C66.3365 125.232 66.2405 124.836 66.0485 124.5C65.8645 124.164 65.6205 123.908 65.3165 123.732C65.0125 123.556 64.6845 123.468 64.3325 123.468C63.9805 123.468 63.6525 123.556 63.3485 123.732C63.0445 123.9 62.7965 124.152 62.6045 124.488C62.4205 124.816 62.3285 125.208 62.3285 125.664C62.3285 126.12 62.4205 126.52 62.6045 126.864C62.7965 127.208 63.0445 127.472 63.3485 127.656C63.6605 127.832 63.9885 127.92 64.3325 127.92C64.6845 127.92 65.0125 127.832 65.3165 127.656C65.6205 127.48 65.8645 127.224 66.0485 126.888C66.2405 126.544 66.3365 126.144 66.3365 125.688ZM71.9133 129.108C71.3933 129.108 70.9253 129.016 70.5093 128.832C70.1013 128.64 69.7773 128.384 69.5373 128.064C69.2973 127.736 69.1693 127.372 69.1533 126.972H70.5693C70.5933 127.252 70.7253 127.488 70.9653 127.68C71.2133 127.864 71.5213 127.956 71.8893 127.956C72.2733 127.956 72.5693 127.884 72.7773 127.74C72.9933 127.588 73.1013 127.396 73.1013 127.164C73.1013 126.916 72.9813 126.732 72.7413 126.612C72.5093 126.492 72.1373 126.36 71.6253 126.216C71.1293 126.08 70.7253 125.948 70.4133 125.82C70.1013 125.692 69.8293 125.496 69.5973 125.232C69.3733 124.968 69.2613 124.62 69.2613 124.188C69.2613 123.836 69.3653 123.516 69.5733 123.228C69.7813 122.932 70.0773 122.7 70.4613 122.532C70.8533 122.364 71.3013 122.28 71.8053 122.28C72.5573 122.28 73.1613 122.472 73.6173 122.856C74.0813 123.232 74.3293 123.748 74.3613 124.404H72.9933C72.9693 124.108 72.8493 123.872 72.6333 123.696C72.4173 123.52 72.1253 123.432 71.7573 123.432C71.3973 123.432 71.1213 123.5 70.9293 123.636C70.7373 123.772 70.6413 123.952 70.6413 124.176C70.6413 124.352 70.7053 124.5 70.8333 124.62C70.9613 124.74 71.1173 124.836 71.3013 124.908C71.4853 124.972 71.7573 125.056 72.1173 125.16C72.5973 125.288 72.9893 125.42 73.2933 125.556C73.6053 125.684 73.8733 125.876 74.0973 126.132C74.3213 126.388 74.4373 126.728 74.4453 127.152C74.4453 127.528 74.3413 127.864 74.1333 128.16C73.9253 128.456 73.6293 128.688 73.2453 128.856C72.8693 129.024 72.4253 129.108 71.9133 129.108Z" fill="white"/>
<rect x="9" y="122" width="7" height="6" rx="2" fill="white"/>
<path d="M19 123V123C20.1046 123 21 123.895 21 125V125C21 126.105 20.1046 127 19 127V127V123Z" fill="white"/>
<path d="M13 122L15.2929 119.707C15.9229 119.077 17 119.523 17 120.414V129.586C17 130.477 15.9229 130.923 15.2929 130.293L13 128V122Z" fill="white"/>
<rect x="18.5" y="20.5" width="9" height="9" rx="4.5" stroke="white" stroke-width="3"/>
<path d="M21.2721 17.6838C21.4082 17.2754 21.7903 17 22.2208 17H23.7792C24.2097 17 24.5918 17.2754 24.7279 17.6838L25.5 20H20.5L21.2721 17.6838Z" fill="white"/>
<path d="M24.7279 32.3162C24.5918 32.7246 24.2097 33 23.7792 33L22.2208 33C21.7903 33 21.4082 32.7246 21.2721 32.3162L20.5 30L25.5 30L24.7279 32.3162Z" fill="white"/>
<path d="M15.8 22.8383C15.5144 22.5162 15.4669 22.0476 15.6822 21.6748L16.4614 20.3251C16.6766 19.9524 17.1062 19.7591 17.5279 19.8454L19.9199 20.3349L17.4199 24.665L15.8 22.8383Z" fill="white"/>
<path d="M30.2 27.1617C30.4856 27.4838 30.5331 27.9524 30.3178 28.3252L29.5386 29.6749C29.3234 30.0476 28.8938 30.2409 28.4721 30.1546L26.0801 29.6651L28.5801 25.335L30.2 27.1617Z" fill="white"/>
<path d="M28.4721 19.8455C28.8938 19.7592 29.3234 19.9524 29.5386 20.3252L30.3178 21.6749C30.5331 22.0476 30.4856 22.5163 30.2 22.8383L28.5801 24.6651L26.0801 20.335L28.4721 19.8455Z" fill="white"/>
<path d="M17.5279 30.1545C17.1062 30.2408 16.6766 30.0476 16.4614 29.6748L15.6822 28.3251C15.4669 27.9524 15.5144 27.4837 15.8 27.1617L17.4199 25.3349L19.9199 29.665L17.5279 30.1545Z" fill="white"/>
</svg>
