<svg xmlns="http://www.w3.org/2000/svg" fill="none" viewBox="0 0 100 30" height="30" width="100">
<rect fill-opacity="0.25" fill="white" rx="15" height="30" width="100"></rect>
<path fill="black" d="M16.0417 14.716C16.4897 14.796 16.8697 15.032 17.1817 15.424C17.4937 15.816 17.6497 16.26 17.6497 16.756C17.6497 17.18 17.5377 17.564 17.3137 17.908C17.0977 18.244 16.7817 18.512 16.3657 18.712C15.9497 18.904 15.4657 19 14.9137 19H11.5777V10.66H14.7577C15.3257 10.66 15.8137 10.756 16.2217 10.948C16.6297 11.14 16.9377 11.4 17.1457 11.728C17.3537 12.048 17.4577 12.408 17.4577 12.808C17.4577 13.288 17.3297 13.688 17.0737 14.008C16.8177 14.328 16.4737 14.564 16.0417 14.716ZM12.9457 14.164H14.6377C15.0857 14.164 15.4337 14.064 15.6817 13.864C15.9377 13.656 16.0657 13.36 16.0657 12.976C16.0657 12.6 15.9377 12.308 15.6817 12.1C15.4337 11.884 15.0857 11.776 14.6377 11.776H12.9457V14.164ZM14.7937 17.884C15.2577 17.884 15.6217 17.772 15.8857 17.548C16.1497 17.324 16.2817 17.012 16.2817 16.612C16.2817 16.204 16.1417 15.88 15.8617 15.64C15.5817 15.4 15.2097 15.28 14.7457 15.28H12.9457V17.884H14.7937ZM20.5043 13.348C20.7043 13.012 20.9683 12.752 21.2963 12.568C21.6323 12.376 22.0283 12.28 22.4843 12.28V13.696H22.1363C21.6003 13.696 21.1923 13.832 20.9123 14.104C20.6403 14.376 20.5043 14.848 20.5043 15.52V19H19.1363V12.388H20.5043V13.348ZM24.4378 11.512C24.1898 11.512 23.9818 11.428 23.8138 11.26C23.6458 11.092 23.5618 10.884 23.5618 10.636C23.5618 10.388 23.6458 10.18 23.8138 10.012C23.9818 9.844 24.1898 9.76 24.4378 9.76C24.6778 9.76 24.8818 9.844 25.0498 10.012C25.2178 10.18 25.3018 10.388 25.3018 10.636C25.3018 10.884 25.2178 11.092 25.0498 11.26C24.8818 11.428 24.6778 11.512 24.4378 11.512ZM25.1098 12.388V19H23.7418V12.388H25.1098ZM26.4499 15.688C26.4499 15.008 26.5859 14.412 26.8579 13.9C27.1379 13.38 27.5219 12.98 28.0099 12.7C28.4979 12.42 29.0579 12.28 29.6899 12.28C30.4899 12.28 31.1499 12.472 31.6699 12.856C32.1979 13.232 32.5539 13.772 32.7379 14.476H31.2619C31.1419 14.148 30.9499 13.892 30.6859 13.708C30.4219 13.524 30.0899 13.432 29.6899 13.432C29.1299 13.432 28.6819 13.632 28.3459 14.032C28.0179 14.424 27.8539 14.976 27.8539 15.688C27.8539 16.4 28.0179 16.956 28.3459 17.356C28.6819 17.756 29.1299 17.956 29.6899 17.956C30.4819 17.956 31.0059 17.608 31.2619 16.912H32.7379C32.5459 17.584 32.1859 18.12 31.6579 18.52C31.1299 18.912 30.4739 19.108 29.6899 19.108C29.0579 19.108 28.4979 18.968 28.0099 18.688C27.5219 18.4 27.1379 18 26.8579 17.488C26.5859 16.968 26.4499 16.368 26.4499 15.688ZM36.7172 15.7L39.7652 19H37.9172L35.4692 16.156V19H34.1012V10.12H35.4692V15.28L37.8692 12.388H39.7652L36.7172 15.7ZM48.3269 14.716C48.7749 14.796 49.1549 15.032 49.4669 15.424C49.7789 15.816 49.9349 16.26 49.9349 16.756C49.9349 17.18 49.8229 17.564 49.5989 17.908C49.3829 18.244 49.0669 18.512 48.6509 18.712C48.2349 18.904 47.7509 19 47.1989 19H43.8629V10.66H47.0429C47.6109 10.66 48.0989 10.756 48.5069 10.948C48.9149 11.14 49.2229 11.4 49.4309 11.728C49.6389 12.048 49.7429 12.408 49.7429 12.808C49.7429 13.288 49.6149 13.688 49.3589 14.008C49.1029 14.328 48.7589 14.564 48.3269 14.716ZM45.2309 14.164H46.9229C47.3709 14.164 47.7189 14.064 47.9669 13.864C48.2229 13.656 48.3509 13.36 48.3509 12.976C48.3509 12.6 48.2229 12.308 47.9669 12.1C47.7189 11.884 47.3709 11.776 46.9229 11.776H45.2309V14.164ZM47.0789 17.884C47.5429 17.884 47.9069 17.772 48.1709 17.548C48.4349 17.324 48.5669 17.012 48.5669 16.612C48.5669 16.204 48.4269 15.88 48.1469 15.64C47.8669 15.4 47.4949 15.28 47.0309 15.28H45.2309V17.884H47.0789ZM52.7895 13.348C52.9895 13.012 53.2535 12.752 53.5815 12.568C53.9175 12.376 54.3135 12.28 54.7695 12.28V13.696H54.4215C53.8855 13.696 53.4775 13.832 53.1975 14.104C52.9255 14.376 52.7895 14.848 52.7895 15.52V19H51.4215V12.388H52.7895V13.348ZM62.087 15.532C62.087 15.78 62.071 16.004 62.039 16.204H56.987C57.027 16.732 57.223 17.156 57.575 17.476C57.927 17.796 58.359 17.956 58.871 17.956C59.607 17.956 60.127 17.648 60.431 17.032H61.907C61.707 17.64 61.343 18.14 60.815 18.532C60.295 18.916 59.647 19.108 58.871 19.108C58.239 19.108 57.671 18.968 57.167 18.688C56.671 18.4 56.279 18 55.991 17.488C55.711 16.968 55.571 16.368 55.571 15.688C55.571 15.008 55.707 14.412 55.979 13.9C56.259 13.38 56.647 12.98 57.143 12.7C57.647 12.42 58.223 12.28 58.871 12.28C59.495 12.28 60.051 12.416 60.539 12.688C61.027 12.96 61.407 13.344 61.679 13.84C61.951 14.328 62.087 14.892 62.087 15.532ZM60.659 15.1C60.651 14.596 60.471 14.192 60.119 13.888C59.767 13.584 59.331 13.432 58.811 13.432C58.339 13.432 57.935 13.584 57.599 13.888C57.263 14.184 57.063 14.588 56.999 15.1H60.659ZM62.9772 15.664C62.9772 15 63.1132 14.412 63.3852 13.9C63.6652 13.388 64.0412 12.992 64.5132 12.712C64.9932 12.424 65.5212 12.28 66.0972 12.28C66.6172 12.28 67.0692 12.384 67.4532 12.592C67.8452 12.792 68.1572 13.044 68.3892 13.348V12.388H69.7692V19H68.3892V18.016C68.1572 18.328 67.8412 18.588 67.4412 18.796C67.0412 19.004 66.5852 19.108 66.0732 19.108C65.5052 19.108 64.9852 18.964 64.5132 18.676C64.0412 18.38 63.6652 17.972 63.3852 17.452C63.1132 16.924 62.9772 16.328 62.9772 15.664ZM68.3892 15.688C68.3892 15.232 68.2932 14.836 68.1012 14.5C67.9172 14.164 67.6732 13.908 67.3692 13.732C67.0652 13.556 66.7372 13.468 66.3852 13.468C66.0332 13.468 65.7052 13.556 65.4012 13.732C65.0972 13.9 64.8492 14.152 64.6572 14.488C64.4732 14.816 64.3812 15.208 64.3812 15.664C64.3812 16.12 64.4732 16.52 64.6572 16.864C64.8492 17.208 65.0972 17.472 65.4012 17.656C65.7132 17.832 66.0412 17.92 66.3852 17.92C66.7372 17.92 67.0652 17.832 67.3692 17.656C67.6732 17.48 67.9172 17.224 68.1012 16.888C68.2932 16.544 68.3892 16.144 68.3892 15.688ZM74.182 15.7L77.23 19H75.382L72.934 16.156V19H71.566V10.12H72.934V15.28L75.334 12.388H77.23L74.182 15.7ZM84.2705 15.532C84.2705 15.78 84.2545 16.004 84.2225 16.204H79.1705C79.2105 16.732 79.4065 17.156 79.7585 17.476C80.1105 17.796 80.5425 17.956 81.0545 17.956C81.7905 17.956 82.3105 17.648 82.6145 17.032H84.0905C83.8905 17.64 83.5265 18.14 82.9985 18.532C82.4785 18.916 81.8305 19.108 81.0545 19.108C80.4225 19.108 79.8545 18.968 79.3505 18.688C78.8545 18.4 78.4625 18 78.1745 17.488C77.8945 16.968 77.7545 16.368 77.7545 15.688C77.7545 15.008 77.8905 14.412 78.1625 13.9C78.4425 13.38 78.8305 12.98 79.3265 12.7C79.8305 12.42 80.4065 12.28 81.0545 12.28C81.6785 12.28 82.2345 12.416 82.7225 12.688C83.2105 12.96 83.5905 13.344 83.8625 13.84C84.1345 14.328 84.2705 14.892 84.2705 15.532ZM82.8425 15.1C82.8345 14.596 82.6545 14.192 82.3025 13.888C81.9505 13.584 81.5145 13.432 80.9945 13.432C80.5225 13.432 80.1185 13.584 79.7825 13.888C79.4465 14.184 79.2465 14.588 79.1825 15.1H82.8425ZM86.9848 13.348C87.1848 13.012 87.4488 12.752 87.7768 12.568C88.1128 12.376 88.5088 12.28 88.9648 12.28V13.696H88.6168C88.0808 13.696 87.6728 13.832 87.3928 14.104C87.1208 14.376 86.9848 14.848 86.9848 15.52V19H85.6168V12.388H86.9848V13.348Z"></path>
</svg>
