<svg xmlns="http://www.w3.org/2000/svg" fill="none" viewBox="0 0 120 80" height="80" width="120">
<rect fill="#E6E6E6" rx="15" height="60" width="100" y="10" x="10"></rect>
<path fill="black" d="M54.023 38.144C54.023 38.568 53.923 38.968 53.723 39.344C53.523 39.72 53.203 40.028 52.763 40.268C52.323 40.5 51.759 40.616 51.071 40.616H49.559V44H48.191V35.66H51.071C51.711 35.66 52.251 35.772 52.691 35.996C53.139 36.212 53.471 36.508 53.687 36.884C53.911 37.26 54.023 37.68 54.023 38.144ZM51.071 39.5C51.591 39.5 51.979 39.384 52.235 39.152C52.491 38.912 52.619 38.576 52.619 38.144C52.619 37.232 52.103 36.776 51.071 36.776H49.559V39.5H51.071ZM56.6957 35.12V44H55.3277V35.12H56.6957ZM58.0358 40.664C58.0358 40 58.1718 39.412 58.4438 38.9C58.7238 38.388 59.0998 37.992 59.5718 37.712C60.0518 37.424 60.5798 37.28 61.1558 37.28C61.6758 37.28 62.1278 37.384 62.5118 37.592C62.9038 37.792 63.2158 38.044 63.4478 38.348V37.388H64.8278V44H63.4478V43.016C63.2158 43.328 62.8998 43.588 62.4998 43.796C62.0998 44.004 61.6438 44.108 61.1318 44.108C60.5638 44.108 60.0438 43.964 59.5718 43.676C59.0998 43.38 58.7238 42.972 58.4438 42.452C58.1718 41.924 58.0358 41.328 58.0358 40.664ZM63.4478 40.688C63.4478 40.232 63.3518 39.836 63.1598 39.5C62.9758 39.164 62.7318 38.908 62.4278 38.732C62.1238 38.556 61.7958 38.468 61.4438 38.468C61.0918 38.468 60.7638 38.556 60.4598 38.732C60.1558 38.9 59.9078 39.152 59.7158 39.488C59.5318 39.816 59.4398 40.208 59.4398 40.664C59.4398 41.12 59.5318 41.52 59.7158 41.864C59.9078 42.208 60.1558 42.472 60.4598 42.656C60.7718 42.832 61.0998 42.92 61.4438 42.92C61.7958 42.92 62.1238 42.832 62.4278 42.656C62.7318 42.48 62.9758 42.224 63.1598 41.888C63.3518 41.544 63.4478 41.144 63.4478 40.688ZM72.5766 37.388L68.5206 47.108H67.1046L68.4486 43.892L65.8446 37.388H67.3686L69.2286 42.428L71.1606 37.388H72.5766Z"></path>
</svg>
