<svg xmlns="http://www.w3.org/2000/svg" fill="none" viewBox="0 0 30 30" height="30" width="30">
<rect fill="#191919" rx="15" height="30" width="30"></rect>
<path fill="white" d="M7.2957 12.75V11.71H9.3757V19H8.2257V12.75H7.2957ZM10.9418 15.26C10.9418 14.1067 11.1351 13.2067 11.5218 12.56C11.9151 11.9067 12.5885 11.58 13.5418 11.58C14.4951 11.58 15.1651 11.9067 15.5518 12.56C15.9451 13.2067 16.1418 14.1067 16.1418 15.26C16.1418 16.4267 15.9451 17.34 15.5518 18C15.1651 18.6533 14.4951 18.98 13.5418 18.98C12.5885 18.98 11.9151 18.6533 11.5218 18C11.1351 17.34 10.9418 16.4267 10.9418 15.26ZM15.0218 15.26C15.0218 14.72 14.9851 14.2633 14.9118 13.89C14.8451 13.5167 14.7051 13.2133 14.4918 12.98C14.2785 12.74 13.9618 12.62 13.5418 12.62C13.1218 12.62 12.8051 12.74 12.5918 12.98C12.3785 13.2133 12.2351 13.5167 12.1618 13.89C12.0951 14.2633 12.0618 14.72 12.0618 15.26C12.0618 15.82 12.0951 16.29 12.1618 16.67C12.2285 17.05 12.3685 17.3567 12.5818 17.59C12.8018 17.8233 13.1218 17.94 13.5418 17.94C13.9618 17.94 14.2785 17.8233 14.4918 17.59C14.7118 17.3567 14.8551 17.05 14.9218 16.67C14.9885 16.29 15.0218 15.82 15.0218 15.26ZM17.348 15.26C17.348 14.1067 17.5414 13.2067 17.928 12.56C18.3214 11.9067 18.9947 11.58 19.948 11.58C20.9014 11.58 21.5714 11.9067 21.958 12.56C22.3514 13.2067 22.548 14.1067 22.548 15.26C22.548 16.4267 22.3514 17.34 21.958 18C21.5714 18.6533 20.9014 18.98 19.948 18.98C18.9947 18.98 18.3214 18.6533 17.928 18C17.5414 17.34 17.348 16.4267 17.348 15.26ZM21.428 15.26C21.428 14.72 21.3914 14.2633 21.318 13.89C21.2514 13.5167 21.1114 13.2133 20.898 12.98C20.6847 12.74 20.368 12.62 19.948 12.62C19.528 12.62 19.2114 12.74 18.998 12.98C18.7847 13.2133 18.6414 13.5167 18.568 13.89C18.5014 14.2633 18.468 14.72 18.468 15.26C18.468 15.82 18.5014 16.29 18.568 16.67C18.6347 17.05 18.7747 17.3567 18.988 17.59C19.208 17.8233 19.528 17.94 19.948 17.94C20.368 17.94 20.6847 17.8233 20.898 17.59C21.118 17.3567 21.2614 17.05 21.328 16.67C21.3947 16.29 21.428 15.82 21.428 15.26Z"></path>
</svg>
