<svg width="480" height="360" viewBox="0 0 480 360" fill="none" xmlns="http://www.w3.org/2000/svg">
<path d="M0 0H480V80C480 91.0457 471.046 100 460 100H20C8.95431 100 0 91.0457 0 80V0Z" fill="#191919" fill-opacity="0.75"/>
<path d="M193.152 25.288C193.749 25.3947 194.256 25.7093 194.672 26.232C195.088 26.7547 195.296 27.3467 195.296 28.008C195.296 28.5733 195.147 29.0853 194.848 29.544C194.56 29.992 194.139 30.3493 193.584 30.616C193.029 30.872 192.384 31 191.648 31H187.2V19.88H191.44C192.197 19.88 192.848 20.008 193.392 20.264C193.936 20.52 194.347 20.8667 194.624 21.304C194.901 21.7307 195.04 22.2107 195.04 22.744C195.04 23.384 194.869 23.9173 194.528 24.344C194.187 24.7707 193.728 25.0853 193.152 25.288ZM189.024 24.552H191.28C191.877 24.552 192.341 24.4187 192.672 24.152C193.013 23.8747 193.184 23.48 193.184 22.968C193.184 22.4667 193.013 22.0773 192.672 21.8C192.341 21.512 191.877 21.368 191.28 21.368H189.024V24.552ZM191.488 29.512C192.107 29.512 192.592 29.3627 192.944 29.064C193.296 28.7653 193.472 28.3493 193.472 27.816C193.472 27.272 193.285 26.84 192.912 26.52C192.539 26.2 192.043 26.04 191.424 26.04H189.024V29.512H191.488ZM196.67 26.552C196.67 25.6667 196.851 24.8827 197.214 24.2C197.587 23.5173 198.089 22.9893 198.718 22.616C199.358 22.232 200.062 22.04 200.83 22.04C201.523 22.04 202.126 22.1787 202.638 22.456C203.161 22.7227 203.577 23.0587 203.886 23.464V22.184H205.726V31H203.886V29.688C203.577 30.104 203.155 30.4507 202.622 30.728C202.089 31.0053 201.481 31.144 200.798 31.144C200.041 31.144 199.347 30.952 198.718 30.568C198.089 30.1733 197.587 29.6293 197.214 28.936C196.851 28.232 196.67 27.4373 196.67 26.552ZM203.886 26.584C203.886 25.976 203.758 25.448 203.502 25C203.257 24.552 202.931 24.2107 202.526 23.976C202.121 23.7413 201.683 23.624 201.214 23.624C200.745 23.624 200.307 23.7413 199.902 23.976C199.497 24.2 199.166 24.536 198.91 24.984C198.665 25.4213 198.542 25.944 198.542 26.552C198.542 27.16 198.665 27.6933 198.91 28.152C199.166 28.6107 199.497 28.9627 199.902 29.208C200.318 29.4427 200.755 29.56 201.214 29.56C201.683 29.56 202.121 29.4427 202.526 29.208C202.931 28.9733 203.257 28.632 203.502 28.184C203.758 27.7253 203.886 27.192 203.886 26.584ZM207.514 26.584C207.514 25.6773 207.695 24.8827 208.058 24.2C208.431 23.5067 208.943 22.9733 209.594 22.6C210.245 22.2267 210.991 22.04 211.834 22.04C212.901 22.04 213.781 22.296 214.474 22.808C215.178 23.3093 215.653 24.0293 215.898 24.968H213.93C213.77 24.5307 213.514 24.1893 213.162 23.944C212.81 23.6987 212.367 23.576 211.834 23.576C211.087 23.576 210.49 23.8427 210.042 24.376C209.605 24.8987 209.386 25.6347 209.386 26.584C209.386 27.5333 209.605 28.2747 210.042 28.808C210.49 29.3413 211.087 29.608 211.834 29.608C212.89 29.608 213.589 29.144 213.93 28.216H215.898C215.642 29.112 215.162 29.8267 214.458 30.36C213.754 30.8827 212.879 31.144 211.834 31.144C210.991 31.144 210.245 30.9573 209.594 30.584C208.943 30.2 208.431 29.6667 208.058 28.984C207.695 28.2907 207.514 27.4907 207.514 26.584ZM221.204 26.6L225.268 31H222.804L219.54 27.208V31H217.716V19.16H219.54V26.04L222.74 22.184H225.268L221.204 26.6ZM234.559 22.184V31H232.735V29.96C232.447 30.3227 232.068 30.6107 231.599 30.824C231.14 31.0267 230.65 31.128 230.127 31.128C229.434 31.128 228.81 30.984 228.255 30.696C227.711 30.408 227.279 29.9813 226.959 29.416C226.65 28.8507 226.495 28.168 226.495 27.368V22.184H228.303V27.096C228.303 27.8853 228.5 28.4933 228.895 28.92C229.29 29.336 229.828 29.544 230.511 29.544C231.194 29.544 231.732 29.336 232.127 28.92C232.532 28.4933 232.735 27.8853 232.735 27.096V22.184H234.559ZM238.79 23.48C239.099 23.0747 239.52 22.7333 240.054 22.456C240.587 22.1787 241.19 22.04 241.862 22.04C242.63 22.04 243.328 22.232 243.958 22.616C244.598 22.9893 245.099 23.5173 245.462 24.2C245.824 24.8827 246.006 25.6667 246.006 26.552C246.006 27.4373 245.824 28.232 245.462 28.936C245.099 29.6293 244.598 30.1733 243.958 30.568C243.328 30.952 242.63 31.144 241.862 31.144C241.19 31.144 240.592 31.0107 240.07 30.744C239.547 30.4667 239.12 30.1253 238.79 29.72V35.192H236.966V22.184H238.79V23.48ZM244.15 26.552C244.15 25.944 244.022 25.4213 243.766 24.984C243.52 24.536 243.19 24.2 242.774 23.976C242.368 23.7413 241.931 23.624 241.462 23.624C241.003 23.624 240.566 23.7413 240.15 23.976C239.744 24.2107 239.414 24.552 239.158 25C238.912 25.448 238.79 25.976 238.79 26.584C238.79 27.192 238.912 27.7253 239.158 28.184C239.414 28.632 239.744 28.9733 240.15 29.208C240.566 29.4427 241.003 29.56 241.462 29.56C241.931 29.56 242.368 29.4427 242.774 29.208C243.19 28.9627 243.52 28.6107 243.766 28.152C244.022 27.6933 244.15 27.16 244.15 26.552ZM262.638 22.04C263.331 22.04 263.95 22.184 264.494 22.472C265.048 22.76 265.48 23.1867 265.79 23.752C266.11 24.3173 266.27 25 266.27 25.8V31H264.462V26.072C264.462 25.2827 264.264 24.68 263.87 24.264C263.475 23.8373 262.936 23.624 262.254 23.624C261.571 23.624 261.027 23.8373 260.622 24.264C260.227 24.68 260.03 25.2827 260.03 26.072V31H258.222V26.072C258.222 25.2827 258.024 24.68 257.63 24.264C257.235 23.8373 256.696 23.624 256.014 23.624C255.331 23.624 254.787 23.8373 254.382 24.264C253.987 24.68 253.79 25.2827 253.79 26.072V31H251.966V22.184H253.79V23.192C254.088 22.8293 254.467 22.5467 254.926 22.344C255.384 22.1413 255.875 22.04 256.398 22.04C257.102 22.04 257.731 22.1893 258.286 22.488C258.84 22.7867 259.267 23.2187 259.566 23.784C259.832 23.2507 260.248 22.8293 260.814 22.52C261.379 22.2 261.987 22.04 262.638 22.04ZM267.983 26.552C267.983 25.6667 268.164 24.8827 268.527 24.2C268.9 23.5173 269.401 22.9893 270.031 22.616C270.671 22.232 271.375 22.04 272.143 22.04C272.836 22.04 273.439 22.1787 273.951 22.456C274.473 22.7227 274.889 23.0587 275.199 23.464V22.184H277.039V31H275.199V29.688C274.889 30.104 274.468 30.4507 273.935 30.728C273.401 31.0053 272.793 31.144 272.111 31.144C271.353 31.144 270.66 30.952 270.031 30.568C269.401 30.1733 268.9 29.6293 268.527 28.936C268.164 28.232 267.983 27.4373 267.983 26.552ZM275.199 26.584C275.199 25.976 275.071 25.448 274.815 25C274.569 24.552 274.244 24.2107 273.839 23.976C273.433 23.7413 272.996 23.624 272.527 23.624C272.057 23.624 271.62 23.7413 271.215 23.976C270.809 24.2 270.479 24.536 270.223 24.984C269.977 25.4213 269.855 25.944 269.855 26.552C269.855 27.16 269.977 27.6933 270.223 28.152C270.479 28.6107 270.809 28.9627 271.215 29.208C271.631 29.4427 272.068 29.56 272.527 29.56C272.996 29.56 273.433 29.4427 273.839 29.208C274.244 28.9733 274.569 28.632 274.815 28.184C275.071 27.7253 275.199 27.192 275.199 26.584ZM283.882 22.04C284.576 22.04 285.194 22.184 285.738 22.472C286.293 22.76 286.725 23.1867 287.034 23.752C287.344 24.3173 287.498 25 287.498 25.8V31H285.69V26.072C285.69 25.2827 285.493 24.68 285.098 24.264C284.704 23.8373 284.165 23.624 283.482 23.624C282.8 23.624 282.256 23.8373 281.85 24.264C281.456 24.68 281.258 25.2827 281.258 26.072V31H279.434V22.184H281.258V23.192C281.557 22.8293 281.936 22.5467 282.394 22.344C282.864 22.1413 283.36 22.04 283.882 22.04ZM289.217 26.552C289.217 25.6667 289.398 24.8827 289.761 24.2C290.134 23.5173 290.636 22.9893 291.265 22.616C291.905 22.232 292.609 22.04 293.377 22.04C294.07 22.04 294.673 22.1787 295.185 22.456C295.708 22.7227 296.124 23.0587 296.433 23.464V22.184H298.273V31H296.433V29.688C296.124 30.104 295.702 30.4507 295.169 30.728C294.636 31.0053 294.028 31.144 293.345 31.144C292.588 31.144 291.894 30.952 291.265 30.568C290.636 30.1733 290.134 29.6293 289.761 28.936C289.398 28.232 289.217 27.4373 289.217 26.552ZM296.433 26.584C296.433 25.976 296.305 25.448 296.049 25C295.804 24.552 295.478 24.2107 295.073 23.976C294.668 23.7413 294.23 23.624 293.761 23.624C293.292 23.624 292.854 23.7413 292.449 23.976C292.044 24.2 291.713 24.536 291.457 24.984C291.212 25.4213 291.089 25.944 291.089 26.552C291.089 27.16 291.212 27.6933 291.457 28.152C291.713 28.6107 292.044 28.9627 292.449 29.208C292.865 29.4427 293.302 29.56 293.761 29.56C294.23 29.56 294.668 29.4427 295.073 29.208C295.478 28.9733 295.804 28.632 296.049 28.184C296.305 27.7253 296.433 27.192 296.433 26.584ZM304.221 22.04C304.903 22.04 305.506 22.1787 306.029 22.456C306.562 22.7227 306.978 23.0587 307.277 23.464V22.184H309.117V31.144C309.117 31.9547 308.946 32.6747 308.605 33.304C308.263 33.944 307.767 34.4453 307.117 34.808C306.477 35.1707 305.709 35.352 304.813 35.352C303.618 35.352 302.626 35.0693 301.837 34.504C301.047 33.9493 300.599 33.192 300.493 32.232H302.301C302.439 32.6907 302.733 33.0587 303.181 33.336C303.639 33.624 304.183 33.768 304.813 33.768C305.549 33.768 306.141 33.544 306.589 33.096C307.047 32.648 307.277 31.9973 307.277 31.144V29.672C306.967 30.088 306.546 30.44 306.013 30.728C305.49 31.0053 304.893 31.144 304.221 31.144C303.453 31.144 302.749 30.952 302.109 30.568C301.479 30.1733 300.978 29.6293 300.605 28.936C300.242 28.232 300.061 27.4373 300.061 26.552C300.061 25.6667 300.242 24.8827 300.605 24.2C300.978 23.5173 301.479 22.9893 302.109 22.616C302.749 22.232 303.453 22.04 304.221 22.04ZM307.277 26.584C307.277 25.976 307.149 25.448 306.893 25C306.647 24.552 306.322 24.2107 305.917 23.976C305.511 23.7413 305.074 23.624 304.605 23.624C304.135 23.624 303.698 23.7413 303.293 23.976C302.887 24.2 302.557 24.536 302.301 24.984C302.055 25.4213 301.933 25.944 301.933 26.552C301.933 27.16 302.055 27.6933 302.301 28.152C302.557 28.6107 302.887 28.9627 303.293 29.208C303.709 29.4427 304.146 29.56 304.605 29.56C305.074 29.56 305.511 29.4427 305.917 29.208C306.322 28.9733 306.647 28.632 306.893 28.184C307.149 27.7253 307.277 27.192 307.277 26.584ZM319.593 26.376C319.593 26.7067 319.571 27.0053 319.529 27.272H312.793C312.846 27.976 313.107 28.5413 313.577 28.968C314.046 29.3947 314.622 29.608 315.305 29.608C316.286 29.608 316.979 29.1973 317.385 28.376H319.352C319.086 29.1867 318.601 29.8533 317.897 30.376C317.203 30.888 316.339 31.144 315.305 31.144C314.462 31.144 313.705 30.9573 313.033 30.584C312.371 30.2 311.849 29.6667 311.465 28.984C311.091 28.2907 310.905 27.4907 310.905 26.584C310.905 25.6773 311.086 24.8827 311.449 24.2C311.822 23.5067 312.339 22.9733 313.001 22.6C313.673 22.2267 314.441 22.04 315.305 22.04C316.137 22.04 316.878 22.2213 317.529 22.584C318.179 22.9467 318.686 23.4587 319.049 24.12C319.411 24.7707 319.593 25.5227 319.593 26.376ZM317.689 25.8C317.678 25.128 317.438 24.5893 316.969 24.184C316.499 23.7787 315.918 23.576 315.225 23.576C314.595 23.576 314.057 23.7787 313.609 24.184C313.161 24.5787 312.894 25.1173 312.809 25.8H317.689ZM323.212 23.464C323.478 23.016 323.83 22.6693 324.268 22.424C324.716 22.168 325.244 22.04 325.852 22.04V23.928H325.388C324.673 23.928 324.129 24.1093 323.756 24.472C323.393 24.8347 323.212 25.464 323.212 26.36V31H321.388V22.184H323.212V23.464Z" fill="white"/>
<rect x="150" y="22" width="8" height="8" rx="4" fill="white"/>
<rect x="156" y="20" width="10" height="10" rx="5" fill="white"/>
<rect x="154" y="25.5" width="6.66667" height="4.5" fill="white"/>
<path d="M28.9839 65.084C28.4239 65.084 27.9199 64.988 27.4719 64.796C27.0239 64.596 26.6719 64.316 26.4159 63.956C26.1599 63.596 26.0319 63.176 26.0319 62.696H27.4959C27.5279 63.056 27.6679 63.352 27.9159 63.584C28.1719 63.816 28.5279 63.932 28.9839 63.932C29.4559 63.932 29.8239 63.82 30.0879 63.596C30.3519 63.364 30.4839 63.068 30.4839 62.708C30.4839 62.428 30.3999 62.2 30.2319 62.024C30.0719 61.848 29.8679 61.712 29.6199 61.616C29.3799 61.52 29.0439 61.416 28.6119 61.304C28.0679 61.16 27.6239 61.016 27.2799 60.872C26.9439 60.72 26.6559 60.488 26.4159 60.176C26.1759 59.864 26.0559 59.448 26.0559 58.928C26.0559 58.448 26.1759 58.028 26.4159 57.668C26.6559 57.308 26.9919 57.032 27.4239 56.84C27.8559 56.648 28.3559 56.552 28.9239 56.552C29.7319 56.552 30.3919 56.756 30.9039 57.164C31.4239 57.564 31.7119 58.116 31.7679 58.82H30.2559C30.2319 58.516 30.0879 58.256 29.8239 58.04C29.5599 57.824 29.2119 57.716 28.7799 57.716C28.3879 57.716 28.0679 57.816 27.8199 58.016C27.5719 58.216 27.4479 58.504 27.4479 58.88C27.4479 59.136 27.5239 59.348 27.6759 59.516C27.8359 59.676 28.0359 59.804 28.2759 59.9C28.5159 59.996 28.8439 60.1 29.2599 60.212C29.8119 60.364 30.2599 60.516 30.6039 60.668C30.9559 60.82 31.2519 61.056 31.4919 61.376C31.7399 61.688 31.8639 62.108 31.8639 62.636C31.8639 63.06 31.7479 63.46 31.5159 63.836C31.2919 64.212 30.9599 64.516 30.5199 64.748C30.0879 64.972 29.5759 65.084 28.9839 65.084ZM36.3461 65.108C35.7221 65.108 35.1581 64.968 34.6541 64.688C34.1501 64.4 33.7541 64 33.4661 63.488C33.1781 62.968 33.0341 62.368 33.0341 61.688C33.0341 61.016 33.1821 60.42 33.4781 59.9C33.7741 59.38 34.1781 58.98 34.6901 58.7C35.2021 58.42 35.7741 58.28 36.4061 58.28C37.0381 58.28 37.6101 58.42 38.1221 58.7C38.6341 58.98 39.0381 59.38 39.3341 59.9C39.6301 60.42 39.7781 61.016 39.7781 61.688C39.7781 62.36 39.6261 62.956 39.3221 63.476C39.0181 63.996 38.6021 64.4 38.0741 64.688C37.5541 64.968 36.9781 65.108 36.3461 65.108ZM36.3461 63.92C36.6981 63.92 37.0261 63.836 37.3301 63.668C37.6421 63.5 37.8941 63.248 38.0861 62.912C38.2781 62.576 38.3741 62.168 38.3741 61.688C38.3741 61.208 38.2821 60.804 38.0981 60.476C37.9141 60.14 37.6701 59.888 37.3661 59.72C37.0621 59.552 36.7341 59.468 36.3821 59.468C36.0301 59.468 35.7021 59.552 35.3981 59.72C35.1021 59.888 34.8661 60.14 34.6901 60.476C34.5141 60.804 34.4261 61.208 34.4261 61.688C34.4261 62.4 34.6061 62.952 34.9661 63.344C35.3341 63.728 35.7941 63.92 36.3461 63.92ZM42.4985 59.348C42.6985 59.012 42.9625 58.752 43.2905 58.568C43.6265 58.376 44.0225 58.28 44.4785 58.28V59.696H44.1305C43.5945 59.696 43.1865 59.832 42.9065 60.104C42.6345 60.376 42.4985 60.848 42.4985 61.52V65H41.1305V58.388H42.4985V59.348ZM47.1039 59.348C47.3039 59.012 47.5679 58.752 47.8959 58.568C48.2319 58.376 48.6279 58.28 49.0839 58.28V59.696H48.7359C48.1999 59.696 47.7919 59.832 47.5119 60.104C47.2399 60.376 47.1039 60.848 47.1039 61.52V65H45.7359V58.388H47.1039V59.348ZM56.2934 58.388L52.2374 68.108H50.8214L52.1654 64.892L49.5614 58.388H51.0854L52.9454 63.428L54.8774 58.388H56.2934ZM58.8258 63.356L57.3738 66.668H56.4858L57.3378 63.356H58.8258ZM64.7343 59.504V63.164C64.7343 63.412 64.7903 63.592 64.9023 63.704C65.0223 63.808 65.2223 63.86 65.5023 63.86H66.3423V65H65.2623C64.6463 65 64.1743 64.856 63.8463 64.568C63.5183 64.28 63.3543 63.812 63.3543 63.164V59.504H62.5743V58.388H63.3543V56.744H64.7343V58.388H66.3423V59.504H64.7343ZM71.0231 58.28C71.5271 58.28 71.9751 58.388 72.3671 58.604C72.7671 58.82 73.0791 59.14 73.3031 59.564C73.5351 59.988 73.6511 60.5 73.6511 61.1V65H72.2951V61.304C72.2951 60.712 72.1471 60.26 71.8511 59.948C71.5551 59.628 71.1511 59.468 70.6391 59.468C70.1271 59.468 69.7191 59.628 69.4151 59.948C69.1191 60.26 68.9711 60.712 68.9711 61.304V65H67.6031V56.12H68.9711V59.156C69.2031 58.876 69.4951 58.66 69.8471 58.508C70.2071 58.356 70.5991 58.28 71.0231 58.28ZM81.4561 61.532C81.4561 61.78 81.4401 62.004 81.4081 62.204H76.3561C76.3961 62.732 76.5921 63.156 76.9441 63.476C77.2961 63.796 77.7281 63.956 78.2401 63.956C78.9761 63.956 79.4961 63.648 79.8001 63.032H81.2761C81.0761 63.64 80.7121 64.14 80.1841 64.532C79.6641 64.916 79.0161 65.108 78.2401 65.108C77.6081 65.108 77.0401 64.968 76.5361 64.688C76.0401 64.4 75.6481 64 75.3601 63.488C75.0801 62.968 74.9401 62.368 74.9401 61.688C74.9401 61.008 75.0761 60.412 75.3481 59.9C75.6281 59.38 76.0161 58.98 76.5121 58.7C77.0161 58.42 77.5921 58.28 78.2401 58.28C78.8641 58.28 79.4201 58.416 79.9081 58.688C80.3961 58.96 80.7761 59.344 81.0481 59.84C81.3201 60.328 81.4561 60.892 81.4561 61.532ZM80.0281 61.1C80.0201 60.596 79.8401 60.192 79.4881 59.888C79.1361 59.584 78.7001 59.432 78.1801 59.432C77.7081 59.432 77.3041 59.584 76.9681 59.888C76.6321 60.184 76.4321 60.588 76.3681 61.1H80.0281ZM85.4635 61.688C85.4635 61.008 85.5995 60.412 85.8715 59.9C86.1515 59.38 86.5355 58.98 87.0235 58.7C87.5115 58.42 88.0715 58.28 88.7035 58.28C89.5035 58.28 90.1635 58.472 90.6835 58.856C91.2115 59.232 91.5675 59.772 91.7515 60.476H90.2755C90.1555 60.148 89.9635 59.892 89.6995 59.708C89.4355 59.524 89.1035 59.432 88.7035 59.432C88.1435 59.432 87.6955 59.632 87.3595 60.032C87.0315 60.424 86.8675 60.976 86.8675 61.688C86.8675 62.4 87.0315 62.956 87.3595 63.356C87.6955 63.756 88.1435 63.956 88.7035 63.956C89.4955 63.956 90.0195 63.608 90.2755 62.912H91.7515C91.5595 63.584 91.1995 64.12 90.6715 64.52C90.1435 64.912 89.4875 65.108 88.7035 65.108C88.0715 65.108 87.5115 64.968 87.0235 64.688C86.5355 64.4 86.1515 64 85.8715 63.488C85.5995 62.968 85.4635 62.368 85.4635 61.688ZM94.4828 56.12V65H93.1148V56.12H94.4828ZM99.1469 65.108C98.5229 65.108 97.9589 64.968 97.4549 64.688C96.9509 64.4 96.5549 64 96.2669 63.488C95.9789 62.968 95.8349 62.368 95.8349 61.688C95.8349 61.016 95.9829 60.42 96.2789 59.9C96.5749 59.38 96.9789 58.98 97.4909 58.7C98.0029 58.42 98.5749 58.28 99.2069 58.28C99.8389 58.28 100.411 58.42 100.923 58.7C101.435 58.98 101.839 59.38 102.135 59.9C102.431 60.42 102.579 61.016 102.579 61.688C102.579 62.36 102.427 62.956 102.123 63.476C101.819 63.996 101.403 64.4 100.875 64.688C100.355 64.968 99.7789 65.108 99.1469 65.108ZM99.1469 63.92C99.4989 63.92 99.8269 63.836 100.131 63.668C100.443 63.5 100.695 63.248 100.887 62.912C101.079 62.576 101.175 62.168 101.175 61.688C101.175 61.208 101.083 60.804 100.899 60.476C100.715 60.14 100.471 59.888 100.167 59.72C99.8629 59.552 99.5349 59.468 99.1829 59.468C98.8309 59.468 98.5029 59.552 98.1989 59.72C97.9029 59.888 97.6669 60.14 97.4909 60.476C97.3149 60.804 97.2269 61.208 97.2269 61.688C97.2269 62.4 97.4069 62.952 97.7669 63.344C98.1349 63.728 98.5949 63.92 99.1469 63.92ZM109.919 58.388V65H108.551V64.22C108.335 64.492 108.051 64.708 107.699 64.868C107.355 65.02 106.987 65.096 106.595 65.096C106.075 65.096 105.607 64.988 105.191 64.772C104.783 64.556 104.459 64.236 104.219 63.812C103.987 63.388 103.871 62.876 103.871 62.276V58.388H105.227V62.072C105.227 62.664 105.375 63.12 105.671 63.44C105.967 63.752 106.371 63.908 106.883 63.908C107.395 63.908 107.799 63.752 108.095 63.44C108.399 63.12 108.551 62.664 108.551 62.072V58.388H109.919ZM111.268 61.664C111.268 61 111.404 60.412 111.676 59.9C111.956 59.388 112.332 58.992 112.804 58.712C113.284 58.424 113.816 58.28 114.4 58.28C114.832 58.28 115.256 58.376 115.672 58.568C116.096 58.752 116.432 59 116.68 59.312V56.12H118.06V65H116.68V64.004C116.456 64.324 116.144 64.588 115.744 64.796C115.352 65.004 114.9 65.108 114.388 65.108C113.812 65.108 113.284 64.964 112.804 64.676C112.332 64.38 111.956 63.972 111.676 63.452C111.404 62.924 111.268 62.328 111.268 61.664ZM116.68 61.688C116.68 61.232 116.584 60.836 116.392 60.5C116.208 60.164 115.964 59.908 115.66 59.732C115.356 59.556 115.028 59.468 114.676 59.468C114.324 59.468 113.996 59.556 113.692 59.732C113.388 59.9 113.14 60.152 112.948 60.488C112.764 60.816 112.672 61.208 112.672 61.664C112.672 62.12 112.764 62.52 112.948 62.864C113.14 63.208 113.388 63.472 113.692 63.656C114.004 63.832 114.332 63.92 114.676 63.92C115.028 63.92 115.356 63.832 115.66 63.656C115.964 63.48 116.208 63.224 116.392 62.888C116.584 62.544 116.68 62.144 116.68 61.688ZM125.53 63.776L127.402 58.388H128.854L126.334 65H124.702L122.194 58.388H123.658L125.53 63.776ZM129.432 61.664C129.432 61 129.568 60.412 129.84 59.9C130.12 59.388 130.496 58.992 130.968 58.712C131.448 58.424 131.976 58.28 132.552 58.28C133.072 58.28 133.524 58.384 133.908 58.592C134.3 58.792 134.612 59.044 134.844 59.348V58.388H136.224V65H134.844V64.016C134.612 64.328 134.296 64.588 133.896 64.796C133.496 65.004 133.04 65.108 132.528 65.108C131.96 65.108 131.44 64.964 130.968 64.676C130.496 64.38 130.12 63.972 129.84 63.452C129.568 62.924 129.432 62.328 129.432 61.664ZM134.844 61.688C134.844 61.232 134.748 60.836 134.556 60.5C134.372 60.164 134.128 59.908 133.824 59.732C133.52 59.556 133.192 59.468 132.84 59.468C132.488 59.468 132.16 59.556 131.856 59.732C131.552 59.9 131.304 60.152 131.112 60.488C130.928 60.816 130.836 61.208 130.836 61.664C130.836 62.12 130.928 62.52 131.112 62.864C131.304 63.208 131.552 63.472 131.856 63.656C132.168 63.832 132.496 63.92 132.84 63.92C133.192 63.92 133.52 63.832 133.824 63.656C134.128 63.48 134.372 63.224 134.556 62.888C134.748 62.544 134.844 62.144 134.844 61.688ZM139.389 59.348C139.589 59.012 139.853 58.752 140.181 58.568C140.517 58.376 140.913 58.28 141.369 58.28V59.696H141.021C140.485 59.696 140.077 59.832 139.797 60.104C139.525 60.376 139.389 60.848 139.389 61.52V65H138.021V58.388H139.389V59.348ZM143.323 57.512C143.075 57.512 142.867 57.428 142.699 57.26C142.531 57.092 142.447 56.884 142.447 56.636C142.447 56.388 142.531 56.18 142.699 56.012C142.867 55.844 143.075 55.76 143.323 55.76C143.563 55.76 143.767 55.844 143.935 56.012C144.103 56.18 144.187 56.388 144.187 56.636C144.187 56.884 144.103 57.092 143.935 57.26C143.767 57.428 143.563 57.512 143.323 57.512ZM143.995 58.388V65H142.627V58.388H143.995ZM145.335 61.664C145.335 61 145.471 60.412 145.743 59.9C146.023 59.388 146.399 58.992 146.871 58.712C147.351 58.424 147.879 58.28 148.455 58.28C148.975 58.28 149.427 58.384 149.811 58.592C150.203 58.792 150.515 59.044 150.747 59.348V58.388H152.127V65H150.747V64.016C150.515 64.328 150.199 64.588 149.799 64.796C149.399 65.004 148.943 65.108 148.431 65.108C147.863 65.108 147.343 64.964 146.871 64.676C146.399 64.38 146.023 63.972 145.743 63.452C145.471 62.924 145.335 62.328 145.335 61.664ZM150.747 61.688C150.747 61.232 150.651 60.836 150.459 60.5C150.275 60.164 150.031 59.908 149.727 59.732C149.423 59.556 149.095 59.468 148.743 59.468C148.391 59.468 148.063 59.556 147.759 59.732C147.455 59.9 147.207 60.152 147.015 60.488C146.831 60.816 146.739 61.208 146.739 61.664C146.739 62.12 146.831 62.52 147.015 62.864C147.207 63.208 147.455 63.472 147.759 63.656C148.071 63.832 148.399 63.92 148.743 63.92C149.095 63.92 149.423 63.832 149.727 63.656C150.031 63.48 150.275 63.224 150.459 62.888C150.651 62.544 150.747 62.144 150.747 61.688ZM155.291 59.372C155.523 59.052 155.839 58.792 156.239 58.592C156.647 58.384 157.099 58.28 157.595 58.28C158.179 58.28 158.707 58.42 159.179 58.7C159.651 58.98 160.023 59.38 160.295 59.9C160.567 60.412 160.703 61 160.703 61.664C160.703 62.328 160.567 62.924 160.295 63.452C160.023 63.972 159.647 64.38 159.167 64.676C158.695 64.964 158.171 65.108 157.595 65.108C157.083 65.108 156.627 65.008 156.227 64.808C155.835 64.608 155.523 64.352 155.291 64.04V65H153.923V56.12H155.291V59.372ZM159.311 61.664C159.311 61.208 159.215 60.816 159.023 60.488C158.839 60.152 158.591 59.9 158.279 59.732C157.975 59.556 157.647 59.468 157.295 59.468C156.951 59.468 156.623 59.556 156.311 59.732C156.007 59.908 155.759 60.164 155.567 60.5C155.383 60.836 155.291 61.232 155.291 61.688C155.291 62.144 155.383 62.544 155.567 62.888C155.759 63.224 156.007 63.48 156.311 63.656C156.623 63.832 156.951 63.92 157.295 63.92C157.647 63.92 157.975 63.832 158.279 63.656C158.591 63.472 158.839 63.208 159.023 62.864C159.215 62.52 159.311 62.12 159.311 61.664ZM163.424 56.12V65H162.056V56.12H163.424ZM171.28 61.532C171.28 61.78 171.264 62.004 171.232 62.204H166.18C166.22 62.732 166.416 63.156 166.768 63.476C167.12 63.796 167.552 63.956 168.064 63.956C168.8 63.956 169.32 63.648 169.624 63.032H171.1C170.9 63.64 170.536 64.14 170.008 64.532C169.488 64.916 168.84 65.108 168.064 65.108C167.432 65.108 166.864 64.968 166.36 64.688C165.864 64.4 165.472 64 165.184 63.488C164.904 62.968 164.764 62.368 164.764 61.688C164.764 61.008 164.9 60.412 165.172 59.9C165.452 59.38 165.84 58.98 166.336 58.7C166.84 58.42 167.416 58.28 168.064 58.28C168.688 58.28 169.244 58.416 169.732 58.688C170.22 58.96 170.6 59.344 170.872 59.84C171.144 60.328 171.28 60.892 171.28 61.532ZM169.852 61.1C169.844 60.596 169.664 60.192 169.312 59.888C168.96 59.584 168.524 59.432 168.004 59.432C167.532 59.432 167.128 59.584 166.792 59.888C166.456 60.184 166.256 60.588 166.192 61.1H169.852ZM175.027 65.108C174.507 65.108 174.039 65.016 173.623 64.832C173.215 64.64 172.891 64.384 172.651 64.064C172.411 63.736 172.283 63.372 172.267 62.972H173.683C173.707 63.252 173.839 63.488 174.079 63.68C174.327 63.864 174.635 63.956 175.003 63.956C175.387 63.956 175.683 63.884 175.891 63.74C176.107 63.588 176.215 63.396 176.215 63.164C176.215 62.916 176.095 62.732 175.855 62.612C175.623 62.492 175.251 62.36 174.739 62.216C174.243 62.08 173.839 61.948 173.527 61.82C173.215 61.692 172.943 61.496 172.711 61.232C172.487 60.968 172.375 60.62 172.375 60.188C172.375 59.836 172.479 59.516 172.687 59.228C172.895 58.932 173.191 58.7 173.575 58.532C173.967 58.364 174.415 58.28 174.919 58.28C175.671 58.28 176.275 58.472 176.731 58.856C177.195 59.232 177.443 59.748 177.475 60.404H176.107C176.083 60.108 175.963 59.872 175.747 59.696C175.531 59.52 175.239 59.432 174.871 59.432C174.511 59.432 174.235 59.5 174.043 59.636C173.851 59.772 173.755 59.952 173.755 60.176C173.755 60.352 173.819 60.5 173.947 60.62C174.075 60.74 174.231 60.836 174.415 60.908C174.599 60.972 174.871 61.056 175.231 61.16C175.711 61.288 176.103 61.42 176.407 61.556C176.719 61.684 176.987 61.876 177.211 62.132C177.435 62.388 177.551 62.728 177.559 63.152C177.559 63.528 177.455 63.864 177.247 64.16C177.039 64.456 176.743 64.688 176.359 64.856C175.983 65.024 175.539 65.108 175.027 65.108ZM181.698 61.664C181.698 61 181.834 60.412 182.106 59.9C182.386 59.388 182.762 58.992 183.234 58.712C183.714 58.424 184.242 58.28 184.818 58.28C185.338 58.28 185.79 58.384 186.174 58.592C186.566 58.792 186.878 59.044 187.11 59.348V58.388H188.49V65H187.11V64.016C186.878 64.328 186.562 64.588 186.162 64.796C185.762 65.004 185.306 65.108 184.794 65.108C184.226 65.108 183.706 64.964 183.234 64.676C182.762 64.38 182.386 63.972 182.106 63.452C181.834 62.924 181.698 62.328 181.698 61.664ZM187.11 61.688C187.11 61.232 187.014 60.836 186.822 60.5C186.638 60.164 186.394 59.908 186.09 59.732C185.786 59.556 185.458 59.468 185.106 59.468C184.754 59.468 184.426 59.556 184.122 59.732C183.818 59.9 183.57 60.152 183.378 60.488C183.194 60.816 183.102 61.208 183.102 61.664C183.102 62.12 183.194 62.52 183.378 62.864C183.57 63.208 183.818 63.472 184.122 63.656C184.434 63.832 184.762 63.92 185.106 63.92C185.458 63.92 185.786 63.832 186.09 63.656C186.394 63.48 186.638 63.224 186.822 62.888C187.014 62.544 187.11 62.144 187.11 61.688ZM191.655 59.348C191.855 59.012 192.119 58.752 192.447 58.568C192.783 58.376 193.179 58.28 193.635 58.28V59.696H193.287C192.751 59.696 192.343 59.832 192.063 60.104C191.791 60.376 191.655 60.848 191.655 61.52V65H190.287V58.388H191.655V59.348ZM200.952 61.532C200.952 61.78 200.936 62.004 200.904 62.204H195.852C195.892 62.732 196.088 63.156 196.44 63.476C196.792 63.796 197.224 63.956 197.736 63.956C198.472 63.956 198.992 63.648 199.296 63.032H200.772C200.572 63.64 200.208 64.14 199.68 64.532C199.16 64.916 198.512 65.108 197.736 65.108C197.104 65.108 196.536 64.968 196.032 64.688C195.536 64.4 195.144 64 194.856 63.488C194.576 62.968 194.436 62.368 194.436 61.688C194.436 61.008 194.572 60.412 194.844 59.9C195.124 59.38 195.512 58.98 196.008 58.7C196.512 58.42 197.088 58.28 197.736 58.28C198.36 58.28 198.916 58.416 199.404 58.688C199.892 58.96 200.272 59.344 200.544 59.84C200.816 60.328 200.952 60.892 200.952 61.532ZM199.524 61.1C199.516 60.596 199.336 60.192 198.984 59.888C198.632 59.584 198.196 59.432 197.676 59.432C197.204 59.432 196.8 59.584 196.464 59.888C196.128 60.184 195.928 60.588 195.864 61.1H199.524ZM208.188 59.504H206.964V65H205.584V59.504H204.804V58.388H205.584V57.92C205.584 57.16 205.784 56.608 206.184 56.264C206.592 55.912 207.228 55.736 208.092 55.736V56.876C207.676 56.876 207.384 56.956 207.216 57.116C207.048 57.268 206.964 57.536 206.964 57.92V58.388H208.188V59.504ZM215.388 58.388V65H214.02V64.22C213.804 64.492 213.52 64.708 213.168 64.868C212.824 65.02 212.456 65.096 212.064 65.096C211.544 65.096 211.076 64.988 210.66 64.772C210.252 64.556 209.928 64.236 209.688 63.812C209.456 63.388 209.34 62.876 209.34 62.276V58.388H210.696V62.072C210.696 62.664 210.844 63.12 211.14 63.44C211.436 63.752 211.84 63.908 212.352 63.908C212.864 63.908 213.268 63.752 213.564 63.44C213.868 63.12 214.02 62.664 214.02 62.072V58.388H215.388ZM218.561 56.12V65H217.193V56.12H218.561ZM221.725 56.12V65H220.357V56.12H221.725ZM224.073 65.084C223.825 65.084 223.617 65 223.449 64.832C223.281 64.664 223.197 64.456 223.197 64.208C223.197 63.96 223.281 63.752 223.449 63.584C223.617 63.416 223.825 63.332 224.073 63.332C224.313 63.332 224.517 63.416 224.685 63.584C224.853 63.752 224.937 63.96 224.937 64.208C224.937 64.456 224.853 64.664 224.685 64.832C224.517 65 224.313 65.084 224.073 65.084ZM235.713 56.66L232.953 61.976V65H231.585V61.976L228.813 56.66H230.337L232.269 60.752L234.201 56.66H235.713ZM239.666 65.108C239.042 65.108 238.478 64.968 237.974 64.688C237.47 64.4 237.074 64 236.786 63.488C236.498 62.968 236.354 62.368 236.354 61.688C236.354 61.016 236.502 60.42 236.798 59.9C237.094 59.38 237.498 58.98 238.01 58.7C238.522 58.42 239.094 58.28 239.726 58.28C240.358 58.28 240.93 58.42 241.442 58.7C241.954 58.98 242.358 59.38 242.654 59.9C242.95 60.42 243.098 61.016 243.098 61.688C243.098 62.36 242.946 62.956 242.642 63.476C242.338 63.996 241.922 64.4 241.394 64.688C240.874 64.968 240.298 65.108 239.666 65.108ZM239.666 63.92C240.018 63.92 240.346 63.836 240.65 63.668C240.962 63.5 241.214 63.248 241.406 62.912C241.598 62.576 241.694 62.168 241.694 61.688C241.694 61.208 241.602 60.804 241.418 60.476C241.234 60.14 240.99 59.888 240.686 59.72C240.382 59.552 240.054 59.468 239.702 59.468C239.35 59.468 239.022 59.552 238.718 59.72C238.422 59.888 238.186 60.14 238.01 60.476C237.834 60.804 237.746 61.208 237.746 61.688C237.746 62.4 237.926 62.952 238.286 63.344C238.654 63.728 239.114 63.92 239.666 63.92ZM250.439 58.388V65H249.071V64.22C248.855 64.492 248.571 64.708 248.219 64.868C247.875 65.02 247.507 65.096 247.115 65.096C246.595 65.096 246.127 64.988 245.711 64.772C245.303 64.556 244.979 64.236 244.739 63.812C244.507 63.388 244.391 62.876 244.391 62.276V58.388H245.747V62.072C245.747 62.664 245.895 63.12 246.191 63.44C246.487 63.752 246.891 63.908 247.403 63.908C247.915 63.908 248.319 63.752 248.615 63.44C248.919 63.12 249.071 62.664 249.071 62.072V58.388H250.439ZM254.905 61.688C254.905 61.008 255.041 60.412 255.313 59.9C255.593 59.38 255.977 58.98 256.465 58.7C256.953 58.42 257.513 58.28 258.145 58.28C258.945 58.28 259.605 58.472 260.125 58.856C260.653 59.232 261.009 59.772 261.193 60.476H259.717C259.597 60.148 259.405 59.892 259.141 59.708C258.877 59.524 258.545 59.432 258.145 59.432C257.585 59.432 257.137 59.632 256.801 60.032C256.473 60.424 256.309 60.976 256.309 61.688C256.309 62.4 256.473 62.956 256.801 63.356C257.137 63.756 257.585 63.956 258.145 63.956C258.937 63.956 259.461 63.608 259.717 62.912H261.193C261.001 63.584 260.641 64.12 260.113 64.52C259.585 64.912 258.929 65.108 258.145 65.108C257.513 65.108 256.953 64.968 256.465 64.688C255.977 64.4 255.593 64 255.313 63.488C255.041 62.968 254.905 62.368 254.905 61.688ZM262.1 61.664C262.1 61 262.236 60.412 262.508 59.9C262.788 59.388 263.164 58.992 263.636 58.712C264.116 58.424 264.644 58.28 265.22 58.28C265.74 58.28 266.192 58.384 266.576 58.592C266.968 58.792 267.28 59.044 267.512 59.348V58.388H268.892V65H267.512V64.016C267.28 64.328 266.964 64.588 266.564 64.796C266.164 65.004 265.708 65.108 265.196 65.108C264.628 65.108 264.108 64.964 263.636 64.676C263.164 64.38 262.788 63.972 262.508 63.452C262.236 62.924 262.1 62.328 262.1 61.664ZM267.512 61.688C267.512 61.232 267.416 60.836 267.224 60.5C267.04 60.164 266.796 59.908 266.492 59.732C266.188 59.556 265.86 59.468 265.508 59.468C265.156 59.468 264.828 59.556 264.524 59.732C264.22 59.9 263.972 60.152 263.78 60.488C263.596 60.816 263.504 61.208 263.504 61.664C263.504 62.12 263.596 62.52 263.78 62.864C263.972 63.208 264.22 63.472 264.524 63.656C264.836 63.832 265.164 63.92 265.508 63.92C265.86 63.92 266.188 63.832 266.492 63.656C266.796 63.48 267.04 63.224 267.224 62.888C267.416 62.544 267.512 62.144 267.512 61.688ZM274.025 58.28C274.545 58.28 275.009 58.388 275.417 58.604C275.833 58.82 276.157 59.14 276.389 59.564C276.621 59.988 276.737 60.5 276.737 61.1V65H275.381V61.304C275.381 60.712 275.233 60.26 274.937 59.948C274.641 59.628 274.237 59.468 273.725 59.468C273.213 59.468 272.805 59.628 272.501 59.948C272.205 60.26 272.057 60.712 272.057 61.304V65H270.689V58.388H272.057V59.144C272.281 58.872 272.565 58.66 272.909 58.508C273.261 58.356 273.633 58.28 274.025 58.28ZM279.226 55.436L279.082 57.896H278.146L277.99 55.436H279.226ZM282.141 59.504V63.164C282.141 63.412 282.197 63.592 282.309 63.704C282.429 63.808 282.629 63.86 282.909 63.86H283.749V65H282.669C282.053 65 281.581 64.856 281.253 64.568C280.925 64.28 280.761 63.812 280.761 63.164V59.504H279.981V58.388H280.761V56.744H282.141V58.388H283.749V59.504H282.141ZM287.671 61.688C287.671 61.008 287.807 60.412 288.079 59.9C288.359 59.38 288.743 58.98 289.231 58.7C289.719 58.42 290.279 58.28 290.911 58.28C291.711 58.28 292.371 58.472 292.891 58.856C293.419 59.232 293.775 59.772 293.959 60.476H292.483C292.363 60.148 292.171 59.892 291.907 59.708C291.643 59.524 291.311 59.432 290.911 59.432C290.351 59.432 289.903 59.632 289.567 60.032C289.239 60.424 289.075 60.976 289.075 61.688C289.075 62.4 289.239 62.956 289.567 63.356C289.903 63.756 290.351 63.956 290.911 63.956C291.703 63.956 292.227 63.608 292.483 62.912H293.959C293.767 63.584 293.407 64.12 292.879 64.52C292.351 64.912 291.695 65.108 290.911 65.108C290.279 65.108 289.719 64.968 289.231 64.688C288.743 64.4 288.359 64 288.079 63.488C287.807 62.968 287.671 62.368 287.671 61.688ZM296.69 59.348C296.89 59.012 297.154 58.752 297.482 58.568C297.818 58.376 298.214 58.28 298.67 58.28V59.696H298.322C297.786 59.696 297.378 59.832 297.098 60.104C296.826 60.376 296.69 60.848 296.69 61.52V65H295.322V58.388H296.69V59.348ZM305.987 61.532C305.987 61.78 305.971 62.004 305.939 62.204H300.887C300.927 62.732 301.123 63.156 301.475 63.476C301.827 63.796 302.259 63.956 302.771 63.956C303.507 63.956 304.027 63.648 304.331 63.032H305.807C305.607 63.64 305.243 64.14 304.715 64.532C304.195 64.916 303.547 65.108 302.771 65.108C302.139 65.108 301.571 64.968 301.067 64.688C300.571 64.4 300.179 64 299.891 63.488C299.611 62.968 299.471 62.368 299.471 61.688C299.471 61.008 299.607 60.412 299.879 59.9C300.159 59.38 300.547 58.98 301.043 58.7C301.547 58.42 302.123 58.28 302.771 58.28C303.395 58.28 303.951 58.416 304.439 58.688C304.927 58.96 305.307 59.344 305.579 59.84C305.851 60.328 305.987 60.892 305.987 61.532ZM304.559 61.1C304.551 60.596 304.371 60.192 304.019 59.888C303.667 59.584 303.231 59.432 302.711 59.432C302.239 59.432 301.835 59.584 301.499 59.888C301.163 60.184 300.963 60.588 300.899 61.1H304.559ZM306.878 61.664C306.878 61 307.014 60.412 307.286 59.9C307.566 59.388 307.942 58.992 308.414 58.712C308.894 58.424 309.422 58.28 309.998 58.28C310.518 58.28 310.97 58.384 311.354 58.592C311.746 58.792 312.058 59.044 312.29 59.348V58.388H313.67V65H312.29V64.016C312.058 64.328 311.742 64.588 311.342 64.796C310.942 65.004 310.486 65.108 309.974 65.108C309.406 65.108 308.886 64.964 308.414 64.676C307.942 64.38 307.566 63.972 307.286 63.452C307.014 62.924 306.878 62.328 306.878 61.664ZM312.29 61.688C312.29 61.232 312.194 60.836 312.002 60.5C311.818 60.164 311.574 59.908 311.27 59.732C310.966 59.556 310.638 59.468 310.286 59.468C309.934 59.468 309.606 59.556 309.302 59.732C308.998 59.9 308.75 60.152 308.558 60.488C308.374 60.816 308.282 61.208 308.282 61.664C308.282 62.12 308.374 62.52 308.558 62.864C308.75 63.208 308.998 63.472 309.302 63.656C309.614 63.832 309.942 63.92 310.286 63.92C310.638 63.92 310.966 63.832 311.27 63.656C311.574 63.48 311.818 63.224 312.002 62.888C312.194 62.544 312.29 62.144 312.29 61.688ZM317.062 59.504V63.164C317.062 63.412 317.118 63.592 317.23 63.704C317.35 63.808 317.55 63.86 317.83 63.86H318.67V65H317.59C316.974 65 316.502 64.856 316.174 64.568C315.846 64.28 315.682 63.812 315.682 63.164V59.504H314.902V58.388H315.682V56.744H317.062V58.388H318.67V59.504H317.062ZM325.991 61.532C325.991 61.78 325.975 62.004 325.943 62.204H320.891C320.931 62.732 321.127 63.156 321.479 63.476C321.831 63.796 322.263 63.956 322.775 63.956C323.511 63.956 324.031 63.648 324.335 63.032H325.811C325.611 63.64 325.247 64.14 324.719 64.532C324.199 64.916 323.551 65.108 322.775 65.108C322.143 65.108 321.575 64.968 321.071 64.688C320.575 64.4 320.183 64 319.895 63.488C319.615 62.968 319.475 62.368 319.475 61.688C319.475 61.008 319.611 60.412 319.883 59.9C320.163 59.38 320.551 58.98 321.047 58.7C321.551 58.42 322.127 58.28 322.775 58.28C323.399 58.28 323.955 58.416 324.443 58.688C324.931 58.96 325.311 59.344 325.583 59.84C325.855 60.328 325.991 60.892 325.991 61.532ZM324.563 61.1C324.555 60.596 324.375 60.192 324.023 59.888C323.671 59.584 323.235 59.432 322.715 59.432C322.243 59.432 321.839 59.584 321.503 59.888C321.167 60.184 320.967 60.588 320.903 61.1H324.563ZM329.999 61.664C329.999 61 330.135 60.412 330.407 59.9C330.687 59.388 331.063 58.992 331.535 58.712C332.015 58.424 332.543 58.28 333.119 58.28C333.639 58.28 334.091 58.384 334.475 58.592C334.867 58.792 335.179 59.044 335.411 59.348V58.388H336.791V65H335.411V64.016C335.179 64.328 334.863 64.588 334.463 64.796C334.063 65.004 333.607 65.108 333.095 65.108C332.527 65.108 332.007 64.964 331.535 64.676C331.063 64.38 330.687 63.972 330.407 63.452C330.135 62.924 329.999 62.328 329.999 61.664ZM335.411 61.688C335.411 61.232 335.315 60.836 335.123 60.5C334.939 60.164 334.695 59.908 334.391 59.732C334.087 59.556 333.759 59.468 333.407 59.468C333.055 59.468 332.727 59.556 332.423 59.732C332.119 59.9 331.871 60.152 331.679 60.488C331.495 60.816 331.403 61.208 331.403 61.664C331.403 62.12 331.495 62.52 331.679 62.864C331.871 63.208 332.119 63.472 332.423 63.656C332.735 63.832 333.063 63.92 333.407 63.92C333.759 63.92 334.087 63.832 334.391 63.656C334.695 63.48 334.939 63.224 335.123 62.888C335.315 62.544 335.411 62.144 335.411 61.688ZM345.041 58.28C345.561 58.28 346.025 58.388 346.433 58.604C346.849 58.82 347.173 59.14 347.405 59.564C347.637 59.988 347.753 60.5 347.753 61.1V65H346.397V61.304C346.397 60.712 346.249 60.26 345.953 59.948C345.657 59.628 345.253 59.468 344.741 59.468C344.229 59.468 343.821 59.628 343.517 59.948C343.221 60.26 343.073 60.712 343.073 61.304V65H341.705V58.388H343.073V59.144C343.297 58.872 343.581 58.66 343.925 58.508C344.277 58.356 344.649 58.28 345.041 58.28ZM355.558 61.532C355.558 61.78 355.542 62.004 355.51 62.204H350.458C350.498 62.732 350.694 63.156 351.046 63.476C351.398 63.796 351.83 63.956 352.342 63.956C353.078 63.956 353.598 63.648 353.902 63.032H355.378C355.178 63.64 354.814 64.14 354.286 64.532C353.766 64.916 353.118 65.108 352.342 65.108C351.71 65.108 351.142 64.968 350.638 64.688C350.142 64.4 349.75 64 349.462 63.488C349.182 62.968 349.042 62.368 349.042 61.688C349.042 61.008 349.178 60.412 349.45 59.9C349.73 59.38 350.118 58.98 350.614 58.7C351.118 58.42 351.694 58.28 352.342 58.28C352.966 58.28 353.522 58.416 354.01 58.688C354.498 58.96 354.878 59.344 355.15 59.84C355.422 60.328 355.558 60.892 355.558 61.532ZM354.13 61.1C354.122 60.596 353.942 60.192 353.59 59.888C353.238 59.584 352.802 59.432 352.282 59.432C351.81 59.432 351.406 59.584 351.07 59.888C350.734 60.184 350.534 60.588 350.47 61.1H354.13ZM365.784 58.388L363.732 65H362.292L360.96 60.116L359.628 65H358.188L356.124 58.388H357.516L358.896 63.704L360.3 58.388H361.728L363.072 63.68L364.44 58.388H365.784ZM371.291 59.372C371.523 59.052 371.839 58.792 372.239 58.592C372.647 58.384 373.099 58.28 373.595 58.28C374.179 58.28 374.707 58.42 375.179 58.7C375.651 58.98 376.023 59.38 376.295 59.9C376.567 60.412 376.703 61 376.703 61.664C376.703 62.328 376.567 62.924 376.295 63.452C376.023 63.972 375.647 64.38 375.167 64.676C374.695 64.964 374.171 65.108 373.595 65.108C373.083 65.108 372.627 65.008 372.227 64.808C371.835 64.608 371.523 64.352 371.291 64.04V65H369.923V56.12H371.291V59.372ZM375.311 61.664C375.311 61.208 375.215 60.816 375.023 60.488C374.839 60.152 374.591 59.9 374.279 59.732C373.975 59.556 373.647 59.468 373.295 59.468C372.951 59.468 372.623 59.556 372.311 59.732C372.007 59.908 371.759 60.164 371.567 60.5C371.383 60.836 371.291 61.232 371.291 61.688C371.291 62.144 371.383 62.544 371.567 62.888C371.759 63.224 372.007 63.48 372.311 63.656C372.623 63.832 372.951 63.92 373.295 63.92C373.647 63.92 373.975 63.832 374.279 63.656C374.591 63.472 374.839 63.208 375.023 62.864C375.215 62.52 375.311 62.12 375.311 61.664ZM377.6 61.664C377.6 61 377.736 60.412 378.008 59.9C378.288 59.388 378.664 58.992 379.136 58.712C379.616 58.424 380.144 58.28 380.72 58.28C381.24 58.28 381.692 58.384 382.076 58.592C382.468 58.792 382.78 59.044 383.012 59.348V58.388H384.392V65H383.012V64.016C382.78 64.328 382.464 64.588 382.064 64.796C381.664 65.004 381.208 65.108 380.696 65.108C380.128 65.108 379.608 64.964 379.136 64.676C378.664 64.38 378.288 63.972 378.008 63.452C377.736 62.924 377.6 62.328 377.6 61.664ZM383.012 61.688C383.012 61.232 382.916 60.836 382.724 60.5C382.54 60.164 382.296 59.908 381.992 59.732C381.688 59.556 381.36 59.468 381.008 59.468C380.656 59.468 380.328 59.556 380.024 59.732C379.72 59.9 379.472 60.152 379.28 60.488C379.096 60.816 379.004 61.208 379.004 61.664C379.004 62.12 379.096 62.52 379.28 62.864C379.472 63.208 379.72 63.472 380.024 63.656C380.336 63.832 380.664 63.92 381.008 63.92C381.36 63.92 381.688 63.832 381.992 63.656C382.296 63.48 382.54 63.224 382.724 62.888C382.916 62.544 383.012 62.144 383.012 61.688ZM385.733 61.688C385.733 61.008 385.869 60.412 386.141 59.9C386.421 59.38 386.805 58.98 387.293 58.7C387.781 58.42 388.341 58.28 388.973 58.28C389.773 58.28 390.433 58.472 390.953 58.856C391.481 59.232 391.837 59.772 392.021 60.476H390.545C390.425 60.148 390.233 59.892 389.969 59.708C389.705 59.524 389.373 59.432 388.973 59.432C388.413 59.432 387.965 59.632 387.629 60.032C387.301 60.424 387.137 60.976 387.137 61.688C387.137 62.4 387.301 62.956 387.629 63.356C387.965 63.756 388.413 63.956 388.973 63.956C389.765 63.956 390.289 63.608 390.545 62.912H392.021C391.829 63.584 391.469 64.12 390.941 64.52C390.413 64.912 389.757 65.108 388.973 65.108C388.341 65.108 387.781 64.968 387.293 64.688C386.805 64.4 386.421 64 386.141 63.488C385.869 62.968 385.733 62.368 385.733 61.688ZM396 61.7L399.048 65H397.2L394.752 62.156V65H393.384V56.12H394.752V61.28L397.152 58.388H399.048L396 61.7ZM406.017 58.388V65H404.649V64.22C404.433 64.492 404.149 64.708 403.797 64.868C403.453 65.02 403.085 65.096 402.693 65.096C402.173 65.096 401.705 64.988 401.289 64.772C400.881 64.556 400.557 64.236 400.317 63.812C400.085 63.388 399.969 62.876 399.969 62.276V58.388H401.325V62.072C401.325 62.664 401.473 63.12 401.769 63.44C402.065 63.752 402.469 63.908 402.981 63.908C403.493 63.908 403.897 63.752 404.193 63.44C404.497 63.12 404.649 62.664 404.649 62.072V58.388H406.017ZM409.19 59.36C409.422 59.056 409.738 58.8 410.138 58.592C410.538 58.384 410.99 58.28 411.494 58.28C412.07 58.28 412.594 58.424 413.066 58.712C413.546 58.992 413.922 59.388 414.194 59.9C414.466 60.412 414.602 61 414.602 61.664C414.602 62.328 414.466 62.924 414.194 63.452C413.922 63.972 413.546 64.38 413.066 64.676C412.594 64.964 412.07 65.108 411.494 65.108C410.99 65.108 410.542 65.008 410.15 64.808C409.758 64.6 409.438 64.344 409.19 64.04V68.144H407.822V58.388H409.19V59.36ZM413.21 61.664C413.21 61.208 413.114 60.816 412.922 60.488C412.738 60.152 412.49 59.9 412.178 59.732C411.874 59.556 411.546 59.468 411.194 59.468C410.85 59.468 410.522 59.556 410.21 59.732C409.906 59.908 409.658 60.164 409.466 60.5C409.282 60.836 409.19 61.232 409.19 61.688C409.19 62.144 409.282 62.544 409.466 62.888C409.658 63.224 409.906 63.48 410.21 63.656C410.522 63.832 410.85 63.92 411.194 63.92C411.546 63.92 411.874 63.832 412.178 63.656C412.49 63.472 412.738 63.208 412.922 62.864C413.114 62.52 413.21 62.12 413.21 61.664ZM416.507 65.084C416.259 65.084 416.051 65 415.883 64.832C415.715 64.664 415.631 64.456 415.631 64.208C415.631 63.96 415.715 63.752 415.883 63.584C416.051 63.416 416.259 63.332 416.507 63.332C416.747 63.332 416.951 63.416 417.119 63.584C417.287 63.752 417.371 63.96 417.371 64.208C417.371 64.456 417.287 64.664 417.119 64.832C416.951 65 416.747 65.084 416.507 65.084ZM427.354 56.66V57.776H425.134V65H423.766V57.776H421.534V56.66H427.354ZM430.108 59.348C430.308 59.012 430.572 58.752 430.9 58.568C431.236 58.376 431.632 58.28 432.088 58.28V59.696H431.74C431.204 59.696 430.796 59.832 430.516 60.104C430.244 60.376 430.108 60.848 430.108 61.52V65H428.74V58.388H430.108V59.348ZM439.297 58.388L435.241 68.108H433.825L435.169 64.892L432.565 58.388H434.089L435.949 63.428L437.881 58.388H439.297ZM445.043 59.504V63.164C445.043 63.412 445.099 63.592 445.211 63.704C445.331 63.808 445.531 63.86 445.811 63.86H446.651V65H445.571C444.955 65 444.483 64.856 444.155 64.568C443.827 64.28 443.663 63.812 443.663 63.164V59.504H442.883V58.388H443.663V56.744H445.043V58.388H446.651V59.504H445.043ZM450.78 65.108C450.156 65.108 449.592 64.968 449.088 64.688C448.584 64.4 448.188 64 447.9 63.488C447.612 62.968 447.468 62.368 447.468 61.688C447.468 61.016 447.616 60.42 447.912 59.9C448.208 59.38 448.612 58.98 449.124 58.7C449.636 58.42 450.208 58.28 450.84 58.28C451.472 58.28 452.044 58.42 452.556 58.7C453.068 58.98 453.472 59.38 453.768 59.9C454.064 60.42 454.212 61.016 454.212 61.688C454.212 62.36 454.06 62.956 453.756 63.476C453.452 63.996 453.036 64.4 452.508 64.688C451.988 64.968 451.412 65.108 450.78 65.108ZM450.78 63.92C451.132 63.92 451.46 63.836 451.764 63.668C452.076 63.5 452.328 63.248 452.52 62.912C452.712 62.576 452.808 62.168 452.808 61.688C452.808 61.208 452.716 60.804 452.532 60.476C452.348 60.14 452.104 59.888 451.8 59.72C451.496 59.552 451.168 59.468 450.816 59.468C450.464 59.468 450.136 59.552 449.832 59.72C449.536 59.888 449.3 60.14 449.124 60.476C448.948 60.804 448.86 61.208 448.86 61.688C448.86 62.4 449.04 62.952 449.4 63.344C449.768 63.728 450.228 63.92 450.78 63.92ZM115.354 77.348C115.554 77.012 115.818 76.752 116.146 76.568C116.482 76.376 116.878 76.28 117.334 76.28V77.696H116.986C116.45 77.696 116.042 77.832 115.762 78.104C115.49 78.376 115.354 78.848 115.354 79.52V83H113.986V76.388H115.354V77.348ZM124.651 79.532C124.651 79.78 124.635 80.004 124.603 80.204H119.551C119.591 80.732 119.787 81.156 120.139 81.476C120.491 81.796 120.923 81.956 121.435 81.956C122.171 81.956 122.691 81.648 122.995 81.032H124.471C124.271 81.64 123.907 82.14 123.379 82.532C122.859 82.916 122.211 83.108 121.435 83.108C120.803 83.108 120.235 82.968 119.731 82.688C119.235 82.4 118.843 82 118.555 81.488C118.275 80.968 118.135 80.368 118.135 79.688C118.135 79.008 118.271 78.412 118.543 77.9C118.823 77.38 119.211 76.98 119.707 76.7C120.211 76.42 120.787 76.28 121.435 76.28C122.059 76.28 122.615 76.416 123.103 76.688C123.591 76.96 123.971 77.344 124.243 77.84C124.515 78.328 124.651 78.892 124.651 79.532ZM123.223 79.1C123.215 78.596 123.035 78.192 122.683 77.888C122.331 77.584 121.895 77.432 121.375 77.432C120.903 77.432 120.499 77.584 120.163 77.888C119.827 78.184 119.627 78.588 119.563 79.1H123.223ZM127.366 77.36C127.598 77.056 127.914 76.8 128.314 76.592C128.714 76.384 129.166 76.28 129.67 76.28C130.246 76.28 130.77 76.424 131.242 76.712C131.722 76.992 132.098 77.388 132.37 77.9C132.642 78.412 132.778 79 132.778 79.664C132.778 80.328 132.642 80.924 132.37 81.452C132.098 81.972 131.722 82.38 131.242 82.676C130.77 82.964 130.246 83.108 129.67 83.108C129.166 83.108 128.718 83.008 128.326 82.808C127.934 82.6 127.614 82.344 127.366 82.04V86.144H125.998V76.388H127.366V77.36ZM131.386 79.664C131.386 79.208 131.29 78.816 131.098 78.488C130.914 78.152 130.666 77.9 130.354 77.732C130.05 77.556 129.722 77.468 129.37 77.468C129.026 77.468 128.698 77.556 128.386 77.732C128.082 77.908 127.834 78.164 127.642 78.5C127.458 78.836 127.366 79.232 127.366 79.688C127.366 80.144 127.458 80.544 127.642 80.888C127.834 81.224 128.082 81.48 128.386 81.656C128.698 81.832 129.026 81.92 129.37 81.92C129.722 81.92 130.05 81.832 130.354 81.656C130.666 81.472 130.914 81.208 131.098 80.864C131.29 80.52 131.386 80.12 131.386 79.664ZM135.498 74.12V83H134.13V74.12H135.498ZM136.839 79.664C136.839 79 136.975 78.412 137.247 77.9C137.527 77.388 137.903 76.992 138.375 76.712C138.855 76.424 139.383 76.28 139.959 76.28C140.479 76.28 140.931 76.384 141.315 76.592C141.707 76.792 142.019 77.044 142.251 77.348V76.388H143.631V83H142.251V82.016C142.019 82.328 141.703 82.588 141.303 82.796C140.903 83.004 140.447 83.108 139.935 83.108C139.367 83.108 138.847 82.964 138.375 82.676C137.903 82.38 137.527 81.972 137.247 81.452C136.975 80.924 136.839 80.328 136.839 79.664ZM142.251 79.688C142.251 79.232 142.155 78.836 141.963 78.5C141.779 78.164 141.535 77.908 141.231 77.732C140.927 77.556 140.599 77.468 140.247 77.468C139.895 77.468 139.567 77.556 139.263 77.732C138.959 77.9 138.711 78.152 138.519 78.488C138.335 78.816 138.243 79.208 138.243 79.664C138.243 80.12 138.335 80.52 138.519 80.864C138.711 81.208 138.959 81.472 139.263 81.656C139.575 81.832 139.903 81.92 140.247 81.92C140.599 81.92 140.927 81.832 141.231 81.656C141.535 81.48 141.779 81.224 141.963 80.888C142.155 80.544 142.251 80.144 142.251 79.688ZM144.971 79.688C144.971 79.008 145.107 78.412 145.379 77.9C145.659 77.38 146.043 76.98 146.531 76.7C147.019 76.42 147.579 76.28 148.211 76.28C149.011 76.28 149.671 76.472 150.191 76.856C150.719 77.232 151.075 77.772 151.259 78.476H149.783C149.663 78.148 149.471 77.892 149.207 77.708C148.943 77.524 148.611 77.432 148.211 77.432C147.651 77.432 147.203 77.632 146.867 78.032C146.539 78.424 146.375 78.976 146.375 79.688C146.375 80.4 146.539 80.956 146.867 81.356C147.203 81.756 147.651 81.956 148.211 81.956C149.003 81.956 149.527 81.608 149.783 80.912H151.259C151.067 81.584 150.707 82.12 150.179 82.52C149.651 82.912 148.995 83.108 148.211 83.108C147.579 83.108 147.019 82.968 146.531 82.688C146.043 82.4 145.659 82 145.379 81.488C145.107 80.968 144.971 80.368 144.971 79.688ZM158.683 79.532C158.683 79.78 158.667 80.004 158.635 80.204H153.583C153.623 80.732 153.819 81.156 154.171 81.476C154.523 81.796 154.955 81.956 155.467 81.956C156.203 81.956 156.723 81.648 157.027 81.032H158.503C158.303 81.64 157.939 82.14 157.411 82.532C156.891 82.916 156.243 83.108 155.467 83.108C154.835 83.108 154.267 82.968 153.763 82.688C153.267 82.4 152.875 82 152.587 81.488C152.307 80.968 152.167 80.368 152.167 79.688C152.167 79.008 152.303 78.412 152.575 77.9C152.855 77.38 153.243 76.98 153.739 76.7C154.243 76.42 154.819 76.28 155.467 76.28C156.091 76.28 156.647 76.416 157.135 76.688C157.623 76.96 158.003 77.344 158.275 77.84C158.547 78.328 158.683 78.892 158.683 79.532ZM157.255 79.1C157.247 78.596 157.067 78.192 156.715 77.888C156.363 77.584 155.927 77.432 155.407 77.432C154.935 77.432 154.531 77.584 154.195 77.888C153.859 78.184 153.659 78.588 153.595 79.1H157.255ZM162.69 79.664C162.69 79 162.826 78.412 163.098 77.9C163.378 77.388 163.754 76.992 164.226 76.712C164.706 76.424 165.234 76.28 165.81 76.28C166.33 76.28 166.782 76.384 167.166 76.592C167.558 76.792 167.87 77.044 168.102 77.348V76.388H169.482V83H168.102V82.016C167.87 82.328 167.554 82.588 167.154 82.796C166.754 83.004 166.298 83.108 165.786 83.108C165.218 83.108 164.698 82.964 164.226 82.676C163.754 82.38 163.378 81.972 163.098 81.452C162.826 80.924 162.69 80.328 162.69 79.664ZM168.102 79.688C168.102 79.232 168.006 78.836 167.814 78.5C167.63 78.164 167.386 77.908 167.082 77.732C166.778 77.556 166.45 77.468 166.098 77.468C165.746 77.468 165.418 77.556 165.114 77.732C164.81 77.9 164.562 78.152 164.37 78.488C164.186 78.816 164.094 79.208 164.094 79.664C164.094 80.12 164.186 80.52 164.37 80.864C164.562 81.208 164.81 81.472 165.114 81.656C165.426 81.832 165.754 81.92 166.098 81.92C166.45 81.92 166.778 81.832 167.082 81.656C167.386 81.48 167.63 81.224 167.814 80.888C168.006 80.544 168.102 80.144 168.102 79.688ZM174.615 76.28C175.135 76.28 175.599 76.388 176.007 76.604C176.423 76.82 176.747 77.14 176.979 77.564C177.211 77.988 177.327 78.5 177.327 79.1V83H175.971V79.304C175.971 78.712 175.823 78.26 175.527 77.948C175.231 77.628 174.827 77.468 174.315 77.468C173.803 77.468 173.395 77.628 173.091 77.948C172.795 78.26 172.647 78.712 172.647 79.304V83H171.279V76.388H172.647V77.144C172.871 76.872 173.155 76.66 173.499 76.508C173.851 76.356 174.223 76.28 174.615 76.28ZM188.249 79.532C188.249 79.78 188.233 80.004 188.201 80.204H183.149C183.189 80.732 183.385 81.156 183.737 81.476C184.089 81.796 184.521 81.956 185.033 81.956C185.769 81.956 186.289 81.648 186.593 81.032H188.069C187.869 81.64 187.505 82.14 186.977 82.532C186.457 82.916 185.809 83.108 185.033 83.108C184.401 83.108 183.833 82.968 183.329 82.688C182.833 82.4 182.441 82 182.153 81.488C181.873 80.968 181.733 80.368 181.733 79.688C181.733 79.008 181.869 78.412 182.141 77.9C182.421 77.38 182.809 76.98 183.305 76.7C183.809 76.42 184.385 76.28 185.033 76.28C185.657 76.28 186.213 76.416 186.701 76.688C187.189 76.96 187.569 77.344 187.841 77.84C188.113 78.328 188.249 78.892 188.249 79.532ZM186.821 79.1C186.813 78.596 186.633 78.192 186.281 77.888C185.929 77.584 185.493 77.432 184.973 77.432C184.501 77.432 184.097 77.584 183.761 77.888C183.425 78.184 183.225 78.588 183.161 79.1H186.821ZM192.427 79.652L194.563 83H193.015L191.587 80.756L190.243 83H188.815L190.951 79.748L188.815 76.388H190.363L191.791 78.632L193.135 76.388H194.563L192.427 79.652ZM196.28 75.512C196.032 75.512 195.824 75.428 195.656 75.26C195.488 75.092 195.404 74.884 195.404 74.636C195.404 74.388 195.488 74.18 195.656 74.012C195.824 73.844 196.032 73.76 196.28 73.76C196.52 73.76 196.724 73.844 196.892 74.012C197.06 74.18 197.144 74.388 197.144 74.636C197.144 74.884 197.06 75.092 196.892 75.26C196.724 75.428 196.52 75.512 196.28 75.512ZM196.952 76.388V83H195.584V76.388H196.952ZM201.148 83.108C200.628 83.108 200.16 83.016 199.744 82.832C199.336 82.64 199.012 82.384 198.772 82.064C198.532 81.736 198.404 81.372 198.388 80.972H199.804C199.828 81.252 199.96 81.488 200.2 81.68C200.448 81.864 200.756 81.956 201.124 81.956C201.508 81.956 201.804 81.884 202.012 81.74C202.228 81.588 202.336 81.396 202.336 81.164C202.336 80.916 202.216 80.732 201.976 80.612C201.744 80.492 201.372 80.36 200.86 80.216C200.364 80.08 199.96 79.948 199.648 79.82C199.336 79.692 199.064 79.496 198.832 79.232C198.608 78.968 198.496 78.62 198.496 78.188C198.496 77.836 198.6 77.516 198.808 77.228C199.016 76.932 199.312 76.7 199.696 76.532C200.088 76.364 200.536 76.28 201.04 76.28C201.792 76.28 202.396 76.472 202.852 76.856C203.316 77.232 203.564 77.748 203.596 78.404H202.228C202.204 78.108 202.084 77.872 201.868 77.696C201.652 77.52 201.36 77.432 200.992 77.432C200.632 77.432 200.356 77.5 200.164 77.636C199.972 77.772 199.876 77.952 199.876 78.176C199.876 78.352 199.94 78.5 200.068 78.62C200.196 78.74 200.352 78.836 200.536 78.908C200.72 78.972 200.992 79.056 201.352 79.16C201.832 79.288 202.224 79.42 202.528 79.556C202.84 79.684 203.108 79.876 203.332 80.132C203.556 80.388 203.672 80.728 203.68 81.152C203.68 81.528 203.576 81.864 203.368 82.16C203.16 82.456 202.864 82.688 202.48 82.856C202.104 83.024 201.66 83.108 201.148 83.108ZM206.754 77.504V81.164C206.754 81.412 206.81 81.592 206.922 81.704C207.042 81.808 207.242 81.86 207.522 81.86H208.362V83H207.282C206.666 83 206.194 82.856 205.866 82.568C205.538 82.28 205.374 81.812 205.374 81.164V77.504H204.594V76.388H205.374V74.744H206.754V76.388H208.362V77.504H206.754ZM210.319 75.512C210.071 75.512 209.863 75.428 209.695 75.26C209.527 75.092 209.443 74.884 209.443 74.636C209.443 74.388 209.527 74.18 209.695 74.012C209.863 73.844 210.071 73.76 210.319 73.76C210.559 73.76 210.763 73.844 210.931 74.012C211.099 74.18 211.183 74.388 211.183 74.636C211.183 74.884 211.099 75.092 210.931 75.26C210.763 75.428 210.559 75.512 210.319 75.512ZM210.991 76.388V83H209.623V76.388H210.991ZM216.123 76.28C216.643 76.28 217.107 76.388 217.515 76.604C217.931 76.82 218.255 77.14 218.487 77.564C218.719 77.988 218.835 78.5 218.835 79.1V83H217.479V79.304C217.479 78.712 217.331 78.26 217.035 77.948C216.739 77.628 216.335 77.468 215.823 77.468C215.311 77.468 214.903 77.628 214.599 77.948C214.303 78.26 214.155 78.712 214.155 79.304V83H212.787V76.388H214.155V77.144C214.379 76.872 214.663 76.66 215.007 76.508C215.359 76.356 215.731 76.28 216.123 76.28ZM223.244 76.28C223.756 76.28 224.208 76.384 224.6 76.592C225 76.792 225.312 77.044 225.536 77.348V76.388H226.916V83.108C226.916 83.716 226.788 84.256 226.532 84.728C226.276 85.208 225.904 85.584 225.416 85.856C224.936 86.128 224.36 86.264 223.688 86.264C222.792 86.264 222.048 86.052 221.456 85.628C220.864 85.212 220.528 84.644 220.448 83.924H221.804C221.908 84.268 222.128 84.544 222.464 84.752C222.808 84.968 223.216 85.076 223.688 85.076C224.24 85.076 224.684 84.908 225.02 84.572C225.364 84.236 225.536 83.748 225.536 83.108V82.004C225.304 82.316 224.988 82.58 224.588 82.796C224.196 83.004 223.748 83.108 223.244 83.108C222.668 83.108 222.14 82.964 221.66 82.676C221.188 82.38 220.812 81.972 220.532 81.452C220.26 80.924 220.124 80.328 220.124 79.664C220.124 79 220.26 78.412 220.532 77.9C220.812 77.388 221.188 76.992 221.66 76.712C222.14 76.424 222.668 76.28 223.244 76.28ZM225.536 79.688C225.536 79.232 225.44 78.836 225.248 78.5C225.064 78.164 224.82 77.908 224.516 77.732C224.212 77.556 223.884 77.468 223.532 77.468C223.18 77.468 222.852 77.556 222.548 77.732C222.244 77.9 221.996 78.152 221.804 78.488C221.62 78.816 221.528 79.208 221.528 79.664C221.528 80.12 221.62 80.52 221.804 80.864C221.996 81.208 222.244 81.472 222.548 81.656C222.86 81.832 223.188 81.92 223.532 81.92C223.884 81.92 224.212 81.832 224.516 81.656C224.82 81.48 225.064 81.224 225.248 80.888C225.44 80.544 225.536 80.144 225.536 79.688ZM233.198 77.372C233.43 77.052 233.746 76.792 234.146 76.592C234.554 76.384 235.006 76.28 235.502 76.28C236.086 76.28 236.614 76.42 237.086 76.7C237.558 76.98 237.93 77.38 238.202 77.9C238.474 78.412 238.61 79 238.61 79.664C238.61 80.328 238.474 80.924 238.202 81.452C237.93 81.972 237.554 82.38 237.074 82.676C236.602 82.964 236.078 83.108 235.502 83.108C234.99 83.108 234.534 83.008 234.134 82.808C233.742 82.608 233.43 82.352 233.198 82.04V83H231.83V74.12H233.198V77.372ZM237.218 79.664C237.218 79.208 237.122 78.816 236.93 78.488C236.746 78.152 236.498 77.9 236.186 77.732C235.882 77.556 235.554 77.468 235.202 77.468C234.858 77.468 234.53 77.556 234.218 77.732C233.914 77.908 233.666 78.164 233.474 78.5C233.29 78.836 233.198 79.232 233.198 79.688C233.198 80.144 233.29 80.544 233.474 80.888C233.666 81.224 233.914 81.48 234.218 81.656C234.53 81.832 234.858 81.92 235.202 81.92C235.554 81.92 235.882 81.832 236.186 81.656C236.498 81.472 236.746 81.208 236.93 80.864C237.122 80.52 237.218 80.12 237.218 79.664ZM239.507 79.664C239.507 79 239.643 78.412 239.915 77.9C240.195 77.388 240.571 76.992 241.043 76.712C241.523 76.424 242.051 76.28 242.627 76.28C243.147 76.28 243.599 76.384 243.983 76.592C244.375 76.792 244.687 77.044 244.919 77.348V76.388H246.299V83H244.919V82.016C244.687 82.328 244.371 82.588 243.971 82.796C243.571 83.004 243.115 83.108 242.603 83.108C242.035 83.108 241.515 82.964 241.043 82.676C240.571 82.38 240.195 81.972 239.915 81.452C239.643 80.924 239.507 80.328 239.507 79.664ZM244.919 79.688C244.919 79.232 244.823 78.836 244.631 78.5C244.447 78.164 244.203 77.908 243.899 77.732C243.595 77.556 243.267 77.468 242.915 77.468C242.563 77.468 242.235 77.556 241.931 77.732C241.627 77.9 241.379 78.152 241.187 78.488C241.003 78.816 240.911 79.208 240.911 79.664C240.911 80.12 241.003 80.52 241.187 80.864C241.379 81.208 241.627 81.472 241.931 81.656C242.243 81.832 242.571 81.92 242.915 81.92C243.267 81.92 243.595 81.832 243.899 81.656C244.203 81.48 244.447 81.224 244.631 80.888C244.823 80.544 244.919 80.144 244.919 79.688ZM247.639 79.688C247.639 79.008 247.775 78.412 248.047 77.9C248.327 77.38 248.711 76.98 249.199 76.7C249.687 76.42 250.247 76.28 250.879 76.28C251.679 76.28 252.339 76.472 252.859 76.856C253.387 77.232 253.743 77.772 253.927 78.476H252.451C252.331 78.148 252.139 77.892 251.875 77.708C251.611 77.524 251.279 77.432 250.879 77.432C250.319 77.432 249.871 77.632 249.535 78.032C249.207 78.424 249.043 78.976 249.043 79.688C249.043 80.4 249.207 80.956 249.535 81.356C249.871 81.756 250.319 81.956 250.879 81.956C251.671 81.956 252.195 81.608 252.451 80.912H253.927C253.735 81.584 253.375 82.12 252.847 82.52C252.319 82.912 251.663 83.108 250.879 83.108C250.247 83.108 249.687 82.968 249.199 82.688C248.711 82.4 248.327 82 248.047 81.488C247.775 80.968 247.639 80.368 247.639 79.688ZM257.907 79.7L260.955 83H259.107L256.659 80.156V83H255.291V74.12H256.659V79.28L259.059 76.388H260.955L257.907 79.7ZM267.923 76.388V83H266.555V82.22C266.339 82.492 266.055 82.708 265.703 82.868C265.359 83.02 264.991 83.096 264.599 83.096C264.079 83.096 263.611 82.988 263.195 82.772C262.787 82.556 262.463 82.236 262.223 81.812C261.991 81.388 261.875 80.876 261.875 80.276V76.388H263.231V80.072C263.231 80.664 263.379 81.12 263.675 81.44C263.971 81.752 264.375 81.908 264.887 81.908C265.399 81.908 265.803 81.752 266.099 81.44C266.403 81.12 266.555 80.664 266.555 80.072V76.388H267.923ZM271.096 77.36C271.328 77.056 271.644 76.8 272.044 76.592C272.444 76.384 272.896 76.28 273.4 76.28C273.976 76.28 274.5 76.424 274.972 76.712C275.452 76.992 275.828 77.388 276.1 77.9C276.372 78.412 276.508 79 276.508 79.664C276.508 80.328 276.372 80.924 276.1 81.452C275.828 81.972 275.452 82.38 274.972 82.676C274.5 82.964 273.976 83.108 273.4 83.108C272.896 83.108 272.448 83.008 272.056 82.808C271.664 82.6 271.344 82.344 271.096 82.04V86.144H269.728V76.388H271.096V77.36ZM275.116 79.664C275.116 79.208 275.02 78.816 274.828 78.488C274.644 78.152 274.396 77.9 274.084 77.732C273.78 77.556 273.452 77.468 273.1 77.468C272.756 77.468 272.428 77.556 272.116 77.732C271.812 77.908 271.564 78.164 271.372 78.5C271.188 78.836 271.096 79.232 271.096 79.688C271.096 80.144 271.188 80.544 271.372 80.888C271.564 81.224 271.812 81.48 272.116 81.656C272.428 81.832 272.756 81.92 273.1 81.92C273.452 81.92 273.78 81.832 274.084 81.656C274.396 81.472 274.644 81.208 274.828 80.864C275.02 80.52 275.116 80.12 275.116 79.664ZM289.858 76.388L287.806 83H286.366L285.034 78.116L283.702 83H282.262L280.198 76.388H281.59L282.97 81.704L284.374 76.388H285.802L287.146 81.68L288.514 76.388H289.858ZM291.576 75.512C291.328 75.512 291.12 75.428 290.952 75.26C290.784 75.092 290.7 74.884 290.7 74.636C290.7 74.388 290.784 74.18 290.952 74.012C291.12 73.844 291.328 73.76 291.576 73.76C291.816 73.76 292.02 73.844 292.188 74.012C292.356 74.18 292.44 74.388 292.44 74.636C292.44 74.884 292.356 75.092 292.188 75.26C292.02 75.428 291.816 75.512 291.576 75.512ZM292.248 76.388V83H290.88V76.388H292.248ZM295.641 77.504V81.164C295.641 81.412 295.697 81.592 295.809 81.704C295.929 81.808 296.129 81.86 296.409 81.86H297.249V83H296.169C295.553 83 295.081 82.856 294.753 82.568C294.425 82.28 294.261 81.812 294.261 81.164V77.504H293.481V76.388H294.261V74.744H295.641V76.388H297.249V77.504H295.641ZM301.929 76.28C302.433 76.28 302.881 76.388 303.273 76.604C303.673 76.82 303.985 77.14 304.209 77.564C304.441 77.988 304.557 78.5 304.557 79.1V83H303.201V79.304C303.201 78.712 303.053 78.26 302.757 77.948C302.461 77.628 302.057 77.468 301.545 77.468C301.033 77.468 300.625 77.628 300.321 77.948C300.025 78.26 299.877 78.712 299.877 79.304V83H298.509V74.12H299.877V77.156C300.109 76.876 300.401 76.66 300.753 76.508C301.113 76.356 301.505 76.28 301.929 76.28ZM315.372 76.388L311.316 86.108H309.9L311.244 82.892L308.64 76.388H310.164L312.024 81.428L313.956 76.388H315.372ZM319.272 83.108C318.648 83.108 318.084 82.968 317.58 82.688C317.076 82.4 316.68 82 316.392 81.488C316.104 80.968 315.96 80.368 315.96 79.688C315.96 79.016 316.108 78.42 316.404 77.9C316.7 77.38 317.104 76.98 317.616 76.7C318.128 76.42 318.7 76.28 319.332 76.28C319.964 76.28 320.536 76.42 321.048 76.7C321.56 76.98 321.964 77.38 322.26 77.9C322.556 78.42 322.704 79.016 322.704 79.688C322.704 80.36 322.552 80.956 322.248 81.476C321.944 81.996 321.528 82.4 321 82.688C320.48 82.968 319.904 83.108 319.272 83.108ZM319.272 81.92C319.624 81.92 319.952 81.836 320.256 81.668C320.568 81.5 320.82 81.248 321.012 80.912C321.204 80.576 321.3 80.168 321.3 79.688C321.3 79.208 321.208 78.804 321.024 78.476C320.84 78.14 320.596 77.888 320.292 77.72C319.988 77.552 319.66 77.468 319.308 77.468C318.956 77.468 318.628 77.552 318.324 77.72C318.028 77.888 317.792 78.14 317.616 78.476C317.44 78.804 317.352 79.208 317.352 79.688C317.352 80.4 317.532 80.952 317.892 81.344C318.26 81.728 318.72 81.92 319.272 81.92ZM330.044 76.388V83H328.676V82.22C328.46 82.492 328.176 82.708 327.824 82.868C327.48 83.02 327.112 83.096 326.72 83.096C326.2 83.096 325.732 82.988 325.316 82.772C324.908 82.556 324.584 82.236 324.344 81.812C324.112 81.388 323.996 80.876 323.996 80.276V76.388H325.352V80.072C325.352 80.664 325.5 81.12 325.796 81.44C326.092 81.752 326.496 81.908 327.008 81.908C327.52 81.908 327.924 81.752 328.22 81.44C328.524 81.12 328.676 80.664 328.676 80.072V76.388H330.044ZM333.217 77.348C333.417 77.012 333.681 76.752 334.009 76.568C334.345 76.376 334.741 76.28 335.197 76.28V77.696H334.849C334.313 77.696 333.905 77.832 333.625 78.104C333.353 78.376 333.217 78.848 333.217 79.52V83H331.849V76.388H333.217V77.348ZM342.44 83.108C341.816 83.108 341.252 82.968 340.748 82.688C340.244 82.4 339.848 82 339.56 81.488C339.272 80.968 339.128 80.368 339.128 79.688C339.128 79.016 339.276 78.42 339.572 77.9C339.868 77.38 340.272 76.98 340.784 76.7C341.296 76.42 341.868 76.28 342.5 76.28C343.132 76.28 343.704 76.42 344.216 76.7C344.728 76.98 345.132 77.38 345.428 77.9C345.724 78.42 345.872 79.016 345.872 79.688C345.872 80.36 345.72 80.956 345.416 81.476C345.112 81.996 344.696 82.4 344.168 82.688C343.648 82.968 343.072 83.108 342.44 83.108ZM342.44 81.92C342.792 81.92 343.12 81.836 343.424 81.668C343.736 81.5 343.988 81.248 344.18 80.912C344.372 80.576 344.468 80.168 344.468 79.688C344.468 79.208 344.376 78.804 344.192 78.476C344.008 78.14 343.764 77.888 343.46 77.72C343.156 77.552 342.828 77.468 342.476 77.468C342.124 77.468 341.796 77.552 341.492 77.72C341.196 77.888 340.96 78.14 340.784 78.476C340.608 78.804 340.52 79.208 340.52 79.688C340.52 80.4 340.7 80.952 341.06 81.344C341.428 81.728 341.888 81.92 342.44 81.92ZM356.104 76.388L354.052 83H352.612L351.28 78.116L349.948 83H348.508L346.444 76.388H347.836L349.216 81.704L350.62 76.388H352.048L353.392 81.68L354.76 76.388H356.104ZM360.463 76.28C360.983 76.28 361.447 76.388 361.855 76.604C362.271 76.82 362.595 77.14 362.827 77.564C363.059 77.988 363.175 78.5 363.175 79.1V83H361.819V79.304C361.819 78.712 361.671 78.26 361.375 77.948C361.079 77.628 360.675 77.468 360.163 77.468C359.651 77.468 359.243 77.628 358.939 77.948C358.643 78.26 358.495 78.712 358.495 79.304V83H357.127V76.388H358.495V77.144C358.719 76.872 359.003 76.66 359.347 76.508C359.699 76.356 360.071 76.28 360.463 76.28ZM365.472 83.084C365.224 83.084 365.016 83 364.848 82.832C364.68 82.664 364.596 82.456 364.596 82.208C364.596 81.96 364.68 81.752 364.848 81.584C365.016 81.416 365.224 81.332 365.472 81.332C365.712 81.332 365.916 81.416 366.084 81.584C366.252 81.752 366.336 81.96 366.336 82.208C366.336 82.456 366.252 82.664 366.084 82.832C365.916 83 365.712 83.084 365.472 83.084Z" fill="white"/>
</svg>
