<svg xmlns="http://www.w3.org/2000/svg" fill="none" viewBox="0 0 140 42" height="42" width="140">
<path fill="black" d="M6.732 19.144C6.732 19.568 6.632 19.968 6.432 20.344C6.232 20.72 5.912 21.028 5.472 21.268C5.032 21.5 4.468 21.616 3.78 21.616H2.268V25H0.9V16.66H3.78C4.42 16.66 4.96 16.772 5.4 16.996C5.848 17.212 6.18 17.508 6.396 17.884C6.62 18.26 6.732 18.68 6.732 19.144ZM3.78 20.5C4.3 20.5 4.688 20.384 4.944 20.152C5.2 19.912 5.328 19.576 5.328 19.144C5.328 18.232 4.812 17.776 3.78 17.776H2.268V20.5H3.78ZM8.73272 17.512C8.48472 17.512 8.27672 17.428 8.10872 17.26C7.94072 17.092 7.85672 16.884 7.85672 16.636C7.85672 16.388 7.94072 16.18 8.10872 16.012C8.27672 15.844 8.48472 15.76 8.73272 15.76C8.97272 15.76 9.17672 15.844 9.34472 16.012C9.51272 16.18 9.59672 16.388 9.59672 16.636C9.59672 16.884 9.51272 17.092 9.34472 17.26C9.17672 17.428 8.97272 17.512 8.73272 17.512ZM9.40472 18.388V25H8.03672V18.388H9.40472ZM10.7448 21.664C10.7448 21 10.8808 20.412 11.1528 19.9C11.4328 19.388 11.8088 18.992 12.2808 18.712C12.7608 18.424 13.2888 18.28 13.8648 18.28C14.3848 18.28 14.8368 18.384 15.2208 18.592C15.6128 18.792 15.9248 19.044 16.1568 19.348V18.388H17.5368V25H16.1568V24.016C15.9248 24.328 15.6088 24.588 15.2088 24.796C14.8088 25.004 14.3528 25.108 13.8408 25.108C13.2728 25.108 12.7528 24.964 12.2808 24.676C11.8088 24.38 11.4328 23.972 11.1528 23.452C10.8808 22.924 10.7448 22.328 10.7448 21.664ZM16.1568 21.688C16.1568 21.232 16.0608 20.836 15.8688 20.5C15.6848 20.164 15.4408 19.908 15.1368 19.732C14.8328 19.556 14.5048 19.468 14.1528 19.468C13.8008 19.468 13.4728 19.556 13.1688 19.732C12.8648 19.9 12.6168 20.152 12.4248 20.488C12.2408 20.816 12.1488 21.208 12.1488 21.664C12.1488 22.12 12.2408 22.52 12.4248 22.864C12.6168 23.208 12.8648 23.472 13.1688 23.656C13.4808 23.832 13.8088 23.92 14.1528 23.92C14.5048 23.92 14.8328 23.832 15.1368 23.656C15.4408 23.48 15.6848 23.224 15.8688 22.888C16.0608 22.544 16.1568 22.144 16.1568 21.688ZM22.6696 18.28C23.1896 18.28 23.6536 18.388 24.0616 18.604C24.4776 18.82 24.8016 19.14 25.0336 19.564C25.2656 19.988 25.3816 20.5 25.3816 21.1V25H24.0256V21.304C24.0256 20.712 23.8776 20.26 23.5816 19.948C23.2856 19.628 22.8816 19.468 22.3696 19.468C21.8576 19.468 21.4496 19.628 21.1456 19.948C20.8496 20.26 20.7016 20.712 20.7016 21.304V25H19.3336V18.388H20.7016V19.144C20.9256 18.872 21.2096 18.66 21.5536 18.508C21.9056 18.356 22.2776 18.28 22.6696 18.28ZM29.9946 25.108C29.3706 25.108 28.8066 24.968 28.3026 24.688C27.7986 24.4 27.4026 24 27.1146 23.488C26.8266 22.968 26.6826 22.368 26.6826 21.688C26.6826 21.016 26.8306 20.42 27.1266 19.9C27.4226 19.38 27.8266 18.98 28.3386 18.7C28.8506 18.42 29.4226 18.28 30.0546 18.28C30.6866 18.28 31.2586 18.42 31.7706 18.7C32.2826 18.98 32.6866 19.38 32.9826 19.9C33.2786 20.42 33.4266 21.016 33.4266 21.688C33.4266 22.36 33.2746 22.956 32.9706 23.476C32.6666 23.996 32.2506 24.4 31.7226 24.688C31.2026 24.968 30.6266 25.108 29.9946 25.108ZM29.9946 23.92C30.3466 23.92 30.6746 23.836 30.9786 23.668C31.2906 23.5 31.5426 23.248 31.7346 22.912C31.9266 22.576 32.0226 22.168 32.0226 21.688C32.0226 21.208 31.9306 20.804 31.7466 20.476C31.5626 20.14 31.3186 19.888 31.0146 19.72C30.7106 19.552 30.3826 19.468 30.0306 19.468C29.6786 19.468 29.3506 19.552 29.0466 19.72C28.7506 19.888 28.5146 20.14 28.3386 20.476C28.1626 20.804 28.0746 21.208 28.0746 21.688C28.0746 22.4 28.2546 22.952 28.6146 23.344C28.9826 23.728 29.4426 23.92 29.9946 23.92Z"></path>
</svg>
