<svg width="480" height="360" viewBox="0 0 480 360" fill="none" xmlns="http://www.w3.org/2000/svg">
<path d="M177.904 28.728H173.248L172.448 31H170.544L174.528 19.864H176.64L180.624 31H178.704L177.904 28.728ZM177.392 27.24L175.584 22.072L173.76 27.24H177.392ZM184.18 19.16V31H182.356V19.16H184.18ZM185.967 26.552C185.967 25.6667 186.148 24.8827 186.511 24.2C186.884 23.5173 187.386 22.9893 188.015 22.616C188.655 22.232 189.359 22.04 190.127 22.04C190.82 22.04 191.423 22.1787 191.935 22.456C192.458 22.7227 192.874 23.0587 193.183 23.464V22.184H195.023V31H193.183V29.688C192.874 30.104 192.452 30.4507 191.919 30.728C191.386 31.0053 190.778 31.144 190.095 31.144C189.338 31.144 188.644 30.952 188.015 30.568C187.386 30.1733 186.884 29.6293 186.511 28.936C186.148 28.232 185.967 27.4373 185.967 26.552ZM193.183 26.584C193.183 25.976 193.055 25.448 192.799 25C192.554 24.552 192.228 24.2107 191.823 23.976C191.418 23.7413 190.98 23.624 190.511 23.624C190.042 23.624 189.604 23.7413 189.199 23.976C188.794 24.2 188.463 24.536 188.207 24.984C187.962 25.4213 187.839 25.944 187.839 26.552C187.839 27.16 187.962 27.6933 188.207 28.152C188.463 28.6107 188.794 28.9627 189.199 29.208C189.615 29.4427 190.052 29.56 190.511 29.56C190.98 29.56 191.418 29.4427 191.823 29.208C192.228 28.9733 192.554 28.632 192.799 28.184C193.055 27.7253 193.183 27.192 193.183 26.584ZM199.243 23.464C199.509 23.016 199.861 22.6693 200.299 22.424C200.747 22.168 201.275 22.04 201.883 22.04V23.928H201.419C200.704 23.928 200.16 24.1093 199.787 24.472C199.424 24.8347 199.243 25.464 199.243 26.36V31H197.419V22.184H199.243V23.464ZM214.231 22.04C214.925 22.04 215.543 22.184 216.087 22.472C216.642 22.76 217.074 23.1867 217.383 23.752C217.703 24.3173 217.863 25 217.863 25.8V31H216.055V26.072C216.055 25.2827 215.858 24.68 215.463 24.264C215.069 23.8373 214.53 23.624 213.847 23.624C213.165 23.624 212.621 23.8373 212.215 24.264C211.821 24.68 211.623 25.2827 211.623 26.072V31H209.815V26.072C209.815 25.2827 209.618 24.68 209.223 24.264C208.829 23.8373 208.29 23.624 207.607 23.624C206.925 23.624 206.381 23.8373 205.975 24.264C205.581 24.68 205.383 25.2827 205.383 26.072V31H203.559V22.184H205.383V23.192C205.682 22.8293 206.061 22.5467 206.519 22.344C206.978 22.1413 207.469 22.04 207.991 22.04C208.695 22.04 209.325 22.1893 209.879 22.488C210.434 22.7867 210.861 23.2187 211.159 23.784C211.426 23.2507 211.842 22.8293 212.407 22.52C212.973 22.2 213.581 22.04 214.231 22.04Z" fill="black"/>
<path d="M164.94 67.58H162.03L161.53 69H160.34L162.83 62.04H164.15L166.64 69H165.44L164.94 67.58ZM164.62 66.65L163.49 63.42L162.35 66.65H164.62ZM168.863 61.6V69H167.723V61.6H168.863ZM169.979 66.22C169.979 65.6667 170.093 65.1767 170.319 64.75C170.553 64.3233 170.866 63.9933 171.259 63.76C171.659 63.52 172.099 63.4 172.579 63.4C173.013 63.4 173.389 63.4867 173.709 63.66C174.036 63.8267 174.296 64.0367 174.489 64.29V63.49H175.639V69H174.489V68.18C174.296 68.44 174.033 68.6567 173.699 68.83C173.366 69.0033 172.986 69.09 172.559 69.09C172.086 69.09 171.653 68.97 171.259 68.73C170.866 68.4833 170.553 68.1433 170.319 67.71C170.093 67.27 169.979 66.7733 169.979 66.22ZM174.489 66.24C174.489 65.86 174.409 65.53 174.249 65.25C174.096 64.97 173.893 64.7567 173.639 64.61C173.386 64.4633 173.113 64.39 172.819 64.39C172.526 64.39 172.253 64.4633 171.999 64.61C171.746 64.75 171.539 64.96 171.379 65.24C171.226 65.5133 171.149 65.84 171.149 66.22C171.149 66.6 171.226 66.9333 171.379 67.22C171.539 67.5067 171.746 67.7267 171.999 67.88C172.259 68.0267 172.533 68.1 172.819 68.1C173.113 68.1 173.386 68.0267 173.639 67.88C173.893 67.7333 174.096 67.52 174.249 67.24C174.409 66.9533 174.489 66.62 174.489 66.24ZM178.277 64.29C178.443 64.01 178.663 63.7933 178.937 63.64C179.217 63.48 179.547 63.4 179.927 63.4V64.58H179.637C179.19 64.58 178.85 64.6933 178.617 64.92C178.39 65.1467 178.277 65.54 178.277 66.1V69H177.137V63.49H178.277V64.29ZM187.645 63.4C188.078 63.4 188.465 63.49 188.805 63.67C189.151 63.85 189.421 64.1167 189.615 64.47C189.815 64.8233 189.915 65.25 189.915 65.75V69H188.785V65.92C188.785 65.4267 188.661 65.05 188.415 64.79C188.168 64.5233 187.831 64.39 187.405 64.39C186.978 64.39 186.638 64.5233 186.385 64.79C186.138 65.05 186.015 65.4267 186.015 65.92V69H184.885V65.92C184.885 65.4267 184.761 65.05 184.515 64.79C184.268 64.5233 183.931 64.39 183.505 64.39C183.078 64.39 182.738 64.5233 182.485 64.79C182.238 65.05 182.115 65.4267 182.115 65.92V69H180.975V63.49H182.115V64.12C182.301 63.8933 182.538 63.7167 182.825 63.59C183.111 63.4633 183.418 63.4 183.745 63.4C184.185 63.4 184.578 63.4933 184.925 63.68C185.271 63.8667 185.538 64.1367 185.725 64.49C185.891 64.1567 186.151 63.8933 186.505 63.7C186.858 63.5 187.238 63.4 187.645 63.4ZM195.963 69.09C195.53 69.09 195.14 69.0133 194.793 68.86C194.453 68.7 194.183 68.4867 193.983 68.22C193.783 67.9467 193.676 67.6433 193.663 67.31H194.843C194.863 67.5433 194.973 67.74 195.173 67.9C195.38 68.0533 195.636 68.13 195.943 68.13C196.263 68.13 196.51 68.07 196.683 67.95C196.863 67.8233 196.953 67.6633 196.953 67.47C196.953 67.2633 196.853 67.11 196.653 67.01C196.46 66.91 196.15 66.8 195.723 66.68C195.31 66.5667 194.973 66.4567 194.713 66.35C194.453 66.2433 194.226 66.08 194.033 65.86C193.846 65.64 193.753 65.35 193.753 64.99C193.753 64.6967 193.84 64.43 194.013 64.19C194.186 63.9433 194.433 63.75 194.753 63.61C195.08 63.47 195.453 63.4 195.873 63.4C196.5 63.4 197.003 63.56 197.383 63.88C197.77 64.1933 197.976 64.6233 198.003 65.17H196.863C196.843 64.9233 196.743 64.7267 196.563 64.58C196.383 64.4333 196.14 64.36 195.833 64.36C195.533 64.36 195.303 64.4167 195.143 64.53C194.983 64.6433 194.903 64.7933 194.903 64.98C194.903 65.1267 194.956 65.25 195.063 65.35C195.17 65.45 195.3 65.53 195.453 65.59C195.606 65.6433 195.833 65.7133 196.133 65.8C196.533 65.9067 196.86 66.0167 197.113 66.13C197.373 66.2367 197.596 66.3967 197.783 66.61C197.97 66.8233 198.066 67.1067 198.073 67.46C198.073 67.7733 197.986 68.0533 197.813 68.3C197.64 68.5467 197.393 68.74 197.073 68.88C196.76 69.02 196.39 69.09 195.963 69.09ZM200.635 64.42V67.47C200.635 67.6767 200.681 67.8267 200.775 67.92C200.875 68.0067 201.041 68.05 201.275 68.05H201.975V69H201.075C200.561 69 200.168 68.88 199.895 68.64C199.621 68.4 199.485 68.01 199.485 67.47V64.42H198.835V63.49H199.485V62.12H200.635V63.49H201.975V64.42H200.635ZM202.645 66.22C202.645 65.6667 202.759 65.1767 202.985 64.75C203.219 64.3233 203.532 63.9933 203.925 63.76C204.325 63.52 204.765 63.4 205.245 63.4C205.679 63.4 206.055 63.4867 206.375 63.66C206.702 63.8267 206.962 64.0367 207.155 64.29V63.49H208.305V69H207.155V68.18C206.962 68.44 206.699 68.6567 206.365 68.83C206.032 69.0033 205.652 69.09 205.225 69.09C204.752 69.09 204.319 68.97 203.925 68.73C203.532 68.4833 203.219 68.1433 202.985 67.71C202.759 67.27 202.645 66.7733 202.645 66.22ZM207.155 66.24C207.155 65.86 207.075 65.53 206.915 65.25C206.762 64.97 206.559 64.7567 206.305 64.61C206.052 64.4633 205.779 64.39 205.485 64.39C205.192 64.39 204.919 64.4633 204.665 64.61C204.412 64.75 204.205 64.96 204.045 65.24C203.892 65.5133 203.815 65.84 203.815 66.22C203.815 66.6 203.892 66.9333 204.045 67.22C204.205 67.5067 204.412 67.7267 204.665 67.88C204.925 68.0267 205.199 68.1 205.485 68.1C205.779 68.1 206.052 68.0267 206.305 67.88C206.559 67.7333 206.762 67.52 206.915 67.24C207.075 66.9533 207.155 66.62 207.155 66.24ZM211.133 64.42V67.47C211.133 67.6767 211.179 67.8267 211.273 67.92C211.373 68.0067 211.539 68.05 211.773 68.05H212.473V69H211.573C211.059 69 210.666 68.88 210.393 68.64C210.119 68.4 209.983 68.01 209.983 67.47V64.42H209.333V63.49H209.983V62.12H211.133V63.49H212.473V64.42H211.133ZM218.513 63.49V69H217.373V68.35C217.193 68.5767 216.957 68.7567 216.663 68.89C216.377 69.0167 216.07 69.08 215.743 69.08C215.31 69.08 214.92 68.99 214.573 68.81C214.233 68.63 213.963 68.3633 213.763 68.01C213.57 67.6567 213.473 67.23 213.473 66.73V63.49H214.603V66.56C214.603 67.0533 214.727 67.4333 214.973 67.7C215.22 67.96 215.557 68.09 215.983 68.09C216.41 68.09 216.747 67.96 216.993 67.7C217.247 67.4333 217.373 67.0533 217.373 66.56V63.49H218.513ZM222.018 69.09C221.584 69.09 221.194 69.0133 220.848 68.86C220.508 68.7 220.238 68.4867 220.038 68.22C219.838 67.9467 219.731 67.6433 219.718 67.31H220.898C220.918 67.5433 221.028 67.74 221.228 67.9C221.434 68.0533 221.691 68.13 221.998 68.13C222.318 68.13 222.564 68.07 222.738 67.95C222.918 67.8233 223.008 67.6633 223.008 67.47C223.008 67.2633 222.908 67.11 222.708 67.01C222.514 66.91 222.204 66.8 221.778 66.68C221.364 66.5667 221.028 66.4567 220.768 66.35C220.508 66.2433 220.281 66.08 220.088 65.86C219.901 65.64 219.808 65.35 219.808 64.99C219.808 64.6967 219.894 64.43 220.068 64.19C220.241 63.9433 220.488 63.75 220.808 63.61C221.134 63.47 221.508 63.4 221.928 63.4C222.554 63.4 223.058 63.56 223.438 63.88C223.824 64.1933 224.031 64.6233 224.058 65.17H222.918C222.898 64.9233 222.798 64.7267 222.618 64.58C222.438 64.4333 222.194 64.36 221.888 64.36C221.588 64.36 221.358 64.4167 221.198 64.53C221.038 64.6433 220.958 64.7933 220.958 64.98C220.958 65.1267 221.011 65.25 221.118 65.35C221.224 65.45 221.354 65.53 221.508 65.59C221.661 65.6433 221.888 65.7133 222.188 65.8C222.588 65.9067 222.914 66.0167 223.168 66.13C223.428 66.2367 223.651 66.3967 223.838 66.61C224.024 66.8233 224.121 67.1067 224.128 67.46C224.128 67.7733 224.041 68.0533 223.868 68.3C223.694 68.5467 223.448 68.74 223.128 68.88C222.814 69.02 222.444 69.09 222.018 69.09Z" fill="black"/>
<path d="M175.928 107.296H172.436L171.836 109H170.408L173.396 100.648H174.98L177.968 109H176.528L175.928 107.296ZM175.544 106.18L174.188 102.304L172.82 106.18H175.544ZM180.635 100.12V109H179.267V100.12H180.635ZM181.975 105.664C181.975 105 182.111 104.412 182.383 103.9C182.663 103.388 183.039 102.992 183.511 102.712C183.991 102.424 184.519 102.28 185.095 102.28C185.615 102.28 186.067 102.384 186.451 102.592C186.843 102.792 187.155 103.044 187.387 103.348V102.388H188.767V109H187.387V108.016C187.155 108.328 186.839 108.588 186.439 108.796C186.039 109.004 185.583 109.108 185.071 109.108C184.503 109.108 183.983 108.964 183.511 108.676C183.039 108.38 182.663 107.972 182.383 107.452C182.111 106.924 181.975 106.328 181.975 105.664ZM187.387 105.688C187.387 105.232 187.291 104.836 187.099 104.5C186.915 104.164 186.671 103.908 186.367 103.732C186.063 103.556 185.735 103.468 185.383 103.468C185.031 103.468 184.703 103.556 184.399 103.732C184.095 103.9 183.847 104.152 183.655 104.488C183.471 104.816 183.379 105.208 183.379 105.664C183.379 106.12 183.471 106.52 183.655 106.864C183.847 107.208 184.095 107.472 184.399 107.656C184.711 107.832 185.039 107.92 185.383 107.92C185.735 107.92 186.063 107.832 186.367 107.656C186.671 107.48 186.915 107.224 187.099 106.888C187.291 106.544 187.387 106.144 187.387 105.688ZM191.932 103.348C192.132 103.012 192.396 102.752 192.724 102.568C193.06 102.376 193.456 102.28 193.912 102.28V103.696H193.564C193.028 103.696 192.62 103.832 192.34 104.104C192.068 104.376 191.932 104.848 191.932 105.52V109H190.564V102.388H191.932V103.348ZM203.174 102.28C203.694 102.28 204.158 102.388 204.566 102.604C204.982 102.82 205.306 103.14 205.538 103.564C205.778 103.988 205.898 104.5 205.898 105.1V109H204.542V105.304C204.542 104.712 204.394 104.26 204.098 103.948C203.802 103.628 203.398 103.468 202.886 103.468C202.374 103.468 201.966 103.628 201.662 103.948C201.366 104.26 201.218 104.712 201.218 105.304V109H199.862V105.304C199.862 104.712 199.714 104.26 199.418 103.948C199.122 103.628 198.718 103.468 198.206 103.468C197.694 103.468 197.286 103.628 196.982 103.948C196.686 104.26 196.538 104.712 196.538 105.304V109H195.17V102.388H196.538V103.144C196.762 102.872 197.046 102.66 197.39 102.508C197.734 102.356 198.102 102.28 198.494 102.28C199.022 102.28 199.494 102.392 199.91 102.616C200.326 102.84 200.646 103.164 200.87 103.588C201.07 103.188 201.382 102.872 201.806 102.64C202.23 102.4 202.686 102.28 203.174 102.28ZM212.351 103.504V107.164C212.351 107.412 212.407 107.592 212.519 107.704C212.639 107.808 212.839 107.86 213.119 107.86H213.959V109H212.879C212.263 109 211.791 108.856 211.463 108.568C211.135 108.28 210.971 107.812 210.971 107.164V103.504H210.191V102.388H210.971V100.744H212.351V102.388H213.959V103.504H212.351ZM215.916 101.512C215.668 101.512 215.46 101.428 215.292 101.26C215.124 101.092 215.04 100.884 215.04 100.636C215.04 100.388 215.124 100.18 215.292 100.012C215.46 99.844 215.668 99.76 215.916 99.76C216.156 99.76 216.36 99.844 216.528 100.012C216.696 100.18 216.78 100.388 216.78 100.636C216.78 100.884 216.696 101.092 216.528 101.26C216.36 101.428 216.156 101.512 215.916 101.512ZM216.588 102.388V109H215.22V102.388H216.588ZM226.388 102.28C226.908 102.28 227.372 102.388 227.78 102.604C228.196 102.82 228.52 103.14 228.752 103.564C228.992 103.988 229.112 104.5 229.112 105.1V109H227.756V105.304C227.756 104.712 227.608 104.26 227.312 103.948C227.016 103.628 226.612 103.468 226.1 103.468C225.588 103.468 225.18 103.628 224.876 103.948C224.58 104.26 224.432 104.712 224.432 105.304V109H223.076V105.304C223.076 104.712 222.928 104.26 222.632 103.948C222.336 103.628 221.932 103.468 221.42 103.468C220.908 103.468 220.5 103.628 220.196 103.948C219.9 104.26 219.752 104.712 219.752 105.304V109H218.384V102.388H219.752V103.144C219.976 102.872 220.26 102.66 220.604 102.508C220.948 102.356 221.316 102.28 221.708 102.28C222.236 102.28 222.708 102.392 223.124 102.616C223.54 102.84 223.86 103.164 224.084 103.588C224.284 103.188 224.596 102.872 225.02 102.64C225.444 102.4 225.9 102.28 226.388 102.28ZM236.913 105.532C236.913 105.78 236.897 106.004 236.865 106.204H231.813C231.853 106.732 232.049 107.156 232.401 107.476C232.753 107.796 233.185 107.956 233.697 107.956C234.433 107.956 234.953 107.648 235.257 107.032H236.733C236.533 107.64 236.169 108.14 235.641 108.532C235.121 108.916 234.473 109.108 233.697 109.108C233.065 109.108 232.497 108.968 231.993 108.688C231.497 108.4 231.105 108 230.817 107.488C230.537 106.968 230.397 106.368 230.397 105.688C230.397 105.008 230.533 104.412 230.805 103.9C231.085 103.38 231.473 102.98 231.969 102.7C232.473 102.42 233.049 102.28 233.697 102.28C234.321 102.28 234.877 102.416 235.365 102.688C235.853 102.96 236.233 103.344 236.505 103.84C236.777 104.328 236.913 104.892 236.913 105.532ZM235.485 105.1C235.477 104.596 235.297 104.192 234.945 103.888C234.593 103.584 234.157 103.432 233.637 103.432C233.165 103.432 232.761 103.584 232.425 103.888C232.089 104.184 231.889 104.588 231.825 105.1H235.485Z" fill="black"/>
<path d="M165.928 297.296H162.436L161.836 299H160.408L163.396 290.648H164.98L167.968 299H166.528L165.928 297.296ZM165.544 296.18L164.188 292.304L162.82 296.18H165.544ZM170.635 290.12V299H169.267V290.12H170.635ZM171.975 295.664C171.975 295 172.111 294.412 172.383 293.9C172.663 293.388 173.039 292.992 173.511 292.712C173.991 292.424 174.519 292.28 175.095 292.28C175.615 292.28 176.067 292.384 176.451 292.592C176.843 292.792 177.155 293.044 177.387 293.348V292.388H178.767V299H177.387V298.016C177.155 298.328 176.839 298.588 176.439 298.796C176.039 299.004 175.583 299.108 175.071 299.108C174.503 299.108 173.983 298.964 173.511 298.676C173.039 298.38 172.663 297.972 172.383 297.452C172.111 296.924 171.975 296.328 171.975 295.664ZM177.387 295.688C177.387 295.232 177.291 294.836 177.099 294.5C176.915 294.164 176.671 293.908 176.367 293.732C176.063 293.556 175.735 293.468 175.383 293.468C175.031 293.468 174.703 293.556 174.399 293.732C174.095 293.9 173.847 294.152 173.655 294.488C173.471 294.816 173.379 295.208 173.379 295.664C173.379 296.12 173.471 296.52 173.655 296.864C173.847 297.208 174.095 297.472 174.399 297.656C174.711 297.832 175.039 297.92 175.383 297.92C175.735 297.92 176.063 297.832 176.367 297.656C176.671 297.48 176.915 297.224 177.099 296.888C177.291 296.544 177.387 296.144 177.387 295.688ZM181.932 293.348C182.132 293.012 182.396 292.752 182.724 292.568C183.06 292.376 183.456 292.28 183.912 292.28V293.696H183.564C183.028 293.696 182.62 293.832 182.34 294.104C182.068 294.376 181.932 294.848 181.932 295.52V299H180.564V292.388H181.932V293.348ZM193.174 292.28C193.694 292.28 194.158 292.388 194.566 292.604C194.982 292.82 195.306 293.14 195.538 293.564C195.778 293.988 195.898 294.5 195.898 295.1V299H194.542V295.304C194.542 294.712 194.394 294.26 194.098 293.948C193.802 293.628 193.398 293.468 192.886 293.468C192.374 293.468 191.966 293.628 191.662 293.948C191.366 294.26 191.218 294.712 191.218 295.304V299H189.862V295.304C189.862 294.712 189.714 294.26 189.418 293.948C189.122 293.628 188.718 293.468 188.206 293.468C187.694 293.468 187.286 293.628 186.982 293.948C186.686 294.26 186.538 294.712 186.538 295.304V299H185.17V292.388H186.538V293.144C186.762 292.872 187.046 292.66 187.39 292.508C187.734 292.356 188.102 292.28 188.494 292.28C189.022 292.28 189.494 292.392 189.91 292.616C190.326 292.84 190.646 293.164 190.87 293.588C191.07 293.188 191.382 292.872 191.806 292.64C192.23 292.4 192.686 292.28 193.174 292.28ZM203.155 299.108C202.635 299.108 202.167 299.016 201.751 298.832C201.343 298.64 201.019 298.384 200.779 298.064C200.539 297.736 200.411 297.372 200.395 296.972H201.811C201.835 297.252 201.967 297.488 202.207 297.68C202.455 297.864 202.763 297.956 203.131 297.956C203.515 297.956 203.811 297.884 204.019 297.74C204.235 297.588 204.343 297.396 204.343 297.164C204.343 296.916 204.223 296.732 203.983 296.612C203.751 296.492 203.379 296.36 202.867 296.216C202.371 296.08 201.967 295.948 201.655 295.82C201.343 295.692 201.071 295.496 200.839 295.232C200.615 294.968 200.503 294.62 200.503 294.188C200.503 293.836 200.607 293.516 200.815 293.228C201.023 292.932 201.319 292.7 201.703 292.532C202.095 292.364 202.543 292.28 203.047 292.28C203.799 292.28 204.403 292.472 204.859 292.856C205.323 293.232 205.571 293.748 205.603 294.404H204.235C204.211 294.108 204.091 293.872 203.875 293.696C203.659 293.52 203.367 293.432 202.999 293.432C202.639 293.432 202.363 293.5 202.171 293.636C201.979 293.772 201.883 293.952 201.883 294.176C201.883 294.352 201.947 294.5 202.075 294.62C202.203 294.74 202.359 294.836 202.543 294.908C202.727 294.972 202.999 295.056 203.359 295.16C203.839 295.288 204.231 295.42 204.535 295.556C204.847 295.684 205.115 295.876 205.339 296.132C205.563 296.388 205.679 296.728 205.687 297.152C205.687 297.528 205.583 297.864 205.375 298.16C205.167 298.456 204.871 298.688 204.487 298.856C204.111 299.024 203.667 299.108 203.155 299.108ZM210.034 299.108C209.41 299.108 208.846 298.968 208.342 298.688C207.838 298.4 207.442 298 207.154 297.488C206.866 296.968 206.722 296.368 206.722 295.688C206.722 295.016 206.87 294.42 207.166 293.9C207.462 293.38 207.866 292.98 208.378 292.7C208.89 292.42 209.462 292.28 210.094 292.28C210.726 292.28 211.298 292.42 211.81 292.7C212.322 292.98 212.726 293.38 213.022 293.9C213.318 294.42 213.466 295.016 213.466 295.688C213.466 296.36 213.314 296.956 213.01 297.476C212.706 297.996 212.29 298.4 211.762 298.688C211.242 298.968 210.666 299.108 210.034 299.108ZM210.034 297.92C210.386 297.92 210.714 297.836 211.018 297.668C211.33 297.5 211.582 297.248 211.774 296.912C211.966 296.576 212.062 296.168 212.062 295.688C212.062 295.208 211.97 294.804 211.786 294.476C211.602 294.14 211.358 293.888 211.054 293.72C210.75 293.552 210.422 293.468 210.07 293.468C209.718 293.468 209.39 293.552 209.086 293.72C208.79 293.888 208.554 294.14 208.378 294.476C208.202 294.804 208.114 295.208 208.114 295.688C208.114 296.4 208.294 296.952 208.654 297.344C209.022 297.728 209.482 297.92 210.034 297.92ZM220.806 292.388V299H219.438V298.22C219.222 298.492 218.938 298.708 218.586 298.868C218.242 299.02 217.874 299.096 217.482 299.096C216.962 299.096 216.494 298.988 216.078 298.772C215.67 298.556 215.346 298.236 215.106 297.812C214.874 297.388 214.758 296.876 214.758 296.276V292.388H216.114V296.072C216.114 296.664 216.262 297.12 216.558 297.44C216.854 297.752 217.258 297.908 217.77 297.908C218.282 297.908 218.686 297.752 218.982 297.44C219.286 297.12 219.438 296.664 219.438 296.072V292.388H220.806ZM225.947 292.28C226.467 292.28 226.931 292.388 227.339 292.604C227.755 292.82 228.079 293.14 228.311 293.564C228.543 293.988 228.659 294.5 228.659 295.1V299H227.303V295.304C227.303 294.712 227.155 294.26 226.859 293.948C226.563 293.628 226.159 293.468 225.647 293.468C225.135 293.468 224.727 293.628 224.423 293.948C224.127 294.26 223.979 294.712 223.979 295.304V299H222.611V292.388H223.979V293.144C224.203 292.872 224.487 292.66 224.831 292.508C225.183 292.356 225.555 292.28 225.947 292.28ZM229.948 295.664C229.948 295 230.084 294.412 230.356 293.9C230.636 293.388 231.012 292.992 231.484 292.712C231.964 292.424 232.496 292.28 233.08 292.28C233.512 292.28 233.936 292.376 234.352 292.568C234.776 292.752 235.112 293 235.36 293.312V290.12H236.74V299H235.36V298.004C235.136 298.324 234.824 298.588 234.424 298.796C234.032 299.004 233.58 299.108 233.068 299.108C232.492 299.108 231.964 298.964 231.484 298.676C231.012 298.38 230.636 297.972 230.356 297.452C230.084 296.924 229.948 296.328 229.948 295.664ZM235.36 295.688C235.36 295.232 235.264 294.836 235.072 294.5C234.888 294.164 234.644 293.908 234.34 293.732C234.036 293.556 233.708 293.468 233.356 293.468C233.004 293.468 232.676 293.556 232.372 293.732C232.068 293.9 231.82 294.152 231.628 294.488C231.444 294.816 231.352 295.208 231.352 295.664C231.352 296.12 231.444 296.52 231.628 296.864C231.82 297.208 232.068 297.472 232.372 297.656C232.684 297.832 233.012 297.92 233.356 297.92C233.708 297.92 234.036 297.832 234.34 297.656C234.644 297.48 234.888 297.224 235.072 296.888C235.264 296.544 235.36 296.144 235.36 295.688Z" fill="black"/>
<path d="M441.015 69.084C440.239 69.084 439.523 68.904 438.867 68.544C438.219 68.176 437.703 67.668 437.319 67.02C436.943 66.364 436.755 65.628 436.755 64.812C436.755 63.996 436.943 63.264 437.319 62.616C437.703 61.968 438.219 61.464 438.867 61.104C439.523 60.736 440.239 60.552 441.015 60.552C441.799 60.552 442.515 60.736 443.163 61.104C443.819 61.464 444.335 61.968 444.711 62.616C445.087 63.264 445.275 63.996 445.275 64.812C445.275 65.628 445.087 66.364 444.711 67.02C444.335 67.668 443.819 68.176 443.163 68.544C442.515 68.904 441.799 69.084 441.015 69.084ZM441.015 67.896C441.567 67.896 442.059 67.772 442.491 67.524C442.923 67.268 443.259 66.908 443.499 66.444C443.747 65.972 443.871 65.428 443.871 64.812C443.871 64.196 443.747 63.656 443.499 63.192C443.259 62.728 442.923 62.372 442.491 62.124C442.059 61.876 441.567 61.752 441.015 61.752C440.463 61.752 439.971 61.876 439.539 62.124C439.107 62.372 438.767 62.728 438.519 63.192C438.279 63.656 438.159 64.196 438.159 64.812C438.159 65.428 438.279 65.972 438.519 66.444C438.767 66.908 439.107 67.268 439.539 67.524C439.971 67.772 440.463 67.896 441.015 67.896ZM449.393 63.504H448.169V69H446.789V63.504H446.009V62.388H446.789V61.92C446.789 61.16 446.989 60.608 447.389 60.264C447.797 59.912 448.433 59.736 449.297 59.736V60.876C448.881 60.876 448.589 60.956 448.421 61.116C448.253 61.268 448.169 61.536 448.169 61.92V62.388H449.393V63.504ZM453.377 63.504H452.153V69H450.773V63.504H449.993V62.388H450.773V61.92C450.773 61.16 450.973 60.608 451.373 60.264C451.781 59.912 452.417 59.736 453.281 59.736V60.876C452.865 60.876 452.573 60.956 452.405 61.116C452.237 61.268 452.153 61.536 452.153 61.92V62.388H453.377V63.504Z" fill="black"/>
<path d="M391.102 69.084C390.326 69.084 389.61 68.904 388.954 68.544C388.306 68.176 387.79 67.668 387.406 67.02C387.03 66.364 386.842 65.628 386.842 64.812C386.842 63.996 387.03 63.264 387.406 62.616C387.79 61.968 388.306 61.464 388.954 61.104C389.61 60.736 390.326 60.552 391.102 60.552C391.886 60.552 392.602 60.736 393.25 61.104C393.906 61.464 394.422 61.968 394.798 62.616C395.174 63.264 395.362 63.996 395.362 64.812C395.362 65.628 395.174 66.364 394.798 67.02C394.422 67.668 393.906 68.176 393.25 68.544C392.602 68.904 391.886 69.084 391.102 69.084ZM391.102 67.896C391.654 67.896 392.146 67.772 392.578 67.524C393.01 67.268 393.346 66.908 393.586 66.444C393.834 65.972 393.958 65.428 393.958 64.812C393.958 64.196 393.834 63.656 393.586 63.192C393.346 62.728 393.01 62.372 392.578 62.124C392.146 61.876 391.654 61.752 391.102 61.752C390.55 61.752 390.058 61.876 389.626 62.124C389.194 62.372 388.854 62.728 388.606 63.192C388.366 63.656 388.246 64.196 388.246 64.812C388.246 65.428 388.366 65.972 388.606 66.444C388.854 66.908 389.194 67.268 389.626 67.524C390.058 67.772 390.55 67.896 391.102 67.896ZM400.045 62.28C400.565 62.28 401.029 62.388 401.437 62.604C401.853 62.82 402.177 63.14 402.409 63.564C402.641 63.988 402.757 64.5 402.757 65.1V69H401.401V65.304C401.401 64.712 401.253 64.26 400.957 63.948C400.661 63.628 400.257 63.468 399.745 63.468C399.233 63.468 398.825 63.628 398.521 63.948C398.225 64.26 398.077 64.712 398.077 65.304V69H396.709V62.388H398.077V63.144C398.301 62.872 398.585 62.66 398.929 62.508C399.281 62.356 399.653 62.28 400.045 62.28Z" fill="black"/>
<rect x="160" y="160" width="60" height="70" rx="15" fill="black" fill-opacity="0.1"/>
<path d="M179.328 213.4C179.748 213.4 180.121 213.49 180.448 213.67C180.781 213.85 181.041 214.117 181.228 214.47C181.421 214.823 181.518 215.25 181.518 215.75V219H180.388V215.92C180.388 215.427 180.264 215.05 180.018 214.79C179.771 214.523 179.434 214.39 179.008 214.39C178.581 214.39 178.241 214.523 177.988 214.79C177.741 215.05 177.618 215.427 177.618 215.92V219H176.478V211.6H177.618V214.13C177.811 213.897 178.054 213.717 178.348 213.59C178.648 213.463 178.974 213.4 179.328 213.4ZM185.362 219.09C184.842 219.09 184.372 218.973 183.952 218.74C183.532 218.5 183.202 218.167 182.962 217.74C182.722 217.307 182.602 216.807 182.602 216.24C182.602 215.68 182.725 215.183 182.972 214.75C183.218 214.317 183.555 213.983 183.982 213.75C184.408 213.517 184.885 213.4 185.412 213.4C185.938 213.4 186.415 213.517 186.842 213.75C187.268 213.983 187.605 214.317 187.852 214.75C188.098 215.183 188.222 215.68 188.222 216.24C188.222 216.8 188.095 217.297 187.842 217.73C187.588 218.163 187.242 218.5 186.802 218.74C186.368 218.973 185.888 219.09 185.362 219.09ZM185.362 218.1C185.655 218.1 185.928 218.03 186.182 217.89C186.442 217.75 186.652 217.54 186.812 217.26C186.972 216.98 187.052 216.64 187.052 216.24C187.052 215.84 186.975 215.503 186.822 215.23C186.668 214.95 186.465 214.74 186.212 214.6C185.958 214.46 185.685 214.39 185.392 214.39C185.098 214.39 184.825 214.46 184.572 214.6C184.325 214.74 184.128 214.95 183.982 215.23C183.835 215.503 183.762 215.84 183.762 216.24C183.762 216.833 183.912 217.293 184.212 217.62C184.518 217.94 184.902 218.1 185.362 218.1ZM194.339 213.49V219H193.199V218.35C193.019 218.577 192.782 218.757 192.489 218.89C192.202 219.017 191.895 219.08 191.569 219.08C191.135 219.08 190.745 218.99 190.399 218.81C190.059 218.63 189.789 218.363 189.589 218.01C189.395 217.657 189.299 217.23 189.299 216.73V213.49H190.429V216.56C190.429 217.053 190.552 217.433 190.799 217.7C191.045 217.96 191.382 218.09 191.809 218.09C192.235 218.09 192.572 217.96 192.819 217.7C193.072 217.433 193.199 217.053 193.199 216.56V213.49H194.339ZM196.983 214.29C197.149 214.01 197.369 213.793 197.643 213.64C197.923 213.48 198.253 213.4 198.633 213.4V214.58H198.343C197.896 214.58 197.556 214.693 197.323 214.92C197.096 215.147 196.983 215.54 196.983 216.1V219H195.843V213.49H196.983V214.29ZM201.681 219.09C201.247 219.09 200.857 219.013 200.511 218.86C200.171 218.7 199.901 218.487 199.701 218.22C199.501 217.947 199.394 217.643 199.381 217.31H200.561C200.581 217.543 200.691 217.74 200.891 217.9C201.097 218.053 201.354 218.13 201.661 218.13C201.981 218.13 202.227 218.07 202.401 217.95C202.581 217.823 202.671 217.663 202.671 217.47C202.671 217.263 202.571 217.11 202.371 217.01C202.177 216.91 201.867 216.8 201.441 216.68C201.027 216.567 200.691 216.457 200.431 216.35C200.171 216.243 199.944 216.08 199.751 215.86C199.564 215.64 199.471 215.35 199.471 214.99C199.471 214.697 199.557 214.43 199.731 214.19C199.904 213.943 200.151 213.75 200.471 213.61C200.797 213.47 201.171 213.4 201.591 213.4C202.217 213.4 202.721 213.56 203.101 213.88C203.487 214.193 203.694 214.623 203.721 215.17H202.581C202.561 214.923 202.461 214.727 202.281 214.58C202.101 214.433 201.857 214.36 201.551 214.36C201.251 214.36 201.021 214.417 200.861 214.53C200.701 214.643 200.621 214.793 200.621 214.98C200.621 215.127 200.674 215.25 200.781 215.35C200.887 215.45 201.017 215.53 201.171 215.59C201.324 215.643 201.551 215.713 201.851 215.8C202.251 215.907 202.577 216.017 202.831 216.13C203.091 216.237 203.314 216.397 203.501 216.61C203.687 216.823 203.784 217.107 203.791 217.46C203.791 217.773 203.704 218.053 203.531 218.3C203.357 218.547 203.111 218.74 202.791 218.88C202.477 219.02 202.107 219.09 201.681 219.09Z" fill="#808080"/>
<rect x="240" y="160" width="60" height="70" rx="15" fill="black" fill-opacity="0.1"/>
<path d="M256.795 213.4C257.228 213.4 257.615 213.49 257.955 213.67C258.302 213.85 258.572 214.117 258.765 214.47C258.965 214.823 259.065 215.25 259.065 215.75V219H257.935V215.92C257.935 215.427 257.812 215.05 257.565 214.79C257.318 214.523 256.982 214.39 256.555 214.39C256.128 214.39 255.788 214.523 255.535 214.79C255.288 215.05 255.165 215.427 255.165 215.92V219H254.035V215.92C254.035 215.427 253.912 215.05 253.665 214.79C253.418 214.523 253.082 214.39 252.655 214.39C252.228 214.39 251.888 214.523 251.635 214.79C251.388 215.05 251.265 215.427 251.265 215.92V219H250.125V213.49H251.265V214.12C251.452 213.893 251.688 213.717 251.975 213.59C252.262 213.463 252.568 213.4 252.895 213.4C253.335 213.4 253.728 213.493 254.075 213.68C254.422 213.867 254.688 214.137 254.875 214.49C255.042 214.157 255.302 213.893 255.655 213.7C256.008 213.5 256.388 213.4 256.795 213.4ZM261.096 212.76C260.889 212.76 260.716 212.69 260.576 212.55C260.436 212.41 260.366 212.237 260.366 212.03C260.366 211.823 260.436 211.65 260.576 211.51C260.716 211.37 260.889 211.3 261.096 211.3C261.296 211.3 261.466 211.37 261.606 211.51C261.746 211.65 261.816 211.823 261.816 212.03C261.816 212.237 261.746 212.41 261.606 212.55C261.466 212.69 261.296 212.76 261.096 212.76ZM261.656 213.49V219H260.516V213.49H261.656ZM265.932 213.4C266.366 213.4 266.752 213.49 267.092 213.67C267.439 213.85 267.709 214.117 267.902 214.47C268.096 214.823 268.192 215.25 268.192 215.75V219H267.062V215.92C267.062 215.427 266.939 215.05 266.692 214.79C266.446 214.523 266.109 214.39 265.682 214.39C265.256 214.39 264.916 214.523 264.662 214.79C264.416 215.05 264.292 215.427 264.292 215.92V219H263.152V213.49H264.292V214.12C264.479 213.893 264.716 213.717 265.002 213.59C265.296 213.463 265.606 213.4 265.932 213.4ZM274.636 213.49V219H273.496V218.35C273.316 218.577 273.08 218.757 272.786 218.89C272.5 219.017 272.193 219.08 271.866 219.08C271.433 219.08 271.043 218.99 270.696 218.81C270.356 218.63 270.086 218.363 269.886 218.01C269.693 217.657 269.596 217.23 269.596 216.73V213.49H270.726V216.56C270.726 217.053 270.85 217.433 271.096 217.7C271.343 217.96 271.68 218.09 272.106 218.09C272.533 218.09 272.87 217.96 273.116 217.7C273.37 217.433 273.496 217.053 273.496 216.56V213.49H274.636ZM277.471 214.42V217.47C277.471 217.677 277.517 217.827 277.611 217.92C277.711 218.007 277.877 218.05 278.111 218.05H278.811V219H277.911C277.397 219 277.004 218.88 276.731 218.64C276.457 218.4 276.321 218.01 276.321 217.47V214.42H275.671V213.49H276.321V212.12H277.471V213.49H278.811V214.42H277.471ZM284.911 216.11C284.911 216.317 284.898 216.503 284.871 216.67H280.661C280.695 217.11 280.858 217.463 281.151 217.73C281.445 217.997 281.805 218.13 282.231 218.13C282.845 218.13 283.278 217.873 283.531 217.36H284.761C284.595 217.867 284.291 218.283 283.851 218.61C283.418 218.93 282.878 219.09 282.231 219.09C281.705 219.09 281.231 218.973 280.811 218.74C280.398 218.5 280.071 218.167 279.831 217.74C279.598 217.307 279.481 216.807 279.481 216.24C279.481 215.673 279.595 215.177 279.821 214.75C280.055 214.317 280.378 213.983 280.791 213.75C281.211 213.517 281.691 213.4 282.231 213.4C282.751 213.4 283.215 213.513 283.621 213.74C284.028 213.967 284.345 214.287 284.571 214.7C284.798 215.107 284.911 215.577 284.911 216.11ZM283.721 215.75C283.715 215.33 283.565 214.993 283.271 214.74C282.978 214.487 282.615 214.36 282.181 214.36C281.788 214.36 281.451 214.487 281.171 214.74C280.891 214.987 280.725 215.323 280.671 215.75H283.721ZM288.033 219.09C287.6 219.09 287.21 219.013 286.863 218.86C286.523 218.7 286.253 218.487 286.053 218.22C285.853 217.947 285.747 217.643 285.733 217.31H286.913C286.933 217.543 287.043 217.74 287.243 217.9C287.45 218.053 287.707 218.13 288.013 218.13C288.333 218.13 288.58 218.07 288.753 217.95C288.933 217.823 289.023 217.663 289.023 217.47C289.023 217.263 288.923 217.11 288.723 217.01C288.53 216.91 288.22 216.8 287.793 216.68C287.38 216.567 287.043 216.457 286.783 216.35C286.523 216.243 286.297 216.08 286.103 215.86C285.917 215.64 285.823 215.35 285.823 214.99C285.823 214.697 285.91 214.43 286.083 214.19C286.257 213.943 286.503 213.75 286.823 213.61C287.15 213.47 287.523 213.4 287.943 213.4C288.57 213.4 289.073 213.56 289.453 213.88C289.84 214.193 290.047 214.623 290.073 215.17H288.933C288.913 214.923 288.813 214.727 288.633 214.58C288.453 214.433 288.21 214.36 287.903 214.36C287.603 214.36 287.373 214.417 287.213 214.53C287.053 214.643 286.973 214.793 286.973 214.98C286.973 215.127 287.027 215.25 287.133 215.35C287.24 215.45 287.37 215.53 287.523 215.59C287.677 215.643 287.903 215.713 288.203 215.8C288.603 215.907 288.93 216.017 289.183 216.13C289.443 216.237 289.667 216.397 289.853 216.61C290.04 216.823 290.137 217.107 290.143 217.46C290.143 217.773 290.057 218.053 289.883 218.3C289.71 218.547 289.463 218.74 289.143 218.88C288.83 219.02 288.46 219.09 288.033 219.09Z" fill="#808080"/>
<path d="M229.972 201.126C229.6 201.126 229.288 201 229.036 200.748C228.784 200.496 228.658 200.184 228.658 199.812C228.658 199.44 228.784 199.128 229.036 198.876C229.288 198.624 229.6 198.498 229.972 198.498C230.332 198.498 230.638 198.624 230.89 198.876C231.142 199.128 231.268 199.44 231.268 199.812C231.268 200.184 231.142 200.496 230.89 200.748C230.638 201 230.332 201.126 229.972 201.126ZM229.972 193.566C229.6 193.566 229.288 193.44 229.036 193.188C228.784 192.936 228.658 192.624 228.658 192.252C228.658 191.88 228.784 191.568 229.036 191.316C229.288 191.064 229.6 190.938 229.972 190.938C230.332 190.938 230.638 191.064 230.89 191.316C231.142 191.568 231.268 191.88 231.268 192.252C231.268 192.624 231.142 192.936 230.89 193.188C230.638 193.44 230.332 193.566 229.972 193.566Z" fill="black"/>
<rect x="175" y="120" width="30" height="30" rx="15" fill="black" fill-opacity="0.1"/>
<rect x="190" y="131.343" width="8" height="2" rx="1" transform="rotate(45 190 131.343)" fill="black"/>
<rect x="191.414" y="132.757" width="8" height="2" rx="1" transform="rotate(135 191.414 132.757)" fill="black"/>
<rect x="255" y="120" width="30" height="30" rx="15" fill="black" fill-opacity="0.1"/>
<rect x="270" y="131.343" width="8" height="2" rx="1" transform="rotate(45 270 131.343)" fill="black"/>
<rect x="271.414" y="132.757" width="8" height="2" rx="1" transform="rotate(135 271.414 132.757)" fill="black"/>
<rect x="285" y="270" width="30" height="30" rx="15" transform="rotate(-180 285 270)" fill="black" fill-opacity="0.1"/>
<rect x="270" y="258.657" width="8" height="2" rx="1" transform="rotate(-135 270 258.657)" fill="black"/>
<rect x="268.586" y="257.243" width="8" height="2" rx="1" transform="rotate(-45 268.586 257.243)" fill="black"/>
<rect x="205" y="270" width="30" height="30" rx="15" transform="rotate(-180 205 270)" fill="black" fill-opacity="0.1"/>
<rect x="190" y="258.657" width="8" height="2" rx="1" transform="rotate(-135 190 258.657)" fill="black"/>
<rect x="188.586" y="257.243" width="8" height="2" rx="1" transform="rotate(-45 188.586 257.243)" fill="black"/>
<path d="M185.095 329L183.175 325.664H182.131V329H180.763V320.66H183.643C184.283 320.66 184.823 320.772 185.263 320.996C185.711 321.22 186.043 321.52 186.259 321.896C186.483 322.272 186.595 322.692 186.595 323.156C186.595 323.7 186.435 324.196 186.115 324.644C185.803 325.084 185.319 325.384 184.663 325.544L186.727 329H185.095ZM182.131 324.572H183.643C184.155 324.572 184.539 324.444 184.795 324.188C185.059 323.932 185.191 323.588 185.191 323.156C185.191 322.724 185.063 322.388 184.807 322.148C184.551 321.9 184.163 321.776 183.643 321.776H182.131V324.572ZM194.405 325.532C194.405 325.78 194.389 326.004 194.357 326.204H189.305C189.345 326.732 189.541 327.156 189.893 327.476C190.245 327.796 190.677 327.956 191.189 327.956C191.925 327.956 192.445 327.648 192.749 327.032H194.225C194.025 327.64 193.661 328.14 193.133 328.532C192.613 328.916 191.965 329.108 191.189 329.108C190.557 329.108 189.989 328.968 189.485 328.688C188.989 328.4 188.597 328 188.309 327.488C188.029 326.968 187.889 326.368 187.889 325.688C187.889 325.008 188.025 324.412 188.297 323.9C188.577 323.38 188.965 322.98 189.461 322.7C189.965 322.42 190.541 322.28 191.189 322.28C191.813 322.28 192.369 322.416 192.857 322.688C193.345 322.96 193.725 323.344 193.997 323.84C194.269 324.328 194.405 324.892 194.405 325.532ZM192.977 325.1C192.969 324.596 192.789 324.192 192.437 323.888C192.085 323.584 191.649 323.432 191.129 323.432C190.657 323.432 190.253 323.584 189.917 323.888C189.581 324.184 189.381 324.588 189.317 325.1H192.977ZM197.12 320.12V329H195.752V320.12H197.12ZM198.46 325.664C198.46 325 198.596 324.412 198.868 323.9C199.148 323.388 199.524 322.992 199.996 322.712C200.476 322.424 201.004 322.28 201.58 322.28C202.1 322.28 202.552 322.384 202.936 322.592C203.328 322.792 203.64 323.044 203.872 323.348V322.388H205.252V329H203.872V328.016C203.64 328.328 203.324 328.588 202.924 328.796C202.524 329.004 202.068 329.108 201.556 329.108C200.988 329.108 200.468 328.964 199.996 328.676C199.524 328.38 199.148 327.972 198.868 327.452C198.596 326.924 198.46 326.328 198.46 325.664ZM203.872 325.688C203.872 325.232 203.776 324.836 203.584 324.5C203.4 324.164 203.156 323.908 202.852 323.732C202.548 323.556 202.22 323.468 201.868 323.468C201.516 323.468 201.188 323.556 200.884 323.732C200.58 323.9 200.332 324.152 200.14 324.488C199.956 324.816 199.864 325.208 199.864 325.664C199.864 326.12 199.956 326.52 200.14 326.864C200.332 327.208 200.58 327.472 200.884 327.656C201.196 327.832 201.524 327.92 201.868 327.92C202.22 327.92 202.548 327.832 202.852 327.656C203.156 327.48 203.4 327.224 203.584 326.888C203.776 326.544 203.872 326.144 203.872 325.688ZM209.88 325.652L212.016 329H210.468L209.04 326.756L207.696 329H206.268L208.404 325.748L206.268 322.388H207.816L209.244 324.632L210.588 322.388H212.016L209.88 325.652Z" fill="black"/>
<path d="M247.858 320.66C248.746 320.66 249.522 320.832 250.186 321.176C250.858 321.512 251.374 322 251.734 322.64C252.102 323.272 252.286 324.012 252.286 324.86C252.286 325.708 252.102 326.444 251.734 327.068C251.374 327.692 250.858 328.172 250.186 328.508C249.522 328.836 248.746 329 247.858 329H245.134V320.66H247.858ZM247.858 327.884C248.834 327.884 249.582 327.62 250.102 327.092C250.622 326.564 250.882 325.82 250.882 324.86C250.882 323.892 250.622 323.136 250.102 322.592C249.582 322.048 248.834 321.776 247.858 321.776H246.502V327.884H247.858ZM255.01 323.348C255.21 323.012 255.474 322.752 255.802 322.568C256.138 322.376 256.534 322.28 256.99 322.28V323.696H256.642C256.106 323.696 255.698 323.832 255.418 324.104C255.146 324.376 255.01 324.848 255.01 325.52V329H253.642V322.388H255.01V323.348ZM264.308 325.532C264.308 325.78 264.292 326.004 264.26 326.204H259.208C259.248 326.732 259.444 327.156 259.796 327.476C260.148 327.796 260.58 327.956 261.092 327.956C261.828 327.956 262.348 327.648 262.652 327.032H264.128C263.928 327.64 263.564 328.14 263.036 328.532C262.516 328.916 261.868 329.108 261.092 329.108C260.46 329.108 259.892 328.968 259.388 328.688C258.892 328.4 258.5 328 258.212 327.488C257.932 326.968 257.792 326.368 257.792 325.688C257.792 325.008 257.928 324.412 258.2 323.9C258.48 323.38 258.868 322.98 259.364 322.7C259.868 322.42 260.444 322.28 261.092 322.28C261.716 322.28 262.272 322.416 262.76 322.688C263.248 322.96 263.628 323.344 263.9 323.84C264.172 324.328 264.308 324.892 264.308 325.532ZM262.88 325.1C262.872 324.596 262.692 324.192 262.34 323.888C261.988 323.584 261.552 323.432 261.032 323.432C260.56 323.432 260.156 323.584 259.82 323.888C259.484 324.184 259.284 324.588 259.22 325.1H262.88ZM265.198 325.664C265.198 325 265.334 324.412 265.606 323.9C265.886 323.388 266.262 322.992 266.734 322.712C267.214 322.424 267.742 322.28 268.318 322.28C268.838 322.28 269.29 322.384 269.674 322.592C270.066 322.792 270.378 323.044 270.61 323.348V322.388H271.99V329H270.61V328.016C270.378 328.328 270.062 328.588 269.662 328.796C269.262 329.004 268.806 329.108 268.294 329.108C267.726 329.108 267.206 328.964 266.734 328.676C266.262 328.38 265.886 327.972 265.606 327.452C265.334 326.924 265.198 326.328 265.198 325.664ZM270.61 325.688C270.61 325.232 270.514 324.836 270.322 324.5C270.138 324.164 269.894 323.908 269.59 323.732C269.286 323.556 268.958 323.468 268.606 323.468C268.254 323.468 267.926 323.556 267.622 323.732C267.318 323.9 267.07 324.152 266.878 324.488C266.694 324.816 266.602 325.208 266.602 325.664C266.602 326.12 266.694 326.52 266.878 326.864C267.07 327.208 267.318 327.472 267.622 327.656C267.934 327.832 268.262 327.92 268.606 327.92C268.958 327.92 269.286 327.832 269.59 327.656C269.894 327.48 270.138 327.224 270.322 326.888C270.514 326.544 270.61 326.144 270.61 325.688ZM281.791 322.28C282.311 322.28 282.775 322.388 283.183 322.604C283.599 322.82 283.923 323.14 284.155 323.564C284.395 323.988 284.515 324.5 284.515 325.1V329H283.159V325.304C283.159 324.712 283.011 324.26 282.715 323.948C282.419 323.628 282.015 323.468 281.503 323.468C280.991 323.468 280.583 323.628 280.279 323.948C279.983 324.26 279.835 324.712 279.835 325.304V329H278.479V325.304C278.479 324.712 278.331 324.26 278.035 323.948C277.739 323.628 277.335 323.468 276.823 323.468C276.311 323.468 275.903 323.628 275.599 323.948C275.303 324.26 275.155 324.712 275.155 325.304V329H273.787V322.388H275.155V323.144C275.379 322.872 275.663 322.66 276.007 322.508C276.351 322.356 276.719 322.28 277.111 322.28C277.639 322.28 278.111 322.392 278.527 322.616C278.943 322.84 279.263 323.164 279.487 323.588C279.687 323.188 279.999 322.872 280.423 322.64C280.847 322.4 281.303 322.28 281.791 322.28ZM288.655 329.108C288.135 329.108 287.667 329.016 287.251 328.832C286.843 328.64 286.519 328.384 286.279 328.064C286.039 327.736 285.911 327.372 285.895 326.972H287.311C287.335 327.252 287.467 327.488 287.707 327.68C287.955 327.864 288.263 327.956 288.631 327.956C289.015 327.956 289.311 327.884 289.519 327.74C289.735 327.588 289.843 327.396 289.843 327.164C289.843 326.916 289.723 326.732 289.483 326.612C289.251 326.492 288.879 326.36 288.367 326.216C287.871 326.08 287.467 325.948 287.155 325.82C286.843 325.692 286.571 325.496 286.339 325.232C286.115 324.968 286.003 324.62 286.003 324.188C286.003 323.836 286.107 323.516 286.315 323.228C286.523 322.932 286.819 322.7 287.203 322.532C287.595 322.364 288.043 322.28 288.547 322.28C289.299 322.28 289.903 322.472 290.359 322.856C290.823 323.232 291.071 323.748 291.103 324.404H289.735C289.711 324.108 289.591 323.872 289.375 323.696C289.159 323.52 288.867 323.432 288.499 323.432C288.139 323.432 287.863 323.5 287.671 323.636C287.479 323.772 287.383 323.952 287.383 324.176C287.383 324.352 287.447 324.5 287.575 324.62C287.703 324.74 287.859 324.836 288.043 324.908C288.227 324.972 288.499 325.056 288.859 325.16C289.339 325.288 289.731 325.42 290.035 325.556C290.347 325.684 290.615 325.876 290.839 326.132C291.063 326.388 291.179 326.728 291.187 327.152C291.187 327.528 291.083 327.864 290.875 328.16C290.667 328.456 290.371 328.688 289.987 328.856C289.611 329.024 289.167 329.108 288.655 329.108Z" fill="black"/>
<path d="M317.656 329.084C317.096 329.084 316.592 328.988 316.144 328.796C315.696 328.596 315.344 328.316 315.088 327.956C314.832 327.596 314.704 327.176 314.704 326.696H316.168C316.2 327.056 316.34 327.352 316.588 327.584C316.844 327.816 317.2 327.932 317.656 327.932C318.128 327.932 318.496 327.82 318.76 327.596C319.024 327.364 319.156 327.068 319.156 326.708C319.156 326.428 319.072 326.2 318.904 326.024C318.744 325.848 318.54 325.712 318.292 325.616C318.052 325.52 317.716 325.416 317.284 325.304C316.74 325.16 316.296 325.016 315.952 324.872C315.616 324.72 315.328 324.488 315.088 324.176C314.848 323.864 314.728 323.448 314.728 322.928C314.728 322.448 314.848 322.028 315.088 321.668C315.328 321.308 315.664 321.032 316.096 320.84C316.528 320.648 317.028 320.552 317.596 320.552C318.404 320.552 319.064 320.756 319.576 321.164C320.096 321.564 320.384 322.116 320.44 322.82H318.928C318.904 322.516 318.76 322.256 318.496 322.04C318.232 321.824 317.884 321.716 317.452 321.716C317.06 321.716 316.74 321.816 316.492 322.016C316.244 322.216 316.12 322.504 316.12 322.88C316.12 323.136 316.196 323.348 316.348 323.516C316.508 323.676 316.708 323.804 316.948 323.9C317.188 323.996 317.516 324.1 317.932 324.212C318.484 324.364 318.932 324.516 319.276 324.668C319.628 324.82 319.924 325.056 320.164 325.376C320.412 325.688 320.536 326.108 320.536 326.636C320.536 327.06 320.42 327.46 320.188 327.836C319.964 328.212 319.632 328.516 319.192 328.748C318.76 328.972 318.248 329.084 317.656 329.084ZM328.138 322.388V329H326.77V328.22C326.554 328.492 326.27 328.708 325.918 328.868C325.574 329.02 325.206 329.096 324.814 329.096C324.294 329.096 323.826 328.988 323.41 328.772C323.002 328.556 322.678 328.236 322.438 327.812C322.206 327.388 322.09 326.876 322.09 326.276V322.388H323.446V326.072C323.446 326.664 323.594 327.12 323.89 327.44C324.186 327.752 324.59 327.908 325.102 327.908C325.614 327.908 326.018 327.752 326.314 327.44C326.618 327.12 326.77 326.664 326.77 326.072V322.388H328.138ZM337.947 322.28C338.467 322.28 338.931 322.388 339.339 322.604C339.755 322.82 340.079 323.14 340.311 323.564C340.551 323.988 340.671 324.5 340.671 325.1V329H339.315V325.304C339.315 324.712 339.167 324.26 338.871 323.948C338.575 323.628 338.171 323.468 337.659 323.468C337.147 323.468 336.739 323.628 336.435 323.948C336.139 324.26 335.991 324.712 335.991 325.304V329H334.635V325.304C334.635 324.712 334.487 324.26 334.191 323.948C333.895 323.628 333.491 323.468 332.979 323.468C332.467 323.468 332.059 323.628 331.755 323.948C331.459 324.26 331.311 324.712 331.311 325.304V329H329.943V322.388H331.311V323.144C331.535 322.872 331.819 322.66 332.163 322.508C332.507 322.356 332.875 322.28 333.267 322.28C333.795 322.28 334.267 322.392 334.683 322.616C335.099 322.84 335.419 323.164 335.643 323.588C335.843 323.188 336.155 322.872 336.579 322.64C337.003 322.4 337.459 322.28 337.947 322.28ZM350.416 322.28C350.936 322.28 351.4 322.388 351.808 322.604C352.224 322.82 352.548 323.14 352.78 323.564C353.02 323.988 353.14 324.5 353.14 325.1V329H351.784V325.304C351.784 324.712 351.636 324.26 351.34 323.948C351.044 323.628 350.64 323.468 350.128 323.468C349.616 323.468 349.208 323.628 348.904 323.948C348.608 324.26 348.46 324.712 348.46 325.304V329H347.104V325.304C347.104 324.712 346.956 324.26 346.66 323.948C346.364 323.628 345.96 323.468 345.448 323.468C344.936 323.468 344.528 323.628 344.224 323.948C343.928 324.26 343.78 324.712 343.78 325.304V329H342.412V322.388H343.78V323.144C344.004 322.872 344.288 322.66 344.632 322.508C344.976 322.356 345.344 322.28 345.736 322.28C346.264 322.28 346.736 322.392 347.152 322.616C347.568 322.84 347.888 323.164 348.112 323.588C348.312 323.188 348.624 322.872 349.048 322.64C349.472 322.4 349.928 322.28 350.416 322.28ZM360.94 325.532C360.94 325.78 360.924 326.004 360.892 326.204H355.84C355.88 326.732 356.076 327.156 356.428 327.476C356.78 327.796 357.212 327.956 357.724 327.956C358.46 327.956 358.98 327.648 359.284 327.032H360.76C360.56 327.64 360.196 328.14 359.668 328.532C359.148 328.916 358.5 329.108 357.724 329.108C357.092 329.108 356.524 328.968 356.02 328.688C355.524 328.4 355.132 328 354.844 327.488C354.564 326.968 354.424 326.368 354.424 325.688C354.424 325.008 354.56 324.412 354.832 323.9C355.112 323.38 355.5 322.98 355.996 322.7C356.5 322.42 357.076 322.28 357.724 322.28C358.348 322.28 358.904 322.416 359.392 322.688C359.88 322.96 360.26 323.344 360.532 323.84C360.804 324.328 360.94 324.892 360.94 325.532ZM359.512 325.1C359.504 324.596 359.324 324.192 358.972 323.888C358.62 323.584 358.184 323.432 357.664 323.432C357.192 323.432 356.788 323.584 356.452 323.888C356.116 324.184 355.916 324.588 355.852 325.1H359.512ZM363.655 323.348C363.855 323.012 364.119 322.752 364.447 322.568C364.783 322.376 365.179 322.28 365.635 322.28V323.696H365.287C364.751 323.696 364.343 323.832 364.063 324.104C363.791 324.376 363.655 324.848 363.655 325.52V329H362.287V322.388H363.655V323.348Z" fill="black"/>
<circle cx="455" cy="329" r="15" fill="black" fill-opacity="0.1"/>
<path d="M459.5 329.866L453.5 333.33C452.833 333.715 452 333.234 452 332.464L452 325.536C452 324.766 452.833 324.285 453.5 324.67L459.5 328.134C460.167 328.519 460.167 329.481 459.5 329.866Z" stroke="black" stroke-width="2"/>
</svg>
