<svg xmlns="http://www.w3.org/2000/svg" fill="none" viewBox="0 0 110 30" height="30" width="110">
<rect fill-opacity="0.25" fill="white" rx="15" height="30" width="110"></rect>
<path fill="black" d="M17.9085 17.296H14.4165L13.8165 19H12.3885L15.3765 10.648H16.9605L19.9485 19H18.5085L17.9085 17.296ZM17.5245 16.18L16.1685 12.304L14.8005 16.18H17.5245ZM22.6157 10.12V19H21.2477V10.12H22.6157ZM23.9557 15.664C23.9557 15 24.0917 14.412 24.3637 13.9C24.6437 13.388 25.0197 12.992 25.4917 12.712C25.9717 12.424 26.4997 12.28 27.0757 12.28C27.5957 12.28 28.0477 12.384 28.4317 12.592C28.8237 12.792 29.1357 13.044 29.3677 13.348V12.388H30.7477V19H29.3677V18.016C29.1357 18.328 28.8197 18.588 28.4197 18.796C28.0197 19.004 27.5637 19.108 27.0517 19.108C26.4837 19.108 25.9637 18.964 25.4917 18.676C25.0197 18.38 24.6437 17.972 24.3637 17.452C24.0917 16.924 23.9557 16.328 23.9557 15.664ZM29.3677 15.688C29.3677 15.232 29.2717 14.836 29.0797 14.5C28.8957 14.164 28.6517 13.908 28.3477 13.732C28.0437 13.556 27.7157 13.468 27.3637 13.468C27.0117 13.468 26.6837 13.556 26.3797 13.732C26.0757 13.9 25.8277 14.152 25.6357 14.488C25.4517 14.816 25.3597 15.208 25.3597 15.664C25.3597 16.12 25.4517 16.52 25.6357 16.864C25.8277 17.208 26.0757 17.472 26.3797 17.656C26.6917 17.832 27.0197 17.92 27.3637 17.92C27.7157 17.92 28.0437 17.832 28.3477 17.656C28.6517 17.48 28.8957 17.224 29.0797 16.888C29.2717 16.544 29.3677 16.144 29.3677 15.688ZM33.9125 13.348C34.1125 13.012 34.3765 12.752 34.7045 12.568C35.0405 12.376 35.4365 12.28 35.8925 12.28V13.696H35.5445C35.0085 13.696 34.6005 13.832 34.3205 14.104C34.0485 14.376 33.9125 14.848 33.9125 15.52V19H32.5445V12.388H33.9125V13.348ZM45.154 12.28C45.674 12.28 46.138 12.388 46.546 12.604C46.962 12.82 47.286 13.14 47.518 13.564C47.758 13.988 47.878 14.5 47.878 15.1V19H46.522V15.304C46.522 14.712 46.374 14.26 46.078 13.948C45.782 13.628 45.378 13.468 44.866 13.468C44.354 13.468 43.946 13.628 43.642 13.948C43.346 14.26 43.198 14.712 43.198 15.304V19H41.842V15.304C41.842 14.712 41.694 14.26 41.398 13.948C41.102 13.628 40.698 13.468 40.186 13.468C39.674 13.468 39.266 13.628 38.962 13.948C38.666 14.26 38.518 14.712 38.518 15.304V19H37.15V12.388H38.518V13.144C38.742 12.872 39.026 12.66 39.37 12.508C39.714 12.356 40.082 12.28 40.474 12.28C41.002 12.28 41.474 12.392 41.89 12.616C42.306 12.84 42.626 13.164 42.85 13.588C43.05 13.188 43.362 12.872 43.786 12.64C44.21 12.4 44.666 12.28 45.154 12.28ZM59.1799 19L58.1479 17.968C57.7479 18.368 57.3119 18.668 56.8399 18.868C56.3679 19.06 55.8399 19.156 55.2559 19.156C54.6639 19.156 54.1399 19.052 53.6839 18.844C53.2279 18.636 52.8759 18.34 52.6279 17.956C52.3799 17.564 52.2559 17.112 52.2559 16.6C52.2559 16.024 52.4199 15.512 52.7479 15.064C53.0759 14.608 53.5639 14.248 54.2119 13.984C53.9799 13.704 53.8159 13.444 53.7199 13.204C53.6239 12.956 53.5759 12.684 53.5759 12.388C53.5759 12.02 53.6679 11.692 53.8519 11.404C54.0439 11.116 54.3159 10.888 54.6679 10.72C55.0199 10.552 55.4279 10.468 55.8919 10.468C56.3639 10.468 56.7639 10.56 57.0919 10.744C57.4279 10.92 57.6759 11.164 57.8359 11.476C58.0039 11.788 58.0719 12.136 58.0399 12.52H56.6719C56.6799 12.224 56.6079 11.996 56.4559 11.836C56.3039 11.668 56.0959 11.584 55.8319 11.584C55.5679 11.584 55.3519 11.664 55.1839 11.824C55.0239 11.976 54.9439 12.164 54.9439 12.388C54.9439 12.604 55.0039 12.82 55.1239 13.036C55.2519 13.244 55.4719 13.516 55.7839 13.852L57.9919 16.048L58.8439 14.644H60.3199L59.2399 16.492L58.9399 16.984L60.9679 19H59.1799ZM55.2559 17.992C56.0079 17.992 56.6719 17.684 57.2479 17.068L55.0399 14.848C54.0959 15.224 53.6239 15.792 53.6239 16.552C53.6239 16.96 53.7759 17.304 54.0799 17.584C54.3839 17.856 54.7759 17.992 55.2559 17.992ZM64.526 14.812C64.526 13.996 64.714 13.264 65.09 12.616C65.474 11.968 65.99 11.464 66.638 11.104C67.294 10.736 68.01 10.552 68.786 10.552C69.674 10.552 70.462 10.772 71.15 11.212C71.846 11.644 72.35 12.26 72.662 13.06H71.018C70.802 12.62 70.502 12.292 70.118 12.076C69.734 11.86 69.29 11.752 68.786 11.752C68.234 11.752 67.742 11.876 67.31 12.124C66.878 12.372 66.538 12.728 66.29 13.192C66.05 13.656 65.93 14.196 65.93 14.812C65.93 15.428 66.05 15.968 66.29 16.432C66.538 16.896 66.878 17.256 67.31 17.512C67.742 17.76 68.234 17.884 68.786 17.884C69.29 17.884 69.734 17.776 70.118 17.56C70.502 17.344 70.802 17.016 71.018 16.576H72.662C72.35 17.376 71.846 17.992 71.15 18.424C70.462 18.856 69.674 19.072 68.786 19.072C68.002 19.072 67.286 18.892 66.638 18.532C65.99 18.164 65.474 17.656 65.09 17.008C64.714 16.36 64.526 15.628 64.526 14.812ZM75.6313 10.12V19H74.2633V10.12H75.6313ZM80.2953 19.108C79.6713 19.108 79.1073 18.968 78.6033 18.688C78.0993 18.4 77.7033 18 77.4153 17.488C77.1273 16.968 76.9833 16.368 76.9833 15.688C76.9833 15.016 77.1313 14.42 77.4273 13.9C77.7233 13.38 78.1273 12.98 78.6393 12.7C79.1513 12.42 79.7233 12.28 80.3553 12.28C80.9873 12.28 81.5593 12.42 82.0713 12.7C82.5833 12.98 82.9873 13.38 83.2833 13.9C83.5793 14.42 83.7273 15.016 83.7273 15.688C83.7273 16.36 83.5753 16.956 83.2713 17.476C82.9673 17.996 82.5513 18.4 82.0233 18.688C81.5033 18.968 80.9273 19.108 80.2953 19.108ZM80.2953 17.92C80.6473 17.92 80.9753 17.836 81.2793 17.668C81.5913 17.5 81.8433 17.248 82.0353 16.912C82.2273 16.576 82.3233 16.168 82.3233 15.688C82.3233 15.208 82.2313 14.804 82.0473 14.476C81.8633 14.14 81.6193 13.888 81.3153 13.72C81.0113 13.552 80.6833 13.468 80.3313 13.468C79.9793 13.468 79.6513 13.552 79.3473 13.72C79.0513 13.888 78.8153 14.14 78.6393 14.476C78.4633 14.804 78.3753 15.208 78.3753 15.688C78.3753 16.4 78.5553 16.952 78.9153 17.344C79.2833 17.728 79.7433 17.92 80.2953 17.92ZM84.6237 15.688C84.6237 15.008 84.7597 14.412 85.0317 13.9C85.3117 13.38 85.6957 12.98 86.1837 12.7C86.6717 12.42 87.2317 12.28 87.8637 12.28C88.6637 12.28 89.3237 12.472 89.8437 12.856C90.3717 13.232 90.7277 13.772 90.9117 14.476H89.4357C89.3157 14.148 89.1237 13.892 88.8597 13.708C88.5957 13.524 88.2637 13.432 87.8637 13.432C87.3037 13.432 86.8557 13.632 86.5197 14.032C86.1917 14.424 86.0277 14.976 86.0277 15.688C86.0277 16.4 86.1917 16.956 86.5197 17.356C86.8557 17.756 87.3037 17.956 87.8637 17.956C88.6557 17.956 89.1797 17.608 89.4357 16.912H90.9117C90.7197 17.584 90.3597 18.12 89.8317 18.52C89.3037 18.912 88.6477 19.108 87.8637 19.108C87.2317 19.108 86.6717 18.968 86.1837 18.688C85.6957 18.4 85.3117 18 85.0317 17.488C84.7597 16.968 84.6237 16.368 84.6237 15.688ZM94.891 15.7L97.939 19H96.091L93.643 16.156V19H92.275V10.12H93.643V15.28L96.043 12.388H97.939L94.891 15.7Z"></path>
</svg>
