<svg width="480" height="360" viewBox="0 0 480 360" fill="none" xmlns="http://www.w3.org/2000/svg">
<g clip-path="url(#clip0_207_47)">
<path d="M0 0H130C141.046 0 150 8.95431 150 20V340C150 351.046 141.046 360 130 360H0V0Z" fill="#191919"/>
<path d="M50.832 19.88C52.016 19.88 53.0507 20.1093 53.936 20.568C54.832 21.016 55.52 21.6667 56 22.52C56.4907 23.3627 56.736 24.3493 56.736 25.48C56.736 26.6107 56.4907 27.592 56 28.424C55.52 29.256 54.832 29.896 53.936 30.344C53.0507 30.7813 52.016 31 50.832 31H47.2V19.88H50.832ZM50.832 29.512C52.1333 29.512 53.1307 29.16 53.824 28.456C54.5173 27.752 54.864 26.76 54.864 25.48C54.864 24.1893 54.5173 23.1813 53.824 22.456C53.1307 21.7307 52.1333 21.368 50.832 21.368H49.024V29.512H50.832ZM60.3678 23.464C60.6344 23.016 60.9864 22.6693 61.4238 22.424C61.8718 22.168 62.3998 22.04 63.0078 22.04V23.928H62.5438C61.8291 23.928 61.2851 24.1093 60.9118 24.472C60.5491 24.8347 60.3678 25.464 60.3678 26.36V31H58.5438V22.184H60.3678V23.464ZM64.0764 26.552C64.0764 25.6667 64.2577 24.8827 64.6204 24.2C64.9937 23.5173 65.495 22.9893 66.1244 22.616C66.7644 22.232 67.4684 22.04 68.2364 22.04C68.9297 22.04 69.5324 22.1787 70.0444 22.456C70.567 22.7227 70.983 23.0587 71.2924 23.464V22.184H73.1324V31H71.2924V29.688C70.983 30.104 70.5617 30.4507 70.0284 30.728C69.495 31.0053 68.887 31.144 68.2044 31.144C67.447 31.144 66.7537 30.952 66.1244 30.568C65.495 30.1733 64.9937 29.6293 64.6204 28.936C64.2577 28.232 64.0764 27.4373 64.0764 26.552ZM71.2924 26.584C71.2924 25.976 71.1644 25.448 70.9084 25C70.663 24.552 70.3377 24.2107 69.9324 23.976C69.527 23.7413 69.0897 23.624 68.6204 23.624C68.151 23.624 67.7137 23.7413 67.3084 23.976C66.903 24.2 66.5724 24.536 66.3164 24.984C66.071 25.4213 65.9484 25.944 65.9484 26.552C65.9484 27.16 66.071 27.6933 66.3164 28.152C66.5724 28.6107 66.903 28.9627 67.3084 29.208C67.7244 29.4427 68.1617 29.56 68.6204 29.56C69.0897 29.56 69.527 29.4427 69.9324 29.208C70.3377 28.9733 70.663 28.632 70.9084 28.184C71.1644 27.7253 71.2924 27.192 71.2924 26.584ZM87.3681 22.184L84.6321 31H82.7121L80.9361 24.488L79.1601 31H77.2401L74.4881 22.184H76.3441L78.1841 29.272L80.0561 22.184H81.9601L83.7521 29.24L85.5761 22.184H87.3681ZM100.072 19.88V21.368H97.1115V31H95.2875V21.368H92.3115V19.88H100.072ZM106.479 22.04C107.151 22.04 107.748 22.184 108.271 22.472C108.804 22.76 109.22 23.1867 109.519 23.752C109.828 24.3173 109.983 25 109.983 25.8V31H108.175V26.072C108.175 25.2827 107.977 24.68 107.583 24.264C107.188 23.8373 106.649 23.624 105.967 23.624C105.284 23.624 104.74 23.8373 104.335 24.264C103.94 24.68 103.743 25.2827 103.743 26.072V31H101.919V19.16H103.743V23.208C104.052 22.8347 104.441 22.5467 104.911 22.344C105.391 22.1413 105.913 22.04 106.479 22.04ZM113.237 21.016C112.907 21.016 112.629 20.904 112.405 20.68C112.181 20.456 112.069 20.1787 112.069 19.848C112.069 19.5173 112.181 19.24 112.405 19.016C112.629 18.792 112.907 18.68 113.237 18.68C113.557 18.68 113.829 18.792 114.053 19.016C114.277 19.24 114.389 19.5173 114.389 19.848C114.389 20.1787 114.277 20.456 114.053 20.68C113.829 20.904 113.557 21.016 113.237 21.016ZM114.133 22.184V31H112.309V22.184H114.133ZM119.728 31.144C119.035 31.144 118.411 31.0213 117.856 30.776C117.312 30.52 116.88 30.1787 116.56 29.752C116.24 29.3147 116.069 28.8293 116.048 28.296H117.936C117.968 28.6693 118.144 28.984 118.464 29.24C118.795 29.4853 119.205 29.608 119.696 29.608C120.208 29.608 120.603 29.512 120.88 29.32C121.168 29.1173 121.312 28.8613 121.312 28.552C121.312 28.2213 121.152 27.976 120.832 27.816C120.523 27.656 120.027 27.48 119.344 27.288C118.683 27.1067 118.144 26.9307 117.728 26.76C117.312 26.5893 116.949 26.328 116.64 25.976C116.341 25.624 116.192 25.16 116.192 24.584C116.192 24.1147 116.331 23.688 116.608 23.304C116.885 22.9093 117.28 22.6 117.792 22.376C118.315 22.152 118.912 22.04 119.584 22.04C120.587 22.04 121.392 22.296 122 22.808C122.619 23.3093 122.949 23.9973 122.992 24.872H121.168C121.136 24.4773 120.976 24.1627 120.688 23.928C120.4 23.6933 120.011 23.576 119.52 23.576C119.04 23.576 118.672 23.6667 118.416 23.848C118.16 24.0293 118.032 24.2693 118.032 24.568C118.032 24.8027 118.117 25 118.288 25.16C118.459 25.32 118.667 25.448 118.912 25.544C119.157 25.6293 119.52 25.7413 120 25.88C120.64 26.0507 121.163 26.2267 121.568 26.408C121.984 26.5787 122.341 26.8347 122.64 27.176C122.939 27.5173 123.093 27.9707 123.104 28.536C123.104 29.0373 122.965 29.4853 122.688 29.88C122.411 30.2747 122.016 30.584 121.504 30.808C121.003 31.032 120.411 31.144 119.728 31.144ZM127.363 19.88L127.155 27.64H125.635L125.427 19.88H127.363ZM126.451 31.112C126.12 31.112 125.843 31 125.619 30.776C125.395 30.552 125.283 30.2747 125.283 29.944C125.283 29.6133 125.395 29.336 125.619 29.112C125.843 28.888 126.12 28.776 126.451 28.776C126.771 28.776 127.043 28.888 127.267 29.112C127.491 29.336 127.603 29.6133 127.603 29.944C127.603 30.2747 127.491 30.552 127.267 30.776C127.043 31 126.771 31.112 126.451 31.112Z" fill="white"/>
<path d="M36.732 63.144C36.732 63.568 36.632 63.968 36.432 64.344C36.232 64.72 35.912 65.028 35.472 65.268C35.032 65.5 34.468 65.616 33.78 65.616H32.268V69H30.9V60.66H33.78C34.42 60.66 34.96 60.772 35.4 60.996C35.848 61.212 36.18 61.508 36.396 61.884C36.62 62.26 36.732 62.68 36.732 63.144ZM33.78 64.5C34.3 64.5 34.688 64.384 34.944 64.152C35.2 63.912 35.328 63.576 35.328 63.144C35.328 62.232 34.812 61.776 33.78 61.776H32.268V64.5H33.78ZM39.4047 60.12V69H38.0367V60.12H39.4047ZM40.7448 65.664C40.7448 65 40.8808 64.412 41.1528 63.9C41.4328 63.388 41.8088 62.992 42.2808 62.712C42.7608 62.424 43.2888 62.28 43.8648 62.28C44.3848 62.28 44.8368 62.384 45.2208 62.592C45.6128 62.792 45.9248 63.044 46.1568 63.348V62.388H47.5368V69H46.1568V68.016C45.9248 68.328 45.6088 68.588 45.2088 68.796C44.8088 69.004 44.3528 69.108 43.8408 69.108C43.2728 69.108 42.7528 68.964 42.2808 68.676C41.8088 68.38 41.4328 67.972 41.1528 67.452C40.8808 66.924 40.7448 66.328 40.7448 65.664ZM46.1568 65.688C46.1568 65.232 46.0608 64.836 45.8688 64.5C45.6848 64.164 45.4408 63.908 45.1368 63.732C44.8328 63.556 44.5048 63.468 44.1528 63.468C43.8008 63.468 43.4728 63.556 43.1688 63.732C42.8648 63.9 42.6168 64.152 42.4248 64.488C42.2408 64.816 42.1488 65.208 42.1488 65.664C42.1488 66.12 42.2408 66.52 42.4248 66.864C42.6168 67.208 42.8648 67.472 43.1688 67.656C43.4808 67.832 43.8088 67.92 44.1528 67.92C44.5048 67.92 44.8328 67.832 45.1368 67.656C45.4408 67.48 45.6848 67.224 45.8688 66.888C46.0608 66.544 46.1568 66.144 46.1568 65.688ZM55.2856 62.388L51.2296 72.108H49.8136L51.1576 68.892L48.5536 62.388H50.0776L51.9376 67.428L53.8696 62.388H55.2856Z" fill="white"/>
<path d="M19.5 65.866L13.5 69.3301C12.8333 69.715 12 69.2339 12 68.4641L12 61.5359C12 60.7661 12.8333 60.285 13.5 60.6699L19.5 64.134C20.1667 64.5189 20.1667 65.4811 19.5 65.866Z" stroke="white" stroke-width="2"/>
<path d="M33.648 99.084C33.088 99.084 32.584 98.988 32.136 98.796C31.688 98.596 31.336 98.316 31.08 97.956C30.824 97.596 30.696 97.176 30.696 96.696H32.16C32.192 97.056 32.332 97.352 32.58 97.584C32.836 97.816 33.192 97.932 33.648 97.932C34.12 97.932 34.488 97.82 34.752 97.596C35.016 97.364 35.148 97.068 35.148 96.708C35.148 96.428 35.064 96.2 34.896 96.024C34.736 95.848 34.532 95.712 34.284 95.616C34.044 95.52 33.708 95.416 33.276 95.304C32.732 95.16 32.288 95.016 31.944 94.872C31.608 94.72 31.32 94.488 31.08 94.176C30.84 93.864 30.72 93.448 30.72 92.928C30.72 92.448 30.84 92.028 31.08 91.668C31.32 91.308 31.656 91.032 32.088 90.84C32.52 90.648 33.02 90.552 33.588 90.552C34.396 90.552 35.056 90.756 35.568 91.164C36.088 91.564 36.376 92.116 36.432 92.82H34.92C34.896 92.516 34.752 92.256 34.488 92.04C34.224 91.824 33.876 91.716 33.444 91.716C33.052 91.716 32.732 91.816 32.484 92.016C32.236 92.216 32.112 92.504 32.112 92.88C32.112 93.136 32.188 93.348 32.34 93.516C32.5 93.676 32.7 93.804 32.94 93.9C33.18 93.996 33.508 94.1 33.924 94.212C34.476 94.364 34.924 94.516 35.268 94.668C35.62 94.82 35.916 95.056 36.156 95.376C36.404 95.688 36.528 96.108 36.528 96.636C36.528 97.06 36.412 97.46 36.18 97.836C35.956 98.212 35.624 98.516 35.184 98.748C34.752 98.972 34.24 99.084 33.648 99.084ZM44.2022 95.532C44.2022 95.78 44.1862 96.004 44.1542 96.204H39.1022C39.1422 96.732 39.3382 97.156 39.6902 97.476C40.0422 97.796 40.4742 97.956 40.9862 97.956C41.7222 97.956 42.2422 97.648 42.5462 97.032H44.0222C43.8222 97.64 43.4582 98.14 42.9302 98.532C42.4102 98.916 41.7622 99.108 40.9862 99.108C40.3542 99.108 39.7862 98.968 39.2822 98.688C38.7862 98.4 38.3942 98 38.1062 97.488C37.8262 96.968 37.6862 96.368 37.6862 95.688C37.6862 95.008 37.8222 94.412 38.0942 93.9C38.3742 93.38 38.7622 92.98 39.2582 92.7C39.7622 92.42 40.3382 92.28 40.9862 92.28C41.6102 92.28 42.1662 92.416 42.6542 92.688C43.1422 92.96 43.5222 93.344 43.7942 93.84C44.0662 94.328 44.2022 94.892 44.2022 95.532ZM42.7742 95.1C42.7662 94.596 42.5862 94.192 42.2342 93.888C41.8822 93.584 41.4462 93.432 40.9262 93.432C40.4542 93.432 40.0502 93.584 39.7142 93.888C39.3782 94.184 39.1782 94.588 39.1142 95.1H42.7742ZM47.1444 93.504V97.164C47.1444 97.412 47.2004 97.592 47.3124 97.704C47.4324 97.808 47.6324 97.86 47.9124 97.86H48.7524V99H47.6724C47.0564 99 46.5844 98.856 46.2564 98.568C45.9284 98.28 45.7644 97.812 45.7644 97.164V93.504H44.9844V92.388H45.7644V90.744H47.1444V92.388H48.7524V93.504H47.1444ZM51.6093 93.504V97.164C51.6093 97.412 51.6653 97.592 51.7773 97.704C51.8973 97.808 52.0973 97.86 52.3773 97.86H53.2173V99H52.1373C51.5213 99 51.0493 98.856 50.7213 98.568C50.3933 98.28 50.2293 97.812 50.2293 97.164V93.504H49.4493V92.388H50.2293V90.744H51.6093V92.388H53.2173V93.504H51.6093ZM55.1741 91.512C54.9261 91.512 54.7181 91.428 54.5501 91.26C54.3821 91.092 54.2981 90.884 54.2981 90.636C54.2981 90.388 54.3821 90.18 54.5501 90.012C54.7181 89.844 54.9261 89.76 55.1741 89.76C55.4141 89.76 55.6181 89.844 55.7861 90.012C55.9541 90.18 56.0381 90.388 56.0381 90.636C56.0381 90.884 55.9541 91.092 55.7861 91.26C55.6181 91.428 55.4141 91.512 55.1741 91.512ZM55.8461 92.388V99H54.4781V92.388H55.8461ZM60.9782 92.28C61.4982 92.28 61.9622 92.388 62.3702 92.604C62.7862 92.82 63.1102 93.14 63.3422 93.564C63.5742 93.988 63.6902 94.5 63.6902 95.1V99H62.3342V95.304C62.3342 94.712 62.1862 94.26 61.8902 93.948C61.5942 93.628 61.1902 93.468 60.6782 93.468C60.1662 93.468 59.7582 93.628 59.4542 93.948C59.1582 94.26 59.0102 94.712 59.0102 95.304V99H57.6422V92.388H59.0102V93.144C59.2342 92.872 59.5182 92.66 59.8622 92.508C60.2142 92.356 60.5862 92.28 60.9782 92.28ZM68.0992 92.28C68.6112 92.28 69.0632 92.384 69.4552 92.592C69.8552 92.792 70.1672 93.044 70.3912 93.348V92.388H71.7712V99.108C71.7712 99.716 71.6432 100.256 71.3872 100.728C71.1312 101.208 70.7592 101.584 70.2712 101.856C69.7912 102.128 69.2152 102.264 68.5432 102.264C67.6472 102.264 66.9032 102.052 66.3112 101.628C65.7192 101.212 65.3832 100.644 65.3032 99.924H66.6592C66.7632 100.268 66.9832 100.544 67.3192 100.752C67.6632 100.968 68.0712 101.076 68.5432 101.076C69.0952 101.076 69.5392 100.908 69.8752 100.572C70.2192 100.236 70.3912 99.748 70.3912 99.108V98.004C70.1592 98.316 69.8432 98.58 69.4432 98.796C69.0512 99.004 68.6032 99.108 68.0992 99.108C67.5232 99.108 66.9952 98.964 66.5152 98.676C66.0432 98.38 65.6672 97.972 65.3872 97.452C65.1152 96.924 64.9792 96.328 64.9792 95.664C64.9792 95 65.1152 94.412 65.3872 93.9C65.6672 93.388 66.0432 92.992 66.5152 92.712C66.9952 92.424 67.5232 92.28 68.0992 92.28ZM70.3912 95.688C70.3912 95.232 70.2952 94.836 70.1032 94.5C69.9192 94.164 69.6752 93.908 69.3712 93.732C69.0672 93.556 68.7392 93.468 68.3872 93.468C68.0352 93.468 67.7072 93.556 67.4032 93.732C67.0992 93.9 66.8512 94.152 66.6592 94.488C66.4752 94.816 66.3832 95.208 66.3832 95.664C66.3832 96.12 66.4752 96.52 66.6592 96.864C66.8512 97.208 67.0992 97.472 67.4032 97.656C67.7152 97.832 68.0432 97.92 68.3872 97.92C68.7392 97.92 69.0672 97.832 69.3712 97.656C69.6752 97.48 69.9192 97.224 70.1032 96.888C70.2952 96.544 70.3912 96.144 70.3912 95.688ZM75.968 99.108C75.448 99.108 74.98 99.016 74.564 98.832C74.156 98.64 73.832 98.384 73.592 98.064C73.352 97.736 73.224 97.372 73.208 96.972H74.624C74.648 97.252 74.78 97.488 75.02 97.68C75.268 97.864 75.576 97.956 75.944 97.956C76.328 97.956 76.624 97.884 76.832 97.74C77.048 97.588 77.156 97.396 77.156 97.164C77.156 96.916 77.036 96.732 76.796 96.612C76.564 96.492 76.192 96.36 75.68 96.216C75.184 96.08 74.78 95.948 74.468 95.82C74.156 95.692 73.884 95.496 73.652 95.232C73.428 94.968 73.316 94.62 73.316 94.188C73.316 93.836 73.42 93.516 73.628 93.228C73.836 92.932 74.132 92.7 74.516 92.532C74.908 92.364 75.356 92.28 75.86 92.28C76.612 92.28 77.216 92.472 77.672 92.856C78.136 93.232 78.384 93.748 78.416 94.404H77.048C77.024 94.108 76.904 93.872 76.688 93.696C76.472 93.52 76.18 93.432 75.812 93.432C75.452 93.432 75.176 93.5 74.984 93.636C74.792 93.772 74.696 93.952 74.696 94.176C74.696 94.352 74.76 94.5 74.888 94.62C75.016 94.74 75.172 94.836 75.356 94.908C75.54 94.972 75.812 95.056 76.172 95.16C76.652 95.288 77.044 95.42 77.348 95.556C77.66 95.684 77.928 95.876 78.152 96.132C78.376 96.388 78.492 96.728 78.5 97.152C78.5 97.528 78.396 97.864 78.188 98.16C77.98 98.456 77.684 98.688 77.3 98.856C76.924 99.024 76.48 99.108 75.968 99.108Z" fill="white"/>
<rect x="12" y="92" width="6" height="6" rx="3" stroke="white" stroke-width="2"/>
<path d="M13.886 90.0086C13.954 89.8044 14.1451 89.6667 14.3603 89.6667H15.6395C15.8548 89.6667 16.0458 89.8044 16.1139 90.0086L16.6666 91.6667H13.3333L13.886 90.0086Z" fill="white"/>
<path d="M16.114 99.9914C16.046 100.196 15.8549 100.333 15.6397 100.333L14.3605 100.333C14.1452 100.333 13.9542 100.196 13.8861 99.9914L13.3334 98.3333L16.6667 98.3333L16.114 99.9914Z" fill="white"/>
<path d="M18.7657 91.5395C18.9765 91.4963 19.1913 91.593 19.2989 91.7793L19.9385 92.8872C20.0462 93.0736 20.0224 93.3079 19.8796 93.4689L18.72 94.7766L17.0533 91.8899L18.7657 91.5395Z" fill="white"/>
<path d="M11.2343 98.4605C11.0235 98.5037 10.8087 98.407 10.7011 98.2207L10.0615 97.1128C9.95385 96.9264 9.97758 96.6921 10.1204 96.5311L11.28 95.2234L12.9467 98.1101L11.2343 98.4605Z" fill="white"/>
<path d="M10.1203 93.4691C9.9775 93.308 9.95377 93.0737 10.0614 92.8873L10.701 91.7795C10.8086 91.5931 11.0234 91.4965 11.2342 91.5396L12.9466 91.89L11.2799 94.7768L10.1203 93.4691Z" fill="white"/>
<path d="M19.8797 96.5309C20.0225 96.692 20.0462 96.9263 19.9386 97.1127L19.299 98.2205C19.1914 98.4069 18.9766 98.5035 18.7658 98.4604L17.0534 98.11L18.7201 95.2232L19.8797 96.5309Z" fill="white"/>
<path d="M37.56 120.66V129H36.192V125.352H32.268V129H30.9V120.66H32.268V124.236H36.192V120.66H37.56ZM45.4209 125.532C45.4209 125.78 45.4049 126.004 45.3729 126.204H40.3209C40.3609 126.732 40.5569 127.156 40.9089 127.476C41.2609 127.796 41.6929 127.956 42.2049 127.956C42.9409 127.956 43.4609 127.648 43.7649 127.032H45.2409C45.0409 127.64 44.6769 128.14 44.1489 128.532C43.6289 128.916 42.9809 129.108 42.2049 129.108C41.5729 129.108 41.0049 128.968 40.5009 128.688C40.0049 128.4 39.6129 128 39.3249 127.488C39.0449 126.968 38.9049 126.368 38.9049 125.688C38.9049 125.008 39.0409 124.412 39.3129 123.9C39.5929 123.38 39.9809 122.98 40.4769 122.7C40.9809 122.42 41.5569 122.28 42.2049 122.28C42.8289 122.28 43.3849 122.416 43.8729 122.688C44.3609 122.96 44.7409 123.344 45.0129 123.84C45.2849 124.328 45.4209 124.892 45.4209 125.532ZM43.9929 125.1C43.9849 124.596 43.8049 124.192 43.4529 123.888C43.1009 123.584 42.6649 123.432 42.1449 123.432C41.6729 123.432 41.2689 123.584 40.9329 123.888C40.5969 124.184 40.3969 124.588 40.3329 125.1H43.9929ZM48.1352 120.12V129H46.7672V120.12H48.1352ZM51.2993 123.36C51.5313 123.056 51.8473 122.8 52.2473 122.592C52.6473 122.384 53.0993 122.28 53.6033 122.28C54.1793 122.28 54.7033 122.424 55.1753 122.712C55.6553 122.992 56.0313 123.388 56.3033 123.9C56.5753 124.412 56.7113 125 56.7113 125.664C56.7113 126.328 56.5753 126.924 56.3033 127.452C56.0313 127.972 55.6553 128.38 55.1753 128.676C54.7033 128.964 54.1793 129.108 53.6033 129.108C53.0993 129.108 52.6513 129.008 52.2593 128.808C51.8673 128.6 51.5473 128.344 51.2993 128.04V132.144H49.9313V122.388H51.2993V123.36ZM55.3193 125.664C55.3193 125.208 55.2233 124.816 55.0312 124.488C54.8473 124.152 54.5993 123.9 54.2873 123.732C53.9833 123.556 53.6553 123.468 53.3033 123.468C52.9593 123.468 52.6313 123.556 52.3193 123.732C52.0153 123.908 51.7673 124.164 51.5753 124.5C51.3913 124.836 51.2993 125.232 51.2993 125.688C51.2993 126.144 51.3913 126.544 51.5753 126.888C51.7673 127.224 52.0153 127.48 52.3193 127.656C52.6313 127.832 52.9593 127.92 53.3033 127.92C53.6553 127.92 53.9833 127.832 54.2873 127.656C54.5993 127.472 54.8473 127.208 55.0312 126.864C55.2233 126.52 55.3193 126.12 55.3193 125.664Z" fill="white"/>
<mask id="path-14-inside-1_207_47" fill="white">
<path d="M14.2235 125.898C14.0806 126.431 14.4006 126.993 14.9528 127C15.4906 127.006 16.0276 126.904 16.5307 126.696C17.3442 126.359 18.0238 125.763 18.4641 125C18.9044 124.237 19.0807 123.351 18.9658 122.478C18.8508 121.605 18.4511 120.794 17.8284 120.172C17.2058 119.549 16.3951 119.149 15.5221 119.034C14.6491 118.919 13.7626 119.096 13 119.536C12.2374 119.976 11.6414 120.656 11.3045 121.469C11.0961 121.972 10.9939 122.509 11.0003 123.047C11.0068 123.599 11.5688 123.919 12.1022 123.776V123.776C12.6357 123.634 12.9262 123.065 13.0565 122.528C13.0807 122.428 13.1126 122.33 13.1522 122.235C13.3207 121.828 13.6187 121.488 14 121.268C14.3813 121.048 14.8246 120.96 15.2611 121.017C15.6976 121.075 16.1029 121.274 16.4142 121.586C16.7255 121.897 16.9254 122.302 16.9829 122.739C17.0404 123.175 16.9522 123.619 16.7321 124C16.5119 124.381 16.1721 124.679 15.7654 124.848C15.6697 124.887 15.5716 124.919 15.4719 124.944C14.9352 125.074 14.3665 125.364 14.2235 125.898V125.898Z"/>
</mask>
<path d="M14.2235 125.898C14.0806 126.431 14.4006 126.993 14.9528 127C15.4906 127.006 16.0276 126.904 16.5307 126.696C17.3442 126.359 18.0238 125.763 18.4641 125C18.9044 124.237 19.0807 123.351 18.9658 122.478C18.8508 121.605 18.4511 120.794 17.8284 120.172C17.2058 119.549 16.3951 119.149 15.5221 119.034C14.6491 118.919 13.7626 119.096 13 119.536C12.2374 119.976 11.6414 120.656 11.3045 121.469C11.0961 121.972 10.9939 122.509 11.0003 123.047C11.0068 123.599 11.5688 123.919 12.1022 123.776V123.776C12.6357 123.634 12.9262 123.065 13.0565 122.528C13.0807 122.428 13.1126 122.33 13.1522 122.235C13.3207 121.828 13.6187 121.488 14 121.268C14.3813 121.048 14.8246 120.96 15.2611 121.017C15.6976 121.075 16.1029 121.274 16.4142 121.586C16.7255 121.897 16.9254 122.302 16.9829 122.739C17.0404 123.175 16.9522 123.619 16.7321 124C16.5119 124.381 16.1721 124.679 15.7654 124.848C15.6697 124.887 15.5716 124.919 15.4719 124.944C14.9352 125.074 14.3665 125.364 14.2235 125.898V125.898Z" stroke="white" stroke-width="4" mask="url(#path-14-inside-1_207_47)"/>
<circle cx="15" cy="130" r="1" fill="white"/>
<rect x="18" y="20" width="8" height="2" rx="1" fill="#191919"/>
<rect x="18" y="24" width="10" height="2" rx="1" fill="#191919"/>
<rect x="18" y="28" width="5" height="2" rx="1" fill="#191919"/>
<rect x="19" y="27" width="8" height="2" rx="1" fill="#191919"/>
<rect x="25.8284" y="19.3432" width="4" height="11" transform="rotate(45 25.8284 19.3432)" fill="white"/>
<path d="M20.1714 30.6569L17.343 27.8284L16.9301 29.8931C16.7901 30.5928 17.4071 31.2097 18.1068 31.0698L20.1714 30.6569Z" fill="white"/>
<path d="M27.2426 17.9289C27.6331 17.5384 28.2663 17.5384 28.6568 17.9289L30.071 19.3432C30.4616 19.7337 30.4616 20.3668 30.071 20.7574L29.3639 21.4645L26.5355 18.636L27.2426 17.9289Z" fill="white"/>
<rect x="19" y="19" width="2" height="2" rx="1" transform="rotate(-180 19 19)" fill="white"/>
<rect x="21" y="21" width="2" height="2" rx="1" transform="rotate(-180 21 21)" fill="white"/>
<rect x="17" y="21" width="2" height="2" rx="1" transform="rotate(-180 17 21)" fill="white"/>
<rect x="19" y="23" width="2" height="2" rx="1" transform="rotate(-180 19 23)" fill="white"/>
<rect x="31" y="31" width="6" height="2" rx="1" transform="rotate(-180 31 31)" fill="white"/>
<rect x="27" y="33" width="6" height="2" rx="1" transform="rotate(-90 27 33)" fill="white"/>
<path d="M35.1456 319.07C34.4989 319.07 33.9023 318.92 33.3556 318.62C32.8156 318.313 32.3856 317.89 32.0656 317.35C31.7523 316.803 31.5956 316.19 31.5956 315.51C31.5956 314.83 31.7523 314.22 32.0656 313.68C32.3856 313.14 32.8156 312.72 33.3556 312.42C33.9023 312.113 34.4989 311.96 35.1456 311.96C35.7989 311.96 36.3956 312.113 36.9356 312.42C37.4823 312.72 37.9123 313.14 38.2256 313.68C38.5389 314.22 38.6956 314.83 38.6956 315.51C38.6956 316.19 38.5389 316.803 38.2256 317.35C37.9123 317.89 37.4823 318.313 36.9356 318.62C36.3956 318.92 35.7989 319.07 35.1456 319.07ZM35.1456 318.08C35.6056 318.08 36.0156 317.977 36.3756 317.77C36.7356 317.557 37.0156 317.257 37.2156 316.87C37.4223 316.477 37.5256 316.023 37.5256 315.51C37.5256 314.997 37.4223 314.547 37.2156 314.16C37.0156 313.773 36.7356 313.477 36.3756 313.27C36.0156 313.063 35.6056 312.96 35.1456 312.96C34.6856 312.96 34.2756 313.063 33.9156 313.27C33.5556 313.477 33.2723 313.773 33.0656 314.16C32.8656 314.547 32.7656 314.997 32.7656 315.51C32.7656 316.023 32.8656 316.477 33.0656 316.87C33.2723 317.257 33.5556 317.557 33.9156 317.77C34.2756 317.977 34.6856 318.08 35.1456 318.08ZM40.9574 314.29C41.124 314.01 41.344 313.793 41.6174 313.64C41.8974 313.48 42.2274 313.4 42.6074 313.4V314.58H42.3174C41.8707 314.58 41.5307 314.693 41.2974 314.92C41.0707 315.147 40.9574 315.54 40.9574 316.1V319H39.8174V313.49H40.9574V314.29ZM44.2353 312.76C44.0286 312.76 43.8553 312.69 43.7153 312.55C43.5753 312.41 43.5053 312.237 43.5053 312.03C43.5053 311.823 43.5753 311.65 43.7153 311.51C43.8553 311.37 44.0286 311.3 44.2353 311.3C44.4353 311.3 44.6053 311.37 44.7453 311.51C44.8853 311.65 44.9553 311.823 44.9553 312.03C44.9553 312.237 44.8853 312.41 44.7453 312.55C44.6053 312.69 44.4353 312.76 44.2353 312.76ZM44.7953 313.49V319H43.6553V313.49H44.7953ZM48.512 313.4C48.9387 313.4 49.3153 313.487 49.642 313.66C49.9753 313.827 50.2353 314.037 50.422 314.29V313.49H51.572V319.09C51.572 319.597 51.4653 320.047 51.252 320.44C51.0387 320.84 50.7287 321.153 50.322 321.38C49.922 321.607 49.442 321.72 48.882 321.72C48.1353 321.72 47.5153 321.543 47.022 321.19C46.5287 320.843 46.2487 320.37 46.182 319.77H47.312C47.3987 320.057 47.582 320.287 47.862 320.46C48.1487 320.64 48.4887 320.73 48.882 320.73C49.342 320.73 49.712 320.59 49.992 320.31C50.2787 320.03 50.422 319.623 50.422 319.09V318.17C50.2287 318.43 49.9653 318.65 49.632 318.83C49.3053 319.003 48.932 319.09 48.512 319.09C48.032 319.09 47.592 318.97 47.192 318.73C46.7987 318.483 46.4853 318.143 46.252 317.71C46.0253 317.27 45.912 316.773 45.912 316.22C45.912 315.667 46.0253 315.177 46.252 314.75C46.4853 314.323 46.7987 313.993 47.192 313.76C47.592 313.52 48.032 313.4 48.512 313.4ZM50.422 316.24C50.422 315.86 50.342 315.53 50.182 315.25C50.0287 314.97 49.8253 314.757 49.572 314.61C49.3187 314.463 49.0453 314.39 48.752 314.39C48.4587 314.39 48.1853 314.463 47.932 314.61C47.6787 314.75 47.472 314.96 47.312 315.24C47.1587 315.513 47.082 315.84 47.082 316.22C47.082 316.6 47.1587 316.933 47.312 317.22C47.472 317.507 47.6787 317.727 47.932 317.88C48.192 318.027 48.4653 318.1 48.752 318.1C49.0453 318.1 49.3187 318.027 49.572 317.88C49.8253 317.733 50.0287 317.52 50.182 317.24C50.342 316.953 50.422 316.62 50.422 316.24ZM53.6493 312.76C53.4427 312.76 53.2693 312.69 53.1293 312.55C52.9893 312.41 52.9193 312.237 52.9193 312.03C52.9193 311.823 52.9893 311.65 53.1293 311.51C53.2693 311.37 53.4427 311.3 53.6493 311.3C53.8493 311.3 54.0193 311.37 54.1593 311.51C54.2993 311.65 54.3693 311.823 54.3693 312.03C54.3693 312.237 54.2993 312.41 54.1593 312.55C54.0193 312.69 53.8493 312.76 53.6493 312.76ZM54.2093 313.49V319H53.0693V313.49H54.2093ZM58.4861 313.4C58.9194 313.4 59.3061 313.49 59.6461 313.67C59.9927 313.85 60.2627 314.117 60.4561 314.47C60.6494 314.823 60.7461 315.25 60.7461 315.75V319H59.6161V315.92C59.6161 315.427 59.4927 315.05 59.2461 314.79C58.9994 314.523 58.6627 314.39 58.2361 314.39C57.8094 314.39 57.4694 314.523 57.2161 314.79C56.9694 315.05 56.8461 315.427 56.8461 315.92V319H55.7061V313.49H56.8461V314.12C57.0327 313.893 57.2694 313.717 57.5561 313.59C57.8494 313.463 58.1594 313.4 58.4861 313.4ZM61.8202 316.22C61.8202 315.667 61.9335 315.177 62.1602 314.75C62.3935 314.323 62.7069 313.993 63.1002 313.76C63.5002 313.52 63.9402 313.4 64.4202 313.4C64.8535 313.4 65.2302 313.487 65.5502 313.66C65.8769 313.827 66.1369 314.037 66.3302 314.29V313.49H67.4802V319H66.3302V318.18C66.1369 318.44 65.8735 318.657 65.5402 318.83C65.2069 319.003 64.8269 319.09 64.4002 319.09C63.9269 319.09 63.4935 318.97 63.1002 318.73C62.7069 318.483 62.3935 318.143 62.1602 317.71C61.9335 317.27 61.8202 316.773 61.8202 316.22ZM66.3302 316.24C66.3302 315.86 66.2502 315.53 66.0902 315.25C65.9369 314.97 65.7335 314.757 65.4802 314.61C65.2269 314.463 64.9535 314.39 64.6602 314.39C64.3669 314.39 64.0935 314.463 63.8402 314.61C63.5869 314.75 63.3802 314.96 63.2202 315.24C63.0669 315.513 62.9902 315.84 62.9902 316.22C62.9902 316.6 63.0669 316.933 63.2202 317.22C63.3802 317.507 63.5869 317.727 63.8402 317.88C64.1002 318.027 64.3735 318.1 64.6602 318.1C64.9535 318.1 65.2269 318.027 65.4802 317.88C65.7335 317.733 65.9369 317.52 66.0902 317.24C66.2502 316.953 66.3302 316.62 66.3302 316.24ZM70.1175 311.6V319H68.9775V311.6H70.1175ZM76.4319 313.4C76.8586 313.4 77.2352 313.487 77.5619 313.66C77.8952 313.827 78.1552 314.037 78.3419 314.29V313.49H79.4919V319.09C79.4919 319.597 79.3852 320.047 79.1719 320.44C78.9586 320.84 78.6486 321.153 78.2419 321.38C77.8419 321.607 77.3619 321.72 76.8019 321.72C76.0552 321.72 75.4352 321.543 74.9419 321.19C74.4486 320.843 74.1686 320.37 74.1019 319.77H75.2319C75.3186 320.057 75.5019 320.287 75.7819 320.46C76.0686 320.64 76.4086 320.73 76.8019 320.73C77.2619 320.73 77.6319 320.59 77.9119 320.31C78.1986 320.03 78.3419 319.623 78.3419 319.09V318.17C78.1486 318.43 77.8852 318.65 77.5519 318.83C77.2252 319.003 76.8519 319.09 76.4319 319.09C75.9519 319.09 75.5119 318.97 75.1119 318.73C74.7186 318.483 74.4052 318.143 74.1719 317.71C73.9452 317.27 73.8319 316.773 73.8319 316.22C73.8319 315.667 73.9452 315.177 74.1719 314.75C74.4052 314.323 74.7186 313.993 75.1119 313.76C75.5119 313.52 75.9519 313.4 76.4319 313.4ZM78.3419 316.24C78.3419 315.86 78.2619 315.53 78.1019 315.25C77.9486 314.97 77.7452 314.757 77.4919 314.61C77.2386 314.463 76.9652 314.39 76.6719 314.39C76.3786 314.39 76.1052 314.463 75.8519 314.61C75.5986 314.75 75.3919 314.96 75.2319 315.24C75.0786 315.513 75.0019 315.84 75.0019 316.22C75.0019 316.6 75.0786 316.933 75.2319 317.22C75.3919 317.507 75.5986 317.727 75.8519 317.88C76.1119 318.027 76.3852 318.1 76.6719 318.1C76.9652 318.1 77.2386 318.027 77.4919 317.88C77.7452 317.733 77.9486 317.52 78.1019 317.24C78.2619 316.953 78.3419 316.62 78.3419 316.24ZM80.6093 316.22C80.6093 315.667 80.7226 315.177 80.9493 314.75C81.1826 314.323 81.4959 313.993 81.8893 313.76C82.2893 313.52 82.7293 313.4 83.2093 313.4C83.6426 313.4 84.0193 313.487 84.3393 313.66C84.6659 313.827 84.9259 314.037 85.1193 314.29V313.49H86.2693V319H85.1193V318.18C84.9259 318.44 84.6626 318.657 84.3293 318.83C83.9959 319.003 83.6159 319.09 83.1893 319.09C82.7159 319.09 82.2826 318.97 81.8893 318.73C81.4959 318.483 81.1826 318.143 80.9493 317.71C80.7226 317.27 80.6093 316.773 80.6093 316.22ZM85.1193 316.24C85.1193 315.86 85.0393 315.53 84.8793 315.25C84.7259 314.97 84.5226 314.757 84.2693 314.61C84.0159 314.463 83.7426 314.39 83.4493 314.39C83.1559 314.39 82.8826 314.463 82.6293 314.61C82.3759 314.75 82.1693 314.96 82.0093 315.24C81.8559 315.513 81.7793 315.84 81.7793 316.22C81.7793 316.6 81.8559 316.933 82.0093 317.22C82.1693 317.507 82.3759 317.727 82.6293 317.88C82.8893 318.027 83.1626 318.1 83.4493 318.1C83.7426 318.1 84.0159 318.027 84.2693 317.88C84.5226 317.733 84.7259 317.52 84.8793 317.24C85.0393 316.953 85.1193 316.62 85.1193 316.24ZM94.4366 313.4C94.8699 313.4 95.2566 313.49 95.5966 313.67C95.9433 313.85 96.2133 314.117 96.4066 314.47C96.6066 314.823 96.7066 315.25 96.7066 315.75V319H95.5766V315.92C95.5766 315.427 95.4533 315.05 95.2066 314.79C94.9599 314.523 94.6233 314.39 94.1966 314.39C93.7699 314.39 93.4299 314.523 93.1766 314.79C92.9299 315.05 92.8066 315.427 92.8066 315.92V319H91.6766V315.92C91.6766 315.427 91.5533 315.05 91.3066 314.79C91.0599 314.523 90.7233 314.39 90.2966 314.39C89.8699 314.39 89.5299 314.523 89.2766 314.79C89.0299 315.05 88.9066 315.427 88.9066 315.92V319H87.7666V313.49H88.9066V314.12C89.0933 313.893 89.3299 313.717 89.6166 313.59C89.9033 313.463 90.2099 313.4 90.5366 313.4C90.9766 313.4 91.3699 313.493 91.7166 313.68C92.0633 313.867 92.3299 314.137 92.5166 314.49C92.6833 314.157 92.9433 313.893 93.2966 313.7C93.6499 313.5 94.0299 313.4 94.4366 313.4ZM103.207 316.11C103.207 316.317 103.194 316.503 103.167 316.67H98.9572C98.9906 317.11 99.1539 317.463 99.4472 317.73C99.7406 317.997 100.101 318.13 100.527 318.13C101.141 318.13 101.574 317.873 101.827 317.36H103.057C102.891 317.867 102.587 318.283 102.147 318.61C101.714 318.93 101.174 319.09 100.527 319.09C100.001 319.09 99.5272 318.973 99.1072 318.74C98.6939 318.5 98.3672 318.167 98.1272 317.74C97.8939 317.307 97.7772 316.807 97.7772 316.24C97.7772 315.673 97.8906 315.177 98.1172 314.75C98.3506 314.317 98.6739 313.983 99.0872 313.75C99.5072 313.517 99.9872 313.4 100.527 313.4C101.047 313.4 101.511 313.513 101.917 313.74C102.324 313.967 102.641 314.287 102.867 314.7C103.094 315.107 103.207 315.577 103.207 316.11ZM102.017 315.75C102.011 315.33 101.861 314.993 101.567 314.74C101.274 314.487 100.911 314.36 100.477 314.36C100.084 314.36 99.7472 314.487 99.4672 314.74C99.1872 314.987 99.0206 315.323 98.9672 315.75H102.017ZM108.067 314.31C108.26 314.043 108.523 313.827 108.857 313.66C109.197 313.487 109.573 313.4 109.987 313.4C110.473 313.4 110.913 313.517 111.307 313.75C111.7 313.983 112.01 314.317 112.237 314.75C112.463 315.177 112.577 315.667 112.577 316.22C112.577 316.773 112.463 317.27 112.237 317.71C112.01 318.143 111.697 318.483 111.297 318.73C110.903 318.97 110.467 319.09 109.987 319.09C109.56 319.09 109.18 319.007 108.847 318.84C108.52 318.673 108.26 318.46 108.067 318.2V319H106.927V311.6H108.067V314.31ZM111.417 316.22C111.417 315.84 111.337 315.513 111.177 315.24C111.023 314.96 110.817 314.75 110.557 314.61C110.303 314.463 110.03 314.39 109.737 314.39C109.45 314.39 109.177 314.463 108.917 314.61C108.663 314.757 108.457 314.97 108.297 315.25C108.143 315.53 108.067 315.86 108.067 316.24C108.067 316.62 108.143 316.953 108.297 317.24C108.457 317.52 108.663 317.733 108.917 317.88C109.177 318.027 109.45 318.1 109.737 318.1C110.03 318.1 110.303 318.027 110.557 317.88C110.817 317.727 111.023 317.507 111.177 317.22C111.337 316.933 111.417 316.6 111.417 316.22ZM118.664 313.49L115.284 321.59H114.104L115.224 318.91L113.054 313.49H114.324L115.874 317.69L117.484 313.49H118.664ZM38.0968 327.54C38.8568 327.54 39.5135 327.68 40.0668 327.96C40.6201 328.24 41.0401 328.633 41.3268 329.14C41.6201 329.64 41.7668 330.223 41.7668 330.89C41.7668 331.423 41.6735 331.933 41.4868 332.42C41.3068 332.907 41.0435 333.303 40.6968 333.61C40.3568 333.917 39.9535 334.07 39.4868 334.07C39.1468 334.07 38.8801 333.997 38.6868 333.85C38.4935 333.697 38.3735 333.483 38.3268 333.21C38.1201 333.477 37.8601 333.687 37.5468 333.84C37.2335 333.993 36.9068 334.07 36.5668 334.07C36.0535 334.07 35.6501 333.917 35.3568 333.61C35.0701 333.297 34.9268 332.873 34.9268 332.34C34.9268 331.833 35.0301 331.36 35.2368 330.92C35.4501 330.48 35.7468 330.13 36.1268 329.87C36.5068 329.603 36.9335 329.47 37.4068 329.47C37.9868 329.47 38.3935 329.667 38.6268 330.06L38.7168 329.56H39.7068L39.2068 332.42C39.1868 332.56 39.1768 332.683 39.1768 332.79C39.1768 332.963 39.2101 333.093 39.2768 333.18C39.3501 333.267 39.4768 333.31 39.6568 333.31C39.9101 333.31 40.1268 333.187 40.3068 332.94C40.4868 332.687 40.6201 332.377 40.7068 332.01C40.8001 331.643 40.8468 331.287 40.8468 330.94C40.8468 330.093 40.6001 329.447 40.1068 329C39.6135 328.553 38.8968 328.33 37.9568 328.33C37.1701 328.33 36.4635 328.517 35.8368 328.89C35.2168 329.263 34.7301 329.777 34.3768 330.43C34.0235 331.083 33.8468 331.81 33.8468 332.61C33.8468 333.463 34.1001 334.113 34.6068 334.56C35.1135 335.007 35.8368 335.23 36.7768 335.23C37.4101 335.23 37.9635 335.113 38.4368 334.88L38.5868 335.64C37.9801 335.9 37.3001 336.03 36.5468 336.03C35.8201 336.03 35.1835 335.893 34.6368 335.62C34.0901 335.347 33.6668 334.957 33.3668 334.45C33.0668 333.95 32.9168 333.367 32.9168 332.7C32.9168 331.747 33.1368 330.877 33.5768 330.09C34.0235 329.303 34.6401 328.683 35.4268 328.23C36.2135 327.77 37.1035 327.54 38.0968 327.54ZM36.9168 333.19C37.1968 333.19 37.4501 333.11 37.6768 332.95C37.9101 332.783 38.0935 332.567 38.2268 332.3C38.3601 332.027 38.4268 331.737 38.4268 331.43C38.4268 331.11 38.3368 330.85 38.1568 330.65C37.9835 330.443 37.7368 330.34 37.4168 330.34C37.1301 330.34 36.8768 330.43 36.6568 330.61C36.4435 330.783 36.2768 331.01 36.1568 331.29C36.0435 331.57 35.9868 331.863 35.9868 332.17C35.9868 332.483 36.0635 332.733 36.2168 332.92C36.3701 333.1 36.6035 333.19 36.9168 333.19ZM43.8007 327.76C43.594 327.76 43.4207 327.69 43.2807 327.55C43.1407 327.41 43.0707 327.237 43.0707 327.03C43.0707 326.823 43.1407 326.65 43.2807 326.51C43.4207 326.37 43.594 326.3 43.8007 326.3C44.0007 326.3 44.1707 326.37 44.3107 326.51C44.4507 326.65 44.5207 326.823 44.5207 327.03C44.5207 327.237 44.4507 327.41 44.3107 327.55C44.1707 327.69 44.0007 327.76 43.8007 327.76ZM44.3607 328.49V334H43.2207V328.49H44.3607ZM52.5274 328.4C52.9608 328.4 53.3474 328.49 53.6874 328.67C54.0341 328.85 54.3041 329.117 54.4974 329.47C54.6974 329.823 54.7974 330.25 54.7974 330.75V334H53.6674V330.92C53.6674 330.427 53.5441 330.05 53.2974 329.79C53.0508 329.523 52.7141 329.39 52.2874 329.39C51.8608 329.39 51.5208 329.523 51.2674 329.79C51.0208 330.05 50.8974 330.427 50.8974 330.92V334H49.7674V330.92C49.7674 330.427 49.6441 330.05 49.3974 329.79C49.1508 329.523 48.8141 329.39 48.3874 329.39C47.9608 329.39 47.6208 329.523 47.3674 329.79C47.1208 330.05 46.9974 330.427 46.9974 330.92V334H45.8574V328.49H46.9974V329.12C47.1841 328.893 47.4208 328.717 47.7074 328.59C47.9941 328.463 48.3008 328.4 48.6274 328.4C49.0674 328.4 49.4608 328.493 49.8074 328.68C50.1541 328.867 50.4208 329.137 50.6074 329.49C50.7741 329.157 51.0341 328.893 51.3874 328.7C51.7408 328.5 52.1208 328.4 52.5274 328.4ZM62.918 328.4C63.3514 328.4 63.738 328.49 64.078 328.67C64.4247 328.85 64.6947 329.117 64.888 329.47C65.088 329.823 65.188 330.25 65.188 330.75V334H64.058V330.92C64.058 330.427 63.9347 330.05 63.688 329.79C63.4414 329.523 63.1047 329.39 62.678 329.39C62.2514 329.39 61.9114 329.523 61.658 329.79C61.4114 330.05 61.288 330.427 61.288 330.92V334H60.158V330.92C60.158 330.427 60.0347 330.05 59.788 329.79C59.5414 329.523 59.2047 329.39 58.778 329.39C58.3514 329.39 58.0114 329.523 57.758 329.79C57.5114 330.05 57.388 330.427 57.388 330.92V334H56.248V328.49H57.388V329.12C57.5747 328.893 57.8114 328.717 58.098 328.59C58.3847 328.463 58.6914 328.4 59.018 328.4C59.458 328.4 59.8514 328.493 60.198 328.68C60.5447 328.867 60.8114 329.137 60.998 329.49C61.1647 329.157 61.4247 328.893 61.778 328.7C62.1314 328.5 62.5114 328.4 62.918 328.4ZM66.2587 331.22C66.2587 330.667 66.372 330.177 66.5987 329.75C66.832 329.323 67.1453 328.993 67.5387 328.76C67.9387 328.52 68.3787 328.4 68.8587 328.4C69.292 328.4 69.6687 328.487 69.9887 328.66C70.3153 328.827 70.5753 329.037 70.7687 329.29V328.49H71.9187V334H70.7687V333.18C70.5753 333.44 70.312 333.657 69.9787 333.83C69.6453 334.003 69.2653 334.09 68.8387 334.09C68.3653 334.09 67.932 333.97 67.5387 333.73C67.1453 333.483 66.832 333.143 66.5987 332.71C66.372 332.27 66.2587 331.773 66.2587 331.22ZM70.7687 331.24C70.7687 330.86 70.6887 330.53 70.5287 330.25C70.3753 329.97 70.172 329.757 69.9187 329.61C69.6653 329.463 69.392 329.39 69.0987 329.39C68.8053 329.39 68.532 329.463 68.2787 329.61C68.0253 329.75 67.8187 329.96 67.6587 330.24C67.5053 330.513 67.4287 330.84 67.4287 331.22C67.4287 331.6 67.5053 331.933 67.6587 332.22C67.8187 332.507 68.0253 332.727 68.2787 332.88C68.5387 333.027 68.812 333.1 69.0987 333.1C69.392 333.1 69.6653 333.027 69.9187 332.88C70.172 332.733 70.3753 332.52 70.5287 332.24C70.6887 331.953 70.7687 331.62 70.7687 331.24ZM79.506 334.4V335.46H73.926V334.4H79.506ZM81.0145 331.24C81.0145 330.673 81.1279 330.177 81.3545 329.75C81.5879 329.317 81.9079 328.983 82.3145 328.75C82.7212 328.517 83.1879 328.4 83.7145 328.4C84.3812 328.4 84.9312 328.56 85.3645 328.88C85.8045 329.193 86.1012 329.643 86.2545 330.23H85.0245C84.9245 329.957 84.7645 329.743 84.5445 329.59C84.3245 329.437 84.0479 329.36 83.7145 329.36C83.2479 329.36 82.8745 329.527 82.5945 329.86C82.3212 330.187 82.1845 330.647 82.1845 331.24C82.1845 331.833 82.3212 332.297 82.5945 332.63C82.8745 332.963 83.2479 333.13 83.7145 333.13C84.3745 333.13 84.8112 332.84 85.0245 332.26H86.2545C86.0945 332.82 85.7945 333.267 85.3545 333.6C84.9145 333.927 84.3679 334.09 83.7145 334.09C83.1879 334.09 82.7212 333.973 82.3145 333.74C81.9079 333.5 81.5879 333.167 81.3545 332.74C81.1279 332.307 81.0145 331.807 81.0145 331.24ZM89.7806 334.09C89.2606 334.09 88.7906 333.973 88.3706 333.74C87.9506 333.5 87.6206 333.167 87.3806 332.74C87.1406 332.307 87.0206 331.807 87.0206 331.24C87.0206 330.68 87.144 330.183 87.3906 329.75C87.6373 329.317 87.974 328.983 88.4006 328.75C88.8273 328.517 89.304 328.4 89.8306 328.4C90.3573 328.4 90.834 328.517 91.2606 328.75C91.6873 328.983 92.024 329.317 92.2706 329.75C92.5173 330.183 92.6406 330.68 92.6406 331.24C92.6406 331.8 92.514 332.297 92.2606 332.73C92.0073 333.163 91.6606 333.5 91.2206 333.74C90.7873 333.973 90.3073 334.09 89.7806 334.09ZM89.7806 333.1C90.074 333.1 90.3473 333.03 90.6006 332.89C90.8606 332.75 91.0706 332.54 91.2306 332.26C91.3906 331.98 91.4706 331.64 91.4706 331.24C91.4706 330.84 91.394 330.503 91.2406 330.23C91.0873 329.95 90.884 329.74 90.6306 329.6C90.3773 329.46 90.104 329.39 89.8106 329.39C89.5173 329.39 89.244 329.46 88.9906 329.6C88.744 329.74 88.5473 329.95 88.4006 330.23C88.254 330.503 88.1806 330.84 88.1806 331.24C88.1806 331.833 88.3306 332.293 88.6306 332.62C88.9373 332.94 89.3206 333.1 89.7806 333.1ZM93.3876 331.22C93.3876 330.667 93.5009 330.177 93.7276 329.75C93.9609 329.323 94.2742 328.993 94.6676 328.76C95.0676 328.52 95.5109 328.4 95.9976 328.4C96.3576 328.4 96.7109 328.48 97.0576 328.64C97.4109 328.793 97.6909 329 97.8976 329.26V326.6H99.0476V334H97.8976V333.17C97.7109 333.437 97.4509 333.657 97.1176 333.83C96.7909 334.003 96.4142 334.09 95.9876 334.09C95.5076 334.09 95.0676 333.97 94.6676 333.73C94.2742 333.483 93.9609 333.143 93.7276 332.71C93.5009 332.27 93.3876 331.773 93.3876 331.22ZM97.8976 331.24C97.8976 330.86 97.8176 330.53 97.6576 330.25C97.5042 329.97 97.3009 329.757 97.0476 329.61C96.7942 329.463 96.5209 329.39 96.2276 329.39C95.9342 329.39 95.6609 329.463 95.4076 329.61C95.1542 329.75 94.9476 329.96 94.7876 330.24C94.6342 330.513 94.5576 330.84 94.5576 331.22C94.5576 331.6 94.6342 331.933 94.7876 332.22C94.9476 332.507 95.1542 332.727 95.4076 332.88C95.6676 333.027 95.9409 333.1 96.2276 333.1C96.5209 333.1 96.7942 333.027 97.0476 332.88C97.3009 332.733 97.5042 332.52 97.6576 332.24C97.8176 331.953 97.8976 331.62 97.8976 331.24ZM105.595 331.11C105.595 331.317 105.582 331.503 105.555 331.67H101.345C101.378 332.11 101.542 332.463 101.835 332.73C102.128 332.997 102.488 333.13 102.915 333.13C103.528 333.13 103.962 332.873 104.215 332.36H105.445C105.278 332.867 104.975 333.283 104.535 333.61C104.102 333.93 103.562 334.09 102.915 334.09C102.388 334.09 101.915 333.973 101.495 333.74C101.082 333.5 100.755 333.167 100.515 332.74C100.282 332.307 100.165 331.807 100.165 331.24C100.165 330.673 100.278 330.177 100.505 329.75C100.738 329.317 101.062 328.983 101.475 328.75C101.895 328.517 102.375 328.4 102.915 328.4C103.435 328.4 103.898 328.513 104.305 328.74C104.712 328.967 105.028 329.287 105.255 329.7C105.482 330.107 105.595 330.577 105.595 331.11ZM104.405 330.75C104.398 330.33 104.248 329.993 103.955 329.74C103.662 329.487 103.298 329.36 102.865 329.36C102.472 329.36 102.135 329.487 101.855 329.74C101.575 329.987 101.408 330.323 101.355 330.75H104.405ZM107.857 329.29C108.023 329.01 108.243 328.793 108.517 328.64C108.797 328.48 109.127 328.4 109.507 328.4V329.58H109.217C108.77 329.58 108.43 329.693 108.197 329.92C107.97 330.147 107.857 330.54 107.857 331.1V334H106.717V328.49H107.857V329.29ZM116.645 334.4V335.46H111.065V334.4H116.645ZM51.5257 345.43C51.899 345.497 52.2157 345.693 52.4757 346.02C52.7357 346.347 52.8657 346.717 52.8657 347.13C52.8657 347.483 52.7723 347.803 52.5857 348.09C52.4057 348.37 52.1423 348.593 51.7957 348.76C51.449 348.92 51.0457 349 50.5857 349H47.8057V342.05H50.4557C50.929 342.05 51.3357 342.13 51.6757 342.29C52.0157 342.45 52.2723 342.667 52.4457 342.94C52.619 343.207 52.7057 343.507 52.7057 343.84C52.7057 344.24 52.599 344.573 52.3857 344.84C52.1723 345.107 51.8857 345.303 51.5257 345.43ZM48.9457 344.97H50.3557C50.729 344.97 51.019 344.887 51.2257 344.72C51.439 344.547 51.5457 344.3 51.5457 343.98C51.5457 343.667 51.439 343.423 51.2257 343.25C51.019 343.07 50.729 342.98 50.3557 342.98H48.9457V344.97ZM50.4857 348.07C50.8723 348.07 51.1757 347.977 51.3957 347.79C51.6157 347.603 51.7257 347.343 51.7257 347.01C51.7257 346.67 51.609 346.4 51.3757 346.2C51.1423 346 50.8323 345.9 50.4457 345.9H48.9457V348.07H50.4857ZM54.6845 342.76C54.4778 342.76 54.3045 342.69 54.1645 342.55C54.0245 342.41 53.9545 342.237 53.9545 342.03C53.9545 341.823 54.0245 341.65 54.1645 341.51C54.3045 341.37 54.4778 341.3 54.6845 341.3C54.8845 341.3 55.0545 341.37 55.1945 341.51C55.3345 341.65 55.4045 341.823 55.4045 342.03C55.4045 342.237 55.3345 342.41 55.1945 342.55C55.0545 342.69 54.8845 342.76 54.6845 342.76ZM55.2445 343.49V349H54.1045V343.49H55.2445ZM58.9612 343.4C59.3879 343.4 59.7645 343.487 60.0912 343.66C60.4245 343.827 60.6845 344.037 60.8712 344.29V343.49H62.0212V349.09C62.0212 349.597 61.9145 350.047 61.7012 350.44C61.4879 350.84 61.1779 351.153 60.7712 351.38C60.3712 351.607 59.8912 351.72 59.3312 351.72C58.5845 351.72 57.9645 351.543 57.4712 351.19C56.9779 350.843 56.6979 350.37 56.6312 349.77H57.7612C57.8479 350.057 58.0312 350.287 58.3112 350.46C58.5979 350.64 58.9379 350.73 59.3312 350.73C59.7912 350.73 60.1612 350.59 60.4412 350.31C60.7279 350.03 60.8712 349.623 60.8712 349.09V348.17C60.6779 348.43 60.4145 348.65 60.0812 348.83C59.7545 349.003 59.3812 349.09 58.9612 349.09C58.4812 349.09 58.0412 348.97 57.6412 348.73C57.2479 348.483 56.9345 348.143 56.7012 347.71C56.4745 347.27 56.3612 346.773 56.3612 346.22C56.3612 345.667 56.4745 345.177 56.7012 344.75C56.9345 344.323 57.2479 343.993 57.6412 343.76C58.0412 343.52 58.4812 343.4 58.9612 343.4ZM60.8712 346.24C60.8712 345.86 60.7912 345.53 60.6312 345.25C60.4779 344.97 60.2745 344.757 60.0212 344.61C59.7679 344.463 59.4945 344.39 59.2012 344.39C58.9079 344.39 58.6345 344.463 58.3812 344.61C58.1279 344.75 57.9212 344.96 57.7612 345.24C57.6079 345.513 57.5312 345.84 57.5312 346.22C57.5312 346.6 57.6079 346.933 57.7612 347.22C57.9212 347.507 58.1279 347.727 58.3812 347.88C58.6412 348.027 58.9145 348.1 59.2012 348.1C59.4945 348.1 59.7679 348.027 60.0212 347.88C60.2745 347.733 60.4779 347.52 60.6312 347.24C60.7912 346.953 60.8712 346.62 60.8712 346.24ZM67.4462 344.42V347.47C67.4462 347.677 67.4929 347.827 67.5862 347.92C67.6862 348.007 67.8529 348.05 68.0862 348.05H68.7862V349H67.8862C67.3729 349 66.9795 348.88 66.7062 348.64C66.4329 348.4 66.2962 348.01 66.2962 347.47V344.42H65.6462V343.49H66.2962V342.12H67.4462V343.49H68.7862V344.42H67.4462ZM72.6869 343.4C73.1069 343.4 73.4802 343.49 73.8069 343.67C74.1402 343.85 74.4002 344.117 74.5869 344.47C74.7802 344.823 74.8769 345.25 74.8769 345.75V349H73.7469V345.92C73.7469 345.427 73.6236 345.05 73.3769 344.79C73.1302 344.523 72.7936 344.39 72.3669 344.39C71.9402 344.39 71.6002 344.523 71.3469 344.79C71.1002 345.05 70.9769 345.427 70.9769 345.92V349H69.8369V341.6H70.9769V344.13C71.1702 343.897 71.4136 343.717 71.7069 343.59C72.0069 343.463 72.3336 343.4 72.6869 343.4ZM75.9511 346.22C75.9511 345.667 76.0644 345.177 76.2911 344.75C76.5244 344.323 76.8377 343.993 77.2311 343.76C77.6311 343.52 78.0711 343.4 78.5511 343.4C78.9844 343.4 79.3611 343.487 79.6811 343.66C80.0077 343.827 80.2677 344.037 80.4611 344.29V343.49H81.6111V349H80.4611V348.18C80.2677 348.44 80.0044 348.657 79.6711 348.83C79.3377 349.003 78.9577 349.09 78.5311 349.09C78.0577 349.09 77.6244 348.97 77.2311 348.73C76.8377 348.483 76.5244 348.143 76.2911 347.71C76.0644 347.27 75.9511 346.773 75.9511 346.22ZM80.4611 346.24C80.4611 345.86 80.3811 345.53 80.2211 345.25C80.0677 344.97 79.8644 344.757 79.6111 344.61C79.3577 344.463 79.0844 344.39 78.7911 344.39C78.4977 344.39 78.2244 344.463 77.9711 344.61C77.7177 344.75 77.5111 344.96 77.3511 345.24C77.1977 345.513 77.1211 345.84 77.1211 346.22C77.1211 346.6 77.1977 346.933 77.3511 347.22C77.5111 347.507 77.7177 347.727 77.9711 347.88C78.2311 348.027 78.5044 348.1 78.7911 348.1C79.0844 348.1 79.3577 348.027 79.6111 347.88C79.8644 347.733 80.0677 347.52 80.2211 347.24C80.3811 346.953 80.4611 346.62 80.4611 346.24ZM85.8884 343.4C86.3217 343.4 86.7084 343.49 87.0484 343.67C87.3951 343.85 87.6651 344.117 87.8584 344.47C88.0517 344.823 88.1484 345.25 88.1484 345.75V349H87.0184V345.92C87.0184 345.427 86.8951 345.05 86.6484 344.79C86.4017 344.523 86.0651 344.39 85.6384 344.39C85.2117 344.39 84.8717 344.523 84.6184 344.79C84.3717 345.05 84.2484 345.427 84.2484 345.92V349H83.1084V343.49H84.2484V344.12C84.4351 343.893 84.6717 343.717 84.9584 343.59C85.2517 343.463 85.5617 343.4 85.8884 343.4ZM91.7825 346.25L94.3225 349H92.7825L90.7425 346.63V349H89.6025V341.6H90.7425V345.9L92.7425 343.49H94.3225L91.7825 346.25ZM97.1396 349.09C96.7063 349.09 96.3163 349.013 95.9696 348.86C95.6296 348.7 95.3596 348.487 95.1596 348.22C94.9596 347.947 94.853 347.643 94.8396 347.31H96.0196C96.0396 347.543 96.1496 347.74 96.3496 347.9C96.5563 348.053 96.813 348.13 97.1196 348.13C97.4396 348.13 97.6863 348.07 97.8596 347.95C98.0396 347.823 98.1296 347.663 98.1296 347.47C98.1296 347.263 98.0296 347.11 97.8296 347.01C97.6363 346.91 97.3263 346.8 96.8996 346.68C96.4863 346.567 96.1496 346.457 95.8896 346.35C95.6296 346.243 95.403 346.08 95.2096 345.86C95.023 345.64 94.9296 345.35 94.9296 344.99C94.9296 344.697 95.0163 344.43 95.1896 344.19C95.363 343.943 95.6096 343.75 95.9296 343.61C96.2563 343.47 96.6296 343.4 97.0496 343.4C97.6763 343.4 98.1796 343.56 98.5596 343.88C98.9463 344.193 99.153 344.623 99.1796 345.17H98.0396C98.0196 344.923 97.9196 344.727 97.7396 344.58C97.5596 344.433 97.3163 344.36 97.0096 344.36C96.7096 344.36 96.4796 344.417 96.3196 344.53C96.1596 344.643 96.0796 344.793 96.0796 344.98C96.0796 345.127 96.133 345.25 96.2396 345.35C96.3463 345.45 96.4763 345.53 96.6296 345.59C96.783 345.643 97.0096 345.713 97.3096 345.8C97.7096 345.907 98.0363 346.017 98.2896 346.13C98.5496 346.237 98.773 346.397 98.9596 346.61C99.1463 346.823 99.243 347.107 99.2496 347.46C99.2496 347.773 99.163 348.053 98.9896 348.3C98.8163 348.547 98.5696 348.74 98.2496 348.88C97.9363 349.02 97.5663 349.09 97.1396 349.09ZM101.911 342.05L101.781 346.9H100.831L100.701 342.05H101.911ZM101.341 349.07C101.135 349.07 100.961 349 100.821 348.86C100.681 348.72 100.611 348.547 100.611 348.34C100.611 348.133 100.681 347.96 100.821 347.82C100.961 347.68 101.135 347.61 101.341 347.61C101.541 347.61 101.711 347.68 101.851 347.82C101.991 347.96 102.061 348.133 102.061 348.34C102.061 348.547 101.991 348.72 101.851 348.86C101.711 349 101.541 349.07 101.341 349.07Z" fill="#808080"/>
</g>
<defs>
<clipPath id="clip0_207_47">
<rect width="480" height="360" fill="white"/>
</clipPath>
</defs>
</svg>
