<svg xmlns="http://www.w3.org/2000/svg" fill="none" viewBox="0 0 480 360" height="360" width="480">
<path fill="white" d="M130.399 330.66V336.672C130.399 337.416 130.171 338.004 129.715 338.436C129.267 338.868 128.675 339.084 127.939 339.084C127.203 339.084 126.607 338.868 126.151 338.436C125.703 338.004 125.479 337.416 125.479 336.672H126.859C126.867 337.04 126.959 337.332 127.135 337.548C127.319 337.764 127.587 337.872 127.939 337.872C128.291 337.872 128.559 337.764 128.743 337.548C128.927 337.324 129.019 337.032 129.019 336.672V330.66H130.399ZM133.993 330.12V339H132.625V330.12H133.993ZM138.657 339.108C138.033 339.108 137.469 338.968 136.965 338.688C136.461 338.4 136.065 338 135.777 337.488C135.489 336.968 135.345 336.368 135.345 335.688C135.345 335.016 135.493 334.42 135.789 333.9C136.085 333.38 136.489 332.98 137.001 332.7C137.513 332.42 138.085 332.28 138.717 332.28C139.349 332.28 139.921 332.42 140.433 332.7C140.945 332.98 141.349 333.38 141.645 333.9C141.941 334.42 142.089 335.016 142.089 335.688C142.089 336.36 141.937 336.956 141.633 337.476C141.329 337.996 140.913 338.4 140.385 338.688C139.865 338.968 139.289 339.108 138.657 339.108ZM138.657 337.92C139.009 337.92 139.337 337.836 139.641 337.668C139.953 337.5 140.205 337.248 140.397 336.912C140.589 336.576 140.685 336.168 140.685 335.688C140.685 335.208 140.593 334.804 140.409 334.476C140.225 334.14 139.981 333.888 139.677 333.72C139.373 333.552 139.045 333.468 138.693 333.468C138.341 333.468 138.013 333.552 137.709 333.72C137.413 333.888 137.177 334.14 137.001 334.476C136.825 334.804 136.737 335.208 136.737 335.688C136.737 336.4 136.917 336.952 137.277 337.344C137.645 337.728 138.105 337.92 138.657 337.92ZM148.469 337.296H144.977L144.377 339H142.949L145.937 330.648H147.521L150.509 339H149.069L148.469 337.296ZM148.085 336.18L146.729 332.304L145.361 336.18H148.085ZM157.796 332.388V339H156.428V338.22C156.212 338.492 155.928 338.708 155.576 338.868C155.232 339.02 154.864 339.096 154.472 339.096C153.952 339.096 153.484 338.988 153.068 338.772C152.66 338.556 152.336 338.236 152.096 337.812C151.864 337.388 151.748 336.876 151.748 336.276V332.388H153.104V336.072C153.104 336.664 153.252 337.12 153.548 337.44C153.844 337.752 154.248 337.908 154.76 337.908C155.272 337.908 155.676 337.752 155.972 337.44C156.276 337.12 156.428 336.664 156.428 336.072V332.388H157.796ZM163.414 331.512C163.166 331.512 162.958 331.428 162.79 331.26C162.622 331.092 162.538 330.884 162.538 330.636C162.538 330.388 162.622 330.18 162.79 330.012C162.958 329.844 163.166 329.76 163.414 329.76C163.654 329.76 163.858 329.844 164.026 330.012C164.194 330.18 164.278 330.388 164.278 330.636C164.278 330.884 164.194 331.092 164.026 331.26C163.858 331.428 163.654 331.512 163.414 331.512ZM164.086 332.388V339H162.718V332.388H164.086ZM168.282 339.108C167.762 339.108 167.294 339.016 166.878 338.832C166.47 338.64 166.146 338.384 165.906 338.064C165.666 337.736 165.538 337.372 165.522 336.972H166.938C166.962 337.252 167.094 337.488 167.334 337.68C167.582 337.864 167.89 337.956 168.258 337.956C168.642 337.956 168.938 337.884 169.146 337.74C169.362 337.588 169.47 337.396 169.47 337.164C169.47 336.916 169.35 336.732 169.11 336.612C168.878 336.492 168.506 336.36 167.994 336.216C167.498 336.08 167.094 335.948 166.782 335.82C166.47 335.692 166.198 335.496 165.966 335.232C165.742 334.968 165.63 334.62 165.63 334.188C165.63 333.836 165.734 333.516 165.942 333.228C166.15 332.932 166.446 332.7 166.83 332.532C167.222 332.364 167.67 332.28 168.174 332.28C168.926 332.28 169.53 332.472 169.986 332.856C170.45 333.232 170.698 333.748 170.73 334.404H169.362C169.338 334.108 169.218 333.872 169.002 333.696C168.786 333.52 168.494 333.432 168.126 333.432C167.766 333.432 167.49 333.5 167.298 333.636C167.106 333.772 167.01 333.952 167.01 334.176C167.01 334.352 167.074 334.5 167.202 334.62C167.33 334.74 167.486 334.836 167.67 334.908C167.854 334.972 168.126 335.056 168.486 335.16C168.966 335.288 169.358 335.42 169.662 335.556C169.974 335.684 170.242 335.876 170.466 336.132C170.69 336.388 170.806 336.728 170.814 337.152C170.814 337.528 170.71 337.864 170.502 338.16C170.294 338.456 169.998 338.688 169.614 338.856C169.238 339.024 168.794 339.108 168.282 339.108ZM174.954 335.688C174.954 335.008 175.09 334.412 175.362 333.9C175.642 333.38 176.026 332.98 176.514 332.7C177.002 332.42 177.562 332.28 178.194 332.28C178.994 332.28 179.654 332.472 180.174 332.856C180.702 333.232 181.058 333.772 181.242 334.476H179.766C179.646 334.148 179.454 333.892 179.19 333.708C178.926 333.524 178.594 333.432 178.194 333.432C177.634 333.432 177.186 333.632 176.85 334.032C176.522 334.424 176.358 334.976 176.358 335.688C176.358 336.4 176.522 336.956 176.85 337.356C177.186 337.756 177.634 337.956 178.194 337.956C178.986 337.956 179.51 337.608 179.766 336.912H181.242C181.05 337.584 180.69 338.12 180.162 338.52C179.634 338.912 178.978 339.108 178.194 339.108C177.562 339.108 177.002 338.968 176.514 338.688C176.026 338.4 175.642 338 175.362 337.488C175.09 336.968 174.954 336.368 174.954 335.688ZM188.593 332.388V339H187.225V338.22C187.009 338.492 186.725 338.708 186.373 338.868C186.029 339.02 185.661 339.096 185.269 339.096C184.749 339.096 184.281 338.988 183.865 338.772C183.457 338.556 183.133 338.236 182.893 337.812C182.661 337.388 182.545 336.876 182.545 336.276V332.388H183.901V336.072C183.901 336.664 184.049 337.12 184.345 337.44C184.641 337.752 185.045 337.908 185.557 337.908C186.069 337.908 186.473 337.752 186.769 337.44C187.073 337.12 187.225 336.664 187.225 336.072V332.388H188.593ZM191.766 333.348C191.966 333.012 192.23 332.752 192.558 332.568C192.894 332.376 193.29 332.28 193.746 332.28V333.696H193.398C192.862 333.696 192.454 333.832 192.174 334.104C191.902 334.376 191.766 334.848 191.766 335.52V339H190.398V332.388H191.766V333.348ZM196.372 333.348C196.572 333.012 196.836 332.752 197.164 332.568C197.5 332.376 197.896 332.28 198.352 332.28V333.696H198.004C197.468 333.696 197.06 333.832 196.78 334.104C196.508 334.376 196.372 334.848 196.372 335.52V339H195.004V332.388H196.372V333.348ZM205.669 335.532C205.669 335.78 205.653 336.004 205.621 336.204H200.569C200.609 336.732 200.805 337.156 201.157 337.476C201.509 337.796 201.941 337.956 202.453 337.956C203.189 337.956 203.709 337.648 204.013 337.032H205.489C205.289 337.64 204.925 338.14 204.397 338.532C203.877 338.916 203.229 339.108 202.453 339.108C201.821 339.108 201.253 338.968 200.749 338.688C200.253 338.4 199.861 338 199.573 337.488C199.293 336.968 199.153 336.368 199.153 335.688C199.153 335.008 199.289 334.412 199.561 333.9C199.841 333.38 200.229 332.98 200.725 332.7C201.229 332.42 201.805 332.28 202.453 332.28C203.077 332.28 203.633 332.416 204.121 332.688C204.609 332.96 204.989 333.344 205.261 333.84C205.533 334.328 205.669 334.892 205.669 335.532ZM204.241 335.1C204.233 334.596 204.053 334.192 203.701 333.888C203.349 333.584 202.913 333.432 202.393 333.432C201.921 333.432 201.517 333.584 201.181 333.888C200.845 334.184 200.645 334.588 200.581 335.1H204.241ZM210.351 332.28C210.871 332.28 211.335 332.388 211.743 332.604C212.159 332.82 212.483 333.14 212.715 333.564C212.947 333.988 213.063 334.5 213.063 335.1V339H211.707V335.304C211.707 334.712 211.559 334.26 211.263 333.948C210.967 333.628 210.563 333.468 210.051 333.468C209.539 333.468 209.131 333.628 208.827 333.948C208.531 334.26 208.383 334.712 208.383 335.304V339H207.015V332.388H208.383V333.144C208.607 332.872 208.891 332.66 209.235 332.508C209.587 332.356 209.959 332.28 210.351 332.28ZM216.404 333.504V337.164C216.404 337.412 216.46 337.592 216.572 337.704C216.692 337.808 216.892 337.86 217.172 337.86H218.012V339H216.932C216.316 339 215.844 338.856 215.516 338.568C215.188 338.28 215.024 337.812 215.024 337.164V333.504H214.244V332.388H215.024V330.744H216.404V332.388H218.012V333.504H216.404ZM220.641 330.12V339H219.273V330.12H220.641ZM228.389 332.388L224.333 342.108H222.917L224.261 338.892L221.657 332.388H223.181L225.041 337.428L226.973 332.388H228.389ZM238.527 332.388V339H237.159V338.22C236.943 338.492 236.659 338.708 236.307 338.868C235.963 339.02 235.595 339.096 235.203 339.096C234.683 339.096 234.215 338.988 233.799 338.772C233.391 338.556 233.067 338.236 232.827 337.812C232.595 337.388 232.479 336.876 232.479 336.276V332.388H233.835V336.072C233.835 336.664 233.983 337.12 234.279 337.44C234.575 337.752 234.979 337.908 235.491 337.908C236.003 337.908 236.407 337.752 236.703 337.44C237.007 337.12 237.159 336.664 237.159 336.072V332.388H238.527ZM242.732 339.108C242.212 339.108 241.744 339.016 241.328 338.832C240.92 338.64 240.596 338.384 240.356 338.064C240.116 337.736 239.988 337.372 239.972 336.972H241.388C241.412 337.252 241.544 337.488 241.784 337.68C242.032 337.864 242.34 337.956 242.708 337.956C243.092 337.956 243.388 337.884 243.596 337.74C243.812 337.588 243.92 337.396 243.92 337.164C243.92 336.916 243.8 336.732 243.56 336.612C243.328 336.492 242.956 336.36 242.444 336.216C241.948 336.08 241.544 335.948 241.232 335.82C240.92 335.692 240.648 335.496 240.416 335.232C240.192 334.968 240.08 334.62 240.08 334.188C240.08 333.836 240.184 333.516 240.392 333.228C240.6 332.932 240.896 332.7 241.28 332.532C241.672 332.364 242.12 332.28 242.624 332.28C243.376 332.28 243.98 332.472 244.436 332.856C244.9 333.232 245.148 333.748 245.18 334.404H243.812C243.788 334.108 243.668 333.872 243.452 333.696C243.236 333.52 242.944 333.432 242.576 333.432C242.216 333.432 241.94 333.5 241.748 333.636C241.556 333.772 241.46 333.952 241.46 334.176C241.46 334.352 241.524 334.5 241.652 334.62C241.78 334.74 241.936 334.836 242.12 334.908C242.304 334.972 242.576 335.056 242.936 335.16C243.416 335.288 243.808 335.42 244.112 335.556C244.424 335.684 244.692 335.876 244.916 336.132C245.14 336.388 245.256 336.728 245.264 337.152C245.264 337.528 245.16 337.864 244.952 338.16C244.744 338.456 244.448 338.688 244.064 338.856C243.688 339.024 243.244 339.108 242.732 339.108ZM247.438 331.512C247.19 331.512 246.982 331.428 246.814 331.26C246.646 331.092 246.562 330.884 246.562 330.636C246.562 330.388 246.646 330.18 246.814 330.012C246.982 329.844 247.19 329.76 247.438 329.76C247.678 329.76 247.882 329.844 248.05 330.012C248.218 330.18 248.302 330.388 248.302 330.636C248.302 330.884 248.218 331.092 248.05 331.26C247.882 331.428 247.678 331.512 247.438 331.512ZM248.11 332.388V339H246.742V332.388H248.11ZM253.242 332.28C253.762 332.28 254.226 332.388 254.634 332.604C255.05 332.82 255.374 333.14 255.606 333.564C255.838 333.988 255.954 334.5 255.954 335.1V339H254.598V335.304C254.598 334.712 254.45 334.26 254.154 333.948C253.858 333.628 253.454 333.468 252.942 333.468C252.43 333.468 252.022 333.628 251.718 333.948C251.422 334.26 251.274 334.712 251.274 335.304V339H249.906V332.388H251.274V333.144C251.498 332.872 251.782 332.66 252.126 332.508C252.478 332.356 252.85 332.28 253.242 332.28ZM260.363 332.28C260.875 332.28 261.327 332.384 261.719 332.592C262.119 332.792 262.431 333.044 262.655 333.348V332.388H264.035V339.108C264.035 339.716 263.907 340.256 263.651 340.728C263.395 341.208 263.023 341.584 262.535 341.856C262.055 342.128 261.479 342.264 260.807 342.264C259.911 342.264 259.167 342.052 258.575 341.628C257.983 341.212 257.647 340.644 257.567 339.924H258.923C259.027 340.268 259.247 340.544 259.583 340.752C259.927 340.968 260.335 341.076 260.807 341.076C261.359 341.076 261.803 340.908 262.139 340.572C262.483 340.236 262.655 339.748 262.655 339.108V338.004C262.423 338.316 262.107 338.58 261.707 338.796C261.315 339.004 260.867 339.108 260.363 339.108C259.787 339.108 259.259 338.964 258.779 338.676C258.307 338.38 257.931 337.972 257.651 337.452C257.379 336.924 257.243 336.328 257.243 335.664C257.243 335 257.379 334.412 257.651 333.9C257.931 333.388 258.307 332.992 258.779 332.712C259.259 332.424 259.787 332.28 260.363 332.28ZM262.655 335.688C262.655 335.232 262.559 334.836 262.367 334.5C262.183 334.164 261.939 333.908 261.635 333.732C261.331 333.556 261.003 333.468 260.651 333.468C260.299 333.468 259.971 333.556 259.667 333.732C259.363 333.9 259.115 334.152 258.923 334.488C258.739 334.816 258.647 335.208 258.647 335.664C258.647 336.12 258.739 336.52 258.923 336.864C259.115 337.208 259.363 337.472 259.667 337.656C259.979 337.832 260.307 337.92 260.651 337.92C261.003 337.92 261.331 337.832 261.635 337.656C261.939 337.48 262.183 337.224 262.367 336.888C262.559 336.544 262.655 336.144 262.655 335.688ZM271.697 339.084C271.137 339.084 270.633 338.988 270.185 338.796C269.737 338.596 269.385 338.316 269.129 337.956C268.873 337.596 268.745 337.176 268.745 336.696H270.209C270.241 337.056 270.381 337.352 270.629 337.584C270.885 337.816 271.241 337.932 271.697 337.932C272.169 337.932 272.537 337.82 272.801 337.596C273.065 337.364 273.197 337.068 273.197 336.708C273.197 336.428 273.113 336.2 272.945 336.024C272.785 335.848 272.581 335.712 272.333 335.616C272.093 335.52 271.757 335.416 271.325 335.304C270.781 335.16 270.337 335.016 269.993 334.872C269.657 334.72 269.369 334.488 269.129 334.176C268.889 333.864 268.769 333.448 268.769 332.928C268.769 332.448 268.889 332.028 269.129 331.668C269.369 331.308 269.705 331.032 270.137 330.84C270.569 330.648 271.069 330.552 271.637 330.552C272.445 330.552 273.105 330.756 273.617 331.164C274.137 331.564 274.425 332.116 274.481 332.82H272.969C272.945 332.516 272.801 332.256 272.537 332.04C272.273 331.824 271.925 331.716 271.493 331.716C271.101 331.716 270.781 331.816 270.533 332.016C270.285 332.216 270.161 332.504 270.161 332.88C270.161 333.136 270.237 333.348 270.389 333.516C270.549 333.676 270.749 333.804 270.989 333.9C271.229 333.996 271.557 334.1 271.973 334.212C272.525 334.364 272.973 334.516 273.317 334.668C273.669 334.82 273.965 335.056 274.205 335.376C274.453 335.688 274.577 336.108 274.577 336.636C274.577 337.06 274.461 337.46 274.229 337.836C274.005 338.212 273.673 338.516 273.233 338.748C272.801 338.972 272.289 339.084 271.697 339.084ZM275.735 335.688C275.735 335.008 275.871 334.412 276.143 333.9C276.423 333.38 276.807 332.98 277.295 332.7C277.783 332.42 278.343 332.28 278.975 332.28C279.775 332.28 280.435 332.472 280.955 332.856C281.483 333.232 281.839 333.772 282.023 334.476H280.547C280.427 334.148 280.235 333.892 279.971 333.708C279.707 333.524 279.375 333.432 278.975 333.432C278.415 333.432 277.967 333.632 277.631 334.032C277.303 334.424 277.139 334.976 277.139 335.688C277.139 336.4 277.303 336.956 277.631 337.356C277.967 337.756 278.415 337.956 278.975 337.956C279.767 337.956 280.291 337.608 280.547 336.912H282.023C281.831 337.584 281.471 338.12 280.943 338.52C280.415 338.912 279.759 339.108 278.975 339.108C278.343 339.108 277.783 338.968 277.295 338.688C276.807 338.4 276.423 338 276.143 337.488C275.871 336.968 275.735 336.368 275.735 335.688ZM284.754 333.348C284.954 333.012 285.218 332.752 285.546 332.568C285.882 332.376 286.278 332.28 286.734 332.28V333.696H286.386C285.85 333.696 285.442 333.832 285.162 334.104C284.89 334.376 284.754 334.848 284.754 335.52V339H283.386V332.388H284.754V333.348ZM287.536 335.664C287.536 335 287.672 334.412 287.944 333.9C288.224 333.388 288.6 332.992 289.072 332.712C289.552 332.424 290.08 332.28 290.656 332.28C291.176 332.28 291.628 332.384 292.012 332.592C292.404 332.792 292.716 333.044 292.948 333.348V332.388H294.328V339H292.948V338.016C292.716 338.328 292.4 338.588 292 338.796C291.6 339.004 291.144 339.108 290.632 339.108C290.064 339.108 289.544 338.964 289.072 338.676C288.6 338.38 288.224 337.972 287.944 337.452C287.672 336.924 287.536 336.328 287.536 335.664ZM292.948 335.688C292.948 335.232 292.852 334.836 292.66 334.5C292.476 334.164 292.232 333.908 291.928 333.732C291.624 333.556 291.296 333.468 290.944 333.468C290.592 333.468 290.264 333.556 289.96 333.732C289.656 333.9 289.408 334.152 289.216 334.488C289.032 334.816 288.94 335.208 288.94 335.664C288.94 336.12 289.032 336.52 289.216 336.864C289.408 337.208 289.656 337.472 289.96 337.656C290.272 337.832 290.6 337.92 290.944 337.92C291.296 337.92 291.624 337.832 291.928 337.656C292.232 337.48 292.476 337.224 292.66 336.888C292.852 336.544 292.948 336.144 292.948 335.688ZM297.721 333.504V337.164C297.721 337.412 297.777 337.592 297.889 337.704C298.009 337.808 298.209 337.86 298.489 337.86H299.329V339H298.249C297.633 339 297.161 338.856 296.833 338.568C296.505 338.28 296.341 337.812 296.341 337.164V333.504H295.561V332.388H296.341V330.744H297.721V332.388H299.329V333.504H297.721ZM300.133 335.688C300.133 335.008 300.269 334.412 300.541 333.9C300.821 333.38 301.205 332.98 301.693 332.7C302.181 332.42 302.741 332.28 303.373 332.28C304.173 332.28 304.833 332.472 305.353 332.856C305.881 333.232 306.237 333.772 306.421 334.476H304.945C304.825 334.148 304.633 333.892 304.369 333.708C304.105 333.524 303.773 333.432 303.373 333.432C302.813 333.432 302.365 333.632 302.029 334.032C301.701 334.424 301.537 334.976 301.537 335.688C301.537 336.4 301.701 336.956 302.029 337.356C302.365 337.756 302.813 337.956 303.373 337.956C304.165 337.956 304.689 337.608 304.945 336.912H306.421C306.229 337.584 305.869 338.12 305.341 338.52C304.813 338.912 304.157 339.108 303.373 339.108C302.741 339.108 302.181 338.968 301.693 338.688C301.205 338.4 300.821 338 300.541 337.488C300.269 336.968 300.133 336.368 300.133 335.688ZM311.205 332.28C311.709 332.28 312.157 332.388 312.549 332.604C312.949 332.82 313.261 333.14 313.485 333.564C313.717 333.988 313.833 334.5 313.833 335.1V339H312.477V335.304C312.477 334.712 312.329 334.26 312.033 333.948C311.737 333.628 311.333 333.468 310.821 333.468C310.309 333.468 309.901 333.628 309.597 333.948C309.301 334.26 309.153 334.712 309.153 335.304V339H307.785V330.12H309.153V333.156C309.385 332.876 309.677 332.66 310.029 332.508C310.389 332.356 310.781 332.28 311.205 332.28ZM319.382 339.084C318.606 339.084 317.89 338.904 317.234 338.544C316.586 338.176 316.07 337.668 315.686 337.02C315.31 336.364 315.122 335.628 315.122 334.812C315.122 333.996 315.31 333.264 315.686 332.616C316.07 331.968 316.586 331.464 317.234 331.104C317.89 330.736 318.606 330.552 319.382 330.552C320.166 330.552 320.882 330.736 321.53 331.104C322.186 331.464 322.702 331.968 323.078 332.616C323.454 333.264 323.642 333.996 323.642 334.812C323.642 335.628 323.454 336.364 323.078 337.02C322.702 337.668 322.186 338.176 321.53 338.544C320.882 338.904 320.166 339.084 319.382 339.084ZM319.382 337.896C319.934 337.896 320.426 337.772 320.858 337.524C321.29 337.268 321.626 336.908 321.866 336.444C322.114 335.972 322.238 335.428 322.238 334.812C322.238 334.196 322.114 333.656 321.866 333.192C321.626 332.728 321.29 332.372 320.858 332.124C320.426 331.876 319.934 331.752 319.382 331.752C318.83 331.752 318.338 331.876 317.906 332.124C317.474 332.372 317.134 332.728 316.886 333.192C316.646 333.656 316.526 334.196 316.526 334.812C316.526 335.428 316.646 335.972 316.886 336.444C317.134 336.908 317.474 337.268 317.906 337.524C318.338 337.772 318.83 337.896 319.382 337.896ZM327.736 339.084C327.176 339.084 326.672 338.988 326.224 338.796C325.776 338.596 325.424 338.316 325.168 337.956C324.912 337.596 324.784 337.176 324.784 336.696H326.248C326.28 337.056 326.42 337.352 326.668 337.584C326.924 337.816 327.28 337.932 327.736 337.932C328.208 337.932 328.576 337.82 328.84 337.596C329.104 337.364 329.236 337.068 329.236 336.708C329.236 336.428 329.152 336.2 328.984 336.024C328.824 335.848 328.62 335.712 328.372 335.616C328.132 335.52 327.796 335.416 327.364 335.304C326.82 335.16 326.376 335.016 326.032 334.872C325.696 334.72 325.408 334.488 325.168 334.176C324.928 333.864 324.808 333.448 324.808 332.928C324.808 332.448 324.928 332.028 325.168 331.668C325.408 331.308 325.744 331.032 326.176 330.84C326.608 330.648 327.108 330.552 327.676 330.552C328.484 330.552 329.144 330.756 329.656 331.164C330.176 331.564 330.464 332.116 330.52 332.82H329.008C328.984 332.516 328.84 332.256 328.576 332.04C328.312 331.824 327.964 331.716 327.532 331.716C327.14 331.716 326.82 331.816 326.572 332.016C326.324 332.216 326.2 332.504 326.2 332.88C326.2 333.136 326.276 333.348 326.428 333.516C326.588 333.676 326.788 333.804 327.028 333.9C327.268 333.996 327.596 334.1 328.012 334.212C328.564 334.364 329.012 334.516 329.356 334.668C329.708 334.82 330.004 335.056 330.244 335.376C330.492 335.688 330.616 336.108 330.616 336.636C330.616 337.06 330.5 337.46 330.268 337.836C330.044 338.212 329.712 338.516 329.272 338.748C328.84 338.972 328.328 339.084 327.736 339.084ZM335.143 332.412C335.191 331.668 335.475 331.088 335.995 330.672C336.523 330.256 337.195 330.048 338.011 330.048C338.571 330.048 339.055 330.148 339.463 330.348C339.871 330.548 340.179 330.82 340.387 331.164C340.595 331.508 340.699 331.896 340.699 332.328C340.699 332.824 340.567 333.248 340.303 333.6C340.039 333.952 339.723 334.188 339.355 334.308V334.356C339.827 334.5 340.195 334.764 340.459 335.148C340.723 335.524 340.855 336.008 340.855 336.6C340.855 337.072 340.747 337.492 340.531 337.86C340.315 338.228 339.995 338.52 339.571 338.736C339.147 338.944 338.639 339.048 338.047 339.048C337.183 339.048 336.471 338.828 335.911 338.388C335.359 337.94 335.063 337.3 335.023 336.468H336.343C336.375 336.892 336.539 337.24 336.835 337.512C337.131 337.776 337.531 337.908 338.035 337.908C338.523 337.908 338.899 337.776 339.163 337.512C339.427 337.24 339.559 336.892 339.559 336.468C339.559 335.908 339.379 335.512 339.019 335.28C338.667 335.04 338.123 334.92 337.387 334.92H337.075V333.792H337.399C338.047 333.784 338.539 333.676 338.875 333.468C339.219 333.26 339.391 332.932 339.391 332.484C339.391 332.1 339.267 331.796 339.019 331.572C338.771 331.34 338.419 331.224 337.963 331.224C337.515 331.224 337.167 331.34 336.919 331.572C336.671 331.796 336.523 332.076 336.475 332.412H335.143ZM343.024 339.084C342.776 339.084 342.568 339 342.4 338.832C342.232 338.664 342.148 338.456 342.148 338.208C342.148 337.96 342.232 337.752 342.4 337.584C342.568 337.416 342.776 337.332 343.024 337.332C343.264 337.332 343.468 337.416 343.636 337.584C343.804 337.752 343.888 337.96 343.888 338.208C343.888 338.456 343.804 338.664 343.636 338.832C343.468 339 343.264 339.084 343.024 339.084ZM345.187 334.512C345.187 333.128 345.419 332.048 345.883 331.272C346.355 330.488 347.163 330.096 348.307 330.096C349.451 330.096 350.255 330.488 350.719 331.272C351.191 332.048 351.427 333.128 351.427 334.512C351.427 335.912 351.191 337.008 350.719 337.8C350.255 338.584 349.451 338.976 348.307 338.976C347.163 338.976 346.355 338.584 345.883 337.8C345.419 337.008 345.187 335.912 345.187 334.512ZM350.083 334.512C350.083 333.864 350.039 333.316 349.951 332.868C349.871 332.42 349.703 332.056 349.447 331.776C349.191 331.488 348.811 331.344 348.307 331.344C347.803 331.344 347.423 331.488 347.167 331.776C346.911 332.056 346.739 332.42 346.651 332.868C346.571 333.316 346.531 333.864 346.531 334.512C346.531 335.184 346.571 335.748 346.651 336.204C346.731 336.66 346.899 337.028 347.155 337.308C347.419 337.588 347.803 337.728 348.307 337.728C348.811 337.728 349.191 337.588 349.447 337.308C349.711 337.028 349.883 336.66 349.963 336.204C350.043 335.748 350.083 335.184 350.083 334.512ZM353.606 339.084C353.358 339.084 353.15 339 352.982 338.832C352.814 338.664 352.73 338.456 352.73 338.208C352.73 337.96 352.814 337.752 352.982 337.584C353.15 337.416 353.358 337.332 353.606 337.332C353.846 337.332 354.05 337.416 354.218 337.584C354.386 337.752 354.47 337.96 354.47 338.208C354.47 338.456 354.386 338.664 354.218 338.832C354.05 339 353.846 339.084 353.606 339.084Z"></path>
<path fill="white" d="M185.52 31.112C184.774 31.112 184.102 30.984 183.504 30.728C182.907 30.4613 182.438 30.088 182.096 29.608C181.755 29.128 181.584 28.568 181.584 27.928H183.536C183.579 28.408 183.766 28.8027 184.096 29.112C184.438 29.4213 184.912 29.576 185.52 29.576C186.15 29.576 186.64 29.4267 186.992 29.128C187.344 28.8187 187.52 28.424 187.52 27.944C187.52 27.5707 187.408 27.2667 187.184 27.032C186.971 26.7973 186.699 26.616 186.368 26.488C186.048 26.36 185.6 26.2213 185.024 26.072C184.299 25.88 183.707 25.688 183.248 25.496C182.8 25.2933 182.416 24.984 182.096 24.568C181.776 24.152 181.616 23.5973 181.616 22.904C181.616 22.264 181.776 21.704 182.096 21.224C182.416 20.744 182.864 20.376 183.44 20.12C184.016 19.864 184.683 19.736 185.44 19.736C186.518 19.736 187.398 20.008 188.08 20.552C188.774 21.0853 189.158 21.8213 189.232 22.76H187.216C187.184 22.3547 186.992 22.008 186.64 21.72C186.288 21.432 185.824 21.288 185.248 21.288C184.726 21.288 184.299 21.4213 183.968 21.688C183.638 21.9547 183.472 22.3387 183.472 22.84C183.472 23.1813 183.574 23.464 183.776 23.688C183.99 23.9013 184.256 24.072 184.576 24.2C184.896 24.328 185.334 24.4667 185.888 24.616C186.624 24.8187 187.222 25.0213 187.68 25.224C188.15 25.4267 188.544 25.7413 188.864 26.168C189.195 26.584 189.36 27.144 189.36 27.848C189.36 28.4133 189.206 28.9467 188.896 29.448C188.598 29.9493 188.155 30.3547 187.568 30.664C186.992 30.9627 186.31 31.112 185.52 31.112ZM193.641 23.672V28.552C193.641 28.8827 193.715 29.1227 193.865 29.272C194.025 29.4107 194.291 29.48 194.665 29.48H195.785V31H194.345C193.523 31 192.894 30.808 192.457 30.424C192.019 30.04 191.801 29.416 191.801 28.552V23.672H190.761V22.184H191.801V19.992H193.641V22.184H195.785V23.672H193.641ZM196.858 26.552C196.858 25.6667 197.039 24.8827 197.402 24.2C197.775 23.5173 198.276 22.9893 198.906 22.616C199.546 22.232 200.25 22.04 201.018 22.04C201.711 22.04 202.314 22.1787 202.826 22.456C203.348 22.7227 203.764 23.0587 204.074 23.464V22.184H205.914V31H204.074V29.688C203.764 30.104 203.343 30.4507 202.81 30.728C202.276 31.0053 201.668 31.144 200.986 31.144C200.228 31.144 199.535 30.952 198.906 30.568C198.276 30.1733 197.775 29.6293 197.402 28.936C197.039 28.232 196.858 27.4373 196.858 26.552ZM204.074 26.584C204.074 25.976 203.946 25.448 203.69 25C203.444 24.552 203.119 24.2107 202.714 23.976C202.308 23.7413 201.871 23.624 201.402 23.624C200.932 23.624 200.495 23.7413 200.09 23.976C199.684 24.2 199.354 24.536 199.098 24.984C198.852 25.4213 198.73 25.944 198.73 26.552C198.73 27.16 198.852 27.6933 199.098 28.152C199.354 28.6107 199.684 28.9627 200.09 29.208C200.506 29.4427 200.943 29.56 201.402 29.56C201.871 29.56 202.308 29.4427 202.714 29.208C203.119 28.9733 203.444 28.632 203.69 28.184C203.946 27.7253 204.074 27.192 204.074 26.584ZM210.437 23.672V28.552C210.437 28.8827 210.512 29.1227 210.661 29.272C210.821 29.4107 211.088 29.48 211.461 29.48H212.581V31H211.141C210.32 31 209.691 30.808 209.253 30.424C208.816 30.04 208.597 29.416 208.597 28.552V23.672H207.557V22.184H208.597V19.992H210.437V22.184H212.581V23.672H210.437ZM222.247 22.184V31H220.423V29.96C220.135 30.3227 219.756 30.6107 219.287 30.824C218.828 31.0267 218.337 31.128 217.815 31.128C217.121 31.128 216.497 30.984 215.943 30.696C215.399 30.408 214.967 29.9813 214.647 29.416C214.337 28.8507 214.183 28.168 214.183 27.368V22.184H215.991V27.096C215.991 27.8853 216.188 28.4933 216.583 28.92C216.977 29.336 217.516 29.544 218.199 29.544C218.881 29.544 219.42 29.336 219.815 28.92C220.22 28.4933 220.423 27.8853 220.423 27.096V22.184H222.247ZM227.853 31.144C227.16 31.144 226.536 31.0213 225.981 30.776C225.437 30.52 225.005 30.1787 224.685 29.752C224.365 29.3147 224.194 28.8293 224.173 28.296H226.061C226.093 28.6693 226.269 28.984 226.589 29.24C226.92 29.4853 227.33 29.608 227.821 29.608C228.333 29.608 228.728 29.512 229.005 29.32C229.293 29.1173 229.437 28.8613 229.437 28.552C229.437 28.2213 229.277 27.976 228.957 27.816C228.648 27.656 228.152 27.48 227.469 27.288C226.808 27.1067 226.269 26.9307 225.853 26.76C225.437 26.5893 225.074 26.328 224.765 25.976C224.466 25.624 224.317 25.16 224.317 24.584C224.317 24.1147 224.456 23.688 224.733 23.304C225.01 22.9093 225.405 22.6 225.917 22.376C226.44 22.152 227.037 22.04 227.709 22.04C228.712 22.04 229.517 22.296 230.125 22.808C230.744 23.3093 231.074 23.9973 231.117 24.872H229.293C229.261 24.4773 229.101 24.1627 228.813 23.928C228.525 23.6933 228.136 23.576 227.645 23.576C227.165 23.576 226.797 23.6667 226.541 23.848C226.285 24.0293 226.157 24.2693 226.157 24.568C226.157 24.8027 226.242 25 226.413 25.16C226.584 25.32 226.792 25.448 227.037 25.544C227.282 25.6293 227.645 25.7413 228.125 25.88C228.765 26.0507 229.288 26.2267 229.693 26.408C230.109 26.5787 230.466 26.8347 230.765 27.176C231.064 27.5173 231.218 27.9707 231.229 28.536C231.229 29.0373 231.09 29.4853 230.813 29.88C230.536 30.2747 230.141 30.584 229.629 30.808C229.128 31.032 228.536 31.144 227.853 31.144ZM239.836 27.752C239.452 27.752 239.1 27.6613 238.78 27.48C238.471 27.288 238.22 27.0373 238.028 26.728C237.847 26.408 237.756 26.056 237.756 25.672C237.756 25.0853 237.959 24.5893 238.364 24.184C238.77 23.7787 239.26 23.576 239.836 23.576C240.434 23.576 240.935 23.7787 241.34 24.184C241.746 24.5893 241.948 25.0853 241.948 25.672C241.948 26.2587 241.746 26.7547 241.34 27.16C240.935 27.5547 240.434 27.752 239.836 27.752ZM253.975 31.112C252.94 31.112 251.986 30.872 251.111 30.392C250.247 29.9013 249.559 29.224 249.047 28.36C248.546 27.4853 248.295 26.504 248.295 25.416C248.295 24.328 248.546 23.352 249.047 22.488C249.559 21.624 250.247 20.952 251.111 20.472C251.986 19.9813 252.94 19.736 253.975 19.736C255.02 19.736 255.975 19.9813 256.839 20.472C257.714 20.952 258.402 21.624 258.903 22.488C259.404 23.352 259.655 24.328 259.655 25.416C259.655 26.504 259.404 27.4853 258.903 28.36C258.402 29.224 257.714 29.9013 256.839 30.392C255.975 30.872 255.02 31.112 253.975 31.112ZM253.975 29.528C254.711 29.528 255.367 29.3627 255.943 29.032C256.519 28.6907 256.967 28.2107 257.287 27.592C257.618 26.9627 257.783 26.2373 257.783 25.416C257.783 24.5947 257.618 23.8747 257.287 23.256C256.967 22.6373 256.519 22.1627 255.943 21.832C255.367 21.5013 254.711 21.336 253.975 21.336C253.239 21.336 252.583 21.5013 252.007 21.832C251.431 22.1627 250.978 22.6373 250.647 23.256C250.327 23.8747 250.167 24.5947 250.167 25.416C250.167 26.2373 250.327 26.9627 250.647 27.592C250.978 28.2107 251.431 28.6907 252.007 29.032C252.583 29.3627 253.239 29.528 253.975 29.528ZM265.898 22.04C266.591 22.04 267.21 22.184 267.754 22.472C268.309 22.76 268.741 23.1867 269.05 23.752C269.359 24.3173 269.514 25 269.514 25.8V31H267.706V26.072C267.706 25.2827 267.509 24.68 267.114 24.264C266.719 23.8373 266.181 23.624 265.498 23.624C264.815 23.624 264.271 23.8373 263.866 24.264C263.471 24.68 263.274 25.2827 263.274 26.072V31H261.45V22.184H263.274V23.192C263.573 22.8293 263.951 22.5467 264.41 22.344C264.879 22.1413 265.375 22.04 265.898 22.04ZM273.665 19.16V31H271.841V19.16H273.665ZM276.987 21.016C276.657 21.016 276.379 20.904 276.155 20.68C275.931 20.456 275.819 20.1787 275.819 19.848C275.819 19.5173 275.931 19.24 276.155 19.016C276.379 18.792 276.657 18.68 276.987 18.68C277.307 18.68 277.579 18.792 277.803 19.016C278.027 19.24 278.139 19.5173 278.139 19.848C278.139 20.1787 278.027 20.456 277.803 20.68C277.579 20.904 277.307 21.016 276.987 21.016ZM277.883 22.184V31H276.059V22.184H277.883ZM284.726 22.04C285.419 22.04 286.038 22.184 286.582 22.472C287.137 22.76 287.569 23.1867 287.878 23.752C288.187 24.3173 288.342 25 288.342 25.8V31H286.534V26.072C286.534 25.2827 286.337 24.68 285.942 24.264C285.547 23.8373 285.009 23.624 284.326 23.624C283.643 23.624 283.099 23.8373 282.694 24.264C282.299 24.68 282.102 25.2827 282.102 26.072V31H280.278V22.184H282.102V23.192C282.401 22.8293 282.779 22.5467 283.238 22.344C283.707 22.1413 284.203 22.04 284.726 22.04ZM298.749 26.376C298.749 26.7067 298.727 27.0053 298.685 27.272H291.949C292.002 27.976 292.263 28.5413 292.733 28.968C293.202 29.3947 293.778 29.608 294.461 29.608C295.442 29.608 296.135 29.1973 296.541 28.376H298.509C298.242 29.1867 297.757 29.8533 297.053 30.376C296.359 30.888 295.495 31.144 294.461 31.144C293.618 31.144 292.861 30.9573 292.189 30.584C291.527 30.2 291.005 29.6667 290.621 28.984C290.247 28.2907 290.061 27.4907 290.061 26.584C290.061 25.6773 290.242 24.8827 290.605 24.2C290.978 23.5067 291.495 22.9733 292.157 22.6C292.829 22.2267 293.597 22.04 294.461 22.04C295.293 22.04 296.034 22.2213 296.685 22.584C297.335 22.9467 297.842 23.4587 298.205 24.12C298.567 24.7707 298.749 25.5227 298.749 26.376ZM296.845 25.8C296.834 25.128 296.594 24.5893 296.125 24.184C295.655 23.7787 295.074 23.576 294.381 23.576C293.751 23.576 293.213 23.7787 292.765 24.184C292.317 24.5787 292.05 25.1173 291.965 25.8H296.845Z"></path>
</svg>
