<svg xmlns="http://www.w3.org/2000/svg" fill="none" viewBox="0 0 140 42" height="42" width="140">
<path fill="white" d="M11.76 16.66L9.288 25H7.74L5.988 18.688L4.128 25L2.592 25.012L0.228 16.66H1.68L3.408 23.452L5.28 16.66H6.816L8.556 23.416L10.296 16.66H11.76ZM15.7563 25.108C15.1323 25.108 14.5683 24.968 14.0643 24.688C13.5603 24.4 13.1643 24 12.8763 23.488C12.5883 22.968 12.4443 22.368 12.4443 21.688C12.4443 21.016 12.5923 20.42 12.8883 19.9C13.1843 19.38 13.5883 18.98 14.1003 18.7C14.6123 18.42 15.1843 18.28 15.8163 18.28C16.4483 18.28 17.0203 18.42 17.5323 18.7C18.0443 18.98 18.4483 19.38 18.7443 19.9C19.0403 20.42 19.1883 21.016 19.1883 21.688C19.1883 22.36 19.0363 22.956 18.7323 23.476C18.4283 23.996 18.0123 24.4 17.4843 24.688C16.9643 24.968 16.3883 25.108 15.7563 25.108ZM15.7563 23.92C16.1083 23.92 16.4363 23.836 16.7403 23.668C17.0523 23.5 17.3043 23.248 17.4963 22.912C17.6883 22.576 17.7843 22.168 17.7843 21.688C17.7843 21.208 17.6923 20.804 17.5083 20.476C17.3243 20.14 17.0803 19.888 16.7763 19.72C16.4723 19.552 16.1443 19.468 15.7923 19.468C15.4403 19.468 15.1123 19.552 14.8083 19.72C14.5123 19.888 14.2763 20.14 14.1003 20.476C13.9243 20.804 13.8363 21.208 13.8363 21.688C13.8363 22.4 14.0163 22.952 14.3763 23.344C14.7443 23.728 15.2043 23.92 15.7563 23.92ZM23.4086 25.108C22.7846 25.108 22.2206 24.968 21.7166 24.688C21.2126 24.4 20.8166 24 20.5286 23.488C20.2406 22.968 20.0966 22.368 20.0966 21.688C20.0966 21.016 20.2446 20.42 20.5406 19.9C20.8366 19.38 21.2406 18.98 21.7526 18.7C22.2646 18.42 22.8366 18.28 23.4686 18.28C24.1006 18.28 24.6726 18.42 25.1846 18.7C25.6966 18.98 26.1006 19.38 26.3966 19.9C26.6926 20.42 26.8406 21.016 26.8406 21.688C26.8406 22.36 26.6886 22.956 26.3846 23.476C26.0806 23.996 25.6646 24.4 25.1366 24.688C24.6166 24.968 24.0406 25.108 23.4086 25.108ZM23.4086 23.92C23.7606 23.92 24.0886 23.836 24.3926 23.668C24.7046 23.5 24.9566 23.248 25.1486 22.912C25.3406 22.576 25.4366 22.168 25.4366 21.688C25.4366 21.208 25.3446 20.804 25.1606 20.476C24.9766 20.14 24.7326 19.888 24.4286 19.72C24.1246 19.552 23.7966 19.468 23.4446 19.468C23.0926 19.468 22.7646 19.552 22.4606 19.72C22.1646 19.888 21.9286 20.14 21.7526 20.476C21.5766 20.804 21.4886 21.208 21.4886 21.688C21.4886 22.4 21.6686 22.952 22.0286 23.344C22.3966 23.728 22.8566 23.92 23.4086 23.92ZM27.737 21.664C27.737 21 27.873 20.412 28.145 19.9C28.425 19.388 28.801 18.992 29.273 18.712C29.753 18.424 30.285 18.28 30.869 18.28C31.301 18.28 31.725 18.376 32.141 18.568C32.565 18.752 32.901 19 33.149 19.312V16.12H34.529V25H33.149V24.004C32.925 24.324 32.613 24.588 32.213 24.796C31.821 25.004 31.369 25.108 30.857 25.108C30.281 25.108 29.753 24.964 29.273 24.676C28.801 24.38 28.425 23.972 28.145 23.452C27.873 22.924 27.737 22.328 27.737 21.664ZM33.149 21.688C33.149 21.232 33.053 20.836 32.861 20.5C32.677 20.164 32.433 19.908 32.129 19.732C31.825 19.556 31.497 19.468 31.145 19.468C30.793 19.468 30.465 19.556 30.161 19.732C29.857 19.9 29.609 20.152 29.417 20.488C29.233 20.816 29.141 21.208 29.141 21.664C29.141 22.12 29.233 22.52 29.417 22.864C29.609 23.208 29.857 23.472 30.161 23.656C30.473 23.832 30.801 23.92 31.145 23.92C31.497 23.92 31.825 23.832 32.129 23.656C32.433 23.48 32.677 23.224 32.861 22.888C33.053 22.544 33.149 22.144 33.149 21.688ZM42.3858 21.532C42.3858 21.78 42.3698 22.004 42.3378 22.204H37.2858C37.3258 22.732 37.5218 23.156 37.8738 23.476C38.2258 23.796 38.6578 23.956 39.1698 23.956C39.9058 23.956 40.4258 23.648 40.7298 23.032H42.2058C42.0058 23.64 41.6418 24.14 41.1138 24.532C40.5938 24.916 39.9458 25.108 39.1698 25.108C38.5378 25.108 37.9698 24.968 37.4658 24.688C36.9698 24.4 36.5778 24 36.2898 23.488C36.0098 22.968 35.8698 22.368 35.8698 21.688C35.8698 21.008 36.0058 20.412 36.2778 19.9C36.5578 19.38 36.9458 18.98 37.4418 18.7C37.9458 18.42 38.5218 18.28 39.1698 18.28C39.7938 18.28 40.3498 18.416 40.8378 18.688C41.3258 18.96 41.7058 19.344 41.9778 19.84C42.2498 20.328 42.3858 20.892 42.3858 21.532ZM40.9578 21.1C40.9498 20.596 40.7698 20.192 40.4178 19.888C40.0658 19.584 39.6298 19.432 39.1098 19.432C38.6378 19.432 38.2338 19.584 37.8978 19.888C37.5618 20.184 37.3618 20.588 37.2978 21.1H40.9578ZM47.068 18.28C47.588 18.28 48.052 18.388 48.46 18.604C48.876 18.82 49.2 19.14 49.432 19.564C49.664 19.988 49.78 20.5 49.78 21.1V25H48.424V21.304C48.424 20.712 48.276 20.26 47.98 19.948C47.684 19.628 47.28 19.468 46.768 19.468C46.256 19.468 45.848 19.628 45.544 19.948C45.248 20.26 45.1 20.712 45.1 21.304V25H43.732V18.388H45.1V19.144C45.324 18.872 45.608 18.66 45.952 18.508C46.304 18.356 46.676 18.28 47.068 18.28ZM59.5502 16.66V17.776H56.0102V20.236H58.7702V21.352H56.0102V25H54.6422V16.66H59.5502ZM62.186 16.12V25H60.818V16.12H62.186ZM69.97 18.388V25H68.602V24.22C68.386 24.492 68.102 24.708 67.75 24.868C67.406 25.02 67.038 25.096 66.646 25.096C66.126 25.096 65.658 24.988 65.242 24.772C64.834 24.556 64.51 24.236 64.27 23.812C64.038 23.388 63.922 22.876 63.922 22.276V18.388H65.278V22.072C65.278 22.664 65.426 23.12 65.722 23.44C66.018 23.752 66.422 23.908 66.934 23.908C67.446 23.908 67.85 23.752 68.146 23.44C68.45 23.12 68.602 22.664 68.602 22.072V18.388H69.97ZM73.371 19.504V23.164C73.371 23.412 73.427 23.592 73.539 23.704C73.659 23.808 73.859 23.86 74.139 23.86H74.979V25H73.899C73.283 25 72.811 24.856 72.483 24.568C72.155 24.28 71.991 23.812 71.991 23.164V19.504H71.211V18.388H71.991V16.744H73.371V18.388H74.979V19.504H73.371ZM82.2998 21.532C82.2998 21.78 82.2838 22.004 82.2518 22.204H77.1998C77.2398 22.732 77.4358 23.156 77.7878 23.476C78.1398 23.796 78.5718 23.956 79.0838 23.956C79.8198 23.956 80.3398 23.648 80.6438 23.032H82.1198C81.9198 23.64 81.5558 24.14 81.0278 24.532C80.5078 24.916 79.8598 25.108 79.0838 25.108C78.4518 25.108 77.8838 24.968 77.3798 24.688C76.8838 24.4 76.4918 24 76.2038 23.488C75.9238 22.968 75.7838 22.368 75.7838 21.688C75.7838 21.008 75.9198 20.412 76.1918 19.9C76.4718 19.38 76.8598 18.98 77.3558 18.7C77.8598 18.42 78.4358 18.28 79.0838 18.28C79.7078 18.28 80.2638 18.416 80.7518 18.688C81.2398 18.96 81.6198 19.344 81.8918 19.84C82.1638 20.328 82.2998 20.892 82.2998 21.532ZM80.8718 21.1C80.8638 20.596 80.6838 20.192 80.3318 19.888C79.9798 19.584 79.5438 19.432 79.0238 19.432C78.5518 19.432 78.1478 19.584 77.8118 19.888C77.4758 20.184 77.2758 20.588 77.2118 21.1H80.8718Z"></path>
</svg>
