<svg width="450" height="360" viewBox="0 0 450 360" fill="none" xmlns="http://www.w3.org/2000/svg">
<rect width="450" height="40" rx="15" fill="black" fill-opacity="0.1"/>
<path d="M25.928 22.296H22.436L21.836 24H20.408L23.396 15.648H24.98L27.968 24H26.528L25.928 22.296ZM25.544 21.18L24.188 17.304L22.82 21.18H25.544ZM30.6352 18.348C30.8352 18.012 31.0992 17.752 31.4272 17.568C31.7632 17.376 32.1592 17.28 32.6152 17.28V18.696H32.2672C31.7312 18.696 31.3232 18.832 31.0432 19.104C30.7712 19.376 30.6352 19.848 30.6352 20.52V24H29.2672V17.388H30.6352V18.348ZM39.9327 20.532C39.9327 20.78 39.9167 21.004 39.8847 21.204H34.8327C34.8727 21.732 35.0687 22.156 35.4207 22.476C35.7727 22.796 36.2047 22.956 36.7167 22.956C37.4527 22.956 37.9727 22.648 38.2767 22.032H39.7527C39.5527 22.64 39.1887 23.14 38.6607 23.532C38.1407 23.916 37.4927 24.108 36.7167 24.108C36.0847 24.108 35.5167 23.968 35.0127 23.688C34.5167 23.4 34.1247 23 33.8367 22.488C33.5567 21.968 33.4167 21.368 33.4167 20.688C33.4167 20.008 33.5527 19.412 33.8247 18.9C34.1047 18.38 34.4927 17.98 34.9887 17.7C35.4927 17.42 36.0687 17.28 36.7167 17.28C37.3407 17.28 37.8967 17.416 38.3847 17.688C38.8727 17.96 39.2527 18.344 39.5247 18.84C39.7967 19.328 39.9327 19.892 39.9327 20.532ZM38.5047 20.1C38.4967 19.596 38.3167 19.192 37.9647 18.888C37.6127 18.584 37.1767 18.432 36.6567 18.432C36.1847 18.432 35.7807 18.584 35.4447 18.888C35.1087 19.184 34.9087 19.588 34.8447 20.1H38.5047ZM50.5761 15.66L47.8161 20.976V24H46.4481V20.976L43.6761 15.66H45.2001L47.1321 19.752L49.0641 15.66H50.5761ZM54.5297 24.108C53.9057 24.108 53.3417 23.968 52.8377 23.688C52.3337 23.4 51.9377 23 51.6497 22.488C51.3617 21.968 51.2177 21.368 51.2177 20.688C51.2177 20.016 51.3657 19.42 51.6617 18.9C51.9577 18.38 52.3617 17.98 52.8737 17.7C53.3857 17.42 53.9577 17.28 54.5897 17.28C55.2217 17.28 55.7937 17.42 56.3057 17.7C56.8177 17.98 57.2217 18.38 57.5177 18.9C57.8137 19.42 57.9617 20.016 57.9617 20.688C57.9617 21.36 57.8097 21.956 57.5057 22.476C57.2017 22.996 56.7857 23.4 56.2577 23.688C55.7377 23.968 55.1617 24.108 54.5297 24.108ZM54.5297 22.92C54.8817 22.92 55.2097 22.836 55.5137 22.668C55.8257 22.5 56.0777 22.248 56.2697 21.912C56.4617 21.576 56.5577 21.168 56.5577 20.688C56.5577 20.208 56.4657 19.804 56.2817 19.476C56.0977 19.14 55.8537 18.888 55.5497 18.72C55.2457 18.552 54.9177 18.468 54.5657 18.468C54.2137 18.468 53.8857 18.552 53.5817 18.72C53.2857 18.888 53.0497 19.14 52.8737 19.476C52.6977 19.804 52.6097 20.208 52.6097 20.688C52.6097 21.4 52.7897 21.952 53.1497 22.344C53.5177 22.728 53.9777 22.92 54.5297 22.92ZM65.3021 17.388V24H63.9341V23.22C63.7181 23.492 63.4341 23.708 63.0821 23.868C62.7381 24.02 62.3701 24.096 61.9781 24.096C61.4581 24.096 60.9901 23.988 60.5741 23.772C60.1661 23.556 59.8421 23.236 59.6021 22.812C59.3701 22.388 59.2541 21.876 59.2541 21.276V17.388H60.6101V21.072C60.6101 21.664 60.7581 22.12 61.0541 22.44C61.3501 22.752 61.7541 22.908 62.2661 22.908C62.7781 22.908 63.1821 22.752 63.4781 22.44C63.7821 22.12 63.9341 21.664 63.9341 21.072V17.388H65.3021ZM81.0842 15.66L78.6122 24H77.0642L75.3122 17.688L73.4522 24L71.9162 24.012L69.5522 15.66H71.0042L72.7322 22.452L74.6042 15.66H76.1402L77.8802 22.416L79.6202 15.66H81.0842ZM82.9085 16.512C82.6605 16.512 82.4525 16.428 82.2845 16.26C82.1165 16.092 82.0325 15.884 82.0325 15.636C82.0325 15.388 82.1165 15.18 82.2845 15.012C82.4525 14.844 82.6605 14.76 82.9085 14.76C83.1485 14.76 83.3525 14.844 83.5205 15.012C83.6885 15.18 83.7725 15.388 83.7725 15.636C83.7725 15.884 83.6885 16.092 83.5205 16.26C83.3525 16.428 83.1485 16.512 82.9085 16.512ZM83.5805 17.388V24H82.2125V17.388H83.5805ZM86.9726 18.504V22.164C86.9726 22.412 87.0286 22.592 87.1406 22.704C87.2606 22.808 87.4606 22.86 87.7406 22.86H88.5806V24H87.5006C86.8846 24 86.4126 23.856 86.0846 23.568C85.7566 23.28 85.5926 22.812 85.5926 22.164V18.504H84.8126V17.388H85.5926V15.744H86.9726V17.388H88.5806V18.504H86.9726ZM93.2614 17.28C93.7654 17.28 94.2134 17.388 94.6054 17.604C95.0054 17.82 95.3174 18.14 95.5414 18.564C95.7734 18.988 95.8894 19.5 95.8894 20.1V24H94.5334V20.304C94.5334 19.712 94.3854 19.26 94.0894 18.948C93.7934 18.628 93.3894 18.468 92.8774 18.468C92.3654 18.468 91.9574 18.628 91.6534 18.948C91.3574 19.26 91.2094 19.712 91.2094 20.304V24H89.8414V15.12H91.2094V18.156C91.4414 17.876 91.7334 17.66 92.0854 17.508C92.4454 17.356 92.8374 17.28 93.2614 17.28ZM102.108 15.66V20.976C102.108 21.608 102.272 22.084 102.6 22.404C102.936 22.724 103.4 22.884 103.992 22.884C104.592 22.884 105.056 22.724 105.384 22.404C105.72 22.084 105.888 21.608 105.888 20.976V15.66H107.256V20.952C107.256 21.632 107.108 22.208 106.812 22.68C106.516 23.152 106.12 23.504 105.624 23.736C105.128 23.968 104.58 24.084 103.98 24.084C103.38 24.084 102.832 23.968 102.336 23.736C101.848 23.504 101.46 23.152 101.172 22.68C100.884 22.208 100.74 21.632 100.74 20.952V15.66H102.108ZM111.437 24.108C110.917 24.108 110.449 24.016 110.033 23.832C109.625 23.64 109.301 23.384 109.061 23.064C108.821 22.736 108.693 22.372 108.677 21.972H110.093C110.117 22.252 110.249 22.488 110.489 22.68C110.737 22.864 111.045 22.956 111.413 22.956C111.797 22.956 112.093 22.884 112.301 22.74C112.517 22.588 112.625 22.396 112.625 22.164C112.625 21.916 112.505 21.732 112.265 21.612C112.033 21.492 111.661 21.36 111.149 21.216C110.653 21.08 110.249 20.948 109.937 20.82C109.625 20.692 109.353 20.496 109.121 20.232C108.897 19.968 108.785 19.62 108.785 19.188C108.785 18.836 108.889 18.516 109.097 18.228C109.305 17.932 109.601 17.7 109.985 17.532C110.377 17.364 110.825 17.28 111.329 17.28C112.081 17.28 112.685 17.472 113.141 17.856C113.605 18.232 113.853 18.748 113.885 19.404H112.517C112.493 19.108 112.373 18.872 112.157 18.696C111.941 18.52 111.649 18.432 111.281 18.432C110.921 18.432 110.645 18.5 110.453 18.636C110.261 18.772 110.165 18.952 110.165 19.176C110.165 19.352 110.229 19.5 110.357 19.62C110.485 19.74 110.641 19.836 110.825 19.908C111.009 19.972 111.281 20.056 111.641 20.16C112.121 20.288 112.513 20.42 112.817 20.556C113.129 20.684 113.397 20.876 113.621 21.132C113.845 21.388 113.961 21.728 113.969 22.152C113.969 22.528 113.865 22.864 113.657 23.16C113.449 23.456 113.153 23.688 112.769 23.856C112.393 24.024 111.949 24.108 111.437 24.108ZM120.808 15.54C121.624 15.54 122.276 15.764 122.764 16.212C123.26 16.66 123.508 17.272 123.508 18.048C123.508 18.856 123.252 19.464 122.74 19.872C122.228 20.28 121.548 20.484 120.7 20.484L120.652 21.432H119.464L119.404 19.548H119.8C120.576 19.548 121.168 19.444 121.576 19.236C121.992 19.028 122.2 18.632 122.2 18.048C122.2 17.624 122.076 17.292 121.828 17.052C121.588 16.812 121.252 16.692 120.82 16.692C120.388 16.692 120.048 16.808 119.8 17.04C119.552 17.272 119.428 17.596 119.428 18.012H118.144C118.144 17.532 118.252 17.104 118.468 16.728C118.684 16.352 118.992 16.06 119.392 15.852C119.8 15.644 120.272 15.54 120.808 15.54ZM120.04 24.084C119.792 24.084 119.584 24 119.416 23.832C119.248 23.664 119.164 23.456 119.164 23.208C119.164 22.96 119.248 22.752 119.416 22.584C119.584 22.416 119.792 22.332 120.04 22.332C120.28 22.332 120.484 22.416 120.652 22.584C120.82 22.752 120.904 22.96 120.904 23.208C120.904 23.456 120.82 23.664 120.652 23.832C120.484 24 120.28 24.084 120.04 24.084Z" fill="black"/>
<path d="M239.8 17.05L237.74 24H236.45L234.99 18.74L233.44 24L232.16 24.01L230.19 17.05H231.4L232.84 22.71L234.4 17.05H235.68L237.13 22.68L238.58 17.05H239.8ZM243.13 24.09C242.61 24.09 242.14 23.9733 241.72 23.74C241.3 23.5 240.97 23.1667 240.73 22.74C240.49 22.3067 240.37 21.8067 240.37 21.24C240.37 20.68 240.494 20.1833 240.74 19.75C240.987 19.3167 241.324 18.9833 241.75 18.75C242.177 18.5167 242.654 18.4 243.18 18.4C243.707 18.4 244.184 18.5167 244.61 18.75C245.037 18.9833 245.374 19.3167 245.62 19.75C245.867 20.1833 245.99 20.68 245.99 21.24C245.99 21.8 245.864 22.2967 245.61 22.73C245.357 23.1633 245.01 23.5 244.57 23.74C244.137 23.9733 243.657 24.09 243.13 24.09ZM243.13 23.1C243.424 23.1 243.697 23.03 243.95 22.89C244.21 22.75 244.42 22.54 244.58 22.26C244.74 21.98 244.82 21.64 244.82 21.24C244.82 20.84 244.744 20.5033 244.59 20.23C244.437 19.95 244.234 19.74 243.98 19.6C243.727 19.46 243.454 19.39 243.16 19.39C242.867 19.39 242.594 19.46 242.34 19.6C242.094 19.74 241.897 19.95 241.75 20.23C241.604 20.5033 241.53 20.84 241.53 21.24C241.53 21.8333 241.68 22.2933 241.98 22.62C242.287 22.94 242.67 23.1 243.13 23.1ZM249.897 18.4C250.331 18.4 250.717 18.49 251.057 18.67C251.404 18.85 251.674 19.1167 251.867 19.47C252.061 19.8233 252.157 20.25 252.157 20.75V24H251.027V20.92C251.027 20.4267 250.904 20.05 250.657 19.79C250.411 19.5233 250.074 19.39 249.647 19.39C249.221 19.39 248.881 19.5233 248.627 19.79C248.381 20.05 248.257 20.4267 248.257 20.92V24H247.117V18.49H248.257V19.12C248.444 18.8933 248.681 18.7167 248.967 18.59C249.261 18.4633 249.571 18.4 249.897 18.4ZM254.941 19.42V22.47C254.941 22.6767 254.988 22.8267 255.081 22.92C255.181 23.0067 255.348 23.05 255.581 23.05H256.281V24H255.381C254.868 24 254.475 23.88 254.201 23.64C253.928 23.4 253.791 23.01 253.791 22.47V19.42H253.141V18.49H253.791V17.12H254.941V18.49H256.281V19.42H254.941ZM259.722 24.09C259.202 24.09 258.732 23.9733 258.312 23.74C257.892 23.5 257.562 23.1667 257.322 22.74C257.082 22.3067 256.962 21.8067 256.962 21.24C256.962 20.68 257.085 20.1833 257.332 19.75C257.579 19.3167 257.915 18.9833 258.342 18.75C258.769 18.5167 259.245 18.4 259.772 18.4C260.299 18.4 260.775 18.5167 261.202 18.75C261.629 18.9833 261.965 19.3167 262.212 19.75C262.459 20.1833 262.582 20.68 262.582 21.24C262.582 21.8 262.455 22.2967 262.202 22.73C261.949 23.1633 261.602 23.5 261.162 23.74C260.729 23.9733 260.249 24.09 259.722 24.09ZM259.722 23.1C260.015 23.1 260.289 23.03 260.542 22.89C260.802 22.75 261.012 22.54 261.172 22.26C261.332 21.98 261.412 21.64 261.412 21.24C261.412 20.84 261.335 20.5033 261.182 20.23C261.029 19.95 260.825 19.74 260.572 19.6C260.319 19.46 260.045 19.39 259.752 19.39C259.459 19.39 259.185 19.46 258.932 19.6C258.685 19.74 258.489 19.95 258.342 20.23C258.195 20.5033 258.122 20.84 258.122 21.24C258.122 21.8333 258.272 22.2933 258.572 22.62C258.879 22.94 259.262 23.1 259.722 23.1ZM264.849 16.6V24H263.709V16.6H264.849ZM267.486 16.6V24H266.346V16.6H267.486ZM268.602 21.22C268.602 20.6667 268.716 20.1767 268.942 19.75C269.176 19.3233 269.489 18.9933 269.882 18.76C270.282 18.52 270.722 18.4 271.202 18.4C271.636 18.4 272.012 18.4867 272.332 18.66C272.659 18.8267 272.919 19.0367 273.112 19.29V18.49H274.262V24H273.112V23.18C272.919 23.44 272.656 23.6567 272.322 23.83C271.989 24.0033 271.609 24.09 271.182 24.09C270.709 24.09 270.276 23.97 269.882 23.73C269.489 23.4833 269.176 23.1433 268.942 22.71C268.716 22.27 268.602 21.7733 268.602 21.22ZM273.112 21.24C273.112 20.86 273.032 20.53 272.872 20.25C272.719 19.97 272.516 19.7567 272.262 19.61C272.009 19.4633 271.736 19.39 271.442 19.39C271.149 19.39 270.876 19.4633 270.622 19.61C270.369 19.75 270.162 19.96 270.002 20.24C269.849 20.5133 269.772 20.84 269.772 21.22C269.772 21.6 269.849 21.9333 270.002 22.22C270.162 22.5067 270.369 22.7267 270.622 22.88C270.882 23.0267 271.156 23.1 271.442 23.1C271.736 23.1 272.009 23.0267 272.262 22.88C272.516 22.7333 272.719 22.52 272.872 22.24C273.032 21.9533 273.112 21.62 273.112 21.24Z" fill="#808080"/>
<path d="M412.101 22.48V21.62L415.461 16.8H416.841V21.49H417.771V22.48H416.841V24H415.721V22.48H412.101ZM415.771 17.96L413.411 21.49H415.771V17.96ZM419.325 24.07C419.119 24.07 418.945 24 418.805 23.86C418.665 23.72 418.595 23.5467 418.595 23.34C418.595 23.1333 418.665 22.96 418.805 22.82C418.945 22.68 419.119 22.61 419.325 22.61C419.525 22.61 419.695 22.68 419.835 22.82C419.975 22.96 420.045 23.1333 420.045 23.34C420.045 23.5467 419.975 23.72 419.835 23.86C419.695 24 419.525 24.07 419.325 24.07ZM419.325 19.87C419.119 19.87 418.945 19.8 418.805 19.66C418.665 19.52 418.595 19.3467 418.595 19.14C418.595 18.9333 418.665 18.76 418.805 18.62C418.945 18.48 419.119 18.41 419.325 18.41C419.525 18.41 419.695 18.48 419.835 18.62C419.975 18.76 420.045 18.9333 420.045 19.14C420.045 19.3467 419.975 19.52 419.835 19.66C419.695 19.8 419.525 19.87 419.325 19.87ZM421.016 17.75V16.71H423.096V24H421.946V17.75H421.016ZM424.643 18.51C424.683 17.89 424.919 17.4067 425.353 17.06C425.793 16.7133 426.353 16.54 427.033 16.54C427.499 16.54 427.903 16.6233 428.243 16.79C428.583 16.9567 428.839 17.1833 429.013 17.47C429.186 17.7567 429.273 18.08 429.273 18.44C429.273 18.8533 429.163 19.2067 428.943 19.5C428.723 19.7933 428.459 19.99 428.153 20.09V20.13C428.546 20.25 428.853 20.47 429.073 20.79C429.293 21.1033 429.403 21.5067 429.403 22C429.403 22.3933 429.313 22.7433 429.133 23.05C428.953 23.3567 428.686 23.6 428.333 23.78C427.979 23.9533 427.556 24.04 427.063 24.04C426.343 24.04 425.749 23.8567 425.283 23.49C424.823 23.1167 424.576 22.5833 424.543 21.89H425.643C425.669 22.2433 425.806 22.5333 426.053 22.76C426.299 22.98 426.633 23.09 427.053 23.09C427.459 23.09 427.773 22.98 427.993 22.76C428.213 22.5333 428.323 22.2433 428.323 21.89C428.323 21.4233 428.173 21.0933 427.873 20.9C427.579 20.7 427.126 20.6 426.513 20.6H426.253V19.66H426.523C427.063 19.6533 427.473 19.5633 427.753 19.39C428.039 19.2167 428.183 18.9433 428.183 18.57C428.183 18.25 428.079 17.9967 427.873 17.81C427.666 17.6167 427.373 17.52 426.993 17.52C426.619 17.52 426.329 17.6167 426.123 17.81C425.916 17.9967 425.793 18.23 425.753 18.51H424.643Z" fill="#808080"/>
</svg>
