<svg xmlns="http://www.w3.org/2000/svg" fill="none" viewBox="0 0 300 40" height="40" width="300">
<rect fill-opacity="0.1" fill="black" rx="15" height="40" width="300"></rect>
<path fill="black" d="M40.444 19.812C40.444 18.996 40.632 18.264 41.008 17.616C41.392 16.968 41.908 16.464 42.556 16.104C43.212 15.736 43.928 15.552 44.704 15.552C45.592 15.552 46.38 15.772 47.068 16.212C47.764 16.644 48.268 17.26 48.58 18.06H46.936C46.72 17.62 46.42 17.292 46.036 17.076C45.652 16.86 45.208 16.752 44.704 16.752C44.152 16.752 43.66 16.876 43.228 17.124C42.796 17.372 42.456 17.728 42.208 18.192C41.968 18.656 41.848 19.196 41.848 19.812C41.848 20.428 41.968 20.968 42.208 21.432C42.456 21.896 42.796 22.256 43.228 22.512C43.66 22.76 44.152 22.884 44.704 22.884C45.208 22.884 45.652 22.776 46.036 22.56C46.42 22.344 46.72 22.016 46.936 21.576H48.58C48.268 22.376 47.764 22.992 47.068 23.424C46.38 23.856 45.592 24.072 44.704 24.072C43.92 24.072 43.204 23.892 42.556 23.532C41.908 23.164 41.392 22.656 41.008 22.008C40.632 21.36 40.444 20.628 40.444 19.812ZM49.7253 20.664C49.7253 20 49.8613 19.412 50.1333 18.9C50.4133 18.388 50.7893 17.992 51.2613 17.712C51.7413 17.424 52.2693 17.28 52.8453 17.28C53.3653 17.28 53.8173 17.384 54.2013 17.592C54.5933 17.792 54.9053 18.044 55.1373 18.348V17.388H56.5173V24H55.1373V23.016C54.9053 23.328 54.5893 23.588 54.1893 23.796C53.7893 24.004 53.3333 24.108 52.8213 24.108C52.2533 24.108 51.7333 23.964 51.2613 23.676C50.7893 23.38 50.4133 22.972 50.1333 22.452C49.8613 21.924 49.7253 21.328 49.7253 20.664ZM55.1373 20.688C55.1373 20.232 55.0413 19.836 54.8493 19.5C54.6653 19.164 54.4213 18.908 54.1173 18.732C53.8133 18.556 53.4853 18.468 53.1333 18.468C52.7813 18.468 52.4533 18.556 52.1493 18.732C51.8453 18.9 51.5973 19.152 51.4053 19.488C51.2213 19.816 51.1293 20.208 51.1293 20.664C51.1293 21.12 51.2213 21.52 51.4053 21.864C51.5973 22.208 51.8453 22.472 52.1493 22.656C52.4613 22.832 52.7893 22.92 53.1333 22.92C53.4853 22.92 53.8133 22.832 54.1173 22.656C54.4213 22.48 54.6653 22.224 54.8493 21.888C55.0413 21.544 55.1373 21.144 55.1373 20.688ZM59.6821 15.12V24H58.3141V15.12H59.6821ZM61.0221 20.688C61.0221 20.008 61.1581 19.412 61.4301 18.9C61.7101 18.38 62.0941 17.98 62.5821 17.7C63.0701 17.42 63.6301 17.28 64.2621 17.28C65.0621 17.28 65.7221 17.472 66.2421 17.856C66.7701 18.232 67.1261 18.772 67.3101 19.476H65.8341C65.7141 19.148 65.5221 18.892 65.2581 18.708C64.9941 18.524 64.6621 18.432 64.2621 18.432C63.7021 18.432 63.2541 18.632 62.9181 19.032C62.5901 19.424 62.4261 19.976 62.4261 20.688C62.4261 21.4 62.5901 21.956 62.9181 22.356C63.2541 22.756 63.7021 22.956 64.2621 22.956C65.0541 22.956 65.5781 22.608 65.8341 21.912H67.3101C67.1181 22.584 66.7581 23.12 66.2301 23.52C65.7021 23.912 65.0461 24.108 64.2621 24.108C63.6301 24.108 63.0701 23.968 62.5821 23.688C62.0941 23.4 61.7101 23 61.4301 22.488C61.1581 21.968 61.0221 21.368 61.0221 20.688ZM74.6614 17.388V24H73.2934V23.22C73.0774 23.492 72.7934 23.708 72.4414 23.868C72.0974 24.02 71.7294 24.096 71.3374 24.096C70.8174 24.096 70.3494 23.988 69.9334 23.772C69.5254 23.556 69.2014 23.236 68.9614 22.812C68.7294 22.388 68.6134 21.876 68.6134 21.276V17.388H69.9694V21.072C69.9694 21.664 70.1174 22.12 70.4134 22.44C70.7094 22.752 71.1134 22.908 71.6254 22.908C72.1374 22.908 72.5414 22.752 72.8374 22.44C73.1414 22.12 73.2934 21.664 73.2934 21.072V17.388H74.6614ZM77.8344 15.12V24H76.4664V15.12H77.8344ZM79.1745 20.664C79.1745 20 79.3105 19.412 79.5825 18.9C79.8625 18.388 80.2385 17.992 80.7105 17.712C81.1905 17.424 81.7185 17.28 82.2945 17.28C82.8145 17.28 83.2665 17.384 83.6505 17.592C84.0425 17.792 84.3545 18.044 84.5865 18.348V17.388H85.9665V24H84.5865V23.016C84.3545 23.328 84.0385 23.588 83.6385 23.796C83.2385 24.004 82.7825 24.108 82.2705 24.108C81.7025 24.108 81.1825 23.964 80.7105 23.676C80.2385 23.38 79.8625 22.972 79.5825 22.452C79.3105 21.924 79.1745 21.328 79.1745 20.664ZM84.5865 20.688C84.5865 20.232 84.4905 19.836 84.2985 19.5C84.1145 19.164 83.8705 18.908 83.5665 18.732C83.2625 18.556 82.9345 18.468 82.5825 18.468C82.2305 18.468 81.9025 18.556 81.5985 18.732C81.2945 18.9 81.0465 19.152 80.8545 19.488C80.6705 19.816 80.5785 20.208 80.5785 20.664C80.5785 21.12 80.6705 21.52 80.8545 21.864C81.0465 22.208 81.2945 22.472 81.5985 22.656C81.9105 22.832 82.2385 22.92 82.5825 22.92C82.9345 22.92 83.2625 22.832 83.5665 22.656C83.8705 22.48 84.1145 22.224 84.2985 21.888C84.4905 21.544 84.5865 21.144 84.5865 20.688ZM89.3593 18.504V22.164C89.3593 22.412 89.4153 22.592 89.5273 22.704C89.6473 22.808 89.8473 22.86 90.1273 22.86H90.9673V24H89.8873C89.2713 24 88.7993 23.856 88.4713 23.568C88.1433 23.28 87.9793 22.812 87.9793 22.164V18.504H87.1993V17.388H87.9793V15.744H89.3593V17.388H90.9673V18.504H89.3593ZM95.0961 24.108C94.4721 24.108 93.9081 23.968 93.4041 23.688C92.9001 23.4 92.5041 23 92.2161 22.488C91.9281 21.968 91.7841 21.368 91.7841 20.688C91.7841 20.016 91.9321 19.42 92.2281 18.9C92.5241 18.38 92.9281 17.98 93.4401 17.7C93.9521 17.42 94.5241 17.28 95.1561 17.28C95.7881 17.28 96.3601 17.42 96.8721 17.7C97.3841 17.98 97.7881 18.38 98.0841 18.9C98.3801 19.42 98.5281 20.016 98.5281 20.688C98.5281 21.36 98.3761 21.956 98.0721 22.476C97.7681 22.996 97.3521 23.4 96.8241 23.688C96.3041 23.968 95.7281 24.108 95.0961 24.108ZM95.0961 22.92C95.4481 22.92 95.7761 22.836 96.0801 22.668C96.3921 22.5 96.6441 22.248 96.8361 21.912C97.0281 21.576 97.1241 21.168 97.1241 20.688C97.1241 20.208 97.0321 19.804 96.8481 19.476C96.6641 19.14 96.4201 18.888 96.1161 18.72C95.8121 18.552 95.4841 18.468 95.1321 18.468C94.7801 18.468 94.4521 18.552 94.1481 18.72C93.8521 18.888 93.6161 19.14 93.4401 19.476C93.2641 19.804 93.1761 20.208 93.1761 20.688C93.1761 21.4 93.3561 21.952 93.7161 22.344C94.0841 22.728 94.5441 22.92 95.0961 22.92ZM101.248 18.348C101.448 18.012 101.712 17.752 102.04 17.568C102.376 17.376 102.772 17.28 103.228 17.28V18.696H102.88C102.344 18.696 101.936 18.832 101.656 19.104C101.384 19.376 101.248 19.848 101.248 20.52V24H99.8805V17.388H101.248V18.348ZM109.463 21.564C109.175 21.564 108.911 21.496 108.671 21.36C108.439 21.216 108.251 21.028 108.107 20.796C107.971 20.556 107.903 20.292 107.903 20.004C107.903 19.564 108.055 19.192 108.359 18.888C108.663 18.584 109.031 18.432 109.463 18.432C109.911 18.432 110.287 18.584 110.591 18.888C110.895 19.192 111.047 19.564 111.047 20.004C111.047 20.444 110.895 20.816 110.591 21.12C110.287 21.416 109.911 21.564 109.463 21.564ZM121.291 22.296H117.799L117.199 24H115.771L118.759 15.648H120.343L123.331 24H121.891L121.291 22.296ZM120.907 21.18L119.551 17.304L118.183 21.18H120.907ZM125.998 18.36C126.23 18.056 126.546 17.8 126.946 17.592C127.346 17.384 127.798 17.28 128.302 17.28C128.878 17.28 129.402 17.424 129.874 17.712C130.354 17.992 130.73 18.388 131.002 18.9C131.274 19.412 131.41 20 131.41 20.664C131.41 21.328 131.274 21.924 131.002 22.452C130.73 22.972 130.354 23.38 129.874 23.676C129.402 23.964 128.878 24.108 128.302 24.108C127.798 24.108 127.35 24.008 126.958 23.808C126.566 23.6 126.246 23.344 125.998 23.04V27.144H124.63V17.388H125.998V18.36ZM130.018 20.664C130.018 20.208 129.922 19.816 129.73 19.488C129.546 19.152 129.298 18.9 128.986 18.732C128.682 18.556 128.354 18.468 128.002 18.468C127.658 18.468 127.33 18.556 127.018 18.732C126.714 18.908 126.466 19.164 126.274 19.5C126.09 19.836 125.998 20.232 125.998 20.688C125.998 21.144 126.09 21.544 126.274 21.888C126.466 22.224 126.714 22.48 127.018 22.656C127.33 22.832 127.658 22.92 128.002 22.92C128.354 22.92 128.682 22.832 128.986 22.656C129.298 22.472 129.546 22.208 129.73 21.864C129.922 21.52 130.018 21.12 130.018 20.664ZM134.131 18.36C134.363 18.056 134.679 17.8 135.079 17.592C135.479 17.384 135.931 17.28 136.435 17.28C137.011 17.28 137.535 17.424 138.007 17.712C138.487 17.992 138.863 18.388 139.135 18.9C139.407 19.412 139.543 20 139.543 20.664C139.543 21.328 139.407 21.924 139.135 22.452C138.863 22.972 138.487 23.38 138.007 23.676C137.535 23.964 137.011 24.108 136.435 24.108C135.931 24.108 135.483 24.008 135.091 23.808C134.699 23.6 134.379 23.344 134.131 23.04V27.144H132.763V17.388H134.131V18.36ZM138.151 20.664C138.151 20.208 138.055 19.816 137.863 19.488C137.679 19.152 137.431 18.9 137.119 18.732C136.815 18.556 136.487 18.468 136.135 18.468C135.791 18.468 135.463 18.556 135.151 18.732C134.847 18.908 134.599 19.164 134.407 19.5C134.223 19.836 134.131 20.232 134.131 20.688C134.131 21.144 134.223 21.544 134.407 21.888C134.599 22.224 134.847 22.48 135.151 22.656C135.463 22.832 135.791 22.92 136.135 22.92C136.487 22.92 136.815 22.832 137.119 22.656C137.431 22.472 137.679 22.208 137.863 21.864C138.055 21.52 138.151 21.12 138.151 20.664Z"></path>
<rect fill="black" rx="3" height="16" width="12" y="12" x="14"></rect>
<rect fill="#E6E6E6" rx="1" height="3" width="8" y="14" x="16"></rect>
<rect fill="#E6E6E6" rx="1" height="2" width="2" y="18" x="16"></rect>
<rect fill="#E6E6E6" rx="1" height="2" width="2" y="21" x="16"></rect>
<rect fill="#E6E6E6" rx="1" height="2" width="2" y="24" x="16"></rect>
<rect fill="#E6E6E6" rx="1" height="2" width="2" y="18" x="19"></rect>
<rect fill="#E6E6E6" rx="1" height="2" width="2" y="21" x="19"></rect>
<rect fill="#E6E6E6" rx="1" height="2" width="2" y="24" x="19"></rect>
<rect fill="#E6E6E6" rx="1" height="2" width="2" y="18" x="22"></rect>
<rect fill="#E6E6E6" rx="1" height="2" width="2" y="21" x="22"></rect>
<rect fill="#E6E6E6" rx="1" height="2" width="2" y="24" x="22"></rect>
</svg>
