<svg width="480" height="360" viewBox="0 0 480 360" fill="none" xmlns="http://www.w3.org/2000/svg">
<path d="M0 0H130C141.046 0 150 8.95431 150 20V340C150 351.046 141.046 360 130 360H0V0Z" fill="#E6E6E6"/>
<path d="M54.976 23.192C54.976 23.7573 54.8427 24.2907 54.576 24.792C54.3093 25.2933 53.8827 25.704 53.296 26.024C52.7093 26.3333 51.9573 26.488 51.04 26.488H49.024V31H47.2V19.88H51.04C51.8933 19.88 52.6133 20.0293 53.2 20.328C53.7973 20.616 54.24 21.0107 54.528 21.512C54.8267 22.0133 54.976 22.5733 54.976 23.192ZM51.04 25C51.7333 25 52.2507 24.8453 52.592 24.536C52.9333 24.216 53.104 23.768 53.104 23.192C53.104 21.976 52.416 21.368 51.04 21.368H49.024V25H51.04ZM56.1076 26.552C56.1076 25.6667 56.289 24.8827 56.6516 24.2C57.025 23.5173 57.5263 22.9893 58.1556 22.616C58.7956 22.232 59.4996 22.04 60.2676 22.04C60.961 22.04 61.5636 22.1787 62.0756 22.456C62.5983 22.7227 63.0143 23.0587 63.3236 23.464V22.184H65.1636V31H63.3236V29.688C63.0143 30.104 62.593 30.4507 62.0596 30.728C61.5263 31.0053 60.9183 31.144 60.2356 31.144C59.4783 31.144 58.785 30.952 58.1556 30.568C57.5263 30.1733 57.025 29.6293 56.6516 28.936C56.289 28.232 56.1076 27.4373 56.1076 26.552ZM63.3236 26.584C63.3236 25.976 63.1956 25.448 62.9396 25C62.6943 24.552 62.369 24.2107 61.9636 23.976C61.5583 23.7413 61.121 23.624 60.6516 23.624C60.1823 23.624 59.745 23.7413 59.3396 23.976C58.9343 24.2 58.6036 24.536 58.3476 24.984C58.1023 25.4213 57.9796 25.944 57.9796 26.552C57.9796 27.16 58.1023 27.6933 58.3476 28.152C58.6036 28.6107 58.9343 28.9627 59.3396 29.208C59.7556 29.4427 60.193 29.56 60.6516 29.56C61.121 29.56 61.5583 29.4427 61.9636 29.208C62.369 28.9733 62.6943 28.632 62.9396 28.184C63.1956 27.7253 63.3236 27.192 63.3236 26.584ZM68.4874 21.016C68.1567 21.016 67.8794 20.904 67.6554 20.68C67.4314 20.456 67.3194 20.1787 67.3194 19.848C67.3194 19.5173 67.4314 19.24 67.6554 19.016C67.8794 18.792 68.1567 18.68 68.4874 18.68C68.8074 18.68 69.0794 18.792 69.3034 19.016C69.5274 19.24 69.6394 19.5173 69.6394 19.848C69.6394 20.1787 69.5274 20.456 69.3034 20.68C69.0794 20.904 68.8074 21.016 68.4874 21.016ZM69.3834 22.184V31H67.5594V22.184H69.3834ZM76.2261 22.04C76.9195 22.04 77.5381 22.184 78.0821 22.472C78.6368 22.76 79.0688 23.1867 79.3781 23.752C79.6875 24.3173 79.8421 25 79.8421 25.8V31H78.0341V26.072C78.0341 25.2827 77.8368 24.68 77.4421 24.264C77.0475 23.8373 76.5088 23.624 75.8261 23.624C75.1435 23.624 74.5995 23.8373 74.1941 24.264C73.7995 24.68 73.6021 25.2827 73.6021 26.072V31H71.7781V22.184H73.6021V23.192C73.9008 22.8293 74.2795 22.5467 74.7381 22.344C75.2075 22.1413 75.7035 22.04 76.2261 22.04ZM84.2968 23.672V28.552C84.2968 28.8827 84.3714 29.1227 84.5208 29.272C84.6808 29.4107 84.9474 29.48 85.3208 29.48H86.4408V31H85.0008C84.1794 31 83.5501 30.808 83.1128 30.424C82.6754 30.04 82.4568 29.416 82.4568 28.552V23.672H81.4168V22.184H82.4568V19.992H84.2968V22.184H86.4408V23.672H84.2968Z" fill="black"/>
<rect x="19.7681" y="19.6699" width="4" height="9" transform="rotate(30 19.7681 19.6699)" fill="black"/>
<path d="M18.2322 30.3301L14.7681 28.3301L14.9036 30.4313C14.9495 31.1434 15.7051 31.5797 16.3447 31.2634L18.2322 30.3301Z" fill="black"/>
<path d="M20.7681 17.9378C21.0442 17.4595 21.6558 17.2956 22.1341 17.5718L23.8661 18.5718C24.3444 18.8479 24.5083 19.4595 24.2322 19.9378L23.7322 20.8038L20.2681 18.8038L20.7681 17.9378Z" fill="black"/>
<path d="M19 31C19 30.4477 19.4477 30 20 30H27V32H20C19.4477 32 19 31.5523 19 31V31Z" fill="black"/>
<path d="M31 23C31 23.5523 30.5523 24 30 24L27 24L27 22L30 22C30.5523 22 31 22.4477 31 23V23Z" fill="black"/>
<path d="M27 27C27.5304 27 28.0391 27.2107 28.4142 27.5858C28.7893 27.9609 29 28.4696 29 29C29 29.5304 28.7893 30.0391 28.4142 30.4142C28.0391 30.7893 27.5304 31 27 31" stroke="black" stroke-width="2"/>
<path d="M27 27C26.7374 27 26.4773 26.9483 26.2346 26.8478C25.992 26.7472 25.7715 26.5999 25.5858 26.4142C25.4001 26.2285 25.2528 26.008 25.1522 25.7654C25.0517 25.5227 25 25.2626 25 25C25 24.7374 25.0517 24.4773 25.1522 24.2346C25.2528 23.992 25.4001 23.7715 25.5858 23.5858C25.7715 23.4001 25.992 23.2528 26.2346 23.1522C26.4773 23.0517 26.7374 23 27 23" stroke="black" stroke-width="2"/>
<path d="M9 64.9367C9 64.3432 9.26365 63.7803 9.71963 63.4003L13.7196 60.067C14.4613 59.4489 15.5387 59.4489 16.2804 60.067L20.2804 63.4003C20.7364 63.7803 21 64.3432 21 64.9367V69C21 70.1046 20.1046 71 19 71H17V67C17 66.4477 16.5523 66 16 66H14C13.4477 66 13 66.4477 13 67V71H11C9.89543 71 9 70.1046 9 69V64.9367Z" fill="black"/>
<path d="M37.56 60.66V69H36.192V65.352H32.268V69H30.9V60.66H32.268V64.236H36.192V60.66H37.56ZM42.2289 69.108C41.6049 69.108 41.0409 68.968 40.5369 68.688C40.0329 68.4 39.6369 68 39.3489 67.488C39.0609 66.968 38.9169 66.368 38.9169 65.688C38.9169 65.016 39.0649 64.42 39.3609 63.9C39.6569 63.38 40.0609 62.98 40.5729 62.7C41.0849 62.42 41.6569 62.28 42.2889 62.28C42.9209 62.28 43.4929 62.42 44.0049 62.7C44.5169 62.98 44.9209 63.38 45.2169 63.9C45.5129 64.42 45.6609 65.016 45.6609 65.688C45.6609 66.36 45.5089 66.956 45.2049 67.476C44.9009 67.996 44.4849 68.4 43.9569 68.688C43.4369 68.968 42.8609 69.108 42.2289 69.108ZM42.2289 67.92C42.5809 67.92 42.9089 67.836 43.2129 67.668C43.5249 67.5 43.7769 67.248 43.9689 66.912C44.1609 66.576 44.2569 66.168 44.2569 65.688C44.2569 65.208 44.1649 64.804 43.9809 64.476C43.7969 64.14 43.5529 63.888 43.2489 63.72C42.9449 63.552 42.6169 63.468 42.2649 63.468C41.9129 63.468 41.5849 63.552 41.2809 63.72C40.9849 63.888 40.7489 64.14 40.5729 64.476C40.3969 64.804 40.3089 65.208 40.3089 65.688C40.3089 66.4 40.4889 66.952 40.8489 67.344C41.2169 67.728 41.6769 67.92 42.2289 67.92ZM55.0173 62.28C55.5373 62.28 56.0013 62.388 56.4093 62.604C56.8253 62.82 57.1493 63.14 57.3813 63.564C57.6213 63.988 57.7413 64.5 57.7413 65.1V69H56.3853V65.304C56.3853 64.712 56.2373 64.26 55.9413 63.948C55.6453 63.628 55.2413 63.468 54.7293 63.468C54.2173 63.468 53.8093 63.628 53.5053 63.948C53.2093 64.26 53.0613 64.712 53.0613 65.304V69H51.7053V65.304C51.7053 64.712 51.5573 64.26 51.2613 63.948C50.9653 63.628 50.5613 63.468 50.0493 63.468C49.5373 63.468 49.1293 63.628 48.8253 63.948C48.5293 64.26 48.3813 64.712 48.3813 65.304V69H47.0133V62.388H48.3813V63.144C48.6053 62.872 48.8893 62.66 49.2333 62.508C49.5773 62.356 49.9453 62.28 50.3373 62.28C50.8653 62.28 51.3373 62.392 51.7533 62.616C52.1693 62.84 52.4893 63.164 52.7133 63.588C52.9133 63.188 53.2253 62.872 53.6493 62.64C54.0733 62.4 54.5293 62.28 55.0173 62.28ZM65.542 65.532C65.542 65.78 65.526 66.004 65.494 66.204H60.442C60.482 66.732 60.678 67.156 61.03 67.476C61.382 67.796 61.814 67.956 62.326 67.956C63.062 67.956 63.582 67.648 63.886 67.032H65.362C65.162 67.64 64.798 68.14 64.27 68.532C63.75 68.916 63.102 69.108 62.326 69.108C61.694 69.108 61.126 68.968 60.622 68.688C60.126 68.4 59.734 68 59.446 67.488C59.166 66.968 59.026 66.368 59.026 65.688C59.026 65.008 59.162 64.412 59.434 63.9C59.714 63.38 60.102 62.98 60.598 62.7C61.102 62.42 61.678 62.28 62.326 62.28C62.95 62.28 63.506 62.416 63.994 62.688C64.482 62.96 64.862 63.344 65.134 63.84C65.406 64.328 65.542 64.892 65.542 65.532ZM64.114 65.1C64.106 64.596 63.926 64.192 63.574 63.888C63.222 63.584 62.786 63.432 62.266 63.432C61.794 63.432 61.39 63.584 61.054 63.888C60.718 64.184 60.518 64.588 60.454 65.1H64.114Z" fill="black"/>
<path d="M37.752 99H36.384L32.268 92.772V99H30.9V90.648H32.268L36.384 96.864V90.648H37.752V99ZM45.6084 95.532C45.6084 95.78 45.5924 96.004 45.5604 96.204H40.5084C40.5484 96.732 40.7444 97.156 41.0964 97.476C41.4484 97.796 41.8804 97.956 42.3924 97.956C43.1284 97.956 43.6484 97.648 43.9524 97.032H45.4284C45.2284 97.64 44.8644 98.14 44.3364 98.532C43.8164 98.916 43.1684 99.108 42.3924 99.108C41.7604 99.108 41.1924 98.968 40.6884 98.688C40.1924 98.4 39.8004 98 39.5124 97.488C39.2324 96.968 39.0924 96.368 39.0924 95.688C39.0924 95.008 39.2284 94.412 39.5004 93.9C39.7804 93.38 40.1684 92.98 40.6644 92.7C41.1684 92.42 41.7444 92.28 42.3924 92.28C43.0164 92.28 43.5724 92.416 44.0604 92.688C44.5484 92.96 44.9284 93.344 45.2004 93.84C45.4724 94.328 45.6084 94.892 45.6084 95.532ZM44.1804 95.1C44.1724 94.596 43.9924 94.192 43.6404 93.888C43.2884 93.584 42.8524 93.432 42.3324 93.432C41.8604 93.432 41.4564 93.584 41.1204 93.888C40.7844 94.184 40.5844 94.588 40.5204 95.1H44.1804ZM55.8347 92.388L53.7827 99H52.3427L51.0107 94.116L49.6787 99H48.2387L46.1747 92.388H47.5667L48.9467 97.704L50.3507 92.388H51.7787L53.1227 97.68L54.4907 92.388H55.8347ZM62.7462 93.504H61.5222V99H60.1422V93.504H59.3622V92.388H60.1422V91.92C60.1422 91.16 60.3422 90.608 60.7422 90.264C61.1502 89.912 61.7862 89.736 62.6502 89.736V90.876C62.2342 90.876 61.9422 90.956 61.7742 91.116C61.6062 91.268 61.5222 91.536 61.5222 91.92V92.388H62.7462V93.504ZM64.6546 91.512C64.4066 91.512 64.1986 91.428 64.0306 91.26C63.8626 91.092 63.7786 90.884 63.7786 90.636C63.7786 90.388 63.8626 90.18 64.0306 90.012C64.1986 89.844 64.4066 89.76 64.6546 89.76C64.8946 89.76 65.0986 89.844 65.2666 90.012C65.4346 90.18 65.5186 90.388 65.5186 90.636C65.5186 90.884 65.4346 91.092 65.2666 91.26C65.0986 91.428 64.8946 91.512 64.6546 91.512ZM65.3266 92.388V99H63.9586V92.388H65.3266ZM68.4907 90.12V99H67.1227V90.12H68.4907ZM76.3467 95.532C76.3467 95.78 76.3307 96.004 76.2987 96.204H71.2467C71.2867 96.732 71.4827 97.156 71.8347 97.476C72.1867 97.796 72.6187 97.956 73.1307 97.956C73.8667 97.956 74.3867 97.648 74.6907 97.032H76.1667C75.9667 97.64 75.6027 98.14 75.0747 98.532C74.5547 98.916 73.9067 99.108 73.1307 99.108C72.4987 99.108 71.9307 98.968 71.4267 98.688C70.9307 98.4 70.5387 98 70.2507 97.488C69.9707 96.968 69.8307 96.368 69.8307 95.688C69.8307 95.008 69.9667 94.412 70.2387 93.9C70.5187 93.38 70.9067 92.98 71.4027 92.7C71.9067 92.42 72.4827 92.28 73.1307 92.28C73.7547 92.28 74.3107 92.416 74.7987 92.688C75.2867 92.96 75.6667 93.344 75.9387 93.84C76.2107 94.328 76.3467 94.892 76.3467 95.532ZM74.9187 95.1C74.9107 94.596 74.7307 94.192 74.3787 93.888C74.0267 93.584 73.5907 93.432 73.0707 93.432C72.5987 93.432 72.1947 93.584 71.8587 93.888C71.5227 94.184 71.3227 94.588 71.2587 95.1H74.9187Z" fill="black"/>
<path d="M9 95C9 94.4477 9.44772 94 10 94H20C20.5523 94 21 94.4477 21 95V95C21 95.5523 20.5523 96 20 96H10C9.44772 96 9 95.5523 9 95V95Z" fill="black"/>
<path d="M15 89C15.5523 89 16 89.4477 16 90L16 100C16 100.552 15.5523 101 15 101V101C14.4477 101 14 100.552 14 100L14 90C14 89.4477 14.4477 89 15 89V89Z" fill="black"/>
<path d="M33.648 159.084C33.088 159.084 32.584 158.988 32.136 158.796C31.688 158.596 31.336 158.316 31.08 157.956C30.824 157.596 30.696 157.176 30.696 156.696H32.16C32.192 157.056 32.332 157.352 32.58 157.584C32.836 157.816 33.192 157.932 33.648 157.932C34.12 157.932 34.488 157.82 34.752 157.596C35.016 157.364 35.148 157.068 35.148 156.708C35.148 156.428 35.064 156.2 34.896 156.024C34.736 155.848 34.532 155.712 34.284 155.616C34.044 155.52 33.708 155.416 33.276 155.304C32.732 155.16 32.288 155.016 31.944 154.872C31.608 154.72 31.32 154.488 31.08 154.176C30.84 153.864 30.72 153.448 30.72 152.928C30.72 152.448 30.84 152.028 31.08 151.668C31.32 151.308 31.656 151.032 32.088 150.84C32.52 150.648 33.02 150.552 33.588 150.552C34.396 150.552 35.056 150.756 35.568 151.164C36.088 151.564 36.376 152.116 36.432 152.82H34.92C34.896 152.516 34.752 152.256 34.488 152.04C34.224 151.824 33.876 151.716 33.444 151.716C33.052 151.716 32.732 151.816 32.484 152.016C32.236 152.216 32.112 152.504 32.112 152.88C32.112 153.136 32.188 153.348 32.34 153.516C32.5 153.676 32.7 153.804 32.94 153.9C33.18 153.996 33.508 154.1 33.924 154.212C34.476 154.364 34.924 154.516 35.268 154.668C35.62 154.82 35.916 155.056 36.156 155.376C36.404 155.688 36.528 156.108 36.528 156.636C36.528 157.06 36.412 157.46 36.18 157.836C35.956 158.212 35.624 158.516 35.184 158.748C34.752 158.972 34.24 159.084 33.648 159.084ZM37.6862 155.664C37.6862 155 37.8222 154.412 38.0942 153.9C38.3742 153.388 38.7502 152.992 39.2222 152.712C39.7022 152.424 40.2302 152.28 40.8062 152.28C41.3262 152.28 41.7782 152.384 42.1622 152.592C42.5542 152.792 42.8662 153.044 43.0982 153.348V152.388H44.4782V159H43.0982V158.016C42.8662 158.328 42.5502 158.588 42.1502 158.796C41.7502 159.004 41.2942 159.108 40.7822 159.108C40.2142 159.108 39.6942 158.964 39.2222 158.676C38.7502 158.38 38.3742 157.972 38.0942 157.452C37.8222 156.924 37.6862 156.328 37.6862 155.664ZM43.0982 155.688C43.0982 155.232 43.0022 154.836 42.8102 154.5C42.6262 154.164 42.3822 153.908 42.0782 153.732C41.7742 153.556 41.4462 153.468 41.0942 153.468C40.7422 153.468 40.4142 153.556 40.1102 153.732C39.8062 153.9 39.5582 154.152 39.3662 154.488C39.1822 154.816 39.0902 155.208 39.0902 155.664C39.0902 156.12 39.1822 156.52 39.3662 156.864C39.5582 157.208 39.8062 157.472 40.1102 157.656C40.4222 157.832 40.7502 157.92 41.0942 157.92C41.4462 157.92 41.7742 157.832 42.0782 157.656C42.3822 157.48 42.6262 157.224 42.8102 156.888C43.0022 156.544 43.0982 156.144 43.0982 155.688ZM48.831 157.776L50.703 152.388H52.155L49.635 159H48.003L45.495 152.388H46.959L48.831 157.776ZM59.2491 155.532C59.2491 155.78 59.2331 156.004 59.2011 156.204H54.1491C54.1891 156.732 54.3851 157.156 54.7371 157.476C55.0891 157.796 55.5211 157.956 56.0331 157.956C56.7691 157.956 57.2891 157.648 57.5931 157.032H59.0691C58.8691 157.64 58.5051 158.14 57.9771 158.532C57.4571 158.916 56.8091 159.108 56.0331 159.108C55.4011 159.108 54.8331 158.968 54.3291 158.688C53.8331 158.4 53.4411 158 53.1531 157.488C52.8731 156.968 52.7331 156.368 52.7331 155.688C52.7331 155.008 52.8691 154.412 53.1411 153.9C53.4211 153.38 53.8091 152.98 54.3051 152.7C54.8091 152.42 55.3851 152.28 56.0331 152.28C56.6571 152.28 57.2131 152.416 57.7011 152.688C58.1891 152.96 58.5691 153.344 58.8411 153.84C59.1131 154.328 59.2491 154.892 59.2491 155.532ZM57.8211 155.1C57.8131 154.596 57.6331 154.192 57.2811 153.888C56.9291 153.584 56.4931 153.432 55.9731 153.432C55.5011 153.432 55.0971 153.584 54.7611 153.888C54.4251 154.184 54.2251 154.588 54.1611 155.1H57.8211Z" fill="black"/>
<path d="M9 152C9 150.343 10.3431 149 12 149H15.7574C16.553 149 17.3161 149.316 17.8787 149.879L20.1213 152.121C20.6839 152.684 21 153.447 21 154.243V158C21 159.657 19.6569 161 18 161H12C10.3431 161 9 159.657 9 158V152Z" fill="black"/>
<rect x="12" y="156" width="6" height="2" rx="1" fill="#E6E6E6"/>
<path d="M34.704 129.084C33.928 129.084 33.212 128.904 32.556 128.544C31.908 128.176 31.392 127.668 31.008 127.02C30.632 126.364 30.444 125.628 30.444 124.812C30.444 123.996 30.632 123.264 31.008 122.616C31.392 121.968 31.908 121.464 32.556 121.104C33.212 120.736 33.928 120.552 34.704 120.552C35.488 120.552 36.204 120.736 36.852 121.104C37.508 121.464 38.024 121.968 38.4 122.616C38.776 123.264 38.964 123.996 38.964 124.812C38.964 125.628 38.776 126.364 38.4 127.02C38.024 127.668 37.508 128.176 36.852 128.544C36.204 128.904 35.488 129.084 34.704 129.084ZM34.704 127.896C35.256 127.896 35.748 127.772 36.18 127.524C36.612 127.268 36.948 126.908 37.188 126.444C37.436 125.972 37.56 125.428 37.56 124.812C37.56 124.196 37.436 123.656 37.188 123.192C36.948 122.728 36.612 122.372 36.18 122.124C35.748 121.876 35.256 121.752 34.704 121.752C34.152 121.752 33.66 121.876 33.228 122.124C32.796 122.372 32.456 122.728 32.208 123.192C31.968 123.656 31.848 124.196 31.848 124.812C31.848 125.428 31.968 125.972 32.208 126.444C32.456 126.908 32.796 127.268 33.228 127.524C33.66 127.772 34.152 127.896 34.704 127.896ZM41.6782 123.36C41.9102 123.056 42.2262 122.8 42.6262 122.592C43.0262 122.384 43.4782 122.28 43.9822 122.28C44.5582 122.28 45.0822 122.424 45.5542 122.712C46.0342 122.992 46.4102 123.388 46.6822 123.9C46.9542 124.412 47.0902 125 47.0902 125.664C47.0902 126.328 46.9542 126.924 46.6822 127.452C46.4102 127.972 46.0342 128.38 45.5542 128.676C45.0822 128.964 44.5582 129.108 43.9822 129.108C43.4782 129.108 43.0302 129.008 42.6382 128.808C42.2462 128.6 41.9262 128.344 41.6782 128.04V132.144H40.3102V122.388H41.6782V123.36ZM45.6982 125.664C45.6982 125.208 45.6022 124.816 45.4102 124.488C45.2262 124.152 44.9782 123.9 44.6662 123.732C44.3622 123.556 44.0342 123.468 43.6822 123.468C43.3382 123.468 43.0102 123.556 42.6982 123.732C42.3942 123.908 42.1462 124.164 41.9542 124.5C41.7702 124.836 41.6782 125.232 41.6782 125.688C41.6782 126.144 41.7702 126.544 41.9542 126.888C42.1462 127.224 42.3942 127.48 42.6982 127.656C43.0102 127.832 43.3382 127.92 43.6822 127.92C44.0342 127.92 44.3622 127.832 44.6662 127.656C44.9782 127.472 45.2262 127.208 45.4102 126.864C45.6022 126.52 45.6982 126.12 45.6982 125.664ZM54.503 125.532C54.503 125.78 54.487 126.004 54.455 126.204H49.403C49.443 126.732 49.639 127.156 49.991 127.476C50.343 127.796 50.775 127.956 51.287 127.956C52.023 127.956 52.543 127.648 52.847 127.032H54.323C54.123 127.64 53.759 128.14 53.231 128.532C52.711 128.916 52.063 129.108 51.287 129.108C50.655 129.108 50.087 128.968 49.583 128.688C49.087 128.4 48.695 128 48.407 127.488C48.127 126.968 47.987 126.368 47.987 125.688C47.987 125.008 48.123 124.412 48.395 123.9C48.675 123.38 49.063 122.98 49.559 122.7C50.063 122.42 50.639 122.28 51.287 122.28C51.911 122.28 52.467 122.416 52.955 122.688C53.443 122.96 53.823 123.344 54.095 123.84C54.367 124.328 54.503 124.892 54.503 125.532ZM53.075 125.1C53.067 124.596 52.887 124.192 52.535 123.888C52.183 123.584 51.747 123.432 51.227 123.432C50.755 123.432 50.351 123.584 50.015 123.888C49.679 124.184 49.479 124.588 49.415 125.1H53.075ZM59.1852 122.28C59.7052 122.28 60.1692 122.388 60.5772 122.604C60.9932 122.82 61.3172 123.14 61.5492 123.564C61.7812 123.988 61.8972 124.5 61.8972 125.1V129H60.5412V125.304C60.5412 124.712 60.3932 124.26 60.0972 123.948C59.8012 123.628 59.3972 123.468 58.8852 123.468C58.3732 123.468 57.9652 123.628 57.6612 123.948C57.3652 124.26 57.2172 124.712 57.2172 125.304V129H55.8492V122.388H57.2172V123.144C57.4412 122.872 57.7252 122.66 58.0692 122.508C58.4212 122.356 58.7932 122.28 59.1852 122.28Z" fill="black"/>
<path d="M9 122C9 120.343 10.3431 119 12 119H14C15.1046 119 16 119.895 16 121V121H18C19.6569 121 21 122.343 21 124V128C21 129.657 19.6569 131 18 131H12C10.3431 131 9 129.657 9 128V122Z" fill="black"/>
<rect x="12" y="125" width="6" height="2" rx="1" fill="#E6E6E6"/>
<rect x="16" y="123" width="6" height="2" rx="1" transform="rotate(90 16 123)" fill="#E6E6E6"/>
<path d="M30.444 184.812C30.444 183.996 30.632 183.264 31.008 182.616C31.392 181.968 31.908 181.464 32.556 181.104C33.212 180.736 33.928 180.552 34.704 180.552C35.592 180.552 36.38 180.772 37.068 181.212C37.764 181.644 38.268 182.26 38.58 183.06H36.936C36.72 182.62 36.42 182.292 36.036 182.076C35.652 181.86 35.208 181.752 34.704 181.752C34.152 181.752 33.66 181.876 33.228 182.124C32.796 182.372 32.456 182.728 32.208 183.192C31.968 183.656 31.848 184.196 31.848 184.812C31.848 185.428 31.968 185.968 32.208 186.432C32.456 186.896 32.796 187.256 33.228 187.512C33.66 187.76 34.152 187.884 34.704 187.884C35.208 187.884 35.652 187.776 36.036 187.56C36.42 187.344 36.72 187.016 36.936 186.576H38.58C38.268 187.376 37.764 187.992 37.068 188.424C36.38 188.856 35.592 189.072 34.704 189.072C33.92 189.072 33.204 188.892 32.556 188.532C31.908 188.164 31.392 187.656 31.008 187.008C30.632 186.36 30.444 185.628 30.444 184.812ZM43.0493 189.108C42.4253 189.108 41.8613 188.968 41.3573 188.688C40.8533 188.4 40.4573 188 40.1693 187.488C39.8813 186.968 39.7373 186.368 39.7373 185.688C39.7373 185.016 39.8853 184.42 40.1813 183.9C40.4773 183.38 40.8813 182.98 41.3933 182.7C41.9053 182.42 42.4773 182.28 43.1093 182.28C43.7413 182.28 44.3133 182.42 44.8253 182.7C45.3373 182.98 45.7413 183.38 46.0373 183.9C46.3333 184.42 46.4813 185.016 46.4813 185.688C46.4813 186.36 46.3293 186.956 46.0253 187.476C45.7213 187.996 45.3053 188.4 44.7773 188.688C44.2573 188.968 43.6813 189.108 43.0493 189.108ZM43.0493 187.92C43.4013 187.92 43.7293 187.836 44.0333 187.668C44.3453 187.5 44.5973 187.248 44.7893 186.912C44.9813 186.576 45.0773 186.168 45.0773 185.688C45.0773 185.208 44.9853 184.804 44.8013 184.476C44.6173 184.14 44.3733 183.888 44.0693 183.72C43.7653 183.552 43.4373 183.468 43.0853 183.468C42.7333 183.468 42.4053 183.552 42.1013 183.72C41.8053 183.888 41.5693 184.14 41.3933 184.476C41.2173 184.804 41.1293 185.208 41.1293 185.688C41.1293 186.4 41.3093 186.952 41.6693 187.344C42.0373 187.728 42.4973 187.92 43.0493 187.92ZM49.2016 180.12V189H47.8336V180.12H49.2016ZM53.8657 189.108C53.2417 189.108 52.6777 188.968 52.1737 188.688C51.6697 188.4 51.2737 188 50.9857 187.488C50.6977 186.968 50.5537 186.368 50.5537 185.688C50.5537 185.016 50.7017 184.42 50.9977 183.9C51.2937 183.38 51.6977 182.98 52.2097 182.7C52.7217 182.42 53.2937 182.28 53.9257 182.28C54.5577 182.28 55.1297 182.42 55.6417 182.7C56.1537 182.98 56.5577 183.38 56.8537 183.9C57.1497 184.42 57.2977 185.016 57.2977 185.688C57.2977 186.36 57.1457 186.956 56.8417 187.476C56.5377 187.996 56.1217 188.4 55.5937 188.688C55.0737 188.968 54.4977 189.108 53.8657 189.108ZM53.8657 187.92C54.2177 187.92 54.5457 187.836 54.8497 187.668C55.1617 187.5 55.4137 187.248 55.6057 186.912C55.7977 186.576 55.8937 186.168 55.8937 185.688C55.8937 185.208 55.8017 184.804 55.6177 184.476C55.4337 184.14 55.1897 183.888 54.8857 183.72C54.5817 183.552 54.2537 183.468 53.9017 183.468C53.5497 183.468 53.2217 183.552 52.9177 183.72C52.6217 183.888 52.3857 184.14 52.2097 184.476C52.0337 184.804 51.9457 185.208 51.9457 185.688C51.9457 186.4 52.1257 186.952 52.4857 187.344C52.8537 187.728 53.3137 187.92 53.8657 187.92ZM60.018 183.348C60.218 183.012 60.482 182.752 60.81 182.568C61.146 182.376 61.542 182.28 61.998 182.28V183.696H61.65C61.114 183.696 60.706 183.832 60.426 184.104C60.154 184.376 60.018 184.848 60.018 185.52V189H58.65V182.388H60.018V183.348Z" fill="black"/>
<rect x="14" y="183" width="7" height="7" rx="3.5" fill="#6F6F6F"/>
<rect x="14" y="178" width="7" height="7" rx="3.5" fill="#373737"/>
<path d="M9 184C9 182.067 10.567 180.5 12.5 180.5V180.5C14.433 180.5 16 182.067 16 184V184C16 185.933 14.433 187.5 12.5 187.5V187.5C10.567 187.5 9 185.933 9 184V184Z" fill="black"/>
<path d="M36.288 210.66V211.776H34.068V219H32.7V211.776H30.468V210.66H36.288ZM40.5414 219.108C39.9174 219.108 39.3534 218.968 38.8494 218.688C38.3454 218.4 37.9494 218 37.6614 217.488C37.3734 216.968 37.2294 216.368 37.2294 215.688C37.2294 215.016 37.3774 214.42 37.6734 213.9C37.9694 213.38 38.3734 212.98 38.8854 212.7C39.3974 212.42 39.9694 212.28 40.6014 212.28C41.2334 212.28 41.8054 212.42 42.3174 212.7C42.8294 212.98 43.2334 213.38 43.5294 213.9C43.8254 214.42 43.9734 215.016 43.9734 215.688C43.9734 216.36 43.8214 216.956 43.5174 217.476C43.2134 217.996 42.7974 218.4 42.2694 218.688C41.7494 218.968 41.1734 219.108 40.5414 219.108ZM40.5414 217.92C40.8934 217.92 41.2214 217.836 41.5254 217.668C41.8374 217.5 42.0894 217.248 42.2814 216.912C42.4734 216.576 42.5694 216.168 42.5694 215.688C42.5694 215.208 42.4774 214.804 42.2934 214.476C42.1094 214.14 41.8654 213.888 41.5614 213.72C41.2574 213.552 40.9294 213.468 40.5774 213.468C40.2254 213.468 39.8974 213.552 39.5934 213.72C39.2974 213.888 39.0614 214.14 38.8854 214.476C38.7094 214.804 38.6214 215.208 38.6214 215.688C38.6214 216.4 38.8014 216.952 39.1614 217.344C39.5294 217.728 39.9894 217.92 40.5414 217.92ZM48.1938 219.108C47.5698 219.108 47.0058 218.968 46.5018 218.688C45.9978 218.4 45.6018 218 45.3138 217.488C45.0258 216.968 44.8818 216.368 44.8818 215.688C44.8818 215.016 45.0298 214.42 45.3258 213.9C45.6218 213.38 46.0258 212.98 46.5378 212.7C47.0498 212.42 47.6218 212.28 48.2538 212.28C48.8858 212.28 49.4578 212.42 49.9698 212.7C50.4818 212.98 50.8858 213.38 51.1818 213.9C51.4778 214.42 51.6258 215.016 51.6258 215.688C51.6258 216.36 51.4738 216.956 51.1698 217.476C50.8658 217.996 50.4498 218.4 49.9218 218.688C49.4018 218.968 48.8258 219.108 48.1938 219.108ZM48.1938 217.92C48.5458 217.92 48.8738 217.836 49.1778 217.668C49.4898 217.5 49.7418 217.248 49.9338 216.912C50.1258 216.576 50.2218 216.168 50.2218 215.688C50.2218 215.208 50.1298 214.804 49.9458 214.476C49.7618 214.14 49.5178 213.888 49.2138 213.72C48.9098 213.552 48.5818 213.468 48.2298 213.468C47.8778 213.468 47.5498 213.552 47.2458 213.72C46.9498 213.888 46.7138 214.14 46.5378 214.476C46.3618 214.804 46.2738 215.208 46.2738 215.688C46.2738 216.4 46.4538 216.952 46.8138 217.344C47.1818 217.728 47.6418 217.92 48.1938 217.92ZM54.3461 210.12V219H52.9781V210.12H54.3461Z" fill="black"/>
<rect x="16.4141" y="210.757" width="4" height="7" transform="rotate(45 16.4141 210.757)" fill="black"/>
<path d="M17.8283 209.343C18.2188 208.953 18.852 208.953 19.2425 209.343L20.6567 210.757C21.0472 211.148 21.0472 211.781 20.6567 212.172L19.9496 212.879L17.1212 210.05L17.8283 209.343Z" fill="black"/>
<path d="M10.7856 219.803C10.4357 219.873 10.1273 219.564 10.1972 219.214L10.7573 216.414L13.5857 219.243L10.7856 219.803Z" fill="black"/>
</svg>
