<svg xmlns="http://www.w3.org/2000/svg" fill="none" viewBox="0 0 80 30" height="30" width="80">
<rect fill-opacity="0.25" fill="black" rx="15" height="30" width="80"></rect>
<path fill="white" d="M19.5341 10.66V11.776H17.3141V19H15.9461V11.776H13.7141V10.66H19.5341ZM26.9795 15.532C26.9795 15.78 26.9635 16.004 26.9315 16.204H21.8795C21.9195 16.732 22.1155 17.156 22.4675 17.476C22.8195 17.796 23.2515 17.956 23.7635 17.956C24.4995 17.956 25.0195 17.648 25.3235 17.032H26.7995C26.5995 17.64 26.2355 18.14 25.7075 18.532C25.1875 18.916 24.5395 19.108 23.7635 19.108C23.1315 19.108 22.5635 18.968 22.0595 18.688C21.5635 18.4 21.1715 18 20.8835 17.488C20.6035 16.968 20.4635 16.368 20.4635 15.688C20.4635 15.008 20.5995 14.412 20.8715 13.9C21.1515 13.38 21.5395 12.98 22.0355 12.7C22.5395 12.42 23.1155 12.28 23.7635 12.28C24.3875 12.28 24.9435 12.416 25.4315 12.688C25.9195 12.96 26.2995 13.344 26.5715 13.84C26.8435 14.328 26.9795 14.892 26.9795 15.532ZM25.5515 15.1C25.5435 14.596 25.3635 14.192 25.0115 13.888C24.6595 13.584 24.2235 13.432 23.7035 13.432C23.2315 13.432 22.8275 13.584 22.4915 13.888C22.1555 14.184 21.9555 14.588 21.8915 15.1H25.5515ZM29.6938 13.348C29.8938 13.012 30.1578 12.752 30.4858 12.568C30.8218 12.376 31.2178 12.28 31.6738 12.28V13.696H31.3258C30.7898 13.696 30.3818 13.832 30.1018 14.104C29.8298 14.376 29.6938 14.848 29.6938 15.52V19H28.3258V12.388H29.6938V13.348ZM40.9353 12.28C41.4553 12.28 41.9193 12.388 42.3273 12.604C42.7433 12.82 43.0673 13.14 43.2993 13.564C43.5393 13.988 43.6593 14.5 43.6593 15.1V19H42.3033V15.304C42.3033 14.712 42.1553 14.26 41.8593 13.948C41.5633 13.628 41.1593 13.468 40.6473 13.468C40.1353 13.468 39.7273 13.628 39.4233 13.948C39.1273 14.26 38.9793 14.712 38.9793 15.304V19H37.6233V15.304C37.6233 14.712 37.4753 14.26 37.1793 13.948C36.8833 13.628 36.4793 13.468 35.9673 13.468C35.4553 13.468 35.0473 13.628 34.7433 13.948C34.4473 14.26 34.2993 14.712 34.2993 15.304V19H32.9313V12.388H34.2993V13.144C34.5233 12.872 34.8073 12.66 35.1513 12.508C35.4953 12.356 35.8633 12.28 36.2553 12.28C36.7833 12.28 37.2553 12.392 37.6713 12.616C38.0873 12.84 38.4073 13.164 38.6313 13.588C38.8313 13.188 39.1433 12.872 39.5673 12.64C39.9913 12.4 40.4473 12.28 40.9353 12.28ZM46.096 11.512C45.848 11.512 45.64 11.428 45.472 11.26C45.304 11.092 45.22 10.884 45.22 10.636C45.22 10.388 45.304 10.18 45.472 10.012C45.64 9.844 45.848 9.76 46.096 9.76C46.336 9.76 46.54 9.844 46.708 10.012C46.876 10.18 46.96 10.388 46.96 10.636C46.96 10.884 46.876 11.092 46.708 11.26C46.54 11.428 46.336 11.512 46.096 11.512ZM46.768 12.388V19H45.4V12.388H46.768ZM51.9001 12.28C52.4201 12.28 52.8841 12.388 53.2921 12.604C53.7081 12.82 54.0321 13.14 54.2641 13.564C54.4961 13.988 54.6121 14.5 54.6121 15.1V19H53.2561V15.304C53.2561 14.712 53.1081 14.26 52.8121 13.948C52.5161 13.628 52.1121 13.468 51.6001 13.468C51.0881 13.468 50.6801 13.628 50.3761 13.948C50.0801 14.26 49.9321 14.712 49.9321 15.304V19H48.5641V12.388H49.9321V13.144C50.1561 12.872 50.4401 12.66 50.7841 12.508C51.1361 12.356 51.5081 12.28 51.9001 12.28ZM55.901 15.664C55.901 15 56.037 14.412 56.309 13.9C56.589 13.388 56.965 12.992 57.437 12.712C57.917 12.424 58.445 12.28 59.021 12.28C59.541 12.28 59.993 12.384 60.377 12.592C60.769 12.792 61.081 13.044 61.313 13.348V12.388H62.693V19H61.313V18.016C61.081 18.328 60.765 18.588 60.365 18.796C59.965 19.004 59.509 19.108 58.997 19.108C58.429 19.108 57.909 18.964 57.437 18.676C56.965 18.38 56.589 17.972 56.309 17.452C56.037 16.924 55.901 16.328 55.901 15.664ZM61.313 15.688C61.313 15.232 61.217 14.836 61.025 14.5C60.841 14.164 60.597 13.908 60.293 13.732C59.989 13.556 59.661 13.468 59.309 13.468C58.957 13.468 58.629 13.556 58.325 13.732C58.021 13.9 57.773 14.152 57.581 14.488C57.397 14.816 57.305 15.208 57.305 15.664C57.305 16.12 57.397 16.52 57.581 16.864C57.773 17.208 58.021 17.472 58.325 17.656C58.637 17.832 58.965 17.92 59.309 17.92C59.661 17.92 59.989 17.832 60.293 17.656C60.597 17.48 60.841 17.224 61.025 16.888C61.217 16.544 61.313 16.144 61.313 15.688ZM65.8578 10.12V19H64.4898V10.12H65.8578Z"></path>
</svg>
