<svg width="480" height="360" viewBox="0 0 480 360" fill="none" xmlns="http://www.w3.org/2000/svg">
<path d="M217.904 28.728H213.248L212.448 31H210.544L214.528 19.864H216.64L220.624 31H218.704L217.904 28.728ZM217.392 27.24L215.584 22.072L213.76 27.24H217.392ZM224.18 23.48C224.49 23.0747 224.911 22.7333 225.444 22.456C225.978 22.1787 226.58 22.04 227.252 22.04C228.02 22.04 228.719 22.232 229.348 22.616C229.988 22.9893 230.49 23.5173 230.852 24.2C231.215 24.8827 231.396 25.6667 231.396 26.552C231.396 27.4373 231.215 28.232 230.852 28.936C230.49 29.6293 229.988 30.1733 229.348 30.568C228.719 30.952 228.02 31.144 227.252 31.144C226.58 31.144 225.983 31.0107 225.46 30.744C224.938 30.4667 224.511 30.1253 224.18 29.72V35.192H222.356V22.184H224.18V23.48ZM229.54 26.552C229.54 25.944 229.412 25.4213 229.156 24.984C228.911 24.536 228.58 24.2 228.164 23.976C227.759 23.7413 227.322 23.624 226.852 23.624C226.394 23.624 225.956 23.7413 225.54 23.976C225.135 24.2107 224.804 24.552 224.548 25C224.303 25.448 224.18 25.976 224.18 26.584C224.18 27.192 224.303 27.7253 224.548 28.184C224.804 28.632 225.135 28.9733 225.54 29.208C225.956 29.4427 226.394 29.56 226.852 29.56C227.322 29.56 227.759 29.4427 228.164 29.208C228.58 28.9627 228.911 28.6107 229.156 28.152C229.412 27.6933 229.54 27.16 229.54 26.552ZM235.024 23.48C235.333 23.0747 235.755 22.7333 236.288 22.456C236.821 22.1787 237.424 22.04 238.096 22.04C238.864 22.04 239.563 22.232 240.192 22.616C240.832 22.9893 241.333 23.5173 241.696 24.2C242.059 24.8827 242.24 25.6667 242.24 26.552C242.24 27.4373 242.059 28.232 241.696 28.936C241.333 29.6293 240.832 30.1733 240.192 30.568C239.563 30.952 238.864 31.144 238.096 31.144C237.424 31.144 236.827 31.0107 236.304 30.744C235.781 30.4667 235.355 30.1253 235.024 29.72V35.192H233.2V22.184H235.024V23.48ZM240.384 26.552C240.384 25.944 240.256 25.4213 240 24.984C239.755 24.536 239.424 24.2 239.008 23.976C238.603 23.7413 238.165 23.624 237.696 23.624C237.237 23.624 236.8 23.7413 236.384 23.976C235.979 24.2107 235.648 24.552 235.392 25C235.147 25.448 235.024 25.976 235.024 26.584C235.024 27.192 235.147 27.7253 235.392 28.184C235.648 28.632 235.979 28.9733 236.384 29.208C236.8 29.4427 237.237 29.56 237.696 29.56C238.165 29.56 238.603 29.4427 239.008 29.208C239.424 28.9627 239.755 28.6107 240 28.152C240.256 27.6933 240.384 27.16 240.384 26.552ZM247.244 31.144C246.55 31.144 245.926 31.0213 245.372 30.776C244.828 30.52 244.396 30.1787 244.076 29.752C243.756 29.3147 243.585 28.8293 243.564 28.296H245.452C245.484 28.6693 245.66 28.984 245.98 29.24C246.31 29.4853 246.721 29.608 247.212 29.608C247.724 29.608 248.118 29.512 248.396 29.32C248.684 29.1173 248.828 28.8613 248.828 28.552C248.828 28.2213 248.668 27.976 248.348 27.816C248.038 27.656 247.542 27.48 246.86 27.288C246.198 27.1067 245.66 26.9307 245.244 26.76C244.828 26.5893 244.465 26.328 244.156 25.976C243.857 25.624 243.708 25.16 243.708 24.584C243.708 24.1147 243.846 23.688 244.124 23.304C244.401 22.9093 244.796 22.6 245.308 22.376C245.83 22.152 246.428 22.04 247.1 22.04C248.102 22.04 248.908 22.296 249.516 22.808C250.134 23.3093 250.465 23.9973 250.508 24.872H248.684C248.652 24.4773 248.492 24.1627 248.204 23.928C247.916 23.6933 247.526 23.576 247.036 23.576C246.556 23.576 246.188 23.6667 245.932 23.848C245.676 24.0293 245.548 24.2693 245.548 24.568C245.548 24.8027 245.633 25 245.804 25.16C245.974 25.32 246.182 25.448 246.428 25.544C246.673 25.6293 247.036 25.7413 247.516 25.88C248.156 26.0507 248.678 26.2267 249.084 26.408C249.5 26.5787 249.857 26.8347 250.156 27.176C250.454 27.5173 250.609 27.9707 250.62 28.536C250.62 29.0373 250.481 29.4853 250.204 29.88C249.926 30.2747 249.532 30.584 249.02 30.808C248.518 31.032 247.926 31.144 247.244 31.144ZM265.339 31L263.963 29.624C263.43 30.1573 262.848 30.5573 262.219 30.824C261.59 31.08 260.886 31.208 260.107 31.208C259.318 31.208 258.619 31.0693 258.011 30.792C257.403 30.5147 256.934 30.12 256.603 29.608C256.272 29.0853 256.107 28.4827 256.107 27.8C256.107 27.032 256.326 26.3493 256.763 25.752C257.2 25.144 257.851 24.664 258.715 24.312C258.406 23.9387 258.187 23.592 258.059 23.272C257.931 22.9413 257.867 22.5787 257.867 22.184C257.867 21.6933 257.99 21.256 258.235 20.872C258.491 20.488 258.854 20.184 259.323 19.96C259.792 19.736 260.336 19.624 260.955 19.624C261.584 19.624 262.118 19.7467 262.555 19.992C263.003 20.2267 263.334 20.552 263.547 20.968C263.771 21.384 263.862 21.848 263.819 22.36H261.995C262.006 21.9653 261.91 21.6613 261.707 21.448C261.504 21.224 261.227 21.112 260.875 21.112C260.523 21.112 260.235 21.2187 260.011 21.432C259.798 21.6347 259.691 21.8853 259.691 22.184C259.691 22.472 259.771 22.76 259.931 23.048C260.102 23.3253 260.395 23.688 260.811 24.136L263.755 27.064L264.891 25.192H266.859L265.419 27.656L265.019 28.312L267.723 31H265.339ZM260.107 29.656C261.11 29.656 261.995 29.2453 262.763 28.424L259.819 25.464C258.56 25.9653 257.931 26.7227 257.931 27.736C257.931 28.28 258.134 28.7387 258.539 29.112C258.944 29.4747 259.467 29.656 260.107 29.656ZM276.627 22.04C277.31 22.04 277.912 22.1787 278.435 22.456C278.968 22.7227 279.384 23.0587 279.683 23.464V22.184H281.523V31.144C281.523 31.9547 281.352 32.6747 281.011 33.304C280.67 33.944 280.174 34.4453 279.523 34.808C278.883 35.1707 278.115 35.352 277.219 35.352C276.024 35.352 275.032 35.0693 274.243 34.504C273.454 33.9493 273.006 33.192 272.899 32.232H274.707C274.846 32.6907 275.139 33.0587 275.587 33.336C276.046 33.624 276.59 33.768 277.219 33.768C277.955 33.768 278.547 33.544 278.995 33.096C279.454 32.648 279.683 31.9973 279.683 31.144V29.672C279.374 30.088 278.952 30.44 278.419 30.728C277.896 31.0053 277.299 31.144 276.627 31.144C275.859 31.144 275.155 30.952 274.515 30.568C273.886 30.1733 273.384 29.6293 273.011 28.936C272.648 28.232 272.467 27.4373 272.467 26.552C272.467 25.6667 272.648 24.8827 273.011 24.2C273.384 23.5173 273.886 22.9893 274.515 22.616C275.155 22.232 275.859 22.04 276.627 22.04ZM279.683 26.584C279.683 25.976 279.555 25.448 279.299 25C279.054 24.552 278.728 24.2107 278.323 23.976C277.918 23.7413 277.48 23.624 277.011 23.624C276.542 23.624 276.104 23.7413 275.699 23.976C275.294 24.2 274.963 24.536 274.707 24.984C274.462 25.4213 274.339 25.944 274.339 26.552C274.339 27.16 274.462 27.6933 274.707 28.152C274.963 28.6107 275.294 28.9627 275.699 29.208C276.115 29.4427 276.552 29.56 277.011 29.56C277.48 29.56 277.918 29.4427 278.323 29.208C278.728 28.9733 279.054 28.632 279.299 28.184C279.555 27.7253 279.683 27.192 279.683 26.584ZM283.311 26.552C283.311 25.6667 283.492 24.8827 283.855 24.2C284.228 23.5173 284.729 22.9893 285.359 22.616C285.999 22.232 286.703 22.04 287.471 22.04C288.164 22.04 288.767 22.1787 289.279 22.456C289.801 22.7227 290.217 23.0587 290.527 23.464V22.184H292.367V31H290.527V29.688C290.217 30.104 289.796 30.4507 289.263 30.728C288.729 31.0053 288.121 31.144 287.439 31.144C286.681 31.144 285.988 30.952 285.359 30.568C284.729 30.1733 284.228 29.6293 283.855 28.936C283.492 28.232 283.311 27.4373 283.311 26.552ZM290.527 26.584C290.527 25.976 290.399 25.448 290.143 25C289.897 24.552 289.572 24.2107 289.167 23.976C288.761 23.7413 288.324 23.624 287.855 23.624C287.385 23.624 286.948 23.7413 286.543 23.976C286.137 24.2 285.807 24.536 285.551 24.984C285.305 25.4213 285.183 25.944 285.183 26.552C285.183 27.16 285.305 27.6933 285.551 28.152C285.807 28.6107 286.137 28.9627 286.543 29.208C286.959 29.4427 287.396 29.56 287.855 29.56C288.324 29.56 288.761 29.4427 289.167 29.208C289.572 28.9733 289.897 28.632 290.143 28.184C290.399 27.7253 290.527 27.192 290.527 26.584ZM305.435 22.04C306.128 22.04 306.747 22.184 307.291 22.472C307.845 22.76 308.277 23.1867 308.587 23.752C308.907 24.3173 309.067 25 309.067 25.8V31H307.259V26.072C307.259 25.2827 307.061 24.68 306.667 24.264C306.272 23.8373 305.733 23.624 305.051 23.624C304.368 23.624 303.824 23.8373 303.419 24.264C303.024 24.68 302.827 25.2827 302.827 26.072V31H301.019V26.072C301.019 25.2827 300.821 24.68 300.427 24.264C300.032 23.8373 299.493 23.624 298.811 23.624C298.128 23.624 297.584 23.8373 297.179 24.264C296.784 24.68 296.587 25.2827 296.587 26.072V31H294.763V22.184H296.587V23.192C296.885 22.8293 297.264 22.5467 297.723 22.344C298.181 22.1413 298.672 22.04 299.195 22.04C299.899 22.04 300.528 22.1893 301.083 22.488C301.637 22.7867 302.064 23.2187 302.363 23.784C302.629 23.2507 303.045 22.8293 303.611 22.52C304.176 22.2 304.784 22.04 305.435 22.04ZM319.468 26.376C319.468 26.7067 319.446 27.0053 319.404 27.272H312.668C312.721 27.976 312.982 28.5413 313.452 28.968C313.921 29.3947 314.497 29.608 315.18 29.608C316.161 29.608 316.854 29.1973 317.26 28.376H319.227C318.961 29.1867 318.476 29.8533 317.772 30.376C317.078 30.888 316.214 31.144 315.18 31.144C314.337 31.144 313.58 30.9573 312.908 30.584C312.246 30.2 311.724 29.6667 311.34 28.984C310.966 28.2907 310.78 27.4907 310.78 26.584C310.78 25.6773 310.961 24.8827 311.324 24.2C311.697 23.5067 312.214 22.9733 312.876 22.6C313.548 22.2267 314.316 22.04 315.18 22.04C316.012 22.04 316.753 22.2213 317.404 22.584C318.054 22.9467 318.561 23.4587 318.924 24.12C319.286 24.7707 319.468 25.5227 319.468 26.376ZM317.564 25.8C317.553 25.128 317.313 24.5893 316.844 24.184C316.374 23.7787 315.793 23.576 315.1 23.576C314.47 23.576 313.932 23.7787 313.484 24.184C313.036 24.5787 312.769 25.1173 312.684 25.8H317.564ZM324.463 31.144C323.769 31.144 323.145 31.0213 322.591 30.776C322.047 30.52 321.615 30.1787 321.295 29.752C320.975 29.3147 320.804 28.8293 320.783 28.296H322.671C322.703 28.6693 322.879 28.984 323.199 29.24C323.529 29.4853 323.94 29.608 324.431 29.608C324.943 29.608 325.337 29.512 325.615 29.32C325.903 29.1173 326.047 28.8613 326.047 28.552C326.047 28.2213 325.887 27.976 325.567 27.816C325.257 27.656 324.761 27.48 324.079 27.288C323.417 27.1067 322.879 26.9307 322.463 26.76C322.047 26.5893 321.684 26.328 321.375 25.976C321.076 25.624 320.927 25.16 320.927 24.584C320.927 24.1147 321.065 23.688 321.343 23.304C321.62 22.9093 322.015 22.6 322.527 22.376C323.049 22.152 323.647 22.04 324.319 22.04C325.321 22.04 326.127 22.296 326.735 22.808C327.353 23.3093 327.684 23.9973 327.727 24.872H325.903C325.871 24.4773 325.711 24.1627 325.423 23.928C325.135 23.6933 324.745 23.576 324.255 23.576C323.775 23.576 323.407 23.6667 323.151 23.848C322.895 24.0293 322.767 24.2693 322.767 24.568C322.767 24.8027 322.852 25 323.023 25.16C323.193 25.32 323.401 25.448 323.647 25.544C323.892 25.6293 324.255 25.7413 324.735 25.88C325.375 26.0507 325.897 26.2267 326.303 26.408C326.719 26.5787 327.076 26.8347 327.375 27.176C327.673 27.5173 327.828 27.9707 327.839 28.536C327.839 29.0373 327.7 29.4853 327.423 29.88C327.145 30.2747 326.751 30.584 326.239 30.808C325.737 31.032 325.145 31.144 324.463 31.144Z" fill="white"/>
<rect x="160" y="50" width="80" height="80" rx="15" fill="#191919"/>
<rect x="200" y="74" width="16" height="16" rx="8" fill="white"/>
<rect x="184" y="102" width="32" height="4" rx="2" fill="white"/>
<path d="M183.414 88.4855C182.633 87.7045 182.633 86.4381 183.414 85.6571V85.6571C184.195 84.876 185.462 84.876 186.243 85.6571L194.728 94.1424L197.556 91.3139C198.337 90.5329 199.604 90.5329 200.385 91.3139V91.3139C201.166 92.095 201.166 93.3613 200.385 94.1424L196.142 98.385C195.361 99.166 194.095 99.166 193.314 98.385L183.414 88.4855Z" fill="url(#paint0_linear_429_2)"/>
<path d="M268.976 63.192C268.976 63.7573 268.843 64.2907 268.576 64.792C268.309 65.2933 267.883 65.704 267.296 66.024C266.709 66.3333 265.957 66.488 265.04 66.488H263.024V71H261.2V59.88H265.04C265.893 59.88 266.613 60.0293 267.2 60.328C267.797 60.616 268.24 61.0107 268.528 61.512C268.827 62.0133 268.976 62.5733 268.976 63.192ZM265.04 65C265.733 65 266.251 64.8453 266.592 64.536C266.933 64.216 267.104 63.768 267.104 63.192C267.104 61.976 266.416 61.368 265.04 61.368H263.024V65H265.04ZM274.54 71.144C273.708 71.144 272.956 70.9573 272.284 70.584C271.612 70.2 271.084 69.6667 270.7 68.984C270.316 68.2907 270.124 67.4907 270.124 66.584C270.124 65.688 270.321 64.8933 270.716 64.2C271.11 63.5067 271.649 62.9733 272.332 62.6C273.014 62.2267 273.777 62.04 274.62 62.04C275.462 62.04 276.225 62.2267 276.908 62.6C277.59 62.9733 278.129 63.5067 278.524 64.2C278.918 64.8933 279.116 65.688 279.116 66.584C279.116 67.48 278.913 68.2747 278.508 68.968C278.102 69.6613 277.548 70.2 276.844 70.584C276.15 70.9573 275.382 71.144 274.54 71.144ZM274.54 69.56C275.009 69.56 275.446 69.448 275.852 69.224C276.268 69 276.604 68.664 276.86 68.216C277.116 67.768 277.244 67.224 277.244 66.584C277.244 65.944 277.121 65.4053 276.876 64.968C276.63 64.52 276.305 64.184 275.9 63.96C275.494 63.736 275.057 63.624 274.588 63.624C274.118 63.624 273.681 63.736 273.276 63.96C272.881 64.184 272.566 64.52 272.332 64.968C272.097 65.4053 271.98 65.944 271.98 66.584C271.98 67.5333 272.22 68.2693 272.7 68.792C273.19 69.304 273.804 69.56 274.54 69.56ZM285.367 62.04C286.06 62.04 286.679 62.184 287.223 62.472C287.777 62.76 288.209 63.1867 288.519 63.752C288.828 64.3173 288.983 65 288.983 65.8V71H287.175V66.072C287.175 65.2827 286.977 64.68 286.583 64.264C286.188 63.8373 285.649 63.624 284.967 63.624C284.284 63.624 283.74 63.8373 283.335 64.264C282.94 64.68 282.743 65.2827 282.743 66.072V71H280.919V62.184H282.743V63.192C283.041 62.8293 283.42 62.5467 283.879 62.344C284.348 62.1413 284.844 62.04 285.367 62.04ZM294.861 62.04C295.544 62.04 296.147 62.1787 296.669 62.456C297.203 62.7227 297.619 63.0587 297.917 63.464V62.184H299.757V71.144C299.757 71.9547 299.587 72.6747 299.245 73.304C298.904 73.944 298.408 74.4453 297.757 74.808C297.117 75.1707 296.349 75.352 295.453 75.352C294.259 75.352 293.267 75.0693 292.477 74.504C291.688 73.9493 291.24 73.192 291.133 72.232H292.941C293.08 72.6907 293.373 73.0587 293.821 73.336C294.28 73.624 294.824 73.768 295.453 73.768C296.189 73.768 296.781 73.544 297.229 73.096C297.688 72.648 297.917 71.9973 297.917 71.144V69.672C297.608 70.088 297.187 70.44 296.653 70.728C296.131 71.0053 295.533 71.144 294.861 71.144C294.093 71.144 293.389 70.952 292.749 70.568C292.12 70.1733 291.619 69.6293 291.245 68.936C290.883 68.232 290.701 67.4373 290.701 66.552C290.701 65.6667 290.883 64.8827 291.245 64.2C291.619 63.5173 292.12 62.9893 292.749 62.616C293.389 62.232 294.093 62.04 294.861 62.04ZM297.917 66.584C297.917 65.976 297.789 65.448 297.533 65C297.288 64.552 296.963 64.2107 296.557 63.976C296.152 63.7413 295.715 63.624 295.245 63.624C294.776 63.624 294.339 63.7413 293.933 63.976C293.528 64.2 293.197 64.536 292.941 64.984C292.696 65.4213 292.573 65.944 292.573 66.552C292.573 67.16 292.696 67.6933 292.941 68.152C293.197 68.6107 293.528 68.9627 293.933 69.208C294.349 69.4427 294.787 69.56 295.245 69.56C295.715 69.56 296.152 69.4427 296.557 69.208C296.963 68.9733 297.288 68.632 297.533 68.184C297.789 67.7253 297.917 67.192 297.917 66.584ZM308.789 67.752C308.405 67.752 308.053 67.6613 307.733 67.48C307.424 67.288 307.173 67.0373 306.981 66.728C306.8 66.408 306.709 66.056 306.709 65.672C306.709 65.0853 306.912 64.5893 307.317 64.184C307.723 63.7787 308.213 63.576 308.789 63.576C309.387 63.576 309.888 63.7787 310.293 64.184C310.699 64.5893 310.901 65.0853 310.901 65.672C310.901 66.2587 310.699 66.7547 310.293 67.16C309.888 67.5547 309.387 67.752 308.789 67.752ZM325.904 63.08C325.616 62.5253 325.216 62.1093 324.704 61.832C324.192 61.544 323.6 61.4 322.928 61.4C322.192 61.4 321.536 61.5653 320.96 61.896C320.384 62.2267 319.931 62.696 319.6 63.304C319.28 63.912 319.12 64.616 319.12 65.416C319.12 66.216 319.28 66.9253 319.6 67.544C319.931 68.152 320.384 68.6213 320.96 68.952C321.536 69.2827 322.192 69.448 322.928 69.448C323.92 69.448 324.726 69.1707 325.344 68.616C325.963 68.0613 326.342 67.3093 326.48 66.36H322.304V64.904H328.432V66.328C328.315 67.192 328.006 67.9867 327.504 68.712C327.014 69.4373 326.368 70.0187 325.568 70.456C324.779 70.8827 323.899 71.096 322.928 71.096C321.883 71.096 320.928 70.856 320.064 70.376C319.2 69.8853 318.512 69.208 318 68.344C317.499 67.48 317.248 66.504 317.248 65.416C317.248 64.328 317.499 63.352 318 62.488C318.512 61.624 319.2 60.952 320.064 60.472C320.939 59.9813 321.894 59.736 322.928 59.736C324.112 59.736 325.163 60.0293 326.08 60.616C327.008 61.192 327.68 62.0133 328.096 63.08H325.904ZM329.623 66.552C329.623 65.6667 329.805 64.8827 330.167 64.2C330.541 63.5173 331.042 62.9893 331.671 62.616C332.311 62.232 333.015 62.04 333.783 62.04C334.477 62.04 335.079 62.1787 335.591 62.456C336.114 62.7227 336.53 63.0587 336.839 63.464V62.184H338.679V71H336.839V69.688C336.53 70.104 336.109 70.4507 335.575 70.728C335.042 71.0053 334.434 71.144 333.751 71.144C332.994 71.144 332.301 70.952 331.671 70.568C331.042 70.1733 330.541 69.6293 330.167 68.936C329.805 68.232 329.623 67.4373 329.623 66.552ZM336.839 66.584C336.839 65.976 336.711 65.448 336.455 65C336.21 64.552 335.885 64.2107 335.479 63.976C335.074 63.7413 334.637 63.624 334.167 63.624C333.698 63.624 333.261 63.7413 332.855 63.976C332.45 64.2 332.119 64.536 331.863 64.984C331.618 65.4213 331.495 65.944 331.495 66.552C331.495 67.16 331.618 67.6933 331.863 68.152C332.119 68.6107 332.45 68.9627 332.855 69.208C333.271 69.4427 333.709 69.56 334.167 69.56C334.637 69.56 335.074 69.4427 335.479 69.208C335.885 68.9733 336.21 68.632 336.455 68.184C336.711 67.7253 336.839 67.192 336.839 66.584ZM351.747 62.04C352.44 62.04 353.059 62.184 353.603 62.472C354.158 62.76 354.59 63.1867 354.899 63.752C355.219 64.3173 355.379 65 355.379 65.8V71H353.571V66.072C353.571 65.2827 353.374 64.68 352.979 64.264C352.584 63.8373 352.046 63.624 351.363 63.624C350.68 63.624 350.136 63.8373 349.731 64.264C349.336 64.68 349.139 65.2827 349.139 66.072V71H347.331V66.072C347.331 65.2827 347.134 64.68 346.739 64.264C346.344 63.8373 345.806 63.624 345.123 63.624C344.44 63.624 343.896 63.8373 343.491 64.264C343.096 64.68 342.899 65.2827 342.899 66.072V71H341.075V62.184H342.899V63.192C343.198 62.8293 343.576 62.5467 344.035 62.344C344.494 62.1413 344.984 62.04 345.507 62.04C346.211 62.04 346.84 62.1893 347.395 62.488C347.95 62.7867 348.376 63.2187 348.675 63.784C348.942 63.2507 349.358 62.8293 349.923 62.52C350.488 62.2 351.096 62.04 351.747 62.04ZM365.78 66.376C365.78 66.7067 365.759 67.0053 365.716 67.272H358.98C359.033 67.976 359.295 68.5413 359.764 68.968C360.233 69.3947 360.809 69.608 361.492 69.608C362.473 69.608 363.167 69.1973 363.572 68.376H365.54C365.273 69.1867 364.788 69.8533 364.084 70.376C363.391 70.888 362.527 71.144 361.492 71.144C360.649 71.144 359.892 70.9573 359.22 70.584C358.559 70.2 358.036 69.6667 357.652 68.984C357.279 68.2907 357.092 67.4907 357.092 66.584C357.092 65.6773 357.273 64.8827 357.636 64.2C358.009 63.5067 358.527 62.9733 359.188 62.6C359.86 62.2267 360.628 62.04 361.492 62.04C362.324 62.04 363.065 62.2213 363.716 62.584C364.367 62.9467 364.873 63.4587 365.236 64.12C365.599 64.7707 365.78 65.5227 365.78 66.376ZM363.876 65.8C363.865 65.128 363.625 64.5893 363.156 64.184C362.687 63.7787 362.105 63.576 361.412 63.576C360.783 63.576 360.244 63.7787 359.796 64.184C359.348 64.5787 359.081 65.1173 358.996 65.8H363.876Z" fill="white"/>
<path d="M175.928 197.296H172.436L171.836 199H170.408L173.396 190.648H174.98L177.968 199H176.528L175.928 197.296ZM175.544 196.18L174.188 192.304L172.82 196.18H175.544ZM180.635 193.372C180.867 193.052 181.183 192.792 181.583 192.592C181.991 192.384 182.443 192.28 182.939 192.28C183.523 192.28 184.051 192.42 184.523 192.7C184.995 192.98 185.367 193.38 185.639 193.9C185.911 194.412 186.047 195 186.047 195.664C186.047 196.328 185.911 196.924 185.639 197.452C185.367 197.972 184.991 198.38 184.511 198.676C184.039 198.964 183.515 199.108 182.939 199.108C182.427 199.108 181.971 199.008 181.571 198.808C181.179 198.608 180.867 198.352 180.635 198.04V199H179.267V190.12H180.635V193.372ZM184.655 195.664C184.655 195.208 184.559 194.816 184.367 194.488C184.183 194.152 183.935 193.9 183.623 193.732C183.319 193.556 182.991 193.468 182.639 193.468C182.295 193.468 181.967 193.556 181.655 193.732C181.351 193.908 181.103 194.164 180.911 194.5C180.727 194.836 180.635 195.232 180.635 195.688C180.635 196.144 180.727 196.544 180.911 196.888C181.103 197.224 181.351 197.48 181.655 197.656C181.967 197.832 182.295 197.92 182.639 197.92C182.991 197.92 183.319 197.832 183.623 197.656C183.935 197.472 184.183 197.208 184.367 196.864C184.559 196.52 184.655 196.12 184.655 195.664ZM190.268 199.108C189.644 199.108 189.08 198.968 188.576 198.688C188.072 198.4 187.676 198 187.388 197.488C187.1 196.968 186.956 196.368 186.956 195.688C186.956 195.016 187.104 194.42 187.4 193.9C187.696 193.38 188.1 192.98 188.612 192.7C189.124 192.42 189.696 192.28 190.328 192.28C190.96 192.28 191.532 192.42 192.044 192.7C192.556 192.98 192.96 193.38 193.256 193.9C193.552 194.42 193.7 195.016 193.7 195.688C193.7 196.36 193.548 196.956 193.244 197.476C192.94 197.996 192.524 198.4 191.996 198.688C191.476 198.968 190.9 199.108 190.268 199.108ZM190.268 197.92C190.62 197.92 190.948 197.836 191.252 197.668C191.564 197.5 191.816 197.248 192.008 196.912C192.2 196.576 192.296 196.168 192.296 195.688C192.296 195.208 192.204 194.804 192.02 194.476C191.836 194.14 191.592 193.888 191.288 193.72C190.984 193.552 190.656 193.468 190.304 193.468C189.952 193.468 189.624 193.552 189.32 193.72C189.024 193.888 188.788 194.14 188.612 194.476C188.436 194.804 188.348 195.208 188.348 195.688C188.348 196.4 188.528 196.952 188.888 197.344C189.256 197.728 189.716 197.92 190.268 197.92ZM201.04 192.388V199H199.672V198.22C199.456 198.492 199.172 198.708 198.82 198.868C198.476 199.02 198.108 199.096 197.716 199.096C197.196 199.096 196.728 198.988 196.312 198.772C195.904 198.556 195.58 198.236 195.34 197.812C195.108 197.388 194.992 196.876 194.992 196.276V192.388H196.348V196.072C196.348 196.664 196.496 197.12 196.792 197.44C197.088 197.752 197.492 197.908 198.004 197.908C198.516 197.908 198.92 197.752 199.216 197.44C199.52 197.12 199.672 196.664 199.672 196.072V192.388H201.04ZM204.441 193.504V197.164C204.441 197.412 204.497 197.592 204.609 197.704C204.729 197.808 204.929 197.86 205.209 197.86H206.049V199H204.969C204.353 199 203.881 198.856 203.553 198.568C203.225 198.28 203.061 197.812 203.061 197.164V193.504H202.281V192.388H203.061V190.744H204.441V192.388H206.049V193.504H204.441ZM212.023 193.504V197.164C212.023 197.412 212.079 197.592 212.191 197.704C212.311 197.808 212.511 197.86 212.791 197.86H213.631V199H212.551C211.935 199 211.463 198.856 211.135 198.568C210.807 198.28 210.643 197.812 210.643 197.164V193.504H209.863V192.388H210.643V190.744H212.023V192.388H213.631V193.504H212.023ZM218.312 192.28C218.816 192.28 219.264 192.388 219.656 192.604C220.056 192.82 220.368 193.14 220.592 193.564C220.824 193.988 220.94 194.5 220.94 195.1V199H219.584V195.304C219.584 194.712 219.436 194.26 219.14 193.948C218.844 193.628 218.44 193.468 217.928 193.468C217.416 193.468 217.008 193.628 216.704 193.948C216.408 194.26 216.26 194.712 216.26 195.304V199H214.892V190.12H216.26V193.156C216.492 192.876 216.784 192.66 217.136 192.508C217.496 192.356 217.888 192.28 218.312 192.28ZM223.381 191.512C223.133 191.512 222.925 191.428 222.757 191.26C222.589 191.092 222.505 190.884 222.505 190.636C222.505 190.388 222.589 190.18 222.757 190.012C222.925 189.844 223.133 189.76 223.381 189.76C223.621 189.76 223.825 189.844 223.993 190.012C224.161 190.18 224.245 190.388 224.245 190.636C224.245 190.884 224.161 191.092 223.993 191.26C223.825 191.428 223.621 191.512 223.381 191.512ZM224.053 192.388V199H222.685V192.388H224.053ZM228.249 199.108C227.729 199.108 227.261 199.016 226.845 198.832C226.437 198.64 226.113 198.384 225.873 198.064C225.633 197.736 225.505 197.372 225.489 196.972H226.905C226.929 197.252 227.061 197.488 227.301 197.68C227.549 197.864 227.857 197.956 228.225 197.956C228.609 197.956 228.905 197.884 229.113 197.74C229.329 197.588 229.437 197.396 229.437 197.164C229.437 196.916 229.317 196.732 229.077 196.612C228.845 196.492 228.473 196.36 227.961 196.216C227.465 196.08 227.061 195.948 226.749 195.82C226.437 195.692 226.165 195.496 225.933 195.232C225.709 194.968 225.597 194.62 225.597 194.188C225.597 193.836 225.701 193.516 225.909 193.228C226.117 192.932 226.413 192.7 226.797 192.532C227.189 192.364 227.637 192.28 228.141 192.28C228.893 192.28 229.497 192.472 229.953 192.856C230.417 193.232 230.665 193.748 230.697 194.404H229.329C229.305 194.108 229.185 193.872 228.969 193.696C228.753 193.52 228.461 193.432 228.093 193.432C227.733 193.432 227.457 193.5 227.265 193.636C227.073 193.772 226.977 193.952 226.977 194.176C226.977 194.352 227.041 194.5 227.169 194.62C227.297 194.74 227.453 194.836 227.637 194.908C227.821 194.972 228.093 195.056 228.453 195.16C228.933 195.288 229.325 195.42 229.629 195.556C229.941 195.684 230.209 195.876 230.433 196.132C230.657 196.388 230.773 196.728 230.781 197.152C230.781 197.528 230.677 197.864 230.469 198.16C230.261 198.456 229.965 198.688 229.581 198.856C229.205 199.024 228.761 199.108 228.249 199.108ZM238.041 192.28C238.553 192.28 239.005 192.384 239.397 192.592C239.797 192.792 240.109 193.044 240.333 193.348V192.388H241.713V199.108C241.713 199.716 241.585 200.256 241.329 200.728C241.073 201.208 240.701 201.584 240.213 201.856C239.733 202.128 239.157 202.264 238.485 202.264C237.589 202.264 236.845 202.052 236.253 201.628C235.661 201.212 235.325 200.644 235.245 199.924H236.601C236.705 200.268 236.925 200.544 237.261 200.752C237.605 200.968 238.013 201.076 238.485 201.076C239.037 201.076 239.481 200.908 239.817 200.572C240.161 200.236 240.333 199.748 240.333 199.108V198.004C240.101 198.316 239.785 198.58 239.385 198.796C238.993 199.004 238.545 199.108 238.041 199.108C237.465 199.108 236.937 198.964 236.457 198.676C235.985 198.38 235.609 197.972 235.329 197.452C235.057 196.924 234.921 196.328 234.921 195.664C234.921 195 235.057 194.412 235.329 193.9C235.609 193.388 235.985 192.992 236.457 192.712C236.937 192.424 237.465 192.28 238.041 192.28ZM240.333 195.688C240.333 195.232 240.237 194.836 240.045 194.5C239.861 194.164 239.617 193.908 239.313 193.732C239.009 193.556 238.681 193.468 238.329 193.468C237.977 193.468 237.649 193.556 237.345 193.732C237.041 193.9 236.793 194.152 236.601 194.488C236.417 194.816 236.325 195.208 236.325 195.664C236.325 196.12 236.417 196.52 236.601 196.864C236.793 197.208 237.041 197.472 237.345 197.656C237.657 197.832 237.985 197.92 238.329 197.92C238.681 197.92 239.009 197.832 239.313 197.656C239.617 197.48 239.861 197.224 240.045 196.888C240.237 196.544 240.333 196.144 240.333 195.688ZM243.053 195.664C243.053 195 243.189 194.412 243.461 193.9C243.741 193.388 244.117 192.992 244.589 192.712C245.069 192.424 245.597 192.28 246.173 192.28C246.693 192.28 247.145 192.384 247.529 192.592C247.921 192.792 248.233 193.044 248.465 193.348V192.388H249.845V199H248.465V198.016C248.233 198.328 247.917 198.588 247.517 198.796C247.117 199.004 246.661 199.108 246.149 199.108C245.581 199.108 245.061 198.964 244.589 198.676C244.117 198.38 243.741 197.972 243.461 197.452C243.189 196.924 243.053 196.328 243.053 195.664ZM248.465 195.688C248.465 195.232 248.369 194.836 248.177 194.5C247.993 194.164 247.749 193.908 247.445 193.732C247.141 193.556 246.813 193.468 246.461 193.468C246.109 193.468 245.781 193.556 245.477 193.732C245.173 193.9 244.925 194.152 244.733 194.488C244.549 194.816 244.457 195.208 244.457 195.664C244.457 196.12 244.549 196.52 244.733 196.864C244.925 197.208 245.173 197.472 245.477 197.656C245.789 197.832 246.117 197.92 246.461 197.92C246.813 197.92 247.141 197.832 247.445 197.656C247.749 197.48 247.993 197.224 248.177 196.888C248.369 196.544 248.465 196.144 248.465 195.688ZM259.646 192.28C260.166 192.28 260.63 192.388 261.038 192.604C261.454 192.82 261.778 193.14 262.01 193.564C262.25 193.988 262.37 194.5 262.37 195.1V199H261.014V195.304C261.014 194.712 260.866 194.26 260.57 193.948C260.274 193.628 259.87 193.468 259.358 193.468C258.846 193.468 258.438 193.628 258.134 193.948C257.838 194.26 257.69 194.712 257.69 195.304V199H256.334V195.304C256.334 194.712 256.186 194.26 255.89 193.948C255.594 193.628 255.19 193.468 254.678 193.468C254.166 193.468 253.758 193.628 253.454 193.948C253.158 194.26 253.01 194.712 253.01 195.304V199H251.642V192.388H253.01V193.144C253.234 192.872 253.518 192.66 253.862 192.508C254.206 192.356 254.574 192.28 254.966 192.28C255.494 192.28 255.966 192.392 256.382 192.616C256.798 192.84 257.118 193.164 257.342 193.588C257.542 193.188 257.854 192.872 258.278 192.64C258.702 192.4 259.158 192.28 259.646 192.28ZM270.171 195.532C270.171 195.78 270.155 196.004 270.123 196.204H265.071C265.111 196.732 265.307 197.156 265.659 197.476C266.011 197.796 266.443 197.956 266.955 197.956C267.691 197.956 268.211 197.648 268.515 197.032H269.991C269.791 197.64 269.427 198.14 268.899 198.532C268.379 198.916 267.731 199.108 266.955 199.108C266.323 199.108 265.755 198.968 265.251 198.688C264.755 198.4 264.363 198 264.075 197.488C263.795 196.968 263.655 196.368 263.655 195.688C263.655 195.008 263.791 194.412 264.063 193.9C264.343 193.38 264.731 192.98 265.227 192.7C265.731 192.42 266.307 192.28 266.955 192.28C267.579 192.28 268.135 192.416 268.623 192.688C269.111 192.96 269.491 193.344 269.763 193.84C270.035 194.328 270.171 194.892 270.171 195.532ZM268.743 195.1C268.735 194.596 268.555 194.192 268.203 193.888C267.851 193.584 267.415 193.432 266.895 193.432C266.423 193.432 266.019 193.584 265.683 193.888C265.347 194.184 265.147 194.588 265.083 195.1H268.743Z" fill="white"/>
<path d="M264.54 89.05V94.06C264.54 94.68 264.35 95.17 263.97 95.53C263.597 95.89 263.103 96.07 262.49 96.07C261.877 96.07 261.38 95.89 261 95.53C260.627 95.17 260.44 94.68 260.44 94.06H261.59C261.597 94.3667 261.673 94.61 261.82 94.79C261.973 94.97 262.197 95.06 262.49 95.06C262.783 95.06 263.007 94.97 263.16 94.79C263.313 94.6033 263.39 94.36 263.39 94.06V89.05H264.54ZM267.535 88.6V96H266.395V88.6H267.535ZM271.421 96.09C270.901 96.09 270.431 95.9733 270.011 95.74C269.591 95.5 269.261 95.1667 269.021 94.74C268.781 94.3067 268.661 93.8067 268.661 93.24C268.661 92.68 268.785 92.1833 269.031 91.75C269.278 91.3167 269.615 90.9833 270.041 90.75C270.468 90.5167 270.945 90.4 271.471 90.4C271.998 90.4 272.475 90.5167 272.901 90.75C273.328 90.9833 273.665 91.3167 273.911 91.75C274.158 92.1833 274.281 92.68 274.281 93.24C274.281 93.8 274.155 94.2967 273.901 94.73C273.648 95.1633 273.301 95.5 272.861 95.74C272.428 95.9733 271.948 96.09 271.421 96.09ZM271.421 95.1C271.715 95.1 271.988 95.03 272.241 94.89C272.501 94.75 272.711 94.54 272.871 94.26C273.031 93.98 273.111 93.64 273.111 93.24C273.111 92.84 273.035 92.5033 272.881 92.23C272.728 91.95 272.525 91.74 272.271 91.6C272.018 91.46 271.745 91.39 271.451 91.39C271.158 91.39 270.885 91.46 270.631 91.6C270.385 91.74 270.188 91.95 270.041 92.23C269.895 92.5033 269.821 92.84 269.821 93.24C269.821 93.8333 269.971 94.2933 270.271 94.62C270.578 94.94 270.961 95.1 271.421 95.1ZM279.598 94.58H276.688L276.188 96H274.998L277.488 89.04H278.808L281.298 96H280.098L279.598 94.58ZM279.278 93.65L278.148 90.42L277.008 93.65H279.278ZM287.371 90.49V96H286.231V95.35C286.051 95.5767 285.814 95.7567 285.521 95.89C285.234 96.0167 284.928 96.08 284.601 96.08C284.168 96.08 283.778 95.99 283.431 95.81C283.091 95.63 282.821 95.3633 282.621 95.01C282.428 94.6567 282.331 94.23 282.331 93.73V90.49H283.461V93.56C283.461 94.0533 283.584 94.4333 283.831 94.7C284.078 94.96 284.414 95.09 284.841 95.09C285.268 95.09 285.604 94.96 285.851 94.7C286.104 94.4333 286.231 94.0533 286.231 93.56V90.49H287.371Z" fill="#808080"/>
<path d="M263.04 121.07C262.573 121.07 262.153 120.99 261.78 120.83C261.407 120.663 261.113 120.43 260.9 120.13C260.687 119.83 260.58 119.48 260.58 119.08H261.8C261.827 119.38 261.943 119.627 262.15 119.82C262.363 120.013 262.66 120.11 263.04 120.11C263.433 120.11 263.74 120.017 263.96 119.83C264.18 119.637 264.29 119.39 264.29 119.09C264.29 118.857 264.22 118.667 264.08 118.52C263.947 118.373 263.777 118.26 263.57 118.18C263.37 118.1 263.09 118.013 262.73 117.92C262.277 117.8 261.907 117.68 261.62 117.56C261.34 117.433 261.1 117.24 260.9 116.98C260.7 116.72 260.6 116.373 260.6 115.94C260.6 115.54 260.7 115.19 260.9 114.89C261.1 114.59 261.38 114.36 261.74 114.2C262.1 114.04 262.517 113.96 262.99 113.96C263.663 113.96 264.213 114.13 264.64 114.47C265.073 114.803 265.313 115.263 265.36 115.85H264.1C264.08 115.597 263.96 115.38 263.74 115.2C263.52 115.02 263.23 114.93 262.87 114.93C262.543 114.93 262.277 115.013 262.07 115.18C261.863 115.347 261.76 115.587 261.76 115.9C261.76 116.113 261.823 116.29 261.95 116.43C262.083 116.563 262.25 116.67 262.45 116.75C262.65 116.83 262.923 116.917 263.27 117.01C263.73 117.137 264.103 117.263 264.39 117.39C264.683 117.517 264.93 117.713 265.13 117.98C265.337 118.24 265.44 118.59 265.44 119.03C265.44 119.383 265.343 119.717 265.15 120.03C264.963 120.343 264.687 120.597 264.32 120.79C263.96 120.977 263.533 121.07 263.04 121.07ZM267.365 114.76C267.158 114.76 266.985 114.69 266.845 114.55C266.705 114.41 266.635 114.237 266.635 114.03C266.635 113.823 266.705 113.65 266.845 113.51C266.985 113.37 267.158 113.3 267.365 113.3C267.565 113.3 267.735 113.37 267.875 113.51C268.015 113.65 268.085 113.823 268.085 114.03C268.085 114.237 268.015 114.41 267.875 114.55C267.735 114.69 267.565 114.76 267.365 114.76ZM267.925 115.49V121H266.785V115.49H267.925ZM270.432 120.07H272.932V121H269.112V120.07L271.622 116.42H269.112V115.49H272.932V116.42L270.432 120.07ZM279.179 118.11C279.179 118.317 279.166 118.503 279.139 118.67H274.929C274.962 119.11 275.126 119.463 275.419 119.73C275.712 119.997 276.072 120.13 276.499 120.13C277.112 120.13 277.546 119.873 277.799 119.36H279.029C278.862 119.867 278.559 120.283 278.119 120.61C277.686 120.93 277.146 121.09 276.499 121.09C275.972 121.09 275.499 120.973 275.079 120.74C274.666 120.5 274.339 120.167 274.099 119.74C273.866 119.307 273.749 118.807 273.749 118.24C273.749 117.673 273.862 117.177 274.089 116.75C274.322 116.317 274.646 115.983 275.059 115.75C275.479 115.517 275.959 115.4 276.499 115.4C277.019 115.4 277.482 115.513 277.889 115.74C278.296 115.967 278.612 116.287 278.839 116.7C279.066 117.107 279.179 117.577 279.179 118.11ZM277.989 117.75C277.982 117.33 277.832 116.993 277.539 116.74C277.246 116.487 276.882 116.36 276.449 116.36C276.056 116.36 275.719 116.487 275.439 116.74C275.159 116.987 274.992 117.323 274.939 117.75H277.989ZM280.761 121.07C280.554 121.07 280.381 121 280.241 120.86C280.101 120.72 280.031 120.547 280.031 120.34C280.031 120.133 280.101 119.96 280.241 119.82C280.381 119.68 280.554 119.61 280.761 119.61C280.961 119.61 281.131 119.68 281.271 119.82C281.411 119.96 281.481 120.133 281.481 120.34C281.481 120.547 281.411 120.72 281.271 120.86C281.131 121 280.961 121.07 280.761 121.07ZM280.761 116.87C280.554 116.87 280.381 116.8 280.241 116.66C280.101 116.52 280.031 116.347 280.031 116.14C280.031 115.933 280.101 115.76 280.241 115.62C280.381 115.48 280.554 115.41 280.761 115.41C280.961 115.41 281.131 115.48 281.271 115.62C281.411 115.76 281.481 115.933 281.481 116.14C281.481 116.347 281.411 116.52 281.271 116.66C281.131 116.8 280.961 116.87 280.761 116.87Z" fill="white"/>
<rect x="200" y="10" width="30" height="30" rx="15" transform="rotate(90 200 10)" fill="white" fill-opacity="0.1"/>
<rect x="191" y="24" width="2" height="12" rx="1" transform="rotate(90 191 24)" fill="white"/>
<rect x="184" y="19.3433" width="2" height="8" rx="1" transform="rotate(45 184 19.3433)" fill="white"/>
<rect x="185.414" y="29.2427" width="2" height="8" rx="1" transform="rotate(135 185.414 29.2427)" fill="white"/>
<rect x="160" y="210" width="180" height="140" rx="15" fill="white" fill-opacity="0.1"/>
<path d="M355.61 216.12C355.61 216.473 355.527 216.807 355.36 217.12C355.193 217.433 354.927 217.69 354.56 217.89C354.193 218.083 353.723 218.18 353.15 218.18H351.89V221H350.75V214.05H353.15C353.683 214.05 354.133 214.143 354.5 214.33C354.873 214.51 355.15 214.757 355.33 215.07C355.517 215.383 355.61 215.733 355.61 216.12ZM353.15 217.25C353.583 217.25 353.907 217.153 354.12 216.96C354.333 216.76 354.44 216.48 354.44 216.12C354.44 215.36 354.01 214.98 353.15 214.98H351.89V217.25H353.15ZM357.837 213.6V221H356.697V213.6H357.837ZM358.954 218.22C358.954 217.667 359.067 217.177 359.294 216.75C359.527 216.323 359.841 215.993 360.234 215.76C360.634 215.52 361.074 215.4 361.554 215.4C361.987 215.4 362.364 215.487 362.684 215.66C363.011 215.827 363.271 216.037 363.464 216.29V215.49H364.614V221H363.464V220.18C363.271 220.44 363.007 220.657 362.674 220.83C362.341 221.003 361.961 221.09 361.534 221.09C361.061 221.09 360.627 220.97 360.234 220.73C359.841 220.483 359.527 220.143 359.294 219.71C359.067 219.27 358.954 218.773 358.954 218.22ZM363.464 218.24C363.464 217.86 363.384 217.53 363.224 217.25C363.071 216.97 362.867 216.757 362.614 216.61C362.361 216.463 362.087 216.39 361.794 216.39C361.501 216.39 361.227 216.463 360.974 216.61C360.721 216.75 360.514 216.96 360.354 217.24C360.201 217.513 360.124 217.84 360.124 218.22C360.124 218.6 360.201 218.933 360.354 219.22C360.514 219.507 360.721 219.727 360.974 219.88C361.234 220.027 361.507 220.1 361.794 220.1C362.087 220.1 362.361 220.027 362.614 219.88C362.867 219.733 363.071 219.52 363.224 219.24C363.384 218.953 363.464 218.62 363.464 218.24ZM371.071 215.49L367.691 223.59H366.511L367.631 220.91L365.461 215.49H366.731L368.281 219.69L369.891 215.49H371.071ZM379.389 216.12C379.389 216.473 379.306 216.807 379.139 217.12C378.973 217.433 378.706 217.69 378.339 217.89C377.973 218.083 377.503 218.18 376.929 218.18H375.669V221H374.529V214.05H376.929C377.463 214.05 377.913 214.143 378.279 214.33C378.653 214.51 378.929 214.757 379.109 215.07C379.296 215.383 379.389 215.733 379.389 216.12ZM376.929 217.25C377.363 217.25 377.686 217.153 377.899 216.96C378.113 216.76 378.219 216.48 378.219 216.12C378.219 215.36 377.789 214.98 376.929 214.98H375.669V217.25H376.929ZM382.867 221.09C382.347 221.09 381.877 220.973 381.457 220.74C381.037 220.5 380.707 220.167 380.467 219.74C380.227 219.307 380.107 218.807 380.107 218.24C380.107 217.68 380.23 217.183 380.477 216.75C380.723 216.317 381.06 215.983 381.487 215.75C381.913 215.517 382.39 215.4 382.917 215.4C383.443 215.4 383.92 215.517 384.347 215.75C384.773 215.983 385.11 216.317 385.357 216.75C385.603 217.183 385.727 217.68 385.727 218.24C385.727 218.8 385.6 219.297 385.347 219.73C385.093 220.163 384.747 220.5 384.307 220.74C383.873 220.973 383.393 221.09 382.867 221.09ZM382.867 220.1C383.16 220.1 383.433 220.03 383.687 219.89C383.947 219.75 384.157 219.54 384.317 219.26C384.477 218.98 384.557 218.64 384.557 218.24C384.557 217.84 384.48 217.503 384.327 217.23C384.173 216.95 383.97 216.74 383.717 216.6C383.463 216.46 383.19 216.39 382.897 216.39C382.603 216.39 382.33 216.46 382.077 216.6C381.83 216.74 381.633 216.95 381.487 217.23C381.34 217.503 381.267 217.84 381.267 218.24C381.267 218.833 381.417 219.293 381.717 219.62C382.023 219.94 382.407 220.1 382.867 220.1ZM389.634 215.4C390.067 215.4 390.454 215.49 390.794 215.67C391.14 215.85 391.41 216.117 391.604 216.47C391.797 216.823 391.894 217.25 391.894 217.75V221H390.764V217.92C390.764 217.427 390.64 217.05 390.394 216.79C390.147 216.523 389.81 216.39 389.384 216.39C388.957 216.39 388.617 216.523 388.364 216.79C388.117 217.05 387.994 217.427 387.994 217.92V221H386.854V215.49H387.994V216.12C388.18 215.893 388.417 215.717 388.704 215.59C388.997 215.463 389.307 215.4 389.634 215.4ZM395.568 215.4C395.994 215.4 396.371 215.487 396.698 215.66C397.031 215.827 397.291 216.037 397.478 216.29V215.49H398.628V221.09C398.628 221.597 398.521 222.047 398.308 222.44C398.094 222.84 397.784 223.153 397.378 223.38C396.978 223.607 396.498 223.72 395.938 223.72C395.191 223.72 394.571 223.543 394.078 223.19C393.584 222.843 393.304 222.37 393.238 221.77H394.368C394.454 222.057 394.638 222.287 394.918 222.46C395.204 222.64 395.544 222.73 395.938 222.73C396.398 222.73 396.768 222.59 397.048 222.31C397.334 222.03 397.478 221.623 397.478 221.09V220.17C397.284 220.43 397.021 220.65 396.688 220.83C396.361 221.003 395.988 221.09 395.568 221.09C395.088 221.09 394.648 220.97 394.248 220.73C393.854 220.483 393.541 220.143 393.308 219.71C393.081 219.27 392.968 218.773 392.968 218.22C392.968 217.667 393.081 217.177 393.308 216.75C393.541 216.323 393.854 215.993 394.248 215.76C394.648 215.52 395.088 215.4 395.568 215.4ZM397.478 218.24C397.478 217.86 397.398 217.53 397.238 217.25C397.084 216.97 396.881 216.757 396.628 216.61C396.374 216.463 396.101 216.39 395.808 216.39C395.514 216.39 395.241 216.463 394.988 216.61C394.734 216.75 394.528 216.96 394.368 217.24C394.214 217.513 394.138 217.84 394.138 218.22C394.138 218.6 394.214 218.933 394.368 219.22C394.528 219.507 394.734 219.727 394.988 219.88C395.248 220.027 395.521 220.1 395.808 220.1C396.101 220.1 396.374 220.027 396.628 219.88C396.881 219.733 397.084 219.52 397.238 219.24C397.398 218.953 397.478 218.62 397.478 218.24ZM402.343 218.22C402.343 217.667 402.456 217.177 402.683 216.75C402.916 216.323 403.229 215.993 403.623 215.76C404.023 215.52 404.463 215.4 404.943 215.4C405.376 215.4 405.753 215.487 406.073 215.66C406.399 215.827 406.659 216.037 406.853 216.29V215.49H408.003V221H406.853V220.18C406.659 220.44 406.396 220.657 406.063 220.83C405.729 221.003 405.349 221.09 404.923 221.09C404.449 221.09 404.016 220.97 403.623 220.73C403.229 220.483 402.916 220.143 402.683 219.71C402.456 219.27 402.343 218.773 402.343 218.22ZM406.853 218.24C406.853 217.86 406.773 217.53 406.613 217.25C406.459 216.97 406.256 216.757 406.003 216.61C405.749 216.463 405.476 216.39 405.183 216.39C404.889 216.39 404.616 216.463 404.363 216.61C404.109 216.75 403.903 216.96 403.743 217.24C403.589 217.513 403.513 217.84 403.513 218.22C403.513 218.6 403.589 218.933 403.743 219.22C403.903 219.507 404.109 219.727 404.363 219.88C404.623 220.027 404.896 220.1 405.183 220.1C405.476 220.1 405.749 220.027 406.003 219.88C406.256 219.733 406.459 219.52 406.613 219.24C406.773 218.953 406.853 218.62 406.853 218.24ZM410.64 213.6V221H409.5V213.6H410.64ZM414.527 221.09C414.007 221.09 413.537 220.973 413.117 220.74C412.697 220.5 412.367 220.167 412.127 219.74C411.887 219.307 411.767 218.807 411.767 218.24C411.767 217.68 411.89 217.183 412.137 216.75C412.383 216.317 412.72 215.983 413.147 215.75C413.573 215.517 414.05 215.4 414.577 215.4C415.103 215.4 415.58 215.517 416.007 215.75C416.433 215.983 416.77 216.317 417.017 216.75C417.263 217.183 417.387 217.68 417.387 218.24C417.387 218.8 417.26 219.297 417.007 219.73C416.753 220.163 416.407 220.5 415.967 220.74C415.533 220.973 415.053 221.09 414.527 221.09ZM414.527 220.1C414.82 220.1 415.093 220.03 415.347 219.89C415.607 219.75 415.817 219.54 415.977 219.26C416.137 218.98 416.217 218.64 416.217 218.24C416.217 217.84 416.14 217.503 415.987 217.23C415.833 216.95 415.63 216.74 415.377 216.6C415.123 216.46 414.85 216.39 414.557 216.39C414.263 216.39 413.99 216.46 413.737 216.6C413.49 216.74 413.293 216.95 413.147 217.23C413 217.503 412.927 217.84 412.927 218.24C412.927 218.833 413.077 219.293 413.377 219.62C413.683 219.94 414.067 220.1 414.527 220.1ZM421.294 215.4C421.727 215.4 422.114 215.49 422.454 215.67C422.8 215.85 423.07 216.117 423.264 216.47C423.457 216.823 423.554 217.25 423.554 217.75V221H422.424V217.92C422.424 217.427 422.3 217.05 422.054 216.79C421.807 216.523 421.47 216.39 421.044 216.39C420.617 216.39 420.277 216.523 420.024 216.79C419.777 217.05 419.654 217.427 419.654 217.92V221H418.514V215.49H419.654V216.12C419.84 215.893 420.077 215.717 420.364 215.59C420.657 215.463 420.967 215.4 421.294 215.4ZM430.058 218.11C430.058 218.317 430.044 218.503 430.018 218.67H425.808C425.841 219.11 426.004 219.463 426.298 219.73C426.591 219.997 426.951 220.13 427.378 220.13C427.991 220.13 428.424 219.873 428.678 219.36H429.908C429.741 219.867 429.438 220.283 428.998 220.61C428.564 220.93 428.024 221.09 427.378 221.09C426.851 221.09 426.378 220.973 425.958 220.74C425.544 220.5 425.218 220.167 424.978 219.74C424.744 219.307 424.628 218.807 424.628 218.24C424.628 217.673 424.741 217.177 424.968 216.75C425.201 216.317 425.524 215.983 425.938 215.75C426.358 215.517 426.838 215.4 427.378 215.4C427.898 215.4 428.361 215.513 428.768 215.74C429.174 215.967 429.491 216.287 429.718 216.7C429.944 217.107 430.058 217.577 430.058 218.11ZM428.868 217.75C428.861 217.33 428.711 216.993 428.418 216.74C428.124 216.487 427.761 216.36 427.328 216.36C426.934 216.36 426.598 216.487 426.318 216.74C426.038 216.987 425.871 217.323 425.818 217.75H428.868ZM432.43 219.63L431.22 222.39H430.48L431.19 219.63H432.43ZM350.37 233.22C350.37 232.667 350.483 232.177 350.71 231.75C350.943 231.323 351.257 230.993 351.65 230.76C352.05 230.52 352.49 230.4 352.97 230.4C353.403 230.4 353.78 230.487 354.1 230.66C354.427 230.827 354.687 231.037 354.88 231.29V230.49H356.03V236H354.88V235.18C354.687 235.44 354.423 235.657 354.09 235.83C353.757 236.003 353.377 236.09 352.95 236.09C352.477 236.09 352.043 235.97 351.65 235.73C351.257 235.483 350.943 235.143 350.71 234.71C350.483 234.27 350.37 233.773 350.37 233.22ZM354.88 233.24C354.88 232.86 354.8 232.53 354.64 232.25C354.487 231.97 354.283 231.757 354.03 231.61C353.777 231.463 353.503 231.39 353.21 231.39C352.917 231.39 352.643 231.463 352.39 231.61C352.137 231.75 351.93 231.96 351.77 232.24C351.617 232.513 351.54 232.84 351.54 233.22C351.54 233.6 351.617 233.933 351.77 234.22C351.93 234.507 352.137 234.727 352.39 234.88C352.65 235.027 352.923 235.1 353.21 235.1C353.503 235.1 353.777 235.027 354.03 234.88C354.283 234.733 354.487 234.52 354.64 234.24C354.8 233.953 354.88 233.62 354.88 233.24ZM359.747 230.4C360.174 230.4 360.551 230.487 360.877 230.66C361.211 230.827 361.471 231.037 361.657 231.29V230.49H362.807V236.09C362.807 236.597 362.701 237.047 362.487 237.44C362.274 237.84 361.964 238.153 361.557 238.38C361.157 238.607 360.677 238.72 360.117 238.72C359.371 238.72 358.751 238.543 358.257 238.19C357.764 237.843 357.484 237.37 357.417 236.77H358.547C358.634 237.057 358.817 237.287 359.097 237.46C359.384 237.64 359.724 237.73 360.117 237.73C360.577 237.73 360.947 237.59 361.227 237.31C361.514 237.03 361.657 236.623 361.657 236.09V235.17C361.464 235.43 361.201 235.65 360.867 235.83C360.541 236.003 360.167 236.09 359.747 236.09C359.267 236.09 358.827 235.97 358.427 235.73C358.034 235.483 357.721 235.143 357.487 234.71C357.261 234.27 357.147 233.773 357.147 233.22C357.147 232.667 357.261 232.177 357.487 231.75C357.721 231.323 358.034 230.993 358.427 230.76C358.827 230.52 359.267 230.4 359.747 230.4ZM361.657 233.24C361.657 232.86 361.577 232.53 361.417 232.25C361.264 231.97 361.061 231.757 360.807 231.61C360.554 231.463 360.281 231.39 359.987 231.39C359.694 231.39 359.421 231.463 359.167 231.61C358.914 231.75 358.707 231.96 358.547 232.24C358.394 232.513 358.317 232.84 358.317 233.22C358.317 233.6 358.394 233.933 358.547 234.22C358.707 234.507 358.914 234.727 359.167 234.88C359.427 235.027 359.701 235.1 359.987 235.1C360.281 235.1 360.554 235.027 360.807 234.88C361.061 234.733 361.264 234.52 361.417 234.24C361.577 233.953 361.657 233.62 361.657 233.24ZM363.925 233.22C363.925 232.667 364.038 232.177 364.265 231.75C364.498 231.323 364.811 230.993 365.205 230.76C365.605 230.52 366.045 230.4 366.525 230.4C366.958 230.4 367.335 230.487 367.655 230.66C367.981 230.827 368.241 231.037 368.435 231.29V230.49H369.585V236H368.435V235.18C368.241 235.44 367.978 235.657 367.645 235.83C367.311 236.003 366.931 236.09 366.505 236.09C366.031 236.09 365.598 235.97 365.205 235.73C364.811 235.483 364.498 235.143 364.265 234.71C364.038 234.27 363.925 233.773 363.925 233.22ZM368.435 233.24C368.435 232.86 368.355 232.53 368.195 232.25C368.041 231.97 367.838 231.757 367.585 231.61C367.331 231.463 367.058 231.39 366.765 231.39C366.471 231.39 366.198 231.463 365.945 231.61C365.691 231.75 365.485 231.96 365.325 232.24C365.171 232.513 365.095 232.84 365.095 233.22C365.095 233.6 365.171 233.933 365.325 234.22C365.485 234.507 365.691 234.727 365.945 234.88C366.205 235.027 366.478 235.1 366.765 235.1C367.058 235.1 367.331 235.027 367.585 234.88C367.838 234.733 368.041 234.52 368.195 234.24C368.355 233.953 368.435 233.62 368.435 233.24ZM371.662 229.76C371.455 229.76 371.282 229.69 371.142 229.55C371.002 229.41 370.932 229.237 370.932 229.03C370.932 228.823 371.002 228.65 371.142 228.51C371.282 228.37 371.455 228.3 371.662 228.3C371.862 228.3 372.032 228.37 372.172 228.51C372.312 228.65 372.382 228.823 372.382 229.03C372.382 229.237 372.312 229.41 372.172 229.55C372.032 229.69 371.862 229.76 371.662 229.76ZM372.222 230.49V236H371.082V230.49H372.222ZM376.499 230.4C376.932 230.4 377.319 230.49 377.659 230.67C378.005 230.85 378.275 231.117 378.469 231.47C378.662 231.823 378.759 232.25 378.759 232.75V236H377.629V232.92C377.629 232.427 377.505 232.05 377.259 231.79C377.012 231.523 376.675 231.39 376.249 231.39C375.822 231.39 375.482 231.523 375.229 231.79C374.982 232.05 374.859 232.427 374.859 232.92V236H373.719V230.49H374.859V231.12C375.045 230.893 375.282 230.717 375.569 230.59C375.862 230.463 376.172 230.4 376.499 230.4ZM382.213 236.09C381.78 236.09 381.39 236.013 381.043 235.86C380.703 235.7 380.433 235.487 380.233 235.22C380.033 234.947 379.926 234.643 379.913 234.31H381.093C381.113 234.543 381.223 234.74 381.423 234.9C381.63 235.053 381.886 235.13 382.193 235.13C382.513 235.13 382.76 235.07 382.933 234.95C383.113 234.823 383.203 234.663 383.203 234.47C383.203 234.263 383.103 234.11 382.903 234.01C382.71 233.91 382.4 233.8 381.973 233.68C381.56 233.567 381.223 233.457 380.963 233.35C380.703 233.243 380.476 233.08 380.283 232.86C380.096 232.64 380.003 232.35 380.003 231.99C380.003 231.697 380.09 231.43 380.263 231.19C380.436 230.943 380.683 230.75 381.003 230.61C381.33 230.47 381.703 230.4 382.123 230.4C382.75 230.4 383.253 230.56 383.633 230.88C384.02 231.193 384.226 231.623 384.253 232.17H383.113C383.093 231.923 382.993 231.727 382.813 231.58C382.633 231.433 382.39 231.36 382.083 231.36C381.783 231.36 381.553 231.417 381.393 231.53C381.233 231.643 381.153 231.793 381.153 231.98C381.153 232.127 381.206 232.25 381.313 232.35C381.42 232.45 381.55 232.53 381.703 232.59C381.856 232.643 382.083 232.713 382.383 232.8C382.783 232.907 383.11 233.017 383.363 233.13C383.623 233.237 383.846 233.397 384.033 233.61C384.22 233.823 384.316 234.107 384.323 234.46C384.323 234.773 384.236 235.053 384.063 235.3C383.89 235.547 383.643 235.74 383.323 235.88C383.01 236.02 382.64 236.09 382.213 236.09ZM386.885 231.42V234.47C386.885 234.677 386.931 234.827 387.025 234.92C387.125 235.007 387.291 235.05 387.525 235.05H388.225V236H387.325C386.811 236 386.418 235.88 386.145 235.64C385.871 235.4 385.735 235.01 385.735 234.47V231.42H385.085V230.49H385.735V229.12H386.885V230.49H388.225V231.42H386.885ZM391.493 233.22C391.493 232.667 391.606 232.177 391.833 231.75C392.066 231.323 392.38 230.993 392.773 230.76C393.173 230.52 393.613 230.4 394.093 230.4C394.526 230.4 394.903 230.487 395.223 230.66C395.55 230.827 395.81 231.037 396.003 231.29V230.49H397.153V236H396.003V235.18C395.81 235.44 395.546 235.657 395.213 235.83C394.88 236.003 394.5 236.09 394.073 236.09C393.6 236.09 393.166 235.97 392.773 235.73C392.38 235.483 392.066 235.143 391.833 234.71C391.606 234.27 391.493 233.773 391.493 233.22ZM396.003 233.24C396.003 232.86 395.923 232.53 395.763 232.25C395.61 231.97 395.406 231.757 395.153 231.61C394.9 231.463 394.626 231.39 394.333 231.39C394.04 231.39 393.766 231.463 393.513 231.61C393.26 231.75 393.053 231.96 392.893 232.24C392.74 232.513 392.663 232.84 392.663 233.22C392.663 233.6 392.74 233.933 392.893 234.22C393.053 234.507 393.26 234.727 393.513 234.88C393.773 235.027 394.046 235.1 394.333 235.1C394.626 235.1 394.9 235.027 395.153 234.88C395.406 234.733 395.61 234.52 395.763 234.24C395.923 233.953 396.003 233.62 396.003 233.24ZM401.43 230.4C401.864 230.4 402.25 230.49 402.59 230.67C402.937 230.85 403.207 231.117 403.4 231.47C403.594 231.823 403.69 232.25 403.69 232.75V236H402.56V232.92C402.56 232.427 402.437 232.05 402.19 231.79C401.944 231.523 401.607 231.39 401.18 231.39C400.754 231.39 400.414 231.523 400.16 231.79C399.914 232.05 399.79 232.427 399.79 232.92V236H398.65V230.49H399.79V231.12C399.977 230.893 400.214 230.717 400.5 230.59C400.794 230.463 401.104 230.4 401.43 230.4ZM411.932 234.58H409.022L408.522 236H407.332L409.822 229.04H411.142L413.632 236H412.432L411.932 234.58ZM411.612 233.65L410.482 230.42L409.342 233.65H411.612ZM415.855 229.05V236H414.715V229.05H415.855ZM422.339 236.09C421.819 236.09 421.349 235.973 420.929 235.74C420.509 235.5 420.179 235.167 419.939 234.74C419.699 234.307 419.579 233.807 419.579 233.24C419.579 232.68 419.703 232.183 419.949 231.75C420.196 231.317 420.533 230.983 420.959 230.75C421.386 230.517 421.863 230.4 422.389 230.4C422.916 230.4 423.393 230.517 423.819 230.75C424.246 230.983 424.583 231.317 424.829 231.75C425.076 232.183 425.199 232.68 425.199 233.24C425.199 233.8 425.073 234.297 424.819 234.73C424.566 235.163 424.219 235.5 423.779 235.74C423.346 235.973 422.866 236.09 422.339 236.09ZM422.339 235.1C422.633 235.1 422.906 235.03 423.159 234.89C423.419 234.75 423.629 234.54 423.789 234.26C423.949 233.98 424.029 233.64 424.029 233.24C424.029 232.84 423.953 232.503 423.799 232.23C423.646 231.95 423.443 231.74 423.189 231.6C422.936 231.46 422.663 231.39 422.369 231.39C422.076 231.39 421.803 231.46 421.549 231.6C421.303 231.74 421.106 231.95 420.959 232.23C420.813 232.503 420.739 232.84 420.739 233.24C420.739 233.833 420.889 234.293 421.189 234.62C421.496 234.94 421.879 235.1 422.339 235.1ZM427.466 231.29C427.633 231.01 427.853 230.793 428.126 230.64C428.406 230.48 428.736 230.4 429.116 230.4V231.58H428.826C428.38 231.58 428.04 231.693 427.806 231.92C427.58 232.147 427.466 232.54 427.466 233.1V236H426.326V230.49H427.466V231.29ZM433.342 229.76C433.135 229.76 432.962 229.69 432.822 229.55C432.682 229.41 432.612 229.237 432.612 229.03C432.612 228.823 432.682 228.65 432.822 228.51C432.962 228.37 433.135 228.3 433.342 228.3C433.542 228.3 433.712 228.37 433.852 228.51C433.992 228.65 434.062 228.823 434.062 229.03C434.062 229.237 433.992 229.41 433.852 229.55C433.712 229.69 433.542 229.76 433.342 229.76ZM433.902 230.49V236H432.762V230.49H433.902ZM438.178 230.4C438.612 230.4 438.998 230.49 439.338 230.67C439.685 230.85 439.955 231.117 440.148 231.47C440.342 231.823 440.438 232.25 440.438 232.75V236H439.308V232.92C439.308 232.427 439.185 232.05 438.938 231.79C438.692 231.523 438.355 231.39 437.928 231.39C437.502 231.39 437.162 231.523 436.908 231.79C436.662 232.05 436.538 232.427 436.538 232.92V236H435.398V230.49H436.538V231.12C436.725 230.893 436.962 230.717 437.248 230.59C437.542 230.463 437.852 230.4 438.178 230.4ZM351.89 246.3C352.083 246.047 352.347 245.833 352.68 245.66C353.013 245.487 353.39 245.4 353.81 245.4C354.29 245.4 354.727 245.52 355.12 245.76C355.52 245.993 355.833 246.323 356.06 246.75C356.287 247.177 356.4 247.667 356.4 248.22C356.4 248.773 356.287 249.27 356.06 249.71C355.833 250.143 355.52 250.483 355.12 250.73C354.727 250.97 354.29 251.09 353.81 251.09C353.39 251.09 353.017 251.007 352.69 250.84C352.363 250.667 352.097 250.453 351.89 250.2V253.62H350.75V245.49H351.89V246.3ZM355.24 248.22C355.24 247.84 355.16 247.513 355 247.24C354.847 246.96 354.64 246.75 354.38 246.61C354.127 246.463 353.853 246.39 353.56 246.39C353.273 246.39 353 246.463 352.74 246.61C352.487 246.757 352.28 246.97 352.12 247.25C351.967 247.53 351.89 247.86 351.89 248.24C351.89 248.62 351.967 248.953 352.12 249.24C352.28 249.52 352.487 249.733 352.74 249.88C353 250.027 353.273 250.1 353.56 250.1C353.853 250.1 354.127 250.027 354.38 249.88C354.64 249.727 354.847 249.507 355 249.22C355.16 248.933 355.24 248.6 355.24 248.22ZM357.147 248.22C357.147 247.667 357.261 247.177 357.487 246.75C357.721 246.323 358.034 245.993 358.427 245.76C358.827 245.52 359.267 245.4 359.747 245.4C360.181 245.4 360.557 245.487 360.877 245.66C361.204 245.827 361.464 246.037 361.657 246.29V245.49H362.807V251H361.657V250.18C361.464 250.44 361.201 250.657 360.867 250.83C360.534 251.003 360.154 251.09 359.727 251.09C359.254 251.09 358.821 250.97 358.427 250.73C358.034 250.483 357.721 250.143 357.487 249.71C357.261 249.27 357.147 248.773 357.147 248.22ZM361.657 248.24C361.657 247.86 361.577 247.53 361.417 247.25C361.264 246.97 361.061 246.757 360.807 246.61C360.554 246.463 360.281 246.39 359.987 246.39C359.694 246.39 359.421 246.463 359.167 246.61C358.914 246.75 358.707 246.96 358.547 247.24C358.394 247.513 358.317 247.84 358.317 248.22C358.317 248.6 358.394 248.933 358.547 249.22C358.707 249.507 358.914 249.727 359.167 249.88C359.427 250.027 359.701 250.1 359.987 250.1C360.281 250.1 360.554 250.027 360.807 249.88C361.061 249.733 361.264 249.52 361.417 249.24C361.577 248.953 361.657 248.62 361.657 248.24ZM364.885 244.76C364.678 244.76 364.505 244.69 364.365 244.55C364.225 244.41 364.155 244.237 364.155 244.03C364.155 243.823 364.225 243.65 364.365 243.51C364.505 243.37 364.678 243.3 364.885 243.3C365.085 243.3 365.255 243.37 365.395 243.51C365.535 243.65 365.605 243.823 365.605 244.03C365.605 244.237 365.535 244.41 365.395 244.55C365.255 244.69 365.085 244.76 364.885 244.76ZM365.445 245.49V251H364.305V245.49H365.445ZM368.081 246.29C368.248 246.01 368.468 245.793 368.741 245.64C369.021 245.48 369.351 245.4 369.731 245.4V246.58H369.441C368.995 246.58 368.655 246.693 368.421 246.92C368.195 247.147 368.081 247.54 368.081 248.1V251H366.941V245.49H368.081V246.29ZM372.779 251.09C372.346 251.09 371.956 251.013 371.609 250.86C371.269 250.7 370.999 250.487 370.799 250.22C370.599 249.947 370.493 249.643 370.479 249.31H371.659C371.679 249.543 371.789 249.74 371.989 249.9C372.196 250.053 372.453 250.13 372.759 250.13C373.079 250.13 373.326 250.07 373.499 249.95C373.679 249.823 373.769 249.663 373.769 249.47C373.769 249.263 373.669 249.11 373.469 249.01C373.276 248.91 372.966 248.8 372.539 248.68C372.126 248.567 371.789 248.457 371.529 248.35C371.269 248.243 371.043 248.08 370.849 247.86C370.663 247.64 370.569 247.35 370.569 246.99C370.569 246.697 370.656 246.43 370.829 246.19C371.003 245.943 371.249 245.75 371.569 245.61C371.896 245.47 372.269 245.4 372.689 245.4C373.316 245.4 373.819 245.56 374.199 245.88C374.586 246.193 374.793 246.623 374.819 247.17H373.679C373.659 246.923 373.559 246.727 373.379 246.58C373.199 246.433 372.956 246.36 372.649 246.36C372.349 246.36 372.119 246.417 371.959 246.53C371.799 246.643 371.719 246.793 371.719 246.98C371.719 247.127 371.773 247.25 371.879 247.35C371.986 247.45 372.116 247.53 372.269 247.59C372.423 247.643 372.649 247.713 372.949 247.8C373.349 247.907 373.676 248.017 373.929 248.13C374.189 248.237 374.413 248.397 374.599 248.61C374.786 248.823 374.883 249.107 374.889 249.46C374.889 249.773 374.803 250.053 374.629 250.3C374.456 250.547 374.209 250.74 373.889 250.88C373.576 251.02 373.206 251.09 372.779 251.09ZM377.551 244.05L377.421 248.9H376.471L376.341 244.05H377.551ZM376.981 251.07C376.774 251.07 376.601 251 376.461 250.86C376.321 250.72 376.251 250.547 376.251 250.34C376.251 250.133 376.321 249.96 376.461 249.82C376.601 249.68 376.774 249.61 376.981 249.61C377.181 249.61 377.351 249.68 377.491 249.82C377.631 249.96 377.701 250.133 377.701 250.34C377.701 250.547 377.631 250.72 377.491 250.86C377.351 251 377.181 251.07 376.981 251.07ZM386.422 244.05V244.98H384.572V251H383.432V244.98H381.572V244.05H386.422ZM390.426 245.4C390.846 245.4 391.22 245.49 391.546 245.67C391.88 245.85 392.14 246.117 392.326 246.47C392.52 246.823 392.616 247.25 392.616 247.75V251H391.486V247.92C391.486 247.427 391.363 247.05 391.116 246.79C390.87 246.523 390.533 246.39 390.106 246.39C389.68 246.39 389.34 246.523 389.086 246.79C388.84 247.05 388.716 247.427 388.716 247.92V251H387.576V243.6H388.716V246.13C388.91 245.897 389.153 245.717 389.446 245.59C389.746 245.463 390.073 245.4 390.426 245.4ZM399.12 248.11C399.12 248.317 399.107 248.503 399.08 248.67H394.87C394.904 249.11 395.067 249.463 395.36 249.73C395.654 249.997 396.014 250.13 396.44 250.13C397.054 250.13 397.487 249.873 397.74 249.36H398.97C398.804 249.867 398.5 250.283 398.06 250.61C397.627 250.93 397.087 251.09 396.44 251.09C395.914 251.09 395.44 250.973 395.02 250.74C394.607 250.5 394.28 250.167 394.04 249.74C393.807 249.307 393.69 248.807 393.69 248.24C393.69 247.673 393.804 247.177 394.03 246.75C394.264 246.317 394.587 245.983 395 245.75C395.42 245.517 395.9 245.4 396.44 245.4C396.96 245.4 397.424 245.513 397.83 245.74C398.237 245.967 398.554 246.287 398.78 246.7C399.007 247.107 399.12 247.577 399.12 248.11ZM397.93 247.75C397.924 247.33 397.774 246.993 397.48 246.74C397.187 246.487 396.824 246.36 396.39 246.36C395.997 246.36 395.66 246.487 395.38 246.74C395.1 246.987 394.934 247.323 394.88 247.75H397.93ZM402.46 248.22C402.46 247.667 402.573 247.177 402.8 246.75C403.033 246.323 403.347 245.993 403.74 245.76C404.14 245.52 404.583 245.4 405.07 245.4C405.43 245.4 405.783 245.48 406.13 245.64C406.483 245.793 406.763 246 406.97 246.26V243.6H408.12V251H406.97V250.17C406.783 250.437 406.523 250.657 406.19 250.83C405.863 251.003 405.487 251.09 405.06 251.09C404.58 251.09 404.14 250.97 403.74 250.73C403.347 250.483 403.033 250.143 402.8 249.71C402.573 249.27 402.46 248.773 402.46 248.22ZM406.97 248.24C406.97 247.86 406.89 247.53 406.73 247.25C406.577 246.97 406.373 246.757 406.12 246.61C405.867 246.463 405.593 246.39 405.3 246.39C405.007 246.39 404.733 246.463 404.48 246.61C404.227 246.75 404.02 246.96 403.86 247.24C403.707 247.513 403.63 247.84 403.63 248.22C403.63 248.6 403.707 248.933 403.86 249.22C404.02 249.507 404.227 249.727 404.48 249.88C404.74 250.027 405.013 250.1 405.3 250.1C405.593 250.1 405.867 250.027 406.12 249.88C406.373 249.733 406.577 249.52 406.73 249.24C406.89 248.953 406.97 248.62 406.97 248.24ZM410.197 244.76C409.991 244.76 409.817 244.69 409.677 244.55C409.537 244.41 409.467 244.237 409.467 244.03C409.467 243.823 409.537 243.65 409.677 243.51C409.817 243.37 409.991 243.3 410.197 243.3C410.397 243.3 410.567 243.37 410.707 243.51C410.847 243.65 410.917 243.823 410.917 244.03C410.917 244.237 410.847 244.41 410.707 244.55C410.567 244.69 410.397 244.76 410.197 244.76ZM410.757 245.49V251H409.617V245.49H410.757ZM414.564 246.42H413.544V251H412.394V246.42H411.744V245.49H412.394V245.1C412.394 244.467 412.561 244.007 412.894 243.72C413.234 243.427 413.764 243.28 414.484 243.28V244.23C414.137 244.23 413.894 244.297 413.754 244.43C413.614 244.557 413.544 244.78 413.544 245.1V245.49H414.564V246.42ZM417.884 246.42H416.864V251H415.714V246.42H415.064V245.49H415.714V245.1C415.714 244.467 415.881 244.007 416.214 243.72C416.554 243.427 417.084 243.28 417.804 243.28V244.23C417.458 244.23 417.214 244.297 417.074 244.43C416.934 244.557 416.864 244.78 416.864 245.1V245.49H417.884V246.42ZM419.475 244.76C419.268 244.76 419.095 244.69 418.955 244.55C418.815 244.41 418.745 244.237 418.745 244.03C418.745 243.823 418.815 243.65 418.955 243.51C419.095 243.37 419.268 243.3 419.475 243.3C419.675 243.3 419.845 243.37 419.985 243.51C420.125 243.65 420.195 243.823 420.195 244.03C420.195 244.237 420.125 244.41 419.985 244.55C419.845 244.69 419.675 244.76 419.475 244.76ZM420.035 245.49V251H418.895V245.49H420.035ZM421.151 248.24C421.151 247.673 421.265 247.177 421.491 246.75C421.725 246.317 422.045 245.983 422.451 245.75C422.858 245.517 423.325 245.4 423.851 245.4C424.518 245.4 425.068 245.56 425.501 245.88C425.941 246.193 426.238 246.643 426.391 247.23H425.161C425.061 246.957 424.901 246.743 424.681 246.59C424.461 246.437 424.185 246.36 423.851 246.36C423.385 246.36 423.011 246.527 422.731 246.86C422.458 247.187 422.321 247.647 422.321 248.24C422.321 248.833 422.458 249.297 422.731 249.63C423.011 249.963 423.385 250.13 423.851 250.13C424.511 250.13 424.948 249.84 425.161 249.26H426.391C426.231 249.82 425.931 250.267 425.491 250.6C425.051 250.927 424.505 251.09 423.851 251.09C423.325 251.09 422.858 250.973 422.451 250.74C422.045 250.5 421.725 250.167 421.491 249.74C421.265 249.307 421.151 248.807 421.151 248.24ZM432.517 245.49V251H431.377V250.35C431.197 250.577 430.961 250.757 430.667 250.89C430.381 251.017 430.074 251.08 429.747 251.08C429.314 251.08 428.924 250.99 428.577 250.81C428.237 250.63 427.967 250.363 427.767 250.01C427.574 249.657 427.477 249.23 427.477 248.73V245.49H428.607V248.56C428.607 249.053 428.731 249.433 428.977 249.7C429.224 249.96 429.561 250.09 429.987 250.09C430.414 250.09 430.751 249.96 430.997 249.7C431.251 249.433 431.377 249.053 431.377 248.56V245.49H432.517ZM435.161 243.6V251H434.021V243.6H435.161ZM437.988 246.42V249.47C437.988 249.677 438.035 249.827 438.128 249.92C438.228 250.007 438.395 250.05 438.628 250.05H439.328V251H438.428C437.915 251 437.522 250.88 437.248 250.64C436.975 250.4 436.838 250.01 436.838 249.47V246.42H436.188V245.49H436.838V244.12H437.988V245.49H439.328V246.42H437.988ZM445.339 245.49L441.959 253.59H440.779L441.899 250.91L439.729 245.49H440.999L442.549 249.69L444.159 245.49H445.339ZM351.33 259.76C351.123 259.76 350.95 259.69 350.81 259.55C350.67 259.41 350.6 259.237 350.6 259.03C350.6 258.823 350.67 258.65 350.81 258.51C350.95 258.37 351.123 258.3 351.33 258.3C351.53 258.3 351.7 258.37 351.84 258.51C351.98 258.65 352.05 258.823 352.05 259.03C352.05 259.237 351.98 259.41 351.84 259.55C351.7 259.69 351.53 259.76 351.33 259.76ZM351.89 260.49V266H350.75V260.49H351.89ZM356.167 260.4C356.6 260.4 356.987 260.49 357.327 260.67C357.673 260.85 357.943 261.117 358.137 261.47C358.33 261.823 358.427 262.25 358.427 262.75V266H357.297V262.92C357.297 262.427 357.173 262.05 356.927 261.79C356.68 261.523 356.343 261.39 355.917 261.39C355.49 261.39 355.15 261.523 354.897 261.79C354.65 262.05 354.527 262.427 354.527 262.92V266H353.387V260.49H354.527V261.12C354.713 260.893 354.95 260.717 355.237 260.59C355.53 260.463 355.84 260.4 356.167 260.4ZM359.501 263.24C359.501 262.673 359.614 262.177 359.841 261.75C360.074 261.317 360.394 260.983 360.801 260.75C361.208 260.517 361.674 260.4 362.201 260.4C362.868 260.4 363.418 260.56 363.851 260.88C364.291 261.193 364.588 261.643 364.741 262.23H363.511C363.411 261.957 363.251 261.743 363.031 261.59C362.811 261.437 362.534 261.36 362.201 261.36C361.734 261.36 361.361 261.527 361.081 261.86C360.808 262.187 360.671 262.647 360.671 263.24C360.671 263.833 360.808 264.297 361.081 264.63C361.361 264.963 361.734 265.13 362.201 265.13C362.861 265.13 363.298 264.84 363.511 264.26H364.741C364.581 264.82 364.281 265.267 363.841 265.6C363.401 265.927 362.854 266.09 362.201 266.09C361.674 266.09 361.208 265.973 360.801 265.74C360.394 265.5 360.074 265.167 359.841 264.74C359.614 264.307 359.501 263.807 359.501 263.24ZM367.017 261.29C367.184 261.01 367.404 260.793 367.677 260.64C367.957 260.48 368.287 260.4 368.667 260.4V261.58H368.377C367.93 261.58 367.59 261.693 367.357 261.92C367.13 262.147 367.017 262.54 367.017 263.1V266H365.877V260.49H367.017V261.29ZM374.765 263.11C374.765 263.317 374.752 263.503 374.725 263.67H370.515C370.548 264.11 370.712 264.463 371.005 264.73C371.298 264.997 371.658 265.13 372.085 265.13C372.698 265.13 373.132 264.873 373.385 264.36H374.615C374.448 264.867 374.145 265.283 373.705 265.61C373.272 265.93 372.732 266.09 372.085 266.09C371.558 266.09 371.085 265.973 370.665 265.74C370.252 265.5 369.925 265.167 369.685 264.74C369.452 264.307 369.335 263.807 369.335 263.24C369.335 262.673 369.448 262.177 369.675 261.75C369.908 261.317 370.232 260.983 370.645 260.75C371.065 260.517 371.545 260.4 372.085 260.4C372.605 260.4 373.068 260.513 373.475 260.74C373.882 260.967 374.198 261.287 374.425 261.7C374.652 262.107 374.765 262.577 374.765 263.11ZM373.575 262.75C373.568 262.33 373.418 261.993 373.125 261.74C372.832 261.487 372.468 261.36 372.035 261.36C371.642 261.36 371.305 261.487 371.025 261.74C370.745 261.987 370.578 262.323 370.525 262.75H373.575ZM375.507 263.22C375.507 262.667 375.62 262.177 375.847 261.75C376.08 261.323 376.393 260.993 376.787 260.76C377.187 260.52 377.627 260.4 378.107 260.4C378.54 260.4 378.917 260.487 379.237 260.66C379.563 260.827 379.823 261.037 380.017 261.29V260.49H381.167V266H380.017V265.18C379.823 265.44 379.56 265.657 379.227 265.83C378.893 266.003 378.513 266.09 378.087 266.09C377.613 266.09 377.18 265.97 376.787 265.73C376.393 265.483 376.08 265.143 375.847 264.71C375.62 264.27 375.507 263.773 375.507 263.22ZM380.017 263.24C380.017 262.86 379.937 262.53 379.777 262.25C379.623 261.97 379.42 261.757 379.167 261.61C378.913 261.463 378.64 261.39 378.347 261.39C378.053 261.39 377.78 261.463 377.527 261.61C377.273 261.75 377.067 261.96 376.907 262.24C376.753 262.513 376.677 262.84 376.677 263.22C376.677 263.6 376.753 263.933 376.907 264.22C377.067 264.507 377.273 264.727 377.527 264.88C377.787 265.027 378.06 265.1 378.347 265.1C378.64 265.1 378.913 265.027 379.167 264.88C379.42 264.733 379.623 264.52 379.777 264.24C379.937 263.953 380.017 263.62 380.017 263.24ZM384.664 266.09C384.231 266.09 383.841 266.013 383.494 265.86C383.154 265.7 382.884 265.487 382.684 265.22C382.484 264.947 382.377 264.643 382.364 264.31H383.544C383.564 264.543 383.674 264.74 383.874 264.9C384.081 265.053 384.337 265.13 384.644 265.13C384.964 265.13 385.211 265.07 385.384 264.95C385.564 264.823 385.654 264.663 385.654 264.47C385.654 264.263 385.554 264.11 385.354 264.01C385.161 263.91 384.851 263.8 384.424 263.68C384.011 263.567 383.674 263.457 383.414 263.35C383.154 263.243 382.927 263.08 382.734 262.86C382.547 262.64 382.454 262.35 382.454 261.99C382.454 261.697 382.541 261.43 382.714 261.19C382.887 260.943 383.134 260.75 383.454 260.61C383.781 260.47 384.154 260.4 384.574 260.4C385.201 260.4 385.704 260.56 386.084 260.88C386.471 261.193 386.677 261.623 386.704 262.17H385.564C385.544 261.923 385.444 261.727 385.264 261.58C385.084 261.433 384.841 261.36 384.534 261.36C384.234 261.36 384.004 261.417 383.844 261.53C383.684 261.643 383.604 261.793 383.604 261.98C383.604 262.127 383.657 262.25 383.764 262.35C383.871 262.45 384.001 262.53 384.154 262.59C384.307 262.643 384.534 262.713 384.834 262.8C385.234 262.907 385.561 263.017 385.814 263.13C386.074 263.237 386.297 263.397 386.484 263.61C386.671 263.823 386.767 264.107 386.774 264.46C386.774 264.773 386.687 265.053 386.514 265.3C386.341 265.547 386.094 265.74 385.774 265.88C385.461 266.02 385.091 266.09 384.664 266.09ZM393.056 263.11C393.056 263.317 393.043 263.503 393.016 263.67H388.806C388.839 264.11 389.003 264.463 389.296 264.73C389.589 264.997 389.949 265.13 390.376 265.13C390.989 265.13 391.423 264.873 391.676 264.36H392.906C392.739 264.867 392.436 265.283 391.996 265.61C391.563 265.93 391.023 266.09 390.376 266.09C389.849 266.09 389.376 265.973 388.956 265.74C388.543 265.5 388.216 265.167 387.976 264.74C387.743 264.307 387.626 263.807 387.626 263.24C387.626 262.673 387.739 262.177 387.966 261.75C388.199 261.317 388.523 260.983 388.936 260.75C389.356 260.517 389.836 260.4 390.376 260.4C390.896 260.4 391.359 260.513 391.766 260.74C392.173 260.967 392.489 261.287 392.716 261.7C392.943 262.107 393.056 262.577 393.056 263.11ZM391.866 262.75C391.859 262.33 391.709 261.993 391.416 261.74C391.123 261.487 390.759 261.36 390.326 261.36C389.933 261.36 389.596 261.487 389.316 261.74C389.036 261.987 388.869 262.323 388.816 262.75H391.866ZM396.178 266.09C395.744 266.09 395.354 266.013 395.008 265.86C394.668 265.7 394.398 265.487 394.198 265.22C393.998 264.947 393.891 264.643 393.878 264.31H395.058C395.078 264.543 395.188 264.74 395.388 264.9C395.594 265.053 395.851 265.13 396.158 265.13C396.478 265.13 396.724 265.07 396.898 264.95C397.078 264.823 397.168 264.663 397.168 264.47C397.168 264.263 397.068 264.11 396.868 264.01C396.674 263.91 396.364 263.8 395.938 263.68C395.524 263.567 395.188 263.457 394.928 263.35C394.668 263.243 394.441 263.08 394.248 262.86C394.061 262.64 393.968 262.35 393.968 261.99C393.968 261.697 394.054 261.43 394.228 261.19C394.401 260.943 394.648 260.75 394.968 260.61C395.294 260.47 395.668 260.4 396.088 260.4C396.714 260.4 397.218 260.56 397.598 260.88C397.984 261.193 398.191 261.623 398.218 262.17H397.078C397.058 261.923 396.958 261.727 396.778 261.58C396.598 261.433 396.354 261.36 396.048 261.36C395.748 261.36 395.518 261.417 395.358 261.53C395.198 261.643 395.118 261.793 395.118 261.98C395.118 262.127 395.171 262.25 395.278 262.35C395.384 262.45 395.514 262.53 395.668 262.59C395.821 262.643 396.048 262.713 396.348 262.8C396.748 262.907 397.074 263.017 397.328 263.13C397.588 263.237 397.811 263.397 397.998 263.61C398.184 263.823 398.281 264.107 398.288 264.46C398.288 264.773 398.201 265.053 398.028 265.3C397.854 265.547 397.608 265.74 397.288 265.88C396.974 266.02 396.604 266.09 396.178 266.09ZM409.517 260.49L407.807 266H406.607L405.497 261.93L404.387 266H403.187L401.467 260.49H402.627L403.777 264.92L404.947 260.49H406.137L407.257 264.9L408.397 260.49H409.517ZM410.949 259.76C410.742 259.76 410.569 259.69 410.429 259.55C410.289 259.41 410.219 259.237 410.219 259.03C410.219 258.823 410.289 258.65 410.429 258.51C410.569 258.37 410.742 258.3 410.949 258.3C411.149 258.3 411.319 258.37 411.459 258.51C411.599 258.65 411.669 258.823 411.669 259.03C411.669 259.237 411.599 259.41 411.459 259.55C411.319 259.69 411.149 259.76 410.949 259.76ZM411.509 260.49V266H410.369V260.49H411.509ZM414.336 261.42V264.47C414.336 264.677 414.383 264.827 414.476 264.92C414.576 265.007 414.743 265.05 414.976 265.05H415.676V266H414.776C414.263 266 413.869 265.88 413.596 265.64C413.323 265.4 413.186 265.01 413.186 264.47V261.42H412.536V260.49H413.186V259.12H414.336V260.49H415.676V261.42H414.336ZM419.577 260.4C419.997 260.4 420.37 260.49 420.697 260.67C421.03 260.85 421.29 261.117 421.477 261.47C421.67 261.823 421.767 262.25 421.767 262.75V266H420.637V262.92C420.637 262.427 420.513 262.05 420.267 261.79C420.02 261.523 419.683 261.39 419.257 261.39C418.83 261.39 418.49 261.523 418.237 261.79C417.99 262.05 417.867 262.427 417.867 262.92V266H416.727V258.6H417.867V261.13C418.06 260.897 418.303 260.717 418.597 260.59C418.897 260.463 419.223 260.4 419.577 260.4ZM430.868 263.11C430.868 263.317 430.855 263.503 430.828 263.67H426.618C426.652 264.11 426.815 264.463 427.108 264.73C427.402 264.997 427.762 265.13 428.188 265.13C428.802 265.13 429.235 264.873 429.488 264.36H430.718C430.552 264.867 430.248 265.283 429.808 265.61C429.375 265.93 428.835 266.09 428.188 266.09C427.662 266.09 427.188 265.973 426.768 265.74C426.355 265.5 426.028 265.167 425.788 264.74C425.555 264.307 425.438 263.807 425.438 263.24C425.438 262.673 425.552 262.177 425.778 261.75C426.012 261.317 426.335 260.983 426.748 260.75C427.168 260.517 427.648 260.4 428.188 260.4C428.708 260.4 429.172 260.513 429.578 260.74C429.985 260.967 430.302 261.287 430.528 261.7C430.755 262.107 430.868 262.577 430.868 263.11ZM429.678 262.75C429.672 262.33 429.522 261.993 429.228 261.74C428.935 261.487 428.572 261.36 428.138 261.36C427.745 261.36 427.408 261.487 427.128 261.74C426.848 261.987 426.682 262.323 426.628 262.75H429.678ZM431.61 263.22C431.61 262.667 431.724 262.177 431.95 261.75C432.184 261.323 432.497 260.993 432.89 260.76C433.29 260.52 433.73 260.4 434.21 260.4C434.644 260.4 435.02 260.487 435.34 260.66C435.667 260.827 435.927 261.037 436.12 261.29V260.49H437.27V266H436.12V265.18C435.927 265.44 435.664 265.657 435.33 265.83C434.997 266.003 434.617 266.09 434.19 266.09C433.717 266.09 433.284 265.97 432.89 265.73C432.497 265.483 432.184 265.143 431.95 264.71C431.724 264.27 431.61 263.773 431.61 263.22ZM436.12 263.24C436.12 262.86 436.04 262.53 435.88 262.25C435.727 261.97 435.524 261.757 435.27 261.61C435.017 261.463 434.744 261.39 434.45 261.39C434.157 261.39 433.884 261.463 433.63 261.61C433.377 261.75 433.17 261.96 433.01 262.24C432.857 262.513 432.78 262.84 432.78 263.22C432.78 263.6 432.857 263.933 433.01 264.22C433.17 264.507 433.377 264.727 433.63 264.88C433.89 265.027 434.164 265.1 434.45 265.1C434.744 265.1 435.017 265.027 435.27 264.88C435.524 264.733 435.727 264.52 435.88 264.24C436.04 263.953 436.12 263.62 436.12 263.24ZM438.388 263.24C438.388 262.673 438.501 262.177 438.728 261.75C438.961 261.317 439.281 260.983 439.688 260.75C440.094 260.517 440.561 260.4 441.088 260.4C441.754 260.4 442.304 260.56 442.738 260.88C443.178 261.193 443.474 261.643 443.628 262.23H442.398C442.298 261.957 442.138 261.743 441.918 261.59C441.698 261.437 441.421 261.36 441.088 261.36C440.621 261.36 440.248 261.527 439.968 261.86C439.694 262.187 439.558 262.647 439.558 263.24C439.558 263.833 439.694 264.297 439.968 264.63C440.248 264.963 440.621 265.13 441.088 265.13C441.748 265.13 442.184 264.84 442.398 264.26H443.628C443.468 264.82 443.168 265.267 442.728 265.6C442.288 265.927 441.741 266.09 441.088 266.09C440.561 266.09 440.094 265.973 439.688 265.74C439.281 265.5 438.961 265.167 438.728 264.74C438.501 264.307 438.388 263.807 438.388 263.24ZM447.614 260.4C448.034 260.4 448.407 260.49 448.734 260.67C449.067 260.85 449.327 261.117 449.514 261.47C449.707 261.823 449.804 262.25 449.804 262.75V266H448.674V262.92C448.674 262.427 448.55 262.05 448.304 261.79C448.057 261.523 447.72 261.39 447.294 261.39C446.867 261.39 446.527 261.523 446.274 261.79C446.027 262.05 445.904 262.427 445.904 262.92V266H444.764V258.6H445.904V261.13C446.097 260.897 446.34 260.717 446.634 260.59C446.934 260.463 447.26 260.4 447.614 260.4ZM351.89 276.31C352.083 276.043 352.347 275.827 352.68 275.66C353.02 275.487 353.397 275.4 353.81 275.4C354.297 275.4 354.737 275.517 355.13 275.75C355.523 275.983 355.833 276.317 356.06 276.75C356.287 277.177 356.4 277.667 356.4 278.22C356.4 278.773 356.287 279.27 356.06 279.71C355.833 280.143 355.52 280.483 355.12 280.73C354.727 280.97 354.29 281.09 353.81 281.09C353.383 281.09 353.003 281.007 352.67 280.84C352.343 280.673 352.083 280.46 351.89 280.2V281H350.75V273.6H351.89V276.31ZM355.24 278.22C355.24 277.84 355.16 277.513 355 277.24C354.847 276.96 354.64 276.75 354.38 276.61C354.127 276.463 353.853 276.39 353.56 276.39C353.273 276.39 353 276.463 352.74 276.61C352.487 276.757 352.28 276.97 352.12 277.25C351.967 277.53 351.89 277.86 351.89 278.24C351.89 278.62 351.967 278.953 352.12 279.24C352.28 279.52 352.487 279.733 352.74 279.88C353 280.027 353.273 280.1 353.56 280.1C353.853 280.1 354.127 280.027 354.38 279.88C354.64 279.727 354.847 279.507 355 279.22C355.16 278.933 355.24 278.6 355.24 278.22ZM359.917 281.09C359.397 281.09 358.927 280.973 358.507 280.74C358.087 280.5 357.757 280.167 357.517 279.74C357.277 279.307 357.157 278.807 357.157 278.24C357.157 277.68 357.281 277.183 357.527 276.75C357.774 276.317 358.111 275.983 358.537 275.75C358.964 275.517 359.441 275.4 359.967 275.4C360.494 275.4 360.971 275.517 361.397 275.75C361.824 275.983 362.161 276.317 362.407 276.75C362.654 277.183 362.777 277.68 362.777 278.24C362.777 278.8 362.651 279.297 362.397 279.73C362.144 280.163 361.797 280.5 361.357 280.74C360.924 280.973 360.444 281.09 359.917 281.09ZM359.917 280.1C360.211 280.1 360.484 280.03 360.737 279.89C360.997 279.75 361.207 279.54 361.367 279.26C361.527 278.98 361.607 278.64 361.607 278.24C361.607 277.84 361.531 277.503 361.377 277.23C361.224 276.95 361.021 276.74 360.767 276.6C360.514 276.46 360.241 276.39 359.947 276.39C359.654 276.39 359.381 276.46 359.127 276.6C358.881 276.74 358.684 276.95 358.537 277.23C358.391 277.503 358.317 277.84 358.317 278.24C358.317 278.833 358.467 279.293 358.767 279.62C359.074 279.94 359.457 280.1 359.917 280.1ZM368.894 275.49V281H367.754V280.35C367.574 280.577 367.338 280.757 367.044 280.89C366.758 281.017 366.451 281.08 366.124 281.08C365.691 281.08 365.301 280.99 364.954 280.81C364.614 280.63 364.344 280.363 364.144 280.01C363.951 279.657 363.854 279.23 363.854 278.73V275.49H364.984V278.56C364.984 279.053 365.108 279.433 365.354 279.7C365.601 279.96 365.938 280.09 366.364 280.09C366.791 280.09 367.128 279.96 367.374 279.7C367.628 279.433 367.754 279.053 367.754 278.56V275.49H368.894ZM373.178 275.4C373.612 275.4 373.998 275.49 374.338 275.67C374.685 275.85 374.955 276.117 375.148 276.47C375.342 276.823 375.438 277.25 375.438 277.75V281H374.308V277.92C374.308 277.427 374.185 277.05 373.938 276.79C373.692 276.523 373.355 276.39 372.928 276.39C372.502 276.39 372.162 276.523 371.908 276.79C371.662 277.05 371.538 277.427 371.538 277.92V281H370.398V275.49H371.538V276.12C371.725 275.893 371.962 275.717 372.248 275.59C372.542 275.463 372.852 275.4 373.178 275.4ZM376.513 278.24C376.513 277.673 376.626 277.177 376.853 276.75C377.086 276.317 377.406 275.983 377.813 275.75C378.219 275.517 378.686 275.4 379.213 275.4C379.879 275.4 380.429 275.56 380.863 275.88C381.303 276.193 381.599 276.643 381.753 277.23H380.523C380.423 276.957 380.263 276.743 380.043 276.59C379.823 276.437 379.546 276.36 379.213 276.36C378.746 276.36 378.373 276.527 378.093 276.86C377.819 277.187 377.683 277.647 377.683 278.24C377.683 278.833 377.819 279.297 378.093 279.63C378.373 279.963 378.746 280.13 379.213 280.13C379.873 280.13 380.309 279.84 380.523 279.26H381.753C381.593 279.82 381.293 280.267 380.853 280.6C380.413 280.927 379.866 281.09 379.213 281.09C378.686 281.09 378.219 280.973 377.813 280.74C377.406 280.5 377.086 280.167 376.853 279.74C376.626 279.307 376.513 278.807 376.513 278.24ZM387.939 278.11C387.939 278.317 387.925 278.503 387.899 278.67H383.689C383.722 279.11 383.885 279.463 384.179 279.73C384.472 279.997 384.832 280.13 385.259 280.13C385.872 280.13 386.305 279.873 386.559 279.36H387.789C387.622 279.867 387.319 280.283 386.879 280.61C386.445 280.93 385.905 281.09 385.259 281.09C384.732 281.09 384.259 280.973 383.839 280.74C383.425 280.5 383.099 280.167 382.859 279.74C382.625 279.307 382.509 278.807 382.509 278.24C382.509 277.673 382.622 277.177 382.849 276.75C383.082 276.317 383.405 275.983 383.819 275.75C384.239 275.517 384.719 275.4 385.259 275.4C385.779 275.4 386.242 275.513 386.649 275.74C387.055 275.967 387.372 276.287 387.599 276.7C387.825 277.107 387.939 277.577 387.939 278.11ZM386.749 277.75C386.742 277.33 386.592 276.993 386.299 276.74C386.005 276.487 385.642 276.36 385.209 276.36C384.815 276.36 384.479 276.487 384.199 276.74C383.919 276.987 383.752 277.323 383.699 277.75H386.749ZM390.491 274.05L390.361 278.9H389.411L389.281 274.05H390.491ZM389.921 281.07C389.714 281.07 389.541 281 389.401 280.86C389.261 280.72 389.191 280.547 389.191 280.34C389.191 280.133 389.261 279.96 389.401 279.82C389.541 279.68 389.714 279.61 389.921 279.61C390.121 279.61 390.291 279.68 390.431 279.82C390.571 279.96 390.641 280.133 390.641 280.34C390.641 280.547 390.571 280.72 390.431 280.86C390.291 281 390.121 281.07 389.921 281.07Z" fill="white"/>
<defs>
<linearGradient id="paint0_linear_429_2" x1="185.536" y1="83.5358" x2="198.263" y2="96.2637" gradientUnits="userSpaceOnUse">
<stop stop-color="white" stop-opacity="0"/>
<stop offset="1" stop-color="white"/>
</linearGradient>
</defs>
</svg>
