<svg xmlns="http://www.w3.org/2000/svg" fill="none" viewBox="0 0 60 30" height="30" width="60">
<rect fill-opacity="0.25" fill="black" rx="15" height="30" width="60"></rect>
<path fill="white" d="M21.3863 13.144C21.3863 13.568 21.2863 13.968 21.0863 14.344C20.8863 14.72 20.5663 15.028 20.1263 15.268C19.6863 15.5 19.1223 15.616 18.4343 15.616H16.9223V19H15.5543V10.66H18.4343C19.0743 10.66 19.6143 10.772 20.0543 10.996C20.5023 11.212 20.8343 11.508 21.0503 11.884C21.2743 12.26 21.3863 12.68 21.3863 13.144ZM18.4343 14.5C18.9543 14.5 19.3423 14.384 19.5983 14.152C19.8543 13.912 19.9823 13.576 19.9823 13.144C19.9823 12.232 19.4663 11.776 18.4343 11.776H16.9223V14.5H18.4343ZM22.235 15.664C22.235 15 22.371 14.412 22.643 13.9C22.923 13.388 23.299 12.992 23.771 12.712C24.251 12.424 24.779 12.28 25.355 12.28C25.875 12.28 26.327 12.384 26.711 12.592C27.103 12.792 27.415 13.044 27.647 13.348V12.388H29.027V19H27.647V18.016C27.415 18.328 27.099 18.588 26.699 18.796C26.299 19.004 25.843 19.108 25.331 19.108C24.763 19.108 24.243 18.964 23.771 18.676C23.299 18.38 22.923 17.972 22.643 17.452C22.371 16.924 22.235 16.328 22.235 15.664ZM27.647 15.688C27.647 15.232 27.551 14.836 27.359 14.5C27.175 14.164 26.931 13.908 26.627 13.732C26.323 13.556 25.995 13.468 25.643 13.468C25.291 13.468 24.963 13.556 24.659 13.732C24.355 13.9 24.107 14.152 23.915 14.488C23.731 14.816 23.639 15.208 23.639 15.664C23.639 16.12 23.731 16.52 23.915 16.864C24.107 17.208 24.355 17.472 24.659 17.656C24.971 17.832 25.299 17.92 25.643 17.92C25.995 17.92 26.323 17.832 26.627 17.656C26.931 17.48 27.175 17.224 27.359 16.888C27.551 16.544 27.647 16.144 27.647 15.688ZM31.5198 11.512C31.2718 11.512 31.0638 11.428 30.8958 11.26C30.7278 11.092 30.6438 10.884 30.6438 10.636C30.6438 10.388 30.7278 10.18 30.8958 10.012C31.0638 9.844 31.2718 9.76 31.5198 9.76C31.7598 9.76 31.9638 9.844 32.1318 10.012C32.2998 10.18 32.3838 10.388 32.3838 10.636C32.3838 10.884 32.2998 11.092 32.1318 11.26C31.9638 11.428 31.7598 11.512 31.5198 11.512ZM32.1918 12.388V19H30.8238V12.388H32.1918ZM37.3239 12.28C37.8439 12.28 38.3079 12.388 38.7159 12.604C39.1319 12.82 39.4559 13.14 39.6879 13.564C39.9199 13.988 40.0359 14.5 40.0359 15.1V19H38.6799V15.304C38.6799 14.712 38.5319 14.26 38.2359 13.948C37.9399 13.628 37.5359 13.468 37.0239 13.468C36.5119 13.468 36.1039 13.628 35.7999 13.948C35.5039 14.26 35.3559 14.712 35.3559 15.304V19H33.9879V12.388H35.3559V13.144C35.5799 12.872 35.8639 12.66 36.2079 12.508C36.5599 12.356 36.9319 12.28 37.3239 12.28ZM43.3769 13.504V17.164C43.3769 17.412 43.4329 17.592 43.5449 17.704C43.6649 17.808 43.8649 17.86 44.1449 17.86H44.9849V19H43.9049C43.2889 19 42.8169 18.856 42.4889 18.568C42.1609 18.28 41.9969 17.812 41.9969 17.164V13.504H41.2169V12.388H41.9969V10.744H43.3769V12.388H44.9849V13.504H43.3769Z"></path>
</svg>
