<svg xmlns="http://www.w3.org/2000/svg" fill="none" viewBox="0 0 480 360" height="360" width="480">
<g clip-path="url(#clip0_6_51)">
<path fill="black" d="M177.904 28.728H173.248L172.448 31H170.544L174.528 19.864H176.64L180.624 31H178.704L177.904 28.728ZM177.392 27.24L175.584 22.072L173.76 27.24H177.392ZM184.18 23.48C184.49 23.0747 184.911 22.7333 185.444 22.456C185.978 22.1787 186.58 22.04 187.252 22.04C188.02 22.04 188.719 22.232 189.348 22.616C189.988 22.9893 190.49 23.5173 190.852 24.2C191.215 24.8827 191.396 25.6667 191.396 26.552C191.396 27.4373 191.215 28.232 190.852 28.936C190.49 29.6293 189.988 30.1733 189.348 30.568C188.719 30.952 188.02 31.144 187.252 31.144C186.58 31.144 185.983 31.0107 185.46 30.744C184.938 30.4667 184.511 30.1253 184.18 29.72V35.192H182.356V22.184H184.18V23.48ZM189.54 26.552C189.54 25.944 189.412 25.4213 189.156 24.984C188.911 24.536 188.58 24.2 188.164 23.976C187.759 23.7413 187.322 23.624 186.852 23.624C186.394 23.624 185.956 23.7413 185.54 23.976C185.135 24.2107 184.804 24.552 184.548 25C184.303 25.448 184.18 25.976 184.18 26.584C184.18 27.192 184.303 27.7253 184.548 28.184C184.804 28.632 185.135 28.9733 185.54 29.208C185.956 29.4427 186.394 29.56 186.852 29.56C187.322 29.56 187.759 29.4427 188.164 29.208C188.58 28.9627 188.911 28.6107 189.156 28.152C189.412 27.6933 189.54 27.16 189.54 26.552ZM195.024 23.48C195.333 23.0747 195.755 22.7333 196.288 22.456C196.821 22.1787 197.424 22.04 198.096 22.04C198.864 22.04 199.563 22.232 200.192 22.616C200.832 22.9893 201.333 23.5173 201.696 24.2C202.059 24.8827 202.24 25.6667 202.24 26.552C202.24 27.4373 202.059 28.232 201.696 28.936C201.333 29.6293 200.832 30.1733 200.192 30.568C199.563 30.952 198.864 31.144 198.096 31.144C197.424 31.144 196.827 31.0107 196.304 30.744C195.781 30.4667 195.355 30.1253 195.024 29.72V35.192H193.2V22.184H195.024V23.48ZM200.384 26.552C200.384 25.944 200.256 25.4213 200 24.984C199.755 24.536 199.424 24.2 199.008 23.976C198.603 23.7413 198.165 23.624 197.696 23.624C197.237 23.624 196.8 23.7413 196.384 23.976C195.979 24.2107 195.648 24.552 195.392 25C195.147 25.448 195.024 25.976 195.024 26.584C195.024 27.192 195.147 27.7253 195.392 28.184C195.648 28.632 195.979 28.9733 196.384 29.208C196.8 29.4427 197.237 29.56 197.696 29.56C198.165 29.56 198.603 29.4427 199.008 29.208C199.424 28.9627 199.755 28.6107 200 28.152C200.256 27.6933 200.384 27.16 200.384 26.552ZM212.124 26.376C212.124 26.7067 212.102 27.0053 212.06 27.272H205.324C205.377 27.976 205.638 28.5413 206.108 28.968C206.577 29.3947 207.153 29.608 207.836 29.608C208.817 29.608 209.51 29.1973 209.916 28.376H211.884C211.617 29.1867 211.132 29.8533 210.428 30.376C209.734 30.888 208.87 31.144 207.836 31.144C206.993 31.144 206.236 30.9573 205.564 30.584C204.902 30.2 204.38 29.6667 203.996 28.984C203.622 28.2907 203.436 27.4907 203.436 26.584C203.436 25.6773 203.617 24.8827 203.98 24.2C204.353 23.5067 204.87 22.9733 205.532 22.6C206.204 22.2267 206.972 22.04 207.836 22.04C208.668 22.04 209.409 22.2213 210.06 22.584C210.71 22.9467 211.217 23.4587 211.58 24.12C211.942 24.7707 212.124 25.5227 212.124 26.376ZM210.22 25.8C210.209 25.128 209.969 24.5893 209.5 24.184C209.03 23.7787 208.449 23.576 207.756 23.576C207.126 23.576 206.588 23.7787 206.14 24.184C205.692 24.5787 205.425 25.1173 205.34 25.8H210.22ZM213.311 26.552C213.311 25.6667 213.492 24.8827 213.855 24.2C214.228 23.5173 214.729 22.9893 215.359 22.616C215.999 22.232 216.703 22.04 217.471 22.04C218.164 22.04 218.767 22.1787 219.279 22.456C219.801 22.7227 220.217 23.0587 220.527 23.464V22.184H222.367V31H220.527V29.688C220.217 30.104 219.796 30.4507 219.263 30.728C218.729 31.0053 218.121 31.144 217.439 31.144C216.681 31.144 215.988 30.952 215.359 30.568C214.729 30.1733 214.228 29.6293 213.855 28.936C213.492 28.232 213.311 27.4373 213.311 26.552ZM220.527 26.584C220.527 25.976 220.399 25.448 220.143 25C219.897 24.552 219.572 24.2107 219.167 23.976C218.761 23.7413 218.324 23.624 217.855 23.624C217.385 23.624 216.948 23.7413 216.543 23.976C216.137 24.2 215.807 24.536 215.551 24.984C215.305 25.4213 215.183 25.944 215.183 26.552C215.183 27.16 215.305 27.6933 215.551 28.152C215.807 28.6107 216.137 28.9627 216.543 29.208C216.959 29.4427 217.396 29.56 217.855 29.56C218.324 29.56 218.761 29.4427 219.167 29.208C219.572 28.9733 219.897 28.632 220.143 28.184C220.399 27.7253 220.527 27.192 220.527 26.584ZM226.587 23.464C226.853 23.016 227.205 22.6693 227.643 22.424C228.091 22.168 228.619 22.04 229.227 22.04V23.928H228.763C228.048 23.928 227.504 24.1093 227.131 24.472C226.768 24.8347 226.587 25.464 226.587 26.36V31H224.763V22.184H226.587V23.464ZM230.295 26.552C230.295 25.6667 230.476 24.8827 230.839 24.2C231.212 23.5173 231.714 22.9893 232.343 22.616C232.983 22.232 233.687 22.04 234.455 22.04C235.148 22.04 235.751 22.1787 236.263 22.456C236.786 22.7227 237.202 23.0587 237.511 23.464V22.184H239.351V31H237.511V29.688C237.202 30.104 236.78 30.4507 236.247 30.728C235.714 31.0053 235.106 31.144 234.423 31.144C233.666 31.144 232.972 30.952 232.343 30.568C231.714 30.1733 231.212 29.6293 230.839 28.936C230.476 28.232 230.295 27.4373 230.295 26.552ZM237.511 26.584C237.511 25.976 237.383 25.448 237.127 25C236.882 24.552 236.556 24.2107 236.151 23.976C235.746 23.7413 235.308 23.624 234.839 23.624C234.37 23.624 233.932 23.7413 233.527 23.976C233.122 24.2 232.791 24.536 232.535 24.984C232.29 25.4213 232.167 25.944 232.167 26.552C232.167 27.16 232.29 27.6933 232.535 28.152C232.791 28.6107 233.122 28.9627 233.527 29.208C233.943 29.4427 234.38 29.56 234.839 29.56C235.308 29.56 235.746 29.4427 236.151 29.208C236.556 28.9733 236.882 28.632 237.127 28.184C237.383 27.7253 237.511 27.192 237.511 26.584ZM246.195 22.04C246.888 22.04 247.507 22.184 248.051 22.472C248.606 22.76 249.038 23.1867 249.347 23.752C249.656 24.3173 249.811 25 249.811 25.8V31H248.003V26.072C248.003 25.2827 247.806 24.68 247.411 24.264C247.016 23.8373 246.478 23.624 245.795 23.624C245.112 23.624 244.568 23.8373 244.163 24.264C243.768 24.68 243.571 25.2827 243.571 26.072V31H241.747V22.184H243.571V23.192C243.87 22.8293 244.248 22.5467 244.707 22.344C245.176 22.1413 245.672 22.04 246.195 22.04ZM251.53 26.584C251.53 25.6773 251.711 24.8827 252.074 24.2C252.447 23.5067 252.959 22.9733 253.61 22.6C254.26 22.2267 255.007 22.04 255.85 22.04C256.916 22.04 257.796 22.296 258.49 22.808C259.194 23.3093 259.668 24.0293 259.914 24.968H257.946C257.786 24.5307 257.53 24.1893 257.178 23.944C256.826 23.6987 256.383 23.576 255.85 23.576C255.103 23.576 254.506 23.8427 254.058 24.376C253.62 24.8987 253.402 25.6347 253.402 26.584C253.402 27.5333 253.62 28.2747 254.058 28.808C254.506 29.3413 255.103 29.608 255.85 29.608C256.906 29.608 257.604 29.144 257.946 28.216H259.914C259.658 29.112 259.178 29.8267 258.474 30.36C257.77 30.8827 256.895 31.144 255.85 31.144C255.007 31.144 254.26 30.9573 253.61 30.584C252.959 30.2 252.447 29.6667 252.074 28.984C251.711 28.2907 251.53 27.4907 251.53 26.584ZM269.811 26.376C269.811 26.7067 269.79 27.0053 269.747 27.272H263.011C263.065 27.976 263.326 28.5413 263.795 28.968C264.265 29.3947 264.841 29.608 265.523 29.608C266.505 29.608 267.198 29.1973 267.603 28.376H269.571C269.305 29.1867 268.819 29.8533 268.115 30.376C267.422 30.888 266.558 31.144 265.523 31.144C264.681 31.144 263.923 30.9573 263.251 30.584C262.59 30.2 262.067 29.6667 261.683 28.984C261.31 28.2907 261.123 27.4907 261.123 26.584C261.123 25.6773 261.305 24.8827 261.667 24.2C262.041 23.5067 262.558 22.9733 263.219 22.6C263.891 22.2267 264.659 22.04 265.523 22.04C266.355 22.04 267.097 22.2213 267.747 22.584C268.398 22.9467 268.905 23.4587 269.267 24.12C269.63 24.7707 269.811 25.5227 269.811 26.376ZM267.907 25.8C267.897 25.128 267.657 24.5893 267.187 24.184C266.718 23.7787 266.137 23.576 265.443 23.576C264.814 23.576 264.275 23.7787 263.827 24.184C263.379 24.5787 263.113 25.1173 263.027 25.8H267.907Z"></path>
<rect fill="#E6E6E6" rx="10" height="50" width="70" y="140" x="400"></rect>
<rect fill="black" rx="1" height="2" width="8" y="164" x="410"></rect>
<rect fill="black" transform="rotate(90 415 161)" rx="1" height="2" width="8" y="161" x="415"></rect>
<path fill="black" d="M427.512 156.44V162H426.6V156.44H427.512ZM434.045 157.52C434.392 157.52 434.701 157.592 434.973 157.736C435.251 157.88 435.467 158.093 435.621 158.376C435.781 158.659 435.861 159 435.861 159.4V162H434.957V159.536C434.957 159.141 434.859 158.84 434.661 158.632C434.464 158.419 434.195 158.312 433.853 158.312C433.512 158.312 433.24 158.419 433.037 158.632C432.84 158.84 432.741 159.141 432.741 159.536V162H431.837V159.536C431.837 159.141 431.739 158.84 431.541 158.632C431.344 158.419 431.075 158.312 430.733 158.312C430.392 158.312 430.12 158.419 429.917 158.632C429.72 158.84 429.621 159.141 429.621 159.536V162H428.709V157.592H429.621V158.096C429.771 157.915 429.96 157.773 430.189 157.672C430.419 157.571 430.664 157.52 430.925 157.52C431.277 157.52 431.592 157.595 431.869 157.744C432.147 157.893 432.36 158.109 432.509 158.392C432.643 158.125 432.851 157.915 433.133 157.76C433.416 157.6 433.72 157.52 434.045 157.52ZM437.934 158.24C438.089 158.037 438.299 157.867 438.566 157.728C438.833 157.589 439.134 157.52 439.47 157.52C439.854 157.52 440.203 157.616 440.518 157.808C440.838 157.995 441.089 158.259 441.27 158.6C441.451 158.941 441.542 159.333 441.542 159.776C441.542 160.219 441.451 160.616 441.27 160.968C441.089 161.315 440.838 161.587 440.518 161.784C440.203 161.976 439.854 162.072 439.47 162.072C439.134 162.072 438.835 162.005 438.574 161.872C438.313 161.733 438.099 161.563 437.934 161.36V164.096H437.022V157.592H437.934V158.24ZM440.614 159.776C440.614 159.472 440.55 159.211 440.422 158.992C440.299 158.768 440.134 158.6 439.926 158.488C439.723 158.371 439.505 158.312 439.27 158.312C439.041 158.312 438.822 158.371 438.614 158.488C438.411 158.605 438.246 158.776 438.118 159C437.995 159.224 437.934 159.488 437.934 159.792C437.934 160.096 437.995 160.363 438.118 160.592C438.246 160.816 438.411 160.987 438.614 161.104C438.822 161.221 439.041 161.28 439.27 161.28C439.505 161.28 439.723 161.221 439.926 161.104C440.134 160.981 440.299 160.805 440.422 160.576C440.55 160.347 440.614 160.08 440.614 159.776ZM444.356 162.072C443.94 162.072 443.564 161.979 443.228 161.792C442.892 161.6 442.628 161.333 442.436 160.992C442.244 160.645 442.148 160.245 442.148 159.792C442.148 159.344 442.246 158.947 442.444 158.6C442.641 158.253 442.91 157.987 443.252 157.8C443.593 157.613 443.974 157.52 444.396 157.52C444.817 157.52 445.198 157.613 445.54 157.8C445.881 157.987 446.15 158.253 446.348 158.6C446.545 158.947 446.644 159.344 446.644 159.792C446.644 160.24 446.542 160.637 446.34 160.984C446.137 161.331 445.86 161.6 445.508 161.792C445.161 161.979 444.777 162.072 444.356 162.072ZM444.356 161.28C444.59 161.28 444.809 161.224 445.012 161.112C445.22 161 445.388 160.832 445.516 160.608C445.644 160.384 445.708 160.112 445.708 159.792C445.708 159.472 445.646 159.203 445.524 158.984C445.401 158.76 445.238 158.592 445.036 158.48C444.833 158.368 444.614 158.312 444.38 158.312C444.145 158.312 443.926 158.368 443.724 158.48C443.526 158.592 443.369 158.76 443.252 158.984C443.134 159.203 443.076 159.472 443.076 159.792C443.076 160.267 443.196 160.635 443.436 160.896C443.681 161.152 443.988 161.28 444.356 161.28ZM448.457 158.232C448.591 158.008 448.767 157.835 448.985 157.712C449.209 157.584 449.473 157.52 449.777 157.52V158.464H449.545C449.188 158.464 448.916 158.555 448.729 158.736C448.548 158.917 448.457 159.232 448.457 159.68V162H447.545V157.592H448.457V158.232ZM451.68 158.336V160.776C451.68 160.941 451.717 161.061 451.792 161.136C451.872 161.205 452.005 161.24 452.192 161.24H452.752V162H452.032C451.621 162 451.306 161.904 451.088 161.712C450.869 161.52 450.76 161.208 450.76 160.776V158.336H450.24V157.592H450.76V156.496H451.68V157.592H452.752V158.336H451.68ZM455.366 159.776C455.366 159.333 455.457 158.941 455.638 158.6C455.825 158.259 456.076 157.995 456.39 157.808C456.71 157.616 457.062 157.52 457.446 157.52C457.793 157.52 458.094 157.589 458.35 157.728C458.612 157.861 458.82 158.029 458.974 158.232V157.592H459.894V162H458.974V161.344C458.82 161.552 458.609 161.725 458.342 161.864C458.076 162.003 457.772 162.072 457.43 162.072C457.052 162.072 456.705 161.976 456.39 161.784C456.076 161.587 455.825 161.315 455.638 160.968C455.457 160.616 455.366 160.219 455.366 159.776ZM458.974 159.792C458.974 159.488 458.91 159.224 458.782 159C458.66 158.776 458.497 158.605 458.294 158.488C458.092 158.371 457.873 158.312 457.638 158.312C457.404 158.312 457.185 158.371 456.982 158.488C456.78 158.6 456.614 158.768 456.486 158.992C456.364 159.211 456.302 159.472 456.302 159.776C456.302 160.08 456.364 160.347 456.486 160.576C456.614 160.805 456.78 160.981 456.982 161.104C457.19 161.221 457.409 161.28 457.638 161.28C457.873 161.28 458.092 161.221 458.294 161.104C458.497 160.987 458.66 160.816 458.782 160.592C458.91 160.363 458.974 160.096 458.974 159.792ZM426.296 171.776C426.296 171.333 426.387 170.941 426.568 170.6C426.755 170.259 427.005 169.995 427.32 169.808C427.64 169.616 427.995 169.52 428.384 169.52C428.672 169.52 428.955 169.584 429.232 169.712C429.515 169.835 429.739 170 429.904 170.208V168.08H430.824V174H429.904V173.336C429.755 173.549 429.547 173.725 429.28 173.864C429.019 174.003 428.717 174.072 428.376 174.072C427.992 174.072 427.64 173.976 427.32 173.784C427.005 173.587 426.755 173.315 426.568 172.968C426.387 172.616 426.296 172.219 426.296 171.776ZM429.904 171.792C429.904 171.488 429.84 171.224 429.712 171C429.589 170.776 429.427 170.605 429.224 170.488C429.021 170.371 428.803 170.312 428.568 170.312C428.333 170.312 428.115 170.371 427.912 170.488C427.709 170.6 427.544 170.768 427.416 170.992C427.293 171.211 427.232 171.472 427.232 171.776C427.232 172.08 427.293 172.347 427.416 172.576C427.544 172.805 427.709 172.981 427.912 173.104C428.12 173.221 428.339 173.28 428.568 173.28C428.803 173.28 429.021 173.221 429.224 173.104C429.427 172.987 429.589 172.816 429.712 172.592C429.84 172.363 429.904 172.096 429.904 171.792ZM432.934 170.232C433.067 170.008 433.243 169.835 433.462 169.712C433.686 169.584 433.95 169.52 434.254 169.52V170.464H434.022C433.665 170.464 433.393 170.555 433.206 170.736C433.025 170.917 432.934 171.232 432.934 171.68V174H432.022V169.592H432.934V170.232ZM434.788 171.776C434.788 171.333 434.879 170.941 435.06 170.6C435.247 170.259 435.498 169.995 435.812 169.808C436.132 169.616 436.484 169.52 436.868 169.52C437.215 169.52 437.516 169.589 437.772 169.728C438.034 169.861 438.242 170.029 438.396 170.232V169.592H439.316V174H438.396V173.344C438.242 173.552 438.031 173.725 437.764 173.864C437.498 174.003 437.194 174.072 436.852 174.072C436.474 174.072 436.127 173.976 435.812 173.784C435.498 173.587 435.247 173.315 435.06 172.968C434.879 172.616 434.788 172.219 434.788 171.776ZM438.396 171.792C438.396 171.488 438.332 171.224 438.204 171C438.082 170.776 437.919 170.605 437.716 170.488C437.514 170.371 437.295 170.312 437.06 170.312C436.826 170.312 436.607 170.371 436.404 170.488C436.202 170.6 436.036 170.768 435.908 170.992C435.786 171.211 435.724 171.472 435.724 171.776C435.724 172.08 435.786 172.347 435.908 172.576C436.036 172.805 436.202 172.981 436.404 173.104C436.612 173.221 436.831 173.28 437.06 173.28C437.295 173.28 437.514 173.221 437.716 173.104C437.919 172.987 438.082 172.816 438.204 172.592C438.332 172.363 438.396 172.096 438.396 171.792ZM446.434 169.592L445.066 174H444.106L443.218 170.744L442.33 174H441.37L439.994 169.592H440.922L441.842 173.136L442.778 169.592H443.73L444.626 173.12L445.538 169.592H446.434ZM447.58 169.008C447.414 169.008 447.276 168.952 447.164 168.84C447.052 168.728 446.996 168.589 446.996 168.424C446.996 168.259 447.052 168.12 447.164 168.008C447.276 167.896 447.414 167.84 447.58 167.84C447.74 167.84 447.876 167.896 447.988 168.008C448.1 168.12 448.156 168.259 448.156 168.424C448.156 168.589 448.1 168.728 447.988 168.84C447.876 168.952 447.74 169.008 447.58 169.008ZM448.028 169.592V174H447.116V169.592H448.028ZM451.449 169.52C451.796 169.52 452.105 169.592 452.377 169.736C452.654 169.88 452.87 170.093 453.025 170.376C453.18 170.659 453.257 171 453.257 171.4V174H452.353V171.536C452.353 171.141 452.254 170.84 452.057 170.632C451.86 170.419 451.59 170.312 451.249 170.312C450.908 170.312 450.636 170.419 450.433 170.632C450.236 170.84 450.137 171.141 450.137 171.536V174H449.225V169.592H450.137V170.096C450.286 169.915 450.476 169.773 450.705 169.672C450.94 169.571 451.188 169.52 451.449 169.52ZM456.196 169.52C456.538 169.52 456.839 169.589 457.1 169.728C457.367 169.861 457.575 170.029 457.724 170.232V169.592H458.644V174.072C458.644 174.477 458.559 174.837 458.388 175.152C458.218 175.472 457.97 175.723 457.644 175.904C457.324 176.085 456.94 176.176 456.492 176.176C455.895 176.176 455.399 176.035 455.004 175.752C454.61 175.475 454.386 175.096 454.332 174.616H455.236C455.306 174.845 455.452 175.029 455.676 175.168C455.906 175.312 456.178 175.384 456.492 175.384C456.86 175.384 457.156 175.272 457.38 175.048C457.61 174.824 457.724 174.499 457.724 174.072V173.336C457.57 173.544 457.359 173.72 457.092 173.864C456.831 174.003 456.532 174.072 456.196 174.072C455.812 174.072 455.46 173.976 455.14 173.784C454.826 173.587 454.575 173.315 454.388 172.968C454.207 172.616 454.116 172.219 454.116 171.776C454.116 171.333 454.207 170.941 454.388 170.6C454.575 170.259 454.826 169.995 455.14 169.808C455.46 169.616 455.812 169.52 456.196 169.52ZM457.724 171.792C457.724 171.488 457.66 171.224 457.532 171C457.41 170.776 457.247 170.605 457.044 170.488C456.842 170.371 456.623 170.312 456.388 170.312C456.154 170.312 455.935 170.371 455.732 170.488C455.53 170.6 455.364 170.768 455.236 170.992C455.114 171.211 455.052 171.472 455.052 171.776C455.052 172.08 455.114 172.347 455.236 172.576C455.364 172.805 455.53 172.981 455.732 173.104C455.94 173.221 456.159 173.28 456.388 173.28C456.623 173.28 456.842 173.221 457.044 173.104C457.247 172.987 457.41 172.816 457.532 172.592C457.66 172.363 457.724 172.096 457.724 171.792Z"></path>
<path fill="black" d="M192.268 247.896H195.088V249H190.9V240.66H192.268V247.896ZM196.928 241.512C196.68 241.512 196.472 241.428 196.304 241.26C196.136 241.092 196.052 240.884 196.052 240.636C196.052 240.388 196.136 240.18 196.304 240.012C196.472 239.844 196.68 239.76 196.928 239.76C197.168 239.76 197.372 239.844 197.54 240.012C197.708 240.18 197.792 240.388 197.792 240.636C197.792 240.884 197.708 241.092 197.54 241.26C197.372 241.428 197.168 241.512 196.928 241.512ZM197.6 242.388V249H196.232V242.388H197.6ZM202.06 242.28C202.572 242.28 203.024 242.384 203.416 242.592C203.816 242.792 204.128 243.044 204.352 243.348V242.388H205.732V249.108C205.732 249.716 205.604 250.256 205.348 250.728C205.092 251.208 204.72 251.584 204.232 251.856C203.752 252.128 203.176 252.264 202.504 252.264C201.608 252.264 200.864 252.052 200.272 251.628C199.68 251.212 199.344 250.644 199.264 249.924H200.62C200.724 250.268 200.944 250.544 201.28 250.752C201.624 250.968 202.032 251.076 202.504 251.076C203.056 251.076 203.5 250.908 203.836 250.572C204.18 250.236 204.352 249.748 204.352 249.108V248.004C204.12 248.316 203.804 248.58 203.404 248.796C203.012 249.004 202.564 249.108 202.06 249.108C201.484 249.108 200.956 248.964 200.476 248.676C200.004 248.38 199.628 247.972 199.348 247.452C199.076 246.924 198.94 246.328 198.94 245.664C198.94 245 199.076 244.412 199.348 243.9C199.628 243.388 200.004 242.992 200.476 242.712C200.956 242.424 201.484 242.28 202.06 242.28ZM204.352 245.688C204.352 245.232 204.256 244.836 204.064 244.5C203.88 244.164 203.636 243.908 203.332 243.732C203.028 243.556 202.7 243.468 202.348 243.468C201.996 243.468 201.668 243.556 201.364 243.732C201.06 243.9 200.812 244.152 200.62 244.488C200.436 244.816 200.344 245.208 200.344 245.664C200.344 246.12 200.436 246.52 200.62 246.864C200.812 247.208 201.06 247.472 201.364 247.656C201.676 247.832 202.004 247.92 202.348 247.92C202.7 247.92 203.028 247.832 203.332 247.656C203.636 247.48 203.88 247.224 204.064 246.888C204.256 246.544 204.352 246.144 204.352 245.688ZM210.949 242.28C211.453 242.28 211.901 242.388 212.293 242.604C212.693 242.82 213.005 243.14 213.229 243.564C213.461 243.988 213.577 244.5 213.577 245.1V249H212.221V245.304C212.221 244.712 212.073 244.26 211.777 243.948C211.481 243.628 211.077 243.468 210.565 243.468C210.053 243.468 209.645 243.628 209.341 243.948C209.045 244.26 208.897 244.712 208.897 245.304V249H207.529V240.12H208.897V243.156C209.129 242.876 209.421 242.66 209.773 242.508C210.133 242.356 210.525 242.28 210.949 242.28ZM216.918 243.504V247.164C216.918 247.412 216.974 247.592 217.086 247.704C217.206 247.808 217.406 247.86 217.686 247.86H218.526V249H217.446C216.83 249 216.358 248.856 216.03 248.568C215.702 248.28 215.538 247.812 215.538 247.164V243.504H214.758V242.388H215.538V240.744H216.918V242.388H218.526V243.504H216.918Z"></path>
<path fill="black" d="M293.624 240.66C294.512 240.66 295.288 240.832 295.952 241.176C296.624 241.512 297.14 242 297.5 242.64C297.868 243.272 298.052 244.012 298.052 244.86C298.052 245.708 297.868 246.444 297.5 247.068C297.14 247.692 296.624 248.172 295.952 248.508C295.288 248.836 294.512 249 293.624 249H290.9V240.66H293.624ZM293.624 247.884C294.6 247.884 295.348 247.62 295.868 247.092C296.388 246.564 296.648 245.82 296.648 244.86C296.648 243.892 296.388 243.136 295.868 242.592C295.348 242.048 294.6 241.776 293.624 241.776H292.268V247.884H293.624ZM298.952 245.664C298.952 245 299.088 244.412 299.36 243.9C299.64 243.388 300.016 242.992 300.488 242.712C300.968 242.424 301.496 242.28 302.072 242.28C302.592 242.28 303.044 242.384 303.428 242.592C303.82 242.792 304.132 243.044 304.364 243.348V242.388H305.744V249H304.364V248.016C304.132 248.328 303.816 248.588 303.416 248.796C303.016 249.004 302.56 249.108 302.048 249.108C301.48 249.108 300.96 248.964 300.488 248.676C300.016 248.38 299.64 247.972 299.36 247.452C299.088 246.924 298.952 246.328 298.952 245.664ZM304.364 245.688C304.364 245.232 304.268 244.836 304.076 244.5C303.892 244.164 303.648 243.908 303.344 243.732C303.04 243.556 302.712 243.468 302.36 243.468C302.008 243.468 301.68 243.556 301.376 243.732C301.072 243.9 300.824 244.152 300.632 244.488C300.448 244.816 300.356 245.208 300.356 245.664C300.356 246.12 300.448 246.52 300.632 246.864C300.824 247.208 301.072 247.472 301.376 247.656C301.688 247.832 302.016 247.92 302.36 247.92C302.712 247.92 303.04 247.832 303.344 247.656C303.648 247.48 303.892 247.224 304.076 246.888C304.268 246.544 304.364 246.144 304.364 245.688ZM308.909 243.348C309.109 243.012 309.373 242.752 309.701 242.568C310.037 242.376 310.433 242.28 310.889 242.28V243.696H310.541C310.005 243.696 309.597 243.832 309.317 244.104C309.045 244.376 308.909 244.848 308.909 245.52V249H307.541V242.388H308.909V243.348ZM314.762 245.7L317.81 249H315.962L313.514 246.156V249H312.146V240.12H313.514V245.28L315.914 242.388H317.81L314.762 245.7Z"></path>
<rect fill="black" rx="3" height="6" width="6" y="242" x="172"></rect>
<rect fill="black" rx="1" height="2" width="2" y="239" x="174"></rect>
<rect fill="black" rx="1" height="2" width="2" y="249" x="174"></rect>
<rect fill="black" transform="rotate(60 179.696 241.134)" rx="1" height="2" width="2" y="241.134" x="179.696"></rect>
<rect fill="black" transform="rotate(60 171.036 246.134)" rx="1" height="2" width="2" y="246.134" x="171.036"></rect>
<rect fill="black" transform="rotate(-60 169.304 242.866)" rx="1" height="2" width="2" y="242.866" x="169.304"></rect>
<rect fill="black" transform="rotate(-60 177.964 247.866)" rx="1" height="2" width="2" y="247.866" x="177.964"></rect>
<path fill="black" d="M395.928 247.296H392.436L391.836 249H390.408L393.396 240.648H394.98L397.968 249H396.528L395.928 247.296ZM395.544 246.18L394.188 242.304L392.82 246.18H395.544ZM398.811 245.664C398.811 245 398.947 244.412 399.219 243.9C399.499 243.388 399.875 242.992 400.347 242.712C400.827 242.424 401.359 242.28 401.943 242.28C402.375 242.28 402.799 242.376 403.215 242.568C403.639 242.752 403.975 243 404.223 243.312V240.12H405.603V249H404.223V248.004C403.999 248.324 403.687 248.588 403.287 248.796C402.895 249.004 402.443 249.108 401.931 249.108C401.355 249.108 400.827 248.964 400.347 248.676C399.875 248.38 399.499 247.972 399.219 247.452C398.947 246.924 398.811 246.328 398.811 245.664ZM404.223 245.688C404.223 245.232 404.127 244.836 403.935 244.5C403.751 244.164 403.507 243.908 403.203 243.732C402.899 243.556 402.571 243.468 402.219 243.468C401.867 243.468 401.539 243.556 401.235 243.732C400.931 243.9 400.683 244.152 400.491 244.488C400.307 244.816 400.215 245.208 400.215 245.664C400.215 246.12 400.307 246.52 400.491 246.864C400.683 247.208 400.931 247.472 401.235 247.656C401.547 247.832 401.875 247.92 402.219 247.92C402.571 247.92 402.899 247.832 403.203 247.656C403.507 247.48 403.751 247.224 403.935 246.888C404.127 246.544 404.223 246.144 404.223 245.688ZM406.944 245.664C406.944 245 407.08 244.412 407.352 243.9C407.632 243.388 408.008 242.992 408.48 242.712C408.96 242.424 409.488 242.28 410.064 242.28C410.584 242.28 411.036 242.384 411.42 242.592C411.812 242.792 412.124 243.044 412.356 243.348V242.388H413.736V249H412.356V248.016C412.124 248.328 411.808 248.588 411.408 248.796C411.008 249.004 410.552 249.108 410.04 249.108C409.472 249.108 408.952 248.964 408.48 248.676C408.008 248.38 407.632 247.972 407.352 247.452C407.08 246.924 406.944 246.328 406.944 245.664ZM412.356 245.688C412.356 245.232 412.26 244.836 412.068 244.5C411.884 244.164 411.64 243.908 411.336 243.732C411.032 243.556 410.704 243.468 410.352 243.468C410 243.468 409.672 243.556 409.368 243.732C409.064 243.9 408.816 244.152 408.624 244.488C408.44 244.816 408.348 245.208 408.348 245.664C408.348 246.12 408.44 246.52 408.624 246.864C408.816 247.208 409.064 247.472 409.368 247.656C409.68 247.832 410.008 247.92 410.352 247.92C410.704 247.92 411.032 247.832 411.336 247.656C411.64 247.48 411.884 247.224 412.068 246.888C412.26 246.544 412.356 246.144 412.356 245.688ZM416.901 243.36C417.133 243.056 417.449 242.8 417.849 242.592C418.249 242.384 418.701 242.28 419.205 242.28C419.781 242.28 420.305 242.424 420.777 242.712C421.257 242.992 421.633 243.388 421.905 243.9C422.177 244.412 422.313 245 422.313 245.664C422.313 246.328 422.177 246.924 421.905 247.452C421.633 247.972 421.257 248.38 420.777 248.676C420.305 248.964 419.781 249.108 419.205 249.108C418.701 249.108 418.253 249.008 417.861 248.808C417.469 248.6 417.149 248.344 416.901 248.04V252.144H415.533V242.388H416.901V243.36ZM420.921 245.664C420.921 245.208 420.825 244.816 420.633 244.488C420.449 244.152 420.201 243.9 419.889 243.732C419.585 243.556 419.257 243.468 418.905 243.468C418.561 243.468 418.233 243.556 417.921 243.732C417.617 243.908 417.369 244.164 417.177 244.5C416.993 244.836 416.901 245.232 416.901 245.688C416.901 246.144 416.993 246.544 417.177 246.888C417.369 247.224 417.617 247.48 417.921 247.656C418.233 247.832 418.561 247.92 418.905 247.92C419.257 247.92 419.585 247.832 419.889 247.656C420.201 247.472 420.449 247.208 420.633 246.864C420.825 246.52 420.921 246.12 420.921 245.664ZM425.262 243.504V247.164C425.262 247.412 425.318 247.592 425.43 247.704C425.55 247.808 425.75 247.86 426.03 247.86H426.87V249H425.79C425.174 249 424.702 248.856 424.374 248.568C424.046 248.28 423.882 247.812 423.882 247.164V243.504H423.102V242.388H423.882V240.744H425.262V242.388H426.87V243.504H425.262ZM428.826 241.512C428.578 241.512 428.37 241.428 428.202 241.26C428.034 241.092 427.95 240.884 427.95 240.636C427.95 240.388 428.034 240.18 428.202 240.012C428.37 239.844 428.578 239.76 428.826 239.76C429.066 239.76 429.27 239.844 429.438 240.012C429.606 240.18 429.69 240.388 429.69 240.636C429.69 240.884 429.606 241.092 429.438 241.26C429.27 241.428 429.066 241.512 428.826 241.512ZM429.498 242.388V249H428.13V242.388H429.498ZM433.851 247.776L435.723 242.388H437.175L434.655 249H433.023L430.515 242.388H431.979L433.851 247.776ZM444.269 245.532C444.269 245.78 444.253 246.004 444.221 246.204H439.169C439.209 246.732 439.405 247.156 439.757 247.476C440.109 247.796 440.541 247.956 441.053 247.956C441.789 247.956 442.309 247.648 442.613 247.032H444.089C443.889 247.64 443.525 248.14 442.997 248.532C442.477 248.916 441.829 249.108 441.053 249.108C440.421 249.108 439.853 248.968 439.349 248.688C438.853 248.4 438.461 248 438.173 247.488C437.893 246.968 437.753 246.368 437.753 245.688C437.753 245.008 437.889 244.412 438.161 243.9C438.441 243.38 438.829 242.98 439.325 242.7C439.829 242.42 440.405 242.28 441.053 242.28C441.677 242.28 442.233 242.416 442.721 242.688C443.209 242.96 443.589 243.344 443.861 243.84C444.133 244.328 444.269 244.892 444.269 245.532ZM442.841 245.1C442.833 244.596 442.653 244.192 442.301 243.888C441.949 243.584 441.513 243.432 440.993 243.432C440.521 243.432 440.117 243.584 439.781 243.888C439.445 244.184 439.245 244.588 439.181 245.1H442.841Z"></path>
<circle stroke-width="2" stroke="black" r="5" cy="245" cx="375"></circle>
<rect fill="black" rx="1" height="4" width="2" y="242" x="374"></rect>
<rect fill="black" transform="rotate(-135 373.939 247.475)" rx="1" height="3.5" width="2" y="247.475" x="373.939"></rect>
<path fill="black" d="M274.136 239.484C274.522 238.821 275.478 238.821 275.864 239.484L277.041 241.504C277.182 241.747 277.419 241.919 277.694 241.979L279.979 242.474C280.728 242.636 281.024 243.546 280.513 244.117L278.955 245.861C278.768 246.07 278.678 246.349 278.706 246.628L278.942 248.955C279.019 249.717 278.245 250.28 277.543 249.971L275.403 249.028C275.146 248.914 274.854 248.914 274.597 249.028L272.457 249.971C271.755 250.28 270.981 249.717 271.058 248.955L271.294 246.628C271.322 246.349 271.232 246.07 271.045 245.861L269.487 244.117C268.976 243.546 269.272 242.636 270.021 242.474L272.306 241.979C272.581 241.919 272.818 241.747 272.959 241.504L274.136 239.484Z"></path>
<path fill="black" d="M176.288 210.66V211.776H174.068V219H172.7V211.776H170.468V210.66H176.288ZM181.093 212.28C181.597 212.28 182.045 212.388 182.437 212.604C182.837 212.82 183.149 213.14 183.373 213.564C183.605 213.988 183.721 214.5 183.721 215.1V219H182.365V215.304C182.365 214.712 182.217 214.26 181.921 213.948C181.625 213.628 181.221 213.468 180.709 213.468C180.197 213.468 179.789 213.628 179.485 213.948C179.189 214.26 179.041 214.712 179.041 215.304V219H177.673V210.12H179.041V213.156C179.273 212.876 179.565 212.66 179.917 212.508C180.277 212.356 180.669 212.28 181.093 212.28ZM191.526 215.532C191.526 215.78 191.51 216.004 191.478 216.204H186.426C186.466 216.732 186.662 217.156 187.014 217.476C187.366 217.796 187.798 217.956 188.31 217.956C189.046 217.956 189.566 217.648 189.87 217.032H191.346C191.146 217.64 190.782 218.14 190.254 218.532C189.734 218.916 189.086 219.108 188.31 219.108C187.678 219.108 187.11 218.968 186.606 218.688C186.11 218.4 185.718 218 185.43 217.488C185.15 216.968 185.01 216.368 185.01 215.688C185.01 215.008 185.146 214.412 185.418 213.9C185.698 213.38 186.086 212.98 186.582 212.7C187.086 212.42 187.662 212.28 188.31 212.28C188.934 212.28 189.49 212.416 189.978 212.688C190.466 212.96 190.846 213.344 191.118 213.84C191.39 214.328 191.526 214.892 191.526 215.532ZM190.098 215.1C190.09 214.596 189.91 214.192 189.558 213.888C189.206 213.584 188.77 213.432 188.25 213.432C187.778 213.432 187.374 213.584 187.038 213.888C186.702 214.184 186.502 214.588 186.438 215.1H190.098ZM200.877 212.28C201.397 212.28 201.861 212.388 202.269 212.604C202.685 212.82 203.009 213.14 203.241 213.564C203.481 213.988 203.601 214.5 203.601 215.1V219H202.245V215.304C202.245 214.712 202.097 214.26 201.801 213.948C201.505 213.628 201.101 213.468 200.589 213.468C200.077 213.468 199.669 213.628 199.365 213.948C199.069 214.26 198.921 214.712 198.921 215.304V219H197.565V215.304C197.565 214.712 197.417 214.26 197.121 213.948C196.825 213.628 196.421 213.468 195.909 213.468C195.397 213.468 194.989 213.628 194.685 213.948C194.389 214.26 194.241 214.712 194.241 215.304V219H192.873V212.388H194.241V213.144C194.465 212.872 194.749 212.66 195.093 212.508C195.437 212.356 195.805 212.28 196.197 212.28C196.725 212.28 197.197 212.392 197.613 212.616C198.029 212.84 198.349 213.164 198.573 213.588C198.773 213.188 199.085 212.872 199.509 212.64C199.933 212.4 200.389 212.28 200.877 212.28ZM211.401 215.532C211.401 215.78 211.385 216.004 211.353 216.204H206.301C206.341 216.732 206.537 217.156 206.889 217.476C207.241 217.796 207.673 217.956 208.185 217.956C208.921 217.956 209.441 217.648 209.745 217.032H211.221C211.021 217.64 210.657 218.14 210.129 218.532C209.609 218.916 208.961 219.108 208.185 219.108C207.553 219.108 206.985 218.968 206.481 218.688C205.985 218.4 205.593 218 205.305 217.488C205.025 216.968 204.885 216.368 204.885 215.688C204.885 215.008 205.021 214.412 205.293 213.9C205.573 213.38 205.961 212.98 206.457 212.7C206.961 212.42 207.537 212.28 208.185 212.28C208.809 212.28 209.365 212.416 209.853 212.688C210.341 212.96 210.721 213.344 210.993 213.84C211.265 214.328 211.401 214.892 211.401 215.532ZM209.973 215.1C209.965 214.596 209.785 214.192 209.433 213.888C209.081 213.584 208.645 213.432 208.125 213.432C207.653 213.432 207.249 213.584 206.913 213.888C206.577 214.184 206.377 214.588 206.313 215.1H209.973Z"></path>
</g>
<defs>
<clipPath id="clip0_6_51">
<rect fill="white" height="360" width="480"></rect>
</clipPath>
</defs>
</svg>
