<svg width="450" height="360" viewBox="0 0 450 360" fill="none" xmlns="http://www.w3.org/2000/svg">
<rect width="450" height="40" rx="15" fill="black" fill-opacity="0.1"/>
<path d="M26.936 18.06C26.72 17.644 26.42 17.332 26.036 17.124C25.652 16.908 25.208 16.8 24.704 16.8C24.152 16.8 23.66 16.924 23.228 17.172C22.796 17.42 22.456 17.772 22.208 18.228C21.968 18.684 21.848 19.212 21.848 19.812C21.848 20.412 21.968 20.944 22.208 21.408C22.456 21.864 22.796 22.216 23.228 22.464C23.66 22.712 24.152 22.836 24.704 22.836C25.448 22.836 26.052 22.628 26.516 22.212C26.98 21.796 27.264 21.232 27.368 20.52H24.236V19.428H28.832V20.496C28.744 21.144 28.512 21.74 28.136 22.284C27.768 22.828 27.284 23.264 26.684 23.592C26.092 23.912 25.432 24.072 24.704 24.072C23.92 24.072 23.204 23.892 22.556 23.532C21.908 23.164 21.392 22.656 21.008 22.008C20.632 21.36 20.444 20.628 20.444 19.812C20.444 18.996 20.632 18.264 21.008 17.616C21.392 16.968 21.908 16.464 22.556 16.104C23.212 15.736 23.928 15.552 24.704 15.552C25.592 15.552 26.38 15.772 27.068 16.212C27.764 16.644 28.268 17.26 28.58 18.06H26.936ZM31.5493 15.12V24H30.1813V15.12H31.5493ZM36.2133 24.108C35.5893 24.108 35.0253 23.968 34.5213 23.688C34.0173 23.4 33.6213 23 33.3333 22.488C33.0453 21.968 32.9013 21.368 32.9013 20.688C32.9013 20.016 33.0493 19.42 33.3453 18.9C33.6413 18.38 34.0453 17.98 34.5573 17.7C35.0693 17.42 35.6413 17.28 36.2733 17.28C36.9053 17.28 37.4773 17.42 37.9893 17.7C38.5013 17.98 38.9053 18.38 39.2013 18.9C39.4973 19.42 39.6453 20.016 39.6453 20.688C39.6453 21.36 39.4933 21.956 39.1893 22.476C38.8853 22.996 38.4693 23.4 37.9413 23.688C37.4213 23.968 36.8453 24.108 36.2133 24.108ZM36.2133 22.92C36.5653 22.92 36.8933 22.836 37.1973 22.668C37.5093 22.5 37.7613 22.248 37.9533 21.912C38.1453 21.576 38.2413 21.168 38.2413 20.688C38.2413 20.208 38.1493 19.804 37.9653 19.476C37.7813 19.14 37.5373 18.888 37.2333 18.72C36.9293 18.552 36.6013 18.468 36.2493 18.468C35.8973 18.468 35.5693 18.552 35.2653 18.72C34.9693 18.888 34.7333 19.14 34.5573 19.476C34.3813 19.804 34.2933 20.208 34.2933 20.688C34.2933 21.4 34.4733 21.952 34.8333 22.344C35.2013 22.728 35.6613 22.92 36.2133 22.92ZM49.8777 17.388L47.8257 24H46.3857L45.0537 19.116L43.7217 24H42.2817L40.2177 17.388H41.6097L42.9897 22.704L44.3937 17.388H45.8217L47.1657 22.68L48.5337 17.388H49.8777Z" fill="black"/>
<path d="M231.89 23.08H234.24V24H230.75V17.05H231.89V23.08ZM235.773 17.76C235.567 17.76 235.393 17.69 235.253 17.55C235.113 17.41 235.043 17.2367 235.043 17.03C235.043 16.8233 235.113 16.65 235.253 16.51C235.393 16.37 235.567 16.3 235.773 16.3C235.973 16.3 236.143 16.37 236.283 16.51C236.423 16.65 236.493 16.8233 236.493 17.03C236.493 17.2367 236.423 17.41 236.283 17.55C236.143 17.69 235.973 17.76 235.773 17.76ZM236.333 18.49V24H235.193V18.49H236.333ZM243.21 25.26L241.99 23.94C241.69 24.0267 241.36 24.07 241 24.07C240.353 24.07 239.757 23.92 239.21 23.62C238.67 23.3133 238.24 22.89 237.92 22.35C237.607 21.8033 237.45 21.19 237.45 20.51C237.45 19.83 237.607 19.22 237.92 18.68C238.24 18.14 238.67 17.72 239.21 17.42C239.757 17.1133 240.353 16.96 241 16.96C241.653 16.96 242.25 17.1133 242.79 17.42C243.337 17.72 243.767 18.14 244.08 18.68C244.393 19.22 244.55 19.83 244.55 20.51C244.55 21.15 244.41 21.73 244.13 22.25C243.857 22.7633 243.477 23.1767 242.99 23.49L244.66 25.26H243.21ZM238.62 20.51C238.62 21.0233 238.72 21.4767 238.92 21.87C239.127 22.2567 239.41 22.5567 239.77 22.77C240.13 22.9767 240.54 23.08 241 23.08C241.46 23.08 241.87 22.9767 242.23 22.77C242.59 22.5567 242.87 22.2567 243.07 21.87C243.277 21.4767 243.38 21.0233 243.38 20.51C243.38 19.9967 243.277 19.5467 243.07 19.16C242.87 18.7733 242.59 18.4767 242.23 18.27C241.87 18.0633 241.46 17.96 241 17.96C240.54 17.96 240.13 18.0633 239.77 18.27C239.41 18.4767 239.127 18.7733 238.92 19.16C238.72 19.5467 238.62 19.9967 238.62 20.51ZM254.751 17.05L252.691 24H251.401L249.941 18.74L248.391 24L247.111 24.01L245.141 17.05H246.351L247.791 22.71L249.351 17.05H250.631L252.081 22.68L253.531 17.05H254.751ZM260.841 17.05L258.541 21.48V24H257.401V21.48L255.091 17.05H256.361L257.971 20.46L259.581 17.05H260.841ZM264.016 17.05C264.756 17.05 265.403 17.1933 265.956 17.48C266.516 17.76 266.946 18.1667 267.246 18.7C267.553 19.2267 267.706 19.8433 267.706 20.55C267.706 21.2567 267.553 21.87 267.246 22.39C266.946 22.91 266.516 23.31 265.956 23.59C265.403 23.8633 264.756 24 264.016 24H261.746V17.05H264.016ZM264.016 23.07C264.829 23.07 265.453 22.85 265.886 22.41C266.319 21.97 266.536 21.35 266.536 20.55C266.536 19.7433 266.319 19.1133 265.886 18.66C265.453 18.2067 264.829 17.98 264.016 17.98H262.886V23.07H264.016Z" fill="#808080"/>
<path d="M412.309 18.51C412.349 17.89 412.585 17.4067 413.019 17.06C413.459 16.7133 414.019 16.54 414.699 16.54C415.165 16.54 415.569 16.6233 415.909 16.79C416.249 16.9567 416.505 17.1833 416.679 17.47C416.852 17.7567 416.939 18.08 416.939 18.44C416.939 18.8533 416.829 19.2067 416.609 19.5C416.389 19.7933 416.125 19.99 415.819 20.09V20.13C416.212 20.25 416.519 20.47 416.739 20.79C416.959 21.1033 417.069 21.5067 417.069 22C417.069 22.3933 416.979 22.7433 416.799 23.05C416.619 23.3567 416.352 23.6 415.999 23.78C415.645 23.9533 415.222 24.04 414.729 24.04C414.009 24.04 413.415 23.8567 412.949 23.49C412.489 23.1167 412.242 22.5833 412.209 21.89H413.309C413.335 22.2433 413.472 22.5333 413.719 22.76C413.965 22.98 414.299 23.09 414.719 23.09C415.125 23.09 415.439 22.98 415.659 22.76C415.879 22.5333 415.989 22.2433 415.989 21.89C415.989 21.4233 415.839 21.0933 415.539 20.9C415.245 20.7 414.792 20.6 414.179 20.6H413.919V19.66H414.189C414.729 19.6533 415.139 19.5633 415.419 19.39C415.705 19.2167 415.849 18.9433 415.849 18.57C415.849 18.25 415.745 17.9967 415.539 17.81C415.332 17.6167 415.039 17.52 414.659 17.52C414.285 17.52 413.995 17.6167 413.789 17.81C413.582 17.9967 413.459 18.23 413.419 18.51H412.309ZM418.876 24.07C418.669 24.07 418.496 24 418.356 23.86C418.216 23.72 418.146 23.5467 418.146 23.34C418.146 23.1333 418.216 22.96 418.356 22.82C418.496 22.68 418.669 22.61 418.876 22.61C419.076 22.61 419.246 22.68 419.386 22.82C419.526 22.96 419.596 23.1333 419.596 23.34C419.596 23.5467 419.526 23.72 419.386 23.86C419.246 24 419.076 24.07 418.876 24.07ZM418.876 19.87C418.669 19.87 418.496 19.8 418.356 19.66C418.216 19.52 418.146 19.3467 418.146 19.14C418.146 18.9333 418.216 18.76 418.356 18.62C418.496 18.48 418.669 18.41 418.876 18.41C419.076 18.41 419.246 18.48 419.386 18.62C419.526 18.76 419.596 18.9333 419.596 19.14C419.596 19.3467 419.526 19.52 419.386 19.66C419.246 19.8 419.076 19.87 418.876 19.87ZM420.567 17.75V16.71H422.647V24H421.497V17.75H420.567ZM428.913 17.69H425.563V19.68C425.703 19.4933 425.91 19.3367 426.183 19.21C426.463 19.0833 426.76 19.02 427.073 19.02C427.633 19.02 428.087 19.14 428.433 19.38C428.787 19.62 429.037 19.9233 429.183 20.29C429.337 20.6567 429.413 21.0433 429.413 21.45C429.413 21.9433 429.317 22.3833 429.123 22.77C428.937 23.15 428.653 23.45 428.273 23.67C427.9 23.89 427.44 24 426.893 24C426.167 24 425.583 23.82 425.143 23.46C424.703 23.1 424.44 22.6233 424.353 22.03H425.463C425.537 22.3433 425.7 22.5933 425.953 22.78C426.207 22.96 426.523 23.05 426.903 23.05C427.377 23.05 427.73 22.9067 427.963 22.62C428.203 22.3333 428.323 21.9533 428.323 21.48C428.323 21 428.203 20.6333 427.963 20.38C427.723 20.12 427.37 19.99 426.903 19.99C426.577 19.99 426.3 20.0733 426.073 20.24C425.853 20.4 425.693 20.62 425.593 20.9H424.513V16.69H428.913V17.69Z" fill="#808080"/>
</svg>
