<svg width="240" height="50" viewBox="0 0 240 50" fill="none" xmlns="http://www.w3.org/2000/svg">
<path d="M2.268 13.66V22H0.9V13.66H2.268ZM5.66006 16.504V20.164C5.66006 20.412 5.71606 20.592 5.82806 20.704C5.94806 20.808 6.14806 20.86 6.42806 20.86H7.26806V22H6.18806C5.57206 22 5.10006 21.856 4.77206 21.568C4.44406 21.28 4.28006 20.812 4.28006 20.164V16.504H3.50006V15.388H4.28006V13.744H5.66006V15.388H7.26806V16.504H5.66006ZM8.74491 13.66H10.2329L8.97291 16.516H8.01291L8.74491 13.66ZM13.8352 22.108C13.3152 22.108 12.8472 22.016 12.4312 21.832C12.0232 21.64 11.6992 21.384 11.4592 21.064C11.2192 20.736 11.0912 20.372 11.0752 19.972H12.4912C12.5152 20.252 12.6472 20.488 12.8872 20.68C13.1352 20.864 13.4432 20.956 13.8112 20.956C14.1952 20.956 14.4912 20.884 14.6992 20.74C14.9152 20.588 15.0232 20.396 15.0232 20.164C15.0232 19.916 14.9032 19.732 14.6632 19.612C14.4312 19.492 14.0592 19.36 13.5472 19.216C13.0512 19.08 12.6472 18.948 12.3352 18.82C12.0232 18.692 11.7512 18.496 11.5192 18.232C11.2952 17.968 11.1832 17.62 11.1832 17.188C11.1832 16.836 11.2872 16.516 11.4952 16.228C11.7032 15.932 11.9992 15.7 12.3832 15.532C12.7752 15.364 13.2232 15.28 13.7272 15.28C14.4792 15.28 15.0832 15.472 15.5392 15.856C16.0032 16.232 16.2512 16.748 16.2832 17.404H14.9152C14.8912 17.108 14.7712 16.872 14.5552 16.696C14.3392 16.52 14.0472 16.432 13.6792 16.432C13.3192 16.432 13.0432 16.5 12.8512 16.636C12.6592 16.772 12.5632 16.952 12.5632 17.176C12.5632 17.352 12.6272 17.5 12.7552 17.62C12.8832 17.74 13.0392 17.836 13.2232 17.908C13.4072 17.972 13.6792 18.056 14.0392 18.16C14.5192 18.288 14.9112 18.42 15.2152 18.556C15.5272 18.684 15.7952 18.876 16.0192 19.132C16.2432 19.388 16.3592 19.728 16.3672 20.152C16.3672 20.528 16.2632 20.864 16.0552 21.16C15.8472 21.456 15.5512 21.688 15.1672 21.856C14.7912 22.024 14.3472 22.108 13.8352 22.108ZM20.5065 18.664C20.5065 18 20.6425 17.412 20.9145 16.9C21.1945 16.388 21.5705 15.992 22.0425 15.712C22.5225 15.424 23.0505 15.28 23.6265 15.28C24.1465 15.28 24.5985 15.384 24.9825 15.592C25.3745 15.792 25.6865 16.044 25.9185 16.348V15.388H27.2985V22H25.9185V21.016C25.6865 21.328 25.3705 21.588 24.9705 21.796C24.5705 22.004 24.1145 22.108 23.6025 22.108C23.0345 22.108 22.5145 21.964 22.0425 21.676C21.5705 21.38 21.1945 20.972 20.9145 20.452C20.6425 19.924 20.5065 19.328 20.5065 18.664ZM25.9185 18.688C25.9185 18.232 25.8225 17.836 25.6305 17.5C25.4465 17.164 25.2025 16.908 24.8985 16.732C24.5945 16.556 24.2665 16.468 23.9145 16.468C23.5625 16.468 23.2345 16.556 22.9305 16.732C22.6265 16.9 22.3785 17.152 22.1865 17.488C22.0025 17.816 21.9105 18.208 21.9105 18.664C21.9105 19.12 22.0025 19.52 22.1865 19.864C22.3785 20.208 22.6265 20.472 22.9305 20.656C23.2425 20.832 23.5705 20.92 23.9145 20.92C24.2665 20.92 24.5945 20.832 24.8985 20.656C25.2025 20.48 25.4465 20.224 25.6305 19.888C25.8225 19.544 25.9185 19.144 25.9185 18.688ZM30.4633 13.12V22H29.0953V13.12H30.4633ZM33.6274 13.12V22H32.2594V13.12H33.6274ZM41.2046 15.28C41.7166 15.28 42.1686 15.384 42.5606 15.592C42.9606 15.792 43.2726 16.044 43.4966 16.348V15.388H44.8766V22.108C44.8766 22.716 44.7486 23.256 44.4926 23.728C44.2366 24.208 43.8646 24.584 43.3766 24.856C42.8966 25.128 42.3206 25.264 41.6486 25.264C40.7526 25.264 40.0086 25.052 39.4166 24.628C38.8246 24.212 38.4886 23.644 38.4086 22.924H39.7646C39.8686 23.268 40.0886 23.544 40.4246 23.752C40.7686 23.968 41.1766 24.076 41.6486 24.076C42.2006 24.076 42.6446 23.908 42.9806 23.572C43.3246 23.236 43.4966 22.748 43.4966 22.108V21.004C43.2646 21.316 42.9486 21.58 42.5486 21.796C42.1566 22.004 41.7086 22.108 41.2046 22.108C40.6286 22.108 40.1006 21.964 39.6206 21.676C39.1486 21.38 38.7726 20.972 38.4926 20.452C38.2206 19.924 38.0846 19.328 38.0846 18.664C38.0846 18 38.2206 17.412 38.4926 16.9C38.7726 16.388 39.1486 15.992 39.6206 15.712C40.1006 15.424 40.6286 15.28 41.2046 15.28ZM43.4966 18.688C43.4966 18.232 43.4006 17.836 43.2086 17.5C43.0246 17.164 42.7806 16.908 42.4766 16.732C42.1726 16.556 41.8446 16.468 41.4926 16.468C41.1406 16.468 40.8126 16.556 40.5086 16.732C40.2046 16.9 39.9566 17.152 39.7646 17.488C39.5806 17.816 39.4886 18.208 39.4886 18.664C39.4886 19.12 39.5806 19.52 39.7646 19.864C39.9566 20.208 40.2046 20.472 40.5086 20.656C40.8206 20.832 41.1486 20.92 41.4926 20.92C41.8446 20.92 42.1726 20.832 42.4766 20.656C42.7806 20.48 43.0246 20.224 43.2086 19.888C43.4006 19.544 43.4966 19.144 43.4966 18.688ZM49.5414 22.108C48.9174 22.108 48.3534 21.968 47.8494 21.688C47.3454 21.4 46.9494 21 46.6614 20.488C46.3734 19.968 46.2294 19.368 46.2294 18.688C46.2294 18.016 46.3774 17.42 46.6734 16.9C46.9694 16.38 47.3734 15.98 47.8854 15.7C48.3974 15.42 48.9694 15.28 49.6014 15.28C50.2334 15.28 50.8054 15.42 51.3174 15.7C51.8294 15.98 52.2334 16.38 52.5294 16.9C52.8254 17.42 52.9734 18.016 52.9734 18.688C52.9734 19.36 52.8214 19.956 52.5174 20.476C52.2134 20.996 51.7974 21.4 51.2694 21.688C50.7494 21.968 50.1734 22.108 49.5414 22.108ZM49.5414 20.92C49.8934 20.92 50.2214 20.836 50.5254 20.668C50.8374 20.5 51.0894 20.248 51.2814 19.912C51.4734 19.576 51.5694 19.168 51.5694 18.688C51.5694 18.208 51.4774 17.804 51.2934 17.476C51.1094 17.14 50.8654 16.888 50.5614 16.72C50.2574 16.552 49.9294 16.468 49.5774 16.468C49.2254 16.468 48.8974 16.552 48.5934 16.72C48.2974 16.888 48.0614 17.14 47.8854 17.476C47.7094 17.804 47.6214 18.208 47.6214 18.688C47.6214 19.4 47.8014 19.952 48.1614 20.344C48.5294 20.728 48.9894 20.92 49.5414 20.92ZM57.1938 22.108C56.5698 22.108 56.0058 21.968 55.5018 21.688C54.9978 21.4 54.6018 21 54.3138 20.488C54.0258 19.968 53.8818 19.368 53.8818 18.688C53.8818 18.016 54.0298 17.42 54.3258 16.9C54.6218 16.38 55.0258 15.98 55.5378 15.7C56.0498 15.42 56.6218 15.28 57.2538 15.28C57.8858 15.28 58.4578 15.42 58.9698 15.7C59.4818 15.98 59.8858 16.38 60.1818 16.9C60.4778 17.42 60.6258 18.016 60.6258 18.688C60.6258 19.36 60.4738 19.956 60.1698 20.476C59.8658 20.996 59.4498 21.4 58.9218 21.688C58.4018 21.968 57.8258 22.108 57.1938 22.108ZM57.1938 20.92C57.5458 20.92 57.8738 20.836 58.1778 20.668C58.4898 20.5 58.7418 20.248 58.9338 19.912C59.1258 19.576 59.2218 19.168 59.2218 18.688C59.2218 18.208 59.1298 17.804 58.9458 17.476C58.7618 17.14 58.5178 16.888 58.2138 16.72C57.9098 16.552 57.5818 16.468 57.2298 16.468C56.8778 16.468 56.5498 16.552 56.2458 16.72C55.9498 16.888 55.7138 17.14 55.5378 17.476C55.3618 17.804 55.2738 18.208 55.2738 18.688C55.2738 19.4 55.4538 19.952 55.8138 20.344C56.1818 20.728 56.6418 20.92 57.1938 20.92ZM61.5221 18.664C61.5221 18 61.6581 17.412 61.9301 16.9C62.2101 16.388 62.5861 15.992 63.0581 15.712C63.5381 15.424 64.0701 15.28 64.6541 15.28C65.0861 15.28 65.5101 15.376 65.9261 15.568C66.3501 15.752 66.6861 16 66.9341 16.312V13.12H68.3141V22H66.9341V21.004C66.7101 21.324 66.3981 21.588 65.9981 21.796C65.6061 22.004 65.1541 22.108 64.6421 22.108C64.0661 22.108 63.5381 21.964 63.0581 21.676C62.5861 21.38 62.2101 20.972 61.9301 20.452C61.6581 19.924 61.5221 19.328 61.5221 18.664ZM66.9341 18.688C66.9341 18.232 66.8381 17.836 66.6461 17.5C66.4621 17.164 66.2181 16.908 65.9141 16.732C65.6101 16.556 65.2821 16.468 64.9301 16.468C64.5781 16.468 64.2501 16.556 63.9461 16.732C63.6421 16.9 63.3941 17.152 63.2021 17.488C63.0181 17.816 62.9261 18.208 62.9261 18.664C62.9261 19.12 63.0181 19.52 63.2021 19.864C63.3941 20.208 63.6421 20.472 63.9461 20.656C64.2581 20.832 64.5861 20.92 64.9301 20.92C65.2821 20.92 65.6101 20.832 65.9141 20.656C66.2181 20.48 66.4621 20.224 66.6461 19.888C66.8381 19.544 66.9341 19.144 66.9341 18.688Z" fill="black"/>
<path d="M4.54 31.05V36.06C4.54 36.68 4.35 37.17 3.97 37.53C3.59667 37.89 3.10333 38.07 2.49 38.07C1.87667 38.07 1.38 37.89 1 37.53C0.626667 37.17 0.44 36.68 0.44 36.06H1.59C1.59667 36.3667 1.67333 36.61 1.82 36.79C1.97333 36.97 2.19667 37.06 2.49 37.06C2.78333 37.06 3.00667 36.97 3.16 36.79C3.31333 36.6033 3.39 36.36 3.39 36.06V31.05H4.54ZM8.78453 38.09C8.26453 38.09 7.79453 37.9733 7.37453 37.74C6.95453 37.5 6.62453 37.1667 6.38453 36.74C6.14453 36.3067 6.02453 35.8067 6.02453 35.24C6.02453 34.68 6.14786 34.1833 6.39453 33.75C6.6412 33.3167 6.97786 32.9833 7.40453 32.75C7.8312 32.5167 8.30786 32.4 8.83453 32.4C9.3612 32.4 9.83786 32.5167 10.2645 32.75C10.6912 32.9833 11.0279 33.3167 11.2745 33.75C11.5212 34.1833 11.6445 34.68 11.6445 35.24C11.6445 35.8 11.5179 36.2967 11.2645 36.73C11.0112 37.1633 10.6645 37.5 10.2245 37.74C9.7912 37.9733 9.3112 38.09 8.78453 38.09ZM8.78453 37.1C9.07786 37.1 9.3512 37.03 9.60453 36.89C9.86453 36.75 10.0745 36.54 10.2345 36.26C10.3945 35.98 10.4745 35.64 10.4745 35.24C10.4745 34.84 10.3979 34.5033 10.2445 34.23C10.0912 33.95 9.88786 33.74 9.63453 33.6C9.3812 33.46 9.10786 33.39 8.81453 33.39C8.5212 33.39 8.24786 33.46 7.99453 33.6C7.74786 33.74 7.5512 33.95 7.40453 34.23C7.25786 34.5033 7.18453 34.84 7.18453 35.24C7.18453 35.8333 7.33453 36.2933 7.63453 36.62C7.9412 36.94 8.32453 37.1 8.78453 37.1ZM13.9115 33.29C14.0782 33.01 14.2982 32.7933 14.5715 32.64C14.8515 32.48 15.1815 32.4 15.5615 32.4V33.58H15.2715C14.8248 33.58 14.4848 33.6933 14.2515 33.92C14.0248 34.1467 13.9115 34.54 13.9115 35.1V38H12.7715V32.49H13.9115V33.29ZM23.2794 32.4C23.7127 32.4 24.0994 32.49 24.4394 32.67C24.786 32.85 25.056 33.1167 25.2494 33.47C25.4494 33.8233 25.5494 34.25 25.5494 34.75V38H24.4194V34.92C24.4194 34.4267 24.296 34.05 24.0494 33.79C23.8027 33.5233 23.466 33.39 23.0394 33.39C22.6127 33.39 22.2727 33.5233 22.0194 33.79C21.7727 34.05 21.6494 34.4267 21.6494 34.92V38H20.5194V34.92C20.5194 34.4267 20.396 34.05 20.1494 33.79C19.9027 33.5233 19.566 33.39 19.1394 33.39C18.7127 33.39 18.3727 33.5233 18.1194 33.79C17.8727 34.05 17.7494 34.4267 17.7494 34.92V38H16.6094V32.49H17.7494V33.12C17.936 32.8933 18.1727 32.7167 18.4594 32.59C18.746 32.4633 19.0527 32.4 19.3794 32.4C19.8194 32.4 20.2127 32.4933 20.5594 32.68C20.906 32.8667 21.1727 33.1367 21.3594 33.49C21.526 33.1567 21.786 32.8933 22.1394 32.7C22.4927 32.5 22.8727 32.4 23.2794 32.4Z" fill="#808080"/>
</svg>
