<svg xmlns="http://www.w3.org/2000/svg" fill="none" viewBox="0 0 140 42" height="42" width="140">
<path fill="black" d="M6.288 16.66V17.776H4.068V25H2.7V17.776H0.468V16.66H6.288ZM9.04144 19.348C9.24144 19.012 9.50544 18.752 9.83344 18.568C10.1694 18.376 10.5654 18.28 11.0214 18.28V19.696H10.6734C10.1374 19.696 9.72944 19.832 9.44944 20.104C9.17744 20.376 9.04144 20.848 9.04144 21.52V25H7.67344V18.388H9.04144V19.348ZM15.1469 25.108C14.5229 25.108 13.9589 24.968 13.4549 24.688C12.9509 24.4 12.5549 24 12.2669 23.488C11.9789 22.968 11.8349 22.368 11.8349 21.688C11.8349 21.016 11.9829 20.42 12.2789 19.9C12.5749 19.38 12.9789 18.98 13.4909 18.7C14.0029 18.42 14.5749 18.28 15.2069 18.28C15.8389 18.28 16.4109 18.42 16.9229 18.7C17.4349 18.98 17.8389 19.38 18.1349 19.9C18.4309 20.42 18.5789 21.016 18.5789 21.688C18.5789 22.36 18.4269 22.956 18.1229 23.476C17.8189 23.996 17.4029 24.4 16.8749 24.688C16.3549 24.968 15.7789 25.108 15.1469 25.108ZM15.1469 23.92C15.4989 23.92 15.8269 23.836 16.1309 23.668C16.4429 23.5 16.6949 23.248 16.8869 22.912C17.0789 22.576 17.1749 22.168 17.1749 21.688C17.1749 21.208 17.0829 20.804 16.8989 20.476C16.7149 20.14 16.4709 19.888 16.1669 19.72C15.8629 19.552 15.5349 19.468 15.1829 19.468C14.8309 19.468 14.5029 19.552 14.1989 19.72C13.9029 19.888 13.6669 20.14 13.4909 20.476C13.3149 20.804 13.2269 21.208 13.2269 21.688C13.2269 22.4 13.4069 22.952 13.7669 23.344C14.1349 23.728 14.5949 23.92 15.1469 23.92ZM27.9353 18.28C28.4553 18.28 28.9193 18.388 29.3273 18.604C29.7433 18.82 30.0673 19.14 30.2993 19.564C30.5393 19.988 30.6593 20.5 30.6593 21.1V25H29.3033V21.304C29.3033 20.712 29.1553 20.26 28.8593 19.948C28.5633 19.628 28.1593 19.468 27.6473 19.468C27.1353 19.468 26.7273 19.628 26.4233 19.948C26.1273 20.26 25.9793 20.712 25.9793 21.304V25H24.6233V21.304C24.6233 20.712 24.4753 20.26 24.1793 19.948C23.8833 19.628 23.4793 19.468 22.9673 19.468C22.4553 19.468 22.0473 19.628 21.7433 19.948C21.4473 20.26 21.2993 20.712 21.2993 21.304V25H19.9313V18.388H21.2993V19.144C21.5233 18.872 21.8073 18.66 22.1513 18.508C22.4953 18.356 22.8633 18.28 23.2553 18.28C23.7833 18.28 24.2553 18.392 24.6713 18.616C25.0873 18.84 25.4073 19.164 25.6313 19.588C25.8313 19.188 26.1433 18.872 26.5673 18.64C26.9913 18.4 27.4473 18.28 27.9353 18.28ZM33.768 19.372C34 19.052 34.316 18.792 34.716 18.592C35.124 18.384 35.576 18.28 36.072 18.28C36.656 18.28 37.184 18.42 37.656 18.7C38.128 18.98 38.5 19.38 38.772 19.9C39.044 20.412 39.18 21 39.18 21.664C39.18 22.328 39.044 22.924 38.772 23.452C38.5 23.972 38.124 24.38 37.644 24.676C37.172 24.964 36.648 25.108 36.072 25.108C35.56 25.108 35.104 25.008 34.704 24.808C34.312 24.608 34 24.352 33.768 24.04V25H32.4V16.12H33.768V19.372ZM37.788 21.664C37.788 21.208 37.692 20.816 37.5 20.488C37.316 20.152 37.068 19.9 36.756 19.732C36.452 19.556 36.124 19.468 35.772 19.468C35.428 19.468 35.1 19.556 34.788 19.732C34.484 19.908 34.236 20.164 34.044 20.5C33.86 20.836 33.768 21.232 33.768 21.688C33.768 22.144 33.86 22.544 34.044 22.888C34.236 23.224 34.484 23.48 34.788 23.656C35.1 23.832 35.428 23.92 35.772 23.92C36.124 23.92 36.452 23.832 36.756 23.656C37.068 23.472 37.316 23.208 37.5 22.864C37.692 22.52 37.788 22.12 37.788 21.664ZM43.4008 25.108C42.7768 25.108 42.2128 24.968 41.7088 24.688C41.2048 24.4 40.8088 24 40.5208 23.488C40.2328 22.968 40.0888 22.368 40.0888 21.688C40.0888 21.016 40.2368 20.42 40.5328 19.9C40.8288 19.38 41.2328 18.98 41.7448 18.7C42.2568 18.42 42.8288 18.28 43.4608 18.28C44.0928 18.28 44.6648 18.42 45.1768 18.7C45.6888 18.98 46.0928 19.38 46.3888 19.9C46.6848 20.42 46.8328 21.016 46.8328 21.688C46.8328 22.36 46.6808 22.956 46.3768 23.476C46.0728 23.996 45.6568 24.4 45.1288 24.688C44.6088 24.968 44.0328 25.108 43.4008 25.108ZM43.4008 23.92C43.7528 23.92 44.0808 23.836 44.3848 23.668C44.6968 23.5 44.9488 23.248 45.1408 22.912C45.3328 22.576 45.4288 22.168 45.4288 21.688C45.4288 21.208 45.3368 20.804 45.1528 20.476C44.9688 20.14 44.7248 19.888 44.4208 19.72C44.1168 19.552 43.7888 19.468 43.4368 19.468C43.0848 19.468 42.7568 19.552 42.4528 19.72C42.1568 19.888 41.9208 20.14 41.7448 20.476C41.5688 20.804 41.4808 21.208 41.4808 21.688C41.4808 22.4 41.6608 22.952 42.0208 23.344C42.3888 23.728 42.8488 23.92 43.4008 23.92ZM51.5212 18.28C52.0412 18.28 52.5052 18.388 52.9132 18.604C53.3292 18.82 53.6532 19.14 53.8852 19.564C54.1172 19.988 54.2332 20.5 54.2332 21.1V25H52.8772V21.304C52.8772 20.712 52.7292 20.26 52.4332 19.948C52.1372 19.628 51.7332 19.468 51.2212 19.468C50.7092 19.468 50.3012 19.628 49.9972 19.948C49.7012 20.26 49.5532 20.712 49.5532 21.304V25H48.1852V18.388H49.5532V19.144C49.7772 18.872 50.0612 18.66 50.4052 18.508C50.7572 18.356 51.1292 18.28 51.5212 18.28ZM62.0381 21.532C62.0381 21.78 62.0221 22.004 61.9901 22.204H56.9381C56.9781 22.732 57.1741 23.156 57.5261 23.476C57.8781 23.796 58.3101 23.956 58.8221 23.956C59.5581 23.956 60.0781 23.648 60.3821 23.032H61.8581C61.6581 23.64 61.2941 24.14 60.7661 24.532C60.2461 24.916 59.5981 25.108 58.8221 25.108C58.1901 25.108 57.6221 24.968 57.1181 24.688C56.6221 24.4 56.2301 24 55.9421 23.488C55.6621 22.968 55.5221 22.368 55.5221 21.688C55.5221 21.008 55.6581 20.412 55.9301 19.9C56.2101 19.38 56.5981 18.98 57.0941 18.7C57.5981 18.42 58.1741 18.28 58.8221 18.28C59.4461 18.28 60.0021 18.416 60.4901 18.688C60.9781 18.96 61.3581 19.344 61.6301 19.84C61.9021 20.328 62.0381 20.892 62.0381 21.532ZM60.6101 21.1C60.6021 20.596 60.4221 20.192 60.0701 19.888C59.7181 19.584 59.2821 19.432 58.7621 19.432C58.2901 19.432 57.8861 19.584 57.5501 19.888C57.2141 20.184 57.0141 20.588 56.9501 21.1H60.6101Z"></path>
</svg>
