<svg width="96" height="50" viewBox="0 0 96 50" fill="none" xmlns="http://www.w3.org/2000/svg">
<rect width="96" height="50" rx="10" fill="#FF0000" fill-opacity="0.25"/>
<rect x="9" y="32" width="7" height="6" rx="2" fill="white"/>
<path d="M19 33V33C20.1046 33 21 33.8954 21 35V35C21 36.1046 20.1046 37 19 37V37V33Z" fill="white"/>
<path d="M13 32L15.2929 29.7071C15.9229 29.0771 17 29.5233 17 30.4142V39.5858C17 40.4767 15.9229 40.9229 15.2929 40.2929L13 38V32Z" fill="white"/>
<path d="M31.89 18.08H34.24V19H30.75V12.05H31.89V18.08ZM35.7734 12.76C35.5667 12.76 35.3934 12.69 35.2534 12.55C35.1134 12.41 35.0434 12.2367 35.0434 12.03C35.0434 11.8233 35.1134 11.65 35.2534 11.51C35.3934 11.37 35.5667 11.3 35.7734 11.3C35.9734 11.3 36.1434 11.37 36.2834 11.51C36.4234 11.65 36.4934 11.8233 36.4934 12.03C36.4934 12.2367 36.4234 12.41 36.2834 12.55C36.1434 12.69 35.9734 12.76 35.7734 12.76ZM36.3334 13.49V19H35.1934V13.49H36.3334ZM40.0501 13.4C40.4767 13.4 40.8534 13.4867 41.1801 13.66C41.5134 13.8267 41.7734 14.0367 41.9601 14.29V13.49H43.1101V19.09C43.1101 19.5967 43.0034 20.0467 42.7901 20.44C42.5767 20.84 42.2667 21.1533 41.8601 21.38C41.4601 21.6067 40.9801 21.72 40.4201 21.72C39.6734 21.72 39.0534 21.5433 38.5601 21.19C38.0667 20.8433 37.7867 20.37 37.7201 19.77H38.8501C38.9367 20.0567 39.1201 20.2867 39.4001 20.46C39.6867 20.64 40.0267 20.73 40.4201 20.73C40.8801 20.73 41.2501 20.59 41.5301 20.31C41.8167 20.03 41.9601 19.6233 41.9601 19.09V18.17C41.7667 18.43 41.5034 18.65 41.1701 18.83C40.8434 19.0033 40.4701 19.09 40.0501 19.09C39.5701 19.09 39.1301 18.97 38.7301 18.73C38.3367 18.4833 38.0234 18.1433 37.7901 17.71C37.5634 17.27 37.4501 16.7733 37.4501 16.22C37.4501 15.6667 37.5634 15.1767 37.7901 14.75C38.0234 14.3233 38.3367 13.9933 38.7301 13.76C39.1301 13.52 39.5701 13.4 40.0501 13.4ZM41.9601 16.24C41.9601 15.86 41.8801 15.53 41.7201 15.25C41.5667 14.97 41.3634 14.7567 41.1101 14.61C40.8567 14.4633 40.5834 14.39 40.2901 14.39C39.9967 14.39 39.7234 14.4633 39.4701 14.61C39.2167 14.75 39.0101 14.96 38.8501 15.24C38.6967 15.5133 38.6201 15.84 38.6201 16.22C38.6201 16.6 38.6967 16.9333 38.8501 17.22C39.0101 17.5067 39.2167 17.7267 39.4701 17.88C39.7301 18.0267 40.0034 18.1 40.2901 18.1C40.5834 18.1 40.8567 18.0267 41.1101 17.88C41.3634 17.7333 41.5667 17.52 41.7201 17.24C41.8801 16.9533 41.9601 16.62 41.9601 16.24ZM47.4574 13.4C47.8774 13.4 48.2508 13.49 48.5774 13.67C48.9108 13.85 49.1708 14.1167 49.3574 14.47C49.5508 14.8233 49.6474 15.25 49.6474 15.75V19H48.5174V15.92C48.5174 15.4267 48.3941 15.05 48.1474 14.79C47.9008 14.5233 47.5641 14.39 47.1374 14.39C46.7108 14.39 46.3708 14.5233 46.1174 14.79C45.8708 15.05 45.7474 15.4267 45.7474 15.92V19H44.6074V11.6H45.7474V14.13C45.9408 13.8967 46.1841 13.7167 46.4774 13.59C46.7774 13.4633 47.1041 13.4 47.4574 13.4ZM52.4316 14.42V17.47C52.4316 17.6767 52.4782 17.8267 52.5716 17.92C52.6716 18.0067 52.8382 18.05 53.0716 18.05H53.7716V19H52.8716C52.3582 19 51.9649 18.88 51.6916 18.64C51.4182 18.4 51.2816 18.01 51.2816 17.47V14.42H50.6316V13.49H51.2816V12.12H52.4316V13.49H53.7716V14.42H52.4316Z" fill="white"/>
<rect x="30" y="32" width="56" height="6" rx="3" fill="black"/>
<rect x="12" y="12" width="6" height="6" rx="3" fill="white"/>
<rect x="14" y="9" width="2" height="2" rx="1" fill="white"/>
<rect x="14" y="19" width="2" height="2" rx="1" fill="white"/>
<rect x="19.6962" y="11.134" width="2" height="2" rx="1" transform="rotate(60 19.6962 11.134)" fill="white"/>
<rect x="11.0359" y="16.134" width="2" height="2" rx="1" transform="rotate(60 11.0359 16.134)" fill="white"/>
<rect x="9.30383" y="12.866" width="2" height="2" rx="1" transform="rotate(-60 9.30383 12.866)" fill="white"/>
<rect x="17.9641" y="17.866" width="2" height="2" rx="1" transform="rotate(-60 17.9641 17.866)" fill="white"/>
</svg>
