<svg width="440" height="30" viewBox="0 0 440 30" fill="none" xmlns="http://www.w3.org/2000/svg">
<rect width="190" height="30" rx="15" fill="black" fill-opacity="0.25"/>
<rect x="23" y="14" width="12" height="2" rx="1" fill="white"/>
<rect x="30" y="9" width="12" height="2" rx="1" transform="rotate(90 30 9)" fill="white"/>
<path d="M48.94 17.58H46.03L45.53 19H44.34L46.83 12.04H48.15L50.64 19H49.44L48.94 17.58ZM48.62 16.65L47.49 13.42L46.35 16.65H48.62ZM51.3427 16.22C51.3427 15.6667 51.456 15.1767 51.6827 14.75C51.916 14.3233 52.2293 13.9933 52.6227 13.76C53.0227 13.52 53.466 13.4 53.9527 13.4C54.3127 13.4 54.666 13.48 55.0127 13.64C55.366 13.7933 55.646 14 55.8527 14.26V11.6H57.0027V19H55.8527V18.17C55.666 18.4367 55.406 18.6567 55.0727 18.83C54.746 19.0033 54.3693 19.09 53.9427 19.09C53.4627 19.09 53.0227 18.97 52.6227 18.73C52.2293 18.4833 51.916 18.1433 51.6827 17.71C51.456 17.27 51.3427 16.7733 51.3427 16.22ZM55.8527 16.24C55.8527 15.86 55.7727 15.53 55.6127 15.25C55.4593 14.97 55.256 14.7567 55.0027 14.61C54.7493 14.4633 54.476 14.39 54.1827 14.39C53.8893 14.39 53.616 14.4633 53.3627 14.61C53.1093 14.75 52.9027 14.96 52.7427 15.24C52.5893 15.5133 52.5127 15.84 52.5127 16.22C52.5127 16.6 52.5893 16.9333 52.7427 17.22C52.9027 17.5067 53.1093 17.7267 53.3627 17.88C53.6227 18.0267 53.896 18.1 54.1827 18.1C54.476 18.1 54.7493 18.0267 55.0027 17.88C55.256 17.7333 55.4593 17.52 55.6127 17.24C55.7727 16.9533 55.8527 16.62 55.8527 16.24ZM58.12 16.22C58.12 15.6667 58.2333 15.1767 58.46 14.75C58.6933 14.3233 59.0067 13.9933 59.4 13.76C59.8 13.52 60.2433 13.4 60.73 13.4C61.09 13.4 61.4433 13.48 61.79 13.64C62.1433 13.7933 62.4233 14 62.63 14.26V11.6H63.78V19H62.63V18.17C62.4433 18.4367 62.1833 18.6567 61.85 18.83C61.5233 19.0033 61.1467 19.09 60.72 19.09C60.24 19.09 59.8 18.97 59.4 18.73C59.0067 18.4833 58.6933 18.1433 58.46 17.71C58.2333 17.27 58.12 16.7733 58.12 16.22ZM62.63 16.24C62.63 15.86 62.55 15.53 62.39 15.25C62.2367 14.97 62.0333 14.7567 61.78 14.61C61.5267 14.4633 61.2533 14.39 60.96 14.39C60.6667 14.39 60.3933 14.4633 60.14 14.61C59.8867 14.75 59.68 14.96 59.52 15.24C59.3667 15.5133 59.29 15.84 59.29 16.22C59.29 16.6 59.3667 16.9333 59.52 17.22C59.68 17.5067 59.8867 17.7267 60.14 17.88C60.4 18.0267 60.6733 18.1 60.96 18.1C61.2533 18.1 61.5267 18.0267 61.78 17.88C62.0333 17.7333 62.2367 17.52 62.39 17.24C62.55 16.9533 62.63 16.62 62.63 16.24ZM69.205 14.42V17.47C69.205 17.6767 69.2517 17.8267 69.345 17.92C69.445 18.0067 69.6117 18.05 69.845 18.05H70.545V19H69.645C69.1317 19 68.7383 18.88 68.465 18.64C68.1917 18.4 68.055 18.01 68.055 17.47V14.42H67.405V13.49H68.055V12.12H69.205V13.49H70.545V14.42H69.205ZM73.9857 19.09C73.4657 19.09 72.9957 18.9733 72.5757 18.74C72.1557 18.5 71.8257 18.1667 71.5857 17.74C71.3457 17.3067 71.2257 16.8067 71.2257 16.24C71.2257 15.68 71.349 15.1833 71.5957 14.75C71.8424 14.3167 72.179 13.9833 72.6057 13.75C73.0324 13.5167 73.509 13.4 74.0357 13.4C74.5624 13.4 75.039 13.5167 75.4657 13.75C75.8924 13.9833 76.229 14.3167 76.4757 14.75C76.7224 15.1833 76.8457 15.68 76.8457 16.24C76.8457 16.8 76.719 17.2967 76.4657 17.73C76.2124 18.1633 75.8657 18.5 75.4257 18.74C74.9924 18.9733 74.5124 19.09 73.9857 19.09ZM73.9857 18.1C74.279 18.1 74.5524 18.03 74.8057 17.89C75.0657 17.75 75.2757 17.54 75.4357 17.26C75.5957 16.98 75.6757 16.64 75.6757 16.24C75.6757 15.84 75.599 15.5033 75.4457 15.23C75.2924 14.95 75.089 14.74 74.8357 14.6C74.5824 14.46 74.309 14.39 74.0157 14.39C73.7224 14.39 73.449 14.46 73.1957 14.6C72.949 14.74 72.7524 14.95 72.6057 15.23C72.459 15.5033 72.3857 15.84 72.3857 16.24C72.3857 16.8333 72.5357 17.2933 72.8357 17.62C73.1424 17.94 73.5257 18.1 73.9857 18.1ZM81.9003 14.42V17.47C81.9003 17.6767 81.947 17.8267 82.0403 17.92C82.1403 18.0067 82.307 18.05 82.5403 18.05H83.2403V19H82.3403C81.827 19 81.4336 18.88 81.1603 18.64C80.887 18.4 80.7503 18.01 80.7503 17.47V14.42H80.1003V13.49H80.7503V12.12H81.9003V13.49H83.2403V14.42H81.9003ZM87.141 13.4C87.561 13.4 87.9343 13.49 88.261 13.67C88.5943 13.85 88.8543 14.1167 89.041 14.47C89.2343 14.8233 89.331 15.25 89.331 15.75V19H88.201V15.92C88.201 15.4267 88.0777 15.05 87.831 14.79C87.5843 14.5233 87.2477 14.39 86.821 14.39C86.3943 14.39 86.0543 14.5233 85.801 14.79C85.5543 15.05 85.431 15.4267 85.431 15.92V19H84.291V11.6H85.431V14.13C85.6243 13.8967 85.8677 13.7167 86.161 13.59C86.461 13.4633 86.7877 13.4 87.141 13.4ZM95.8352 16.11C95.8352 16.3167 95.8218 16.5033 95.7952 16.67H91.5852C91.6185 17.11 91.7818 17.4633 92.0752 17.73C92.3685 17.9967 92.7285 18.13 93.1552 18.13C93.7685 18.13 94.2018 17.8733 94.4552 17.36H95.6852C95.5185 17.8667 95.2152 18.2833 94.7752 18.61C94.3418 18.93 93.8018 19.09 93.1552 19.09C92.6285 19.09 92.1552 18.9733 91.7352 18.74C91.3218 18.5 90.9952 18.1667 90.7552 17.74C90.5218 17.3067 90.4052 16.8067 90.4052 16.24C90.4052 15.6733 90.5185 15.1767 90.7452 14.75C90.9785 14.3167 91.3018 13.9833 91.7152 13.75C92.1352 13.5167 92.6152 13.4 93.1552 13.4C93.6752 13.4 94.1385 13.5133 94.5452 13.74C94.9518 13.9667 95.2685 14.2867 95.4952 14.7C95.7218 15.1067 95.8352 15.5767 95.8352 16.11ZM94.6452 15.75C94.6385 15.33 94.4885 14.9933 94.1952 14.74C93.9018 14.4867 93.5385 14.36 93.1052 14.36C92.7118 14.36 92.3752 14.4867 92.0952 14.74C91.8152 14.9867 91.6485 15.3233 91.5952 15.75H94.6452ZM102.405 13.4C102.825 13.4 103.198 13.49 103.525 13.67C103.858 13.85 104.118 14.1167 104.305 14.47C104.498 14.8233 104.595 15.25 104.595 15.75V19H103.465V15.92C103.465 15.4267 103.341 15.05 103.095 14.79C102.848 14.5233 102.511 14.39 102.085 14.39C101.658 14.39 101.318 14.5233 101.065 14.79C100.818 15.05 100.695 15.4267 100.695 15.92V19H99.5547V11.6H100.695V14.13C100.888 13.8967 101.131 13.7167 101.425 13.59C101.725 13.4633 102.051 13.4 102.405 13.4ZM108.439 19.09C107.919 19.09 107.449 18.9733 107.029 18.74C106.609 18.5 106.279 18.1667 106.039 17.74C105.799 17.3067 105.679 16.8067 105.679 16.24C105.679 15.68 105.802 15.1833 106.049 14.75C106.295 14.3167 106.632 13.9833 107.059 13.75C107.485 13.5167 107.962 13.4 108.489 13.4C109.015 13.4 109.492 13.5167 109.919 13.75C110.345 13.9833 110.682 14.3167 110.929 14.75C111.175 15.1833 111.299 15.68 111.299 16.24C111.299 16.8 111.172 17.2967 110.919 17.73C110.665 18.1633 110.319 18.5 109.879 18.74C109.445 18.9733 108.965 19.09 108.439 19.09ZM108.439 18.1C108.732 18.1 109.005 18.03 109.259 17.89C109.519 17.75 109.729 17.54 109.889 17.26C110.049 16.98 110.129 16.64 110.129 16.24C110.129 15.84 110.052 15.5033 109.899 15.23C109.745 14.95 109.542 14.74 109.289 14.6C109.035 14.46 108.762 14.39 108.469 14.39C108.175 14.39 107.902 14.46 107.649 14.6C107.402 14.74 107.205 14.95 107.059 15.23C106.912 15.5033 106.839 15.84 106.839 16.24C106.839 16.8333 106.989 17.2933 107.289 17.62C107.595 17.94 107.979 18.1 108.439 18.1ZM119.096 13.4C119.529 13.4 119.916 13.49 120.256 13.67C120.602 13.85 120.872 14.1167 121.066 14.47C121.266 14.8233 121.366 15.25 121.366 15.75V19H120.236V15.92C120.236 15.4267 120.112 15.05 119.866 14.79C119.619 14.5233 119.282 14.39 118.856 14.39C118.429 14.39 118.089 14.5233 117.836 14.79C117.589 15.05 117.466 15.4267 117.466 15.92V19H116.336V15.92C116.336 15.4267 116.212 15.05 115.966 14.79C115.719 14.5233 115.382 14.39 114.956 14.39C114.529 14.39 114.189 14.5233 113.936 14.79C113.689 15.05 113.566 15.4267 113.566 15.92V19H112.426V13.49H113.566V14.12C113.752 13.8933 113.989 13.7167 114.276 13.59C114.562 13.4633 114.869 13.4 115.196 13.4C115.636 13.4 116.029 13.4933 116.376 13.68C116.722 13.8667 116.989 14.1367 117.176 14.49C117.342 14.1567 117.602 13.8933 117.956 13.7C118.309 13.5 118.689 13.4 119.096 13.4ZM127.866 16.11C127.866 16.3167 127.853 16.5033 127.826 16.67H123.616C123.65 17.11 123.813 17.4633 124.106 17.73C124.4 17.9967 124.76 18.13 125.186 18.13C125.8 18.13 126.233 17.8733 126.486 17.36H127.716C127.55 17.8667 127.246 18.2833 126.806 18.61C126.373 18.93 125.833 19.09 125.186 19.09C124.66 19.09 124.186 18.9733 123.766 18.74C123.353 18.5 123.026 18.1667 122.786 17.74C122.553 17.3067 122.436 16.8067 122.436 16.24C122.436 15.6733 122.55 15.1767 122.776 14.75C123.01 14.3167 123.333 13.9833 123.746 13.75C124.166 13.5167 124.646 13.4 125.186 13.4C125.706 13.4 126.17 13.5133 126.576 13.74C126.983 13.9667 127.3 14.2867 127.526 14.7C127.753 15.1067 127.866 15.5767 127.866 16.11ZM126.676 15.75C126.67 15.33 126.52 14.9933 126.226 14.74C125.933 14.4867 125.57 14.36 125.136 14.36C124.743 14.36 124.406 14.4867 124.126 14.74C123.846 14.9867 123.68 15.3233 123.626 15.75H126.676ZM133.586 19.09C133.153 19.09 132.763 19.0133 132.416 18.86C132.076 18.7 131.806 18.4867 131.606 18.22C131.406 17.9467 131.299 17.6433 131.286 17.31H132.466C132.486 17.5433 132.596 17.74 132.796 17.9C133.003 18.0533 133.259 18.13 133.566 18.13C133.886 18.13 134.133 18.07 134.306 17.95C134.486 17.8233 134.576 17.6633 134.576 17.47C134.576 17.2633 134.476 17.11 134.276 17.01C134.083 16.91 133.773 16.8 133.346 16.68C132.933 16.5667 132.596 16.4567 132.336 16.35C132.076 16.2433 131.849 16.08 131.656 15.86C131.469 15.64 131.376 15.35 131.376 14.99C131.376 14.6967 131.463 14.43 131.636 14.19C131.809 13.9433 132.056 13.75 132.376 13.61C132.703 13.47 133.076 13.4 133.496 13.4C134.123 13.4 134.626 13.56 135.006 13.88C135.393 14.1933 135.599 14.6233 135.626 15.17H134.486C134.466 14.9233 134.366 14.7267 134.186 14.58C134.006 14.4333 133.763 14.36 133.456 14.36C133.156 14.36 132.926 14.4167 132.766 14.53C132.606 14.6433 132.526 14.7933 132.526 14.98C132.526 15.1267 132.579 15.25 132.686 15.35C132.793 15.45 132.923 15.53 133.076 15.59C133.229 15.6433 133.456 15.7133 133.756 15.8C134.156 15.9067 134.483 16.0167 134.736 16.13C134.996 16.2367 135.219 16.3967 135.406 16.61C135.593 16.8233 135.689 17.1067 135.696 17.46C135.696 17.7733 135.609 18.0533 135.436 18.3C135.263 18.5467 135.016 18.74 134.696 18.88C134.383 19.02 134.013 19.09 133.586 19.09ZM136.548 16.24C136.548 15.6733 136.661 15.1767 136.888 14.75C137.121 14.3167 137.441 13.9833 137.848 13.75C138.254 13.5167 138.721 13.4 139.248 13.4C139.914 13.4 140.464 13.56 140.898 13.88C141.338 14.1933 141.634 14.6433 141.788 15.23H140.558C140.458 14.9567 140.298 14.7433 140.078 14.59C139.858 14.4367 139.581 14.36 139.248 14.36C138.781 14.36 138.408 14.5267 138.128 14.86C137.854 15.1867 137.718 15.6467 137.718 16.24C137.718 16.8333 137.854 17.2967 138.128 17.63C138.408 17.9633 138.781 18.13 139.248 18.13C139.908 18.13 140.344 17.84 140.558 17.26H141.788C141.628 17.82 141.328 18.2667 140.888 18.6C140.448 18.9267 139.901 19.09 139.248 19.09C138.721 19.09 138.254 18.9733 137.848 18.74C137.441 18.5 137.121 18.1667 136.888 17.74C136.661 17.3067 136.548 16.8067 136.548 16.24ZM144.064 14.29C144.23 14.01 144.45 13.7933 144.724 13.64C145.004 13.48 145.334 13.4 145.714 13.4V14.58H145.424C144.977 14.58 144.637 14.6933 144.404 14.92C144.177 15.1467 144.064 15.54 144.064 16.1V19H142.924V13.49H144.064V14.29ZM151.812 16.11C151.812 16.3167 151.798 16.5033 151.772 16.67H147.562C147.595 17.11 147.758 17.4633 148.052 17.73C148.345 17.9967 148.705 18.13 149.132 18.13C149.745 18.13 150.178 17.8733 150.432 17.36H151.662C151.495 17.8667 151.192 18.2833 150.752 18.61C150.318 18.93 149.778 19.09 149.132 19.09C148.605 19.09 148.132 18.9733 147.712 18.74C147.298 18.5 146.972 18.1667 146.732 17.74C146.498 17.3067 146.382 16.8067 146.382 16.24C146.382 15.6733 146.495 15.1767 146.722 14.75C146.955 14.3167 147.278 13.9833 147.692 13.75C148.112 13.5167 148.592 13.4 149.132 13.4C149.652 13.4 150.115 13.5133 150.522 13.74C150.928 13.9667 151.245 14.2867 151.472 14.7C151.698 15.1067 151.812 15.5767 151.812 16.11ZM150.622 15.75C150.615 15.33 150.465 14.9933 150.172 14.74C149.878 14.4867 149.515 14.36 149.082 14.36C148.688 14.36 148.352 14.4867 148.072 14.74C147.792 14.9867 147.625 15.3233 147.572 15.75H150.622ZM157.984 16.11C157.984 16.3167 157.97 16.5033 157.944 16.67H153.734C153.767 17.11 153.93 17.4633 154.224 17.73C154.517 17.9967 154.877 18.13 155.304 18.13C155.917 18.13 156.35 17.8733 156.604 17.36H157.834C157.667 17.8667 157.364 18.2833 156.924 18.61C156.49 18.93 155.95 19.09 155.304 19.09C154.777 19.09 154.304 18.9733 153.884 18.74C153.47 18.5 153.144 18.1667 152.904 17.74C152.67 17.3067 152.554 16.8067 152.554 16.24C152.554 15.6733 152.667 15.1767 152.894 14.75C153.127 14.3167 153.45 13.9833 153.864 13.75C154.284 13.5167 154.764 13.4 155.304 13.4C155.824 13.4 156.287 13.5133 156.694 13.74C157.1 13.9667 157.417 14.2867 157.644 14.7C157.87 15.1067 157.984 15.5767 157.984 16.11ZM156.794 15.75C156.787 15.33 156.637 14.9933 156.344 14.74C156.05 14.4867 155.687 14.36 155.254 14.36C154.86 14.36 154.524 14.4867 154.244 14.74C153.964 14.9867 153.797 15.3233 153.744 15.75H156.794ZM161.885 13.4C162.319 13.4 162.705 13.49 163.045 13.67C163.392 13.85 163.662 14.1167 163.855 14.47C164.049 14.8233 164.145 15.25 164.145 15.75V19H163.015V15.92C163.015 15.4267 162.892 15.05 162.645 14.79C162.399 14.5233 162.062 14.39 161.635 14.39C161.209 14.39 160.869 14.5233 160.615 14.79C160.369 15.05 160.245 15.4267 160.245 15.92V19H159.105V13.49H160.245V14.12C160.432 13.8933 160.669 13.7167 160.955 13.59C161.249 13.4633 161.559 13.4 161.885 13.4Z" fill="white"/>
<rect x="250" width="190" height="30" rx="15" fill="black" fill-opacity="0.25"/>
<rect x="291.464" y="10.0503" width="12" height="2" rx="1" transform="rotate(45 291.464 10.0503)" fill="white"/>
<rect x="299.95" y="11.4645" width="12" height="2" rx="1" transform="rotate(135 299.95 11.4645)" fill="white"/>
<path d="M311.88 12.05V16.48C311.88 17.0067 312.017 17.4033 312.29 17.67C312.57 17.9367 312.957 18.07 313.45 18.07C313.95 18.07 314.337 17.9367 314.61 17.67C314.89 17.4033 315.03 17.0067 315.03 16.48V12.05H316.17V16.46C316.17 17.0267 316.047 17.5067 315.8 17.9C315.553 18.2933 315.223 18.5867 314.81 18.78C314.397 18.9733 313.94 19.07 313.44 19.07C312.94 19.07 312.483 18.9733 312.07 18.78C311.663 18.5867 311.34 18.2933 311.1 17.9C310.86 17.5067 310.74 17.0267 310.74 16.46V12.05H311.88ZM320.434 13.4C320.868 13.4 321.254 13.49 321.594 13.67C321.941 13.85 322.211 14.1167 322.404 14.47C322.598 14.8233 322.694 15.25 322.694 15.75V19H321.564V15.92C321.564 15.4267 321.441 15.05 321.194 14.79C320.948 14.5233 320.611 14.39 320.184 14.39C319.758 14.39 319.418 14.5233 319.164 14.79C318.918 15.05 318.794 15.4267 318.794 15.92V19H317.654V13.49H318.794V14.12C318.981 13.8933 319.218 13.7167 319.504 13.59C319.798 13.4633 320.108 13.4 320.434 13.4ZM324.728 12.76C324.522 12.76 324.348 12.69 324.208 12.55C324.068 12.41 323.998 12.2367 323.998 12.03C323.998 11.8233 324.068 11.65 324.208 11.51C324.348 11.37 324.522 11.3 324.728 11.3C324.928 11.3 325.098 11.37 325.238 11.51C325.378 11.65 325.448 11.8233 325.448 12.03C325.448 12.2367 325.378 12.41 325.238 12.55C325.098 12.69 324.928 12.76 324.728 12.76ZM325.288 13.49V19H324.148V13.49H325.288ZM329.565 13.4C329.998 13.4 330.385 13.49 330.725 13.67C331.072 13.85 331.342 14.1167 331.535 14.47C331.728 14.8233 331.825 15.25 331.825 15.75V19H330.695V15.92C330.695 15.4267 330.572 15.05 330.325 14.79C330.078 14.5233 329.742 14.39 329.315 14.39C328.888 14.39 328.548 14.5233 328.295 14.79C328.048 15.05 327.925 15.4267 327.925 15.92V19H326.785V13.49H327.925V14.12C328.112 13.8933 328.348 13.7167 328.635 13.59C328.928 13.4633 329.238 13.4 329.565 13.4ZM335.279 19.09C334.846 19.09 334.456 19.0133 334.109 18.86C333.769 18.7 333.499 18.4867 333.299 18.22C333.099 17.9467 332.993 17.6433 332.979 17.31H334.159C334.179 17.5433 334.289 17.74 334.489 17.9C334.696 18.0533 334.953 18.13 335.259 18.13C335.579 18.13 335.826 18.07 335.999 17.95C336.179 17.8233 336.269 17.6633 336.269 17.47C336.269 17.2633 336.169 17.11 335.969 17.01C335.776 16.91 335.466 16.8 335.039 16.68C334.626 16.5667 334.289 16.4567 334.029 16.35C333.769 16.2433 333.543 16.08 333.349 15.86C333.163 15.64 333.069 15.35 333.069 14.99C333.069 14.6967 333.156 14.43 333.329 14.19C333.503 13.9433 333.749 13.75 334.069 13.61C334.396 13.47 334.769 13.4 335.189 13.4C335.816 13.4 336.319 13.56 336.699 13.88C337.086 14.1933 337.293 14.6233 337.319 15.17H336.179C336.159 14.9233 336.059 14.7267 335.879 14.58C335.699 14.4333 335.456 14.36 335.149 14.36C334.849 14.36 334.619 14.4167 334.459 14.53C334.299 14.6433 334.219 14.7933 334.219 14.98C334.219 15.1267 334.273 15.25 334.379 15.35C334.486 15.45 334.616 15.53 334.769 15.59C334.923 15.6433 335.149 15.7133 335.449 15.8C335.849 15.9067 336.176 16.0167 336.429 16.13C336.689 16.2367 336.913 16.3967 337.099 16.61C337.286 16.8233 337.383 17.1067 337.389 17.46C337.389 17.7733 337.303 18.0533 337.129 18.3C336.956 18.5467 336.709 18.74 336.389 18.88C336.076 19.02 335.706 19.09 335.279 19.09ZM339.951 14.42V17.47C339.951 17.6767 339.998 17.8267 340.091 17.92C340.191 18.0067 340.358 18.05 340.591 18.05H341.291V19H340.391C339.878 19 339.484 18.88 339.211 18.64C338.938 18.4 338.801 18.01 338.801 17.47V14.42H338.151V13.49H338.801V12.12H339.951V13.49H341.291V14.42H339.951ZM341.962 16.22C341.962 15.6667 342.075 15.1767 342.302 14.75C342.535 14.3233 342.848 13.9933 343.242 13.76C343.642 13.52 344.082 13.4 344.562 13.4C344.995 13.4 345.372 13.4867 345.692 13.66C346.018 13.8267 346.278 14.0367 346.472 14.29V13.49H347.622V19H346.472V18.18C346.278 18.44 346.015 18.6567 345.682 18.83C345.348 19.0033 344.968 19.09 344.542 19.09C344.068 19.09 343.635 18.97 343.242 18.73C342.848 18.4833 342.535 18.1433 342.302 17.71C342.075 17.27 341.962 16.7733 341.962 16.22ZM346.472 16.24C346.472 15.86 346.392 15.53 346.232 15.25C346.078 14.97 345.875 14.7567 345.622 14.61C345.368 14.4633 345.095 14.39 344.802 14.39C344.508 14.39 344.235 14.4633 343.982 14.61C343.728 14.75 343.522 14.96 343.362 15.24C343.208 15.5133 343.132 15.84 343.132 16.22C343.132 16.6 343.208 16.9333 343.362 17.22C343.522 17.5067 343.728 17.7267 343.982 17.88C344.242 18.0267 344.515 18.1 344.802 18.1C345.095 18.1 345.368 18.0267 345.622 17.88C345.875 17.7333 346.078 17.52 346.232 17.24C346.392 16.9533 346.472 16.62 346.472 16.24ZM350.259 11.6V19H349.119V11.6H350.259ZM352.896 11.6V19H351.756V11.6H352.896ZM358.32 14.42V17.47C358.32 17.6767 358.367 17.8267 358.46 17.92C358.56 18.0067 358.727 18.05 358.96 18.05H359.66V19H358.76C358.247 19 357.854 18.88 357.58 18.64C357.307 18.4 357.17 18.01 357.17 17.47V14.42H356.52V13.49H357.17V12.12H358.32V13.49H359.66V14.42H358.32ZM363.561 13.4C363.981 13.4 364.354 13.49 364.681 13.67C365.014 13.85 365.274 14.1167 365.461 14.47C365.654 14.8233 365.751 15.25 365.751 15.75V19H364.621V15.92C364.621 15.4267 364.498 15.05 364.251 14.79C364.004 14.5233 363.668 14.39 363.241 14.39C362.814 14.39 362.474 14.5233 362.221 14.79C361.974 15.05 361.851 15.4267 361.851 15.92V19H360.711V11.6H361.851V14.13C362.044 13.8967 362.288 13.7167 362.581 13.59C362.881 13.4633 363.208 13.4 363.561 13.4ZM372.255 16.11C372.255 16.3167 372.242 16.5033 372.215 16.67H368.005C368.038 17.11 368.202 17.4633 368.495 17.73C368.788 17.9967 369.148 18.13 369.575 18.13C370.188 18.13 370.622 17.8733 370.875 17.36H372.105C371.938 17.8667 371.635 18.2833 371.195 18.61C370.762 18.93 370.222 19.09 369.575 19.09C369.048 19.09 368.575 18.9733 368.155 18.74C367.742 18.5 367.415 18.1667 367.175 17.74C366.942 17.3067 366.825 16.8067 366.825 16.24C366.825 15.6733 366.938 15.1767 367.165 14.75C367.398 14.3167 367.722 13.9833 368.135 13.75C368.555 13.5167 369.035 13.4 369.575 13.4C370.095 13.4 370.558 13.5133 370.965 13.74C371.372 13.9667 371.688 14.2867 371.915 14.7C372.142 15.1067 372.255 15.5767 372.255 16.11ZM371.065 15.75C371.058 15.33 370.908 14.9933 370.615 14.74C370.322 14.4867 369.958 14.36 369.525 14.36C369.132 14.36 368.795 14.4867 368.515 14.74C368.235 14.9867 368.068 15.3233 368.015 15.75H371.065ZM375.595 16.22C375.595 15.6667 375.708 15.1767 375.935 14.75C376.168 14.3233 376.481 13.9933 376.875 13.76C377.275 13.52 377.715 13.4 378.195 13.4C378.628 13.4 379.005 13.4867 379.325 13.66C379.651 13.8267 379.911 14.0367 380.105 14.29V13.49H381.255V19H380.105V18.18C379.911 18.44 379.648 18.6567 379.315 18.83C378.981 19.0033 378.601 19.09 378.175 19.09C377.701 19.09 377.268 18.97 376.875 18.73C376.481 18.4833 376.168 18.1433 375.935 17.71C375.708 17.27 375.595 16.7733 375.595 16.22ZM380.105 16.24C380.105 15.86 380.025 15.53 379.865 15.25C379.711 14.97 379.508 14.7567 379.255 14.61C379.001 14.4633 378.728 14.39 378.435 14.39C378.141 14.39 377.868 14.4633 377.615 14.61C377.361 14.75 377.155 14.96 376.995 15.24C376.841 15.5133 376.765 15.84 376.765 16.22C376.765 16.6 376.841 16.9333 376.995 17.22C377.155 17.5067 377.361 17.7267 377.615 17.88C377.875 18.0267 378.148 18.1 378.435 18.1C378.728 18.1 379.001 18.0267 379.255 17.88C379.508 17.7333 379.711 17.52 379.865 17.24C380.025 16.9533 380.105 16.62 380.105 16.24ZM383.892 14.3C384.085 14.0467 384.349 13.8333 384.682 13.66C385.015 13.4867 385.392 13.4 385.812 13.4C386.292 13.4 386.729 13.52 387.122 13.76C387.522 13.9933 387.835 14.3233 388.062 14.75C388.289 15.1767 388.402 15.6667 388.402 16.22C388.402 16.7733 388.289 17.27 388.062 17.71C387.835 18.1433 387.522 18.4833 387.122 18.73C386.729 18.97 386.292 19.09 385.812 19.09C385.392 19.09 385.019 19.0067 384.692 18.84C384.365 18.6667 384.099 18.4533 383.892 18.2V21.62H382.752V13.49H383.892V14.3ZM387.242 16.22C387.242 15.84 387.162 15.5133 387.002 15.24C386.849 14.96 386.642 14.75 386.382 14.61C386.129 14.4633 385.855 14.39 385.562 14.39C385.275 14.39 385.002 14.4633 384.742 14.61C384.489 14.7567 384.282 14.97 384.122 15.25C383.969 15.53 383.892 15.86 383.892 16.24C383.892 16.62 383.969 16.9533 384.122 17.24C384.282 17.52 384.489 17.7333 384.742 17.88C385.002 18.0267 385.275 18.1 385.562 18.1C385.855 18.1 386.129 18.0267 386.382 17.88C386.642 17.7267 386.849 17.5067 387.002 17.22C387.162 16.9333 387.242 16.6 387.242 16.22ZM390.669 14.3C390.863 14.0467 391.126 13.8333 391.459 13.66C391.793 13.4867 392.169 13.4 392.589 13.4C393.069 13.4 393.506 13.52 393.899 13.76C394.299 13.9933 394.613 14.3233 394.839 14.75C395.066 15.1767 395.179 15.6667 395.179 16.22C395.179 16.7733 395.066 17.27 394.839 17.71C394.613 18.1433 394.299 18.4833 393.899 18.73C393.506 18.97 393.069 19.09 392.589 19.09C392.169 19.09 391.796 19.0067 391.469 18.84C391.143 18.6667 390.876 18.4533 390.669 18.2V21.62H389.529V13.49H390.669V14.3ZM394.019 16.22C394.019 15.84 393.939 15.5133 393.779 15.24C393.626 14.96 393.419 14.75 393.159 14.61C392.906 14.4633 392.633 14.39 392.339 14.39C392.053 14.39 391.779 14.4633 391.519 14.61C391.266 14.7567 391.059 14.97 390.899 15.25C390.746 15.53 390.669 15.86 390.669 16.24C390.669 16.62 390.746 16.9533 390.899 17.24C391.059 17.52 391.266 17.7333 391.519 17.88C391.779 18.0267 392.053 18.1 392.339 18.1C392.633 18.1 392.906 18.0267 393.159 17.88C393.419 17.7267 393.626 17.5067 393.779 17.22C393.939 16.9333 394.019 16.6 394.019 16.22Z" fill="white"/>
</svg>
