<svg width="480" height="360" viewBox="0 0 480 360" fill="none" xmlns="http://www.w3.org/2000/svg">
<rect x="250" y="320" width="130" height="30" rx="15" fill="white" fill-opacity="0.1"/>
<rect x="390" y="320" width="80" height="30" rx="15" fill="white" fill-opacity="0.1"/>
<path d="M418.8 339.084C418.24 339.084 417.736 338.988 417.288 338.796C416.84 338.596 416.488 338.316 416.232 337.956C415.976 337.596 415.848 337.176 415.848 336.696H417.312C417.344 337.056 417.484 337.352 417.732 337.584C417.988 337.816 418.344 337.932 418.8 337.932C419.272 337.932 419.64 337.82 419.904 337.596C420.168 337.364 420.3 337.068 420.3 336.708C420.3 336.428 420.216 336.2 420.048 336.024C419.888 335.848 419.684 335.712 419.436 335.616C419.196 335.52 418.86 335.416 418.428 335.304C417.884 335.16 417.44 335.016 417.096 334.872C416.76 334.72 416.472 334.488 416.232 334.176C415.992 333.864 415.872 333.448 415.872 332.928C415.872 332.448 415.992 332.028 416.232 331.668C416.472 331.308 416.808 331.032 417.24 330.84C417.672 330.648 418.172 330.552 418.74 330.552C419.548 330.552 420.208 330.756 420.72 331.164C421.24 331.564 421.528 332.116 421.584 332.82H420.072C420.048 332.516 419.904 332.256 419.64 332.04C419.376 331.824 419.028 331.716 418.596 331.716C418.204 331.716 417.884 331.816 417.636 332.016C417.388 332.216 417.264 332.504 417.264 332.88C417.264 333.136 417.34 333.348 417.492 333.516C417.652 333.676 417.852 333.804 418.092 333.9C418.332 333.996 418.66 334.1 419.076 334.212C419.628 334.364 420.076 334.516 420.42 334.668C420.772 334.82 421.068 335.056 421.308 335.376C421.556 335.688 421.68 336.108 421.68 336.636C421.68 337.06 421.564 337.46 421.332 337.836C421.108 338.212 420.776 338.516 420.336 338.748C419.904 338.972 419.392 339.084 418.8 339.084ZM422.839 335.664C422.839 335 422.975 334.412 423.247 333.9C423.527 333.388 423.903 332.992 424.375 332.712C424.855 332.424 425.383 332.28 425.959 332.28C426.479 332.28 426.931 332.384 427.315 332.592C427.707 332.792 428.019 333.044 428.251 333.348V332.388H429.631V339H428.251V338.016C428.019 338.328 427.703 338.588 427.303 338.796C426.903 339.004 426.447 339.108 425.935 339.108C425.367 339.108 424.847 338.964 424.375 338.676C423.903 338.38 423.527 337.972 423.247 337.452C422.975 336.924 422.839 336.328 422.839 335.664ZM428.251 335.688C428.251 335.232 428.155 334.836 427.963 334.5C427.779 334.164 427.535 333.908 427.231 333.732C426.927 333.556 426.599 333.468 426.247 333.468C425.895 333.468 425.567 333.556 425.263 333.732C424.959 333.9 424.711 334.152 424.519 334.488C424.335 334.816 424.243 335.208 424.243 335.664C424.243 336.12 424.335 336.52 424.519 336.864C424.711 337.208 424.959 337.472 425.263 337.656C425.575 337.832 425.903 337.92 426.247 337.92C426.599 337.92 426.927 337.832 427.231 337.656C427.535 337.48 427.779 337.224 427.963 336.888C428.155 336.544 428.251 336.144 428.251 335.688ZM433.983 337.776L435.855 332.388H437.307L434.787 339H433.155L430.647 332.388H432.111L433.983 337.776ZM444.401 335.532C444.401 335.78 444.385 336.004 444.353 336.204H439.301C439.341 336.732 439.537 337.156 439.889 337.476C440.241 337.796 440.673 337.956 441.185 337.956C441.921 337.956 442.441 337.648 442.745 337.032H444.221C444.021 337.64 443.657 338.14 443.129 338.532C442.609 338.916 441.961 339.108 441.185 339.108C440.553 339.108 439.985 338.968 439.481 338.688C438.985 338.4 438.593 338 438.305 337.488C438.025 336.968 437.885 336.368 437.885 335.688C437.885 335.008 438.021 334.412 438.293 333.9C438.573 333.38 438.961 332.98 439.457 332.7C439.961 332.42 440.537 332.28 441.185 332.28C441.809 332.28 442.365 332.416 442.853 332.688C443.341 332.96 443.721 333.344 443.993 333.84C444.265 334.328 444.401 334.892 444.401 335.532ZM442.973 335.1C442.965 334.596 442.785 334.192 442.433 333.888C442.081 333.584 441.645 333.432 441.125 333.432C440.653 333.432 440.249 333.584 439.913 333.888C439.577 334.184 439.377 334.588 439.313 335.1H442.973Z" fill="white"/>
<rect x="160" y="320" width="80" height="30" rx="15" fill="white" fill-opacity="0.1"/>
<path d="M178.958 334.812C178.958 333.996 179.146 333.264 179.522 332.616C179.906 331.968 180.422 331.464 181.07 331.104C181.726 330.736 182.442 330.552 183.218 330.552C184.106 330.552 184.894 330.772 185.582 331.212C186.278 331.644 186.782 332.26 187.094 333.06H185.45C185.234 332.62 184.934 332.292 184.55 332.076C184.166 331.86 183.722 331.752 183.218 331.752C182.666 331.752 182.174 331.876 181.742 332.124C181.31 332.372 180.97 332.728 180.722 333.192C180.482 333.656 180.362 334.196 180.362 334.812C180.362 335.428 180.482 335.968 180.722 336.432C180.97 336.896 181.31 337.256 181.742 337.512C182.174 337.76 182.666 337.884 183.218 337.884C183.722 337.884 184.166 337.776 184.55 337.56C184.934 337.344 185.234 337.016 185.45 336.576H187.094C186.782 337.376 186.278 337.992 185.582 338.424C184.894 338.856 184.106 339.072 183.218 339.072C182.434 339.072 181.718 338.892 181.07 338.532C180.422 338.164 179.906 337.656 179.522 337.008C179.146 336.36 178.958 335.628 178.958 334.812ZM188.239 335.664C188.239 335 188.375 334.412 188.647 333.9C188.927 333.388 189.303 332.992 189.775 332.712C190.255 332.424 190.783 332.28 191.359 332.28C191.879 332.28 192.331 332.384 192.715 332.592C193.107 332.792 193.419 333.044 193.651 333.348V332.388H195.031V339H193.651V338.016C193.419 338.328 193.103 338.588 192.703 338.796C192.303 339.004 191.847 339.108 191.335 339.108C190.767 339.108 190.247 338.964 189.775 338.676C189.303 338.38 188.927 337.972 188.647 337.452C188.375 336.924 188.239 336.328 188.239 335.664ZM193.651 335.688C193.651 335.232 193.555 334.836 193.363 334.5C193.179 334.164 192.935 333.908 192.631 333.732C192.327 333.556 191.999 333.468 191.647 333.468C191.295 333.468 190.967 333.556 190.663 333.732C190.359 333.9 190.111 334.152 189.919 334.488C189.735 334.816 189.643 335.208 189.643 335.664C189.643 336.12 189.735 336.52 189.919 336.864C190.111 337.208 190.359 337.472 190.663 337.656C190.975 337.832 191.303 337.92 191.647 337.92C191.999 337.92 192.327 337.832 192.631 337.656C192.935 337.48 193.179 337.224 193.363 336.888C193.555 336.544 193.651 336.144 193.651 335.688ZM200.164 332.28C200.684 332.28 201.148 332.388 201.556 332.604C201.972 332.82 202.296 333.14 202.528 333.564C202.76 333.988 202.876 334.5 202.876 335.1V339H201.52V335.304C201.52 334.712 201.372 334.26 201.076 333.948C200.78 333.628 200.376 333.468 199.864 333.468C199.352 333.468 198.944 333.628 198.64 333.948C198.344 334.26 198.196 334.712 198.196 335.304V339H196.828V332.388H198.196V333.144C198.42 332.872 198.704 332.66 199.048 332.508C199.4 332.356 199.772 332.28 200.164 332.28ZM204.165 335.688C204.165 335.008 204.301 334.412 204.573 333.9C204.853 333.38 205.237 332.98 205.725 332.7C206.213 332.42 206.773 332.28 207.405 332.28C208.205 332.28 208.865 332.472 209.385 332.856C209.913 333.232 210.269 333.772 210.453 334.476H208.977C208.857 334.148 208.665 333.892 208.401 333.708C208.137 333.524 207.805 333.432 207.405 333.432C206.845 333.432 206.397 333.632 206.061 334.032C205.733 334.424 205.569 334.976 205.569 335.688C205.569 336.4 205.733 336.956 206.061 337.356C206.397 337.756 206.845 337.956 207.405 337.956C208.197 337.956 208.721 337.608 208.977 336.912H210.453C210.261 337.584 209.901 338.12 209.373 338.52C208.845 338.912 208.189 339.108 207.405 339.108C206.773 339.108 206.213 338.968 205.725 338.688C205.237 338.4 204.853 338 204.573 337.488C204.301 336.968 204.165 336.368 204.165 335.688ZM217.876 335.532C217.876 335.78 217.86 336.004 217.828 336.204H212.776C212.816 336.732 213.012 337.156 213.364 337.476C213.716 337.796 214.148 337.956 214.66 337.956C215.396 337.956 215.916 337.648 216.22 337.032H217.696C217.496 337.64 217.132 338.14 216.604 338.532C216.084 338.916 215.436 339.108 214.66 339.108C214.028 339.108 213.46 338.968 212.956 338.688C212.46 338.4 212.068 338 211.78 337.488C211.5 336.968 211.36 336.368 211.36 335.688C211.36 335.008 211.496 334.412 211.768 333.9C212.048 333.38 212.436 332.98 212.932 332.7C213.436 332.42 214.012 332.28 214.66 332.28C215.284 332.28 215.84 332.416 216.328 332.688C216.816 332.96 217.196 333.344 217.468 333.84C217.74 334.328 217.876 334.892 217.876 335.532ZM216.448 335.1C216.44 334.596 216.26 334.192 215.908 333.888C215.556 333.584 215.12 333.432 214.6 333.432C214.128 333.432 213.724 333.584 213.388 333.888C213.052 334.184 212.852 334.588 212.788 335.1H216.448ZM220.59 330.12V339H219.222V330.12H220.59Z" fill="white"/>
</svg>
