<svg width="250" height="28" viewBox="0 0 250 28" fill="none" xmlns="http://www.w3.org/2000/svg">
<rect width="250" height="28" rx="5" fill="#E6E6E6"/>
<path d="M13.59 12.4C14.2767 12.4 14.8233 12.5933 15.23 12.98C15.6433 13.3667 15.85 13.8867 15.85 14.54C15.85 14.6933 15.8333 14.8767 15.8 15.09C15.7733 15.2367 15.7267 15.4167 15.66 15.63H11.45C11.4433 15.6767 11.44 15.7467 11.44 15.84C11.44 16.2333 11.56 16.5467 11.8 16.78C12.0467 17.0133 12.3667 17.13 12.76 17.13C13.38 17.13 13.8567 16.8733 14.19 16.36H15.42C15.1667 16.8667 14.7933 17.2833 14.3 17.61C13.8067 17.93 13.2367 18.09 12.59 18.09C12.13 18.09 11.7267 18 11.38 17.82C11.0333 17.64 10.7633 17.3833 10.57 17.05C10.3767 16.71 10.28 16.3133 10.28 15.86C10.28 15.6667 10.3 15.46 10.34 15.24C10.44 14.6733 10.6433 14.1767 10.95 13.75C11.2567 13.3167 11.6367 12.9833 12.09 12.75C12.55 12.5167 13.05 12.4 13.59 12.4ZM14.66 14.81C14.6733 14.69 14.68 14.6033 14.68 14.55C14.68 14.1833 14.5567 13.8933 14.31 13.68C14.07 13.4667 13.7567 13.36 13.37 13.36C12.9633 13.36 12.5967 13.49 12.27 13.75C11.9433 14.01 11.72 14.3633 11.6 14.81H14.66ZM19.2619 15.2L20.5419 18H19.2519L18.3919 16.13L16.9419 18H15.7519L18.0119 15.29L16.7219 12.49H18.0119L18.8719 14.36L20.3219 12.49H21.5119L19.2619 15.2ZM21.5021 15.22C21.6021 14.6667 21.8021 14.1767 22.1021 13.75C22.4088 13.3233 22.7821 12.9933 23.2221 12.76C23.6621 12.52 24.1221 12.4 24.6021 12.4C25.0354 12.4 25.3988 12.4867 25.6921 12.66C25.9854 12.8267 26.2054 13.0367 26.3521 13.29L26.4921 12.49H27.6421L26.6721 18H25.5221L25.6721 17.18C25.4321 17.44 25.1288 17.6567 24.7621 17.83C24.4021 18.0033 24.0088 18.09 23.5821 18.09C23.1688 18.09 22.7988 17.9967 22.4721 17.81C22.1521 17.6233 21.8988 17.36 21.7121 17.02C21.5321 16.6733 21.4421 16.2767 21.4421 15.83C21.4421 15.63 21.4621 15.4267 21.5021 15.22ZM26.0121 15.24C26.0388 15.1133 26.0521 14.9767 26.0521 14.83C26.0521 14.3833 25.9188 14.0333 25.6521 13.78C25.3921 13.52 25.0654 13.39 24.6721 13.39C24.3788 13.39 24.0921 13.4633 23.8121 13.61C23.5321 13.75 23.2888 13.96 23.0821 14.24C22.8754 14.5133 22.7388 14.84 22.6721 15.22C22.6454 15.3467 22.6321 15.4833 22.6321 15.63C22.6321 16.0833 22.7621 16.4433 23.0221 16.71C23.2888 16.97 23.6188 17.1 24.0121 17.1C24.3054 17.1 24.5921 17.0267 24.8721 16.88C25.1521 16.7333 25.3954 16.52 25.6021 16.24C25.8088 15.9533 25.9454 15.62 26.0121 15.24ZM35.8295 12.4C36.4095 12.4 36.8728 12.5567 37.2195 12.87C37.5661 13.1833 37.7395 13.6267 37.7395 14.2C37.7395 14.3533 37.7228 14.5367 37.6895 14.75L37.1095 18H35.9795L36.5295 14.92C36.5561 14.7333 36.5695 14.6 36.5695 14.52C36.5695 14.1533 36.4661 13.8733 36.2595 13.68C36.0595 13.4867 35.7795 13.39 35.4195 13.39C34.9861 13.39 34.6195 13.5233 34.3195 13.79C34.0261 14.05 33.8395 14.4267 33.7595 14.92L33.2095 18H32.0795L32.6295 14.92C32.6561 14.7333 32.6695 14.6 32.6695 14.52C32.6695 14.1533 32.5661 13.8733 32.3595 13.68C32.1595 13.4867 31.8795 13.39 31.5195 13.39C31.0861 13.39 30.7195 13.5233 30.4195 13.79C30.1261 14.05 29.9395 14.4267 29.8595 14.92V14.89L29.3095 18H28.1695L29.1395 12.49H30.2795L30.1695 13.13C30.3895 12.9033 30.6528 12.7267 30.9595 12.6C31.2728 12.4667 31.5961 12.4 31.9295 12.4C32.3695 12.4 32.7461 12.4933 33.0595 12.68C33.3795 12.8667 33.6028 13.1367 33.7295 13.49C33.9495 13.1567 34.2528 12.8933 34.6395 12.7C35.0261 12.5 35.4228 12.4 35.8295 12.4ZM40.5301 13.3C40.7701 13.0467 41.0701 12.8333 41.4301 12.66C41.7967 12.4867 42.1901 12.4 42.6101 12.4C43.0301 12.4 43.4034 12.49 43.7301 12.67C44.0567 12.85 44.3101 13.1067 44.4901 13.44C44.6701 13.7733 44.7601 14.1633 44.7601 14.61C44.7601 14.8033 44.7401 15.0067 44.7001 15.22C44.6001 15.7733 44.3967 16.27 44.0901 16.71C43.7901 17.1433 43.4201 17.4833 42.9801 17.73C42.5467 17.97 42.0901 18.09 41.6101 18.09C41.1901 18.09 40.8301 18.0067 40.5301 17.84C40.2367 17.6667 40.0067 17.4533 39.8401 17.2L39.2401 20.62H38.1001L39.5301 12.49H40.6701L40.5301 13.3ZM43.5401 15.22C43.5667 15.0933 43.5801 14.9567 43.5801 14.81C43.5801 14.3633 43.4467 14.0167 43.1801 13.77C42.9201 13.5167 42.5901 13.39 42.1901 13.39C41.9034 13.39 41.6167 13.4633 41.3301 13.61C41.0501 13.7567 40.8067 13.97 40.6001 14.25C40.3934 14.53 40.2567 14.86 40.1901 15.24C40.1634 15.3667 40.1501 15.5033 40.1501 15.65C40.1501 16.0967 40.2801 16.45 40.5401 16.71C40.8067 16.97 41.1367 17.1 41.5301 17.1C41.8234 17.1 42.1101 17.0267 42.3901 16.88C42.6767 16.7267 42.9234 16.5067 43.1301 16.22C43.3367 15.9333 43.4734 15.6 43.5401 15.22ZM47.7874 10.6L46.4774 18H45.3374L46.6474 10.6H47.7874ZM51.3341 12.4C52.0208 12.4 52.5675 12.5933 52.9741 12.98C53.3875 13.3667 53.5941 13.8867 53.5941 14.54C53.5941 14.6933 53.5775 14.8767 53.5441 15.09C53.5175 15.2367 53.4708 15.4167 53.4041 15.63H49.1941C49.1875 15.6767 49.1841 15.7467 49.1841 15.84C49.1841 16.2333 49.3041 16.5467 49.5441 16.78C49.7908 17.0133 50.1108 17.13 50.5041 17.13C51.1241 17.13 51.6008 16.8733 51.9341 16.36H53.1641C52.9108 16.8667 52.5375 17.2833 52.0441 17.61C51.5508 17.93 50.9808 18.09 50.3341 18.09C49.8741 18.09 49.4708 18 49.1241 17.82C48.7775 17.64 48.5075 17.3833 48.3141 17.05C48.1208 16.71 48.0241 16.3133 48.0241 15.86C48.0241 15.6667 48.0441 15.46 48.0841 15.24C48.1841 14.6733 48.3875 14.1767 48.6941 13.75C49.0008 13.3167 49.3808 12.9833 49.8341 12.75C50.2941 12.5167 50.7941 12.4 51.3341 12.4ZM52.4041 14.81C52.4175 14.69 52.4241 14.6033 52.4241 14.55C52.4241 14.1833 52.3008 13.8933 52.0541 13.68C51.8141 13.4667 51.5008 13.36 51.1141 13.36C50.7075 13.36 50.3408 13.49 50.0141 13.75C49.6875 14.01 49.4641 14.3633 49.3441 14.81H52.4041ZM59.0541 15.97C58.7341 15.97 58.4707 15.87 58.2641 15.67C58.0641 15.47 57.9641 15.2167 57.9641 14.91C57.9641 14.63 58.0374 14.3733 58.1841 14.14C58.3307 13.9 58.5241 13.71 58.7641 13.57C59.0041 13.43 59.2541 13.36 59.5141 13.36C59.8407 13.36 60.1074 13.46 60.3141 13.66C60.5207 13.86 60.6241 14.1167 60.6241 14.43C60.6241 14.7033 60.5507 14.96 60.4041 15.2C60.2574 15.4333 60.0607 15.62 59.8141 15.76C59.5741 15.9 59.3207 15.97 59.0541 15.97ZM70.7213 12.49L69.7513 18H68.6113L68.7213 17.35C68.5013 17.5767 68.2346 17.7567 67.9213 17.89C67.6146 18.0167 67.2979 18.08 66.9713 18.08C66.3913 18.08 65.9279 17.9233 65.5813 17.61C65.2346 17.2967 65.0613 16.8533 65.0613 16.28C65.0613 16.1267 65.0779 15.9433 65.1113 15.73L65.6813 12.49H66.8113L66.2713 15.56C66.2446 15.7467 66.2313 15.88 66.2313 15.96C66.2313 16.3267 66.3313 16.6067 66.5313 16.8C66.7379 16.9933 67.0213 17.09 67.3813 17.09C67.8013 17.09 68.1579 16.9667 68.4513 16.72C68.7446 16.4667 68.9379 16.1033 69.0313 15.63L69.5812 12.49H70.7213ZM75.0254 12.4C75.6054 12.4 76.0654 12.5567 76.4054 12.87C76.7521 13.1767 76.9254 13.62 76.9254 14.2C76.9254 14.3467 76.9087 14.53 76.8754 14.75L76.2954 18H75.1654L75.7154 14.92C75.7421 14.7333 75.7554 14.6 75.7554 14.52C75.7554 14.1533 75.6521 13.8733 75.4454 13.68C75.2454 13.4867 74.9654 13.39 74.6054 13.39C74.1721 13.39 73.8054 13.5233 73.5054 13.79C73.2121 14.05 73.0254 14.4267 72.9454 14.92V14.89L72.3954 18H71.2554L72.2254 12.49H73.3654L73.2554 13.13C73.4821 12.9033 73.7487 12.7267 74.0554 12.6C74.3687 12.4667 74.6921 12.4 75.0254 12.4ZM79.4295 11.76C79.2495 11.76 79.1029 11.7033 78.9895 11.59C78.8762 11.4767 78.8195 11.3333 78.8195 11.16C78.8195 10.9267 78.9062 10.7267 79.0795 10.56C79.2595 10.3867 79.4629 10.3 79.6895 10.3C79.8695 10.3 80.0129 10.3567 80.1195 10.47C80.2329 10.5833 80.2895 10.7267 80.2895 10.9C80.2895 11.1333 80.2029 11.3367 80.0295 11.51C79.8562 11.6767 79.6562 11.76 79.4295 11.76ZM79.8595 12.49L78.8895 18H77.7495L78.7195 12.49H79.8595ZM84.1563 12.4C84.7363 12.4 85.1963 12.5567 85.5363 12.87C85.8829 13.1767 86.0563 13.62 86.0563 14.2C86.0563 14.3467 86.0396 14.53 86.0063 14.75L85.4263 18H84.2963L84.8463 14.92C84.8729 14.7333 84.8863 14.6 84.8863 14.52C84.8863 14.1533 84.7829 13.8733 84.5763 13.68C84.3763 13.4867 84.0963 13.39 83.7363 13.39C83.3029 13.39 82.9363 13.5233 82.6363 13.79C82.3429 14.05 82.1563 14.4267 82.0763 14.92V14.89L81.5263 18H80.3863L81.3563 12.49H82.4963L82.3863 13.13C82.6129 12.9033 82.8796 12.7267 83.1863 12.6C83.4996 12.4667 83.8229 12.4 84.1563 12.4ZM88.9104 18.09C88.5304 18.09 88.1837 18.0267 87.8704 17.9C87.5571 17.7667 87.3104 17.5833 87.1304 17.35C86.9504 17.11 86.8604 16.8367 86.8604 16.53C86.8604 16.4767 86.8671 16.4033 86.8804 16.31H87.9904C87.9637 16.5633 88.0404 16.7733 88.2204 16.94C88.4004 17.1067 88.6537 17.19 88.9804 17.19C89.3004 17.19 89.5637 17.1333 89.7704 17.02C89.9771 16.9067 90.0804 16.74 90.0804 16.52C90.0804 16.3333 89.9937 16.1833 89.8204 16.07C89.6537 15.9567 89.3837 15.83 89.0104 15.69C88.6571 15.55 88.3704 15.42 88.1504 15.3C87.9304 15.18 87.7404 15.0167 87.5804 14.81C87.4204 14.5967 87.3404 14.3333 87.3404 14.02C87.3404 13.7 87.4304 13.42 87.6104 13.18C87.7971 12.9333 88.0537 12.7433 88.3804 12.61C88.7137 12.47 89.0937 12.4 89.5204 12.4C89.9071 12.4 90.2504 12.4667 90.5504 12.6C90.8571 12.7267 91.0937 12.91 91.2604 13.15C91.4337 13.3833 91.5204 13.6533 91.5204 13.96C91.5204 14.0533 91.5171 14.1233 91.5104 14.17H90.4304C90.4571 13.91 90.3804 13.7 90.2004 13.54C90.0271 13.38 89.7771 13.3 89.4504 13.3C89.1637 13.3 88.9304 13.36 88.7504 13.48C88.5771 13.6 88.4904 13.7633 88.4904 13.97C88.4904 14.1767 88.5804 14.3433 88.7604 14.47C88.9404 14.59 89.2171 14.7233 89.5904 14.87C89.9304 15.0033 90.2071 15.13 90.4204 15.25C90.6337 15.37 90.8171 15.53 90.9704 15.73C91.1237 15.93 91.2004 16.18 91.2004 16.48C91.2004 16.8067 91.1004 17.0933 90.9004 17.34C90.7071 17.58 90.4371 17.7667 90.0904 17.9C89.7437 18.0267 89.3504 18.09 88.9104 18.09ZM93.8222 16.47C93.8089 16.5633 93.8022 16.6233 93.8022 16.65C93.8022 16.79 93.8455 16.8933 93.9322 16.96C94.0189 17.02 94.1622 17.05 94.3622 17.05H95.0622L94.8922 18H93.9922C93.5522 18 93.2155 17.9133 92.9822 17.74C92.7489 17.56 92.6322 17.2767 92.6322 16.89C92.6322 16.7433 92.6455 16.6033 92.6722 16.47L93.2122 13.42H92.5622L92.7222 12.49H93.3822L93.6222 11.12H94.7722L94.5322 12.49H95.8622L95.7022 13.42H94.3622L93.8222 16.47ZM96.0529 15.22C96.1529 14.6667 96.3529 14.1767 96.6529 13.75C96.9596 13.3233 97.3329 12.9933 97.7729 12.76C98.2129 12.52 98.6729 12.4 99.1529 12.4C99.5862 12.4 99.9496 12.4867 100.243 12.66C100.536 12.8267 100.756 13.0367 100.903 13.29L101.043 12.49H102.193L101.223 18H100.073L100.223 17.18C99.9829 17.44 99.6796 17.6567 99.3129 17.83C98.9529 18.0033 98.5596 18.09 98.1329 18.09C97.7196 18.09 97.3496 17.9967 97.0229 17.81C96.7029 17.6233 96.4496 17.36 96.2629 17.02C96.0829 16.6733 95.9929 16.2767 95.9929 15.83C95.9929 15.63 96.0129 15.4267 96.0529 15.22ZM100.563 15.24C100.59 15.1133 100.603 14.9767 100.603 14.83C100.603 14.3833 100.47 14.0333 100.203 13.78C99.9429 13.52 99.6162 13.39 99.2229 13.39C98.9296 13.39 98.6429 13.4633 98.3629 13.61C98.0829 13.75 97.8396 13.96 97.6329 14.24C97.4262 14.5133 97.2896 14.84 97.2229 15.22C97.1962 15.3467 97.1829 15.4833 97.1829 15.63C97.1829 16.0833 97.3129 16.4433 97.5729 16.71C97.8396 16.97 98.1696 17.1 98.5629 17.1C98.8562 17.1 99.1429 17.0267 99.4229 16.88C99.7029 16.7333 99.9462 16.52 100.153 16.24C100.36 15.9533 100.496 15.62 100.563 15.24ZM105.17 10.6L103.86 18H102.72L104.03 10.6H105.17ZM107.807 10.6L106.497 18H105.357L106.667 10.6H107.807ZM114.762 12.4C115.342 12.4 115.802 12.5567 116.142 12.87C116.488 13.1767 116.662 13.62 116.662 14.2C116.662 14.3467 116.645 14.53 116.612 14.75L116.032 18H114.902L115.452 14.92C115.478 14.7333 115.492 14.6 115.492 14.52C115.492 14.1533 115.388 13.8733 115.182 13.68C114.982 13.4867 114.702 13.39 114.342 13.39C113.908 13.39 113.542 13.5233 113.242 13.79C112.948 14.05 112.762 14.4267 112.682 14.92V14.89L112.132 18H110.992L111.962 12.49H113.102L112.992 13.13C113.218 12.9033 113.485 12.7267 113.792 12.6C114.105 12.4667 114.428 12.4 114.762 12.4ZM119.896 18.09C119.429 18.09 119.019 17.9933 118.666 17.8C118.313 17.6067 118.036 17.3333 117.836 16.98C117.643 16.6267 117.546 16.2233 117.546 15.77C117.546 15.15 117.689 14.5833 117.976 14.07C118.269 13.5567 118.669 13.15 119.176 12.85C119.689 12.55 120.259 12.4 120.886 12.4C121.353 12.4 121.766 12.5 122.126 12.7C122.486 12.8933 122.766 13.1667 122.966 13.52C123.173 13.8667 123.276 14.27 123.276 14.73C123.276 15.35 123.126 15.9167 122.826 16.43C122.526 16.9433 122.119 17.35 121.606 17.65C121.093 17.9433 120.523 18.09 119.896 18.09ZM120.036 17.13C120.416 17.13 120.763 17.0233 121.076 16.81C121.396 16.59 121.646 16.3033 121.826 15.95C122.006 15.59 122.096 15.2067 122.096 14.8C122.096 14.34 121.966 13.9867 121.706 13.74C121.446 13.4867 121.119 13.36 120.726 13.36C120.339 13.36 119.993 13.47 119.686 13.69C119.386 13.9033 119.149 14.1933 118.976 14.56C118.809 14.92 118.726 15.3067 118.726 15.72C118.726 16.1667 118.846 16.5133 119.086 16.76C119.333 17.0067 119.649 17.13 120.036 17.13ZM125.463 16.47C125.449 16.5633 125.443 16.6233 125.443 16.65C125.443 16.79 125.486 16.8933 125.573 16.96C125.659 17.02 125.803 17.05 126.003 17.05H126.703L126.533 18H125.633C125.193 18 124.856 17.9133 124.623 17.74C124.389 17.56 124.273 17.2767 124.273 16.89C124.273 16.7433 124.286 16.6033 124.313 16.47L124.853 13.42H124.203L124.363 12.49H125.023L125.263 11.12H126.413L126.173 12.49H127.503L127.343 13.42H126.003L125.463 16.47ZM130.944 12.4C131.63 12.4 132.177 12.5933 132.584 12.98C132.997 13.3667 133.204 13.8867 133.204 14.54C133.204 14.6933 133.187 14.8767 133.154 15.09C133.127 15.2367 133.08 15.4167 133.014 15.63H128.804C128.797 15.6767 128.794 15.7467 128.794 15.84C128.794 16.2333 128.914 16.5467 129.154 16.78C129.4 17.0133 129.72 17.13 130.114 17.13C130.734 17.13 131.21 16.8733 131.544 16.36H132.774C132.52 16.8667 132.147 17.2833 131.654 17.61C131.16 17.93 130.59 18.09 129.944 18.09C129.484 18.09 129.08 18 128.734 17.82C128.387 17.64 128.117 17.3833 127.924 17.05C127.73 16.71 127.634 16.3133 127.634 15.86C127.634 15.6667 127.654 15.46 127.694 15.24C127.794 14.6733 127.997 14.1767 128.304 13.75C128.61 13.3167 128.99 12.9833 129.444 12.75C129.904 12.5167 130.404 12.4 130.944 12.4ZM132.014 14.81C132.027 14.69 132.034 14.6033 132.034 14.55C132.034 14.1833 131.91 13.8933 131.664 13.68C131.424 13.4667 131.11 13.36 130.724 13.36C130.317 13.36 129.95 13.49 129.624 13.75C129.297 14.01 129.074 14.3633 128.954 14.81H132.014ZM135.725 13.3C135.965 13.0467 136.265 12.8333 136.625 12.66C136.992 12.4867 137.385 12.4 137.805 12.4C138.225 12.4 138.599 12.49 138.925 12.67C139.252 12.85 139.505 13.1067 139.685 13.44C139.865 13.7733 139.955 14.1633 139.955 14.61C139.955 14.8033 139.935 15.0067 139.895 15.22C139.795 15.7733 139.592 16.27 139.285 16.71C138.985 17.1433 138.615 17.4833 138.175 17.73C137.742 17.97 137.285 18.09 136.805 18.09C136.385 18.09 136.025 18.0067 135.725 17.84C135.432 17.6667 135.202 17.4533 135.035 17.2L134.435 20.62H133.295L134.725 12.49H135.865L135.725 13.3ZM138.735 15.22C138.762 15.0933 138.775 14.9567 138.775 14.81C138.775 14.3633 138.642 14.0167 138.375 13.77C138.115 13.5167 137.785 13.39 137.385 13.39C137.099 13.39 136.812 13.4633 136.525 13.61C136.245 13.7567 136.002 13.97 135.795 14.25C135.589 14.53 135.452 14.86 135.385 15.24C135.359 15.3667 135.345 15.5033 135.345 15.65C135.345 16.0967 135.475 16.45 135.735 16.71C136.002 16.97 136.332 17.1 136.725 17.1C137.019 17.1 137.305 17.0267 137.585 16.88C137.872 16.7267 138.119 16.5067 138.325 16.22C138.532 15.9333 138.669 15.6 138.735 15.22ZM140.643 15.22C140.743 14.6667 140.943 14.1767 141.243 13.75C141.549 13.3233 141.923 12.9933 142.363 12.76C142.803 12.52 143.263 12.4 143.743 12.4C144.176 12.4 144.539 12.4867 144.833 12.66C145.126 12.8267 145.346 13.0367 145.493 13.29L145.633 12.49H146.783L145.813 18H144.663L144.813 17.18C144.573 17.44 144.269 17.6567 143.903 17.83C143.543 18.0033 143.149 18.09 142.723 18.09C142.309 18.09 141.939 17.9967 141.613 17.81C141.293 17.6233 141.039 17.36 140.853 17.02C140.673 16.6733 140.583 16.2767 140.583 15.83C140.583 15.63 140.603 15.4267 140.643 15.22ZM145.153 15.24C145.179 15.1133 145.193 14.9767 145.193 14.83C145.193 14.3833 145.059 14.0333 144.793 13.78C144.533 13.52 144.206 13.39 143.813 13.39C143.519 13.39 143.233 13.4633 142.953 13.61C142.673 13.75 142.429 13.96 142.223 14.24C142.016 14.5133 141.879 14.84 141.813 15.22C141.786 15.3467 141.773 15.4833 141.773 15.63C141.773 16.0833 141.903 16.4433 142.163 16.71C142.429 16.97 142.759 17.1 143.153 17.1C143.446 17.1 143.733 17.0267 144.013 16.88C144.293 16.7333 144.536 16.52 144.743 16.24C144.949 15.9533 145.086 15.62 145.153 15.24ZM147.42 15.22C147.52 14.6667 147.72 14.1767 148.02 13.75C148.327 13.3233 148.7 12.9933 149.14 12.76C149.58 12.52 150.043 12.4 150.53 12.4C150.89 12.4 151.23 12.48 151.55 12.64C151.87 12.7933 152.113 13 152.28 13.26L152.75 10.6H153.9L152.59 18H151.44L151.59 17.17C151.35 17.4433 151.05 17.6667 150.69 17.84C150.337 18.0067 149.947 18.09 149.52 18.09C149.1 18.09 148.727 17.9967 148.4 17.81C148.073 17.6233 147.817 17.36 147.63 17.02C147.45 16.6733 147.36 16.2767 147.36 15.83C147.36 15.63 147.38 15.4267 147.42 15.22ZM151.93 15.24C151.957 15.1133 151.97 14.9767 151.97 14.83C151.97 14.3833 151.837 14.0333 151.57 13.78C151.31 13.52 150.983 13.39 150.59 13.39C150.297 13.39 150.01 13.4633 149.73 13.61C149.45 13.75 149.207 13.96 149 14.24C148.793 14.5133 148.657 14.84 148.59 15.22C148.563 15.3467 148.55 15.4833 148.55 15.63C148.55 16.0833 148.68 16.4433 148.94 16.71C149.207 16.97 149.537 17.1 149.93 17.1C150.223 17.1 150.51 17.0267 150.79 16.88C151.07 16.7333 151.313 16.52 151.52 16.24C151.727 15.9533 151.863 15.62 151.93 15.24Z" fill="black" fill-opacity="0.5"/>
</svg>
