<svg width="480" height="360" viewBox="0 0 480 360" fill="none" xmlns="http://www.w3.org/2000/svg">
<rect x="160" y="140" width="310" height="30" rx="15" fill="black" fill-opacity="0.1"/>
<path d="M285.235 150.66V159H283.867V150.66H285.235ZM290.367 152.28C290.887 152.28 291.351 152.388 291.759 152.604C292.175 152.82 292.499 153.14 292.731 153.564C292.963 153.988 293.079 154.5 293.079 155.1V159H291.723V155.304C291.723 154.712 291.575 154.26 291.279 153.948C290.983 153.628 290.579 153.468 290.067 153.468C289.555 153.468 289.147 153.628 288.843 153.948C288.547 154.26 288.399 154.712 288.399 155.304V159H287.031V152.388H288.399V153.144C288.623 152.872 288.907 152.66 289.251 152.508C289.603 152.356 289.975 152.28 290.367 152.28ZM297.224 159.108C296.704 159.108 296.236 159.016 295.82 158.832C295.412 158.64 295.088 158.384 294.848 158.064C294.608 157.736 294.48 157.372 294.464 156.972H295.88C295.904 157.252 296.036 157.488 296.276 157.68C296.524 157.864 296.832 157.956 297.2 157.956C297.584 157.956 297.88 157.884 298.088 157.74C298.304 157.588 298.412 157.396 298.412 157.164C298.412 156.916 298.292 156.732 298.052 156.612C297.82 156.492 297.448 156.36 296.936 156.216C296.44 156.08 296.036 155.948 295.724 155.82C295.412 155.692 295.14 155.496 294.908 155.232C294.684 154.968 294.572 154.62 294.572 154.188C294.572 153.836 294.676 153.516 294.884 153.228C295.092 152.932 295.388 152.7 295.772 152.532C296.164 152.364 296.612 152.28 297.116 152.28C297.868 152.28 298.472 152.472 298.928 152.856C299.392 153.232 299.64 153.748 299.672 154.404H298.304C298.28 154.108 298.16 153.872 297.944 153.696C297.728 153.52 297.436 153.432 297.068 153.432C296.708 153.432 296.432 153.5 296.24 153.636C296.048 153.772 295.952 153.952 295.952 154.176C295.952 154.352 296.016 154.5 296.144 154.62C296.272 154.74 296.428 154.836 296.612 154.908C296.796 154.972 297.068 155.056 297.428 155.16C297.908 155.288 298.3 155.42 298.604 155.556C298.916 155.684 299.184 155.876 299.408 156.132C299.632 156.388 299.748 156.728 299.756 157.152C299.756 157.528 299.652 157.864 299.444 158.16C299.236 158.456 298.94 158.688 298.556 158.856C298.18 159.024 297.736 159.108 297.224 159.108ZM302.83 153.504V157.164C302.83 157.412 302.886 157.592 302.998 157.704C303.118 157.808 303.318 157.86 303.598 157.86H304.438V159H303.358C302.742 159 302.27 158.856 301.942 158.568C301.614 158.28 301.45 157.812 301.45 157.164V153.504H300.67V152.388H301.45V150.744H302.83V152.388H304.438V153.504H302.83ZM305.243 155.664C305.243 155 305.379 154.412 305.651 153.9C305.931 153.388 306.307 152.992 306.779 152.712C307.259 152.424 307.787 152.28 308.363 152.28C308.883 152.28 309.335 152.384 309.719 152.592C310.111 152.792 310.423 153.044 310.655 153.348V152.388H312.035V159H310.655V158.016C310.423 158.328 310.107 158.588 309.707 158.796C309.307 159.004 308.851 159.108 308.339 159.108C307.771 159.108 307.251 158.964 306.779 158.676C306.307 158.38 305.931 157.972 305.651 157.452C305.379 156.924 305.243 156.328 305.243 155.664ZM310.655 155.688C310.655 155.232 310.559 154.836 310.367 154.5C310.183 154.164 309.939 153.908 309.635 153.732C309.331 153.556 309.003 153.468 308.651 153.468C308.299 153.468 307.971 153.556 307.667 153.732C307.363 153.9 307.115 154.152 306.923 154.488C306.739 154.816 306.647 155.208 306.647 155.664C306.647 156.12 306.739 156.52 306.923 156.864C307.115 157.208 307.363 157.472 307.667 157.656C307.979 157.832 308.307 157.92 308.651 157.92C309.003 157.92 309.331 157.832 309.635 157.656C309.939 157.48 310.183 157.224 310.367 156.888C310.559 156.544 310.655 156.144 310.655 155.688ZM315.2 150.12V159H313.832V150.12H315.2ZM318.364 150.12V159H316.996V150.12H318.364ZM320.856 151.512C320.608 151.512 320.4 151.428 320.232 151.26C320.064 151.092 319.98 150.884 319.98 150.636C319.98 150.388 320.064 150.18 320.232 150.012C320.4 149.844 320.608 149.76 320.856 149.76C321.096 149.76 321.3 149.844 321.468 150.012C321.636 150.18 321.72 150.388 321.72 150.636C321.72 150.884 321.636 151.092 321.468 151.26C321.3 151.428 321.096 151.512 320.856 151.512ZM321.528 152.388V159H320.16V152.388H321.528ZM326.66 152.28C327.18 152.28 327.644 152.388 328.052 152.604C328.468 152.82 328.792 153.14 329.024 153.564C329.256 153.988 329.372 154.5 329.372 155.1V159H328.016V155.304C328.016 154.712 327.868 154.26 327.572 153.948C327.276 153.628 326.872 153.468 326.36 153.468C325.848 153.468 325.44 153.628 325.136 153.948C324.84 154.26 324.692 154.712 324.692 155.304V159H323.324V152.388H324.692V153.144C324.916 152.872 325.2 152.66 325.544 152.508C325.896 152.356 326.268 152.28 326.66 152.28ZM333.781 152.28C334.293 152.28 334.745 152.384 335.137 152.592C335.537 152.792 335.849 153.044 336.073 153.348V152.388H337.453V159.108C337.453 159.716 337.325 160.256 337.069 160.728C336.813 161.208 336.441 161.584 335.953 161.856C335.473 162.128 334.897 162.264 334.225 162.264C333.329 162.264 332.585 162.052 331.993 161.628C331.401 161.212 331.065 160.644 330.985 159.924H332.341C332.445 160.268 332.665 160.544 333.001 160.752C333.345 160.968 333.753 161.076 334.225 161.076C334.777 161.076 335.221 160.908 335.557 160.572C335.901 160.236 336.073 159.748 336.073 159.108V158.004C335.841 158.316 335.525 158.58 335.125 158.796C334.733 159.004 334.285 159.108 333.781 159.108C333.205 159.108 332.677 158.964 332.197 158.676C331.725 158.38 331.349 157.972 331.069 157.452C330.797 156.924 330.661 156.328 330.661 155.664C330.661 155 330.797 154.412 331.069 153.9C331.349 153.388 331.725 152.992 332.197 152.712C332.677 152.424 333.205 152.28 333.781 152.28ZM336.073 155.688C336.073 155.232 335.977 154.836 335.785 154.5C335.601 154.164 335.357 153.908 335.053 153.732C334.749 153.556 334.421 153.468 334.069 153.468C333.717 153.468 333.389 153.556 333.085 153.732C332.781 153.9 332.533 154.152 332.341 154.488C332.157 154.816 332.065 155.208 332.065 155.664C332.065 156.12 332.157 156.52 332.341 156.864C332.533 157.208 332.781 157.472 333.085 157.656C333.397 157.832 333.725 157.92 334.069 157.92C334.421 157.92 334.749 157.832 335.053 157.656C335.357 157.48 335.601 157.224 335.785 156.888C335.977 156.544 336.073 156.144 336.073 155.688ZM339.802 159.084C339.554 159.084 339.346 159 339.178 158.832C339.01 158.664 338.926 158.456 338.926 158.208C338.926 157.96 339.01 157.752 339.178 157.584C339.346 157.416 339.554 157.332 339.802 157.332C340.042 157.332 340.246 157.416 340.414 157.584C340.582 157.752 340.666 157.96 340.666 158.208C340.666 158.456 340.582 158.664 340.414 158.832C340.246 159 340.042 159.084 339.802 159.084ZM342.696 159.084C342.448 159.084 342.24 159 342.072 158.832C341.904 158.664 341.82 158.456 341.82 158.208C341.82 157.96 341.904 157.752 342.072 157.584C342.24 157.416 342.448 157.332 342.696 157.332C342.936 157.332 343.14 157.416 343.308 157.584C343.476 157.752 343.56 157.96 343.56 158.208C343.56 158.456 343.476 158.664 343.308 158.832C343.14 159 342.936 159.084 342.696 159.084ZM345.591 159.084C345.343 159.084 345.135 159 344.967 158.832C344.799 158.664 344.715 158.456 344.715 158.208C344.715 157.96 344.799 157.752 344.967 157.584C345.135 157.416 345.343 157.332 345.591 157.332C345.831 157.332 346.035 157.416 346.203 157.584C346.371 157.752 346.455 157.96 346.455 158.208C346.455 158.456 346.371 158.664 346.203 158.832C346.035 159 345.831 159.084 345.591 159.084Z" fill="black"/>
</svg>
