<svg width="480" height="360" viewBox="0 0 480 360" fill="none" xmlns="http://www.w3.org/2000/svg">
<path d="M104.581 0H450C466.569 0 480 13.4315 480 30V330C480 346.569 466.569 360 450 360H104.581H30C13.4315 360 0 346.569 0 330V30C0 13.4315 13.4315 0 30 0H104.581Z" fill="#191919"/>
<path d="M203.324 286.88C204.508 286.88 205.543 287.109 206.428 287.568C207.324 288.016 208.012 288.667 208.492 289.52C208.983 290.363 209.228 291.349 209.228 292.48C209.228 293.611 208.983 294.592 208.492 295.424C208.012 296.256 207.324 296.896 206.428 297.344C205.543 297.781 204.508 298 203.324 298H199.692V286.88H203.324ZM203.324 296.512C204.626 296.512 205.623 296.16 206.316 295.456C207.01 294.752 207.356 293.76 207.356 292.48C207.356 291.189 207.01 290.181 206.316 289.456C205.623 288.731 204.626 288.368 203.324 288.368H201.516V296.512H203.324ZM212.86 290.464C213.127 290.016 213.479 289.669 213.916 289.424C214.364 289.168 214.892 289.04 215.5 289.04V290.928H215.036C214.321 290.928 213.777 291.109 213.404 291.472C213.041 291.835 212.86 292.464 212.86 293.36V298H211.036V289.184H212.86V290.464ZM216.569 293.552C216.569 292.667 216.75 291.883 217.113 291.2C217.486 290.517 217.987 289.989 218.617 289.616C219.257 289.232 219.961 289.04 220.729 289.04C221.422 289.04 222.025 289.179 222.537 289.456C223.059 289.723 223.475 290.059 223.785 290.464V289.184H225.625V298H223.785V296.688C223.475 297.104 223.054 297.451 222.521 297.728C221.987 298.005 221.379 298.144 220.697 298.144C219.939 298.144 219.246 297.952 218.617 297.568C217.987 297.173 217.486 296.629 217.113 295.936C216.75 295.232 216.569 294.437 216.569 293.552ZM223.785 293.584C223.785 292.976 223.657 292.448 223.401 292C223.155 291.552 222.83 291.211 222.425 290.976C222.019 290.741 221.582 290.624 221.113 290.624C220.643 290.624 220.206 290.741 219.801 290.976C219.395 291.2 219.065 291.536 218.809 291.984C218.563 292.421 218.441 292.944 218.441 293.552C218.441 294.16 218.563 294.693 218.809 295.152C219.065 295.611 219.395 295.963 219.801 296.208C220.217 296.443 220.654 296.56 221.113 296.56C221.582 296.56 222.019 296.443 222.425 296.208C222.83 295.973 223.155 295.632 223.401 295.184C223.657 294.725 223.785 294.192 223.785 293.584ZM239.86 289.184L237.124 298H235.204L233.428 291.488L231.652 298H229.732L226.98 289.184H228.836L230.676 296.272L232.548 289.184H234.452L236.244 296.24L238.068 289.184H239.86ZM252.564 286.88V288.368H249.604V298H247.78V288.368H244.804V286.88H252.564ZM258.971 289.04C259.643 289.04 260.24 289.184 260.763 289.472C261.296 289.76 261.712 290.187 262.011 290.752C262.32 291.317 262.475 292 262.475 292.8V298H260.667V293.072C260.667 292.283 260.47 291.68 260.075 291.264C259.68 290.837 259.142 290.624 258.459 290.624C257.776 290.624 257.232 290.837 256.827 291.264C256.432 291.68 256.235 292.283 256.235 293.072V298H254.411V286.16H256.235V290.208C256.544 289.835 256.934 289.547 257.403 289.344C257.883 289.141 258.406 289.04 258.971 289.04ZM265.73 288.016C265.399 288.016 265.122 287.904 264.898 287.68C264.674 287.456 264.562 287.179 264.562 286.848C264.562 286.517 264.674 286.24 264.898 286.016C265.122 285.792 265.399 285.68 265.73 285.68C266.05 285.68 266.322 285.792 266.546 286.016C266.77 286.24 266.882 286.517 266.882 286.848C266.882 287.179 266.77 287.456 266.546 287.68C266.322 287.904 266.05 288.016 265.73 288.016ZM266.626 289.184V298H264.802V289.184H266.626ZM272.22 298.144C271.527 298.144 270.903 298.021 270.348 297.776C269.804 297.52 269.372 297.179 269.052 296.752C268.732 296.315 268.562 295.829 268.54 295.296H270.428C270.46 295.669 270.636 295.984 270.956 296.24C271.287 296.485 271.698 296.608 272.188 296.608C272.7 296.608 273.095 296.512 273.372 296.32C273.66 296.117 273.804 295.861 273.804 295.552C273.804 295.221 273.644 294.976 273.324 294.816C273.015 294.656 272.519 294.48 271.836 294.288C271.175 294.107 270.636 293.931 270.22 293.76C269.804 293.589 269.442 293.328 269.132 292.976C268.834 292.624 268.684 292.16 268.684 291.584C268.684 291.115 268.823 290.688 269.1 290.304C269.378 289.909 269.772 289.6 270.284 289.376C270.807 289.152 271.404 289.04 272.076 289.04C273.079 289.04 273.884 289.296 274.492 289.808C275.111 290.309 275.442 290.997 275.484 291.872H273.66C273.628 291.477 273.468 291.163 273.18 290.928C272.892 290.693 272.503 290.576 272.012 290.576C271.532 290.576 271.164 290.667 270.908 290.848C270.652 291.029 270.524 291.269 270.524 291.568C270.524 291.803 270.61 292 270.78 292.16C270.951 292.32 271.159 292.448 271.404 292.544C271.65 292.629 272.012 292.741 272.492 292.88C273.132 293.051 273.655 293.227 274.06 293.408C274.476 293.579 274.834 293.835 275.132 294.176C275.431 294.517 275.586 294.971 275.596 295.536C275.596 296.037 275.458 296.485 275.18 296.88C274.903 297.275 274.508 297.584 273.996 297.808C273.495 298.032 272.903 298.144 272.22 298.144ZM279.855 286.88L279.647 294.64H278.127L277.919 286.88H279.855ZM278.943 298.112C278.613 298.112 278.335 298 278.111 297.776C277.887 297.552 277.775 297.275 277.775 296.944C277.775 296.613 277.887 296.336 278.111 296.112C278.335 295.888 278.613 295.776 278.943 295.776C279.263 295.776 279.535 295.888 279.759 296.112C279.983 296.336 280.095 296.613 280.095 296.944C280.095 297.275 279.983 297.552 279.759 297.776C279.535 298 279.263 298.112 278.943 298.112Z" fill="white"/>
</svg>
