<svg width="250" height="28" viewBox="0 0 250 28" fill="none" xmlns="http://www.w3.org/2000/svg">
<rect width="250" height="28" rx="5" fill="#E6E6E6"/>
<path d="M13.59 12.4C14.2767 12.4 14.8233 12.5933 15.23 12.98C15.6433 13.3667 15.85 13.8867 15.85 14.54C15.85 14.6933 15.8333 14.8767 15.8 15.09C15.7733 15.2367 15.7267 15.4167 15.66 15.63H11.45C11.4433 15.6767 11.44 15.7467 11.44 15.84C11.44 16.2333 11.56 16.5467 11.8 16.78C12.0467 17.0133 12.3667 17.13 12.76 17.13C13.38 17.13 13.8567 16.8733 14.19 16.36H15.42C15.1667 16.8667 14.7933 17.2833 14.3 17.61C13.8067 17.93 13.2367 18.09 12.59 18.09C12.13 18.09 11.7267 18 11.38 17.82C11.0333 17.64 10.7633 17.3833 10.57 17.05C10.3767 16.71 10.28 16.3133 10.28 15.86C10.28 15.6667 10.3 15.46 10.34 15.24C10.44 14.6733 10.6433 14.1767 10.95 13.75C11.2567 13.3167 11.6367 12.9833 12.09 12.75C12.55 12.5167 13.05 12.4 13.59 12.4ZM14.66 14.81C14.6733 14.69 14.68 14.6033 14.68 14.55C14.68 14.1833 14.5567 13.8933 14.31 13.68C14.07 13.4667 13.7567 13.36 13.37 13.36C12.9633 13.36 12.5967 13.49 12.27 13.75C11.9433 14.01 11.72 14.3633 11.6 14.81H14.66ZM19.2619 15.2L20.5419 18H19.2519L18.3919 16.13L16.9419 18H15.7519L18.0119 15.29L16.7219 12.49H18.0119L18.8719 14.36L20.3219 12.49H21.5119L19.2619 15.2ZM21.5021 15.22C21.6021 14.6667 21.8021 14.1767 22.1021 13.75C22.4088 13.3233 22.7821 12.9933 23.2221 12.76C23.6621 12.52 24.1221 12.4 24.6021 12.4C25.0354 12.4 25.3988 12.4867 25.6921 12.66C25.9854 12.8267 26.2054 13.0367 26.3521 13.29L26.4921 12.49H27.6421L26.6721 18H25.5221L25.6721 17.18C25.4321 17.44 25.1288 17.6567 24.7621 17.83C24.4021 18.0033 24.0088 18.09 23.5821 18.09C23.1688 18.09 22.7988 17.9967 22.4721 17.81C22.1521 17.6233 21.8988 17.36 21.7121 17.02C21.5321 16.6733 21.4421 16.2767 21.4421 15.83C21.4421 15.63 21.4621 15.4267 21.5021 15.22ZM26.0121 15.24C26.0388 15.1133 26.0521 14.9767 26.0521 14.83C26.0521 14.3833 25.9188 14.0333 25.6521 13.78C25.3921 13.52 25.0654 13.39 24.6721 13.39C24.3788 13.39 24.0921 13.4633 23.8121 13.61C23.5321 13.75 23.2888 13.96 23.0821 14.24C22.8754 14.5133 22.7388 14.84 22.6721 15.22C22.6454 15.3467 22.6321 15.4833 22.6321 15.63C22.6321 16.0833 22.7621 16.4433 23.0221 16.71C23.2888 16.97 23.6188 17.1 24.0121 17.1C24.3054 17.1 24.5921 17.0267 24.8721 16.88C25.1521 16.7333 25.3954 16.52 25.6021 16.24C25.8088 15.9533 25.9454 15.62 26.0121 15.24ZM35.8295 12.4C36.4095 12.4 36.8728 12.5567 37.2195 12.87C37.5661 13.1833 37.7395 13.6267 37.7395 14.2C37.7395 14.3533 37.7228 14.5367 37.6895 14.75L37.1095 18H35.9795L36.5295 14.92C36.5561 14.7333 36.5695 14.6 36.5695 14.52C36.5695 14.1533 36.4661 13.8733 36.2595 13.68C36.0595 13.4867 35.7795 13.39 35.4195 13.39C34.9861 13.39 34.6195 13.5233 34.3195 13.79C34.0261 14.05 33.8395 14.4267 33.7595 14.92L33.2095 18H32.0795L32.6295 14.92C32.6561 14.7333 32.6695 14.6 32.6695 14.52C32.6695 14.1533 32.5661 13.8733 32.3595 13.68C32.1595 13.4867 31.8795 13.39 31.5195 13.39C31.0861 13.39 30.7195 13.5233 30.4195 13.79C30.1261 14.05 29.9395 14.4267 29.8595 14.92V14.89L29.3095 18H28.1695L29.1395 12.49H30.2795L30.1695 13.13C30.3895 12.9033 30.6528 12.7267 30.9595 12.6C31.2728 12.4667 31.5961 12.4 31.9295 12.4C32.3695 12.4 32.7461 12.4933 33.0595 12.68C33.3795 12.8667 33.6028 13.1367 33.7295 13.49C33.9495 13.1567 34.2528 12.8933 34.6395 12.7C35.0261 12.5 35.4228 12.4 35.8295 12.4ZM40.5301 13.3C40.7701 13.0467 41.0701 12.8333 41.4301 12.66C41.7967 12.4867 42.1901 12.4 42.6101 12.4C43.0301 12.4 43.4034 12.49 43.7301 12.67C44.0567 12.85 44.3101 13.1067 44.4901 13.44C44.6701 13.7733 44.7601 14.1633 44.7601 14.61C44.7601 14.8033 44.7401 15.0067 44.7001 15.22C44.6001 15.7733 44.3967 16.27 44.0901 16.71C43.7901 17.1433 43.4201 17.4833 42.9801 17.73C42.5467 17.97 42.0901 18.09 41.6101 18.09C41.1901 18.09 40.8301 18.0067 40.5301 17.84C40.2367 17.6667 40.0067 17.4533 39.8401 17.2L39.2401 20.62H38.1001L39.5301 12.49H40.6701L40.5301 13.3ZM43.5401 15.22C43.5667 15.0933 43.5801 14.9567 43.5801 14.81C43.5801 14.3633 43.4467 14.0167 43.1801 13.77C42.9201 13.5167 42.5901 13.39 42.1901 13.39C41.9034 13.39 41.6167 13.4633 41.3301 13.61C41.0501 13.7567 40.8067 13.97 40.6001 14.25C40.3934 14.53 40.2567 14.86 40.1901 15.24C40.1634 15.3667 40.1501 15.5033 40.1501 15.65C40.1501 16.0967 40.2801 16.45 40.5401 16.71C40.8067 16.97 41.1367 17.1 41.5301 17.1C41.8234 17.1 42.1101 17.0267 42.3901 16.88C42.6767 16.7267 42.9234 16.5067 43.1301 16.22C43.3367 15.9333 43.4734 15.6 43.5401 15.22ZM47.7874 10.6L46.4774 18H45.3374L46.6474 10.6H47.7874ZM51.3341 12.4C52.0208 12.4 52.5675 12.5933 52.9741 12.98C53.3875 13.3667 53.5941 13.8867 53.5941 14.54C53.5941 14.6933 53.5775 14.8767 53.5441 15.09C53.5175 15.2367 53.4708 15.4167 53.4041 15.63H49.1941C49.1875 15.6767 49.1841 15.7467 49.1841 15.84C49.1841 16.2333 49.3041 16.5467 49.5441 16.78C49.7908 17.0133 50.1108 17.13 50.5041 17.13C51.1241 17.13 51.6008 16.8733 51.9341 16.36H53.1641C52.9108 16.8667 52.5375 17.2833 52.0441 17.61C51.5508 17.93 50.9808 18.09 50.3341 18.09C49.8741 18.09 49.4708 18 49.1241 17.82C48.7775 17.64 48.5075 17.3833 48.3141 17.05C48.1208 16.71 48.0241 16.3133 48.0241 15.86C48.0241 15.6667 48.0441 15.46 48.0841 15.24C48.1841 14.6733 48.3875 14.1767 48.6941 13.75C49.0008 13.3167 49.3808 12.9833 49.8341 12.75C50.2941 12.5167 50.7941 12.4 51.3341 12.4ZM52.4041 14.81C52.4175 14.69 52.4241 14.6033 52.4241 14.55C52.4241 14.1833 52.3008 13.8933 52.0541 13.68C51.8141 13.4667 51.5008 13.36 51.1141 13.36C50.7075 13.36 50.3408 13.49 50.0141 13.75C49.6875 14.01 49.4641 14.3633 49.3441 14.81H52.4041ZM59.0541 15.97C58.7341 15.97 58.4707 15.87 58.2641 15.67C58.0641 15.47 57.9641 15.2167 57.9641 14.91C57.9641 14.63 58.0374 14.3733 58.1841 14.14C58.3307 13.9 58.5241 13.71 58.7641 13.57C59.0041 13.43 59.2541 13.36 59.5141 13.36C59.8407 13.36 60.1074 13.46 60.3141 13.66C60.5207 13.86 60.6241 14.1167 60.6241 14.43C60.6241 14.7033 60.5507 14.96 60.4041 15.2C60.2574 15.4333 60.0607 15.62 59.8141 15.76C59.5741 15.9 59.3207 15.97 59.0541 15.97ZM66.7013 13.46C66.9279 13.1267 67.1946 12.8667 67.5013 12.68C67.8146 12.4933 68.1613 12.4 68.5413 12.4L68.3313 13.58H68.0413C67.6013 13.58 67.2479 13.69 66.9813 13.91C66.7146 14.13 66.5279 14.51 66.4213 15.05L65.9013 18H64.7613L65.7313 12.49H66.8713L66.7013 13.46ZM71.9591 12.4C72.6458 12.4 73.1925 12.5933 73.5991 12.98C74.0125 13.3667 74.2191 13.8867 74.2191 14.54C74.2191 14.6933 74.2025 14.8767 74.1691 15.09C74.1425 15.2367 74.0958 15.4167 74.0291 15.63H69.8191C69.8125 15.6767 69.8091 15.7467 69.8091 15.84C69.8091 16.2333 69.9291 16.5467 70.1691 16.78C70.4158 17.0133 70.7358 17.13 71.1291 17.13C71.7491 17.13 72.2258 16.8733 72.5591 16.36H73.7891C73.5358 16.8667 73.1625 17.2833 72.6691 17.61C72.1758 17.93 71.6058 18.09 70.9591 18.09C70.4991 18.09 70.0958 18 69.7491 17.82C69.4025 17.64 69.1325 17.3833 68.9391 17.05C68.7458 16.71 68.6491 16.3133 68.6491 15.86C68.6491 15.6667 68.6691 15.46 68.7091 15.24C68.8091 14.6733 69.0125 14.1767 69.3191 13.75C69.6258 13.3167 70.0058 12.9833 70.4591 12.75C70.9191 12.5167 71.4191 12.4 71.9591 12.4ZM73.0291 14.81C73.0425 14.69 73.0491 14.6033 73.0491 14.55C73.0491 14.1833 72.9258 13.8933 72.6791 13.68C72.4391 13.4667 72.1258 13.36 71.7391 13.36C71.3325 13.36 70.9658 13.49 70.6391 13.75C70.3125 14.01 70.0891 14.3633 69.9691 14.81H73.0291ZM78.541 12.4C79.121 12.4 79.581 12.5567 79.921 12.87C80.2677 13.1767 80.441 13.62 80.441 14.2C80.441 14.3467 80.4243 14.53 80.391 14.75L79.811 18H78.681L79.231 14.92C79.2577 14.7333 79.271 14.6 79.271 14.52C79.271 14.1533 79.1677 13.8733 78.961 13.68C78.761 13.4867 78.481 13.39 78.121 13.39C77.6877 13.39 77.321 13.5233 77.021 13.79C76.7277 14.05 76.541 14.4267 76.461 14.92V14.89L75.911 18H74.771L75.741 12.49H76.881L76.771 13.13C76.9977 12.9033 77.2643 12.7267 77.571 12.6C77.8843 12.4667 78.2077 12.4 78.541 12.4ZM81.3752 15.22C81.4752 14.6667 81.6752 14.1767 81.9752 13.75C82.2818 13.3233 82.6552 12.9933 83.0952 12.76C83.5352 12.52 83.9952 12.4 84.4752 12.4C84.9085 12.4 85.2718 12.4867 85.5652 12.66C85.8585 12.8267 86.0785 13.0367 86.2252 13.29L86.3652 12.49H87.5152L86.5452 18H85.3952L85.5452 17.18C85.3052 17.44 85.0018 17.6567 84.6352 17.83C84.2752 18.0033 83.8818 18.09 83.4552 18.09C83.0418 18.09 82.6718 17.9967 82.3452 17.81C82.0252 17.6233 81.7718 17.36 81.5852 17.02C81.4052 16.6733 81.3152 16.2767 81.3152 15.83C81.3152 15.63 81.3352 15.4267 81.3752 15.22ZM85.8852 15.24C85.9118 15.1133 85.9252 14.9767 85.9252 14.83C85.9252 14.3833 85.7918 14.0333 85.5252 13.78C85.2652 13.52 84.9385 13.39 84.5452 13.39C84.2518 13.39 83.9652 13.4633 83.6852 13.61C83.4052 13.75 83.1618 13.96 82.9552 14.24C82.7485 14.5133 82.6118 14.84 82.5452 15.22C82.5185 15.3467 82.5052 15.4833 82.5052 15.63C82.5052 16.0833 82.6352 16.4433 82.8952 16.71C83.1618 16.97 83.4918 17.1 83.8852 17.1C84.1785 17.1 84.4652 17.0267 84.7452 16.88C85.0252 16.7333 85.2685 16.52 85.4752 16.24C85.6818 15.9533 85.8185 15.62 85.8852 15.24ZM95.7025 12.4C96.2825 12.4 96.7458 12.5567 97.0925 12.87C97.4392 13.1833 97.6125 13.6267 97.6125 14.2C97.6125 14.3533 97.5958 14.5367 97.5625 14.75L96.9825 18H95.8525L96.4025 14.92C96.4292 14.7333 96.4425 14.6 96.4425 14.52C96.4425 14.1533 96.3392 13.8733 96.1325 13.68C95.9325 13.4867 95.6525 13.39 95.2925 13.39C94.8592 13.39 94.4925 13.5233 94.1925 13.79C93.8992 14.05 93.7125 14.4267 93.6325 14.92L93.0825 18H91.9525L92.5025 14.92C92.5292 14.7333 92.5425 14.6 92.5425 14.52C92.5425 14.1533 92.4392 13.8733 92.2325 13.68C92.0325 13.4867 91.7525 13.39 91.3925 13.39C90.9592 13.39 90.5925 13.5233 90.2925 13.79C89.9992 14.05 89.8125 14.4267 89.7325 14.92V14.89L89.1825 18H88.0425L89.0125 12.49H90.1525L90.0425 13.13C90.2625 12.9033 90.5258 12.7267 90.8325 12.6C91.1458 12.4667 91.4692 12.4 91.8025 12.4C92.2425 12.4 92.6192 12.4933 92.9325 12.68C93.2525 12.8667 93.4758 13.1367 93.6025 13.49C93.8225 13.1567 94.1258 12.8933 94.5125 12.7C94.8992 12.5 95.2958 12.4 95.7025 12.4ZM101.793 12.4C102.48 12.4 103.026 12.5933 103.433 12.98C103.846 13.3667 104.053 13.8867 104.053 14.54C104.053 14.6933 104.036 14.8767 104.003 15.09C103.976 15.2367 103.93 15.4167 103.863 15.63H99.6531C99.6465 15.6767 99.6431 15.7467 99.6431 15.84C99.6431 16.2333 99.7631 16.5467 100.003 16.78C100.25 17.0133 100.57 17.13 100.963 17.13C101.583 17.13 102.06 16.8733 102.393 16.36H103.623C103.37 16.8667 102.996 17.2833 102.503 17.61C102.01 17.93 101.44 18.09 100.793 18.09C100.333 18.09 99.9298 18 99.5831 17.82C99.2365 17.64 98.9665 17.3833 98.7731 17.05C98.5798 16.71 98.4831 16.3133 98.4831 15.86C98.4831 15.6667 98.5031 15.46 98.5431 15.24C98.6431 14.6733 98.8465 14.1767 99.1531 13.75C99.4598 13.3167 99.8398 12.9833 100.293 12.75C100.753 12.5167 101.253 12.4 101.793 12.4ZM102.863 14.81C102.876 14.69 102.883 14.6033 102.883 14.55C102.883 14.1833 102.76 13.8933 102.513 13.68C102.273 13.4667 101.96 13.36 101.573 13.36C101.166 13.36 100.8 13.49 100.473 13.75C100.146 14.01 99.9231 14.3633 99.8031 14.81H102.863ZM109.203 16.47C109.19 16.5633 109.183 16.6233 109.183 16.65C109.183 16.79 109.226 16.8933 109.313 16.96C109.4 17.02 109.543 17.05 109.743 17.05H110.443L110.273 18H109.373C108.933 18 108.596 17.9133 108.363 17.74C108.13 17.56 108.013 17.2767 108.013 16.89C108.013 16.7433 108.026 16.6033 108.053 16.47L108.593 13.42H107.943L108.103 12.49H108.763L109.003 11.12H110.153L109.913 12.49H111.243L111.083 13.42H109.743L109.203 16.47ZM113.004 11.76C112.824 11.76 112.677 11.7033 112.564 11.59C112.45 11.4767 112.394 11.3333 112.394 11.16C112.394 10.9267 112.48 10.7267 112.654 10.56C112.834 10.3867 113.037 10.3 113.264 10.3C113.444 10.3 113.587 10.3567 113.694 10.47C113.807 10.5833 113.864 10.7267 113.864 10.9C113.864 11.1333 113.777 11.3367 113.604 11.51C113.43 11.6767 113.23 11.76 113.004 11.76ZM113.434 12.49L112.464 18H111.324L112.294 12.49H113.434ZM115.56 16.47C115.547 16.5633 115.54 16.6233 115.54 16.65C115.54 16.79 115.584 16.8933 115.67 16.96C115.757 17.02 115.9 17.05 116.1 17.05H116.8L116.63 18H115.73C115.29 18 114.954 17.9133 114.72 17.74C114.487 17.56 114.37 17.2767 114.37 16.89C114.37 16.7433 114.384 16.6033 114.41 16.47L114.95 13.42H114.3L114.46 12.49H115.12L115.36 11.12H116.51L116.27 12.49H117.6L117.44 13.42H116.1L115.56 16.47ZM120.131 10.6L118.821 18H117.681L118.991 10.6H120.131ZM123.678 12.4C124.365 12.4 124.911 12.5933 125.318 12.98C125.731 13.3667 125.938 13.8867 125.938 14.54C125.938 14.6933 125.921 14.8767 125.888 15.09C125.861 15.2367 125.815 15.4167 125.748 15.63H121.538C121.531 15.6767 121.528 15.7467 121.528 15.84C121.528 16.2333 121.648 16.5467 121.888 16.78C122.135 17.0133 122.455 17.13 122.848 17.13C123.468 17.13 123.945 16.8733 124.278 16.36H125.508C125.255 16.8667 124.881 17.2833 124.388 17.61C123.895 17.93 123.325 18.09 122.678 18.09C122.218 18.09 121.815 18 121.468 17.82C121.121 17.64 120.851 17.3833 120.658 17.05C120.465 16.71 120.368 16.3133 120.368 15.86C120.368 15.6667 120.388 15.46 120.428 15.24C120.528 14.6733 120.731 14.1767 121.038 13.75C121.345 13.3167 121.725 12.9833 122.178 12.75C122.638 12.5167 123.138 12.4 123.678 12.4ZM124.748 14.81C124.761 14.69 124.768 14.6033 124.768 14.55C124.768 14.1833 124.645 13.8933 124.398 13.68C124.158 13.4667 123.845 13.36 123.458 13.36C123.051 13.36 122.685 13.49 122.358 13.75C122.031 14.01 121.808 14.3633 121.688 14.81H124.748ZM126.94 18.07C126.76 18.07 126.613 18.0133 126.5 17.9C126.386 17.7867 126.33 17.6433 126.33 17.47C126.33 17.2367 126.416 17.0367 126.59 16.87C126.77 16.6967 126.973 16.61 127.2 16.61C127.38 16.61 127.523 16.6667 127.63 16.78C127.743 16.8933 127.8 17.0367 127.8 17.21C127.8 17.4433 127.713 17.6467 127.54 17.82C127.366 17.9867 127.166 18.07 126.94 18.07ZM130.502 16.47C130.489 16.5633 130.482 16.6233 130.482 16.65C130.482 16.79 130.525 16.8933 130.612 16.96C130.699 17.02 130.842 17.05 131.042 17.05H131.742L131.572 18H130.672C130.232 18 129.895 17.9133 129.662 17.74C129.429 17.56 129.312 17.2767 129.312 16.89C129.312 16.7433 129.325 16.6033 129.352 16.47L129.892 13.42H129.242L129.402 12.49H130.062L130.302 11.12H131.452L131.212 12.49H132.542L132.382 13.42H131.042L130.502 16.47ZM135.483 15.2L136.763 18H135.473L134.613 16.13L133.163 18H131.973L134.233 15.29L132.943 12.49H134.233L135.093 14.36L136.543 12.49H137.733L135.483 15.2ZM139.213 16.47C139.199 16.5633 139.193 16.6233 139.193 16.65C139.193 16.79 139.236 16.8933 139.323 16.96C139.409 17.02 139.553 17.05 139.753 17.05H140.453L140.283 18H139.383C138.943 18 138.606 17.9133 138.373 17.74C138.139 17.56 138.023 17.2767 138.023 16.89C138.023 16.7433 138.036 16.6033 138.063 16.47L138.603 13.42H137.953L138.113 12.49H138.773L139.013 11.12H140.163L139.923 12.49H141.253L141.093 13.42H139.753L139.213 16.47ZM148.102 12.4C148.682 12.4 149.142 12.5567 149.482 12.87C149.828 13.1767 150.002 13.62 150.002 14.2C150.002 14.3467 149.985 14.53 149.952 14.75L149.372 18H148.242L148.792 14.92C148.818 14.7333 148.832 14.6 148.832 14.52C148.832 14.1533 148.728 13.8733 148.522 13.68C148.322 13.4867 148.042 13.39 147.682 13.39C147.248 13.39 146.882 13.5233 146.582 13.79C146.288 14.05 146.102 14.4267 146.022 14.92V14.89L145.472 18H144.332L145.302 12.49H146.442L146.332 13.13C146.558 12.9033 146.825 12.7267 147.132 12.6C147.445 12.4667 147.768 12.4 148.102 12.4ZM154.186 12.4C154.872 12.4 155.419 12.5933 155.826 12.98C156.239 13.3667 156.446 13.8867 156.446 14.54C156.446 14.6933 156.429 14.8767 156.396 15.09C156.369 15.2367 156.322 15.4167 156.256 15.63H152.046C152.039 15.6767 152.036 15.7467 152.036 15.84C152.036 16.2333 152.156 16.5467 152.396 16.78C152.642 17.0133 152.962 17.13 153.356 17.13C153.976 17.13 154.452 16.8733 154.786 16.36H156.016C155.762 16.8667 155.389 17.2833 154.896 17.61C154.402 17.93 153.832 18.09 153.186 18.09C152.726 18.09 152.322 18 151.976 17.82C151.629 17.64 151.359 17.3833 151.166 17.05C150.972 16.71 150.876 16.3133 150.876 15.86C150.876 15.6667 150.896 15.46 150.936 15.24C151.036 14.6733 151.239 14.1767 151.546 13.75C151.852 13.3167 152.232 12.9833 152.686 12.75C153.146 12.5167 153.646 12.4 154.186 12.4ZM155.256 14.81C155.269 14.69 155.276 14.6033 155.276 14.55C155.276 14.1833 155.152 13.8933 154.906 13.68C154.666 13.4667 154.352 13.36 153.966 13.36C153.559 13.36 153.192 13.49 152.866 13.75C152.539 14.01 152.316 14.3633 152.196 14.81H155.256ZM165.368 12.49L162.688 18H161.488L161.108 13.93L159.268 18H158.068L157.318 12.49H158.478L158.858 16.92L160.798 12.49H161.988L162.338 16.9L164.248 12.49H165.368ZM169.848 16.47C169.834 16.5633 169.828 16.6233 169.828 16.65C169.828 16.79 169.871 16.8933 169.958 16.96C170.044 17.02 170.188 17.05 170.388 17.05H171.088L170.918 18H170.018C169.578 18 169.241 17.9133 169.008 17.74C168.774 17.56 168.658 17.2767 168.658 16.89C168.658 16.7433 168.671 16.6033 168.698 16.47L169.238 13.42H168.588L168.748 12.49H169.408L169.648 11.12H170.798L170.558 12.49H171.888L171.728 13.42H170.388L169.848 16.47ZM173.648 11.76C173.468 11.76 173.322 11.7033 173.208 11.59C173.095 11.4767 173.038 11.3333 173.038 11.16C173.038 10.9267 173.125 10.7267 173.298 10.56C173.478 10.3867 173.682 10.3 173.908 10.3C174.088 10.3 174.232 10.3567 174.338 10.47C174.452 10.5833 174.508 10.7267 174.508 10.9C174.508 11.1333 174.422 11.3367 174.248 11.51C174.075 11.6767 173.875 11.76 173.648 11.76ZM174.078 12.49L173.108 18H171.968L172.938 12.49H174.078ZM176.205 16.47C176.192 16.5633 176.185 16.6233 176.185 16.65C176.185 16.79 176.228 16.8933 176.315 16.96C176.402 17.02 176.545 17.05 176.745 17.05H177.445L177.275 18H176.375C175.935 18 175.598 17.9133 175.365 17.74C175.132 17.56 175.015 17.2767 175.015 16.89C175.015 16.7433 175.028 16.6033 175.055 16.47L175.595 13.42H174.945L175.105 12.49H175.765L176.005 11.12H177.155L176.915 12.49H178.245L178.085 13.42H176.745L176.205 16.47ZM180.776 10.6L179.466 18H178.326L179.636 10.6H180.776ZM184.322 12.4C185.009 12.4 185.556 12.5933 185.962 12.98C186.376 13.3667 186.582 13.8867 186.582 14.54C186.582 14.6933 186.566 14.8767 186.532 15.09C186.506 15.2367 186.459 15.4167 186.392 15.63H182.182C182.176 15.6767 182.172 15.7467 182.172 15.84C182.172 16.2333 182.292 16.5467 182.532 16.78C182.779 17.0133 183.099 17.13 183.492 17.13C184.112 17.13 184.589 16.8733 184.922 16.36H186.152C185.899 16.8667 185.526 17.2833 185.032 17.61C184.539 17.93 183.969 18.09 183.322 18.09C182.862 18.09 182.459 18 182.112 17.82C181.766 17.64 181.496 17.3833 181.302 17.05C181.109 16.71 181.012 16.3133 181.012 15.86C181.012 15.6667 181.032 15.46 181.072 15.24C181.172 14.6733 181.376 14.1767 181.682 13.75C181.989 13.3167 182.369 12.9833 182.822 12.75C183.282 12.5167 183.782 12.4 184.322 12.4ZM185.392 14.81C185.406 14.69 185.412 14.6033 185.412 14.55C185.412 14.1833 185.289 13.8933 185.042 13.68C184.802 13.4667 184.489 13.36 184.102 13.36C183.696 13.36 183.329 13.49 183.002 13.75C182.676 14.01 182.452 14.3633 182.332 14.81H185.392ZM187.584 18.07C187.404 18.07 187.258 18.0133 187.144 17.9C187.031 17.7867 186.974 17.6433 186.974 17.47C186.974 17.2367 187.061 17.0367 187.234 16.87C187.414 16.6967 187.618 16.61 187.844 16.61C188.024 16.61 188.168 16.6667 188.274 16.78C188.388 16.8933 188.444 17.0367 188.444 17.21C188.444 17.4433 188.358 17.6467 188.184 17.82C188.011 17.9867 187.811 18.07 187.584 18.07ZM191.146 16.47C191.133 16.5633 191.126 16.6233 191.126 16.65C191.126 16.79 191.17 16.8933 191.256 16.96C191.343 17.02 191.486 17.05 191.686 17.05H192.386L192.216 18H191.316C190.876 18 190.54 17.9133 190.306 17.74C190.073 17.56 189.956 17.2767 189.956 16.89C189.956 16.7433 189.97 16.6033 189.996 16.47L190.536 13.42H189.886L190.046 12.49H190.706L190.946 11.12H192.096L191.856 12.49H193.186L193.026 13.42H191.686L191.146 16.47ZM196.127 15.2L197.407 18H196.117L195.257 16.13L193.807 18H192.617L194.877 15.29L193.587 12.49H194.877L195.737 14.36L197.187 12.49H198.377L196.127 15.2ZM199.857 16.47C199.844 16.5633 199.837 16.6233 199.837 16.65C199.837 16.79 199.881 16.8933 199.967 16.96C200.054 17.02 200.197 17.05 200.397 17.05H201.097L200.927 18H200.027C199.587 18 199.251 17.9133 199.017 17.74C198.784 17.56 198.667 17.2767 198.667 16.89C198.667 16.7433 198.681 16.6033 198.707 16.47L199.247 13.42H198.597L198.757 12.49H199.417L199.657 11.12H200.807L200.567 12.49H201.897L201.737 13.42H200.397L199.857 16.47Z" fill="black" fill-opacity="0.5"/>
</svg>
