<svg width="480" height="360" viewBox="0 0 480 360" fill="none" xmlns="http://www.w3.org/2000/svg">
<path d="M439 331C439 330.448 439.448 330 440 330V330C440.552 330 441 330.448 441 331V334H444C444.552 334 445 334.448 445 335V335C445 335.552 444.552 336 444 336H441C439.895 336 439 335.105 439 334V331Z" fill="black"/>
<path d="M446 326C445.448 326 445 325.552 445 325V325C445 324.448 445.448 324 446 324H449C450.105 324 451 324.895 451 326V329C451 329.552 450.552 330 450 330V330C449.448 330 449 329.552 449 329V326H446Z" fill="black"/>
<path d="M448.536 325.05L449.95 326.465L441.465 334.95L440.05 333.536L448.536 325.05Z" fill="black"/>
<rect x="17" y="22" width="10" height="10" rx="5" stroke="black" stroke-width="2"/>
<path d="M26 21C26 18.7909 27.7909 17 30 17H31C31.5523 17 32 17.4477 32 18V18C32 18.5523 31.5523 19 31 19H30C28.8954 19 28 19.8954 28 21V27H26V21Z" fill="black"/>
<rect x="20" y="25" width="4" height="4" rx="2" fill="black"/>
</svg>
