<svg width="480" height="360" viewBox="0 0 480 360" fill="none" xmlns="http://www.w3.org/2000/svg">
<path d="M0 340H15V340C12.2386 340 10 342.239 10 345V345C10 347.761 12.2386 350 15 350V350H0V340Z" fill="white"/>
<path d="M15.24 327.05V327.98H13.39V334H12.25V327.98H10.39V327.05H15.24ZM16.9745 327.76C16.7679 327.76 16.5945 327.69 16.4545 327.55C16.3145 327.41 16.2445 327.237 16.2445 327.03C16.2445 326.823 16.3145 326.65 16.4545 326.51C16.5945 326.37 16.7679 326.3 16.9745 326.3C17.1745 326.3 17.3445 326.37 17.4845 326.51C17.6245 326.65 17.6945 326.823 17.6945 327.03C17.6945 327.237 17.6245 327.41 17.4845 327.55C17.3445 327.69 17.1745 327.76 16.9745 327.76ZM17.5345 328.49V334H16.3945V328.49H17.5345ZM25.7013 328.4C26.1346 328.4 26.5213 328.49 26.8613 328.67C27.2079 328.85 27.4779 329.117 27.6713 329.47C27.8713 329.823 27.9713 330.25 27.9713 330.75V334H26.8413V330.92C26.8413 330.427 26.7179 330.05 26.4713 329.79C26.2246 329.523 25.8879 329.39 25.4613 329.39C25.0346 329.39 24.6946 329.523 24.4413 329.79C24.1946 330.05 24.0713 330.427 24.0713 330.92V334H22.9413V330.92C22.9413 330.427 22.8179 330.05 22.5713 329.79C22.3246 329.523 21.9879 329.39 21.5613 329.39C21.1346 329.39 20.7946 329.523 20.5413 329.79C20.2946 330.05 20.1713 330.427 20.1713 330.92V334H19.0313V328.49H20.1713V329.12C20.3579 328.893 20.5946 328.717 20.8813 328.59C21.1679 328.463 21.4746 328.4 21.8013 328.4C22.2413 328.4 22.6346 328.493 22.9813 328.68C23.3279 328.867 23.5946 329.137 23.7813 329.49C23.9479 329.157 24.2079 328.893 24.5613 328.7C24.9146 328.5 25.2946 328.4 25.7013 328.4ZM34.4719 331.11C34.4719 331.317 34.4585 331.503 34.4319 331.67H30.2219C30.2552 332.11 30.4185 332.463 30.7119 332.73C31.0052 332.997 31.3652 333.13 31.7919 333.13C32.4052 333.13 32.8385 332.873 33.0919 332.36H34.3219C34.1552 332.867 33.8519 333.283 33.4119 333.61C32.9785 333.93 32.4385 334.09 31.7919 334.09C31.2652 334.09 30.7919 333.973 30.3719 333.74C29.9585 333.5 29.6319 333.167 29.3919 332.74C29.1585 332.307 29.0419 331.807 29.0419 331.24C29.0419 330.673 29.1552 330.177 29.3819 329.75C29.6152 329.317 29.9385 328.983 30.3519 328.75C30.7719 328.517 31.2519 328.4 31.7919 328.4C32.3119 328.4 32.7752 328.513 33.1819 328.74C33.5885 328.967 33.9052 329.287 34.1319 329.7C34.3585 330.107 34.4719 330.577 34.4719 331.11ZM33.2819 330.75C33.2752 330.33 33.1252 329.993 32.8319 329.74C32.5385 329.487 32.1752 329.36 31.7419 329.36C31.3485 329.36 31.0119 329.487 30.7319 329.74C30.4519 329.987 30.2852 330.323 30.2319 330.75H33.2819ZM39.3314 326.6V334H38.1914V326.6H39.3314ZM45.8781 331.11C45.8781 331.317 45.8648 331.503 45.8381 331.67H41.6281C41.6615 332.11 41.8248 332.463 42.1181 332.73C42.4115 332.997 42.7715 333.13 43.1981 333.13C43.8115 333.13 44.2448 332.873 44.4981 332.36H45.7281C45.5615 332.867 45.2581 333.283 44.8181 333.61C44.3848 333.93 43.8448 334.09 43.1981 334.09C42.6715 334.09 42.1981 333.973 41.7781 333.74C41.3648 333.5 41.0381 333.167 40.7981 332.74C40.5648 332.307 40.4481 331.807 40.4481 331.24C40.4481 330.673 40.5615 330.177 40.7881 329.75C41.0215 329.317 41.3448 328.983 41.7581 328.75C42.1781 328.517 42.6581 328.4 43.1981 328.4C43.7181 328.4 44.1815 328.513 44.5881 328.74C44.9948 328.967 45.3115 329.287 45.5381 329.7C45.7648 330.107 45.8781 330.577 45.8781 331.11ZM44.6881 330.75C44.6815 330.33 44.5315 329.993 44.2381 329.74C43.9448 329.487 43.5815 329.36 43.1481 329.36C42.7548 329.36 42.4181 329.487 42.1381 329.74C41.8581 329.987 41.6915 330.323 41.6381 330.75H44.6881ZM49.31 329.42H48.29V334H47.14V329.42H46.49V328.49H47.14V328.1C47.14 327.467 47.3067 327.007 47.64 326.72C47.98 326.427 48.51 326.28 49.23 326.28V327.23C48.8833 327.23 48.64 327.297 48.5 327.43C48.36 327.557 48.29 327.78 48.29 328.1V328.49H49.31V329.42ZM51.6503 329.42V332.47C51.6503 332.677 51.697 332.827 51.7903 332.92C51.8903 333.007 52.057 333.05 52.2903 333.05H52.9903V334H52.0903C51.577 334 51.1836 333.88 50.9103 333.64C50.637 333.4 50.5003 333.01 50.5003 332.47V329.42H49.8503V328.49H50.5003V327.12H51.6503V328.49H52.9903V329.42H51.6503Z" fill="black"/>
<path d="M213.229 19.88L209.549 26.968V31H207.725V26.968L204.029 19.88H206.061L208.637 25.336L211.213 19.88H213.229ZM218.501 31.144C217.669 31.144 216.917 30.9573 216.245 30.584C215.573 30.2 215.045 29.6667 214.661 28.984C214.277 28.2907 214.085 27.4907 214.085 26.584C214.085 25.688 214.282 24.8933 214.677 24.2C215.071 23.5067 215.61 22.9733 216.293 22.6C216.975 22.2267 217.738 22.04 218.581 22.04C219.423 22.04 220.186 22.2267 220.869 22.6C221.551 22.9733 222.09 23.5067 222.485 24.2C222.879 24.8933 223.077 25.688 223.077 26.584C223.077 27.48 222.874 28.2747 222.469 28.968C222.063 29.6613 221.509 30.2 220.805 30.584C220.111 30.9573 219.343 31.144 218.501 31.144ZM218.501 29.56C218.97 29.56 219.407 29.448 219.813 29.224C220.229 29 220.565 28.664 220.821 28.216C221.077 27.768 221.205 27.224 221.205 26.584C221.205 25.944 221.082 25.4053 220.837 24.968C220.591 24.52 220.266 24.184 219.861 23.96C219.455 23.736 219.018 23.624 218.549 23.624C218.079 23.624 217.642 23.736 217.237 23.96C216.842 24.184 216.527 24.52 216.293 24.968C216.058 25.4053 215.941 25.944 215.941 26.584C215.941 27.5333 216.181 28.2693 216.661 28.792C217.151 29.304 217.765 29.56 218.501 29.56ZM232.864 22.184V31H231.04V29.96C230.752 30.3227 230.373 30.6107 229.904 30.824C229.445 31.0267 228.954 31.128 228.432 31.128C227.738 31.128 227.114 30.984 226.56 30.696C226.016 30.408 225.584 29.9813 225.264 29.416C224.954 28.8507 224.8 28.168 224.8 27.368V22.184H226.608V27.096C226.608 27.8853 226.805 28.4933 227.2 28.92C227.594 29.336 228.133 29.544 228.816 29.544C229.498 29.544 230.037 29.336 230.432 28.92C230.837 28.4933 231.04 27.8853 231.04 27.096V22.184H232.864ZM241.251 19.16V31H239.427V19.16H241.251ZM247.469 31.144C246.637 31.144 245.885 30.9573 245.213 30.584C244.541 30.2 244.013 29.6667 243.629 28.984C243.245 28.2907 243.053 27.4907 243.053 26.584C243.053 25.688 243.251 24.8933 243.645 24.2C244.04 23.5067 244.579 22.9733 245.261 22.6C245.944 22.2267 246.707 22.04 247.549 22.04C248.392 22.04 249.155 22.2267 249.837 22.6C250.52 22.9733 251.059 23.5067 251.453 24.2C251.848 24.8933 252.045 25.688 252.045 26.584C252.045 27.48 251.843 28.2747 251.437 28.968C251.032 29.6613 250.477 30.2 249.773 30.584C249.08 30.9573 248.312 31.144 247.469 31.144ZM247.469 29.56C247.939 29.56 248.376 29.448 248.781 29.224C249.197 29 249.533 28.664 249.789 28.216C250.045 27.768 250.173 27.224 250.173 26.584C250.173 25.944 250.051 25.4053 249.805 24.968C249.56 24.52 249.235 24.184 248.829 23.96C248.424 23.736 247.987 23.624 247.517 23.624C247.048 23.624 246.611 23.736 246.205 23.96C245.811 24.184 245.496 24.52 245.261 24.968C245.027 25.4053 244.909 25.944 244.909 26.584C244.909 27.5333 245.149 28.2693 245.629 28.792C246.12 29.304 246.733 29.56 247.469 29.56ZM257.048 31.144C256.355 31.144 255.731 31.0213 255.176 30.776C254.632 30.52 254.2 30.1787 253.88 29.752C253.56 29.3147 253.39 28.8293 253.368 28.296H255.256C255.288 28.6693 255.464 28.984 255.784 29.24C256.115 29.4853 256.526 29.608 257.016 29.608C257.528 29.608 257.923 29.512 258.2 29.32C258.488 29.1173 258.632 28.8613 258.632 28.552C258.632 28.2213 258.472 27.976 258.152 27.816C257.843 27.656 257.347 27.48 256.664 27.288C256.003 27.1067 255.464 26.9307 255.048 26.76C254.632 26.5893 254.27 26.328 253.96 25.976C253.662 25.624 253.512 25.16 253.512 24.584C253.512 24.1147 253.651 23.688 253.928 23.304C254.206 22.9093 254.6 22.6 255.112 22.376C255.635 22.152 256.232 22.04 256.904 22.04C257.907 22.04 258.712 22.296 259.32 22.808C259.939 23.3093 260.27 23.9973 260.312 24.872H258.488C258.456 24.4773 258.296 24.1627 258.008 23.928C257.72 23.6933 257.331 23.576 256.84 23.576C256.36 23.576 255.992 23.6667 255.736 23.848C255.48 24.0293 255.352 24.2693 255.352 24.568C255.352 24.8027 255.438 25 255.608 25.16C255.779 25.32 255.987 25.448 256.232 25.544C256.478 25.6293 256.84 25.7413 257.32 25.88C257.96 26.0507 258.483 26.2267 258.888 26.408C259.304 26.5787 259.662 26.8347 259.96 27.176C260.259 27.5173 260.414 27.9707 260.424 28.536C260.424 29.0373 260.286 29.4853 260.008 29.88C259.731 30.2747 259.336 30.584 258.824 30.808C258.323 31.032 257.731 31.144 257.048 31.144ZM270.475 26.376C270.475 26.7067 270.454 27.0053 270.411 27.272H263.675C263.729 27.976 263.99 28.5413 264.459 28.968C264.929 29.3947 265.505 29.608 266.187 29.608C267.169 29.608 267.862 29.1973 268.267 28.376H270.235C269.969 29.1867 269.483 29.8533 268.779 30.376C268.086 30.888 267.222 31.144 266.187 31.144C265.345 31.144 264.587 30.9573 263.915 30.584C263.254 30.2 262.731 29.6667 262.347 28.984C261.974 28.2907 261.787 27.4907 261.787 26.584C261.787 25.6773 261.969 24.8827 262.331 24.2C262.705 23.5067 263.222 22.9733 263.883 22.6C264.555 22.2267 265.323 22.04 266.187 22.04C267.019 22.04 267.761 22.2213 268.411 22.584C269.062 22.9467 269.569 23.4587 269.931 24.12C270.294 24.7707 270.475 25.5227 270.475 26.376ZM268.571 25.8C268.561 25.128 268.321 24.5893 267.851 24.184C267.382 23.7787 266.801 23.576 266.107 23.576C265.478 23.576 264.939 23.7787 264.491 24.184C264.043 24.5787 263.777 25.1173 263.691 25.8H268.571ZM274.558 19.88L274.35 27.64H272.83L272.622 19.88H274.558ZM273.646 31.112C273.316 31.112 273.038 31 272.814 30.776C272.59 30.552 272.478 30.2747 272.478 29.944C272.478 29.6133 272.59 29.336 272.814 29.112C273.038 28.888 273.316 28.776 273.646 28.776C273.966 28.776 274.238 28.888 274.462 29.112C274.686 29.336 274.798 29.6133 274.798 29.944C274.798 30.2747 274.686 30.552 274.462 30.776C274.238 31 273.966 31.112 273.646 31.112Z" fill="black"/>
<rect opacity="0.1" x="70" y="50" width="340" height="260" rx="10" fill="black"/>
</svg>
