<svg width="480" height="360" viewBox="0 0 480 360" fill="none" xmlns="http://www.w3.org/2000/svg">
<path d="M0 240C0 228.954 8.95431 220 20 220H460C471.046 220 480 228.954 480 240V360H0V240Z" fill="#191919"/>
<path d="M271 330L267.414 333.586C266.633 334.367 266.633 335.633 267.414 336.414L271 340" stroke="white" stroke-width="2" stroke-linecap="round"/>
<rect x="281.536" y="332.879" width="8" height="2" rx="1" transform="rotate(135 281.536 332.879)" fill="white"/>
<rect x="280.121" y="338.536" width="8" height="2" rx="1" transform="rotate(-135 280.121 338.536)" fill="white"/>
<path d="M413.989 302.184V311H412.165V309.96C411.877 310.323 411.498 310.611 411.029 310.824C410.57 311.027 410.079 311.128 409.557 311.128C408.863 311.128 408.239 310.984 407.685 310.696C407.141 310.408 406.709 309.981 406.389 309.416C406.079 308.851 405.925 308.168 405.925 307.368V302.184H407.733V307.096C407.733 307.885 407.93 308.493 408.325 308.92C408.719 309.336 409.258 309.544 409.941 309.544C410.623 309.544 411.162 309.336 411.557 308.92C411.962 308.493 412.165 307.885 412.165 307.096V302.184H413.989ZM408.629 301.08C408.362 301.08 408.133 300.989 407.941 300.808C407.759 300.616 407.669 300.387 407.669 300.12C407.669 299.853 407.759 299.629 407.941 299.448C408.133 299.256 408.362 299.16 408.629 299.16C408.895 299.16 409.119 299.256 409.301 299.448C409.493 299.629 409.589 299.853 409.589 300.12C409.589 300.387 409.493 300.616 409.301 300.808C409.119 300.989 408.895 301.08 408.629 301.08ZM411.381 301.08C411.114 301.08 410.885 300.989 410.693 300.808C410.511 300.616 410.421 300.387 410.421 300.12C410.421 299.853 410.511 299.629 410.693 299.448C410.885 299.256 411.114 299.16 411.381 299.16C411.647 299.16 411.871 299.256 412.053 299.448C412.245 299.629 412.341 299.853 412.341 300.12C412.341 300.387 412.245 300.616 412.053 300.808C411.871 300.989 411.647 301.08 411.381 301.08Z" fill="white"/>
<path d="M410.915 332.184V341H409.091V332.184H410.915ZM410.003 330.184L407.715 331.56V330.136L410.003 328.808L412.291 330.136V331.56L410.003 330.184Z" fill="white"/>
<path d="M443.922 311.144C443.09 311.144 442.338 310.957 441.666 310.584C440.994 310.2 440.466 309.667 440.082 308.984C439.698 308.291 439.506 307.491 439.506 306.584C439.506 305.688 439.704 304.893 440.098 304.2C440.493 303.507 441.032 302.973 441.714 302.6C442.397 302.227 443.16 302.04 444.002 302.04C444.845 302.04 445.608 302.227 446.29 302.6C446.973 302.973 447.512 303.507 447.906 304.2C448.301 304.893 448.498 305.688 448.498 306.584C448.498 307.48 448.296 308.275 447.89 308.968C447.485 309.661 446.93 310.2 446.226 310.584C445.533 310.957 444.765 311.144 443.922 311.144ZM443.922 309.56C444.392 309.56 444.829 309.448 445.234 309.224C445.65 309 445.986 308.664 446.242 308.216C446.498 307.768 446.626 307.224 446.626 306.584C446.626 305.944 446.504 305.405 446.258 304.968C446.013 304.52 445.688 304.184 445.282 303.96C444.877 303.736 444.44 303.624 443.97 303.624C443.501 303.624 443.064 303.736 442.658 303.96C442.264 304.184 441.949 304.52 441.714 304.968C441.48 305.405 441.362 305.944 441.362 306.584C441.362 307.533 441.602 308.269 442.082 308.792C442.573 309.304 443.186 309.56 443.922 309.56ZM442.626 300.936C442.36 300.936 442.13 300.845 441.938 300.664C441.757 300.472 441.666 300.243 441.666 299.976C441.666 299.709 441.757 299.485 441.938 299.304C442.13 299.112 442.36 299.016 442.626 299.016C442.893 299.016 443.117 299.112 443.298 299.304C443.49 299.485 443.586 299.709 443.586 299.976C443.586 300.243 443.49 300.472 443.298 300.664C443.117 300.845 442.893 300.936 442.626 300.936ZM445.378 300.936C445.112 300.936 444.882 300.845 444.69 300.664C444.509 300.472 444.418 300.243 444.418 299.976C444.418 299.709 444.509 299.485 444.69 299.304C444.882 299.112 445.112 299.016 445.378 299.016C445.645 299.016 445.869 299.112 446.05 299.304C446.242 299.485 446.338 299.709 446.338 299.976C446.338 300.243 446.242 300.472 446.05 300.664C445.869 300.845 445.645 300.936 445.378 300.936Z" fill="white"/>
<path d="M444.915 332.184V341H443.091V332.184H444.915ZM442.627 331.08C442.36 331.08 442.131 330.989 441.939 330.808C441.757 330.616 441.667 330.387 441.667 330.12C441.667 329.853 441.757 329.629 441.939 329.448C442.131 329.256 442.36 329.16 442.627 329.16C442.893 329.16 443.117 329.256 443.299 329.448C443.491 329.629 443.587 329.853 443.587 330.12C443.587 330.387 443.491 330.616 443.299 330.808C443.117 330.989 442.893 331.08 442.627 331.08ZM445.379 331.08C445.112 331.08 444.883 330.989 444.691 330.808C444.509 330.616 444.419 330.387 444.419 330.12C444.419 329.853 444.509 329.629 444.691 329.448C444.883 329.256 445.112 329.16 445.379 329.16C445.645 329.16 445.869 329.256 446.051 329.448C446.243 329.629 446.339 329.853 446.339 330.12C446.339 330.387 446.243 330.616 446.051 330.808C445.869 330.989 445.645 331.08 445.379 331.08Z" fill="white"/>
<path d="M371.17 276.552C371.17 275.667 371.351 274.883 371.714 274.2C372.087 273.517 372.589 272.989 373.218 272.616C373.858 272.232 374.562 272.04 375.33 272.04C376.023 272.04 376.626 272.179 377.138 272.456C377.661 272.723 378.077 273.059 378.386 273.464V272.184H380.226V281H378.386V279.688C378.077 280.104 377.655 280.451 377.122 280.728C376.589 281.005 375.981 281.144 375.298 281.144C374.541 281.144 373.847 280.952 373.218 280.568C372.589 280.173 372.087 279.629 371.714 278.936C371.351 278.232 371.17 277.437 371.17 276.552ZM378.386 276.584C378.386 275.976 378.258 275.448 378.002 275C377.757 274.552 377.431 274.211 377.026 273.976C376.621 273.741 376.183 273.624 375.714 273.624C375.245 273.624 374.807 273.741 374.402 273.976C373.997 274.2 373.666 274.536 373.41 274.984C373.165 275.421 373.042 275.944 373.042 276.552C373.042 277.16 373.165 277.693 373.41 278.152C373.666 278.611 373.997 278.963 374.402 279.208C374.818 279.443 375.255 279.56 375.714 279.56C376.183 279.56 376.621 279.443 377.026 279.208C377.431 278.973 377.757 278.632 378.002 278.184C378.258 277.725 378.386 277.192 378.386 276.584ZM376.002 270.184L373.714 271.56V270.136L376.002 268.808L378.29 270.136V271.56L376.002 270.184Z" fill="white"/>
<path d="M405.17 276.552C405.17 275.667 405.351 274.883 405.714 274.2C406.087 273.517 406.589 272.989 407.218 272.616C407.858 272.232 408.562 272.04 409.33 272.04C410.023 272.04 410.626 272.179 411.138 272.456C411.661 272.723 412.077 273.059 412.386 273.464V272.184H414.226V281H412.386V279.688C412.077 280.104 411.655 280.451 411.122 280.728C410.589 281.005 409.981 281.144 409.298 281.144C408.541 281.144 407.847 280.952 407.218 280.568C406.589 280.173 406.087 279.629 405.714 278.936C405.351 278.232 405.17 277.437 405.17 276.552ZM412.386 276.584C412.386 275.976 412.258 275.448 412.002 275C411.757 274.552 411.431 274.211 411.026 273.976C410.621 273.741 410.183 273.624 409.714 273.624C409.245 273.624 408.807 273.741 408.402 273.976C407.997 274.2 407.666 274.536 407.41 274.984C407.165 275.421 407.042 275.944 407.042 276.552C407.042 277.16 407.165 277.693 407.41 278.152C407.666 278.611 407.997 278.963 408.402 279.208C408.818 279.443 409.255 279.56 409.714 279.56C410.183 279.56 410.621 279.443 411.026 279.208C411.431 278.973 411.757 278.632 412.002 278.184C412.258 277.725 412.386 277.192 412.386 276.584ZM408.626 271.08C408.359 271.08 408.13 270.989 407.938 270.808C407.757 270.616 407.666 270.387 407.666 270.12C407.666 269.853 407.757 269.629 407.938 269.448C408.13 269.256 408.359 269.16 408.626 269.16C408.893 269.16 409.117 269.256 409.298 269.448C409.49 269.629 409.586 269.853 409.586 270.12C409.586 270.387 409.49 270.616 409.298 270.808C409.117 270.989 408.893 271.08 408.626 271.08ZM411.378 271.08C411.111 271.08 410.882 270.989 410.69 270.808C410.509 270.616 410.418 270.387 410.418 270.12C410.418 269.853 410.509 269.629 410.69 269.448C410.882 269.256 411.111 269.16 411.378 269.16C411.645 269.16 411.869 269.256 412.05 269.448C412.242 269.629 412.338 269.853 412.338 270.12C412.338 270.387 412.242 270.616 412.05 270.808C411.869 270.989 411.645 271.08 411.378 271.08Z" fill="white"/>
<path d="M443.922 281.144C443.09 281.144 442.338 280.957 441.666 280.584C440.994 280.2 440.466 279.667 440.082 278.984C439.698 278.291 439.506 277.491 439.506 276.584C439.506 275.688 439.704 274.893 440.098 274.2C440.493 273.507 441.032 272.973 441.714 272.6C442.397 272.227 443.16 272.04 444.002 272.04C444.845 272.04 445.608 272.227 446.29 272.6C446.973 272.973 447.512 273.507 447.906 274.2C448.301 274.893 448.498 275.688 448.498 276.584C448.498 277.48 448.296 278.275 447.89 278.968C447.485 279.661 446.93 280.2 446.226 280.584C445.533 280.957 444.765 281.144 443.922 281.144ZM443.922 279.56C444.392 279.56 444.829 279.448 445.234 279.224C445.65 279 445.986 278.664 446.242 278.216C446.498 277.768 446.626 277.224 446.626 276.584C446.626 275.944 446.504 275.405 446.258 274.968C446.013 274.52 445.688 274.184 445.282 273.96C444.877 273.736 444.44 273.624 443.97 273.624C443.501 273.624 443.064 273.736 442.658 273.96C442.264 274.184 441.949 274.52 441.714 274.968C441.48 275.405 441.362 275.944 441.362 276.584C441.362 277.533 441.602 278.269 442.082 278.792C442.573 279.304 443.186 279.56 443.922 279.56ZM444.002 270.04L441.714 271.416V269.992L444.002 268.664L446.29 269.992V271.416L444.002 270.04Z" fill="white"/>
<path d="M380.343 246.376C380.343 246.707 380.321 247.005 380.279 247.272H373.543C373.596 247.976 373.857 248.541 374.327 248.968C374.796 249.395 375.372 249.608 376.055 249.608C377.036 249.608 377.729 249.197 378.135 248.376H380.102C379.836 249.187 379.351 249.853 378.647 250.376C377.953 250.888 377.089 251.144 376.055 251.144C375.212 251.144 374.455 250.957 373.783 250.584C373.121 250.2 372.599 249.667 372.215 248.984C371.841 248.291 371.655 247.491 371.655 246.584C371.655 245.677 371.836 244.883 372.199 244.2C372.572 243.507 373.089 242.973 373.751 242.6C374.423 242.227 375.191 242.04 376.055 242.04C376.887 242.04 377.628 242.221 378.279 242.584C378.929 242.947 379.436 243.459 379.799 244.12C380.161 244.771 380.343 245.523 380.343 246.376ZM378.439 245.8C378.428 245.128 378.188 244.589 377.719 244.184C377.249 243.779 376.668 243.576 375.975 243.576C375.345 243.576 374.807 243.779 374.359 244.184C373.911 244.579 373.644 245.117 373.559 245.8H378.439ZM377.655 240.216V241.56L374.119 239.816V238.264L377.655 240.216Z" fill="white"/>
<path d="M414.343 246.376C414.343 246.707 414.321 247.005 414.279 247.272H407.543C407.596 247.976 407.857 248.541 408.327 248.968C408.796 249.395 409.372 249.608 410.055 249.608C411.036 249.608 411.729 249.197 412.135 248.376H414.102C413.836 249.187 413.351 249.853 412.647 250.376C411.953 250.888 411.089 251.144 410.055 251.144C409.212 251.144 408.455 250.957 407.783 250.584C407.121 250.2 406.599 249.667 406.215 248.984C405.841 248.291 405.655 247.491 405.655 246.584C405.655 245.677 405.836 244.883 406.199 244.2C406.572 243.507 407.089 242.973 407.751 242.6C408.423 242.227 409.191 242.04 410.055 242.04C410.887 242.04 411.628 242.221 412.279 242.584C412.929 242.947 413.436 243.459 413.799 244.12C414.161 244.771 414.343 245.523 414.343 246.376ZM412.439 245.8C412.428 245.128 412.188 244.589 411.719 244.184C411.249 243.779 410.668 243.576 409.975 243.576C409.345 243.576 408.807 243.779 408.359 244.184C407.911 244.579 407.644 245.117 407.559 245.8H412.439ZM410.007 240.184L407.719 241.56V240.136L410.007 238.808L412.295 240.136V241.56L410.007 240.184Z" fill="white"/>
<path d="M448.343 246.376C448.343 246.707 448.321 247.005 448.279 247.272H441.543C441.596 247.976 441.857 248.541 442.327 248.968C442.796 249.395 443.372 249.608 444.055 249.608C445.036 249.608 445.729 249.197 446.135 248.376H448.102C447.836 249.187 447.351 249.853 446.647 250.376C445.953 250.888 445.089 251.144 444.055 251.144C443.212 251.144 442.455 250.957 441.783 250.584C441.121 250.2 440.599 249.667 440.215 248.984C439.841 248.291 439.655 247.491 439.655 246.584C439.655 245.677 439.836 244.883 440.199 244.2C440.572 243.507 441.089 242.973 441.751 242.6C442.423 242.227 443.191 242.04 444.055 242.04C444.887 242.04 445.628 242.221 446.279 242.584C446.929 242.947 447.436 243.459 447.799 244.12C448.161 244.771 448.343 245.523 448.343 246.376ZM446.439 245.8C446.428 245.128 446.188 244.589 445.719 244.184C445.249 243.779 444.668 243.576 443.975 243.576C443.345 243.576 442.807 243.779 442.359 244.184C441.911 244.579 441.644 245.117 441.559 245.8H446.439ZM442.631 241.08C442.364 241.08 442.135 240.989 441.943 240.808C441.761 240.616 441.671 240.387 441.671 240.12C441.671 239.853 441.761 239.629 441.943 239.448C442.135 239.256 442.364 239.16 442.631 239.16C442.897 239.16 443.121 239.256 443.303 239.448C443.495 239.629 443.591 239.853 443.591 240.12C443.591 240.387 443.495 240.616 443.303 240.808C443.121 240.989 442.897 241.08 442.631 241.08ZM445.383 241.08C445.116 241.08 444.887 240.989 444.695 240.808C444.513 240.616 444.423 240.387 444.423 240.12C444.423 239.853 444.513 239.629 444.695 239.448C444.887 239.256 445.116 239.16 445.383 239.16C445.649 239.16 445.873 239.256 446.055 239.448C446.247 239.629 446.343 239.853 446.343 240.12C446.343 240.387 446.247 240.616 446.055 240.808C445.873 240.989 445.649 241.08 445.383 241.08Z" fill="white"/>
<path d="M376.115 339.608C377.171 339.608 377.87 339.144 378.211 338.216H380.179C379.944 339.027 379.523 339.693 378.915 340.216C378.318 340.728 377.566 341.027 376.659 341.112V341.768C377.278 341.768 377.779 341.912 378.163 342.2C378.547 342.499 378.739 342.915 378.739 343.448C378.739 343.981 378.547 344.403 378.163 344.712C377.779 345.032 377.294 345.192 376.707 345.192H374.595V344.04H376.339C376.638 344.04 376.862 343.997 377.011 343.912C377.16 343.827 377.235 343.672 377.235 343.448C377.235 343.224 377.16 343.069 377.011 342.984C376.862 342.899 376.638 342.856 376.339 342.856H375.459V341.096C374.734 341.011 374.094 340.771 373.539 340.376C372.984 339.971 372.552 339.448 372.243 338.808C371.944 338.157 371.795 337.416 371.795 336.584C371.795 335.677 371.976 334.883 372.339 334.2C372.712 333.507 373.224 332.973 373.875 332.6C374.526 332.227 375.272 332.04 376.115 332.04C377.182 332.04 378.062 332.296 378.755 332.808C379.459 333.309 379.934 334.029 380.179 334.968H378.211C378.051 334.531 377.795 334.189 377.443 333.944C377.091 333.699 376.648 333.576 376.115 333.576C375.368 333.576 374.771 333.843 374.323 334.376C373.886 334.899 373.667 335.635 373.667 336.584C373.667 337.533 373.886 338.275 374.323 338.808C374.771 339.341 375.368 339.608 376.115 339.608Z" fill="white"/>
<path d="M379.989 302.184V311H378.165V309.96C377.877 310.323 377.498 310.611 377.029 310.824C376.57 311.027 376.079 311.128 375.557 311.128C374.863 311.128 374.239 310.984 373.685 310.696C373.141 310.408 372.709 309.981 372.389 309.416C372.079 308.851 371.925 308.168 371.925 307.368V302.184H373.733V307.096C373.733 307.885 373.93 308.493 374.325 308.92C374.719 309.336 375.258 309.544 375.941 309.544C376.623 309.544 377.162 309.336 377.557 308.92C377.962 308.493 378.165 307.885 378.165 307.096V302.184H379.989ZM376.005 300.184L373.717 301.56V300.136L376.005 298.808L378.293 300.136V301.56L376.005 300.184Z" fill="white"/>
<path d="M32.9431 338.728H28.2871L27.4871 341H25.5831L29.5671 329.864H31.6791L35.6631 341H33.7431L32.9431 338.728ZM32.4311 337.24L30.6231 332.072L28.7991 337.24H32.4311ZM39.2193 333.496C39.5286 333.069 39.95 332.723 40.4833 332.456C41.0273 332.179 41.63 332.04 42.2913 332.04C43.07 332.04 43.774 332.227 44.4033 332.6C45.0326 332.973 45.5286 333.507 45.8913 334.2C46.254 334.883 46.4353 335.667 46.4353 336.552C46.4353 337.437 46.254 338.232 45.8913 338.936C45.5286 339.629 45.0273 340.173 44.3873 340.568C43.758 340.952 43.0593 341.144 42.2913 341.144C41.6086 341.144 41.0006 341.011 40.4673 340.744C39.9446 340.477 39.5286 340.136 39.2193 339.72V341H37.3953V329.16H39.2193V333.496ZM44.5793 336.552C44.5793 335.944 44.4513 335.421 44.1953 334.984C43.95 334.536 43.6193 334.2 43.2033 333.976C42.798 333.741 42.3606 333.624 41.8913 333.624C41.4326 333.624 40.9953 333.741 40.5793 333.976C40.174 334.211 39.8433 334.552 39.5873 335C39.342 335.448 39.2193 335.976 39.2193 336.584C39.2193 337.192 39.342 337.725 39.5873 338.184C39.8433 338.632 40.174 338.973 40.5793 339.208C40.9953 339.443 41.4326 339.56 41.8913 339.56C42.3606 339.56 42.798 339.443 43.2033 339.208C43.6193 338.963 43.95 338.611 44.1953 338.152C44.4513 337.693 44.5793 337.16 44.5793 336.552ZM47.6311 336.584C47.6311 335.677 47.8124 334.883 48.1751 334.2C48.5484 333.507 49.0604 332.973 49.7111 332.6C50.3617 332.227 51.1084 332.04 51.9511 332.04C53.0177 332.04 53.8977 332.296 54.5911 332.808C55.2951 333.309 55.7697 334.029 56.0151 334.968H54.0471C53.8871 334.531 53.6311 334.189 53.2791 333.944C52.9271 333.699 52.4844 333.576 51.9511 333.576C51.2044 333.576 50.6071 333.843 50.1591 334.376C49.7217 334.899 49.5031 335.635 49.5031 336.584C49.5031 337.533 49.7217 338.275 50.1591 338.808C50.6071 339.341 51.2044 339.608 51.9511 339.608C53.0071 339.608 53.7057 339.144 54.0471 338.216H56.0151C55.7591 339.112 55.2791 339.827 54.5751 340.36C53.8711 340.883 52.9964 341.144 51.9511 341.144C51.1084 341.144 50.3617 340.957 49.7111 340.584C49.0604 340.2 48.5484 339.667 48.1751 338.984C47.8124 338.291 47.6311 337.491 47.6311 336.584ZM57.3528 331V329.336H60.6808V341H58.8408V331H57.3528ZM64.1946 338.52C65.2186 337.635 66.0239 336.909 66.6106 336.344C67.2079 335.768 67.7039 335.171 68.0986 334.552C68.4932 333.933 68.6906 333.315 68.6906 332.696C68.6906 332.056 68.5359 331.555 68.2266 331.192C67.9279 330.829 67.4532 330.648 66.8026 330.648C66.1732 330.648 65.6826 330.851 65.3306 331.256C64.9892 331.651 64.8079 332.184 64.7866 332.856H63.0266C63.0586 331.64 63.4212 330.712 64.1146 330.072C64.8186 329.421 65.7092 329.096 66.7866 329.096C67.9492 329.096 68.8559 329.416 69.5066 330.056C70.1679 330.696 70.4986 331.549 70.4986 332.616C70.4986 333.384 70.3012 334.125 69.9066 334.84C69.5226 335.544 69.0586 336.179 68.5146 336.744C67.9812 337.299 67.2986 337.944 66.4666 338.68L65.7466 339.32H70.8186V340.84H63.0426V339.512L64.1946 338.52ZM72.3889 332.216C72.4529 331.224 72.8316 330.451 73.5249 329.896C74.2289 329.341 75.1249 329.064 76.2129 329.064C76.9596 329.064 77.6049 329.197 78.1489 329.464C78.6929 329.731 79.1036 330.093 79.3809 330.552C79.6583 331.011 79.7969 331.528 79.7969 332.104C79.7969 332.765 79.6209 333.331 79.2689 333.8C78.9169 334.269 78.4956 334.584 78.0049 334.744V334.808C78.6343 335 79.1249 335.352 79.4769 335.864C79.8289 336.365 80.0049 337.011 80.0049 337.8C80.0049 338.429 79.8609 338.989 79.5729 339.48C79.2849 339.971 78.8583 340.36 78.2929 340.648C77.7276 340.925 77.0503 341.064 76.2609 341.064C75.1089 341.064 74.1596 340.771 73.4129 340.184C72.6769 339.587 72.2823 338.733 72.2289 337.624H73.9889C74.0316 338.189 74.2503 338.653 74.6449 339.016C75.0396 339.368 75.5729 339.544 76.2449 339.544C76.8956 339.544 77.3969 339.368 77.7489 339.016C78.1009 338.653 78.2769 338.189 78.2769 337.624C78.2769 336.877 78.0369 336.349 77.5569 336.04C77.0876 335.72 76.3623 335.56 75.3809 335.56H74.9649V334.056H75.3969C76.2609 334.045 76.9169 333.901 77.3649 333.624C77.8236 333.347 78.0529 332.909 78.0529 332.312C78.0529 331.8 77.8876 331.395 77.5569 331.096C77.2263 330.787 76.7569 330.632 76.1489 330.632C75.5516 330.632 75.0876 330.787 74.7569 331.096C74.4263 331.395 74.2289 331.768 74.1649 332.216H72.3889Z" fill="white"/>
<path d="M307.168 337.949L302.905 331.555C302.462 330.89 302.938 330 303.737 330H312.263C313.062 330 313.538 330.89 313.095 331.555L308.832 337.949C308.436 338.543 307.564 338.543 307.168 337.949Z" stroke="white" stroke-width="2"/>
<path d="M68.4059 276.28L66.8859 273.48H68.6299L70.1179 276.28L68.6299 279.08H66.8859L68.4059 276.28ZM71.4779 276.28L69.9579 273.48H71.7019L73.1899 276.28L71.7019 279.08H69.9579L71.4779 276.28Z" fill="white"/>
<path d="M106.049 274.216V275.368H101.745V274.312L103.473 273.048C103.825 272.771 104.087 272.515 104.257 272.28C104.439 272.045 104.529 271.789 104.529 271.512C104.529 271.267 104.46 271.075 104.321 270.936C104.193 270.787 104.028 270.712 103.825 270.712C103.633 270.712 103.479 270.765 103.361 270.872C103.244 270.979 103.175 271.128 103.153 271.32H101.713C101.735 270.808 101.932 270.397 102.305 270.088C102.689 269.779 103.212 269.624 103.873 269.624C104.311 269.624 104.689 269.709 105.009 269.88C105.34 270.051 105.591 270.275 105.761 270.552C105.943 270.829 106.033 271.128 106.033 271.448C106.033 271.832 105.916 272.173 105.681 272.472C105.457 272.771 105.073 273.101 104.529 273.464L103.361 274.216H106.049Z" fill="white"/>
<path d="M144.455 266.936L136.391 281.688H135.463L133.351 277.96L132.247 278.616L131.703 277.704L134.375 276.12L136.279 279.496L143.143 266.936H144.455Z" fill="white"/>
<path d="M174.241 270.136L174.961 271.416L172.769 272.232L174.961 273.048L174.225 274.36L172.401 272.92L172.737 275.24H171.265L171.569 272.92L169.745 274.392L168.977 273.032L171.153 272.216L168.977 271.432L169.713 270.12L171.585 271.56L171.265 269.224H172.753L172.401 271.56L174.241 270.136Z" fill="white"/>
<path d="M210.081 275.992H206.849V279.304H205.153V275.992H201.921V274.456H205.153V271.144H206.849V274.456H210.081V275.992Z" fill="white"/>
<path d="M243.288 274.44V275.976H236.712V274.44H243.288Z" fill="white"/>
<path d="M278.561 281.64V283.336H269.633V281.64H278.561Z" fill="white"/>
<path d="M311.551 273.672L310.959 276.44H313.071V278.04H310.623L309.983 281H308.239L308.879 278.04H305.743L305.103 281H303.359L303.999 278.04H301.519V276.44H304.335L304.927 273.672H302.463V272.072H305.263L305.887 269.16H307.631L307.007 272.072H310.143L310.767 269.16H312.511L311.887 272.072H314.015V273.672H311.551ZM309.807 273.672H306.671L306.079 276.44H309.215L309.807 273.672Z" fill="white"/>
<path d="M337.17 276.552C337.17 275.667 337.351 274.883 337.714 274.2C338.087 273.517 338.589 272.989 339.218 272.616C339.858 272.232 340.562 272.04 341.33 272.04C342.023 272.04 342.626 272.179 343.138 272.456C343.661 272.723 344.077 273.059 344.386 273.464V272.184H346.226V281H344.386V279.688C344.077 280.104 343.655 280.451 343.122 280.728C342.589 281.005 341.981 281.144 341.298 281.144C340.541 281.144 339.847 280.952 339.218 280.568C338.589 280.173 338.087 279.629 337.714 278.936C337.351 278.232 337.17 277.437 337.17 276.552ZM344.386 276.584C344.386 275.976 344.258 275.448 344.002 275C343.757 274.552 343.431 274.211 343.026 273.976C342.621 273.741 342.183 273.624 341.714 273.624C341.245 273.624 340.807 273.741 340.402 273.976C339.997 274.2 339.666 274.536 339.41 274.984C339.165 275.421 339.042 275.944 339.042 276.552C339.042 277.16 339.165 277.693 339.41 278.152C339.666 278.611 339.997 278.963 340.402 279.208C340.818 279.443 341.255 279.56 341.714 279.56C342.183 279.56 342.621 279.443 343.026 279.208C343.431 278.973 343.757 278.632 344.002 278.184C344.258 277.725 344.386 277.192 344.386 276.584ZM343.65 270.216V271.56L340.114 269.816V268.264L343.65 270.216Z" fill="white"/>
<path d="M34.2779 279.08L32.8059 276.28L34.2779 273.48H36.0379L34.5019 276.28L36.0379 279.08H34.2779ZM37.3499 279.08L35.8779 276.28L37.3499 273.48H39.1099L37.5739 276.28L39.1099 279.08H37.3499Z" fill="white"/>
<path d="M36.8339 309.448C37.5059 309.448 38.0926 309.309 38.5939 309.032C39.1059 308.744 39.5059 308.323 39.7939 307.768H41.9859C41.5699 308.835 40.9033 309.656 39.9859 310.232C39.0686 310.808 38.0179 311.096 36.8339 311.096C35.5859 311.096 34.4766 310.76 33.5059 310.088C32.5353 309.405 31.8579 308.499 31.4739 307.368H30.0019V306.12H31.1859C31.1646 305.821 31.1539 305.587 31.1539 305.416C31.1539 305.245 31.1646 305.011 31.1859 304.712H30.0019V303.464H31.4739C31.8579 302.333 32.5353 301.432 33.5059 300.76C34.4766 300.077 35.5859 299.736 36.8339 299.736C38.0073 299.736 39.0526 300.029 39.9699 300.616C40.8979 301.192 41.5699 302.013 41.9859 303.08H39.7939C39.5059 302.525 39.1059 302.109 38.5939 301.832C38.0926 301.544 37.5059 301.4 36.8339 301.4C36.0553 301.4 35.3673 301.581 34.7699 301.944C34.1833 302.307 33.7353 302.813 33.4259 303.464H36.8339V304.712H33.0739C33.0419 304.936 33.0259 305.171 33.0259 305.416C33.0259 305.661 33.0419 305.896 33.0739 306.12H36.8339V307.368H33.4259C33.7353 308.029 34.1833 308.541 34.7699 308.904C35.3673 309.267 36.0553 309.448 36.8339 309.448Z" fill="white"/>
<path d="M66.8145 253.976V253.8C67.9132 252.669 68.7505 251.352 69.3265 249.848C69.9025 248.344 70.1905 246.787 70.1905 245.176C70.1905 243.501 69.8812 241.875 69.2625 240.296C68.6438 238.717 67.7212 237.363 66.4945 236.232V236.056H68.3825C69.5558 237.101 70.4412 238.429 71.0385 240.04C71.6465 241.651 71.9505 243.363 71.9505 245.176C71.9505 246.947 71.6678 248.605 71.1025 250.152C70.5478 251.699 69.7478 252.973 68.7025 253.976H66.8145Z" fill="white"/>
<path d="M107.011 235.896L102.659 253.8H100.867L105.203 235.896H107.011Z" fill="white"/>
<path d="M139.69 253.8L134.89 235.896H136.682L141.482 253.8H139.69Z" fill="white"/>
<path d="M171.009 243.688H169.025L170.705 239.88H171.985L171.009 243.688ZM173.889 243.688H171.905L173.585 239.88H174.865L173.889 243.688Z" fill="white"/>
<path d="M206.447 243.688H204.463L206.143 239.88H207.423L206.447 243.688Z" fill="white"/>
<path d="M240.35 248.856L236.67 245.224L240.35 241.592H242.654L238.958 245.224L242.654 248.856H240.35Z" fill="white"/>
<path d="M271.073 241.592H273.377L277.057 245.224L273.377 248.856H271.073L274.769 245.224L271.073 241.592Z" fill="white"/>
<path d="M302.32 242.152C302.32 241.373 302.544 240.765 302.992 240.328C303.451 239.88 304.038 239.656 304.752 239.656C305.467 239.656 306.048 239.88 306.496 240.328C306.955 240.765 307.184 241.373 307.184 242.152C307.184 242.931 306.955 243.544 306.496 243.992C306.048 244.44 305.467 244.664 304.752 244.664C304.038 244.664 303.451 244.44 302.992 243.992C302.544 243.544 302.32 242.931 302.32 242.152ZM312.08 239.864L305.696 251H303.904L310.288 239.864H312.08ZM304.752 240.76C304.08 240.76 303.744 241.224 303.744 242.152C303.744 243.091 304.08 243.56 304.752 243.56C305.072 243.56 305.318 243.448 305.488 243.224C305.67 242.989 305.76 242.632 305.76 242.152C305.76 241.224 305.424 240.76 304.752 240.76ZM308.832 248.696C308.832 247.917 309.056 247.309 309.504 246.872C309.963 246.424 310.55 246.2 311.264 246.2C311.968 246.2 312.544 246.424 312.992 246.872C313.451 247.309 313.68 247.917 313.68 248.696C313.68 249.475 313.451 250.088 312.992 250.536C312.544 250.984 311.968 251.208 311.264 251.208C310.55 251.208 309.963 250.984 309.504 250.536C309.056 250.088 308.832 249.475 308.832 248.696ZM311.248 247.304C310.576 247.304 310.24 247.768 310.24 248.696C310.24 249.624 310.576 250.088 311.248 250.088C311.92 250.088 312.256 249.624 312.256 248.696C312.256 247.768 311.92 247.304 311.248 247.304Z" fill="white"/>
<path d="M346.343 246.376C346.343 246.707 346.321 247.005 346.279 247.272H339.543C339.596 247.976 339.857 248.541 340.327 248.968C340.796 249.395 341.372 249.608 342.055 249.608C343.036 249.608 343.729 249.197 344.135 248.376H346.102C345.836 249.187 345.351 249.853 344.647 250.376C343.953 250.888 343.089 251.144 342.055 251.144C341.212 251.144 340.455 250.957 339.783 250.584C339.121 250.2 338.599 249.667 338.215 248.984C337.841 248.291 337.655 247.491 337.655 246.584C337.655 245.677 337.836 244.883 338.199 244.2C338.572 243.507 339.089 242.973 339.751 242.6C340.423 242.227 341.191 242.04 342.055 242.04C342.887 242.04 343.628 242.221 344.279 242.584C344.929 242.947 345.436 243.459 345.799 244.12C346.161 244.771 346.343 245.523 346.343 246.376ZM344.439 245.8C344.428 245.128 344.188 244.589 343.719 244.184C343.249 243.779 342.668 243.576 341.975 243.576C341.345 243.576 340.807 243.779 340.359 244.184C339.911 244.579 339.644 245.117 339.559 245.8H344.439ZM343.655 239.816L340.119 241.56V240.216L343.655 238.264V239.816Z" fill="white"/>
<path d="M37.2945 253.976C36.2492 252.973 35.4438 251.699 34.8785 250.152C34.3238 248.605 34.0465 246.947 34.0465 245.176C34.0465 243.363 34.3452 241.651 34.9425 240.04C35.5505 238.429 36.4412 237.101 37.6145 236.056H39.5025V236.232C38.2758 237.363 37.3532 238.717 36.7345 240.296C36.1158 241.875 35.8065 243.501 35.8065 245.176C35.8065 246.787 36.0945 248.344 36.6705 249.848C37.2465 251.352 38.0838 252.669 39.1825 253.8V253.976H37.2945Z" fill="white"/>
<path d="M73.5009 307.832C73.5009 308.365 73.3675 308.867 73.1009 309.336C72.8449 309.805 72.4609 310.2 71.9489 310.52C71.4475 310.84 70.8502 311.032 70.1569 311.096V312.392H69.1169V311.096C68.1142 311 67.3035 310.685 66.6849 310.152C66.0662 309.619 65.7569 308.915 65.7569 308.04H67.7089C67.7409 308.456 67.8742 308.803 68.1089 309.08C68.3435 309.347 68.6795 309.517 69.1169 309.592V306.072C68.4022 305.891 67.8209 305.709 67.3729 305.528C66.9249 305.336 66.5409 305.037 66.2209 304.632C65.9115 304.227 65.7569 303.672 65.7569 302.968C65.7569 302.083 66.0662 301.352 66.6849 300.776C67.3035 300.189 68.1142 299.848 69.1169 299.752V298.456H70.1569V299.752C71.0955 299.837 71.8475 300.136 72.4129 300.648C72.9889 301.149 73.3142 301.843 73.3889 302.728H71.4369C71.4049 302.397 71.2769 302.104 71.0529 301.848C70.8289 301.581 70.5302 301.4 70.1569 301.304V304.76C70.8715 304.931 71.4529 305.112 71.9009 305.304C72.3489 305.485 72.7275 305.779 73.0369 306.184C73.3462 306.579 73.5009 307.128 73.5009 307.832ZM67.6129 302.872C67.6129 303.309 67.7409 303.651 67.9969 303.896C68.2635 304.141 68.6369 304.339 69.1169 304.488V301.256C68.6582 301.309 68.2902 301.475 68.0129 301.752C67.7462 302.029 67.6129 302.403 67.6129 302.872ZM70.1569 309.592C70.6262 309.517 70.9942 309.331 71.2609 309.032C71.5275 308.723 71.6609 308.355 71.6609 307.928C71.6609 307.501 71.5275 307.171 71.2609 306.936C71.0049 306.691 70.6369 306.493 70.1569 306.344V309.592Z" fill="white"/>
<path d="M107.756 309.544V311.032H100.348L100.028 310.04C100.476 309.56 100.807 309.085 101.02 308.616C101.233 308.136 101.34 307.544 101.34 306.84C101.34 306.627 101.313 306.403 101.26 306.168H99.5001V304.904H100.86C100.636 304.232 100.524 303.581 100.524 302.952C100.524 302.237 100.679 301.619 100.988 301.096C101.297 300.573 101.724 300.173 102.268 299.896C102.812 299.608 103.441 299.464 104.156 299.464C105.297 299.464 106.161 299.784 106.748 300.424C107.335 301.064 107.639 301.88 107.66 302.872H105.996C105.996 302.296 105.847 301.843 105.548 301.512C105.249 301.171 104.785 301 104.156 301C103.58 301 103.116 301.165 102.764 301.496C102.423 301.827 102.252 302.344 102.252 303.048C102.252 303.357 102.284 303.656 102.348 303.944C102.412 304.232 102.503 304.552 102.62 304.904H105.724V306.168H102.988C103.041 306.413 103.068 306.643 103.068 306.856C103.068 307.891 102.711 308.787 101.996 309.544H107.756Z" fill="white"/>
<path d="M139.205 300.664C140.421 300.664 141.472 300.888 142.357 301.336C143.242 301.784 143.914 302.413 144.373 303.224C144.842 304.024 145.077 304.957 145.077 306.024C145.077 306.877 144.928 307.693 144.629 308.472C144.341 309.251 143.92 309.885 143.365 310.376C142.821 310.867 142.176 311.112 141.429 311.112C140.885 311.112 140.458 310.995 140.149 310.76C139.84 310.515 139.648 310.173 139.573 309.736C139.242 310.163 138.826 310.499 138.325 310.744C137.824 310.989 137.301 311.112 136.757 311.112C135.936 311.112 135.29 310.867 134.821 310.376C134.362 309.875 134.133 309.197 134.133 308.344C134.133 307.533 134.298 306.776 134.629 306.072C134.97 305.368 135.445 304.808 136.053 304.392C136.661 303.965 137.344 303.752 138.101 303.752C139.029 303.752 139.68 304.067 140.053 304.696L140.197 303.896H141.781L140.981 308.472C140.949 308.696 140.933 308.893 140.933 309.064C140.933 309.341 140.986 309.549 141.093 309.688C141.21 309.827 141.413 309.896 141.701 309.896C142.106 309.896 142.453 309.699 142.741 309.304C143.029 308.899 143.242 308.403 143.381 307.816C143.53 307.229 143.605 306.659 143.605 306.104C143.605 304.749 143.21 303.715 142.421 303C141.632 302.285 140.485 301.928 138.981 301.928C137.722 301.928 136.592 302.227 135.589 302.824C134.597 303.421 133.818 304.243 133.253 305.288C132.688 306.333 132.405 307.496 132.405 308.776C132.405 310.141 132.81 311.181 133.621 311.896C134.432 312.611 135.589 312.968 137.093 312.968C138.106 312.968 138.992 312.781 139.749 312.408L139.989 313.624C139.018 314.04 137.93 314.248 136.725 314.248C135.562 314.248 134.544 314.029 133.669 313.592C132.794 313.155 132.117 312.531 131.637 311.72C131.157 310.92 130.917 309.987 130.917 308.92C130.917 307.395 131.269 306.003 131.973 304.744C132.688 303.485 133.674 302.493 134.933 301.768C136.192 301.032 137.616 300.664 139.205 300.664ZM137.317 309.704C137.765 309.704 138.17 309.576 138.533 309.32C138.906 309.053 139.2 308.707 139.413 308.28C139.626 307.843 139.733 307.379 139.733 306.888C139.733 306.376 139.589 305.96 139.301 305.64C139.024 305.309 138.629 305.144 138.117 305.144C137.658 305.144 137.253 305.288 136.901 305.576C136.56 305.853 136.293 306.216 136.101 306.664C135.92 307.112 135.829 307.581 135.829 308.072C135.829 308.573 135.952 308.973 136.197 309.272C136.442 309.56 136.816 309.704 137.317 309.704Z" fill="white"/>
<path d="M172.006 311.112C171.676 311.112 171.398 311 171.174 310.776C170.95 310.552 170.838 310.275 170.838 309.944C170.838 309.613 170.95 309.336 171.174 309.112C171.398 308.888 171.676 308.776 172.006 308.776C172.326 308.776 172.598 308.888 172.822 309.112C173.046 309.336 173.158 309.613 173.158 309.944C173.158 310.275 173.046 310.552 172.822 310.776C172.598 311 172.326 311.112 172.006 311.112Z" fill="white"/>
<path d="M105.403 338.808L103.467 343.224H102.283L103.419 338.808H105.403Z" fill="white"/>
<path d="M137.858 334.392C137.528 334.392 137.25 334.28 137.026 334.056C136.802 333.832 136.69 333.555 136.69 333.224C136.69 332.893 136.802 332.616 137.026 332.392C137.25 332.168 137.528 332.056 137.858 332.056C138.178 332.056 138.45 332.168 138.674 332.392C138.898 332.616 139.01 332.893 139.01 333.224C139.01 333.555 138.898 333.832 138.674 334.056C138.45 334.28 138.178 334.392 137.858 334.392ZM139.202 338.808L137.266 343.224H136.082L137.218 338.808H139.202Z" fill="white"/>
<path d="M171.975 341.112C171.644 341.112 171.367 341 171.143 340.776C170.919 340.552 170.807 340.275 170.807 339.944C170.807 339.613 170.919 339.336 171.143 339.112C171.367 338.888 171.644 338.776 171.975 338.776C172.295 338.776 172.567 338.888 172.791 339.112C173.015 339.336 173.127 339.613 173.127 339.944C173.127 340.275 173.015 340.552 172.791 340.776C172.567 341 172.295 341.112 171.975 341.112ZM171.975 334.392C171.644 334.392 171.367 334.28 171.143 334.056C170.919 333.832 170.807 333.555 170.807 333.224C170.807 332.893 170.919 332.616 171.143 332.392C171.367 332.168 171.644 332.056 171.975 332.056C172.295 332.056 172.567 332.168 172.791 332.392C173.015 332.616 173.127 332.893 173.127 333.224C173.127 333.555 173.015 333.832 172.791 334.056C172.567 334.28 172.295 334.392 171.975 334.392Z" fill="white"/>
<path d="M205.887 329.72C206.975 329.72 207.845 330.019 208.495 330.616C209.157 331.213 209.487 332.029 209.487 333.064C209.487 334.141 209.146 334.952 208.463 335.496C207.781 336.04 206.874 336.312 205.743 336.312L205.679 337.576H204.095L204.015 335.064H204.543C205.578 335.064 206.367 334.925 206.911 334.648C207.466 334.371 207.743 333.843 207.743 333.064C207.743 332.499 207.578 332.056 207.247 331.736C206.927 331.416 206.479 331.256 205.903 331.256C205.327 331.256 204.874 331.411 204.543 331.72C204.213 332.029 204.047 332.461 204.047 333.016H202.335C202.335 332.376 202.479 331.805 202.767 331.304C203.055 330.803 203.466 330.413 203.999 330.136C204.543 329.859 205.173 329.72 205.887 329.72ZM204.863 341.112C204.533 341.112 204.255 341 204.031 340.776C203.807 340.552 203.695 340.275 203.695 339.944C203.695 339.613 203.807 339.336 204.031 339.112C204.255 338.888 204.533 338.776 204.863 338.776C205.183 338.776 205.455 338.888 205.679 339.112C205.903 339.336 206.015 339.613 206.015 339.944C206.015 340.275 205.903 340.552 205.679 340.776C205.455 341 205.183 341.112 204.863 341.112Z" fill="white"/>
<path d="M240.918 329.88L240.71 337.64H239.19L238.982 329.88H240.918ZM240.006 341.112C239.675 341.112 239.398 341 239.174 340.776C238.95 340.552 238.838 340.275 238.838 339.944C238.838 339.613 238.95 339.336 239.174 339.112C239.398 338.888 239.675 338.776 240.006 338.776C240.326 338.776 240.598 338.888 240.822 339.112C241.046 339.336 241.158 339.613 241.158 339.944C241.158 340.275 241.046 340.552 240.822 340.776C240.598 341 240.326 341.112 240.006 341.112Z" fill="white"/>
<path d="M206.122 302.92C205.792 302.92 205.514 302.808 205.29 302.584C205.066 302.36 204.954 302.083 204.954 301.752C204.954 301.421 205.066 301.144 205.29 300.92C205.514 300.696 205.792 300.584 206.122 300.584C206.442 300.584 206.714 300.696 206.938 300.92C207.162 301.144 207.274 301.421 207.274 301.752C207.274 302.083 207.162 302.36 206.938 302.584C206.714 302.808 206.442 302.92 206.122 302.92ZM210.17 304.44V305.976H202.01V304.44H210.17ZM206.122 309.8C205.792 309.8 205.514 309.688 205.29 309.464C205.066 309.24 204.954 308.963 204.954 308.632C204.954 308.301 205.066 308.024 205.29 307.8C205.514 307.576 205.792 307.464 206.122 307.464C206.442 307.464 206.714 307.576 206.938 307.8C207.162 308.024 207.274 308.301 207.274 308.632C207.274 308.963 207.162 309.24 206.938 309.464C206.714 309.688 206.442 309.8 206.122 309.8Z" fill="white"/>
<path d="M242.438 308.792L240.006 306.36L237.574 308.792L236.374 307.592L238.822 305.16L236.438 302.776L237.606 301.608L239.99 303.992L242.374 301.608L243.574 302.808L241.19 305.192L243.606 307.624L242.438 308.792Z" fill="white"/>
<path d="M278.253 302.632V304.168H269.741V302.632H278.253ZM278.253 306.264V307.8H269.741V306.264H278.253Z" fill="white"/>
<path d="M311.706 311L310.33 309.624C309.797 310.157 309.215 310.557 308.586 310.824C307.957 311.08 307.253 311.208 306.474 311.208C305.685 311.208 304.986 311.069 304.378 310.792C303.77 310.515 303.301 310.12 302.97 309.608C302.639 309.085 302.474 308.483 302.474 307.8C302.474 307.032 302.693 306.349 303.13 305.752C303.567 305.144 304.218 304.664 305.082 304.312C304.773 303.939 304.554 303.592 304.426 303.272C304.298 302.941 304.234 302.579 304.234 302.184C304.234 301.693 304.357 301.256 304.602 300.872C304.858 300.488 305.221 300.184 305.69 299.96C306.159 299.736 306.703 299.624 307.322 299.624C307.951 299.624 308.485 299.747 308.922 299.992C309.37 300.227 309.701 300.552 309.914 300.968C310.138 301.384 310.229 301.848 310.186 302.36H308.362C308.373 301.965 308.277 301.661 308.074 301.448C307.871 301.224 307.594 301.112 307.242 301.112C306.89 301.112 306.602 301.219 306.378 301.432C306.165 301.635 306.058 301.885 306.058 302.184C306.058 302.472 306.138 302.76 306.298 303.048C306.469 303.325 306.762 303.688 307.178 304.136L310.122 307.064L311.258 305.192H313.226L311.786 307.656L311.386 308.312L314.09 311H311.706ZM306.474 309.656C307.477 309.656 308.362 309.245 309.13 308.424L306.186 305.464C304.927 305.965 304.298 306.723 304.298 307.736C304.298 308.28 304.501 308.739 304.906 309.112C305.311 309.475 305.834 309.656 306.474 309.656Z" fill="white"/>
<path d="M345.989 302.184V311H344.165V309.96C343.877 310.323 343.498 310.611 343.029 310.824C342.57 311.027 342.079 311.128 341.557 311.128C340.863 311.128 340.239 310.984 339.685 310.696C339.141 310.408 338.709 309.981 338.389 309.416C338.079 308.851 337.925 308.168 337.925 307.368V302.184H339.733V307.096C339.733 307.885 339.93 308.493 340.325 308.92C340.719 309.336 341.258 309.544 341.941 309.544C342.623 309.544 343.162 309.336 343.557 308.92C343.962 308.493 344.165 307.885 344.165 307.096V302.184H345.989ZM343.653 300.216V301.56L340.117 299.816V298.264L343.653 300.216Z" fill="white"/>
<path d="M337.27 332.008C337.27 331.027 337.601 330.221 338.262 329.592C338.924 328.952 339.916 328.632 341.238 328.632C342.017 328.632 342.684 328.765 343.238 329.032C343.793 329.288 344.209 329.624 344.486 330.04C344.774 330.456 344.918 330.904 344.918 331.384C344.918 331.939 344.785 332.397 344.518 332.76C344.262 333.112 343.91 333.475 343.462 333.848C343.217 334.072 343.036 334.248 342.918 334.376C342.812 334.493 342.758 334.621 342.758 334.76C342.758 334.952 342.87 335.128 343.094 335.288C343.329 335.437 343.777 335.624 344.438 335.848C345.238 336.115 345.82 336.467 346.182 336.904C346.545 337.331 346.726 337.869 346.726 338.52C346.726 339.309 346.438 339.949 345.862 340.44C345.286 340.92 344.497 341.16 343.494 341.16C342.524 341.16 341.734 340.904 341.126 340.392C340.529 339.88 340.193 339.16 340.118 338.232H341.974C341.996 338.691 342.134 339.053 342.39 339.32C342.646 339.576 343.014 339.704 343.494 339.704C344.401 339.704 344.854 339.357 344.854 338.664C344.854 338.312 344.748 338.035 344.534 337.832C344.332 337.619 343.953 337.421 343.398 337.24C342.524 336.952 341.889 336.643 341.494 336.312C341.11 335.971 340.918 335.539 340.918 335.016C340.918 334.643 341.014 334.317 341.206 334.04C341.409 333.763 341.708 333.437 342.102 333.064C342.444 332.744 342.694 332.477 342.854 332.264C343.014 332.04 343.094 331.795 343.094 331.528C343.094 331.091 342.924 330.755 342.582 330.52C342.252 330.275 341.793 330.152 341.206 330.152C340.449 330.152 339.905 330.328 339.574 330.68C339.254 331.032 339.094 331.555 339.094 332.248V341H337.27V332.008Z" fill="white"/>
</svg>
