<svg width="480" height="360" viewBox="0 0 480 360" fill="none" xmlns="http://www.w3.org/2000/svg">
<rect x="290" y="150" width="180" height="120" rx="15" fill="white" fill-opacity="0.5"/>
<path d="M377 200H383C384.105 200 385 200.895 385 202V208C385 209.105 384.105 210 383 210H377C375.895 210 375 209.105 375 208V202C375 200.895 375.895 200 377 200Z" stroke="black" stroke-width="2"/>
<path d="M416.53 200.26L422.756 204.152C423.383 204.544 423.383 205.456 422.756 205.848L416.53 209.74C415.864 210.156 415 209.677 415 208.892V201.108C415 200.323 415.864 199.844 416.53 200.26Z" stroke="black" stroke-width="2"/>
<rect x="424" y="199" width="2" height="12" rx="1" fill="black"/>
<path d="M343.47 209.74L337.244 205.848C336.617 205.456 336.617 204.544 337.244 204.152L343.47 200.26C344.136 199.844 345 200.323 345 201.108L345 208.892C345 209.677 344.136 210.156 343.47 209.74Z" stroke="black" stroke-width="2"/>
<rect x="336" y="211" width="2" height="12" rx="1" transform="rotate(180 336 211)" fill="black"/>
<path d="M353.699 167.43C354.072 167.497 354.389 167.693 354.649 168.02C354.909 168.347 355.039 168.717 355.039 169.13C355.039 169.483 354.945 169.803 354.759 170.09C354.579 170.37 354.315 170.593 353.969 170.76C353.622 170.92 353.219 171 352.759 171H349.979V164.05H352.629C353.102 164.05 353.509 164.13 353.849 164.29C354.189 164.45 354.445 164.667 354.619 164.94C354.792 165.207 354.879 165.507 354.879 165.84C354.879 166.24 354.772 166.573 354.559 166.84C354.345 167.107 354.059 167.303 353.699 167.43ZM351.119 166.97H352.529C352.902 166.97 353.192 166.887 353.399 166.72C353.612 166.547 353.719 166.3 353.719 165.98C353.719 165.667 353.612 165.423 353.399 165.25C353.192 165.07 352.902 164.98 352.529 164.98H351.119V166.97ZM352.659 170.07C353.045 170.07 353.349 169.977 353.569 169.79C353.789 169.603 353.899 169.343 353.899 169.01C353.899 168.67 353.782 168.4 353.549 168.2C353.315 168 353.005 167.9 352.619 167.9H351.119V170.07H352.659ZM355.897 168.22C355.897 167.667 356.011 167.177 356.237 166.75C356.471 166.323 356.784 165.993 357.177 165.76C357.577 165.52 358.017 165.4 358.497 165.4C358.931 165.4 359.307 165.487 359.627 165.66C359.954 165.827 360.214 166.037 360.407 166.29V165.49H361.557V171H360.407V170.18C360.214 170.44 359.951 170.657 359.617 170.83C359.284 171.003 358.904 171.09 358.477 171.09C358.004 171.09 357.571 170.97 357.177 170.73C356.784 170.483 356.471 170.143 356.237 169.71C356.011 169.27 355.897 168.773 355.897 168.22ZM360.407 168.24C360.407 167.86 360.327 167.53 360.167 167.25C360.014 166.97 359.811 166.757 359.557 166.61C359.304 166.463 359.031 166.39 358.737 166.39C358.444 166.39 358.171 166.463 357.917 166.61C357.664 166.75 357.457 166.96 357.297 167.24C357.144 167.513 357.067 167.84 357.067 168.22C357.067 168.6 357.144 168.933 357.297 169.22C357.457 169.507 357.664 169.727 357.917 169.88C358.177 170.027 358.451 170.1 358.737 170.1C359.031 170.1 359.304 170.027 359.557 169.88C359.811 169.733 360.014 169.52 360.167 169.24C360.327 168.953 360.407 168.62 360.407 168.24ZM364.385 166.42V169.47C364.385 169.677 364.431 169.827 364.525 169.92C364.625 170.007 364.791 170.05 365.025 170.05H365.725V171H364.825C364.311 171 363.918 170.88 363.645 170.64C363.371 170.4 363.235 170.01 363.235 169.47V166.42H362.585V165.49H363.235V164.12H364.385V165.49H365.725V166.42H364.385ZM368.105 166.42V169.47C368.105 169.677 368.152 169.827 368.245 169.92C368.345 170.007 368.512 170.05 368.745 170.05H369.445V171H368.545C368.032 171 367.639 170.88 367.365 170.64C367.092 170.4 366.955 170.01 366.955 169.47V166.42H366.305V165.49H366.955V164.12H368.105V165.49H369.445V166.42H368.105ZM371.636 163.6V171H370.496V163.6H371.636ZM378.183 168.11C378.183 168.317 378.169 168.503 378.143 168.67H373.933C373.966 169.11 374.129 169.463 374.423 169.73C374.716 169.997 375.076 170.13 375.503 170.13C376.116 170.13 376.549 169.873 376.803 169.36H378.033C377.866 169.867 377.563 170.283 377.123 170.61C376.689 170.93 376.149 171.09 375.503 171.09C374.976 171.09 374.503 170.973 374.083 170.74C373.669 170.5 373.343 170.167 373.103 169.74C372.869 169.307 372.753 168.807 372.753 168.24C372.753 167.673 372.866 167.177 373.093 166.75C373.326 166.317 373.649 165.983 374.063 165.75C374.483 165.517 374.963 165.4 375.503 165.4C376.023 165.4 376.486 165.513 376.893 165.74C377.299 165.967 377.616 166.287 377.843 166.7C378.069 167.107 378.183 167.577 378.183 168.11ZM376.993 167.75C376.986 167.33 376.836 166.993 376.543 166.74C376.249 166.487 375.886 166.36 375.453 166.36C375.059 166.36 374.723 166.487 374.443 166.74C374.163 166.987 373.996 167.323 373.943 167.75H376.993ZM390.952 164.05L388.892 171H387.602L386.142 165.74L384.592 171L383.312 171.01L381.342 164.05H382.552L383.992 169.71L385.552 164.05H386.832L388.282 169.68L389.732 164.05H390.952ZM394.283 171.09C393.763 171.09 393.293 170.973 392.873 170.74C392.453 170.5 392.123 170.167 391.883 169.74C391.643 169.307 391.523 168.807 391.523 168.24C391.523 167.68 391.646 167.183 391.893 166.75C392.139 166.317 392.476 165.983 392.903 165.75C393.329 165.517 393.806 165.4 394.333 165.4C394.859 165.4 395.336 165.517 395.763 165.75C396.189 165.983 396.526 166.317 396.773 166.75C397.019 167.183 397.143 167.68 397.143 168.24C397.143 168.8 397.016 169.297 396.763 169.73C396.509 170.163 396.163 170.5 395.723 170.74C395.289 170.973 394.809 171.09 394.283 171.09ZM394.283 170.1C394.576 170.1 394.849 170.03 395.103 169.89C395.363 169.75 395.573 169.54 395.733 169.26C395.893 168.98 395.973 168.64 395.973 168.24C395.973 167.84 395.896 167.503 395.743 167.23C395.589 166.95 395.386 166.74 395.133 166.6C394.879 166.46 394.606 166.39 394.313 166.39C394.019 166.39 393.746 166.46 393.493 166.6C393.246 166.74 393.049 166.95 392.903 167.23C392.756 167.503 392.683 167.84 392.683 168.24C392.683 168.833 392.833 169.293 393.133 169.62C393.439 169.94 393.823 170.1 394.283 170.1ZM399.41 166.29C399.576 166.01 399.796 165.793 400.07 165.64C400.35 165.48 400.68 165.4 401.06 165.4V166.58H400.77C400.323 166.58 399.983 166.693 399.75 166.92C399.523 167.147 399.41 167.54 399.41 168.1V171H398.27V165.49H399.41V166.29ZM403.247 163.6V171H402.107V163.6H403.247ZM404.364 168.22C404.364 167.667 404.477 167.177 404.704 166.75C404.937 166.323 405.251 165.993 405.644 165.76C406.044 165.52 406.487 165.4 406.974 165.4C407.334 165.4 407.687 165.48 408.034 165.64C408.387 165.793 408.667 166 408.874 166.26V163.6H410.024V171H408.874V170.17C408.687 170.437 408.427 170.657 408.094 170.83C407.767 171.003 407.391 171.09 406.964 171.09C406.484 171.09 406.044 170.97 405.644 170.73C405.251 170.483 404.937 170.143 404.704 169.71C404.477 169.27 404.364 168.773 404.364 168.22ZM408.874 168.24C408.874 167.86 408.794 167.53 408.634 167.25C408.481 166.97 408.277 166.757 408.024 166.61C407.771 166.463 407.497 166.39 407.204 166.39C406.911 166.39 406.637 166.463 406.384 166.61C406.131 166.75 405.924 166.96 405.764 167.24C405.611 167.513 405.534 167.84 405.534 168.22C405.534 168.6 405.611 168.933 405.764 169.22C405.924 169.507 406.131 169.727 406.384 169.88C406.644 170.027 406.917 170.1 407.204 170.1C407.497 170.1 407.771 170.027 408.024 169.88C408.277 169.733 408.481 169.52 408.634 169.24C408.794 168.953 408.874 168.62 408.874 168.24Z" fill="black"/>
<path d="M352.1 178.96V179.368H354.86V178.96H352.1ZM355.076 178.96V179.368H357.828V178.96H355.076ZM353.276 178.488V180.552H353.732V178.488H353.276ZM354.58 180.992V182.688H355.116V180.992H354.58ZM356.14 178.488V180.552H356.604V178.488H356.14ZM353.004 182.032H356.716V182.52H353.004V182.032ZM353.004 181.208H356.716V181.696H353.004V181.208ZM352.476 180.824V182.912H357.268V180.824H352.476ZM355.604 183.504L355.66 183.856C356.14 183.824 356.66 183.784 357.252 183.728V183.432C356.62 183.464 356.06 183.488 355.604 183.504ZM353.268 179.136C352.972 179.544 352.412 179.976 351.892 180.176C351.996 180.264 352.132 180.416 352.204 180.528C352.732 180.272 353.308 179.76 353.604 179.272L353.268 179.136ZM356.124 179.136C355.836 179.544 355.284 179.976 354.78 180.176C354.876 180.264 355.012 180.416 355.084 180.528C355.596 180.272 356.172 179.76 356.468 179.272L356.124 179.136ZM356.66 179.184L356.316 179.336C356.62 179.776 357.204 180.296 357.676 180.544C357.756 180.432 357.9 180.272 358.004 180.184C357.532 179.984 356.964 179.56 356.66 179.184ZM353.492 182.808C353.332 183.528 352.9 183.952 351.62 184.2C351.732 184.304 351.892 184.528 351.948 184.664C353.364 184.336 353.884 183.768 354.084 182.808H353.492ZM354.844 182.808V183.96C354.844 184.488 355.036 184.608 355.796 184.608C355.948 184.608 357.1 184.608 357.26 184.608C357.828 184.608 357.98 184.44 358.052 183.744C357.9 183.712 357.692 183.648 357.572 183.568C357.548 184.104 357.492 184.176 357.204 184.176C356.964 184.176 356.012 184.176 355.828 184.176C355.436 184.176 355.372 184.144 355.372 183.96V182.808H354.844ZM354.404 180.352C354.316 180.52 354.148 180.768 354.02 180.952L354.46 181.08C354.604 180.912 354.804 180.704 354.98 180.456L354.404 180.352ZM356.124 182.712C356.076 182.952 355.972 183.32 355.884 183.568L356.22 183.672C356.308 183.456 356.412 183.144 356.532 182.84L356.124 182.712ZM356.724 183.128C356.948 183.376 357.18 183.72 357.26 183.968L357.62 183.816C357.532 183.584 357.3 183.24 357.076 183L356.724 183.128ZM353.7 179.416L353.436 179.616C353.692 179.768 354.332 180.16 354.532 180.328L354.828 179.992C354.652 179.88 353.916 179.512 353.7 179.416ZM354.22 177.288V178.24H354.836V177.288H354.22ZM351.572 177.92V178.432H357.932V177.92H351.572ZM351.228 177.92V180.424C351.228 181.584 351.172 183.168 350.548 184.304C350.676 184.368 350.908 184.552 351.012 184.664C351.684 183.456 351.788 181.656 351.788 180.424V177.92H351.228ZM360.164 179.384H364.452V180.256H360.164V179.384ZM360.164 178.048H364.452V178.904H360.164V178.048ZM359.564 177.544V180.752H365.068V177.544H359.564ZM363.196 180.424L362.684 180.616C363.316 181.528 364.46 182.288 365.604 182.656C365.692 182.496 365.868 182.264 366.004 182.144C364.884 181.848 363.756 181.2 363.196 180.424ZM361.468 180.424C360.892 181.192 359.748 181.88 358.668 182.192C358.804 182.312 358.98 182.536 359.076 182.688C360.172 182.296 361.348 181.528 361.988 180.64L361.468 180.424ZM360.804 181.832V182.312C360.804 182.904 360.66 183.68 359.252 184.208C359.388 184.328 359.58 184.536 359.668 184.688C361.22 184.064 361.412 183.096 361.412 182.328V181.832H360.804ZM361.996 177.808V180.528H362.604V177.808H361.996ZM363.348 181.832V184.624H363.964V181.832H363.348ZM368.748 184.056C368.375 184.056 368.039 183.992 367.74 183.864C367.442 183.731 367.207 183.544 367.036 183.304C366.866 183.064 366.78 182.784 366.78 182.464H367.756C367.778 182.704 367.871 182.901 368.036 183.056C368.207 183.211 368.444 183.288 368.748 183.288C369.063 183.288 369.308 183.213 369.484 183.064C369.66 182.909 369.748 182.712 369.748 182.472C369.748 182.285 369.692 182.133 369.58 182.016C369.474 181.899 369.338 181.808 369.172 181.744C369.012 181.68 368.788 181.611 368.5 181.536C368.138 181.44 367.842 181.344 367.612 181.248C367.388 181.147 367.196 180.992 367.036 180.784C366.876 180.576 366.796 180.299 366.796 179.952C366.796 179.632 366.876 179.352 367.036 179.112C367.196 178.872 367.42 178.688 367.708 178.56C367.996 178.432 368.33 178.368 368.708 178.368C369.247 178.368 369.687 178.504 370.028 178.776C370.375 179.043 370.567 179.411 370.604 179.88H369.596C369.58 179.677 369.484 179.504 369.308 179.36C369.132 179.216 368.9 179.144 368.612 179.144C368.351 179.144 368.138 179.211 367.972 179.344C367.807 179.477 367.724 179.669 367.724 179.92C367.724 180.091 367.775 180.232 367.876 180.344C367.983 180.451 368.116 180.536 368.276 180.6C368.436 180.664 368.655 180.733 368.932 180.808C369.3 180.909 369.599 181.011 369.828 181.112C370.063 181.213 370.26 181.371 370.42 181.584C370.586 181.792 370.668 182.072 370.668 182.424C370.668 182.707 370.591 182.973 370.436 183.224C370.287 183.475 370.066 183.677 369.772 183.832C369.484 183.981 369.143 184.056 368.748 184.056ZM375.713 179.592L373.009 186.072H372.065L372.961 183.928L371.225 179.592H372.241L373.481 182.952L374.769 179.592H375.713ZM381.737 179.52C382.083 179.52 382.393 179.592 382.665 179.736C382.942 179.88 383.158 180.093 383.313 180.376C383.473 180.659 383.553 181 383.553 181.4V184H382.649V181.536C382.649 181.141 382.55 180.84 382.353 180.632C382.155 180.419 381.886 180.312 381.545 180.312C381.203 180.312 380.931 180.419 380.729 180.632C380.531 180.84 380.433 181.141 380.433 181.536V184H379.529V181.536C379.529 181.141 379.43 180.84 379.233 180.632C379.035 180.419 378.766 180.312 378.425 180.312C378.083 180.312 377.811 180.419 377.609 180.632C377.411 180.84 377.313 181.141 377.313 181.536V184H376.401V179.592H377.313V180.096C377.462 179.915 377.651 179.773 377.881 179.672C378.11 179.571 378.355 179.52 378.617 179.52C378.969 179.52 379.283 179.595 379.561 179.744C379.838 179.893 380.051 180.109 380.201 180.392C380.334 180.125 380.542 179.915 380.825 179.76C381.107 179.6 381.411 179.52 381.737 179.52ZM385.625 180.24C385.78 180.037 385.991 179.867 386.257 179.728C386.524 179.589 386.825 179.52 387.161 179.52C387.545 179.52 387.895 179.616 388.209 179.808C388.529 179.995 388.78 180.259 388.961 180.6C389.143 180.941 389.233 181.333 389.233 181.776C389.233 182.219 389.143 182.616 388.961 182.968C388.78 183.315 388.529 183.587 388.209 183.784C387.895 183.976 387.545 184.072 387.161 184.072C386.825 184.072 386.527 184.005 386.265 183.872C386.004 183.733 385.791 183.563 385.625 183.36V186.096H384.713V179.592H385.625V180.24ZM388.305 181.776C388.305 181.472 388.241 181.211 388.113 180.992C387.991 180.768 387.825 180.6 387.617 180.488C387.415 180.371 387.196 180.312 386.961 180.312C386.732 180.312 386.513 180.371 386.305 180.488C386.103 180.605 385.937 180.776 385.809 181C385.687 181.224 385.625 181.488 385.625 181.792C385.625 182.096 385.687 182.363 385.809 182.592C385.937 182.816 386.103 182.987 386.305 183.104C386.513 183.221 386.732 183.28 386.961 183.28C387.196 183.28 387.415 183.221 387.617 183.104C387.825 182.981 387.991 182.805 388.113 182.576C388.241 182.347 388.305 182.08 388.305 181.776ZM392.415 179.52C392.751 179.52 393.05 179.592 393.311 179.736C393.578 179.88 393.786 180.093 393.935 180.376C394.09 180.659 394.167 181 394.167 181.4V184H393.263V181.536C393.263 181.141 393.164 180.84 392.967 180.632C392.77 180.419 392.5 180.312 392.159 180.312C391.818 180.312 391.546 180.419 391.343 180.632C391.146 180.84 391.047 181.141 391.047 181.536V184H390.135V178.08H391.047V180.104C391.202 179.917 391.396 179.773 391.631 179.672C391.871 179.571 392.132 179.52 392.415 179.52ZM397.242 184.072C396.826 184.072 396.45 183.979 396.114 183.792C395.778 183.6 395.514 183.333 395.322 182.992C395.13 182.645 395.034 182.245 395.034 181.792C395.034 181.344 395.133 180.947 395.33 180.6C395.528 180.253 395.797 179.987 396.138 179.8C396.48 179.613 396.861 179.52 397.282 179.52C397.704 179.52 398.085 179.613 398.426 179.8C398.768 179.987 399.037 180.253 399.234 180.6C399.432 180.947 399.53 181.344 399.53 181.792C399.53 182.24 399.429 182.637 399.226 182.984C399.024 183.331 398.746 183.6 398.394 183.792C398.048 183.979 397.664 184.072 397.242 184.072ZM397.242 183.28C397.477 183.28 397.696 183.224 397.898 183.112C398.106 183 398.274 182.832 398.402 182.608C398.53 182.384 398.594 182.112 398.594 181.792C398.594 181.472 398.533 181.203 398.41 180.984C398.288 180.76 398.125 180.592 397.922 180.48C397.72 180.368 397.501 180.312 397.266 180.312C397.032 180.312 396.813 180.368 396.61 180.48C396.413 180.592 396.256 180.76 396.138 180.984C396.021 181.203 395.962 181.472 395.962 181.792C395.962 182.267 396.082 182.635 396.322 182.896C396.568 183.152 396.874 183.28 397.242 183.28ZM402.656 179.52C403.003 179.52 403.312 179.592 403.584 179.736C403.861 179.88 404.077 180.093 404.232 180.376C404.387 180.659 404.464 181 404.464 181.4V184H403.56V181.536C403.56 181.141 403.461 180.84 403.264 180.632C403.067 180.419 402.797 180.312 402.456 180.312C402.115 180.312 401.843 180.419 401.64 180.632C401.443 180.84 401.344 181.141 401.344 181.536V184H400.432V179.592H401.344V180.096C401.493 179.915 401.683 179.773 401.912 179.672C402.147 179.571 402.395 179.52 402.656 179.52ZM409.595 179.592L406.891 186.072H405.947L406.843 183.928L405.107 179.592H406.123L407.363 182.952L408.651 179.592H409.595Z" fill="#808080"/>
<rect x="305" y="235" width="150" height="20" rx="10" fill="black" fill-opacity="0.1"/>
</svg>
