<svg width="480" height="360" viewBox="0 0 480 360" fill="none" xmlns="http://www.w3.org/2000/svg">
<rect x="290" y="150" width="180" height="120" rx="15" fill="black" fill-opacity="0.5"/>
<path d="M377 200H383C384.105 200 385 200.895 385 202V208C385 209.105 384.105 210 383 210H377C375.895 210 375 209.105 375 208V202C375 200.895 375.895 200 377 200Z" stroke="white" stroke-width="2"/>
<path d="M416.53 200.26L422.756 204.152C423.383 204.544 423.383 205.456 422.756 205.848L416.53 209.74C415.864 210.156 415 209.677 415 208.892V201.108C415 200.323 415.864 199.844 416.53 200.26Z" stroke="white" stroke-width="2"/>
<rect x="424" y="199" width="2" height="12" rx="1" fill="white"/>
<path d="M343.47 209.74L337.244 205.848C336.617 205.456 336.617 204.544 337.244 204.152L343.47 200.26C344.136 199.844 345 200.323 345 201.108L345 208.892C345 209.677 344.136 210.156 343.47 209.74Z" stroke="white" stroke-width="2"/>
<rect x="336" y="211" width="2" height="12" rx="1" transform="rotate(180 336 211)" fill="white"/>
<path d="M367.949 171L366.349 168.22H365.479V171H364.339V164.05H366.739C367.272 164.05 367.722 164.143 368.089 164.33C368.462 164.517 368.739 164.767 368.919 165.08C369.106 165.393 369.199 165.743 369.199 166.13C369.199 166.583 369.066 166.997 368.799 167.37C368.539 167.737 368.136 167.987 367.589 168.12L369.309 171H367.949ZM365.479 167.31H366.739C367.166 167.31 367.486 167.203 367.699 166.99C367.919 166.777 368.029 166.49 368.029 166.13C368.029 165.77 367.922 165.49 367.709 165.29C367.496 165.083 367.172 164.98 366.739 164.98H365.479V167.31ZM375.707 168.11C375.707 168.317 375.694 168.503 375.667 168.67H371.457C371.491 169.11 371.654 169.463 371.947 169.73C372.241 169.997 372.601 170.13 373.027 170.13C373.641 170.13 374.074 169.873 374.327 169.36H375.557C375.391 169.867 375.087 170.283 374.647 170.61C374.214 170.93 373.674 171.09 373.027 171.09C372.501 171.09 372.027 170.973 371.607 170.74C371.194 170.5 370.867 170.167 370.627 169.74C370.394 169.307 370.277 168.807 370.277 168.24C370.277 167.673 370.391 167.177 370.617 166.75C370.851 166.317 371.174 165.983 371.587 165.75C372.007 165.517 372.487 165.4 373.027 165.4C373.547 165.4 374.011 165.513 374.417 165.74C374.824 165.967 375.141 166.287 375.367 166.7C375.594 167.107 375.707 167.577 375.707 168.11ZM374.517 167.75C374.511 167.33 374.361 166.993 374.067 166.74C373.774 166.487 373.411 166.36 372.977 166.36C372.584 166.36 372.247 166.487 371.967 166.74C371.687 166.987 371.521 167.323 371.467 167.75H374.517ZM378.959 169.98L380.519 165.49H381.729L379.629 171H378.269L376.179 165.49H377.399L378.959 169.98ZM383.171 164.76C382.964 164.76 382.791 164.69 382.651 164.55C382.511 164.41 382.441 164.237 382.441 164.03C382.441 163.823 382.511 163.65 382.651 163.51C382.791 163.37 382.964 163.3 383.171 163.3C383.371 163.3 383.541 163.37 383.681 163.51C383.821 163.65 383.891 163.823 383.891 164.03C383.891 164.237 383.821 164.41 383.681 164.55C383.541 164.69 383.371 164.76 383.171 164.76ZM383.731 165.49V171H382.591V165.49H383.731ZM387.358 169.98L388.918 165.49H390.128L388.028 171H386.668L384.578 165.49H385.798L387.358 169.98ZM396.039 168.11C396.039 168.317 396.026 168.503 395.999 168.67H391.789C391.823 169.11 391.986 169.463 392.279 169.73C392.573 169.997 392.933 170.13 393.359 170.13C393.973 170.13 394.406 169.873 394.659 169.36H395.889C395.723 169.867 395.419 170.283 394.979 170.61C394.546 170.93 394.006 171.09 393.359 171.09C392.833 171.09 392.359 170.973 391.939 170.74C391.526 170.5 391.199 170.167 390.959 169.74C390.726 169.307 390.609 168.807 390.609 168.24C390.609 167.673 390.723 167.177 390.949 166.75C391.183 166.317 391.506 165.983 391.919 165.75C392.339 165.517 392.819 165.4 393.359 165.4C393.879 165.4 394.343 165.513 394.749 165.74C395.156 165.967 395.473 166.287 395.699 166.7C395.926 167.107 396.039 167.577 396.039 168.11ZM394.849 167.75C394.843 167.33 394.693 166.993 394.399 166.74C394.106 166.487 393.743 166.36 393.309 166.36C392.916 166.36 392.579 166.487 392.299 166.74C392.019 166.987 391.853 167.323 391.799 167.75H394.849Z" fill="white"/>
<path d="M371.481 178.44V179.184H370.001V184H369.089V179.184H367.601V178.44H371.481ZM373.317 180.232C373.45 180.008 373.626 179.835 373.845 179.712C374.069 179.584 374.333 179.52 374.637 179.52V180.464H374.405C374.047 180.464 373.775 180.555 373.589 180.736C373.407 180.917 373.317 181.232 373.317 181.68V184H372.405V179.592H373.317V180.232ZM375.939 179.008C375.774 179.008 375.635 178.952 375.523 178.84C375.411 178.728 375.355 178.589 375.355 178.424C375.355 178.259 375.411 178.12 375.523 178.008C375.635 177.896 375.774 177.84 375.939 177.84C376.099 177.84 376.235 177.896 376.347 178.008C376.459 178.12 376.515 178.259 376.515 178.424C376.515 178.589 376.459 178.728 376.347 178.84C376.235 178.952 376.099 179.008 375.939 179.008ZM376.387 179.592V184H375.475V179.592H376.387ZM378.496 180.24C378.651 180.037 378.862 179.867 379.128 179.728C379.395 179.589 379.696 179.52 380.032 179.52C380.416 179.52 380.766 179.616 381.08 179.808C381.4 179.995 381.651 180.259 381.832 180.6C382.014 180.941 382.104 181.333 382.104 181.776C382.104 182.219 382.014 182.616 381.832 182.968C381.651 183.315 381.4 183.587 381.08 183.784C380.766 183.976 380.416 184.072 380.032 184.072C379.696 184.072 379.398 184.005 379.136 183.872C378.875 183.733 378.662 183.563 378.496 183.36V186.096H377.584V179.592H378.496V180.24ZM381.176 181.776C381.176 181.472 381.112 181.211 380.984 180.992C380.862 180.768 380.696 180.6 380.488 180.488C380.286 180.371 380.067 180.312 379.832 180.312C379.603 180.312 379.384 180.371 379.176 180.488C378.974 180.605 378.808 180.776 378.68 181C378.558 181.224 378.496 181.488 378.496 181.792C378.496 182.096 378.558 182.363 378.68 182.592C378.808 182.816 378.974 182.987 379.176 183.104C379.384 183.221 379.603 183.28 379.832 183.28C380.067 183.28 380.286 183.221 380.488 183.104C380.696 182.981 380.862 182.805 380.984 182.576C381.112 182.347 381.176 182.08 381.176 181.776ZM382.774 182.784V182.096L385.462 178.24H386.566V181.992H387.31V182.784H386.566V184H385.67V182.784H382.774ZM385.71 179.168L383.822 181.992H385.71V179.168ZM388.066 181.008C388.066 180.085 388.221 179.365 388.53 178.848C388.845 178.325 389.383 178.064 390.146 178.064C390.909 178.064 391.445 178.325 391.754 178.848C392.069 179.365 392.226 180.085 392.226 181.008C392.226 181.941 392.069 182.672 391.754 183.2C391.445 183.723 390.909 183.984 390.146 183.984C389.383 183.984 388.845 183.723 388.53 183.2C388.221 182.672 388.066 181.941 388.066 181.008ZM391.33 181.008C391.33 180.576 391.301 180.211 391.242 179.912C391.189 179.613 391.077 179.371 390.906 179.184C390.735 178.992 390.482 178.896 390.146 178.896C389.81 178.896 389.557 178.992 389.386 179.184C389.215 179.371 389.101 179.613 389.042 179.912C388.989 180.211 388.962 180.576 388.962 181.008C388.962 181.456 388.989 181.832 389.042 182.136C389.095 182.44 389.207 182.685 389.378 182.872C389.554 183.059 389.81 183.152 390.146 183.152C390.482 183.152 390.735 183.059 390.906 182.872C391.082 182.685 391.197 182.44 391.25 182.136C391.303 181.832 391.33 181.456 391.33 181.008Z" fill="#808080"/>
<rect x="305" y="235" width="150" height="20" rx="10" fill="white" fill-opacity="0.1"/>
</svg>
