<svg xmlns="http://www.w3.org/2000/svg" fill="none" viewBox="0 0 60 80" height="80" width="60">
<path fill="#FF58FF" d="M30.377 52C28.721 52 27.245 51.64 25.949 50.92C24.677 50.176 23.681 49.168 22.961 47.896C22.241 46.6 21.881 45.124 21.881 43.468C21.881 41.788 22.241 40.312 22.961 39.04C23.681 37.744 24.677 36.736 25.949 36.016C27.245 35.272 28.721 34.9 30.377 34.9C32.033 34.9 33.497 35.272 34.769 36.016C36.041 36.736 37.037 37.744 37.757 39.04C38.477 40.312 38.837 41.788 38.837 43.468C38.837 45.124 38.477 46.6 37.757 47.896C37.037 49.168 36.041 50.176 34.769 50.92C33.497 51.64 32.033 52 30.377 52ZM30.341 48.76C31.325 48.76 32.189 48.544 32.933 48.112C33.701 47.656 34.301 47.032 34.733 46.24C35.165 45.424 35.381 44.5 35.381 43.468C35.381 42.412 35.165 41.488 34.733 40.696C34.301 39.904 33.701 39.28 32.933 38.824C32.189 38.368 31.325 38.14 30.341 38.14C29.357 38.14 28.481 38.368 27.713 38.824C26.969 39.28 26.381 39.904 25.949 40.696C25.541 41.488 25.337 42.412 25.337 43.468C25.337 44.5 25.541 45.424 25.949 46.24C26.381 47.032 26.969 47.656 27.713 48.112C28.481 48.544 29.357 48.76 30.341 48.76ZM23.069 38.86L31.421 24.928C31.853 24.256 32.405 23.92 33.077 23.92C33.581 23.92 34.001 24.064 34.337 24.352C34.673 24.64 34.877 25 34.949 25.432C35.045 25.864 34.961 26.296 34.697 26.728L29.585 35.224L23.069 38.86Z"></path>
<path fill="#FF59FF" d="M25.949 50.92L25.4441 51.7832C25.4505 51.7869 25.4569 51.7906 25.4634 51.7942L25.949 50.92ZM22.961 47.896L22.0868 48.3817L22.0908 48.3886L22.961 47.896ZM22.961 39.04L23.8313 39.5326L23.8352 39.5256L22.961 39.04ZM25.949 36.016L26.4416 36.8863L26.4469 36.8833L25.949 36.016ZM34.769 36.016L34.2641 36.8792C34.2682 36.8816 34.2723 36.8839 34.2764 36.8863L34.769 36.016ZM37.757 39.04L36.8828 39.5257L36.8868 39.5326L37.757 39.04ZM37.757 47.896L38.6273 48.3886L38.6312 48.3816L37.757 47.896ZM34.769 50.92L35.2616 51.7903C35.2657 51.7879 35.2698 51.7856 35.2739 51.7832L34.769 50.92ZM32.933 48.112L33.4352 48.9768L33.4436 48.9719L32.933 48.112ZM34.733 46.24L35.611 46.7189L35.6168 46.7079L34.733 46.24ZM32.933 38.824L32.4104 39.6767L32.4225 39.6839L32.933 38.824ZM27.713 38.824L27.2024 37.9641L27.1905 37.9714L27.713 38.824ZM25.949 40.696L25.0711 40.2171C25.0673 40.2241 25.0637 40.231 25.06 40.238L25.949 40.696ZM25.949 46.24L25.0546 46.6872C25.0599 46.6979 25.0654 46.7084 25.0711 46.7189L25.949 46.24ZM27.713 48.112L27.1905 48.9646C27.2011 48.9711 27.2119 48.9775 27.2228 48.9836L27.713 48.112ZM23.069 38.86L22.2113 38.3458C21.9784 38.7343 22.0357 39.2308 22.351 39.556C22.6663 39.8813 23.1608 39.954 23.5563 39.7332L23.069 38.86ZM31.421 24.928L30.5798 24.3872C30.5742 24.396 30.5687 24.4049 30.5633 24.4138L31.421 24.928ZM34.337 24.352L33.6862 25.1113L33.6862 25.1113L34.337 24.352ZM34.949 25.432L33.9626 25.5964C33.9656 25.614 33.969 25.6315 33.9728 25.6489L34.949 25.432ZM34.697 26.728L33.8437 26.2065L33.8402 26.2124L34.697 26.728ZM29.585 35.224L30.0723 36.0972C30.2246 36.0123 30.352 35.889 30.4419 35.7396L29.585 35.224ZM30.377 51C28.8707 51 27.5653 50.674 26.4347 50.0458L25.4634 51.7942C26.9247 52.606 28.5713 53 30.377 53V51ZM26.4539 50.0568C25.3329 49.4012 24.4636 48.5205 23.8313 47.4034L22.0908 48.3886C22.8985 49.8155 24.0211 50.9508 25.4441 51.7832L26.4539 50.0568ZM23.8352 47.4104C23.207 46.2797 22.881 44.9743 22.881 43.468H20.881C20.881 45.2737 21.275 46.9203 22.0869 48.3816L23.8352 47.4104ZM22.881 43.468C22.881 41.9345 23.2083 40.6332 23.8313 39.5326L22.0908 38.5474C21.2737 39.9908 20.881 41.6415 20.881 43.468H22.881ZM23.8352 39.5256C24.4672 38.3881 25.3322 37.5142 26.4416 36.8863L25.4564 35.1457C24.0219 35.9578 22.8949 37.0999 22.0869 38.5544L23.8352 39.5256ZM26.4469 36.8833C27.5754 36.2354 28.8764 35.9 30.377 35.9V33.9C28.5657 33.9 26.9146 34.3086 25.4511 35.1487L26.4469 36.8833ZM30.377 35.9C31.878 35.9 33.1636 36.2355 34.2641 36.8792L35.2739 35.1528C33.8304 34.3085 32.188 33.9 30.377 33.9V35.9ZM34.2764 36.8863C35.3859 37.5142 36.2509 38.3881 36.8829 39.5256L38.6312 38.5544C37.8232 37.0999 36.6962 35.9578 35.2616 35.1457L34.2764 36.8863ZM36.8868 39.5326C37.5097 40.6332 37.837 41.9345 37.837 43.468H39.837C39.837 41.6415 39.4443 39.9908 38.6273 38.5474L36.8868 39.5326ZM37.837 43.468C37.837 44.9743 37.511 46.2797 36.8829 47.4104L38.6312 48.3816C39.443 46.9203 39.837 45.2737 39.837 43.468H37.837ZM36.8868 47.4034C36.2545 48.5205 35.3851 49.4012 34.2641 50.0568L35.2739 51.7832C36.697 50.9508 37.8196 49.8155 38.6273 48.3886L36.8868 47.4034ZM34.2764 50.0497C33.1738 50.6739 31.8837 51 30.377 51V53C32.1823 53 33.8203 52.6061 35.2616 51.7903L34.2764 50.0497ZM30.341 49.76C31.4756 49.76 32.5178 49.5095 33.4352 48.9768L32.4309 47.2472C31.8602 47.5785 31.1744 47.76 30.341 47.76V49.76ZM33.4436 48.9719C34.3676 48.4232 35.0938 47.6669 35.6109 46.7189L33.8551 45.7611C33.5082 46.3971 33.0344 46.8888 32.4225 47.2521L33.4436 48.9719ZM35.6168 46.7079C36.1337 45.7314 36.381 44.6436 36.381 43.468H34.381C34.381 44.3564 34.1963 45.1166 33.8492 45.7721L35.6168 46.7079ZM36.381 43.468C36.381 42.2733 36.1357 41.1793 35.6109 40.2171L33.8551 41.1749C34.1943 41.7967 34.381 42.5507 34.381 43.468H36.381ZM35.6109 40.2171C35.0938 39.2691 34.3676 38.5128 33.4436 37.9641L32.4225 39.6839C33.0344 40.0472 33.5082 40.5389 33.8551 41.1749L35.6109 40.2171ZM33.4556 37.9714C32.5349 37.4071 31.4853 37.14 30.341 37.14V39.14C31.1647 39.14 31.8431 39.3289 32.4105 39.6766L33.4556 37.9714ZM30.341 37.14C29.1961 37.14 28.1404 37.4073 27.2025 37.9641L28.2236 39.6839C28.8216 39.3287 29.5179 39.14 30.341 39.14V37.14ZM27.1905 37.9714C26.2922 38.5219 25.5839 39.2771 25.0711 40.2171L26.8269 41.1749C27.1781 40.5309 27.6458 40.0381 28.2356 39.6766L27.1905 37.9714ZM25.06 40.238C24.5667 41.1957 24.337 42.2821 24.337 43.468H26.337C26.337 42.5419 26.5153 41.7803 26.838 41.154L25.06 40.238ZM24.337 43.468C24.337 44.6347 24.5685 45.7151 25.0546 46.6872L26.8434 45.7928C26.5135 45.1329 26.337 44.3653 26.337 43.468H24.337ZM25.0711 46.7189C25.5839 47.6589 26.2922 48.4141 27.1905 48.9646L28.2356 47.2594C27.6458 46.8979 27.1781 46.4051 26.8269 45.7611L25.0711 46.7189ZM27.2228 48.9836C28.1573 49.5093 29.2057 49.76 30.341 49.76V47.76C29.5083 47.76 28.8047 47.5787 28.2033 47.2404L27.2228 48.9836ZM23.9267 39.3742L32.2787 25.4422L30.5633 24.4138L22.2113 38.3458L23.9267 39.3742ZM32.2622 25.4688C32.5505 25.0203 32.8137 24.92 33.077 24.92V22.92C31.9964 22.92 31.1555 23.4917 30.5798 24.3872L32.2622 25.4688ZM33.077 24.92C33.3776 24.92 33.5565 25.0001 33.6862 25.1113L34.9878 23.5927C34.4455 23.1279 33.7845 22.92 33.077 22.92V24.92ZM33.6862 25.1113C33.8461 25.2483 33.9297 25.3986 33.9626 25.5964L35.9354 25.2676C35.8244 24.6014 35.5 24.0317 34.9878 23.5927L33.6862 25.1113ZM33.9728 25.6489C34.0045 25.7914 33.9937 25.9611 33.8437 26.2066L35.5503 27.2494C35.9283 26.6309 36.0855 25.9366 35.9252 25.2151L33.9728 25.6489ZM33.8402 26.2124L28.7282 34.7084L30.4419 35.7396L35.5539 27.2436L33.8402 26.2124ZM29.0977 34.3508L22.5817 37.9868L23.5563 39.7332L30.0723 36.0972L29.0977 34.3508Z"></path>
</svg>
