<svg width="240" height="50" viewBox="0 0 240 50" fill="none" xmlns="http://www.w3.org/2000/svg">
<path d="M5.232 22L3.312 18.664H2.268V22H0.9V13.66H3.78C4.42 13.66 4.96 13.772 5.4 13.996C5.848 14.22 6.18 14.52 6.396 14.896C6.62 15.272 6.732 15.692 6.732 16.156C6.732 16.7 6.572 17.196 6.252 17.644C5.94 18.084 5.456 18.384 4.8 18.544L6.864 22H5.232ZM2.268 17.572H3.78C4.292 17.572 4.676 17.444 4.932 17.188C5.196 16.932 5.328 16.588 5.328 16.156C5.328 15.724 5.2 15.388 4.944 15.148C4.688 14.9 4.3 14.776 3.78 14.776H2.268V17.572ZM14.542 18.532C14.542 18.78 14.526 19.004 14.494 19.204H9.44203C9.48203 19.732 9.67803 20.156 10.03 20.476C10.382 20.796 10.814 20.956 11.326 20.956C12.062 20.956 12.582 20.648 12.886 20.032H14.362C14.162 20.64 13.798 21.14 13.27 21.532C12.75 21.916 12.102 22.108 11.326 22.108C10.694 22.108 10.126 21.968 9.62203 21.688C9.12603 21.4 8.73403 21 8.44603 20.488C8.16603 19.968 8.02603 19.368 8.02603 18.688C8.02603 18.008 8.16203 17.412 8.43403 16.9C8.71403 16.38 9.10203 15.98 9.59803 15.7C10.102 15.42 10.678 15.28 11.326 15.28C11.95 15.28 12.506 15.416 12.994 15.688C13.482 15.96 13.862 16.344 14.134 16.84C14.406 17.328 14.542 17.892 14.542 18.532ZM13.114 18.1C13.106 17.596 12.926 17.192 12.574 16.888C12.222 16.584 11.786 16.432 11.266 16.432C10.794 16.432 10.39 16.584 10.054 16.888C9.71803 17.184 9.51803 17.588 9.45403 18.1H13.114ZM18.4443 20.776L20.3163 15.388H21.7683L19.2483 22H17.6163L15.1083 15.388H16.5723L18.4443 20.776ZM23.4983 14.512C23.2503 14.512 23.0423 14.428 22.8743 14.26C22.7063 14.092 22.6223 13.884 22.6223 13.636C22.6223 13.388 22.7063 13.18 22.8743 13.012C23.0423 12.844 23.2503 12.76 23.4983 12.76C23.7383 12.76 23.9423 12.844 24.1103 13.012C24.2783 13.18 24.3623 13.388 24.3623 13.636C24.3623 13.884 24.2783 14.092 24.1103 14.26C23.9423 14.428 23.7383 14.512 23.4983 14.512ZM24.1703 15.388V22H22.8023V15.388H24.1703ZM28.5224 20.776L30.3944 15.388H31.8464L29.3264 22H27.6944L25.1864 15.388H26.6504L28.5224 20.776ZM38.9405 18.532C38.9405 18.78 38.9245 19.004 38.8925 19.204H33.8405C33.8805 19.732 34.0765 20.156 34.4285 20.476C34.7805 20.796 35.2125 20.956 35.7245 20.956C36.4605 20.956 36.9805 20.648 37.2845 20.032H38.7605C38.5605 20.64 38.1965 21.14 37.6685 21.532C37.1485 21.916 36.5005 22.108 35.7245 22.108C35.0925 22.108 34.5245 21.968 34.0205 21.688C33.5245 21.4 33.1325 21 32.8445 20.488C32.5645 19.968 32.4245 19.368 32.4245 18.688C32.4245 18.008 32.5605 17.412 32.8325 16.9C33.1125 16.38 33.5005 15.98 33.9965 15.7C34.5005 15.42 35.0765 15.28 35.7245 15.28C36.3485 15.28 36.9045 15.416 37.3925 15.688C37.8805 15.96 38.2605 16.344 38.5325 16.84C38.8045 17.328 38.9405 17.892 38.9405 18.532ZM37.5125 18.1C37.5045 17.596 37.3245 17.192 36.9725 16.888C36.6205 16.584 36.1845 16.432 35.6645 16.432C35.1925 16.432 34.7885 16.584 34.4525 16.888C34.1165 17.184 33.9165 17.588 33.8525 18.1H37.5125Z" fill="black"/>
<path d="M5.24 31.05V31.98H3.39V38H2.25V31.98H0.39V31.05H5.24ZM7.53453 33.29C7.7012 33.01 7.9212 32.7933 8.19453 32.64C8.47453 32.48 8.80453 32.4 9.18453 32.4V33.58H8.89453C8.44786 33.58 8.10786 33.6933 7.87453 33.92C7.64786 34.1467 7.53453 34.54 7.53453 35.1V38H6.39453V32.49H7.53453V33.29ZM10.8124 31.76C10.6058 31.76 10.4324 31.69 10.2924 31.55C10.1524 31.41 10.0824 31.2367 10.0824 31.03C10.0824 30.8233 10.1524 30.65 10.2924 30.51C10.4324 30.37 10.6058 30.3 10.8124 30.3C11.0124 30.3 11.1824 30.37 11.3224 30.51C11.4624 30.65 11.5324 30.8233 11.5324 31.03C11.5324 31.2367 11.4624 31.41 11.3224 31.55C11.1824 31.69 11.0124 31.76 10.8124 31.76ZM11.3724 32.49V38H10.2324V32.49H11.3724ZM14.0091 33.3C14.2025 33.0467 14.4658 32.8333 14.7991 32.66C15.1325 32.4867 15.5091 32.4 15.9291 32.4C16.4091 32.4 16.8458 32.52 17.2391 32.76C17.6391 32.9933 17.9525 33.3233 18.1791 33.75C18.4058 34.1767 18.5191 34.6667 18.5191 35.22C18.5191 35.7733 18.4058 36.27 18.1791 36.71C17.9525 37.1433 17.6391 37.4833 17.2391 37.73C16.8458 37.97 16.4091 38.09 15.9291 38.09C15.5091 38.09 15.1358 38.0067 14.8091 37.84C14.4825 37.6667 14.2158 37.4533 14.0091 37.2V40.62H12.8691V32.49H14.0091V33.3ZM17.3591 35.22C17.3591 34.84 17.2791 34.5133 17.1191 34.24C16.9658 33.96 16.7591 33.75 16.4991 33.61C16.2458 33.4633 15.9725 33.39 15.6791 33.39C15.3925 33.39 15.1191 33.4633 14.8591 33.61C14.6058 33.7567 14.3991 33.97 14.2391 34.25C14.0858 34.53 14.0091 34.86 14.0091 35.24C14.0091 35.62 14.0858 35.9533 14.2391 36.24C14.3991 36.52 14.6058 36.7333 14.8591 36.88C15.1191 37.0267 15.3925 37.1 15.6791 37.1C15.9725 37.1 16.2458 37.0267 16.4991 36.88C16.7591 36.7267 16.9658 36.5067 17.1191 36.22C17.2791 35.9333 17.3591 35.6 17.3591 35.22ZM19.3565 36.48V35.62L22.7165 30.8H24.0965V35.49H25.0265V36.48H24.0965V38H22.9765V36.48H19.3565ZM23.0265 31.96L20.6665 35.49H23.0265V31.96ZM25.9711 34.26C25.9711 33.1067 26.1644 32.2067 26.5511 31.56C26.9444 30.9067 27.6178 30.58 28.5711 30.58C29.5244 30.58 30.1944 30.9067 30.5811 31.56C30.9744 32.2067 31.1711 33.1067 31.1711 34.26C31.1711 35.4267 30.9744 36.34 30.5811 37C30.1944 37.6533 29.5244 37.98 28.5711 37.98C27.6178 37.98 26.9444 37.6533 26.5511 37C26.1644 36.34 25.9711 35.4267 25.9711 34.26ZM30.0511 34.26C30.0511 33.72 30.0144 33.2633 29.9411 32.89C29.8744 32.5167 29.7344 32.2133 29.5211 31.98C29.3078 31.74 28.9911 31.62 28.5711 31.62C28.1511 31.62 27.8344 31.74 27.6211 31.98C27.4078 32.2133 27.2644 32.5167 27.1911 32.89C27.1244 33.2633 27.0911 33.72 27.0911 34.26C27.0911 34.82 27.1244 35.29 27.1911 35.67C27.2578 36.05 27.3978 36.3567 27.6111 36.59C27.8311 36.8233 28.1511 36.94 28.5711 36.94C28.9911 36.94 29.3078 36.8233 29.5211 36.59C29.7411 36.3567 29.8844 36.05 29.9511 35.67C30.0178 35.29 30.0511 34.82 30.0511 34.26Z" fill="#808080"/>
</svg>
