<svg width="480" height="360" viewBox="0 0 480 360" fill="none" xmlns="http://www.w3.org/2000/svg">
<path d="M0 0H130C141.046 0 150 8.95431 150 20V340C150 351.046 141.046 360 130 360H0V0Z" fill="#191919"/>
<path d="M53.904 20.728H49.248L48.448 23H46.544L50.528 11.864H52.64L56.624 23H54.704L53.904 20.728ZM53.392 19.24L51.584 14.072L49.76 19.24H53.392ZM62.8043 14.04C63.4976 14.04 64.1163 14.184 64.6603 14.472C65.2149 14.76 65.6469 15.1867 65.9563 15.752C66.2656 16.3173 66.4203 17 66.4203 17.8V23H64.6123V18.072C64.6123 17.2827 64.4149 16.68 64.0203 16.264C63.6256 15.8373 63.0869 15.624 62.4043 15.624C61.7216 15.624 61.1776 15.8373 60.7723 16.264C60.3776 16.68 60.1803 17.2827 60.1803 18.072V23H58.3563V14.184H60.1803V15.192C60.4789 14.8293 60.8576 14.5467 61.3163 14.344C61.7856 14.1413 62.2816 14.04 62.8043 14.04ZM69.6749 13.016C69.3442 13.016 69.0669 12.904 68.8429 12.68C68.6189 12.456 68.5069 12.1787 68.5069 11.848C68.5069 11.5173 68.6189 11.24 68.8429 11.016C69.0669 10.792 69.3442 10.68 69.6749 10.68C69.9949 10.68 70.2669 10.792 70.4909 11.016C70.7149 11.24 70.8269 11.5173 70.8269 11.848C70.8269 12.1787 70.7149 12.456 70.4909 12.68C70.2669 12.904 69.9949 13.016 69.6749 13.016ZM70.5709 14.184V23H68.7469V14.184H70.5709ZM83.6376 14.04C84.331 14.04 84.9496 14.184 85.4936 14.472C86.0483 14.76 86.4803 15.1867 86.7896 15.752C87.1096 16.3173 87.2696 17 87.2696 17.8V23H85.4616V18.072C85.4616 17.2827 85.2643 16.68 84.8696 16.264C84.475 15.8373 83.9363 15.624 83.2536 15.624C82.571 15.624 82.027 15.8373 81.6216 16.264C81.227 16.68 81.0296 17.2827 81.0296 18.072V23H79.2216V18.072C79.2216 17.2827 79.0243 16.68 78.6296 16.264C78.235 15.8373 77.6963 15.624 77.0136 15.624C76.331 15.624 75.787 15.8373 75.3816 16.264C74.987 16.68 74.7896 17.2827 74.7896 18.072V23H72.9656V14.184H74.7896V15.192C75.0883 14.8293 75.467 14.5467 75.9256 14.344C76.3843 14.1413 76.875 14.04 77.3976 14.04C78.1016 14.04 78.731 14.1893 79.2856 14.488C79.8403 14.7867 80.267 15.2187 80.5656 15.784C80.8323 15.2507 81.2483 14.8293 81.8136 14.52C82.379 14.2 82.987 14.04 83.6376 14.04ZM88.9826 18.552C88.9826 17.6667 89.164 16.8827 89.5266 16.2C89.9 15.5173 90.4013 14.9893 91.0306 14.616C91.6706 14.232 92.3746 14.04 93.1426 14.04C93.836 14.04 94.4386 14.1787 94.9506 14.456C95.4733 14.7227 95.8893 15.0587 96.1986 15.464V14.184H98.0386V23H96.1986V21.688C95.8893 22.104 95.468 22.4507 94.9346 22.728C94.4013 23.0053 93.7933 23.144 93.1106 23.144C92.3533 23.144 91.66 22.952 91.0306 22.568C90.4013 22.1733 89.9 21.6293 89.5266 20.936C89.164 20.232 88.9826 19.4373 88.9826 18.552ZM96.1986 18.584C96.1986 17.976 96.0706 17.448 95.8146 17C95.5693 16.552 95.244 16.2107 94.8386 15.976C94.4333 15.7413 93.996 15.624 93.5266 15.624C93.0573 15.624 92.62 15.7413 92.2146 15.976C91.8093 16.2 91.4786 16.536 91.2226 16.984C90.9773 17.4213 90.8546 17.944 90.8546 18.552C90.8546 19.16 90.9773 19.6933 91.2226 20.152C91.4786 20.6107 91.8093 20.9627 92.2146 21.208C92.6306 21.4427 93.068 21.56 93.5266 21.56C93.996 21.56 94.4333 21.4427 94.8386 21.208C95.244 20.9733 95.5693 20.632 95.8146 20.184C96.0706 19.7253 96.1986 19.192 96.1986 18.584ZM102.562 15.672V20.552C102.562 20.8827 102.637 21.1227 102.786 21.272C102.946 21.4107 103.213 21.48 103.586 21.48H104.706V23H103.266C102.445 23 101.816 22.808 101.378 22.424C100.941 22.04 100.722 21.416 100.722 20.552V15.672H99.6824V14.184H100.722V11.992H102.562V14.184H104.706V15.672H102.562ZM114.468 18.376C114.468 18.7067 114.446 19.0053 114.404 19.272H107.668C107.721 19.976 107.982 20.5413 108.452 20.968C108.921 21.3947 109.497 21.608 110.18 21.608C111.161 21.608 111.854 21.1973 112.26 20.376H114.227C113.961 21.1867 113.476 21.8533 112.772 22.376C112.078 22.888 111.214 23.144 110.18 23.144C109.337 23.144 108.58 22.9573 107.908 22.584C107.246 22.2 106.724 21.6667 106.34 20.984C105.966 20.2907 105.78 19.4907 105.78 18.584C105.78 17.6773 105.961 16.8827 106.324 16.2C106.697 15.5067 107.214 14.9733 107.876 14.6C108.548 14.2267 109.316 14.04 110.18 14.04C111.012 14.04 111.753 14.2213 112.404 14.584C113.054 14.9467 113.561 15.4587 113.924 16.12C114.286 16.7707 114.468 17.5227 114.468 18.376ZM112.564 17.8C112.553 17.128 112.313 16.5893 111.844 16.184C111.374 15.7787 110.793 15.576 110.1 15.576C109.47 15.576 108.932 15.7787 108.484 16.184C108.036 16.5787 107.769 17.1173 107.684 17.8H112.564ZM115.655 18.552C115.655 17.6667 115.836 16.8827 116.199 16.2C116.572 15.5173 117.073 14.9893 117.703 14.616C118.343 14.232 119.052 14.04 119.831 14.04C120.407 14.04 120.972 14.168 121.527 14.424C122.092 14.6693 122.54 15 122.871 15.416V11.16H124.711V23H122.871V21.672C122.572 22.0987 122.156 22.4507 121.623 22.728C121.1 23.0053 120.497 23.144 119.815 23.144C119.047 23.144 118.343 22.952 117.703 22.568C117.073 22.1733 116.572 21.6293 116.199 20.936C115.836 20.232 115.655 19.4373 115.655 18.552ZM122.871 18.584C122.871 17.976 122.743 17.448 122.487 17C122.241 16.552 121.916 16.2107 121.511 15.976C121.105 15.7413 120.668 15.624 120.199 15.624C119.729 15.624 119.292 15.7413 118.887 15.976C118.481 16.2 118.151 16.536 117.895 16.984C117.649 17.4213 117.527 17.944 117.527 18.552C117.527 19.16 117.649 19.6933 117.895 20.152C118.151 20.6107 118.481 20.9627 118.887 21.208C119.303 21.4427 119.74 21.56 120.199 21.56C120.668 21.56 121.105 21.4427 121.511 21.208C121.916 20.9733 122.241 20.632 122.487 20.184C122.743 19.7253 122.871 19.192 122.871 18.584ZM48.128 29.016C47.7973 29.016 47.52 28.904 47.296 28.68C47.072 28.456 46.96 28.1787 46.96 27.848C46.96 27.5173 47.072 27.24 47.296 27.016C47.52 26.792 47.7973 26.68 48.128 26.68C48.448 26.68 48.72 26.792 48.944 27.016C49.168 27.24 49.28 27.5173 49.28 27.848C49.28 28.1787 49.168 28.456 48.944 28.68C48.72 28.904 48.448 29.016 48.128 29.016ZM49.024 30.184V39H47.2V30.184H49.024ZM62.0908 30.04C62.7841 30.04 63.4028 30.184 63.9468 30.472C64.5014 30.76 64.9334 31.1867 65.2428 31.752C65.5628 32.3173 65.7228 33 65.7228 33.8V39H63.9148V34.072C63.9148 33.2827 63.7174 32.68 63.3228 32.264C62.9281 31.8373 62.3894 31.624 61.7068 31.624C61.0241 31.624 60.4801 31.8373 60.0748 32.264C59.6801 32.68 59.4828 33.2827 59.4828 34.072V39H57.6748V34.072C57.6748 33.2827 57.4774 32.68 57.0828 32.264C56.6881 31.8373 56.1494 31.624 55.4668 31.624C54.7841 31.624 54.2401 31.8373 53.8348 32.264C53.4401 32.68 53.2428 33.2827 53.2428 34.072V39H51.4188V30.184H53.2428V31.192C53.5414 30.8293 53.9201 30.5467 54.3788 30.344C54.8374 30.1413 55.3281 30.04 55.8508 30.04C56.5548 30.04 57.1841 30.1893 57.7388 30.488C58.2934 30.7867 58.7201 31.2187 59.0188 31.784C59.2854 31.2507 59.7014 30.8293 60.2668 30.52C60.8321 30.2 61.4401 30.04 62.0908 30.04ZM67.4358 34.552C67.4358 33.6667 67.6171 32.8827 67.9798 32.2C68.3531 31.5173 68.8544 30.9893 69.4838 30.616C70.1238 30.232 70.8278 30.04 71.5958 30.04C72.2891 30.04 72.8918 30.1787 73.4038 30.456C73.9264 30.7227 74.3424 31.0587 74.6518 31.464V30.184H76.4918V39H74.6518V37.688C74.3424 38.104 73.9211 38.4507 73.3878 38.728C72.8544 39.0053 72.2464 39.144 71.5638 39.144C70.8064 39.144 70.1131 38.952 69.4838 38.568C68.8544 38.1733 68.3531 37.6293 67.9798 36.936C67.6171 36.232 67.4358 35.4373 67.4358 34.552ZM74.6518 34.584C74.6518 33.976 74.5238 33.448 74.2678 33C74.0224 32.552 73.6971 32.2107 73.2918 31.976C72.8864 31.7413 72.4491 31.624 71.9798 31.624C71.5104 31.624 71.0731 31.7413 70.6678 31.976C70.2624 32.2 69.9318 32.536 69.6758 32.984C69.4304 33.4213 69.3078 33.944 69.3078 34.552C69.3078 35.16 69.4304 35.6933 69.6758 36.152C69.9318 36.6107 70.2624 36.9627 70.6678 37.208C71.0838 37.4427 71.5211 37.56 71.9798 37.56C72.4491 37.56 72.8864 37.4427 73.2918 37.208C73.6971 36.9733 74.0224 36.632 74.2678 36.184C74.5238 35.7253 74.6518 35.192 74.6518 34.584ZM82.4395 30.04C83.1222 30.04 83.7248 30.1787 84.2475 30.456C84.7808 30.7227 85.1968 31.0587 85.4955 31.464V30.184H87.3355V39.144C87.3355 39.9547 87.1648 40.6747 86.8235 41.304C86.4822 41.944 85.9862 42.4453 85.3355 42.808C84.6955 43.1707 83.9275 43.352 83.0315 43.352C81.8368 43.352 80.8448 43.0693 80.0555 42.504C79.2662 41.9493 78.8182 41.192 78.7115 40.232H80.5195C80.6582 40.6907 80.9515 41.0587 81.3995 41.336C81.8582 41.624 82.4022 41.768 83.0315 41.768C83.7675 41.768 84.3595 41.544 84.8075 41.096C85.2662 40.648 85.4955 39.9973 85.4955 39.144V37.672C85.1862 38.088 84.7648 38.44 84.2315 38.728C83.7088 39.0053 83.1115 39.144 82.4395 39.144C81.6715 39.144 80.9675 38.952 80.3275 38.568C79.6982 38.1733 79.1968 37.6293 78.8235 36.936C78.4608 36.232 78.2795 35.4373 78.2795 34.552C78.2795 33.6667 78.4608 32.8827 78.8235 32.2C79.1968 31.5173 79.6982 30.9893 80.3275 30.616C80.9675 30.232 81.6715 30.04 82.4395 30.04ZM85.4955 34.584C85.4955 33.976 85.3675 33.448 85.1115 33C84.8662 32.552 84.5408 32.2107 84.1355 31.976C83.7302 31.7413 83.2928 31.624 82.8235 31.624C82.3542 31.624 81.9168 31.7413 81.5115 31.976C81.1062 32.2 80.7755 32.536 80.5195 32.984C80.2742 33.4213 80.1515 33.944 80.1515 34.552C80.1515 35.16 80.2742 35.6933 80.5195 36.152C80.7755 36.6107 81.1062 36.9627 81.5115 37.208C81.9275 37.4427 82.3648 37.56 82.8235 37.56C83.2928 37.56 83.7302 37.4427 84.1355 37.208C84.5408 36.9733 84.8662 36.632 85.1115 36.184C85.3675 35.7253 85.4955 35.192 85.4955 34.584ZM97.8113 34.376C97.8113 34.7067 97.7899 35.0053 97.7473 35.272H91.0113C91.0646 35.976 91.3259 36.5413 91.7953 36.968C92.2646 37.3947 92.8406 37.608 93.5233 37.608C94.5046 37.608 95.1979 37.1973 95.6033 36.376H97.5712C97.3046 37.1867 96.8193 37.8533 96.1153 38.376C95.4219 38.888 94.5579 39.144 93.5233 39.144C92.6806 39.144 91.9233 38.9573 91.2513 38.584C90.5899 38.2 90.0673 37.6667 89.6833 36.984C89.3099 36.2907 89.1233 35.4907 89.1233 34.584C89.1233 33.6773 89.3046 32.8827 89.6673 32.2C90.0406 31.5067 90.5579 30.9733 91.2193 30.6C91.8913 30.2267 92.6593 30.04 93.5233 30.04C94.3553 30.04 95.0966 30.2213 95.7473 30.584C96.3979 30.9467 96.9046 31.4587 97.2673 32.12C97.6299 32.7707 97.8113 33.5227 97.8113 34.376ZM95.9073 33.8C95.8966 33.128 95.6566 32.5893 95.1873 32.184C94.7179 31.7787 94.1366 31.576 93.4433 31.576C92.8139 31.576 92.2753 31.7787 91.8273 32.184C91.3793 32.5787 91.1126 33.1173 91.0273 33.8H95.9073Z" fill="white"/>
<circle cx="17" cy="25" r="4.5" fill="#6C6C6C" stroke="#191919"/>
<circle cx="23" cy="25" r="4.5" fill="#BBBBBB" stroke="#191919"/>
<circle cx="29" cy="25" r="4.5" fill="white" stroke="#191919"/>
<path d="M9 64.9367C9 64.3432 9.26365 63.7803 9.71963 63.4003L13.7196 60.067C14.4613 59.4489 15.5387 59.4489 16.2804 60.067L20.2804 63.4003C20.7364 63.7803 21 64.3432 21 64.9367V69C21 70.1046 20.1046 71 19 71H17V67C17 66.4477 16.5523 66 16 66H14C13.4477 66 13 66.4477 13 67V71H11C9.89543 71 9 70.1046 9 69V64.9367Z" fill="white"/>
<path d="M37.56 60.66V69H36.192V65.352H32.268V69H30.9V60.66H32.268V64.236H36.192V60.66H37.56ZM42.2289 69.108C41.6049 69.108 41.0409 68.968 40.5369 68.688C40.0329 68.4 39.6369 68 39.3489 67.488C39.0609 66.968 38.9169 66.368 38.9169 65.688C38.9169 65.016 39.0649 64.42 39.3609 63.9C39.6569 63.38 40.0609 62.98 40.5729 62.7C41.0849 62.42 41.6569 62.28 42.2889 62.28C42.9209 62.28 43.4929 62.42 44.0049 62.7C44.5169 62.98 44.9209 63.38 45.2169 63.9C45.5129 64.42 45.6609 65.016 45.6609 65.688C45.6609 66.36 45.5089 66.956 45.2049 67.476C44.9009 67.996 44.4849 68.4 43.9569 68.688C43.4369 68.968 42.8609 69.108 42.2289 69.108ZM42.2289 67.92C42.5809 67.92 42.9089 67.836 43.2129 67.668C43.5249 67.5 43.7769 67.248 43.9689 66.912C44.1609 66.576 44.2569 66.168 44.2569 65.688C44.2569 65.208 44.1649 64.804 43.9809 64.476C43.7969 64.14 43.5529 63.888 43.2489 63.72C42.9449 63.552 42.6169 63.468 42.2649 63.468C41.9129 63.468 41.5849 63.552 41.2809 63.72C40.9849 63.888 40.7489 64.14 40.5729 64.476C40.3969 64.804 40.3089 65.208 40.3089 65.688C40.3089 66.4 40.4889 66.952 40.8489 67.344C41.2169 67.728 41.6769 67.92 42.2289 67.92ZM55.0173 62.28C55.5373 62.28 56.0013 62.388 56.4093 62.604C56.8253 62.82 57.1493 63.14 57.3813 63.564C57.6213 63.988 57.7413 64.5 57.7413 65.1V69H56.3853V65.304C56.3853 64.712 56.2373 64.26 55.9413 63.948C55.6453 63.628 55.2413 63.468 54.7293 63.468C54.2173 63.468 53.8093 63.628 53.5053 63.948C53.2093 64.26 53.0613 64.712 53.0613 65.304V69H51.7053V65.304C51.7053 64.712 51.5573 64.26 51.2613 63.948C50.9653 63.628 50.5613 63.468 50.0493 63.468C49.5373 63.468 49.1293 63.628 48.8253 63.948C48.5293 64.26 48.3813 64.712 48.3813 65.304V69H47.0133V62.388H48.3813V63.144C48.6053 62.872 48.8893 62.66 49.2333 62.508C49.5773 62.356 49.9453 62.28 50.3373 62.28C50.8653 62.28 51.3373 62.392 51.7533 62.616C52.1693 62.84 52.4893 63.164 52.7133 63.588C52.9133 63.188 53.2253 62.872 53.6493 62.64C54.0733 62.4 54.5293 62.28 55.0173 62.28ZM65.542 65.532C65.542 65.78 65.526 66.004 65.494 66.204H60.442C60.482 66.732 60.678 67.156 61.03 67.476C61.382 67.796 61.814 67.956 62.326 67.956C63.062 67.956 63.582 67.648 63.886 67.032H65.362C65.162 67.64 64.798 68.14 64.27 68.532C63.75 68.916 63.102 69.108 62.326 69.108C61.694 69.108 61.126 68.968 60.622 68.688C60.126 68.4 59.734 68 59.446 67.488C59.166 66.968 59.026 66.368 59.026 65.688C59.026 65.008 59.162 64.412 59.434 63.9C59.714 63.38 60.102 62.98 60.598 62.7C61.102 62.42 61.678 62.28 62.326 62.28C62.95 62.28 63.506 62.416 63.994 62.688C64.482 62.96 64.862 63.344 65.134 63.84C65.406 64.328 65.542 64.892 65.542 65.532ZM64.114 65.1C64.106 64.596 63.926 64.192 63.574 63.888C63.222 63.584 62.786 63.432 62.266 63.432C61.794 63.432 61.39 63.584 61.054 63.888C60.718 64.184 60.518 64.588 60.454 65.1H64.114Z" fill="white"/>
<path d="M37.752 99H36.384L32.268 92.772V99H30.9V90.648H32.268L36.384 96.864V90.648H37.752V99ZM45.6084 95.532C45.6084 95.78 45.5924 96.004 45.5604 96.204H40.5084C40.5484 96.732 40.7444 97.156 41.0964 97.476C41.4484 97.796 41.8804 97.956 42.3924 97.956C43.1284 97.956 43.6484 97.648 43.9524 97.032H45.4284C45.2284 97.64 44.8644 98.14 44.3364 98.532C43.8164 98.916 43.1684 99.108 42.3924 99.108C41.7604 99.108 41.1924 98.968 40.6884 98.688C40.1924 98.4 39.8004 98 39.5124 97.488C39.2324 96.968 39.0924 96.368 39.0924 95.688C39.0924 95.008 39.2284 94.412 39.5004 93.9C39.7804 93.38 40.1684 92.98 40.6644 92.7C41.1684 92.42 41.7444 92.28 42.3924 92.28C43.0164 92.28 43.5724 92.416 44.0604 92.688C44.5484 92.96 44.9284 93.344 45.2004 93.84C45.4724 94.328 45.6084 94.892 45.6084 95.532ZM44.1804 95.1C44.1724 94.596 43.9924 94.192 43.6404 93.888C43.2884 93.584 42.8524 93.432 42.3324 93.432C41.8604 93.432 41.4564 93.584 41.1204 93.888C40.7844 94.184 40.5844 94.588 40.5204 95.1H44.1804ZM55.8347 92.388L53.7827 99H52.3427L51.0107 94.116L49.6787 99H48.2387L46.1747 92.388H47.5667L48.9467 97.704L50.3507 92.388H51.7787L53.1227 97.68L54.4907 92.388H55.8347ZM62.7462 93.504H61.5222V99H60.1422V93.504H59.3622V92.388H60.1422V91.92C60.1422 91.16 60.3422 90.608 60.7422 90.264C61.1502 89.912 61.7862 89.736 62.6502 89.736V90.876C62.2342 90.876 61.9422 90.956 61.7742 91.116C61.6062 91.268 61.5222 91.536 61.5222 91.92V92.388H62.7462V93.504ZM64.6546 91.512C64.4066 91.512 64.1986 91.428 64.0306 91.26C63.8626 91.092 63.7786 90.884 63.7786 90.636C63.7786 90.388 63.8626 90.18 64.0306 90.012C64.1986 89.844 64.4066 89.76 64.6546 89.76C64.8946 89.76 65.0986 89.844 65.2666 90.012C65.4346 90.18 65.5186 90.388 65.5186 90.636C65.5186 90.884 65.4346 91.092 65.2666 91.26C65.0986 91.428 64.8946 91.512 64.6546 91.512ZM65.3266 92.388V99H63.9586V92.388H65.3266ZM68.4907 90.12V99H67.1227V90.12H68.4907ZM76.3467 95.532C76.3467 95.78 76.3307 96.004 76.2987 96.204H71.2467C71.2867 96.732 71.4827 97.156 71.8347 97.476C72.1867 97.796 72.6187 97.956 73.1307 97.956C73.8667 97.956 74.3867 97.648 74.6907 97.032H76.1667C75.9667 97.64 75.6027 98.14 75.0747 98.532C74.5547 98.916 73.9067 99.108 73.1307 99.108C72.4987 99.108 71.9307 98.968 71.4267 98.688C70.9307 98.4 70.5387 98 70.2507 97.488C69.9707 96.968 69.8307 96.368 69.8307 95.688C69.8307 95.008 69.9667 94.412 70.2387 93.9C70.5187 93.38 70.9067 92.98 71.4027 92.7C71.9067 92.42 72.4827 92.28 73.1307 92.28C73.7547 92.28 74.3107 92.416 74.7987 92.688C75.2867 92.96 75.6667 93.344 75.9387 93.84C76.2107 94.328 76.3467 94.892 76.3467 95.532ZM74.9187 95.1C74.9107 94.596 74.7307 94.192 74.3787 93.888C74.0267 93.584 73.5907 93.432 73.0707 93.432C72.5987 93.432 72.1947 93.584 71.8587 93.888C71.5227 94.184 71.3227 94.588 71.2587 95.1H74.9187Z" fill="white"/>
<path d="M9 95C9 94.4477 9.44772 94 10 94H20C20.5523 94 21 94.4477 21 95C21 95.5523 20.5523 96 20 96H10C9.44772 96 9 95.5523 9 95Z" fill="white"/>
<path d="M15 89C15.5523 89 16 89.4477 16 90L16 100C16 100.552 15.5523 101 15 101C14.4477 101 14 100.552 14 100L14 90C14 89.4477 14.4477 89 15 89Z" fill="white"/>
<path d="M33.648 159.084C33.088 159.084 32.584 158.988 32.136 158.796C31.688 158.596 31.336 158.316 31.08 157.956C30.824 157.596 30.696 157.176 30.696 156.696H32.16C32.192 157.056 32.332 157.352 32.58 157.584C32.836 157.816 33.192 157.932 33.648 157.932C34.12 157.932 34.488 157.82 34.752 157.596C35.016 157.364 35.148 157.068 35.148 156.708C35.148 156.428 35.064 156.2 34.896 156.024C34.736 155.848 34.532 155.712 34.284 155.616C34.044 155.52 33.708 155.416 33.276 155.304C32.732 155.16 32.288 155.016 31.944 154.872C31.608 154.72 31.32 154.488 31.08 154.176C30.84 153.864 30.72 153.448 30.72 152.928C30.72 152.448 30.84 152.028 31.08 151.668C31.32 151.308 31.656 151.032 32.088 150.84C32.52 150.648 33.02 150.552 33.588 150.552C34.396 150.552 35.056 150.756 35.568 151.164C36.088 151.564 36.376 152.116 36.432 152.82H34.92C34.896 152.516 34.752 152.256 34.488 152.04C34.224 151.824 33.876 151.716 33.444 151.716C33.052 151.716 32.732 151.816 32.484 152.016C32.236 152.216 32.112 152.504 32.112 152.88C32.112 153.136 32.188 153.348 32.34 153.516C32.5 153.676 32.7 153.804 32.94 153.9C33.18 153.996 33.508 154.1 33.924 154.212C34.476 154.364 34.924 154.516 35.268 154.668C35.62 154.82 35.916 155.056 36.156 155.376C36.404 155.688 36.528 156.108 36.528 156.636C36.528 157.06 36.412 157.46 36.18 157.836C35.956 158.212 35.624 158.516 35.184 158.748C34.752 158.972 34.24 159.084 33.648 159.084ZM37.6862 155.664C37.6862 155 37.8222 154.412 38.0942 153.9C38.3742 153.388 38.7502 152.992 39.2222 152.712C39.7022 152.424 40.2302 152.28 40.8062 152.28C41.3262 152.28 41.7782 152.384 42.1622 152.592C42.5542 152.792 42.8662 153.044 43.0982 153.348V152.388H44.4782V159H43.0982V158.016C42.8662 158.328 42.5502 158.588 42.1502 158.796C41.7502 159.004 41.2942 159.108 40.7822 159.108C40.2142 159.108 39.6942 158.964 39.2222 158.676C38.7502 158.38 38.3742 157.972 38.0942 157.452C37.8222 156.924 37.6862 156.328 37.6862 155.664ZM43.0982 155.688C43.0982 155.232 43.0022 154.836 42.8102 154.5C42.6262 154.164 42.3822 153.908 42.0782 153.732C41.7742 153.556 41.4462 153.468 41.0942 153.468C40.7422 153.468 40.4142 153.556 40.1102 153.732C39.8062 153.9 39.5582 154.152 39.3662 154.488C39.1822 154.816 39.0902 155.208 39.0902 155.664C39.0902 156.12 39.1822 156.52 39.3662 156.864C39.5582 157.208 39.8062 157.472 40.1102 157.656C40.4222 157.832 40.7502 157.92 41.0942 157.92C41.4462 157.92 41.7742 157.832 42.0782 157.656C42.3822 157.48 42.6262 157.224 42.8102 156.888C43.0022 156.544 43.0982 156.144 43.0982 155.688ZM48.831 157.776L50.703 152.388H52.155L49.635 159H48.003L45.495 152.388H46.959L48.831 157.776ZM59.2491 155.532C59.2491 155.78 59.2331 156.004 59.2011 156.204H54.1491C54.1891 156.732 54.3851 157.156 54.7371 157.476C55.0891 157.796 55.5211 157.956 56.0331 157.956C56.7691 157.956 57.2891 157.648 57.5931 157.032H59.0691C58.8691 157.64 58.5051 158.14 57.9771 158.532C57.4571 158.916 56.8091 159.108 56.0331 159.108C55.4011 159.108 54.8331 158.968 54.3291 158.688C53.8331 158.4 53.4411 158 53.1531 157.488C52.8731 156.968 52.7331 156.368 52.7331 155.688C52.7331 155.008 52.8691 154.412 53.1411 153.9C53.4211 153.38 53.8091 152.98 54.3051 152.7C54.8091 152.42 55.3851 152.28 56.0331 152.28C56.6571 152.28 57.2131 152.416 57.7011 152.688C58.1891 152.96 58.5691 153.344 58.8411 153.84C59.1131 154.328 59.2491 154.892 59.2491 155.532ZM57.8211 155.1C57.8131 154.596 57.6331 154.192 57.2811 153.888C56.9291 153.584 56.4931 153.432 55.9731 153.432C55.5011 153.432 55.0971 153.584 54.7611 153.888C54.4251 154.184 54.2251 154.588 54.1611 155.1H57.8211Z" fill="white"/>
<path d="M9 152C9 150.343 10.3431 149 12 149H15.7574C16.553 149 17.3161 149.316 17.8787 149.879L20.1213 152.121C20.6839 152.684 21 153.447 21 154.243V158C21 159.657 19.6569 161 18 161H12C10.3431 161 9 159.657 9 158V152Z" fill="white"/>
<rect x="12" y="156" width="6" height="2" rx="1" fill="#191919"/>
<path d="M34.704 129.084C33.928 129.084 33.212 128.904 32.556 128.544C31.908 128.176 31.392 127.668 31.008 127.02C30.632 126.364 30.444 125.628 30.444 124.812C30.444 123.996 30.632 123.264 31.008 122.616C31.392 121.968 31.908 121.464 32.556 121.104C33.212 120.736 33.928 120.552 34.704 120.552C35.488 120.552 36.204 120.736 36.852 121.104C37.508 121.464 38.024 121.968 38.4 122.616C38.776 123.264 38.964 123.996 38.964 124.812C38.964 125.628 38.776 126.364 38.4 127.02C38.024 127.668 37.508 128.176 36.852 128.544C36.204 128.904 35.488 129.084 34.704 129.084ZM34.704 127.896C35.256 127.896 35.748 127.772 36.18 127.524C36.612 127.268 36.948 126.908 37.188 126.444C37.436 125.972 37.56 125.428 37.56 124.812C37.56 124.196 37.436 123.656 37.188 123.192C36.948 122.728 36.612 122.372 36.18 122.124C35.748 121.876 35.256 121.752 34.704 121.752C34.152 121.752 33.66 121.876 33.228 122.124C32.796 122.372 32.456 122.728 32.208 123.192C31.968 123.656 31.848 124.196 31.848 124.812C31.848 125.428 31.968 125.972 32.208 126.444C32.456 126.908 32.796 127.268 33.228 127.524C33.66 127.772 34.152 127.896 34.704 127.896ZM41.6782 123.36C41.9102 123.056 42.2262 122.8 42.6262 122.592C43.0262 122.384 43.4782 122.28 43.9822 122.28C44.5582 122.28 45.0822 122.424 45.5542 122.712C46.0342 122.992 46.4102 123.388 46.6822 123.9C46.9542 124.412 47.0902 125 47.0902 125.664C47.0902 126.328 46.9542 126.924 46.6822 127.452C46.4102 127.972 46.0342 128.38 45.5542 128.676C45.0822 128.964 44.5582 129.108 43.9822 129.108C43.4782 129.108 43.0302 129.008 42.6382 128.808C42.2462 128.6 41.9262 128.344 41.6782 128.04V132.144H40.3102V122.388H41.6782V123.36ZM45.6982 125.664C45.6982 125.208 45.6022 124.816 45.4102 124.488C45.2262 124.152 44.9782 123.9 44.6662 123.732C44.3622 123.556 44.0342 123.468 43.6822 123.468C43.3382 123.468 43.0102 123.556 42.6982 123.732C42.3942 123.908 42.1462 124.164 41.9542 124.5C41.7702 124.836 41.6782 125.232 41.6782 125.688C41.6782 126.144 41.7702 126.544 41.9542 126.888C42.1462 127.224 42.3942 127.48 42.6982 127.656C43.0102 127.832 43.3382 127.92 43.6822 127.92C44.0342 127.92 44.3622 127.832 44.6662 127.656C44.9782 127.472 45.2262 127.208 45.4102 126.864C45.6022 126.52 45.6982 126.12 45.6982 125.664ZM54.503 125.532C54.503 125.78 54.487 126.004 54.455 126.204H49.403C49.443 126.732 49.639 127.156 49.991 127.476C50.343 127.796 50.775 127.956 51.287 127.956C52.023 127.956 52.543 127.648 52.847 127.032H54.323C54.123 127.64 53.759 128.14 53.231 128.532C52.711 128.916 52.063 129.108 51.287 129.108C50.655 129.108 50.087 128.968 49.583 128.688C49.087 128.4 48.695 128 48.407 127.488C48.127 126.968 47.987 126.368 47.987 125.688C47.987 125.008 48.123 124.412 48.395 123.9C48.675 123.38 49.063 122.98 49.559 122.7C50.063 122.42 50.639 122.28 51.287 122.28C51.911 122.28 52.467 122.416 52.955 122.688C53.443 122.96 53.823 123.344 54.095 123.84C54.367 124.328 54.503 124.892 54.503 125.532ZM53.075 125.1C53.067 124.596 52.887 124.192 52.535 123.888C52.183 123.584 51.747 123.432 51.227 123.432C50.755 123.432 50.351 123.584 50.015 123.888C49.679 124.184 49.479 124.588 49.415 125.1H53.075ZM59.1852 122.28C59.7052 122.28 60.1692 122.388 60.5772 122.604C60.9932 122.82 61.3172 123.14 61.5492 123.564C61.7812 123.988 61.8972 124.5 61.8972 125.1V129H60.5412V125.304C60.5412 124.712 60.3932 124.26 60.0972 123.948C59.8012 123.628 59.3972 123.468 58.8852 123.468C58.3732 123.468 57.9652 123.628 57.6612 123.948C57.3652 124.26 57.2172 124.712 57.2172 125.304V129H55.8492V122.388H57.2172V123.144C57.4412 122.872 57.7252 122.66 58.0692 122.508C58.4212 122.356 58.7932 122.28 59.1852 122.28Z" fill="white"/>
<path d="M9 122C9 120.343 10.3431 119 12 119H14C15.1046 119 16 119.895 16 121H18C19.6569 121 21 122.343 21 124V128C21 129.657 19.6569 131 18 131H12C10.3431 131 9 129.657 9 128V122Z" fill="white"/>
<rect x="12" y="125" width="6" height="2" rx="1" fill="#191919"/>
<rect x="16" y="123" width="6" height="2" rx="1" transform="rotate(90 16 123)" fill="#191919"/>
<path d="M30.444 184.812C30.444 183.996 30.632 183.264 31.008 182.616C31.392 181.968 31.908 181.464 32.556 181.104C33.212 180.736 33.928 180.552 34.704 180.552C35.592 180.552 36.38 180.772 37.068 181.212C37.764 181.644 38.268 182.26 38.58 183.06H36.936C36.72 182.62 36.42 182.292 36.036 182.076C35.652 181.86 35.208 181.752 34.704 181.752C34.152 181.752 33.66 181.876 33.228 182.124C32.796 182.372 32.456 182.728 32.208 183.192C31.968 183.656 31.848 184.196 31.848 184.812C31.848 185.428 31.968 185.968 32.208 186.432C32.456 186.896 32.796 187.256 33.228 187.512C33.66 187.76 34.152 187.884 34.704 187.884C35.208 187.884 35.652 187.776 36.036 187.56C36.42 187.344 36.72 187.016 36.936 186.576H38.58C38.268 187.376 37.764 187.992 37.068 188.424C36.38 188.856 35.592 189.072 34.704 189.072C33.92 189.072 33.204 188.892 32.556 188.532C31.908 188.164 31.392 187.656 31.008 187.008C30.632 186.36 30.444 185.628 30.444 184.812ZM43.0493 189.108C42.4253 189.108 41.8613 188.968 41.3573 188.688C40.8533 188.4 40.4573 188 40.1693 187.488C39.8813 186.968 39.7373 186.368 39.7373 185.688C39.7373 185.016 39.8853 184.42 40.1813 183.9C40.4773 183.38 40.8813 182.98 41.3933 182.7C41.9053 182.42 42.4773 182.28 43.1093 182.28C43.7413 182.28 44.3133 182.42 44.8253 182.7C45.3373 182.98 45.7413 183.38 46.0373 183.9C46.3333 184.42 46.4813 185.016 46.4813 185.688C46.4813 186.36 46.3293 186.956 46.0253 187.476C45.7213 187.996 45.3053 188.4 44.7773 188.688C44.2573 188.968 43.6813 189.108 43.0493 189.108ZM43.0493 187.92C43.4013 187.92 43.7293 187.836 44.0333 187.668C44.3453 187.5 44.5973 187.248 44.7893 186.912C44.9813 186.576 45.0773 186.168 45.0773 185.688C45.0773 185.208 44.9853 184.804 44.8013 184.476C44.6173 184.14 44.3733 183.888 44.0693 183.72C43.7653 183.552 43.4373 183.468 43.0853 183.468C42.7333 183.468 42.4053 183.552 42.1013 183.72C41.8053 183.888 41.5693 184.14 41.3933 184.476C41.2173 184.804 41.1293 185.208 41.1293 185.688C41.1293 186.4 41.3093 186.952 41.6693 187.344C42.0373 187.728 42.4973 187.92 43.0493 187.92ZM49.2016 180.12V189H47.8336V180.12H49.2016ZM53.8657 189.108C53.2417 189.108 52.6777 188.968 52.1737 188.688C51.6697 188.4 51.2737 188 50.9857 187.488C50.6977 186.968 50.5537 186.368 50.5537 185.688C50.5537 185.016 50.7017 184.42 50.9977 183.9C51.2937 183.38 51.6977 182.98 52.2097 182.7C52.7217 182.42 53.2937 182.28 53.9257 182.28C54.5577 182.28 55.1297 182.42 55.6417 182.7C56.1537 182.98 56.5577 183.38 56.8537 183.9C57.1497 184.42 57.2977 185.016 57.2977 185.688C57.2977 186.36 57.1457 186.956 56.8417 187.476C56.5377 187.996 56.1217 188.4 55.5937 188.688C55.0737 188.968 54.4977 189.108 53.8657 189.108ZM53.8657 187.92C54.2177 187.92 54.5457 187.836 54.8497 187.668C55.1617 187.5 55.4137 187.248 55.6057 186.912C55.7977 186.576 55.8937 186.168 55.8937 185.688C55.8937 185.208 55.8017 184.804 55.6177 184.476C55.4337 184.14 55.1897 183.888 54.8857 183.72C54.5817 183.552 54.2537 183.468 53.9017 183.468C53.5497 183.468 53.2217 183.552 52.9177 183.72C52.6217 183.888 52.3857 184.14 52.2097 184.476C52.0337 184.804 51.9457 185.208 51.9457 185.688C51.9457 186.4 52.1257 186.952 52.4857 187.344C52.8537 187.728 53.3137 187.92 53.8657 187.92ZM60.018 183.348C60.218 183.012 60.482 182.752 60.81 182.568C61.146 182.376 61.542 182.28 61.998 182.28V183.696H61.65C61.114 183.696 60.706 183.832 60.426 184.104C60.154 184.376 60.018 184.848 60.018 185.52V189H58.65V182.388H60.018V183.348Z" fill="white"/>
<rect x="14" y="183" width="7" height="7" rx="3.5" fill="#919191"/>
<rect x="14" y="178" width="7" height="7" rx="3.5" fill="#C9C9C9"/>
<path d="M9 184C9 182.067 10.567 180.5 12.5 180.5C14.433 180.5 16 182.067 16 184C16 185.933 14.433 187.5 12.5 187.5C10.567 187.5 9 185.933 9 184Z" fill="white"/>
<path d="M36.732 213.144C36.732 213.568 36.632 213.968 36.432 214.344C36.232 214.72 35.912 215.028 35.472 215.268C35.032 215.5 34.468 215.616 33.78 215.616H32.268V219H30.9V210.66H33.78C34.42 210.66 34.96 210.772 35.4 210.996C35.848 211.212 36.18 211.508 36.396 211.884C36.62 212.26 36.732 212.68 36.732 213.144ZM33.78 214.5C34.3 214.5 34.688 214.384 34.944 214.152C35.2 213.912 35.328 213.576 35.328 213.144C35.328 212.232 34.812 211.776 33.78 211.776H32.268V214.5H33.78ZM39.4047 210.12V219H38.0367V210.12H39.4047ZM40.7448 215.664C40.7448 215 40.8808 214.412 41.1528 213.9C41.4328 213.388 41.8088 212.992 42.2808 212.712C42.7608 212.424 43.2888 212.28 43.8648 212.28C44.3848 212.28 44.8368 212.384 45.2208 212.592C45.6128 212.792 45.9248 213.044 46.1568 213.348V212.388H47.5368V219H46.1568V218.016C45.9248 218.328 45.6088 218.588 45.2088 218.796C44.8088 219.004 44.3528 219.108 43.8408 219.108C43.2728 219.108 42.7528 218.964 42.2808 218.676C41.8088 218.38 41.4328 217.972 41.1528 217.452C40.8808 216.924 40.7448 216.328 40.7448 215.664ZM46.1568 215.688C46.1568 215.232 46.0608 214.836 45.8688 214.5C45.6848 214.164 45.4408 213.908 45.1368 213.732C44.8328 213.556 44.5048 213.468 44.1528 213.468C43.8008 213.468 43.4728 213.556 43.1688 213.732C42.8648 213.9 42.6168 214.152 42.4248 214.488C42.2408 214.816 42.1488 215.208 42.1488 215.664C42.1488 216.12 42.2408 216.52 42.4248 216.864C42.6168 217.208 42.8648 217.472 43.1688 217.656C43.4808 217.832 43.8088 217.92 44.1528 217.92C44.5048 217.92 44.8328 217.832 45.1368 217.656C45.4408 217.48 45.6848 217.224 45.8688 216.888C46.0608 216.544 46.1568 216.144 46.1568 215.688ZM55.2856 212.388L51.2296 222.108H49.8136L51.1576 218.892L48.5536 212.388H50.0776L51.9376 217.428L53.8696 212.388H55.2856Z" fill="white"/>
<path d="M18.5 214.134C19.1667 214.519 19.1667 215.481 18.5 215.866L12.5 219.33C11.8333 219.715 11 219.234 11 218.464L11 211.536C11 210.766 11.8333 210.285 12.5 210.67L18.5 214.134Z" stroke="white" stroke-width="2"/>
</svg>
