<svg xmlns="http://www.w3.org/2000/svg" fill="none" viewBox="0 0 140 42" height="42" width="140">
<path fill="white" d="M3.648 25.084C3.088 25.084 2.584 24.988 2.136 24.796C1.688 24.596 1.336 24.316 1.08 23.956C0.824 23.596 0.696 23.176 0.696 22.696H2.16C2.192 23.056 2.332 23.352 2.58 23.584C2.836 23.816 3.192 23.932 3.648 23.932C4.12 23.932 4.488 23.82 4.752 23.596C5.016 23.364 5.148 23.068 5.148 22.708C5.148 22.428 5.064 22.2 4.896 22.024C4.736 21.848 4.532 21.712 4.284 21.616C4.044 21.52 3.708 21.416 3.276 21.304C2.732 21.16 2.288 21.016 1.944 20.872C1.608 20.72 1.32 20.488 1.08 20.176C0.84 19.864 0.72 19.448 0.72 18.928C0.72 18.448 0.84 18.028 1.08 17.668C1.32 17.308 1.656 17.032 2.088 16.84C2.52 16.648 3.02 16.552 3.588 16.552C4.396 16.552 5.056 16.756 5.568 17.164C6.088 17.564 6.376 18.116 6.432 18.82H4.92C4.896 18.516 4.752 18.256 4.488 18.04C4.224 17.824 3.876 17.716 3.444 17.716C3.052 17.716 2.732 17.816 2.484 18.016C2.236 18.216 2.112 18.504 2.112 18.88C2.112 19.136 2.188 19.348 2.34 19.516C2.5 19.676 2.7 19.804 2.94 19.9C3.18 19.996 3.508 20.1 3.924 20.212C4.476 20.364 4.924 20.516 5.268 20.668C5.62 20.82 5.916 21.056 6.156 21.376C6.404 21.688 6.528 22.108 6.528 22.636C6.528 23.06 6.412 23.46 6.18 23.836C5.956 24.212 5.624 24.516 5.184 24.748C4.752 24.972 4.24 25.084 3.648 25.084ZM9.73819 19.504V23.164C9.73819 23.412 9.79419 23.592 9.90619 23.704C10.0262 23.808 10.2262 23.86 10.5062 23.86H11.3462V25H10.2662C9.65019 25 9.17819 24.856 8.85019 24.568C8.52219 24.28 8.35819 23.812 8.35819 23.164V19.504H7.57819V18.388H8.35819V16.744H9.73819V18.388H11.3462V19.504H9.73819ZM18.667 21.532C18.667 21.78 18.651 22.004 18.619 22.204H13.567C13.607 22.732 13.803 23.156 14.155 23.476C14.507 23.796 14.939 23.956 15.451 23.956C16.187 23.956 16.707 23.648 17.011 23.032H18.487C18.287 23.64 17.923 24.14 17.395 24.532C16.875 24.916 16.227 25.108 15.451 25.108C14.819 25.108 14.251 24.968 13.747 24.688C13.251 24.4 12.859 24 12.571 23.488C12.291 22.968 12.151 22.368 12.151 21.688C12.151 21.008 12.287 20.412 12.559 19.9C12.839 19.38 13.227 18.98 13.723 18.7C14.227 18.42 14.803 18.28 15.451 18.28C16.075 18.28 16.631 18.416 17.119 18.688C17.607 18.96 17.987 19.344 18.259 19.84C18.531 20.328 18.667 20.892 18.667 21.532ZM17.239 21.1C17.231 20.596 17.051 20.192 16.699 19.888C16.347 19.584 15.911 19.432 15.391 19.432C14.919 19.432 14.515 19.584 14.179 19.888C13.843 20.184 13.643 20.588 13.579 21.1H17.239ZM26.0733 21.532C26.0733 21.78 26.0573 22.004 26.0253 22.204H20.9733C21.0133 22.732 21.2093 23.156 21.5613 23.476C21.9133 23.796 22.3453 23.956 22.8573 23.956C23.5933 23.956 24.1133 23.648 24.4173 23.032H25.8933C25.6933 23.64 25.3293 24.14 24.8013 24.532C24.2813 24.916 23.6333 25.108 22.8573 25.108C22.2253 25.108 21.6573 24.968 21.1533 24.688C20.6573 24.4 20.2653 24 19.9773 23.488C19.6973 22.968 19.5573 22.368 19.5573 21.688C19.5573 21.008 19.6933 20.412 19.9653 19.9C20.2453 19.38 20.6333 18.98 21.1293 18.7C21.6333 18.42 22.2093 18.28 22.8573 18.28C23.4813 18.28 24.0373 18.416 24.5253 18.688C25.0133 18.96 25.3933 19.344 25.6653 19.84C25.9373 20.328 26.0733 20.892 26.0733 21.532ZM24.6453 21.1C24.6373 20.596 24.4573 20.192 24.1053 19.888C23.7533 19.584 23.3173 19.432 22.7973 19.432C22.3253 19.432 21.9213 19.584 21.5853 19.888C21.2493 20.184 21.0493 20.588 20.9853 21.1H24.6453ZM28.7875 16.12V25H27.4195V16.12H28.7875ZM36.4248 16.66C37.3128 16.66 38.0888 16.832 38.7528 17.176C39.4248 17.512 39.9408 18 40.3008 18.64C40.6688 19.272 40.8528 20.012 40.8528 20.86C40.8528 21.708 40.6688 22.444 40.3008 23.068C39.9408 23.692 39.4248 24.172 38.7528 24.508C38.0888 24.836 37.3128 25 36.4248 25H33.7008V16.66H36.4248ZM36.4248 23.884C37.4008 23.884 38.1488 23.62 38.6688 23.092C39.1888 22.564 39.4488 21.82 39.4488 20.86C39.4488 19.892 39.1888 19.136 38.6688 18.592C38.1488 18.048 37.4008 17.776 36.4248 17.776H35.0688V23.884H36.4248ZM43.5766 19.348C43.7766 19.012 44.0406 18.752 44.3686 18.568C44.7046 18.376 45.1006 18.28 45.5566 18.28V19.696H45.2086C44.6726 19.696 44.2646 19.832 43.9846 20.104C43.7126 20.376 43.5766 20.848 43.5766 21.52V25H42.2086V18.388H43.5766V19.348ZM52.8021 18.388V25H51.4341V24.22C51.2181 24.492 50.9341 24.708 50.5821 24.868C50.2381 25.02 49.8701 25.096 49.4781 25.096C48.9581 25.096 48.4901 24.988 48.0741 24.772C47.6661 24.556 47.3421 24.236 47.1021 23.812C46.8701 23.388 46.7541 22.876 46.7541 22.276V18.388H48.1101V22.072C48.1101 22.664 48.2581 23.12 48.5541 23.44C48.8501 23.752 49.2541 23.908 49.7661 23.908C50.2781 23.908 50.6821 23.752 50.9781 23.44C51.2821 23.12 51.4341 22.664 51.4341 22.072V18.388H52.8021ZM62.611 18.28C63.131 18.28 63.595 18.388 64.003 18.604C64.419 18.82 64.743 19.14 64.975 19.564C65.215 19.988 65.335 20.5 65.335 21.1V25H63.979V21.304C63.979 20.712 63.831 20.26 63.535 19.948C63.239 19.628 62.835 19.468 62.323 19.468C61.811 19.468 61.403 19.628 61.099 19.948C60.803 20.26 60.655 20.712 60.655 21.304V25H59.299V21.304C59.299 20.712 59.151 20.26 58.855 19.948C58.559 19.628 58.155 19.468 57.643 19.468C57.131 19.468 56.723 19.628 56.419 19.948C56.123 20.26 55.975 20.712 55.975 21.304V25H54.607V18.388H55.975V19.144C56.199 18.872 56.483 18.66 56.827 18.508C57.171 18.356 57.539 18.28 57.931 18.28C58.459 18.28 58.931 18.392 59.347 18.616C59.763 18.84 60.083 19.164 60.307 19.588C60.507 19.188 60.819 18.872 61.243 18.64C61.667 18.4 62.123 18.28 62.611 18.28Z"></path>
</svg>
