<svg xmlns="http://www.w3.org/2000/svg" fill="none" viewBox="0 0 480 360" height="360" width="480">
<path fill="#191919" d="M104.581 0H450C466.569 0 480 13.4315 480 30V330C480 346.569 466.569 360 450 360H104.581H30C13.4315 360 0 346.569 0 330V30C0 13.4315 13.4315 0 30 0H104.581Z"></path>
<path fill="white" d="M198.201 292.416C198.201 291.328 198.452 290.352 198.953 289.488C199.465 288.624 200.153 287.952 201.017 287.472C201.892 286.981 202.847 286.736 203.881 286.736C205.065 286.736 206.116 287.029 207.033 287.616C207.961 288.192 208.633 289.013 209.049 290.08H206.857C206.569 289.493 206.169 289.056 205.657 288.768C205.145 288.48 204.553 288.336 203.881 288.336C203.145 288.336 202.489 288.501 201.913 288.832C201.337 289.163 200.884 289.637 200.553 290.256C200.233 290.875 200.073 291.595 200.073 292.416C200.073 293.237 200.233 293.957 200.553 294.576C200.884 295.195 201.337 295.675 201.913 296.016C202.489 296.347 203.145 296.512 203.881 296.512C204.553 296.512 205.145 296.368 205.657 296.08C206.169 295.792 206.569 295.355 206.857 294.768H209.049C208.633 295.835 207.961 296.656 207.033 297.232C206.116 297.808 205.065 298.096 203.881 298.096C202.836 298.096 201.881 297.856 201.017 297.376C200.153 296.885 199.465 296.208 198.953 295.344C198.452 294.48 198.201 293.504 198.201 292.416ZM210.576 293.552C210.576 292.667 210.758 291.883 211.12 291.2C211.494 290.517 211.995 289.989 212.624 289.616C213.264 289.232 213.968 289.04 214.736 289.04C215.43 289.04 216.032 289.179 216.544 289.456C217.067 289.723 217.483 290.059 217.792 290.464V289.184H219.632V298H217.792V296.688C217.483 297.104 217.062 297.451 216.528 297.728C215.995 298.005 215.387 298.144 214.704 298.144C213.947 298.144 213.254 297.952 212.624 297.568C211.995 297.173 211.494 296.629 211.12 295.936C210.758 295.232 210.576 294.437 210.576 293.552ZM217.792 293.584C217.792 292.976 217.664 292.448 217.408 292C217.163 291.552 216.838 291.211 216.432 290.976C216.027 290.741 215.59 290.624 215.12 290.624C214.651 290.624 214.214 290.741 213.808 290.976C213.403 291.2 213.072 291.536 212.816 291.984C212.571 292.421 212.448 292.944 212.448 293.552C212.448 294.16 212.571 294.693 212.816 295.152C213.072 295.611 213.403 295.963 213.808 296.208C214.224 296.443 214.662 296.56 215.12 296.56C215.59 296.56 216.027 296.443 216.432 296.208C216.838 295.973 217.163 295.632 217.408 295.184C217.664 294.725 217.792 294.192 217.792 293.584ZM223.852 286.16V298H222.028V286.16H223.852ZM225.639 293.584C225.639 292.677 225.82 291.883 226.183 291.2C226.556 290.507 227.068 289.973 227.719 289.6C228.37 289.227 229.116 289.04 229.959 289.04C231.026 289.04 231.906 289.296 232.599 289.808C233.303 290.309 233.778 291.029 234.023 291.968H232.055C231.895 291.531 231.639 291.189 231.287 290.944C230.935 290.699 230.492 290.576 229.959 290.576C229.212 290.576 228.615 290.843 228.167 291.376C227.73 291.899 227.511 292.635 227.511 293.584C227.511 294.533 227.73 295.275 228.167 295.808C228.615 296.341 229.212 296.608 229.959 296.608C231.015 296.608 231.714 296.144 232.055 295.216H234.023C233.767 296.112 233.287 296.827 232.583 297.36C231.879 297.883 231.004 298.144 229.959 298.144C229.116 298.144 228.37 297.957 227.719 297.584C227.068 297.2 226.556 296.667 226.183 295.984C225.82 295.291 225.639 294.491 225.639 293.584ZM243.825 289.184V298H242.001V296.96C241.713 297.323 241.334 297.611 240.865 297.824C240.406 298.027 239.915 298.128 239.393 298.128C238.699 298.128 238.075 297.984 237.521 297.696C236.977 297.408 236.545 296.981 236.225 296.416C235.915 295.851 235.761 295.168 235.761 294.368V289.184H237.569V294.096C237.569 294.885 237.766 295.493 238.161 295.92C238.555 296.336 239.094 296.544 239.777 296.544C240.459 296.544 240.998 296.336 241.393 295.92C241.798 295.493 242.001 294.885 242.001 294.096V289.184H243.825ZM248.055 286.16V298H246.231V286.16H248.055ZM249.842 293.552C249.842 292.667 250.023 291.883 250.386 291.2C250.759 290.517 251.261 289.989 251.89 289.616C252.53 289.232 253.234 289.04 254.002 289.04C254.695 289.04 255.298 289.179 255.81 289.456C256.333 289.723 256.749 290.059 257.058 290.464V289.184H258.898V298H257.058V296.688C256.749 297.104 256.327 297.451 255.794 297.728C255.261 298.005 254.653 298.144 253.97 298.144C253.213 298.144 252.519 297.952 251.89 297.568C251.261 297.173 250.759 296.629 250.386 295.936C250.023 295.232 249.842 294.437 249.842 293.552ZM257.058 293.584C257.058 292.976 256.93 292.448 256.674 292C256.429 291.552 256.103 291.211 255.698 290.976C255.293 290.741 254.855 290.624 254.386 290.624C253.917 290.624 253.479 290.741 253.074 290.976C252.669 291.2 252.338 291.536 252.082 291.984C251.837 292.421 251.714 292.944 251.714 293.552C251.714 294.16 251.837 294.693 252.082 295.152C252.338 295.611 252.669 295.963 253.074 296.208C253.49 296.443 253.927 296.56 254.386 296.56C254.855 296.56 255.293 296.443 255.698 296.208C256.103 295.973 256.429 295.632 256.674 295.184C256.93 294.725 257.058 294.192 257.058 293.584ZM263.422 290.672V295.552C263.422 295.883 263.496 296.123 263.646 296.272C263.806 296.411 264.072 296.48 264.446 296.48H265.566V298H264.126C263.304 298 262.675 297.808 262.238 297.424C261.8 297.04 261.582 296.416 261.582 295.552V290.672H260.542V289.184H261.582V286.992H263.422V289.184H265.566V290.672H263.422ZM271.071 298.144C270.239 298.144 269.487 297.957 268.815 297.584C268.143 297.2 267.615 296.667 267.231 295.984C266.847 295.291 266.655 294.491 266.655 293.584C266.655 292.688 266.852 291.893 267.247 291.2C267.642 290.507 268.18 289.973 268.863 289.6C269.546 289.227 270.308 289.04 271.151 289.04C271.994 289.04 272.756 289.227 273.439 289.6C274.122 289.973 274.66 290.507 275.055 291.2C275.45 291.893 275.647 292.688 275.647 293.584C275.647 294.48 275.444 295.275 275.039 295.968C274.634 296.661 274.079 297.2 273.375 297.584C272.682 297.957 271.914 298.144 271.071 298.144ZM271.071 296.56C271.54 296.56 271.978 296.448 272.383 296.224C272.799 296 273.135 295.664 273.391 295.216C273.647 294.768 273.775 294.224 273.775 293.584C273.775 292.944 273.652 292.405 273.407 291.968C273.162 291.52 272.836 291.184 272.431 290.96C272.026 290.736 271.588 290.624 271.119 290.624C270.65 290.624 270.212 290.736 269.807 290.96C269.412 291.184 269.098 291.52 268.863 291.968C268.628 292.405 268.511 292.944 268.511 293.584C268.511 294.533 268.751 295.269 269.231 295.792C269.722 296.304 270.335 296.56 271.071 296.56ZM279.274 290.464C279.541 290.016 279.893 289.669 280.33 289.424C280.778 289.168 281.306 289.04 281.914 289.04V290.928H281.45C280.735 290.928 280.191 291.109 279.818 291.472C279.455 291.835 279.274 292.464 279.274 293.36V298H277.45V289.184H279.274V290.464Z"></path>
</svg>
