<svg width="80" height="28" viewBox="0 0 80 28" fill="none" xmlns="http://www.w3.org/2000/svg">
<rect width="80" height="28" rx="5" fill="#1B1B1B"/>
<path d="M11.89 13.29C12.0567 13.01 12.2767 12.7933 12.55 12.64C12.83 12.48 13.16 12.4 13.54 12.4V13.58H13.25C12.8033 13.58 12.4633 13.6933 12.23 13.92C12.0033 14.1467 11.89 14.54 11.89 15.1V18H10.75V12.49H11.89V13.29ZM15.1679 11.76C14.9612 11.76 14.7879 11.69 14.6479 11.55C14.5079 11.41 14.4379 11.2367 14.4379 11.03C14.4379 10.8233 14.5079 10.65 14.6479 10.51C14.7879 10.37 14.9612 10.3 15.1679 10.3C15.3679 10.3 15.5379 10.37 15.6779 10.51C15.8179 10.65 15.8879 10.8233 15.8879 11.03C15.8879 11.2367 15.8179 11.41 15.6779 11.55C15.5379 11.69 15.3679 11.76 15.1679 11.76ZM15.7279 12.49V18H14.5879V12.49H15.7279ZM16.8446 15.24C16.8446 14.6733 16.9579 14.1767 17.1846 13.75C17.4179 13.3167 17.7379 12.9833 18.1446 12.75C18.5513 12.5167 19.0179 12.4 19.5446 12.4C20.2113 12.4 20.7613 12.56 21.1946 12.88C21.6346 13.1933 21.9313 13.6433 22.0846 14.23H20.8546C20.7546 13.9567 20.5946 13.7433 20.3746 13.59C20.1546 13.4367 19.8779 13.36 19.5446 13.36C19.0779 13.36 18.7046 13.5267 18.4246 13.86C18.1513 14.1867 18.0146 14.6467 18.0146 15.24C18.0146 15.8333 18.1513 16.2967 18.4246 16.63C18.7046 16.9633 19.0779 17.13 19.5446 17.13C20.2046 17.13 20.6413 16.84 20.8546 16.26H22.0846C21.9246 16.82 21.6246 17.2667 21.1846 17.6C20.7446 17.9267 20.1979 18.09 19.5446 18.09C19.0179 18.09 18.5513 17.9733 18.1446 17.74C17.7379 17.5 17.4179 17.1667 17.1846 16.74C16.9579 16.3067 16.8446 15.8067 16.8446 15.24ZM25.4007 15.25L27.9407 18H26.4007L24.3607 15.63V18H23.2207V10.6H24.3607V14.9L26.3607 12.49H27.9407L25.4007 15.25ZM29.8978 13.29C30.0645 13.01 30.2845 12.7933 30.5578 12.64C30.8378 12.48 31.1678 12.4 31.5478 12.4V13.58H31.2578C30.8111 13.58 30.4711 13.6933 30.2378 13.92C30.0111 14.1467 29.8978 14.54 29.8978 15.1V18H28.7578V12.49H29.8978V13.29ZM34.9857 18.09C34.4657 18.09 33.9957 17.9733 33.5757 17.74C33.1557 17.5 32.8257 17.1667 32.5857 16.74C32.3457 16.3067 32.2257 15.8067 32.2257 15.24C32.2257 14.68 32.349 14.1833 32.5957 13.75C32.8424 13.3167 33.179 12.9833 33.6057 12.75C34.0324 12.5167 34.509 12.4 35.0357 12.4C35.5624 12.4 36.039 12.5167 36.4657 12.75C36.8924 12.9833 37.229 13.3167 37.4757 13.75C37.7224 14.1833 37.8457 14.68 37.8457 15.24C37.8457 15.8 37.719 16.2967 37.4657 16.73C37.2124 17.1633 36.8657 17.5 36.4257 17.74C35.9924 17.9733 35.5124 18.09 34.9857 18.09ZM34.9857 17.1C35.279 17.1 35.5524 17.03 35.8057 16.89C36.0657 16.75 36.2757 16.54 36.4357 16.26C36.5957 15.98 36.6757 15.64 36.6757 15.24C36.6757 14.84 36.599 14.5033 36.4457 14.23C36.2924 13.95 36.089 13.74 35.8357 13.6C35.5824 13.46 35.309 13.39 35.0157 13.39C34.7224 13.39 34.449 13.46 34.1957 13.6C33.949 13.74 33.7524 13.95 33.6057 14.23C33.459 14.5033 33.3857 14.84 33.3857 15.24C33.3857 15.8333 33.5357 16.2933 33.8357 16.62C34.1424 16.94 34.5257 17.1 34.9857 17.1ZM40.1127 10.6V18H38.9727V10.6H40.1127ZM42.7494 10.6V18H41.6094V10.6H42.7494Z" fill="white"/>
</svg>
