<svg width="80" height="28" viewBox="0 0 80 28" fill="none" xmlns="http://www.w3.org/2000/svg">
<rect width="80" height="28" rx="5" fill="#1B1B1B"/>
<path d="M10.37 15.24C10.37 14.6733 10.4833 14.1767 10.71 13.75C10.9433 13.3167 11.2633 12.9833 11.67 12.75C12.0767 12.5167 12.5433 12.4 13.07 12.4C13.7367 12.4 14.2867 12.56 14.72 12.88C15.16 13.1933 15.4567 13.6433 15.61 14.23H14.38C14.28 13.9567 14.12 13.7433 13.9 13.59C13.68 13.4367 13.4033 13.36 13.07 13.36C12.6033 13.36 12.23 13.5267 11.95 13.86C11.6767 14.1867 11.54 14.6467 11.54 15.24C11.54 15.8333 11.6767 16.2967 11.95 16.63C12.23 16.9633 12.6033 17.13 13.07 17.13C13.73 17.13 14.1667 16.84 14.38 16.26H15.61C15.45 16.82 15.15 17.2667 14.71 17.6C14.27 17.9267 13.7233 18.09 13.07 18.09C12.5433 18.09 12.0767 17.9733 11.67 17.74C11.2633 17.5 10.9433 17.1667 10.71 16.74C10.4833 16.3067 10.37 15.8067 10.37 15.24ZM17.8861 10.6V18H16.7461V10.6H17.8861ZM21.7728 18.09C21.2528 18.09 20.7828 17.9733 20.3628 17.74C19.9428 17.5 19.6128 17.1667 19.3728 16.74C19.1328 16.3067 19.0128 15.8067 19.0128 15.24C19.0128 14.68 19.1361 14.1833 19.3828 13.75C19.6295 13.3167 19.9661 12.9833 20.3928 12.75C20.8195 12.5167 21.2961 12.4 21.8228 12.4C22.3495 12.4 22.8261 12.5167 23.2528 12.75C23.6795 12.9833 24.0161 13.3167 24.2628 13.75C24.5095 14.1833 24.6328 14.68 24.6328 15.24C24.6328 15.8 24.5061 16.2967 24.2528 16.73C23.9995 17.1633 23.6528 17.5 23.2128 17.74C22.7795 17.9733 22.2995 18.09 21.7728 18.09ZM21.7728 17.1C22.0661 17.1 22.3395 17.03 22.5928 16.89C22.8528 16.75 23.0628 16.54 23.2228 16.26C23.3828 15.98 23.4628 15.64 23.4628 15.24C23.4628 14.84 23.3861 14.5033 23.2328 14.23C23.0795 13.95 22.8761 13.74 22.6228 13.6C22.3695 13.46 22.0961 13.39 21.8028 13.39C21.5095 13.39 21.2361 13.46 20.9828 13.6C20.7361 13.74 20.5395 13.95 20.3928 14.23C20.2461 14.5033 20.1728 14.84 20.1728 15.24C20.1728 15.8333 20.3228 16.2933 20.6228 16.62C20.9295 16.94 21.3128 17.1 21.7728 17.1ZM27.7598 18.09C27.3264 18.09 26.9364 18.0133 26.5898 17.86C26.2498 17.7 25.9798 17.4867 25.7798 17.22C25.5798 16.9467 25.4731 16.6433 25.4598 16.31H26.6398C26.6598 16.5433 26.7698 16.74 26.9698 16.9C27.1764 17.0533 27.4331 17.13 27.7398 17.13C28.0598 17.13 28.3064 17.07 28.4798 16.95C28.6598 16.8233 28.7498 16.6633 28.7498 16.47C28.7498 16.2633 28.6498 16.11 28.4498 16.01C28.2564 15.91 27.9464 15.8 27.5198 15.68C27.1064 15.5667 26.7698 15.4567 26.5098 15.35C26.2498 15.2433 26.0231 15.08 25.8298 14.86C25.6431 14.64 25.5498 14.35 25.5498 13.99C25.5498 13.6967 25.6364 13.43 25.8098 13.19C25.9831 12.9433 26.2298 12.75 26.5498 12.61C26.8764 12.47 27.2498 12.4 27.6698 12.4C28.2964 12.4 28.7998 12.56 29.1798 12.88C29.5664 13.1933 29.7731 13.6233 29.7998 14.17H28.6598C28.6398 13.9233 28.5398 13.7267 28.3598 13.58C28.1798 13.4333 27.9364 13.36 27.6298 13.36C27.3298 13.36 27.0998 13.4167 26.9398 13.53C26.7798 13.6433 26.6998 13.7933 26.6998 13.98C26.6998 14.1267 26.7531 14.25 26.8598 14.35C26.9664 14.45 27.0964 14.53 27.2498 14.59C27.4031 14.6433 27.6298 14.7133 27.9298 14.8C28.3298 14.9067 28.6564 15.0167 28.9098 15.13C29.1698 15.2367 29.3931 15.3967 29.5798 15.61C29.7664 15.8233 29.8631 16.1067 29.8698 16.46C29.8698 16.7733 29.7831 17.0533 29.6098 17.3C29.4364 17.5467 29.1898 17.74 28.8698 17.88C28.5564 18.02 28.1864 18.09 27.7598 18.09ZM36.1516 15.11C36.1516 15.3167 36.1382 15.5033 36.1116 15.67H31.9016C31.9349 16.11 32.0982 16.4633 32.3916 16.73C32.6849 16.9967 33.0449 17.13 33.4716 17.13C34.0849 17.13 34.5182 16.8733 34.7716 16.36H36.0016C35.8349 16.8667 35.5316 17.2833 35.0916 17.61C34.6582 17.93 34.1182 18.09 33.4716 18.09C32.9449 18.09 32.4716 17.9733 32.0516 17.74C31.6382 17.5 31.3116 17.1667 31.0716 16.74C30.8382 16.3067 30.7216 15.8067 30.7216 15.24C30.7216 14.6733 30.8349 14.1767 31.0616 13.75C31.2949 13.3167 31.6182 12.9833 32.0316 12.75C32.4516 12.5167 32.9316 12.4 33.4716 12.4C33.9916 12.4 34.4549 12.5133 34.8616 12.74C35.2682 12.9667 35.5849 13.2867 35.8116 13.7C36.0382 14.1067 36.1516 14.5767 36.1516 15.11ZM34.9616 14.75C34.9549 14.33 34.8049 13.9933 34.5116 13.74C34.2182 13.4867 33.8549 13.36 33.4216 13.36C33.0282 13.36 32.6916 13.4867 32.4116 13.74C32.1316 13.9867 31.9649 14.3233 31.9116 14.75H34.9616Z" fill="white"/>
</svg>
