<svg width="30" height="30" viewBox="0 0 30 30" fill="none" xmlns="http://www.w3.org/2000/svg">
<rect width="30" height="30" rx="15" fill="black" fill-opacity="0.25"/>
<mask id="path-2-inside-1_177_2" fill="white">
<path d="M18.5344 11.4656C18.9256 11.0744 19.5679 11.0706 19.8886 11.5213C20.3777 12.2086 20.7187 12.9947 20.8847 13.8295C21.1162 14.9933 20.9974 16.1997 20.5433 17.2961C20.0892 18.3925 19.3201 19.3295 18.3334 19.9888C17.3467 20.6481 16.1867 21 15 21C13.8133 21 12.6533 20.6481 11.6666 19.9888C10.6799 19.3295 9.91085 18.3925 9.45672 17.2961C9.0026 16.1997 8.88378 14.9933 9.11529 13.8295C9.28134 12.9947 9.62226 12.2086 10.1114 11.5213C10.4321 11.0706 11.0744 11.0744 11.4656 11.4656V11.4656C11.8567 11.8567 11.8431 12.487 11.5612 12.9629C11.3321 13.3497 11.1686 13.7746 11.0799 14.2202C10.9257 14.9956 11.0049 15.7992 11.3074 16.5295C11.6099 17.2599 12.1222 17.8841 12.7795 18.3233C13.4367 18.7625 14.2095 18.9969 15 18.9969C15.7905 18.9969 16.5633 18.7625 17.2205 18.3233C17.8778 17.8841 18.3901 17.2599 18.6926 16.5295C18.9951 15.7992 19.0743 14.9956 18.9201 14.2202C18.8314 13.7746 18.6679 13.3497 18.4388 12.9629C18.1569 12.487 18.1433 11.8567 18.5344 11.4656V11.4656Z"/>
</mask>
<path d="M18.5344 11.4656C18.9256 11.0744 19.5679 11.0706 19.8886 11.5213C20.3777 12.2086 20.7187 12.9947 20.8847 13.8295C21.1162 14.9933 20.9974 16.1997 20.5433 17.2961C20.0892 18.3925 19.3201 19.3295 18.3334 19.9888C17.3467 20.6481 16.1867 21 15 21C13.8133 21 12.6533 20.6481 11.6666 19.9888C10.6799 19.3295 9.91085 18.3925 9.45672 17.2961C9.0026 16.1997 8.88378 14.9933 9.11529 13.8295C9.28134 12.9947 9.62226 12.2086 10.1114 11.5213C10.4321 11.0706 11.0744 11.0744 11.4656 11.4656V11.4656C11.8567 11.8567 11.8431 12.487 11.5612 12.9629C11.3321 13.3497 11.1686 13.7746 11.0799 14.2202C10.9257 14.9956 11.0049 15.7992 11.3074 16.5295C11.6099 17.2599 12.1222 17.8841 12.7795 18.3233C13.4367 18.7625 14.2095 18.9969 15 18.9969C15.7905 18.9969 16.5633 18.7625 17.2205 18.3233C17.8778 17.8841 18.3901 17.2599 18.6926 16.5295C18.9951 15.7992 19.0743 14.9956 18.9201 14.2202C18.8314 13.7746 18.6679 13.3497 18.4388 12.9629C18.1569 12.487 18.1433 11.8567 18.5344 11.4656V11.4656Z" stroke="white" stroke-width="4" mask="url(#path-2-inside-1_177_2)"/>
<rect x="14" y="9" width="2" height="5" rx="1" fill="white"/>
</svg>
