<svg width="480" height="360" viewBox="0 0 480 360" fill="none" xmlns="http://www.w3.org/2000/svg">
<path d="M177.904 28.728H173.248L172.448 31H170.544L174.528 19.864H176.64L180.624 31H178.704L177.904 28.728ZM177.392 27.24L175.584 22.072L173.76 27.24H177.392ZM184.18 19.16V31H182.356V19.16H184.18ZM187.503 21.016C187.172 21.016 186.895 20.904 186.671 20.68C186.447 20.456 186.335 20.1787 186.335 19.848C186.335 19.5173 186.447 19.24 186.671 19.016C186.895 18.792 187.172 18.68 187.503 18.68C187.823 18.68 188.095 18.792 188.319 19.016C188.543 19.24 188.655 19.5173 188.655 19.848C188.655 20.1787 188.543 20.456 188.319 20.68C188.095 20.904 187.823 21.016 187.503 21.016ZM188.399 22.184V31H186.575V22.184H188.399ZM194.346 22.04C195.028 22.04 195.631 22.1787 196.154 22.456C196.687 22.7227 197.103 23.0587 197.402 23.464V22.184H199.242V31.144C199.242 31.9547 199.071 32.6747 198.73 33.304C198.388 33.944 197.892 34.4453 197.242 34.808C196.602 35.1707 195.834 35.352 194.938 35.352C193.743 35.352 192.751 35.0693 191.962 34.504C191.172 33.9493 190.724 33.192 190.618 32.232H192.426C192.564 32.6907 192.858 33.0587 193.306 33.336C193.764 33.624 194.308 33.768 194.938 33.768C195.674 33.768 196.266 33.544 196.714 33.096C197.172 32.648 197.402 31.9973 197.402 31.144V29.672C197.092 30.088 196.671 30.44 196.138 30.728C195.615 31.0053 195.018 31.144 194.346 31.144C193.578 31.144 192.874 30.952 192.234 30.568C191.604 30.1733 191.103 29.6293 190.73 28.936C190.367 28.232 190.186 27.4373 190.186 26.552C190.186 25.6667 190.367 24.8827 190.73 24.2C191.103 23.5173 191.604 22.9893 192.234 22.616C192.874 22.232 193.578 22.04 194.346 22.04ZM197.402 26.584C197.402 25.976 197.274 25.448 197.018 25C196.772 24.552 196.447 24.2107 196.042 23.976C195.636 23.7413 195.199 23.624 194.73 23.624C194.26 23.624 193.823 23.7413 193.418 23.976C193.012 24.2 192.682 24.536 192.426 24.984C192.18 25.4213 192.058 25.944 192.058 26.552C192.058 27.16 192.18 27.6933 192.426 28.152C192.682 28.6107 193.012 28.9627 193.418 29.208C193.834 29.4427 194.271 29.56 194.73 29.56C195.199 29.56 195.636 29.4427 196.042 29.208C196.447 28.9733 196.772 28.632 197.018 28.184C197.274 27.7253 197.402 27.192 197.402 26.584ZM206.086 22.04C206.779 22.04 207.398 22.184 207.942 22.472C208.496 22.76 208.928 23.1867 209.238 23.752C209.547 24.3173 209.702 25 209.702 25.8V31H207.894V26.072C207.894 25.2827 207.696 24.68 207.302 24.264C206.907 23.8373 206.368 23.624 205.686 23.624C205.003 23.624 204.459 23.8373 204.054 24.264C203.659 24.68 203.462 25.2827 203.462 26.072V31H201.638V22.184H203.462V23.192C203.76 22.8293 204.139 22.5467 204.598 22.344C205.067 22.1413 205.563 22.04 206.086 22.04ZM222.7 22.04C223.393 22.04 224.012 22.184 224.556 22.472C225.111 22.76 225.543 23.1867 225.852 23.752C226.172 24.3173 226.332 25 226.332 25.8V31H224.524V26.072C224.524 25.2827 224.327 24.68 223.932 24.264C223.537 23.8373 222.999 23.624 222.316 23.624C221.633 23.624 221.089 23.8373 220.684 24.264C220.289 24.68 220.092 25.2827 220.092 26.072V31H218.284V26.072C218.284 25.2827 218.087 24.68 217.692 24.264C217.297 23.8373 216.759 23.624 216.076 23.624C215.393 23.624 214.849 23.8373 214.444 24.264C214.049 24.68 213.852 25.2827 213.852 26.072V31H212.028V22.184H213.852V23.192C214.151 22.8293 214.529 22.5467 214.988 22.344C215.447 22.1413 215.937 22.04 216.46 22.04C217.164 22.04 217.793 22.1893 218.348 22.488C218.903 22.7867 219.329 23.2187 219.628 23.784C219.895 23.2507 220.311 22.8293 220.876 22.52C221.441 22.2 222.049 22.04 222.7 22.04ZM236.733 26.376C236.733 26.7067 236.712 27.0053 236.669 27.272H229.933C229.986 27.976 230.248 28.5413 230.717 28.968C231.186 29.3947 231.762 29.608 232.445 29.608C233.426 29.608 234.12 29.1973 234.525 28.376H236.493C236.226 29.1867 235.741 29.8533 235.037 30.376C234.344 30.888 233.48 31.144 232.445 31.144C231.602 31.144 230.845 30.9573 230.173 30.584C229.512 30.2 228.989 29.6667 228.605 28.984C228.232 28.2907 228.045 27.4907 228.045 26.584C228.045 25.6773 228.226 24.8827 228.589 24.2C228.962 23.5067 229.48 22.9733 230.141 22.6C230.813 22.2267 231.581 22.04 232.445 22.04C233.277 22.04 234.018 22.2213 234.669 22.584C235.32 22.9467 235.826 23.4587 236.189 24.12C236.552 24.7707 236.733 25.5227 236.733 26.376ZM234.829 25.8C234.818 25.128 234.578 24.5893 234.109 24.184C233.64 23.7787 233.058 23.576 232.365 23.576C231.736 23.576 231.197 23.7787 230.749 24.184C230.301 24.5787 230.034 25.1173 229.949 25.8H234.829ZM242.976 22.04C243.669 22.04 244.288 22.184 244.832 22.472C245.387 22.76 245.819 23.1867 246.128 23.752C246.437 24.3173 246.592 25 246.592 25.8V31H244.784V26.072C244.784 25.2827 244.587 24.68 244.192 24.264C243.797 23.8373 243.259 23.624 242.576 23.624C241.893 23.624 241.349 23.8373 240.944 24.264C240.549 24.68 240.352 25.2827 240.352 26.072V31H238.528V22.184H240.352V23.192C240.651 22.8293 241.029 22.5467 241.488 22.344C241.957 22.1413 242.453 22.04 242.976 22.04ZM251.047 23.672V28.552C251.047 28.8827 251.121 29.1227 251.271 29.272C251.431 29.4107 251.697 29.48 252.071 29.48H253.191V31H251.751C250.929 31 250.3 30.808 249.863 30.424C249.425 30.04 249.207 29.416 249.207 28.552V23.672H248.167V22.184H249.207V19.992H251.047V22.184H253.191V23.672H251.047Z" fill="black"/>
<path d="M175.928 67.296H172.436L171.836 69H170.408L173.396 60.648H174.98L177.968 69H176.528L175.928 67.296ZM175.544 66.18L174.188 62.304L172.82 66.18H175.544ZM180.635 60.12V69H179.267V60.12H180.635ZM183.127 61.512C182.879 61.512 182.671 61.428 182.503 61.26C182.335 61.092 182.251 60.884 182.251 60.636C182.251 60.388 182.335 60.18 182.503 60.012C182.671 59.844 182.879 59.76 183.127 59.76C183.367 59.76 183.571 59.844 183.739 60.012C183.907 60.18 183.991 60.388 183.991 60.636C183.991 60.884 183.907 61.092 183.739 61.26C183.571 61.428 183.367 61.512 183.127 61.512ZM183.799 62.388V69H182.431V62.388H183.799ZM188.259 62.28C188.771 62.28 189.223 62.384 189.615 62.592C190.015 62.792 190.327 63.044 190.551 63.348V62.388H191.931V69.108C191.931 69.716 191.803 70.256 191.547 70.728C191.291 71.208 190.919 71.584 190.431 71.856C189.951 72.128 189.375 72.264 188.703 72.264C187.807 72.264 187.063 72.052 186.471 71.628C185.879 71.212 185.543 70.644 185.463 69.924H186.819C186.923 70.268 187.143 70.544 187.479 70.752C187.823 70.968 188.231 71.076 188.703 71.076C189.255 71.076 189.699 70.908 190.035 70.572C190.379 70.236 190.551 69.748 190.551 69.108V68.004C190.319 68.316 190.003 68.58 189.603 68.796C189.211 69.004 188.763 69.108 188.259 69.108C187.683 69.108 187.155 68.964 186.675 68.676C186.203 68.38 185.827 67.972 185.547 67.452C185.275 66.924 185.139 66.328 185.139 65.664C185.139 65 185.275 64.412 185.547 63.9C185.827 63.388 186.203 62.992 186.675 62.712C187.155 62.424 187.683 62.28 188.259 62.28ZM190.551 65.688C190.551 65.232 190.455 64.836 190.263 64.5C190.079 64.164 189.835 63.908 189.531 63.732C189.227 63.556 188.899 63.468 188.547 63.468C188.195 63.468 187.867 63.556 187.563 63.732C187.259 63.9 187.011 64.152 186.819 64.488C186.635 64.816 186.543 65.208 186.543 65.664C186.543 66.12 186.635 66.52 186.819 66.864C187.011 67.208 187.259 67.472 187.563 67.656C187.875 67.832 188.203 67.92 188.547 67.92C188.899 67.92 189.227 67.832 189.531 67.656C189.835 67.48 190.079 67.224 190.263 66.888C190.455 66.544 190.551 66.144 190.551 65.688ZM197.064 62.28C197.584 62.28 198.048 62.388 198.456 62.604C198.872 62.82 199.196 63.14 199.428 63.564C199.66 63.988 199.776 64.5 199.776 65.1V69H198.42V65.304C198.42 64.712 198.272 64.26 197.976 63.948C197.68 63.628 197.276 63.468 196.764 63.468C196.252 63.468 195.844 63.628 195.54 63.948C195.244 64.26 195.096 64.712 195.096 65.304V69H193.728V62.388H195.096V63.144C195.32 62.872 195.604 62.66 195.948 62.508C196.3 62.356 196.672 62.28 197.064 62.28ZM209.525 62.28C210.045 62.28 210.509 62.388 210.917 62.604C211.333 62.82 211.657 63.14 211.889 63.564C212.129 63.988 212.249 64.5 212.249 65.1V69H210.893V65.304C210.893 64.712 210.745 64.26 210.449 63.948C210.153 63.628 209.749 63.468 209.237 63.468C208.725 63.468 208.317 63.628 208.013 63.948C207.717 64.26 207.569 64.712 207.569 65.304V69H206.213V65.304C206.213 64.712 206.065 64.26 205.769 63.948C205.473 63.628 205.069 63.468 204.557 63.468C204.045 63.468 203.637 63.628 203.333 63.948C203.037 64.26 202.889 64.712 202.889 65.304V69H201.521V62.388H202.889V63.144C203.113 62.872 203.397 62.66 203.741 62.508C204.085 62.356 204.453 62.28 204.845 62.28C205.373 62.28 205.845 62.392 206.261 62.616C206.677 62.84 206.997 63.164 207.221 63.588C207.421 63.188 207.733 62.872 208.157 62.64C208.581 62.4 209.037 62.28 209.525 62.28ZM220.05 65.532C220.05 65.78 220.034 66.004 220.002 66.204H214.95C214.99 66.732 215.186 67.156 215.538 67.476C215.89 67.796 216.322 67.956 216.834 67.956C217.57 67.956 218.09 67.648 218.394 67.032H219.87C219.67 67.64 219.306 68.14 218.778 68.532C218.258 68.916 217.61 69.108 216.834 69.108C216.202 69.108 215.634 68.968 215.13 68.688C214.634 68.4 214.242 68 213.954 67.488C213.674 66.968 213.534 66.368 213.534 65.688C213.534 65.008 213.67 64.412 213.942 63.9C214.222 63.38 214.61 62.98 215.106 62.7C215.61 62.42 216.186 62.28 216.834 62.28C217.458 62.28 218.014 62.416 218.502 62.688C218.99 62.96 219.37 63.344 219.642 63.84C219.914 64.328 220.05 64.892 220.05 65.532ZM218.622 65.1C218.614 64.596 218.434 64.192 218.082 63.888C217.73 63.584 217.294 63.432 216.774 63.432C216.302 63.432 215.898 63.584 215.562 63.888C215.226 64.184 215.026 64.588 214.962 65.1H218.622ZM224.732 62.28C225.252 62.28 225.716 62.388 226.124 62.604C226.54 62.82 226.864 63.14 227.096 63.564C227.328 63.988 227.444 64.5 227.444 65.1V69H226.088V65.304C226.088 64.712 225.94 64.26 225.644 63.948C225.348 63.628 224.944 63.468 224.432 63.468C223.92 63.468 223.512 63.628 223.208 63.948C222.912 64.26 222.764 64.712 222.764 65.304V69H221.396V62.388H222.764V63.144C222.988 62.872 223.272 62.66 223.616 62.508C223.968 62.356 224.34 62.28 224.732 62.28ZM230.785 63.504V67.164C230.785 67.412 230.841 67.592 230.953 67.704C231.073 67.808 231.273 67.86 231.553 67.86H232.393V69H231.313C230.697 69 230.225 68.856 229.897 68.568C229.569 68.28 229.405 67.812 229.405 67.164V63.504H228.625V62.388H229.405V60.744H230.785V62.388H232.393V63.504H230.785Z" fill="black"/>
<path d="M176.732 133.144C176.732 133.568 176.632 133.968 176.432 134.344C176.232 134.72 175.912 135.028 175.472 135.268C175.032 135.5 174.468 135.616 173.78 135.616H172.268V139H170.9V130.66H173.78C174.42 130.66 174.96 130.772 175.4 130.996C175.848 131.212 176.18 131.508 176.396 131.884C176.62 132.26 176.732 132.68 176.732 133.144ZM173.78 134.5C174.3 134.5 174.688 134.384 174.944 134.152C175.2 133.912 175.328 133.576 175.328 133.144C175.328 132.232 174.812 131.776 173.78 131.776H172.268V134.5H173.78ZM179.405 133.348C179.605 133.012 179.869 132.752 180.197 132.568C180.533 132.376 180.929 132.28 181.385 132.28V133.696H181.037C180.501 133.696 180.093 133.832 179.813 134.104C179.541 134.376 179.405 134.848 179.405 135.52V139H178.037V132.388H179.405V133.348ZM188.702 135.532C188.702 135.78 188.686 136.004 188.654 136.204H183.602C183.642 136.732 183.838 137.156 184.19 137.476C184.542 137.796 184.974 137.956 185.486 137.956C186.222 137.956 186.742 137.648 187.046 137.032H188.522C188.322 137.64 187.958 138.14 187.43 138.532C186.91 138.916 186.262 139.108 185.486 139.108C184.854 139.108 184.286 138.968 183.782 138.688C183.286 138.4 182.894 138 182.606 137.488C182.326 136.968 182.186 136.368 182.186 135.688C182.186 135.008 182.322 134.412 182.594 133.9C182.874 133.38 183.262 132.98 183.758 132.7C184.262 132.42 184.838 132.28 185.486 132.28C186.11 132.28 186.666 132.416 187.154 132.688C187.642 132.96 188.022 133.344 188.294 133.84C188.566 134.328 188.702 134.892 188.702 135.532ZM187.274 135.1C187.266 134.596 187.086 134.192 186.734 133.888C186.382 133.584 185.946 133.432 185.426 133.432C184.954 133.432 184.55 133.584 184.214 133.888C183.878 134.184 183.678 134.588 183.614 135.1H187.274ZM192.604 137.776L194.476 132.388H195.928L193.408 139H191.776L189.268 132.388H190.732L192.604 137.776ZM197.659 131.512C197.411 131.512 197.203 131.428 197.035 131.26C196.867 131.092 196.783 130.884 196.783 130.636C196.783 130.388 196.867 130.18 197.035 130.012C197.203 129.844 197.411 129.76 197.659 129.76C197.899 129.76 198.103 129.844 198.271 130.012C198.439 130.18 198.523 130.388 198.523 130.636C198.523 130.884 198.439 131.092 198.271 131.26C198.103 131.428 197.899 131.512 197.659 131.512ZM198.331 132.388V139H196.963V132.388H198.331ZM206.187 135.532C206.187 135.78 206.171 136.004 206.139 136.204H201.087C201.127 136.732 201.323 137.156 201.675 137.476C202.027 137.796 202.459 137.956 202.971 137.956C203.707 137.956 204.227 137.648 204.531 137.032H206.007C205.807 137.64 205.443 138.14 204.915 138.532C204.395 138.916 203.747 139.108 202.971 139.108C202.339 139.108 201.771 138.968 201.267 138.688C200.771 138.4 200.379 138 200.091 137.488C199.811 136.968 199.671 136.368 199.671 135.688C199.671 135.008 199.807 134.412 200.079 133.9C200.359 133.38 200.747 132.98 201.243 132.7C201.747 132.42 202.323 132.28 202.971 132.28C203.595 132.28 204.151 132.416 204.639 132.688C205.127 132.96 205.507 133.344 205.779 133.84C206.051 134.328 206.187 134.892 206.187 135.532ZM204.759 135.1C204.751 134.596 204.571 134.192 204.219 133.888C203.867 133.584 203.431 133.432 202.911 133.432C202.439 133.432 202.035 133.584 201.699 133.888C201.363 134.184 201.163 134.588 201.099 135.1H204.759ZM216.413 132.388L214.361 139H212.921L211.589 134.116L210.257 139H208.817L206.753 132.388H208.145L209.525 137.704L210.929 132.388H212.357L213.701 137.68L215.069 132.388H216.413Z" fill="black"/>
<path d="M192.268 97.896H195.088V99H190.9V90.66H192.268V97.896ZM202.292 95.532C202.292 95.78 202.276 96.004 202.244 96.204H197.192C197.232 96.732 197.428 97.156 197.78 97.476C198.132 97.796 198.564 97.956 199.076 97.956C199.812 97.956 200.332 97.648 200.636 97.032H202.112C201.912 97.64 201.548 98.14 201.02 98.532C200.5 98.916 199.852 99.108 199.076 99.108C198.444 99.108 197.876 98.968 197.372 98.688C196.876 98.4 196.484 98 196.196 97.488C195.916 96.968 195.776 96.368 195.776 95.688C195.776 95.008 195.912 94.412 196.184 93.9C196.464 93.38 196.852 92.98 197.348 92.7C197.852 92.42 198.428 92.28 199.076 92.28C199.7 92.28 200.256 92.416 200.744 92.688C201.232 92.96 201.612 93.344 201.884 93.84C202.156 94.328 202.292 94.892 202.292 95.532ZM200.864 95.1C200.856 94.596 200.676 94.192 200.324 93.888C199.972 93.584 199.536 93.432 199.016 93.432C198.544 93.432 198.14 93.584 197.804 93.888C197.468 94.184 197.268 94.588 197.204 95.1H200.864ZM206.41 93.504H205.186V99H203.806V93.504H203.026V92.388H203.806V91.92C203.806 91.16 204.006 90.608 204.406 90.264C204.814 89.912 205.45 89.736 206.314 89.736V90.876C205.898 90.876 205.606 90.956 205.438 91.116C205.27 91.268 205.186 91.536 205.186 91.92V92.388H206.41V93.504ZM209.219 93.504V97.164C209.219 97.412 209.275 97.592 209.387 97.704C209.507 97.808 209.707 97.86 209.987 97.86H210.827V99H209.747C209.131 99 208.659 98.856 208.331 98.568C208.003 98.28 207.839 97.812 207.839 97.164V93.504H207.059V92.388H207.839V90.744H209.219V92.388H210.827V93.504H209.219Z" fill="black"/>
<path d="M270.444 94.812C270.444 93.996 270.632 93.264 271.008 92.616C271.392 91.968 271.908 91.464 272.556 91.104C273.212 90.736 273.928 90.552 274.704 90.552C275.592 90.552 276.38 90.772 277.068 91.212C277.764 91.644 278.268 92.26 278.58 93.06H276.936C276.72 92.62 276.42 92.292 276.036 92.076C275.652 91.86 275.208 91.752 274.704 91.752C274.152 91.752 273.66 91.876 273.228 92.124C272.796 92.372 272.456 92.728 272.208 93.192C271.968 93.656 271.848 94.196 271.848 94.812C271.848 95.428 271.968 95.968 272.208 96.432C272.456 96.896 272.796 97.256 273.228 97.512C273.66 97.76 274.152 97.884 274.704 97.884C275.208 97.884 275.652 97.776 276.036 97.56C276.42 97.344 276.72 97.016 276.936 96.576H278.58C278.268 97.376 277.764 97.992 277.068 98.424C276.38 98.856 275.592 99.072 274.704 99.072C273.92 99.072 273.204 98.892 272.556 98.532C271.908 98.164 271.392 97.656 271.008 97.008C270.632 96.36 270.444 95.628 270.444 94.812ZM286.241 95.532C286.241 95.78 286.225 96.004 286.193 96.204H281.141C281.181 96.732 281.377 97.156 281.729 97.476C282.081 97.796 282.513 97.956 283.025 97.956C283.761 97.956 284.281 97.648 284.585 97.032H286.061C285.861 97.64 285.497 98.14 284.969 98.532C284.449 98.916 283.801 99.108 283.025 99.108C282.393 99.108 281.825 98.968 281.321 98.688C280.825 98.4 280.433 98 280.145 97.488C279.865 96.968 279.725 96.368 279.725 95.688C279.725 95.008 279.861 94.412 280.133 93.9C280.413 93.38 280.801 92.98 281.297 92.7C281.801 92.42 282.377 92.28 283.025 92.28C283.649 92.28 284.205 92.416 284.693 92.688C285.181 92.96 285.561 93.344 285.833 93.84C286.105 94.328 286.241 94.892 286.241 95.532ZM284.813 95.1C284.805 94.596 284.625 94.192 284.273 93.888C283.921 93.584 283.485 93.432 282.965 93.432C282.493 93.432 282.089 93.584 281.753 93.888C281.417 94.184 281.217 94.588 281.153 95.1H284.813ZM290.924 92.28C291.444 92.28 291.908 92.388 292.316 92.604C292.732 92.82 293.056 93.14 293.288 93.564C293.52 93.988 293.636 94.5 293.636 95.1V99H292.28V95.304C292.28 94.712 292.132 94.26 291.836 93.948C291.54 93.628 291.136 93.468 290.624 93.468C290.112 93.468 289.704 93.628 289.4 93.948C289.104 94.26 288.956 94.712 288.956 95.304V99H287.588V92.388H288.956V93.144C289.18 92.872 289.464 92.66 289.808 92.508C290.16 92.356 290.532 92.28 290.924 92.28ZM296.976 93.504V97.164C296.976 97.412 297.032 97.592 297.144 97.704C297.264 97.808 297.464 97.86 297.744 97.86H298.584V99H297.504C296.888 99 296.416 98.856 296.088 98.568C295.76 98.28 295.596 97.812 295.596 97.164V93.504H294.816V92.388H295.596V90.744H296.976V92.388H298.584V93.504H296.976ZM305.905 95.532C305.905 95.78 305.889 96.004 305.857 96.204H300.805C300.845 96.732 301.041 97.156 301.393 97.476C301.745 97.796 302.177 97.956 302.689 97.956C303.425 97.956 303.945 97.648 304.249 97.032H305.725C305.525 97.64 305.161 98.14 304.633 98.532C304.113 98.916 303.465 99.108 302.689 99.108C302.057 99.108 301.489 98.968 300.985 98.688C300.489 98.4 300.097 98 299.809 97.488C299.529 96.968 299.389 96.368 299.389 95.688C299.389 95.008 299.525 94.412 299.797 93.9C300.077 93.38 300.465 92.98 300.961 92.7C301.465 92.42 302.041 92.28 302.689 92.28C303.313 92.28 303.869 92.416 304.357 92.688C304.845 92.96 305.225 93.344 305.497 93.84C305.769 94.328 305.905 94.892 305.905 95.532ZM304.477 95.1C304.469 94.596 304.289 94.192 303.937 93.888C303.585 93.584 303.149 93.432 302.629 93.432C302.157 93.432 301.753 93.584 301.417 93.888C301.081 94.184 300.881 94.588 300.817 95.1H304.477ZM308.62 93.348C308.82 93.012 309.084 92.752 309.412 92.568C309.748 92.376 310.144 92.28 310.6 92.28V93.696H310.252C309.716 93.696 309.308 93.832 309.028 94.104C308.756 94.376 308.62 94.848 308.62 95.52V99H307.252V92.388H308.62V93.348Z" fill="black"/>
<path d="M355.232 99L353.312 95.664H352.268V99H350.9V90.66H353.78C354.42 90.66 354.96 90.772 355.4 90.996C355.848 91.22 356.18 91.52 356.396 91.896C356.62 92.272 356.732 92.692 356.732 93.156C356.732 93.7 356.572 94.196 356.252 94.644C355.94 95.084 355.456 95.384 354.8 95.544L356.864 99H355.232ZM352.268 94.572H353.78C354.292 94.572 354.676 94.444 354.932 94.188C355.196 93.932 355.328 93.588 355.328 93.156C355.328 92.724 355.2 92.388 354.944 92.148C354.688 91.9 354.3 91.776 353.78 91.776H352.268V94.572ZM359.178 91.512C358.93 91.512 358.722 91.428 358.554 91.26C358.386 91.092 358.302 90.884 358.302 90.636C358.302 90.388 358.386 90.18 358.554 90.012C358.722 89.844 358.93 89.76 359.178 89.76C359.418 89.76 359.622 89.844 359.79 90.012C359.958 90.18 360.042 90.388 360.042 90.636C360.042 90.884 359.958 91.092 359.79 91.26C359.622 91.428 359.418 91.512 359.178 91.512ZM359.85 92.388V99H358.482V92.388H359.85ZM364.31 92.28C364.822 92.28 365.274 92.384 365.666 92.592C366.066 92.792 366.378 93.044 366.602 93.348V92.388H367.982V99.108C367.982 99.716 367.854 100.256 367.598 100.728C367.342 101.208 366.97 101.584 366.482 101.856C366.002 102.128 365.426 102.264 364.754 102.264C363.858 102.264 363.114 102.052 362.522 101.628C361.93 101.212 361.594 100.644 361.514 99.924H362.87C362.974 100.268 363.194 100.544 363.53 100.752C363.874 100.968 364.282 101.076 364.754 101.076C365.306 101.076 365.75 100.908 366.086 100.572C366.43 100.236 366.602 99.748 366.602 99.108V98.004C366.37 98.316 366.054 98.58 365.654 98.796C365.262 99.004 364.814 99.108 364.31 99.108C363.734 99.108 363.206 98.964 362.726 98.676C362.254 98.38 361.878 97.972 361.598 97.452C361.326 96.924 361.19 96.328 361.19 95.664C361.19 95 361.326 94.412 361.598 93.9C361.878 93.388 362.254 92.992 362.726 92.712C363.206 92.424 363.734 92.28 364.31 92.28ZM366.602 95.688C366.602 95.232 366.506 94.836 366.314 94.5C366.13 94.164 365.886 93.908 365.582 93.732C365.278 93.556 364.95 93.468 364.598 93.468C364.246 93.468 363.918 93.556 363.614 93.732C363.31 93.9 363.062 94.152 362.87 94.488C362.686 94.816 362.594 95.208 362.594 95.664C362.594 96.12 362.686 96.52 362.87 96.864C363.062 97.208 363.31 97.472 363.614 97.656C363.926 97.832 364.254 97.92 364.598 97.92C364.95 97.92 365.278 97.832 365.582 97.656C365.886 97.48 366.13 97.224 366.314 96.888C366.506 96.544 366.602 96.144 366.602 95.688ZM373.199 92.28C373.703 92.28 374.151 92.388 374.543 92.604C374.943 92.82 375.255 93.14 375.479 93.564C375.711 93.988 375.827 94.5 375.827 95.1V99H374.471V95.304C374.471 94.712 374.323 94.26 374.027 93.948C373.731 93.628 373.327 93.468 372.815 93.468C372.303 93.468 371.895 93.628 371.591 93.948C371.295 94.26 371.147 94.712 371.147 95.304V99H369.779V90.12H371.147V93.156C371.379 92.876 371.671 92.66 372.023 92.508C372.383 92.356 372.775 92.28 373.199 92.28ZM379.168 93.504V97.164C379.168 97.412 379.224 97.592 379.336 97.704C379.456 97.808 379.656 97.86 379.936 97.86H380.776V99H379.696C379.08 99 378.608 98.856 378.28 98.568C377.952 98.28 377.788 97.812 377.788 97.164V93.504H377.008V92.388H377.788V90.744H379.168V92.388H380.776V93.504H379.168Z" fill="black"/>
<rect x="249" y="94" width="12" height="2" rx="1" fill="black"/>
<rect x="252" y="90" width="6" height="2" rx="1" fill="black"/>
<rect x="251" y="98" width="8" height="2" rx="1" fill="black"/>
<rect x="169" y="94" width="12" height="2" rx="1" fill="black"/>
<rect x="169" y="90" width="6" height="2" rx="1" fill="black"/>
<rect x="169" y="98" width="8" height="2" rx="1" fill="black"/>
<rect x="329" y="94" width="12" height="2" rx="1" fill="black"/>
<rect x="335" y="90" width="6" height="2" rx="1" fill="black"/>
<rect x="333" y="98" width="8" height="2" rx="1" fill="black"/>
</svg>
