<svg width="250" height="28" viewBox="0 0 250 28" fill="none" xmlns="http://www.w3.org/2000/svg">
<rect width="250" height="28" rx="5" fill="#E6E6E6"/>
<path d="M13.56 8.66V9.6H12.55V18.91H13.56V19.86H11.48V8.66H13.56ZM15.2235 15.22C15.2235 14.6667 15.3368 14.1767 15.5635 13.75C15.7968 13.3233 16.1102 12.9933 16.5035 12.76C16.9035 12.52 17.3435 12.4 17.8235 12.4C18.2568 12.4 18.6335 12.4867 18.9535 12.66C19.2802 12.8267 19.5402 13.0367 19.7335 13.29V12.49H20.8835V18H19.7335V17.18C19.5402 17.44 19.2768 17.6567 18.9435 17.83C18.6102 18.0033 18.2302 18.09 17.8035 18.09C17.3302 18.09 16.8968 17.97 16.5035 17.73C16.1102 17.4833 15.7968 17.1433 15.5635 16.71C15.3368 16.27 15.2235 15.7733 15.2235 15.22ZM19.7335 15.24C19.7335 14.86 19.6535 14.53 19.4935 14.25C19.3402 13.97 19.1368 13.7567 18.8835 13.61C18.6302 13.4633 18.3568 13.39 18.0635 13.39C17.7702 13.39 17.4968 13.4633 17.2435 13.61C16.9902 13.75 16.7835 13.96 16.6235 14.24C16.4702 14.5133 16.3935 14.84 16.3935 15.22C16.3935 15.6 16.4702 15.9333 16.6235 16.22C16.7835 16.5067 16.9902 16.7267 17.2435 16.88C17.5035 17.0267 17.7768 17.1 18.0635 17.1C18.3568 17.1 18.6302 17.0267 18.8835 16.88C19.1368 16.7333 19.3402 16.52 19.4935 16.24C19.6535 15.9533 19.7335 15.62 19.7335 15.24ZM23.5209 13.3C23.7142 13.0467 23.9775 12.8333 24.3109 12.66C24.6442 12.4867 25.0209 12.4 25.4409 12.4C25.9209 12.4 26.3575 12.52 26.7509 12.76C27.1509 12.9933 27.4642 13.3233 27.6909 13.75C27.9175 14.1767 28.0309 14.6667 28.0309 15.22C28.0309 15.7733 27.9175 16.27 27.6909 16.71C27.4642 17.1433 27.1509 17.4833 26.7509 17.73C26.3575 17.97 25.9209 18.09 25.4409 18.09C25.0209 18.09 24.6475 18.0067 24.3209 17.84C23.9942 17.6667 23.7275 17.4533 23.5209 17.2V20.62H22.3809V12.49H23.5209V13.3ZM26.8709 15.22C26.8709 14.84 26.7909 14.5133 26.6309 14.24C26.4775 13.96 26.2709 13.75 26.0109 13.61C25.7575 13.4633 25.4842 13.39 25.1909 13.39C24.9042 13.39 24.6309 13.4633 24.3709 13.61C24.1175 13.7567 23.9109 13.97 23.7509 14.25C23.5975 14.53 23.5209 14.86 23.5209 15.24C23.5209 15.62 23.5975 15.9533 23.7509 16.24C23.9109 16.52 24.1175 16.7333 24.3709 16.88C24.6309 17.0267 24.9042 17.1 25.1909 17.1C25.4842 17.1 25.7575 17.0267 26.0109 16.88C26.2709 16.7267 26.4775 16.5067 26.6309 16.22C26.7909 15.9333 26.8709 15.6 26.8709 15.22ZM30.2982 13.3C30.4915 13.0467 30.7549 12.8333 31.0882 12.66C31.4215 12.4867 31.7982 12.4 32.2182 12.4C32.6982 12.4 33.1349 12.52 33.5282 12.76C33.9282 12.9933 34.2415 13.3233 34.4682 13.75C34.6949 14.1767 34.8082 14.6667 34.8082 15.22C34.8082 15.7733 34.6949 16.27 34.4682 16.71C34.2415 17.1433 33.9282 17.4833 33.5282 17.73C33.1349 17.97 32.6982 18.09 32.2182 18.09C31.7982 18.09 31.4249 18.0067 31.0982 17.84C30.7715 17.6667 30.5049 17.4533 30.2982 17.2V20.62H29.1582V12.49H30.2982V13.3ZM33.6482 15.22C33.6482 14.84 33.5682 14.5133 33.4082 14.24C33.2549 13.96 33.0482 13.75 32.7882 13.61C32.5349 13.4633 32.2615 13.39 31.9682 13.39C31.6815 13.39 31.4082 13.4633 31.1482 13.61C30.8949 13.7567 30.6882 13.97 30.5282 14.25C30.3749 14.53 30.2982 14.86 30.2982 15.24C30.2982 15.62 30.3749 15.9533 30.5282 16.24C30.6882 16.52 30.8949 16.7333 31.1482 16.88C31.4082 17.0267 31.6815 17.1 31.9682 17.1C32.2615 17.1 32.5349 17.0267 32.7882 16.88C33.0482 16.7267 33.2549 16.5067 33.4082 16.22C33.5682 15.9333 33.6482 15.6 33.6482 15.22ZM41.3132 12.4C41.7465 12.4 42.1332 12.49 42.4732 12.67C42.8199 12.85 43.0899 13.1167 43.2832 13.47C43.4765 13.8233 43.5732 14.25 43.5732 14.75V18H42.4432V14.92C42.4432 14.4267 42.3199 14.05 42.0732 13.79C41.8265 13.5233 41.4899 13.39 41.0632 13.39C40.6365 13.39 40.2965 13.5233 40.0432 13.79C39.7965 14.05 39.6732 14.4267 39.6732 14.92V18H38.5332V12.49H39.6732V13.12C39.8599 12.8933 40.0965 12.7167 40.3832 12.59C40.6765 12.4633 40.9865 12.4 41.3132 12.4ZM44.6473 15.22C44.6473 14.6667 44.7607 14.1767 44.9873 13.75C45.2207 13.3233 45.534 12.9933 45.9273 12.76C46.3273 12.52 46.7673 12.4 47.2473 12.4C47.6807 12.4 48.0573 12.4867 48.3773 12.66C48.704 12.8267 48.964 13.0367 49.1573 13.29V12.49H50.3073V18H49.1573V17.18C48.964 17.44 48.7007 17.6567 48.3673 17.83C48.034 18.0033 47.654 18.09 47.2273 18.09C46.754 18.09 46.3207 17.97 45.9273 17.73C45.534 17.4833 45.2207 17.1433 44.9873 16.71C44.7607 16.27 44.6473 15.7733 44.6473 15.22ZM49.1573 15.24C49.1573 14.86 49.0773 14.53 48.9173 14.25C48.764 13.97 48.5607 13.7567 48.3073 13.61C48.054 13.4633 47.7807 13.39 47.4873 13.39C47.194 13.39 46.9207 13.4633 46.6673 13.61C46.414 13.75 46.2073 13.96 46.0473 14.24C45.894 14.5133 45.8173 14.84 45.8173 15.22C45.8173 15.6 45.894 15.9333 46.0473 16.22C46.2073 16.5067 46.414 16.7267 46.6673 16.88C46.9273 17.0267 47.2007 17.1 47.4873 17.1C47.7807 17.1 48.054 17.0267 48.3073 16.88C48.5607 16.7333 48.764 16.52 48.9173 16.24C49.0773 15.9533 49.1573 15.62 49.1573 15.24ZM58.4747 12.4C58.908 12.4 59.2947 12.49 59.6347 12.67C59.9814 12.85 60.2514 13.1167 60.4447 13.47C60.6447 13.8233 60.7447 14.25 60.7447 14.75V18H59.6147V14.92C59.6147 14.4267 59.4914 14.05 59.2447 13.79C58.998 13.5233 58.6614 13.39 58.2347 13.39C57.808 13.39 57.468 13.5233 57.2147 13.79C56.968 14.05 56.8447 14.4267 56.8447 14.92V18H55.7147V14.92C55.7147 14.4267 55.5914 14.05 55.3447 13.79C55.098 13.5233 54.7614 13.39 54.3347 13.39C53.908 13.39 53.568 13.5233 53.3147 13.79C53.068 14.05 52.9447 14.4267 52.9447 14.92V18H51.8047V12.49H52.9447V13.12C53.1314 12.8933 53.368 12.7167 53.6547 12.59C53.9414 12.4633 54.248 12.4 54.5747 12.4C55.0147 12.4 55.408 12.4933 55.7547 12.68C56.1014 12.8667 56.368 13.1367 56.5547 13.49C56.7214 13.1567 56.9814 12.8933 57.3347 12.7C57.688 12.5 58.068 12.4 58.4747 12.4ZM67.2453 15.11C67.2453 15.3167 67.232 15.5033 67.2053 15.67H62.9953C63.0286 16.11 63.192 16.4633 63.4853 16.73C63.7786 16.9967 64.1386 17.13 64.5653 17.13C65.1786 17.13 65.612 16.8733 65.8653 16.36H67.0953C66.9286 16.8667 66.6253 17.2833 66.1853 17.61C65.752 17.93 65.212 18.09 64.5653 18.09C64.0386 18.09 63.5653 17.9733 63.1453 17.74C62.732 17.5 62.4053 17.1667 62.1653 16.74C61.932 16.3067 61.8153 15.8067 61.8153 15.24C61.8153 14.6733 61.9286 14.1767 62.1553 13.75C62.3886 13.3167 62.712 12.9833 63.1253 12.75C63.5453 12.5167 64.0253 12.4 64.5653 12.4C65.0853 12.4 65.5486 12.5133 65.9553 12.74C66.362 12.9667 66.6786 13.2867 66.9053 13.7C67.132 14.1067 67.2453 14.5767 67.2453 15.11ZM66.0553 14.75C66.0486 14.33 65.8986 13.9933 65.6053 13.74C65.312 13.4867 64.9486 13.36 64.5153 13.36C64.122 13.36 63.7853 13.4867 63.5053 13.74C63.2253 13.9867 63.0586 14.3233 63.0053 14.75H66.0553ZM70.9772 19.86H68.8972V18.91H69.9072V9.6H68.8972V8.66H70.9772V19.86Z" fill="black"/>
</svg>
