<svg width="80" height="28" viewBox="0 0 80 28" fill="none" xmlns="http://www.w3.org/2000/svg">
<rect width="80" height="28" rx="5" fill="#1B1B1B"/>
<path d="M12.08 13.42V16.47C12.08 16.6767 12.1267 16.8267 12.22 16.92C12.32 17.0067 12.4867 17.05 12.72 17.05H13.42V18H12.52C12.0067 18 11.6133 17.88 11.34 17.64C11.0667 17.4 10.93 17.01 10.93 16.47V13.42H10.28V12.49H10.93V11.12H12.08V12.49H13.42V13.42H12.08ZM15.0507 11.76C14.844 11.76 14.6707 11.69 14.5307 11.55C14.3907 11.41 14.3207 11.2367 14.3207 11.03C14.3207 10.8233 14.3907 10.65 14.5307 10.51C14.6707 10.37 14.844 10.3 15.0507 10.3C15.2507 10.3 15.4207 10.37 15.5607 10.51C15.7007 10.65 15.7707 10.8233 15.7707 11.03C15.7707 11.2367 15.7007 11.41 15.5607 11.55C15.4207 11.69 15.2507 11.76 15.0507 11.76ZM15.6107 12.49V18H14.4707V12.49H15.6107ZM23.7774 12.4C24.2108 12.4 24.5974 12.49 24.9374 12.67C25.2841 12.85 25.5541 13.1167 25.7474 13.47C25.9474 13.8233 26.0474 14.25 26.0474 14.75V18H24.9174V14.92C24.9174 14.4267 24.7941 14.05 24.5474 13.79C24.3008 13.5233 23.9641 13.39 23.5374 13.39C23.1108 13.39 22.7708 13.5233 22.5174 13.79C22.2708 14.05 22.1474 14.4267 22.1474 14.92V18H21.0174V14.92C21.0174 14.4267 20.8941 14.05 20.6474 13.79C20.4008 13.5233 20.0641 13.39 19.6374 13.39C19.2108 13.39 18.8708 13.5233 18.6174 13.79C18.3708 14.05 18.2474 14.4267 18.2474 14.92V18H17.1074V12.49H18.2474V13.12C18.4341 12.8933 18.6708 12.7167 18.9574 12.59C19.2441 12.4633 19.5508 12.4 19.8774 12.4C20.3174 12.4 20.7108 12.4933 21.0574 12.68C21.4041 12.8667 21.6708 13.1367 21.8574 13.49C22.0241 13.1567 22.2841 12.8933 22.6374 12.7C22.9908 12.5 23.3708 12.4 23.7774 12.4ZM32.548 15.11C32.548 15.3167 32.5347 15.5033 32.508 15.67H28.298C28.3314 16.11 28.4947 16.4633 28.788 16.73C29.0814 16.9967 29.4414 17.13 29.868 17.13C30.4814 17.13 30.9147 16.8733 31.168 16.36H32.398C32.2314 16.8667 31.928 17.2833 31.488 17.61C31.0547 17.93 30.5147 18.09 29.868 18.09C29.3414 18.09 28.868 17.9733 28.448 17.74C28.0347 17.5 27.708 17.1667 27.468 16.74C27.2347 16.3067 27.118 15.8067 27.118 15.24C27.118 14.6733 27.2314 14.1767 27.458 13.75C27.6914 13.3167 28.0147 12.9833 28.428 12.75C28.848 12.5167 29.328 12.4 29.868 12.4C30.388 12.4 30.8514 12.5133 31.258 12.74C31.6647 12.9667 31.9814 13.2867 32.208 13.7C32.4347 14.1067 32.548 14.5767 32.548 15.11ZM31.358 14.75C31.3514 14.33 31.2014 13.9933 30.908 13.74C30.6147 13.4867 30.2514 13.36 29.818 13.36C29.4247 13.36 29.088 13.4867 28.808 13.74C28.528 13.9867 28.3614 14.3233 28.308 14.75H31.358Z" fill="white"/>
</svg>
