<svg width="480" height="360" viewBox="0 0 480 360" fill="none" xmlns="http://www.w3.org/2000/svg">
<path d="M178.384 19.88V21.368H175.424V31H173.6V21.368H170.624V19.88H178.384ZM184.055 31.144C183.223 31.144 182.471 30.9573 181.799 30.584C181.127 30.2 180.599 29.6667 180.215 28.984C179.831 28.2907 179.639 27.4907 179.639 26.584C179.639 25.688 179.837 24.8933 180.231 24.2C180.626 23.5067 181.165 22.9733 181.847 22.6C182.53 22.2267 183.293 22.04 184.135 22.04C184.978 22.04 185.741 22.2267 186.423 22.6C187.106 22.9733 187.645 23.5067 188.039 24.2C188.434 24.8933 188.631 25.688 188.631 26.584C188.631 27.48 188.429 28.2747 188.023 28.968C187.618 29.6613 187.063 30.2 186.359 30.584C185.666 30.9573 184.898 31.144 184.055 31.144ZM184.055 29.56C184.525 29.56 184.962 29.448 185.367 29.224C185.783 29 186.119 28.664 186.375 28.216C186.631 27.768 186.759 27.224 186.759 26.584C186.759 25.944 186.637 25.4053 186.391 24.968C186.146 24.52 185.821 24.184 185.415 23.96C185.01 23.736 184.573 23.624 184.103 23.624C183.634 23.624 183.197 23.736 182.791 23.96C182.397 24.184 182.082 24.52 181.847 24.968C181.613 25.4053 181.495 25.944 181.495 26.584C181.495 27.5333 181.735 28.2693 182.215 28.792C182.706 29.304 183.319 29.56 184.055 29.56ZM194.258 31.144C193.426 31.144 192.674 30.9573 192.002 30.584C191.33 30.2 190.802 29.6667 190.418 28.984C190.034 28.2907 189.842 27.4907 189.842 26.584C189.842 25.688 190.04 24.8933 190.434 24.2C190.829 23.5067 191.368 22.9733 192.05 22.6C192.733 22.2267 193.496 22.04 194.338 22.04C195.181 22.04 195.944 22.2267 196.626 22.6C197.309 22.9733 197.848 23.5067 198.242 24.2C198.637 24.8933 198.834 25.688 198.834 26.584C198.834 27.48 198.632 28.2747 198.226 28.968C197.821 29.6613 197.266 30.2 196.562 30.584C195.869 30.9573 195.101 31.144 194.258 31.144ZM194.258 29.56C194.728 29.56 195.165 29.448 195.57 29.224C195.986 29 196.322 28.664 196.578 28.216C196.834 27.768 196.962 27.224 196.962 26.584C196.962 25.944 196.84 25.4053 196.594 24.968C196.349 24.52 196.024 24.184 195.618 23.96C195.213 23.736 194.776 23.624 194.306 23.624C193.837 23.624 193.4 23.736 192.994 23.96C192.6 24.184 192.285 24.52 192.05 24.968C191.816 25.4053 191.698 25.944 191.698 26.584C191.698 27.5333 191.938 28.2693 192.418 28.792C192.909 29.304 193.522 29.56 194.258 29.56ZM202.462 19.16V31H200.638V19.16H202.462Z" fill="black"/>
<path d="M173.648 69.084C173.088 69.084 172.584 68.988 172.136 68.796C171.688 68.596 171.336 68.316 171.08 67.956C170.824 67.596 170.696 67.176 170.696 66.696H172.16C172.192 67.056 172.332 67.352 172.58 67.584C172.836 67.816 173.192 67.932 173.648 67.932C174.12 67.932 174.488 67.82 174.752 67.596C175.016 67.364 175.148 67.068 175.148 66.708C175.148 66.428 175.064 66.2 174.896 66.024C174.736 65.848 174.532 65.712 174.284 65.616C174.044 65.52 173.708 65.416 173.276 65.304C172.732 65.16 172.288 65.016 171.944 64.872C171.608 64.72 171.32 64.488 171.08 64.176C170.84 63.864 170.72 63.448 170.72 62.928C170.72 62.448 170.84 62.028 171.08 61.668C171.32 61.308 171.656 61.032 172.088 60.84C172.52 60.648 173.02 60.552 173.588 60.552C174.396 60.552 175.056 60.756 175.568 61.164C176.088 61.564 176.376 62.116 176.432 62.82H174.92C174.896 62.516 174.752 62.256 174.488 62.04C174.224 61.824 173.876 61.716 173.444 61.716C173.052 61.716 172.732 61.816 172.484 62.016C172.236 62.216 172.112 62.504 172.112 62.88C172.112 63.136 172.188 63.348 172.34 63.516C172.5 63.676 172.7 63.804 172.94 63.9C173.18 63.996 173.508 64.1 173.924 64.212C174.476 64.364 174.924 64.516 175.268 64.668C175.62 64.82 175.916 65.056 176.156 65.376C176.404 65.688 176.528 66.108 176.528 66.636C176.528 67.06 176.412 67.46 176.18 67.836C175.956 68.212 175.624 68.516 175.184 68.748C174.752 68.972 174.24 69.084 173.648 69.084ZM181.562 62.28C182.066 62.28 182.514 62.388 182.906 62.604C183.306 62.82 183.618 63.14 183.842 63.564C184.074 63.988 184.19 64.5 184.19 65.1V69H182.834V65.304C182.834 64.712 182.686 64.26 182.39 63.948C182.094 63.628 181.69 63.468 181.178 63.468C180.666 63.468 180.258 63.628 179.954 63.948C179.658 64.26 179.51 64.712 179.51 65.304V69H178.142V60.12H179.51V63.156C179.742 62.876 180.034 62.66 180.386 62.508C180.746 62.356 181.138 62.28 181.562 62.28ZM185.479 65.664C185.479 65 185.615 64.412 185.887 63.9C186.167 63.388 186.543 62.992 187.015 62.712C187.495 62.424 188.023 62.28 188.599 62.28C189.119 62.28 189.571 62.384 189.955 62.592C190.347 62.792 190.659 63.044 190.891 63.348V62.388H192.271V69H190.891V68.016C190.659 68.328 190.343 68.588 189.943 68.796C189.543 69.004 189.087 69.108 188.575 69.108C188.007 69.108 187.487 68.964 187.015 68.676C186.543 68.38 186.167 67.972 185.887 67.452C185.615 66.924 185.479 66.328 185.479 65.664ZM190.891 65.688C190.891 65.232 190.795 64.836 190.603 64.5C190.419 64.164 190.175 63.908 189.871 63.732C189.567 63.556 189.239 63.468 188.887 63.468C188.535 63.468 188.207 63.556 187.903 63.732C187.599 63.9 187.351 64.152 187.159 64.488C186.975 64.816 186.883 65.208 186.883 65.664C186.883 66.12 186.975 66.52 187.159 66.864C187.351 67.208 187.599 67.472 187.903 67.656C188.215 67.832 188.543 67.92 188.887 67.92C189.239 67.92 189.567 67.832 189.871 67.656C190.175 67.48 190.419 67.224 190.603 66.888C190.795 66.544 190.891 66.144 190.891 65.688ZM195.436 63.36C195.668 63.056 195.984 62.8 196.384 62.592C196.784 62.384 197.236 62.28 197.74 62.28C198.316 62.28 198.84 62.424 199.312 62.712C199.792 62.992 200.168 63.388 200.44 63.9C200.712 64.412 200.848 65 200.848 65.664C200.848 66.328 200.712 66.924 200.44 67.452C200.168 67.972 199.792 68.38 199.312 68.676C198.84 68.964 198.316 69.108 197.74 69.108C197.236 69.108 196.788 69.008 196.396 68.808C196.004 68.6 195.684 68.344 195.436 68.04V72.144H194.068V62.388H195.436V63.36ZM199.456 65.664C199.456 65.208 199.36 64.816 199.168 64.488C198.984 64.152 198.736 63.9 198.424 63.732C198.12 63.556 197.792 63.468 197.44 63.468C197.096 63.468 196.768 63.556 196.456 63.732C196.152 63.908 195.904 64.164 195.712 64.5C195.528 64.836 195.436 65.232 195.436 65.688C195.436 66.144 195.528 66.544 195.712 66.888C195.904 67.224 196.152 67.48 196.456 67.656C196.768 67.832 197.096 67.92 197.44 67.92C197.792 67.92 198.12 67.832 198.424 67.656C198.736 67.472 198.984 67.208 199.168 66.864C199.36 66.52 199.456 66.12 199.456 65.664ZM208.261 65.532C208.261 65.78 208.245 66.004 208.213 66.204H203.161C203.201 66.732 203.397 67.156 203.749 67.476C204.101 67.796 204.533 67.956 205.045 67.956C205.781 67.956 206.301 67.648 206.605 67.032H208.081C207.881 67.64 207.517 68.14 206.989 68.532C206.469 68.916 205.821 69.108 205.045 69.108C204.413 69.108 203.845 68.968 203.341 68.688C202.845 68.4 202.453 68 202.165 67.488C201.885 66.968 201.745 66.368 201.745 65.688C201.745 65.008 201.881 64.412 202.153 63.9C202.433 63.38 202.821 62.98 203.317 62.7C203.821 62.42 204.397 62.28 205.045 62.28C205.669 62.28 206.225 62.416 206.713 62.688C207.201 62.96 207.581 63.344 207.853 63.84C208.125 64.328 208.261 64.892 208.261 65.532ZM206.833 65.1C206.825 64.596 206.645 64.192 206.293 63.888C205.941 63.584 205.505 63.432 204.985 63.432C204.513 63.432 204.109 63.584 203.773 63.888C203.437 64.184 203.237 64.588 203.173 65.1H206.833Z" fill="black"/>
<path d="M176.732 293.144C176.732 293.568 176.632 293.968 176.432 294.344C176.232 294.72 175.912 295.028 175.472 295.268C175.032 295.5 174.468 295.616 173.78 295.616H172.268V299H170.9V290.66H173.78C174.42 290.66 174.96 290.772 175.4 290.996C175.848 291.212 176.18 291.508 176.396 291.884C176.62 292.26 176.732 292.68 176.732 293.144ZM173.78 294.5C174.3 294.5 174.688 294.384 174.944 294.152C175.2 293.912 175.328 293.576 175.328 293.144C175.328 292.232 174.812 291.776 173.78 291.776H172.268V294.5H173.78ZM179.405 293.348C179.605 293.012 179.869 292.752 180.197 292.568C180.533 292.376 180.929 292.28 181.385 292.28V293.696H181.037C180.501 293.696 180.093 293.832 179.813 294.104C179.541 294.376 179.405 294.848 179.405 295.52V299H178.037V292.388H179.405V293.348ZM188.702 295.532C188.702 295.78 188.686 296.004 188.654 296.204H183.602C183.642 296.732 183.838 297.156 184.19 297.476C184.542 297.796 184.974 297.956 185.486 297.956C186.222 297.956 186.742 297.648 187.046 297.032H188.522C188.322 297.64 187.958 298.14 187.43 298.532C186.91 298.916 186.262 299.108 185.486 299.108C184.854 299.108 184.286 298.968 183.782 298.688C183.286 298.4 182.894 298 182.606 297.488C182.326 296.968 182.186 296.368 182.186 295.688C182.186 295.008 182.322 294.412 182.594 293.9C182.874 293.38 183.262 292.98 183.758 292.7C184.262 292.42 184.838 292.28 185.486 292.28C186.11 292.28 186.666 292.416 187.154 292.688C187.642 292.96 188.022 293.344 188.294 293.84C188.566 294.328 188.702 294.892 188.702 295.532ZM187.274 295.1C187.266 294.596 187.086 294.192 186.734 293.888C186.382 293.584 185.946 293.432 185.426 293.432C184.954 293.432 184.55 293.584 184.214 293.888C183.878 294.184 183.678 294.588 183.614 295.1H187.274ZM192.604 297.776L194.476 292.388H195.928L193.408 299H191.776L189.268 292.388H190.732L192.604 297.776ZM197.659 291.512C197.411 291.512 197.203 291.428 197.035 291.26C196.867 291.092 196.783 290.884 196.783 290.636C196.783 290.388 196.867 290.18 197.035 290.012C197.203 289.844 197.411 289.76 197.659 289.76C197.899 289.76 198.103 289.844 198.271 290.012C198.439 290.18 198.523 290.388 198.523 290.636C198.523 290.884 198.439 291.092 198.271 291.26C198.103 291.428 197.899 291.512 197.659 291.512ZM198.331 292.388V299H196.963V292.388H198.331ZM206.187 295.532C206.187 295.78 206.171 296.004 206.139 296.204H201.087C201.127 296.732 201.323 297.156 201.675 297.476C202.027 297.796 202.459 297.956 202.971 297.956C203.707 297.956 204.227 297.648 204.531 297.032H206.007C205.807 297.64 205.443 298.14 204.915 298.532C204.395 298.916 203.747 299.108 202.971 299.108C202.339 299.108 201.771 298.968 201.267 298.688C200.771 298.4 200.379 298 200.091 297.488C199.811 296.968 199.671 296.368 199.671 295.688C199.671 295.008 199.807 294.412 200.079 293.9C200.359 293.38 200.747 292.98 201.243 292.7C201.747 292.42 202.323 292.28 202.971 292.28C203.595 292.28 204.151 292.416 204.639 292.688C205.127 292.96 205.507 293.344 205.779 293.84C206.051 294.328 206.187 294.892 206.187 295.532ZM204.759 295.1C204.751 294.596 204.571 294.192 204.219 293.888C203.867 293.584 203.431 293.432 202.911 293.432C202.439 293.432 202.035 293.584 201.699 293.888C201.363 294.184 201.163 294.588 201.099 295.1H204.759ZM216.413 292.388L214.361 299H212.921L211.589 294.116L210.257 299H208.817L206.753 292.388H208.145L209.525 297.704L210.929 292.388H212.357L213.701 297.68L215.069 292.388H216.413Z" fill="black"/>
<path d="M176.288 220.66V221.776H174.068V229H172.7V221.776H170.468V220.66H176.288ZM181.093 222.28C181.597 222.28 182.045 222.388 182.437 222.604C182.837 222.82 183.149 223.14 183.373 223.564C183.605 223.988 183.721 224.5 183.721 225.1V229H182.365V225.304C182.365 224.712 182.217 224.26 181.921 223.948C181.625 223.628 181.221 223.468 180.709 223.468C180.197 223.468 179.789 223.628 179.485 223.948C179.189 224.26 179.041 224.712 179.041 225.304V229H177.673V220.12H179.041V223.156C179.273 222.876 179.565 222.66 179.917 222.508C180.277 222.356 180.669 222.28 181.093 222.28ZM186.162 221.512C185.914 221.512 185.706 221.428 185.538 221.26C185.37 221.092 185.286 220.884 185.286 220.636C185.286 220.388 185.37 220.18 185.538 220.012C185.706 219.844 185.914 219.76 186.162 219.76C186.402 219.76 186.606 219.844 186.774 220.012C186.942 220.18 187.026 220.388 187.026 220.636C187.026 220.884 186.942 221.092 186.774 221.26C186.606 221.428 186.402 221.512 186.162 221.512ZM186.834 222.388V229H185.466V222.388H186.834ZM188.174 225.688C188.174 225.008 188.31 224.412 188.582 223.9C188.862 223.38 189.246 222.98 189.734 222.7C190.222 222.42 190.782 222.28 191.414 222.28C192.214 222.28 192.874 222.472 193.394 222.856C193.922 223.232 194.278 223.772 194.462 224.476H192.986C192.866 224.148 192.674 223.892 192.41 223.708C192.146 223.524 191.814 223.432 191.414 223.432C190.854 223.432 190.406 223.632 190.07 224.032C189.742 224.424 189.578 224.976 189.578 225.688C189.578 226.4 189.742 226.956 190.07 227.356C190.406 227.756 190.854 227.956 191.414 227.956C192.206 227.956 192.73 227.608 192.986 226.912H194.462C194.27 227.584 193.91 228.12 193.382 228.52C192.854 228.912 192.198 229.108 191.414 229.108C190.782 229.108 190.222 228.968 189.734 228.688C189.246 228.4 188.862 228 188.582 227.488C188.31 226.968 188.174 226.368 188.174 225.688ZM198.442 225.7L201.49 229H199.642L197.194 226.156V229H195.826V220.12H197.194V225.28L199.594 222.388H201.49L198.442 225.7ZM205.806 222.28C206.326 222.28 206.79 222.388 207.198 222.604C207.614 222.82 207.938 223.14 208.17 223.564C208.402 223.988 208.518 224.5 208.518 225.1V229H207.162V225.304C207.162 224.712 207.014 224.26 206.718 223.948C206.422 223.628 206.018 223.468 205.506 223.468C204.994 223.468 204.586 223.628 204.282 223.948C203.986 224.26 203.838 224.712 203.838 225.304V229H202.47V222.388H203.838V223.144C204.062 222.872 204.346 222.66 204.69 222.508C205.042 222.356 205.414 222.28 205.806 222.28ZM216.323 225.532C216.323 225.78 216.307 226.004 216.275 226.204H211.223C211.263 226.732 211.459 227.156 211.811 227.476C212.163 227.796 212.595 227.956 213.107 227.956C213.843 227.956 214.363 227.648 214.667 227.032H216.143C215.943 227.64 215.579 228.14 215.051 228.532C214.531 228.916 213.883 229.108 213.107 229.108C212.475 229.108 211.907 228.968 211.403 228.688C210.907 228.4 210.515 228 210.227 227.488C209.947 226.968 209.807 226.368 209.807 225.688C209.807 225.008 209.943 224.412 210.215 223.9C210.495 223.38 210.883 222.98 211.379 222.7C211.883 222.42 212.459 222.28 213.107 222.28C213.731 222.28 214.287 222.416 214.775 222.688C215.263 222.96 215.643 223.344 215.915 223.84C216.187 224.328 216.323 224.892 216.323 225.532ZM214.895 225.1C214.887 224.596 214.707 224.192 214.355 223.888C214.003 223.584 213.567 223.432 213.047 223.432C212.575 223.432 212.171 223.584 211.835 223.888C211.499 224.184 211.299 224.588 211.235 225.1H214.895ZM220.07 229.108C219.55 229.108 219.082 229.016 218.666 228.832C218.258 228.64 217.934 228.384 217.694 228.064C217.454 227.736 217.326 227.372 217.31 226.972H218.726C218.75 227.252 218.882 227.488 219.122 227.68C219.37 227.864 219.678 227.956 220.046 227.956C220.43 227.956 220.726 227.884 220.934 227.74C221.15 227.588 221.258 227.396 221.258 227.164C221.258 226.916 221.138 226.732 220.898 226.612C220.666 226.492 220.294 226.36 219.782 226.216C219.286 226.08 218.882 225.948 218.57 225.82C218.258 225.692 217.986 225.496 217.754 225.232C217.53 224.968 217.418 224.62 217.418 224.188C217.418 223.836 217.522 223.516 217.73 223.228C217.938 222.932 218.234 222.7 218.618 222.532C219.01 222.364 219.458 222.28 219.962 222.28C220.714 222.28 221.318 222.472 221.774 222.856C222.238 223.232 222.486 223.748 222.518 224.404H221.15C221.126 224.108 221.006 223.872 220.79 223.696C220.574 223.52 220.282 223.432 219.914 223.432C219.554 223.432 219.278 223.5 219.086 223.636C218.894 223.772 218.798 223.952 218.798 224.176C218.798 224.352 218.862 224.5 218.99 224.62C219.118 224.74 219.274 224.836 219.458 224.908C219.642 224.972 219.914 225.056 220.274 225.16C220.754 225.288 221.146 225.42 221.45 225.556C221.762 225.684 222.03 225.876 222.254 226.132C222.478 226.388 222.594 226.728 222.602 227.152C222.602 227.528 222.498 227.864 222.29 228.16C222.082 228.456 221.786 228.688 221.402 228.856C221.026 229.024 220.582 229.108 220.07 229.108ZM226.48 229.108C225.96 229.108 225.492 229.016 225.076 228.832C224.668 228.64 224.344 228.384 224.104 228.064C223.864 227.736 223.736 227.372 223.72 226.972H225.136C225.16 227.252 225.292 227.488 225.532 227.68C225.78 227.864 226.088 227.956 226.456 227.956C226.84 227.956 227.136 227.884 227.344 227.74C227.56 227.588 227.668 227.396 227.668 227.164C227.668 226.916 227.548 226.732 227.308 226.612C227.076 226.492 226.704 226.36 226.192 226.216C225.696 226.08 225.292 225.948 224.98 225.82C224.668 225.692 224.396 225.496 224.164 225.232C223.94 224.968 223.828 224.62 223.828 224.188C223.828 223.836 223.932 223.516 224.14 223.228C224.348 222.932 224.644 222.7 225.028 222.532C225.42 222.364 225.868 222.28 226.372 222.28C227.124 222.28 227.728 222.472 228.184 222.856C228.648 223.232 228.896 223.748 228.928 224.404H227.56C227.536 224.108 227.416 223.872 227.2 223.696C226.984 223.52 226.692 223.432 226.324 223.432C225.964 223.432 225.688 223.5 225.496 223.636C225.304 223.772 225.208 223.952 225.208 224.176C225.208 224.352 225.272 224.5 225.4 224.62C225.528 224.74 225.684 224.836 225.868 224.908C226.052 224.972 226.324 225.056 226.684 225.16C227.164 225.288 227.556 225.42 227.86 225.556C228.172 225.684 228.44 225.876 228.664 226.132C228.888 226.388 229.004 226.728 229.012 227.152C229.012 227.528 228.908 227.864 228.7 228.16C228.492 228.456 228.196 228.688 227.812 228.856C227.436 229.024 226.992 229.108 226.48 229.108Z" fill="black"/>
<rect x="165" y="245" width="300" height="20" rx="10" fill="black" fill-opacity="0.1"/>
<path d="M196.732 93.144C196.732 93.568 196.632 93.968 196.432 94.344C196.232 94.72 195.912 95.028 195.472 95.268C195.032 95.5 194.468 95.616 193.78 95.616H192.268V99H190.9V90.66H193.78C194.42 90.66 194.96 90.772 195.4 90.996C195.848 91.212 196.18 91.508 196.396 91.884C196.62 92.26 196.732 92.68 196.732 93.144ZM193.78 94.5C194.3 94.5 194.688 94.384 194.944 94.152C195.2 93.912 195.328 93.576 195.328 93.144C195.328 92.232 194.812 91.776 193.78 91.776H192.268V94.5H193.78ZM204.097 95.532C204.097 95.78 204.081 96.004 204.049 96.204H198.997C199.037 96.732 199.233 97.156 199.585 97.476C199.937 97.796 200.369 97.956 200.881 97.956C201.617 97.956 202.137 97.648 202.441 97.032H203.917C203.717 97.64 203.353 98.14 202.825 98.532C202.305 98.916 201.657 99.108 200.881 99.108C200.249 99.108 199.681 98.968 199.177 98.688C198.681 98.4 198.289 98 198.001 97.488C197.721 96.968 197.581 96.368 197.581 95.688C197.581 95.008 197.717 94.412 197.989 93.9C198.269 93.38 198.657 92.98 199.153 92.7C199.657 92.42 200.233 92.28 200.881 92.28C201.505 92.28 202.061 92.416 202.549 92.688C203.037 92.96 203.417 93.344 203.689 93.84C203.961 94.328 204.097 94.892 204.097 95.532ZM202.669 95.1C202.661 94.596 202.481 94.192 202.129 93.888C201.777 93.584 201.341 93.432 200.821 93.432C200.349 93.432 199.945 93.584 199.609 93.888C199.273 94.184 199.073 94.588 199.009 95.1H202.669ZM208.779 92.28C209.299 92.28 209.763 92.388 210.171 92.604C210.587 92.82 210.911 93.14 211.143 93.564C211.375 93.988 211.491 94.5 211.491 95.1V99H210.135V95.304C210.135 94.712 209.987 94.26 209.691 93.948C209.395 93.628 208.991 93.468 208.479 93.468C207.967 93.468 207.559 93.628 207.255 93.948C206.959 94.26 206.811 94.712 206.811 95.304V99H205.443V92.388H206.811V93.144C207.035 92.872 207.319 92.66 207.663 92.508C208.015 92.356 208.387 92.28 208.779 92.28ZM212.78 95.688C212.78 95.008 212.916 94.412 213.188 93.9C213.468 93.38 213.852 92.98 214.34 92.7C214.828 92.42 215.388 92.28 216.02 92.28C216.82 92.28 217.48 92.472 218 92.856C218.528 93.232 218.884 93.772 219.068 94.476H217.592C217.472 94.148 217.28 93.892 217.016 93.708C216.752 93.524 216.42 93.432 216.02 93.432C215.46 93.432 215.012 93.632 214.676 94.032C214.348 94.424 214.184 94.976 214.184 95.688C214.184 96.4 214.348 96.956 214.676 97.356C215.012 97.756 215.46 97.956 216.02 97.956C216.812 97.956 217.336 97.608 217.592 96.912H219.068C218.876 97.584 218.516 98.12 217.988 98.52C217.46 98.912 216.804 99.108 216.02 99.108C215.388 99.108 214.828 98.968 214.34 98.688C213.852 98.4 213.468 98 213.188 97.488C212.916 96.968 212.78 96.368 212.78 95.688ZM221.127 91.512C220.879 91.512 220.671 91.428 220.503 91.26C220.335 91.092 220.251 90.884 220.251 90.636C220.251 90.388 220.335 90.18 220.503 90.012C220.671 89.844 220.879 89.76 221.127 89.76C221.367 89.76 221.571 89.844 221.739 90.012C221.907 90.18 221.991 90.388 221.991 90.636C221.991 90.884 221.907 91.092 221.739 91.26C221.571 91.428 221.367 91.512 221.127 91.512ZM221.799 92.388V99H220.431V92.388H221.799ZM224.963 90.12V99H223.595V90.12H224.963Z" fill="black"/>
<rect x="176.414" y="90.7573" width="4" height="7" transform="rotate(45 176.414 90.7573)" fill="black"/>
<path d="M177.828 89.3431C178.219 88.9526 178.852 88.9526 179.243 89.3431L180.657 90.7573C181.047 91.1478 181.047 91.781 180.657 92.1715L179.95 92.8786L177.121 90.0502L177.828 89.3431Z" fill="black"/>
<path d="M170.786 99.8026C170.436 99.8726 170.127 99.5641 170.197 99.2142L170.757 96.4141L173.586 99.2426L170.786 99.8026Z" fill="black"/>
<path d="M352.268 97.896H355.088V99H350.9V90.66H352.268V97.896ZM356.928 91.512C356.68 91.512 356.472 91.428 356.304 91.26C356.136 91.092 356.052 90.884 356.052 90.636C356.052 90.388 356.136 90.18 356.304 90.012C356.472 89.844 356.68 89.76 356.928 89.76C357.168 89.76 357.372 89.844 357.54 90.012C357.708 90.18 357.792 90.388 357.792 90.636C357.792 90.884 357.708 91.092 357.54 91.26C357.372 91.428 357.168 91.512 356.928 91.512ZM357.6 92.388V99H356.232V92.388H357.6ZM362.732 92.28C363.252 92.28 363.716 92.388 364.124 92.604C364.54 92.82 364.864 93.14 365.096 93.564C365.328 93.988 365.444 94.5 365.444 95.1V99H364.088V95.304C364.088 94.712 363.94 94.26 363.644 93.948C363.348 93.628 362.944 93.468 362.432 93.468C361.92 93.468 361.512 93.628 361.208 93.948C360.912 94.26 360.764 94.712 360.764 95.304V99H359.396V92.388H360.764V93.144C360.988 92.872 361.272 92.66 361.616 92.508C361.968 92.356 362.34 92.28 362.732 92.28ZM373.249 95.532C373.249 95.78 373.233 96.004 373.201 96.204H368.149C368.189 96.732 368.385 97.156 368.737 97.476C369.089 97.796 369.521 97.956 370.033 97.956C370.769 97.956 371.289 97.648 371.593 97.032H373.069C372.869 97.64 372.505 98.14 371.977 98.532C371.457 98.916 370.809 99.108 370.033 99.108C369.401 99.108 368.833 98.968 368.329 98.688C367.833 98.4 367.441 98 367.153 97.488C366.873 96.968 366.733 96.368 366.733 95.688C366.733 95.008 366.869 94.412 367.141 93.9C367.421 93.38 367.809 92.98 368.305 92.7C368.809 92.42 369.385 92.28 370.033 92.28C370.657 92.28 371.213 92.416 371.701 92.688C372.189 92.96 372.569 93.344 372.841 93.84C373.113 94.328 373.249 94.892 373.249 95.532ZM371.821 95.1C371.813 94.596 371.633 94.192 371.281 93.888C370.929 93.584 370.493 93.432 369.973 93.432C369.501 93.432 369.097 93.584 368.761 93.888C368.425 94.184 368.225 94.588 368.161 95.1H371.821Z" fill="black"/>
<rect x="339.243" y="89.3431" width="2" height="14" rx="1" transform="rotate(45 339.243 89.3431)" fill="black"/>
<path d="M352.268 120.66V129H350.9V120.66H352.268ZM356.464 129.108C355.944 129.108 355.476 129.016 355.06 128.832C354.652 128.64 354.328 128.384 354.088 128.064C353.848 127.736 353.72 127.372 353.704 126.972H355.12C355.144 127.252 355.276 127.488 355.516 127.68C355.764 127.864 356.072 127.956 356.44 127.956C356.824 127.956 357.12 127.884 357.328 127.74C357.544 127.588 357.652 127.396 357.652 127.164C357.652 126.916 357.532 126.732 357.292 126.612C357.06 126.492 356.688 126.36 356.176 126.216C355.68 126.08 355.276 125.948 354.964 125.82C354.652 125.692 354.38 125.496 354.148 125.232C353.924 124.968 353.812 124.62 353.812 124.188C353.812 123.836 353.916 123.516 354.124 123.228C354.332 122.932 354.628 122.7 355.012 122.532C355.404 122.364 355.852 122.28 356.356 122.28C357.108 122.28 357.712 122.472 358.168 122.856C358.632 123.232 358.88 123.748 358.912 124.404H357.544C357.52 124.108 357.4 123.872 357.184 123.696C356.968 123.52 356.676 123.432 356.308 123.432C355.948 123.432 355.672 123.5 355.48 123.636C355.288 123.772 355.192 123.952 355.192 124.176C355.192 124.352 355.256 124.5 355.384 124.62C355.512 124.74 355.668 124.836 355.852 124.908C356.036 124.972 356.308 125.056 356.668 125.16C357.148 125.288 357.54 125.42 357.844 125.556C358.156 125.684 358.424 125.876 358.648 126.132C358.872 126.388 358.988 126.728 358.996 127.152C358.996 127.528 358.892 127.864 358.684 128.16C358.476 128.456 358.18 128.688 357.796 128.856C357.42 129.024 356.976 129.108 356.464 129.108ZM363.342 129.108C362.718 129.108 362.154 128.968 361.65 128.688C361.146 128.4 360.75 128 360.462 127.488C360.174 126.968 360.03 126.368 360.03 125.688C360.03 125.016 360.178 124.42 360.474 123.9C360.77 123.38 361.174 122.98 361.686 122.7C362.198 122.42 362.77 122.28 363.402 122.28C364.034 122.28 364.606 122.42 365.118 122.7C365.63 122.98 366.034 123.38 366.33 123.9C366.626 124.42 366.774 125.016 366.774 125.688C366.774 126.36 366.622 126.956 366.318 127.476C366.014 127.996 365.598 128.4 365.07 128.688C364.55 128.968 363.974 129.108 363.342 129.108ZM363.342 127.92C363.694 127.92 364.022 127.836 364.326 127.668C364.638 127.5 364.89 127.248 365.082 126.912C365.274 126.576 365.37 126.168 365.37 125.688C365.37 125.208 365.278 124.804 365.094 124.476C364.91 124.14 364.666 123.888 364.362 123.72C364.058 123.552 363.73 123.468 363.378 123.468C363.026 123.468 362.698 123.552 362.394 123.72C362.098 123.888 361.862 124.14 361.686 124.476C361.51 124.804 361.422 125.208 361.422 125.688C361.422 126.4 361.602 126.952 361.962 127.344C362.33 127.728 362.79 127.92 363.342 127.92ZM370.527 129.108C370.007 129.108 369.539 129.016 369.123 128.832C368.715 128.64 368.391 128.384 368.151 128.064C367.911 127.736 367.783 127.372 367.767 126.972H369.183C369.207 127.252 369.339 127.488 369.579 127.68C369.827 127.864 370.135 127.956 370.503 127.956C370.887 127.956 371.183 127.884 371.391 127.74C371.607 127.588 371.715 127.396 371.715 127.164C371.715 126.916 371.595 126.732 371.355 126.612C371.123 126.492 370.751 126.36 370.239 126.216C369.743 126.08 369.339 125.948 369.027 125.82C368.715 125.692 368.443 125.496 368.211 125.232C367.987 124.968 367.875 124.62 367.875 124.188C367.875 123.836 367.979 123.516 368.187 123.228C368.395 122.932 368.691 122.7 369.075 122.532C369.467 122.364 369.915 122.28 370.419 122.28C371.171 122.28 371.775 122.472 372.231 122.856C372.695 123.232 372.943 123.748 372.975 124.404H371.607C371.583 124.108 371.463 123.872 371.247 123.696C371.031 123.52 370.739 123.432 370.371 123.432C370.011 123.432 369.735 123.5 369.543 123.636C369.351 123.772 369.255 123.952 369.255 124.176C369.255 124.352 369.319 124.5 369.447 124.62C369.575 124.74 369.731 124.836 369.915 124.908C370.099 124.972 370.371 125.056 370.731 125.16C371.211 125.288 371.603 125.42 371.907 125.556C372.219 125.684 372.487 125.876 372.711 126.132C372.935 126.388 373.051 126.728 373.059 127.152C373.059 127.528 372.955 127.864 372.747 128.16C372.539 128.456 372.243 128.688 371.859 128.856C371.483 129.024 371.039 129.108 370.527 129.108ZM374.081 125.688C374.081 125.008 374.217 124.412 374.489 123.9C374.769 123.38 375.153 122.98 375.641 122.7C376.129 122.42 376.689 122.28 377.321 122.28C378.121 122.28 378.781 122.472 379.301 122.856C379.829 123.232 380.185 123.772 380.369 124.476H378.893C378.773 124.148 378.581 123.892 378.317 123.708C378.053 123.524 377.721 123.432 377.321 123.432C376.761 123.432 376.313 123.632 375.977 124.032C375.649 124.424 375.485 124.976 375.485 125.688C375.485 126.4 375.649 126.956 375.977 127.356C376.313 127.756 376.761 127.956 377.321 127.956C378.113 127.956 378.637 127.608 378.893 126.912H380.369C380.177 127.584 379.817 128.12 379.289 128.52C378.761 128.912 378.105 129.108 377.321 129.108C376.689 129.108 376.129 128.968 375.641 128.688C375.153 128.4 374.769 128 374.489 127.488C374.217 126.968 374.081 126.368 374.081 125.688ZM387.792 125.532C387.792 125.78 387.776 126.004 387.744 126.204H382.692C382.732 126.732 382.928 127.156 383.28 127.476C383.632 127.796 384.064 127.956 384.576 127.956C385.312 127.956 385.832 127.648 386.136 127.032H387.612C387.412 127.64 387.048 128.14 386.52 128.532C386 128.916 385.352 129.108 384.576 129.108C383.944 129.108 383.376 128.968 382.872 128.688C382.376 128.4 381.984 128 381.696 127.488C381.416 126.968 381.276 126.368 381.276 125.688C381.276 125.008 381.412 124.412 381.684 123.9C381.964 123.38 382.352 122.98 382.848 122.7C383.352 122.42 383.928 122.28 384.576 122.28C385.2 122.28 385.756 122.416 386.244 122.688C386.732 122.96 387.112 123.344 387.384 123.84C387.656 124.328 387.792 124.892 387.792 125.532ZM386.364 125.1C386.356 124.596 386.176 124.192 385.824 123.888C385.472 123.584 385.036 123.432 384.516 123.432C384.044 123.432 383.64 123.584 383.304 123.888C382.968 124.184 382.768 124.588 382.704 125.1H386.364ZM390.506 120.12V129H389.138V120.12H390.506ZM398.362 125.532C398.362 125.78 398.346 126.004 398.314 126.204H393.262C393.302 126.732 393.498 127.156 393.85 127.476C394.202 127.796 394.634 127.956 395.146 127.956C395.882 127.956 396.402 127.648 396.706 127.032H398.182C397.982 127.64 397.618 128.14 397.09 128.532C396.57 128.916 395.922 129.108 395.146 129.108C394.514 129.108 393.946 128.968 393.442 128.688C392.946 128.4 392.554 128 392.266 127.488C391.986 126.968 391.846 126.368 391.846 125.688C391.846 125.008 391.982 124.412 392.254 123.9C392.534 123.38 392.922 122.98 393.418 122.7C393.922 122.42 394.498 122.28 395.146 122.28C395.77 122.28 396.326 122.416 396.814 122.688C397.302 122.96 397.682 123.344 397.954 123.84C398.226 124.328 398.362 124.892 398.362 125.532ZM396.934 125.1C396.926 124.596 396.746 124.192 396.394 123.888C396.042 123.584 395.606 123.432 395.086 123.432C394.614 123.432 394.21 123.584 393.874 123.888C393.538 124.184 393.338 124.588 393.274 125.1H396.934ZM402.109 129.108C401.589 129.108 401.121 129.016 400.705 128.832C400.297 128.64 399.973 128.384 399.733 128.064C399.493 127.736 399.365 127.372 399.349 126.972H400.765C400.789 127.252 400.921 127.488 401.161 127.68C401.409 127.864 401.717 127.956 402.085 127.956C402.469 127.956 402.765 127.884 402.973 127.74C403.189 127.588 403.297 127.396 403.297 127.164C403.297 126.916 403.177 126.732 402.937 126.612C402.705 126.492 402.333 126.36 401.821 126.216C401.325 126.08 400.921 125.948 400.609 125.82C400.297 125.692 400.025 125.496 399.793 125.232C399.569 124.968 399.457 124.62 399.457 124.188C399.457 123.836 399.561 123.516 399.769 123.228C399.977 122.932 400.273 122.7 400.657 122.532C401.049 122.364 401.497 122.28 402.001 122.28C402.753 122.28 403.357 122.472 403.813 122.856C404.277 123.232 404.525 123.748 404.557 124.404H403.189C403.165 124.108 403.045 123.872 402.829 123.696C402.613 123.52 402.321 123.432 401.953 123.432C401.593 123.432 401.317 123.5 401.125 123.636C400.933 123.772 400.837 123.952 400.837 124.176C400.837 124.352 400.901 124.5 401.029 124.62C401.157 124.74 401.313 124.836 401.497 124.908C401.681 124.972 401.953 125.056 402.313 125.16C402.793 125.288 403.185 125.42 403.489 125.556C403.801 125.684 404.069 125.876 404.293 126.132C404.517 126.388 404.633 126.728 404.641 127.152C404.641 127.528 404.537 127.864 404.329 128.16C404.121 128.456 403.825 128.688 403.441 128.856C403.065 129.024 402.621 129.108 402.109 129.108ZM410.832 123.504V127.164C410.832 127.412 410.888 127.592 411 127.704C411.12 127.808 411.32 127.86 411.6 127.86H412.44V129H411.36C410.744 129 410.272 128.856 409.944 128.568C409.616 128.28 409.452 127.812 409.452 127.164V123.504H408.672V122.388H409.452V120.744H410.832V122.388H412.44V123.504H410.832ZM415.069 123.348C415.269 123.012 415.533 122.752 415.861 122.568C416.197 122.376 416.593 122.28 417.049 122.28V123.696H416.701C416.165 123.696 415.757 123.832 415.477 124.104C415.205 124.376 415.069 124.848 415.069 125.52V129H413.701V122.388H415.069V123.348ZM419.002 121.512C418.754 121.512 418.546 121.428 418.378 121.26C418.21 121.092 418.126 120.884 418.126 120.636C418.126 120.388 418.21 120.18 418.378 120.012C418.546 119.844 418.754 119.76 419.002 119.76C419.242 119.76 419.446 119.844 419.614 120.012C419.782 120.18 419.866 120.388 419.866 120.636C419.866 120.884 419.782 121.092 419.614 121.26C419.446 121.428 419.242 121.512 419.002 121.512ZM419.674 122.388V129H418.306V122.388H419.674ZM421.014 125.664C421.014 125 421.15 124.412 421.422 123.9C421.702 123.388 422.078 122.992 422.55 122.712C423.03 122.424 423.558 122.28 424.134 122.28C424.654 122.28 425.106 122.384 425.49 122.592C425.882 122.792 426.194 123.044 426.426 123.348V122.388H427.806V129H426.426V128.016C426.194 128.328 425.878 128.588 425.478 128.796C425.078 129.004 424.622 129.108 424.11 129.108C423.542 129.108 423.022 128.964 422.55 128.676C422.078 128.38 421.702 127.972 421.422 127.452C421.15 126.924 421.014 126.328 421.014 125.664ZM426.426 125.688C426.426 125.232 426.33 124.836 426.138 124.5C425.954 124.164 425.71 123.908 425.406 123.732C425.102 123.556 424.774 123.468 424.422 123.468C424.07 123.468 423.742 123.556 423.438 123.732C423.134 123.9 422.886 124.152 422.694 124.488C422.51 124.816 422.418 125.208 422.418 125.664C422.418 126.12 422.51 126.52 422.694 126.864C422.886 127.208 423.134 127.472 423.438 127.656C423.75 127.832 424.078 127.92 424.422 127.92C424.774 127.92 425.102 127.832 425.406 127.656C425.71 127.48 425.954 127.224 426.138 126.888C426.33 126.544 426.426 126.144 426.426 125.688ZM432.939 122.28C433.459 122.28 433.923 122.388 434.331 122.604C434.747 122.82 435.071 123.14 435.303 123.564C435.535 123.988 435.651 124.5 435.651 125.1V129H434.295V125.304C434.295 124.712 434.147 124.26 433.851 123.948C433.555 123.628 433.151 123.468 432.639 123.468C432.127 123.468 431.719 123.628 431.415 123.948C431.119 124.26 430.971 124.712 430.971 125.304V129H429.603V122.388H430.971V123.144C431.195 122.872 431.479 122.66 431.823 122.508C432.175 122.356 432.547 122.28 432.939 122.28ZM440.06 122.28C440.572 122.28 441.024 122.384 441.416 122.592C441.816 122.792 442.128 123.044 442.352 123.348V122.388H443.732V129.108C443.732 129.716 443.604 130.256 443.348 130.728C443.092 131.208 442.72 131.584 442.232 131.856C441.752 132.128 441.176 132.264 440.504 132.264C439.608 132.264 438.864 132.052 438.272 131.628C437.68 131.212 437.344 130.644 437.264 129.924H438.62C438.724 130.268 438.944 130.544 439.28 130.752C439.624 130.968 440.032 131.076 440.504 131.076C441.056 131.076 441.5 130.908 441.836 130.572C442.18 130.236 442.352 129.748 442.352 129.108V128.004C442.12 128.316 441.804 128.58 441.404 128.796C441.012 129.004 440.564 129.108 440.06 129.108C439.484 129.108 438.956 128.964 438.476 128.676C438.004 128.38 437.628 127.972 437.348 127.452C437.076 126.924 436.94 126.328 436.94 125.664C436.94 125 437.076 124.412 437.348 123.9C437.628 123.388 438.004 122.992 438.476 122.712C438.956 122.424 439.484 122.28 440.06 122.28ZM442.352 125.688C442.352 125.232 442.256 124.836 442.064 124.5C441.88 124.164 441.636 123.908 441.332 123.732C441.028 123.556 440.7 123.468 440.348 123.468C439.996 123.468 439.668 123.556 439.364 123.732C439.06 123.9 438.812 124.152 438.62 124.488C438.436 124.816 438.344 125.208 438.344 125.664C438.344 126.12 438.436 126.52 438.62 126.864C438.812 127.208 439.06 127.472 439.364 127.656C439.676 127.832 440.004 127.92 440.348 127.92C440.7 127.92 441.028 127.832 441.332 127.656C441.636 127.48 441.88 127.224 442.064 126.888C442.256 126.544 442.352 126.144 442.352 125.688ZM446.897 120.12V129H445.529V120.12H446.897ZM454.753 125.532C454.753 125.78 454.737 126.004 454.705 126.204H449.653C449.693 126.732 449.889 127.156 450.241 127.476C450.593 127.796 451.025 127.956 451.537 127.956C452.273 127.956 452.793 127.648 453.097 127.032H454.573C454.373 127.64 454.009 128.14 453.481 128.532C452.961 128.916 452.313 129.108 451.537 129.108C450.905 129.108 450.337 128.968 449.833 128.688C449.337 128.4 448.945 128 448.657 127.488C448.377 126.968 448.237 126.368 448.237 125.688C448.237 125.008 448.373 124.412 448.645 123.9C448.925 123.38 449.313 122.98 449.809 122.7C450.313 122.42 450.889 122.28 451.537 122.28C452.161 122.28 452.717 122.416 453.205 122.688C453.693 122.96 454.073 123.344 454.345 123.84C454.617 124.328 454.753 124.892 454.753 125.532ZM453.325 125.1C453.317 124.596 453.137 124.192 452.785 123.888C452.433 123.584 451.997 123.432 451.477 123.432C451.005 123.432 450.601 123.584 450.265 123.888C449.929 124.184 449.729 124.588 449.665 125.1H453.325Z" fill="black"/>
<path d="M330.618 130L335 121.236L339.382 130H330.618Z" stroke="black" stroke-width="2"/>
<path d="M353.624 150.66C354.512 150.66 355.288 150.832 355.952 151.176C356.624 151.512 357.14 152 357.5 152.64C357.868 153.272 358.052 154.012 358.052 154.86C358.052 155.708 357.868 156.444 357.5 157.068C357.14 157.692 356.624 158.172 355.952 158.508C355.288 158.836 354.512 159 353.624 159H350.9V150.66H353.624ZM353.624 157.884C354.6 157.884 355.348 157.62 355.868 157.092C356.388 156.564 356.648 155.82 356.648 154.86C356.648 153.892 356.388 153.136 355.868 152.592C355.348 152.048 354.6 151.776 353.624 151.776H352.268V157.884H353.624ZM360.104 151.512C359.856 151.512 359.648 151.428 359.48 151.26C359.312 151.092 359.228 150.884 359.228 150.636C359.228 150.388 359.312 150.18 359.48 150.012C359.648 149.844 359.856 149.76 360.104 149.76C360.344 149.76 360.548 149.844 360.716 150.012C360.884 150.18 360.968 150.388 360.968 150.636C360.968 150.884 360.884 151.092 360.716 151.26C360.548 151.428 360.344 151.512 360.104 151.512ZM360.776 152.388V159H359.408V152.388H360.776ZM362.116 155.664C362.116 155 362.252 154.412 362.524 153.9C362.804 153.388 363.18 152.992 363.652 152.712C364.132 152.424 364.66 152.28 365.236 152.28C365.756 152.28 366.208 152.384 366.592 152.592C366.984 152.792 367.296 153.044 367.528 153.348V152.388H368.908V159H367.528V158.016C367.296 158.328 366.98 158.588 366.58 158.796C366.18 159.004 365.724 159.108 365.212 159.108C364.644 159.108 364.124 158.964 363.652 158.676C363.18 158.38 362.804 157.972 362.524 157.452C362.252 156.924 362.116 156.328 362.116 155.664ZM367.528 155.688C367.528 155.232 367.432 154.836 367.24 154.5C367.056 154.164 366.812 153.908 366.508 153.732C366.204 153.556 365.876 153.468 365.524 153.468C365.172 153.468 364.844 153.556 364.54 153.732C364.236 153.9 363.988 154.152 363.796 154.488C363.612 154.816 363.52 155.208 363.52 155.664C363.52 156.12 363.612 156.52 363.796 156.864C363.988 157.208 364.236 157.472 364.54 157.656C364.852 157.832 365.18 157.92 365.524 157.92C365.876 157.92 366.204 157.832 366.508 157.656C366.812 157.48 367.056 157.224 367.24 156.888C367.432 156.544 367.528 156.144 367.528 155.688ZM378.709 152.28C379.229 152.28 379.693 152.388 380.101 152.604C380.517 152.82 380.841 153.14 381.073 153.564C381.313 153.988 381.433 154.5 381.433 155.1V159H380.077V155.304C380.077 154.712 379.929 154.26 379.633 153.948C379.337 153.628 378.933 153.468 378.421 153.468C377.909 153.468 377.501 153.628 377.197 153.948C376.901 154.26 376.753 154.712 376.753 155.304V159H375.397V155.304C375.397 154.712 375.249 154.26 374.953 153.948C374.657 153.628 374.253 153.468 373.741 153.468C373.229 153.468 372.821 153.628 372.517 153.948C372.221 154.26 372.073 154.712 372.073 155.304V159H370.705V152.388H372.073V153.144C372.297 152.872 372.581 152.66 372.925 152.508C373.269 152.356 373.637 152.28 374.029 152.28C374.557 152.28 375.029 152.392 375.445 152.616C375.861 152.84 376.181 153.164 376.405 153.588C376.605 153.188 376.917 152.872 377.341 152.64C377.765 152.4 378.221 152.28 378.709 152.28ZM386.041 159.108C385.417 159.108 384.853 158.968 384.349 158.688C383.845 158.4 383.449 158 383.161 157.488C382.873 156.968 382.729 156.368 382.729 155.688C382.729 155.016 382.877 154.42 383.173 153.9C383.469 153.38 383.873 152.98 384.385 152.7C384.897 152.42 385.469 152.28 386.101 152.28C386.733 152.28 387.305 152.42 387.817 152.7C388.329 152.98 388.733 153.38 389.029 153.9C389.325 154.42 389.473 155.016 389.473 155.688C389.473 156.36 389.321 156.956 389.017 157.476C388.713 157.996 388.297 158.4 387.769 158.688C387.249 158.968 386.673 159.108 386.041 159.108ZM386.041 157.92C386.393 157.92 386.721 157.836 387.025 157.668C387.337 157.5 387.589 157.248 387.781 156.912C387.973 156.576 388.069 156.168 388.069 155.688C388.069 155.208 387.977 154.804 387.793 154.476C387.609 154.14 387.365 153.888 387.061 153.72C386.757 153.552 386.429 153.468 386.077 153.468C385.725 153.468 385.397 153.552 385.093 153.72C384.797 153.888 384.561 154.14 384.385 154.476C384.209 154.804 384.121 155.208 384.121 155.688C384.121 156.4 384.301 156.952 384.661 157.344C385.029 157.728 385.489 157.92 386.041 157.92ZM394.162 152.28C394.682 152.28 395.146 152.388 395.554 152.604C395.97 152.82 396.294 153.14 396.526 153.564C396.758 153.988 396.874 154.5 396.874 155.1V159H395.518V155.304C395.518 154.712 395.37 154.26 395.074 153.948C394.778 153.628 394.374 153.468 393.862 153.468C393.35 153.468 392.942 153.628 392.638 153.948C392.342 154.26 392.194 154.712 392.194 155.304V159H390.826V152.388H392.194V153.144C392.418 152.872 392.702 152.66 393.046 152.508C393.398 152.356 393.77 152.28 394.162 152.28ZM398.163 155.664C398.163 155 398.299 154.412 398.571 153.9C398.851 153.388 399.227 152.992 399.699 152.712C400.179 152.424 400.711 152.28 401.295 152.28C401.727 152.28 402.151 152.376 402.567 152.568C402.991 152.752 403.327 153 403.575 153.312V150.12H404.955V159H403.575V158.004C403.351 158.324 403.039 158.588 402.639 158.796C402.247 159.004 401.795 159.108 401.283 159.108C400.707 159.108 400.179 158.964 399.699 158.676C399.227 158.38 398.851 157.972 398.571 157.452C398.299 156.924 398.163 156.328 398.163 155.664ZM403.575 155.688C403.575 155.232 403.479 154.836 403.287 154.5C403.103 154.164 402.859 153.908 402.555 153.732C402.251 153.556 401.923 153.468 401.571 153.468C401.219 153.468 400.891 153.556 400.587 153.732C400.283 153.9 400.035 154.152 399.843 154.488C399.659 154.816 399.567 155.208 399.567 155.664C399.567 156.12 399.659 156.52 399.843 156.864C400.035 157.208 400.283 157.472 400.587 157.656C400.899 157.832 401.227 157.92 401.571 157.92C401.923 157.92 402.251 157.832 402.555 157.656C402.859 157.48 403.103 157.224 403.287 156.888C403.479 156.544 403.575 156.144 403.575 155.688Z" fill="black"/>
<path d="M330.414 155L335 150.414L339.586 155L335 159.586L330.414 155Z" stroke="black" stroke-width="2"/>
<path d="M356.288 180.66V181.776H354.068V189H352.7V181.776H350.468V180.66H356.288ZM363.733 185.532C363.733 185.78 363.717 186.004 363.685 186.204H358.633C358.673 186.732 358.869 187.156 359.221 187.476C359.573 187.796 360.005 187.956 360.517 187.956C361.253 187.956 361.773 187.648 362.077 187.032H363.553C363.353 187.64 362.989 188.14 362.461 188.532C361.941 188.916 361.293 189.108 360.517 189.108C359.885 189.108 359.317 188.968 358.813 188.688C358.317 188.4 357.925 188 357.637 187.488C357.357 186.968 357.217 186.368 357.217 185.688C357.217 185.008 357.353 184.412 357.625 183.9C357.905 183.38 358.293 182.98 358.789 182.7C359.293 182.42 359.869 182.28 360.517 182.28C361.141 182.28 361.697 182.416 362.185 182.688C362.673 182.96 363.053 183.344 363.325 183.84C363.597 184.328 363.733 184.892 363.733 185.532ZM362.305 185.1C362.297 184.596 362.117 184.192 361.765 183.888C361.413 183.584 360.977 183.432 360.457 183.432C359.985 183.432 359.581 183.584 359.245 183.888C358.909 184.184 358.709 184.588 358.645 185.1H362.305ZM367.912 185.652L370.048 189H368.5L367.072 186.756L365.728 189H364.3L366.436 185.748L364.3 182.388H365.848L367.276 184.632L368.62 182.388H370.048L367.912 185.652ZM372.664 183.504V187.164C372.664 187.412 372.72 187.592 372.832 187.704C372.952 187.808 373.152 187.86 373.432 187.86H374.272V189H373.192C372.576 189 372.104 188.856 371.776 188.568C371.448 188.28 371.284 187.812 371.284 187.164V183.504H370.504V182.388H371.284V180.744H372.664V182.388H374.272V183.504H372.664Z" fill="black"/>
<path d="M332.952 186.864H330.624L330.224 188H329.272L331.264 182.432H332.32L334.312 188H333.352L332.952 186.864ZM332.696 186.12L331.792 183.536L330.88 186.12H332.696ZM334.874 185.776C334.874 185.333 334.965 184.941 335.146 184.6C335.333 184.259 335.583 183.995 335.898 183.808C336.218 183.616 336.57 183.52 336.954 183.52C337.301 183.52 337.602 183.589 337.858 183.728C338.119 183.861 338.327 184.029 338.482 184.232V183.592H339.402V188H338.482V187.344C338.327 187.552 338.117 187.725 337.85 187.864C337.583 188.003 337.279 188.072 336.938 188.072C336.559 188.072 336.213 187.976 335.898 187.784C335.583 187.587 335.333 187.315 335.146 186.968C334.965 186.616 334.874 186.219 334.874 185.776ZM338.482 185.792C338.482 185.488 338.418 185.224 338.29 185C338.167 184.776 338.005 184.605 337.802 184.488C337.599 184.371 337.381 184.312 337.146 184.312C336.911 184.312 336.693 184.371 336.49 184.488C336.287 184.6 336.122 184.768 335.994 184.992C335.871 185.211 335.81 185.472 335.81 185.776C335.81 186.08 335.871 186.347 335.994 186.576C336.122 186.805 336.287 186.981 336.49 187.104C336.698 187.221 336.917 187.28 337.146 187.28C337.381 187.28 337.599 187.221 337.802 187.104C338.005 186.987 338.167 186.816 338.29 186.592C338.418 186.363 338.482 186.096 338.482 185.792Z" fill="black"/>
<path d="M195.232 159L193.312 155.664H192.268V159H190.9V150.66H193.78C194.42 150.66 194.96 150.772 195.4 150.996C195.848 151.22 196.18 151.52 196.396 151.896C196.62 152.272 196.732 152.692 196.732 153.156C196.732 153.7 196.572 154.196 196.252 154.644C195.94 155.084 195.456 155.384 194.8 155.544L196.864 159H195.232ZM192.268 154.572H193.78C194.292 154.572 194.676 154.444 194.932 154.188C195.196 153.932 195.328 153.588 195.328 153.156C195.328 152.724 195.2 152.388 194.944 152.148C194.688 151.9 194.3 151.776 193.78 151.776H192.268V154.572ZM204.542 155.532C204.542 155.78 204.526 156.004 204.494 156.204H199.442C199.482 156.732 199.678 157.156 200.03 157.476C200.382 157.796 200.814 157.956 201.326 157.956C202.062 157.956 202.582 157.648 202.886 157.032H204.362C204.162 157.64 203.798 158.14 203.27 158.532C202.75 158.916 202.102 159.108 201.326 159.108C200.694 159.108 200.126 158.968 199.622 158.688C199.126 158.4 198.734 158 198.446 157.488C198.166 156.968 198.026 156.368 198.026 155.688C198.026 155.008 198.162 154.412 198.434 153.9C198.714 153.38 199.102 152.98 199.598 152.7C200.102 152.42 200.678 152.28 201.326 152.28C201.95 152.28 202.506 152.416 202.994 152.688C203.482 152.96 203.862 153.344 204.134 153.84C204.406 154.328 204.542 154.892 204.542 155.532ZM203.114 155.1C203.106 154.596 202.926 154.192 202.574 153.888C202.222 153.584 201.786 153.432 201.266 153.432C200.794 153.432 200.39 153.584 200.054 153.888C199.718 154.184 199.518 154.588 199.454 155.1H203.114ZM205.432 155.688C205.432 155.008 205.568 154.412 205.84 153.9C206.12 153.38 206.504 152.98 206.992 152.7C207.48 152.42 208.04 152.28 208.672 152.28C209.472 152.28 210.132 152.472 210.652 152.856C211.18 153.232 211.536 153.772 211.72 154.476H210.244C210.124 154.148 209.932 153.892 209.668 153.708C209.404 153.524 209.072 153.432 208.672 153.432C208.112 153.432 207.664 153.632 207.328 154.032C207 154.424 206.836 154.976 206.836 155.688C206.836 156.4 207 156.956 207.328 157.356C207.664 157.756 208.112 157.956 208.672 157.956C209.464 157.956 209.988 157.608 210.244 156.912H211.72C211.528 157.584 211.168 158.12 210.64 158.52C210.112 158.912 209.456 159.108 208.672 159.108C208.04 159.108 207.48 158.968 206.992 158.688C206.504 158.4 206.12 158 205.84 157.488C205.568 156.968 205.432 156.368 205.432 155.688ZM214.68 153.504V157.164C214.68 157.412 214.736 157.592 214.848 157.704C214.968 157.808 215.168 157.86 215.448 157.86H216.288V159H215.208C214.592 159 214.12 158.856 213.792 158.568C213.464 158.28 213.3 157.812 213.3 157.164V153.504H212.52V152.388H213.3V150.744H214.68V152.388H216.288V153.504H214.68ZM217.092 155.664C217.092 155 217.228 154.412 217.5 153.9C217.78 153.388 218.156 152.992 218.628 152.712C219.108 152.424 219.636 152.28 220.212 152.28C220.732 152.28 221.184 152.384 221.568 152.592C221.96 152.792 222.272 153.044 222.504 153.348V152.388H223.884V159H222.504V158.016C222.272 158.328 221.956 158.588 221.556 158.796C221.156 159.004 220.7 159.108 220.188 159.108C219.62 159.108 219.1 158.964 218.628 158.676C218.156 158.38 217.78 157.972 217.5 157.452C217.228 156.924 217.092 156.328 217.092 155.664ZM222.504 155.688C222.504 155.232 222.408 154.836 222.216 154.5C222.032 154.164 221.788 153.908 221.484 153.732C221.18 153.556 220.852 153.468 220.5 153.468C220.148 153.468 219.82 153.556 219.516 153.732C219.212 153.9 218.964 154.152 218.772 154.488C218.588 154.816 218.496 155.208 218.496 155.664C218.496 156.12 218.588 156.52 218.772 156.864C218.964 157.208 219.212 157.472 219.516 157.656C219.828 157.832 220.156 157.92 220.5 157.92C220.852 157.92 221.18 157.832 221.484 157.656C221.788 157.48 222.032 157.224 222.216 156.888C222.408 156.544 222.504 156.144 222.504 155.688ZM229.017 152.28C229.537 152.28 230.001 152.388 230.409 152.604C230.825 152.82 231.149 153.14 231.381 153.564C231.613 153.988 231.729 154.5 231.729 155.1V159H230.373V155.304C230.373 154.712 230.225 154.26 229.929 153.948C229.633 153.628 229.229 153.468 228.717 153.468C228.205 153.468 227.797 153.628 227.493 153.948C227.197 154.26 227.049 154.712 227.049 155.304V159H225.681V152.388H227.049V153.144C227.273 152.872 227.557 152.66 227.901 152.508C228.253 152.356 228.625 152.28 229.017 152.28ZM236.138 152.28C236.65 152.28 237.102 152.384 237.494 152.592C237.894 152.792 238.206 153.044 238.43 153.348V152.388H239.81V159.108C239.81 159.716 239.682 160.256 239.426 160.728C239.17 161.208 238.798 161.584 238.31 161.856C237.83 162.128 237.254 162.264 236.582 162.264C235.686 162.264 234.942 162.052 234.35 161.628C233.758 161.212 233.422 160.644 233.342 159.924H234.698C234.802 160.268 235.022 160.544 235.358 160.752C235.702 160.968 236.11 161.076 236.582 161.076C237.134 161.076 237.578 160.908 237.914 160.572C238.258 160.236 238.43 159.748 238.43 159.108V158.004C238.198 158.316 237.882 158.58 237.482 158.796C237.09 159.004 236.642 159.108 236.138 159.108C235.562 159.108 235.034 158.964 234.554 158.676C234.082 158.38 233.706 157.972 233.426 157.452C233.154 156.924 233.018 156.328 233.018 155.664C233.018 155 233.154 154.412 233.426 153.9C233.706 153.388 234.082 152.992 234.554 152.712C235.034 152.424 235.562 152.28 236.138 152.28ZM238.43 155.688C238.43 155.232 238.334 154.836 238.142 154.5C237.958 154.164 237.714 153.908 237.41 153.732C237.106 153.556 236.778 153.468 236.426 153.468C236.074 153.468 235.746 153.556 235.442 153.732C235.138 153.9 234.89 154.152 234.698 154.488C234.514 154.816 234.422 155.208 234.422 155.664C234.422 156.12 234.514 156.52 234.698 156.864C234.89 157.208 235.138 157.472 235.442 157.656C235.754 157.832 236.082 157.92 236.426 157.92C236.778 157.92 237.106 157.832 237.41 157.656C237.714 157.48 237.958 157.224 238.142 156.888C238.334 156.544 238.43 156.144 238.43 155.688ZM242.975 150.12V159H241.607V150.12H242.975ZM250.831 155.532C250.831 155.78 250.815 156.004 250.783 156.204H245.731C245.771 156.732 245.967 157.156 246.319 157.476C246.671 157.796 247.103 157.956 247.615 157.956C248.351 157.956 248.871 157.648 249.175 157.032H250.651C250.451 157.64 250.087 158.14 249.559 158.532C249.039 158.916 248.391 159.108 247.615 159.108C246.983 159.108 246.415 158.968 245.911 158.688C245.415 158.4 245.023 158 244.735 157.488C244.455 156.968 244.315 156.368 244.315 155.688C244.315 155.008 244.451 154.412 244.723 153.9C245.003 153.38 245.391 152.98 245.887 152.7C246.391 152.42 246.967 152.28 247.615 152.28C248.239 152.28 248.795 152.416 249.283 152.688C249.771 152.96 250.151 153.344 250.423 153.84C250.695 154.328 250.831 154.892 250.831 155.532ZM249.403 155.1C249.395 154.596 249.215 154.192 248.863 153.888C248.511 153.584 248.075 153.432 247.555 153.432C247.083 153.432 246.679 153.584 246.343 153.888C246.007 154.184 245.807 154.588 245.743 155.1H249.403Z" fill="black"/>
<rect x="170" y="152" width="10" height="6" stroke="black" stroke-width="2"/>
<path d="M192.268 181.764V184.212H195.148V185.328H192.268V187.884H195.508V189H190.9V180.648H195.508V181.764H192.268ZM198.561 180.12V189H197.193V180.12H198.561ZM201.725 180.12V189H200.357V180.12H201.725ZM204.217 181.512C203.969 181.512 203.761 181.428 203.593 181.26C203.425 181.092 203.341 180.884 203.341 180.636C203.341 180.388 203.425 180.18 203.593 180.012C203.761 179.844 203.969 179.76 204.217 179.76C204.457 179.76 204.661 179.844 204.829 180.012C204.997 180.18 205.081 180.388 205.081 180.636C205.081 180.884 204.997 181.092 204.829 181.26C204.661 181.428 204.457 181.512 204.217 181.512ZM204.889 182.388V189H203.521V182.388H204.889ZM208.053 183.36C208.285 183.056 208.601 182.8 209.001 182.592C209.401 182.384 209.853 182.28 210.357 182.28C210.933 182.28 211.457 182.424 211.929 182.712C212.409 182.992 212.785 183.388 213.057 183.9C213.329 184.412 213.465 185 213.465 185.664C213.465 186.328 213.329 186.924 213.057 187.452C212.785 187.972 212.409 188.38 211.929 188.676C211.457 188.964 210.933 189.108 210.357 189.108C209.853 189.108 209.405 189.008 209.013 188.808C208.621 188.6 208.301 188.344 208.053 188.04V192.144H206.685V182.388H208.053V183.36ZM212.073 185.664C212.073 185.208 211.977 184.816 211.785 184.488C211.601 184.152 211.353 183.9 211.041 183.732C210.737 183.556 210.409 183.468 210.057 183.468C209.713 183.468 209.385 183.556 209.073 183.732C208.769 183.908 208.521 184.164 208.329 184.5C208.145 184.836 208.053 185.232 208.053 185.688C208.053 186.144 208.145 186.544 208.329 186.888C208.521 187.224 208.769 187.48 209.073 187.656C209.385 187.832 209.713 187.92 210.057 187.92C210.409 187.92 210.737 187.832 211.041 187.656C211.353 187.472 211.601 187.208 211.785 186.864C211.977 186.52 212.073 186.12 212.073 185.664ZM217.218 189.108C216.698 189.108 216.23 189.016 215.814 188.832C215.406 188.64 215.082 188.384 214.842 188.064C214.602 187.736 214.474 187.372 214.458 186.972H215.874C215.898 187.252 216.03 187.488 216.27 187.68C216.518 187.864 216.826 187.956 217.194 187.956C217.578 187.956 217.874 187.884 218.082 187.74C218.298 187.588 218.406 187.396 218.406 187.164C218.406 186.916 218.286 186.732 218.046 186.612C217.814 186.492 217.442 186.36 216.93 186.216C216.434 186.08 216.03 185.948 215.718 185.82C215.406 185.692 215.134 185.496 214.902 185.232C214.678 184.968 214.566 184.62 214.566 184.188C214.566 183.836 214.67 183.516 214.878 183.228C215.086 182.932 215.382 182.7 215.766 182.532C216.158 182.364 216.606 182.28 217.11 182.28C217.862 182.28 218.466 182.472 218.922 182.856C219.386 183.232 219.634 183.748 219.666 184.404H218.298C218.274 184.108 218.154 183.872 217.938 183.696C217.722 183.52 217.43 183.432 217.062 183.432C216.702 183.432 216.426 183.5 216.234 183.636C216.042 183.772 215.946 183.952 215.946 184.176C215.946 184.352 216.01 184.5 216.138 184.62C216.266 184.74 216.422 184.836 216.606 184.908C216.79 184.972 217.062 185.056 217.422 185.16C217.902 185.288 218.294 185.42 218.598 185.556C218.91 185.684 219.178 185.876 219.402 186.132C219.626 186.388 219.742 186.728 219.75 187.152C219.75 187.528 219.646 187.864 219.438 188.16C219.23 188.456 218.934 188.688 218.55 188.856C218.174 189.024 217.73 189.108 217.218 189.108ZM227.288 185.532C227.288 185.78 227.272 186.004 227.24 186.204H222.188C222.228 186.732 222.424 187.156 222.776 187.476C223.128 187.796 223.56 187.956 224.072 187.956C224.808 187.956 225.328 187.648 225.632 187.032H227.108C226.908 187.64 226.544 188.14 226.016 188.532C225.496 188.916 224.848 189.108 224.072 189.108C223.44 189.108 222.872 188.968 222.368 188.688C221.872 188.4 221.48 188 221.192 187.488C220.912 186.968 220.772 186.368 220.772 185.688C220.772 185.008 220.908 184.412 221.18 183.9C221.46 183.38 221.848 182.98 222.344 182.7C222.848 182.42 223.424 182.28 224.072 182.28C224.696 182.28 225.252 182.416 225.74 182.688C226.228 182.96 226.608 183.344 226.88 183.84C227.152 184.328 227.288 184.892 227.288 185.532ZM225.86 185.1C225.852 184.596 225.672 184.192 225.32 183.888C224.968 183.584 224.532 183.432 224.012 183.432C223.54 183.432 223.136 183.584 222.8 183.888C222.464 184.184 222.264 184.588 222.2 185.1H225.86Z" fill="black"/>
<rect x="170" y="180" width="10" height="10" rx="5" stroke="black" stroke-width="2"/>
<path d="M195.232 129L193.312 125.664H192.268V129H190.9V120.66H193.78C194.42 120.66 194.96 120.772 195.4 120.996C195.848 121.22 196.18 121.52 196.396 121.896C196.62 122.272 196.732 122.692 196.732 123.156C196.732 123.7 196.572 124.196 196.252 124.644C195.94 125.084 195.456 125.384 194.8 125.544L196.864 129H195.232ZM192.268 124.572H193.78C194.292 124.572 194.676 124.444 194.932 124.188C195.196 123.932 195.328 123.588 195.328 123.156C195.328 122.724 195.2 122.388 194.944 122.148C194.688 121.9 194.3 121.776 193.78 121.776H192.268V124.572ZM204.542 125.532C204.542 125.78 204.526 126.004 204.494 126.204H199.442C199.482 126.732 199.678 127.156 200.03 127.476C200.382 127.796 200.814 127.956 201.326 127.956C202.062 127.956 202.582 127.648 202.886 127.032H204.362C204.162 127.64 203.798 128.14 203.27 128.532C202.75 128.916 202.102 129.108 201.326 129.108C200.694 129.108 200.126 128.968 199.622 128.688C199.126 128.4 198.734 128 198.446 127.488C198.166 126.968 198.026 126.368 198.026 125.688C198.026 125.008 198.162 124.412 198.434 123.9C198.714 123.38 199.102 122.98 199.598 122.7C200.102 122.42 200.678 122.28 201.326 122.28C201.95 122.28 202.506 122.416 202.994 122.688C203.482 122.96 203.862 123.344 204.134 123.84C204.406 124.328 204.542 124.892 204.542 125.532ZM203.114 125.1C203.106 124.596 202.926 124.192 202.574 123.888C202.222 123.584 201.786 123.432 201.266 123.432C200.794 123.432 200.39 123.584 200.054 123.888C199.718 124.184 199.518 124.588 199.454 125.1H203.114ZM205.432 125.688C205.432 125.008 205.568 124.412 205.84 123.9C206.12 123.38 206.504 122.98 206.992 122.7C207.48 122.42 208.04 122.28 208.672 122.28C209.472 122.28 210.132 122.472 210.652 122.856C211.18 123.232 211.536 123.772 211.72 124.476H210.244C210.124 124.148 209.932 123.892 209.668 123.708C209.404 123.524 209.072 123.432 208.672 123.432C208.112 123.432 207.664 123.632 207.328 124.032C207 124.424 206.836 124.976 206.836 125.688C206.836 126.4 207 126.956 207.328 127.356C207.664 127.756 208.112 127.956 208.672 127.956C209.464 127.956 209.988 127.608 210.244 126.912H211.72C211.528 127.584 211.168 128.12 210.64 128.52C210.112 128.912 209.456 129.108 208.672 129.108C208.04 129.108 207.48 128.968 206.992 128.688C206.504 128.4 206.12 128 205.84 127.488C205.568 126.968 205.432 126.368 205.432 125.688ZM214.68 123.504V127.164C214.68 127.412 214.736 127.592 214.848 127.704C214.968 127.808 215.168 127.86 215.448 127.86H216.288V129H215.208C214.592 129 214.12 128.856 213.792 128.568C213.464 128.28 213.3 127.812 213.3 127.164V123.504H212.52V122.388H213.3V120.744H214.68V122.388H216.288V123.504H214.68ZM217.092 125.664C217.092 125 217.228 124.412 217.5 123.9C217.78 123.388 218.156 122.992 218.628 122.712C219.108 122.424 219.636 122.28 220.212 122.28C220.732 122.28 221.184 122.384 221.568 122.592C221.96 122.792 222.272 123.044 222.504 123.348V122.388H223.884V129H222.504V128.016C222.272 128.328 221.956 128.588 221.556 128.796C221.156 129.004 220.7 129.108 220.188 129.108C219.62 129.108 219.1 128.964 218.628 128.676C218.156 128.38 217.78 127.972 217.5 127.452C217.228 126.924 217.092 126.328 217.092 125.664ZM222.504 125.688C222.504 125.232 222.408 124.836 222.216 124.5C222.032 124.164 221.788 123.908 221.484 123.732C221.18 123.556 220.852 123.468 220.5 123.468C220.148 123.468 219.82 123.556 219.516 123.732C219.212 123.9 218.964 124.152 218.772 124.488C218.588 124.816 218.496 125.208 218.496 125.664C218.496 126.12 218.588 126.52 218.772 126.864C218.964 127.208 219.212 127.472 219.516 127.656C219.828 127.832 220.156 127.92 220.5 127.92C220.852 127.92 221.18 127.832 221.484 127.656C221.788 127.48 222.032 127.224 222.216 126.888C222.408 126.544 222.504 126.144 222.504 125.688ZM229.017 122.28C229.537 122.28 230.001 122.388 230.409 122.604C230.825 122.82 231.149 123.14 231.381 123.564C231.613 123.988 231.729 124.5 231.729 125.1V129H230.373V125.304C230.373 124.712 230.225 124.26 229.929 123.948C229.633 123.628 229.229 123.468 228.717 123.468C228.205 123.468 227.797 123.628 227.493 123.948C227.197 124.26 227.049 124.712 227.049 125.304V129H225.681V122.388H227.049V123.144C227.273 122.872 227.557 122.66 227.901 122.508C228.253 122.356 228.625 122.28 229.017 122.28ZM236.138 122.28C236.65 122.28 237.102 122.384 237.494 122.592C237.894 122.792 238.206 123.044 238.43 123.348V122.388H239.81V129.108C239.81 129.716 239.682 130.256 239.426 130.728C239.17 131.208 238.798 131.584 238.31 131.856C237.83 132.128 237.254 132.264 236.582 132.264C235.686 132.264 234.942 132.052 234.35 131.628C233.758 131.212 233.422 130.644 233.342 129.924H234.698C234.802 130.268 235.022 130.544 235.358 130.752C235.702 130.968 236.11 131.076 236.582 131.076C237.134 131.076 237.578 130.908 237.914 130.572C238.258 130.236 238.43 129.748 238.43 129.108V128.004C238.198 128.316 237.882 128.58 237.482 128.796C237.09 129.004 236.642 129.108 236.138 129.108C235.562 129.108 235.034 128.964 234.554 128.676C234.082 128.38 233.706 127.972 233.426 127.452C233.154 126.924 233.018 126.328 233.018 125.664C233.018 125 233.154 124.412 233.426 123.9C233.706 123.388 234.082 122.992 234.554 122.712C235.034 122.424 235.562 122.28 236.138 122.28ZM238.43 125.688C238.43 125.232 238.334 124.836 238.142 124.5C237.958 124.164 237.714 123.908 237.41 123.732C237.106 123.556 236.778 123.468 236.426 123.468C236.074 123.468 235.746 123.556 235.442 123.732C235.138 123.9 234.89 124.152 234.698 124.488C234.514 124.816 234.422 125.208 234.422 125.664C234.422 126.12 234.514 126.52 234.698 126.864C234.89 127.208 235.138 127.472 235.442 127.656C235.754 127.832 236.082 127.92 236.426 127.92C236.778 127.92 237.106 127.832 237.41 127.656C237.714 127.48 237.958 127.224 238.142 126.888C238.334 126.544 238.43 126.144 238.43 125.688ZM242.975 120.12V129H241.607V120.12H242.975ZM250.831 125.532C250.831 125.78 250.815 126.004 250.783 126.204H245.731C245.771 126.732 245.967 127.156 246.319 127.476C246.671 127.796 247.103 127.956 247.615 127.956C248.351 127.956 248.871 127.648 249.175 127.032H250.651C250.451 127.64 250.087 128.14 249.559 128.532C249.039 128.916 248.391 129.108 247.615 129.108C246.983 129.108 246.415 128.968 245.911 128.688C245.415 128.4 245.023 128 244.735 127.488C244.455 126.968 244.315 126.368 244.315 125.688C244.315 125.008 244.451 124.412 244.723 123.9C245.003 123.38 245.391 122.98 245.887 122.7C246.391 122.42 246.967 122.28 247.615 122.28C248.239 122.28 248.795 122.416 249.283 122.688C249.771 122.96 250.151 123.344 250.423 123.84C250.695 124.328 250.831 124.892 250.831 125.532ZM249.403 125.1C249.395 124.596 249.215 124.192 248.863 123.888C248.511 123.584 248.075 123.432 247.555 123.432C247.083 123.432 246.679 123.584 246.343 123.888C246.007 124.184 245.807 124.588 245.743 125.1H249.403ZM256.891 123.504V127.164C256.891 127.412 256.947 127.592 257.059 127.704C257.179 127.808 257.379 127.86 257.659 127.86H258.499V129H257.419C256.803 129 256.331 128.856 256.003 128.568C255.675 128.28 255.511 127.812 255.511 127.164V123.504H254.731V122.388H255.511V120.744H256.891V122.388H258.499V123.504H256.891ZM261.127 123.348C261.327 123.012 261.591 122.752 261.919 122.568C262.255 122.376 262.651 122.28 263.107 122.28V123.696H262.759C262.223 123.696 261.815 123.832 261.535 124.104C261.263 124.376 261.127 124.848 261.127 125.52V129H259.759V122.388H261.127V123.348ZM265.061 121.512C264.813 121.512 264.605 121.428 264.437 121.26C264.269 121.092 264.185 120.884 264.185 120.636C264.185 120.388 264.269 120.18 264.437 120.012C264.605 119.844 264.813 119.76 265.061 119.76C265.301 119.76 265.505 119.844 265.673 120.012C265.841 120.18 265.925 120.388 265.925 120.636C265.925 120.884 265.841 121.092 265.673 121.26C265.505 121.428 265.301 121.512 265.061 121.512ZM265.733 122.388V129H264.365V122.388H265.733ZM267.073 125.664C267.073 125 267.209 124.412 267.481 123.9C267.761 123.388 268.137 122.992 268.609 122.712C269.089 122.424 269.617 122.28 270.193 122.28C270.713 122.28 271.165 122.384 271.549 122.592C271.941 122.792 272.253 123.044 272.485 123.348V122.388H273.865V129H272.485V128.016C272.253 128.328 271.937 128.588 271.537 128.796C271.137 129.004 270.681 129.108 270.169 129.108C269.601 129.108 269.081 128.964 268.609 128.676C268.137 128.38 267.761 127.972 267.481 127.452C267.209 126.924 267.073 126.328 267.073 125.664ZM272.485 125.688C272.485 125.232 272.389 124.836 272.197 124.5C272.013 124.164 271.769 123.908 271.465 123.732C271.161 123.556 270.833 123.468 270.481 123.468C270.129 123.468 269.801 123.556 269.497 123.732C269.193 123.9 268.945 124.152 268.753 124.488C268.569 124.816 268.477 125.208 268.477 125.664C268.477 126.12 268.569 126.52 268.753 126.864C268.945 127.208 269.193 127.472 269.497 127.656C269.809 127.832 270.137 127.92 270.481 127.92C270.833 127.92 271.161 127.832 271.465 127.656C271.769 127.48 272.013 127.224 272.197 126.888C272.389 126.544 272.485 126.144 272.485 125.688ZM278.998 122.28C279.518 122.28 279.982 122.388 280.39 122.604C280.806 122.82 281.13 123.14 281.362 123.564C281.594 123.988 281.71 124.5 281.71 125.1V129H280.354V125.304C280.354 124.712 280.206 124.26 279.91 123.948C279.614 123.628 279.21 123.468 278.698 123.468C278.186 123.468 277.778 123.628 277.474 123.948C277.178 124.26 277.03 124.712 277.03 125.304V129H275.662V122.388H277.03V123.144C277.254 122.872 277.538 122.66 277.882 122.508C278.234 122.356 278.606 122.28 278.998 122.28ZM286.119 122.28C286.631 122.28 287.083 122.384 287.475 122.592C287.875 122.792 288.187 123.044 288.411 123.348V122.388H289.791V129.108C289.791 129.716 289.663 130.256 289.407 130.728C289.151 131.208 288.779 131.584 288.291 131.856C287.811 132.128 287.235 132.264 286.563 132.264C285.667 132.264 284.923 132.052 284.331 131.628C283.739 131.212 283.403 130.644 283.323 129.924H284.679C284.783 130.268 285.003 130.544 285.339 130.752C285.683 130.968 286.091 131.076 286.563 131.076C287.115 131.076 287.559 130.908 287.895 130.572C288.239 130.236 288.411 129.748 288.411 129.108V128.004C288.179 128.316 287.863 128.58 287.463 128.796C287.071 129.004 286.623 129.108 286.119 129.108C285.543 129.108 285.015 128.964 284.535 128.676C284.063 128.38 283.687 127.972 283.407 127.452C283.135 126.924 282.999 126.328 282.999 125.664C282.999 125 283.135 124.412 283.407 123.9C283.687 123.388 284.063 122.992 284.535 122.712C285.015 122.424 285.543 122.28 286.119 122.28ZM288.411 125.688C288.411 125.232 288.315 124.836 288.123 124.5C287.939 124.164 287.695 123.908 287.391 123.732C287.087 123.556 286.759 123.468 286.407 123.468C286.055 123.468 285.727 123.556 285.423 123.732C285.119 123.9 284.871 124.152 284.679 124.488C284.495 124.816 284.403 125.208 284.403 125.664C284.403 126.12 284.495 126.52 284.679 126.864C284.871 127.208 285.119 127.472 285.423 127.656C285.735 127.832 286.063 127.92 286.407 127.92C286.759 127.92 287.087 127.832 287.391 127.656C287.695 127.48 287.939 127.224 288.123 126.888C288.315 126.544 288.411 126.144 288.411 125.688ZM292.956 120.12V129H291.588V120.12H292.956ZM300.812 125.532C300.812 125.78 300.796 126.004 300.764 126.204H295.712C295.752 126.732 295.948 127.156 296.3 127.476C296.652 127.796 297.084 127.956 297.596 127.956C298.332 127.956 298.852 127.648 299.156 127.032H300.632C300.432 127.64 300.068 128.14 299.54 128.532C299.02 128.916 298.372 129.108 297.596 129.108C296.964 129.108 296.396 128.968 295.892 128.688C295.396 128.4 295.004 128 294.716 127.488C294.436 126.968 294.296 126.368 294.296 125.688C294.296 125.008 294.432 124.412 294.704 123.9C294.984 123.38 295.372 122.98 295.868 122.7C296.372 122.42 296.948 122.28 297.596 122.28C298.22 122.28 298.776 122.416 299.264 122.688C299.752 122.96 300.132 123.344 300.404 123.84C300.676 124.328 300.812 124.892 300.812 125.532ZM299.384 125.1C299.376 124.596 299.196 124.192 298.844 123.888C298.492 123.584 298.056 123.432 297.536 123.432C297.064 123.432 296.66 123.584 296.324 123.888C295.988 124.184 295.788 124.588 295.724 125.1H299.384Z" fill="black"/>
<path d="M170 130V121.414L178.586 130H170Z" stroke="black" stroke-width="2"/>
</svg>
