<svg width="480" height="360" viewBox="0 0 480 360" fill="none" xmlns="http://www.w3.org/2000/svg">
<path d="M0 0H480V80C480 91.0457 471.046 100 460 100H20C8.95432 100 0 91.0457 0 80V0Z" fill="#191919" fill-opacity="0.75"/>
<path d="M185.062 30.4996C185.54 30.7758 186.159 30.614 186.373 30.105C186.785 29.1252 187 28.0698 187 27C187 25.5957 186.63 24.2162 185.928 23C185.226 21.7838 184.216 20.7739 183 20.0718C181.784 19.3696 180.404 19 179 19C177.596 19 176.216 19.3697 175 20.0718C173.784 20.7739 172.774 21.7838 172.072 23C171.37 24.2162 171 25.5957 171 27C171 28.0698 171.215 29.1252 171.627 30.105C171.841 30.614 172.46 30.7758 172.938 30.4996V30.4996C173.417 30.2235 173.572 29.6131 173.38 29.0956C173.13 28.4277 173.002 27.7182 173.002 27C173.002 25.9471 173.279 24.9127 173.805 24.0008C174.332 23.0889 175.089 22.3317 176.001 21.8052C176.913 21.2787 177.947 21.0016 179 21.0016C180.053 21.0016 181.087 21.2787 181.999 21.8052C182.911 22.3317 183.668 23.0889 184.195 24.0008C184.721 24.9127 184.998 25.9471 184.998 27C184.998 27.7182 184.87 28.4277 184.62 29.0956C184.428 29.6131 184.583 30.2235 185.062 30.4996V30.4996Z" fill="white"/>
<path d="M175.465 23.4644L179.333 25.3984C180.213 25.8385 180.403 27.0114 179.707 27.7071V27.7071C179.011 28.4028 177.839 28.2125 177.399 27.3324L175.465 23.4644Z" fill="white"/>
<path d="M212.976 23.192C212.976 23.7573 212.843 24.2907 212.576 24.792C212.309 25.2933 211.883 25.704 211.296 26.024C210.709 26.3333 209.957 26.488 209.04 26.488H207.024V31H205.2V19.88H209.04C209.893 19.88 210.613 20.0293 211.2 20.328C211.797 20.616 212.24 21.0107 212.528 21.512C212.827 22.0133 212.976 22.5733 212.976 23.192ZM209.04 25C209.733 25 210.251 24.8453 210.592 24.536C210.933 24.216 211.104 23.768 211.104 23.192C211.104 21.976 210.416 21.368 209.04 21.368H207.024V25H209.04ZM222.796 26.376C222.796 26.7067 222.774 27.0053 222.732 27.272H215.996C216.049 27.976 216.31 28.5413 216.78 28.968C217.249 29.3947 217.825 29.608 218.508 29.608C219.489 29.608 220.182 29.1973 220.588 28.376H222.556C222.289 29.1867 221.804 29.8533 221.1 30.376C220.406 30.888 219.542 31.144 218.508 31.144C217.665 31.144 216.908 30.9573 216.236 30.584C215.574 30.2 215.052 29.6667 214.668 28.984C214.294 28.2907 214.108 27.4907 214.108 26.584C214.108 25.6773 214.289 24.8827 214.652 24.2C215.025 23.5067 215.542 22.9733 216.204 22.6C216.876 22.2267 217.644 22.04 218.508 22.04C219.34 22.04 220.081 22.2213 220.732 22.584C221.382 22.9467 221.889 23.4587 222.252 24.12C222.614 24.7707 222.796 25.5227 222.796 26.376ZM220.892 25.8C220.881 25.128 220.641 24.5893 220.172 24.184C219.702 23.7787 219.121 23.576 218.428 23.576C217.798 23.576 217.26 23.7787 216.812 24.184C216.364 24.5787 216.097 25.1173 216.012 25.8H220.892ZM226.415 23.464C226.681 23.016 227.033 22.6693 227.471 22.424C227.919 22.168 228.447 22.04 229.055 22.04V23.928H228.591C227.876 23.928 227.332 24.1093 226.959 24.472C226.596 24.8347 226.415 25.464 226.415 26.36V31H224.591V22.184H226.415V23.464ZM234.427 23.672H232.795V31H230.955V23.672H229.915V22.184H230.955V21.56C230.955 20.5467 231.222 19.8107 231.755 19.352C232.299 18.8827 233.147 18.648 234.299 18.648V20.168C233.745 20.168 233.355 20.2747 233.131 20.488C232.907 20.6907 232.795 21.048 232.795 21.56V22.184H234.427V23.672ZM239.868 31.144C239.036 31.144 238.284 30.9573 237.612 30.584C236.94 30.2 236.412 29.6667 236.028 28.984C235.644 28.2907 235.452 27.4907 235.452 26.584C235.452 25.688 235.649 24.8933 236.044 24.2C236.438 23.5067 236.977 22.9733 237.66 22.6C238.342 22.2267 239.105 22.04 239.948 22.04C240.79 22.04 241.553 22.2267 242.236 22.6C242.918 22.9733 243.457 23.5067 243.852 24.2C244.246 24.8933 244.444 25.688 244.444 26.584C244.444 27.48 244.241 28.2747 243.836 28.968C243.43 29.6613 242.876 30.2 242.172 30.584C241.478 30.9573 240.71 31.144 239.868 31.144ZM239.868 29.56C240.337 29.56 240.774 29.448 241.18 29.224C241.596 29 241.932 28.664 242.188 28.216C242.444 27.768 242.572 27.224 242.572 26.584C242.572 25.944 242.449 25.4053 242.204 24.968C241.958 24.52 241.633 24.184 241.228 23.96C240.822 23.736 240.385 23.624 239.916 23.624C239.446 23.624 239.009 23.736 238.604 23.96C238.209 24.184 237.894 24.52 237.66 24.968C237.425 25.4053 237.308 25.944 237.308 26.584C237.308 27.5333 237.548 28.2693 238.028 28.792C238.518 29.304 239.132 29.56 239.868 29.56ZM248.071 23.464C248.338 23.016 248.69 22.6693 249.127 22.424C249.575 22.168 250.103 22.04 250.711 22.04V23.928H250.247C249.532 23.928 248.988 24.1093 248.615 24.472C248.252 24.8347 248.071 25.464 248.071 26.36V31H246.247V22.184H248.071V23.464ZM263.06 22.04C263.753 22.04 264.372 22.184 264.916 22.472C265.47 22.76 265.902 23.1867 266.212 23.752C266.532 24.3173 266.692 25 266.692 25.8V31H264.884V26.072C264.884 25.2827 264.686 24.68 264.292 24.264C263.897 23.8373 263.358 23.624 262.676 23.624C261.993 23.624 261.449 23.8373 261.044 24.264C260.649 24.68 260.452 25.2827 260.452 26.072V31H258.644V26.072C258.644 25.2827 258.446 24.68 258.052 24.264C257.657 23.8373 257.118 23.624 256.436 23.624C255.753 23.624 255.209 23.8373 254.804 24.264C254.409 24.68 254.212 25.2827 254.212 26.072V31H252.388V22.184H254.212V23.192C254.51 22.8293 254.889 22.5467 255.348 22.344C255.806 22.1413 256.297 22.04 256.82 22.04C257.524 22.04 258.153 22.1893 258.708 22.488C259.262 22.7867 259.689 23.2187 259.988 23.784C260.254 23.2507 260.67 22.8293 261.236 22.52C261.801 22.2 262.409 22.04 263.06 22.04ZM268.405 26.552C268.405 25.6667 268.586 24.8827 268.949 24.2C269.322 23.5173 269.823 22.9893 270.453 22.616C271.093 22.232 271.797 22.04 272.565 22.04C273.258 22.04 273.861 22.1787 274.373 22.456C274.895 22.7227 275.311 23.0587 275.621 23.464V22.184H277.461V31H275.621V29.688C275.311 30.104 274.89 30.4507 274.357 30.728C273.823 31.0053 273.215 31.144 272.533 31.144C271.775 31.144 271.082 30.952 270.453 30.568C269.823 30.1733 269.322 29.6293 268.949 28.936C268.586 28.232 268.405 27.4373 268.405 26.552ZM275.621 26.584C275.621 25.976 275.493 25.448 275.237 25C274.991 24.552 274.666 24.2107 274.261 23.976C273.855 23.7413 273.418 23.624 272.949 23.624C272.479 23.624 272.042 23.7413 271.637 23.976C271.231 24.2 270.901 24.536 270.645 24.984C270.399 25.4213 270.277 25.944 270.277 26.552C270.277 27.16 270.399 27.6933 270.645 28.152C270.901 28.6107 271.231 28.9627 271.637 29.208C272.053 29.4427 272.49 29.56 272.949 29.56C273.418 29.56 273.855 29.4427 274.261 29.208C274.666 28.9733 274.991 28.632 275.237 28.184C275.493 27.7253 275.621 27.192 275.621 26.584ZM284.304 22.04C284.998 22.04 285.616 22.184 286.16 22.472C286.715 22.76 287.147 23.1867 287.456 23.752C287.766 24.3173 287.92 25 287.92 25.8V31H286.112V26.072C286.112 25.2827 285.915 24.68 285.52 24.264C285.126 23.8373 284.587 23.624 283.904 23.624C283.222 23.624 282.678 23.8373 282.272 24.264C281.878 24.68 281.68 25.2827 281.68 26.072V31H279.856V22.184H281.68V23.192C281.979 22.8293 282.358 22.5467 282.816 22.344C283.286 22.1413 283.782 22.04 284.304 22.04ZM289.639 26.584C289.639 25.6773 289.82 24.8827 290.183 24.2C290.556 23.5067 291.068 22.9733 291.719 22.6C292.37 22.2267 293.116 22.04 293.959 22.04C295.026 22.04 295.906 22.296 296.599 22.808C297.303 23.3093 297.778 24.0293 298.023 24.968H296.055C295.895 24.5307 295.639 24.1893 295.287 23.944C294.935 23.6987 294.492 23.576 293.959 23.576C293.212 23.576 292.615 23.8427 292.167 24.376C291.73 24.8987 291.511 25.6347 291.511 26.584C291.511 27.5333 291.73 28.2747 292.167 28.808C292.615 29.3413 293.212 29.608 293.959 29.608C295.015 29.608 295.714 29.144 296.055 28.216H298.023C297.767 29.112 297.287 29.8267 296.583 30.36C295.879 30.8827 295.004 31.144 293.959 31.144C293.116 31.144 292.37 30.9573 291.719 30.584C291.068 30.2 290.556 29.6667 290.183 28.984C289.82 28.2907 289.639 27.4907 289.639 26.584ZM307.921 26.376C307.921 26.7067 307.899 27.0053 307.857 27.272H301.121C301.174 27.976 301.435 28.5413 301.905 28.968C302.374 29.3947 302.95 29.608 303.633 29.608C304.614 29.608 305.307 29.1973 305.713 28.376H307.681C307.414 29.1867 306.929 29.8533 306.225 30.376C305.531 30.888 304.667 31.144 303.633 31.144C302.79 31.144 302.033 30.9573 301.361 30.584C300.699 30.2 300.177 29.6667 299.793 28.984C299.419 28.2907 299.233 27.4907 299.233 26.584C299.233 25.6773 299.414 24.8827 299.777 24.2C300.15 23.5067 300.667 22.9733 301.329 22.6C302.001 22.2267 302.769 22.04 303.633 22.04C304.465 22.04 305.206 22.2213 305.857 22.584C306.507 22.9467 307.014 23.4587 307.377 24.12C307.739 24.7707 307.921 25.5227 307.921 26.376ZM306.017 25.8C306.006 25.128 305.766 24.5893 305.297 24.184C304.827 23.7787 304.246 23.576 303.553 23.576C302.923 23.576 302.385 23.7787 301.937 24.184C301.489 24.5787 301.222 25.1173 301.137 25.8H306.017Z" fill="white"/>
<path d="M37.1913 56.66L34.4313 61.976V65H33.0633V61.976L30.2913 56.66H31.8153L33.7473 60.752L35.6793 56.66H37.1913ZM41.145 65.108C40.521 65.108 39.957 64.968 39.453 64.688C38.949 64.4 38.553 64 38.265 63.488C37.977 62.968 37.833 62.368 37.833 61.688C37.833 61.016 37.981 60.42 38.277 59.9C38.573 59.38 38.977 58.98 39.489 58.7C40.001 58.42 40.573 58.28 41.205 58.28C41.837 58.28 42.409 58.42 42.921 58.7C43.433 58.98 43.837 59.38 44.133 59.9C44.429 60.42 44.577 61.016 44.577 61.688C44.577 62.36 44.425 62.956 44.121 63.476C43.817 63.996 43.401 64.4 42.873 64.688C42.353 64.968 41.777 65.108 41.145 65.108ZM41.145 63.92C41.497 63.92 41.825 63.836 42.129 63.668C42.441 63.5 42.693 63.248 42.885 62.912C43.077 62.576 43.173 62.168 43.173 61.688C43.173 61.208 43.081 60.804 42.897 60.476C42.713 60.14 42.469 59.888 42.165 59.72C41.861 59.552 41.533 59.468 41.181 59.468C40.829 59.468 40.501 59.552 40.197 59.72C39.901 59.888 39.665 60.14 39.489 60.476C39.313 60.804 39.225 61.208 39.225 61.688C39.225 62.4 39.405 62.952 39.765 63.344C40.133 63.728 40.593 63.92 41.145 63.92ZM51.9173 58.388V65H50.5493V64.22C50.3333 64.492 50.0493 64.708 49.6973 64.868C49.3533 65.02 48.9853 65.096 48.5933 65.096C48.0733 65.096 47.6053 64.988 47.1893 64.772C46.7813 64.556 46.4573 64.236 46.2173 63.812C45.9853 63.388 45.8693 62.876 45.8693 62.276V58.388H47.2253V62.072C47.2253 62.664 47.3733 63.12 47.6693 63.44C47.9653 63.752 48.3693 63.908 48.8813 63.908C49.3933 63.908 49.7973 63.752 50.0933 63.44C50.3973 63.12 50.5493 62.664 50.5493 62.072V58.388H51.9173ZM56.3835 61.664C56.3835 61 56.5195 60.412 56.7915 59.9C57.0715 59.388 57.4475 58.992 57.9195 58.712C58.3995 58.424 58.9275 58.28 59.5035 58.28C60.0235 58.28 60.4755 58.384 60.8595 58.592C61.2515 58.792 61.5635 59.044 61.7955 59.348V58.388H63.1755V65H61.7955V64.016C61.5635 64.328 61.2475 64.588 60.8475 64.796C60.4475 65.004 59.9915 65.108 59.4795 65.108C58.9115 65.108 58.3915 64.964 57.9195 64.676C57.4475 64.38 57.0715 63.972 56.7915 63.452C56.5195 62.924 56.3835 62.328 56.3835 61.664ZM61.7955 61.688C61.7955 61.232 61.6995 60.836 61.5075 60.5C61.3235 60.164 61.0795 59.908 60.7755 59.732C60.4715 59.556 60.1435 59.468 59.7915 59.468C59.4395 59.468 59.1115 59.556 58.8075 59.732C58.5035 59.9 58.2555 60.152 58.0635 60.488C57.8795 60.816 57.7875 61.208 57.7875 61.664C57.7875 62.12 57.8795 62.52 58.0635 62.864C58.2555 63.208 58.5035 63.472 58.8075 63.656C59.1195 63.832 59.4475 63.92 59.7915 63.92C60.1435 63.92 60.4715 63.832 60.7755 63.656C61.0795 63.48 61.3235 63.224 61.5075 62.888C61.6995 62.544 61.7955 62.144 61.7955 61.688ZM66.3403 59.348C66.5403 59.012 66.8043 58.752 67.1323 58.568C67.4683 58.376 67.8643 58.28 68.3203 58.28V59.696H67.9723C67.4363 59.696 67.0283 59.832 66.7483 60.104C66.4763 60.376 66.3403 60.848 66.3403 61.52V65H64.9723V58.388H66.3403V59.348ZM75.6377 61.532C75.6377 61.78 75.6217 62.004 75.5897 62.204H70.5377C70.5777 62.732 70.7737 63.156 71.1257 63.476C71.4777 63.796 71.9097 63.956 72.4217 63.956C73.1577 63.956 73.6777 63.648 73.9817 63.032H75.4577C75.2577 63.64 74.8937 64.14 74.3657 64.532C73.8457 64.916 73.1977 65.108 72.4217 65.108C71.7897 65.108 71.2217 64.968 70.7177 64.688C70.2217 64.4 69.8297 64 69.5417 63.488C69.2617 62.968 69.1217 62.368 69.1217 61.688C69.1217 61.008 69.2577 60.412 69.5297 59.9C69.8097 59.38 70.1977 58.98 70.6937 58.7C71.1977 58.42 71.7737 58.28 72.4217 58.28C73.0457 58.28 73.6017 58.416 74.0897 58.688C74.5777 58.96 74.9577 59.344 75.2297 59.84C75.5017 60.328 75.6377 60.892 75.6377 61.532ZM74.2097 61.1C74.2017 60.596 74.0217 60.192 73.6697 59.888C73.3177 59.584 72.8817 59.432 72.3617 59.432C71.8897 59.432 71.4857 59.584 71.1497 59.888C70.8137 60.184 70.6137 60.588 70.5497 61.1H74.2097ZM83.4372 58.28C83.9572 58.28 84.4212 58.388 84.8292 58.604C85.2452 58.82 85.5692 59.14 85.8012 59.564C86.0332 59.988 86.1492 60.5 86.1492 61.1V65H84.7932V61.304C84.7932 60.712 84.6452 60.26 84.3492 59.948C84.0532 59.628 83.6492 59.468 83.1372 59.468C82.6252 59.468 82.2172 59.628 81.9132 59.948C81.6172 60.26 81.4692 60.712 81.4692 61.304V65H80.1012V58.388H81.4692V59.144C81.6932 58.872 81.9772 58.66 82.3212 58.508C82.6732 58.356 83.0452 58.28 83.4372 58.28ZM90.7621 65.108C90.1381 65.108 89.5741 64.968 89.0701 64.688C88.5661 64.4 88.1701 64 87.8821 63.488C87.5941 62.968 87.4501 62.368 87.4501 61.688C87.4501 61.016 87.5981 60.42 87.8941 59.9C88.1901 59.38 88.5941 58.98 89.1061 58.7C89.6181 58.42 90.1901 58.28 90.8221 58.28C91.4541 58.28 92.0261 58.42 92.5381 58.7C93.0501 58.98 93.4541 59.38 93.7501 59.9C94.0461 60.42 94.1941 61.016 94.1941 61.688C94.1941 62.36 94.0421 62.956 93.7381 63.476C93.4341 63.996 93.0181 64.4 92.4901 64.688C91.9701 64.968 91.3941 65.108 90.7621 65.108ZM90.7621 63.92C91.1141 63.92 91.4421 63.836 91.7461 63.668C92.0581 63.5 92.3101 63.248 92.5021 62.912C92.6941 62.576 92.7901 62.168 92.7901 61.688C92.7901 61.208 92.6981 60.804 92.5141 60.476C92.3301 60.14 92.0861 59.888 91.7821 59.72C91.4781 59.552 91.1501 59.468 90.7981 59.468C90.4461 59.468 90.1181 59.552 89.8141 59.72C89.5181 59.888 89.2821 60.14 89.1061 60.476C88.9301 60.804 88.8421 61.208 88.8421 61.688C88.8421 62.4 89.0221 62.952 89.3821 63.344C89.7501 63.728 90.2101 63.92 90.7621 63.92ZM97.1425 59.504V63.164C97.1425 63.412 97.1985 63.592 97.3105 63.704C97.4305 63.808 97.6305 63.86 97.9105 63.86H98.7505V65H97.6705C97.0545 65 96.5825 64.856 96.2545 64.568C95.9265 64.28 95.7625 63.812 95.7625 63.164V59.504H94.9825V58.388H95.7625V56.744H97.1425V58.388H98.7505V59.504H97.1425ZM109.117 58.388V65H107.749V64.22C107.533 64.492 107.249 64.708 106.897 64.868C106.553 65.02 106.185 65.096 105.793 65.096C105.273 65.096 104.805 64.988 104.389 64.772C103.981 64.556 103.657 64.236 103.417 63.812C103.185 63.388 103.069 62.876 103.069 62.276V58.388H104.425V62.072C104.425 62.664 104.573 63.12 104.869 63.44C105.165 63.752 105.569 63.908 106.081 63.908C106.593 63.908 106.997 63.752 107.293 63.44C107.597 63.12 107.749 62.664 107.749 62.072V58.388H109.117ZM113.321 65.108C112.801 65.108 112.333 65.016 111.917 64.832C111.509 64.64 111.185 64.384 110.945 64.064C110.705 63.736 110.577 63.372 110.561 62.972H111.977C112.001 63.252 112.133 63.488 112.373 63.68C112.621 63.864 112.929 63.956 113.297 63.956C113.681 63.956 113.977 63.884 114.185 63.74C114.401 63.588 114.509 63.396 114.509 63.164C114.509 62.916 114.389 62.732 114.149 62.612C113.917 62.492 113.545 62.36 113.033 62.216C112.537 62.08 112.133 61.948 111.821 61.82C111.509 61.692 111.237 61.496 111.005 61.232C110.781 60.968 110.669 60.62 110.669 60.188C110.669 59.836 110.773 59.516 110.981 59.228C111.189 58.932 111.485 58.7 111.869 58.532C112.261 58.364 112.709 58.28 113.213 58.28C113.965 58.28 114.569 58.472 115.025 58.856C115.489 59.232 115.737 59.748 115.769 60.404H114.401C114.377 60.108 114.257 59.872 114.041 59.696C113.825 59.52 113.533 59.432 113.165 59.432C112.805 59.432 112.529 59.5 112.337 59.636C112.145 59.772 112.049 59.952 112.049 60.176C112.049 60.352 112.113 60.5 112.241 60.62C112.369 60.74 112.525 60.836 112.709 60.908C112.893 60.972 113.165 61.056 113.525 61.16C114.005 61.288 114.397 61.42 114.701 61.556C115.013 61.684 115.281 61.876 115.505 62.132C115.729 62.388 115.845 62.728 115.853 63.152C115.853 63.528 115.749 63.864 115.541 64.16C115.333 64.456 115.037 64.688 114.653 64.856C114.277 65.024 113.833 65.108 113.321 65.108ZM118.028 57.512C117.78 57.512 117.572 57.428 117.404 57.26C117.236 57.092 117.152 56.884 117.152 56.636C117.152 56.388 117.236 56.18 117.404 56.012C117.572 55.844 117.78 55.76 118.028 55.76C118.268 55.76 118.472 55.844 118.64 56.012C118.808 56.18 118.892 56.388 118.892 56.636C118.892 56.884 118.808 57.092 118.64 57.26C118.472 57.428 118.268 57.512 118.028 57.512ZM118.7 58.388V65H117.332V58.388H118.7ZM123.832 58.28C124.352 58.28 124.816 58.388 125.224 58.604C125.64 58.82 125.964 59.14 126.196 59.564C126.428 59.988 126.544 60.5 126.544 61.1V65H125.188V61.304C125.188 60.712 125.04 60.26 124.744 59.948C124.448 59.628 124.044 59.468 123.532 59.468C123.02 59.468 122.612 59.628 122.308 59.948C122.012 60.26 121.864 60.712 121.864 61.304V65H120.496V58.388H121.864V59.144C122.088 58.872 122.372 58.66 122.716 58.508C123.068 58.356 123.44 58.28 123.832 58.28ZM130.953 58.28C131.465 58.28 131.917 58.384 132.309 58.592C132.709 58.792 133.021 59.044 133.245 59.348V58.388H134.625V65.108C134.625 65.716 134.497 66.256 134.241 66.728C133.985 67.208 133.613 67.584 133.125 67.856C132.645 68.128 132.069 68.264 131.397 68.264C130.501 68.264 129.757 68.052 129.165 67.628C128.573 67.212 128.237 66.644 128.157 65.924H129.513C129.617 66.268 129.837 66.544 130.173 66.752C130.517 66.968 130.925 67.076 131.397 67.076C131.949 67.076 132.393 66.908 132.729 66.572C133.073 66.236 133.245 65.748 133.245 65.108V64.004C133.013 64.316 132.697 64.58 132.297 64.796C131.905 65.004 131.457 65.108 130.953 65.108C130.377 65.108 129.849 64.964 129.369 64.676C128.897 64.38 128.521 63.972 128.241 63.452C127.969 62.924 127.833 62.328 127.833 61.664C127.833 61 127.969 60.412 128.241 59.9C128.521 59.388 128.897 58.992 129.369 58.712C129.849 58.424 130.377 58.28 130.953 58.28ZM133.245 61.688C133.245 61.232 133.149 60.836 132.957 60.5C132.773 60.164 132.529 59.908 132.225 59.732C131.921 59.556 131.593 59.468 131.241 59.468C130.889 59.468 130.561 59.556 130.257 59.732C129.953 59.9 129.705 60.152 129.513 60.488C129.329 60.816 129.237 61.208 129.237 61.664C129.237 62.12 129.329 62.52 129.513 62.864C129.705 63.208 129.953 63.472 130.257 63.656C130.569 63.832 130.897 63.92 131.241 63.92C131.593 63.92 131.921 63.832 132.225 63.656C132.529 63.48 132.773 63.224 132.957 62.888C133.149 62.544 133.245 62.144 133.245 61.688ZM144.927 56.66V57.776H142.707V65H141.339V57.776H139.107V56.66H144.927ZM152.3 58.388V65H150.932V64.22C150.716 64.492 150.432 64.708 150.08 64.868C149.736 65.02 149.368 65.096 148.976 65.096C148.456 65.096 147.988 64.988 147.572 64.772C147.164 64.556 146.84 64.236 146.6 63.812C146.368 63.388 146.252 62.876 146.252 62.276V58.388H147.608V62.072C147.608 62.664 147.756 63.12 148.052 63.44C148.348 63.752 148.752 63.908 149.264 63.908C149.776 63.908 150.18 63.752 150.476 63.44C150.78 63.12 150.932 62.664 150.932 62.072V58.388H152.3ZM155.473 59.348C155.673 59.012 155.937 58.752 156.265 58.568C156.601 58.376 156.997 58.28 157.453 58.28V59.696H157.105C156.569 59.696 156.161 59.832 155.881 60.104C155.609 60.376 155.473 60.848 155.473 61.52V65H154.105V58.388H155.473V59.348ZM160.079 59.372C160.311 59.052 160.627 58.792 161.027 58.592C161.435 58.384 161.887 58.28 162.383 58.28C162.967 58.28 163.495 58.42 163.967 58.7C164.439 58.98 164.811 59.38 165.083 59.9C165.355 60.412 165.491 61 165.491 61.664C165.491 62.328 165.355 62.924 165.083 63.452C164.811 63.972 164.435 64.38 163.955 64.676C163.483 64.964 162.959 65.108 162.383 65.108C161.871 65.108 161.415 65.008 161.015 64.808C160.623 64.608 160.311 64.352 160.079 64.04V65H158.711V56.12H160.079V59.372ZM164.099 61.664C164.099 61.208 164.003 60.816 163.811 60.488C163.627 60.152 163.379 59.9 163.067 59.732C162.763 59.556 162.435 59.468 162.083 59.468C161.739 59.468 161.411 59.556 161.099 59.732C160.795 59.908 160.547 60.164 160.355 60.5C160.171 60.836 160.079 61.232 160.079 61.688C160.079 62.144 160.171 62.544 160.355 62.888C160.547 63.224 160.795 63.48 161.099 63.656C161.411 63.832 161.739 63.92 162.083 63.92C162.435 63.92 162.763 63.832 163.067 63.656C163.379 63.472 163.627 63.208 163.811 62.864C164.003 62.52 164.099 62.12 164.099 61.664ZM169.711 65.108C169.087 65.108 168.523 64.968 168.019 64.688C167.515 64.4 167.119 64 166.831 63.488C166.543 62.968 166.399 62.368 166.399 61.688C166.399 61.016 166.547 60.42 166.843 59.9C167.139 59.38 167.543 58.98 168.055 58.7C168.567 58.42 169.139 58.28 169.771 58.28C170.403 58.28 170.975 58.42 171.487 58.7C171.999 58.98 172.403 59.38 172.699 59.9C172.995 60.42 173.143 61.016 173.143 61.688C173.143 62.36 172.991 62.956 172.687 63.476C172.383 63.996 171.967 64.4 171.439 64.688C170.919 64.968 170.343 65.108 169.711 65.108ZM169.711 63.92C170.063 63.92 170.391 63.836 170.695 63.668C171.007 63.5 171.259 63.248 171.451 62.912C171.643 62.576 171.739 62.168 171.739 61.688C171.739 61.208 171.647 60.804 171.463 60.476C171.279 60.14 171.035 59.888 170.731 59.72C170.427 59.552 170.099 59.468 169.747 59.468C169.395 59.468 169.067 59.552 168.763 59.72C168.467 59.888 168.231 60.14 168.055 60.476C167.879 60.804 167.791 61.208 167.791 61.688C167.791 62.4 167.971 62.952 168.331 63.344C168.699 63.728 169.159 63.92 169.711 63.92ZM183.376 58.388L181.324 65H179.884L178.552 60.116L177.22 65H175.78L173.716 58.388H175.108L176.488 63.704L177.892 58.388H179.32L180.664 63.68L182.032 58.388H183.376ZM183.942 61.664C183.942 61 184.078 60.412 184.35 59.9C184.63 59.388 185.006 58.992 185.478 58.712C185.958 58.424 186.486 58.28 187.062 58.28C187.582 58.28 188.034 58.384 188.418 58.592C188.81 58.792 189.122 59.044 189.354 59.348V58.388H190.734V65H189.354V64.016C189.122 64.328 188.806 64.588 188.406 64.796C188.006 65.004 187.55 65.108 187.038 65.108C186.47 65.108 185.95 64.964 185.478 64.676C185.006 64.38 184.63 63.972 184.35 63.452C184.078 62.924 183.942 62.328 183.942 61.664ZM189.354 61.688C189.354 61.232 189.258 60.836 189.066 60.5C188.882 60.164 188.638 59.908 188.334 59.732C188.03 59.556 187.702 59.468 187.35 59.468C186.998 59.468 186.67 59.556 186.366 59.732C186.062 59.9 185.814 60.152 185.622 60.488C185.438 60.816 185.346 61.208 185.346 61.664C185.346 62.12 185.438 62.52 185.622 62.864C185.814 63.208 186.062 63.472 186.366 63.656C186.678 63.832 187.006 63.92 187.35 63.92C187.702 63.92 188.03 63.832 188.334 63.656C188.638 63.48 188.882 63.224 189.066 62.888C189.258 62.544 189.354 62.144 189.354 61.688ZM193.899 59.348C194.099 59.012 194.363 58.752 194.691 58.568C195.027 58.376 195.423 58.28 195.879 58.28V59.696H195.531C194.995 59.696 194.587 59.832 194.307 60.104C194.035 60.376 193.899 60.848 193.899 61.52V65H192.531V58.388H193.899V59.348ZM198.504 59.36C198.736 59.056 199.052 58.8 199.452 58.592C199.852 58.384 200.304 58.28 200.808 58.28C201.384 58.28 201.908 58.424 202.38 58.712C202.86 58.992 203.236 59.388 203.508 59.9C203.78 60.412 203.916 61 203.916 61.664C203.916 62.328 203.78 62.924 203.508 63.452C203.236 63.972 202.86 64.38 202.38 64.676C201.908 64.964 201.384 65.108 200.808 65.108C200.304 65.108 199.856 65.008 199.464 64.808C199.072 64.6 198.752 64.344 198.504 64.04V68.144H197.136V58.388H198.504V59.36ZM202.524 61.664C202.524 61.208 202.428 60.816 202.236 60.488C202.052 60.152 201.804 59.9 201.492 59.732C201.188 59.556 200.86 59.468 200.508 59.468C200.164 59.468 199.836 59.556 199.524 59.732C199.22 59.908 198.972 60.164 198.78 60.5C198.596 60.836 198.504 61.232 198.504 61.688C198.504 62.144 198.596 62.544 198.78 62.888C198.972 63.224 199.22 63.48 199.524 63.656C199.836 63.832 200.164 63.92 200.508 63.92C200.86 63.92 201.188 63.832 201.492 63.656C201.804 63.472 202.052 63.208 202.236 62.864C202.428 62.52 202.524 62.12 202.524 61.664ZM206.985 56.66L206.829 62.48H205.689L205.533 56.66H206.985ZM206.301 65.084C206.053 65.084 205.845 65 205.677 64.832C205.509 64.664 205.425 64.456 205.425 64.208C205.425 63.96 205.509 63.752 205.677 63.584C205.845 63.416 206.053 63.332 206.301 63.332C206.541 63.332 206.745 63.416 206.913 63.584C207.081 63.752 207.165 63.96 207.165 64.208C207.165 64.456 207.081 64.664 206.913 64.832C206.745 65 206.541 65.084 206.301 65.084ZM217.63 56.66V57.776H215.41V65H214.042V57.776H211.81V56.66H217.63ZM221.883 65.108C221.259 65.108 220.695 64.968 220.191 64.688C219.687 64.4 219.291 64 219.003 63.488C218.715 62.968 218.571 62.368 218.571 61.688C218.571 61.016 218.719 60.42 219.015 59.9C219.311 59.38 219.715 58.98 220.227 58.7C220.739 58.42 221.311 58.28 221.943 58.28C222.575 58.28 223.147 58.42 223.659 58.7C224.171 58.98 224.575 59.38 224.871 59.9C225.167 60.42 225.315 61.016 225.315 61.688C225.315 62.36 225.163 62.956 224.859 63.476C224.555 63.996 224.139 64.4 223.611 64.688C223.091 64.968 222.515 65.108 221.883 65.108ZM221.883 63.92C222.235 63.92 222.563 63.836 222.867 63.668C223.179 63.5 223.431 63.248 223.623 62.912C223.815 62.576 223.911 62.168 223.911 61.688C223.911 61.208 223.819 60.804 223.635 60.476C223.451 60.14 223.207 59.888 222.903 59.72C222.599 59.552 222.271 59.468 221.919 59.468C221.567 59.468 221.239 59.552 220.935 59.72C220.639 59.888 220.403 60.14 220.227 60.476C220.051 60.804 219.963 61.208 219.963 61.688C219.963 62.4 220.143 62.952 220.503 63.344C220.871 63.728 221.331 63.92 221.883 63.92ZM230.481 57.512C230.233 57.512 230.025 57.428 229.857 57.26C229.689 57.092 229.605 56.884 229.605 56.636C229.605 56.388 229.689 56.18 229.857 56.012C230.025 55.844 230.233 55.76 230.481 55.76C230.721 55.76 230.925 55.844 231.093 56.012C231.261 56.18 231.345 56.388 231.345 56.636C231.345 56.884 231.261 57.092 231.093 57.26C230.925 57.428 230.721 57.512 230.481 57.512ZM231.153 58.388V65H229.785V58.388H231.153ZM240.953 58.28C241.473 58.28 241.937 58.388 242.345 58.604C242.761 58.82 243.085 59.14 243.317 59.564C243.557 59.988 243.677 60.5 243.677 61.1V65H242.321V61.304C242.321 60.712 242.173 60.26 241.877 59.948C241.581 59.628 241.177 59.468 240.665 59.468C240.153 59.468 239.745 59.628 239.441 59.948C239.145 60.26 238.997 60.712 238.997 61.304V65H237.641V61.304C237.641 60.712 237.493 60.26 237.197 59.948C236.901 59.628 236.497 59.468 235.985 59.468C235.473 59.468 235.065 59.628 234.761 59.948C234.465 60.26 234.317 60.712 234.317 61.304V65H232.949V58.388H234.317V59.144C234.541 58.872 234.825 58.66 235.169 58.508C235.513 58.356 235.881 58.28 236.273 58.28C236.801 58.28 237.273 58.392 237.689 58.616C238.105 58.84 238.425 59.164 238.649 59.588C238.849 59.188 239.161 58.872 239.585 58.64C240.009 58.4 240.465 58.28 240.953 58.28ZM246.786 59.36C247.018 59.056 247.334 58.8 247.734 58.592C248.134 58.384 248.586 58.28 249.09 58.28C249.666 58.28 250.19 58.424 250.662 58.712C251.142 58.992 251.518 59.388 251.79 59.9C252.062 60.412 252.198 61 252.198 61.664C252.198 62.328 252.062 62.924 251.79 63.452C251.518 63.972 251.142 64.38 250.662 64.676C250.19 64.964 249.666 65.108 249.09 65.108C248.586 65.108 248.138 65.008 247.746 64.808C247.354 64.6 247.034 64.344 246.786 64.04V68.144H245.418V58.388H246.786V59.36ZM250.806 61.664C250.806 61.208 250.71 60.816 250.518 60.488C250.334 60.152 250.086 59.9 249.774 59.732C249.47 59.556 249.142 59.468 248.79 59.468C248.446 59.468 248.118 59.556 247.806 59.732C247.502 59.908 247.254 60.164 247.062 60.5C246.878 60.836 246.786 61.232 246.786 61.688C246.786 62.144 246.878 62.544 247.062 62.888C247.254 63.224 247.502 63.48 247.806 63.656C248.118 63.832 248.446 63.92 248.79 63.92C249.142 63.92 249.47 63.832 249.774 63.656C250.086 63.472 250.334 63.208 250.518 62.864C250.71 62.52 250.806 62.12 250.806 61.664ZM254.918 59.348C255.118 59.012 255.382 58.752 255.71 58.568C256.046 58.376 256.442 58.28 256.898 58.28V59.696H256.55C256.014 59.696 255.606 59.832 255.326 60.104C255.054 60.376 254.918 60.848 254.918 61.52V65H253.55V58.388H254.918V59.348ZM261.024 65.108C260.4 65.108 259.836 64.968 259.332 64.688C258.828 64.4 258.432 64 258.144 63.488C257.856 62.968 257.712 62.368 257.712 61.688C257.712 61.016 257.86 60.42 258.156 59.9C258.452 59.38 258.856 58.98 259.368 58.7C259.88 58.42 260.452 58.28 261.084 58.28C261.716 58.28 262.288 58.42 262.8 58.7C263.312 58.98 263.716 59.38 264.012 59.9C264.308 60.42 264.456 61.016 264.456 61.688C264.456 62.36 264.304 62.956 264 63.476C263.696 63.996 263.28 64.4 262.752 64.688C262.232 64.968 261.656 65.108 261.024 65.108ZM261.024 63.92C261.376 63.92 261.704 63.836 262.008 63.668C262.32 63.5 262.572 63.248 262.764 62.912C262.956 62.576 263.052 62.168 263.052 61.688C263.052 61.208 262.96 60.804 262.776 60.476C262.592 60.14 262.348 59.888 262.044 59.72C261.74 59.552 261.412 59.468 261.06 59.468C260.708 59.468 260.38 59.552 260.076 59.72C259.78 59.888 259.544 60.14 259.368 60.476C259.192 60.804 259.104 61.208 259.104 61.688C259.104 62.4 259.284 62.952 259.644 63.344C260.012 63.728 260.472 63.92 261.024 63.92ZM268.364 63.776L270.236 58.388H271.688L269.168 65H267.536L265.028 58.388H266.492L268.364 63.776ZM278.782 61.532C278.782 61.78 278.766 62.004 278.734 62.204H273.682C273.722 62.732 273.918 63.156 274.27 63.476C274.622 63.796 275.054 63.956 275.566 63.956C276.302 63.956 276.822 63.648 277.126 63.032H278.602C278.402 63.64 278.038 64.14 277.51 64.532C276.99 64.916 276.342 65.108 275.566 65.108C274.934 65.108 274.366 64.968 273.862 64.688C273.366 64.4 272.974 64 272.686 63.488C272.406 62.968 272.266 62.368 272.266 61.688C272.266 61.008 272.402 60.412 272.674 59.9C272.954 59.38 273.342 58.98 273.838 58.7C274.342 58.42 274.918 58.28 275.566 58.28C276.19 58.28 276.746 58.416 277.234 58.688C277.722 58.96 278.102 59.344 278.374 59.84C278.646 60.328 278.782 60.892 278.782 61.532ZM277.354 61.1C277.346 60.596 277.166 60.192 276.814 59.888C276.462 59.584 276.026 59.432 275.506 59.432C275.034 59.432 274.63 59.584 274.294 59.888C273.958 60.184 273.758 60.588 273.694 61.1H277.354ZM284.614 59.36C284.846 59.056 285.162 58.8 285.562 58.592C285.962 58.384 286.414 58.28 286.918 58.28C287.494 58.28 288.018 58.424 288.49 58.712C288.97 58.992 289.346 59.388 289.618 59.9C289.89 60.412 290.026 61 290.026 61.664C290.026 62.328 289.89 62.924 289.618 63.452C289.346 63.972 288.97 64.38 288.49 64.676C288.018 64.964 287.494 65.108 286.918 65.108C286.414 65.108 285.966 65.008 285.574 64.808C285.182 64.6 284.862 64.344 284.614 64.04V68.144H283.246V58.388H284.614V59.36ZM288.634 61.664C288.634 61.208 288.538 60.816 288.346 60.488C288.162 60.152 287.914 59.9 287.602 59.732C287.298 59.556 286.97 59.468 286.618 59.468C286.274 59.468 285.946 59.556 285.634 59.732C285.33 59.908 285.082 60.164 284.89 60.5C284.706 60.836 284.614 61.232 284.614 61.688C284.614 62.144 284.706 62.544 284.89 62.888C285.082 63.224 285.33 63.48 285.634 63.656C285.946 63.832 286.274 63.92 286.618 63.92C286.97 63.92 287.298 63.832 287.602 63.656C287.914 63.472 288.162 63.208 288.346 62.864C288.538 62.52 288.634 62.12 288.634 61.664ZM297.439 61.532C297.439 61.78 297.423 62.004 297.391 62.204H292.339C292.379 62.732 292.575 63.156 292.927 63.476C293.279 63.796 293.711 63.956 294.223 63.956C294.959 63.956 295.479 63.648 295.783 63.032H297.259C297.059 63.64 296.695 64.14 296.167 64.532C295.647 64.916 294.999 65.108 294.223 65.108C293.591 65.108 293.023 64.968 292.519 64.688C292.023 64.4 291.631 64 291.343 63.488C291.063 62.968 290.923 62.368 290.923 61.688C290.923 61.008 291.059 60.412 291.331 59.9C291.611 59.38 291.999 58.98 292.495 58.7C292.999 58.42 293.575 58.28 294.223 58.28C294.847 58.28 295.403 58.416 295.891 58.688C296.379 58.96 296.759 59.344 297.031 59.84C297.303 60.328 297.439 60.892 297.439 61.532ZM296.011 61.1C296.003 60.596 295.823 60.192 295.471 59.888C295.119 59.584 294.683 59.432 294.163 59.432C293.691 59.432 293.287 59.584 292.951 59.888C292.615 60.184 292.415 60.588 292.351 61.1H296.011ZM300.153 59.348C300.353 59.012 300.617 58.752 300.945 58.568C301.281 58.376 301.677 58.28 302.133 58.28V59.696H301.785C301.249 59.696 300.841 59.832 300.561 60.104C300.289 60.376 300.153 60.848 300.153 61.52V65H298.785V58.388H300.153V59.348ZM306.162 59.504H304.938V65H303.558V59.504H302.778V58.388H303.558V57.92C303.558 57.16 303.758 56.608 304.158 56.264C304.566 55.912 305.202 55.736 306.066 55.736V56.876C305.65 56.876 305.358 56.956 305.19 57.116C305.022 57.268 304.938 57.536 304.938 57.92V58.388H306.162V59.504ZM310.243 65.108C309.619 65.108 309.055 64.968 308.551 64.688C308.047 64.4 307.651 64 307.363 63.488C307.075 62.968 306.931 62.368 306.931 61.688C306.931 61.016 307.079 60.42 307.375 59.9C307.671 59.38 308.075 58.98 308.587 58.7C309.099 58.42 309.671 58.28 310.303 58.28C310.935 58.28 311.507 58.42 312.019 58.7C312.531 58.98 312.935 59.38 313.231 59.9C313.527 60.42 313.675 61.016 313.675 61.688C313.675 62.36 313.523 62.956 313.219 63.476C312.915 63.996 312.499 64.4 311.971 64.688C311.451 64.968 310.875 65.108 310.243 65.108ZM310.243 63.92C310.595 63.92 310.923 63.836 311.227 63.668C311.539 63.5 311.791 63.248 311.983 62.912C312.175 62.576 312.271 62.168 312.271 61.688C312.271 61.208 312.179 60.804 311.995 60.476C311.811 60.14 311.567 59.888 311.263 59.72C310.959 59.552 310.631 59.468 310.279 59.468C309.927 59.468 309.599 59.552 309.295 59.72C308.999 59.888 308.763 60.14 308.587 60.476C308.411 60.804 308.323 61.208 308.323 61.688C308.323 62.4 308.503 62.952 308.863 63.344C309.231 63.728 309.691 63.92 310.243 63.92ZM316.395 59.348C316.595 59.012 316.859 58.752 317.187 58.568C317.523 58.376 317.919 58.28 318.375 58.28V59.696H318.027C317.491 59.696 317.083 59.832 316.803 60.104C316.531 60.376 316.395 60.848 316.395 61.52V65H315.027V58.388H316.395V59.348ZM327.636 58.28C328.156 58.28 328.62 58.388 329.028 58.604C329.444 58.82 329.768 59.14 330 59.564C330.24 59.988 330.36 60.5 330.36 61.1V65H329.004V61.304C329.004 60.712 328.856 60.26 328.56 59.948C328.264 59.628 327.86 59.468 327.348 59.468C326.836 59.468 326.428 59.628 326.124 59.948C325.828 60.26 325.68 60.712 325.68 61.304V65H324.324V61.304C324.324 60.712 324.176 60.26 323.88 59.948C323.584 59.628 323.18 59.468 322.668 59.468C322.156 59.468 321.748 59.628 321.444 59.948C321.148 60.26 321 60.712 321 61.304V65H319.632V58.388H321V59.144C321.224 58.872 321.508 58.66 321.852 58.508C322.196 58.356 322.564 58.28 322.956 58.28C323.484 58.28 323.956 58.392 324.372 58.616C324.788 58.84 325.108 59.164 325.332 59.588C325.532 59.188 325.844 58.872 326.268 58.64C326.692 58.4 327.148 58.28 327.636 58.28ZM331.645 61.664C331.645 61 331.781 60.412 332.053 59.9C332.333 59.388 332.709 58.992 333.181 58.712C333.661 58.424 334.189 58.28 334.765 58.28C335.285 58.28 335.737 58.384 336.121 58.592C336.513 58.792 336.825 59.044 337.057 59.348V58.388H338.437V65H337.057V64.016C336.825 64.328 336.509 64.588 336.109 64.796C335.709 65.004 335.253 65.108 334.741 65.108C334.173 65.108 333.653 64.964 333.181 64.676C332.709 64.38 332.333 63.972 332.053 63.452C331.781 62.924 331.645 62.328 331.645 61.664ZM337.057 61.688C337.057 61.232 336.961 60.836 336.769 60.5C336.585 60.164 336.341 59.908 336.037 59.732C335.733 59.556 335.405 59.468 335.053 59.468C334.701 59.468 334.373 59.556 334.069 59.732C333.765 59.9 333.517 60.152 333.325 60.488C333.141 60.816 333.049 61.208 333.049 61.664C333.049 62.12 333.141 62.52 333.325 62.864C333.517 63.208 333.765 63.472 334.069 63.656C334.381 63.832 334.709 63.92 335.053 63.92C335.405 63.92 335.733 63.832 336.037 63.656C336.341 63.48 336.585 63.224 336.769 62.888C336.961 62.544 337.057 62.144 337.057 61.688ZM343.57 58.28C344.09 58.28 344.554 58.388 344.962 58.604C345.378 58.82 345.702 59.14 345.934 59.564C346.166 59.988 346.282 60.5 346.282 61.1V65H344.926V61.304C344.926 60.712 344.778 60.26 344.482 59.948C344.186 59.628 343.782 59.468 343.27 59.468C342.758 59.468 342.35 59.628 342.046 59.948C341.75 60.26 341.602 60.712 341.602 61.304V65H340.234V58.388H341.602V59.144C341.826 58.872 342.11 58.66 342.454 58.508C342.806 58.356 343.178 58.28 343.57 58.28ZM347.571 61.688C347.571 61.008 347.707 60.412 347.979 59.9C348.259 59.38 348.643 58.98 349.131 58.7C349.619 58.42 350.179 58.28 350.811 58.28C351.611 58.28 352.271 58.472 352.791 58.856C353.319 59.232 353.675 59.772 353.859 60.476H352.383C352.263 60.148 352.071 59.892 351.807 59.708C351.543 59.524 351.211 59.432 350.811 59.432C350.251 59.432 349.803 59.632 349.467 60.032C349.139 60.424 348.975 60.976 348.975 61.688C348.975 62.4 349.139 62.956 349.467 63.356C349.803 63.756 350.251 63.956 350.811 63.956C351.603 63.956 352.127 63.608 352.383 62.912H353.859C353.667 63.584 353.307 64.12 352.779 64.52C352.251 64.912 351.595 65.108 350.811 65.108C350.179 65.108 349.619 64.968 349.131 64.688C348.643 64.4 348.259 64 347.979 63.488C347.707 62.968 347.571 62.368 347.571 61.688ZM361.282 61.532C361.282 61.78 361.266 62.004 361.234 62.204H356.182C356.222 62.732 356.418 63.156 356.77 63.476C357.122 63.796 357.554 63.956 358.066 63.956C358.802 63.956 359.322 63.648 359.626 63.032H361.102C360.902 63.64 360.538 64.14 360.01 64.532C359.49 64.916 358.842 65.108 358.066 65.108C357.434 65.108 356.866 64.968 356.362 64.688C355.866 64.4 355.474 64 355.186 63.488C354.906 62.968 354.766 62.368 354.766 61.688C354.766 61.008 354.902 60.412 355.174 59.9C355.454 59.38 355.842 58.98 356.338 58.7C356.842 58.42 357.418 58.28 358.066 58.28C358.69 58.28 359.246 58.416 359.734 58.688C360.222 58.96 360.602 59.344 360.874 59.84C361.146 60.328 361.282 60.892 361.282 61.532ZM359.854 61.1C359.846 60.596 359.666 60.192 359.314 59.888C358.962 59.584 358.526 59.432 358.006 59.432C357.534 59.432 357.13 59.584 356.794 59.888C356.458 60.184 356.258 60.588 356.194 61.1H359.854ZM364.129 63.356L362.677 66.668H361.789L362.641 63.356H364.129ZM374.429 58.388V65H373.061V64.22C372.845 64.492 372.561 64.708 372.209 64.868C371.865 65.02 371.497 65.096 371.105 65.096C370.585 65.096 370.117 64.988 369.701 64.772C369.293 64.556 368.969 64.236 368.729 63.812C368.497 63.388 368.381 62.876 368.381 62.276V58.388H369.737V62.072C369.737 62.664 369.885 63.12 370.181 63.44C370.477 63.752 370.881 63.908 371.393 63.908C371.905 63.908 372.309 63.752 372.605 63.44C372.909 63.12 373.061 62.664 373.061 62.072V58.388H374.429ZM378.634 65.108C378.114 65.108 377.646 65.016 377.23 64.832C376.822 64.64 376.498 64.384 376.258 64.064C376.018 63.736 375.89 63.372 375.874 62.972H377.29C377.314 63.252 377.446 63.488 377.686 63.68C377.934 63.864 378.242 63.956 378.61 63.956C378.994 63.956 379.29 63.884 379.498 63.74C379.714 63.588 379.822 63.396 379.822 63.164C379.822 62.916 379.702 62.732 379.462 62.612C379.23 62.492 378.858 62.36 378.346 62.216C377.85 62.08 377.446 61.948 377.134 61.82C376.822 61.692 376.55 61.496 376.318 61.232C376.094 60.968 375.982 60.62 375.982 60.188C375.982 59.836 376.086 59.516 376.294 59.228C376.502 58.932 376.798 58.7 377.182 58.532C377.574 58.364 378.022 58.28 378.526 58.28C379.278 58.28 379.882 58.472 380.338 58.856C380.802 59.232 381.05 59.748 381.082 60.404H379.714C379.69 60.108 379.57 59.872 379.354 59.696C379.138 59.52 378.846 59.432 378.478 59.432C378.118 59.432 377.842 59.5 377.65 59.636C377.458 59.772 377.362 59.952 377.362 60.176C377.362 60.352 377.426 60.5 377.554 60.62C377.682 60.74 377.838 60.836 378.022 60.908C378.206 60.972 378.478 61.056 378.838 61.16C379.318 61.288 379.71 61.42 380.014 61.556C380.326 61.684 380.594 61.876 380.818 62.132C381.042 62.388 381.158 62.728 381.166 63.152C381.166 63.528 381.062 63.864 380.854 64.16C380.646 64.456 380.35 64.688 379.966 64.856C379.59 65.024 379.146 65.108 378.634 65.108ZM388.704 61.532C388.704 61.78 388.688 62.004 388.656 62.204H383.604C383.644 62.732 383.84 63.156 384.192 63.476C384.544 63.796 384.976 63.956 385.488 63.956C386.224 63.956 386.744 63.648 387.048 63.032H388.524C388.324 63.64 387.96 64.14 387.432 64.532C386.912 64.916 386.264 65.108 385.488 65.108C384.856 65.108 384.288 64.968 383.784 64.688C383.288 64.4 382.896 64 382.608 63.488C382.328 62.968 382.188 62.368 382.188 61.688C382.188 61.008 382.324 60.412 382.596 59.9C382.876 59.38 383.264 58.98 383.76 58.7C384.264 58.42 384.84 58.28 385.488 58.28C386.112 58.28 386.668 58.416 387.156 58.688C387.644 58.96 388.024 59.344 388.296 59.84C388.568 60.328 388.704 60.892 388.704 61.532ZM387.276 61.1C387.268 60.596 387.088 60.192 386.736 59.888C386.384 59.584 385.948 59.432 385.428 59.432C384.956 59.432 384.552 59.584 384.216 59.888C383.88 60.184 383.68 60.588 383.616 61.1H387.276ZM394.764 59.504V63.164C394.764 63.412 394.82 63.592 394.932 63.704C395.052 63.808 395.252 63.86 395.532 63.86H396.372V65H395.292C394.676 65 394.204 64.856 393.876 64.568C393.548 64.28 393.384 63.812 393.384 63.164V59.504H392.604V58.388H393.384V56.744H394.764V58.388H396.372V59.504H394.764ZM401.052 58.28C401.556 58.28 402.004 58.388 402.396 58.604C402.796 58.82 403.108 59.14 403.332 59.564C403.564 59.988 403.68 60.5 403.68 61.1V65H402.324V61.304C402.324 60.712 402.176 60.26 401.88 59.948C401.584 59.628 401.18 59.468 400.668 59.468C400.156 59.468 399.748 59.628 399.444 59.948C399.148 60.26 399 60.712 399 61.304V65H397.632V56.12H399V59.156C399.232 58.876 399.524 58.66 399.876 58.508C400.236 58.356 400.628 58.28 401.052 58.28ZM411.485 61.532C411.485 61.78 411.469 62.004 411.437 62.204H406.385C406.425 62.732 406.621 63.156 406.973 63.476C407.325 63.796 407.757 63.956 408.269 63.956C409.005 63.956 409.525 63.648 409.829 63.032H411.305C411.105 63.64 410.741 64.14 410.213 64.532C409.693 64.916 409.045 65.108 408.269 65.108C407.637 65.108 407.069 64.968 406.565 64.688C406.069 64.4 405.677 64 405.389 63.488C405.109 62.968 404.969 62.368 404.969 61.688C404.969 61.008 405.105 60.412 405.377 59.9C405.657 59.38 406.045 58.98 406.541 58.7C407.045 58.42 407.621 58.28 408.269 58.28C408.893 58.28 409.449 58.416 409.937 58.688C410.425 58.96 410.805 59.344 411.077 59.84C411.349 60.328 411.485 60.892 411.485 61.532ZM410.057 61.1C410.049 60.596 409.869 60.192 409.517 59.888C409.165 59.584 408.729 59.432 408.209 59.432C407.737 59.432 407.333 59.584 406.997 59.888C406.661 60.184 406.461 60.588 406.397 61.1H410.057ZM417.317 56.12V65H415.949V56.12H417.317ZM419.809 57.512C419.561 57.512 419.353 57.428 419.185 57.26C419.017 57.092 418.933 56.884 418.933 56.636C418.933 56.388 419.017 56.18 419.185 56.012C419.353 55.844 419.561 55.76 419.809 55.76C420.049 55.76 420.253 55.844 420.421 56.012C420.589 56.18 420.673 56.388 420.673 56.636C420.673 56.884 420.589 57.092 420.421 57.26C420.253 57.428 420.049 57.512 419.809 57.512ZM420.481 58.388V65H419.113V58.388H420.481ZM425.613 58.28C426.133 58.28 426.597 58.388 427.005 58.604C427.421 58.82 427.745 59.14 427.977 59.564C428.209 59.988 428.325 60.5 428.325 61.1V65H426.969V61.304C426.969 60.712 426.821 60.26 426.525 59.948C426.229 59.628 425.825 59.468 425.313 59.468C424.801 59.468 424.393 59.628 424.089 59.948C423.793 60.26 423.645 60.712 423.645 61.304V65H422.277V58.388H423.645V59.144C423.869 58.872 424.153 58.66 424.497 58.508C424.849 58.356 425.221 58.28 425.613 58.28ZM432.686 61.7L435.734 65H433.886L431.438 62.156V65H430.07V56.12H431.438V61.28L433.838 58.388H435.734L432.686 61.7ZM440.528 57.512C440.28 57.512 440.072 57.428 439.904 57.26C439.736 57.092 439.652 56.884 439.652 56.636C439.652 56.388 439.736 56.18 439.904 56.012C440.072 55.844 440.28 55.76 440.528 55.76C440.768 55.76 440.972 55.844 441.14 56.012C441.308 56.18 441.392 56.388 441.392 56.636C441.392 56.884 441.308 57.092 441.14 57.26C440.972 57.428 440.768 57.512 440.528 57.512ZM441.2 58.388V65H439.832V58.388H441.2ZM446.332 58.28C446.852 58.28 447.316 58.388 447.724 58.604C448.14 58.82 448.464 59.14 448.696 59.564C448.928 59.988 449.044 60.5 449.044 61.1V65H447.688V61.304C447.688 60.712 447.54 60.26 447.244 59.948C446.948 59.628 446.544 59.468 446.032 59.468C445.52 59.468 445.112 59.628 444.808 59.948C444.512 60.26 444.364 60.712 444.364 61.304V65H442.996V58.388H444.364V59.144C444.588 58.872 444.872 58.66 445.216 58.508C445.568 58.356 445.94 58.28 446.332 58.28ZM195.598 77.504V81.164C195.598 81.412 195.654 81.592 195.766 81.704C195.886 81.808 196.086 81.86 196.366 81.86H197.206V83H196.126C195.51 83 195.038 82.856 194.71 82.568C194.382 82.28 194.218 81.812 194.218 81.164V77.504H193.438V76.388H194.218V74.744H195.598V76.388H197.206V77.504H195.598ZM201.886 76.28C202.39 76.28 202.838 76.388 203.23 76.604C203.63 76.82 203.942 77.14 204.166 77.564C204.398 77.988 204.514 78.5 204.514 79.1V83H203.158V79.304C203.158 78.712 203.01 78.26 202.714 77.948C202.418 77.628 202.014 77.468 201.502 77.468C200.99 77.468 200.582 77.628 200.278 77.948C199.982 78.26 199.834 78.712 199.834 79.304V83H198.466V74.12H199.834V77.156C200.066 76.876 200.358 76.66 200.71 76.508C201.07 76.356 201.462 76.28 201.886 76.28ZM212.319 79.532C212.319 79.78 212.303 80.004 212.271 80.204H207.219C207.259 80.732 207.455 81.156 207.807 81.476C208.159 81.796 208.591 81.956 209.103 81.956C209.839 81.956 210.359 81.648 210.663 81.032H212.139C211.939 81.64 211.575 82.14 211.047 82.532C210.527 82.916 209.879 83.108 209.103 83.108C208.471 83.108 207.903 82.968 207.399 82.688C206.903 82.4 206.511 82 206.223 81.488C205.943 80.968 205.803 80.368 205.803 79.688C205.803 79.008 205.939 78.412 206.211 77.9C206.491 77.38 206.879 76.98 207.375 76.7C207.879 76.42 208.455 76.28 209.103 76.28C209.727 76.28 210.283 76.416 210.771 76.688C211.259 76.96 211.639 77.344 211.911 77.84C212.183 78.328 212.319 78.892 212.319 79.532ZM210.891 79.1C210.883 78.596 210.703 78.192 210.351 77.888C209.999 77.584 209.563 77.432 209.043 77.432C208.571 77.432 208.167 77.584 207.831 77.888C207.495 78.184 207.295 78.588 207.231 79.1H210.891ZM216.327 79.664C216.327 79 216.463 78.412 216.735 77.9C217.015 77.388 217.391 76.992 217.863 76.712C218.343 76.424 218.875 76.28 219.459 76.28C219.891 76.28 220.315 76.376 220.731 76.568C221.155 76.752 221.491 77 221.739 77.312V74.12H223.119V83H221.739V82.004C221.515 82.324 221.203 82.588 220.803 82.796C220.411 83.004 219.959 83.108 219.447 83.108C218.871 83.108 218.343 82.964 217.863 82.676C217.391 82.38 217.015 81.972 216.735 81.452C216.463 80.924 216.327 80.328 216.327 79.664ZM221.739 79.688C221.739 79.232 221.643 78.836 221.451 78.5C221.267 78.164 221.023 77.908 220.719 77.732C220.415 77.556 220.087 77.468 219.735 77.468C219.383 77.468 219.055 77.556 218.751 77.732C218.447 77.9 218.199 78.152 218.007 78.488C217.823 78.816 217.731 79.208 217.731 79.664C217.731 80.12 217.823 80.52 218.007 80.864C218.199 81.208 218.447 81.472 218.751 81.656C219.063 81.832 219.391 81.92 219.735 81.92C220.087 81.92 220.415 81.832 220.719 81.656C221.023 81.48 221.267 81.224 221.451 80.888C221.643 80.544 221.739 80.144 221.739 79.688ZM230.976 79.532C230.976 79.78 230.96 80.004 230.928 80.204H225.876C225.916 80.732 226.112 81.156 226.464 81.476C226.816 81.796 227.248 81.956 227.76 81.956C228.496 81.956 229.016 81.648 229.32 81.032H230.796C230.596 81.64 230.232 82.14 229.704 82.532C229.184 82.916 228.536 83.108 227.76 83.108C227.128 83.108 226.56 82.968 226.056 82.688C225.56 82.4 225.168 82 224.88 81.488C224.6 80.968 224.46 80.368 224.46 79.688C224.46 79.008 224.596 78.412 224.868 77.9C225.148 77.38 225.536 76.98 226.032 76.7C226.536 76.42 227.112 76.28 227.76 76.28C228.384 76.28 228.94 76.416 229.428 76.688C229.916 76.96 230.296 77.344 230.568 77.84C230.84 78.328 230.976 78.892 230.976 79.532ZM229.548 79.1C229.54 78.596 229.36 78.192 229.008 77.888C228.656 77.584 228.22 77.432 227.7 77.432C227.228 77.432 226.824 77.584 226.488 77.888C226.152 78.184 225.952 78.588 225.888 79.1H229.548ZM234.722 83.108C234.202 83.108 233.734 83.016 233.318 82.832C232.91 82.64 232.586 82.384 232.346 82.064C232.106 81.736 231.978 81.372 231.962 80.972H233.378C233.402 81.252 233.534 81.488 233.774 81.68C234.022 81.864 234.33 81.956 234.698 81.956C235.082 81.956 235.378 81.884 235.586 81.74C235.802 81.588 235.91 81.396 235.91 81.164C235.91 80.916 235.79 80.732 235.55 80.612C235.318 80.492 234.946 80.36 234.434 80.216C233.938 80.08 233.534 79.948 233.222 79.82C232.91 79.692 232.638 79.496 232.406 79.232C232.182 78.968 232.07 78.62 232.07 78.188C232.07 77.836 232.174 77.516 232.382 77.228C232.59 76.932 232.886 76.7 233.27 76.532C233.662 76.364 234.11 76.28 234.614 76.28C235.366 76.28 235.97 76.472 236.426 76.856C236.89 77.232 237.138 77.748 237.17 78.404H235.802C235.778 78.108 235.658 77.872 235.442 77.696C235.226 77.52 234.934 77.432 234.566 77.432C234.206 77.432 233.93 77.5 233.738 77.636C233.546 77.772 233.45 77.952 233.45 78.176C233.45 78.352 233.514 78.5 233.642 78.62C233.77 78.74 233.926 78.836 234.11 78.908C234.294 78.972 234.566 79.056 234.926 79.16C235.406 79.288 235.798 79.42 236.102 79.556C236.414 79.684 236.682 79.876 236.906 80.132C237.13 80.388 237.246 80.728 237.254 81.152C237.254 81.528 237.15 81.864 236.942 82.16C236.734 82.456 236.438 82.688 236.054 82.856C235.678 83.024 235.234 83.108 234.722 83.108ZM238.276 79.688C238.276 79.008 238.412 78.412 238.684 77.9C238.964 77.38 239.348 76.98 239.836 76.7C240.324 76.42 240.884 76.28 241.516 76.28C242.316 76.28 242.976 76.472 243.496 76.856C244.024 77.232 244.38 77.772 244.564 78.476H243.088C242.968 78.148 242.776 77.892 242.512 77.708C242.248 77.524 241.916 77.432 241.516 77.432C240.956 77.432 240.508 77.632 240.172 78.032C239.844 78.424 239.68 78.976 239.68 79.688C239.68 80.4 239.844 80.956 240.172 81.356C240.508 81.756 240.956 81.956 241.516 81.956C242.308 81.956 242.832 81.608 243.088 80.912H244.564C244.372 81.584 244.012 82.12 243.484 82.52C242.956 82.912 242.3 83.108 241.516 83.108C240.884 83.108 240.324 82.968 239.836 82.688C239.348 82.4 238.964 82 238.684 81.488C238.412 80.968 238.276 80.368 238.276 79.688ZM247.295 77.348C247.495 77.012 247.759 76.752 248.087 76.568C248.423 76.376 248.819 76.28 249.275 76.28V77.696H248.927C248.391 77.696 247.983 77.832 247.703 78.104C247.431 78.376 247.295 78.848 247.295 79.52V83H245.927V76.388H247.295V77.348ZM251.229 75.512C250.981 75.512 250.773 75.428 250.605 75.26C250.437 75.092 250.353 74.884 250.353 74.636C250.353 74.388 250.437 74.18 250.605 74.012C250.773 73.844 250.981 73.76 251.229 73.76C251.469 73.76 251.673 73.844 251.841 74.012C252.009 74.18 252.093 74.388 252.093 74.636C252.093 74.884 252.009 75.092 251.841 75.26C251.673 75.428 251.469 75.512 251.229 75.512ZM251.901 76.388V83H250.533V76.388H251.901ZM255.065 77.36C255.297 77.056 255.613 76.8 256.013 76.592C256.413 76.384 256.865 76.28 257.369 76.28C257.945 76.28 258.469 76.424 258.941 76.712C259.421 76.992 259.797 77.388 260.069 77.9C260.341 78.412 260.477 79 260.477 79.664C260.477 80.328 260.341 80.924 260.069 81.452C259.797 81.972 259.421 82.38 258.941 82.676C258.469 82.964 257.945 83.108 257.369 83.108C256.865 83.108 256.417 83.008 256.025 82.808C255.633 82.6 255.313 82.344 255.065 82.04V86.144H253.697V76.388H255.065V77.36ZM259.085 79.664C259.085 79.208 258.989 78.816 258.797 78.488C258.613 78.152 258.365 77.9 258.053 77.732C257.749 77.556 257.421 77.468 257.069 77.468C256.725 77.468 256.397 77.556 256.085 77.732C255.781 77.908 255.533 78.164 255.341 78.5C255.157 78.836 255.065 79.232 255.065 79.688C255.065 80.144 255.157 80.544 255.341 80.888C255.533 81.224 255.781 81.48 256.085 81.656C256.397 81.832 256.725 81.92 257.069 81.92C257.421 81.92 257.749 81.832 258.053 81.656C258.365 81.472 258.613 81.208 258.797 80.864C258.989 80.52 259.085 80.12 259.085 79.664ZM263.426 77.504V81.164C263.426 81.412 263.482 81.592 263.594 81.704C263.714 81.808 263.914 81.86 264.194 81.86H265.034V83H263.954C263.338 83 262.866 82.856 262.538 82.568C262.21 82.28 262.046 81.812 262.046 81.164V77.504H261.266V76.388H262.046V74.744H263.426V76.388H265.034V77.504H263.426ZM266.991 75.512C266.743 75.512 266.535 75.428 266.367 75.26C266.199 75.092 266.115 74.884 266.115 74.636C266.115 74.388 266.199 74.18 266.367 74.012C266.535 73.844 266.743 73.76 266.991 73.76C267.231 73.76 267.435 73.844 267.603 74.012C267.771 74.18 267.855 74.388 267.855 74.636C267.855 74.884 267.771 75.092 267.603 75.26C267.435 75.428 267.231 75.512 266.991 75.512ZM267.663 76.388V83H266.295V76.388H267.663ZM272.327 83.108C271.703 83.108 271.139 82.968 270.635 82.688C270.131 82.4 269.735 82 269.447 81.488C269.159 80.968 269.015 80.368 269.015 79.688C269.015 79.016 269.163 78.42 269.459 77.9C269.755 77.38 270.159 76.98 270.671 76.7C271.183 76.42 271.755 76.28 272.387 76.28C273.019 76.28 273.591 76.42 274.103 76.7C274.615 76.98 275.019 77.38 275.315 77.9C275.611 78.42 275.759 79.016 275.759 79.688C275.759 80.36 275.607 80.956 275.303 81.476C274.999 81.996 274.583 82.4 274.055 82.688C273.535 82.968 272.959 83.108 272.327 83.108ZM272.327 81.92C272.679 81.92 273.007 81.836 273.311 81.668C273.623 81.5 273.875 81.248 274.067 80.912C274.259 80.576 274.355 80.168 274.355 79.688C274.355 79.208 274.263 78.804 274.079 78.476C273.895 78.14 273.651 77.888 273.347 77.72C273.043 77.552 272.715 77.468 272.363 77.468C272.011 77.468 271.683 77.552 271.379 77.72C271.083 77.888 270.847 78.14 270.671 78.476C270.495 78.804 270.407 79.208 270.407 79.688C270.407 80.4 270.587 80.952 270.947 81.344C271.315 81.728 271.775 81.92 272.327 81.92ZM280.447 76.28C280.967 76.28 281.431 76.388 281.839 76.604C282.255 76.82 282.579 77.14 282.811 77.564C283.043 77.988 283.159 78.5 283.159 79.1V83H281.803V79.304C281.803 78.712 281.655 78.26 281.359 77.948C281.063 77.628 280.659 77.468 280.147 77.468C279.635 77.468 279.227 77.628 278.923 77.948C278.627 78.26 278.479 78.712 278.479 79.304V83H277.111V76.388H278.479V77.144C278.703 76.872 278.987 76.66 279.331 76.508C279.683 76.356 280.055 76.28 280.447 76.28ZM285.456 83.084C285.208 83.084 285 83 284.832 82.832C284.664 82.664 284.58 82.456 284.58 82.208C284.58 81.96 284.664 81.752 284.832 81.584C285 81.416 285.208 81.332 285.456 81.332C285.696 81.332 285.9 81.416 286.068 81.584C286.236 81.752 286.32 81.96 286.32 82.208C286.32 82.456 286.236 82.664 286.068 82.832C285.9 83 285.696 83.084 285.456 83.084Z" fill="white"/>
</svg>
