<svg width="480" height="360" viewBox="0 0 480 360" fill="none" xmlns="http://www.w3.org/2000/svg">
<path d="M0 0H130C141.046 0 150 8.95431 150 20V340C150 351.046 141.046 360 130 360H0V0Z" fill="#191919"/>
<path d="M53.152 17.288C53.7493 17.3947 54.256 17.7093 54.672 18.232C55.088 18.7547 55.296 19.3467 55.296 20.008C55.296 20.5733 55.1467 21.0853 54.848 21.544C54.56 21.992 54.1387 22.3493 53.584 22.616C53.0293 22.872 52.384 23 51.648 23H47.2V11.88H51.44C52.1973 11.88 52.848 12.008 53.392 12.264C53.936 12.52 54.3467 12.8667 54.624 13.304C54.9013 13.7307 55.04 14.2107 55.04 14.744C55.04 15.384 54.8693 15.9173 54.528 16.344C54.1867 16.7707 53.728 17.0853 53.152 17.288ZM49.024 16.552H51.28C51.8773 16.552 52.3413 16.4187 52.672 16.152C53.0133 15.8747 53.184 15.48 53.184 14.968C53.184 14.4667 53.0133 14.0773 52.672 13.8C52.3413 13.512 51.8773 13.368 51.28 13.368H49.024V16.552ZM51.488 21.512C52.1067 21.512 52.592 21.3627 52.944 21.064C53.296 20.7653 53.472 20.3493 53.472 19.816C53.472 19.272 53.2853 18.84 52.912 18.52C52.5387 18.2 52.0427 18.04 51.424 18.04H49.024V21.512H51.488ZM56.6701 18.552C56.6701 17.6667 56.8515 16.8827 57.2141 16.2C57.5875 15.5173 58.0888 14.9893 58.7181 14.616C59.3581 14.232 60.0621 14.04 60.8301 14.04C61.5235 14.04 62.1261 14.1787 62.6381 14.456C63.1608 14.7227 63.5768 15.0587 63.8861 15.464V14.184H65.7261V23H63.8861V21.688C63.5768 22.104 63.1555 22.4507 62.6221 22.728C62.0888 23.0053 61.4808 23.144 60.7981 23.144C60.0408 23.144 59.3475 22.952 58.7181 22.568C58.0888 22.1733 57.5875 21.6293 57.2141 20.936C56.8515 20.232 56.6701 19.4373 56.6701 18.552ZM63.8861 18.584C63.8861 17.976 63.7581 17.448 63.5021 17C63.2568 16.552 62.9315 16.2107 62.5261 15.976C62.1208 15.7413 61.6835 15.624 61.2141 15.624C60.7448 15.624 60.3075 15.7413 59.9021 15.976C59.4968 16.2 59.1661 16.536 58.9101 16.984C58.6648 17.4213 58.5421 17.944 58.5421 18.552C58.5421 19.16 58.6648 19.6933 58.9101 20.152C59.1661 20.6107 59.4968 20.9627 59.9021 21.208C60.3181 21.4427 60.7555 21.56 61.2141 21.56C61.6835 21.56 62.1208 21.4427 62.5261 21.208C62.9315 20.9733 63.2568 20.632 63.5021 20.184C63.7581 19.7253 63.8861 19.192 63.8861 18.584ZM67.5139 18.584C67.5139 17.6773 67.6952 16.8827 68.0579 16.2C68.4312 15.5067 68.9432 14.9733 69.5939 14.6C70.2445 14.2267 70.9912 14.04 71.8339 14.04C72.9005 14.04 73.7805 14.296 74.4739 14.808C75.1779 15.3093 75.6525 16.0293 75.8979 16.968H73.9299C73.7699 16.5307 73.5139 16.1893 73.1619 15.944C72.8099 15.6987 72.3672 15.576 71.8339 15.576C71.0872 15.576 70.4899 15.8427 70.0419 16.376C69.6045 16.8987 69.3859 17.6347 69.3859 18.584C69.3859 19.5333 69.6045 20.2747 70.0419 20.808C70.4899 21.3413 71.0872 21.608 71.8339 21.608C72.8899 21.608 73.5885 21.144 73.9299 20.216H75.8979C75.6419 21.112 75.1619 21.8267 74.4579 22.36C73.7539 22.8827 72.8792 23.144 71.8339 23.144C70.9912 23.144 70.2445 22.9573 69.5939 22.584C68.9432 22.2 68.4312 21.6667 68.0579 20.984C67.6952 20.2907 67.5139 19.4907 67.5139 18.584ZM81.2036 18.6L85.2676 23H82.8036L79.5396 19.208V23H77.7156V11.16H79.5396V18.04L82.7396 14.184H85.2676L81.2036 18.6ZM94.559 14.184V23H92.735V21.96C92.447 22.3227 92.0683 22.6107 91.599 22.824C91.1403 23.0267 90.6497 23.128 90.127 23.128C89.4337 23.128 88.8097 22.984 88.255 22.696C87.711 22.408 87.279 21.9813 86.959 21.416C86.6497 20.8507 86.495 20.168 86.495 19.368V14.184H88.303V19.096C88.303 19.8853 88.5003 20.4933 88.895 20.92C89.2897 21.336 89.8283 21.544 90.511 21.544C91.1937 21.544 91.7323 21.336 92.127 20.92C92.5323 20.4933 92.735 19.8853 92.735 19.096V14.184H94.559ZM98.7896 15.48C99.099 15.0747 99.5203 14.7333 100.054 14.456C100.587 14.1787 101.19 14.04 101.862 14.04C102.63 14.04 103.328 14.232 103.958 14.616C104.598 14.9893 105.099 15.5173 105.462 16.2C105.824 16.8827 106.006 17.6667 106.006 18.552C106.006 19.4373 105.824 20.232 105.462 20.936C105.099 21.6293 104.598 22.1733 103.958 22.568C103.328 22.952 102.63 23.144 101.862 23.144C101.19 23.144 100.592 23.0107 100.07 22.744C99.547 22.4667 99.1203 22.1253 98.7896 21.72V27.192H96.9656V14.184H98.7896V15.48ZM104.15 18.552C104.15 17.944 104.022 17.4213 103.766 16.984C103.52 16.536 103.19 16.2 102.774 15.976C102.368 15.7413 101.931 15.624 101.462 15.624C101.003 15.624 100.566 15.7413 100.15 15.976C99.7443 16.2107 99.4136 16.552 99.1576 17C98.9123 17.448 98.7896 17.976 98.7896 18.584C98.7896 19.192 98.9123 19.7253 99.1576 20.184C99.4136 20.632 99.7443 20.9733 100.15 21.208C100.566 21.4427 101.003 21.56 101.462 21.56C101.931 21.56 102.368 21.4427 102.774 21.208C103.19 20.9627 103.52 20.6107 103.766 20.152C104.022 19.6933 104.15 19.16 104.15 18.552ZM57.872 30.04C58.5653 30.04 59.184 30.184 59.728 30.472C60.2827 30.76 60.7147 31.1867 61.024 31.752C61.344 32.3173 61.504 33 61.504 33.8V39H59.696V34.072C59.696 33.2827 59.4987 32.68 59.104 32.264C58.7093 31.8373 58.1707 31.624 57.488 31.624C56.8053 31.624 56.2613 31.8373 55.856 32.264C55.4613 32.68 55.264 33.2827 55.264 34.072V39H53.456V34.072C53.456 33.2827 53.2587 32.68 52.864 32.264C52.4693 31.8373 51.9307 31.624 51.248 31.624C50.5653 31.624 50.0213 31.8373 49.616 32.264C49.2213 32.68 49.024 33.2827 49.024 34.072V39H47.2V30.184H49.024V31.192C49.3227 30.8293 49.7013 30.5467 50.16 30.344C50.6187 30.1413 51.1093 30.04 51.632 30.04C52.336 30.04 52.9653 30.1893 53.52 30.488C54.0747 30.7867 54.5013 31.2187 54.8 31.784C55.0667 31.2507 55.4827 30.8293 56.048 30.52C56.6133 30.2 57.2213 30.04 57.872 30.04ZM63.217 34.552C63.217 33.6667 63.3983 32.8827 63.761 32.2C64.1343 31.5173 64.6357 30.9893 65.265 30.616C65.905 30.232 66.609 30.04 67.377 30.04C68.0703 30.04 68.673 30.1787 69.185 30.456C69.7077 30.7227 70.1237 31.0587 70.433 31.464V30.184H72.273V39H70.433V37.688C70.1237 38.104 69.7023 38.4507 69.169 38.728C68.6357 39.0053 68.0277 39.144 67.345 39.144C66.5877 39.144 65.8943 38.952 65.265 38.568C64.6357 38.1733 64.1343 37.6293 63.761 36.936C63.3983 36.232 63.217 35.4373 63.217 34.552ZM70.433 34.584C70.433 33.976 70.305 33.448 70.049 33C69.8037 32.552 69.4783 32.2107 69.073 31.976C68.6677 31.7413 68.2303 31.624 67.761 31.624C67.2917 31.624 66.8543 31.7413 66.449 31.976C66.0437 32.2 65.713 32.536 65.457 32.984C65.2117 33.4213 65.089 33.944 65.089 34.552C65.089 35.16 65.2117 35.6933 65.457 36.152C65.713 36.6107 66.0437 36.9627 66.449 37.208C66.865 37.4427 67.3023 37.56 67.761 37.56C68.2303 37.56 68.6677 37.4427 69.073 37.208C69.4783 36.9733 69.8037 36.632 70.049 36.184C70.305 35.7253 70.433 35.192 70.433 34.584ZM79.1168 30.04C79.8101 30.04 80.4288 30.184 80.9728 30.472C81.5274 30.76 81.9594 31.1867 82.2688 31.752C82.5781 32.3173 82.7328 33 82.7328 33.8V39H80.9248V34.072C80.9248 33.2827 80.7274 32.68 80.3328 32.264C79.9381 31.8373 79.3994 31.624 78.7168 31.624C78.0341 31.624 77.4901 31.8373 77.0848 32.264C76.6901 32.68 76.4928 33.2827 76.4928 34.072V39H74.6688V30.184H76.4928V31.192C76.7914 30.8293 77.1701 30.5467 77.6288 30.344C78.0981 30.1413 78.5941 30.04 79.1168 30.04ZM84.4514 34.552C84.4514 33.6667 84.6327 32.8827 84.9954 32.2C85.3687 31.5173 85.87 30.9893 86.4994 30.616C87.1394 30.232 87.8434 30.04 88.6114 30.04C89.3047 30.04 89.9074 30.1787 90.4194 30.456C90.942 30.7227 91.358 31.0587 91.6674 31.464V30.184H93.5074V39H91.6674V37.688C91.358 38.104 90.9367 38.4507 90.4034 38.728C89.87 39.0053 89.262 39.144 88.5794 39.144C87.822 39.144 87.1287 38.952 86.4994 38.568C85.87 38.1733 85.3687 37.6293 84.9954 36.936C84.6327 36.232 84.4514 35.4373 84.4514 34.552ZM91.6674 34.584C91.6674 33.976 91.5394 33.448 91.2834 33C91.038 32.552 90.7127 32.2107 90.3074 31.976C89.902 31.7413 89.4647 31.624 88.9954 31.624C88.526 31.624 88.0887 31.7413 87.6834 31.976C87.278 32.2 86.9474 32.536 86.6914 32.984C86.446 33.4213 86.3234 33.944 86.3234 34.552C86.3234 35.16 86.446 35.6933 86.6914 36.152C86.9474 36.6107 87.278 36.9627 87.6834 37.208C88.0994 37.4427 88.5367 37.56 88.9954 37.56C89.4647 37.56 89.902 37.4427 90.3074 37.208C90.7127 36.9733 91.038 36.632 91.2834 36.184C91.5394 35.7253 91.6674 35.192 91.6674 34.584ZM99.4551 30.04C100.138 30.04 100.74 30.1787 101.263 30.456C101.796 30.7227 102.212 31.0587 102.511 31.464V30.184H104.351V39.144C104.351 39.9547 104.18 40.6747 103.839 41.304C103.498 41.944 103.002 42.4453 102.351 42.808C101.711 43.1707 100.943 43.352 100.047 43.352C98.8525 43.352 97.8605 43.0693 97.0711 42.504C96.2818 41.9493 95.8338 41.192 95.7271 40.232H97.5351C97.6738 40.6907 97.9671 41.0587 98.4151 41.336C98.8738 41.624 99.4178 41.768 100.047 41.768C100.783 41.768 101.375 41.544 101.823 41.096C102.282 40.648 102.511 39.9973 102.511 39.144V37.672C102.202 38.088 101.78 38.44 101.247 38.728C100.724 39.0053 100.127 39.144 99.4551 39.144C98.6871 39.144 97.9831 38.952 97.3431 38.568C96.7138 38.1733 96.2125 37.6293 95.8391 36.936C95.4765 36.232 95.2951 35.4373 95.2951 34.552C95.2951 33.6667 95.4765 32.8827 95.8391 32.2C96.2125 31.5173 96.7138 30.9893 97.3431 30.616C97.9831 30.232 98.6871 30.04 99.4551 30.04ZM102.511 34.584C102.511 33.976 102.383 33.448 102.127 33C101.882 32.552 101.556 32.2107 101.151 31.976C100.746 31.7413 100.308 31.624 99.8391 31.624C99.3698 31.624 98.9325 31.7413 98.5271 31.976C98.1218 32.2 97.7911 32.536 97.5351 32.984C97.2898 33.4213 97.1671 33.944 97.1671 34.552C97.1671 35.16 97.2898 35.6933 97.5351 36.152C97.7911 36.6107 98.1218 36.9627 98.5271 37.208C98.9431 37.4427 99.3805 37.56 99.8391 37.56C100.308 37.56 100.746 37.4427 101.151 37.208C101.556 36.9733 101.882 36.632 102.127 36.184C102.383 35.7253 102.511 35.192 102.511 34.584ZM114.827 34.376C114.827 34.7067 114.806 35.0053 114.763 35.272H108.027C108.08 35.976 108.342 36.5413 108.811 36.968C109.28 37.3947 109.856 37.608 110.539 37.608C111.52 37.608 112.214 37.1973 112.619 36.376H114.587C114.32 37.1867 113.835 37.8533 113.131 38.376C112.438 38.888 111.574 39.144 110.539 39.144C109.696 39.144 108.939 38.9573 108.267 38.584C107.606 38.2 107.083 37.6667 106.699 36.984C106.326 36.2907 106.139 35.4907 106.139 34.584C106.139 33.6773 106.32 32.8827 106.683 32.2C107.056 31.5067 107.574 30.9733 108.235 30.6C108.907 30.2267 109.675 30.04 110.539 30.04C111.371 30.04 112.112 30.2213 112.763 30.584C113.414 30.9467 113.92 31.4587 114.283 32.12C114.646 32.7707 114.827 33.5227 114.827 34.376ZM112.923 33.8C112.912 33.128 112.672 32.5893 112.203 32.184C111.734 31.7787 111.152 31.576 110.459 31.576C109.83 31.576 109.291 31.7787 108.843 32.184C108.395 32.5787 108.128 33.1173 108.043 33.8H112.923ZM118.446 31.464C118.713 31.016 119.065 30.6693 119.502 30.424C119.95 30.168 120.478 30.04 121.086 30.04V31.928H120.622C119.907 31.928 119.363 32.1093 118.99 32.472C118.627 32.8347 118.446 33.464 118.446 34.36V39H116.622V30.184H118.446V31.464Z" fill="white"/>
<path d="M35.364 64.716C35.812 64.796 36.192 65.032 36.504 65.424C36.816 65.816 36.972 66.26 36.972 66.756C36.972 67.18 36.86 67.564 36.636 67.908C36.42 68.244 36.104 68.512 35.688 68.712C35.272 68.904 34.788 69 34.236 69H30.9V60.66H34.08C34.648 60.66 35.136 60.756 35.544 60.948C35.952 61.14 36.26 61.4 36.468 61.728C36.676 62.048 36.78 62.408 36.78 62.808C36.78 63.288 36.652 63.688 36.396 64.008C36.14 64.328 35.796 64.564 35.364 64.716ZM32.268 64.164H33.96C34.408 64.164 34.756 64.064 35.004 63.864C35.26 63.656 35.388 63.36 35.388 62.976C35.388 62.6 35.26 62.308 35.004 62.1C34.756 61.884 34.408 61.776 33.96 61.776H32.268V64.164ZM34.116 67.884C34.58 67.884 34.944 67.772 35.208 67.548C35.472 67.324 35.604 67.012 35.604 66.612C35.604 66.204 35.464 65.88 35.184 65.64C34.904 65.4 34.532 65.28 34.068 65.28H32.268V67.884H34.116ZM38.0026 65.664C38.0026 65 38.1386 64.412 38.4106 63.9C38.6906 63.388 39.0666 62.992 39.5386 62.712C40.0186 62.424 40.5466 62.28 41.1226 62.28C41.6426 62.28 42.0946 62.384 42.4786 62.592C42.8706 62.792 43.1826 63.044 43.4146 63.348V62.388H44.7946V69H43.4146V68.016C43.1826 68.328 42.8666 68.588 42.4666 68.796C42.0666 69.004 41.6106 69.108 41.0986 69.108C40.5306 69.108 40.0106 68.964 39.5386 68.676C39.0666 68.38 38.6906 67.972 38.4106 67.452C38.1386 66.924 38.0026 66.328 38.0026 65.664ZM43.4146 65.688C43.4146 65.232 43.3186 64.836 43.1266 64.5C42.9426 64.164 42.6986 63.908 42.3946 63.732C42.0906 63.556 41.7626 63.468 41.4106 63.468C41.0586 63.468 40.7306 63.556 40.4266 63.732C40.1226 63.9 39.8746 64.152 39.6826 64.488C39.4986 64.816 39.4066 65.208 39.4066 65.664C39.4066 66.12 39.4986 66.52 39.6826 66.864C39.8746 67.208 40.1226 67.472 40.4266 67.656C40.7386 67.832 41.0666 67.92 41.4106 67.92C41.7626 67.92 42.0906 67.832 42.3946 67.656C42.6986 67.48 42.9426 67.224 43.1266 66.888C43.3186 66.544 43.4146 66.144 43.4146 65.688ZM46.1354 65.688C46.1354 65.008 46.2714 64.412 46.5434 63.9C46.8234 63.38 47.2074 62.98 47.6954 62.7C48.1834 62.42 48.7434 62.28 49.3754 62.28C50.1754 62.28 50.8354 62.472 51.3554 62.856C51.8834 63.232 52.2394 63.772 52.4234 64.476H50.9474C50.8274 64.148 50.6354 63.892 50.3714 63.708C50.1074 63.524 49.7754 63.432 49.3754 63.432C48.8154 63.432 48.3674 63.632 48.0314 64.032C47.7034 64.424 47.5394 64.976 47.5394 65.688C47.5394 66.4 47.7034 66.956 48.0314 67.356C48.3674 67.756 48.8154 67.956 49.3754 67.956C50.1674 67.956 50.6914 67.608 50.9474 66.912H52.4234C52.2314 67.584 51.8714 68.12 51.3434 68.52C50.8154 68.912 50.1594 69.108 49.3754 69.108C48.7434 69.108 48.1834 68.968 47.6954 68.688C47.2074 68.4 46.8234 68 46.5434 67.488C46.2714 66.968 46.1354 66.368 46.1354 65.688ZM56.4027 65.7L59.4507 69H57.6027L55.1547 66.156V69H53.7867V60.12H55.1547V65.28L57.5547 62.388H59.4507L56.4027 65.7ZM66.4193 62.388V69H65.0513V68.22C64.8353 68.492 64.5513 68.708 64.1993 68.868C63.8553 69.02 63.4873 69.096 63.0953 69.096C62.5753 69.096 62.1073 68.988 61.6913 68.772C61.2833 68.556 60.9593 68.236 60.7193 67.812C60.4873 67.388 60.3713 66.876 60.3713 66.276V62.388H61.7273V66.072C61.7273 66.664 61.8753 67.12 62.1713 67.44C62.4673 67.752 62.8713 67.908 63.3833 67.908C63.8953 67.908 64.2993 67.752 64.5953 67.44C64.8993 67.12 65.0513 66.664 65.0513 66.072V62.388H66.4193ZM69.5922 63.36C69.8242 63.056 70.1402 62.8 70.5402 62.592C70.9402 62.384 71.3922 62.28 71.8962 62.28C72.4722 62.28 72.9962 62.424 73.4682 62.712C73.9482 62.992 74.3242 63.388 74.5962 63.9C74.8682 64.412 75.0042 65 75.0042 65.664C75.0042 66.328 74.8682 66.924 74.5962 67.452C74.3242 67.972 73.9482 68.38 73.4682 68.676C72.9962 68.964 72.4722 69.108 71.8962 69.108C71.3922 69.108 70.9442 69.008 70.5522 68.808C70.1602 68.6 69.8402 68.344 69.5922 68.04V72.144H68.2242V62.388H69.5922V63.36ZM73.6122 65.664C73.6122 65.208 73.5162 64.816 73.3242 64.488C73.1402 64.152 72.8922 63.9 72.5802 63.732C72.2762 63.556 71.9482 63.468 71.5962 63.468C71.2522 63.468 70.9242 63.556 70.6122 63.732C70.3082 63.908 70.0602 64.164 69.8682 64.5C69.6842 64.836 69.5922 65.232 69.5922 65.688C69.5922 66.144 69.6842 66.544 69.8682 66.888C70.0602 67.224 70.3082 67.48 70.6122 67.656C70.9242 67.832 71.2522 67.92 71.5962 67.92C71.9482 67.92 72.2762 67.832 72.5802 67.656C72.8922 67.472 73.1402 67.208 73.3242 66.864C73.5162 66.52 73.6122 66.12 73.6122 65.664ZM85.9182 69L84.8862 67.968C84.4862 68.368 84.0502 68.668 83.5782 68.868C83.1062 69.06 82.5782 69.156 81.9942 69.156C81.4022 69.156 80.8782 69.052 80.4222 68.844C79.9662 68.636 79.6142 68.34 79.3662 67.956C79.1182 67.564 78.9942 67.112 78.9942 66.6C78.9942 66.024 79.1582 65.512 79.4862 65.064C79.8142 64.608 80.3022 64.248 80.9502 63.984C80.7182 63.704 80.5542 63.444 80.4582 63.204C80.3622 62.956 80.3142 62.684 80.3142 62.388C80.3142 62.02 80.4062 61.692 80.5902 61.404C80.7822 61.116 81.0542 60.888 81.4062 60.72C81.7582 60.552 82.1662 60.468 82.6302 60.468C83.1022 60.468 83.5022 60.56 83.8302 60.744C84.1662 60.92 84.4142 61.164 84.5742 61.476C84.7422 61.788 84.8102 62.136 84.7782 62.52H83.4102C83.4182 62.224 83.3462 61.996 83.1942 61.836C83.0422 61.668 82.8342 61.584 82.5702 61.584C82.3062 61.584 82.0902 61.664 81.9222 61.824C81.7622 61.976 81.6822 62.164 81.6822 62.388C81.6822 62.604 81.7422 62.82 81.8622 63.036C81.9902 63.244 82.2102 63.516 82.5222 63.852L84.7302 66.048L85.5822 64.644H87.0582L85.9782 66.492L85.6782 66.984L87.7062 69H85.9182ZM81.9942 67.992C82.7462 67.992 83.4102 67.684 83.9862 67.068L81.7782 64.848C80.8342 65.224 80.3622 65.792 80.3622 66.552C80.3622 66.96 80.5142 67.304 80.8182 67.584C81.1222 67.856 81.5142 67.992 81.9942 67.992ZM93.0883 63.348C93.2883 63.012 93.5523 62.752 93.8803 62.568C94.2163 62.376 94.6123 62.28 95.0683 62.28V63.696H94.7203C94.1843 63.696 93.7763 63.832 93.4963 64.104C93.2243 64.376 93.0883 64.848 93.0883 65.52V69H91.7203V62.388H93.0883V63.348ZM102.386 65.532C102.386 65.78 102.37 66.004 102.338 66.204H97.2858C97.3258 66.732 97.5218 67.156 97.8738 67.476C98.2258 67.796 98.6578 67.956 99.1698 67.956C99.9058 67.956 100.426 67.648 100.73 67.032H102.206C102.006 67.64 101.642 68.14 101.114 68.532C100.594 68.916 99.9458 69.108 99.1698 69.108C98.5378 69.108 97.9698 68.968 97.4658 68.688C96.9698 68.4 96.5778 68 96.2898 67.488C96.0098 66.968 95.8698 66.368 95.8698 65.688C95.8698 65.008 96.0058 64.412 96.2778 63.9C96.5578 63.38 96.9458 62.98 97.4418 62.7C97.9458 62.42 98.5218 62.28 99.1698 62.28C99.7938 62.28 100.35 62.416 100.838 62.688C101.326 62.96 101.706 63.344 101.978 63.84C102.25 64.328 102.386 64.892 102.386 65.532ZM100.958 65.1C100.95 64.596 100.77 64.192 100.418 63.888C100.066 63.584 99.6298 63.432 99.1098 63.432C98.6378 63.432 98.2338 63.584 97.8978 63.888C97.5618 64.184 97.3618 64.588 97.2978 65.1H100.958ZM106.132 69.108C105.612 69.108 105.144 69.016 104.728 68.832C104.32 68.64 103.996 68.384 103.756 68.064C103.516 67.736 103.388 67.372 103.372 66.972H104.788C104.812 67.252 104.944 67.488 105.184 67.68C105.432 67.864 105.74 67.956 106.108 67.956C106.492 67.956 106.788 67.884 106.996 67.74C107.212 67.588 107.32 67.396 107.32 67.164C107.32 66.916 107.2 66.732 106.96 66.612C106.728 66.492 106.356 66.36 105.844 66.216C105.348 66.08 104.944 65.948 104.632 65.82C104.32 65.692 104.048 65.496 103.816 65.232C103.592 64.968 103.48 64.62 103.48 64.188C103.48 63.836 103.584 63.516 103.792 63.228C104 62.932 104.296 62.7 104.68 62.532C105.072 62.364 105.52 62.28 106.024 62.28C106.776 62.28 107.38 62.472 107.836 62.856C108.3 63.232 108.548 63.748 108.58 64.404H107.212C107.188 64.108 107.068 63.872 106.852 63.696C106.636 63.52 106.344 63.432 105.976 63.432C105.616 63.432 105.34 63.5 105.148 63.636C104.956 63.772 104.86 63.952 104.86 64.176C104.86 64.352 104.924 64.5 105.052 64.62C105.18 64.74 105.336 64.836 105.52 64.908C105.704 64.972 105.976 65.056 106.336 65.16C106.816 65.288 107.208 65.42 107.512 65.556C107.824 65.684 108.092 65.876 108.316 66.132C108.54 66.388 108.656 66.728 108.664 67.152C108.664 67.528 108.56 67.864 108.352 68.16C108.144 68.456 107.848 68.688 107.464 68.856C107.088 69.024 106.644 69.108 106.132 69.108ZM111.738 63.504V67.164C111.738 67.412 111.794 67.592 111.906 67.704C112.026 67.808 112.226 67.86 112.506 67.86H113.346V69H112.266C111.65 69 111.178 68.856 110.85 68.568C110.522 68.28 110.358 67.812 110.358 67.164V63.504H109.578V62.388H110.358V60.744H111.738V62.388H113.346V63.504H111.738ZM117.475 69.108C116.851 69.108 116.287 68.968 115.783 68.688C115.279 68.4 114.883 68 114.595 67.488C114.307 66.968 114.163 66.368 114.163 65.688C114.163 65.016 114.311 64.42 114.607 63.9C114.903 63.38 115.307 62.98 115.819 62.7C116.331 62.42 116.903 62.28 117.535 62.28C118.167 62.28 118.739 62.42 119.251 62.7C119.763 62.98 120.167 63.38 120.463 63.9C120.759 64.42 120.907 65.016 120.907 65.688C120.907 66.36 120.755 66.956 120.451 67.476C120.147 67.996 119.731 68.4 119.203 68.688C118.683 68.968 118.107 69.108 117.475 69.108ZM117.475 67.92C117.827 67.92 118.155 67.836 118.459 67.668C118.771 67.5 119.023 67.248 119.215 66.912C119.407 66.576 119.503 66.168 119.503 65.688C119.503 65.208 119.411 64.804 119.227 64.476C119.043 64.14 118.799 63.888 118.495 63.72C118.191 63.552 117.863 63.468 117.511 63.468C117.159 63.468 116.831 63.552 116.527 63.72C116.231 63.888 115.995 64.14 115.819 64.476C115.643 64.804 115.555 65.208 115.555 65.688C115.555 66.4 115.735 66.952 116.095 67.344C116.463 67.728 116.923 67.92 117.475 67.92ZM123.627 63.348C123.827 63.012 124.091 62.752 124.419 62.568C124.755 62.376 125.151 62.28 125.607 62.28V63.696H125.259C124.723 63.696 124.315 63.832 124.035 64.104C123.763 64.376 123.627 64.848 123.627 65.52V69H122.259V62.388H123.627V63.348ZM132.925 65.532C132.925 65.78 132.909 66.004 132.877 66.204H127.825C127.865 66.732 128.061 67.156 128.413 67.476C128.765 67.796 129.197 67.956 129.709 67.956C130.445 67.956 130.965 67.648 131.269 67.032H132.745C132.545 67.64 132.181 68.14 131.653 68.532C131.133 68.916 130.485 69.108 129.709 69.108C129.077 69.108 128.509 68.968 128.005 68.688C127.509 68.4 127.117 68 126.829 67.488C126.549 66.968 126.409 66.368 126.409 65.688C126.409 65.008 126.545 64.412 126.817 63.9C127.097 63.38 127.485 62.98 127.981 62.7C128.485 62.42 129.061 62.28 129.709 62.28C130.333 62.28 130.889 62.416 131.377 62.688C131.865 62.96 132.245 63.344 132.517 63.84C132.789 64.328 132.925 64.892 132.925 65.532ZM131.497 65.1C131.489 64.596 131.309 64.192 130.957 63.888C130.605 63.584 130.169 63.432 129.649 63.432C129.177 63.432 128.773 63.584 128.437 63.888C128.101 64.184 127.901 64.588 127.837 65.1H131.497Z" fill="white"/>
<path d="M39.684 90.66V99H38.316V93.288L35.772 99H34.824L32.268 93.288V99H30.9V90.66H32.376L35.304 97.2L38.22 90.66H39.684ZM44.35 99.108C43.726 99.108 43.162 98.968 42.658 98.688C42.154 98.4 41.758 98 41.47 97.488C41.182 96.968 41.038 96.368 41.038 95.688C41.038 95.016 41.186 94.42 41.482 93.9C41.778 93.38 42.182 92.98 42.694 92.7C43.206 92.42 43.778 92.28 44.41 92.28C45.042 92.28 45.614 92.42 46.126 92.7C46.638 92.98 47.042 93.38 47.338 93.9C47.634 94.42 47.782 95.016 47.782 95.688C47.782 96.36 47.63 96.956 47.326 97.476C47.022 97.996 46.606 98.4 46.078 98.688C45.558 98.968 44.982 99.108 44.35 99.108ZM44.35 97.92C44.702 97.92 45.03 97.836 45.334 97.668C45.646 97.5 45.898 97.248 46.09 96.912C46.282 96.576 46.378 96.168 46.378 95.688C46.378 95.208 46.286 94.804 46.102 94.476C45.918 94.14 45.674 93.888 45.37 93.72C45.066 93.552 44.738 93.468 44.386 93.468C44.034 93.468 43.706 93.552 43.402 93.72C43.106 93.888 42.87 94.14 42.694 94.476C42.518 94.804 42.43 95.208 42.43 95.688C42.43 96.4 42.61 96.952 42.97 97.344C43.338 97.728 43.798 97.92 44.35 97.92ZM50.5024 93.348C50.7024 93.012 50.9664 92.752 51.2944 92.568C51.6304 92.376 52.0264 92.28 52.4824 92.28V93.696H52.1344C51.5984 93.696 51.1904 93.832 50.9104 94.104C50.6384 94.376 50.5024 94.848 50.5024 95.52V99H49.1344V92.388H50.5024V93.348ZM59.7998 95.532C59.7998 95.78 59.7838 96.004 59.7518 96.204H54.6998C54.7398 96.732 54.9358 97.156 55.2878 97.476C55.6398 97.796 56.0718 97.956 56.5838 97.956C57.3198 97.956 57.8398 97.648 58.1438 97.032H59.6198C59.4198 97.64 59.0558 98.14 58.5278 98.532C58.0078 98.916 57.3598 99.108 56.5838 99.108C55.9518 99.108 55.3838 98.968 54.8798 98.688C54.3838 98.4 53.9918 98 53.7038 97.488C53.4238 96.968 53.2838 96.368 53.2838 95.688C53.2838 95.008 53.4198 94.412 53.6918 93.9C53.9718 93.38 54.3598 92.98 54.8558 92.7C55.3598 92.42 55.9358 92.28 56.5838 92.28C57.2078 92.28 57.7638 92.416 58.2518 92.688C58.7398 92.96 59.1198 93.344 59.3918 93.84C59.6638 94.328 59.7998 94.892 59.7998 95.532ZM58.3718 95.1C58.3638 94.596 58.1838 94.192 57.8318 93.888C57.4798 93.584 57.0438 93.432 56.5238 93.432C56.0518 93.432 55.6478 93.584 55.3118 93.888C54.9758 94.184 54.7758 94.588 54.7118 95.1H58.3718ZM64.9593 91.512C64.7113 91.512 64.5033 91.428 64.3353 91.26C64.1673 91.092 64.0833 90.884 64.0833 90.636C64.0833 90.388 64.1673 90.18 64.3353 90.012C64.5033 89.844 64.7113 89.76 64.9593 89.76C65.1993 89.76 65.4033 89.844 65.5713 90.012C65.7393 90.18 65.8233 90.388 65.8233 90.636C65.8233 90.884 65.7393 91.092 65.5713 91.26C65.4033 91.428 65.1993 91.512 64.9593 91.512ZM65.6313 92.388V99H64.2633V92.388H65.6313ZM70.7633 92.28C71.2833 92.28 71.7473 92.388 72.1553 92.604C72.5713 92.82 72.8953 93.14 73.1273 93.564C73.3593 93.988 73.4753 94.5 73.4753 95.1V99H72.1193V95.304C72.1193 94.712 71.9713 94.26 71.6753 93.948C71.3793 93.628 70.9753 93.468 70.4633 93.468C69.9513 93.468 69.5433 93.628 69.2393 93.948C68.9433 94.26 68.7953 94.712 68.7953 95.304V99H67.4273V92.388H68.7953V93.144C69.0193 92.872 69.3033 92.66 69.6473 92.508C69.9993 92.356 70.3713 92.28 70.7633 92.28ZM77.9923 93.504H76.7683V99H75.3883V93.504H74.6083V92.388H75.3883V91.92C75.3883 91.16 75.5883 90.608 75.9883 90.264C76.3963 89.912 77.0323 89.736 77.8963 89.736V90.876C77.4803 90.876 77.1883 90.956 77.0203 91.116C76.8523 91.268 76.7683 91.536 76.7683 91.92V92.388H77.9923V93.504ZM82.0727 99.108C81.4487 99.108 80.8847 98.968 80.3807 98.688C79.8767 98.4 79.4807 98 79.1927 97.488C78.9047 96.968 78.7607 96.368 78.7607 95.688C78.7607 95.016 78.9087 94.42 79.2047 93.9C79.5007 93.38 79.9047 92.98 80.4167 92.7C80.9287 92.42 81.5007 92.28 82.1327 92.28C82.7647 92.28 83.3367 92.42 83.8487 92.7C84.3607 92.98 84.7647 93.38 85.0607 93.9C85.3567 94.42 85.5047 95.016 85.5047 95.688C85.5047 96.36 85.3527 96.956 85.0487 97.476C84.7447 97.996 84.3287 98.4 83.8007 98.688C83.2807 98.968 82.7047 99.108 82.0727 99.108ZM82.0727 97.92C82.4247 97.92 82.7527 97.836 83.0567 97.668C83.3687 97.5 83.6207 97.248 83.8127 96.912C84.0047 96.576 84.1007 96.168 84.1007 95.688C84.1007 95.208 84.0087 94.804 83.8247 94.476C83.6407 94.14 83.3967 93.888 83.0927 93.72C82.7887 93.552 82.4607 93.468 82.1087 93.468C81.7567 93.468 81.4287 93.552 81.1247 93.72C80.8287 93.888 80.5927 94.14 80.4167 94.476C80.2407 94.804 80.1527 95.208 80.1527 95.688C80.1527 96.4 80.3327 96.952 80.6927 97.344C81.0607 97.728 81.5207 97.92 82.0727 97.92Z" fill="white"/>
<rect x="16" y="100" width="2" height="6" rx="1" transform="rotate(-180 16 100)" fill="white"/>
<ellipse cx="15" cy="91" rx="1" ry="1" fill="white"/>
<rect x="15" y="22" width="8" height="8" rx="4" fill="white"/>
<rect x="21" y="20" width="10" height="10" rx="5" fill="white"/>
<rect x="19" y="25.5" width="6.66667" height="4.5" fill="white"/>
<rect x="16.4877" y="67.9019" width="2" height="5.72459" rx="1" transform="rotate(-45 16.4877 67.9019)" fill="white"/>
<circle cx="15" cy="65" r="4" stroke="white" stroke-width="2"/>
</svg>
