<svg xmlns="http://www.w3.org/2000/svg" fill="none" viewBox="0 0 140 42" height="42" width="140">
<path fill="black" d="M4.704 25.084C3.928 25.084 3.212 24.904 2.556 24.544C1.908 24.176 1.392 23.668 1.008 23.02C0.632 22.364 0.444 21.628 0.444 20.812C0.444 19.996 0.632 19.264 1.008 18.616C1.392 17.968 1.908 17.464 2.556 17.104C3.212 16.736 3.928 16.552 4.704 16.552C5.488 16.552 6.204 16.736 6.852 17.104C7.508 17.464 8.024 17.968 8.4 18.616C8.776 19.264 8.964 19.996 8.964 20.812C8.964 21.628 8.776 22.364 8.4 23.02C8.024 23.668 7.508 24.176 6.852 24.544C6.204 24.904 5.488 25.084 4.704 25.084ZM4.704 23.896C5.256 23.896 5.748 23.772 6.18 23.524C6.612 23.268 6.948 22.908 7.188 22.444C7.436 21.972 7.56 21.428 7.56 20.812C7.56 20.196 7.436 19.656 7.188 19.192C6.948 18.728 6.612 18.372 6.18 18.124C5.748 17.876 5.256 17.752 4.704 17.752C4.152 17.752 3.66 17.876 3.228 18.124C2.796 18.372 2.456 18.728 2.208 19.192C1.968 19.656 1.848 20.196 1.848 20.812C1.848 21.428 1.968 21.972 2.208 22.444C2.456 22.908 2.796 23.268 3.228 23.524C3.66 23.772 4.152 23.896 4.704 23.896ZM11.6782 19.348C11.8782 19.012 12.1422 18.752 12.4702 18.568C12.8062 18.376 13.2022 18.28 13.6582 18.28V19.696H13.3102C12.7742 19.696 12.3662 19.832 12.0862 20.104C11.8142 20.376 11.6782 20.848 11.6782 21.52V25H10.3102V18.388H11.6782V19.348ZM17.5796 18.28C18.0916 18.28 18.5436 18.384 18.9356 18.592C19.3356 18.792 19.6476 19.044 19.8716 19.348V18.388H21.2516V25.108C21.2516 25.716 21.1236 26.256 20.8676 26.728C20.6116 27.208 20.2396 27.584 19.7516 27.856C19.2716 28.128 18.6956 28.264 18.0236 28.264C17.1276 28.264 16.3836 28.052 15.7916 27.628C15.1996 27.212 14.8636 26.644 14.7836 25.924H16.1396C16.2436 26.268 16.4636 26.544 16.7996 26.752C17.1436 26.968 17.5516 27.076 18.0236 27.076C18.5756 27.076 19.0196 26.908 19.3556 26.572C19.6996 26.236 19.8716 25.748 19.8716 25.108V24.004C19.6396 24.316 19.3236 24.58 18.9236 24.796C18.5316 25.004 18.0836 25.108 17.5796 25.108C17.0036 25.108 16.4756 24.964 15.9956 24.676C15.5236 24.38 15.1476 23.972 14.8676 23.452C14.5956 22.924 14.4596 22.328 14.4596 21.664C14.4596 21 14.5956 20.412 14.8676 19.9C15.1476 19.388 15.5236 18.992 15.9956 18.712C16.4756 18.424 17.0036 18.28 17.5796 18.28ZM19.8716 21.688C19.8716 21.232 19.7756 20.836 19.5836 20.5C19.3996 20.164 19.1556 19.908 18.8516 19.732C18.5476 19.556 18.2196 19.468 17.8676 19.468C17.5156 19.468 17.1876 19.556 16.8836 19.732C16.5796 19.9 16.3316 20.152 16.1396 20.488C15.9556 20.816 15.8636 21.208 15.8636 21.664C15.8636 22.12 15.9556 22.52 16.1396 22.864C16.3316 23.208 16.5796 23.472 16.8836 23.656C17.1956 23.832 17.5236 23.92 17.8676 23.92C18.2196 23.92 18.5476 23.832 18.8516 23.656C19.1556 23.48 19.3996 23.224 19.5836 22.888C19.7756 22.544 19.8716 22.144 19.8716 21.688ZM22.5924 21.664C22.5924 21 22.7284 20.412 23.0004 19.9C23.2804 19.388 23.6564 18.992 24.1284 18.712C24.6084 18.424 25.1364 18.28 25.7124 18.28C26.2324 18.28 26.6844 18.384 27.0684 18.592C27.4604 18.792 27.7724 19.044 28.0044 19.348V18.388H29.3844V25H28.0044V24.016C27.7724 24.328 27.4564 24.588 27.0564 24.796C26.6564 25.004 26.2004 25.108 25.6884 25.108C25.1204 25.108 24.6004 24.964 24.1284 24.676C23.6564 24.38 23.2804 23.972 23.0004 23.452C22.7284 22.924 22.5924 22.328 22.5924 21.664ZM28.0044 21.688C28.0044 21.232 27.9084 20.836 27.7164 20.5C27.5324 20.164 27.2884 19.908 26.9844 19.732C26.6804 19.556 26.3524 19.468 26.0004 19.468C25.6484 19.468 25.3204 19.556 25.0164 19.732C24.7124 19.9 24.4644 20.152 24.2724 20.488C24.0884 20.816 23.9964 21.208 23.9964 21.664C23.9964 22.12 24.0884 22.52 24.2724 22.864C24.4644 23.208 24.7124 23.472 25.0164 23.656C25.3284 23.832 25.6564 23.92 26.0004 23.92C26.3524 23.92 26.6804 23.832 26.9844 23.656C27.2884 23.48 27.5324 23.224 27.7164 22.888C27.9084 22.544 28.0044 22.144 28.0044 21.688ZM34.5173 18.28C35.0373 18.28 35.5013 18.388 35.9093 18.604C36.3253 18.82 36.6493 19.14 36.8813 19.564C37.1133 19.988 37.2293 20.5 37.2293 21.1V25H35.8733V21.304C35.8733 20.712 35.7253 20.26 35.4293 19.948C35.1333 19.628 34.7293 19.468 34.2173 19.468C33.7053 19.468 33.2973 19.628 32.9933 19.948C32.6973 20.26 32.5493 20.712 32.5493 21.304V25H31.1813V18.388H32.5493V19.144C32.7733 18.872 33.0573 18.66 33.4013 18.508C33.7533 18.356 34.1253 18.28 34.5173 18.28Z"></path>
</svg>
