<svg width="480" height="360" viewBox="0 0 480 360" fill="none" xmlns="http://www.w3.org/2000/svg">
<path d="M174.864 31.112C174.117 31.112 173.445 30.984 172.848 30.728C172.251 30.4613 171.781 30.088 171.44 29.608C171.099 29.128 170.928 28.568 170.928 27.928H172.88C172.923 28.408 173.109 28.8027 173.44 29.112C173.781 29.4213 174.256 29.576 174.864 29.576C175.493 29.576 175.984 29.4267 176.336 29.128C176.688 28.8187 176.864 28.424 176.864 27.944C176.864 27.5707 176.752 27.2667 176.528 27.032C176.315 26.7973 176.043 26.616 175.712 26.488C175.392 26.36 174.944 26.2213 174.368 26.072C173.643 25.88 173.051 25.688 172.592 25.496C172.144 25.2933 171.76 24.984 171.44 24.568C171.12 24.152 170.96 23.5973 170.96 22.904C170.96 22.264 171.12 21.704 171.44 21.224C171.76 20.744 172.208 20.376 172.784 20.12C173.36 19.864 174.027 19.736 174.784 19.736C175.861 19.736 176.741 20.008 177.424 20.552C178.117 21.0853 178.501 21.8213 178.576 22.76H176.56C176.528 22.3547 176.336 22.008 175.984 21.72C175.632 21.432 175.168 21.288 174.592 21.288C174.069 21.288 173.643 21.4213 173.312 21.688C172.981 21.9547 172.816 22.3387 172.816 22.84C172.816 23.1813 172.917 23.464 173.12 23.688C173.333 23.9013 173.6 24.072 173.92 24.2C174.24 24.328 174.677 24.4667 175.232 24.616C175.968 24.8187 176.565 25.0213 177.024 25.224C177.493 25.4267 177.888 25.7413 178.208 26.168C178.539 26.584 178.704 27.144 178.704 27.848C178.704 28.4133 178.549 28.9467 178.24 29.448C177.941 29.9493 177.499 30.3547 176.912 30.664C176.336 30.9627 175.653 31.112 174.864 31.112ZM182.984 23.672V28.552C182.984 28.8827 183.059 29.1227 183.208 29.272C183.368 29.4107 183.635 29.48 184.008 29.48H185.128V31H183.688C182.867 31 182.238 30.808 181.8 30.424C181.363 30.04 181.144 29.416 181.144 28.552V23.672H180.104V22.184H181.144V19.992H182.984V22.184H185.128V23.672H182.984ZM190.633 31.144C189.801 31.144 189.049 30.9573 188.377 30.584C187.705 30.2 187.177 29.6667 186.793 28.984C186.409 28.2907 186.217 27.4907 186.217 26.584C186.217 25.688 186.415 24.8933 186.809 24.2C187.204 23.5067 187.743 22.9733 188.425 22.6C189.108 22.2267 189.871 22.04 190.713 22.04C191.556 22.04 192.319 22.2267 193.001 22.6C193.684 22.9733 194.223 23.5067 194.617 24.2C195.012 24.8933 195.209 25.688 195.209 26.584C195.209 27.48 195.007 28.2747 194.601 28.968C194.196 29.6613 193.641 30.2 192.937 30.584C192.244 30.9573 191.476 31.144 190.633 31.144ZM190.633 29.56C191.103 29.56 191.54 29.448 191.945 29.224C192.361 29 192.697 28.664 192.953 28.216C193.209 27.768 193.337 27.224 193.337 26.584C193.337 25.944 193.215 25.4053 192.969 24.968C192.724 24.52 192.399 24.184 191.993 23.96C191.588 23.736 191.151 23.624 190.681 23.624C190.212 23.624 189.775 23.736 189.369 23.96C188.975 24.184 188.66 24.52 188.425 24.968C188.191 25.4053 188.073 25.944 188.073 26.584C188.073 27.5333 188.313 28.2693 188.793 28.792C189.284 29.304 189.897 29.56 190.633 29.56ZM198.837 23.48C199.146 23.0747 199.567 22.7333 200.101 22.456C200.634 22.1787 201.237 22.04 201.909 22.04C202.677 22.04 203.375 22.232 204.005 22.616C204.645 22.9893 205.146 23.5173 205.509 24.2C205.871 24.8827 206.053 25.6667 206.053 26.552C206.053 27.4373 205.871 28.232 205.509 28.936C205.146 29.6293 204.645 30.1733 204.005 30.568C203.375 30.952 202.677 31.144 201.909 31.144C201.237 31.144 200.639 31.0107 200.117 30.744C199.594 30.4667 199.167 30.1253 198.837 29.72V35.192H197.013V22.184H198.837V23.48ZM204.197 26.552C204.197 25.944 204.069 25.4213 203.812 24.984C203.567 24.536 203.237 24.2 202.821 23.976C202.415 23.7413 201.978 23.624 201.509 23.624C201.05 23.624 200.613 23.7413 200.197 23.976C199.791 24.2107 199.461 24.552 199.205 25C198.959 25.448 198.837 25.976 198.837 26.584C198.837 27.192 198.959 27.7253 199.205 28.184C199.461 28.632 199.791 28.9733 200.197 29.208C200.613 29.4427 201.05 29.56 201.509 29.56C201.978 29.56 202.415 29.4427 202.821 29.208C203.237 28.9627 203.567 28.6107 203.812 28.152C204.069 27.6933 204.197 27.16 204.197 26.552ZM219.696 22.184L216.96 31H215.04L213.264 24.488L211.488 31H209.568L206.816 22.184H208.672L210.512 29.272L212.384 22.184H214.288L216.08 29.24L217.904 22.184H219.696ZM220.451 26.552C220.451 25.6667 220.633 24.8827 220.995 24.2C221.369 23.5173 221.87 22.9893 222.499 22.616C223.139 22.232 223.843 22.04 224.611 22.04C225.305 22.04 225.907 22.1787 226.419 22.456C226.942 22.7227 227.358 23.0587 227.667 23.464V22.184H229.507V31H227.667V29.688C227.358 30.104 226.937 30.4507 226.403 30.728C225.87 31.0053 225.262 31.144 224.579 31.144C223.822 31.144 223.129 30.952 222.499 30.568C221.87 30.1733 221.369 29.6293 220.995 28.936C220.633 28.232 220.451 27.4373 220.451 26.552ZM227.667 26.584C227.667 25.976 227.539 25.448 227.283 25C227.038 24.552 226.713 24.2107 226.307 23.976C225.902 23.7413 225.465 23.624 224.995 23.624C224.526 23.624 224.089 23.7413 223.683 23.976C223.278 24.2 222.947 24.536 222.691 24.984C222.446 25.4213 222.323 25.944 222.323 26.552C222.323 27.16 222.446 27.6933 222.691 28.152C222.947 28.6107 223.278 28.9627 223.683 29.208C224.099 29.4427 224.537 29.56 224.995 29.56C225.465 29.56 225.902 29.4427 226.307 29.208C226.713 28.9733 227.038 28.632 227.283 28.184C227.539 27.7253 227.667 27.192 227.667 26.584ZM234.031 23.672V28.552C234.031 28.8827 234.106 29.1227 234.255 29.272C234.415 29.4107 234.682 29.48 235.055 29.48H236.175V31H234.735C233.914 31 233.284 30.808 232.847 30.424C232.41 30.04 232.191 29.416 232.191 28.552V23.672H231.151V22.184H232.191V19.992H234.031V22.184H236.175V23.672H234.031ZM237.248 26.584C237.248 25.6773 237.43 24.8827 237.792 24.2C238.166 23.5067 238.678 22.9733 239.328 22.6C239.979 22.2267 240.726 22.04 241.568 22.04C242.635 22.04 243.515 22.296 244.208 22.808C244.912 23.3093 245.387 24.0293 245.632 24.968H243.664C243.504 24.5307 243.248 24.1893 242.896 23.944C242.544 23.6987 242.102 23.576 241.568 23.576C240.822 23.576 240.224 23.8427 239.776 24.376C239.339 24.8987 239.12 25.6347 239.12 26.584C239.12 27.5333 239.339 28.2747 239.776 28.808C240.224 29.3413 240.822 29.608 241.568 29.608C242.624 29.608 243.323 29.144 243.664 28.216H245.632C245.376 29.112 244.896 29.8267 244.192 30.36C243.488 30.8827 242.614 31.144 241.568 31.144C240.726 31.144 239.979 30.9573 239.328 30.584C238.678 30.2 238.166 29.6667 237.792 28.984C237.43 28.2907 237.248 27.4907 237.248 26.584ZM252.01 22.04C252.682 22.04 253.279 22.184 253.802 22.472C254.335 22.76 254.751 23.1867 255.05 23.752C255.359 24.3173 255.514 25 255.514 25.8V31H253.706V26.072C253.706 25.2827 253.509 24.68 253.114 24.264C252.719 23.8373 252.181 23.624 251.498 23.624C250.815 23.624 250.271 23.8373 249.866 24.264C249.471 24.68 249.274 25.2827 249.274 26.072V31H247.45V19.16H249.274V23.208C249.583 22.8347 249.973 22.5467 250.442 22.344C250.922 22.1413 251.445 22.04 252.01 22.04Z" fill="white"/>
<rect x="285" y="320" width="60" height="30" rx="15" fill="white" fill-opacity="0.1"/>
<path d="M304.193 339.084C303.633 339.084 303.129 338.988 302.681 338.796C302.233 338.596 301.881 338.316 301.625 337.956C301.369 337.596 301.241 337.176 301.241 336.696H302.705C302.737 337.056 302.877 337.352 303.125 337.584C303.381 337.816 303.737 337.932 304.193 337.932C304.665 337.932 305.033 337.82 305.297 337.596C305.561 337.364 305.693 337.068 305.693 336.708C305.693 336.428 305.609 336.2 305.441 336.024C305.281 335.848 305.077 335.712 304.829 335.616C304.589 335.52 304.253 335.416 303.821 335.304C303.277 335.16 302.833 335.016 302.489 334.872C302.153 334.72 301.865 334.488 301.625 334.176C301.385 333.864 301.265 333.448 301.265 332.928C301.265 332.448 301.385 332.028 301.625 331.668C301.865 331.308 302.201 331.032 302.633 330.84C303.065 330.648 303.565 330.552 304.133 330.552C304.941 330.552 305.601 330.756 306.113 331.164C306.633 331.564 306.921 332.116 306.977 332.82H305.465C305.441 332.516 305.297 332.256 305.033 332.04C304.769 331.824 304.421 331.716 303.989 331.716C303.597 331.716 303.277 331.816 303.029 332.016C302.781 332.216 302.657 332.504 302.657 332.88C302.657 333.136 302.733 333.348 302.885 333.516C303.045 333.676 303.245 333.804 303.485 333.9C303.725 333.996 304.053 334.1 304.469 334.212C305.021 334.364 305.469 334.516 305.813 334.668C306.165 334.82 306.461 335.056 306.701 335.376C306.949 335.688 307.073 336.108 307.073 336.636C307.073 337.06 306.957 337.46 306.725 337.836C306.501 338.212 306.169 338.516 305.729 338.748C305.297 338.972 304.785 339.084 304.193 339.084ZM310.283 333.504V337.164C310.283 337.412 310.339 337.592 310.451 337.704C310.571 337.808 310.771 337.86 311.051 337.86H311.891V339H310.811C310.195 339 309.723 338.856 309.395 338.568C309.067 338.28 308.903 337.812 308.903 337.164V333.504H308.123V332.388H308.903V330.744H310.283V332.388H311.891V333.504H310.283ZM312.696 335.664C312.696 335 312.832 334.412 313.104 333.9C313.384 333.388 313.76 332.992 314.232 332.712C314.712 332.424 315.24 332.28 315.816 332.28C316.336 332.28 316.788 332.384 317.172 332.592C317.564 332.792 317.876 333.044 318.108 333.348V332.388H319.488V339H318.108V338.016C317.876 338.328 317.56 338.588 317.16 338.796C316.76 339.004 316.304 339.108 315.792 339.108C315.224 339.108 314.704 338.964 314.232 338.676C313.76 338.38 313.384 337.972 313.104 337.452C312.832 336.924 312.696 336.328 312.696 335.664ZM318.108 335.688C318.108 335.232 318.012 334.836 317.82 334.5C317.636 334.164 317.392 333.908 317.088 333.732C316.784 333.556 316.456 333.468 316.104 333.468C315.752 333.468 315.424 333.556 315.12 333.732C314.816 333.9 314.568 334.152 314.376 334.488C314.192 334.816 314.1 335.208 314.1 335.664C314.1 336.12 314.192 336.52 314.376 336.864C314.568 337.208 314.816 337.472 315.12 337.656C315.432 337.832 315.76 337.92 316.104 337.92C316.456 337.92 316.784 337.832 317.088 337.656C317.392 337.48 317.636 337.224 317.82 336.888C318.012 336.544 318.108 336.144 318.108 335.688ZM322.653 333.348C322.853 333.012 323.117 332.752 323.445 332.568C323.781 332.376 324.177 332.28 324.633 332.28V333.696H324.285C323.749 333.696 323.341 333.832 323.061 334.104C322.789 334.376 322.653 334.848 322.653 335.52V339H321.285V332.388H322.653V333.348ZM327.486 333.504V337.164C327.486 337.412 327.542 337.592 327.654 337.704C327.774 337.808 327.974 337.86 328.254 337.86H329.094V339H328.014C327.398 339 326.926 338.856 326.598 338.568C326.27 338.28 326.106 337.812 326.106 337.164V333.504H325.326V332.388H326.106V330.744H327.486V332.388H329.094V333.504H327.486Z" fill="white"/>
</svg>
