<svg width="250" height="28" viewBox="0 0 250 28" fill="none" xmlns="http://www.w3.org/2000/svg">
<rect width="250" height="28" rx="5" fill="#1B1B1B"/>
<path d="M13.59 12.4C14.2767 12.4 14.8233 12.5933 15.23 12.98C15.6433 13.3667 15.85 13.8867 15.85 14.54C15.85 14.6933 15.8333 14.8767 15.8 15.09C15.7733 15.2367 15.7267 15.4167 15.66 15.63H11.45C11.4433 15.6767 11.44 15.7467 11.44 15.84C11.44 16.2333 11.56 16.5467 11.8 16.78C12.0467 17.0133 12.3667 17.13 12.76 17.13C13.38 17.13 13.8567 16.8733 14.19 16.36H15.42C15.1667 16.8667 14.7933 17.2833 14.3 17.61C13.8067 17.93 13.2367 18.09 12.59 18.09C12.13 18.09 11.7267 18 11.38 17.82C11.0333 17.64 10.7633 17.3833 10.57 17.05C10.3767 16.71 10.28 16.3133 10.28 15.86C10.28 15.6667 10.3 15.46 10.34 15.24C10.44 14.6733 10.6433 14.1767 10.95 13.75C11.2567 13.3167 11.6367 12.9833 12.09 12.75C12.55 12.5167 13.05 12.4 13.59 12.4ZM14.66 14.81C14.6733 14.69 14.68 14.6033 14.68 14.55C14.68 14.1833 14.5567 13.8933 14.31 13.68C14.07 13.4667 13.7567 13.36 13.37 13.36C12.9633 13.36 12.5967 13.49 12.27 13.75C11.9433 14.01 11.72 14.3633 11.6 14.81H14.66ZM19.2619 15.2L20.5419 18H19.2519L18.3919 16.13L16.9419 18H15.7519L18.0119 15.29L16.7219 12.49H18.0119L18.8719 14.36L20.3219 12.49H21.5119L19.2619 15.2ZM21.5021 15.22C21.6021 14.6667 21.8021 14.1767 22.1021 13.75C22.4088 13.3233 22.7821 12.9933 23.2221 12.76C23.6621 12.52 24.1221 12.4 24.6021 12.4C25.0354 12.4 25.3988 12.4867 25.6921 12.66C25.9854 12.8267 26.2054 13.0367 26.3521 13.29L26.4921 12.49H27.6421L26.6721 18H25.5221L25.6721 17.18C25.4321 17.44 25.1288 17.6567 24.7621 17.83C24.4021 18.0033 24.0088 18.09 23.5821 18.09C23.1688 18.09 22.7988 17.9967 22.4721 17.81C22.1521 17.6233 21.8988 17.36 21.7121 17.02C21.5321 16.6733 21.4421 16.2767 21.4421 15.83C21.4421 15.63 21.4621 15.4267 21.5021 15.22ZM26.0121 15.24C26.0388 15.1133 26.0521 14.9767 26.0521 14.83C26.0521 14.3833 25.9188 14.0333 25.6521 13.78C25.3921 13.52 25.0654 13.39 24.6721 13.39C24.3788 13.39 24.0921 13.4633 23.8121 13.61C23.5321 13.75 23.2888 13.96 23.0821 14.24C22.8754 14.5133 22.7388 14.84 22.6721 15.22C22.6454 15.3467 22.6321 15.4833 22.6321 15.63C22.6321 16.0833 22.7621 16.4433 23.0221 16.71C23.2888 16.97 23.6188 17.1 24.0121 17.1C24.3054 17.1 24.5921 17.0267 24.8721 16.88C25.1521 16.7333 25.3954 16.52 25.6021 16.24C25.8088 15.9533 25.9454 15.62 26.0121 15.24ZM35.8295 12.4C36.4095 12.4 36.8728 12.5567 37.2195 12.87C37.5661 13.1833 37.7395 13.6267 37.7395 14.2C37.7395 14.3533 37.7228 14.5367 37.6895 14.75L37.1095 18H35.9795L36.5295 14.92C36.5561 14.7333 36.5695 14.6 36.5695 14.52C36.5695 14.1533 36.4661 13.8733 36.2595 13.68C36.0595 13.4867 35.7795 13.39 35.4195 13.39C34.9861 13.39 34.6195 13.5233 34.3195 13.79C34.0261 14.05 33.8395 14.4267 33.7595 14.92L33.2095 18H32.0795L32.6295 14.92C32.6561 14.7333 32.6695 14.6 32.6695 14.52C32.6695 14.1533 32.5661 13.8733 32.3595 13.68C32.1595 13.4867 31.8795 13.39 31.5195 13.39C31.0861 13.39 30.7195 13.5233 30.4195 13.79C30.1261 14.05 29.9395 14.4267 29.8595 14.92V14.89L29.3095 18H28.1695L29.1395 12.49H30.2795L30.1695 13.13C30.3895 12.9033 30.6528 12.7267 30.9595 12.6C31.2728 12.4667 31.5961 12.4 31.9295 12.4C32.3695 12.4 32.7461 12.4933 33.0595 12.68C33.3795 12.8667 33.6028 13.1367 33.7295 13.49C33.9495 13.1567 34.2528 12.8933 34.6395 12.7C35.0261 12.5 35.4228 12.4 35.8295 12.4ZM40.5301 13.3C40.7701 13.0467 41.0701 12.8333 41.4301 12.66C41.7967 12.4867 42.1901 12.4 42.6101 12.4C43.0301 12.4 43.4034 12.49 43.7301 12.67C44.0567 12.85 44.3101 13.1067 44.4901 13.44C44.6701 13.7733 44.7601 14.1633 44.7601 14.61C44.7601 14.8033 44.7401 15.0067 44.7001 15.22C44.6001 15.7733 44.3967 16.27 44.0901 16.71C43.7901 17.1433 43.4201 17.4833 42.9801 17.73C42.5467 17.97 42.0901 18.09 41.6101 18.09C41.1901 18.09 40.8301 18.0067 40.5301 17.84C40.2367 17.6667 40.0067 17.4533 39.8401 17.2L39.2401 20.62H38.1001L39.5301 12.49H40.6701L40.5301 13.3ZM43.5401 15.22C43.5667 15.0933 43.5801 14.9567 43.5801 14.81C43.5801 14.3633 43.4467 14.0167 43.1801 13.77C42.9201 13.5167 42.5901 13.39 42.1901 13.39C41.9034 13.39 41.6167 13.4633 41.3301 13.61C41.0501 13.7567 40.8067 13.97 40.6001 14.25C40.3934 14.53 40.2567 14.86 40.1901 15.24C40.1634 15.3667 40.1501 15.5033 40.1501 15.65C40.1501 16.0967 40.2801 16.45 40.5401 16.71C40.8067 16.97 41.1367 17.1 41.5301 17.1C41.8234 17.1 42.1101 17.0267 42.3901 16.88C42.6767 16.7267 42.9234 16.5067 43.1301 16.22C43.3367 15.9333 43.4734 15.6 43.5401 15.22ZM47.7874 10.6L46.4774 18H45.3374L46.6474 10.6H47.7874ZM51.3341 12.4C52.0208 12.4 52.5675 12.5933 52.9741 12.98C53.3875 13.3667 53.5941 13.8867 53.5941 14.54C53.5941 14.6933 53.5775 14.8767 53.5441 15.09C53.5175 15.2367 53.4708 15.4167 53.4041 15.63H49.1941C49.1875 15.6767 49.1841 15.7467 49.1841 15.84C49.1841 16.2333 49.3041 16.5467 49.5441 16.78C49.7908 17.0133 50.1108 17.13 50.5041 17.13C51.1241 17.13 51.6008 16.8733 51.9341 16.36H53.1641C52.9108 16.8667 52.5375 17.2833 52.0441 17.61C51.5508 17.93 50.9808 18.09 50.3341 18.09C49.8741 18.09 49.4708 18 49.1241 17.82C48.7775 17.64 48.5075 17.3833 48.3141 17.05C48.1208 16.71 48.0241 16.3133 48.0241 15.86C48.0241 15.6667 48.0441 15.46 48.0841 15.24C48.1841 14.6733 48.3875 14.1767 48.6941 13.75C49.0008 13.3167 49.3808 12.9833 49.8341 12.75C50.2941 12.5167 50.7941 12.4 51.3341 12.4ZM52.4041 14.81C52.4175 14.69 52.4241 14.6033 52.4241 14.55C52.4241 14.1833 52.3008 13.8933 52.0541 13.68C51.8141 13.4667 51.5008 13.36 51.1141 13.36C50.7075 13.36 50.3408 13.49 50.0141 13.75C49.6875 14.01 49.4641 14.3633 49.3441 14.81H52.4041ZM59.0541 15.97C58.7341 15.97 58.4707 15.87 58.2641 15.67C58.0641 15.47 57.9641 15.2167 57.9641 14.91C57.9641 14.63 58.0374 14.3733 58.1841 14.14C58.3307 13.9 58.5241 13.71 58.7641 13.57C59.0041 13.43 59.2541 13.36 59.5141 13.36C59.8407 13.36 60.1074 13.46 60.3141 13.66C60.5207 13.86 60.6241 14.1167 60.6241 14.43C60.6241 14.7033 60.5507 14.96 60.4041 15.2C60.2574 15.4333 60.0607 15.62 59.8141 15.76C59.5741 15.9 59.3207 15.97 59.0541 15.97ZM64.8713 15.22C64.9713 14.6667 65.1713 14.1767 65.4713 13.75C65.7779 13.3233 66.1513 12.9933 66.5913 12.76C67.0313 12.52 67.4946 12.4 67.9813 12.4C68.3413 12.4 68.6813 12.48 69.0013 12.64C69.3213 12.7933 69.5646 13 69.7313 13.26L70.2013 10.6H71.3513L70.0412 18H68.8913L69.0413 17.17C68.8013 17.4433 68.5013 17.6667 68.1413 17.84C67.7879 18.0067 67.3979 18.09 66.9713 18.09C66.5513 18.09 66.1779 17.9967 65.8512 17.81C65.5246 17.6233 65.2679 17.36 65.0813 17.02C64.9013 16.6733 64.8113 16.2767 64.8113 15.83C64.8113 15.63 64.8313 15.4267 64.8713 15.22ZM69.3813 15.24C69.4079 15.1133 69.4213 14.9767 69.4213 14.83C69.4213 14.3833 69.2879 14.0333 69.0213 13.78C68.7613 13.52 68.4346 13.39 68.0413 13.39C67.7479 13.39 67.4613 13.4633 67.1813 13.61C66.9013 13.75 66.6579 13.96 66.4513 14.24C66.2446 14.5133 66.1079 14.84 66.0413 15.22C66.0146 15.3467 66.0012 15.4833 66.0012 15.63C66.0012 16.0833 66.1313 16.4433 66.3913 16.71C66.6579 16.97 66.9879 17.1 67.3813 17.1C67.6746 17.1 67.9613 17.0267 68.2413 16.88C68.5213 16.7333 68.7646 16.52 68.9713 16.24C69.1779 15.9533 69.3146 15.62 69.3813 15.24ZM74.8986 12.4C75.5853 12.4 76.1319 12.5933 76.5386 12.98C76.9519 13.3667 77.1586 13.8867 77.1586 14.54C77.1586 14.6933 77.1419 14.8767 77.1086 15.09C77.0819 15.2367 77.0353 15.4167 76.9686 15.63H72.7586C72.7519 15.6767 72.7486 15.7467 72.7486 15.84C72.7486 16.2333 72.8686 16.5467 73.1086 16.78C73.3553 17.0133 73.6753 17.13 74.0686 17.13C74.6886 17.13 75.1653 16.8733 75.4986 16.36H76.7286C76.4753 16.8667 76.1019 17.2833 75.6086 17.61C75.1153 17.93 74.5453 18.09 73.8986 18.09C73.4386 18.09 73.0353 18 72.6886 17.82C72.3419 17.64 72.0719 17.3833 71.8786 17.05C71.6853 16.71 71.5886 16.3133 71.5886 15.86C71.5886 15.6667 71.6086 15.46 71.6486 15.24C71.7486 14.6733 71.9519 14.1767 72.2586 13.75C72.5653 13.3167 72.9453 12.9833 73.3986 12.75C73.8586 12.5167 74.3586 12.4 74.8986 12.4ZM75.9686 14.81C75.9819 14.69 75.9886 14.6033 75.9886 14.55C75.9886 14.1833 75.8653 13.8933 75.6186 13.68C75.3786 13.4667 75.0653 13.36 74.6786 13.36C74.2719 13.36 73.9053 13.49 73.5786 13.75C73.2519 14.01 73.0286 14.3633 72.9086 14.81H75.9686ZM80.1605 10.6L78.8505 18H77.7105L79.0205 10.6H80.1605ZM83.4552 15.22C83.5552 14.6667 83.7552 14.1767 84.0552 13.75C84.3619 13.3233 84.7352 12.9933 85.1752 12.76C85.6152 12.52 86.0786 12.4 86.5652 12.4C86.9252 12.4 87.2652 12.48 87.5852 12.64C87.9052 12.7933 88.1486 13 88.3152 13.26L88.7852 10.6H89.9352L88.6252 18H87.4752L87.6252 17.17C87.3852 17.4433 87.0852 17.6667 86.7252 17.84C86.3719 18.0067 85.9819 18.09 85.5552 18.09C85.1352 18.09 84.7619 17.9967 84.4352 17.81C84.1086 17.6233 83.8519 17.36 83.6652 17.02C83.4852 16.6733 83.3952 16.2767 83.3952 15.83C83.3952 15.63 83.4152 15.4267 83.4552 15.22ZM87.9652 15.24C87.9919 15.1133 88.0052 14.9767 88.0052 14.83C88.0052 14.3833 87.8719 14.0333 87.6052 13.78C87.3452 13.52 87.0186 13.39 86.6252 13.39C86.3319 13.39 86.0452 13.4633 85.7652 13.61C85.4852 13.75 85.2419 13.96 85.0352 14.24C84.8286 14.5133 84.6919 14.84 84.6252 15.22C84.5986 15.3467 84.5852 15.4833 84.5852 15.63C84.5852 16.0833 84.7152 16.4433 84.9752 16.71C85.2419 16.97 85.5719 17.1 85.9652 17.1C86.2586 17.1 86.5452 17.0267 86.8252 16.88C87.1052 16.7333 87.3486 16.52 87.5552 16.24C87.7619 15.9533 87.8986 15.62 87.9652 15.24ZM92.5326 18.09C92.0659 18.09 91.6559 17.9933 91.3026 17.8C90.9492 17.6067 90.6726 17.3333 90.4726 16.98C90.2792 16.6267 90.1826 16.2233 90.1826 15.77C90.1826 15.15 90.3259 14.5833 90.6126 14.07C90.9059 13.5567 91.3059 13.15 91.8126 12.85C92.3259 12.55 92.8959 12.4 93.5226 12.4C93.9892 12.4 94.4026 12.5 94.7626 12.7C95.1226 12.8933 95.4026 13.1667 95.6026 13.52C95.8092 13.8667 95.9126 14.27 95.9126 14.73C95.9126 15.35 95.7626 15.9167 95.4626 16.43C95.1626 16.9433 94.7559 17.35 94.2426 17.65C93.7292 17.9433 93.1592 18.09 92.5326 18.09ZM92.6726 17.13C93.0526 17.13 93.3992 17.0233 93.7126 16.81C94.0326 16.59 94.2826 16.3033 94.4626 15.95C94.6426 15.59 94.7326 15.2067 94.7326 14.8C94.7326 14.34 94.6026 13.9867 94.3426 13.74C94.0826 13.4867 93.7559 13.36 93.3626 13.36C92.9759 13.36 92.6292 13.47 92.3226 13.69C92.0226 13.9033 91.7859 14.1933 91.6126 14.56C91.4459 14.92 91.3626 15.3067 91.3626 15.72C91.3626 16.1667 91.4826 16.5133 91.7226 16.76C91.9692 17.0067 92.2859 17.13 92.6726 17.13ZM96.6095 15.24C96.7095 14.6733 96.9095 14.1767 97.2095 13.75C97.5162 13.3167 97.8929 12.9833 98.3395 12.75C98.7929 12.5167 99.2829 12.4 99.8095 12.4C100.476 12.4 101 12.56 101.38 12.88C101.76 13.1933 101.976 13.6433 102.03 14.23H100.8C100.746 13.9567 100.623 13.7433 100.43 13.59C100.236 13.4367 99.9729 13.36 99.6395 13.36C99.1729 13.36 98.7729 13.5267 98.4395 13.86C98.1062 14.1867 97.8862 14.6467 97.7795 15.24C97.7462 15.4533 97.7295 15.6267 97.7295 15.76C97.7295 16.2 97.8395 16.54 98.0595 16.78C98.2795 17.0133 98.5862 17.13 98.9795 17.13C99.6395 17.13 100.126 16.84 100.44 16.26H101.67C101.41 16.82 101.03 17.2667 100.53 17.6C100.036 17.9267 99.4629 18.09 98.8095 18.09C98.1162 18.09 97.5662 17.8933 97.1595 17.5C96.7529 17.1 96.5495 16.56 96.5495 15.88C96.5495 15.6733 96.5695 15.46 96.6095 15.24ZM108.456 12.49L107.486 18H106.346L106.456 17.35C106.236 17.5767 105.969 17.7567 105.656 17.89C105.349 18.0167 105.032 18.08 104.706 18.08C104.126 18.08 103.662 17.9233 103.316 17.61C102.969 17.2967 102.796 16.8533 102.796 16.28C102.796 16.1267 102.812 15.9433 102.846 15.73L103.416 12.49H104.546L104.006 15.56C103.979 15.7467 103.966 15.88 103.966 15.96C103.966 16.3267 104.066 16.6067 104.266 16.8C104.472 16.9933 104.756 17.09 105.116 17.09C105.536 17.09 105.892 16.9667 106.186 16.72C106.479 16.4667 106.672 16.1033 106.766 15.63L107.316 12.49H108.456ZM116.65 12.4C117.23 12.4 117.693 12.5567 118.04 12.87C118.386 13.1833 118.56 13.6267 118.56 14.2C118.56 14.3533 118.543 14.5367 118.51 14.75L117.93 18H116.8L117.35 14.92C117.376 14.7333 117.39 14.6 117.39 14.52C117.39 14.1533 117.286 13.8733 117.08 13.68C116.88 13.4867 116.6 13.39 116.24 13.39C115.806 13.39 115.44 13.5233 115.14 13.79C114.846 14.05 114.66 14.4267 114.58 14.92L114.03 18H112.9L113.45 14.92C113.476 14.7333 113.49 14.6 113.49 14.52C113.49 14.1533 113.386 13.8733 113.18 13.68C112.98 13.4867 112.7 13.39 112.34 13.39C111.906 13.39 111.54 13.5233 111.24 13.79C110.946 14.05 110.76 14.4267 110.68 14.92V14.89L110.13 18H108.99L109.96 12.49H111.1L110.99 13.13C111.21 12.9033 111.473 12.7267 111.78 12.6C112.093 12.4667 112.416 12.4 112.75 12.4C113.19 12.4 113.566 12.4933 113.88 12.68C114.2 12.8667 114.423 13.1367 114.55 13.49C114.77 13.1567 115.073 12.8933 115.46 12.7C115.846 12.5 116.243 12.4 116.65 12.4ZM122.74 12.4C123.427 12.4 123.974 12.5933 124.38 12.98C124.794 13.3667 125 13.8867 125 14.54C125 14.6933 124.984 14.8767 124.95 15.09C124.924 15.2367 124.877 15.4167 124.81 15.63H120.6C120.594 15.6767 120.59 15.7467 120.59 15.84C120.59 16.2333 120.71 16.5467 120.95 16.78C121.197 17.0133 121.517 17.13 121.91 17.13C122.53 17.13 123.007 16.8733 123.34 16.36H124.57C124.317 16.8667 123.944 17.2833 123.45 17.61C122.957 17.93 122.387 18.09 121.74 18.09C121.28 18.09 120.877 18 120.53 17.82C120.184 17.64 119.914 17.3833 119.72 17.05C119.527 16.71 119.43 16.3133 119.43 15.86C119.43 15.6667 119.45 15.46 119.49 15.24C119.59 14.6733 119.794 14.1767 120.1 13.75C120.407 13.3167 120.787 12.9833 121.24 12.75C121.7 12.5167 122.2 12.4 122.74 12.4ZM123.81 14.81C123.824 14.69 123.83 14.6033 123.83 14.55C123.83 14.1833 123.707 13.8933 123.46 13.68C123.22 13.4667 122.907 13.36 122.52 13.36C122.114 13.36 121.747 13.49 121.42 13.75C121.094 14.01 120.87 14.3633 120.75 14.81H123.81ZM129.322 12.4C129.902 12.4 130.362 12.5567 130.702 12.87C131.049 13.1767 131.222 13.62 131.222 14.2C131.222 14.3467 131.206 14.53 131.172 14.75L130.592 18H129.462L130.012 14.92C130.039 14.7333 130.052 14.6 130.052 14.52C130.052 14.1533 129.949 13.8733 129.742 13.68C129.542 13.4867 129.262 13.39 128.902 13.39C128.469 13.39 128.102 13.5233 127.802 13.79C127.509 14.05 127.322 14.4267 127.242 14.92V14.89L126.692 18H125.552L126.522 12.49H127.662L127.552 13.13C127.779 12.9033 128.046 12.7267 128.352 12.6C128.666 12.4667 128.989 12.4 129.322 12.4ZM133.646 16.47C133.633 16.5633 133.626 16.6233 133.626 16.65C133.626 16.79 133.67 16.8933 133.756 16.96C133.843 17.02 133.986 17.05 134.186 17.05H134.886L134.716 18H133.816C133.376 18 133.04 17.9133 132.806 17.74C132.573 17.56 132.456 17.2767 132.456 16.89C132.456 16.7433 132.47 16.6033 132.496 16.47L133.036 13.42H132.386L132.546 12.49H133.206L133.446 11.12H134.596L134.356 12.49H135.686L135.526 13.42H134.186L133.646 16.47ZM136.217 18.07C136.037 18.07 135.89 18.0133 135.777 17.9C135.664 17.7867 135.607 17.6433 135.607 17.47C135.607 17.2367 135.694 17.0367 135.867 16.87C136.047 16.6967 136.25 16.61 136.477 16.61C136.657 16.61 136.8 16.6667 136.907 16.78C137.02 16.8933 137.077 17.0367 137.077 17.21C137.077 17.4433 136.99 17.6467 136.817 17.82C136.644 17.9867 136.444 18.07 136.217 18.07ZM139.779 16.47C139.766 16.5633 139.759 16.6233 139.759 16.65C139.759 16.79 139.803 16.8933 139.889 16.96C139.976 17.02 140.119 17.05 140.319 17.05H141.019L140.849 18H139.949C139.509 18 139.173 17.9133 138.939 17.74C138.706 17.56 138.589 17.2767 138.589 16.89C138.589 16.7433 138.603 16.6033 138.629 16.47L139.169 13.42H138.519L138.679 12.49H139.339L139.579 11.12H140.729L140.489 12.49H141.819L141.659 13.42H140.319L139.779 16.47ZM144.76 15.2L146.04 18H144.75L143.89 16.13L142.44 18H141.25L143.51 15.29L142.22 12.49H143.51L144.37 14.36L145.82 12.49H147.01L144.76 15.2ZM148.49 16.47C148.477 16.5633 148.47 16.6233 148.47 16.65C148.47 16.79 148.513 16.8933 148.6 16.96C148.687 17.02 148.83 17.05 149.03 17.05H149.73L149.56 18H148.66C148.22 18 147.883 17.9133 147.65 17.74C147.417 17.56 147.3 17.2767 147.3 16.89C147.3 16.7433 147.313 16.6033 147.34 16.47L147.88 13.42H147.23L147.39 12.49H148.05L148.29 11.12H149.44L149.2 12.49H150.53L150.37 13.42H149.03L148.49 16.47Z" fill="white" fill-opacity="0.5"/>
</svg>
