<svg width="450" height="360" viewBox="0 0 450 360" fill="none" xmlns="http://www.w3.org/2000/svg">
<rect width="450" height="40" rx="15" fill="white" fill-opacity="0.1"/>
<path d="M25.232 24L23.312 20.664H22.268V24H20.9V15.66H23.78C24.42 15.66 24.96 15.772 25.4 15.996C25.848 16.22 26.18 16.52 26.396 16.896C26.62 17.272 26.732 17.692 26.732 18.156C26.732 18.7 26.572 19.196 26.252 19.644C25.94 20.084 25.456 20.384 24.8 20.544L26.864 24H25.232ZM22.268 19.572H23.78C24.292 19.572 24.676 19.444 24.932 19.188C25.196 18.932 25.328 18.588 25.328 18.156C25.328 17.724 25.2 17.388 24.944 17.148C24.688 16.9 24.3 16.776 23.78 16.776H22.268V19.572ZM28.026 20.664C28.026 20 28.162 19.412 28.434 18.9C28.714 18.388 29.09 17.992 29.562 17.712C30.042 17.424 30.57 17.28 31.146 17.28C31.666 17.28 32.118 17.384 32.502 17.592C32.894 17.792 33.206 18.044 33.438 18.348V17.388H34.818V24H33.438V23.016C33.206 23.328 32.89 23.588 32.49 23.796C32.09 24.004 31.634 24.108 31.122 24.108C30.554 24.108 30.034 23.964 29.562 23.676C29.09 23.38 28.714 22.972 28.434 22.452C28.162 21.924 28.026 21.328 28.026 20.664ZM33.438 20.688C33.438 20.232 33.342 19.836 33.15 19.5C32.966 19.164 32.722 18.908 32.418 18.732C32.114 18.556 31.786 18.468 31.434 18.468C31.082 18.468 30.754 18.556 30.45 18.732C30.146 18.9 29.898 19.152 29.706 19.488C29.522 19.816 29.43 20.208 29.43 20.664C29.43 21.12 29.522 21.52 29.706 21.864C29.898 22.208 30.146 22.472 30.45 22.656C30.762 22.832 31.09 22.92 31.434 22.92C31.786 22.92 32.114 22.832 32.418 22.656C32.722 22.48 32.966 22.224 33.15 21.888C33.342 21.544 33.438 21.144 33.438 20.688ZM39.2788 17.28C39.7908 17.28 40.2428 17.384 40.6348 17.592C41.0348 17.792 41.3468 18.044 41.5708 18.348V17.388H42.9508V24.108C42.9508 24.716 42.8228 25.256 42.5668 25.728C42.3108 26.208 41.9388 26.584 41.4508 26.856C40.9708 27.128 40.3948 27.264 39.7228 27.264C38.8268 27.264 38.0828 27.052 37.4908 26.628C36.8988 26.212 36.5628 25.644 36.4828 24.924H37.8388C37.9428 25.268 38.1628 25.544 38.4988 25.752C38.8428 25.968 39.2508 26.076 39.7228 26.076C40.2748 26.076 40.7188 25.908 41.0548 25.572C41.3988 25.236 41.5708 24.748 41.5708 24.108V23.004C41.3388 23.316 41.0228 23.58 40.6228 23.796C40.2308 24.004 39.7828 24.108 39.2788 24.108C38.7028 24.108 38.1748 23.964 37.6948 23.676C37.2228 23.38 36.8468 22.972 36.5668 22.452C36.2948 21.924 36.1588 21.328 36.1588 20.664C36.1588 20 36.2948 19.412 36.5668 18.9C36.8468 18.388 37.2228 17.992 37.6948 17.712C38.1748 17.424 38.7028 17.28 39.2788 17.28ZM41.5708 20.688C41.5708 20.232 41.4748 19.836 41.2828 19.5C41.0988 19.164 40.8548 18.908 40.5508 18.732C40.2468 18.556 39.9188 18.468 39.5668 18.468C39.2148 18.468 38.8868 18.556 38.5828 18.732C38.2788 18.9 38.0308 19.152 37.8388 19.488C37.6548 19.816 37.5628 20.208 37.5628 20.664C37.5628 21.12 37.6548 21.52 37.8388 21.864C38.0308 22.208 38.2788 22.472 38.5828 22.656C38.8948 22.832 39.2228 22.92 39.5668 22.92C39.9188 22.92 40.2468 22.832 40.5508 22.656C40.8548 22.48 41.0988 22.224 41.2828 21.888C41.4748 21.544 41.5708 21.144 41.5708 20.688ZM45.4437 16.512C45.1957 16.512 44.9877 16.428 44.8197 16.26C44.6517 16.092 44.5677 15.884 44.5677 15.636C44.5677 15.388 44.6517 15.18 44.8197 15.012C44.9877 14.844 45.1957 14.76 45.4437 14.76C45.6837 14.76 45.8877 14.844 46.0557 15.012C46.2237 15.18 46.3077 15.388 46.3077 15.636C46.3077 15.884 46.2237 16.092 46.0557 16.26C45.8877 16.428 45.6837 16.512 45.4437 16.512ZM46.1157 17.388V24H44.7477V17.388H46.1157ZM51.2477 17.28C51.7677 17.28 52.2317 17.388 52.6397 17.604C53.0557 17.82 53.3797 18.14 53.6117 18.564C53.8437 18.988 53.9597 19.5 53.9597 20.1V24H52.6037V20.304C52.6037 19.712 52.4557 19.26 52.1597 18.948C51.8637 18.628 51.4597 18.468 50.9477 18.468C50.4357 18.468 50.0277 18.628 49.7237 18.948C49.4277 19.26 49.2797 19.712 49.2797 20.304V24H47.9117V17.388H49.2797V18.144C49.5037 17.872 49.7877 17.66 50.1317 17.508C50.4837 17.356 50.8557 17.28 51.2477 17.28ZM58.3687 17.28C58.8807 17.28 59.3327 17.384 59.7247 17.592C60.1247 17.792 60.4367 18.044 60.6607 18.348V17.388H62.0407V24.108C62.0407 24.716 61.9127 25.256 61.6567 25.728C61.4007 26.208 61.0287 26.584 60.5407 26.856C60.0607 27.128 59.4847 27.264 58.8127 27.264C57.9167 27.264 57.1727 27.052 56.5807 26.628C55.9887 26.212 55.6527 25.644 55.5727 24.924H56.9287C57.0327 25.268 57.2527 25.544 57.5887 25.752C57.9327 25.968 58.3407 26.076 58.8127 26.076C59.3647 26.076 59.8087 25.908 60.1447 25.572C60.4887 25.236 60.6607 24.748 60.6607 24.108V23.004C60.4287 23.316 60.1127 23.58 59.7127 23.796C59.3207 24.004 58.8727 24.108 58.3687 24.108C57.7927 24.108 57.2647 23.964 56.7847 23.676C56.3127 23.38 55.9367 22.972 55.6567 22.452C55.3847 21.924 55.2487 21.328 55.2487 20.664C55.2487 20 55.3847 19.412 55.6567 18.9C55.9367 18.388 56.3127 17.992 56.7847 17.712C57.2647 17.424 57.7927 17.28 58.3687 17.28ZM60.6607 20.688C60.6607 20.232 60.5647 19.836 60.3727 19.5C60.1887 19.164 59.9447 18.908 59.6407 18.732C59.3367 18.556 59.0087 18.468 58.6567 18.468C58.3047 18.468 57.9767 18.556 57.6727 18.732C57.3687 18.9 57.1207 19.152 56.9287 19.488C56.7447 19.816 56.6527 20.208 56.6527 20.664C56.6527 21.12 56.7447 21.52 56.9287 21.864C57.1207 22.208 57.3687 22.472 57.6727 22.656C57.9847 22.832 58.3127 22.92 58.6567 22.92C59.0087 22.92 59.3367 22.832 59.6407 22.656C59.9447 22.48 60.1887 22.224 60.3727 21.888C60.5647 21.544 60.6607 21.144 60.6607 20.688Z" fill="white"/>
<path d="M234.94 22.58H232.03L231.53 24H230.34L232.83 17.04H234.15L236.64 24H235.44L234.94 22.58ZM234.62 21.65L233.49 18.42L232.35 21.65H234.62ZM238.863 19.29C239.029 19.01 239.249 18.7933 239.523 18.64C239.803 18.48 240.133 18.4 240.513 18.4V19.58H240.223C239.776 19.58 239.436 19.6933 239.203 19.92C238.976 20.1467 238.863 20.54 238.863 21.1V24H237.723V18.49H238.863V19.29ZM241.181 21.24C241.181 20.6733 241.294 20.1767 241.521 19.75C241.754 19.3167 242.074 18.9833 242.481 18.75C242.887 18.5167 243.354 18.4 243.881 18.4C244.547 18.4 245.097 18.56 245.531 18.88C245.971 19.1933 246.267 19.6433 246.421 20.23H245.191C245.091 19.9567 244.931 19.7433 244.711 19.59C244.491 19.4367 244.214 19.36 243.881 19.36C243.414 19.36 243.041 19.5267 242.761 19.86C242.487 20.1867 242.351 20.6467 242.351 21.24C242.351 21.8333 242.487 22.2967 242.761 22.63C243.041 22.9633 243.414 23.13 243.881 23.13C244.541 23.13 244.977 22.84 245.191 22.26H246.421C246.261 22.82 245.961 23.2667 245.521 23.6C245.081 23.9267 244.534 24.09 243.881 24.09C243.354 24.09 242.887 23.9733 242.481 23.74C242.074 23.5 241.754 23.1667 241.521 22.74C241.294 22.3067 241.181 21.8067 241.181 21.24ZM255.864 24H254.724L251.294 18.81V24H250.154V17.04H251.294L254.724 22.22V17.04H255.864V24ZM259.751 24.09C259.231 24.09 258.761 23.9733 258.341 23.74C257.921 23.5 257.591 23.1667 257.351 22.74C257.111 22.3067 256.991 21.8067 256.991 21.24C256.991 20.68 257.115 20.1833 257.361 19.75C257.608 19.3167 257.945 18.9833 258.371 18.75C258.798 18.5167 259.275 18.4 259.801 18.4C260.328 18.4 260.805 18.5167 261.231 18.75C261.658 18.9833 261.995 19.3167 262.241 19.75C262.488 20.1833 262.611 20.68 262.611 21.24C262.611 21.8 262.485 22.2967 262.231 22.73C261.978 23.1633 261.631 23.5 261.191 23.74C260.758 23.9733 260.278 24.09 259.751 24.09ZM259.751 23.1C260.045 23.1 260.318 23.03 260.571 22.89C260.831 22.75 261.041 22.54 261.201 22.26C261.361 21.98 261.441 21.64 261.441 21.24C261.441 20.84 261.365 20.5033 261.211 20.23C261.058 19.95 260.855 19.74 260.601 19.6C260.348 19.46 260.075 19.39 259.781 19.39C259.488 19.39 259.215 19.46 258.961 19.6C258.715 19.74 258.518 19.95 258.371 20.23C258.225 20.5033 258.151 20.84 258.151 21.24C258.151 21.8333 258.301 22.2933 258.601 22.62C258.908 22.94 259.291 23.1 259.751 23.1ZM264.878 19.29C265.045 19.01 265.265 18.7933 265.538 18.64C265.818 18.48 266.148 18.4 266.528 18.4V19.58H266.238C265.792 19.58 265.452 19.6933 265.218 19.92C264.992 20.1467 264.878 20.54 264.878 21.1V24H263.738V18.49H264.878V19.29ZM268.906 19.42V22.47C268.906 22.6767 268.953 22.8267 269.046 22.92C269.146 23.0067 269.313 23.05 269.546 23.05H270.246V24H269.346C268.833 24 268.44 23.88 268.166 23.64C267.893 23.4 267.756 23.01 267.756 22.47V19.42H267.106V18.49H267.756V17.12H268.906V18.49H270.246V19.42H268.906ZM274.147 18.4C274.567 18.4 274.94 18.49 275.267 18.67C275.6 18.85 275.86 19.1167 276.047 19.47C276.24 19.8233 276.337 20.25 276.337 20.75V24H275.207V20.92C275.207 20.4267 275.084 20.05 274.837 19.79C274.59 19.5233 274.254 19.39 273.827 19.39C273.4 19.39 273.06 19.5233 272.807 19.79C272.56 20.05 272.437 20.4267 272.437 20.92V24H271.297V16.6H272.437V19.13C272.63 18.8967 272.874 18.7167 273.167 18.59C273.467 18.4633 273.794 18.4 274.147 18.4Z" fill="#808080"/>
<path d="M410.316 18.51C410.356 17.89 410.593 17.4067 411.026 17.06C411.466 16.7133 412.026 16.54 412.706 16.54C413.173 16.54 413.576 16.6233 413.916 16.79C414.256 16.9567 414.513 17.1833 414.686 17.47C414.86 17.7567 414.946 18.08 414.946 18.44C414.946 18.8533 414.836 19.2067 414.616 19.5C414.396 19.7933 414.133 19.99 413.826 20.09V20.13C414.22 20.25 414.526 20.47 414.746 20.79C414.966 21.1033 415.076 21.5067 415.076 22C415.076 22.3933 414.986 22.7433 414.806 23.05C414.626 23.3567 414.36 23.6 414.006 23.78C413.653 23.9533 413.23 24.04 412.736 24.04C412.016 24.04 411.423 23.8567 410.956 23.49C410.496 23.1167 410.25 22.5833 410.216 21.89H411.316C411.343 22.2433 411.48 22.5333 411.726 22.76C411.973 22.98 412.306 23.09 412.726 23.09C413.133 23.09 413.446 22.98 413.666 22.76C413.886 22.5333 413.996 22.2433 413.996 21.89C413.996 21.4233 413.846 21.0933 413.546 20.9C413.253 20.7 412.8 20.6 412.186 20.6H411.926V19.66H412.196C412.736 19.6533 413.146 19.5633 413.426 19.39C413.713 19.2167 413.856 18.9433 413.856 18.57C413.856 18.25 413.753 17.9967 413.546 17.81C413.34 17.6167 413.046 17.52 412.666 17.52C412.293 17.52 412.003 17.6167 411.796 17.81C411.59 17.9967 411.466 18.23 411.426 18.51H410.316ZM416.884 24.07C416.677 24.07 416.504 24 416.364 23.86C416.224 23.72 416.154 23.5467 416.154 23.34C416.154 23.1333 416.224 22.96 416.364 22.82C416.504 22.68 416.677 22.61 416.884 22.61C417.084 22.61 417.254 22.68 417.394 22.82C417.534 22.96 417.604 23.1333 417.604 23.34C417.604 23.5467 417.534 23.72 417.394 23.86C417.254 24 417.084 24.07 416.884 24.07ZM416.884 19.87C416.677 19.87 416.504 19.8 416.364 19.66C416.224 19.52 416.154 19.3467 416.154 19.14C416.154 18.9333 416.224 18.76 416.364 18.62C416.504 18.48 416.677 18.41 416.884 18.41C417.084 18.41 417.254 18.48 417.394 18.62C417.534 18.76 417.604 18.9333 417.604 19.14C417.604 19.3467 417.534 19.52 417.394 19.66C417.254 19.8 417.084 19.87 416.884 19.87ZM418.705 18.51C418.745 17.89 418.982 17.4067 419.415 17.06C419.855 16.7133 420.415 16.54 421.095 16.54C421.562 16.54 421.965 16.6233 422.305 16.79C422.645 16.9567 422.902 17.1833 423.075 17.47C423.248 17.7567 423.335 18.08 423.335 18.44C423.335 18.8533 423.225 19.2067 423.005 19.5C422.785 19.7933 422.522 19.99 422.215 20.09V20.13C422.608 20.25 422.915 20.47 423.135 20.79C423.355 21.1033 423.465 21.5067 423.465 22C423.465 22.3933 423.375 22.7433 423.195 23.05C423.015 23.3567 422.748 23.6 422.395 23.78C422.042 23.9533 421.618 24.04 421.125 24.04C420.405 24.04 419.812 23.8567 419.345 23.49C418.885 23.1167 418.638 22.5833 418.605 21.89H419.705C419.732 22.2433 419.868 22.5333 420.115 22.76C420.362 22.98 420.695 23.09 421.115 23.09C421.522 23.09 421.835 22.98 422.055 22.76C422.275 22.5333 422.385 22.2433 422.385 21.89C422.385 21.4233 422.235 21.0933 421.935 20.9C421.642 20.7 421.188 20.6 420.575 20.6H420.315V19.66H420.585C421.125 19.6533 421.535 19.5633 421.815 19.39C422.102 19.2167 422.245 18.9433 422.245 18.57C422.245 18.25 422.142 17.9967 421.935 17.81C421.728 17.6167 421.435 17.52 421.055 17.52C420.682 17.52 420.392 17.6167 420.185 17.81C419.978 17.9967 419.855 18.23 419.815 18.51H418.705ZM424.643 18.51C424.683 17.89 424.919 17.4067 425.353 17.06C425.793 16.7133 426.353 16.54 427.033 16.54C427.499 16.54 427.903 16.6233 428.243 16.79C428.583 16.9567 428.839 17.1833 429.013 17.47C429.186 17.7567 429.273 18.08 429.273 18.44C429.273 18.8533 429.163 19.2067 428.943 19.5C428.723 19.7933 428.459 19.99 428.153 20.09V20.13C428.546 20.25 428.853 20.47 429.073 20.79C429.293 21.1033 429.403 21.5067 429.403 22C429.403 22.3933 429.313 22.7433 429.133 23.05C428.953 23.3567 428.686 23.6 428.333 23.78C427.979 23.9533 427.556 24.04 427.063 24.04C426.343 24.04 425.749 23.8567 425.283 23.49C424.823 23.1167 424.576 22.5833 424.543 21.89H425.643C425.669 22.2433 425.806 22.5333 426.053 22.76C426.299 22.98 426.633 23.09 427.053 23.09C427.459 23.09 427.773 22.98 427.993 22.76C428.213 22.5333 428.323 22.2433 428.323 21.89C428.323 21.4233 428.173 21.0933 427.873 20.9C427.579 20.7 427.126 20.6 426.513 20.6H426.253V19.66H426.523C427.063 19.6533 427.473 19.5633 427.753 19.39C428.039 19.2167 428.183 18.9433 428.183 18.57C428.183 18.25 428.079 17.9967 427.873 17.81C427.666 17.6167 427.373 17.52 426.993 17.52C426.619 17.52 426.329 17.6167 426.123 17.81C425.916 17.9967 425.793 18.23 425.753 18.51H424.643Z" fill="#808080"/>
</svg>
