<svg width="240" height="50" viewBox="0 0 240 50" fill="none" xmlns="http://www.w3.org/2000/svg">
<path d="M0.444 17.812C0.444 16.996 0.632 16.264 1.008 15.616C1.392 14.968 1.908 14.464 2.556 14.104C3.212 13.736 3.928 13.552 4.704 13.552C5.592 13.552 6.38 13.772 7.068 14.212C7.764 14.644 8.268 15.26 8.58 16.06H6.936C6.72 15.62 6.42 15.292 6.036 15.076C5.652 14.86 5.208 14.752 4.704 14.752C4.152 14.752 3.66 14.876 3.228 15.124C2.796 15.372 2.456 15.728 2.208 16.192C1.968 16.656 1.848 17.196 1.848 17.812C1.848 18.428 1.968 18.968 2.208 19.432C2.456 19.896 2.796 20.256 3.228 20.512C3.66 20.76 4.152 20.884 4.704 20.884C5.208 20.884 5.652 20.776 6.036 20.56C6.42 20.344 6.72 20.016 6.936 19.576H8.58C8.268 20.376 7.764 20.992 7.068 21.424C6.38 21.856 5.592 22.072 4.704 22.072C3.92 22.072 3.204 21.892 2.556 21.532C1.908 21.164 1.392 20.656 1.008 20.008C0.632 19.36 0.444 18.628 0.444 17.812ZM9.72525 18.664C9.72525 18 9.86125 17.412 10.1333 16.9C10.4133 16.388 10.7893 15.992 11.2613 15.712C11.7413 15.424 12.2693 15.28 12.8453 15.28C13.3653 15.28 13.8173 15.384 14.2013 15.592C14.5933 15.792 14.9053 16.044 15.1373 16.348V15.388H16.5173V22H15.1373V21.016C14.9053 21.328 14.5893 21.588 14.1893 21.796C13.7893 22.004 13.3333 22.108 12.8213 22.108C12.2533 22.108 11.7333 21.964 11.2613 21.676C10.7893 21.38 10.4133 20.972 10.1333 20.452C9.86125 19.924 9.72525 19.328 9.72525 18.664ZM15.1373 18.688C15.1373 18.232 15.0413 17.836 14.8493 17.5C14.6653 17.164 14.4213 16.908 14.1173 16.732C13.8133 16.556 13.4853 16.468 13.1333 16.468C12.7813 16.468 12.4533 16.556 12.1493 16.732C11.8453 16.9 11.5973 17.152 11.4053 17.488C11.2213 17.816 11.1293 18.208 11.1293 18.664C11.1293 19.12 11.2213 19.52 11.4053 19.864C11.5973 20.208 11.8453 20.472 12.1493 20.656C12.4613 20.832 12.7893 20.92 13.1333 20.92C13.4853 20.92 13.8133 20.832 14.1173 20.656C14.4213 20.48 14.6653 20.224 14.8493 19.888C15.0413 19.544 15.1373 19.144 15.1373 18.688ZM21.6501 15.28C22.1701 15.28 22.6341 15.388 23.0421 15.604C23.4581 15.82 23.7821 16.14 24.0141 16.564C24.2461 16.988 24.3621 17.5 24.3621 18.1V22H23.0061V18.304C23.0061 17.712 22.8581 17.26 22.5621 16.948C22.2661 16.628 21.8621 16.468 21.3501 16.468C20.8381 16.468 20.4301 16.628 20.1261 16.948C19.8301 17.26 19.6821 17.712 19.6821 18.304V22H18.3141V15.388H19.6821V16.144C19.9061 15.872 20.1901 15.66 20.5341 15.508C20.8861 15.356 21.2581 15.28 21.6501 15.28ZM35.4042 13.66L32.6442 18.976V22H31.2762V18.976L28.5042 13.66H30.0282L31.9602 17.752L33.8922 13.66H35.4042ZM39.3578 22.108C38.7338 22.108 38.1698 21.968 37.6658 21.688C37.1618 21.4 36.7658 21 36.4778 20.488C36.1898 19.968 36.0458 19.368 36.0458 18.688C36.0458 18.016 36.1938 17.42 36.4898 16.9C36.7858 16.38 37.1898 15.98 37.7018 15.7C38.2138 15.42 38.7858 15.28 39.4178 15.28C40.0498 15.28 40.6218 15.42 41.1338 15.7C41.6458 15.98 42.0498 16.38 42.3458 16.9C42.6418 17.42 42.7898 18.016 42.7898 18.688C42.7898 19.36 42.6378 19.956 42.3338 20.476C42.0298 20.996 41.6138 21.4 41.0858 21.688C40.5658 21.968 39.9898 22.108 39.3578 22.108ZM39.3578 20.92C39.7098 20.92 40.0378 20.836 40.3418 20.668C40.6538 20.5 40.9058 20.248 41.0978 19.912C41.2898 19.576 41.3858 19.168 41.3858 18.688C41.3858 18.208 41.2938 17.804 41.1098 17.476C40.9258 17.14 40.6818 16.888 40.3778 16.72C40.0738 16.552 39.7458 16.468 39.3938 16.468C39.0418 16.468 38.7138 16.552 38.4098 16.72C38.1138 16.888 37.8778 17.14 37.7018 17.476C37.5258 17.804 37.4378 18.208 37.4378 18.688C37.4378 19.4 37.6178 19.952 37.9778 20.344C38.3458 20.728 38.8058 20.92 39.3578 20.92ZM50.1302 15.388V22H48.7622V21.22C48.5462 21.492 48.2622 21.708 47.9102 21.868C47.5662 22.02 47.1982 22.096 46.8062 22.096C46.2862 22.096 45.8182 21.988 45.4022 21.772C44.9942 21.556 44.6702 21.236 44.4302 20.812C44.1982 20.388 44.0822 19.876 44.0822 19.276V15.388H45.4382V19.072C45.4382 19.664 45.5862 20.12 45.8822 20.44C46.1782 20.752 46.5822 20.908 47.0942 20.908C47.6062 20.908 48.0102 20.752 48.3062 20.44C48.6102 20.12 48.7622 19.664 48.7622 19.072V15.388H50.1302ZM59.9603 13.66V14.776H56.4203V17.236H59.1803V18.352H56.4203V22H55.0523V13.66H59.9603ZM67.2881 18.532C67.2881 18.78 67.2721 19.004 67.2401 19.204H62.1881C62.2281 19.732 62.4241 20.156 62.7761 20.476C63.1281 20.796 63.5601 20.956 64.0721 20.956C64.8081 20.956 65.3281 20.648 65.6321 20.032H67.1081C66.9081 20.64 66.5441 21.14 66.0161 21.532C65.4961 21.916 64.8481 22.108 64.0721 22.108C63.4401 22.108 62.8721 21.968 62.3681 21.688C61.8721 21.4 61.4801 21 61.1921 20.488C60.9121 19.968 60.7721 19.368 60.7721 18.688C60.7721 18.008 60.9081 17.412 61.1801 16.9C61.4601 16.38 61.8481 15.98 62.3441 15.7C62.8481 15.42 63.4241 15.28 64.0721 15.28C64.6961 15.28 65.2521 15.416 65.7401 15.688C66.2281 15.96 66.6081 16.344 66.8801 16.84C67.1521 17.328 67.2881 17.892 67.2881 18.532ZM65.8601 18.1C65.8521 17.596 65.6721 17.192 65.3201 16.888C64.9681 16.584 64.5321 16.432 64.0121 16.432C63.5401 16.432 63.1361 16.584 62.8001 16.888C62.4641 17.184 62.2641 17.588 62.2001 18.1H65.8601ZM74.6944 18.532C74.6944 18.78 74.6784 19.004 74.6464 19.204H69.5944C69.6344 19.732 69.8304 20.156 70.1824 20.476C70.5344 20.796 70.9664 20.956 71.4784 20.956C72.2144 20.956 72.7344 20.648 73.0384 20.032H74.5144C74.3144 20.64 73.9504 21.14 73.4224 21.532C72.9024 21.916 72.2544 22.108 71.4784 22.108C70.8464 22.108 70.2784 21.968 69.7744 21.688C69.2784 21.4 68.8864 21 68.5984 20.488C68.3184 19.968 68.1784 19.368 68.1784 18.688C68.1784 18.008 68.3144 17.412 68.5864 16.9C68.8664 16.38 69.2544 15.98 69.7504 15.7C70.2544 15.42 70.8304 15.28 71.4784 15.28C72.1024 15.28 72.6584 15.416 73.1464 15.688C73.6344 15.96 74.0144 16.344 74.2864 16.84C74.5584 17.328 74.6944 17.892 74.6944 18.532ZM73.2664 18.1C73.2584 17.596 73.0784 17.192 72.7264 16.888C72.3744 16.584 71.9384 16.432 71.4184 16.432C70.9464 16.432 70.5424 16.584 70.2064 16.888C69.8704 17.184 69.6704 17.588 69.6064 18.1H73.2664ZM77.4086 13.12V22H76.0406V13.12H77.4086ZM91.1059 13.66V22H89.7379V16.288L87.1939 22H86.2459L83.6899 16.288V22H82.3219V13.66H83.7979L86.7259 20.2L89.6419 13.66H91.1059ZM98.9639 18.532C98.9639 18.78 98.9479 19.004 98.9159 19.204H93.8639C93.9039 19.732 94.0999 20.156 94.4519 20.476C94.8039 20.796 95.2359 20.956 95.7479 20.956C96.4839 20.956 97.0039 20.648 97.3079 20.032H98.7839C98.5839 20.64 98.2199 21.14 97.6919 21.532C97.1719 21.916 96.5239 22.108 95.7479 22.108C95.1159 22.108 94.5479 21.968 94.0439 21.688C93.5479 21.4 93.1559 21 92.8679 20.488C92.5879 19.968 92.4479 19.368 92.4479 18.688C92.4479 18.008 92.5839 17.412 92.8559 16.9C93.1359 16.38 93.5239 15.98 94.0199 15.7C94.5239 15.42 95.0999 15.28 95.7479 15.28C96.3719 15.28 96.9279 15.416 97.4159 15.688C97.9039 15.96 98.2839 16.344 98.5559 16.84C98.8279 17.328 98.9639 17.892 98.9639 18.532ZM97.5359 18.1C97.5279 17.596 97.3479 17.192 96.9959 16.888C96.6439 16.584 96.2079 16.432 95.6879 16.432C95.2159 16.432 94.8119 16.584 94.4759 16.888C94.1399 17.184 93.9399 17.588 93.8759 18.1H97.5359Z" fill="black"/>
<path d="M9.8 31.05L7.74 38H6.45L4.99 32.74L3.44 38L2.16 38.01L0.19 31.05H1.4L2.84 36.71L4.4 31.05H5.68L7.13 36.68L8.58 31.05H9.8ZM13.1302 38.09C12.6102 38.09 12.1402 37.9733 11.7202 37.74C11.3002 37.5 10.9702 37.1667 10.7302 36.74C10.4902 36.3067 10.3702 35.8067 10.3702 35.24C10.3702 34.68 10.4936 34.1833 10.7402 33.75C10.9869 33.3167 11.3236 32.9833 11.7502 32.75C12.1769 32.5167 12.6536 32.4 13.1802 32.4C13.7069 32.4 14.1836 32.5167 14.6102 32.75C15.0369 32.9833 15.3736 33.3167 15.6202 33.75C15.8669 34.1833 15.9902 34.68 15.9902 35.24C15.9902 35.8 15.8636 36.2967 15.6102 36.73C15.3569 37.1633 15.0102 37.5 14.5702 37.74C14.1369 37.9733 13.6569 38.09 13.1302 38.09ZM13.1302 37.1C13.4236 37.1 13.6969 37.03 13.9502 36.89C14.2102 36.75 14.4202 36.54 14.5802 36.26C14.7402 35.98 14.8202 35.64 14.8202 35.24C14.8202 34.84 14.7436 34.5033 14.5902 34.23C14.4369 33.95 14.2336 33.74 13.9802 33.6C13.7269 33.46 13.4536 33.39 13.1602 33.39C12.8669 33.39 12.5936 33.46 12.3402 33.6C12.0936 33.74 11.8969 33.95 11.7502 34.23C11.6036 34.5033 11.5302 34.84 11.5302 35.24C11.5302 35.8333 11.6802 36.2933 11.9802 36.62C12.2869 36.94 12.6702 37.1 13.1302 37.1ZM19.8972 32.4C20.3305 32.4 20.7172 32.49 21.0572 32.67C21.4039 32.85 21.6739 33.1167 21.8672 33.47C22.0605 33.8233 22.1572 34.25 22.1572 34.75V38H21.0272V34.92C21.0272 34.4267 20.9039 34.05 20.6572 33.79C20.4105 33.5233 20.0739 33.39 19.6472 33.39C19.2205 33.39 18.8805 33.5233 18.6272 33.79C18.3805 34.05 18.2572 34.4267 18.2572 34.92V38H17.1172V32.49H18.2572V33.12C18.4439 32.8933 18.6805 32.7167 18.9672 32.59C19.2605 32.4633 19.5705 32.4 19.8972 32.4ZM24.9413 33.42V36.47C24.9413 36.6767 24.988 36.8267 25.0813 36.92C25.1813 37.0067 25.348 37.05 25.5813 37.05H26.2813V38H25.3813C24.868 38 24.4747 37.88 24.2013 37.64C23.928 37.4 23.7913 37.01 23.7913 36.47V33.42H23.1413V32.49H23.7913V31.12H24.9413V32.49H26.2813V33.42H24.9413ZM29.722 38.09C29.202 38.09 28.732 37.9733 28.312 37.74C27.892 37.5 27.562 37.1667 27.322 36.74C27.082 36.3067 26.962 35.8067 26.962 35.24C26.962 34.68 27.0854 34.1833 27.332 33.75C27.5787 33.3167 27.9154 32.9833 28.342 32.75C28.7687 32.5167 29.2454 32.4 29.772 32.4C30.2987 32.4 30.7754 32.5167 31.202 32.75C31.6287 32.9833 31.9654 33.3167 32.212 33.75C32.4587 34.1833 32.582 34.68 32.582 35.24C32.582 35.8 32.4554 36.2967 32.202 36.73C31.9487 37.1633 31.602 37.5 31.162 37.74C30.7287 37.9733 30.2487 38.09 29.722 38.09ZM29.722 37.1C30.0154 37.1 30.2887 37.03 30.542 36.89C30.802 36.75 31.012 36.54 31.172 36.26C31.332 35.98 31.412 35.64 31.412 35.24C31.412 34.84 31.3354 34.5033 31.182 34.23C31.0287 33.95 30.8254 33.74 30.572 33.6C30.3187 33.46 30.0454 33.39 29.752 33.39C29.4587 33.39 29.1854 33.46 28.932 33.6C28.6854 33.74 28.4887 33.95 28.342 34.23C28.1954 34.5033 28.122 34.84 28.122 35.24C28.122 35.8333 28.272 36.2933 28.572 36.62C28.8787 36.94 29.262 37.1 29.722 37.1ZM34.849 30.6V38H33.709V30.6H34.849ZM37.4857 30.6V38H36.3457V30.6H37.4857ZM38.6024 35.22C38.6024 34.6667 38.7158 34.1767 38.9424 33.75C39.1758 33.3233 39.4891 32.9933 39.8824 32.76C40.2824 32.52 40.7224 32.4 41.2024 32.4C41.6358 32.4 42.0124 32.4867 42.3324 32.66C42.6591 32.8267 42.9191 33.0367 43.1124 33.29V32.49H44.2624V38H43.1124V37.18C42.9191 37.44 42.6558 37.6567 42.3224 37.83C41.9891 38.0033 41.6091 38.09 41.1824 38.09C40.7091 38.09 40.2758 37.97 39.8824 37.73C39.4891 37.4833 39.1758 37.1433 38.9424 36.71C38.7158 36.27 38.6024 35.7733 38.6024 35.22ZM43.1124 35.24C43.1124 34.86 43.0324 34.53 42.8724 34.25C42.7191 33.97 42.5158 33.7567 42.2624 33.61C42.0091 33.4633 41.7358 33.39 41.4424 33.39C41.1491 33.39 40.8758 33.4633 40.6224 33.61C40.3691 33.75 40.1624 33.96 40.0024 34.24C39.8491 34.5133 39.7724 34.84 39.7724 35.22C39.7724 35.6 39.8491 35.9333 40.0024 36.22C40.1624 36.5067 40.3691 36.7267 40.6224 36.88C40.8824 37.0267 41.1558 37.1 41.4424 37.1C41.7358 37.1 42.0091 37.0267 42.2624 36.88C42.5158 36.7333 42.7191 36.52 42.8724 36.24C43.0324 35.9533 43.1124 35.62 43.1124 35.24Z" fill="#808080"/>
</svg>
