<svg width="240" height="50" viewBox="0 0 240 50" fill="none" xmlns="http://www.w3.org/2000/svg">
<path d="M4.704 22.084C3.928 22.084 3.212 21.904 2.556 21.544C1.908 21.176 1.392 20.668 1.008 20.02C0.632 19.364 0.444 18.628 0.444 17.812C0.444 16.996 0.632 16.264 1.008 15.616C1.392 14.968 1.908 14.464 2.556 14.104C3.212 13.736 3.928 13.552 4.704 13.552C5.488 13.552 6.204 13.736 6.852 14.104C7.508 14.464 8.024 14.968 8.4 15.616C8.776 16.264 8.964 16.996 8.964 17.812C8.964 18.628 8.776 19.364 8.4 20.02C8.024 20.668 7.508 21.176 6.852 21.544C6.204 21.904 5.488 22.084 4.704 22.084ZM4.704 20.896C5.256 20.896 5.748 20.772 6.18 20.524C6.612 20.268 6.948 19.908 7.188 19.444C7.436 18.972 7.56 18.428 7.56 17.812C7.56 17.196 7.436 16.656 7.188 16.192C6.948 15.728 6.612 15.372 6.18 15.124C5.748 14.876 5.256 14.752 4.704 14.752C4.152 14.752 3.66 14.876 3.228 15.124C2.796 15.372 2.456 15.728 2.208 16.192C1.968 16.656 1.848 17.196 1.848 17.812C1.848 18.428 1.968 18.972 2.208 19.444C2.456 19.908 2.796 20.268 3.228 20.524C3.66 20.772 4.152 20.896 4.704 20.896ZM13.6462 15.28C14.1662 15.28 14.6302 15.388 15.0382 15.604C15.4542 15.82 15.7782 16.14 16.0102 16.564C16.2422 16.988 16.3582 17.5 16.3582 18.1V22H15.0022V18.304C15.0022 17.712 14.8542 17.26 14.5582 16.948C14.2622 16.628 13.8582 16.468 13.3462 16.468C12.8342 16.468 12.4262 16.628 12.1222 16.948C11.8262 17.26 11.6782 17.712 11.6782 18.304V22H10.3102V15.388H11.6782V16.144C11.9022 15.872 12.1862 15.66 12.5302 15.508C12.8822 15.356 13.2542 15.28 13.6462 15.28ZM26.9831 15.388L24.9311 22H23.4911L22.1591 17.116L20.8271 22H19.3871L17.3231 15.388H18.7151L20.0951 20.704L21.4991 15.388H22.9271L24.2711 20.68L25.6391 15.388H26.9831ZM27.5495 18.664C27.5495 18 27.6855 17.412 27.9575 16.9C28.2375 16.388 28.6135 15.992 29.0855 15.712C29.5655 15.424 30.0935 15.28 30.6695 15.28C31.1895 15.28 31.6415 15.384 32.0255 15.592C32.4175 15.792 32.7295 16.044 32.9615 16.348V15.388H34.3415V22H32.9615V21.016C32.7295 21.328 32.4135 21.588 32.0135 21.796C31.6135 22.004 31.1575 22.108 30.6455 22.108C30.0775 22.108 29.5575 21.964 29.0855 21.676C28.6135 21.38 28.2375 20.972 27.9575 20.452C27.6855 19.924 27.5495 19.328 27.5495 18.664ZM32.9615 18.688C32.9615 18.232 32.8655 17.836 32.6735 17.5C32.4895 17.164 32.2455 16.908 31.9415 16.732C31.6375 16.556 31.3095 16.468 30.9575 16.468C30.6055 16.468 30.2775 16.556 29.9735 16.732C29.6695 16.9 29.4215 17.152 29.2295 17.488C29.0455 17.816 28.9535 18.208 28.9535 18.664C28.9535 19.12 29.0455 19.52 29.2295 19.864C29.4215 20.208 29.6695 20.472 29.9735 20.656C30.2855 20.832 30.6135 20.92 30.9575 20.92C31.3095 20.92 31.6375 20.832 31.9415 20.656C32.2455 20.48 32.4895 20.224 32.6735 19.888C32.8655 19.544 32.9615 19.144 32.9615 18.688ZM37.5063 16.348C37.7063 16.012 37.9703 15.752 38.2983 15.568C38.6343 15.376 39.0303 15.28 39.4863 15.28V16.696H39.1383C38.6023 16.696 38.1943 16.832 37.9143 17.104C37.6423 17.376 37.5063 17.848 37.5063 18.52V22H36.1383V15.388H37.5063V16.348ZM40.2878 18.664C40.2878 18 40.4238 17.412 40.6958 16.9C40.9758 16.388 41.3518 15.992 41.8238 15.712C42.3038 15.424 42.8358 15.28 43.4198 15.28C43.8518 15.28 44.2758 15.376 44.6918 15.568C45.1158 15.752 45.4518 16 45.6998 16.312V13.12H47.0798V22H45.6998V21.004C45.4758 21.324 45.1638 21.588 44.7638 21.796C44.3718 22.004 43.9198 22.108 43.4078 22.108C42.8318 22.108 42.3038 21.964 41.8238 21.676C41.3518 21.38 40.9758 20.972 40.6958 20.452C40.4238 19.924 40.2878 19.328 40.2878 18.664ZM45.6998 18.688C45.6998 18.232 45.6038 17.836 45.4118 17.5C45.2278 17.164 44.9838 16.908 44.6798 16.732C44.3758 16.556 44.0478 16.468 43.6958 16.468C43.3438 16.468 43.0158 16.556 42.7118 16.732C42.4078 16.9 42.1598 17.152 41.9678 17.488C41.7838 17.816 41.6918 18.208 41.6918 18.664C41.6918 19.12 41.7838 19.52 41.9678 19.864C42.1598 20.208 42.4078 20.472 42.7118 20.656C43.0238 20.832 43.3518 20.92 43.6958 20.92C44.0478 20.92 44.3758 20.832 44.6798 20.656C44.9838 20.48 45.2278 20.224 45.4118 19.888C45.6038 19.544 45.6998 19.144 45.6998 18.688Z" fill="white"/>
<path d="M3.02 30.05C3.76 30.05 4.40667 30.1933 4.96 30.48C5.52 30.76 5.95 31.1667 6.25 31.7C6.55667 32.2267 6.71 32.8433 6.71 33.55C6.71 34.2567 6.55667 34.87 6.25 35.39C5.95 35.91 5.52 36.31 4.96 36.59C4.40667 36.8633 3.76 37 3.02 37H0.75V30.05H3.02ZM3.02 36.07C3.83333 36.07 4.45667 35.85 4.89 35.41C5.32333 34.97 5.54 34.35 5.54 33.55C5.54 32.7433 5.32333 32.1133 4.89 31.66C4.45667 31.2067 3.83333 30.98 3.02 30.98H1.89V36.07H3.02ZM7.45984 34.22C7.45984 33.6667 7.57318 33.1767 7.79984 32.75C8.03318 32.3233 8.34651 31.9933 8.73984 31.76C9.13984 31.52 9.57984 31.4 10.0598 31.4C10.4932 31.4 10.8698 31.4867 11.1898 31.66C11.5165 31.8267 11.7765 32.0367 11.9698 32.29V31.49H13.1198V37H11.9698V36.18C11.7765 36.44 11.5132 36.6567 11.1798 36.83C10.8465 37.0033 10.4665 37.09 10.0398 37.09C9.56651 37.09 9.13318 36.97 8.73984 36.73C8.34651 36.4833 8.03318 36.1433 7.79984 35.71C7.57318 35.27 7.45984 34.7733 7.45984 34.22ZM11.9698 34.24C11.9698 33.86 11.8898 33.53 11.7298 33.25C11.5765 32.97 11.3732 32.7567 11.1198 32.61C10.8665 32.4633 10.5932 32.39 10.2998 32.39C10.0065 32.39 9.73318 32.4633 9.47984 32.61C9.22651 32.75 9.01984 32.96 8.85984 33.24C8.70651 33.5133 8.62984 33.84 8.62984 34.22C8.62984 34.6 8.70651 34.9333 8.85984 35.22C9.01984 35.5067 9.22651 35.7267 9.47984 35.88C9.73984 36.0267 10.0132 36.1 10.2998 36.1C10.5932 36.1 10.8665 36.0267 11.1198 35.88C11.3732 35.7333 11.5765 35.52 11.7298 35.24C11.8898 34.9533 11.9698 34.62 11.9698 34.24ZM17.3972 31.4C17.8305 31.4 18.2172 31.49 18.5572 31.67C18.9039 31.85 19.1739 32.1167 19.3672 32.47C19.5605 32.8233 19.6572 33.25 19.6572 33.75V37H18.5272V33.92C18.5272 33.4267 18.4039 33.05 18.1572 32.79C17.9105 32.5233 17.5739 32.39 17.1472 32.39C16.7205 32.39 16.3805 32.5233 16.1272 32.79C15.8805 33.05 15.7572 33.4267 15.7572 33.92V37H14.6172V31.49H15.7572V32.12C15.9439 31.8933 16.1805 31.7167 16.4672 31.59C16.7605 31.4633 17.0705 31.4 17.3972 31.4ZM21.6913 30.76C21.4847 30.76 21.3113 30.69 21.1713 30.55C21.0313 30.41 20.9613 30.2367 20.9613 30.03C20.9613 29.8233 21.0313 29.65 21.1713 29.51C21.3113 29.37 21.4847 29.3 21.6913 29.3C21.8913 29.3 22.0613 29.37 22.2013 29.51C22.3413 29.65 22.4113 29.8233 22.4113 30.03C22.4113 30.2367 22.3413 30.41 22.2013 30.55C22.0613 30.69 21.8913 30.76 21.6913 30.76ZM22.2513 31.49V37H21.1113V31.49H22.2513ZM29.9557 37L28.3557 34.22H27.4857V37H26.3457V30.05H28.7457C29.279 30.05 29.729 30.1433 30.0957 30.33C30.469 30.5167 30.7457 30.7667 30.9257 31.08C31.1124 31.3933 31.2057 31.7433 31.2057 32.13C31.2057 32.5833 31.0724 32.9967 30.8057 33.37C30.5457 33.7367 30.1424 33.9867 29.5957 34.12L31.3157 37H29.9557ZM27.4857 33.31H28.7457C29.1724 33.31 29.4924 33.2033 29.7057 32.99C29.9257 32.7767 30.0357 32.49 30.0357 32.13C30.0357 31.77 29.929 31.49 29.7157 31.29C29.5024 31.0833 29.179 30.98 28.7457 30.98H27.4857V33.31ZM35.0541 37.09C34.5341 37.09 34.0641 36.9733 33.6441 36.74C33.2241 36.5 32.8941 36.1667 32.6541 35.74C32.4141 35.3067 32.2941 34.8067 32.2941 34.24C32.2941 33.68 32.4174 33.1833 32.6641 32.75C32.9107 32.3167 33.2474 31.9833 33.6741 31.75C34.1007 31.5167 34.5774 31.4 35.1041 31.4C35.6307 31.4 36.1074 31.5167 36.5341 31.75C36.9607 31.9833 37.2974 32.3167 37.5441 32.75C37.7907 33.1833 37.9141 33.68 37.9141 34.24C37.9141 34.8 37.7874 35.2967 37.5341 35.73C37.2807 36.1633 36.9341 36.5 36.4941 36.74C36.0607 36.9733 35.5807 37.09 35.0541 37.09ZM35.0541 36.1C35.3474 36.1 35.6207 36.03 35.8741 35.89C36.1341 35.75 36.3441 35.54 36.5041 35.26C36.6641 34.98 36.7441 34.64 36.7441 34.24C36.7441 33.84 36.6674 33.5033 36.5141 33.23C36.3607 32.95 36.1574 32.74 35.9041 32.6C35.6507 32.46 35.3774 32.39 35.0841 32.39C34.7907 32.39 34.5174 32.46 34.2641 32.6C34.0174 32.74 33.8207 32.95 33.6741 33.23C33.5274 33.5033 33.4541 33.84 33.4541 34.24C33.4541 34.8333 33.6041 35.2933 33.9041 35.62C34.2107 35.94 34.5941 36.1 35.0541 36.1ZM41.041 37.09C40.6077 37.09 40.2177 37.0133 39.871 36.86C39.531 36.7 39.261 36.4867 39.061 36.22C38.861 35.9467 38.7543 35.6433 38.741 35.31H39.921C39.941 35.5433 40.051 35.74 40.251 35.9C40.4577 36.0533 40.7143 36.13 41.021 36.13C41.341 36.13 41.5877 36.07 41.761 35.95C41.941 35.8233 42.031 35.6633 42.031 35.47C42.031 35.2633 41.931 35.11 41.731 35.01C41.5377 34.91 41.2277 34.8 40.801 34.68C40.3877 34.5667 40.051 34.4567 39.791 34.35C39.531 34.2433 39.3043 34.08 39.111 33.86C38.9243 33.64 38.831 33.35 38.831 32.99C38.831 32.6967 38.9177 32.43 39.091 32.19C39.2643 31.9433 39.511 31.75 39.831 31.61C40.1577 31.47 40.531 31.4 40.951 31.4C41.5777 31.4 42.081 31.56 42.461 31.88C42.8477 32.1933 43.0543 32.6233 43.081 33.17H41.941C41.921 32.9233 41.821 32.7267 41.641 32.58C41.461 32.4333 41.2177 32.36 40.911 32.36C40.611 32.36 40.381 32.4167 40.221 32.53C40.061 32.6433 39.981 32.7933 39.981 32.98C39.981 33.1267 40.0343 33.25 40.141 33.35C40.2477 33.45 40.3777 33.53 40.531 33.59C40.6843 33.6433 40.911 33.7133 41.211 33.8C41.611 33.9067 41.9377 34.0167 42.191 34.13C42.451 34.2367 42.6743 34.3967 42.861 34.61C43.0477 34.8233 43.1443 35.1067 43.151 35.46C43.151 35.7733 43.0643 36.0533 42.891 36.3C42.7177 36.5467 42.471 36.74 42.151 36.88C41.8377 37.02 41.4677 37.09 41.041 37.09ZM49.4328 34.11C49.4328 34.3167 49.4195 34.5033 49.3928 34.67H45.1828C45.2161 35.11 45.3795 35.4633 45.6728 35.73C45.9661 35.9967 46.3261 36.13 46.7528 36.13C47.3661 36.13 47.7995 35.8733 48.0528 35.36H49.2828C49.1161 35.8667 48.8128 36.2833 48.3728 36.61C47.9395 36.93 47.3995 37.09 46.7528 37.09C46.2261 37.09 45.7528 36.9733 45.3328 36.74C44.9195 36.5 44.5928 36.1667 44.3528 35.74C44.1195 35.3067 44.0028 34.8067 44.0028 34.24C44.0028 33.6733 44.1161 33.1767 44.3428 32.75C44.5761 32.3167 44.8995 31.9833 45.3128 31.75C45.7328 31.5167 46.2128 31.4 46.7528 31.4C47.2728 31.4 47.7361 31.5133 48.1428 31.74C48.5495 31.9667 48.8661 32.2867 49.0928 32.7C49.3195 33.1067 49.4328 33.5767 49.4328 34.11ZM48.2428 33.75C48.2361 33.33 48.0861 32.9933 47.7928 32.74C47.4995 32.4867 47.1361 32.36 46.7028 32.36C46.3095 32.36 45.9728 32.4867 45.6928 32.74C45.4128 32.9867 45.2461 33.3233 45.1928 33.75H48.2428ZM53.3347 31.4C53.768 31.4 54.1547 31.49 54.4947 31.67C54.8414 31.85 55.1114 32.1167 55.3047 32.47C55.498 32.8233 55.5947 33.25 55.5947 33.75V37H54.4647V33.92C54.4647 33.4267 54.3414 33.05 54.0947 32.79C53.848 32.5233 53.5114 32.39 53.0847 32.39C52.658 32.39 52.318 32.5233 52.0647 32.79C51.818 33.05 51.6947 33.4267 51.6947 33.92V37H50.5547V31.49H51.6947V32.12C51.8814 31.8933 52.118 31.7167 52.4047 31.59C52.698 31.4633 53.008 31.4 53.3347 31.4ZM59.4388 37.09C58.9188 37.09 58.4488 36.9733 58.0288 36.74C57.6088 36.5 57.2788 36.1667 57.0388 35.74C56.7988 35.3067 56.6788 34.8067 56.6788 34.24C56.6788 33.68 56.8022 33.1833 57.0488 32.75C57.2955 32.3167 57.6322 31.9833 58.0588 31.75C58.4855 31.5167 58.9622 31.4 59.4888 31.4C60.0155 31.4 60.4922 31.5167 60.9188 31.75C61.3455 31.9833 61.6822 32.3167 61.9288 32.75C62.1755 33.1833 62.2988 33.68 62.2988 34.24C62.2988 34.8 62.1722 35.2967 61.9188 35.73C61.6655 36.1633 61.3188 36.5 60.8788 36.74C60.4455 36.9733 59.9655 37.09 59.4388 37.09ZM59.4388 36.1C59.7322 36.1 60.0055 36.03 60.2588 35.89C60.5188 35.75 60.7288 35.54 60.8888 35.26C61.0488 34.98 61.1288 34.64 61.1288 34.24C61.1288 33.84 61.0522 33.5033 60.8988 33.23C60.7455 32.95 60.5422 32.74 60.2888 32.6C60.0355 32.46 59.7622 32.39 59.4688 32.39C59.1755 32.39 58.9022 32.46 58.6488 32.6C58.4022 32.74 58.2055 32.95 58.0588 33.23C57.9122 33.5033 57.8388 33.84 57.8388 34.24C57.8388 34.8333 57.9888 35.2933 58.2888 35.62C58.5955 35.94 58.9788 36.1 59.4388 36.1ZM68.4758 34.11C68.4758 34.3167 68.4624 34.5033 68.4358 34.67H64.2258C64.2591 35.11 64.4224 35.4633 64.7158 35.73C65.0091 35.9967 65.3691 36.13 65.7958 36.13C66.4091 36.13 66.8424 35.8733 67.0958 35.36H68.3258C68.1591 35.8667 67.8558 36.2833 67.4158 36.61C66.9824 36.93 66.4424 37.09 65.7958 37.09C65.2691 37.09 64.7958 36.9733 64.3758 36.74C63.9624 36.5 63.6358 36.1667 63.3958 35.74C63.1624 35.3067 63.0458 34.8067 63.0458 34.24C63.0458 33.6733 63.1591 33.1767 63.3858 32.75C63.6191 32.3167 63.9424 31.9833 64.3558 31.75C64.7758 31.5167 65.2558 31.4 65.7958 31.4C66.3158 31.4 66.7791 31.5133 67.1858 31.74C67.5924 31.9667 67.9091 32.2867 68.1358 32.7C68.3624 33.1067 68.4758 33.5767 68.4758 34.11ZM67.2858 33.75C67.2791 33.33 67.1291 32.9933 66.8358 32.74C66.5424 32.4867 66.1791 32.36 65.7458 32.36C65.3524 32.36 65.0158 32.4867 64.7358 32.74C64.4558 32.9867 64.2891 33.3233 64.2358 33.75H67.2858ZM70.7377 32.29C70.9043 32.01 71.1243 31.7933 71.3977 31.64C71.6777 31.48 72.0077 31.4 72.3877 31.4V32.58H72.0977C71.651 32.58 71.311 32.6933 71.0777 32.92C70.851 33.1467 70.7377 33.54 70.7377 34.1V37H69.5977V31.49H70.7377V32.29ZM77.5832 34.97C77.3432 34.97 77.1232 34.9133 76.9232 34.8C76.7299 34.68 76.5732 34.5233 76.4532 34.33C76.3399 34.13 76.2832 33.91 76.2832 33.67C76.2832 33.3033 76.4099 32.9933 76.6632 32.74C76.9165 32.4867 77.2232 32.36 77.5832 32.36C77.9565 32.36 78.2699 32.4867 78.5232 32.74C78.7765 32.9933 78.9032 33.3033 78.9032 33.67C78.9032 34.0367 78.7765 34.3467 78.5232 34.6C78.2699 34.8467 77.9565 34.97 77.5832 34.97ZM87.44 35.58H84.53L84.03 37H82.84L85.33 30.04H86.65L89.14 37H87.94L87.44 35.58ZM87.12 34.65L85.99 31.42L84.85 34.65H87.12ZM91.3627 32.29C91.5293 32.01 91.7493 31.7933 92.0227 31.64C92.3027 31.48 92.6327 31.4 93.0127 31.4V32.58H92.7227C92.276 32.58 91.936 32.6933 91.7027 32.92C91.476 33.1467 91.3627 33.54 91.3627 34.1V37H90.2227V31.49H91.3627V32.29ZM93.6805 34.24C93.6805 33.6733 93.7939 33.1767 94.0205 32.75C94.2539 32.3167 94.5739 31.9833 94.9805 31.75C95.3872 31.5167 95.8539 31.4 96.3805 31.4C97.0472 31.4 97.5972 31.56 98.0305 31.88C98.4705 32.1933 98.7672 32.6433 98.9205 33.23H97.6905C97.5905 32.9567 97.4305 32.7433 97.2105 32.59C96.9905 32.4367 96.7139 32.36 96.3805 32.36C95.9139 32.36 95.5405 32.5267 95.2605 32.86C94.9872 33.1867 94.8505 33.6467 94.8505 34.24C94.8505 34.8333 94.9872 35.2967 95.2605 35.63C95.5405 35.9633 95.9139 36.13 96.3805 36.13C97.0405 36.13 97.4772 35.84 97.6905 35.26H98.9205C98.7605 35.82 98.4605 36.2667 98.0205 36.6C97.5805 36.9267 97.0339 37.09 96.3805 37.09C95.8539 37.09 95.3872 36.9733 94.9805 36.74C94.5739 36.5 94.2539 36.1667 94.0205 35.74C93.7939 35.3067 93.6805 34.8067 93.6805 34.24ZM108.364 37H107.224L103.794 31.81V37H102.654V30.04H103.794L107.224 35.22V30.04H108.364V37ZM112.251 37.09C111.731 37.09 111.261 36.9733 110.841 36.74C110.421 36.5 110.091 36.1667 109.851 35.74C109.611 35.3067 109.491 34.8067 109.491 34.24C109.491 33.68 109.615 33.1833 109.861 32.75C110.108 32.3167 110.445 31.9833 110.871 31.75C111.298 31.5167 111.775 31.4 112.301 31.4C112.828 31.4 113.305 31.5167 113.731 31.75C114.158 31.9833 114.495 32.3167 114.741 32.75C114.988 33.1833 115.111 33.68 115.111 34.24C115.111 34.8 114.985 35.2967 114.731 35.73C114.478 36.1633 114.131 36.5 113.691 36.74C113.258 36.9733 112.778 37.09 112.251 37.09ZM112.251 36.1C112.545 36.1 112.818 36.03 113.071 35.89C113.331 35.75 113.541 35.54 113.701 35.26C113.861 34.98 113.941 34.64 113.941 34.24C113.941 33.84 113.865 33.5033 113.711 33.23C113.558 32.95 113.355 32.74 113.101 32.6C112.848 32.46 112.575 32.39 112.281 32.39C111.988 32.39 111.715 32.46 111.461 32.6C111.215 32.74 111.018 32.95 110.871 33.23C110.725 33.5033 110.651 33.84 110.651 34.24C110.651 34.8333 110.801 35.2933 111.101 35.62C111.408 35.94 111.791 36.1 112.251 36.1ZM117.378 32.29C117.545 32.01 117.765 31.7933 118.038 31.64C118.318 31.48 118.648 31.4 119.028 31.4V32.58H118.738C118.292 32.58 117.952 32.6933 117.718 32.92C117.492 33.1467 117.378 33.54 117.378 34.1V37H116.238V31.49H117.378V32.29ZM121.406 32.42V35.47C121.406 35.6767 121.453 35.8267 121.546 35.92C121.646 36.0067 121.813 36.05 122.046 36.05H122.746V37H121.846C121.333 37 120.94 36.88 120.666 36.64C120.393 36.4 120.256 36.01 120.256 35.47V32.42H119.606V31.49H120.256V30.12H121.406V31.49H122.746V32.42H121.406ZM126.647 31.4C127.067 31.4 127.44 31.49 127.767 31.67C128.1 31.85 128.36 32.1167 128.547 32.47C128.74 32.8233 128.837 33.25 128.837 33.75V37H127.707V33.92C127.707 33.4267 127.584 33.05 127.337 32.79C127.09 32.5233 126.754 32.39 126.327 32.39C125.9 32.39 125.56 32.5233 125.307 32.79C125.06 33.05 124.937 33.4267 124.937 33.92V37H123.797V29.6H124.937V32.13C125.13 31.8967 125.374 31.7167 125.667 31.59C125.967 31.4633 126.294 31.4 126.647 31.4Z" fill="#808080"/>
</svg>
