<svg xmlns="http://www.w3.org/2000/svg" fill="none" viewBox="0 0 60 80" height="80" width="60">
<path fill="#58FF91" d="M34.5122 52C34.0322 52 33.6242 51.82 33.2882 51.46C32.9522 51.1 32.7842 50.668 32.7842 50.164V45.628H20.7962C20.2442 45.628 19.8122 45.46 19.5002 45.124C19.1882 44.788 19.0082 44.404 18.9602 43.972C18.9362 43.516 19.0562 43.108 19.3202 42.748L33.1082 24.676C33.3002 24.436 33.5162 24.244 33.7562 24.1C34.0202 23.956 34.3082 23.884 34.6202 23.884C35.1242 23.884 35.5322 24.064 35.8442 24.424C36.1562 24.784 36.3122 25.228 36.3122 25.756V42.316H38.4722C38.9762 42.316 39.4082 42.436 39.7682 42.676C40.1282 42.916 40.3082 43.348 40.3082 43.972C40.3082 44.428 40.1282 44.824 39.7682 45.16C39.4082 45.472 38.9762 45.628 38.4722 45.628H36.3122V50.164C36.3122 50.668 36.1442 51.1 35.8082 51.46C35.4722 51.82 35.0402 52 34.5122 52ZM22.9562 43.324L21.9842 42.316H32.7842V27.484L33.9002 28.924L22.9562 43.324Z"></path>
<path fill="#58FF91" d="M32.7842 45.628H33.7842C33.7842 45.0757 33.3365 44.628 32.7842 44.628V45.628ZM19.5002 45.124L20.233 44.4435L20.233 44.4435L19.5002 45.124ZM18.9602 43.972L17.9616 44.0246C17.9626 44.0439 17.9642 44.0632 17.9664 44.0824L18.9602 43.972ZM19.3202 42.748L18.5252 42.1414C18.5214 42.1465 18.5176 42.1515 18.5138 42.1566L19.3202 42.748ZM33.1082 24.676L32.3274 24.0513C32.3226 24.0573 32.3179 24.0633 32.3132 24.0694L33.1082 24.676ZM33.7562 24.1L33.2774 23.2221C33.2654 23.2287 33.2535 23.2355 33.2417 23.2425L33.7562 24.1ZM36.3122 42.316H35.3122C35.3122 42.8683 35.76 43.316 36.3122 43.316V42.316ZM39.7682 42.676L40.3229 41.8439L40.3229 41.8439L39.7682 42.676ZM39.7682 45.16L40.4232 45.9157C40.4324 45.9076 40.4416 45.8994 40.4506 45.8911L39.7682 45.16ZM36.3122 45.628V44.628C35.76 44.628 35.3122 45.0757 35.3122 45.628H36.3122ZM22.9562 43.324L22.2364 44.0181C22.439 44.2283 22.7234 44.3394 23.0149 44.3223C23.3063 44.3052 23.5757 44.1615 23.7524 43.9291L22.9562 43.324ZM21.9842 42.316V41.316C21.5831 41.316 21.2207 41.5557 21.0639 41.9249C20.907 42.2941 20.9859 42.7214 21.2644 43.0101L21.9842 42.316ZM32.7842 42.316V43.316C33.3365 43.316 33.7842 42.8683 33.7842 42.316H32.7842ZM32.7842 27.484L33.5746 26.8714C33.3128 26.5335 32.865 26.3994 32.4605 26.5378C32.056 26.6762 31.7842 27.0565 31.7842 27.484H32.7842ZM33.9002 28.924L34.6964 29.5291C34.9703 29.1687 34.9679 28.6692 34.6907 28.3114L33.9002 28.924ZM34.5122 51C34.3174 51 34.1717 50.941 34.0193 50.7777L32.5572 52.1423C33.0768 52.699 33.747 53 34.5122 53V51ZM34.0193 50.7777C33.8606 50.6076 33.7842 50.4213 33.7842 50.164H31.7842C31.7842 50.9147 32.0439 51.5924 32.5572 52.1423L34.0193 50.7777ZM33.7842 50.164V45.628H31.7842V50.164H33.7842ZM32.7842 44.628H20.7962V46.628H32.7842V44.628ZM20.7962 44.628C20.461 44.628 20.3178 44.5348 20.233 44.4435L18.7674 45.8045C19.3067 46.3852 20.0275 46.628 20.7962 46.628V44.628ZM20.233 44.4435C20.0584 44.2555 19.9771 44.0683 19.9541 43.8616L17.9664 44.0824C18.0394 44.7397 18.3181 45.3205 18.7674 45.8045L20.233 44.4435ZM19.9589 43.9194C19.9467 43.6881 20.0024 43.5087 20.1266 43.3394L18.5138 42.1566C18.11 42.7073 17.9258 43.3439 17.9616 44.0246L19.9589 43.9194ZM20.1153 43.3546L33.9033 25.2826L32.3132 24.0694L18.5252 42.1414L20.1153 43.3546ZM33.8891 25.3007C34.0141 25.1444 34.1422 25.0346 34.2707 24.9575L33.2417 23.2425C32.8903 23.4534 32.5863 23.7276 32.3274 24.0513L33.8891 25.3007ZM34.2351 24.9779C34.3466 24.9171 34.469 24.884 34.6202 24.884V22.884C34.1474 22.884 33.6939 22.9949 33.2774 23.2221L34.2351 24.9779ZM34.6202 24.884C34.8533 24.884 34.9787 24.9521 35.0885 25.0789L36.5999 23.7691C36.0858 23.1759 35.3951 22.884 34.6202 22.884V24.884ZM35.0885 25.0789C35.2256 25.237 35.3122 25.4406 35.3122 25.756H37.3122C37.3122 25.0154 37.0869 24.331 36.5999 23.7691L35.0885 25.0789ZM35.3122 25.756V42.316H37.3122V25.756H35.3122ZM36.3122 43.316H38.4722V41.316H36.3122V43.316ZM38.4722 43.316C38.8121 43.316 39.0435 43.3947 39.2135 43.5081L40.3229 41.8439C39.773 41.4773 39.1403 41.316 38.4722 41.316V43.316ZM39.2135 43.5081C39.2158 43.5095 39.2296 43.5153 39.2502 43.5646C39.2755 43.6255 39.3082 43.7504 39.3082 43.972H41.3082C41.3082 43.1727 41.0715 42.343 40.3229 41.8439L39.2135 43.5081ZM39.3082 43.972C39.3082 44.127 39.2614 44.2652 39.0859 44.4289L40.4506 45.8911C40.9951 45.3828 41.3082 44.729 41.3082 43.972H39.3082ZM39.1133 44.4043C38.9463 44.5491 38.7508 44.628 38.4722 44.628V46.628C39.2017 46.628 39.8702 46.3949 40.4232 45.9157L39.1133 44.4043ZM38.4722 44.628H36.3122V46.628H38.4722V44.628ZM35.3122 45.628V50.164H37.3122V45.628H35.3122ZM35.3122 50.164C35.3122 50.4213 35.2359 50.6076 35.0772 50.7777L36.5393 52.1423C37.0526 51.5924 37.3122 50.9147 37.3122 50.164H35.3122ZM35.0772 50.7777C34.9451 50.9192 34.7855 51 34.5122 51V53C35.295 53 35.9994 52.7208 36.5393 52.1423L35.0772 50.7777ZM23.6761 42.6299L22.7041 41.6219L21.2644 43.0101L22.2364 44.0181L23.6761 42.6299ZM21.9842 43.316H32.7842V41.316H21.9842V43.316ZM33.7842 42.316V27.484H31.7842V42.316H33.7842ZM31.9938 28.0966L33.1098 29.5366L34.6907 28.3114L33.5746 26.8714L31.9938 28.0966ZM33.1041 28.3189L22.1601 42.7189L23.7524 43.9291L34.6964 29.5291L33.1041 28.3189Z"></path>
</svg>
