<svg width="190" height="30" viewBox="0 0 190 30" fill="none" xmlns="http://www.w3.org/2000/svg">
<rect width="190" height="30" rx="15" fill="black" fill-opacity="0.25"/>
<rect x="11.4645" y="10.0503" width="12" height="2" rx="1" transform="rotate(45 11.4645 10.0503)" fill="white"/>
<rect x="19.9497" y="11.4645" width="12" height="2" rx="1" transform="rotate(135 19.9497 11.4645)" fill="white"/>
<path d="M33.02 12.05C33.76 12.05 34.4067 12.1933 34.96 12.48C35.52 12.76 35.95 13.1667 36.25 13.7C36.5567 14.2267 36.71 14.8433 36.71 15.55C36.71 16.2567 36.5567 16.87 36.25 17.39C35.95 17.91 35.52 18.31 34.96 18.59C34.4067 18.8633 33.76 19 33.02 19H30.75V12.05H33.02ZM33.02 18.07C33.8333 18.07 34.4567 17.85 34.89 17.41C35.3233 16.97 35.54 16.35 35.54 15.55C35.54 14.7433 35.3233 14.1133 34.89 13.66C34.4567 13.2067 33.8333 12.98 33.02 12.98H31.89V18.07H33.02ZM42.8898 16.11C42.8898 16.3167 42.8765 16.5033 42.8498 16.67H38.6398C38.6732 17.11 38.8365 17.4633 39.1298 17.73C39.4232 17.9967 39.7832 18.13 40.2098 18.13C40.8232 18.13 41.2565 17.8733 41.5098 17.36H42.7398C42.5732 17.8667 42.2698 18.2833 41.8298 18.61C41.3965 18.93 40.8565 19.09 40.2098 19.09C39.6832 19.09 39.2098 18.9733 38.7898 18.74C38.3765 18.5 38.0498 18.1667 37.8098 17.74C37.5765 17.3067 37.4598 16.8067 37.4598 16.24C37.4598 15.6733 37.5732 15.1767 37.7998 14.75C38.0332 14.3167 38.3565 13.9833 38.7698 13.75C39.1898 13.5167 39.6698 13.4 40.2098 13.4C40.7298 13.4 41.1932 13.5133 41.5998 13.74C42.0065 13.9667 42.3232 14.2867 42.5498 14.7C42.7765 15.1067 42.8898 15.5767 42.8898 16.11ZM41.6998 15.75C41.6932 15.33 41.5432 14.9933 41.2498 14.74C40.9565 14.4867 40.5932 14.36 40.1598 14.36C39.7665 14.36 39.4298 14.4867 39.1498 14.74C38.8698 14.9867 38.7032 15.3233 38.6498 15.75H41.6998ZM45.1517 11.6V19H44.0117V11.6H45.1517ZM51.6984 16.11C51.6984 16.3167 51.6851 16.5033 51.6584 16.67H47.4484C47.4818 17.11 47.6451 17.4633 47.9384 17.73C48.2318 17.9967 48.5918 18.13 49.0184 18.13C49.6318 18.13 50.0651 17.8733 50.3184 17.36H51.5484C51.3818 17.8667 51.0784 18.2833 50.6384 18.61C50.2051 18.93 49.6651 19.09 49.0184 19.09C48.4918 19.09 48.0184 18.9733 47.5984 18.74C47.1851 18.5 46.8584 18.1667 46.6184 17.74C46.3851 17.3067 46.2684 16.8067 46.2684 16.24C46.2684 15.6733 46.3818 15.1767 46.6084 14.75C46.8418 14.3167 47.1651 13.9833 47.5784 13.75C47.9984 13.5167 48.4784 13.4 49.0184 13.4C49.5384 13.4 50.0018 13.5133 50.4084 13.74C50.8151 13.9667 51.1318 14.2867 51.3584 14.7C51.5851 15.1067 51.6984 15.5767 51.6984 16.11ZM50.5084 15.75C50.5018 15.33 50.3518 14.9933 50.0584 14.74C49.7651 14.4867 49.4018 14.36 48.9684 14.36C48.5751 14.36 48.2384 14.4867 47.9584 14.74C47.6784 14.9867 47.5118 15.3233 47.4584 15.75H50.5084ZM54.1503 14.42V17.47C54.1503 17.6767 54.197 17.8267 54.2903 17.92C54.3903 18.0067 54.557 18.05 54.7903 18.05H55.4903V19H54.5903C54.077 19 53.6836 18.88 53.4103 18.64C53.137 18.4 53.0003 18.01 53.0003 17.47V14.42H52.3503V13.49H53.0003V12.12H54.1503V13.49H55.4903V14.42H54.1503ZM61.591 16.11C61.591 16.3167 61.5777 16.5033 61.551 16.67H57.341C57.3743 17.11 57.5377 17.4633 57.831 17.73C58.1243 17.9967 58.4843 18.13 58.911 18.13C59.5243 18.13 59.9577 17.8733 60.211 17.36H61.441C61.2743 17.8667 60.971 18.2833 60.531 18.61C60.0977 18.93 59.5577 19.09 58.911 19.09C58.3843 19.09 57.911 18.9733 57.491 18.74C57.0777 18.5 56.751 18.1667 56.511 17.74C56.2777 17.3067 56.161 16.8067 56.161 16.24C56.161 15.6733 56.2743 15.1767 56.501 14.75C56.7343 14.3167 57.0577 13.9833 57.471 13.75C57.891 13.5167 58.371 13.4 58.911 13.4C59.431 13.4 59.8943 13.5133 60.301 13.74C60.7077 13.9667 61.0243 14.2867 61.251 14.7C61.4777 15.1067 61.591 15.5767 61.591 16.11ZM60.401 15.75C60.3943 15.33 60.2443 14.9933 59.951 14.74C59.6577 14.4867 59.2943 14.36 58.861 14.36C58.4677 14.36 58.131 14.4867 57.851 14.74C57.571 14.9867 57.4043 15.3233 57.351 15.75H60.401ZM67.6205 14.42H66.6005V19H65.4505V14.42H64.8005V13.49H65.4505V13.1C65.4505 12.4667 65.6172 12.0067 65.9505 11.72C66.2905 11.4267 66.8205 11.28 67.5405 11.28V12.23C67.1939 12.23 66.9505 12.2967 66.8105 12.43C66.6705 12.5567 66.6005 12.78 66.6005 13.1V13.49H67.6205V14.42ZM69.7709 14.29C69.9375 14.01 70.1575 13.7933 70.4309 13.64C70.7109 13.48 71.0409 13.4 71.4209 13.4V14.58H71.1309C70.6842 14.58 70.3442 14.6933 70.1109 14.92C69.8842 15.1467 69.7709 15.54 69.7709 16.1V19H68.6309V13.49H69.7709V14.29ZM74.8588 19.09C74.3388 19.09 73.8688 18.9733 73.4488 18.74C73.0288 18.5 72.6988 18.1667 72.4588 17.74C72.2188 17.3067 72.0988 16.8067 72.0988 16.24C72.0988 15.68 72.2221 15.1833 72.4688 14.75C72.7154 14.3167 73.0521 13.9833 73.4788 13.75C73.9054 13.5167 74.3821 13.4 74.9088 13.4C75.4354 13.4 75.9121 13.5167 76.3388 13.75C76.7654 13.9833 77.1021 14.3167 77.3488 14.75C77.5954 15.1833 77.7188 15.68 77.7188 16.24C77.7188 16.8 77.5921 17.2967 77.3388 17.73C77.0854 18.1633 76.7388 18.5 76.2988 18.74C75.8654 18.9733 75.3854 19.09 74.8588 19.09ZM74.8588 18.1C75.1521 18.1 75.4254 18.03 75.6788 17.89C75.9388 17.75 76.1488 17.54 76.3088 17.26C76.4688 16.98 76.5488 16.64 76.5488 16.24C76.5488 15.84 76.4721 15.5033 76.3188 15.23C76.1654 14.95 75.9621 14.74 75.7088 14.6C75.4554 14.46 75.1821 14.39 74.8888 14.39C74.5954 14.39 74.3221 14.46 74.0688 14.6C73.8221 14.74 73.6254 14.95 73.4788 15.23C73.3321 15.5033 73.2588 15.84 73.2588 16.24C73.2588 16.8333 73.4088 17.2933 73.7088 17.62C74.0154 17.94 74.3988 18.1 74.8588 18.1ZM85.5157 13.4C85.949 13.4 86.3357 13.49 86.6757 13.67C87.0224 13.85 87.2924 14.1167 87.4857 14.47C87.6857 14.8233 87.7857 15.25 87.7857 15.75V19H86.6557V15.92C86.6557 15.4267 86.5324 15.05 86.2857 14.79C86.039 14.5233 85.7024 14.39 85.2757 14.39C84.849 14.39 84.509 14.5233 84.2557 14.79C84.009 15.05 83.8857 15.4267 83.8857 15.92V19H82.7557V15.92C82.7557 15.4267 82.6324 15.05 82.3857 14.79C82.139 14.5233 81.8024 14.39 81.3757 14.39C80.949 14.39 80.609 14.5233 80.3557 14.79C80.109 15.05 79.9857 15.4267 79.9857 15.92V19H78.8457V13.49H79.9857V14.12C80.1724 13.8933 80.409 13.7167 80.6957 13.59C80.9824 13.4633 81.289 13.4 81.6157 13.4C82.0557 13.4 82.449 13.4933 82.7957 13.68C83.1424 13.8667 83.409 14.1367 83.5957 14.49C83.7624 14.1567 84.0224 13.8933 84.3757 13.7C84.729 13.5 85.109 13.4 85.5157 13.4ZM93.164 14.42V17.47C93.164 17.6767 93.2107 17.8267 93.304 17.92C93.404 18.0067 93.5707 18.05 93.804 18.05H94.504V19H93.604C93.0907 19 92.6973 18.88 92.424 18.64C92.1507 18.4 92.014 18.01 92.014 17.47V14.42H91.364V13.49H92.014V12.12H93.164V13.49H94.504V14.42H93.164ZM98.4047 13.4C98.8247 13.4 99.198 13.49 99.5247 13.67C99.858 13.85 100.118 14.1167 100.305 14.47C100.498 14.8233 100.595 15.25 100.595 15.75V19H99.4647V15.92C99.4647 15.4267 99.3414 15.05 99.0947 14.79C98.848 14.5233 98.5114 14.39 98.0847 14.39C97.658 14.39 97.318 14.5233 97.0647 14.79C96.818 15.05 96.6947 15.4267 96.6947 15.92V19H95.5547V11.6H96.6947V14.13C96.888 13.8967 97.1314 13.7167 97.4247 13.59C97.7247 13.4633 98.0514 13.4 98.4047 13.4ZM107.099 16.11C107.099 16.3167 107.085 16.5033 107.059 16.67H102.849C102.882 17.11 103.045 17.4633 103.339 17.73C103.632 17.9967 103.992 18.13 104.419 18.13C105.032 18.13 105.465 17.8733 105.719 17.36H106.949C106.782 17.8667 106.479 18.2833 106.039 18.61C105.605 18.93 105.065 19.09 104.419 19.09C103.892 19.09 103.419 18.9733 102.999 18.74C102.585 18.5 102.259 18.1667 102.019 17.74C101.785 17.3067 101.669 16.8067 101.669 16.24C101.669 15.6733 101.782 15.1767 102.009 14.75C102.242 14.3167 102.565 13.9833 102.979 13.75C103.399 13.5167 103.879 13.4 104.419 13.4C104.939 13.4 105.402 13.5133 105.809 13.74C106.215 13.9667 106.532 14.2867 106.759 14.7C106.985 15.1067 107.099 15.5767 107.099 16.11ZM105.909 15.75C105.902 15.33 105.752 14.9933 105.459 14.74C105.165 14.4867 104.802 14.36 104.369 14.36C103.975 14.36 103.639 14.4867 103.359 14.74C103.079 14.9867 102.912 15.3233 102.859 15.75H105.909ZM113.668 13.4C114.088 13.4 114.462 13.49 114.788 13.67C115.122 13.85 115.382 14.1167 115.568 14.47C115.762 14.8233 115.858 15.25 115.858 15.75V19H114.728V15.92C114.728 15.4267 114.605 15.05 114.358 14.79C114.112 14.5233 113.775 14.39 113.348 14.39C112.922 14.39 112.582 14.5233 112.328 14.79C112.082 15.05 111.958 15.4267 111.958 15.92V19H110.818V11.6H111.958V14.13C112.152 13.8967 112.395 13.7167 112.688 13.59C112.988 13.4633 113.315 13.4 113.668 13.4ZM119.703 19.09C119.183 19.09 118.713 18.9733 118.293 18.74C117.873 18.5 117.543 18.1667 117.303 17.74C117.063 17.3067 116.943 16.8067 116.943 16.24C116.943 15.68 117.066 15.1833 117.313 14.75C117.559 14.3167 117.896 13.9833 118.323 13.75C118.749 13.5167 119.226 13.4 119.753 13.4C120.279 13.4 120.756 13.5167 121.183 13.75C121.609 13.9833 121.946 14.3167 122.193 14.75C122.439 15.1833 122.563 15.68 122.563 16.24C122.563 16.8 122.436 17.2967 122.183 17.73C121.929 18.1633 121.583 18.5 121.143 18.74C120.709 18.9733 120.229 19.09 119.703 19.09ZM119.703 18.1C119.996 18.1 120.269 18.03 120.523 17.89C120.783 17.75 120.993 17.54 121.153 17.26C121.313 16.98 121.393 16.64 121.393 16.24C121.393 15.84 121.316 15.5033 121.163 15.23C121.009 14.95 120.806 14.74 120.553 14.6C120.299 14.46 120.026 14.39 119.733 14.39C119.439 14.39 119.166 14.46 118.913 14.6C118.666 14.74 118.469 14.95 118.323 15.23C118.176 15.5033 118.103 15.84 118.103 16.24C118.103 16.8333 118.253 17.2933 118.553 17.62C118.859 17.94 119.243 18.1 119.703 18.1ZM130.359 13.4C130.793 13.4 131.179 13.49 131.519 13.67C131.866 13.85 132.136 14.1167 132.329 14.47C132.529 14.8233 132.629 15.25 132.629 15.75V19H131.499V15.92C131.499 15.4267 131.376 15.05 131.129 14.79C130.883 14.5233 130.546 14.39 130.119 14.39C129.693 14.39 129.353 14.5233 129.099 14.79C128.853 15.05 128.729 15.4267 128.729 15.92V19H127.599V15.92C127.599 15.4267 127.476 15.05 127.229 14.79C126.983 14.5233 126.646 14.39 126.219 14.39C125.793 14.39 125.453 14.5233 125.199 14.79C124.953 15.05 124.829 15.4267 124.829 15.92V19H123.689V13.49H124.829V14.12C125.016 13.8933 125.253 13.7167 125.539 13.59C125.826 13.4633 126.133 13.4 126.459 13.4C126.899 13.4 127.293 13.4933 127.639 13.68C127.986 13.8667 128.253 14.1367 128.439 14.49C128.606 14.1567 128.866 13.8933 129.219 13.7C129.573 13.5 129.953 13.4 130.359 13.4ZM139.13 16.11C139.13 16.3167 139.117 16.5033 139.09 16.67H134.88C134.913 17.11 135.077 17.4633 135.37 17.73C135.663 17.9967 136.023 18.13 136.45 18.13C137.063 18.13 137.497 17.8733 137.75 17.36H138.98C138.813 17.8667 138.51 18.2833 138.07 18.61C137.637 18.93 137.097 19.09 136.45 19.09C135.923 19.09 135.45 18.9733 135.03 18.74C134.617 18.5 134.29 18.1667 134.05 17.74C133.817 17.3067 133.7 16.8067 133.7 16.24C133.7 15.6733 133.813 15.1767 134.04 14.75C134.273 14.3167 134.597 13.9833 135.01 13.75C135.43 13.5167 135.91 13.4 136.45 13.4C136.97 13.4 137.433 13.5133 137.84 13.74C138.247 13.9667 138.563 14.2867 138.79 14.7C139.017 15.1067 139.13 15.5767 139.13 16.11ZM137.94 15.75C137.933 15.33 137.783 14.9933 137.49 14.74C137.197 14.4867 136.833 14.36 136.4 14.36C136.007 14.36 135.67 14.4867 135.39 14.74C135.11 14.9867 134.943 15.3233 134.89 15.75H137.94ZM144.85 19.09C144.416 19.09 144.026 19.0133 143.68 18.86C143.34 18.7 143.07 18.4867 142.87 18.22C142.67 17.9467 142.563 17.6433 142.55 17.31H143.73C143.75 17.5433 143.86 17.74 144.06 17.9C144.266 18.0533 144.523 18.13 144.83 18.13C145.15 18.13 145.396 18.07 145.57 17.95C145.75 17.8233 145.84 17.6633 145.84 17.47C145.84 17.2633 145.74 17.11 145.54 17.01C145.346 16.91 145.036 16.8 144.61 16.68C144.196 16.5667 143.86 16.4567 143.6 16.35C143.34 16.2433 143.113 16.08 142.92 15.86C142.733 15.64 142.64 15.35 142.64 14.99C142.64 14.6967 142.726 14.43 142.9 14.19C143.073 13.9433 143.32 13.75 143.64 13.61C143.966 13.47 144.34 13.4 144.76 13.4C145.386 13.4 145.89 13.56 146.27 13.88C146.656 14.1933 146.863 14.6233 146.89 15.17H145.75C145.73 14.9233 145.63 14.7267 145.45 14.58C145.27 14.4333 145.026 14.36 144.72 14.36C144.42 14.36 144.19 14.4167 144.03 14.53C143.87 14.6433 143.79 14.7933 143.79 14.98C143.79 15.1267 143.843 15.25 143.95 15.35C144.056 15.45 144.186 15.53 144.34 15.59C144.493 15.6433 144.72 15.7133 145.02 15.8C145.42 15.9067 145.746 16.0167 146 16.13C146.26 16.2367 146.483 16.3967 146.67 16.61C146.856 16.8233 146.953 17.1067 146.96 17.46C146.96 17.7733 146.873 18.0533 146.7 18.3C146.526 18.5467 146.28 18.74 145.96 18.88C145.646 19.02 145.276 19.09 144.85 19.09ZM147.811 16.24C147.811 15.6733 147.925 15.1767 148.151 14.75C148.385 14.3167 148.705 13.9833 149.111 13.75C149.518 13.5167 149.985 13.4 150.511 13.4C151.178 13.4 151.728 13.56 152.161 13.88C152.601 14.1933 152.898 14.6433 153.051 15.23H151.821C151.721 14.9567 151.561 14.7433 151.341 14.59C151.121 14.4367 150.845 14.36 150.511 14.36C150.045 14.36 149.671 14.5267 149.391 14.86C149.118 15.1867 148.981 15.6467 148.981 16.24C148.981 16.8333 149.118 17.2967 149.391 17.63C149.671 17.9633 150.045 18.13 150.511 18.13C151.171 18.13 151.608 17.84 151.821 17.26H153.051C152.891 17.82 152.591 18.2667 152.151 18.6C151.711 18.9267 151.165 19.09 150.511 19.09C149.985 19.09 149.518 18.9733 149.111 18.74C148.705 18.5 148.385 18.1667 148.151 17.74C147.925 17.3067 147.811 16.8067 147.811 16.24ZM155.328 14.29C155.494 14.01 155.714 13.7933 155.988 13.64C156.268 13.48 156.598 13.4 156.978 13.4V14.58H156.688C156.241 14.58 155.901 14.6933 155.668 14.92C155.441 15.1467 155.328 15.54 155.328 16.1V19H154.188V13.49H155.328V14.29ZM163.075 16.11C163.075 16.3167 163.062 16.5033 163.035 16.67H158.825C158.859 17.11 159.022 17.4633 159.315 17.73C159.609 17.9967 159.969 18.13 160.395 18.13C161.009 18.13 161.442 17.8733 161.695 17.36H162.925C162.759 17.8667 162.455 18.2833 162.015 18.61C161.582 18.93 161.042 19.09 160.395 19.09C159.869 19.09 159.395 18.9733 158.975 18.74C158.562 18.5 158.235 18.1667 157.995 17.74C157.762 17.3067 157.645 16.8067 157.645 16.24C157.645 15.6733 157.759 15.1767 157.985 14.75C158.219 14.3167 158.542 13.9833 158.955 13.75C159.375 13.5167 159.855 13.4 160.395 13.4C160.915 13.4 161.379 13.5133 161.785 13.74C162.192 13.9667 162.509 14.2867 162.735 14.7C162.962 15.1067 163.075 15.5767 163.075 16.11ZM161.885 15.75C161.879 15.33 161.729 14.9933 161.435 14.74C161.142 14.4867 160.779 14.36 160.345 14.36C159.952 14.36 159.615 14.4867 159.335 14.74C159.055 14.9867 158.889 15.3233 158.835 15.75H161.885ZM169.247 16.11C169.247 16.3167 169.234 16.5033 169.207 16.67H164.997C165.031 17.11 165.194 17.4633 165.487 17.73C165.781 17.9967 166.141 18.13 166.567 18.13C167.181 18.13 167.614 17.8733 167.867 17.36H169.097C168.931 17.8667 168.627 18.2833 168.187 18.61C167.754 18.93 167.214 19.09 166.567 19.09C166.041 19.09 165.567 18.9733 165.147 18.74C164.734 18.5 164.407 18.1667 164.167 17.74C163.934 17.3067 163.817 16.8067 163.817 16.24C163.817 15.6733 163.931 15.1767 164.157 14.75C164.391 14.3167 164.714 13.9833 165.127 13.75C165.547 13.5167 166.027 13.4 166.567 13.4C167.087 13.4 167.551 13.5133 167.957 13.74C168.364 13.9667 168.681 14.2867 168.907 14.7C169.134 15.1067 169.247 15.5767 169.247 16.11ZM168.057 15.75C168.051 15.33 167.901 14.9933 167.607 14.74C167.314 14.4867 166.951 14.36 166.517 14.36C166.124 14.36 165.787 14.4867 165.507 14.74C165.227 14.9867 165.061 15.3233 165.007 15.75H168.057ZM173.149 13.4C173.582 13.4 173.969 13.49 174.309 13.67C174.656 13.85 174.926 14.1167 175.119 14.47C175.312 14.8233 175.409 15.25 175.409 15.75V19H174.279V15.92C174.279 15.4267 174.156 15.05 173.909 14.79C173.662 14.5233 173.326 14.39 172.899 14.39C172.472 14.39 172.132 14.5233 171.879 14.79C171.632 15.05 171.509 15.4267 171.509 15.92V19H170.369V13.49H171.509V14.12C171.696 13.8933 171.932 13.7167 172.219 13.59C172.512 13.4633 172.822 13.4 173.149 13.4Z" fill="white"/>
</svg>
