<svg width="450" height="360" viewBox="0 0 450 360" fill="none" xmlns="http://www.w3.org/2000/svg">
<rect width="450" height="40" rx="15" fill="white" fill-opacity="0.1"/>
<path d="M23.624 15.66C24.512 15.66 25.288 15.832 25.952 16.176C26.624 16.512 27.14 17 27.5 17.64C27.868 18.272 28.052 19.012 28.052 19.86C28.052 20.708 27.868 21.444 27.5 22.068C27.14 22.692 26.624 23.172 25.952 23.508C25.288 23.836 24.512 24 23.624 24H20.9V15.66H23.624ZM23.624 22.884C24.6 22.884 25.348 22.62 25.868 22.092C26.388 21.564 26.648 20.82 26.648 19.86C26.648 18.892 26.388 18.136 25.868 17.592C25.348 17.048 24.6 16.776 23.624 16.776H22.268V22.884H23.624ZM30.7758 18.348C30.9758 18.012 31.2398 17.752 31.5678 17.568C31.9038 17.376 32.2998 17.28 32.7558 17.28V18.696H32.4078C31.8718 18.696 31.4638 18.832 31.1838 19.104C30.9118 19.376 30.7758 19.848 30.7758 20.52V24H29.4078V17.388H30.7758V18.348ZM33.5573 20.664C33.5573 20 33.6933 19.412 33.9653 18.9C34.2453 18.388 34.6213 17.992 35.0933 17.712C35.5733 17.424 36.1013 17.28 36.6773 17.28C37.1973 17.28 37.6493 17.384 38.0333 17.592C38.4253 17.792 38.7373 18.044 38.9693 18.348V17.388H40.3493V24H38.9693V23.016C38.7373 23.328 38.4213 23.588 38.0213 23.796C37.6213 24.004 37.1653 24.108 36.6533 24.108C36.0853 24.108 35.5653 23.964 35.0933 23.676C34.6213 23.38 34.2453 22.972 33.9653 22.452C33.6933 21.924 33.5573 21.328 33.5573 20.664ZM38.9693 20.688C38.9693 20.232 38.8733 19.836 38.6813 19.5C38.4973 19.164 38.2533 18.908 37.9493 18.732C37.6453 18.556 37.3173 18.468 36.9653 18.468C36.6133 18.468 36.2853 18.556 35.9813 18.732C35.6773 18.9 35.4293 19.152 35.2373 19.488C35.0533 19.816 34.9613 20.208 34.9613 20.664C34.9613 21.12 35.0533 21.52 35.2373 21.864C35.4293 22.208 35.6773 22.472 35.9813 22.656C36.2933 22.832 36.6213 22.92 36.9653 22.92C37.3173 22.92 37.6453 22.832 37.9493 22.656C38.2533 22.48 38.4973 22.224 38.6813 21.888C38.8733 21.544 38.9693 21.144 38.9693 20.688ZM44.8101 17.28C45.3221 17.28 45.7741 17.384 46.1661 17.592C46.5661 17.792 46.8781 18.044 47.1021 18.348V17.388H48.4821V24.108C48.4821 24.716 48.3541 25.256 48.0981 25.728C47.8421 26.208 47.4701 26.584 46.9821 26.856C46.5021 27.128 45.9261 27.264 45.2541 27.264C44.3581 27.264 43.6141 27.052 43.0221 26.628C42.4301 26.212 42.0941 25.644 42.0141 24.924H43.3701C43.4741 25.268 43.6941 25.544 44.0301 25.752C44.3741 25.968 44.7821 26.076 45.2541 26.076C45.8061 26.076 46.2501 25.908 46.5861 25.572C46.9301 25.236 47.1021 24.748 47.1021 24.108V23.004C46.8701 23.316 46.5541 23.58 46.1541 23.796C45.7621 24.004 45.3141 24.108 44.8101 24.108C44.2341 24.108 43.7061 23.964 43.2261 23.676C42.7541 23.38 42.3781 22.972 42.0981 22.452C41.8261 21.924 41.6901 21.328 41.6901 20.664C41.6901 20 41.8261 19.412 42.0981 18.9C42.3781 18.388 42.7541 17.992 43.2261 17.712C43.7061 17.424 44.2341 17.28 44.8101 17.28ZM47.1021 20.688C47.1021 20.232 47.0061 19.836 46.8141 19.5C46.6301 19.164 46.3861 18.908 46.0821 18.732C45.7781 18.556 45.4501 18.468 45.0981 18.468C44.7461 18.468 44.4181 18.556 44.1141 18.732C43.8101 18.9 43.5621 19.152 43.3701 19.488C43.1861 19.816 43.0941 20.208 43.0941 20.664C43.0941 21.12 43.1861 21.52 43.3701 21.864C43.5621 22.208 43.8101 22.472 44.1141 22.656C44.4261 22.832 44.7541 22.92 45.0981 22.92C45.4501 22.92 45.7781 22.832 46.0821 22.656C46.3861 22.48 46.6301 22.224 46.8141 21.888C47.0061 21.544 47.1021 21.144 47.1021 20.688ZM53.1469 24.108C52.5229 24.108 51.9589 23.968 51.4549 23.688C50.9509 23.4 50.5549 23 50.2669 22.488C49.9789 21.968 49.8349 21.368 49.8349 20.688C49.8349 20.016 49.9829 19.42 50.2789 18.9C50.5749 18.38 50.9789 17.98 51.4909 17.7C52.0029 17.42 52.5749 17.28 53.2069 17.28C53.8389 17.28 54.4109 17.42 54.9229 17.7C55.4349 17.98 55.8389 18.38 56.1349 18.9C56.4309 19.42 56.5789 20.016 56.5789 20.688C56.5789 21.36 56.4269 21.956 56.1229 22.476C55.8189 22.996 55.4029 23.4 54.8749 23.688C54.3549 23.968 53.7789 24.108 53.1469 24.108ZM53.1469 22.92C53.4989 22.92 53.8269 22.836 54.1309 22.668C54.4429 22.5 54.6949 22.248 54.8869 21.912C55.0789 21.576 55.1749 21.168 55.1749 20.688C55.1749 20.208 55.0829 19.804 54.8989 19.476C54.7149 19.14 54.4709 18.888 54.1669 18.72C53.8629 18.552 53.5349 18.468 53.1829 18.468C52.8309 18.468 52.5029 18.552 52.1989 18.72C51.9029 18.888 51.6669 19.14 51.4909 19.476C51.3149 19.804 51.2269 20.208 51.2269 20.688C51.2269 21.4 51.4069 21.952 51.7669 22.344C52.1349 22.728 52.5949 22.92 53.1469 22.92ZM61.2673 17.28C61.7873 17.28 62.2513 17.388 62.6593 17.604C63.0753 17.82 63.3993 18.14 63.6313 18.564C63.8633 18.988 63.9793 19.5 63.9793 20.1V24H62.6233V20.304C62.6233 19.712 62.4753 19.26 62.1793 18.948C61.8833 18.628 61.4793 18.468 60.9673 18.468C60.4553 18.468 60.0473 18.628 59.7433 18.948C59.4473 19.26 59.2993 19.712 59.2993 20.304V24H57.9313V17.388H59.2993V18.144C59.5233 17.872 59.8073 17.66 60.1513 17.508C60.5033 17.356 60.8753 17.28 61.2673 17.28ZM71.5894 24.084C71.0294 24.084 70.5254 23.988 70.0774 23.796C69.6294 23.596 69.2774 23.316 69.0214 22.956C68.7654 22.596 68.6374 22.176 68.6374 21.696H70.1014C70.1334 22.056 70.2734 22.352 70.5214 22.584C70.7774 22.816 71.1334 22.932 71.5894 22.932C72.0614 22.932 72.4294 22.82 72.6934 22.596C72.9574 22.364 73.0894 22.068 73.0894 21.708C73.0894 21.428 73.0054 21.2 72.8374 21.024C72.6774 20.848 72.4734 20.712 72.2254 20.616C71.9854 20.52 71.6494 20.416 71.2174 20.304C70.6734 20.16 70.2294 20.016 69.8854 19.872C69.5494 19.72 69.2614 19.488 69.0214 19.176C68.7814 18.864 68.6614 18.448 68.6614 17.928C68.6614 17.448 68.7814 17.028 69.0214 16.668C69.2614 16.308 69.5974 16.032 70.0294 15.84C70.4614 15.648 70.9614 15.552 71.5294 15.552C72.3374 15.552 72.9974 15.756 73.5094 16.164C74.0294 16.564 74.3174 17.116 74.3734 17.82H72.8614C72.8374 17.516 72.6934 17.256 72.4294 17.04C72.1654 16.824 71.8174 16.716 71.3854 16.716C70.9934 16.716 70.6734 16.816 70.4254 17.016C70.1774 17.216 70.0534 17.504 70.0534 17.88C70.0534 18.136 70.1294 18.348 70.2814 18.516C70.4414 18.676 70.6414 18.804 70.8814 18.9C71.1214 18.996 71.4494 19.1 71.8654 19.212C72.4174 19.364 72.8654 19.516 73.2094 19.668C73.5614 19.82 73.8574 20.056 74.0974 20.376C74.3454 20.688 74.4694 21.108 74.4694 21.636C74.4694 22.06 74.3534 22.46 74.1214 22.836C73.8974 23.212 73.5654 23.516 73.1254 23.748C72.6934 23.972 72.1814 24.084 71.5894 24.084ZM77.4516 15.12V24H76.0836V15.12H77.4516ZM78.7917 20.664C78.7917 20 78.9277 19.412 79.1997 18.9C79.4797 18.388 79.8557 17.992 80.3277 17.712C80.8077 17.424 81.3357 17.28 81.9117 17.28C82.4317 17.28 82.8837 17.384 83.2677 17.592C83.6597 17.792 83.9717 18.044 84.2037 18.348V17.388H85.5837V24H84.2037V23.016C83.9717 23.328 83.6557 23.588 83.2557 23.796C82.8557 24.004 82.3997 24.108 81.8877 24.108C81.3197 24.108 80.7997 23.964 80.3277 23.676C79.8557 23.38 79.4797 22.972 79.1997 22.452C78.9277 21.924 78.7917 21.328 78.7917 20.664ZM84.2037 20.688C84.2037 20.232 84.1077 19.836 83.9157 19.5C83.7317 19.164 83.4877 18.908 83.1837 18.732C82.8797 18.556 82.5517 18.468 82.1997 18.468C81.8477 18.468 81.5197 18.556 81.2157 18.732C80.9117 18.9 80.6637 19.152 80.4717 19.488C80.2877 19.816 80.1957 20.208 80.1957 20.664C80.1957 21.12 80.2877 21.52 80.4717 21.864C80.6637 22.208 80.9117 22.472 81.2157 22.656C81.5277 22.832 81.8557 22.92 82.1997 22.92C82.5517 22.92 82.8797 22.832 83.1837 22.656C83.4877 22.48 83.7317 22.224 83.9157 21.888C84.1077 21.544 84.2037 21.144 84.2037 20.688ZM93.3325 17.388L89.2765 27.108H87.8605L89.2045 23.892L86.6005 17.388H88.1245L89.9845 22.428L91.9165 17.388H93.3325ZM100.425 20.532C100.425 20.78 100.409 21.004 100.377 21.204H95.3248C95.3648 21.732 95.5608 22.156 95.9128 22.476C96.2648 22.796 96.6968 22.956 97.2088 22.956C97.9448 22.956 98.4648 22.648 98.7688 22.032H100.245C100.045 22.64 99.6808 23.14 99.1528 23.532C98.6328 23.916 97.9848 24.108 97.2088 24.108C96.5768 24.108 96.0088 23.968 95.5048 23.688C95.0088 23.4 94.6168 23 94.3288 22.488C94.0488 21.968 93.9088 21.368 93.9088 20.688C93.9088 20.008 94.0448 19.412 94.3168 18.9C94.5968 18.38 94.9848 17.98 95.4808 17.7C95.9848 17.42 96.5608 17.28 97.2088 17.28C97.8328 17.28 98.3888 17.416 98.8768 17.688C99.3648 17.96 99.7448 18.344 100.017 18.84C100.289 19.328 100.425 19.892 100.425 20.532ZM98.9968 20.1C98.9888 19.596 98.8088 19.192 98.4568 18.888C98.1048 18.584 97.6688 18.432 97.1488 18.432C96.6768 18.432 96.2728 18.584 95.9368 18.888C95.6008 19.184 95.4008 19.588 95.3368 20.1H98.9968ZM103.139 18.348C103.339 18.012 103.603 17.752 103.931 17.568C104.267 17.376 104.663 17.28 105.119 17.28V18.696H104.771C104.235 18.696 103.827 18.832 103.547 19.104C103.275 19.376 103.139 19.848 103.139 20.52V24H101.771V17.388H103.139V18.348Z" fill="white"/>
<path d="M232.23 17.7V18.21H235.68V17.7H232.23ZM235.95 17.7V18.21H239.39V17.7H235.95ZM233.7 17.11V19.69H234.27V17.11H233.7ZM235.33 20.24V22.36H236V20.24H235.33ZM237.28 17.11V19.69H237.86V17.11H237.28ZM233.36 21.54H238V22.15H233.36V21.54ZM233.36 20.51H238V21.12H233.36V20.51ZM232.7 20.03V22.64H238.69V20.03H232.7ZM236.61 23.38L236.68 23.82C237.28 23.78 237.93 23.73 238.67 23.66V23.29C237.88 23.33 237.18 23.36 236.61 23.38ZM233.69 17.92C233.32 18.43 232.62 18.97 231.97 19.22C232.1 19.33 232.27 19.52 232.36 19.66C233.02 19.34 233.74 18.7 234.11 18.09L233.69 17.92ZM237.26 17.92C236.9 18.43 236.21 18.97 235.58 19.22C235.7 19.33 235.87 19.52 235.96 19.66C236.6 19.34 237.32 18.7 237.69 18.09L237.26 17.92ZM237.93 17.98L237.5 18.17C237.88 18.72 238.61 19.37 239.2 19.68C239.3 19.54 239.48 19.34 239.61 19.23C239.02 18.98 238.31 18.45 237.93 17.98ZM233.97 22.51C233.77 23.41 233.23 23.94 231.63 24.25C231.77 24.38 231.97 24.66 232.04 24.83C233.81 24.42 234.46 23.71 234.71 22.51H233.97ZM235.66 22.51V23.95C235.66 24.61 235.9 24.76 236.85 24.76C237.04 24.76 238.48 24.76 238.68 24.76C239.39 24.76 239.58 24.55 239.67 23.68C239.48 23.64 239.22 23.56 239.07 23.46C239.04 24.13 238.97 24.22 238.61 24.22C238.31 24.22 237.12 24.22 236.89 24.22C236.4 24.22 236.32 24.18 236.32 23.95V22.51H235.66ZM235.11 19.44C235 19.65 234.79 19.96 234.63 20.19L235.18 20.35C235.36 20.14 235.61 19.88 235.83 19.57L235.11 19.44ZM237.26 22.39C237.2 22.69 237.07 23.15 236.96 23.46L237.38 23.59C237.49 23.32 237.62 22.93 237.77 22.55L237.26 22.39ZM238.01 22.91C238.29 23.22 238.58 23.65 238.68 23.96L239.13 23.77C239.02 23.48 238.73 23.05 238.45 22.75L238.01 22.91ZM234.23 18.27L233.9 18.52C234.22 18.71 235.02 19.2 235.27 19.41L235.64 18.99C235.42 18.85 234.5 18.39 234.23 18.27ZM234.88 15.61V16.8H235.65V15.61H234.88ZM231.57 16.4V17.04H239.52V16.4H231.57ZM231.14 16.4V19.53C231.14 20.98 231.07 22.96 230.29 24.38C230.45 24.46 230.74 24.69 230.87 24.83C231.71 23.32 231.84 21.07 231.84 19.53V16.4H231.14ZM242.31 18.23H247.67V19.32H242.31V18.23ZM242.31 16.56H247.67V17.63H242.31V16.56ZM241.56 15.93V19.94H248.44V15.93H241.56ZM246.1 19.53L245.46 19.77C246.25 20.91 247.68 21.86 249.11 22.32C249.22 22.12 249.44 21.83 249.61 21.68C248.21 21.31 246.8 20.5 246.1 19.53ZM243.94 19.53C243.22 20.49 241.79 21.35 240.44 21.74C240.61 21.89 240.83 22.17 240.95 22.36C242.32 21.87 243.79 20.91 244.59 19.8L243.94 19.53ZM243.11 21.29V21.89C243.11 22.63 242.93 23.6 241.17 24.26C241.34 24.41 241.58 24.67 241.69 24.86C243.63 24.08 243.87 22.87 243.87 21.91V21.29H243.11ZM244.6 16.26V19.66H245.36V16.26H244.6ZM246.29 21.29V24.78H247.06V21.29H246.29ZM253.04 24.07C252.573 24.07 252.153 23.99 251.78 23.83C251.407 23.6633 251.113 23.43 250.9 23.13C250.687 22.83 250.58 22.48 250.58 22.08H251.8C251.827 22.38 251.943 22.6267 252.15 22.82C252.363 23.0133 252.66 23.11 253.04 23.11C253.433 23.11 253.74 23.0167 253.96 22.83C254.18 22.6367 254.29 22.39 254.29 22.09C254.29 21.8567 254.22 21.6667 254.08 21.52C253.947 21.3733 253.777 21.26 253.57 21.18C253.37 21.1 253.09 21.0133 252.73 20.92C252.277 20.8 251.907 20.68 251.62 20.56C251.34 20.4333 251.1 20.24 250.9 19.98C250.7 19.72 250.6 19.3733 250.6 18.94C250.6 18.54 250.7 18.19 250.9 17.89C251.1 17.59 251.38 17.36 251.74 17.2C252.1 17.04 252.517 16.96 252.99 16.96C253.663 16.96 254.213 17.13 254.64 17.47C255.073 17.8033 255.313 18.2633 255.36 18.85H254.1C254.08 18.5967 253.96 18.38 253.74 18.2C253.52 18.02 253.23 17.93 252.87 17.93C252.543 17.93 252.277 18.0133 252.07 18.18C251.863 18.3467 251.76 18.5867 251.76 18.9C251.76 19.1133 251.823 19.29 251.95 19.43C252.083 19.5633 252.25 19.67 252.45 19.75C252.65 19.83 252.923 19.9167 253.27 20.01C253.73 20.1367 254.103 20.2633 254.39 20.39C254.683 20.5167 254.93 20.7133 255.13 20.98C255.337 21.24 255.44 21.59 255.44 22.03C255.44 22.3833 255.343 22.7167 255.15 23.03C254.963 23.3433 254.687 23.5967 254.32 23.79C253.96 23.9767 253.533 24.07 253.04 24.07ZM261.745 18.49L258.365 26.59H257.185L258.305 23.91L256.135 18.49H257.405L258.955 22.69L260.565 18.49H261.745ZM269.275 18.4C269.709 18.4 270.095 18.49 270.435 18.67C270.782 18.85 271.052 19.1167 271.245 19.47C271.445 19.8233 271.545 20.25 271.545 20.75V24H270.415V20.92C270.415 20.4267 270.292 20.05 270.045 19.79C269.799 19.5233 269.462 19.39 269.035 19.39C268.609 19.39 268.269 19.5233 268.015 19.79C267.769 20.05 267.645 20.4267 267.645 20.92V24H266.515V20.92C266.515 20.4267 266.392 20.05 266.145 19.79C265.899 19.5233 265.562 19.39 265.135 19.39C264.709 19.39 264.369 19.5233 264.115 19.79C263.869 20.05 263.745 20.4267 263.745 20.92V24H262.605V18.49H263.745V19.12C263.932 18.8933 264.169 18.7167 264.455 18.59C264.742 18.4633 265.049 18.4 265.375 18.4C265.815 18.4 266.209 18.4933 266.555 18.68C266.902 18.8667 267.169 19.1367 267.355 19.49C267.522 19.1567 267.782 18.8933 268.135 18.7C268.489 18.5 268.869 18.4 269.275 18.4ZM274.136 19.3C274.329 19.0467 274.593 18.8333 274.926 18.66C275.259 18.4867 275.636 18.4 276.056 18.4C276.536 18.4 276.973 18.52 277.366 18.76C277.766 18.9933 278.079 19.3233 278.306 19.75C278.533 20.1767 278.646 20.6667 278.646 21.22C278.646 21.7733 278.533 22.27 278.306 22.71C278.079 23.1433 277.766 23.4833 277.366 23.73C276.973 23.97 276.536 24.09 276.056 24.09C275.636 24.09 275.263 24.0067 274.936 23.84C274.609 23.6667 274.343 23.4533 274.136 23.2V26.62H272.996V18.49H274.136V19.3ZM277.486 21.22C277.486 20.84 277.406 20.5133 277.246 20.24C277.093 19.96 276.886 19.75 276.626 19.61C276.373 19.4633 276.099 19.39 275.806 19.39C275.519 19.39 275.246 19.4633 274.986 19.61C274.733 19.7567 274.526 19.97 274.366 20.25C274.213 20.53 274.136 20.86 274.136 21.24C274.136 21.62 274.213 21.9533 274.366 22.24C274.526 22.52 274.733 22.7333 274.986 22.88C275.246 23.0267 275.519 23.1 275.806 23.1C276.099 23.1 276.373 23.0267 276.626 22.88C276.886 22.7267 277.093 22.5067 277.246 22.22C277.406 21.9333 277.486 21.6 277.486 21.22ZM282.623 18.4C283.043 18.4 283.417 18.49 283.743 18.67C284.077 18.85 284.337 19.1167 284.523 19.47C284.717 19.8233 284.813 20.25 284.813 20.75V24H283.683V20.92C283.683 20.4267 283.56 20.05 283.313 19.79C283.067 19.5233 282.73 19.39 282.303 19.39C281.877 19.39 281.537 19.5233 281.283 19.79C281.037 20.05 280.913 20.4267 280.913 20.92V24H279.773V16.6H280.913V19.13C281.107 18.8967 281.35 18.7167 281.643 18.59C281.943 18.4633 282.27 18.4 282.623 18.4ZM288.658 24.09C288.138 24.09 287.668 23.9733 287.248 23.74C286.828 23.5 286.498 23.1667 286.258 22.74C286.018 22.3067 285.898 21.8067 285.898 21.24C285.898 20.68 286.021 20.1833 286.268 19.75C286.514 19.3167 286.851 18.9833 287.278 18.75C287.704 18.5167 288.181 18.4 288.708 18.4C289.234 18.4 289.711 18.5167 290.138 18.75C290.564 18.9833 290.901 19.3167 291.148 19.75C291.394 20.1833 291.518 20.68 291.518 21.24C291.518 21.8 291.391 22.2967 291.138 22.73C290.884 23.1633 290.538 23.5 290.098 23.74C289.664 23.9733 289.184 24.09 288.658 24.09ZM288.658 23.1C288.951 23.1 289.224 23.03 289.478 22.89C289.738 22.75 289.948 22.54 290.108 22.26C290.268 21.98 290.348 21.64 290.348 21.24C290.348 20.84 290.271 20.5033 290.118 20.23C289.964 19.95 289.761 19.74 289.508 19.6C289.254 19.46 288.981 19.39 288.688 19.39C288.394 19.39 288.121 19.46 287.868 19.6C287.621 19.74 287.424 19.95 287.278 20.23C287.131 20.5033 287.058 20.84 287.058 21.24C287.058 21.8333 287.208 22.2933 287.508 22.62C287.814 22.94 288.198 23.1 288.658 23.1ZM295.425 18.4C295.858 18.4 296.245 18.49 296.585 18.67C296.931 18.85 297.201 19.1167 297.395 19.47C297.588 19.8233 297.685 20.25 297.685 20.75V24H296.555V20.92C296.555 20.4267 296.431 20.05 296.185 19.79C295.938 19.5233 295.601 19.39 295.175 19.39C294.748 19.39 294.408 19.5233 294.155 19.79C293.908 20.05 293.785 20.4267 293.785 20.92V24H292.645V18.49H293.785V19.12C293.971 18.8933 294.208 18.7167 294.495 18.59C294.788 18.4633 295.098 18.4 295.425 18.4ZM304.099 18.49L300.719 26.59H299.539L300.659 23.91L298.489 18.49H299.759L301.309 22.69L302.919 18.49H304.099Z" fill="#808080"/>
<path d="M411.7 17.75V16.71H413.78V24H412.63V17.75H411.7ZM415.956 24.07C415.749 24.07 415.576 24 415.436 23.86C415.296 23.72 415.226 23.5467 415.226 23.34C415.226 23.1333 415.296 22.96 415.436 22.82C415.576 22.68 415.749 22.61 415.956 22.61C416.156 22.61 416.326 22.68 416.466 22.82C416.606 22.96 416.676 23.1333 416.676 23.34C416.676 23.5467 416.606 23.72 416.466 23.86C416.326 24 416.156 24.07 415.956 24.07ZM415.956 19.87C415.749 19.87 415.576 19.8 415.436 19.66C415.296 19.52 415.226 19.3467 415.226 19.14C415.226 18.9333 415.296 18.76 415.436 18.62C415.576 18.48 415.749 18.41 415.956 18.41C416.156 18.41 416.326 18.48 416.466 18.62C416.606 18.76 416.676 18.9333 416.676 19.14C416.676 19.3467 416.606 19.52 416.466 19.66C416.326 19.8 416.156 19.87 415.956 19.87ZM422.497 17.69H419.147V19.68C419.287 19.4933 419.494 19.3367 419.767 19.21C420.047 19.0833 420.344 19.02 420.657 19.02C421.217 19.02 421.671 19.14 422.017 19.38C422.371 19.62 422.621 19.9233 422.767 20.29C422.921 20.6567 422.997 21.0433 422.997 21.45C422.997 21.9433 422.901 22.3833 422.707 22.77C422.521 23.15 422.237 23.45 421.857 23.67C421.484 23.89 421.024 24 420.477 24C419.751 24 419.167 23.82 418.727 23.46C418.287 23.1 418.024 22.6233 417.937 22.03H419.047C419.121 22.3433 419.284 22.5933 419.537 22.78C419.791 22.96 420.107 23.05 420.487 23.05C420.961 23.05 421.314 22.9067 421.547 22.62C421.787 22.3333 421.907 21.9533 421.907 21.48C421.907 21 421.787 20.6333 421.547 20.38C421.307 20.12 420.954 19.99 420.487 19.99C420.161 19.99 419.884 20.0733 419.657 20.24C419.437 20.4 419.277 20.62 419.177 20.9H418.097V16.69H422.497V17.69ZM428.104 18.4C428.031 18.0933 427.897 17.8633 427.704 17.71C427.511 17.5567 427.241 17.48 426.894 17.48C426.367 17.48 425.974 17.6833 425.714 18.09C425.454 18.49 425.317 19.1567 425.304 20.09C425.477 19.7967 425.731 19.57 426.064 19.41C426.397 19.25 426.757 19.17 427.144 19.17C427.584 19.17 427.971 19.2667 428.304 19.46C428.644 19.6467 428.907 19.92 429.094 20.28C429.287 20.64 429.384 21.07 429.384 21.57C429.384 22.0367 429.291 22.4533 429.104 22.82C428.924 23.1867 428.654 23.4767 428.294 23.69C427.934 23.8967 427.501 24 426.994 24C426.307 24 425.767 23.85 425.374 23.55C424.987 23.2433 424.714 22.8133 424.554 22.26C424.401 21.7067 424.324 21.0167 424.324 20.19C424.324 17.75 425.184 16.53 426.904 16.53C427.571 16.53 428.094 16.71 428.474 17.07C428.861 17.43 429.087 17.8733 429.154 18.4H428.104ZM426.894 20.13C426.487 20.13 426.141 20.2533 425.854 20.5C425.574 20.74 425.434 21.09 425.434 21.55C425.434 22.01 425.564 22.3767 425.824 22.65C426.091 22.9167 426.461 23.05 426.934 23.05C427.354 23.05 427.684 22.92 427.924 22.66C428.171 22.4 428.294 22.0533 428.294 21.62C428.294 21.1667 428.174 20.8067 427.934 20.54C427.701 20.2667 427.354 20.13 426.894 20.13Z" fill="#808080"/>
</svg>
