<svg xmlns="http://www.w3.org/2000/svg" fill="none" viewBox="0 0 30 30" height="30" width="30">
<rect fill="#191919" rx="15" height="30" width="30"></rect>
<path fill="white" d="M10.4384 15.19C9.74507 14.8433 9.3984 14.2967 9.3984 13.55C9.3984 13.19 9.4884 12.86 9.6684 12.56C9.8484 12.26 10.1184 12.0233 10.4784 11.85C10.8384 11.67 11.2784 11.58 11.7984 11.58C12.3117 11.58 12.7484 11.67 13.1084 11.85C13.4751 12.0233 13.7484 12.26 13.9284 12.56C14.1084 12.86 14.1984 13.19 14.1984 13.55C14.1984 13.9233 14.1017 14.2533 13.9084 14.54C13.7217 14.82 13.4717 15.0367 13.1584 15.19C13.5384 15.33 13.8384 15.56 14.0584 15.88C14.2784 16.1933 14.3884 16.5633 14.3884 16.99C14.3884 17.4233 14.2784 17.8067 14.0584 18.14C13.8384 18.4733 13.5317 18.73 13.1384 18.91C12.7451 19.09 12.2984 19.18 11.7984 19.18C11.2984 19.18 10.8517 19.09 10.4584 18.91C10.0717 18.73 9.7684 18.4733 9.5484 18.14C9.3284 17.8067 9.2184 17.4233 9.2184 16.99C9.2184 16.5567 9.3284 16.1833 9.5484 15.87C9.7684 15.5567 10.0651 15.33 10.4384 15.19ZM13.1084 13.69C13.1084 13.3167 12.9917 13.03 12.7584 12.83C12.5251 12.63 12.2051 12.53 11.7984 12.53C11.3984 12.53 11.0817 12.63 10.8484 12.83C10.6151 13.03 10.4984 13.32 10.4984 13.7C10.4984 14.0333 10.6184 14.3067 10.8584 14.52C11.1051 14.7267 11.4184 14.83 11.7984 14.83C12.1784 14.83 12.4917 14.7233 12.7384 14.51C12.9851 14.2967 13.1084 14.0233 13.1084 13.69ZM11.7984 15.69C11.3584 15.69 10.9984 15.8 10.7184 16.02C10.4451 16.2333 10.3084 16.5433 10.3084 16.95C10.3084 17.33 10.4417 17.64 10.7084 17.88C10.9751 18.1133 11.3384 18.23 11.7984 18.23C12.2517 18.23 12.6084 18.11 12.8684 17.87C13.1351 17.63 13.2684 17.3233 13.2684 16.95C13.2684 16.55 13.1317 16.24 12.8584 16.02C12.5917 15.8 12.2384 15.69 11.7984 15.69ZM15.5854 15.26C15.5854 14.1067 15.7787 13.2067 16.1654 12.56C16.5587 11.9067 17.232 11.58 18.1854 11.58C19.1387 11.58 19.8087 11.9067 20.1954 12.56C20.5887 13.2067 20.7854 14.1067 20.7854 15.26C20.7854 16.4267 20.5887 17.34 20.1954 18C19.8087 18.6533 19.1387 18.98 18.1854 18.98C17.232 18.98 16.5587 18.6533 16.1654 18C15.7787 17.34 15.5854 16.4267 15.5854 15.26ZM19.6654 15.26C19.6654 14.72 19.6287 14.2633 19.5554 13.89C19.4887 13.5167 19.3487 13.2133 19.1354 12.98C18.922 12.74 18.6054 12.62 18.1854 12.62C17.7654 12.62 17.4487 12.74 17.2354 12.98C17.022 13.2133 16.8787 13.5167 16.8054 13.89C16.7387 14.2633 16.7054 14.72 16.7054 15.26C16.7054 15.82 16.7387 16.29 16.8054 16.67C16.872 17.05 17.012 17.3567 17.2254 17.59C17.4454 17.8233 17.7654 17.94 18.1854 17.94C18.6054 17.94 18.922 17.8233 19.1354 17.59C19.3554 17.3567 19.4987 17.05 19.5654 16.67C19.632 16.29 19.6654 15.82 19.6654 15.26Z"></path>
</svg>
