<svg width="30" height="30" viewBox="0 0 30 30" fill="none" xmlns="http://www.w3.org/2000/svg">
<rect width="30" height="30" rx="15" fill="black" fill-opacity="0.25"/>
<mask id="path-2-inside-1_147_94" fill="white">
<path d="M18.8637 13.0353C19.0225 12.4426 19.0428 11.8214 18.9231 11.2196C18.8034 10.6179 18.5469 10.0517 18.1734 9.56495C17.7999 9.07819 17.3194 8.68388 16.7692 8.41251C16.2189 8.14114 15.6136 8 15 8C14.3864 8 13.7811 8.14114 13.2308 8.41251C12.6806 8.68388 12.2001 9.07819 11.8266 9.56495C11.4531 10.0517 11.1966 10.6179 11.0769 11.2196C10.9572 11.8214 10.9775 12.4426 11.1363 13.0353L13.0681 12.5176C12.9887 12.2213 12.9786 11.9107 13.0384 11.6098C13.0983 11.3089 13.2265 11.0259 13.4133 10.7825C13.6 10.5391 13.8403 10.3419 14.1154 10.2063C14.3906 10.0706 14.6932 10 15 10C15.3068 10 15.6094 10.0706 15.8846 10.2063C16.1597 10.3419 16.4 10.5391 16.5867 10.7825C16.7735 11.0259 16.9017 11.3089 16.9616 11.6098C17.0214 11.9107 17.0113 12.2213 16.9319 12.5176L18.8637 13.0353Z"/>
</mask>
<path d="M18.8637 13.0353C19.0225 12.4426 19.0428 11.8214 18.9231 11.2196C18.8034 10.6179 18.5469 10.0517 18.1734 9.56495C17.7999 9.07819 17.3194 8.68388 16.7692 8.41251C16.2189 8.14114 15.6136 8 15 8C14.3864 8 13.7811 8.14114 13.2308 8.41251C12.6806 8.68388 12.2001 9.07819 11.8266 9.56495C11.4531 10.0517 11.1966 10.6179 11.0769 11.2196C10.9572 11.8214 10.9775 12.4426 11.1363 13.0353L13.0681 12.5176C12.9887 12.2213 12.9786 11.9107 13.0384 11.6098C13.0983 11.3089 13.2265 11.0259 13.4133 10.7825C13.6 10.5391 13.8403 10.3419 14.1154 10.2063C14.3906 10.0706 14.6932 10 15 10C15.3068 10 15.6094 10.0706 15.8846 10.2063C16.1597 10.3419 16.4 10.5391 16.5867 10.7825C16.7735 11.0259 16.9017 11.3089 16.9616 11.6098C17.0214 11.9107 17.0113 12.2213 16.9319 12.5176L18.8637 13.0353Z" stroke="white" stroke-width="4" mask="url(#path-2-inside-1_147_94)"/>
<rect x="14" y="16" width="2" height="2" rx="1" fill="white"/>
<path d="M12 13H18C19.1046 13 20 13.8954 20 15V19C20 20.1046 19.1046 21 18 21H12C10.8954 21 10 20.1046 10 19V15C10 13.8954 10.8954 13 12 13Z" stroke="white" stroke-width="2"/>
</svg>
