<svg width="480" height="360" viewBox="0 0 480 360" fill="none" xmlns="http://www.w3.org/2000/svg">
<rect x="10" y="40" width="30" height="150" rx="15" transform="rotate(-90 10 40)" fill="black" fill-opacity="0.1"/>
<path d="M48.088 20.66L44.956 29H43.372L40.228 20.66H41.692L44.164 27.596L46.648 20.66H48.088ZM49.928 21.512C49.68 21.512 49.472 21.428 49.304 21.26C49.136 21.092 49.052 20.884 49.052 20.636C49.052 20.388 49.136 20.18 49.304 20.012C49.472 19.844 49.68 19.76 49.928 19.76C50.168 19.76 50.372 19.844 50.54 20.012C50.708 20.18 50.792 20.388 50.792 20.636C50.792 20.884 50.708 21.092 50.54 21.26C50.372 21.428 50.168 21.512 49.928 21.512ZM50.6 22.388V29H49.232V22.388H50.6ZM53.7641 23.348C53.9641 23.012 54.2281 22.752 54.5561 22.568C54.8921 22.376 55.2881 22.28 55.7441 22.28V23.696H55.3961C54.8601 23.696 54.4521 23.832 54.1721 24.104C53.9001 24.376 53.7641 24.848 53.7641 25.52V29H52.3961V22.388H53.7641V23.348ZM58.5976 23.504V27.164C58.5976 27.412 58.6536 27.592 58.7656 27.704C58.8856 27.808 59.0856 27.86 59.3656 27.86H60.2056V29H59.1256C58.5096 29 58.0376 28.856 57.7096 28.568C57.3816 28.28 57.2176 27.812 57.2176 27.164V23.504H56.4376V22.388H57.2176V20.744H58.5976V22.388H60.2056V23.504H58.5976ZM67.4544 22.388V29H66.0864V28.22C65.8704 28.492 65.5864 28.708 65.2344 28.868C64.8904 29.02 64.5224 29.096 64.1304 29.096C63.6104 29.096 63.1424 28.988 62.7264 28.772C62.3184 28.556 61.9944 28.236 61.7544 27.812C61.5224 27.388 61.4064 26.876 61.4064 26.276V22.388H62.7624V26.072C62.7624 26.664 62.9104 27.12 63.2064 27.44C63.5024 27.752 63.9064 27.908 64.4184 27.908C64.9304 27.908 65.3344 27.752 65.6304 27.44C65.9344 27.12 66.0864 26.664 66.0864 26.072V22.388H67.4544ZM68.8034 25.664C68.8034 25 68.9394 24.412 69.2114 23.9C69.4914 23.388 69.8674 22.992 70.3394 22.712C70.8194 22.424 71.3474 22.28 71.9234 22.28C72.4434 22.28 72.8954 22.384 73.2794 22.592C73.6714 22.792 73.9834 23.044 74.2154 23.348V22.388H75.5954V29H74.2154V28.016C73.9834 28.328 73.6674 28.588 73.2674 28.796C72.8674 29.004 72.4114 29.108 71.8994 29.108C71.3314 29.108 70.8114 28.964 70.3394 28.676C69.8674 28.38 69.4914 27.972 69.2114 27.452C68.9394 26.924 68.8034 26.328 68.8034 25.664ZM74.2154 25.688C74.2154 25.232 74.1194 24.836 73.9274 24.5C73.7434 24.164 73.4994 23.908 73.1954 23.732C72.8914 23.556 72.5634 23.468 72.2114 23.468C71.8594 23.468 71.5314 23.556 71.2274 23.732C70.9234 23.9 70.6754 24.152 70.4834 24.488C70.2994 24.816 70.2074 25.208 70.2074 25.664C70.2074 26.12 70.2994 26.52 70.4834 26.864C70.6754 27.208 70.9234 27.472 71.2274 27.656C71.5394 27.832 71.8674 27.92 72.2114 27.92C72.5634 27.92 72.8914 27.832 73.1954 27.656C73.4994 27.48 73.7434 27.224 73.9274 26.888C74.1194 26.544 74.2154 26.144 74.2154 25.688ZM78.7602 20.12V29H77.3922V20.12H78.7602ZM86.2894 25.7L89.3374 29H87.4894L85.0414 26.156V29H83.6734V20.12H85.0414V25.28L87.4414 22.388H89.3374L86.2894 25.7ZM96.378 25.532C96.378 25.78 96.362 26.004 96.33 26.204H91.278C91.318 26.732 91.514 27.156 91.866 27.476C92.218 27.796 92.65 27.956 93.162 27.956C93.898 27.956 94.418 27.648 94.722 27.032H96.198C95.998 27.64 95.634 28.14 95.106 28.532C94.586 28.916 93.938 29.108 93.162 29.108C92.53 29.108 91.962 28.968 91.458 28.688C90.962 28.4 90.57 28 90.282 27.488C90.002 26.968 89.862 26.368 89.862 25.688C89.862 25.008 89.998 24.412 90.27 23.9C90.55 23.38 90.938 22.98 91.434 22.7C91.938 22.42 92.514 22.28 93.162 22.28C93.786 22.28 94.342 22.416 94.83 22.688C95.318 22.96 95.698 23.344 95.97 23.84C96.242 24.328 96.378 24.892 96.378 25.532ZM94.95 25.1C94.942 24.596 94.762 24.192 94.41 23.888C94.058 23.584 93.622 23.432 93.102 23.432C92.63 23.432 92.226 23.584 91.89 23.888C91.554 24.184 91.354 24.588 91.29 25.1H94.95ZM103.676 22.388L99.6202 32.108H98.2042L99.5482 28.892L96.9442 22.388H98.4682L100.328 27.428L102.26 22.388H103.676ZM106.077 23.372C106.309 23.052 106.625 22.792 107.025 22.592C107.433 22.384 107.885 22.28 108.381 22.28C108.965 22.28 109.493 22.42 109.965 22.7C110.437 22.98 110.809 23.38 111.081 23.9C111.353 24.412 111.489 25 111.489 25.664C111.489 26.328 111.353 26.924 111.081 27.452C110.809 27.972 110.433 28.38 109.953 28.676C109.481 28.964 108.957 29.108 108.381 29.108C107.869 29.108 107.413 29.008 107.013 28.808C106.621 28.608 106.309 28.352 106.077 28.04V29H104.709V20.12H106.077V23.372ZM110.097 25.664C110.097 25.208 110.001 24.816 109.809 24.488C109.625 24.152 109.377 23.9 109.065 23.732C108.761 23.556 108.433 23.468 108.081 23.468C107.737 23.468 107.409 23.556 107.097 23.732C106.793 23.908 106.545 24.164 106.353 24.5C106.169 24.836 106.077 25.232 106.077 25.688C106.077 26.144 106.169 26.544 106.353 26.888C106.545 27.224 106.793 27.48 107.097 27.656C107.409 27.832 107.737 27.92 108.081 27.92C108.433 27.92 108.761 27.832 109.065 27.656C109.377 27.472 109.625 27.208 109.809 26.864C110.001 26.52 110.097 26.12 110.097 25.664ZM115.709 29.108C115.085 29.108 114.521 28.968 114.017 28.688C113.513 28.4 113.117 28 112.829 27.488C112.541 26.968 112.397 26.368 112.397 25.688C112.397 25.016 112.545 24.42 112.841 23.9C113.137 23.38 113.541 22.98 114.053 22.7C114.565 22.42 115.137 22.28 115.769 22.28C116.401 22.28 116.973 22.42 117.485 22.7C117.997 22.98 118.401 23.38 118.697 23.9C118.993 24.42 119.141 25.016 119.141 25.688C119.141 26.36 118.989 26.956 118.685 27.476C118.381 27.996 117.965 28.4 117.437 28.688C116.917 28.968 116.341 29.108 115.709 29.108ZM115.709 27.92C116.061 27.92 116.389 27.836 116.693 27.668C117.005 27.5 117.257 27.248 117.449 26.912C117.641 26.576 117.737 26.168 117.737 25.688C117.737 25.208 117.645 24.804 117.461 24.476C117.277 24.14 117.033 23.888 116.729 23.72C116.425 23.552 116.097 23.468 115.745 23.468C115.393 23.468 115.065 23.552 114.761 23.72C114.465 23.888 114.229 24.14 114.053 24.476C113.877 24.804 113.789 25.208 113.789 25.688C113.789 26.4 113.969 26.952 114.329 27.344C114.697 27.728 115.157 27.92 115.709 27.92ZM120.038 25.664C120.038 25 120.174 24.412 120.446 23.9C120.726 23.388 121.102 22.992 121.574 22.712C122.054 22.424 122.582 22.28 123.158 22.28C123.678 22.28 124.13 22.384 124.514 22.592C124.906 22.792 125.218 23.044 125.45 23.348V22.388H126.83V29H125.45V28.016C125.218 28.328 124.902 28.588 124.502 28.796C124.102 29.004 123.646 29.108 123.134 29.108C122.566 29.108 122.046 28.964 121.574 28.676C121.102 28.38 120.726 27.972 120.446 27.452C120.174 26.924 120.038 26.328 120.038 25.664ZM125.45 25.688C125.45 25.232 125.354 24.836 125.162 24.5C124.978 24.164 124.734 23.908 124.43 23.732C124.126 23.556 123.798 23.468 123.446 23.468C123.094 23.468 122.766 23.556 122.462 23.732C122.158 23.9 121.91 24.152 121.718 24.488C121.534 24.816 121.442 25.208 121.442 25.664C121.442 26.12 121.534 26.52 121.718 26.864C121.91 27.208 122.158 27.472 122.462 27.656C122.774 27.832 123.102 27.92 123.446 27.92C123.798 27.92 124.126 27.832 124.43 27.656C124.734 27.48 124.978 27.224 125.162 26.888C125.354 26.544 125.45 26.144 125.45 25.688ZM129.995 23.348C130.195 23.012 130.459 22.752 130.787 22.568C131.123 22.376 131.519 22.28 131.975 22.28V23.696H131.627C131.091 23.696 130.683 23.832 130.403 24.104C130.131 24.376 129.995 24.848 129.995 25.52V29H128.627V22.388H129.995V23.348ZM132.776 25.664C132.776 25 132.912 24.412 133.184 23.9C133.464 23.388 133.84 22.992 134.312 22.712C134.792 22.424 135.324 22.28 135.908 22.28C136.34 22.28 136.764 22.376 137.18 22.568C137.604 22.752 137.94 23 138.188 23.312V20.12H139.568V29H138.188V28.004C137.964 28.324 137.652 28.588 137.252 28.796C136.86 29.004 136.408 29.108 135.896 29.108C135.32 29.108 134.792 28.964 134.312 28.676C133.84 28.38 133.464 27.972 133.184 27.452C132.912 26.924 132.776 26.328 132.776 25.664ZM138.188 25.688C138.188 25.232 138.092 24.836 137.9 24.5C137.716 24.164 137.472 23.908 137.168 23.732C136.864 23.556 136.536 23.468 136.184 23.468C135.832 23.468 135.504 23.556 135.2 23.732C134.896 23.9 134.648 24.152 134.456 24.488C134.272 24.816 134.18 25.208 134.18 25.664C134.18 26.12 134.272 26.52 134.456 26.864C134.648 27.208 134.896 27.472 135.2 27.656C135.512 27.832 135.84 27.92 136.184 27.92C136.536 27.92 136.864 27.832 137.168 27.656C137.472 27.48 137.716 27.224 137.9 26.888C138.092 26.544 138.188 26.144 138.188 25.688Z" fill="black"/>
<rect x="23" y="27" width="5" height="2" rx="1" fill="black"/>
<rect x="29" y="24" width="2" height="2" rx="1" fill="black"/>
<rect x="29" y="21" width="2" height="2" rx="1" fill="black"/>
<rect x="26" y="21" width="2" height="2" rx="1" fill="black"/>
<rect x="23" y="21" width="2" height="2" rx="1" fill="black"/>
<rect x="20" y="21" width="2" height="2" rx="1" fill="black"/>
<rect x="29" y="27" width="2" height="2" rx="1" fill="black"/>
<rect x="26" y="24" width="2" height="2" rx="1" fill="black"/>
<rect x="23" y="24" width="2" height="2" rx="1" fill="black"/>
<rect x="20" y="24" width="2" height="2" rx="1" fill="black"/>
<rect x="20" y="27" width="2" height="2" rx="1" fill="black"/>
</svg>
