<svg width="80" height="28" viewBox="0 0 80 28" fill="none" xmlns="http://www.w3.org/2000/svg">
<rect width="80" height="28" rx="5" fill="#E6E6E6"/>
<path d="M11.33 11.76C11.1233 11.76 10.95 11.69 10.81 11.55C10.67 11.41 10.6 11.2367 10.6 11.03C10.6 10.8233 10.67 10.65 10.81 10.51C10.95 10.37 11.1233 10.3 11.33 10.3C11.53 10.3 11.7 10.37 11.84 10.51C11.98 10.65 12.05 10.8233 12.05 11.03C12.05 11.2367 11.98 11.41 11.84 11.55C11.7 11.69 11.53 11.76 11.33 11.76ZM11.89 12.49V18H10.75V12.49H11.89ZM16.1667 12.4C16.6001 12.4 16.9867 12.49 17.3267 12.67C17.6734 12.85 17.9434 13.1167 18.1367 13.47C18.3301 13.8233 18.4267 14.25 18.4267 14.75V18H17.2967V14.92C17.2967 14.4267 17.1734 14.05 16.9267 13.79C16.6801 13.5233 16.3434 13.39 15.9167 13.39C15.4901 13.39 15.1501 13.5233 14.8967 13.79C14.6501 14.05 14.5267 14.4267 14.5267 14.92V18H13.3867V12.49H14.5267V13.12C14.7134 12.8933 14.9501 12.7167 15.2367 12.59C15.5301 12.4633 15.8401 12.4 16.1667 12.4ZM21.8809 18.09C21.4475 18.09 21.0575 18.0133 20.7109 17.86C20.3709 17.7 20.1009 17.4867 19.9009 17.22C19.7009 16.9467 19.5942 16.6433 19.5809 16.31H20.7609C20.7809 16.5433 20.8909 16.74 21.0909 16.9C21.2975 17.0533 21.5542 17.13 21.8609 17.13C22.1809 17.13 22.4275 17.07 22.6009 16.95C22.7809 16.8233 22.8709 16.6633 22.8709 16.47C22.8709 16.2633 22.7709 16.11 22.5709 16.01C22.3775 15.91 22.0675 15.8 21.6409 15.68C21.2275 15.5667 20.8909 15.4567 20.6309 15.35C20.3709 15.2433 20.1442 15.08 19.9509 14.86C19.7642 14.64 19.6709 14.35 19.6709 13.99C19.6709 13.6967 19.7575 13.43 19.9309 13.19C20.1042 12.9433 20.3509 12.75 20.6709 12.61C20.9975 12.47 21.3709 12.4 21.7909 12.4C22.4175 12.4 22.9209 12.56 23.3009 12.88C23.6875 13.1933 23.8942 13.6233 23.9209 14.17H22.7809C22.7609 13.9233 22.6609 13.7267 22.4809 13.58C22.3009 13.4333 22.0575 13.36 21.7509 13.36C21.4509 13.36 21.2209 13.4167 21.0609 13.53C20.9009 13.6433 20.8209 13.7933 20.8209 13.98C20.8209 14.1267 20.8742 14.25 20.9809 14.35C21.0875 14.45 21.2175 14.53 21.3709 14.59C21.5242 14.6433 21.7509 14.7133 22.0509 14.8C22.4509 14.9067 22.7775 15.0167 23.0309 15.13C23.2909 15.2367 23.5142 15.3967 23.7009 15.61C23.8875 15.8233 23.9842 16.1067 23.9909 16.46C23.9909 16.7733 23.9042 17.0533 23.7309 17.3C23.5575 17.5467 23.3109 17.74 22.9909 17.88C22.6775 18.02 22.3075 18.09 21.8809 18.09ZM26.5527 13.42V16.47C26.5527 16.6767 26.5993 16.8267 26.6927 16.92C26.7927 17.0067 26.9593 17.05 27.1927 17.05H27.8927V18H26.9927C26.4793 18 26.086 17.88 25.8127 17.64C25.5393 17.4 25.4027 17.01 25.4027 16.47V13.42H24.7527V12.49H25.4027V11.12H26.5527V12.49H27.8927V13.42H26.5527ZM28.5634 15.22C28.5634 14.6667 28.6767 14.1767 28.9034 13.75C29.1367 13.3233 29.45 12.9933 29.8434 12.76C30.2434 12.52 30.6834 12.4 31.1634 12.4C31.5967 12.4 31.9734 12.4867 32.2934 12.66C32.62 12.8267 32.88 13.0367 33.0734 13.29V12.49H34.2234V18H33.0734V17.18C32.88 17.44 32.6167 17.6567 32.2834 17.83C31.95 18.0033 31.57 18.09 31.1434 18.09C30.67 18.09 30.2367 17.97 29.8434 17.73C29.45 17.4833 29.1367 17.1433 28.9034 16.71C28.6767 16.27 28.5634 15.7733 28.5634 15.22ZM33.0734 15.24C33.0734 14.86 32.9934 14.53 32.8334 14.25C32.68 13.97 32.4767 13.7567 32.2234 13.61C31.97 13.4633 31.6967 13.39 31.4034 13.39C31.11 13.39 30.8367 13.4633 30.5834 13.61C30.33 13.75 30.1234 13.96 29.9634 14.24C29.81 14.5133 29.7334 14.84 29.7334 15.22C29.7334 15.6 29.81 15.9333 29.9634 16.22C30.1234 16.5067 30.33 16.7267 30.5834 16.88C30.8434 17.0267 31.1167 17.1 31.4034 17.1C31.6967 17.1 31.97 17.0267 32.2234 16.88C32.4767 16.7333 32.68 16.52 32.8334 16.24C32.9934 15.9533 33.0734 15.62 33.0734 15.24ZM36.8607 10.6V18H35.7207V10.6H36.8607ZM39.4974 10.6V18H38.3574V10.6H39.4974Z" fill="black"/>
</svg>
