<svg xmlns="http://www.w3.org/2000/svg" fill="none" viewBox="0 0 140 42" height="42" width="140">
<path fill="white" d="M6.936 19.06C6.72 18.644 6.42 18.332 6.036 18.124C5.652 17.908 5.208 17.8 4.704 17.8C4.152 17.8 3.66 17.924 3.228 18.172C2.796 18.42 2.456 18.772 2.208 19.228C1.968 19.684 1.848 20.212 1.848 20.812C1.848 21.412 1.968 21.944 2.208 22.408C2.456 22.864 2.796 23.216 3.228 23.464C3.66 23.712 4.152 23.836 4.704 23.836C5.448 23.836 6.052 23.628 6.516 23.212C6.98 22.796 7.264 22.232 7.368 21.52H4.236V20.428H8.832V21.496C8.744 22.144 8.512 22.74 8.136 23.284C7.768 23.828 7.284 24.264 6.684 24.592C6.092 24.912 5.432 25.072 4.704 25.072C3.92 25.072 3.204 24.892 2.556 24.532C1.908 24.164 1.392 23.656 1.008 23.008C0.632 22.36 0.444 21.628 0.444 20.812C0.444 19.996 0.632 19.264 1.008 18.616C1.392 17.968 1.908 17.464 2.556 17.104C3.212 16.736 3.928 16.552 4.704 16.552C5.592 16.552 6.38 16.772 7.068 17.212C7.764 17.644 8.268 18.26 8.58 19.06H6.936ZM16.1693 18.388V25H14.8013V24.22C14.5853 24.492 14.3013 24.708 13.9493 24.868C13.6053 25.02 13.2373 25.096 12.8453 25.096C12.3253 25.096 11.8573 24.988 11.4413 24.772C11.0333 24.556 10.7093 24.236 10.4693 23.812C10.2373 23.388 10.1213 22.876 10.1213 22.276V18.388H11.4773V22.072C11.4773 22.664 11.6253 23.12 11.9213 23.44C12.2173 23.752 12.6213 23.908 13.1333 23.908C13.6453 23.908 14.0493 23.752 14.3453 23.44C14.6493 23.12 14.8013 22.664 14.8013 22.072V18.388H16.1693ZM18.6702 17.512C18.4222 17.512 18.2142 17.428 18.0462 17.26C17.8782 17.092 17.7942 16.884 17.7942 16.636C17.7942 16.388 17.8782 16.18 18.0462 16.012C18.2142 15.844 18.4222 15.76 18.6702 15.76C18.9102 15.76 19.1142 15.844 19.2822 16.012C19.4502 16.18 19.5342 16.388 19.5342 16.636C19.5342 16.884 19.4502 17.092 19.2822 17.26C19.1142 17.428 18.9102 17.512 18.6702 17.512ZM19.3422 18.388V25H17.9742V18.388H19.3422ZM22.7343 19.504V23.164C22.7343 23.412 22.7903 23.592 22.9023 23.704C23.0223 23.808 23.2223 23.86 23.5023 23.86H24.3423V25H23.2623C22.6463 25 22.1743 24.856 21.8463 24.568C21.5183 24.28 21.3543 23.812 21.3543 23.164V19.504H20.5743V18.388H21.3543V16.744H22.7343V18.388H24.3423V19.504H22.7343ZM25.1471 21.664C25.1471 21 25.2831 20.412 25.5551 19.9C25.8351 19.388 26.2111 18.992 26.6831 18.712C27.1631 18.424 27.6911 18.28 28.2671 18.28C28.7871 18.28 29.2391 18.384 29.6231 18.592C30.0151 18.792 30.3271 19.044 30.5591 19.348V18.388H31.9391V25H30.5591V24.016C30.3271 24.328 30.0111 24.588 29.6111 24.796C29.2111 25.004 28.7551 25.108 28.2431 25.108C27.6751 25.108 27.1551 24.964 26.6831 24.676C26.2111 24.38 25.8351 23.972 25.5551 23.452C25.2831 22.924 25.1471 22.328 25.1471 21.664ZM30.5591 21.688C30.5591 21.232 30.4631 20.836 30.2711 20.5C30.0871 20.164 29.8431 19.908 29.5391 19.732C29.2351 19.556 28.9071 19.468 28.5551 19.468C28.2031 19.468 27.8751 19.556 27.5711 19.732C27.2671 19.9 27.0191 20.152 26.8271 20.488C26.6431 20.816 26.5511 21.208 26.5511 21.664C26.5511 22.12 26.6431 22.52 26.8271 22.864C27.0191 23.208 27.2671 23.472 27.5711 23.656C27.8831 23.832 28.2111 23.92 28.5551 23.92C28.9071 23.92 29.2351 23.832 29.5391 23.656C29.8431 23.48 30.0871 23.224 30.2711 22.888C30.4631 22.544 30.5591 22.144 30.5591 21.688ZM35.1039 19.348C35.3039 19.012 35.5679 18.752 35.8959 18.568C36.2319 18.376 36.6279 18.28 37.0839 18.28V19.696H36.7359C36.1999 19.696 35.7919 19.832 35.5119 20.104C35.2399 20.376 35.1039 20.848 35.1039 21.52V25H33.7359V18.388H35.1039V19.348Z"></path>
</svg>
