<svg xmlns="http://www.w3.org/2000/svg" fill="none" viewBox="0 0 480 360" height="360" width="480">
<path fill="black" d="M28.384 19.88V21.368H25.424V31H23.6V21.368H20.624V19.88H28.384ZM38.3113 26.376C38.3113 26.7067 38.2899 27.0053 38.2473 27.272H31.5113C31.5646 27.976 31.8259 28.5413 32.2953 28.968C32.7646 29.3947 33.3406 29.608 34.0233 29.608C35.0046 29.608 35.6979 29.1973 36.1033 28.376H38.0712C37.8046 29.1867 37.3193 29.8533 36.6153 30.376C35.9219 30.888 35.0579 31.144 34.0233 31.144C33.1806 31.144 32.4233 30.9573 31.7513 30.584C31.0899 30.2 30.5673 29.6667 30.1833 28.984C29.8099 28.2907 29.6233 27.4907 29.6233 26.584C29.6233 25.6773 29.8046 24.8827 30.1673 24.2C30.5406 23.5067 31.0579 22.9733 31.7193 22.6C32.3913 22.2267 33.1593 22.04 34.0233 22.04C34.8553 22.04 35.5966 22.2213 36.2473 22.584C36.8979 22.9467 37.4046 23.4587 37.7673 24.12C38.1299 24.7707 38.3113 25.5227 38.3113 26.376ZM36.4073 25.8C36.3966 25.128 36.1566 24.5893 35.6873 24.184C35.2179 23.7787 34.6366 23.576 33.9433 23.576C33.3139 23.576 32.7753 23.7787 32.3273 24.184C31.8793 24.5787 31.6126 25.1173 31.5273 25.8H36.4073ZM41.9303 23.464C42.1969 23.016 42.5489 22.6693 42.9863 22.424C43.4343 22.168 43.9623 22.04 44.5703 22.04V23.928H44.1063C43.3916 23.928 42.8476 24.1093 42.4743 24.472C42.1116 24.8347 41.9303 25.464 41.9303 26.36V31H40.1063V22.184H41.9303V23.464ZM56.9189 22.04C57.6122 22.04 58.2309 22.184 58.7749 22.472C59.3295 22.76 59.7615 23.1867 60.0709 23.752C60.3909 24.3173 60.5509 25 60.5509 25.8V31H58.7429V26.072C58.7429 25.2827 58.5455 24.68 58.1509 24.264C57.7562 23.8373 57.2175 23.624 56.5349 23.624C55.8522 23.624 55.3082 23.8373 54.9029 24.264C54.5082 24.68 54.3109 25.2827 54.3109 26.072V31H52.5029V26.072C52.5029 25.2827 52.3055 24.68 51.9109 24.264C51.5162 23.8373 50.9775 23.624 50.2949 23.624C49.6122 23.624 49.0682 23.8373 48.6629 24.264C48.2682 24.68 48.0709 25.2827 48.0709 26.072V31H46.2469V22.184H48.0709V23.192C48.3695 22.8293 48.7482 22.5467 49.2069 22.344C49.6655 22.1413 50.1562 22.04 50.6789 22.04C51.3829 22.04 52.0122 22.1893 52.5669 22.488C53.1215 22.7867 53.5482 23.2187 53.8469 23.784C54.1135 23.2507 54.5295 22.8293 55.0949 22.52C55.6602 22.2 56.2682 22.04 56.9189 22.04ZM63.7999 21.016C63.4692 21.016 63.1919 20.904 62.9679 20.68C62.7439 20.456 62.6319 20.1787 62.6319 19.848C62.6319 19.5173 62.7439 19.24 62.9679 19.016C63.1919 18.792 63.4692 18.68 63.7999 18.68C64.1199 18.68 64.3919 18.792 64.6159 19.016C64.8399 19.24 64.9519 19.5173 64.9519 19.848C64.9519 20.1787 64.8399 20.456 64.6159 20.68C64.3919 20.904 64.1199 21.016 63.7999 21.016ZM64.6959 22.184V31H62.8719V22.184H64.6959ZM71.5386 22.04C72.232 22.04 72.8506 22.184 73.3946 22.472C73.9493 22.76 74.3813 23.1867 74.6906 23.752C75 24.3173 75.1546 25 75.1546 25.8V31H73.3466V26.072C73.3466 25.2827 73.1493 24.68 72.7546 24.264C72.36 23.8373 71.8213 23.624 71.1386 23.624C70.456 23.624 69.912 23.8373 69.5066 24.264C69.112 24.68 68.9146 25.2827 68.9146 26.072V31H67.0906V22.184H68.9146V23.192C69.2133 22.8293 69.592 22.5467 70.0506 22.344C70.52 22.1413 71.016 22.04 71.5386 22.04ZM76.8733 26.552C76.8733 25.6667 77.0546 24.8827 77.4173 24.2C77.7906 23.5173 78.2919 22.9893 78.9213 22.616C79.5613 22.232 80.2653 22.04 81.0333 22.04C81.7266 22.04 82.3293 22.1787 82.8413 22.456C83.3639 22.7227 83.7799 23.0587 84.0893 23.464V22.184H85.9293V31H84.0893V29.688C83.7799 30.104 83.3586 30.4507 82.8253 30.728C82.2919 31.0053 81.6839 31.144 81.0013 31.144C80.2439 31.144 79.5506 30.952 78.9213 30.568C78.2919 30.1733 77.7906 29.6293 77.4173 28.936C77.0546 28.232 76.8733 27.4373 76.8733 26.552ZM84.0893 26.584C84.0893 25.976 83.9613 25.448 83.7053 25C83.4599 24.552 83.1346 24.2107 82.7293 23.976C82.3239 23.7413 81.8866 23.624 81.4173 23.624C80.9479 23.624 80.5106 23.7413 80.1053 23.976C79.6999 24.2 79.3693 24.536 79.1133 24.984C78.8679 25.4213 78.7453 25.944 78.7453 26.552C78.7453 27.16 78.8679 27.6933 79.1133 28.152C79.3693 28.6107 79.6999 28.9627 80.1053 29.208C80.5213 29.4427 80.9586 29.56 81.4173 29.56C81.8866 29.56 82.3239 29.4427 82.7293 29.208C83.1346 28.9733 83.4599 28.632 83.7053 28.184C83.9613 27.7253 84.0893 27.192 84.0893 26.584ZM90.149 19.16V31H88.325V19.16H90.149Z"></path>
<rect fill-opacity="0.1" fill="black" rx="15" height="30" width="70" y="10" x="110"></rect>
<path fill="black" d="M138.978 20.66V29H137.61V25.352H133.686V29H132.318V20.66H133.686V24.236H137.61V20.66H138.978ZM146.839 25.532C146.839 25.78 146.823 26.004 146.791 26.204H141.739C141.779 26.732 141.975 27.156 142.327 27.476C142.679 27.796 143.111 27.956 143.623 27.956C144.359 27.956 144.879 27.648 145.183 27.032H146.659C146.459 27.64 146.095 28.14 145.567 28.532C145.047 28.916 144.399 29.108 143.623 29.108C142.991 29.108 142.423 28.968 141.919 28.688C141.423 28.4 141.031 28 140.743 27.488C140.463 26.968 140.323 26.368 140.323 25.688C140.323 25.008 140.459 24.412 140.731 23.9C141.011 23.38 141.399 22.98 141.895 22.7C142.399 22.42 142.975 22.28 143.623 22.28C144.247 22.28 144.803 22.416 145.291 22.688C145.779 22.96 146.159 23.344 146.431 23.84C146.703 24.328 146.839 24.892 146.839 25.532ZM145.411 25.1C145.403 24.596 145.223 24.192 144.871 23.888C144.519 23.584 144.083 23.432 143.563 23.432C143.091 23.432 142.687 23.584 142.351 23.888C142.015 24.184 141.815 24.588 141.751 25.1H145.411ZM149.553 20.12V29H148.185V20.12H149.553ZM152.717 23.36C152.949 23.056 153.265 22.8 153.665 22.592C154.065 22.384 154.517 22.28 155.021 22.28C155.597 22.28 156.121 22.424 156.593 22.712C157.073 22.992 157.449 23.388 157.721 23.9C157.993 24.412 158.129 25 158.129 25.664C158.129 26.328 157.993 26.924 157.721 27.452C157.449 27.972 157.073 28.38 156.593 28.676C156.121 28.964 155.597 29.108 155.021 29.108C154.517 29.108 154.069 29.008 153.677 28.808C153.285 28.6 152.965 28.344 152.717 28.04V32.144H151.349V22.388H152.717V23.36ZM156.737 25.664C156.737 25.208 156.641 24.816 156.449 24.488C156.265 24.152 156.017 23.9 155.705 23.732C155.401 23.556 155.073 23.468 154.721 23.468C154.377 23.468 154.049 23.556 153.737 23.732C153.433 23.908 153.185 24.164 152.993 24.5C152.809 24.836 152.717 25.232 152.717 25.688C152.717 26.144 152.809 26.544 152.993 26.888C153.185 27.224 153.433 27.48 153.737 27.656C154.049 27.832 154.377 27.92 154.721 27.92C155.073 27.92 155.401 27.832 155.705 27.656C156.017 27.472 156.265 27.208 156.449 26.864C156.641 26.52 156.737 26.12 156.737 25.664Z"></path>
<path fill="black" d="M369.602 29H368.234L364.118 22.772V29H362.75V20.648H364.118L368.234 26.864V20.648H369.602V29ZM374.266 29.108C373.642 29.108 373.078 28.968 372.574 28.688C372.07 28.4 371.674 28 371.386 27.488C371.098 26.968 370.954 26.368 370.954 25.688C370.954 25.016 371.102 24.42 371.398 23.9C371.694 23.38 372.098 22.98 372.61 22.7C373.122 22.42 373.694 22.28 374.326 22.28C374.958 22.28 375.53 22.42 376.042 22.7C376.554 22.98 376.958 23.38 377.254 23.9C377.55 24.42 377.698 25.016 377.698 25.688C377.698 26.36 377.546 26.956 377.242 27.476C376.938 27.996 376.522 28.4 375.994 28.688C375.474 28.968 374.898 29.108 374.266 29.108ZM374.266 27.92C374.618 27.92 374.946 27.836 375.25 27.668C375.562 27.5 375.814 27.248 376.006 26.912C376.198 26.576 376.294 26.168 376.294 25.688C376.294 25.208 376.202 24.804 376.018 24.476C375.834 24.14 375.59 23.888 375.286 23.72C374.982 23.552 374.654 23.468 374.302 23.468C373.95 23.468 373.622 23.552 373.318 23.72C373.022 23.888 372.786 24.14 372.61 24.476C372.434 24.804 372.346 25.208 372.346 25.688C372.346 26.4 372.526 26.952 372.886 27.344C373.254 27.728 373.714 27.92 374.266 27.92Z"></path>
<path fill="black" d="M326.539 20.66L323.779 25.976V29H322.411V25.976L319.639 20.66H321.163L323.095 24.752L325.027 20.66H326.539ZM333.685 25.532C333.685 25.78 333.669 26.004 333.637 26.204H328.585C328.625 26.732 328.821 27.156 329.173 27.476C329.525 27.796 329.957 27.956 330.469 27.956C331.205 27.956 331.725 27.648 332.029 27.032H333.505C333.305 27.64 332.941 28.14 332.413 28.532C331.893 28.916 331.245 29.108 330.469 29.108C329.837 29.108 329.269 28.968 328.765 28.688C328.269 28.4 327.877 28 327.589 27.488C327.309 26.968 327.169 26.368 327.169 25.688C327.169 25.008 327.305 24.412 327.577 23.9C327.857 23.38 328.245 22.98 328.741 22.7C329.245 22.42 329.821 22.28 330.469 22.28C331.093 22.28 331.649 22.416 332.137 22.688C332.625 22.96 333.005 23.344 333.277 23.84C333.549 24.328 333.685 24.892 333.685 25.532ZM332.257 25.1C332.249 24.596 332.069 24.192 331.717 23.888C331.365 23.584 330.929 23.432 330.409 23.432C329.937 23.432 329.533 23.584 329.197 23.888C328.861 24.184 328.661 24.588 328.597 25.1H332.257ZM337.431 29.108C336.911 29.108 336.443 29.016 336.027 28.832C335.619 28.64 335.295 28.384 335.055 28.064C334.815 27.736 334.687 27.372 334.671 26.972H336.087C336.111 27.252 336.243 27.488 336.483 27.68C336.731 27.864 337.039 27.956 337.407 27.956C337.791 27.956 338.087 27.884 338.295 27.74C338.511 27.588 338.619 27.396 338.619 27.164C338.619 26.916 338.499 26.732 338.259 26.612C338.027 26.492 337.655 26.36 337.143 26.216C336.647 26.08 336.243 25.948 335.931 25.82C335.619 25.692 335.347 25.496 335.115 25.232C334.891 24.968 334.779 24.62 334.779 24.188C334.779 23.836 334.883 23.516 335.091 23.228C335.299 22.932 335.595 22.7 335.979 22.532C336.371 22.364 336.819 22.28 337.323 22.28C338.075 22.28 338.679 22.472 339.135 22.856C339.599 23.232 339.847 23.748 339.879 24.404H338.511C338.487 24.108 338.367 23.872 338.151 23.696C337.935 23.52 337.643 23.432 337.275 23.432C336.915 23.432 336.639 23.5 336.447 23.636C336.255 23.772 336.159 23.952 336.159 24.176C336.159 24.352 336.223 24.5 336.351 24.62C336.479 24.74 336.635 24.836 336.819 24.908C337.003 24.972 337.275 25.056 337.635 25.16C338.115 25.288 338.507 25.42 338.811 25.556C339.123 25.684 339.391 25.876 339.615 26.132C339.839 26.388 339.955 26.728 339.963 27.152C339.963 27.528 339.859 27.864 339.651 28.16C339.443 28.456 339.147 28.688 338.763 28.856C338.387 29.024 337.943 29.108 337.431 29.108Z"></path>
<path fill="black" d="M193.91 29.084C193.35 29.084 192.846 28.988 192.398 28.796C191.95 28.596 191.598 28.316 191.342 27.956C191.086 27.596 190.958 27.176 190.958 26.696H192.422C192.454 27.056 192.594 27.352 192.842 27.584C193.098 27.816 193.454 27.932 193.91 27.932C194.382 27.932 194.75 27.82 195.014 27.596C195.278 27.364 195.41 27.068 195.41 26.708C195.41 26.428 195.326 26.2 195.158 26.024C194.998 25.848 194.794 25.712 194.546 25.616C194.306 25.52 193.97 25.416 193.538 25.304C192.994 25.16 192.55 25.016 192.206 24.872C191.87 24.72 191.582 24.488 191.342 24.176C191.102 23.864 190.982 23.448 190.982 22.928C190.982 22.448 191.102 22.028 191.342 21.668C191.582 21.308 191.918 21.032 192.35 20.84C192.782 20.648 193.282 20.552 193.85 20.552C194.658 20.552 195.318 20.756 195.83 21.164C196.35 21.564 196.638 22.116 196.694 22.82H195.182C195.158 22.516 195.014 22.256 194.75 22.04C194.486 21.824 194.138 21.716 193.706 21.716C193.314 21.716 192.994 21.816 192.746 22.016C192.498 22.216 192.374 22.504 192.374 22.88C192.374 23.136 192.45 23.348 192.602 23.516C192.762 23.676 192.962 23.804 193.202 23.9C193.442 23.996 193.77 24.1 194.186 24.212C194.738 24.364 195.186 24.516 195.53 24.668C195.882 24.82 196.178 25.056 196.418 25.376C196.666 25.688 196.79 26.108 196.79 26.636C196.79 27.06 196.674 27.46 196.442 27.836C196.218 28.212 195.886 28.516 195.446 28.748C195.014 28.972 194.502 29.084 193.91 29.084ZM201.824 22.28C202.328 22.28 202.776 22.388 203.168 22.604C203.568 22.82 203.88 23.14 204.104 23.564C204.336 23.988 204.452 24.5 204.452 25.1V29H203.096V25.304C203.096 24.712 202.948 24.26 202.652 23.948C202.356 23.628 201.952 23.468 201.44 23.468C200.928 23.468 200.52 23.628 200.216 23.948C199.92 24.26 199.772 24.712 199.772 25.304V29H198.404V20.12H199.772V23.156C200.004 22.876 200.296 22.66 200.648 22.508C201.008 22.356 201.4 22.28 201.824 22.28ZM209.065 29.108C208.441 29.108 207.877 28.968 207.373 28.688C206.869 28.4 206.473 28 206.185 27.488C205.897 26.968 205.753 26.368 205.753 25.688C205.753 25.016 205.901 24.42 206.197 23.9C206.493 23.38 206.897 22.98 207.409 22.7C207.921 22.42 208.493 22.28 209.125 22.28C209.757 22.28 210.329 22.42 210.841 22.7C211.353 22.98 211.757 23.38 212.053 23.9C212.349 24.42 212.497 25.016 212.497 25.688C212.497 26.36 212.345 26.956 212.041 27.476C211.737 27.996 211.321 28.4 210.793 28.688C210.273 28.968 209.697 29.108 209.065 29.108ZM209.065 27.92C209.417 27.92 209.745 27.836 210.049 27.668C210.361 27.5 210.613 27.248 210.805 26.912C210.997 26.576 211.093 26.168 211.093 25.688C211.093 25.208 211.001 24.804 210.817 24.476C210.633 24.14 210.389 23.888 210.085 23.72C209.781 23.552 209.453 23.468 209.101 23.468C208.749 23.468 208.421 23.552 208.117 23.72C207.821 23.888 207.585 24.14 207.409 24.476C207.233 24.804 207.145 25.208 207.145 25.688C207.145 26.4 207.325 26.952 207.685 27.344C208.053 27.728 208.513 27.92 209.065 27.92ZM222.729 22.388L220.677 29H219.237L217.905 24.116L216.573 29H215.133L213.069 22.388H214.461L215.841 27.704L217.245 22.388H218.673L220.017 27.68L221.385 22.388H222.729ZM229.269 29.108C228.749 29.108 228.281 29.016 227.865 28.832C227.457 28.64 227.133 28.384 226.893 28.064C226.653 27.736 226.525 27.372 226.509 26.972H227.925C227.949 27.252 228.081 27.488 228.321 27.68C228.569 27.864 228.877 27.956 229.245 27.956C229.629 27.956 229.925 27.884 230.133 27.74C230.349 27.588 230.457 27.396 230.457 27.164C230.457 26.916 230.337 26.732 230.097 26.612C229.865 26.492 229.493 26.36 228.981 26.216C228.485 26.08 228.081 25.948 227.769 25.82C227.457 25.692 227.185 25.496 226.953 25.232C226.729 24.968 226.617 24.62 226.617 24.188C226.617 23.836 226.721 23.516 226.929 23.228C227.137 22.932 227.433 22.7 227.817 22.532C228.209 22.364 228.657 22.28 229.161 22.28C229.913 22.28 230.517 22.472 230.973 22.856C231.437 23.232 231.685 23.748 231.717 24.404H230.349C230.325 24.108 230.205 23.872 229.989 23.696C229.773 23.52 229.481 23.432 229.113 23.432C228.753 23.432 228.477 23.5 228.285 23.636C228.093 23.772 227.997 23.952 227.997 24.176C227.997 24.352 228.061 24.5 228.189 24.62C228.317 24.74 228.473 24.836 228.657 24.908C228.841 24.972 229.113 25.056 229.473 25.16C229.953 25.288 230.345 25.42 230.649 25.556C230.961 25.684 231.229 25.876 231.453 26.132C231.677 26.388 231.793 26.728 231.801 27.152C231.801 27.528 231.697 27.864 231.489 28.16C231.281 28.456 230.985 28.688 230.601 28.856C230.225 29.024 229.781 29.108 229.269 29.108ZM239.267 22.388V29H237.899V28.22C237.683 28.492 237.399 28.708 237.047 28.868C236.703 29.02 236.335 29.096 235.943 29.096C235.423 29.096 234.955 28.988 234.539 28.772C234.131 28.556 233.807 28.236 233.567 27.812C233.335 27.388 233.219 26.876 233.219 26.276V22.388H234.575V26.072C234.575 26.664 234.723 27.12 235.019 27.44C235.315 27.752 235.719 27.908 236.231 27.908C236.743 27.908 237.147 27.752 237.443 27.44C237.747 27.12 237.899 26.664 237.899 26.072V22.388H239.267ZM243.736 22.28C244.248 22.28 244.7 22.384 245.092 22.592C245.492 22.792 245.804 23.044 246.028 23.348V22.388H247.408V29.108C247.408 29.716 247.28 30.256 247.024 30.728C246.768 31.208 246.396 31.584 245.908 31.856C245.428 32.128 244.852 32.264 244.18 32.264C243.284 32.264 242.54 32.052 241.948 31.628C241.356 31.212 241.02 30.644 240.94 29.924H242.296C242.4 30.268 242.62 30.544 242.956 30.752C243.3 30.968 243.708 31.076 244.18 31.076C244.732 31.076 245.176 30.908 245.512 30.572C245.856 30.236 246.028 29.748 246.028 29.108V28.004C245.796 28.316 245.48 28.58 245.08 28.796C244.688 29.004 244.24 29.108 243.736 29.108C243.16 29.108 242.632 28.964 242.152 28.676C241.68 28.38 241.304 27.972 241.024 27.452C240.752 26.924 240.616 26.328 240.616 25.664C240.616 25 240.752 24.412 241.024 23.9C241.304 23.388 241.68 22.992 242.152 22.712C242.632 22.424 243.16 22.28 243.736 22.28ZM246.028 25.688C246.028 25.232 245.932 24.836 245.74 24.5C245.556 24.164 245.312 23.908 245.008 23.732C244.704 23.556 244.376 23.468 244.024 23.468C243.672 23.468 243.344 23.556 243.04 23.732C242.736 23.9 242.488 24.152 242.296 24.488C242.112 24.816 242.02 25.208 242.02 25.664C242.02 26.12 242.112 26.52 242.296 26.864C242.488 27.208 242.736 27.472 243.04 27.656C243.352 27.832 243.68 27.92 244.024 27.92C244.376 27.92 244.704 27.832 245.008 27.656C245.312 27.48 245.556 27.224 245.74 26.888C245.932 26.544 246.028 26.144 246.028 25.688ZM251.869 22.28C252.381 22.28 252.833 22.384 253.225 22.592C253.625 22.792 253.937 23.044 254.161 23.348V22.388H255.541V29.108C255.541 29.716 255.413 30.256 255.157 30.728C254.901 31.208 254.529 31.584 254.041 31.856C253.561 32.128 252.985 32.264 252.313 32.264C251.417 32.264 250.673 32.052 250.081 31.628C249.489 31.212 249.153 30.644 249.073 29.924H250.429C250.533 30.268 250.753 30.544 251.089 30.752C251.433 30.968 251.841 31.076 252.313 31.076C252.865 31.076 253.309 30.908 253.645 30.572C253.989 30.236 254.161 29.748 254.161 29.108V28.004C253.929 28.316 253.613 28.58 253.213 28.796C252.821 29.004 252.373 29.108 251.869 29.108C251.293 29.108 250.765 28.964 250.285 28.676C249.813 28.38 249.437 27.972 249.157 27.452C248.885 26.924 248.749 26.328 248.749 25.664C248.749 25 248.885 24.412 249.157 23.9C249.437 23.388 249.813 22.992 250.285 22.712C250.765 22.424 251.293 22.28 251.869 22.28ZM254.161 25.688C254.161 25.232 254.065 24.836 253.873 24.5C253.689 24.164 253.445 23.908 253.141 23.732C252.837 23.556 252.509 23.468 252.157 23.468C251.805 23.468 251.477 23.556 251.173 23.732C250.869 23.9 250.621 24.152 250.429 24.488C250.245 24.816 250.153 25.208 250.153 25.664C250.153 26.12 250.245 26.52 250.429 26.864C250.621 27.208 250.869 27.472 251.173 27.656C251.485 27.832 251.813 27.92 252.157 27.92C252.509 27.92 252.837 27.832 253.141 27.656C253.445 27.48 253.689 27.224 253.873 26.888C254.065 26.544 254.161 26.144 254.161 25.688ZM263.398 25.532C263.398 25.78 263.382 26.004 263.35 26.204H258.298C258.338 26.732 258.534 27.156 258.886 27.476C259.238 27.796 259.67 27.956 260.182 27.956C260.918 27.956 261.438 27.648 261.742 27.032H263.217C263.018 27.64 262.654 28.14 262.126 28.532C261.606 28.916 260.958 29.108 260.182 29.108C259.55 29.108 258.982 28.968 258.478 28.688C257.982 28.4 257.59 28 257.302 27.488C257.022 26.968 256.882 26.368 256.882 25.688C256.882 25.008 257.018 24.412 257.29 23.9C257.57 23.38 257.958 22.98 258.454 22.7C258.958 22.42 259.534 22.28 260.182 22.28C260.806 22.28 261.362 22.416 261.85 22.688C262.338 22.96 262.718 23.344 262.99 23.84C263.262 24.328 263.398 24.892 263.398 25.532ZM261.97 25.1C261.962 24.596 261.782 24.192 261.43 23.888C261.078 23.584 260.642 23.432 260.122 23.432C259.65 23.432 259.246 23.584 258.91 23.888C258.574 24.184 258.374 24.588 258.31 25.1H261.97ZM267.144 29.108C266.624 29.108 266.156 29.016 265.74 28.832C265.332 28.64 265.008 28.384 264.768 28.064C264.528 27.736 264.4 27.372 264.384 26.972H265.8C265.824 27.252 265.956 27.488 266.196 27.68C266.444 27.864 266.752 27.956 267.12 27.956C267.504 27.956 267.8 27.884 268.008 27.74C268.224 27.588 268.332 27.396 268.332 27.164C268.332 26.916 268.212 26.732 267.972 26.612C267.74 26.492 267.368 26.36 266.856 26.216C266.36 26.08 265.956 25.948 265.644 25.82C265.332 25.692 265.06 25.496 264.828 25.232C264.604 24.968 264.492 24.62 264.492 24.188C264.492 23.836 264.596 23.516 264.804 23.228C265.012 22.932 265.308 22.7 265.692 22.532C266.084 22.364 266.532 22.28 267.036 22.28C267.788 22.28 268.392 22.472 268.848 22.856C269.312 23.232 269.56 23.748 269.592 24.404H268.224C268.2 24.108 268.08 23.872 267.864 23.696C267.648 23.52 267.356 23.432 266.988 23.432C266.628 23.432 266.352 23.5 266.16 23.636C265.968 23.772 265.872 23.952 265.872 24.176C265.872 24.352 265.936 24.5 266.064 24.62C266.192 24.74 266.348 24.836 266.532 24.908C266.716 24.972 266.988 25.056 267.348 25.16C267.828 25.288 268.22 25.42 268.524 25.556C268.836 25.684 269.104 25.876 269.328 26.132C269.552 26.388 269.668 26.728 269.676 27.152C269.676 27.528 269.572 27.864 269.364 28.16C269.156 28.456 268.86 28.688 268.476 28.856C268.1 29.024 267.656 29.108 267.144 29.108ZM272.75 23.504V27.164C272.75 27.412 272.806 27.592 272.918 27.704C273.038 27.808 273.238 27.86 273.518 27.86H274.358V29H273.278C272.662 29 272.19 28.856 271.862 28.568C271.534 28.28 271.37 27.812 271.37 27.164V23.504H270.59V22.388H271.37V20.744H272.75V22.388H274.358V23.504H272.75ZM276.315 21.512C276.067 21.512 275.859 21.428 275.691 21.26C275.523 21.092 275.439 20.884 275.439 20.636C275.439 20.388 275.523 20.18 275.691 20.012C275.859 19.844 276.067 19.76 276.315 19.76C276.555 19.76 276.759 19.844 276.927 20.012C277.095 20.18 277.179 20.388 277.179 20.636C277.179 20.884 277.095 21.092 276.927 21.26C276.759 21.428 276.555 21.512 276.315 21.512ZM276.987 22.388V29H275.619V22.388H276.987ZM281.651 29.108C281.027 29.108 280.463 28.968 279.959 28.688C279.455 28.4 279.059 28 278.771 27.488C278.483 26.968 278.339 26.368 278.339 25.688C278.339 25.016 278.487 24.42 278.783 23.9C279.079 23.38 279.483 22.98 279.995 22.7C280.507 22.42 281.079 22.28 281.711 22.28C282.343 22.28 282.915 22.42 283.427 22.7C283.939 22.98 284.343 23.38 284.639 23.9C284.935 24.42 285.083 25.016 285.083 25.688C285.083 26.36 284.931 26.956 284.627 27.476C284.323 27.996 283.907 28.4 283.379 28.688C282.859 28.968 282.283 29.108 281.651 29.108ZM281.651 27.92C282.003 27.92 282.331 27.836 282.635 27.668C282.947 27.5 283.199 27.248 283.391 26.912C283.583 26.576 283.679 26.168 283.679 25.688C283.679 25.208 283.587 24.804 283.403 24.476C283.219 24.14 282.975 23.888 282.671 23.72C282.367 23.552 282.039 23.468 281.687 23.468C281.335 23.468 281.007 23.552 280.703 23.72C280.407 23.888 280.171 24.14 279.995 24.476C279.819 24.804 279.731 25.208 279.731 25.688C279.731 26.4 279.911 26.952 280.271 27.344C280.639 27.728 281.099 27.92 281.651 27.92ZM289.771 22.28C290.291 22.28 290.755 22.388 291.163 22.604C291.579 22.82 291.903 23.14 292.135 23.564C292.367 23.988 292.483 24.5 292.483 25.1V29H291.127V25.304C291.127 24.712 290.979 24.26 290.683 23.948C290.387 23.628 289.983 23.468 289.471 23.468C288.959 23.468 288.551 23.628 288.247 23.948C287.951 24.26 287.803 24.712 287.803 25.304V29H286.435V22.388H287.803V23.144C288.027 22.872 288.311 22.66 288.655 22.508C289.007 22.356 289.379 22.28 289.771 22.28ZM296.628 29.108C296.108 29.108 295.64 29.016 295.224 28.832C294.816 28.64 294.492 28.384 294.252 28.064C294.012 27.736 293.884 27.372 293.868 26.972H295.284C295.308 27.252 295.44 27.488 295.68 27.68C295.928 27.864 296.236 27.956 296.604 27.956C296.988 27.956 297.284 27.884 297.492 27.74C297.708 27.588 297.816 27.396 297.816 27.164C297.816 26.916 297.696 26.732 297.456 26.612C297.224 26.492 296.852 26.36 296.34 26.216C295.844 26.08 295.44 25.948 295.128 25.82C294.816 25.692 294.544 25.496 294.312 25.232C294.088 24.968 293.976 24.62 293.976 24.188C293.976 23.836 294.08 23.516 294.288 23.228C294.496 22.932 294.792 22.7 295.176 22.532C295.568 22.364 296.016 22.28 296.52 22.28C297.272 22.28 297.876 22.472 298.332 22.856C298.796 23.232 299.044 23.748 299.076 24.404H297.708C297.684 24.108 297.564 23.872 297.348 23.696C297.132 23.52 296.84 23.432 296.472 23.432C296.112 23.432 295.836 23.5 295.644 23.636C295.452 23.772 295.356 23.952 295.356 24.176C295.356 24.352 295.42 24.5 295.548 24.62C295.676 24.74 295.832 24.836 296.016 24.908C296.2 24.972 296.472 25.056 296.832 25.16C297.312 25.288 297.704 25.42 298.008 25.556C298.32 25.684 298.588 25.876 298.812 26.132C299.036 26.388 299.152 26.728 299.16 27.152C299.16 27.528 299.056 27.864 298.848 28.16C298.64 28.456 298.344 28.688 297.96 28.856C297.584 29.024 297.14 29.108 296.628 29.108Z"></path>
</svg>
