<svg xmlns="http://www.w3.org/2000/svg" fill="none" viewBox="0 0 60 30" height="30" width="60">
<path fill="white" d="M40.7574 10.7573C41.1479 10.3668 41.781 10.3668 42.1716 10.7573L45 13.5857L47.8284 10.7573C48.219 10.3668 48.8521 10.3668 49.2426 10.7573V10.7573C49.6332 11.1478 49.6332 11.781 49.2426 12.1715L46.4142 14.9999L49.2426 17.8284C49.6332 18.2189 49.6332 18.852 49.2426 19.2426V19.2426C48.8521 19.6331 48.219 19.6331 47.8284 19.2426L45 16.4141L42.1716 19.2426C41.781 19.6331 41.1479 19.6331 40.7574 19.2426V19.2426C40.3668 18.852 40.3668 18.2189 40.7574 17.8284L43.5858 14.9999L40.7574 12.1715C40.3668 11.781 40.3668 11.1478 40.7574 10.7573V10.7573Z"></path>
<path stroke-width="2" stroke="white" d="M13 12H13.3508L13.6247 11.7809L17 9.08063L17 20.9194L13.6247 18.2191L13.3508 18H13H11C10.4477 18 10 17.5523 10 17V13C10 12.4477 10.4477 12 11 12H13Z"></path>
<path fill="white" d="M19 13V13C20.1046 13 21 13.8954 21 15V15C21 16.1046 20.1046 17 19 17V17V13Z"></path>
<rect stroke="#0A0A0A" fill="white" transform="rotate(45 19.2427 8.63615)" rx="1.5" height="15" width="3" y="8.63615" x="19.2427"></rect>
</svg>
