<svg xmlns="http://www.w3.org/2000/svg" fill="none" viewBox="0 0 30 30" height="30" width="30">
<rect fill="#E6E6E6" rx="15" height="30" width="30"></rect>
<path fill="black" d="M9.01957 17.48V16.62L12.3796 11.8H13.7596V16.49H14.6896V17.48H13.7596V19H12.6396V17.48H9.01957ZM12.6896 12.96L10.3296 16.49H12.6896V12.96ZM15.6342 15.26C15.6342 14.1067 15.8275 13.2067 16.2142 12.56C16.6075 11.9067 17.2808 11.58 18.2342 11.58C19.1875 11.58 19.8575 11.9067 20.2442 12.56C20.6375 13.2067 20.8342 14.1067 20.8342 15.26C20.8342 16.4267 20.6375 17.34 20.2442 18C19.8575 18.6533 19.1875 18.98 18.2342 18.98C17.2808 18.98 16.6075 18.6533 16.2142 18C15.8275 17.34 15.6342 16.4267 15.6342 15.26ZM19.7142 15.26C19.7142 14.72 19.6775 14.2633 19.6042 13.89C19.5375 13.5167 19.3975 13.2133 19.1842 12.98C18.9708 12.74 18.6542 12.62 18.2342 12.62C17.8142 12.62 17.4975 12.74 17.2842 12.98C17.0708 13.2133 16.9275 13.5167 16.8542 13.89C16.7875 14.2633 16.7542 14.72 16.7542 15.26C16.7542 15.82 16.7875 16.29 16.8542 16.67C16.9208 17.05 17.0608 17.3567 17.2742 17.59C17.4942 17.8233 17.8142 17.94 18.2342 17.94C18.6542 17.94 18.9708 17.8233 19.1842 17.59C19.4042 17.3567 19.5475 17.05 19.6142 16.67C19.6808 16.29 19.7142 15.82 19.7142 15.26Z"></path>
</svg>
