<svg width="80" height="28" viewBox="0 0 80 28" fill="none" xmlns="http://www.w3.org/2000/svg">
<rect width="80" height="28" rx="5" fill="#E6E6E6"/>
<path d="M12.75 18.09C12.3167 18.09 11.9267 18.0133 11.58 17.86C11.24 17.7 10.97 17.4867 10.77 17.22C10.57 16.9467 10.4633 16.6433 10.45 16.31H11.63C11.65 16.5433 11.76 16.74 11.96 16.9C12.1667 17.0533 12.4233 17.13 12.73 17.13C13.05 17.13 13.2967 17.07 13.47 16.95C13.65 16.8233 13.74 16.6633 13.74 16.47C13.74 16.2633 13.64 16.11 13.44 16.01C13.2467 15.91 12.9367 15.8 12.51 15.68C12.0967 15.5667 11.76 15.4567 11.5 15.35C11.24 15.2433 11.0133 15.08 10.82 14.86C10.6333 14.64 10.54 14.35 10.54 13.99C10.54 13.6967 10.6267 13.43 10.8 13.19C10.9733 12.9433 11.22 12.75 11.54 12.61C11.8667 12.47 12.24 12.4 12.66 12.4C13.2867 12.4 13.79 12.56 14.17 12.88C14.5567 13.1933 14.7633 13.6233 14.79 14.17H13.65C13.63 13.9233 13.53 13.7267 13.35 13.58C13.17 13.4333 12.9267 13.36 12.62 13.36C12.32 13.36 12.09 13.4167 11.93 13.53C11.77 13.6433 11.69 13.7933 11.69 13.98C11.69 14.1267 11.7433 14.25 11.85 14.35C11.9567 14.45 12.0867 14.53 12.24 14.59C12.3933 14.6433 12.62 14.7133 12.92 14.8C13.32 14.9067 13.6467 15.0167 13.9 15.13C14.16 15.2367 14.3833 15.3967 14.57 15.61C14.7567 15.8233 14.8533 16.1067 14.86 16.46C14.86 16.7733 14.7733 17.0533 14.6 17.3C14.4267 17.5467 14.18 17.74 13.86 17.88C13.5467 18.02 13.1767 18.09 12.75 18.09ZM21.1418 15.11C21.1418 15.3167 21.1285 15.5033 21.1018 15.67H16.8918C16.9251 16.11 17.0885 16.4633 17.3818 16.73C17.6751 16.9967 18.0351 17.13 18.4618 17.13C19.0751 17.13 19.5085 16.8733 19.7618 16.36H20.9918C20.8251 16.8667 20.5218 17.2833 20.0818 17.61C19.6485 17.93 19.1085 18.09 18.4618 18.09C17.9351 18.09 17.4618 17.9733 17.0418 17.74C16.6285 17.5 16.3018 17.1667 16.0618 16.74C15.8285 16.3067 15.7118 15.8067 15.7118 15.24C15.7118 14.6733 15.8251 14.1767 16.0518 13.75C16.2851 13.3167 16.6085 12.9833 17.0218 12.75C17.4418 12.5167 17.9218 12.4 18.4618 12.4C18.9818 12.4 19.4451 12.5133 19.8518 12.74C20.2585 12.9667 20.5751 13.2867 20.8018 13.7C21.0285 14.1067 21.1418 14.5767 21.1418 15.11ZM19.9518 14.75C19.9451 14.33 19.7951 13.9933 19.5018 13.74C19.2085 13.4867 18.8451 13.36 18.4118 13.36C18.0185 13.36 17.6818 13.4867 17.4018 13.74C17.1218 13.9867 16.9551 14.3233 16.9018 14.75H19.9518ZM23.5937 13.42V16.47C23.5937 16.6767 23.6403 16.8267 23.7337 16.92C23.8337 17.0067 24.0003 17.05 24.2337 17.05H24.9337V18H24.0337C23.5203 18 23.127 17.88 22.8537 17.64C22.5803 17.4 22.4437 17.01 22.4437 16.47V13.42H21.7937V12.49H22.4437V11.12H23.5937V12.49H24.9337V13.42H23.5937Z" fill="black"/>
</svg>
