<svg xmlns="http://www.w3.org/2000/svg" fill="none" viewBox="0 0 480 360" height="360" width="480">
<path fill="white" d="M147.45 330.66V336.672C147.45 337.416 147.222 338.004 146.766 338.436C146.318 338.868 145.726 339.084 144.99 339.084C144.254 339.084 143.658 338.868 143.202 338.436C142.754 338.004 142.53 337.416 142.53 336.672H143.91C143.918 337.04 144.01 337.332 144.186 337.548C144.37 337.764 144.638 337.872 144.99 337.872C145.342 337.872 145.61 337.764 145.794 337.548C145.978 337.324 146.07 337.032 146.07 336.672V330.66H147.45ZM151.043 330.12V339H149.675V330.12H151.043ZM155.707 339.108C155.083 339.108 154.519 338.968 154.015 338.688C153.511 338.4 153.115 338 152.827 337.488C152.539 336.968 152.395 336.368 152.395 335.688C152.395 335.016 152.543 334.42 152.839 333.9C153.135 333.38 153.539 332.98 154.051 332.7C154.563 332.42 155.135 332.28 155.767 332.28C156.399 332.28 156.971 332.42 157.483 332.7C157.995 332.98 158.399 333.38 158.695 333.9C158.991 334.42 159.139 335.016 159.139 335.688C159.139 336.36 158.987 336.956 158.683 337.476C158.379 337.996 157.963 338.4 157.435 338.688C156.915 338.968 156.339 339.108 155.707 339.108ZM155.707 337.92C156.059 337.92 156.387 337.836 156.691 337.668C157.003 337.5 157.255 337.248 157.447 336.912C157.639 336.576 157.735 336.168 157.735 335.688C157.735 335.208 157.643 334.804 157.459 334.476C157.275 334.14 157.031 333.888 156.727 333.72C156.423 333.552 156.095 333.468 155.743 333.468C155.391 333.468 155.063 333.552 154.759 333.72C154.463 333.888 154.227 334.14 154.051 334.476C153.875 334.804 153.787 335.208 153.787 335.688C153.787 336.4 153.967 336.952 154.327 337.344C154.695 337.728 155.155 337.92 155.707 337.92ZM165.52 337.296H162.028L161.428 339H160L162.988 330.648H164.572L167.56 339H166.12L165.52 337.296ZM165.136 336.18L163.78 332.304L162.412 336.18H165.136ZM174.847 332.388V339H173.479V338.22C173.263 338.492 172.979 338.708 172.627 338.868C172.283 339.02 171.915 339.096 171.523 339.096C171.003 339.096 170.535 338.988 170.119 338.772C169.711 338.556 169.387 338.236 169.147 337.812C168.915 337.388 168.799 336.876 168.799 336.276V332.388H170.155V336.072C170.155 336.664 170.303 337.12 170.599 337.44C170.895 337.752 171.299 337.908 171.811 337.908C172.323 337.908 172.727 337.752 173.023 337.44C173.327 337.12 173.479 336.664 173.479 336.072V332.388H174.847ZM180.465 331.512C180.217 331.512 180.009 331.428 179.841 331.26C179.673 331.092 179.589 330.884 179.589 330.636C179.589 330.388 179.673 330.18 179.841 330.012C180.009 329.844 180.217 329.76 180.465 329.76C180.705 329.76 180.909 329.844 181.077 330.012C181.245 330.18 181.329 330.388 181.329 330.636C181.329 330.884 181.245 331.092 181.077 331.26C180.909 331.428 180.705 331.512 180.465 331.512ZM181.137 332.388V339H179.769V332.388H181.137ZM185.333 339.108C184.813 339.108 184.345 339.016 183.929 338.832C183.521 338.64 183.197 338.384 182.957 338.064C182.717 337.736 182.589 337.372 182.573 336.972H183.989C184.013 337.252 184.145 337.488 184.385 337.68C184.633 337.864 184.941 337.956 185.309 337.956C185.693 337.956 185.989 337.884 186.197 337.74C186.413 337.588 186.521 337.396 186.521 337.164C186.521 336.916 186.401 336.732 186.161 336.612C185.929 336.492 185.557 336.36 185.045 336.216C184.549 336.08 184.145 335.948 183.833 335.82C183.521 335.692 183.249 335.496 183.017 335.232C182.793 334.968 182.681 334.62 182.681 334.188C182.681 333.836 182.785 333.516 182.993 333.228C183.201 332.932 183.497 332.7 183.881 332.532C184.273 332.364 184.721 332.28 185.225 332.28C185.977 332.28 186.581 332.472 187.037 332.856C187.501 333.232 187.749 333.748 187.781 334.404H186.413C186.389 334.108 186.269 333.872 186.053 333.696C185.837 333.52 185.545 333.432 185.177 333.432C184.817 333.432 184.541 333.5 184.349 333.636C184.157 333.772 184.061 333.952 184.061 334.176C184.061 334.352 184.125 334.5 184.253 334.62C184.381 334.74 184.537 334.836 184.721 334.908C184.905 334.972 185.177 335.056 185.537 335.16C186.017 335.288 186.409 335.42 186.713 335.556C187.025 335.684 187.293 335.876 187.517 336.132C187.741 336.388 187.857 336.728 187.865 337.152C187.865 337.528 187.761 337.864 187.553 338.16C187.345 338.456 187.049 338.688 186.665 338.856C186.289 339.024 185.845 339.108 185.333 339.108ZM195.797 332.28C196.317 332.28 196.781 332.388 197.189 332.604C197.605 332.82 197.929 333.14 198.161 333.564C198.393 333.988 198.509 334.5 198.509 335.1V339H197.153V335.304C197.153 334.712 197.005 334.26 196.709 333.948C196.413 333.628 196.009 333.468 195.497 333.468C194.985 333.468 194.577 333.628 194.273 333.948C193.977 334.26 193.829 334.712 193.829 335.304V339H192.461V332.388H193.829V333.144C194.053 332.872 194.337 332.66 194.681 332.508C195.033 332.356 195.405 332.28 195.797 332.28ZM203.122 339.108C202.498 339.108 201.934 338.968 201.43 338.688C200.926 338.4 200.53 338 200.242 337.488C199.954 336.968 199.81 336.368 199.81 335.688C199.81 335.016 199.958 334.42 200.254 333.9C200.55 333.38 200.954 332.98 201.466 332.7C201.978 332.42 202.55 332.28 203.182 332.28C203.814 332.28 204.386 332.42 204.898 332.7C205.41 332.98 205.814 333.38 206.11 333.9C206.406 334.42 206.554 335.016 206.554 335.688C206.554 336.36 206.402 336.956 206.098 337.476C205.794 337.996 205.378 338.4 204.85 338.688C204.33 338.968 203.754 339.108 203.122 339.108ZM203.122 337.92C203.474 337.92 203.802 337.836 204.106 337.668C204.418 337.5 204.67 337.248 204.862 336.912C205.054 336.576 205.15 336.168 205.15 335.688C205.15 335.208 205.058 334.804 204.874 334.476C204.69 334.14 204.446 333.888 204.142 333.72C203.838 333.552 203.51 333.468 203.158 333.468C202.806 333.468 202.478 333.552 202.174 333.72C201.878 333.888 201.642 334.14 201.466 334.476C201.29 334.804 201.202 335.208 201.202 335.688C201.202 336.4 201.382 336.952 201.742 337.344C202.11 337.728 202.57 337.92 203.122 337.92ZM209.502 333.504V337.164C209.502 337.412 209.558 337.592 209.67 337.704C209.79 337.808 209.99 337.86 210.27 337.86H211.11V339H210.03C209.414 339 208.942 338.856 208.614 338.568C208.286 338.28 208.122 337.812 208.122 337.164V333.504H207.342V332.388H208.122V330.744H209.502V332.388H211.11V333.504H209.502ZM221.476 332.388V339H220.108V338.22C219.892 338.492 219.608 338.708 219.256 338.868C218.912 339.02 218.544 339.096 218.152 339.096C217.632 339.096 217.164 338.988 216.748 338.772C216.34 338.556 216.016 338.236 215.776 337.812C215.544 337.388 215.428 336.876 215.428 336.276V332.388H216.784V336.072C216.784 336.664 216.932 337.12 217.228 337.44C217.524 337.752 217.928 337.908 218.44 337.908C218.952 337.908 219.356 337.752 219.652 337.44C219.956 337.12 220.108 336.664 220.108 336.072V332.388H221.476ZM225.681 339.108C225.161 339.108 224.693 339.016 224.277 338.832C223.869 338.64 223.545 338.384 223.305 338.064C223.065 337.736 222.937 337.372 222.921 336.972H224.337C224.361 337.252 224.493 337.488 224.733 337.68C224.981 337.864 225.289 337.956 225.657 337.956C226.041 337.956 226.337 337.884 226.545 337.74C226.761 337.588 226.869 337.396 226.869 337.164C226.869 336.916 226.749 336.732 226.509 336.612C226.277 336.492 225.905 336.36 225.393 336.216C224.897 336.08 224.493 335.948 224.181 335.82C223.869 335.692 223.597 335.496 223.365 335.232C223.141 334.968 223.029 334.62 223.029 334.188C223.029 333.836 223.133 333.516 223.341 333.228C223.549 332.932 223.845 332.7 224.229 332.532C224.621 332.364 225.069 332.28 225.573 332.28C226.325 332.28 226.929 332.472 227.385 332.856C227.849 333.232 228.097 333.748 228.129 334.404H226.761C226.737 334.108 226.617 333.872 226.401 333.696C226.185 333.52 225.893 333.432 225.525 333.432C225.165 333.432 224.889 333.5 224.697 333.636C224.505 333.772 224.409 333.952 224.409 334.176C224.409 334.352 224.473 334.5 224.601 334.62C224.729 334.74 224.885 334.836 225.069 334.908C225.253 334.972 225.525 335.056 225.885 335.16C226.365 335.288 226.757 335.42 227.061 335.556C227.373 335.684 227.641 335.876 227.865 336.132C228.089 336.388 228.205 336.728 228.213 337.152C228.213 337.528 228.109 337.864 227.901 338.16C227.693 338.456 227.397 338.688 227.013 338.856C226.637 339.024 226.193 339.108 225.681 339.108ZM230.387 331.512C230.139 331.512 229.931 331.428 229.763 331.26C229.595 331.092 229.511 330.884 229.511 330.636C229.511 330.388 229.595 330.18 229.763 330.012C229.931 329.844 230.139 329.76 230.387 329.76C230.627 329.76 230.831 329.844 230.999 330.012C231.167 330.18 231.251 330.388 231.251 330.636C231.251 330.884 231.167 331.092 230.999 331.26C230.831 331.428 230.627 331.512 230.387 331.512ZM231.059 332.388V339H229.691V332.388H231.059ZM236.191 332.28C236.711 332.28 237.175 332.388 237.583 332.604C237.999 332.82 238.323 333.14 238.555 333.564C238.787 333.988 238.903 334.5 238.903 335.1V339H237.547V335.304C237.547 334.712 237.399 334.26 237.103 333.948C236.807 333.628 236.403 333.468 235.891 333.468C235.379 333.468 234.971 333.628 234.667 333.948C234.371 334.26 234.223 334.712 234.223 335.304V339H232.855V332.388H234.223V333.144C234.447 332.872 234.731 332.66 235.075 332.508C235.427 332.356 235.799 332.28 236.191 332.28ZM243.312 332.28C243.824 332.28 244.276 332.384 244.668 332.592C245.068 332.792 245.38 333.044 245.604 333.348V332.388H246.984V339.108C246.984 339.716 246.856 340.256 246.6 340.728C246.344 341.208 245.972 341.584 245.484 341.856C245.004 342.128 244.428 342.264 243.756 342.264C242.86 342.264 242.116 342.052 241.524 341.628C240.932 341.212 240.596 340.644 240.516 339.924H241.872C241.976 340.268 242.196 340.544 242.532 340.752C242.876 340.968 243.284 341.076 243.756 341.076C244.308 341.076 244.752 340.908 245.088 340.572C245.432 340.236 245.604 339.748 245.604 339.108V338.004C245.372 338.316 245.056 338.58 244.656 338.796C244.264 339.004 243.816 339.108 243.312 339.108C242.736 339.108 242.208 338.964 241.728 338.676C241.256 338.38 240.88 337.972 240.6 337.452C240.328 336.924 240.192 336.328 240.192 335.664C240.192 335 240.328 334.412 240.6 333.9C240.88 333.388 241.256 332.992 241.728 332.712C242.208 332.424 242.736 332.28 243.312 332.28ZM245.604 335.688C245.604 335.232 245.508 334.836 245.316 334.5C245.132 334.164 244.888 333.908 244.584 333.732C244.28 333.556 243.952 333.468 243.6 333.468C243.248 333.468 242.92 333.556 242.616 333.732C242.312 333.9 242.064 334.152 241.872 334.488C241.688 334.816 241.596 335.208 241.596 335.664C241.596 336.12 241.688 336.52 241.872 336.864C242.064 337.208 242.312 337.472 242.616 337.656C242.928 337.832 243.256 337.92 243.6 337.92C243.952 337.92 244.28 337.832 244.584 337.656C244.888 337.48 245.132 337.224 245.316 336.888C245.508 336.544 245.604 336.144 245.604 335.688ZM254.646 339.084C254.086 339.084 253.582 338.988 253.134 338.796C252.686 338.596 252.334 338.316 252.078 337.956C251.822 337.596 251.694 337.176 251.694 336.696H253.158C253.19 337.056 253.33 337.352 253.578 337.584C253.834 337.816 254.19 337.932 254.646 337.932C255.118 337.932 255.486 337.82 255.75 337.596C256.014 337.364 256.146 337.068 256.146 336.708C256.146 336.428 256.062 336.2 255.894 336.024C255.734 335.848 255.53 335.712 255.282 335.616C255.042 335.52 254.706 335.416 254.274 335.304C253.73 335.16 253.286 335.016 252.942 334.872C252.606 334.72 252.318 334.488 252.078 334.176C251.838 333.864 251.718 333.448 251.718 332.928C251.718 332.448 251.838 332.028 252.078 331.668C252.318 331.308 252.654 331.032 253.086 330.84C253.518 330.648 254.018 330.552 254.586 330.552C255.394 330.552 256.054 330.756 256.566 331.164C257.086 331.564 257.374 332.116 257.43 332.82H255.918C255.894 332.516 255.75 332.256 255.486 332.04C255.222 331.824 254.874 331.716 254.442 331.716C254.05 331.716 253.73 331.816 253.482 332.016C253.234 332.216 253.11 332.504 253.11 332.88C253.11 333.136 253.186 333.348 253.338 333.516C253.498 333.676 253.698 333.804 253.938 333.9C254.178 333.996 254.506 334.1 254.922 334.212C255.474 334.364 255.922 334.516 256.266 334.668C256.618 334.82 256.914 335.056 257.154 335.376C257.402 335.688 257.526 336.108 257.526 336.636C257.526 337.06 257.41 337.46 257.178 337.836C256.954 338.212 256.622 338.516 256.182 338.748C255.75 338.972 255.238 339.084 254.646 339.084ZM258.684 335.688C258.684 335.008 258.82 334.412 259.092 333.9C259.372 333.38 259.756 332.98 260.244 332.7C260.732 332.42 261.292 332.28 261.924 332.28C262.724 332.28 263.384 332.472 263.904 332.856C264.432 333.232 264.788 333.772 264.972 334.476H263.496C263.376 334.148 263.184 333.892 262.92 333.708C262.656 333.524 262.324 333.432 261.924 333.432C261.364 333.432 260.916 333.632 260.58 334.032C260.252 334.424 260.088 334.976 260.088 335.688C260.088 336.4 260.252 336.956 260.58 337.356C260.916 337.756 261.364 337.956 261.924 337.956C262.716 337.956 263.24 337.608 263.496 336.912H264.972C264.78 337.584 264.42 338.12 263.892 338.52C263.364 338.912 262.708 339.108 261.924 339.108C261.292 339.108 260.732 338.968 260.244 338.688C259.756 338.4 259.372 338 259.092 337.488C258.82 336.968 258.684 336.368 258.684 335.688ZM267.704 333.348C267.904 333.012 268.168 332.752 268.496 332.568C268.832 332.376 269.228 332.28 269.684 332.28V333.696H269.336C268.8 333.696 268.392 333.832 268.112 334.104C267.84 334.376 267.704 334.848 267.704 335.52V339H266.336V332.388H267.704V333.348ZM270.485 335.664C270.485 335 270.621 334.412 270.893 333.9C271.173 333.388 271.549 332.992 272.021 332.712C272.501 332.424 273.029 332.28 273.605 332.28C274.125 332.28 274.577 332.384 274.961 332.592C275.353 332.792 275.665 333.044 275.897 333.348V332.388H277.277V339H275.897V338.016C275.665 338.328 275.349 338.588 274.949 338.796C274.549 339.004 274.093 339.108 273.581 339.108C273.013 339.108 272.493 338.964 272.021 338.676C271.549 338.38 271.173 337.972 270.893 337.452C270.621 336.924 270.485 336.328 270.485 335.664ZM275.897 335.688C275.897 335.232 275.801 334.836 275.609 334.5C275.425 334.164 275.181 333.908 274.877 333.732C274.573 333.556 274.245 333.468 273.893 333.468C273.541 333.468 273.213 333.556 272.909 333.732C272.605 333.9 272.357 334.152 272.165 334.488C271.981 334.816 271.889 335.208 271.889 335.664C271.889 336.12 271.981 336.52 272.165 336.864C272.357 337.208 272.605 337.472 272.909 337.656C273.221 337.832 273.549 337.92 273.893 337.92C274.245 337.92 274.573 337.832 274.877 337.656C275.181 337.48 275.425 337.224 275.609 336.888C275.801 336.544 275.897 336.144 275.897 335.688ZM280.67 333.504V337.164C280.67 337.412 280.726 337.592 280.838 337.704C280.958 337.808 281.158 337.86 281.438 337.86H282.278V339H281.198C280.582 339 280.11 338.856 279.782 338.568C279.454 338.28 279.29 337.812 279.29 337.164V333.504H278.51V332.388H279.29V330.744H280.67V332.388H282.278V333.504H280.67ZM283.083 335.688C283.083 335.008 283.219 334.412 283.491 333.9C283.771 333.38 284.155 332.98 284.643 332.7C285.131 332.42 285.691 332.28 286.323 332.28C287.123 332.28 287.783 332.472 288.303 332.856C288.831 333.232 289.187 333.772 289.371 334.476H287.895C287.775 334.148 287.583 333.892 287.319 333.708C287.055 333.524 286.723 333.432 286.323 333.432C285.763 333.432 285.315 333.632 284.979 334.032C284.651 334.424 284.487 334.976 284.487 335.688C284.487 336.4 284.651 336.956 284.979 337.356C285.315 337.756 285.763 337.956 286.323 337.956C287.115 337.956 287.639 337.608 287.895 336.912H289.371C289.179 337.584 288.819 338.12 288.291 338.52C287.763 338.912 287.107 339.108 286.323 339.108C285.691 339.108 285.131 338.968 284.643 338.688C284.155 338.4 283.771 338 283.491 337.488C283.219 336.968 283.083 336.368 283.083 335.688ZM294.154 332.28C294.658 332.28 295.106 332.388 295.498 332.604C295.898 332.82 296.21 333.14 296.434 333.564C296.666 333.988 296.782 334.5 296.782 335.1V339H295.426V335.304C295.426 334.712 295.278 334.26 294.982 333.948C294.686 333.628 294.282 333.468 293.77 333.468C293.258 333.468 292.85 333.628 292.546 333.948C292.25 334.26 292.102 334.712 292.102 335.304V339H290.734V330.12H292.102V333.156C292.334 332.876 292.626 332.66 292.978 332.508C293.338 332.356 293.73 332.28 294.154 332.28ZM302.331 339.084C301.555 339.084 300.839 338.904 300.183 338.544C299.535 338.176 299.019 337.668 298.635 337.02C298.259 336.364 298.071 335.628 298.071 334.812C298.071 333.996 298.259 333.264 298.635 332.616C299.019 331.968 299.535 331.464 300.183 331.104C300.839 330.736 301.555 330.552 302.331 330.552C303.115 330.552 303.831 330.736 304.479 331.104C305.135 331.464 305.651 331.968 306.027 332.616C306.403 333.264 306.591 333.996 306.591 334.812C306.591 335.628 306.403 336.364 306.027 337.02C305.651 337.668 305.135 338.176 304.479 338.544C303.831 338.904 303.115 339.084 302.331 339.084ZM302.331 337.896C302.883 337.896 303.375 337.772 303.807 337.524C304.239 337.268 304.575 336.908 304.815 336.444C305.063 335.972 305.187 335.428 305.187 334.812C305.187 334.196 305.063 333.656 304.815 333.192C304.575 332.728 304.239 332.372 303.807 332.124C303.375 331.876 302.883 331.752 302.331 331.752C301.779 331.752 301.287 331.876 300.855 332.124C300.423 332.372 300.083 332.728 299.835 333.192C299.595 333.656 299.475 334.196 299.475 334.812C299.475 335.428 299.595 335.972 299.835 336.444C300.083 336.908 300.423 337.268 300.855 337.524C301.287 337.772 301.779 337.896 302.331 337.896ZM310.685 339.084C310.125 339.084 309.621 338.988 309.173 338.796C308.725 338.596 308.373 338.316 308.117 337.956C307.861 337.596 307.733 337.176 307.733 336.696H309.197C309.229 337.056 309.369 337.352 309.617 337.584C309.873 337.816 310.229 337.932 310.685 337.932C311.157 337.932 311.525 337.82 311.789 337.596C312.053 337.364 312.185 337.068 312.185 336.708C312.185 336.428 312.101 336.2 311.933 336.024C311.773 335.848 311.569 335.712 311.321 335.616C311.081 335.52 310.745 335.416 310.313 335.304C309.769 335.16 309.325 335.016 308.981 334.872C308.645 334.72 308.357 334.488 308.117 334.176C307.877 333.864 307.757 333.448 307.757 332.928C307.757 332.448 307.877 332.028 308.117 331.668C308.357 331.308 308.693 331.032 309.125 330.84C309.557 330.648 310.057 330.552 310.625 330.552C311.433 330.552 312.093 330.756 312.605 331.164C313.125 331.564 313.413 332.116 313.469 332.82H311.957C311.933 332.516 311.789 332.256 311.525 332.04C311.261 331.824 310.913 331.716 310.481 331.716C310.089 331.716 309.769 331.816 309.521 332.016C309.273 332.216 309.149 332.504 309.149 332.88C309.149 333.136 309.225 333.348 309.377 333.516C309.537 333.676 309.737 333.804 309.977 333.9C310.217 333.996 310.545 334.1 310.961 334.212C311.513 334.364 311.961 334.516 312.305 334.668C312.657 334.82 312.953 335.056 313.193 335.376C313.441 335.688 313.565 336.108 313.565 336.636C313.565 337.06 313.449 337.46 313.217 337.836C312.993 338.212 312.661 338.516 312.221 338.748C311.789 338.972 311.277 339.084 310.685 339.084ZM318.092 332.412C318.14 331.668 318.424 331.088 318.944 330.672C319.472 330.256 320.144 330.048 320.96 330.048C321.52 330.048 322.004 330.148 322.412 330.348C322.82 330.548 323.128 330.82 323.336 331.164C323.544 331.508 323.648 331.896 323.648 332.328C323.648 332.824 323.516 333.248 323.252 333.6C322.988 333.952 322.672 334.188 322.304 334.308V334.356C322.776 334.5 323.144 334.764 323.408 335.148C323.672 335.524 323.804 336.008 323.804 336.6C323.804 337.072 323.696 337.492 323.48 337.86C323.264 338.228 322.944 338.52 322.52 338.736C322.096 338.944 321.588 339.048 320.996 339.048C320.132 339.048 319.42 338.828 318.86 338.388C318.308 337.94 318.012 337.3 317.972 336.468H319.292C319.324 336.892 319.488 337.24 319.784 337.512C320.08 337.776 320.48 337.908 320.984 337.908C321.472 337.908 321.848 337.776 322.112 337.512C322.376 337.24 322.508 336.892 322.508 336.468C322.508 335.908 322.328 335.512 321.968 335.28C321.616 335.04 321.072 334.92 320.336 334.92H320.024V333.792H320.348C320.996 333.784 321.488 333.676 321.824 333.468C322.168 333.26 322.34 332.932 322.34 332.484C322.34 332.1 322.216 331.796 321.968 331.572C321.72 331.34 321.368 331.224 320.912 331.224C320.464 331.224 320.116 331.34 319.868 331.572C319.62 331.796 319.472 332.076 319.424 332.412H318.092ZM325.973 339.084C325.725 339.084 325.517 339 325.349 338.832C325.181 338.664 325.097 338.456 325.097 338.208C325.097 337.96 325.181 337.752 325.349 337.584C325.517 337.416 325.725 337.332 325.973 337.332C326.213 337.332 326.417 337.416 326.585 337.584C326.753 337.752 326.837 337.96 326.837 338.208C326.837 338.456 326.753 338.664 326.585 338.832C326.417 339 326.213 339.084 325.973 339.084ZM328.136 334.512C328.136 333.128 328.368 332.048 328.832 331.272C329.304 330.488 330.112 330.096 331.256 330.096C332.4 330.096 333.204 330.488 333.668 331.272C334.14 332.048 334.376 333.128 334.376 334.512C334.376 335.912 334.14 337.008 333.668 337.8C333.204 338.584 332.4 338.976 331.256 338.976C330.112 338.976 329.304 338.584 328.832 337.8C328.368 337.008 328.136 335.912 328.136 334.512ZM333.032 334.512C333.032 333.864 332.988 333.316 332.9 332.868C332.82 332.42 332.652 332.056 332.396 331.776C332.14 331.488 331.76 331.344 331.256 331.344C330.752 331.344 330.372 331.488 330.116 331.776C329.86 332.056 329.688 332.42 329.6 332.868C329.52 333.316 329.48 333.864 329.48 334.512C329.48 335.184 329.52 335.748 329.6 336.204C329.68 336.66 329.848 337.028 330.104 337.308C330.368 337.588 330.752 337.728 331.256 337.728C331.76 337.728 332.14 337.588 332.396 337.308C332.66 337.028 332.832 336.66 332.912 336.204C332.992 335.748 333.032 335.184 333.032 334.512ZM336.556 339.084C336.308 339.084 336.1 339 335.932 338.832C335.764 338.664 335.68 338.456 335.68 338.208C335.68 337.96 335.764 337.752 335.932 337.584C336.1 337.416 336.308 337.332 336.556 337.332C336.796 337.332 337 337.416 337.168 337.584C337.336 337.752 337.42 337.96 337.42 338.208C337.42 338.456 337.336 338.664 337.168 338.832C337 339 336.796 339.084 336.556 339.084Z"></path>
<path fill="white" d="M185.403 31.112C184.656 31.112 183.984 30.984 183.387 30.728C182.79 30.4613 182.32 30.088 181.979 29.608C181.638 29.128 181.467 28.568 181.467 27.928H183.419C183.462 28.408 183.648 28.8027 183.979 29.112C184.32 29.4213 184.795 29.576 185.403 29.576C186.032 29.576 186.523 29.4267 186.875 29.128C187.227 28.8187 187.403 28.424 187.403 27.944C187.403 27.5707 187.291 27.2667 187.067 27.032C186.854 26.7973 186.582 26.616 186.251 26.488C185.931 26.36 185.483 26.2213 184.907 26.072C184.182 25.88 183.59 25.688 183.131 25.496C182.683 25.2933 182.299 24.984 181.979 24.568C181.659 24.152 181.499 23.5973 181.499 22.904C181.499 22.264 181.659 21.704 181.979 21.224C182.299 20.744 182.747 20.376 183.323 20.12C183.899 19.864 184.566 19.736 185.323 19.736C186.4 19.736 187.28 20.008 187.963 20.552C188.656 21.0853 189.04 21.8213 189.115 22.76H187.099C187.067 22.3547 186.875 22.008 186.523 21.72C186.171 21.432 185.707 21.288 185.131 21.288C184.608 21.288 184.182 21.4213 183.851 21.688C183.52 21.9547 183.355 22.3387 183.355 22.84C183.355 23.1813 183.456 23.464 183.659 23.688C183.872 23.9013 184.139 24.072 184.459 24.2C184.779 24.328 185.216 24.4667 185.771 24.616C186.507 24.8187 187.104 25.0213 187.563 25.224C188.032 25.4267 188.427 25.7413 188.747 26.168C189.078 26.584 189.243 27.144 189.243 27.848C189.243 28.4133 189.088 28.9467 188.779 29.448C188.48 29.9493 188.038 30.3547 187.451 30.664C186.875 30.9627 186.192 31.112 185.403 31.112ZM193.523 23.672V28.552C193.523 28.8827 193.598 29.1227 193.747 29.272C193.907 29.4107 194.174 29.48 194.547 29.48H195.667V31H194.227C193.406 31 192.777 30.808 192.339 30.424C191.902 30.04 191.683 29.416 191.683 28.552V23.672H190.643V22.184H191.683V19.992H193.523V22.184H195.667V23.672H193.523ZM196.74 26.552C196.74 25.6667 196.922 24.8827 197.284 24.2C197.658 23.5173 198.159 22.9893 198.788 22.616C199.428 22.232 200.132 22.04 200.9 22.04C201.594 22.04 202.196 22.1787 202.708 22.456C203.231 22.7227 203.647 23.0587 203.956 23.464V22.184H205.796V31H203.956V29.688C203.647 30.104 203.226 30.4507 202.692 30.728C202.159 31.0053 201.551 31.144 200.868 31.144C200.111 31.144 199.418 30.952 198.788 30.568C198.159 30.1733 197.658 29.6293 197.284 28.936C196.922 28.232 196.74 27.4373 196.74 26.552ZM203.956 26.584C203.956 25.976 203.828 25.448 203.572 25C203.327 24.552 203.002 24.2107 202.596 23.976C202.191 23.7413 201.754 23.624 201.284 23.624C200.815 23.624 200.378 23.7413 199.972 23.976C199.567 24.2 199.236 24.536 198.98 24.984C198.735 25.4213 198.612 25.944 198.612 26.552C198.612 27.16 198.735 27.6933 198.98 28.152C199.236 28.6107 199.567 28.9627 199.972 29.208C200.388 29.4427 200.826 29.56 201.284 29.56C201.754 29.56 202.191 29.4427 202.596 29.208C203.002 28.9733 203.327 28.632 203.572 28.184C203.828 27.7253 203.956 27.192 203.956 26.584ZM210.32 23.672V28.552C210.32 28.8827 210.395 29.1227 210.544 29.272C210.704 29.4107 210.971 29.48 211.344 29.48H212.464V31H211.024C210.203 31 209.574 30.808 209.136 30.424C208.699 30.04 208.48 29.416 208.48 28.552V23.672H207.44V22.184H208.48V19.992H210.32V22.184H212.464V23.672H210.32ZM222.129 22.184V31H220.305V29.96C220.017 30.3227 219.639 30.6107 219.169 30.824C218.711 31.0267 218.22 31.128 217.697 31.128C217.004 31.128 216.38 30.984 215.825 30.696C215.281 30.408 214.849 29.9813 214.529 29.416C214.22 28.8507 214.065 28.168 214.065 27.368V22.184H215.873V27.096C215.873 27.8853 216.071 28.4933 216.465 28.92C216.86 29.336 217.399 29.544 218.081 29.544C218.764 29.544 219.303 29.336 219.697 28.92C220.103 28.4933 220.305 27.8853 220.305 27.096V22.184H222.129ZM227.736 31.144C227.043 31.144 226.419 31.0213 225.864 30.776C225.32 30.52 224.888 30.1787 224.568 29.752C224.248 29.3147 224.077 28.8293 224.056 28.296H225.944C225.976 28.6693 226.152 28.984 226.472 29.24C226.803 29.4853 227.213 29.608 227.704 29.608C228.216 29.608 228.611 29.512 228.888 29.32C229.176 29.1173 229.32 28.8613 229.32 28.552C229.32 28.2213 229.16 27.976 228.84 27.816C228.531 27.656 228.035 27.48 227.352 27.288C226.691 27.1067 226.152 26.9307 225.736 26.76C225.32 26.5893 224.957 26.328 224.648 25.976C224.349 25.624 224.2 25.16 224.2 24.584C224.2 24.1147 224.339 23.688 224.616 23.304C224.893 22.9093 225.288 22.6 225.8 22.376C226.323 22.152 226.92 22.04 227.592 22.04C228.595 22.04 229.4 22.296 230.008 22.808C230.627 23.3093 230.957 23.9973 231 24.872H229.176C229.144 24.4773 228.984 24.1627 228.696 23.928C228.408 23.6933 228.019 23.576 227.528 23.576C227.048 23.576 226.68 23.6667 226.424 23.848C226.168 24.0293 226.04 24.2693 226.04 24.568C226.04 24.8027 226.125 25 226.296 25.16C226.467 25.32 226.675 25.448 226.92 25.544C227.165 25.6293 227.528 25.7413 228.008 25.88C228.648 26.0507 229.171 26.2267 229.576 26.408C229.992 26.5787 230.349 26.8347 230.648 27.176C230.947 27.5173 231.101 27.9707 231.112 28.536C231.112 29.0373 230.973 29.4853 230.696 29.88C230.419 30.2747 230.024 30.584 229.512 30.808C229.011 31.032 228.419 31.144 227.736 31.144ZM239.719 27.752C239.335 27.752 238.983 27.6613 238.663 27.48C238.354 27.288 238.103 27.0373 237.911 26.728C237.73 26.408 237.639 26.056 237.639 25.672C237.639 25.0853 237.842 24.5893 238.247 24.184C238.652 23.7787 239.143 23.576 239.719 23.576C240.316 23.576 240.818 23.7787 241.223 24.184C241.628 24.5893 241.831 25.0853 241.831 25.672C241.831 26.2587 241.628 26.7547 241.223 27.16C240.818 27.5547 240.316 27.752 239.719 27.752ZM253.858 31.112C252.823 31.112 251.869 30.872 250.994 30.392C250.13 29.9013 249.442 29.224 248.93 28.36C248.429 27.4853 248.178 26.504 248.178 25.416C248.178 24.328 248.429 23.352 248.93 22.488C249.442 21.624 250.13 20.952 250.994 20.472C251.869 19.9813 252.823 19.736 253.858 19.736C254.903 19.736 255.858 19.9813 256.722 20.472C257.597 20.952 258.285 21.624 258.786 22.488C259.287 23.352 259.538 24.328 259.538 25.416C259.538 26.504 259.287 27.4853 258.786 28.36C258.285 29.224 257.597 29.9013 256.722 30.392C255.858 30.872 254.903 31.112 253.858 31.112ZM253.858 29.528C254.594 29.528 255.25 29.3627 255.826 29.032C256.402 28.6907 256.85 28.2107 257.17 27.592C257.501 26.9627 257.666 26.2373 257.666 25.416C257.666 24.5947 257.501 23.8747 257.17 23.256C256.85 22.6373 256.402 22.1627 255.826 21.832C255.25 21.5013 254.594 21.336 253.858 21.336C253.122 21.336 252.466 21.5013 251.89 21.832C251.314 22.1627 250.861 22.6373 250.53 23.256C250.21 23.8747 250.05 24.5947 250.05 25.416C250.05 26.2373 250.21 26.9627 250.53 27.592C250.861 28.2107 251.314 28.6907 251.89 29.032C252.466 29.3627 253.122 29.528 253.858 29.528ZM265.029 23.672H263.397V31H261.557V23.672H260.517V22.184H261.557V21.56C261.557 20.5467 261.823 19.8107 262.357 19.352C262.901 18.8827 263.749 18.648 264.901 18.648V20.168C264.346 20.168 263.957 20.2747 263.733 20.488C263.509 20.6907 263.397 21.048 263.397 21.56V22.184H265.029V23.672ZM270.341 23.672H268.709V31H266.869V23.672H265.829V22.184H266.869V21.56C266.869 20.5467 267.136 19.8107 267.669 19.352C268.213 18.8827 269.061 18.648 270.213 18.648V20.168C269.659 20.168 269.269 20.2747 269.045 20.488C268.821 20.6907 268.709 21.048 268.709 21.56V22.184H270.341V23.672ZM273.782 19.16V31H271.958V19.16H273.782ZM277.105 21.016C276.774 21.016 276.497 20.904 276.273 20.68C276.049 20.456 275.937 20.1787 275.937 19.848C275.937 19.5173 276.049 19.24 276.273 19.016C276.497 18.792 276.774 18.68 277.105 18.68C277.425 18.68 277.697 18.792 277.921 19.016C278.145 19.24 278.257 19.5173 278.257 19.848C278.257 20.1787 278.145 20.456 277.921 20.68C277.697 20.904 277.425 21.016 277.105 21.016ZM278.001 22.184V31H276.177V22.184H278.001ZM284.843 22.04C285.537 22.04 286.155 22.184 286.699 22.472C287.254 22.76 287.686 23.1867 287.995 23.752C288.305 24.3173 288.459 25 288.459 25.8V31H286.651V26.072C286.651 25.2827 286.454 24.68 286.059 24.264C285.665 23.8373 285.126 23.624 284.443 23.624C283.761 23.624 283.217 23.8373 282.811 24.264C282.417 24.68 282.219 25.2827 282.219 26.072V31H280.395V22.184H282.219V23.192C282.518 22.8293 282.897 22.5467 283.355 22.344C283.825 22.1413 284.321 22.04 284.843 22.04ZM298.866 26.376C298.866 26.7067 298.845 27.0053 298.802 27.272H292.066C292.119 27.976 292.381 28.5413 292.85 28.968C293.319 29.3947 293.895 29.608 294.578 29.608C295.559 29.608 296.253 29.1973 296.658 28.376H298.626C298.359 29.1867 297.874 29.8533 297.17 30.376C296.477 30.888 295.613 31.144 294.578 31.144C293.735 31.144 292.978 30.9573 292.306 30.584C291.645 30.2 291.122 29.6667 290.738 28.984C290.365 28.2907 290.178 27.4907 290.178 26.584C290.178 25.6773 290.359 24.8827 290.722 24.2C291.095 23.5067 291.613 22.9733 292.274 22.6C292.946 22.2267 293.714 22.04 294.578 22.04C295.41 22.04 296.151 22.2213 296.802 22.584C297.453 22.9467 297.959 23.4587 298.322 24.12C298.685 24.7707 298.866 25.5227 298.866 26.376ZM296.962 25.8C296.951 25.128 296.711 24.5893 296.242 24.184C295.773 23.7787 295.191 23.576 294.498 23.576C293.869 23.576 293.33 23.7787 292.882 24.184C292.434 24.5787 292.167 25.1173 292.082 25.8H296.962Z"></path>
</svg>
