<svg width="80" height="28" viewBox="0 0 80 28" fill="none" xmlns="http://www.w3.org/2000/svg">
<rect width="80" height="28" rx="5" fill="#E6E6E6"/>
<path d="M10.37 15.22C10.37 14.6667 10.4833 14.1767 10.71 13.75C10.9433 13.3233 11.2567 12.9933 11.65 12.76C12.05 12.52 12.49 12.4 12.97 12.4C13.4033 12.4 13.78 12.4867 14.1 12.66C14.4267 12.8267 14.6867 13.0367 14.88 13.29V12.49H16.03V18H14.88V17.18C14.6867 17.44 14.4233 17.6567 14.09 17.83C13.7567 18.0033 13.3767 18.09 12.95 18.09C12.4767 18.09 12.0433 17.97 11.65 17.73C11.2567 17.4833 10.9433 17.1433 10.71 16.71C10.4833 16.27 10.37 15.7733 10.37 15.22ZM14.88 15.24C14.88 14.86 14.8 14.53 14.64 14.25C14.4867 13.97 14.2833 13.7567 14.03 13.61C13.7767 13.4633 13.5033 13.39 13.21 13.39C12.9167 13.39 12.6433 13.4633 12.39 13.61C12.1367 13.75 11.93 13.96 11.77 14.24C11.6167 14.5133 11.54 14.84 11.54 15.22C11.54 15.6 11.6167 15.9333 11.77 16.22C11.93 16.5067 12.1367 16.7267 12.39 16.88C12.65 17.0267 12.9233 17.1 13.21 17.1C13.5033 17.1 13.7767 17.0267 14.03 16.88C14.2833 16.7333 14.4867 16.52 14.64 16.24C14.8 15.9533 14.88 15.62 14.88 15.24ZM18.6673 10.6V18H17.5273V10.6H18.6673ZM19.7841 15.22C19.7841 14.6667 19.8974 14.1767 20.1241 13.75C20.3574 13.3233 20.6707 12.9933 21.0641 12.76C21.4641 12.52 21.9041 12.4 22.3841 12.4C22.8174 12.4 23.1941 12.4867 23.5141 12.66C23.8407 12.8267 24.1007 13.0367 24.2941 13.29V12.49H25.4441V18H24.2941V17.18C24.1007 17.44 23.8374 17.6567 23.5041 17.83C23.1707 18.0033 22.7907 18.09 22.3641 18.09C21.8907 18.09 21.4574 17.97 21.0641 17.73C20.6707 17.4833 20.3574 17.1433 20.1241 16.71C19.8974 16.27 19.7841 15.7733 19.7841 15.22ZM24.2941 15.24C24.2941 14.86 24.2141 14.53 24.0541 14.25C23.9007 13.97 23.6974 13.7567 23.4441 13.61C23.1907 13.4633 22.9174 13.39 22.6241 13.39C22.3307 13.39 22.0574 13.4633 21.8041 13.61C21.5507 13.75 21.3441 13.96 21.1841 14.24C21.0307 14.5133 20.9541 14.84 20.9541 15.22C20.9541 15.6 21.0307 15.9333 21.1841 16.22C21.3441 16.5067 21.5507 16.7267 21.8041 16.88C22.0641 17.0267 22.3374 17.1 22.6241 17.1C22.9174 17.1 23.1907 17.0267 23.4441 16.88C23.6974 16.7333 23.9007 16.52 24.0541 16.24C24.2141 15.9533 24.2941 15.62 24.2941 15.24ZM28.0814 13.29C28.2481 13.01 28.4681 12.7933 28.7414 12.64C29.0214 12.48 29.3514 12.4 29.7314 12.4V13.58H29.4414C28.9947 13.58 28.6547 13.6933 28.4214 13.92C28.1947 14.1467 28.0814 14.54 28.0814 15.1V18H26.9414V12.49H28.0814V13.29ZM37.4493 12.4C37.8826 12.4 38.2693 12.49 38.6093 12.67C38.956 12.85 39.226 13.1167 39.4193 13.47C39.6193 13.8233 39.7193 14.25 39.7193 14.75V18H38.5893V14.92C38.5893 14.4267 38.466 14.05 38.2193 13.79C37.9726 13.5233 37.636 13.39 37.2093 13.39C36.7826 13.39 36.4426 13.5233 36.1893 13.79C35.9426 14.05 35.8193 14.4267 35.8193 14.92V18H34.6893V14.92C34.6893 14.4267 34.566 14.05 34.3193 13.79C34.0726 13.5233 33.736 13.39 33.3093 13.39C32.8826 13.39 32.5426 13.5233 32.2893 13.79C32.0426 14.05 31.9193 14.4267 31.9193 14.92V18H30.7793V12.49H31.9193V13.12C32.106 12.8933 32.3426 12.7167 32.6293 12.59C32.916 12.4633 33.2226 12.4 33.5493 12.4C33.9893 12.4 34.3826 12.4933 34.7293 12.68C35.076 12.8667 35.3426 13.1367 35.5293 13.49C35.696 13.1567 35.956 12.8933 36.3093 12.7C36.6626 12.5 37.0426 12.4 37.4493 12.4Z" fill="black"/>
</svg>
