<svg width="450" height="360" viewBox="0 0 450 360" fill="none" xmlns="http://www.w3.org/2000/svg">
<rect width="450" height="40" rx="15" fill="black" fill-opacity="0.1"/>
<path d="M25.232 24L23.312 20.664H22.268V24H20.9V15.66H23.78C24.42 15.66 24.96 15.772 25.4 15.996C25.848 16.22 26.18 16.52 26.396 16.896C26.62 17.272 26.732 17.692 26.732 18.156C26.732 18.7 26.572 19.196 26.252 19.644C25.94 20.084 25.456 20.384 24.8 20.544L26.864 24H25.232ZM22.268 19.572H23.78C24.292 19.572 24.676 19.444 24.932 19.188C25.196 18.932 25.328 18.588 25.328 18.156C25.328 17.724 25.2 17.388 24.944 17.148C24.688 16.9 24.3 16.776 23.78 16.776H22.268V19.572ZM34.542 20.532C34.542 20.78 34.526 21.004 34.494 21.204H29.442C29.482 21.732 29.678 22.156 30.03 22.476C30.382 22.796 30.814 22.956 31.326 22.956C32.062 22.956 32.582 22.648 32.886 22.032H34.362C34.162 22.64 33.798 23.14 33.27 23.532C32.75 23.916 32.102 24.108 31.326 24.108C30.694 24.108 30.126 23.968 29.622 23.688C29.126 23.4 28.734 23 28.446 22.488C28.166 21.968 28.026 21.368 28.026 20.688C28.026 20.008 28.162 19.412 28.434 18.9C28.714 18.38 29.102 17.98 29.598 17.7C30.102 17.42 30.678 17.28 31.326 17.28C31.95 17.28 32.506 17.416 32.994 17.688C33.482 17.96 33.862 18.344 34.134 18.84C34.406 19.328 34.542 19.892 34.542 20.532ZM33.114 20.1C33.106 19.596 32.926 19.192 32.574 18.888C32.222 18.584 31.786 18.432 31.266 18.432C30.794 18.432 30.39 18.584 30.054 18.888C29.718 19.184 29.518 19.588 29.454 20.1H33.114ZM38.4443 22.776L40.3163 17.388H41.7683L39.2483 24H37.6163L35.1083 17.388H36.5723L38.4443 22.776ZM43.4983 16.512C43.2503 16.512 43.0423 16.428 42.8743 16.26C42.7063 16.092 42.6223 15.884 42.6223 15.636C42.6223 15.388 42.7063 15.18 42.8743 15.012C43.0423 14.844 43.2503 14.76 43.4983 14.76C43.7383 14.76 43.9423 14.844 44.1103 15.012C44.2783 15.18 44.3623 15.388 44.3623 15.636C44.3623 15.884 44.2783 16.092 44.1103 16.26C43.9423 16.428 43.7383 16.512 43.4983 16.512ZM44.1703 17.388V24H42.8023V17.388H44.1703ZM48.5224 22.776L50.3944 17.388H51.8464L49.3264 24H47.6944L45.1864 17.388H46.6504L48.5224 22.776ZM58.9405 20.532C58.9405 20.78 58.9245 21.004 58.8925 21.204H53.8405C53.8805 21.732 54.0765 22.156 54.4285 22.476C54.7805 22.796 55.2125 22.956 55.7245 22.956C56.4605 22.956 56.9805 22.648 57.2845 22.032H58.7605C58.5605 22.64 58.1965 23.14 57.6685 23.532C57.1485 23.916 56.5005 24.108 55.7245 24.108C55.0925 24.108 54.5245 23.968 54.0205 23.688C53.5245 23.4 53.1325 23 52.8445 22.488C52.5645 21.968 52.4245 21.368 52.4245 20.688C52.4245 20.008 52.5605 19.412 52.8325 18.9C53.1125 18.38 53.5005 17.98 53.9965 17.7C54.5005 17.42 55.0765 17.28 55.7245 17.28C56.3485 17.28 56.9045 17.416 57.3925 17.688C57.8805 17.96 58.2605 18.344 58.5325 18.84C58.8045 19.328 58.9405 19.892 58.9405 20.532ZM57.5125 20.1C57.5045 19.596 57.3245 19.192 56.9725 18.888C56.6205 18.584 56.1845 18.432 55.6645 18.432C55.1925 18.432 54.7885 18.584 54.4525 18.888C54.1165 19.184 53.9165 19.588 53.8525 20.1H57.5125Z" fill="black"/>
<path d="M235.24 17.05V17.98H233.39V24H232.25V17.98H230.39V17.05H235.24ZM237.535 19.29C237.701 19.01 237.921 18.7933 238.195 18.64C238.475 18.48 238.805 18.4 239.185 18.4V19.58H238.895C238.448 19.58 238.108 19.6933 237.875 19.92C237.648 20.1467 237.535 20.54 237.535 21.1V24H236.395V18.49H237.535V19.29ZM240.812 17.76C240.606 17.76 240.432 17.69 240.292 17.55C240.152 17.41 240.082 17.2367 240.082 17.03C240.082 16.8233 240.152 16.65 240.292 16.51C240.432 16.37 240.606 16.3 240.812 16.3C241.012 16.3 241.182 16.37 241.322 16.51C241.462 16.65 241.532 16.8233 241.532 17.03C241.532 17.2367 241.462 17.41 241.322 17.55C241.182 17.69 241.012 17.76 240.812 17.76ZM241.372 18.49V24H240.232V18.49H241.372ZM244.009 19.3C244.202 19.0467 244.466 18.8333 244.799 18.66C245.132 18.4867 245.509 18.4 245.929 18.4C246.409 18.4 246.846 18.52 247.239 18.76C247.639 18.9933 247.952 19.3233 248.179 19.75C248.406 20.1767 248.519 20.6667 248.519 21.22C248.519 21.7733 248.406 22.27 248.179 22.71C247.952 23.1433 247.639 23.4833 247.239 23.73C246.846 23.97 246.409 24.09 245.929 24.09C245.509 24.09 245.136 24.0067 244.809 23.84C244.482 23.6667 244.216 23.4533 244.009 23.2V26.62H242.869V18.49H244.009V19.3ZM247.359 21.22C247.359 20.84 247.279 20.5133 247.119 20.24C246.966 19.96 246.759 19.75 246.499 19.61C246.246 19.4633 245.972 19.39 245.679 19.39C245.392 19.39 245.119 19.4633 244.859 19.61C244.606 19.7567 244.399 19.97 244.239 20.25C244.086 20.53 244.009 20.86 244.009 21.24C244.009 21.62 244.086 21.9533 244.239 22.24C244.399 22.52 244.606 22.7333 244.859 22.88C245.119 23.0267 245.392 23.1 245.679 23.1C245.972 23.1 246.246 23.0267 246.499 22.88C246.759 22.7267 246.966 22.5067 247.119 22.22C247.279 21.9333 247.359 21.6 247.359 21.22ZM249.356 22.48V21.62L252.716 16.8H254.096V21.49H255.026V22.48H254.096V24H252.976V22.48H249.356ZM253.026 17.96L250.666 21.49H253.026V17.96ZM255.971 20.26C255.971 19.1067 256.164 18.2067 256.551 17.56C256.944 16.9067 257.618 16.58 258.571 16.58C259.524 16.58 260.194 16.9067 260.581 17.56C260.974 18.2067 261.171 19.1067 261.171 20.26C261.171 21.4267 260.974 22.34 260.581 23C260.194 23.6533 259.524 23.98 258.571 23.98C257.618 23.98 256.944 23.6533 256.551 23C256.164 22.34 255.971 21.4267 255.971 20.26ZM260.051 20.26C260.051 19.72 260.014 19.2633 259.941 18.89C259.874 18.5167 259.734 18.2133 259.521 17.98C259.308 17.74 258.991 17.62 258.571 17.62C258.151 17.62 257.834 17.74 257.621 17.98C257.408 18.2133 257.264 18.5167 257.191 18.89C257.124 19.2633 257.091 19.72 257.091 20.26C257.091 20.82 257.124 21.29 257.191 21.67C257.258 22.05 257.398 22.3567 257.611 22.59C257.831 22.8233 258.151 22.94 258.571 22.94C258.991 22.94 259.308 22.8233 259.521 22.59C259.741 22.3567 259.884 22.05 259.951 21.67C260.018 21.29 260.051 20.82 260.051 20.26Z" fill="#808080"/>
<path d="M409.906 18.51C409.946 17.89 410.183 17.4067 410.616 17.06C411.056 16.7133 411.616 16.54 412.296 16.54C412.763 16.54 413.166 16.6233 413.506 16.79C413.846 16.9567 414.103 17.1833 414.276 17.47C414.45 17.7567 414.536 18.08 414.536 18.44C414.536 18.8533 414.426 19.2067 414.206 19.5C413.986 19.7933 413.723 19.99 413.416 20.09V20.13C413.81 20.25 414.116 20.47 414.336 20.79C414.556 21.1033 414.666 21.5067 414.666 22C414.666 22.3933 414.576 22.7433 414.396 23.05C414.216 23.3567 413.95 23.6 413.596 23.78C413.243 23.9533 412.82 24.04 412.326 24.04C411.606 24.04 411.013 23.8567 410.546 23.49C410.086 23.1167 409.84 22.5833 409.806 21.89H410.906C410.933 22.2433 411.07 22.5333 411.316 22.76C411.563 22.98 411.896 23.09 412.316 23.09C412.723 23.09 413.036 22.98 413.256 22.76C413.476 22.5333 413.586 22.2433 413.586 21.89C413.586 21.4233 413.436 21.0933 413.136 20.9C412.843 20.7 412.39 20.6 411.776 20.6H411.516V19.66H411.786C412.326 19.6533 412.736 19.5633 413.016 19.39C413.303 19.2167 413.446 18.9433 413.446 18.57C413.446 18.25 413.343 17.9967 413.136 17.81C412.93 17.6167 412.636 17.52 412.256 17.52C411.883 17.52 411.593 17.6167 411.386 17.81C411.18 17.9967 411.056 18.23 411.016 18.51H409.906ZM416.474 24.07C416.267 24.07 416.094 24 415.954 23.86C415.814 23.72 415.744 23.5467 415.744 23.34C415.744 23.1333 415.814 22.96 415.954 22.82C416.094 22.68 416.267 22.61 416.474 22.61C416.674 22.61 416.844 22.68 416.984 22.82C417.124 22.96 417.194 23.1333 417.194 23.34C417.194 23.5467 417.124 23.72 416.984 23.86C416.844 24 416.674 24.07 416.474 24.07ZM416.474 19.87C416.267 19.87 416.094 19.8 415.954 19.66C415.814 19.52 415.744 19.3467 415.744 19.14C415.744 18.9333 415.814 18.76 415.954 18.62C416.094 18.48 416.267 18.41 416.474 18.41C416.674 18.41 416.844 18.48 416.984 18.62C417.124 18.76 417.194 18.9333 417.194 19.14C417.194 19.3467 417.124 19.52 416.984 19.66C416.844 19.8 416.674 19.87 416.474 19.87ZM418.295 18.51C418.335 17.89 418.572 17.4067 419.005 17.06C419.445 16.7133 420.005 16.54 420.685 16.54C421.152 16.54 421.555 16.6233 421.895 16.79C422.235 16.9567 422.492 17.1833 422.665 17.47C422.838 17.7567 422.925 18.08 422.925 18.44C422.925 18.8533 422.815 19.2067 422.595 19.5C422.375 19.7933 422.112 19.99 421.805 20.09V20.13C422.198 20.25 422.505 20.47 422.725 20.79C422.945 21.1033 423.055 21.5067 423.055 22C423.055 22.3933 422.965 22.7433 422.785 23.05C422.605 23.3567 422.338 23.6 421.985 23.78C421.632 23.9533 421.208 24.04 420.715 24.04C419.995 24.04 419.402 23.8567 418.935 23.49C418.475 23.1167 418.228 22.5833 418.195 21.89H419.295C419.322 22.2433 419.458 22.5333 419.705 22.76C419.952 22.98 420.285 23.09 420.705 23.09C421.112 23.09 421.425 22.98 421.645 22.76C421.865 22.5333 421.975 22.2433 421.975 21.89C421.975 21.4233 421.825 21.0933 421.525 20.9C421.232 20.7 420.778 20.6 420.165 20.6H419.905V19.66H420.175C420.715 19.6533 421.125 19.5633 421.405 19.39C421.692 19.2167 421.835 18.9433 421.835 18.57C421.835 18.25 421.732 17.9967 421.525 17.81C421.318 17.6167 421.025 17.52 420.645 17.52C420.272 17.52 419.982 17.6167 419.775 17.81C419.568 17.9967 419.445 18.23 419.405 18.51H418.295ZM425.672 22.02C425.739 22.3533 425.882 22.6067 426.102 22.78C426.322 22.9533 426.619 23.04 426.992 23.04C427.466 23.04 427.812 22.8533 428.032 22.48C428.252 22.1067 428.362 21.47 428.362 20.57C428.202 20.7967 427.976 20.9733 427.682 21.1C427.396 21.22 427.082 21.28 426.742 21.28C426.309 21.28 425.916 21.1933 425.562 21.02C425.209 20.84 424.929 20.5767 424.722 20.23C424.522 19.8767 424.422 19.45 424.422 18.95C424.422 18.2167 424.636 17.6333 425.062 17.2C425.496 16.76 426.089 16.54 426.842 16.54C427.749 16.54 428.392 16.8433 428.772 17.45C429.159 18.05 429.352 18.9733 429.352 20.22C429.352 21.08 429.279 21.7833 429.132 22.33C428.992 22.8767 428.746 23.29 428.392 23.57C428.039 23.85 427.549 23.99 426.922 23.99C426.209 23.99 425.659 23.8033 425.272 23.43C424.886 23.0567 424.669 22.5867 424.622 22.02H425.672ZM426.942 20.32C427.342 20.32 427.656 20.1967 427.882 19.95C428.116 19.6967 428.232 19.3633 428.232 18.95C428.232 18.49 428.109 18.1333 427.862 17.88C427.622 17.62 427.292 17.49 426.872 17.49C426.452 17.49 426.119 17.6233 425.872 17.89C425.632 18.15 425.512 18.4933 425.512 18.92C425.512 19.3267 425.629 19.6633 425.862 19.93C426.102 20.19 426.462 20.32 426.942 20.32Z" fill="#808080"/>
</svg>
