<svg width="480" height="360" viewBox="0 0 480 360" fill="none" xmlns="http://www.w3.org/2000/svg">
<rect x="160" y="140" width="310" height="30" rx="15" fill="white" fill-opacity="0.1"/>
<path d="M274.269 150.66C275.157 150.66 275.933 150.832 276.597 151.176C277.269 151.512 277.785 152 278.145 152.64C278.513 153.272 278.697 154.012 278.697 154.86C278.697 155.708 278.513 156.444 278.145 157.068C277.785 157.692 277.269 158.172 276.597 158.508C275.933 158.836 275.157 159 274.269 159H271.545V150.66H274.269ZM274.269 157.884C275.245 157.884 275.993 157.62 276.513 157.092C277.033 156.564 277.293 155.82 277.293 154.86C277.293 153.892 277.033 153.136 276.513 152.592C275.993 152.048 275.245 151.776 274.269 151.776H272.913V157.884H274.269ZM282.92 159.108C282.296 159.108 281.732 158.968 281.228 158.688C280.724 158.4 280.328 158 280.04 157.488C279.752 156.968 279.608 156.368 279.608 155.688C279.608 155.016 279.756 154.42 280.052 153.9C280.348 153.38 280.752 152.98 281.264 152.7C281.776 152.42 282.348 152.28 282.98 152.28C283.612 152.28 284.184 152.42 284.696 152.7C285.208 152.98 285.612 153.38 285.908 153.9C286.204 154.42 286.352 155.016 286.352 155.688C286.352 156.36 286.2 156.956 285.896 157.476C285.592 157.996 285.176 158.4 284.648 158.688C284.128 158.968 283.552 159.108 282.92 159.108ZM282.92 157.92C283.272 157.92 283.6 157.836 283.904 157.668C284.216 157.5 284.468 157.248 284.66 156.912C284.852 156.576 284.948 156.168 284.948 155.688C284.948 155.208 284.856 154.804 284.672 154.476C284.488 154.14 284.244 153.888 283.94 153.72C283.636 153.552 283.308 153.468 282.956 153.468C282.604 153.468 282.276 153.552 281.972 153.72C281.676 153.888 281.44 154.14 281.264 154.476C281.088 154.804 281 155.208 281 155.688C281 156.4 281.18 156.952 281.54 157.344C281.908 157.728 282.368 157.92 282.92 157.92ZM296.585 152.388L294.533 159H293.093L291.761 154.116L290.429 159H288.989L286.925 152.388H288.317L289.697 157.704L291.101 152.388H292.529L293.873 157.68L295.241 152.388H296.585ZM300.943 152.28C301.463 152.28 301.927 152.388 302.335 152.604C302.751 152.82 303.075 153.14 303.307 153.564C303.539 153.988 303.655 154.5 303.655 155.1V159H302.299V155.304C302.299 154.712 302.151 154.26 301.855 153.948C301.559 153.628 301.155 153.468 300.643 153.468C300.131 153.468 299.723 153.628 299.419 153.948C299.123 154.26 298.975 154.712 298.975 155.304V159H297.607V152.388H298.975V153.144C299.199 152.872 299.483 152.66 299.827 152.508C300.179 152.356 300.551 152.28 300.943 152.28ZM306.768 150.12V159H305.4V150.12H306.768ZM311.432 159.108C310.808 159.108 310.244 158.968 309.74 158.688C309.236 158.4 308.84 158 308.552 157.488C308.264 156.968 308.12 156.368 308.12 155.688C308.12 155.016 308.268 154.42 308.564 153.9C308.86 153.38 309.264 152.98 309.776 152.7C310.288 152.42 310.86 152.28 311.492 152.28C312.124 152.28 312.696 152.42 313.208 152.7C313.72 152.98 314.124 153.38 314.42 153.9C314.716 154.42 314.864 155.016 314.864 155.688C314.864 156.36 314.712 156.956 314.408 157.476C314.104 157.996 313.688 158.4 313.16 158.688C312.64 158.968 312.064 159.108 311.432 159.108ZM311.432 157.92C311.784 157.92 312.112 157.836 312.416 157.668C312.728 157.5 312.98 157.248 313.172 156.912C313.364 156.576 313.46 156.168 313.46 155.688C313.46 155.208 313.368 154.804 313.184 154.476C313 154.14 312.756 153.888 312.452 153.72C312.148 153.552 311.82 153.468 311.468 153.468C311.116 153.468 310.788 153.552 310.484 153.72C310.188 153.888 309.952 154.14 309.776 154.476C309.6 154.804 309.512 155.208 309.512 155.688C309.512 156.4 309.692 156.952 310.052 157.344C310.42 157.728 310.88 157.92 311.432 157.92ZM315.76 155.664C315.76 155 315.896 154.412 316.168 153.9C316.448 153.388 316.824 152.992 317.296 152.712C317.776 152.424 318.304 152.28 318.88 152.28C319.4 152.28 319.852 152.384 320.236 152.592C320.628 152.792 320.94 153.044 321.172 153.348V152.388H322.552V159H321.172V158.016C320.94 158.328 320.624 158.588 320.224 158.796C319.824 159.004 319.368 159.108 318.856 159.108C318.288 159.108 317.768 158.964 317.296 158.676C316.824 158.38 316.448 157.972 316.168 157.452C315.896 156.924 315.76 156.328 315.76 155.664ZM321.172 155.688C321.172 155.232 321.076 154.836 320.884 154.5C320.7 154.164 320.456 153.908 320.152 153.732C319.848 153.556 319.52 153.468 319.168 153.468C318.816 153.468 318.488 153.556 318.184 153.732C317.88 153.9 317.632 154.152 317.44 154.488C317.256 154.816 317.164 155.208 317.164 155.664C317.164 156.12 317.256 156.52 317.44 156.864C317.632 157.208 317.88 157.472 318.184 157.656C318.496 157.832 318.824 157.92 319.168 157.92C319.52 157.92 319.848 157.832 320.152 157.656C320.456 157.48 320.7 157.224 320.884 156.888C321.076 156.544 321.172 156.144 321.172 155.688ZM323.893 155.664C323.893 155 324.029 154.412 324.301 153.9C324.581 153.388 324.957 152.992 325.429 152.712C325.909 152.424 326.441 152.28 327.025 152.28C327.457 152.28 327.881 152.376 328.297 152.568C328.721 152.752 329.057 153 329.305 153.312V150.12H330.685V159H329.305V158.004C329.081 158.324 328.769 158.588 328.369 158.796C327.977 159.004 327.525 159.108 327.013 159.108C326.437 159.108 325.909 158.964 325.429 158.676C324.957 158.38 324.581 157.972 324.301 157.452C324.029 156.924 323.893 156.328 323.893 155.664ZM329.305 155.688C329.305 155.232 329.209 154.836 329.017 154.5C328.833 154.164 328.589 153.908 328.285 153.732C327.981 153.556 327.653 153.468 327.301 153.468C326.949 153.468 326.621 153.556 326.317 153.732C326.013 153.9 325.765 154.152 325.573 154.488C325.389 154.816 325.297 155.208 325.297 155.664C325.297 156.12 325.389 156.52 325.573 156.864C325.765 157.208 326.013 157.472 326.317 157.656C326.629 157.832 326.957 157.92 327.301 157.92C327.653 157.92 327.981 157.832 328.285 157.656C328.589 157.48 328.833 157.224 329.017 156.888C329.209 156.544 329.305 156.144 329.305 155.688ZM333.178 151.512C332.93 151.512 332.722 151.428 332.554 151.26C332.386 151.092 332.302 150.884 332.302 150.636C332.302 150.388 332.386 150.18 332.554 150.012C332.722 149.844 332.93 149.76 333.178 149.76C333.418 149.76 333.622 149.844 333.79 150.012C333.958 150.18 334.042 150.388 334.042 150.636C334.042 150.884 333.958 151.092 333.79 151.26C333.622 151.428 333.418 151.512 333.178 151.512ZM333.85 152.388V159H332.482V152.388H333.85ZM338.982 152.28C339.502 152.28 339.966 152.388 340.374 152.604C340.79 152.82 341.114 153.14 341.346 153.564C341.578 153.988 341.694 154.5 341.694 155.1V159H340.338V155.304C340.338 154.712 340.19 154.26 339.894 153.948C339.598 153.628 339.194 153.468 338.682 153.468C338.17 153.468 337.762 153.628 337.458 153.948C337.162 154.26 337.014 154.712 337.014 155.304V159H335.646V152.388H337.014V153.144C337.238 152.872 337.522 152.66 337.866 152.508C338.218 152.356 338.59 152.28 338.982 152.28ZM346.103 152.28C346.615 152.28 347.067 152.384 347.459 152.592C347.859 152.792 348.171 153.044 348.395 153.348V152.388H349.775V159.108C349.775 159.716 349.647 160.256 349.391 160.728C349.135 161.208 348.763 161.584 348.275 161.856C347.795 162.128 347.219 162.264 346.547 162.264C345.651 162.264 344.907 162.052 344.315 161.628C343.723 161.212 343.387 160.644 343.307 159.924H344.663C344.767 160.268 344.987 160.544 345.323 160.752C345.667 160.968 346.075 161.076 346.547 161.076C347.099 161.076 347.543 160.908 347.879 160.572C348.223 160.236 348.395 159.748 348.395 159.108V158.004C348.163 158.316 347.847 158.58 347.447 158.796C347.055 159.004 346.607 159.108 346.103 159.108C345.527 159.108 344.999 158.964 344.519 158.676C344.047 158.38 343.671 157.972 343.391 157.452C343.119 156.924 342.983 156.328 342.983 155.664C342.983 155 343.119 154.412 343.391 153.9C343.671 153.388 344.047 152.992 344.519 152.712C344.999 152.424 345.527 152.28 346.103 152.28ZM348.395 155.688C348.395 155.232 348.299 154.836 348.107 154.5C347.923 154.164 347.679 153.908 347.375 153.732C347.071 153.556 346.743 153.468 346.391 153.468C346.039 153.468 345.711 153.556 345.407 153.732C345.103 153.9 344.855 154.152 344.663 154.488C344.479 154.816 344.387 155.208 344.387 155.664C344.387 156.12 344.479 156.52 344.663 156.864C344.855 157.208 345.103 157.472 345.407 157.656C345.719 157.832 346.047 157.92 346.391 157.92C346.743 157.92 347.071 157.832 347.375 157.656C347.679 157.48 347.923 157.224 348.107 156.888C348.299 156.544 348.395 156.144 348.395 155.688ZM352.124 159.084C351.876 159.084 351.668 159 351.5 158.832C351.332 158.664 351.248 158.456 351.248 158.208C351.248 157.96 351.332 157.752 351.5 157.584C351.668 157.416 351.876 157.332 352.124 157.332C352.364 157.332 352.568 157.416 352.736 157.584C352.904 157.752 352.988 157.96 352.988 158.208C352.988 158.456 352.904 158.664 352.736 158.832C352.568 159 352.364 159.084 352.124 159.084ZM355.018 159.084C354.77 159.084 354.562 159 354.394 158.832C354.226 158.664 354.142 158.456 354.142 158.208C354.142 157.96 354.226 157.752 354.394 157.584C354.562 157.416 354.77 157.332 355.018 157.332C355.258 157.332 355.462 157.416 355.63 157.584C355.798 157.752 355.882 157.96 355.882 158.208C355.882 158.456 355.798 158.664 355.63 158.832C355.462 159 355.258 159.084 355.018 159.084ZM357.913 159.084C357.665 159.084 357.457 159 357.289 158.832C357.121 158.664 357.037 158.456 357.037 158.208C357.037 157.96 357.121 157.752 357.289 157.584C357.457 157.416 357.665 157.332 357.913 157.332C358.153 157.332 358.357 157.416 358.525 157.584C358.693 157.752 358.777 157.96 358.777 158.208C358.777 158.456 358.693 158.664 358.525 158.832C358.357 159 358.153 159.084 357.913 159.084Z" fill="white"/>
</svg>
