<svg xmlns="http://www.w3.org/2000/svg" fill="none" viewBox="0 0 480 360" height="360" width="480">
<g clip-path="url(#clip0_616_308)">
<path fill="black" d="M174.864 31.112C174.117 31.112 173.445 30.984 172.848 30.728C172.251 30.4613 171.781 30.088 171.44 29.608C171.099 29.128 170.928 28.568 170.928 27.928H172.88C172.923 28.408 173.109 28.8027 173.44 29.112C173.781 29.4213 174.256 29.576 174.864 29.576C175.493 29.576 175.984 29.4267 176.336 29.128C176.688 28.8187 176.864 28.424 176.864 27.944C176.864 27.5707 176.752 27.2667 176.528 27.032C176.315 26.7973 176.043 26.616 175.712 26.488C175.392 26.36 174.944 26.2213 174.368 26.072C173.643 25.88 173.051 25.688 172.592 25.496C172.144 25.2933 171.76 24.984 171.44 24.568C171.12 24.152 170.96 23.5973 170.96 22.904C170.96 22.264 171.12 21.704 171.44 21.224C171.76 20.744 172.208 20.376 172.784 20.12C173.36 19.864 174.027 19.736 174.784 19.736C175.861 19.736 176.741 20.008 177.424 20.552C178.117 21.0853 178.501 21.8213 178.576 22.76H176.56C176.528 22.3547 176.336 22.008 175.984 21.72C175.632 21.432 175.168 21.288 174.592 21.288C174.069 21.288 173.643 21.4213 173.312 21.688C172.981 21.9547 172.816 22.3387 172.816 22.84C172.816 23.1813 172.917 23.464 173.12 23.688C173.333 23.9013 173.6 24.072 173.92 24.2C174.24 24.328 174.677 24.4667 175.232 24.616C175.968 24.8187 176.565 25.0213 177.024 25.224C177.493 25.4267 177.888 25.7413 178.208 26.168C178.539 26.584 178.704 27.144 178.704 27.848C178.704 28.4133 178.549 28.9467 178.24 29.448C177.941 29.9493 177.499 30.3547 176.912 30.664C176.336 30.9627 175.653 31.112 174.864 31.112ZM188.792 22.184L183.384 35.144H181.496L183.288 30.856L179.816 22.184H181.848L184.328 28.904L186.904 22.184H188.792ZM193.369 31.144C192.675 31.144 192.051 31.0213 191.497 30.776C190.953 30.52 190.521 30.1787 190.201 29.752C189.881 29.3147 189.71 28.8293 189.689 28.296H191.577C191.609 28.6693 191.785 28.984 192.105 29.24C192.435 29.4853 192.846 29.608 193.337 29.608C193.849 29.608 194.243 29.512 194.521 29.32C194.809 29.1173 194.953 28.8613 194.953 28.552C194.953 28.2213 194.793 27.976 194.473 27.816C194.163 27.656 193.667 27.48 192.985 27.288C192.323 27.1067 191.785 26.9307 191.369 26.76C190.953 26.5893 190.59 26.328 190.281 25.976C189.982 25.624 189.833 25.16 189.833 24.584C189.833 24.1147 189.971 23.688 190.249 23.304C190.526 22.9093 190.921 22.6 191.433 22.376C191.955 22.152 192.553 22.04 193.225 22.04C194.227 22.04 195.033 22.296 195.641 22.808C196.259 23.3093 196.59 23.9973 196.633 24.872H194.809C194.777 24.4773 194.617 24.1627 194.329 23.928C194.041 23.6933 193.651 23.576 193.161 23.576C192.681 23.576 192.313 23.6667 192.057 23.848C191.801 24.0293 191.673 24.2693 191.673 24.568C191.673 24.8027 191.758 25 191.929 25.16C192.099 25.32 192.307 25.448 192.553 25.544C192.798 25.6293 193.161 25.7413 193.641 25.88C194.281 26.0507 194.803 26.2267 195.209 26.408C195.625 26.5787 195.982 26.8347 196.281 27.176C196.579 27.5173 196.734 27.9707 196.745 28.536C196.745 29.0373 196.606 29.4853 196.329 29.88C196.051 30.2747 195.657 30.584 195.145 30.808C194.643 31.032 194.051 31.144 193.369 31.144ZM200.844 23.672V28.552C200.844 28.8827 200.918 29.1227 201.068 29.272C201.228 29.4107 201.494 29.48 201.868 29.48H202.988V31H201.548C200.726 31 200.097 30.808 199.66 30.424C199.222 30.04 199.004 29.416 199.004 28.552V23.672H197.964V22.184H199.004V19.992H200.844V22.184H202.988V23.672H200.844ZM212.749 26.376C212.749 26.7067 212.727 27.0053 212.685 27.272H205.949C206.002 27.976 206.263 28.5413 206.733 28.968C207.202 29.3947 207.778 29.608 208.461 29.608C209.442 29.608 210.135 29.1973 210.541 28.376H212.509C212.242 29.1867 211.757 29.8533 211.053 30.376C210.359 30.888 209.495 31.144 208.461 31.144C207.618 31.144 206.861 30.9573 206.189 30.584C205.527 30.2 205.005 29.6667 204.621 28.984C204.247 28.2907 204.061 27.4907 204.061 26.584C204.061 25.6773 204.242 24.8827 204.605 24.2C204.978 23.5067 205.495 22.9733 206.157 22.6C206.829 22.2267 207.597 22.04 208.461 22.04C209.293 22.04 210.034 22.2213 210.685 22.584C211.335 22.9467 211.842 23.4587 212.205 24.12C212.567 24.7707 212.749 25.5227 212.749 26.376ZM210.845 25.8C210.834 25.128 210.594 24.5893 210.125 24.184C209.655 23.7787 209.074 23.576 208.381 23.576C207.751 23.576 207.213 23.7787 206.765 24.184C206.317 24.5787 206.05 25.1173 205.965 25.8H210.845ZM225.216 22.04C225.909 22.04 226.528 22.184 227.072 22.472C227.626 22.76 228.058 23.1867 228.368 23.752C228.688 24.3173 228.848 25 228.848 25.8V31H227.04V26.072C227.04 25.2827 226.842 24.68 226.448 24.264C226.053 23.8373 225.514 23.624 224.832 23.624C224.149 23.624 223.605 23.8373 223.2 24.264C222.805 24.68 222.608 25.2827 222.608 26.072V31H220.8V26.072C220.8 25.2827 220.602 24.68 220.208 24.264C219.813 23.8373 219.274 23.624 218.592 23.624C217.909 23.624 217.365 23.8373 216.96 24.264C216.565 24.68 216.368 25.2827 216.368 26.072V31H214.544V22.184H216.368V23.192C216.666 22.8293 217.045 22.5467 217.504 22.344C217.962 22.1413 218.453 22.04 218.976 22.04C219.68 22.04 220.309 22.1893 220.864 22.488C221.418 22.7867 221.845 23.2187 222.144 23.784C222.41 23.2507 222.826 22.8293 223.392 22.52C223.957 22.2 224.565 22.04 225.216 22.04ZM239.021 23.672H237.389V31H235.549V23.672H234.509V22.184H235.549V21.56C235.549 20.5467 235.816 19.8107 236.349 19.352C236.893 18.8827 237.741 18.648 238.893 18.648V20.168C238.338 20.168 237.949 20.2747 237.725 20.488C237.501 20.6907 237.389 21.048 237.389 21.56V22.184H239.021V23.672ZM241.566 21.016C241.235 21.016 240.958 20.904 240.734 20.68C240.51 20.456 240.398 20.1787 240.398 19.848C240.398 19.5173 240.51 19.24 240.734 19.016C240.958 18.792 241.235 18.68 241.566 18.68C241.886 18.68 242.158 18.792 242.382 19.016C242.606 19.24 242.718 19.5173 242.718 19.848C242.718 20.1787 242.606 20.456 242.382 20.68C242.158 20.904 241.886 21.016 241.566 21.016ZM242.462 22.184V31H240.638V22.184H242.462ZM246.68 19.16V31H244.856V19.16H246.68ZM257.155 26.376C257.155 26.7067 257.134 27.0053 257.091 27.272H250.355C250.408 27.976 250.67 28.5413 251.139 28.968C251.608 29.3947 252.184 29.608 252.867 29.608C253.848 29.608 254.542 29.1973 254.947 28.376H256.915C256.648 29.1867 256.163 29.8533 255.459 30.376C254.766 30.888 253.902 31.144 252.867 31.144C252.024 31.144 251.267 30.9573 250.595 30.584C249.934 30.2 249.411 29.6667 249.027 28.984C248.654 28.2907 248.467 27.4907 248.467 26.584C248.467 25.6773 248.648 24.8827 249.011 24.2C249.384 23.5067 249.902 22.9733 250.563 22.6C251.235 22.2267 252.003 22.04 252.867 22.04C253.699 22.04 254.44 22.2213 255.091 22.584C255.742 22.9467 256.248 23.4587 256.611 24.12C256.974 24.7707 257.155 25.5227 257.155 26.376ZM255.251 25.8C255.24 25.128 255 24.5893 254.531 24.184C254.062 23.7787 253.48 23.576 252.787 23.576C252.158 23.576 251.619 23.7787 251.171 24.184C250.723 24.5787 250.456 25.1173 250.371 25.8H255.251ZM262.15 31.144C261.457 31.144 260.833 31.0213 260.278 30.776C259.734 30.52 259.302 30.1787 258.982 29.752C258.662 29.3147 258.491 28.8293 258.47 28.296H260.358C260.39 28.6693 260.566 28.984 260.886 29.24C261.217 29.4853 261.627 29.608 262.118 29.608C262.63 29.608 263.025 29.512 263.302 29.32C263.59 29.1173 263.734 28.8613 263.734 28.552C263.734 28.2213 263.574 27.976 263.254 27.816C262.945 27.656 262.449 27.48 261.766 27.288C261.105 27.1067 260.566 26.9307 260.15 26.76C259.734 26.5893 259.371 26.328 259.062 25.976C258.763 25.624 258.614 25.16 258.614 24.584C258.614 24.1147 258.753 23.688 259.03 23.304C259.307 22.9093 259.702 22.6 260.214 22.376C260.737 22.152 261.334 22.04 262.006 22.04C263.009 22.04 263.814 22.296 264.422 22.808C265.041 23.3093 265.371 23.9973 265.414 24.872H263.59C263.558 24.4773 263.398 24.1627 263.11 23.928C262.822 23.6933 262.433 23.576 261.942 23.576C261.462 23.576 261.094 23.6667 260.838 23.848C260.582 24.0293 260.454 24.2693 260.454 24.568C260.454 24.8027 260.539 25 260.71 25.16C260.881 25.32 261.089 25.448 261.334 25.544C261.579 25.6293 261.942 25.7413 262.422 25.88C263.062 26.0507 263.585 26.2267 263.99 26.408C264.406 26.5787 264.763 26.8347 265.062 27.176C265.361 27.5173 265.515 27.9707 265.526 28.536C265.526 29.0373 265.387 29.4853 265.11 29.88C264.833 30.2747 264.438 30.584 263.926 30.808C263.425 31.032 262.833 31.144 262.15 31.144Z"></path>
<path fill="black" d="M177.752 69H176.384L172.268 62.772V69H170.9V60.648H172.268L176.384 66.864V60.648H177.752V69ZM179.092 65.664C179.092 65 179.228 64.412 179.5 63.9C179.78 63.388 180.156 62.992 180.628 62.712C181.108 62.424 181.636 62.28 182.212 62.28C182.732 62.28 183.184 62.384 183.568 62.592C183.96 62.792 184.272 63.044 184.504 63.348V62.388H185.884V69H184.504V68.016C184.272 68.328 183.956 68.588 183.556 68.796C183.156 69.004 182.7 69.108 182.188 69.108C181.62 69.108 181.1 68.964 180.628 68.676C180.156 68.38 179.78 67.972 179.5 67.452C179.228 66.924 179.092 66.328 179.092 65.664ZM184.504 65.688C184.504 65.232 184.408 64.836 184.216 64.5C184.032 64.164 183.788 63.908 183.484 63.732C183.18 63.556 182.852 63.468 182.5 63.468C182.148 63.468 181.82 63.556 181.516 63.732C181.212 63.9 180.964 64.152 180.772 64.488C180.588 64.816 180.496 65.208 180.496 65.664C180.496 66.12 180.588 66.52 180.772 66.864C180.964 67.208 181.212 67.472 181.516 67.656C181.828 67.832 182.156 67.92 182.5 67.92C182.852 67.92 183.18 67.832 183.484 67.656C183.788 67.48 184.032 67.224 184.216 66.888C184.408 66.544 184.504 66.144 184.504 65.688ZM195.685 62.28C196.205 62.28 196.669 62.388 197.077 62.604C197.493 62.82 197.817 63.14 198.049 63.564C198.289 63.988 198.409 64.5 198.409 65.1V69H197.053V65.304C197.053 64.712 196.905 64.26 196.609 63.948C196.313 63.628 195.909 63.468 195.397 63.468C194.885 63.468 194.477 63.628 194.173 63.948C193.877 64.26 193.729 64.712 193.729 65.304V69H192.373V65.304C192.373 64.712 192.225 64.26 191.929 63.948C191.633 63.628 191.229 63.468 190.717 63.468C190.205 63.468 189.797 63.628 189.493 63.948C189.197 64.26 189.049 64.712 189.049 65.304V69H187.681V62.388H189.049V63.144C189.273 62.872 189.557 62.66 189.901 62.508C190.245 62.356 190.613 62.28 191.005 62.28C191.533 62.28 192.005 62.392 192.421 62.616C192.837 62.84 193.157 63.164 193.381 63.588C193.581 63.188 193.893 62.872 194.317 62.64C194.741 62.4 195.197 62.28 195.685 62.28ZM206.21 65.532C206.21 65.78 206.194 66.004 206.162 66.204H201.11C201.15 66.732 201.346 67.156 201.698 67.476C202.05 67.796 202.482 67.956 202.994 67.956C203.73 67.956 204.25 67.648 204.554 67.032H206.03C205.83 67.64 205.466 68.14 204.938 68.532C204.418 68.916 203.77 69.108 202.994 69.108C202.362 69.108 201.794 68.968 201.29 68.688C200.794 68.4 200.402 68 200.114 67.488C199.834 66.968 199.694 66.368 199.694 65.688C199.694 65.008 199.83 64.412 200.102 63.9C200.382 63.38 200.77 62.98 201.266 62.7C201.77 62.42 202.346 62.28 202.994 62.28C203.618 62.28 204.174 62.416 204.662 62.688C205.15 62.96 205.53 63.344 205.802 63.84C206.074 64.328 206.21 64.892 206.21 65.532ZM204.782 65.1C204.774 64.596 204.594 64.192 204.242 63.888C203.89 63.584 203.454 63.432 202.934 63.432C202.462 63.432 202.058 63.584 201.722 63.888C201.386 64.184 201.186 64.588 201.122 65.1H204.782Z"></path>
<path fill="black" d="M302.624 60.66C303.512 60.66 304.288 60.832 304.952 61.176C305.624 61.512 306.14 62 306.5 62.64C306.868 63.272 307.052 64.012 307.052 64.86C307.052 65.708 306.868 66.444 306.5 67.068C306.14 67.692 305.624 68.172 304.952 68.508C304.288 68.836 303.512 69 302.624 69H299.9V60.66H302.624ZM302.624 67.884C303.6 67.884 304.348 67.62 304.868 67.092C305.388 66.564 305.648 65.82 305.648 64.86C305.648 63.892 305.388 63.136 304.868 62.592C304.348 62.048 303.6 61.776 302.624 61.776H301.268V67.884H302.624ZM307.952 65.664C307.952 65 308.088 64.412 308.36 63.9C308.64 63.388 309.016 62.992 309.488 62.712C309.968 62.424 310.496 62.28 311.072 62.28C311.592 62.28 312.044 62.384 312.428 62.592C312.82 62.792 313.132 63.044 313.364 63.348V62.388H314.744V69H313.364V68.016C313.132 68.328 312.816 68.588 312.416 68.796C312.016 69.004 311.56 69.108 311.048 69.108C310.48 69.108 309.96 68.964 309.488 68.676C309.016 68.38 308.64 67.972 308.36 67.452C308.088 66.924 307.952 66.328 307.952 65.664ZM313.364 65.688C313.364 65.232 313.268 64.836 313.076 64.5C312.892 64.164 312.648 63.908 312.344 63.732C312.04 63.556 311.712 63.468 311.36 63.468C311.008 63.468 310.68 63.556 310.376 63.732C310.072 63.9 309.824 64.152 309.632 64.488C309.448 64.816 309.356 65.208 309.356 65.664C309.356 66.12 309.448 66.52 309.632 66.864C309.824 67.208 310.072 67.472 310.376 67.656C310.688 67.832 311.016 67.92 311.36 67.92C311.712 67.92 312.04 67.832 312.344 67.656C312.648 67.48 312.892 67.224 313.076 66.888C313.268 66.544 313.364 66.144 313.364 65.688ZM318.137 63.504V67.164C318.137 67.412 318.193 67.592 318.305 67.704C318.425 67.808 318.625 67.86 318.905 67.86H319.745V69H318.665C318.049 69 317.577 68.856 317.249 68.568C316.921 68.28 316.757 67.812 316.757 67.164V63.504H315.977V62.388H316.757V60.744H318.137V62.388H319.745V63.504H318.137ZM327.065 65.532C327.065 65.78 327.049 66.004 327.017 66.204H321.965C322.005 66.732 322.201 67.156 322.553 67.476C322.905 67.796 323.337 67.956 323.849 67.956C324.585 67.956 325.105 67.648 325.409 67.032H326.885C326.685 67.64 326.321 68.14 325.793 68.532C325.273 68.916 324.625 69.108 323.849 69.108C323.217 69.108 322.649 68.968 322.145 68.688C321.649 68.4 321.257 68 320.969 67.488C320.689 66.968 320.549 66.368 320.549 65.688C320.549 65.008 320.685 64.412 320.957 63.9C321.237 63.38 321.625 62.98 322.121 62.7C322.625 62.42 323.201 62.28 323.849 62.28C324.473 62.28 325.029 62.416 325.517 62.688C326.005 62.96 326.385 63.344 326.657 63.84C326.929 64.328 327.065 64.892 327.065 65.532ZM325.637 65.1C325.629 64.596 325.449 64.192 325.097 63.888C324.745 63.584 324.309 63.432 323.789 63.432C323.317 63.432 322.913 63.584 322.577 63.888C322.241 64.184 322.041 64.588 321.977 65.1H325.637Z"></path>
<path fill="black" d="M387.648 69.084C387.088 69.084 386.584 68.988 386.136 68.796C385.688 68.596 385.336 68.316 385.08 67.956C384.824 67.596 384.696 67.176 384.696 66.696H386.16C386.192 67.056 386.332 67.352 386.58 67.584C386.836 67.816 387.192 67.932 387.648 67.932C388.12 67.932 388.488 67.82 388.752 67.596C389.016 67.364 389.148 67.068 389.148 66.708C389.148 66.428 389.064 66.2 388.896 66.024C388.736 65.848 388.532 65.712 388.284 65.616C388.044 65.52 387.708 65.416 387.276 65.304C386.732 65.16 386.288 65.016 385.944 64.872C385.608 64.72 385.32 64.488 385.08 64.176C384.84 63.864 384.72 63.448 384.72 62.928C384.72 62.448 384.84 62.028 385.08 61.668C385.32 61.308 385.656 61.032 386.088 60.84C386.52 60.648 387.02 60.552 387.588 60.552C388.396 60.552 389.056 60.756 389.568 61.164C390.088 61.564 390.376 62.116 390.432 62.82H388.92C388.896 62.516 388.752 62.256 388.488 62.04C388.224 61.824 387.876 61.716 387.444 61.716C387.052 61.716 386.732 61.816 386.484 62.016C386.236 62.216 386.112 62.504 386.112 62.88C386.112 63.136 386.188 63.348 386.34 63.516C386.5 63.676 386.7 63.804 386.94 63.9C387.18 63.996 387.508 64.1 387.924 64.212C388.476 64.364 388.924 64.516 389.268 64.668C389.62 64.82 389.916 65.056 390.156 65.376C390.404 65.688 390.528 66.108 390.528 66.636C390.528 67.06 390.412 67.46 390.18 67.836C389.956 68.212 389.624 68.516 389.184 68.748C388.752 68.972 388.24 69.084 387.648 69.084ZM392.838 61.512C392.59 61.512 392.382 61.428 392.214 61.26C392.046 61.092 391.962 60.884 391.962 60.636C391.962 60.388 392.046 60.18 392.214 60.012C392.382 59.844 392.59 59.76 392.838 59.76C393.078 59.76 393.282 59.844 393.45 60.012C393.618 60.18 393.702 60.388 393.702 60.636C393.702 60.884 393.618 61.092 393.45 61.26C393.282 61.428 393.078 61.512 392.838 61.512ZM393.51 62.388V69H392.142V62.388H393.51ZM396.518 67.884H399.518V69H394.934V67.884L397.946 63.504H394.934V62.388H399.518V63.504L396.518 67.884ZM407.015 65.532C407.015 65.78 406.999 66.004 406.967 66.204H401.915C401.955 66.732 402.151 67.156 402.503 67.476C402.855 67.796 403.287 67.956 403.799 67.956C404.535 67.956 405.055 67.648 405.359 67.032H406.835C406.635 67.64 406.271 68.14 405.743 68.532C405.223 68.916 404.575 69.108 403.799 69.108C403.167 69.108 402.599 68.968 402.095 68.688C401.599 68.4 401.207 68 400.919 67.488C400.639 66.968 400.499 66.368 400.499 65.688C400.499 65.008 400.635 64.412 400.907 63.9C401.187 63.38 401.575 62.98 402.071 62.7C402.575 62.42 403.151 62.28 403.799 62.28C404.423 62.28 404.979 62.416 405.467 62.688C405.955 62.96 406.335 63.344 406.607 63.84C406.879 64.328 407.015 64.892 407.015 65.532ZM405.587 65.1C405.579 64.596 405.399 64.192 405.047 63.888C404.695 63.584 404.259 63.432 403.739 63.432C403.267 63.432 402.863 63.584 402.527 63.888C402.191 64.184 401.991 64.588 401.927 65.1H405.587Z"></path>
</g>
<defs>
<clipPath id="clip0_616_308">
<rect fill="white" height="360" width="480"></rect>
</clipPath>
</defs>
</svg>
