<svg width="240" height="50" viewBox="0 0 240 50" fill="none" xmlns="http://www.w3.org/2000/svg">
<path d="M3.624 13.66C4.512 13.66 5.288 13.832 5.952 14.176C6.624 14.512 7.14 15 7.5 15.64C7.868 16.272 8.052 17.012 8.052 17.86C8.052 18.708 7.868 19.444 7.5 20.068C7.14 20.692 6.624 21.172 5.952 21.508C5.288 21.836 4.512 22 3.624 22H0.9V13.66H3.624ZM3.624 20.884C4.6 20.884 5.348 20.62 5.868 20.092C6.388 19.564 6.648 18.82 6.648 17.86C6.648 16.892 6.388 16.136 5.868 15.592C5.348 15.048 4.6 14.776 3.624 14.776H2.268V20.884H3.624ZM10.7758 16.348C10.9758 16.012 11.2398 15.752 11.5678 15.568C11.9038 15.376 12.2998 15.28 12.7558 15.28V16.696H12.4078C11.8718 16.696 11.4638 16.832 11.1838 17.104C10.9118 17.376 10.7758 17.848 10.7758 18.52V22H9.40781V15.388H10.7758V16.348ZM13.5573 18.664C13.5573 18 13.6933 17.412 13.9653 16.9C14.2453 16.388 14.6213 15.992 15.0933 15.712C15.5733 15.424 16.1013 15.28 16.6773 15.28C17.1973 15.28 17.6493 15.384 18.0333 15.592C18.4253 15.792 18.7373 16.044 18.9693 16.348V15.388H20.3493V22H18.9693V21.016C18.7373 21.328 18.4213 21.588 18.0213 21.796C17.6213 22.004 17.1653 22.108 16.6533 22.108C16.0853 22.108 15.5653 21.964 15.0933 21.676C14.6213 21.38 14.2453 20.972 13.9653 20.452C13.6933 19.924 13.5573 19.328 13.5573 18.664ZM18.9693 18.688C18.9693 18.232 18.8733 17.836 18.6813 17.5C18.4973 17.164 18.2533 16.908 17.9493 16.732C17.6453 16.556 17.3173 16.468 16.9653 16.468C16.6133 16.468 16.2853 16.556 15.9813 16.732C15.6773 16.9 15.4293 17.152 15.2373 17.488C15.0533 17.816 14.9613 18.208 14.9613 18.664C14.9613 19.12 15.0533 19.52 15.2373 19.864C15.4293 20.208 15.6773 20.472 15.9813 20.656C16.2933 20.832 16.6213 20.92 16.9653 20.92C17.3173 20.92 17.6453 20.832 17.9493 20.656C18.2533 20.48 18.4973 20.224 18.6813 19.888C18.8733 19.544 18.9693 19.144 18.9693 18.688ZM24.8101 15.28C25.3221 15.28 25.7741 15.384 26.1661 15.592C26.5661 15.792 26.8781 16.044 27.1021 16.348V15.388H28.4821V22.108C28.4821 22.716 28.3541 23.256 28.0981 23.728C27.8421 24.208 27.4701 24.584 26.9821 24.856C26.5021 25.128 25.9261 25.264 25.2541 25.264C24.3581 25.264 23.6141 25.052 23.0221 24.628C22.4301 24.212 22.0941 23.644 22.0141 22.924H23.3701C23.4741 23.268 23.6941 23.544 24.0301 23.752C24.3741 23.968 24.7821 24.076 25.2541 24.076C25.8061 24.076 26.2501 23.908 26.5861 23.572C26.9301 23.236 27.1021 22.748 27.1021 22.108V21.004C26.8701 21.316 26.5541 21.58 26.1541 21.796C25.7621 22.004 25.3141 22.108 24.8101 22.108C24.2341 22.108 23.7061 21.964 23.2261 21.676C22.7541 21.38 22.3781 20.972 22.0981 20.452C21.8261 19.924 21.6901 19.328 21.6901 18.664C21.6901 18 21.8261 17.412 22.0981 16.9C22.3781 16.388 22.7541 15.992 23.2261 15.712C23.7061 15.424 24.2341 15.28 24.8101 15.28ZM27.1021 18.688C27.1021 18.232 27.0061 17.836 26.8141 17.5C26.6301 17.164 26.3861 16.908 26.0821 16.732C25.7781 16.556 25.4501 16.468 25.0981 16.468C24.7461 16.468 24.4181 16.556 24.1141 16.732C23.8101 16.9 23.5621 17.152 23.3701 17.488C23.1861 17.816 23.0941 18.208 23.0941 18.664C23.0941 19.12 23.1861 19.52 23.3701 19.864C23.5621 20.208 23.8101 20.472 24.1141 20.656C24.4261 20.832 24.7541 20.92 25.0981 20.92C25.4501 20.92 25.7781 20.832 26.0821 20.656C26.3861 20.48 26.6301 20.224 26.8141 19.888C27.0061 19.544 27.1021 19.144 27.1021 18.688ZM33.1469 22.108C32.5229 22.108 31.9589 21.968 31.4549 21.688C30.9509 21.4 30.5549 21 30.2669 20.488C29.9789 19.968 29.8349 19.368 29.8349 18.688C29.8349 18.016 29.9829 17.42 30.2789 16.9C30.5749 16.38 30.9789 15.98 31.4909 15.7C32.0029 15.42 32.5749 15.28 33.2069 15.28C33.8389 15.28 34.4109 15.42 34.9229 15.7C35.4349 15.98 35.8389 16.38 36.1349 16.9C36.4309 17.42 36.5789 18.016 36.5789 18.688C36.5789 19.36 36.4269 19.956 36.1229 20.476C35.8189 20.996 35.4029 21.4 34.8749 21.688C34.3549 21.968 33.7789 22.108 33.1469 22.108ZM33.1469 20.92C33.4989 20.92 33.8269 20.836 34.1309 20.668C34.4429 20.5 34.6949 20.248 34.8869 19.912C35.0789 19.576 35.1749 19.168 35.1749 18.688C35.1749 18.208 35.0829 17.804 34.8989 17.476C34.7149 17.14 34.4709 16.888 34.1669 16.72C33.8629 16.552 33.5349 16.468 33.1829 16.468C32.8309 16.468 32.5029 16.552 32.1989 16.72C31.9029 16.888 31.6669 17.14 31.4909 17.476C31.3149 17.804 31.2269 18.208 31.2269 18.688C31.2269 19.4 31.4069 19.952 31.7669 20.344C32.1349 20.728 32.5949 20.92 33.1469 20.92ZM41.2673 15.28C41.7873 15.28 42.2513 15.388 42.6593 15.604C43.0753 15.82 43.3993 16.14 43.6313 16.564C43.8633 16.988 43.9793 17.5 43.9793 18.1V22H42.6233V18.304C42.6233 17.712 42.4753 17.26 42.1793 16.948C41.8833 16.628 41.4793 16.468 40.9673 16.468C40.4553 16.468 40.0473 16.628 39.7433 16.948C39.4473 17.26 39.2993 17.712 39.2993 18.304V22H37.9313V15.388H39.2993V16.144C39.5233 15.872 39.8073 15.66 40.1513 15.508C40.5033 15.356 40.8753 15.28 41.2673 15.28ZM51.5894 22.084C51.0294 22.084 50.5254 21.988 50.0774 21.796C49.6294 21.596 49.2774 21.316 49.0214 20.956C48.7654 20.596 48.6374 20.176 48.6374 19.696H50.1014C50.1334 20.056 50.2734 20.352 50.5214 20.584C50.7774 20.816 51.1334 20.932 51.5894 20.932C52.0614 20.932 52.4294 20.82 52.6934 20.596C52.9574 20.364 53.0894 20.068 53.0894 19.708C53.0894 19.428 53.0054 19.2 52.8374 19.024C52.6774 18.848 52.4734 18.712 52.2254 18.616C51.9854 18.52 51.6494 18.416 51.2174 18.304C50.6734 18.16 50.2294 18.016 49.8854 17.872C49.5494 17.72 49.2614 17.488 49.0214 17.176C48.7814 16.864 48.6614 16.448 48.6614 15.928C48.6614 15.448 48.7814 15.028 49.0214 14.668C49.2614 14.308 49.5974 14.032 50.0294 13.84C50.4614 13.648 50.9614 13.552 51.5294 13.552C52.3374 13.552 52.9974 13.756 53.5094 14.164C54.0294 14.564 54.3174 15.116 54.3734 15.82H52.8614C52.8374 15.516 52.6934 15.256 52.4294 15.04C52.1654 14.824 51.8174 14.716 51.3854 14.716C50.9934 14.716 50.6734 14.816 50.4254 15.016C50.1774 15.216 50.0534 15.504 50.0534 15.88C50.0534 16.136 50.1294 16.348 50.2814 16.516C50.4414 16.676 50.6414 16.804 50.8814 16.9C51.1214 16.996 51.4494 17.1 51.8654 17.212C52.4174 17.364 52.8654 17.516 53.2094 17.668C53.5614 17.82 53.8574 18.056 54.0974 18.376C54.3454 18.688 54.4694 19.108 54.4694 19.636C54.4694 20.06 54.3534 20.46 54.1214 20.836C53.8974 21.212 53.5654 21.516 53.1254 21.748C52.6934 21.972 52.1814 22.084 51.5894 22.084ZM57.4516 13.12V22H56.0836V13.12H57.4516ZM58.7917 18.664C58.7917 18 58.9277 17.412 59.1997 16.9C59.4797 16.388 59.8557 15.992 60.3277 15.712C60.8077 15.424 61.3357 15.28 61.9117 15.28C62.4317 15.28 62.8837 15.384 63.2677 15.592C63.6597 15.792 63.9717 16.044 64.2037 16.348V15.388H65.5837V22H64.2037V21.016C63.9717 21.328 63.6557 21.588 63.2557 21.796C62.8557 22.004 62.3997 22.108 61.8877 22.108C61.3197 22.108 60.7997 21.964 60.3277 21.676C59.8557 21.38 59.4797 20.972 59.1997 20.452C58.9277 19.924 58.7917 19.328 58.7917 18.664ZM64.2037 18.688C64.2037 18.232 64.1077 17.836 63.9157 17.5C63.7317 17.164 63.4877 16.908 63.1837 16.732C62.8797 16.556 62.5517 16.468 62.1997 16.468C61.8477 16.468 61.5197 16.556 61.2157 16.732C60.9117 16.9 60.6637 17.152 60.4717 17.488C60.2877 17.816 60.1957 18.208 60.1957 18.664C60.1957 19.12 60.2877 19.52 60.4717 19.864C60.6637 20.208 60.9117 20.472 61.2157 20.656C61.5277 20.832 61.8557 20.92 62.1997 20.92C62.5517 20.92 62.8797 20.832 63.1837 20.656C63.4877 20.48 63.7317 20.224 63.9157 19.888C64.1077 19.544 64.2037 19.144 64.2037 18.688ZM73.3325 15.388L69.2765 25.108H67.8605L69.2045 21.892L66.6005 15.388H68.1245L69.9845 20.428L71.9165 15.388H73.3325ZM80.4248 18.532C80.4248 18.78 80.4088 19.004 80.3768 19.204H75.3248C75.3648 19.732 75.5608 20.156 75.9128 20.476C76.2648 20.796 76.6968 20.956 77.2088 20.956C77.9448 20.956 78.4648 20.648 78.7688 20.032H80.2448C80.0448 20.64 79.6808 21.14 79.1528 21.532C78.6328 21.916 77.9848 22.108 77.2088 22.108C76.5768 22.108 76.0088 21.968 75.5048 21.688C75.0088 21.4 74.6168 21 74.3288 20.488C74.0488 19.968 73.9088 19.368 73.9088 18.688C73.9088 18.008 74.0448 17.412 74.3168 16.9C74.5968 16.38 74.9848 15.98 75.4808 15.7C75.9848 15.42 76.5608 15.28 77.2088 15.28C77.8328 15.28 78.3888 15.416 78.8768 15.688C79.3648 15.96 79.7448 16.344 80.0168 16.84C80.2888 17.328 80.4248 17.892 80.4248 18.532ZM78.9968 18.1C78.9888 17.596 78.8088 17.192 78.4568 16.888C78.1048 16.584 77.6688 16.432 77.1488 16.432C76.6768 16.432 76.2728 16.584 75.9368 16.888C75.6008 17.184 75.4008 17.588 75.3368 18.1H78.9968ZM83.1391 16.348C83.3391 16.012 83.6031 15.752 83.9311 15.568C84.2671 15.376 84.6631 15.28 85.1191 15.28V16.696H84.7711C84.2351 16.696 83.8271 16.832 83.5471 17.104C83.2751 17.376 83.1391 17.848 83.1391 18.52V22H81.7711V15.388H83.1391V16.348Z" fill="white"/>
<path d="M2.23 31.7V32.21H5.68V31.7H2.23ZM5.95 31.7V32.21H9.39V31.7H5.95ZM3.7 31.11V33.69H4.27V31.11H3.7ZM5.33 34.24V36.36H6V34.24H5.33ZM7.28 31.11V33.69H7.86V31.11H7.28ZM3.36 35.54H8V36.15H3.36V35.54ZM3.36 34.51H8V35.12H3.36V34.51ZM2.7 34.03V36.64H8.69V34.03H2.7ZM6.61 37.38L6.68 37.82C7.28 37.78 7.93 37.73 8.67 37.66V37.29C7.88 37.33 7.18 37.36 6.61 37.38ZM3.69 31.92C3.32 32.43 2.62 32.97 1.97 33.22C2.1 33.33 2.27 33.52 2.36 33.66C3.02 33.34 3.74 32.7 4.11 32.09L3.69 31.92ZM7.26 31.92C6.9 32.43 6.21 32.97 5.58 33.22C5.7 33.33 5.87 33.52 5.96 33.66C6.6 33.34 7.32 32.7 7.69 32.09L7.26 31.92ZM7.93 31.98L7.5 32.17C7.88 32.72 8.61 33.37 9.2 33.68C9.3 33.54 9.48 33.34 9.61 33.23C9.02 32.98 8.31 32.45 7.93 31.98ZM3.97 36.51C3.77 37.41 3.23 37.94 1.63 38.25C1.77 38.38 1.97 38.66 2.04 38.83C3.81 38.42 4.46 37.71 4.71 36.51H3.97ZM5.66 36.51V37.95C5.66 38.61 5.9 38.76 6.85 38.76C7.04 38.76 8.48 38.76 8.68 38.76C9.39 38.76 9.58 38.55 9.67 37.68C9.48 37.64 9.22 37.56 9.07 37.46C9.04 38.13 8.97 38.22 8.61 38.22C8.31 38.22 7.12 38.22 6.89 38.22C6.4 38.22 6.32 38.18 6.32 37.95V36.51H5.66ZM5.11 33.44C5 33.65 4.79 33.96 4.63 34.19L5.18 34.35C5.36 34.14 5.61 33.88 5.83 33.57L5.11 33.44ZM7.26 36.39C7.2 36.69 7.07 37.15 6.96 37.46L7.38 37.59C7.49 37.32 7.62 36.93 7.77 36.55L7.26 36.39ZM8.01 36.91C8.29 37.22 8.58 37.65 8.68 37.96L9.13 37.77C9.02 37.48 8.73 37.05 8.45 36.75L8.01 36.91ZM4.23 32.27L3.9 32.52C4.22 32.71 5.02 33.2 5.27 33.41L5.64 32.99C5.42 32.85 4.5 32.39 4.23 32.27ZM4.88 29.61V30.8H5.65V29.61H4.88ZM1.57 30.4V31.04H9.52V30.4H1.57ZM1.14 30.4V33.53C1.14 34.98 1.07 36.96 0.29 38.38C0.45 38.46 0.74 38.69 0.87 38.83C1.71 37.32 1.84 35.07 1.84 33.53V30.4H1.14ZM12.31 32.23H17.67V33.32H12.31V32.23ZM12.31 30.56H17.67V31.63H12.31V30.56ZM11.56 29.93V33.94H18.44V29.93H11.56ZM16.1 33.53L15.46 33.77C16.25 34.91 17.68 35.86 19.11 36.32C19.22 36.12 19.44 35.83 19.61 35.68C18.21 35.31 16.8 34.5 16.1 33.53ZM13.94 33.53C13.22 34.49 11.79 35.35 10.44 35.74C10.61 35.89 10.83 36.17 10.95 36.36C12.32 35.87 13.79 34.91 14.59 33.8L13.94 33.53ZM13.11 35.29V35.89C13.11 36.63 12.93 37.6 11.17 38.26C11.34 38.41 11.58 38.67 11.69 38.86C13.63 38.08 13.87 36.87 13.87 35.91V35.29H13.11ZM14.6 30.26V33.66H15.36V30.26H14.6ZM16.29 35.29V38.78H17.06V35.29H16.29ZM23.04 38.07C22.5733 38.07 22.1533 37.99 21.78 37.83C21.4067 37.6633 21.1133 37.43 20.9 37.13C20.6867 36.83 20.58 36.48 20.58 36.08H21.8C21.8267 36.38 21.9433 36.6267 22.15 36.82C22.3633 37.0133 22.66 37.11 23.04 37.11C23.4333 37.11 23.74 37.0167 23.96 36.83C24.18 36.6367 24.29 36.39 24.29 36.09C24.29 35.8567 24.22 35.6667 24.08 35.52C23.9467 35.3733 23.7767 35.26 23.57 35.18C23.37 35.1 23.09 35.0133 22.73 34.92C22.2767 34.8 21.9067 34.68 21.62 34.56C21.34 34.4333 21.1 34.24 20.9 33.98C20.7 33.72 20.6 33.3733 20.6 32.94C20.6 32.54 20.7 32.19 20.9 31.89C21.1 31.59 21.38 31.36 21.74 31.2C22.1 31.04 22.5167 30.96 22.99 30.96C23.6633 30.96 24.2133 31.13 24.64 31.47C25.0733 31.8033 25.3133 32.2633 25.36 32.85H24.1C24.08 32.5967 23.96 32.38 23.74 32.2C23.52 32.02 23.23 31.93 22.87 31.93C22.5433 31.93 22.2767 32.0133 22.07 32.18C21.8633 32.3467 21.76 32.5867 21.76 32.9C21.76 33.1133 21.8233 33.29 21.95 33.43C22.0833 33.5633 22.25 33.67 22.45 33.75C22.65 33.83 22.9233 33.9167 23.27 34.01C23.73 34.1367 24.1033 34.2633 24.39 34.39C24.6833 34.5167 24.93 34.7133 25.13 34.98C25.3367 35.24 25.44 35.59 25.44 36.03C25.44 36.3833 25.3433 36.7167 25.15 37.03C24.9633 37.3433 24.6867 37.5967 24.32 37.79C23.96 37.9767 23.5333 38.07 23.04 38.07ZM31.7452 32.49L28.3652 40.59H27.1852L28.3052 37.91L26.1352 32.49H27.4052L28.9552 36.69L30.5652 32.49H31.7452ZM39.2755 32.4C39.7088 32.4 40.0955 32.49 40.4355 32.67C40.7821 32.85 41.0521 33.1167 41.2455 33.47C41.4455 33.8233 41.5455 34.25 41.5455 34.75V38H40.4155V34.92C40.4155 34.4267 40.2921 34.05 40.0455 33.79C39.7988 33.5233 39.4621 33.39 39.0355 33.39C38.6088 33.39 38.2688 33.5233 38.0155 33.79C37.7688 34.05 37.6455 34.4267 37.6455 34.92V38H36.5155V34.92C36.5155 34.4267 36.3921 34.05 36.1455 33.79C35.8988 33.5233 35.5621 33.39 35.1355 33.39C34.7088 33.39 34.3688 33.5233 34.1155 33.79C33.8688 34.05 33.7455 34.4267 33.7455 34.92V38H32.6055V32.49H33.7455V33.12C33.9321 32.8933 34.1688 32.7167 34.4555 32.59C34.7421 32.4633 35.0488 32.4 35.3755 32.4C35.8155 32.4 36.2088 32.4933 36.5555 32.68C36.9021 32.8667 37.1688 33.1367 37.3555 33.49C37.5221 33.1567 37.7821 32.8933 38.1355 32.7C38.4888 32.5 38.8688 32.4 39.2755 32.4ZM44.1361 33.3C44.3294 33.0467 44.5928 32.8333 44.9261 32.66C45.2594 32.4867 45.6361 32.4 46.0561 32.4C46.5361 32.4 46.9728 32.52 47.3661 32.76C47.7661 32.9933 48.0794 33.3233 48.3061 33.75C48.5328 34.1767 48.6461 34.6667 48.6461 35.22C48.6461 35.7733 48.5328 36.27 48.3061 36.71C48.0794 37.1433 47.7661 37.4833 47.3661 37.73C46.9728 37.97 46.5361 38.09 46.0561 38.09C45.6361 38.09 45.2628 38.0067 44.9361 37.84C44.6094 37.6667 44.3428 37.4533 44.1361 37.2V40.62H42.9961V32.49H44.1361V33.3ZM47.4861 35.22C47.4861 34.84 47.4061 34.5133 47.2461 34.24C47.0928 33.96 46.8861 33.75 46.6261 33.61C46.3728 33.4633 46.0994 33.39 45.8061 33.39C45.5194 33.39 45.2461 33.4633 44.9861 33.61C44.7328 33.7567 44.5261 33.97 44.3661 34.25C44.2128 34.53 44.1361 34.86 44.1361 35.24C44.1361 35.62 44.2128 35.9533 44.3661 36.24C44.5261 36.52 44.7328 36.7333 44.9861 36.88C45.2461 37.0267 45.5194 37.1 45.8061 37.1C46.0994 37.1 46.3728 37.0267 46.6261 36.88C46.8861 36.7267 47.0928 36.5067 47.2461 36.22C47.4061 35.9333 47.4861 35.6 47.4861 35.22ZM52.6234 32.4C53.0434 32.4 53.4168 32.49 53.7434 32.67C54.0768 32.85 54.3368 33.1167 54.5234 33.47C54.7168 33.8233 54.8134 34.25 54.8134 34.75V38H53.6834V34.92C53.6834 34.4267 53.5601 34.05 53.3134 33.79C53.0668 33.5233 52.7301 33.39 52.3034 33.39C51.8768 33.39 51.5368 33.5233 51.2834 33.79C51.0368 34.05 50.9134 34.4267 50.9134 34.92V38H49.7734V30.6H50.9134V33.13C51.1068 32.8967 51.3501 32.7167 51.6434 32.59C51.9434 32.4633 52.2701 32.4 52.6234 32.4ZM58.6576 38.09C58.1376 38.09 57.6676 37.9733 57.2476 37.74C56.8276 37.5 56.4976 37.1667 56.2576 36.74C56.0176 36.3067 55.8976 35.8067 55.8976 35.24C55.8976 34.68 56.0209 34.1833 56.2676 33.75C56.5142 33.3167 56.8509 32.9833 57.2776 32.75C57.7042 32.5167 58.1809 32.4 58.7076 32.4C59.2342 32.4 59.7109 32.5167 60.1376 32.75C60.5642 32.9833 60.9009 33.3167 61.1476 33.75C61.3942 34.1833 61.5176 34.68 61.5176 35.24C61.5176 35.8 61.3909 36.2967 61.1376 36.73C60.8842 37.1633 60.5376 37.5 60.0976 37.74C59.6642 37.9733 59.1842 38.09 58.6576 38.09ZM58.6576 37.1C58.9509 37.1 59.2242 37.03 59.4776 36.89C59.7376 36.75 59.9476 36.54 60.1076 36.26C60.2676 35.98 60.3476 35.64 60.3476 35.24C60.3476 34.84 60.2709 34.5033 60.1176 34.23C59.9642 33.95 59.7609 33.74 59.5076 33.6C59.2542 33.46 58.9809 33.39 58.6876 33.39C58.3942 33.39 58.1209 33.46 57.8676 33.6C57.6209 33.74 57.4242 33.95 57.2776 34.23C57.1309 34.5033 57.0576 34.84 57.0576 35.24C57.0576 35.8333 57.2076 36.2933 57.5076 36.62C57.8142 36.94 58.1976 37.1 58.6576 37.1ZM65.4245 32.4C65.8579 32.4 66.2445 32.49 66.5845 32.67C66.9312 32.85 67.2012 33.1167 67.3945 33.47C67.5879 33.8233 67.6845 34.25 67.6845 34.75V38H66.5545V34.92C66.5545 34.4267 66.4312 34.05 66.1845 33.79C65.9379 33.5233 65.6012 33.39 65.1745 33.39C64.7479 33.39 64.4079 33.5233 64.1545 33.79C63.9079 34.05 63.7845 34.4267 63.7845 34.92V38H62.6445V32.49H63.7845V33.12C63.9712 32.8933 64.2079 32.7167 64.4945 32.59C64.7879 32.4633 65.0979 32.4 65.4245 32.4ZM74.0987 32.49L70.7187 40.59H69.5387L70.6587 37.91L68.4887 32.49H69.7587L71.3087 36.69L72.9187 32.49H74.0987Z" fill="#808080"/>
</svg>
