<svg xmlns="http://www.w3.org/2000/svg" fill="none" viewBox="0 0 40 40" height="40" width="40">
<rect fill="#191919" rx="15" height="40" width="40"></rect>
<rect fill="white" rx="2" height="5" width="7" y="12" x="11"></rect>
<rect fill="white" rx="2" height="5" width="7" y="12" x="19"></rect>
<rect fill="white" rx="2" height="5" width="7" y="18" x="22"></rect>
<path fill-opacity="0.5" fill="white" d="M14 19.75C14 18.7835 14.7835 18 15.75 18V18L16.9167 23H16C14.8954 23 14 22.1046 14 21V19.75Z"></path>
<path fill-opacity="0.5" fill="white" d="M17.5 18H19C20.1046 18 21 18.8954 21 20V21C21 22.1046 20.1046 23 19 23H18.6667L17.5 18Z"></path>
<rect fill="white" rx="2" height="4" width="4" y="24" x="13"></rect>
</svg>
