<svg xmlns="http://www.w3.org/2000/svg" fill="none" viewBox="0 0 40 40" height="40" width="40">
<rect fill="#E6E6E6" rx="15" height="40" width="40"></rect>
<path fill="black" d="M22.2269 18.1074C21.8737 17.4956 22.0833 16.7134 22.6951 16.3602V16.3602C23.3068 16.007 24.0891 16.2166 24.4423 16.8283L26.3724 20.1713C27.9689 22.9365 27.0215 26.4724 24.2563 28.0689L23.9887 28.2234C21.6404 29.5791 18.6378 28.7746 17.282 26.4263V26.4263C15.9728 24.1587 16.7497 21.259 19.0174 19.9498L19.893 19.4442C20.5004 19.0936 21.277 19.3017 21.6277 19.909V19.909C21.9783 20.5164 21.7702 21.293 21.1629 21.6437L20.1497 22.2286C19.1815 22.7876 18.8498 24.0255 19.4088 24.9937V24.9937C20.1122 26.212 21.67 26.6295 22.8884 25.9261L23.0213 25.8493C24.5437 24.9704 25.0653 23.0237 24.1863 21.5013L22.2269 18.1074Z"></path>
<path fill="black" d="M12.3717 17.9215C12.0211 17.3141 12.2292 16.5375 12.8365 16.1869L20.1634 11.9567C20.7707 11.606 21.5474 11.8141 21.898 12.4215V12.4215C22.2487 13.0288 22.0406 13.8055 21.4332 14.1561L14.1064 18.3863C13.499 18.7369 12.7224 18.5288 12.3717 17.9215V17.9215Z"></path>
</svg>
