<svg xmlns="http://www.w3.org/2000/svg" fill="none" viewBox="0 0 130 30" height="30" width="130">
<rect fill-opacity="0.25" fill="black" rx="15" height="30" width="130"></rect>
<path fill="white" d="M19.7522 17.296H16.2602L15.6602 19H14.2322L17.2202 10.648H18.8042L21.7922 19H20.3522L19.7522 17.296ZM19.3682 16.18L18.0122 12.304L16.6442 16.18H19.3682ZM26.4274 12.28C26.9474 12.28 27.4114 12.388 27.8194 12.604C28.2354 12.82 28.5594 13.14 28.7914 13.564C29.0234 13.988 29.1394 14.5 29.1394 15.1V19H27.7834V15.304C27.7834 14.712 27.6354 14.26 27.3394 13.948C27.0434 13.628 26.6394 13.468 26.1274 13.468C25.6154 13.468 25.2074 13.628 24.9034 13.948C24.6074 14.26 24.4594 14.712 24.4594 15.304V19H23.0914V12.388H24.4594V13.144C24.6834 12.872 24.9674 12.66 25.3114 12.508C25.6634 12.356 26.0354 12.28 26.4274 12.28ZM31.5804 11.512C31.3324 11.512 31.1244 11.428 30.9564 11.26C30.7884 11.092 30.7044 10.884 30.7044 10.636C30.7044 10.388 30.7884 10.18 30.9564 10.012C31.1244 9.844 31.3324 9.76 31.5804 9.76C31.8204 9.76 32.0244 9.844 32.1924 10.012C32.3604 10.18 32.4444 10.388 32.4444 10.636C32.4444 10.884 32.3604 11.092 32.1924 11.26C32.0244 11.428 31.8204 11.512 31.5804 11.512ZM32.2524 12.388V19H30.8844V12.388H32.2524ZM42.0524 12.28C42.5724 12.28 43.0364 12.388 43.4444 12.604C43.8604 12.82 44.1844 13.14 44.4164 13.564C44.6564 13.988 44.7764 14.5 44.7764 15.1V19H43.4204V15.304C43.4204 14.712 43.2724 14.26 42.9764 13.948C42.6804 13.628 42.2764 13.468 41.7644 13.468C41.2524 13.468 40.8444 13.628 40.5404 13.948C40.2444 14.26 40.0964 14.712 40.0964 15.304V19H38.7404V15.304C38.7404 14.712 38.5924 14.26 38.2964 13.948C38.0004 13.628 37.5964 13.468 37.0844 13.468C36.5724 13.468 36.1644 13.628 35.8604 13.948C35.5644 14.26 35.4164 14.712 35.4164 15.304V19H34.0484V12.388H35.4164V13.144C35.6404 12.872 35.9244 12.66 36.2684 12.508C36.6124 12.356 36.9804 12.28 37.3724 12.28C37.9004 12.28 38.3724 12.392 38.7884 12.616C39.2044 12.84 39.5244 13.164 39.7484 13.588C39.9484 13.188 40.2604 12.872 40.6844 12.64C41.1084 12.4 41.5644 12.28 42.0524 12.28ZM46.0612 15.664C46.0612 15 46.1972 14.412 46.4692 13.9C46.7492 13.388 47.1252 12.992 47.5972 12.712C48.0772 12.424 48.6052 12.28 49.1812 12.28C49.7012 12.28 50.1532 12.384 50.5372 12.592C50.9292 12.792 51.2412 13.044 51.4732 13.348V12.388H52.8532V19H51.4732V18.016C51.2412 18.328 50.9252 18.588 50.5252 18.796C50.1252 19.004 49.6692 19.108 49.1572 19.108C48.5892 19.108 48.0692 18.964 47.5972 18.676C47.1252 18.38 46.7492 17.972 46.4692 17.452C46.1972 16.924 46.0612 16.328 46.0612 15.664ZM51.4732 15.688C51.4732 15.232 51.3772 14.836 51.1852 14.5C51.0012 14.164 50.7572 13.908 50.4532 13.732C50.1492 13.556 49.8212 13.468 49.4692 13.468C49.1172 13.468 48.7892 13.556 48.4852 13.732C48.1812 13.9 47.9332 14.152 47.7412 14.488C47.5572 14.816 47.4652 15.208 47.4652 15.664C47.4652 16.12 47.5572 16.52 47.7412 16.864C47.9332 17.208 48.1812 17.472 48.4852 17.656C48.7972 17.832 49.1252 17.92 49.4692 17.92C49.8212 17.92 50.1492 17.832 50.4532 17.656C50.7572 17.48 51.0012 17.224 51.1852 16.888C51.3772 16.544 51.4732 16.144 51.4732 15.688ZM56.246 13.504V17.164C56.246 17.412 56.302 17.592 56.414 17.704C56.534 17.808 56.734 17.86 57.014 17.86H57.854V19H56.774C56.158 19 55.686 18.856 55.358 18.568C55.03 18.28 54.866 17.812 54.866 17.164V13.504H54.086V12.388H54.866V10.744H56.246V12.388H57.854V13.504H56.246ZM65.1748 15.532C65.1748 15.78 65.1588 16.004 65.1268 16.204H60.0748C60.1148 16.732 60.3108 17.156 60.6628 17.476C61.0148 17.796 61.4468 17.956 61.9588 17.956C62.6948 17.956 63.2148 17.648 63.5188 17.032H64.9948C64.7948 17.64 64.4308 18.14 63.9028 18.532C63.3828 18.916 62.7348 19.108 61.9588 19.108C61.3268 19.108 60.7588 18.968 60.2548 18.688C59.7588 18.4 59.3668 18 59.0788 17.488C58.7988 16.968 58.6588 16.368 58.6588 15.688C58.6588 15.008 58.7948 14.412 59.0668 13.9C59.3468 13.38 59.7348 12.98 60.2308 12.7C60.7348 12.42 61.3108 12.28 61.9588 12.28C62.5828 12.28 63.1388 12.416 63.6268 12.688C64.1148 12.96 64.4948 13.344 64.7668 13.84C65.0388 14.328 65.1748 14.892 65.1748 15.532ZM63.7468 15.1C63.7388 14.596 63.5588 14.192 63.2068 13.888C62.8548 13.584 62.4188 13.432 61.8988 13.432C61.4268 13.432 61.0228 13.584 60.6868 13.888C60.3508 14.184 60.1508 14.588 60.0868 15.1H63.7468ZM66.0651 15.664C66.0651 15 66.2011 14.412 66.4731 13.9C66.7531 13.388 67.1291 12.992 67.6011 12.712C68.0811 12.424 68.6131 12.28 69.1971 12.28C69.6291 12.28 70.0531 12.376 70.4691 12.568C70.8931 12.752 71.2291 13 71.4771 13.312V10.12H72.8571V19H71.4771V18.004C71.2531 18.324 70.9411 18.588 70.5411 18.796C70.1491 19.004 69.6971 19.108 69.1851 19.108C68.6091 19.108 68.0811 18.964 67.6011 18.676C67.1291 18.38 66.7531 17.972 66.4731 17.452C66.2011 16.924 66.0651 16.328 66.0651 15.664ZM71.4771 15.688C71.4771 15.232 71.3811 14.836 71.1891 14.5C71.0051 14.164 70.7611 13.908 70.4571 13.732C70.1531 13.556 69.8251 13.468 69.4731 13.468C69.1211 13.468 68.7931 13.556 68.4891 13.732C68.1851 13.9 67.9371 14.152 67.7451 14.488C67.5611 14.816 67.4691 15.208 67.4691 15.664C67.4691 16.12 67.5611 16.52 67.7451 16.864C67.9371 17.208 68.1851 17.472 68.4891 17.656C68.8011 17.832 69.1291 17.92 69.4731 17.92C69.8251 17.92 70.1531 17.832 70.4571 17.656C70.7611 17.48 71.0051 17.224 71.1891 16.888C71.3811 16.544 71.4771 16.144 71.4771 15.688ZM79.1391 10.66V19H77.7711V10.66H79.1391ZM88.9392 12.28C89.4592 12.28 89.9232 12.388 90.3312 12.604C90.7472 12.82 91.0712 13.14 91.3032 13.564C91.5432 13.988 91.6632 14.5 91.6632 15.1V19H90.3072V15.304C90.3072 14.712 90.1592 14.26 89.8632 13.948C89.5672 13.628 89.1632 13.468 88.6512 13.468C88.1392 13.468 87.7312 13.628 87.4272 13.948C87.1312 14.26 86.9832 14.712 86.9832 15.304V19H85.6272V15.304C85.6272 14.712 85.4792 14.26 85.1832 13.948C84.8872 13.628 84.4832 13.468 83.9712 13.468C83.4592 13.468 83.0512 13.628 82.7472 13.948C82.4512 14.26 82.3032 14.712 82.3032 15.304V19H80.9352V12.388H82.3032V13.144C82.5272 12.872 82.8112 12.66 83.1552 12.508C83.4992 12.356 83.8672 12.28 84.2592 12.28C84.7872 12.28 85.2592 12.392 85.6752 12.616C86.0912 12.84 86.4112 13.164 86.6352 13.588C86.8352 13.188 87.1472 12.872 87.5712 12.64C87.9952 12.4 88.4512 12.28 88.9392 12.28ZM92.9479 15.664C92.9479 15 93.0839 14.412 93.3559 13.9C93.6359 13.388 94.0119 12.992 94.4839 12.712C94.9639 12.424 95.4919 12.28 96.0679 12.28C96.5879 12.28 97.0399 12.384 97.4239 12.592C97.8159 12.792 98.1279 13.044 98.3599 13.348V12.388H99.7399V19H98.3599V18.016C98.1279 18.328 97.8119 18.588 97.4119 18.796C97.0119 19.004 96.5559 19.108 96.0439 19.108C95.4759 19.108 94.9559 18.964 94.4839 18.676C94.0119 18.38 93.6359 17.972 93.3559 17.452C93.0839 16.924 92.9479 16.328 92.9479 15.664ZM98.3599 15.688C98.3599 15.232 98.2639 14.836 98.0719 14.5C97.8879 14.164 97.6439 13.908 97.3399 13.732C97.0359 13.556 96.7079 13.468 96.3559 13.468C96.0039 13.468 95.6759 13.556 95.3719 13.732C95.0679 13.9 94.8199 14.152 94.6279 14.488C94.4439 14.816 94.3519 15.208 94.3519 15.664C94.3519 16.12 94.4439 16.52 94.6279 16.864C94.8199 17.208 95.0679 17.472 95.3719 17.656C95.6839 17.832 96.0119 17.92 96.3559 17.92C96.7079 17.92 97.0359 17.832 97.3399 17.656C97.6439 17.48 97.8879 17.224 98.0719 16.888C98.2639 16.544 98.3599 16.144 98.3599 15.688ZM104.201 12.28C104.713 12.28 105.165 12.384 105.557 12.592C105.957 12.792 106.269 13.044 106.493 13.348V12.388H107.873V19.108C107.873 19.716 107.745 20.256 107.489 20.728C107.233 21.208 106.861 21.584 106.373 21.856C105.893 22.128 105.317 22.264 104.645 22.264C103.749 22.264 103.005 22.052 102.413 21.628C101.821 21.212 101.485 20.644 101.405 19.924H102.761C102.865 20.268 103.085 20.544 103.421 20.752C103.765 20.968 104.173 21.076 104.645 21.076C105.197 21.076 105.641 20.908 105.977 20.572C106.321 20.236 106.493 19.748 106.493 19.108V18.004C106.261 18.316 105.945 18.58 105.545 18.796C105.153 19.004 104.705 19.108 104.201 19.108C103.625 19.108 103.097 18.964 102.617 18.676C102.145 18.38 101.769 17.972 101.489 17.452C101.217 16.924 101.081 16.328 101.081 15.664C101.081 15 101.217 14.412 101.489 13.9C101.769 13.388 102.145 12.992 102.617 12.712C103.097 12.424 103.625 12.28 104.201 12.28ZM106.493 15.688C106.493 15.232 106.397 14.836 106.205 14.5C106.021 14.164 105.777 13.908 105.473 13.732C105.169 13.556 104.841 13.468 104.489 13.468C104.137 13.468 103.809 13.556 103.505 13.732C103.201 13.9 102.953 14.152 102.761 14.488C102.577 14.816 102.485 15.208 102.485 15.664C102.485 16.12 102.577 16.52 102.761 16.864C102.953 17.208 103.201 17.472 103.505 17.656C103.817 17.832 104.145 17.92 104.489 17.92C104.841 17.92 105.169 17.832 105.473 17.656C105.777 17.48 106.021 17.224 106.205 16.888C106.397 16.544 106.493 16.144 106.493 15.688ZM115.73 15.532C115.73 15.78 115.714 16.004 115.682 16.204H110.63C110.67 16.732 110.866 17.156 111.218 17.476C111.57 17.796 112.002 17.956 112.514 17.956C113.25 17.956 113.77 17.648 114.074 17.032H115.55C115.35 17.64 114.986 18.14 114.458 18.532C113.938 18.916 113.29 19.108 112.514 19.108C111.882 19.108 111.314 18.968 110.81 18.688C110.314 18.4 109.922 18 109.634 17.488C109.354 16.968 109.214 16.368 109.214 15.688C109.214 15.008 109.35 14.412 109.622 13.9C109.902 13.38 110.29 12.98 110.786 12.7C111.29 12.42 111.866 12.28 112.514 12.28C113.138 12.28 113.694 12.416 114.182 12.688C114.67 12.96 115.05 13.344 115.322 13.84C115.594 14.328 115.73 14.892 115.73 15.532ZM114.302 15.1C114.294 14.596 114.114 14.192 113.762 13.888C113.41 13.584 112.974 13.432 112.454 13.432C111.982 13.432 111.578 13.584 111.242 13.888C110.906 14.184 110.706 14.588 110.642 15.1H114.302Z"></path>
</svg>
