<svg width="240" height="50" viewBox="0 0 240 50" fill="none" xmlns="http://www.w3.org/2000/svg">
<path d="M7.56 13.66V22H6.192V18.352H2.268V22H0.9V13.66H2.268V17.236H6.192V13.66H7.56ZM12.2289 22.108C11.6049 22.108 11.0409 21.968 10.5369 21.688C10.0329 21.4 9.63694 21 9.34894 20.488C9.06094 19.968 8.91694 19.368 8.91694 18.688C8.91694 18.016 9.06494 17.42 9.36094 16.9C9.65694 16.38 10.0609 15.98 10.5729 15.7C11.0849 15.42 11.6569 15.28 12.2889 15.28C12.9209 15.28 13.4929 15.42 14.0049 15.7C14.5169 15.98 14.9209 16.38 15.2169 16.9C15.5129 17.42 15.6609 18.016 15.6609 18.688C15.6609 19.36 15.5089 19.956 15.2049 20.476C14.9009 20.996 14.4849 21.4 13.9569 21.688C13.4369 21.968 12.8609 22.108 12.2289 22.108ZM12.2289 20.92C12.5809 20.92 12.9089 20.836 13.2129 20.668C13.5249 20.5 13.7769 20.248 13.9689 19.912C14.1609 19.576 14.2569 19.168 14.2569 18.688C14.2569 18.208 14.1649 17.804 13.9809 17.476C13.7969 17.14 13.5529 16.888 13.2489 16.72C12.9449 16.552 12.6169 16.468 12.2649 16.468C11.9129 16.468 11.5849 16.552 11.2809 16.72C10.9849 16.888 10.7489 17.14 10.5729 17.476C10.3969 17.804 10.3089 18.208 10.3089 18.688C10.3089 19.4 10.4889 19.952 10.8489 20.344C11.2169 20.728 11.6769 20.92 12.2289 20.92ZM25.0173 15.28C25.5373 15.28 26.0013 15.388 26.4093 15.604C26.8253 15.82 27.1493 16.14 27.3813 16.564C27.6213 16.988 27.7413 17.5 27.7413 18.1V22H26.3853V18.304C26.3853 17.712 26.2373 17.26 25.9413 16.948C25.6453 16.628 25.2413 16.468 24.7293 16.468C24.2173 16.468 23.8093 16.628 23.5053 16.948C23.2093 17.26 23.0613 17.712 23.0613 18.304V22H21.7053V18.304C21.7053 17.712 21.5573 17.26 21.2613 16.948C20.9653 16.628 20.5613 16.468 20.0493 16.468C19.5373 16.468 19.1293 16.628 18.8253 16.948C18.5293 17.26 18.3813 17.712 18.3813 18.304V22H17.0133V15.388H18.3813V16.144C18.6053 15.872 18.8893 15.66 19.2333 15.508C19.5773 15.356 19.9453 15.28 20.3373 15.28C20.8653 15.28 21.3373 15.392 21.7533 15.616C22.1693 15.84 22.4893 16.164 22.7133 16.588C22.9133 16.188 23.2253 15.872 23.6493 15.64C24.0733 15.4 24.5293 15.28 25.0173 15.28ZM35.542 18.532C35.542 18.78 35.526 19.004 35.494 19.204H30.442C30.482 19.732 30.678 20.156 31.03 20.476C31.382 20.796 31.814 20.956 32.326 20.956C33.062 20.956 33.582 20.648 33.886 20.032H35.362C35.162 20.64 34.798 21.14 34.27 21.532C33.75 21.916 33.102 22.108 32.326 22.108C31.694 22.108 31.126 21.968 30.622 21.688C30.126 21.4 29.734 21 29.446 20.488C29.166 19.968 29.026 19.368 29.026 18.688C29.026 18.008 29.162 17.412 29.434 16.9C29.714 16.38 30.102 15.98 30.598 15.7C31.102 15.42 31.678 15.28 32.326 15.28C32.95 15.28 33.506 15.416 33.994 15.688C34.482 15.96 34.862 16.344 35.134 16.84C35.406 17.328 35.542 17.892 35.542 18.532ZM34.114 18.1C34.106 17.596 33.926 17.192 33.574 16.888C33.222 16.584 32.786 16.432 32.266 16.432C31.794 16.432 31.39 16.584 31.054 16.888C30.718 17.184 30.518 17.588 30.454 18.1H34.114Z" fill="white"/>
<path d="M1.89 31.05V38H0.75V31.05H1.89ZM5.56672 35.25L8.10672 38H6.56672L4.52672 35.63V38H3.38672V30.6H4.52672V34.9L6.52672 32.49H8.10672L5.56672 35.25ZM10.9238 38.09C10.4905 38.09 10.1005 38.0133 9.75383 37.86C9.41383 37.7 9.14383 37.4867 8.94383 37.22C8.74383 36.9467 8.63716 36.6433 8.62383 36.31H9.80383C9.82383 36.5433 9.93383 36.74 10.1338 36.9C10.3405 37.0533 10.5972 37.13 10.9038 37.13C11.2238 37.13 11.4705 37.07 11.6438 36.95C11.8238 36.8233 11.9138 36.6633 11.9138 36.47C11.9138 36.2633 11.8138 36.11 11.6138 36.01C11.4205 35.91 11.1105 35.8 10.6838 35.68C10.2705 35.5667 9.93383 35.4567 9.67383 35.35C9.41383 35.2433 9.18716 35.08 8.99383 34.86C8.80716 34.64 8.71383 34.35 8.71383 33.99C8.71383 33.6967 8.80049 33.43 8.97383 33.19C9.14716 32.9433 9.39383 32.75 9.71383 32.61C10.0405 32.47 10.4138 32.4 10.8338 32.4C11.4605 32.4 11.9638 32.56 12.3438 32.88C12.7305 33.1933 12.9372 33.6233 12.9638 34.17H11.8238C11.8038 33.9233 11.7038 33.7267 11.5238 33.58C11.3438 33.4333 11.1005 33.36 10.7938 33.36C10.4938 33.36 10.2638 33.4167 10.1038 33.53C9.94383 33.6433 9.86383 33.7933 9.86383 33.98C9.86383 34.1267 9.91716 34.25 10.0238 34.35C10.1305 34.45 10.2605 34.53 10.4138 34.59C10.5672 34.6433 10.7938 34.7133 11.0938 34.8C11.4938 34.9067 11.8205 35.0167 12.0738 35.13C12.3338 35.2367 12.5572 35.3967 12.7438 35.61C12.9305 35.8233 13.0272 36.1067 13.0338 36.46C13.0338 36.7733 12.9472 37.0533 12.7738 37.3C12.6005 37.5467 12.3538 37.74 12.0338 37.88C11.7205 38.02 11.3505 38.09 10.9238 38.09ZM16.6556 38.09C16.1356 38.09 15.6656 37.9733 15.2456 37.74C14.8256 37.5 14.4956 37.1667 14.2556 36.74C14.0156 36.3067 13.8956 35.8067 13.8956 35.24C13.8956 34.68 14.019 34.1833 14.2656 33.75C14.5123 33.3167 14.849 32.9833 15.2756 32.75C15.7023 32.5167 16.179 32.4 16.7056 32.4C17.2323 32.4 17.709 32.5167 18.1356 32.75C18.5623 32.9833 18.899 33.3167 19.1456 33.75C19.3923 34.1833 19.5156 34.68 19.5156 35.24C19.5156 35.8 19.389 36.2967 19.1356 36.73C18.8823 37.1633 18.5356 37.5 18.0956 37.74C17.6623 37.9733 17.1823 38.09 16.6556 38.09ZM16.6556 37.1C16.949 37.1 17.2223 37.03 17.4756 36.89C17.7356 36.75 17.9456 36.54 18.1056 36.26C18.2656 35.98 18.3456 35.64 18.3456 35.24C18.3456 34.84 18.269 34.5033 18.1156 34.23C17.9623 33.95 17.759 33.74 17.5056 33.6C17.2523 33.46 16.979 33.39 16.6856 33.39C16.3923 33.39 16.119 33.46 15.8656 33.6C15.619 33.74 15.4223 33.95 15.2756 34.23C15.129 34.5033 15.0556 34.84 15.0556 35.24C15.0556 35.8333 15.2056 36.2933 15.5056 36.62C15.8123 36.94 16.1956 37.1 16.6556 37.1ZM23.4226 32.4C23.8559 32.4 24.2426 32.49 24.5826 32.67C24.9292 32.85 25.1992 33.1167 25.3926 33.47C25.5859 33.8233 25.6826 34.25 25.6826 34.75V38H24.5526V34.92C24.5526 34.4267 24.4292 34.05 24.1826 33.79C23.9359 33.5233 23.5992 33.39 23.1726 33.39C22.7459 33.39 22.4059 33.5233 22.1526 33.79C21.9059 34.05 21.7826 34.4267 21.7826 34.92V38H20.6426V32.49H21.7826V33.12C21.9692 32.8933 22.2059 32.7167 22.4926 32.59C22.7859 32.4633 23.0959 32.4 23.4226 32.4Z" fill="#808080"/>
</svg>
