<svg xmlns="http://www.w3.org/2000/svg" fill="none" viewBox="0 0 60 80" height="80" width="60">
<path fill="#FF58FF" d="M30.4566 52C28.6566 52 27.0606 51.628 25.6686 50.884C24.2766 50.116 23.1846 49.084 22.3926 47.788C21.6006 46.468 21.2046 44.992 21.2046 43.36C21.2046 42.808 21.3606 42.364 21.6726 42.028C22.0086 41.668 22.4046 41.488 22.8606 41.488C23.3406 41.488 23.7366 41.668 24.0486 42.028C24.3606 42.364 24.5166 42.808 24.5166 43.36C24.5166 44.344 24.7686 45.256 25.2726 46.096C25.7766 46.912 26.4606 47.572 27.3246 48.076C28.1886 48.556 29.1606 48.796 30.2406 48.796C31.8246 48.796 33.0966 48.364 34.0566 47.5C35.0406 46.612 35.5326 45.376 35.5326 43.792C35.5326 42.784 35.3166 41.884 34.8846 41.092C34.4526 40.276 33.8646 39.628 33.1206 39.148C32.3766 38.668 31.5366 38.428 30.6006 38.428C30.0726 38.428 29.6286 38.248 29.2686 37.888C28.9326 37.528 28.7646 37.084 28.7646 36.556C28.7646 36.028 28.9326 35.596 29.2686 35.26C29.6286 34.9 30.0726 34.72 30.6006 34.72C31.2726 34.72 31.9206 34.552 32.5446 34.216C33.1686 33.856 33.6846 33.388 34.0926 32.812C34.5006 32.212 34.7046 31.54 34.7046 30.796C34.7046 29.74 34.3206 28.852 33.5526 28.132C32.7846 27.412 31.8006 27.052 30.6006 27.052C29.6886 27.052 28.8486 27.232 28.0806 27.592C27.3366 27.952 26.7366 28.432 26.2806 29.032C25.8486 29.632 25.6326 30.304 25.6326 31.048C25.6326 31.6 25.4766 32.068 25.1646 32.452C24.8526 32.812 24.4566 32.992 23.9766 32.992C23.5206 32.992 23.1246 32.824 22.7886 32.488C22.4766 32.128 22.3206 31.684 22.3206 31.156C22.3206 29.764 22.6806 28.516 23.4006 27.412C24.1206 26.308 25.1046 25.444 26.3526 24.82C27.6006 24.172 28.9926 23.848 30.5286 23.848C31.9446 23.848 33.2166 24.16 34.3446 24.784C35.4966 25.384 36.3966 26.212 37.0446 27.268C37.7166 28.3 38.0526 29.476 38.0526 30.796C38.0526 31.732 37.8366 32.56 37.4046 33.28C36.9966 34 36.4686 34.624 35.8206 35.152C35.1726 35.656 34.4886 36.076 33.7686 36.412C35.0406 36.844 36.0726 37.432 36.8646 38.176C37.6566 38.896 38.2326 39.736 38.5926 40.696C38.9766 41.656 39.1686 42.7 39.1686 43.828C39.1686 45.388 38.7726 46.792 37.9806 48.04C37.1886 49.264 36.1326 50.236 34.8126 50.956C33.4926 51.652 32.0406 52 30.4566 52Z"></path>
<path fill="#FF59FF" d="M25.6686 50.884L25.1855 51.7597L25.1972 51.7659L25.6686 50.884ZM22.3926 47.788L21.5351 48.3025L21.5393 48.3094L22.3926 47.788ZM21.6726 42.028L20.9416 41.3457L20.9398 41.3475L21.6726 42.028ZM24.0486 42.028L23.2929 42.6829C23.3004 42.6916 23.308 42.7001 23.3158 42.7085L24.0486 42.028ZM25.2726 46.096L24.415 46.6105L24.4218 46.6215L25.2726 46.096ZM27.3246 48.076L26.8207 48.9398C26.8268 48.9433 26.8329 48.9468 26.839 48.9502L27.3246 48.076ZM34.0566 47.5L34.7256 48.2433L34.7266 48.2424L34.0566 47.5ZM34.8846 41.092L34.0008 41.5599L34.0067 41.5709L34.8846 41.092ZM33.1206 39.148L33.6627 38.3077L33.6627 38.3077L33.1206 39.148ZM29.2686 37.888L28.5376 38.5703C28.5454 38.5787 28.5534 38.587 28.5615 38.5951L29.2686 37.888ZM32.5446 34.216L33.0187 35.0965C33.0273 35.0918 33.0359 35.0871 33.0443 35.0822L32.5446 34.216ZM34.0926 32.812L34.9086 33.39C34.9123 33.3848 34.916 33.3796 34.9195 33.3743L34.0926 32.812ZM33.5526 28.132L34.2366 27.4025L34.2366 27.4025L33.5526 28.132ZM28.0806 27.592L27.6561 26.6865L27.645 26.6918L28.0806 27.592ZM26.2806 29.032L25.4844 28.4269C25.4792 28.4338 25.4741 28.4407 25.4691 28.4477L26.2806 29.032ZM25.1646 32.452L25.9203 33.1069C25.9272 33.0989 25.934 33.0908 25.9407 33.0826L25.1646 32.452ZM22.7886 32.488L22.0329 33.1429C22.0485 33.1609 22.0647 33.1783 22.0815 33.1951L22.7886 32.488ZM23.4006 27.412L22.563 26.8657L22.563 26.8657L23.4006 27.412ZM26.3526 24.82L26.7998 25.7144C26.8044 25.7121 26.8089 25.7098 26.8134 25.7075L26.3526 24.82ZM34.3446 24.784L33.8605 25.659C33.8679 25.6631 33.8753 25.667 33.8827 25.6709L34.3446 24.784ZM37.0446 27.268L36.1923 27.791C36.197 27.7986 36.2017 27.8062 36.2066 27.8137L37.0446 27.268ZM37.4046 33.28L36.5471 32.7655C36.5429 32.7726 36.5387 32.7798 36.5346 32.787L37.4046 33.28ZM35.8206 35.152L36.4346 35.9414C36.4405 35.9367 36.4464 35.932 36.4523 35.9272L35.8206 35.152ZM33.7686 36.412L33.3457 35.5058C32.9757 35.6785 32.7478 36.0588 32.7701 36.4666C32.7924 36.8743 33.0604 37.2276 33.447 37.3589L33.7686 36.412ZM36.8646 38.176L36.1799 38.9048C36.1839 38.9086 36.1879 38.9123 36.1919 38.9159L36.8646 38.176ZM38.5926 40.696L37.6563 41.0471C37.6588 41.0539 37.6614 41.0607 37.6641 41.0674L38.5926 40.696ZM37.9806 48.04L38.8202 48.5833L38.8249 48.5758L37.9806 48.04ZM34.8126 50.956L35.2791 51.8407L35.2915 51.8339L34.8126 50.956ZM30.4566 51C28.7977 51 27.3677 50.6583 26.14 50.0021L25.1972 51.7659C26.7535 52.5977 28.5155 53 30.4566 53V51ZM26.1517 50.0084C24.9044 49.3202 23.943 48.4073 23.2459 47.2665L21.5393 48.3094C22.4262 49.7607 23.6489 50.9118 25.1855 51.7596L26.1517 50.0084ZM23.2501 47.2735C22.557 46.1184 22.2046 44.8221 22.2046 43.36H20.2046C20.2046 45.1619 20.6442 46.8176 21.5351 48.3025L23.2501 47.2735ZM22.2046 43.36C22.2046 43.006 22.2989 42.8231 22.4054 42.7085L20.9398 41.3475C20.4223 41.9049 20.2046 42.61 20.2046 43.36H22.2046ZM22.4037 42.7103C22.5674 42.5349 22.7056 42.488 22.8606 42.488V40.488C22.1036 40.488 21.4498 40.8011 20.9416 41.3457L22.4037 42.7103ZM22.8606 42.488C23.0531 42.488 23.1725 42.544 23.2929 42.6829L24.8043 41.3731C24.3007 40.792 23.6281 40.488 22.8606 40.488V42.488ZM23.3158 42.7085C23.4223 42.8231 23.5166 43.006 23.5166 43.36H25.5166C25.5166 42.61 25.2989 41.9049 24.7814 41.3475L23.3158 42.7085ZM23.5166 43.36C23.5166 44.5244 23.8174 45.6143 24.4151 46.6105L26.1301 45.5815C25.7198 44.8977 25.5166 44.1636 25.5166 43.36H23.5166ZM24.4218 46.6215C25.0157 47.5831 25.8214 48.3568 26.8207 48.9398L27.8285 47.2122C27.0998 46.7872 26.5375 46.2409 26.1234 45.5705L24.4218 46.6215ZM26.839 48.9502C27.865 49.5202 29.0068 49.796 30.2406 49.796V47.796C29.3144 47.796 28.5122 47.5918 27.8103 47.2018L26.839 48.9502ZM30.2406 49.796C32.0131 49.796 33.5427 49.3079 34.7256 48.2433L33.3876 46.7567C32.6506 47.4201 31.6361 47.796 30.2406 47.796V49.796ZM34.7266 48.2424C35.9615 47.1279 36.5326 45.5989 36.5326 43.792H34.5326C34.5326 45.1531 34.1197 46.0961 33.3866 46.7576L34.7266 48.2424ZM36.5326 43.792C36.5326 42.6367 36.2837 41.5686 35.7625 40.6131L34.0067 41.5709C34.3495 42.1994 34.5326 42.9313 34.5326 43.792H36.5326ZM35.7684 40.6241C35.2598 39.6635 34.5569 38.8846 33.6627 38.3077L32.5785 39.9883C33.1723 40.3714 33.6454 40.8885 34.0008 41.5599L35.7684 40.6241ZM33.6627 38.3077C32.7477 37.7174 31.7174 37.428 30.6006 37.428V39.428C31.3558 39.428 32.0055 39.6186 32.5785 39.9883L33.6627 38.3077ZM30.6006 37.428C30.3268 37.428 30.1406 37.3457 29.9757 37.1809L28.5615 38.5951C29.1167 39.1503 29.8184 39.428 30.6006 39.428V37.428ZM29.9997 37.2057C29.8497 37.045 29.7646 36.8507 29.7646 36.556H27.7646C27.7646 37.3173 28.0155 38.011 28.5376 38.5703L29.9997 37.2057ZM29.7646 36.556C29.7646 36.2609 29.8489 36.0939 29.9757 35.9671L28.5615 34.5529C28.0163 35.0981 27.7646 35.7951 27.7646 36.556H29.7646ZM29.9757 35.9671C30.1406 35.8023 30.3268 35.72 30.6006 35.72V33.72C29.8184 33.72 29.1167 33.9977 28.5615 34.5529L29.9757 35.9671ZM30.6006 35.72C31.4472 35.72 32.2572 35.5065 33.0187 35.0965L32.0705 33.3355C31.584 33.5975 31.098 33.72 30.6006 33.72V35.72ZM33.0443 35.0822C33.7907 34.6516 34.4155 34.0862 34.9086 33.39L33.2766 32.234C32.9537 32.6898 32.5466 33.0604 32.0449 33.3498L33.0443 35.0822ZM34.9195 33.3743C35.4433 32.604 35.7046 31.7351 35.7046 30.796H33.7046C33.7046 31.3449 33.5579 31.82 33.2657 32.2497L34.9195 33.3743ZM35.7046 30.796C35.7046 29.4646 35.2069 28.3122 34.2366 27.4025L32.8687 28.8615C33.4343 29.3918 33.7046 30.0154 33.7046 30.796H35.7046ZM34.2366 27.4025C33.2571 26.4842 32.0164 26.052 30.6006 26.052V28.052C31.5848 28.052 32.3122 28.3398 32.8687 28.8615L34.2366 27.4025ZM30.6006 26.052C29.5531 26.052 28.5668 26.2597 27.6562 26.6865L28.505 28.4975C29.1304 28.2043 29.8241 28.052 30.6006 28.052V26.052ZM27.645 26.6918C26.7732 27.1137 26.0447 27.6897 25.4844 28.4269L27.0768 29.6371C27.4285 29.1742 27.9 28.7903 28.5162 28.4922L27.645 26.6918ZM25.4691 28.4477C24.9137 29.219 24.6326 30.0957 24.6326 31.048H26.6326C26.6326 30.5123 26.7835 30.045 27.0921 29.6163L25.4691 28.4477ZM24.6326 31.048C24.6326 31.3985 24.5388 31.6364 24.3885 31.8214L25.9407 33.0826C26.4144 32.4996 26.6326 31.8015 26.6326 31.048H24.6326ZM24.4089 31.7971C24.2885 31.936 24.1691 31.992 23.9766 31.992V33.992C24.7441 33.992 25.4167 33.688 25.9203 33.1069L24.4089 31.7971ZM23.9766 31.992C23.798 31.992 23.653 31.9382 23.4957 31.7809L22.0815 33.1951C22.5962 33.7098 23.2432 33.992 23.9766 33.992V31.992ZM23.5443 31.8331C23.4073 31.675 23.3206 31.4714 23.3206 31.156H21.3206C21.3206 31.8966 21.5459 32.581 22.0329 33.1429L23.5443 31.8331ZM23.3206 31.156C23.3206 29.9465 23.6303 28.8905 24.2382 27.9583L22.563 26.8657C21.731 28.1415 21.3206 29.5815 21.3206 31.156H23.3206ZM24.2382 27.9583C24.8555 27.0117 25.7009 26.2639 26.7998 25.7144L25.9054 23.9256C24.5083 24.6241 23.3857 25.6043 22.563 26.8657L24.2382 27.9583ZM26.8134 25.7075C27.9062 25.1401 29.1379 24.848 30.5286 24.848V22.848C28.8473 22.848 27.295 23.2039 25.8918 23.9325L26.8134 25.7075ZM30.5286 24.848C31.7923 24.848 32.895 25.1249 33.8605 25.659L34.8287 23.909C33.5383 23.1951 32.0969 22.848 30.5286 22.848V24.848ZM33.8827 25.6709C34.8821 26.1914 35.6437 26.8971 36.1923 27.791L37.8969 26.745C37.1495 25.5269 36.1111 24.5766 34.8065 23.8971L33.8827 25.6709ZM36.2066 27.8137C36.7652 28.6715 37.0526 29.6552 37.0526 30.796H39.0526C39.0526 29.2968 38.668 27.9285 37.8826 26.7223L36.2066 27.8137ZM37.0526 30.796C37.0526 31.5721 36.8755 32.2183 36.5471 32.7655L38.2621 33.7945C38.7978 32.9017 39.0526 31.8919 39.0526 30.796H37.0526ZM36.5346 32.787C36.1884 33.3978 35.7416 33.9264 35.1889 34.3768L36.4523 35.9272C37.1956 35.3216 37.8048 34.6022 38.2746 33.773L36.5346 32.787ZM35.2067 34.3626C34.6158 34.8222 33.9956 35.2025 33.3457 35.5058L34.1915 37.3182C34.9816 36.9495 35.7294 36.4898 36.4346 35.9414L35.2067 34.3626ZM33.447 37.3589C34.6149 37.7555 35.5136 38.2789 36.1799 38.9048L37.5493 37.4472C36.6317 36.5851 35.4663 35.9325 34.0902 35.4651L33.447 37.3589ZM36.1919 38.9159C36.8718 39.534 37.3545 40.2424 37.6563 41.0471L39.5289 40.3449C39.1107 39.2296 38.4415 38.258 37.5373 37.4361L36.1919 38.9159ZM37.6641 41.0674C37.9968 41.8989 38.1686 42.8156 38.1686 43.828H40.1686C40.1686 42.5844 39.9565 41.4131 39.5211 40.3246L37.6641 41.0674ZM38.1686 43.828C38.1686 45.2093 37.8209 46.4255 37.1363 47.5042L38.8249 48.5758C39.7244 47.1585 40.1686 45.5667 40.1686 43.828H38.1686ZM37.141 47.4967C36.4424 48.5764 35.5123 49.4353 34.3338 50.0781L35.2915 51.8339C36.7529 51.0367 37.9348 49.9516 38.8202 48.5833L37.141 47.4967ZM34.3462 50.0714C33.1788 50.687 31.8884 51 30.4566 51V53C32.1929 53 33.8064 52.617 35.279 51.8406L34.3462 50.0714Z"></path>
</svg>
