<svg xmlns="http://www.w3.org/2000/svg" fill="none" viewBox="0 0 480 360" height="360" width="480">
<path fill="#1A1A1A" d="M104.581 0H450C466.569 0 480 13.4315 480 30V330C480 346.569 466.569 360 450 360H104.581H30C13.4315 360 0 346.569 0 330V30C0 13.4315 13.4315 0 30 0H104.581Z"></path>
<path fill="white" d="M217.665 286.88V288.368H214.705V298H212.881V288.368H209.905V286.88H217.665ZM218.905 293.552C218.905 292.667 219.086 291.883 219.449 291.2C219.822 290.517 220.323 289.989 220.953 289.616C221.593 289.232 222.297 289.04 223.065 289.04C223.758 289.04 224.361 289.179 224.873 289.456C225.395 289.723 225.811 290.059 226.121 290.464V289.184H227.961V298H226.121V296.688C225.811 297.104 225.39 297.451 224.857 297.728C224.323 298.005 223.715 298.144 223.033 298.144C222.275 298.144 221.582 297.952 220.953 297.568C220.323 297.173 219.822 296.629 219.449 295.936C219.086 295.232 218.905 294.437 218.905 293.552ZM226.121 293.584C226.121 292.976 225.993 292.448 225.737 292C225.491 291.552 225.166 291.211 224.761 290.976C224.355 290.741 223.918 290.624 223.449 290.624C222.979 290.624 222.542 290.741 222.137 290.976C221.731 291.2 221.401 291.536 221.145 291.984C220.899 292.421 220.777 292.944 220.777 293.552C220.777 294.16 220.899 294.693 221.145 295.152C221.401 295.611 221.731 295.963 222.137 296.208C222.553 296.443 222.99 296.56 223.449 296.56C223.918 296.56 224.355 296.443 224.761 296.208C225.166 295.973 225.491 295.632 225.737 295.184C225.993 294.725 226.121 294.192 226.121 293.584ZM232.18 290.48C232.49 290.075 232.911 289.733 233.444 289.456C233.978 289.179 234.58 289.04 235.252 289.04C236.02 289.04 236.719 289.232 237.348 289.616C237.988 289.989 238.49 290.517 238.852 291.2C239.215 291.883 239.396 292.667 239.396 293.552C239.396 294.437 239.215 295.232 238.852 295.936C238.49 296.629 237.988 297.173 237.348 297.568C236.719 297.952 236.02 298.144 235.252 298.144C234.58 298.144 233.983 298.011 233.46 297.744C232.938 297.467 232.511 297.125 232.18 296.72V302.192H230.356V289.184H232.18V290.48ZM237.54 293.552C237.54 292.944 237.412 292.421 237.156 291.984C236.911 291.536 236.58 291.2 236.164 290.976C235.759 290.741 235.322 290.624 234.852 290.624C234.394 290.624 233.956 290.741 233.54 290.976C233.135 291.211 232.804 291.552 232.548 292C232.303 292.448 232.18 292.976 232.18 293.584C232.18 294.192 232.303 294.725 232.548 295.184C232.804 295.632 233.135 295.973 233.54 296.208C233.956 296.443 234.394 296.56 234.852 296.56C235.322 296.56 235.759 296.443 236.164 296.208C236.58 295.963 236.911 295.611 237.156 295.152C237.412 294.693 237.54 294.16 237.54 293.552ZM248.384 286.88V288.368H245.424V298H243.6V288.368H240.624V286.88H248.384ZM249.623 293.552C249.623 292.667 249.805 291.883 250.167 291.2C250.541 290.517 251.042 289.989 251.671 289.616C252.311 289.232 253.015 289.04 253.783 289.04C254.477 289.04 255.079 289.179 255.591 289.456C256.114 289.723 256.53 290.059 256.839 290.464V289.184H258.679V298H256.839V296.688C256.53 297.104 256.109 297.451 255.575 297.728C255.042 298.005 254.434 298.144 253.751 298.144C252.994 298.144 252.301 297.952 251.671 297.568C251.042 297.173 250.541 296.629 250.167 295.936C249.805 295.232 249.623 294.437 249.623 293.552ZM256.839 293.584C256.839 292.976 256.711 292.448 256.455 292C256.21 291.552 255.885 291.211 255.479 290.976C255.074 290.741 254.637 290.624 254.167 290.624C253.698 290.624 253.261 290.741 252.855 290.976C252.45 291.2 252.119 291.536 251.863 291.984C251.618 292.421 251.495 292.944 251.495 293.552C251.495 294.16 251.618 294.693 251.863 295.152C252.119 295.611 252.45 295.963 252.855 296.208C253.271 296.443 253.709 296.56 254.167 296.56C254.637 296.56 255.074 296.443 255.479 296.208C255.885 295.973 256.21 295.632 256.455 295.184C256.711 294.725 256.839 294.192 256.839 293.584ZM262.899 290.48C263.208 290.075 263.63 289.733 264.163 289.456C264.696 289.179 265.299 289.04 265.971 289.04C266.739 289.04 267.438 289.232 268.067 289.616C268.707 289.989 269.208 290.517 269.571 291.2C269.934 291.883 270.115 292.667 270.115 293.552C270.115 294.437 269.934 295.232 269.571 295.936C269.208 296.629 268.707 297.173 268.067 297.568C267.438 297.952 266.739 298.144 265.971 298.144C265.299 298.144 264.702 298.011 264.179 297.744C263.656 297.467 263.23 297.125 262.899 296.72V302.192H261.075V289.184H262.899V290.48ZM268.259 293.552C268.259 292.944 268.131 292.421 267.875 291.984C267.63 291.536 267.299 291.2 266.883 290.976C266.478 290.741 266.04 290.624 265.571 290.624C265.112 290.624 264.675 290.741 264.259 290.976C263.854 291.211 263.523 291.552 263.267 292C263.022 292.448 262.899 292.976 262.899 293.584C262.899 294.192 263.022 294.725 263.267 295.184C263.523 295.632 263.854 295.973 264.259 296.208C264.675 296.443 265.112 296.56 265.571 296.56C266.04 296.56 266.478 296.443 266.883 296.208C267.299 295.963 267.63 295.611 267.875 295.152C268.131 294.693 268.259 294.16 268.259 293.552Z"></path>
</svg>
