<svg width="480" height="360" viewBox="0 0 480 360" fill="none" xmlns="http://www.w3.org/2000/svg">
<path d="M104.581 0H450C466.569 0 480 13.4315 480 30V330C480 346.569 466.569 360 450 360H104.581H30C13.4315 360 0 346.569 0 330V30C0 13.4315 13.4315 0 30 0H104.581Z" fill="#E6E6E6"/>
<path d="M190.803 286.88V294.896C190.803 295.888 190.499 296.672 189.891 297.248C189.294 297.824 188.504 298.112 187.523 298.112C186.542 298.112 185.747 297.824 185.139 297.248C184.542 296.672 184.243 295.888 184.243 294.896H186.083C186.094 295.387 186.216 295.776 186.451 296.064C186.696 296.352 187.054 296.496 187.523 296.496C187.992 296.496 188.35 296.352 188.595 296.064C188.84 295.765 188.963 295.376 188.963 294.896V286.88H190.803ZM195.594 286.16V298H193.77V286.16H195.594ZM201.813 298.144C200.981 298.144 200.229 297.957 199.557 297.584C198.885 297.2 198.357 296.667 197.973 295.984C197.589 295.291 197.397 294.491 197.397 293.584C197.397 292.688 197.594 291.893 197.989 291.2C198.384 290.507 198.922 289.973 199.605 289.6C200.288 289.227 201.05 289.04 201.893 289.04C202.736 289.04 203.498 289.227 204.181 289.6C204.864 289.973 205.402 290.507 205.797 291.2C206.192 291.893 206.389 292.688 206.389 293.584C206.389 294.48 206.186 295.275 205.781 295.968C205.376 296.661 204.821 297.2 204.117 297.584C203.424 297.957 202.656 298.144 201.813 298.144ZM201.813 296.56C202.282 296.56 202.72 296.448 203.125 296.224C203.541 296 203.877 295.664 204.133 295.216C204.389 294.768 204.517 294.224 204.517 293.584C204.517 292.944 204.394 292.405 204.149 291.968C203.904 291.52 203.578 291.184 203.173 290.96C202.768 290.736 202.33 290.624 201.861 290.624C201.392 290.624 200.954 290.736 200.549 290.96C200.154 291.184 199.84 291.52 199.605 291.968C199.37 292.405 199.253 292.944 199.253 293.584C199.253 294.533 199.493 295.269 199.973 295.792C200.464 296.304 201.077 296.56 201.813 296.56ZM214.896 295.728H210.24L209.44 298H207.536L211.52 286.864H213.632L217.616 298H215.696L214.896 295.728ZM214.384 294.24L212.576 289.072L210.752 294.24H214.384ZM227.332 289.184V298H225.508V296.96C225.22 297.323 224.842 297.611 224.372 297.824C223.914 298.027 223.423 298.128 222.9 298.128C222.207 298.128 221.583 297.984 221.028 297.696C220.484 297.408 220.052 296.981 219.732 296.416C219.423 295.851 219.268 295.168 219.268 294.368V289.184H221.076V294.096C221.076 294.885 221.274 295.493 221.668 295.92C222.063 296.336 222.602 296.544 223.284 296.544C223.967 296.544 224.506 296.336 224.9 295.92C225.306 295.493 225.508 294.885 225.508 294.096V289.184H227.332ZM230.027 286.88H232.011L230.331 290.688H229.051L230.027 286.88ZM236.814 298.144C236.121 298.144 235.497 298.021 234.942 297.776C234.398 297.52 233.966 297.179 233.646 296.752C233.326 296.315 233.155 295.829 233.134 295.296H235.022C235.054 295.669 235.23 295.984 235.55 296.24C235.881 296.485 236.291 296.608 236.782 296.608C237.294 296.608 237.689 296.512 237.966 296.32C238.254 296.117 238.398 295.861 238.398 295.552C238.398 295.221 238.238 294.976 237.918 294.816C237.609 294.656 237.113 294.48 236.43 294.288C235.769 294.107 235.23 293.931 234.814 293.76C234.398 293.589 234.035 293.328 233.726 292.976C233.427 292.624 233.278 292.16 233.278 291.584C233.278 291.115 233.417 290.688 233.694 290.304C233.971 289.909 234.366 289.6 234.878 289.376C235.401 289.152 235.998 289.04 236.67 289.04C237.673 289.04 238.478 289.296 239.086 289.808C239.705 290.309 240.035 290.997 240.078 291.872H238.254C238.222 291.477 238.062 291.163 237.774 290.928C237.486 290.693 237.097 290.576 236.606 290.576C236.126 290.576 235.758 290.667 235.502 290.848C235.246 291.029 235.118 291.269 235.118 291.568C235.118 291.803 235.203 292 235.374 292.16C235.545 292.32 235.753 292.448 235.998 292.544C236.243 292.629 236.606 292.741 237.086 292.88C237.726 293.051 238.249 293.227 238.654 293.408C239.07 293.579 239.427 293.835 239.726 294.176C240.025 294.517 240.179 294.971 240.19 295.536C240.19 296.037 240.051 296.485 239.774 296.88C239.497 297.275 239.102 297.584 238.59 297.808C238.089 298.032 237.497 298.144 236.814 298.144ZM249.981 298.112C249.235 298.112 248.563 297.984 247.965 297.728C247.368 297.461 246.899 297.088 246.557 296.608C246.216 296.128 246.045 295.568 246.045 294.928H247.997C248.04 295.408 248.227 295.803 248.557 296.112C248.899 296.421 249.373 296.576 249.981 296.576C250.611 296.576 251.101 296.427 251.453 296.128C251.805 295.819 251.981 295.424 251.981 294.944C251.981 294.571 251.869 294.267 251.645 294.032C251.432 293.797 251.16 293.616 250.829 293.488C250.509 293.36 250.061 293.221 249.485 293.072C248.76 292.88 248.168 292.688 247.709 292.496C247.261 292.293 246.877 291.984 246.557 291.568C246.237 291.152 246.077 290.597 246.077 289.904C246.077 289.264 246.237 288.704 246.557 288.224C246.877 287.744 247.325 287.376 247.901 287.12C248.477 286.864 249.144 286.736 249.901 286.736C250.979 286.736 251.859 287.008 252.541 287.552C253.235 288.085 253.619 288.821 253.693 289.76H251.677C251.645 289.355 251.453 289.008 251.101 288.72C250.749 288.432 250.285 288.288 249.709 288.288C249.187 288.288 248.76 288.421 248.429 288.688C248.099 288.955 247.933 289.339 247.933 289.84C247.933 290.181 248.035 290.464 248.237 290.688C248.451 290.901 248.717 291.072 249.037 291.2C249.357 291.328 249.795 291.467 250.349 291.616C251.085 291.819 251.683 292.021 252.141 292.224C252.611 292.427 253.005 292.741 253.325 293.168C253.656 293.584 253.821 294.144 253.821 294.848C253.821 295.413 253.667 295.947 253.357 296.448C253.059 296.949 252.616 297.355 252.029 297.664C251.453 297.963 250.771 298.112 249.981 298.112ZM258.101 290.672V295.552C258.101 295.883 258.176 296.123 258.325 296.272C258.485 296.411 258.752 296.48 259.125 296.48H260.245V298H258.805C257.984 298 257.355 297.808 256.917 297.424C256.48 297.04 256.261 296.416 256.261 295.552V290.672H255.221V289.184H256.261V286.992H258.101V289.184H260.245V290.672H258.101ZM261.319 293.552C261.319 292.667 261.5 291.883 261.863 291.2C262.236 290.517 262.737 289.989 263.367 289.616C264.007 289.232 264.711 289.04 265.479 289.04C266.172 289.04 266.775 289.179 267.287 289.456C267.809 289.723 268.225 290.059 268.535 290.464V289.184H270.375V298H268.535V296.688C268.225 297.104 267.804 297.451 267.271 297.728C266.737 298.005 266.129 298.144 265.447 298.144C264.689 298.144 263.996 297.952 263.367 297.568C262.737 297.173 262.236 296.629 261.863 295.936C261.5 295.232 261.319 294.437 261.319 293.552ZM268.535 293.584C268.535 292.976 268.407 292.448 268.151 292C267.905 291.552 267.58 291.211 267.175 290.976C266.769 290.741 266.332 290.624 265.863 290.624C265.393 290.624 264.956 290.741 264.551 290.976C264.145 291.2 263.815 291.536 263.559 291.984C263.313 292.421 263.191 292.944 263.191 293.552C263.191 294.16 263.313 294.693 263.559 295.152C263.815 295.611 264.145 295.963 264.551 296.208C264.967 296.443 265.404 296.56 265.863 296.56C266.332 296.56 266.769 296.443 267.175 296.208C267.58 295.973 267.905 295.632 268.151 295.184C268.407 294.725 268.535 294.192 268.535 293.584ZM274.898 290.672V295.552C274.898 295.883 274.973 296.123 275.122 296.272C275.282 296.411 275.549 296.48 275.922 296.48H277.042V298H275.602C274.781 298 274.152 297.808 273.714 297.424C273.277 297.04 273.058 296.416 273.058 295.552V290.672H272.018V289.184H273.058V286.992H274.898V289.184H277.042V290.672H274.898ZM286.707 289.184V298H284.883V296.96C284.595 297.323 284.217 297.611 283.747 297.824C283.289 298.027 282.798 298.128 282.275 298.128C281.582 298.128 280.958 297.984 280.403 297.696C279.859 297.408 279.427 296.981 279.107 296.416C278.798 295.851 278.643 295.168 278.643 294.368V289.184H280.451V294.096C280.451 294.885 280.649 295.493 281.043 295.92C281.438 296.336 281.977 296.544 282.659 296.544C283.342 296.544 283.881 296.336 284.275 295.92C284.681 295.493 284.883 294.885 284.883 294.096V289.184H286.707ZM292.314 298.144C291.621 298.144 290.997 298.021 290.442 297.776C289.898 297.52 289.466 297.179 289.146 296.752C288.826 296.315 288.655 295.829 288.634 295.296H290.522C290.554 295.669 290.73 295.984 291.05 296.24C291.381 296.485 291.791 296.608 292.282 296.608C292.794 296.608 293.189 296.512 293.466 296.32C293.754 296.117 293.898 295.861 293.898 295.552C293.898 295.221 293.738 294.976 293.418 294.816C293.109 294.656 292.613 294.48 291.93 294.288C291.269 294.107 290.73 293.931 290.314 293.76C289.898 293.589 289.535 293.328 289.226 292.976C288.927 292.624 288.778 292.16 288.778 291.584C288.778 291.115 288.917 290.688 289.194 290.304C289.471 289.909 289.866 289.6 290.378 289.376C290.901 289.152 291.498 289.04 292.17 289.04C293.173 289.04 293.978 289.296 294.586 289.808C295.205 290.309 295.535 290.997 295.578 291.872H293.754C293.722 291.477 293.562 291.163 293.274 290.928C292.986 290.693 292.597 290.576 292.106 290.576C291.626 290.576 291.258 290.667 291.002 290.848C290.746 291.029 290.618 291.269 290.618 291.568C290.618 291.803 290.703 292 290.874 292.16C291.045 292.32 291.253 292.448 291.498 292.544C291.743 292.629 292.106 292.741 292.586 292.88C293.226 293.051 293.749 293.227 294.154 293.408C294.57 293.579 294.927 293.835 295.226 294.176C295.525 294.517 295.679 294.971 295.69 295.536C295.69 296.037 295.551 296.485 295.274 296.88C294.997 297.275 294.602 297.584 294.09 297.808C293.589 298.032 292.997 298.144 292.314 298.144Z" fill="black"/>
</svg>
