<svg width="480" height="360" viewBox="0 0 480 360" fill="none" xmlns="http://www.w3.org/2000/svg">
<path d="M217.904 28.728H213.248L212.448 31H210.544L214.528 19.864H216.64L220.624 31H218.704L217.904 28.728ZM217.392 27.24L215.584 22.072L213.76 27.24H217.392ZM224.18 23.48C224.49 23.0747 224.911 22.7333 225.444 22.456C225.978 22.1787 226.58 22.04 227.252 22.04C228.02 22.04 228.719 22.232 229.348 22.616C229.988 22.9893 230.49 23.5173 230.852 24.2C231.215 24.8827 231.396 25.6667 231.396 26.552C231.396 27.4373 231.215 28.232 230.852 28.936C230.49 29.6293 229.988 30.1733 229.348 30.568C228.719 30.952 228.02 31.144 227.252 31.144C226.58 31.144 225.983 31.0107 225.46 30.744C224.938 30.4667 224.511 30.1253 224.18 29.72V35.192H222.356V22.184H224.18V23.48ZM229.54 26.552C229.54 25.944 229.412 25.4213 229.156 24.984C228.911 24.536 228.58 24.2 228.164 23.976C227.759 23.7413 227.322 23.624 226.852 23.624C226.394 23.624 225.956 23.7413 225.54 23.976C225.135 24.2107 224.804 24.552 224.548 25C224.303 25.448 224.18 25.976 224.18 26.584C224.18 27.192 224.303 27.7253 224.548 28.184C224.804 28.632 225.135 28.9733 225.54 29.208C225.956 29.4427 226.394 29.56 226.852 29.56C227.322 29.56 227.759 29.4427 228.164 29.208C228.58 28.9627 228.911 28.6107 229.156 28.152C229.412 27.6933 229.54 27.16 229.54 26.552ZM235.024 23.48C235.333 23.0747 235.755 22.7333 236.288 22.456C236.821 22.1787 237.424 22.04 238.096 22.04C238.864 22.04 239.563 22.232 240.192 22.616C240.832 22.9893 241.333 23.5173 241.696 24.2C242.059 24.8827 242.24 25.6667 242.24 26.552C242.24 27.4373 242.059 28.232 241.696 28.936C241.333 29.6293 240.832 30.1733 240.192 30.568C239.563 30.952 238.864 31.144 238.096 31.144C237.424 31.144 236.827 31.0107 236.304 30.744C235.781 30.4667 235.355 30.1253 235.024 29.72V35.192H233.2V22.184H235.024V23.48ZM240.384 26.552C240.384 25.944 240.256 25.4213 240 24.984C239.755 24.536 239.424 24.2 239.008 23.976C238.603 23.7413 238.165 23.624 237.696 23.624C237.237 23.624 236.8 23.7413 236.384 23.976C235.979 24.2107 235.648 24.552 235.392 25C235.147 25.448 235.024 25.976 235.024 26.584C235.024 27.192 235.147 27.7253 235.392 28.184C235.648 28.632 235.979 28.9733 236.384 29.208C236.8 29.4427 237.237 29.56 237.696 29.56C238.165 29.56 238.603 29.4427 239.008 29.208C239.424 28.9627 239.755 28.6107 240 28.152C240.256 27.6933 240.384 27.16 240.384 26.552ZM247.244 31.144C246.55 31.144 245.926 31.0213 245.372 30.776C244.828 30.52 244.396 30.1787 244.076 29.752C243.756 29.3147 243.585 28.8293 243.564 28.296H245.452C245.484 28.6693 245.66 28.984 245.98 29.24C246.31 29.4853 246.721 29.608 247.212 29.608C247.724 29.608 248.118 29.512 248.396 29.32C248.684 29.1173 248.828 28.8613 248.828 28.552C248.828 28.2213 248.668 27.976 248.348 27.816C248.038 27.656 247.542 27.48 246.86 27.288C246.198 27.1067 245.66 26.9307 245.244 26.76C244.828 26.5893 244.465 26.328 244.156 25.976C243.857 25.624 243.708 25.16 243.708 24.584C243.708 24.1147 243.846 23.688 244.124 23.304C244.401 22.9093 244.796 22.6 245.308 22.376C245.83 22.152 246.428 22.04 247.1 22.04C248.102 22.04 248.908 22.296 249.516 22.808C250.134 23.3093 250.465 23.9973 250.508 24.872H248.684C248.652 24.4773 248.492 24.1627 248.204 23.928C247.916 23.6933 247.526 23.576 247.036 23.576C246.556 23.576 246.188 23.6667 245.932 23.848C245.676 24.0293 245.548 24.2693 245.548 24.568C245.548 24.8027 245.633 25 245.804 25.16C245.974 25.32 246.182 25.448 246.428 25.544C246.673 25.6293 247.036 25.7413 247.516 25.88C248.156 26.0507 248.678 26.2267 249.084 26.408C249.5 26.5787 249.857 26.8347 250.156 27.176C250.454 27.5173 250.609 27.9707 250.62 28.536C250.62 29.0373 250.481 29.4853 250.204 29.88C249.926 30.2747 249.532 30.584 249.02 30.808C248.518 31.032 247.926 31.144 247.244 31.144ZM265.339 31L263.963 29.624C263.43 30.1573 262.848 30.5573 262.219 30.824C261.59 31.08 260.886 31.208 260.107 31.208C259.318 31.208 258.619 31.0693 258.011 30.792C257.403 30.5147 256.934 30.12 256.603 29.608C256.272 29.0853 256.107 28.4827 256.107 27.8C256.107 27.032 256.326 26.3493 256.763 25.752C257.2 25.144 257.851 24.664 258.715 24.312C258.406 23.9387 258.187 23.592 258.059 23.272C257.931 22.9413 257.867 22.5787 257.867 22.184C257.867 21.6933 257.99 21.256 258.235 20.872C258.491 20.488 258.854 20.184 259.323 19.96C259.792 19.736 260.336 19.624 260.955 19.624C261.584 19.624 262.118 19.7467 262.555 19.992C263.003 20.2267 263.334 20.552 263.547 20.968C263.771 21.384 263.862 21.848 263.819 22.36H261.995C262.006 21.9653 261.91 21.6613 261.707 21.448C261.504 21.224 261.227 21.112 260.875 21.112C260.523 21.112 260.235 21.2187 260.011 21.432C259.798 21.6347 259.691 21.8853 259.691 22.184C259.691 22.472 259.771 22.76 259.931 23.048C260.102 23.3253 260.395 23.688 260.811 24.136L263.755 27.064L264.891 25.192H266.859L265.419 27.656L265.019 28.312L267.723 31H265.339ZM260.107 29.656C261.11 29.656 261.995 29.2453 262.763 28.424L259.819 25.464C258.56 25.9653 257.931 26.7227 257.931 27.736C257.931 28.28 258.134 28.7387 258.539 29.112C258.944 29.4747 259.467 29.656 260.107 29.656ZM276.627 22.04C277.31 22.04 277.912 22.1787 278.435 22.456C278.968 22.7227 279.384 23.0587 279.683 23.464V22.184H281.523V31.144C281.523 31.9547 281.352 32.6747 281.011 33.304C280.67 33.944 280.174 34.4453 279.523 34.808C278.883 35.1707 278.115 35.352 277.219 35.352C276.024 35.352 275.032 35.0693 274.243 34.504C273.454 33.9493 273.006 33.192 272.899 32.232H274.707C274.846 32.6907 275.139 33.0587 275.587 33.336C276.046 33.624 276.59 33.768 277.219 33.768C277.955 33.768 278.547 33.544 278.995 33.096C279.454 32.648 279.683 31.9973 279.683 31.144V29.672C279.374 30.088 278.952 30.44 278.419 30.728C277.896 31.0053 277.299 31.144 276.627 31.144C275.859 31.144 275.155 30.952 274.515 30.568C273.886 30.1733 273.384 29.6293 273.011 28.936C272.648 28.232 272.467 27.4373 272.467 26.552C272.467 25.6667 272.648 24.8827 273.011 24.2C273.384 23.5173 273.886 22.9893 274.515 22.616C275.155 22.232 275.859 22.04 276.627 22.04ZM279.683 26.584C279.683 25.976 279.555 25.448 279.299 25C279.054 24.552 278.728 24.2107 278.323 23.976C277.918 23.7413 277.48 23.624 277.011 23.624C276.542 23.624 276.104 23.7413 275.699 23.976C275.294 24.2 274.963 24.536 274.707 24.984C274.462 25.4213 274.339 25.944 274.339 26.552C274.339 27.16 274.462 27.6933 274.707 28.152C274.963 28.6107 275.294 28.9627 275.699 29.208C276.115 29.4427 276.552 29.56 277.011 29.56C277.48 29.56 277.918 29.4427 278.323 29.208C278.728 28.9733 279.054 28.632 279.299 28.184C279.555 27.7253 279.683 27.192 279.683 26.584ZM283.311 26.552C283.311 25.6667 283.492 24.8827 283.855 24.2C284.228 23.5173 284.729 22.9893 285.359 22.616C285.999 22.232 286.703 22.04 287.471 22.04C288.164 22.04 288.767 22.1787 289.279 22.456C289.801 22.7227 290.217 23.0587 290.527 23.464V22.184H292.367V31H290.527V29.688C290.217 30.104 289.796 30.4507 289.263 30.728C288.729 31.0053 288.121 31.144 287.439 31.144C286.681 31.144 285.988 30.952 285.359 30.568C284.729 30.1733 284.228 29.6293 283.855 28.936C283.492 28.232 283.311 27.4373 283.311 26.552ZM290.527 26.584C290.527 25.976 290.399 25.448 290.143 25C289.897 24.552 289.572 24.2107 289.167 23.976C288.761 23.7413 288.324 23.624 287.855 23.624C287.385 23.624 286.948 23.7413 286.543 23.976C286.137 24.2 285.807 24.536 285.551 24.984C285.305 25.4213 285.183 25.944 285.183 26.552C285.183 27.16 285.305 27.6933 285.551 28.152C285.807 28.6107 286.137 28.9627 286.543 29.208C286.959 29.4427 287.396 29.56 287.855 29.56C288.324 29.56 288.761 29.4427 289.167 29.208C289.572 28.9733 289.897 28.632 290.143 28.184C290.399 27.7253 290.527 27.192 290.527 26.584ZM305.435 22.04C306.128 22.04 306.747 22.184 307.291 22.472C307.845 22.76 308.277 23.1867 308.587 23.752C308.907 24.3173 309.067 25 309.067 25.8V31H307.259V26.072C307.259 25.2827 307.061 24.68 306.667 24.264C306.272 23.8373 305.733 23.624 305.051 23.624C304.368 23.624 303.824 23.8373 303.419 24.264C303.024 24.68 302.827 25.2827 302.827 26.072V31H301.019V26.072C301.019 25.2827 300.821 24.68 300.427 24.264C300.032 23.8373 299.493 23.624 298.811 23.624C298.128 23.624 297.584 23.8373 297.179 24.264C296.784 24.68 296.587 25.2827 296.587 26.072V31H294.763V22.184H296.587V23.192C296.885 22.8293 297.264 22.5467 297.723 22.344C298.181 22.1413 298.672 22.04 299.195 22.04C299.899 22.04 300.528 22.1893 301.083 22.488C301.637 22.7867 302.064 23.2187 302.363 23.784C302.629 23.2507 303.045 22.8293 303.611 22.52C304.176 22.2 304.784 22.04 305.435 22.04ZM319.468 26.376C319.468 26.7067 319.446 27.0053 319.404 27.272H312.668C312.721 27.976 312.982 28.5413 313.452 28.968C313.921 29.3947 314.497 29.608 315.18 29.608C316.161 29.608 316.854 29.1973 317.26 28.376H319.227C318.961 29.1867 318.476 29.8533 317.772 30.376C317.078 30.888 316.214 31.144 315.18 31.144C314.337 31.144 313.58 30.9573 312.908 30.584C312.246 30.2 311.724 29.6667 311.34 28.984C310.966 28.2907 310.78 27.4907 310.78 26.584C310.78 25.6773 310.961 24.8827 311.324 24.2C311.697 23.5067 312.214 22.9733 312.876 22.6C313.548 22.2267 314.316 22.04 315.18 22.04C316.012 22.04 316.753 22.2213 317.404 22.584C318.054 22.9467 318.561 23.4587 318.924 24.12C319.286 24.7707 319.468 25.5227 319.468 26.376ZM317.564 25.8C317.553 25.128 317.313 24.5893 316.844 24.184C316.374 23.7787 315.793 23.576 315.1 23.576C314.47 23.576 313.932 23.7787 313.484 24.184C313.036 24.5787 312.769 25.1173 312.684 25.8H317.564ZM324.463 31.144C323.769 31.144 323.145 31.0213 322.591 30.776C322.047 30.52 321.615 30.1787 321.295 29.752C320.975 29.3147 320.804 28.8293 320.783 28.296H322.671C322.703 28.6693 322.879 28.984 323.199 29.24C323.529 29.4853 323.94 29.608 324.431 29.608C324.943 29.608 325.337 29.512 325.615 29.32C325.903 29.1173 326.047 28.8613 326.047 28.552C326.047 28.2213 325.887 27.976 325.567 27.816C325.257 27.656 324.761 27.48 324.079 27.288C323.417 27.1067 322.879 26.9307 322.463 26.76C322.047 26.5893 321.684 26.328 321.375 25.976C321.076 25.624 320.927 25.16 320.927 24.584C320.927 24.1147 321.065 23.688 321.343 23.304C321.62 22.9093 322.015 22.6 322.527 22.376C323.049 22.152 323.647 22.04 324.319 22.04C325.321 22.04 326.127 22.296 326.735 22.808C327.353 23.3093 327.684 23.9973 327.727 24.872H325.903C325.871 24.4773 325.711 24.1627 325.423 23.928C325.135 23.6933 324.745 23.576 324.255 23.576C323.775 23.576 323.407 23.6667 323.151 23.848C322.895 24.0293 322.767 24.2693 322.767 24.568C322.767 24.8027 322.852 25 323.023 25.16C323.193 25.32 323.401 25.448 323.647 25.544C323.892 25.6293 324.255 25.7413 324.735 25.88C325.375 26.0507 325.897 26.2267 326.303 26.408C326.719 26.5787 327.076 26.8347 327.375 27.176C327.673 27.5173 327.828 27.9707 327.839 28.536C327.839 29.0373 327.7 29.4853 327.423 29.88C327.145 30.2747 326.751 30.584 326.239 30.808C325.737 31.032 325.145 31.144 324.463 31.144Z" fill="black"/>
<rect x="160" y="50" width="80" height="80" rx="15" fill="#E6E6E6"/>
<rect x="186" y="74" width="28" height="32" rx="6" fill="black"/>
<rect x="190" y="80" width="16" height="4" rx="2" fill="#E6E6E6"/>
<rect x="190" y="88" width="20" height="4" rx="2" fill="#E6E6E6"/>
<rect x="190" y="96" width="10" height="4" rx="2" fill="#E6E6E6"/>
<path d="M270.336 71H268.512L263.024 62.696V71H261.2V59.864H263.024L268.512 68.152V59.864H270.336V71ZM276.555 71.144C275.723 71.144 274.971 70.9573 274.299 70.584C273.627 70.2 273.099 69.6667 272.715 68.984C272.331 68.2907 272.139 67.4907 272.139 66.584C272.139 65.688 272.337 64.8933 272.731 64.2C273.126 63.5067 273.665 62.9733 274.347 62.6C275.03 62.2267 275.793 62.04 276.635 62.04C277.478 62.04 278.241 62.2267 278.923 62.6C279.606 62.9733 280.145 63.5067 280.539 64.2C280.934 64.8933 281.131 65.688 281.131 66.584C281.131 67.48 280.929 68.2747 280.523 68.968C280.118 69.6613 279.563 70.2 278.859 70.584C278.166 70.9573 277.398 71.144 276.555 71.144ZM276.555 69.56C277.025 69.56 277.462 69.448 277.867 69.224C278.283 69 278.619 68.664 278.875 68.216C279.131 67.768 279.259 67.224 279.259 66.584C279.259 65.944 279.137 65.4053 278.891 64.968C278.646 64.52 278.321 64.184 277.915 63.96C277.51 63.736 277.073 63.624 276.603 63.624C276.134 63.624 275.697 63.736 275.291 63.96C274.897 64.184 274.582 64.52 274.347 64.968C274.113 65.4053 273.995 65.944 273.995 66.584C273.995 67.5333 274.235 68.2693 274.715 68.792C275.206 69.304 275.819 69.56 276.555 69.56ZM285.062 63.672V68.552C285.062 68.8827 285.137 69.1227 285.286 69.272C285.446 69.4107 285.713 69.48 286.086 69.48H287.206V71H285.766C284.945 71 284.316 70.808 283.878 70.424C283.441 70.04 283.222 69.416 283.222 68.552V63.672H282.182V62.184H283.222V59.992H285.062V62.184H287.206V63.672H285.062ZM296.968 66.376C296.968 66.7067 296.946 67.0053 296.904 67.272H290.168C290.221 67.976 290.482 68.5413 290.952 68.968C291.421 69.3947 291.997 69.608 292.68 69.608C293.661 69.608 294.354 69.1973 294.76 68.376H296.727C296.461 69.1867 295.976 69.8533 295.272 70.376C294.578 70.888 293.714 71.144 292.68 71.144C291.837 71.144 291.08 70.9573 290.408 70.584C289.746 70.2 289.224 69.6667 288.84 68.984C288.466 68.2907 288.28 67.4907 288.28 66.584C288.28 65.6773 288.461 64.8827 288.824 64.2C289.197 63.5067 289.714 62.9733 290.376 62.6C291.048 62.2267 291.816 62.04 292.68 62.04C293.512 62.04 294.253 62.2213 294.904 62.584C295.554 62.9467 296.061 63.4587 296.424 64.12C296.786 64.7707 296.968 65.5227 296.968 66.376ZM295.064 65.8C295.053 65.128 294.813 64.5893 294.344 64.184C293.874 63.7787 293.293 63.576 292.6 63.576C291.97 63.576 291.432 63.7787 290.984 64.184C290.536 64.5787 290.269 65.1173 290.184 65.8H295.064ZM300.587 63.48C300.896 63.0747 301.317 62.7333 301.851 62.456C302.384 62.1787 302.987 62.04 303.659 62.04C304.427 62.04 305.125 62.232 305.755 62.616C306.395 62.9893 306.896 63.5173 307.259 64.2C307.621 64.8827 307.803 65.6667 307.803 66.552C307.803 67.4373 307.621 68.232 307.259 68.936C306.896 69.6293 306.395 70.1733 305.755 70.568C305.125 70.952 304.427 71.144 303.659 71.144C302.987 71.144 302.389 71.0107 301.867 70.744C301.344 70.4667 300.917 70.1253 300.587 69.72V75.192H298.763V62.184H300.587V63.48ZM305.947 66.552C305.947 65.944 305.819 65.4213 305.562 64.984C305.317 64.536 304.987 64.2 304.571 63.976C304.165 63.7413 303.728 63.624 303.259 63.624C302.8 63.624 302.363 63.7413 301.947 63.976C301.541 64.2107 301.211 64.552 300.955 65C300.709 65.448 300.587 65.976 300.587 66.584C300.587 67.192 300.709 67.7253 300.955 68.184C301.211 68.632 301.541 68.9733 301.947 69.208C302.363 69.4427 302.8 69.56 303.259 69.56C303.728 69.56 304.165 69.4427 304.571 69.208C304.987 68.9627 305.317 68.6107 305.562 68.152C305.819 67.6933 305.947 67.16 305.947 66.552ZM308.998 66.552C308.998 65.6667 309.18 64.8827 309.542 64.2C309.916 63.5173 310.417 62.9893 311.046 62.616C311.686 62.232 312.39 62.04 313.158 62.04C313.852 62.04 314.454 62.1787 314.966 62.456C315.489 62.7227 315.905 63.0587 316.214 63.464V62.184H318.054V71H316.214V69.688C315.905 70.104 315.484 70.4507 314.95 70.728C314.417 71.0053 313.809 71.144 313.126 71.144C312.369 71.144 311.676 70.952 311.046 70.568C310.417 70.1733 309.916 69.6293 309.542 68.936C309.18 68.232 308.998 67.4373 308.998 66.552ZM316.214 66.584C316.214 65.976 316.086 65.448 315.83 65C315.585 64.552 315.26 64.2107 314.854 63.976C314.449 63.7413 314.012 63.624 313.542 63.624C313.073 63.624 312.636 63.7413 312.23 63.976C311.825 64.2 311.494 64.536 311.238 64.984C310.993 65.4213 310.87 65.944 310.87 66.552C310.87 67.16 310.993 67.6933 311.238 68.152C311.494 68.6107 311.825 68.9627 312.23 69.208C312.646 69.4427 313.084 69.56 313.542 69.56C314.012 69.56 314.449 69.4427 314.854 69.208C315.26 68.9733 315.585 68.632 315.83 68.184C316.086 67.7253 316.214 67.192 316.214 66.584ZM319.842 66.552C319.842 65.6667 320.023 64.8827 320.386 64.2C320.759 63.5173 321.261 62.9893 321.89 62.616C322.53 62.232 323.239 62.04 324.018 62.04C324.594 62.04 325.159 62.168 325.714 62.424C326.279 62.6693 326.727 63 327.058 63.416V59.16H328.898V71H327.058V69.672C326.759 70.0987 326.343 70.4507 325.81 70.728C325.287 71.0053 324.685 71.144 324.002 71.144C323.234 71.144 322.53 70.952 321.89 70.568C321.261 70.1733 320.759 69.6293 320.386 68.936C320.023 68.232 319.842 67.4373 319.842 66.552ZM327.058 66.584C327.058 65.976 326.93 65.448 326.674 65C326.429 64.552 326.103 64.2107 325.698 63.976C325.293 63.7413 324.855 63.624 324.386 63.624C323.917 63.624 323.479 63.7413 323.074 63.976C322.669 64.2 322.338 64.536 322.082 64.984C321.837 65.4213 321.714 65.944 321.714 66.552C321.714 67.16 321.837 67.6933 322.082 68.152C322.338 68.6107 322.669 68.9627 323.074 69.208C323.49 69.4427 323.927 69.56 324.386 69.56C324.855 69.56 325.293 69.4427 325.698 69.208C326.103 68.9733 326.429 68.632 326.674 68.184C326.93 67.7253 327.058 67.192 327.058 66.584ZM337.93 67.752C337.546 67.752 337.194 67.6613 336.874 67.48C336.565 67.288 336.314 67.0373 336.122 66.728C335.941 66.408 335.85 66.056 335.85 65.672C335.85 65.0853 336.053 64.5893 336.458 64.184C336.863 63.7787 337.354 63.576 337.93 63.576C338.527 63.576 339.029 63.7787 339.434 64.184C339.839 64.5893 340.042 65.0853 340.042 65.672C340.042 66.2587 339.839 66.7547 339.434 67.16C339.029 67.5547 338.527 67.752 337.93 67.752ZM353.701 68.728H349.045L348.245 71H346.341L350.325 59.864H352.437L356.421 71H354.501L353.701 68.728ZM353.189 67.24L351.381 62.072L349.557 67.24H353.189ZM359.977 63.48C360.286 63.0747 360.708 62.7333 361.241 62.456C361.774 62.1787 362.377 62.04 363.049 62.04C363.817 62.04 364.516 62.232 365.145 62.616C365.785 62.9893 366.286 63.5173 366.649 64.2C367.012 64.8827 367.193 65.6667 367.193 66.552C367.193 67.4373 367.012 68.232 366.649 68.936C366.286 69.6293 365.785 70.1733 365.145 70.568C364.516 70.952 363.817 71.144 363.049 71.144C362.377 71.144 361.78 71.0107 361.257 70.744C360.734 70.4667 360.308 70.1253 359.977 69.72V75.192H358.153V62.184H359.977V63.48ZM365.337 66.552C365.337 65.944 365.209 65.4213 364.953 64.984C364.708 64.536 364.377 64.2 363.961 63.976C363.556 63.7413 363.118 63.624 362.649 63.624C362.19 63.624 361.753 63.7413 361.337 63.976C360.932 64.2107 360.601 64.552 360.345 65C360.1 65.448 359.977 65.976 359.977 66.584C359.977 67.192 360.1 67.7253 360.345 68.184C360.601 68.632 360.932 68.9733 361.337 69.208C361.753 69.4427 362.19 69.56 362.649 69.56C363.118 69.56 363.556 69.4427 363.961 69.208C364.377 68.9627 364.708 68.6107 364.953 68.152C365.209 67.6933 365.337 67.16 365.337 66.552ZM370.821 63.48C371.13 63.0747 371.552 62.7333 372.085 62.456C372.618 62.1787 373.221 62.04 373.893 62.04C374.661 62.04 375.36 62.232 375.989 62.616C376.629 62.9893 377.13 63.5173 377.493 64.2C377.856 64.8827 378.037 65.6667 378.037 66.552C378.037 67.4373 377.856 68.232 377.493 68.936C377.13 69.6293 376.629 70.1733 375.989 70.568C375.36 70.952 374.661 71.144 373.893 71.144C373.221 71.144 372.624 71.0107 372.101 70.744C371.578 70.4667 371.152 70.1253 370.821 69.72V75.192H368.997V62.184H370.821V63.48ZM376.181 66.552C376.181 65.944 376.053 65.4213 375.797 64.984C375.552 64.536 375.221 64.2 374.805 63.976C374.4 63.7413 373.962 63.624 373.493 63.624C373.034 63.624 372.597 63.7413 372.181 63.976C371.776 64.2107 371.445 64.552 371.189 65C370.944 65.448 370.821 65.976 370.821 66.584C370.821 67.192 370.944 67.7253 371.189 68.184C371.445 68.632 371.776 68.9733 372.181 69.208C372.597 69.4427 373.034 69.56 373.493 69.56C373.962 69.56 374.4 69.4427 374.805 69.208C375.221 68.9627 375.552 68.6107 375.797 68.152C376.053 67.6933 376.181 67.16 376.181 66.552Z" fill="black"/>
<path d="M175.928 197.296H172.436L171.836 199H170.408L173.396 190.648H174.98L177.968 199H176.528L175.928 197.296ZM175.544 196.18L174.188 192.304L172.82 196.18H175.544ZM180.635 193.372C180.867 193.052 181.183 192.792 181.583 192.592C181.991 192.384 182.443 192.28 182.939 192.28C183.523 192.28 184.051 192.42 184.523 192.7C184.995 192.98 185.367 193.38 185.639 193.9C185.911 194.412 186.047 195 186.047 195.664C186.047 196.328 185.911 196.924 185.639 197.452C185.367 197.972 184.991 198.38 184.511 198.676C184.039 198.964 183.515 199.108 182.939 199.108C182.427 199.108 181.971 199.008 181.571 198.808C181.179 198.608 180.867 198.352 180.635 198.04V199H179.267V190.12H180.635V193.372ZM184.655 195.664C184.655 195.208 184.559 194.816 184.367 194.488C184.183 194.152 183.935 193.9 183.623 193.732C183.319 193.556 182.991 193.468 182.639 193.468C182.295 193.468 181.967 193.556 181.655 193.732C181.351 193.908 181.103 194.164 180.911 194.5C180.727 194.836 180.635 195.232 180.635 195.688C180.635 196.144 180.727 196.544 180.911 196.888C181.103 197.224 181.351 197.48 181.655 197.656C181.967 197.832 182.295 197.92 182.639 197.92C182.991 197.92 183.319 197.832 183.623 197.656C183.935 197.472 184.183 197.208 184.367 196.864C184.559 196.52 184.655 196.12 184.655 195.664ZM190.268 199.108C189.644 199.108 189.08 198.968 188.576 198.688C188.072 198.4 187.676 198 187.388 197.488C187.1 196.968 186.956 196.368 186.956 195.688C186.956 195.016 187.104 194.42 187.4 193.9C187.696 193.38 188.1 192.98 188.612 192.7C189.124 192.42 189.696 192.28 190.328 192.28C190.96 192.28 191.532 192.42 192.044 192.7C192.556 192.98 192.96 193.38 193.256 193.9C193.552 194.42 193.7 195.016 193.7 195.688C193.7 196.36 193.548 196.956 193.244 197.476C192.94 197.996 192.524 198.4 191.996 198.688C191.476 198.968 190.9 199.108 190.268 199.108ZM190.268 197.92C190.62 197.92 190.948 197.836 191.252 197.668C191.564 197.5 191.816 197.248 192.008 196.912C192.2 196.576 192.296 196.168 192.296 195.688C192.296 195.208 192.204 194.804 192.02 194.476C191.836 194.14 191.592 193.888 191.288 193.72C190.984 193.552 190.656 193.468 190.304 193.468C189.952 193.468 189.624 193.552 189.32 193.72C189.024 193.888 188.788 194.14 188.612 194.476C188.436 194.804 188.348 195.208 188.348 195.688C188.348 196.4 188.528 196.952 188.888 197.344C189.256 197.728 189.716 197.92 190.268 197.92ZM201.04 192.388V199H199.672V198.22C199.456 198.492 199.172 198.708 198.82 198.868C198.476 199.02 198.108 199.096 197.716 199.096C197.196 199.096 196.728 198.988 196.312 198.772C195.904 198.556 195.58 198.236 195.34 197.812C195.108 197.388 194.992 196.876 194.992 196.276V192.388H196.348V196.072C196.348 196.664 196.496 197.12 196.792 197.44C197.088 197.752 197.492 197.908 198.004 197.908C198.516 197.908 198.92 197.752 199.216 197.44C199.52 197.12 199.672 196.664 199.672 196.072V192.388H201.04ZM204.441 193.504V197.164C204.441 197.412 204.497 197.592 204.609 197.704C204.729 197.808 204.929 197.86 205.209 197.86H206.049V199H204.969C204.353 199 203.881 198.856 203.553 198.568C203.225 198.28 203.061 197.812 203.061 197.164V193.504H202.281V192.388H203.061V190.744H204.441V192.388H206.049V193.504H204.441ZM212.023 193.504V197.164C212.023 197.412 212.079 197.592 212.191 197.704C212.311 197.808 212.511 197.86 212.791 197.86H213.631V199H212.551C211.935 199 211.463 198.856 211.135 198.568C210.807 198.28 210.643 197.812 210.643 197.164V193.504H209.863V192.388H210.643V190.744H212.023V192.388H213.631V193.504H212.023ZM218.312 192.28C218.816 192.28 219.264 192.388 219.656 192.604C220.056 192.82 220.368 193.14 220.592 193.564C220.824 193.988 220.94 194.5 220.94 195.1V199H219.584V195.304C219.584 194.712 219.436 194.26 219.14 193.948C218.844 193.628 218.44 193.468 217.928 193.468C217.416 193.468 217.008 193.628 216.704 193.948C216.408 194.26 216.26 194.712 216.26 195.304V199H214.892V190.12H216.26V193.156C216.492 192.876 216.784 192.66 217.136 192.508C217.496 192.356 217.888 192.28 218.312 192.28ZM223.381 191.512C223.133 191.512 222.925 191.428 222.757 191.26C222.589 191.092 222.505 190.884 222.505 190.636C222.505 190.388 222.589 190.18 222.757 190.012C222.925 189.844 223.133 189.76 223.381 189.76C223.621 189.76 223.825 189.844 223.993 190.012C224.161 190.18 224.245 190.388 224.245 190.636C224.245 190.884 224.161 191.092 223.993 191.26C223.825 191.428 223.621 191.512 223.381 191.512ZM224.053 192.388V199H222.685V192.388H224.053ZM228.249 199.108C227.729 199.108 227.261 199.016 226.845 198.832C226.437 198.64 226.113 198.384 225.873 198.064C225.633 197.736 225.505 197.372 225.489 196.972H226.905C226.929 197.252 227.061 197.488 227.301 197.68C227.549 197.864 227.857 197.956 228.225 197.956C228.609 197.956 228.905 197.884 229.113 197.74C229.329 197.588 229.437 197.396 229.437 197.164C229.437 196.916 229.317 196.732 229.077 196.612C228.845 196.492 228.473 196.36 227.961 196.216C227.465 196.08 227.061 195.948 226.749 195.82C226.437 195.692 226.165 195.496 225.933 195.232C225.709 194.968 225.597 194.62 225.597 194.188C225.597 193.836 225.701 193.516 225.909 193.228C226.117 192.932 226.413 192.7 226.797 192.532C227.189 192.364 227.637 192.28 228.141 192.28C228.893 192.28 229.497 192.472 229.953 192.856C230.417 193.232 230.665 193.748 230.697 194.404H229.329C229.305 194.108 229.185 193.872 228.969 193.696C228.753 193.52 228.461 193.432 228.093 193.432C227.733 193.432 227.457 193.5 227.265 193.636C227.073 193.772 226.977 193.952 226.977 194.176C226.977 194.352 227.041 194.5 227.169 194.62C227.297 194.74 227.453 194.836 227.637 194.908C227.821 194.972 228.093 195.056 228.453 195.16C228.933 195.288 229.325 195.42 229.629 195.556C229.941 195.684 230.209 195.876 230.433 196.132C230.657 196.388 230.773 196.728 230.781 197.152C230.781 197.528 230.677 197.864 230.469 198.16C230.261 198.456 229.965 198.688 229.581 198.856C229.205 199.024 228.761 199.108 228.249 199.108ZM234.921 195.664C234.921 195 235.057 194.412 235.329 193.9C235.609 193.388 235.985 192.992 236.457 192.712C236.937 192.424 237.465 192.28 238.041 192.28C238.561 192.28 239.013 192.384 239.397 192.592C239.789 192.792 240.101 193.044 240.333 193.348V192.388H241.713V199H240.333V198.016C240.101 198.328 239.785 198.588 239.385 198.796C238.985 199.004 238.529 199.108 238.017 199.108C237.449 199.108 236.929 198.964 236.457 198.676C235.985 198.38 235.609 197.972 235.329 197.452C235.057 196.924 234.921 196.328 234.921 195.664ZM240.333 195.688C240.333 195.232 240.237 194.836 240.045 194.5C239.861 194.164 239.617 193.908 239.313 193.732C239.009 193.556 238.681 193.468 238.329 193.468C237.977 193.468 237.649 193.556 237.345 193.732C237.041 193.9 236.793 194.152 236.601 194.488C236.417 194.816 236.325 195.208 236.325 195.664C236.325 196.12 236.417 196.52 236.601 196.864C236.793 197.208 237.041 197.472 237.345 197.656C237.657 197.832 237.985 197.92 238.329 197.92C238.681 197.92 239.009 197.832 239.313 197.656C239.617 197.48 239.861 197.224 240.045 196.888C240.237 196.544 240.333 196.144 240.333 195.688ZM244.877 193.36C245.109 193.056 245.425 192.8 245.825 192.592C246.225 192.384 246.677 192.28 247.181 192.28C247.757 192.28 248.281 192.424 248.753 192.712C249.233 192.992 249.609 193.388 249.881 193.9C250.153 194.412 250.289 195 250.289 195.664C250.289 196.328 250.153 196.924 249.881 197.452C249.609 197.972 249.233 198.38 248.753 198.676C248.281 198.964 247.757 199.108 247.181 199.108C246.677 199.108 246.229 199.008 245.837 198.808C245.445 198.6 245.125 198.344 244.877 198.04V202.144H243.509V192.388H244.877V193.36ZM248.897 195.664C248.897 195.208 248.801 194.816 248.609 194.488C248.425 194.152 248.177 193.9 247.865 193.732C247.561 193.556 247.233 193.468 246.881 193.468C246.537 193.468 246.209 193.556 245.897 193.732C245.593 193.908 245.345 194.164 245.153 194.5C244.969 194.836 244.877 195.232 244.877 195.688C244.877 196.144 244.969 196.544 245.153 196.888C245.345 197.224 245.593 197.48 245.897 197.656C246.209 197.832 246.537 197.92 246.881 197.92C247.233 197.92 247.561 197.832 247.865 197.656C248.177 197.472 248.425 197.208 248.609 196.864C248.801 196.52 248.897 196.12 248.897 195.664ZM253.01 193.36C253.242 193.056 253.558 192.8 253.958 192.592C254.358 192.384 254.81 192.28 255.314 192.28C255.89 192.28 256.414 192.424 256.886 192.712C257.366 192.992 257.742 193.388 258.014 193.9C258.286 194.412 258.422 195 258.422 195.664C258.422 196.328 258.286 196.924 258.014 197.452C257.742 197.972 257.366 198.38 256.886 198.676C256.414 198.964 255.89 199.108 255.314 199.108C254.81 199.108 254.362 199.008 253.97 198.808C253.578 198.6 253.258 198.344 253.01 198.04V202.144H251.642V192.388H253.01V193.36ZM257.03 195.664C257.03 195.208 256.934 194.816 256.742 194.488C256.558 194.152 256.31 193.9 255.998 193.732C255.694 193.556 255.366 193.468 255.014 193.468C254.67 193.468 254.342 193.556 254.03 193.732C253.726 193.908 253.478 194.164 253.286 194.5C253.102 194.836 253.01 195.232 253.01 195.688C253.01 196.144 253.102 196.544 253.286 196.888C253.478 197.224 253.726 197.48 254.03 197.656C254.342 197.832 254.67 197.92 255.014 197.92C255.366 197.92 255.694 197.832 255.998 197.656C256.31 197.472 256.558 197.208 256.742 196.864C256.934 196.52 257.03 196.12 257.03 195.664Z" fill="black"/>
<path d="M264.54 89.05V94.06C264.54 94.68 264.35 95.17 263.97 95.53C263.597 95.89 263.103 96.07 262.49 96.07C261.877 96.07 261.38 95.89 261 95.53C260.627 95.17 260.44 94.68 260.44 94.06H261.59C261.597 94.3667 261.673 94.61 261.82 94.79C261.973 94.97 262.197 95.06 262.49 95.06C262.783 95.06 263.007 94.97 263.16 94.79C263.313 94.6033 263.39 94.36 263.39 94.06V89.05H264.54ZM267.535 88.6V96H266.395V88.6H267.535ZM271.421 96.09C270.901 96.09 270.431 95.9733 270.011 95.74C269.591 95.5 269.261 95.1667 269.021 94.74C268.781 94.3067 268.661 93.8067 268.661 93.24C268.661 92.68 268.785 92.1833 269.031 91.75C269.278 91.3167 269.615 90.9833 270.041 90.75C270.468 90.5167 270.945 90.4 271.471 90.4C271.998 90.4 272.475 90.5167 272.901 90.75C273.328 90.9833 273.665 91.3167 273.911 91.75C274.158 92.1833 274.281 92.68 274.281 93.24C274.281 93.8 274.155 94.2967 273.901 94.73C273.648 95.1633 273.301 95.5 272.861 95.74C272.428 95.9733 271.948 96.09 271.421 96.09ZM271.421 95.1C271.715 95.1 271.988 95.03 272.241 94.89C272.501 94.75 272.711 94.54 272.871 94.26C273.031 93.98 273.111 93.64 273.111 93.24C273.111 92.84 273.035 92.5033 272.881 92.23C272.728 91.95 272.525 91.74 272.271 91.6C272.018 91.46 271.745 91.39 271.451 91.39C271.158 91.39 270.885 91.46 270.631 91.6C270.385 91.74 270.188 91.95 270.041 92.23C269.895 92.5033 269.821 92.84 269.821 93.24C269.821 93.8333 269.971 94.2933 270.271 94.62C270.578 94.94 270.961 95.1 271.421 95.1ZM279.598 94.58H276.688L276.188 96H274.998L277.488 89.04H278.808L281.298 96H280.098L279.598 94.58ZM279.278 93.65L278.148 90.42L277.008 93.65H279.278ZM287.371 90.49V96H286.231V95.35C286.051 95.5767 285.814 95.7567 285.521 95.89C285.234 96.0167 284.928 96.08 284.601 96.08C284.168 96.08 283.778 95.99 283.431 95.81C283.091 95.63 282.821 95.3633 282.621 95.01C282.428 94.6567 282.331 94.23 282.331 93.73V90.49H283.461V93.56C283.461 94.0533 283.584 94.4333 283.831 94.7C284.078 94.96 284.414 95.09 284.841 95.09C285.268 95.09 285.604 94.96 285.851 94.7C286.104 94.4333 286.231 94.0533 286.231 93.56V90.49H287.371Z" fill="#808080"/>
<path d="M263.04 121.07C262.573 121.07 262.153 120.99 261.78 120.83C261.407 120.663 261.113 120.43 260.9 120.13C260.687 119.83 260.58 119.48 260.58 119.08H261.8C261.827 119.38 261.943 119.627 262.15 119.82C262.363 120.013 262.66 120.11 263.04 120.11C263.433 120.11 263.74 120.017 263.96 119.83C264.18 119.637 264.29 119.39 264.29 119.09C264.29 118.857 264.22 118.667 264.08 118.52C263.947 118.373 263.777 118.26 263.57 118.18C263.37 118.1 263.09 118.013 262.73 117.92C262.277 117.8 261.907 117.68 261.62 117.56C261.34 117.433 261.1 117.24 260.9 116.98C260.7 116.72 260.6 116.373 260.6 115.94C260.6 115.54 260.7 115.19 260.9 114.89C261.1 114.59 261.38 114.36 261.74 114.2C262.1 114.04 262.517 113.96 262.99 113.96C263.663 113.96 264.213 114.13 264.64 114.47C265.073 114.803 265.313 115.263 265.36 115.85H264.1C264.08 115.597 263.96 115.38 263.74 115.2C263.52 115.02 263.23 114.93 262.87 114.93C262.543 114.93 262.277 115.013 262.07 115.18C261.863 115.347 261.76 115.587 261.76 115.9C261.76 116.113 261.823 116.29 261.95 116.43C262.083 116.563 262.25 116.67 262.45 116.75C262.65 116.83 262.923 116.917 263.27 117.01C263.73 117.137 264.103 117.263 264.39 117.39C264.683 117.517 264.93 117.713 265.13 117.98C265.337 118.24 265.44 118.59 265.44 119.03C265.44 119.383 265.343 119.717 265.15 120.03C264.963 120.343 264.687 120.597 264.32 120.79C263.96 120.977 263.533 121.07 263.04 121.07ZM267.365 114.76C267.158 114.76 266.985 114.69 266.845 114.55C266.705 114.41 266.635 114.237 266.635 114.03C266.635 113.823 266.705 113.65 266.845 113.51C266.985 113.37 267.158 113.3 267.365 113.3C267.565 113.3 267.735 113.37 267.875 113.51C268.015 113.65 268.085 113.823 268.085 114.03C268.085 114.237 268.015 114.41 267.875 114.55C267.735 114.69 267.565 114.76 267.365 114.76ZM267.925 115.49V121H266.785V115.49H267.925ZM270.432 120.07H272.932V121H269.112V120.07L271.622 116.42H269.112V115.49H272.932V116.42L270.432 120.07ZM279.179 118.11C279.179 118.317 279.166 118.503 279.139 118.67H274.929C274.962 119.11 275.126 119.463 275.419 119.73C275.712 119.997 276.072 120.13 276.499 120.13C277.112 120.13 277.546 119.873 277.799 119.36H279.029C278.862 119.867 278.559 120.283 278.119 120.61C277.686 120.93 277.146 121.09 276.499 121.09C275.972 121.09 275.499 120.973 275.079 120.74C274.666 120.5 274.339 120.167 274.099 119.74C273.866 119.307 273.749 118.807 273.749 118.24C273.749 117.673 273.862 117.177 274.089 116.75C274.322 116.317 274.646 115.983 275.059 115.75C275.479 115.517 275.959 115.4 276.499 115.4C277.019 115.4 277.482 115.513 277.889 115.74C278.296 115.967 278.612 116.287 278.839 116.7C279.066 117.107 279.179 117.577 279.179 118.11ZM277.989 117.75C277.982 117.33 277.832 116.993 277.539 116.74C277.246 116.487 276.882 116.36 276.449 116.36C276.056 116.36 275.719 116.487 275.439 116.74C275.159 116.987 274.992 117.323 274.939 117.75H277.989ZM280.761 121.07C280.554 121.07 280.381 121 280.241 120.86C280.101 120.72 280.031 120.547 280.031 120.34C280.031 120.133 280.101 119.96 280.241 119.82C280.381 119.68 280.554 119.61 280.761 119.61C280.961 119.61 281.131 119.68 281.271 119.82C281.411 119.96 281.481 120.133 281.481 120.34C281.481 120.547 281.411 120.72 281.271 120.86C281.131 121 280.961 121.07 280.761 121.07ZM280.761 116.87C280.554 116.87 280.381 116.8 280.241 116.66C280.101 116.52 280.031 116.347 280.031 116.14C280.031 115.933 280.101 115.76 280.241 115.62C280.381 115.48 280.554 115.41 280.761 115.41C280.961 115.41 281.131 115.48 281.271 115.62C281.411 115.76 281.481 115.933 281.481 116.14C281.481 116.347 281.411 116.52 281.271 116.66C281.131 116.8 280.961 116.87 280.761 116.87Z" fill="black"/>
<rect x="200" y="10" width="30" height="30" rx="15" transform="rotate(90 200 10)" fill="black" fill-opacity="0.1"/>
<rect x="191" y="24" width="2" height="12" rx="1" transform="rotate(90 191 24)" fill="black"/>
<rect x="184" y="19.3433" width="2" height="8" rx="1" transform="rotate(45 184 19.3433)" fill="black"/>
<rect x="185.414" y="29.2427" width="2" height="8" rx="1" transform="rotate(135 185.414 29.2427)" fill="black"/>
<rect x="160" y="210" width="180" height="140" rx="15" fill="black" fill-opacity="0.1"/>
<path d="M359.8 214.05L357.74 221H356.45L354.99 215.74L353.44 221L352.16 221.01L350.19 214.05H351.4L352.84 219.71L354.4 214.05H355.68L357.13 219.68L358.58 214.05H359.8ZM361.88 216.29C362.047 216.01 362.267 215.793 362.54 215.64C362.82 215.48 363.15 215.4 363.53 215.4V216.58H363.24C362.794 216.58 362.454 216.693 362.22 216.92C361.994 217.147 361.88 217.54 361.88 218.1V221H360.74V215.49H361.88V216.29ZM365.158 214.76C364.951 214.76 364.778 214.69 364.638 214.55C364.498 214.41 364.428 214.237 364.428 214.03C364.428 213.823 364.498 213.65 364.638 213.51C364.778 213.37 364.951 213.3 365.158 213.3C365.358 213.3 365.528 213.37 365.668 213.51C365.808 213.65 365.878 213.823 365.878 214.03C365.878 214.237 365.808 214.41 365.668 214.55C365.528 214.69 365.358 214.76 365.158 214.76ZM365.718 215.49V221H364.578V215.49H365.718ZM368.545 216.42V219.47C368.545 219.677 368.592 219.827 368.685 219.92C368.785 220.007 368.952 220.05 369.185 220.05H369.885V221H368.985C368.472 221 368.078 220.88 367.805 220.64C367.532 220.4 367.395 220.01 367.395 219.47V216.42H366.745V215.49H367.395V214.12H368.545V215.49H369.885V216.42H368.545ZM375.986 218.11C375.986 218.317 375.972 218.503 375.946 218.67H371.736C371.769 219.11 371.932 219.463 372.226 219.73C372.519 219.997 372.879 220.13 373.306 220.13C373.919 220.13 374.352 219.873 374.606 219.36H375.836C375.669 219.867 375.366 220.283 374.926 220.61C374.492 220.93 373.952 221.09 373.306 221.09C372.779 221.09 372.306 220.973 371.886 220.74C371.472 220.5 371.146 220.167 370.906 219.74C370.672 219.307 370.556 218.807 370.556 218.24C370.556 217.673 370.669 217.177 370.896 216.75C371.129 216.317 371.452 215.983 371.866 215.75C372.286 215.517 372.766 215.4 373.306 215.4C373.826 215.4 374.289 215.513 374.696 215.74C375.102 215.967 375.419 216.287 375.646 216.7C375.872 217.107 375.986 217.577 375.986 218.11ZM374.796 217.75C374.789 217.33 374.639 216.993 374.346 216.74C374.052 216.487 373.689 216.36 373.256 216.36C372.862 216.36 372.526 216.487 372.246 216.74C371.966 216.987 371.799 217.323 371.746 217.75H374.796ZM381.035 216.42V219.47C381.035 219.677 381.082 219.827 381.175 219.92C381.275 220.007 381.442 220.05 381.675 220.05H382.375V221H381.475C380.962 221 380.568 220.88 380.295 220.64C380.022 220.4 379.885 220.01 379.885 219.47V216.42H379.235V215.49H379.885V214.12H381.035V215.49H382.375V216.42H381.035ZM388.476 218.11C388.476 218.317 388.462 218.503 388.436 218.67H384.226C384.259 219.11 384.422 219.463 384.716 219.73C385.009 219.997 385.369 220.13 385.796 220.13C386.409 220.13 386.842 219.873 387.096 219.36H388.326C388.159 219.867 387.856 220.283 387.416 220.61C386.982 220.93 386.442 221.09 385.796 221.09C385.269 221.09 384.796 220.973 384.376 220.74C383.962 220.5 383.636 220.167 383.396 219.74C383.162 219.307 383.046 218.807 383.046 218.24C383.046 217.673 383.159 217.177 383.386 216.75C383.619 216.317 383.942 215.983 384.356 215.75C384.776 215.517 385.256 215.4 385.796 215.4C386.316 215.4 386.779 215.513 387.186 215.74C387.592 215.967 387.909 216.287 388.136 216.7C388.362 217.107 388.476 217.577 388.476 218.11ZM387.286 217.75C387.279 217.33 387.129 216.993 386.836 216.74C386.542 216.487 386.179 216.36 385.746 216.36C385.352 216.36 385.016 216.487 384.736 216.74C384.456 216.987 384.289 217.323 384.236 217.75H387.286ZM391.958 218.21L393.738 221H392.448L391.258 219.13L390.138 221H388.948L390.728 218.29L388.948 215.49H390.238L391.428 217.36L392.548 215.49H393.738L391.958 218.21ZM395.918 216.42V219.47C395.918 219.677 395.965 219.827 396.058 219.92C396.158 220.007 396.325 220.05 396.558 220.05H397.258V221H396.358C395.845 221 395.451 220.88 395.178 220.64C394.905 220.4 394.768 220.01 394.768 219.47V216.42H394.118V215.49H394.768V214.12H395.918V215.49H397.258V216.42H395.918ZM400.526 218.22C400.526 217.667 400.64 217.177 400.866 216.75C401.1 216.323 401.413 215.993 401.806 215.76C402.206 215.52 402.646 215.4 403.126 215.4C403.56 215.4 403.936 215.487 404.256 215.66C404.583 215.827 404.843 216.037 405.036 216.29V215.49H406.186V221H405.036V220.18C404.843 220.44 404.58 220.657 404.246 220.83C403.913 221.003 403.533 221.09 403.106 221.09C402.633 221.09 402.2 220.97 401.806 220.73C401.413 220.483 401.1 220.143 400.866 219.71C400.64 219.27 400.526 218.773 400.526 218.22ZM405.036 218.24C405.036 217.86 404.956 217.53 404.796 217.25C404.643 216.97 404.44 216.757 404.186 216.61C403.933 216.463 403.66 216.39 403.366 216.39C403.073 216.39 402.8 216.463 402.546 216.61C402.293 216.75 402.086 216.96 401.926 217.24C401.773 217.513 401.696 217.84 401.696 218.22C401.696 218.6 401.773 218.933 401.926 219.22C402.086 219.507 402.293 219.727 402.546 219.88C402.806 220.027 403.08 220.1 403.366 220.1C403.66 220.1 403.933 220.027 404.186 219.88C404.44 219.733 404.643 219.52 404.796 219.24C404.956 218.953 405.036 218.62 405.036 218.24ZM410.464 215.4C410.897 215.4 411.284 215.49 411.624 215.67C411.97 215.85 412.24 216.117 412.434 216.47C412.627 216.823 412.724 217.25 412.724 217.75V221H411.594V217.92C411.594 217.427 411.47 217.05 411.224 216.79C410.977 216.523 410.64 216.39 410.214 216.39C409.787 216.39 409.447 216.523 409.194 216.79C408.947 217.05 408.824 217.427 408.824 217.92V221H407.684V215.49H408.824V216.12C409.01 215.893 409.247 215.717 409.534 215.59C409.827 215.463 410.137 215.4 410.464 215.4ZM413.798 218.22C413.798 217.667 413.911 217.177 414.138 216.75C414.371 216.323 414.684 215.993 415.078 215.76C415.478 215.52 415.921 215.4 416.408 215.4C416.768 215.4 417.121 215.48 417.468 215.64C417.821 215.793 418.101 216 418.308 216.26V213.6H419.458V221H418.308V220.17C418.121 220.437 417.861 220.657 417.528 220.83C417.201 221.003 416.824 221.09 416.398 221.09C415.918 221.09 415.478 220.97 415.078 220.73C414.684 220.483 414.371 220.143 414.138 219.71C413.911 219.27 413.798 218.773 413.798 218.22ZM418.308 218.24C418.308 217.86 418.228 217.53 418.068 217.25C417.914 216.97 417.711 216.757 417.458 216.61C417.204 216.463 416.931 216.39 416.638 216.39C416.344 216.39 416.071 216.463 415.818 216.61C415.564 216.75 415.358 216.96 415.198 217.24C415.044 217.513 414.968 217.84 414.968 218.22C414.968 218.6 415.044 218.933 415.198 219.22C415.358 219.507 415.564 219.727 415.818 219.88C416.078 220.027 416.351 220.1 416.638 220.1C416.931 220.1 417.204 220.027 417.458 219.88C417.711 219.733 417.914 219.52 418.068 219.24C418.228 218.953 418.308 218.62 418.308 218.24ZM355.8 233.11C355.8 233.317 355.787 233.503 355.76 233.67H351.55C351.583 234.11 351.747 234.463 352.04 234.73C352.333 234.997 352.693 235.13 353.12 235.13C353.733 235.13 354.167 234.873 354.42 234.36H355.65C355.483 234.867 355.18 235.283 354.74 235.61C354.307 235.93 353.767 236.09 353.12 236.09C352.593 236.09 352.12 235.973 351.7 235.74C351.287 235.5 350.96 235.167 350.72 234.74C350.487 234.307 350.37 233.807 350.37 233.24C350.37 232.673 350.483 232.177 350.71 231.75C350.943 231.317 351.267 230.983 351.68 230.75C352.1 230.517 352.58 230.4 353.12 230.4C353.64 230.4 354.103 230.513 354.51 230.74C354.917 230.967 355.233 231.287 355.46 231.7C355.687 232.107 355.8 232.577 355.8 233.11ZM354.61 232.75C354.603 232.33 354.453 231.993 354.16 231.74C353.867 231.487 353.503 231.36 353.07 231.36C352.677 231.36 352.34 231.487 352.06 231.74C351.78 231.987 351.613 232.323 351.56 232.75H354.61ZM363.592 230.4C364.025 230.4 364.412 230.49 364.752 230.67C365.099 230.85 365.369 231.117 365.562 231.47C365.762 231.823 365.862 232.25 365.862 232.75V236H364.732V232.92C364.732 232.427 364.609 232.05 364.362 231.79C364.115 231.523 363.779 231.39 363.352 231.39C362.925 231.39 362.585 231.523 362.332 231.79C362.085 232.05 361.962 232.427 361.962 232.92V236H360.832V232.92C360.832 232.427 360.709 232.05 360.462 231.79C360.215 231.523 359.879 231.39 359.452 231.39C359.025 231.39 358.685 231.523 358.432 231.79C358.185 232.05 358.062 232.427 358.062 232.92V236H356.922V230.49H358.062V231.12C358.249 230.893 358.485 230.717 358.772 230.59C359.059 230.463 359.365 230.4 359.692 230.4C360.132 230.4 360.525 230.493 360.872 230.68C361.219 230.867 361.485 231.137 361.672 231.49C361.839 231.157 362.099 230.893 362.452 230.7C362.805 230.5 363.185 230.4 363.592 230.4ZM368.453 231.31C368.646 231.043 368.909 230.827 369.243 230.66C369.583 230.487 369.959 230.4 370.373 230.4C370.859 230.4 371.299 230.517 371.693 230.75C372.086 230.983 372.396 231.317 372.623 231.75C372.849 232.177 372.963 232.667 372.963 233.22C372.963 233.773 372.849 234.27 372.623 234.71C372.396 235.143 372.083 235.483 371.683 235.73C371.289 235.97 370.853 236.09 370.373 236.09C369.946 236.09 369.566 236.007 369.233 235.84C368.906 235.673 368.646 235.46 368.453 235.2V236H367.313V228.6H368.453V231.31ZM371.803 233.22C371.803 232.84 371.723 232.513 371.562 232.24C371.409 231.96 371.203 231.75 370.943 231.61C370.689 231.463 370.416 231.39 370.123 231.39C369.836 231.39 369.563 231.463 369.303 231.61C369.049 231.757 368.843 231.97 368.683 232.25C368.529 232.53 368.453 232.86 368.453 233.24C368.453 233.62 368.529 233.953 368.683 234.24C368.843 234.52 369.049 234.733 369.303 234.88C369.563 235.027 369.836 235.1 370.123 235.1C370.416 235.1 370.689 235.027 370.943 234.88C371.203 234.727 371.409 234.507 371.562 234.22C371.723 233.933 371.803 233.6 371.803 233.22ZM379.14 233.11C379.14 233.317 379.127 233.503 379.1 233.67H374.89C374.923 234.11 375.087 234.463 375.38 234.73C375.673 234.997 376.033 235.13 376.46 235.13C377.073 235.13 377.507 234.873 377.76 234.36H378.99C378.823 234.867 378.52 235.283 378.08 235.61C377.647 235.93 377.107 236.09 376.46 236.09C375.933 236.09 375.46 235.973 375.04 235.74C374.627 235.5 374.3 235.167 374.06 234.74C373.827 234.307 373.71 233.807 373.71 233.24C373.71 232.673 373.823 232.177 374.05 231.75C374.283 231.317 374.607 230.983 375.02 230.75C375.44 230.517 375.92 230.4 376.46 230.4C376.98 230.4 377.443 230.513 377.85 230.74C378.257 230.967 378.573 231.287 378.8 231.7C379.027 232.107 379.14 232.577 379.14 233.11ZM377.95 232.75C377.943 232.33 377.793 231.993 377.5 231.74C377.207 231.487 376.843 231.36 376.41 231.36C376.017 231.36 375.68 231.487 375.4 231.74C375.12 231.987 374.953 232.323 374.9 232.75H377.95ZM381.402 228.6V236H380.262V228.6H381.402ZM384.038 228.6V236H382.898V228.6H384.038ZM386.115 229.76C385.908 229.76 385.735 229.69 385.595 229.55C385.455 229.41 385.385 229.237 385.385 229.03C385.385 228.823 385.455 228.65 385.595 228.51C385.735 228.37 385.908 228.3 386.115 228.3C386.315 228.3 386.485 228.37 386.625 228.51C386.765 228.65 386.835 228.823 386.835 229.03C386.835 229.237 386.765 229.41 386.625 229.55C386.485 229.69 386.315 229.76 386.115 229.76ZM386.675 230.49V236H385.535V230.49H386.675ZM390.172 236.09C389.739 236.09 389.349 236.013 389.002 235.86C388.662 235.7 388.392 235.487 388.192 235.22C387.992 234.947 387.885 234.643 387.872 234.31H389.052C389.072 234.543 389.182 234.74 389.382 234.9C389.589 235.053 389.845 235.13 390.152 235.13C390.472 235.13 390.719 235.07 390.892 234.95C391.072 234.823 391.162 234.663 391.162 234.47C391.162 234.263 391.062 234.11 390.862 234.01C390.669 233.91 390.359 233.8 389.932 233.68C389.519 233.567 389.182 233.457 388.922 233.35C388.662 233.243 388.435 233.08 388.242 232.86C388.055 232.64 387.962 232.35 387.962 231.99C387.962 231.697 388.049 231.43 388.222 231.19C388.395 230.943 388.642 230.75 388.962 230.61C389.289 230.47 389.662 230.4 390.082 230.4C390.709 230.4 391.212 230.56 391.592 230.88C391.979 231.193 392.185 231.623 392.212 232.17H391.072C391.052 231.923 390.952 231.727 390.772 231.58C390.592 231.433 390.349 231.36 390.042 231.36C389.742 231.36 389.512 231.417 389.352 231.53C389.192 231.643 389.112 231.793 389.112 231.98C389.112 232.127 389.165 232.25 389.272 232.35C389.379 232.45 389.509 232.53 389.662 232.59C389.815 232.643 390.042 232.713 390.342 232.8C390.742 232.907 391.069 233.017 391.322 233.13C391.582 233.237 391.805 233.397 391.992 233.61C392.179 233.823 392.275 234.107 392.282 234.46C392.282 234.773 392.195 235.053 392.022 235.3C391.849 235.547 391.602 235.74 391.282 235.88C390.969 236.02 390.599 236.09 390.172 236.09ZM396.364 230.4C396.784 230.4 397.157 230.49 397.484 230.67C397.817 230.85 398.077 231.117 398.264 231.47C398.457 231.823 398.554 232.25 398.554 232.75V236H397.424V232.92C397.424 232.427 397.3 232.05 397.054 231.79C396.807 231.523 396.47 231.39 396.044 231.39C395.617 231.39 395.277 231.523 395.024 231.79C394.777 232.05 394.654 232.427 394.654 232.92V236H393.514V228.6H394.654V231.13C394.847 230.897 395.09 230.717 395.384 230.59C395.684 230.463 396.01 230.4 396.364 230.4ZM403.185 229.76C402.979 229.76 402.805 229.69 402.665 229.55C402.525 229.41 402.455 229.237 402.455 229.03C402.455 228.823 402.525 228.65 402.665 228.51C402.805 228.37 402.979 228.3 403.185 228.3C403.385 228.3 403.555 228.37 403.695 228.51C403.835 228.65 403.905 228.823 403.905 229.03C403.905 229.237 403.835 229.41 403.695 229.55C403.555 229.69 403.385 229.76 403.185 229.76ZM403.745 230.49V236H402.605V230.49H403.745ZM406.572 231.42V234.47C406.572 234.677 406.619 234.827 406.712 234.92C406.812 235.007 406.979 235.05 407.212 235.05H407.912V236H407.012C406.499 236 406.106 235.88 405.832 235.64C405.559 235.4 405.422 235.01 405.422 234.47V231.42H404.772V230.49H405.422V229.12H406.572V230.49H407.912V231.42H406.572ZM418.961 230.49L417.251 236H416.051L414.941 231.93L413.831 236H412.631L410.911 230.49H412.071L413.221 234.92L414.391 230.49H415.581L416.701 234.9L417.841 230.49H418.961ZM420.393 229.76C420.186 229.76 420.013 229.69 419.873 229.55C419.733 229.41 419.663 229.237 419.663 229.03C419.663 228.823 419.733 228.65 419.873 228.51C420.013 228.37 420.186 228.3 420.393 228.3C420.593 228.3 420.763 228.37 420.903 228.51C421.043 228.65 421.113 228.823 421.113 229.03C421.113 229.237 421.043 229.41 420.903 229.55C420.763 229.69 420.593 229.76 420.393 229.76ZM420.953 230.49V236H419.813V230.49H420.953ZM423.779 231.42V234.47C423.779 234.677 423.826 234.827 423.919 234.92C424.019 235.007 424.186 235.05 424.419 235.05H425.119V236H424.219C423.706 236 423.313 235.88 423.039 235.64C422.766 235.4 422.629 235.01 422.629 234.47V231.42H421.979V230.49H422.629V229.12H423.779V230.49H425.119V231.42H423.779ZM429.02 230.4C429.44 230.4 429.813 230.49 430.14 230.67C430.473 230.85 430.733 231.117 430.92 231.47C431.113 231.823 431.21 232.25 431.21 232.75V236H430.08V232.92C430.08 232.427 429.957 232.05 429.71 231.79C429.463 231.523 429.127 231.39 428.7 231.39C428.273 231.39 427.933 231.523 427.68 231.79C427.433 232.05 427.31 232.427 427.31 232.92V236H426.17V228.6H427.31V231.13C427.503 230.897 427.747 230.717 428.04 230.59C428.34 230.463 428.667 230.4 429.02 230.4ZM350.37 248.22C350.37 247.667 350.483 247.177 350.71 246.75C350.943 246.323 351.257 245.993 351.65 245.76C352.05 245.52 352.493 245.4 352.98 245.4C353.34 245.4 353.693 245.48 354.04 245.64C354.393 245.793 354.673 246 354.88 246.26V243.6H356.03V251H354.88V250.17C354.693 250.437 354.433 250.657 354.1 250.83C353.773 251.003 353.397 251.09 352.97 251.09C352.49 251.09 352.05 250.97 351.65 250.73C351.257 250.483 350.943 250.143 350.71 249.71C350.483 249.27 350.37 248.773 350.37 248.22ZM354.88 248.24C354.88 247.86 354.8 247.53 354.64 247.25C354.487 246.97 354.283 246.757 354.03 246.61C353.777 246.463 353.503 246.39 353.21 246.39C352.917 246.39 352.643 246.463 352.39 246.61C352.137 246.75 351.93 246.96 351.77 247.24C351.617 247.513 351.54 247.84 351.54 248.22C351.54 248.6 351.617 248.933 351.77 249.22C351.93 249.507 352.137 249.727 352.39 249.88C352.65 250.027 352.923 250.1 353.21 250.1C353.503 250.1 353.777 250.027 354.03 249.88C354.283 249.733 354.487 249.52 354.64 249.24C354.8 248.953 354.88 248.62 354.88 248.24ZM358.107 244.76C357.901 244.76 357.727 244.69 357.587 244.55C357.447 244.41 357.377 244.237 357.377 244.03C357.377 243.823 357.447 243.65 357.587 243.51C357.727 243.37 357.901 243.3 358.107 243.3C358.307 243.3 358.477 243.37 358.617 243.51C358.757 243.65 358.827 243.823 358.827 244.03C358.827 244.237 358.757 244.41 358.617 244.55C358.477 244.69 358.307 244.76 358.107 244.76ZM358.667 245.49V251H357.527V245.49H358.667ZM362.474 246.42H361.454V251H360.304V246.42H359.654V245.49H360.304V245.1C360.304 244.467 360.471 244.007 360.804 243.72C361.144 243.427 361.674 243.28 362.394 243.28V244.23C362.047 244.23 361.804 244.297 361.664 244.43C361.524 244.557 361.454 244.78 361.454 245.1V245.49H362.474V246.42ZM365.794 246.42H364.774V251H363.624V246.42H362.974V245.49H363.624V245.1C363.624 244.467 363.791 244.007 364.124 243.72C364.464 243.427 364.994 243.28 365.714 243.28V244.23C365.368 244.23 365.124 244.297 364.984 244.43C364.844 244.557 364.774 244.78 364.774 245.1V245.49H365.794V246.42ZM371.855 248.11C371.855 248.317 371.841 248.503 371.815 248.67H367.605C367.638 249.11 367.801 249.463 368.095 249.73C368.388 249.997 368.748 250.13 369.175 250.13C369.788 250.13 370.221 249.873 370.475 249.36H371.705C371.538 249.867 371.235 250.283 370.795 250.61C370.361 250.93 369.821 251.09 369.175 251.09C368.648 251.09 368.175 250.973 367.755 250.74C367.341 250.5 367.015 250.167 366.775 249.74C366.541 249.307 366.425 248.807 366.425 248.24C366.425 247.673 366.538 247.177 366.765 246.75C366.998 246.317 367.321 245.983 367.735 245.75C368.155 245.517 368.635 245.4 369.175 245.4C369.695 245.4 370.158 245.513 370.565 245.74C370.971 245.967 371.288 246.287 371.515 246.7C371.741 247.107 371.855 247.577 371.855 248.11ZM370.665 247.75C370.658 247.33 370.508 246.993 370.215 246.74C369.921 246.487 369.558 246.36 369.125 246.36C368.731 246.36 368.395 246.487 368.115 246.74C367.835 246.987 367.668 247.323 367.615 247.75H370.665ZM374.117 246.29C374.283 246.01 374.503 245.793 374.777 245.64C375.057 245.48 375.387 245.4 375.767 245.4V246.58H375.477C375.03 246.58 374.69 246.693 374.457 246.92C374.23 247.147 374.117 247.54 374.117 248.1V251H372.977V245.49H374.117V246.29ZM381.864 248.11C381.864 248.317 381.851 248.503 381.824 248.67H377.614C377.648 249.11 377.811 249.463 378.104 249.73C378.398 249.997 378.758 250.13 379.184 250.13C379.798 250.13 380.231 249.873 380.484 249.36H381.714C381.548 249.867 381.244 250.283 380.804 250.61C380.371 250.93 379.831 251.09 379.184 251.09C378.658 251.09 378.184 250.973 377.764 250.74C377.351 250.5 377.024 250.167 376.784 249.74C376.551 249.307 376.434 248.807 376.434 248.24C376.434 247.673 376.548 247.177 376.774 246.75C377.008 246.317 377.331 245.983 377.744 245.75C378.164 245.517 378.644 245.4 379.184 245.4C379.704 245.4 380.168 245.513 380.574 245.74C380.981 245.967 381.298 246.287 381.524 246.7C381.751 247.107 381.864 247.577 381.864 248.11ZM380.674 247.75C380.668 247.33 380.518 246.993 380.224 246.74C379.931 246.487 379.568 246.36 379.134 246.36C378.741 246.36 378.404 246.487 378.124 246.74C377.844 246.987 377.678 247.323 377.624 247.75H380.674ZM385.766 245.4C386.2 245.4 386.586 245.49 386.926 245.67C387.273 245.85 387.543 246.117 387.736 246.47C387.93 246.823 388.026 247.25 388.026 247.75V251H386.896V247.92C386.896 247.427 386.773 247.05 386.526 246.79C386.28 246.523 385.943 246.39 385.516 246.39C385.09 246.39 384.75 246.523 384.496 246.79C384.25 247.05 384.126 247.427 384.126 247.92V251H382.986V245.49H384.126V246.12C384.313 245.893 384.55 245.717 384.836 245.59C385.13 245.463 385.44 245.4 385.766 245.4ZM390.81 246.42V249.47C390.81 249.677 390.857 249.827 390.95 249.92C391.05 250.007 391.217 250.05 391.45 250.05H392.15V251H391.25C390.737 251 390.344 250.88 390.07 250.64C389.797 250.4 389.66 250.01 389.66 249.47V246.42H389.01V245.49H389.66V244.12H390.81V245.49H392.15V246.42H390.81ZM396.939 246.3C397.132 246.047 397.395 245.833 397.729 245.66C398.062 245.487 398.439 245.4 398.859 245.4C399.339 245.4 399.775 245.52 400.169 245.76C400.569 245.993 400.882 246.323 401.109 246.75C401.335 247.177 401.449 247.667 401.449 248.22C401.449 248.773 401.335 249.27 401.109 249.71C400.882 250.143 400.569 250.483 400.169 250.73C399.775 250.97 399.339 251.09 398.859 251.09C398.439 251.09 398.065 251.007 397.739 250.84C397.412 250.667 397.145 250.453 396.939 250.2V253.62H395.799V245.49H396.939V246.3ZM400.289 248.22C400.289 247.84 400.209 247.513 400.049 247.24C399.895 246.96 399.689 246.75 399.429 246.61C399.175 246.463 398.902 246.39 398.609 246.39C398.322 246.39 398.049 246.463 397.789 246.61C397.535 246.757 397.329 246.97 397.169 247.25C397.015 247.53 396.939 247.86 396.939 248.24C396.939 248.62 397.015 248.953 397.169 249.24C397.329 249.52 397.535 249.733 397.789 249.88C398.049 250.027 398.322 250.1 398.609 250.1C398.902 250.1 399.175 250.027 399.429 249.88C399.689 249.727 399.895 249.507 400.049 249.22C400.209 248.933 400.289 248.6 400.289 248.22ZM402.196 248.22C402.196 247.667 402.31 247.177 402.536 246.75C402.77 246.323 403.083 245.993 403.476 245.76C403.876 245.52 404.316 245.4 404.796 245.4C405.23 245.4 405.606 245.487 405.926 245.66C406.253 245.827 406.513 246.037 406.706 246.29V245.49H407.856V251H406.706V250.18C406.513 250.44 406.25 250.657 405.916 250.83C405.583 251.003 405.203 251.09 404.776 251.09C404.303 251.09 403.87 250.97 403.476 250.73C403.083 250.483 402.77 250.143 402.536 249.71C402.31 249.27 402.196 248.773 402.196 248.22ZM406.706 248.24C406.706 247.86 406.626 247.53 406.466 247.25C406.313 246.97 406.11 246.757 405.856 246.61C405.603 246.463 405.33 246.39 405.036 246.39C404.743 246.39 404.47 246.463 404.216 246.61C403.963 246.75 403.756 246.96 403.596 247.24C403.443 247.513 403.366 247.84 403.366 248.22C403.366 248.6 403.443 248.933 403.596 249.22C403.756 249.507 403.963 249.727 404.216 249.88C404.476 250.027 404.75 250.1 405.036 250.1C405.33 250.1 405.603 250.027 405.856 249.88C406.11 249.733 406.313 249.52 406.466 249.24C406.626 248.953 406.706 248.62 406.706 248.24ZM410.494 246.29C410.66 246.01 410.88 245.793 411.154 245.64C411.434 245.48 411.764 245.4 412.144 245.4V246.58H411.854C411.407 246.58 411.067 246.693 410.834 246.92C410.607 247.147 410.494 247.54 410.494 248.1V251H409.354V245.49H410.494V246.29ZM412.811 248.22C412.811 247.667 412.925 247.177 413.151 246.75C413.385 246.323 413.698 245.993 414.091 245.76C414.491 245.52 414.931 245.4 415.411 245.4C415.845 245.4 416.221 245.487 416.541 245.66C416.868 245.827 417.128 246.037 417.321 246.29V245.49H418.471V251H417.321V250.18C417.128 250.44 416.865 250.657 416.531 250.83C416.198 251.003 415.818 251.09 415.391 251.09C414.918 251.09 414.485 250.97 414.091 250.73C413.698 250.483 413.385 250.143 413.151 249.71C412.925 249.27 412.811 248.773 412.811 248.22ZM417.321 248.24C417.321 247.86 417.241 247.53 417.081 247.25C416.928 246.97 416.725 246.757 416.471 246.61C416.218 246.463 415.945 246.39 415.651 246.39C415.358 246.39 415.085 246.463 414.831 246.61C414.578 246.75 414.371 246.96 414.211 247.24C414.058 247.513 413.981 247.84 413.981 248.22C413.981 248.6 414.058 248.933 414.211 249.22C414.371 249.507 414.578 249.727 414.831 249.88C415.091 250.027 415.365 250.1 415.651 250.1C415.945 250.1 416.218 250.027 416.471 249.88C416.725 249.733 416.928 249.52 417.081 249.24C417.241 248.953 417.321 248.62 417.321 248.24ZM426.639 245.4C427.072 245.4 427.459 245.49 427.799 245.67C428.145 245.85 428.415 246.117 428.609 246.47C428.809 246.823 428.909 247.25 428.909 247.75V251H427.779V247.92C427.779 247.427 427.655 247.05 427.409 246.79C427.162 246.523 426.825 246.39 426.399 246.39C425.972 246.39 425.632 246.523 425.379 246.79C425.132 247.05 425.009 247.427 425.009 247.92V251H423.879V247.92C423.879 247.427 423.755 247.05 423.509 246.79C423.262 246.523 422.925 246.39 422.499 246.39C422.072 246.39 421.732 246.523 421.479 246.79C421.232 247.05 421.109 247.427 421.109 247.92V251H419.969V245.49H421.109V246.12C421.295 245.893 421.532 245.717 421.819 245.59C422.105 245.463 422.412 245.4 422.739 245.4C423.179 245.4 423.572 245.493 423.919 245.68C424.265 245.867 424.532 246.137 424.719 246.49C424.885 246.157 425.145 245.893 425.499 245.7C425.852 245.5 426.232 245.4 426.639 245.4ZM435.409 248.11C435.409 248.317 435.396 248.503 435.369 248.67H431.159C431.193 249.11 431.356 249.463 431.649 249.73C431.943 249.997 432.303 250.13 432.729 250.13C433.343 250.13 433.776 249.873 434.029 249.36H435.259C435.093 249.867 434.789 250.283 434.349 250.61C433.916 250.93 433.376 251.09 432.729 251.09C432.203 251.09 431.729 250.973 431.309 250.74C430.896 250.5 430.569 250.167 430.329 249.74C430.096 249.307 429.979 248.807 429.979 248.24C429.979 247.673 430.093 247.177 430.319 246.75C430.553 246.317 430.876 245.983 431.289 245.75C431.709 245.517 432.189 245.4 432.729 245.4C433.249 245.4 433.713 245.513 434.119 245.74C434.526 245.967 434.843 246.287 435.069 246.7C435.296 247.107 435.409 247.577 435.409 248.11ZM434.219 247.75C434.213 247.33 434.063 246.993 433.769 246.74C433.476 246.487 433.113 246.36 432.679 246.36C432.286 246.36 431.949 246.487 431.669 246.74C431.389 246.987 431.223 247.323 431.169 247.75H434.219ZM437.861 246.42V249.47C437.861 249.677 437.908 249.827 438.001 249.92C438.101 250.007 438.268 250.05 438.501 250.05H439.201V251H438.301C437.788 251 437.395 250.88 437.121 250.64C436.848 250.4 436.711 250.01 436.711 249.47V246.42H436.061V245.49H436.711V244.12H437.861V245.49H439.201V246.42H437.861ZM445.302 248.11C445.302 248.317 445.289 248.503 445.262 248.67H441.052C441.085 249.11 441.249 249.463 441.542 249.73C441.835 249.997 442.195 250.13 442.622 250.13C443.235 250.13 443.669 249.873 443.922 249.36H445.152C444.985 249.867 444.682 250.283 444.242 250.61C443.809 250.93 443.269 251.09 442.622 251.09C442.095 251.09 441.622 250.973 441.202 250.74C440.789 250.5 440.462 250.167 440.222 249.74C439.989 249.307 439.872 248.807 439.872 248.24C439.872 247.673 439.985 247.177 440.212 246.75C440.445 246.317 440.769 245.983 441.182 245.75C441.602 245.517 442.082 245.4 442.622 245.4C443.142 245.4 443.605 245.513 444.012 245.74C444.419 245.967 444.735 246.287 444.962 246.7C445.189 247.107 445.302 247.577 445.302 248.11ZM444.112 247.75C444.105 247.33 443.955 246.993 443.662 246.74C443.369 246.487 443.005 246.36 442.572 246.36C442.179 246.36 441.842 246.487 441.562 246.74C441.282 246.987 441.115 247.323 441.062 247.75H444.112ZM447.564 246.29C447.73 246.01 447.95 245.793 448.224 245.64C448.504 245.48 448.834 245.4 449.214 245.4V246.58H448.924C448.477 246.58 448.137 246.693 447.904 246.92C447.677 247.147 447.564 247.54 447.564 248.1V251H446.424V245.49H447.564V246.29ZM452.262 251.09C451.828 251.09 451.438 251.013 451.092 250.86C450.752 250.7 450.482 250.487 450.282 250.22C450.082 249.947 449.975 249.643 449.962 249.31H451.142C451.162 249.543 451.272 249.74 451.472 249.9C451.678 250.053 451.935 250.13 452.242 250.13C452.562 250.13 452.808 250.07 452.982 249.95C453.162 249.823 453.252 249.663 453.252 249.47C453.252 249.263 453.152 249.11 452.952 249.01C452.758 248.91 452.448 248.8 452.022 248.68C451.608 248.567 451.272 248.457 451.012 248.35C450.752 248.243 450.525 248.08 450.332 247.86C450.145 247.64 450.052 247.35 450.052 246.99C450.052 246.697 450.138 246.43 450.312 246.19C450.485 245.943 450.732 245.75 451.052 245.61C451.378 245.47 451.752 245.4 452.172 245.4C452.798 245.4 453.302 245.56 453.682 245.88C454.068 246.193 454.275 246.623 454.302 247.17H453.162C453.142 246.923 453.042 246.727 452.862 246.58C452.682 246.433 452.438 246.36 452.132 246.36C451.832 246.36 451.602 246.417 451.442 246.53C451.282 246.643 451.202 246.793 451.202 246.98C451.202 247.127 451.255 247.25 451.362 247.35C451.468 247.45 451.598 247.53 451.752 247.59C451.905 247.643 452.132 247.713 452.432 247.8C452.832 247.907 453.158 248.017 453.412 248.13C453.672 248.237 453.895 248.397 454.082 248.61C454.268 248.823 454.365 249.107 454.372 249.46C454.372 249.773 454.285 250.053 454.112 250.3C453.938 250.547 453.692 250.74 453.372 250.88C453.058 251.02 452.688 251.09 452.262 251.09ZM456.064 251.07C455.857 251.07 455.684 251 455.544 250.86C455.404 250.72 455.334 250.547 455.334 250.34C455.334 250.133 455.404 249.96 455.544 249.82C455.684 249.68 455.857 249.61 456.064 249.61C456.264 249.61 456.434 249.68 456.574 249.82C456.714 249.96 456.784 250.133 456.784 250.34C456.784 250.547 456.714 250.72 456.574 250.86C456.434 251 456.264 251.07 456.064 251.07ZM456.064 246.87C455.857 246.87 455.684 246.8 455.544 246.66C455.404 246.52 455.334 246.347 455.334 246.14C455.334 245.933 455.404 245.76 455.544 245.62C455.684 245.48 455.857 245.41 456.064 245.41C456.264 245.41 456.434 245.48 456.574 245.62C456.714 245.76 456.784 245.933 456.784 246.14C456.784 246.347 456.714 246.52 456.574 246.66C456.434 246.8 456.264 246.87 456.064 246.87ZM353.06 261.42H352.04V266H350.89V261.42H350.24V260.49H350.89V260.1C350.89 259.467 351.057 259.007 351.39 258.72C351.73 258.427 352.26 258.28 352.98 258.28V259.23C352.633 259.23 352.39 259.297 352.25 259.43C352.11 259.557 352.04 259.78 352.04 260.1V260.49H353.06V261.42ZM356.46 266.09C355.94 266.09 355.47 265.973 355.05 265.74C354.63 265.5 354.3 265.167 354.06 264.74C353.82 264.307 353.7 263.807 353.7 263.24C353.7 262.68 353.824 262.183 354.07 261.75C354.317 261.317 354.654 260.983 355.08 260.75C355.507 260.517 355.984 260.4 356.51 260.4C357.037 260.4 357.514 260.517 357.94 260.75C358.367 260.983 358.704 261.317 358.95 261.75C359.197 262.183 359.32 262.68 359.32 263.24C359.32 263.8 359.194 264.297 358.94 264.73C358.687 265.163 358.34 265.5 357.9 265.74C357.467 265.973 356.987 266.09 356.46 266.09ZM356.46 265.1C356.754 265.1 357.027 265.03 357.28 264.89C357.54 264.75 357.75 264.54 357.91 264.26C358.07 263.98 358.15 263.64 358.15 263.24C358.15 262.84 358.074 262.503 357.92 262.23C357.767 261.95 357.564 261.74 357.31 261.6C357.057 261.46 356.784 261.39 356.49 261.39C356.197 261.39 355.924 261.46 355.67 261.6C355.424 261.74 355.227 261.95 355.08 262.23C354.934 262.503 354.86 262.84 354.86 263.24C354.86 263.833 355.01 264.293 355.31 264.62C355.617 264.94 356 265.1 356.46 265.1ZM363.227 260.4C363.661 260.4 364.047 260.49 364.387 260.67C364.734 260.85 365.004 261.117 365.197 261.47C365.391 261.823 365.487 262.25 365.487 262.75V266H364.357V262.92C364.357 262.427 364.234 262.05 363.987 261.79C363.741 261.523 363.404 261.39 362.977 261.39C362.551 261.39 362.211 261.523 361.957 261.79C361.711 262.05 361.587 262.427 361.587 262.92V266H360.447V260.49H361.587V261.12C361.774 260.893 362.011 260.717 362.297 260.59C362.591 260.463 362.901 260.4 363.227 260.4ZM368.271 261.42V264.47C368.271 264.677 368.318 264.827 368.411 264.92C368.511 265.007 368.678 265.05 368.911 265.05H369.611V266H368.711C368.198 266 367.805 265.88 367.531 265.64C367.258 265.4 367.121 265.01 367.121 264.47V261.42H366.471V260.49H367.121V259.12H368.271V260.49H369.611V261.42H368.271ZM375.26 266.09C374.826 266.09 374.436 266.013 374.09 265.86C373.75 265.7 373.48 265.487 373.28 265.22C373.08 264.947 372.973 264.643 372.96 264.31H374.14C374.16 264.543 374.27 264.74 374.47 264.9C374.676 265.053 374.933 265.13 375.24 265.13C375.56 265.13 375.806 265.07 375.98 264.95C376.16 264.823 376.25 264.663 376.25 264.47C376.25 264.263 376.15 264.11 375.95 264.01C375.756 263.91 375.446 263.8 375.02 263.68C374.606 263.567 374.27 263.457 374.01 263.35C373.75 263.243 373.523 263.08 373.33 262.86C373.143 262.64 373.05 262.35 373.05 261.99C373.05 261.697 373.136 261.43 373.31 261.19C373.483 260.943 373.73 260.75 374.05 260.61C374.376 260.47 374.75 260.4 375.17 260.4C375.796 260.4 376.3 260.56 376.68 260.88C377.066 261.193 377.273 261.623 377.3 262.17H376.16C376.14 261.923 376.04 261.727 375.86 261.58C375.68 261.433 375.436 261.36 375.13 261.36C374.83 261.36 374.6 261.417 374.44 261.53C374.28 261.643 374.2 261.793 374.2 261.98C374.2 262.127 374.253 262.25 374.36 262.35C374.466 262.45 374.596 262.53 374.75 262.59C374.903 262.643 375.13 262.713 375.43 262.8C375.83 262.907 376.156 263.017 376.41 263.13C376.67 263.237 376.893 263.397 377.08 263.61C377.266 263.823 377.363 264.107 377.37 264.46C377.37 264.773 377.283 265.053 377.11 265.3C376.936 265.547 376.69 265.74 376.37 265.88C376.056 266.02 375.686 266.09 375.26 266.09ZM379.182 259.76C378.975 259.76 378.802 259.69 378.662 259.55C378.522 259.41 378.452 259.237 378.452 259.03C378.452 258.823 378.522 258.65 378.662 258.51C378.802 258.37 378.975 258.3 379.182 258.3C379.382 258.3 379.552 258.37 379.692 258.51C379.832 258.65 379.902 258.823 379.902 259.03C379.902 259.237 379.832 259.41 379.692 259.55C379.552 259.69 379.382 259.76 379.182 259.76ZM379.742 260.49V266H378.602V260.49H379.742ZM382.248 265.07H384.748V266H380.928V265.07L383.438 261.42H380.928V260.49H384.748V261.42L382.248 265.07ZM390.995 263.11C390.995 263.317 390.982 263.503 390.955 263.67H386.745C386.779 264.11 386.942 264.463 387.235 264.73C387.529 264.997 387.889 265.13 388.315 265.13C388.929 265.13 389.362 264.873 389.615 264.36H390.845C390.679 264.867 390.375 265.283 389.935 265.61C389.502 265.93 388.962 266.09 388.315 266.09C387.789 266.09 387.315 265.973 386.895 265.74C386.482 265.5 386.155 265.167 385.915 264.74C385.682 264.307 385.565 263.807 385.565 263.24C385.565 262.673 385.679 262.177 385.905 261.75C386.139 261.317 386.462 260.983 386.875 260.75C387.295 260.517 387.775 260.4 388.315 260.4C388.835 260.4 389.299 260.513 389.705 260.74C390.112 260.967 390.429 261.287 390.655 261.7C390.882 262.107 390.995 262.577 390.995 263.11ZM389.805 262.75C389.799 262.33 389.649 261.993 389.355 261.74C389.062 261.487 388.699 261.36 388.265 261.36C387.872 261.36 387.535 261.487 387.255 261.74C386.975 261.987 386.809 262.323 386.755 262.75H389.805ZM393.367 264.63L392.157 267.39H391.417L392.127 264.63H393.367ZM396.581 263.24C396.581 262.673 396.694 262.177 396.921 261.75C397.154 261.317 397.474 260.983 397.881 260.75C398.288 260.517 398.754 260.4 399.281 260.4C399.948 260.4 400.498 260.56 400.931 260.88C401.371 261.193 401.668 261.643 401.821 262.23H400.591C400.491 261.957 400.331 261.743 400.111 261.59C399.891 261.437 399.614 261.36 399.281 261.36C398.814 261.36 398.441 261.527 398.161 261.86C397.888 262.187 397.751 262.647 397.751 263.24C397.751 263.833 397.888 264.297 398.161 264.63C398.441 264.963 398.814 265.13 399.281 265.13C399.941 265.13 400.378 264.84 400.591 264.26H401.821C401.661 264.82 401.361 265.267 400.921 265.6C400.481 265.927 399.934 266.09 399.281 266.09C398.754 266.09 398.288 265.973 397.881 265.74C397.474 265.5 397.154 265.167 396.921 264.74C396.694 264.307 396.581 263.807 396.581 263.24ZM405.347 266.09C404.827 266.09 404.357 265.973 403.937 265.74C403.517 265.5 403.187 265.167 402.947 264.74C402.707 264.307 402.587 263.807 402.587 263.24C402.587 262.68 402.71 262.183 402.957 261.75C403.204 261.317 403.54 260.983 403.967 260.75C404.394 260.517 404.87 260.4 405.397 260.4C405.924 260.4 406.4 260.517 406.827 260.75C407.254 260.983 407.59 261.317 407.837 261.75C408.084 262.183 408.207 262.68 408.207 263.24C408.207 263.8 408.08 264.297 407.827 264.73C407.574 265.163 407.227 265.5 406.787 265.74C406.354 265.973 405.874 266.09 405.347 266.09ZM405.347 265.1C405.64 265.1 405.914 265.03 406.167 264.89C406.427 264.75 406.637 264.54 406.797 264.26C406.957 263.98 407.037 263.64 407.037 263.24C407.037 262.84 406.96 262.503 406.807 262.23C406.654 261.95 406.45 261.74 406.197 261.6C405.944 261.46 405.67 261.39 405.377 261.39C405.084 261.39 404.81 261.46 404.557 261.6C404.31 261.74 404.114 261.95 403.967 262.23C403.82 262.503 403.747 262.84 403.747 263.24C403.747 263.833 403.897 264.293 404.197 264.62C404.504 264.94 404.887 265.1 405.347 265.1ZM410.474 258.6V266H409.334V258.6H410.474ZM414.361 266.09C413.841 266.09 413.371 265.973 412.951 265.74C412.531 265.5 412.201 265.167 411.961 264.74C411.721 264.307 411.601 263.807 411.601 263.24C411.601 262.68 411.724 262.183 411.971 261.75C412.217 261.317 412.554 260.983 412.981 260.75C413.407 260.517 413.884 260.4 414.411 260.4C414.937 260.4 415.414 260.517 415.841 260.75C416.267 260.983 416.604 261.317 416.851 261.75C417.097 262.183 417.221 262.68 417.221 263.24C417.221 263.8 417.094 264.297 416.841 264.73C416.587 265.163 416.241 265.5 415.801 265.74C415.367 265.973 414.887 266.09 414.361 266.09ZM414.361 265.1C414.654 265.1 414.927 265.03 415.181 264.89C415.441 264.75 415.651 264.54 415.811 264.26C415.971 263.98 416.051 263.64 416.051 263.24C416.051 262.84 415.974 262.503 415.821 262.23C415.667 261.95 415.464 261.74 415.211 261.6C414.957 261.46 414.684 261.39 414.391 261.39C414.097 261.39 413.824 261.46 413.571 261.6C413.324 261.74 413.127 261.95 412.981 262.23C412.834 262.503 412.761 262.84 412.761 263.24C412.761 263.833 412.911 264.293 413.211 264.62C413.517 264.94 413.901 265.1 414.361 265.1ZM419.488 261.29C419.654 261.01 419.874 260.793 420.148 260.64C420.428 260.48 420.758 260.4 421.138 260.4V261.58H420.848C420.401 261.58 420.061 261.693 419.828 261.92C419.601 262.147 419.488 262.54 419.488 263.1V266H418.348V260.49H419.488V261.29ZM423.436 264.63L422.226 267.39H421.486L422.196 264.63H423.436ZM350.37 278.22C350.37 277.667 350.483 277.177 350.71 276.75C350.943 276.323 351.257 275.993 351.65 275.76C352.05 275.52 352.49 275.4 352.97 275.4C353.403 275.4 353.78 275.487 354.1 275.66C354.427 275.827 354.687 276.037 354.88 276.29V275.49H356.03V281H354.88V280.18C354.687 280.44 354.423 280.657 354.09 280.83C353.757 281.003 353.377 281.09 352.95 281.09C352.477 281.09 352.043 280.97 351.65 280.73C351.257 280.483 350.943 280.143 350.71 279.71C350.483 279.27 350.37 278.773 350.37 278.22ZM354.88 278.24C354.88 277.86 354.8 277.53 354.64 277.25C354.487 276.97 354.283 276.757 354.03 276.61C353.777 276.463 353.503 276.39 353.21 276.39C352.917 276.39 352.643 276.463 352.39 276.61C352.137 276.75 351.93 276.96 351.77 277.24C351.617 277.513 351.54 277.84 351.54 278.22C351.54 278.6 351.617 278.933 351.77 279.22C351.93 279.507 352.137 279.727 352.39 279.88C352.65 280.027 352.923 280.1 353.21 280.1C353.503 280.1 353.777 280.027 354.03 279.88C354.283 279.733 354.487 279.52 354.64 279.24C354.8 278.953 354.88 278.62 354.88 278.24ZM358.667 273.6V281H357.527V273.6H358.667ZM360.744 274.76C360.537 274.76 360.364 274.69 360.224 274.55C360.084 274.41 360.014 274.237 360.014 274.03C360.014 273.823 360.084 273.65 360.224 273.51C360.364 273.37 360.537 273.3 360.744 273.3C360.944 273.3 361.114 273.37 361.254 273.51C361.394 273.65 361.464 273.823 361.464 274.03C361.464 274.237 361.394 274.41 361.254 274.55C361.114 274.69 360.944 274.76 360.744 274.76ZM361.304 275.49V281H360.164V275.49H361.304ZM365.021 275.4C365.447 275.4 365.824 275.487 366.151 275.66C366.484 275.827 366.744 276.037 366.931 276.29V275.49H368.081V281.09C368.081 281.597 367.974 282.047 367.761 282.44C367.547 282.84 367.237 283.153 366.831 283.38C366.431 283.607 365.951 283.72 365.391 283.72C364.644 283.72 364.024 283.543 363.531 283.19C363.037 282.843 362.757 282.37 362.691 281.77H363.821C363.907 282.057 364.091 282.287 364.371 282.46C364.657 282.64 364.997 282.73 365.391 282.73C365.851 282.73 366.221 282.59 366.501 282.31C366.787 282.03 366.931 281.623 366.931 281.09V280.17C366.737 280.43 366.474 280.65 366.141 280.83C365.814 281.003 365.441 281.09 365.021 281.09C364.541 281.09 364.101 280.97 363.701 280.73C363.307 280.483 362.994 280.143 362.761 279.71C362.534 279.27 362.421 278.773 362.421 278.22C362.421 277.667 362.534 277.177 362.761 276.75C362.994 276.323 363.307 275.993 363.701 275.76C364.101 275.52 364.541 275.4 365.021 275.4ZM366.931 278.24C366.931 277.86 366.851 277.53 366.691 277.25C366.537 276.97 366.334 276.757 366.081 276.61C365.827 276.463 365.554 276.39 365.261 276.39C364.967 276.39 364.694 276.463 364.441 276.61C364.187 276.75 363.981 276.96 363.821 277.24C363.667 277.513 363.591 277.84 363.591 278.22C363.591 278.6 363.667 278.933 363.821 279.22C363.981 279.507 364.187 279.727 364.441 279.88C364.701 280.027 364.974 280.1 365.261 280.1C365.554 280.1 365.827 280.027 366.081 279.88C366.334 279.733 366.537 279.52 366.691 279.24C366.851 278.953 366.931 278.62 366.931 278.24ZM372.358 275.4C372.791 275.4 373.178 275.49 373.518 275.67C373.865 275.85 374.135 276.117 374.328 276.47C374.521 276.823 374.618 277.25 374.618 277.75V281H373.488V277.92C373.488 277.427 373.365 277.05 373.118 276.79C372.871 276.523 372.535 276.39 372.108 276.39C371.681 276.39 371.341 276.523 371.088 276.79C370.841 277.05 370.718 277.427 370.718 277.92V281H369.578V275.49H370.718V276.12C370.905 275.893 371.141 275.717 371.428 275.59C371.721 275.463 372.031 275.4 372.358 275.4ZM382.742 275.4C383.176 275.4 383.562 275.49 383.902 275.67C384.249 275.85 384.519 276.117 384.712 276.47C384.912 276.823 385.012 277.25 385.012 277.75V281H383.882V277.92C383.882 277.427 383.759 277.05 383.512 276.79C383.266 276.523 382.929 276.39 382.502 276.39C382.076 276.39 381.736 276.523 381.482 276.79C381.236 277.05 381.112 277.427 381.112 277.92V281H379.982V277.92C379.982 277.427 379.859 277.05 379.612 276.79C379.366 276.523 379.029 276.39 378.602 276.39C378.176 276.39 377.836 276.523 377.582 276.79C377.336 277.05 377.212 277.427 377.212 277.92V281H376.072V275.49H377.212V276.12C377.399 275.893 377.636 275.717 377.922 275.59C378.209 275.463 378.516 275.4 378.842 275.4C379.282 275.4 379.676 275.493 380.022 275.68C380.369 275.867 380.636 276.137 380.822 276.49C380.989 276.157 381.249 275.893 381.602 275.7C381.956 275.5 382.336 275.4 382.742 275.4ZM391.513 278.11C391.513 278.317 391.5 278.503 391.473 278.67H387.263C387.296 279.11 387.46 279.463 387.753 279.73C388.046 279.997 388.406 280.13 388.833 280.13C389.446 280.13 389.88 279.873 390.133 279.36H391.363C391.196 279.867 390.893 280.283 390.453 280.61C390.02 280.93 389.48 281.09 388.833 281.09C388.306 281.09 387.833 280.973 387.413 280.74C387 280.5 386.673 280.167 386.433 279.74C386.2 279.307 386.083 278.807 386.083 278.24C386.083 277.673 386.196 277.177 386.423 276.75C386.656 276.317 386.98 275.983 387.393 275.75C387.813 275.517 388.293 275.4 388.833 275.4C389.353 275.4 389.816 275.513 390.223 275.74C390.63 275.967 390.946 276.287 391.173 276.7C391.4 277.107 391.513 277.577 391.513 278.11ZM390.323 277.75C390.316 277.33 390.166 276.993 389.873 276.74C389.58 276.487 389.216 276.36 388.783 276.36C388.39 276.36 388.053 276.487 387.773 276.74C387.493 276.987 387.326 277.323 387.273 277.75H390.323ZM395.415 275.4C395.848 275.4 396.235 275.49 396.575 275.67C396.921 275.85 397.191 276.117 397.385 276.47C397.578 276.823 397.675 277.25 397.675 277.75V281H396.545V277.92C396.545 277.427 396.421 277.05 396.175 276.79C395.928 276.523 395.591 276.39 395.165 276.39C394.738 276.39 394.398 276.523 394.145 276.79C393.898 277.05 393.775 277.427 393.775 277.92V281H392.635V275.49H393.775V276.12C393.961 275.893 394.198 275.717 394.485 275.59C394.778 275.463 395.088 275.4 395.415 275.4ZM400.459 276.42V279.47C400.459 279.677 400.506 279.827 400.599 279.92C400.699 280.007 400.866 280.05 401.099 280.05H401.799V281H400.899C400.386 281 399.992 280.88 399.719 280.64C399.446 280.4 399.309 280.01 399.309 279.47V276.42H398.659V275.49H399.309V274.12H400.459V275.49H401.799V276.42H400.459ZM403.31 281.07C403.103 281.07 402.93 281 402.79 280.86C402.65 280.72 402.58 280.547 402.58 280.34C402.58 280.133 402.65 279.96 402.79 279.82C402.93 279.68 403.103 279.61 403.31 279.61C403.51 279.61 403.68 279.68 403.82 279.82C403.96 279.96 404.03 280.133 404.03 280.34C404.03 280.547 403.96 280.72 403.82 280.86C403.68 281 403.51 281.07 403.31 281.07Z" fill="black"/>
</svg>
