<svg xmlns="http://www.w3.org/2000/svg" fill="none" viewBox="0 0 140 42" height="42" width="140">
<path fill="white" d="M3.648 25.084C3.088 25.084 2.584 24.988 2.136 24.796C1.688 24.596 1.336 24.316 1.08 23.956C0.824 23.596 0.696 23.176 0.696 22.696H2.16C2.192 23.056 2.332 23.352 2.58 23.584C2.836 23.816 3.192 23.932 3.648 23.932C4.12 23.932 4.488 23.82 4.752 23.596C5.016 23.364 5.148 23.068 5.148 22.708C5.148 22.428 5.064 22.2 4.896 22.024C4.736 21.848 4.532 21.712 4.284 21.616C4.044 21.52 3.708 21.416 3.276 21.304C2.732 21.16 2.288 21.016 1.944 20.872C1.608 20.72 1.32 20.488 1.08 20.176C0.84 19.864 0.72 19.448 0.72 18.928C0.72 18.448 0.84 18.028 1.08 17.668C1.32 17.308 1.656 17.032 2.088 16.84C2.52 16.648 3.02 16.552 3.588 16.552C4.396 16.552 5.056 16.756 5.568 17.164C6.088 17.564 6.376 18.116 6.432 18.82H4.92C4.896 18.516 4.752 18.256 4.488 18.04C4.224 17.824 3.876 17.716 3.444 17.716C3.052 17.716 2.732 17.816 2.484 18.016C2.236 18.216 2.112 18.504 2.112 18.88C2.112 19.136 2.188 19.348 2.34 19.516C2.5 19.676 2.7 19.804 2.94 19.9C3.18 19.996 3.508 20.1 3.924 20.212C4.476 20.364 4.924 20.516 5.268 20.668C5.62 20.82 5.916 21.056 6.156 21.376C6.404 21.688 6.528 22.108 6.528 22.636C6.528 23.06 6.412 23.46 6.18 23.836C5.956 24.212 5.624 24.516 5.184 24.748C4.752 24.972 4.24 25.084 3.648 25.084ZM14.0942 18.388L10.0382 28.108H8.62219L9.96619 24.892L7.36219 18.388H8.88619L10.7462 23.428L12.6782 18.388H14.0942ZM18.4626 18.28C18.9826 18.28 19.4466 18.388 19.8546 18.604C20.2706 18.82 20.5946 19.14 20.8266 19.564C21.0586 19.988 21.1746 20.5 21.1746 21.1V25H19.8186V21.304C19.8186 20.712 19.6706 20.26 19.3746 19.948C19.0786 19.628 18.6746 19.468 18.1626 19.468C17.6506 19.468 17.2426 19.628 16.9386 19.948C16.6426 20.26 16.4946 20.712 16.4946 21.304V25H15.1266V18.388H16.4946V19.144C16.7186 18.872 17.0026 18.66 17.3466 18.508C17.6986 18.356 18.0706 18.28 18.4626 18.28ZM24.5155 19.504V23.164C24.5155 23.412 24.5715 23.592 24.6835 23.704C24.8035 23.808 25.0035 23.86 25.2835 23.86H26.1235V25H25.0435C24.4275 25 23.9555 24.856 23.6275 24.568C23.2995 24.28 23.1355 23.812 23.1355 23.164V19.504H22.3555V18.388H23.1355V16.744H24.5155V18.388H26.1235V19.504H24.5155ZM30.8044 18.28C31.3084 18.28 31.7564 18.388 32.1484 18.604C32.5484 18.82 32.8604 19.14 33.0844 19.564C33.3164 19.988 33.4324 20.5 33.4324 21.1V25H32.0764V21.304C32.0764 20.712 31.9284 20.26 31.6324 19.948C31.3364 19.628 30.9324 19.468 30.4204 19.468C29.9084 19.468 29.5004 19.628 29.1964 19.948C28.9004 20.26 28.7524 20.712 28.7524 21.304V25H27.3844V16.12H28.7524V19.156C28.9844 18.876 29.2764 18.66 29.6284 18.508C29.9884 18.356 30.3804 18.28 30.8044 18.28ZM39.6625 23.896H42.4825V25H38.2945V16.66H39.6625V23.896ZM49.6866 21.532C49.6866 21.78 49.6706 22.004 49.6386 22.204H44.5866C44.6266 22.732 44.8226 23.156 45.1746 23.476C45.5266 23.796 45.9586 23.956 46.4706 23.956C47.2066 23.956 47.7266 23.648 48.0306 23.032H49.5066C49.3066 23.64 48.9426 24.14 48.4146 24.532C47.8946 24.916 47.2466 25.108 46.4706 25.108C45.8386 25.108 45.2706 24.968 44.7666 24.688C44.2706 24.4 43.8786 24 43.5906 23.488C43.3106 22.968 43.1706 22.368 43.1706 21.688C43.1706 21.008 43.3066 20.412 43.5786 19.9C43.8586 19.38 44.2466 18.98 44.7426 18.7C45.2466 18.42 45.8226 18.28 46.4706 18.28C47.0946 18.28 47.6506 18.416 48.1386 18.688C48.6266 18.96 49.0066 19.344 49.2786 19.84C49.5506 20.328 49.6866 20.892 49.6866 21.532ZM48.2586 21.1C48.2506 20.596 48.0706 20.192 47.7186 19.888C47.3666 19.584 46.9306 19.432 46.4106 19.432C45.9386 19.432 45.5346 19.584 45.1986 19.888C44.8626 20.184 44.6626 20.588 44.5986 21.1H48.2586ZM50.5768 21.664C50.5768 21 50.7128 20.412 50.9848 19.9C51.2648 19.388 51.6408 18.992 52.1128 18.712C52.5928 18.424 53.1208 18.28 53.6968 18.28C54.2168 18.28 54.6688 18.384 55.0528 18.592C55.4448 18.792 55.7568 19.044 55.9888 19.348V18.388H57.3688V25H55.9888V24.016C55.7568 24.328 55.4408 24.588 55.0408 24.796C54.6408 25.004 54.1848 25.108 53.6728 25.108C53.1048 25.108 52.5848 24.964 52.1128 24.676C51.6408 24.38 51.2648 23.972 50.9848 23.452C50.7128 22.924 50.5768 22.328 50.5768 21.664ZM55.9888 21.688C55.9888 21.232 55.8928 20.836 55.7008 20.5C55.5168 20.164 55.2728 19.908 54.9688 19.732C54.6648 19.556 54.3368 19.468 53.9848 19.468C53.6328 19.468 53.3048 19.556 53.0008 19.732C52.6968 19.9 52.4488 20.152 52.2568 20.488C52.0728 20.816 51.9808 21.208 51.9808 21.664C51.9808 22.12 52.0728 22.52 52.2568 22.864C52.4488 23.208 52.6968 23.472 53.0008 23.656C53.3128 23.832 53.6408 23.92 53.9848 23.92C54.3368 23.92 54.6648 23.832 54.9688 23.656C55.2728 23.48 55.5168 23.224 55.7008 22.888C55.8928 22.544 55.9888 22.144 55.9888 21.688ZM58.7096 21.664C58.7096 21 58.8456 20.412 59.1176 19.9C59.3976 19.388 59.7736 18.992 60.2456 18.712C60.7256 18.424 61.2576 18.28 61.8416 18.28C62.2736 18.28 62.6976 18.376 63.1136 18.568C63.5376 18.752 63.8736 19 64.1216 19.312V16.12H65.5016V25H64.1216V24.004C63.8976 24.324 63.5856 24.588 63.1856 24.796C62.7936 25.004 62.3416 25.108 61.8296 25.108C61.2536 25.108 60.7256 24.964 60.2456 24.676C59.7736 24.38 59.3976 23.972 59.1176 23.452C58.8456 22.924 58.7096 22.328 58.7096 21.664ZM64.1216 21.688C64.1216 21.232 64.0256 20.836 63.8336 20.5C63.6496 20.164 63.4056 19.908 63.1016 19.732C62.7976 19.556 62.4696 19.468 62.1176 19.468C61.7656 19.468 61.4376 19.556 61.1336 19.732C60.8296 19.9 60.5816 20.152 60.3896 20.488C60.2056 20.816 60.1136 21.208 60.1136 21.664C60.1136 22.12 60.2056 22.52 60.3896 22.864C60.5816 23.208 60.8296 23.472 61.1336 23.656C61.4456 23.832 61.7736 23.92 62.1176 23.92C62.4696 23.92 62.7976 23.832 63.1016 23.656C63.4056 23.48 63.6496 23.224 63.8336 22.888C64.0256 22.544 64.1216 22.144 64.1216 21.688Z"></path>
</svg>
