<svg xmlns="http://www.w3.org/2000/svg" fill="none" viewBox="0 0 90 30" height="30" width="90">
<rect fill-opacity="0.25" fill="white" rx="15" height="30" width="90"></rect>
<path fill="black" d="M13.651 14.812C13.651 13.996 13.839 13.264 14.215 12.616C14.599 11.968 15.115 11.464 15.763 11.104C16.419 10.736 17.135 10.552 17.911 10.552C18.799 10.552 19.587 10.772 20.275 11.212C20.971 11.644 21.475 12.26 21.787 13.06H20.143C19.927 12.62 19.627 12.292 19.243 12.076C18.859 11.86 18.415 11.752 17.911 11.752C17.359 11.752 16.867 11.876 16.435 12.124C16.003 12.372 15.663 12.728 15.415 13.192C15.175 13.656 15.055 14.196 15.055 14.812C15.055 15.428 15.175 15.968 15.415 16.432C15.663 16.896 16.003 17.256 16.435 17.512C16.867 17.76 17.359 17.884 17.911 17.884C18.415 17.884 18.859 17.776 19.243 17.56C19.627 17.344 19.927 17.016 20.143 16.576H21.787C21.475 17.376 20.971 17.992 20.275 18.424C19.587 18.856 18.799 19.072 17.911 19.072C17.127 19.072 16.411 18.892 15.763 18.532C15.115 18.164 14.599 17.656 14.215 17.008C13.839 16.36 13.651 15.628 13.651 14.812ZM22.9323 15.664C22.9323 15 23.0683 14.412 23.3403 13.9C23.6203 13.388 23.9963 12.992 24.4683 12.712C24.9483 12.424 25.4763 12.28 26.0523 12.28C26.5723 12.28 27.0243 12.384 27.4083 12.592C27.8003 12.792 28.1123 13.044 28.3443 13.348V12.388H29.7243V19H28.3443V18.016C28.1123 18.328 27.7963 18.588 27.3963 18.796C26.9963 19.004 26.5403 19.108 26.0283 19.108C25.4603 19.108 24.9403 18.964 24.4683 18.676C23.9963 18.38 23.6203 17.972 23.3403 17.452C23.0683 16.924 22.9323 16.328 22.9323 15.664ZM28.3443 15.688C28.3443 15.232 28.2483 14.836 28.0563 14.5C27.8723 14.164 27.6283 13.908 27.3243 13.732C27.0203 13.556 26.6923 13.468 26.3403 13.468C25.9883 13.468 25.6603 13.556 25.3563 13.732C25.0523 13.9 24.8043 14.152 24.6123 14.488C24.4283 14.816 24.3363 15.208 24.3363 15.664C24.3363 16.12 24.4283 16.52 24.6123 16.864C24.8043 17.208 25.0523 17.472 25.3563 17.656C25.6683 17.832 25.9963 17.92 26.3403 17.92C26.6923 17.92 27.0203 17.832 27.3243 17.656C27.6283 17.48 27.8723 17.224 28.0563 16.888C28.2483 16.544 28.3443 16.144 28.3443 15.688ZM32.8891 10.12V19H31.5211V10.12H32.8891ZM34.2292 15.688C34.2292 15.008 34.3652 14.412 34.6372 13.9C34.9172 13.38 35.3012 12.98 35.7892 12.7C36.2772 12.42 36.8372 12.28 37.4692 12.28C38.2692 12.28 38.9292 12.472 39.4492 12.856C39.9772 13.232 40.3332 13.772 40.5172 14.476H39.0412C38.9212 14.148 38.7292 13.892 38.4652 13.708C38.2012 13.524 37.8692 13.432 37.4692 13.432C36.9092 13.432 36.4612 13.632 36.1252 14.032C35.7972 14.424 35.6332 14.976 35.6332 15.688C35.6332 16.4 35.7972 16.956 36.1252 17.356C36.4612 17.756 36.9092 17.956 37.4692 17.956C38.2612 17.956 38.7852 17.608 39.0412 16.912H40.5172C40.3252 17.584 39.9652 18.12 39.4372 18.52C38.9092 18.912 38.2532 19.108 37.4692 19.108C36.8372 19.108 36.2772 18.968 35.7892 18.688C35.3012 18.4 34.9172 18 34.6372 17.488C34.3652 16.968 34.2292 16.368 34.2292 15.688ZM47.8685 12.388V19H46.5005V18.22C46.2845 18.492 46.0005 18.708 45.6485 18.868C45.3045 19.02 44.9365 19.096 44.5445 19.096C44.0245 19.096 43.5565 18.988 43.1405 18.772C42.7325 18.556 42.4085 18.236 42.1685 17.812C41.9365 17.388 41.8205 16.876 41.8205 16.276V12.388H43.1765V16.072C43.1765 16.664 43.3245 17.12 43.6205 17.44C43.9165 17.752 44.3205 17.908 44.8325 17.908C45.3445 17.908 45.7485 17.752 46.0445 17.44C46.3485 17.12 46.5005 16.664 46.5005 16.072V12.388H47.8685ZM51.0414 10.12V19H49.6734V10.12H51.0414ZM52.3815 15.664C52.3815 15 52.5175 14.412 52.7895 13.9C53.0695 13.388 53.4455 12.992 53.9175 12.712C54.3975 12.424 54.9255 12.28 55.5015 12.28C56.0215 12.28 56.4735 12.384 56.8575 12.592C57.2495 12.792 57.5615 13.044 57.7935 13.348V12.388H59.1735V19H57.7935V18.016C57.5615 18.328 57.2455 18.588 56.8455 18.796C56.4455 19.004 55.9895 19.108 55.4775 19.108C54.9095 19.108 54.3895 18.964 53.9175 18.676C53.4455 18.38 53.0695 17.972 52.7895 17.452C52.5175 16.924 52.3815 16.328 52.3815 15.664ZM57.7935 15.688C57.7935 15.232 57.6975 14.836 57.5055 14.5C57.3215 14.164 57.0775 13.908 56.7735 13.732C56.4695 13.556 56.1415 13.468 55.7895 13.468C55.4375 13.468 55.1095 13.556 54.8055 13.732C54.5015 13.9 54.2535 14.152 54.0615 14.488C53.8775 14.816 53.7855 15.208 53.7855 15.664C53.7855 16.12 53.8775 16.52 54.0615 16.864C54.2535 17.208 54.5015 17.472 54.8055 17.656C55.1175 17.832 55.4455 17.92 55.7895 17.92C56.1415 17.92 56.4695 17.832 56.7735 17.656C57.0775 17.48 57.3215 17.224 57.5055 16.888C57.6975 16.544 57.7935 16.144 57.7935 15.688ZM62.5663 13.504V17.164C62.5663 17.412 62.6223 17.592 62.7343 17.704C62.8543 17.808 63.0543 17.86 63.3343 17.86H64.1743V19H63.0943C62.4783 19 62.0063 18.856 61.6783 18.568C61.3503 18.28 61.1863 17.812 61.1863 17.164V13.504H60.4063V12.388H61.1863V10.744H62.5663V12.388H64.1743V13.504H62.5663ZM68.3032 19.108C67.6792 19.108 67.1152 18.968 66.6112 18.688C66.1072 18.4 65.7112 18 65.4232 17.488C65.1352 16.968 64.9912 16.368 64.9912 15.688C64.9912 15.016 65.1392 14.42 65.4352 13.9C65.7312 13.38 66.1352 12.98 66.6472 12.7C67.1592 12.42 67.7312 12.28 68.3632 12.28C68.9952 12.28 69.5672 12.42 70.0792 12.7C70.5912 12.98 70.9952 13.38 71.2912 13.9C71.5872 14.42 71.7352 15.016 71.7352 15.688C71.7352 16.36 71.5832 16.956 71.2792 17.476C70.9752 17.996 70.5592 18.4 70.0312 18.688C69.5112 18.968 68.9352 19.108 68.3032 19.108ZM68.3032 17.92C68.6552 17.92 68.9832 17.836 69.2872 17.668C69.5992 17.5 69.8512 17.248 70.0432 16.912C70.2352 16.576 70.3312 16.168 70.3312 15.688C70.3312 15.208 70.2392 14.804 70.0552 14.476C69.8712 14.14 69.6272 13.888 69.3232 13.72C69.0192 13.552 68.6912 13.468 68.3392 13.468C67.9872 13.468 67.6592 13.552 67.3552 13.72C67.0592 13.888 66.8232 14.14 66.6472 14.476C66.4712 14.804 66.3832 15.208 66.3832 15.688C66.3832 16.4 66.5632 16.952 66.9232 17.344C67.2912 17.728 67.7512 17.92 68.3032 17.92ZM74.4555 13.348C74.6555 13.012 74.9195 12.752 75.2475 12.568C75.5835 12.376 75.9795 12.28 76.4355 12.28V13.696H76.0875C75.5515 13.696 75.1435 13.832 74.8635 14.104C74.5915 14.376 74.4555 14.848 74.4555 15.52V19H73.0875V12.388H74.4555V13.348Z"></path>
</svg>
