<svg width="480" height="360" viewBox="0 0 480 360" fill="none" xmlns="http://www.w3.org/2000/svg">
<rect x="290" y="150" width="180" height="120" rx="15" fill="white" fill-opacity="0.5"/>
<path d="M377 200H383C384.105 200 385 200.895 385 202V208C385 209.105 384.105 210 383 210H377C375.895 210 375 209.105 375 208V202C375 200.895 375.895 200 377 200Z" stroke="black" stroke-width="2"/>
<path d="M416.53 200.26L422.756 204.152C423.383 204.544 423.383 205.456 422.756 205.848L416.53 209.74C415.864 210.156 415 209.677 415 208.892V201.108C415 200.323 415.864 199.844 416.53 200.26Z" stroke="black" stroke-width="2"/>
<rect x="424" y="199" width="2" height="12" rx="1" fill="black"/>
<path d="M343.47 209.74L337.244 205.848C336.617 205.456 336.617 204.544 337.244 204.152L343.47 200.26C344.136 199.844 345 200.323 345 201.108L345 208.892C345 209.677 344.136 210.156 343.47 209.74Z" stroke="black" stroke-width="2"/>
<rect x="336" y="211" width="2" height="12" rx="1" transform="rotate(180 336 211)" fill="black"/>
<path d="M341.556 169.58H338.646L338.146 171H336.956L339.446 164.04H340.766L343.256 171H342.056L341.556 169.58ZM341.236 168.65L340.106 165.42L338.966 168.65H341.236ZM345.479 166.29C345.646 166.01 345.866 165.793 346.139 165.64C346.419 165.48 346.749 165.4 347.129 165.4V166.58H346.839C346.392 166.58 346.052 166.693 345.819 166.92C345.592 167.147 345.479 167.54 345.479 168.1V171H344.339V165.49H345.479V166.29ZM353.227 168.11C353.227 168.317 353.213 168.503 353.187 168.67H348.977C349.01 169.11 349.173 169.463 349.467 169.73C349.76 169.997 350.12 170.13 350.547 170.13C351.16 170.13 351.593 169.873 351.847 169.36H353.077C352.91 169.867 352.607 170.283 352.167 170.61C351.733 170.93 351.193 171.09 350.547 171.09C350.02 171.09 349.547 170.973 349.127 170.74C348.713 170.5 348.387 170.167 348.147 169.74C347.913 169.307 347.797 168.807 347.797 168.24C347.797 167.673 347.91 167.177 348.137 166.75C348.37 166.317 348.693 165.983 349.107 165.75C349.527 165.517 350.007 165.4 350.547 165.4C351.067 165.4 351.53 165.513 351.937 165.74C352.343 165.967 352.66 166.287 352.887 166.7C353.113 167.107 353.227 167.577 353.227 168.11ZM352.037 167.75C352.03 167.33 351.88 166.993 351.587 166.74C351.293 166.487 350.93 166.36 350.497 166.36C350.103 166.36 349.767 166.487 349.487 166.74C349.207 166.987 349.04 167.323 348.987 167.75H352.037ZM362.096 164.05L359.796 168.48V171H358.656V168.48L356.346 164.05H357.616L359.226 167.46L360.836 164.05H362.096ZM365.391 171.09C364.871 171.09 364.401 170.973 363.981 170.74C363.561 170.5 363.231 170.167 362.991 169.74C362.751 169.307 362.631 168.807 362.631 168.24C362.631 167.68 362.754 167.183 363.001 166.75C363.248 166.317 363.584 165.983 364.011 165.75C364.438 165.517 364.914 165.4 365.441 165.4C365.968 165.4 366.444 165.517 366.871 165.75C367.298 165.983 367.634 166.317 367.881 166.75C368.128 167.183 368.251 167.68 368.251 168.24C368.251 168.8 368.124 169.297 367.871 169.73C367.618 170.163 367.271 170.5 366.831 170.74C366.398 170.973 365.918 171.09 365.391 171.09ZM365.391 170.1C365.684 170.1 365.958 170.03 366.211 169.89C366.471 169.75 366.681 169.54 366.841 169.26C367.001 168.98 367.081 168.64 367.081 168.24C367.081 167.84 367.004 167.503 366.851 167.23C366.698 166.95 366.494 166.74 366.241 166.6C365.988 166.46 365.714 166.39 365.421 166.39C365.128 166.39 364.854 166.46 364.601 166.6C364.354 166.74 364.158 166.95 364.011 167.23C363.864 167.503 363.791 167.84 363.791 168.24C363.791 168.833 363.941 169.293 364.241 169.62C364.548 169.94 364.931 170.1 365.391 170.1ZM374.368 165.49V171H373.228V170.35C373.048 170.577 372.811 170.757 372.518 170.89C372.231 171.017 371.925 171.08 371.598 171.08C371.165 171.08 370.775 170.99 370.428 170.81C370.088 170.63 369.818 170.363 369.618 170.01C369.425 169.657 369.328 169.23 369.328 168.73V165.49H370.458V168.56C370.458 169.053 370.581 169.433 370.828 169.7C371.075 169.96 371.411 170.09 371.838 170.09C372.265 170.09 372.601 169.96 372.848 169.7C373.101 169.433 373.228 169.053 373.228 168.56V165.49H374.368ZM387.52 164.05L385.46 171H384.17L382.71 165.74L381.16 171L379.88 171.01L377.91 164.05H379.12L380.56 169.71L382.12 164.05H383.4L384.85 169.68L386.3 164.05H387.52ZM389.04 164.76C388.833 164.76 388.66 164.69 388.52 164.55C388.38 164.41 388.31 164.237 388.31 164.03C388.31 163.823 388.38 163.65 388.52 163.51C388.66 163.37 388.833 163.3 389.04 163.3C389.24 163.3 389.41 163.37 389.55 163.51C389.69 163.65 389.76 163.823 389.76 164.03C389.76 164.237 389.69 164.41 389.55 164.55C389.41 164.69 389.24 164.76 389.04 164.76ZM389.6 165.49V171H388.46V165.49H389.6ZM392.427 166.42V169.47C392.427 169.677 392.473 169.827 392.567 169.92C392.667 170.007 392.833 170.05 393.067 170.05H393.767V171H392.867C392.353 171 391.96 170.88 391.687 170.64C391.413 170.4 391.277 170.01 391.277 169.47V166.42H390.627V165.49H391.277V164.12H392.427V165.49H393.767V166.42H392.427ZM397.667 165.4C398.087 165.4 398.461 165.49 398.787 165.67C399.121 165.85 399.381 166.117 399.567 166.47C399.761 166.823 399.857 167.25 399.857 167.75V171H398.727V167.92C398.727 167.427 398.604 167.05 398.357 166.79C398.111 166.523 397.774 166.39 397.347 166.39C396.921 166.39 396.581 166.523 396.327 166.79C396.081 167.05 395.957 167.427 395.957 167.92V171H394.817V163.6H395.957V166.13C396.151 165.897 396.394 165.717 396.687 165.59C396.987 165.463 397.314 165.4 397.667 165.4ZM405.039 164.05V168.48C405.039 169.007 405.176 169.403 405.449 169.67C405.729 169.937 406.116 170.07 406.609 170.07C407.109 170.07 407.496 169.937 407.769 169.67C408.049 169.403 408.189 169.007 408.189 168.48V164.05H409.329V168.46C409.329 169.027 409.206 169.507 408.959 169.9C408.713 170.293 408.383 170.587 407.969 170.78C407.556 170.973 407.099 171.07 406.599 171.07C406.099 171.07 405.643 170.973 405.229 170.78C404.823 170.587 404.499 170.293 404.259 169.9C404.019 169.507 403.899 169.027 403.899 168.46V164.05H405.039ZM412.813 171.09C412.38 171.09 411.99 171.013 411.643 170.86C411.303 170.7 411.033 170.487 410.833 170.22C410.633 169.947 410.527 169.643 410.513 169.31H411.693C411.713 169.543 411.823 169.74 412.023 169.9C412.23 170.053 412.487 170.13 412.793 170.13C413.113 170.13 413.36 170.07 413.533 169.95C413.713 169.823 413.803 169.663 413.803 169.47C413.803 169.263 413.703 169.11 413.503 169.01C413.31 168.91 413 168.8 412.573 168.68C412.16 168.567 411.823 168.457 411.563 168.35C411.303 168.243 411.077 168.08 410.883 167.86C410.697 167.64 410.603 167.35 410.603 166.99C410.603 166.697 410.69 166.43 410.863 166.19C411.037 165.943 411.283 165.75 411.603 165.61C411.93 165.47 412.303 165.4 412.723 165.4C413.35 165.4 413.853 165.56 414.233 165.88C414.62 166.193 414.827 166.623 414.853 167.17H413.713C413.693 166.923 413.593 166.727 413.413 166.58C413.233 166.433 412.99 166.36 412.683 166.36C412.383 166.36 412.153 166.417 411.993 166.53C411.833 166.643 411.753 166.793 411.753 166.98C411.753 167.127 411.807 167.25 411.913 167.35C412.02 167.45 412.15 167.53 412.303 167.59C412.457 167.643 412.683 167.713 412.983 167.8C413.383 167.907 413.71 168.017 413.963 168.13C414.223 168.237 414.447 168.397 414.633 168.61C414.82 168.823 414.917 169.107 414.923 169.46C414.923 169.773 414.837 170.053 414.663 170.3C414.49 170.547 414.243 170.74 413.923 170.88C413.61 171.02 413.24 171.09 412.813 171.09ZM420.623 163.95C421.303 163.95 421.846 164.137 422.253 164.51C422.666 164.883 422.873 165.393 422.873 166.04C422.873 166.713 422.66 167.22 422.233 167.56C421.806 167.9 421.24 168.07 420.533 168.07L420.493 168.86H419.503L419.453 167.29H419.783C420.43 167.29 420.923 167.203 421.263 167.03C421.61 166.857 421.783 166.527 421.783 166.04C421.783 165.687 421.68 165.41 421.473 165.21C421.273 165.01 420.993 164.91 420.633 164.91C420.273 164.91 419.99 165.007 419.783 165.2C419.576 165.393 419.473 165.663 419.473 166.01H418.403C418.403 165.61 418.493 165.253 418.673 164.94C418.853 164.627 419.11 164.383 419.443 164.21C419.783 164.037 420.176 163.95 420.623 163.95ZM419.983 171.07C419.776 171.07 419.603 171 419.463 170.86C419.323 170.72 419.253 170.547 419.253 170.34C419.253 170.133 419.323 169.96 419.463 169.82C419.603 169.68 419.776 169.61 419.983 169.61C420.183 169.61 420.353 169.68 420.493 169.82C420.633 169.96 420.703 170.133 420.703 170.34C420.703 170.547 420.633 170.72 420.493 170.86C420.353 171 420.183 171.07 419.983 171.07Z" fill="black"/>
<path d="M369.836 178.44L368.188 184H367.156L365.988 179.792L364.748 184L363.724 184.008L362.148 178.44H363.116L364.268 182.968L365.516 178.44H366.54L367.7 182.944L368.86 178.44H369.836ZM372.5 184.072C372.084 184.072 371.708 183.979 371.372 183.792C371.036 183.6 370.772 183.333 370.58 182.992C370.388 182.645 370.292 182.245 370.292 181.792C370.292 181.344 370.391 180.947 370.588 180.6C370.786 180.253 371.055 179.987 371.396 179.8C371.738 179.613 372.119 179.52 372.54 179.52C372.962 179.52 373.343 179.613 373.684 179.8C374.026 179.987 374.295 180.253 374.492 180.6C374.69 180.947 374.788 181.344 374.788 181.792C374.788 182.24 374.687 182.637 374.484 182.984C374.282 183.331 374.004 183.6 373.652 183.792C373.306 183.979 372.922 184.072 372.5 184.072ZM372.5 183.28C372.735 183.28 372.954 183.224 373.156 183.112C373.364 183 373.532 182.832 373.66 182.608C373.788 182.384 373.852 182.112 373.852 181.792C373.852 181.472 373.791 181.203 373.668 180.984C373.546 180.76 373.383 180.592 373.18 180.48C372.978 180.368 372.759 180.312 372.524 180.312C372.29 180.312 372.071 180.368 371.868 180.48C371.671 180.592 371.514 180.76 371.396 180.984C371.279 181.203 371.22 181.472 371.22 181.792C371.22 182.267 371.34 182.635 371.58 182.896C371.826 183.152 372.132 183.28 372.5 183.28ZM377.914 179.52C378.261 179.52 378.57 179.592 378.842 179.736C379.119 179.88 379.335 180.093 379.49 180.376C379.645 180.659 379.722 181 379.722 181.4V184H378.818V181.536C378.818 181.141 378.719 180.84 378.522 180.632C378.325 180.419 378.055 180.312 377.714 180.312C377.373 180.312 377.101 180.419 376.898 180.632C376.701 180.84 376.602 181.141 376.602 181.536V184H375.69V179.592H376.602V180.096C376.751 179.915 376.941 179.773 377.17 179.672C377.405 179.571 377.653 179.52 377.914 179.52ZM381.949 180.336V182.776C381.949 182.941 381.986 183.061 382.061 183.136C382.141 183.205 382.274 183.24 382.461 183.24H383.021V184H382.301C381.89 184 381.576 183.904 381.357 183.712C381.138 183.52 381.029 183.208 381.029 182.776V180.336H380.509V179.592H381.029V178.496H381.949V179.592H383.021V180.336H381.949ZM385.774 184.072C385.358 184.072 384.982 183.979 384.646 183.792C384.31 183.6 384.046 183.333 383.854 182.992C383.662 182.645 383.566 182.245 383.566 181.792C383.566 181.344 383.664 180.947 383.862 180.6C384.059 180.253 384.328 179.987 384.67 179.8C385.011 179.613 385.392 179.52 385.814 179.52C386.235 179.52 386.616 179.613 386.958 179.8C387.299 179.987 387.568 180.253 387.766 180.6C387.963 180.947 388.062 181.344 388.062 181.792C388.062 182.24 387.96 182.637 387.758 182.984C387.555 183.331 387.278 183.6 386.926 183.792C386.579 183.979 386.195 184.072 385.774 184.072ZM385.774 183.28C386.008 183.28 386.227 183.224 386.43 183.112C386.638 183 386.806 182.832 386.934 182.608C387.062 182.384 387.126 182.112 387.126 181.792C387.126 181.472 387.064 181.203 386.942 180.984C386.819 180.76 386.656 180.592 386.454 180.48C386.251 180.368 386.032 180.312 385.798 180.312C385.563 180.312 385.344 180.368 385.142 180.48C384.944 180.592 384.787 180.76 384.67 180.984C384.552 181.203 384.494 181.472 384.494 181.792C384.494 182.267 384.614 182.635 384.854 182.896C385.099 183.152 385.406 183.28 385.774 183.28ZM389.875 178.08V184H388.963V178.08H389.875ZM391.985 178.08V184H391.073V178.08H391.985ZM392.878 181.776C392.878 181.333 392.969 180.941 393.15 180.6C393.337 180.259 393.587 179.995 393.902 179.808C394.222 179.616 394.574 179.52 394.958 179.52C395.305 179.52 395.606 179.589 395.862 179.728C396.123 179.861 396.331 180.029 396.486 180.232V179.592H397.406V184H396.486V183.344C396.331 183.552 396.121 183.725 395.854 183.864C395.587 184.003 395.283 184.072 394.942 184.072C394.563 184.072 394.217 183.976 393.902 183.784C393.587 183.587 393.337 183.315 393.15 182.968C392.969 182.616 392.878 182.219 392.878 181.776ZM396.486 181.792C396.486 181.488 396.422 181.224 396.294 181C396.171 180.776 396.009 180.605 395.806 180.488C395.603 180.371 395.385 180.312 395.15 180.312C394.915 180.312 394.697 180.371 394.494 180.488C394.291 180.6 394.126 180.768 393.998 180.992C393.875 181.211 393.814 181.472 393.814 181.776C393.814 182.08 393.875 182.347 393.998 182.576C394.126 182.805 394.291 182.981 394.494 183.104C394.702 183.221 394.921 183.28 395.15 183.28C395.385 183.28 395.603 183.221 395.806 183.104C396.009 182.987 396.171 182.816 396.294 182.592C396.422 182.363 396.486 182.096 396.486 181.792Z" fill="#808080"/>
<rect x="305" y="235" width="150" height="20" rx="10" fill="black" fill-opacity="0.1"/>
</svg>
