<svg xmlns="http://www.w3.org/2000/svg" fill="none" viewBox="0 0 260 90" height="90" width="260">
<path fill="white" d="M21.9225 35.504C21.1545 35.504 20.4505 35.3227 19.8105 34.96C19.1918 34.576 18.6905 34.0747 18.3065 33.456C17.9438 32.816 17.7625 32.112 17.7625 31.344C17.7625 30.1707 18.1678 29.1787 18.9785 28.368C19.7892 27.5573 20.7705 27.152 21.9225 27.152C23.1172 27.152 24.1198 27.5573 24.9305 28.368C25.7412 29.1787 26.1465 30.1707 26.1465 31.344C26.1465 32.5173 25.7412 33.5093 24.9305 34.32C24.1198 35.1093 23.1172 35.504 21.9225 35.504ZM56.1523 26.16C55.5763 25.0507 54.7763 24.2187 53.7523 23.664C52.7283 23.088 51.5443 22.8 50.2003 22.8C48.7283 22.8 47.4163 23.1307 46.2643 23.792C45.1123 24.4533 44.2056 25.392 43.5443 26.608C42.9043 27.824 42.5843 29.232 42.5843 30.832C42.5843 32.432 42.9043 33.8507 43.5443 35.088C44.2056 36.304 45.1123 37.2427 46.2643 37.904C47.4163 38.5653 48.7283 38.896 50.2003 38.896C52.1843 38.896 53.7949 38.3413 55.0323 37.232C56.2696 36.1227 57.0269 34.6187 57.3043 32.72H48.9523V29.808H61.2083V32.656C60.9736 34.384 60.3549 35.9733 59.3523 37.424C58.3709 38.8747 57.0803 40.0373 55.4803 40.912C53.9016 41.7653 52.1416 42.192 50.2003 42.192C48.1096 42.192 46.2003 41.712 44.4723 40.752C42.7443 39.7707 41.3683 38.416 40.3443 36.688C39.3416 34.96 38.8403 33.008 38.8403 30.832C38.8403 28.656 39.3416 26.704 40.3443 24.976C41.3683 23.248 42.7443 21.904 44.4723 20.944C46.2216 19.9627 48.1309 19.472 50.2003 19.472C52.5683 19.472 54.6696 20.0587 56.5043 21.232C58.3603 22.384 59.7043 24.0267 60.5363 26.16H56.1523ZM78.2143 37.456H68.9023L67.3023 42H63.4943L71.4623 19.728H75.6863L83.6543 42H79.8143L78.2143 37.456ZM77.1903 34.48L73.5743 24.144L69.9263 34.48H77.1903ZM110.543 19.76V42H106.895V26.768L100.111 42H97.5828L90.7668 26.768V42H87.1188V19.76H91.0548L98.8628 37.2L106.639 19.76H110.543ZM118.986 22.704V29.232H126.666V32.208H118.986V39.024H127.626V42H115.338V19.728H127.626V22.704H118.986ZM150.575 42.224C148.506 42.224 146.597 41.744 144.847 40.784C143.119 39.8027 141.743 38.448 140.719 36.72C139.717 34.9707 139.215 33.008 139.215 30.832C139.215 28.656 139.717 26.704 140.719 24.976C141.743 23.248 143.119 21.904 144.847 20.944C146.597 19.9627 148.506 19.472 150.575 19.472C152.666 19.472 154.575 19.9627 156.303 20.944C158.053 21.904 159.429 23.248 160.431 24.976C161.434 26.704 161.935 28.656 161.935 30.832C161.935 33.008 161.434 34.9707 160.431 36.72C159.429 38.448 158.053 39.8027 156.303 40.784C154.575 41.744 152.666 42.224 150.575 42.224ZM150.575 39.056C152.047 39.056 153.359 38.7253 154.511 38.064C155.663 37.3813 156.559 36.4213 157.199 35.184C157.861 33.9253 158.191 32.4747 158.191 30.832C158.191 29.1893 157.861 27.7493 157.199 26.512C156.559 25.2747 155.663 24.3253 154.511 23.664C153.359 23.0027 152.047 22.672 150.575 22.672C149.103 22.672 147.791 23.0027 146.639 23.664C145.487 24.3253 144.581 25.2747 143.919 26.512C143.279 27.7493 142.959 29.1893 142.959 30.832C142.959 32.4747 143.279 33.9253 143.919 35.184C144.581 36.4213 145.487 37.3813 146.639 38.064C147.791 38.7253 149.103 39.056 150.575 39.056ZM184.693 19.76L176.341 42H172.117L163.733 19.76H167.637L174.229 38.256L180.853 19.76H184.693ZM191.392 22.704V29.232H199.072V32.208H191.392V39.024H200.032V42H187.744V19.728H200.032V22.704H191.392ZM216.077 42L210.957 33.104H208.173V42H204.525V19.76H212.205C213.912 19.76 215.352 20.0587 216.525 20.656C217.72 21.2533 218.605 22.0533 219.181 23.056C219.778 24.0587 220.077 25.1787 220.077 26.416C220.077 27.8667 219.65 29.1893 218.797 30.384C217.965 31.5573 216.674 32.3573 214.925 32.784L220.429 42H216.077ZM208.173 30.192H212.205C213.57 30.192 214.594 29.8507 215.277 29.168C215.981 28.4853 216.333 27.568 216.333 26.416C216.333 25.264 215.992 24.368 215.309 23.728C214.626 23.0667 213.592 22.736 212.205 22.736H208.173V30.192ZM238.016 35.504C237.248 35.504 236.544 35.3227 235.904 34.96C235.286 34.576 234.784 34.0747 234.4 33.456C234.038 32.816 233.856 32.112 233.856 31.344C233.856 30.1707 234.262 29.1787 235.072 28.368C235.883 27.5573 236.864 27.152 238.016 27.152C239.211 27.152 240.214 27.5573 241.024 28.368C241.835 29.1787 242.24 30.1707 242.24 31.344C242.24 32.5173 241.835 33.5093 241.024 34.32C240.214 35.1093 239.211 35.504 238.016 35.504ZM79.9128 73.812C79.9128 72.996 80.1008 72.264 80.4768 71.616C80.8608 70.968 81.3768 70.464 82.0248 70.104C82.6808 69.736 83.3968 69.552 84.1728 69.552C85.0608 69.552 85.8488 69.772 86.5368 70.212C87.2328 70.644 87.7368 71.26 88.0488 72.06H86.4048C86.1888 71.62 85.8888 71.292 85.5048 71.076C85.1208 70.86 84.6768 70.752 84.1728 70.752C83.6208 70.752 83.1288 70.876 82.6968 71.124C82.2648 71.372 81.9248 71.728 81.6768 72.192C81.4368 72.656 81.3168 73.196 81.3168 73.812C81.3168 74.428 81.4368 74.968 81.6768 75.432C81.9248 75.896 82.2648 76.256 82.6968 76.512C83.1288 76.76 83.6208 76.884 84.1728 76.884C84.6768 76.884 85.1208 76.776 85.5048 76.56C85.8888 76.344 86.1888 76.016 86.4048 75.576H88.0488C87.7368 76.376 87.2328 76.992 86.5368 77.424C85.8488 77.856 85.0608 78.072 84.1728 78.072C83.3888 78.072 82.6728 77.892 82.0248 77.532C81.3768 77.164 80.8608 76.656 80.4768 76.008C80.1008 75.36 79.9128 74.628 79.9128 73.812ZM91.018 69.12V78H89.65V69.12H91.018ZM93.5101 70.512C93.2621 70.512 93.0541 70.428 92.8861 70.26C92.7181 70.092 92.6341 69.884 92.6341 69.636C92.6341 69.388 92.7181 69.18 92.8861 69.012C93.0541 68.844 93.2621 68.76 93.5101 68.76C93.7501 68.76 93.9541 68.844 94.1221 69.012C94.2901 69.18 94.3741 69.388 94.3741 69.636C94.3741 69.884 94.2901 70.092 94.1221 70.26C93.9541 70.428 93.7501 70.512 93.5101 70.512ZM94.1821 71.388V78H92.8141V71.388H94.1821ZM95.5221 74.688C95.5221 74.008 95.6581 73.412 95.9301 72.9C96.2101 72.38 96.5941 71.98 97.0821 71.7C97.5701 71.42 98.1301 71.28 98.7621 71.28C99.5621 71.28 100.222 71.472 100.742 71.856C101.27 72.232 101.626 72.772 101.81 73.476H100.334C100.214 73.148 100.022 72.892 99.7581 72.708C99.4941 72.524 99.1621 72.432 98.7621 72.432C98.2021 72.432 97.7541 72.632 97.4181 73.032C97.0901 73.424 96.9261 73.976 96.9261 74.688C96.9261 75.4 97.0901 75.956 97.4181 76.356C97.7541 76.756 98.2021 76.956 98.7621 76.956C99.5541 76.956 100.078 76.608 100.334 75.912H101.81C101.618 76.584 101.258 77.12 100.73 77.52C100.202 77.912 99.5461 78.108 98.7621 78.108C98.1301 78.108 97.5701 77.968 97.0821 77.688C96.5941 77.4 96.2101 77 95.9301 76.488C95.6581 75.968 95.5221 75.368 95.5221 74.688ZM105.789 74.7L108.837 78H106.989L104.541 75.156V78H103.173V69.12H104.541V74.28L106.941 71.388H108.837L105.789 74.7ZM114.531 72.504V76.164C114.531 76.412 114.587 76.592 114.699 76.704C114.819 76.808 115.019 76.86 115.299 76.86H116.139V78H115.059C114.443 78 113.971 77.856 113.643 77.568C113.315 77.28 113.151 76.812 113.151 76.164V72.504H112.371V71.388H113.151V69.744H114.531V71.388H116.139V72.504H114.531ZM120.268 78.108C119.644 78.108 119.08 77.968 118.576 77.688C118.072 77.4 117.676 77 117.388 76.488C117.1 75.968 116.956 75.368 116.956 74.688C116.956 74.016 117.104 73.42 117.4 72.9C117.696 72.38 118.1 71.98 118.612 71.7C119.124 71.42 119.696 71.28 120.328 71.28C120.96 71.28 121.532 71.42 122.044 71.7C122.556 71.98 122.96 72.38 123.256 72.9C123.552 73.42 123.7 74.016 123.7 74.688C123.7 75.36 123.548 75.956 123.244 76.476C122.94 76.996 122.524 77.4 121.996 77.688C121.476 77.968 120.9 78.108 120.268 78.108ZM120.268 76.92C120.62 76.92 120.948 76.836 121.252 76.668C121.564 76.5 121.816 76.248 122.008 75.912C122.2 75.576 122.296 75.168 122.296 74.688C122.296 74.208 122.204 73.804 122.02 73.476C121.836 73.14 121.592 72.888 121.288 72.72C120.984 72.552 120.656 72.468 120.304 72.468C119.952 72.468 119.624 72.552 119.32 72.72C119.024 72.888 118.788 73.14 118.612 73.476C118.436 73.804 118.348 74.208 118.348 74.688C118.348 75.4 118.528 75.952 118.888 76.344C119.256 76.728 119.716 76.92 120.268 76.92ZM127.714 74.688C127.714 74.008 127.85 73.412 128.122 72.9C128.402 72.38 128.786 71.98 129.274 71.7C129.762 71.42 130.322 71.28 130.954 71.28C131.754 71.28 132.414 71.472 132.934 71.856C133.462 72.232 133.818 72.772 134.002 73.476H132.526C132.406 73.148 132.214 72.892 131.95 72.708C131.686 72.524 131.354 72.432 130.954 72.432C130.394 72.432 129.946 72.632 129.61 73.032C129.282 73.424 129.118 73.976 129.118 74.688C129.118 75.4 129.282 75.956 129.61 76.356C129.946 76.756 130.394 76.956 130.954 76.956C131.746 76.956 132.27 76.608 132.526 75.912H134.002C133.81 76.584 133.45 77.12 132.922 77.52C132.394 77.912 131.738 78.108 130.954 78.108C130.322 78.108 129.762 77.968 129.274 77.688C128.786 77.4 128.402 77 128.122 76.488C127.85 75.968 127.714 75.368 127.714 74.688ZM138.233 78.108C137.609 78.108 137.045 77.968 136.541 77.688C136.037 77.4 135.641 77 135.353 76.488C135.065 75.968 134.921 75.368 134.921 74.688C134.921 74.016 135.069 73.42 135.365 72.9C135.661 72.38 136.065 71.98 136.577 71.7C137.089 71.42 137.661 71.28 138.293 71.28C138.925 71.28 139.497 71.42 140.009 71.7C140.521 71.98 140.925 72.38 141.221 72.9C141.517 73.42 141.665 74.016 141.665 74.688C141.665 75.36 141.513 75.956 141.209 76.476C140.905 76.996 140.489 77.4 139.961 77.688C139.441 77.968 138.865 78.108 138.233 78.108ZM138.233 76.92C138.585 76.92 138.913 76.836 139.217 76.668C139.529 76.5 139.781 76.248 139.973 75.912C140.165 75.576 140.261 75.168 140.261 74.688C140.261 74.208 140.169 73.804 139.985 73.476C139.801 73.14 139.557 72.888 139.253 72.72C138.949 72.552 138.621 72.468 138.269 72.468C137.917 72.468 137.589 72.552 137.285 72.72C136.989 72.888 136.753 73.14 136.577 73.476C136.401 73.804 136.313 74.208 136.313 74.688C136.313 75.4 136.493 75.952 136.853 76.344C137.221 76.728 137.681 76.92 138.233 76.92ZM146.353 71.28C146.873 71.28 147.337 71.388 147.745 71.604C148.161 71.82 148.485 72.14 148.717 72.564C148.949 72.988 149.065 73.5 149.065 74.1V78H147.709V74.304C147.709 73.712 147.561 73.26 147.265 72.948C146.969 72.628 146.565 72.468 146.053 72.468C145.541 72.468 145.133 72.628 144.829 72.948C144.533 73.26 144.385 73.712 144.385 74.304V78H143.017V71.388H144.385V72.144C144.609 71.872 144.893 71.66 145.237 71.508C145.589 71.356 145.961 71.28 146.353 71.28ZM152.406 72.504V76.164C152.406 76.412 152.462 76.592 152.574 76.704C152.694 76.808 152.894 76.86 153.174 76.86H154.014V78H152.934C152.318 78 151.846 77.856 151.518 77.568C151.19 77.28 151.026 76.812 151.026 76.164V72.504H150.246V71.388H151.026V69.744H152.406V71.388H154.014V72.504H152.406ZM155.971 70.512C155.723 70.512 155.515 70.428 155.347 70.26C155.179 70.092 155.095 69.884 155.095 69.636C155.095 69.388 155.179 69.18 155.347 69.012C155.515 68.844 155.723 68.76 155.971 68.76C156.211 68.76 156.415 68.844 156.583 69.012C156.751 69.18 156.835 69.388 156.835 69.636C156.835 69.884 156.751 70.092 156.583 70.26C156.415 70.428 156.211 70.512 155.971 70.512ZM156.643 71.388V78H155.275V71.388H156.643ZM161.775 71.28C162.295 71.28 162.759 71.388 163.167 71.604C163.583 71.82 163.907 72.14 164.139 72.564C164.371 72.988 164.487 73.5 164.487 74.1V78H163.131V74.304C163.131 73.712 162.983 73.26 162.687 72.948C162.391 72.628 161.987 72.468 161.475 72.468C160.963 72.468 160.555 72.628 160.251 72.948C159.955 73.26 159.807 73.712 159.807 74.304V78H158.439V71.388H159.807V72.144C160.031 71.872 160.315 71.66 160.659 71.508C161.011 71.356 161.383 71.28 161.775 71.28ZM172.22 71.388V78H170.852V77.22C170.636 77.492 170.352 77.708 170 77.868C169.656 78.02 169.288 78.096 168.896 78.096C168.376 78.096 167.908 77.988 167.492 77.772C167.084 77.556 166.76 77.236 166.52 76.812C166.288 76.388 166.172 75.876 166.172 75.276V71.388H167.528V75.072C167.528 75.664 167.676 76.12 167.972 76.44C168.268 76.752 168.672 76.908 169.184 76.908C169.696 76.908 170.1 76.752 170.396 76.44C170.7 76.12 170.852 75.664 170.852 75.072V71.388H172.22ZM180.085 74.532C180.085 74.78 180.069 75.004 180.037 75.204H174.985C175.025 75.732 175.221 76.156 175.573 76.476C175.925 76.796 176.357 76.956 176.869 76.956C177.605 76.956 178.125 76.648 178.429 76.032H179.905C179.705 76.64 179.341 77.14 178.813 77.532C178.293 77.916 177.645 78.108 176.869 78.108C176.237 78.108 175.669 77.968 175.165 77.688C174.669 77.4 174.277 77 173.989 76.488C173.709 75.968 173.569 75.368 173.569 74.688C173.569 74.008 173.705 73.412 173.977 72.9C174.257 72.38 174.645 71.98 175.141 71.7C175.645 71.42 176.221 71.28 176.869 71.28C177.493 71.28 178.049 71.416 178.537 71.688C179.025 71.96 179.405 72.344 179.677 72.84C179.949 73.328 180.085 73.892 180.085 74.532ZM178.657 74.1C178.649 73.596 178.469 73.192 178.117 72.888C177.765 72.584 177.329 72.432 176.809 72.432C176.337 72.432 175.933 72.584 175.597 72.888C175.261 73.184 175.061 73.588 174.997 74.1H178.657Z"></path>
</svg>
