<svg width="480" height="360" viewBox="0 0 480 360" fill="none" xmlns="http://www.w3.org/2000/svg">
<path d="M217.904 28.728H213.248L212.448 31H210.544L214.528 19.864H216.64L220.624 31H218.704L217.904 28.728ZM217.392 27.24L215.584 22.072L213.76 27.24H217.392ZM224.18 23.48C224.49 23.0747 224.911 22.7333 225.444 22.456C225.978 22.1787 226.58 22.04 227.252 22.04C228.02 22.04 228.719 22.232 229.348 22.616C229.988 22.9893 230.49 23.5173 230.852 24.2C231.215 24.8827 231.396 25.6667 231.396 26.552C231.396 27.4373 231.215 28.232 230.852 28.936C230.49 29.6293 229.988 30.1733 229.348 30.568C228.719 30.952 228.02 31.144 227.252 31.144C226.58 31.144 225.983 31.0107 225.46 30.744C224.938 30.4667 224.511 30.1253 224.18 29.72V35.192H222.356V22.184H224.18V23.48ZM229.54 26.552C229.54 25.944 229.412 25.4213 229.156 24.984C228.911 24.536 228.58 24.2 228.164 23.976C227.759 23.7413 227.322 23.624 226.852 23.624C226.394 23.624 225.956 23.7413 225.54 23.976C225.135 24.2107 224.804 24.552 224.548 25C224.303 25.448 224.18 25.976 224.18 26.584C224.18 27.192 224.303 27.7253 224.548 28.184C224.804 28.632 225.135 28.9733 225.54 29.208C225.956 29.4427 226.394 29.56 226.852 29.56C227.322 29.56 227.759 29.4427 228.164 29.208C228.58 28.9627 228.911 28.6107 229.156 28.152C229.412 27.6933 229.54 27.16 229.54 26.552ZM235.024 23.48C235.333 23.0747 235.755 22.7333 236.288 22.456C236.821 22.1787 237.424 22.04 238.096 22.04C238.864 22.04 239.563 22.232 240.192 22.616C240.832 22.9893 241.333 23.5173 241.696 24.2C242.059 24.8827 242.24 25.6667 242.24 26.552C242.24 27.4373 242.059 28.232 241.696 28.936C241.333 29.6293 240.832 30.1733 240.192 30.568C239.563 30.952 238.864 31.144 238.096 31.144C237.424 31.144 236.827 31.0107 236.304 30.744C235.781 30.4667 235.355 30.1253 235.024 29.72V35.192H233.2V22.184H235.024V23.48ZM240.384 26.552C240.384 25.944 240.256 25.4213 240 24.984C239.755 24.536 239.424 24.2 239.008 23.976C238.603 23.7413 238.165 23.624 237.696 23.624C237.237 23.624 236.8 23.7413 236.384 23.976C235.979 24.2107 235.648 24.552 235.392 25C235.147 25.448 235.024 25.976 235.024 26.584C235.024 27.192 235.147 27.7253 235.392 28.184C235.648 28.632 235.979 28.9733 236.384 29.208C236.8 29.4427 237.237 29.56 237.696 29.56C238.165 29.56 238.603 29.4427 239.008 29.208C239.424 28.9627 239.755 28.6107 240 28.152C240.256 27.6933 240.384 27.16 240.384 26.552ZM247.244 31.144C246.55 31.144 245.926 31.0213 245.372 30.776C244.828 30.52 244.396 30.1787 244.076 29.752C243.756 29.3147 243.585 28.8293 243.564 28.296H245.452C245.484 28.6693 245.66 28.984 245.98 29.24C246.31 29.4853 246.721 29.608 247.212 29.608C247.724 29.608 248.118 29.512 248.396 29.32C248.684 29.1173 248.828 28.8613 248.828 28.552C248.828 28.2213 248.668 27.976 248.348 27.816C248.038 27.656 247.542 27.48 246.86 27.288C246.198 27.1067 245.66 26.9307 245.244 26.76C244.828 26.5893 244.465 26.328 244.156 25.976C243.857 25.624 243.708 25.16 243.708 24.584C243.708 24.1147 243.846 23.688 244.124 23.304C244.401 22.9093 244.796 22.6 245.308 22.376C245.83 22.152 246.428 22.04 247.1 22.04C248.102 22.04 248.908 22.296 249.516 22.808C250.134 23.3093 250.465 23.9973 250.508 24.872H248.684C248.652 24.4773 248.492 24.1627 248.204 23.928C247.916 23.6933 247.526 23.576 247.036 23.576C246.556 23.576 246.188 23.6667 245.932 23.848C245.676 24.0293 245.548 24.2693 245.548 24.568C245.548 24.8027 245.633 25 245.804 25.16C245.974 25.32 246.182 25.448 246.428 25.544C246.673 25.6293 247.036 25.7413 247.516 25.88C248.156 26.0507 248.678 26.2267 249.084 26.408C249.5 26.5787 249.857 26.8347 250.156 27.176C250.454 27.5173 250.609 27.9707 250.62 28.536C250.62 29.0373 250.481 29.4853 250.204 29.88C249.926 30.2747 249.532 30.584 249.02 30.808C248.518 31.032 247.926 31.144 247.244 31.144ZM265.339 31L263.963 29.624C263.43 30.1573 262.848 30.5573 262.219 30.824C261.59 31.08 260.886 31.208 260.107 31.208C259.318 31.208 258.619 31.0693 258.011 30.792C257.403 30.5147 256.934 30.12 256.603 29.608C256.272 29.0853 256.107 28.4827 256.107 27.8C256.107 27.032 256.326 26.3493 256.763 25.752C257.2 25.144 257.851 24.664 258.715 24.312C258.406 23.9387 258.187 23.592 258.059 23.272C257.931 22.9413 257.867 22.5787 257.867 22.184C257.867 21.6933 257.99 21.256 258.235 20.872C258.491 20.488 258.854 20.184 259.323 19.96C259.792 19.736 260.336 19.624 260.955 19.624C261.584 19.624 262.118 19.7467 262.555 19.992C263.003 20.2267 263.334 20.552 263.547 20.968C263.771 21.384 263.862 21.848 263.819 22.36H261.995C262.006 21.9653 261.91 21.6613 261.707 21.448C261.504 21.224 261.227 21.112 260.875 21.112C260.523 21.112 260.235 21.2187 260.011 21.432C259.798 21.6347 259.691 21.8853 259.691 22.184C259.691 22.472 259.771 22.76 259.931 23.048C260.102 23.3253 260.395 23.688 260.811 24.136L263.755 27.064L264.891 25.192H266.859L265.419 27.656L265.019 28.312L267.723 31H265.339ZM260.107 29.656C261.11 29.656 261.995 29.2453 262.763 28.424L259.819 25.464C258.56 25.9653 257.931 26.7227 257.931 27.736C257.931 28.28 258.134 28.7387 258.539 29.112C258.944 29.4747 259.467 29.656 260.107 29.656ZM276.627 22.04C277.31 22.04 277.912 22.1787 278.435 22.456C278.968 22.7227 279.384 23.0587 279.683 23.464V22.184H281.523V31.144C281.523 31.9547 281.352 32.6747 281.011 33.304C280.67 33.944 280.174 34.4453 279.523 34.808C278.883 35.1707 278.115 35.352 277.219 35.352C276.024 35.352 275.032 35.0693 274.243 34.504C273.454 33.9493 273.006 33.192 272.899 32.232H274.707C274.846 32.6907 275.139 33.0587 275.587 33.336C276.046 33.624 276.59 33.768 277.219 33.768C277.955 33.768 278.547 33.544 278.995 33.096C279.454 32.648 279.683 31.9973 279.683 31.144V29.672C279.374 30.088 278.952 30.44 278.419 30.728C277.896 31.0053 277.299 31.144 276.627 31.144C275.859 31.144 275.155 30.952 274.515 30.568C273.886 30.1733 273.384 29.6293 273.011 28.936C272.648 28.232 272.467 27.4373 272.467 26.552C272.467 25.6667 272.648 24.8827 273.011 24.2C273.384 23.5173 273.886 22.9893 274.515 22.616C275.155 22.232 275.859 22.04 276.627 22.04ZM279.683 26.584C279.683 25.976 279.555 25.448 279.299 25C279.054 24.552 278.728 24.2107 278.323 23.976C277.918 23.7413 277.48 23.624 277.011 23.624C276.542 23.624 276.104 23.7413 275.699 23.976C275.294 24.2 274.963 24.536 274.707 24.984C274.462 25.4213 274.339 25.944 274.339 26.552C274.339 27.16 274.462 27.6933 274.707 28.152C274.963 28.6107 275.294 28.9627 275.699 29.208C276.115 29.4427 276.552 29.56 277.011 29.56C277.48 29.56 277.918 29.4427 278.323 29.208C278.728 28.9733 279.054 28.632 279.299 28.184C279.555 27.7253 279.683 27.192 279.683 26.584ZM283.311 26.552C283.311 25.6667 283.492 24.8827 283.855 24.2C284.228 23.5173 284.729 22.9893 285.359 22.616C285.999 22.232 286.703 22.04 287.471 22.04C288.164 22.04 288.767 22.1787 289.279 22.456C289.801 22.7227 290.217 23.0587 290.527 23.464V22.184H292.367V31H290.527V29.688C290.217 30.104 289.796 30.4507 289.263 30.728C288.729 31.0053 288.121 31.144 287.439 31.144C286.681 31.144 285.988 30.952 285.359 30.568C284.729 30.1733 284.228 29.6293 283.855 28.936C283.492 28.232 283.311 27.4373 283.311 26.552ZM290.527 26.584C290.527 25.976 290.399 25.448 290.143 25C289.897 24.552 289.572 24.2107 289.167 23.976C288.761 23.7413 288.324 23.624 287.855 23.624C287.385 23.624 286.948 23.7413 286.543 23.976C286.137 24.2 285.807 24.536 285.551 24.984C285.305 25.4213 285.183 25.944 285.183 26.552C285.183 27.16 285.305 27.6933 285.551 28.152C285.807 28.6107 286.137 28.9627 286.543 29.208C286.959 29.4427 287.396 29.56 287.855 29.56C288.324 29.56 288.761 29.4427 289.167 29.208C289.572 28.9733 289.897 28.632 290.143 28.184C290.399 27.7253 290.527 27.192 290.527 26.584ZM305.435 22.04C306.128 22.04 306.747 22.184 307.291 22.472C307.845 22.76 308.277 23.1867 308.587 23.752C308.907 24.3173 309.067 25 309.067 25.8V31H307.259V26.072C307.259 25.2827 307.061 24.68 306.667 24.264C306.272 23.8373 305.733 23.624 305.051 23.624C304.368 23.624 303.824 23.8373 303.419 24.264C303.024 24.68 302.827 25.2827 302.827 26.072V31H301.019V26.072C301.019 25.2827 300.821 24.68 300.427 24.264C300.032 23.8373 299.493 23.624 298.811 23.624C298.128 23.624 297.584 23.8373 297.179 24.264C296.784 24.68 296.587 25.2827 296.587 26.072V31H294.763V22.184H296.587V23.192C296.885 22.8293 297.264 22.5467 297.723 22.344C298.181 22.1413 298.672 22.04 299.195 22.04C299.899 22.04 300.528 22.1893 301.083 22.488C301.637 22.7867 302.064 23.2187 302.363 23.784C302.629 23.2507 303.045 22.8293 303.611 22.52C304.176 22.2 304.784 22.04 305.435 22.04ZM319.468 26.376C319.468 26.7067 319.446 27.0053 319.404 27.272H312.668C312.721 27.976 312.982 28.5413 313.452 28.968C313.921 29.3947 314.497 29.608 315.18 29.608C316.161 29.608 316.854 29.1973 317.26 28.376H319.227C318.961 29.1867 318.476 29.8533 317.772 30.376C317.078 30.888 316.214 31.144 315.18 31.144C314.337 31.144 313.58 30.9573 312.908 30.584C312.246 30.2 311.724 29.6667 311.34 28.984C310.966 28.2907 310.78 27.4907 310.78 26.584C310.78 25.6773 310.961 24.8827 311.324 24.2C311.697 23.5067 312.214 22.9733 312.876 22.6C313.548 22.2267 314.316 22.04 315.18 22.04C316.012 22.04 316.753 22.2213 317.404 22.584C318.054 22.9467 318.561 23.4587 318.924 24.12C319.286 24.7707 319.468 25.5227 319.468 26.376ZM317.564 25.8C317.553 25.128 317.313 24.5893 316.844 24.184C316.374 23.7787 315.793 23.576 315.1 23.576C314.47 23.576 313.932 23.7787 313.484 24.184C313.036 24.5787 312.769 25.1173 312.684 25.8H317.564ZM324.463 31.144C323.769 31.144 323.145 31.0213 322.591 30.776C322.047 30.52 321.615 30.1787 321.295 29.752C320.975 29.3147 320.804 28.8293 320.783 28.296H322.671C322.703 28.6693 322.879 28.984 323.199 29.24C323.529 29.4853 323.94 29.608 324.431 29.608C324.943 29.608 325.337 29.512 325.615 29.32C325.903 29.1173 326.047 28.8613 326.047 28.552C326.047 28.2213 325.887 27.976 325.567 27.816C325.257 27.656 324.761 27.48 324.079 27.288C323.417 27.1067 322.879 26.9307 322.463 26.76C322.047 26.5893 321.684 26.328 321.375 25.976C321.076 25.624 320.927 25.16 320.927 24.584C320.927 24.1147 321.065 23.688 321.343 23.304C321.62 22.9093 322.015 22.6 322.527 22.376C323.049 22.152 323.647 22.04 324.319 22.04C325.321 22.04 326.127 22.296 326.735 22.808C327.353 23.3093 327.684 23.9973 327.727 24.872H325.903C325.871 24.4773 325.711 24.1627 325.423 23.928C325.135 23.6933 324.745 23.576 324.255 23.576C323.775 23.576 323.407 23.6667 323.151 23.848C322.895 24.0293 322.767 24.2693 322.767 24.568C322.767 24.8027 322.852 25 323.023 25.16C323.193 25.32 323.401 25.448 323.647 25.544C323.892 25.6293 324.255 25.7413 324.735 25.88C325.375 26.0507 325.897 26.2267 326.303 26.408C326.719 26.5787 327.076 26.8347 327.375 27.176C327.673 27.5173 327.828 27.9707 327.839 28.536C327.839 29.0373 327.7 29.4853 327.423 29.88C327.145 30.2747 326.751 30.584 326.239 30.808C325.737 31.032 325.145 31.144 324.463 31.144Z" fill="black"/>
<rect x="160" y="50" width="80" height="80" rx="15" fill="#E6E6E6"/>
<circle cx="200" cy="90" r="14" stroke="black" stroke-width="4"/>
<rect x="198" y="80" width="4" height="12" rx="2" fill="black"/>
<rect x="197.171" y="95.6572" width="4" height="8" rx="2" transform="rotate(-135 197.171 95.6572)" fill="black"/>
<path d="M267.904 68.728H263.248L262.448 71H260.544L264.528 59.864H266.64L270.624 71H268.704L267.904 68.728ZM267.392 67.24L265.584 62.072L263.76 67.24H267.392ZM274.18 59.16V71H272.356V59.16H274.18ZM275.967 66.552C275.967 65.6667 276.148 64.8827 276.511 64.2C276.884 63.5173 277.386 62.9893 278.015 62.616C278.655 62.232 279.359 62.04 280.127 62.04C280.82 62.04 281.423 62.1787 281.935 62.456C282.458 62.7227 282.874 63.0587 283.183 63.464V62.184H285.023V71H283.183V69.688C282.874 70.104 282.452 70.4507 281.919 70.728C281.386 71.0053 280.778 71.144 280.095 71.144C279.338 71.144 278.644 70.952 278.015 70.568C277.386 70.1733 276.884 69.6293 276.511 68.936C276.148 68.232 275.967 67.4373 275.967 66.552ZM283.183 66.584C283.183 65.976 283.055 65.448 282.799 65C282.554 64.552 282.228 64.2107 281.823 63.976C281.418 63.7413 280.98 63.624 280.511 63.624C280.042 63.624 279.604 63.7413 279.199 63.976C278.794 64.2 278.463 64.536 278.207 64.984C277.962 65.4213 277.839 65.944 277.839 66.552C277.839 67.16 277.962 67.6933 278.207 68.152C278.463 68.6107 278.794 68.9627 279.199 69.208C279.615 69.4427 280.052 69.56 280.511 69.56C280.98 69.56 281.418 69.4427 281.823 69.208C282.228 68.9733 282.554 68.632 282.799 68.184C283.055 67.7253 283.183 67.192 283.183 66.584ZM289.243 63.464C289.509 63.016 289.861 62.6693 290.299 62.424C290.747 62.168 291.275 62.04 291.883 62.04V63.928H291.419C290.704 63.928 290.16 64.1093 289.787 64.472C289.424 64.8347 289.243 65.464 289.243 66.36V71H287.419V62.184H289.243V63.464ZM304.231 62.04C304.925 62.04 305.543 62.184 306.087 62.472C306.642 62.76 307.074 63.1867 307.383 63.752C307.703 64.3173 307.863 65 307.863 65.8V71H306.055V66.072C306.055 65.2827 305.858 64.68 305.463 64.264C305.069 63.8373 304.53 63.624 303.847 63.624C303.165 63.624 302.621 63.8373 302.215 64.264C301.821 64.68 301.623 65.2827 301.623 66.072V71H299.815V66.072C299.815 65.2827 299.618 64.68 299.223 64.264C298.829 63.8373 298.29 63.624 297.607 63.624C296.925 63.624 296.381 63.8373 295.975 64.264C295.581 64.68 295.383 65.2827 295.383 66.072V71H293.559V62.184H295.383V63.192C295.682 62.8293 296.061 62.5467 296.519 62.344C296.978 62.1413 297.469 62.04 297.991 62.04C298.695 62.04 299.325 62.1893 299.879 62.488C300.434 62.7867 300.861 63.2187 301.159 63.784C301.426 63.2507 301.842 62.8293 302.407 62.52C302.973 62.2 303.581 62.04 304.231 62.04ZM322.933 71L321.557 69.624C321.023 70.1573 320.442 70.5573 319.813 70.824C319.183 71.08 318.479 71.208 317.701 71.208C316.911 71.208 316.213 71.0693 315.605 70.792C314.997 70.5147 314.527 70.12 314.197 69.608C313.866 69.0853 313.701 68.4827 313.701 67.8C313.701 67.032 313.919 66.3493 314.357 65.752C314.794 65.144 315.445 64.664 316.309 64.312C315.999 63.9387 315.781 63.592 315.653 63.272C315.525 62.9413 315.461 62.5787 315.461 62.184C315.461 61.6933 315.583 61.256 315.829 60.872C316.085 60.488 316.447 60.184 316.917 59.96C317.386 59.736 317.93 59.624 318.549 59.624C319.178 59.624 319.711 59.7467 320.149 59.992C320.597 60.2267 320.927 60.552 321.141 60.968C321.365 61.384 321.455 61.848 321.413 62.36H319.589C319.599 61.9653 319.503 61.6613 319.301 61.448C319.098 61.224 318.821 61.112 318.469 61.112C318.117 61.112 317.829 61.2187 317.605 61.432C317.391 61.6347 317.285 61.8853 317.285 62.184C317.285 62.472 317.365 62.76 317.525 63.048C317.695 63.3253 317.989 63.688 318.405 64.136L321.349 67.064L322.485 65.192H324.453L323.013 67.656L322.613 68.312L325.317 71H322.933ZM317.701 69.656C318.703 69.656 319.589 69.2453 320.357 68.424L317.413 65.464C316.154 65.9653 315.525 66.7227 315.525 67.736C315.525 68.28 315.727 68.7387 316.133 69.112C316.538 69.4747 317.061 69.656 317.701 69.656ZM330.061 65.416C330.061 64.328 330.311 63.352 330.813 62.488C331.325 61.624 332.013 60.952 332.877 60.472C333.751 59.9813 334.706 59.736 335.741 59.736C336.925 59.736 337.975 60.0293 338.893 60.616C339.821 61.192 340.493 62.0133 340.909 63.08H338.717C338.429 62.4933 338.029 62.056 337.517 61.768C337.005 61.48 336.413 61.336 335.741 61.336C335.005 61.336 334.349 61.5013 333.773 61.832C333.197 62.1627 332.743 62.6373 332.413 63.256C332.093 63.8747 331.933 64.5947 331.933 65.416C331.933 66.2373 332.093 66.9573 332.413 67.576C332.743 68.1947 333.197 68.6747 333.773 69.016C334.349 69.3467 335.005 69.512 335.741 69.512C336.413 69.512 337.005 69.368 337.517 69.08C338.029 68.792 338.429 68.3547 338.717 67.768H340.909C340.493 68.8347 339.821 69.656 338.893 70.232C337.975 70.808 336.925 71.096 335.741 71.096C334.695 71.096 333.741 70.856 332.877 70.376C332.013 69.8853 331.325 69.208 330.813 68.344C330.311 67.48 330.061 66.504 330.061 65.416ZM344.868 59.16V71H343.044V59.16H344.868ZM351.087 71.144C350.255 71.144 349.503 70.9573 348.831 70.584C348.159 70.2 347.631 69.6667 347.247 68.984C346.863 68.2907 346.671 67.4907 346.671 66.584C346.671 65.688 346.868 64.8933 347.263 64.2C347.657 63.5067 348.196 62.9733 348.879 62.6C349.561 62.2267 350.324 62.04 351.167 62.04C352.009 62.04 352.772 62.2267 353.455 62.6C354.137 62.9733 354.676 63.5067 355.071 64.2C355.465 64.8933 355.663 65.688 355.663 66.584C355.663 67.48 355.46 68.2747 355.055 68.968C354.649 69.6613 354.095 70.2 353.391 70.584C352.697 70.9573 351.929 71.144 351.087 71.144ZM351.087 69.56C351.556 69.56 351.993 69.448 352.399 69.224C352.815 69 353.151 68.664 353.407 68.216C353.663 67.768 353.791 67.224 353.791 66.584C353.791 65.944 353.668 65.4053 353.423 64.968C353.177 64.52 352.852 64.184 352.447 63.96C352.041 63.736 351.604 63.624 351.135 63.624C350.665 63.624 350.228 63.736 349.823 63.96C349.428 64.184 349.113 64.52 348.879 64.968C348.644 65.4053 348.527 65.944 348.527 66.584C348.527 67.5333 348.767 68.2693 349.247 68.792C349.737 69.304 350.351 69.56 351.087 69.56ZM356.858 66.584C356.858 65.6773 357.039 64.8827 357.402 64.2C357.775 63.5067 358.287 62.9733 358.938 62.6C359.588 62.2267 360.335 62.04 361.178 62.04C362.244 62.04 363.124 62.296 363.818 62.808C364.522 63.3093 364.996 64.0293 365.242 64.968H363.274C363.114 64.5307 362.858 64.1893 362.506 63.944C362.154 63.6987 361.711 63.576 361.178 63.576C360.431 63.576 359.834 63.8427 359.386 64.376C358.948 64.8987 358.73 65.6347 358.73 66.584C358.73 67.5333 358.948 68.2747 359.386 68.808C359.834 69.3413 360.431 69.608 361.178 69.608C362.234 69.608 362.932 69.144 363.274 68.216H365.242C364.986 69.112 364.506 69.8267 363.802 70.36C363.098 70.8827 362.223 71.144 361.178 71.144C360.335 71.144 359.588 70.9573 358.938 70.584C358.287 70.2 357.775 69.6667 357.402 68.984C357.039 68.2907 356.858 67.4907 356.858 66.584ZM370.547 66.6L374.611 71H372.147L368.883 67.208V71H367.059V59.16H368.883V66.04L372.083 62.184H374.611L370.547 66.6ZM382.555 67.752C382.171 67.752 381.819 67.6613 381.499 67.48C381.19 67.288 380.939 67.0373 380.747 66.728C380.566 66.408 380.475 66.056 380.475 65.672C380.475 65.0853 380.678 64.5893 381.083 64.184C381.488 63.7787 381.979 63.576 382.555 63.576C383.152 63.576 383.654 63.7787 384.059 64.184C384.464 64.5893 384.667 65.0853 384.667 65.672C384.667 66.2587 384.464 66.7547 384.059 67.16C383.654 67.5547 383.152 67.752 382.555 67.752ZM398.326 68.728H393.67L392.87 71H390.966L394.95 59.864H397.062L401.046 71H399.126L398.326 68.728ZM397.814 67.24L396.006 62.072L394.182 67.24H397.814ZM404.602 63.48C404.911 63.0747 405.333 62.7333 405.866 62.456C406.399 62.1787 407.002 62.04 407.674 62.04C408.442 62.04 409.141 62.232 409.77 62.616C410.41 62.9893 410.911 63.5173 411.274 64.2C411.637 64.8827 411.818 65.6667 411.818 66.552C411.818 67.4373 411.637 68.232 411.274 68.936C410.911 69.6293 410.41 70.1733 409.77 70.568C409.141 70.952 408.442 71.144 407.674 71.144C407.002 71.144 406.405 71.0107 405.882 70.744C405.359 70.4667 404.933 70.1253 404.602 69.72V75.192H402.778V62.184H404.602V63.48ZM409.962 66.552C409.962 65.944 409.834 65.4213 409.578 64.984C409.333 64.536 409.002 64.2 408.586 63.976C408.181 63.7413 407.743 63.624 407.274 63.624C406.815 63.624 406.378 63.7413 405.962 63.976C405.557 64.2107 405.226 64.552 404.97 65C404.725 65.448 404.602 65.976 404.602 66.584C404.602 67.192 404.725 67.7253 404.97 68.184C405.226 68.632 405.557 68.9733 405.962 69.208C406.378 69.4427 406.815 69.56 407.274 69.56C407.743 69.56 408.181 69.4427 408.586 69.208C409.002 68.9627 409.333 68.6107 409.578 68.152C409.834 67.6933 409.962 67.16 409.962 66.552ZM415.446 63.48C415.755 63.0747 416.177 62.7333 416.71 62.456C417.243 62.1787 417.846 62.04 418.518 62.04C419.286 62.04 419.985 62.232 420.614 62.616C421.254 62.9893 421.755 63.5173 422.118 64.2C422.481 64.8827 422.662 65.6667 422.662 66.552C422.662 67.4373 422.481 68.232 422.118 68.936C421.755 69.6293 421.254 70.1733 420.614 70.568C419.985 70.952 419.286 71.144 418.518 71.144C417.846 71.144 417.249 71.0107 416.726 70.744C416.203 70.4667 415.777 70.1253 415.446 69.72V75.192H413.622V62.184H415.446V63.48ZM420.806 66.552C420.806 65.944 420.678 65.4213 420.422 64.984C420.177 64.536 419.846 64.2 419.43 63.976C419.025 63.7413 418.587 63.624 418.118 63.624C417.659 63.624 417.222 63.7413 416.806 63.976C416.401 64.2107 416.07 64.552 415.814 65C415.569 65.448 415.446 65.976 415.446 66.584C415.446 67.192 415.569 67.7253 415.814 68.184C416.07 68.632 416.401 68.9733 416.806 69.208C417.222 69.4427 417.659 69.56 418.118 69.56C418.587 69.56 419.025 69.4427 419.43 69.208C419.846 68.9627 420.177 68.6107 420.422 68.152C420.678 67.6933 420.806 67.16 420.806 66.552Z" fill="black"/>
<path d="M175.928 197.296H172.436L171.836 199H170.408L173.396 190.648H174.98L177.968 199H176.528L175.928 197.296ZM175.544 196.18L174.188 192.304L172.82 196.18H175.544ZM180.635 193.372C180.867 193.052 181.183 192.792 181.583 192.592C181.991 192.384 182.443 192.28 182.939 192.28C183.523 192.28 184.051 192.42 184.523 192.7C184.995 192.98 185.367 193.38 185.639 193.9C185.911 194.412 186.047 195 186.047 195.664C186.047 196.328 185.911 196.924 185.639 197.452C185.367 197.972 184.991 198.38 184.511 198.676C184.039 198.964 183.515 199.108 182.939 199.108C182.427 199.108 181.971 199.008 181.571 198.808C181.179 198.608 180.867 198.352 180.635 198.04V199H179.267V190.12H180.635V193.372ZM184.655 195.664C184.655 195.208 184.559 194.816 184.367 194.488C184.183 194.152 183.935 193.9 183.623 193.732C183.319 193.556 182.991 193.468 182.639 193.468C182.295 193.468 181.967 193.556 181.655 193.732C181.351 193.908 181.103 194.164 180.911 194.5C180.727 194.836 180.635 195.232 180.635 195.688C180.635 196.144 180.727 196.544 180.911 196.888C181.103 197.224 181.351 197.48 181.655 197.656C181.967 197.832 182.295 197.92 182.639 197.92C182.991 197.92 183.319 197.832 183.623 197.656C183.935 197.472 184.183 197.208 184.367 196.864C184.559 196.52 184.655 196.12 184.655 195.664ZM190.268 199.108C189.644 199.108 189.08 198.968 188.576 198.688C188.072 198.4 187.676 198 187.388 197.488C187.1 196.968 186.956 196.368 186.956 195.688C186.956 195.016 187.104 194.42 187.4 193.9C187.696 193.38 188.1 192.98 188.612 192.7C189.124 192.42 189.696 192.28 190.328 192.28C190.96 192.28 191.532 192.42 192.044 192.7C192.556 192.98 192.96 193.38 193.256 193.9C193.552 194.42 193.7 195.016 193.7 195.688C193.7 196.36 193.548 196.956 193.244 197.476C192.94 197.996 192.524 198.4 191.996 198.688C191.476 198.968 190.9 199.108 190.268 199.108ZM190.268 197.92C190.62 197.92 190.948 197.836 191.252 197.668C191.564 197.5 191.816 197.248 192.008 196.912C192.2 196.576 192.296 196.168 192.296 195.688C192.296 195.208 192.204 194.804 192.02 194.476C191.836 194.14 191.592 193.888 191.288 193.72C190.984 193.552 190.656 193.468 190.304 193.468C189.952 193.468 189.624 193.552 189.32 193.72C189.024 193.888 188.788 194.14 188.612 194.476C188.436 194.804 188.348 195.208 188.348 195.688C188.348 196.4 188.528 196.952 188.888 197.344C189.256 197.728 189.716 197.92 190.268 197.92ZM201.04 192.388V199H199.672V198.22C199.456 198.492 199.172 198.708 198.82 198.868C198.476 199.02 198.108 199.096 197.716 199.096C197.196 199.096 196.728 198.988 196.312 198.772C195.904 198.556 195.58 198.236 195.34 197.812C195.108 197.388 194.992 196.876 194.992 196.276V192.388H196.348V196.072C196.348 196.664 196.496 197.12 196.792 197.44C197.088 197.752 197.492 197.908 198.004 197.908C198.516 197.908 198.92 197.752 199.216 197.44C199.52 197.12 199.672 196.664 199.672 196.072V192.388H201.04ZM204.441 193.504V197.164C204.441 197.412 204.497 197.592 204.609 197.704C204.729 197.808 204.929 197.86 205.209 197.86H206.049V199H204.969C204.353 199 203.881 198.856 203.553 198.568C203.225 198.28 203.061 197.812 203.061 197.164V193.504H202.281V192.388H203.061V190.744H204.441V192.388H206.049V193.504H204.441ZM212.023 193.504V197.164C212.023 197.412 212.079 197.592 212.191 197.704C212.311 197.808 212.511 197.86 212.791 197.86H213.631V199H212.551C211.935 199 211.463 198.856 211.135 198.568C210.807 198.28 210.643 197.812 210.643 197.164V193.504H209.863V192.388H210.643V190.744H212.023V192.388H213.631V193.504H212.023ZM218.312 192.28C218.816 192.28 219.264 192.388 219.656 192.604C220.056 192.82 220.368 193.14 220.592 193.564C220.824 193.988 220.94 194.5 220.94 195.1V199H219.584V195.304C219.584 194.712 219.436 194.26 219.14 193.948C218.844 193.628 218.44 193.468 217.928 193.468C217.416 193.468 217.008 193.628 216.704 193.948C216.408 194.26 216.26 194.712 216.26 195.304V199H214.892V190.12H216.26V193.156C216.492 192.876 216.784 192.66 217.136 192.508C217.496 192.356 217.888 192.28 218.312 192.28ZM223.381 191.512C223.133 191.512 222.925 191.428 222.757 191.26C222.589 191.092 222.505 190.884 222.505 190.636C222.505 190.388 222.589 190.18 222.757 190.012C222.925 189.844 223.133 189.76 223.381 189.76C223.621 189.76 223.825 189.844 223.993 190.012C224.161 190.18 224.245 190.388 224.245 190.636C224.245 190.884 224.161 191.092 223.993 191.26C223.825 191.428 223.621 191.512 223.381 191.512ZM224.053 192.388V199H222.685V192.388H224.053ZM228.249 199.108C227.729 199.108 227.261 199.016 226.845 198.832C226.437 198.64 226.113 198.384 225.873 198.064C225.633 197.736 225.505 197.372 225.489 196.972H226.905C226.929 197.252 227.061 197.488 227.301 197.68C227.549 197.864 227.857 197.956 228.225 197.956C228.609 197.956 228.905 197.884 229.113 197.74C229.329 197.588 229.437 197.396 229.437 197.164C229.437 196.916 229.317 196.732 229.077 196.612C228.845 196.492 228.473 196.36 227.961 196.216C227.465 196.08 227.061 195.948 226.749 195.82C226.437 195.692 226.165 195.496 225.933 195.232C225.709 194.968 225.597 194.62 225.597 194.188C225.597 193.836 225.701 193.516 225.909 193.228C226.117 192.932 226.413 192.7 226.797 192.532C227.189 192.364 227.637 192.28 228.141 192.28C228.893 192.28 229.497 192.472 229.953 192.856C230.417 193.232 230.665 193.748 230.697 194.404H229.329C229.305 194.108 229.185 193.872 228.969 193.696C228.753 193.52 228.461 193.432 228.093 193.432C227.733 193.432 227.457 193.5 227.265 193.636C227.073 193.772 226.977 193.952 226.977 194.176C226.977 194.352 227.041 194.5 227.169 194.62C227.297 194.74 227.453 194.836 227.637 194.908C227.821 194.972 228.093 195.056 228.453 195.16C228.933 195.288 229.325 195.42 229.629 195.556C229.941 195.684 230.209 195.876 230.433 196.132C230.657 196.388 230.773 196.728 230.781 197.152C230.781 197.528 230.677 197.864 230.469 198.16C230.261 198.456 229.965 198.688 229.581 198.856C229.205 199.024 228.761 199.108 228.249 199.108ZM234.921 195.664C234.921 195 235.057 194.412 235.329 193.9C235.609 193.388 235.985 192.992 236.457 192.712C236.937 192.424 237.465 192.28 238.041 192.28C238.561 192.28 239.013 192.384 239.397 192.592C239.789 192.792 240.101 193.044 240.333 193.348V192.388H241.713V199H240.333V198.016C240.101 198.328 239.785 198.588 239.385 198.796C238.985 199.004 238.529 199.108 238.017 199.108C237.449 199.108 236.929 198.964 236.457 198.676C235.985 198.38 235.609 197.972 235.329 197.452C235.057 196.924 234.921 196.328 234.921 195.664ZM240.333 195.688C240.333 195.232 240.237 194.836 240.045 194.5C239.861 194.164 239.617 193.908 239.313 193.732C239.009 193.556 238.681 193.468 238.329 193.468C237.977 193.468 237.649 193.556 237.345 193.732C237.041 193.9 236.793 194.152 236.601 194.488C236.417 194.816 236.325 195.208 236.325 195.664C236.325 196.12 236.417 196.52 236.601 196.864C236.793 197.208 237.041 197.472 237.345 197.656C237.657 197.832 237.985 197.92 238.329 197.92C238.681 197.92 239.009 197.832 239.313 197.656C239.617 197.48 239.861 197.224 240.045 196.888C240.237 196.544 240.333 196.144 240.333 195.688ZM244.877 193.36C245.109 193.056 245.425 192.8 245.825 192.592C246.225 192.384 246.677 192.28 247.181 192.28C247.757 192.28 248.281 192.424 248.753 192.712C249.233 192.992 249.609 193.388 249.881 193.9C250.153 194.412 250.289 195 250.289 195.664C250.289 196.328 250.153 196.924 249.881 197.452C249.609 197.972 249.233 198.38 248.753 198.676C248.281 198.964 247.757 199.108 247.181 199.108C246.677 199.108 246.229 199.008 245.837 198.808C245.445 198.6 245.125 198.344 244.877 198.04V202.144H243.509V192.388H244.877V193.36ZM248.897 195.664C248.897 195.208 248.801 194.816 248.609 194.488C248.425 194.152 248.177 193.9 247.865 193.732C247.561 193.556 247.233 193.468 246.881 193.468C246.537 193.468 246.209 193.556 245.897 193.732C245.593 193.908 245.345 194.164 245.153 194.5C244.969 194.836 244.877 195.232 244.877 195.688C244.877 196.144 244.969 196.544 245.153 196.888C245.345 197.224 245.593 197.48 245.897 197.656C246.209 197.832 246.537 197.92 246.881 197.92C247.233 197.92 247.561 197.832 247.865 197.656C248.177 197.472 248.425 197.208 248.609 196.864C248.801 196.52 248.897 196.12 248.897 195.664ZM253.01 193.36C253.242 193.056 253.558 192.8 253.958 192.592C254.358 192.384 254.81 192.28 255.314 192.28C255.89 192.28 256.414 192.424 256.886 192.712C257.366 192.992 257.742 193.388 258.014 193.9C258.286 194.412 258.422 195 258.422 195.664C258.422 196.328 258.286 196.924 258.014 197.452C257.742 197.972 257.366 198.38 256.886 198.676C256.414 198.964 255.89 199.108 255.314 199.108C254.81 199.108 254.362 199.008 253.97 198.808C253.578 198.6 253.258 198.344 253.01 198.04V202.144H251.642V192.388H253.01V193.36ZM257.03 195.664C257.03 195.208 256.934 194.816 256.742 194.488C256.558 194.152 256.31 193.9 255.998 193.732C255.694 193.556 255.366 193.468 255.014 193.468C254.67 193.468 254.342 193.556 254.03 193.732C253.726 193.908 253.478 194.164 253.286 194.5C253.102 194.836 253.01 195.232 253.01 195.688C253.01 196.144 253.102 196.544 253.286 196.888C253.478 197.224 253.726 197.48 254.03 197.656C254.342 197.832 254.67 197.92 255.014 197.92C255.366 197.92 255.694 197.832 255.998 197.656C256.31 197.472 256.558 197.208 256.742 196.864C256.934 196.52 257.03 196.12 257.03 195.664Z" fill="black"/>
<path d="M264.54 89.05V94.06C264.54 94.68 264.35 95.17 263.97 95.53C263.597 95.89 263.103 96.07 262.49 96.07C261.877 96.07 261.38 95.89 261 95.53C260.627 95.17 260.44 94.68 260.44 94.06H261.59C261.597 94.3667 261.673 94.61 261.82 94.79C261.973 94.97 262.197 95.06 262.49 95.06C262.783 95.06 263.007 94.97 263.16 94.79C263.313 94.6033 263.39 94.36 263.39 94.06V89.05H264.54ZM267.535 88.6V96H266.395V88.6H267.535ZM271.421 96.09C270.901 96.09 270.431 95.9733 270.011 95.74C269.591 95.5 269.261 95.1667 269.021 94.74C268.781 94.3067 268.661 93.8067 268.661 93.24C268.661 92.68 268.785 92.1833 269.031 91.75C269.278 91.3167 269.615 90.9833 270.041 90.75C270.468 90.5167 270.945 90.4 271.471 90.4C271.998 90.4 272.475 90.5167 272.901 90.75C273.328 90.9833 273.665 91.3167 273.911 91.75C274.158 92.1833 274.281 92.68 274.281 93.24C274.281 93.8 274.155 94.2967 273.901 94.73C273.648 95.1633 273.301 95.5 272.861 95.74C272.428 95.9733 271.948 96.09 271.421 96.09ZM271.421 95.1C271.715 95.1 271.988 95.03 272.241 94.89C272.501 94.75 272.711 94.54 272.871 94.26C273.031 93.98 273.111 93.64 273.111 93.24C273.111 92.84 273.035 92.5033 272.881 92.23C272.728 91.95 272.525 91.74 272.271 91.6C272.018 91.46 271.745 91.39 271.451 91.39C271.158 91.39 270.885 91.46 270.631 91.6C270.385 91.74 270.188 91.95 270.041 92.23C269.895 92.5033 269.821 92.84 269.821 93.24C269.821 93.8333 269.971 94.2933 270.271 94.62C270.578 94.94 270.961 95.1 271.421 95.1ZM279.598 94.58H276.688L276.188 96H274.998L277.488 89.04H278.808L281.298 96H280.098L279.598 94.58ZM279.278 93.65L278.148 90.42L277.008 93.65H279.278ZM287.371 90.49V96H286.231V95.35C286.051 95.5767 285.814 95.7567 285.521 95.89C285.234 96.0167 284.928 96.08 284.601 96.08C284.168 96.08 283.778 95.99 283.431 95.81C283.091 95.63 282.821 95.3633 282.621 95.01C282.428 94.6567 282.331 94.23 282.331 93.73V90.49H283.461V93.56C283.461 94.0533 283.584 94.4333 283.831 94.7C284.078 94.96 284.414 95.09 284.841 95.09C285.268 95.09 285.604 94.96 285.851 94.7C286.104 94.4333 286.231 94.0533 286.231 93.56V90.49H287.371Z" fill="#808080"/>
<path d="M263.04 121.07C262.573 121.07 262.153 120.99 261.78 120.83C261.407 120.663 261.113 120.43 260.9 120.13C260.687 119.83 260.58 119.48 260.58 119.08H261.8C261.827 119.38 261.943 119.627 262.15 119.82C262.363 120.013 262.66 120.11 263.04 120.11C263.433 120.11 263.74 120.017 263.96 119.83C264.18 119.637 264.29 119.39 264.29 119.09C264.29 118.857 264.22 118.667 264.08 118.52C263.947 118.373 263.777 118.26 263.57 118.18C263.37 118.1 263.09 118.013 262.73 117.92C262.277 117.8 261.907 117.68 261.62 117.56C261.34 117.433 261.1 117.24 260.9 116.98C260.7 116.72 260.6 116.373 260.6 115.94C260.6 115.54 260.7 115.19 260.9 114.89C261.1 114.59 261.38 114.36 261.74 114.2C262.1 114.04 262.517 113.96 262.99 113.96C263.663 113.96 264.213 114.13 264.64 114.47C265.073 114.803 265.313 115.263 265.36 115.85H264.1C264.08 115.597 263.96 115.38 263.74 115.2C263.52 115.02 263.23 114.93 262.87 114.93C262.543 114.93 262.277 115.013 262.07 115.18C261.863 115.347 261.76 115.587 261.76 115.9C261.76 116.113 261.823 116.29 261.95 116.43C262.083 116.563 262.25 116.67 262.45 116.75C262.65 116.83 262.923 116.917 263.27 117.01C263.73 117.137 264.103 117.263 264.39 117.39C264.683 117.517 264.93 117.713 265.13 117.98C265.337 118.24 265.44 118.59 265.44 119.03C265.44 119.383 265.343 119.717 265.15 120.03C264.963 120.343 264.687 120.597 264.32 120.79C263.96 120.977 263.533 121.07 263.04 121.07ZM267.365 114.76C267.158 114.76 266.985 114.69 266.845 114.55C266.705 114.41 266.635 114.237 266.635 114.03C266.635 113.823 266.705 113.65 266.845 113.51C266.985 113.37 267.158 113.3 267.365 113.3C267.565 113.3 267.735 113.37 267.875 113.51C268.015 113.65 268.085 113.823 268.085 114.03C268.085 114.237 268.015 114.41 267.875 114.55C267.735 114.69 267.565 114.76 267.365 114.76ZM267.925 115.49V121H266.785V115.49H267.925ZM270.432 120.07H272.932V121H269.112V120.07L271.622 116.42H269.112V115.49H272.932V116.42L270.432 120.07ZM279.179 118.11C279.179 118.317 279.166 118.503 279.139 118.67H274.929C274.962 119.11 275.126 119.463 275.419 119.73C275.712 119.997 276.072 120.13 276.499 120.13C277.112 120.13 277.546 119.873 277.799 119.36H279.029C278.862 119.867 278.559 120.283 278.119 120.61C277.686 120.93 277.146 121.09 276.499 121.09C275.972 121.09 275.499 120.973 275.079 120.74C274.666 120.5 274.339 120.167 274.099 119.74C273.866 119.307 273.749 118.807 273.749 118.24C273.749 117.673 273.862 117.177 274.089 116.75C274.322 116.317 274.646 115.983 275.059 115.75C275.479 115.517 275.959 115.4 276.499 115.4C277.019 115.4 277.482 115.513 277.889 115.74C278.296 115.967 278.612 116.287 278.839 116.7C279.066 117.107 279.179 117.577 279.179 118.11ZM277.989 117.75C277.982 117.33 277.832 116.993 277.539 116.74C277.246 116.487 276.882 116.36 276.449 116.36C276.056 116.36 275.719 116.487 275.439 116.74C275.159 116.987 274.992 117.323 274.939 117.75H277.989ZM280.761 121.07C280.554 121.07 280.381 121 280.241 120.86C280.101 120.72 280.031 120.547 280.031 120.34C280.031 120.133 280.101 119.96 280.241 119.82C280.381 119.68 280.554 119.61 280.761 119.61C280.961 119.61 281.131 119.68 281.271 119.82C281.411 119.96 281.481 120.133 281.481 120.34C281.481 120.547 281.411 120.72 281.271 120.86C281.131 121 280.961 121.07 280.761 121.07ZM280.761 116.87C280.554 116.87 280.381 116.8 280.241 116.66C280.101 116.52 280.031 116.347 280.031 116.14C280.031 115.933 280.101 115.76 280.241 115.62C280.381 115.48 280.554 115.41 280.761 115.41C280.961 115.41 281.131 115.48 281.271 115.62C281.411 115.76 281.481 115.933 281.481 116.14C281.481 116.347 281.411 116.52 281.271 116.66C281.131 116.8 280.961 116.87 280.761 116.87Z" fill="black"/>
<rect x="200" y="10" width="30" height="30" rx="15" transform="rotate(90 200 10)" fill="black" fill-opacity="0.1"/>
<rect x="191" y="24" width="2" height="12" rx="1" transform="rotate(90 191 24)" fill="black"/>
<rect x="184" y="19.3433" width="2" height="8" rx="1" transform="rotate(45 184 19.3433)" fill="black"/>
<rect x="185.414" y="29.2427" width="2" height="8" rx="1" transform="rotate(135 185.414 29.2427)" fill="black"/>
<rect x="160" y="210" width="180" height="140" rx="15" fill="black" fill-opacity="0.1"/>
<path d="M350.37 217.51C350.37 216.83 350.527 216.22 350.84 215.68C351.16 215.14 351.59 214.72 352.13 214.42C352.677 214.113 353.273 213.96 353.92 213.96C354.66 213.96 355.317 214.143 355.89 214.51C356.47 214.87 356.89 215.383 357.15 216.05H355.78C355.6 215.683 355.35 215.41 355.03 215.23C354.71 215.05 354.34 214.96 353.92 214.96C353.46 214.96 353.05 215.063 352.69 215.27C352.33 215.477 352.047 215.773 351.84 216.16C351.64 216.547 351.54 216.997 351.54 217.51C351.54 218.023 351.64 218.473 351.84 218.86C352.047 219.247 352.33 219.547 352.69 219.76C353.05 219.967 353.46 220.07 353.92 220.07C354.34 220.07 354.71 219.98 355.03 219.8C355.35 219.62 355.6 219.347 355.78 218.98H357.15C356.89 219.647 356.47 220.16 355.89 220.52C355.317 220.88 354.66 221.06 353.92 221.06C353.267 221.06 352.67 220.91 352.13 220.61C351.59 220.303 351.16 219.88 350.84 219.34C350.527 218.8 350.37 218.19 350.37 217.51ZM360.874 221.09C360.354 221.09 359.884 220.973 359.464 220.74C359.044 220.5 358.714 220.167 358.474 219.74C358.234 219.307 358.114 218.807 358.114 218.24C358.114 217.68 358.238 217.183 358.484 216.75C358.731 216.317 359.068 215.983 359.494 215.75C359.921 215.517 360.398 215.4 360.924 215.4C361.451 215.4 361.928 215.517 362.354 215.75C362.781 215.983 363.118 216.317 363.364 216.75C363.611 217.183 363.734 217.68 363.734 218.24C363.734 218.8 363.608 219.297 363.354 219.73C363.101 220.163 362.754 220.5 362.314 220.74C361.881 220.973 361.401 221.09 360.874 221.09ZM360.874 220.1C361.168 220.1 361.441 220.03 361.694 219.89C361.954 219.75 362.164 219.54 362.324 219.26C362.484 218.98 362.564 218.64 362.564 218.24C362.564 217.84 362.488 217.503 362.334 217.23C362.181 216.95 361.978 216.74 361.724 216.6C361.471 216.46 361.198 216.39 360.904 216.39C360.611 216.39 360.338 216.46 360.084 216.6C359.838 216.74 359.641 216.95 359.494 217.23C359.348 217.503 359.274 217.84 359.274 218.24C359.274 218.833 359.424 219.293 359.724 219.62C360.031 219.94 360.414 220.1 360.874 220.1ZM367.641 215.4C368.075 215.4 368.461 215.49 368.801 215.67C369.148 215.85 369.418 216.117 369.611 216.47C369.805 216.823 369.901 217.25 369.901 217.75V221H368.771V217.92C368.771 217.427 368.648 217.05 368.401 216.79C368.155 216.523 367.818 216.39 367.391 216.39C366.965 216.39 366.625 216.523 366.371 216.79C366.125 217.05 366.001 217.427 366.001 217.92V221H364.861V215.49H366.001V216.12C366.188 215.893 366.425 215.717 366.711 215.59C367.005 215.463 367.315 215.4 367.641 215.4ZM372.685 216.42V219.47C372.685 219.677 372.732 219.827 372.825 219.92C372.925 220.007 373.092 220.05 373.325 220.05H374.025V221H373.125C372.612 221 372.219 220.88 371.945 220.64C371.672 220.4 371.535 220.01 371.535 219.47V216.42H370.885V215.49H371.535V214.12H372.685V215.49H374.025V216.42H372.685ZM376.216 216.29C376.383 216.01 376.603 215.793 376.876 215.64C377.156 215.48 377.486 215.4 377.866 215.4V216.58H377.576C377.13 216.58 376.79 216.693 376.556 216.92C376.33 217.147 376.216 217.54 376.216 218.1V221H375.076V215.49H376.216V216.29ZM381.304 221.09C380.784 221.09 380.314 220.973 379.894 220.74C379.474 220.5 379.144 220.167 378.904 219.74C378.664 219.307 378.544 218.807 378.544 218.24C378.544 217.68 378.667 217.183 378.914 216.75C379.161 216.317 379.497 215.983 379.924 215.75C380.351 215.517 380.827 215.4 381.354 215.4C381.881 215.4 382.357 215.517 382.784 215.75C383.211 215.983 383.547 216.317 383.794 216.75C384.041 217.183 384.164 217.68 384.164 218.24C384.164 218.8 384.037 219.297 383.784 219.73C383.531 220.163 383.184 220.5 382.744 220.74C382.311 220.973 381.831 221.09 381.304 221.09ZM381.304 220.1C381.597 220.1 381.871 220.03 382.124 219.89C382.384 219.75 382.594 219.54 382.754 219.26C382.914 218.98 382.994 218.64 382.994 218.24C382.994 217.84 382.917 217.503 382.764 217.23C382.611 216.95 382.407 216.74 382.154 216.6C381.901 216.46 381.627 216.39 381.334 216.39C381.041 216.39 380.767 216.46 380.514 216.6C380.267 216.74 380.071 216.95 379.924 217.23C379.777 217.503 379.704 217.84 379.704 218.24C379.704 218.833 379.854 219.293 380.154 219.62C380.461 219.94 380.844 220.1 381.304 220.1ZM386.431 213.6V221H385.291V213.6H386.431ZM391.855 216.42V219.47C391.855 219.677 391.902 219.827 391.995 219.92C392.095 220.007 392.262 220.05 392.495 220.05H393.195V221H392.295C391.782 221 391.389 220.88 391.115 220.64C390.842 220.4 390.705 220.01 390.705 219.47V216.42H390.055V215.49H390.705V214.12H391.855V215.49H393.195V216.42H391.855ZM397.096 215.4C397.516 215.4 397.889 215.49 398.216 215.67C398.549 215.85 398.809 216.117 398.996 216.47C399.189 216.823 399.286 217.25 399.286 217.75V221H398.156V217.92C398.156 217.427 398.033 217.05 397.786 216.79C397.539 216.523 397.203 216.39 396.776 216.39C396.349 216.39 396.009 216.523 395.756 216.79C395.509 217.05 395.386 217.427 395.386 217.92V221H394.246V213.6H395.386V216.13C395.579 215.897 395.823 215.717 396.116 215.59C396.416 215.463 396.743 215.4 397.096 215.4ZM405.79 218.11C405.79 218.317 405.777 218.503 405.75 218.67H401.54C401.574 219.11 401.737 219.463 402.03 219.73C402.324 219.997 402.684 220.13 403.11 220.13C403.724 220.13 404.157 219.873 404.41 219.36H405.64C405.474 219.867 405.17 220.283 404.73 220.61C404.297 220.93 403.757 221.09 403.11 221.09C402.584 221.09 402.11 220.973 401.69 220.74C401.277 220.5 400.95 220.167 400.71 219.74C400.477 219.307 400.36 218.807 400.36 218.24C400.36 217.673 400.474 217.177 400.7 216.75C400.934 216.317 401.257 215.983 401.67 215.75C402.09 215.517 402.57 215.4 403.11 215.4C403.63 215.4 404.094 215.513 404.5 215.74C404.907 215.967 405.224 216.287 405.45 216.7C405.677 217.107 405.79 217.577 405.79 218.11ZM404.6 217.75C404.594 217.33 404.444 216.993 404.15 216.74C403.857 216.487 403.494 216.36 403.06 216.36C402.667 216.36 402.33 216.487 402.05 216.74C401.77 216.987 401.604 217.323 401.55 217.75H404.6ZM413.7 219.58H410.79L410.29 221H409.1L411.59 214.04H412.91L415.4 221H414.2L413.7 219.58ZM413.38 218.65L412.25 215.42L411.11 218.65H413.38ZM417.622 213.6V221H416.482V213.6H417.622ZM418.739 218.22C418.739 217.667 418.852 217.177 419.079 216.75C419.312 216.323 419.626 215.993 420.019 215.76C420.419 215.52 420.859 215.4 421.339 215.4C421.772 215.4 422.149 215.487 422.469 215.66C422.796 215.827 423.056 216.037 423.249 216.29V215.49H424.399V221H423.249V220.18C423.056 220.44 422.792 220.657 422.459 220.83C422.126 221.003 421.746 221.09 421.319 221.09C420.846 221.09 420.412 220.97 420.019 220.73C419.626 220.483 419.312 220.143 419.079 219.71C418.852 219.27 418.739 218.773 418.739 218.22ZM423.249 218.24C423.249 217.86 423.169 217.53 423.009 217.25C422.856 216.97 422.652 216.757 422.399 216.61C422.146 216.463 421.872 216.39 421.579 216.39C421.286 216.39 421.012 216.463 420.759 216.61C420.506 216.75 420.299 216.96 420.139 217.24C419.986 217.513 419.909 217.84 419.909 218.22C419.909 218.6 419.986 218.933 420.139 219.22C420.299 219.507 420.506 219.727 420.759 219.88C421.019 220.027 421.292 220.1 421.579 220.1C421.872 220.1 422.146 220.027 422.399 219.88C422.652 219.733 422.856 219.52 423.009 219.24C423.169 218.953 423.249 218.62 423.249 218.24ZM427.036 216.29C427.203 216.01 427.423 215.793 427.696 215.64C427.976 215.48 428.306 215.4 428.686 215.4V216.58H428.396C427.95 216.58 427.61 216.693 427.376 216.92C427.15 217.147 427.036 217.54 427.036 218.1V221H425.896V215.49H427.036V216.29ZM436.404 215.4C436.838 215.4 437.224 215.49 437.564 215.67C437.911 215.85 438.181 216.117 438.374 216.47C438.574 216.823 438.674 217.25 438.674 217.75V221H437.544V217.92C437.544 217.427 437.421 217.05 437.174 216.79C436.928 216.523 436.591 216.39 436.164 216.39C435.738 216.39 435.398 216.523 435.144 216.79C434.898 217.05 434.774 217.427 434.774 217.92V221H433.644V217.92C433.644 217.427 433.521 217.05 433.274 216.79C433.028 216.523 432.691 216.39 432.264 216.39C431.838 216.39 431.498 216.523 431.244 216.79C430.998 217.05 430.874 217.427 430.874 217.92V221H429.734V215.49H430.874V216.12C431.061 215.893 431.298 215.717 431.584 215.59C431.871 215.463 432.178 215.4 432.504 215.4C432.944 215.4 433.338 215.493 433.684 215.68C434.031 215.867 434.298 216.137 434.484 216.49C434.651 216.157 434.911 215.893 435.264 215.7C435.618 215.5 435.998 215.4 436.404 215.4ZM441.375 219.63L440.165 222.39H439.425L440.135 219.63H441.375ZM446.299 216.42V219.47C446.299 219.677 446.345 219.827 446.439 219.92C446.539 220.007 446.705 220.05 446.939 220.05H447.639V221H446.739C446.225 221 445.832 220.88 445.559 220.64C445.285 220.4 445.149 220.01 445.149 219.47V216.42H444.499V215.49H445.149V214.12H446.299V215.49H447.639V216.42H446.299ZM451.539 215.4C451.959 215.4 452.333 215.49 452.659 215.67C452.993 215.85 453.253 216.117 453.439 216.47C453.633 216.823 453.729 217.25 453.729 217.75V221H452.599V217.92C452.599 217.427 452.476 217.05 452.229 216.79C451.983 216.523 451.646 216.39 451.219 216.39C450.793 216.39 450.453 216.523 450.199 216.79C449.953 217.05 449.829 217.427 449.829 217.92V221H448.689V213.6H449.829V216.13C450.023 215.897 450.266 215.717 450.559 215.59C450.859 215.463 451.186 215.4 451.539 215.4ZM460.234 218.11C460.234 218.317 460.22 218.503 460.194 218.67H455.984C456.017 219.11 456.18 219.463 456.474 219.73C456.767 219.997 457.127 220.13 457.554 220.13C458.167 220.13 458.6 219.873 458.854 219.36H460.084C459.917 219.867 459.614 220.283 459.174 220.61C458.74 220.93 458.2 221.09 457.554 221.09C457.027 221.09 456.554 220.973 456.134 220.74C455.72 220.5 455.394 220.167 455.154 219.74C454.92 219.307 454.804 218.807 454.804 218.24C454.804 217.673 454.917 217.177 455.144 216.75C455.377 216.317 455.7 215.983 456.114 215.75C456.534 215.517 457.014 215.4 457.554 215.4C458.074 215.4 458.537 215.513 458.944 215.74C459.35 215.967 459.667 216.287 459.894 216.7C460.12 217.107 460.234 217.577 460.234 218.11ZM459.044 217.75C459.037 217.33 458.887 216.993 458.594 216.74C458.3 216.487 457.937 216.36 457.504 216.36C457.11 216.36 456.774 216.487 456.494 216.74C456.214 216.987 456.047 217.323 455.994 217.75H459.044ZM355.24 229.05V229.98H353.39V236H352.25V229.98H350.39V229.05H355.24ZM356.975 229.76C356.768 229.76 356.595 229.69 356.455 229.55C356.315 229.41 356.245 229.237 356.245 229.03C356.245 228.823 356.315 228.65 356.455 228.51C356.595 228.37 356.768 228.3 356.975 228.3C357.175 228.3 357.345 228.37 357.485 228.51C357.625 228.65 357.695 228.823 357.695 229.03C357.695 229.237 357.625 229.41 357.485 229.55C357.345 229.69 357.175 229.76 356.975 229.76ZM357.535 230.49V236H356.395V230.49H357.535ZM365.701 230.4C366.135 230.4 366.521 230.49 366.861 230.67C367.208 230.85 367.478 231.117 367.671 231.47C367.871 231.823 367.971 232.25 367.971 232.75V236H366.841V232.92C366.841 232.427 366.718 232.05 366.471 231.79C366.225 231.523 365.888 231.39 365.461 231.39C365.035 231.39 364.695 231.523 364.441 231.79C364.195 232.05 364.071 232.427 364.071 232.92V236H362.941V232.92C362.941 232.427 362.818 232.05 362.571 231.79C362.325 231.523 361.988 231.39 361.561 231.39C361.135 231.39 360.795 231.523 360.541 231.79C360.295 232.05 360.171 232.427 360.171 232.92V236H359.031V230.49H360.171V231.12C360.358 230.893 360.595 230.717 360.881 230.59C361.168 230.463 361.475 230.4 361.801 230.4C362.241 230.4 362.635 230.493 362.981 230.68C363.328 230.867 363.595 231.137 363.781 231.49C363.948 231.157 364.208 230.893 364.561 230.7C364.915 230.5 365.295 230.4 365.701 230.4ZM374.472 233.11C374.472 233.317 374.459 233.503 374.432 233.67H370.222C370.255 234.11 370.419 234.463 370.712 234.73C371.005 234.997 371.365 235.13 371.792 235.13C372.405 235.13 372.839 234.873 373.092 234.36H374.322C374.155 234.867 373.852 235.283 373.412 235.61C372.979 235.93 372.439 236.09 371.792 236.09C371.265 236.09 370.792 235.973 370.372 235.74C369.959 235.5 369.632 235.167 369.392 234.74C369.159 234.307 369.042 233.807 369.042 233.24C369.042 232.673 369.155 232.177 369.382 231.75C369.615 231.317 369.939 230.983 370.352 230.75C370.772 230.517 371.252 230.4 371.792 230.4C372.312 230.4 372.775 230.513 373.182 230.74C373.589 230.967 373.905 231.287 374.132 231.7C374.359 232.107 374.472 232.577 374.472 233.11ZM373.282 232.75C373.275 232.33 373.125 231.993 372.832 231.74C372.539 231.487 372.175 231.36 371.742 231.36C371.349 231.36 371.012 231.487 370.732 231.74C370.452 231.987 370.285 232.323 370.232 232.75H373.282ZM376.734 231.29C376.9 231.01 377.12 230.793 377.394 230.64C377.674 230.48 378.004 230.4 378.384 230.4V231.58H378.094C377.647 231.58 377.307 231.693 377.074 231.92C376.847 232.147 376.734 232.54 376.734 233.1V236H375.594V230.49H376.734V231.29ZM380.682 234.63L379.472 237.39H378.732L379.442 234.63H380.682ZM383.895 233.22C383.895 232.667 384.009 232.177 384.235 231.75C384.469 231.323 384.782 230.993 385.175 230.76C385.575 230.52 386.015 230.4 386.495 230.4C386.929 230.4 387.305 230.487 387.625 230.66C387.952 230.827 388.212 231.037 388.405 231.29V230.49H389.555V236H388.405V235.18C388.212 235.44 387.949 235.657 387.615 235.83C387.282 236.003 386.902 236.09 386.475 236.09C386.002 236.09 385.569 235.97 385.175 235.73C384.782 235.483 384.469 235.143 384.235 234.71C384.009 234.27 383.895 233.773 383.895 233.22ZM388.405 233.24C388.405 232.86 388.325 232.53 388.165 232.25C388.012 231.97 387.809 231.757 387.555 231.61C387.302 231.463 387.029 231.39 386.735 231.39C386.442 231.39 386.169 231.463 385.915 231.61C385.662 231.75 385.455 231.96 385.295 232.24C385.142 232.513 385.065 232.84 385.065 233.22C385.065 233.6 385.142 233.933 385.295 234.22C385.455 234.507 385.662 234.727 385.915 234.88C386.175 235.027 386.449 235.1 386.735 235.1C387.029 235.1 387.302 235.027 387.555 234.88C387.809 234.733 388.012 234.52 388.165 234.24C388.325 233.953 388.405 233.62 388.405 233.24ZM393.833 230.4C394.266 230.4 394.653 230.49 394.993 230.67C395.339 230.85 395.609 231.117 395.803 231.47C395.996 231.823 396.093 232.25 396.093 232.75V236H394.963V232.92C394.963 232.427 394.839 232.05 394.593 231.79C394.346 231.523 394.009 231.39 393.583 231.39C393.156 231.39 392.816 231.523 392.563 231.79C392.316 232.05 392.193 232.427 392.193 232.92V236H391.053V230.49H392.193V231.12C392.379 230.893 392.616 230.717 392.903 230.59C393.196 230.463 393.506 230.4 393.833 230.4ZM397.167 233.22C397.167 232.667 397.28 232.177 397.507 231.75C397.74 231.323 398.054 230.993 398.447 230.76C398.847 230.52 399.29 230.4 399.777 230.4C400.137 230.4 400.49 230.48 400.837 230.64C401.19 230.793 401.47 231 401.677 231.26V228.6H402.827V236H401.677V235.17C401.49 235.437 401.23 235.657 400.897 235.83C400.57 236.003 400.194 236.09 399.767 236.09C399.287 236.09 398.847 235.97 398.447 235.73C398.054 235.483 397.74 235.143 397.507 234.71C397.28 234.27 397.167 233.773 397.167 233.22ZM401.677 233.24C401.677 232.86 401.597 232.53 401.437 232.25C401.284 231.97 401.08 231.757 400.827 231.61C400.574 231.463 400.3 231.39 400.007 231.39C399.714 231.39 399.44 231.463 399.187 231.61C398.934 231.75 398.727 231.96 398.567 232.24C398.414 232.513 398.337 232.84 398.337 233.22C398.337 233.6 398.414 233.933 398.567 234.22C398.727 234.507 398.934 234.727 399.187 234.88C399.447 235.027 399.72 235.1 400.007 235.1C400.3 235.1 400.574 235.027 400.827 234.88C401.08 234.733 401.284 234.52 401.437 234.24C401.597 233.953 401.677 233.62 401.677 233.24ZM408.252 231.42V234.47C408.252 234.677 408.299 234.827 408.392 234.92C408.492 235.007 408.659 235.05 408.892 235.05H409.592V236H408.692C408.179 236 407.785 235.88 407.512 235.64C407.239 235.4 407.102 235.01 407.102 234.47V231.42H406.452V230.49H407.102V229.12H408.252V230.49H409.592V231.42H408.252ZM413.493 230.4C413.913 230.4 414.286 230.49 414.613 230.67C414.946 230.85 415.206 231.117 415.393 231.47C415.586 231.823 415.683 232.25 415.683 232.75V236H414.553V232.92C414.553 232.427 414.429 232.05 414.183 231.79C413.936 231.523 413.599 231.39 413.173 231.39C412.746 231.39 412.406 231.523 412.153 231.79C411.906 232.05 411.783 232.427 411.783 232.92V236H410.643V228.6H411.783V231.13C411.976 230.897 412.219 230.717 412.513 230.59C412.813 230.463 413.139 230.4 413.493 230.4ZM422.187 233.11C422.187 233.317 422.173 233.503 422.147 233.67H417.937C417.97 234.11 418.133 234.463 418.427 234.73C418.72 234.997 419.08 235.13 419.507 235.13C420.12 235.13 420.553 234.873 420.807 234.36H422.037C421.87 234.867 421.567 235.283 421.127 235.61C420.693 235.93 420.153 236.09 419.507 236.09C418.98 236.09 418.507 235.973 418.087 235.74C417.673 235.5 417.347 235.167 417.107 234.74C416.873 234.307 416.757 233.807 416.757 233.24C416.757 232.673 416.87 232.177 417.097 231.75C417.33 231.317 417.653 230.983 418.067 230.75C418.487 230.517 418.967 230.4 419.507 230.4C420.027 230.4 420.49 230.513 420.897 230.74C421.303 230.967 421.62 231.287 421.847 231.7C422.073 232.107 422.187 232.577 422.187 233.11ZM420.997 232.75C420.99 232.33 420.84 231.993 420.547 231.74C420.253 231.487 419.89 231.36 419.457 231.36C419.063 231.36 418.727 231.487 418.447 231.74C418.167 231.987 418 232.323 417.947 232.75H420.997ZM353.04 251.07C352.573 251.07 352.153 250.99 351.78 250.83C351.407 250.663 351.113 250.43 350.9 250.13C350.687 249.83 350.58 249.48 350.58 249.08H351.8C351.827 249.38 351.943 249.627 352.15 249.82C352.363 250.013 352.66 250.11 353.04 250.11C353.433 250.11 353.74 250.017 353.96 249.83C354.18 249.637 354.29 249.39 354.29 249.09C354.29 248.857 354.22 248.667 354.08 248.52C353.947 248.373 353.777 248.26 353.57 248.18C353.37 248.1 353.09 248.013 352.73 247.92C352.277 247.8 351.907 247.68 351.62 247.56C351.34 247.433 351.1 247.24 350.9 246.98C350.7 246.72 350.6 246.373 350.6 245.94C350.6 245.54 350.7 245.19 350.9 244.89C351.1 244.59 351.38 244.36 351.74 244.2C352.1 244.04 352.517 243.96 352.99 243.96C353.663 243.96 354.213 244.13 354.64 244.47C355.073 244.803 355.313 245.263 355.36 245.85H354.1C354.08 245.597 353.96 245.38 353.74 245.2C353.52 245.02 353.23 244.93 352.87 244.93C352.543 244.93 352.277 245.013 352.07 245.18C351.863 245.347 351.76 245.587 351.76 245.9C351.76 246.113 351.823 246.29 351.95 246.43C352.083 246.563 352.25 246.67 352.45 246.75C352.65 246.83 352.923 246.917 353.27 247.01C353.73 247.137 354.103 247.263 354.39 247.39C354.683 247.517 354.93 247.713 355.13 247.98C355.337 248.24 355.44 248.59 355.44 249.03C355.44 249.383 355.343 249.717 355.15 250.03C354.963 250.343 354.687 250.597 354.32 250.79C353.96 250.977 353.533 251.07 353.04 251.07ZM358.115 246.42V249.47C358.115 249.677 358.162 249.827 358.255 249.92C358.355 250.007 358.522 250.05 358.755 250.05H359.455V251H358.555C358.042 251 357.648 250.88 357.375 250.64C357.102 250.4 356.965 250.01 356.965 249.47V246.42H356.315V245.49H356.965V244.12H358.115V245.49H359.455V246.42H358.115ZM362.896 251.09C362.376 251.09 361.906 250.973 361.486 250.74C361.066 250.5 360.736 250.167 360.496 249.74C360.256 249.307 360.136 248.807 360.136 248.24C360.136 247.68 360.259 247.183 360.506 246.75C360.753 246.317 361.089 245.983 361.516 245.75C361.943 245.517 362.419 245.4 362.946 245.4C363.473 245.4 363.949 245.517 364.376 245.75C364.803 245.983 365.139 246.317 365.386 246.75C365.633 247.183 365.756 247.68 365.756 248.24C365.756 248.8 365.629 249.297 365.376 249.73C365.123 250.163 364.776 250.5 364.336 250.74C363.903 250.973 363.423 251.09 362.896 251.09ZM362.896 250.1C363.189 250.1 363.463 250.03 363.716 249.89C363.976 249.75 364.186 249.54 364.346 249.26C364.506 248.98 364.586 248.64 364.586 248.24C364.586 247.84 364.509 247.503 364.356 247.23C364.203 246.95 363.999 246.74 363.746 246.6C363.493 246.46 363.219 246.39 362.926 246.39C362.633 246.39 362.359 246.46 362.106 246.6C361.859 246.74 361.663 246.95 361.516 247.23C361.369 247.503 361.296 247.84 361.296 248.24C361.296 248.833 361.446 249.293 361.746 249.62C362.053 249.94 362.436 250.1 362.896 250.1ZM368.023 246.3C368.216 246.047 368.479 245.833 368.813 245.66C369.146 245.487 369.523 245.4 369.943 245.4C370.423 245.4 370.859 245.52 371.253 245.76C371.653 245.993 371.966 246.323 372.193 246.75C372.419 247.177 372.533 247.667 372.533 248.22C372.533 248.773 372.419 249.27 372.193 249.71C371.966 250.143 371.653 250.483 371.253 250.73C370.859 250.97 370.423 251.09 369.943 251.09C369.523 251.09 369.149 251.007 368.823 250.84C368.496 250.667 368.229 250.453 368.023 250.2V253.62H366.883V245.49H368.023V246.3ZM371.373 248.22C371.373 247.84 371.293 247.513 371.133 247.24C370.979 246.96 370.773 246.75 370.513 246.61C370.259 246.463 369.986 246.39 369.693 246.39C369.406 246.39 369.133 246.463 368.873 246.61C368.619 246.757 368.413 246.97 368.253 247.25C368.099 247.53 368.023 247.86 368.023 248.24C368.023 248.62 368.099 248.953 368.253 249.24C368.413 249.52 368.619 249.733 368.873 249.88C369.133 250.027 369.406 250.1 369.693 250.1C369.986 250.1 370.259 250.027 370.513 249.88C370.773 249.727 370.979 249.507 371.133 249.22C371.293 248.933 371.373 248.6 371.373 248.22ZM381.06 245.49L379.35 251H378.15L377.04 246.93L375.93 251H374.73L373.01 245.49H374.17L375.32 249.92L376.49 245.49H377.68L378.8 249.9L379.94 245.49H381.06ZM381.532 248.22C381.532 247.667 381.645 247.177 381.872 246.75C382.105 246.323 382.419 245.993 382.812 245.76C383.212 245.52 383.652 245.4 384.132 245.4C384.565 245.4 384.942 245.487 385.262 245.66C385.589 245.827 385.849 246.037 386.042 246.29V245.49H387.192V251H386.042V250.18C385.849 250.44 385.585 250.657 385.252 250.83C384.919 251.003 384.539 251.09 384.112 251.09C383.639 251.09 383.205 250.97 382.812 250.73C382.419 250.483 382.105 250.143 381.872 249.71C381.645 249.27 381.532 248.773 381.532 248.22ZM386.042 248.24C386.042 247.86 385.962 247.53 385.802 247.25C385.649 246.97 385.445 246.757 385.192 246.61C384.939 246.463 384.665 246.39 384.372 246.39C384.079 246.39 383.805 246.463 383.552 246.61C383.299 246.75 383.092 246.96 382.932 247.24C382.779 247.513 382.702 247.84 382.702 248.22C382.702 248.6 382.779 248.933 382.932 249.22C383.092 249.507 383.299 249.727 383.552 249.88C383.812 250.027 384.085 250.1 384.372 250.1C384.665 250.1 384.939 250.027 385.192 249.88C385.445 249.733 385.649 249.52 385.802 249.24C385.962 248.953 386.042 248.62 386.042 248.24ZM390.019 246.42V249.47C390.019 249.677 390.066 249.827 390.159 249.92C390.259 250.007 390.426 250.05 390.659 250.05H391.359V251H390.459C389.946 251 389.553 250.88 389.279 250.64C389.006 250.4 388.869 250.01 388.869 249.47V246.42H388.219V245.49H388.869V244.12H390.019V245.49H391.359V246.42H390.019ZM392.03 248.24C392.03 247.673 392.143 247.177 392.37 246.75C392.603 246.317 392.923 245.983 393.33 245.75C393.737 245.517 394.203 245.4 394.73 245.4C395.397 245.4 395.947 245.56 396.38 245.88C396.82 246.193 397.117 246.643 397.27 247.23H396.04C395.94 246.957 395.78 246.743 395.56 246.59C395.34 246.437 395.063 246.36 394.73 246.36C394.263 246.36 393.89 246.527 393.61 246.86C393.337 247.187 393.2 247.647 393.2 248.24C393.2 248.833 393.337 249.297 393.61 249.63C393.89 249.963 394.263 250.13 394.73 250.13C395.39 250.13 395.827 249.84 396.04 249.26H397.27C397.11 249.82 396.81 250.267 396.37 250.6C395.93 250.927 395.383 251.09 394.73 251.09C394.203 251.09 393.737 250.973 393.33 250.74C392.923 250.5 392.603 250.167 392.37 249.74C392.143 249.307 392.03 248.807 392.03 248.24ZM401.256 245.4C401.676 245.4 402.05 245.49 402.376 245.67C402.71 245.85 402.97 246.117 403.156 246.47C403.35 246.823 403.446 247.25 403.446 247.75V251H402.316V247.92C402.316 247.427 402.193 247.05 401.946 246.79C401.7 246.523 401.363 246.39 400.936 246.39C400.51 246.39 400.17 246.523 399.916 246.79C399.67 247.05 399.546 247.427 399.546 247.92V251H398.406V243.6H399.546V246.13C399.74 245.897 399.983 245.717 400.276 245.59C400.576 245.463 400.903 245.4 401.256 245.4ZM406.33 244.05L406.2 248.9H405.25L405.12 244.05H406.33ZM405.76 251.07C405.554 251.07 405.38 251 405.24 250.86C405.1 250.72 405.03 250.547 405.03 250.34C405.03 250.133 405.1 249.96 405.24 249.82C405.38 249.68 405.554 249.61 405.76 249.61C405.96 249.61 406.13 249.68 406.27 249.82C406.41 249.96 406.48 250.133 406.48 250.34C406.48 250.547 406.41 250.72 406.27 250.86C406.13 251 405.96 251.07 405.76 251.07ZM411.851 244.97V247.01H414.251V247.94H411.851V250.07H414.551V251H410.711V244.04H414.551V244.97H411.851ZM418.735 245.4C419.168 245.4 419.555 245.49 419.895 245.67C420.242 245.85 420.512 246.117 420.705 246.47C420.898 246.823 420.995 247.25 420.995 247.75V251H419.865V247.92C419.865 247.427 419.742 247.05 419.495 246.79C419.248 246.523 418.912 246.39 418.485 246.39C418.058 246.39 417.718 246.523 417.465 246.79C417.218 247.05 417.095 247.427 417.095 247.92V251H415.955V245.49H417.095V246.12C417.282 245.893 417.518 245.717 417.805 245.59C418.098 245.463 418.408 245.4 418.735 245.4ZM423.029 244.76C422.823 244.76 422.649 244.69 422.509 244.55C422.369 244.41 422.299 244.237 422.299 244.03C422.299 243.823 422.369 243.65 422.509 243.51C422.649 243.37 422.823 243.3 423.029 243.3C423.229 243.3 423.399 243.37 423.539 243.51C423.679 243.65 423.749 243.823 423.749 244.03C423.749 244.237 423.679 244.41 423.539 244.55C423.399 244.69 423.229 244.76 423.029 244.76ZM423.589 252.08C423.589 252.62 423.453 253.01 423.179 253.25C422.913 253.497 422.523 253.62 422.009 253.62H421.419V252.66H421.809C422.043 252.66 422.206 252.613 422.299 252.52C422.399 252.433 422.449 252.287 422.449 252.08V245.49H423.589V252.08ZM427.476 251.09C426.956 251.09 426.486 250.973 426.066 250.74C425.646 250.5 425.316 250.167 425.076 249.74C424.836 249.307 424.716 248.807 424.716 248.24C424.716 247.68 424.839 247.183 425.086 246.75C425.333 246.317 425.669 245.983 426.096 245.75C426.523 245.517 426.999 245.4 427.526 245.4C428.053 245.4 428.529 245.517 428.956 245.75C429.383 245.983 429.719 246.317 429.966 246.75C430.213 247.183 430.336 247.68 430.336 248.24C430.336 248.8 430.209 249.297 429.956 249.73C429.703 250.163 429.356 250.5 428.916 250.74C428.483 250.973 428.003 251.09 427.476 251.09ZM427.476 250.1C427.769 250.1 428.043 250.03 428.296 249.89C428.556 249.75 428.766 249.54 428.926 249.26C429.086 248.98 429.166 248.64 429.166 248.24C429.166 247.84 429.089 247.503 428.936 247.23C428.783 246.95 428.579 246.74 428.326 246.6C428.073 246.46 427.799 246.39 427.506 246.39C427.213 246.39 426.939 246.46 426.686 246.6C426.439 246.74 426.243 246.95 426.096 247.23C425.949 247.503 425.876 247.84 425.876 248.24C425.876 248.833 426.026 249.293 426.326 249.62C426.633 249.94 427.016 250.1 427.476 250.1ZM436.423 245.49L433.043 253.59H431.863L432.983 250.91L430.813 245.49H432.083L433.633 249.69L435.243 245.49H436.423ZM441.211 246.42V249.47C441.211 249.677 441.258 249.827 441.351 249.92C441.451 250.007 441.618 250.05 441.851 250.05H442.551V251H441.651C441.138 251 440.744 250.88 440.471 250.64C440.198 250.4 440.061 250.01 440.061 249.47V246.42H439.411V245.49H440.061V244.12H441.211V245.49H442.551V246.42H441.211ZM446.452 245.4C446.872 245.4 447.245 245.49 447.572 245.67C447.905 245.85 448.165 246.117 448.352 246.47C448.545 246.823 448.642 247.25 448.642 247.75V251H447.512V247.92C447.512 247.427 447.388 247.05 447.142 246.79C446.895 246.523 446.558 246.39 446.132 246.39C445.705 246.39 445.365 246.523 445.112 246.79C444.865 247.05 444.742 247.427 444.742 247.92V251H443.602V243.6H444.742V246.13C444.935 245.897 445.178 245.717 445.472 245.59C445.772 245.463 446.098 245.4 446.452 245.4ZM455.146 248.11C455.146 248.317 455.132 248.503 455.106 248.67H450.896C450.929 249.11 451.092 249.463 451.386 249.73C451.679 249.997 452.039 250.13 452.466 250.13C453.079 250.13 453.512 249.873 453.766 249.36H454.996C454.829 249.867 454.526 250.283 454.086 250.61C453.652 250.93 453.112 251.09 452.466 251.09C451.939 251.09 451.466 250.973 451.046 250.74C450.632 250.5 450.306 250.167 450.066 249.74C449.832 249.307 449.716 248.807 449.716 248.24C449.716 247.673 449.829 247.177 450.056 246.75C450.289 246.317 450.612 245.983 451.026 245.75C451.446 245.517 451.926 245.4 452.466 245.4C452.986 245.4 453.449 245.513 453.856 245.74C454.262 245.967 454.579 246.287 454.806 246.7C455.032 247.107 455.146 247.577 455.146 248.11ZM453.956 247.75C453.949 247.33 453.799 246.993 453.506 246.74C453.212 246.487 452.849 246.36 452.416 246.36C452.022 246.36 451.686 246.487 451.406 246.74C451.126 246.987 450.959 247.323 450.906 247.75H453.956ZM351.89 265.08H354.24V266H350.75V259.05H351.89V265.08ZM355.773 259.76C355.567 259.76 355.393 259.69 355.253 259.55C355.113 259.41 355.043 259.237 355.043 259.03C355.043 258.823 355.113 258.65 355.253 258.51C355.393 258.37 355.567 258.3 355.773 258.3C355.973 258.3 356.143 258.37 356.283 258.51C356.423 258.65 356.493 258.823 356.493 259.03C356.493 259.237 356.423 259.41 356.283 259.55C356.143 259.69 355.973 259.76 355.773 259.76ZM356.333 260.49V266H355.193V260.49H356.333ZM359.96 264.98L361.52 260.49H362.73L360.63 266H359.27L357.18 260.49H358.4L359.96 264.98ZM368.642 263.11C368.642 263.317 368.628 263.503 368.602 263.67H364.392C364.425 264.11 364.588 264.463 364.882 264.73C365.175 264.997 365.535 265.13 365.962 265.13C366.575 265.13 367.008 264.873 367.262 264.36H368.492C368.325 264.867 368.022 265.283 367.582 265.61C367.148 265.93 366.608 266.09 365.962 266.09C365.435 266.09 364.962 265.973 364.542 265.74C364.128 265.5 363.802 265.167 363.562 264.74C363.328 264.307 363.212 263.807 363.212 263.24C363.212 262.673 363.325 262.177 363.552 261.75C363.785 261.317 364.108 260.983 364.522 260.75C364.942 260.517 365.422 260.4 365.962 260.4C366.482 260.4 366.945 260.513 367.352 260.74C367.758 260.967 368.075 261.287 368.302 261.7C368.528 262.107 368.642 262.577 368.642 263.11ZM367.452 262.75C367.445 262.33 367.295 261.993 367.002 261.74C366.708 261.487 366.345 261.36 365.912 261.36C365.518 261.36 365.182 261.487 364.902 261.74C364.622 261.987 364.455 262.323 364.402 262.75H367.452ZM371.981 262.51C371.981 261.83 372.138 261.22 372.451 260.68C372.771 260.14 373.201 259.72 373.741 259.42C374.288 259.113 374.885 258.96 375.531 258.96C376.271 258.96 376.928 259.143 377.501 259.51C378.081 259.87 378.501 260.383 378.761 261.05H377.391C377.211 260.683 376.961 260.41 376.641 260.23C376.321 260.05 375.951 259.96 375.531 259.96C375.071 259.96 374.661 260.063 374.301 260.27C373.941 260.477 373.658 260.773 373.451 261.16C373.251 261.547 373.151 261.997 373.151 262.51C373.151 263.023 373.251 263.473 373.451 263.86C373.658 264.247 373.941 264.547 374.301 264.76C374.661 264.967 375.071 265.07 375.531 265.07C375.951 265.07 376.321 264.98 376.641 264.8C376.961 264.62 377.211 264.347 377.391 263.98H378.761C378.501 264.647 378.081 265.16 377.501 265.52C376.928 265.88 376.271 266.06 375.531 266.06C374.878 266.06 374.281 265.91 373.741 265.61C373.201 265.303 372.771 264.88 372.451 264.34C372.138 263.8 371.981 263.19 371.981 262.51ZM381.236 258.6V266H380.096V258.6H381.236ZM385.122 266.09C384.602 266.09 384.132 265.973 383.712 265.74C383.292 265.5 382.962 265.167 382.722 264.74C382.482 264.307 382.362 263.807 382.362 263.24C382.362 262.68 382.486 262.183 382.732 261.75C382.979 261.317 383.316 260.983 383.742 260.75C384.169 260.517 384.646 260.4 385.172 260.4C385.699 260.4 386.176 260.517 386.602 260.75C387.029 260.983 387.366 261.317 387.612 261.75C387.859 262.183 387.982 262.68 387.982 263.24C387.982 263.8 387.856 264.297 387.602 264.73C387.349 265.163 387.002 265.5 386.562 265.74C386.129 265.973 385.649 266.09 385.122 266.09ZM385.122 265.1C385.416 265.1 385.689 265.03 385.942 264.89C386.202 264.75 386.412 264.54 386.572 264.26C386.732 263.98 386.812 263.64 386.812 263.24C386.812 262.84 386.736 262.503 386.582 262.23C386.429 261.95 386.226 261.74 385.972 261.6C385.719 261.46 385.446 261.39 385.152 261.39C384.859 261.39 384.586 261.46 384.332 261.6C384.086 261.74 383.889 261.95 383.742 262.23C383.596 262.503 383.522 262.84 383.522 263.24C383.522 263.833 383.672 264.293 383.972 264.62C384.279 264.94 384.662 265.1 385.122 265.1ZM388.729 263.24C388.729 262.673 388.843 262.177 389.069 261.75C389.303 261.317 389.623 260.983 390.029 260.75C390.436 260.517 390.903 260.4 391.429 260.4C392.096 260.4 392.646 260.56 393.079 260.88C393.519 261.193 393.816 261.643 393.969 262.23H392.739C392.639 261.957 392.479 261.743 392.259 261.59C392.039 261.437 391.763 261.36 391.429 261.36C390.963 261.36 390.589 261.527 390.309 261.86C390.036 262.187 389.899 262.647 389.899 263.24C389.899 263.833 390.036 264.297 390.309 264.63C390.589 264.963 390.963 265.13 391.429 265.13C392.089 265.13 392.526 264.84 392.739 264.26H393.969C393.809 264.82 393.509 265.267 393.069 265.6C392.629 265.927 392.083 266.09 391.429 266.09C390.903 266.09 390.436 265.973 390.029 265.74C389.623 265.5 389.303 265.167 389.069 264.74C388.843 264.307 388.729 263.807 388.729 263.24ZM397.285 263.25L399.825 266H398.285L396.245 263.63V266H395.105V258.6H396.245V262.9L398.245 260.49H399.825L397.285 263.25ZM404.57 261.42V264.47C404.57 264.677 404.617 264.827 404.71 264.92C404.81 265.007 404.977 265.05 405.21 265.05H405.91V266H405.01C404.497 266 404.104 265.88 403.83 265.64C403.557 265.4 403.42 265.01 403.42 264.47V261.42H402.77V260.49H403.42V259.12H404.57V260.49H405.91V261.42H404.57ZM409.351 266.09C408.831 266.09 408.361 265.973 407.941 265.74C407.521 265.5 407.191 265.167 406.951 264.74C406.711 264.307 406.591 263.807 406.591 263.24C406.591 262.68 406.714 262.183 406.961 261.75C407.208 261.317 407.544 260.983 407.971 260.75C408.398 260.517 408.874 260.4 409.401 260.4C409.928 260.4 410.404 260.517 410.831 260.75C411.258 260.983 411.594 261.317 411.841 261.75C412.088 262.183 412.211 262.68 412.211 263.24C412.211 263.8 412.084 264.297 411.831 264.73C411.578 265.163 411.231 265.5 410.791 265.74C410.358 265.973 409.878 266.09 409.351 266.09ZM409.351 265.1C409.644 265.1 409.918 265.03 410.171 264.89C410.431 264.75 410.641 264.54 410.801 264.26C410.961 263.98 411.041 263.64 411.041 263.24C411.041 262.84 410.964 262.503 410.811 262.23C410.658 261.95 410.454 261.74 410.201 261.6C409.948 261.46 409.674 261.39 409.381 261.39C409.088 261.39 408.814 261.46 408.561 261.6C408.314 261.74 408.118 261.95 407.971 262.23C407.824 262.503 407.751 262.84 407.751 263.24C407.751 263.833 407.901 264.293 408.201 264.62C408.508 264.94 408.891 265.1 409.351 265.1ZM415.728 266.09C415.208 266.09 414.738 265.973 414.318 265.74C413.898 265.5 413.568 265.167 413.328 264.74C413.088 264.307 412.968 263.807 412.968 263.24C412.968 262.68 413.091 262.183 413.338 261.75C413.585 261.317 413.921 260.983 414.348 260.75C414.775 260.517 415.251 260.4 415.778 260.4C416.305 260.4 416.781 260.517 417.208 260.75C417.635 260.983 417.971 261.317 418.218 261.75C418.465 262.183 418.588 262.68 418.588 263.24C418.588 263.8 418.461 264.297 418.208 264.73C417.955 265.163 417.608 265.5 417.168 265.74C416.735 265.973 416.255 266.09 415.728 266.09ZM415.728 265.1C416.021 265.1 416.295 265.03 416.548 264.89C416.808 264.75 417.018 264.54 417.178 264.26C417.338 263.98 417.418 263.64 417.418 263.24C417.418 262.84 417.341 262.503 417.188 262.23C417.035 261.95 416.831 261.74 416.578 261.6C416.325 261.46 416.051 261.39 415.758 261.39C415.465 261.39 415.191 261.46 414.938 261.6C414.691 261.74 414.495 261.95 414.348 262.23C414.201 262.503 414.128 262.84 414.128 263.24C414.128 263.833 414.278 264.293 414.578 264.62C414.885 264.94 415.268 265.1 415.728 265.1ZM421.145 259.05L421.015 263.9H420.065L419.935 259.05H421.145ZM420.575 266.07C420.368 266.07 420.195 266 420.055 265.86C419.915 265.72 419.845 265.547 419.845 265.34C419.845 265.133 419.915 264.96 420.055 264.82C420.195 264.68 420.368 264.61 420.575 264.61C420.775 264.61 420.945 264.68 421.085 264.82C421.225 264.96 421.295 265.133 421.295 265.34C421.295 265.547 421.225 265.72 421.085 265.86C420.945 266 420.775 266.07 420.575 266.07Z" fill="black"/>
</svg>
