<svg width="480" height="360" viewBox="0 0 480 360" fill="none" xmlns="http://www.w3.org/2000/svg">
<path d="M174.864 31.112C174.117 31.112 173.445 30.984 172.848 30.728C172.251 30.4613 171.781 30.088 171.44 29.608C171.099 29.128 170.928 28.568 170.928 27.928H172.88C172.923 28.408 173.109 28.8027 173.44 29.112C173.781 29.4213 174.256 29.576 174.864 29.576C175.493 29.576 175.984 29.4267 176.336 29.128C176.688 28.8187 176.864 28.424 176.864 27.944C176.864 27.5707 176.752 27.2667 176.528 27.032C176.315 26.7973 176.043 26.616 175.712 26.488C175.392 26.36 174.944 26.2213 174.368 26.072C173.643 25.88 173.051 25.688 172.592 25.496C172.144 25.2933 171.76 24.984 171.44 24.568C171.12 24.152 170.96 23.5973 170.96 22.904C170.96 22.264 171.12 21.704 171.44 21.224C171.76 20.744 172.208 20.376 172.784 20.12C173.36 19.864 174.027 19.736 174.784 19.736C175.861 19.736 176.741 20.008 177.424 20.552C178.117 21.0853 178.501 21.8213 178.576 22.76H176.56C176.528 22.3547 176.336 22.008 175.984 21.72C175.632 21.432 175.168 21.288 174.592 21.288C174.069 21.288 173.643 21.4213 173.312 21.688C172.981 21.9547 172.816 22.3387 172.816 22.84C172.816 23.1813 172.917 23.464 173.12 23.688C173.333 23.9013 173.6 24.072 173.92 24.2C174.24 24.328 174.677 24.4667 175.232 24.616C175.968 24.8187 176.565 25.0213 177.024 25.224C177.493 25.4267 177.888 25.7413 178.208 26.168C178.539 26.584 178.704 27.144 178.704 27.848C178.704 28.4133 178.549 28.9467 178.24 29.448C177.941 29.9493 177.499 30.3547 176.912 30.664C176.336 30.9627 175.653 31.112 174.864 31.112ZM182.984 23.672V28.552C182.984 28.8827 183.059 29.1227 183.208 29.272C183.368 29.4107 183.635 29.48 184.008 29.48H185.128V31H183.688C182.867 31 182.238 30.808 181.8 30.424C181.363 30.04 181.144 29.416 181.144 28.552V23.672H180.104V22.184H181.144V19.992H182.984V22.184H185.128V23.672H182.984ZM190.633 31.144C189.801 31.144 189.049 30.9573 188.377 30.584C187.705 30.2 187.177 29.6667 186.793 28.984C186.409 28.2907 186.217 27.4907 186.217 26.584C186.217 25.688 186.415 24.8933 186.809 24.2C187.204 23.5067 187.743 22.9733 188.425 22.6C189.108 22.2267 189.871 22.04 190.713 22.04C191.556 22.04 192.319 22.2267 193.001 22.6C193.684 22.9733 194.223 23.5067 194.617 24.2C195.012 24.8933 195.209 25.688 195.209 26.584C195.209 27.48 195.007 28.2747 194.601 28.968C194.196 29.6613 193.641 30.2 192.937 30.584C192.244 30.9573 191.476 31.144 190.633 31.144ZM190.633 29.56C191.103 29.56 191.54 29.448 191.945 29.224C192.361 29 192.697 28.664 192.953 28.216C193.209 27.768 193.337 27.224 193.337 26.584C193.337 25.944 193.215 25.4053 192.969 24.968C192.724 24.52 192.399 24.184 191.993 23.96C191.588 23.736 191.151 23.624 190.681 23.624C190.212 23.624 189.775 23.736 189.369 23.96C188.975 24.184 188.66 24.52 188.425 24.968C188.191 25.4053 188.073 25.944 188.073 26.584C188.073 27.5333 188.313 28.2693 188.793 28.792C189.284 29.304 189.897 29.56 190.633 29.56ZM198.837 23.48C199.146 23.0747 199.567 22.7333 200.101 22.456C200.634 22.1787 201.237 22.04 201.909 22.04C202.677 22.04 203.375 22.232 204.005 22.616C204.645 22.9893 205.146 23.5173 205.509 24.2C205.871 24.8827 206.053 25.6667 206.053 26.552C206.053 27.4373 205.871 28.232 205.509 28.936C205.146 29.6293 204.645 30.1733 204.005 30.568C203.375 30.952 202.677 31.144 201.909 31.144C201.237 31.144 200.639 31.0107 200.117 30.744C199.594 30.4667 199.167 30.1253 198.837 29.72V35.192H197.013V22.184H198.837V23.48ZM204.197 26.552C204.197 25.944 204.069 25.4213 203.812 24.984C203.567 24.536 203.237 24.2 202.821 23.976C202.415 23.7413 201.978 23.624 201.509 23.624C201.05 23.624 200.613 23.7413 200.197 23.976C199.791 24.2107 199.461 24.552 199.205 25C198.959 25.448 198.837 25.976 198.837 26.584C198.837 27.192 198.959 27.7253 199.205 28.184C199.461 28.632 199.791 28.9733 200.197 29.208C200.613 29.4427 201.05 29.56 201.509 29.56C201.978 29.56 202.415 29.4427 202.821 29.208C203.237 28.9627 203.567 28.6107 203.812 28.152C204.069 27.6933 204.197 27.16 204.197 26.552ZM219.696 22.184L216.96 31H215.04L213.264 24.488L211.488 31H209.568L206.816 22.184H208.672L210.512 29.272L212.384 22.184H214.288L216.08 29.24L217.904 22.184H219.696ZM220.451 26.552C220.451 25.6667 220.633 24.8827 220.995 24.2C221.369 23.5173 221.87 22.9893 222.499 22.616C223.139 22.232 223.843 22.04 224.611 22.04C225.305 22.04 225.907 22.1787 226.419 22.456C226.942 22.7227 227.358 23.0587 227.667 23.464V22.184H229.507V31H227.667V29.688C227.358 30.104 226.937 30.4507 226.403 30.728C225.87 31.0053 225.262 31.144 224.579 31.144C223.822 31.144 223.129 30.952 222.499 30.568C221.87 30.1733 221.369 29.6293 220.995 28.936C220.633 28.232 220.451 27.4373 220.451 26.552ZM227.667 26.584C227.667 25.976 227.539 25.448 227.283 25C227.038 24.552 226.713 24.2107 226.307 23.976C225.902 23.7413 225.465 23.624 224.995 23.624C224.526 23.624 224.089 23.7413 223.683 23.976C223.278 24.2 222.947 24.536 222.691 24.984C222.446 25.4213 222.323 25.944 222.323 26.552C222.323 27.16 222.446 27.6933 222.691 28.152C222.947 28.6107 223.278 28.9627 223.683 29.208C224.099 29.4427 224.537 29.56 224.995 29.56C225.465 29.56 225.902 29.4427 226.307 29.208C226.713 28.9733 227.038 28.632 227.283 28.184C227.539 27.7253 227.667 27.192 227.667 26.584ZM234.031 23.672V28.552C234.031 28.8827 234.106 29.1227 234.255 29.272C234.415 29.4107 234.682 29.48 235.055 29.48H236.175V31H234.735C233.914 31 233.284 30.808 232.847 30.424C232.41 30.04 232.191 29.416 232.191 28.552V23.672H231.151V22.184H232.191V19.992H234.031V22.184H236.175V23.672H234.031ZM237.248 26.584C237.248 25.6773 237.43 24.8827 237.792 24.2C238.166 23.5067 238.678 22.9733 239.328 22.6C239.979 22.2267 240.726 22.04 241.568 22.04C242.635 22.04 243.515 22.296 244.208 22.808C244.912 23.3093 245.387 24.0293 245.632 24.968H243.664C243.504 24.5307 243.248 24.1893 242.896 23.944C242.544 23.6987 242.102 23.576 241.568 23.576C240.822 23.576 240.224 23.8427 239.776 24.376C239.339 24.8987 239.12 25.6347 239.12 26.584C239.12 27.5333 239.339 28.2747 239.776 28.808C240.224 29.3413 240.822 29.608 241.568 29.608C242.624 29.608 243.323 29.144 243.664 28.216H245.632C245.376 29.112 244.896 29.8267 244.192 30.36C243.488 30.8827 242.614 31.144 241.568 31.144C240.726 31.144 239.979 30.9573 239.328 30.584C238.678 30.2 238.166 29.6667 237.792 28.984C237.43 28.2907 237.248 27.4907 237.248 26.584ZM252.01 22.04C252.682 22.04 253.279 22.184 253.802 22.472C254.335 22.76 254.751 23.1867 255.05 23.752C255.359 24.3173 255.514 25 255.514 25.8V31H253.706V26.072C253.706 25.2827 253.509 24.68 253.114 24.264C252.719 23.8373 252.181 23.624 251.498 23.624C250.815 23.624 250.271 23.8373 249.866 24.264C249.471 24.68 249.274 25.2827 249.274 26.072V31H247.45V19.16H249.274V23.208C249.583 22.8347 249.973 22.5467 250.442 22.344C250.922 22.1413 251.445 22.04 252.01 22.04Z" fill="black"/>
<rect x="285" y="320" width="60" height="30" rx="15" fill="black" fill-opacity="0.1"/>
<path d="M303.597 339L301.677 335.664H300.633V339H299.265V330.66H302.145C302.785 330.66 303.325 330.772 303.765 330.996C304.213 331.22 304.545 331.52 304.761 331.896C304.985 332.272 305.097 332.692 305.097 333.156C305.097 333.7 304.937 334.196 304.617 334.644C304.305 335.084 303.821 335.384 303.165 335.544L305.229 339H303.597ZM300.633 334.572H302.145C302.657 334.572 303.041 334.444 303.297 334.188C303.561 333.932 303.693 333.588 303.693 333.156C303.693 332.724 303.565 332.388 303.309 332.148C303.053 331.9 302.665 331.776 302.145 331.776H300.633V334.572ZM312.907 335.532C312.907 335.78 312.891 336.004 312.859 336.204H307.807C307.847 336.732 308.043 337.156 308.395 337.476C308.747 337.796 309.179 337.956 309.691 337.956C310.427 337.956 310.947 337.648 311.251 337.032H312.727C312.527 337.64 312.163 338.14 311.635 338.532C311.115 338.916 310.467 339.108 309.691 339.108C309.059 339.108 308.491 338.968 307.987 338.688C307.491 338.4 307.099 338 306.811 337.488C306.531 336.968 306.391 336.368 306.391 335.688C306.391 335.008 306.527 334.412 306.799 333.9C307.079 333.38 307.467 332.98 307.963 332.7C308.467 332.42 309.043 332.28 309.691 332.28C310.315 332.28 310.871 332.416 311.359 332.688C311.847 332.96 312.227 333.344 312.499 333.84C312.771 334.328 312.907 334.892 312.907 335.532ZM311.479 335.1C311.471 334.596 311.291 334.192 310.939 333.888C310.587 333.584 310.151 333.432 309.631 333.432C309.159 333.432 308.755 333.584 308.419 333.888C308.083 334.184 307.883 334.588 307.819 335.1H311.479ZM316.654 339.108C316.134 339.108 315.666 339.016 315.25 338.832C314.842 338.64 314.518 338.384 314.278 338.064C314.038 337.736 313.91 337.372 313.894 336.972H315.31C315.334 337.252 315.466 337.488 315.706 337.68C315.954 337.864 316.262 337.956 316.63 337.956C317.014 337.956 317.31 337.884 317.518 337.74C317.734 337.588 317.842 337.396 317.842 337.164C317.842 336.916 317.722 336.732 317.482 336.612C317.25 336.492 316.878 336.36 316.366 336.216C315.87 336.08 315.466 335.948 315.154 335.82C314.842 335.692 314.57 335.496 314.338 335.232C314.114 334.968 314.002 334.62 314.002 334.188C314.002 333.836 314.106 333.516 314.314 333.228C314.522 332.932 314.818 332.7 315.202 332.532C315.594 332.364 316.042 332.28 316.546 332.28C317.298 332.28 317.902 332.472 318.358 332.856C318.822 333.232 319.07 333.748 319.102 334.404H317.734C317.71 334.108 317.59 333.872 317.374 333.696C317.158 333.52 316.866 333.432 316.498 333.432C316.138 333.432 315.862 333.5 315.67 333.636C315.478 333.772 315.382 333.952 315.382 334.176C315.382 334.352 315.446 334.5 315.574 334.62C315.702 334.74 315.858 334.836 316.042 334.908C316.226 334.972 316.498 335.056 316.858 335.16C317.338 335.288 317.73 335.42 318.034 335.556C318.346 335.684 318.614 335.876 318.838 336.132C319.062 336.388 319.178 336.728 319.186 337.152C319.186 337.528 319.082 337.864 318.874 338.16C318.666 338.456 318.37 338.688 317.986 338.856C317.61 339.024 317.166 339.108 316.654 339.108ZM326.724 335.532C326.724 335.78 326.708 336.004 326.676 336.204H321.624C321.664 336.732 321.86 337.156 322.212 337.476C322.564 337.796 322.996 337.956 323.508 337.956C324.244 337.956 324.764 337.648 325.068 337.032H326.544C326.344 337.64 325.98 338.14 325.452 338.532C324.932 338.916 324.284 339.108 323.508 339.108C322.876 339.108 322.308 338.968 321.804 338.688C321.308 338.4 320.916 338 320.628 337.488C320.348 336.968 320.208 336.368 320.208 335.688C320.208 335.008 320.344 334.412 320.616 333.9C320.896 333.38 321.284 332.98 321.78 332.7C322.284 332.42 322.86 332.28 323.508 332.28C324.132 332.28 324.688 332.416 325.176 332.688C325.664 332.96 326.044 333.344 326.316 333.84C326.588 334.328 326.724 334.892 326.724 335.532ZM325.296 335.1C325.288 334.596 325.108 334.192 324.756 333.888C324.404 333.584 323.968 333.432 323.448 333.432C322.976 333.432 322.572 333.584 322.236 333.888C321.9 334.184 321.7 334.588 321.636 335.1H325.296ZM329.666 333.504V337.164C329.666 337.412 329.722 337.592 329.834 337.704C329.954 337.808 330.154 337.86 330.434 337.86H331.274V339H330.194C329.578 339 329.106 338.856 328.778 338.568C328.45 338.28 328.286 337.812 328.286 337.164V333.504H327.506V332.388H328.286V330.744H329.666V332.388H331.274V333.504H329.666Z" fill="black"/>
</svg>
