<svg xmlns="http://www.w3.org/2000/svg" fill="none" viewBox="0 0 100 30" height="30" width="100">
<rect fill-opacity="0.25" fill="black" rx="15" height="30" width="100"></rect>
<path fill="white" d="M21.8676 10.66V19H20.4996V13.288L17.9556 19H17.0076L14.4516 13.288V19H13.0836V10.66H14.5596L17.4876 17.2L20.4036 10.66H21.8676ZM29.6536 12.388V19H28.2856V18.22C28.0696 18.492 27.7856 18.708 27.4336 18.868C27.0896 19.02 26.7216 19.096 26.3296 19.096C25.8096 19.096 25.3416 18.988 24.9256 18.772C24.5176 18.556 24.1936 18.236 23.9536 17.812C23.7216 17.388 23.6056 16.876 23.6056 16.276V12.388H24.9616V16.072C24.9616 16.664 25.1096 17.12 25.4056 17.44C25.7016 17.752 26.1056 17.908 26.6176 17.908C27.1296 17.908 27.5336 17.752 27.8296 17.44C28.1336 17.12 28.2856 16.664 28.2856 16.072V12.388H29.6536ZM33.8586 19.108C33.3386 19.108 32.8706 19.016 32.4546 18.832C32.0466 18.64 31.7226 18.384 31.4826 18.064C31.2426 17.736 31.1146 17.372 31.0986 16.972H32.5146C32.5386 17.252 32.6706 17.488 32.9106 17.68C33.1586 17.864 33.4666 17.956 33.8346 17.956C34.2186 17.956 34.5146 17.884 34.7226 17.74C34.9386 17.588 35.0466 17.396 35.0466 17.164C35.0466 16.916 34.9266 16.732 34.6866 16.612C34.4546 16.492 34.0826 16.36 33.5706 16.216C33.0746 16.08 32.6706 15.948 32.3586 15.82C32.0466 15.692 31.7746 15.496 31.5426 15.232C31.3186 14.968 31.2066 14.62 31.2066 14.188C31.2066 13.836 31.3106 13.516 31.5186 13.228C31.7266 12.932 32.0226 12.7 32.4066 12.532C32.7986 12.364 33.2466 12.28 33.7506 12.28C34.5026 12.28 35.1066 12.472 35.5626 12.856C36.0266 13.232 36.2746 13.748 36.3066 14.404H34.9386C34.9146 14.108 34.7946 13.872 34.5786 13.696C34.3626 13.52 34.0706 13.432 33.7026 13.432C33.3426 13.432 33.0666 13.5 32.8746 13.636C32.6826 13.772 32.5866 13.952 32.5866 14.176C32.5866 14.352 32.6506 14.5 32.7786 14.62C32.9066 14.74 33.0626 14.836 33.2466 14.908C33.4306 14.972 33.7026 15.056 34.0626 15.16C34.5426 15.288 34.9346 15.42 35.2386 15.556C35.5506 15.684 35.8186 15.876 36.0426 16.132C36.2666 16.388 36.3826 16.728 36.3906 17.152C36.3906 17.528 36.2866 17.864 36.0786 18.16C35.8706 18.456 35.5746 18.688 35.1906 18.856C34.8146 19.024 34.3706 19.108 33.8586 19.108ZM38.5648 11.512C38.3168 11.512 38.1088 11.428 37.9408 11.26C37.7728 11.092 37.6888 10.884 37.6888 10.636C37.6888 10.388 37.7728 10.18 37.9408 10.012C38.1088 9.844 38.3168 9.76 38.5648 9.76C38.8048 9.76 39.0088 9.844 39.1768 10.012C39.3448 10.18 39.4288 10.388 39.4288 10.636C39.4288 10.884 39.3448 11.092 39.1768 11.26C39.0088 11.428 38.8048 11.512 38.5648 11.512ZM39.2368 12.388V19H37.8688V12.388H39.2368ZM40.5768 15.688C40.5768 15.008 40.7128 14.412 40.9848 13.9C41.2648 13.38 41.6488 12.98 42.1368 12.7C42.6248 12.42 43.1848 12.28 43.8168 12.28C44.6168 12.28 45.2768 12.472 45.7968 12.856C46.3248 13.232 46.6808 13.772 46.8648 14.476H45.3888C45.2688 14.148 45.0768 13.892 44.8128 13.708C44.5488 13.524 44.2168 13.432 43.8168 13.432C43.2568 13.432 42.8088 13.632 42.4728 14.032C42.1448 14.424 41.9808 14.976 41.9808 15.688C41.9808 16.4 42.1448 16.956 42.4728 17.356C42.8088 17.756 43.2568 17.956 43.8168 17.956C44.6088 17.956 45.1328 17.608 45.3888 16.912H46.8648C46.6728 17.584 46.3128 18.12 45.7848 18.52C45.2568 18.912 44.6008 19.108 43.8168 19.108C43.1848 19.108 42.6248 18.968 42.1368 18.688C41.6488 18.4 41.2648 18 40.9848 17.488C40.7128 16.968 40.5768 16.368 40.5768 15.688ZM60.1293 10.66V19H58.7613V13.288L56.2173 19H55.2693L52.7133 13.288V19H51.3453V10.66H52.8213L55.7493 17.2L58.6653 10.66H60.1293ZM61.4713 15.664C61.4713 15 61.6073 14.412 61.8793 13.9C62.1593 13.388 62.5353 12.992 63.0073 12.712C63.4873 12.424 64.0153 12.28 64.5913 12.28C65.1113 12.28 65.5633 12.384 65.9473 12.592C66.3393 12.792 66.6513 13.044 66.8833 13.348V12.388H68.2633V19H66.8833V18.016C66.6513 18.328 66.3353 18.588 65.9353 18.796C65.5353 19.004 65.0793 19.108 64.5673 19.108C63.9993 19.108 63.4793 18.964 63.0073 18.676C62.5353 18.38 62.1593 17.972 61.8793 17.452C61.6073 16.924 61.4713 16.328 61.4713 15.664ZM66.8833 15.688C66.8833 15.232 66.7873 14.836 66.5953 14.5C66.4113 14.164 66.1673 13.908 65.8633 13.732C65.5593 13.556 65.2313 13.468 64.8793 13.468C64.5273 13.468 64.1993 13.556 63.8953 13.732C63.5913 13.9 63.3433 14.152 63.1513 14.488C62.9673 14.816 62.8753 15.208 62.8753 15.664C62.8753 16.12 62.9673 16.52 63.1513 16.864C63.3433 17.208 63.5913 17.472 63.8953 17.656C64.2073 17.832 64.5353 17.92 64.8793 17.92C65.2313 17.92 65.5593 17.832 65.8633 17.656C66.1673 17.48 66.4113 17.224 66.5953 16.888C66.7873 16.544 66.8833 16.144 66.8833 15.688ZM72.6762 15.7L75.7242 19H73.8762L71.4282 16.156V19H70.0602V10.12H71.4282V15.28L73.8282 12.388H75.7242L72.6762 15.7ZM82.7647 15.532C82.7647 15.78 82.7487 16.004 82.7167 16.204H77.6647C77.7047 16.732 77.9007 17.156 78.2527 17.476C78.6047 17.796 79.0367 17.956 79.5487 17.956C80.2847 17.956 80.8047 17.648 81.1087 17.032H82.5847C82.3847 17.64 82.0207 18.14 81.4927 18.532C80.9727 18.916 80.3247 19.108 79.5487 19.108C78.9167 19.108 78.3487 18.968 77.8447 18.688C77.3487 18.4 76.9567 18 76.6687 17.488C76.3887 16.968 76.2487 16.368 76.2487 15.688C76.2487 15.008 76.3847 14.412 76.6567 13.9C76.9367 13.38 77.3247 12.98 77.8207 12.7C78.3247 12.42 78.9007 12.28 79.5487 12.28C80.1727 12.28 80.7287 12.416 81.2167 12.688C81.7047 12.96 82.0847 13.344 82.3567 13.84C82.6287 14.328 82.7647 14.892 82.7647 15.532ZM81.3367 15.1C81.3287 14.596 81.1487 14.192 80.7967 13.888C80.4447 13.584 80.0087 13.432 79.4887 13.432C79.0167 13.432 78.6127 13.584 78.2767 13.888C77.9407 14.184 77.7407 14.588 77.6767 15.1H81.3367ZM85.4789 13.348C85.6789 13.012 85.9429 12.752 86.2709 12.568C86.6069 12.376 87.0029 12.28 87.4589 12.28V13.696H87.1109C86.5749 13.696 86.1669 13.832 85.8869 14.104C85.6149 14.376 85.4789 14.848 85.4789 15.52V19H84.1109V12.388H85.4789V13.348Z"></path>
</svg>
