<svg width="480" height="360" viewBox="0 0 480 360" fill="none" xmlns="http://www.w3.org/2000/svg">
<path d="M0 0H480V50.5V330H450V50H170V330H480V360H0V0Z" fill="white"/>
<rect x="220" y="165" width="180" height="50" rx="15" fill="white"/>
<path d="M230.834 182.51C230.834 181.83 230.991 181.22 231.304 180.68C231.624 180.14 232.054 179.72 232.594 179.42C233.141 179.113 233.737 178.96 234.384 178.96C235.124 178.96 235.781 179.143 236.354 179.51C236.934 179.87 237.354 180.383 237.614 181.05H236.244C236.064 180.683 235.814 180.41 235.494 180.23C235.174 180.05 234.804 179.96 234.384 179.96C233.924 179.96 233.514 180.063 233.154 180.27C232.794 180.477 232.511 180.773 232.304 181.16C232.104 181.547 232.004 181.997 232.004 182.51C232.004 183.023 232.104 183.473 232.304 183.86C232.511 184.247 232.794 184.547 233.154 184.76C233.514 184.967 233.924 185.07 234.384 185.07C234.804 185.07 235.174 184.98 235.494 184.8C235.814 184.62 236.064 184.347 236.244 183.98H237.614C237.354 184.647 236.934 185.16 236.354 185.52C235.781 185.88 235.124 186.06 234.384 186.06C233.731 186.06 233.134 185.91 232.594 185.61C232.054 185.303 231.624 184.88 231.304 184.34C230.991 183.8 230.834 183.19 230.834 182.51ZM240.088 178.6V186H238.948V178.6H240.088ZM242.165 179.76C241.958 179.76 241.785 179.69 241.645 179.55C241.505 179.41 241.435 179.237 241.435 179.03C241.435 178.823 241.505 178.65 241.645 178.51C241.785 178.37 241.958 178.3 242.165 178.3C242.365 178.3 242.535 178.37 242.675 178.51C242.815 178.65 242.885 178.823 242.885 179.03C242.885 179.237 242.815 179.41 242.675 179.55C242.535 179.69 242.365 179.76 242.165 179.76ZM242.725 180.49V186H241.585V180.49H242.725ZM243.842 183.24C243.842 182.673 243.955 182.177 244.182 181.75C244.415 181.317 244.735 180.983 245.142 180.75C245.548 180.517 246.015 180.4 246.542 180.4C247.208 180.4 247.758 180.56 248.192 180.88C248.632 181.193 248.928 181.643 249.082 182.23H247.852C247.752 181.957 247.592 181.743 247.372 181.59C247.152 181.437 246.875 181.36 246.542 181.36C246.075 181.36 245.702 181.527 245.422 181.86C245.148 182.187 245.012 182.647 245.012 183.24C245.012 183.833 245.148 184.297 245.422 184.63C245.702 184.963 246.075 185.13 246.542 185.13C247.202 185.13 247.638 184.84 247.852 184.26H249.082C248.922 184.82 248.622 185.267 248.182 185.6C247.742 185.927 247.195 186.09 246.542 186.09C246.015 186.09 245.548 185.973 245.142 185.74C244.735 185.5 244.415 185.167 244.182 184.74C243.955 184.307 243.842 183.807 243.842 183.24ZM252.398 183.25L254.938 186H253.398L251.358 183.63V186H250.218V178.6H251.358V182.9L253.358 180.49H254.938L252.398 183.25ZM258.933 179.76C258.726 179.76 258.553 179.69 258.413 179.55C258.273 179.41 258.203 179.237 258.203 179.03C258.203 178.823 258.273 178.65 258.413 178.51C258.553 178.37 258.726 178.3 258.933 178.3C259.133 178.3 259.303 178.37 259.443 178.51C259.583 178.65 259.653 178.823 259.653 179.03C259.653 179.237 259.583 179.41 259.443 179.55C259.303 179.69 259.133 179.76 258.933 179.76ZM259.493 180.49V186H258.353V180.49H259.493ZM263.769 180.4C264.203 180.4 264.589 180.49 264.929 180.67C265.276 180.85 265.546 181.117 265.739 181.47C265.933 181.823 266.029 182.25 266.029 182.75V186H264.899V182.92C264.899 182.427 264.776 182.05 264.529 181.79C264.283 181.523 263.946 181.39 263.519 181.39C263.093 181.39 262.753 181.523 262.499 181.79C262.253 182.05 262.129 182.427 262.129 182.92V186H260.989V180.49H262.129V181.12C262.316 180.893 262.553 180.717 262.839 180.59C263.133 180.463 263.443 180.4 263.769 180.4ZM271.411 181.42V184.47C271.411 184.677 271.458 184.827 271.551 184.92C271.651 185.007 271.818 185.05 272.051 185.05H272.751V186H271.851C271.338 186 270.944 185.88 270.671 185.64C270.398 185.4 270.261 185.01 270.261 184.47V181.42H269.611V180.49H270.261V179.12H271.411V180.49H272.751V181.42H271.411ZM276.652 180.4C277.072 180.4 277.445 180.49 277.772 180.67C278.105 180.85 278.365 181.117 278.552 181.47C278.745 181.823 278.842 182.25 278.842 182.75V186H277.712V182.92C277.712 182.427 277.588 182.05 277.342 181.79C277.095 181.523 276.758 181.39 276.332 181.39C275.905 181.39 275.565 181.523 275.312 181.79C275.065 182.05 274.942 182.427 274.942 182.92V186H273.802V178.6H274.942V181.13C275.135 180.897 275.378 180.717 275.672 180.59C275.972 180.463 276.298 180.4 276.652 180.4ZM280.876 179.76C280.669 179.76 280.496 179.69 280.356 179.55C280.216 179.41 280.146 179.237 280.146 179.03C280.146 178.823 280.216 178.65 280.356 178.51C280.496 178.37 280.669 178.3 280.876 178.3C281.076 178.3 281.246 178.37 281.386 178.51C281.526 178.65 281.596 178.823 281.596 179.03C281.596 179.237 281.526 179.41 281.386 179.55C281.246 179.69 281.076 179.76 280.876 179.76ZM281.436 180.49V186H280.296V180.49H281.436ZM284.933 186.09C284.499 186.09 284.109 186.013 283.763 185.86C283.423 185.7 283.153 185.487 282.953 185.22C282.753 184.947 282.646 184.643 282.633 184.31H283.813C283.833 184.543 283.943 184.74 284.143 184.9C284.349 185.053 284.606 185.13 284.913 185.13C285.233 185.13 285.479 185.07 285.653 184.95C285.833 184.823 285.923 184.663 285.923 184.47C285.923 184.263 285.823 184.11 285.623 184.01C285.429 183.91 285.119 183.8 284.693 183.68C284.279 183.567 283.943 183.457 283.683 183.35C283.423 183.243 283.196 183.08 283.003 182.86C282.816 182.64 282.723 182.35 282.723 181.99C282.723 181.697 282.809 181.43 282.983 181.19C283.156 180.943 283.403 180.75 283.723 180.61C284.049 180.47 284.423 180.4 284.843 180.4C285.469 180.4 285.973 180.56 286.353 180.88C286.739 181.193 286.946 181.623 286.973 182.17H285.833C285.813 181.923 285.713 181.727 285.533 181.58C285.353 181.433 285.109 181.36 284.803 181.36C284.503 181.36 284.273 181.417 284.113 181.53C283.953 181.643 283.873 181.793 283.873 181.98C283.873 182.127 283.926 182.25 284.033 182.35C284.139 182.45 284.269 182.53 284.423 182.59C284.576 182.643 284.803 182.713 285.103 182.8C285.503 182.907 285.829 183.017 286.083 183.13C286.343 183.237 286.566 183.397 286.753 183.61C286.939 183.823 287.036 184.107 287.043 184.46C287.043 184.773 286.956 185.053 286.783 185.3C286.609 185.547 286.363 185.74 286.043 185.88C285.729 186.02 285.359 186.09 284.933 186.09ZM290.492 183.22C290.492 182.667 290.605 182.177 290.832 181.75C291.065 181.323 291.379 180.993 291.772 180.76C292.172 180.52 292.612 180.4 293.092 180.4C293.525 180.4 293.902 180.487 294.222 180.66C294.549 180.827 294.809 181.037 295.002 181.29V180.49H296.152V186H295.002V185.18C294.809 185.44 294.545 185.657 294.212 185.83C293.879 186.003 293.499 186.09 293.072 186.09C292.599 186.09 292.165 185.97 291.772 185.73C291.379 185.483 291.065 185.143 290.832 184.71C290.605 184.27 290.492 183.773 290.492 183.22ZM295.002 183.24C295.002 182.86 294.922 182.53 294.762 182.25C294.609 181.97 294.405 181.757 294.152 181.61C293.899 181.463 293.625 181.39 293.332 181.39C293.039 181.39 292.765 181.463 292.512 181.61C292.259 181.75 292.052 181.96 291.892 182.24C291.739 182.513 291.662 182.84 291.662 183.22C291.662 183.6 291.739 183.933 291.892 184.22C292.052 184.507 292.259 184.727 292.512 184.88C292.772 185.027 293.045 185.1 293.332 185.1C293.625 185.1 293.899 185.027 294.152 184.88C294.405 184.733 294.609 184.52 294.762 184.24C294.922 183.953 295.002 183.62 295.002 183.24ZM298.789 181.29C298.956 181.01 299.176 180.793 299.449 180.64C299.729 180.48 300.059 180.4 300.439 180.4V181.58H300.149C299.703 181.58 299.363 181.693 299.129 181.92C298.903 182.147 298.789 182.54 298.789 183.1V186H297.649V180.49H298.789V181.29ZM306.537 183.11C306.537 183.317 306.524 183.503 306.497 183.67H302.287C302.321 184.11 302.484 184.463 302.777 184.73C303.071 184.997 303.431 185.13 303.857 185.13C304.471 185.13 304.904 184.873 305.157 184.36H306.387C306.221 184.867 305.917 185.283 305.477 185.61C305.044 185.93 304.504 186.09 303.857 186.09C303.331 186.09 302.857 185.973 302.437 185.74C302.024 185.5 301.697 185.167 301.457 184.74C301.224 184.307 301.107 183.807 301.107 183.24C301.107 182.673 301.221 182.177 301.447 181.75C301.681 181.317 302.004 180.983 302.417 180.75C302.837 180.517 303.317 180.4 303.857 180.4C304.377 180.4 304.841 180.513 305.247 180.74C305.654 180.967 305.971 181.287 306.197 181.7C306.424 182.107 306.537 182.577 306.537 183.11ZM305.347 182.75C305.341 182.33 305.191 181.993 304.897 181.74C304.604 181.487 304.241 181.36 303.807 181.36C303.414 181.36 303.077 181.487 302.797 181.74C302.517 181.987 302.351 182.323 302.297 182.75H305.347ZM307.279 183.22C307.279 182.667 307.393 182.177 307.619 181.75C307.853 181.323 308.166 180.993 308.559 180.76C308.959 180.52 309.399 180.4 309.879 180.4C310.313 180.4 310.689 180.487 311.009 180.66C311.336 180.827 311.596 181.037 311.789 181.29V180.49H312.939V186H311.789V185.18C311.596 185.44 311.333 185.657 310.999 185.83C310.666 186.003 310.286 186.09 309.859 186.09C309.386 186.09 308.953 185.97 308.559 185.73C308.166 185.483 307.853 185.143 307.619 184.71C307.393 184.27 307.279 183.773 307.279 183.22ZM311.789 183.24C311.789 182.86 311.709 182.53 311.549 182.25C311.396 181.97 311.193 181.757 310.939 181.61C310.686 181.463 310.413 181.39 310.119 181.39C309.826 181.39 309.553 181.463 309.299 181.61C309.046 181.75 308.839 181.96 308.679 182.24C308.526 182.513 308.449 182.84 308.449 183.22C308.449 183.6 308.526 183.933 308.679 184.22C308.839 184.507 309.046 184.727 309.299 184.88C309.559 185.027 309.833 185.1 310.119 185.1C310.413 185.1 310.686 185.027 310.939 184.88C311.193 184.733 311.396 184.52 311.549 184.24C311.709 183.953 311.789 183.62 311.789 183.24ZM318.364 181.42V184.47C318.364 184.677 318.411 184.827 318.504 184.92C318.604 185.007 318.771 185.05 319.004 185.05H319.704V186H318.804C318.291 186 317.898 185.88 317.624 185.64C317.351 185.4 317.214 185.01 317.214 184.47V181.42H316.564V180.49H317.214V179.12H318.364V180.49H319.704V181.42H318.364ZM323.145 186.09C322.625 186.09 322.155 185.973 321.735 185.74C321.315 185.5 320.985 185.167 320.745 184.74C320.505 184.307 320.385 183.807 320.385 183.24C320.385 182.68 320.508 182.183 320.755 181.75C321.002 181.317 321.338 180.983 321.765 180.75C322.192 180.517 322.668 180.4 323.195 180.4C323.722 180.4 324.198 180.517 324.625 180.75C325.052 180.983 325.388 181.317 325.635 181.75C325.882 182.183 326.005 182.68 326.005 183.24C326.005 183.8 325.878 184.297 325.625 184.73C325.372 185.163 325.025 185.5 324.585 185.74C324.152 185.973 323.672 186.09 323.145 186.09ZM323.145 185.1C323.438 185.1 323.712 185.03 323.965 184.89C324.225 184.75 324.435 184.54 324.595 184.26C324.755 183.98 324.835 183.64 324.835 183.24C324.835 182.84 324.758 182.503 324.605 182.23C324.452 181.95 324.248 181.74 323.995 181.6C323.742 181.46 323.468 181.39 323.175 181.39C322.882 181.39 322.608 181.46 322.355 181.6C322.108 181.74 321.912 181.95 321.765 182.23C321.618 182.503 321.545 182.84 321.545 183.24C321.545 183.833 321.695 184.293 321.995 184.62C322.302 184.94 322.685 185.1 323.145 185.1ZM330.869 181.3C331.063 181.047 331.326 180.833 331.659 180.66C331.993 180.487 332.369 180.4 332.789 180.4C333.269 180.4 333.706 180.52 334.099 180.76C334.499 180.993 334.813 181.323 335.039 181.75C335.266 182.177 335.379 182.667 335.379 183.22C335.379 183.773 335.266 184.27 335.039 184.71C334.813 185.143 334.499 185.483 334.099 185.73C333.706 185.97 333.269 186.09 332.789 186.09C332.369 186.09 331.996 186.007 331.669 185.84C331.343 185.667 331.076 185.453 330.869 185.2V188.62H329.729V180.49H330.869V181.3ZM334.219 183.22C334.219 182.84 334.139 182.513 333.979 182.24C333.826 181.96 333.619 181.75 333.359 181.61C333.106 181.463 332.833 181.39 332.539 181.39C332.253 181.39 331.979 181.463 331.719 181.61C331.466 181.757 331.259 181.97 331.099 182.25C330.946 182.53 330.869 182.86 330.869 183.24C330.869 183.62 330.946 183.953 331.099 184.24C331.259 184.52 331.466 184.733 331.719 184.88C331.979 185.027 332.253 185.1 332.539 185.1C332.833 185.1 333.106 185.027 333.359 184.88C333.619 184.727 333.826 184.507 333.979 184.22C334.139 183.933 334.219 183.6 334.219 183.22ZM337.087 179.76C336.88 179.76 336.707 179.69 336.567 179.55C336.427 179.41 336.357 179.237 336.357 179.03C336.357 178.823 336.427 178.65 336.567 178.51C336.707 178.37 336.88 178.3 337.087 178.3C337.287 178.3 337.457 178.37 337.597 178.51C337.737 178.65 337.807 178.823 337.807 179.03C337.807 179.237 337.737 179.41 337.597 179.55C337.457 179.69 337.287 179.76 337.087 179.76ZM337.647 180.49V186H336.507V180.49H337.647ZM338.764 183.24C338.764 182.673 338.877 182.177 339.104 181.75C339.337 181.317 339.657 180.983 340.064 180.75C340.47 180.517 340.937 180.4 341.464 180.4C342.13 180.4 342.68 180.56 343.114 180.88C343.554 181.193 343.85 181.643 344.004 182.23H342.774C342.674 181.957 342.514 181.743 342.294 181.59C342.074 181.437 341.797 181.36 341.464 181.36C340.997 181.36 340.624 181.527 340.344 181.86C340.07 182.187 339.934 182.647 339.934 183.24C339.934 183.833 340.07 184.297 340.344 184.63C340.624 184.963 340.997 185.13 341.464 185.13C342.124 185.13 342.56 184.84 342.774 184.26H344.004C343.844 184.82 343.544 185.267 343.104 185.6C342.664 185.927 342.117 186.09 341.464 186.09C340.937 186.09 340.47 185.973 340.064 185.74C339.657 185.5 339.337 185.167 339.104 184.74C338.877 184.307 338.764 183.807 338.764 183.24ZM347.32 183.25L349.86 186H348.32L346.28 183.63V186H345.14V178.6H346.28V182.9L348.28 180.49H349.86L347.32 183.25ZM352.894 183.22C352.894 182.667 353.008 182.177 353.234 181.75C353.468 181.323 353.781 180.993 354.174 180.76C354.574 180.52 355.014 180.4 355.494 180.4C355.928 180.4 356.304 180.487 356.624 180.66C356.951 180.827 357.211 181.037 357.404 181.29V180.49H358.554V186H357.404V185.18C357.211 185.44 356.948 185.657 356.614 185.83C356.281 186.003 355.901 186.09 355.474 186.09C355.001 186.09 354.568 185.97 354.174 185.73C353.781 185.483 353.468 185.143 353.234 184.71C353.008 184.27 352.894 183.773 352.894 183.22ZM357.404 183.24C357.404 182.86 357.324 182.53 357.164 182.25C357.011 181.97 356.808 181.757 356.554 181.61C356.301 181.463 356.028 181.39 355.734 181.39C355.441 181.39 355.168 181.463 354.914 181.61C354.661 181.75 354.454 181.96 354.294 182.24C354.141 182.513 354.064 182.84 354.064 183.22C354.064 183.6 354.141 183.933 354.294 184.22C354.454 184.507 354.661 184.727 354.914 184.88C355.174 185.027 355.448 185.1 355.734 185.1C356.028 185.1 356.301 185.027 356.554 184.88C356.808 184.733 357.011 184.52 357.164 184.24C357.324 183.953 357.404 183.62 357.404 183.24ZM362.269 183.24C362.269 182.673 362.383 182.177 362.609 181.75C362.843 181.317 363.163 180.983 363.569 180.75C363.976 180.517 364.443 180.4 364.969 180.4C365.636 180.4 366.186 180.56 366.619 180.88C367.059 181.193 367.356 181.643 367.509 182.23H366.279C366.179 181.957 366.019 181.743 365.799 181.59C365.579 181.437 365.303 181.36 364.969 181.36C364.503 181.36 364.129 181.527 363.849 181.86C363.576 182.187 363.439 182.647 363.439 183.24C363.439 183.833 363.576 184.297 363.849 184.63C364.129 184.963 364.503 185.13 364.969 185.13C365.629 185.13 366.066 184.84 366.279 184.26H367.509C367.349 184.82 367.049 185.267 366.609 185.6C366.169 185.927 365.623 186.09 364.969 186.09C364.443 186.09 363.976 185.973 363.569 185.74C363.163 185.5 362.843 185.167 362.609 184.74C362.383 184.307 362.269 183.807 362.269 183.24ZM371.036 186.09C370.516 186.09 370.046 185.973 369.626 185.74C369.206 185.5 368.876 185.167 368.636 184.74C368.396 184.307 368.276 183.807 368.276 183.24C368.276 182.68 368.399 182.183 368.646 181.75C368.892 181.317 369.229 180.983 369.656 180.75C370.082 180.517 370.559 180.4 371.086 180.4C371.612 180.4 372.089 180.517 372.516 180.75C372.942 180.983 373.279 181.317 373.526 181.75C373.772 182.183 373.896 182.68 373.896 183.24C373.896 183.8 373.769 184.297 373.516 184.73C373.262 185.163 372.916 185.5 372.476 185.74C372.042 185.973 371.562 186.09 371.036 186.09ZM371.036 185.1C371.329 185.1 371.602 185.03 371.856 184.89C372.116 184.75 372.326 184.54 372.486 184.26C372.646 183.98 372.726 183.64 372.726 183.24C372.726 182.84 372.649 182.503 372.496 182.23C372.342 181.95 372.139 181.74 371.886 181.6C371.632 181.46 371.359 181.39 371.066 181.39C370.772 181.39 370.499 181.46 370.246 181.6C369.999 181.74 369.802 181.95 369.656 182.23C369.509 182.503 369.436 182.84 369.436 183.24C369.436 183.833 369.586 184.293 369.886 184.62C370.192 184.94 370.576 185.1 371.036 185.1ZM376.162 178.6V186H375.022V178.6H376.162ZM380.049 186.09C379.529 186.09 379.059 185.973 378.639 185.74C378.219 185.5 377.889 185.167 377.649 184.74C377.409 184.307 377.289 183.807 377.289 183.24C377.289 182.68 377.413 182.183 377.659 181.75C377.906 181.317 378.243 180.983 378.669 180.75C379.096 180.517 379.573 180.4 380.099 180.4C380.626 180.4 381.103 180.517 381.529 180.75C381.956 180.983 382.293 181.317 382.539 181.75C382.786 182.183 382.909 182.68 382.909 183.24C382.909 183.8 382.783 184.297 382.529 184.73C382.276 185.163 381.929 185.5 381.489 185.74C381.056 185.973 380.576 186.09 380.049 186.09ZM380.049 185.1C380.343 185.1 380.616 185.03 380.869 184.89C381.129 184.75 381.339 184.54 381.499 184.26C381.659 183.98 381.739 183.64 381.739 183.24C381.739 182.84 381.663 182.503 381.509 182.23C381.356 181.95 381.153 181.74 380.899 181.6C380.646 181.46 380.373 181.39 380.079 181.39C379.786 181.39 379.513 181.46 379.259 181.6C379.013 181.74 378.816 181.95 378.669 182.23C378.523 182.503 378.449 182.84 378.449 183.24C378.449 183.833 378.599 184.293 378.899 184.62C379.206 184.94 379.589 185.1 380.049 185.1ZM385.176 181.29C385.343 181.01 385.563 180.793 385.836 180.64C386.116 180.48 386.446 180.4 386.826 180.4V181.58H386.536C386.089 181.58 385.749 181.693 385.516 181.92C385.289 182.147 385.176 182.54 385.176 183.1V186H384.036V180.49H385.176V181.29ZM388.334 186.07C388.127 186.07 387.954 186 387.814 185.86C387.674 185.72 387.604 185.547 387.604 185.34C387.604 185.133 387.674 184.96 387.814 184.82C387.954 184.68 388.127 184.61 388.334 184.61C388.534 184.61 388.704 184.68 388.844 184.82C388.984 184.96 389.054 185.133 389.054 185.34C389.054 185.547 388.984 185.72 388.844 185.86C388.704 186 388.534 186.07 388.334 186.07ZM252.152 197.51C252.152 196.83 252.309 196.22 252.622 195.68C252.942 195.14 253.372 194.72 253.912 194.42C254.459 194.113 255.056 193.96 255.702 193.96C256.442 193.96 257.099 194.143 257.672 194.51C258.252 194.87 258.672 195.383 258.932 196.05H257.562C257.382 195.683 257.132 195.41 256.812 195.23C256.492 195.05 256.122 194.96 255.702 194.96C255.242 194.96 254.832 195.063 254.472 195.27C254.112 195.477 253.829 195.773 253.622 196.16C253.422 196.547 253.322 196.997 253.322 197.51C253.322 198.023 253.422 198.473 253.622 198.86C253.829 199.247 254.112 199.547 254.472 199.76C254.832 199.967 255.242 200.07 255.702 200.07C256.122 200.07 256.492 199.98 256.812 199.8C257.132 199.62 257.382 199.347 257.562 198.98H258.932C258.672 199.647 258.252 200.16 257.672 200.52C257.099 200.88 256.442 201.06 255.702 201.06C255.049 201.06 254.452 200.91 253.912 200.61C253.372 200.303 252.942 199.88 252.622 199.34C252.309 198.8 252.152 198.19 252.152 197.51ZM261.407 193.6V201H260.267V193.6H261.407ZM263.483 194.76C263.277 194.76 263.103 194.69 262.963 194.55C262.823 194.41 262.753 194.237 262.753 194.03C262.753 193.823 262.823 193.65 262.963 193.51C263.103 193.37 263.277 193.3 263.483 193.3C263.683 193.3 263.853 193.37 263.993 193.51C264.133 193.65 264.203 193.823 264.203 194.03C264.203 194.237 264.133 194.41 263.993 194.55C263.853 194.69 263.683 194.76 263.483 194.76ZM264.043 195.49V201H262.903V195.49H264.043ZM265.16 198.24C265.16 197.673 265.273 197.177 265.5 196.75C265.733 196.317 266.053 195.983 266.46 195.75C266.867 195.517 267.333 195.4 267.86 195.4C268.527 195.4 269.077 195.56 269.51 195.88C269.95 196.193 270.247 196.643 270.4 197.23H269.17C269.07 196.957 268.91 196.743 268.69 196.59C268.47 196.437 268.193 196.36 267.86 196.36C267.393 196.36 267.02 196.527 266.74 196.86C266.467 197.187 266.33 197.647 266.33 198.24C266.33 198.833 266.467 199.297 266.74 199.63C267.02 199.963 267.393 200.13 267.86 200.13C268.52 200.13 268.957 199.84 269.17 199.26H270.4C270.24 199.82 269.94 200.267 269.5 200.6C269.06 200.927 268.513 201.09 267.86 201.09C267.333 201.09 266.867 200.973 266.46 200.74C266.053 200.5 265.733 200.167 265.5 199.74C265.273 199.307 265.16 198.807 265.16 198.24ZM273.716 198.25L276.256 201H274.716L272.676 198.63V201H271.536V193.6H272.676V197.9L274.676 195.49H276.256L273.716 198.25ZM282.061 201.09C281.541 201.09 281.071 200.973 280.651 200.74C280.231 200.5 279.901 200.167 279.661 199.74C279.421 199.307 279.301 198.807 279.301 198.24C279.301 197.68 279.424 197.183 279.671 196.75C279.918 196.317 280.254 195.983 280.681 195.75C281.108 195.517 281.584 195.4 282.111 195.4C282.638 195.4 283.114 195.517 283.541 195.75C283.968 195.983 284.304 196.317 284.551 196.75C284.798 197.183 284.921 197.68 284.921 198.24C284.921 198.8 284.794 199.297 284.541 199.73C284.288 200.163 283.941 200.5 283.501 200.74C283.068 200.973 282.588 201.09 282.061 201.09ZM282.061 200.1C282.354 200.1 282.628 200.03 282.881 199.89C283.141 199.75 283.351 199.54 283.511 199.26C283.671 198.98 283.751 198.64 283.751 198.24C283.751 197.84 283.674 197.503 283.521 197.23C283.368 196.95 283.164 196.74 282.911 196.6C282.658 196.46 282.384 196.39 282.091 196.39C281.798 196.39 281.524 196.46 281.271 196.6C281.024 196.74 280.828 196.95 280.681 197.23C280.534 197.503 280.461 197.84 280.461 198.24C280.461 198.833 280.611 199.293 280.911 199.62C281.218 199.94 281.601 200.1 282.061 200.1ZM291.038 195.49V201H289.898V200.35C289.718 200.577 289.481 200.757 289.188 200.89C288.901 201.017 288.595 201.08 288.268 201.08C287.835 201.08 287.445 200.99 287.098 200.81C286.758 200.63 286.488 200.363 286.288 200.01C286.095 199.657 285.998 199.23 285.998 198.73V195.49H287.128V198.56C287.128 199.053 287.251 199.433 287.498 199.7C287.745 199.96 288.081 200.09 288.508 200.09C288.935 200.09 289.271 199.96 289.518 199.7C289.771 199.433 289.898 199.053 289.898 198.56V195.49H291.038ZM293.872 196.42V199.47C293.872 199.677 293.919 199.827 294.012 199.92C294.112 200.007 294.279 200.05 294.512 200.05H295.212V201H294.312C293.799 201 293.405 200.88 293.132 200.64C292.859 200.4 292.722 200.01 292.722 199.47V196.42H292.072V195.49H292.722V194.12H293.872V195.49H295.212V196.42H293.872ZM298.263 201.09C297.829 201.09 297.439 201.013 297.093 200.86C296.753 200.7 296.483 200.487 296.283 200.22C296.083 199.947 295.976 199.643 295.963 199.31H297.143C297.163 199.543 297.273 199.74 297.473 199.9C297.679 200.053 297.936 200.13 298.243 200.13C298.563 200.13 298.809 200.07 298.983 199.95C299.163 199.823 299.253 199.663 299.253 199.47C299.253 199.263 299.153 199.11 298.953 199.01C298.759 198.91 298.449 198.8 298.023 198.68C297.609 198.567 297.273 198.457 297.013 198.35C296.753 198.243 296.526 198.08 296.333 197.86C296.146 197.64 296.053 197.35 296.053 196.99C296.053 196.697 296.139 196.43 296.313 196.19C296.486 195.943 296.733 195.75 297.053 195.61C297.379 195.47 297.753 195.4 298.173 195.4C298.799 195.4 299.303 195.56 299.683 195.88C300.069 196.193 300.276 196.623 300.303 197.17H299.163C299.143 196.923 299.043 196.727 298.863 196.58C298.683 196.433 298.439 196.36 298.133 196.36C297.833 196.36 297.603 196.417 297.443 196.53C297.283 196.643 297.203 196.793 297.203 196.98C297.203 197.127 297.256 197.25 297.363 197.35C297.469 197.45 297.599 197.53 297.753 197.59C297.906 197.643 298.133 197.713 298.433 197.8C298.833 197.907 299.159 198.017 299.413 198.13C299.673 198.237 299.896 198.397 300.083 198.61C300.269 198.823 300.366 199.107 300.373 199.46C300.373 199.773 300.286 200.053 300.113 200.3C299.939 200.547 299.693 200.74 299.373 200.88C299.059 201.02 298.689 201.09 298.263 201.09ZM302.184 194.76C301.978 194.76 301.804 194.69 301.664 194.55C301.524 194.41 301.454 194.237 301.454 194.03C301.454 193.823 301.524 193.65 301.664 193.51C301.804 193.37 301.978 193.3 302.184 193.3C302.384 193.3 302.554 193.37 302.694 193.51C302.834 193.65 302.904 193.823 302.904 194.03C302.904 194.237 302.834 194.41 302.694 194.55C302.554 194.69 302.384 194.76 302.184 194.76ZM302.744 195.49V201H301.604V195.49H302.744ZM303.861 198.22C303.861 197.667 303.975 197.177 304.201 196.75C304.435 196.323 304.748 195.993 305.141 195.76C305.541 195.52 305.985 195.4 306.471 195.4C306.831 195.4 307.185 195.48 307.531 195.64C307.885 195.793 308.165 196 308.371 196.26V193.6H309.521V201H308.371V200.17C308.185 200.437 307.925 200.657 307.591 200.83C307.265 201.003 306.888 201.09 306.461 201.09C305.981 201.09 305.541 200.97 305.141 200.73C304.748 200.483 304.435 200.143 304.201 199.71C303.975 199.27 303.861 198.773 303.861 198.22ZM308.371 198.24C308.371 197.86 308.291 197.53 308.131 197.25C307.978 196.97 307.775 196.757 307.521 196.61C307.268 196.463 306.995 196.39 306.701 196.39C306.408 196.39 306.135 196.463 305.881 196.61C305.628 196.75 305.421 196.96 305.261 197.24C305.108 197.513 305.031 197.84 305.031 198.22C305.031 198.6 305.108 198.933 305.261 199.22C305.421 199.507 305.628 199.727 305.881 199.88C306.141 200.027 306.415 200.1 306.701 200.1C306.995 200.1 307.268 200.027 307.521 199.88C307.775 199.733 307.978 199.52 308.131 199.24C308.291 198.953 308.371 198.62 308.371 198.24ZM316.069 198.11C316.069 198.317 316.055 198.503 316.029 198.67H311.819C311.852 199.11 312.015 199.463 312.309 199.73C312.602 199.997 312.962 200.13 313.389 200.13C314.002 200.13 314.435 199.873 314.689 199.36H315.919C315.752 199.867 315.449 200.283 315.009 200.61C314.575 200.93 314.035 201.09 313.389 201.09C312.862 201.09 312.389 200.973 311.969 200.74C311.555 200.5 311.229 200.167 310.989 199.74C310.755 199.307 310.639 198.807 310.639 198.24C310.639 197.673 310.752 197.177 310.979 196.75C311.212 196.317 311.535 195.983 311.949 195.75C312.369 195.517 312.849 195.4 313.389 195.4C313.909 195.4 314.372 195.513 314.779 195.74C315.185 195.967 315.502 196.287 315.729 196.7C315.955 197.107 316.069 197.577 316.069 198.11ZM314.879 197.75C314.872 197.33 314.722 196.993 314.429 196.74C314.135 196.487 313.772 196.36 313.339 196.36C312.945 196.36 312.609 196.487 312.329 196.74C312.049 196.987 311.882 197.323 311.829 197.75H314.879ZM321.118 196.42V199.47C321.118 199.677 321.165 199.827 321.258 199.92C321.358 200.007 321.525 200.05 321.758 200.05H322.458V201H321.558C321.045 201 320.651 200.88 320.378 200.64C320.105 200.4 319.968 200.01 319.968 199.47V196.42H319.318V195.49H319.968V194.12H321.118V195.49H322.458V196.42H321.118ZM325.899 201.09C325.379 201.09 324.909 200.973 324.489 200.74C324.069 200.5 323.739 200.167 323.499 199.74C323.259 199.307 323.139 198.807 323.139 198.24C323.139 197.68 323.262 197.183 323.509 196.75C323.755 196.317 324.092 195.983 324.519 195.75C324.945 195.517 325.422 195.4 325.949 195.4C326.475 195.4 326.952 195.517 327.379 195.75C327.805 195.983 328.142 196.317 328.389 196.75C328.635 197.183 328.759 197.68 328.759 198.24C328.759 198.8 328.632 199.297 328.379 199.73C328.125 200.163 327.779 200.5 327.339 200.74C326.905 200.973 326.425 201.09 325.899 201.09ZM325.899 200.1C326.192 200.1 326.465 200.03 326.719 199.89C326.979 199.75 327.189 199.54 327.349 199.26C327.509 198.98 327.589 198.64 327.589 198.24C327.589 197.84 327.512 197.503 327.359 197.23C327.205 196.95 327.002 196.74 326.749 196.6C326.495 196.46 326.222 196.39 325.929 196.39C325.635 196.39 325.362 196.46 325.109 196.6C324.862 196.74 324.665 196.95 324.519 197.23C324.372 197.503 324.299 197.84 324.299 198.24C324.299 198.833 324.449 199.293 324.749 199.62C325.055 199.94 325.439 200.1 325.899 200.1ZM332.103 198.24C332.103 197.673 332.217 197.177 332.443 196.75C332.677 196.317 332.997 195.983 333.403 195.75C333.81 195.517 334.277 195.4 334.803 195.4C335.47 195.4 336.02 195.56 336.453 195.88C336.893 196.193 337.19 196.643 337.343 197.23H336.113C336.013 196.957 335.853 196.743 335.633 196.59C335.413 196.437 335.137 196.36 334.803 196.36C334.337 196.36 333.963 196.527 333.683 196.86C333.41 197.187 333.273 197.647 333.273 198.24C333.273 198.833 333.41 199.297 333.683 199.63C333.963 199.963 334.337 200.13 334.803 200.13C335.463 200.13 335.9 199.84 336.113 199.26H337.343C337.183 199.82 336.883 200.267 336.443 200.6C336.003 200.927 335.457 201.09 334.803 201.09C334.277 201.09 333.81 200.973 333.403 200.74C332.997 200.5 332.677 200.167 332.443 199.74C332.217 199.307 332.103 198.807 332.103 198.24ZM338.099 198.22C338.099 197.667 338.213 197.177 338.439 196.75C338.673 196.323 338.986 195.993 339.379 195.76C339.779 195.52 340.219 195.4 340.699 195.4C341.133 195.4 341.509 195.487 341.829 195.66C342.156 195.827 342.416 196.037 342.609 196.29V195.49H343.759V201H342.609V200.18C342.416 200.44 342.153 200.657 341.819 200.83C341.486 201.003 341.106 201.09 340.679 201.09C340.206 201.09 339.773 200.97 339.379 200.73C338.986 200.483 338.673 200.143 338.439 199.71C338.213 199.27 338.099 198.773 338.099 198.22ZM342.609 198.24C342.609 197.86 342.529 197.53 342.369 197.25C342.216 196.97 342.013 196.757 341.759 196.61C341.506 196.463 341.233 196.39 340.939 196.39C340.646 196.39 340.373 196.463 340.119 196.61C339.866 196.75 339.659 196.96 339.499 197.24C339.346 197.513 339.269 197.84 339.269 198.22C339.269 198.6 339.346 198.933 339.499 199.22C339.659 199.507 339.866 199.727 340.119 199.88C340.379 200.027 340.653 200.1 340.939 200.1C341.233 200.1 341.506 200.027 341.759 199.88C342.013 199.733 342.216 199.52 342.369 199.24C342.529 198.953 342.609 198.62 342.609 198.24ZM348.037 195.4C348.47 195.4 348.857 195.49 349.197 195.67C349.544 195.85 349.814 196.117 350.007 196.47C350.2 196.823 350.297 197.25 350.297 197.75V201H349.167V197.92C349.167 197.427 349.044 197.05 348.797 196.79C348.55 196.523 348.214 196.39 347.787 196.39C347.36 196.39 347.02 196.523 346.767 196.79C346.52 197.05 346.397 197.427 346.397 197.92V201H345.257V195.49H346.397V196.12C346.584 195.893 346.82 195.717 347.107 195.59C347.4 195.463 347.71 195.4 348.037 195.4ZM351.371 198.24C351.371 197.673 351.484 197.177 351.711 196.75C351.944 196.317 352.264 195.983 352.671 195.75C353.078 195.517 353.544 195.4 354.071 195.4C354.738 195.4 355.288 195.56 355.721 195.88C356.161 196.193 356.458 196.643 356.611 197.23H355.381C355.281 196.957 355.121 196.743 354.901 196.59C354.681 196.437 354.404 196.36 354.071 196.36C353.604 196.36 353.231 196.527 352.951 196.86C352.678 197.187 352.541 197.647 352.541 198.24C352.541 198.833 352.678 199.297 352.951 199.63C353.231 199.963 353.604 200.13 354.071 200.13C354.731 200.13 355.168 199.84 355.381 199.26H356.611C356.451 199.82 356.151 200.267 355.711 200.6C355.271 200.927 354.724 201.09 354.071 201.09C353.544 201.09 353.078 200.973 352.671 200.74C352.264 200.5 351.944 200.167 351.711 199.74C351.484 199.307 351.371 198.807 351.371 198.24ZM362.797 198.11C362.797 198.317 362.784 198.503 362.757 198.67H358.547C358.58 199.11 358.744 199.463 359.037 199.73C359.33 199.997 359.69 200.13 360.117 200.13C360.73 200.13 361.164 199.873 361.417 199.36H362.647C362.48 199.867 362.177 200.283 361.737 200.61C361.304 200.93 360.764 201.09 360.117 201.09C359.59 201.09 359.117 200.973 358.697 200.74C358.284 200.5 357.957 200.167 357.717 199.74C357.484 199.307 357.367 198.807 357.367 198.24C357.367 197.673 357.48 197.177 357.707 196.75C357.94 196.317 358.264 195.983 358.677 195.75C359.097 195.517 359.577 195.4 360.117 195.4C360.637 195.4 361.1 195.513 361.507 195.74C361.914 195.967 362.23 196.287 362.457 196.7C362.684 197.107 362.797 197.577 362.797 198.11ZM361.607 197.75C361.6 197.33 361.45 196.993 361.157 196.74C360.864 196.487 360.5 196.36 360.067 196.36C359.674 196.36 359.337 196.487 359.057 196.74C358.777 196.987 358.61 197.323 358.557 197.75H361.607ZM365.059 193.6V201H363.919V193.6H365.059ZM367.016 201.07C366.809 201.07 366.636 201 366.496 200.86C366.356 200.72 366.286 200.547 366.286 200.34C366.286 200.133 366.356 199.96 366.496 199.82C366.636 199.68 366.809 199.61 367.016 199.61C367.216 199.61 367.386 199.68 367.526 199.82C367.666 199.96 367.736 200.133 367.736 200.34C367.736 200.547 367.666 200.72 367.526 200.86C367.386 201 367.216 201.07 367.016 201.07Z" fill="black"/>
</svg>
