<svg width="480" height="360" viewBox="0 0 480 360" fill="none" xmlns="http://www.w3.org/2000/svg">
<g clip-path="url(#clip0_409_817)">
<path d="M0 0H130C141.046 0 150 8.95431 150 20V340C150 351.046 141.046 360 130 360H0V0Z" fill="#E6E6E6"/>
<path d="M50.864 31.112C50.1173 31.112 49.4453 30.984 48.848 30.728C48.2507 30.4613 47.7813 30.088 47.44 29.608C47.0987 29.128 46.928 28.568 46.928 27.928H48.88C48.9227 28.408 49.1093 28.8027 49.44 29.112C49.7813 29.4213 50.256 29.576 50.864 29.576C51.4933 29.576 51.984 29.4267 52.336 29.128C52.688 28.8187 52.864 28.424 52.864 27.944C52.864 27.5707 52.752 27.2667 52.528 27.032C52.3147 26.7973 52.0427 26.616 51.712 26.488C51.392 26.36 50.944 26.2213 50.368 26.072C49.6427 25.88 49.0507 25.688 48.592 25.496C48.144 25.2933 47.76 24.984 47.44 24.568C47.12 24.152 46.96 23.5973 46.96 22.904C46.96 22.264 47.12 21.704 47.44 21.224C47.76 20.744 48.208 20.376 48.784 20.12C49.36 19.864 50.0267 19.736 50.784 19.736C51.8613 19.736 52.7413 20.008 53.424 20.552C54.1173 21.0853 54.5013 21.8213 54.576 22.76H52.56C52.528 22.3547 52.336 22.008 51.984 21.72C51.632 21.432 51.168 21.288 50.592 21.288C50.0693 21.288 49.6427 21.4213 49.312 21.688C48.9813 21.9547 48.816 22.3387 48.816 22.84C48.816 23.1813 48.9173 23.464 49.12 23.688C49.3333 23.9013 49.6 24.072 49.92 24.2C50.24 24.328 50.6773 24.4667 51.232 24.616C51.968 24.8187 52.5653 25.0213 53.024 25.224C53.4933 25.4267 53.888 25.7413 54.208 26.168C54.5387 26.584 54.704 27.144 54.704 27.848C54.704 28.4133 54.5493 28.9467 54.24 29.448C53.9413 29.9493 53.4987 30.3547 52.912 30.664C52.336 30.9627 51.6533 31.112 50.864 31.112ZM58.9843 23.672V28.552C58.9843 28.8827 59.0589 29.1227 59.2083 29.272C59.3683 29.4107 59.6349 29.48 60.0083 29.48H61.1283V31H59.6883C58.8669 31 58.2376 30.808 57.8003 30.424C57.3629 30.04 57.1443 29.416 57.1443 28.552V23.672H56.1043V22.184H57.1443V19.992H58.9843V22.184H61.1283V23.672H58.9843ZM66.6334 31.144C65.8014 31.144 65.0494 30.9573 64.3774 30.584C63.7054 30.2 63.1774 29.6667 62.7934 28.984C62.4094 28.2907 62.2174 27.4907 62.2174 26.584C62.2174 25.688 62.4147 24.8933 62.8094 24.2C63.204 23.5067 63.7427 22.9733 64.4254 22.6C65.108 22.2267 65.8707 22.04 66.7134 22.04C67.556 22.04 68.3187 22.2267 69.0014 22.6C69.684 22.9733 70.2227 23.5067 70.6174 24.2C71.012 24.8933 71.2094 25.688 71.2094 26.584C71.2094 27.48 71.0067 28.2747 70.6014 28.968C70.196 29.6613 69.6414 30.2 68.9374 30.584C68.244 30.9573 67.476 31.144 66.6334 31.144ZM66.6334 29.56C67.1027 29.56 67.54 29.448 67.9454 29.224C68.3614 29 68.6974 28.664 68.9534 28.216C69.2094 27.768 69.3374 27.224 69.3374 26.584C69.3374 25.944 69.2147 25.4053 68.9694 24.968C68.724 24.52 68.3987 24.184 67.9934 23.96C67.588 23.736 67.1507 23.624 66.6814 23.624C66.212 23.624 65.7747 23.736 65.3694 23.96C64.9747 24.184 64.66 24.52 64.4254 24.968C64.1907 25.4053 64.0734 25.944 64.0734 26.584C64.0734 27.5333 64.3134 28.2693 64.7934 28.792C65.284 29.304 65.8974 29.56 66.6334 29.56ZM74.8365 23.464C75.1032 23.016 75.4552 22.6693 75.8925 22.424C76.3405 22.168 76.8685 22.04 77.4765 22.04V23.928H77.0125C76.2978 23.928 75.7538 24.1093 75.3805 24.472C75.0178 24.8347 74.8365 25.464 74.8365 26.36V31H73.0125V22.184H74.8365V23.464ZM87.2331 26.376C87.2331 26.7067 87.2118 27.0053 87.1691 27.272H80.4331C80.4865 27.976 80.7478 28.5413 81.2171 28.968C81.6865 29.3947 82.2625 29.608 82.9451 29.608C83.9265 29.608 84.6198 29.1973 85.0251 28.376H86.9931C86.7265 29.1867 86.2411 29.8533 85.5371 30.376C84.8438 30.888 83.9798 31.144 82.9451 31.144C82.1025 31.144 81.3451 30.9573 80.6731 30.584C80.0118 30.2 79.4891 29.6667 79.1051 28.984C78.7318 28.2907 78.5451 27.4907 78.5451 26.584C78.5451 25.6773 78.7265 24.8827 79.0891 24.2C79.4625 23.5067 79.9798 22.9733 80.6411 22.6C81.3131 22.2267 82.0811 22.04 82.9451 22.04C83.7771 22.04 84.5185 22.2213 85.1691 22.584C85.8198 22.9467 86.3265 23.4587 86.6891 24.12C87.0518 24.7707 87.2331 25.5227 87.2331 26.376ZM85.3291 25.8C85.3185 25.128 85.0785 24.5893 84.6091 24.184C84.1398 23.7787 83.5585 23.576 82.8651 23.576C82.2358 23.576 81.6971 23.7787 81.2491 24.184C80.8011 24.5787 80.5345 25.1173 80.4491 25.8H85.3291Z" fill="black"/>
<path d="M35.928 67.296H32.436L31.836 69H30.408L33.396 60.648H34.98L37.968 69H36.528L35.928 67.296ZM35.544 66.18L34.188 62.304L32.82 66.18H35.544ZM40.6352 63.36C40.8672 63.056 41.1832 62.8 41.5832 62.592C41.9832 62.384 42.4352 62.28 42.9392 62.28C43.5152 62.28 44.0392 62.424 44.5112 62.712C44.9912 62.992 45.3672 63.388 45.6392 63.9C45.9112 64.412 46.0472 65 46.0472 65.664C46.0472 66.328 45.9112 66.924 45.6392 67.452C45.3672 67.972 44.9912 68.38 44.5112 68.676C44.0392 68.964 43.5152 69.108 42.9392 69.108C42.4352 69.108 41.9872 69.008 41.5952 68.808C41.2032 68.6 40.8832 68.344 40.6352 68.04V72.144H39.2672V62.388H40.6352V63.36ZM44.6552 65.664C44.6552 65.208 44.5592 64.816 44.3672 64.488C44.1832 64.152 43.9352 63.9 43.6232 63.732C43.3192 63.556 42.9912 63.468 42.6392 63.468C42.2952 63.468 41.9672 63.556 41.6552 63.732C41.3512 63.908 41.1032 64.164 40.9112 64.5C40.7272 64.836 40.6352 65.232 40.6352 65.688C40.6352 66.144 40.7272 66.544 40.9112 66.888C41.1032 67.224 41.3512 67.48 41.6552 67.656C41.9672 67.832 42.2952 67.92 42.6392 67.92C42.9912 67.92 43.3192 67.832 43.6232 67.656C43.9352 67.472 44.1832 67.208 44.3672 66.864C44.5592 66.52 44.6552 66.12 44.6552 65.664ZM48.768 63.36C49 63.056 49.316 62.8 49.716 62.592C50.116 62.384 50.568 62.28 51.072 62.28C51.648 62.28 52.172 62.424 52.644 62.712C53.124 62.992 53.5 63.388 53.772 63.9C54.044 64.412 54.18 65 54.18 65.664C54.18 66.328 54.044 66.924 53.772 67.452C53.5 67.972 53.124 68.38 52.644 68.676C52.172 68.964 51.648 69.108 51.072 69.108C50.568 69.108 50.12 69.008 49.728 68.808C49.336 68.6 49.016 68.344 48.768 68.04V72.144H47.4V62.388H48.768V63.36ZM52.788 65.664C52.788 65.208 52.692 64.816 52.5 64.488C52.316 64.152 52.068 63.9 51.756 63.732C51.452 63.556 51.124 63.468 50.772 63.468C50.428 63.468 50.1 63.556 49.788 63.732C49.484 63.908 49.236 64.164 49.044 64.5C48.86 64.836 48.768 65.232 48.768 65.688C48.768 66.144 48.86 66.544 49.044 66.888C49.236 67.224 49.484 67.48 49.788 67.656C50.1 67.832 50.428 67.92 50.772 67.92C51.124 67.92 51.452 67.832 51.756 67.656C52.068 67.472 52.316 67.208 52.5 66.864C52.692 66.52 52.788 66.12 52.788 65.664ZM57.9328 69.108C57.4128 69.108 56.9448 69.016 56.5288 68.832C56.1208 68.64 55.7968 68.384 55.5568 68.064C55.3168 67.736 55.1888 67.372 55.1728 66.972H56.5888C56.6128 67.252 56.7448 67.488 56.9848 67.68C57.2328 67.864 57.5408 67.956 57.9088 67.956C58.2928 67.956 58.5888 67.884 58.7968 67.74C59.0128 67.588 59.1208 67.396 59.1208 67.164C59.1208 66.916 59.0008 66.732 58.7608 66.612C58.5288 66.492 58.1568 66.36 57.6448 66.216C57.1488 66.08 56.7448 65.948 56.4328 65.82C56.1208 65.692 55.8488 65.496 55.6168 65.232C55.3928 64.968 55.2808 64.62 55.2808 64.188C55.2808 63.836 55.3848 63.516 55.5928 63.228C55.8008 62.932 56.0968 62.7 56.4808 62.532C56.8728 62.364 57.3208 62.28 57.8248 62.28C58.5768 62.28 59.1808 62.472 59.6368 62.856C60.1008 63.232 60.3488 63.748 60.3808 64.404H59.0128C58.9888 64.108 58.8688 63.872 58.6528 63.696C58.4368 63.52 58.1448 63.432 57.7768 63.432C57.4168 63.432 57.1408 63.5 56.9488 63.636C56.7568 63.772 56.6608 63.952 56.6608 64.176C56.6608 64.352 56.7248 64.5 56.8528 64.62C56.9808 64.74 57.1368 64.836 57.3208 64.908C57.5048 64.972 57.7768 65.056 58.1368 65.16C58.6168 65.288 59.0088 65.42 59.3128 65.556C59.6248 65.684 59.8928 65.876 60.1168 66.132C60.3408 66.388 60.4568 66.728 60.4648 67.152C60.4648 67.528 60.3608 67.864 60.1528 68.16C59.9448 68.456 59.6488 68.688 59.2648 68.856C58.8888 69.024 58.4448 69.108 57.9328 69.108ZM71.5042 69L70.4722 67.968C70.0722 68.368 69.6362 68.668 69.1642 68.868C68.6922 69.06 68.1642 69.156 67.5802 69.156C66.9882 69.156 66.4642 69.052 66.0082 68.844C65.5522 68.636 65.2002 68.34 64.9522 67.956C64.7042 67.564 64.5802 67.112 64.5802 66.6C64.5802 66.024 64.7442 65.512 65.0722 65.064C65.4002 64.608 65.8882 64.248 66.5362 63.984C66.3042 63.704 66.1402 63.444 66.0442 63.204C65.9482 62.956 65.9002 62.684 65.9002 62.388C65.9002 62.02 65.9922 61.692 66.1762 61.404C66.3682 61.116 66.6402 60.888 66.9922 60.72C67.3442 60.552 67.7522 60.468 68.2162 60.468C68.6882 60.468 69.0882 60.56 69.4162 60.744C69.7522 60.92 70.0002 61.164 70.1602 61.476C70.3282 61.788 70.3962 62.136 70.3642 62.52H68.9962C69.0042 62.224 68.9322 61.996 68.7802 61.836C68.6282 61.668 68.4202 61.584 68.1562 61.584C67.8922 61.584 67.6762 61.664 67.5082 61.824C67.3482 61.976 67.2682 62.164 67.2682 62.388C67.2682 62.604 67.3282 62.82 67.4482 63.036C67.5762 63.244 67.7962 63.516 68.1082 63.852L70.3162 66.048L71.1682 64.644H72.6442L71.5642 66.492L71.2642 66.984L73.2922 69H71.5042ZM67.5802 67.992C68.3322 67.992 68.9962 67.684 69.5722 67.068L67.3642 64.848C66.4202 65.224 65.9482 65.792 65.9482 66.552C65.9482 66.96 66.1002 67.304 66.4042 67.584C66.7082 67.856 67.1002 67.992 67.5802 67.992ZM79.9703 62.28C80.4823 62.28 80.9343 62.384 81.3263 62.592C81.7263 62.792 82.0383 63.044 82.2623 63.348V62.388H83.6423V69.108C83.6423 69.716 83.5143 70.256 83.2583 70.728C83.0023 71.208 82.6303 71.584 82.1423 71.856C81.6623 72.128 81.0863 72.264 80.4143 72.264C79.5183 72.264 78.7743 72.052 78.1823 71.628C77.5903 71.212 77.2543 70.644 77.1743 69.924H78.5303C78.6343 70.268 78.8543 70.544 79.1903 70.752C79.5343 70.968 79.9423 71.076 80.4143 71.076C80.9663 71.076 81.4103 70.908 81.7463 70.572C82.0903 70.236 82.2623 69.748 82.2623 69.108V68.004C82.0303 68.316 81.7143 68.58 81.3143 68.796C80.9223 69.004 80.4743 69.108 79.9703 69.108C79.3943 69.108 78.8663 68.964 78.3863 68.676C77.9143 68.38 77.5383 67.972 77.2583 67.452C76.9863 66.924 76.8503 66.328 76.8503 65.664C76.8503 65 76.9863 64.412 77.2583 63.9C77.5383 63.388 77.9143 62.992 78.3863 62.712C78.8663 62.424 79.3943 62.28 79.9703 62.28ZM82.2623 65.688C82.2623 65.232 82.1663 64.836 81.9743 64.5C81.7903 64.164 81.5463 63.908 81.2423 63.732C80.9383 63.556 80.6103 63.468 80.2583 63.468C79.9063 63.468 79.5783 63.556 79.2743 63.732C78.9703 63.9 78.7223 64.152 78.5303 64.488C78.3463 64.816 78.2543 65.208 78.2543 65.664C78.2543 66.12 78.3463 66.52 78.5303 66.864C78.7223 67.208 78.9703 67.472 79.2743 67.656C79.5863 67.832 79.9143 67.92 80.2583 67.92C80.6103 67.92 80.9383 67.832 81.2423 67.656C81.5463 67.48 81.7903 67.224 81.9743 66.888C82.1663 66.544 82.2623 66.144 82.2623 65.688ZM84.9831 65.664C84.9831 65 85.1191 64.412 85.3911 63.9C85.6711 63.388 86.0471 62.992 86.5191 62.712C86.9991 62.424 87.5271 62.28 88.1031 62.28C88.6231 62.28 89.0751 62.384 89.4591 62.592C89.8511 62.792 90.1631 63.044 90.3951 63.348V62.388H91.7751V69H90.3951V68.016C90.1631 68.328 89.8471 68.588 89.4471 68.796C89.0471 69.004 88.5911 69.108 88.0791 69.108C87.5111 69.108 86.9911 68.964 86.5191 68.676C86.0471 68.38 85.6711 67.972 85.3911 67.452C85.1191 66.924 84.9831 66.328 84.9831 65.664ZM90.3951 65.688C90.3951 65.232 90.2991 64.836 90.1071 64.5C89.9231 64.164 89.6791 63.908 89.3751 63.732C89.0711 63.556 88.7431 63.468 88.3911 63.468C88.0391 63.468 87.7111 63.556 87.4071 63.732C87.1031 63.9 86.8551 64.152 86.6631 64.488C86.4791 64.816 86.3871 65.208 86.3871 65.664C86.3871 66.12 86.4791 66.52 86.6631 66.864C86.8551 67.208 87.1031 67.472 87.4071 67.656C87.7191 67.832 88.0471 67.92 88.3911 67.92C88.7431 67.92 89.0711 67.832 89.3751 67.656C89.6791 67.48 89.9231 67.224 90.1071 66.888C90.2991 66.544 90.3951 66.144 90.3951 65.688ZM101.576 62.28C102.096 62.28 102.56 62.388 102.968 62.604C103.384 62.82 103.708 63.14 103.94 63.564C104.18 63.988 104.3 64.5 104.3 65.1V69H102.944V65.304C102.944 64.712 102.796 64.26 102.5 63.948C102.204 63.628 101.8 63.468 101.288 63.468C100.776 63.468 100.368 63.628 100.064 63.948C99.7679 64.26 99.6199 64.712 99.6199 65.304V69H98.2639V65.304C98.2639 64.712 98.1159 64.26 97.8199 63.948C97.5239 63.628 97.1199 63.468 96.6079 63.468C96.0959 63.468 95.6879 63.628 95.3839 63.948C95.0879 64.26 94.9399 64.712 94.9399 65.304V69H93.5719V62.388H94.9399V63.144C95.1639 62.872 95.4479 62.66 95.7919 62.508C96.1359 62.356 96.5039 62.28 96.8959 62.28C97.4239 62.28 97.8959 62.392 98.3119 62.616C98.7279 62.84 99.0479 63.164 99.2719 63.588C99.4719 63.188 99.7839 62.872 100.208 62.64C100.632 62.4 101.088 62.28 101.576 62.28ZM112.101 65.532C112.101 65.78 112.085 66.004 112.053 66.204H107.001C107.041 66.732 107.237 67.156 107.589 67.476C107.941 67.796 108.373 67.956 108.885 67.956C109.621 67.956 110.141 67.648 110.445 67.032H111.921C111.721 67.64 111.357 68.14 110.829 68.532C110.309 68.916 109.661 69.108 108.885 69.108C108.253 69.108 107.685 68.968 107.181 68.688C106.685 68.4 106.293 68 106.005 67.488C105.725 66.968 105.585 66.368 105.585 65.688C105.585 65.008 105.721 64.412 105.993 63.9C106.273 63.38 106.661 62.98 107.157 62.7C107.661 62.42 108.237 62.28 108.885 62.28C109.509 62.28 110.065 62.416 110.553 62.688C111.041 62.96 111.421 63.344 111.693 63.84C111.965 64.328 112.101 64.892 112.101 65.532ZM110.673 65.1C110.665 64.596 110.485 64.192 110.133 63.888C109.781 63.584 109.345 63.432 108.825 63.432C108.353 63.432 107.949 63.584 107.613 63.888C107.277 64.184 107.077 64.588 107.013 65.1H110.673ZM115.847 69.108C115.327 69.108 114.859 69.016 114.443 68.832C114.035 68.64 113.711 68.384 113.471 68.064C113.231 67.736 113.103 67.372 113.087 66.972H114.503C114.527 67.252 114.659 67.488 114.899 67.68C115.147 67.864 115.455 67.956 115.823 67.956C116.207 67.956 116.503 67.884 116.711 67.74C116.927 67.588 117.035 67.396 117.035 67.164C117.035 66.916 116.915 66.732 116.675 66.612C116.443 66.492 116.071 66.36 115.559 66.216C115.063 66.08 114.659 65.948 114.347 65.82C114.035 65.692 113.763 65.496 113.531 65.232C113.307 64.968 113.195 64.62 113.195 64.188C113.195 63.836 113.299 63.516 113.507 63.228C113.715 62.932 114.011 62.7 114.395 62.532C114.787 62.364 115.235 62.28 115.739 62.28C116.491 62.28 117.095 62.472 117.551 62.856C118.015 63.232 118.263 63.748 118.295 64.404H116.927C116.903 64.108 116.783 63.872 116.567 63.696C116.351 63.52 116.059 63.432 115.691 63.432C115.331 63.432 115.055 63.5 114.863 63.636C114.671 63.772 114.575 63.952 114.575 64.176C114.575 64.352 114.639 64.5 114.767 64.62C114.895 64.74 115.051 64.836 115.235 64.908C115.419 64.972 115.691 65.056 116.051 65.16C116.531 65.288 116.923 65.42 117.227 65.556C117.539 65.684 117.807 65.876 118.031 66.132C118.255 66.388 118.371 66.728 118.379 67.152C118.379 67.528 118.275 67.864 118.067 68.16C117.859 68.456 117.563 68.688 117.179 68.856C116.803 69.024 116.359 69.108 115.847 69.108Z" fill="black"/>
<rect x="10" y="60" width="4" height="4" rx="2" fill="black"/>
<rect x="16" y="60" width="4" height="4" rx="2" fill="black"/>
<rect x="16" y="66" width="4" height="4" rx="2" fill="black"/>
<rect x="10" y="66" width="4" height="4" rx="2" fill="black"/>
<path d="M39.684 90.66V99H38.316V93.288L35.772 99H34.824L32.268 93.288V99H30.9V90.66H32.376L35.304 97.2L38.22 90.66H39.684ZM47.47 92.388V99H46.102V98.22C45.886 98.492 45.602 98.708 45.25 98.868C44.906 99.02 44.538 99.096 44.146 99.096C43.626 99.096 43.158 98.988 42.742 98.772C42.334 98.556 42.01 98.236 41.77 97.812C41.538 97.388 41.422 96.876 41.422 96.276V92.388H42.778V96.072C42.778 96.664 42.926 97.12 43.222 97.44C43.518 97.752 43.922 97.908 44.434 97.908C44.946 97.908 45.35 97.752 45.646 97.44C45.95 97.12 46.102 96.664 46.102 96.072V92.388H47.47ZM51.675 99.108C51.155 99.108 50.687 99.016 50.271 98.832C49.863 98.64 49.539 98.384 49.299 98.064C49.059 97.736 48.931 97.372 48.915 96.972H50.331C50.355 97.252 50.487 97.488 50.727 97.68C50.975 97.864 51.283 97.956 51.651 97.956C52.035 97.956 52.331 97.884 52.539 97.74C52.755 97.588 52.863 97.396 52.863 97.164C52.863 96.916 52.743 96.732 52.503 96.612C52.271 96.492 51.899 96.36 51.387 96.216C50.891 96.08 50.487 95.948 50.175 95.82C49.863 95.692 49.591 95.496 49.359 95.232C49.135 94.968 49.023 94.62 49.023 94.188C49.023 93.836 49.127 93.516 49.335 93.228C49.543 92.932 49.839 92.7 50.223 92.532C50.615 92.364 51.063 92.28 51.567 92.28C52.319 92.28 52.923 92.472 53.379 92.856C53.843 93.232 54.091 93.748 54.123 94.404H52.755C52.731 94.108 52.611 93.872 52.395 93.696C52.179 93.52 51.887 93.432 51.519 93.432C51.159 93.432 50.883 93.5 50.691 93.636C50.499 93.772 50.403 93.952 50.403 94.176C50.403 94.352 50.467 94.5 50.595 94.62C50.723 94.74 50.879 94.836 51.063 94.908C51.247 94.972 51.519 95.056 51.879 95.16C52.359 95.288 52.751 95.42 53.055 95.556C53.367 95.684 53.635 95.876 53.859 96.132C54.083 96.388 54.199 96.728 54.207 97.152C54.207 97.528 54.103 97.864 53.895 98.16C53.687 98.456 53.391 98.688 53.007 98.856C52.631 99.024 52.187 99.108 51.675 99.108ZM56.3812 91.512C56.1332 91.512 55.9252 91.428 55.7572 91.26C55.5892 91.092 55.5052 90.884 55.5052 90.636C55.5052 90.388 55.5892 90.18 55.7572 90.012C55.9252 89.844 56.1332 89.76 56.3812 89.76C56.6212 89.76 56.8252 89.844 56.9932 90.012C57.1612 90.18 57.2452 90.388 57.2452 90.636C57.2452 90.884 57.1612 91.092 56.9932 91.26C56.8252 91.428 56.6212 91.512 56.3812 91.512ZM57.0532 92.388V99H55.6852V92.388H57.0532ZM58.3932 95.688C58.3932 95.008 58.5292 94.412 58.8012 93.9C59.0812 93.38 59.4652 92.98 59.9532 92.7C60.4412 92.42 61.0012 92.28 61.6332 92.28C62.4332 92.28 63.0932 92.472 63.6132 92.856C64.1412 93.232 64.4972 93.772 64.6812 94.476H63.2052C63.0852 94.148 62.8932 93.892 62.6292 93.708C62.3652 93.524 62.0332 93.432 61.6332 93.432C61.0732 93.432 60.6252 93.632 60.2892 94.032C59.9612 94.424 59.7972 94.976 59.7972 95.688C59.7972 96.4 59.9612 96.956 60.2892 97.356C60.6252 97.756 61.0732 97.956 61.6332 97.956C62.4252 97.956 62.9492 97.608 63.2052 96.912H64.6812C64.4892 97.584 64.1292 98.12 63.6012 98.52C63.0732 98.912 62.4172 99.108 61.6332 99.108C61.0012 99.108 60.4412 98.968 59.9532 98.688C59.4652 98.4 59.0812 98 58.8012 97.488C58.5292 96.968 58.3932 96.368 58.3932 95.688Z" fill="black"/>
<rect x="11" y="94" width="6" height="6" rx="3" stroke="black" stroke-width="2"/>
<path d="M20 91C20.5523 91 21 90.5523 21 90C21 89.4477 20.5523 89 20 89V91ZM19 91H20V89H19V91ZM18 97V92H16V97H18ZM19 89C17.3431 89 16 90.3431 16 92H18C18 91.4477 18.4477 91 19 91V89Z" fill="black"/>
<rect x="18" y="20" width="8" height="2" rx="1" fill="#E6E6E6"/>
<rect x="18" y="24" width="10" height="2" rx="1" fill="#E6E6E6"/>
<rect x="18" y="28" width="5" height="2" rx="1" fill="#E6E6E6"/>
<rect x="22" y="17" width="2" height="12" rx="1" fill="black"/>
<rect x="17.3433" y="24" width="2" height="8" rx="1" transform="rotate(-45 17.3433 24)" fill="black"/>
<rect x="27.2427" y="22.5859" width="2" height="8" rx="1" transform="rotate(45 27.2427 22.5859)" fill="black"/>
<path d="M29 29L29 30C29 31.1046 28.1046 32 27 32L19 32C17.8954 32 17 31.1046 17 30L17 29" stroke="black" stroke-width="2" stroke-linecap="round"/>
</g>
<defs>
<clipPath id="clip0_409_817">
<rect width="480" height="360" fill="white"/>
</clipPath>
</defs>
</svg>
