<svg width="480" height="360" viewBox="0 0 480 360" fill="none" xmlns="http://www.w3.org/2000/svg">
<path d="M182.912 19.88V31H181.088V23.384L177.696 31H176.432L173.024 23.384V31H171.2V19.88H173.168L177.072 28.6L180.96 19.88H182.912ZM193.293 22.184V31H191.469V29.96C191.181 30.3227 190.803 30.6107 190.333 30.824C189.875 31.0267 189.384 31.128 188.861 31.128C188.168 31.128 187.544 30.984 186.989 30.696C186.445 30.408 186.013 29.9813 185.693 29.416C185.384 28.8507 185.229 28.168 185.229 27.368V22.184H187.037V27.096C187.037 27.8853 187.235 28.4933 187.629 28.92C188.024 29.336 188.563 29.544 189.245 29.544C189.928 29.544 190.467 29.336 190.861 28.92C191.267 28.4933 191.469 27.8853 191.469 27.096V22.184H193.293ZM198.9 31.144C198.207 31.144 197.583 31.0213 197.028 30.776C196.484 30.52 196.052 30.1787 195.732 29.752C195.412 29.3147 195.241 28.8293 195.22 28.296H197.108C197.14 28.6693 197.316 28.984 197.636 29.24C197.967 29.4853 198.377 29.608 198.868 29.608C199.38 29.608 199.775 29.512 200.052 29.32C200.34 29.1173 200.484 28.8613 200.484 28.552C200.484 28.2213 200.324 27.976 200.004 27.816C199.695 27.656 199.199 27.48 198.516 27.288C197.855 27.1067 197.316 26.9307 196.9 26.76C196.484 26.5893 196.121 26.328 195.812 25.976C195.513 25.624 195.364 25.16 195.364 24.584C195.364 24.1147 195.503 23.688 195.78 23.304C196.057 22.9093 196.452 22.6 196.964 22.376C197.487 22.152 198.084 22.04 198.756 22.04C199.759 22.04 200.564 22.296 201.172 22.808C201.791 23.3093 202.121 23.9973 202.164 24.872H200.34C200.308 24.4773 200.148 24.1627 199.86 23.928C199.572 23.6933 199.183 23.576 198.692 23.576C198.212 23.576 197.844 23.6667 197.588 23.848C197.332 24.0293 197.204 24.2693 197.204 24.568C197.204 24.8027 197.289 25 197.46 25.16C197.631 25.32 197.839 25.448 198.084 25.544C198.329 25.6293 198.692 25.7413 199.172 25.88C199.812 26.0507 200.335 26.2267 200.74 26.408C201.156 26.5787 201.513 26.8347 201.812 27.176C202.111 27.5173 202.265 27.9707 202.276 28.536C202.276 29.0373 202.137 29.4853 201.86 29.88C201.583 30.2747 201.188 30.584 200.676 30.808C200.175 31.032 199.583 31.144 198.9 31.144ZM205.175 21.016C204.844 21.016 204.567 20.904 204.343 20.68C204.119 20.456 204.007 20.1787 204.007 19.848C204.007 19.5173 204.119 19.24 204.343 19.016C204.567 18.792 204.844 18.68 205.175 18.68C205.495 18.68 205.767 18.792 205.991 19.016C206.215 19.24 206.327 19.5173 206.327 19.848C206.327 20.1787 206.215 20.456 205.991 20.68C205.767 20.904 205.495 21.016 205.175 21.016ZM206.071 22.184V31H204.247V22.184H206.071ZM207.858 26.584C207.858 25.6773 208.039 24.8827 208.402 24.2C208.775 23.5067 209.287 22.9733 209.938 22.6C210.588 22.2267 211.335 22.04 212.178 22.04C213.244 22.04 214.124 22.296 214.818 22.808C215.522 23.3093 215.996 24.0293 216.242 24.968H214.274C214.114 24.5307 213.858 24.1893 213.506 23.944C213.154 23.6987 212.711 23.576 212.178 23.576C211.431 23.576 210.834 23.8427 210.386 24.376C209.948 24.8987 209.73 25.6347 209.73 26.584C209.73 27.5333 209.948 28.2747 210.386 28.808C210.834 29.3413 211.431 29.608 212.178 29.608C213.234 29.608 213.932 29.144 214.274 28.216H216.242C215.986 29.112 215.506 29.8267 214.802 30.36C214.098 30.8827 213.223 31.144 212.178 31.144C211.335 31.144 210.588 30.9573 209.938 30.584C209.287 30.2 208.775 29.6667 208.402 28.984C208.039 28.2907 207.858 27.4907 207.858 26.584Z" fill="white"/>
</svg>
