<svg width="480" height="360" viewBox="0 0 480 360" fill="none" xmlns="http://www.w3.org/2000/svg">
<rect x="290" y="150" width="180" height="120" rx="15" fill="white" fill-opacity="0.5"/>
<g opacity="0.5">
<path d="M377.53 200.26L383.756 204.152C384.383 204.544 384.383 205.456 383.756 205.848L377.53 209.74C376.864 210.156 376 209.677 376 208.892V201.108C376 200.323 376.864 199.844 377.53 200.26Z" stroke="black" stroke-width="2"/>
</g>
<g opacity="0.5">
<path d="M416.53 200.26L422.756 204.152C423.383 204.544 423.383 205.456 422.756 205.848L416.53 209.74C415.864 210.156 415 209.677 415 208.892V201.108C415 200.323 415.864 199.844 416.53 200.26Z" stroke="black" stroke-width="2"/>
<rect x="424" y="199" width="2" height="12" rx="1" fill="black"/>
</g>
<g opacity="0.5">
<path d="M343.47 209.74L337.244 205.848C336.617 205.456 336.617 204.544 337.244 204.152L343.47 200.26C344.136 199.844 345 200.323 345 201.108L345 208.892C345 209.677 344.136 210.156 343.47 209.74Z" stroke="black" stroke-width="2"/>
<rect x="336" y="211" width="2" height="12" rx="1" transform="rotate(180 336 211)" fill="black"/>
</g>
<path d="M318.754 169.05V176H317.614V171.24L315.494 176H314.704L312.574 171.24V176H311.434V169.05H312.664L315.104 174.5L317.534 169.05H318.754ZM325.242 170.49V176H324.102V175.35C323.922 175.577 323.685 175.757 323.392 175.89C323.105 176.017 322.799 176.08 322.472 176.08C322.039 176.08 321.649 175.99 321.302 175.81C320.962 175.63 320.692 175.363 320.492 175.01C320.299 174.657 320.202 174.23 320.202 173.73V170.49H321.332V173.56C321.332 174.053 321.455 174.433 321.702 174.7C321.949 174.96 322.285 175.09 322.712 175.09C323.139 175.09 323.475 174.96 323.722 174.7C323.975 174.433 324.102 174.053 324.102 173.56V170.49H325.242ZM328.746 176.09C328.313 176.09 327.923 176.013 327.576 175.86C327.236 175.7 326.966 175.487 326.766 175.22C326.566 174.947 326.459 174.643 326.446 174.31H327.626C327.646 174.543 327.756 174.74 327.956 174.9C328.163 175.053 328.419 175.13 328.726 175.13C329.046 175.13 329.293 175.07 329.466 174.95C329.646 174.823 329.736 174.663 329.736 174.47C329.736 174.263 329.636 174.11 329.436 174.01C329.243 173.91 328.933 173.8 328.506 173.68C328.093 173.567 327.756 173.457 327.496 173.35C327.236 173.243 327.009 173.08 326.816 172.86C326.629 172.64 326.536 172.35 326.536 171.99C326.536 171.697 326.623 171.43 326.796 171.19C326.969 170.943 327.216 170.75 327.536 170.61C327.863 170.47 328.236 170.4 328.656 170.4C329.283 170.4 329.786 170.56 330.166 170.88C330.553 171.193 330.759 171.623 330.786 172.17H329.646C329.626 171.923 329.526 171.727 329.346 171.58C329.166 171.433 328.923 171.36 328.616 171.36C328.316 171.36 328.086 171.417 327.926 171.53C327.766 171.643 327.686 171.793 327.686 171.98C327.686 172.127 327.739 172.25 327.846 172.35C327.953 172.45 328.083 172.53 328.236 172.59C328.389 172.643 328.616 172.713 328.916 172.8C329.316 172.907 329.643 173.017 329.896 173.13C330.156 173.237 330.379 173.397 330.566 173.61C330.753 173.823 330.849 174.107 330.856 174.46C330.856 174.773 330.769 175.053 330.596 175.3C330.423 175.547 330.176 175.74 329.856 175.88C329.543 176.02 329.173 176.09 328.746 176.09ZM332.668 169.76C332.461 169.76 332.288 169.69 332.148 169.55C332.008 169.41 331.938 169.237 331.938 169.03C331.938 168.823 332.008 168.65 332.148 168.51C332.288 168.37 332.461 168.3 332.668 168.3C332.868 168.3 333.038 168.37 333.178 168.51C333.318 168.65 333.388 168.823 333.388 169.03C333.388 169.237 333.318 169.41 333.178 169.55C333.038 169.69 332.868 169.76 332.668 169.76ZM333.228 170.49V176H332.088V170.49H333.228ZM334.345 173.24C334.345 172.673 334.458 172.177 334.685 171.75C334.918 171.317 335.238 170.983 335.645 170.75C336.051 170.517 336.518 170.4 337.045 170.4C337.711 170.4 338.261 170.56 338.695 170.88C339.135 171.193 339.431 171.643 339.585 172.23H338.355C338.255 171.957 338.095 171.743 337.875 171.59C337.655 171.437 337.378 171.36 337.045 171.36C336.578 171.36 336.205 171.527 335.925 171.86C335.651 172.187 335.515 172.647 335.515 173.24C335.515 173.833 335.651 174.297 335.925 174.63C336.205 174.963 336.578 175.13 337.045 175.13C337.705 175.13 338.141 174.84 338.355 174.26H339.585C339.425 174.82 339.125 175.267 338.685 175.6C338.245 175.927 337.698 176.09 337.045 176.09C336.518 176.09 336.051 175.973 335.645 175.74C335.238 175.5 334.918 175.167 334.685 174.74C334.458 174.307 334.345 173.807 334.345 173.24ZM348.178 171.12C348.178 171.473 348.095 171.807 347.928 172.12C347.762 172.433 347.495 172.69 347.128 172.89C346.762 173.083 346.292 173.18 345.718 173.18H344.458V176H343.318V169.05H345.718C346.252 169.05 346.702 169.143 347.068 169.33C347.442 169.51 347.718 169.757 347.898 170.07C348.085 170.383 348.178 170.733 348.178 171.12ZM345.718 172.25C346.152 172.25 346.475 172.153 346.688 171.96C346.902 171.76 347.008 171.48 347.008 171.12C347.008 170.36 346.578 169.98 345.718 169.98H344.458V172.25H345.718ZM350.406 168.6V176H349.266V168.6H350.406ZM351.522 173.22C351.522 172.667 351.636 172.177 351.862 171.75C352.096 171.323 352.409 170.993 352.802 170.76C353.202 170.52 353.642 170.4 354.122 170.4C354.556 170.4 354.932 170.487 355.252 170.66C355.579 170.827 355.839 171.037 356.032 171.29V170.49H357.182V176H356.032V175.18C355.839 175.44 355.576 175.657 355.242 175.83C354.909 176.003 354.529 176.09 354.102 176.09C353.629 176.09 353.196 175.97 352.802 175.73C352.409 175.483 352.096 175.143 351.862 174.71C351.636 174.27 351.522 173.773 351.522 173.22ZM356.032 173.24C356.032 172.86 355.952 172.53 355.792 172.25C355.639 171.97 355.436 171.757 355.182 171.61C354.929 171.463 354.656 171.39 354.362 171.39C354.069 171.39 353.796 171.463 353.542 171.61C353.289 171.75 353.082 171.96 352.922 172.24C352.769 172.513 352.692 172.84 352.692 173.22C352.692 173.6 352.769 173.933 352.922 174.22C353.082 174.507 353.289 174.727 353.542 174.88C353.802 175.027 354.076 175.1 354.362 175.1C354.656 175.1 354.929 175.027 355.182 174.88C355.436 174.733 355.639 174.52 355.792 174.24C355.952 173.953 356.032 173.62 356.032 173.24ZM363.64 170.49L360.26 178.59H359.08L360.2 175.91L358.03 170.49H359.3L360.85 174.69L362.46 170.49H363.64ZM369.55 173.11C369.55 173.317 369.537 173.503 369.51 173.67H365.3C365.333 174.11 365.497 174.463 365.79 174.73C366.083 174.997 366.443 175.13 366.87 175.13C367.483 175.13 367.917 174.873 368.17 174.36H369.4C369.233 174.867 368.93 175.283 368.49 175.61C368.057 175.93 367.517 176.09 366.87 176.09C366.343 176.09 365.87 175.973 365.45 175.74C365.037 175.5 364.71 175.167 364.47 174.74C364.237 174.307 364.12 173.807 364.12 173.24C364.12 172.673 364.233 172.177 364.46 171.75C364.693 171.317 365.017 170.983 365.43 170.75C365.85 170.517 366.33 170.4 366.87 170.4C367.39 170.4 367.853 170.513 368.26 170.74C368.667 170.967 368.983 171.287 369.21 171.7C369.437 172.107 369.55 172.577 369.55 173.11ZM368.36 172.75C368.353 172.33 368.203 171.993 367.91 171.74C367.617 171.487 367.253 171.36 366.82 171.36C366.427 171.36 366.09 171.487 365.81 171.74C365.53 171.987 365.363 172.323 365.31 172.75H368.36ZM371.812 171.29C371.979 171.01 372.199 170.793 372.472 170.64C372.752 170.48 373.082 170.4 373.462 170.4V171.58H373.172C372.725 171.58 372.385 171.693 372.152 171.92C371.925 172.147 371.812 172.54 371.812 173.1V176H370.672V170.49H371.812V171.29ZM377.687 169.76C377.481 169.76 377.307 169.69 377.167 169.55C377.027 169.41 376.957 169.237 376.957 169.03C376.957 168.823 377.027 168.65 377.167 168.51C377.307 168.37 377.481 168.3 377.687 168.3C377.887 168.3 378.057 168.37 378.197 168.51C378.337 168.65 378.407 168.823 378.407 169.03C378.407 169.237 378.337 169.41 378.197 169.55C378.057 169.69 377.887 169.76 377.687 169.76ZM378.247 170.49V176H377.107V170.49H378.247ZM381.744 176.09C381.311 176.09 380.921 176.013 380.574 175.86C380.234 175.7 379.964 175.487 379.764 175.22C379.564 174.947 379.457 174.643 379.444 174.31H380.624C380.644 174.543 380.754 174.74 380.954 174.9C381.161 175.053 381.417 175.13 381.724 175.13C382.044 175.13 382.291 175.07 382.464 174.95C382.644 174.823 382.734 174.663 382.734 174.47C382.734 174.263 382.634 174.11 382.434 174.01C382.241 173.91 381.931 173.8 381.504 173.68C381.091 173.567 380.754 173.457 380.494 173.35C380.234 173.243 380.007 173.08 379.814 172.86C379.627 172.64 379.534 172.35 379.534 171.99C379.534 171.697 379.621 171.43 379.794 171.19C379.967 170.943 380.214 170.75 380.534 170.61C380.861 170.47 381.234 170.4 381.654 170.4C382.281 170.4 382.784 170.56 383.164 170.88C383.551 171.193 383.757 171.623 383.784 172.17H382.644C382.624 171.923 382.524 171.727 382.344 171.58C382.164 171.433 381.921 171.36 381.614 171.36C381.314 171.36 381.084 171.417 380.924 171.53C380.764 171.643 380.684 171.793 380.684 171.98C380.684 172.127 380.737 172.25 380.844 172.35C380.951 172.45 381.081 172.53 381.234 172.59C381.387 172.643 381.614 172.713 381.914 172.8C382.314 172.907 382.641 173.017 382.894 173.13C383.154 173.237 383.377 173.397 383.564 173.61C383.751 173.823 383.847 174.107 383.854 174.46C383.854 174.773 383.767 175.053 383.594 175.3C383.421 175.547 383.174 175.74 382.854 175.88C382.541 176.02 382.171 176.09 381.744 176.09ZM390.464 170.4C390.897 170.4 391.284 170.49 391.624 170.67C391.97 170.85 392.24 171.117 392.434 171.47C392.627 171.823 392.724 172.25 392.724 172.75V176H391.594V172.92C391.594 172.427 391.47 172.05 391.224 171.79C390.977 171.523 390.64 171.39 390.214 171.39C389.787 171.39 389.447 171.523 389.194 171.79C388.947 172.05 388.824 172.427 388.824 172.92V176H387.684V170.49H388.824V171.12C389.01 170.893 389.247 170.717 389.534 170.59C389.827 170.463 390.137 170.4 390.464 170.4ZM396.568 176.09C396.048 176.09 395.578 175.973 395.158 175.74C394.738 175.5 394.408 175.167 394.168 174.74C393.928 174.307 393.808 173.807 393.808 173.24C393.808 172.68 393.931 172.183 394.178 171.75C394.424 171.317 394.761 170.983 395.188 170.75C395.614 170.517 396.091 170.4 396.618 170.4C397.144 170.4 397.621 170.517 398.048 170.75C398.474 170.983 398.811 171.317 399.058 171.75C399.304 172.183 399.428 172.68 399.428 173.24C399.428 173.8 399.301 174.297 399.048 174.73C398.794 175.163 398.448 175.5 398.008 175.74C397.574 175.973 397.094 176.09 396.568 176.09ZM396.568 175.1C396.861 175.1 397.134 175.03 397.388 174.89C397.648 174.75 397.858 174.54 398.018 174.26C398.178 173.98 398.258 173.64 398.258 173.24C398.258 172.84 398.181 172.503 398.028 172.23C397.874 171.95 397.671 171.74 397.418 171.6C397.164 171.46 396.891 171.39 396.598 171.39C396.304 171.39 396.031 171.46 395.778 171.6C395.531 171.74 395.334 171.95 395.188 172.23C395.041 172.503 394.968 172.84 394.968 173.24C394.968 173.833 395.118 174.293 395.418 174.62C395.724 174.94 396.108 175.1 396.568 175.1ZM401.885 171.42V174.47C401.885 174.677 401.931 174.827 402.025 174.92C402.125 175.007 402.291 175.05 402.525 175.05H403.225V176H402.325C401.811 176 401.418 175.88 401.145 175.64C400.871 175.4 400.735 175.01 400.735 174.47V171.42H400.085V170.49H400.735V169.12H401.885V170.49H403.225V171.42H401.885ZM407.453 169.76C407.246 169.76 407.073 169.69 406.933 169.55C406.793 169.41 406.723 169.237 406.723 169.03C406.723 168.823 406.793 168.65 406.933 168.51C407.073 168.37 407.246 168.3 407.453 168.3C407.653 168.3 407.823 168.37 407.963 168.51C408.103 168.65 408.173 168.823 408.173 169.03C408.173 169.237 408.103 169.41 407.963 169.55C407.823 169.69 407.653 169.76 407.453 169.76ZM408.013 170.49V176H406.873V170.49H408.013ZM412.29 170.4C412.723 170.4 413.11 170.49 413.45 170.67C413.796 170.85 414.066 171.117 414.26 171.47C414.453 171.823 414.55 172.25 414.55 172.75V176H413.42V172.92C413.42 172.427 413.296 172.05 413.05 171.79C412.803 171.523 412.466 171.39 412.04 171.39C411.613 171.39 411.273 171.523 411.02 171.79C410.773 172.05 410.65 172.427 410.65 172.92V176H409.51V170.49H410.65V171.12C410.836 170.893 411.073 170.717 411.36 170.59C411.653 170.463 411.963 170.4 412.29 170.4ZM418.004 176.09C417.571 176.09 417.181 176.013 416.834 175.86C416.494 175.7 416.224 175.487 416.024 175.22C415.824 174.947 415.717 174.643 415.704 174.31H416.884C416.904 174.543 417.014 174.74 417.214 174.9C417.421 175.053 417.677 175.13 417.984 175.13C418.304 175.13 418.551 175.07 418.724 174.95C418.904 174.823 418.994 174.663 418.994 174.47C418.994 174.263 418.894 174.11 418.694 174.01C418.501 173.91 418.191 173.8 417.764 173.68C417.351 173.567 417.014 173.457 416.754 173.35C416.494 173.243 416.267 173.08 416.074 172.86C415.887 172.64 415.794 172.35 415.794 171.99C415.794 171.697 415.881 171.43 416.054 171.19C416.227 170.943 416.474 170.75 416.794 170.61C417.121 170.47 417.494 170.4 417.914 170.4C418.541 170.4 419.044 170.56 419.424 170.88C419.811 171.193 420.017 171.623 420.044 172.17H418.904C418.884 171.923 418.784 171.727 418.604 171.58C418.424 171.433 418.181 171.36 417.874 171.36C417.574 171.36 417.344 171.417 417.184 171.53C417.024 171.643 416.944 171.793 416.944 171.98C416.944 172.127 416.997 172.25 417.104 172.35C417.211 172.45 417.341 172.53 417.494 172.59C417.647 172.643 417.874 172.713 418.174 172.8C418.574 172.907 418.901 173.017 419.154 173.13C419.414 173.237 419.637 173.397 419.824 173.61C420.011 173.823 420.107 174.107 420.114 174.46C420.114 174.773 420.027 175.053 419.854 175.3C419.681 175.547 419.434 175.74 419.114 175.88C418.801 176.02 418.431 176.09 418.004 176.09ZM422.676 171.42V174.47C422.676 174.677 422.722 174.827 422.816 174.92C422.916 175.007 423.082 175.05 423.316 175.05H424.016V176H423.116C422.602 176 422.209 175.88 421.936 175.64C421.662 175.4 421.526 175.01 421.526 174.47V171.42H420.876V170.49H421.526V169.12H422.676V170.49H424.016V171.42H422.676ZM424.686 173.22C424.686 172.667 424.8 172.177 425.026 171.75C425.26 171.323 425.573 170.993 425.966 170.76C426.366 170.52 426.806 170.4 427.286 170.4C427.72 170.4 428.096 170.487 428.416 170.66C428.743 170.827 429.003 171.037 429.196 171.29V170.49H430.346V176H429.196V175.18C429.003 175.44 428.74 175.657 428.406 175.83C428.073 176.003 427.693 176.09 427.266 176.09C426.793 176.09 426.36 175.97 425.966 175.73C425.573 175.483 425.26 175.143 425.026 174.71C424.8 174.27 424.686 173.773 424.686 173.22ZM429.196 173.24C429.196 172.86 429.116 172.53 428.956 172.25C428.803 171.97 428.6 171.757 428.346 171.61C428.093 171.463 427.82 171.39 427.526 171.39C427.233 171.39 426.96 171.463 426.706 171.61C426.453 171.75 426.246 171.96 426.086 172.24C425.933 172.513 425.856 172.84 425.856 173.22C425.856 173.6 425.933 173.933 426.086 174.22C426.246 174.507 426.453 174.727 426.706 174.88C426.966 175.027 427.24 175.1 427.526 175.1C427.82 175.1 428.093 175.027 428.346 174.88C428.6 174.733 428.803 174.52 428.956 174.24C429.116 173.953 429.196 173.62 429.196 173.24ZM432.984 168.6V176H431.844V168.6H432.984ZM435.62 168.6V176H434.48V168.6H435.62ZM442.167 173.11C442.167 173.317 442.154 173.503 442.127 173.67H437.917C437.951 174.11 438.114 174.463 438.407 174.73C438.701 174.997 439.061 175.13 439.487 175.13C440.101 175.13 440.534 174.873 440.787 174.36H442.017C441.851 174.867 441.547 175.283 441.107 175.61C440.674 175.93 440.134 176.09 439.487 176.09C438.961 176.09 438.487 175.973 438.067 175.74C437.654 175.5 437.327 175.167 437.087 174.74C436.854 174.307 436.737 173.807 436.737 173.24C436.737 172.673 436.851 172.177 437.077 171.75C437.311 171.317 437.634 170.983 438.047 170.75C438.467 170.517 438.947 170.4 439.487 170.4C440.007 170.4 440.471 170.513 440.877 170.74C441.284 170.967 441.601 171.287 441.827 171.7C442.054 172.107 442.167 172.577 442.167 173.11ZM440.977 172.75C440.971 172.33 440.821 171.993 440.527 171.74C440.234 171.487 439.871 171.36 439.437 171.36C439.044 171.36 438.707 171.487 438.427 171.74C438.147 171.987 437.981 172.323 437.927 172.75H440.977ZM442.909 173.22C442.909 172.667 443.022 172.177 443.249 171.75C443.482 171.323 443.796 170.993 444.189 170.76C444.589 170.52 445.032 170.4 445.519 170.4C445.879 170.4 446.232 170.48 446.579 170.64C446.932 170.793 447.212 171 447.419 171.26V168.6H448.569V176H447.419V175.17C447.232 175.437 446.972 175.657 446.639 175.83C446.312 176.003 445.936 176.09 445.509 176.09C445.029 176.09 444.589 175.97 444.189 175.73C443.796 175.483 443.482 175.143 443.249 174.71C443.022 174.27 442.909 173.773 442.909 173.22ZM447.419 173.24C447.419 172.86 447.339 172.53 447.179 172.25C447.026 171.97 446.822 171.757 446.569 171.61C446.316 171.463 446.042 171.39 445.749 171.39C445.456 171.39 445.182 171.463 444.929 171.61C444.676 171.75 444.469 171.96 444.309 172.24C444.156 172.513 444.079 172.84 444.079 173.22C444.079 173.6 444.156 173.933 444.309 174.22C444.469 174.507 444.676 174.727 444.929 174.88C445.189 175.027 445.462 175.1 445.749 175.1C446.042 175.1 446.316 175.027 446.569 174.88C446.822 174.733 447.026 174.52 447.179 174.24C447.339 173.953 447.419 173.62 447.419 173.24Z" fill="black"/>
<rect x="305" y="235" width="150" height="20" rx="10" fill="black" fill-opacity="0.1"/>
</svg>
