<svg width="300" height="40" viewBox="0 0 300 40" fill="none" xmlns="http://www.w3.org/2000/svg">
<rect width="300" height="40" rx="15" fill="black" fill-opacity="0.1"/>
<rect x="13" y="12" width="14" height="16" rx="3" fill="black"/>
<rect x="15" y="15" width="8" height="2" rx="1" fill="#E6E6E6"/>
<rect x="15" y="19" width="10" height="2" rx="1" fill="#E6E6E6"/>
<rect x="15" y="23" width="5" height="2" rx="1" fill="#E6E6E6"/>
<path d="M47.752 24H46.384L42.268 17.772V24H40.9V15.648H42.268L46.384 21.864V15.648H47.752V24ZM52.4164 24.108C51.7924 24.108 51.2284 23.968 50.7244 23.688C50.2204 23.4 49.8244 23 49.5364 22.488C49.2484 21.968 49.1044 21.368 49.1044 20.688C49.1044 20.016 49.2524 19.42 49.5484 18.9C49.8444 18.38 50.2484 17.98 50.7604 17.7C51.2724 17.42 51.8444 17.28 52.4764 17.28C53.1084 17.28 53.6804 17.42 54.1924 17.7C54.7044 17.98 55.1084 18.38 55.4044 18.9C55.7004 19.42 55.8484 20.016 55.8484 20.688C55.8484 21.36 55.6964 21.956 55.3924 22.476C55.0884 22.996 54.6724 23.4 54.1444 23.688C53.6244 23.968 53.0484 24.108 52.4164 24.108ZM52.4164 22.92C52.7684 22.92 53.0964 22.836 53.4004 22.668C53.7124 22.5 53.9644 22.248 54.1564 21.912C54.3484 21.576 54.4444 21.168 54.4444 20.688C54.4444 20.208 54.3524 19.804 54.1684 19.476C53.9844 19.14 53.7404 18.888 53.4364 18.72C53.1324 18.552 52.8044 18.468 52.4524 18.468C52.1004 18.468 51.7724 18.552 51.4684 18.72C51.1724 18.888 50.9364 19.14 50.7604 19.476C50.5844 19.804 50.4964 20.208 50.4964 20.688C50.4964 21.4 50.6764 21.952 51.0364 22.344C51.4044 22.728 51.8644 22.92 52.4164 22.92ZM58.7968 18.504V22.164C58.7968 22.412 58.8528 22.592 58.9648 22.704C59.0848 22.808 59.2848 22.86 59.5648 22.86H60.4048V24H59.3248C58.7088 24 58.2368 23.856 57.9088 23.568C57.5808 23.28 57.4168 22.812 57.4168 22.164V18.504H56.6368V17.388H57.4168V15.744H58.7968V17.388H60.4048V18.504H58.7968ZM67.7256 20.532C67.7256 20.78 67.7096 21.004 67.6776 21.204H62.6256C62.6656 21.732 62.8616 22.156 63.2136 22.476C63.5656 22.796 63.9976 22.956 64.5096 22.956C65.2456 22.956 65.7656 22.648 66.0696 22.032H67.5456C67.3456 22.64 66.9816 23.14 66.4536 23.532C65.9336 23.916 65.2856 24.108 64.5096 24.108C63.8776 24.108 63.3096 23.968 62.8056 23.688C62.3096 23.4 61.9176 23 61.6296 22.488C61.3496 21.968 61.2096 21.368 61.2096 20.688C61.2096 20.008 61.3456 19.412 61.6176 18.9C61.8976 18.38 62.2856 17.98 62.7816 17.7C63.2856 17.42 63.8616 17.28 64.5096 17.28C65.1336 17.28 65.6896 17.416 66.1776 17.688C66.6656 17.96 67.0456 18.344 67.3176 18.84C67.5896 19.328 67.7256 19.892 67.7256 20.532ZM66.2976 20.1C66.2896 19.596 66.1096 19.192 65.7576 18.888C65.4056 18.584 64.9696 18.432 64.4496 18.432C63.9776 18.432 63.5736 18.584 63.2376 18.888C62.9016 19.184 62.7016 19.588 62.6376 20.1H66.2976ZM70.4399 18.36C70.6719 18.056 70.9879 17.8 71.3879 17.592C71.7879 17.384 72.2399 17.28 72.7439 17.28C73.3199 17.28 73.8439 17.424 74.3159 17.712C74.7959 17.992 75.1719 18.388 75.4439 18.9C75.7159 19.412 75.8519 20 75.8519 20.664C75.8519 21.328 75.7159 21.924 75.4439 22.452C75.1719 22.972 74.7959 23.38 74.3159 23.676C73.8439 23.964 73.3199 24.108 72.7439 24.108C72.2399 24.108 71.7919 24.008 71.3999 23.808C71.0079 23.6 70.6879 23.344 70.4399 23.04V27.144H69.0719V17.388H70.4399V18.36ZM74.4599 20.664C74.4599 20.208 74.3639 19.816 74.1719 19.488C73.9879 19.152 73.7399 18.9 73.4279 18.732C73.1239 18.556 72.7959 18.468 72.4439 18.468C72.0999 18.468 71.7719 18.556 71.4599 18.732C71.1559 18.908 70.9079 19.164 70.7159 19.5C70.5319 19.836 70.4399 20.232 70.4399 20.688C70.4399 21.144 70.5319 21.544 70.7159 21.888C70.9079 22.224 71.1559 22.48 71.4599 22.656C71.7719 22.832 72.0999 22.92 72.4439 22.92C72.7959 22.92 73.1239 22.832 73.4279 22.656C73.7399 22.472 73.9879 22.208 74.1719 21.864C74.3639 21.52 74.4599 21.12 74.4599 20.664ZM76.7487 20.664C76.7487 20 76.8847 19.412 77.1567 18.9C77.4367 18.388 77.8127 17.992 78.2847 17.712C78.7647 17.424 79.2927 17.28 79.8687 17.28C80.3887 17.28 80.8407 17.384 81.2247 17.592C81.6167 17.792 81.9287 18.044 82.1607 18.348V17.388H83.5407V24H82.1607V23.016C81.9287 23.328 81.6127 23.588 81.2127 23.796C80.8127 24.004 80.3567 24.108 79.8447 24.108C79.2767 24.108 78.7567 23.964 78.2847 23.676C77.8127 23.38 77.4367 22.972 77.1567 22.452C76.8847 21.924 76.7487 21.328 76.7487 20.664ZM82.1607 20.688C82.1607 20.232 82.0647 19.836 81.8727 19.5C81.6887 19.164 81.4447 18.908 81.1407 18.732C80.8367 18.556 80.5087 18.468 80.1567 18.468C79.8047 18.468 79.4767 18.556 79.1727 18.732C78.8687 18.9 78.6207 19.152 78.4287 19.488C78.2447 19.816 78.1527 20.208 78.1527 20.664C78.1527 21.12 78.2447 21.52 78.4287 21.864C78.6207 22.208 78.8687 22.472 79.1727 22.656C79.4847 22.832 79.8127 22.92 80.1567 22.92C80.5087 22.92 80.8367 22.832 81.1407 22.656C81.4447 22.48 81.6887 22.224 81.8727 21.888C82.0647 21.544 82.1607 21.144 82.1607 20.688ZM84.8815 20.664C84.8815 20 85.0175 19.412 85.2895 18.9C85.5695 18.388 85.9455 17.992 86.4175 17.712C86.8975 17.424 87.4295 17.28 88.0135 17.28C88.4455 17.28 88.8695 17.376 89.2855 17.568C89.7095 17.752 90.0455 18 90.2935 18.312V15.12H91.6735V24H90.2935V23.004C90.0695 23.324 89.7575 23.588 89.3575 23.796C88.9655 24.004 88.5135 24.108 88.0015 24.108C87.4255 24.108 86.8975 23.964 86.4175 23.676C85.9455 23.38 85.5695 22.972 85.2895 22.452C85.0175 21.924 84.8815 21.328 84.8815 20.664ZM90.2935 20.688C90.2935 20.232 90.1975 19.836 90.0055 19.5C89.8215 19.164 89.5775 18.908 89.2735 18.732C88.9695 18.556 88.6415 18.468 88.2895 18.468C87.9375 18.468 87.6095 18.556 87.3055 18.732C87.0015 18.9 86.7535 19.152 86.5615 19.488C86.3775 19.816 86.2855 20.208 86.2855 20.664C86.2855 21.12 86.3775 21.52 86.5615 21.864C86.7535 22.208 87.0015 22.472 87.3055 22.656C87.6175 22.832 87.9455 22.92 88.2895 22.92C88.6415 22.92 88.9695 22.832 89.2735 22.656C89.5775 22.48 89.8215 22.224 90.0055 21.888C90.1975 21.544 90.2935 21.144 90.2935 20.688ZM98.4475 21.564C98.1595 21.564 97.8955 21.496 97.6555 21.36C97.4235 21.216 97.2355 21.028 97.0915 20.796C96.9555 20.556 96.8875 20.292 96.8875 20.004C96.8875 19.564 97.0395 19.192 97.3435 18.888C97.6475 18.584 98.0155 18.432 98.4475 18.432C98.8955 18.432 99.2715 18.584 99.5755 18.888C99.8795 19.192 100.032 19.564 100.032 20.004C100.032 20.444 99.8795 20.816 99.5755 21.12C99.2715 21.416 98.8955 21.564 98.4475 21.564ZM110.276 22.296H106.784L106.184 24H104.756L107.744 15.648H109.328L112.316 24H110.876L110.276 22.296ZM109.892 21.18L108.536 17.304L107.168 21.18H109.892ZM114.983 18.36C115.215 18.056 115.531 17.8 115.931 17.592C116.331 17.384 116.783 17.28 117.287 17.28C117.863 17.28 118.387 17.424 118.859 17.712C119.339 17.992 119.715 18.388 119.987 18.9C120.259 19.412 120.395 20 120.395 20.664C120.395 21.328 120.259 21.924 119.987 22.452C119.715 22.972 119.339 23.38 118.859 23.676C118.387 23.964 117.863 24.108 117.287 24.108C116.783 24.108 116.335 24.008 115.943 23.808C115.551 23.6 115.231 23.344 114.983 23.04V27.144H113.615V17.388H114.983V18.36ZM119.003 20.664C119.003 20.208 118.907 19.816 118.715 19.488C118.531 19.152 118.283 18.9 117.971 18.732C117.667 18.556 117.339 18.468 116.987 18.468C116.643 18.468 116.315 18.556 116.003 18.732C115.699 18.908 115.451 19.164 115.259 19.5C115.075 19.836 114.983 20.232 114.983 20.688C114.983 21.144 115.075 21.544 115.259 21.888C115.451 22.224 115.699 22.48 116.003 22.656C116.315 22.832 116.643 22.92 116.987 22.92C117.339 22.92 117.667 22.832 117.971 22.656C118.283 22.472 118.531 22.208 118.715 21.864C118.907 21.52 119.003 21.12 119.003 20.664ZM123.116 18.36C123.348 18.056 123.664 17.8 124.064 17.592C124.464 17.384 124.916 17.28 125.42 17.28C125.996 17.28 126.52 17.424 126.992 17.712C127.472 17.992 127.848 18.388 128.12 18.9C128.392 19.412 128.528 20 128.528 20.664C128.528 21.328 128.392 21.924 128.12 22.452C127.848 22.972 127.472 23.38 126.992 23.676C126.52 23.964 125.996 24.108 125.42 24.108C124.916 24.108 124.468 24.008 124.076 23.808C123.684 23.6 123.364 23.344 123.116 23.04V27.144H121.748V17.388H123.116V18.36ZM127.136 20.664C127.136 20.208 127.04 19.816 126.848 19.488C126.664 19.152 126.416 18.9 126.104 18.732C125.8 18.556 125.472 18.468 125.12 18.468C124.776 18.468 124.448 18.556 124.136 18.732C123.832 18.908 123.584 19.164 123.392 19.5C123.208 19.836 123.116 20.232 123.116 20.688C123.116 21.144 123.208 21.544 123.392 21.888C123.584 22.224 123.832 22.48 124.136 22.656C124.448 22.832 124.776 22.92 125.12 22.92C125.472 22.92 125.8 22.832 126.104 22.656C126.416 22.472 126.664 22.208 126.848 21.864C127.04 21.52 127.136 21.12 127.136 20.664Z" fill="black"/>
</svg>
