<svg width="480" height="360" viewBox="0 0 480 360" fill="none" xmlns="http://www.w3.org/2000/svg">
<rect x="290" y="150" width="180" height="120" rx="15" fill="white" fill-opacity="0.5"/>
<path d="M377 200H383C384.105 200 385 200.895 385 202V208C385 209.105 384.105 210 383 210H377C375.895 210 375 209.105 375 208V202C375 200.895 375.895 200 377 200Z" stroke="black" stroke-width="2"/>
<path d="M416.53 200.26L422.756 204.152C423.383 204.544 423.383 205.456 422.756 205.848L416.53 209.74C415.864 210.156 415 209.677 415 208.892V201.108C415 200.323 415.864 199.844 416.53 200.26Z" stroke="black" stroke-width="2"/>
<rect x="424" y="199" width="2" height="12" rx="1" fill="black"/>
<path d="M343.47 209.74L337.244 205.848C336.617 205.456 336.617 204.544 337.244 204.152L343.47 200.26C344.136 199.844 345 200.323 345 201.108L345 208.892C345 209.677 344.136 210.156 343.47 209.74Z" stroke="black" stroke-width="2"/>
<rect x="336" y="211" width="2" height="12" rx="1" transform="rotate(180 336 211)" fill="black"/>
<path d="M353.052 164.05V171H351.912V164.05H353.052ZM355.879 166.42V169.47C355.879 169.677 355.925 169.827 356.019 169.92C356.119 170.007 356.285 170.05 356.519 170.05H357.219V171H356.319C355.805 171 355.412 170.88 355.139 170.64C354.865 170.4 354.729 170.01 354.729 169.47V166.42H354.079V165.49H354.729V164.12H355.879V165.49H357.219V166.42H355.879ZM358.45 164.05H359.69L358.64 166.43H357.84L358.45 164.05ZM362.691 171.09C362.258 171.09 361.868 171.013 361.521 170.86C361.181 170.7 360.911 170.487 360.711 170.22C360.511 169.947 360.405 169.643 360.391 169.31H361.571C361.591 169.543 361.701 169.74 361.901 169.9C362.108 170.053 362.365 170.13 362.671 170.13C362.991 170.13 363.238 170.07 363.411 169.95C363.591 169.823 363.681 169.663 363.681 169.47C363.681 169.263 363.581 169.11 363.381 169.01C363.188 168.91 362.878 168.8 362.451 168.68C362.038 168.567 361.701 168.457 361.441 168.35C361.181 168.243 360.955 168.08 360.761 167.86C360.575 167.64 360.481 167.35 360.481 166.99C360.481 166.697 360.568 166.43 360.741 166.19C360.915 165.943 361.161 165.75 361.481 165.61C361.808 165.47 362.181 165.4 362.601 165.4C363.228 165.4 363.731 165.56 364.111 165.88C364.498 166.193 364.705 166.623 364.731 167.17H363.591C363.571 166.923 363.471 166.727 363.291 166.58C363.111 166.433 362.868 166.36 362.561 166.36C362.261 166.36 362.031 166.417 361.871 166.53C361.711 166.643 361.631 166.793 361.631 166.98C361.631 167.127 361.685 167.25 361.791 167.35C361.898 167.45 362.028 167.53 362.181 167.59C362.335 167.643 362.561 167.713 362.861 167.8C363.261 167.907 363.588 168.017 363.841 168.13C364.101 168.237 364.325 168.397 364.511 168.61C364.698 168.823 364.795 169.107 364.801 169.46C364.801 169.773 364.715 170.053 364.541 170.3C364.368 170.547 364.121 170.74 363.801 170.88C363.488 171.02 363.118 171.09 362.691 171.09ZM368.251 168.22C368.251 167.667 368.364 167.177 368.591 166.75C368.824 166.323 369.138 165.993 369.531 165.76C369.931 165.52 370.371 165.4 370.851 165.4C371.284 165.4 371.661 165.487 371.981 165.66C372.308 165.827 372.568 166.037 372.761 166.29V165.49H373.911V171H372.761V170.18C372.568 170.44 372.304 170.657 371.971 170.83C371.638 171.003 371.258 171.09 370.831 171.09C370.358 171.09 369.924 170.97 369.531 170.73C369.138 170.483 368.824 170.143 368.591 169.71C368.364 169.27 368.251 168.773 368.251 168.22ZM372.761 168.24C372.761 167.86 372.681 167.53 372.521 167.25C372.368 166.97 372.164 166.757 371.911 166.61C371.658 166.463 371.384 166.39 371.091 166.39C370.798 166.39 370.524 166.463 370.271 166.61C370.018 166.75 369.811 166.96 369.651 167.24C369.498 167.513 369.421 167.84 369.421 168.22C369.421 168.6 369.498 168.933 369.651 169.22C369.811 169.507 370.018 169.727 370.271 169.88C370.531 170.027 370.804 170.1 371.091 170.1C371.384 170.1 371.658 170.027 371.911 169.88C372.164 169.733 372.368 169.52 372.521 169.24C372.681 168.953 372.761 168.62 372.761 168.24ZM376.548 163.6V171H375.408V163.6H376.548ZM379.185 163.6V171H378.045V163.6H379.185ZM385.499 165.4C385.926 165.4 386.303 165.487 386.629 165.66C386.963 165.827 387.223 166.037 387.409 166.29V165.49H388.559V171.09C388.559 171.597 388.453 172.047 388.239 172.44C388.026 172.84 387.716 173.153 387.309 173.38C386.909 173.607 386.429 173.72 385.869 173.72C385.123 173.72 384.503 173.543 384.009 173.19C383.516 172.843 383.236 172.37 383.169 171.77H384.299C384.386 172.057 384.569 172.287 384.849 172.46C385.136 172.64 385.476 172.73 385.869 172.73C386.329 172.73 386.699 172.59 386.979 172.31C387.266 172.03 387.409 171.623 387.409 171.09V170.17C387.216 170.43 386.953 170.65 386.619 170.83C386.293 171.003 385.919 171.09 385.499 171.09C385.019 171.09 384.579 170.97 384.179 170.73C383.786 170.483 383.473 170.143 383.239 169.71C383.013 169.27 382.899 168.773 382.899 168.22C382.899 167.667 383.013 167.177 383.239 166.75C383.473 166.323 383.786 165.993 384.179 165.76C384.579 165.52 385.019 165.4 385.499 165.4ZM387.409 168.24C387.409 167.86 387.329 167.53 387.169 167.25C387.016 166.97 386.813 166.757 386.559 166.61C386.306 166.463 386.033 166.39 385.739 166.39C385.446 166.39 385.173 166.463 384.919 166.61C384.666 166.75 384.459 166.96 384.299 167.24C384.146 167.513 384.069 167.84 384.069 168.22C384.069 168.6 384.146 168.933 384.299 169.22C384.459 169.507 384.666 169.727 384.919 169.88C385.179 170.027 385.453 170.1 385.739 170.1C386.033 170.1 386.306 170.027 386.559 169.88C386.813 169.733 387.016 169.52 387.169 169.24C387.329 168.953 387.409 168.62 387.409 168.24ZM392.447 171.09C391.927 171.09 391.457 170.973 391.037 170.74C390.617 170.5 390.287 170.167 390.047 169.74C389.807 169.307 389.687 168.807 389.687 168.24C389.687 167.68 389.81 167.183 390.057 166.75C390.303 166.317 390.64 165.983 391.067 165.75C391.493 165.517 391.97 165.4 392.497 165.4C393.023 165.4 393.5 165.517 393.927 165.75C394.353 165.983 394.69 166.317 394.937 166.75C395.183 167.183 395.307 167.68 395.307 168.24C395.307 168.8 395.18 169.297 394.927 169.73C394.673 170.163 394.327 170.5 393.887 170.74C393.453 170.973 392.973 171.09 392.447 171.09ZM392.447 170.1C392.74 170.1 393.013 170.03 393.267 169.89C393.527 169.75 393.737 169.54 393.897 169.26C394.057 168.98 394.137 168.64 394.137 168.24C394.137 167.84 394.06 167.503 393.907 167.23C393.753 166.95 393.55 166.74 393.297 166.6C393.043 166.46 392.77 166.39 392.477 166.39C392.183 166.39 391.91 166.46 391.657 166.6C391.41 166.74 391.213 166.95 391.067 167.23C390.92 167.503 390.847 167.84 390.847 168.24C390.847 168.833 390.997 169.293 391.297 169.62C391.603 169.94 391.987 170.1 392.447 170.1ZM398.824 171.09C398.304 171.09 397.834 170.973 397.414 170.74C396.994 170.5 396.664 170.167 396.424 169.74C396.184 169.307 396.064 168.807 396.064 168.24C396.064 167.68 396.187 167.183 396.434 166.75C396.68 166.317 397.017 165.983 397.444 165.75C397.87 165.517 398.347 165.4 398.874 165.4C399.4 165.4 399.877 165.517 400.304 165.75C400.73 165.983 401.067 166.317 401.314 166.75C401.56 167.183 401.684 167.68 401.684 168.24C401.684 168.8 401.557 169.297 401.304 169.73C401.05 170.163 400.704 170.5 400.264 170.74C399.83 170.973 399.35 171.09 398.824 171.09ZM398.824 170.1C399.117 170.1 399.39 170.03 399.644 169.89C399.904 169.75 400.114 169.54 400.274 169.26C400.434 168.98 400.514 168.64 400.514 168.24C400.514 167.84 400.437 167.503 400.284 167.23C400.13 166.95 399.927 166.74 399.674 166.6C399.42 166.46 399.147 166.39 398.854 166.39C398.56 166.39 398.287 166.46 398.034 166.6C397.787 166.74 397.59 166.95 397.444 167.23C397.297 167.503 397.224 167.84 397.224 168.24C397.224 168.833 397.374 169.293 397.674 169.62C397.98 169.94 398.364 170.1 398.824 170.1ZM402.431 168.22C402.431 167.667 402.544 167.177 402.771 166.75C403.004 166.323 403.317 165.993 403.711 165.76C404.111 165.52 404.554 165.4 405.041 165.4C405.401 165.4 405.754 165.48 406.101 165.64C406.454 165.793 406.734 166 406.941 166.26V163.6H408.091V171H406.941V170.17C406.754 170.437 406.494 170.657 406.161 170.83C405.834 171.003 405.457 171.09 405.031 171.09C404.551 171.09 404.111 170.97 403.711 170.73C403.317 170.483 403.004 170.143 402.771 169.71C402.544 169.27 402.431 168.773 402.431 168.22ZM406.941 168.24C406.941 167.86 406.861 167.53 406.701 167.25C406.547 166.97 406.344 166.757 406.091 166.61C405.837 166.463 405.564 166.39 405.271 166.39C404.977 166.39 404.704 166.463 404.451 166.61C404.197 166.75 403.991 166.96 403.831 167.24C403.677 167.513 403.601 167.84 403.601 168.22C403.601 168.6 403.677 168.933 403.831 169.22C403.991 169.507 404.197 169.727 404.451 169.88C404.711 170.027 404.984 170.1 405.271 170.1C405.564 170.1 405.837 170.027 406.091 169.88C406.344 169.733 406.547 169.52 406.701 169.24C406.861 168.953 406.941 168.62 406.941 168.24Z" fill="black"/>
<path d="M373.132 178.44V182.448C373.132 182.944 372.98 183.336 372.676 183.624C372.377 183.912 371.983 184.056 371.492 184.056C371.001 184.056 370.604 183.912 370.3 183.624C370.001 183.336 369.852 182.944 369.852 182.448H370.772C370.777 182.693 370.839 182.888 370.956 183.032C371.079 183.176 371.257 183.248 371.492 183.248C371.727 183.248 371.905 183.176 372.028 183.032C372.151 182.883 372.212 182.688 372.212 182.448V178.44H373.132ZM376.528 184.072C376.112 184.072 375.736 183.979 375.4 183.792C375.064 183.6 374.8 183.333 374.608 182.992C374.416 182.645 374.32 182.245 374.32 181.792C374.32 181.344 374.418 180.947 374.616 180.6C374.813 180.253 375.082 179.987 375.424 179.8C375.765 179.613 376.146 179.52 376.568 179.52C376.989 179.52 377.37 179.613 377.712 179.8C378.053 179.987 378.322 180.253 378.52 180.6C378.717 180.947 378.816 181.344 378.816 181.792C378.816 182.24 378.714 182.637 378.512 182.984C378.309 183.331 378.032 183.6 377.68 183.792C377.333 183.979 376.949 184.072 376.528 184.072ZM376.528 183.28C376.762 183.28 376.981 183.224 377.184 183.112C377.392 183 377.56 182.832 377.688 182.608C377.816 182.384 377.88 182.112 377.88 181.792C377.88 181.472 377.818 181.203 377.696 180.984C377.573 180.76 377.41 180.592 377.208 180.48C377.005 180.368 376.786 180.312 376.552 180.312C376.317 180.312 376.098 180.368 375.896 180.48C375.698 180.592 375.541 180.76 375.424 180.984C375.306 181.203 375.248 181.472 375.248 181.792C375.248 182.267 375.368 182.635 375.608 182.896C375.853 183.152 376.16 183.28 376.528 183.28ZM380.629 180.232C380.763 180.008 380.939 179.835 381.157 179.712C381.381 179.584 381.645 179.52 381.949 179.52V180.464H381.717C381.36 180.464 381.088 180.555 380.901 180.736C380.72 180.917 380.629 181.232 380.629 181.68V184H379.717V179.592H380.629V180.232ZM388.124 179.52C388.47 179.52 388.78 179.592 389.052 179.736C389.329 179.88 389.545 180.093 389.7 180.376C389.86 180.659 389.94 181 389.94 181.4V184H389.036V181.536C389.036 181.141 388.937 180.84 388.74 180.632C388.542 180.419 388.273 180.312 387.932 180.312C387.59 180.312 387.318 180.419 387.116 180.632C386.918 180.84 386.82 181.141 386.82 181.536V184H385.916V181.536C385.916 181.141 385.817 180.84 385.62 180.632C385.422 180.419 385.153 180.312 384.812 180.312C384.47 180.312 384.198 180.419 383.996 180.632C383.798 180.84 383.7 181.141 383.7 181.536V184H382.788V179.592H383.7V180.096C383.849 179.915 384.038 179.773 384.268 179.672C384.497 179.571 384.742 179.52 385.004 179.52C385.356 179.52 385.67 179.595 385.948 179.744C386.225 179.893 386.438 180.109 386.588 180.392C386.721 180.125 386.929 179.915 387.212 179.76C387.494 179.6 387.798 179.52 388.124 179.52Z" fill="#808080"/>
<rect x="305" y="235" width="150" height="20" rx="10" fill="black" fill-opacity="0.1"/>
</svg>
