<svg xmlns="http://www.w3.org/2000/svg" fill="none" viewBox="0 0 140 42" height="42" width="140">
<path fill="white" d="M9.684 16.66V25H8.316V19.288L5.772 25H4.824L2.268 19.288V25H0.9V16.66H2.376L5.304 23.2L8.22 16.66H9.684ZM11.026 21.664C11.026 21 11.162 20.412 11.434 19.9C11.714 19.388 12.09 18.992 12.562 18.712C13.042 18.424 13.57 18.28 14.146 18.28C14.666 18.28 15.118 18.384 15.502 18.592C15.894 18.792 16.206 19.044 16.438 19.348V18.388H17.818V25H16.438V24.016C16.206 24.328 15.89 24.588 15.49 24.796C15.09 25.004 14.634 25.108 14.122 25.108C13.554 25.108 13.034 24.964 12.562 24.676C12.09 24.38 11.714 23.972 11.434 23.452C11.162 22.924 11.026 22.328 11.026 21.664ZM16.438 21.688C16.438 21.232 16.342 20.836 16.15 20.5C15.966 20.164 15.722 19.908 15.418 19.732C15.114 19.556 14.786 19.468 14.434 19.468C14.082 19.468 13.754 19.556 13.45 19.732C13.146 19.9 12.898 20.152 12.706 20.488C12.522 20.816 12.43 21.208 12.43 21.664C12.43 22.12 12.522 22.52 12.706 22.864C12.898 23.208 13.146 23.472 13.45 23.656C13.762 23.832 14.09 23.92 14.434 23.92C14.786 23.92 15.114 23.832 15.418 23.656C15.722 23.48 15.966 23.224 16.15 22.888C16.342 22.544 16.438 22.144 16.438 21.688ZM20.9828 19.348C21.1828 19.012 21.4468 18.752 21.7748 18.568C22.1108 18.376 22.5068 18.28 22.9628 18.28V19.696H22.6148C22.0788 19.696 21.6708 19.832 21.3908 20.104C21.1188 20.376 20.9828 20.848 20.9828 21.52V25H19.6148V18.388H20.9828V19.348ZM24.9163 17.512C24.6683 17.512 24.4603 17.428 24.2923 17.26C24.1243 17.092 24.0403 16.884 24.0403 16.636C24.0403 16.388 24.1243 16.18 24.2923 16.012C24.4603 15.844 24.6683 15.76 24.9163 15.76C25.1563 15.76 25.3603 15.844 25.5283 16.012C25.6963 16.18 25.7803 16.388 25.7803 16.636C25.7803 16.884 25.6963 17.092 25.5283 17.26C25.3603 17.428 25.1563 17.512 24.9163 17.512ZM25.5883 18.388V25H24.2203V18.388H25.5883ZM35.3884 18.28C35.9084 18.28 36.3724 18.388 36.7804 18.604C37.1964 18.82 37.5204 19.14 37.7524 19.564C37.9924 19.988 38.1124 20.5 38.1124 21.1V25H36.7564V21.304C36.7564 20.712 36.6084 20.26 36.3124 19.948C36.0164 19.628 35.6124 19.468 35.1004 19.468C34.5884 19.468 34.1804 19.628 33.8764 19.948C33.5804 20.26 33.4324 20.712 33.4324 21.304V25H32.0764V21.304C32.0764 20.712 31.9284 20.26 31.6324 19.948C31.3364 19.628 30.9324 19.468 30.4204 19.468C29.9084 19.468 29.5004 19.628 29.1964 19.948C28.9004 20.26 28.7524 20.712 28.7524 21.304V25H27.3844V18.388H28.7524V19.144C28.9764 18.872 29.2604 18.66 29.6044 18.508C29.9484 18.356 30.3164 18.28 30.7084 18.28C31.2364 18.28 31.7084 18.392 32.1244 18.616C32.5404 18.84 32.8604 19.164 33.0844 19.588C33.2844 19.188 33.5964 18.872 34.0204 18.64C34.4444 18.4 34.9004 18.28 35.3884 18.28ZM41.2211 19.372C41.4531 19.052 41.7691 18.792 42.1691 18.592C42.5771 18.384 43.0291 18.28 43.5251 18.28C44.1091 18.28 44.6371 18.42 45.1091 18.7C45.5811 18.98 45.9531 19.38 46.2251 19.9C46.4971 20.412 46.6331 21 46.6331 21.664C46.6331 22.328 46.4971 22.924 46.2251 23.452C45.9531 23.972 45.5771 24.38 45.0971 24.676C44.6251 24.964 44.1011 25.108 43.5251 25.108C43.0131 25.108 42.5571 25.008 42.1571 24.808C41.7651 24.608 41.4531 24.352 41.2211 24.04V25H39.8531V16.12H41.2211V19.372ZM45.2411 21.664C45.2411 21.208 45.1451 20.816 44.9531 20.488C44.7691 20.152 44.5211 19.9 44.2091 19.732C43.9051 19.556 43.5771 19.468 43.2251 19.468C42.8811 19.468 42.5531 19.556 42.2411 19.732C41.9371 19.908 41.6891 20.164 41.4971 20.5C41.3131 20.836 41.2211 21.232 41.2211 21.688C41.2211 22.144 41.3131 22.544 41.4971 22.888C41.6891 23.224 41.9371 23.48 42.2411 23.656C42.5531 23.832 42.8811 23.92 43.2251 23.92C43.5771 23.92 43.9051 23.832 44.2091 23.656C44.5211 23.472 44.7691 23.208 44.9531 22.864C45.1451 22.52 45.2411 22.12 45.2411 21.664ZM47.5299 21.664C47.5299 21 47.6659 20.412 47.9379 19.9C48.2179 19.388 48.5939 18.992 49.0659 18.712C49.5459 18.424 50.0739 18.28 50.6499 18.28C51.1699 18.28 51.6219 18.384 52.0059 18.592C52.3979 18.792 52.7099 19.044 52.9419 19.348V18.388H54.3219V25H52.9419V24.016C52.7099 24.328 52.3939 24.588 51.9939 24.796C51.5939 25.004 51.1379 25.108 50.6259 25.108C50.0579 25.108 49.5379 24.964 49.0659 24.676C48.5939 24.38 48.2179 23.972 47.9379 23.452C47.6659 22.924 47.5299 22.328 47.5299 21.664ZM52.9419 21.688C52.9419 21.232 52.8459 20.836 52.6539 20.5C52.4699 20.164 52.2259 19.908 51.9219 19.732C51.6179 19.556 51.2899 19.468 50.9379 19.468C50.5859 19.468 50.2579 19.556 49.9539 19.732C49.6499 19.9 49.4019 20.152 49.2099 20.488C49.0259 20.816 48.9339 21.208 48.9339 21.664C48.9339 22.12 49.0259 22.52 49.2099 22.864C49.4019 23.208 49.6499 23.472 49.9539 23.656C50.2659 23.832 50.5939 23.92 50.9379 23.92C51.2899 23.92 51.6179 23.832 51.9219 23.656C52.2259 23.48 52.4699 23.224 52.6539 22.888C52.8459 22.544 52.9419 22.144 52.9419 21.688Z"></path>
</svg>
