<svg width="480" height="360" viewBox="0 0 480 360" fill="none" xmlns="http://www.w3.org/2000/svg">
<path d="M104.581 0H450C466.569 0 480 13.4315 480 30V330C480 346.569 466.569 360 450 360H104.581H30C13.4315 360 0 346.569 0 330V30C0 13.4315 13.4315 0 30 0H104.581Z" fill="#E6E6E6"/>
<path d="M190.545 295.728H185.889L185.089 298H183.185L187.169 286.864H189.281L193.265 298H191.345L190.545 295.728ZM190.033 294.24L188.225 289.072L186.401 294.24H190.033ZM196.821 286.16V298H194.997V286.16H196.821ZM198.608 293.552C198.608 292.667 198.789 291.883 199.152 291.2C199.525 290.517 200.026 289.989 200.656 289.616C201.296 289.232 202 289.04 202.768 289.04C203.461 289.04 204.064 289.179 204.576 289.456C205.098 289.723 205.514 290.059 205.824 290.464V289.184H207.664V298H205.824V296.688C205.514 297.104 205.093 297.451 204.56 297.728C204.026 298.005 203.418 298.144 202.736 298.144C201.978 298.144 201.285 297.952 200.656 297.568C200.026 297.173 199.525 296.629 199.152 295.936C198.789 295.232 198.608 294.437 198.608 293.552ZM205.824 293.584C205.824 292.976 205.696 292.448 205.44 292C205.194 291.552 204.869 291.211 204.464 290.976C204.058 290.741 203.621 290.624 203.152 290.624C202.682 290.624 202.245 290.741 201.84 290.976C201.434 291.2 201.104 291.536 200.848 291.984C200.602 292.421 200.48 292.944 200.48 293.552C200.48 294.16 200.602 294.693 200.848 295.152C201.104 295.611 201.434 295.963 201.84 296.208C202.256 296.443 202.693 296.56 203.152 296.56C203.621 296.56 204.058 296.443 204.464 296.208C204.869 295.973 205.194 295.632 205.44 295.184C205.696 294.725 205.824 294.192 205.824 293.584ZM211.883 290.464C212.15 290.016 212.502 289.669 212.939 289.424C213.387 289.168 213.915 289.04 214.523 289.04V290.928H214.059C213.345 290.928 212.801 291.109 212.427 291.472C212.065 291.835 211.883 292.464 211.883 293.36V298H210.059V289.184H211.883V290.464ZM226.872 289.04C227.565 289.04 228.184 289.184 228.728 289.472C229.283 289.76 229.715 290.187 230.024 290.752C230.344 291.317 230.504 292 230.504 292.8V298H228.696V293.072C228.696 292.283 228.499 291.68 228.104 291.264C227.709 290.837 227.171 290.624 226.488 290.624C225.805 290.624 225.261 290.837 224.856 291.264C224.461 291.68 224.264 292.283 224.264 293.072V298H222.456V293.072C222.456 292.283 222.259 291.68 221.864 291.264C221.469 290.837 220.931 290.624 220.248 290.624C219.565 290.624 219.021 290.837 218.616 291.264C218.221 291.68 218.024 292.283 218.024 293.072V298H216.2V289.184H218.024V290.192C218.323 289.829 218.701 289.547 219.16 289.344C219.619 289.141 220.109 289.04 220.632 289.04C221.336 289.04 221.965 289.189 222.52 289.488C223.075 289.787 223.501 290.219 223.8 290.784C224.067 290.251 224.483 289.829 225.048 289.52C225.613 289.2 226.221 289.04 226.872 289.04ZM245.573 298L244.197 296.624C243.664 297.157 243.083 297.557 242.453 297.824C241.824 298.08 241.12 298.208 240.341 298.208C239.552 298.208 238.853 298.069 238.245 297.792C237.637 297.515 237.168 297.12 236.837 296.608C236.507 296.085 236.341 295.483 236.341 294.8C236.341 294.032 236.56 293.349 236.997 292.752C237.435 292.144 238.085 291.664 238.949 291.312C238.64 290.939 238.421 290.592 238.293 290.272C238.165 289.941 238.101 289.579 238.101 289.184C238.101 288.693 238.224 288.256 238.469 287.872C238.725 287.488 239.088 287.184 239.557 286.96C240.027 286.736 240.571 286.624 241.189 286.624C241.819 286.624 242.352 286.747 242.789 286.992C243.237 287.227 243.568 287.552 243.781 287.968C244.005 288.384 244.096 288.848 244.053 289.36H242.229C242.24 288.965 242.144 288.661 241.941 288.448C241.739 288.224 241.461 288.112 241.109 288.112C240.757 288.112 240.469 288.219 240.245 288.432C240.032 288.635 239.925 288.885 239.925 289.184C239.925 289.472 240.005 289.76 240.165 290.048C240.336 290.325 240.629 290.688 241.045 291.136L243.989 294.064L245.125 292.192H247.093L245.653 294.656L245.253 295.312L247.957 298H245.573ZM240.341 296.656C241.344 296.656 242.229 296.245 242.997 295.424L240.053 292.464C238.795 292.965 238.165 293.723 238.165 294.736C238.165 295.28 238.368 295.739 238.773 296.112C239.179 296.475 239.701 296.656 240.341 296.656ZM252.701 292.416C252.701 291.328 252.952 290.352 253.453 289.488C253.965 288.624 254.653 287.952 255.517 287.472C256.392 286.981 257.347 286.736 258.381 286.736C259.565 286.736 260.616 287.029 261.533 287.616C262.461 288.192 263.133 289.013 263.549 290.08H261.357C261.069 289.493 260.669 289.056 260.157 288.768C259.645 288.48 259.053 288.336 258.381 288.336C257.645 288.336 256.989 288.501 256.413 288.832C255.837 289.163 255.384 289.637 255.053 290.256C254.733 290.875 254.573 291.595 254.573 292.416C254.573 293.237 254.733 293.957 255.053 294.576C255.384 295.195 255.837 295.675 256.413 296.016C256.989 296.347 257.645 296.512 258.381 296.512C259.053 296.512 259.645 296.368 260.157 296.08C260.669 295.792 261.069 295.355 261.357 294.768H263.549C263.133 295.835 262.461 296.656 261.533 297.232C260.616 297.808 259.565 298.096 258.381 298.096C257.336 298.096 256.381 297.856 255.517 297.376C254.653 296.885 253.965 296.208 253.453 295.344C252.952 294.48 252.701 293.504 252.701 292.416ZM267.508 286.16V298H265.684V286.16H267.508ZM273.727 298.144C272.895 298.144 272.143 297.957 271.471 297.584C270.799 297.2 270.271 296.667 269.887 295.984C269.503 295.291 269.311 294.491 269.311 293.584C269.311 292.688 269.508 291.893 269.903 291.2C270.298 290.507 270.836 289.973 271.519 289.6C272.202 289.227 272.964 289.04 273.807 289.04C274.65 289.04 275.412 289.227 276.095 289.6C276.778 289.973 277.316 290.507 277.711 291.2C278.106 291.893 278.303 292.688 278.303 293.584C278.303 294.48 278.1 295.275 277.695 295.968C277.29 296.661 276.735 297.2 276.031 297.584C275.338 297.957 274.57 298.144 273.727 298.144ZM273.727 296.56C274.196 296.56 274.634 296.448 275.039 296.224C275.455 296 275.791 295.664 276.047 295.216C276.303 294.768 276.431 294.224 276.431 293.584C276.431 292.944 276.308 292.405 276.063 291.968C275.818 291.52 275.492 291.184 275.087 290.96C274.682 290.736 274.244 290.624 273.775 290.624C273.306 290.624 272.868 290.736 272.463 290.96C272.068 291.184 271.754 291.52 271.519 291.968C271.284 292.405 271.167 292.944 271.167 293.584C271.167 294.533 271.407 295.269 271.887 295.792C272.378 296.304 272.991 296.56 273.727 296.56ZM279.498 293.584C279.498 292.677 279.68 291.883 280.042 291.2C280.416 290.507 280.928 289.973 281.578 289.6C282.229 289.227 282.976 289.04 283.818 289.04C284.885 289.04 285.765 289.296 286.458 289.808C287.162 290.309 287.637 291.029 287.882 291.968H285.914C285.754 291.531 285.498 291.189 285.146 290.944C284.794 290.699 284.352 290.576 283.818 290.576C283.072 290.576 282.474 290.843 282.026 291.376C281.589 291.899 281.37 292.635 281.37 293.584C281.37 294.533 281.589 295.275 282.026 295.808C282.474 296.341 283.072 296.608 283.818 296.608C284.874 296.608 285.573 296.144 285.914 295.216H287.882C287.626 296.112 287.146 296.827 286.442 297.36C285.738 297.883 284.864 298.144 283.818 298.144C282.976 298.144 282.229 297.957 281.578 297.584C280.928 297.2 280.416 296.667 280.042 295.984C279.68 295.291 279.498 294.491 279.498 293.584ZM293.188 293.6L297.252 298H294.788L291.524 294.208V298H289.7V286.16H291.524V293.04L294.724 289.184H297.252L293.188 293.6Z" fill="black"/>
</svg>
