<svg xmlns="http://www.w3.org/2000/svg" fill="none" viewBox="0 0 30 30" height="30" width="30">
<rect fill="#191919" rx="15" height="30" width="30"></rect>
<path fill="white" d="M7.61309 12.75V11.71H9.69309V19H8.54309V12.75H7.61309ZM11.8892 17.45C12.5292 16.8967 13.0325 16.4433 13.3992 16.09C13.7725 15.73 14.0825 15.3567 14.3292 14.97C14.5758 14.5833 14.6992 14.1967 14.6992 13.81C14.6992 13.41 14.6025 13.0967 14.4092 12.87C14.2225 12.6433 13.9258 12.53 13.5192 12.53C13.1258 12.53 12.8192 12.6567 12.5992 12.91C12.3858 13.1567 12.2725 13.49 12.2592 13.91H11.1592C11.1792 13.15 11.4058 12.57 11.8392 12.17C12.2792 11.7633 12.8358 11.56 13.5092 11.56C14.2358 11.56 14.8025 11.76 15.2092 12.16C15.6225 12.56 15.8292 13.0933 15.8292 13.76C15.8292 14.24 15.7058 14.7033 15.4592 15.15C15.2192 15.59 14.9292 15.9867 14.5892 16.34C14.2558 16.6867 13.8292 17.09 13.3092 17.55L12.8592 17.95H16.0292V18.9H11.1692V18.07L11.8892 17.45ZM17.0307 15.26C17.0307 14.1067 17.224 13.2067 17.6107 12.56C18.004 11.9067 18.6773 11.58 19.6307 11.58C20.584 11.58 21.254 11.9067 21.6407 12.56C22.034 13.2067 22.2307 14.1067 22.2307 15.26C22.2307 16.4267 22.034 17.34 21.6407 18C21.254 18.6533 20.584 18.98 19.6307 18.98C18.6773 18.98 18.004 18.6533 17.6107 18C17.224 17.34 17.0307 16.4267 17.0307 15.26ZM21.1107 15.26C21.1107 14.72 21.074 14.2633 21.0007 13.89C20.934 13.5167 20.794 13.2133 20.5807 12.98C20.3673 12.74 20.0507 12.62 19.6307 12.62C19.2107 12.62 18.894 12.74 18.6807 12.98C18.4673 13.2133 18.324 13.5167 18.2507 13.89C18.184 14.2633 18.1507 14.72 18.1507 15.26C18.1507 15.82 18.184 16.29 18.2507 16.67C18.3173 17.05 18.4573 17.3567 18.6707 17.59C18.8907 17.8233 19.2107 17.94 19.6307 17.94C20.0507 17.94 20.3673 17.8233 20.5807 17.59C20.8007 17.3567 20.944 17.05 21.0107 16.67C21.0773 16.29 21.1107 15.82 21.1107 15.26Z"></path>
</svg>
