<svg width="240" height="50" viewBox="0 0 240 50" fill="none" xmlns="http://www.w3.org/2000/svg">
<path d="M5.364 17.716C5.812 17.796 6.192 18.032 6.504 18.424C6.816 18.816 6.972 19.26 6.972 19.756C6.972 20.18 6.86 20.564 6.636 20.908C6.42 21.244 6.104 21.512 5.688 21.712C5.272 21.904 4.788 22 4.236 22H0.9V13.66H4.08C4.648 13.66 5.136 13.756 5.544 13.948C5.952 14.14 6.26 14.4 6.468 14.728C6.676 15.048 6.78 15.408 6.78 15.808C6.78 16.288 6.652 16.688 6.396 17.008C6.14 17.328 5.796 17.564 5.364 17.716ZM2.268 17.164H3.96C4.408 17.164 4.756 17.064 5.004 16.864C5.26 16.656 5.388 16.36 5.388 15.976C5.388 15.6 5.26 15.308 5.004 15.1C4.756 14.884 4.408 14.776 3.96 14.776H2.268V17.164ZM4.116 20.884C4.58 20.884 4.944 20.772 5.208 20.548C5.472 20.324 5.604 20.012 5.604 19.612C5.604 19.204 5.464 18.88 5.184 18.64C4.904 18.4 4.532 18.28 4.068 18.28H2.268V20.884H4.116ZM8.00259 18.664C8.00259 18 8.13859 17.412 8.41059 16.9C8.69059 16.388 9.06659 15.992 9.53859 15.712C10.0186 15.424 10.5466 15.28 11.1226 15.28C11.6426 15.28 12.0946 15.384 12.4786 15.592C12.8706 15.792 13.1826 16.044 13.4146 16.348V15.388H14.7946V22H13.4146V21.016C13.1826 21.328 12.8666 21.588 12.4666 21.796C12.0666 22.004 11.6106 22.108 11.0986 22.108C10.5306 22.108 10.0106 21.964 9.53859 21.676C9.06659 21.38 8.69059 20.972 8.41059 20.452C8.13859 19.924 8.00259 19.328 8.00259 18.664ZM13.4146 18.688C13.4146 18.232 13.3186 17.836 13.1266 17.5C12.9426 17.164 12.6986 16.908 12.3946 16.732C12.0906 16.556 11.7626 16.468 11.4106 16.468C11.0586 16.468 10.7306 16.556 10.4266 16.732C10.1226 16.9 9.87459 17.152 9.68259 17.488C9.49859 17.816 9.40659 18.208 9.40659 18.664C9.40659 19.12 9.49859 19.52 9.68259 19.864C9.87459 20.208 10.1226 20.472 10.4266 20.656C10.7386 20.832 11.0666 20.92 11.4106 20.92C11.7626 20.92 12.0906 20.832 12.3946 20.656C12.6986 20.48 12.9426 20.224 13.1266 19.888C13.3186 19.544 13.4146 19.144 13.4146 18.688ZM18.1874 16.504V20.164C18.1874 20.412 18.2434 20.592 18.3554 20.704C18.4754 20.808 18.6754 20.86 18.9554 20.86H19.7954V22H18.7154C18.0994 22 17.6274 21.856 17.2994 21.568C16.9714 21.28 16.8074 20.812 16.8074 20.164V16.504H16.0274V15.388H16.8074V13.744H18.1874V15.388H19.7954V16.504H18.1874ZM22.6523 16.504V20.164C22.6523 20.412 22.7083 20.592 22.8203 20.704C22.9403 20.808 23.1403 20.86 23.4203 20.86H24.2603V22H23.1803C22.5643 22 22.0923 21.856 21.7643 21.568C21.4363 21.28 21.2723 20.812 21.2723 20.164V16.504H20.4923V15.388H21.2723V13.744H22.6523V15.388H24.2603V16.504H22.6523ZM26.8891 13.12V22H25.5211V13.12H26.8891ZM34.7452 18.532C34.7452 18.78 34.7292 19.004 34.6972 19.204H29.6452C29.6852 19.732 29.8812 20.156 30.2332 20.476C30.5852 20.796 31.0172 20.956 31.5292 20.956C32.2652 20.956 32.7852 20.648 33.0892 20.032H34.5652C34.3652 20.64 34.0012 21.14 33.4732 21.532C32.9532 21.916 32.3052 22.108 31.5292 22.108C30.8972 22.108 30.3292 21.968 29.8252 21.688C29.3292 21.4 28.9372 21 28.6492 20.488C28.3692 19.968 28.2292 19.368 28.2292 18.688C28.2292 18.008 28.3652 17.412 28.6372 16.9C28.9172 16.38 29.3052 15.98 29.8012 15.7C30.3052 15.42 30.8812 15.28 31.5292 15.28C32.1532 15.28 32.7092 15.416 33.1972 15.688C33.6852 15.96 34.0652 16.344 34.3372 16.84C34.6092 17.328 34.7452 17.892 34.7452 18.532ZM33.3172 18.1C33.3092 17.596 33.1292 17.192 32.7772 16.888C32.4252 16.584 31.9892 16.432 31.4692 16.432C30.9972 16.432 30.5932 16.584 30.2572 16.888C29.9212 17.184 29.7212 17.588 29.6572 18.1H33.3172ZM50.0686 13.66L47.5966 22H46.0486L44.2966 15.688L42.4366 22L40.9006 22.012L38.5366 13.66H39.9886L41.7166 20.452L43.5886 13.66H45.1246L46.8646 20.416L48.6046 13.66H50.0686ZM54.0649 22.108C53.4409 22.108 52.8769 21.968 52.3729 21.688C51.8689 21.4 51.4729 21 51.1849 20.488C50.8969 19.968 50.7529 19.368 50.7529 18.688C50.7529 18.016 50.9009 17.42 51.1969 16.9C51.4929 16.38 51.8969 15.98 52.4089 15.7C52.9209 15.42 53.4929 15.28 54.1249 15.28C54.7569 15.28 55.3289 15.42 55.8409 15.7C56.3529 15.98 56.7569 16.38 57.0529 16.9C57.3489 17.42 57.4969 18.016 57.4969 18.688C57.4969 19.36 57.3449 19.956 57.0409 20.476C56.7369 20.996 56.3209 21.4 55.7929 21.688C55.2729 21.968 54.6969 22.108 54.0649 22.108ZM54.0649 20.92C54.4169 20.92 54.7449 20.836 55.0489 20.668C55.3609 20.5 55.6129 20.248 55.8049 19.912C55.9969 19.576 56.0929 19.168 56.0929 18.688C56.0929 18.208 56.0009 17.804 55.8169 17.476C55.6329 17.14 55.3889 16.888 55.0849 16.72C54.7809 16.552 54.4529 16.468 54.1009 16.468C53.7489 16.468 53.4209 16.552 53.1169 16.72C52.8209 16.888 52.5849 17.14 52.4089 17.476C52.2329 17.804 52.1449 18.208 52.1449 18.688C52.1449 19.4 52.3249 19.952 52.6849 20.344C53.0529 20.728 53.5129 20.92 54.0649 20.92ZM60.2172 16.348C60.4172 16.012 60.6812 15.752 61.0092 15.568C61.3452 15.376 61.7412 15.28 62.1972 15.28V16.696H61.8492C61.3132 16.696 60.9052 16.832 60.6252 17.104C60.3532 17.376 60.2172 17.848 60.2172 18.52V22H58.8492V15.388H60.2172V16.348ZM64.8227 13.12V22H63.4547V13.12H64.8227ZM66.1628 18.664C66.1628 18 66.2988 17.412 66.5708 16.9C66.8508 16.388 67.2268 15.992 67.6988 15.712C68.1788 15.424 68.7108 15.28 69.2948 15.28C69.7268 15.28 70.1508 15.376 70.5668 15.568C70.9908 15.752 71.3268 16 71.5748 16.312V13.12H72.9548V22H71.5748V21.004C71.3508 21.324 71.0388 21.588 70.6388 21.796C70.2468 22.004 69.7948 22.108 69.2828 22.108C68.7068 22.108 68.1788 21.964 67.6988 21.676C67.2268 21.38 66.8508 20.972 66.5708 20.452C66.2988 19.924 66.1628 19.328 66.1628 18.664ZM71.5748 18.688C71.5748 18.232 71.4788 17.836 71.2868 17.5C71.1028 17.164 70.8588 16.908 70.5548 16.732C70.2508 16.556 69.9228 16.468 69.5708 16.468C69.2188 16.468 68.8908 16.556 68.5868 16.732C68.2828 16.9 68.0348 17.152 67.8428 17.488C67.6588 17.816 67.5668 18.208 67.5668 18.664C67.5668 19.12 67.6588 19.52 67.8428 19.864C68.0348 20.208 68.2828 20.472 68.5868 20.656C68.8988 20.832 69.2268 20.92 69.5708 20.92C69.9228 20.92 70.2508 20.832 70.5548 20.656C70.8588 20.48 71.1028 20.224 71.2868 19.888C71.4788 19.544 71.5748 19.144 71.5748 18.688Z" fill="white"/>
<path d="M2.23 31.7V32.21H5.68V31.7H2.23ZM5.95 31.7V32.21H9.39V31.7H5.95ZM3.7 31.11V33.69H4.27V31.11H3.7ZM5.33 34.24V36.36H6V34.24H5.33ZM7.28 31.11V33.69H7.86V31.11H7.28ZM3.36 35.54H8V36.15H3.36V35.54ZM3.36 34.51H8V35.12H3.36V34.51ZM2.7 34.03V36.64H8.69V34.03H2.7ZM6.61 37.38L6.68 37.82C7.28 37.78 7.93 37.73 8.67 37.66V37.29C7.88 37.33 7.18 37.36 6.61 37.38ZM3.69 31.92C3.32 32.43 2.62 32.97 1.97 33.22C2.1 33.33 2.27 33.52 2.36 33.66C3.02 33.34 3.74 32.7 4.11 32.09L3.69 31.92ZM7.26 31.92C6.9 32.43 6.21 32.97 5.58 33.22C5.7 33.33 5.87 33.52 5.96 33.66C6.6 33.34 7.32 32.7 7.69 32.09L7.26 31.92ZM7.93 31.98L7.5 32.17C7.88 32.72 8.61 33.37 9.2 33.68C9.3 33.54 9.48 33.34 9.61 33.23C9.02 32.98 8.31 32.45 7.93 31.98ZM3.97 36.51C3.77 37.41 3.23 37.94 1.63 38.25C1.77 38.38 1.97 38.66 2.04 38.83C3.81 38.42 4.46 37.71 4.71 36.51H3.97ZM5.66 36.51V37.95C5.66 38.61 5.9 38.76 6.85 38.76C7.04 38.76 8.48 38.76 8.68 38.76C9.39 38.76 9.58 38.55 9.67 37.68C9.48 37.64 9.22 37.56 9.07 37.46C9.04 38.13 8.97 38.22 8.61 38.22C8.31 38.22 7.12 38.22 6.89 38.22C6.4 38.22 6.32 38.18 6.32 37.95V36.51H5.66ZM5.11 33.44C5 33.65 4.79 33.96 4.63 34.19L5.18 34.35C5.36 34.14 5.61 33.88 5.83 33.57L5.11 33.44ZM7.26 36.39C7.2 36.69 7.07 37.15 6.96 37.46L7.38 37.59C7.49 37.32 7.62 36.93 7.77 36.55L7.26 36.39ZM8.01 36.91C8.29 37.22 8.58 37.65 8.68 37.96L9.13 37.77C9.02 37.48 8.73 37.05 8.45 36.75L8.01 36.91ZM4.23 32.27L3.9 32.52C4.22 32.71 5.02 33.2 5.27 33.41L5.64 32.99C5.42 32.85 4.5 32.39 4.23 32.27ZM4.88 29.61V30.8H5.65V29.61H4.88ZM1.57 30.4V31.04H9.52V30.4H1.57ZM1.14 30.4V33.53C1.14 34.98 1.07 36.96 0.29 38.38C0.45 38.46 0.74 38.69 0.87 38.83C1.71 37.32 1.84 35.07 1.84 33.53V30.4H1.14ZM12.31 32.23H17.67V33.32H12.31V32.23ZM12.31 30.56H17.67V31.63H12.31V30.56ZM11.56 29.93V33.94H18.44V29.93H11.56ZM16.1 33.53L15.46 33.77C16.25 34.91 17.68 35.86 19.11 36.32C19.22 36.12 19.44 35.83 19.61 35.68C18.21 35.31 16.8 34.5 16.1 33.53ZM13.94 33.53C13.22 34.49 11.79 35.35 10.44 35.74C10.61 35.89 10.83 36.17 10.95 36.36C12.32 35.87 13.79 34.91 14.59 33.8L13.94 33.53ZM13.11 35.29V35.89C13.11 36.63 12.93 37.6 11.17 38.26C11.34 38.41 11.58 38.67 11.69 38.86C13.63 38.08 13.87 36.87 13.87 35.91V35.29H13.11ZM14.6 30.26V33.66H15.36V30.26H14.6ZM16.29 35.29V38.78H17.06V35.29H16.29ZM23.04 38.07C22.5733 38.07 22.1533 37.99 21.78 37.83C21.4067 37.6633 21.1133 37.43 20.9 37.13C20.6867 36.83 20.58 36.48 20.58 36.08H21.8C21.8267 36.38 21.9433 36.6267 22.15 36.82C22.3633 37.0133 22.66 37.11 23.04 37.11C23.4333 37.11 23.74 37.0167 23.96 36.83C24.18 36.6367 24.29 36.39 24.29 36.09C24.29 35.8567 24.22 35.6667 24.08 35.52C23.9467 35.3733 23.7767 35.26 23.57 35.18C23.37 35.1 23.09 35.0133 22.73 34.92C22.2767 34.8 21.9067 34.68 21.62 34.56C21.34 34.4333 21.1 34.24 20.9 33.98C20.7 33.72 20.6 33.3733 20.6 32.94C20.6 32.54 20.7 32.19 20.9 31.89C21.1 31.59 21.38 31.36 21.74 31.2C22.1 31.04 22.5167 30.96 22.99 30.96C23.6633 30.96 24.2133 31.13 24.64 31.47C25.0733 31.8033 25.3133 32.2633 25.36 32.85H24.1C24.08 32.5967 23.96 32.38 23.74 32.2C23.52 32.02 23.23 31.93 22.87 31.93C22.5433 31.93 22.2767 32.0133 22.07 32.18C21.8633 32.3467 21.76 32.5867 21.76 32.9C21.76 33.1133 21.8233 33.29 21.95 33.43C22.0833 33.5633 22.25 33.67 22.45 33.75C22.65 33.83 22.9233 33.9167 23.27 34.01C23.73 34.1367 24.1033 34.2633 24.39 34.39C24.6833 34.5167 24.93 34.7133 25.13 34.98C25.3367 35.24 25.44 35.59 25.44 36.03C25.44 36.3833 25.3433 36.7167 25.15 37.03C24.9633 37.3433 24.6867 37.5967 24.32 37.79C23.96 37.9767 23.5333 38.07 23.04 38.07ZM31.7452 32.49L28.3652 40.59H27.1852L28.3052 37.91L26.1352 32.49H27.4052L28.9552 36.69L30.5652 32.49H31.7452ZM39.2755 32.4C39.7088 32.4 40.0955 32.49 40.4355 32.67C40.7821 32.85 41.0521 33.1167 41.2455 33.47C41.4455 33.8233 41.5455 34.25 41.5455 34.75V38H40.4155V34.92C40.4155 34.4267 40.2921 34.05 40.0455 33.79C39.7988 33.5233 39.4621 33.39 39.0355 33.39C38.6088 33.39 38.2688 33.5233 38.0155 33.79C37.7688 34.05 37.6455 34.4267 37.6455 34.92V38H36.5155V34.92C36.5155 34.4267 36.3921 34.05 36.1455 33.79C35.8988 33.5233 35.5621 33.39 35.1355 33.39C34.7088 33.39 34.3688 33.5233 34.1155 33.79C33.8688 34.05 33.7455 34.4267 33.7455 34.92V38H32.6055V32.49H33.7455V33.12C33.9321 32.8933 34.1688 32.7167 34.4555 32.59C34.7421 32.4633 35.0488 32.4 35.3755 32.4C35.8155 32.4 36.2088 32.4933 36.5555 32.68C36.9021 32.8667 37.1688 33.1367 37.3555 33.49C37.5221 33.1567 37.7821 32.8933 38.1355 32.7C38.4888 32.5 38.8688 32.4 39.2755 32.4ZM44.1361 33.3C44.3294 33.0467 44.5928 32.8333 44.9261 32.66C45.2594 32.4867 45.6361 32.4 46.0561 32.4C46.5361 32.4 46.9728 32.52 47.3661 32.76C47.7661 32.9933 48.0794 33.3233 48.3061 33.75C48.5328 34.1767 48.6461 34.6667 48.6461 35.22C48.6461 35.7733 48.5328 36.27 48.3061 36.71C48.0794 37.1433 47.7661 37.4833 47.3661 37.73C46.9728 37.97 46.5361 38.09 46.0561 38.09C45.6361 38.09 45.2628 38.0067 44.9361 37.84C44.6094 37.6667 44.3428 37.4533 44.1361 37.2V40.62H42.9961V32.49H44.1361V33.3ZM47.4861 35.22C47.4861 34.84 47.4061 34.5133 47.2461 34.24C47.0928 33.96 46.8861 33.75 46.6261 33.61C46.3728 33.4633 46.0994 33.39 45.8061 33.39C45.5194 33.39 45.2461 33.4633 44.9861 33.61C44.7328 33.7567 44.5261 33.97 44.3661 34.25C44.2128 34.53 44.1361 34.86 44.1361 35.24C44.1361 35.62 44.2128 35.9533 44.3661 36.24C44.5261 36.52 44.7328 36.7333 44.9861 36.88C45.2461 37.0267 45.5194 37.1 45.8061 37.1C46.0994 37.1 46.3728 37.0267 46.6261 36.88C46.8861 36.7267 47.0928 36.5067 47.2461 36.22C47.4061 35.9333 47.4861 35.6 47.4861 35.22ZM52.6234 32.4C53.0434 32.4 53.4168 32.49 53.7434 32.67C54.0768 32.85 54.3368 33.1167 54.5234 33.47C54.7168 33.8233 54.8134 34.25 54.8134 34.75V38H53.6834V34.92C53.6834 34.4267 53.5601 34.05 53.3134 33.79C53.0668 33.5233 52.7301 33.39 52.3034 33.39C51.8768 33.39 51.5368 33.5233 51.2834 33.79C51.0368 34.05 50.9134 34.4267 50.9134 34.92V38H49.7734V30.6H50.9134V33.13C51.1068 32.8967 51.3501 32.7167 51.6434 32.59C51.9434 32.4633 52.2701 32.4 52.6234 32.4ZM58.6576 38.09C58.1376 38.09 57.6676 37.9733 57.2476 37.74C56.8276 37.5 56.4976 37.1667 56.2576 36.74C56.0176 36.3067 55.8976 35.8067 55.8976 35.24C55.8976 34.68 56.0209 34.1833 56.2676 33.75C56.5142 33.3167 56.8509 32.9833 57.2776 32.75C57.7042 32.5167 58.1809 32.4 58.7076 32.4C59.2342 32.4 59.7109 32.5167 60.1376 32.75C60.5642 32.9833 60.9009 33.3167 61.1476 33.75C61.3942 34.1833 61.5176 34.68 61.5176 35.24C61.5176 35.8 61.3909 36.2967 61.1376 36.73C60.8842 37.1633 60.5376 37.5 60.0976 37.74C59.6642 37.9733 59.1842 38.09 58.6576 38.09ZM58.6576 37.1C58.9509 37.1 59.2242 37.03 59.4776 36.89C59.7376 36.75 59.9476 36.54 60.1076 36.26C60.2676 35.98 60.3476 35.64 60.3476 35.24C60.3476 34.84 60.2709 34.5033 60.1176 34.23C59.9642 33.95 59.7609 33.74 59.5076 33.6C59.2542 33.46 58.9809 33.39 58.6876 33.39C58.3942 33.39 58.1209 33.46 57.8676 33.6C57.6209 33.74 57.4242 33.95 57.2776 34.23C57.1309 34.5033 57.0576 34.84 57.0576 35.24C57.0576 35.8333 57.2076 36.2933 57.5076 36.62C57.8142 36.94 58.1976 37.1 58.6576 37.1ZM65.4245 32.4C65.8579 32.4 66.2445 32.49 66.5845 32.67C66.9312 32.85 67.2012 33.1167 67.3945 33.47C67.5879 33.8233 67.6845 34.25 67.6845 34.75V38H66.5545V34.92C66.5545 34.4267 66.4312 34.05 66.1845 33.79C65.9379 33.5233 65.6012 33.39 65.1745 33.39C64.7479 33.39 64.4079 33.5233 64.1545 33.79C63.9079 34.05 63.7845 34.4267 63.7845 34.92V38H62.6445V32.49H63.7845V33.12C63.9712 32.8933 64.2079 32.7167 64.4945 32.59C64.7879 32.4633 65.0979 32.4 65.4245 32.4ZM74.0987 32.49L70.7187 40.59H69.5387L70.6587 37.91L68.4887 32.49H69.7587L71.3087 36.69L72.9187 32.49H74.0987Z" fill="#808080"/>
</svg>
