<svg width="480" height="360" viewBox="0 0 480 360" fill="none" xmlns="http://www.w3.org/2000/svg">
<path d="M104.581 0H450C466.569 0 480 13.4315 480 30V330C480 346.569 466.569 360 450 360H104.581H30C13.4315 360 0 346.569 0 330V30C0 13.4315 13.4315 0 30 0H104.581Z" fill="#191919"/>
<path d="M179.67 295.728H175.014L174.214 298H172.31L176.294 286.864H178.406L182.39 298H180.47L179.67 295.728ZM179.158 294.24L177.35 289.072L175.526 294.24H179.158ZM188.57 289.04C189.263 289.04 189.882 289.184 190.426 289.472C190.981 289.76 191.413 290.187 191.722 290.752C192.031 291.317 192.186 292 192.186 292.8V298H190.378V293.072C190.378 292.283 190.181 291.68 189.786 291.264C189.391 290.837 188.853 290.624 188.17 290.624C187.487 290.624 186.943 290.837 186.538 291.264C186.143 291.68 185.946 292.283 185.946 293.072V298H184.122V289.184H185.946V290.192C186.245 289.829 186.623 289.547 187.082 289.344C187.551 289.141 188.047 289.04 188.57 289.04ZM195.441 288.016C195.11 288.016 194.833 287.904 194.609 287.68C194.385 287.456 194.273 287.179 194.273 286.848C194.273 286.517 194.385 286.24 194.609 286.016C194.833 285.792 195.11 285.68 195.441 285.68C195.761 285.68 196.033 285.792 196.257 286.016C196.481 286.24 196.593 286.517 196.593 286.848C196.593 287.179 196.481 287.456 196.257 287.68C196.033 287.904 195.761 288.016 195.441 288.016ZM196.337 289.184V298H194.513V289.184H196.337ZM209.403 289.04C210.097 289.04 210.715 289.184 211.259 289.472C211.814 289.76 212.246 290.187 212.555 290.752C212.875 291.317 213.035 292 213.035 292.8V298H211.227V293.072C211.227 292.283 211.03 291.68 210.635 291.264C210.241 290.837 209.702 290.624 209.019 290.624C208.337 290.624 207.793 290.837 207.387 291.264C206.993 291.68 206.795 292.283 206.795 293.072V298H204.987V293.072C204.987 292.283 204.79 291.68 204.395 291.264C204.001 290.837 203.462 290.624 202.779 290.624C202.097 290.624 201.553 290.837 201.147 291.264C200.753 291.68 200.555 292.283 200.555 293.072V298H198.731V289.184H200.555V290.192C200.854 289.829 201.233 289.547 201.691 289.344C202.15 289.141 202.641 289.04 203.163 289.04C203.867 289.04 204.497 289.189 205.051 289.488C205.606 289.787 206.033 290.219 206.331 290.784C206.598 290.251 207.014 289.829 207.579 289.52C208.145 289.2 208.753 289.04 209.403 289.04ZM214.748 293.552C214.748 292.667 214.93 291.883 215.292 291.2C215.666 290.517 216.167 289.989 216.796 289.616C217.436 289.232 218.14 289.04 218.908 289.04C219.602 289.04 220.204 289.179 220.716 289.456C221.239 289.723 221.655 290.059 221.964 290.464V289.184H223.804V298H221.964V296.688C221.655 297.104 221.234 297.451 220.7 297.728C220.167 298.005 219.559 298.144 218.876 298.144C218.119 298.144 217.426 297.952 216.796 297.568C216.167 297.173 215.666 296.629 215.292 295.936C214.93 295.232 214.748 294.437 214.748 293.552ZM221.964 293.584C221.964 292.976 221.836 292.448 221.58 292C221.335 291.552 221.01 291.211 220.604 290.976C220.199 290.741 219.762 290.624 219.292 290.624C218.823 290.624 218.386 290.741 217.98 290.976C217.575 291.2 217.244 291.536 216.988 291.984C216.743 292.421 216.62 292.944 216.62 293.552C216.62 294.16 216.743 294.693 216.988 295.152C217.244 295.611 217.575 295.963 217.98 296.208C218.396 296.443 218.834 296.56 219.292 296.56C219.762 296.56 220.199 296.443 220.604 296.208C221.01 295.973 221.335 295.632 221.58 295.184C221.836 294.725 221.964 294.192 221.964 293.584ZM228.328 290.672V295.552C228.328 295.883 228.403 296.123 228.552 296.272C228.712 296.411 228.979 296.48 229.352 296.48H230.472V298H229.032C228.211 298 227.581 297.808 227.144 297.424C226.707 297.04 226.488 296.416 226.488 295.552V290.672H225.448V289.184H226.488V286.992H228.328V289.184H230.472V290.672H228.328ZM240.233 293.376C240.233 293.707 240.212 294.005 240.169 294.272H233.433C233.486 294.976 233.748 295.541 234.217 295.968C234.686 296.395 235.262 296.608 235.945 296.608C236.926 296.608 237.62 296.197 238.025 295.376H239.993C239.726 296.187 239.241 296.853 238.537 297.376C237.844 297.888 236.98 298.144 235.945 298.144C235.102 298.144 234.345 297.957 233.673 297.584C233.012 297.2 232.489 296.667 232.105 295.984C231.732 295.291 231.545 294.491 231.545 293.584C231.545 292.677 231.726 291.883 232.089 291.2C232.462 290.507 232.98 289.973 233.641 289.6C234.313 289.227 235.081 289.04 235.945 289.04C236.777 289.04 237.518 289.221 238.169 289.584C238.82 289.947 239.326 290.459 239.689 291.12C240.052 291.771 240.233 292.523 240.233 293.376ZM238.329 292.8C238.318 292.128 238.078 291.589 237.609 291.184C237.14 290.779 236.558 290.576 235.865 290.576C235.236 290.576 234.697 290.779 234.249 291.184C233.801 291.579 233.534 292.117 233.449 292.8H238.329ZM241.42 293.552C241.42 292.667 241.601 291.883 241.964 291.2C242.337 290.517 242.839 289.989 243.468 289.616C244.108 289.232 244.817 289.04 245.596 289.04C246.172 289.04 246.737 289.168 247.292 289.424C247.857 289.669 248.305 290 248.636 290.416V286.16H250.476V298H248.636V296.672C248.337 297.099 247.921 297.451 247.388 297.728C246.865 298.005 246.263 298.144 245.58 298.144C244.812 298.144 244.108 297.952 243.468 297.568C242.839 297.173 242.337 296.629 241.964 295.936C241.601 295.232 241.42 294.437 241.42 293.552ZM248.636 293.584C248.636 292.976 248.508 292.448 248.252 292C248.007 291.552 247.681 291.211 247.276 290.976C246.871 290.741 246.433 290.624 245.964 290.624C245.495 290.624 245.057 290.741 244.652 290.976C244.247 291.2 243.916 291.536 243.66 291.984C243.415 292.421 243.292 292.944 243.292 293.552C243.292 294.16 243.415 294.693 243.66 295.152C243.916 295.611 244.247 295.963 244.652 296.208C245.068 296.443 245.505 296.56 245.964 296.56C246.433 296.56 246.871 296.443 247.276 296.208C247.681 295.973 248.007 295.632 248.252 295.184C248.508 294.725 248.636 294.192 248.636 293.584ZM258.852 286.88V298H257.028V286.88H258.852ZM271.919 289.04C272.612 289.04 273.231 289.184 273.775 289.472C274.33 289.76 274.762 290.187 275.071 290.752C275.391 291.317 275.551 292 275.551 292.8V298H273.743V293.072C273.743 292.283 273.546 291.68 273.151 291.264C272.756 290.837 272.218 290.624 271.535 290.624C270.852 290.624 270.308 290.837 269.903 291.264C269.508 291.68 269.311 292.283 269.311 293.072V298H267.503V293.072C267.503 292.283 267.306 291.68 266.911 291.264C266.516 290.837 265.978 290.624 265.295 290.624C264.612 290.624 264.068 290.837 263.663 291.264C263.268 291.68 263.071 292.283 263.071 293.072V298H261.247V289.184H263.071V290.192C263.37 289.829 263.748 289.547 264.207 289.344C264.666 289.141 265.156 289.04 265.679 289.04C266.383 289.04 267.012 289.189 267.567 289.488C268.122 289.787 268.548 290.219 268.847 290.784C269.114 290.251 269.53 289.829 270.095 289.52C270.66 289.2 271.268 289.04 271.919 289.04ZM277.264 293.552C277.264 292.667 277.445 291.883 277.808 291.2C278.181 290.517 278.683 289.989 279.312 289.616C279.952 289.232 280.656 289.04 281.424 289.04C282.117 289.04 282.72 289.179 283.232 289.456C283.755 289.723 284.171 290.059 284.48 290.464V289.184H286.32V298H284.48V296.688C284.171 297.104 283.749 297.451 283.216 297.728C282.683 298.005 282.075 298.144 281.392 298.144C280.635 298.144 279.941 297.952 279.312 297.568C278.683 297.173 278.181 296.629 277.808 295.936C277.445 295.232 277.264 294.437 277.264 293.552ZM284.48 293.584C284.48 292.976 284.352 292.448 284.096 292C283.851 291.552 283.525 291.211 283.12 290.976C282.715 290.741 282.277 290.624 281.808 290.624C281.339 290.624 280.901 290.741 280.496 290.976C280.091 291.2 279.76 291.536 279.504 291.984C279.259 292.421 279.136 292.944 279.136 293.552C279.136 294.16 279.259 294.693 279.504 295.152C279.76 295.611 280.091 295.963 280.496 296.208C280.912 296.443 281.349 296.56 281.808 296.56C282.277 296.56 282.715 296.443 283.12 296.208C283.525 295.973 283.851 295.632 284.096 295.184C284.352 294.725 284.48 294.192 284.48 293.584ZM292.268 289.04C292.95 289.04 293.553 289.179 294.076 289.456C294.609 289.723 295.025 290.059 295.324 290.464V289.184H297.164V298.144C297.164 298.955 296.993 299.675 296.652 300.304C296.31 300.944 295.814 301.445 295.164 301.808C294.524 302.171 293.756 302.352 292.86 302.352C291.665 302.352 290.673 302.069 289.884 301.504C289.094 300.949 288.646 300.192 288.54 299.232H290.348C290.486 299.691 290.78 300.059 291.228 300.336C291.686 300.624 292.23 300.768 292.86 300.768C293.596 300.768 294.188 300.544 294.636 300.096C295.094 299.648 295.324 298.997 295.324 298.144V296.672C295.014 297.088 294.593 297.44 294.06 297.728C293.537 298.005 292.94 298.144 292.268 298.144C291.5 298.144 290.796 297.952 290.156 297.568C289.526 297.173 289.025 296.629 288.652 295.936C288.289 295.232 288.108 294.437 288.108 293.552C288.108 292.667 288.289 291.883 288.652 291.2C289.025 290.517 289.526 289.989 290.156 289.616C290.796 289.232 291.5 289.04 292.268 289.04ZM295.324 293.584C295.324 292.976 295.196 292.448 294.94 292C294.694 291.552 294.369 291.211 293.964 290.976C293.558 290.741 293.121 290.624 292.652 290.624C292.182 290.624 291.745 290.741 291.34 290.976C290.934 291.2 290.604 291.536 290.348 291.984C290.102 292.421 289.98 292.944 289.98 293.552C289.98 294.16 290.102 294.693 290.348 295.152C290.604 295.611 290.934 295.963 291.34 296.208C291.756 296.443 292.193 296.56 292.652 296.56C293.121 296.56 293.558 296.443 293.964 296.208C294.369 295.973 294.694 295.632 294.94 295.184C295.196 294.725 295.324 294.192 295.324 293.584ZM307.639 293.376C307.639 293.707 307.618 294.005 307.575 294.272H300.839C300.893 294.976 301.154 295.541 301.623 295.968C302.093 296.395 302.669 296.608 303.351 296.608C304.333 296.608 305.026 296.197 305.431 295.376H307.399C307.133 296.187 306.647 296.853 305.943 297.376C305.25 297.888 304.386 298.144 303.351 298.144C302.509 298.144 301.751 297.957 301.079 297.584C300.418 297.2 299.895 296.667 299.511 295.984C299.138 295.291 298.951 294.491 298.951 293.584C298.951 292.677 299.133 291.883 299.495 291.2C299.869 290.507 300.386 289.973 301.047 289.6C301.719 289.227 302.487 289.04 303.351 289.04C304.183 289.04 304.925 289.221 305.575 289.584C306.226 289.947 306.733 290.459 307.095 291.12C307.458 291.771 307.639 292.523 307.639 293.376ZM305.735 292.8C305.725 292.128 305.485 291.589 305.015 291.184C304.546 290.779 303.965 290.576 303.271 290.576C302.642 290.576 302.103 290.779 301.655 291.184C301.207 291.579 300.941 292.117 300.855 292.8H305.735Z" fill="white"/>
</svg>
