<svg xmlns="http://www.w3.org/2000/svg" fill="none" viewBox="0 0 480 360" height="360" width="480">
<path fill="#E6E6E6" d="M310 180C310 141.34 278.66 110 240 110C201.34 110 170 141.34 170 180C170 218.66 201.34 250 240 250C278.66 250 310 218.66 310 180Z"></path>
<path fill="black" d="M174.107 330.66V331.776H170.567V334.236H173.327V335.352H170.567V339H169.199V330.66H174.107ZM176.071 331.512C175.823 331.512 175.615 331.428 175.447 331.26C175.279 331.092 175.195 330.884 175.195 330.636C175.195 330.388 175.279 330.18 175.447 330.012C175.615 329.844 175.823 329.76 176.071 329.76C176.311 329.76 176.515 329.844 176.683 330.012C176.851 330.18 176.935 330.388 176.935 330.636C176.935 330.884 176.851 331.092 176.683 331.26C176.515 331.428 176.311 331.512 176.071 331.512ZM176.743 332.388V339H175.375V332.388H176.743ZM179.907 333.348C180.107 333.012 180.371 332.752 180.699 332.568C181.035 332.376 181.431 332.28 181.887 332.28V333.696H181.539C181.003 333.696 180.595 333.832 180.315 334.104C180.043 334.376 179.907 334.848 179.907 335.52V339H178.539V332.388H179.907V333.348ZM185.544 339.108C185.024 339.108 184.556 339.016 184.14 338.832C183.732 338.64 183.408 338.384 183.168 338.064C182.928 337.736 182.8 337.372 182.784 336.972H184.2C184.224 337.252 184.356 337.488 184.596 337.68C184.844 337.864 185.152 337.956 185.52 337.956C185.904 337.956 186.2 337.884 186.408 337.74C186.624 337.588 186.732 337.396 186.732 337.164C186.732 336.916 186.612 336.732 186.372 336.612C186.14 336.492 185.768 336.36 185.256 336.216C184.76 336.08 184.356 335.948 184.044 335.82C183.732 335.692 183.46 335.496 183.228 335.232C183.004 334.968 182.892 334.62 182.892 334.188C182.892 333.836 182.996 333.516 183.204 333.228C183.412 332.932 183.708 332.7 184.092 332.532C184.484 332.364 184.932 332.28 185.436 332.28C186.188 332.28 186.792 332.472 187.248 332.856C187.712 333.232 187.96 333.748 187.992 334.404H186.624C186.6 334.108 186.48 333.872 186.264 333.696C186.048 333.52 185.756 333.432 185.388 333.432C185.028 333.432 184.752 333.5 184.56 333.636C184.368 333.772 184.272 333.952 184.272 334.176C184.272 334.352 184.336 334.5 184.464 334.62C184.592 334.74 184.748 334.836 184.932 334.908C185.116 334.972 185.388 335.056 185.748 335.16C186.228 335.288 186.62 335.42 186.924 335.556C187.236 335.684 187.504 335.876 187.728 336.132C187.952 336.388 188.068 336.728 188.076 337.152C188.076 337.528 187.972 337.864 187.764 338.16C187.556 338.456 187.26 338.688 186.876 338.856C186.5 339.024 186.056 339.108 185.544 339.108ZM191.15 333.504V337.164C191.15 337.412 191.206 337.592 191.318 337.704C191.438 337.808 191.638 337.86 191.918 337.86H192.758V339H191.678C191.062 339 190.59 338.856 190.262 338.568C189.934 338.28 189.77 337.812 189.77 337.164V333.504H188.99V332.388H189.77V330.744H191.15V332.388H192.758V333.504H191.15ZM196.68 335.688C196.68 335.008 196.816 334.412 197.088 333.9C197.368 333.38 197.752 332.98 198.24 332.7C198.728 332.42 199.288 332.28 199.92 332.28C200.72 332.28 201.38 332.472 201.9 332.856C202.428 333.232 202.784 333.772 202.968 334.476H201.492C201.372 334.148 201.18 333.892 200.916 333.708C200.652 333.524 200.32 333.432 199.92 333.432C199.36 333.432 198.912 333.632 198.576 334.032C198.248 334.424 198.084 334.976 198.084 335.688C198.084 336.4 198.248 336.956 198.576 337.356C198.912 337.756 199.36 337.956 199.92 337.956C200.712 337.956 201.236 337.608 201.492 336.912H202.968C202.776 337.584 202.416 338.12 201.888 338.52C201.36 338.912 200.704 339.108 199.92 339.108C199.288 339.108 198.728 338.968 198.24 338.688C197.752 338.4 197.368 338 197.088 337.488C196.816 336.968 196.68 336.368 196.68 335.688ZM207.752 332.28C208.256 332.28 208.704 332.388 209.096 332.604C209.496 332.82 209.808 333.14 210.032 333.564C210.264 333.988 210.38 334.5 210.38 335.1V339H209.024V335.304C209.024 334.712 208.876 334.26 208.58 333.948C208.284 333.628 207.88 333.468 207.368 333.468C206.856 333.468 206.448 333.628 206.144 333.948C205.848 334.26 205.7 334.712 205.7 335.304V339H204.332V330.12H205.7V333.156C205.932 332.876 206.224 332.66 206.576 332.508C206.936 332.356 207.328 332.28 207.752 332.28ZM218.185 335.532C218.185 335.78 218.169 336.004 218.137 336.204H213.085C213.125 336.732 213.321 337.156 213.673 337.476C214.025 337.796 214.457 337.956 214.969 337.956C215.705 337.956 216.225 337.648 216.529 337.032H218.005C217.805 337.64 217.441 338.14 216.913 338.532C216.393 338.916 215.745 339.108 214.969 339.108C214.337 339.108 213.769 338.968 213.265 338.688C212.769 338.4 212.377 338 212.089 337.488C211.809 336.968 211.669 336.368 211.669 335.688C211.669 335.008 211.805 334.412 212.077 333.9C212.357 333.38 212.745 332.98 213.241 332.7C213.745 332.42 214.321 332.28 214.969 332.28C215.593 332.28 216.149 332.416 216.637 332.688C217.125 332.96 217.505 333.344 217.777 333.84C218.049 334.328 218.185 334.892 218.185 335.532ZM216.757 335.1C216.749 334.596 216.569 334.192 216.217 333.888C215.865 333.584 215.429 333.432 214.909 333.432C214.437 333.432 214.033 333.584 213.697 333.888C213.361 334.184 213.161 334.588 213.097 335.1H216.757ZM219.075 335.688C219.075 335.008 219.211 334.412 219.483 333.9C219.763 333.38 220.147 332.98 220.635 332.7C221.123 332.42 221.683 332.28 222.315 332.28C223.115 332.28 223.775 332.472 224.295 332.856C224.823 333.232 225.179 333.772 225.363 334.476H223.887C223.767 334.148 223.575 333.892 223.311 333.708C223.047 333.524 222.715 333.432 222.315 333.432C221.755 333.432 221.307 333.632 220.971 334.032C220.643 334.424 220.479 334.976 220.479 335.688C220.479 336.4 220.643 336.956 220.971 337.356C221.307 337.756 221.755 337.956 222.315 337.956C223.107 337.956 223.631 337.608 223.887 336.912H225.363C225.171 337.584 224.811 338.12 224.283 338.52C223.755 338.912 223.099 339.108 222.315 339.108C221.683 339.108 221.123 338.968 220.635 338.688C220.147 338.4 219.763 338 219.483 337.488C219.211 336.968 219.075 336.368 219.075 335.688ZM229.342 335.7L232.39 339H230.542L228.094 336.156V339H226.726V330.12H228.094V335.28L230.494 332.388H232.39L229.342 335.7ZM237.184 331.512C236.936 331.512 236.728 331.428 236.56 331.26C236.392 331.092 236.308 330.884 236.308 330.636C236.308 330.388 236.392 330.18 236.56 330.012C236.728 329.844 236.936 329.76 237.184 329.76C237.424 329.76 237.628 329.844 237.796 330.012C237.964 330.18 238.048 330.388 238.048 330.636C238.048 330.884 237.964 331.092 237.796 331.26C237.628 331.428 237.424 331.512 237.184 331.512ZM237.856 332.388V339H236.488V332.388H237.856ZM242.988 332.28C243.508 332.28 243.972 332.388 244.38 332.604C244.796 332.82 245.12 333.14 245.352 333.564C245.584 333.988 245.7 334.5 245.7 335.1V339H244.344V335.304C244.344 334.712 244.196 334.26 243.9 333.948C243.604 333.628 243.2 333.468 242.688 333.468C242.176 333.468 241.768 333.628 241.464 333.948C241.168 334.26 241.02 334.712 241.02 335.304V339H239.652V332.388H241.02V333.144C241.244 332.872 241.528 332.66 241.872 332.508C242.224 332.356 242.596 332.28 242.988 332.28ZM251.93 333.36C252.162 333.056 252.478 332.8 252.878 332.592C253.278 332.384 253.73 332.28 254.234 332.28C254.81 332.28 255.334 332.424 255.806 332.712C256.286 332.992 256.662 333.388 256.934 333.9C257.206 334.412 257.342 335 257.342 335.664C257.342 336.328 257.206 336.924 256.934 337.452C256.662 337.972 256.286 338.38 255.806 338.676C255.334 338.964 254.81 339.108 254.234 339.108C253.73 339.108 253.282 339.008 252.89 338.808C252.498 338.6 252.178 338.344 251.93 338.04V342.144H250.562V332.388H251.93V333.36ZM255.95 335.664C255.95 335.208 255.854 334.816 255.662 334.488C255.478 334.152 255.23 333.9 254.918 333.732C254.614 333.556 254.286 333.468 253.934 333.468C253.59 333.468 253.262 333.556 252.95 333.732C252.646 333.908 252.398 334.164 252.206 334.5C252.022 334.836 251.93 335.232 251.93 335.688C251.93 336.144 252.022 336.544 252.206 336.888C252.398 337.224 252.646 337.48 252.95 337.656C253.262 337.832 253.59 337.92 253.934 337.92C254.286 337.92 254.614 337.832 254.918 337.656C255.23 337.472 255.478 337.208 255.662 336.864C255.854 336.52 255.95 336.12 255.95 335.664ZM260.063 333.348C260.263 333.012 260.527 332.752 260.855 332.568C261.191 332.376 261.587 332.28 262.043 332.28V333.696H261.695C261.159 333.696 260.751 333.832 260.471 334.104C260.199 334.376 260.063 334.848 260.063 335.52V339H258.695V332.388H260.063V333.348ZM266.168 339.108C265.544 339.108 264.98 338.968 264.476 338.688C263.972 338.4 263.576 338 263.288 337.488C263 336.968 262.856 336.368 262.856 335.688C262.856 335.016 263.004 334.42 263.3 333.9C263.596 333.38 264 332.98 264.512 332.7C265.024 332.42 265.596 332.28 266.228 332.28C266.86 332.28 267.432 332.42 267.944 332.7C268.456 332.98 268.86 333.38 269.156 333.9C269.452 334.42 269.6 335.016 269.6 335.688C269.6 336.36 269.448 336.956 269.144 337.476C268.84 337.996 268.424 338.4 267.896 338.688C267.376 338.968 266.8 339.108 266.168 339.108ZM266.168 337.92C266.52 337.92 266.848 337.836 267.152 337.668C267.464 337.5 267.716 337.248 267.908 336.912C268.1 336.576 268.196 336.168 268.196 335.688C268.196 335.208 268.104 334.804 267.92 334.476C267.736 334.14 267.492 333.888 267.188 333.72C266.884 333.552 266.556 333.468 266.204 333.468C265.852 333.468 265.524 333.552 265.22 333.72C264.924 333.888 264.688 334.14 264.512 334.476C264.336 334.804 264.248 335.208 264.248 335.688C264.248 336.4 264.428 336.952 264.788 337.344C265.156 337.728 265.616 337.92 266.168 337.92ZM273.617 332.28C274.129 332.28 274.581 332.384 274.973 332.592C275.373 332.792 275.685 333.044 275.909 333.348V332.388H277.289V339.108C277.289 339.716 277.161 340.256 276.905 340.728C276.649 341.208 276.277 341.584 275.789 341.856C275.309 342.128 274.733 342.264 274.061 342.264C273.165 342.264 272.421 342.052 271.829 341.628C271.237 341.212 270.901 340.644 270.821 339.924H272.177C272.281 340.268 272.501 340.544 272.837 340.752C273.181 340.968 273.589 341.076 274.061 341.076C274.613 341.076 275.057 340.908 275.393 340.572C275.737 340.236 275.909 339.748 275.909 339.108V338.004C275.677 338.316 275.361 338.58 274.961 338.796C274.569 339.004 274.121 339.108 273.617 339.108C273.041 339.108 272.513 338.964 272.033 338.676C271.561 338.38 271.185 337.972 270.905 337.452C270.633 336.924 270.497 336.328 270.497 335.664C270.497 335 270.633 334.412 270.905 333.9C271.185 333.388 271.561 332.992 272.033 332.712C272.513 332.424 273.041 332.28 273.617 332.28ZM275.909 335.688C275.909 335.232 275.813 334.836 275.621 334.5C275.437 334.164 275.193 333.908 274.889 333.732C274.585 333.556 274.257 333.468 273.905 333.468C273.553 333.468 273.225 333.556 272.921 333.732C272.617 333.9 272.369 334.152 272.177 334.488C271.993 334.816 271.901 335.208 271.901 335.664C271.901 336.12 271.993 336.52 272.177 336.864C272.369 337.208 272.617 337.472 272.921 337.656C273.233 337.832 273.561 337.92 273.905 337.92C274.257 337.92 274.585 337.832 274.889 337.656C275.193 337.48 275.437 337.224 275.621 336.888C275.813 336.544 275.909 336.144 275.909 335.688ZM280.454 333.348C280.654 333.012 280.918 332.752 281.246 332.568C281.582 332.376 281.978 332.28 282.434 332.28V333.696H282.086C281.55 333.696 281.142 333.832 280.862 334.104C280.59 334.376 280.454 334.848 280.454 335.52V339H279.086V332.388H280.454V333.348ZM289.751 335.532C289.751 335.78 289.735 336.004 289.703 336.204H284.651C284.691 336.732 284.887 337.156 285.239 337.476C285.591 337.796 286.023 337.956 286.535 337.956C287.271 337.956 287.791 337.648 288.095 337.032H289.571C289.371 337.64 289.007 338.14 288.479 338.532C287.959 338.916 287.311 339.108 286.535 339.108C285.903 339.108 285.335 338.968 284.831 338.688C284.335 338.4 283.943 338 283.655 337.488C283.375 336.968 283.235 336.368 283.235 335.688C283.235 335.008 283.371 334.412 283.643 333.9C283.923 333.38 284.311 332.98 284.807 332.7C285.311 332.42 285.887 332.28 286.535 332.28C287.159 332.28 287.715 332.416 288.203 332.688C288.691 332.96 289.071 333.344 289.343 333.84C289.615 334.328 289.751 334.892 289.751 335.532ZM288.323 335.1C288.315 334.596 288.135 334.192 287.783 333.888C287.431 333.584 286.995 333.432 286.475 333.432C286.003 333.432 285.599 333.584 285.263 333.888C284.927 334.184 284.727 334.588 284.663 335.1H288.323ZM293.497 339.108C292.977 339.108 292.509 339.016 292.093 338.832C291.685 338.64 291.361 338.384 291.121 338.064C290.881 337.736 290.753 337.372 290.737 336.972H292.153C292.177 337.252 292.309 337.488 292.549 337.68C292.797 337.864 293.105 337.956 293.473 337.956C293.857 337.956 294.153 337.884 294.361 337.74C294.577 337.588 294.685 337.396 294.685 337.164C294.685 336.916 294.565 336.732 294.325 336.612C294.093 336.492 293.721 336.36 293.209 336.216C292.713 336.08 292.309 335.948 291.997 335.82C291.685 335.692 291.413 335.496 291.181 335.232C290.957 334.968 290.845 334.62 290.845 334.188C290.845 333.836 290.949 333.516 291.157 333.228C291.365 332.932 291.661 332.7 292.045 332.532C292.437 332.364 292.885 332.28 293.389 332.28C294.141 332.28 294.745 332.472 295.201 332.856C295.665 333.232 295.913 333.748 295.945 334.404H294.577C294.553 334.108 294.433 333.872 294.217 333.696C294.001 333.52 293.709 333.432 293.341 333.432C292.981 333.432 292.705 333.5 292.513 333.636C292.321 333.772 292.225 333.952 292.225 334.176C292.225 334.352 292.289 334.5 292.417 334.62C292.545 334.74 292.701 334.836 292.885 334.908C293.069 334.972 293.341 335.056 293.701 335.16C294.181 335.288 294.573 335.42 294.877 335.556C295.189 335.684 295.457 335.876 295.681 336.132C295.905 336.388 296.021 336.728 296.029 337.152C296.029 337.528 295.925 337.864 295.717 338.16C295.509 338.456 295.213 338.688 294.829 338.856C294.453 339.024 294.009 339.108 293.497 339.108ZM299.907 339.108C299.387 339.108 298.919 339.016 298.503 338.832C298.095 338.64 297.771 338.384 297.531 338.064C297.291 337.736 297.163 337.372 297.147 336.972H298.563C298.587 337.252 298.719 337.488 298.959 337.68C299.207 337.864 299.515 337.956 299.883 337.956C300.267 337.956 300.563 337.884 300.771 337.74C300.987 337.588 301.095 337.396 301.095 337.164C301.095 336.916 300.975 336.732 300.735 336.612C300.503 336.492 300.131 336.36 299.619 336.216C299.123 336.08 298.719 335.948 298.407 335.82C298.095 335.692 297.823 335.496 297.591 335.232C297.367 334.968 297.255 334.62 297.255 334.188C297.255 333.836 297.359 333.516 297.567 333.228C297.775 332.932 298.071 332.7 298.455 332.532C298.847 332.364 299.295 332.28 299.799 332.28C300.551 332.28 301.155 332.472 301.611 332.856C302.075 333.232 302.323 333.748 302.355 334.404H300.987C300.963 334.108 300.843 333.872 300.627 333.696C300.411 333.52 300.119 333.432 299.751 333.432C299.391 333.432 299.115 333.5 298.923 333.636C298.731 333.772 298.635 333.952 298.635 334.176C298.635 334.352 298.699 334.5 298.827 334.62C298.955 334.74 299.111 334.836 299.295 334.908C299.479 334.972 299.751 335.056 300.111 335.16C300.591 335.288 300.983 335.42 301.287 335.556C301.599 335.684 301.867 335.876 302.091 336.132C302.315 336.388 302.431 336.728 302.439 337.152C302.439 337.528 302.335 337.864 302.127 338.16C301.919 338.456 301.623 338.688 301.239 338.856C300.863 339.024 300.419 339.108 299.907 339.108ZM304.47 339.084C304.222 339.084 304.014 339 303.846 338.832C303.678 338.664 303.594 338.456 303.594 338.208C303.594 337.96 303.678 337.752 303.846 337.584C304.014 337.416 304.222 337.332 304.47 337.332C304.71 337.332 304.914 337.416 305.082 337.584C305.25 337.752 305.334 337.96 305.334 338.208C305.334 338.456 305.25 338.664 305.082 338.832C304.914 339 304.71 339.084 304.47 339.084ZM307.364 339.084C307.116 339.084 306.908 339 306.74 338.832C306.572 338.664 306.488 338.456 306.488 338.208C306.488 337.96 306.572 337.752 306.74 337.584C306.908 337.416 307.116 337.332 307.364 337.332C307.604 337.332 307.808 337.416 307.976 337.584C308.144 337.752 308.228 337.96 308.228 338.208C308.228 338.456 308.144 338.664 307.976 338.832C307.808 339 307.604 339.084 307.364 339.084ZM310.259 339.084C310.011 339.084 309.803 339 309.635 338.832C309.467 338.664 309.383 338.456 309.383 338.208C309.383 337.96 309.467 337.752 309.635 337.584C309.803 337.416 310.011 337.332 310.259 337.332C310.499 337.332 310.703 337.416 310.871 337.584C311.039 337.752 311.123 337.96 311.123 338.208C311.123 338.456 311.039 338.664 310.871 338.832C310.703 339 310.499 339.084 310.259 339.084Z"></path>
<path fill="black" d="M167.278 31.112C166.531 31.112 165.859 30.984 165.262 30.728C164.665 30.4613 164.195 30.088 163.854 29.608C163.513 29.128 163.342 28.568 163.342 27.928H165.294C165.337 28.408 165.523 28.8027 165.854 29.112C166.195 29.4213 166.67 29.576 167.278 29.576C167.907 29.576 168.398 29.4267 168.75 29.128C169.102 28.8187 169.278 28.424 169.278 27.944C169.278 27.5707 169.166 27.2667 168.942 27.032C168.729 26.7973 168.457 26.616 168.126 26.488C167.806 26.36 167.358 26.2213 166.782 26.072C166.057 25.88 165.465 25.688 165.006 25.496C164.558 25.2933 164.174 24.984 163.854 24.568C163.534 24.152 163.374 23.5973 163.374 22.904C163.374 22.264 163.534 21.704 163.854 21.224C164.174 20.744 164.622 20.376 165.198 20.12C165.774 19.864 166.441 19.736 167.198 19.736C168.275 19.736 169.155 20.008 169.838 20.552C170.531 21.0853 170.915 21.8213 170.99 22.76H168.974C168.942 22.3547 168.75 22.008 168.398 21.72C168.046 21.432 167.582 21.288 167.006 21.288C166.483 21.288 166.057 21.4213 165.726 21.688C165.395 21.9547 165.23 22.3387 165.23 22.84C165.23 23.1813 165.331 23.464 165.534 23.688C165.747 23.9013 166.014 24.072 166.334 24.2C166.654 24.328 167.091 24.4667 167.646 24.616C168.382 24.8187 168.979 25.0213 169.438 25.224C169.907 25.4267 170.302 25.7413 170.622 26.168C170.953 26.584 171.118 27.144 171.118 27.848C171.118 28.4133 170.963 28.9467 170.654 29.448C170.355 29.9493 169.913 30.3547 169.326 30.664C168.75 30.9627 168.067 31.112 167.278 31.112ZM175.398 23.672V28.552C175.398 28.8827 175.473 29.1227 175.622 29.272C175.782 29.4107 176.049 29.48 176.422 29.48H177.542V31H176.102C175.281 31 174.652 30.808 174.214 30.424C173.777 30.04 173.558 29.416 173.558 28.552V23.672H172.518V22.184H173.558V19.992H175.398V22.184H177.542V23.672H175.398ZM178.615 26.552C178.615 25.6667 178.797 24.8827 179.159 24.2C179.533 23.5173 180.034 22.9893 180.663 22.616C181.303 22.232 182.007 22.04 182.775 22.04C183.469 22.04 184.071 22.1787 184.583 22.456C185.106 22.7227 185.522 23.0587 185.831 23.464V22.184H187.671V31H185.831V29.688C185.522 30.104 185.101 30.4507 184.567 30.728C184.034 31.0053 183.426 31.144 182.743 31.144C181.986 31.144 181.293 30.952 180.663 30.568C180.034 30.1733 179.533 29.6293 179.159 28.936C178.797 28.232 178.615 27.4373 178.615 26.552ZM185.831 26.584C185.831 25.976 185.703 25.448 185.447 25C185.202 24.552 184.877 24.2107 184.471 23.976C184.066 23.7413 183.629 23.624 183.159 23.624C182.69 23.624 182.253 23.7413 181.847 23.976C181.442 24.2 181.111 24.536 180.855 24.984C180.61 25.4213 180.487 25.944 180.487 26.552C180.487 27.16 180.61 27.6933 180.855 28.152C181.111 28.6107 181.442 28.9627 181.847 29.208C182.263 29.4427 182.701 29.56 183.159 29.56C183.629 29.56 184.066 29.4427 184.471 29.208C184.877 28.9733 185.202 28.632 185.447 28.184C185.703 27.7253 185.831 27.192 185.831 26.584ZM192.195 23.672V28.552C192.195 28.8827 192.27 29.1227 192.419 29.272C192.579 29.4107 192.846 29.48 193.219 29.48H194.339V31H192.899C192.078 31 191.449 30.808 191.011 30.424C190.574 30.04 190.355 29.416 190.355 28.552V23.672H189.315V22.184H190.355V19.992H192.195V22.184H194.339V23.672H192.195ZM204.004 22.184V31H202.18V29.96C201.892 30.3227 201.514 30.6107 201.044 30.824C200.586 31.0267 200.095 31.128 199.572 31.128C198.879 31.128 198.255 30.984 197.7 30.696C197.156 30.408 196.724 29.9813 196.404 29.416C196.095 28.8507 195.94 28.168 195.94 27.368V22.184H197.748V27.096C197.748 27.8853 197.946 28.4933 198.34 28.92C198.735 29.336 199.274 29.544 199.956 29.544C200.639 29.544 201.178 29.336 201.572 28.92C201.978 28.4933 202.18 27.8853 202.18 27.096V22.184H204.004ZM209.611 31.144C208.918 31.144 208.294 31.0213 207.739 30.776C207.195 30.52 206.763 30.1787 206.443 29.752C206.123 29.3147 205.952 28.8293 205.931 28.296H207.819C207.851 28.6693 208.027 28.984 208.347 29.24C208.678 29.4853 209.088 29.608 209.579 29.608C210.091 29.608 210.486 29.512 210.763 29.32C211.051 29.1173 211.195 28.8613 211.195 28.552C211.195 28.2213 211.035 27.976 210.715 27.816C210.406 27.656 209.91 27.48 209.227 27.288C208.566 27.1067 208.027 26.9307 207.611 26.76C207.195 26.5893 206.832 26.328 206.523 25.976C206.224 25.624 206.075 25.16 206.075 24.584C206.075 24.1147 206.214 23.688 206.491 23.304C206.768 22.9093 207.163 22.6 207.675 22.376C208.198 22.152 208.795 22.04 209.467 22.04C210.47 22.04 211.275 22.296 211.883 22.808C212.502 23.3093 212.832 23.9973 212.875 24.872H211.051C211.019 24.4773 210.859 24.1627 210.571 23.928C210.283 23.6933 209.894 23.576 209.403 23.576C208.923 23.576 208.555 23.6667 208.299 23.848C208.043 24.0293 207.915 24.2693 207.915 24.568C207.915 24.8027 208 25 208.171 25.16C208.342 25.32 208.55 25.448 208.795 25.544C209.04 25.6293 209.403 25.7413 209.883 25.88C210.523 26.0507 211.046 26.2267 211.451 26.408C211.867 26.5787 212.224 26.8347 212.523 27.176C212.822 27.5173 212.976 27.9707 212.987 28.536C212.987 29.0373 212.848 29.4853 212.571 29.88C212.294 30.2747 211.899 30.584 211.387 30.808C210.886 31.032 210.294 31.144 209.611 31.144ZM221.594 27.752C221.21 27.752 220.858 27.6613 220.538 27.48C220.229 27.288 219.978 27.0373 219.786 26.728C219.605 26.408 219.514 26.056 219.514 25.672C219.514 25.0853 219.717 24.5893 220.122 24.184C220.527 23.7787 221.018 23.576 221.594 23.576C222.191 23.576 222.693 23.7787 223.098 24.184C223.503 24.5893 223.706 25.0853 223.706 25.672C223.706 26.2587 223.503 26.7547 223.098 27.16C222.693 27.5547 222.191 27.752 221.594 27.752ZM230.053 25.416C230.053 24.328 230.304 23.352 230.805 22.488C231.317 21.624 232.005 20.952 232.869 20.472C233.744 19.9813 234.698 19.736 235.733 19.736C236.917 19.736 237.968 20.0293 238.885 20.616C239.813 21.192 240.485 22.0133 240.901 23.08H238.709C238.421 22.4933 238.021 22.056 237.509 21.768C236.997 21.48 236.405 21.336 235.733 21.336C234.997 21.336 234.341 21.5013 233.765 21.832C233.189 22.1627 232.736 22.6373 232.405 23.256C232.085 23.8747 231.925 24.5947 231.925 25.416C231.925 26.2373 232.085 26.9573 232.405 27.576C232.736 28.1947 233.189 28.6747 233.765 29.016C234.341 29.3467 234.997 29.512 235.733 29.512C236.405 29.512 236.997 29.368 237.509 29.08C238.021 28.792 238.421 28.3547 238.709 27.768H240.901C240.485 28.8347 239.813 29.656 238.885 30.232C237.968 30.808 236.917 31.096 235.733 31.096C234.688 31.096 233.733 30.856 232.869 30.376C232.005 29.8853 231.317 29.208 230.805 28.344C230.304 27.48 230.053 26.504 230.053 25.416ZM247.596 22.04C248.268 22.04 248.865 22.184 249.388 22.472C249.921 22.76 250.337 23.1867 250.636 23.752C250.945 24.3173 251.1 25 251.1 25.8V31H249.292V26.072C249.292 25.2827 249.095 24.68 248.7 24.264C248.305 23.8373 247.767 23.624 247.084 23.624C246.401 23.624 245.857 23.8373 245.452 24.264C245.057 24.68 244.86 25.2827 244.86 26.072V31H243.036V19.16H244.86V23.208C245.169 22.8347 245.559 22.5467 246.028 22.344C246.508 22.1413 247.031 22.04 247.596 22.04ZM261.507 26.376C261.507 26.7067 261.485 27.0053 261.443 27.272H254.707C254.76 27.976 255.021 28.5413 255.491 28.968C255.96 29.3947 256.536 29.608 257.219 29.608C258.2 29.608 258.893 29.1973 259.299 28.376H261.267C261 29.1867 260.515 29.8533 259.811 30.376C259.117 30.888 258.253 31.144 257.219 31.144C256.376 31.144 255.619 30.9573 254.947 30.584C254.285 30.2 253.763 29.6667 253.379 28.984C253.005 28.2907 252.819 27.4907 252.819 26.584C252.819 25.6773 253 24.8827 253.363 24.2C253.736 23.5067 254.253 22.9733 254.915 22.6C255.587 22.2267 256.355 22.04 257.219 22.04C258.051 22.04 258.792 22.2213 259.443 22.584C260.093 22.9467 260.6 23.4587 260.963 24.12C261.325 24.7707 261.507 25.5227 261.507 26.376ZM259.603 25.8C259.592 25.128 259.352 24.5893 258.883 24.184C258.413 23.7787 257.832 23.576 257.139 23.576C256.509 23.576 255.971 23.7787 255.523 24.184C255.075 24.5787 254.808 25.1173 254.723 25.8H259.603ZM262.694 26.584C262.694 25.6773 262.875 24.8827 263.238 24.2C263.611 23.5067 264.123 22.9733 264.774 22.6C265.424 22.2267 266.171 22.04 267.014 22.04C268.08 22.04 268.96 22.296 269.654 22.808C270.358 23.3093 270.832 24.0293 271.078 24.968H269.11C268.95 24.5307 268.694 24.1893 268.342 23.944C267.99 23.6987 267.547 23.576 267.014 23.576C266.267 23.576 265.67 23.8427 265.222 24.376C264.784 24.8987 264.566 25.6347 264.566 26.584C264.566 27.5333 264.784 28.2747 265.222 28.808C265.67 29.3413 266.267 29.608 267.014 29.608C268.07 29.608 268.768 29.144 269.11 28.216H271.078C270.822 29.112 270.342 29.8267 269.638 30.36C268.934 30.8827 268.059 31.144 267.014 31.144C266.171 31.144 265.424 30.9573 264.774 30.584C264.123 30.2 263.611 29.6667 263.238 28.984C262.875 28.2907 262.694 27.4907 262.694 26.584ZM276.383 26.6L280.447 31H277.983L274.719 27.208V31H272.895V19.16H274.719V26.04L277.919 22.184H280.447L276.383 26.6ZM282.683 21.016C282.352 21.016 282.075 20.904 281.851 20.68C281.627 20.456 281.515 20.1787 281.515 19.848C281.515 19.5173 281.627 19.24 281.851 19.016C282.075 18.792 282.352 18.68 282.683 18.68C283.003 18.68 283.275 18.792 283.499 19.016C283.723 19.24 283.835 19.5173 283.835 19.848C283.835 20.1787 283.723 20.456 283.499 20.68C283.275 20.904 283.003 21.016 282.683 21.016ZM283.579 22.184V31H281.755V22.184H283.579ZM290.421 22.04C291.115 22.04 291.733 22.184 292.277 22.472C292.832 22.76 293.264 23.1867 293.573 23.752C293.883 24.3173 294.037 25 294.037 25.8V31H292.229V26.072C292.229 25.2827 292.032 24.68 291.637 24.264C291.243 23.8373 290.704 23.624 290.021 23.624C289.339 23.624 288.795 23.8373 288.389 24.264C287.995 24.68 287.797 25.2827 287.797 26.072V31H285.973V22.184H287.797V23.192C288.096 22.8293 288.475 22.5467 288.933 22.344C289.403 22.1413 289.899 22.04 290.421 22.04ZM299.916 22.04C300.599 22.04 301.201 22.1787 301.724 22.456C302.257 22.7227 302.673 23.0587 302.972 23.464V22.184H304.812V31.144C304.812 31.9547 304.641 32.6747 304.3 33.304C303.959 33.944 303.463 34.4453 302.812 34.808C302.172 35.1707 301.404 35.352 300.508 35.352C299.313 35.352 298.321 35.0693 297.532 34.504C296.743 33.9493 296.295 33.192 296.188 32.232H297.996C298.135 32.6907 298.428 33.0587 298.876 33.336C299.335 33.624 299.879 33.768 300.508 33.768C301.244 33.768 301.836 33.544 302.284 33.096C302.743 32.648 302.972 31.9973 302.972 31.144V29.672C302.663 30.088 302.241 30.44 301.708 30.728C301.185 31.0053 300.588 31.144 299.916 31.144C299.148 31.144 298.444 30.952 297.804 30.568C297.175 30.1733 296.673 29.6293 296.3 28.936C295.937 28.232 295.756 27.4373 295.756 26.552C295.756 25.6667 295.937 24.8827 296.3 24.2C296.673 23.5173 297.175 22.9893 297.804 22.616C298.444 22.232 299.148 22.04 299.916 22.04ZM302.972 26.584C302.972 25.976 302.844 25.448 302.588 25C302.343 24.552 302.017 24.2107 301.612 23.976C301.207 23.7413 300.769 23.624 300.3 23.624C299.831 23.624 299.393 23.7413 298.988 23.976C298.583 24.2 298.252 24.536 297.996 24.984C297.751 25.4213 297.628 25.944 297.628 26.552C297.628 27.16 297.751 27.6933 297.996 28.152C298.252 28.6107 298.583 28.9627 298.988 29.208C299.404 29.4427 299.841 29.56 300.3 29.56C300.769 29.56 301.207 29.4427 301.612 29.208C302.017 28.9733 302.343 28.632 302.588 28.184C302.844 27.7253 302.972 27.192 302.972 26.584ZM307.944 31.112C307.613 31.112 307.336 31 307.112 30.776C306.888 30.552 306.776 30.2747 306.776 29.944C306.776 29.6133 306.888 29.336 307.112 29.112C307.336 28.888 307.613 28.776 307.944 28.776C308.264 28.776 308.536 28.888 308.76 29.112C308.984 29.336 309.096 29.6133 309.096 29.944C309.096 30.2747 308.984 30.552 308.76 30.776C308.536 31 308.264 31.112 307.944 31.112ZM311.803 31.112C311.473 31.112 311.195 31 310.971 30.776C310.747 30.552 310.635 30.2747 310.635 29.944C310.635 29.6133 310.747 29.336 310.971 29.112C311.195 28.888 311.473 28.776 311.803 28.776C312.123 28.776 312.395 28.888 312.619 29.112C312.843 29.336 312.955 29.6133 312.955 29.944C312.955 30.2747 312.843 30.552 312.619 30.776C312.395 31 312.123 31.112 311.803 31.112ZM315.663 31.112C315.332 31.112 315.055 31 314.831 30.776C314.607 30.552 314.495 30.2747 314.495 29.944C314.495 29.6133 314.607 29.336 314.831 29.112C315.055 28.888 315.332 28.776 315.663 28.776C315.983 28.776 316.255 28.888 316.479 29.112C316.703 29.336 316.815 29.6133 316.815 29.944C316.815 30.2747 316.703 30.552 316.479 30.776C316.255 31 315.983 31.112 315.663 31.112Z"></path>
<path fill="#B4B4B4" d="M247.884 171.194C246.279 168.413 247.231 164.857 250.012 163.252V163.252C252.793 161.646 256.349 162.599 257.954 165.38L267.162 181.328C274.419 193.897 270.112 209.969 257.543 217.225L256.665 217.732C245.804 224.003 231.917 220.282 225.646 209.421V209.421C219.591 198.933 223.185 185.522 233.673 179.467L237.239 177.408C240.048 175.786 243.64 176.749 245.261 179.558V179.558C246.883 182.367 245.921 185.959 243.112 187.58L238.733 190.108C234.255 192.694 232.721 198.419 235.306 202.897V202.897C238.56 208.532 245.765 210.462 251.4 207.209L251.828 206.962C258.748 202.966 261.119 194.118 257.124 187.198L247.884 171.194Z"></path>
<path fill="#B4B4B4" d="M202.937 170.086C201.315 167.277 202.277 163.685 205.086 162.063L238.215 142.937C241.024 141.315 244.616 142.277 246.238 145.086V145.086C247.86 147.895 246.897 151.487 244.088 153.109L210.959 172.236C208.15 173.858 204.558 172.895 202.937 170.086V170.086Z"></path>
</svg>
