<svg width="480" height="360" viewBox="0 0 480 360" fill="none" xmlns="http://www.w3.org/2000/svg">
<rect x="290" y="150" width="180" height="120" rx="15" fill="white" fill-opacity="0.5"/>
<path d="M377 200H383C384.105 200 385 200.895 385 202V208C385 209.105 384.105 210 383 210H377C375.895 210 375 209.105 375 208V202C375 200.895 375.895 200 377 200Z" stroke="black" stroke-width="2"/>
<path d="M416.53 200.26L422.756 204.152C423.383 204.544 423.383 205.456 422.756 205.848L416.53 209.74C415.864 210.156 415 209.677 415 208.892V201.108C415 200.323 415.864 199.844 416.53 200.26Z" stroke="black" stroke-width="2"/>
<rect x="424" y="199" width="2" height="12" rx="1" fill="black"/>
<path d="M343.47 209.74L337.244 205.848C336.617 205.456 336.617 204.544 337.244 204.152L343.47 200.26C344.136 199.844 345 200.323 345 201.108L345 208.892C345 209.677 344.136 210.156 343.47 209.74Z" stroke="black" stroke-width="2"/>
<rect x="336" y="211" width="2" height="12" rx="1" transform="rotate(180 336 211)" fill="black"/>
<path d="M366.469 171L364.869 168.22H363.999V171H362.859V164.05H365.259C365.793 164.05 366.243 164.143 366.609 164.33C366.983 164.517 367.259 164.767 367.439 165.08C367.626 165.393 367.719 165.743 367.719 166.13C367.719 166.583 367.586 166.997 367.319 167.37C367.059 167.737 366.656 167.987 366.109 168.12L367.829 171H366.469ZM363.999 167.31H365.259C365.686 167.31 366.006 167.203 366.219 166.99C366.439 166.777 366.549 166.49 366.549 166.13C366.549 165.77 366.443 165.49 366.229 165.29C366.016 165.083 365.693 164.98 365.259 164.98H363.999V167.31ZM368.798 168.22C368.798 167.667 368.911 167.177 369.138 166.75C369.371 166.323 369.684 165.993 370.078 165.76C370.478 165.52 370.918 165.4 371.398 165.4C371.831 165.4 372.208 165.487 372.528 165.66C372.854 165.827 373.114 166.037 373.308 166.29V165.49H374.458V171H373.308V170.18C373.114 170.44 372.851 170.657 372.518 170.83C372.184 171.003 371.804 171.09 371.378 171.09C370.904 171.09 370.471 170.97 370.078 170.73C369.684 170.483 369.371 170.143 369.138 169.71C368.911 169.27 368.798 168.773 368.798 168.22ZM373.308 168.24C373.308 167.86 373.228 167.53 373.068 167.25C372.914 166.97 372.711 166.757 372.458 166.61C372.204 166.463 371.931 166.39 371.638 166.39C371.344 166.39 371.071 166.463 370.818 166.61C370.564 166.75 370.358 166.96 370.198 167.24C370.044 167.513 369.968 167.84 369.968 168.22C369.968 168.6 370.044 168.933 370.198 169.22C370.358 169.507 370.564 169.727 370.818 169.88C371.078 170.027 371.351 170.1 371.638 170.1C371.931 170.1 372.204 170.027 372.458 169.88C372.711 169.733 372.914 169.52 373.068 169.24C373.228 168.953 373.308 168.62 373.308 168.24ZM378.175 165.4C378.602 165.4 378.978 165.487 379.305 165.66C379.638 165.827 379.898 166.037 380.085 166.29V165.49H381.235V171.09C381.235 171.597 381.128 172.047 380.915 172.44C380.702 172.84 380.392 173.153 379.985 173.38C379.585 173.607 379.105 173.72 378.545 173.72C377.798 173.72 377.178 173.543 376.685 173.19C376.192 172.843 375.912 172.37 375.845 171.77H376.975C377.062 172.057 377.245 172.287 377.525 172.46C377.812 172.64 378.152 172.73 378.545 172.73C379.005 172.73 379.375 172.59 379.655 172.31C379.942 172.03 380.085 171.623 380.085 171.09V170.17C379.892 170.43 379.628 170.65 379.295 170.83C378.968 171.003 378.595 171.09 378.175 171.09C377.695 171.09 377.255 170.97 376.855 170.73C376.462 170.483 376.148 170.143 375.915 169.71C375.688 169.27 375.575 168.773 375.575 168.22C375.575 167.667 375.688 167.177 375.915 166.75C376.148 166.323 376.462 165.993 376.855 165.76C377.255 165.52 377.695 165.4 378.175 165.4ZM380.085 168.24C380.085 167.86 380.005 167.53 379.845 167.25C379.692 166.97 379.488 166.757 379.235 166.61C378.982 166.463 378.708 166.39 378.415 166.39C378.122 166.39 377.848 166.463 377.595 166.61C377.342 166.75 377.135 166.96 376.975 167.24C376.822 167.513 376.745 167.84 376.745 168.22C376.745 168.6 376.822 168.933 376.975 169.22C377.135 169.507 377.342 169.727 377.595 169.88C377.855 170.027 378.128 170.1 378.415 170.1C378.708 170.1 378.982 170.027 379.235 169.88C379.488 169.733 379.692 169.52 379.845 169.24C380.005 168.953 380.085 168.62 380.085 168.24ZM383.312 164.76C383.106 164.76 382.932 164.69 382.792 164.55C382.652 164.41 382.582 164.237 382.582 164.03C382.582 163.823 382.652 163.65 382.792 163.51C382.932 163.37 383.106 163.3 383.312 163.3C383.512 163.3 383.682 163.37 383.822 163.51C383.962 163.65 384.032 163.823 384.032 164.03C384.032 164.237 383.962 164.41 383.822 164.55C383.682 164.69 383.512 164.76 383.312 164.76ZM383.872 165.49V171H382.732V165.49H383.872ZM388.149 165.4C388.582 165.4 388.969 165.49 389.309 165.67C389.656 165.85 389.926 166.117 390.119 166.47C390.312 166.823 390.409 167.25 390.409 167.75V171H389.279V167.92C389.279 167.427 389.156 167.05 388.909 166.79C388.662 166.523 388.326 166.39 387.899 166.39C387.472 166.39 387.132 166.523 386.879 166.79C386.632 167.05 386.509 167.427 386.509 167.92V171H385.369V165.49H386.509V166.12C386.696 165.893 386.932 165.717 387.219 165.59C387.512 165.463 387.822 165.4 388.149 165.4ZM394.083 165.4C394.51 165.4 394.887 165.487 395.213 165.66C395.547 165.827 395.807 166.037 395.993 166.29V165.49H397.143V171.09C397.143 171.597 397.037 172.047 396.823 172.44C396.61 172.84 396.3 173.153 395.893 173.38C395.493 173.607 395.013 173.72 394.453 173.72C393.707 173.72 393.087 173.543 392.593 173.19C392.1 172.843 391.82 172.37 391.753 171.77H392.883C392.97 172.057 393.153 172.287 393.433 172.46C393.72 172.64 394.06 172.73 394.453 172.73C394.913 172.73 395.283 172.59 395.563 172.31C395.85 172.03 395.993 171.623 395.993 171.09V170.17C395.8 170.43 395.537 170.65 395.203 170.83C394.877 171.003 394.503 171.09 394.083 171.09C393.603 171.09 393.163 170.97 392.763 170.73C392.37 170.483 392.057 170.143 391.823 169.71C391.597 169.27 391.483 168.773 391.483 168.22C391.483 167.667 391.597 167.177 391.823 166.75C392.057 166.323 392.37 165.993 392.763 165.76C393.163 165.52 393.603 165.4 394.083 165.4ZM395.993 168.24C395.993 167.86 395.913 167.53 395.753 167.25C395.6 166.97 395.397 166.757 395.143 166.61C394.89 166.463 394.617 166.39 394.323 166.39C394.03 166.39 393.757 166.463 393.503 166.61C393.25 166.75 393.043 166.96 392.883 167.24C392.73 167.513 392.653 167.84 392.653 168.22C392.653 168.6 392.73 168.933 392.883 169.22C393.043 169.507 393.25 169.727 393.503 169.88C393.763 170.027 394.037 170.1 394.323 170.1C394.617 170.1 394.89 170.027 395.143 169.88C395.397 169.733 395.6 169.52 395.753 169.24C395.913 168.953 395.993 168.62 395.993 168.24Z" fill="black"/>
<path d="M365.136 182.864H362.808L362.408 184H361.456L363.448 178.432H364.504L366.496 184H365.536L365.136 182.864ZM364.88 182.12L363.976 179.536L363.064 182.12H364.88ZM368.274 180.232C368.407 180.008 368.583 179.835 368.802 179.712C369.026 179.584 369.29 179.52 369.594 179.52V180.464H369.362C369.004 180.464 368.732 180.555 368.546 180.736C368.364 180.917 368.274 181.232 368.274 181.68V184H367.362V179.592H368.274V180.232ZM370.128 181.792C370.128 181.339 370.219 180.941 370.4 180.6C370.587 180.253 370.843 179.987 371.168 179.8C371.493 179.613 371.867 179.52 372.288 179.52C372.821 179.52 373.261 179.648 373.608 179.904C373.96 180.155 374.197 180.515 374.32 180.984H373.336C373.256 180.765 373.128 180.595 372.952 180.472C372.776 180.349 372.555 180.288 372.288 180.288C371.915 180.288 371.616 180.421 371.392 180.688C371.173 180.949 371.064 181.317 371.064 181.792C371.064 182.267 371.173 182.637 371.392 182.904C371.616 183.171 371.915 183.304 372.288 183.304C372.816 183.304 373.165 183.072 373.336 182.608H374.32C374.192 183.056 373.952 183.413 373.6 183.68C373.248 183.941 372.811 184.072 372.288 184.072C371.867 184.072 371.493 183.979 371.168 183.792C370.843 183.6 370.587 183.333 370.4 182.992C370.219 182.645 370.128 182.245 370.128 181.792ZM381.875 184H380.963L378.219 179.848V184H377.307V178.432H378.219L380.963 182.576V178.432H381.875V184ZM384.985 184.072C384.569 184.072 384.193 183.979 383.857 183.792C383.521 183.6 383.257 183.333 383.065 182.992C382.873 182.645 382.777 182.245 382.777 181.792C382.777 181.344 382.875 180.947 383.073 180.6C383.27 180.253 383.539 179.987 383.881 179.8C384.222 179.613 384.603 179.52 385.025 179.52C385.446 179.52 385.827 179.613 386.169 179.8C386.51 179.987 386.779 180.253 386.977 180.6C387.174 180.947 387.273 181.344 387.273 181.792C387.273 182.24 387.171 182.637 386.969 182.984C386.766 183.331 386.489 183.6 386.137 183.792C385.79 183.979 385.406 184.072 384.985 184.072ZM384.985 183.28C385.219 183.28 385.438 183.224 385.641 183.112C385.849 183 386.017 182.832 386.145 182.608C386.273 182.384 386.337 182.112 386.337 181.792C386.337 181.472 386.275 181.203 386.153 180.984C386.03 180.76 385.867 180.592 385.665 180.48C385.462 180.368 385.243 180.312 385.009 180.312C384.774 180.312 384.555 180.368 384.353 180.48C384.155 180.592 383.998 180.76 383.881 180.984C383.763 181.203 383.705 181.472 383.705 181.792C383.705 182.267 383.825 182.635 384.065 182.896C384.31 183.152 384.617 183.28 384.985 183.28ZM389.086 180.232C389.22 180.008 389.396 179.835 389.614 179.712C389.838 179.584 390.102 179.52 390.406 179.52V180.464H390.174C389.817 180.464 389.545 180.555 389.358 180.736C389.177 180.917 389.086 181.232 389.086 181.68V184H388.174V179.592H389.086V180.232ZM392.309 180.336V182.776C392.309 182.941 392.346 183.061 392.421 183.136C392.501 183.205 392.634 183.24 392.821 183.24H393.381V184H392.661C392.25 184 391.935 183.904 391.717 183.712C391.498 183.52 391.389 183.208 391.389 182.776V180.336H390.869V179.592H391.389V178.496H392.309V179.592H393.381V180.336H392.309ZM396.501 179.52C396.837 179.52 397.136 179.592 397.397 179.736C397.664 179.88 397.872 180.093 398.021 180.376C398.176 180.659 398.253 181 398.253 181.4V184H397.349V181.536C397.349 181.141 397.25 180.84 397.053 180.632C396.856 180.419 396.586 180.312 396.245 180.312C395.904 180.312 395.632 180.419 395.429 180.632C395.232 180.84 395.133 181.141 395.133 181.536V184H394.221V178.08H395.133V180.104C395.288 179.917 395.482 179.773 395.717 179.672C395.957 179.571 396.218 179.52 396.501 179.52Z" fill="#808080"/>
<rect x="305" y="235" width="150" height="20" rx="10" fill="black" fill-opacity="0.1"/>
</svg>
