<svg xmlns="http://www.w3.org/2000/svg" fill="none" viewBox="0 0 60 80" height="80" width="60">
<path fill="#808080" d="M20.5433 52C20.0153 52 19.5713 51.82 19.2113 51.46C18.8753 51.1 18.7073 50.668 18.7073 50.164C18.7073 49.66 18.8513 49.252 19.1393 48.94L38.0753 24.604C38.2913 24.364 38.5193 24.184 38.7593 24.064C39.0233 23.944 39.2873 23.884 39.5513 23.884C40.0793 23.884 40.5233 24.064 40.8833 24.424C41.2433 24.784 41.4233 25.216 41.4233 25.72C41.4233 26.128 41.2913 26.5 41.0273 26.836L21.9113 51.424C21.5513 51.808 21.0953 52 20.5433 52ZM22.7033 38.248C21.3833 38.248 20.1713 37.924 19.0673 37.276C17.9873 36.604 17.1233 35.728 16.4753 34.648C15.8273 33.568 15.5033 32.38 15.5033 31.084C15.5033 29.788 15.8273 28.6 16.4753 27.52C17.1233 26.416 17.9873 25.54 19.0673 24.892C20.1713 24.22 21.3833 23.884 22.7033 23.884C24.0233 23.884 25.2233 24.22 26.3033 24.892C27.3833 25.54 28.2473 26.416 28.8953 27.52C29.5433 28.6 29.8673 29.788 29.8673 31.084C29.8673 32.38 29.5433 33.568 28.8953 34.648C28.2473 35.728 27.3833 36.604 26.3033 37.276C25.2233 37.924 24.0233 38.248 22.7033 38.248ZM22.7033 34.576C23.3513 34.576 23.9393 34.42 24.4673 34.108C24.9953 33.796 25.4153 33.376 25.7273 32.848C26.0393 32.296 26.1953 31.708 26.1953 31.084C26.1953 30.436 26.0273 29.848 25.6913 29.32C25.3793 28.792 24.9593 28.372 24.4313 28.06C23.9033 27.724 23.3273 27.556 22.7033 27.556C22.0553 27.556 21.4553 27.724 20.9033 28.06C20.3753 28.372 19.9553 28.792 19.6433 29.32C19.3313 29.848 19.1753 30.436 19.1753 31.084C19.1753 31.708 19.3313 32.296 19.6433 32.848C19.9553 33.376 20.3753 33.796 20.9033 34.108C21.4553 34.42 22.0553 34.576 22.7033 34.576ZM37.3193 52C36.0233 52 34.8233 51.676 33.7193 51.028C32.6393 50.38 31.7753 49.516 31.1273 48.436C30.4793 47.332 30.1553 46.132 30.1553 44.836C30.1553 43.516 30.4793 42.316 31.1273 41.236C31.7753 40.156 32.6393 39.292 33.7193 38.644C34.7993 37.996 35.9993 37.672 37.3193 37.672C38.6153 37.672 39.8033 37.996 40.8833 38.644C41.9873 39.268 42.8633 40.12 43.5113 41.2C44.1833 42.28 44.5193 43.492 44.5193 44.836C44.5193 46.156 44.1833 47.356 43.5113 48.436C42.8633 49.516 41.9993 50.38 40.9193 51.028C39.8393 51.676 38.6393 52 37.3193 52ZM37.3193 48.328C37.9673 48.328 38.5553 48.172 39.0833 47.86C39.6353 47.548 40.0673 47.128 40.3793 46.6C40.6913 46.048 40.8473 45.46 40.8473 44.836C40.8473 44.188 40.6913 43.6 40.3793 43.072C40.0673 42.544 39.6353 42.124 39.0833 41.812C38.5553 41.5 37.9673 41.344 37.3193 41.344C36.6953 41.344 36.1073 41.5 35.5553 41.812C35.0273 42.124 34.6073 42.544 34.2953 43.072C33.9833 43.6 33.8273 44.188 33.8273 44.836C33.8273 45.46 33.9833 46.048 34.2953 46.6C34.6073 47.128 35.0273 47.548 35.5553 47.86C36.1073 48.172 36.6953 48.328 37.3193 48.328Z"></path>
<path fill="#808080" d="M19.2113 51.46L19.0284 51.6307L19.0345 51.6368L19.2113 51.46ZM19.1392 48.94L19.323 49.1096C19.3277 49.1044 19.3322 49.0991 19.3366 49.0935L19.1392 48.94ZM38.0753 24.604L37.8894 24.4368C37.8854 24.4412 37.8816 24.4458 37.8779 24.4505L38.0753 24.604ZM38.7593 24.064L38.6557 23.8363L38.6474 23.8404L38.7593 24.064ZM40.8833 24.424L41.06 24.2472V24.2472L40.8833 24.424ZM41.0273 26.836L40.8307 26.6815L40.8299 26.6826L41.0273 26.836ZM21.9113 51.424L22.0936 51.595C22.0989 51.5894 22.1039 51.5835 22.1086 51.5774L21.9113 51.424ZM19.0672 37.276L18.9351 37.4883L18.9407 37.4916L19.0672 37.276ZM16.4753 34.648L16.6896 34.5194L16.4753 34.648ZM16.4753 27.52L16.6896 27.6486L16.6909 27.6465L16.4753 27.52ZM19.0672 24.892L19.1959 25.1064L19.1972 25.1055L19.0672 24.892ZM26.3033 24.892L26.1712 25.1043L26.1746 25.1064L26.3033 24.892ZM28.8953 27.52L28.6796 27.6466L28.6809 27.6486L28.8953 27.52ZM28.8953 34.648L28.6809 34.5194L28.8953 34.648ZM26.3033 37.276L26.4319 37.4904L26.4353 37.4883L26.3033 37.276ZM24.4673 34.108L24.5944 34.3232L24.4673 34.108ZM25.7273 32.848L25.9425 32.9752L25.9449 32.971L25.7273 32.848ZM25.6912 29.32L25.4759 29.4473L25.4803 29.4542L25.6912 29.32ZM24.4312 28.06L24.297 28.271L24.3041 28.2752L24.4312 28.06ZM20.9032 28.06L21.0304 28.2752L21.0332 28.2735L20.9032 28.06ZM19.6432 29.32L19.428 29.1928L19.6432 29.32ZM19.6432 32.848L19.4256 32.971L19.428 32.9752L19.6432 32.848ZM20.9032 34.108L20.776 34.3233L20.7802 34.3256L20.9032 34.108ZM33.7193 51.028L33.5906 51.2424L33.5927 51.2436L33.7193 51.028ZM31.1273 48.436L30.9116 48.5626L30.9129 48.5646L31.1273 48.436ZM31.1273 41.236L30.9129 41.1074L31.1273 41.236ZM33.7193 38.644L33.8479 38.8584L33.7193 38.644ZM40.8833 38.644L40.7546 38.8584L40.7602 38.8616L40.8833 38.644ZM43.5113 41.2L43.2969 41.3286L43.299 41.3321L43.5113 41.2ZM43.5113 48.436L43.299 48.3039L43.2969 48.3074L43.5113 48.436ZM40.9193 51.028L40.7906 50.8136L40.9193 51.028ZM39.0833 47.86L38.9602 47.6423L38.9561 47.6448L39.0833 47.86ZM40.3793 46.6L40.5945 46.7272L40.5969 46.723L40.3793 46.6ZM40.3793 43.072L40.5945 42.9448L40.3793 43.072ZM39.0833 41.812L38.956 42.0273L38.9602 42.0296L39.0833 41.812ZM35.5553 41.812L35.4322 41.5943L35.4281 41.5968L35.5553 41.812ZM34.2952 46.6L34.0776 46.723L34.08 46.7272L34.2952 46.6ZM35.5553 47.86L35.428 48.0753L35.4322 48.0776L35.5553 47.86ZM20.5433 51.75C20.0788 51.75 19.6992 51.5944 19.388 51.2832L19.0345 51.6368C19.4433 52.0456 19.9517 52.25 20.5433 52.25V51.75ZM19.394 51.2894C19.1023 50.9769 18.9573 50.6063 18.9573 50.164H18.4573C18.4573 50.7297 18.6482 51.2231 19.0285 51.6306L19.394 51.2894ZM18.9573 50.164C18.9573 49.7104 19.0853 49.367 19.323 49.1096L18.9555 48.7704C18.6172 49.137 18.4573 49.6096 18.4573 50.164H18.9573ZM19.3366 49.0935L38.2726 24.7575L37.8779 24.4505L18.9419 48.7865L19.3366 49.0935ZM38.2611 24.7712C38.4603 24.5499 38.6641 24.3911 38.8711 24.2876L38.6474 23.8404C38.3744 23.9769 38.1222 24.1781 37.8894 24.4368L38.2611 24.7712ZM38.8627 24.2916C39.0974 24.1849 39.3263 24.134 39.5513 24.134V23.634C39.2482 23.634 38.9491 23.7031 38.6558 23.8364L38.8627 24.2916ZM39.5513 24.134C40.0157 24.134 40.3953 24.2896 40.7065 24.6008L41.06 24.2472C40.6512 23.8384 40.1428 23.634 39.5513 23.634V24.134ZM40.7065 24.6008C41.0201 24.9144 41.1733 25.2831 41.1733 25.72H41.6733C41.6733 25.1489 41.4664 24.6536 41.06 24.2472L40.7065 24.6008ZM41.1733 25.72C41.1733 26.0692 41.0618 26.3873 40.8307 26.6815L41.2238 26.9905C41.5207 26.6126 41.6733 26.1868 41.6733 25.72H41.1733ZM40.8299 26.6826L21.7139 51.2706L22.1086 51.5774L41.2246 26.9894L40.8299 26.6826ZM21.7289 51.253C21.4187 51.5839 21.0299 51.75 20.5433 51.75V52.25C21.1606 52.25 21.6838 52.0321 22.0936 51.595L21.7289 51.253ZM22.7033 37.998C21.4263 37.998 20.2582 37.6852 19.1938 37.0604L18.9407 37.4916C20.0843 38.1628 21.3402 38.498 22.7033 38.498V37.998ZM19.1993 37.0637C18.1527 36.4125 17.317 35.565 16.6896 34.5194L16.2609 34.7766C16.9295 35.891 17.8218 36.7955 18.9352 37.4883L19.1993 37.0637ZM16.6896 34.5194C16.0656 33.4794 15.7533 32.3361 15.7533 31.084H15.2533C15.2533 32.4239 15.5889 33.6566 16.2609 34.7766L16.6896 34.5194ZM15.7533 31.084C15.7533 29.8319 16.0656 28.6886 16.6896 27.6486L16.2609 27.3914C15.5889 28.5114 15.2533 29.7441 15.2533 31.084H15.7533ZM16.6909 27.6465C17.318 26.578 18.1524 25.7325 19.1959 25.1064L18.9386 24.6776C17.8221 25.3475 16.9285 26.254 16.2596 27.3934L16.6909 27.6465ZM19.1972 25.1055C20.2612 24.4579 21.4281 24.134 22.7033 24.134V23.634C21.3384 23.634 20.0813 23.9821 18.9373 24.6784L19.1972 25.1055ZM22.7033 24.134C23.9784 24.134 25.1324 24.4579 26.1712 25.1043L26.4353 24.6797C25.3141 23.9821 24.0681 23.634 22.7033 23.634V24.134ZM26.1746 25.1064C27.2181 25.7325 28.0525 26.578 28.6796 27.6465L29.1109 27.3934C28.442 26.254 27.5484 25.3475 26.4319 24.6776L26.1746 25.1064ZM28.6809 27.6486C29.3049 28.6886 29.6173 29.8319 29.6173 31.084H30.1173C30.1173 29.7441 29.7816 28.5114 29.1096 27.3914L28.6809 27.6486ZM29.6173 31.084C29.6173 32.3361 29.3049 33.4794 28.6809 34.5194L29.1096 34.7766C29.7816 33.6566 30.1173 32.4239 30.1173 31.084H29.6173ZM28.6809 34.5194C28.0535 35.565 27.2178 36.4125 26.1712 37.0637L26.4353 37.4883C27.5487 36.7955 28.441 35.891 29.1096 34.7766L28.6809 34.5194ZM26.1746 37.0616C25.1354 37.6852 23.9802 37.998 22.7033 37.998V38.498C24.0663 38.498 25.3111 38.1628 26.4319 37.4904L26.1746 37.0616ZM22.7033 34.826C23.3934 34.826 24.0257 34.6593 24.5944 34.3232L24.3401 33.8928C23.8528 34.1807 23.3091 34.326 22.7033 34.326V34.826ZM24.5944 34.3232C25.1587 33.9898 25.609 33.5395 25.9425 32.9752L25.512 32.7208C25.2215 33.2125 24.8318 33.6022 24.3401 33.8928L24.5944 34.3232ZM25.9449 32.971C26.2777 32.3821 26.4452 31.7518 26.4452 31.084H25.9452C25.9452 31.6642 25.8008 32.2099 25.5096 32.725L25.9449 32.971ZM26.4452 31.084C26.4452 30.3902 26.2646 29.7554 25.9022 29.1858L25.4803 29.4542C25.7899 29.9406 25.9452 30.4818 25.9452 31.084H26.4452ZM25.9065 29.1928C25.573 28.6285 25.1227 28.1782 24.5584 27.8448L24.3041 28.2752C24.7958 28.5658 25.1855 28.9555 25.476 29.4472L25.9065 29.1928ZM24.5655 27.8491C23.9975 27.4876 23.3749 27.306 22.7033 27.306V27.806C23.2796 27.806 23.809 27.9604 24.297 28.2709L24.5655 27.8491ZM22.7033 27.306C22.0095 27.306 21.3645 27.4865 20.7733 27.8464L21.0332 28.2735C21.546 27.9615 22.101 27.806 22.7033 27.806V27.306ZM20.7761 27.8448C20.2118 28.1782 19.7615 28.6285 19.428 29.1928L19.8585 29.4472C20.149 28.9555 20.5387 28.5658 21.0304 28.2752L20.7761 27.8448ZM19.428 29.1928C19.092 29.7615 18.9253 30.3939 18.9253 31.084H19.4253C19.4253 30.4781 19.5705 29.9345 19.8585 29.4472L19.428 29.1928ZM18.9253 31.084C18.9253 31.7518 19.0928 32.3821 19.4256 32.971L19.8609 32.725C19.5697 32.2099 19.4253 31.6642 19.4253 31.084H18.9253ZM19.428 32.9752C19.7615 33.5395 20.2118 33.9898 20.7761 34.3232L21.0304 33.8928C20.5387 33.6022 20.149 33.2125 19.8585 32.7208L19.428 32.9752ZM20.7802 34.3256C21.3706 34.6593 22.0131 34.826 22.7033 34.826V34.326C22.0974 34.326 21.5399 34.1807 21.0263 33.8904L20.7802 34.3256ZM37.3193 51.75C36.0672 51.75 34.9109 51.4376 33.8458 50.8124L33.5927 51.2436C34.7356 51.9144 35.9793 52.25 37.3193 52.25V51.75ZM33.8479 50.8136C32.8031 50.1867 31.9685 49.3522 31.3416 48.3074L30.9129 48.5646C31.582 49.6798 32.4754 50.5733 33.5906 51.2424L33.8479 50.8136ZM31.3429 48.3094C30.7177 47.2443 30.4053 46.0881 30.4053 44.836H29.9053C29.9053 46.1759 30.2408 47.4197 30.9116 48.5625L31.3429 48.3094ZM30.4053 44.836C30.4053 43.559 30.7181 42.4039 31.3416 41.3646L30.9129 41.1074C30.2404 42.2281 29.9053 43.473 29.9053 44.836H30.4053ZM31.3416 41.3646C31.9685 40.3198 32.8031 39.4853 33.8479 38.8584L33.5906 38.4296C32.4754 39.0987 31.582 39.9922 30.9129 41.1074L31.3416 41.3646ZM33.8479 38.8584C34.8871 38.2348 36.0423 37.922 37.3193 37.922V37.422C35.9562 37.422 34.7114 37.7572 33.5906 38.4296L33.8479 38.8584ZM37.3193 37.922C38.5713 37.922 39.7146 38.2344 40.7546 38.8584L41.0119 38.4296C39.8919 37.7576 38.6592 37.422 37.3193 37.422V37.922ZM40.7602 38.8616C41.8269 39.4645 42.6713 40.286 43.2969 41.3286L43.7256 41.0714C43.0552 39.954 42.1476 39.0715 41.0063 38.4264L40.7602 38.8616ZM43.299 41.3321C43.9449 42.3702 44.2693 43.5359 44.2693 44.836H44.7693C44.7693 43.4481 44.4216 42.1898 43.7235 41.0679L43.299 41.3321ZM44.2693 44.836C44.2693 46.1112 43.9454 47.2651 43.299 48.3039L43.7235 48.5681C44.4211 47.4469 44.7693 46.2008 44.7693 44.836H44.2693ZM43.2969 48.3074C42.67 49.3522 41.8354 50.1867 40.7906 50.8136L41.0479 51.2424C42.1631 50.5733 43.0565 49.6798 43.7256 48.5646L43.2969 48.3074ZM40.7906 50.8136C39.7514 51.4372 38.5962 51.75 37.3193 51.75V52.25C38.6823 52.25 39.9271 51.9148 41.0479 51.2424L40.7906 50.8136ZM37.3193 48.578C38.0094 48.578 38.6417 48.4113 39.2104 48.0752L38.9561 47.6448C38.4688 47.9327 37.9251 48.078 37.3193 48.078V48.578ZM39.2063 48.0776C39.795 47.7449 40.2594 47.2942 40.5945 46.7272L40.164 46.4728C39.8751 46.9618 39.4755 47.3512 38.9602 47.6424L39.2063 48.0776ZM40.5969 46.723C40.9297 46.1341 41.0973 45.5038 41.0973 44.836H40.5973C40.5973 45.4162 40.4528 45.9619 40.1616 46.477L40.5969 46.723ZM41.0973 44.836C41.0973 44.1459 40.9305 43.5135 40.5945 42.9448L40.164 43.1992C40.452 43.6865 40.5973 44.2301 40.5973 44.836H41.0973ZM40.5945 42.9448C40.2594 42.3778 39.795 41.9272 39.2063 41.5944L38.9602 42.0296C39.4755 42.3209 39.8751 42.7102 40.164 43.1992L40.5945 42.9448ZM39.2104 41.5968C38.6417 41.2607 38.0094 41.094 37.3193 41.094V41.594C37.9251 41.594 38.4688 41.7393 38.9561 42.0272L39.2104 41.5968ZM37.3193 41.094C36.6514 41.094 36.0211 41.2615 35.4322 41.5944L35.6783 42.0296C36.1934 41.7385 36.7391 41.594 37.3193 41.594V41.094ZM35.4281 41.5968C34.8638 41.9302 34.4135 42.3805 34.08 42.9448L34.5105 43.1992C34.801 42.7075 35.1907 42.3178 35.6824 42.0272L35.4281 41.5968ZM34.08 42.9448C33.744 43.5135 33.5773 44.1459 33.5773 44.836H34.0773C34.0773 44.2301 34.2225 43.6865 34.5105 43.1992L34.08 42.9448ZM33.5773 44.836C33.5773 45.5038 33.7448 46.1341 34.0776 46.723L34.5129 46.477C34.2217 45.9619 34.0773 45.4162 34.0773 44.836H33.5773ZM34.08 46.7272C34.4135 47.2915 34.8638 47.7418 35.4281 48.0752L35.6824 47.6448C35.1907 47.3542 34.801 46.9645 34.5105 46.4728L34.08 46.7272ZM35.4322 48.0776C36.0211 48.4105 36.6514 48.578 37.3193 48.578V48.078C36.7391 48.078 36.1934 47.9335 35.6783 47.6424L35.4322 48.0776Z"></path>
</svg>
