<svg xmlns="http://www.w3.org/2000/svg" fill="none" viewBox="0 0 300 40" height="40" width="300">
<rect fill-opacity="0.1" fill="white" rx="15" height="40" width="300"></rect>
<path fill="white" d="M49.684 15.66V24H48.316V18.288L45.772 24H44.824L42.268 18.288V24H40.9V15.66H42.376L45.304 22.2L48.22 15.66H49.684ZM57.47 17.388V24H56.102V23.22C55.886 23.492 55.602 23.708 55.25 23.868C54.906 24.02 54.538 24.096 54.146 24.096C53.626 24.096 53.158 23.988 52.742 23.772C52.334 23.556 52.01 23.236 51.77 22.812C51.538 22.388 51.422 21.876 51.422 21.276V17.388H52.778V21.072C52.778 21.664 52.926 22.12 53.222 22.44C53.518 22.752 53.922 22.908 54.434 22.908C54.946 22.908 55.35 22.752 55.646 22.44C55.95 22.12 56.102 21.664 56.102 21.072V17.388H57.47ZM61.675 24.108C61.155 24.108 60.687 24.016 60.271 23.832C59.863 23.64 59.539 23.384 59.299 23.064C59.059 22.736 58.931 22.372 58.915 21.972H60.331C60.355 22.252 60.487 22.488 60.727 22.68C60.975 22.864 61.283 22.956 61.651 22.956C62.035 22.956 62.331 22.884 62.539 22.74C62.755 22.588 62.863 22.396 62.863 22.164C62.863 21.916 62.743 21.732 62.503 21.612C62.271 21.492 61.899 21.36 61.387 21.216C60.891 21.08 60.487 20.948 60.175 20.82C59.863 20.692 59.591 20.496 59.359 20.232C59.135 19.968 59.023 19.62 59.023 19.188C59.023 18.836 59.127 18.516 59.335 18.228C59.543 17.932 59.839 17.7 60.223 17.532C60.615 17.364 61.063 17.28 61.567 17.28C62.319 17.28 62.923 17.472 63.379 17.856C63.843 18.232 64.091 18.748 64.123 19.404H62.755C62.731 19.108 62.611 18.872 62.395 18.696C62.179 18.52 61.887 18.432 61.519 18.432C61.159 18.432 60.883 18.5 60.691 18.636C60.499 18.772 60.403 18.952 60.403 19.176C60.403 19.352 60.467 19.5 60.595 19.62C60.723 19.74 60.879 19.836 61.063 19.908C61.247 19.972 61.519 20.056 61.879 20.16C62.359 20.288 62.751 20.42 63.055 20.556C63.367 20.684 63.635 20.876 63.859 21.132C64.083 21.388 64.199 21.728 64.207 22.152C64.207 22.528 64.103 22.864 63.895 23.16C63.687 23.456 63.391 23.688 63.007 23.856C62.631 24.024 62.187 24.108 61.675 24.108ZM66.3812 16.512C66.1332 16.512 65.9252 16.428 65.7572 16.26C65.5892 16.092 65.5052 15.884 65.5052 15.636C65.5052 15.388 65.5892 15.18 65.7572 15.012C65.9252 14.844 66.1332 14.76 66.3812 14.76C66.6212 14.76 66.8252 14.844 66.9932 15.012C67.1612 15.18 67.2452 15.388 67.2452 15.636C67.2452 15.884 67.1612 16.092 66.9932 16.26C66.8252 16.428 66.6212 16.512 66.3812 16.512ZM67.0532 17.388V24H65.6852V17.388H67.0532ZM68.3932 20.688C68.3932 20.008 68.5292 19.412 68.8012 18.9C69.0812 18.38 69.4652 17.98 69.9532 17.7C70.4412 17.42 71.0012 17.28 71.6332 17.28C72.4332 17.28 73.0932 17.472 73.6132 17.856C74.1412 18.232 74.4972 18.772 74.6812 19.476H73.2052C73.0852 19.148 72.8932 18.892 72.6292 18.708C72.3652 18.524 72.0332 18.432 71.6332 18.432C71.0732 18.432 70.6252 18.632 70.2892 19.032C69.9612 19.424 69.7972 19.976 69.7972 20.688C69.7972 21.4 69.9612 21.956 70.2892 22.356C70.6252 22.756 71.0732 22.956 71.6332 22.956C72.4252 22.956 72.9492 22.608 73.2052 21.912H74.6812C74.4892 22.584 74.1292 23.12 73.6012 23.52C73.0732 23.912 72.4172 24.108 71.6332 24.108C71.0012 24.108 70.4412 23.968 69.9532 23.688C69.4652 23.4 69.0812 23 68.8012 22.488C68.5292 21.968 68.3932 21.368 68.3932 20.688ZM87.9457 15.66V24H86.5777V18.288L84.0337 24H83.0857L80.5297 18.288V24H79.1617V15.66H80.6377L83.5657 22.2L86.4817 15.66H87.9457ZM89.2878 20.664C89.2878 20 89.4238 19.412 89.6958 18.9C89.9758 18.388 90.3518 17.992 90.8238 17.712C91.3038 17.424 91.8318 17.28 92.4078 17.28C92.9278 17.28 93.3798 17.384 93.7638 17.592C94.1558 17.792 94.4678 18.044 94.6998 18.348V17.388H96.0798V24H94.6998V23.016C94.4678 23.328 94.1518 23.588 93.7518 23.796C93.3518 24.004 92.8958 24.108 92.3838 24.108C91.8158 24.108 91.2958 23.964 90.8238 23.676C90.3518 23.38 89.9758 22.972 89.6958 22.452C89.4238 21.924 89.2878 21.328 89.2878 20.664ZM94.6998 20.688C94.6998 20.232 94.6038 19.836 94.4118 19.5C94.2278 19.164 93.9838 18.908 93.6798 18.732C93.3758 18.556 93.0478 18.468 92.6958 18.468C92.3438 18.468 92.0158 18.556 91.7118 18.732C91.4078 18.9 91.1598 19.152 90.9678 19.488C90.7838 19.816 90.6918 20.208 90.6918 20.664C90.6918 21.12 90.7838 21.52 90.9678 21.864C91.1598 22.208 91.4078 22.472 91.7118 22.656C92.0238 22.832 92.3518 22.92 92.6958 22.92C93.0478 22.92 93.3758 22.832 93.6798 22.656C93.9838 22.48 94.2278 22.224 94.4118 21.888C94.6038 21.544 94.6998 21.144 94.6998 20.688ZM100.493 20.7L103.541 24H101.693L99.2446 21.156V24H97.8766V15.12H99.2446V20.28L101.645 17.388H103.541L100.493 20.7ZM110.581 20.532C110.581 20.78 110.565 21.004 110.533 21.204H105.481C105.521 21.732 105.717 22.156 106.069 22.476C106.421 22.796 106.853 22.956 107.365 22.956C108.101 22.956 108.621 22.648 108.925 22.032H110.401C110.201 22.64 109.837 23.14 109.309 23.532C108.789 23.916 108.141 24.108 107.365 24.108C106.733 24.108 106.165 23.968 105.661 23.688C105.165 23.4 104.773 23 104.485 22.488C104.205 21.968 104.065 21.368 104.065 20.688C104.065 20.008 104.201 19.412 104.473 18.9C104.753 18.38 105.141 17.98 105.637 17.7C106.141 17.42 106.717 17.28 107.365 17.28C107.989 17.28 108.545 17.416 109.033 17.688C109.521 17.96 109.901 18.344 110.173 18.84C110.445 19.328 110.581 19.892 110.581 20.532ZM109.153 20.1C109.145 19.596 108.965 19.192 108.613 18.888C108.261 18.584 107.825 18.432 107.305 18.432C106.833 18.432 106.429 18.584 106.093 18.888C105.757 19.184 105.557 19.588 105.493 20.1H109.153ZM113.295 18.348C113.495 18.012 113.759 17.752 114.087 17.568C114.423 17.376 114.819 17.28 115.275 17.28V18.696H114.927C114.391 18.696 113.983 18.832 113.703 19.104C113.431 19.376 113.295 19.848 113.295 20.52V24H111.927V17.388H113.295V18.348ZM121.51 21.564C121.222 21.564 120.958 21.496 120.718 21.36C120.486 21.216 120.298 21.028 120.154 20.796C120.018 20.556 119.95 20.292 119.95 20.004C119.95 19.564 120.102 19.192 120.406 18.888C120.71 18.584 121.078 18.432 121.51 18.432C121.958 18.432 122.334 18.584 122.638 18.888C122.942 19.192 123.094 19.564 123.094 20.004C123.094 20.444 122.942 20.816 122.638 21.12C122.334 21.416 121.958 21.564 121.51 21.564ZM133.338 22.296H129.846L129.246 24H127.818L130.806 15.648H132.39L135.378 24H133.938L133.338 22.296ZM132.954 21.18L131.598 17.304L130.23 21.18H132.954ZM138.045 18.36C138.277 18.056 138.593 17.8 138.993 17.592C139.393 17.384 139.845 17.28 140.349 17.28C140.925 17.28 141.449 17.424 141.921 17.712C142.401 17.992 142.777 18.388 143.049 18.9C143.321 19.412 143.457 20 143.457 20.664C143.457 21.328 143.321 21.924 143.049 22.452C142.777 22.972 142.401 23.38 141.921 23.676C141.449 23.964 140.925 24.108 140.349 24.108C139.845 24.108 139.397 24.008 139.005 23.808C138.613 23.6 138.293 23.344 138.045 23.04V27.144H136.677V17.388H138.045V18.36ZM142.065 20.664C142.065 20.208 141.969 19.816 141.777 19.488C141.593 19.152 141.345 18.9 141.033 18.732C140.729 18.556 140.401 18.468 140.049 18.468C139.705 18.468 139.377 18.556 139.065 18.732C138.761 18.908 138.513 19.164 138.321 19.5C138.137 19.836 138.045 20.232 138.045 20.688C138.045 21.144 138.137 21.544 138.321 21.888C138.513 22.224 138.761 22.48 139.065 22.656C139.377 22.832 139.705 22.92 140.049 22.92C140.401 22.92 140.729 22.832 141.033 22.656C141.345 22.472 141.593 22.208 141.777 21.864C141.969 21.52 142.065 21.12 142.065 20.664ZM146.178 18.36C146.41 18.056 146.726 17.8 147.126 17.592C147.526 17.384 147.978 17.28 148.482 17.28C149.058 17.28 149.582 17.424 150.054 17.712C150.534 17.992 150.91 18.388 151.182 18.9C151.454 19.412 151.59 20 151.59 20.664C151.59 21.328 151.454 21.924 151.182 22.452C150.91 22.972 150.534 23.38 150.054 23.676C149.582 23.964 149.058 24.108 148.482 24.108C147.978 24.108 147.53 24.008 147.138 23.808C146.746 23.6 146.426 23.344 146.178 23.04V27.144H144.81V17.388H146.178V18.36ZM150.198 20.664C150.198 20.208 150.102 19.816 149.91 19.488C149.726 19.152 149.478 18.9 149.166 18.732C148.862 18.556 148.534 18.468 148.182 18.468C147.838 18.468 147.51 18.556 147.198 18.732C146.894 18.908 146.646 19.164 146.454 19.5C146.27 19.836 146.178 20.232 146.178 20.688C146.178 21.144 146.27 21.544 146.454 21.888C146.646 22.224 146.894 22.48 147.198 22.656C147.51 22.832 147.838 22.92 148.182 22.92C148.534 22.92 148.862 22.832 149.166 22.656C149.478 22.472 149.726 22.208 149.91 21.864C150.102 21.52 150.198 21.12 150.198 20.664Z"></path>
<rect stroke-width="2" stroke="white" rx="3" height="6" width="6" y="19" x="13"></rect>
<path fill="white" d="M18 17C18 15.3431 19.3431 14 21 14V14C21.5523 14 22 14.4477 22 15V15C22 15.5523 21.5523 16 21 16V16C20.4477 16 20 16.4477 20 17V22H18V17Z"></path>
<rect fill="white" height="9" width="4" y="15" x="24"></rect>
<path fill="white" d="M28 25L24 25L25.1679 26.7519C25.5638 27.3457 26.4362 27.3457 26.832 26.7519L28 25Z"></path>
<path fill="white" d="M24 13C24 12.4477 24.4477 12 25 12L27 12C27.5523 12 28 12.4477 28 13L28 14L24 14L24 13Z"></path>
</svg>
