<svg width="480" height="360" viewBox="0 0 480 360" fill="none" xmlns="http://www.w3.org/2000/svg">
<path d="M178.384 19.88V21.368H175.424V31H173.6V21.368H170.624V19.88H178.384ZM181.159 21.016C180.829 21.016 180.551 20.904 180.327 20.68C180.103 20.456 179.991 20.1787 179.991 19.848C179.991 19.5173 180.103 19.24 180.327 19.016C180.551 18.792 180.829 18.68 181.159 18.68C181.479 18.68 181.751 18.792 181.975 19.016C182.199 19.24 182.311 19.5173 182.311 19.848C182.311 20.1787 182.199 20.456 181.975 20.68C181.751 20.904 181.479 21.016 181.159 21.016ZM182.055 22.184V31H180.231V22.184H182.055ZM195.122 22.04C195.815 22.04 196.434 22.184 196.978 22.472C197.533 22.76 197.965 23.1867 198.274 23.752C198.594 24.3173 198.754 25 198.754 25.8V31H196.946V26.072C196.946 25.2827 196.749 24.68 196.354 24.264C195.959 23.8373 195.421 23.624 194.738 23.624C194.055 23.624 193.511 23.8373 193.106 24.264C192.711 24.68 192.514 25.2827 192.514 26.072V31H190.706V26.072C190.706 25.2827 190.509 24.68 190.114 24.264C189.719 23.8373 189.181 23.624 188.498 23.624C187.815 23.624 187.271 23.8373 186.866 24.264C186.471 24.68 186.274 25.2827 186.274 26.072V31H184.45V22.184H186.274V23.192C186.573 22.8293 186.951 22.5467 187.41 22.344C187.869 22.1413 188.359 22.04 188.882 22.04C189.586 22.04 190.215 22.1893 190.77 22.488C191.325 22.7867 191.751 23.2187 192.05 23.784C192.317 23.2507 192.733 22.8293 193.298 22.52C193.863 22.2 194.471 22.04 195.122 22.04ZM209.155 26.376C209.155 26.7067 209.134 27.0053 209.091 27.272H202.355C202.408 27.976 202.67 28.5413 203.139 28.968C203.608 29.3947 204.184 29.608 204.867 29.608C205.848 29.608 206.542 29.1973 206.947 28.376H208.915C208.648 29.1867 208.163 29.8533 207.459 30.376C206.766 30.888 205.902 31.144 204.867 31.144C204.024 31.144 203.267 30.9573 202.595 30.584C201.934 30.2 201.411 29.6667 201.027 28.984C200.654 28.2907 200.467 27.4907 200.467 26.584C200.467 25.6773 200.648 24.8827 201.011 24.2C201.384 23.5067 201.902 22.9733 202.563 22.6C203.235 22.2267 204.003 22.04 204.867 22.04C205.699 22.04 206.44 22.2213 207.091 22.584C207.742 22.9467 208.248 23.4587 208.611 24.12C208.974 24.7707 209.155 25.5227 209.155 26.376ZM207.251 25.8C207.24 25.128 207 24.5893 206.531 24.184C206.062 23.7787 205.48 23.576 204.787 23.576C204.158 23.576 203.619 23.7787 203.171 24.184C202.723 24.5787 202.456 25.1173 202.371 25.8H207.251ZM212.774 23.464C213.041 23.016 213.393 22.6693 213.83 22.424C214.278 22.168 214.806 22.04 215.414 22.04V23.928H214.95C214.235 23.928 213.691 24.1093 213.318 24.472C212.955 24.8347 212.774 25.464 212.774 26.36V31H210.95V22.184H212.774V23.464Z" fill="black"/>
<rect x="205" y="145" width="60" height="70" rx="15" fill="black" fill-opacity="0.1"/>
<path d="M224.328 198.4C224.748 198.4 225.121 198.49 225.448 198.67C225.781 198.85 226.041 199.117 226.228 199.47C226.421 199.823 226.518 200.25 226.518 200.75V204H225.388V200.92C225.388 200.427 225.264 200.05 225.018 199.79C224.771 199.523 224.434 199.39 224.008 199.39C223.581 199.39 223.241 199.523 222.988 199.79C222.741 200.05 222.618 200.427 222.618 200.92V204H221.478V196.6H222.618V199.13C222.811 198.897 223.054 198.717 223.348 198.59C223.648 198.463 223.974 198.4 224.328 198.4ZM230.362 204.09C229.842 204.09 229.372 203.973 228.952 203.74C228.532 203.5 228.202 203.167 227.962 202.74C227.722 202.307 227.602 201.807 227.602 201.24C227.602 200.68 227.725 200.183 227.972 199.75C228.218 199.317 228.555 198.983 228.982 198.75C229.408 198.517 229.885 198.4 230.412 198.4C230.938 198.4 231.415 198.517 231.842 198.75C232.268 198.983 232.605 199.317 232.852 199.75C233.098 200.183 233.222 200.68 233.222 201.24C233.222 201.8 233.095 202.297 232.842 202.73C232.588 203.163 232.242 203.5 231.802 203.74C231.368 203.973 230.888 204.09 230.362 204.09ZM230.362 203.1C230.655 203.1 230.928 203.03 231.182 202.89C231.442 202.75 231.652 202.54 231.812 202.26C231.972 201.98 232.052 201.64 232.052 201.24C232.052 200.84 231.975 200.503 231.822 200.23C231.668 199.95 231.465 199.74 231.212 199.6C230.958 199.46 230.685 199.39 230.392 199.39C230.098 199.39 229.825 199.46 229.572 199.6C229.325 199.74 229.128 199.95 228.982 200.23C228.835 200.503 228.762 200.84 228.762 201.24C228.762 201.833 228.912 202.293 229.212 202.62C229.518 202.94 229.902 203.1 230.362 203.1ZM239.339 198.49V204H238.199V203.35C238.019 203.577 237.782 203.757 237.489 203.89C237.202 204.017 236.895 204.08 236.569 204.08C236.135 204.08 235.745 203.99 235.399 203.81C235.059 203.63 234.789 203.363 234.589 203.01C234.395 202.657 234.299 202.23 234.299 201.73V198.49H235.429V201.56C235.429 202.053 235.552 202.433 235.799 202.7C236.045 202.96 236.382 203.09 236.809 203.09C237.235 203.09 237.572 202.96 237.819 202.7C238.072 202.433 238.199 202.053 238.199 201.56V198.49H239.339ZM241.983 199.29C242.149 199.01 242.369 198.793 242.643 198.64C242.923 198.48 243.253 198.4 243.633 198.4V199.58H243.343C242.896 199.58 242.556 199.693 242.323 199.92C242.096 200.147 241.983 200.54 241.983 201.1V204H240.843V198.49H241.983V199.29ZM246.681 204.09C246.247 204.09 245.857 204.013 245.511 203.86C245.171 203.7 244.901 203.487 244.701 203.22C244.501 202.947 244.394 202.643 244.381 202.31H245.561C245.581 202.543 245.691 202.74 245.891 202.9C246.097 203.053 246.354 203.13 246.661 203.13C246.981 203.13 247.227 203.07 247.401 202.95C247.581 202.823 247.671 202.663 247.671 202.47C247.671 202.263 247.571 202.11 247.371 202.01C247.177 201.91 246.867 201.8 246.441 201.68C246.027 201.567 245.691 201.457 245.431 201.35C245.171 201.243 244.944 201.08 244.751 200.86C244.564 200.64 244.471 200.35 244.471 199.99C244.471 199.697 244.557 199.43 244.731 199.19C244.904 198.943 245.151 198.75 245.471 198.61C245.797 198.47 246.171 198.4 246.591 198.4C247.217 198.4 247.721 198.56 248.101 198.88C248.487 199.193 248.694 199.623 248.721 200.17H247.581C247.561 199.923 247.461 199.727 247.281 199.58C247.101 199.433 246.857 199.36 246.551 199.36C246.251 199.36 246.021 199.417 245.861 199.53C245.701 199.643 245.621 199.793 245.621 199.98C245.621 200.127 245.674 200.25 245.781 200.35C245.887 200.45 246.017 200.53 246.171 200.59C246.324 200.643 246.551 200.713 246.851 200.8C247.251 200.907 247.577 201.017 247.831 201.13C248.091 201.237 248.314 201.397 248.501 201.61C248.687 201.823 248.784 202.107 248.791 202.46C248.791 202.773 248.704 203.053 248.531 203.3C248.357 203.547 248.111 203.74 247.791 203.88C247.477 204.02 247.107 204.09 246.681 204.09Z" fill="#808080"/>
<rect x="285" y="145" width="60" height="70" rx="15" fill="black" fill-opacity="0.1"/>
<path d="M301.795 198.4C302.228 198.4 302.615 198.49 302.955 198.67C303.302 198.85 303.572 199.117 303.765 199.47C303.965 199.823 304.065 200.25 304.065 200.75V204H302.935V200.92C302.935 200.427 302.812 200.05 302.565 199.79C302.318 199.523 301.982 199.39 301.555 199.39C301.128 199.39 300.788 199.523 300.535 199.79C300.288 200.05 300.165 200.427 300.165 200.92V204H299.035V200.92C299.035 200.427 298.912 200.05 298.665 199.79C298.418 199.523 298.082 199.39 297.655 199.39C297.228 199.39 296.888 199.523 296.635 199.79C296.388 200.05 296.265 200.427 296.265 200.92V204H295.125V198.49H296.265V199.12C296.452 198.893 296.688 198.717 296.975 198.59C297.262 198.463 297.568 198.4 297.895 198.4C298.335 198.4 298.728 198.493 299.075 198.68C299.422 198.867 299.688 199.137 299.875 199.49C300.042 199.157 300.302 198.893 300.655 198.7C301.008 198.5 301.388 198.4 301.795 198.4ZM306.096 197.76C305.889 197.76 305.716 197.69 305.576 197.55C305.436 197.41 305.366 197.237 305.366 197.03C305.366 196.823 305.436 196.65 305.576 196.51C305.716 196.37 305.889 196.3 306.096 196.3C306.296 196.3 306.466 196.37 306.606 196.51C306.746 196.65 306.816 196.823 306.816 197.03C306.816 197.237 306.746 197.41 306.606 197.55C306.466 197.69 306.296 197.76 306.096 197.76ZM306.656 198.49V204H305.516V198.49H306.656ZM310.932 198.4C311.366 198.4 311.752 198.49 312.092 198.67C312.439 198.85 312.709 199.117 312.902 199.47C313.096 199.823 313.192 200.25 313.192 200.75V204H312.062V200.92C312.062 200.427 311.939 200.05 311.692 199.79C311.446 199.523 311.109 199.39 310.682 199.39C310.256 199.39 309.916 199.523 309.662 199.79C309.416 200.05 309.292 200.427 309.292 200.92V204H308.152V198.49H309.292V199.12C309.479 198.893 309.716 198.717 310.002 198.59C310.296 198.463 310.606 198.4 310.932 198.4ZM319.636 198.49V204H318.496V203.35C318.316 203.577 318.08 203.757 317.786 203.89C317.5 204.017 317.193 204.08 316.866 204.08C316.433 204.08 316.043 203.99 315.696 203.81C315.356 203.63 315.086 203.363 314.886 203.01C314.693 202.657 314.596 202.23 314.596 201.73V198.49H315.726V201.56C315.726 202.053 315.85 202.433 316.096 202.7C316.343 202.96 316.68 203.09 317.106 203.09C317.533 203.09 317.87 202.96 318.116 202.7C318.37 202.433 318.496 202.053 318.496 201.56V198.49H319.636ZM322.471 199.42V202.47C322.471 202.677 322.517 202.827 322.611 202.92C322.711 203.007 322.877 203.05 323.111 203.05H323.811V204H322.911C322.397 204 322.004 203.88 321.731 203.64C321.457 203.4 321.321 203.01 321.321 202.47V199.42H320.671V198.49H321.321V197.12H322.471V198.49H323.811V199.42H322.471ZM329.911 201.11C329.911 201.317 329.898 201.503 329.871 201.67H325.661C325.695 202.11 325.858 202.463 326.151 202.73C326.445 202.997 326.805 203.13 327.231 203.13C327.845 203.13 328.278 202.873 328.531 202.36H329.761C329.595 202.867 329.291 203.283 328.851 203.61C328.418 203.93 327.878 204.09 327.231 204.09C326.705 204.09 326.231 203.973 325.811 203.74C325.398 203.5 325.071 203.167 324.831 202.74C324.598 202.307 324.481 201.807 324.481 201.24C324.481 200.673 324.595 200.177 324.821 199.75C325.055 199.317 325.378 198.983 325.791 198.75C326.211 198.517 326.691 198.4 327.231 198.4C327.751 198.4 328.215 198.513 328.621 198.74C329.028 198.967 329.345 199.287 329.571 199.7C329.798 200.107 329.911 200.577 329.911 201.11ZM328.721 200.75C328.715 200.33 328.565 199.993 328.271 199.74C327.978 199.487 327.615 199.36 327.181 199.36C326.788 199.36 326.451 199.487 326.171 199.74C325.891 199.987 325.725 200.323 325.671 200.75H328.721ZM333.033 204.09C332.6 204.09 332.21 204.013 331.863 203.86C331.523 203.7 331.253 203.487 331.053 203.22C330.853 202.947 330.747 202.643 330.733 202.31H331.913C331.933 202.543 332.043 202.74 332.243 202.9C332.45 203.053 332.707 203.13 333.013 203.13C333.333 203.13 333.58 203.07 333.753 202.95C333.933 202.823 334.023 202.663 334.023 202.47C334.023 202.263 333.923 202.11 333.723 202.01C333.53 201.91 333.22 201.8 332.793 201.68C332.38 201.567 332.043 201.457 331.783 201.35C331.523 201.243 331.297 201.08 331.103 200.86C330.917 200.64 330.823 200.35 330.823 199.99C330.823 199.697 330.91 199.43 331.083 199.19C331.257 198.943 331.503 198.75 331.823 198.61C332.15 198.47 332.523 198.4 332.943 198.4C333.57 198.4 334.073 198.56 334.453 198.88C334.84 199.193 335.047 199.623 335.073 200.17H333.933C333.913 199.923 333.813 199.727 333.633 199.58C333.453 199.433 333.21 199.36 332.903 199.36C332.603 199.36 332.373 199.417 332.213 199.53C332.053 199.643 331.973 199.793 331.973 199.98C331.973 200.127 332.027 200.25 332.133 200.35C332.24 200.45 332.37 200.53 332.523 200.59C332.677 200.643 332.903 200.713 333.203 200.8C333.603 200.907 333.93 201.017 334.183 201.13C334.443 201.237 334.667 201.397 334.853 201.61C335.04 201.823 335.137 202.107 335.143 202.46C335.143 202.773 335.057 203.053 334.883 203.3C334.71 203.547 334.463 203.74 334.143 203.88C333.83 204.02 333.46 204.09 333.033 204.09Z" fill="#808080"/>
<path d="M274.972 186.126C274.6 186.126 274.288 186 274.036 185.748C273.784 185.496 273.658 185.184 273.658 184.812C273.658 184.44 273.784 184.128 274.036 183.876C274.288 183.624 274.6 183.498 274.972 183.498C275.332 183.498 275.638 183.624 275.89 183.876C276.142 184.128 276.268 184.44 276.268 184.812C276.268 185.184 276.142 185.496 275.89 185.748C275.638 186 275.332 186.126 274.972 186.126ZM274.972 178.566C274.6 178.566 274.288 178.44 274.036 178.188C273.784 177.936 273.658 177.624 273.658 177.252C273.658 176.88 273.784 176.568 274.036 176.316C274.288 176.064 274.6 175.938 274.972 175.938C275.332 175.938 275.638 176.064 275.89 176.316C276.142 176.568 276.268 176.88 276.268 177.252C276.268 177.624 276.142 177.936 275.89 178.188C275.638 178.44 275.332 178.566 274.972 178.566Z" fill="black"/>
<rect x="365" y="145" width="60" height="70" rx="15" fill="black" fill-opacity="0.1"/>
<path d="M376.5 204.09C376.067 204.09 375.677 204.013 375.33 203.86C374.99 203.7 374.72 203.487 374.52 203.22C374.32 202.947 374.213 202.643 374.2 202.31H375.38C375.4 202.543 375.51 202.74 375.71 202.9C375.917 203.053 376.173 203.13 376.48 203.13C376.8 203.13 377.047 203.07 377.22 202.95C377.4 202.823 377.49 202.663 377.49 202.47C377.49 202.263 377.39 202.11 377.19 202.01C376.997 201.91 376.687 201.8 376.26 201.68C375.847 201.567 375.51 201.457 375.25 201.35C374.99 201.243 374.763 201.08 374.57 200.86C374.383 200.64 374.29 200.35 374.29 199.99C374.29 199.697 374.377 199.43 374.55 199.19C374.723 198.943 374.97 198.75 375.29 198.61C375.617 198.47 375.99 198.4 376.41 198.4C377.037 198.4 377.54 198.56 377.92 198.88C378.307 199.193 378.513 199.623 378.54 200.17H377.4C377.38 199.923 377.28 199.727 377.1 199.58C376.92 199.433 376.677 199.36 376.37 199.36C376.07 199.36 375.84 199.417 375.68 199.53C375.52 199.643 375.44 199.793 375.44 199.98C375.44 200.127 375.493 200.25 375.6 200.35C375.707 200.45 375.837 200.53 375.99 200.59C376.143 200.643 376.37 200.713 376.67 200.8C377.07 200.907 377.397 201.017 377.65 201.13C377.91 201.237 378.133 201.397 378.32 201.61C378.507 201.823 378.603 202.107 378.61 202.46C378.61 202.773 378.523 203.053 378.35 203.3C378.177 203.547 377.93 203.74 377.61 203.88C377.297 204.02 376.927 204.09 376.5 204.09ZM384.892 201.11C384.892 201.317 384.878 201.503 384.852 201.67H380.642C380.675 202.11 380.838 202.463 381.132 202.73C381.425 202.997 381.785 203.13 382.212 203.13C382.825 203.13 383.258 202.873 383.512 202.36H384.742C384.575 202.867 384.272 203.283 383.832 203.61C383.398 203.93 382.858 204.09 382.212 204.09C381.685 204.09 381.212 203.973 380.792 203.74C380.378 203.5 380.052 203.167 379.812 202.74C379.578 202.307 379.462 201.807 379.462 201.24C379.462 200.673 379.575 200.177 379.802 199.75C380.035 199.317 380.358 198.983 380.772 198.75C381.192 198.517 381.672 198.4 382.212 198.4C382.732 198.4 383.195 198.513 383.602 198.74C384.008 198.967 384.325 199.287 384.552 199.7C384.778 200.107 384.892 200.577 384.892 201.11ZM383.702 200.75C383.695 200.33 383.545 199.993 383.252 199.74C382.958 199.487 382.595 199.36 382.162 199.36C381.768 199.36 381.432 199.487 381.152 199.74C380.872 199.987 380.705 200.323 380.652 200.75H383.702ZM385.634 201.24C385.634 200.673 385.747 200.177 385.974 199.75C386.207 199.317 386.527 198.983 386.934 198.75C387.34 198.517 387.807 198.4 388.334 198.4C389 198.4 389.55 198.56 389.984 198.88C390.424 199.193 390.72 199.643 390.874 200.23H389.644C389.544 199.957 389.384 199.743 389.164 199.59C388.944 199.437 388.667 199.36 388.334 199.36C387.867 199.36 387.494 199.527 387.214 199.86C386.94 200.187 386.804 200.647 386.804 201.24C386.804 201.833 386.94 202.297 387.214 202.63C387.494 202.963 387.867 203.13 388.334 203.13C388.994 203.13 389.43 202.84 389.644 202.26H390.874C390.714 202.82 390.414 203.267 389.974 203.6C389.534 203.927 388.987 204.09 388.334 204.09C387.807 204.09 387.34 203.973 386.934 203.74C386.527 203.5 386.207 203.167 385.974 202.74C385.747 202.307 385.634 201.807 385.634 201.24ZM394.4 204.09C393.88 204.09 393.41 203.973 392.99 203.74C392.57 203.5 392.24 203.167 392 202.74C391.76 202.307 391.64 201.807 391.64 201.24C391.64 200.68 391.763 200.183 392.01 199.75C392.256 199.317 392.593 198.983 393.02 198.75C393.446 198.517 393.923 198.4 394.45 198.4C394.976 198.4 395.453 198.517 395.88 198.75C396.306 198.983 396.643 199.317 396.89 199.75C397.136 200.183 397.26 200.68 397.26 201.24C397.26 201.8 397.133 202.297 396.88 202.73C396.626 203.163 396.28 203.5 395.84 203.74C395.406 203.973 394.926 204.09 394.4 204.09ZM394.4 203.1C394.693 203.1 394.966 203.03 395.22 202.89C395.48 202.75 395.69 202.54 395.85 202.26C396.01 201.98 396.09 201.64 396.09 201.24C396.09 200.84 396.013 200.503 395.86 200.23C395.706 199.95 395.503 199.74 395.25 199.6C394.996 199.46 394.723 199.39 394.43 199.39C394.136 199.39 393.863 199.46 393.61 199.6C393.363 199.74 393.166 199.95 393.02 200.23C392.873 200.503 392.8 200.84 392.8 201.24C392.8 201.833 392.95 202.293 393.25 202.62C393.556 202.94 393.94 203.1 394.4 203.1ZM401.167 198.4C401.6 198.4 401.987 198.49 402.327 198.67C402.673 198.85 402.943 199.117 403.137 199.47C403.33 199.823 403.427 200.25 403.427 200.75V204H402.297V200.92C402.297 200.427 402.173 200.05 401.927 199.79C401.68 199.523 401.343 199.39 400.917 199.39C400.49 199.39 400.15 199.523 399.897 199.79C399.65 200.05 399.527 200.427 399.527 200.92V204H398.387V198.49H399.527V199.12C399.713 198.893 399.95 198.717 400.237 198.59C400.53 198.463 400.84 198.4 401.167 198.4ZM404.501 201.22C404.501 200.667 404.614 200.177 404.841 199.75C405.074 199.323 405.388 198.993 405.781 198.76C406.181 198.52 406.624 198.4 407.111 198.4C407.471 198.4 407.824 198.48 408.171 198.64C408.524 198.793 408.804 199 409.011 199.26V196.6H410.161V204H409.011V203.17C408.824 203.437 408.564 203.657 408.231 203.83C407.904 204.003 407.528 204.09 407.101 204.09C406.621 204.09 406.181 203.97 405.781 203.73C405.388 203.483 405.074 203.143 404.841 202.71C404.614 202.27 404.501 201.773 404.501 201.22ZM409.011 201.24C409.011 200.86 408.931 200.53 408.771 200.25C408.618 199.97 408.414 199.757 408.161 199.61C407.908 199.463 407.634 199.39 407.341 199.39C407.048 199.39 406.774 199.463 406.521 199.61C406.268 199.75 406.061 199.96 405.901 200.24C405.748 200.513 405.671 200.84 405.671 201.22C405.671 201.6 405.748 201.933 405.901 202.22C406.061 202.507 406.268 202.727 406.521 202.88C406.781 203.027 407.054 203.1 407.341 203.1C407.634 203.1 407.908 203.027 408.161 202.88C408.414 202.733 408.618 202.52 408.771 202.24C408.931 201.953 409.011 201.62 409.011 201.24ZM413.658 204.09C413.225 204.09 412.835 204.013 412.488 203.86C412.148 203.7 411.878 203.487 411.678 203.22C411.478 202.947 411.372 202.643 411.358 202.31H412.538C412.558 202.543 412.668 202.74 412.868 202.9C413.075 203.053 413.332 203.13 413.638 203.13C413.958 203.13 414.205 203.07 414.378 202.95C414.558 202.823 414.648 202.663 414.648 202.47C414.648 202.263 414.548 202.11 414.348 202.01C414.155 201.91 413.845 201.8 413.418 201.68C413.005 201.567 412.668 201.457 412.408 201.35C412.148 201.243 411.922 201.08 411.728 200.86C411.542 200.64 411.448 200.35 411.448 199.99C411.448 199.697 411.535 199.43 411.708 199.19C411.882 198.943 412.128 198.75 412.448 198.61C412.775 198.47 413.148 198.4 413.568 198.4C414.195 198.4 414.698 198.56 415.078 198.88C415.465 199.193 415.672 199.623 415.698 200.17H414.558C414.538 199.923 414.438 199.727 414.258 199.58C414.078 199.433 413.835 199.36 413.528 199.36C413.228 199.36 412.998 199.417 412.838 199.53C412.678 199.643 412.598 199.793 412.598 199.98C412.598 200.127 412.652 200.25 412.758 200.35C412.865 200.45 412.995 200.53 413.148 200.59C413.302 200.643 413.528 200.713 413.828 200.8C414.228 200.907 414.555 201.017 414.808 201.13C415.068 201.237 415.292 201.397 415.478 201.61C415.665 201.823 415.762 202.107 415.768 202.46C415.768 202.773 415.682 203.053 415.508 203.3C415.335 203.547 415.088 203.74 414.768 203.88C414.455 204.02 414.085 204.09 413.658 204.09Z" fill="#808080"/>
<path d="M354.972 186.126C354.6 186.126 354.288 186 354.036 185.748C353.784 185.496 353.658 185.184 353.658 184.812C353.658 184.44 353.784 184.128 354.036 183.876C354.288 183.624 354.6 183.498 354.972 183.498C355.332 183.498 355.638 183.624 355.89 183.876C356.142 184.128 356.268 184.44 356.268 184.812C356.268 185.184 356.142 185.496 355.89 185.748C355.638 186 355.332 186.126 354.972 186.126ZM354.972 178.566C354.6 178.566 354.288 178.44 354.036 178.188C353.784 177.936 353.658 177.624 353.658 177.252C353.658 176.88 353.784 176.568 354.036 176.316C354.288 176.064 354.6 175.938 354.972 175.938C355.332 175.938 355.638 176.064 355.89 176.316C356.142 176.568 356.268 176.88 356.268 177.252C356.268 177.624 356.142 177.936 355.89 178.188C355.638 178.44 355.332 178.566 354.972 178.566Z" fill="black"/>
<rect x="220" y="105" width="30" height="30" rx="15" fill="black" fill-opacity="0.1"/>
<rect x="235" y="116.343" width="8" height="2" rx="1" transform="rotate(45 235 116.343)" fill="black"/>
<rect x="236.414" y="117.757" width="8" height="2" rx="1" transform="rotate(135 236.414 117.757)" fill="black"/>
<rect x="300" y="105" width="30" height="30" rx="15" fill="black" fill-opacity="0.1"/>
<rect x="315" y="116.343" width="8" height="2" rx="1" transform="rotate(45 315 116.343)" fill="black"/>
<rect x="316.414" y="117.757" width="8" height="2" rx="1" transform="rotate(135 316.414 117.757)" fill="black"/>
<rect x="330" y="255" width="30" height="30" rx="15" transform="rotate(-180 330 255)" fill="black" fill-opacity="0.1"/>
<rect x="315" y="243.657" width="8" height="2" rx="1" transform="rotate(-135 315 243.657)" fill="black"/>
<rect x="313.586" y="242.243" width="8" height="2" rx="1" transform="rotate(-45 313.586 242.243)" fill="black"/>
<rect x="380" y="105" width="30" height="30" rx="15" fill="black" fill-opacity="0.1"/>
<rect x="395" y="116.343" width="8" height="2" rx="1" transform="rotate(45 395 116.343)" fill="black"/>
<rect x="396.414" y="117.757" width="8" height="2" rx="1" transform="rotate(135 396.414 117.757)" fill="black"/>
<rect x="410" y="255" width="30" height="30" rx="15" transform="rotate(-180 410 255)" fill="black" fill-opacity="0.1"/>
<rect x="395" y="243.657" width="8" height="2" rx="1" transform="rotate(-135 395 243.657)" fill="black"/>
<rect x="393.586" y="242.243" width="8" height="2" rx="1" transform="rotate(-45 393.586 242.243)" fill="black"/>
<rect x="250" y="255" width="30" height="30" rx="15" transform="rotate(-180 250 255)" fill="black" fill-opacity="0.1"/>
<rect x="235" y="243.657" width="8" height="2" rx="1" transform="rotate(-135 235 243.657)" fill="black"/>
<rect x="233.586" y="242.243" width="8" height="2" rx="1" transform="rotate(-45 233.586 242.243)" fill="black"/>
<rect x="285" y="320" width="60" height="30" rx="15" fill="black" fill-opacity="0.1"/>
<path d="M304.193 339.084C303.633 339.084 303.129 338.988 302.681 338.796C302.233 338.596 301.881 338.316 301.625 337.956C301.369 337.596 301.241 337.176 301.241 336.696H302.705C302.737 337.056 302.877 337.352 303.125 337.584C303.381 337.816 303.737 337.932 304.193 337.932C304.665 337.932 305.033 337.82 305.297 337.596C305.561 337.364 305.693 337.068 305.693 336.708C305.693 336.428 305.609 336.2 305.441 336.024C305.281 335.848 305.077 335.712 304.829 335.616C304.589 335.52 304.253 335.416 303.821 335.304C303.277 335.16 302.833 335.016 302.489 334.872C302.153 334.72 301.865 334.488 301.625 334.176C301.385 333.864 301.265 333.448 301.265 332.928C301.265 332.448 301.385 332.028 301.625 331.668C301.865 331.308 302.201 331.032 302.633 330.84C303.065 330.648 303.565 330.552 304.133 330.552C304.941 330.552 305.601 330.756 306.113 331.164C306.633 331.564 306.921 332.116 306.977 332.82H305.465C305.441 332.516 305.297 332.256 305.033 332.04C304.769 331.824 304.421 331.716 303.989 331.716C303.597 331.716 303.277 331.816 303.029 332.016C302.781 332.216 302.657 332.504 302.657 332.88C302.657 333.136 302.733 333.348 302.885 333.516C303.045 333.676 303.245 333.804 303.485 333.9C303.725 333.996 304.053 334.1 304.469 334.212C305.021 334.364 305.469 334.516 305.813 334.668C306.165 334.82 306.461 335.056 306.701 335.376C306.949 335.688 307.073 336.108 307.073 336.636C307.073 337.06 306.957 337.46 306.725 337.836C306.501 338.212 306.169 338.516 305.729 338.748C305.297 338.972 304.785 339.084 304.193 339.084ZM310.283 333.504V337.164C310.283 337.412 310.339 337.592 310.451 337.704C310.571 337.808 310.771 337.86 311.051 337.86H311.891V339H310.811C310.195 339 309.723 338.856 309.395 338.568C309.067 338.28 308.903 337.812 308.903 337.164V333.504H308.123V332.388H308.903V330.744H310.283V332.388H311.891V333.504H310.283ZM312.696 335.664C312.696 335 312.832 334.412 313.104 333.9C313.384 333.388 313.76 332.992 314.232 332.712C314.712 332.424 315.24 332.28 315.816 332.28C316.336 332.28 316.788 332.384 317.172 332.592C317.564 332.792 317.876 333.044 318.108 333.348V332.388H319.488V339H318.108V338.016C317.876 338.328 317.56 338.588 317.16 338.796C316.76 339.004 316.304 339.108 315.792 339.108C315.224 339.108 314.704 338.964 314.232 338.676C313.76 338.38 313.384 337.972 313.104 337.452C312.832 336.924 312.696 336.328 312.696 335.664ZM318.108 335.688C318.108 335.232 318.012 334.836 317.82 334.5C317.636 334.164 317.392 333.908 317.088 333.732C316.784 333.556 316.456 333.468 316.104 333.468C315.752 333.468 315.424 333.556 315.12 333.732C314.816 333.9 314.568 334.152 314.376 334.488C314.192 334.816 314.1 335.208 314.1 335.664C314.1 336.12 314.192 336.52 314.376 336.864C314.568 337.208 314.816 337.472 315.12 337.656C315.432 337.832 315.76 337.92 316.104 337.92C316.456 337.92 316.784 337.832 317.088 337.656C317.392 337.48 317.636 337.224 317.82 336.888C318.012 336.544 318.108 336.144 318.108 335.688ZM322.653 333.348C322.853 333.012 323.117 332.752 323.445 332.568C323.781 332.376 324.177 332.28 324.633 332.28V333.696H324.285C323.749 333.696 323.341 333.832 323.061 334.104C322.789 334.376 322.653 334.848 322.653 335.52V339H321.285V332.388H322.653V333.348ZM327.486 333.504V337.164C327.486 337.412 327.542 337.592 327.654 337.704C327.774 337.808 327.974 337.86 328.254 337.86H329.094V339H328.014C327.398 339 326.926 338.856 326.598 338.568C326.27 338.28 326.106 337.812 326.106 337.164V333.504H325.326V332.388H326.106V330.744H327.486V332.388H329.094V333.504H327.486Z" fill="black"/>
</svg>
