<svg width="300" height="40" viewBox="0 0 300 40" fill="none" xmlns="http://www.w3.org/2000/svg">
<rect width="300" height="40" rx="15" fill="black" fill-opacity="0.1"/>
<path d="M46.732 18.144C46.732 18.568 46.632 18.968 46.432 19.344C46.232 19.72 45.912 20.028 45.472 20.268C45.032 20.5 44.468 20.616 43.78 20.616H42.268V24H40.9V15.66H43.78C44.42 15.66 44.96 15.772 45.4 15.996C45.848 16.212 46.18 16.508 46.396 16.884C46.62 17.26 46.732 17.68 46.732 18.144ZM43.78 19.5C44.3 19.5 44.688 19.384 44.944 19.152C45.2 18.912 45.328 18.576 45.328 18.144C45.328 17.232 44.812 16.776 43.78 16.776H42.268V19.5H43.78ZM50.9047 24.108C50.2807 24.108 49.7167 23.968 49.2127 23.688C48.7087 23.4 48.3127 23 48.0247 22.488C47.7367 21.968 47.5927 21.368 47.5927 20.688C47.5927 20.016 47.7407 19.42 48.0367 18.9C48.3327 18.38 48.7367 17.98 49.2487 17.7C49.7607 17.42 50.3327 17.28 50.9647 17.28C51.5967 17.28 52.1687 17.42 52.6807 17.7C53.1927 17.98 53.5967 18.38 53.8927 18.9C54.1887 19.42 54.3367 20.016 54.3367 20.688C54.3367 21.36 54.1847 21.956 53.8807 22.476C53.5767 22.996 53.1607 23.4 52.6327 23.688C52.1127 23.968 51.5367 24.108 50.9047 24.108ZM50.9047 22.92C51.2567 22.92 51.5847 22.836 51.8887 22.668C52.2007 22.5 52.4527 22.248 52.6447 21.912C52.8367 21.576 52.9327 21.168 52.9327 20.688C52.9327 20.208 52.8407 19.804 52.6567 19.476C52.4727 19.14 52.2287 18.888 51.9247 18.72C51.6207 18.552 51.2927 18.468 50.9407 18.468C50.5887 18.468 50.2607 18.552 49.9567 18.72C49.6607 18.888 49.4247 19.14 49.2487 19.476C49.0727 19.804 48.9847 20.208 48.9847 20.688C48.9847 21.4 49.1647 21.952 49.5247 22.344C49.8927 22.728 50.3527 22.92 50.9047 22.92ZM59.0251 17.28C59.5451 17.28 60.0091 17.388 60.4171 17.604C60.8331 17.82 61.1571 18.14 61.3891 18.564C61.6211 18.988 61.7371 19.5 61.7371 20.1V24H60.3811V20.304C60.3811 19.712 60.2331 19.26 59.9371 18.948C59.6411 18.628 59.2371 18.468 58.7251 18.468C58.2131 18.468 57.8051 18.628 57.5011 18.948C57.2051 19.26 57.0571 19.712 57.0571 20.304V24H55.6891V17.388H57.0571V18.144C57.2811 17.872 57.5651 17.66 57.9091 17.508C58.2611 17.356 58.6331 17.28 59.0251 17.28ZM66.146 17.28C66.658 17.28 67.11 17.384 67.502 17.592C67.902 17.792 68.214 18.044 68.438 18.348V17.388H69.818V24.108C69.818 24.716 69.69 25.256 69.434 25.728C69.178 26.208 68.806 26.584 68.318 26.856C67.838 27.128 67.262 27.264 66.59 27.264C65.694 27.264 64.95 27.052 64.358 26.628C63.766 26.212 63.43 25.644 63.35 24.924H64.706C64.81 25.268 65.03 25.544 65.366 25.752C65.71 25.968 66.118 26.076 66.59 26.076C67.142 26.076 67.586 25.908 67.922 25.572C68.266 25.236 68.438 24.748 68.438 24.108V23.004C68.206 23.316 67.89 23.58 67.49 23.796C67.098 24.004 66.65 24.108 66.146 24.108C65.57 24.108 65.042 23.964 64.562 23.676C64.09 23.38 63.714 22.972 63.434 22.452C63.162 21.924 63.026 21.328 63.026 20.664C63.026 20 63.162 19.412 63.434 18.9C63.714 18.388 64.09 17.992 64.562 17.712C65.042 17.424 65.57 17.28 66.146 17.28ZM68.438 20.688C68.438 20.232 68.342 19.836 68.15 19.5C67.966 19.164 67.722 18.908 67.418 18.732C67.114 18.556 66.786 18.468 66.434 18.468C66.082 18.468 65.754 18.556 65.45 18.732C65.146 18.9 64.898 19.152 64.706 19.488C64.522 19.816 64.43 20.208 64.43 20.664C64.43 21.12 64.522 21.52 64.706 21.864C64.898 22.208 65.146 22.472 65.45 22.656C65.762 22.832 66.09 22.92 66.434 22.92C66.786 22.92 67.114 22.832 67.418 22.656C67.722 22.48 67.966 22.224 68.15 21.888C68.342 21.544 68.438 21.144 68.438 20.688ZM76.592 21.564C76.304 21.564 76.04 21.496 75.8 21.36C75.568 21.216 75.38 21.028 75.236 20.796C75.1 20.556 75.032 20.292 75.032 20.004C75.032 19.564 75.184 19.192 75.488 18.888C75.792 18.584 76.16 18.432 76.592 18.432C77.04 18.432 77.416 18.584 77.72 18.888C78.024 19.192 78.176 19.564 78.176 20.004C78.176 20.444 78.024 20.816 77.72 21.12C77.416 21.416 77.04 21.564 76.592 21.564ZM89.4282 18.06C89.2122 17.644 88.9122 17.332 88.5282 17.124C88.1442 16.908 87.7002 16.8 87.1962 16.8C86.6442 16.8 86.1522 16.924 85.7202 17.172C85.2882 17.42 84.9482 17.772 84.7002 18.228C84.4602 18.684 84.3402 19.212 84.3402 19.812C84.3402 20.412 84.4602 20.944 84.7002 21.408C84.9482 21.864 85.2882 22.216 85.7202 22.464C86.1522 22.712 86.6442 22.836 87.1962 22.836C87.9402 22.836 88.5442 22.628 89.0082 22.212C89.4722 21.796 89.7562 21.232 89.8602 20.52H86.7282V19.428H91.3242V20.496C91.2362 21.144 91.0042 21.74 90.6282 22.284C90.2602 22.828 89.7762 23.264 89.1762 23.592C88.5842 23.912 87.9242 24.072 87.1962 24.072C86.4122 24.072 85.6962 23.892 85.0482 23.532C84.4002 23.164 83.8842 22.656 83.5002 22.008C83.1242 21.36 82.9362 20.628 82.9362 19.812C82.9362 18.996 83.1242 18.264 83.5002 17.616C83.8842 16.968 84.4002 16.464 85.0482 16.104C85.7042 15.736 86.4202 15.552 87.1962 15.552C88.0842 15.552 88.8722 15.772 89.5602 16.212C90.2562 16.644 90.7602 17.26 91.0722 18.06H89.4282ZM92.2174 20.664C92.2174 20 92.3534 19.412 92.6254 18.9C92.9054 18.388 93.2814 17.992 93.7534 17.712C94.2334 17.424 94.7614 17.28 95.3374 17.28C95.8574 17.28 96.3094 17.384 96.6934 17.592C97.0854 17.792 97.3974 18.044 97.6294 18.348V17.388H99.0094V24H97.6294V23.016C97.3974 23.328 97.0814 23.588 96.6814 23.796C96.2814 24.004 95.8254 24.108 95.3134 24.108C94.7454 24.108 94.2254 23.964 93.7534 23.676C93.2814 23.38 92.9054 22.972 92.6254 22.452C92.3534 21.924 92.2174 21.328 92.2174 20.664ZM97.6294 20.688C97.6294 20.232 97.5334 19.836 97.3414 19.5C97.1574 19.164 96.9134 18.908 96.6094 18.732C96.3054 18.556 95.9774 18.468 95.6254 18.468C95.2734 18.468 94.9454 18.556 94.6414 18.732C94.3374 18.9 94.0894 19.152 93.8974 19.488C93.7134 19.816 93.6214 20.208 93.6214 20.664C93.6214 21.12 93.7134 21.52 93.8974 21.864C94.0894 22.208 94.3374 22.472 94.6414 22.656C94.9534 22.832 95.2814 22.92 95.6254 22.92C95.9774 22.92 96.3054 22.832 96.6094 22.656C96.9134 22.48 97.1574 22.224 97.3414 21.888C97.5334 21.544 97.6294 21.144 97.6294 20.688ZM108.81 17.28C109.33 17.28 109.794 17.388 110.202 17.604C110.618 17.82 110.942 18.14 111.174 18.564C111.414 18.988 111.534 19.5 111.534 20.1V24H110.178V20.304C110.178 19.712 110.03 19.26 109.734 18.948C109.438 18.628 109.034 18.468 108.522 18.468C108.01 18.468 107.602 18.628 107.298 18.948C107.002 19.26 106.854 19.712 106.854 20.304V24H105.498V20.304C105.498 19.712 105.35 19.26 105.054 18.948C104.758 18.628 104.354 18.468 103.842 18.468C103.33 18.468 102.922 18.628 102.618 18.948C102.322 19.26 102.174 19.712 102.174 20.304V24H100.806V17.388H102.174V18.144C102.398 17.872 102.682 17.66 103.026 17.508C103.37 17.356 103.738 17.28 104.13 17.28C104.658 17.28 105.13 17.392 105.546 17.616C105.962 17.84 106.282 18.164 106.506 18.588C106.706 18.188 107.018 17.872 107.442 17.64C107.866 17.4 108.322 17.28 108.81 17.28ZM119.335 20.532C119.335 20.78 119.319 21.004 119.287 21.204H114.235C114.275 21.732 114.471 22.156 114.823 22.476C115.175 22.796 115.607 22.956 116.119 22.956C116.855 22.956 117.375 22.648 117.679 22.032H119.155C118.955 22.64 118.591 23.14 118.063 23.532C117.543 23.916 116.895 24.108 116.119 24.108C115.487 24.108 114.919 23.968 114.415 23.688C113.919 23.4 113.527 23 113.239 22.488C112.959 21.968 112.819 21.368 112.819 20.688C112.819 20.008 112.955 19.412 113.227 18.9C113.507 18.38 113.895 17.98 114.391 17.7C114.895 17.42 115.471 17.28 116.119 17.28C116.743 17.28 117.299 17.416 117.787 17.688C118.275 17.96 118.655 18.344 118.927 18.84C119.199 19.328 119.335 19.892 119.335 20.532ZM117.907 20.1C117.899 19.596 117.719 19.192 117.367 18.888C117.015 18.584 116.579 18.432 116.059 18.432C115.587 18.432 115.183 18.584 114.847 18.888C114.511 19.184 114.311 19.588 114.247 20.1H117.907Z" fill="black"/>
<rect x="20" y="12" width="8" height="8" rx="4" fill="black"/>
<rect x="12" y="26" width="16" height="2" rx="1" fill="black"/>
<path d="M11.7071 19.2428C11.3166 18.8522 11.3166 18.2191 11.7071 17.8285V17.8285C12.0976 17.438 12.7308 17.438 13.1213 17.8285L17.364 22.0712L18.7782 20.657C19.1687 20.2664 19.8019 20.2664 20.1924 20.657V20.657C20.5829 21.0475 20.5829 21.6807 20.1924 22.0712L18.7782 23.4854C17.9971 24.2664 16.7308 24.2664 15.9497 23.4854L11.7071 19.2428Z" fill="url(#paint0_linear_433_2)"/>
<defs>
<linearGradient id="paint0_linear_433_2" x1="12.7678" y1="16.7679" x2="19.1317" y2="23.1318" gradientUnits="userSpaceOnUse">
<stop stop-opacity="0"/>
<stop offset="1"/>
</linearGradient>
</defs>
</svg>
