<svg width="250" height="28" viewBox="0 0 250 28" fill="none" xmlns="http://www.w3.org/2000/svg">
<rect width="250" height="28" rx="5" fill="#1B1B1B"/>
<path d="M13.59 12.4C14.2767 12.4 14.8233 12.5933 15.23 12.98C15.6433 13.3667 15.85 13.8867 15.85 14.54C15.85 14.6933 15.8333 14.8767 15.8 15.09C15.7733 15.2367 15.7267 15.4167 15.66 15.63H11.45C11.4433 15.6767 11.44 15.7467 11.44 15.84C11.44 16.2333 11.56 16.5467 11.8 16.78C12.0467 17.0133 12.3667 17.13 12.76 17.13C13.38 17.13 13.8567 16.8733 14.19 16.36H15.42C15.1667 16.8667 14.7933 17.2833 14.3 17.61C13.8067 17.93 13.2367 18.09 12.59 18.09C12.13 18.09 11.7267 18 11.38 17.82C11.0333 17.64 10.7633 17.3833 10.57 17.05C10.3767 16.71 10.28 16.3133 10.28 15.86C10.28 15.6667 10.3 15.46 10.34 15.24C10.44 14.6733 10.6433 14.1767 10.95 13.75C11.2567 13.3167 11.6367 12.9833 12.09 12.75C12.55 12.5167 13.05 12.4 13.59 12.4ZM14.66 14.81C14.6733 14.69 14.68 14.6033 14.68 14.55C14.68 14.1833 14.5567 13.8933 14.31 13.68C14.07 13.4667 13.7567 13.36 13.37 13.36C12.9633 13.36 12.5967 13.49 12.27 13.75C11.9433 14.01 11.72 14.3633 11.6 14.81H14.66ZM19.2619 15.2L20.5419 18H19.2519L18.3919 16.13L16.9419 18H15.7519L18.0119 15.29L16.7219 12.49H18.0119L18.8719 14.36L20.3219 12.49H21.5119L19.2619 15.2ZM21.5021 15.22C21.6021 14.6667 21.8021 14.1767 22.1021 13.75C22.4088 13.3233 22.7821 12.9933 23.2221 12.76C23.6621 12.52 24.1221 12.4 24.6021 12.4C25.0354 12.4 25.3988 12.4867 25.6921 12.66C25.9854 12.8267 26.2054 13.0367 26.3521 13.29L26.4921 12.49H27.6421L26.6721 18H25.5221L25.6721 17.18C25.4321 17.44 25.1288 17.6567 24.7621 17.83C24.4021 18.0033 24.0088 18.09 23.5821 18.09C23.1688 18.09 22.7988 17.9967 22.4721 17.81C22.1521 17.6233 21.8988 17.36 21.7121 17.02C21.5321 16.6733 21.4421 16.2767 21.4421 15.83C21.4421 15.63 21.4621 15.4267 21.5021 15.22ZM26.0121 15.24C26.0388 15.1133 26.0521 14.9767 26.0521 14.83C26.0521 14.3833 25.9188 14.0333 25.6521 13.78C25.3921 13.52 25.0654 13.39 24.6721 13.39C24.3788 13.39 24.0921 13.4633 23.8121 13.61C23.5321 13.75 23.2888 13.96 23.0821 14.24C22.8754 14.5133 22.7388 14.84 22.6721 15.22C22.6454 15.3467 22.6321 15.4833 22.6321 15.63C22.6321 16.0833 22.7621 16.4433 23.0221 16.71C23.2888 16.97 23.6188 17.1 24.0121 17.1C24.3054 17.1 24.5921 17.0267 24.8721 16.88C25.1521 16.7333 25.3954 16.52 25.6021 16.24C25.8088 15.9533 25.9454 15.62 26.0121 15.24ZM35.8295 12.4C36.4095 12.4 36.8728 12.5567 37.2195 12.87C37.5661 13.1833 37.7395 13.6267 37.7395 14.2C37.7395 14.3533 37.7228 14.5367 37.6895 14.75L37.1095 18H35.9795L36.5295 14.92C36.5561 14.7333 36.5695 14.6 36.5695 14.52C36.5695 14.1533 36.4661 13.8733 36.2595 13.68C36.0595 13.4867 35.7795 13.39 35.4195 13.39C34.9861 13.39 34.6195 13.5233 34.3195 13.79C34.0261 14.05 33.8395 14.4267 33.7595 14.92L33.2095 18H32.0795L32.6295 14.92C32.6561 14.7333 32.6695 14.6 32.6695 14.52C32.6695 14.1533 32.5661 13.8733 32.3595 13.68C32.1595 13.4867 31.8795 13.39 31.5195 13.39C31.0861 13.39 30.7195 13.5233 30.4195 13.79C30.1261 14.05 29.9395 14.4267 29.8595 14.92V14.89L29.3095 18H28.1695L29.1395 12.49H30.2795L30.1695 13.13C30.3895 12.9033 30.6528 12.7267 30.9595 12.6C31.2728 12.4667 31.5961 12.4 31.9295 12.4C32.3695 12.4 32.7461 12.4933 33.0595 12.68C33.3795 12.8667 33.6028 13.1367 33.7295 13.49C33.9495 13.1567 34.2528 12.8933 34.6395 12.7C35.0261 12.5 35.4228 12.4 35.8295 12.4ZM40.5301 13.3C40.7701 13.0467 41.0701 12.8333 41.4301 12.66C41.7967 12.4867 42.1901 12.4 42.6101 12.4C43.0301 12.4 43.4034 12.49 43.7301 12.67C44.0567 12.85 44.3101 13.1067 44.4901 13.44C44.6701 13.7733 44.7601 14.1633 44.7601 14.61C44.7601 14.8033 44.7401 15.0067 44.7001 15.22C44.6001 15.7733 44.3967 16.27 44.0901 16.71C43.7901 17.1433 43.4201 17.4833 42.9801 17.73C42.5467 17.97 42.0901 18.09 41.6101 18.09C41.1901 18.09 40.8301 18.0067 40.5301 17.84C40.2367 17.6667 40.0067 17.4533 39.8401 17.2L39.2401 20.62H38.1001L39.5301 12.49H40.6701L40.5301 13.3ZM43.5401 15.22C43.5667 15.0933 43.5801 14.9567 43.5801 14.81C43.5801 14.3633 43.4467 14.0167 43.1801 13.77C42.9201 13.5167 42.5901 13.39 42.1901 13.39C41.9034 13.39 41.6167 13.4633 41.3301 13.61C41.0501 13.7567 40.8067 13.97 40.6001 14.25C40.3934 14.53 40.2567 14.86 40.1901 15.24C40.1634 15.3667 40.1501 15.5033 40.1501 15.65C40.1501 16.0967 40.2801 16.45 40.5401 16.71C40.8067 16.97 41.1367 17.1 41.5301 17.1C41.8234 17.1 42.1101 17.0267 42.3901 16.88C42.6767 16.7267 42.9234 16.5067 43.1301 16.22C43.3367 15.9333 43.4734 15.6 43.5401 15.22ZM47.7874 10.6L46.4774 18H45.3374L46.6474 10.6H47.7874ZM51.3341 12.4C52.0208 12.4 52.5675 12.5933 52.9741 12.98C53.3875 13.3667 53.5941 13.8867 53.5941 14.54C53.5941 14.6933 53.5775 14.8767 53.5441 15.09C53.5175 15.2367 53.4708 15.4167 53.4041 15.63H49.1941C49.1875 15.6767 49.1841 15.7467 49.1841 15.84C49.1841 16.2333 49.3041 16.5467 49.5441 16.78C49.7908 17.0133 50.1108 17.13 50.5041 17.13C51.1241 17.13 51.6008 16.8733 51.9341 16.36H53.1641C52.9108 16.8667 52.5375 17.2833 52.0441 17.61C51.5508 17.93 50.9808 18.09 50.3341 18.09C49.8741 18.09 49.4708 18 49.1241 17.82C48.7775 17.64 48.5075 17.3833 48.3141 17.05C48.1208 16.71 48.0241 16.3133 48.0241 15.86C48.0241 15.6667 48.0441 15.46 48.0841 15.24C48.1841 14.6733 48.3875 14.1767 48.6941 13.75C49.0008 13.3167 49.3808 12.9833 49.8341 12.75C50.2941 12.5167 50.7941 12.4 51.3341 12.4ZM52.4041 14.81C52.4175 14.69 52.4241 14.6033 52.4241 14.55C52.4241 14.1833 52.3008 13.8933 52.0541 13.68C51.8141 13.4667 51.5008 13.36 51.1141 13.36C50.7075 13.36 50.3408 13.49 50.0141 13.75C49.6875 14.01 49.4641 14.3633 49.3441 14.81H52.4041ZM59.0541 15.97C58.7341 15.97 58.4707 15.87 58.2641 15.67C58.0641 15.47 57.9641 15.2167 57.9641 14.91C57.9641 14.63 58.0374 14.3733 58.1841 14.14C58.3307 13.9 58.5241 13.71 58.7641 13.57C59.0041 13.43 59.2541 13.36 59.5141 13.36C59.8407 13.36 60.1074 13.46 60.3141 13.66C60.5207 13.86 60.6241 14.1167 60.6241 14.43C60.6241 14.7033 60.5507 14.96 60.4041 15.2C60.2574 15.4333 60.0607 15.62 59.8141 15.76C59.5741 15.9 59.3207 15.97 59.0541 15.97ZM66.7913 18.09C66.4113 18.09 66.0646 18.0267 65.7513 17.9C65.4379 17.7667 65.1913 17.5833 65.0113 17.35C64.8313 17.11 64.7413 16.8367 64.7413 16.53C64.7413 16.4767 64.7479 16.4033 64.7613 16.31H65.8713C65.8446 16.5633 65.9213 16.7733 66.1013 16.94C66.2813 17.1067 66.5346 17.19 66.8613 17.19C67.1813 17.19 67.4446 17.1333 67.6513 17.02C67.8579 16.9067 67.9613 16.74 67.9613 16.52C67.9613 16.3333 67.8746 16.1833 67.7013 16.07C67.5346 15.9567 67.2646 15.83 66.8913 15.69C66.5379 15.55 66.2513 15.42 66.0313 15.3C65.8113 15.18 65.6213 15.0167 65.4613 14.81C65.3013 14.5967 65.2213 14.3333 65.2213 14.02C65.2213 13.7 65.3113 13.42 65.4913 13.18C65.6779 12.9333 65.9346 12.7433 66.2613 12.61C66.5946 12.47 66.9746 12.4 67.4013 12.4C67.7879 12.4 68.1313 12.4667 68.4313 12.6C68.7379 12.7267 68.9746 12.91 69.1413 13.15C69.3146 13.3833 69.4013 13.6533 69.4013 13.96C69.4013 14.0533 69.3979 14.1233 69.3913 14.17H68.3113C68.3379 13.91 68.2613 13.7 68.0813 13.54C67.9079 13.38 67.6579 13.3 67.3313 13.3C67.0446 13.3 66.8113 13.36 66.6313 13.48C66.4579 13.6 66.3713 13.7633 66.3713 13.97C66.3713 14.1767 66.4613 14.3433 66.6413 14.47C66.8213 14.59 67.0979 14.7233 67.4712 14.87C67.8113 15.0033 68.0879 15.13 68.3013 15.25C68.5146 15.37 68.6979 15.53 68.8513 15.73C69.0046 15.93 69.0813 16.18 69.0813 16.48C69.0813 16.8067 68.9813 17.0933 68.7813 17.34C68.5879 17.58 68.3179 17.7667 67.9713 17.9C67.6246 18.0267 67.2313 18.09 66.7913 18.09ZM71.703 16.47C71.6897 16.5633 71.683 16.6233 71.683 16.65C71.683 16.79 71.7264 16.8933 71.813 16.96C71.8997 17.02 72.043 17.05 72.243 17.05H72.943L72.773 18H71.873C71.433 18 71.0964 17.9133 70.863 17.74C70.6297 17.56 70.513 17.2767 70.513 16.89C70.513 16.7433 70.5264 16.6033 70.553 16.47L71.093 13.42H70.443L70.603 12.49H71.263L71.503 11.12H72.653L72.413 12.49H73.743L73.583 13.42H72.243L71.703 16.47ZM73.9338 15.22C74.0338 14.6667 74.2338 14.1767 74.5338 13.75C74.8404 13.3233 75.2138 12.9933 75.6538 12.76C76.0938 12.52 76.5538 12.4 77.0338 12.4C77.4671 12.4 77.8304 12.4867 78.1238 12.66C78.4171 12.8267 78.6371 13.0367 78.7838 13.29L78.9238 12.49H80.0738L79.1037 18H77.9538L78.1038 17.18C77.8638 17.44 77.5604 17.6567 77.1938 17.83C76.8338 18.0033 76.4404 18.09 76.0138 18.09C75.6004 18.09 75.2304 17.9967 74.9038 17.81C74.5838 17.6233 74.3304 17.36 74.1438 17.02C73.9638 16.6733 73.8738 16.2767 73.8738 15.83C73.8738 15.63 73.8938 15.4267 73.9338 15.22ZM78.4438 15.24C78.4704 15.1133 78.4838 14.9767 78.4838 14.83C78.4838 14.3833 78.3504 14.0333 78.0838 13.78C77.8238 13.52 77.4971 13.39 77.1038 13.39C76.8104 13.39 76.5238 13.4633 76.2438 13.61C75.9638 13.75 75.7204 13.96 75.5138 14.24C75.3071 14.5133 75.1704 14.84 75.1038 15.22C75.0771 15.3467 75.0637 15.4833 75.0637 15.63C75.0637 16.0833 75.1938 16.4433 75.4538 16.71C75.7204 16.97 76.0504 17.1 76.4438 17.1C76.7371 17.1 77.0238 17.0267 77.3038 16.88C77.5838 16.7333 77.8271 16.52 78.0338 16.24C78.2404 15.9533 78.3771 15.62 78.4438 15.24ZM82.5411 13.46C82.7678 13.1267 83.0344 12.8667 83.3411 12.68C83.6544 12.4933 84.0011 12.4 84.3811 12.4L84.1711 13.58H83.8811C83.4411 13.58 83.0878 13.69 82.8211 13.91C82.5544 14.13 82.3678 14.51 82.2611 15.05L81.7411 18H80.6011L81.5711 12.49H82.7111L82.5411 13.46ZM86.039 16.47C86.0257 16.5633 86.019 16.6233 86.019 16.65C86.019 16.79 86.0623 16.8933 86.149 16.96C86.2357 17.02 86.379 17.05 86.579 17.05H87.279L87.109 18H86.209C85.769 18 85.4323 17.9133 85.199 17.74C84.9657 17.56 84.849 17.2767 84.849 16.89C84.849 16.7433 84.8623 16.6033 84.889 16.47L85.429 13.42H84.779L84.939 12.49H85.599L85.839 11.12H86.989L86.749 12.49H88.079L87.919 13.42H86.579L86.039 16.47ZM93.1877 18.09C92.8077 18.09 92.4611 18.0267 92.1477 17.9C91.8344 17.7667 91.5877 17.5833 91.4077 17.35C91.2277 17.11 91.1377 16.8367 91.1377 16.53C91.1377 16.4767 91.1444 16.4033 91.1577 16.31H92.2677C92.2411 16.5633 92.3177 16.7733 92.4977 16.94C92.6777 17.1067 92.9311 17.19 93.2577 17.19C93.5777 17.19 93.8411 17.1333 94.0477 17.02C94.2544 16.9067 94.3577 16.74 94.3577 16.52C94.3577 16.3333 94.2711 16.1833 94.0977 16.07C93.9311 15.9567 93.6611 15.83 93.2877 15.69C92.9344 15.55 92.6477 15.42 92.4277 15.3C92.2077 15.18 92.0177 15.0167 91.8577 14.81C91.6977 14.5967 91.6177 14.3333 91.6177 14.02C91.6177 13.7 91.7077 13.42 91.8877 13.18C92.0744 12.9333 92.3311 12.7433 92.6577 12.61C92.9911 12.47 93.3711 12.4 93.7977 12.4C94.1844 12.4 94.5277 12.4667 94.8277 12.6C95.1344 12.7267 95.3711 12.91 95.5377 13.15C95.7111 13.3833 95.7977 13.6533 95.7977 13.96C95.7977 14.0533 95.7944 14.1233 95.7877 14.17H94.7077C94.7344 13.91 94.6577 13.7 94.4777 13.54C94.3044 13.38 94.0544 13.3 93.7277 13.3C93.4411 13.3 93.2077 13.36 93.0277 13.48C92.8544 13.6 92.7677 13.7633 92.7677 13.97C92.7677 14.1767 92.8577 14.3433 93.0377 14.47C93.2177 14.59 93.4944 14.7233 93.8677 14.87C94.2077 15.0033 94.4844 15.13 94.6977 15.25C94.9111 15.37 95.0944 15.53 95.2477 15.73C95.4011 15.93 95.4777 16.18 95.4777 16.48C95.4777 16.8067 95.3777 17.0933 95.1777 17.34C94.9844 17.58 94.7144 17.7667 94.3677 17.9C94.0211 18.0267 93.6277 18.09 93.1877 18.09ZM99.8595 12.4C100.546 12.4 101.093 12.5933 101.5 12.98C101.913 13.3667 102.12 13.8867 102.12 14.54C102.12 14.6933 102.103 14.8767 102.07 15.09C102.043 15.2367 101.996 15.4167 101.93 15.63H97.7195C97.7129 15.6767 97.7095 15.7467 97.7095 15.84C97.7095 16.2333 97.8295 16.5467 98.0695 16.78C98.3162 17.0133 98.6362 17.13 99.0295 17.13C99.6495 17.13 100.126 16.8733 100.46 16.36H101.69C101.436 16.8667 101.063 17.2833 100.57 17.61C100.076 17.93 99.5062 18.09 98.8595 18.09C98.3995 18.09 97.9962 18 97.6495 17.82C97.3029 17.64 97.0329 17.3833 96.8395 17.05C96.6462 16.71 96.5495 16.3133 96.5495 15.86C96.5495 15.6667 96.5695 15.46 96.6095 15.24C96.7095 14.6733 96.9129 14.1767 97.2195 13.75C97.5262 13.3167 97.9062 12.9833 98.3595 12.75C98.8195 12.5167 99.3195 12.4 99.8595 12.4ZM100.93 14.81C100.943 14.69 100.95 14.6033 100.95 14.55C100.95 14.1833 100.826 13.8933 100.58 13.68C100.34 13.4667 100.026 13.36 99.6395 13.36C99.2329 13.36 98.8662 13.49 98.5395 13.75C98.2129 14.01 97.9895 14.3633 97.8695 14.81H100.93ZM104.271 16.47C104.258 16.5633 104.251 16.6233 104.251 16.65C104.251 16.79 104.295 16.8933 104.381 16.96C104.468 17.02 104.611 17.05 104.811 17.05H105.511L105.341 18H104.441C104.001 18 103.665 17.9133 103.431 17.74C103.198 17.56 103.081 17.2767 103.081 16.89C103.081 16.7433 103.095 16.6033 103.121 16.47L103.661 13.42H103.011L103.171 12.49H103.831L104.071 11.12H105.221L104.981 12.49H106.311L106.151 13.42H104.811L104.271 16.47ZM107.992 16.47C107.979 16.5633 107.972 16.6233 107.972 16.65C107.972 16.79 108.015 16.8933 108.102 16.96C108.189 17.02 108.332 17.05 108.532 17.05H109.232L109.062 18H108.162C107.722 18 107.385 17.9133 107.152 17.74C106.919 17.56 106.802 17.2767 106.802 16.89C106.802 16.7433 106.815 16.6033 106.842 16.47L107.382 13.42H106.732L106.892 12.49H107.552L107.792 11.12H108.942L108.702 12.49H110.032L109.872 13.42H108.532L107.992 16.47ZM111.793 11.76C111.613 11.76 111.466 11.7033 111.353 11.59C111.239 11.4767 111.183 11.3333 111.183 11.16C111.183 10.9267 111.269 10.7267 111.443 10.56C111.623 10.3867 111.826 10.3 112.053 10.3C112.233 10.3 112.376 10.3567 112.483 10.47C112.596 10.5833 112.653 10.7267 112.653 10.9C112.653 11.1333 112.566 11.3367 112.393 11.51C112.219 11.6767 112.019 11.76 111.793 11.76ZM112.223 12.49L111.253 18H110.113L111.083 12.49H112.223ZM116.52 12.4C117.1 12.4 117.56 12.5567 117.9 12.87C118.246 13.1767 118.42 13.62 118.42 14.2C118.42 14.3467 118.403 14.53 118.37 14.75L117.79 18H116.66L117.21 14.92C117.236 14.7333 117.25 14.6 117.25 14.52C117.25 14.1533 117.146 13.8733 116.94 13.68C116.74 13.4867 116.46 13.39 116.1 13.39C115.666 13.39 115.3 13.5233 115 13.79C114.706 14.05 114.52 14.4267 114.44 14.92V14.89L113.89 18H112.75L113.72 12.49H114.86L114.75 13.13C114.976 12.9033 115.243 12.7267 115.55 12.6C115.863 12.4667 116.186 12.4 116.52 12.4ZM122.454 12.4C122.88 12.4 123.244 12.4867 123.544 12.66C123.85 12.8267 124.07 13.0367 124.204 13.29L124.344 12.49H125.494L124.514 18.09C124.42 18.5967 124.234 19.0467 123.954 19.44C123.674 19.84 123.31 20.1533 122.864 20.38C122.417 20.6067 121.914 20.72 121.354 20.72C120.867 20.72 120.44 20.64 120.074 20.48C119.707 20.3267 119.43 20.1033 119.244 19.81C119.057 19.5167 118.977 19.17 119.004 18.77H120.134C120.167 19.0567 120.31 19.2867 120.564 19.46C120.817 19.64 121.14 19.73 121.534 19.73C121.994 19.73 122.39 19.59 122.724 19.31C123.057 19.03 123.27 18.6233 123.364 18.09L123.524 17.17C123.284 17.43 122.984 17.65 122.624 17.83C122.264 18.0033 121.874 18.09 121.454 18.09C121.034 18.09 120.66 17.9967 120.334 17.81C120.007 17.6233 119.75 17.36 119.564 17.02C119.384 16.6733 119.294 16.2767 119.294 15.83C119.294 15.63 119.314 15.4267 119.354 15.22C119.454 14.6667 119.654 14.1767 119.954 13.75C120.26 13.3233 120.634 12.9933 121.074 12.76C121.514 12.52 121.974 12.4 122.454 12.4ZM123.864 15.24C123.89 15.1133 123.904 14.9767 123.904 14.83C123.904 14.3833 123.77 14.0333 123.504 13.78C123.244 13.52 122.917 13.39 122.524 13.39C122.23 13.39 121.944 13.4633 121.664 13.61C121.384 13.75 121.14 13.96 120.934 14.24C120.727 14.5133 120.59 14.84 120.524 15.22C120.497 15.3467 120.484 15.4833 120.484 15.63C120.484 16.0833 120.614 16.4433 120.874 16.71C121.14 16.97 121.47 17.1 121.864 17.1C122.157 17.1 122.444 17.0267 122.724 16.88C123.004 16.7333 123.247 16.52 123.454 16.24C123.66 15.9533 123.797 15.62 123.864 15.24ZM128.051 18.09C127.671 18.09 127.324 18.0267 127.011 17.9C126.698 17.7667 126.451 17.5833 126.271 17.35C126.091 17.11 126.001 16.8367 126.001 16.53C126.001 16.4767 126.008 16.4033 126.021 16.31H127.131C127.104 16.5633 127.181 16.7733 127.361 16.94C127.541 17.1067 127.794 17.19 128.121 17.19C128.441 17.19 128.704 17.1333 128.911 17.02C129.118 16.9067 129.221 16.74 129.221 16.52C129.221 16.3333 129.134 16.1833 128.961 16.07C128.794 15.9567 128.524 15.83 128.151 15.69C127.798 15.55 127.511 15.42 127.291 15.3C127.071 15.18 126.881 15.0167 126.721 14.81C126.561 14.5967 126.481 14.3333 126.481 14.02C126.481 13.7 126.571 13.42 126.751 13.18C126.938 12.9333 127.194 12.7433 127.521 12.61C127.854 12.47 128.234 12.4 128.661 12.4C129.048 12.4 129.391 12.4667 129.691 12.6C129.998 12.7267 130.234 12.91 130.401 13.15C130.574 13.3833 130.661 13.6533 130.661 13.96C130.661 14.0533 130.658 14.1233 130.651 14.17H129.571C129.598 13.91 129.521 13.7 129.341 13.54C129.168 13.38 128.918 13.3 128.591 13.3C128.304 13.3 128.071 13.36 127.891 13.48C127.718 13.6 127.631 13.7633 127.631 13.97C127.631 14.1767 127.721 14.3433 127.901 14.47C128.081 14.59 128.358 14.7233 128.731 14.87C129.071 15.0033 129.348 15.13 129.561 15.25C129.774 15.37 129.958 15.53 130.111 15.73C130.264 15.93 130.341 16.18 130.341 16.48C130.341 16.8067 130.241 17.0933 130.041 17.34C129.848 17.58 129.578 17.7667 129.231 17.9C128.884 18.0267 128.491 18.09 128.051 18.09Z" fill="white" fill-opacity="0.5"/>
</svg>
