<svg xmlns="http://www.w3.org/2000/svg" fill="none" viewBox="0 0 140 42" height="42" width="140">
<path fill="black" d="M2.268 17.764V20.212H5.148V21.328H2.268V23.884H5.508V25H0.9V16.648H5.508V17.764H2.268ZM8.56097 16.12V25H7.19297V16.12H8.56097ZM16.417 21.532C16.417 21.78 16.401 22.004 16.369 22.204H11.317C11.357 22.732 11.553 23.156 11.905 23.476C12.257 23.796 12.689 23.956 13.201 23.956C13.937 23.956 14.457 23.648 14.761 23.032H16.237C16.037 23.64 15.673 24.14 15.145 24.532C14.625 24.916 13.977 25.108 13.201 25.108C12.569 25.108 12.001 24.968 11.497 24.688C11.001 24.4 10.609 24 10.321 23.488C10.041 22.968 9.90103 22.368 9.90103 21.688C9.90103 21.008 10.037 20.412 10.309 19.9C10.589 19.38 10.977 18.98 11.473 18.7C11.977 18.42 12.553 18.28 13.201 18.28C13.825 18.28 14.381 18.416 14.869 18.688C15.357 18.96 15.737 19.344 16.009 19.84C16.281 20.328 16.417 20.892 16.417 21.532ZM14.989 21.1C14.981 20.596 14.801 20.192 14.449 19.888C14.097 19.584 13.661 19.432 13.141 19.432C12.669 19.432 12.265 19.584 11.929 19.888C11.593 20.184 11.393 20.588 11.329 21.1H14.989ZM17.3073 21.688C17.3073 21.008 17.4433 20.412 17.7153 19.9C17.9953 19.38 18.3793 18.98 18.8673 18.7C19.3553 18.42 19.9153 18.28 20.5473 18.28C21.3473 18.28 22.0073 18.472 22.5273 18.856C23.0553 19.232 23.4113 19.772 23.5953 20.476H22.1193C21.9993 20.148 21.8073 19.892 21.5433 19.708C21.2793 19.524 20.9473 19.432 20.5473 19.432C19.9873 19.432 19.5393 19.632 19.2033 20.032C18.8753 20.424 18.7113 20.976 18.7113 21.688C18.7113 22.4 18.8753 22.956 19.2033 23.356C19.5393 23.756 19.9873 23.956 20.5473 23.956C21.3393 23.956 21.8633 23.608 22.1193 22.912H23.5953C23.4033 23.584 23.0433 24.12 22.5153 24.52C21.9873 24.912 21.3313 25.108 20.5473 25.108C19.9153 25.108 19.3553 24.968 18.8673 24.688C18.3793 24.4 17.9953 24 17.7153 23.488C17.4433 22.968 17.3073 22.368 17.3073 21.688ZM26.5546 19.504V23.164C26.5546 23.412 26.6106 23.592 26.7226 23.704C26.8426 23.808 27.0426 23.86 27.3226 23.86H28.1626V25H27.0826C26.4666 25 25.9946 24.856 25.6666 24.568C25.3386 24.28 25.1746 23.812 25.1746 23.164V19.504H24.3946V18.388H25.1746V16.744H26.5546V18.388H28.1626V19.504H26.5546ZM30.7914 19.348C30.9914 19.012 31.2554 18.752 31.5834 18.568C31.9194 18.376 32.3154 18.28 32.7714 18.28V19.696H32.4234C31.8874 19.696 31.4794 19.832 31.1994 20.104C30.9274 20.376 30.7914 20.848 30.7914 21.52V25H29.4234V18.388H30.7914V19.348ZM34.7249 17.512C34.4769 17.512 34.2689 17.428 34.1009 17.26C33.9329 17.092 33.8489 16.884 33.8489 16.636C33.8489 16.388 33.9329 16.18 34.1009 16.012C34.2689 15.844 34.4769 15.76 34.7249 15.76C34.9649 15.76 35.1689 15.844 35.3369 16.012C35.5049 16.18 35.5889 16.388 35.5889 16.636C35.5889 16.884 35.5049 17.092 35.3369 17.26C35.1689 17.428 34.9649 17.512 34.7249 17.512ZM35.3969 18.388V25H34.0289V18.388H35.3969ZM36.737 21.688C36.737 21.008 36.873 20.412 37.145 19.9C37.425 19.38 37.809 18.98 38.297 18.7C38.785 18.42 39.345 18.28 39.977 18.28C40.777 18.28 41.437 18.472 41.957 18.856C42.485 19.232 42.841 19.772 43.025 20.476H41.549C41.429 20.148 41.237 19.892 40.973 19.708C40.709 19.524 40.377 19.432 39.977 19.432C39.417 19.432 38.969 19.632 38.633 20.032C38.305 20.424 38.141 20.976 38.141 21.688C38.141 22.4 38.305 22.956 38.633 23.356C38.969 23.756 39.417 23.956 39.977 23.956C40.769 23.956 41.293 23.608 41.549 22.912H43.025C42.833 23.584 42.473 24.12 41.945 24.52C41.417 24.912 40.761 25.108 39.977 25.108C39.345 25.108 38.785 24.968 38.297 24.688C37.809 24.4 37.425 24 37.145 23.488C36.873 22.968 36.737 22.368 36.737 21.688ZM50.1695 18.28C50.6815 18.28 51.1335 18.384 51.5255 18.592C51.9255 18.792 52.2375 19.044 52.4615 19.348V18.388H53.8415V25.108C53.8415 25.716 53.7135 26.256 53.4575 26.728C53.2015 27.208 52.8295 27.584 52.3415 27.856C51.8615 28.128 51.2855 28.264 50.6135 28.264C49.7175 28.264 48.9735 28.052 48.3815 27.628C47.7895 27.212 47.4535 26.644 47.3735 25.924H48.7295C48.8335 26.268 49.0535 26.544 49.3895 26.752C49.7335 26.968 50.1415 27.076 50.6135 27.076C51.1655 27.076 51.6095 26.908 51.9455 26.572C52.2895 26.236 52.4615 25.748 52.4615 25.108V24.004C52.2295 24.316 51.9135 24.58 51.5135 24.796C51.1215 25.004 50.6735 25.108 50.1695 25.108C49.5935 25.108 49.0655 24.964 48.5855 24.676C48.1135 24.38 47.7375 23.972 47.4575 23.452C47.1855 22.924 47.0495 22.328 47.0495 21.664C47.0495 21 47.1855 20.412 47.4575 19.9C47.7375 19.388 48.1135 18.992 48.5855 18.712C49.0655 18.424 49.5935 18.28 50.1695 18.28ZM52.4615 21.688C52.4615 21.232 52.3655 20.836 52.1735 20.5C51.9895 20.164 51.7455 19.908 51.4415 19.732C51.1375 19.556 50.8095 19.468 50.4575 19.468C50.1055 19.468 49.7775 19.556 49.4735 19.732C49.1695 19.9 48.9215 20.152 48.7295 20.488C48.5455 20.816 48.4535 21.208 48.4535 21.664C48.4535 22.12 48.5455 22.52 48.7295 22.864C48.9215 23.208 49.1695 23.472 49.4735 23.656C49.7855 23.832 50.1135 23.92 50.4575 23.92C50.8095 23.92 51.1375 23.832 51.4415 23.656C51.7455 23.48 51.9895 23.224 52.1735 22.888C52.3655 22.544 52.4615 22.144 52.4615 21.688ZM61.6263 18.388V25H60.2583V24.22C60.0423 24.492 59.7583 24.708 59.4063 24.868C59.0623 25.02 58.6943 25.096 58.3023 25.096C57.7823 25.096 57.3143 24.988 56.8983 24.772C56.4903 24.556 56.1663 24.236 55.9263 23.812C55.6943 23.388 55.5783 22.876 55.5783 22.276V18.388H56.9343V22.072C56.9343 22.664 57.0823 23.12 57.3783 23.44C57.6743 23.752 58.0783 23.908 58.5903 23.908C59.1023 23.908 59.5063 23.752 59.8023 23.44C60.1063 23.12 60.2583 22.664 60.2583 22.072V18.388H61.6263ZM64.1273 17.512C63.8793 17.512 63.6713 17.428 63.5033 17.26C63.3353 17.092 63.2513 16.884 63.2513 16.636C63.2513 16.388 63.3353 16.18 63.5033 16.012C63.6713 15.844 63.8793 15.76 64.1273 15.76C64.3673 15.76 64.5713 15.844 64.7393 16.012C64.9073 16.18 64.9913 16.388 64.9913 16.636C64.9913 16.884 64.9073 17.092 64.7393 17.26C64.5713 17.428 64.3673 17.512 64.1273 17.512ZM64.7993 18.388V25H63.4313V18.388H64.7993ZM68.1913 19.504V23.164C68.1913 23.412 68.2473 23.592 68.3593 23.704C68.4793 23.808 68.6793 23.86 68.9593 23.86H69.7993V25H68.7193C68.1033 25 67.6313 24.856 67.3033 24.568C66.9753 24.28 66.8113 23.812 66.8113 23.164V19.504H66.0313V18.388H66.8113V16.744H68.1913V18.388H69.7993V19.504H68.1913ZM70.6042 21.664C70.6042 21 70.7402 20.412 71.0122 19.9C71.2922 19.388 71.6682 18.992 72.1402 18.712C72.6202 18.424 73.1482 18.28 73.7242 18.28C74.2442 18.28 74.6962 18.384 75.0802 18.592C75.4722 18.792 75.7842 19.044 76.0162 19.348V18.388H77.3962V25H76.0162V24.016C75.7842 24.328 75.4682 24.588 75.0682 24.796C74.6682 25.004 74.2122 25.108 73.7002 25.108C73.1322 25.108 72.6122 24.964 72.1402 24.676C71.6682 24.38 71.2922 23.972 71.0122 23.452C70.7402 22.924 70.6042 22.328 70.6042 21.664ZM76.0162 21.688C76.0162 21.232 75.9202 20.836 75.7282 20.5C75.5442 20.164 75.3002 19.908 74.9962 19.732C74.6922 19.556 74.3642 19.468 74.0122 19.468C73.6602 19.468 73.3322 19.556 73.0282 19.732C72.7242 19.9 72.4762 20.152 72.2842 20.488C72.1002 20.816 72.0082 21.208 72.0082 21.664C72.0082 22.12 72.1002 22.52 72.2842 22.864C72.4762 23.208 72.7242 23.472 73.0282 23.656C73.3402 23.832 73.6682 23.92 74.0122 23.92C74.3642 23.92 74.6922 23.832 74.9962 23.656C75.3002 23.48 75.5442 23.224 75.7282 22.888C75.9202 22.544 76.0162 22.144 76.0162 21.688ZM80.561 19.348C80.761 19.012 81.025 18.752 81.353 18.568C81.689 18.376 82.085 18.28 82.541 18.28V19.696H82.193C81.657 19.696 81.249 19.832 80.969 20.104C80.697 20.376 80.561 20.848 80.561 21.52V25H79.193V18.388H80.561V19.348Z"></path>
</svg>
