<svg width="480" height="360" viewBox="0 0 480 360" fill="none" xmlns="http://www.w3.org/2000/svg">
<rect x="290" y="150" width="180" height="120" rx="15" fill="black" fill-opacity="0.5"/>
<path d="M377 200H383C384.105 200 385 200.895 385 202V208C385 209.105 384.105 210 383 210H377C375.895 210 375 209.105 375 208V202C375 200.895 375.895 200 377 200Z" stroke="white" stroke-width="2"/>
<path d="M416.53 200.26L422.756 204.152C423.383 204.544 423.383 205.456 422.756 205.848L416.53 209.74C415.864 210.156 415 209.677 415 208.892V201.108C415 200.323 415.864 199.844 416.53 200.26Z" stroke="white" stroke-width="2"/>
<rect x="424" y="199" width="2" height="12" rx="1" fill="white"/>
<path d="M343.47 209.74L337.244 205.848C336.617 205.456 336.617 204.544 337.244 204.152L343.47 200.26C344.136 199.844 345 200.323 345 201.108L345 208.892C345 209.677 344.136 210.156 343.47 209.74Z" stroke="white" stroke-width="2"/>
<rect x="336" y="211" width="2" height="12" rx="1" transform="rotate(180 336 211)" fill="white"/>
<path d="M354.943 164.05V171H353.803V167.96H350.533V171H349.393V164.05H350.533V167.03H353.803V164.05H354.943ZM361.493 168.11C361.493 168.317 361.48 168.503 361.453 168.67H357.243C357.277 169.11 357.44 169.463 357.733 169.73C358.027 169.997 358.387 170.13 358.813 170.13C359.427 170.13 359.86 169.873 360.113 169.36H361.343C361.177 169.867 360.873 170.283 360.433 170.61C360 170.93 359.46 171.09 358.813 171.09C358.287 171.09 357.813 170.973 357.393 170.74C356.98 170.5 356.653 170.167 356.413 169.74C356.18 169.307 356.063 168.807 356.063 168.24C356.063 167.673 356.177 167.177 356.403 166.75C356.637 166.317 356.96 165.983 357.373 165.75C357.793 165.517 358.273 165.4 358.813 165.4C359.333 165.4 359.797 165.513 360.203 165.74C360.61 165.967 360.927 166.287 361.153 166.7C361.38 167.107 361.493 167.577 361.493 168.11ZM360.303 167.75C360.297 167.33 360.147 166.993 359.853 166.74C359.56 166.487 359.197 166.36 358.763 166.36C358.37 166.36 358.033 166.487 357.753 166.74C357.473 166.987 357.307 167.323 357.253 167.75H360.303ZM363.755 166.29C363.922 166.01 364.142 165.793 364.415 165.64C364.695 165.48 365.025 165.4 365.405 165.4V166.58H365.115C364.669 166.58 364.329 166.693 364.095 166.92C363.869 167.147 363.755 167.54 363.755 168.1V171H362.615V165.49H363.755V166.29ZM371.503 168.11C371.503 168.317 371.49 168.503 371.463 168.67H367.253C367.286 169.11 367.45 169.463 367.743 169.73C368.036 169.997 368.396 170.13 368.823 170.13C369.436 170.13 369.87 169.873 370.123 169.36H371.353C371.186 169.867 370.883 170.283 370.443 170.61C370.01 170.93 369.47 171.09 368.823 171.09C368.296 171.09 367.823 170.973 367.403 170.74C366.99 170.5 366.663 170.167 366.423 169.74C366.19 169.307 366.073 168.807 366.073 168.24C366.073 167.673 366.186 167.177 366.413 166.75C366.646 166.317 366.97 165.983 367.383 165.75C367.803 165.517 368.283 165.4 368.823 165.4C369.343 165.4 369.806 165.513 370.213 165.74C370.62 165.967 370.936 166.287 371.163 166.7C371.39 167.107 371.503 167.577 371.503 168.11ZM370.313 167.75C370.306 167.33 370.156 166.993 369.863 166.74C369.57 166.487 369.206 166.36 368.773 166.36C368.38 166.36 368.043 166.487 367.763 166.74C367.483 166.987 367.316 167.323 367.263 167.75H370.313ZM379.313 164.05V164.98H376.363V167.03H378.663V167.96H376.363V171H375.223V164.05H379.313ZM382.759 171.09C382.239 171.09 381.769 170.973 381.349 170.74C380.929 170.5 380.599 170.167 380.359 169.74C380.119 169.307 379.999 168.807 379.999 168.24C379.999 167.68 380.122 167.183 380.369 166.75C380.616 166.317 380.952 165.983 381.379 165.75C381.806 165.517 382.282 165.4 382.809 165.4C383.336 165.4 383.812 165.517 384.239 165.75C384.666 165.983 385.002 166.317 385.249 166.75C385.496 167.183 385.619 167.68 385.619 168.24C385.619 168.8 385.492 169.297 385.239 169.73C384.986 170.163 384.639 170.5 384.199 170.74C383.766 170.973 383.286 171.09 382.759 171.09ZM382.759 170.1C383.052 170.1 383.326 170.03 383.579 169.89C383.839 169.75 384.049 169.54 384.209 169.26C384.369 168.98 384.449 168.64 384.449 168.24C384.449 167.84 384.372 167.503 384.219 167.23C384.066 166.95 383.862 166.74 383.609 166.6C383.356 166.46 383.082 166.39 382.789 166.39C382.496 166.39 382.222 166.46 381.969 166.6C381.722 166.74 381.526 166.95 381.379 167.23C381.232 167.503 381.159 167.84 381.159 168.24C381.159 168.833 381.309 169.293 381.609 169.62C381.916 169.94 382.299 170.1 382.759 170.1ZM387.886 166.29C388.053 166.01 388.273 165.793 388.546 165.64C388.826 165.48 389.156 165.4 389.536 165.4V166.58H389.246C388.799 166.58 388.459 166.693 388.226 166.92C387.999 167.147 387.886 167.54 387.886 168.1V171H386.746V165.49H387.886V166.29ZM398.332 164.05L396.032 168.48V171H394.892V168.48L392.582 164.05H393.852L395.462 167.46L397.072 164.05H398.332ZM401.626 171.09C401.106 171.09 400.636 170.973 400.216 170.74C399.796 170.5 399.466 170.167 399.226 169.74C398.986 169.307 398.866 168.807 398.866 168.24C398.866 167.68 398.99 167.183 399.236 166.75C399.483 166.317 399.82 165.983 400.246 165.75C400.673 165.517 401.15 165.4 401.676 165.4C402.203 165.4 402.68 165.517 403.106 165.75C403.533 165.983 403.87 166.317 404.116 166.75C404.363 167.183 404.486 167.68 404.486 168.24C404.486 168.8 404.36 169.297 404.106 169.73C403.853 170.163 403.506 170.5 403.066 170.74C402.633 170.973 402.153 171.09 401.626 171.09ZM401.626 170.1C401.92 170.1 402.193 170.03 402.446 169.89C402.706 169.75 402.916 169.54 403.076 169.26C403.236 168.98 403.316 168.64 403.316 168.24C403.316 167.84 403.24 167.503 403.086 167.23C402.933 166.95 402.73 166.74 402.476 166.6C402.223 166.46 401.95 166.39 401.656 166.39C401.363 166.39 401.09 166.46 400.836 166.6C400.59 166.74 400.393 166.95 400.246 167.23C400.1 167.503 400.026 167.84 400.026 168.24C400.026 168.833 400.176 169.293 400.476 169.62C400.783 169.94 401.166 170.1 401.626 170.1ZM410.603 165.49V171H409.463V170.35C409.283 170.577 409.047 170.757 408.753 170.89C408.467 171.017 408.16 171.08 407.833 171.08C407.4 171.08 407.01 170.99 406.663 170.81C406.323 170.63 406.053 170.363 405.853 170.01C405.66 169.657 405.563 169.23 405.563 168.73V165.49H406.693V168.56C406.693 169.053 406.817 169.433 407.063 169.7C407.31 169.96 407.647 170.09 408.073 170.09C408.5 170.09 408.837 169.96 409.083 169.7C409.337 169.433 409.463 169.053 409.463 168.56V165.49H410.603Z" fill="white"/>
<path d="M367.068 178.44L364.98 184H363.924L361.828 178.44H362.804L364.452 183.064L366.108 178.44H367.068ZM371.87 181.688C371.87 181.853 371.86 182.003 371.838 182.136H368.47C368.497 182.488 368.628 182.771 368.862 182.984C369.097 183.197 369.385 183.304 369.726 183.304C370.217 183.304 370.564 183.099 370.766 182.688H371.75C371.617 183.093 371.374 183.427 371.022 183.688C370.676 183.944 370.244 184.072 369.726 184.072C369.305 184.072 368.926 183.979 368.59 183.792C368.26 183.6 367.998 183.333 367.806 182.992C367.62 182.645 367.526 182.245 367.526 181.792C367.526 181.339 367.617 180.941 367.798 180.6C367.985 180.253 368.244 179.987 368.574 179.8C368.91 179.613 369.294 179.52 369.726 179.52C370.142 179.52 370.513 179.611 370.838 179.792C371.164 179.973 371.417 180.229 371.598 180.56C371.78 180.885 371.87 181.261 371.87 181.688ZM370.918 181.4C370.913 181.064 370.793 180.795 370.558 180.592C370.324 180.389 370.033 180.288 369.686 180.288C369.372 180.288 369.102 180.389 368.878 180.592C368.654 180.789 368.521 181.059 368.478 181.4H370.918ZM374.992 179.52C375.339 179.52 375.648 179.592 375.92 179.736C376.197 179.88 376.413 180.093 376.568 180.376C376.723 180.659 376.8 181 376.8 181.4V184H375.896V181.536C375.896 181.141 375.797 180.84 375.6 180.632C375.403 180.419 375.133 180.312 374.792 180.312C374.451 180.312 374.179 180.419 373.976 180.632C373.779 180.84 373.68 181.141 373.68 181.536V184H372.768V179.592H373.68V180.096C373.829 179.915 374.019 179.773 374.248 179.672C374.483 179.571 374.731 179.52 374.992 179.52ZM377.659 181.776C377.659 181.333 377.75 180.941 377.931 180.6C378.118 180.259 378.369 179.995 378.683 179.808C379.003 179.616 379.358 179.52 379.747 179.52C380.035 179.52 380.318 179.584 380.595 179.712C380.878 179.835 381.102 180 381.267 180.208V178.08H382.187V184H381.267V183.336C381.118 183.549 380.91 183.725 380.643 183.864C380.382 184.003 380.081 184.072 379.739 184.072C379.355 184.072 379.003 183.976 378.683 183.784C378.369 183.587 378.118 183.315 377.931 182.968C377.75 182.616 377.659 182.219 377.659 181.776ZM381.267 181.792C381.267 181.488 381.203 181.224 381.075 181C380.953 180.776 380.79 180.605 380.587 180.488C380.385 180.371 380.166 180.312 379.931 180.312C379.697 180.312 379.478 180.371 379.275 180.488C379.073 180.6 378.907 180.768 378.779 180.992C378.657 181.211 378.595 181.472 378.595 181.776C378.595 182.08 378.657 182.347 378.779 182.576C378.907 182.805 379.073 182.981 379.275 183.104C379.483 183.221 379.702 183.28 379.931 183.28C380.166 183.28 380.385 183.221 380.587 183.104C380.79 182.987 380.953 182.816 381.075 182.592C381.203 182.363 381.267 182.096 381.267 181.792ZM384.297 180.232C384.43 180.008 384.606 179.835 384.825 179.712C385.049 179.584 385.313 179.52 385.617 179.52V180.464H385.385C385.028 180.464 384.756 180.555 384.569 180.736C384.388 180.917 384.297 181.232 384.297 181.68V184H383.385V179.592H384.297V180.232ZM390.495 181.688C390.495 181.853 390.485 182.003 390.463 182.136H387.095C387.122 182.488 387.253 182.771 387.487 182.984C387.722 183.197 388.01 183.304 388.351 183.304C388.842 183.304 389.189 183.099 389.391 182.688H390.375C390.242 183.093 389.999 183.427 389.647 183.688C389.301 183.944 388.869 184.072 388.351 184.072C387.93 184.072 387.551 183.979 387.215 183.792C386.885 183.6 386.623 183.333 386.431 182.992C386.245 182.645 386.151 182.245 386.151 181.792C386.151 181.339 386.242 180.941 386.423 180.6C386.61 180.253 386.869 179.987 387.199 179.8C387.535 179.613 387.919 179.52 388.351 179.52C388.767 179.52 389.138 179.611 389.463 179.792C389.789 179.973 390.042 180.229 390.223 180.56C390.405 180.885 390.495 181.261 390.495 181.688ZM389.543 181.4C389.538 181.064 389.418 180.795 389.183 180.592C388.949 180.389 388.658 180.288 388.311 180.288C387.997 180.288 387.727 180.389 387.503 180.592C387.279 180.789 387.146 181.059 387.103 181.4H389.543ZM391.089 181.776C391.089 181.333 391.18 180.941 391.361 180.6C391.548 180.259 391.798 179.995 392.113 179.808C392.433 179.616 392.788 179.52 393.177 179.52C393.465 179.52 393.748 179.584 394.025 179.712C394.308 179.835 394.532 180 394.697 180.208V178.08H395.617V184H394.697V183.336C394.548 183.549 394.34 183.725 394.073 183.864C393.812 184.003 393.51 184.072 393.169 184.072C392.785 184.072 392.433 183.976 392.113 183.784C391.798 183.587 391.548 183.315 391.361 182.968C391.18 182.616 391.089 182.219 391.089 181.776ZM394.697 181.792C394.697 181.488 394.633 181.224 394.505 181C394.382 180.776 394.22 180.605 394.017 180.488C393.814 180.371 393.596 180.312 393.361 180.312C393.126 180.312 392.908 180.371 392.705 180.488C392.502 180.6 392.337 180.768 392.209 180.992C392.086 181.211 392.025 181.472 392.025 181.776C392.025 182.08 392.086 182.347 392.209 182.576C392.337 182.805 392.502 182.981 392.705 183.104C392.913 183.221 393.132 183.28 393.361 183.28C393.596 183.28 393.814 183.221 394.017 183.104C394.22 182.987 394.382 182.816 394.505 182.592C394.633 182.363 394.697 182.096 394.697 181.792ZM397.279 179.008C397.114 179.008 396.975 178.952 396.863 178.84C396.751 178.728 396.695 178.589 396.695 178.424C396.695 178.259 396.751 178.12 396.863 178.008C396.975 177.896 397.114 177.84 397.279 177.84C397.439 177.84 397.575 177.896 397.687 178.008C397.799 178.12 397.855 178.259 397.855 178.424C397.855 178.589 397.799 178.728 397.687 178.84C397.575 178.952 397.439 179.008 397.279 179.008ZM397.727 179.592V184H396.815V179.592H397.727Z" fill="#808080"/>
<rect x="305" y="235" width="150" height="20" rx="10" fill="white" fill-opacity="0.1"/>
</svg>
