<svg xmlns="http://www.w3.org/2000/svg" fill="none" viewBox="0 0 140 42" height="42" width="140">
<path fill="black" d="M0.444 20.812C0.444 19.996 0.632 19.264 1.008 18.616C1.392 17.968 1.908 17.464 2.556 17.104C3.212 16.736 3.928 16.552 4.704 16.552C5.592 16.552 6.38 16.772 7.068 17.212C7.764 17.644 8.268 18.26 8.58 19.06H6.936C6.72 18.62 6.42 18.292 6.036 18.076C5.652 17.86 5.208 17.752 4.704 17.752C4.152 17.752 3.66 17.876 3.228 18.124C2.796 18.372 2.456 18.728 2.208 19.192C1.968 19.656 1.848 20.196 1.848 20.812C1.848 21.428 1.968 21.968 2.208 22.432C2.456 22.896 2.796 23.256 3.228 23.512C3.66 23.76 4.152 23.884 4.704 23.884C5.208 23.884 5.652 23.776 6.036 23.56C6.42 23.344 6.72 23.016 6.936 22.576H8.58C8.268 23.376 7.764 23.992 7.068 24.424C6.38 24.856 5.592 25.072 4.704 25.072C3.92 25.072 3.204 24.892 2.556 24.532C1.908 24.164 1.392 23.656 1.008 23.008C0.632 22.36 0.444 21.628 0.444 20.812ZM13.6013 18.28C14.1053 18.28 14.5533 18.388 14.9453 18.604C15.3453 18.82 15.6573 19.14 15.8813 19.564C16.1133 19.988 16.2293 20.5 16.2293 21.1V25H14.8733V21.304C14.8733 20.712 14.7253 20.26 14.4293 19.948C14.1333 19.628 13.7293 19.468 13.2173 19.468C12.7053 19.468 12.2973 19.628 11.9933 19.948C11.6973 20.26 11.5493 20.712 11.5493 21.304V25H10.1813V16.12H11.5493V19.156C11.7813 18.876 12.0733 18.66 12.4253 18.508C12.7853 18.356 13.1773 18.28 13.6013 18.28ZM20.8422 25.108C20.2182 25.108 19.6542 24.968 19.1502 24.688C18.6462 24.4 18.2502 24 17.9622 23.488C17.6742 22.968 17.5302 22.368 17.5302 21.688C17.5302 21.016 17.6782 20.42 17.9742 19.9C18.2702 19.38 18.6742 18.98 19.1862 18.7C19.6982 18.42 20.2702 18.28 20.9022 18.28C21.5342 18.28 22.1062 18.42 22.6182 18.7C23.1302 18.98 23.5342 19.38 23.8302 19.9C24.1262 20.42 24.2742 21.016 24.2742 21.688C24.2742 22.36 24.1222 22.956 23.8182 23.476C23.5142 23.996 23.0982 24.4 22.5702 24.688C22.0502 24.968 21.4742 25.108 20.8422 25.108ZM20.8422 23.92C21.1942 23.92 21.5222 23.836 21.8262 23.668C22.1382 23.5 22.3902 23.248 22.5822 22.912C22.7742 22.576 22.8702 22.168 22.8702 21.688C22.8702 21.208 22.7782 20.804 22.5942 20.476C22.4102 20.14 22.1662 19.888 21.8622 19.72C21.5582 19.552 21.2302 19.468 20.8782 19.468C20.5262 19.468 20.1982 19.552 19.8942 19.72C19.5982 19.888 19.3622 20.14 19.1862 20.476C19.0102 20.804 18.9222 21.208 18.9222 21.688C18.9222 22.4 19.1022 22.952 19.4622 23.344C19.8302 23.728 20.2902 23.92 20.8422 23.92ZM26.3226 17.512C26.0746 17.512 25.8666 17.428 25.6986 17.26C25.5306 17.092 25.4466 16.884 25.4466 16.636C25.4466 16.388 25.5306 16.18 25.6986 16.012C25.8666 15.844 26.0746 15.76 26.3226 15.76C26.5626 15.76 26.7666 15.844 26.9346 16.012C27.1026 16.18 27.1866 16.388 27.1866 16.636C27.1866 16.884 27.1026 17.092 26.9346 17.26C26.7666 17.428 26.5626 17.512 26.3226 17.512ZM26.9946 18.388V25H25.6266V18.388H26.9946ZM30.1586 19.348C30.3586 19.012 30.6226 18.752 30.9506 18.568C31.2866 18.376 31.6826 18.28 32.1386 18.28V19.696H31.7906C31.2546 19.696 30.8466 19.832 30.5666 20.104C30.2946 20.376 30.1586 20.848 30.1586 21.52V25H28.7906V18.388H30.1586V19.348Z"></path>
</svg>
