<svg width="480" height="360" viewBox="0 0 480 360" fill="none" xmlns="http://www.w3.org/2000/svg">
<rect x="182.5" y="62.5" width="15" height="15" stroke="#323232"/>
<rect x="198.5" y="62.5" width="15" height="15" stroke="#323232"/>
<rect x="214.5" y="62.5" width="15" height="15" stroke="#323232"/>
<rect x="230.5" y="62.5" width="15" height="15" stroke="#323232"/>
<rect x="246.5" y="62.5" width="15" height="15" stroke="#323232"/>
<rect x="262.5" y="62.5" width="15" height="15" stroke="#323232"/>
<rect x="278.5" y="62.5" width="15" height="15" stroke="#323232"/>
<rect x="294.5" y="62.5" width="15" height="15" stroke="#323232"/>
<rect x="310.5" y="62.5" width="15" height="15" stroke="#323232"/>
<rect x="326.5" y="62.5" width="15" height="15" stroke="#323232"/>
<rect x="342.5" y="62.5" width="15" height="15" stroke="#323232"/>
<rect x="358.5" y="62.5" width="15" height="15" stroke="#323232"/>
<rect x="374.5" y="62.5" width="15" height="15" stroke="#323232"/>
<rect x="390.5" y="62.5" width="15" height="15" stroke="#323232"/>
<rect x="406.5" y="62.5" width="15" height="15" stroke="#323232"/>
<rect x="422.5" y="62.5" width="15" height="15" stroke="#323232"/>
<rect x="182.5" y="78.5" width="15" height="15" stroke="#323232"/>
<rect x="198.5" y="78.5" width="15" height="15" stroke="#323232"/>
<rect x="214.5" y="78.5" width="15" height="15" stroke="#323232"/>
<rect x="230.5" y="78.5" width="15" height="15" stroke="#323232"/>
<rect x="246.5" y="78.5" width="15" height="15" stroke="#323232"/>
<rect x="262.5" y="78.5" width="15" height="15" stroke="#323232"/>
<rect x="278.5" y="78.5" width="15" height="15" stroke="#323232"/>
<rect x="294.5" y="78.5" width="15" height="15" stroke="#323232"/>
<rect x="310.5" y="78.5" width="15" height="15" stroke="#323232"/>
<rect x="326.5" y="78.5" width="15" height="15" stroke="#323232"/>
<rect x="342.5" y="78.5" width="15" height="15" stroke="#323232"/>
<rect x="358.5" y="78.5" width="15" height="15" stroke="#323232"/>
<rect x="374.5" y="78.5" width="15" height="15" stroke="#323232"/>
<rect x="390.5" y="78.5" width="15" height="15" stroke="#323232"/>
<rect x="406.5" y="78.5" width="15" height="15" stroke="#323232"/>
<rect x="422.5" y="78.5" width="15" height="15" stroke="#323232"/>
<rect x="182.5" y="94.5" width="15" height="15" stroke="#323232"/>
<rect x="198.5" y="94.5" width="15" height="15" stroke="#323232"/>
<rect x="214.5" y="94.5" width="15" height="15" stroke="#323232"/>
<rect x="230.5" y="94.5" width="15" height="15" stroke="#323232"/>
<rect x="246.5" y="94.5" width="15" height="15" stroke="#323232"/>
<rect x="262.5" y="94.5" width="15" height="15" stroke="#323232"/>
<rect x="278.5" y="94.5" width="15" height="15" stroke="#323232"/>
<rect x="294.5" y="94.5" width="15" height="15" stroke="#323232"/>
<rect x="310.5" y="94.5" width="15" height="15" stroke="#323232"/>
<rect x="326.5" y="94.5" width="15" height="15" stroke="#323232"/>
<rect x="342.5" y="94.5" width="15" height="15" stroke="#323232"/>
<rect x="358.5" y="94.5" width="15" height="15" stroke="#323232"/>
<rect x="374.5" y="94.5" width="15" height="15" stroke="#323232"/>
<rect x="390.5" y="94.5" width="15" height="15" stroke="#323232"/>
<rect x="406.5" y="94.5" width="15" height="15" stroke="#323232"/>
<rect x="422.5" y="94.5" width="15" height="15" stroke="#323232"/>
<rect x="182.5" y="110.5" width="15" height="15" stroke="#323232"/>
<rect x="198.5" y="110.5" width="15" height="15" stroke="#323232"/>
<rect x="214.5" y="110.5" width="15" height="15" stroke="#323232"/>
<rect x="230.5" y="110.5" width="15" height="15" stroke="#323232"/>
<rect x="246.5" y="110.5" width="15" height="15" stroke="#323232"/>
<rect x="262.5" y="110.5" width="15" height="15" stroke="#323232"/>
<rect x="278.5" y="110.5" width="15" height="15" stroke="#323232"/>
<rect x="294.5" y="110.5" width="15" height="15" stroke="#323232"/>
<rect x="310.5" y="110.5" width="15" height="15" stroke="#323232"/>
<rect x="326.5" y="110.5" width="15" height="15" stroke="#323232"/>
<rect x="342.5" y="110.5" width="15" height="15" stroke="#323232"/>
<rect x="358.5" y="110.5" width="15" height="15" stroke="#323232"/>
<rect x="374.5" y="110.5" width="15" height="15" stroke="#323232"/>
<rect x="390.5" y="110.5" width="15" height="15" stroke="#323232"/>
<rect x="406.5" y="110.5" width="15" height="15" stroke="#323232"/>
<rect x="422.5" y="110.5" width="15" height="15" stroke="#323232"/>
<rect x="182.5" y="126.5" width="15" height="15" stroke="#323232"/>
<rect x="198.5" y="126.5" width="15" height="15" stroke="#323232"/>
<rect x="214.5" y="126.5" width="15" height="15" stroke="#323232"/>
<rect x="230.5" y="126.5" width="15" height="15" stroke="#323232"/>
<rect x="246.5" y="126.5" width="15" height="15" stroke="#323232"/>
<rect x="262.5" y="126.5" width="15" height="15" stroke="#323232"/>
<rect x="278.5" y="126.5" width="15" height="15" stroke="#323232"/>
<rect x="294.5" y="126.5" width="15" height="15" stroke="#323232"/>
<rect x="310.5" y="126.5" width="15" height="15" stroke="#323232"/>
<rect x="326.5" y="126.5" width="15" height="15" stroke="#323232"/>
<rect x="342.5" y="126.5" width="15" height="15" stroke="#323232"/>
<rect x="358.5" y="126.5" width="15" height="15" stroke="#323232"/>
<rect x="374.5" y="126.5" width="15" height="15" stroke="#323232"/>
<rect x="390.5" y="126.5" width="15" height="15" stroke="#323232"/>
<rect x="406.5" y="126.5" width="15" height="15" stroke="#323232"/>
<rect x="422.5" y="126.5" width="15" height="15" stroke="#323232"/>
<rect x="182.5" y="142.5" width="15" height="15" stroke="#323232"/>
<rect x="198.5" y="142.5" width="15" height="15" stroke="#323232"/>
<rect x="214.5" y="142.5" width="15" height="15" stroke="#323232"/>
<rect x="230.5" y="142.5" width="15" height="15" stroke="#323232"/>
<rect x="246.5" y="142.5" width="15" height="15" stroke="#323232"/>
<rect x="262.5" y="142.5" width="15" height="15" stroke="#323232"/>
<rect x="278.5" y="142.5" width="15" height="15" stroke="#323232"/>
<rect x="294.5" y="142.5" width="15" height="15" stroke="#323232"/>
<rect x="310.5" y="142.5" width="15" height="15" stroke="#323232"/>
<rect x="326.5" y="142.5" width="15" height="15" stroke="#323232"/>
<rect x="342.5" y="142.5" width="15" height="15" stroke="#323232"/>
<rect x="358.5" y="142.5" width="15" height="15" stroke="#323232"/>
<rect x="374.5" y="142.5" width="15" height="15" stroke="#323232"/>
<rect x="390.5" y="142.5" width="15" height="15" stroke="#323232"/>
<rect x="406.5" y="142.5" width="15" height="15" stroke="#323232"/>
<rect x="422.5" y="142.5" width="15" height="15" stroke="#323232"/>
<rect x="182.5" y="158.5" width="15" height="15" stroke="#323232"/>
<rect x="198.5" y="158.5" width="15" height="15" stroke="#323232"/>
<rect x="214.5" y="158.5" width="15" height="15" stroke="#323232"/>
<rect x="230.5" y="158.5" width="15" height="15" stroke="#323232"/>
<rect x="246.5" y="158.5" width="15" height="15" stroke="#323232"/>
<rect x="262.5" y="158.5" width="15" height="15" stroke="#323232"/>
<rect x="278.5" y="158.5" width="15" height="15" stroke="#323232"/>
<rect x="294.5" y="158.5" width="15" height="15" stroke="#323232"/>
<rect x="310.5" y="158.5" width="15" height="15" stroke="#323232"/>
<rect x="326.5" y="158.5" width="15" height="15" stroke="#323232"/>
<rect x="342.5" y="158.5" width="15" height="15" stroke="#323232"/>
<rect x="358.5" y="158.5" width="15" height="15" stroke="#323232"/>
<rect x="374.5" y="158.5" width="15" height="15" stroke="#323232"/>
<rect x="390.5" y="158.5" width="15" height="15" stroke="#323232"/>
<rect x="406.5" y="158.5" width="15" height="15" stroke="#323232"/>
<rect x="422.5" y="158.5" width="15" height="15" stroke="#323232"/>
<rect x="182.5" y="174.5" width="15" height="15" stroke="#323232"/>
<rect x="198.5" y="174.5" width="15" height="15" stroke="#323232"/>
<rect x="214.5" y="174.5" width="15" height="15" stroke="#323232"/>
<rect x="230.5" y="174.5" width="15" height="15" stroke="#323232"/>
<rect x="246.5" y="174.5" width="15" height="15" stroke="#323232"/>
<rect x="262.5" y="174.5" width="15" height="15" stroke="#323232"/>
<rect x="278.5" y="174.5" width="15" height="15" stroke="#323232"/>
<rect x="294.5" y="174.5" width="15" height="15" stroke="#323232"/>
<rect x="310.5" y="174.5" width="15" height="15" stroke="#323232"/>
<rect x="326.5" y="174.5" width="15" height="15" stroke="#323232"/>
<rect x="342.5" y="174.5" width="15" height="15" stroke="#323232"/>
<rect x="358.5" y="174.5" width="15" height="15" stroke="#323232"/>
<rect x="374.5" y="174.5" width="15" height="15" stroke="#323232"/>
<rect x="390.5" y="174.5" width="15" height="15" stroke="#323232"/>
<rect x="406.5" y="174.5" width="15" height="15" stroke="#323232"/>
<rect x="422.5" y="174.5" width="15" height="15" stroke="#323232"/>
<rect x="182.5" y="190.5" width="15" height="15" stroke="#323232"/>
<rect x="198.5" y="190.5" width="15" height="15" stroke="#323232"/>
<rect x="214.5" y="190.5" width="15" height="15" stroke="#323232"/>
<rect x="230.5" y="190.5" width="15" height="15" stroke="#323232"/>
<rect x="246.5" y="190.5" width="15" height="15" stroke="#323232"/>
<rect x="262.5" y="190.5" width="15" height="15" stroke="#323232"/>
<rect x="278.5" y="190.5" width="15" height="15" stroke="#323232"/>
<rect x="294.5" y="190.5" width="15" height="15" stroke="#323232"/>
<rect x="310.5" y="190.5" width="15" height="15" stroke="#323232"/>
<rect x="326.5" y="190.5" width="15" height="15" stroke="#323232"/>
<rect x="342.5" y="190.5" width="15" height="15" stroke="#323232"/>
<rect x="358.5" y="190.5" width="15" height="15" stroke="#323232"/>
<rect x="374.5" y="190.5" width="15" height="15" stroke="#323232"/>
<rect x="390.5" y="190.5" width="15" height="15" stroke="#323232"/>
<rect x="406.5" y="190.5" width="15" height="15" stroke="#323232"/>
<rect x="422.5" y="190.5" width="15" height="15" stroke="#323232"/>
<rect x="182.5" y="206.5" width="15" height="15" stroke="#323232"/>
<rect x="198.5" y="206.5" width="15" height="15" stroke="#323232"/>
<rect x="214.5" y="206.5" width="15" height="15" stroke="#323232"/>
<rect x="230.5" y="206.5" width="15" height="15" stroke="#323232"/>
<rect x="246.5" y="206.5" width="15" height="15" stroke="#323232"/>
<rect x="262.5" y="206.5" width="15" height="15" stroke="#323232"/>
<rect x="278.5" y="206.5" width="15" height="15" stroke="#323232"/>
<rect x="294.5" y="206.5" width="15" height="15" stroke="#323232"/>
<rect x="310.5" y="206.5" width="15" height="15" stroke="#323232"/>
<rect x="326.5" y="206.5" width="15" height="15" stroke="#323232"/>
<rect x="342.5" y="206.5" width="15" height="15" stroke="#323232"/>
<rect x="358.5" y="206.5" width="15" height="15" stroke="#323232"/>
<rect x="374.5" y="206.5" width="15" height="15" stroke="#323232"/>
<rect x="390.5" y="206.5" width="15" height="15" stroke="#323232"/>
<rect x="406.5" y="206.5" width="15" height="15" stroke="#323232"/>
<rect x="422.5" y="206.5" width="15" height="15" stroke="#323232"/>
<rect x="182.5" y="222.5" width="15" height="15" stroke="#323232"/>
<rect x="198.5" y="222.5" width="15" height="15" stroke="#323232"/>
<rect x="214.5" y="222.5" width="15" height="15" stroke="#323232"/>
<rect x="230.5" y="222.5" width="15" height="15" stroke="#323232"/>
<rect x="246.5" y="222.5" width="15" height="15" stroke="#323232"/>
<rect x="262.5" y="222.5" width="15" height="15" stroke="#323232"/>
<rect x="278.5" y="222.5" width="15" height="15" stroke="#323232"/>
<rect x="294.5" y="222.5" width="15" height="15" stroke="#323232"/>
<rect x="310.5" y="222.5" width="15" height="15" stroke="#323232"/>
<rect x="326.5" y="222.5" width="15" height="15" stroke="#323232"/>
<rect x="342.5" y="222.5" width="15" height="15" stroke="#323232"/>
<rect x="358.5" y="222.5" width="15" height="15" stroke="#323232"/>
<rect x="374.5" y="222.5" width="15" height="15" stroke="#323232"/>
<rect x="390.5" y="222.5" width="15" height="15" stroke="#323232"/>
<rect x="406.5" y="222.5" width="15" height="15" stroke="#323232"/>
<rect x="422.5" y="222.5" width="15" height="15" stroke="#323232"/>
<rect x="182.5" y="238.5" width="15" height="15" stroke="#323232"/>
<rect x="198.5" y="238.5" width="15" height="15" stroke="#323232"/>
<rect x="214.5" y="238.5" width="15" height="15" stroke="#323232"/>
<rect x="230.5" y="238.5" width="15" height="15" stroke="#323232"/>
<rect x="246.5" y="238.5" width="15" height="15" stroke="#323232"/>
<rect x="262.5" y="238.5" width="15" height="15" stroke="#323232"/>
<rect x="278.5" y="238.5" width="15" height="15" stroke="#323232"/>
<rect x="294.5" y="238.5" width="15" height="15" stroke="#323232"/>
<rect x="310.5" y="238.5" width="15" height="15" stroke="#323232"/>
<rect x="326.5" y="238.5" width="15" height="15" stroke="#323232"/>
<rect x="342.5" y="238.5" width="15" height="15" stroke="#323232"/>
<rect x="358.5" y="238.5" width="15" height="15" stroke="#323232"/>
<rect x="374.5" y="238.5" width="15" height="15" stroke="#323232"/>
<rect x="390.5" y="238.5" width="15" height="15" stroke="#323232"/>
<rect x="406.5" y="238.5" width="15" height="15" stroke="#323232"/>
<rect x="422.5" y="238.5" width="15" height="15" stroke="#323232"/>
<rect x="182.5" y="254.5" width="15" height="15" stroke="#323232"/>
<rect x="198.5" y="254.5" width="15" height="15" stroke="#323232"/>
<rect x="214.5" y="254.5" width="15" height="15" stroke="#323232"/>
<rect x="230.5" y="254.5" width="15" height="15" stroke="#323232"/>
<rect x="246.5" y="254.5" width="15" height="15" stroke="#323232"/>
<rect x="262.5" y="254.5" width="15" height="15" stroke="#323232"/>
<rect x="278.5" y="254.5" width="15" height="15" stroke="#323232"/>
<rect x="294.5" y="254.5" width="15" height="15" stroke="#323232"/>
<rect x="310.5" y="254.5" width="15" height="15" stroke="#323232"/>
<rect x="326.5" y="254.5" width="15" height="15" stroke="#323232"/>
<rect x="342.5" y="254.5" width="15" height="15" stroke="#323232"/>
<rect x="358.5" y="254.5" width="15" height="15" stroke="#323232"/>
<rect x="374.5" y="254.5" width="15" height="15" stroke="#323232"/>
<rect x="390.5" y="254.5" width="15" height="15" stroke="#323232"/>
<rect x="406.5" y="254.5" width="15" height="15" stroke="#323232"/>
<rect x="422.5" y="254.5" width="15" height="15" stroke="#323232"/>
<rect x="182.5" y="270.5" width="15" height="15" stroke="#323232"/>
<rect x="198.5" y="270.5" width="15" height="15" stroke="#323232"/>
<rect x="214.5" y="270.5" width="15" height="15" stroke="#323232"/>
<rect x="230.5" y="270.5" width="15" height="15" stroke="#323232"/>
<rect x="246.5" y="270.5" width="15" height="15" stroke="#323232"/>
<rect x="262.5" y="270.5" width="15" height="15" stroke="#323232"/>
<rect x="278.5" y="270.5" width="15" height="15" stroke="#323232"/>
<rect x="294.5" y="270.5" width="15" height="15" stroke="#323232"/>
<rect x="310.5" y="270.5" width="15" height="15" stroke="#323232"/>
<rect x="326.5" y="270.5" width="15" height="15" stroke="#323232"/>
<rect x="342.5" y="270.5" width="15" height="15" stroke="#323232"/>
<rect x="358.5" y="270.5" width="15" height="15" stroke="#323232"/>
<rect x="374.5" y="270.5" width="15" height="15" stroke="#323232"/>
<rect x="390.5" y="270.5" width="15" height="15" stroke="#323232"/>
<rect x="406.5" y="270.5" width="15" height="15" stroke="#323232"/>
<rect x="422.5" y="270.5" width="15" height="15" stroke="#323232"/>
<rect x="182.5" y="286.5" width="15" height="15" stroke="#323232"/>
<rect x="198.5" y="286.5" width="15" height="15" stroke="#323232"/>
<rect x="214.5" y="286.5" width="15" height="15" stroke="#323232"/>
<rect x="230.5" y="286.5" width="15" height="15" stroke="#323232"/>
<rect x="246.5" y="286.5" width="15" height="15" stroke="#323232"/>
<rect x="262.5" y="286.5" width="15" height="15" stroke="#323232"/>
<rect x="278.5" y="286.5" width="15" height="15" stroke="#323232"/>
<rect x="294.5" y="286.5" width="15" height="15" stroke="#323232"/>
<rect x="310.5" y="286.5" width="15" height="15" stroke="#323232"/>
<rect x="326.5" y="286.5" width="15" height="15" stroke="#323232"/>
<rect x="342.5" y="286.5" width="15" height="15" stroke="#323232"/>
<rect x="358.5" y="286.5" width="15" height="15" stroke="#323232"/>
<rect x="374.5" y="286.5" width="15" height="15" stroke="#323232"/>
<rect x="390.5" y="286.5" width="15" height="15" stroke="#323232"/>
<rect x="406.5" y="286.5" width="15" height="15" stroke="#323232"/>
<rect x="422.5" y="286.5" width="15" height="15" stroke="#323232"/>
<rect x="182.5" y="302.5" width="15" height="15" stroke="#323232"/>
<rect x="198.5" y="302.5" width="15" height="15" stroke="#323232"/>
<rect x="214.5" y="302.5" width="15" height="15" stroke="#323232"/>
<rect x="230.5" y="302.5" width="15" height="15" stroke="#323232"/>
<rect x="246.5" y="302.5" width="15" height="15" stroke="#323232"/>
<rect x="262.5" y="302.5" width="15" height="15" stroke="#323232"/>
<rect x="278.5" y="302.5" width="15" height="15" stroke="#323232"/>
<rect x="294.5" y="302.5" width="15" height="15" stroke="#323232"/>
<rect x="310.5" y="302.5" width="15" height="15" stroke="#323232"/>
<rect x="326.5" y="302.5" width="15" height="15" stroke="#323232"/>
<rect x="342.5" y="302.5" width="15" height="15" stroke="#323232"/>
<rect x="358.5" y="302.5" width="15" height="15" stroke="#323232"/>
<rect x="374.5" y="302.5" width="15" height="15" stroke="#323232"/>
<rect x="390.5" y="302.5" width="15" height="15" stroke="#323232"/>
<rect x="406.5" y="302.5" width="15" height="15" stroke="#323232"/>
<rect x="422.5" y="302.5" width="15" height="15" stroke="#323232"/>
</svg>
