<svg xmlns="http://www.w3.org/2000/svg" fill="none" viewBox="0 0 30 30" height="30" width="30">
<rect fill="#E6E6E6" rx="15" height="30" width="30"></rect>
<path fill="black" d="M10.1411 17.45C10.7811 16.8967 11.2845 16.4433 11.6511 16.09C12.0245 15.73 12.3345 15.3567 12.5811 14.97C12.8278 14.5833 12.9511 14.1967 12.9511 13.81C12.9511 13.41 12.8545 13.0967 12.6611 12.87C12.4745 12.6433 12.1778 12.53 11.7711 12.53C11.3778 12.53 11.0711 12.6567 10.8511 12.91C10.6378 13.1567 10.5245 13.49 10.5111 13.91H9.41113C9.43113 13.15 9.6578 12.57 10.0911 12.17C10.5311 11.7633 11.0878 11.56 11.7611 11.56C12.4878 11.56 13.0545 11.76 13.4611 12.16C13.8745 12.56 14.0811 13.0933 14.0811 13.76C14.0811 14.24 13.9578 14.7033 13.7111 15.15C13.4711 15.59 13.1811 15.9867 12.8411 16.34C12.5078 16.6867 12.0811 17.09 11.5611 17.55L11.1111 17.95H14.2811V18.9H9.42113V18.07L10.1411 17.45ZM15.2826 15.26C15.2826 14.1067 15.476 13.2067 15.8626 12.56C16.256 11.9067 16.9293 11.58 17.8826 11.58C18.836 11.58 19.506 11.9067 19.8926 12.56C20.286 13.2067 20.4826 14.1067 20.4826 15.26C20.4826 16.4267 20.286 17.34 19.8926 18C19.506 18.6533 18.836 18.98 17.8826 18.98C16.9293 18.98 16.256 18.6533 15.8626 18C15.476 17.34 15.2826 16.4267 15.2826 15.26ZM19.3626 15.26C19.3626 14.72 19.326 14.2633 19.2526 13.89C19.186 13.5167 19.046 13.2133 18.8326 12.98C18.6193 12.74 18.3026 12.62 17.8826 12.62C17.4626 12.62 17.146 12.74 16.9326 12.98C16.7193 13.2133 16.576 13.5167 16.5026 13.89C16.436 14.2633 16.4026 14.72 16.4026 15.26C16.4026 15.82 16.436 16.29 16.5026 16.67C16.5693 17.05 16.7093 17.3567 16.9226 17.59C17.1426 17.8233 17.4626 17.94 17.8826 17.94C18.3026 17.94 18.6193 17.8233 18.8326 17.59C19.0526 17.3567 19.196 17.05 19.2626 16.67C19.3293 16.29 19.3626 15.82 19.3626 15.26Z"></path>
</svg>
