<svg width="450" height="360" viewBox="0 0 450 360" fill="none" xmlns="http://www.w3.org/2000/svg">
<rect width="450" height="40" rx="15" fill="black" fill-opacity="0.1"/>
<path d="M26.936 18.06C26.72 17.644 26.42 17.332 26.036 17.124C25.652 16.908 25.208 16.8 24.704 16.8C24.152 16.8 23.66 16.924 23.228 17.172C22.796 17.42 22.456 17.772 22.208 18.228C21.968 18.684 21.848 19.212 21.848 19.812C21.848 20.412 21.968 20.944 22.208 21.408C22.456 21.864 22.796 22.216 23.228 22.464C23.66 22.712 24.152 22.836 24.704 22.836C25.448 22.836 26.052 22.628 26.516 22.212C26.98 21.796 27.264 21.232 27.368 20.52H24.236V19.428H28.832V20.496C28.744 21.144 28.512 21.74 28.136 22.284C27.768 22.828 27.284 23.264 26.684 23.592C26.092 23.912 25.432 24.072 24.704 24.072C23.92 24.072 23.204 23.892 22.556 23.532C21.908 23.164 21.392 22.656 21.008 22.008C20.632 21.36 20.444 20.628 20.444 19.812C20.444 18.996 20.632 18.264 21.008 17.616C21.392 16.968 21.908 16.464 22.556 16.104C23.212 15.736 23.928 15.552 24.704 15.552C25.592 15.552 26.38 15.772 27.068 16.212C27.764 16.644 28.268 17.26 28.58 18.06H26.936ZM36.2413 20.532C36.2413 20.78 36.2253 21.004 36.1933 21.204H31.1413C31.1813 21.732 31.3773 22.156 31.7293 22.476C32.0813 22.796 32.5133 22.956 33.0253 22.956C33.7613 22.956 34.2813 22.648 34.5853 22.032H36.0612C35.8613 22.64 35.4973 23.14 34.9693 23.532C34.4493 23.916 33.8013 24.108 33.0253 24.108C32.3933 24.108 31.8253 23.968 31.3213 23.688C30.8253 23.4 30.4333 23 30.1453 22.488C29.8653 21.968 29.7253 21.368 29.7253 20.688C29.7253 20.008 29.8613 19.412 30.1333 18.9C30.4133 18.38 30.8013 17.98 31.2973 17.7C31.8013 17.42 32.3773 17.28 33.0253 17.28C33.6493 17.28 34.2053 17.416 34.6933 17.688C35.1813 17.96 35.5613 18.344 35.8333 18.84C36.1053 19.328 36.2413 19.892 36.2413 20.532ZM34.8133 20.1C34.8053 19.596 34.6253 19.192 34.2733 18.888C33.9213 18.584 33.4853 18.432 32.9653 18.432C32.4933 18.432 32.0893 18.584 31.7533 18.888C31.4173 19.184 31.2173 19.588 31.1533 20.1H34.8133ZM37.1315 20.664C37.1315 20 37.2675 19.412 37.5395 18.9C37.8195 18.388 38.1955 17.992 38.6675 17.712C39.1475 17.424 39.6795 17.28 40.2635 17.28C40.6955 17.28 41.1195 17.376 41.5355 17.568C41.9595 17.752 42.2955 18 42.5435 18.312V15.12H43.9235V24H42.5435V23.004C42.3195 23.324 42.0075 23.588 41.6075 23.796C41.2155 24.004 40.7635 24.108 40.2515 24.108C39.6755 24.108 39.1475 23.964 38.6675 23.676C38.1955 23.38 37.8195 22.972 37.5395 22.452C37.2675 21.924 37.1315 21.328 37.1315 20.664ZM42.5435 20.688C42.5435 20.232 42.4475 19.836 42.2555 19.5C42.0715 19.164 41.8275 18.908 41.5235 18.732C41.2195 18.556 40.8915 18.468 40.5395 18.468C40.1875 18.468 39.8595 18.556 39.5555 18.732C39.2515 18.9 39.0035 19.152 38.8115 19.488C38.6275 19.816 38.5355 20.208 38.5355 20.664C38.5355 21.12 38.6275 21.52 38.8115 21.864C39.0035 22.208 39.2515 22.472 39.5555 22.656C39.8675 22.832 40.1955 22.92 40.5395 22.92C40.8915 22.92 41.2195 22.832 41.5235 22.656C41.8275 22.48 42.0715 22.224 42.2555 21.888C42.4475 21.544 42.5435 21.144 42.5435 20.688ZM45.2643 20.664C45.2643 20 45.4003 19.412 45.6723 18.9C45.9523 18.388 46.3283 17.992 46.8003 17.712C47.2803 17.424 47.8083 17.28 48.3843 17.28C48.9043 17.28 49.3563 17.384 49.7403 17.592C50.1323 17.792 50.4443 18.044 50.6763 18.348V17.388H52.0563V24H50.6763V23.016C50.4443 23.328 50.1283 23.588 49.7283 23.796C49.3283 24.004 48.8723 24.108 48.3603 24.108C47.7923 24.108 47.2723 23.964 46.8003 23.676C46.3283 23.38 45.9523 22.972 45.6723 22.452C45.4003 21.924 45.2643 21.328 45.2643 20.664ZM50.6763 20.688C50.6763 20.232 50.5803 19.836 50.3883 19.5C50.2043 19.164 49.9603 18.908 49.6563 18.732C49.3523 18.556 49.0243 18.468 48.6723 18.468C48.3203 18.468 47.9923 18.556 47.6883 18.732C47.3843 18.9 47.1363 19.152 46.9443 19.488C46.7603 19.816 46.6683 20.208 46.6683 20.664C46.6683 21.12 46.7603 21.52 46.9443 21.864C47.1363 22.208 47.3843 22.472 47.6883 22.656C48.0003 22.832 48.3283 22.92 48.6723 22.92C49.0243 22.92 49.3523 22.832 49.6563 22.656C49.9603 22.48 50.2043 22.224 50.3883 21.888C50.5803 21.544 50.6763 21.144 50.6763 20.688ZM57.1891 17.28C57.7091 17.28 58.1731 17.388 58.5811 17.604C58.9971 17.82 59.3211 18.14 59.5531 18.564C59.7851 18.988 59.9011 19.5 59.9011 20.1V24H58.5451V20.304C58.5451 19.712 58.3971 19.26 58.1011 18.948C57.8051 18.628 57.4011 18.468 56.8891 18.468C56.3771 18.468 55.9691 18.628 55.6651 18.948C55.3691 19.26 55.2211 19.712 55.2211 20.304V24H53.8531V17.388H55.2211V18.144C55.4451 17.872 55.7291 17.66 56.0731 17.508C56.4251 17.356 56.7971 17.28 57.1891 17.28ZM64.2621 20.7L67.3101 24H65.4621L63.0141 21.156V24H61.6461V15.12H63.0141V20.28L65.4141 17.388H67.3101L64.2621 20.7ZM74.3506 20.532C74.3506 20.78 74.3346 21.004 74.3026 21.204H69.2506C69.2906 21.732 69.4866 22.156 69.8386 22.476C70.1906 22.796 70.6226 22.956 71.1346 22.956C71.8706 22.956 72.3906 22.648 72.6946 22.032H74.1706C73.9706 22.64 73.6066 23.14 73.0786 23.532C72.5586 23.916 71.9106 24.108 71.1346 24.108C70.5026 24.108 69.9346 23.968 69.4306 23.688C68.9346 23.4 68.5426 23 68.2546 22.488C67.9746 21.968 67.8346 21.368 67.8346 20.688C67.8346 20.008 67.9706 19.412 68.2426 18.9C68.5226 18.38 68.9106 17.98 69.4066 17.7C69.9106 17.42 70.4866 17.28 71.1346 17.28C71.7586 17.28 72.3146 17.416 72.8026 17.688C73.2906 17.96 73.6706 18.344 73.9426 18.84C74.2146 19.328 74.3506 19.892 74.3506 20.532ZM72.9226 20.1C72.9146 19.596 72.7346 19.192 72.3826 18.888C72.0306 18.584 71.5946 18.432 71.0746 18.432C70.6026 18.432 70.1986 18.584 69.8626 18.888C69.5266 19.184 69.3266 19.588 69.2626 20.1H72.9226ZM79.0329 17.28C79.5529 17.28 80.0169 17.388 80.4249 17.604C80.8409 17.82 81.1649 18.14 81.3969 18.564C81.6289 18.988 81.7449 19.5 81.7449 20.1V24H80.3889V20.304C80.3889 19.712 80.2409 19.26 79.9449 18.948C79.6489 18.628 79.2449 18.468 78.7329 18.468C78.2209 18.468 77.8129 18.628 77.5089 18.948C77.2129 19.26 77.0649 19.712 77.0649 20.304V24H75.6969V17.388H77.0649V18.144C77.2889 17.872 77.5729 17.66 77.9169 17.508C78.2689 17.356 78.6409 17.28 79.0329 17.28Z" fill="black"/>
<path d="M231.89 17.05V24H230.75V17.05H231.89ZM235.387 24.09C234.953 24.09 234.563 24.0133 234.217 23.86C233.877 23.7 233.607 23.4867 233.407 23.22C233.207 22.9467 233.1 22.6433 233.087 22.31H234.267C234.287 22.5433 234.397 22.74 234.597 22.9C234.803 23.0533 235.06 23.13 235.367 23.13C235.687 23.13 235.933 23.07 236.107 22.95C236.287 22.8233 236.377 22.6633 236.377 22.47C236.377 22.2633 236.277 22.11 236.077 22.01C235.883 21.91 235.573 21.8 235.147 21.68C234.733 21.5667 234.397 21.4567 234.137 21.35C233.877 21.2433 233.65 21.08 233.457 20.86C233.27 20.64 233.177 20.35 233.177 19.99C233.177 19.6967 233.263 19.43 233.437 19.19C233.61 18.9433 233.857 18.75 234.177 18.61C234.503 18.47 234.877 18.4 235.297 18.4C235.923 18.4 236.427 18.56 236.807 18.88C237.193 19.1933 237.4 19.6233 237.427 20.17H236.287C236.267 19.9233 236.167 19.7267 235.987 19.58C235.807 19.4333 235.563 19.36 235.257 19.36C234.957 19.36 234.727 19.4167 234.567 19.53C234.407 19.6433 234.327 19.7933 234.327 19.98C234.327 20.1267 234.38 20.25 234.487 20.35C234.593 20.45 234.723 20.53 234.877 20.59C235.03 20.6433 235.257 20.7133 235.557 20.8C235.957 20.9067 236.283 21.0167 236.537 21.13C236.797 21.2367 237.02 21.3967 237.207 21.61C237.393 21.8233 237.49 22.1067 237.497 22.46C237.497 22.7733 237.41 23.0533 237.237 23.3C237.063 23.5467 236.817 23.74 236.497 23.88C236.183 24.02 235.813 24.09 235.387 24.09ZM241.119 24.09C240.599 24.09 240.129 23.9733 239.709 23.74C239.289 23.5 238.959 23.1667 238.719 22.74C238.479 22.3067 238.359 21.8067 238.359 21.24C238.359 20.68 238.482 20.1833 238.729 19.75C238.975 19.3167 239.312 18.9833 239.739 18.75C240.165 18.5167 240.642 18.4 241.169 18.4C241.695 18.4 242.172 18.5167 242.599 18.75C243.025 18.9833 243.362 19.3167 243.609 19.75C243.855 20.1833 243.979 20.68 243.979 21.24C243.979 21.8 243.852 22.2967 243.599 22.73C243.345 23.1633 242.999 23.5 242.559 23.74C242.125 23.9733 241.645 24.09 241.119 24.09ZM241.119 23.1C241.412 23.1 241.685 23.03 241.939 22.89C242.199 22.75 242.409 22.54 242.569 22.26C242.729 21.98 242.809 21.64 242.809 21.24C242.809 20.84 242.732 20.5033 242.579 20.23C242.425 19.95 242.222 19.74 241.969 19.6C241.715 19.46 241.442 19.39 241.149 19.39C240.855 19.39 240.582 19.46 240.329 19.6C240.082 19.74 239.885 19.95 239.739 20.23C239.592 20.5033 239.519 20.84 239.519 21.24C239.519 21.8333 239.669 22.2933 239.969 22.62C240.275 22.94 240.659 23.1 241.119 23.1ZM246.245 16.6V24H245.105V16.6H246.245ZM247.362 21.22C247.362 20.6667 247.476 20.1767 247.702 19.75C247.936 19.3233 248.249 18.9933 248.642 18.76C249.042 18.52 249.482 18.4 249.962 18.4C250.396 18.4 250.772 18.4867 251.092 18.66C251.419 18.8267 251.679 19.0367 251.872 19.29V18.49H253.022V24H251.872V23.18C251.679 23.44 251.416 23.6567 251.082 23.83C250.749 24.0033 250.369 24.09 249.942 24.09C249.469 24.09 249.036 23.97 248.642 23.73C248.249 23.4833 247.936 23.1433 247.702 22.71C247.476 22.27 247.362 21.7733 247.362 21.22ZM251.872 21.24C251.872 20.86 251.792 20.53 251.632 20.25C251.479 19.97 251.276 19.7567 251.022 19.61C250.769 19.4633 250.496 19.39 250.202 19.39C249.909 19.39 249.636 19.4633 249.382 19.61C249.129 19.75 248.922 19.96 248.762 20.24C248.609 20.5133 248.532 20.84 248.532 21.22C248.532 21.6 248.609 21.9333 248.762 22.22C248.922 22.5067 249.129 22.7267 249.382 22.88C249.642 23.0267 249.916 23.1 250.202 23.1C250.496 23.1 250.769 23.0267 251.022 22.88C251.276 22.7333 251.479 22.52 251.632 22.24C251.792 21.9533 251.872 21.62 251.872 21.24ZM255.85 19.42V22.47C255.85 22.6767 255.896 22.8267 255.99 22.92C256.09 23.0067 256.256 23.05 256.49 23.05H257.19V24H256.29C255.776 24 255.383 23.88 255.11 23.64C254.836 23.4 254.7 23.01 254.7 22.47V19.42H254.05V18.49H254.7V17.12H255.85V18.49H257.19V19.42H255.85ZM263.29 21.11C263.29 21.3167 263.277 21.5033 263.25 21.67H259.04C259.074 22.11 259.237 22.4633 259.53 22.73C259.824 22.9967 260.184 23.13 260.61 23.13C261.224 23.13 261.657 22.8733 261.91 22.36H263.14C262.974 22.8667 262.67 23.2833 262.23 23.61C261.797 23.93 261.257 24.09 260.61 24.09C260.084 24.09 259.61 23.9733 259.19 23.74C258.777 23.5 258.45 23.1667 258.21 22.74C257.977 22.3067 257.86 21.8067 257.86 21.24C257.86 20.6733 257.974 20.1767 258.2 19.75C258.434 19.3167 258.757 18.9833 259.17 18.75C259.59 18.5167 260.07 18.4 260.61 18.4C261.13 18.4 261.594 18.5133 262 18.74C262.407 18.9667 262.724 19.2867 262.95 19.7C263.177 20.1067 263.29 20.5767 263.29 21.11ZM262.1 20.75C262.094 20.33 261.944 19.9933 261.65 19.74C261.357 19.4867 260.994 19.36 260.56 19.36C260.167 19.36 259.83 19.4867 259.55 19.74C259.27 19.9867 259.104 20.3233 259.05 20.75H262.1ZM264.032 21.22C264.032 20.6667 264.145 20.1767 264.372 19.75C264.605 19.3233 264.919 18.9933 265.312 18.76C265.712 18.52 266.155 18.4 266.642 18.4C267.002 18.4 267.355 18.48 267.702 18.64C268.055 18.7933 268.335 19 268.542 19.26V16.6H269.692V24H268.542V23.17C268.355 23.4367 268.095 23.6567 267.762 23.83C267.435 24.0033 267.059 24.09 266.632 24.09C266.152 24.09 265.712 23.97 265.312 23.73C264.919 23.4833 264.605 23.1433 264.372 22.71C264.145 22.27 264.032 21.7733 264.032 21.22ZM268.542 21.24C268.542 20.86 268.462 20.53 268.302 20.25C268.149 19.97 267.945 19.7567 267.692 19.61C267.439 19.4633 267.165 19.39 266.872 19.39C266.579 19.39 266.305 19.4633 266.052 19.61C265.799 19.75 265.592 19.96 265.432 20.24C265.279 20.5133 265.202 20.84 265.202 21.22C265.202 21.6 265.279 21.9333 265.432 22.22C265.592 22.5067 265.799 22.7267 266.052 22.88C266.312 23.0267 266.585 23.1 266.872 23.1C267.165 23.1 267.439 23.0267 267.692 22.88C267.945 22.7333 268.149 22.52 268.302 22.24C268.462 21.9533 268.542 21.62 268.542 21.24Z" fill="#808080"/>
<path d="M412.924 18.51C412.964 17.89 413.2 17.4067 413.634 17.06C414.074 16.7133 414.634 16.54 415.314 16.54C415.78 16.54 416.184 16.6233 416.524 16.79C416.864 16.9567 417.12 17.1833 417.294 17.47C417.467 17.7567 417.554 18.08 417.554 18.44C417.554 18.8533 417.444 19.2067 417.224 19.5C417.004 19.7933 416.74 19.99 416.434 20.09V20.13C416.827 20.25 417.134 20.47 417.354 20.79C417.574 21.1033 417.684 21.5067 417.684 22C417.684 22.3933 417.594 22.7433 417.414 23.05C417.234 23.3567 416.967 23.6 416.614 23.78C416.26 23.9533 415.837 24.04 415.344 24.04C414.624 24.04 414.03 23.8567 413.564 23.49C413.104 23.1167 412.857 22.5833 412.824 21.89H413.924C413.95 22.2433 414.087 22.5333 414.334 22.76C414.58 22.98 414.914 23.09 415.334 23.09C415.74 23.09 416.054 22.98 416.274 22.76C416.494 22.5333 416.604 22.2433 416.604 21.89C416.604 21.4233 416.454 21.0933 416.154 20.9C415.86 20.7 415.407 20.6 414.794 20.6H414.534V19.66H414.804C415.344 19.6533 415.754 19.5633 416.034 19.39C416.32 19.2167 416.464 18.9433 416.464 18.57C416.464 18.25 416.36 17.9967 416.154 17.81C415.947 17.6167 415.654 17.52 415.274 17.52C414.9 17.52 414.61 17.6167 414.404 17.81C414.197 17.9967 414.074 18.23 414.034 18.51H412.924ZM419.491 24.07C419.285 24.07 419.111 24 418.971 23.86C418.831 23.72 418.761 23.5467 418.761 23.34C418.761 23.1333 418.831 22.96 418.971 22.82C419.111 22.68 419.285 22.61 419.491 22.61C419.691 22.61 419.861 22.68 420.001 22.82C420.141 22.96 420.211 23.1333 420.211 23.34C420.211 23.5467 420.141 23.72 420.001 23.86C419.861 24 419.691 24.07 419.491 24.07ZM419.491 19.87C419.285 19.87 419.111 19.8 418.971 19.66C418.831 19.52 418.761 19.3467 418.761 19.14C418.761 18.9333 418.831 18.76 418.971 18.62C419.111 18.48 419.285 18.41 419.491 18.41C419.691 18.41 419.861 18.48 420.001 18.62C420.141 18.76 420.211 18.9333 420.211 19.14C420.211 19.3467 420.141 19.52 420.001 19.66C419.861 19.8 419.691 19.87 419.491 19.87ZM421.182 17.75V16.71H423.262V24H422.112V17.75H421.182ZM425.459 22.45C426.099 21.8967 426.602 21.4433 426.969 21.09C427.342 20.73 427.652 20.3567 427.899 19.97C428.145 19.5833 428.269 19.1967 428.269 18.81C428.269 18.41 428.172 18.0967 427.979 17.87C427.792 17.6433 427.495 17.53 427.089 17.53C426.695 17.53 426.389 17.6567 426.169 17.91C425.955 18.1567 425.842 18.49 425.829 18.91H424.729C424.749 18.15 424.975 17.57 425.409 17.17C425.849 16.7633 426.405 16.56 427.079 16.56C427.805 16.56 428.372 16.76 428.779 17.16C429.192 17.56 429.399 18.0933 429.399 18.76C429.399 19.24 429.275 19.7033 429.029 20.15C428.789 20.59 428.499 20.9867 428.159 21.34C427.825 21.6867 427.399 22.09 426.879 22.55L426.429 22.95H429.599V23.9H424.739V23.07L425.459 22.45Z" fill="#808080"/>
</svg>
