<svg width="250" height="28" viewBox="0 0 250 28" fill="none" xmlns="http://www.w3.org/2000/svg">
<rect width="250" height="28" rx="5" fill="#E6E6E6"/>
<path d="M13.59 12.4C14.2767 12.4 14.8233 12.5933 15.23 12.98C15.6433 13.3667 15.85 13.8867 15.85 14.54C15.85 14.6933 15.8333 14.8767 15.8 15.09C15.7733 15.2367 15.7267 15.4167 15.66 15.63H11.45C11.4433 15.6767 11.44 15.7467 11.44 15.84C11.44 16.2333 11.56 16.5467 11.8 16.78C12.0467 17.0133 12.3667 17.13 12.76 17.13C13.38 17.13 13.8567 16.8733 14.19 16.36H15.42C15.1667 16.8667 14.7933 17.2833 14.3 17.61C13.8067 17.93 13.2367 18.09 12.59 18.09C12.13 18.09 11.7267 18 11.38 17.82C11.0333 17.64 10.7633 17.3833 10.57 17.05C10.3767 16.71 10.28 16.3133 10.28 15.86C10.28 15.6667 10.3 15.46 10.34 15.24C10.44 14.6733 10.6433 14.1767 10.95 13.75C11.2567 13.3167 11.6367 12.9833 12.09 12.75C12.55 12.5167 13.05 12.4 13.59 12.4ZM14.66 14.81C14.6733 14.69 14.68 14.6033 14.68 14.55C14.68 14.1833 14.5567 13.8933 14.31 13.68C14.07 13.4667 13.7567 13.36 13.37 13.36C12.9633 13.36 12.5967 13.49 12.27 13.75C11.9433 14.01 11.72 14.3633 11.6 14.81H14.66ZM19.2619 15.2L20.5419 18H19.2519L18.3919 16.13L16.9419 18H15.7519L18.0119 15.29L16.7219 12.49H18.0119L18.8719 14.36L20.3219 12.49H21.5119L19.2619 15.2ZM21.5021 15.22C21.6021 14.6667 21.8021 14.1767 22.1021 13.75C22.4088 13.3233 22.7821 12.9933 23.2221 12.76C23.6621 12.52 24.1221 12.4 24.6021 12.4C25.0354 12.4 25.3988 12.4867 25.6921 12.66C25.9854 12.8267 26.2054 13.0367 26.3521 13.29L26.4921 12.49H27.6421L26.6721 18H25.5221L25.6721 17.18C25.4321 17.44 25.1288 17.6567 24.7621 17.83C24.4021 18.0033 24.0088 18.09 23.5821 18.09C23.1688 18.09 22.7988 17.9967 22.4721 17.81C22.1521 17.6233 21.8988 17.36 21.7121 17.02C21.5321 16.6733 21.4421 16.2767 21.4421 15.83C21.4421 15.63 21.4621 15.4267 21.5021 15.22ZM26.0121 15.24C26.0388 15.1133 26.0521 14.9767 26.0521 14.83C26.0521 14.3833 25.9188 14.0333 25.6521 13.78C25.3921 13.52 25.0654 13.39 24.6721 13.39C24.3788 13.39 24.0921 13.4633 23.8121 13.61C23.5321 13.75 23.2888 13.96 23.0821 14.24C22.8754 14.5133 22.7388 14.84 22.6721 15.22C22.6454 15.3467 22.6321 15.4833 22.6321 15.63C22.6321 16.0833 22.7621 16.4433 23.0221 16.71C23.2888 16.97 23.6188 17.1 24.0121 17.1C24.3054 17.1 24.5921 17.0267 24.8721 16.88C25.1521 16.7333 25.3954 16.52 25.6021 16.24C25.8088 15.9533 25.9454 15.62 26.0121 15.24ZM35.8295 12.4C36.4095 12.4 36.8728 12.5567 37.2195 12.87C37.5661 13.1833 37.7395 13.6267 37.7395 14.2C37.7395 14.3533 37.7228 14.5367 37.6895 14.75L37.1095 18H35.9795L36.5295 14.92C36.5561 14.7333 36.5695 14.6 36.5695 14.52C36.5695 14.1533 36.4661 13.8733 36.2595 13.68C36.0595 13.4867 35.7795 13.39 35.4195 13.39C34.9861 13.39 34.6195 13.5233 34.3195 13.79C34.0261 14.05 33.8395 14.4267 33.7595 14.92L33.2095 18H32.0795L32.6295 14.92C32.6561 14.7333 32.6695 14.6 32.6695 14.52C32.6695 14.1533 32.5661 13.8733 32.3595 13.68C32.1595 13.4867 31.8795 13.39 31.5195 13.39C31.0861 13.39 30.7195 13.5233 30.4195 13.79C30.1261 14.05 29.9395 14.4267 29.8595 14.92V14.89L29.3095 18H28.1695L29.1395 12.49H30.2795L30.1695 13.13C30.3895 12.9033 30.6528 12.7267 30.9595 12.6C31.2728 12.4667 31.5961 12.4 31.9295 12.4C32.3695 12.4 32.7461 12.4933 33.0595 12.68C33.3795 12.8667 33.6028 13.1367 33.7295 13.49C33.9495 13.1567 34.2528 12.8933 34.6395 12.7C35.0261 12.5 35.4228 12.4 35.8295 12.4ZM40.5301 13.3C40.7701 13.0467 41.0701 12.8333 41.4301 12.66C41.7967 12.4867 42.1901 12.4 42.6101 12.4C43.0301 12.4 43.4034 12.49 43.7301 12.67C44.0567 12.85 44.3101 13.1067 44.4901 13.44C44.6701 13.7733 44.7601 14.1633 44.7601 14.61C44.7601 14.8033 44.7401 15.0067 44.7001 15.22C44.6001 15.7733 44.3967 16.27 44.0901 16.71C43.7901 17.1433 43.4201 17.4833 42.9801 17.73C42.5467 17.97 42.0901 18.09 41.6101 18.09C41.1901 18.09 40.8301 18.0067 40.5301 17.84C40.2367 17.6667 40.0067 17.4533 39.8401 17.2L39.2401 20.62H38.1001L39.5301 12.49H40.6701L40.5301 13.3ZM43.5401 15.22C43.5667 15.0933 43.5801 14.9567 43.5801 14.81C43.5801 14.3633 43.4467 14.0167 43.1801 13.77C42.9201 13.5167 42.5901 13.39 42.1901 13.39C41.9034 13.39 41.6167 13.4633 41.3301 13.61C41.0501 13.7567 40.8067 13.97 40.6001 14.25C40.3934 14.53 40.2567 14.86 40.1901 15.24C40.1634 15.3667 40.1501 15.5033 40.1501 15.65C40.1501 16.0967 40.2801 16.45 40.5401 16.71C40.8067 16.97 41.1367 17.1 41.5301 17.1C41.8234 17.1 42.1101 17.0267 42.3901 16.88C42.6767 16.7267 42.9234 16.5067 43.1301 16.22C43.3367 15.9333 43.4734 15.6 43.5401 15.22ZM47.7874 10.6L46.4774 18H45.3374L46.6474 10.6H47.7874ZM51.3341 12.4C52.0208 12.4 52.5675 12.5933 52.9741 12.98C53.3875 13.3667 53.5941 13.8867 53.5941 14.54C53.5941 14.6933 53.5775 14.8767 53.5441 15.09C53.5175 15.2367 53.4708 15.4167 53.4041 15.63H49.1941C49.1875 15.6767 49.1841 15.7467 49.1841 15.84C49.1841 16.2333 49.3041 16.5467 49.5441 16.78C49.7908 17.0133 50.1108 17.13 50.5041 17.13C51.1241 17.13 51.6008 16.8733 51.9341 16.36H53.1641C52.9108 16.8667 52.5375 17.2833 52.0441 17.61C51.5508 17.93 50.9808 18.09 50.3341 18.09C49.8741 18.09 49.4708 18 49.1241 17.82C48.7775 17.64 48.5075 17.3833 48.3141 17.05C48.1208 16.71 48.0241 16.3133 48.0241 15.86C48.0241 15.6667 48.0441 15.46 48.0841 15.24C48.1841 14.6733 48.3875 14.1767 48.6941 13.75C49.0008 13.3167 49.3808 12.9833 49.8341 12.75C50.2941 12.5167 50.7941 12.4 51.3341 12.4ZM52.4041 14.81C52.4175 14.69 52.4241 14.6033 52.4241 14.55C52.4241 14.1833 52.3008 13.8933 52.0541 13.68C51.8141 13.4667 51.5008 13.36 51.1141 13.36C50.7075 13.36 50.3408 13.49 50.0141 13.75C49.6875 14.01 49.4641 14.3633 49.3441 14.81H52.4041ZM59.0541 15.97C58.7341 15.97 58.4707 15.87 58.2641 15.67C58.0641 15.47 57.9641 15.2167 57.9641 14.91C57.9641 14.63 58.0374 14.3733 58.1841 14.14C58.3307 13.9 58.5241 13.71 58.7641 13.57C59.0041 13.43 59.2541 13.36 59.5141 13.36C59.8407 13.36 60.1074 13.46 60.3141 13.66C60.5207 13.86 60.6241 14.1167 60.6241 14.43C60.6241 14.7033 60.5507 14.96 60.4041 15.2C60.2574 15.4333 60.0607 15.62 59.8141 15.76C59.5741 15.9 59.3207 15.97 59.0541 15.97ZM66.7913 18.09C66.4113 18.09 66.0646 18.0267 65.7513 17.9C65.4379 17.7667 65.1913 17.5833 65.0113 17.35C64.8313 17.11 64.7413 16.8367 64.7413 16.53C64.7413 16.4767 64.7479 16.4033 64.7613 16.31H65.8713C65.8446 16.5633 65.9213 16.7733 66.1013 16.94C66.2813 17.1067 66.5346 17.19 66.8613 17.19C67.1813 17.19 67.4446 17.1333 67.6513 17.02C67.8579 16.9067 67.9613 16.74 67.9613 16.52C67.9613 16.3333 67.8746 16.1833 67.7013 16.07C67.5346 15.9567 67.2646 15.83 66.8913 15.69C66.5379 15.55 66.2513 15.42 66.0313 15.3C65.8113 15.18 65.6213 15.0167 65.4613 14.81C65.3013 14.5967 65.2213 14.3333 65.2213 14.02C65.2213 13.7 65.3113 13.42 65.4913 13.18C65.6779 12.9333 65.9346 12.7433 66.2613 12.61C66.5946 12.47 66.9746 12.4 67.4013 12.4C67.7879 12.4 68.1313 12.4667 68.4313 12.6C68.7379 12.7267 68.9746 12.91 69.1413 13.15C69.3146 13.3833 69.4013 13.6533 69.4013 13.96C69.4013 14.0533 69.3979 14.1233 69.3913 14.17H68.3113C68.3379 13.91 68.2613 13.7 68.0813 13.54C67.9079 13.38 67.6579 13.3 67.3313 13.3C67.0446 13.3 66.8113 13.36 66.6313 13.48C66.4579 13.6 66.3713 13.7633 66.3713 13.97C66.3713 14.1767 66.4613 14.3433 66.6413 14.47C66.8213 14.59 67.0979 14.7233 67.4712 14.87C67.8113 15.0033 68.0879 15.13 68.3013 15.25C68.5146 15.37 68.6979 15.53 68.8513 15.73C69.0046 15.93 69.0813 16.18 69.0813 16.48C69.0813 16.8067 68.9813 17.0933 68.7813 17.34C68.5879 17.58 68.3179 17.7667 67.9713 17.9C67.6246 18.0267 67.2313 18.09 66.7913 18.09ZM73.463 12.4C74.1497 12.4 74.6964 12.5933 75.103 12.98C75.5164 13.3667 75.723 13.8867 75.723 14.54C75.723 14.6933 75.7064 14.8767 75.673 15.09C75.6464 15.2367 75.5997 15.4167 75.533 15.63H71.323C71.3164 15.6767 71.313 15.7467 71.313 15.84C71.313 16.2333 71.433 16.5467 71.673 16.78C71.9197 17.0133 72.2397 17.13 72.633 17.13C73.253 17.13 73.7297 16.8733 74.063 16.36H75.293C75.0397 16.8667 74.6664 17.2833 74.173 17.61C73.6797 17.93 73.1097 18.09 72.463 18.09C72.003 18.09 71.5997 18 71.253 17.82C70.9064 17.64 70.6364 17.3833 70.443 17.05C70.2497 16.71 70.153 16.3133 70.153 15.86C70.153 15.6667 70.173 15.46 70.213 15.24C70.313 14.6733 70.5164 14.1767 70.823 13.75C71.1297 13.3167 71.5097 12.9833 71.963 12.75C72.423 12.5167 72.923 12.4 73.463 12.4ZM74.533 14.81C74.5464 14.69 74.553 14.6033 74.553 14.55C74.553 14.1833 74.4297 13.8933 74.183 13.68C73.943 13.4667 73.6297 13.36 73.243 13.36C72.8364 13.36 72.4697 13.49 72.143 13.75C71.8164 14.01 71.593 14.3633 71.473 14.81H74.533ZM77.8749 16.47C77.8616 16.5633 77.8549 16.6233 77.8549 16.65C77.8549 16.79 77.8983 16.8933 77.9849 16.96C78.0716 17.02 78.2149 17.05 78.4149 17.05H79.1149L78.9449 18H78.0449C77.6049 18 77.2683 17.9133 77.0349 17.74C76.8016 17.56 76.6849 17.2767 76.6849 16.89C76.6849 16.7433 76.6983 16.6033 76.7249 16.47L77.2649 13.42H76.6149L76.7749 12.49H77.4349L77.6749 11.12H78.8249L78.5849 12.49H79.9149L79.7549 13.42H78.4149L77.8749 16.47ZM84.5937 16.47C84.5803 16.5633 84.5737 16.6233 84.5737 16.65C84.5737 16.79 84.617 16.8933 84.7037 16.96C84.7903 17.02 84.9337 17.05 85.1337 17.05H85.8337L85.6637 18H84.7637C84.3237 18 83.987 17.9133 83.7537 17.74C83.5203 17.56 83.4037 17.2767 83.4037 16.89C83.4037 16.7433 83.417 16.6033 83.4437 16.47L83.9837 13.42H83.3337L83.4937 12.49H84.1537L84.3937 11.12H85.5437L85.3037 12.49H86.6337L86.4737 13.42H85.1337L84.5937 16.47ZM90.5544 12.4C91.1077 12.4 91.551 12.5567 91.8844 12.87C92.2177 13.1767 92.3844 13.6167 92.3844 14.19C92.3844 14.3433 92.3677 14.53 92.3344 14.75L91.7544 18H90.6244L91.1744 14.92C91.201 14.7333 91.2144 14.6 91.2144 14.52C91.2144 14.1533 91.111 13.8733 90.9044 13.68C90.7044 13.4867 90.4244 13.39 90.0644 13.39C89.631 13.39 89.2644 13.5233 88.9644 13.79C88.671 14.05 88.4844 14.4267 88.4044 14.92V14.9L87.8544 18H86.7144L88.0244 10.6H89.1644L88.7144 13.13C88.9477 12.8967 89.2244 12.7167 89.5444 12.59C89.8644 12.4633 90.201 12.4 90.5544 12.4ZM96.5685 12.4C97.2552 12.4 97.8018 12.5933 98.2085 12.98C98.6218 13.3667 98.8285 13.8867 98.8285 14.54C98.8285 14.6933 98.8118 14.8767 98.7785 15.09C98.7518 15.2367 98.7052 15.4167 98.6385 15.63H94.4285C94.4218 15.6767 94.4185 15.7467 94.4185 15.84C94.4185 16.2333 94.5385 16.5467 94.7785 16.78C95.0252 17.0133 95.3452 17.13 95.7385 17.13C96.3585 17.13 96.8352 16.8733 97.1685 16.36H98.3985C98.1452 16.8667 97.7718 17.2833 97.2785 17.61C96.7852 17.93 96.2152 18.09 95.5685 18.09C95.1085 18.09 94.7052 18 94.3585 17.82C94.0118 17.64 93.7418 17.3833 93.5485 17.05C93.3552 16.71 93.2585 16.3133 93.2585 15.86C93.2585 15.6667 93.2785 15.46 93.3185 15.24C93.4185 14.6733 93.6218 14.1767 93.9285 13.75C94.2352 13.3167 94.6152 12.9833 95.0685 12.75C95.5285 12.5167 96.0285 12.4 96.5685 12.4ZM97.6385 14.81C97.6518 14.69 97.6585 14.6033 97.6585 14.55C97.6585 14.1833 97.5352 13.8933 97.2885 13.68C97.0485 13.4667 96.7352 13.36 96.3485 13.36C95.9418 13.36 95.5752 13.49 95.2485 13.75C94.9218 14.01 94.6985 14.3633 94.5785 14.81H97.6385ZM107.04 12.4C107.62 12.4 108.084 12.5567 108.43 12.87C108.777 13.1833 108.95 13.6267 108.95 14.2C108.95 14.3533 108.934 14.5367 108.9 14.75L108.32 18H107.19L107.74 14.92C107.767 14.7333 107.78 14.6 107.78 14.52C107.78 14.1533 107.677 13.8733 107.47 13.68C107.27 13.4867 106.99 13.39 106.63 13.39C106.197 13.39 105.83 13.5233 105.53 13.79C105.237 14.05 105.05 14.4267 104.97 14.92L104.42 18H103.29L103.84 14.92C103.867 14.7333 103.88 14.6 103.88 14.52C103.88 14.1533 103.777 13.8733 103.57 13.68C103.37 13.4867 103.09 13.39 102.73 13.39C102.297 13.39 101.93 13.5233 101.63 13.79C101.337 14.05 101.15 14.4267 101.07 14.92V14.89L100.52 18H99.3804L100.35 12.49H101.49L101.38 13.13C101.6 12.9033 101.864 12.7267 102.17 12.6C102.484 12.4667 102.807 12.4 103.14 12.4C103.58 12.4 103.957 12.4933 104.27 12.68C104.59 12.8667 104.814 13.1367 104.94 13.49C105.16 13.1567 105.464 12.8933 105.85 12.7C106.237 12.5 106.634 12.4 107.04 12.4ZM113.131 12.4C113.818 12.4 114.364 12.5933 114.771 12.98C115.184 13.3667 115.391 13.8867 115.391 14.54C115.391 14.6933 115.374 14.8767 115.341 15.09C115.314 15.2367 115.268 15.4167 115.201 15.63H110.991C110.984 15.6767 110.981 15.7467 110.981 15.84C110.981 16.2333 111.101 16.5467 111.341 16.78C111.588 17.0133 111.908 17.13 112.301 17.13C112.921 17.13 113.398 16.8733 113.731 16.36H114.961C114.708 16.8667 114.334 17.2833 113.841 17.61C113.348 17.93 112.778 18.09 112.131 18.09C111.671 18.09 111.268 18 110.921 17.82C110.574 17.64 110.304 17.3833 110.111 17.05C109.918 16.71 109.821 16.3133 109.821 15.86C109.821 15.6667 109.841 15.46 109.881 15.24C109.981 14.6733 110.184 14.1767 110.491 13.75C110.798 13.3167 111.178 12.9833 111.631 12.75C112.091 12.5167 112.591 12.4 113.131 12.4ZM114.201 14.81C114.214 14.69 114.221 14.6033 114.221 14.55C114.221 14.1833 114.098 13.8933 113.851 13.68C113.611 13.4667 113.298 13.36 112.911 13.36C112.504 13.36 112.138 13.49 111.811 13.75C111.484 14.01 111.261 14.3633 111.141 14.81H114.201ZM119.051 15.22C119.151 14.6667 119.351 14.1767 119.651 13.75C119.958 13.3233 120.331 12.9933 120.771 12.76C121.211 12.52 121.674 12.4 122.161 12.4C122.521 12.4 122.861 12.48 123.181 12.64C123.501 12.7933 123.744 13 123.911 13.26L124.381 10.6H125.531L124.221 18H123.071L123.221 17.17C122.981 17.4433 122.681 17.6667 122.321 17.84C121.968 18.0067 121.578 18.09 121.151 18.09C120.731 18.09 120.358 17.9967 120.031 17.81C119.704 17.6233 119.448 17.36 119.261 17.02C119.081 16.6733 118.991 16.2767 118.991 15.83C118.991 15.63 119.011 15.4267 119.051 15.22ZM123.561 15.24C123.588 15.1133 123.601 14.9767 123.601 14.83C123.601 14.3833 123.468 14.0333 123.201 13.78C122.941 13.52 122.614 13.39 122.221 13.39C121.928 13.39 121.641 13.4633 121.361 13.61C121.081 13.75 120.838 13.96 120.631 14.24C120.424 14.5133 120.288 14.84 120.221 15.22C120.194 15.3467 120.181 15.4833 120.181 15.63C120.181 16.0833 120.311 16.4433 120.571 16.71C120.838 16.97 121.168 17.1 121.561 17.1C121.854 17.1 122.141 17.0267 122.421 16.88C122.701 16.7333 122.944 16.52 123.151 16.24C123.358 15.9533 123.494 15.62 123.561 15.24ZM125.828 15.22C125.928 14.6667 126.128 14.1767 126.428 13.75C126.735 13.3233 127.108 12.9933 127.548 12.76C127.988 12.52 128.448 12.4 128.928 12.4C129.362 12.4 129.725 12.4867 130.018 12.66C130.312 12.8267 130.532 13.0367 130.678 13.29L130.818 12.49H131.968L130.998 18H129.848L129.998 17.18C129.758 17.44 129.455 17.6567 129.088 17.83C128.728 18.0033 128.335 18.09 127.908 18.09C127.495 18.09 127.125 17.9967 126.798 17.81C126.478 17.6233 126.225 17.36 126.038 17.02C125.858 16.6733 125.768 16.2767 125.768 15.83C125.768 15.63 125.788 15.4267 125.828 15.22ZM130.338 15.24C130.365 15.1133 130.378 14.9767 130.378 14.83C130.378 14.3833 130.245 14.0333 129.978 13.78C129.718 13.52 129.392 13.39 128.998 13.39C128.705 13.39 128.418 13.4633 128.138 13.61C127.858 13.75 127.615 13.96 127.408 14.24C127.202 14.5133 127.065 14.84 126.998 15.22C126.972 15.3467 126.958 15.4833 126.958 15.63C126.958 16.0833 127.088 16.4433 127.348 16.71C127.615 16.97 127.945 17.1 128.338 17.1C128.632 17.1 128.918 17.0267 129.198 16.88C129.478 16.7333 129.722 16.52 129.928 16.24C130.135 15.9533 130.272 15.62 130.338 15.24ZM134.436 13.46C134.662 13.1267 134.929 12.8667 135.236 12.68C135.549 12.4933 135.896 12.4 136.276 12.4L136.066 13.58H135.776C135.336 13.58 134.982 13.69 134.716 13.91C134.449 14.13 134.262 14.51 134.156 15.05L133.636 18H132.496L133.466 12.49H134.606L134.436 13.46ZM138.994 15.25L141.054 18H139.514L137.894 15.63L137.474 18H136.334L137.644 10.6H138.784L138.024 14.89L140.444 12.49H142.024L138.994 15.25Z" fill="black" fill-opacity="0.5"/>
</svg>
