<svg width="480" height="360" viewBox="0 0 480 360" fill="none" xmlns="http://www.w3.org/2000/svg">
<rect x="290" y="150" width="180" height="120" rx="15" fill="white" fill-opacity="0.5"/>
<path d="M377 200H383C384.105 200 385 200.895 385 202V208C385 209.105 384.105 210 383 210H377C375.895 210 375 209.105 375 208V202C375 200.895 375.895 200 377 200Z" stroke="black" stroke-width="2"/>
<path d="M416.53 200.26L422.756 204.152C423.383 204.544 423.383 205.456 422.756 205.848L416.53 209.74C415.864 210.156 415 209.677 415 208.892V201.108C415 200.323 415.864 199.844 416.53 200.26Z" stroke="black" stroke-width="2"/>
<rect x="424" y="199" width="2" height="12" rx="1" fill="black"/>
<path d="M343.47 209.74L337.244 205.848C336.617 205.456 336.617 204.544 337.244 204.152L343.47 200.26C344.136 199.844 345 200.323 345 201.108L345 208.892C345 209.677 344.136 210.156 343.47 209.74Z" stroke="black" stroke-width="2"/>
<rect x="336" y="211" width="2" height="12" rx="1" transform="rotate(180 336 211)" fill="black"/>
<path d="M347.405 164.05C348.145 164.05 348.791 164.193 349.345 164.48C349.905 164.76 350.335 165.167 350.635 165.7C350.941 166.227 351.095 166.843 351.095 167.55C351.095 168.257 350.941 168.87 350.635 169.39C350.335 169.91 349.905 170.31 349.345 170.59C348.791 170.863 348.145 171 347.405 171H345.135V164.05H347.405ZM347.405 170.07C348.218 170.07 348.841 169.85 349.275 169.41C349.708 168.97 349.925 168.35 349.925 167.55C349.925 166.743 349.708 166.113 349.275 165.66C348.841 165.207 348.218 164.98 347.405 164.98H346.275V170.07H347.405ZM353.365 166.29C353.531 166.01 353.751 165.793 354.025 165.64C354.305 165.48 354.635 165.4 355.015 165.4V166.58H354.725C354.278 166.58 353.938 166.693 353.705 166.92C353.478 167.147 353.365 167.54 353.365 168.1V171H352.225V165.49H353.365V166.29ZM355.683 168.22C355.683 167.667 355.796 167.177 356.023 166.75C356.256 166.323 356.569 165.993 356.963 165.76C357.363 165.52 357.803 165.4 358.283 165.4C358.716 165.4 359.093 165.487 359.413 165.66C359.739 165.827 359.999 166.037 360.193 166.29V165.49H361.343V171H360.193V170.18C359.999 170.44 359.736 170.657 359.403 170.83C359.069 171.003 358.689 171.09 358.263 171.09C357.789 171.09 357.356 170.97 356.963 170.73C356.569 170.483 356.256 170.143 356.023 169.71C355.796 169.27 355.683 168.773 355.683 168.22ZM360.193 168.24C360.193 167.86 360.113 167.53 359.953 167.25C359.799 166.97 359.596 166.757 359.343 166.61C359.089 166.463 358.816 166.39 358.523 166.39C358.229 166.39 357.956 166.463 357.703 166.61C357.449 166.75 357.243 166.96 357.083 167.24C356.929 167.513 356.853 167.84 356.853 168.22C356.853 168.6 356.929 168.933 357.083 169.22C357.243 169.507 357.449 169.727 357.703 169.88C357.963 170.027 358.236 170.1 358.523 170.1C358.816 170.1 359.089 170.027 359.343 169.88C359.596 169.733 359.799 169.52 359.953 169.24C360.113 168.953 360.193 168.62 360.193 168.24ZM365.06 165.4C365.487 165.4 365.863 165.487 366.19 165.66C366.523 165.827 366.783 166.037 366.97 166.29V165.49H368.12V171.09C368.12 171.597 368.013 172.047 367.8 172.44C367.587 172.84 367.277 173.153 366.87 173.38C366.47 173.607 365.99 173.72 365.43 173.72C364.683 173.72 364.063 173.543 363.57 173.19C363.077 172.843 362.797 172.37 362.73 171.77H363.86C363.947 172.057 364.13 172.287 364.41 172.46C364.697 172.64 365.037 172.73 365.43 172.73C365.89 172.73 366.26 172.59 366.54 172.31C366.827 172.03 366.97 171.623 366.97 171.09V170.17C366.777 170.43 366.513 170.65 366.18 170.83C365.853 171.003 365.48 171.09 365.06 171.09C364.58 171.09 364.14 170.97 363.74 170.73C363.347 170.483 363.033 170.143 362.8 169.71C362.573 169.27 362.46 168.773 362.46 168.22C362.46 167.667 362.573 167.177 362.8 166.75C363.033 166.323 363.347 165.993 363.74 165.76C364.14 165.52 364.58 165.4 365.06 165.4ZM366.97 168.24C366.97 167.86 366.89 167.53 366.73 167.25C366.577 166.97 366.373 166.757 366.12 166.61C365.867 166.463 365.593 166.39 365.3 166.39C365.007 166.39 364.733 166.463 364.48 166.61C364.227 166.75 364.02 166.96 363.86 167.24C363.707 167.513 363.63 167.84 363.63 168.22C363.63 168.6 363.707 168.933 363.86 169.22C364.02 169.507 364.227 169.727 364.48 169.88C364.74 170.027 365.013 170.1 365.3 170.1C365.593 170.1 365.867 170.027 366.12 169.88C366.373 169.733 366.577 169.52 366.73 169.24C366.89 168.953 366.97 168.62 366.97 168.24ZM372.007 171.09C371.487 171.09 371.017 170.973 370.597 170.74C370.177 170.5 369.847 170.167 369.607 169.74C369.367 169.307 369.247 168.807 369.247 168.24C369.247 167.68 369.371 167.183 369.617 166.75C369.864 166.317 370.201 165.983 370.627 165.75C371.054 165.517 371.531 165.4 372.057 165.4C372.584 165.4 373.061 165.517 373.487 165.75C373.914 165.983 374.251 166.317 374.497 166.75C374.744 167.183 374.867 167.68 374.867 168.24C374.867 168.8 374.741 169.297 374.487 169.73C374.234 170.163 373.887 170.5 373.447 170.74C373.014 170.973 372.534 171.09 372.007 171.09ZM372.007 170.1C372.301 170.1 372.574 170.03 372.827 169.89C373.087 169.75 373.297 169.54 373.457 169.26C373.617 168.98 373.697 168.64 373.697 168.24C373.697 167.84 373.621 167.503 373.467 167.23C373.314 166.95 373.111 166.74 372.857 166.6C372.604 166.46 372.331 166.39 372.037 166.39C371.744 166.39 371.471 166.46 371.217 166.6C370.971 166.74 370.774 166.95 370.627 167.23C370.481 167.503 370.407 167.84 370.407 168.24C370.407 168.833 370.557 169.293 370.857 169.62C371.164 169.94 371.547 170.1 372.007 170.1ZM378.774 165.4C379.207 165.4 379.594 165.49 379.934 165.67C380.281 165.85 380.551 166.117 380.744 166.47C380.937 166.823 381.034 167.25 381.034 167.75V171H379.904V167.92C379.904 167.427 379.781 167.05 379.534 166.79C379.287 166.523 378.951 166.39 378.524 166.39C378.097 166.39 377.757 166.523 377.504 166.79C377.257 167.05 377.134 167.427 377.134 167.92V171H375.994V165.49H377.134V166.12C377.321 165.893 377.557 165.717 377.844 165.59C378.137 165.463 378.447 165.4 378.774 165.4ZM387.376 171.07C386.909 171.07 386.489 170.99 386.116 170.83C385.743 170.663 385.449 170.43 385.236 170.13C385.023 169.83 384.916 169.48 384.916 169.08H386.136C386.163 169.38 386.279 169.627 386.486 169.82C386.699 170.013 386.996 170.11 387.376 170.11C387.769 170.11 388.076 170.017 388.296 169.83C388.516 169.637 388.626 169.39 388.626 169.09C388.626 168.857 388.556 168.667 388.416 168.52C388.283 168.373 388.113 168.26 387.906 168.18C387.706 168.1 387.426 168.013 387.066 167.92C386.613 167.8 386.243 167.68 385.956 167.56C385.676 167.433 385.436 167.24 385.236 166.98C385.036 166.72 384.936 166.373 384.936 165.94C384.936 165.54 385.036 165.19 385.236 164.89C385.436 164.59 385.716 164.36 386.076 164.2C386.436 164.04 386.853 163.96 387.326 163.96C387.999 163.96 388.549 164.13 388.976 164.47C389.409 164.803 389.649 165.263 389.696 165.85H388.436C388.416 165.597 388.296 165.38 388.076 165.2C387.856 165.02 387.566 164.93 387.206 164.93C386.879 164.93 386.613 165.013 386.406 165.18C386.199 165.347 386.096 165.587 386.096 165.9C386.096 166.113 386.159 166.29 386.286 166.43C386.419 166.563 386.586 166.67 386.786 166.75C386.986 166.83 387.259 166.917 387.606 167.01C388.066 167.137 388.439 167.263 388.726 167.39C389.019 167.517 389.266 167.713 389.466 167.98C389.673 168.24 389.776 168.59 389.776 169.03C389.776 169.383 389.679 169.717 389.486 170.03C389.299 170.343 389.023 170.597 388.656 170.79C388.296 170.977 387.869 171.07 387.376 171.07ZM392.261 163.6V171H391.121V163.6H392.261ZM393.378 168.22C393.378 167.667 393.491 167.177 393.718 166.75C393.951 166.323 394.264 165.993 394.658 165.76C395.058 165.52 395.498 165.4 395.978 165.4C396.411 165.4 396.788 165.487 397.108 165.66C397.434 165.827 397.694 166.037 397.888 166.29V165.49H399.038V171H397.888V170.18C397.694 170.44 397.431 170.657 397.098 170.83C396.764 171.003 396.384 171.09 395.958 171.09C395.484 171.09 395.051 170.97 394.658 170.73C394.264 170.483 393.951 170.143 393.718 169.71C393.491 169.27 393.378 168.773 393.378 168.22ZM397.888 168.24C397.888 167.86 397.808 167.53 397.648 167.25C397.494 166.97 397.291 166.757 397.038 166.61C396.784 166.463 396.511 166.39 396.218 166.39C395.924 166.39 395.651 166.463 395.398 166.61C395.144 166.75 394.938 166.96 394.778 167.24C394.624 167.513 394.548 167.84 394.548 168.22C394.548 168.6 394.624 168.933 394.778 169.22C394.938 169.507 395.144 169.727 395.398 169.88C395.658 170.027 395.931 170.1 396.218 170.1C396.511 170.1 396.784 170.027 397.038 169.88C397.291 169.733 397.494 169.52 397.648 169.24C397.808 168.953 397.888 168.62 397.888 168.24ZM405.495 165.49L402.115 173.59H400.935L402.055 170.91L399.885 165.49H401.155L402.705 169.69L404.315 165.49H405.495ZM411.405 168.11C411.405 168.317 411.392 168.503 411.365 168.67H407.155C407.189 169.11 407.352 169.463 407.645 169.73C407.939 169.997 408.299 170.13 408.725 170.13C409.339 170.13 409.772 169.873 410.025 169.36H411.255C411.089 169.867 410.785 170.283 410.345 170.61C409.912 170.93 409.372 171.09 408.725 171.09C408.199 171.09 407.725 170.973 407.305 170.74C406.892 170.5 406.565 170.167 406.325 169.74C406.092 169.307 405.975 168.807 405.975 168.24C405.975 167.673 406.089 167.177 406.315 166.75C406.549 166.317 406.872 165.983 407.285 165.75C407.705 165.517 408.185 165.4 408.725 165.4C409.245 165.4 409.709 165.513 410.115 165.74C410.522 165.967 410.839 166.287 411.065 166.7C411.292 167.107 411.405 167.577 411.405 168.11ZM410.215 167.75C410.209 167.33 410.059 166.993 409.765 166.74C409.472 166.487 409.109 166.36 408.675 166.36C408.282 166.36 407.945 166.487 407.665 166.74C407.385 166.987 407.219 167.323 407.165 167.75H410.215ZM413.667 166.29C413.834 166.01 414.054 165.793 414.327 165.64C414.607 165.48 414.937 165.4 415.317 165.4V166.58H415.027C414.581 166.58 414.241 166.693 414.007 166.92C413.781 167.147 413.667 167.54 413.667 168.1V171H412.527V165.49H413.667V166.29Z" fill="black"/>
<path d="M352.1 178.96V179.368H354.86V178.96H352.1ZM355.076 178.96V179.368H357.828V178.96H355.076ZM353.276 178.488V180.552H353.732V178.488H353.276ZM354.58 180.992V182.688H355.116V180.992H354.58ZM356.14 178.488V180.552H356.604V178.488H356.14ZM353.004 182.032H356.716V182.52H353.004V182.032ZM353.004 181.208H356.716V181.696H353.004V181.208ZM352.476 180.824V182.912H357.268V180.824H352.476ZM355.604 183.504L355.66 183.856C356.14 183.824 356.66 183.784 357.252 183.728V183.432C356.62 183.464 356.06 183.488 355.604 183.504ZM353.268 179.136C352.972 179.544 352.412 179.976 351.892 180.176C351.996 180.264 352.132 180.416 352.204 180.528C352.732 180.272 353.308 179.76 353.604 179.272L353.268 179.136ZM356.124 179.136C355.836 179.544 355.284 179.976 354.78 180.176C354.876 180.264 355.012 180.416 355.084 180.528C355.596 180.272 356.172 179.76 356.468 179.272L356.124 179.136ZM356.66 179.184L356.316 179.336C356.62 179.776 357.204 180.296 357.676 180.544C357.756 180.432 357.9 180.272 358.004 180.184C357.532 179.984 356.964 179.56 356.66 179.184ZM353.492 182.808C353.332 183.528 352.9 183.952 351.62 184.2C351.732 184.304 351.892 184.528 351.948 184.664C353.364 184.336 353.884 183.768 354.084 182.808H353.492ZM354.844 182.808V183.96C354.844 184.488 355.036 184.608 355.796 184.608C355.948 184.608 357.1 184.608 357.26 184.608C357.828 184.608 357.98 184.44 358.052 183.744C357.9 183.712 357.692 183.648 357.572 183.568C357.548 184.104 357.492 184.176 357.204 184.176C356.964 184.176 356.012 184.176 355.828 184.176C355.436 184.176 355.372 184.144 355.372 183.96V182.808H354.844ZM354.404 180.352C354.316 180.52 354.148 180.768 354.02 180.952L354.46 181.08C354.604 180.912 354.804 180.704 354.98 180.456L354.404 180.352ZM356.124 182.712C356.076 182.952 355.972 183.32 355.884 183.568L356.22 183.672C356.308 183.456 356.412 183.144 356.532 182.84L356.124 182.712ZM356.724 183.128C356.948 183.376 357.18 183.72 357.26 183.968L357.62 183.816C357.532 183.584 357.3 183.24 357.076 183L356.724 183.128ZM353.7 179.416L353.436 179.616C353.692 179.768 354.332 180.16 354.532 180.328L354.828 179.992C354.652 179.88 353.916 179.512 353.7 179.416ZM354.22 177.288V178.24H354.836V177.288H354.22ZM351.572 177.92V178.432H357.932V177.92H351.572ZM351.228 177.92V180.424C351.228 181.584 351.172 183.168 350.548 184.304C350.676 184.368 350.908 184.552 351.012 184.664C351.684 183.456 351.788 181.656 351.788 180.424V177.92H351.228ZM360.164 179.384H364.452V180.256H360.164V179.384ZM360.164 178.048H364.452V178.904H360.164V178.048ZM359.564 177.544V180.752H365.068V177.544H359.564ZM363.196 180.424L362.684 180.616C363.316 181.528 364.46 182.288 365.604 182.656C365.692 182.496 365.868 182.264 366.004 182.144C364.884 181.848 363.756 181.2 363.196 180.424ZM361.468 180.424C360.892 181.192 359.748 181.88 358.668 182.192C358.804 182.312 358.98 182.536 359.076 182.688C360.172 182.296 361.348 181.528 361.988 180.64L361.468 180.424ZM360.804 181.832V182.312C360.804 182.904 360.66 183.68 359.252 184.208C359.388 184.328 359.58 184.536 359.668 184.688C361.22 184.064 361.412 183.096 361.412 182.328V181.832H360.804ZM361.996 177.808V180.528H362.604V177.808H361.996ZM363.348 181.832V184.624H363.964V181.832H363.348ZM368.748 184.056C368.375 184.056 368.039 183.992 367.74 183.864C367.442 183.731 367.207 183.544 367.036 183.304C366.866 183.064 366.78 182.784 366.78 182.464H367.756C367.778 182.704 367.871 182.901 368.036 183.056C368.207 183.211 368.444 183.288 368.748 183.288C369.063 183.288 369.308 183.213 369.484 183.064C369.66 182.909 369.748 182.712 369.748 182.472C369.748 182.285 369.692 182.133 369.58 182.016C369.474 181.899 369.338 181.808 369.172 181.744C369.012 181.68 368.788 181.611 368.5 181.536C368.138 181.44 367.842 181.344 367.612 181.248C367.388 181.147 367.196 180.992 367.036 180.784C366.876 180.576 366.796 180.299 366.796 179.952C366.796 179.632 366.876 179.352 367.036 179.112C367.196 178.872 367.42 178.688 367.708 178.56C367.996 178.432 368.33 178.368 368.708 178.368C369.247 178.368 369.687 178.504 370.028 178.776C370.375 179.043 370.567 179.411 370.604 179.88H369.596C369.58 179.677 369.484 179.504 369.308 179.36C369.132 179.216 368.9 179.144 368.612 179.144C368.351 179.144 368.138 179.211 367.972 179.344C367.807 179.477 367.724 179.669 367.724 179.92C367.724 180.091 367.775 180.232 367.876 180.344C367.983 180.451 368.116 180.536 368.276 180.6C368.436 180.664 368.655 180.733 368.932 180.808C369.3 180.909 369.599 181.011 369.828 181.112C370.063 181.213 370.26 181.371 370.42 181.584C370.586 181.792 370.668 182.072 370.668 182.424C370.668 182.707 370.591 182.973 370.436 183.224C370.287 183.475 370.066 183.677 369.772 183.832C369.484 183.981 369.143 184.056 368.748 184.056ZM375.713 179.592L373.009 186.072H372.065L372.961 183.928L371.225 179.592H372.241L373.481 182.952L374.769 179.592H375.713ZM381.737 179.52C382.083 179.52 382.393 179.592 382.665 179.736C382.942 179.88 383.158 180.093 383.313 180.376C383.473 180.659 383.553 181 383.553 181.4V184H382.649V181.536C382.649 181.141 382.55 180.84 382.353 180.632C382.155 180.419 381.886 180.312 381.545 180.312C381.203 180.312 380.931 180.419 380.729 180.632C380.531 180.84 380.433 181.141 380.433 181.536V184H379.529V181.536C379.529 181.141 379.43 180.84 379.233 180.632C379.035 180.419 378.766 180.312 378.425 180.312C378.083 180.312 377.811 180.419 377.609 180.632C377.411 180.84 377.313 181.141 377.313 181.536V184H376.401V179.592H377.313V180.096C377.462 179.915 377.651 179.773 377.881 179.672C378.11 179.571 378.355 179.52 378.617 179.52C378.969 179.52 379.283 179.595 379.561 179.744C379.838 179.893 380.051 180.109 380.201 180.392C380.334 180.125 380.542 179.915 380.825 179.76C381.107 179.6 381.411 179.52 381.737 179.52ZM385.625 180.24C385.78 180.037 385.991 179.867 386.257 179.728C386.524 179.589 386.825 179.52 387.161 179.52C387.545 179.52 387.895 179.616 388.209 179.808C388.529 179.995 388.78 180.259 388.961 180.6C389.143 180.941 389.233 181.333 389.233 181.776C389.233 182.219 389.143 182.616 388.961 182.968C388.78 183.315 388.529 183.587 388.209 183.784C387.895 183.976 387.545 184.072 387.161 184.072C386.825 184.072 386.527 184.005 386.265 183.872C386.004 183.733 385.791 183.563 385.625 183.36V186.096H384.713V179.592H385.625V180.24ZM388.305 181.776C388.305 181.472 388.241 181.211 388.113 180.992C387.991 180.768 387.825 180.6 387.617 180.488C387.415 180.371 387.196 180.312 386.961 180.312C386.732 180.312 386.513 180.371 386.305 180.488C386.103 180.605 385.937 180.776 385.809 181C385.687 181.224 385.625 181.488 385.625 181.792C385.625 182.096 385.687 182.363 385.809 182.592C385.937 182.816 386.103 182.987 386.305 183.104C386.513 183.221 386.732 183.28 386.961 183.28C387.196 183.28 387.415 183.221 387.617 183.104C387.825 182.981 387.991 182.805 388.113 182.576C388.241 182.347 388.305 182.08 388.305 181.776ZM392.415 179.52C392.751 179.52 393.05 179.592 393.311 179.736C393.578 179.88 393.786 180.093 393.935 180.376C394.09 180.659 394.167 181 394.167 181.4V184H393.263V181.536C393.263 181.141 393.164 180.84 392.967 180.632C392.77 180.419 392.5 180.312 392.159 180.312C391.818 180.312 391.546 180.419 391.343 180.632C391.146 180.84 391.047 181.141 391.047 181.536V184H390.135V178.08H391.047V180.104C391.202 179.917 391.396 179.773 391.631 179.672C391.871 179.571 392.132 179.52 392.415 179.52ZM397.242 184.072C396.826 184.072 396.45 183.979 396.114 183.792C395.778 183.6 395.514 183.333 395.322 182.992C395.13 182.645 395.034 182.245 395.034 181.792C395.034 181.344 395.133 180.947 395.33 180.6C395.528 180.253 395.797 179.987 396.138 179.8C396.48 179.613 396.861 179.52 397.282 179.52C397.704 179.52 398.085 179.613 398.426 179.8C398.768 179.987 399.037 180.253 399.234 180.6C399.432 180.947 399.53 181.344 399.53 181.792C399.53 182.24 399.429 182.637 399.226 182.984C399.024 183.331 398.746 183.6 398.394 183.792C398.048 183.979 397.664 184.072 397.242 184.072ZM397.242 183.28C397.477 183.28 397.696 183.224 397.898 183.112C398.106 183 398.274 182.832 398.402 182.608C398.53 182.384 398.594 182.112 398.594 181.792C398.594 181.472 398.533 181.203 398.41 180.984C398.288 180.76 398.125 180.592 397.922 180.48C397.72 180.368 397.501 180.312 397.266 180.312C397.032 180.312 396.813 180.368 396.61 180.48C396.413 180.592 396.256 180.76 396.138 180.984C396.021 181.203 395.962 181.472 395.962 181.792C395.962 182.267 396.082 182.635 396.322 182.896C396.568 183.152 396.874 183.28 397.242 183.28ZM402.656 179.52C403.003 179.52 403.312 179.592 403.584 179.736C403.861 179.88 404.077 180.093 404.232 180.376C404.387 180.659 404.464 181 404.464 181.4V184H403.56V181.536C403.56 181.141 403.461 180.84 403.264 180.632C403.067 180.419 402.797 180.312 402.456 180.312C402.115 180.312 401.843 180.419 401.64 180.632C401.443 180.84 401.344 181.141 401.344 181.536V184H400.432V179.592H401.344V180.096C401.493 179.915 401.683 179.773 401.912 179.672C402.147 179.571 402.395 179.52 402.656 179.52ZM409.595 179.592L406.891 186.072H405.947L406.843 183.928L405.107 179.592H406.123L407.363 182.952L408.651 179.592H409.595Z" fill="#808080"/>
<rect x="305" y="235" width="150" height="20" rx="10" fill="black" fill-opacity="0.1"/>
</svg>
