<svg xmlns="http://www.w3.org/2000/svg" fill="none" viewBox="0 0 140 42" height="42" width="140">
<path fill="white" d="M6.732 19.144C6.732 19.568 6.632 19.968 6.432 20.344C6.232 20.72 5.912 21.028 5.472 21.268C5.032 21.5 4.468 21.616 3.78 21.616H2.268V25H0.9V16.66H3.78C4.42 16.66 4.96 16.772 5.4 16.996C5.848 17.212 6.18 17.508 6.396 17.884C6.62 18.26 6.732 18.68 6.732 19.144ZM3.78 20.5C4.3 20.5 4.688 20.384 4.944 20.152C5.2 19.912 5.328 19.576 5.328 19.144C5.328 18.232 4.812 17.776 3.78 17.776H2.268V20.5H3.78ZM8.73272 17.512C8.48472 17.512 8.27672 17.428 8.10872 17.26C7.94072 17.092 7.85672 16.884 7.85672 16.636C7.85672 16.388 7.94072 16.18 8.10872 16.012C8.27672 15.844 8.48472 15.76 8.73272 15.76C8.97272 15.76 9.17672 15.844 9.34472 16.012C9.51272 16.18 9.59672 16.388 9.59672 16.636C9.59672 16.884 9.51272 17.092 9.34472 17.26C9.17672 17.428 8.97272 17.512 8.73272 17.512ZM9.40472 18.388V25H8.03672V18.388H9.40472ZM12.4128 23.884H15.4128V25H10.8288V23.884L13.8408 19.504H10.8288V18.388H15.4128V19.504L12.4128 23.884ZM18.0612 23.884H21.0612V25H16.4772V23.884L19.4892 19.504H16.4772V18.388H21.0612V19.504L18.0612 23.884ZM23.1937 17.512C22.9457 17.512 22.7377 17.428 22.5697 17.26C22.4017 17.092 22.3177 16.884 22.3177 16.636C22.3177 16.388 22.4017 16.18 22.5697 16.012C22.7377 15.844 22.9457 15.76 23.1937 15.76C23.4337 15.76 23.6377 15.844 23.8057 16.012C23.9737 16.18 24.0577 16.388 24.0577 16.636C24.0577 16.884 23.9737 17.092 23.8057 17.26C23.6377 17.428 23.4337 17.512 23.1937 17.512ZM23.8657 18.388V25H22.4977V18.388H23.8657ZM25.2057 21.688C25.2057 21.008 25.3417 20.412 25.6137 19.9C25.8937 19.38 26.2777 18.98 26.7657 18.7C27.2537 18.42 27.8137 18.28 28.4457 18.28C29.2457 18.28 29.9057 18.472 30.4257 18.856C30.9537 19.232 31.3097 19.772 31.4937 20.476H30.0177C29.8977 20.148 29.7057 19.892 29.4417 19.708C29.1777 19.524 28.8457 19.432 28.4457 19.432C27.8857 19.432 27.4377 19.632 27.1017 20.032C26.7737 20.424 26.6097 20.976 26.6097 21.688C26.6097 22.4 26.7737 22.956 27.1017 23.356C27.4377 23.756 27.8857 23.956 28.4457 23.956C29.2377 23.956 29.7617 23.608 30.0177 22.912H31.4937C31.3017 23.584 30.9417 24.12 30.4137 24.52C29.8857 24.912 29.2297 25.108 28.4457 25.108C27.8137 25.108 27.2537 24.968 26.7657 24.688C26.2777 24.4 25.8937 24 25.6137 23.488C25.3417 22.968 25.2057 22.368 25.2057 21.688ZM32.401 21.664C32.401 21 32.537 20.412 32.809 19.9C33.089 19.388 33.465 18.992 33.937 18.712C34.417 18.424 34.945 18.28 35.521 18.28C36.041 18.28 36.493 18.384 36.877 18.592C37.269 18.792 37.581 19.044 37.813 19.348V18.388H39.193V25H37.813V24.016C37.581 24.328 37.265 24.588 36.865 24.796C36.465 25.004 36.009 25.108 35.497 25.108C34.929 25.108 34.409 24.964 33.937 24.676C33.465 24.38 33.089 23.972 32.809 23.452C32.537 22.924 32.401 22.328 32.401 21.664ZM37.813 21.688C37.813 21.232 37.717 20.836 37.525 20.5C37.341 20.164 37.097 19.908 36.793 19.732C36.489 19.556 36.161 19.468 35.809 19.468C35.457 19.468 35.129 19.556 34.825 19.732C34.521 19.9 34.273 20.152 34.081 20.488C33.897 20.816 33.805 21.208 33.805 21.664C33.805 22.12 33.897 22.52 34.081 22.864C34.273 23.208 34.521 23.472 34.825 23.656C35.137 23.832 35.465 23.92 35.809 23.92C36.161 23.92 36.489 23.832 36.793 23.656C37.097 23.48 37.341 23.224 37.525 22.888C37.717 22.544 37.813 22.144 37.813 21.688ZM42.5858 19.504V23.164C42.5858 23.412 42.6418 23.592 42.7538 23.704C42.8738 23.808 43.0738 23.86 43.3538 23.86H44.1938V25H43.1138C42.4978 25 42.0258 24.856 41.6978 24.568C41.3698 24.28 41.2058 23.812 41.2058 23.164V19.504H40.4258V18.388H41.2058V16.744H42.5858V18.388H44.1938V19.504H42.5858ZM48.3227 25.108C47.6987 25.108 47.1347 24.968 46.6307 24.688C46.1267 24.4 45.7307 24 45.4427 23.488C45.1547 22.968 45.0107 22.368 45.0107 21.688C45.0107 21.016 45.1587 20.42 45.4547 19.9C45.7507 19.38 46.1547 18.98 46.6667 18.7C47.1787 18.42 47.7507 18.28 48.3827 18.28C49.0147 18.28 49.5867 18.42 50.0987 18.7C50.6107 18.98 51.0147 19.38 51.3107 19.9C51.6067 20.42 51.7547 21.016 51.7547 21.688C51.7547 22.36 51.6027 22.956 51.2987 23.476C50.9947 23.996 50.5787 24.4 50.0507 24.688C49.5307 24.968 48.9547 25.108 48.3227 25.108ZM48.3227 23.92C48.6747 23.92 49.0027 23.836 49.3067 23.668C49.6187 23.5 49.8707 23.248 50.0627 22.912C50.2547 22.576 50.3507 22.168 50.3507 21.688C50.3507 21.208 50.2587 20.804 50.0747 20.476C49.8907 20.14 49.6467 19.888 49.3427 19.72C49.0387 19.552 48.7107 19.468 48.3587 19.468C48.0067 19.468 47.6787 19.552 47.3747 19.72C47.0787 19.888 46.8427 20.14 46.6667 20.476C46.4907 20.804 46.4027 21.208 46.4027 21.688C46.4027 22.4 46.5827 22.952 46.9427 23.344C47.3107 23.728 47.7707 23.92 48.3227 23.92Z"></path>
</svg>
