<svg width="450" height="360" viewBox="0 0 450 360" fill="none" xmlns="http://www.w3.org/2000/svg">
<rect width="450" height="40" rx="15" fill="white" fill-opacity="0.1"/>
<path d="M27.56 15.66V24H26.192V20.352H22.268V24H20.9V15.66H22.268V19.236H26.192V15.66H27.56ZM32.2289 24.108C31.6049 24.108 31.0409 23.968 30.5369 23.688C30.0329 23.4 29.6369 23 29.3489 22.488C29.0609 21.968 28.9169 21.368 28.9169 20.688C28.9169 20.016 29.0649 19.42 29.3609 18.9C29.6569 18.38 30.0609 17.98 30.5729 17.7C31.0849 17.42 31.6569 17.28 32.2889 17.28C32.9209 17.28 33.4929 17.42 34.0049 17.7C34.5169 17.98 34.9209 18.38 35.2169 18.9C35.5129 19.42 35.6609 20.016 35.6609 20.688C35.6609 21.36 35.5089 21.956 35.2049 22.476C34.9009 22.996 34.4849 23.4 33.9569 23.688C33.4369 23.968 32.8609 24.108 32.2289 24.108ZM32.2289 22.92C32.5809 22.92 32.9089 22.836 33.2129 22.668C33.5249 22.5 33.7769 22.248 33.9689 21.912C34.1609 21.576 34.2569 21.168 34.2569 20.688C34.2569 20.208 34.1649 19.804 33.9809 19.476C33.7969 19.14 33.5529 18.888 33.2489 18.72C32.9449 18.552 32.6169 18.468 32.2649 18.468C31.9129 18.468 31.5849 18.552 31.2809 18.72C30.9849 18.888 30.7489 19.14 30.5729 19.476C30.3969 19.804 30.3089 20.208 30.3089 20.688C30.3089 21.4 30.4889 21.952 30.8489 22.344C31.2169 22.728 31.6769 22.92 32.2289 22.92ZM45.0173 17.28C45.5373 17.28 46.0013 17.388 46.4093 17.604C46.8253 17.82 47.1493 18.14 47.3813 18.564C47.6213 18.988 47.7413 19.5 47.7413 20.1V24H46.3853V20.304C46.3853 19.712 46.2373 19.26 45.9413 18.948C45.6453 18.628 45.2413 18.468 44.7293 18.468C44.2173 18.468 43.8093 18.628 43.5053 18.948C43.2093 19.26 43.0613 19.712 43.0613 20.304V24H41.7053V20.304C41.7053 19.712 41.5573 19.26 41.2613 18.948C40.9653 18.628 40.5613 18.468 40.0493 18.468C39.5373 18.468 39.1293 18.628 38.8253 18.948C38.5293 19.26 38.3813 19.712 38.3813 20.304V24H37.0133V17.388H38.3813V18.144C38.6053 17.872 38.8893 17.66 39.2333 17.508C39.5773 17.356 39.9453 17.28 40.3373 17.28C40.8653 17.28 41.3373 17.392 41.7533 17.616C42.1693 17.84 42.4893 18.164 42.7133 18.588C42.9133 18.188 43.2253 17.872 43.6493 17.64C44.0733 17.4 44.5293 17.28 45.0173 17.28ZM55.542 20.532C55.542 20.78 55.526 21.004 55.494 21.204H50.442C50.482 21.732 50.678 22.156 51.03 22.476C51.382 22.796 51.814 22.956 52.326 22.956C53.062 22.956 53.582 22.648 53.886 22.032H55.362C55.162 22.64 54.798 23.14 54.27 23.532C53.75 23.916 53.102 24.108 52.326 24.108C51.694 24.108 51.126 23.968 50.622 23.688C50.126 23.4 49.734 23 49.446 22.488C49.166 21.968 49.026 21.368 49.026 20.688C49.026 20.008 49.162 19.412 49.434 18.9C49.714 18.38 50.102 17.98 50.598 17.7C51.102 17.42 51.678 17.28 52.326 17.28C52.95 17.28 53.506 17.416 53.994 17.688C54.482 17.96 54.862 18.344 55.134 18.84C55.406 19.328 55.542 19.892 55.542 20.532ZM54.114 20.1C54.106 19.596 53.926 19.192 53.574 18.888C53.222 18.584 52.786 18.432 52.266 18.432C51.794 18.432 51.39 18.584 51.054 18.888C50.718 19.184 50.518 19.588 50.454 20.1H54.114Z" fill="white"/>
<path d="M231.89 17.05V24H230.75V17.05H231.89ZM235.567 21.25L238.107 24H236.567L234.527 21.63V24H233.387V16.6H234.527V20.9L236.527 18.49H238.107L235.567 21.25ZM240.924 24.09C240.49 24.09 240.1 24.0133 239.754 23.86C239.414 23.7 239.144 23.4867 238.944 23.22C238.744 22.9467 238.637 22.6433 238.624 22.31H239.804C239.824 22.5433 239.934 22.74 240.134 22.9C240.34 23.0533 240.597 23.13 240.904 23.13C241.224 23.13 241.47 23.07 241.644 22.95C241.824 22.8233 241.914 22.6633 241.914 22.47C241.914 22.2633 241.814 22.11 241.614 22.01C241.42 21.91 241.11 21.8 240.684 21.68C240.27 21.5667 239.934 21.4567 239.674 21.35C239.414 21.2433 239.187 21.08 238.994 20.86C238.807 20.64 238.714 20.35 238.714 19.99C238.714 19.6967 238.8 19.43 238.974 19.19C239.147 18.9433 239.394 18.75 239.714 18.61C240.04 18.47 240.414 18.4 240.834 18.4C241.46 18.4 241.964 18.56 242.344 18.88C242.73 19.1933 242.937 19.6233 242.964 20.17H241.824C241.804 19.9233 241.704 19.7267 241.524 19.58C241.344 19.4333 241.1 19.36 240.794 19.36C240.494 19.36 240.264 19.4167 240.104 19.53C239.944 19.6433 239.864 19.7933 239.864 19.98C239.864 20.1267 239.917 20.25 240.024 20.35C240.13 20.45 240.26 20.53 240.414 20.59C240.567 20.6433 240.794 20.7133 241.094 20.8C241.494 20.9067 241.82 21.0167 242.074 21.13C242.334 21.2367 242.557 21.3967 242.744 21.61C242.93 21.8233 243.027 22.1067 243.034 22.46C243.034 22.7733 242.947 23.0533 242.774 23.3C242.6 23.5467 242.354 23.74 242.034 23.88C241.72 24.02 241.35 24.09 240.924 24.09ZM246.656 24.09C246.136 24.09 245.666 23.9733 245.246 23.74C244.826 23.5 244.496 23.1667 244.256 22.74C244.016 22.3067 243.896 21.8067 243.896 21.24C243.896 20.68 244.019 20.1833 244.266 19.75C244.512 19.3167 244.849 18.9833 245.276 18.75C245.702 18.5167 246.179 18.4 246.706 18.4C247.232 18.4 247.709 18.5167 248.136 18.75C248.562 18.9833 248.899 19.3167 249.146 19.75C249.392 20.1833 249.516 20.68 249.516 21.24C249.516 21.8 249.389 22.2967 249.136 22.73C248.882 23.1633 248.536 23.5 248.096 23.74C247.662 23.9733 247.182 24.09 246.656 24.09ZM246.656 23.1C246.949 23.1 247.222 23.03 247.476 22.89C247.736 22.75 247.946 22.54 248.106 22.26C248.266 21.98 248.346 21.64 248.346 21.24C248.346 20.84 248.269 20.5033 248.116 20.23C247.962 19.95 247.759 19.74 247.506 19.6C247.252 19.46 246.979 19.39 246.686 19.39C246.392 19.39 246.119 19.46 245.866 19.6C245.619 19.74 245.422 19.95 245.276 20.23C245.129 20.5033 245.056 20.84 245.056 21.24C245.056 21.8333 245.206 22.2933 245.506 22.62C245.812 22.94 246.196 23.1 246.656 23.1ZM253.423 18.4C253.856 18.4 254.243 18.49 254.583 18.67C254.929 18.85 255.199 19.1167 255.393 19.47C255.586 19.8233 255.683 20.25 255.683 20.75V24H254.553V20.92C254.553 20.4267 254.429 20.05 254.183 19.79C253.936 19.5233 253.599 19.39 253.173 19.39C252.746 19.39 252.406 19.5233 252.153 19.79C251.906 20.05 251.783 20.4267 251.783 20.92V24H250.643V18.49H251.783V19.12C251.969 18.8933 252.206 18.7167 252.493 18.59C252.786 18.4633 253.096 18.4 253.423 18.4Z" fill="#808080"/>
<path d="M410.209 18.51C410.249 17.89 410.486 17.4067 410.919 17.06C411.359 16.7133 411.919 16.54 412.599 16.54C413.066 16.54 413.469 16.6233 413.809 16.79C414.149 16.9567 414.406 17.1833 414.579 17.47C414.752 17.7567 414.839 18.08 414.839 18.44C414.839 18.8533 414.729 19.2067 414.509 19.5C414.289 19.7933 414.026 19.99 413.719 20.09V20.13C414.112 20.25 414.419 20.47 414.639 20.79C414.859 21.1033 414.969 21.5067 414.969 22C414.969 22.3933 414.879 22.7433 414.699 23.05C414.519 23.3567 414.252 23.6 413.899 23.78C413.546 23.9533 413.122 24.04 412.629 24.04C411.909 24.04 411.316 23.8567 410.849 23.49C410.389 23.1167 410.142 22.5833 410.109 21.89H411.209C411.236 22.2433 411.372 22.5333 411.619 22.76C411.866 22.98 412.199 23.09 412.619 23.09C413.026 23.09 413.339 22.98 413.559 22.76C413.779 22.5333 413.889 22.2433 413.889 21.89C413.889 21.4233 413.739 21.0933 413.439 20.9C413.146 20.7 412.692 20.6 412.079 20.6H411.819V19.66H412.089C412.629 19.6533 413.039 19.5633 413.319 19.39C413.606 19.2167 413.749 18.9433 413.749 18.57C413.749 18.25 413.646 17.9967 413.439 17.81C413.232 17.6167 412.939 17.52 412.559 17.52C412.186 17.52 411.896 17.6167 411.689 17.81C411.482 17.9967 411.359 18.23 411.319 18.51H410.209ZM416.776 24.07C416.57 24.07 416.396 24 416.256 23.86C416.116 23.72 416.046 23.5467 416.046 23.34C416.046 23.1333 416.116 22.96 416.256 22.82C416.396 22.68 416.57 22.61 416.776 22.61C416.976 22.61 417.146 22.68 417.286 22.82C417.426 22.96 417.496 23.1333 417.496 23.34C417.496 23.5467 417.426 23.72 417.286 23.86C417.146 24 416.976 24.07 416.776 24.07ZM416.776 19.87C416.57 19.87 416.396 19.8 416.256 19.66C416.116 19.52 416.046 19.3467 416.046 19.14C416.046 18.9333 416.116 18.76 416.256 18.62C416.396 18.48 416.57 18.41 416.776 18.41C416.976 18.41 417.146 18.48 417.286 18.62C417.426 18.76 417.496 18.9333 417.496 19.14C417.496 19.3467 417.426 19.52 417.286 19.66C417.146 19.8 416.976 19.87 416.776 19.87ZM423.318 17.69H419.968V19.68C420.108 19.4933 420.314 19.3367 420.588 19.21C420.868 19.0833 421.164 19.02 421.478 19.02C422.038 19.02 422.491 19.14 422.838 19.38C423.191 19.62 423.441 19.9233 423.588 20.29C423.741 20.6567 423.818 21.0433 423.818 21.45C423.818 21.9433 423.721 22.3833 423.528 22.77C423.341 23.15 423.058 23.45 422.678 23.67C422.304 23.89 421.844 24 421.298 24C420.571 24 419.988 23.82 419.548 23.46C419.108 23.1 418.844 22.6233 418.758 22.03H419.868C419.941 22.3433 420.104 22.5933 420.358 22.78C420.611 22.96 420.928 23.05 421.308 23.05C421.781 23.05 422.134 22.9067 422.368 22.62C422.608 22.3333 422.728 21.9533 422.728 21.48C422.728 21 422.608 20.6333 422.368 20.38C422.128 20.12 421.774 19.99 421.308 19.99C420.981 19.99 420.704 20.0733 420.478 20.24C420.258 20.4 420.098 20.62 419.998 20.9H418.918V16.69H423.318V17.69ZM429.624 17.59L426.844 24H425.694L428.504 17.71H424.804V16.74H429.624V17.59Z" fill="#808080"/>
</svg>
