<svg width="80" height="28" viewBox="0 0 80 28" fill="none" xmlns="http://www.w3.org/2000/svg">
<rect width="80" height="28" rx="5" fill="#E6E6E6"/>
<path d="M12.75 18.09C12.3167 18.09 11.9267 18.0133 11.58 17.86C11.24 17.7 10.97 17.4867 10.77 17.22C10.57 16.9467 10.4633 16.6433 10.45 16.31H11.63C11.65 16.5433 11.76 16.74 11.96 16.9C12.1667 17.0533 12.4233 17.13 12.73 17.13C13.05 17.13 13.2967 17.07 13.47 16.95C13.65 16.8233 13.74 16.6633 13.74 16.47C13.74 16.2633 13.64 16.11 13.44 16.01C13.2467 15.91 12.9367 15.8 12.51 15.68C12.0967 15.5667 11.76 15.4567 11.5 15.35C11.24 15.2433 11.0133 15.08 10.82 14.86C10.6333 14.64 10.54 14.35 10.54 13.99C10.54 13.6967 10.6267 13.43 10.8 13.19C10.9733 12.9433 11.22 12.75 11.54 12.61C11.8667 12.47 12.24 12.4 12.66 12.4C13.2867 12.4 13.79 12.56 14.17 12.88C14.5567 13.1933 14.7633 13.6233 14.79 14.17H13.65C13.63 13.9233 13.53 13.7267 13.35 13.58C13.17 13.4333 12.9267 13.36 12.62 13.36C12.32 13.36 12.09 13.4167 11.93 13.53C11.77 13.6433 11.69 13.7933 11.69 13.98C11.69 14.1267 11.7433 14.25 11.85 14.35C11.9567 14.45 12.0867 14.53 12.24 14.59C12.3933 14.6433 12.62 14.7133 12.92 14.8C13.32 14.9067 13.6467 15.0167 13.9 15.13C14.16 15.2367 14.3833 15.3967 14.57 15.61C14.7567 15.8233 14.8533 16.1067 14.86 16.46C14.86 16.7733 14.7733 17.0533 14.6 17.3C14.4267 17.5467 14.18 17.74 13.86 17.88C13.5467 18.02 13.1767 18.09 12.75 18.09ZM17.4218 13.42V16.47C17.4218 16.6767 17.4685 16.8267 17.5618 16.92C17.6618 17.0067 17.8285 17.05 18.0618 17.05H18.7618V18H17.8618C17.3485 18 16.9551 17.88 16.6818 17.64C16.4085 17.4 16.2718 17.01 16.2718 16.47V13.42H15.6218V12.49H16.2718V11.12H17.4218V12.49H18.7618V13.42H17.4218ZM22.2025 18.09C21.6825 18.09 21.2125 17.9733 20.7925 17.74C20.3725 17.5 20.0425 17.1667 19.8025 16.74C19.5625 16.3067 19.4425 15.8067 19.4425 15.24C19.4425 14.68 19.5658 14.1833 19.8125 13.75C20.0592 13.3167 20.3958 12.9833 20.8225 12.75C21.2492 12.5167 21.7258 12.4 22.2525 12.4C22.7792 12.4 23.2558 12.5167 23.6825 12.75C24.1092 12.9833 24.4458 13.3167 24.6925 13.75C24.9392 14.1833 25.0625 14.68 25.0625 15.24C25.0625 15.8 24.9358 16.2967 24.6825 16.73C24.4292 17.1633 24.0825 17.5 23.6425 17.74C23.2092 17.9733 22.7292 18.09 22.2025 18.09ZM22.2025 17.1C22.4958 17.1 22.7692 17.03 23.0225 16.89C23.2825 16.75 23.4925 16.54 23.6525 16.26C23.8125 15.98 23.8925 15.64 23.8925 15.24C23.8925 14.84 23.8158 14.5033 23.6625 14.23C23.5092 13.95 23.3058 13.74 23.0525 13.6C22.7992 13.46 22.5258 13.39 22.2325 13.39C21.9392 13.39 21.6658 13.46 21.4125 13.6C21.1658 13.74 20.9692 13.95 20.8225 14.23C20.6758 14.5033 20.6025 14.84 20.6025 15.24C20.6025 15.8333 20.7525 16.2933 21.0525 16.62C21.3592 16.94 21.7425 17.1 22.2025 17.1ZM27.3295 13.29C27.4961 13.01 27.7161 12.7933 27.9895 12.64C28.2695 12.48 28.5995 12.4 28.9795 12.4V13.58H28.6895C28.2428 13.58 27.9028 13.6933 27.6695 13.92C27.4428 14.1467 27.3295 14.54 27.3295 15.1V18H26.1895V12.49H27.3295V13.29ZM29.6473 15.22C29.6473 14.6667 29.7607 14.1767 29.9873 13.75C30.2207 13.3233 30.534 12.9933 30.9273 12.76C31.3273 12.52 31.7673 12.4 32.2473 12.4C32.6807 12.4 33.0573 12.4867 33.3773 12.66C33.704 12.8267 33.964 13.0367 34.1573 13.29V12.49H35.3073V18H34.1573V17.18C33.964 17.44 33.7007 17.6567 33.3673 17.83C33.034 18.0033 32.654 18.09 32.2273 18.09C31.754 18.09 31.3207 17.97 30.9273 17.73C30.534 17.4833 30.2207 17.1433 29.9873 16.71C29.7607 16.27 29.6473 15.7733 29.6473 15.22ZM34.1573 15.24C34.1573 14.86 34.0773 14.53 33.9173 14.25C33.764 13.97 33.5607 13.7567 33.3073 13.61C33.054 13.4633 32.7807 13.39 32.4873 13.39C32.194 13.39 31.9207 13.4633 31.6673 13.61C31.414 13.75 31.2073 13.96 31.0473 14.24C30.894 14.5133 30.8173 14.84 30.8173 15.22C30.8173 15.6 30.894 15.9333 31.0473 16.22C31.2073 16.5067 31.414 16.7267 31.6673 16.88C31.9273 17.0267 32.2007 17.1 32.4873 17.1C32.7807 17.1 33.054 17.0267 33.3073 16.88C33.5607 16.7333 33.764 16.52 33.9173 16.24C34.0773 15.9533 34.1573 15.62 34.1573 15.24ZM39.0247 12.4C39.4514 12.4 39.828 12.4867 40.1547 12.66C40.488 12.8267 40.748 13.0367 40.9347 13.29V12.49H42.0847V18.09C42.0847 18.5967 41.978 19.0467 41.7647 19.44C41.5514 19.84 41.2414 20.1533 40.8347 20.38C40.4347 20.6067 39.9547 20.72 39.3947 20.72C38.648 20.72 38.028 20.5433 37.5347 20.19C37.0414 19.8433 36.7614 19.37 36.6947 18.77H37.8247C37.9114 19.0567 38.0947 19.2867 38.3747 19.46C38.6614 19.64 39.0014 19.73 39.3947 19.73C39.8547 19.73 40.2247 19.59 40.5047 19.31C40.7914 19.03 40.9347 18.6233 40.9347 18.09V17.17C40.7414 17.43 40.478 17.65 40.1447 17.83C39.818 18.0033 39.4447 18.09 39.0247 18.09C38.5447 18.09 38.1047 17.97 37.7047 17.73C37.3114 17.4833 36.998 17.1433 36.7647 16.71C36.538 16.27 36.4247 15.7733 36.4247 15.22C36.4247 14.6667 36.538 14.1767 36.7647 13.75C36.998 13.3233 37.3114 12.9933 37.7047 12.76C38.1047 12.52 38.5447 12.4 39.0247 12.4ZM40.9347 15.24C40.9347 14.86 40.8547 14.53 40.6947 14.25C40.5414 13.97 40.338 13.7567 40.0847 13.61C39.8314 13.4633 39.558 13.39 39.2647 13.39C38.9714 13.39 38.698 13.4633 38.4447 13.61C38.1914 13.75 37.9847 13.96 37.8247 14.24C37.6714 14.5133 37.5947 14.84 37.5947 15.22C37.5947 15.6 37.6714 15.9333 37.8247 16.22C37.9847 16.5067 38.1914 16.7267 38.4447 16.88C38.7047 17.0267 38.978 17.1 39.2647 17.1C39.558 17.1 39.8314 17.0267 40.0847 16.88C40.338 16.7333 40.5414 16.52 40.6947 16.24C40.8547 15.9533 40.9347 15.62 40.9347 15.24ZM48.632 15.11C48.632 15.3167 48.6187 15.5033 48.592 15.67H44.382C44.4154 16.11 44.5787 16.4633 44.872 16.73C45.1654 16.9967 45.5254 17.13 45.952 17.13C46.5654 17.13 46.9987 16.8733 47.252 16.36H48.482C48.3154 16.8667 48.012 17.2833 47.572 17.61C47.1387 17.93 46.5987 18.09 45.952 18.09C45.4254 18.09 44.952 17.9733 44.532 17.74C44.1187 17.5 43.792 17.1667 43.552 16.74C43.3187 16.3067 43.202 15.8067 43.202 15.24C43.202 14.6733 43.3154 14.1767 43.542 13.75C43.7754 13.3167 44.0987 12.9833 44.512 12.75C44.932 12.5167 45.412 12.4 45.952 12.4C46.472 12.4 46.9354 12.5133 47.342 12.74C47.7487 12.9667 48.0654 13.2867 48.292 13.7C48.5187 14.1067 48.632 14.5767 48.632 15.11ZM47.442 14.75C47.4354 14.33 47.2854 13.9933 46.992 13.74C46.6987 13.4867 46.3354 13.36 45.902 13.36C45.5087 13.36 45.172 13.4867 44.892 13.74C44.612 13.9867 44.4454 14.3233 44.392 14.75H47.442Z" fill="black"/>
</svg>
