<svg width="80" height="28" viewBox="0 0 80 28" fill="none" xmlns="http://www.w3.org/2000/svg">
<rect width="80" height="28" rx="5" fill="#1B1B1B"/>
<path d="M15.74 12.49V18H14.6V17.35C14.42 17.5767 14.1833 17.7567 13.89 17.89C13.6033 18.0167 13.2967 18.08 12.97 18.08C12.5367 18.08 12.1467 17.99 11.8 17.81C11.46 17.63 11.19 17.3633 10.99 17.01C10.7967 16.6567 10.7 16.23 10.7 15.73V12.49H11.83V15.56C11.83 16.0533 11.9533 16.4333 12.2 16.7C12.4467 16.96 12.7833 17.09 13.21 17.09C13.6367 17.09 13.9733 16.96 14.22 16.7C14.4733 16.4333 14.6 16.0533 14.6 15.56V12.49H15.74ZM20.0241 12.4C20.4575 12.4 20.8441 12.49 21.1841 12.67C21.5308 12.85 21.8008 13.1167 21.9941 13.47C22.1875 13.8233 22.2841 14.25 22.2841 14.75V18H21.1541V14.92C21.1541 14.4267 21.0308 14.05 20.7841 13.79C20.5375 13.5233 20.2008 13.39 19.7741 13.39C19.3475 13.39 19.0075 13.5233 18.7541 13.79C18.5075 14.05 18.3841 14.4267 18.3841 14.92V18H17.2441V12.49H18.3841V13.12C18.5708 12.8933 18.8075 12.7167 19.0941 12.59C19.3875 12.4633 19.6975 12.4 20.0241 12.4ZM24.3183 11.76C24.1116 11.76 23.9383 11.69 23.7983 11.55C23.6583 11.41 23.5883 11.2367 23.5883 11.03C23.5883 10.8233 23.6583 10.65 23.7983 10.51C23.9383 10.37 24.1116 10.3 24.3183 10.3C24.5183 10.3 24.6883 10.37 24.8283 10.51C24.9683 10.65 25.0383 10.8233 25.0383 11.03C25.0383 11.2367 24.9683 11.41 24.8283 11.55C24.6883 11.69 24.5183 11.76 24.3183 11.76ZM24.8783 12.49V18H23.7383V12.49H24.8783ZM29.155 12.4C29.5883 12.4 29.975 12.49 30.315 12.67C30.6617 12.85 30.9317 13.1167 31.125 13.47C31.3183 13.8233 31.415 14.25 31.415 14.75V18H30.285V14.92C30.285 14.4267 30.1617 14.05 29.915 13.79C29.6683 13.5233 29.3317 13.39 28.905 13.39C28.4783 13.39 28.1383 13.5233 27.885 13.79C27.6383 14.05 27.515 14.4267 27.515 14.92V18H26.375V12.49H27.515V13.12C27.7017 12.8933 27.9383 12.7167 28.225 12.59C28.5183 12.4633 28.8283 12.4 29.155 12.4ZM34.8691 18.09C34.4358 18.09 34.0458 18.0133 33.6991 17.86C33.3591 17.7 33.0891 17.4867 32.8891 17.22C32.6891 16.9467 32.5825 16.6433 32.5691 16.31H33.7491C33.7691 16.5433 33.8791 16.74 34.0791 16.9C34.2858 17.0533 34.5425 17.13 34.8491 17.13C35.1691 17.13 35.4158 17.07 35.5891 16.95C35.7691 16.8233 35.8591 16.6633 35.8591 16.47C35.8591 16.2633 35.7591 16.11 35.5591 16.01C35.3658 15.91 35.0558 15.8 34.6291 15.68C34.2158 15.5667 33.8791 15.4567 33.6191 15.35C33.3591 15.2433 33.1325 15.08 32.9391 14.86C32.7525 14.64 32.6591 14.35 32.6591 13.99C32.6591 13.6967 32.7458 13.43 32.9191 13.19C33.0925 12.9433 33.3391 12.75 33.6591 12.61C33.9858 12.47 34.3591 12.4 34.7791 12.4C35.4058 12.4 35.9091 12.56 36.2891 12.88C36.6758 13.1933 36.8825 13.6233 36.9091 14.17H35.7691C35.7491 13.9233 35.6491 13.7267 35.4691 13.58C35.2891 13.4333 35.0458 13.36 34.7391 13.36C34.4391 13.36 34.2091 13.4167 34.0491 13.53C33.8891 13.6433 33.8091 13.7933 33.8091 13.98C33.8091 14.1267 33.8625 14.25 33.9691 14.35C34.0758 14.45 34.2058 14.53 34.3591 14.59C34.5125 14.6433 34.7391 14.7133 35.0391 14.8C35.4391 14.9067 35.7658 15.0167 36.0191 15.13C36.2791 15.2367 36.5025 15.3967 36.6891 15.61C36.8758 15.8233 36.9725 16.1067 36.9791 16.46C36.9791 16.7733 36.8925 17.0533 36.7191 17.3C36.5458 17.5467 36.2991 17.74 35.9791 17.88C35.6658 18.02 35.2958 18.09 34.8691 18.09ZM39.5409 13.42V16.47C39.5409 16.6767 39.5876 16.8267 39.6809 16.92C39.7809 17.0067 39.9476 17.05 40.1809 17.05H40.8809V18H39.9809C39.4676 18 39.0743 17.88 38.8009 17.64C38.5276 17.4 38.3909 17.01 38.3909 16.47V13.42H37.7409V12.49H38.3909V11.12H39.5409V12.49H40.8809V13.42H39.5409ZM41.5516 15.22C41.5516 14.6667 41.665 14.1767 41.8916 13.75C42.125 13.3233 42.4383 12.9933 42.8316 12.76C43.2316 12.52 43.6716 12.4 44.1516 12.4C44.585 12.4 44.9616 12.4867 45.2816 12.66C45.6083 12.8267 45.8683 13.0367 46.0616 13.29V12.49H47.2116V18H46.0616V17.18C45.8683 17.44 45.605 17.6567 45.2716 17.83C44.9383 18.0033 44.5583 18.09 44.1316 18.09C43.6583 18.09 43.225 17.97 42.8316 17.73C42.4383 17.4833 42.125 17.1433 41.8916 16.71C41.665 16.27 41.5516 15.7733 41.5516 15.22ZM46.0616 15.24C46.0616 14.86 45.9816 14.53 45.8216 14.25C45.6683 13.97 45.465 13.7567 45.2116 13.61C44.9583 13.4633 44.685 13.39 44.3916 13.39C44.0983 13.39 43.825 13.4633 43.5716 13.61C43.3183 13.75 43.1116 13.96 42.9516 14.24C42.7983 14.5133 42.7216 14.84 42.7216 15.22C42.7216 15.6 42.7983 15.9333 42.9516 16.22C43.1116 16.5067 43.3183 16.7267 43.5716 16.88C43.8316 17.0267 44.105 17.1 44.3916 17.1C44.685 17.1 44.9583 17.0267 45.2116 16.88C45.465 16.7333 45.6683 16.52 45.8216 16.24C45.9816 15.9533 46.0616 15.62 46.0616 15.24ZM49.849 10.6V18H48.709V10.6H49.849ZM52.4857 10.6V18H51.3457V10.6H52.4857Z" fill="white"/>
</svg>
