<svg xmlns="http://www.w3.org/2000/svg" fill="none" viewBox="0 0 120 80" height="80" width="120">
<rect fill="#E6E6E6" rx="15" height="60" width="100" y="10" x="10"></rect>
<path fill="black" d="M32.1694 35.66V44H30.8014V40.352H26.8774V44H25.5094V35.66H26.8774V39.236H30.8014V35.66H32.1694ZM36.8383 44.108C36.2143 44.108 35.6503 43.968 35.1463 43.688C34.6423 43.4 34.2463 43 33.9583 42.488C33.6703 41.968 33.5263 41.368 33.5263 40.688C33.5263 40.016 33.6743 39.42 33.9703 38.9C34.2663 38.38 34.6703 37.98 35.1823 37.7C35.6943 37.42 36.2663 37.28 36.8983 37.28C37.5303 37.28 38.1023 37.42 38.6143 37.7C39.1263 37.98 39.5303 38.38 39.8263 38.9C40.1223 39.42 40.2703 40.016 40.2703 40.688C40.2703 41.36 40.1183 41.956 39.8143 42.476C39.5103 42.996 39.0943 43.4 38.5663 43.688C38.0463 43.968 37.4703 44.108 36.8383 44.108ZM36.8383 42.92C37.1903 42.92 37.5183 42.836 37.8223 42.668C38.1343 42.5 38.3863 42.248 38.5783 41.912C38.7703 41.576 38.8663 41.168 38.8663 40.688C38.8663 40.208 38.7743 39.804 38.5903 39.476C38.4063 39.14 38.1623 38.888 37.8583 38.72C37.5543 38.552 37.2263 38.468 36.8743 38.468C36.5223 38.468 36.1943 38.552 35.8903 38.72C35.5943 38.888 35.3583 39.14 35.1823 39.476C35.0063 39.804 34.9183 40.208 34.9183 40.688C34.9183 41.4 35.0983 41.952 35.4583 42.344C35.8263 42.728 36.2863 42.92 36.8383 42.92ZM50.5027 37.388L48.4507 44H47.0107L45.6787 39.116L44.3467 44H42.9067L40.8427 37.388H42.2347L43.6147 42.704L45.0187 37.388H46.4467L47.7907 42.68L49.1587 37.388H50.5027ZM56.2382 38.504V42.164C56.2382 42.412 56.2942 42.592 56.4062 42.704C56.5262 42.808 56.7262 42.86 57.0062 42.86H57.8462V44H56.7662C56.1502 44 55.6782 43.856 55.3502 43.568C55.0222 43.28 54.8582 42.812 54.8582 42.164V38.504H54.0782V37.388H54.8582V35.744H56.2382V37.388H57.8462V38.504H56.2382ZM61.975 44.108C61.351 44.108 60.787 43.968 60.283 43.688C59.779 43.4 59.383 43 59.095 42.488C58.807 41.968 58.663 41.368 58.663 40.688C58.663 40.016 58.811 39.42 59.107 38.9C59.403 38.38 59.807 37.98 60.319 37.7C60.831 37.42 61.403 37.28 62.035 37.28C62.667 37.28 63.239 37.42 63.751 37.7C64.263 37.98 64.667 38.38 64.963 38.9C65.259 39.42 65.407 40.016 65.407 40.688C65.407 41.36 65.255 41.956 64.951 42.476C64.647 42.996 64.231 43.4 63.703 43.688C63.183 43.968 62.607 44.108 61.975 44.108ZM61.975 42.92C62.327 42.92 62.655 42.836 62.959 42.668C63.271 42.5 63.523 42.248 63.715 41.912C63.907 41.576 64.003 41.168 64.003 40.688C64.003 40.208 63.911 39.804 63.727 39.476C63.543 39.14 63.299 38.888 62.995 38.72C62.691 38.552 62.363 38.468 62.011 38.468C61.659 38.468 61.331 38.552 61.027 38.72C60.731 38.888 60.495 39.14 60.319 39.476C60.143 39.804 60.055 40.208 60.055 40.688C60.055 41.4 60.235 41.952 60.595 42.344C60.963 42.728 61.423 42.92 61.975 42.92ZM71.2446 38.36C71.4766 38.056 71.7926 37.8 72.1926 37.592C72.5926 37.384 73.0446 37.28 73.5486 37.28C74.1246 37.28 74.6486 37.424 75.1206 37.712C75.6006 37.992 75.9766 38.388 76.2486 38.9C76.5206 39.412 76.6566 40 76.6566 40.664C76.6566 41.328 76.5206 41.924 76.2486 42.452C75.9766 42.972 75.6006 43.38 75.1206 43.676C74.6486 43.964 74.1246 44.108 73.5486 44.108C73.0446 44.108 72.5966 44.008 72.2046 43.808C71.8126 43.6 71.4926 43.344 71.2446 43.04V47.144H69.8766V37.388H71.2446V38.36ZM75.2646 40.664C75.2646 40.208 75.1686 39.816 74.9766 39.488C74.7926 39.152 74.5446 38.9 74.2326 38.732C73.9286 38.556 73.6006 38.468 73.2486 38.468C72.9046 38.468 72.5766 38.556 72.2646 38.732C71.9606 38.908 71.7126 39.164 71.5206 39.5C71.3366 39.836 71.2446 40.232 71.2446 40.688C71.2446 41.144 71.3366 41.544 71.5206 41.888C71.7126 42.224 71.9606 42.48 72.2646 42.656C72.5766 42.832 72.9046 42.92 73.2486 42.92C73.6006 42.92 73.9286 42.832 74.2326 42.656C74.5446 42.472 74.7926 42.208 74.9766 41.864C75.1686 41.52 75.2646 41.12 75.2646 40.664ZM79.3774 35.12V44H78.0094V35.12H79.3774ZM80.7174 40.664C80.7174 40 80.8534 39.412 81.1254 38.9C81.4054 38.388 81.7814 37.992 82.2534 37.712C82.7334 37.424 83.2614 37.28 83.8374 37.28C84.3574 37.28 84.8094 37.384 85.1934 37.592C85.5854 37.792 85.8974 38.044 86.1294 38.348V37.388H87.5094V44H86.1294V43.016C85.8974 43.328 85.5814 43.588 85.1814 43.796C84.7814 44.004 84.3254 44.108 83.8134 44.108C83.2454 44.108 82.7254 43.964 82.2534 43.676C81.7814 43.38 81.4054 42.972 81.1254 42.452C80.8534 41.924 80.7174 41.328 80.7174 40.664ZM86.1294 40.688C86.1294 40.232 86.0334 39.836 85.8414 39.5C85.6574 39.164 85.4134 38.908 85.1094 38.732C84.8054 38.556 84.4774 38.468 84.1254 38.468C83.7734 38.468 83.4454 38.556 83.1414 38.732C82.8374 38.9 82.5894 39.152 82.3974 39.488C82.2134 39.816 82.1214 40.208 82.1214 40.664C82.1214 41.12 82.2134 41.52 82.3974 41.864C82.5894 42.208 82.8374 42.472 83.1414 42.656C83.4534 42.832 83.7814 42.92 84.1254 42.92C84.4774 42.92 84.8054 42.832 85.1094 42.656C85.4134 42.48 85.6574 42.224 85.8414 41.888C86.0334 41.544 86.1294 41.144 86.1294 40.688ZM95.2583 37.388L91.2023 47.108H89.7863L91.1303 43.892L88.5263 37.388H90.0503L91.9103 42.428L93.8423 37.388H95.2583Z"></path>
</svg>
