<svg xmlns="http://www.w3.org/2000/svg" fill="none" viewBox="0 0 140 42" height="42" width="140">
<path fill="black" d="M3.648 25.084C3.088 25.084 2.584 24.988 2.136 24.796C1.688 24.596 1.336 24.316 1.08 23.956C0.824 23.596 0.696 23.176 0.696 22.696H2.16C2.192 23.056 2.332 23.352 2.58 23.584C2.836 23.816 3.192 23.932 3.648 23.932C4.12 23.932 4.488 23.82 4.752 23.596C5.016 23.364 5.148 23.068 5.148 22.708C5.148 22.428 5.064 22.2 4.896 22.024C4.736 21.848 4.532 21.712 4.284 21.616C4.044 21.52 3.708 21.416 3.276 21.304C2.732 21.16 2.288 21.016 1.944 20.872C1.608 20.72 1.32 20.488 1.08 20.176C0.84 19.864 0.72 19.448 0.72 18.928C0.72 18.448 0.84 18.028 1.08 17.668C1.32 17.308 1.656 17.032 2.088 16.84C2.52 16.648 3.02 16.552 3.588 16.552C4.396 16.552 5.056 16.756 5.568 17.164C6.088 17.564 6.376 18.116 6.432 18.82H4.92C4.896 18.516 4.752 18.256 4.488 18.04C4.224 17.824 3.876 17.716 3.444 17.716C3.052 17.716 2.732 17.816 2.484 18.016C2.236 18.216 2.112 18.504 2.112 18.88C2.112 19.136 2.188 19.348 2.34 19.516C2.5 19.676 2.7 19.804 2.94 19.9C3.18 19.996 3.508 20.1 3.924 20.212C4.476 20.364 4.924 20.516 5.268 20.668C5.62 20.82 5.916 21.056 6.156 21.376C6.404 21.688 6.528 22.108 6.528 22.636C6.528 23.06 6.412 23.46 6.18 23.836C5.956 24.212 5.624 24.516 5.184 24.748C4.752 24.972 4.24 25.084 3.648 25.084ZM14.0942 18.388L10.0382 28.108H8.62219L9.96619 24.892L7.36219 18.388H8.88619L10.7462 23.428L12.6782 18.388H14.0942ZM18.4626 18.28C18.9826 18.28 19.4466 18.388 19.8546 18.604C20.2706 18.82 20.5946 19.14 20.8266 19.564C21.0586 19.988 21.1746 20.5 21.1746 21.1V25H19.8186V21.304C19.8186 20.712 19.6706 20.26 19.3746 19.948C19.0786 19.628 18.6746 19.468 18.1626 19.468C17.6506 19.468 17.2426 19.628 16.9386 19.948C16.6426 20.26 16.4946 20.712 16.4946 21.304V25H15.1266V18.388H16.4946V19.144C16.7186 18.872 17.0026 18.66 17.3466 18.508C17.6986 18.356 18.0706 18.28 18.4626 18.28ZM24.5155 19.504V23.164C24.5155 23.412 24.5715 23.592 24.6835 23.704C24.8035 23.808 25.0035 23.86 25.2835 23.86H26.1235V25H25.0435C24.4275 25 23.9555 24.856 23.6275 24.568C23.2995 24.28 23.1355 23.812 23.1355 23.164V19.504H22.3555V18.388H23.1355V16.744H24.5155V18.388H26.1235V19.504H24.5155ZM30.8044 18.28C31.3084 18.28 31.7564 18.388 32.1484 18.604C32.5484 18.82 32.8604 19.14 33.0844 19.564C33.3164 19.988 33.4324 20.5 33.4324 21.1V25H32.0764V21.304C32.0764 20.712 31.9284 20.26 31.6324 19.948C31.3364 19.628 30.9324 19.468 30.4204 19.468C29.9084 19.468 29.5004 19.628 29.1964 19.948C28.9004 20.26 28.7524 20.712 28.7524 21.304V25H27.3844V16.12H28.7524V19.156C28.9844 18.876 29.2764 18.66 29.6284 18.508C29.9884 18.356 30.3804 18.28 30.8044 18.28ZM44.1265 19.144C44.1265 19.568 44.0265 19.968 43.8265 20.344C43.6265 20.72 43.3065 21.028 42.8665 21.268C42.4265 21.5 41.8625 21.616 41.1745 21.616H39.6625V25H38.2945V16.66H41.1745C41.8145 16.66 42.3545 16.772 42.7945 16.996C43.2425 17.212 43.5745 17.508 43.7905 17.884C44.0145 18.26 44.1265 18.68 44.1265 19.144ZM41.1745 20.5C41.6945 20.5 42.0825 20.384 42.3385 20.152C42.5945 19.912 42.7225 19.576 42.7225 19.144C42.7225 18.232 42.2065 17.776 41.1745 17.776H39.6625V20.5H41.1745ZM44.9753 21.664C44.9753 21 45.1113 20.412 45.3833 19.9C45.6633 19.388 46.0393 18.992 46.5113 18.712C46.9913 18.424 47.5193 18.28 48.0953 18.28C48.6153 18.28 49.0673 18.384 49.4513 18.592C49.8433 18.792 50.1553 19.044 50.3873 19.348V18.388H51.7673V25H50.3873V24.016C50.1553 24.328 49.8393 24.588 49.4393 24.796C49.0393 25.004 48.5833 25.108 48.0713 25.108C47.5033 25.108 46.9833 24.964 46.5113 24.676C46.0393 24.38 45.6633 23.972 45.3833 23.452C45.1113 22.924 44.9753 22.328 44.9753 21.664ZM50.3873 21.688C50.3873 21.232 50.2913 20.836 50.0993 20.5C49.9153 20.164 49.6713 19.908 49.3673 19.732C49.0633 19.556 48.7353 19.468 48.3833 19.468C48.0313 19.468 47.7033 19.556 47.3993 19.732C47.0953 19.9 46.8473 20.152 46.6553 20.488C46.4713 20.816 46.3793 21.208 46.3793 21.664C46.3793 22.12 46.4713 22.52 46.6553 22.864C46.8473 23.208 47.0953 23.472 47.3993 23.656C47.7113 23.832 48.0393 23.92 48.3833 23.92C48.7353 23.92 49.0633 23.832 49.3673 23.656C49.6713 23.48 49.9153 23.224 50.0993 22.888C50.2913 22.544 50.3873 22.144 50.3873 21.688ZM53.1081 21.664C53.1081 21 53.2441 20.412 53.5161 19.9C53.7961 19.388 54.1721 18.992 54.6441 18.712C55.1241 18.424 55.6561 18.28 56.2401 18.28C56.6721 18.28 57.0961 18.376 57.5121 18.568C57.9361 18.752 58.2721 19 58.5201 19.312V16.12H59.9001V25H58.5201V24.004C58.2961 24.324 57.9841 24.588 57.5841 24.796C57.1921 25.004 56.7401 25.108 56.2281 25.108C55.6521 25.108 55.1241 24.964 54.6441 24.676C54.1721 24.38 53.7961 23.972 53.5161 23.452C53.2441 22.924 53.1081 22.328 53.1081 21.664ZM58.5201 21.688C58.5201 21.232 58.4241 20.836 58.2321 20.5C58.0481 20.164 57.8041 19.908 57.5001 19.732C57.1961 19.556 56.8681 19.468 56.5161 19.468C56.1641 19.468 55.8361 19.556 55.5321 19.732C55.2281 19.9 54.9801 20.152 54.7881 20.488C54.6041 20.816 54.5121 21.208 54.5121 21.664C54.5121 22.12 54.6041 22.52 54.7881 22.864C54.9801 23.208 55.2281 23.472 55.5321 23.656C55.8441 23.832 56.1721 23.92 56.5161 23.92C56.8681 23.92 57.1961 23.832 57.5001 23.656C57.8041 23.48 58.0481 23.224 58.2321 22.888C58.4241 22.544 58.5201 22.144 58.5201 21.688Z"></path>
</svg>
