<svg width="80" height="28" viewBox="0 0 80 28" fill="none" xmlns="http://www.w3.org/2000/svg">
<rect width="80" height="28" rx="5" fill="#E6E6E6"/>
<path d="M16.19 12.49L15.22 18H14.08L14.19 17.35C13.97 17.5767 13.7033 17.7567 13.39 17.89C13.0833 18.0167 12.7667 18.08 12.44 18.08C11.86 18.08 11.3967 17.9233 11.05 17.61C10.7033 17.2967 10.53 16.8533 10.53 16.28C10.53 16.1267 10.5467 15.9433 10.58 15.73L11.15 12.49H12.28L11.74 15.56C11.7133 15.7467 11.7 15.88 11.7 15.96C11.7 16.3267 11.8 16.6067 12 16.8C12.2067 16.9933 12.49 17.09 12.85 17.09C13.27 17.09 13.6267 16.9667 13.92 16.72C14.2133 16.4667 14.4067 16.1033 14.5 15.63L15.05 12.49H16.19ZM20.4941 12.4C21.0741 12.4 21.5341 12.5567 21.8741 12.87C22.2208 13.1767 22.3941 13.62 22.3941 14.2C22.3941 14.3467 22.3775 14.53 22.3441 14.75L21.7641 18H20.6341L21.1841 14.92C21.2108 14.7333 21.2241 14.6 21.2241 14.52C21.2241 14.1533 21.1208 13.8733 20.9141 13.68C20.7141 13.4867 20.4341 13.39 20.0741 13.39C19.6408 13.39 19.2741 13.5233 18.9741 13.79C18.6808 14.05 18.4941 14.4267 18.4141 14.92V14.89L17.8641 18H16.7241L17.6941 12.49H18.8341L18.7241 13.13C18.9508 12.9033 19.2175 12.7267 19.5241 12.6C19.8375 12.4667 20.1608 12.4 20.4941 12.4ZM25.8783 15.25L27.9383 18H26.3983L24.7783 15.63L24.3583 18H23.2183L24.5283 10.6H25.6683L24.9083 14.89L27.3283 12.49H28.9083L25.8783 15.25ZM32.5254 12.4C33.1054 12.4 33.5654 12.5567 33.9054 12.87C34.2521 13.1767 34.4254 13.62 34.4254 14.2C34.4254 14.3467 34.4087 14.53 34.3754 14.75L33.7954 18H32.6654L33.2154 14.92C33.2421 14.7333 33.2554 14.6 33.2554 14.52C33.2554 14.1533 33.1521 13.8733 32.9454 13.68C32.7454 13.4867 32.4654 13.39 32.1054 13.39C31.6721 13.39 31.3054 13.5233 31.0054 13.79C30.7121 14.05 30.5254 14.4267 30.4454 14.92V14.89L29.8954 18H28.7554L29.7254 12.49H30.8654L30.7554 13.13C30.9821 12.9033 31.2487 12.7267 31.5554 12.6C31.8687 12.4667 32.1921 12.4 32.5254 12.4ZM37.6595 18.09C37.1929 18.09 36.7829 17.9933 36.4295 17.8C36.0762 17.6067 35.7995 17.3333 35.5995 16.98C35.4062 16.6267 35.3095 16.2233 35.3095 15.77C35.3095 15.15 35.4529 14.5833 35.7395 14.07C36.0329 13.5567 36.4329 13.15 36.9395 12.85C37.4529 12.55 38.0229 12.4 38.6495 12.4C39.1162 12.4 39.5295 12.5 39.8895 12.7C40.2495 12.8933 40.5295 13.1667 40.7295 13.52C40.9362 13.8667 41.0395 14.27 41.0395 14.73C41.0395 15.35 40.8895 15.9167 40.5895 16.43C40.2895 16.9433 39.8829 17.35 39.3695 17.65C38.8562 17.9433 38.2862 18.09 37.6595 18.09ZM37.7995 17.13C38.1795 17.13 38.5262 17.0233 38.8395 16.81C39.1595 16.59 39.4095 16.3033 39.5895 15.95C39.7695 15.59 39.8595 15.2067 39.8595 14.8C39.8595 14.34 39.7295 13.9867 39.4695 13.74C39.2095 13.4867 38.8829 13.36 38.4895 13.36C38.1029 13.36 37.7562 13.47 37.4495 13.69C37.1495 13.9033 36.9129 14.1933 36.7395 14.56C36.5729 14.92 36.4895 15.3067 36.4895 15.72C36.4895 16.1667 36.6095 16.5133 36.8495 16.76C37.0962 17.0067 37.4129 17.13 37.7995 17.13ZM49.9965 12.49L47.3165 18H46.1165L45.7365 13.93L43.8965 18H42.6965L41.9465 12.49H43.1065L43.4865 16.92L45.4265 12.49H46.6165L46.9665 16.9L48.8765 12.49H49.9965ZM53.6484 12.4C54.2284 12.4 54.6884 12.5567 55.0284 12.87C55.3751 13.1767 55.5484 13.62 55.5484 14.2C55.5484 14.3467 55.5318 14.53 55.4984 14.75L54.9184 18H53.7884L54.3384 14.92C54.3651 14.7333 54.3784 14.6 54.3784 14.52C54.3784 14.1533 54.2751 13.8733 54.0684 13.68C53.8684 13.4867 53.5884 13.39 53.2284 13.39C52.7951 13.39 52.4284 13.5233 52.1284 13.79C51.8351 14.05 51.6484 14.4267 51.5684 14.92V14.89L51.0184 18H49.8784L50.8484 12.49H51.9884L51.8784 13.13C52.1051 12.9033 52.3718 12.7267 52.6784 12.6C52.9918 12.4667 53.3151 12.4 53.6484 12.4Z" fill="black" fill-opacity="0.5"/>
</svg>
