<svg width="480" height="360" viewBox="0 0 480 360" fill="none" xmlns="http://www.w3.org/2000/svg">
<path d="M174.864 31.112C174.117 31.112 173.445 30.984 172.848 30.728C172.251 30.4613 171.781 30.088 171.44 29.608C171.099 29.128 170.928 28.568 170.928 27.928H172.88C172.923 28.408 173.109 28.8027 173.44 29.112C173.781 29.4213 174.256 29.576 174.864 29.576C175.493 29.576 175.984 29.4267 176.336 29.128C176.688 28.8187 176.864 28.424 176.864 27.944C176.864 27.5707 176.752 27.2667 176.528 27.032C176.315 26.7973 176.043 26.616 175.712 26.488C175.392 26.36 174.944 26.2213 174.368 26.072C173.643 25.88 173.051 25.688 172.592 25.496C172.144 25.2933 171.76 24.984 171.44 24.568C171.12 24.152 170.96 23.5973 170.96 22.904C170.96 22.264 171.12 21.704 171.44 21.224C171.76 20.744 172.208 20.376 172.784 20.12C173.36 19.864 174.027 19.736 174.784 19.736C175.861 19.736 176.741 20.008 177.424 20.552C178.117 21.0853 178.501 21.8213 178.576 22.76H176.56C176.528 22.3547 176.336 22.008 175.984 21.72C175.632 21.432 175.168 21.288 174.592 21.288C174.069 21.288 173.643 21.4213 173.312 21.688C172.981 21.9547 172.816 22.3387 172.816 22.84C172.816 23.1813 172.917 23.464 173.12 23.688C173.333 23.9013 173.6 24.072 173.92 24.2C174.24 24.328 174.677 24.4667 175.232 24.616C175.968 24.8187 176.565 25.0213 177.024 25.224C177.493 25.4267 177.888 25.7413 178.208 26.168C178.539 26.584 178.704 27.144 178.704 27.848C178.704 28.4133 178.549 28.9467 178.24 29.448C177.941 29.9493 177.499 30.3547 176.912 30.664C176.336 30.9627 175.653 31.112 174.864 31.112ZM182.984 23.672V28.552C182.984 28.8827 183.059 29.1227 183.208 29.272C183.368 29.4107 183.635 29.48 184.008 29.48H185.128V31H183.688C182.867 31 182.238 30.808 181.8 30.424C181.363 30.04 181.144 29.416 181.144 28.552V23.672H180.104V22.184H181.144V19.992H182.984V22.184H185.128V23.672H182.984ZM190.633 31.144C189.801 31.144 189.049 30.9573 188.377 30.584C187.705 30.2 187.177 29.6667 186.793 28.984C186.409 28.2907 186.217 27.4907 186.217 26.584C186.217 25.688 186.415 24.8933 186.809 24.2C187.204 23.5067 187.743 22.9733 188.425 22.6C189.108 22.2267 189.871 22.04 190.713 22.04C191.556 22.04 192.319 22.2267 193.001 22.6C193.684 22.9733 194.223 23.5067 194.617 24.2C195.012 24.8933 195.209 25.688 195.209 26.584C195.209 27.48 195.007 28.2747 194.601 28.968C194.196 29.6613 193.641 30.2 192.937 30.584C192.244 30.9573 191.476 31.144 190.633 31.144ZM190.633 29.56C191.103 29.56 191.54 29.448 191.945 29.224C192.361 29 192.697 28.664 192.953 28.216C193.209 27.768 193.337 27.224 193.337 26.584C193.337 25.944 193.215 25.4053 192.969 24.968C192.724 24.52 192.399 24.184 191.993 23.96C191.588 23.736 191.151 23.624 190.681 23.624C190.212 23.624 189.775 23.736 189.369 23.96C188.975 24.184 188.66 24.52 188.425 24.968C188.191 25.4053 188.073 25.944 188.073 26.584C188.073 27.5333 188.313 28.2693 188.793 28.792C189.284 29.304 189.897 29.56 190.633 29.56ZM198.837 23.464C199.103 23.016 199.455 22.6693 199.893 22.424C200.341 22.168 200.869 22.04 201.477 22.04V23.928H201.013C200.298 23.928 199.754 24.1093 199.381 24.472C199.018 24.8347 198.837 25.464 198.837 26.36V31H197.013V22.184H198.837V23.464ZM202.545 26.552C202.545 25.6667 202.726 24.8827 203.089 24.2C203.462 23.5173 203.964 22.9893 204.593 22.616C205.233 22.232 205.937 22.04 206.705 22.04C207.398 22.04 208.001 22.1787 208.513 22.456C209.036 22.7227 209.452 23.0587 209.761 23.464V22.184H211.601V31H209.761V29.688C209.452 30.104 209.03 30.4507 208.497 30.728C207.964 31.0053 207.356 31.144 206.673 31.144C205.916 31.144 205.222 30.952 204.593 30.568C203.964 30.1733 203.462 29.6293 203.089 28.936C202.726 28.232 202.545 27.4373 202.545 26.552ZM209.761 26.584C209.761 25.976 209.633 25.448 209.377 25C209.132 24.552 208.806 24.2107 208.401 23.976C207.996 23.7413 207.558 23.624 207.089 23.624C206.62 23.624 206.182 23.7413 205.777 23.976C205.372 24.2 205.041 24.536 204.785 24.984C204.54 25.4213 204.417 25.944 204.417 26.552C204.417 27.16 204.54 27.6933 204.785 28.152C205.041 28.6107 205.372 28.9627 205.777 29.208C206.193 29.4427 206.63 29.56 207.089 29.56C207.558 29.56 207.996 29.4427 208.401 29.208C208.806 28.9733 209.132 28.632 209.377 28.184C209.633 27.7253 209.761 27.192 209.761 26.584ZM217.549 22.04C218.232 22.04 218.834 22.1787 219.357 22.456C219.89 22.7227 220.306 23.0587 220.605 23.464V22.184H222.445V31.144C222.445 31.9547 222.274 32.6747 221.933 33.304C221.592 33.944 221.096 34.4453 220.445 34.808C219.805 35.1707 219.037 35.352 218.141 35.352C216.946 35.352 215.954 35.0693 215.165 34.504C214.376 33.9493 213.928 33.192 213.821 32.232H215.629C215.768 32.6907 216.061 33.0587 216.509 33.336C216.968 33.624 217.512 33.768 218.141 33.768C218.877 33.768 219.469 33.544 219.917 33.096C220.376 32.648 220.605 31.9973 220.605 31.144V29.672C220.296 30.088 219.874 30.44 219.341 30.728C218.818 31.0053 218.221 31.144 217.549 31.144C216.781 31.144 216.077 30.952 215.437 30.568C214.808 30.1733 214.306 29.6293 213.933 28.936C213.57 28.232 213.389 27.4373 213.389 26.552C213.389 25.6667 213.57 24.8827 213.933 24.2C214.306 23.5173 214.808 22.9893 215.437 22.616C216.077 22.232 216.781 22.04 217.549 22.04ZM220.605 26.584C220.605 25.976 220.477 25.448 220.221 25C219.976 24.552 219.65 24.2107 219.245 23.976C218.84 23.7413 218.402 23.624 217.933 23.624C217.464 23.624 217.026 23.7413 216.621 23.976C216.216 24.2 215.885 24.536 215.629 24.984C215.384 25.4213 215.261 25.944 215.261 26.552C215.261 27.16 215.384 27.6933 215.629 28.152C215.885 28.6107 216.216 28.9627 216.621 29.208C217.037 29.4427 217.474 29.56 217.933 29.56C218.402 29.56 218.84 29.4427 219.245 29.208C219.65 28.9733 219.976 28.632 220.221 28.184C220.477 27.7253 220.605 27.192 220.605 26.584ZM232.921 26.376C232.921 26.7067 232.899 27.0053 232.857 27.272H226.121C226.174 27.976 226.435 28.5413 226.905 28.968C227.374 29.3947 227.95 29.608 228.633 29.608C229.614 29.608 230.307 29.1973 230.713 28.376H232.681C232.414 29.1867 231.929 29.8533 231.225 30.376C230.531 30.888 229.667 31.144 228.633 31.144C227.79 31.144 227.033 30.9573 226.361 30.584C225.699 30.2 225.177 29.6667 224.793 28.984C224.419 28.2907 224.233 27.4907 224.233 26.584C224.233 25.6773 224.414 24.8827 224.777 24.2C225.15 23.5067 225.667 22.9733 226.329 22.6C227.001 22.2267 227.769 22.04 228.633 22.04C229.465 22.04 230.206 22.2213 230.857 22.584C231.507 22.9467 232.014 23.4587 232.377 24.12C232.739 24.7707 232.921 25.5227 232.921 26.376ZM231.017 25.8C231.006 25.128 230.766 24.5893 230.297 24.184C229.827 23.7787 229.246 23.576 228.553 23.576C227.923 23.576 227.385 23.7787 226.937 24.184C226.489 24.5787 226.222 25.1173 226.137 25.8H231.017Z" fill="white"/>
<path d="M175.928 67.296H172.436L171.836 69H170.408L173.396 60.648H174.98L177.968 69H176.528L175.928 67.296ZM175.544 66.18L174.188 62.304L172.82 66.18H175.544ZM180.635 60.12V69H179.267V60.12H180.635ZM183.799 60.12V69H182.431V60.12H183.799Z" fill="white"/>
<rect x="160" y="85" width="310" height="20" rx="10" fill="white" fill-opacity="0.1"/>
<path d="M173.648 139.084C173.088 139.084 172.584 138.988 172.136 138.796C171.688 138.596 171.336 138.316 171.08 137.956C170.824 137.596 170.696 137.176 170.696 136.696H172.16C172.192 137.056 172.332 137.352 172.58 137.584C172.836 137.816 173.192 137.932 173.648 137.932C174.12 137.932 174.488 137.82 174.752 137.596C175.016 137.364 175.148 137.068 175.148 136.708C175.148 136.428 175.064 136.2 174.896 136.024C174.736 135.848 174.532 135.712 174.284 135.616C174.044 135.52 173.708 135.416 173.276 135.304C172.732 135.16 172.288 135.016 171.944 134.872C171.608 134.72 171.32 134.488 171.08 134.176C170.84 133.864 170.72 133.448 170.72 132.928C170.72 132.448 170.84 132.028 171.08 131.668C171.32 131.308 171.656 131.032 172.088 130.84C172.52 130.648 173.02 130.552 173.588 130.552C174.396 130.552 175.056 130.756 175.568 131.164C176.088 131.564 176.376 132.116 176.432 132.82H174.92C174.896 132.516 174.752 132.256 174.488 132.04C174.224 131.824 173.876 131.716 173.444 131.716C173.052 131.716 172.732 131.816 172.484 132.016C172.236 132.216 172.112 132.504 172.112 132.88C172.112 133.136 172.188 133.348 172.34 133.516C172.5 133.676 172.7 133.804 172.94 133.9C173.18 133.996 173.508 134.1 173.924 134.212C174.476 134.364 174.924 134.516 175.268 134.668C175.62 134.82 175.916 135.056 176.156 135.376C176.404 135.688 176.528 136.108 176.528 136.636C176.528 137.06 176.412 137.46 176.18 137.836C175.956 138.212 175.624 138.516 175.184 138.748C174.752 138.972 174.24 139.084 173.648 139.084ZM184.094 132.388L180.038 142.108H178.622L179.966 138.892L177.362 132.388H178.886L180.746 137.428L182.678 132.388H184.094ZM187.527 139.108C187.007 139.108 186.539 139.016 186.123 138.832C185.715 138.64 185.391 138.384 185.151 138.064C184.911 137.736 184.783 137.372 184.767 136.972H186.183C186.207 137.252 186.339 137.488 186.579 137.68C186.827 137.864 187.135 137.956 187.503 137.956C187.887 137.956 188.183 137.884 188.391 137.74C188.607 137.588 188.715 137.396 188.715 137.164C188.715 136.916 188.595 136.732 188.355 136.612C188.123 136.492 187.751 136.36 187.239 136.216C186.743 136.08 186.339 135.948 186.027 135.82C185.715 135.692 185.443 135.496 185.211 135.232C184.987 134.968 184.875 134.62 184.875 134.188C184.875 133.836 184.979 133.516 185.187 133.228C185.395 132.932 185.691 132.7 186.075 132.532C186.467 132.364 186.915 132.28 187.419 132.28C188.171 132.28 188.775 132.472 189.231 132.856C189.695 133.232 189.943 133.748 189.975 134.404H188.607C188.583 134.108 188.463 133.872 188.247 133.696C188.031 133.52 187.739 133.432 187.371 133.432C187.011 133.432 186.735 133.5 186.543 133.636C186.351 133.772 186.255 133.952 186.255 134.176C186.255 134.352 186.319 134.5 186.447 134.62C186.575 134.74 186.731 134.836 186.915 134.908C187.099 134.972 187.371 135.056 187.731 135.16C188.211 135.288 188.603 135.42 188.907 135.556C189.219 135.684 189.487 135.876 189.711 136.132C189.935 136.388 190.051 136.728 190.059 137.152C190.059 137.528 189.955 137.864 189.747 138.16C189.539 138.456 189.243 138.688 188.859 138.856C188.483 139.024 188.039 139.108 187.527 139.108ZM193.133 133.504V137.164C193.133 137.412 193.189 137.592 193.301 137.704C193.421 137.808 193.621 137.86 193.901 137.86H194.741V139H193.661C193.045 139 192.573 138.856 192.245 138.568C191.917 138.28 191.753 137.812 191.753 137.164V133.504H190.973V132.388H191.753V130.744H193.133V132.388H194.741V133.504H193.133ZM202.062 135.532C202.062 135.78 202.046 136.004 202.014 136.204H196.962C197.002 136.732 197.198 137.156 197.55 137.476C197.902 137.796 198.334 137.956 198.846 137.956C199.582 137.956 200.102 137.648 200.406 137.032H201.882C201.682 137.64 201.318 138.14 200.79 138.532C200.27 138.916 199.622 139.108 198.846 139.108C198.214 139.108 197.646 138.968 197.142 138.688C196.646 138.4 196.254 138 195.966 137.488C195.686 136.968 195.546 136.368 195.546 135.688C195.546 135.008 195.682 134.412 195.954 133.9C196.234 133.38 196.622 132.98 197.118 132.7C197.622 132.42 198.198 132.28 198.846 132.28C199.47 132.28 200.026 132.416 200.514 132.688C201.002 132.96 201.382 133.344 201.654 133.84C201.926 134.328 202.062 134.892 202.062 135.532ZM200.634 135.1C200.626 134.596 200.446 134.192 200.094 133.888C199.742 133.584 199.306 133.432 198.786 133.432C198.314 133.432 197.91 133.584 197.574 133.888C197.238 134.184 197.038 134.588 196.974 135.1H200.634ZM211.412 132.28C211.932 132.28 212.396 132.388 212.804 132.604C213.22 132.82 213.544 133.14 213.776 133.564C214.016 133.988 214.136 134.5 214.136 135.1V139H212.78V135.304C212.78 134.712 212.632 134.26 212.336 133.948C212.04 133.628 211.636 133.468 211.124 133.468C210.612 133.468 210.204 133.628 209.9 133.948C209.604 134.26 209.456 134.712 209.456 135.304V139H208.1V135.304C208.1 134.712 207.952 134.26 207.656 133.948C207.36 133.628 206.956 133.468 206.444 133.468C205.932 133.468 205.524 133.628 205.22 133.948C204.924 134.26 204.776 134.712 204.776 135.304V139H203.408V132.388H204.776V133.144C205 132.872 205.284 132.66 205.628 132.508C205.972 132.356 206.34 132.28 206.732 132.28C207.26 132.28 207.732 132.392 208.148 132.616C208.564 132.84 208.884 133.164 209.108 133.588C209.308 133.188 209.62 132.872 210.044 132.64C210.468 132.4 210.924 132.28 211.412 132.28Z" fill="white"/>
<rect x="160" y="155" width="310" height="20" rx="10" fill="white" fill-opacity="0.1"/>
<path d="M175.928 207.296H172.436L171.836 209H170.408L173.396 200.648H174.98L177.968 209H176.528L175.928 207.296ZM175.544 206.18L174.188 202.304L172.82 206.18H175.544ZM180.635 203.36C180.867 203.056 181.183 202.8 181.583 202.592C181.983 202.384 182.435 202.28 182.939 202.28C183.515 202.28 184.039 202.424 184.511 202.712C184.991 202.992 185.367 203.388 185.639 203.9C185.911 204.412 186.047 205 186.047 205.664C186.047 206.328 185.911 206.924 185.639 207.452C185.367 207.972 184.991 208.38 184.511 208.676C184.039 208.964 183.515 209.108 182.939 209.108C182.435 209.108 181.987 209.008 181.595 208.808C181.203 208.6 180.883 208.344 180.635 208.04V212.144H179.267V202.388H180.635V203.36ZM184.655 205.664C184.655 205.208 184.559 204.816 184.367 204.488C184.183 204.152 183.935 203.9 183.623 203.732C183.319 203.556 182.991 203.468 182.639 203.468C182.295 203.468 181.967 203.556 181.655 203.732C181.351 203.908 181.103 204.164 180.911 204.5C180.727 204.836 180.635 205.232 180.635 205.688C180.635 206.144 180.727 206.544 180.911 206.888C181.103 207.224 181.351 207.48 181.655 207.656C181.967 207.832 182.295 207.92 182.639 207.92C182.991 207.92 183.319 207.832 183.623 207.656C183.935 207.472 184.183 207.208 184.367 206.864C184.559 206.52 184.655 206.12 184.655 205.664ZM188.768 203.36C189 203.056 189.316 202.8 189.716 202.592C190.116 202.384 190.568 202.28 191.072 202.28C191.648 202.28 192.172 202.424 192.644 202.712C193.124 202.992 193.5 203.388 193.772 203.9C194.044 204.412 194.18 205 194.18 205.664C194.18 206.328 194.044 206.924 193.772 207.452C193.5 207.972 193.124 208.38 192.644 208.676C192.172 208.964 191.648 209.108 191.072 209.108C190.568 209.108 190.12 209.008 189.728 208.808C189.336 208.6 189.016 208.344 188.768 208.04V212.144H187.4V202.388H188.768V203.36ZM192.788 205.664C192.788 205.208 192.692 204.816 192.5 204.488C192.316 204.152 192.068 203.9 191.756 203.732C191.452 203.556 191.124 203.468 190.772 203.468C190.428 203.468 190.1 203.556 189.788 203.732C189.484 203.908 189.236 204.164 189.044 204.5C188.86 204.836 188.768 205.232 188.768 205.688C188.768 206.144 188.86 206.544 189.044 206.888C189.236 207.224 189.484 207.48 189.788 207.656C190.1 207.832 190.428 207.92 190.772 207.92C191.124 207.92 191.452 207.832 191.756 207.656C192.068 207.472 192.316 207.208 192.5 206.864C192.692 206.52 192.788 206.12 192.788 205.664ZM196.901 200.12V209H195.533V200.12H196.901ZM199.393 201.512C199.145 201.512 198.937 201.428 198.769 201.26C198.601 201.092 198.517 200.884 198.517 200.636C198.517 200.388 198.601 200.18 198.769 200.012C198.937 199.844 199.145 199.76 199.393 199.76C199.633 199.76 199.837 199.844 200.005 200.012C200.173 200.18 200.257 200.388 200.257 200.636C200.257 200.884 200.173 201.092 200.005 201.26C199.837 201.428 199.633 201.512 199.393 201.512ZM200.065 202.388V209H198.697V202.388H200.065ZM201.405 205.688C201.405 205.008 201.541 204.412 201.813 203.9C202.093 203.38 202.477 202.98 202.965 202.7C203.453 202.42 204.013 202.28 204.645 202.28C205.445 202.28 206.105 202.472 206.625 202.856C207.153 203.232 207.509 203.772 207.693 204.476H206.217C206.097 204.148 205.905 203.892 205.641 203.708C205.377 203.524 205.045 203.432 204.645 203.432C204.085 203.432 203.637 203.632 203.301 204.032C202.973 204.424 202.809 204.976 202.809 205.688C202.809 206.4 202.973 206.956 203.301 207.356C203.637 207.756 204.085 207.956 204.645 207.956C205.437 207.956 205.961 207.608 206.217 206.912H207.693C207.501 207.584 207.141 208.12 206.613 208.52C206.085 208.912 205.429 209.108 204.645 209.108C204.013 209.108 203.453 208.968 202.965 208.688C202.477 208.4 202.093 208 201.813 207.488C201.541 206.968 201.405 206.368 201.405 205.688ZM208.6 205.664C208.6 205 208.736 204.412 209.008 203.9C209.288 203.388 209.664 202.992 210.136 202.712C210.616 202.424 211.144 202.28 211.72 202.28C212.24 202.28 212.692 202.384 213.076 202.592C213.468 202.792 213.78 203.044 214.012 203.348V202.388H215.392V209H214.012V208.016C213.78 208.328 213.464 208.588 213.064 208.796C212.664 209.004 212.208 209.108 211.696 209.108C211.128 209.108 210.608 208.964 210.136 208.676C209.664 208.38 209.288 207.972 209.008 207.452C208.736 206.924 208.6 206.328 208.6 205.664ZM214.012 205.688C214.012 205.232 213.916 204.836 213.724 204.5C213.54 204.164 213.296 203.908 212.992 203.732C212.688 203.556 212.36 203.468 212.008 203.468C211.656 203.468 211.328 203.556 211.024 203.732C210.72 203.9 210.472 204.152 210.28 204.488C210.096 204.816 210.004 205.208 210.004 205.664C210.004 206.12 210.096 206.52 210.28 206.864C210.472 207.208 210.72 207.472 211.024 207.656C211.336 207.832 211.664 207.92 212.008 207.92C212.36 207.92 212.688 207.832 212.992 207.656C213.296 207.48 213.54 207.224 213.724 206.888C213.916 206.544 214.012 206.144 214.012 205.688ZM218.785 203.504V207.164C218.785 207.412 218.841 207.592 218.953 207.704C219.073 207.808 219.273 207.86 219.553 207.86H220.393V209H219.313C218.697 209 218.225 208.856 217.897 208.568C217.569 208.28 217.405 207.812 217.405 207.164V203.504H216.625V202.388H217.405V200.744H218.785V202.388H220.393V203.504H218.785ZM222.35 201.512C222.102 201.512 221.894 201.428 221.726 201.26C221.558 201.092 221.474 200.884 221.474 200.636C221.474 200.388 221.558 200.18 221.726 200.012C221.894 199.844 222.102 199.76 222.35 199.76C222.59 199.76 222.794 199.844 222.962 200.012C223.13 200.18 223.214 200.388 223.214 200.636C223.214 200.884 223.13 201.092 222.962 201.26C222.794 201.428 222.59 201.512 222.35 201.512ZM223.022 202.388V209H221.654V202.388H223.022ZM227.686 209.108C227.062 209.108 226.498 208.968 225.994 208.688C225.49 208.4 225.094 208 224.806 207.488C224.518 206.968 224.374 206.368 224.374 205.688C224.374 205.016 224.522 204.42 224.818 203.9C225.114 203.38 225.518 202.98 226.03 202.7C226.542 202.42 227.114 202.28 227.746 202.28C228.378 202.28 228.95 202.42 229.462 202.7C229.974 202.98 230.378 203.38 230.674 203.9C230.97 204.42 231.118 205.016 231.118 205.688C231.118 206.36 230.966 206.956 230.662 207.476C230.358 207.996 229.942 208.4 229.414 208.688C228.894 208.968 228.318 209.108 227.686 209.108ZM227.686 207.92C228.038 207.92 228.366 207.836 228.67 207.668C228.982 207.5 229.234 207.248 229.426 206.912C229.618 206.576 229.714 206.168 229.714 205.688C229.714 205.208 229.622 204.804 229.438 204.476C229.254 204.14 229.01 203.888 228.706 203.72C228.402 203.552 228.074 203.468 227.722 203.468C227.37 203.468 227.042 203.552 226.738 203.72C226.442 203.888 226.206 204.14 226.03 204.476C225.854 204.804 225.766 205.208 225.766 205.688C225.766 206.4 225.946 206.952 226.306 207.344C226.674 207.728 227.134 207.92 227.686 207.92ZM235.806 202.28C236.326 202.28 236.79 202.388 237.198 202.604C237.614 202.82 237.938 203.14 238.17 203.564C238.402 203.988 238.518 204.5 238.518 205.1V209H237.162V205.304C237.162 204.712 237.014 204.26 236.718 203.948C236.422 203.628 236.018 203.468 235.506 203.468C234.994 203.468 234.586 203.628 234.282 203.948C233.986 204.26 233.838 204.712 233.838 205.304V209H232.47V202.388H233.838V203.144C234.062 202.872 234.346 202.66 234.69 202.508C235.042 202.356 235.414 202.28 235.806 202.28ZM242.663 209.108C242.143 209.108 241.675 209.016 241.259 208.832C240.851 208.64 240.527 208.384 240.287 208.064C240.047 207.736 239.919 207.372 239.903 206.972H241.319C241.343 207.252 241.475 207.488 241.715 207.68C241.963 207.864 242.271 207.956 242.639 207.956C243.023 207.956 243.319 207.884 243.527 207.74C243.743 207.588 243.851 207.396 243.851 207.164C243.851 206.916 243.731 206.732 243.491 206.612C243.259 206.492 242.887 206.36 242.375 206.216C241.879 206.08 241.475 205.948 241.163 205.82C240.851 205.692 240.579 205.496 240.347 205.232C240.123 204.968 240.011 204.62 240.011 204.188C240.011 203.836 240.115 203.516 240.323 203.228C240.531 202.932 240.827 202.7 241.211 202.532C241.603 202.364 242.051 202.28 242.555 202.28C243.307 202.28 243.911 202.472 244.367 202.856C244.831 203.232 245.079 203.748 245.111 204.404H243.743C243.719 204.108 243.599 203.872 243.383 203.696C243.167 203.52 242.875 203.432 242.507 203.432C242.147 203.432 241.871 203.5 241.679 203.636C241.487 203.772 241.391 203.952 241.391 204.176C241.391 204.352 241.455 204.5 241.583 204.62C241.711 204.74 241.867 204.836 242.051 204.908C242.235 204.972 242.507 205.056 242.867 205.16C243.347 205.288 243.739 205.42 244.043 205.556C244.355 205.684 244.623 205.876 244.847 206.132C245.071 206.388 245.187 206.728 245.195 207.152C245.195 207.528 245.091 207.864 244.883 208.16C244.675 208.456 244.379 208.688 243.995 208.856C243.619 209.024 243.175 209.108 242.663 209.108Z" fill="white"/>
<rect x="160" y="225" width="310" height="20" rx="10" fill="white" fill-opacity="0.1"/>
<path d="M176.732 273.144C176.732 273.568 176.632 273.968 176.432 274.344C176.232 274.72 175.912 275.028 175.472 275.268C175.032 275.5 174.468 275.616 173.78 275.616H172.268V279H170.9V270.66H173.78C174.42 270.66 174.96 270.772 175.4 270.996C175.848 271.212 176.18 271.508 176.396 271.884C176.62 272.26 176.732 272.68 176.732 273.144ZM173.78 274.5C174.3 274.5 174.688 274.384 174.944 274.152C175.2 273.912 175.328 273.576 175.328 273.144C175.328 272.232 174.812 271.776 173.78 271.776H172.268V274.5H173.78ZM184.097 275.532C184.097 275.78 184.081 276.004 184.049 276.204H178.997C179.037 276.732 179.233 277.156 179.585 277.476C179.937 277.796 180.369 277.956 180.881 277.956C181.617 277.956 182.137 277.648 182.441 277.032H183.917C183.717 277.64 183.353 278.14 182.825 278.532C182.305 278.916 181.657 279.108 180.881 279.108C180.249 279.108 179.681 278.968 179.177 278.688C178.681 278.4 178.289 278 178.001 277.488C177.721 276.968 177.581 276.368 177.581 275.688C177.581 275.008 177.717 274.412 177.989 273.9C178.269 273.38 178.657 272.98 179.153 272.7C179.657 272.42 180.233 272.28 180.881 272.28C181.505 272.28 182.061 272.416 182.549 272.688C183.037 272.96 183.417 273.344 183.689 273.84C183.961 274.328 184.097 274.892 184.097 275.532ZM182.669 275.1C182.661 274.596 182.481 274.192 182.129 273.888C181.777 273.584 181.341 273.432 180.821 273.432C180.349 273.432 179.945 273.584 179.609 273.888C179.273 274.184 179.073 274.588 179.009 275.1H182.669ZM186.811 273.348C187.011 273.012 187.275 272.752 187.603 272.568C187.939 272.376 188.335 272.28 188.791 272.28V273.696H188.443C187.907 273.696 187.499 273.832 187.219 274.104C186.947 274.376 186.811 274.848 186.811 275.52V279H185.443V272.388H186.811V273.348ZM192.448 279.108C191.928 279.108 191.46 279.016 191.044 278.832C190.636 278.64 190.312 278.384 190.072 278.064C189.832 277.736 189.704 277.372 189.688 276.972H191.104C191.128 277.252 191.26 277.488 191.5 277.68C191.748 277.864 192.056 277.956 192.424 277.956C192.808 277.956 193.104 277.884 193.312 277.74C193.528 277.588 193.636 277.396 193.636 277.164C193.636 276.916 193.516 276.732 193.276 276.612C193.044 276.492 192.672 276.36 192.16 276.216C191.664 276.08 191.26 275.948 190.948 275.82C190.636 275.692 190.364 275.496 190.132 275.232C189.908 274.968 189.796 274.62 189.796 274.188C189.796 273.836 189.9 273.516 190.108 273.228C190.316 272.932 190.612 272.7 190.996 272.532C191.388 272.364 191.836 272.28 192.34 272.28C193.092 272.28 193.696 272.472 194.152 272.856C194.616 273.232 194.864 273.748 194.896 274.404H193.528C193.504 274.108 193.384 273.872 193.168 273.696C192.952 273.52 192.66 273.432 192.292 273.432C191.932 273.432 191.656 273.5 191.464 273.636C191.272 273.772 191.176 273.952 191.176 274.176C191.176 274.352 191.24 274.5 191.368 274.62C191.496 274.74 191.652 274.836 191.836 274.908C192.02 274.972 192.292 275.056 192.652 275.16C193.132 275.288 193.524 275.42 193.828 275.556C194.14 275.684 194.408 275.876 194.632 276.132C194.856 276.388 194.972 276.728 194.98 277.152C194.98 277.528 194.876 277.864 194.668 278.16C194.46 278.456 194.164 278.688 193.78 278.856C193.404 279.024 192.96 279.108 192.448 279.108ZM199.327 279.108C198.703 279.108 198.139 278.968 197.635 278.688C197.131 278.4 196.735 278 196.447 277.488C196.159 276.968 196.015 276.368 196.015 275.688C196.015 275.016 196.163 274.42 196.459 273.9C196.755 273.38 197.159 272.98 197.671 272.7C198.183 272.42 198.755 272.28 199.387 272.28C200.019 272.28 200.591 272.42 201.103 272.7C201.615 272.98 202.019 273.38 202.315 273.9C202.611 274.42 202.759 275.016 202.759 275.688C202.759 276.36 202.607 276.956 202.303 277.476C201.999 277.996 201.583 278.4 201.055 278.688C200.535 278.968 199.959 279.108 199.327 279.108ZM199.327 277.92C199.679 277.92 200.007 277.836 200.311 277.668C200.623 277.5 200.875 277.248 201.067 276.912C201.259 276.576 201.355 276.168 201.355 275.688C201.355 275.208 201.263 274.804 201.079 274.476C200.895 274.14 200.651 273.888 200.347 273.72C200.043 273.552 199.715 273.468 199.363 273.468C199.011 273.468 198.683 273.552 198.379 273.72C198.083 273.888 197.847 274.14 197.671 274.476C197.495 274.804 197.407 275.208 197.407 275.688C197.407 276.4 197.587 276.952 197.947 277.344C198.315 277.728 198.775 277.92 199.327 277.92ZM207.447 272.28C207.967 272.28 208.431 272.388 208.839 272.604C209.255 272.82 209.579 273.14 209.811 273.564C210.043 273.988 210.159 274.5 210.159 275.1V279H208.803V275.304C208.803 274.712 208.655 274.26 208.359 273.948C208.063 273.628 207.659 273.468 207.147 273.468C206.635 273.468 206.227 273.628 205.923 273.948C205.627 274.26 205.479 274.712 205.479 275.304V279H204.111V272.388H205.479V273.144C205.703 272.872 205.987 272.66 206.331 272.508C206.683 272.356 207.055 272.28 207.447 272.28ZM211.448 275.664C211.448 275 211.584 274.412 211.856 273.9C212.136 273.388 212.512 272.992 212.984 272.712C213.464 272.424 213.992 272.28 214.568 272.28C215.088 272.28 215.54 272.384 215.924 272.592C216.316 272.792 216.628 273.044 216.86 273.348V272.388H218.24V279H216.86V278.016C216.628 278.328 216.312 278.588 215.912 278.796C215.512 279.004 215.056 279.108 214.544 279.108C213.976 279.108 213.456 278.964 212.984 278.676C212.512 278.38 212.136 277.972 211.856 277.452C211.584 276.924 211.448 276.328 211.448 275.664ZM216.86 275.688C216.86 275.232 216.764 274.836 216.572 274.5C216.388 274.164 216.144 273.908 215.84 273.732C215.536 273.556 215.208 273.468 214.856 273.468C214.504 273.468 214.176 273.556 213.872 273.732C213.568 273.9 213.32 274.152 213.128 274.488C212.944 274.816 212.852 275.208 212.852 275.664C212.852 276.12 212.944 276.52 213.128 276.864C213.32 277.208 213.568 277.472 213.872 277.656C214.184 277.832 214.512 277.92 214.856 277.92C215.208 277.92 215.536 277.832 215.84 277.656C216.144 277.48 216.388 277.224 216.572 276.888C216.764 276.544 216.86 276.144 216.86 275.688ZM221.405 270.12V279H220.037V270.12H221.405ZM229.09 273.504H227.866V279H226.486V273.504H225.706V272.388H226.486V271.92C226.486 271.16 226.686 270.608 227.086 270.264C227.494 269.912 228.13 269.736 228.994 269.736V270.876C228.578 270.876 228.286 270.956 228.118 271.116C227.95 271.268 227.866 271.536 227.866 271.92V272.388H229.09V273.504ZM230.998 271.512C230.75 271.512 230.542 271.428 230.374 271.26C230.206 271.092 230.122 270.884 230.122 270.636C230.122 270.388 230.206 270.18 230.374 270.012C230.542 269.844 230.75 269.76 230.998 269.76C231.238 269.76 231.442 269.844 231.61 270.012C231.778 270.18 231.862 270.388 231.862 270.636C231.862 270.884 231.778 271.092 231.61 271.26C231.442 271.428 231.238 271.512 230.998 271.512ZM231.67 272.388V279H230.302V272.388H231.67ZM234.834 270.12V279H233.466V270.12H234.834ZM242.69 275.532C242.69 275.78 242.674 276.004 242.642 276.204H237.59C237.63 276.732 237.826 277.156 238.178 277.476C238.53 277.796 238.962 277.956 239.474 277.956C240.21 277.956 240.73 277.648 241.034 277.032H242.51C242.31 277.64 241.946 278.14 241.418 278.532C240.898 278.916 240.25 279.108 239.474 279.108C238.842 279.108 238.274 278.968 237.77 278.688C237.274 278.4 236.882 278 236.594 277.488C236.314 276.968 236.174 276.368 236.174 275.688C236.174 275.008 236.31 274.412 236.582 273.9C236.862 273.38 237.25 272.98 237.746 272.7C238.25 272.42 238.826 272.28 239.474 272.28C240.098 272.28 240.654 272.416 241.142 272.688C241.63 272.96 242.01 273.344 242.282 273.84C242.554 274.328 242.69 274.892 242.69 275.532ZM241.262 275.1C241.254 274.596 241.074 274.192 240.722 273.888C240.37 273.584 239.934 273.432 239.414 273.432C238.942 273.432 238.538 273.584 238.202 273.888C237.866 274.184 237.666 274.588 237.602 275.1H241.262ZM246.437 279.108C245.917 279.108 245.449 279.016 245.033 278.832C244.625 278.64 244.301 278.384 244.061 278.064C243.821 277.736 243.693 277.372 243.677 276.972H245.093C245.117 277.252 245.249 277.488 245.489 277.68C245.737 277.864 246.045 277.956 246.413 277.956C246.797 277.956 247.093 277.884 247.301 277.74C247.517 277.588 247.625 277.396 247.625 277.164C247.625 276.916 247.505 276.732 247.265 276.612C247.033 276.492 246.661 276.36 246.149 276.216C245.653 276.08 245.249 275.948 244.937 275.82C244.625 275.692 244.353 275.496 244.121 275.232C243.897 274.968 243.785 274.62 243.785 274.188C243.785 273.836 243.889 273.516 244.097 273.228C244.305 272.932 244.601 272.7 244.985 272.532C245.377 272.364 245.825 272.28 246.329 272.28C247.081 272.28 247.685 272.472 248.141 272.856C248.605 273.232 248.853 273.748 248.885 274.404H247.517C247.493 274.108 247.373 273.872 247.157 273.696C246.941 273.52 246.649 273.432 246.281 273.432C245.921 273.432 245.645 273.5 245.453 273.636C245.261 273.772 245.165 273.952 245.165 274.176C245.165 274.352 245.229 274.5 245.357 274.62C245.485 274.74 245.641 274.836 245.825 274.908C246.009 274.972 246.281 275.056 246.641 275.16C247.121 275.288 247.513 275.42 247.817 275.556C248.129 275.684 248.397 275.876 248.621 276.132C248.845 276.388 248.961 276.728 248.969 277.152C248.969 277.528 248.865 277.864 248.657 278.16C248.449 278.456 248.153 278.688 247.769 278.856C247.393 279.024 246.949 279.108 246.437 279.108Z" fill="white"/>
<rect x="160" y="295" width="310" height="20" rx="10" fill="white" fill-opacity="0.1"/>
</svg>
