<svg width="480" height="360" viewBox="0 0 480 360" fill="none" xmlns="http://www.w3.org/2000/svg">
<path d="M0 0H480V80C480 91.0457 471.046 100 460 100H20C8.95431 100 0 91.0457 0 80V0Z" fill="#E6E6E6" fill-opacity="0.75"/>
<path d="M240.744 19.88V21.368H236.024V24.648H239.704V26.136H236.024V31H234.2V19.88H240.744ZM243.362 21.016C243.032 21.016 242.754 20.904 242.53 20.68C242.306 20.456 242.194 20.1787 242.194 19.848C242.194 19.5173 242.306 19.24 242.53 19.016C242.754 18.792 243.032 18.68 243.362 18.68C243.682 18.68 243.954 18.792 244.178 19.016C244.402 19.24 244.514 19.5173 244.514 19.848C244.514 20.1787 244.402 20.456 244.178 20.68C243.954 20.904 243.682 21.016 243.362 21.016ZM244.258 22.184V31H242.434V22.184H244.258ZM248.477 19.16V31H246.653V19.16H248.477ZM258.952 26.376C258.952 26.7067 258.931 27.0053 258.888 27.272H252.152C252.205 27.976 252.467 28.5413 252.936 28.968C253.405 29.3947 253.981 29.608 254.664 29.608C255.645 29.608 256.339 29.1973 256.744 28.376H258.712C258.445 29.1867 257.96 29.8533 257.256 30.376C256.563 30.888 255.699 31.144 254.664 31.144C253.821 31.144 253.064 30.9573 252.392 30.584C251.731 30.2 251.208 29.6667 250.824 28.984C250.451 28.2907 250.264 27.4907 250.264 26.584C250.264 25.6773 250.445 24.8827 250.808 24.2C251.181 23.5067 251.699 22.9733 252.36 22.6C253.032 22.2267 253.8 22.04 254.664 22.04C255.496 22.04 256.237 22.2213 256.888 22.584C257.539 22.9467 258.045 23.4587 258.408 24.12C258.771 24.7707 258.952 25.5227 258.952 26.376ZM257.048 25.8C257.037 25.128 256.797 24.5893 256.328 24.184C255.859 23.7787 255.277 23.576 254.584 23.576C253.955 23.576 253.416 23.7787 252.968 24.184C252.52 24.5787 252.253 25.1173 252.168 25.8H257.048ZM263.947 31.144C263.254 31.144 262.63 31.0213 262.075 30.776C261.531 30.52 261.099 30.1787 260.779 29.752C260.459 29.3147 260.288 28.8293 260.267 28.296H262.155C262.187 28.6693 262.363 28.984 262.683 29.24C263.014 29.4853 263.424 29.608 263.915 29.608C264.427 29.608 264.822 29.512 265.099 29.32C265.387 29.1173 265.531 28.8613 265.531 28.552C265.531 28.2213 265.371 27.976 265.051 27.816C264.742 27.656 264.246 27.48 263.563 27.288C262.902 27.1067 262.363 26.9307 261.947 26.76C261.531 26.5893 261.168 26.328 260.859 25.976C260.56 25.624 260.411 25.16 260.411 24.584C260.411 24.1147 260.55 23.688 260.827 23.304C261.104 22.9093 261.499 22.6 262.011 22.376C262.534 22.152 263.131 22.04 263.803 22.04C264.806 22.04 265.611 22.296 266.219 22.808C266.838 23.3093 267.168 23.9973 267.211 24.872H265.387C265.355 24.4773 265.195 24.1627 264.907 23.928C264.619 23.6933 264.23 23.576 263.739 23.576C263.259 23.576 262.891 23.6667 262.635 23.848C262.379 24.0293 262.251 24.2693 262.251 24.568C262.251 24.8027 262.336 25 262.507 25.16C262.678 25.32 262.886 25.448 263.131 25.544C263.376 25.6293 263.739 25.7413 264.219 25.88C264.859 26.0507 265.382 26.2267 265.787 26.408C266.203 26.5787 266.56 26.8347 266.859 27.176C267.158 27.5173 267.312 27.9707 267.323 28.536C267.323 29.0373 267.184 29.4853 266.907 29.88C266.63 30.2747 266.235 30.584 265.723 30.808C265.222 31.032 264.63 31.144 263.947 31.144Z" fill="black"/>
<path d="M195 21C195 18.7909 196.791 17 199 17H201C203.209 17 205 18.7909 205 21V21L203 20H207C209.209 20 211 21.7909 211 24V29C211 31.2091 209.209 33 207 33H199C196.791 33 195 31.2091 195 29V21Z" fill="black"/>
<rect x="199" y="27" width="8" height="2" rx="1" fill="#E6E6E6"/>
<path d="M78.6798 65.66V70.976C78.6798 71.608 78.8438 72.084 79.1718 72.404C79.5078 72.724 79.9718 72.884 80.5638 72.884C81.1638 72.884 81.6278 72.724 81.9558 72.404C82.2918 72.084 82.4598 71.608 82.4598 70.976V65.66H83.8278V70.952C83.8278 71.632 83.6798 72.208 83.3838 72.68C83.0878 73.152 82.6918 73.504 82.1958 73.736C81.6998 73.968 81.1518 74.084 80.5518 74.084C79.9518 74.084 79.4038 73.968 78.9078 73.736C78.4198 73.504 78.0318 73.152 77.7438 72.68C77.4558 72.208 77.3118 71.632 77.3118 70.952V65.66H78.6798ZM88.945 67.28C89.465 67.28 89.929 67.388 90.337 67.604C90.753 67.82 91.077 68.14 91.309 68.564C91.541 68.988 91.657 69.5 91.657 70.1V74H90.301V70.304C90.301 69.712 90.153 69.26 89.857 68.948C89.561 68.628 89.157 68.468 88.645 68.468C88.133 68.468 87.725 68.628 87.421 68.948C87.125 69.26 86.977 69.712 86.977 70.304V74H85.609V67.388H86.977V68.144C87.201 67.872 87.485 67.66 87.829 67.508C88.181 67.356 88.553 67.28 88.945 67.28ZM92.946 70.664C92.946 70 93.082 69.412 93.354 68.9C93.634 68.388 94.01 67.992 94.482 67.712C94.962 67.424 95.49 67.28 96.066 67.28C96.586 67.28 97.038 67.384 97.422 67.592C97.814 67.792 98.126 68.044 98.358 68.348V67.388H99.738V74H98.358V73.016C98.126 73.328 97.81 73.588 97.41 73.796C97.01 74.004 96.554 74.108 96.042 74.108C95.474 74.108 94.954 73.964 94.482 73.676C94.01 73.38 93.634 72.972 93.354 72.452C93.082 71.924 92.946 71.328 92.946 70.664ZM98.358 70.688C98.358 70.232 98.262 69.836 98.07 69.5C97.886 69.164 97.642 68.908 97.338 68.732C97.034 68.556 96.706 68.468 96.354 68.468C96.002 68.468 95.674 68.556 95.37 68.732C95.066 68.9 94.818 69.152 94.626 69.488C94.442 69.816 94.35 70.208 94.35 70.664C94.35 71.12 94.442 71.52 94.626 71.864C94.818 72.208 95.066 72.472 95.37 72.656C95.682 72.832 96.01 72.92 96.354 72.92C96.706 72.92 97.034 72.832 97.338 72.656C97.642 72.48 97.886 72.224 98.07 71.888C98.262 71.544 98.358 71.144 98.358 70.688ZM102.903 68.372C103.135 68.052 103.451 67.792 103.851 67.592C104.259 67.384 104.711 67.28 105.207 67.28C105.791 67.28 106.319 67.42 106.791 67.7C107.263 67.98 107.635 68.38 107.907 68.9C108.179 69.412 108.315 70 108.315 70.664C108.315 71.328 108.179 71.924 107.907 72.452C107.635 72.972 107.259 73.38 106.779 73.676C106.307 73.964 105.783 74.108 105.207 74.108C104.695 74.108 104.239 74.008 103.839 73.808C103.447 73.608 103.135 73.352 102.903 73.04V74H101.535V65.12H102.903V68.372ZM106.923 70.664C106.923 70.208 106.827 69.816 106.635 69.488C106.451 69.152 106.203 68.9 105.891 68.732C105.587 68.556 105.259 68.468 104.907 68.468C104.563 68.468 104.235 68.556 103.923 68.732C103.619 68.908 103.371 69.164 103.179 69.5C102.995 69.836 102.903 70.232 102.903 70.688C102.903 71.144 102.995 71.544 103.179 71.888C103.371 72.224 103.619 72.48 103.923 72.656C104.235 72.832 104.563 72.92 104.907 72.92C105.259 72.92 105.587 72.832 105.891 72.656C106.203 72.472 106.451 72.208 106.635 71.864C106.827 71.52 106.923 71.12 106.923 70.664ZM111.036 65.12V74H109.668V65.12H111.036ZM118.892 70.532C118.892 70.78 118.876 71.004 118.844 71.204H113.792C113.832 71.732 114.028 72.156 114.38 72.476C114.732 72.796 115.164 72.956 115.676 72.956C116.412 72.956 116.932 72.648 117.236 72.032H118.712C118.512 72.64 118.148 73.14 117.62 73.532C117.1 73.916 116.452 74.108 115.676 74.108C115.044 74.108 114.476 73.968 113.972 73.688C113.476 73.4 113.084 73 112.796 72.488C112.516 71.968 112.376 71.368 112.376 70.688C112.376 70.008 112.512 69.412 112.784 68.9C113.064 68.38 113.452 67.98 113.948 67.7C114.452 67.42 115.028 67.28 115.676 67.28C116.3 67.28 116.856 67.416 117.344 67.688C117.832 67.96 118.212 68.344 118.484 68.84C118.756 69.328 118.892 69.892 118.892 70.532ZM117.464 70.1C117.456 69.596 117.276 69.192 116.924 68.888C116.572 68.584 116.136 68.432 115.616 68.432C115.144 68.432 114.74 68.584 114.404 68.888C114.068 69.184 113.868 69.588 113.804 70.1H117.464ZM124.951 68.504V72.164C124.951 72.412 125.007 72.592 125.119 72.704C125.239 72.808 125.439 72.86 125.719 72.86H126.559V74H125.479C124.863 74 124.391 73.856 124.063 73.568C123.735 73.28 123.571 72.812 123.571 72.164V68.504H122.791V67.388H123.571V65.744H124.951V67.388H126.559V68.504H124.951ZM130.688 74.108C130.064 74.108 129.5 73.968 128.996 73.688C128.492 73.4 128.096 73 127.808 72.488C127.52 71.968 127.376 71.368 127.376 70.688C127.376 70.016 127.524 69.42 127.82 68.9C128.116 68.38 128.52 67.98 129.032 67.7C129.544 67.42 130.116 67.28 130.748 67.28C131.38 67.28 131.952 67.42 132.464 67.7C132.976 67.98 133.38 68.38 133.676 68.9C133.972 69.42 134.12 70.016 134.12 70.688C134.12 71.36 133.968 71.956 133.664 72.476C133.36 72.996 132.944 73.4 132.416 73.688C131.896 73.968 131.32 74.108 130.688 74.108ZM130.688 72.92C131.04 72.92 131.368 72.836 131.672 72.668C131.984 72.5 132.236 72.248 132.428 71.912C132.62 71.576 132.716 71.168 132.716 70.688C132.716 70.208 132.624 69.804 132.44 69.476C132.256 69.14 132.012 68.888 131.708 68.72C131.404 68.552 131.076 68.468 130.724 68.468C130.372 68.468 130.044 68.552 129.74 68.72C129.444 68.888 129.208 69.14 129.032 69.476C128.856 69.804 128.768 70.208 128.768 70.688C128.768 71.4 128.948 71.952 129.308 72.344C129.676 72.728 130.136 72.92 130.688 72.92ZM141.457 74.108C140.833 74.108 140.269 73.968 139.765 73.688C139.261 73.4 138.865 73 138.577 72.488C138.289 71.968 138.145 71.368 138.145 70.688C138.145 70.016 138.293 69.42 138.589 68.9C138.885 68.38 139.289 67.98 139.801 67.7C140.313 67.42 140.885 67.28 141.517 67.28C142.149 67.28 142.721 67.42 143.233 67.7C143.745 67.98 144.149 68.38 144.445 68.9C144.741 69.42 144.889 70.016 144.889 70.688C144.889 71.36 144.737 71.956 144.433 72.476C144.129 72.996 143.713 73.4 143.185 73.688C142.665 73.968 142.089 74.108 141.457 74.108ZM141.457 72.92C141.809 72.92 142.137 72.836 142.441 72.668C142.753 72.5 143.005 72.248 143.197 71.912C143.389 71.576 143.485 71.168 143.485 70.688C143.485 70.208 143.393 69.804 143.209 69.476C143.025 69.14 142.781 68.888 142.477 68.72C142.173 68.552 141.845 68.468 141.493 68.468C141.141 68.468 140.813 68.552 140.509 68.72C140.213 68.888 139.977 69.14 139.801 69.476C139.625 69.804 139.537 70.208 139.537 70.688C139.537 71.4 139.717 71.952 140.077 72.344C140.445 72.728 140.905 72.92 141.457 72.92ZM147.61 68.36C147.842 68.056 148.158 67.8 148.558 67.592C148.958 67.384 149.41 67.28 149.914 67.28C150.49 67.28 151.014 67.424 151.486 67.712C151.966 67.992 152.342 68.388 152.614 68.9C152.886 69.412 153.022 70 153.022 70.664C153.022 71.328 152.886 71.924 152.614 72.452C152.342 72.972 151.966 73.38 151.486 73.676C151.014 73.964 150.49 74.108 149.914 74.108C149.41 74.108 148.962 74.008 148.57 73.808C148.178 73.6 147.858 73.344 147.61 73.04V77.144H146.242V67.388H147.61V68.36ZM151.63 70.664C151.63 70.208 151.534 69.816 151.342 69.488C151.158 69.152 150.91 68.9 150.598 68.732C150.294 68.556 149.966 68.468 149.614 68.468C149.27 68.468 148.942 68.556 148.63 68.732C148.326 68.908 148.078 69.164 147.886 69.5C147.702 69.836 147.61 70.232 147.61 70.688C147.61 71.144 147.702 71.544 147.886 71.888C148.078 72.224 148.326 72.48 148.63 72.656C148.942 72.832 149.27 72.92 149.614 72.92C149.966 72.92 150.294 72.832 150.598 72.656C150.91 72.472 151.158 72.208 151.342 71.864C151.534 71.52 151.63 71.12 151.63 70.664ZM160.435 70.532C160.435 70.78 160.419 71.004 160.387 71.204H155.335C155.375 71.732 155.571 72.156 155.923 72.476C156.275 72.796 156.707 72.956 157.219 72.956C157.955 72.956 158.475 72.648 158.779 72.032H160.255C160.055 72.64 159.691 73.14 159.163 73.532C158.643 73.916 157.995 74.108 157.219 74.108C156.587 74.108 156.019 73.968 155.515 73.688C155.019 73.4 154.627 73 154.339 72.488C154.059 71.968 153.919 71.368 153.919 70.688C153.919 70.008 154.055 69.412 154.327 68.9C154.607 68.38 154.995 67.98 155.491 67.7C155.995 67.42 156.571 67.28 157.219 67.28C157.843 67.28 158.399 67.416 158.887 67.688C159.375 67.96 159.755 68.344 160.027 68.84C160.299 69.328 160.435 69.892 160.435 70.532ZM159.007 70.1C158.999 69.596 158.819 69.192 158.467 68.888C158.115 68.584 157.679 68.432 157.159 68.432C156.687 68.432 156.283 68.584 155.947 68.888C155.611 69.184 155.411 69.588 155.347 70.1H159.007ZM165.117 67.28C165.637 67.28 166.101 67.388 166.509 67.604C166.925 67.82 167.249 68.14 167.481 68.564C167.713 68.988 167.829 69.5 167.829 70.1V74H166.473V70.304C166.473 69.712 166.325 69.26 166.029 68.948C165.733 68.628 165.329 68.468 164.817 68.468C164.305 68.468 163.897 68.628 163.593 68.948C163.297 69.26 163.149 69.712 163.149 70.304V74H161.781V67.388H163.149V68.144C163.373 67.872 163.657 67.66 164.001 67.508C164.353 67.356 164.725 67.28 165.117 67.28ZM174.287 68.504V72.164C174.287 72.412 174.343 72.592 174.455 72.704C174.575 72.808 174.775 72.86 175.055 72.86H175.895V74H174.815C174.199 74 173.727 73.856 173.399 73.568C173.071 73.28 172.907 72.812 172.907 72.164V68.504H172.127V67.388H172.907V65.744H174.287V67.388H175.895V68.504H174.287ZM180.576 67.28C181.08 67.28 181.528 67.388 181.92 67.604C182.32 67.82 182.632 68.14 182.856 68.564C183.088 68.988 183.204 69.5 183.204 70.1V74H181.848V70.304C181.848 69.712 181.7 69.26 181.404 68.948C181.108 68.628 180.704 68.468 180.192 68.468C179.68 68.468 179.272 68.628 178.968 68.948C178.672 69.26 178.524 69.712 178.524 70.304V74H177.156V65.12H178.524V68.156C178.756 67.876 179.048 67.66 179.4 67.508C179.76 67.356 180.152 67.28 180.576 67.28ZM191.009 70.532C191.009 70.78 190.993 71.004 190.961 71.204H185.909C185.949 71.732 186.145 72.156 186.497 72.476C186.849 72.796 187.281 72.956 187.793 72.956C188.529 72.956 189.049 72.648 189.353 72.032H190.829C190.629 72.64 190.265 73.14 189.737 73.532C189.217 73.916 188.569 74.108 187.793 74.108C187.161 74.108 186.593 73.968 186.089 73.688C185.593 73.4 185.201 73 184.913 72.488C184.633 71.968 184.493 71.368 184.493 70.688C184.493 70.008 184.629 69.412 184.901 68.9C185.181 68.38 185.569 67.98 186.065 67.7C186.569 67.42 187.145 67.28 187.793 67.28C188.417 67.28 188.973 67.416 189.461 67.688C189.949 67.96 190.329 68.344 190.601 68.84C190.873 69.328 191.009 69.892 191.009 70.532ZM189.581 70.1C189.573 69.596 189.393 69.192 189.041 68.888C188.689 68.584 188.253 68.432 187.733 68.432C187.261 68.432 186.857 68.584 186.521 68.888C186.185 69.184 185.985 69.588 185.921 70.1H189.581ZM198.244 68.504H197.02V74H195.64V68.504H194.86V67.388H195.64V66.92C195.64 66.16 195.84 65.608 196.24 65.264C196.648 64.912 197.284 64.736 198.148 64.736V65.876C197.732 65.876 197.44 65.956 197.272 66.116C197.104 66.268 197.02 66.536 197.02 66.92V67.388H198.244V68.504ZM200.153 66.512C199.905 66.512 199.697 66.428 199.529 66.26C199.361 66.092 199.277 65.884 199.277 65.636C199.277 65.388 199.361 65.18 199.529 65.012C199.697 64.844 199.905 64.76 200.153 64.76C200.393 64.76 200.597 64.844 200.765 65.012C200.933 65.18 201.017 65.388 201.017 65.636C201.017 65.884 200.933 66.092 200.765 66.26C200.597 66.428 200.393 66.512 200.153 66.512ZM200.825 67.388V74H199.457V67.388H200.825ZM203.989 65.12V74H202.621V65.12H203.989ZM211.845 70.532C211.845 70.78 211.829 71.004 211.797 71.204H206.745C206.785 71.732 206.981 72.156 207.333 72.476C207.685 72.796 208.117 72.956 208.629 72.956C209.365 72.956 209.885 72.648 210.189 72.032H211.665C211.465 72.64 211.101 73.14 210.573 73.532C210.053 73.916 209.405 74.108 208.629 74.108C207.997 74.108 207.429 73.968 206.925 73.688C206.429 73.4 206.037 73 205.749 72.488C205.469 71.968 205.329 71.368 205.329 70.688C205.329 70.008 205.465 69.412 205.737 68.9C206.017 68.38 206.405 67.98 206.901 67.7C207.405 67.42 207.981 67.28 208.629 67.28C209.253 67.28 209.809 67.416 210.297 67.688C210.785 67.96 211.165 68.344 211.437 68.84C211.709 69.328 211.845 69.892 211.845 70.532ZM210.417 70.1C210.409 69.596 210.229 69.192 209.877 68.888C209.525 68.584 209.089 68.432 208.569 68.432C208.097 68.432 207.693 68.584 207.357 68.888C207.021 69.184 206.821 69.588 206.757 70.1H210.417ZM214.691 72.356L213.239 75.668H212.351L213.203 72.356H214.691ZM220.6 68.504V72.164C220.6 72.412 220.656 72.592 220.768 72.704C220.888 72.808 221.088 72.86 221.368 72.86H222.208V74H221.128C220.512 74 220.04 73.856 219.712 73.568C219.384 73.28 219.22 72.812 219.22 72.164V68.504H218.44V67.388H219.22V65.744H220.6V67.388H222.208V68.504H220.6ZM226.888 67.28C227.392 67.28 227.84 67.388 228.232 67.604C228.632 67.82 228.944 68.14 229.168 68.564C229.4 68.988 229.516 69.5 229.516 70.1V74H228.16V70.304C228.16 69.712 228.012 69.26 227.716 68.948C227.42 68.628 227.016 68.468 226.504 68.468C225.992 68.468 225.584 68.628 225.28 68.948C224.984 69.26 224.836 69.712 224.836 70.304V74H223.468V65.12H224.836V68.156C225.068 67.876 225.36 67.66 225.712 67.508C226.072 67.356 226.464 67.28 226.888 67.28ZM237.321 70.532C237.321 70.78 237.305 71.004 237.273 71.204H232.221C232.261 71.732 232.457 72.156 232.809 72.476C233.161 72.796 233.593 72.956 234.105 72.956C234.841 72.956 235.361 72.648 235.665 72.032H237.141C236.941 72.64 236.577 73.14 236.049 73.532C235.529 73.916 234.881 74.108 234.105 74.108C233.473 74.108 232.905 73.968 232.401 73.688C231.905 73.4 231.513 73 231.225 72.488C230.945 71.968 230.805 71.368 230.805 70.688C230.805 70.008 230.941 69.412 231.213 68.9C231.493 68.38 231.881 67.98 232.377 67.7C232.881 67.42 233.457 67.28 234.105 67.28C234.729 67.28 235.285 67.416 235.773 67.688C236.261 67.96 236.641 68.344 236.913 68.84C237.185 69.328 237.321 69.892 237.321 70.532ZM235.893 70.1C235.885 69.596 235.705 69.192 235.353 68.888C235.001 68.584 234.565 68.432 234.045 68.432C233.573 68.432 233.169 68.584 232.833 68.888C232.497 69.184 232.297 69.588 232.233 70.1H235.893ZM241.329 70.664C241.329 70 241.465 69.412 241.737 68.9C242.017 68.388 242.393 67.992 242.865 67.712C243.345 67.424 243.873 67.28 244.449 67.28C244.969 67.28 245.421 67.384 245.805 67.592C246.197 67.792 246.509 68.044 246.741 68.348V67.388H248.121V74H246.741V73.016C246.509 73.328 246.193 73.588 245.793 73.796C245.393 74.004 244.937 74.108 244.425 74.108C243.857 74.108 243.337 73.964 242.865 73.676C242.393 73.38 242.017 72.972 241.737 72.452C241.465 71.924 241.329 71.328 241.329 70.664ZM246.741 70.688C246.741 70.232 246.645 69.836 246.453 69.5C246.269 69.164 246.025 68.908 245.721 68.732C245.417 68.556 245.089 68.468 244.737 68.468C244.385 68.468 244.057 68.556 243.753 68.732C243.449 68.9 243.201 69.152 243.009 69.488C242.825 69.816 242.733 70.208 242.733 70.664C242.733 71.12 242.825 71.52 243.009 71.864C243.201 72.208 243.449 72.472 243.753 72.656C244.065 72.832 244.393 72.92 244.737 72.92C245.089 72.92 245.417 72.832 245.721 72.656C246.025 72.48 246.269 72.224 246.453 71.888C246.645 71.544 246.741 71.144 246.741 70.688ZM251.286 68.36C251.518 68.056 251.834 67.8 252.234 67.592C252.634 67.384 253.086 67.28 253.59 67.28C254.166 67.28 254.69 67.424 255.162 67.712C255.642 67.992 256.018 68.388 256.29 68.9C256.562 69.412 256.698 70 256.698 70.664C256.698 71.328 256.562 71.924 256.29 72.452C256.018 72.972 255.642 73.38 255.162 73.676C254.69 73.964 254.166 74.108 253.59 74.108C253.086 74.108 252.638 74.008 252.246 73.808C251.854 73.6 251.534 73.344 251.286 73.04V77.144H249.918V67.388H251.286V68.36ZM255.306 70.664C255.306 70.208 255.21 69.816 255.018 69.488C254.834 69.152 254.586 68.9 254.274 68.732C253.97 68.556 253.642 68.468 253.29 68.468C252.946 68.468 252.618 68.556 252.306 68.732C252.002 68.908 251.754 69.164 251.562 69.5C251.378 69.836 251.286 70.232 251.286 70.688C251.286 71.144 251.378 71.544 251.562 71.888C251.754 72.224 252.002 72.48 252.306 72.656C252.618 72.832 252.946 72.92 253.29 72.92C253.642 72.92 253.97 72.832 254.274 72.656C254.586 72.472 254.834 72.208 255.018 71.864C255.21 71.52 255.306 71.12 255.306 70.664ZM259.418 68.36C259.65 68.056 259.966 67.8 260.366 67.592C260.766 67.384 261.218 67.28 261.722 67.28C262.298 67.28 262.822 67.424 263.294 67.712C263.774 67.992 264.15 68.388 264.422 68.9C264.694 69.412 264.83 70 264.83 70.664C264.83 71.328 264.694 71.924 264.422 72.452C264.15 72.972 263.774 73.38 263.294 73.676C262.822 73.964 262.298 74.108 261.722 74.108C261.218 74.108 260.77 74.008 260.378 73.808C259.986 73.6 259.666 73.344 259.418 73.04V77.144H258.05V67.388H259.418V68.36ZM263.438 70.664C263.438 70.208 263.342 69.816 263.15 69.488C262.966 69.152 262.718 68.9 262.406 68.732C262.102 68.556 261.774 68.468 261.422 68.468C261.078 68.468 260.75 68.556 260.438 68.732C260.134 68.908 259.886 69.164 259.694 69.5C259.51 69.836 259.418 70.232 259.418 70.688C259.418 71.144 259.51 71.544 259.694 71.888C259.886 72.224 260.134 72.48 260.438 72.656C260.75 72.832 261.078 72.92 261.422 72.92C261.774 72.92 262.102 72.832 262.406 72.656C262.718 72.472 262.966 72.208 263.15 71.864C263.342 71.52 263.438 71.12 263.438 70.664ZM267.551 65.12V74H266.183V65.12H267.551ZM270.043 66.512C269.795 66.512 269.587 66.428 269.419 66.26C269.251 66.092 269.167 65.884 269.167 65.636C269.167 65.388 269.251 65.18 269.419 65.012C269.587 64.844 269.795 64.76 270.043 64.76C270.283 64.76 270.487 64.844 270.655 65.012C270.823 65.18 270.907 65.388 270.907 65.636C270.907 65.884 270.823 66.092 270.655 66.26C270.487 66.428 270.283 66.512 270.043 66.512ZM270.715 67.388V74H269.347V67.388H270.715ZM272.055 70.688C272.055 70.008 272.191 69.412 272.463 68.9C272.743 68.38 273.127 67.98 273.615 67.7C274.103 67.42 274.663 67.28 275.295 67.28C276.095 67.28 276.755 67.472 277.275 67.856C277.803 68.232 278.159 68.772 278.343 69.476H276.867C276.747 69.148 276.555 68.892 276.291 68.708C276.027 68.524 275.695 68.432 275.295 68.432C274.735 68.432 274.287 68.632 273.951 69.032C273.623 69.424 273.459 69.976 273.459 70.688C273.459 71.4 273.623 71.956 273.951 72.356C274.287 72.756 274.735 72.956 275.295 72.956C276.087 72.956 276.611 72.608 276.867 71.912H278.343C278.151 72.584 277.791 73.12 277.263 73.52C276.735 73.912 276.079 74.108 275.295 74.108C274.663 74.108 274.103 73.968 273.615 73.688C273.127 73.4 272.743 73 272.463 72.488C272.191 71.968 272.055 71.368 272.055 70.688ZM279.251 70.664C279.251 70 279.387 69.412 279.659 68.9C279.939 68.388 280.315 67.992 280.787 67.712C281.267 67.424 281.795 67.28 282.371 67.28C282.891 67.28 283.343 67.384 283.727 67.592C284.119 67.792 284.431 68.044 284.663 68.348V67.388H286.043V74H284.663V73.016C284.431 73.328 284.115 73.588 283.715 73.796C283.315 74.004 282.859 74.108 282.347 74.108C281.779 74.108 281.259 73.964 280.787 73.676C280.315 73.38 279.939 72.972 279.659 72.452C279.387 71.924 279.251 71.328 279.251 70.664ZM284.663 70.688C284.663 70.232 284.567 69.836 284.375 69.5C284.191 69.164 283.947 68.908 283.643 68.732C283.339 68.556 283.011 68.468 282.659 68.468C282.307 68.468 281.979 68.556 281.675 68.732C281.371 68.9 281.123 69.152 280.931 69.488C280.747 69.816 280.655 70.208 280.655 70.664C280.655 71.12 280.747 71.52 280.931 71.864C281.123 72.208 281.371 72.472 281.675 72.656C281.987 72.832 282.315 72.92 282.659 72.92C283.011 72.92 283.339 72.832 283.643 72.656C283.947 72.48 284.191 72.224 284.375 71.888C284.567 71.544 284.663 71.144 284.663 70.688ZM289.435 68.504V72.164C289.435 72.412 289.491 72.592 289.603 72.704C289.723 72.808 289.923 72.86 290.203 72.86H291.043V74H289.963C289.347 74 288.875 73.856 288.547 73.568C288.219 73.28 288.055 72.812 288.055 72.164V68.504H287.275V67.388H288.055V65.744H289.435V67.388H291.043V68.504H289.435ZM293 66.512C292.752 66.512 292.544 66.428 292.376 66.26C292.208 66.092 292.124 65.884 292.124 65.636C292.124 65.388 292.208 65.18 292.376 65.012C292.544 64.844 292.752 64.76 293 64.76C293.24 64.76 293.444 64.844 293.612 65.012C293.78 65.18 293.864 65.388 293.864 65.636C293.864 65.884 293.78 66.092 293.612 66.26C293.444 66.428 293.24 66.512 293 66.512ZM293.672 67.388V74H292.304V67.388H293.672ZM298.336 74.108C297.712 74.108 297.148 73.968 296.644 73.688C296.14 73.4 295.744 73 295.456 72.488C295.168 71.968 295.024 71.368 295.024 70.688C295.024 70.016 295.172 69.42 295.468 68.9C295.764 68.38 296.168 67.98 296.68 67.7C297.192 67.42 297.764 67.28 298.396 67.28C299.028 67.28 299.6 67.42 300.112 67.7C300.624 67.98 301.028 68.38 301.324 68.9C301.62 69.42 301.768 70.016 301.768 70.688C301.768 71.36 301.616 71.956 301.312 72.476C301.008 72.996 300.592 73.4 300.064 73.688C299.544 73.968 298.968 74.108 298.336 74.108ZM298.336 72.92C298.688 72.92 299.016 72.836 299.32 72.668C299.632 72.5 299.884 72.248 300.076 71.912C300.268 71.576 300.364 71.168 300.364 70.688C300.364 70.208 300.272 69.804 300.088 69.476C299.904 69.14 299.66 68.888 299.356 68.72C299.052 68.552 298.724 68.468 298.372 68.468C298.02 68.468 297.692 68.552 297.388 68.72C297.092 68.888 296.856 69.14 296.68 69.476C296.504 69.804 296.416 70.208 296.416 70.688C296.416 71.4 296.596 71.952 296.956 72.344C297.324 72.728 297.784 72.92 298.336 72.92ZM306.457 67.28C306.977 67.28 307.441 67.388 307.849 67.604C308.265 67.82 308.589 68.14 308.821 68.564C309.053 68.988 309.169 69.5 309.169 70.1V74H307.813V70.304C307.813 69.712 307.665 69.26 307.369 68.948C307.073 68.628 306.669 68.468 306.157 68.468C305.645 68.468 305.237 68.628 304.933 68.948C304.637 69.26 304.489 69.712 304.489 70.304V74H303.121V67.388H304.489V68.144C304.713 67.872 304.997 67.66 305.341 67.508C305.693 67.356 306.065 67.28 306.457 67.28ZM314.727 66.512C314.479 66.512 314.271 66.428 314.103 66.26C313.935 66.092 313.851 65.884 313.851 65.636C313.851 65.388 313.935 65.18 314.103 65.012C314.271 64.844 314.479 64.76 314.727 64.76C314.967 64.76 315.171 64.844 315.339 65.012C315.507 65.18 315.591 65.388 315.591 65.636C315.591 65.884 315.507 66.092 315.339 66.26C315.171 66.428 314.967 66.512 314.727 66.512ZM315.399 67.388V74H314.031V67.388H315.399ZM319.595 74.108C319.075 74.108 318.607 74.016 318.191 73.832C317.783 73.64 317.459 73.384 317.219 73.064C316.979 72.736 316.851 72.372 316.835 71.972H318.251C318.275 72.252 318.407 72.488 318.647 72.68C318.895 72.864 319.203 72.956 319.571 72.956C319.955 72.956 320.251 72.884 320.459 72.74C320.675 72.588 320.783 72.396 320.783 72.164C320.783 71.916 320.663 71.732 320.423 71.612C320.191 71.492 319.819 71.36 319.307 71.216C318.811 71.08 318.407 70.948 318.095 70.82C317.783 70.692 317.511 70.496 317.279 70.232C317.055 69.968 316.943 69.62 316.943 69.188C316.943 68.836 317.047 68.516 317.255 68.228C317.463 67.932 317.759 67.7 318.143 67.532C318.535 67.364 318.983 67.28 319.487 67.28C320.239 67.28 320.843 67.472 321.299 67.856C321.763 68.232 322.011 68.748 322.043 69.404H320.675C320.651 69.108 320.531 68.872 320.315 68.696C320.099 68.52 319.807 68.432 319.439 68.432C319.079 68.432 318.803 68.5 318.611 68.636C318.419 68.772 318.323 68.952 318.323 69.176C318.323 69.352 318.387 69.5 318.515 69.62C318.643 69.74 318.799 69.836 318.983 69.908C319.167 69.972 319.439 70.056 319.799 70.16C320.279 70.288 320.671 70.42 320.975 70.556C321.287 70.684 321.555 70.876 321.779 71.132C322.003 71.388 322.119 71.728 322.127 72.152C322.127 72.528 322.023 72.864 321.815 73.16C321.607 73.456 321.311 73.688 320.927 73.856C320.551 74.024 320.107 74.108 319.595 74.108ZM330.058 67.28C330.578 67.28 331.042 67.388 331.45 67.604C331.866 67.82 332.19 68.14 332.422 68.564C332.654 68.988 332.77 69.5 332.77 70.1V74H331.414V70.304C331.414 69.712 331.266 69.26 330.97 68.948C330.674 68.628 330.27 68.468 329.758 68.468C329.246 68.468 328.838 68.628 328.534 68.948C328.238 69.26 328.09 69.712 328.09 70.304V74H326.722V67.388H328.09V68.144C328.314 67.872 328.598 67.66 328.942 67.508C329.294 67.356 329.666 67.28 330.058 67.28ZM337.383 74.108C336.759 74.108 336.195 73.968 335.691 73.688C335.187 73.4 334.791 73 334.503 72.488C334.215 71.968 334.071 71.368 334.071 70.688C334.071 70.016 334.219 69.42 334.515 68.9C334.811 68.38 335.215 67.98 335.727 67.7C336.239 67.42 336.811 67.28 337.443 67.28C338.075 67.28 338.647 67.42 339.159 67.7C339.671 67.98 340.075 68.38 340.371 68.9C340.667 69.42 340.815 70.016 340.815 70.688C340.815 71.36 340.663 71.956 340.359 72.476C340.055 72.996 339.639 73.4 339.111 73.688C338.591 73.968 338.015 74.108 337.383 74.108ZM337.383 72.92C337.735 72.92 338.063 72.836 338.367 72.668C338.679 72.5 338.931 72.248 339.123 71.912C339.315 71.576 339.411 71.168 339.411 70.688C339.411 70.208 339.319 69.804 339.135 69.476C338.951 69.14 338.707 68.888 338.403 68.72C338.099 68.552 337.771 68.468 337.419 68.468C337.067 68.468 336.739 68.552 336.435 68.72C336.139 68.888 335.903 69.14 335.727 69.476C335.551 69.804 335.463 70.208 335.463 70.688C335.463 71.4 335.643 71.952 336.003 72.344C336.371 72.728 336.831 72.92 337.383 72.92ZM343.764 68.504V72.164C343.764 72.412 343.82 72.592 343.932 72.704C344.052 72.808 344.252 72.86 344.532 72.86H345.372V74H344.292C343.676 74 343.204 73.856 342.876 73.568C342.548 73.28 342.384 72.812 342.384 72.164V68.504H341.604V67.388H342.384V65.744H343.764V67.388H345.372V68.504H343.764ZM350.446 66.512C350.198 66.512 349.99 66.428 349.822 66.26C349.654 66.092 349.57 65.884 349.57 65.636C349.57 65.388 349.654 65.18 349.822 65.012C349.99 64.844 350.198 64.76 350.446 64.76C350.686 64.76 350.89 64.844 351.058 65.012C351.226 65.18 351.31 65.388 351.31 65.636C351.31 65.884 351.226 66.092 351.058 66.26C350.89 66.428 350.686 66.512 350.446 66.512ZM351.118 67.388V74H349.75V67.388H351.118ZM356.25 67.28C356.77 67.28 357.234 67.388 357.642 67.604C358.058 67.82 358.382 68.14 358.614 68.564C358.846 68.988 358.962 69.5 358.962 70.1V74H357.606V70.304C357.606 69.712 357.458 69.26 357.162 68.948C356.866 68.628 356.462 68.468 355.95 68.468C355.438 68.468 355.03 68.628 354.726 68.948C354.43 69.26 354.282 69.712 354.282 70.304V74H352.914V67.388H354.282V68.144C354.506 67.872 354.79 67.66 355.134 67.508C355.486 67.356 355.858 67.28 356.25 67.28ZM363.107 74.108C362.587 74.108 362.119 74.016 361.703 73.832C361.295 73.64 360.971 73.384 360.731 73.064C360.491 72.736 360.363 72.372 360.347 71.972H361.763C361.787 72.252 361.919 72.488 362.159 72.68C362.407 72.864 362.715 72.956 363.083 72.956C363.467 72.956 363.763 72.884 363.971 72.74C364.187 72.588 364.295 72.396 364.295 72.164C364.295 71.916 364.175 71.732 363.935 71.612C363.703 71.492 363.331 71.36 362.819 71.216C362.323 71.08 361.919 70.948 361.607 70.82C361.295 70.692 361.023 70.496 360.791 70.232C360.567 69.968 360.455 69.62 360.455 69.188C360.455 68.836 360.559 68.516 360.767 68.228C360.975 67.932 361.271 67.7 361.655 67.532C362.047 67.364 362.495 67.28 362.999 67.28C363.751 67.28 364.355 67.472 364.811 67.856C365.275 68.232 365.523 68.748 365.555 69.404H364.187C364.163 69.108 364.043 68.872 363.827 68.696C363.611 68.52 363.319 68.432 362.951 68.432C362.591 68.432 362.315 68.5 362.123 68.636C361.931 68.772 361.835 68.952 361.835 69.176C361.835 69.352 361.899 69.5 362.027 69.62C362.155 69.74 362.311 69.836 362.495 69.908C362.679 69.972 362.951 70.056 363.311 70.16C363.791 70.288 364.183 70.42 364.487 70.556C364.799 70.684 365.067 70.876 365.291 71.132C365.515 71.388 365.631 71.728 365.639 72.152C365.639 72.528 365.535 72.864 365.327 73.16C365.119 73.456 364.823 73.688 364.439 73.856C364.063 74.024 363.619 74.108 363.107 74.108ZM368.713 68.504V72.164C368.713 72.412 368.769 72.592 368.881 72.704C369.001 72.808 369.201 72.86 369.481 72.86H370.321V74H369.241C368.625 74 368.153 73.856 367.825 73.568C367.497 73.28 367.333 72.812 367.333 72.164V68.504H366.553V67.388H367.333V65.744H368.713V67.388H370.321V68.504H368.713ZM371.126 70.664C371.126 70 371.262 69.412 371.534 68.9C371.814 68.388 372.19 67.992 372.662 67.712C373.142 67.424 373.67 67.28 374.246 67.28C374.766 67.28 375.218 67.384 375.602 67.592C375.994 67.792 376.306 68.044 376.538 68.348V67.388H377.918V74H376.538V73.016C376.306 73.328 375.99 73.588 375.59 73.796C375.19 74.004 374.734 74.108 374.222 74.108C373.654 74.108 373.134 73.964 372.662 73.676C372.19 73.38 371.814 72.972 371.534 72.452C371.262 71.924 371.126 71.328 371.126 70.664ZM376.538 70.688C376.538 70.232 376.442 69.836 376.25 69.5C376.066 69.164 375.822 68.908 375.518 68.732C375.214 68.556 374.886 68.468 374.534 68.468C374.182 68.468 373.854 68.556 373.55 68.732C373.246 68.9 372.998 69.152 372.806 69.488C372.622 69.816 372.53 70.208 372.53 70.664C372.53 71.12 372.622 71.52 372.806 71.864C372.998 72.208 373.246 72.472 373.55 72.656C373.862 72.832 374.19 72.92 374.534 72.92C374.886 72.92 375.214 72.832 375.518 72.656C375.822 72.48 376.066 72.224 376.25 71.888C376.442 71.544 376.538 71.144 376.538 70.688ZM381.082 65.12V74H379.714V65.12H381.082ZM384.247 65.12V74H382.879V65.12H384.247ZM392.103 70.532C392.103 70.78 392.087 71.004 392.055 71.204H387.003C387.043 71.732 387.239 72.156 387.591 72.476C387.943 72.796 388.375 72.956 388.887 72.956C389.623 72.956 390.143 72.648 390.447 72.032H391.923C391.723 72.64 391.359 73.14 390.831 73.532C390.311 73.916 389.663 74.108 388.887 74.108C388.255 74.108 387.687 73.968 387.183 73.688C386.687 73.4 386.295 73 386.007 72.488C385.727 71.968 385.587 71.368 385.587 70.688C385.587 70.008 385.723 69.412 385.995 68.9C386.275 68.38 386.663 67.98 387.159 67.7C387.663 67.42 388.239 67.28 388.887 67.28C389.511 67.28 390.067 67.416 390.555 67.688C391.043 67.96 391.423 68.344 391.695 68.84C391.967 69.328 392.103 69.892 392.103 70.532ZM390.675 70.1C390.667 69.596 390.487 69.192 390.135 68.888C389.783 68.584 389.347 68.432 388.827 68.432C388.355 68.432 387.951 68.584 387.615 68.888C387.279 69.184 387.079 69.588 387.015 70.1H390.675ZM392.993 70.664C392.993 70 393.129 69.412 393.401 68.9C393.681 68.388 394.057 67.992 394.529 67.712C395.009 67.424 395.541 67.28 396.125 67.28C396.557 67.28 396.981 67.376 397.397 67.568C397.821 67.752 398.157 68 398.405 68.312V65.12H399.785V74H398.405V73.004C398.181 73.324 397.869 73.588 397.469 73.796C397.077 74.004 396.625 74.108 396.113 74.108C395.537 74.108 395.009 73.964 394.529 73.676C394.057 73.38 393.681 72.972 393.401 72.452C393.129 71.924 392.993 71.328 392.993 70.664ZM398.405 70.688C398.405 70.232 398.309 69.836 398.117 69.5C397.933 69.164 397.689 68.908 397.385 68.732C397.081 68.556 396.753 68.468 396.401 68.468C396.049 68.468 395.721 68.556 395.417 68.732C395.113 68.9 394.865 69.152 394.673 69.488C394.489 69.816 394.397 70.208 394.397 70.664C394.397 71.12 394.489 71.52 394.673 71.864C394.865 72.208 395.113 72.472 395.417 72.656C395.729 72.832 396.057 72.92 396.401 72.92C396.753 72.92 397.081 72.832 397.385 72.656C397.689 72.48 397.933 72.224 398.117 71.888C398.309 71.544 398.405 71.144 398.405 70.688ZM402.134 74.084C401.886 74.084 401.678 74 401.51 73.832C401.342 73.664 401.258 73.456 401.258 73.208C401.258 72.96 401.342 72.752 401.51 72.584C401.678 72.416 401.886 72.332 402.134 72.332C402.374 72.332 402.578 72.416 402.746 72.584C402.914 72.752 402.998 72.96 402.998 73.208C402.998 73.456 402.914 73.664 402.746 73.832C402.578 74 402.374 74.084 402.134 74.084Z" fill="black"/>
</svg>
