<svg width="480" height="360" viewBox="0 0 480 360" fill="none" xmlns="http://www.w3.org/2000/svg">
<rect x="17" y="22" width="10" height="10" rx="5" stroke="black" stroke-width="2"/>
<path d="M26 21C26 18.7909 27.7909 17 30 17H31C31.5523 17 32 17.4477 32 18V18C32 18.5523 31.5523 19 31 19H30C28.8954 19 28 19.8954 28 21V27H26V21Z" fill="black"/>
<rect x="20" y="25" width="4" height="4" rx="2" fill="black"/>
<path d="M445 325C445 324.448 445.448 324 446 324V324C446.552 324 447 324.448 447 325V328H450C450.552 328 451 328.448 451 329V329C451 329.552 450.552 330 450 330H445V325Z" fill="black"/>
<path d="M440 332C439.448 332 439 331.552 439 331V331C439 330.448 439.448 330 440 330H445V335C445 335.552 444.552 336 444 336V336C443.448 336 443 335.552 443 335V332H440Z" fill="black"/>
<path d="M440.586 335.828C440.195 336.219 439.562 336.219 439.172 335.828V335.828C438.781 335.438 438.781 334.805 439.172 334.414L442.707 330.879C443.098 330.488 443.731 330.488 444.121 330.879V330.879C444.512 331.269 444.512 331.902 444.121 332.293L440.586 335.828Z" fill="black"/>
<path d="M449.414 324.171C449.805 323.781 450.438 323.781 450.828 324.171V324.171C451.219 324.562 451.219 325.195 450.828 325.586L447.293 329.121C446.902 329.512 446.269 329.512 445.879 329.121V329.121C445.488 328.731 445.488 328.098 445.879 327.707L449.414 324.171Z" fill="black"/>
</svg>
