<svg width="450" height="360" viewBox="0 0 450 360" fill="none" xmlns="http://www.w3.org/2000/svg">
<rect width="450" height="40" rx="15" fill="white" fill-opacity="0.1"/>
<path d="M24.704 24.084C23.928 24.084 23.212 23.904 22.556 23.544C21.908 23.176 21.392 22.668 21.008 22.02C20.632 21.364 20.444 20.628 20.444 19.812C20.444 18.996 20.632 18.264 21.008 17.616C21.392 16.968 21.908 16.464 22.556 16.104C23.212 15.736 23.928 15.552 24.704 15.552C25.488 15.552 26.204 15.736 26.852 16.104C27.508 16.464 28.024 16.968 28.4 17.616C28.776 18.264 28.964 18.996 28.964 19.812C28.964 20.628 28.776 21.364 28.4 22.02C28.024 22.668 27.508 23.176 26.852 23.544C26.204 23.904 25.488 24.084 24.704 24.084ZM24.704 22.896C25.256 22.896 25.748 22.772 26.18 22.524C26.612 22.268 26.948 21.908 27.188 21.444C27.436 20.972 27.56 20.428 27.56 19.812C27.56 19.196 27.436 18.656 27.188 18.192C26.948 17.728 26.612 17.372 26.18 17.124C25.748 16.876 25.256 16.752 24.704 16.752C24.152 16.752 23.66 16.876 23.228 17.124C22.796 17.372 22.456 17.728 22.208 18.192C21.968 18.656 21.848 19.196 21.848 19.812C21.848 20.428 21.968 20.972 22.208 21.444C22.456 21.908 22.796 22.268 23.228 22.524C23.66 22.772 24.152 22.896 24.704 22.896ZM33.6462 17.28C34.1662 17.28 34.6302 17.388 35.0382 17.604C35.4542 17.82 35.7782 18.14 36.0102 18.564C36.2422 18.988 36.3582 19.5 36.3582 20.1V24H35.0022V20.304C35.0022 19.712 34.8542 19.26 34.5582 18.948C34.2622 18.628 33.8582 18.468 33.3462 18.468C32.8342 18.468 32.4262 18.628 32.1222 18.948C31.8262 19.26 31.6782 19.712 31.6782 20.304V24H30.3102V17.388H31.6782V18.144C31.9022 17.872 32.1862 17.66 32.5302 17.508C32.8822 17.356 33.2542 17.28 33.6462 17.28ZM46.9831 17.388L44.9311 24H43.4911L42.1591 19.116L40.8271 24H39.3871L37.3231 17.388H38.7151L40.0951 22.704L41.4991 17.388H42.9271L44.2711 22.68L45.6391 17.388H46.9831ZM47.5495 20.664C47.5495 20 47.6855 19.412 47.9575 18.9C48.2375 18.388 48.6135 17.992 49.0855 17.712C49.5655 17.424 50.0935 17.28 50.6695 17.28C51.1895 17.28 51.6415 17.384 52.0255 17.592C52.4175 17.792 52.7295 18.044 52.9615 18.348V17.388H54.3415V24H52.9615V23.016C52.7295 23.328 52.4135 23.588 52.0135 23.796C51.6135 24.004 51.1575 24.108 50.6455 24.108C50.0775 24.108 49.5575 23.964 49.0855 23.676C48.6135 23.38 48.2375 22.972 47.9575 22.452C47.6855 21.924 47.5495 21.328 47.5495 20.664ZM52.9615 20.688C52.9615 20.232 52.8655 19.836 52.6735 19.5C52.4895 19.164 52.2455 18.908 51.9415 18.732C51.6375 18.556 51.3095 18.468 50.9575 18.468C50.6055 18.468 50.2775 18.556 49.9735 18.732C49.6695 18.9 49.4215 19.152 49.2295 19.488C49.0455 19.816 48.9535 20.208 48.9535 20.664C48.9535 21.12 49.0455 21.52 49.2295 21.864C49.4215 22.208 49.6695 22.472 49.9735 22.656C50.2855 22.832 50.6135 22.92 50.9575 22.92C51.3095 22.92 51.6375 22.832 51.9415 22.656C52.2455 22.48 52.4895 22.224 52.6735 21.888C52.8655 21.544 52.9615 21.144 52.9615 20.688ZM57.5063 18.348C57.7063 18.012 57.9703 17.752 58.2983 17.568C58.6343 17.376 59.0303 17.28 59.4863 17.28V18.696H59.1383C58.6023 18.696 58.1943 18.832 57.9143 19.104C57.6423 19.376 57.5063 19.848 57.5063 20.52V24H56.1383V17.388H57.5063V18.348ZM60.2878 20.664C60.2878 20 60.4238 19.412 60.6958 18.9C60.9758 18.388 61.3518 17.992 61.8238 17.712C62.3038 17.424 62.8358 17.28 63.4198 17.28C63.8518 17.28 64.2758 17.376 64.6918 17.568C65.1158 17.752 65.4518 18 65.6998 18.312V15.12H67.0798V24H65.6998V23.004C65.4758 23.324 65.1638 23.588 64.7638 23.796C64.3718 24.004 63.9198 24.108 63.4078 24.108C62.8318 24.108 62.3038 23.964 61.8238 23.676C61.3518 23.38 60.9758 22.972 60.6958 22.452C60.4238 21.924 60.2878 21.328 60.2878 20.664ZM65.6998 20.688C65.6998 20.232 65.6038 19.836 65.4118 19.5C65.2278 19.164 64.9838 18.908 64.6798 18.732C64.3758 18.556 64.0478 18.468 63.6958 18.468C63.3438 18.468 63.0158 18.556 62.7118 18.732C62.4078 18.9 62.1598 19.152 61.9678 19.488C61.7838 19.816 61.6918 20.208 61.6918 20.664C61.6918 21.12 61.7838 21.52 61.9678 21.864C62.1598 22.208 62.4078 22.472 62.7118 22.656C63.0238 22.832 63.3518 22.92 63.6958 22.92C64.0478 22.92 64.3758 22.832 64.6798 22.656C64.9838 22.48 65.2278 22.224 65.4118 21.888C65.6038 21.544 65.6998 21.144 65.6998 20.688Z" fill="white"/>
<path d="M233.02 10.05C233.76 10.05 234.407 10.1933 234.96 10.48C235.52 10.76 235.95 11.1667 236.25 11.7C236.557 12.2267 236.71 12.8433 236.71 13.55C236.71 14.2567 236.557 14.87 236.25 15.39C235.95 15.91 235.52 16.31 234.96 16.59C234.407 16.8633 233.76 17 233.02 17H230.75V10.05H233.02ZM233.02 16.07C233.833 16.07 234.457 15.85 234.89 15.41C235.323 14.97 235.54 14.35 235.54 13.55C235.54 12.7433 235.323 12.1133 234.89 11.66C234.457 11.2067 233.833 10.98 233.02 10.98H231.89V16.07H233.02ZM237.46 14.22C237.46 13.6667 237.573 13.1767 237.8 12.75C238.033 12.3233 238.347 11.9933 238.74 11.76C239.14 11.52 239.58 11.4 240.06 11.4C240.493 11.4 240.87 11.4867 241.19 11.66C241.517 11.8267 241.777 12.0367 241.97 12.29V11.49H243.12V17H241.97V16.18C241.777 16.44 241.513 16.6567 241.18 16.83C240.847 17.0033 240.467 17.09 240.04 17.09C239.567 17.09 239.133 16.97 238.74 16.73C238.347 16.4833 238.033 16.1433 237.8 15.71C237.573 15.27 237.46 14.7733 237.46 14.22ZM241.97 14.24C241.97 13.86 241.89 13.53 241.73 13.25C241.577 12.97 241.373 12.7567 241.12 12.61C240.867 12.4633 240.593 12.39 240.3 12.39C240.007 12.39 239.733 12.4633 239.48 12.61C239.227 12.75 239.02 12.96 238.86 13.24C238.707 13.5133 238.63 13.84 238.63 14.22C238.63 14.6 238.707 14.9333 238.86 15.22C239.02 15.5067 239.227 15.7267 239.48 15.88C239.74 16.0267 240.013 16.1 240.3 16.1C240.593 16.1 240.867 16.0267 241.12 15.88C241.373 15.7333 241.577 15.52 241.73 15.24C241.89 14.9533 241.97 14.62 241.97 14.24ZM247.397 11.4C247.831 11.4 248.217 11.49 248.557 11.67C248.904 11.85 249.174 12.1167 249.367 12.47C249.561 12.8233 249.657 13.25 249.657 13.75V17H248.527V13.92C248.527 13.4267 248.404 13.05 248.157 12.79C247.911 12.5233 247.574 12.39 247.147 12.39C246.721 12.39 246.381 12.5233 246.127 12.79C245.881 13.05 245.757 13.4267 245.757 13.92V17H244.617V11.49H245.757V12.12C245.944 11.8933 246.181 11.7167 246.467 11.59C246.761 11.4633 247.071 11.4 247.397 11.4ZM251.691 10.76C251.485 10.76 251.311 10.69 251.171 10.55C251.031 10.41 250.961 10.2367 250.961 10.03C250.961 9.82333 251.031 9.65 251.171 9.51C251.311 9.37 251.485 9.3 251.691 9.3C251.891 9.3 252.061 9.37 252.201 9.51C252.341 9.65 252.411 9.82333 252.411 10.03C252.411 10.2367 252.341 10.41 252.201 10.55C252.061 10.69 251.891 10.76 251.691 10.76ZM252.251 11.49V17H251.111V11.49H252.251ZM259.956 17L258.356 14.22H257.486V17H256.346V10.05H258.746C259.279 10.05 259.729 10.1433 260.096 10.33C260.469 10.5167 260.746 10.7667 260.926 11.08C261.112 11.3933 261.206 11.7433 261.206 12.13C261.206 12.5833 261.072 12.9967 260.806 13.37C260.546 13.7367 260.142 13.9867 259.596 14.12L261.316 17H259.956ZM257.486 13.31H258.746C259.172 13.31 259.492 13.2033 259.706 12.99C259.926 12.7767 260.036 12.49 260.036 12.13C260.036 11.77 259.929 11.49 259.716 11.29C259.502 11.0833 259.179 10.98 258.746 10.98H257.486V13.31ZM265.054 17.09C264.534 17.09 264.064 16.9733 263.644 16.74C263.224 16.5 262.894 16.1667 262.654 15.74C262.414 15.3067 262.294 14.8067 262.294 14.24C262.294 13.68 262.417 13.1833 262.664 12.75C262.911 12.3167 263.247 11.9833 263.674 11.75C264.101 11.5167 264.577 11.4 265.104 11.4C265.631 11.4 266.107 11.5167 266.534 11.75C266.961 11.9833 267.297 12.3167 267.544 12.75C267.791 13.1833 267.914 13.68 267.914 14.24C267.914 14.8 267.787 15.2967 267.534 15.73C267.281 16.1633 266.934 16.5 266.494 16.74C266.061 16.9733 265.581 17.09 265.054 17.09ZM265.054 16.1C265.347 16.1 265.621 16.03 265.874 15.89C266.134 15.75 266.344 15.54 266.504 15.26C266.664 14.98 266.744 14.64 266.744 14.24C266.744 13.84 266.667 13.5033 266.514 13.23C266.361 12.95 266.157 12.74 265.904 12.6C265.651 12.46 265.377 12.39 265.084 12.39C264.791 12.39 264.517 12.46 264.264 12.6C264.017 12.74 263.821 12.95 263.674 13.23C263.527 13.5033 263.454 13.84 263.454 14.24C263.454 14.8333 263.604 15.2933 263.904 15.62C264.211 15.94 264.594 16.1 265.054 16.1ZM271.041 17.09C270.608 17.09 270.218 17.0133 269.871 16.86C269.531 16.7 269.261 16.4867 269.061 16.22C268.861 15.9467 268.754 15.6433 268.741 15.31H269.921C269.941 15.5433 270.051 15.74 270.251 15.9C270.458 16.0533 270.714 16.13 271.021 16.13C271.341 16.13 271.588 16.07 271.761 15.95C271.941 15.8233 272.031 15.6633 272.031 15.47C272.031 15.2633 271.931 15.11 271.731 15.01C271.538 14.91 271.228 14.8 270.801 14.68C270.388 14.5667 270.051 14.4567 269.791 14.35C269.531 14.2433 269.304 14.08 269.111 13.86C268.924 13.64 268.831 13.35 268.831 12.99C268.831 12.6967 268.918 12.43 269.091 12.19C269.264 11.9433 269.511 11.75 269.831 11.61C270.158 11.47 270.531 11.4 270.951 11.4C271.578 11.4 272.081 11.56 272.461 11.88C272.848 12.1933 273.054 12.6233 273.081 13.17H271.941C271.921 12.9233 271.821 12.7267 271.641 12.58C271.461 12.4333 271.218 12.36 270.911 12.36C270.611 12.36 270.381 12.4167 270.221 12.53C270.061 12.6433 269.981 12.7933 269.981 12.98C269.981 13.1267 270.034 13.25 270.141 13.35C270.248 13.45 270.378 13.53 270.531 13.59C270.684 13.6433 270.911 13.7133 271.211 13.8C271.611 13.9067 271.938 14.0167 272.191 14.13C272.451 14.2367 272.674 14.3967 272.861 14.61C273.048 14.8233 273.144 15.1067 273.151 15.46C273.151 15.7733 273.064 16.0533 272.891 16.3C272.718 16.5467 272.471 16.74 272.151 16.88C271.838 17.02 271.468 17.09 271.041 17.09ZM279.433 14.11C279.433 14.3167 279.419 14.5033 279.393 14.67H275.183C275.216 15.11 275.379 15.4633 275.673 15.73C275.966 15.9967 276.326 16.13 276.753 16.13C277.366 16.13 277.799 15.8733 278.053 15.36H279.283C279.116 15.8667 278.813 16.2833 278.373 16.61C277.939 16.93 277.399 17.09 276.753 17.09C276.226 17.09 275.753 16.9733 275.333 16.74C274.919 16.5 274.593 16.1667 274.353 15.74C274.119 15.3067 274.003 14.8067 274.003 14.24C274.003 13.6733 274.116 13.1767 274.343 12.75C274.576 12.3167 274.899 11.9833 275.313 11.75C275.733 11.5167 276.213 11.4 276.753 11.4C277.273 11.4 277.736 11.5133 278.143 11.74C278.549 11.9667 278.866 12.2867 279.093 12.7C279.319 13.1067 279.433 13.5767 279.433 14.11ZM278.243 13.75C278.236 13.33 278.086 12.9933 277.793 12.74C277.499 12.4867 277.136 12.36 276.703 12.36C276.309 12.36 275.973 12.4867 275.693 12.74C275.413 12.9867 275.246 13.3233 275.193 13.75H278.243ZM283.335 11.4C283.768 11.4 284.155 11.49 284.495 11.67C284.841 11.85 285.111 12.1167 285.305 12.47C285.498 12.8233 285.595 13.25 285.595 13.75V17H284.465V13.92C284.465 13.4267 284.341 13.05 284.095 12.79C283.848 12.5233 283.511 12.39 283.085 12.39C282.658 12.39 282.318 12.5233 282.065 12.79C281.818 13.05 281.695 13.4267 281.695 13.92V17H280.555V11.49H281.695V12.12C281.881 11.8933 282.118 11.7167 282.405 11.59C282.698 11.4633 283.008 11.4 283.335 11.4ZM289.439 17.09C288.919 17.09 288.449 16.9733 288.029 16.74C287.609 16.5 287.279 16.1667 287.039 15.74C286.799 15.3067 286.679 14.8067 286.679 14.24C286.679 13.68 286.802 13.1833 287.049 12.75C287.295 12.3167 287.632 11.9833 288.059 11.75C288.485 11.5167 288.962 11.4 289.489 11.4C290.015 11.4 290.492 11.5167 290.919 11.75C291.345 11.9833 291.682 12.3167 291.929 12.75C292.175 13.1833 292.299 13.68 292.299 14.24C292.299 14.8 292.172 15.2967 291.919 15.73C291.665 16.1633 291.319 16.5 290.879 16.74C290.445 16.9733 289.965 17.09 289.439 17.09ZM289.439 16.1C289.732 16.1 290.005 16.03 290.259 15.89C290.519 15.75 290.729 15.54 290.889 15.26C291.049 14.98 291.129 14.64 291.129 14.24C291.129 13.84 291.052 13.5033 290.899 13.23C290.745 12.95 290.542 12.74 290.289 12.6C290.035 12.46 289.762 12.39 289.469 12.39C289.175 12.39 288.902 12.46 288.649 12.6C288.402 12.74 288.205 12.95 288.059 13.23C287.912 13.5033 287.839 13.84 287.839 14.24C287.839 14.8333 287.989 15.2933 288.289 15.62C288.595 15.94 288.979 16.1 289.439 16.1ZM298.476 14.11C298.476 14.3167 298.462 14.5033 298.436 14.67H294.226C294.259 15.11 294.422 15.4633 294.716 15.73C295.009 15.9967 295.369 16.13 295.796 16.13C296.409 16.13 296.842 15.8733 297.096 15.36H298.326C298.159 15.8667 297.856 16.2833 297.416 16.61C296.982 16.93 296.442 17.09 295.796 17.09C295.269 17.09 294.796 16.9733 294.376 16.74C293.962 16.5 293.636 16.1667 293.396 15.74C293.162 15.3067 293.046 14.8067 293.046 14.24C293.046 13.6733 293.159 13.1767 293.386 12.75C293.619 12.3167 293.942 11.9833 294.356 11.75C294.776 11.5167 295.256 11.4 295.796 11.4C296.316 11.4 296.779 11.5133 297.186 11.74C297.592 11.9667 297.909 12.2867 298.136 12.7C298.362 13.1067 298.476 13.5767 298.476 14.11ZM297.286 13.75C297.279 13.33 297.129 12.9933 296.836 12.74C296.542 12.4867 296.179 12.36 295.746 12.36C295.352 12.36 295.016 12.4867 294.736 12.74C294.456 12.9867 294.289 13.3233 294.236 13.75H297.286ZM300.738 12.29C300.904 12.01 301.124 11.7933 301.398 11.64C301.678 11.48 302.008 11.4 302.388 11.4V12.58H302.098C301.651 12.58 301.311 12.6933 301.078 12.92C300.851 13.1467 300.738 13.54 300.738 14.1V17H299.598V11.49H300.738V12.29ZM234.94 28.58H232.03L231.53 30H230.34L232.83 23.04H234.15L236.64 30H235.44L234.94 28.58ZM234.62 27.65L233.49 24.42L232.35 27.65H234.62ZM238.863 25.29C239.029 25.01 239.249 24.7933 239.523 24.64C239.803 24.48 240.133 24.4 240.513 24.4V25.58H240.223C239.776 25.58 239.436 25.6933 239.203 25.92C238.976 26.1467 238.863 26.54 238.863 27.1V30H237.723V24.49H238.863V25.29ZM241.181 27.24C241.181 26.6733 241.294 26.1767 241.521 25.75C241.754 25.3167 242.074 24.9833 242.481 24.75C242.887 24.5167 243.354 24.4 243.881 24.4C244.547 24.4 245.097 24.56 245.531 24.88C245.971 25.1933 246.267 25.6433 246.421 26.23H245.191C245.091 25.9567 244.931 25.7433 244.711 25.59C244.491 25.4367 244.214 25.36 243.881 25.36C243.414 25.36 243.041 25.5267 242.761 25.86C242.487 26.1867 242.351 26.6467 242.351 27.24C242.351 27.8333 242.487 28.2967 242.761 28.63C243.041 28.9633 243.414 29.13 243.881 29.13C244.541 29.13 244.977 28.84 245.191 28.26H246.421C246.261 28.82 245.961 29.2667 245.521 29.6C245.081 29.9267 244.534 30.09 243.881 30.09C243.354 30.09 242.887 29.9733 242.481 29.74C242.074 29.5 241.754 29.1667 241.521 28.74C241.294 28.3067 241.181 27.8067 241.181 27.24ZM255.864 30H254.724L251.294 24.81V30H250.154V23.04H251.294L254.724 28.22V23.04H255.864V30ZM259.751 30.09C259.231 30.09 258.761 29.9733 258.341 29.74C257.921 29.5 257.591 29.1667 257.351 28.74C257.111 28.3067 256.991 27.8067 256.991 27.24C256.991 26.68 257.115 26.1833 257.361 25.75C257.608 25.3167 257.945 24.9833 258.371 24.75C258.798 24.5167 259.275 24.4 259.801 24.4C260.328 24.4 260.805 24.5167 261.231 24.75C261.658 24.9833 261.995 25.3167 262.241 25.75C262.488 26.1833 262.611 26.68 262.611 27.24C262.611 27.8 262.485 28.2967 262.231 28.73C261.978 29.1633 261.631 29.5 261.191 29.74C260.758 29.9733 260.278 30.09 259.751 30.09ZM259.751 29.1C260.045 29.1 260.318 29.03 260.571 28.89C260.831 28.75 261.041 28.54 261.201 28.26C261.361 27.98 261.441 27.64 261.441 27.24C261.441 26.84 261.365 26.5033 261.211 26.23C261.058 25.95 260.855 25.74 260.601 25.6C260.348 25.46 260.075 25.39 259.781 25.39C259.488 25.39 259.215 25.46 258.961 25.6C258.715 25.74 258.518 25.95 258.371 26.23C258.225 26.5033 258.151 26.84 258.151 27.24C258.151 27.8333 258.301 28.2933 258.601 28.62C258.908 28.94 259.291 29.1 259.751 29.1ZM264.878 25.29C265.045 25.01 265.265 24.7933 265.538 24.64C265.818 24.48 266.148 24.4 266.528 24.4V25.58H266.238C265.792 25.58 265.452 25.6933 265.218 25.92C264.992 26.1467 264.878 26.54 264.878 27.1V30H263.738V24.49H264.878V25.29ZM268.906 25.42V28.47C268.906 28.6767 268.953 28.8267 269.046 28.92C269.146 29.0067 269.313 29.05 269.546 29.05H270.246V30H269.346C268.833 30 268.44 29.88 268.166 29.64C267.893 29.4 267.756 29.01 267.756 28.47V25.42H267.106V24.49H267.756V23.12H268.906V24.49H270.246V25.42H268.906ZM274.147 24.4C274.567 24.4 274.94 24.49 275.267 24.67C275.6 24.85 275.86 25.1167 276.047 25.47C276.24 25.8233 276.337 26.25 276.337 26.75V30H275.207V26.92C275.207 26.4267 275.084 26.05 274.837 25.79C274.59 25.5233 274.254 25.39 273.827 25.39C273.4 25.39 273.06 25.5233 272.807 25.79C272.56 26.05 272.437 26.4267 272.437 26.92V30H271.297V22.6H272.437V25.13C272.63 24.8967 272.874 24.7167 273.167 24.59C273.467 24.4633 273.794 24.4 274.147 24.4Z" fill="#808080"/>
<path d="M412.924 18.51C412.964 17.89 413.2 17.4067 413.634 17.06C414.074 16.7133 414.634 16.54 415.314 16.54C415.78 16.54 416.184 16.6233 416.524 16.79C416.864 16.9567 417.12 17.1833 417.294 17.47C417.467 17.7567 417.554 18.08 417.554 18.44C417.554 18.8533 417.444 19.2067 417.224 19.5C417.004 19.7933 416.74 19.99 416.434 20.09V20.13C416.827 20.25 417.134 20.47 417.354 20.79C417.574 21.1033 417.684 21.5067 417.684 22C417.684 22.3933 417.594 22.7433 417.414 23.05C417.234 23.3567 416.967 23.6 416.614 23.78C416.26 23.9533 415.837 24.04 415.344 24.04C414.624 24.04 414.03 23.8567 413.564 23.49C413.104 23.1167 412.857 22.5833 412.824 21.89H413.924C413.95 22.2433 414.087 22.5333 414.334 22.76C414.58 22.98 414.914 23.09 415.334 23.09C415.74 23.09 416.054 22.98 416.274 22.76C416.494 22.5333 416.604 22.2433 416.604 21.89C416.604 21.4233 416.454 21.0933 416.154 20.9C415.86 20.7 415.407 20.6 414.794 20.6H414.534V19.66H414.804C415.344 19.6533 415.754 19.5633 416.034 19.39C416.32 19.2167 416.464 18.9433 416.464 18.57C416.464 18.25 416.36 17.9967 416.154 17.81C415.947 17.6167 415.654 17.52 415.274 17.52C414.9 17.52 414.61 17.6167 414.404 17.81C414.197 17.9967 414.074 18.23 414.034 18.51H412.924ZM419.491 24.07C419.285 24.07 419.111 24 418.971 23.86C418.831 23.72 418.761 23.5467 418.761 23.34C418.761 23.1333 418.831 22.96 418.971 22.82C419.111 22.68 419.285 22.61 419.491 22.61C419.691 22.61 419.861 22.68 420.001 22.82C420.141 22.96 420.211 23.1333 420.211 23.34C420.211 23.5467 420.141 23.72 420.001 23.86C419.861 24 419.691 24.07 419.491 24.07ZM419.491 19.87C419.285 19.87 419.111 19.8 418.971 19.66C418.831 19.52 418.761 19.3467 418.761 19.14C418.761 18.9333 418.831 18.76 418.971 18.62C419.111 18.48 419.285 18.41 419.491 18.41C419.691 18.41 419.861 18.48 420.001 18.62C420.141 18.76 420.211 18.9333 420.211 19.14C420.211 19.3467 420.141 19.52 420.001 19.66C419.861 19.8 419.691 19.87 419.491 19.87ZM421.962 22.45C422.602 21.8967 423.106 21.4433 423.472 21.09C423.846 20.73 424.156 20.3567 424.402 19.97C424.649 19.5833 424.772 19.1967 424.772 18.81C424.772 18.41 424.676 18.0967 424.482 17.87C424.296 17.6433 423.999 17.53 423.592 17.53C423.199 17.53 422.892 17.6567 422.672 17.91C422.459 18.1567 422.346 18.49 422.332 18.91H421.232C421.252 18.15 421.479 17.57 421.912 17.17C422.352 16.7633 422.909 16.56 423.582 16.56C424.309 16.56 424.876 16.76 425.282 17.16C425.696 17.56 425.902 18.0933 425.902 18.76C425.902 19.24 425.779 19.7033 425.532 20.15C425.292 20.59 425.002 20.9867 424.662 21.34C424.329 21.6867 423.902 22.09 423.382 22.55L422.932 22.95H426.102V23.9H421.242V23.07L421.962 22.45ZM426.954 17.75V16.71H429.034V24H427.884V17.75H426.954Z" fill="#808080"/>
</svg>
