<svg width="250" height="28" viewBox="0 0 250 28" fill="none" xmlns="http://www.w3.org/2000/svg">
<rect width="250" height="28" rx="5" fill="#E6E6E6"/>
<path d="M13.59 12.4C14.2767 12.4 14.8233 12.5933 15.23 12.98C15.6433 13.3667 15.85 13.8867 15.85 14.54C15.85 14.6933 15.8333 14.8767 15.8 15.09C15.7733 15.2367 15.7267 15.4167 15.66 15.63H11.45C11.4433 15.6767 11.44 15.7467 11.44 15.84C11.44 16.2333 11.56 16.5467 11.8 16.78C12.0467 17.0133 12.3667 17.13 12.76 17.13C13.38 17.13 13.8567 16.8733 14.19 16.36H15.42C15.1667 16.8667 14.7933 17.2833 14.3 17.61C13.8067 17.93 13.2367 18.09 12.59 18.09C12.13 18.09 11.7267 18 11.38 17.82C11.0333 17.64 10.7633 17.3833 10.57 17.05C10.3767 16.71 10.28 16.3133 10.28 15.86C10.28 15.6667 10.3 15.46 10.34 15.24C10.44 14.6733 10.6433 14.1767 10.95 13.75C11.2567 13.3167 11.6367 12.9833 12.09 12.75C12.55 12.5167 13.05 12.4 13.59 12.4ZM14.66 14.81C14.6733 14.69 14.68 14.6033 14.68 14.55C14.68 14.1833 14.5567 13.8933 14.31 13.68C14.07 13.4667 13.7567 13.36 13.37 13.36C12.9633 13.36 12.5967 13.49 12.27 13.75C11.9433 14.01 11.72 14.3633 11.6 14.81H14.66ZM19.2619 15.2L20.5419 18H19.2519L18.3919 16.13L16.9419 18H15.7519L18.0119 15.29L16.7219 12.49H18.0119L18.8719 14.36L20.3219 12.49H21.5119L19.2619 15.2ZM21.5021 15.22C21.6021 14.6667 21.8021 14.1767 22.1021 13.75C22.4088 13.3233 22.7821 12.9933 23.2221 12.76C23.6621 12.52 24.1221 12.4 24.6021 12.4C25.0354 12.4 25.3988 12.4867 25.6921 12.66C25.9854 12.8267 26.2054 13.0367 26.3521 13.29L26.4921 12.49H27.6421L26.6721 18H25.5221L25.6721 17.18C25.4321 17.44 25.1288 17.6567 24.7621 17.83C24.4021 18.0033 24.0088 18.09 23.5821 18.09C23.1688 18.09 22.7988 17.9967 22.4721 17.81C22.1521 17.6233 21.8988 17.36 21.7121 17.02C21.5321 16.6733 21.4421 16.2767 21.4421 15.83C21.4421 15.63 21.4621 15.4267 21.5021 15.22ZM26.0121 15.24C26.0388 15.1133 26.0521 14.9767 26.0521 14.83C26.0521 14.3833 25.9188 14.0333 25.6521 13.78C25.3921 13.52 25.0654 13.39 24.6721 13.39C24.3788 13.39 24.0921 13.4633 23.8121 13.61C23.5321 13.75 23.2888 13.96 23.0821 14.24C22.8754 14.5133 22.7388 14.84 22.6721 15.22C22.6454 15.3467 22.6321 15.4833 22.6321 15.63C22.6321 16.0833 22.7621 16.4433 23.0221 16.71C23.2888 16.97 23.6188 17.1 24.0121 17.1C24.3054 17.1 24.5921 17.0267 24.8721 16.88C25.1521 16.7333 25.3954 16.52 25.6021 16.24C25.8088 15.9533 25.9454 15.62 26.0121 15.24ZM35.8295 12.4C36.4095 12.4 36.8728 12.5567 37.2195 12.87C37.5661 13.1833 37.7395 13.6267 37.7395 14.2C37.7395 14.3533 37.7228 14.5367 37.6895 14.75L37.1095 18H35.9795L36.5295 14.92C36.5561 14.7333 36.5695 14.6 36.5695 14.52C36.5695 14.1533 36.4661 13.8733 36.2595 13.68C36.0595 13.4867 35.7795 13.39 35.4195 13.39C34.9861 13.39 34.6195 13.5233 34.3195 13.79C34.0261 14.05 33.8395 14.4267 33.7595 14.92L33.2095 18H32.0795L32.6295 14.92C32.6561 14.7333 32.6695 14.6 32.6695 14.52C32.6695 14.1533 32.5661 13.8733 32.3595 13.68C32.1595 13.4867 31.8795 13.39 31.5195 13.39C31.0861 13.39 30.7195 13.5233 30.4195 13.79C30.1261 14.05 29.9395 14.4267 29.8595 14.92V14.89L29.3095 18H28.1695L29.1395 12.49H30.2795L30.1695 13.13C30.3895 12.9033 30.6528 12.7267 30.9595 12.6C31.2728 12.4667 31.5961 12.4 31.9295 12.4C32.3695 12.4 32.7461 12.4933 33.0595 12.68C33.3795 12.8667 33.6028 13.1367 33.7295 13.49C33.9495 13.1567 34.2528 12.8933 34.6395 12.7C35.0261 12.5 35.4228 12.4 35.8295 12.4ZM40.5301 13.3C40.7701 13.0467 41.0701 12.8333 41.4301 12.66C41.7967 12.4867 42.1901 12.4 42.6101 12.4C43.0301 12.4 43.4034 12.49 43.7301 12.67C44.0567 12.85 44.3101 13.1067 44.4901 13.44C44.6701 13.7733 44.7601 14.1633 44.7601 14.61C44.7601 14.8033 44.7401 15.0067 44.7001 15.22C44.6001 15.7733 44.3967 16.27 44.0901 16.71C43.7901 17.1433 43.4201 17.4833 42.9801 17.73C42.5467 17.97 42.0901 18.09 41.6101 18.09C41.1901 18.09 40.8301 18.0067 40.5301 17.84C40.2367 17.6667 40.0067 17.4533 39.8401 17.2L39.2401 20.62H38.1001L39.5301 12.49H40.6701L40.5301 13.3ZM43.5401 15.22C43.5667 15.0933 43.5801 14.9567 43.5801 14.81C43.5801 14.3633 43.4467 14.0167 43.1801 13.77C42.9201 13.5167 42.5901 13.39 42.1901 13.39C41.9034 13.39 41.6167 13.4633 41.3301 13.61C41.0501 13.7567 40.8067 13.97 40.6001 14.25C40.3934 14.53 40.2567 14.86 40.1901 15.24C40.1634 15.3667 40.1501 15.5033 40.1501 15.65C40.1501 16.0967 40.2801 16.45 40.5401 16.71C40.8067 16.97 41.1367 17.1 41.5301 17.1C41.8234 17.1 42.1101 17.0267 42.3901 16.88C42.6767 16.7267 42.9234 16.5067 43.1301 16.22C43.3367 15.9333 43.4734 15.6 43.5401 15.22ZM47.7874 10.6L46.4774 18H45.3374L46.6474 10.6H47.7874ZM51.3341 12.4C52.0208 12.4 52.5675 12.5933 52.9741 12.98C53.3875 13.3667 53.5941 13.8867 53.5941 14.54C53.5941 14.6933 53.5775 14.8767 53.5441 15.09C53.5175 15.2367 53.4708 15.4167 53.4041 15.63H49.1941C49.1875 15.6767 49.1841 15.7467 49.1841 15.84C49.1841 16.2333 49.3041 16.5467 49.5441 16.78C49.7908 17.0133 50.1108 17.13 50.5041 17.13C51.1241 17.13 51.6008 16.8733 51.9341 16.36H53.1641C52.9108 16.8667 52.5375 17.2833 52.0441 17.61C51.5508 17.93 50.9808 18.09 50.3341 18.09C49.8741 18.09 49.4708 18 49.1241 17.82C48.7775 17.64 48.5075 17.3833 48.3141 17.05C48.1208 16.71 48.0241 16.3133 48.0241 15.86C48.0241 15.6667 48.0441 15.46 48.0841 15.24C48.1841 14.6733 48.3875 14.1767 48.6941 13.75C49.0008 13.3167 49.3808 12.9833 49.8341 12.75C50.2941 12.5167 50.7941 12.4 51.3341 12.4ZM52.4041 14.81C52.4175 14.69 52.4241 14.6033 52.4241 14.55C52.4241 14.1833 52.3008 13.8933 52.0541 13.68C51.8141 13.4667 51.5008 13.36 51.1141 13.36C50.7075 13.36 50.3408 13.49 50.0141 13.75C49.6875 14.01 49.4641 14.3633 49.3441 14.81H52.4041ZM59.0541 15.97C58.7341 15.97 58.4707 15.87 58.2641 15.67C58.0641 15.47 57.9641 15.2167 57.9641 14.91C57.9641 14.63 58.0374 14.3733 58.1841 14.14C58.3307 13.9 58.5241 13.71 58.7641 13.57C59.0041 13.43 59.2541 13.36 59.5141 13.36C59.8407 13.36 60.1074 13.46 60.3141 13.66C60.5207 13.86 60.6241 14.1167 60.6241 14.43C60.6241 14.7033 60.5507 14.96 60.4041 15.2C60.2574 15.4333 60.0607 15.62 59.8141 15.76C59.5741 15.9 59.3207 15.97 59.0541 15.97ZM66.7313 13.3C66.9713 13.0467 67.2713 12.8333 67.6313 12.66C67.9979 12.4867 68.3913 12.4 68.8113 12.4C69.2313 12.4 69.6046 12.49 69.9313 12.67C70.2579 12.85 70.5113 13.1067 70.6913 13.44C70.8713 13.7733 70.9613 14.1633 70.9613 14.61C70.9613 14.8033 70.9413 15.0067 70.9013 15.22C70.8013 15.7733 70.5979 16.27 70.2913 16.71C69.9913 17.1433 69.6213 17.4833 69.1813 17.73C68.7479 17.97 68.2913 18.09 67.8113 18.09C67.3913 18.09 67.0313 18.0067 66.7313 17.84C66.4379 17.6667 66.2079 17.4533 66.0413 17.2L65.4413 20.62H64.3012L65.7313 12.49H66.8713L66.7313 13.3ZM69.7413 15.22C69.7679 15.0933 69.7813 14.9567 69.7813 14.81C69.7813 14.3633 69.6479 14.0167 69.3813 13.77C69.1213 13.5167 68.7913 13.39 68.3913 13.39C68.1046 13.39 67.8179 13.4633 67.5313 13.61C67.2513 13.7567 67.0079 13.97 66.8013 14.25C66.5946 14.53 66.4579 14.86 66.3913 15.24C66.3646 15.3667 66.3513 15.5033 66.3513 15.65C66.3513 16.0967 66.4813 16.45 66.7413 16.71C67.0079 16.97 67.3379 17.1 67.7313 17.1C68.0246 17.1 68.3113 17.0267 68.5913 16.88C68.8779 16.7267 69.1246 16.5067 69.3313 16.22C69.5379 15.9333 69.6746 15.6 69.7413 15.22ZM73.9886 10.6L72.6786 18H71.5386L72.8486 10.6H73.9886ZM74.2853 15.22C74.3853 14.6667 74.5853 14.1767 74.8853 13.75C75.192 13.3233 75.5653 12.9933 76.0053 12.76C76.4453 12.52 76.9053 12.4 77.3853 12.4C77.8186 12.4 78.182 12.4867 78.4753 12.66C78.7686 12.8267 78.9886 13.0367 79.1353 13.29L79.2753 12.49H80.4253L79.4553 18H78.3053L78.4553 17.18C78.2153 17.44 77.912 17.6567 77.5453 17.83C77.1853 18.0033 76.792 18.09 76.3653 18.09C75.952 18.09 75.582 17.9967 75.2553 17.81C74.9353 17.6233 74.682 17.36 74.4953 17.02C74.3153 16.6733 74.2253 16.2767 74.2253 15.83C74.2253 15.63 74.2453 15.4267 74.2853 15.22ZM78.7953 15.24C78.822 15.1133 78.8353 14.9767 78.8353 14.83C78.8353 14.3833 78.702 14.0333 78.4353 13.78C78.1753 13.52 77.8486 13.39 77.4553 13.39C77.162 13.39 76.8753 13.4633 76.5953 13.61C76.3153 13.75 76.072 13.96 75.8653 14.24C75.6586 14.5133 75.522 14.84 75.4553 15.22C75.4286 15.3467 75.4153 15.4833 75.4153 15.63C75.4153 16.0833 75.5453 16.4433 75.8053 16.71C76.072 16.97 76.402 17.1 76.7953 17.1C77.0886 17.1 77.3753 17.0267 77.6553 16.88C77.9353 16.7333 78.1786 16.52 78.3853 16.24C78.592 15.9533 78.7286 15.62 78.7953 15.24ZM82.5427 12.49L83.3527 16.69L85.7027 12.49H86.8827L82.0827 20.59H80.9027L82.4927 17.91L81.2727 12.49H82.5427ZM92.981 12.4C93.4077 12.4 93.771 12.4867 94.071 12.66C94.3777 12.8267 94.5977 13.0367 94.731 13.29L94.871 12.49H96.021L95.041 18.09C94.9477 18.5967 94.761 19.0467 94.481 19.44C94.201 19.84 93.8377 20.1533 93.391 20.38C92.9443 20.6067 92.441 20.72 91.881 20.72C91.3943 20.72 90.9677 20.64 90.601 20.48C90.2343 20.3267 89.9577 20.1033 89.771 19.81C89.5843 19.5167 89.5043 19.17 89.531 18.77H90.661C90.6943 19.0567 90.8377 19.2867 91.091 19.46C91.3443 19.64 91.6677 19.73 92.061 19.73C92.521 19.73 92.9177 19.59 93.251 19.31C93.5843 19.03 93.7977 18.6233 93.891 18.09L94.051 17.17C93.811 17.43 93.511 17.65 93.151 17.83C92.791 18.0033 92.401 18.09 91.981 18.09C91.561 18.09 91.1877 17.9967 90.861 17.81C90.5343 17.6233 90.2777 17.36 90.091 17.02C89.911 16.6733 89.821 16.2767 89.821 15.83C89.821 15.63 89.841 15.4267 89.881 15.22C89.981 14.6667 90.181 14.1767 90.481 13.75C90.7877 13.3233 91.161 12.9933 91.601 12.76C92.041 12.52 92.501 12.4 92.981 12.4ZM94.391 15.24C94.4177 15.1133 94.431 14.9767 94.431 14.83C94.431 14.3833 94.2977 14.0333 94.031 13.78C93.771 13.52 93.4443 13.39 93.051 13.39C92.7577 13.39 92.471 13.4633 92.191 13.61C91.911 13.75 91.6677 13.96 91.461 14.24C91.2543 14.5133 91.1177 14.84 91.051 15.22C91.0243 15.3467 91.011 15.4833 91.011 15.63C91.011 16.0833 91.141 16.4433 91.401 16.71C91.6677 16.97 91.9977 17.1 92.391 17.1C92.6843 17.1 92.971 17.0267 93.251 16.88C93.531 16.7333 93.7743 16.52 93.981 16.24C94.1877 15.9533 94.3243 15.62 94.391 15.24ZM98.9984 10.6L97.6884 18H96.5484L97.8584 10.6H98.9984ZM101.595 18.09C101.128 18.09 100.718 17.9933 100.365 17.8C100.012 17.6067 99.7351 17.3333 99.5351 16.98C99.3417 16.6267 99.2451 16.2233 99.2451 15.77C99.2451 15.15 99.3884 14.5833 99.6751 14.07C99.9684 13.5567 100.368 13.15 100.875 12.85C101.388 12.55 101.958 12.4 102.585 12.4C103.052 12.4 103.465 12.5 103.825 12.7C104.185 12.8933 104.465 13.1667 104.665 13.52C104.872 13.8667 104.975 14.27 104.975 14.73C104.975 15.35 104.825 15.9167 104.525 16.43C104.225 16.9433 103.818 17.35 103.305 17.65C102.792 17.9433 102.222 18.09 101.595 18.09ZM101.735 17.13C102.115 17.13 102.462 17.0233 102.775 16.81C103.095 16.59 103.345 16.3033 103.525 15.95C103.705 15.59 103.795 15.2067 103.795 14.8C103.795 14.34 103.665 13.9867 103.405 13.74C103.145 13.4867 102.818 13.36 102.425 13.36C102.038 13.36 101.692 13.47 101.385 13.69C101.085 13.9033 100.848 14.1933 100.675 14.56C100.508 14.92 100.425 15.3067 100.425 15.72C100.425 16.1667 100.545 16.5133 100.785 16.76C101.032 17.0067 101.348 17.13 101.735 17.13ZM113.932 12.49L111.252 18H110.052L109.672 13.93L107.832 18H106.632L105.882 12.49H107.042L107.422 16.92L109.362 12.49H110.552L110.902 16.9L112.812 12.49H113.932Z" fill="black" fill-opacity="0.5"/>
</svg>
