<svg width="80" height="28" viewBox="0 0 80 28" fill="none" xmlns="http://www.w3.org/2000/svg">
<rect width="80" height="28" rx="5" fill="#E6E6E6"/>
<path d="M12.75 18.09C12.3167 18.09 11.9267 18.0133 11.58 17.86C11.24 17.7 10.97 17.4867 10.77 17.22C10.57 16.9467 10.4633 16.6433 10.45 16.31H11.63C11.65 16.5433 11.76 16.74 11.96 16.9C12.1667 17.0533 12.4233 17.13 12.73 17.13C13.05 17.13 13.2967 17.07 13.47 16.95C13.65 16.8233 13.74 16.6633 13.74 16.47C13.74 16.2633 13.64 16.11 13.44 16.01C13.2467 15.91 12.9367 15.8 12.51 15.68C12.0967 15.5667 11.76 15.4567 11.5 15.35C11.24 15.2433 11.0133 15.08 10.82 14.86C10.6333 14.64 10.54 14.35 10.54 13.99C10.54 13.6967 10.6267 13.43 10.8 13.19C10.9733 12.9433 11.22 12.75 11.54 12.61C11.8667 12.47 12.24 12.4 12.66 12.4C13.2867 12.4 13.79 12.56 14.17 12.88C14.5567 13.1933 14.7633 13.6233 14.79 14.17H13.65C13.63 13.9233 13.53 13.7267 13.35 13.58C13.17 13.4333 12.9267 13.36 12.62 13.36C12.32 13.36 12.09 13.4167 11.93 13.53C11.77 13.6433 11.69 13.7933 11.69 13.98C11.69 14.1267 11.7433 14.25 11.85 14.35C11.9567 14.45 12.0867 14.53 12.24 14.59C12.3933 14.6433 12.62 14.7133 12.92 14.8C13.32 14.9067 13.6467 15.0167 13.9 15.13C14.16 15.2367 14.3833 15.3967 14.57 15.61C14.7567 15.8233 14.8533 16.1067 14.86 16.46C14.86 16.7733 14.7733 17.0533 14.6 17.3C14.4267 17.5467 14.18 17.74 13.86 17.88C13.5467 18.02 13.1767 18.09 12.75 18.09ZM21.0518 12.49L17.6718 20.59H16.4918L17.6118 17.91L15.4418 12.49H16.7118L18.2618 16.69L19.8718 12.49H21.0518ZM23.9121 18.09C23.4788 18.09 23.0888 18.0133 22.7421 17.86C22.4021 17.7 22.1321 17.4867 21.9321 17.22C21.7321 16.9467 21.6254 16.6433 21.6121 16.31H22.7921C22.8121 16.5433 22.9221 16.74 23.1221 16.9C23.3288 17.0533 23.5854 17.13 23.8921 17.13C24.2121 17.13 24.4588 17.07 24.6321 16.95C24.8121 16.8233 24.9021 16.6633 24.9021 16.47C24.9021 16.2633 24.8021 16.11 24.6021 16.01C24.4088 15.91 24.0988 15.8 23.6721 15.68C23.2588 15.5667 22.9221 15.4567 22.6621 15.35C22.4021 15.2433 22.1754 15.08 21.9821 14.86C21.7954 14.64 21.7021 14.35 21.7021 13.99C21.7021 13.6967 21.7888 13.43 21.9621 13.19C22.1354 12.9433 22.3821 12.75 22.7021 12.61C23.0288 12.47 23.4021 12.4 23.8221 12.4C24.4488 12.4 24.9521 12.56 25.3321 12.88C25.7188 13.1933 25.9254 13.6233 25.9521 14.17H24.8121C24.7921 13.9233 24.6921 13.7267 24.5121 13.58C24.3321 13.4333 24.0888 13.36 23.7821 13.36C23.4821 13.36 23.2521 13.4167 23.0921 13.53C22.9321 13.6433 22.8521 13.7933 22.8521 13.98C22.8521 14.1267 22.9054 14.25 23.0121 14.35C23.1188 14.45 23.2488 14.53 23.4021 14.59C23.5554 14.6433 23.7821 14.7133 24.0821 14.8C24.4821 14.9067 24.8088 15.0167 25.0621 15.13C25.3221 15.2367 25.5454 15.3967 25.7321 15.61C25.9188 15.8233 26.0154 16.1067 26.0221 16.46C26.0221 16.7733 25.9354 17.0533 25.7621 17.3C25.5888 17.5467 25.3421 17.74 25.0221 17.88C24.7088 18.02 24.3388 18.09 23.9121 18.09ZM27.8339 11.76C27.6272 11.76 27.4539 11.69 27.3139 11.55C27.1739 11.41 27.1039 11.2367 27.1039 11.03C27.1039 10.8233 27.1739 10.65 27.3139 10.51C27.4539 10.37 27.6272 10.3 27.8339 10.3C28.0339 10.3 28.2039 10.37 28.3439 10.51C28.4839 10.65 28.5539 10.8233 28.5539 11.03C28.5539 11.2367 28.4839 11.41 28.3439 11.55C28.2039 11.69 28.0339 11.76 27.8339 11.76ZM28.3939 12.49V18H27.2539V12.49H28.3939ZM32.6706 12.4C33.104 12.4 33.4906 12.49 33.8306 12.67C34.1773 12.85 34.4473 13.1167 34.6406 13.47C34.834 13.8233 34.9306 14.25 34.9306 14.75V18H33.8006V14.92C33.8006 14.4267 33.6773 14.05 33.4306 13.79C33.184 13.5233 32.8473 13.39 32.4206 13.39C31.994 13.39 31.654 13.5233 31.4006 13.79C31.154 14.05 31.0306 14.4267 31.0306 14.92V18H29.8906V12.49H31.0306V13.12C31.2173 12.8933 31.454 12.7167 31.7406 12.59C32.034 12.4633 32.344 12.4 32.6706 12.4ZM38.6948 13.42H37.6748V18H36.5248V13.42H35.8748V12.49H36.5248V12.1C36.5248 11.4667 36.6914 11.0067 37.0248 10.72C37.3648 10.4267 37.8948 10.28 38.6148 10.28V11.23C38.2681 11.23 38.0248 11.2967 37.8848 11.43C37.7448 11.5567 37.6748 11.78 37.6748 12.1V12.49H38.6948V13.42ZM42.0951 18.09C41.5751 18.09 41.1051 17.9733 40.6851 17.74C40.2651 17.5 39.9351 17.1667 39.6951 16.74C39.4551 16.3067 39.3351 15.8067 39.3351 15.24C39.3351 14.68 39.4584 14.1833 39.7051 13.75C39.9517 13.3167 40.2884 12.9833 40.7151 12.75C41.1417 12.5167 41.6184 12.4 42.1451 12.4C42.6717 12.4 43.1484 12.5167 43.5751 12.75C44.0017 12.9833 44.3384 13.3167 44.5851 13.75C44.8317 14.1833 44.9551 14.68 44.9551 15.24C44.9551 15.8 44.8284 16.2967 44.5751 16.73C44.3217 17.1633 43.9751 17.5 43.5351 17.74C43.1017 17.9733 42.6217 18.09 42.0951 18.09ZM42.0951 17.1C42.3884 17.1 42.6617 17.03 42.9151 16.89C43.1751 16.75 43.3851 16.54 43.5451 16.26C43.7051 15.98 43.7851 15.64 43.7851 15.24C43.7851 14.84 43.7084 14.5033 43.5551 14.23C43.4017 13.95 43.1984 13.74 42.9451 13.6C42.6917 13.46 42.4184 13.39 42.1251 13.39C41.8317 13.39 41.5584 13.46 41.3051 13.6C41.0584 13.74 40.8617 13.95 40.7151 14.23C40.5684 14.5033 40.4951 14.84 40.4951 15.24C40.4951 15.8333 40.6451 16.2933 40.9451 16.62C41.2517 16.94 41.6351 17.1 42.0951 17.1Z" fill="black"/>
</svg>
