<svg width="480" height="360" viewBox="0 0 480 360" fill="none" xmlns="http://www.w3.org/2000/svg">
<path d="M104.581 0H450C466.569 0 480 13.4315 480 30V330C480 346.569 466.569 360 450 360H104.581H30C13.4315 360 0 346.569 0 330V30C0 13.4315 13.4315 0 30 0H104.581Z" fill="#191919"/>
<path d="M202.451 286.88V298H200.627V290.384L197.235 298H195.971L192.563 290.384V298H190.739V286.88H192.707L196.611 295.6L200.499 286.88H202.451ZM212.832 289.184V298H211.008V296.96C210.72 297.323 210.342 297.611 209.872 297.824C209.414 298.027 208.923 298.128 208.4 298.128C207.707 298.128 207.083 297.984 206.528 297.696C205.984 297.408 205.552 296.981 205.232 296.416C204.923 295.851 204.768 295.168 204.768 294.368V289.184H206.576V294.096C206.576 294.885 206.774 295.493 207.168 295.92C207.563 296.336 208.102 296.544 208.784 296.544C209.467 296.544 210.006 296.336 210.4 295.92C210.806 295.493 211.008 294.885 211.008 294.096V289.184H212.832ZM218.439 298.144C217.746 298.144 217.122 298.021 216.567 297.776C216.023 297.52 215.591 297.179 215.271 296.752C214.951 296.315 214.78 295.829 214.759 295.296H216.647C216.679 295.669 216.855 295.984 217.175 296.24C217.506 296.485 217.916 296.608 218.407 296.608C218.919 296.608 219.314 296.512 219.591 296.32C219.879 296.117 220.023 295.861 220.023 295.552C220.023 295.221 219.863 294.976 219.543 294.816C219.234 294.656 218.738 294.48 218.055 294.288C217.394 294.107 216.855 293.931 216.439 293.76C216.023 293.589 215.66 293.328 215.351 292.976C215.052 292.624 214.903 292.16 214.903 291.584C214.903 291.115 215.042 290.688 215.319 290.304C215.596 289.909 215.991 289.6 216.503 289.376C217.026 289.152 217.623 289.04 218.295 289.04C219.298 289.04 220.103 289.296 220.711 289.808C221.33 290.309 221.66 290.997 221.703 291.872H219.879C219.847 291.477 219.687 291.163 219.399 290.928C219.111 290.693 218.722 290.576 218.231 290.576C217.751 290.576 217.383 290.667 217.127 290.848C216.871 291.029 216.743 291.269 216.743 291.568C216.743 291.803 216.828 292 216.999 292.16C217.17 292.32 217.378 292.448 217.623 292.544C217.868 292.629 218.231 292.741 218.711 292.88C219.351 293.051 219.874 293.227 220.279 293.408C220.695 293.579 221.052 293.835 221.351 294.176C221.65 294.517 221.804 294.971 221.815 295.536C221.815 296.037 221.676 296.485 221.399 296.88C221.122 297.275 220.727 297.584 220.215 297.808C219.714 298.032 219.122 298.144 218.439 298.144ZM224.714 288.016C224.383 288.016 224.106 287.904 223.882 287.68C223.658 287.456 223.546 287.179 223.546 286.848C223.546 286.517 223.658 286.24 223.882 286.016C224.106 285.792 224.383 285.68 224.714 285.68C225.034 285.68 225.306 285.792 225.53 286.016C225.754 286.24 225.866 286.517 225.866 286.848C225.866 287.179 225.754 287.456 225.53 287.68C225.306 287.904 225.034 288.016 224.714 288.016ZM225.61 289.184V298H223.786V289.184H225.61ZM227.397 293.584C227.397 292.677 227.578 291.883 227.941 291.2C228.314 290.507 228.826 289.973 229.477 289.6C230.127 289.227 230.874 289.04 231.717 289.04C232.783 289.04 233.663 289.296 234.357 289.808C235.061 290.309 235.535 291.029 235.781 291.968H233.813C233.653 291.531 233.397 291.189 233.045 290.944C232.693 290.699 232.25 290.576 231.717 290.576C230.97 290.576 230.373 290.843 229.925 291.376C229.487 291.899 229.269 292.635 229.269 293.584C229.269 294.533 229.487 295.275 229.925 295.808C230.373 296.341 230.97 296.608 231.717 296.608C232.773 296.608 233.471 296.144 233.813 295.216H235.781C235.525 296.112 235.045 296.827 234.341 297.36C233.637 297.883 232.762 298.144 231.717 298.144C230.874 298.144 230.127 297.957 229.477 297.584C228.826 297.2 228.314 296.667 227.941 295.984C227.578 295.291 227.397 294.491 227.397 293.584ZM249.531 290.192C249.531 290.757 249.397 291.291 249.131 291.792C248.864 292.293 248.437 292.704 247.851 293.024C247.264 293.333 246.512 293.488 245.595 293.488H243.579V298H241.755V286.88H245.595C246.448 286.88 247.168 287.029 247.755 287.328C248.352 287.616 248.795 288.011 249.083 288.512C249.381 289.013 249.531 289.573 249.531 290.192ZM245.595 292C246.288 292 246.805 291.845 247.147 291.536C247.488 291.216 247.659 290.768 247.659 290.192C247.659 288.976 246.971 288.368 245.595 288.368H243.579V292H245.595ZM253.094 286.16V298H251.27V286.16H253.094ZM254.881 293.552C254.881 292.667 255.062 291.883 255.425 291.2C255.798 290.517 256.3 289.989 256.929 289.616C257.569 289.232 258.273 289.04 259.041 289.04C259.734 289.04 260.337 289.179 260.849 289.456C261.372 289.723 261.788 290.059 262.097 290.464V289.184H263.937V298H262.097V296.688C261.788 297.104 261.366 297.451 260.833 297.728C260.3 298.005 259.692 298.144 259.009 298.144C258.252 298.144 257.558 297.952 256.929 297.568C256.3 297.173 255.798 296.629 255.425 295.936C255.062 295.232 254.881 294.437 254.881 293.552ZM262.097 293.584C262.097 292.976 261.969 292.448 261.713 292C261.468 291.552 261.142 291.211 260.737 290.976C260.332 290.741 259.894 290.624 259.425 290.624C258.956 290.624 258.518 290.741 258.113 290.976C257.708 291.2 257.377 291.536 257.121 291.984C256.876 292.421 256.753 292.944 256.753 293.552C256.753 294.16 256.876 294.693 257.121 295.152C257.377 295.611 257.708 295.963 258.113 296.208C258.529 296.443 258.966 296.56 259.425 296.56C259.894 296.56 260.332 296.443 260.737 296.208C261.142 295.973 261.468 295.632 261.713 295.184C261.969 294.725 262.097 294.192 262.097 293.584ZM274.269 289.184L268.861 302.144H266.973L268.765 297.856L265.293 289.184H267.325L269.805 295.904L272.381 289.184H274.269ZM283.725 293.376C283.725 293.707 283.704 294.005 283.661 294.272H276.925C276.979 294.976 277.24 295.541 277.709 295.968C278.179 296.395 278.755 296.608 279.437 296.608C280.419 296.608 281.112 296.197 281.517 295.376H283.485C283.219 296.187 282.733 296.853 282.029 297.376C281.336 297.888 280.472 298.144 279.437 298.144C278.595 298.144 277.837 297.957 277.165 297.584C276.504 297.2 275.981 296.667 275.597 295.984C275.224 295.291 275.037 294.491 275.037 293.584C275.037 292.677 275.219 291.883 275.581 291.2C275.955 290.507 276.472 289.973 277.133 289.6C277.805 289.227 278.573 289.04 279.437 289.04C280.269 289.04 281.011 289.221 281.661 289.584C282.312 289.947 282.819 290.459 283.181 291.12C283.544 291.771 283.725 292.523 283.725 293.376ZM281.821 292.8C281.811 292.128 281.571 291.589 281.101 291.184C280.632 290.779 280.051 290.576 279.357 290.576C278.728 290.576 278.189 290.779 277.741 291.184C277.293 291.579 277.027 292.117 276.941 292.8H281.821ZM287.344 290.464C287.611 290.016 287.963 289.669 288.4 289.424C288.848 289.168 289.376 289.04 289.984 289.04V290.928H289.52C288.806 290.928 288.262 291.109 287.888 291.472C287.526 291.835 287.344 292.464 287.344 293.36V298H285.52V289.184H287.344V290.464Z" fill="white"/>
</svg>
