<svg width="450" height="360" viewBox="0 0 450 360" fill="none" xmlns="http://www.w3.org/2000/svg">
<rect width="450" height="40" rx="15" fill="black" fill-opacity="0.1"/>
<path d="M22.268 15.66V24H20.9V15.66H22.268ZM25.6601 18.504V22.164C25.6601 22.412 25.7161 22.592 25.8281 22.704C25.9481 22.808 26.1481 22.86 26.4281 22.86H27.2681V24H26.1881C25.5721 24 25.1001 23.856 24.7721 23.568C24.4441 23.28 24.2801 22.812 24.2801 22.164V18.504H23.5001V17.388H24.2801V15.744H25.6601V17.388H27.2681V18.504H25.6601ZM28.7449 15.66H30.2329L28.9729 18.516H28.0129L28.7449 15.66ZM33.8352 24.108C33.3152 24.108 32.8472 24.016 32.4312 23.832C32.0232 23.64 31.6992 23.384 31.4592 23.064C31.2192 22.736 31.0912 22.372 31.0752 21.972H32.4912C32.5152 22.252 32.6472 22.488 32.8872 22.68C33.1352 22.864 33.4432 22.956 33.8112 22.956C34.1952 22.956 34.4912 22.884 34.6992 22.74C34.9152 22.588 35.0232 22.396 35.0232 22.164C35.0232 21.916 34.9032 21.732 34.6632 21.612C34.4312 21.492 34.0592 21.36 33.5472 21.216C33.0512 21.08 32.6472 20.948 32.3352 20.82C32.0232 20.692 31.7512 20.496 31.5192 20.232C31.2952 19.968 31.1832 19.62 31.1832 19.188C31.1832 18.836 31.2872 18.516 31.4952 18.228C31.7032 17.932 31.9992 17.7 32.3832 17.532C32.7752 17.364 33.2232 17.28 33.7272 17.28C34.4792 17.28 35.0832 17.472 35.5392 17.856C36.0032 18.232 36.2512 18.748 36.2832 19.404H34.9152C34.8912 19.108 34.7712 18.872 34.5552 18.696C34.3392 18.52 34.0472 18.432 33.6792 18.432C33.3192 18.432 33.0432 18.5 32.8512 18.636C32.6592 18.772 32.5632 18.952 32.5632 19.176C32.5632 19.352 32.6272 19.5 32.7552 19.62C32.8832 19.74 33.0392 19.836 33.2232 19.908C33.4072 19.972 33.6792 20.056 34.0392 20.16C34.5192 20.288 34.9112 20.42 35.2152 20.556C35.5272 20.684 35.7952 20.876 36.0192 21.132C36.2432 21.388 36.3592 21.728 36.3672 22.152C36.3672 22.528 36.2632 22.864 36.0552 23.16C35.8472 23.456 35.5512 23.688 35.1672 23.856C34.7912 24.024 34.3472 24.108 33.8352 24.108ZM40.5065 20.664C40.5065 20 40.6425 19.412 40.9145 18.9C41.1945 18.388 41.5705 17.992 42.0425 17.712C42.5225 17.424 43.0505 17.28 43.6265 17.28C44.1465 17.28 44.5985 17.384 44.9825 17.592C45.3745 17.792 45.6865 18.044 45.9185 18.348V17.388H47.2985V24H45.9185V23.016C45.6865 23.328 45.3705 23.588 44.9705 23.796C44.5705 24.004 44.1145 24.108 43.6025 24.108C43.0345 24.108 42.5145 23.964 42.0425 23.676C41.5705 23.38 41.1945 22.972 40.9145 22.452C40.6425 21.924 40.5065 21.328 40.5065 20.664ZM45.9185 20.688C45.9185 20.232 45.8225 19.836 45.6305 19.5C45.4465 19.164 45.2025 18.908 44.8985 18.732C44.5945 18.556 44.2665 18.468 43.9145 18.468C43.5625 18.468 43.2345 18.556 42.9305 18.732C42.6265 18.9 42.3785 19.152 42.1865 19.488C42.0025 19.816 41.9105 20.208 41.9105 20.664C41.9105 21.12 42.0025 21.52 42.1865 21.864C42.3785 22.208 42.6265 22.472 42.9305 22.656C43.2425 22.832 43.5705 22.92 43.9145 22.92C44.2665 22.92 44.5945 22.832 44.8985 22.656C45.2025 22.48 45.4465 22.224 45.6305 21.888C45.8225 21.544 45.9185 21.144 45.9185 20.688ZM50.4633 15.12V24H49.0953V15.12H50.4633ZM53.6274 15.12V24H52.2594V15.12H53.6274ZM61.2046 17.28C61.7166 17.28 62.1686 17.384 62.5606 17.592C62.9606 17.792 63.2726 18.044 63.4966 18.348V17.388H64.8766V24.108C64.8766 24.716 64.7486 25.256 64.4926 25.728C64.2366 26.208 63.8646 26.584 63.3766 26.856C62.8966 27.128 62.3206 27.264 61.6486 27.264C60.7526 27.264 60.0086 27.052 59.4166 26.628C58.8246 26.212 58.4886 25.644 58.4086 24.924H59.7646C59.8686 25.268 60.0886 25.544 60.4246 25.752C60.7686 25.968 61.1766 26.076 61.6486 26.076C62.2006 26.076 62.6446 25.908 62.9806 25.572C63.3246 25.236 63.4966 24.748 63.4966 24.108V23.004C63.2646 23.316 62.9486 23.58 62.5486 23.796C62.1566 24.004 61.7086 24.108 61.2046 24.108C60.6286 24.108 60.1006 23.964 59.6206 23.676C59.1486 23.38 58.7726 22.972 58.4926 22.452C58.2206 21.924 58.0846 21.328 58.0846 20.664C58.0846 20 58.2206 19.412 58.4926 18.9C58.7726 18.388 59.1486 17.992 59.6206 17.712C60.1006 17.424 60.6286 17.28 61.2046 17.28ZM63.4966 20.688C63.4966 20.232 63.4006 19.836 63.2086 19.5C63.0246 19.164 62.7806 18.908 62.4766 18.732C62.1726 18.556 61.8446 18.468 61.4926 18.468C61.1406 18.468 60.8126 18.556 60.5086 18.732C60.2046 18.9 59.9566 19.152 59.7646 19.488C59.5806 19.816 59.4886 20.208 59.4886 20.664C59.4886 21.12 59.5806 21.52 59.7646 21.864C59.9566 22.208 60.2046 22.472 60.5086 22.656C60.8206 22.832 61.1486 22.92 61.4926 22.92C61.8446 22.92 62.1726 22.832 62.4766 22.656C62.7806 22.48 63.0246 22.224 63.2086 21.888C63.4006 21.544 63.4966 21.144 63.4966 20.688ZM69.5414 24.108C68.9174 24.108 68.3534 23.968 67.8494 23.688C67.3454 23.4 66.9494 23 66.6614 22.488C66.3734 21.968 66.2294 21.368 66.2294 20.688C66.2294 20.016 66.3774 19.42 66.6734 18.9C66.9694 18.38 67.3734 17.98 67.8854 17.7C68.3974 17.42 68.9694 17.28 69.6014 17.28C70.2334 17.28 70.8054 17.42 71.3174 17.7C71.8294 17.98 72.2334 18.38 72.5294 18.9C72.8254 19.42 72.9734 20.016 72.9734 20.688C72.9734 21.36 72.8214 21.956 72.5174 22.476C72.2134 22.996 71.7974 23.4 71.2694 23.688C70.7494 23.968 70.1734 24.108 69.5414 24.108ZM69.5414 22.92C69.8934 22.92 70.2214 22.836 70.5254 22.668C70.8374 22.5 71.0894 22.248 71.2814 21.912C71.4734 21.576 71.5694 21.168 71.5694 20.688C71.5694 20.208 71.4774 19.804 71.2934 19.476C71.1094 19.14 70.8654 18.888 70.5614 18.72C70.2574 18.552 69.9294 18.468 69.5774 18.468C69.2254 18.468 68.8974 18.552 68.5934 18.72C68.2974 18.888 68.0614 19.14 67.8854 19.476C67.7094 19.804 67.6214 20.208 67.6214 20.688C67.6214 21.4 67.8014 21.952 68.1614 22.344C68.5294 22.728 68.9894 22.92 69.5414 22.92ZM77.1938 24.108C76.5698 24.108 76.0058 23.968 75.5018 23.688C74.9978 23.4 74.6018 23 74.3138 22.488C74.0258 21.968 73.8818 21.368 73.8818 20.688C73.8818 20.016 74.0298 19.42 74.3258 18.9C74.6218 18.38 75.0258 17.98 75.5378 17.7C76.0498 17.42 76.6218 17.28 77.2538 17.28C77.8858 17.28 78.4578 17.42 78.9698 17.7C79.4818 17.98 79.8858 18.38 80.1818 18.9C80.4778 19.42 80.6258 20.016 80.6258 20.688C80.6258 21.36 80.4738 21.956 80.1698 22.476C79.8658 22.996 79.4498 23.4 78.9218 23.688C78.4018 23.968 77.8258 24.108 77.1938 24.108ZM77.1938 22.92C77.5458 22.92 77.8738 22.836 78.1778 22.668C78.4898 22.5 78.7418 22.248 78.9338 21.912C79.1258 21.576 79.2218 21.168 79.2218 20.688C79.2218 20.208 79.1298 19.804 78.9458 19.476C78.7618 19.14 78.5178 18.888 78.2138 18.72C77.9098 18.552 77.5818 18.468 77.2298 18.468C76.8778 18.468 76.5498 18.552 76.2458 18.72C75.9498 18.888 75.7138 19.14 75.5378 19.476C75.3618 19.804 75.2738 20.208 75.2738 20.688C75.2738 21.4 75.4538 21.952 75.8138 22.344C76.1818 22.728 76.6418 22.92 77.1938 22.92ZM81.5221 20.664C81.5221 20 81.6581 19.412 81.9301 18.9C82.2101 18.388 82.5861 17.992 83.0581 17.712C83.5381 17.424 84.0701 17.28 84.6541 17.28C85.0861 17.28 85.5101 17.376 85.9261 17.568C86.3501 17.752 86.6861 18 86.9341 18.312V15.12H88.3141V24H86.9341V23.004C86.7101 23.324 86.3981 23.588 85.9981 23.796C85.6061 24.004 85.1541 24.108 84.6421 24.108C84.0661 24.108 83.5381 23.964 83.0581 23.676C82.5861 23.38 82.2101 22.972 81.9301 22.452C81.6581 21.924 81.5221 21.328 81.5221 20.664ZM86.9341 20.688C86.9341 20.232 86.8381 19.836 86.6461 19.5C86.4621 19.164 86.2181 18.908 85.9141 18.732C85.6101 18.556 85.2821 18.468 84.9301 18.468C84.5781 18.468 84.2501 18.556 83.9461 18.732C83.6421 18.9 83.3941 19.152 83.2021 19.488C83.0181 19.816 82.9261 20.208 82.9261 20.664C82.9261 21.12 83.0181 21.52 83.2021 21.864C83.3941 22.208 83.6421 22.472 83.9461 22.656C84.2581 22.832 84.5861 22.92 84.9301 22.92C85.2821 22.92 85.6101 22.832 85.9141 22.656C86.2181 22.48 86.4621 22.224 86.6461 21.888C86.8381 21.544 86.9341 21.144 86.9341 20.688Z" fill="black"/>
<path d="M234.54 17.05V22.06C234.54 22.68 234.35 23.17 233.97 23.53C233.597 23.89 233.103 24.07 232.49 24.07C231.877 24.07 231.38 23.89 231 23.53C230.627 23.17 230.44 22.68 230.44 22.06H231.59C231.597 22.3667 231.673 22.61 231.82 22.79C231.973 22.97 232.197 23.06 232.49 23.06C232.783 23.06 233.007 22.97 233.16 22.79C233.313 22.6033 233.39 22.36 233.39 22.06V17.05H234.54ZM238.785 24.09C238.265 24.09 237.795 23.9733 237.375 23.74C236.955 23.5 236.625 23.1667 236.385 22.74C236.145 22.3067 236.025 21.8067 236.025 21.24C236.025 20.68 236.148 20.1833 236.395 19.75C236.641 19.3167 236.978 18.9833 237.405 18.75C237.831 18.5167 238.308 18.4 238.835 18.4C239.361 18.4 239.838 18.5167 240.265 18.75C240.691 18.9833 241.028 19.3167 241.275 19.75C241.521 20.1833 241.645 20.68 241.645 21.24C241.645 21.8 241.518 22.2967 241.265 22.73C241.011 23.1633 240.665 23.5 240.225 23.74C239.791 23.9733 239.311 24.09 238.785 24.09ZM238.785 23.1C239.078 23.1 239.351 23.03 239.605 22.89C239.865 22.75 240.075 22.54 240.235 22.26C240.395 21.98 240.475 21.64 240.475 21.24C240.475 20.84 240.398 20.5033 240.245 20.23C240.091 19.95 239.888 19.74 239.635 19.6C239.381 19.46 239.108 19.39 238.815 19.39C238.521 19.39 238.248 19.46 237.995 19.6C237.748 19.74 237.551 19.95 237.405 20.23C237.258 20.5033 237.185 20.84 237.185 21.24C237.185 21.8333 237.335 22.2933 237.635 22.62C237.941 22.94 238.325 23.1 238.785 23.1ZM243.911 19.29C244.078 19.01 244.298 18.7933 244.571 18.64C244.851 18.48 245.181 18.4 245.561 18.4V19.58H245.271C244.825 19.58 244.485 19.6933 244.251 19.92C244.025 20.1467 243.911 20.54 243.911 21.1V24H242.771V18.49H243.911V19.29ZM253.279 18.4C253.713 18.4 254.099 18.49 254.439 18.67C254.786 18.85 255.056 19.1167 255.249 19.47C255.449 19.8233 255.549 20.25 255.549 20.75V24H254.419V20.92C254.419 20.4267 254.296 20.05 254.049 19.79C253.803 19.5233 253.466 19.39 253.039 19.39C252.613 19.39 252.273 19.5233 252.019 19.79C251.773 20.05 251.649 20.4267 251.649 20.92V24H250.519V20.92C250.519 20.4267 250.396 20.05 250.149 19.79C249.903 19.5233 249.566 19.39 249.139 19.39C248.713 19.39 248.373 19.5233 248.119 19.79C247.873 20.05 247.749 20.4267 247.749 20.92V24H246.609V18.49H247.749V19.12C247.936 18.8933 248.173 18.7167 248.459 18.59C248.746 18.4633 249.053 18.4 249.379 18.4C249.819 18.4 250.213 18.4933 250.559 18.68C250.906 18.8667 251.173 19.1367 251.359 19.49C251.526 19.1567 251.786 18.8933 252.139 18.7C252.493 18.5 252.873 18.4 253.279 18.4Z" fill="#808080"/>
<path d="M410.761 22.45C411.401 21.8967 411.905 21.4433 412.271 21.09C412.645 20.73 412.955 20.3567 413.201 19.97C413.448 19.5833 413.571 19.1967 413.571 18.81C413.571 18.41 413.475 18.0967 413.281 17.87C413.095 17.6433 412.798 17.53 412.391 17.53C411.998 17.53 411.691 17.6567 411.471 17.91C411.258 18.1567 411.145 18.49 411.131 18.91H410.031C410.051 18.15 410.278 17.57 410.711 17.17C411.151 16.7633 411.708 16.56 412.381 16.56C413.108 16.56 413.675 16.76 414.081 17.16C414.495 17.56 414.701 18.0933 414.701 18.76C414.701 19.24 414.578 19.7033 414.331 20.15C414.091 20.59 413.801 20.9867 413.461 21.34C413.128 21.6867 412.701 22.09 412.181 22.55L411.731 22.95H414.901V23.9H410.041V23.07L410.761 22.45ZM416.513 24.07C416.306 24.07 416.133 24 415.993 23.86C415.853 23.72 415.783 23.5467 415.783 23.34C415.783 23.1333 415.853 22.96 415.993 22.82C416.133 22.68 416.306 22.61 416.513 22.61C416.713 22.61 416.883 22.68 417.023 22.82C417.163 22.96 417.233 23.1333 417.233 23.34C417.233 23.5467 417.163 23.72 417.023 23.86C416.883 24 416.713 24.07 416.513 24.07ZM416.513 19.87C416.306 19.87 416.133 19.8 415.993 19.66C415.853 19.52 415.783 19.3467 415.783 19.14C415.783 18.9333 415.853 18.76 415.993 18.62C416.133 18.48 416.306 18.41 416.513 18.41C416.713 18.41 416.883 18.48 417.023 18.62C417.163 18.76 417.233 18.9333 417.233 19.14C417.233 19.3467 417.163 19.52 417.023 19.66C416.883 19.8 416.713 19.87 416.513 19.87ZM418.214 22.48V21.62L421.574 16.8H422.954V21.49H423.884V22.48H422.954V24H421.834V22.48H418.214ZM421.884 17.96L419.524 21.49H421.884V17.96ZM425.459 22.45C426.099 21.8967 426.602 21.4433 426.969 21.09C427.342 20.73 427.652 20.3567 427.899 19.97C428.145 19.5833 428.269 19.1967 428.269 18.81C428.269 18.41 428.172 18.0967 427.979 17.87C427.792 17.6433 427.495 17.53 427.089 17.53C426.695 17.53 426.389 17.6567 426.169 17.91C425.955 18.1567 425.842 18.49 425.829 18.91H424.729C424.749 18.15 424.975 17.57 425.409 17.17C425.849 16.7633 426.405 16.56 427.079 16.56C427.805 16.56 428.372 16.76 428.779 17.16C429.192 17.56 429.399 18.0933 429.399 18.76C429.399 19.24 429.275 19.7033 429.029 20.15C428.789 20.59 428.499 20.9867 428.159 21.34C427.825 21.6867 427.399 22.09 426.879 22.55L426.429 22.95H429.599V23.9H424.739V23.07L425.459 22.45Z" fill="#808080"/>
</svg>
