<svg width="480" height="360" viewBox="0 0 480 360" fill="none" xmlns="http://www.w3.org/2000/svg">
<path d="M0 0H130C141.046 0 150 8.95431 150 20V340C150 351.046 141.046 360 130 360H0V0Z" fill="#191919"/>
<path d="M56.336 31H54.512L49.024 22.696V31H47.2V19.864H49.024L54.512 28.152V19.864H56.336V31ZM62.5553 31.144C61.7233 31.144 60.9713 30.9573 60.2993 30.584C59.6273 30.2 59.0993 29.6667 58.7153 28.984C58.3313 28.2907 58.1393 27.4907 58.1393 26.584C58.1393 25.688 58.3366 24.8933 58.7313 24.2C59.1259 23.5067 59.6646 22.9733 60.3473 22.6C61.0299 22.2267 61.7926 22.04 62.6353 22.04C63.4779 22.04 64.2406 22.2267 64.9233 22.6C65.6059 22.9733 66.1446 23.5067 66.5393 24.2C66.9339 24.8933 67.1313 25.688 67.1313 26.584C67.1313 27.48 66.9286 28.2747 66.5233 28.968C66.1179 29.6613 65.5633 30.2 64.8593 30.584C64.1659 30.9573 63.3979 31.144 62.5553 31.144ZM62.5553 29.56C63.0246 29.56 63.4619 29.448 63.8673 29.224C64.2833 29 64.6193 28.664 64.8753 28.216C65.1313 27.768 65.2593 27.224 65.2593 26.584C65.2593 25.944 65.1366 25.4053 64.8913 24.968C64.6459 24.52 64.3206 24.184 63.9153 23.96C63.5099 23.736 63.0726 23.624 62.6033 23.624C62.1339 23.624 61.6966 23.736 61.2913 23.96C60.8966 24.184 60.5819 24.52 60.3473 24.968C60.1126 25.4053 59.9953 25.944 59.9953 26.584C59.9953 27.5333 60.2353 28.2693 60.7153 28.792C61.2059 29.304 61.8193 29.56 62.5553 29.56ZM71.0624 23.672V28.552C71.0624 28.8827 71.137 29.1227 71.2864 29.272C71.4464 29.4107 71.713 29.48 72.0864 29.48H73.2064V31H71.7664C70.945 31 70.3157 30.808 69.8784 30.424C69.441 30.04 69.2224 29.416 69.2224 28.552V23.672H68.1824V22.184H69.2224V19.992H71.0624V22.184H73.2064V23.672H71.0624ZM82.9675 26.376C82.9675 26.7067 82.9462 27.0053 82.9035 27.272H76.1675C76.2208 27.976 76.4822 28.5413 76.9515 28.968C77.4208 29.3947 77.9968 29.608 78.6795 29.608C79.6608 29.608 80.3542 29.1973 80.7595 28.376H82.7275C82.4608 29.1867 81.9755 29.8533 81.2715 30.376C80.5782 30.888 79.7142 31.144 78.6795 31.144C77.8368 31.144 77.0795 30.9573 76.4075 30.584C75.7462 30.2 75.2235 29.6667 74.8395 28.984C74.4662 28.2907 74.2795 27.4907 74.2795 26.584C74.2795 25.6773 74.4608 24.8827 74.8235 24.2C75.1968 23.5067 75.7142 22.9733 76.3755 22.6C77.0475 22.2267 77.8155 22.04 78.6795 22.04C79.5115 22.04 80.2528 22.2213 80.9035 22.584C81.5542 22.9467 82.0608 23.4587 82.4235 24.12C82.7862 24.7707 82.9675 25.5227 82.9675 26.376ZM81.0635 25.8C81.0528 25.128 80.8128 24.5893 80.3435 24.184C79.8742 23.7787 79.2928 23.576 78.5995 23.576C77.9702 23.576 77.4315 23.7787 76.9835 24.184C76.5355 24.5787 76.2688 25.1173 76.1835 25.8H81.0635ZM86.5865 23.48C86.8958 23.0747 87.3172 22.7333 87.8505 22.456C88.3838 22.1787 88.9865 22.04 89.6585 22.04C90.4265 22.04 91.1252 22.232 91.7545 22.616C92.3945 22.9893 92.8958 23.5173 93.2585 24.2C93.6212 24.8827 93.8025 25.6667 93.8025 26.552C93.8025 27.4373 93.6212 28.232 93.2585 28.936C92.8958 29.6293 92.3945 30.1733 91.7545 30.568C91.1252 30.952 90.4265 31.144 89.6585 31.144C88.9865 31.144 88.3892 31.0107 87.8665 30.744C87.3438 30.4667 86.9172 30.1253 86.5865 29.72V35.192H84.7625V22.184H86.5865V23.48ZM91.9465 26.552C91.9465 25.944 91.8185 25.4213 91.5625 24.984C91.3172 24.536 90.9865 24.2 90.5705 23.976C90.1652 23.7413 89.7278 23.624 89.2585 23.624C88.7998 23.624 88.3625 23.7413 87.9465 23.976C87.5412 24.2107 87.2105 24.552 86.9545 25C86.7092 25.448 86.5865 25.976 86.5865 26.584C86.5865 27.192 86.7092 27.7253 86.9545 28.184C87.2105 28.632 87.5412 28.9733 87.9465 29.208C88.3625 29.4427 88.7998 29.56 89.2585 29.56C89.7278 29.56 90.1652 29.4427 90.5705 29.208C90.9865 28.9627 91.3172 28.6107 91.5625 28.152C91.8185 27.6933 91.9465 27.16 91.9465 26.552ZM94.9983 26.552C94.9983 25.6667 95.1796 24.8827 95.5423 24.2C95.9156 23.5173 96.4169 22.9893 97.0463 22.616C97.6863 22.232 98.3903 22.04 99.1583 22.04C99.8516 22.04 100.454 22.1787 100.966 22.456C101.489 22.7227 101.905 23.0587 102.214 23.464V22.184H104.054V31H102.214V29.688C101.905 30.104 101.484 30.4507 100.95 30.728C100.417 31.0053 99.8089 31.144 99.1263 31.144C98.3689 31.144 97.6756 30.952 97.0463 30.568C96.4169 30.1733 95.9156 29.6293 95.5423 28.936C95.1796 28.232 94.9983 27.4373 94.9983 26.552ZM102.214 26.584C102.214 25.976 102.086 25.448 101.83 25C101.585 24.552 101.26 24.2107 100.854 23.976C100.449 23.7413 100.012 23.624 99.5423 23.624C99.0729 23.624 98.6356 23.7413 98.2303 23.976C97.8249 24.2 97.4943 24.536 97.2383 24.984C96.9929 25.4213 96.8703 25.944 96.8703 26.552C96.8703 27.16 96.9929 27.6933 97.2383 28.152C97.4943 28.6107 97.8249 28.9627 98.2303 29.208C98.6463 29.4427 99.0836 29.56 99.5423 29.56C100.012 29.56 100.449 29.4427 100.854 29.208C101.26 28.9733 101.585 28.632 101.83 28.184C102.086 27.7253 102.214 27.192 102.214 26.584ZM105.842 26.552C105.842 25.6667 106.023 24.8827 106.386 24.2C106.759 23.5173 107.261 22.9893 107.89 22.616C108.53 22.232 109.239 22.04 110.018 22.04C110.594 22.04 111.159 22.168 111.714 22.424C112.279 22.6693 112.727 23 113.058 23.416V19.16H114.898V31H113.058V29.672C112.759 30.0987 112.343 30.4507 111.81 30.728C111.287 31.0053 110.685 31.144 110.002 31.144C109.234 31.144 108.53 30.952 107.89 30.568C107.261 30.1733 106.759 29.6293 106.386 28.936C106.023 28.232 105.842 27.4373 105.842 26.552ZM113.058 26.584C113.058 25.976 112.93 25.448 112.674 25C112.429 24.552 112.103 24.2107 111.698 23.976C111.293 23.7413 110.855 23.624 110.386 23.624C109.917 23.624 109.479 23.7413 109.074 23.976C108.669 24.2 108.338 24.536 108.082 24.984C107.837 25.4213 107.714 25.944 107.714 26.552C107.714 27.16 107.837 27.6933 108.082 28.152C108.338 28.6107 108.669 28.9627 109.074 29.208C109.49 29.4427 109.927 29.56 110.386 29.56C110.855 29.56 111.293 29.4427 111.698 29.208C112.103 28.9733 112.429 28.632 112.674 28.184C112.93 27.7253 113.058 27.192 113.058 26.584Z" fill="white"/>
<path d="M9 64.9367C9 64.3432 9.26365 63.7803 9.71963 63.4003L13.7196 60.067C14.4613 59.4489 15.5387 59.4489 16.2804 60.067L20.2804 63.4003C20.7364 63.7803 21 64.3432 21 64.9367V69C21 70.1046 20.1046 71 19 71H17V67C17 66.4477 16.5523 66 16 66H14C13.4477 66 13 66.4477 13 67V71H11C9.89543 71 9 70.1046 9 69V64.9367Z" fill="white"/>
<path d="M37.56 60.66V69H36.192V65.352H32.268V69H30.9V60.66H32.268V64.236H36.192V60.66H37.56ZM42.2289 69.108C41.6049 69.108 41.0409 68.968 40.5369 68.688C40.0329 68.4 39.6369 68 39.3489 67.488C39.0609 66.968 38.9169 66.368 38.9169 65.688C38.9169 65.016 39.0649 64.42 39.3609 63.9C39.6569 63.38 40.0609 62.98 40.5729 62.7C41.0849 62.42 41.6569 62.28 42.2889 62.28C42.9209 62.28 43.4929 62.42 44.0049 62.7C44.5169 62.98 44.9209 63.38 45.2169 63.9C45.5129 64.42 45.6609 65.016 45.6609 65.688C45.6609 66.36 45.5089 66.956 45.2049 67.476C44.9009 67.996 44.4849 68.4 43.9569 68.688C43.4369 68.968 42.8609 69.108 42.2289 69.108ZM42.2289 67.92C42.5809 67.92 42.9089 67.836 43.2129 67.668C43.5249 67.5 43.7769 67.248 43.9689 66.912C44.1609 66.576 44.2569 66.168 44.2569 65.688C44.2569 65.208 44.1649 64.804 43.9809 64.476C43.7969 64.14 43.5529 63.888 43.2489 63.72C42.9449 63.552 42.6169 63.468 42.2649 63.468C41.9129 63.468 41.5849 63.552 41.2809 63.72C40.9849 63.888 40.7489 64.14 40.5729 64.476C40.3969 64.804 40.3089 65.208 40.3089 65.688C40.3089 66.4 40.4889 66.952 40.8489 67.344C41.2169 67.728 41.6769 67.92 42.2289 67.92ZM55.0173 62.28C55.5373 62.28 56.0013 62.388 56.4093 62.604C56.8253 62.82 57.1493 63.14 57.3813 63.564C57.6213 63.988 57.7413 64.5 57.7413 65.1V69H56.3853V65.304C56.3853 64.712 56.2373 64.26 55.9413 63.948C55.6453 63.628 55.2413 63.468 54.7293 63.468C54.2173 63.468 53.8093 63.628 53.5053 63.948C53.2093 64.26 53.0613 64.712 53.0613 65.304V69H51.7053V65.304C51.7053 64.712 51.5573 64.26 51.2613 63.948C50.9653 63.628 50.5613 63.468 50.0493 63.468C49.5373 63.468 49.1293 63.628 48.8253 63.948C48.5293 64.26 48.3813 64.712 48.3813 65.304V69H47.0133V62.388H48.3813V63.144C48.6053 62.872 48.8893 62.66 49.2333 62.508C49.5773 62.356 49.9453 62.28 50.3373 62.28C50.8653 62.28 51.3373 62.392 51.7533 62.616C52.1693 62.84 52.4893 63.164 52.7133 63.588C52.9133 63.188 53.2253 62.872 53.6493 62.64C54.0733 62.4 54.5293 62.28 55.0173 62.28ZM65.542 65.532C65.542 65.78 65.526 66.004 65.494 66.204H60.442C60.482 66.732 60.678 67.156 61.03 67.476C61.382 67.796 61.814 67.956 62.326 67.956C63.062 67.956 63.582 67.648 63.886 67.032H65.362C65.162 67.64 64.798 68.14 64.27 68.532C63.75 68.916 63.102 69.108 62.326 69.108C61.694 69.108 61.126 68.968 60.622 68.688C60.126 68.4 59.734 68 59.446 67.488C59.166 66.968 59.026 66.368 59.026 65.688C59.026 65.008 59.162 64.412 59.434 63.9C59.714 63.38 60.102 62.98 60.598 62.7C61.102 62.42 61.678 62.28 62.326 62.28C62.95 62.28 63.506 62.416 63.994 62.688C64.482 62.96 64.862 63.344 65.134 63.84C65.406 64.328 65.542 64.892 65.542 65.532ZM64.114 65.1C64.106 64.596 63.926 64.192 63.574 63.888C63.222 63.584 62.786 63.432 62.266 63.432C61.794 63.432 61.39 63.584 61.054 63.888C60.718 64.184 60.518 64.588 60.454 65.1H64.114Z" fill="white"/>
<path d="M37.752 99H36.384L32.268 92.772V99H30.9V90.648H32.268L36.384 96.864V90.648H37.752V99ZM45.6084 95.532C45.6084 95.78 45.5924 96.004 45.5604 96.204H40.5084C40.5484 96.732 40.7444 97.156 41.0964 97.476C41.4484 97.796 41.8804 97.956 42.3924 97.956C43.1284 97.956 43.6484 97.648 43.9524 97.032H45.4284C45.2284 97.64 44.8644 98.14 44.3364 98.532C43.8164 98.916 43.1684 99.108 42.3924 99.108C41.7604 99.108 41.1924 98.968 40.6884 98.688C40.1924 98.4 39.8004 98 39.5124 97.488C39.2324 96.968 39.0924 96.368 39.0924 95.688C39.0924 95.008 39.2284 94.412 39.5004 93.9C39.7804 93.38 40.1684 92.98 40.6644 92.7C41.1684 92.42 41.7444 92.28 42.3924 92.28C43.0164 92.28 43.5724 92.416 44.0604 92.688C44.5484 92.96 44.9284 93.344 45.2004 93.84C45.4724 94.328 45.6084 94.892 45.6084 95.532ZM44.1804 95.1C44.1724 94.596 43.9924 94.192 43.6404 93.888C43.2884 93.584 42.8524 93.432 42.3324 93.432C41.8604 93.432 41.4564 93.584 41.1204 93.888C40.7844 94.184 40.5844 94.588 40.5204 95.1H44.1804ZM55.8347 92.388L53.7827 99H52.3427L51.0107 94.116L49.6787 99H48.2387L46.1747 92.388H47.5667L48.9467 97.704L50.3507 92.388H51.7787L53.1227 97.68L54.4907 92.388H55.8347ZM62.7462 93.504H61.5222V99H60.1422V93.504H59.3622V92.388H60.1422V91.92C60.1422 91.16 60.3422 90.608 60.7422 90.264C61.1502 89.912 61.7862 89.736 62.6502 89.736V90.876C62.2342 90.876 61.9422 90.956 61.7742 91.116C61.6062 91.268 61.5222 91.536 61.5222 91.92V92.388H62.7462V93.504ZM64.6546 91.512C64.4066 91.512 64.1986 91.428 64.0306 91.26C63.8626 91.092 63.7786 90.884 63.7786 90.636C63.7786 90.388 63.8626 90.18 64.0306 90.012C64.1986 89.844 64.4066 89.76 64.6546 89.76C64.8946 89.76 65.0986 89.844 65.2666 90.012C65.4346 90.18 65.5186 90.388 65.5186 90.636C65.5186 90.884 65.4346 91.092 65.2666 91.26C65.0986 91.428 64.8946 91.512 64.6546 91.512ZM65.3266 92.388V99H63.9586V92.388H65.3266ZM68.4907 90.12V99H67.1227V90.12H68.4907ZM76.3467 95.532C76.3467 95.78 76.3307 96.004 76.2987 96.204H71.2467C71.2867 96.732 71.4827 97.156 71.8347 97.476C72.1867 97.796 72.6187 97.956 73.1307 97.956C73.8667 97.956 74.3867 97.648 74.6907 97.032H76.1667C75.9667 97.64 75.6027 98.14 75.0747 98.532C74.5547 98.916 73.9067 99.108 73.1307 99.108C72.4987 99.108 71.9307 98.968 71.4267 98.688C70.9307 98.4 70.5387 98 70.2507 97.488C69.9707 96.968 69.8307 96.368 69.8307 95.688C69.8307 95.008 69.9667 94.412 70.2387 93.9C70.5187 93.38 70.9067 92.98 71.4027 92.7C71.9067 92.42 72.4827 92.28 73.1307 92.28C73.7547 92.28 74.3107 92.416 74.7987 92.688C75.2867 92.96 75.6667 93.344 75.9387 93.84C76.2107 94.328 76.3467 94.892 76.3467 95.532ZM74.9187 95.1C74.9107 94.596 74.7307 94.192 74.3787 93.888C74.0267 93.584 73.5907 93.432 73.0707 93.432C72.5987 93.432 72.1947 93.584 71.8587 93.888C71.5227 94.184 71.3227 94.588 71.2587 95.1H74.9187Z" fill="white"/>
<path d="M9 95C9 94.4477 9.44772 94 10 94H20C20.5523 94 21 94.4477 21 95C21 95.5523 20.5523 96 20 96H10C9.44772 96 9 95.5523 9 95Z" fill="white"/>
<path d="M15 89C15.5523 89 16 89.4477 16 90L16 100C16 100.552 15.5523 101 15 101C14.4477 101 14 100.552 14 100L14 90C14 89.4477 14.4477 89 15 89Z" fill="white"/>
<path d="M33.648 159.084C33.088 159.084 32.584 158.988 32.136 158.796C31.688 158.596 31.336 158.316 31.08 157.956C30.824 157.596 30.696 157.176 30.696 156.696H32.16C32.192 157.056 32.332 157.352 32.58 157.584C32.836 157.816 33.192 157.932 33.648 157.932C34.12 157.932 34.488 157.82 34.752 157.596C35.016 157.364 35.148 157.068 35.148 156.708C35.148 156.428 35.064 156.2 34.896 156.024C34.736 155.848 34.532 155.712 34.284 155.616C34.044 155.52 33.708 155.416 33.276 155.304C32.732 155.16 32.288 155.016 31.944 154.872C31.608 154.72 31.32 154.488 31.08 154.176C30.84 153.864 30.72 153.448 30.72 152.928C30.72 152.448 30.84 152.028 31.08 151.668C31.32 151.308 31.656 151.032 32.088 150.84C32.52 150.648 33.02 150.552 33.588 150.552C34.396 150.552 35.056 150.756 35.568 151.164C36.088 151.564 36.376 152.116 36.432 152.82H34.92C34.896 152.516 34.752 152.256 34.488 152.04C34.224 151.824 33.876 151.716 33.444 151.716C33.052 151.716 32.732 151.816 32.484 152.016C32.236 152.216 32.112 152.504 32.112 152.88C32.112 153.136 32.188 153.348 32.34 153.516C32.5 153.676 32.7 153.804 32.94 153.9C33.18 153.996 33.508 154.1 33.924 154.212C34.476 154.364 34.924 154.516 35.268 154.668C35.62 154.82 35.916 155.056 36.156 155.376C36.404 155.688 36.528 156.108 36.528 156.636C36.528 157.06 36.412 157.46 36.18 157.836C35.956 158.212 35.624 158.516 35.184 158.748C34.752 158.972 34.24 159.084 33.648 159.084ZM37.6862 155.664C37.6862 155 37.8222 154.412 38.0942 153.9C38.3742 153.388 38.7502 152.992 39.2222 152.712C39.7022 152.424 40.2302 152.28 40.8062 152.28C41.3262 152.28 41.7782 152.384 42.1622 152.592C42.5542 152.792 42.8662 153.044 43.0982 153.348V152.388H44.4782V159H43.0982V158.016C42.8662 158.328 42.5502 158.588 42.1502 158.796C41.7502 159.004 41.2942 159.108 40.7822 159.108C40.2142 159.108 39.6942 158.964 39.2222 158.676C38.7502 158.38 38.3742 157.972 38.0942 157.452C37.8222 156.924 37.6862 156.328 37.6862 155.664ZM43.0982 155.688C43.0982 155.232 43.0022 154.836 42.8102 154.5C42.6262 154.164 42.3822 153.908 42.0782 153.732C41.7742 153.556 41.4462 153.468 41.0942 153.468C40.7422 153.468 40.4142 153.556 40.1102 153.732C39.8062 153.9 39.5582 154.152 39.3662 154.488C39.1822 154.816 39.0902 155.208 39.0902 155.664C39.0902 156.12 39.1822 156.52 39.3662 156.864C39.5582 157.208 39.8062 157.472 40.1102 157.656C40.4222 157.832 40.7502 157.92 41.0942 157.92C41.4462 157.92 41.7742 157.832 42.0782 157.656C42.3822 157.48 42.6262 157.224 42.8102 156.888C43.0022 156.544 43.0982 156.144 43.0982 155.688ZM48.831 157.776L50.703 152.388H52.155L49.635 159H48.003L45.495 152.388H46.959L48.831 157.776ZM59.2491 155.532C59.2491 155.78 59.2331 156.004 59.2011 156.204H54.1491C54.1891 156.732 54.3851 157.156 54.7371 157.476C55.0891 157.796 55.5211 157.956 56.0331 157.956C56.7691 157.956 57.2891 157.648 57.5931 157.032H59.0691C58.8691 157.64 58.5051 158.14 57.9771 158.532C57.4571 158.916 56.8091 159.108 56.0331 159.108C55.4011 159.108 54.8331 158.968 54.3291 158.688C53.8331 158.4 53.4411 158 53.1531 157.488C52.8731 156.968 52.7331 156.368 52.7331 155.688C52.7331 155.008 52.8691 154.412 53.1411 153.9C53.4211 153.38 53.8091 152.98 54.3051 152.7C54.8091 152.42 55.3851 152.28 56.0331 152.28C56.6571 152.28 57.2131 152.416 57.7011 152.688C58.1891 152.96 58.5691 153.344 58.8411 153.84C59.1131 154.328 59.2491 154.892 59.2491 155.532ZM57.8211 155.1C57.8131 154.596 57.6331 154.192 57.2811 153.888C56.9291 153.584 56.4931 153.432 55.9731 153.432C55.5011 153.432 55.0971 153.584 54.7611 153.888C54.4251 154.184 54.2251 154.588 54.1611 155.1H57.8211Z" fill="white"/>
<path d="M9 152C9 150.343 10.3431 149 12 149H15.7574C16.553 149 17.3161 149.316 17.8787 149.879L20.1213 152.121C20.6839 152.684 21 153.447 21 154.243V158C21 159.657 19.6569 161 18 161H12C10.3431 161 9 159.657 9 158V152Z" fill="white"/>
<path d="M34.704 129.084C33.928 129.084 33.212 128.904 32.556 128.544C31.908 128.176 31.392 127.668 31.008 127.02C30.632 126.364 30.444 125.628 30.444 124.812C30.444 123.996 30.632 123.264 31.008 122.616C31.392 121.968 31.908 121.464 32.556 121.104C33.212 120.736 33.928 120.552 34.704 120.552C35.488 120.552 36.204 120.736 36.852 121.104C37.508 121.464 38.024 121.968 38.4 122.616C38.776 123.264 38.964 123.996 38.964 124.812C38.964 125.628 38.776 126.364 38.4 127.02C38.024 127.668 37.508 128.176 36.852 128.544C36.204 128.904 35.488 129.084 34.704 129.084ZM34.704 127.896C35.256 127.896 35.748 127.772 36.18 127.524C36.612 127.268 36.948 126.908 37.188 126.444C37.436 125.972 37.56 125.428 37.56 124.812C37.56 124.196 37.436 123.656 37.188 123.192C36.948 122.728 36.612 122.372 36.18 122.124C35.748 121.876 35.256 121.752 34.704 121.752C34.152 121.752 33.66 121.876 33.228 122.124C32.796 122.372 32.456 122.728 32.208 123.192C31.968 123.656 31.848 124.196 31.848 124.812C31.848 125.428 31.968 125.972 32.208 126.444C32.456 126.908 32.796 127.268 33.228 127.524C33.66 127.772 34.152 127.896 34.704 127.896ZM41.6782 123.36C41.9102 123.056 42.2262 122.8 42.6262 122.592C43.0262 122.384 43.4782 122.28 43.9822 122.28C44.5582 122.28 45.0822 122.424 45.5542 122.712C46.0342 122.992 46.4102 123.388 46.6822 123.9C46.9542 124.412 47.0902 125 47.0902 125.664C47.0902 126.328 46.9542 126.924 46.6822 127.452C46.4102 127.972 46.0342 128.38 45.5542 128.676C45.0822 128.964 44.5582 129.108 43.9822 129.108C43.4782 129.108 43.0302 129.008 42.6382 128.808C42.2462 128.6 41.9262 128.344 41.6782 128.04V132.144H40.3102V122.388H41.6782V123.36ZM45.6982 125.664C45.6982 125.208 45.6022 124.816 45.4102 124.488C45.2262 124.152 44.9782 123.9 44.6662 123.732C44.3622 123.556 44.0342 123.468 43.6822 123.468C43.3382 123.468 43.0102 123.556 42.6982 123.732C42.3942 123.908 42.1462 124.164 41.9542 124.5C41.7702 124.836 41.6782 125.232 41.6782 125.688C41.6782 126.144 41.7702 126.544 41.9542 126.888C42.1462 127.224 42.3942 127.48 42.6982 127.656C43.0102 127.832 43.3382 127.92 43.6822 127.92C44.0342 127.92 44.3622 127.832 44.6662 127.656C44.9782 127.472 45.2262 127.208 45.4102 126.864C45.6022 126.52 45.6982 126.12 45.6982 125.664ZM54.503 125.532C54.503 125.78 54.487 126.004 54.455 126.204H49.403C49.443 126.732 49.639 127.156 49.991 127.476C50.343 127.796 50.775 127.956 51.287 127.956C52.023 127.956 52.543 127.648 52.847 127.032H54.323C54.123 127.64 53.759 128.14 53.231 128.532C52.711 128.916 52.063 129.108 51.287 129.108C50.655 129.108 50.087 128.968 49.583 128.688C49.087 128.4 48.695 128 48.407 127.488C48.127 126.968 47.987 126.368 47.987 125.688C47.987 125.008 48.123 124.412 48.395 123.9C48.675 123.38 49.063 122.98 49.559 122.7C50.063 122.42 50.639 122.28 51.287 122.28C51.911 122.28 52.467 122.416 52.955 122.688C53.443 122.96 53.823 123.344 54.095 123.84C54.367 124.328 54.503 124.892 54.503 125.532ZM53.075 125.1C53.067 124.596 52.887 124.192 52.535 123.888C52.183 123.584 51.747 123.432 51.227 123.432C50.755 123.432 50.351 123.584 50.015 123.888C49.679 124.184 49.479 124.588 49.415 125.1H53.075ZM59.1852 122.28C59.7052 122.28 60.1692 122.388 60.5772 122.604C60.9932 122.82 61.3172 123.14 61.5492 123.564C61.7812 123.988 61.8972 124.5 61.8972 125.1V129H60.5412V125.304C60.5412 124.712 60.3932 124.26 60.0972 123.948C59.8012 123.628 59.3972 123.468 58.8852 123.468C58.3732 123.468 57.9652 123.628 57.6612 123.948C57.3652 124.26 57.2172 124.712 57.2172 125.304V129H55.8492V122.388H57.2172V123.144C57.4412 122.872 57.7252 122.66 58.0692 122.508C58.4212 122.356 58.7932 122.28 59.1852 122.28Z" fill="white"/>
<path d="M9 122C9 120.343 10.3431 119 12 119H14C15.1046 119 16 119.895 16 121H18C19.6569 121 21 122.343 21 124V128C21 129.657 19.6569 131 18 131H12C10.3431 131 9 129.657 9 128V122Z" fill="white"/>
<path d="M30.444 184.812C30.444 183.996 30.632 183.264 31.008 182.616C31.392 181.968 31.908 181.464 32.556 181.104C33.212 180.736 33.928 180.552 34.704 180.552C35.592 180.552 36.38 180.772 37.068 181.212C37.764 181.644 38.268 182.26 38.58 183.06H36.936C36.72 182.62 36.42 182.292 36.036 182.076C35.652 181.86 35.208 181.752 34.704 181.752C34.152 181.752 33.66 181.876 33.228 182.124C32.796 182.372 32.456 182.728 32.208 183.192C31.968 183.656 31.848 184.196 31.848 184.812C31.848 185.428 31.968 185.968 32.208 186.432C32.456 186.896 32.796 187.256 33.228 187.512C33.66 187.76 34.152 187.884 34.704 187.884C35.208 187.884 35.652 187.776 36.036 187.56C36.42 187.344 36.72 187.016 36.936 186.576H38.58C38.268 187.376 37.764 187.992 37.068 188.424C36.38 188.856 35.592 189.072 34.704 189.072C33.92 189.072 33.204 188.892 32.556 188.532C31.908 188.164 31.392 187.656 31.008 187.008C30.632 186.36 30.444 185.628 30.444 184.812ZM43.0493 189.108C42.4253 189.108 41.8613 188.968 41.3573 188.688C40.8533 188.4 40.4573 188 40.1693 187.488C39.8813 186.968 39.7373 186.368 39.7373 185.688C39.7373 185.016 39.8853 184.42 40.1813 183.9C40.4773 183.38 40.8813 182.98 41.3933 182.7C41.9053 182.42 42.4773 182.28 43.1093 182.28C43.7413 182.28 44.3133 182.42 44.8253 182.7C45.3373 182.98 45.7413 183.38 46.0373 183.9C46.3333 184.42 46.4813 185.016 46.4813 185.688C46.4813 186.36 46.3293 186.956 46.0253 187.476C45.7213 187.996 45.3053 188.4 44.7773 188.688C44.2573 188.968 43.6813 189.108 43.0493 189.108ZM43.0493 187.92C43.4013 187.92 43.7293 187.836 44.0333 187.668C44.3453 187.5 44.5973 187.248 44.7893 186.912C44.9813 186.576 45.0773 186.168 45.0773 185.688C45.0773 185.208 44.9853 184.804 44.8013 184.476C44.6173 184.14 44.3733 183.888 44.0693 183.72C43.7653 183.552 43.4373 183.468 43.0853 183.468C42.7333 183.468 42.4053 183.552 42.1013 183.72C41.8053 183.888 41.5693 184.14 41.3933 184.476C41.2173 184.804 41.1293 185.208 41.1293 185.688C41.1293 186.4 41.3093 186.952 41.6693 187.344C42.0373 187.728 42.4973 187.92 43.0493 187.92ZM49.2016 180.12V189H47.8336V180.12H49.2016ZM53.8657 189.108C53.2417 189.108 52.6777 188.968 52.1737 188.688C51.6697 188.4 51.2737 188 50.9857 187.488C50.6977 186.968 50.5537 186.368 50.5537 185.688C50.5537 185.016 50.7017 184.42 50.9977 183.9C51.2937 183.38 51.6977 182.98 52.2097 182.7C52.7217 182.42 53.2937 182.28 53.9257 182.28C54.5577 182.28 55.1297 182.42 55.6417 182.7C56.1537 182.98 56.5577 183.38 56.8537 183.9C57.1497 184.42 57.2977 185.016 57.2977 185.688C57.2977 186.36 57.1457 186.956 56.8417 187.476C56.5377 187.996 56.1217 188.4 55.5937 188.688C55.0737 188.968 54.4977 189.108 53.8657 189.108ZM53.8657 187.92C54.2177 187.92 54.5457 187.836 54.8497 187.668C55.1617 187.5 55.4137 187.248 55.6057 186.912C55.7977 186.576 55.8937 186.168 55.8937 185.688C55.8937 185.208 55.8017 184.804 55.6177 184.476C55.4337 184.14 55.1897 183.888 54.8857 183.72C54.5817 183.552 54.2537 183.468 53.9017 183.468C53.5497 183.468 53.2217 183.552 52.9177 183.72C52.6217 183.888 52.3857 184.14 52.2097 184.476C52.0337 184.804 51.9457 185.208 51.9457 185.688C51.9457 186.4 52.1257 186.952 52.4857 187.344C52.8537 187.728 53.3137 187.92 53.8657 187.92ZM60.018 183.348C60.218 183.012 60.482 182.752 60.81 182.568C61.146 182.376 61.542 182.28 61.998 182.28V183.696H61.65C61.114 183.696 60.706 183.832 60.426 184.104C60.154 184.376 60.018 184.848 60.018 185.52V189H58.65V182.388H60.018V183.348Z" fill="white"/>
<rect x="14" y="183" width="7" height="7" rx="3.5" fill="#919191"/>
<rect x="14" y="178" width="7" height="7" rx="3.5" fill="#C8C8C8"/>
<path d="M9 184C9 182.067 10.567 180.5 12.5 180.5C14.433 180.5 16 182.067 16 184C16 185.933 14.433 187.5 12.5 187.5C10.567 187.5 9 185.933 9 184Z" fill="white"/>
<path d="M35.928 247.296H32.436L31.836 249H30.408L33.396 240.648H34.98L37.968 249H36.528L35.928 247.296ZM35.544 246.18L34.188 242.304L32.82 246.18H35.544ZM40.6352 240.12V249H39.2672V240.12H40.6352ZM43.1273 241.512C42.8793 241.512 42.6713 241.428 42.5033 241.26C42.3353 241.092 42.2513 240.884 42.2513 240.636C42.2513 240.388 42.3353 240.18 42.5033 240.012C42.6713 239.844 42.8793 239.76 43.1273 239.76C43.3673 239.76 43.5713 239.844 43.7393 240.012C43.9073 240.18 43.9913 240.388 43.9913 240.636C43.9913 240.884 43.9073 241.092 43.7393 241.26C43.5713 241.428 43.3673 241.512 43.1273 241.512ZM43.7993 242.388V249H42.4313V242.388H43.7993ZM48.2593 242.28C48.7713 242.28 49.2233 242.384 49.6153 242.592C50.0153 242.792 50.3273 243.044 50.5513 243.348V242.388H51.9313V249.108C51.9313 249.716 51.8033 250.256 51.5473 250.728C51.2913 251.208 50.9193 251.584 50.4313 251.856C49.9513 252.128 49.3753 252.264 48.7033 252.264C47.8073 252.264 47.0633 252.052 46.4713 251.628C45.8793 251.212 45.5433 250.644 45.4633 249.924H46.8193C46.9233 250.268 47.1433 250.544 47.4793 250.752C47.8233 250.968 48.2313 251.076 48.7033 251.076C49.2553 251.076 49.6993 250.908 50.0353 250.572C50.3793 250.236 50.5513 249.748 50.5513 249.108V248.004C50.3193 248.316 50.0033 248.58 49.6033 248.796C49.2113 249.004 48.7633 249.108 48.2593 249.108C47.6833 249.108 47.1553 248.964 46.6753 248.676C46.2033 248.38 45.8273 247.972 45.5473 247.452C45.2753 246.924 45.1393 246.328 45.1393 245.664C45.1393 245 45.2753 244.412 45.5473 243.9C45.8273 243.388 46.2033 242.992 46.6753 242.712C47.1553 242.424 47.6833 242.28 48.2593 242.28ZM50.5513 245.688C50.5513 245.232 50.4553 244.836 50.2633 244.5C50.0793 244.164 49.8353 243.908 49.5313 243.732C49.2273 243.556 48.8993 243.468 48.5473 243.468C48.1953 243.468 47.8673 243.556 47.5633 243.732C47.2593 243.9 47.0113 244.152 46.8193 244.488C46.6353 244.816 46.5433 245.208 46.5433 245.664C46.5433 246.12 46.6353 246.52 46.8193 246.864C47.0113 247.208 47.2593 247.472 47.5633 247.656C47.8753 247.832 48.2033 247.92 48.5473 247.92C48.8993 247.92 49.2273 247.832 49.5313 247.656C49.8353 247.48 50.0793 247.224 50.2633 246.888C50.4553 246.544 50.5513 246.144 50.5513 245.688ZM57.0641 242.28C57.5841 242.28 58.0481 242.388 58.4561 242.604C58.8721 242.82 59.1961 243.14 59.4281 243.564C59.6601 243.988 59.7761 244.5 59.7761 245.1V249H58.4201V245.304C58.4201 244.712 58.2721 244.26 57.9761 243.948C57.6801 243.628 57.2761 243.468 56.7641 243.468C56.2521 243.468 55.8441 243.628 55.5401 243.948C55.2441 244.26 55.0961 244.712 55.0961 245.304V249H53.7281V242.388H55.0961V243.144C55.3201 242.872 55.6041 242.66 55.9481 242.508C56.3001 242.356 56.6721 242.28 57.0641 242.28ZM69.5251 242.28C70.0451 242.28 70.5091 242.388 70.9171 242.604C71.3331 242.82 71.6571 243.14 71.8891 243.564C72.1291 243.988 72.2491 244.5 72.2491 245.1V249H70.8931V245.304C70.8931 244.712 70.7451 244.26 70.4491 243.948C70.1531 243.628 69.7491 243.468 69.2371 243.468C68.7251 243.468 68.3171 243.628 68.0131 243.948C67.7171 244.26 67.5691 244.712 67.5691 245.304V249H66.2131V245.304C66.2131 244.712 66.0651 244.26 65.7691 243.948C65.4731 243.628 65.0691 243.468 64.5571 243.468C64.0451 243.468 63.6371 243.628 63.3331 243.948C63.0371 244.26 62.8891 244.712 62.8891 245.304V249H61.5211V242.388H62.8891V243.144C63.1131 242.872 63.3971 242.66 63.7411 242.508C64.0851 242.356 64.4531 242.28 64.8451 242.28C65.3731 242.28 65.8451 242.392 66.2611 242.616C66.6771 242.84 66.9971 243.164 67.2211 243.588C67.4211 243.188 67.7331 242.872 68.1571 242.64C68.5811 242.4 69.0371 242.28 69.5251 242.28ZM80.0498 245.532C80.0498 245.78 80.0338 246.004 80.0018 246.204H74.9498C74.9898 246.732 75.1858 247.156 75.5378 247.476C75.8898 247.796 76.3218 247.956 76.8338 247.956C77.5698 247.956 78.0898 247.648 78.3938 247.032H79.8698C79.6698 247.64 79.3058 248.14 78.7778 248.532C78.2578 248.916 77.6098 249.108 76.8338 249.108C76.2018 249.108 75.6338 248.968 75.1298 248.688C74.6338 248.4 74.2418 248 73.9538 247.488C73.6738 246.968 73.5338 246.368 73.5338 245.688C73.5338 245.008 73.6698 244.412 73.9418 243.9C74.2218 243.38 74.6098 242.98 75.1058 242.7C75.6098 242.42 76.1858 242.28 76.8338 242.28C77.4578 242.28 78.0138 242.416 78.5018 242.688C78.9898 242.96 79.3698 243.344 79.6418 243.84C79.9138 244.328 80.0498 244.892 80.0498 245.532ZM78.6218 245.1C78.6138 244.596 78.4338 244.192 78.0818 243.888C77.7298 243.584 77.2938 243.432 76.7738 243.432C76.3018 243.432 75.8978 243.584 75.5618 243.888C75.2258 244.184 75.0258 244.588 74.9618 245.1H78.6218ZM84.7321 242.28C85.2521 242.28 85.7161 242.388 86.1241 242.604C86.5401 242.82 86.8641 243.14 87.0961 243.564C87.3281 243.988 87.4441 244.5 87.4441 245.1V249H86.0881V245.304C86.0881 244.712 85.9401 244.26 85.6441 243.948C85.3481 243.628 84.9441 243.468 84.4321 243.468C83.9201 243.468 83.5121 243.628 83.2081 243.948C82.9121 244.26 82.7641 244.712 82.7641 245.304V249H81.3961V242.388H82.7641V243.144C82.9881 242.872 83.2721 242.66 83.6161 242.508C83.9681 242.356 84.3401 242.28 84.7321 242.28ZM90.7851 243.504V247.164C90.7851 247.412 90.8411 247.592 90.9531 247.704C91.0731 247.808 91.2731 247.86 91.5531 247.86H92.3931V249H91.3131C90.6971 249 90.2251 248.856 89.8971 248.568C89.5691 248.28 89.4051 247.812 89.4051 247.164V243.504H88.6251V242.388H89.4051V240.744H90.7851V242.388H92.3931V243.504H90.7851Z" fill="white"/>
<rect x="9" y="244" width="12" height="2" rx="1" fill="white"/>
<rect x="9" y="240" width="6" height="2" rx="1" fill="white"/>
<rect x="9" y="248" width="8" height="2" rx="1" fill="white"/>
<path d="M35.808 210.66V211.776H32.268V214.236H35.028V215.352H32.268V219H30.9V210.66H35.808ZM39.9438 219.108C39.3198 219.108 38.7558 218.968 38.2518 218.688C37.7478 218.4 37.3518 218 37.0638 217.488C36.7758 216.968 36.6318 216.368 36.6318 215.688C36.6318 215.016 36.7798 214.42 37.0758 213.9C37.3718 213.38 37.7758 212.98 38.2878 212.7C38.7998 212.42 39.3718 212.28 40.0038 212.28C40.6358 212.28 41.2078 212.42 41.7198 212.7C42.2318 212.98 42.6358 213.38 42.9318 213.9C43.2278 214.42 43.3758 215.016 43.3758 215.688C43.3758 216.36 43.2238 216.956 42.9198 217.476C42.6158 217.996 42.1998 218.4 41.6718 218.688C41.1518 218.968 40.5758 219.108 39.9438 219.108ZM39.9438 217.92C40.2958 217.92 40.6238 217.836 40.9278 217.668C41.2398 217.5 41.4918 217.248 41.6838 216.912C41.8758 216.576 41.9718 216.168 41.9718 215.688C41.9718 215.208 41.8798 214.804 41.6958 214.476C41.5118 214.14 41.2678 213.888 40.9638 213.72C40.6598 213.552 40.3318 213.468 39.9798 213.468C39.6278 213.468 39.2998 213.552 38.9958 213.72C38.6998 213.888 38.4638 214.14 38.2878 214.476C38.1118 214.804 38.0238 215.208 38.0238 215.688C38.0238 216.4 38.2038 216.952 38.5638 217.344C38.9318 217.728 39.3918 217.92 39.9438 217.92ZM48.0641 212.28C48.5841 212.28 49.0481 212.388 49.4561 212.604C49.8721 212.82 50.1961 213.14 50.4281 213.564C50.6601 213.988 50.7761 214.5 50.7761 215.1V219H49.4201V215.304C49.4201 214.712 49.2721 214.26 48.9761 213.948C48.6801 213.628 48.2761 213.468 47.7641 213.468C47.2521 213.468 46.8441 213.628 46.5401 213.948C46.2441 214.26 46.0961 214.712 46.0961 215.304V219H44.7281V212.388H46.0961V213.144C46.3201 212.872 46.6041 212.66 46.9481 212.508C47.3001 212.356 47.6721 212.28 48.0641 212.28ZM54.1171 213.504V217.164C54.1171 217.412 54.1731 217.592 54.2851 217.704C54.4051 217.808 54.6051 217.86 54.8851 217.86H55.7251V219H54.6451C54.0291 219 53.5571 218.856 53.2291 218.568C52.9011 218.28 52.7371 217.812 52.7371 217.164V213.504H51.9571V212.388H52.7371V210.744H54.1171V212.388H55.7251V213.504H54.1171ZM62.5031 219.108C61.9831 219.108 61.5151 219.016 61.0991 218.832C60.6911 218.64 60.3671 218.384 60.1271 218.064C59.8871 217.736 59.7591 217.372 59.7431 216.972H61.1591C61.1831 217.252 61.3151 217.488 61.5551 217.68C61.8031 217.864 62.1111 217.956 62.4791 217.956C62.8631 217.956 63.1591 217.884 63.3671 217.74C63.5831 217.588 63.6911 217.396 63.6911 217.164C63.6911 216.916 63.5711 216.732 63.3311 216.612C63.0991 216.492 62.7271 216.36 62.2151 216.216C61.7191 216.08 61.3151 215.948 61.0031 215.82C60.6911 215.692 60.4191 215.496 60.1871 215.232C59.9631 214.968 59.8511 214.62 59.8511 214.188C59.8511 213.836 59.9551 213.516 60.1631 213.228C60.3711 212.932 60.6671 212.7 61.0511 212.532C61.4431 212.364 61.8911 212.28 62.3951 212.28C63.1471 212.28 63.7511 212.472 64.2071 212.856C64.6711 213.232 64.9191 213.748 64.9511 214.404H63.5831C63.5591 214.108 63.4391 213.872 63.2231 213.696C63.0071 213.52 62.7151 213.432 62.3471 213.432C61.9871 213.432 61.7111 213.5 61.5191 213.636C61.3271 213.772 61.2311 213.952 61.2311 214.176C61.2311 214.352 61.2951 214.5 61.4231 214.62C61.5511 214.74 61.7071 214.836 61.8911 214.908C62.0751 214.972 62.3471 215.056 62.7071 215.16C63.1871 215.288 63.5791 215.42 63.8831 215.556C64.1951 215.684 64.4631 215.876 64.6871 216.132C64.9111 216.388 65.0271 216.728 65.0351 217.152C65.0351 217.528 64.9311 217.864 64.7231 218.16C64.5151 218.456 64.2191 218.688 63.8351 218.856C63.4591 219.024 63.0151 219.108 62.5031 219.108ZM67.2093 211.512C66.9613 211.512 66.7533 211.428 66.5853 211.26C66.4173 211.092 66.3333 210.884 66.3333 210.636C66.3333 210.388 66.4173 210.18 66.5853 210.012C66.7533 209.844 66.9613 209.76 67.2093 209.76C67.4493 209.76 67.6533 209.844 67.8213 210.012C67.9893 210.18 68.0733 210.388 68.0733 210.636C68.0733 210.884 67.9893 211.092 67.8213 211.26C67.6533 211.428 67.4493 211.512 67.2093 211.512ZM67.8813 212.388V219H66.5133V212.388H67.8813ZM70.8893 217.884H73.8893V219H69.3053V217.884L72.3173 213.504H69.3053V212.388H73.8893V213.504L70.8893 217.884ZM81.3858 215.532C81.3858 215.78 81.3698 216.004 81.3378 216.204H76.2858C76.3258 216.732 76.5218 217.156 76.8738 217.476C77.2258 217.796 77.6578 217.956 78.1698 217.956C78.9058 217.956 79.4258 217.648 79.7298 217.032H81.2058C81.0058 217.64 80.6418 218.14 80.1138 218.532C79.5938 218.916 78.9458 219.108 78.1698 219.108C77.5378 219.108 76.9698 218.968 76.4658 218.688C75.9698 218.4 75.5778 218 75.2898 217.488C75.0098 216.968 74.8698 216.368 74.8698 215.688C74.8698 215.008 75.0058 214.412 75.2778 213.9C75.5578 213.38 75.9458 212.98 76.4418 212.7C76.9458 212.42 77.5218 212.28 78.1698 212.28C78.7938 212.28 79.3498 212.416 79.8378 212.688C80.3258 212.96 80.7058 213.344 80.9778 213.84C81.2498 214.328 81.3858 214.892 81.3858 215.532ZM79.9578 215.1C79.9498 214.596 79.7698 214.192 79.4178 213.888C79.0658 213.584 78.6298 213.432 78.1098 213.432C77.6378 213.432 77.2338 213.584 76.8978 213.888C76.5618 214.184 76.3618 214.588 76.2978 215.1H79.9578Z" fill="white"/>
<path d="M13.452 216.864H11.124L10.724 218H9.772L11.764 212.432H12.82L14.812 218H13.852L13.452 216.864ZM13.196 216.12L12.292 213.536L11.38 216.12H13.196ZM15.3741 215.776C15.3741 215.333 15.4648 214.941 15.6461 214.6C15.8328 214.259 16.0835 213.995 16.3981 213.808C16.7181 213.616 17.0701 213.52 17.4541 213.52C17.8008 213.52 18.1021 213.589 18.3581 213.728C18.6195 213.861 18.8275 214.029 18.9821 214.232V213.592H19.9021V218H18.9821V217.344C18.8275 217.552 18.6168 217.725 18.3501 217.864C18.0835 218.003 17.7795 218.072 17.4381 218.072C17.0595 218.072 16.7128 217.976 16.3981 217.784C16.0835 217.587 15.8328 217.315 15.6461 216.968C15.4648 216.616 15.3741 216.219 15.3741 215.776ZM18.9821 215.792C18.9821 215.488 18.9181 215.224 18.7901 215C18.6675 214.776 18.5048 214.605 18.3021 214.488C18.0995 214.371 17.8808 214.312 17.6461 214.312C17.4115 214.312 17.1928 214.371 16.9901 214.488C16.7875 214.6 16.6221 214.768 16.4941 214.992C16.3715 215.211 16.3101 215.472 16.3101 215.776C16.3101 216.08 16.3715 216.347 16.4941 216.576C16.6221 216.805 16.7875 216.981 16.9901 217.104C17.1981 217.221 17.4168 217.28 17.6461 217.28C17.8808 217.28 18.0995 217.221 18.3021 217.104C18.5048 216.987 18.6675 216.816 18.7901 216.592C18.9181 216.363 18.9821 216.096 18.9821 215.792Z" fill="white"/>
<rect x="16" y="17" width="14" height="16" rx="3" fill="white"/>
<rect x="18" y="20" width="8" height="2" rx="1" fill="#191919"/>
<rect x="18" y="24" width="10" height="2" rx="1" fill="#191919"/>
<rect x="18" y="28" width="5" height="2" rx="1" fill="#191919"/>
<rect x="12" y="125" width="6" height="2" rx="1" fill="#191919"/>
<rect x="16" y="123" width="6" height="2" rx="1" transform="rotate(90 16 123)" fill="#191919"/>
<rect x="12" y="156" width="6" height="2" rx="1" fill="#191919"/>
</svg>
