<svg width="40" height="40" viewBox="0 0 40 40" fill="none" xmlns="http://www.w3.org/2000/svg">
<path d="M18.1962 23C19.1527 23.5523 20.404 23.225 20.7025 22.1615C21.0166 21.0421 21.0851 19.8597 20.8931 18.6968C20.5917 16.8707 19.6663 15.2056 18.2748 13.9853C16.8832 12.7649 15.1116 12.0648 13.2618 12.0043C11.4119 11.9437 9.59828 12.5265 8.12991 13.6532C6.66154 14.7799 5.62927 16.3809 5.20898 18.1834C4.7887 19.9859 5.00641 21.8783 5.82502 23.5383C6.64362 25.1983 8.01248 26.5231 9.69834 27.2869C10.7719 27.7733 11.9318 28.0131 13.0943 27.9995C14.1988 27.9864 14.8388 26.8625 14.5529 25.7956V25.7956C14.267 24.7286 13.1295 24.1477 12.0562 23.8871C11.8148 23.8285 11.5781 23.7472 11.3492 23.6435C10.5062 23.2615 9.82181 22.5991 9.41251 21.7692C9.00321 20.9392 8.89435 19.9929 9.10449 19.0917C9.31463 18.1904 9.83077 17.3899 10.565 16.8266C11.2991 16.2632 12.206 15.9719 13.1309 16.0021C14.0558 16.0324 14.9416 16.3825 15.6374 16.9926C16.3332 17.6028 16.7958 18.4354 16.9466 19.3484C16.9875 19.5964 17.0048 19.8461 16.9989 20.0944C16.9728 21.1986 17.2396 22.4477 18.1962 23V23Z" fill="#FF0000"/>
<path d="M19.8038 17C18.8473 16.4477 17.596 16.775 17.2975 17.8385C16.9834 18.9579 16.9149 20.1403 17.1069 21.3032C17.4083 23.1293 18.3337 24.7944 19.7252 26.0147C21.1168 27.2351 22.8884 27.9352 24.7382 27.9957C26.5881 28.0563 28.4017 27.4735 29.8701 26.3468C31.3385 25.2201 32.3707 23.6191 32.791 21.8166C33.2113 20.0141 32.9936 18.1217 32.175 16.4617C31.3564 14.8017 29.9875 13.4769 28.3017 12.7131C27.2281 12.2267 26.0682 11.9869 24.9057 12.0005C23.8012 12.0136 23.1612 13.1375 23.4471 14.2044V14.2044C23.733 15.2714 24.8705 15.8523 25.9438 16.1129C26.1852 16.1715 26.4219 16.2528 26.6508 16.3565C27.4938 16.7385 28.1782 17.4009 28.5875 18.2308C28.9968 19.0608 29.1056 20.0071 28.8955 20.9083C28.6854 21.8096 28.1692 22.6101 27.435 23.1734C26.7009 23.7368 25.794 24.0281 24.8691 23.9979C23.9442 23.9676 23.0584 23.6175 22.3626 23.0074C21.6668 22.3972 21.2042 21.5646 21.0534 20.6516C21.0125 20.4036 20.9952 20.1539 21.0011 19.9056C21.0272 18.8014 20.7604 17.5523 19.8038 17V17Z" fill="#FF0000"/>
</svg>
