<svg width="480" height="360" viewBox="0 0 480 360" fill="none" xmlns="http://www.w3.org/2000/svg">
<rect x="160" y="140" width="310" height="30" rx="15" fill="black" fill-opacity="0.1"/>
<path d="M282.397 154.812C282.397 153.996 282.585 153.264 282.961 152.616C283.345 151.968 283.861 151.464 284.509 151.104C285.165 150.736 285.881 150.552 286.657 150.552C287.545 150.552 288.333 150.772 289.021 151.212C289.717 151.644 290.221 152.26 290.533 153.06H288.889C288.673 152.62 288.373 152.292 287.989 152.076C287.605 151.86 287.161 151.752 286.657 151.752C286.105 151.752 285.613 151.876 285.181 152.124C284.749 152.372 284.409 152.728 284.161 153.192C283.921 153.656 283.801 154.196 283.801 154.812C283.801 155.428 283.921 155.968 284.161 156.432C284.409 156.896 284.749 157.256 285.181 157.512C285.613 157.76 286.105 157.884 286.657 157.884C287.161 157.884 287.605 157.776 287.989 157.56C288.373 157.344 288.673 157.016 288.889 156.576H290.533C290.221 157.376 289.717 157.992 289.021 158.424C288.333 158.856 287.545 159.072 286.657 159.072C285.873 159.072 285.157 158.892 284.509 158.532C283.861 158.164 283.345 157.656 282.961 157.008C282.585 156.36 282.397 155.628 282.397 154.812ZM295.554 152.28C296.058 152.28 296.506 152.388 296.898 152.604C297.298 152.82 297.61 153.14 297.834 153.564C298.066 153.988 298.182 154.5 298.182 155.1V159H296.826V155.304C296.826 154.712 296.678 154.26 296.382 153.948C296.086 153.628 295.682 153.468 295.17 153.468C294.658 153.468 294.25 153.628 293.946 153.948C293.65 154.26 293.502 154.712 293.502 155.304V159H292.134V150.12H293.502V153.156C293.734 152.876 294.026 152.66 294.378 152.508C294.738 152.356 295.13 152.28 295.554 152.28ZM305.987 155.532C305.987 155.78 305.971 156.004 305.939 156.204H300.887C300.927 156.732 301.123 157.156 301.475 157.476C301.827 157.796 302.259 157.956 302.771 157.956C303.507 157.956 304.027 157.648 304.331 157.032H305.807C305.607 157.64 305.243 158.14 304.715 158.532C304.195 158.916 303.547 159.108 302.771 159.108C302.139 159.108 301.571 158.968 301.067 158.688C300.571 158.4 300.179 158 299.891 157.488C299.611 156.968 299.471 156.368 299.471 155.688C299.471 155.008 299.607 154.412 299.879 153.9C300.159 153.38 300.547 152.98 301.043 152.7C301.547 152.42 302.123 152.28 302.771 152.28C303.395 152.28 303.951 152.416 304.439 152.688C304.927 152.96 305.307 153.344 305.579 153.84C305.851 154.328 305.987 154.892 305.987 155.532ZM304.559 155.1C304.551 154.596 304.371 154.192 304.019 153.888C303.667 153.584 303.231 153.432 302.711 153.432C302.239 153.432 301.835 153.584 301.499 153.888C301.163 154.184 300.963 154.588 300.899 155.1H304.559ZM306.878 155.688C306.878 155.008 307.014 154.412 307.286 153.9C307.566 153.38 307.95 152.98 308.438 152.7C308.926 152.42 309.486 152.28 310.118 152.28C310.918 152.28 311.578 152.472 312.098 152.856C312.626 153.232 312.982 153.772 313.166 154.476H311.69C311.57 154.148 311.378 153.892 311.114 153.708C310.85 153.524 310.518 153.432 310.118 153.432C309.558 153.432 309.11 153.632 308.774 154.032C308.446 154.424 308.282 154.976 308.282 155.688C308.282 156.4 308.446 156.956 308.774 157.356C309.11 157.756 309.558 157.956 310.118 157.956C310.91 157.956 311.434 157.608 311.69 156.912H313.166C312.974 157.584 312.614 158.12 312.086 158.52C311.558 158.912 310.902 159.108 310.118 159.108C309.486 159.108 308.926 158.968 308.438 158.688C307.95 158.4 307.566 158 307.286 157.488C307.014 156.968 306.878 156.368 306.878 155.688ZM317.145 155.7L320.193 159H318.345L315.897 156.156V159H314.529V150.12H315.897V155.28L318.297 152.388H320.193L317.145 155.7ZM321.869 151.512C321.621 151.512 321.413 151.428 321.245 151.26C321.077 151.092 320.993 150.884 320.993 150.636C320.993 150.388 321.077 150.18 321.245 150.012C321.413 149.844 321.621 149.76 321.869 149.76C322.109 149.76 322.313 149.844 322.481 150.012C322.649 150.18 322.733 150.388 322.733 150.636C322.733 150.884 322.649 151.092 322.481 151.26C322.313 151.428 322.109 151.512 321.869 151.512ZM322.541 152.388V159H321.173V152.388H322.541ZM327.674 152.28C328.194 152.28 328.658 152.388 329.066 152.604C329.482 152.82 329.806 153.14 330.038 153.564C330.27 153.988 330.386 154.5 330.386 155.1V159H329.03V155.304C329.03 154.712 328.882 154.26 328.586 153.948C328.29 153.628 327.886 153.468 327.374 153.468C326.862 153.468 326.454 153.628 326.15 153.948C325.854 154.26 325.706 154.712 325.706 155.304V159H324.338V152.388H325.706V153.144C325.93 152.872 326.214 152.66 326.558 152.508C326.91 152.356 327.282 152.28 327.674 152.28ZM334.794 152.28C335.306 152.28 335.758 152.384 336.15 152.592C336.55 152.792 336.862 153.044 337.086 153.348V152.388H338.466V159.108C338.466 159.716 338.338 160.256 338.082 160.728C337.826 161.208 337.454 161.584 336.966 161.856C336.486 162.128 335.91 162.264 335.238 162.264C334.342 162.264 333.598 162.052 333.006 161.628C332.414 161.212 332.078 160.644 331.998 159.924H333.354C333.458 160.268 333.678 160.544 334.014 160.752C334.358 160.968 334.766 161.076 335.238 161.076C335.79 161.076 336.234 160.908 336.57 160.572C336.914 160.236 337.086 159.748 337.086 159.108V158.004C336.854 158.316 336.538 158.58 336.138 158.796C335.746 159.004 335.298 159.108 334.794 159.108C334.218 159.108 333.69 158.964 333.21 158.676C332.738 158.38 332.362 157.972 332.082 157.452C331.81 156.924 331.674 156.328 331.674 155.664C331.674 155 331.81 154.412 332.082 153.9C332.362 153.388 332.738 152.992 333.21 152.712C333.69 152.424 334.218 152.28 334.794 152.28ZM337.086 155.688C337.086 155.232 336.99 154.836 336.798 154.5C336.614 154.164 336.37 153.908 336.066 153.732C335.762 153.556 335.434 153.468 335.082 153.468C334.73 153.468 334.402 153.556 334.098 153.732C333.794 153.9 333.546 154.152 333.354 154.488C333.17 154.816 333.078 155.208 333.078 155.664C333.078 156.12 333.17 156.52 333.354 156.864C333.546 157.208 333.794 157.472 334.098 157.656C334.41 157.832 334.738 157.92 335.082 157.92C335.434 157.92 335.762 157.832 336.066 157.656C336.37 157.48 336.614 157.224 336.798 156.888C336.99 156.544 337.086 156.144 337.086 155.688ZM340.815 159.084C340.567 159.084 340.359 159 340.191 158.832C340.023 158.664 339.939 158.456 339.939 158.208C339.939 157.96 340.023 157.752 340.191 157.584C340.359 157.416 340.567 157.332 340.815 157.332C341.055 157.332 341.259 157.416 341.427 157.584C341.595 157.752 341.679 157.96 341.679 158.208C341.679 158.456 341.595 158.664 341.427 158.832C341.259 159 341.055 159.084 340.815 159.084ZM343.71 159.084C343.462 159.084 343.254 159 343.086 158.832C342.918 158.664 342.834 158.456 342.834 158.208C342.834 157.96 342.918 157.752 343.086 157.584C343.254 157.416 343.462 157.332 343.71 157.332C343.95 157.332 344.154 157.416 344.322 157.584C344.49 157.752 344.574 157.96 344.574 158.208C344.574 158.456 344.49 158.664 344.322 158.832C344.154 159 343.95 159.084 343.71 159.084ZM346.604 159.084C346.356 159.084 346.148 159 345.98 158.832C345.812 158.664 345.728 158.456 345.728 158.208C345.728 157.96 345.812 157.752 345.98 157.584C346.148 157.416 346.356 157.332 346.604 157.332C346.844 157.332 347.048 157.416 347.216 157.584C347.384 157.752 347.468 157.96 347.468 158.208C347.468 158.456 347.384 158.664 347.216 158.832C347.048 159 346.844 159.084 346.604 159.084Z" fill="black"/>
</svg>
