<svg width="250" height="28" viewBox="0 0 250 28" fill="none" xmlns="http://www.w3.org/2000/svg">
<rect width="250" height="28" rx="5" fill="#1B1B1B"/>
<path d="M13.56 8.66V9.6H12.55V18.91H13.56V19.86H11.48V8.66H13.56ZM17.9135 13.42H16.8935V18H15.7435V13.42H15.0935V12.49H15.7435V12.1C15.7435 11.4667 15.9102 11.0067 16.2435 10.72C16.5835 10.4267 17.1135 10.28 17.8335 10.28V11.23C17.4868 11.23 17.2435 11.2967 17.1035 11.43C16.9635 11.5567 16.8935 11.78 16.8935 12.1V12.49H17.9135V13.42ZM19.5038 11.76C19.2972 11.76 19.1238 11.69 18.9838 11.55C18.8438 11.41 18.7738 11.2367 18.7738 11.03C18.7738 10.8233 18.8438 10.65 18.9838 10.51C19.1238 10.37 19.2972 10.3 19.5038 10.3C19.7038 10.3 19.8738 10.37 20.0138 10.51C20.1538 10.65 20.2238 10.8233 20.2238 11.03C20.2238 11.2367 20.1538 11.41 20.0138 11.55C19.8738 11.69 19.7038 11.76 19.5038 11.76ZM20.0638 12.49V18H18.9238V12.49H20.0638ZM22.7005 10.6V18H21.5605V10.6H22.7005ZM29.2473 15.11C29.2473 15.3167 29.2339 15.5033 29.2073 15.67H24.9973C25.0306 16.11 25.1939 16.4633 25.4873 16.73C25.7806 16.9967 26.1406 17.13 26.5673 17.13C27.1806 17.13 27.6139 16.8733 27.8673 16.36H29.0973C28.9306 16.8667 28.6273 17.2833 28.1873 17.61C27.7539 17.93 27.2139 18.09 26.5673 18.09C26.0406 18.09 25.5673 17.9733 25.1473 17.74C24.7339 17.5 24.4073 17.1667 24.1673 16.74C23.9339 16.3067 23.8173 15.8067 23.8173 15.24C23.8173 14.6733 23.9306 14.1767 24.1573 13.75C24.3906 13.3167 24.7139 12.9833 25.1273 12.75C25.5473 12.5167 26.0273 12.4 26.5673 12.4C27.0873 12.4 27.5506 12.5133 27.9573 12.74C28.3639 12.9667 28.6806 13.2867 28.9073 13.7C29.1339 14.1067 29.2473 14.5767 29.2473 15.11ZM28.0573 14.75C28.0506 14.33 27.9006 13.9933 27.6073 13.74C27.3139 13.4867 26.9506 13.36 26.5173 13.36C26.1239 13.36 25.7873 13.4867 25.5073 13.74C25.2273 13.9867 25.0606 14.3233 25.0073 14.75H28.0573ZM35.7468 12.4C36.1801 12.4 36.5668 12.49 36.9068 12.67C37.2535 12.85 37.5235 13.1167 37.7168 13.47C37.9101 13.8233 38.0068 14.25 38.0068 14.75V18H36.8768V14.92C36.8768 14.4267 36.7535 14.05 36.5068 13.79C36.2601 13.5233 35.9235 13.39 35.4968 13.39C35.0701 13.39 34.7301 13.5233 34.4768 13.79C34.2301 14.05 34.1068 14.4267 34.1068 14.92V18H32.9668V12.49H34.1068V13.12C34.2935 12.8933 34.5301 12.7167 34.8168 12.59C35.1101 12.4633 35.4201 12.4 35.7468 12.4ZM39.0809 15.22C39.0809 14.6667 39.1943 14.1767 39.4209 13.75C39.6543 13.3233 39.9676 12.9933 40.3609 12.76C40.7609 12.52 41.2009 12.4 41.6809 12.4C42.1143 12.4 42.4909 12.4867 42.8109 12.66C43.1376 12.8267 43.3976 13.0367 43.5909 13.29V12.49H44.7409V18H43.5909V17.18C43.3976 17.44 43.1343 17.6567 42.8009 17.83C42.4676 18.0033 42.0876 18.09 41.6609 18.09C41.1876 18.09 40.7543 17.97 40.3609 17.73C39.9676 17.4833 39.6543 17.1433 39.4209 16.71C39.1943 16.27 39.0809 15.7733 39.0809 15.22ZM43.5909 15.24C43.5909 14.86 43.5109 14.53 43.3509 14.25C43.1976 13.97 42.9943 13.7567 42.7409 13.61C42.4876 13.4633 42.2143 13.39 41.9209 13.39C41.6276 13.39 41.3543 13.4633 41.1009 13.61C40.8476 13.75 40.6409 13.96 40.4809 14.24C40.3276 14.5133 40.2509 14.84 40.2509 15.22C40.2509 15.6 40.3276 15.9333 40.4809 16.22C40.6409 16.5067 40.8476 16.7267 41.1009 16.88C41.3609 17.0267 41.6343 17.1 41.9209 17.1C42.2143 17.1 42.4876 17.0267 42.7409 16.88C42.9943 16.7333 43.1976 16.52 43.3509 16.24C43.5109 15.9533 43.5909 15.62 43.5909 15.24ZM52.9083 12.4C53.3416 12.4 53.7283 12.49 54.0683 12.67C54.4149 12.85 54.6849 13.1167 54.8783 13.47C55.0783 13.8233 55.1783 14.25 55.1783 14.75V18H54.0483V14.92C54.0483 14.4267 53.9249 14.05 53.6783 13.79C53.4316 13.5233 53.0949 13.39 52.6683 13.39C52.2416 13.39 51.9016 13.5233 51.6483 13.79C51.4016 14.05 51.2783 14.4267 51.2783 14.92V18H50.1483V14.92C50.1483 14.4267 50.0249 14.05 49.7783 13.79C49.5316 13.5233 49.1949 13.39 48.7683 13.39C48.3416 13.39 48.0016 13.5233 47.7483 13.79C47.5016 14.05 47.3783 14.4267 47.3783 14.92V18H46.2383V12.49H47.3783V13.12C47.5649 12.8933 47.8016 12.7167 48.0883 12.59C48.3749 12.4633 48.6816 12.4 49.0083 12.4C49.4483 12.4 49.8416 12.4933 50.1883 12.68C50.5349 12.8667 50.8016 13.1367 50.9883 13.49C51.1549 13.1567 51.4149 12.8933 51.7683 12.7C52.1216 12.5 52.5016 12.4 52.9083 12.4ZM61.6789 15.11C61.6789 15.3167 61.6656 15.5033 61.6389 15.67H57.4289C57.4622 16.11 57.6256 16.4633 57.9189 16.73C58.2122 16.9967 58.5722 17.13 58.9989 17.13C59.6122 17.13 60.0456 16.8733 60.2989 16.36H61.5289C61.3622 16.8667 61.0589 17.2833 60.6189 17.61C60.1856 17.93 59.6456 18.09 58.9989 18.09C58.4722 18.09 57.9989 17.9733 57.5789 17.74C57.1656 17.5 56.8389 17.1667 56.5989 16.74C56.3656 16.3067 56.2489 15.8067 56.2489 15.24C56.2489 14.6733 56.3622 14.1767 56.5889 13.75C56.8222 13.3167 57.1456 12.9833 57.5589 12.75C57.9789 12.5167 58.4589 12.4 58.9989 12.4C59.5189 12.4 59.9822 12.5133 60.3889 12.74C60.7956 12.9667 61.1122 13.2867 61.3389 13.7C61.5656 14.1067 61.6789 14.5767 61.6789 15.11ZM60.4889 14.75C60.4822 14.33 60.3322 13.9933 60.0389 13.74C59.7456 13.4867 59.3822 13.36 58.9489 13.36C58.5556 13.36 58.2189 13.4867 57.9389 13.74C57.6589 13.9867 57.4922 14.3233 57.4389 14.75H60.4889ZM63.2608 18.07C63.0541 18.07 62.8808 18 62.7408 17.86C62.6008 17.72 62.5308 17.5467 62.5308 17.34C62.5308 17.1333 62.6008 16.96 62.7408 16.82C62.8808 16.68 63.0541 16.61 63.2608 16.61C63.4608 16.61 63.6308 16.68 63.7708 16.82C63.9108 16.96 63.9808 17.1333 63.9808 17.34C63.9808 17.5467 63.9108 17.72 63.7708 17.86C63.6308 18 63.4608 18.07 63.2608 18.07ZM70.2629 15.11C70.2629 15.3167 70.2496 15.5033 70.2229 15.67H66.0129C66.0462 16.11 66.2096 16.4633 66.5029 16.73C66.7962 16.9967 67.1562 17.13 67.5829 17.13C68.1962 17.13 68.6296 16.8733 68.8829 16.36H70.1129C69.9462 16.8667 69.6429 17.2833 69.2029 17.61C68.7696 17.93 68.2296 18.09 67.5829 18.09C67.0562 18.09 66.5829 17.9733 66.1629 17.74C65.7496 17.5 65.4229 17.1667 65.1829 16.74C64.9496 16.3067 64.8329 15.8067 64.8329 15.24C64.8329 14.6733 64.9462 14.1767 65.1729 13.75C65.4062 13.3167 65.7296 12.9833 66.1429 12.75C66.5629 12.5167 67.0429 12.4 67.5829 12.4C68.1029 12.4 68.5662 12.5133 68.9729 12.74C69.3796 12.9667 69.6962 13.2867 69.9229 13.7C70.1496 14.1067 70.2629 14.5767 70.2629 15.11ZM69.0729 14.75C69.0662 14.33 68.9162 13.9933 68.6229 13.74C68.3296 13.4867 67.9662 13.36 67.5329 13.36C67.1396 13.36 66.8029 13.4867 66.5229 13.74C66.2429 13.9867 66.0762 14.3233 66.0229 14.75H69.0729ZM73.7448 15.21L75.5248 18H74.2348L73.0448 16.13L71.9248 18H70.7348L72.5148 15.29L70.7348 12.49H72.0248L73.2148 14.36L74.3348 12.49H75.5248L73.7448 15.21ZM77.705 13.42V16.47C77.705 16.6767 77.7517 16.8267 77.845 16.92C77.945 17.0067 78.1117 17.05 78.345 17.05H79.045V18H78.145C77.6317 18 77.2383 17.88 76.965 17.64C76.6917 17.4 76.555 17.01 76.555 16.47V13.42H75.905V12.49H76.555V11.12H77.705V12.49H79.045V13.42H77.705ZM85.1457 15.11C85.1457 15.3167 85.1324 15.5033 85.1057 15.67H80.8957C80.929 16.11 81.0924 16.4633 81.3857 16.73C81.679 16.9967 82.039 17.13 82.4657 17.13C83.079 17.13 83.5124 16.8733 83.7657 16.36H84.9957C84.829 16.8667 84.5257 17.2833 84.0857 17.61C83.6524 17.93 83.1124 18.09 82.4657 18.09C81.939 18.09 81.4657 17.9733 81.0457 17.74C80.6324 17.5 80.3057 17.1667 80.0657 16.74C79.8324 16.3067 79.7157 15.8067 79.7157 15.24C79.7157 14.6733 79.829 14.1767 80.0557 13.75C80.289 13.3167 80.6124 12.9833 81.0257 12.75C81.4457 12.5167 81.9257 12.4 82.4657 12.4C82.9857 12.4 83.449 12.5133 83.8557 12.74C84.2624 12.9667 84.579 13.2867 84.8057 13.7C85.0324 14.1067 85.1457 14.5767 85.1457 15.11ZM83.9557 14.75C83.949 14.33 83.799 13.9933 83.5057 13.74C83.2124 13.4867 82.849 13.36 82.4157 13.36C82.0224 13.36 81.6857 13.4867 81.4057 13.74C81.1257 13.9867 80.959 14.3233 80.9057 14.75H83.9557ZM89.0476 12.4C89.4809 12.4 89.8676 12.49 90.2076 12.67C90.5542 12.85 90.8242 13.1167 91.0176 13.47C91.2109 13.8233 91.3076 14.25 91.3076 14.75V18H90.1776V14.92C90.1776 14.4267 90.0542 14.05 89.8076 13.79C89.5609 13.5233 89.2242 13.39 88.7976 13.39C88.3709 13.39 88.0309 13.5233 87.7776 13.79C87.5309 14.05 87.4076 14.4267 87.4076 14.92V18H86.2676V12.49H87.4076V13.12C87.5942 12.8933 87.8309 12.7167 88.1176 12.59C88.4109 12.4633 88.7209 12.4 89.0476 12.4ZM94.7617 18.09C94.3284 18.09 93.9384 18.0133 93.5917 17.86C93.2517 17.7 92.9817 17.4867 92.7817 17.22C92.5817 16.9467 92.4751 16.6433 92.4617 16.31H93.6417C93.6617 16.5433 93.7717 16.74 93.9717 16.9C94.1784 17.0533 94.4351 17.13 94.7417 17.13C95.0617 17.13 95.3084 17.07 95.4817 16.95C95.6617 16.8233 95.7517 16.6633 95.7517 16.47C95.7517 16.2633 95.6517 16.11 95.4517 16.01C95.2584 15.91 94.9484 15.8 94.5217 15.68C94.1084 15.5667 93.7717 15.4567 93.5117 15.35C93.2517 15.2433 93.0251 15.08 92.8317 14.86C92.6451 14.64 92.5517 14.35 92.5517 13.99C92.5517 13.6967 92.6384 13.43 92.8117 13.19C92.9851 12.9433 93.2317 12.75 93.5517 12.61C93.8784 12.47 94.2517 12.4 94.6717 12.4C95.2984 12.4 95.8017 12.56 96.1817 12.88C96.5684 13.1933 96.7751 13.6233 96.8017 14.17H95.6617C95.6417 13.9233 95.5417 13.7267 95.3617 13.58C95.1817 13.4333 94.9384 13.36 94.6317 13.36C94.3317 13.36 94.1017 13.4167 93.9417 13.53C93.7817 13.6433 93.7017 13.7933 93.7017 13.98C93.7017 14.1267 93.7551 14.25 93.8617 14.35C93.9684 14.45 94.0984 14.53 94.2517 14.59C94.4051 14.6433 94.6317 14.7133 94.9317 14.8C95.3317 14.9067 95.6584 15.0167 95.9117 15.13C96.1717 15.2367 96.3951 15.3967 96.5817 15.61C96.7684 15.8233 96.8651 16.1067 96.8717 16.46C96.8717 16.7733 96.7851 17.0533 96.6117 17.3C96.4384 17.5467 96.1917 17.74 95.8717 17.88C95.5584 18.02 95.1884 18.09 94.7617 18.09ZM98.6835 11.76C98.4768 11.76 98.3035 11.69 98.1635 11.55C98.0235 11.41 97.9535 11.2367 97.9535 11.03C97.9535 10.8233 98.0235 10.65 98.1635 10.51C98.3035 10.37 98.4768 10.3 98.6835 10.3C98.8835 10.3 99.0535 10.37 99.1935 10.51C99.3335 10.65 99.4035 10.8233 99.4035 11.03C99.4035 11.2367 99.3335 11.41 99.1935 11.55C99.0535 11.69 98.8835 11.76 98.6835 11.76ZM99.2435 12.49V18H98.1035V12.49H99.2435ZM103.13 18.09C102.61 18.09 102.14 17.9733 101.72 17.74C101.3 17.5 100.97 17.1667 100.73 16.74C100.49 16.3067 100.37 15.8067 100.37 15.24C100.37 14.68 100.494 14.1833 100.74 13.75C100.987 13.3167 101.324 12.9833 101.75 12.75C102.177 12.5167 102.654 12.4 103.18 12.4C103.707 12.4 104.184 12.5167 104.61 12.75C105.037 12.9833 105.374 13.3167 105.62 13.75C105.867 14.1833 105.99 14.68 105.99 15.24C105.99 15.8 105.864 16.2967 105.61 16.73C105.357 17.1633 105.01 17.5 104.57 17.74C104.137 17.9733 103.657 18.09 103.13 18.09ZM103.13 17.1C103.424 17.1 103.697 17.03 103.95 16.89C104.21 16.75 104.42 16.54 104.58 16.26C104.74 15.98 104.82 15.64 104.82 15.24C104.82 14.84 104.744 14.5033 104.59 14.23C104.437 13.95 104.234 13.74 103.98 13.6C103.727 13.46 103.454 13.39 103.16 13.39C102.867 13.39 102.594 13.46 102.34 13.6C102.094 13.74 101.897 13.95 101.75 14.23C101.604 14.5033 101.53 14.84 101.53 15.24C101.53 15.8333 101.68 16.2933 101.98 16.62C102.287 16.94 102.67 17.1 103.13 17.1ZM109.897 12.4C110.331 12.4 110.717 12.49 111.057 12.67C111.404 12.85 111.674 13.1167 111.867 13.47C112.061 13.8233 112.157 14.25 112.157 14.75V18H111.027V14.92C111.027 14.4267 110.904 14.05 110.657 13.79C110.411 13.5233 110.074 13.39 109.647 13.39C109.221 13.39 108.881 13.5233 108.627 13.79C108.381 14.05 108.257 14.4267 108.257 14.92V18H107.117V12.49H108.257V13.12C108.444 12.8933 108.681 12.7167 108.967 12.59C109.261 12.4633 109.571 12.4 109.897 12.4ZM116.221 19.86H114.141V18.91H115.151V9.6H114.141V8.66H116.221V19.86Z" fill="white"/>
</svg>
