<svg width="450" height="360" viewBox="0 0 450 360" fill="none" xmlns="http://www.w3.org/2000/svg">
<rect width="450" height="40" rx="15" fill="black" fill-opacity="0.1"/>
<path d="M26.288 15.66V16.776H24.068V24H22.7V16.776H20.468V15.66H26.288ZM33.7334 20.532C33.7334 20.78 33.7174 21.004 33.6854 21.204H28.6334C28.6734 21.732 28.8694 22.156 29.2214 22.476C29.5734 22.796 30.0054 22.956 30.5174 22.956C31.2534 22.956 31.7734 22.648 32.0774 22.032H33.5534C33.3534 22.64 32.9894 23.14 32.4614 23.532C31.9414 23.916 31.2934 24.108 30.5174 24.108C29.8854 24.108 29.3174 23.968 28.8134 23.688C28.3174 23.4 27.9254 23 27.6374 22.488C27.3574 21.968 27.2174 21.368 27.2174 20.688C27.2174 20.008 27.3534 19.412 27.6254 18.9C27.9054 18.38 28.2934 17.98 28.7894 17.7C29.2934 17.42 29.8694 17.28 30.5174 17.28C31.1414 17.28 31.6974 17.416 32.1854 17.688C32.6734 17.96 33.0534 18.344 33.3254 18.84C33.5974 19.328 33.7334 19.892 33.7334 20.532ZM32.3054 20.1C32.2974 19.596 32.1174 19.192 31.7654 18.888C31.4134 18.584 30.9774 18.432 30.4574 18.432C29.9854 18.432 29.5814 18.584 29.2454 18.888C28.9094 19.184 28.7094 19.588 28.6454 20.1H32.3054ZM43.0837 17.28C43.6037 17.28 44.0677 17.388 44.4757 17.604C44.8917 17.82 45.2157 18.14 45.4477 18.564C45.6877 18.988 45.8077 19.5 45.8077 20.1V24H44.4517V20.304C44.4517 19.712 44.3037 19.26 44.0077 18.948C43.7117 18.628 43.3077 18.468 42.7957 18.468C42.2837 18.468 41.8757 18.628 41.5717 18.948C41.2757 19.26 41.1277 19.712 41.1277 20.304V24H39.7717V20.304C39.7717 19.712 39.6237 19.26 39.3277 18.948C39.0317 18.628 38.6277 18.468 38.1157 18.468C37.6037 18.468 37.1957 18.628 36.8917 18.948C36.5957 19.26 36.4477 19.712 36.4477 20.304V24H35.0797V17.388H36.4477V18.144C36.6717 17.872 36.9557 17.66 37.2997 17.508C37.6437 17.356 38.0117 17.28 38.4037 17.28C38.9317 17.28 39.4037 17.392 39.8197 17.616C40.2357 17.84 40.5557 18.164 40.7797 18.588C40.9797 18.188 41.2917 17.872 41.7157 17.64C42.1397 17.4 42.5957 17.28 43.0837 17.28ZM48.9164 18.36C49.1484 18.056 49.4644 17.8 49.8644 17.592C50.2644 17.384 50.7164 17.28 51.2204 17.28C51.7964 17.28 52.3204 17.424 52.7924 17.712C53.2724 17.992 53.6484 18.388 53.9204 18.9C54.1924 19.412 54.3284 20 54.3284 20.664C54.3284 21.328 54.1924 21.924 53.9204 22.452C53.6484 22.972 53.2724 23.38 52.7924 23.676C52.3204 23.964 51.7964 24.108 51.2204 24.108C50.7164 24.108 50.2684 24.008 49.8764 23.808C49.4844 23.6 49.1644 23.344 48.9164 23.04V27.144H47.5484V17.388H48.9164V18.36ZM52.9364 20.664C52.9364 20.208 52.8404 19.816 52.6484 19.488C52.4644 19.152 52.2164 18.9 51.9044 18.732C51.6004 18.556 51.2724 18.468 50.9204 18.468C50.5764 18.468 50.2484 18.556 49.9364 18.732C49.6324 18.908 49.3844 19.164 49.1924 19.5C49.0084 19.836 48.9164 20.232 48.9164 20.688C48.9164 21.144 49.0084 21.544 49.1924 21.888C49.3844 22.224 49.6324 22.48 49.9364 22.656C50.2484 22.832 50.5764 22.92 50.9204 22.92C51.2724 22.92 51.6004 22.832 51.9044 22.656C52.2164 22.472 52.4644 22.208 52.6484 21.864C52.8404 21.52 52.9364 21.12 52.9364 20.664ZM61.7413 20.532C61.7413 20.78 61.7253 21.004 61.6933 21.204H56.6413C56.6813 21.732 56.8773 22.156 57.2293 22.476C57.5813 22.796 58.0133 22.956 58.5253 22.956C59.2613 22.956 59.7813 22.648 60.0853 22.032H61.5612C61.3613 22.64 60.9973 23.14 60.4693 23.532C59.9493 23.916 59.3013 24.108 58.5253 24.108C57.8933 24.108 57.3253 23.968 56.8213 23.688C56.3253 23.4 55.9333 23 55.6453 22.488C55.3653 21.968 55.2253 21.368 55.2253 20.688C55.2253 20.008 55.3613 19.412 55.6333 18.9C55.9133 18.38 56.3013 17.98 56.7973 17.7C57.3013 17.42 57.8773 17.28 58.5253 17.28C59.1493 17.28 59.7053 17.416 60.1933 17.688C60.6813 17.96 61.0613 18.344 61.3333 18.84C61.6053 19.328 61.7413 19.892 61.7413 20.532ZM60.3133 20.1C60.3053 19.596 60.1253 19.192 59.7733 18.888C59.4213 18.584 58.9853 18.432 58.4653 18.432C57.9933 18.432 57.5893 18.584 57.2533 18.888C56.9173 19.184 56.7173 19.588 56.6533 20.1H60.3133ZM64.4555 18.348C64.6555 18.012 64.9195 17.752 65.2475 17.568C65.5835 17.376 65.9795 17.28 66.4355 17.28V18.696H66.0875C65.5515 18.696 65.1435 18.832 64.8635 19.104C64.5915 19.376 64.4555 19.848 64.4555 20.52V24H63.0875V17.388H64.4555V18.348ZM67.237 20.664C67.237 20 67.373 19.412 67.645 18.9C67.925 18.388 68.301 17.992 68.773 17.712C69.253 17.424 69.781 17.28 70.357 17.28C70.877 17.28 71.329 17.384 71.713 17.592C72.105 17.792 72.417 18.044 72.649 18.348V17.388H74.029V24H72.649V23.016C72.417 23.328 72.101 23.588 71.701 23.796C71.301 24.004 70.845 24.108 70.333 24.108C69.765 24.108 69.245 23.964 68.773 23.676C68.301 23.38 67.925 22.972 67.645 22.452C67.373 21.924 67.237 21.328 67.237 20.664ZM72.649 20.688C72.649 20.232 72.553 19.836 72.361 19.5C72.177 19.164 71.933 18.908 71.629 18.732C71.325 18.556 70.997 18.468 70.645 18.468C70.293 18.468 69.965 18.556 69.661 18.732C69.357 18.9 69.109 19.152 68.917 19.488C68.733 19.816 68.641 20.208 68.641 20.664C68.641 21.12 68.733 21.52 68.917 21.864C69.109 22.208 69.357 22.472 69.661 22.656C69.973 22.832 70.301 22.92 70.645 22.92C70.997 22.92 71.325 22.832 71.629 22.656C71.933 22.48 72.177 22.224 72.361 21.888C72.553 21.544 72.649 21.144 72.649 20.688ZM77.1938 18.348C77.3938 18.012 77.6578 17.752 77.9858 17.568C78.3218 17.376 78.7178 17.28 79.1738 17.28V18.696H78.8258C78.2898 18.696 77.8818 18.832 77.6018 19.104C77.3298 19.376 77.1938 19.848 77.1938 20.52V24H75.8258V17.388H77.1938V18.348ZM86.4913 20.532C86.4913 20.78 86.4753 21.004 86.4433 21.204H81.3913C81.4313 21.732 81.6273 22.156 81.9793 22.476C82.3313 22.796 82.7633 22.956 83.2753 22.956C84.0113 22.956 84.5313 22.648 84.8353 22.032H86.3112C86.1113 22.64 85.7473 23.14 85.2193 23.532C84.6993 23.916 84.0513 24.108 83.2753 24.108C82.6433 24.108 82.0753 23.968 81.5713 23.688C81.0753 23.4 80.6833 23 80.3953 22.488C80.1153 21.968 79.9753 21.368 79.9753 20.688C79.9753 20.008 80.1113 19.412 80.3833 18.9C80.6633 18.38 81.0513 17.98 81.5473 17.7C82.0513 17.42 82.6273 17.28 83.2753 17.28C83.8993 17.28 84.4553 17.416 84.9433 17.688C85.4313 17.96 85.8113 18.344 86.0833 18.84C86.3553 19.328 86.4913 19.892 86.4913 20.532ZM85.0633 20.1C85.0553 19.596 84.8753 19.192 84.5233 18.888C84.1713 18.584 83.7353 18.432 83.2153 18.432C82.7433 18.432 82.3393 18.584 82.0033 18.888C81.6673 19.184 81.4673 19.588 81.4033 20.1H85.0633Z" fill="black"/>
<path d="M231.89 17.05V24H230.75V17.05H231.89ZM235.387 24.09C234.953 24.09 234.563 24.0133 234.217 23.86C233.877 23.7 233.607 23.4867 233.407 23.22C233.207 22.9467 233.1 22.6433 233.087 22.31H234.267C234.287 22.5433 234.397 22.74 234.597 22.9C234.803 23.0533 235.06 23.13 235.367 23.13C235.687 23.13 235.933 23.07 236.107 22.95C236.287 22.8233 236.377 22.6633 236.377 22.47C236.377 22.2633 236.277 22.11 236.077 22.01C235.883 21.91 235.573 21.8 235.147 21.68C234.733 21.5667 234.397 21.4567 234.137 21.35C233.877 21.2433 233.65 21.08 233.457 20.86C233.27 20.64 233.177 20.35 233.177 19.99C233.177 19.6967 233.263 19.43 233.437 19.19C233.61 18.9433 233.857 18.75 234.177 18.61C234.503 18.47 234.877 18.4 235.297 18.4C235.923 18.4 236.427 18.56 236.807 18.88C237.193 19.1933 237.4 19.6233 237.427 20.17H236.287C236.267 19.9233 236.167 19.7267 235.987 19.58C235.807 19.4333 235.563 19.36 235.257 19.36C234.957 19.36 234.727 19.4167 234.567 19.53C234.407 19.6433 234.327 19.7933 234.327 19.98C234.327 20.1267 234.38 20.25 234.487 20.35C234.593 20.45 234.723 20.53 234.877 20.59C235.03 20.6433 235.257 20.7133 235.557 20.8C235.957 20.9067 236.283 21.0167 236.537 21.13C236.797 21.2367 237.02 21.3967 237.207 21.61C237.393 21.8233 237.49 22.1067 237.497 22.46C237.497 22.7733 237.41 23.0533 237.237 23.3C237.063 23.5467 236.817 23.74 236.497 23.88C236.183 24.02 235.813 24.09 235.387 24.09ZM241.119 24.09C240.599 24.09 240.129 23.9733 239.709 23.74C239.289 23.5 238.959 23.1667 238.719 22.74C238.479 22.3067 238.359 21.8067 238.359 21.24C238.359 20.68 238.482 20.1833 238.729 19.75C238.975 19.3167 239.312 18.9833 239.739 18.75C240.165 18.5167 240.642 18.4 241.169 18.4C241.695 18.4 242.172 18.5167 242.599 18.75C243.025 18.9833 243.362 19.3167 243.609 19.75C243.855 20.1833 243.979 20.68 243.979 21.24C243.979 21.8 243.852 22.2967 243.599 22.73C243.345 23.1633 242.999 23.5 242.559 23.74C242.125 23.9733 241.645 24.09 241.119 24.09ZM241.119 23.1C241.412 23.1 241.685 23.03 241.939 22.89C242.199 22.75 242.409 22.54 242.569 22.26C242.729 21.98 242.809 21.64 242.809 21.24C242.809 20.84 242.732 20.5033 242.579 20.23C242.425 19.95 242.222 19.74 241.969 19.6C241.715 19.46 241.442 19.39 241.149 19.39C240.855 19.39 240.582 19.46 240.329 19.6C240.082 19.74 239.885 19.95 239.739 20.23C239.592 20.5033 239.519 20.84 239.519 21.24C239.519 21.8333 239.669 22.2933 239.969 22.62C240.275 22.94 240.659 23.1 241.119 23.1ZM246.245 16.6V24H245.105V16.6H246.245ZM247.362 21.22C247.362 20.6667 247.476 20.1767 247.702 19.75C247.936 19.3233 248.249 18.9933 248.642 18.76C249.042 18.52 249.482 18.4 249.962 18.4C250.396 18.4 250.772 18.4867 251.092 18.66C251.419 18.8267 251.679 19.0367 251.872 19.29V18.49H253.022V24H251.872V23.18C251.679 23.44 251.416 23.6567 251.082 23.83C250.749 24.0033 250.369 24.09 249.942 24.09C249.469 24.09 249.036 23.97 248.642 23.73C248.249 23.4833 247.936 23.1433 247.702 22.71C247.476 22.27 247.362 21.7733 247.362 21.22ZM251.872 21.24C251.872 20.86 251.792 20.53 251.632 20.25C251.479 19.97 251.276 19.7567 251.022 19.61C250.769 19.4633 250.496 19.39 250.202 19.39C249.909 19.39 249.636 19.4633 249.382 19.61C249.129 19.75 248.922 19.96 248.762 20.24C248.609 20.5133 248.532 20.84 248.532 21.22C248.532 21.6 248.609 21.9333 248.762 22.22C248.922 22.5067 249.129 22.7267 249.382 22.88C249.642 23.0267 249.916 23.1 250.202 23.1C250.496 23.1 250.769 23.0267 251.022 22.88C251.276 22.7333 251.479 22.52 251.632 22.24C251.792 21.9533 251.872 21.62 251.872 21.24ZM255.85 19.42V22.47C255.85 22.6767 255.896 22.8267 255.99 22.92C256.09 23.0067 256.256 23.05 256.49 23.05H257.19V24H256.29C255.776 24 255.383 23.88 255.11 23.64C254.836 23.4 254.7 23.01 254.7 22.47V19.42H254.05V18.49H254.7V17.12H255.85V18.49H257.19V19.42H255.85ZM263.29 21.11C263.29 21.3167 263.277 21.5033 263.25 21.67H259.04C259.074 22.11 259.237 22.4633 259.53 22.73C259.824 22.9967 260.184 23.13 260.61 23.13C261.224 23.13 261.657 22.8733 261.91 22.36H263.14C262.974 22.8667 262.67 23.2833 262.23 23.61C261.797 23.93 261.257 24.09 260.61 24.09C260.084 24.09 259.61 23.9733 259.19 23.74C258.777 23.5 258.45 23.1667 258.21 22.74C257.977 22.3067 257.86 21.8067 257.86 21.24C257.86 20.6733 257.974 20.1767 258.2 19.75C258.434 19.3167 258.757 18.9833 259.17 18.75C259.59 18.5167 260.07 18.4 260.61 18.4C261.13 18.4 261.594 18.5133 262 18.74C262.407 18.9667 262.724 19.2867 262.95 19.7C263.177 20.1067 263.29 20.5767 263.29 21.11ZM262.1 20.75C262.094 20.33 261.944 19.9933 261.65 19.74C261.357 19.4867 260.994 19.36 260.56 19.36C260.167 19.36 259.83 19.4867 259.55 19.74C259.27 19.9867 259.104 20.3233 259.05 20.75H262.1ZM264.032 21.22C264.032 20.6667 264.145 20.1767 264.372 19.75C264.605 19.3233 264.919 18.9933 265.312 18.76C265.712 18.52 266.155 18.4 266.642 18.4C267.002 18.4 267.355 18.48 267.702 18.64C268.055 18.7933 268.335 19 268.542 19.26V16.6H269.692V24H268.542V23.17C268.355 23.4367 268.095 23.6567 267.762 23.83C267.435 24.0033 267.059 24.09 266.632 24.09C266.152 24.09 265.712 23.97 265.312 23.73C264.919 23.4833 264.605 23.1433 264.372 22.71C264.145 22.27 264.032 21.7733 264.032 21.22ZM268.542 21.24C268.542 20.86 268.462 20.53 268.302 20.25C268.149 19.97 267.945 19.7567 267.692 19.61C267.439 19.4633 267.165 19.39 266.872 19.39C266.579 19.39 266.305 19.4633 266.052 19.61C265.799 19.75 265.592 19.96 265.432 20.24C265.279 20.5133 265.202 20.84 265.202 21.22C265.202 21.6 265.279 21.9333 265.432 22.22C265.592 22.5067 265.799 22.7267 266.052 22.88C266.312 23.0267 266.585 23.1 266.872 23.1C267.165 23.1 267.439 23.0267 267.692 22.88C267.945 22.7333 268.149 22.52 268.302 22.24C268.462 21.9533 268.542 21.62 268.542 21.24Z" fill="#808080"/>
<path d="M409.369 18.51C409.409 17.89 409.646 17.4067 410.079 17.06C410.519 16.7133 411.079 16.54 411.759 16.54C412.226 16.54 412.629 16.6233 412.969 16.79C413.309 16.9567 413.566 17.1833 413.739 17.47C413.912 17.7567 413.999 18.08 413.999 18.44C413.999 18.8533 413.889 19.2067 413.669 19.5C413.449 19.7933 413.186 19.99 412.879 20.09V20.13C413.272 20.25 413.579 20.47 413.799 20.79C414.019 21.1033 414.129 21.5067 414.129 22C414.129 22.3933 414.039 22.7433 413.859 23.05C413.679 23.3567 413.412 23.6 413.059 23.78C412.706 23.9533 412.282 24.04 411.789 24.04C411.069 24.04 410.476 23.8567 410.009 23.49C409.549 23.1167 409.302 22.5833 409.269 21.89H410.369C410.396 22.2433 410.532 22.5333 410.779 22.76C411.026 22.98 411.359 23.09 411.779 23.09C412.186 23.09 412.499 22.98 412.719 22.76C412.939 22.5333 413.049 22.2433 413.049 21.89C413.049 21.4233 412.899 21.0933 412.599 20.9C412.306 20.7 411.852 20.6 411.239 20.6H410.979V19.66H411.249C411.789 19.6533 412.199 19.5633 412.479 19.39C412.766 19.2167 412.909 18.9433 412.909 18.57C412.909 18.25 412.806 17.9967 412.599 17.81C412.392 17.6167 412.099 17.52 411.719 17.52C411.346 17.52 411.056 17.6167 410.849 17.81C410.642 17.9967 410.519 18.23 410.479 18.51H409.369ZM415.937 24.07C415.73 24.07 415.557 24 415.417 23.86C415.277 23.72 415.207 23.5467 415.207 23.34C415.207 23.1333 415.277 22.96 415.417 22.82C415.557 22.68 415.73 22.61 415.937 22.61C416.137 22.61 416.307 22.68 416.447 22.82C416.587 22.96 416.657 23.1333 416.657 23.34C416.657 23.5467 416.587 23.72 416.447 23.86C416.307 24 416.137 24.07 415.937 24.07ZM415.937 19.87C415.73 19.87 415.557 19.8 415.417 19.66C415.277 19.52 415.207 19.3467 415.207 19.14C415.207 18.9333 415.277 18.76 415.417 18.62C415.557 18.48 415.73 18.41 415.937 18.41C416.137 18.41 416.307 18.48 416.447 18.62C416.587 18.76 416.657 18.9333 416.657 19.14C416.657 19.3467 416.587 19.52 416.447 19.66C416.307 19.8 416.137 19.87 415.937 19.87ZM417.778 20.26C417.778 19.1067 417.971 18.2067 418.358 17.56C418.751 16.9067 419.424 16.58 420.378 16.58C421.331 16.58 422.001 16.9067 422.388 17.56C422.781 18.2067 422.978 19.1067 422.978 20.26C422.978 21.4267 422.781 22.34 422.388 23C422.001 23.6533 421.331 23.98 420.378 23.98C419.424 23.98 418.751 23.6533 418.358 23C417.971 22.34 417.778 21.4267 417.778 20.26ZM421.858 20.26C421.858 19.72 421.821 19.2633 421.748 18.89C421.681 18.5167 421.541 18.2133 421.328 17.98C421.114 17.74 420.798 17.62 420.378 17.62C419.958 17.62 419.641 17.74 419.428 17.98C419.214 18.2133 419.071 18.5167 418.998 18.89C418.931 19.2633 418.898 19.72 418.898 20.26C418.898 20.82 418.931 21.29 418.998 21.67C419.064 22.05 419.204 22.3567 419.418 22.59C419.638 22.8233 419.958 22.94 420.378 22.94C420.798 22.94 421.114 22.8233 421.328 22.59C421.548 22.3567 421.691 22.05 421.758 21.67C421.824 21.29 421.858 20.82 421.858 20.26ZM428.104 18.4C428.031 18.0933 427.897 17.8633 427.704 17.71C427.511 17.5567 427.241 17.48 426.894 17.48C426.367 17.48 425.974 17.6833 425.714 18.09C425.454 18.49 425.317 19.1567 425.304 20.09C425.477 19.7967 425.731 19.57 426.064 19.41C426.397 19.25 426.757 19.17 427.144 19.17C427.584 19.17 427.971 19.2667 428.304 19.46C428.644 19.6467 428.907 19.92 429.094 20.28C429.287 20.64 429.384 21.07 429.384 21.57C429.384 22.0367 429.291 22.4533 429.104 22.82C428.924 23.1867 428.654 23.4767 428.294 23.69C427.934 23.8967 427.501 24 426.994 24C426.307 24 425.767 23.85 425.374 23.55C424.987 23.2433 424.714 22.8133 424.554 22.26C424.401 21.7067 424.324 21.0167 424.324 20.19C424.324 17.75 425.184 16.53 426.904 16.53C427.571 16.53 428.094 16.71 428.474 17.07C428.861 17.43 429.087 17.8733 429.154 18.4H428.104ZM426.894 20.13C426.487 20.13 426.141 20.2533 425.854 20.5C425.574 20.74 425.434 21.09 425.434 21.55C425.434 22.01 425.564 22.3767 425.824 22.65C426.091 22.9167 426.461 23.05 426.934 23.05C427.354 23.05 427.684 22.92 427.924 22.66C428.171 22.4 428.294 22.0533 428.294 21.62C428.294 21.1667 428.174 20.8067 427.934 20.54C427.701 20.2667 427.354 20.13 426.894 20.13Z" fill="#808080"/>
</svg>
