<svg width="480" height="360" viewBox="0 0 480 360" fill="none" xmlns="http://www.w3.org/2000/svg">
<path d="M178.384 19.88V21.368H175.424V31H173.6V21.368H170.624V19.88H178.384ZM181.159 21.016C180.829 21.016 180.551 20.904 180.327 20.68C180.103 20.456 179.991 20.1787 179.991 19.848C179.991 19.5173 180.103 19.24 180.327 19.016C180.551 18.792 180.829 18.68 181.159 18.68C181.479 18.68 181.751 18.792 181.975 19.016C182.199 19.24 182.311 19.5173 182.311 19.848C182.311 20.1787 182.199 20.456 181.975 20.68C181.751 20.904 181.479 21.016 181.159 21.016ZM182.055 22.184V31H180.231V22.184H182.055ZM195.122 22.04C195.815 22.04 196.434 22.184 196.978 22.472C197.533 22.76 197.965 23.1867 198.274 23.752C198.594 24.3173 198.754 25 198.754 25.8V31H196.946V26.072C196.946 25.2827 196.749 24.68 196.354 24.264C195.959 23.8373 195.421 23.624 194.738 23.624C194.055 23.624 193.511 23.8373 193.106 24.264C192.711 24.68 192.514 25.2827 192.514 26.072V31H190.706V26.072C190.706 25.2827 190.509 24.68 190.114 24.264C189.719 23.8373 189.181 23.624 188.498 23.624C187.815 23.624 187.271 23.8373 186.866 24.264C186.471 24.68 186.274 25.2827 186.274 26.072V31H184.45V22.184H186.274V23.192C186.573 22.8293 186.951 22.5467 187.41 22.344C187.869 22.1413 188.359 22.04 188.882 22.04C189.586 22.04 190.215 22.1893 190.77 22.488C191.325 22.7867 191.751 23.2187 192.05 23.784C192.317 23.2507 192.733 22.8293 193.298 22.52C193.863 22.2 194.471 22.04 195.122 22.04ZM209.155 26.376C209.155 26.7067 209.134 27.0053 209.091 27.272H202.355C202.408 27.976 202.67 28.5413 203.139 28.968C203.608 29.3947 204.184 29.608 204.867 29.608C205.848 29.608 206.542 29.1973 206.947 28.376H208.915C208.648 29.1867 208.163 29.8533 207.459 30.376C206.766 30.888 205.902 31.144 204.867 31.144C204.024 31.144 203.267 30.9573 202.595 30.584C201.934 30.2 201.411 29.6667 201.027 28.984C200.654 28.2907 200.467 27.4907 200.467 26.584C200.467 25.6773 200.648 24.8827 201.011 24.2C201.384 23.5067 201.902 22.9733 202.563 22.6C203.235 22.2267 204.003 22.04 204.867 22.04C205.699 22.04 206.44 22.2213 207.091 22.584C207.742 22.9467 208.248 23.4587 208.611 24.12C208.974 24.7707 209.155 25.5227 209.155 26.376ZM207.251 25.8C207.24 25.128 207 24.5893 206.531 24.184C206.062 23.7787 205.48 23.576 204.787 23.576C204.158 23.576 203.619 23.7787 203.171 24.184C202.723 24.5787 202.456 25.1173 202.371 25.8H207.251ZM212.774 23.464C213.041 23.016 213.393 22.6693 213.83 22.424C214.278 22.168 214.806 22.04 215.414 22.04V23.928H214.95C214.235 23.928 213.691 24.1093 213.318 24.472C212.955 24.8347 212.774 25.464 212.774 26.36V31H210.95V22.184H212.774V23.464Z" fill="white"/>
<rect x="285" y="320" width="60" height="30" rx="15" fill="white" fill-opacity="0.1"/>
<path d="M304.902 339.084C304.342 339.084 303.838 338.988 303.39 338.796C302.942 338.596 302.59 338.316 302.334 337.956C302.078 337.596 301.95 337.176 301.95 336.696H303.414C303.446 337.056 303.586 337.352 303.834 337.584C304.09 337.816 304.446 337.932 304.902 337.932C305.374 337.932 305.742 337.82 306.006 337.596C306.27 337.364 306.402 337.068 306.402 336.708C306.402 336.428 306.318 336.2 306.15 336.024C305.99 335.848 305.786 335.712 305.538 335.616C305.298 335.52 304.962 335.416 304.53 335.304C303.986 335.16 303.542 335.016 303.198 334.872C302.862 334.72 302.574 334.488 302.334 334.176C302.094 333.864 301.974 333.448 301.974 332.928C301.974 332.448 302.094 332.028 302.334 331.668C302.574 331.308 302.91 331.032 303.342 330.84C303.774 330.648 304.274 330.552 304.842 330.552C305.65 330.552 306.31 330.756 306.822 331.164C307.342 331.564 307.63 332.116 307.686 332.82H306.174C306.15 332.516 306.006 332.256 305.742 332.04C305.478 331.824 305.13 331.716 304.698 331.716C304.306 331.716 303.986 331.816 303.738 332.016C303.49 332.216 303.366 332.504 303.366 332.88C303.366 333.136 303.442 333.348 303.594 333.516C303.754 333.676 303.954 333.804 304.194 333.9C304.434 333.996 304.762 334.1 305.178 334.212C305.73 334.364 306.178 334.516 306.522 334.668C306.874 334.82 307.17 335.056 307.41 335.376C307.658 335.688 307.782 336.108 307.782 336.636C307.782 337.06 307.666 337.46 307.434 337.836C307.21 338.212 306.878 338.516 306.438 338.748C306.006 338.972 305.494 339.084 304.902 339.084ZM310.992 333.504V337.164C310.992 337.412 311.048 337.592 311.16 337.704C311.28 337.808 311.48 337.86 311.76 337.86H312.6V339H311.52C310.904 339 310.432 338.856 310.104 338.568C309.776 338.28 309.612 337.812 309.612 337.164V333.504H308.832V332.388H309.612V330.744H310.992V332.388H312.6V333.504H310.992ZM316.729 339.108C316.105 339.108 315.541 338.968 315.037 338.688C314.533 338.4 314.137 338 313.849 337.488C313.561 336.968 313.417 336.368 313.417 335.688C313.417 335.016 313.565 334.42 313.861 333.9C314.157 333.38 314.561 332.98 315.073 332.7C315.585 332.42 316.157 332.28 316.789 332.28C317.421 332.28 317.993 332.42 318.505 332.7C319.017 332.98 319.421 333.38 319.717 333.9C320.013 334.42 320.161 335.016 320.161 335.688C320.161 336.36 320.009 336.956 319.705 337.476C319.401 337.996 318.985 338.4 318.457 338.688C317.937 338.968 317.361 339.108 316.729 339.108ZM316.729 337.92C317.081 337.92 317.409 337.836 317.713 337.668C318.025 337.5 318.277 337.248 318.469 336.912C318.661 336.576 318.757 336.168 318.757 335.688C318.757 335.208 318.665 334.804 318.481 334.476C318.297 334.14 318.053 333.888 317.749 333.72C317.445 333.552 317.117 333.468 316.765 333.468C316.413 333.468 316.085 333.552 315.781 333.72C315.485 333.888 315.249 334.14 315.073 334.476C314.897 334.804 314.809 335.208 314.809 335.688C314.809 336.4 314.989 336.952 315.349 337.344C315.717 337.728 316.177 337.92 316.729 337.92ZM322.881 333.36C323.113 333.056 323.429 332.8 323.829 332.592C324.229 332.384 324.681 332.28 325.185 332.28C325.761 332.28 326.285 332.424 326.757 332.712C327.237 332.992 327.613 333.388 327.885 333.9C328.157 334.412 328.293 335 328.293 335.664C328.293 336.328 328.157 336.924 327.885 337.452C327.613 337.972 327.237 338.38 326.757 338.676C326.285 338.964 325.761 339.108 325.185 339.108C324.681 339.108 324.233 339.008 323.841 338.808C323.449 338.6 323.129 338.344 322.881 338.04V342.144H321.513V332.388H322.881V333.36ZM326.901 335.664C326.901 335.208 326.805 334.816 326.613 334.488C326.429 334.152 326.181 333.9 325.869 333.732C325.565 333.556 325.237 333.468 324.885 333.468C324.541 333.468 324.213 333.556 323.901 333.732C323.597 333.908 323.349 334.164 323.157 334.5C322.973 334.836 322.881 335.232 322.881 335.688C322.881 336.144 322.973 336.544 323.157 336.888C323.349 337.224 323.597 337.48 323.901 337.656C324.213 337.832 324.541 337.92 324.885 337.92C325.237 337.92 325.565 337.832 325.869 337.656C326.181 337.472 326.429 337.208 326.613 336.864C326.805 336.52 326.901 336.12 326.901 335.664Z" fill="white"/>
</svg>
