<svg width="250" height="58" viewBox="0 0 250 58" fill="none" xmlns="http://www.w3.org/2000/svg">
<rect width="250" height="58" rx="5" fill="#E6E6E6"/>
<path d="M13.59 17.4C14.2767 17.4 14.8233 17.5933 15.23 17.98C15.6433 18.3667 15.85 18.8867 15.85 19.54C15.85 19.6933 15.8333 19.8767 15.8 20.09C15.7733 20.2367 15.7267 20.4167 15.66 20.63H11.45C11.4433 20.6767 11.44 20.7467 11.44 20.84C11.44 21.2333 11.56 21.5467 11.8 21.78C12.0467 22.0133 12.3667 22.13 12.76 22.13C13.38 22.13 13.8567 21.8733 14.19 21.36H15.42C15.1667 21.8667 14.7933 22.2833 14.3 22.61C13.8067 22.93 13.2367 23.09 12.59 23.09C12.13 23.09 11.7267 23 11.38 22.82C11.0333 22.64 10.7633 22.3833 10.57 22.05C10.3767 21.71 10.28 21.3133 10.28 20.86C10.28 20.6667 10.3 20.46 10.34 20.24C10.44 19.6733 10.6433 19.1767 10.95 18.75C11.2567 18.3167 11.6367 17.9833 12.09 17.75C12.55 17.5167 13.05 17.4 13.59 17.4ZM14.66 19.81C14.6733 19.69 14.68 19.6033 14.68 19.55C14.68 19.1833 14.5567 18.8933 14.31 18.68C14.07 18.4667 13.7567 18.36 13.37 18.36C12.9633 18.36 12.5967 18.49 12.27 18.75C11.9433 19.01 11.72 19.3633 11.6 19.81H14.66ZM19.2619 20.2L20.5419 23H19.2519L18.3919 21.13L16.9419 23H15.7519L18.0119 20.29L16.7219 17.49H18.0119L18.8719 19.36L20.3219 17.49H21.5119L19.2619 20.2ZM21.5021 20.22C21.6021 19.6667 21.8021 19.1767 22.1021 18.75C22.4088 18.3233 22.7821 17.9933 23.2221 17.76C23.6621 17.52 24.1221 17.4 24.6021 17.4C25.0354 17.4 25.3988 17.4867 25.6921 17.66C25.9854 17.8267 26.2054 18.0367 26.3521 18.29L26.4921 17.49H27.6421L26.6721 23H25.5221L25.6721 22.18C25.4321 22.44 25.1288 22.6567 24.7621 22.83C24.4021 23.0033 24.0088 23.09 23.5821 23.09C23.1688 23.09 22.7988 22.9967 22.4721 22.81C22.1521 22.6233 21.8988 22.36 21.7121 22.02C21.5321 21.6733 21.4421 21.2767 21.4421 20.83C21.4421 20.63 21.4621 20.4267 21.5021 20.22ZM26.0121 20.24C26.0388 20.1133 26.0521 19.9767 26.0521 19.83C26.0521 19.3833 25.9188 19.0333 25.6521 18.78C25.3921 18.52 25.0654 18.39 24.6721 18.39C24.3788 18.39 24.0921 18.4633 23.8121 18.61C23.5321 18.75 23.2888 18.96 23.0821 19.24C22.8754 19.5133 22.7388 19.84 22.6721 20.22C22.6454 20.3467 22.6321 20.4833 22.6321 20.63C22.6321 21.0833 22.7621 21.4433 23.0221 21.71C23.2888 21.97 23.6188 22.1 24.0121 22.1C24.3054 22.1 24.5921 22.0267 24.8721 21.88C25.1521 21.7333 25.3954 21.52 25.6021 21.24C25.8088 20.9533 25.9454 20.62 26.0121 20.24ZM35.8295 17.4C36.4095 17.4 36.8728 17.5567 37.2195 17.87C37.5661 18.1833 37.7395 18.6267 37.7395 19.2C37.7395 19.3533 37.7228 19.5367 37.6895 19.75L37.1095 23H35.9795L36.5295 19.92C36.5561 19.7333 36.5695 19.6 36.5695 19.52C36.5695 19.1533 36.4661 18.8733 36.2595 18.68C36.0595 18.4867 35.7795 18.39 35.4195 18.39C34.9861 18.39 34.6195 18.5233 34.3195 18.79C34.0261 19.05 33.8395 19.4267 33.7595 19.92L33.2095 23H32.0795L32.6295 19.92C32.6561 19.7333 32.6695 19.6 32.6695 19.52C32.6695 19.1533 32.5661 18.8733 32.3595 18.68C32.1595 18.4867 31.8795 18.39 31.5195 18.39C31.0861 18.39 30.7195 18.5233 30.4195 18.79C30.1261 19.05 29.9395 19.4267 29.8595 19.92V19.89L29.3095 23H28.1695L29.1395 17.49H30.2795L30.1695 18.13C30.3895 17.9033 30.6528 17.7267 30.9595 17.6C31.2728 17.4667 31.5961 17.4 31.9295 17.4C32.3695 17.4 32.7461 17.4933 33.0595 17.68C33.3795 17.8667 33.6028 18.1367 33.7295 18.49C33.9495 18.1567 34.2528 17.8933 34.6395 17.7C35.0261 17.5 35.4228 17.4 35.8295 17.4ZM40.5301 18.3C40.7701 18.0467 41.0701 17.8333 41.4301 17.66C41.7967 17.4867 42.1901 17.4 42.6101 17.4C43.0301 17.4 43.4034 17.49 43.7301 17.67C44.0567 17.85 44.3101 18.1067 44.4901 18.44C44.6701 18.7733 44.7601 19.1633 44.7601 19.61C44.7601 19.8033 44.7401 20.0067 44.7001 20.22C44.6001 20.7733 44.3967 21.27 44.0901 21.71C43.7901 22.1433 43.4201 22.4833 42.9801 22.73C42.5467 22.97 42.0901 23.09 41.6101 23.09C41.1901 23.09 40.8301 23.0067 40.5301 22.84C40.2367 22.6667 40.0067 22.4533 39.8401 22.2L39.2401 25.62H38.1001L39.5301 17.49H40.6701L40.5301 18.3ZM43.5401 20.22C43.5667 20.0933 43.5801 19.9567 43.5801 19.81C43.5801 19.3633 43.4467 19.0167 43.1801 18.77C42.9201 18.5167 42.5901 18.39 42.1901 18.39C41.9034 18.39 41.6167 18.4633 41.3301 18.61C41.0501 18.7567 40.8067 18.97 40.6001 19.25C40.3934 19.53 40.2567 19.86 40.1901 20.24C40.1634 20.3667 40.1501 20.5033 40.1501 20.65C40.1501 21.0967 40.2801 21.45 40.5401 21.71C40.8067 21.97 41.1367 22.1 41.5301 22.1C41.8234 22.1 42.1101 22.0267 42.3901 21.88C42.6767 21.7267 42.9234 21.5067 43.1301 21.22C43.3367 20.9333 43.4734 20.6 43.5401 20.22ZM47.7874 15.6L46.4774 23H45.3374L46.6474 15.6H47.7874ZM51.3341 17.4C52.0208 17.4 52.5675 17.5933 52.9741 17.98C53.3875 18.3667 53.5941 18.8867 53.5941 19.54C53.5941 19.6933 53.5775 19.8767 53.5441 20.09C53.5175 20.2367 53.4708 20.4167 53.4041 20.63H49.1941C49.1875 20.6767 49.1841 20.7467 49.1841 20.84C49.1841 21.2333 49.3041 21.5467 49.5441 21.78C49.7908 22.0133 50.1108 22.13 50.5041 22.13C51.1241 22.13 51.6008 21.8733 51.9341 21.36H53.1641C52.9108 21.8667 52.5375 22.2833 52.0441 22.61C51.5508 22.93 50.9808 23.09 50.3341 23.09C49.8741 23.09 49.4708 23 49.1241 22.82C48.7775 22.64 48.5075 22.3833 48.3141 22.05C48.1208 21.71 48.0241 21.3133 48.0241 20.86C48.0241 20.6667 48.0441 20.46 48.0841 20.24C48.1841 19.6733 48.3875 19.1767 48.6941 18.75C49.0008 18.3167 49.3808 17.9833 49.8341 17.75C50.2941 17.5167 50.7941 17.4 51.3341 17.4ZM52.4041 19.81C52.4175 19.69 52.4241 19.6033 52.4241 19.55C52.4241 19.1833 52.3008 18.8933 52.0541 18.68C51.8141 18.4667 51.5008 18.36 51.1141 18.36C50.7075 18.36 50.3408 18.49 50.0141 18.75C49.6875 19.01 49.4641 19.3633 49.3441 19.81H52.4041ZM59.0541 20.97C58.7341 20.97 58.4707 20.87 58.2641 20.67C58.0641 20.47 57.9641 20.2167 57.9641 19.91C57.9641 19.63 58.0374 19.3733 58.1841 19.14C58.3307 18.9 58.5241 18.71 58.7641 18.57C59.0041 18.43 59.2541 18.36 59.5141 18.36C59.8407 18.36 60.1074 18.46 60.3141 18.66C60.5207 18.86 60.6241 19.1167 60.6241 19.43C60.6241 19.7033 60.5507 19.96 60.4041 20.2C60.2574 20.4333 60.0607 20.62 59.8141 20.76C59.5741 20.9 59.3207 20.97 59.0541 20.97ZM64.8713 20.22C64.9713 19.6667 65.1713 19.1767 65.4713 18.75C65.7779 18.3233 66.1513 17.9933 66.5913 17.76C67.0313 17.52 67.4913 17.4 67.9713 17.4C68.4046 17.4 68.7679 17.4867 69.0613 17.66C69.3546 17.8267 69.5746 18.0367 69.7213 18.29L69.8613 17.49H71.0113L70.0412 23H68.8913L69.0413 22.18C68.8013 22.44 68.4979 22.6567 68.1313 22.83C67.7713 23.0033 67.3779 23.09 66.9513 23.09C66.5379 23.09 66.1679 22.9967 65.8413 22.81C65.5213 22.6233 65.2679 22.36 65.0813 22.02C64.9013 21.6733 64.8113 21.2767 64.8113 20.83C64.8113 20.63 64.8313 20.4267 64.8713 20.22ZM69.3813 20.24C69.4079 20.1133 69.4213 19.9767 69.4213 19.83C69.4213 19.3833 69.2879 19.0333 69.0213 18.78C68.7613 18.52 68.4346 18.39 68.0413 18.39C67.7479 18.39 67.4613 18.4633 67.1813 18.61C66.9013 18.75 66.6579 18.96 66.4513 19.24C66.2446 19.5133 66.1079 19.84 66.0413 20.22C66.0146 20.3467 66.0012 20.4833 66.0012 20.63C66.0012 21.0833 66.1313 21.4433 66.3913 21.71C66.6579 21.97 66.9879 22.1 67.3813 22.1C67.6746 22.1 67.9613 22.0267 68.2413 21.88C68.5213 21.7333 68.7646 21.52 68.9713 21.24C69.1779 20.9533 69.3146 20.62 69.3813 20.24ZM73.9886 15.6L72.6786 23H71.5386L72.8486 15.6H73.9886ZM74.2853 20.22C74.3853 19.6667 74.5853 19.1767 74.8853 18.75C75.192 18.3233 75.5653 17.9933 76.0053 17.76C76.4453 17.52 76.9053 17.4 77.3853 17.4C77.8186 17.4 78.182 17.4867 78.4753 17.66C78.7686 17.8267 78.9886 18.0367 79.1353 18.29L79.2753 17.49H80.4253L79.4553 23H78.3053L78.4553 22.18C78.2153 22.44 77.912 22.6567 77.5453 22.83C77.1853 23.0033 76.792 23.09 76.3653 23.09C75.952 23.09 75.582 22.9967 75.2553 22.81C74.9353 22.6233 74.682 22.36 74.4953 22.02C74.3153 21.6733 74.2253 21.2767 74.2253 20.83C74.2253 20.63 74.2453 20.4267 74.2853 20.22ZM78.7953 20.24C78.822 20.1133 78.8353 19.9767 78.8353 19.83C78.8353 19.3833 78.702 19.0333 78.4353 18.78C78.1753 18.52 77.8486 18.39 77.4553 18.39C77.162 18.39 76.8753 18.4633 76.5953 18.61C76.3153 18.75 76.072 18.96 75.8653 19.24C75.6586 19.5133 75.522 19.84 75.4553 20.22C75.4286 20.3467 75.4153 20.4833 75.4153 20.63C75.4153 21.0833 75.5453 21.4433 75.8053 21.71C76.072 21.97 76.402 22.1 76.7953 22.1C77.0886 22.1 77.3753 22.0267 77.6553 21.88C77.9353 21.7333 78.1786 21.52 78.3853 21.24C78.592 20.9533 78.7286 20.62 78.7953 20.24ZM82.8927 18.46C83.1193 18.1267 83.386 17.8667 83.6927 17.68C84.006 17.4933 84.3527 17.4 84.7327 17.4L84.5227 18.58H84.2327C83.7927 18.58 83.4393 18.69 83.1727 18.91C82.906 19.13 82.7193 19.51 82.6127 20.05L82.0927 23H80.9527L81.9227 17.49H83.0627L82.8927 18.46ZM92.4505 17.4C93.0305 17.4 93.4939 17.5567 93.8405 17.87C94.1872 18.1833 94.3605 18.6267 94.3605 19.2C94.3605 19.3533 94.3439 19.5367 94.3105 19.75L93.7305 23H92.6005L93.1505 19.92C93.1772 19.7333 93.1905 19.6 93.1905 19.52C93.1905 19.1533 93.0872 18.8733 92.8805 18.68C92.6805 18.4867 92.4005 18.39 92.0405 18.39C91.6072 18.39 91.2405 18.5233 90.9405 18.79C90.6472 19.05 90.4605 19.4267 90.3805 19.92L89.8305 23H88.7005L89.2505 19.92C89.2772 19.7333 89.2905 19.6 89.2905 19.52C89.2905 19.1533 89.1872 18.8733 88.9805 18.68C88.7805 18.4867 88.5005 18.39 88.1405 18.39C87.7072 18.39 87.3405 18.5233 87.0405 18.79C86.7472 19.05 86.5605 19.4267 86.4805 19.92V19.89L85.9305 23H84.7905L85.7605 17.49H86.9005L86.7905 18.13C87.0105 17.9033 87.2739 17.7267 87.5805 17.6C87.8939 17.4667 88.2172 17.4 88.5505 17.4C88.9905 17.4 89.3672 17.4933 89.6805 17.68C90.0005 17.8667 90.2239 18.1367 90.3505 18.49C90.5705 18.1567 90.8739 17.8933 91.2605 17.7C91.6472 17.5 92.0439 17.4 92.4505 17.4ZM99.7692 17.49L100.579 21.69L102.929 17.49H104.109L99.3092 25.59H98.1292L99.7192 22.91L98.4992 17.49H99.7692ZM107.36 17.4C108.046 17.4 108.593 17.5933 109 17.98C109.413 18.3667 109.62 18.8867 109.62 19.54C109.62 19.6933 109.603 19.8767 109.57 20.09C109.543 20.2367 109.496 20.4167 109.43 20.63H105.22C105.213 20.6767 105.21 20.7467 105.21 20.84C105.21 21.2333 105.33 21.5467 105.57 21.78C105.816 22.0133 106.136 22.13 106.53 22.13C107.15 22.13 107.626 21.8733 107.96 21.36H109.19C108.936 21.8667 108.563 22.2833 108.07 22.61C107.576 22.93 107.006 23.09 106.36 23.09C105.9 23.09 105.496 23 105.15 22.82C104.803 22.64 104.533 22.3833 104.34 22.05C104.146 21.71 104.05 21.3133 104.05 20.86C104.05 20.6667 104.07 20.46 104.11 20.24C104.21 19.6733 104.413 19.1767 104.72 18.75C105.026 18.3167 105.406 17.9833 105.86 17.75C106.32 17.5167 106.82 17.4 107.36 17.4ZM108.43 19.81C108.443 19.69 108.45 19.6033 108.45 19.55C108.45 19.1833 108.326 18.8933 108.08 18.68C107.84 18.4667 107.526 18.36 107.14 18.36C106.733 18.36 106.366 18.49 106.04 18.75C105.713 19.01 105.49 19.3633 105.37 19.81H108.43ZM112.201 23.09C111.821 23.09 111.475 23.0267 111.161 22.9C110.848 22.7667 110.601 22.5833 110.421 22.35C110.241 22.11 110.151 21.8367 110.151 21.53C110.151 21.4767 110.158 21.4033 110.171 21.31H111.281C111.255 21.5633 111.331 21.7733 111.511 21.94C111.691 22.1067 111.945 22.19 112.271 22.19C112.591 22.19 112.855 22.1333 113.061 22.02C113.268 21.9067 113.371 21.74 113.371 21.52C113.371 21.3333 113.285 21.1833 113.111 21.07C112.945 20.9567 112.675 20.83 112.301 20.69C111.948 20.55 111.661 20.42 111.441 20.3C111.221 20.18 111.031 20.0167 110.871 19.81C110.711 19.5967 110.631 19.3333 110.631 19.02C110.631 18.7 110.721 18.42 110.901 18.18C111.088 17.9333 111.345 17.7433 111.671 17.61C112.005 17.47 112.385 17.4 112.811 17.4C113.198 17.4 113.541 17.4667 113.841 17.6C114.148 17.7267 114.385 17.91 114.551 18.15C114.725 18.3833 114.811 18.6533 114.811 18.96C114.811 19.0533 114.808 19.1233 114.801 19.17H113.721C113.748 18.91 113.671 18.7 113.491 18.54C113.318 18.38 113.068 18.3 112.741 18.3C112.455 18.3 112.221 18.36 112.041 18.48C111.868 18.6 111.781 18.7633 111.781 18.97C111.781 19.1767 111.871 19.3433 112.051 19.47C112.231 19.59 112.508 19.7233 112.881 19.87C113.221 20.0033 113.498 20.13 113.711 20.25C113.925 20.37 114.108 20.53 114.261 20.73C114.415 20.93 114.491 21.18 114.491 21.48C114.491 21.8067 114.391 22.0933 114.191 22.34C113.998 22.58 113.728 22.7667 113.381 22.9C113.035 23.0267 112.641 23.09 112.201 23.09ZM119.281 16.94L119.471 15.9H121.551L120.291 23H119.141L120.211 16.94H119.281ZM127.677 16.69H124.327L123.977 18.68C124.151 18.4933 124.384 18.3367 124.677 18.21C124.977 18.0833 125.284 18.02 125.597 18.02C126.284 18.02 126.781 18.1967 127.087 18.55C127.401 18.9033 127.557 19.35 127.557 19.89C127.557 20.0633 127.541 20.25 127.507 20.45C127.374 21.21 127.047 21.8267 126.527 22.3C126.014 22.7667 125.351 23 124.537 23C123.811 23 123.261 22.82 122.887 22.46C122.514 22.1 122.334 21.6233 122.347 21.03H123.457C123.477 21.3433 123.597 21.5933 123.817 21.78C124.037 21.96 124.337 22.05 124.717 22.05C125.191 22.05 125.571 21.9067 125.857 21.62C126.144 21.3333 126.331 20.9533 126.417 20.48C126.444 20.3467 126.457 20.21 126.457 20.07C126.457 19.7233 126.354 19.4567 126.147 19.27C125.947 19.0833 125.651 18.99 125.257 18.99C124.931 18.99 124.641 19.0733 124.387 19.24C124.141 19.4 123.941 19.62 123.787 19.9H122.707L123.447 15.69H127.847L127.677 16.69ZM131.372 21.48L131.522 20.62L135.732 15.8H137.112L136.292 20.49H137.222L137.042 21.48H136.112L135.842 23H134.722L134.992 21.48H131.372ZM135.842 16.96L132.862 20.49H135.222L135.842 16.96ZM138.667 17.51C138.813 16.89 139.137 16.4067 139.637 16.06C140.137 15.7133 140.727 15.54 141.407 15.54C142.027 15.54 142.503 15.6833 142.837 15.97C143.17 16.2567 143.337 16.63 143.337 17.09C143.337 17.2033 143.327 17.32 143.307 17.44C143.233 17.8533 143.063 18.2067 142.797 18.5C142.53 18.7933 142.23 18.99 141.897 19.09V19.13C142.203 19.23 142.44 19.4 142.607 19.64C142.773 19.8733 142.857 20.1733 142.857 20.54C142.857 20.7067 142.843 20.86 142.817 21C142.71 21.6 142.417 22.09 141.937 22.47C141.463 22.85 140.857 23.04 140.117 23.04C139.463 23.04 138.94 22.8867 138.547 22.58C138.153 22.2667 137.957 21.82 137.957 21.24C137.957 21.0867 137.963 20.97 137.977 20.89H139.077C139.07 20.9233 139.067 20.9733 139.067 21.04C139.067 21.3533 139.17 21.6067 139.377 21.8C139.583 21.9933 139.88 22.09 140.267 22.09C140.68 22.09 141.017 21.98 141.277 21.76C141.537 21.5333 141.697 21.2433 141.757 20.89C141.777 20.7767 141.787 20.6767 141.787 20.59C141.787 20.2367 141.653 19.9833 141.387 19.83C141.12 19.6767 140.713 19.6 140.167 19.6H139.907L140.077 18.66H140.347C140.887 18.6533 141.313 18.5633 141.627 18.39C141.94 18.2167 142.13 17.9433 142.197 17.57C142.21 17.4633 142.217 17.3867 142.217 17.34C142.217 17.0867 142.13 16.8867 141.957 16.74C141.783 16.5933 141.53 16.52 141.197 16.52C140.823 16.52 140.513 16.6167 140.267 16.81C140.027 16.9967 139.863 17.23 139.777 17.51H138.667ZM18.6 37.49L15.92 43H14.72L14.34 38.93L12.5 43H11.3L10.55 37.49H11.71L12.09 41.92L14.03 37.49H15.22L15.57 41.9L17.48 37.49H18.6ZM18.592 40.22C18.692 39.6667 18.892 39.1767 19.192 38.75C19.4986 38.3233 19.872 37.9933 20.312 37.76C20.752 37.52 21.212 37.4 21.692 37.4C22.1253 37.4 22.4886 37.4867 22.782 37.66C23.0753 37.8267 23.2953 38.0367 23.442 38.29L23.582 37.49H24.732L23.762 43H22.612L22.762 42.18C22.522 42.44 22.2186 42.6567 21.852 42.83C21.492 43.0033 21.0986 43.09 20.672 43.09C20.2586 43.09 19.8886 42.9967 19.562 42.81C19.242 42.6233 18.9886 42.36 18.802 42.02C18.622 41.6733 18.532 41.2767 18.532 40.83C18.532 40.63 18.552 40.4267 18.592 40.22ZM23.102 40.24C23.1286 40.1133 23.142 39.9767 23.142 39.83C23.142 39.3833 23.0086 39.0333 22.742 38.78C22.482 38.52 22.1553 38.39 21.762 38.39C21.4686 38.39 21.182 38.4633 20.902 38.61C20.622 38.75 20.3786 38.96 20.172 39.24C19.9653 39.5133 19.8286 39.84 19.762 40.22C19.7353 40.3467 19.722 40.4833 19.722 40.63C19.722 41.0833 19.852 41.4433 20.112 41.71C20.3786 41.97 20.7086 42.1 21.102 42.1C21.3953 42.1 21.682 42.0267 21.962 41.88C22.242 41.7333 22.4853 41.52 22.692 41.24C22.8986 40.9533 23.0353 40.62 23.102 40.24ZM27.1993 38.46C27.426 38.1267 27.6926 37.8667 27.9993 37.68C28.3126 37.4933 28.6593 37.4 29.0393 37.4L28.8293 38.58H28.5393C28.0993 38.58 27.746 38.69 27.4793 38.91C27.2126 39.13 27.026 39.51 26.9193 40.05L26.3993 43H25.2593L26.2293 37.49H27.3693L27.1993 38.46ZM32.8672 37.4C33.4472 37.4 33.9072 37.5567 34.2472 37.87C34.5939 38.1767 34.7672 38.62 34.7672 39.2C34.7672 39.3467 34.7505 39.53 34.7172 39.75L34.1372 43H33.0072L33.5572 39.92C33.5839 39.7333 33.5972 39.6 33.5972 39.52C33.5972 39.1533 33.4939 38.8733 33.2872 38.68C33.0872 38.4867 32.8072 38.39 32.4472 38.39C32.0139 38.39 31.6472 38.5233 31.3472 38.79C31.0539 39.05 30.8672 39.4267 30.7872 39.92V39.89L30.2372 43H29.0972L30.0672 37.49H31.2072L31.0972 38.13C31.3239 37.9033 31.5905 37.7267 31.8972 37.6C32.2105 37.4667 32.5339 37.4 32.8672 37.4ZM37.2713 36.76C37.0913 36.76 36.9447 36.7033 36.8313 36.59C36.718 36.4767 36.6613 36.3333 36.6613 36.16C36.6613 35.9267 36.748 35.7267 36.9213 35.56C37.1013 35.3867 37.3047 35.3 37.5313 35.3C37.7113 35.3 37.8547 35.3567 37.9613 35.47C38.0747 35.5833 38.1313 35.7267 38.1313 35.9C38.1313 36.1333 38.0447 36.3367 37.8713 36.51C37.698 36.6767 37.498 36.76 37.2713 36.76ZM37.7013 37.49L36.7313 43H35.5913L36.5613 37.49H37.7013ZM41.998 37.4C42.578 37.4 43.038 37.5567 43.378 37.87C43.7247 38.1767 43.898 38.62 43.898 39.2C43.898 39.3467 43.8814 39.53 43.848 39.75L43.268 43H42.138L42.688 39.92C42.7147 39.7333 42.728 39.6 42.728 39.52C42.728 39.1533 42.6247 38.8733 42.418 38.68C42.218 38.4867 41.938 38.39 41.578 38.39C41.1447 38.39 40.778 38.5233 40.478 38.79C40.1847 39.05 39.998 39.4267 39.918 39.92V39.89L39.368 43H38.228L39.198 37.49H40.338L40.228 38.13C40.4547 37.9033 40.7214 37.7267 41.028 37.6C41.3414 37.4667 41.6647 37.4 41.998 37.4ZM47.9322 37.4C48.3589 37.4 48.7222 37.4867 49.0222 37.66C49.3289 37.8267 49.5489 38.0367 49.6822 38.29L49.8222 37.49H50.9722L49.9922 43.09C49.8989 43.5967 49.7122 44.0467 49.4322 44.44C49.1522 44.84 48.7889 45.1533 48.3422 45.38C47.8955 45.6067 47.3922 45.72 46.8322 45.72C46.3455 45.72 45.9189 45.64 45.5522 45.48C45.1855 45.3267 44.9089 45.1033 44.7222 44.81C44.5355 44.5167 44.4555 44.17 44.4822 43.77H45.6122C45.6455 44.0567 45.7889 44.2867 46.0422 44.46C46.2955 44.64 46.6189 44.73 47.0122 44.73C47.4722 44.73 47.8689 44.59 48.2022 44.31C48.5355 44.03 48.7489 43.6233 48.8422 43.09L49.0022 42.17C48.7622 42.43 48.4622 42.65 48.1022 42.83C47.7422 43.0033 47.3522 43.09 46.9322 43.09C46.5122 43.09 46.1389 42.9967 45.8122 42.81C45.4855 42.6233 45.2289 42.36 45.0422 42.02C44.8622 41.6733 44.7722 41.2767 44.7722 40.83C44.7722 40.63 44.7922 40.4267 44.8322 40.22C44.9322 39.6667 45.1322 39.1767 45.4322 38.75C45.7389 38.3233 46.1122 37.9933 46.5522 37.76C46.9922 37.52 47.4522 37.4 47.9322 37.4ZM49.3422 40.24C49.3689 40.1133 49.3822 39.9767 49.3822 39.83C49.3822 39.3833 49.2489 39.0333 48.9822 38.78C48.7222 38.52 48.3955 38.39 48.0022 38.39C47.7089 38.39 47.4222 38.4633 47.1422 38.61C46.8622 38.75 46.6189 38.96 46.4122 39.24C46.2055 39.5133 46.0689 39.84 46.0022 40.22C45.9755 40.3467 45.9622 40.4833 45.9622 40.63C45.9622 41.0833 46.0922 41.4433 46.3522 41.71C46.6189 41.97 46.9489 42.1 47.3422 42.1C47.6355 42.1 47.9222 42.0267 48.2022 41.88C48.4822 41.7333 48.7255 41.52 48.9322 41.24C49.1389 40.9533 49.2755 40.62 49.3422 40.24ZM56.4076 40.97C56.0876 40.97 55.8242 40.87 55.6176 40.67C55.4176 40.47 55.3176 40.2167 55.3176 39.91C55.3176 39.63 55.3909 39.3733 55.5376 39.14C55.6842 38.9 55.8776 38.71 56.1176 38.57C56.3576 38.43 56.6076 38.36 56.8676 38.36C57.1942 38.36 57.4609 38.46 57.6676 38.66C57.8742 38.86 57.9776 39.1167 57.9776 39.43C57.9776 39.7033 57.9042 39.96 57.7576 40.2C57.6109 40.4333 57.4142 40.62 57.1676 40.76C56.9276 40.9 56.6742 40.97 56.4076 40.97ZM63.7948 36.76C63.6148 36.76 63.4681 36.7033 63.3548 36.59C63.2414 36.4767 63.1848 36.3333 63.1848 36.16C63.1848 35.9267 63.2714 35.7267 63.4448 35.56C63.6248 35.3867 63.8281 35.3 64.0548 35.3C64.2348 35.3 64.3781 35.3567 64.4848 35.47C64.5981 35.5833 64.6548 35.7267 64.6548 35.9C64.6548 36.1333 64.5681 36.3367 64.3948 36.51C64.2214 36.6767 64.0214 36.76 63.7948 36.76ZM64.2248 37.49L63.2548 43H62.1148L63.0848 37.49H64.2248ZM68.5215 37.4C69.1015 37.4 69.5615 37.5567 69.9015 37.87C70.2482 38.1767 70.4215 38.62 70.4215 39.2C70.4215 39.3467 70.4048 39.53 70.3715 39.75L69.7915 43H68.6615L69.2115 39.92C69.2382 39.7333 69.2515 39.6 69.2515 39.52C69.2515 39.1533 69.1482 38.8733 68.9415 38.68C68.7415 38.4867 68.4615 38.39 68.1015 38.39C67.6682 38.39 67.3015 38.5233 67.0015 38.79C66.7082 39.05 66.5215 39.4267 66.4415 39.92V39.89L65.8915 43H64.7515L65.7215 37.49H66.8615L66.7515 38.13C66.9782 37.9033 67.2448 37.7267 67.5515 37.6C67.8648 37.4667 68.1882 37.4 68.5215 37.4ZM75.0537 41.41C75.7803 40.87 76.357 40.4267 76.7837 40.08C77.2103 39.7267 77.577 39.3633 77.8837 38.99C78.197 38.61 78.3837 38.2367 78.4437 37.87C78.4637 37.7567 78.4737 37.65 78.4737 37.55C78.4737 37.2633 78.3937 37.04 78.2337 36.88C78.0737 36.72 77.8203 36.64 77.4737 36.64C77.087 36.64 76.7637 36.7667 76.5037 37.02C76.2437 37.2667 76.067 37.6 75.9737 38.02H74.8737C75.027 37.26 75.357 36.68 75.8637 36.28C76.3703 35.8733 76.9637 35.67 77.6437 35.67C78.277 35.67 78.7637 35.8233 79.1037 36.13C79.4503 36.4367 79.6237 36.85 79.6237 37.37C79.6237 37.53 79.6103 37.68 79.5837 37.82C79.5037 38.28 79.3037 38.7267 78.9837 39.16C78.6637 39.5933 78.307 39.9833 77.9137 40.33C77.5203 40.6767 77.0203 41.08 76.4137 41.54L75.8837 41.95H79.0537L78.8837 42.9H74.0237L74.1737 42.07L75.0537 41.41ZM79.9952 41.48L80.1452 40.62L84.3552 35.8H85.7352L84.9152 40.49H85.8452L85.6652 41.48H84.7352L84.4652 43H83.3452L83.6152 41.48H79.9952ZM84.4652 36.96L81.4852 40.49H83.8452L84.4652 36.96ZM93.3278 37.4C93.8811 37.4 94.3245 37.5567 94.6578 37.87C94.9911 38.1767 95.1578 38.6167 95.1578 39.19C95.1578 39.3433 95.1411 39.53 95.1078 39.75L94.5278 43H93.3978L93.9478 39.92C93.9745 39.7333 93.9878 39.6 93.9878 39.52C93.9878 39.1533 93.8845 38.8733 93.6778 38.68C93.4778 38.4867 93.1978 38.39 92.8378 38.39C92.4045 38.39 92.0378 38.5233 91.7378 38.79C91.4445 39.05 91.2578 39.4267 91.1778 39.92V39.9L90.6278 43H89.4878L90.7978 35.6H91.9378L91.4878 38.13C91.7211 37.8967 91.9978 37.7167 92.3178 37.59C92.6378 37.4633 92.9745 37.4 93.3278 37.4ZM98.392 43.09C97.9253 43.09 97.5153 42.9933 97.162 42.8C96.8086 42.6067 96.532 42.3333 96.332 41.98C96.1386 41.6267 96.042 41.2233 96.042 40.77C96.042 40.15 96.1853 39.5833 96.472 39.07C96.7653 38.5567 97.1653 38.15 97.672 37.85C98.1853 37.55 98.7553 37.4 99.382 37.4C99.8486 37.4 100.262 37.5 100.622 37.7C100.982 37.8933 101.262 38.1667 101.462 38.52C101.669 38.8667 101.772 39.27 101.772 39.73C101.772 40.35 101.622 40.9167 101.322 41.43C101.022 41.9433 100.615 42.35 100.102 42.65C99.5886 42.9433 99.0186 43.09 98.392 43.09ZM98.532 42.13C98.912 42.13 99.2586 42.0233 99.572 41.81C99.892 41.59 100.142 41.3033 100.322 40.95C100.502 40.59 100.592 40.2067 100.592 39.8C100.592 39.34 100.462 38.9867 100.202 38.74C99.942 38.4867 99.6153 38.36 99.222 38.36C98.8353 38.36 98.4886 38.47 98.182 38.69C97.882 38.9033 97.6453 39.1933 97.472 39.56C97.3053 39.92 97.222 40.3067 97.222 40.72C97.222 41.1667 97.342 41.5133 97.582 41.76C97.8286 42.0067 98.1453 42.13 98.532 42.13ZM108.319 37.49L107.349 43H106.209L106.319 42.35C106.099 42.5767 105.832 42.7567 105.519 42.89C105.212 43.0167 104.896 43.08 104.569 43.08C103.989 43.08 103.526 42.9233 103.179 42.61C102.832 42.2967 102.659 41.8533 102.659 41.28C102.659 41.1267 102.676 40.9433 102.709 40.73L103.279 37.49H104.409L103.869 40.56C103.842 40.7467 103.829 40.88 103.829 40.96C103.829 41.3267 103.929 41.6067 104.129 41.8C104.336 41.9933 104.619 42.09 104.979 42.09C105.399 42.09 105.756 41.9667 106.049 41.72C106.342 41.4667 106.536 41.1033 106.629 40.63L107.179 37.49H108.319ZM110.793 38.46C111.02 38.1267 111.286 37.8667 111.593 37.68C111.906 37.4933 112.253 37.4 112.633 37.4L112.423 38.58H112.133C111.693 38.58 111.34 38.69 111.073 38.91C110.806 39.13 110.62 39.51 110.513 40.05L109.993 43H108.853L109.823 37.49H110.963L110.793 38.46ZM123.349 37.4C123.929 37.4 124.392 37.5567 124.739 37.87C125.086 38.1833 125.259 38.6267 125.259 39.2C125.259 39.3533 125.242 39.5367 125.209 39.75L124.629 43H123.499L124.049 39.92C124.076 39.7333 124.089 39.6 124.089 39.52C124.089 39.1533 123.986 38.8733 123.779 38.68C123.579 38.4867 123.299 38.39 122.939 38.39C122.506 38.39 122.139 38.5233 121.839 38.79C121.546 39.05 121.359 39.4267 121.279 39.92L120.729 43H119.599L120.149 39.92C120.176 39.7333 120.189 39.6 120.189 39.52C120.189 39.1533 120.086 38.8733 119.879 38.68C119.679 38.4867 119.399 38.39 119.039 38.39C118.606 38.39 118.239 38.5233 117.939 38.79C117.646 39.05 117.459 39.4267 117.379 39.92V39.89L116.829 43H115.689L116.659 37.49H117.799L117.689 38.13C117.909 37.9033 118.172 37.7267 118.479 37.6C118.792 37.4667 119.116 37.4 119.449 37.4C119.889 37.4 120.266 37.4933 120.579 37.68C120.899 37.8667 121.122 38.1367 121.249 38.49C121.469 38.1567 121.772 37.8933 122.159 37.7C122.546 37.5 122.942 37.4 123.349 37.4ZM128.49 43.09C128.023 43.09 127.613 42.9933 127.26 42.8C126.906 42.6067 126.63 42.3333 126.43 41.98C126.236 41.6267 126.14 41.2233 126.14 40.77C126.14 40.15 126.283 39.5833 126.57 39.07C126.863 38.5567 127.263 38.15 127.77 37.85C128.283 37.55 128.853 37.4 129.48 37.4C129.946 37.4 130.36 37.5 130.72 37.7C131.08 37.8933 131.36 38.1667 131.56 38.52C131.766 38.8667 131.87 39.27 131.87 39.73C131.87 40.35 131.72 40.9167 131.42 41.43C131.12 41.9433 130.713 42.35 130.2 42.65C129.686 42.9433 129.116 43.09 128.49 43.09ZM128.63 42.13C129.01 42.13 129.356 42.0233 129.67 41.81C129.99 41.59 130.24 41.3033 130.42 40.95C130.6 40.59 130.69 40.2067 130.69 39.8C130.69 39.34 130.56 38.9867 130.3 38.74C130.04 38.4867 129.713 38.36 129.32 38.36C128.933 38.36 128.586 38.47 128.28 38.69C127.98 38.9033 127.743 39.1933 127.57 39.56C127.403 39.92 127.32 40.3067 127.32 40.72C127.32 41.1667 127.44 41.5133 127.68 41.76C127.926 42.0067 128.243 42.13 128.63 42.13ZM132.567 40.22C132.667 39.6667 132.867 39.1767 133.167 38.75C133.473 38.3233 133.847 37.9933 134.287 37.76C134.727 37.52 135.19 37.4 135.677 37.4C136.037 37.4 136.377 37.48 136.697 37.64C137.017 37.7933 137.26 38 137.427 38.26L137.897 35.6H139.047L137.737 43H136.587L136.737 42.17C136.497 42.4433 136.197 42.6667 135.837 42.84C135.483 43.0067 135.093 43.09 134.667 43.09C134.247 43.09 133.873 42.9967 133.547 42.81C133.22 42.6233 132.963 42.36 132.777 42.02C132.597 41.6733 132.507 41.2767 132.507 40.83C132.507 40.63 132.527 40.4267 132.567 40.22ZM137.077 40.24C137.103 40.1133 137.117 39.9767 137.117 39.83C137.117 39.3833 136.983 39.0333 136.717 38.78C136.457 38.52 136.13 38.39 135.737 38.39C135.443 38.39 135.157 38.4633 134.877 38.61C134.597 38.75 134.353 38.96 134.147 39.24C133.94 39.5133 133.803 39.84 133.737 40.22C133.71 40.3467 133.697 40.4833 133.697 40.63C133.697 41.0833 133.827 41.4433 134.087 41.71C134.353 41.97 134.683 42.1 135.077 42.1C135.37 42.1 135.657 42.0267 135.937 41.88C136.217 41.7333 136.46 41.52 136.667 41.24C136.873 40.9533 137.01 40.62 137.077 40.24ZM142.594 37.4C143.281 37.4 143.827 37.5933 144.234 37.98C144.647 38.3667 144.854 38.8867 144.854 39.54C144.854 39.6933 144.837 39.8767 144.804 40.09C144.777 40.2367 144.731 40.4167 144.664 40.63H140.454C140.447 40.6767 140.444 40.7467 140.444 40.84C140.444 41.2333 140.564 41.5467 140.804 41.78C141.051 42.0133 141.371 42.13 141.764 42.13C142.384 42.13 142.861 41.8733 143.194 41.36H144.424C144.171 41.8667 143.797 42.2833 143.304 42.61C142.811 42.93 142.241 43.09 141.594 43.09C141.134 43.09 140.731 43 140.384 42.82C140.037 42.64 139.767 42.3833 139.574 42.05C139.381 41.71 139.284 41.3133 139.284 40.86C139.284 40.6667 139.304 40.46 139.344 40.24C139.444 39.6733 139.647 39.1767 139.954 38.75C140.261 38.3167 140.641 37.9833 141.094 37.75C141.554 37.5167 142.054 37.4 142.594 37.4ZM143.664 39.81C143.677 39.69 143.684 39.6033 143.684 39.55C143.684 39.1833 143.561 38.8933 143.314 38.68C143.074 38.4667 142.761 38.36 142.374 38.36C141.967 38.36 141.601 38.49 141.274 38.75C140.947 39.01 140.724 39.3633 140.604 39.81H143.664Z" fill="black" fill-opacity="0.5"/>
</svg>
