<svg width="480" height="360" viewBox="0 0 480 360" fill="none" xmlns="http://www.w3.org/2000/svg">
<rect x="290" y="150" width="180" height="120" rx="15" fill="black" fill-opacity="0.5"/>
<path d="M377 200H383C384.105 200 385 200.895 385 202V208C385 209.105 384.105 210 383 210H377C375.895 210 375 209.105 375 208V202C375 200.895 375.895 200 377 200Z" stroke="white" stroke-width="2"/>
<path d="M416.53 200.26L422.756 204.152C423.383 204.544 423.383 205.456 422.756 205.848L416.53 209.74C415.864 210.156 415 209.677 415 208.892V201.108C415 200.323 415.864 199.844 416.53 200.26Z" stroke="white" stroke-width="2"/>
<rect x="424" y="199" width="2" height="12" rx="1" fill="white"/>
<path d="M343.47 209.74L337.244 205.848C336.617 205.456 336.617 204.544 337.244 204.152L343.47 200.26C344.136 199.844 345 200.323 345 201.108L345 208.892C345 209.677 344.136 210.156 343.47 209.74Z" stroke="white" stroke-width="2"/>
<rect x="336" y="211" width="2" height="12" rx="1" transform="rotate(180 336 211)" fill="white"/>
<path d="M358.685 171.07C358.218 171.07 357.798 170.99 357.425 170.83C357.051 170.663 356.758 170.43 356.545 170.13C356.331 169.83 356.225 169.48 356.225 169.08H357.445C357.471 169.38 357.588 169.627 357.795 169.82C358.008 170.013 358.305 170.11 358.685 170.11C359.078 170.11 359.385 170.017 359.605 169.83C359.825 169.637 359.935 169.39 359.935 169.09C359.935 168.857 359.865 168.667 359.725 168.52C359.591 168.373 359.421 168.26 359.215 168.18C359.015 168.1 358.735 168.013 358.375 167.92C357.921 167.8 357.551 167.68 357.265 167.56C356.985 167.433 356.745 167.24 356.545 166.98C356.345 166.72 356.245 166.373 356.245 165.94C356.245 165.54 356.345 165.19 356.545 164.89C356.745 164.59 357.025 164.36 357.385 164.2C357.745 164.04 358.161 163.96 358.635 163.96C359.308 163.96 359.858 164.13 360.285 164.47C360.718 164.803 360.958 165.263 361.005 165.85H359.745C359.725 165.597 359.605 165.38 359.385 165.2C359.165 165.02 358.875 164.93 358.515 164.93C358.188 164.93 357.921 165.013 357.715 165.18C357.508 165.347 357.405 165.587 357.405 165.9C357.405 166.113 357.468 166.29 357.595 166.43C357.728 166.563 357.895 166.67 358.095 166.75C358.295 166.83 358.568 166.917 358.915 167.01C359.375 167.137 359.748 167.263 360.035 167.39C360.328 167.517 360.575 167.713 360.775 167.98C360.981 168.24 361.085 168.59 361.085 169.03C361.085 169.383 360.988 169.717 360.795 170.03C360.608 170.343 360.331 170.597 359.965 170.79C359.605 170.977 359.178 171.07 358.685 171.07ZM363.76 166.42V169.47C363.76 169.677 363.806 169.827 363.9 169.92C364 170.007 364.166 170.05 364.4 170.05H365.1V171H364.2C363.686 171 363.293 170.88 363.02 170.64C362.746 170.4 362.61 170.01 362.61 169.47V166.42H361.96V165.49H362.61V164.12H363.76V165.49H365.1V166.42H363.76ZM368.54 171.09C368.02 171.09 367.55 170.973 367.13 170.74C366.71 170.5 366.38 170.167 366.14 169.74C365.9 169.307 365.78 168.807 365.78 168.24C365.78 167.68 365.904 167.183 366.15 166.75C366.397 166.317 366.734 165.983 367.16 165.75C367.587 165.517 368.064 165.4 368.59 165.4C369.117 165.4 369.594 165.517 370.02 165.75C370.447 165.983 370.784 166.317 371.03 166.75C371.277 167.183 371.4 167.68 371.4 168.24C371.4 168.8 371.274 169.297 371.02 169.73C370.767 170.163 370.42 170.5 369.98 170.74C369.547 170.973 369.067 171.09 368.54 171.09ZM368.54 170.1C368.834 170.1 369.107 170.03 369.36 169.89C369.62 169.75 369.83 169.54 369.99 169.26C370.15 168.98 370.23 168.64 370.23 168.24C370.23 167.84 370.154 167.503 370 167.23C369.847 166.95 369.644 166.74 369.39 166.6C369.137 166.46 368.864 166.39 368.57 166.39C368.277 166.39 368.004 166.46 367.75 166.6C367.504 166.74 367.307 166.95 367.16 167.23C367.014 167.503 366.94 167.84 366.94 168.24C366.94 168.833 367.09 169.293 367.39 169.62C367.697 169.94 368.08 170.1 368.54 170.1ZM373.667 166.29C373.834 166.01 374.054 165.793 374.327 165.64C374.607 165.48 374.937 165.4 375.317 165.4V166.58H375.027C374.581 166.58 374.241 166.693 374.007 166.92C373.781 167.147 373.667 167.54 373.667 168.1V171H372.527V165.49H373.667V166.29ZM381.325 165.49L377.945 173.59H376.765L377.885 170.91L375.715 165.49H376.985L378.535 169.69L380.145 165.49H381.325ZM383.516 166.42V169.47C383.516 169.677 383.562 169.827 383.656 169.92C383.756 170.007 383.922 170.05 384.156 170.05H384.856V171H383.956C383.442 171 383.049 170.88 382.776 170.64C382.502 170.4 382.366 170.01 382.366 169.47V166.42H381.716V165.49H382.366V164.12H383.516V165.49H384.856V166.42H383.516ZM386.486 164.76C386.28 164.76 386.106 164.69 385.966 164.55C385.826 164.41 385.756 164.237 385.756 164.03C385.756 163.823 385.826 163.65 385.966 163.51C386.106 163.37 386.28 163.3 386.486 163.3C386.686 163.3 386.856 163.37 386.996 163.51C387.136 163.65 387.206 163.823 387.206 164.03C387.206 164.237 387.136 164.41 386.996 164.55C386.856 164.69 386.686 164.76 386.486 164.76ZM387.046 165.49V171H385.906V165.49H387.046ZM395.213 165.4C395.646 165.4 396.033 165.49 396.373 165.67C396.72 165.85 396.99 166.117 397.183 166.47C397.383 166.823 397.483 167.25 397.483 167.75V171H396.353V167.92C396.353 167.427 396.23 167.05 395.983 166.79C395.736 166.523 395.4 166.39 394.973 166.39C394.546 166.39 394.206 166.523 393.953 166.79C393.706 167.05 393.583 167.427 393.583 167.92V171H392.453V167.92C392.453 167.427 392.33 167.05 392.083 166.79C391.836 166.523 391.5 166.39 391.073 166.39C390.646 166.39 390.306 166.523 390.053 166.79C389.806 167.05 389.683 167.427 389.683 167.92V171H388.543V165.49H389.683V166.12C389.87 165.893 390.106 165.717 390.393 165.59C390.68 165.463 390.986 165.4 391.313 165.4C391.753 165.4 392.146 165.493 392.493 165.68C392.84 165.867 393.106 166.137 393.293 166.49C393.46 166.157 393.72 165.893 394.073 165.7C394.426 165.5 394.806 165.4 395.213 165.4ZM403.984 168.11C403.984 168.317 403.97 168.503 403.944 168.67H399.734C399.767 169.11 399.93 169.463 400.224 169.73C400.517 169.997 400.877 170.13 401.304 170.13C401.917 170.13 402.35 169.873 402.604 169.36H403.834C403.667 169.867 403.364 170.283 402.924 170.61C402.49 170.93 401.95 171.09 401.304 171.09C400.777 171.09 400.304 170.973 399.884 170.74C399.47 170.5 399.144 170.167 398.904 169.74C398.67 169.307 398.554 168.807 398.554 168.24C398.554 167.673 398.667 167.177 398.894 166.75C399.127 166.317 399.45 165.983 399.864 165.75C400.284 165.517 400.764 165.4 401.304 165.4C401.824 165.4 402.287 165.513 402.694 165.74C403.1 165.967 403.417 166.287 403.644 166.7C403.87 167.107 403.984 167.577 403.984 168.11ZM402.794 167.75C402.787 167.33 402.637 166.993 402.344 166.74C402.05 166.487 401.687 166.36 401.254 166.36C400.86 166.36 400.524 166.487 400.244 166.74C399.964 166.987 399.797 167.323 399.744 167.75H402.794Z" fill="white"/>
<path d="M375.405 178.44V184H374.493V180.192L372.797 184H372.165L370.461 180.192V184H369.549V178.44H370.533L372.485 182.8L374.429 178.44H375.405ZM380.572 179.592L377.868 186.072H376.924L377.82 183.928L376.084 179.592H377.1L378.34 182.952L379.628 179.592H380.572ZM385.252 179.592V184H384.34V183.48C384.196 183.661 384.007 183.805 383.772 183.912C383.543 184.013 383.297 184.064 383.036 184.064C382.689 184.064 382.377 183.992 382.1 183.848C381.828 183.704 381.612 183.491 381.452 183.208C381.297 182.925 381.22 182.584 381.22 182.184V179.592H382.124V182.048C382.124 182.443 382.223 182.747 382.42 182.96C382.617 183.168 382.887 183.272 383.228 183.272C383.569 183.272 383.839 183.168 384.036 182.96C384.239 182.747 384.34 182.443 384.34 182.048V179.592H385.252ZM390.447 179.592V184H389.535V183.48C389.391 183.661 389.202 183.805 388.967 183.912C388.738 184.013 388.493 184.064 388.231 184.064C387.885 184.064 387.573 183.992 387.295 183.848C387.023 183.704 386.807 183.491 386.647 183.208C386.493 182.925 386.415 182.584 386.415 182.184V179.592H387.319V182.048C387.319 182.443 387.418 182.747 387.615 182.96C387.813 183.168 388.082 183.272 388.423 183.272C388.765 183.272 389.034 183.168 389.231 182.96C389.434 182.747 389.535 182.443 389.535 182.048V179.592H390.447Z" fill="#808080"/>
<rect x="305" y="235" width="150" height="20" rx="10" fill="white" fill-opacity="0.1"/>
</svg>
