<svg width="80" height="28" viewBox="0 0 80 28" fill="none" xmlns="http://www.w3.org/2000/svg">
<rect width="80" height="28" rx="5" fill="#E6E6E6"/>
<path d="M13.14 18.09C12.62 18.09 12.15 17.9733 11.73 17.74C11.31 17.5 10.98 17.1667 10.74 16.74C10.5 16.3067 10.38 15.8067 10.38 15.24C10.38 14.68 10.5033 14.1833 10.75 13.75C10.9967 13.3167 11.3333 12.9833 11.76 12.75C12.1867 12.5167 12.6633 12.4 13.19 12.4C13.7167 12.4 14.1933 12.5167 14.62 12.75C15.0467 12.9833 15.3833 13.3167 15.63 13.75C15.8767 14.1833 16 14.68 16 15.24C16 15.8 15.8733 16.2967 15.62 16.73C15.3667 17.1633 15.02 17.5 14.58 17.74C14.1467 17.9733 13.6667 18.09 13.14 18.09ZM13.14 17.1C13.4333 17.1 13.7067 17.03 13.96 16.89C14.22 16.75 14.43 16.54 14.59 16.26C14.75 15.98 14.83 15.64 14.83 15.24C14.83 14.84 14.7533 14.5033 14.6 14.23C14.4467 13.95 14.2433 13.74 13.99 13.6C13.7367 13.46 13.4633 13.39 13.17 13.39C12.8767 13.39 12.6033 13.46 12.35 13.6C12.1033 13.74 11.9067 13.95 11.76 14.23C11.6133 14.5033 11.54 14.84 11.54 15.24C11.54 15.8333 11.69 16.2933 11.99 16.62C12.2967 16.94 12.68 17.1 13.14 17.1ZM18.267 13.3C18.4603 13.0467 18.7236 12.8333 19.057 12.66C19.3903 12.4867 19.767 12.4 20.187 12.4C20.667 12.4 21.1036 12.52 21.497 12.76C21.897 12.9933 22.2103 13.3233 22.437 13.75C22.6636 14.1767 22.777 14.6667 22.777 15.22C22.777 15.7733 22.6636 16.27 22.437 16.71C22.2103 17.1433 21.897 17.4833 21.497 17.73C21.1036 17.97 20.667 18.09 20.187 18.09C19.767 18.09 19.3936 18.0067 19.067 17.84C18.7403 17.6667 18.4736 17.4533 18.267 17.2V20.62H17.127V12.49H18.267V13.3ZM21.617 15.22C21.617 14.84 21.537 14.5133 21.377 14.24C21.2236 13.96 21.017 13.75 20.757 13.61C20.5036 13.4633 20.2303 13.39 19.937 13.39C19.6503 13.39 19.377 13.4633 19.117 13.61C18.8636 13.7567 18.657 13.97 18.497 14.25C18.3436 14.53 18.267 14.86 18.267 15.24C18.267 15.62 18.3436 15.9533 18.497 16.24C18.657 16.52 18.8636 16.7333 19.117 16.88C19.377 17.0267 19.6503 17.1 19.937 17.1C20.2303 17.1 20.5036 17.0267 20.757 16.88C21.017 16.7267 21.2236 16.5067 21.377 16.22C21.537 15.9333 21.617 15.6 21.617 15.22ZM28.9543 15.11C28.9543 15.3167 28.941 15.5033 28.9143 15.67H24.7043C24.7376 16.11 24.901 16.4633 25.1943 16.73C25.4876 16.9967 25.8476 17.13 26.2743 17.13C26.8876 17.13 27.321 16.8733 27.5743 16.36H28.8043C28.6376 16.8667 28.3343 17.2833 27.8943 17.61C27.461 17.93 26.921 18.09 26.2743 18.09C25.7476 18.09 25.2743 17.9733 24.8543 17.74C24.441 17.5 24.1143 17.1667 23.8743 16.74C23.641 16.3067 23.5243 15.8067 23.5243 15.24C23.5243 14.6733 23.6376 14.1767 23.8643 13.75C24.0976 13.3167 24.421 12.9833 24.8343 12.75C25.2543 12.5167 25.7343 12.4 26.2743 12.4C26.7943 12.4 27.2576 12.5133 27.6643 12.74C28.071 12.9667 28.3876 13.2867 28.6143 13.7C28.841 14.1067 28.9543 14.5767 28.9543 15.11ZM27.7643 14.75C27.7576 14.33 27.6076 13.9933 27.3143 13.74C27.021 13.4867 26.6576 13.36 26.2243 13.36C25.831 13.36 25.4943 13.4867 25.2143 13.74C24.9343 13.9867 24.7676 14.3233 24.7143 14.75H27.7643ZM32.8562 12.4C33.2895 12.4 33.6762 12.49 34.0162 12.67C34.3628 12.85 34.6328 13.1167 34.8262 13.47C35.0195 13.8233 35.1162 14.25 35.1162 14.75V18H33.9862V14.92C33.9862 14.4267 33.8628 14.05 33.6162 13.79C33.3695 13.5233 33.0328 13.39 32.6062 13.39C32.1795 13.39 31.8395 13.5233 31.5862 13.79C31.3395 14.05 31.2162 14.4267 31.2162 14.92V18H30.0762V12.49H31.2162V13.12C31.4028 12.8933 31.6395 12.7167 31.9262 12.59C32.2195 12.4633 32.5295 12.4 32.8562 12.4Z" fill="black"/>
</svg>
