<svg width="480" height="360" viewBox="0 0 480 360" fill="none" xmlns="http://www.w3.org/2000/svg">
<path d="M174.864 31.112C174.117 31.112 173.445 30.984 172.848 30.728C172.251 30.4613 171.781 30.088 171.44 29.608C171.099 29.128 170.928 28.568 170.928 27.928H172.88C172.923 28.408 173.109 28.8027 173.44 29.112C173.781 29.4213 174.256 29.576 174.864 29.576C175.493 29.576 175.984 29.4267 176.336 29.128C176.688 28.8187 176.864 28.424 176.864 27.944C176.864 27.5707 176.752 27.2667 176.528 27.032C176.315 26.7973 176.043 26.616 175.712 26.488C175.392 26.36 174.944 26.2213 174.368 26.072C173.643 25.88 173.051 25.688 172.592 25.496C172.144 25.2933 171.76 24.984 171.44 24.568C171.12 24.152 170.96 23.5973 170.96 22.904C170.96 22.264 171.12 21.704 171.44 21.224C171.76 20.744 172.208 20.376 172.784 20.12C173.36 19.864 174.027 19.736 174.784 19.736C175.861 19.736 176.741 20.008 177.424 20.552C178.117 21.0853 178.501 21.8213 178.576 22.76H176.56C176.528 22.3547 176.336 22.008 175.984 21.72C175.632 21.432 175.168 21.288 174.592 21.288C174.069 21.288 173.643 21.4213 173.312 21.688C172.981 21.9547 172.816 22.3387 172.816 22.84C172.816 23.1813 172.917 23.464 173.12 23.688C173.333 23.9013 173.6 24.072 173.92 24.2C174.24 24.328 174.677 24.4667 175.232 24.616C175.968 24.8187 176.565 25.0213 177.024 25.224C177.493 25.4267 177.888 25.7413 178.208 26.168C178.539 26.584 178.704 27.144 178.704 27.848C178.704 28.4133 178.549 28.9467 178.24 29.448C177.941 29.9493 177.499 30.3547 176.912 30.664C176.336 30.9627 175.653 31.112 174.864 31.112ZM188.936 26.376C188.936 26.7067 188.915 27.0053 188.872 27.272H182.136C182.19 27.976 182.451 28.5413 182.92 28.968C183.39 29.3947 183.966 29.608 184.648 29.608C185.63 29.608 186.323 29.1973 186.728 28.376H188.696C188.43 29.1867 187.944 29.8533 187.24 30.376C186.547 30.888 185.683 31.144 184.648 31.144C183.806 31.144 183.048 30.9573 182.376 30.584C181.715 30.2 181.192 29.6667 180.808 28.984C180.435 28.2907 180.248 27.4907 180.248 26.584C180.248 25.6773 180.43 24.8827 180.792 24.2C181.166 23.5067 181.683 22.9733 182.344 22.6C183.016 22.2267 183.784 22.04 184.648 22.04C185.48 22.04 186.222 22.2213 186.872 22.584C187.523 22.9467 188.03 23.4587 188.392 24.12C188.755 24.7707 188.936 25.5227 188.936 26.376ZM187.032 25.8C187.022 25.128 186.782 24.5893 186.312 24.184C185.843 23.7787 185.262 23.576 184.568 23.576C183.939 23.576 183.4 23.7787 182.952 24.184C182.504 24.5787 182.238 25.1173 182.152 25.8H187.032ZM192.859 23.672V28.552C192.859 28.8827 192.934 29.1227 193.083 29.272C193.243 29.4107 193.51 29.48 193.883 29.48H195.003V31H193.563C192.742 31 192.113 30.808 191.675 30.424C191.238 30.04 191.019 29.416 191.019 28.552V23.672H189.979V22.184H191.019V19.992H192.859V22.184H195.003V23.672H192.859ZM198.812 23.672V28.552C198.812 28.8827 198.887 29.1227 199.036 29.272C199.196 29.4107 199.463 29.48 199.836 29.48H200.956V31H199.516C198.695 31 198.066 30.808 197.628 30.424C197.191 30.04 196.972 29.416 196.972 28.552V23.672H195.932V22.184H196.972V19.992H198.812V22.184H200.956V23.672H198.812ZM203.566 21.016C203.235 21.016 202.958 20.904 202.734 20.68C202.51 20.456 202.398 20.1787 202.398 19.848C202.398 19.5173 202.51 19.24 202.734 19.016C202.958 18.792 203.235 18.68 203.566 18.68C203.886 18.68 204.158 18.792 204.382 19.016C204.606 19.24 204.718 19.5173 204.718 19.848C204.718 20.1787 204.606 20.456 204.382 20.68C204.158 20.904 203.886 21.016 203.566 21.016ZM204.462 22.184V31H202.638V22.184H204.462ZM211.304 22.04C211.998 22.04 212.616 22.184 213.16 22.472C213.715 22.76 214.147 23.1867 214.456 23.752C214.766 24.3173 214.92 25 214.92 25.8V31H213.112V26.072C213.112 25.2827 212.915 24.68 212.52 24.264C212.126 23.8373 211.587 23.624 210.904 23.624C210.222 23.624 209.678 23.8373 209.272 24.264C208.878 24.68 208.68 25.2827 208.68 26.072V31H206.856V22.184H208.68V23.192C208.979 22.8293 209.358 22.5467 209.816 22.344C210.286 22.1413 210.782 22.04 211.304 22.04ZM220.799 22.04C221.482 22.04 222.084 22.1787 222.607 22.456C223.14 22.7227 223.556 23.0587 223.855 23.464V22.184H225.695V31.144C225.695 31.9547 225.524 32.6747 225.183 33.304C224.842 33.944 224.346 34.4453 223.695 34.808C223.055 35.1707 222.287 35.352 221.391 35.352C220.196 35.352 219.204 35.0693 218.415 34.504C217.626 33.9493 217.178 33.192 217.071 32.232H218.879C219.018 32.6907 219.311 33.0587 219.759 33.336C220.218 33.624 220.762 33.768 221.391 33.768C222.127 33.768 222.719 33.544 223.167 33.096C223.626 32.648 223.855 31.9973 223.855 31.144V29.672C223.546 30.088 223.124 30.44 222.591 30.728C222.068 31.0053 221.471 31.144 220.799 31.144C220.031 31.144 219.327 30.952 218.687 30.568C218.058 30.1733 217.556 29.6293 217.183 28.936C216.82 28.232 216.639 27.4373 216.639 26.552C216.639 25.6667 216.82 24.8827 217.183 24.2C217.556 23.5173 218.058 22.9893 218.687 22.616C219.327 22.232 220.031 22.04 220.799 22.04ZM223.855 26.584C223.855 25.976 223.727 25.448 223.471 25C223.226 24.552 222.9 24.2107 222.495 23.976C222.09 23.7413 221.652 23.624 221.183 23.624C220.714 23.624 220.276 23.7413 219.871 23.976C219.466 24.2 219.135 24.536 218.879 24.984C218.634 25.4213 218.511 25.944 218.511 26.552C218.511 27.16 218.634 27.6933 218.879 28.152C219.135 28.6107 219.466 28.9627 219.871 29.208C220.287 29.4427 220.724 29.56 221.183 29.56C221.652 29.56 222.09 29.4427 222.495 29.208C222.9 28.9733 223.226 28.632 223.471 28.184C223.727 27.7253 223.855 27.192 223.855 26.584ZM231.291 31.144C230.597 31.144 229.973 31.0213 229.419 30.776C228.875 30.52 228.443 30.1787 228.123 29.752C227.803 29.3147 227.632 28.8293 227.611 28.296H229.499C229.531 28.6693 229.707 28.984 230.027 29.24C230.357 29.4853 230.768 29.608 231.259 29.608C231.771 29.608 232.165 29.512 232.443 29.32C232.731 29.1173 232.875 28.8613 232.875 28.552C232.875 28.2213 232.715 27.976 232.395 27.816C232.085 27.656 231.589 27.48 230.907 27.288C230.245 27.1067 229.707 26.9307 229.291 26.76C228.875 26.5893 228.512 26.328 228.203 25.976C227.904 25.624 227.755 25.16 227.755 24.584C227.755 24.1147 227.893 23.688 228.171 23.304C228.448 22.9093 228.843 22.6 229.355 22.376C229.877 22.152 230.475 22.04 231.147 22.04C232.149 22.04 232.955 22.296 233.563 22.808C234.181 23.3093 234.512 23.9973 234.555 24.872H232.731C232.699 24.4773 232.539 24.1627 232.251 23.928C231.963 23.6933 231.573 23.576 231.083 23.576C230.603 23.576 230.235 23.6667 229.979 23.848C229.723 24.0293 229.595 24.2693 229.595 24.568C229.595 24.8027 229.68 25 229.851 25.16C230.021 25.32 230.229 25.448 230.475 25.544C230.72 25.6293 231.083 25.7413 231.563 25.88C232.203 26.0507 232.725 26.2267 233.131 26.408C233.547 26.5787 233.904 26.8347 234.203 27.176C234.501 27.5173 234.656 27.9707 234.667 28.536C234.667 29.0373 234.528 29.4853 234.251 29.88C233.973 30.2747 233.579 30.584 233.067 30.808C232.565 31.032 231.973 31.144 231.291 31.144Z" fill="white"/>
<path d="M173.648 69.084C173.088 69.084 172.584 68.988 172.136 68.796C171.688 68.596 171.336 68.316 171.08 67.956C170.824 67.596 170.696 67.176 170.696 66.696H172.16C172.192 67.056 172.332 67.352 172.58 67.584C172.836 67.816 173.192 67.932 173.648 67.932C174.12 67.932 174.488 67.82 174.752 67.596C175.016 67.364 175.148 67.068 175.148 66.708C175.148 66.428 175.064 66.2 174.896 66.024C174.736 65.848 174.532 65.712 174.284 65.616C174.044 65.52 173.708 65.416 173.276 65.304C172.732 65.16 172.288 65.016 171.944 64.872C171.608 64.72 171.32 64.488 171.08 64.176C170.84 63.864 170.72 63.448 170.72 62.928C170.72 62.448 170.84 62.028 171.08 61.668C171.32 61.308 171.656 61.032 172.088 60.84C172.52 60.648 173.02 60.552 173.588 60.552C174.396 60.552 175.056 60.756 175.568 61.164C176.088 61.564 176.376 62.116 176.432 62.82H174.92C174.896 62.516 174.752 62.256 174.488 62.04C174.224 61.824 173.876 61.716 173.444 61.716C173.052 61.716 172.732 61.816 172.484 62.016C172.236 62.216 172.112 62.504 172.112 62.88C172.112 63.136 172.188 63.348 172.34 63.516C172.5 63.676 172.7 63.804 172.94 63.9C173.18 63.996 173.508 64.1 173.924 64.212C174.476 64.364 174.924 64.516 175.268 64.668C175.62 64.82 175.916 65.056 176.156 65.376C176.404 65.688 176.528 66.108 176.528 66.636C176.528 67.06 176.412 67.46 176.18 67.836C175.956 68.212 175.624 68.516 175.184 68.748C174.752 68.972 174.24 69.084 173.648 69.084ZM179.738 63.504V67.164C179.738 67.412 179.794 67.592 179.906 67.704C180.026 67.808 180.226 67.86 180.506 67.86H181.346V69H180.266C179.65 69 179.178 68.856 178.85 68.568C178.522 68.28 178.358 67.812 178.358 67.164V63.504H177.578V62.388H178.358V60.744H179.738V62.388H181.346V63.504H179.738ZM188.559 62.388L184.503 72.108H183.087L184.431 68.892L181.827 62.388H183.351L185.211 67.428L187.143 62.388H188.559ZM190.959 60.12V69H189.591V60.12H190.959ZM198.815 65.532C198.815 65.78 198.799 66.004 198.767 66.204H193.715C193.755 66.732 193.951 67.156 194.303 67.476C194.655 67.796 195.087 67.956 195.599 67.956C196.335 67.956 196.855 67.648 197.159 67.032H198.635C198.435 67.64 198.071 68.14 197.543 68.532C197.023 68.916 196.375 69.108 195.599 69.108C194.967 69.108 194.399 68.968 193.895 68.688C193.399 68.4 193.007 68 192.719 67.488C192.439 66.968 192.299 66.368 192.299 65.688C192.299 65.008 192.435 64.412 192.707 63.9C192.987 63.38 193.375 62.98 193.871 62.7C194.375 62.42 194.951 62.28 195.599 62.28C196.223 62.28 196.779 62.416 197.267 62.688C197.755 62.96 198.135 63.344 198.407 63.84C198.679 64.328 198.815 64.892 198.815 65.532ZM197.387 65.1C197.379 64.596 197.199 64.192 196.847 63.888C196.495 63.584 196.059 63.432 195.539 63.432C195.067 63.432 194.663 63.584 194.327 63.888C193.991 64.184 193.791 64.588 193.727 65.1H197.387Z" fill="white"/>
<path d="M176.288 130.66V131.776H174.068V139H172.7V131.776H170.468V130.66H176.288ZM178.369 131.512C178.121 131.512 177.913 131.428 177.745 131.26C177.577 131.092 177.493 130.884 177.493 130.636C177.493 130.388 177.577 130.18 177.745 130.012C177.913 129.844 178.121 129.76 178.369 129.76C178.609 129.76 178.813 129.844 178.981 130.012C179.149 130.18 179.233 130.388 179.233 130.636C179.233 130.884 179.149 131.092 178.981 131.26C178.813 131.428 178.609 131.512 178.369 131.512ZM179.041 132.388V139H177.673V132.388H179.041ZM188.842 132.28C189.362 132.28 189.826 132.388 190.234 132.604C190.65 132.82 190.974 133.14 191.206 133.564C191.446 133.988 191.566 134.5 191.566 135.1V139H190.21V135.304C190.21 134.712 190.062 134.26 189.766 133.948C189.47 133.628 189.066 133.468 188.554 133.468C188.042 133.468 187.634 133.628 187.33 133.948C187.034 134.26 186.886 134.712 186.886 135.304V139H185.53V135.304C185.53 134.712 185.382 134.26 185.086 133.948C184.79 133.628 184.386 133.468 183.874 133.468C183.362 133.468 182.954 133.628 182.65 133.948C182.354 134.26 182.206 134.712 182.206 135.304V139H180.838V132.388H182.206V133.144C182.43 132.872 182.714 132.66 183.058 132.508C183.402 132.356 183.77 132.28 184.162 132.28C184.69 132.28 185.162 132.392 185.578 132.616C185.994 132.84 186.314 133.164 186.538 133.588C186.738 133.188 187.05 132.872 187.474 132.64C187.898 132.4 188.354 132.28 188.842 132.28ZM199.366 135.532C199.366 135.78 199.35 136.004 199.318 136.204H194.266C194.306 136.732 194.502 137.156 194.854 137.476C195.206 137.796 195.638 137.956 196.15 137.956C196.886 137.956 197.406 137.648 197.71 137.032H199.186C198.986 137.64 198.622 138.14 198.094 138.532C197.574 138.916 196.926 139.108 196.15 139.108C195.518 139.108 194.95 138.968 194.446 138.688C193.95 138.4 193.558 138 193.27 137.488C192.99 136.968 192.85 136.368 192.85 135.688C192.85 135.008 192.986 134.412 193.258 133.9C193.538 133.38 193.926 132.98 194.422 132.7C194.926 132.42 195.502 132.28 196.15 132.28C196.774 132.28 197.33 132.416 197.818 132.688C198.306 132.96 198.686 133.344 198.958 133.84C199.23 134.328 199.366 134.892 199.366 135.532ZM197.938 135.1C197.93 134.596 197.75 134.192 197.398 133.888C197.046 133.584 196.61 133.432 196.09 133.432C195.618 133.432 195.214 133.584 194.878 133.888C194.542 134.184 194.342 134.588 194.278 135.1H197.938ZM202.081 133.348C202.281 133.012 202.545 132.752 202.873 132.568C203.209 132.376 203.605 132.28 204.061 132.28V133.696H203.713C203.177 133.696 202.769 133.832 202.489 134.104C202.217 134.376 202.081 134.848 202.081 135.52V139H200.713V132.388H202.081V133.348Z" fill="white"/>
<path d="M163.04 169.07C162.573 169.07 162.153 168.99 161.78 168.83C161.407 168.663 161.113 168.43 160.9 168.13C160.687 167.83 160.58 167.48 160.58 167.08H161.8C161.827 167.38 161.943 167.627 162.15 167.82C162.363 168.013 162.66 168.11 163.04 168.11C163.433 168.11 163.74 168.017 163.96 167.83C164.18 167.637 164.29 167.39 164.29 167.09C164.29 166.857 164.22 166.667 164.08 166.52C163.947 166.373 163.777 166.26 163.57 166.18C163.37 166.1 163.09 166.013 162.73 165.92C162.277 165.8 161.907 165.68 161.62 165.56C161.34 165.433 161.1 165.24 160.9 164.98C160.7 164.72 160.6 164.373 160.6 163.94C160.6 163.54 160.7 163.19 160.9 162.89C161.1 162.59 161.38 162.36 161.74 162.2C162.1 162.04 162.517 161.96 162.99 161.96C163.663 161.96 164.213 162.13 164.64 162.47C165.073 162.803 165.313 163.263 165.36 163.85H164.1C164.08 163.597 163.96 163.38 163.74 163.2C163.52 163.02 163.23 162.93 162.87 162.93C162.543 162.93 162.277 163.013 162.07 163.18C161.863 163.347 161.76 163.587 161.76 163.9C161.76 164.113 161.823 164.29 161.95 164.43C162.083 164.563 162.25 164.67 162.45 164.75C162.65 164.83 162.923 164.917 163.27 165.01C163.73 165.137 164.103 165.263 164.39 165.39C164.683 165.517 164.93 165.713 165.13 165.98C165.337 166.24 165.44 166.59 165.44 167.03C165.44 167.383 165.343 167.717 165.15 168.03C164.963 168.343 164.687 168.597 164.32 168.79C163.96 168.977 163.533 169.07 163.04 169.07ZM169.635 163.4C170.055 163.4 170.428 163.49 170.755 163.67C171.088 163.85 171.348 164.117 171.535 164.47C171.728 164.823 171.825 165.25 171.825 165.75V169H170.695V165.92C170.695 165.427 170.572 165.05 170.325 164.79C170.078 164.523 169.742 164.39 169.315 164.39C168.888 164.39 168.548 164.523 168.295 164.79C168.048 165.05 167.925 165.427 167.925 165.92V169H166.785V161.6H167.925V164.13C168.118 163.897 168.362 163.717 168.655 163.59C168.955 163.463 169.282 163.4 169.635 163.4ZM175.669 169.09C175.149 169.09 174.679 168.973 174.259 168.74C173.839 168.5 173.509 168.167 173.269 167.74C173.029 167.307 172.909 166.807 172.909 166.24C172.909 165.68 173.033 165.183 173.279 164.75C173.526 164.317 173.863 163.983 174.289 163.75C174.716 163.517 175.193 163.4 175.719 163.4C176.246 163.4 176.723 163.517 177.149 163.75C177.576 163.983 177.913 164.317 178.159 164.75C178.406 165.183 178.529 165.68 178.529 166.24C178.529 166.8 178.403 167.297 178.149 167.73C177.896 168.163 177.549 168.5 177.109 168.74C176.676 168.973 176.196 169.09 175.669 169.09ZM175.669 168.1C175.963 168.1 176.236 168.03 176.489 167.89C176.749 167.75 176.959 167.54 177.119 167.26C177.279 166.98 177.359 166.64 177.359 166.24C177.359 165.84 177.283 165.503 177.129 165.23C176.976 164.95 176.773 164.74 176.519 164.6C176.266 164.46 175.993 164.39 175.699 164.39C175.406 164.39 175.133 164.46 174.879 164.6C174.633 164.74 174.436 164.95 174.289 165.23C174.143 165.503 174.069 165.84 174.069 166.24C174.069 166.833 174.219 167.293 174.519 167.62C174.826 167.94 175.209 168.1 175.669 168.1ZM187.056 163.49L185.346 169H184.146L183.036 164.93L181.926 169H180.726L179.006 163.49H180.166L181.316 167.92L182.486 163.49H183.676L184.796 167.9L185.936 163.49H187.056ZM191.836 164.42V167.47C191.836 167.677 191.883 167.827 191.976 167.92C192.076 168.007 192.243 168.05 192.476 168.05H193.176V169H192.276C191.763 169 191.369 168.88 191.096 168.64C190.823 168.4 190.686 168.01 190.686 167.47V164.42H190.036V163.49H190.686V162.12H191.836V163.49H193.176V164.42H191.836ZM197.077 163.4C197.497 163.4 197.87 163.49 198.197 163.67C198.53 163.85 198.79 164.117 198.977 164.47C199.17 164.823 199.267 165.25 199.267 165.75V169H198.137V165.92C198.137 165.427 198.013 165.05 197.767 164.79C197.52 164.523 197.183 164.39 196.757 164.39C196.33 164.39 195.99 164.523 195.737 164.79C195.49 165.05 195.367 165.427 195.367 165.92V169H194.227V161.6H195.367V164.13C195.56 163.897 195.803 163.717 196.097 163.59C196.397 163.463 196.723 163.4 197.077 163.4ZM205.771 166.11C205.771 166.317 205.757 166.503 205.731 166.67H201.521C201.554 167.11 201.717 167.463 202.011 167.73C202.304 167.997 202.664 168.13 203.091 168.13C203.704 168.13 204.137 167.873 204.391 167.36H205.621C205.454 167.867 205.151 168.283 204.711 168.61C204.277 168.93 203.737 169.09 203.091 169.09C202.564 169.09 202.091 168.973 201.671 168.74C201.257 168.5 200.931 168.167 200.691 167.74C200.457 167.307 200.341 166.807 200.341 166.24C200.341 165.673 200.454 165.177 200.681 164.75C200.914 164.317 201.237 163.983 201.651 163.75C202.071 163.517 202.551 163.4 203.091 163.4C203.611 163.4 204.074 163.513 204.481 163.74C204.887 163.967 205.204 164.287 205.431 164.7C205.657 165.107 205.771 165.577 205.771 166.11ZM204.581 165.75C204.574 165.33 204.424 164.993 204.131 164.74C203.837 164.487 203.474 164.36 203.041 164.36C202.647 164.36 202.311 164.487 202.031 164.74C201.751 164.987 201.584 165.323 201.531 165.75H204.581ZM210.82 164.42V167.47C210.82 167.677 210.867 167.827 210.96 167.92C211.06 168.007 211.227 168.05 211.46 168.05H212.16V169H211.26C210.747 169 210.354 168.88 210.08 168.64C209.807 168.4 209.67 168.01 209.67 167.47V164.42H209.02V163.49H209.67V162.12H210.82V163.49H212.16V164.42H210.82ZM213.791 162.76C213.584 162.76 213.411 162.69 213.271 162.55C213.131 162.41 213.061 162.237 213.061 162.03C213.061 161.823 213.131 161.65 213.271 161.51C213.411 161.37 213.584 161.3 213.791 161.3C213.991 161.3 214.161 161.37 214.301 161.51C214.441 161.65 214.511 161.823 214.511 162.03C214.511 162.237 214.441 162.41 214.301 162.55C214.161 162.69 213.991 162.76 213.791 162.76ZM214.351 163.49V169H213.211V163.49H214.351ZM222.518 163.4C222.951 163.4 223.338 163.49 223.678 163.67C224.024 163.85 224.294 164.117 224.488 164.47C224.688 164.823 224.788 165.25 224.788 165.75V169H223.658V165.92C223.658 165.427 223.534 165.05 223.288 164.79C223.041 164.523 222.704 164.39 222.278 164.39C221.851 164.39 221.511 164.523 221.258 164.79C221.011 165.05 220.888 165.427 220.888 165.92V169H219.758V165.92C219.758 165.427 219.634 165.05 219.388 164.79C219.141 164.523 218.804 164.39 218.378 164.39C217.951 164.39 217.611 164.523 217.358 164.79C217.111 165.05 216.988 165.427 216.988 165.92V169H215.848V163.49H216.988V164.12C217.174 163.893 217.411 163.717 217.698 163.59C217.984 163.463 218.291 163.4 218.618 163.4C219.058 163.4 219.451 163.493 219.798 163.68C220.144 163.867 220.411 164.137 220.598 164.49C220.764 164.157 221.024 163.893 221.378 163.7C221.731 163.5 222.111 163.4 222.518 163.4ZM231.288 166.11C231.288 166.317 231.275 166.503 231.248 166.67H227.038C227.072 167.11 227.235 167.463 227.528 167.73C227.822 167.997 228.182 168.13 228.608 168.13C229.222 168.13 229.655 167.873 229.908 167.36H231.138C230.972 167.867 230.668 168.283 230.228 168.61C229.795 168.93 229.255 169.09 228.608 169.09C228.082 169.09 227.608 168.973 227.188 168.74C226.775 168.5 226.448 168.167 226.208 167.74C225.975 167.307 225.858 166.807 225.858 166.24C225.858 165.673 225.972 165.177 226.198 164.75C226.432 164.317 226.755 163.983 227.168 163.75C227.588 163.517 228.068 163.4 228.608 163.4C229.128 163.4 229.592 163.513 229.998 163.74C230.405 163.967 230.722 164.287 230.948 164.7C231.175 165.107 231.288 165.577 231.288 166.11ZM230.098 165.75C230.092 165.33 229.942 164.993 229.648 164.74C229.355 164.487 228.992 164.36 228.558 164.36C228.165 164.36 227.828 164.487 227.548 164.74C227.268 164.987 227.102 165.323 227.048 165.75H230.098ZM233.55 164.29C233.717 164.01 233.937 163.793 234.21 163.64C234.49 163.48 234.82 163.4 235.2 163.4V164.58H234.91C234.463 164.58 234.123 164.693 233.89 164.92C233.663 165.147 233.55 165.54 233.55 166.1V169H232.41V163.49H233.55V164.29Z" fill="white"/>
<path d="M181.992 99.084C181.432 99.084 180.928 98.988 180.48 98.796C180.032 98.596 179.68 98.316 179.424 97.956C179.168 97.596 179.04 97.176 179.04 96.696H180.504C180.536 97.056 180.676 97.352 180.924 97.584C181.18 97.816 181.536 97.932 181.992 97.932C182.464 97.932 182.832 97.82 183.096 97.596C183.36 97.364 183.492 97.068 183.492 96.708C183.492 96.428 183.408 96.2 183.24 96.024C183.08 95.848 182.876 95.712 182.628 95.616C182.388 95.52 182.052 95.416 181.62 95.304C181.076 95.16 180.632 95.016 180.288 94.872C179.952 94.72 179.664 94.488 179.424 94.176C179.184 93.864 179.064 93.448 179.064 92.928C179.064 92.448 179.184 92.028 179.424 91.668C179.664 91.308 180 91.032 180.432 90.84C180.864 90.648 181.364 90.552 181.932 90.552C182.74 90.552 183.4 90.756 183.912 91.164C184.432 91.564 184.72 92.116 184.776 92.82H183.264C183.24 92.516 183.096 92.256 182.832 92.04C182.568 91.824 182.22 91.716 181.788 91.716C181.396 91.716 181.076 91.816 180.828 92.016C180.58 92.216 180.456 92.504 180.456 92.88C180.456 93.136 180.532 93.348 180.684 93.516C180.844 93.676 181.044 93.804 181.284 93.9C181.524 93.996 181.852 94.1 182.268 94.212C182.82 94.364 183.268 94.516 183.612 94.668C183.964 94.82 184.26 95.056 184.5 95.376C184.748 95.688 184.872 96.108 184.872 96.636C184.872 97.06 184.756 97.46 184.524 97.836C184.3 98.212 183.968 98.516 183.528 98.748C183.096 98.972 182.584 99.084 181.992 99.084ZM186.03 95.664C186.03 95 186.166 94.412 186.438 93.9C186.718 93.388 187.094 92.992 187.566 92.712C188.046 92.424 188.578 92.28 189.162 92.28C189.674 92.28 190.126 92.384 190.518 92.592C190.918 92.8 191.226 93.052 191.442 93.348V92.388H192.822V102.144H191.442V98.04C191.226 98.336 190.914 98.588 190.506 98.796C190.098 99.004 189.634 99.108 189.114 99.108C188.546 99.108 188.026 98.964 187.554 98.676C187.09 98.38 186.718 97.972 186.438 97.452C186.166 96.924 186.03 96.328 186.03 95.664ZM191.442 95.688C191.442 95.232 191.346 94.836 191.154 94.5C190.97 94.164 190.726 93.908 190.422 93.732C190.118 93.556 189.79 93.468 189.438 93.468C189.086 93.468 188.758 93.556 188.454 93.732C188.15 93.9 187.902 94.152 187.71 94.488C187.526 94.816 187.434 95.208 187.434 95.664C187.434 96.12 187.526 96.52 187.71 96.864C187.902 97.208 188.15 97.472 188.454 97.656C188.766 97.832 189.094 97.92 189.438 97.92C189.79 97.92 190.118 97.832 190.422 97.656C190.726 97.48 190.97 97.224 191.154 96.888C191.346 96.544 191.442 96.144 191.442 95.688ZM200.607 92.388V99H199.239V98.22C199.023 98.492 198.739 98.708 198.387 98.868C198.043 99.02 197.675 99.096 197.283 99.096C196.763 99.096 196.295 98.988 195.879 98.772C195.471 98.556 195.147 98.236 194.907 97.812C194.675 97.388 194.559 96.876 194.559 96.276V92.388H195.915V96.072C195.915 96.664 196.063 97.12 196.359 97.44C196.655 97.752 197.059 97.908 197.571 97.908C198.083 97.908 198.487 97.752 198.783 97.44C199.087 97.12 199.239 96.664 199.239 96.072V92.388H200.607ZM201.956 95.664C201.956 95 202.092 94.412 202.364 93.9C202.644 93.388 203.02 92.992 203.492 92.712C203.972 92.424 204.5 92.28 205.076 92.28C205.596 92.28 206.048 92.384 206.432 92.592C206.824 92.792 207.136 93.044 207.368 93.348V92.388H208.748V99H207.368V98.016C207.136 98.328 206.82 98.588 206.42 98.796C206.02 99.004 205.564 99.108 205.052 99.108C204.484 99.108 203.964 98.964 203.492 98.676C203.02 98.38 202.644 97.972 202.364 97.452C202.092 96.924 201.956 96.328 201.956 95.664ZM207.368 95.688C207.368 95.232 207.272 94.836 207.08 94.5C206.896 94.164 206.652 93.908 206.348 93.732C206.044 93.556 205.716 93.468 205.364 93.468C205.012 93.468 204.684 93.556 204.38 93.732C204.076 93.9 203.828 94.152 203.636 94.488C203.452 94.816 203.36 95.208 203.36 95.664C203.36 96.12 203.452 96.52 203.636 96.864C203.828 97.208 204.076 97.472 204.38 97.656C204.692 97.832 205.02 97.92 205.364 97.92C205.716 97.92 206.044 97.832 206.348 97.656C206.652 97.48 206.896 97.224 207.08 96.888C207.272 96.544 207.368 96.144 207.368 95.688ZM211.913 93.348C212.113 93.012 212.377 92.752 212.705 92.568C213.041 92.376 213.437 92.28 213.893 92.28V93.696H213.545C213.009 93.696 212.601 93.832 212.321 94.104C212.049 94.376 211.913 94.848 211.913 95.52V99H210.545V92.388H211.913V93.348ZM221.21 95.532C221.21 95.78 221.194 96.004 221.162 96.204H216.11C216.15 96.732 216.346 97.156 216.698 97.476C217.05 97.796 217.482 97.956 217.994 97.956C218.73 97.956 219.25 97.648 219.554 97.032H221.03C220.83 97.64 220.466 98.14 219.938 98.532C219.418 98.916 218.77 99.108 217.994 99.108C217.362 99.108 216.794 98.968 216.29 98.688C215.794 98.4 215.402 98 215.114 97.488C214.834 96.968 214.694 96.368 214.694 95.688C214.694 95.008 214.83 94.412 215.102 93.9C215.382 93.38 215.77 92.98 216.266 92.7C216.77 92.42 217.346 92.28 217.994 92.28C218.618 92.28 219.174 92.416 219.662 92.688C220.15 92.96 220.53 93.344 220.802 93.84C221.074 94.328 221.21 94.892 221.21 95.532ZM219.782 95.1C219.774 94.596 219.594 94.192 219.242 93.888C218.89 93.584 218.454 93.432 217.934 93.432C217.462 93.432 217.058 93.584 216.722 93.888C216.386 94.184 216.186 94.588 216.122 95.1H219.782Z" fill="white"/>
<path d="M267.986 99L266.066 95.664H265.022V99H263.654V90.66H266.534C267.174 90.66 267.714 90.772 268.154 90.996C268.602 91.22 268.934 91.52 269.15 91.896C269.374 92.272 269.486 92.692 269.486 93.156C269.486 93.7 269.326 94.196 269.006 94.644C268.694 95.084 268.21 95.384 267.554 95.544L269.618 99H267.986ZM265.022 94.572H266.534C267.046 94.572 267.43 94.444 267.686 94.188C267.95 93.932 268.082 93.588 268.082 93.156C268.082 92.724 267.954 92.388 267.698 92.148C267.442 91.9 267.054 91.776 266.534 91.776H265.022V94.572ZM274.104 99.108C273.48 99.108 272.916 98.968 272.412 98.688C271.908 98.4 271.512 98 271.224 97.488C270.936 96.968 270.792 96.368 270.792 95.688C270.792 95.016 270.94 94.42 271.236 93.9C271.532 93.38 271.936 92.98 272.448 92.7C272.96 92.42 273.532 92.28 274.164 92.28C274.796 92.28 275.368 92.42 275.88 92.7C276.392 92.98 276.796 93.38 277.092 93.9C277.388 94.42 277.536 95.016 277.536 95.688C277.536 96.36 277.384 96.956 277.08 97.476C276.776 97.996 276.36 98.4 275.832 98.688C275.312 98.968 274.736 99.108 274.104 99.108ZM274.104 97.92C274.456 97.92 274.784 97.836 275.088 97.668C275.4 97.5 275.652 97.248 275.844 96.912C276.036 96.576 276.132 96.168 276.132 95.688C276.132 95.208 276.04 94.804 275.856 94.476C275.672 94.14 275.428 93.888 275.124 93.72C274.82 93.552 274.492 93.468 274.14 93.468C273.788 93.468 273.46 93.552 273.156 93.72C272.86 93.888 272.624 94.14 272.448 94.476C272.272 94.804 272.184 95.208 272.184 95.688C272.184 96.4 272.364 96.952 272.724 97.344C273.092 97.728 273.552 97.92 274.104 97.92ZM284.876 92.388V99H283.508V98.22C283.292 98.492 283.008 98.708 282.656 98.868C282.312 99.02 281.944 99.096 281.552 99.096C281.032 99.096 280.564 98.988 280.148 98.772C279.74 98.556 279.416 98.236 279.176 97.812C278.944 97.388 278.828 96.876 278.828 96.276V92.388H280.184V96.072C280.184 96.664 280.332 97.12 280.628 97.44C280.924 97.752 281.328 97.908 281.84 97.908C282.352 97.908 282.756 97.752 283.052 97.44C283.356 97.12 283.508 96.664 283.508 96.072V92.388H284.876ZM290.017 92.28C290.537 92.28 291.001 92.388 291.409 92.604C291.825 92.82 292.149 93.14 292.381 93.564C292.613 93.988 292.729 94.5 292.729 95.1V99H291.373V95.304C291.373 94.712 291.225 94.26 290.929 93.948C290.633 93.628 290.229 93.468 289.717 93.468C289.205 93.468 288.797 93.628 288.493 93.948C288.197 94.26 288.049 94.712 288.049 95.304V99H286.681V92.388H288.049V93.144C288.273 92.872 288.557 92.66 288.901 92.508C289.253 92.356 289.625 92.28 290.017 92.28ZM294.018 95.664C294.018 95 294.154 94.412 294.426 93.9C294.706 93.388 295.082 92.992 295.554 92.712C296.034 92.424 296.566 92.28 297.15 92.28C297.582 92.28 298.006 92.376 298.422 92.568C298.846 92.752 299.182 93 299.43 93.312V90.12H300.81V99H299.43V98.004C299.206 98.324 298.894 98.588 298.494 98.796C298.102 99.004 297.65 99.108 297.138 99.108C296.562 99.108 296.034 98.964 295.554 98.676C295.082 98.38 294.706 97.972 294.426 97.452C294.154 96.924 294.018 96.328 294.018 95.664ZM299.43 95.688C299.43 95.232 299.334 94.836 299.142 94.5C298.958 94.164 298.714 93.908 298.41 93.732C298.106 93.556 297.778 93.468 297.426 93.468C297.074 93.468 296.746 93.556 296.442 93.732C296.138 93.9 295.89 94.152 295.698 94.488C295.514 94.816 295.422 95.208 295.422 95.664C295.422 96.12 295.514 96.52 295.698 96.864C295.89 97.208 296.138 97.472 296.442 97.656C296.754 97.832 297.082 97.92 297.426 97.92C297.778 97.92 298.106 97.832 298.41 97.656C298.714 97.48 298.958 97.224 299.142 96.888C299.334 96.544 299.43 96.144 299.43 95.688ZM308.667 95.532C308.667 95.78 308.651 96.004 308.619 96.204H303.567C303.607 96.732 303.803 97.156 304.155 97.476C304.507 97.796 304.939 97.956 305.451 97.956C306.187 97.956 306.707 97.648 307.011 97.032H308.487C308.287 97.64 307.923 98.14 307.395 98.532C306.875 98.916 306.227 99.108 305.451 99.108C304.819 99.108 304.251 98.968 303.747 98.688C303.251 98.4 302.859 98 302.571 97.488C302.291 96.968 302.151 96.368 302.151 95.688C302.151 95.008 302.287 94.412 302.559 93.9C302.839 93.38 303.227 92.98 303.723 92.7C304.227 92.42 304.803 92.28 305.451 92.28C306.075 92.28 306.631 92.416 307.119 92.688C307.607 92.96 307.987 93.344 308.259 93.84C308.531 94.328 308.667 94.892 308.667 95.532ZM307.239 95.1C307.231 94.596 307.051 94.192 306.699 93.888C306.347 93.584 305.911 93.432 305.391 93.432C304.919 93.432 304.515 93.584 304.179 93.888C303.843 94.184 303.643 94.588 303.579 95.1H307.239ZM309.557 95.664C309.557 95 309.693 94.412 309.965 93.9C310.245 93.388 310.621 92.992 311.093 92.712C311.573 92.424 312.105 92.28 312.689 92.28C313.121 92.28 313.545 92.376 313.961 92.568C314.385 92.752 314.721 93 314.969 93.312V90.12H316.349V99H314.969V98.004C314.745 98.324 314.433 98.588 314.033 98.796C313.641 99.004 313.189 99.108 312.677 99.108C312.101 99.108 311.573 98.964 311.093 98.676C310.621 98.38 310.245 97.972 309.965 97.452C309.693 96.924 309.557 96.328 309.557 95.664ZM314.969 95.688C314.969 95.232 314.873 94.836 314.681 94.5C314.497 94.164 314.253 93.908 313.949 93.732C313.645 93.556 313.317 93.468 312.965 93.468C312.613 93.468 312.285 93.556 311.981 93.732C311.677 93.9 311.429 94.152 311.237 94.488C311.053 94.816 310.961 95.208 310.961 95.664C310.961 96.12 311.053 96.52 311.237 96.864C311.429 97.208 311.677 97.472 311.981 97.656C312.293 97.832 312.621 97.92 312.965 97.92C313.317 97.92 313.645 97.832 313.949 97.656C314.253 97.48 314.497 97.224 314.681 96.888C314.873 96.544 314.969 96.144 314.969 95.688Z" fill="white"/>
<path d="M361.539 160.66L358.779 165.976V169H357.411V165.976L354.639 160.66H356.163L358.095 164.752L360.027 160.66H361.539ZM368.685 165.532C368.685 165.78 368.669 166.004 368.637 166.204H363.585C363.625 166.732 363.821 167.156 364.173 167.476C364.525 167.796 364.957 167.956 365.469 167.956C366.205 167.956 366.725 167.648 367.029 167.032H368.505C368.305 167.64 367.941 168.14 367.413 168.532C366.893 168.916 366.245 169.108 365.469 169.108C364.837 169.108 364.269 168.968 363.765 168.688C363.269 168.4 362.877 168 362.589 167.488C362.309 166.968 362.169 166.368 362.169 165.688C362.169 165.008 362.305 164.412 362.577 163.9C362.857 163.38 363.245 162.98 363.741 162.7C364.245 162.42 364.821 162.28 365.469 162.28C366.093 162.28 366.649 162.416 367.137 162.688C367.625 162.96 368.005 163.344 368.277 163.84C368.549 164.328 368.685 164.892 368.685 165.532ZM367.257 165.1C367.249 164.596 367.069 164.192 366.717 163.888C366.365 163.584 365.929 163.432 365.409 163.432C364.937 163.432 364.533 163.584 364.197 163.888C363.861 164.184 363.661 164.588 363.597 165.1H367.257ZM372.431 169.108C371.911 169.108 371.443 169.016 371.027 168.832C370.619 168.64 370.295 168.384 370.055 168.064C369.815 167.736 369.687 167.372 369.671 166.972H371.087C371.111 167.252 371.243 167.488 371.483 167.68C371.731 167.864 372.039 167.956 372.407 167.956C372.791 167.956 373.087 167.884 373.295 167.74C373.511 167.588 373.619 167.396 373.619 167.164C373.619 166.916 373.499 166.732 373.259 166.612C373.027 166.492 372.655 166.36 372.143 166.216C371.647 166.08 371.243 165.948 370.931 165.82C370.619 165.692 370.347 165.496 370.115 165.232C369.891 164.968 369.779 164.62 369.779 164.188C369.779 163.836 369.883 163.516 370.091 163.228C370.299 162.932 370.595 162.7 370.979 162.532C371.371 162.364 371.819 162.28 372.323 162.28C373.075 162.28 373.679 162.472 374.135 162.856C374.599 163.232 374.847 163.748 374.879 164.404H373.511C373.487 164.108 373.367 163.872 373.151 163.696C372.935 163.52 372.643 163.432 372.275 163.432C371.915 163.432 371.639 163.5 371.447 163.636C371.255 163.772 371.159 163.952 371.159 164.176C371.159 164.352 371.223 164.5 371.351 164.62C371.479 164.74 371.635 164.836 371.819 164.908C372.003 164.972 372.275 165.056 372.635 165.16C373.115 165.288 373.507 165.42 373.811 165.556C374.123 165.684 374.391 165.876 374.615 166.132C374.839 166.388 374.955 166.728 374.963 167.152C374.963 167.528 374.859 167.864 374.651 168.16C374.443 168.456 374.147 168.688 373.763 168.856C373.387 169.024 372.943 169.108 372.431 169.108Z" fill="white"/>
<path d="M434.602 169H433.234L429.118 162.772V169H427.75V160.648H429.118L433.234 166.864V160.648H434.602V169ZM439.266 169.108C438.642 169.108 438.078 168.968 437.574 168.688C437.07 168.4 436.674 168 436.386 167.488C436.098 166.968 435.954 166.368 435.954 165.688C435.954 165.016 436.102 164.42 436.398 163.9C436.694 163.38 437.098 162.98 437.61 162.7C438.122 162.42 438.694 162.28 439.326 162.28C439.958 162.28 440.53 162.42 441.042 162.7C441.554 162.98 441.958 163.38 442.254 163.9C442.55 164.42 442.698 165.016 442.698 165.688C442.698 166.36 442.546 166.956 442.242 167.476C441.938 167.996 441.522 168.4 440.994 168.688C440.474 168.968 439.898 169.108 439.266 169.108ZM439.266 167.92C439.618 167.92 439.946 167.836 440.25 167.668C440.562 167.5 440.814 167.248 441.006 166.912C441.198 166.576 441.294 166.168 441.294 165.688C441.294 165.208 441.202 164.804 441.018 164.476C440.834 164.14 440.59 163.888 440.286 163.72C439.982 163.552 439.654 163.468 439.302 163.468C438.95 163.468 438.622 163.552 438.318 163.72C438.022 163.888 437.786 164.14 437.61 164.476C437.434 164.804 437.346 165.208 437.346 165.688C437.346 166.4 437.526 166.952 437.886 167.344C438.254 167.728 438.714 167.92 439.266 167.92Z" fill="white"/>
</svg>
