<svg xmlns="http://www.w3.org/2000/svg" fill="none" viewBox="0 0 300 40" height="40" width="300">
<rect fill-opacity="0.1" fill="white" rx="15" height="40" width="300"></rect>
<path fill="white" d="M46.288 15.66V16.776H44.068V24H42.7V16.776H40.468V15.66H46.288ZM47.2174 20.664C47.2174 20 47.3534 19.412 47.6254 18.9C47.9054 18.388 48.2814 17.992 48.7534 17.712C49.2334 17.424 49.7614 17.28 50.3374 17.28C50.8574 17.28 51.3094 17.384 51.6934 17.592C52.0854 17.792 52.3974 18.044 52.6294 18.348V17.388H54.0094V24H52.6294V23.016C52.3974 23.328 52.0814 23.588 51.6814 23.796C51.2814 24.004 50.8254 24.108 50.3134 24.108C49.7454 24.108 49.2254 23.964 48.7534 23.676C48.2814 23.38 47.9054 22.972 47.6254 22.452C47.3534 21.924 47.2174 21.328 47.2174 20.664ZM52.6294 20.688C52.6294 20.232 52.5334 19.836 52.3414 19.5C52.1574 19.164 51.9134 18.908 51.6094 18.732C51.3054 18.556 50.9774 18.468 50.6254 18.468C50.2734 18.468 49.9454 18.556 49.6414 18.732C49.3374 18.9 49.0894 19.152 48.8974 19.488C48.7134 19.816 48.6214 20.208 48.6214 20.664C48.6214 21.12 48.7134 21.52 48.8974 21.864C49.0894 22.208 49.3374 22.472 49.6414 22.656C49.9534 22.832 50.2814 22.92 50.6254 22.92C50.9774 22.92 51.3054 22.832 51.6094 22.656C51.9134 22.48 52.1574 22.224 52.3414 21.888C52.5334 21.544 52.6294 21.144 52.6294 20.688ZM57.1743 18.36C57.4063 18.056 57.7223 17.8 58.1223 17.592C58.5223 17.384 58.9743 17.28 59.4783 17.28C60.0543 17.28 60.5783 17.424 61.0503 17.712C61.5303 17.992 61.9063 18.388 62.1783 18.9C62.4503 19.412 62.5863 20 62.5863 20.664C62.5863 21.328 62.4503 21.924 62.1783 22.452C61.9063 22.972 61.5303 23.38 61.0503 23.676C60.5783 23.964 60.0543 24.108 59.4783 24.108C58.9743 24.108 58.5263 24.008 58.1343 23.808C57.7423 23.6 57.4223 23.344 57.1743 23.04V27.144H55.8063V17.388H57.1743V18.36ZM61.1943 20.664C61.1943 20.208 61.0983 19.816 60.9062 19.488C60.7223 19.152 60.4743 18.9 60.1623 18.732C59.8583 18.556 59.5303 18.468 59.1783 18.468C58.8343 18.468 58.5063 18.556 58.1943 18.732C57.8903 18.908 57.6423 19.164 57.4503 19.5C57.2663 19.836 57.1743 20.232 57.1743 20.688C57.1743 21.144 57.2663 21.544 57.4503 21.888C57.6423 22.224 57.8903 22.48 58.1943 22.656C58.5063 22.832 58.8343 22.92 59.1783 22.92C59.5303 22.92 59.8583 22.832 60.1623 22.656C60.4743 22.472 60.7223 22.208 60.9062 21.864C61.0983 21.52 61.1943 21.12 61.1943 20.664ZM69.3271 15.66V16.776H67.1071V24H65.7391V16.776H63.5071V15.66H69.3271ZM70.2565 20.664C70.2565 20 70.3925 19.412 70.6645 18.9C70.9445 18.388 71.3205 17.992 71.7925 17.712C72.2725 17.424 72.8005 17.28 73.3765 17.28C73.8965 17.28 74.3485 17.384 74.7325 17.592C75.1245 17.792 75.4365 18.044 75.6685 18.348V17.388H77.0485V24H75.6685V23.016C75.4365 23.328 75.1205 23.588 74.7205 23.796C74.3205 24.004 73.8645 24.108 73.3525 24.108C72.7845 24.108 72.2645 23.964 71.7925 23.676C71.3205 23.38 70.9445 22.972 70.6645 22.452C70.3925 21.924 70.2565 21.328 70.2565 20.664ZM75.6685 20.688C75.6685 20.232 75.5725 19.836 75.3805 19.5C75.1965 19.164 74.9525 18.908 74.6485 18.732C74.3445 18.556 74.0165 18.468 73.6645 18.468C73.3125 18.468 72.9845 18.556 72.6805 18.732C72.3765 18.9 72.1285 19.152 71.9365 19.488C71.7525 19.816 71.6605 20.208 71.6605 20.664C71.6605 21.12 71.7525 21.52 71.9365 21.864C72.1285 22.208 72.3765 22.472 72.6805 22.656C72.9925 22.832 73.3205 22.92 73.6645 22.92C74.0165 22.92 74.3445 22.832 74.6485 22.656C74.9525 22.48 75.1965 22.224 75.3805 21.888C75.5725 21.544 75.6685 21.144 75.6685 20.688ZM80.2133 18.36C80.4453 18.056 80.7613 17.8 81.1613 17.592C81.5613 17.384 82.0133 17.28 82.5173 17.28C83.0933 17.28 83.6173 17.424 84.0893 17.712C84.5693 17.992 84.9453 18.388 85.2173 18.9C85.4893 19.412 85.6253 20 85.6253 20.664C85.6253 21.328 85.4893 21.924 85.2173 22.452C84.9453 22.972 84.5693 23.38 84.0893 23.676C83.6173 23.964 83.0933 24.108 82.5173 24.108C82.0133 24.108 81.5653 24.008 81.1733 23.808C80.7813 23.6 80.4613 23.344 80.2133 23.04V27.144H78.8453V17.388H80.2133V18.36ZM84.2333 20.664C84.2333 20.208 84.1373 19.816 83.9453 19.488C83.7613 19.152 83.5133 18.9 83.2013 18.732C82.8973 18.556 82.5693 18.468 82.2173 18.468C81.8733 18.468 81.5453 18.556 81.2333 18.732C80.9293 18.908 80.6813 19.164 80.4893 19.5C80.3053 19.836 80.2133 20.232 80.2133 20.688C80.2133 21.144 80.3053 21.544 80.4893 21.888C80.6813 22.224 80.9293 22.48 81.2333 22.656C81.5453 22.832 81.8733 22.92 82.2173 22.92C82.5693 22.92 82.8973 22.832 83.2013 22.656C83.5133 22.472 83.7613 22.208 83.9453 21.864C84.1373 21.52 84.2333 21.12 84.2333 20.664ZM91.9553 21.564C91.6673 21.564 91.4033 21.496 91.1633 21.36C90.9313 21.216 90.7433 21.028 90.5993 20.796C90.4633 20.556 90.3953 20.292 90.3953 20.004C90.3953 19.564 90.5473 19.192 90.8513 18.888C91.1553 18.584 91.5233 18.432 91.9553 18.432C92.4033 18.432 92.7793 18.584 93.0833 18.888C93.3873 19.192 93.5393 19.564 93.5393 20.004C93.5393 20.444 93.3873 20.816 93.0833 21.12C92.7793 21.416 92.4033 21.564 91.9553 21.564ZM104.791 18.06C104.575 17.644 104.275 17.332 103.891 17.124C103.507 16.908 103.063 16.8 102.559 16.8C102.007 16.8 101.515 16.924 101.083 17.172C100.651 17.42 100.311 17.772 100.063 18.228C99.8235 18.684 99.7035 19.212 99.7035 19.812C99.7035 20.412 99.8235 20.944 100.063 21.408C100.311 21.864 100.651 22.216 101.083 22.464C101.515 22.712 102.007 22.836 102.559 22.836C103.303 22.836 103.907 22.628 104.371 22.212C104.835 21.796 105.119 21.232 105.223 20.52H102.091V19.428H106.687V20.496C106.599 21.144 106.367 21.74 105.991 22.284C105.623 22.828 105.139 23.264 104.539 23.592C103.947 23.912 103.287 24.072 102.559 24.072C101.775 24.072 101.059 23.892 100.411 23.532C99.7635 23.164 99.2475 22.656 98.8635 22.008C98.4875 21.36 98.2995 20.628 98.2995 19.812C98.2995 18.996 98.4875 18.264 98.8635 17.616C99.2475 16.968 99.7635 16.464 100.411 16.104C101.067 15.736 101.783 15.552 102.559 15.552C103.447 15.552 104.235 15.772 104.923 16.212C105.619 16.644 106.123 17.26 106.435 18.06H104.791ZM107.581 20.664C107.581 20 107.717 19.412 107.989 18.9C108.269 18.388 108.645 17.992 109.117 17.712C109.597 17.424 110.125 17.28 110.701 17.28C111.221 17.28 111.673 17.384 112.057 17.592C112.449 17.792 112.761 18.044 112.993 18.348V17.388H114.373V24H112.993V23.016C112.761 23.328 112.445 23.588 112.045 23.796C111.645 24.004 111.189 24.108 110.677 24.108C110.109 24.108 109.589 23.964 109.117 23.676C108.645 23.38 108.269 22.972 107.989 22.452C107.717 21.924 107.581 21.328 107.581 20.664ZM112.993 20.688C112.993 20.232 112.897 19.836 112.705 19.5C112.521 19.164 112.277 18.908 111.973 18.732C111.669 18.556 111.341 18.468 110.989 18.468C110.637 18.468 110.309 18.556 110.005 18.732C109.701 18.9 109.453 19.152 109.261 19.488C109.077 19.816 108.985 20.208 108.985 20.664C108.985 21.12 109.077 21.52 109.261 21.864C109.453 22.208 109.701 22.472 110.005 22.656C110.317 22.832 110.645 22.92 110.989 22.92C111.341 22.92 111.669 22.832 111.973 22.656C112.277 22.48 112.521 22.224 112.705 21.888C112.897 21.544 112.993 21.144 112.993 20.688ZM124.174 17.28C124.694 17.28 125.158 17.388 125.566 17.604C125.982 17.82 126.306 18.14 126.538 18.564C126.778 18.988 126.898 19.5 126.898 20.1V24H125.542V20.304C125.542 19.712 125.394 19.26 125.098 18.948C124.802 18.628 124.398 18.468 123.886 18.468C123.374 18.468 122.966 18.628 122.662 18.948C122.366 19.26 122.218 19.712 122.218 20.304V24H120.862V20.304C120.862 19.712 120.714 19.26 120.418 18.948C120.122 18.628 119.718 18.468 119.206 18.468C118.694 18.468 118.286 18.628 117.982 18.948C117.686 19.26 117.538 19.712 117.538 20.304V24H116.17V17.388H117.538V18.144C117.762 17.872 118.046 17.66 118.39 17.508C118.734 17.356 119.102 17.28 119.494 17.28C120.022 17.28 120.494 17.392 120.91 17.616C121.326 17.84 121.646 18.164 121.87 18.588C122.07 18.188 122.382 17.872 122.806 17.64C123.23 17.4 123.686 17.28 124.174 17.28ZM134.698 20.532C134.698 20.78 134.682 21.004 134.65 21.204H129.598C129.638 21.732 129.834 22.156 130.186 22.476C130.538 22.796 130.97 22.956 131.482 22.956C132.218 22.956 132.738 22.648 133.042 22.032H134.518C134.318 22.64 133.954 23.14 133.426 23.532C132.906 23.916 132.258 24.108 131.482 24.108C130.85 24.108 130.282 23.968 129.778 23.688C129.282 23.4 128.89 23 128.602 22.488C128.322 21.968 128.182 21.368 128.182 20.688C128.182 20.008 128.318 19.412 128.59 18.9C128.87 18.38 129.258 17.98 129.754 17.7C130.258 17.42 130.834 17.28 131.482 17.28C132.106 17.28 132.662 17.416 133.15 17.688C133.638 17.96 134.018 18.344 134.29 18.84C134.562 19.328 134.698 19.892 134.698 20.532ZM133.27 20.1C133.262 19.596 133.082 19.192 132.73 18.888C132.378 18.584 131.942 18.432 131.422 18.432C130.95 18.432 130.546 18.584 130.21 18.888C129.874 19.184 129.674 19.588 129.61 20.1H133.27Z"></path>
<path fill="white" d="M10 18C10 17.4477 10.4477 17 11 17H15C15.5523 17 16 17.4477 16 18V18C16 18.5523 15.5523 19 15 19H14V23C14 23.5523 13.5523 24 13 24V24C12.4477 24 12 23.5523 12 23V19H11C10.4477 19 10 18.5523 10 18V18Z"></path>
<path fill="white" d="M18.6284 17.5495C19.0107 16.8698 19.9893 16.8698 20.3716 17.5495L23.1617 22.5097C23.5367 23.1763 23.055 24 22.2902 24H16.7098C15.945 24 15.4633 23.1763 15.8383 22.5097L18.6284 17.5495Z"></path>
<rect fill="white" rx="1" height="5" width="2" y="19" x="25"></rect>
<circle stroke-width="2" stroke="white" r="1.5" cy="19.5" cx="27.5"></circle>
</svg>
