<svg xmlns="http://www.w3.org/2000/svg" fill="none" viewBox="0 0 60 80" height="80" width="60">
<path fill="#58FF91" d="M29.621 23.848C31.301 23.848 32.777 24.22 34.049 24.964C35.321 25.684 36.317 26.692 37.037 27.988C37.757 29.26 38.117 30.724 38.117 32.38C38.117 34.036 37.757 35.512 37.037 36.808C36.317 38.104 35.321 39.124 34.049 39.868C32.777 40.588 31.301 40.948 29.621 40.948C27.989 40.948 26.525 40.588 25.229 39.868C23.957 39.124 22.961 38.104 22.241 36.808C21.521 35.512 21.161 34.036 21.161 32.38C21.161 30.724 21.521 29.26 22.241 27.988C22.961 26.692 23.957 25.684 25.229 24.964C26.501 24.22 27.965 23.848 29.621 23.848ZM29.657 27.088C28.673 27.088 27.797 27.316 27.029 27.772C26.285 28.204 25.697 28.816 25.265 29.608C24.833 30.4 24.617 31.324 24.617 32.38C24.617 33.412 24.833 34.336 25.265 35.152C25.697 35.944 26.285 36.568 27.029 37.024C27.797 37.48 28.673 37.708 29.657 37.708C30.641 37.708 31.505 37.48 32.249 37.024C33.017 36.568 33.605 35.944 34.013 35.152C34.445 34.336 34.661 33.412 34.661 32.38C34.661 31.324 34.445 30.4 34.013 29.608C33.605 28.816 33.017 28.204 32.249 27.772C31.505 27.316 30.641 27.088 29.657 27.088ZM36.929 36.988L28.577 50.92C28.145 51.592 27.593 51.928 26.921 51.928C26.441 51.928 26.021 51.784 25.661 51.496C25.325 51.208 25.109 50.848 25.013 50.416C24.941 49.96 25.037 49.528 25.301 49.12L30.413 40.624L36.929 36.988Z"></path>
<path fill="#58FF91" d="M34.049 24.964L33.5441 25.8272C33.5482 25.8296 33.5523 25.8319 33.5564 25.8343L34.049 24.964ZM37.037 27.988L36.1628 28.4737L36.1668 28.4806L37.037 27.988ZM34.049 39.868L34.5416 40.7383C34.5457 40.7359 34.5498 40.7336 34.5539 40.7312L34.049 39.868ZM25.229 39.868L24.7241 40.7312C24.7305 40.7349 24.7369 40.7386 24.7434 40.7422L25.229 39.868ZM22.241 27.988L23.1113 28.4806L23.1152 28.4736L22.241 27.988ZM25.229 24.964L25.7216 25.8343C25.7257 25.8319 25.7298 25.8296 25.7339 25.8272L25.229 24.964ZM27.029 27.772L27.5312 28.6368L27.5396 28.6319L27.029 27.772ZM25.265 29.608L26.1429 30.0869L26.1429 30.0869L25.265 29.608ZM25.265 35.152L24.3812 35.6199L24.3871 35.6309L25.265 35.152ZM27.029 37.024L26.5064 37.8767L26.5185 37.8839L27.029 37.024ZM32.249 37.024L31.7384 36.1641L31.7265 36.1714L32.249 37.024ZM34.013 35.152L33.1292 34.6841L33.124 34.694L34.013 35.152ZM34.013 29.608L33.124 30.066C33.1277 30.073 33.1313 30.0799 33.1351 30.0869L34.013 29.608ZM32.249 27.772L31.7265 28.6246C31.7371 28.6311 31.7479 28.6375 31.7588 28.6436L32.249 27.772ZM36.929 36.988L37.7867 37.5022C38.0196 37.1137 37.9623 36.6172 37.647 36.292C37.3318 35.9667 36.8373 35.894 36.4417 36.1148L36.929 36.988ZM28.577 50.92L29.4182 51.4608C29.4238 51.452 29.4293 51.4431 29.4347 51.4342L28.577 50.92ZM25.661 51.496L25.0102 52.2553C25.0188 52.2626 25.0275 52.2698 25.0363 52.2769L25.661 51.496ZM25.013 50.416L24.0253 50.572C24.0285 50.5924 24.0323 50.6127 24.0368 50.6329L25.013 50.416ZM25.301 49.12L26.1406 49.6633C26.1465 49.6541 26.1523 49.6449 26.1579 49.6356L25.301 49.12ZM30.413 40.624L29.9257 39.7508C29.7735 39.8357 29.6461 39.959 29.5562 40.1084L30.413 40.624ZM29.621 24.848C31.1489 24.848 32.4458 25.1847 33.5441 25.8272L34.5539 24.1008C33.1083 23.2553 31.4532 22.848 29.621 22.848V24.848ZM33.5564 25.8343C34.6659 26.4622 35.5309 27.3361 36.1629 28.4736L37.9112 27.5024C37.1032 26.0479 35.9762 24.9058 34.5416 24.0937L33.5564 25.8343ZM36.1668 28.4806C36.7909 29.5833 37.117 30.8733 37.117 32.38H39.117C39.117 30.5747 38.7231 28.9367 37.9073 27.4954L36.1668 28.4806ZM37.117 32.38C37.117 33.8863 36.791 35.1917 36.1629 36.3224L37.9112 37.2936C38.723 35.8323 39.117 34.1857 39.117 32.38H37.117ZM36.1629 36.3224C35.5293 37.4627 34.6604 38.3519 33.5441 39.0048L34.5539 40.7312C35.9816 39.8961 37.1047 38.7453 37.9112 37.2936L36.1629 36.3224ZM33.5564 38.9977C32.4559 39.6207 31.1545 39.948 29.621 39.948V41.948C31.4475 41.948 33.0982 41.5553 34.5416 40.7383L33.5564 38.9977ZM29.621 39.948C28.1414 39.948 26.8475 39.6232 25.7147 38.9938L24.7434 40.7422C26.2025 41.5528 27.8366 41.948 29.621 41.948V39.948ZM25.7339 39.0048C24.6176 38.3519 23.7487 37.4627 23.1152 36.3224L21.3669 37.2936C22.1733 38.7453 23.2964 39.8961 24.7241 40.7312L25.7339 39.0048ZM23.1152 36.3224C22.487 35.1917 22.161 33.8863 22.161 32.38H20.161C20.161 34.1857 20.555 35.8323 21.3669 37.2936L23.1152 36.3224ZM22.161 32.38C22.161 30.8733 22.4871 29.5833 23.1113 28.4806L21.3708 27.4954C20.5549 28.9367 20.161 30.5747 20.161 32.38H22.161ZM23.1152 28.4736C23.7472 27.3361 24.6122 26.4622 25.7216 25.8343L24.7364 24.0937C23.3019 24.9058 22.1749 26.0479 21.3669 27.5024L23.1152 28.4736ZM25.7339 25.8272C26.8344 25.1835 28.12 24.848 29.621 24.848V22.848C27.81 22.848 26.1676 23.2565 24.7241 24.1008L25.7339 25.8272ZM29.657 26.088C28.5121 26.088 27.4564 26.3553 26.5185 26.9121L27.5396 28.6319C28.1376 28.2767 28.8339 28.088 29.657 28.088V26.088ZM26.5269 26.9072C25.6168 27.4356 24.9023 28.1847 24.3871 29.1291L26.1429 30.0869C26.4918 29.4473 26.9532 28.9724 27.5312 28.6368L26.5269 26.9072ZM24.3871 29.1291C23.8623 30.0913 23.617 31.1853 23.617 32.38H25.617C25.617 31.4627 25.8037 30.7087 26.1429 30.0869L24.3871 29.1291ZM23.617 32.38C23.617 33.5556 23.8643 34.6434 24.3812 35.6199L26.1488 34.6841C25.8017 34.0286 25.617 33.2684 25.617 32.38H23.617ZM24.3871 35.6309C24.8999 36.5709 25.6082 37.3261 26.5065 37.8766L27.5516 36.1714C26.9618 35.8099 26.4941 35.3171 26.1429 34.6731L24.3871 35.6309ZM26.5185 37.8839C27.4564 38.4407 28.5121 38.708 29.657 38.708V36.708C28.8339 36.708 28.1376 36.5193 27.5396 36.1641L26.5185 37.8839ZM29.657 38.708C30.8013 38.708 31.8509 38.4409 32.7716 37.8766L31.7265 36.1714C31.1591 36.5191 30.4807 36.708 29.657 36.708V38.708ZM32.7596 37.8839C33.6885 37.3323 34.4078 36.5692 34.902 35.61L33.124 34.694C32.8022 35.3188 32.3456 35.8037 31.7385 36.1641L32.7596 37.8839ZM34.8968 35.6199C35.4137 34.6434 35.661 33.5556 35.661 32.38H33.661C33.661 33.2684 33.4763 34.0286 33.1292 34.6841L34.8968 35.6199ZM35.661 32.38C35.661 31.1853 35.4157 30.0913 34.8909 29.1291L33.1351 30.0869C33.4743 30.7087 33.661 31.4627 33.661 32.38H35.661ZM34.902 29.15C34.4055 28.1862 33.6798 27.4295 32.7393 26.9004L31.7588 28.6436C32.3543 28.9785 32.8046 29.4458 33.124 30.066L34.902 29.15ZM32.7716 26.9194C31.8509 26.3551 30.8013 26.088 29.657 26.088V28.088C30.4807 28.088 31.1591 28.2769 31.7265 28.6246L32.7716 26.9194ZM36.0713 36.4738L27.7193 50.4058L29.4347 51.4342L37.7867 37.5022L36.0713 36.4738ZM27.7358 50.3792C27.4475 50.8277 27.1844 50.928 26.921 50.928V52.928C28.0017 52.928 28.8425 52.3563 29.4182 51.4608L27.7358 50.3792ZM26.921 50.928C26.658 50.928 26.4607 50.8551 26.2857 50.7151L25.0363 52.2769C25.5814 52.7129 26.224 52.928 26.921 52.928V50.928ZM26.3118 50.7367C26.1401 50.5896 26.0383 50.4199 25.9892 50.1991L24.0368 50.6329C24.1798 51.2761 24.5099 51.8264 25.0102 52.2553L26.3118 50.7367ZM26.0008 50.26C25.9694 50.0611 26.0027 49.8763 26.1406 49.6633L24.4614 48.5767C24.0713 49.1797 23.9127 49.8589 24.0253 50.572L26.0008 50.26ZM26.1579 49.6356L31.2699 41.1396L29.5562 40.1084L24.4442 48.6044L26.1579 49.6356ZM30.9003 41.4972L37.4163 37.8612L36.4417 36.1148L29.9257 39.7508L30.9003 41.4972Z"></path>
</svg>
