<svg xmlns="http://www.w3.org/2000/svg" fill="none" viewBox="0 0 60 80" height="80" width="60">
<path fill="#58ACFF" d="M23.594 52C23.066 52 22.622 51.82 22.262 51.46C21.926 51.1 21.758 50.668 21.758 50.164C21.758 49.636 21.926 49.204 22.262 48.868L32.486 36.916C33.206 36.076 33.758 35.284 34.142 34.54C34.55 33.796 34.754 33.088 34.754 32.416C34.754 31.36 34.574 30.448 34.214 29.68C33.854 28.912 33.338 28.324 32.666 27.916C31.994 27.484 31.19 27.268 30.254 27.268C29.342 27.268 28.514 27.508 27.77 27.988C27.05 28.444 26.474 29.068 26.042 29.86C25.634 30.628 25.43 31.48 25.43 32.416C25.43 32.896 25.25 33.316 24.89 33.676C24.554 34.036 24.122 34.216 23.594 34.216C23.09 34.216 22.658 34.036 22.298 33.676C21.938 33.316 21.758 32.896 21.758 32.416C21.758 30.784 22.13 29.332 22.874 28.06C23.618 26.764 24.626 25.744 25.898 25C27.194 24.256 28.646 23.884 30.254 23.884C31.886 23.884 33.302 24.232 34.502 24.928C35.702 25.624 36.626 26.608 37.274 27.88C37.946 29.152 38.282 30.664 38.282 32.416C38.282 33.184 38.114 33.964 37.778 34.756C37.466 35.548 37.058 36.304 36.554 37.024C36.074 37.744 35.582 38.392 35.078 38.968L26.834 48.328H36.914C37.442 48.328 37.886 48.52 38.246 48.904C38.606 49.264 38.786 49.684 38.786 50.164C38.786 50.668 38.606 51.1 38.246 51.46C37.886 51.82 37.442 52 36.914 52H23.594Z"></path>
<path fill="#58ACFF" d="M22.262 51.46L21.5309 52.1423C21.5388 52.1507 21.5467 52.159 21.5549 52.1671L22.262 51.46ZM22.262 48.868L22.9691 49.5751C22.9874 49.5568 23.005 49.5377 23.0219 49.518L22.262 48.868ZM32.486 36.916L31.7267 36.2652L31.7261 36.266L32.486 36.916ZM34.142 34.54L33.2652 34.0592C33.2611 34.0665 33.2572 34.0739 33.2533 34.0814L34.142 34.54ZM34.214 29.68L33.3085 30.1044L33.3085 30.1044L34.214 29.68ZM32.666 27.916L32.1252 28.7572C32.1324 28.7618 32.1397 28.7663 32.147 28.7708L32.666 27.916ZM27.77 27.988L28.305 28.8328L28.3121 28.8283L27.77 27.988ZM26.042 29.86L25.164 29.3811L25.1589 29.3908L26.042 29.86ZM24.89 33.676L24.1829 32.9689C24.1747 32.977 24.1668 32.9853 24.1589 32.9937L24.89 33.676ZM22.298 33.676L21.5909 34.3831L21.5909 34.3831L22.298 33.676ZM22.874 28.06L23.7372 28.5649L23.7412 28.5579L22.874 28.06ZM25.898 25L25.4001 24.1327L25.3931 24.1368L25.898 25ZM34.502 24.928L35.0037 24.063L35.0037 24.063L34.502 24.928ZM37.274 27.88L36.3829 28.3339C36.3852 28.3383 36.3875 28.3427 36.3898 28.3471L37.274 27.88ZM37.778 34.756L36.8574 34.3654C36.854 34.3734 36.8507 34.3814 36.8476 34.3895L37.778 34.756ZM36.554 37.024L35.7347 36.4505C35.7304 36.4567 35.7261 36.463 35.7219 36.4693L36.554 37.024ZM35.078 38.968L35.8284 39.629L35.8305 39.6265L35.078 38.968ZM26.834 48.328L26.0835 47.667C25.8238 47.9619 25.7609 48.3816 25.9227 48.7397C26.0845 49.0978 26.441 49.328 26.834 49.328V48.328ZM38.246 48.904L37.5164 49.5879C37.5238 49.5958 37.5313 49.6035 37.5389 49.6111L38.246 48.904ZM38.246 51.46L37.5389 50.7529L37.5389 50.7529L38.246 51.46ZM23.594 51C23.3202 51 23.1339 50.9177 22.9691 50.7529L21.5549 52.1671C22.11 52.7223 22.8117 53 23.594 53V51ZM22.993 50.7777C22.8343 50.6076 22.758 50.4213 22.758 50.164H20.758C20.758 50.9147 21.0176 51.5924 21.5309 52.1423L22.993 50.7777ZM22.758 50.164C22.758 49.8689 22.8423 49.7019 22.9691 49.5751L21.5549 48.1609C21.0097 48.7061 20.758 49.4031 20.758 50.164H22.758ZM23.0219 49.518L33.2459 37.566L31.7261 36.266L21.5021 48.218L23.0219 49.518ZM33.2452 37.5668C34.0006 36.6856 34.6018 35.8294 35.0306 34.9986L33.2533 34.0814C32.9141 34.7386 32.4114 35.4664 31.7267 36.2652L33.2452 37.5668ZM35.0188 35.0208C35.4868 34.1674 35.754 33.2946 35.754 32.416H33.754C33.754 32.8814 33.6132 33.4246 33.2652 34.0592L35.0188 35.0208ZM35.754 32.416C35.754 31.2483 35.555 30.1848 35.1194 29.2556L33.3085 30.1044C33.5929 30.7112 33.754 31.4717 33.754 32.416H35.754ZM35.1194 29.2556C34.6827 28.3239 34.0387 27.5796 33.1849 27.0612L32.147 28.7708C32.6372 29.0684 33.0252 29.5001 33.3085 30.1044L35.1194 29.2556ZM33.2067 27.0748C32.3474 26.5224 31.3482 26.268 30.254 26.268V28.268C31.0317 28.268 31.6406 28.4456 32.1252 28.7572L33.2067 27.0748ZM30.254 26.268C29.1558 26.268 28.1385 26.5602 27.2278 27.1477L28.3121 28.8283C28.8894 28.4558 29.5282 28.268 30.254 28.268V26.268ZM27.2349 27.1432C26.363 27.6954 25.6725 28.4491 25.1641 29.3811L26.9199 30.3389C27.2755 29.6869 27.737 29.1926 28.305 28.8328L27.2349 27.1432ZM25.1589 29.3908C24.6683 30.3142 24.43 31.3292 24.43 32.416H26.43C26.43 31.6308 26.5996 30.9418 26.9251 30.3292L25.1589 29.3908ZM24.43 32.416C24.43 32.6134 24.368 32.7838 24.1829 32.9689L25.5971 34.3831C26.132 33.8482 26.43 33.1786 26.43 32.416H24.43ZM24.1589 32.9937C24.0268 33.1352 23.8672 33.216 23.594 33.216V35.216C24.3768 35.216 25.0811 34.9368 25.621 34.3583L24.1589 32.9937ZM23.594 33.216C23.3582 33.216 23.1797 33.1435 23.0051 32.9689L21.5909 34.3831C22.1363 34.9285 22.8217 35.216 23.594 35.216V33.216ZM23.0051 32.9689C22.82 32.7838 22.758 32.6134 22.758 32.416H20.758C20.758 33.1786 21.056 33.8482 21.5909 34.3831L23.0051 32.9689ZM22.758 32.416C22.758 30.9419 23.0921 29.6676 23.7372 28.5649L22.0108 27.5551C21.1678 28.9963 20.758 30.6261 20.758 32.416H22.758ZM23.7412 28.5579C24.3997 27.4109 25.2837 26.5178 26.4029 25.8632L25.3931 24.1368C23.9683 24.9702 22.8363 26.1171 22.0067 27.5621L23.7412 28.5579ZM26.3958 25.8673C27.5289 25.2168 28.8069 24.884 30.254 24.884V22.884C28.485 22.884 26.8591 23.2952 25.4001 24.1327L26.3958 25.8673ZM30.254 24.884C31.7411 24.884 32.9777 25.1999 34.0003 25.793L35.0037 24.063C33.6263 23.2641 32.0309 22.884 30.254 22.884V24.884ZM34.0003 25.793C35.0285 26.3894 35.8197 27.2283 36.3829 28.3339L38.165 27.4261C37.4322 25.9877 36.3754 24.8586 35.0037 24.063L34.0003 25.793ZM36.3898 28.3471C36.9709 29.447 37.282 30.7917 37.282 32.416H39.282C39.282 30.5363 38.9211 28.857 38.1582 27.4129L36.3898 28.3471ZM37.282 32.416C37.282 33.0346 37.1473 33.6821 36.8574 34.3654L38.6986 35.1465C39.0807 34.2459 39.282 33.3334 39.282 32.416H37.282ZM36.8476 34.3895C36.5653 35.106 36.1951 35.7928 35.7347 36.4505L37.3732 37.5975C37.9208 36.8152 38.3667 35.99 38.7084 35.1225L36.8476 34.3895ZM35.7219 36.4693C35.2631 37.1576 34.7972 37.7702 34.3254 38.3095L35.8305 39.6265C36.3667 39.0138 36.8849 38.3304 37.386 37.5787L35.7219 36.4693ZM34.3275 38.307L26.0835 47.667L27.5844 48.989L35.8284 39.629L34.3275 38.307ZM26.834 49.328H36.914V47.328H26.834V49.328ZM36.914 49.328C37.1665 49.328 37.3461 49.4063 37.5164 49.5879L38.9755 48.2201C38.4258 47.6337 37.7174 47.328 36.914 47.328V49.328ZM37.5389 49.6111C37.724 49.7962 37.786 49.9666 37.786 50.164H39.786C39.786 49.4014 39.488 48.7318 38.9531 48.1969L37.5389 49.6111ZM37.786 50.164C37.786 50.3998 37.7135 50.5783 37.5389 50.7529L38.9531 52.1671C39.4985 51.6217 39.786 50.9362 39.786 50.164H37.786ZM37.5389 50.7529C37.374 50.9177 37.1877 51 36.914 51V53C37.6962 53 38.3979 52.7223 38.9531 52.1671L37.5389 50.7529ZM36.914 51H23.594V53H36.914V51Z"></path>
</svg>
