<svg xmlns="http://www.w3.org/2000/svg" fill="none" viewBox="0 0 60 30" height="30" width="60">
<rect fill-opacity="0.25" fill="white" rx="15" height="30" width="60"></rect>
<path fill="black" d="M17.9625 19.084C17.4025 19.084 16.8985 18.988 16.4505 18.796C16.0025 18.596 15.6505 18.316 15.3945 17.956C15.1385 17.596 15.0105 17.176 15.0105 16.696H16.4745C16.5065 17.056 16.6465 17.352 16.8945 17.584C17.1505 17.816 17.5065 17.932 17.9625 17.932C18.4345 17.932 18.8025 17.82 19.0665 17.596C19.3305 17.364 19.4625 17.068 19.4625 16.708C19.4625 16.428 19.3785 16.2 19.2105 16.024C19.0505 15.848 18.8465 15.712 18.5985 15.616C18.3585 15.52 18.0225 15.416 17.5905 15.304C17.0465 15.16 16.6025 15.016 16.2585 14.872C15.9225 14.72 15.6345 14.488 15.3945 14.176C15.1545 13.864 15.0345 13.448 15.0345 12.928C15.0345 12.448 15.1545 12.028 15.3945 11.668C15.6345 11.308 15.9705 11.032 16.4025 10.84C16.8345 10.648 17.3345 10.552 17.9025 10.552C18.7105 10.552 19.3705 10.756 19.8825 11.164C20.4025 11.564 20.6905 12.116 20.7465 12.82H19.2345C19.2105 12.516 19.0665 12.256 18.8025 12.04C18.5385 11.824 18.1905 11.716 17.7585 11.716C17.3665 11.716 17.0465 11.816 16.7985 12.016C16.5505 12.216 16.4265 12.504 16.4265 12.88C16.4265 13.136 16.5025 13.348 16.6545 13.516C16.8145 13.676 17.0145 13.804 17.2545 13.9C17.4945 13.996 17.8225 14.1 18.2385 14.212C18.7905 14.364 19.2385 14.516 19.5825 14.668C19.9345 14.82 20.2305 15.056 20.4705 15.376C20.7185 15.688 20.8425 16.108 20.8425 16.636C20.8425 17.06 20.7265 17.46 20.4945 17.836C20.2705 18.212 19.9385 18.516 19.4985 18.748C19.0665 18.972 18.5545 19.084 17.9625 19.084ZM24.0526 13.504V17.164C24.0526 17.412 24.1086 17.592 24.2206 17.704C24.3406 17.808 24.5406 17.86 24.8206 17.86H25.6606V19H24.5806C23.9646 19 23.4926 18.856 23.1646 18.568C22.8366 18.28 22.6726 17.812 22.6726 17.164V13.504H21.8926V12.388H22.6726V10.744H24.0526V12.388H25.6606V13.504H24.0526ZM29.7895 19.108C29.1655 19.108 28.6015 18.968 28.0975 18.688C27.5935 18.4 27.1975 18 26.9095 17.488C26.6215 16.968 26.4775 16.368 26.4775 15.688C26.4775 15.016 26.6255 14.42 26.9215 13.9C27.2175 13.38 27.6215 12.98 28.1335 12.7C28.6455 12.42 29.2175 12.28 29.8495 12.28C30.4815 12.28 31.0535 12.42 31.5655 12.7C32.0775 12.98 32.4815 13.38 32.7775 13.9C33.0735 14.42 33.2215 15.016 33.2215 15.688C33.2215 16.36 33.0695 16.956 32.7655 17.476C32.4615 17.996 32.0455 18.4 31.5175 18.688C30.9975 18.968 30.4215 19.108 29.7895 19.108ZM29.7895 17.92C30.1415 17.92 30.4695 17.836 30.7735 17.668C31.0855 17.5 31.3375 17.248 31.5295 16.912C31.7215 16.576 31.8175 16.168 31.8175 15.688C31.8175 15.208 31.7255 14.804 31.5415 14.476C31.3575 14.14 31.1135 13.888 30.8095 13.72C30.5055 13.552 30.1775 13.468 29.8255 13.468C29.4735 13.468 29.1455 13.552 28.8415 13.72C28.5455 13.888 28.3095 14.14 28.1335 14.476C27.9575 14.804 27.8695 15.208 27.8695 15.688C27.8695 16.4 28.0495 16.952 28.4095 17.344C28.7775 17.728 29.2375 17.92 29.7895 17.92ZM35.9418 13.348C36.1418 13.012 36.4058 12.752 36.7338 12.568C37.0698 12.376 37.4658 12.28 37.9218 12.28V13.696H37.5738C37.0378 13.696 36.6298 13.832 36.3498 14.104C36.0778 14.376 35.9418 14.848 35.9418 15.52V19H34.5738V12.388H35.9418V13.348ZM45.2393 15.532C45.2393 15.78 45.2233 16.004 45.1913 16.204H40.1393C40.1793 16.732 40.3753 17.156 40.7273 17.476C41.0793 17.796 41.5113 17.956 42.0233 17.956C42.7593 17.956 43.2793 17.648 43.5833 17.032H45.0593C44.8593 17.64 44.4953 18.14 43.9673 18.532C43.4473 18.916 42.7993 19.108 42.0233 19.108C41.3913 19.108 40.8233 18.968 40.3193 18.688C39.8233 18.4 39.4313 18 39.1433 17.488C38.8633 16.968 38.7233 16.368 38.7233 15.688C38.7233 15.008 38.8593 14.412 39.1313 13.9C39.4113 13.38 39.7993 12.98 40.2953 12.7C40.7993 12.42 41.3753 12.28 42.0233 12.28C42.6473 12.28 43.2033 12.416 43.6913 12.688C44.1793 12.96 44.5593 13.344 44.8313 13.84C45.1033 14.328 45.2393 14.892 45.2393 15.532ZM43.8113 15.1C43.8033 14.596 43.6233 14.192 43.2713 13.888C42.9193 13.584 42.4833 13.432 41.9633 13.432C41.4913 13.432 41.0873 13.584 40.7513 13.888C40.4153 14.184 40.2153 14.588 40.1513 15.1H43.8113Z"></path>
</svg>
