<svg width="450" height="360" viewBox="0 0 450 360" fill="none" xmlns="http://www.w3.org/2000/svg">
<rect width="450" height="40" rx="15" fill="white" fill-opacity="0.1"/>
<path d="M27.56 15.66V24H26.192V20.352H22.268V24H20.9V15.66H22.268V19.236H26.192V15.66H27.56ZM35.4209 20.532C35.4209 20.78 35.4049 21.004 35.3729 21.204H30.3209C30.3609 21.732 30.5569 22.156 30.9089 22.476C31.2609 22.796 31.6929 22.956 32.2049 22.956C32.9409 22.956 33.4609 22.648 33.7649 22.032H35.2409C35.0409 22.64 34.6769 23.14 34.1489 23.532C33.6289 23.916 32.9809 24.108 32.2049 24.108C31.5729 24.108 31.0049 23.968 30.5009 23.688C30.0049 23.4 29.6129 23 29.3249 22.488C29.0449 21.968 28.9049 21.368 28.9049 20.688C28.9049 20.008 29.0409 19.412 29.3129 18.9C29.5929 18.38 29.9809 17.98 30.4769 17.7C30.9809 17.42 31.5569 17.28 32.2049 17.28C32.8289 17.28 33.3849 17.416 33.8729 17.688C34.3609 17.96 34.7409 18.344 35.0129 18.84C35.2849 19.328 35.4209 19.892 35.4209 20.532ZM33.9929 20.1C33.9849 19.596 33.8049 19.192 33.4529 18.888C33.1009 18.584 32.6649 18.432 32.1449 18.432C31.6729 18.432 31.2689 18.584 30.9329 18.888C30.5969 19.184 30.3969 19.588 30.3329 20.1H33.9929ZM38.1352 18.348C38.3352 18.012 38.5992 17.752 38.9272 17.568C39.2632 17.376 39.6592 17.28 40.1152 17.28V18.696H39.7672C39.2312 18.696 38.8232 18.832 38.5432 19.104C38.2712 19.376 38.1352 19.848 38.1352 20.52V24H36.7672V17.388H38.1352V18.348ZM47.4327 20.532C47.4327 20.78 47.4167 21.004 47.3847 21.204H42.3327C42.3727 21.732 42.5687 22.156 42.9207 22.476C43.2727 22.796 43.7047 22.956 44.2167 22.956C44.9527 22.956 45.4727 22.648 45.7767 22.032H47.2527C47.0527 22.64 46.6887 23.14 46.1607 23.532C45.6407 23.916 44.9927 24.108 44.2167 24.108C43.5847 24.108 43.0167 23.968 42.5127 23.688C42.0167 23.4 41.6247 23 41.3367 22.488C41.0567 21.968 40.9167 21.368 40.9167 20.688C40.9167 20.008 41.0527 19.412 41.3247 18.9C41.6047 18.38 41.9927 17.98 42.4887 17.7C42.9927 17.42 43.5687 17.28 44.2167 17.28C44.8407 17.28 45.3967 17.416 45.8847 17.688C46.3727 17.96 46.7527 18.344 47.0247 18.84C47.2967 19.328 47.4327 19.892 47.4327 20.532ZM46.0047 20.1C45.9967 19.596 45.8167 19.192 45.4647 18.888C45.1127 18.584 44.6767 18.432 44.1567 18.432C43.6847 18.432 43.2807 18.584 42.9447 18.888C42.6087 19.184 42.4087 19.588 42.3447 20.1H46.0047ZM56.8041 15.66V16.776H53.2641V19.236H56.0241V20.352H53.2641V24H51.8961V15.66H56.8041ZM60.9399 24.108C60.3159 24.108 59.7519 23.968 59.2479 23.688C58.7439 23.4 58.3479 23 58.0599 22.488C57.7719 21.968 57.6279 21.368 57.6279 20.688C57.6279 20.016 57.7759 19.42 58.0719 18.9C58.3679 18.38 58.7719 17.98 59.2839 17.7C59.7959 17.42 60.3679 17.28 60.9999 17.28C61.6319 17.28 62.2039 17.42 62.7159 17.7C63.2279 17.98 63.6319 18.38 63.9279 18.9C64.2239 19.42 64.3719 20.016 64.3719 20.688C64.3719 21.36 64.2199 21.956 63.9159 22.476C63.6119 22.996 63.1959 23.4 62.6679 23.688C62.1479 23.968 61.5719 24.108 60.9399 24.108ZM60.9399 22.92C61.2919 22.92 61.6199 22.836 61.9239 22.668C62.2359 22.5 62.4879 22.248 62.6799 21.912C62.8719 21.576 62.9679 21.168 62.9679 20.688C62.9679 20.208 62.8759 19.804 62.6919 19.476C62.5079 19.14 62.2639 18.888 61.9599 18.72C61.6559 18.552 61.3279 18.468 60.9759 18.468C60.6239 18.468 60.2959 18.552 59.9919 18.72C59.6959 18.888 59.4599 19.14 59.2839 19.476C59.1079 19.804 59.0199 20.208 59.0199 20.688C59.0199 21.4 59.1999 21.952 59.5599 22.344C59.9279 22.728 60.3879 22.92 60.9399 22.92ZM67.0922 18.348C67.2922 18.012 67.5562 17.752 67.8842 17.568C68.2202 17.376 68.6162 17.28 69.0722 17.28V18.696H68.7242C68.1882 18.696 67.7802 18.832 67.5002 19.104C67.2282 19.376 67.0922 19.848 67.0922 20.52V24H65.7242V17.388H67.0922V18.348ZM79.6269 15.66L76.8669 20.976V24H75.4989V20.976L72.7269 15.66H74.2509L76.1829 19.752L78.1149 15.66H79.6269ZM83.5805 24.108C82.9565 24.108 82.3925 23.968 81.8885 23.688C81.3845 23.4 80.9885 23 80.7005 22.488C80.4125 21.968 80.2685 21.368 80.2685 20.688C80.2685 20.016 80.4165 19.42 80.7125 18.9C81.0085 18.38 81.4125 17.98 81.9245 17.7C82.4365 17.42 83.0085 17.28 83.6405 17.28C84.2725 17.28 84.8445 17.42 85.3565 17.7C85.8685 17.98 86.2725 18.38 86.5685 18.9C86.8645 19.42 87.0125 20.016 87.0125 20.688C87.0125 21.36 86.8605 21.956 86.5565 22.476C86.2525 22.996 85.8365 23.4 85.3085 23.688C84.7885 23.968 84.2125 24.108 83.5805 24.108ZM83.5805 22.92C83.9325 22.92 84.2605 22.836 84.5645 22.668C84.8765 22.5 85.1285 22.248 85.3205 21.912C85.5125 21.576 85.6085 21.168 85.6085 20.688C85.6085 20.208 85.5165 19.804 85.3325 19.476C85.1485 19.14 84.9045 18.888 84.6005 18.72C84.2965 18.552 83.9685 18.468 83.6165 18.468C83.2645 18.468 82.9365 18.552 82.6325 18.72C82.3365 18.888 82.1005 19.14 81.9245 19.476C81.7485 19.804 81.6605 20.208 81.6605 20.688C81.6605 21.4 81.8405 21.952 82.2005 22.344C82.5685 22.728 83.0285 22.92 83.5805 22.92ZM94.3528 17.388V24H92.9848V23.22C92.7688 23.492 92.4848 23.708 92.1328 23.868C91.7888 24.02 91.4208 24.096 91.0288 24.096C90.5088 24.096 90.0408 23.988 89.6248 23.772C89.2168 23.556 88.8928 23.236 88.6528 22.812C88.4208 22.388 88.3048 21.876 88.3048 21.276V17.388H89.6608V21.072C89.6608 21.664 89.8088 22.12 90.1048 22.44C90.4008 22.752 90.8048 22.908 91.3168 22.908C91.8288 22.908 92.2328 22.752 92.5288 22.44C92.8328 22.12 92.9848 21.664 92.9848 21.072V17.388H94.3528Z" fill="white"/>
<path d="M236.74 17.05L234.13 24H232.81L230.19 17.05H231.41L233.47 22.83L235.54 17.05H236.74ZM242.743 21.11C242.743 21.3167 242.73 21.5033 242.703 21.67H238.493C238.527 22.11 238.69 22.4633 238.983 22.73C239.277 22.9967 239.637 23.13 240.063 23.13C240.677 23.13 241.11 22.8733 241.363 22.36H242.593C242.427 22.8667 242.123 23.2833 241.683 23.61C241.25 23.93 240.71 24.09 240.063 24.09C239.537 24.09 239.063 23.9733 238.643 23.74C238.23 23.5 237.903 23.1667 237.663 22.74C237.43 22.3067 237.313 21.8067 237.313 21.24C237.313 20.6733 237.427 20.1767 237.653 19.75C237.887 19.3167 238.21 18.9833 238.623 18.75C239.043 18.5167 239.523 18.4 240.063 18.4C240.583 18.4 241.047 18.5133 241.453 18.74C241.86 18.9667 242.177 19.2867 242.403 19.7C242.63 20.1067 242.743 20.5767 242.743 21.11ZM241.553 20.75C241.547 20.33 241.397 19.9933 241.103 19.74C240.81 19.4867 240.447 19.36 240.013 19.36C239.62 19.36 239.283 19.4867 239.003 19.74C238.723 19.9867 238.557 20.3233 238.503 20.75H241.553ZM246.645 18.4C247.079 18.4 247.465 18.49 247.805 18.67C248.152 18.85 248.422 19.1167 248.615 19.47C248.809 19.8233 248.905 20.25 248.905 20.75V24H247.775V20.92C247.775 20.4267 247.652 20.05 247.405 19.79C247.159 19.5233 246.822 19.39 246.395 19.39C245.969 19.39 245.629 19.5233 245.375 19.79C245.129 20.05 245.005 20.4267 245.005 20.92V24H243.865V18.49H245.005V19.12C245.192 18.8933 245.429 18.7167 245.715 18.59C246.009 18.4633 246.319 18.4 246.645 18.4ZM249.979 21.22C249.979 20.6667 250.093 20.1767 250.319 19.75C250.553 19.3233 250.866 18.9933 251.259 18.76C251.659 18.52 252.103 18.4 252.589 18.4C252.949 18.4 253.303 18.48 253.649 18.64C254.003 18.7933 254.283 19 254.489 19.26V16.6H255.639V24H254.489V23.17C254.303 23.4367 254.043 23.6567 253.709 23.83C253.383 24.0033 253.006 24.09 252.579 24.09C252.099 24.09 251.659 23.97 251.259 23.73C250.866 23.4833 250.553 23.1433 250.319 22.71C250.093 22.27 249.979 21.7733 249.979 21.22ZM254.489 21.24C254.489 20.86 254.409 20.53 254.249 20.25C254.096 19.97 253.893 19.7567 253.639 19.61C253.386 19.4633 253.113 19.39 252.819 19.39C252.526 19.39 252.253 19.4633 251.999 19.61C251.746 19.75 251.539 19.96 251.379 20.24C251.226 20.5133 251.149 20.84 251.149 21.22C251.149 21.6 251.226 21.9333 251.379 22.22C251.539 22.5067 251.746 22.7267 251.999 22.88C252.259 23.0267 252.533 23.1 252.819 23.1C253.113 23.1 253.386 23.0267 253.639 22.88C253.893 22.7333 254.096 22.52 254.249 22.24C254.409 21.9533 254.489 21.62 254.489 21.24ZM258.277 19.29C258.443 19.01 258.663 18.7933 258.937 18.64C259.217 18.48 259.547 18.4 259.927 18.4V19.58H259.637C259.19 19.58 258.85 19.6933 258.617 19.92C258.39 20.1467 258.277 20.54 258.277 21.1V24H257.137V18.49H258.277V19.29ZM266.025 21.11C266.025 21.3167 266.011 21.5033 265.985 21.67H261.775C261.808 22.11 261.971 22.4633 262.265 22.73C262.558 22.9967 262.918 23.13 263.345 23.13C263.958 23.13 264.391 22.8733 264.645 22.36H265.875C265.708 22.8667 265.405 23.2833 264.965 23.61C264.531 23.93 263.991 24.09 263.345 24.09C262.818 24.09 262.345 23.9733 261.925 23.74C261.511 23.5 261.185 23.1667 260.945 22.74C260.711 22.3067 260.595 21.8067 260.595 21.24C260.595 20.6733 260.708 20.1767 260.935 19.75C261.168 19.3167 261.491 18.9833 261.905 18.75C262.325 18.5167 262.805 18.4 263.345 18.4C263.865 18.4 264.328 18.5133 264.735 18.74C265.141 18.9667 265.458 19.2867 265.685 19.7C265.911 20.1067 266.025 20.5767 266.025 21.11ZM264.835 20.75C264.828 20.33 264.678 19.9933 264.385 19.74C264.091 19.4867 263.728 19.36 263.295 19.36C262.901 19.36 262.565 19.4867 262.285 19.74C262.005 19.9867 261.838 20.3233 261.785 20.75H264.835ZM266.766 21.22C266.766 20.6667 266.88 20.1767 267.106 19.75C267.34 19.3233 267.653 18.9933 268.046 18.76C268.446 18.52 268.89 18.4 269.376 18.4C269.736 18.4 270.09 18.48 270.436 18.64C270.79 18.7933 271.07 19 271.276 19.26V16.6H272.426V24H271.276V23.17C271.09 23.4367 270.83 23.6567 270.496 23.83C270.17 24.0033 269.793 24.09 269.366 24.09C268.886 24.09 268.446 23.97 268.046 23.73C267.653 23.4833 267.34 23.1433 267.106 22.71C266.88 22.27 266.766 21.7733 266.766 21.22ZM271.276 21.24C271.276 20.86 271.196 20.53 271.036 20.25C270.883 19.97 270.68 19.7567 270.426 19.61C270.173 19.4633 269.9 19.39 269.606 19.39C269.313 19.39 269.04 19.4633 268.786 19.61C268.533 19.75 268.326 19.96 268.166 20.24C268.013 20.5133 267.936 20.84 267.936 21.22C267.936 21.6 268.013 21.9333 268.166 22.22C268.326 22.5067 268.533 22.7267 268.786 22.88C269.046 23.0267 269.32 23.1 269.606 23.1C269.9 23.1 270.173 23.0267 270.426 22.88C270.68 22.7333 270.883 22.52 271.036 22.24C271.196 21.9533 271.276 21.62 271.276 21.24ZM274.504 17.76C274.297 17.76 274.124 17.69 273.984 17.55C273.844 17.41 273.774 17.2367 273.774 17.03C273.774 16.8233 273.844 16.65 273.984 16.51C274.124 16.37 274.297 16.3 274.504 16.3C274.704 16.3 274.874 16.37 275.014 16.51C275.154 16.65 275.224 16.8233 275.224 17.03C275.224 17.2367 275.154 17.41 275.014 17.55C274.874 17.69 274.704 17.76 274.504 17.76ZM275.064 18.49V24H273.924V18.49H275.064Z" fill="#808080"/>
<path d="M410.849 22.45C411.489 21.8967 411.992 21.4433 412.359 21.09C412.732 20.73 413.042 20.3567 413.289 19.97C413.536 19.5833 413.659 19.1967 413.659 18.81C413.659 18.41 413.562 18.0967 413.369 17.87C413.182 17.6433 412.886 17.53 412.479 17.53C412.086 17.53 411.779 17.6567 411.559 17.91C411.346 18.1567 411.232 18.49 411.219 18.91H410.119C410.139 18.15 410.366 17.57 410.799 17.17C411.239 16.7633 411.796 16.56 412.469 16.56C413.196 16.56 413.762 16.76 414.169 17.16C414.582 17.56 414.789 18.0933 414.789 18.76C414.789 19.24 414.666 19.7033 414.419 20.15C414.179 20.59 413.889 20.9867 413.549 21.34C413.216 21.6867 412.789 22.09 412.269 22.55L411.819 22.95H414.989V23.9H410.129V23.07L410.849 22.45ZM416.601 24.07C416.394 24.07 416.221 24 416.081 23.86C415.941 23.72 415.871 23.5467 415.871 23.34C415.871 23.1333 415.941 22.96 416.081 22.82C416.221 22.68 416.394 22.61 416.601 22.61C416.801 22.61 416.971 22.68 417.111 22.82C417.251 22.96 417.321 23.1333 417.321 23.34C417.321 23.5467 417.251 23.72 417.111 23.86C416.971 24 416.801 24.07 416.601 24.07ZM416.601 19.87C416.394 19.87 416.221 19.8 416.081 19.66C415.941 19.52 415.871 19.3467 415.871 19.14C415.871 18.9333 415.941 18.76 416.081 18.62C416.221 18.48 416.394 18.41 416.601 18.41C416.801 18.41 416.971 18.48 417.111 18.62C417.251 18.76 417.321 18.9333 417.321 19.14C417.321 19.3467 417.251 19.52 417.111 19.66C416.971 19.8 416.801 19.87 416.601 19.87ZM423.142 17.69H419.792V19.68C419.932 19.4933 420.138 19.3367 420.412 19.21C420.692 19.0833 420.988 19.02 421.302 19.02C421.862 19.02 422.315 19.14 422.662 19.38C423.015 19.62 423.265 19.9233 423.412 20.29C423.565 20.6567 423.642 21.0433 423.642 21.45C423.642 21.9433 423.545 22.3833 423.352 22.77C423.165 23.15 422.882 23.45 422.502 23.67C422.128 23.89 421.668 24 421.122 24C420.395 24 419.812 23.82 419.372 23.46C418.932 23.1 418.668 22.6233 418.582 22.03H419.692C419.765 22.3433 419.928 22.5933 420.182 22.78C420.435 22.96 420.752 23.05 421.132 23.05C421.605 23.05 421.958 22.9067 422.192 22.62C422.432 22.3333 422.552 21.9533 422.552 21.48C422.552 21 422.432 20.6333 422.192 20.38C421.952 20.12 421.598 19.99 421.132 19.99C420.805 19.99 420.528 20.0733 420.302 20.24C420.082 20.4 419.922 20.62 419.822 20.9H418.742V16.69H423.142V17.69ZM425.459 22.45C426.099 21.8967 426.602 21.4433 426.969 21.09C427.342 20.73 427.652 20.3567 427.899 19.97C428.145 19.5833 428.269 19.1967 428.269 18.81C428.269 18.41 428.172 18.0967 427.979 17.87C427.792 17.6433 427.495 17.53 427.089 17.53C426.695 17.53 426.389 17.6567 426.169 17.91C425.955 18.1567 425.842 18.49 425.829 18.91H424.729C424.749 18.15 424.975 17.57 425.409 17.17C425.849 16.7633 426.405 16.56 427.079 16.56C427.805 16.56 428.372 16.76 428.779 17.16C429.192 17.56 429.399 18.0933 429.399 18.76C429.399 19.24 429.275 19.7033 429.029 20.15C428.789 20.59 428.499 20.9867 428.159 21.34C427.825 21.6867 427.399 22.09 426.879 22.55L426.429 22.95H429.599V23.9H424.739V23.07L425.459 22.45Z" fill="#808080"/>
</svg>
