<svg width="240" height="50" viewBox="0 0 240 50" fill="none" xmlns="http://www.w3.org/2000/svg">
<path d="M5.232 22L3.312 18.664H2.268V22H0.9V13.66H3.78C4.42 13.66 4.96 13.772 5.4 13.996C5.848 14.22 6.18 14.52 6.396 14.896C6.62 15.272 6.732 15.692 6.732 16.156C6.732 16.7 6.572 17.196 6.252 17.644C5.94 18.084 5.456 18.384 4.8 18.544L6.864 22H5.232ZM2.268 17.572H3.78C4.292 17.572 4.676 17.444 4.932 17.188C5.196 16.932 5.328 16.588 5.328 16.156C5.328 15.724 5.2 15.388 4.944 15.148C4.688 14.9 4.3 14.776 3.78 14.776H2.268V17.572ZM8.02603 18.664C8.02603 18 8.16203 17.412 8.43403 16.9C8.71403 16.388 9.09003 15.992 9.56203 15.712C10.042 15.424 10.57 15.28 11.146 15.28C11.666 15.28 12.118 15.384 12.502 15.592C12.894 15.792 13.206 16.044 13.438 16.348V15.388H14.818V22H13.438V21.016C13.206 21.328 12.89 21.588 12.49 21.796C12.09 22.004 11.634 22.108 11.122 22.108C10.554 22.108 10.034 21.964 9.56203 21.676C9.09003 21.38 8.71403 20.972 8.43403 20.452C8.16203 19.924 8.02603 19.328 8.02603 18.664ZM13.438 18.688C13.438 18.232 13.342 17.836 13.15 17.5C12.966 17.164 12.722 16.908 12.418 16.732C12.114 16.556 11.786 16.468 11.434 16.468C11.082 16.468 10.754 16.556 10.45 16.732C10.146 16.9 9.89803 17.152 9.70603 17.488C9.52203 17.816 9.43003 18.208 9.43003 18.664C9.43003 19.12 9.52203 19.52 9.70603 19.864C9.89803 20.208 10.146 20.472 10.45 20.656C10.762 20.832 11.09 20.92 11.434 20.92C11.786 20.92 12.114 20.832 12.418 20.656C12.722 20.48 12.966 20.224 13.15 19.888C13.342 19.544 13.438 19.144 13.438 18.688ZM19.2788 15.28C19.7908 15.28 20.2428 15.384 20.6348 15.592C21.0348 15.792 21.3468 16.044 21.5708 16.348V15.388H22.9508V22.108C22.9508 22.716 22.8228 23.256 22.5668 23.728C22.3108 24.208 21.9388 24.584 21.4508 24.856C20.9708 25.128 20.3948 25.264 19.7228 25.264C18.8268 25.264 18.0828 25.052 17.4908 24.628C16.8988 24.212 16.5628 23.644 16.4828 22.924H17.8388C17.9428 23.268 18.1628 23.544 18.4988 23.752C18.8428 23.968 19.2508 24.076 19.7228 24.076C20.2748 24.076 20.7188 23.908 21.0548 23.572C21.3988 23.236 21.5708 22.748 21.5708 22.108V21.004C21.3388 21.316 21.0228 21.58 20.6228 21.796C20.2308 22.004 19.7828 22.108 19.2788 22.108C18.7028 22.108 18.1748 21.964 17.6948 21.676C17.2228 21.38 16.8468 20.972 16.5668 20.452C16.2948 19.924 16.1588 19.328 16.1588 18.664C16.1588 18 16.2948 17.412 16.5668 16.9C16.8468 16.388 17.2228 15.992 17.6948 15.712C18.1748 15.424 18.7028 15.28 19.2788 15.28ZM21.5708 18.688C21.5708 18.232 21.4748 17.836 21.2828 17.5C21.0988 17.164 20.8548 16.908 20.5508 16.732C20.2468 16.556 19.9188 16.468 19.5668 16.468C19.2148 16.468 18.8868 16.556 18.5828 16.732C18.2788 16.9 18.0308 17.152 17.8388 17.488C17.6548 17.816 17.5628 18.208 17.5628 18.664C17.5628 19.12 17.6548 19.52 17.8388 19.864C18.0308 20.208 18.2788 20.472 18.5828 20.656C18.8948 20.832 19.2228 20.92 19.5668 20.92C19.9188 20.92 20.2468 20.832 20.5508 20.656C20.8548 20.48 21.0988 20.224 21.2828 19.888C21.4748 19.544 21.5708 19.144 21.5708 18.688ZM25.4437 14.512C25.1957 14.512 24.9877 14.428 24.8197 14.26C24.6517 14.092 24.5677 13.884 24.5677 13.636C24.5677 13.388 24.6517 13.18 24.8197 13.012C24.9877 12.844 25.1957 12.76 25.4437 12.76C25.6837 12.76 25.8877 12.844 26.0557 13.012C26.2237 13.18 26.3077 13.388 26.3077 13.636C26.3077 13.884 26.2237 14.092 26.0557 14.26C25.8877 14.428 25.6837 14.512 25.4437 14.512ZM26.1157 15.388V22H24.7477V15.388H26.1157ZM31.2477 15.28C31.7677 15.28 32.2317 15.388 32.6397 15.604C33.0557 15.82 33.3797 16.14 33.6117 16.564C33.8437 16.988 33.9597 17.5 33.9597 18.1V22H32.6037V18.304C32.6037 17.712 32.4557 17.26 32.1597 16.948C31.8637 16.628 31.4597 16.468 30.9477 16.468C30.4357 16.468 30.0277 16.628 29.7237 16.948C29.4277 17.26 29.2797 17.712 29.2797 18.304V22H27.9117V15.388H29.2797V16.144C29.5037 15.872 29.7877 15.66 30.1317 15.508C30.4837 15.356 30.8557 15.28 31.2477 15.28ZM38.3687 15.28C38.8807 15.28 39.3327 15.384 39.7247 15.592C40.1247 15.792 40.4367 16.044 40.6607 16.348V15.388H42.0407V22.108C42.0407 22.716 41.9127 23.256 41.6567 23.728C41.4007 24.208 41.0287 24.584 40.5407 24.856C40.0607 25.128 39.4847 25.264 38.8127 25.264C37.9167 25.264 37.1727 25.052 36.5807 24.628C35.9887 24.212 35.6527 23.644 35.5727 22.924H36.9287C37.0327 23.268 37.2527 23.544 37.5887 23.752C37.9327 23.968 38.3407 24.076 38.8127 24.076C39.3647 24.076 39.8087 23.908 40.1447 23.572C40.4887 23.236 40.6607 22.748 40.6607 22.108V21.004C40.4287 21.316 40.1127 21.58 39.7127 21.796C39.3207 22.004 38.8727 22.108 38.3687 22.108C37.7927 22.108 37.2647 21.964 36.7847 21.676C36.3127 21.38 35.9367 20.972 35.6567 20.452C35.3847 19.924 35.2487 19.328 35.2487 18.664C35.2487 18 35.3847 17.412 35.6567 16.9C35.9367 16.388 36.3127 15.992 36.7847 15.712C37.2647 15.424 37.7927 15.28 38.3687 15.28ZM40.6607 18.688C40.6607 18.232 40.5647 17.836 40.3727 17.5C40.1887 17.164 39.9447 16.908 39.6407 16.732C39.3367 16.556 39.0087 16.468 38.6567 16.468C38.3047 16.468 37.9767 16.556 37.6727 16.732C37.3687 16.9 37.1207 17.152 36.9287 17.488C36.7447 17.816 36.6527 18.208 36.6527 18.664C36.6527 19.12 36.7447 19.52 36.9287 19.864C37.1207 20.208 37.3687 20.472 37.6727 20.656C37.9847 20.832 38.3127 20.92 38.6567 20.92C39.0087 20.92 39.3367 20.832 39.6407 20.656C39.9447 20.48 40.1887 20.224 40.3727 19.888C40.5647 19.544 40.6607 19.144 40.6607 18.688Z" fill="black"/>
<path d="M4.94 36.58H2.03L1.53 38H0.34L2.83 31.04H4.15L6.64 38H5.44L4.94 36.58ZM4.62 35.65L3.49 32.42L2.35 35.65H4.62ZM8.86266 33.29C9.02932 33.01 9.24932 32.7933 9.52266 32.64C9.80266 32.48 10.1327 32.4 10.5127 32.4V33.58H10.2227C9.77599 33.58 9.43599 33.6933 9.20266 33.92C8.97599 34.1467 8.86266 34.54 8.86266 35.1V38H7.72266V32.49H8.86266V33.29ZM11.1805 35.24C11.1805 34.6733 11.2939 34.1767 11.5205 33.75C11.7539 33.3167 12.0739 32.9833 12.4805 32.75C12.8872 32.5167 13.3539 32.4 13.8805 32.4C14.5472 32.4 15.0972 32.56 15.5305 32.88C15.9705 33.1933 16.2672 33.6433 16.4205 34.23H15.1905C15.0905 33.9567 14.9305 33.7433 14.7105 33.59C14.4905 33.4367 14.2139 33.36 13.8805 33.36C13.4139 33.36 13.0405 33.5267 12.7605 33.86C12.4872 34.1867 12.3505 34.6467 12.3505 35.24C12.3505 35.8333 12.4872 36.2967 12.7605 36.63C13.0405 36.9633 13.4139 37.13 13.8805 37.13C14.5405 37.13 14.9772 36.84 15.1905 36.26H16.4205C16.2605 36.82 15.9605 37.2667 15.5205 37.6C15.0805 37.9267 14.5339 38.09 13.8805 38.09C13.3539 38.09 12.8872 37.9733 12.4805 37.74C12.0739 37.5 11.7539 37.1667 11.5205 36.74C11.2939 36.3067 11.1805 35.8067 11.1805 35.24ZM25.8643 38H24.7243L21.2943 32.81V38H20.1543V31.04H21.2943L24.7243 36.22V31.04H25.8643V38ZM29.7513 38.09C29.2313 38.09 28.7613 37.9733 28.3413 37.74C27.9213 37.5 27.5913 37.1667 27.3513 36.74C27.1113 36.3067 26.9913 35.8067 26.9913 35.24C26.9913 34.68 27.1147 34.1833 27.3613 33.75C27.608 33.3167 27.9447 32.9833 28.3713 32.75C28.798 32.5167 29.2747 32.4 29.8013 32.4C30.328 32.4 30.8047 32.5167 31.2313 32.75C31.658 32.9833 31.9947 33.3167 32.2413 33.75C32.488 34.1833 32.6113 34.68 32.6113 35.24C32.6113 35.8 32.4847 36.2967 32.2313 36.73C31.978 37.1633 31.6313 37.5 31.1913 37.74C30.758 37.9733 30.278 38.09 29.7513 38.09ZM29.7513 37.1C30.0447 37.1 30.318 37.03 30.5713 36.89C30.8313 36.75 31.0413 36.54 31.2013 36.26C31.3613 35.98 31.4413 35.64 31.4413 35.24C31.4413 34.84 31.3647 34.5033 31.2113 34.23C31.058 33.95 30.8547 33.74 30.6013 33.6C30.348 33.46 30.0747 33.39 29.7813 33.39C29.488 33.39 29.2147 33.46 28.9613 33.6C28.7147 33.74 28.518 33.95 28.3713 34.23C28.2247 34.5033 28.1513 34.84 28.1513 35.24C28.1513 35.8333 28.3013 36.2933 28.6013 36.62C28.908 36.94 29.2913 37.1 29.7513 37.1ZM34.8783 33.29C35.0449 33.01 35.2649 32.7933 35.5383 32.64C35.8183 32.48 36.1483 32.4 36.5283 32.4V33.58H36.2383C35.7916 33.58 35.4516 33.6933 35.2183 33.92C34.9916 34.1467 34.8783 34.54 34.8783 35.1V38H33.7383V32.49H34.8783V33.29ZM38.9062 33.42V36.47C38.9062 36.6767 38.9528 36.8267 39.0462 36.92C39.1462 37.0067 39.3128 37.05 39.5462 37.05H40.2462V38H39.3462C38.8328 38 38.4395 37.88 38.1662 37.64C37.8928 37.4 37.7562 37.01 37.7562 36.47V33.42H37.1062V32.49H37.7562V31.12H38.9062V32.49H40.2462V33.42H38.9062ZM44.1469 32.4C44.5669 32.4 44.9402 32.49 45.2669 32.67C45.6002 32.85 45.8602 33.1167 46.0469 33.47C46.2402 33.8233 46.3369 34.25 46.3369 34.75V38H45.2069V34.92C45.2069 34.4267 45.0835 34.05 44.8369 33.79C44.5902 33.5233 44.2535 33.39 43.8269 33.39C43.4002 33.39 43.0602 33.5233 42.8069 33.79C42.5602 34.05 42.4369 34.4267 42.4369 34.92V38H41.2969V30.6H42.4369V33.13C42.6302 32.8967 42.8735 32.7167 43.1669 32.59C43.4669 32.4633 43.7935 32.4 44.1469 32.4Z" fill="#808080"/>
</svg>
