<svg version="1.1" xmlns="http://www.w3.org/2000/svg" xmlns:xlink="http://www.w3.org/1999/xlink" width="480" height="360" viewBox="0,0,480,360"><g transform="translate(-1.86335,-1.39752)"><g data-paper-data="{&quot;isPaintingLayer&quot;:true}" fill-rule="nonzero" stroke="none" stroke-width="1" stroke-linecap="butt" stroke-linejoin="miter" stroke-miterlimit="10" stroke-dasharray="" stroke-dashoffset="0" style="mix-blend-mode: normal"><path d="M106.44435,1.39752h345.419c16.569,0 30,13.4315 30,30v300c0,16.569 -13.431,30 -30,30h-345.419h-74.581c-16.5685,0 -30,-13.431 -30,-30v-300c0,-16.5685 13.4315,-30 30,-30z" fill="#e6e6e6"/><path d="M179.67,295.728h-4.656l-0.8,2.272h-1.904l3.984,-11.136h2.112l3.984,11.136h-1.92zM179.158,294.24l-1.808,-5.168l-1.824,5.168zM188.57,289.04c0.693,0 1.312,0.144 1.856,0.432c0.555,0.288 0.987,0.715 1.296,1.28c0.309,0.565 0.464,1.248 0.464,2.048v5.2h-1.808v-4.928c0,-0.789 -0.197,-1.392 -0.592,-1.808c-0.395,-0.427 -0.933,-0.64 -1.616,-0.64c-0.683,0 -1.227,0.213 -1.632,0.64c-0.395,0.416 -0.592,1.019 -0.592,1.808v4.928h-1.824v-8.816h1.824v1.008c0.299,-0.363 0.677,-0.645 1.136,-0.848c0.469,-0.203 0.965,-0.304 1.488,-0.304zM195.441,288.016c-0.331,0 -0.608,-0.112 -0.832,-0.336c-0.224,-0.224 -0.336,-0.501 -0.336,-0.832c0,-0.331 0.112,-0.608 0.336,-0.832c0.224,-0.224 0.501,-0.336 0.832,-0.336c0.32,0 0.592,0.112 0.816,0.336c0.224,0.224 0.336,0.501 0.336,0.832c0,0.331 -0.112,0.608 -0.336,0.832c-0.224,0.224 -0.496,0.336 -0.816,0.336zM196.337,289.184v8.816h-1.824v-8.816zM209.403,289.04c0.694,0 1.312,0.144 1.856,0.432c0.555,0.288 0.987,0.715 1.296,1.28c0.32,0.565 0.48,1.248 0.48,2.048v5.2h-1.808v-4.928c0,-0.789 -0.197,-1.392 -0.592,-1.808c-0.394,-0.427 -0.933,-0.64 -1.616,-0.64c-0.682,0 -1.226,0.213 -1.632,0.64c-0.394,0.416 -0.592,1.019 -0.592,1.808v4.928h-1.808v-4.928c0,-0.789 -0.197,-1.392 -0.592,-1.808c-0.394,-0.427 -0.933,-0.64 -1.616,-0.64c-0.682,0 -1.226,0.213 -1.632,0.64c-0.394,0.416 -0.592,1.019 -0.592,1.808v4.928h-1.824v-8.816h1.824v1.008c0.299,-0.363 0.678,-0.645 1.136,-0.848c0.459,-0.203 0.95,-0.304 1.472,-0.304c0.704,0 1.334,0.149 1.888,0.448c0.555,0.299 0.982,0.731 1.28,1.296c0.267,-0.533 0.683,-0.955 1.248,-1.264c0.566,-0.32 1.174,-0.48 1.824,-0.48zM214.748,293.552c0,-0.885 0.182,-1.669 0.544,-2.352c0.374,-0.683 0.875,-1.211 1.504,-1.584c0.64,-0.384 1.344,-0.576 2.112,-0.576c0.694,0 1.296,0.139 1.808,0.416c0.523,0.267 0.939,0.603 1.248,1.008v-1.28h1.84v8.816h-1.84v-1.312c-0.309,0.416 -0.73,0.763 -1.264,1.04c-0.533,0.277 -1.141,0.416 -1.824,0.416c-0.757,0 -1.45,-0.192 -2.08,-0.576c-0.629,-0.395 -1.13,-0.939 -1.504,-1.632c-0.362,-0.704 -0.544,-1.499 -0.544,-2.384zM221.964,293.584c0,-0.608 -0.128,-1.136 -0.384,-1.584c-0.245,-0.448 -0.57,-0.789 -0.976,-1.024c-0.405,-0.235 -0.842,-0.352 -1.312,-0.352c-0.469,0 -0.906,0.117 -1.312,0.352c-0.405,0.224 -0.736,0.56 -0.992,1.008c-0.245,0.437 -0.368,0.96 -0.368,1.568c0,0.608 0.123,1.141 0.368,1.6c0.256,0.459 0.587,0.811 0.992,1.056c0.416,0.235 0.854,0.352 1.312,0.352c0.47,0 0.907,-0.117 1.312,-0.352c0.406,-0.235 0.731,-0.576 0.976,-1.024c0.256,-0.459 0.384,-0.992 0.384,-1.6zM228.328,290.672v4.88c0,0.331 0.075,0.571 0.224,0.72c0.16,0.139 0.427,0.208 0.8,0.208h1.12v1.52h-1.44c-0.821,0 -1.451,-0.192 -1.888,-0.576c-0.437,-0.384 -0.656,-1.008 -0.656,-1.872v-4.88h-1.04v-1.488h1.04v-2.192h1.84v2.192h2.144v1.488zM240.233,293.376c0,0.331 -0.021,0.629 -0.064,0.896h-6.736c0.053,0.704 0.315,1.269 0.784,1.696c0.469,0.427 1.045,0.64 1.728,0.64c0.981,0 1.675,-0.411 2.08,-1.232h1.968c-0.267,0.811 -0.752,1.477 -1.456,2c-0.693,0.512 -1.557,0.768 -2.592,0.768c-0.843,0 -1.6,-0.187 -2.272,-0.56c-0.661,-0.384 -1.184,-0.917 -1.568,-1.6c-0.373,-0.693 -0.56,-1.493 -0.56,-2.4c0,-0.907 0.181,-1.701 0.544,-2.384c0.373,-0.693 0.891,-1.227 1.552,-1.6c0.672,-0.373 1.44,-0.56 2.304,-0.56c0.832,0 1.573,0.181 2.224,0.544c0.651,0.363 1.157,0.875 1.52,1.536c0.363,0.651 0.544,1.403 0.544,2.256zM238.329,292.8c-0.011,-0.672 -0.251,-1.211 -0.72,-1.616c-0.469,-0.405 -1.051,-0.608 -1.744,-0.608c-0.629,0 -1.168,0.203 -1.616,0.608c-0.448,0.395 -0.715,0.933 -0.8,1.616zM241.42,293.552c0,-0.885 0.181,-1.669 0.544,-2.352c0.373,-0.683 0.875,-1.211 1.504,-1.584c0.64,-0.384 1.349,-0.576 2.128,-0.576c0.576,0 1.141,0.128 1.696,0.384c0.565,0.245 1.013,0.576 1.344,0.992v-4.256h1.84v11.84h-1.84v-1.328c-0.299,0.427 -0.715,0.779 -1.248,1.056c-0.523,0.277 -1.125,0.416 -1.808,0.416c-0.768,0 -1.472,-0.192 -2.112,-0.576c-0.629,-0.395 -1.131,-0.939 -1.504,-1.632c-0.363,-0.704 -0.544,-1.499 -0.544,-2.384zM248.636,293.584c0,-0.608 -0.128,-1.136 -0.384,-1.584c-0.245,-0.448 -0.571,-0.789 -0.976,-1.024c-0.405,-0.235 -0.843,-0.352 -1.312,-0.352c-0.469,0 -0.907,0.117 -1.312,0.352c-0.405,0.224 -0.736,0.56 -0.992,1.008c-0.245,0.437 -0.368,0.96 -0.368,1.568c0,0.608 0.123,1.141 0.368,1.6c0.256,0.459 0.587,0.811 0.992,1.056c0.416,0.235 0.853,0.352 1.312,0.352c0.469,0 0.907,-0.117 1.312,-0.352c0.405,-0.235 0.731,-0.576 0.976,-1.024c0.256,-0.459 0.384,-0.992 0.384,-1.6zM258.852,286.88v11.12h-1.824v-11.12zM271.919,289.04c0.693,0 1.312,0.144 1.856,0.432c0.555,0.288 0.987,0.715 1.296,1.28c0.32,0.565 0.48,1.248 0.48,2.048v5.2h-1.808v-4.928c0,-0.789 -0.197,-1.392 -0.592,-1.808c-0.395,-0.427 -0.933,-0.64 -1.616,-0.64c-0.683,0 -1.227,0.213 -1.632,0.64c-0.395,0.416 -0.592,1.019 -0.592,1.808v4.928h-1.808v-4.928c0,-0.789 -0.197,-1.392 -0.592,-1.808c-0.395,-0.427 -0.933,-0.64 -1.616,-0.64c-0.683,0 -1.227,0.213 -1.632,0.64c-0.395,0.416 -0.592,1.019 -0.592,1.808v4.928h-1.824v-8.816h1.824v1.008c0.299,-0.363 0.677,-0.645 1.136,-0.848c0.459,-0.203 0.949,-0.304 1.472,-0.304c0.704,0 1.333,0.149 1.888,0.448c0.555,0.299 0.981,0.731 1.28,1.296c0.267,-0.533 0.683,-0.955 1.248,-1.264c0.565,-0.32 1.173,-0.48 1.824,-0.48zM277.264,293.552c0,-0.885 0.181,-1.669 0.544,-2.352c0.373,-0.683 0.875,-1.211 1.504,-1.584c0.64,-0.384 1.344,-0.576 2.112,-0.576c0.693,0 1.296,0.139 1.808,0.416c0.523,0.267 0.939,0.603 1.248,1.008v-1.28h1.84v8.816h-1.84v-1.312c-0.309,0.416 -0.731,0.763 -1.264,1.04c-0.533,0.277 -1.141,0.416 -1.824,0.416c-0.757,0 -1.451,-0.192 -2.08,-0.576c-0.629,-0.395 -1.131,-0.939 -1.504,-1.632c-0.363,-0.704 -0.544,-1.499 -0.544,-2.384zM284.48,293.584c0,-0.608 -0.128,-1.136 -0.384,-1.584c-0.245,-0.448 -0.571,-0.789 -0.976,-1.024c-0.405,-0.235 -0.843,-0.352 -1.312,-0.352c-0.469,0 -0.907,0.117 -1.312,0.352c-0.405,0.224 -0.736,0.56 -0.992,1.008c-0.245,0.437 -0.368,0.96 -0.368,1.568c0,0.608 0.123,1.141 0.368,1.6c0.256,0.459 0.587,0.811 0.992,1.056c0.416,0.235 0.853,0.352 1.312,0.352c0.469,0 0.907,-0.117 1.312,-0.352c0.405,-0.235 0.731,-0.576 0.976,-1.024c0.256,-0.459 0.384,-0.992 0.384,-1.6zM292.268,289.04c0.682,0 1.285,0.139 1.808,0.416c0.533,0.267 0.949,0.603 1.248,1.008v-1.28h1.84v8.96c0,0.811 -0.171,1.531 -0.512,2.16c-0.342,0.64 -0.838,1.141 -1.488,1.504c-0.64,0.363 -1.408,0.544 -2.304,0.544c-1.195,0 -2.187,-0.283 -2.976,-0.848c-0.79,-0.555 -1.238,-1.312 -1.344,-2.272h1.808c0.138,0.459 0.432,0.827 0.88,1.104c0.458,0.288 1.002,0.432 1.632,0.432c0.736,0 1.328,-0.224 1.776,-0.672c0.458,-0.448 0.688,-1.099 0.688,-1.952v-1.472c-0.31,0.416 -0.731,0.768 -1.264,1.056c-0.523,0.277 -1.12,0.416 -1.792,0.416c-0.768,0 -1.472,-0.192 -2.112,-0.576c-0.63,-0.395 -1.131,-0.939 -1.504,-1.632c-0.363,-0.704 -0.544,-1.499 -0.544,-2.384c0,-0.885 0.181,-1.669 0.544,-2.352c0.373,-0.683 0.874,-1.211 1.504,-1.584c0.64,-0.384 1.344,-0.576 2.112,-0.576zM295.324,293.584c0,-0.608 -0.128,-1.136 -0.384,-1.584c-0.246,-0.448 -0.571,-0.789 -0.976,-1.024c-0.406,-0.235 -0.843,-0.352 -1.312,-0.352c-0.47,0 -0.907,0.117 -1.312,0.352c-0.406,0.224 -0.736,0.56 -0.992,1.008c-0.246,0.437 -0.368,0.96 -0.368,1.568c0,0.608 0.122,1.141 0.368,1.6c0.256,0.459 0.586,0.811 0.992,1.056c0.416,0.235 0.853,0.352 1.312,0.352c0.469,0 0.906,-0.117 1.312,-0.352c0.405,-0.235 0.73,-0.576 0.976,-1.024c0.256,-0.459 0.384,-0.992 0.384,-1.6zM307.639,293.376c0,0.331 -0.021,0.629 -0.064,0.896h-6.736c0.054,0.704 0.315,1.269 0.784,1.696c0.47,0.427 1.046,0.64 1.728,0.64c0.982,0 1.675,-0.411 2.08,-1.232h1.968c-0.266,0.811 -0.752,1.477 -1.456,2c-0.693,0.512 -1.557,0.768 -2.592,0.768c-0.842,0 -1.6,-0.187 -2.272,-0.56c-0.661,-0.384 -1.184,-0.917 -1.568,-1.6c-0.373,-0.693 -0.56,-1.493 -0.56,-2.4c0,-0.907 0.182,-1.701 0.544,-2.384c0.374,-0.693 0.891,-1.227 1.552,-1.6c0.672,-0.373 1.44,-0.56 2.304,-0.56c0.832,0 1.574,0.181 2.224,0.544c0.651,0.363 1.158,0.875 1.52,1.536c0.363,0.651 0.544,1.403 0.544,2.256zM305.735,292.8c-0.01,-0.672 -0.25,-1.211 -0.72,-1.616c-0.469,-0.405 -1.05,-0.608 -1.744,-0.608c-0.629,0 -1.168,0.203 -1.616,0.608c-0.448,0.395 -0.714,0.933 -0.8,1.616z" fill="#000000"/></g></g></svg>