<svg width="480" height="360" viewBox="0 0 480 360" fill="none" xmlns="http://www.w3.org/2000/svg">
<g clip-path="url(#clip0_301_33)">
<path d="M0 0H130C141.046 0 150 8.95431 150 20V340C150 351.046 141.046 360 130 360H0V0Z" fill="#E6E6E6"/>
<path d="M49.024 19.88V31H47.2V19.88H49.024ZM62.0908 22.04C62.7841 22.04 63.4028 22.184 63.9468 22.472C64.5014 22.76 64.9334 23.1867 65.2428 23.752C65.5628 24.3173 65.7228 25 65.7228 25.8V31H63.9148V26.072C63.9148 25.2827 63.7174 24.68 63.3228 24.264C62.9281 23.8373 62.3894 23.624 61.7068 23.624C61.0241 23.624 60.4801 23.8373 60.0748 24.264C59.6801 24.68 59.4828 25.2827 59.4828 26.072V31H57.6748V26.072C57.6748 25.2827 57.4774 24.68 57.0828 24.264C56.6881 23.8373 56.1494 23.624 55.4668 23.624C54.7841 23.624 54.2401 23.8373 53.8348 24.264C53.4401 24.68 53.2428 25.2827 53.2428 26.072V31H51.4188V22.184H53.2428V23.192C53.5414 22.8293 53.9201 22.5467 54.3788 22.344C54.8374 22.1413 55.3281 22.04 55.8508 22.04C56.5548 22.04 57.1841 22.1893 57.7388 22.488C58.2934 22.7867 58.7201 23.2187 59.0188 23.784C59.2854 23.2507 59.7014 22.8293 60.2668 22.52C60.8321 22.2 61.4401 22.04 62.0908 22.04ZM69.8678 23.48C70.1771 23.0747 70.5984 22.7333 71.1318 22.456C71.6651 22.1787 72.2678 22.04 72.9398 22.04C73.7078 22.04 74.4064 22.232 75.0358 22.616C75.6758 22.9893 76.1771 23.5173 76.5398 24.2C76.9024 24.8827 77.0838 25.6667 77.0838 26.552C77.0838 27.4373 76.9024 28.232 76.5398 28.936C76.1771 29.6293 75.6758 30.1733 75.0358 30.568C74.4064 30.952 73.7078 31.144 72.9398 31.144C72.2678 31.144 71.6704 31.0107 71.1478 30.744C70.6251 30.4667 70.1984 30.1253 69.8678 29.72V35.192H68.0438V22.184H69.8678V23.48ZM75.2278 26.552C75.2278 25.944 75.0998 25.4213 74.8438 24.984C74.5984 24.536 74.2678 24.2 73.8518 23.976C73.4464 23.7413 73.0091 23.624 72.5398 23.624C72.0811 23.624 71.6438 23.7413 71.2278 23.976C70.8224 24.2107 70.4918 24.552 70.2358 25C69.9904 25.448 69.8678 25.976 69.8678 26.584C69.8678 27.192 69.9904 27.7253 70.2358 28.184C70.4918 28.632 70.8224 28.9733 71.2278 29.208C71.6438 29.4427 72.0811 29.56 72.5398 29.56C73.0091 29.56 73.4464 29.4427 73.8518 29.208C74.2678 28.9627 74.5984 28.6107 74.8438 28.152C75.0998 27.6933 75.2278 27.16 75.2278 26.552ZM82.7115 31.144C81.8795 31.144 81.1275 30.9573 80.4555 30.584C79.7835 30.2 79.2555 29.6667 78.8715 28.984C78.4875 28.2907 78.2955 27.4907 78.2955 26.584C78.2955 25.688 78.4928 24.8933 78.8875 24.2C79.2822 23.5067 79.8208 22.9733 80.5035 22.6C81.1862 22.2267 81.9488 22.04 82.7915 22.04C83.6342 22.04 84.3968 22.2267 85.0795 22.6C85.7622 22.9733 86.3008 23.5067 86.6955 24.2C87.0902 24.8933 87.2875 25.688 87.2875 26.584C87.2875 27.48 87.0848 28.2747 86.6795 28.968C86.2742 29.6613 85.7195 30.2 85.0155 30.584C84.3222 30.9573 83.5542 31.144 82.7115 31.144ZM82.7115 29.56C83.1808 29.56 83.6182 29.448 84.0235 29.224C84.4395 29 84.7755 28.664 85.0315 28.216C85.2875 27.768 85.4155 27.224 85.4155 26.584C85.4155 25.944 85.2928 25.4053 85.0475 24.968C84.8022 24.52 84.4768 24.184 84.0715 23.96C83.6662 23.736 83.2288 23.624 82.7595 23.624C82.2902 23.624 81.8528 23.736 81.4475 23.96C81.0528 24.184 80.7382 24.52 80.5035 24.968C80.2688 25.4053 80.1515 25.944 80.1515 26.584C80.1515 27.5333 80.3915 28.2693 80.8715 28.792C81.3622 29.304 81.9755 29.56 82.7115 29.56ZM90.9146 23.464C91.1813 23.016 91.5333 22.6693 91.9706 22.424C92.4186 22.168 92.9466 22.04 93.5546 22.04V23.928H93.0906C92.376 23.928 91.832 24.1093 91.4586 24.472C91.096 24.8347 90.9146 25.464 90.9146 26.36V31H89.0906V22.184H90.9146V23.464ZM97.3593 23.672V28.552C97.3593 28.8827 97.4339 29.1227 97.5833 29.272C97.7433 29.4107 98.0099 29.48 98.3833 29.48H99.5033V31H98.0633C97.2419 31 96.6126 30.808 96.1753 30.424C95.7379 30.04 95.5193 29.416 95.5193 28.552V23.672H94.4793V22.184H95.5193V19.992H97.3593V22.184H99.5033V23.672H97.3593Z" fill="black"/>
<path d="M35.364 94.716C35.812 94.796 36.192 95.032 36.504 95.424C36.816 95.816 36.972 96.26 36.972 96.756C36.972 97.18 36.86 97.564 36.636 97.908C36.42 98.244 36.104 98.512 35.688 98.712C35.272 98.904 34.788 99 34.236 99H30.9V90.66H34.08C34.648 90.66 35.136 90.756 35.544 90.948C35.952 91.14 36.26 91.4 36.468 91.728C36.676 92.048 36.78 92.408 36.78 92.808C36.78 93.288 36.652 93.688 36.396 94.008C36.14 94.328 35.796 94.564 35.364 94.716ZM32.268 94.164H33.96C34.408 94.164 34.756 94.064 35.004 93.864C35.26 93.656 35.388 93.36 35.388 92.976C35.388 92.6 35.26 92.308 35.004 92.1C34.756 91.884 34.408 91.776 33.96 91.776H32.268V94.164ZM34.116 97.884C34.58 97.884 34.944 97.772 35.208 97.548C35.472 97.324 35.604 97.012 35.604 96.612C35.604 96.204 35.464 95.88 35.184 95.64C34.904 95.4 34.532 95.28 34.068 95.28H32.268V97.884H34.116ZM39.8266 90.12V99H38.4586V90.12H39.8266ZM41.1667 95.664C41.1667 95 41.3027 94.412 41.5747 93.9C41.8547 93.388 42.2307 92.992 42.7027 92.712C43.1827 92.424 43.7107 92.28 44.2867 92.28C44.8067 92.28 45.2587 92.384 45.6427 92.592C46.0347 92.792 46.3467 93.044 46.5787 93.348V92.388H47.9587V99H46.5787V98.016C46.3467 98.328 46.0307 98.588 45.6307 98.796C45.2307 99.004 44.7747 99.108 44.2627 99.108C43.6947 99.108 43.1747 98.964 42.7027 98.676C42.2307 98.38 41.8547 97.972 41.5747 97.452C41.3027 96.924 41.1667 96.328 41.1667 95.664ZM46.5787 95.688C46.5787 95.232 46.4827 94.836 46.2907 94.5C46.1067 94.164 45.8627 93.908 45.5587 93.732C45.2547 93.556 44.9267 93.468 44.5747 93.468C44.2227 93.468 43.8947 93.556 43.5907 93.732C43.2867 93.9 43.0387 94.152 42.8467 94.488C42.6627 94.816 42.5707 95.208 42.5707 95.664C42.5707 96.12 42.6627 96.52 42.8467 96.864C43.0387 97.208 43.2867 97.472 43.5907 97.656C43.9027 97.832 44.2307 97.92 44.5747 97.92C44.9267 97.92 45.2547 97.832 45.5587 97.656C45.8627 97.48 46.1067 97.224 46.2907 96.888C46.4827 96.544 46.5787 96.144 46.5787 95.688ZM53.0915 92.28C53.6115 92.28 54.0755 92.388 54.4835 92.604C54.8995 92.82 55.2235 93.14 55.4555 93.564C55.6875 93.988 55.8035 94.5 55.8035 95.1V99H54.4475V95.304C54.4475 94.712 54.2995 94.26 54.0035 93.948C53.7075 93.628 53.3035 93.468 52.7915 93.468C52.2795 93.468 51.8715 93.628 51.5675 93.948C51.2715 94.26 51.1235 94.712 51.1235 95.304V99H49.7555V92.388H51.1235V93.144C51.3475 92.872 51.6315 92.66 51.9755 92.508C52.3275 92.356 52.6995 92.28 53.0915 92.28ZM60.1644 95.7L63.2124 99H61.3644L58.9164 96.156V99H57.5484V90.12H58.9164V95.28L61.3164 92.388H63.2124L60.1644 95.7Z" fill="black"/>
<rect x="10" y="94" width="2" height="2" rx="1" fill="black"/>
<rect x="14" y="94" width="2" height="2" rx="1" fill="black"/>
<rect x="18" y="94" width="2" height="2" rx="1" fill="black"/>
<path d="M33.624 60.66C34.512 60.66 35.288 60.832 35.952 61.176C36.624 61.512 37.14 62 37.5 62.64C37.868 63.272 38.052 64.012 38.052 64.86C38.052 65.708 37.868 66.444 37.5 67.068C37.14 67.692 36.624 68.172 35.952 68.508C35.288 68.836 34.512 69 33.624 69H30.9V60.66H33.624ZM33.624 67.884C34.6 67.884 35.348 67.62 35.868 67.092C36.388 66.564 36.648 65.82 36.648 64.86C36.648 63.892 36.388 63.136 35.868 62.592C35.348 62.048 34.6 61.776 33.624 61.776H32.268V67.884H33.624ZM40.7758 63.348C40.9758 63.012 41.2398 62.752 41.5678 62.568C41.9038 62.376 42.2998 62.28 42.7558 62.28V63.696H42.4078C41.8718 63.696 41.4638 63.832 41.1838 64.104C40.9118 64.376 40.7758 64.848 40.7758 65.52V69H39.4078V62.388H40.7758V63.348ZM43.5573 65.664C43.5573 65 43.6933 64.412 43.9653 63.9C44.2453 63.388 44.6213 62.992 45.0933 62.712C45.5733 62.424 46.1013 62.28 46.6773 62.28C47.1973 62.28 47.6493 62.384 48.0333 62.592C48.4253 62.792 48.7373 63.044 48.9693 63.348V62.388H50.3493V69H48.9693V68.016C48.7373 68.328 48.4213 68.588 48.0213 68.796C47.6213 69.004 47.1653 69.108 46.6533 69.108C46.0853 69.108 45.5653 68.964 45.0933 68.676C44.6213 68.38 44.2453 67.972 43.9653 67.452C43.6933 66.924 43.5573 66.328 43.5573 65.664ZM48.9693 65.688C48.9693 65.232 48.8733 64.836 48.6813 64.5C48.4973 64.164 48.2533 63.908 47.9493 63.732C47.6453 63.556 47.3173 63.468 46.9653 63.468C46.6133 63.468 46.2853 63.556 45.9813 63.732C45.6773 63.9 45.4293 64.152 45.2373 64.488C45.0533 64.816 44.9613 65.208 44.9613 65.664C44.9613 66.12 45.0533 66.52 45.2373 66.864C45.4293 67.208 45.6773 67.472 45.9813 67.656C46.2933 67.832 46.6213 67.92 46.9653 67.92C47.3173 67.92 47.6453 67.832 47.9493 67.656C48.2533 67.48 48.4973 67.224 48.6813 66.888C48.8733 66.544 48.9693 66.144 48.9693 65.688ZM61.0261 62.388L58.9741 69H57.5341L56.2021 64.116L54.8701 69H53.4301L51.3661 62.388H52.7581L54.1381 67.704L55.5421 62.388H56.9701L58.3141 67.68L59.6821 62.388H61.0261ZM62.7444 61.512C62.4964 61.512 62.2884 61.428 62.1204 61.26C61.9524 61.092 61.8684 60.884 61.8684 60.636C61.8684 60.388 61.9524 60.18 62.1204 60.012C62.2884 59.844 62.4964 59.76 62.7444 59.76C62.9844 59.76 63.1884 59.844 63.3564 60.012C63.5244 60.18 63.6084 60.388 63.6084 60.636C63.6084 60.884 63.5244 61.092 63.3564 61.26C63.1884 61.428 62.9844 61.512 62.7444 61.512ZM63.4164 62.388V69H62.0484V62.388H63.4164ZM68.5485 62.28C69.0685 62.28 69.5325 62.388 69.9405 62.604C70.3565 62.82 70.6805 63.14 70.9125 63.564C71.1445 63.988 71.2605 64.5 71.2605 65.1V69H69.9045V65.304C69.9045 64.712 69.7565 64.26 69.4605 63.948C69.1645 63.628 68.7605 63.468 68.2485 63.468C67.7365 63.468 67.3285 63.628 67.0245 63.948C66.7285 64.26 66.5805 64.712 66.5805 65.304V69H65.2125V62.388H66.5805V63.144C66.8045 62.872 67.0885 62.66 67.4325 62.508C67.7845 62.356 68.1565 62.28 68.5485 62.28ZM75.6695 62.28C76.1815 62.28 76.6335 62.384 77.0255 62.592C77.4255 62.792 77.7375 63.044 77.9615 63.348V62.388H79.3415V69.108C79.3415 69.716 79.2135 70.256 78.9575 70.728C78.7015 71.208 78.3295 71.584 77.8415 71.856C77.3615 72.128 76.7855 72.264 76.1135 72.264C75.2175 72.264 74.4735 72.052 73.8815 71.628C73.2895 71.212 72.9535 70.644 72.8735 69.924H74.2295C74.3335 70.268 74.5535 70.544 74.8895 70.752C75.2335 70.968 75.6415 71.076 76.1135 71.076C76.6655 71.076 77.1095 70.908 77.4455 70.572C77.7895 70.236 77.9615 69.748 77.9615 69.108V68.004C77.7295 68.316 77.4135 68.58 77.0135 68.796C76.6215 69.004 76.1735 69.108 75.6695 69.108C75.0935 69.108 74.5655 68.964 74.0855 68.676C73.6135 68.38 73.2375 67.972 72.9575 67.452C72.6855 66.924 72.5495 66.328 72.5495 65.664C72.5495 65 72.6855 64.412 72.9575 63.9C73.2375 63.388 73.6135 62.992 74.0855 62.712C74.5655 62.424 75.0935 62.28 75.6695 62.28ZM77.9615 65.688C77.9615 65.232 77.8655 64.836 77.6735 64.5C77.4895 64.164 77.2455 63.908 76.9415 63.732C76.6375 63.556 76.3095 63.468 75.9575 63.468C75.6055 63.468 75.2775 63.556 74.9735 63.732C74.6695 63.9 74.4215 64.152 74.2295 64.488C74.0455 64.816 73.9535 65.208 73.9535 65.664C73.9535 66.12 74.0455 66.52 74.2295 66.864C74.4215 67.208 74.6695 67.472 74.9735 67.656C75.2855 67.832 75.6135 67.92 75.9575 67.92C76.3095 67.92 76.6375 67.832 76.9415 67.656C77.2455 67.48 77.4895 67.224 77.6735 66.888C77.8655 66.544 77.9615 66.144 77.9615 65.688ZM83.5383 69.108C83.0183 69.108 82.5503 69.016 82.1343 68.832C81.7263 68.64 81.4023 68.384 81.1623 68.064C80.9223 67.736 80.7943 67.372 80.7783 66.972H82.1943C82.2183 67.252 82.3503 67.488 82.5903 67.68C82.8383 67.864 83.1463 67.956 83.5143 67.956C83.8983 67.956 84.1943 67.884 84.4023 67.74C84.6183 67.588 84.7263 67.396 84.7263 67.164C84.7263 66.916 84.6063 66.732 84.3663 66.612C84.1343 66.492 83.7623 66.36 83.2503 66.216C82.7543 66.08 82.3503 65.948 82.0383 65.82C81.7263 65.692 81.4543 65.496 81.2223 65.232C80.9983 64.968 80.8863 64.62 80.8863 64.188C80.8863 63.836 80.9903 63.516 81.1983 63.228C81.4063 62.932 81.7023 62.7 82.0863 62.532C82.4783 62.364 82.9263 62.28 83.4303 62.28C84.1823 62.28 84.7863 62.472 85.2423 62.856C85.7063 63.232 85.9543 63.748 85.9863 64.404H84.6183C84.5943 64.108 84.4743 63.872 84.2583 63.696C84.0423 63.52 83.7503 63.432 83.3823 63.432C83.0223 63.432 82.7463 63.5 82.5543 63.636C82.3623 63.772 82.2663 63.952 82.2663 64.176C82.2663 64.352 82.3303 64.5 82.4583 64.62C82.5863 64.74 82.7423 64.836 82.9263 64.908C83.1103 64.972 83.3823 65.056 83.7423 65.16C84.2223 65.288 84.6143 65.42 84.9183 65.556C85.2303 65.684 85.4983 65.876 85.7223 66.132C85.9463 66.388 86.0623 66.728 86.0703 67.152C86.0703 67.528 85.9663 67.864 85.7583 68.16C85.5503 68.456 85.2543 68.688 84.8703 68.856C84.4943 69.024 84.0503 69.108 83.5383 69.108Z" fill="black"/>
<rect x="12.4146" y="60.9359" width="3.2" height="7.2" transform="rotate(30 12.4146 60.9359)" fill="black"/>
<path d="M11.1858 69.4641L8.41455 67.8641L8.50365 69.2457C8.54958 69.9578 9.30515 70.394 9.94481 70.0778L11.1858 69.4641Z" fill="black"/>
<path d="M13.1147 59.7234C13.3909 59.2451 14.0025 59.0813 14.4808 59.3574L15.52 59.9574C15.9983 60.2335 16.1622 60.8451 15.886 61.3234L15.586 61.843L12.8147 60.243L13.1147 59.7234Z" fill="black"/>
<path d="M11.7998 70C11.7998 69.5582 12.158 69.2 12.5998 69.2H18.1998C18.6416 69.2 18.9998 68.8418 18.9998 68.4V68.4C18.9998 67.9582 18.6416 67.6 18.1998 67.6V67.6C16.8743 67.6 15.7998 66.5255 15.7998 65.2V65.2C15.7998 63.8745 16.8743 62.8 18.1998 62.8H20.5998C21.0416 62.8 21.3998 63.1582 21.3998 63.6V63.6C21.3998 64.0418 21.0416 64.4 20.5998 64.4H18.1998C17.758 64.4 17.3998 64.7582 17.3998 65.2V65.2C17.3998 65.6418 17.758 66 18.1998 66V66C19.5253 66 20.5998 67.0745 20.5998 68.4V68.4C20.5998 69.7255 19.5253 70.8 18.1998 70.8H12.5998C12.158 70.8 11.7998 70.4418 11.7998 70V70Z" fill="black"/>
<rect x="18" y="20" width="8" height="2" rx="1" fill="#E6E6E6"/>
<rect x="18" y="24" width="10" height="2" rx="1" fill="#E6E6E6"/>
<rect x="18" y="28" width="5" height="2" rx="1" fill="#E6E6E6"/>
<path d="M19.4219 25.6107C19.7157 25.2527 20.2169 25.1432 20.6332 25.3462L24.1128 27.0425C24.5397 27.2506 25.054 27.1297 25.3436 26.7533L27.8529 23.4913C28.2178 23.0168 28.915 22.9671 29.3436 23.385L30.3962 24.4113C30.7823 24.7877 31 25.3041 31 25.8433V29C31 30.1046 30.1046 31 29 31H17.114C16.2698 31 15.8054 30.0184 16.341 29.3657L19.4219 25.6107Z" fill="black"/>
<rect x="18.6924" y="19" width="3.69231" height="3.60001" rx="1.80001" fill="black"/>
<path d="M174.832 19.88C176.016 19.88 177.051 20.1093 177.936 20.568C178.832 21.016 179.52 21.6667 180 22.52C180.491 23.3627 180.736 24.3493 180.736 25.48C180.736 26.6107 180.491 27.592 180 28.424C179.52 29.256 178.832 29.896 177.936 30.344C177.051 30.7813 176.016 31 174.832 31H171.2V19.88H174.832ZM174.832 29.512C176.133 29.512 177.131 29.16 177.824 28.456C178.517 27.752 178.864 26.76 178.864 25.48C178.864 24.1893 178.517 23.1813 177.824 22.456C177.131 21.7307 176.133 21.368 174.832 21.368H173.024V29.512H174.832ZM184.368 23.464C184.634 23.016 184.986 22.6693 185.424 22.424C185.872 22.168 186.4 22.04 187.008 22.04V23.928H186.544C185.829 23.928 185.285 24.1093 184.912 24.472C184.549 24.8347 184.368 25.464 184.368 26.36V31H182.544V22.184H184.368V23.464ZM188.076 26.552C188.076 25.6667 188.258 24.8827 188.62 24.2C188.994 23.5173 189.495 22.9893 190.124 22.616C190.764 22.232 191.468 22.04 192.236 22.04C192.93 22.04 193.532 22.1787 194.044 22.456C194.567 22.7227 194.983 23.0587 195.292 23.464V22.184H197.132V31H195.292V29.688C194.983 30.104 194.562 30.4507 194.028 30.728C193.495 31.0053 192.887 31.144 192.204 31.144C191.447 31.144 190.754 30.952 190.124 30.568C189.495 30.1733 188.994 29.6293 188.62 28.936C188.258 28.232 188.076 27.4373 188.076 26.552ZM195.292 26.584C195.292 25.976 195.164 25.448 194.908 25C194.663 24.552 194.338 24.2107 193.932 23.976C193.527 23.7413 193.09 23.624 192.62 23.624C192.151 23.624 191.714 23.7413 191.308 23.976C190.903 24.2 190.572 24.536 190.316 24.984C190.071 25.4213 189.948 25.944 189.948 26.552C189.948 27.16 190.071 27.6933 190.316 28.152C190.572 28.6107 190.903 28.9627 191.308 29.208C191.724 29.4427 192.162 29.56 192.62 29.56C193.09 29.56 193.527 29.4427 193.932 29.208C194.338 28.9733 194.663 28.632 194.908 28.184C195.164 27.7253 195.292 27.192 195.292 26.584ZM211.368 22.184L208.632 31H206.712L204.936 24.488L203.16 31H201.24L198.488 22.184H200.344L202.184 29.272L204.056 22.184H205.96L207.752 29.24L209.576 22.184H211.368ZM213.659 21.016C213.329 21.016 213.051 20.904 212.827 20.68C212.603 20.456 212.491 20.1787 212.491 19.848C212.491 19.5173 212.603 19.24 212.827 19.016C213.051 18.792 213.329 18.68 213.659 18.68C213.979 18.68 214.251 18.792 214.475 19.016C214.699 19.24 214.811 19.5173 214.811 19.848C214.811 20.1787 214.699 20.456 214.475 20.68C214.251 20.904 213.979 21.016 213.659 21.016ZM214.555 22.184V31H212.731V22.184H214.555ZM221.398 22.04C222.091 22.04 222.71 22.184 223.254 22.472C223.809 22.76 224.241 23.1867 224.55 23.752C224.859 24.3173 225.014 25 225.014 25.8V31H223.206V26.072C223.206 25.2827 223.009 24.68 222.614 24.264C222.219 23.8373 221.681 23.624 220.998 23.624C220.315 23.624 219.771 23.8373 219.366 24.264C218.971 24.68 218.774 25.2827 218.774 26.072V31H216.95V22.184H218.774V23.192C219.073 22.8293 219.451 22.5467 219.91 22.344C220.379 22.1413 220.875 22.04 221.398 22.04ZM230.893 22.04C231.575 22.04 232.178 22.1787 232.701 22.456C233.234 22.7227 233.65 23.0587 233.949 23.464V22.184H235.789V31.144C235.789 31.9547 235.618 32.6747 235.277 33.304C234.935 33.944 234.439 34.4453 233.789 34.808C233.149 35.1707 232.381 35.352 231.485 35.352C230.29 35.352 229.298 35.0693 228.509 34.504C227.719 33.9493 227.271 33.192 227.165 32.232H228.973C229.111 32.6907 229.405 33.0587 229.853 33.336C230.311 33.624 230.855 33.768 231.485 33.768C232.221 33.768 232.813 33.544 233.261 33.096C233.719 32.648 233.949 31.9973 233.949 31.144V29.672C233.639 30.088 233.218 30.44 232.685 30.728C232.162 31.0053 231.565 31.144 230.893 31.144C230.125 31.144 229.421 30.952 228.781 30.568C228.151 30.1733 227.65 29.6293 227.277 28.936C226.914 28.232 226.733 27.4373 226.733 26.552C226.733 25.6667 226.914 24.8827 227.277 24.2C227.65 23.5173 228.151 22.9893 228.781 22.616C229.421 22.232 230.125 22.04 230.893 22.04ZM233.949 26.584C233.949 25.976 233.821 25.448 233.565 25C233.319 24.552 232.994 24.2107 232.589 23.976C232.183 23.7413 231.746 23.624 231.277 23.624C230.807 23.624 230.37 23.7413 229.965 23.976C229.559 24.2 229.229 24.536 228.973 24.984C228.727 25.4213 228.605 25.944 228.605 26.552C228.605 27.16 228.727 27.6933 228.973 28.152C229.229 28.6107 229.559 28.9627 229.965 29.208C230.381 29.4427 230.818 29.56 231.277 29.56C231.746 29.56 232.183 29.4427 232.589 29.208C232.994 28.9733 233.319 28.632 233.565 28.184C233.821 27.7253 233.949 27.192 233.949 26.584ZM241.384 31.144C240.691 31.144 240.067 31.0213 239.512 30.776C238.968 30.52 238.536 30.1787 238.216 29.752C237.896 29.3147 237.726 28.8293 237.704 28.296H239.592C239.624 28.6693 239.8 28.984 240.12 29.24C240.451 29.4853 240.862 29.608 241.352 29.608C241.864 29.608 242.259 29.512 242.536 29.32C242.824 29.1173 242.968 28.8613 242.968 28.552C242.968 28.2213 242.808 27.976 242.488 27.816C242.179 27.656 241.683 27.48 241 27.288C240.339 27.1067 239.8 26.9307 239.384 26.76C238.968 26.5893 238.606 26.328 238.296 25.976C237.998 25.624 237.848 25.16 237.848 24.584C237.848 24.1147 237.987 23.688 238.264 23.304C238.542 22.9093 238.936 22.6 239.448 22.376C239.971 22.152 240.568 22.04 241.24 22.04C242.243 22.04 243.048 22.296 243.656 22.808C244.275 23.3093 244.606 23.9973 244.648 24.872H242.824C242.792 24.4773 242.632 24.1627 242.344 23.928C242.056 23.6933 241.667 23.576 241.176 23.576C240.696 23.576 240.328 23.6667 240.072 23.848C239.816 24.0293 239.688 24.2693 239.688 24.568C239.688 24.8027 239.774 25 239.944 25.16C240.115 25.32 240.323 25.448 240.568 25.544C240.814 25.6293 241.176 25.7413 241.656 25.88C242.296 26.0507 242.819 26.2267 243.224 26.408C243.64 26.5787 243.998 26.8347 244.296 27.176C244.595 27.5173 244.75 27.9707 244.76 28.536C244.76 29.0373 244.622 29.4853 244.344 29.88C244.067 30.2747 243.672 30.584 243.16 30.808C242.659 31.032 242.067 31.144 241.384 31.144Z" fill="black"/>
<path d="M177.752 69H176.384L172.268 62.772V69H170.9V60.648H172.268L176.384 66.864V60.648H177.752V69ZM179.092 65.664C179.092 65 179.228 64.412 179.5 63.9C179.78 63.388 180.156 62.992 180.628 62.712C181.108 62.424 181.636 62.28 182.212 62.28C182.732 62.28 183.184 62.384 183.568 62.592C183.96 62.792 184.272 63.044 184.504 63.348V62.388H185.884V69H184.504V68.016C184.272 68.328 183.956 68.588 183.556 68.796C183.156 69.004 182.7 69.108 182.188 69.108C181.62 69.108 181.1 68.964 180.628 68.676C180.156 68.38 179.78 67.972 179.5 67.452C179.228 66.924 179.092 66.328 179.092 65.664ZM184.504 65.688C184.504 65.232 184.408 64.836 184.216 64.5C184.032 64.164 183.788 63.908 183.484 63.732C183.18 63.556 182.852 63.468 182.5 63.468C182.148 63.468 181.82 63.556 181.516 63.732C181.212 63.9 180.964 64.152 180.772 64.488C180.588 64.816 180.496 65.208 180.496 65.664C180.496 66.12 180.588 66.52 180.772 66.864C180.964 67.208 181.212 67.472 181.516 67.656C181.828 67.832 182.156 67.92 182.5 67.92C182.852 67.92 183.18 67.832 183.484 67.656C183.788 67.48 184.032 67.224 184.216 66.888C184.408 66.544 184.504 66.144 184.504 65.688ZM195.685 62.28C196.205 62.28 196.669 62.388 197.077 62.604C197.493 62.82 197.817 63.14 198.049 63.564C198.289 63.988 198.409 64.5 198.409 65.1V69H197.053V65.304C197.053 64.712 196.905 64.26 196.609 63.948C196.313 63.628 195.909 63.468 195.397 63.468C194.885 63.468 194.477 63.628 194.173 63.948C193.877 64.26 193.729 64.712 193.729 65.304V69H192.373V65.304C192.373 64.712 192.225 64.26 191.929 63.948C191.633 63.628 191.229 63.468 190.717 63.468C190.205 63.468 189.797 63.628 189.493 63.948C189.197 64.26 189.049 64.712 189.049 65.304V69H187.681V62.388H189.049V63.144C189.273 62.872 189.557 62.66 189.901 62.508C190.245 62.356 190.613 62.28 191.005 62.28C191.533 62.28 192.005 62.392 192.421 62.616C192.837 62.84 193.157 63.164 193.381 63.588C193.581 63.188 193.893 62.872 194.317 62.64C194.741 62.4 195.197 62.28 195.685 62.28ZM206.21 65.532C206.21 65.78 206.194 66.004 206.162 66.204H201.11C201.15 66.732 201.346 67.156 201.698 67.476C202.05 67.796 202.482 67.956 202.994 67.956C203.73 67.956 204.25 67.648 204.554 67.032H206.03C205.83 67.64 205.466 68.14 204.938 68.532C204.418 68.916 203.77 69.108 202.994 69.108C202.362 69.108 201.794 68.968 201.29 68.688C200.794 68.4 200.402 68 200.114 67.488C199.834 66.968 199.694 66.368 199.694 65.688C199.694 65.008 199.83 64.412 200.102 63.9C200.382 63.38 200.77 62.98 201.266 62.7C201.77 62.42 202.346 62.28 202.994 62.28C203.618 62.28 204.174 62.416 204.662 62.688C205.15 62.96 205.53 63.344 205.802 63.84C206.074 64.328 206.21 64.892 206.21 65.532ZM204.782 65.1C204.774 64.596 204.594 64.192 204.242 63.888C203.89 63.584 203.454 63.432 202.934 63.432C202.462 63.432 202.058 63.584 201.722 63.888C201.386 64.184 201.186 64.588 201.122 65.1H204.782Z" fill="black"/>
<path d="M302.624 60.66C303.512 60.66 304.288 60.832 304.952 61.176C305.624 61.512 306.14 62 306.5 62.64C306.868 63.272 307.052 64.012 307.052 64.86C307.052 65.708 306.868 66.444 306.5 67.068C306.14 67.692 305.624 68.172 304.952 68.508C304.288 68.836 303.512 69 302.624 69H299.9V60.66H302.624ZM302.624 67.884C303.6 67.884 304.348 67.62 304.868 67.092C305.388 66.564 305.648 65.82 305.648 64.86C305.648 63.892 305.388 63.136 304.868 62.592C304.348 62.048 303.6 61.776 302.624 61.776H301.268V67.884H302.624ZM307.952 65.664C307.952 65 308.088 64.412 308.36 63.9C308.64 63.388 309.016 62.992 309.488 62.712C309.968 62.424 310.496 62.28 311.072 62.28C311.592 62.28 312.044 62.384 312.428 62.592C312.82 62.792 313.132 63.044 313.364 63.348V62.388H314.744V69H313.364V68.016C313.132 68.328 312.816 68.588 312.416 68.796C312.016 69.004 311.56 69.108 311.048 69.108C310.48 69.108 309.96 68.964 309.488 68.676C309.016 68.38 308.64 67.972 308.36 67.452C308.088 66.924 307.952 66.328 307.952 65.664ZM313.364 65.688C313.364 65.232 313.268 64.836 313.076 64.5C312.892 64.164 312.648 63.908 312.344 63.732C312.04 63.556 311.712 63.468 311.36 63.468C311.008 63.468 310.68 63.556 310.376 63.732C310.072 63.9 309.824 64.152 309.632 64.488C309.448 64.816 309.356 65.208 309.356 65.664C309.356 66.12 309.448 66.52 309.632 66.864C309.824 67.208 310.072 67.472 310.376 67.656C310.688 67.832 311.016 67.92 311.36 67.92C311.712 67.92 312.04 67.832 312.344 67.656C312.648 67.48 312.892 67.224 313.076 66.888C313.268 66.544 313.364 66.144 313.364 65.688ZM318.137 63.504V67.164C318.137 67.412 318.193 67.592 318.305 67.704C318.425 67.808 318.625 67.86 318.905 67.86H319.745V69H318.665C318.049 69 317.577 68.856 317.249 68.568C316.921 68.28 316.757 67.812 316.757 67.164V63.504H315.977V62.388H316.757V60.744H318.137V62.388H319.745V63.504H318.137ZM327.065 65.532C327.065 65.78 327.049 66.004 327.017 66.204H321.965C322.005 66.732 322.201 67.156 322.553 67.476C322.905 67.796 323.337 67.956 323.849 67.956C324.585 67.956 325.105 67.648 325.409 67.032H326.885C326.685 67.64 326.321 68.14 325.793 68.532C325.273 68.916 324.625 69.108 323.849 69.108C323.217 69.108 322.649 68.968 322.145 68.688C321.649 68.4 321.257 68 320.969 67.488C320.689 66.968 320.549 66.368 320.549 65.688C320.549 65.008 320.685 64.412 320.957 63.9C321.237 63.38 321.625 62.98 322.121 62.7C322.625 62.42 323.201 62.28 323.849 62.28C324.473 62.28 325.029 62.416 325.517 62.688C326.005 62.96 326.385 63.344 326.657 63.84C326.929 64.328 327.065 64.892 327.065 65.532ZM325.637 65.1C325.629 64.596 325.449 64.192 325.097 63.888C324.745 63.584 324.309 63.432 323.789 63.432C323.317 63.432 322.913 63.584 322.577 63.888C322.241 64.184 322.041 64.588 321.977 65.1H325.637Z" fill="black"/>
<path d="M387.648 69.084C387.088 69.084 386.584 68.988 386.136 68.796C385.688 68.596 385.336 68.316 385.08 67.956C384.824 67.596 384.696 67.176 384.696 66.696H386.16C386.192 67.056 386.332 67.352 386.58 67.584C386.836 67.816 387.192 67.932 387.648 67.932C388.12 67.932 388.488 67.82 388.752 67.596C389.016 67.364 389.148 67.068 389.148 66.708C389.148 66.428 389.064 66.2 388.896 66.024C388.736 65.848 388.532 65.712 388.284 65.616C388.044 65.52 387.708 65.416 387.276 65.304C386.732 65.16 386.288 65.016 385.944 64.872C385.608 64.72 385.32 64.488 385.08 64.176C384.84 63.864 384.72 63.448 384.72 62.928C384.72 62.448 384.84 62.028 385.08 61.668C385.32 61.308 385.656 61.032 386.088 60.84C386.52 60.648 387.02 60.552 387.588 60.552C388.396 60.552 389.056 60.756 389.568 61.164C390.088 61.564 390.376 62.116 390.432 62.82H388.92C388.896 62.516 388.752 62.256 388.488 62.04C388.224 61.824 387.876 61.716 387.444 61.716C387.052 61.716 386.732 61.816 386.484 62.016C386.236 62.216 386.112 62.504 386.112 62.88C386.112 63.136 386.188 63.348 386.34 63.516C386.5 63.676 386.7 63.804 386.94 63.9C387.18 63.996 387.508 64.1 387.924 64.212C388.476 64.364 388.924 64.516 389.268 64.668C389.62 64.82 389.916 65.056 390.156 65.376C390.404 65.688 390.528 66.108 390.528 66.636C390.528 67.06 390.412 67.46 390.18 67.836C389.956 68.212 389.624 68.516 389.184 68.748C388.752 68.972 388.24 69.084 387.648 69.084ZM392.838 61.512C392.59 61.512 392.382 61.428 392.214 61.26C392.046 61.092 391.962 60.884 391.962 60.636C391.962 60.388 392.046 60.18 392.214 60.012C392.382 59.844 392.59 59.76 392.838 59.76C393.078 59.76 393.282 59.844 393.45 60.012C393.618 60.18 393.702 60.388 393.702 60.636C393.702 60.884 393.618 61.092 393.45 61.26C393.282 61.428 393.078 61.512 392.838 61.512ZM393.51 62.388V69H392.142V62.388H393.51ZM396.518 67.884H399.518V69H394.934V67.884L397.946 63.504H394.934V62.388H399.518V63.504L396.518 67.884ZM407.015 65.532C407.015 65.78 406.999 66.004 406.967 66.204H401.915C401.955 66.732 402.151 67.156 402.503 67.476C402.855 67.796 403.287 67.956 403.799 67.956C404.535 67.956 405.055 67.648 405.359 67.032H406.835C406.635 67.64 406.271 68.14 405.743 68.532C405.223 68.916 404.575 69.108 403.799 69.108C403.167 69.108 402.599 68.968 402.095 68.688C401.599 68.4 401.207 68 400.919 67.488C400.639 66.968 400.499 66.368 400.499 65.688C400.499 65.008 400.635 64.412 400.907 63.9C401.187 63.38 401.575 62.98 402.071 62.7C402.575 62.42 403.151 62.28 403.799 62.28C404.423 62.28 404.979 62.416 405.467 62.688C405.955 62.96 406.335 63.344 406.607 63.84C406.879 64.328 407.015 64.892 407.015 65.532ZM405.587 65.1C405.579 64.596 405.399 64.192 405.047 63.888C404.695 63.584 404.259 63.432 403.739 63.432C403.267 63.432 402.863 63.584 402.527 63.888C402.191 64.184 401.991 64.588 401.927 65.1H405.587Z" fill="black"/>
</g>
<defs>
<clipPath id="clip0_301_33">
<rect width="480" height="360" fill="white"/>
</clipPath>
</defs>
</svg>
