<svg width="240" height="50" viewBox="0 0 240 50" fill="none" xmlns="http://www.w3.org/2000/svg">
<path d="M6.288 13.66V14.776H4.068V22H2.7V14.776H0.468V13.66H6.288ZM13.7334 18.532C13.7334 18.78 13.7174 19.004 13.6854 19.204H8.63344C8.67344 19.732 8.86944 20.156 9.22144 20.476C9.57344 20.796 10.0054 20.956 10.5174 20.956C11.2534 20.956 11.7734 20.648 12.0774 20.032H13.5534C13.3534 20.64 12.9894 21.14 12.4614 21.532C11.9414 21.916 11.2934 22.108 10.5174 22.108C9.88544 22.108 9.31744 21.968 8.81344 21.688C8.31744 21.4 7.92544 21 7.63744 20.488C7.35744 19.968 7.21744 19.368 7.21744 18.688C7.21744 18.008 7.35344 17.412 7.62544 16.9C7.90544 16.38 8.29344 15.98 8.78944 15.7C9.29344 15.42 9.86944 15.28 10.5174 15.28C11.1414 15.28 11.6974 15.416 12.1854 15.688C12.6734 15.96 13.0534 16.344 13.3254 16.84C13.5974 17.328 13.7334 17.892 13.7334 18.532ZM12.3054 18.1C12.2974 17.596 12.1174 17.192 11.7654 16.888C11.4134 16.584 10.9774 16.432 10.4574 16.432C9.98544 16.432 9.58144 16.584 9.24544 16.888C8.90944 17.184 8.70944 17.588 8.64544 18.1H12.3054ZM23.0837 15.28C23.6037 15.28 24.0677 15.388 24.4757 15.604C24.8917 15.82 25.2157 16.14 25.4477 16.564C25.6877 16.988 25.8077 17.5 25.8077 18.1V22H24.4517V18.304C24.4517 17.712 24.3037 17.26 24.0077 16.948C23.7117 16.628 23.3077 16.468 22.7957 16.468C22.2837 16.468 21.8757 16.628 21.5717 16.948C21.2757 17.26 21.1277 17.712 21.1277 18.304V22H19.7717V18.304C19.7717 17.712 19.6237 17.26 19.3277 16.948C19.0317 16.628 18.6277 16.468 18.1157 16.468C17.6037 16.468 17.1957 16.628 16.8917 16.948C16.5957 17.26 16.4477 17.712 16.4477 18.304V22H15.0797V15.388H16.4477V16.144C16.6717 15.872 16.9557 15.66 17.2997 15.508C17.6437 15.356 18.0117 15.28 18.4037 15.28C18.9317 15.28 19.4037 15.392 19.8197 15.616C20.2357 15.84 20.5557 16.164 20.7797 16.588C20.9797 16.188 21.2917 15.872 21.7157 15.64C22.1397 15.4 22.5957 15.28 23.0837 15.28ZM28.9164 16.36C29.1484 16.056 29.4644 15.8 29.8644 15.592C30.2644 15.384 30.7164 15.28 31.2204 15.28C31.7964 15.28 32.3204 15.424 32.7924 15.712C33.2724 15.992 33.6484 16.388 33.9204 16.9C34.1924 17.412 34.3284 18 34.3284 18.664C34.3284 19.328 34.1924 19.924 33.9204 20.452C33.6484 20.972 33.2724 21.38 32.7924 21.676C32.3204 21.964 31.7964 22.108 31.2204 22.108C30.7164 22.108 30.2684 22.008 29.8764 21.808C29.4844 21.6 29.1644 21.344 28.9164 21.04V25.144H27.5484V15.388H28.9164V16.36ZM32.9364 18.664C32.9364 18.208 32.8404 17.816 32.6484 17.488C32.4644 17.152 32.2164 16.9 31.9044 16.732C31.6004 16.556 31.2724 16.468 30.9204 16.468C30.5764 16.468 30.2484 16.556 29.9364 16.732C29.6324 16.908 29.3844 17.164 29.1924 17.5C29.0084 17.836 28.9164 18.232 28.9164 18.688C28.9164 19.144 29.0084 19.544 29.1924 19.888C29.3844 20.224 29.6324 20.48 29.9364 20.656C30.2484 20.832 30.5764 20.92 30.9204 20.92C31.2724 20.92 31.6004 20.832 31.9044 20.656C32.2164 20.472 32.4644 20.208 32.6484 19.864C32.8404 19.52 32.9364 19.12 32.9364 18.664ZM41.7413 18.532C41.7413 18.78 41.7253 19.004 41.6933 19.204H36.6413C36.6813 19.732 36.8773 20.156 37.2293 20.476C37.5813 20.796 38.0133 20.956 38.5253 20.956C39.2613 20.956 39.7813 20.648 40.0853 20.032H41.5612C41.3613 20.64 40.9973 21.14 40.4693 21.532C39.9493 21.916 39.3013 22.108 38.5253 22.108C37.8933 22.108 37.3253 21.968 36.8213 21.688C36.3253 21.4 35.9333 21 35.6453 20.488C35.3653 19.968 35.2253 19.368 35.2253 18.688C35.2253 18.008 35.3613 17.412 35.6333 16.9C35.9133 16.38 36.3013 15.98 36.7973 15.7C37.3013 15.42 37.8773 15.28 38.5253 15.28C39.1493 15.28 39.7053 15.416 40.1933 15.688C40.6813 15.96 41.0613 16.344 41.3333 16.84C41.6053 17.328 41.7413 17.892 41.7413 18.532ZM40.3133 18.1C40.3053 17.596 40.1253 17.192 39.7733 16.888C39.4213 16.584 38.9853 16.432 38.4653 16.432C37.9933 16.432 37.5893 16.584 37.2533 16.888C36.9173 17.184 36.7173 17.588 36.6533 18.1H40.3133ZM44.4555 16.348C44.6555 16.012 44.9195 15.752 45.2475 15.568C45.5835 15.376 45.9795 15.28 46.4355 15.28V16.696H46.0875C45.5515 16.696 45.1435 16.832 44.8635 17.104C44.5915 17.376 44.4555 17.848 44.4555 18.52V22H43.0875V15.388H44.4555V16.348ZM47.237 18.664C47.237 18 47.373 17.412 47.645 16.9C47.925 16.388 48.301 15.992 48.773 15.712C49.253 15.424 49.781 15.28 50.357 15.28C50.877 15.28 51.329 15.384 51.713 15.592C52.105 15.792 52.417 16.044 52.649 16.348V15.388H54.029V22H52.649V21.016C52.417 21.328 52.101 21.588 51.701 21.796C51.301 22.004 50.845 22.108 50.333 22.108C49.765 22.108 49.245 21.964 48.773 21.676C48.301 21.38 47.925 20.972 47.645 20.452C47.373 19.924 47.237 19.328 47.237 18.664ZM52.649 18.688C52.649 18.232 52.553 17.836 52.361 17.5C52.177 17.164 51.933 16.908 51.629 16.732C51.325 16.556 50.997 16.468 50.645 16.468C50.293 16.468 49.965 16.556 49.661 16.732C49.357 16.9 49.109 17.152 48.917 17.488C48.733 17.816 48.641 18.208 48.641 18.664C48.641 19.12 48.733 19.52 48.917 19.864C49.109 20.208 49.357 20.472 49.661 20.656C49.973 20.832 50.301 20.92 50.645 20.92C50.997 20.92 51.325 20.832 51.629 20.656C51.933 20.48 52.177 20.224 52.361 19.888C52.553 19.544 52.649 19.144 52.649 18.688ZM57.1938 16.348C57.3938 16.012 57.6578 15.752 57.9858 15.568C58.3218 15.376 58.7178 15.28 59.1738 15.28V16.696H58.8258C58.2898 16.696 57.8818 16.832 57.6018 17.104C57.3298 17.376 57.1938 17.848 57.1938 18.52V22H55.8258V15.388H57.1938V16.348ZM66.4913 18.532C66.4913 18.78 66.4753 19.004 66.4433 19.204H61.3913C61.4313 19.732 61.6273 20.156 61.9793 20.476C62.3313 20.796 62.7633 20.956 63.2753 20.956C64.0113 20.956 64.5313 20.648 64.8353 20.032H66.3112C66.1113 20.64 65.7473 21.14 65.2193 21.532C64.6993 21.916 64.0513 22.108 63.2753 22.108C62.6433 22.108 62.0753 21.968 61.5713 21.688C61.0753 21.4 60.6833 21 60.3953 20.488C60.1153 19.968 59.9753 19.368 59.9753 18.688C59.9753 18.008 60.1113 17.412 60.3833 16.9C60.6633 16.38 61.0513 15.98 61.5473 15.7C62.0513 15.42 62.6273 15.28 63.2753 15.28C63.8993 15.28 64.4553 15.416 64.9433 15.688C65.4313 15.96 65.8113 16.344 66.0833 16.84C66.3553 17.328 66.4913 17.892 66.4913 18.532ZM65.0633 18.1C65.0553 17.596 64.8753 17.192 64.5233 16.888C64.1713 16.584 63.7353 16.432 63.2153 16.432C62.7433 16.432 62.3393 16.584 62.0033 16.888C61.6673 17.184 61.4673 17.588 61.4033 18.1H65.0633Z" fill="black"/>
<path d="M1.89 31.05V38H0.75V31.05H1.89ZM5.38672 38.09C4.95339 38.09 4.56339 38.0133 4.21672 37.86C3.87672 37.7 3.60672 37.4867 3.40672 37.22C3.20672 36.9467 3.10005 36.6433 3.08672 36.31H4.26672C4.28672 36.5433 4.39672 36.74 4.59672 36.9C4.80339 37.0533 5.06005 37.13 5.36672 37.13C5.68672 37.13 5.93339 37.07 6.10672 36.95C6.28672 36.8233 6.37672 36.6633 6.37672 36.47C6.37672 36.2633 6.27672 36.11 6.07672 36.01C5.88339 35.91 5.57339 35.8 5.14672 35.68C4.73339 35.5667 4.39672 35.4567 4.13672 35.35C3.87672 35.2433 3.65005 35.08 3.45672 34.86C3.27005 34.64 3.17672 34.35 3.17672 33.99C3.17672 33.6967 3.26339 33.43 3.43672 33.19C3.61005 32.9433 3.85672 32.75 4.17672 32.61C4.50339 32.47 4.87672 32.4 5.29672 32.4C5.92339 32.4 6.42672 32.56 6.80672 32.88C7.19339 33.1933 7.40005 33.6233 7.42672 34.17H6.28672C6.26672 33.9233 6.16672 33.7267 5.98672 33.58C5.80672 33.4333 5.56339 33.36 5.25672 33.36C4.95672 33.36 4.72672 33.4167 4.56672 33.53C4.40672 33.6433 4.32672 33.7933 4.32672 33.98C4.32672 34.1267 4.38005 34.25 4.48672 34.35C4.59339 34.45 4.72339 34.53 4.87672 34.59C5.03005 34.6433 5.25672 34.7133 5.55672 34.8C5.95672 34.9067 6.28339 35.0167 6.53672 35.13C6.79672 35.2367 7.02005 35.3967 7.20672 35.61C7.39339 35.8233 7.49005 36.1067 7.49672 36.46C7.49672 36.7733 7.41005 37.0533 7.23672 37.3C7.06339 37.5467 6.81672 37.74 6.49672 37.88C6.18339 38.02 5.81339 38.09 5.38672 38.09ZM11.1185 38.09C10.5985 38.09 10.1285 37.9733 9.70852 37.74C9.28852 37.5 8.95852 37.1667 8.71852 36.74C8.47852 36.3067 8.35852 35.8067 8.35852 35.24C8.35852 34.68 8.48185 34.1833 8.72852 33.75C8.97518 33.3167 9.31185 32.9833 9.73852 32.75C10.1652 32.5167 10.6418 32.4 11.1685 32.4C11.6952 32.4 12.1718 32.5167 12.5985 32.75C13.0252 32.9833 13.3618 33.3167 13.6085 33.75C13.8552 34.1833 13.9785 34.68 13.9785 35.24C13.9785 35.8 13.8518 36.2967 13.5985 36.73C13.3452 37.1633 12.9985 37.5 12.5585 37.74C12.1252 37.9733 11.6452 38.09 11.1185 38.09ZM11.1185 37.1C11.4118 37.1 11.6852 37.03 11.9385 36.89C12.1985 36.75 12.4085 36.54 12.5685 36.26C12.7285 35.98 12.8085 35.64 12.8085 35.24C12.8085 34.84 12.7318 34.5033 12.5785 34.23C12.4252 33.95 12.2218 33.74 11.9685 33.6C11.7152 33.46 11.4418 33.39 11.1485 33.39C10.8552 33.39 10.5818 33.46 10.3285 33.6C10.0818 33.74 9.88518 33.95 9.73852 34.23C9.59185 34.5033 9.51852 34.84 9.51852 35.24C9.51852 35.8333 9.66852 36.2933 9.96852 36.62C10.2752 36.94 10.6585 37.1 11.1185 37.1ZM16.2455 30.6V38H15.1055V30.6H16.2455ZM17.3622 35.22C17.3622 34.6667 17.4755 34.1767 17.7022 33.75C17.9355 33.3233 18.2489 32.9933 18.6422 32.76C19.0422 32.52 19.4822 32.4 19.9622 32.4C20.3955 32.4 20.7722 32.4867 21.0922 32.66C21.4189 32.8267 21.6789 33.0367 21.8722 33.29V32.49H23.0222V38H21.8722V37.18C21.6789 37.44 21.4155 37.6567 21.0822 37.83C20.7489 38.0033 20.3689 38.09 19.9422 38.09C19.4689 38.09 19.0355 37.97 18.6422 37.73C18.2489 37.4833 17.9355 37.1433 17.7022 36.71C17.4755 36.27 17.3622 35.7733 17.3622 35.22ZM21.8722 35.24C21.8722 34.86 21.7922 34.53 21.6322 34.25C21.4789 33.97 21.2755 33.7567 21.0222 33.61C20.7689 33.4633 20.4955 33.39 20.2022 33.39C19.9089 33.39 19.6355 33.4633 19.3822 33.61C19.1289 33.75 18.9222 33.96 18.7622 34.24C18.6089 34.5133 18.5322 34.84 18.5322 35.22C18.5322 35.6 18.6089 35.9333 18.7622 36.22C18.9222 36.5067 19.1289 36.7267 19.3822 36.88C19.6422 37.0267 19.9155 37.1 20.2022 37.1C20.4955 37.1 20.7689 37.0267 21.0222 36.88C21.2755 36.7333 21.4789 36.52 21.6322 36.24C21.7922 35.9533 21.8722 35.62 21.8722 35.24ZM25.8495 33.42V36.47C25.8495 36.6767 25.8962 36.8267 25.9895 36.92C26.0895 37.0067 26.2562 37.05 26.4895 37.05H27.1895V38H26.2895C25.7762 38 25.3829 37.88 25.1095 37.64C24.8362 37.4 24.6995 37.01 24.6995 36.47V33.42H24.0495V32.49H24.6995V31.12H25.8495V32.49H27.1895V33.42H25.8495ZM33.2902 35.11C33.2902 35.3167 33.2769 35.5033 33.2502 35.67H29.0402C29.0736 36.11 29.2369 36.4633 29.5302 36.73C29.8236 36.9967 30.1836 37.13 30.6102 37.13C31.2236 37.13 31.6569 36.8733 31.9102 36.36H33.1402C32.9736 36.8667 32.6702 37.2833 32.2302 37.61C31.7969 37.93 31.2569 38.09 30.6102 38.09C30.0836 38.09 29.6102 37.9733 29.1902 37.74C28.7769 37.5 28.4502 37.1667 28.2102 36.74C27.9769 36.3067 27.8602 35.8067 27.8602 35.24C27.8602 34.6733 27.9736 34.1767 28.2002 33.75C28.4336 33.3167 28.7569 32.9833 29.1702 32.75C29.5902 32.5167 30.0702 32.4 30.6102 32.4C31.1302 32.4 31.5936 32.5133 32.0002 32.74C32.4069 32.9667 32.7236 33.2867 32.9502 33.7C33.1769 34.1067 33.2902 34.5767 33.2902 35.11ZM32.1002 34.75C32.0936 34.33 31.9436 33.9933 31.6502 33.74C31.3569 33.4867 30.9936 33.36 30.5602 33.36C30.1669 33.36 29.8302 33.4867 29.5502 33.74C29.2702 33.9867 29.1036 34.3233 29.0502 34.75H32.1002ZM34.0321 35.22C34.0321 34.6667 34.1454 34.1767 34.3721 33.75C34.6054 33.3233 34.9188 32.9933 35.3121 32.76C35.7121 32.52 36.1554 32.4 36.6421 32.4C37.0021 32.4 37.3554 32.48 37.7021 32.64C38.0554 32.7933 38.3354 33 38.5421 33.26V30.6H39.6921V38H38.5421V37.17C38.3554 37.4367 38.0954 37.6567 37.7621 37.83C37.4354 38.0033 37.0588 38.09 36.6321 38.09C36.1521 38.09 35.7121 37.97 35.3121 37.73C34.9188 37.4833 34.6054 37.1433 34.3721 36.71C34.1454 36.27 34.0321 35.7733 34.0321 35.22ZM38.5421 35.24C38.5421 34.86 38.4621 34.53 38.3021 34.25C38.1488 33.97 37.9454 33.7567 37.6921 33.61C37.4388 33.4633 37.1654 33.39 36.8721 33.39C36.5788 33.39 36.3054 33.4633 36.0521 33.61C35.7988 33.75 35.5921 33.96 35.4321 34.24C35.2788 34.5133 35.2021 34.84 35.2021 35.22C35.2021 35.6 35.2788 35.9333 35.4321 36.22C35.5921 36.5067 35.7988 36.7267 36.0521 36.88C36.3121 37.0267 36.5854 37.1 36.8721 37.1C37.1654 37.1 37.4388 37.0267 37.6921 36.88C37.9454 36.7333 38.1488 36.52 38.3021 36.24C38.4621 35.9533 38.5421 35.62 38.5421 35.24Z" fill="#808080"/>
</svg>
