<svg width="150" height="30" viewBox="0 0 150 30" fill="none" xmlns="http://www.w3.org/2000/svg">
<rect width="150" height="30" rx="15" fill="black" fill-opacity="0.1"/>
<path d="M16.2106 19L14.6106 16.22H13.7406V19H12.6006V12.05H15.0006C15.5339 12.05 15.9839 12.1433 16.3506 12.33C16.7239 12.5167 17.0006 12.7667 17.1806 13.08C17.3673 13.3933 17.4606 13.7433 17.4606 14.13C17.4606 14.5833 17.3273 14.9967 17.0606 15.37C16.8006 15.7367 16.3973 15.9867 15.8506 16.12L17.5706 19H16.2106ZM13.7406 15.31H15.0006C15.4273 15.31 15.7473 15.2033 15.9606 14.99C16.1806 14.7767 16.2906 14.49 16.2906 14.13C16.2906 13.77 16.1839 13.49 15.9706 13.29C15.7573 13.0833 15.4339 12.98 15.0006 12.98H13.7406V15.31ZM23.9689 16.11C23.9689 16.3167 23.9556 16.5033 23.9289 16.67H19.7189C19.7523 17.11 19.9156 17.4633 20.2089 17.73C20.5023 17.9967 20.8623 18.13 21.2889 18.13C21.9023 18.13 22.3356 17.8733 22.5889 17.36H23.8189C23.6523 17.8667 23.3489 18.2833 22.9089 18.61C22.4756 18.93 21.9356 19.09 21.2889 19.09C20.7623 19.09 20.2889 18.9733 19.8689 18.74C19.4556 18.5 19.1289 18.1667 18.8889 17.74C18.6556 17.3067 18.5389 16.8067 18.5389 16.24C18.5389 15.6733 18.6523 15.1767 18.8789 14.75C19.1123 14.3167 19.4356 13.9833 19.8489 13.75C20.2689 13.5167 20.7489 13.4 21.2889 13.4C21.8089 13.4 22.2723 13.5133 22.6789 13.74C23.0856 13.9667 23.4023 14.2867 23.6289 14.7C23.8556 15.1067 23.9689 15.5767 23.9689 16.11ZM22.7789 15.75C22.7723 15.33 22.6223 14.9933 22.3289 14.74C22.0356 14.4867 21.6723 14.36 21.2389 14.36C20.8456 14.36 20.5089 14.4867 20.2289 14.74C19.9489 14.9867 19.7823 15.3233 19.7289 15.75H22.7789ZM31.7608 13.4C32.1942 13.4 32.5808 13.49 32.9208 13.67C33.2675 13.85 33.5375 14.1167 33.7308 14.47C33.9308 14.8233 34.0308 15.25 34.0308 15.75V19H32.9008V15.92C32.9008 15.4267 32.7775 15.05 32.5308 14.79C32.2842 14.5233 31.9475 14.39 31.5208 14.39C31.0942 14.39 30.7542 14.5233 30.5008 14.79C30.2542 15.05 30.1308 15.4267 30.1308 15.92V19H29.0008V15.92C29.0008 15.4267 28.8775 15.05 28.6308 14.79C28.3842 14.5233 28.0475 14.39 27.6208 14.39C27.1942 14.39 26.8542 14.5233 26.6008 14.79C26.3542 15.05 26.2308 15.4267 26.2308 15.92V19H25.0908V13.49H26.2308V14.12C26.4175 13.8933 26.6542 13.7167 26.9408 13.59C27.2275 13.4633 27.5342 13.4 27.8608 13.4C28.3008 13.4 28.6942 13.4933 29.0408 13.68C29.3875 13.8667 29.6542 14.1367 29.8408 14.49C30.0075 14.1567 30.2675 13.8933 30.6208 13.7C30.9742 13.5 31.3542 13.4 31.7608 13.4ZM37.8714 19.09C37.3514 19.09 36.8814 18.9733 36.4614 18.74C36.0414 18.5 35.7114 18.1667 35.4714 17.74C35.2314 17.3067 35.1114 16.8067 35.1114 16.24C35.1114 15.68 35.2348 15.1833 35.4814 14.75C35.7281 14.3167 36.0648 13.9833 36.4914 13.75C36.9181 13.5167 37.3948 13.4 37.9214 13.4C38.4481 13.4 38.9248 13.5167 39.3514 13.75C39.7781 13.9833 40.1148 14.3167 40.3614 14.75C40.6081 15.1833 40.7314 15.68 40.7314 16.24C40.7314 16.8 40.6048 17.2967 40.3514 17.73C40.0981 18.1633 39.7514 18.5 39.3114 18.74C38.8781 18.9733 38.3981 19.09 37.8714 19.09ZM37.8714 18.1C38.1648 18.1 38.4381 18.03 38.6914 17.89C38.9514 17.75 39.1614 17.54 39.3214 17.26C39.4814 16.98 39.5614 16.64 39.5614 16.24C39.5614 15.84 39.4848 15.5033 39.3314 15.23C39.1781 14.95 38.9748 14.74 38.7214 14.6C38.4681 14.46 38.1948 14.39 37.9014 14.39C37.6081 14.39 37.3348 14.46 37.0814 14.6C36.8348 14.74 36.6381 14.95 36.4914 15.23C36.3448 15.5033 36.2714 15.84 36.2714 16.24C36.2714 16.8333 36.4214 17.2933 36.7214 17.62C37.0281 17.94 37.4114 18.1 37.8714 18.1ZM43.9884 17.98L45.5484 13.49H46.7584L44.6584 19H43.2984L41.2084 13.49H42.4284L43.9884 17.98ZM52.6701 16.11C52.6701 16.3167 52.6568 16.5033 52.6301 16.67H48.4201C48.4535 17.11 48.6168 17.4633 48.9101 17.73C49.2035 17.9967 49.5635 18.13 49.9901 18.13C50.6035 18.13 51.0368 17.8733 51.2901 17.36H52.5201C52.3535 17.8667 52.0501 18.2833 51.6101 18.61C51.1768 18.93 50.6368 19.09 49.9901 19.09C49.4635 19.09 48.9901 18.9733 48.5701 18.74C48.1568 18.5 47.8301 18.1667 47.5901 17.74C47.3568 17.3067 47.2401 16.8067 47.2401 16.24C47.2401 15.6733 47.3535 15.1767 47.5801 14.75C47.8135 14.3167 48.1368 13.9833 48.5501 13.75C48.9701 13.5167 49.4501 13.4 49.9901 13.4C50.5101 13.4 50.9735 13.5133 51.3801 13.74C51.7868 13.9667 52.1035 14.2867 52.3301 14.7C52.5568 15.1067 52.6701 15.5767 52.6701 16.11ZM51.4801 15.75C51.4735 15.33 51.3235 14.9933 51.0301 14.74C50.7368 14.4867 50.3735 14.36 49.9401 14.36C49.5468 14.36 49.2101 14.4867 48.9301 14.74C48.6501 14.9867 48.4835 15.3233 48.4301 15.75H51.4801ZM58.6996 14.42H57.6796V19H56.5296V14.42H55.8796V13.49H56.5296V13.1C56.5296 12.4667 56.6963 12.0067 57.0296 11.72C57.3696 11.4267 57.8996 11.28 58.6196 11.28V12.23C58.273 12.23 58.0296 12.2967 57.8896 12.43C57.7496 12.5567 57.6796 12.78 57.6796 13.1V13.49H58.6996V14.42ZM60.85 14.29C61.0166 14.01 61.2366 13.7933 61.51 13.64C61.79 13.48 62.12 13.4 62.5 13.4V14.58H62.21C61.7633 14.58 61.4233 14.6933 61.19 14.92C60.9633 15.1467 60.85 15.54 60.85 16.1V19H59.71V13.49H60.85V14.29ZM65.9379 19.09C65.4179 19.09 64.9479 18.9733 64.5279 18.74C64.1079 18.5 63.7779 18.1667 63.5379 17.74C63.2979 17.3067 63.1779 16.8067 63.1779 16.24C63.1779 15.68 63.3012 15.1833 63.5479 14.75C63.7945 14.3167 64.1312 13.9833 64.5579 13.75C64.9845 13.5167 65.4612 13.4 65.9879 13.4C66.5145 13.4 66.9912 13.5167 67.4179 13.75C67.8445 13.9833 68.1812 14.3167 68.4279 14.75C68.6745 15.1833 68.7979 15.68 68.7979 16.24C68.7979 16.8 68.6712 17.2967 68.4179 17.73C68.1645 18.1633 67.8179 18.5 67.3779 18.74C66.9445 18.9733 66.4645 19.09 65.9379 19.09ZM65.9379 18.1C66.2312 18.1 66.5045 18.03 66.7579 17.89C67.0179 17.75 67.2279 17.54 67.3879 17.26C67.5479 16.98 67.6279 16.64 67.6279 16.24C67.6279 15.84 67.5512 15.5033 67.3979 15.23C67.2445 14.95 67.0412 14.74 66.7879 14.6C66.5345 14.46 66.2612 14.39 65.9679 14.39C65.6745 14.39 65.4012 14.46 65.1479 14.6C64.9012 14.74 64.7045 14.95 64.5579 15.23C64.4112 15.5033 64.3379 15.84 64.3379 16.24C64.3379 16.8333 64.4879 17.2933 64.7879 17.62C65.0945 17.94 65.4779 18.1 65.9379 18.1ZM76.5948 13.4C77.0281 13.4 77.4148 13.49 77.7548 13.67C78.1015 13.85 78.3715 14.1167 78.5648 14.47C78.7648 14.8233 78.8648 15.25 78.8648 15.75V19H77.7348V15.92C77.7348 15.4267 77.6115 15.05 77.3648 14.79C77.1181 14.5233 76.7815 14.39 76.3548 14.39C75.9281 14.39 75.5881 14.5233 75.3348 14.79C75.0881 15.05 74.9648 15.4267 74.9648 15.92V19H73.8348V15.92C73.8348 15.4267 73.7115 15.05 73.4648 14.79C73.2181 14.5233 72.8815 14.39 72.4548 14.39C72.0281 14.39 71.6881 14.5233 71.4348 14.79C71.1881 15.05 71.0648 15.4267 71.0648 15.92V19H69.9248V13.49H71.0648V14.12C71.2515 13.8933 71.4881 13.7167 71.7748 13.59C72.0615 13.4633 72.3681 13.4 72.6948 13.4C73.1348 13.4 73.5281 13.4933 73.8748 13.68C74.2215 13.8667 74.4881 14.1367 74.6748 14.49C74.8415 14.1567 75.1015 13.8933 75.4548 13.7C75.8081 13.5 76.1881 13.4 76.5948 13.4ZM87.8731 13.49L84.4931 21.59H83.3131L84.4331 18.91L82.2631 13.49H83.5331L85.0831 17.69L86.6931 13.49H87.8731ZM91.1234 19.09C90.6034 19.09 90.1334 18.9733 89.7134 18.74C89.2934 18.5 88.9634 18.1667 88.7234 17.74C88.4834 17.3067 88.3634 16.8067 88.3634 16.24C88.3634 15.68 88.4867 15.1833 88.7334 14.75C88.9801 14.3167 89.3167 13.9833 89.7434 13.75C90.1701 13.5167 90.6467 13.4 91.1734 13.4C91.7001 13.4 92.1767 13.5167 92.6034 13.75C93.0301 13.9833 93.3667 14.3167 93.6134 14.75C93.8601 15.1833 93.9834 15.68 93.9834 16.24C93.9834 16.8 93.8567 17.2967 93.6034 17.73C93.3501 18.1633 93.0034 18.5 92.5634 18.74C92.1301 18.9733 91.6501 19.09 91.1234 19.09ZM91.1234 18.1C91.4167 18.1 91.6901 18.03 91.9434 17.89C92.2034 17.75 92.4134 17.54 92.5734 17.26C92.7334 16.98 92.8134 16.64 92.8134 16.24C92.8134 15.84 92.7367 15.5033 92.5834 15.23C92.4301 14.95 92.2267 14.74 91.9734 14.6C91.7201 14.46 91.4467 14.39 91.1534 14.39C90.8601 14.39 90.5867 14.46 90.3334 14.6C90.0867 14.74 89.8901 14.95 89.7434 15.23C89.5967 15.5033 89.5234 15.84 89.5234 16.24C89.5234 16.8333 89.6734 17.2933 89.9734 17.62C90.2801 17.94 90.6634 18.1 91.1234 18.1ZM100.1 13.49V19H98.9604V18.35C98.7804 18.5767 98.5437 18.7567 98.2504 18.89C97.9637 19.0167 97.657 19.08 97.3304 19.08C96.897 19.08 96.507 18.99 96.1604 18.81C95.8204 18.63 95.5504 18.3633 95.3504 18.01C95.157 17.6567 95.0604 17.23 95.0604 16.73V13.49H96.1904V16.56C96.1904 17.0533 96.3137 17.4333 96.5604 17.7C96.807 17.96 97.1437 18.09 97.5704 18.09C97.997 18.09 98.3337 17.96 98.5804 17.7C98.8337 17.4333 98.9604 17.0533 98.9604 16.56V13.49H100.1ZM102.744 14.29C102.911 14.01 103.131 13.7933 103.404 13.64C103.684 13.48 104.014 13.4 104.394 13.4V14.58H104.104C103.658 14.58 103.318 14.6933 103.084 14.92C102.858 15.1467 102.744 15.54 102.744 16.1V19H101.604V13.49H102.744V14.29ZM114.71 13.4C115.143 13.4 115.53 13.49 115.87 13.67C116.217 13.85 116.487 14.1167 116.68 14.47C116.88 14.8233 116.98 15.25 116.98 15.75V19H115.85V15.92C115.85 15.4267 115.727 15.05 115.48 14.79C115.233 14.5233 114.897 14.39 114.47 14.39C114.043 14.39 113.703 14.5233 113.45 14.79C113.203 15.05 113.08 15.4267 113.08 15.92V19H111.95V15.92C111.95 15.4267 111.827 15.05 111.58 14.79C111.333 14.5233 110.997 14.39 110.57 14.39C110.143 14.39 109.803 14.5233 109.55 14.79C109.303 15.05 109.18 15.4267 109.18 15.92V19H108.04V13.49H109.18V14.12C109.367 13.8933 109.603 13.7167 109.89 13.59C110.177 13.4633 110.483 13.4 110.81 13.4C111.25 13.4 111.643 13.4933 111.99 13.68C112.337 13.8667 112.603 14.1367 112.79 14.49C112.957 14.1567 113.217 13.8933 113.57 13.7C113.923 13.5 114.303 13.4 114.71 13.4ZM123.421 13.49V19H122.281V18.35C122.101 18.5767 121.864 18.7567 121.571 18.89C121.284 19.0167 120.977 19.08 120.651 19.08C120.217 19.08 119.827 18.99 119.481 18.81C119.141 18.63 118.871 18.3633 118.671 18.01C118.477 17.6567 118.381 17.23 118.381 16.73V13.49H119.511V16.56C119.511 17.0533 119.634 17.4333 119.881 17.7C120.127 17.96 120.464 18.09 120.891 18.09C121.317 18.09 121.654 17.96 121.901 17.7C122.154 17.4333 122.281 17.0533 122.281 16.56V13.49H123.421ZM126.925 19.09C126.491 19.09 126.101 19.0133 125.755 18.86C125.415 18.7 125.145 18.4867 124.945 18.22C124.745 17.9467 124.638 17.6433 124.625 17.31H125.805C125.825 17.5433 125.935 17.74 126.135 17.9C126.341 18.0533 126.598 18.13 126.905 18.13C127.225 18.13 127.471 18.07 127.645 17.95C127.825 17.8233 127.915 17.6633 127.915 17.47C127.915 17.2633 127.815 17.11 127.615 17.01C127.421 16.91 127.111 16.8 126.685 16.68C126.271 16.5667 125.935 16.4567 125.675 16.35C125.415 16.2433 125.188 16.08 124.995 15.86C124.808 15.64 124.715 15.35 124.715 14.99C124.715 14.6967 124.801 14.43 124.975 14.19C125.148 13.9433 125.395 13.75 125.715 13.61C126.041 13.47 126.415 13.4 126.835 13.4C127.461 13.4 127.965 13.56 128.345 13.88C128.731 14.1933 128.938 14.6233 128.965 15.17H127.825C127.805 14.9233 127.705 14.7267 127.525 14.58C127.345 14.4333 127.101 14.36 126.795 14.36C126.495 14.36 126.265 14.4167 126.105 14.53C125.945 14.6433 125.865 14.7933 125.865 14.98C125.865 15.1267 125.918 15.25 126.025 15.35C126.131 15.45 126.261 15.53 126.415 15.59C126.568 15.6433 126.795 15.7133 127.095 15.8C127.495 15.9067 127.821 16.0167 128.075 16.13C128.335 16.2367 128.558 16.3967 128.745 16.61C128.931 16.8233 129.028 17.1067 129.035 17.46C129.035 17.7733 128.948 18.0533 128.775 18.3C128.601 18.5467 128.355 18.74 128.035 18.88C127.721 19.02 127.351 19.09 126.925 19.09ZM130.847 12.76C130.64 12.76 130.467 12.69 130.327 12.55C130.187 12.41 130.117 12.2367 130.117 12.03C130.117 11.8233 130.187 11.65 130.327 11.51C130.467 11.37 130.64 11.3 130.847 11.3C131.047 11.3 131.217 11.37 131.357 11.51C131.497 11.65 131.567 11.8233 131.567 12.03C131.567 12.2367 131.497 12.41 131.357 12.55C131.217 12.69 131.047 12.76 130.847 12.76ZM131.407 13.49V19H130.267V13.49H131.407ZM132.523 16.24C132.523 15.6733 132.637 15.1767 132.863 14.75C133.097 14.3167 133.417 13.9833 133.823 13.75C134.23 13.5167 134.697 13.4 135.223 13.4C135.89 13.4 136.44 13.56 136.873 13.88C137.313 14.1933 137.61 14.6433 137.763 15.23H136.533C136.433 14.9567 136.273 14.7433 136.053 14.59C135.833 14.4367 135.557 14.36 135.223 14.36C134.757 14.36 134.383 14.5267 134.103 14.86C133.83 15.1867 133.693 15.6467 133.693 16.24C133.693 16.8333 133.83 17.2967 134.103 17.63C134.383 17.9633 134.757 18.13 135.223 18.13C135.883 18.13 136.32 17.84 136.533 17.26H137.763C137.603 17.82 137.303 18.2667 136.863 18.6C136.423 18.9267 135.877 19.09 135.223 19.09C134.697 19.09 134.23 18.9733 133.823 18.74C133.417 18.5 133.097 18.1667 132.863 17.74C132.637 17.3067 132.523 16.8067 132.523 16.24Z" fill="black"/>
</svg>
