<svg xmlns="http://www.w3.org/2000/svg" fill="none" viewBox="0 0 60 80" height="80" width="60">
<path fill="#58ACFF" d="M30.017 51.964C28.433 51.964 27.005 51.592 25.733 50.848C24.485 50.08 23.501 49.048 22.781 47.752C22.061 46.432 21.701 44.956 21.701 43.324C21.701 41.74 22.061 40.324 22.781 39.076C23.501 37.804 24.485 36.808 25.733 36.088C27.005 35.368 28.433 35.008 30.017 35.008C31.601 35.008 33.017 35.368 34.265 36.088C35.513 36.808 36.497 37.804 37.217 39.076C37.961 40.324 38.321 41.74 38.297 43.324C38.297 44.956 37.925 46.432 37.181 47.752C36.461 49.048 35.477 50.08 34.229 50.848C32.981 51.592 31.577 51.964 30.017 51.964ZM30.017 48.652C30.905 48.652 31.697 48.412 32.393 47.932C33.113 47.452 33.677 46.816 34.085 46.024C34.493 45.208 34.697 44.308 34.697 43.324C34.721 42.364 34.529 41.512 34.121 40.768C33.713 40 33.149 39.4 32.429 38.968C31.733 38.512 30.929 38.284 30.017 38.284C29.129 38.284 28.325 38.512 27.605 38.968C26.885 39.4 26.321 40 25.913 40.768C25.505 41.512 25.301 42.364 25.301 43.324C25.301 44.308 25.493 45.208 25.877 46.024C26.285 46.816 26.849 47.452 27.569 47.932C28.289 48.412 29.105 48.652 30.017 48.652ZM30.017 37.636C28.649 37.636 27.425 37.336 26.345 36.736C25.289 36.136 24.449 35.332 23.825 34.324C23.201 33.292 22.889 32.128 22.889 30.832C22.889 29.464 23.201 28.252 23.825 27.196C24.449 26.116 25.289 25.264 26.345 24.64C27.425 23.992 28.649 23.668 30.017 23.668C31.385 23.644 32.597 23.944 33.653 24.568C34.733 25.192 35.585 26.044 36.209 27.124C36.833 28.204 37.133 29.44 37.109 30.832C37.109 32.128 36.797 33.292 36.173 34.324C35.549 35.332 34.697 36.136 33.617 36.736C32.561 37.336 31.361 37.636 30.017 37.636ZM30.017 34.648C30.689 34.648 31.289 34.468 31.817 34.108C32.345 33.748 32.765 33.28 33.077 32.704C33.389 32.104 33.545 31.444 33.545 30.724C33.569 30.004 33.425 29.368 33.113 28.816C32.801 28.264 32.381 27.832 31.853 27.52C31.325 27.184 30.713 27.016 30.017 27.016C29.009 27.016 28.169 27.364 27.497 28.06C26.825 28.756 26.477 29.644 26.453 30.724C26.429 31.804 26.753 32.728 27.425 33.496C28.121 34.264 28.985 34.648 30.017 34.648Z"></path>
<path fill="#58ACFF" d="M25.733 50.848L25.2089 51.6997C25.2153 51.7036 25.2217 51.7074 25.2281 51.7112L25.733 50.848ZM22.781 47.752L21.9031 48.2309L21.9069 48.2376L22.781 47.752ZM22.781 39.076L23.6472 39.5757L23.6513 39.5686L22.781 39.076ZM25.733 36.088L25.2404 35.2177L25.2333 35.2218L25.733 36.088ZM34.265 36.088L33.7653 36.9542L33.7653 36.9542L34.265 36.088ZM37.217 39.076L36.3468 39.5686C36.3505 39.5751 36.3542 39.5816 36.3581 39.5881L37.217 39.076ZM38.297 43.324L37.2971 43.3089C37.2971 43.3139 37.297 43.3189 37.297 43.324L38.297 43.324ZM37.181 47.752L36.3098 47.261L36.3069 47.2664L37.181 47.752ZM34.229 50.848L34.7411 51.707L34.7531 51.6997L34.229 50.848ZM32.393 47.932L31.8383 47.0999C31.8339 47.1029 31.8296 47.1058 31.8253 47.1088L32.393 47.932ZM34.085 46.024L34.9741 46.482L34.9794 46.4712L34.085 46.024ZM34.697 43.324L33.6973 43.299C33.6971 43.3073 33.697 43.3157 33.697 43.324L34.697 43.324ZM34.121 40.768L33.2378 41.2372L33.2442 41.2488L34.121 40.768ZM32.429 38.968L31.881 39.8045C31.892 39.8117 31.9032 39.8187 31.9145 39.8255L32.429 38.968ZM27.605 38.968L28.1195 39.8255C28.1264 39.8214 28.1333 39.8171 28.1401 39.8128L27.605 38.968ZM25.913 40.768L26.7899 41.2489L26.7961 41.2372L25.913 40.768ZM25.877 46.024L24.9722 46.4498C24.9773 46.4606 24.9826 46.4713 24.988 46.482L25.877 46.024ZM27.569 47.932L27.0143 48.7641L27.0143 48.7641L27.569 47.932ZM26.345 36.736L25.851 37.6055L25.8594 37.6102L26.345 36.736ZM23.825 34.324L22.9692 34.8414L22.9748 34.8504L23.825 34.324ZM23.825 27.196L24.686 27.7048L24.6909 27.6963L23.825 27.196ZM26.345 24.64L26.8538 25.5009L26.8595 25.4975L26.345 24.64ZM30.017 23.668V24.668C30.0229 24.668 30.0287 24.6679 30.0346 24.6678L30.017 23.668ZM33.653 24.568L33.1443 25.429L33.1527 25.4339L33.653 24.568ZM36.209 27.124L37.0749 26.6237L37.0749 26.6237L36.209 27.124ZM37.109 30.832L36.1092 30.8148C36.1091 30.8205 36.109 30.8263 36.109 30.832L37.109 30.832ZM36.173 34.324L37.0233 34.8504L37.0287 34.8414L36.173 34.324ZM33.617 36.736L33.1314 35.8618L33.123 35.8665L33.617 36.736ZM31.817 34.108L32.3804 34.9342L32.3804 34.9342L31.817 34.108ZM33.077 32.704L33.9563 33.1803C33.959 33.1753 33.9616 33.1704 33.9642 33.1654L33.077 32.704ZM33.545 30.724L32.5456 30.6907C32.5452 30.7018 32.545 30.7129 32.545 30.724H33.545ZM33.113 28.816L32.2425 29.3081L32.2425 29.3081L33.113 28.816ZM31.853 27.52L31.3161 28.3637C31.3254 28.3696 31.3348 28.3753 31.3443 28.3809L31.853 27.52ZM27.497 28.06L28.2164 28.7546L28.2164 28.7546L27.497 28.06ZM26.453 30.724L25.4533 30.7018L25.4533 30.7018L26.453 30.724ZM27.425 33.496L26.6724 34.1545C26.6763 34.1589 26.6801 34.1632 26.684 34.1675L27.425 33.496ZM30.017 50.964C28.5967 50.964 27.3453 50.6325 26.2379 49.9848L25.2281 51.7112C26.6648 52.5515 28.2693 52.964 30.017 52.964V50.964ZM26.2571 49.9963C25.1571 49.3194 24.2929 48.4142 23.6552 47.2664L21.9069 48.2376C22.7092 49.6818 23.813 50.8406 25.2089 51.6997L26.2571 49.9963ZM23.6589 47.2731C23.0258 46.1124 22.701 44.8033 22.701 43.324H20.701C20.701 45.1087 21.0963 46.7516 21.9031 48.2309L23.6589 47.2731ZM22.701 43.324C22.701 41.8975 23.0234 40.657 23.6472 39.5757L21.9148 38.5763C21.0986 39.991 20.701 41.5825 20.701 43.324H22.701ZM23.6513 39.5686C24.2847 38.4496 25.1417 37.5836 26.2327 36.9542L25.2333 35.2218C23.8283 36.0324 22.7174 37.1584 21.9108 38.5834L23.6513 39.5686ZM26.2256 36.9583C27.3349 36.3303 28.5908 36.008 30.017 36.008V34.008C28.2753 34.008 26.6751 34.4057 25.2404 35.2177L26.2256 36.9583ZM30.017 36.008C31.4435 36.008 32.684 36.3304 33.7653 36.9542L34.7647 35.2218C33.35 34.4056 31.7585 34.008 30.017 34.008V36.008ZM33.7653 36.9542C34.8563 37.5836 35.7134 38.4496 36.3468 39.5686L38.0873 38.5834C37.2807 37.1584 36.1697 36.0324 34.7647 35.2218L33.7653 36.9542ZM36.3581 39.5881C36.9986 40.6625 37.3186 41.8929 37.2971 43.3089L39.2969 43.3391C39.3234 41.5871 38.9234 39.9855 38.076 38.5639L36.3581 39.5881ZM37.297 43.324C37.297 44.7976 36.9629 46.1023 36.3099 47.261L38.0522 48.243C38.8871 46.7617 39.297 45.1144 39.297 43.324H37.297ZM36.3069 47.2664C35.6692 48.4142 34.805 49.3194 33.7049 49.9963L34.7531 51.6997C36.1491 50.8406 37.2529 49.6818 38.0552 48.2376L36.3069 47.2664ZM33.717 49.9891C32.6352 50.6339 31.4105 50.964 30.017 50.964V52.964C31.7435 52.964 33.3268 52.5501 34.7411 51.7069L33.717 49.9891ZM30.017 49.652C31.097 49.652 32.0891 49.3563 32.9607 48.7552L31.8253 47.1088C31.3049 47.4677 30.713 47.652 30.017 47.652V49.652ZM32.9477 48.7641C33.8134 48.1869 34.4906 47.4204 34.974 46.482L33.196 45.566C32.8635 46.2116 32.4126 46.7171 31.8383 47.0999L32.9477 48.7641ZM34.9794 46.4712C35.4622 45.5056 35.697 44.4508 35.697 43.324H33.697C33.697 44.1652 33.5238 44.9104 33.1906 45.5768L34.9794 46.4712ZM35.6967 43.349C35.7245 42.2362 35.5014 41.2055 34.9978 40.2872L33.2442 41.2488C33.5566 41.8185 33.7175 42.4918 33.6973 43.299L35.6967 43.349ZM35.0041 40.2988C34.514 39.3763 33.8251 38.6395 32.9435 38.1105L31.9145 39.8255C32.4729 40.1605 32.912 40.6237 33.2379 41.2372L35.0041 40.2988ZM32.977 38.1315C32.1026 37.5586 31.1043 37.284 30.017 37.284V39.284C30.7538 39.284 31.3634 39.4653 31.881 39.8045L32.977 38.1315ZM30.017 37.284C28.9479 37.284 27.9569 37.5614 27.07 38.1232L28.1401 39.8128C28.6931 39.4626 29.3101 39.284 30.017 39.284V37.284ZM27.0905 38.1105C26.2089 38.6395 25.52 39.3763 25.0299 40.2988L26.7961 41.2372C27.122 40.6237 27.5611 40.1605 28.1195 39.8255L27.0905 38.1105ZM25.0362 40.2872C24.5373 41.197 24.301 42.2183 24.301 43.324H26.301C26.301 42.5097 26.4728 41.827 26.7898 41.2488L25.0362 40.2872ZM24.301 43.324C24.301 44.4416 24.52 45.4888 24.9722 46.4498L26.7818 45.5982C26.4661 44.9272 26.301 44.1744 26.301 43.324H24.301ZM24.988 46.482C25.4715 47.4204 26.1486 48.1869 27.0143 48.7641L28.1237 47.0999C27.5494 46.7171 27.0986 46.2116 26.766 45.566L24.988 46.482ZM27.0143 48.7641C27.9077 49.3596 28.9188 49.652 30.017 49.652V47.652C29.2912 47.652 28.6704 47.4644 28.1237 47.0999L27.0143 48.7641ZM30.017 36.636C28.8003 36.636 27.7466 36.3707 26.8307 35.8618L25.8594 37.6102C27.1034 38.3013 28.4977 38.636 30.017 38.636V36.636ZM26.839 35.8665C25.9249 35.3472 25.2089 34.6597 24.6753 33.7976L22.9748 34.8504C23.6891 36.0043 24.6531 36.9248 25.851 37.6055L26.839 35.8665ZM24.6807 33.8066C24.1582 32.9423 23.889 31.9597 23.889 30.832H21.889C21.889 32.2963 22.2439 33.6417 22.9693 34.8414L24.6807 33.8066ZM23.889 30.832C23.889 29.6218 24.1632 28.5894 24.6859 27.7047L22.9641 26.6873C22.2389 27.9146 21.889 29.3062 21.889 30.832H23.889ZM24.6909 27.6963C25.2304 26.7626 25.9484 26.0359 26.8537 25.5009L25.8363 23.7791C24.6296 24.4921 23.6677 25.4694 22.9592 26.6957L24.6909 27.6963ZM26.8595 25.4975C27.7708 24.9507 28.8141 24.668 30.017 24.668V22.668C28.4839 22.668 27.0792 23.0333 25.8305 23.7825L26.8595 25.4975ZM30.0346 24.6678C31.2396 24.6467 32.2654 24.9096 33.1443 25.4289L34.1617 23.7071C32.9286 22.9784 31.5304 22.6413 29.9995 22.6682L30.0346 24.6678ZM33.1527 25.4339C34.0809 25.9702 34.8069 26.6961 35.3432 27.6243L37.0749 26.6237C36.3632 25.3919 35.3851 24.4138 34.1533 23.7021L33.1527 25.4339ZM35.3432 27.6243C35.8661 28.5294 36.1304 29.5826 36.1092 30.8148L38.1089 30.8492C38.1356 29.2974 37.7999 27.8786 37.0749 26.6237L35.3432 27.6243ZM36.109 30.832C36.109 31.9597 35.8399 32.9423 35.3173 33.8066L37.0287 34.8414C37.7542 33.6417 38.109 32.2963 38.109 30.832H36.109ZM35.3228 33.7976C34.7925 34.6543 34.0687 35.3411 33.1314 35.8618L34.1027 37.6102C35.3254 36.9309 36.3056 36.0097 37.0233 34.8504L35.3228 33.7976ZM33.123 35.8665C32.2332 36.3721 31.2067 36.636 30.017 36.636V38.636C31.5153 38.636 32.8888 38.2999 34.111 37.6055L33.123 35.8665ZM30.017 35.648C30.879 35.648 31.6775 35.4135 32.3804 34.9342L31.2537 33.2818C30.9006 33.5225 30.499 33.648 30.017 33.648V35.648ZM32.3804 34.9342C33.0434 34.4821 33.5704 33.8928 33.9563 33.1803L32.1977 32.2277C31.9597 32.6672 31.6466 33.0139 31.2537 33.2818L32.3804 34.9342ZM33.9642 33.1654C34.3551 32.4137 34.545 31.5939 34.545 30.724H32.545C32.545 31.2941 32.4229 31.7943 32.1898 32.2426L33.9642 33.1654ZM34.5445 30.7573C34.5737 29.8792 34.3978 29.0568 33.9836 28.3239L32.2425 29.3081C32.4522 29.6792 32.5643 30.1288 32.5456 30.6907L34.5445 30.7573ZM33.9836 28.3239C33.5884 27.6248 33.0458 27.0633 32.3617 26.6591L31.3443 28.3809C31.7162 28.6007 32.0136 28.9032 32.2425 29.3081L33.9836 28.3239ZM32.3899 26.6763C31.6838 26.227 30.8812 26.016 30.017 26.016V28.016C30.5449 28.016 30.9662 28.141 31.3161 28.3637L32.3899 26.6763ZM30.017 26.016C28.7505 26.016 27.6467 26.4652 26.7776 27.3654L28.2164 28.7546C28.6913 28.2628 29.2676 28.016 30.017 28.016V26.016ZM26.7776 27.3654C25.9101 28.2639 25.4821 29.4021 25.4533 30.7018L27.4528 30.7462C27.4719 29.8859 27.7399 29.2481 28.2164 28.7546L26.7776 27.3654ZM25.4533 30.7018C25.4241 32.0156 25.8256 33.1867 26.6724 34.1545L28.1776 32.8375C27.6804 32.2693 27.434 31.5924 27.4528 30.7462L25.4533 30.7018ZM26.684 34.1675C27.5687 35.1437 28.7013 35.648 30.017 35.648V33.648C29.2687 33.648 28.6734 33.3843 28.166 32.8245L26.684 34.1675Z"></path>
</svg>
