<svg width="480" height="360" viewBox="0 0 480 360" fill="none" xmlns="http://www.w3.org/2000/svg">
<path d="M104.581 0H450C466.569 0 480 13.4315 480 30V330C480 346.569 466.569 360 450 360H104.581H30C13.4315 360 0 346.569 0 330V30C0 13.4315 13.4315 0 30 0H104.581Z" fill="#E6E6E6"/>
<path d="M215.289 298H213.465L207.977 289.696V298H206.153V286.864H207.977L213.465 295.152V286.864H215.289V298ZM221.508 298.144C220.676 298.144 219.924 297.957 219.252 297.584C218.58 297.2 218.052 296.667 217.668 295.984C217.284 295.291 217.092 294.491 217.092 293.584C217.092 292.688 217.29 291.893 217.684 291.2C218.079 290.507 218.618 289.973 219.3 289.6C219.983 289.227 220.746 289.04 221.588 289.04C222.431 289.04 223.194 289.227 223.876 289.6C224.559 289.973 225.098 290.507 225.492 291.2C225.887 291.893 226.084 292.688 226.084 293.584C226.084 294.48 225.882 295.275 225.476 295.968C225.071 296.661 224.516 297.2 223.812 297.584C223.119 297.957 222.351 298.144 221.508 298.144ZM221.508 296.56C221.978 296.56 222.415 296.448 222.82 296.224C223.236 296 223.572 295.664 223.828 295.216C224.084 294.768 224.212 294.224 224.212 293.584C224.212 292.944 224.09 292.405 223.844 291.968C223.599 291.52 223.274 291.184 222.868 290.96C222.463 290.736 222.026 290.624 221.556 290.624C221.087 290.624 220.65 290.736 220.244 290.96C219.85 291.184 219.535 291.52 219.3 291.968C219.066 292.405 218.948 292.944 218.948 293.584C218.948 294.533 219.188 295.269 219.668 295.792C220.159 296.304 220.772 296.56 221.508 296.56ZM230.016 290.672V295.552C230.016 295.883 230.09 296.123 230.24 296.272C230.4 296.411 230.666 296.48 231.04 296.48H232.16V298H230.72C229.898 298 229.269 297.808 228.832 297.424C228.394 297.04 228.176 296.416 228.176 295.552V290.672H227.136V289.184H228.176V286.992H230.016V289.184H232.16V290.672H230.016ZM241.921 293.376C241.921 293.707 241.899 294.005 241.857 294.272H235.121C235.174 294.976 235.435 295.541 235.905 295.968C236.374 296.395 236.95 296.608 237.633 296.608C238.614 296.608 239.307 296.197 239.713 295.376H241.681C241.414 296.187 240.929 296.853 240.225 297.376C239.531 297.888 238.667 298.144 237.633 298.144C236.79 298.144 236.033 297.957 235.361 297.584C234.699 297.2 234.177 296.667 233.793 295.984C233.419 295.291 233.233 294.491 233.233 293.584C233.233 292.677 233.414 291.883 233.777 291.2C234.15 290.507 234.667 289.973 235.329 289.6C236.001 289.227 236.769 289.04 237.633 289.04C238.465 289.04 239.206 289.221 239.857 289.584C240.507 289.947 241.014 290.459 241.377 291.12C241.739 291.771 241.921 292.523 241.921 293.376ZM240.017 292.8C240.006 292.128 239.766 291.589 239.297 291.184C238.827 290.779 238.246 290.576 237.553 290.576C236.923 290.576 236.385 290.779 235.937 291.184C235.489 291.579 235.222 292.117 235.137 292.8H240.017ZM245.54 290.48C245.849 290.075 246.27 289.733 246.804 289.456C247.337 289.179 247.94 289.04 248.612 289.04C249.38 289.04 250.078 289.232 250.708 289.616C251.348 289.989 251.849 290.517 252.212 291.2C252.574 291.883 252.756 292.667 252.756 293.552C252.756 294.437 252.574 295.232 252.212 295.936C251.849 296.629 251.348 297.173 250.708 297.568C250.078 297.952 249.38 298.144 248.612 298.144C247.94 298.144 247.342 298.011 246.82 297.744C246.297 297.467 245.87 297.125 245.54 296.72V302.192H243.716V289.184H245.54V290.48ZM250.9 293.552C250.9 292.944 250.772 292.421 250.516 291.984C250.27 291.536 249.94 291.2 249.524 290.976C249.118 290.741 248.681 290.624 248.212 290.624C247.753 290.624 247.316 290.741 246.9 290.976C246.494 291.211 246.164 291.552 245.908 292C245.662 292.448 245.54 292.976 245.54 293.584C245.54 294.192 245.662 294.725 245.908 295.184C246.164 295.632 246.494 295.973 246.9 296.208C247.316 296.443 247.753 296.56 248.212 296.56C248.681 296.56 249.118 296.443 249.524 296.208C249.94 295.963 250.27 295.611 250.516 295.152C250.772 294.693 250.9 294.16 250.9 293.552ZM253.951 293.552C253.951 292.667 254.133 291.883 254.495 291.2C254.869 290.517 255.37 289.989 255.999 289.616C256.639 289.232 257.343 289.04 258.111 289.04C258.805 289.04 259.407 289.179 259.919 289.456C260.442 289.723 260.858 290.059 261.167 290.464V289.184H263.007V298H261.167V296.688C260.858 297.104 260.437 297.451 259.903 297.728C259.37 298.005 258.762 298.144 258.079 298.144C257.322 298.144 256.629 297.952 255.999 297.568C255.37 297.173 254.869 296.629 254.495 295.936C254.133 295.232 253.951 294.437 253.951 293.552ZM261.167 293.584C261.167 292.976 261.039 292.448 260.783 292C260.538 291.552 260.213 291.211 259.807 290.976C259.402 290.741 258.965 290.624 258.495 290.624C258.026 290.624 257.589 290.741 257.183 290.976C256.778 291.2 256.447 291.536 256.191 291.984C255.946 292.421 255.823 292.944 255.823 293.552C255.823 294.16 255.946 294.693 256.191 295.152C256.447 295.611 256.778 295.963 257.183 296.208C257.599 296.443 258.037 296.56 258.495 296.56C258.965 296.56 259.402 296.443 259.807 296.208C260.213 295.973 260.538 295.632 260.783 295.184C261.039 294.725 261.167 294.192 261.167 293.584ZM264.795 293.552C264.795 292.667 264.976 291.883 265.339 291.2C265.712 290.517 266.214 289.989 266.843 289.616C267.483 289.232 268.192 289.04 268.971 289.04C269.547 289.04 270.112 289.168 270.667 289.424C271.232 289.669 271.68 290 272.011 290.416V286.16H273.851V298H272.011V296.672C271.712 297.099 271.296 297.451 270.763 297.728C270.24 298.005 269.638 298.144 268.955 298.144C268.187 298.144 267.483 297.952 266.843 297.568C266.214 297.173 265.712 296.629 265.339 295.936C264.976 295.232 264.795 294.437 264.795 293.552ZM272.011 293.584C272.011 292.976 271.883 292.448 271.627 292C271.382 291.552 271.056 291.211 270.651 290.976C270.246 290.741 269.808 290.624 269.339 290.624C268.87 290.624 268.432 290.741 268.027 290.976C267.622 291.2 267.291 291.536 267.035 291.984C266.79 292.421 266.667 292.944 266.667 293.552C266.667 294.16 266.79 294.693 267.035 295.152C267.291 295.611 267.622 295.963 268.027 296.208C268.443 296.443 268.88 296.56 269.339 296.56C269.808 296.56 270.246 296.443 270.651 296.208C271.056 295.973 271.382 295.632 271.627 295.184C271.883 294.725 272.011 294.192 272.011 293.584Z" fill="black"/>
</svg>
