<svg width="480" height="360" viewBox="0 0 480 360" fill="none" xmlns="http://www.w3.org/2000/svg">
<path d="M0 289C0 278.507 8.50659 270 19 270H461C471.493 270 480 278.507 480 289V360H0V289Z" fill="#E6E6E6"/>
<path d="M134.143 331.764V334.212H137.023V335.328H134.143V337.884H137.383V339H132.775V330.648H137.383V331.764H134.143ZM141.9 335.652L144.036 339H142.488L141.06 336.756L139.716 339H138.288L140.424 335.748L138.288 332.388H139.836L141.264 334.632L142.608 332.388H144.036L141.9 335.652ZM146.424 333.36C146.656 333.056 146.972 332.8 147.372 332.592C147.772 332.384 148.224 332.28 148.728 332.28C149.304 332.28 149.828 332.424 150.3 332.712C150.78 332.992 151.156 333.388 151.428 333.9C151.7 334.412 151.836 335 151.836 335.664C151.836 336.328 151.7 336.924 151.428 337.452C151.156 337.972 150.78 338.38 150.3 338.676C149.828 338.964 149.304 339.108 148.728 339.108C148.224 339.108 147.776 339.008 147.384 338.808C146.992 338.6 146.672 338.344 146.424 338.04V342.144H145.056V332.388H146.424V333.36ZM150.444 335.664C150.444 335.208 150.348 334.816 150.156 334.488C149.972 334.152 149.724 333.9 149.412 333.732C149.108 333.556 148.78 333.468 148.428 333.468C148.084 333.468 147.756 333.556 147.444 333.732C147.14 333.908 146.892 334.164 146.7 334.5C146.516 334.836 146.424 335.232 146.424 335.688C146.424 336.144 146.516 336.544 146.7 336.888C146.892 337.224 147.14 337.48 147.444 337.656C147.756 337.832 148.084 337.92 148.428 337.92C148.78 337.92 149.108 337.832 149.412 337.656C149.724 337.472 149.972 337.208 150.156 336.864C150.348 336.52 150.444 336.12 150.444 335.664ZM154.557 330.12V339H153.189V330.12H154.557ZM159.221 339.108C158.597 339.108 158.033 338.968 157.529 338.688C157.025 338.4 156.629 338 156.341 337.488C156.053 336.968 155.909 336.368 155.909 335.688C155.909 335.016 156.057 334.42 156.353 333.9C156.649 333.38 157.053 332.98 157.565 332.7C158.077 332.42 158.649 332.28 159.281 332.28C159.913 332.28 160.485 332.42 160.997 332.7C161.509 332.98 161.913 333.38 162.209 333.9C162.505 334.42 162.653 335.016 162.653 335.688C162.653 336.36 162.501 336.956 162.197 337.476C161.893 337.996 161.477 338.4 160.949 338.688C160.429 338.968 159.853 339.108 159.221 339.108ZM159.221 337.92C159.573 337.92 159.901 337.836 160.205 337.668C160.517 337.5 160.769 337.248 160.961 336.912C161.153 336.576 161.249 336.168 161.249 335.688C161.249 335.208 161.157 334.804 160.973 334.476C160.789 334.14 160.545 333.888 160.241 333.72C159.937 333.552 159.609 333.468 159.257 333.468C158.905 333.468 158.577 333.552 158.273 333.72C157.977 333.888 157.741 334.14 157.565 334.476C157.389 334.804 157.301 335.208 157.301 335.688C157.301 336.4 157.481 336.952 157.841 337.344C158.209 337.728 158.669 337.92 159.221 337.92ZM166.405 339.108C165.885 339.108 165.417 339.016 165.001 338.832C164.593 338.64 164.269 338.384 164.029 338.064C163.789 337.736 163.661 337.372 163.645 336.972H165.061C165.085 337.252 165.217 337.488 165.457 337.68C165.705 337.864 166.013 337.956 166.381 337.956C166.765 337.956 167.061 337.884 167.269 337.74C167.485 337.588 167.593 337.396 167.593 337.164C167.593 336.916 167.473 336.732 167.233 336.612C167.001 336.492 166.629 336.36 166.117 336.216C165.621 336.08 165.217 335.948 164.905 335.82C164.593 335.692 164.321 335.496 164.089 335.232C163.865 334.968 163.753 334.62 163.753 334.188C163.753 333.836 163.857 333.516 164.065 333.228C164.273 332.932 164.569 332.7 164.953 332.532C165.345 332.364 165.793 332.28 166.297 332.28C167.049 332.28 167.653 332.472 168.109 332.856C168.573 333.232 168.821 333.748 168.853 334.404H167.485C167.461 334.108 167.341 333.872 167.125 333.696C166.909 333.52 166.617 333.432 166.249 333.432C165.889 333.432 165.613 333.5 165.421 333.636C165.229 333.772 165.133 333.952 165.133 334.176C165.133 334.352 165.197 334.5 165.325 334.62C165.453 334.74 165.609 334.836 165.793 334.908C165.977 334.972 166.249 335.056 166.609 335.16C167.089 335.288 167.481 335.42 167.785 335.556C168.097 335.684 168.365 335.876 168.589 336.132C168.813 336.388 168.929 336.728 168.937 337.152C168.937 337.528 168.833 337.864 168.625 338.16C168.417 338.456 168.121 338.688 167.737 338.856C167.361 339.024 166.917 339.108 166.405 339.108ZM171.112 331.512C170.864 331.512 170.656 331.428 170.488 331.26C170.32 331.092 170.236 330.884 170.236 330.636C170.236 330.388 170.32 330.18 170.488 330.012C170.656 329.844 170.864 329.76 171.112 329.76C171.352 329.76 171.556 329.844 171.724 330.012C171.892 330.18 171.976 330.388 171.976 330.636C171.976 330.884 171.892 331.092 171.724 331.26C171.556 331.428 171.352 331.512 171.112 331.512ZM171.784 332.388V339H170.416V332.388H171.784ZM176.448 339.108C175.824 339.108 175.26 338.968 174.756 338.688C174.252 338.4 173.856 338 173.568 337.488C173.28 336.968 173.136 336.368 173.136 335.688C173.136 335.016 173.284 334.42 173.58 333.9C173.876 333.38 174.28 332.98 174.792 332.7C175.304 332.42 175.876 332.28 176.508 332.28C177.14 332.28 177.712 332.42 178.224 332.7C178.736 332.98 179.14 333.38 179.436 333.9C179.732 334.42 179.88 335.016 179.88 335.688C179.88 336.36 179.728 336.956 179.424 337.476C179.12 337.996 178.704 338.4 178.176 338.688C177.656 338.968 177.08 339.108 176.448 339.108ZM176.448 337.92C176.8 337.92 177.128 337.836 177.432 337.668C177.744 337.5 177.996 337.248 178.188 336.912C178.38 336.576 178.476 336.168 178.476 335.688C178.476 335.208 178.384 334.804 178.2 334.476C178.016 334.14 177.772 333.888 177.468 333.72C177.164 333.552 176.836 333.468 176.484 333.468C176.132 333.468 175.804 333.552 175.5 333.72C175.204 333.888 174.968 334.14 174.792 334.476C174.616 334.804 174.528 335.208 174.528 335.688C174.528 336.4 174.708 336.952 175.068 337.344C175.436 337.728 175.896 337.92 176.448 337.92ZM184.568 332.28C185.088 332.28 185.552 332.388 185.96 332.604C186.376 332.82 186.7 333.14 186.932 333.564C187.164 333.988 187.28 334.5 187.28 335.1V339H185.924V335.304C185.924 334.712 185.776 334.26 185.48 333.948C185.184 333.628 184.78 333.468 184.268 333.468C183.756 333.468 183.348 333.628 183.044 333.948C182.748 334.26 182.6 334.712 182.6 335.304V339H181.232V332.388H182.6V333.144C182.824 332.872 183.108 332.66 183.452 332.508C183.804 332.356 184.176 332.28 184.568 332.28Z" fill="black"/>
<path d="M231.896 339L229.976 335.664H228.932V339H227.564V330.66H230.444C231.084 330.66 231.624 330.772 232.064 330.996C232.512 331.22 232.844 331.52 233.06 331.896C233.284 332.272 233.396 332.692 233.396 333.156C233.396 333.7 233.236 334.196 232.916 334.644C232.604 335.084 232.12 335.384 231.464 335.544L233.528 339H231.896ZM228.932 334.572H230.444C230.956 334.572 231.34 334.444 231.596 334.188C231.86 333.932 231.992 333.588 231.992 333.156C231.992 332.724 231.864 332.388 231.608 332.148C231.352 331.9 230.964 331.776 230.444 331.776H228.932V334.572ZM234.69 335.664C234.69 335 234.826 334.412 235.098 333.9C235.378 333.388 235.754 332.992 236.226 332.712C236.706 332.424 237.234 332.28 237.81 332.28C238.33 332.28 238.782 332.384 239.166 332.592C239.558 332.792 239.87 333.044 240.102 333.348V332.388H241.482V339H240.102V338.016C239.87 338.328 239.554 338.588 239.154 338.796C238.754 339.004 238.298 339.108 237.786 339.108C237.218 339.108 236.698 338.964 236.226 338.676C235.754 338.38 235.378 337.972 235.098 337.452C234.826 336.924 234.69 336.328 234.69 335.664ZM240.102 335.688C240.102 335.232 240.006 334.836 239.814 334.5C239.63 334.164 239.386 333.908 239.082 333.732C238.778 333.556 238.45 333.468 238.098 333.468C237.746 333.468 237.418 333.556 237.114 333.732C236.81 333.9 236.562 334.152 236.37 334.488C236.186 334.816 236.094 335.208 236.094 335.664C236.094 336.12 236.186 336.52 236.37 336.864C236.562 337.208 236.81 337.472 237.114 337.656C237.426 337.832 237.754 337.92 238.098 337.92C238.45 337.92 238.778 337.832 239.082 337.656C239.386 337.48 239.63 337.224 239.814 336.888C240.006 336.544 240.102 336.144 240.102 335.688ZM243.975 331.512C243.727 331.512 243.519 331.428 243.351 331.26C243.183 331.092 243.099 330.884 243.099 330.636C243.099 330.388 243.183 330.18 243.351 330.012C243.519 329.844 243.727 329.76 243.975 329.76C244.215 329.76 244.419 329.844 244.587 330.012C244.755 330.18 244.839 330.388 244.839 330.636C244.839 330.884 244.755 331.092 244.587 331.26C244.419 331.428 244.215 331.512 243.975 331.512ZM244.647 332.388V339H243.279V332.388H244.647ZM249.779 332.28C250.299 332.28 250.763 332.388 251.171 332.604C251.587 332.82 251.911 333.14 252.143 333.564C252.375 333.988 252.491 334.5 252.491 335.1V339H251.135V335.304C251.135 334.712 250.987 334.26 250.691 333.948C250.395 333.628 249.991 333.468 249.479 333.468C248.967 333.468 248.559 333.628 248.255 333.948C247.959 334.26 247.811 334.712 247.811 335.304V339H246.443V332.388H247.811V333.144C248.035 332.872 248.319 332.66 248.663 332.508C249.015 332.356 249.387 332.28 249.779 332.28Z" fill="black"/>
<path d="M312.002 339H310.634L306.518 332.772V339H305.15V330.648H306.518L310.634 336.864V330.648H312.002V339ZM316.666 339.108C316.042 339.108 315.478 338.968 314.974 338.688C314.47 338.4 314.074 338 313.786 337.488C313.498 336.968 313.354 336.368 313.354 335.688C313.354 335.016 313.502 334.42 313.798 333.9C314.094 333.38 314.498 332.98 315.01 332.7C315.522 332.42 316.094 332.28 316.726 332.28C317.358 332.28 317.93 332.42 318.442 332.7C318.954 332.98 319.358 333.38 319.654 333.9C319.95 334.42 320.098 335.016 320.098 335.688C320.098 336.36 319.946 336.956 319.642 337.476C319.338 337.996 318.922 338.4 318.394 338.688C317.874 338.968 317.298 339.108 316.666 339.108ZM316.666 337.92C317.018 337.92 317.346 337.836 317.65 337.668C317.962 337.5 318.214 337.248 318.406 336.912C318.598 336.576 318.694 336.168 318.694 335.688C318.694 335.208 318.602 334.804 318.418 334.476C318.234 334.14 317.99 333.888 317.686 333.72C317.382 333.552 317.054 333.468 316.702 333.468C316.35 333.468 316.022 333.552 315.718 333.72C315.422 333.888 315.186 334.14 315.01 334.476C314.834 334.804 314.746 335.208 314.746 335.688C314.746 336.4 314.926 336.952 315.286 337.344C315.654 337.728 316.114 337.92 316.666 337.92ZM324.787 332.28C325.307 332.28 325.771 332.388 326.179 332.604C326.595 332.82 326.919 333.14 327.151 333.564C327.383 333.988 327.499 334.5 327.499 335.1V339H326.143V335.304C326.143 334.712 325.995 334.26 325.699 333.948C325.403 333.628 324.999 333.468 324.487 333.468C323.975 333.468 323.567 333.628 323.263 333.948C322.967 334.26 322.819 334.712 322.819 335.304V339H321.451V332.388H322.819V333.144C323.043 332.872 323.327 332.66 323.671 332.508C324.023 332.356 324.395 332.28 324.787 332.28ZM335.304 335.532C335.304 335.78 335.288 336.004 335.256 336.204H330.204C330.244 336.732 330.44 337.156 330.792 337.476C331.144 337.796 331.576 337.956 332.088 337.956C332.824 337.956 333.344 337.648 333.648 337.032H335.124C334.924 337.64 334.56 338.14 334.032 338.532C333.512 338.916 332.864 339.108 332.088 339.108C331.456 339.108 330.888 338.968 330.384 338.688C329.888 338.4 329.496 338 329.208 337.488C328.928 336.968 328.788 336.368 328.788 335.688C328.788 335.008 328.924 334.412 329.196 333.9C329.476 333.38 329.864 332.98 330.36 332.7C330.864 332.42 331.44 332.28 332.088 332.28C332.712 332.28 333.268 332.416 333.756 332.688C334.244 332.96 334.624 333.344 334.896 333.84C335.168 334.328 335.304 334.892 335.304 335.532ZM333.876 335.1C333.868 334.596 333.688 334.192 333.336 333.888C332.984 333.584 332.548 333.432 332.028 333.432C331.556 333.432 331.152 333.584 330.816 333.888C330.48 334.184 330.28 334.588 330.216 335.1H333.876Z" fill="black"/>
<path d="M20.4781 333.144C20.4781 333.568 20.3781 333.968 20.1781 334.344C19.9781 334.72 19.6581 335.028 19.2181 335.268C18.7781 335.5 18.2141 335.616 17.5261 335.616H16.0141V339H14.6461V330.66H17.5261C18.1661 330.66 18.7061 330.772 19.1461 330.996C19.5941 331.212 19.9261 331.508 20.1421 331.884C20.3661 332.26 20.4781 332.68 20.4781 333.144ZM17.5261 334.5C18.0461 334.5 18.4341 334.384 18.6901 334.152C18.9461 333.912 19.0741 333.576 19.0741 333.144C19.0741 332.232 18.5581 331.776 17.5261 331.776H16.0141V334.5H17.5261ZM21.3268 335.664C21.3268 335 21.4628 334.412 21.7348 333.9C22.0148 333.388 22.3908 332.992 22.8628 332.712C23.3428 332.424 23.8708 332.28 24.4468 332.28C24.9668 332.28 25.4188 332.384 25.8028 332.592C26.1948 332.792 26.5068 333.044 26.7388 333.348V332.388H28.1188V339H26.7388V338.016C26.5068 338.328 26.1908 338.588 25.7908 338.796C25.3908 339.004 24.9348 339.108 24.4228 339.108C23.8548 339.108 23.3348 338.964 22.8628 338.676C22.3908 338.38 22.0148 337.972 21.7348 337.452C21.4628 336.924 21.3268 336.328 21.3268 335.664ZM26.7388 335.688C26.7388 335.232 26.6428 334.836 26.4508 334.5C26.2668 334.164 26.0228 333.908 25.7188 333.732C25.4148 333.556 25.0868 333.468 24.7348 333.468C24.3828 333.468 24.0548 333.556 23.7508 333.732C23.4468 333.9 23.1988 334.152 23.0068 334.488C22.8228 334.816 22.7308 335.208 22.7308 335.664C22.7308 336.12 22.8228 336.52 23.0068 336.864C23.1988 337.208 23.4468 337.472 23.7508 337.656C24.0628 337.832 24.3908 337.92 24.7348 337.92C25.0868 337.92 25.4148 337.832 25.7188 337.656C26.0228 337.48 26.2668 337.224 26.4508 336.888C26.6428 336.544 26.7388 336.144 26.7388 335.688ZM31.2836 333.348C31.4836 333.012 31.7476 332.752 32.0756 332.568C32.4116 332.376 32.8076 332.28 33.2636 332.28V333.696H32.9156C32.3796 333.696 31.9716 333.832 31.6916 334.104C31.4196 334.376 31.2836 334.848 31.2836 335.52V339H29.9156V332.388H31.2836V333.348ZM36.1171 333.504V337.164C36.1171 337.412 36.1731 337.592 36.2851 337.704C36.4051 337.808 36.6051 337.86 36.8851 337.86H37.7251V339H36.6451C36.0291 339 35.5571 338.856 35.2291 338.568C34.9011 338.28 34.7371 337.812 34.7371 337.164V333.504H33.9571V332.388H34.7371V330.744H36.1171V332.388H37.7251V333.504H36.1171ZM39.6819 331.512C39.4339 331.512 39.2259 331.428 39.0579 331.26C38.8899 331.092 38.8059 330.884 38.8059 330.636C38.8059 330.388 38.8899 330.18 39.0579 330.012C39.2259 329.844 39.4339 329.76 39.6819 329.76C39.9219 329.76 40.1259 329.844 40.2939 330.012C40.4619 330.18 40.5459 330.388 40.5459 330.636C40.5459 330.884 40.4619 331.092 40.2939 331.26C40.1259 331.428 39.9219 331.512 39.6819 331.512ZM40.3539 332.388V339H38.9859V332.388H40.3539ZM41.694 335.688C41.694 335.008 41.83 334.412 42.102 333.9C42.382 333.38 42.766 332.98 43.254 332.7C43.742 332.42 44.302 332.28 44.934 332.28C45.734 332.28 46.394 332.472 46.914 332.856C47.442 333.232 47.798 333.772 47.982 334.476H46.506C46.386 334.148 46.194 333.892 45.93 333.708C45.666 333.524 45.334 333.432 44.934 333.432C44.374 333.432 43.926 333.632 43.59 334.032C43.262 334.424 43.098 334.976 43.098 335.688C43.098 336.4 43.262 336.956 43.59 337.356C43.926 337.756 44.374 337.956 44.934 337.956C45.726 337.956 46.25 337.608 46.506 336.912H47.982C47.79 337.584 47.43 338.12 46.902 338.52C46.374 338.912 45.718 339.108 44.934 339.108C44.302 339.108 43.742 338.968 43.254 338.688C42.766 338.4 42.382 338 42.102 337.488C41.83 336.968 41.694 336.368 41.694 335.688ZM50.7133 330.12V339H49.3453V330.12H50.7133ZM58.5694 335.532C58.5694 335.78 58.5534 336.004 58.5214 336.204H53.4694C53.5094 336.732 53.7054 337.156 54.0574 337.476C54.4094 337.796 54.8414 337.956 55.3534 337.956C56.0894 337.956 56.6094 337.648 56.9134 337.032H58.3894C58.1894 337.64 57.8254 338.14 57.2974 338.532C56.7774 338.916 56.1294 339.108 55.3534 339.108C54.7214 339.108 54.1534 338.968 53.6494 338.688C53.1534 338.4 52.7614 338 52.4734 337.488C52.1934 336.968 52.0534 336.368 52.0534 335.688C52.0534 335.008 52.1894 334.412 52.4614 333.9C52.7414 333.38 53.1294 332.98 53.6254 332.7C54.1294 332.42 54.7054 332.28 55.3534 332.28C55.9774 332.28 56.5334 332.416 57.0214 332.688C57.5094 332.96 57.8894 333.344 58.1614 333.84C58.4334 334.328 58.5694 334.892 58.5694 335.532ZM57.1414 335.1C57.1334 334.596 56.9534 334.192 56.6014 333.888C56.2494 333.584 55.8134 333.432 55.2934 333.432C54.8214 333.432 54.4174 333.584 54.0814 333.888C53.7454 334.184 53.5454 334.588 53.4814 335.1H57.1414ZM62.5768 335.664C62.5768 335 62.7128 334.412 62.9848 333.9C63.2648 333.388 63.6408 332.992 64.1128 332.712C64.5928 332.424 65.1248 332.28 65.7088 332.28C66.1408 332.28 66.5648 332.376 66.9808 332.568C67.4048 332.752 67.7408 333 67.9888 333.312V330.12H69.3688V339H67.9888V338.004C67.7648 338.324 67.4528 338.588 67.0528 338.796C66.6608 339.004 66.2088 339.108 65.6968 339.108C65.1208 339.108 64.5928 338.964 64.1128 338.676C63.6408 338.38 63.2648 337.972 62.9848 337.452C62.7128 336.924 62.5768 336.328 62.5768 335.664ZM67.9888 335.688C67.9888 335.232 67.8928 334.836 67.7008 334.5C67.5168 334.164 67.2728 333.908 66.9688 333.732C66.6648 333.556 66.3368 333.468 65.9848 333.468C65.6328 333.468 65.3048 333.556 65.0008 333.732C64.6968 333.9 64.4488 334.152 64.2568 334.488C64.0728 334.816 63.9808 335.208 63.9808 335.664C63.9808 336.12 64.0728 336.52 64.2568 336.864C64.4488 337.208 64.6968 337.472 65.0008 337.656C65.3128 337.832 65.6408 337.92 65.9848 337.92C66.3368 337.92 66.6648 337.832 66.9688 337.656C67.2728 337.48 67.5168 337.224 67.7008 336.888C67.8928 336.544 67.9888 336.144 67.9888 335.688ZM71.8616 331.512C71.6136 331.512 71.4056 331.428 71.2376 331.26C71.0696 331.092 70.9856 330.884 70.9856 330.636C70.9856 330.388 71.0696 330.18 71.2376 330.012C71.4056 329.844 71.6136 329.76 71.8616 329.76C72.1016 329.76 72.3056 329.844 72.4736 330.012C72.6416 330.18 72.7256 330.388 72.7256 330.636C72.7256 330.884 72.6416 331.092 72.4736 331.26C72.3056 331.428 72.1016 331.512 71.8616 331.512ZM72.5336 332.388V339H71.1656V332.388H72.5336ZM76.7297 339.108C76.2097 339.108 75.7417 339.016 75.3257 338.832C74.9177 338.64 74.5937 338.384 74.3537 338.064C74.1137 337.736 73.9857 337.372 73.9697 336.972H75.3857C75.4097 337.252 75.5417 337.488 75.7817 337.68C76.0297 337.864 76.3377 337.956 76.7057 337.956C77.0897 337.956 77.3857 337.884 77.5937 337.74C77.8097 337.588 77.9177 337.396 77.9177 337.164C77.9177 336.916 77.7977 336.732 77.5577 336.612C77.3257 336.492 76.9537 336.36 76.4417 336.216C75.9457 336.08 75.5417 335.948 75.2297 335.82C74.9177 335.692 74.6457 335.496 74.4137 335.232C74.1897 334.968 74.0777 334.62 74.0777 334.188C74.0777 333.836 74.1817 333.516 74.3897 333.228C74.5977 332.932 74.8937 332.7 75.2777 332.532C75.6697 332.364 76.1177 332.28 76.6217 332.28C77.3737 332.28 77.9777 332.472 78.4337 332.856C78.8977 333.232 79.1457 333.748 79.1777 334.404H77.8097C77.7857 334.108 77.6657 333.872 77.4497 333.696C77.2337 333.52 76.9417 333.432 76.5737 333.432C76.2137 333.432 75.9377 333.5 75.7457 333.636C75.5537 333.772 75.4577 333.952 75.4577 334.176C75.4577 334.352 75.5217 334.5 75.6497 334.62C75.7777 334.74 75.9337 334.836 76.1177 334.908C76.3017 334.972 76.5737 335.056 76.9337 335.16C77.4137 335.288 77.8057 335.42 78.1097 335.556C78.4217 335.684 78.6897 335.876 78.9137 336.132C79.1377 336.388 79.2537 336.728 79.2617 337.152C79.2617 337.528 79.1577 337.864 78.9497 338.16C78.7417 338.456 78.4457 338.688 78.0617 338.856C77.6857 339.024 77.2417 339.108 76.7297 339.108ZM82.1078 333.36C82.3398 333.056 82.6558 332.8 83.0558 332.592C83.4558 332.384 83.9078 332.28 84.4118 332.28C84.9878 332.28 85.5118 332.424 85.9838 332.712C86.4638 332.992 86.8398 333.388 87.1118 333.9C87.3838 334.412 87.5198 335 87.5198 335.664C87.5198 336.328 87.3838 336.924 87.1118 337.452C86.8398 337.972 86.4638 338.38 85.9838 338.676C85.5118 338.964 84.9878 339.108 84.4118 339.108C83.9078 339.108 83.4598 339.008 83.0678 338.808C82.6758 338.6 82.3558 338.344 82.1078 338.04V342.144H80.7398V332.388H82.1078V333.36ZM86.1278 335.664C86.1278 335.208 86.0318 334.816 85.8398 334.488C85.6558 334.152 85.4078 333.9 85.0958 333.732C84.7918 333.556 84.4638 333.468 84.1118 333.468C83.7678 333.468 83.4398 333.556 83.1278 333.732C82.8238 333.908 82.5758 334.164 82.3838 334.5C82.1998 334.836 82.1078 335.232 82.1078 335.688C82.1078 336.144 82.1998 336.544 82.3838 336.888C82.5758 337.224 82.8238 337.48 83.1278 337.656C83.4398 337.832 83.7678 337.92 84.1118 337.92C84.4638 337.92 84.7918 337.832 85.0958 337.656C85.4078 337.472 85.6558 337.208 85.8398 336.864C86.0318 336.52 86.1278 336.12 86.1278 335.664ZM90.2407 330.12V339H88.8727V330.12H90.2407ZM91.5807 335.664C91.5807 335 91.7167 334.412 91.9887 333.9C92.2687 333.388 92.6447 332.992 93.1167 332.712C93.5967 332.424 94.1247 332.28 94.7007 332.28C95.2207 332.28 95.6727 332.384 96.0567 332.592C96.4487 332.792 96.7607 333.044 96.9927 333.348V332.388H98.3727V339H96.9927V338.016C96.7607 338.328 96.4447 338.588 96.0447 338.796C95.6447 339.004 95.1887 339.108 94.6767 339.108C94.1087 339.108 93.5887 338.964 93.1167 338.676C92.6447 338.38 92.2687 337.972 91.9887 337.452C91.7167 336.924 91.5807 336.328 91.5807 335.664ZM96.9927 335.688C96.9927 335.232 96.8967 334.836 96.7047 334.5C96.5207 334.164 96.2767 333.908 95.9727 333.732C95.6687 333.556 95.3407 333.468 94.9887 333.468C94.6367 333.468 94.3087 333.556 94.0047 333.732C93.7007 333.9 93.4527 334.152 93.2607 334.488C93.0767 334.816 92.9847 335.208 92.9847 335.664C92.9847 336.12 93.0767 336.52 93.2607 336.864C93.4527 337.208 93.7007 337.472 94.0047 337.656C94.3167 337.832 94.6447 337.92 94.9887 337.92C95.3407 337.92 95.6687 337.832 95.9727 337.656C96.2767 337.48 96.5207 337.224 96.7047 336.888C96.8967 336.544 96.9927 336.144 96.9927 335.688ZM106.122 332.388L102.066 342.108H100.65L101.994 338.892L99.3895 332.388H100.914L102.774 337.428L104.706 332.388H106.122Z" fill="black"/>
<path d="M144.307 297.296H140.815L140.215 299H138.787L141.775 290.648H143.359L146.347 299H144.907L144.307 297.296ZM143.923 296.18L142.567 292.304L141.199 296.18H143.923ZM150.982 292.28C151.502 292.28 151.966 292.388 152.374 292.604C152.79 292.82 153.114 293.14 153.346 293.564C153.578 293.988 153.694 294.5 153.694 295.1V299H152.338V295.304C152.338 294.712 152.19 294.26 151.894 293.948C151.598 293.628 151.194 293.468 150.682 293.468C150.17 293.468 149.762 293.628 149.458 293.948C149.162 294.26 149.014 294.712 149.014 295.304V299H147.646V292.388H149.014V293.144C149.238 292.872 149.522 292.66 149.866 292.508C150.218 292.356 150.59 292.28 150.982 292.28ZM154.983 295.664C154.983 295 155.119 294.412 155.391 293.9C155.671 293.388 156.047 292.992 156.519 292.712C156.999 292.424 157.527 292.28 158.103 292.28C158.623 292.28 159.075 292.384 159.459 292.592C159.851 292.792 160.163 293.044 160.395 293.348V292.388H161.775V299H160.395V298.016C160.163 298.328 159.847 298.588 159.447 298.796C159.047 299.004 158.591 299.108 158.079 299.108C157.511 299.108 156.991 298.964 156.519 298.676C156.047 298.38 155.671 297.972 155.391 297.452C155.119 296.924 154.983 296.328 154.983 295.664ZM160.395 295.688C160.395 295.232 160.299 294.836 160.107 294.5C159.923 294.164 159.679 293.908 159.375 293.732C159.071 293.556 158.743 293.468 158.391 293.468C158.039 293.468 157.711 293.556 157.407 293.732C157.103 293.9 156.855 294.152 156.663 294.488C156.479 294.816 156.387 295.208 156.387 295.664C156.387 296.12 156.479 296.52 156.663 296.864C156.855 297.208 157.103 297.472 157.407 297.656C157.719 297.832 158.047 297.92 158.391 297.92C158.743 297.92 159.071 297.832 159.375 297.656C159.679 297.48 159.923 297.224 160.107 296.888C160.299 296.544 160.395 296.144 160.395 295.688ZM164.94 290.12V299H163.572V290.12H164.94ZM169.604 299.108C168.98 299.108 168.416 298.968 167.912 298.688C167.408 298.4 167.012 298 166.724 297.488C166.436 296.968 166.292 296.368 166.292 295.688C166.292 295.016 166.44 294.42 166.736 293.9C167.032 293.38 167.436 292.98 167.948 292.7C168.46 292.42 169.032 292.28 169.664 292.28C170.296 292.28 170.868 292.42 171.38 292.7C171.892 292.98 172.296 293.38 172.592 293.9C172.888 294.42 173.036 295.016 173.036 295.688C173.036 296.36 172.884 296.956 172.58 297.476C172.276 297.996 171.86 298.4 171.332 298.688C170.812 298.968 170.236 299.108 169.604 299.108ZM169.604 297.92C169.956 297.92 170.284 297.836 170.588 297.668C170.9 297.5 171.152 297.248 171.344 296.912C171.536 296.576 171.632 296.168 171.632 295.688C171.632 295.208 171.54 294.804 171.356 294.476C171.172 294.14 170.928 293.888 170.624 293.72C170.32 293.552 169.992 293.468 169.64 293.468C169.288 293.468 168.96 293.552 168.656 293.72C168.36 293.888 168.124 294.14 167.948 294.476C167.772 294.804 167.684 295.208 167.684 295.688C167.684 296.4 167.864 296.952 168.224 297.344C168.592 297.728 169.052 297.92 169.604 297.92ZM177.052 292.28C177.564 292.28 178.016 292.384 178.408 292.592C178.808 292.792 179.12 293.044 179.344 293.348V292.388H180.724V299.108C180.724 299.716 180.596 300.256 180.34 300.728C180.084 301.208 179.712 301.584 179.224 301.856C178.744 302.128 178.168 302.264 177.496 302.264C176.6 302.264 175.856 302.052 175.264 301.628C174.672 301.212 174.336 300.644 174.256 299.924H175.612C175.716 300.268 175.936 300.544 176.272 300.752C176.616 300.968 177.024 301.076 177.496 301.076C178.048 301.076 178.492 300.908 178.828 300.572C179.172 300.236 179.344 299.748 179.344 299.108V298.004C179.112 298.316 178.796 298.58 178.396 298.796C178.004 299.004 177.556 299.108 177.052 299.108C176.476 299.108 175.948 298.964 175.468 298.676C174.996 298.38 174.62 297.972 174.34 297.452C174.068 296.924 173.932 296.328 173.932 295.664C173.932 295 174.068 294.412 174.34 293.9C174.62 293.388 174.996 292.992 175.468 292.712C175.948 292.424 176.476 292.28 177.052 292.28ZM179.344 295.688C179.344 295.232 179.248 294.836 179.056 294.5C178.872 294.164 178.628 293.908 178.324 293.732C178.02 293.556 177.692 293.468 177.34 293.468C176.988 293.468 176.66 293.556 176.356 293.732C176.052 293.9 175.804 294.152 175.612 294.488C175.428 294.816 175.336 295.208 175.336 295.664C175.336 296.12 175.428 296.52 175.612 296.864C175.804 297.208 176.052 297.472 176.356 297.656C176.668 297.832 176.996 297.92 177.34 297.92C177.692 297.92 178.02 297.832 178.324 297.656C178.628 297.48 178.872 297.224 179.056 296.888C179.248 296.544 179.344 296.144 179.344 295.688Z" fill="black"/>
<path d="M224.259 290.66C225.147 290.66 225.923 290.832 226.587 291.176C227.259 291.512 227.775 292 228.135 292.64C228.503 293.272 228.687 294.012 228.687 294.86C228.687 295.708 228.503 296.444 228.135 297.068C227.775 297.692 227.259 298.172 226.587 298.508C225.923 298.836 225.147 299 224.259 299H221.535V290.66H224.259ZM224.259 297.884C225.235 297.884 225.983 297.62 226.503 297.092C227.023 296.564 227.283 295.82 227.283 294.86C227.283 293.892 227.023 293.136 226.503 292.592C225.983 292.048 225.235 291.776 224.259 291.776H222.903V297.884H224.259ZM230.739 291.512C230.491 291.512 230.283 291.428 230.115 291.26C229.947 291.092 229.863 290.884 229.863 290.636C229.863 290.388 229.947 290.18 230.115 290.012C230.283 289.844 230.491 289.76 230.739 289.76C230.979 289.76 231.183 289.844 231.351 290.012C231.519 290.18 231.603 290.388 231.603 290.636C231.603 290.884 231.519 291.092 231.351 291.26C231.183 291.428 230.979 291.512 230.739 291.512ZM231.411 292.388V299H230.043V292.388H231.411ZM235.871 292.28C236.383 292.28 236.835 292.384 237.227 292.592C237.627 292.792 237.939 293.044 238.163 293.348V292.388H239.543V299.108C239.543 299.716 239.415 300.256 239.159 300.728C238.903 301.208 238.531 301.584 238.043 301.856C237.563 302.128 236.987 302.264 236.315 302.264C235.419 302.264 234.675 302.052 234.083 301.628C233.491 301.212 233.155 300.644 233.075 299.924H234.431C234.535 300.268 234.755 300.544 235.091 300.752C235.435 300.968 235.843 301.076 236.315 301.076C236.867 301.076 237.311 300.908 237.647 300.572C237.991 300.236 238.163 299.748 238.163 299.108V298.004C237.931 298.316 237.615 298.58 237.215 298.796C236.823 299.004 236.375 299.108 235.871 299.108C235.295 299.108 234.767 298.964 234.287 298.676C233.815 298.38 233.439 297.972 233.159 297.452C232.887 296.924 232.751 296.328 232.751 295.664C232.751 295 232.887 294.412 233.159 293.9C233.439 293.388 233.815 292.992 234.287 292.712C234.767 292.424 235.295 292.28 235.871 292.28ZM238.163 295.688C238.163 295.232 238.067 294.836 237.875 294.5C237.691 294.164 237.447 293.908 237.143 293.732C236.839 293.556 236.511 293.468 236.159 293.468C235.807 293.468 235.479 293.556 235.175 293.732C234.871 293.9 234.623 294.152 234.431 294.488C234.247 294.816 234.155 295.208 234.155 295.664C234.155 296.12 234.247 296.52 234.431 296.864C234.623 297.208 234.871 297.472 235.175 297.656C235.487 297.832 235.815 297.92 236.159 297.92C236.511 297.92 236.839 297.832 237.143 297.656C237.447 297.48 237.691 297.224 237.875 296.888C238.067 296.544 238.163 296.144 238.163 295.688ZM242.035 291.512C241.787 291.512 241.579 291.428 241.411 291.26C241.243 291.092 241.159 290.884 241.159 290.636C241.159 290.388 241.243 290.18 241.411 290.012C241.579 289.844 241.787 289.76 242.035 289.76C242.275 289.76 242.479 289.844 242.647 290.012C242.815 290.18 242.899 290.388 242.899 290.636C242.899 290.884 242.815 291.092 242.647 291.26C242.479 291.428 242.275 291.512 242.035 291.512ZM242.707 292.388V299H241.339V292.388H242.707ZM246.1 293.504V297.164C246.1 297.412 246.156 297.592 246.268 297.704C246.388 297.808 246.588 297.86 246.868 297.86H247.708V299H246.628C246.012 299 245.54 298.856 245.212 298.568C244.884 298.28 244.72 297.812 244.72 297.164V293.504H243.94V292.388H244.72V290.744H246.1V292.388H247.708V293.504H246.1ZM248.512 295.664C248.512 295 248.648 294.412 248.92 293.9C249.2 293.388 249.576 292.992 250.048 292.712C250.528 292.424 251.056 292.28 251.632 292.28C252.152 292.28 252.604 292.384 252.988 292.592C253.38 292.792 253.692 293.044 253.924 293.348V292.388H255.304V299H253.924V298.016C253.692 298.328 253.376 298.588 252.976 298.796C252.576 299.004 252.12 299.108 251.608 299.108C251.04 299.108 250.52 298.964 250.048 298.676C249.576 298.38 249.2 297.972 248.92 297.452C248.648 296.924 248.512 296.328 248.512 295.664ZM253.924 295.688C253.924 295.232 253.828 294.836 253.636 294.5C253.452 294.164 253.208 293.908 252.904 293.732C252.6 293.556 252.272 293.468 251.92 293.468C251.568 293.468 251.24 293.556 250.936 293.732C250.632 293.9 250.384 294.152 250.192 294.488C250.008 294.816 249.916 295.208 249.916 295.664C249.916 296.12 250.008 296.52 250.192 296.864C250.384 297.208 250.632 297.472 250.936 297.656C251.248 297.832 251.576 297.92 251.92 297.92C252.272 297.92 252.6 297.832 252.904 297.656C253.208 297.48 253.452 297.224 253.636 296.888C253.828 296.544 253.924 296.144 253.924 295.688ZM258.469 290.12V299H257.101V290.12H258.469Z" fill="black"/>
<path d="M28.4225 294.812C28.4225 293.996 28.6105 293.264 28.9865 292.616C29.3705 291.968 29.8865 291.464 30.5345 291.104C31.1905 290.736 31.9065 290.552 32.6825 290.552C33.5705 290.552 34.3585 290.772 35.0465 291.212C35.7425 291.644 36.2465 292.26 36.5585 293.06H34.9145C34.6985 292.62 34.3985 292.292 34.0145 292.076C33.6305 291.86 33.1865 291.752 32.6825 291.752C32.1305 291.752 31.6385 291.876 31.2065 292.124C30.7745 292.372 30.4345 292.728 30.1865 293.192C29.9465 293.656 29.8265 294.196 29.8265 294.812C29.8265 295.428 29.9465 295.968 30.1865 296.432C30.4345 296.896 30.7745 297.256 31.2065 297.512C31.6385 297.76 32.1305 297.884 32.6825 297.884C33.1865 297.884 33.6305 297.776 34.0145 297.56C34.3985 297.344 34.6985 297.016 34.9145 296.576H36.5585C36.2465 297.376 35.7425 297.992 35.0465 298.424C34.3585 298.856 33.5705 299.072 32.6825 299.072C31.8985 299.072 31.1825 298.892 30.5345 298.532C29.8865 298.164 29.3705 297.656 28.9865 297.008C28.6105 296.36 28.4225 295.628 28.4225 294.812ZM39.5278 290.12V299H38.1598V290.12H39.5278ZM44.1918 299.108C43.5678 299.108 43.0038 298.968 42.4998 298.688C41.9958 298.4 41.5998 298 41.3118 297.488C41.0238 296.968 40.8798 296.368 40.8798 295.688C40.8798 295.016 41.0278 294.42 41.3238 293.9C41.6198 293.38 42.0238 292.98 42.5358 292.7C43.0478 292.42 43.6198 292.28 44.2518 292.28C44.8838 292.28 45.4558 292.42 45.9678 292.7C46.4798 292.98 46.8838 293.38 47.1798 293.9C47.4758 294.42 47.6238 295.016 47.6238 295.688C47.6238 296.36 47.4718 296.956 47.1678 297.476C46.8638 297.996 46.4478 298.4 45.9198 298.688C45.3998 298.968 44.8238 299.108 44.1918 299.108ZM44.1918 297.92C44.5438 297.92 44.8718 297.836 45.1758 297.668C45.4878 297.5 45.7398 297.248 45.9318 296.912C46.1238 296.576 46.2198 296.168 46.2198 295.688C46.2198 295.208 46.1278 294.804 45.9438 294.476C45.7598 294.14 45.5158 293.888 45.2118 293.72C44.9078 293.552 44.5798 293.468 44.2278 293.468C43.8758 293.468 43.5478 293.552 43.2438 293.72C42.9478 293.888 42.7118 294.14 42.5358 294.476C42.3598 294.804 42.2718 295.208 42.2718 295.688C42.2718 296.4 42.4518 296.952 42.8118 297.344C43.1798 297.728 43.6398 297.92 44.1918 297.92ZM48.5202 295.688C48.5202 295.008 48.6562 294.412 48.9282 293.9C49.2082 293.38 49.5922 292.98 50.0802 292.7C50.5682 292.42 51.1282 292.28 51.7602 292.28C52.5602 292.28 53.2202 292.472 53.7402 292.856C54.2682 293.232 54.6242 293.772 54.8082 294.476H53.3322C53.2122 294.148 53.0202 293.892 52.7562 293.708C52.4922 293.524 52.1602 293.432 51.7602 293.432C51.2002 293.432 50.7522 293.632 50.4162 294.032C50.0882 294.424 49.9242 294.976 49.9242 295.688C49.9242 296.4 50.0882 296.956 50.4162 297.356C50.7522 297.756 51.2002 297.956 51.7602 297.956C52.5522 297.956 53.0762 297.608 53.3322 296.912H54.8082C54.6162 297.584 54.2562 298.12 53.7282 298.52C53.2002 298.912 52.5442 299.108 51.7602 299.108C51.1282 299.108 50.5682 298.968 50.0802 298.688C49.5922 298.4 49.2082 298 48.9282 297.488C48.6562 296.968 48.5202 296.368 48.5202 295.688ZM58.7875 295.7L61.8355 299H59.9875L57.5395 296.156V299H56.1715V290.12H57.5395V295.28L59.9395 292.388H61.8355L58.7875 295.7ZM67.5292 293.504V297.164C67.5292 297.412 67.5852 297.592 67.6972 297.704C67.8172 297.808 68.0172 297.86 68.2972 297.86H69.1372V299H68.0572C67.4412 299 66.9692 298.856 66.6412 298.568C66.3132 298.28 66.1492 297.812 66.1492 297.164V293.504H65.3692V292.388H66.1492V290.744H67.5292V292.388H69.1372V293.504H67.5292ZM76.35 292.388L72.294 302.108H70.878L72.222 298.892L69.618 292.388H71.142L73.002 297.428L74.934 292.388H76.35ZM78.7504 293.36C78.9824 293.056 79.2984 292.8 79.6984 292.592C80.0984 292.384 80.5504 292.28 81.0544 292.28C81.6304 292.28 82.1544 292.424 82.6264 292.712C83.1064 292.992 83.4824 293.388 83.7544 293.9C84.0264 294.412 84.1624 295 84.1624 295.664C84.1624 296.328 84.0264 296.924 83.7544 297.452C83.4824 297.972 83.1064 298.38 82.6264 298.676C82.1544 298.964 81.6304 299.108 81.0544 299.108C80.5504 299.108 80.1024 299.008 79.7104 298.808C79.3184 298.6 78.9984 298.344 78.7504 298.04V302.144H77.3824V292.388H78.7504V293.36ZM82.7704 295.664C82.7704 295.208 82.6744 294.816 82.4824 294.488C82.2984 294.152 82.0504 293.9 81.7384 293.732C81.4344 293.556 81.1064 293.468 80.7544 293.468C80.4104 293.468 80.0824 293.556 79.7704 293.732C79.4664 293.908 79.2184 294.164 79.0264 294.5C78.8424 294.836 78.7504 295.232 78.7504 295.688C78.7504 296.144 78.8424 296.544 79.0264 296.888C79.2184 297.224 79.4664 297.48 79.7704 297.656C80.0824 297.832 80.4104 297.92 80.7544 297.92C81.1064 297.92 81.4344 297.832 81.7384 297.656C82.0504 297.472 82.2984 297.208 82.4824 296.864C82.6744 296.52 82.7704 296.12 82.7704 295.664ZM91.5752 295.532C91.5752 295.78 91.5592 296.004 91.5272 296.204H86.4752C86.5152 296.732 86.7112 297.156 87.0632 297.476C87.4152 297.796 87.8472 297.956 88.3592 297.956C89.0952 297.956 89.6152 297.648 89.9192 297.032H91.3952C91.1952 297.64 90.8312 298.14 90.3032 298.532C89.7832 298.916 89.1352 299.108 88.3592 299.108C87.7272 299.108 87.1592 298.968 86.6552 298.688C86.1592 298.4 85.7672 298 85.4792 297.488C85.1992 296.968 85.0592 296.368 85.0592 295.688C85.0592 295.008 85.1952 294.412 85.4672 293.9C85.7472 293.38 86.1352 292.98 86.6312 292.7C87.1352 292.42 87.7112 292.28 88.3592 292.28C88.9832 292.28 89.5392 292.416 90.0272 292.688C90.5152 292.96 90.8952 293.344 91.1672 293.84C91.4392 294.328 91.5752 294.892 91.5752 295.532ZM90.1472 295.1C90.1392 294.596 89.9592 294.192 89.6072 293.888C89.2552 293.584 88.8192 293.432 88.2992 293.432C87.8272 293.432 87.4232 293.584 87.0872 293.888C86.7512 294.184 86.5512 294.588 86.4872 295.1H90.1472Z" fill="black"/>
</svg>
