<svg xmlns="http://www.w3.org/2000/svg" fill="none" viewBox="0 0 140 42" height="42" width="140">
<path fill="white" d="M5.808 16.66V17.776H2.268V20.236H5.028V21.352H2.268V25H0.9V16.66H5.808ZM8.44378 16.12V25H7.07578V16.12H8.44378ZM16.2278 18.388V25H14.8598V24.22C14.6438 24.492 14.3598 24.708 14.0078 24.868C13.6638 25.02 13.2958 25.096 12.9038 25.096C12.3838 25.096 11.9158 24.988 11.4998 24.772C11.0918 24.556 10.7678 24.236 10.5278 23.812C10.2958 23.388 10.1798 22.876 10.1798 22.276V18.388H11.5358V22.072C11.5358 22.664 11.6838 23.12 11.9798 23.44C12.2758 23.752 12.6798 23.908 13.1918 23.908C13.7038 23.908 14.1078 23.752 14.4038 23.44C14.7078 23.12 14.8598 22.664 14.8598 22.072V18.388H16.2278ZM19.6288 19.504V23.164C19.6288 23.412 19.6848 23.592 19.7968 23.704C19.9168 23.808 20.1168 23.86 20.3968 23.86H21.2368V25H20.1568C19.5408 25 19.0688 24.856 18.7408 24.568C18.4128 24.28 18.2488 23.812 18.2488 23.164V19.504H17.4688V18.388H18.2488V16.744H19.6288V18.388H21.2368V19.504H19.6288ZM28.5577 21.532C28.5577 21.78 28.5417 22.004 28.5097 22.204H23.4577C23.4977 22.732 23.6937 23.156 24.0457 23.476C24.3977 23.796 24.8297 23.956 25.3417 23.956C26.0777 23.956 26.5977 23.648 26.9017 23.032H28.3777C28.1777 23.64 27.8137 24.14 27.2857 24.532C26.7657 24.916 26.1177 25.108 25.3417 25.108C24.7097 25.108 24.1417 24.968 23.6377 24.688C23.1417 24.4 22.7497 24 22.4617 23.488C22.1817 22.968 22.0417 22.368 22.0417 21.688C22.0417 21.008 22.1777 20.412 22.4497 19.9C22.7297 19.38 23.1177 18.98 23.6137 18.7C24.1177 18.42 24.6937 18.28 25.3417 18.28C25.9657 18.28 26.5217 18.416 27.0097 18.688C27.4977 18.96 27.8777 19.344 28.1497 19.84C28.4217 20.328 28.5577 20.892 28.5577 21.532ZM27.1297 21.1C27.1217 20.596 26.9417 20.192 26.5897 19.888C26.2377 19.584 25.8017 19.432 25.2817 19.432C24.8097 19.432 24.4057 19.584 24.0697 19.888C23.7337 20.184 23.5337 20.588 23.4697 21.1H27.1297Z"></path>
</svg>
