<svg width="480" height="360" viewBox="0 0 480 360" fill="none" xmlns="http://www.w3.org/2000/svg">
<path d="M62.912 19.88V31H61.088V23.384L57.696 31H56.432L53.024 23.384V31H51.2V19.88H53.168L57.072 28.6L60.96 19.88H62.912ZM73.2934 22.184V31H71.4694V29.96C71.1814 30.3227 70.8027 30.6107 70.3334 30.824C69.8747 31.0267 69.384 31.128 68.8614 31.128C68.168 31.128 67.544 30.984 66.9894 30.696C66.4454 30.408 66.0134 29.9813 65.6934 29.416C65.384 28.8507 65.2294 28.168 65.2294 27.368V22.184H67.0374V27.096C67.0374 27.8853 67.2347 28.4933 67.6294 28.92C68.024 29.336 68.5627 29.544 69.2454 29.544C69.928 29.544 70.4667 29.336 70.8614 28.92C71.2667 28.4933 71.4694 27.8853 71.4694 27.096V22.184H73.2934ZM78.9 31.144C78.2067 31.144 77.5827 31.0213 77.028 30.776C76.484 30.52 76.052 30.1787 75.732 29.752C75.412 29.3147 75.2413 28.8293 75.22 28.296H77.108C77.14 28.6693 77.316 28.984 77.636 29.24C77.9667 29.4853 78.3773 29.608 78.868 29.608C79.38 29.608 79.7747 29.512 80.052 29.32C80.34 29.1173 80.484 28.8613 80.484 28.552C80.484 28.2213 80.324 27.976 80.004 27.816C79.6947 27.656 79.1987 27.48 78.516 27.288C77.8547 27.1067 77.316 26.9307 76.9 26.76C76.484 26.5893 76.1213 26.328 75.812 25.976C75.5133 25.624 75.364 25.16 75.364 24.584C75.364 24.1147 75.5027 23.688 75.78 23.304C76.0573 22.9093 76.452 22.6 76.964 22.376C77.4867 22.152 78.084 22.04 78.756 22.04C79.7587 22.04 80.564 22.296 81.172 22.808C81.7907 23.3093 82.1213 23.9973 82.164 24.872H80.34C80.308 24.4773 80.148 24.1627 79.86 23.928C79.572 23.6933 79.1827 23.576 78.692 23.576C78.212 23.576 77.844 23.6667 77.588 23.848C77.332 24.0293 77.204 24.2693 77.204 24.568C77.204 24.8027 77.2893 25 77.46 25.16C77.6307 25.32 77.8387 25.448 78.084 25.544C78.3293 25.6293 78.692 25.7413 79.172 25.88C79.812 26.0507 80.3347 26.2267 80.74 26.408C81.156 26.5787 81.5133 26.8347 81.812 27.176C82.1107 27.5173 82.2653 27.9707 82.276 28.536C82.276 29.0373 82.1373 29.4853 81.86 29.88C81.5827 30.2747 81.188 30.584 80.676 30.808C80.1747 31.032 79.5827 31.144 78.9 31.144ZM85.1749 21.016C84.8442 21.016 84.5669 20.904 84.3429 20.68C84.1189 20.456 84.0069 20.1787 84.0069 19.848C84.0069 19.5173 84.1189 19.24 84.3429 19.016C84.5669 18.792 84.8442 18.68 85.1749 18.68C85.4949 18.68 85.7669 18.792 85.9909 19.016C86.2149 19.24 86.3269 19.5173 86.3269 19.848C86.3269 20.1787 86.2149 20.456 85.9909 20.68C85.7669 20.904 85.4949 21.016 85.1749 21.016ZM86.0709 22.184V31H84.2469V22.184H86.0709ZM87.8576 26.584C87.8576 25.6773 88.039 24.8827 88.4016 24.2C88.775 23.5067 89.287 22.9733 89.9376 22.6C90.5883 22.2267 91.335 22.04 92.1776 22.04C93.2443 22.04 94.1243 22.296 94.8176 22.808C95.5216 23.3093 95.9963 24.0293 96.2416 24.968H94.2736C94.1136 24.5307 93.8576 24.1893 93.5056 23.944C93.1536 23.6987 92.711 23.576 92.1776 23.576C91.431 23.576 90.8336 23.8427 90.3856 24.376C89.9483 24.8987 89.7296 25.6347 89.7296 26.584C89.7296 27.5333 89.9483 28.2747 90.3856 28.808C90.8336 29.3413 91.431 29.608 92.1776 29.608C93.2336 29.608 93.9323 29.144 94.2736 28.216H96.2416C95.9856 29.112 95.5056 29.8267 94.8016 30.36C94.0976 30.8827 93.223 31.144 92.1776 31.144C91.335 31.144 90.5883 30.9573 89.9376 30.584C89.287 30.2 88.775 29.6667 88.4016 28.984C88.039 28.2907 87.8576 27.4907 87.8576 26.584ZM109.992 23.192C109.992 23.7573 109.858 24.2907 109.592 24.792C109.325 25.2933 108.898 25.704 108.312 26.024C107.725 26.3333 106.973 26.488 106.056 26.488H104.04V31H102.216V19.88H106.056C106.909 19.88 107.629 20.0293 108.216 20.328C108.813 20.616 109.256 21.0107 109.544 21.512C109.842 22.0133 109.992 22.5733 109.992 23.192ZM106.056 25C106.749 25 107.266 24.8453 107.608 24.536C107.949 24.216 108.12 23.768 108.12 23.192C108.12 21.976 107.432 21.368 106.056 21.368H104.04V25H106.056ZM113.555 19.16V31H111.731V19.16H113.555ZM115.342 26.552C115.342 25.6667 115.523 24.8827 115.886 24.2C116.259 23.5173 116.761 22.9893 117.39 22.616C118.03 22.232 118.734 22.04 119.502 22.04C120.195 22.04 120.798 22.1787 121.31 22.456C121.833 22.7227 122.249 23.0587 122.558 23.464V22.184H124.398V31H122.558V29.688C122.249 30.104 121.827 30.4507 121.294 30.728C120.761 31.0053 120.153 31.144 119.47 31.144C118.713 31.144 118.019 30.952 117.39 30.568C116.761 30.1733 116.259 29.6293 115.886 28.936C115.523 28.232 115.342 27.4373 115.342 26.552ZM122.558 26.584C122.558 25.976 122.43 25.448 122.174 25C121.929 24.552 121.603 24.2107 121.198 23.976C120.793 23.7413 120.355 23.624 119.886 23.624C119.417 23.624 118.979 23.7413 118.574 23.976C118.169 24.2 117.838 24.536 117.582 24.984C117.337 25.4213 117.214 25.944 117.214 26.552C117.214 27.16 117.337 27.6933 117.582 28.152C117.838 28.6107 118.169 28.9627 118.574 29.208C118.99 29.4427 119.427 29.56 119.886 29.56C120.355 29.56 120.793 29.4427 121.198 29.208C121.603 28.9733 121.929 28.632 122.174 28.184C122.43 27.7253 122.558 27.192 122.558 26.584ZM134.73 22.184L129.322 35.144H127.434L129.226 30.856L125.754 22.184H127.786L130.266 28.904L132.842 22.184H134.73ZM144.186 26.376C144.186 26.7067 144.165 27.0053 144.122 27.272H137.386C137.44 27.976 137.701 28.5413 138.17 28.968C138.64 29.3947 139.216 29.608 139.898 29.608C140.88 29.608 141.573 29.1973 141.978 28.376H143.946C143.68 29.1867 143.194 29.8533 142.49 30.376C141.797 30.888 140.933 31.144 139.898 31.144C139.056 31.144 138.298 30.9573 137.626 30.584C136.965 30.2 136.442 29.6667 136.058 28.984C135.685 28.2907 135.498 27.4907 135.498 26.584C135.498 25.6773 135.68 24.8827 136.042 24.2C136.416 23.5067 136.933 22.9733 137.594 22.6C138.266 22.2267 139.034 22.04 139.898 22.04C140.73 22.04 141.472 22.2213 142.122 22.584C142.773 22.9467 143.28 23.4587 143.642 24.12C144.005 24.7707 144.186 25.5227 144.186 26.376ZM142.282 25.8C142.272 25.128 142.032 24.5893 141.562 24.184C141.093 23.7787 140.512 23.576 139.818 23.576C139.189 23.576 138.65 23.7787 138.202 24.184C137.754 24.5787 137.488 25.1173 137.402 25.8H142.282ZM147.805 23.464C148.072 23.016 148.424 22.6693 148.861 22.424C149.309 22.168 149.837 22.04 150.445 22.04V23.928H149.981C149.267 23.928 148.723 24.1093 148.349 24.472C147.987 24.8347 147.805 25.464 147.805 26.36V31H145.981V22.184H147.805V23.464Z" fill="black"/>
<rect x="230" y="10" width="160" height="30" rx="15" fill="black" fill-opacity="0.1"/>
<path d="M245.456 20.66C246.344 20.66 247.12 20.832 247.784 21.176C248.456 21.512 248.972 22 249.332 22.64C249.7 23.272 249.884 24.012 249.884 24.86C249.884 25.708 249.7 26.444 249.332 27.068C248.972 27.692 248.456 28.172 247.784 28.508C247.12 28.836 246.344 29 245.456 29H242.732V20.66H245.456ZM245.456 27.884C246.432 27.884 247.18 27.62 247.7 27.092C248.22 26.564 248.48 25.82 248.48 24.86C248.48 23.892 248.22 23.136 247.7 22.592C247.18 22.048 246.432 21.776 245.456 21.776H244.1V27.884H245.456ZM254.108 29.108C253.484 29.108 252.92 28.968 252.416 28.688C251.912 28.4 251.516 28 251.228 27.488C250.94 26.968 250.796 26.368 250.796 25.688C250.796 25.016 250.944 24.42 251.24 23.9C251.536 23.38 251.94 22.98 252.452 22.7C252.964 22.42 253.536 22.28 254.168 22.28C254.8 22.28 255.372 22.42 255.884 22.7C256.396 22.98 256.8 23.38 257.096 23.9C257.392 24.42 257.54 25.016 257.54 25.688C257.54 26.36 257.388 26.956 257.084 27.476C256.78 27.996 256.364 28.4 255.836 28.688C255.316 28.968 254.74 29.108 254.108 29.108ZM254.108 27.92C254.46 27.92 254.788 27.836 255.092 27.668C255.404 27.5 255.656 27.248 255.848 26.912C256.04 26.576 256.136 26.168 256.136 25.688C256.136 25.208 256.044 24.804 255.86 24.476C255.676 24.14 255.432 23.888 255.128 23.72C254.824 23.552 254.496 23.468 254.144 23.468C253.792 23.468 253.464 23.552 253.16 23.72C252.864 23.888 252.628 24.14 252.452 24.476C252.276 24.804 252.188 25.208 252.188 25.688C252.188 26.4 252.368 26.952 252.728 27.344C253.096 27.728 253.556 27.92 254.108 27.92ZM267.772 22.388L265.72 29H264.28L262.948 24.116L261.616 29H260.176L258.112 22.388H259.504L260.884 27.704L262.288 22.388H263.716L265.06 27.68L266.428 22.388H267.772ZM272.131 22.28C272.651 22.28 273.115 22.388 273.523 22.604C273.939 22.82 274.263 23.14 274.495 23.564C274.727 23.988 274.843 24.5 274.843 25.1V29H273.487V25.304C273.487 24.712 273.339 24.26 273.043 23.948C272.747 23.628 272.343 23.468 271.831 23.468C271.319 23.468 270.911 23.628 270.607 23.948C270.311 24.26 270.163 24.712 270.163 25.304V29H268.795V22.388H270.163V23.144C270.387 22.872 270.671 22.66 271.015 22.508C271.367 22.356 271.739 22.28 272.131 22.28ZM277.956 20.12V29H276.588V20.12H277.956ZM282.62 29.108C281.996 29.108 281.432 28.968 280.928 28.688C280.424 28.4 280.028 28 279.74 27.488C279.452 26.968 279.308 26.368 279.308 25.688C279.308 25.016 279.456 24.42 279.752 23.9C280.048 23.38 280.452 22.98 280.964 22.7C281.476 22.42 282.048 22.28 282.68 22.28C283.312 22.28 283.884 22.42 284.396 22.7C284.908 22.98 285.312 23.38 285.608 23.9C285.904 24.42 286.052 25.016 286.052 25.688C286.052 26.36 285.9 26.956 285.596 27.476C285.292 27.996 284.876 28.4 284.348 28.688C283.828 28.968 283.252 29.108 282.62 29.108ZM282.62 27.92C282.972 27.92 283.3 27.836 283.604 27.668C283.916 27.5 284.168 27.248 284.36 26.912C284.552 26.576 284.648 26.168 284.648 25.688C284.648 25.208 284.556 24.804 284.372 24.476C284.188 24.14 283.944 23.888 283.64 23.72C283.336 23.552 283.008 23.468 282.656 23.468C282.304 23.468 281.976 23.552 281.672 23.72C281.376 23.888 281.14 24.14 280.964 24.476C280.788 24.804 280.7 25.208 280.7 25.688C280.7 26.4 280.88 26.952 281.24 27.344C281.608 27.728 282.068 27.92 282.62 27.92ZM286.948 25.664C286.948 25 287.084 24.412 287.356 23.9C287.636 23.388 288.012 22.992 288.484 22.712C288.964 22.424 289.492 22.28 290.068 22.28C290.588 22.28 291.04 22.384 291.424 22.592C291.816 22.792 292.128 23.044 292.36 23.348V22.388H293.74V29H292.36V28.016C292.128 28.328 291.812 28.588 291.412 28.796C291.012 29.004 290.556 29.108 290.044 29.108C289.476 29.108 288.956 28.964 288.484 28.676C288.012 28.38 287.636 27.972 287.356 27.452C287.084 26.924 286.948 26.328 286.948 25.664ZM292.36 25.688C292.36 25.232 292.264 24.836 292.072 24.5C291.888 24.164 291.644 23.908 291.34 23.732C291.036 23.556 290.708 23.468 290.356 23.468C290.004 23.468 289.676 23.556 289.372 23.732C289.068 23.9 288.82 24.152 288.628 24.488C288.444 24.816 288.352 25.208 288.352 25.664C288.352 26.12 288.444 26.52 288.628 26.864C288.82 27.208 289.068 27.472 289.372 27.656C289.684 27.832 290.012 27.92 290.356 27.92C290.708 27.92 291.036 27.832 291.34 27.656C291.644 27.48 291.888 27.224 292.072 26.888C292.264 26.544 292.36 26.144 292.36 25.688ZM295.081 25.664C295.081 25 295.217 24.412 295.489 23.9C295.769 23.388 296.145 22.992 296.617 22.712C297.097 22.424 297.629 22.28 298.213 22.28C298.645 22.28 299.069 22.376 299.485 22.568C299.909 22.752 300.245 23 300.493 23.312V20.12H301.873V29H300.493V28.004C300.269 28.324 299.957 28.588 299.557 28.796C299.165 29.004 298.713 29.108 298.201 29.108C297.625 29.108 297.097 28.964 296.617 28.676C296.145 28.38 295.769 27.972 295.489 27.452C295.217 26.924 295.081 26.328 295.081 25.664ZM300.493 25.688C300.493 25.232 300.397 24.836 300.205 24.5C300.021 24.164 299.777 23.908 299.473 23.732C299.169 23.556 298.841 23.468 298.489 23.468C298.137 23.468 297.809 23.556 297.505 23.732C297.201 23.9 296.953 24.152 296.761 24.488C296.577 24.816 296.485 25.208 296.485 25.664C296.485 26.12 296.577 26.52 296.761 26.864C296.953 27.208 297.201 27.472 297.505 27.656C297.817 27.832 298.145 27.92 298.489 27.92C298.841 27.92 299.169 27.832 299.473 27.656C299.777 27.48 300.021 27.224 300.205 26.888C300.397 26.544 300.493 26.144 300.493 25.688ZM314.791 22.28C315.311 22.28 315.775 22.388 316.183 22.604C316.599 22.82 316.923 23.14 317.155 23.564C317.395 23.988 317.515 24.5 317.515 25.1V29H316.159V25.304C316.159 24.712 316.011 24.26 315.715 23.948C315.419 23.628 315.015 23.468 314.503 23.468C313.991 23.468 313.583 23.628 313.279 23.948C312.983 24.26 312.835 24.712 312.835 25.304V29H311.479V25.304C311.479 24.712 311.331 24.26 311.035 23.948C310.739 23.628 310.335 23.468 309.823 23.468C309.311 23.468 308.903 23.628 308.599 23.948C308.303 24.26 308.155 24.712 308.155 25.304V29H306.787V22.388H308.155V23.144C308.379 22.872 308.663 22.66 309.007 22.508C309.351 22.356 309.719 22.28 310.111 22.28C310.639 22.28 311.111 22.392 311.527 22.616C311.943 22.84 312.263 23.164 312.487 23.588C312.687 23.188 312.999 22.872 313.423 22.64C313.847 22.4 314.303 22.28 314.791 22.28ZM322.123 29.108C321.499 29.108 320.935 28.968 320.431 28.688C319.927 28.4 319.531 28 319.243 27.488C318.955 26.968 318.811 26.368 318.811 25.688C318.811 25.016 318.959 24.42 319.255 23.9C319.551 23.38 319.955 22.98 320.467 22.7C320.979 22.42 321.551 22.28 322.183 22.28C322.815 22.28 323.387 22.42 323.899 22.7C324.411 22.98 324.815 23.38 325.111 23.9C325.407 24.42 325.555 25.016 325.555 25.688C325.555 26.36 325.403 26.956 325.099 27.476C324.795 27.996 324.379 28.4 323.851 28.688C323.331 28.968 322.755 29.108 322.123 29.108ZM322.123 27.92C322.475 27.92 322.803 27.836 323.107 27.668C323.419 27.5 323.671 27.248 323.863 26.912C324.055 26.576 324.151 26.168 324.151 25.688C324.151 25.208 324.059 24.804 323.875 24.476C323.691 24.14 323.447 23.888 323.143 23.72C322.839 23.552 322.511 23.468 322.159 23.468C321.807 23.468 321.479 23.552 321.175 23.72C320.879 23.888 320.643 24.14 320.467 24.476C320.291 24.804 320.203 25.208 320.203 25.688C320.203 26.4 320.383 26.952 320.743 27.344C321.111 27.728 321.571 27.92 322.123 27.92ZM328.276 23.348C328.476 23.012 328.74 22.752 329.068 22.568C329.404 22.376 329.8 22.28 330.256 22.28V23.696H329.908C329.372 23.696 328.964 23.832 328.684 24.104C328.412 24.376 328.276 24.848 328.276 25.52V29H326.908V22.388H328.276V23.348ZM337.573 25.532C337.573 25.78 337.557 26.004 337.525 26.204H332.473C332.513 26.732 332.709 27.156 333.061 27.476C333.413 27.796 333.845 27.956 334.357 27.956C335.093 27.956 335.613 27.648 335.917 27.032H337.393C337.193 27.64 336.829 28.14 336.301 28.532C335.781 28.916 335.133 29.108 334.357 29.108C333.725 29.108 333.157 28.968 332.653 28.688C332.157 28.4 331.765 28 331.477 27.488C331.197 26.968 331.057 26.368 331.057 25.688C331.057 25.008 331.193 24.412 331.465 23.9C331.745 23.38 332.133 22.98 332.629 22.7C333.133 22.42 333.709 22.28 334.357 22.28C334.981 22.28 335.537 22.416 336.025 22.688C336.513 22.96 336.893 23.344 337.165 23.84C337.437 24.328 337.573 24.892 337.573 25.532ZM336.145 25.1C336.137 24.596 335.957 24.192 335.605 23.888C335.253 23.584 334.817 23.432 334.297 23.432C333.825 23.432 333.421 23.584 333.085 23.888C332.749 24.184 332.549 24.588 332.485 25.1H336.145ZM350.041 22.28C350.561 22.28 351.025 22.388 351.433 22.604C351.849 22.82 352.173 23.14 352.405 23.564C352.645 23.988 352.765 24.5 352.765 25.1V29H351.409V25.304C351.409 24.712 351.261 24.26 350.965 23.948C350.669 23.628 350.265 23.468 349.753 23.468C349.241 23.468 348.833 23.628 348.529 23.948C348.233 24.26 348.085 24.712 348.085 25.304V29H346.729V25.304C346.729 24.712 346.581 24.26 346.285 23.948C345.989 23.628 345.585 23.468 345.073 23.468C344.561 23.468 344.153 23.628 343.849 23.948C343.553 24.26 343.405 24.712 343.405 25.304V29H342.037V22.388H343.405V23.144C343.629 22.872 343.913 22.66 344.257 22.508C344.601 22.356 344.969 22.28 345.361 22.28C345.889 22.28 346.361 22.392 346.777 22.616C347.193 22.84 347.513 23.164 347.737 23.588C347.937 23.188 348.249 22.872 348.673 22.64C349.097 22.4 349.553 22.28 350.041 22.28ZM360.493 22.388V29H359.125V28.22C358.909 28.492 358.625 28.708 358.273 28.868C357.929 29.02 357.561 29.096 357.169 29.096C356.649 29.096 356.181 28.988 355.765 28.772C355.357 28.556 355.033 28.236 354.793 27.812C354.561 27.388 354.445 26.876 354.445 26.276V22.388H355.801V26.072C355.801 26.664 355.949 27.12 356.245 27.44C356.541 27.752 356.945 27.908 357.457 27.908C357.969 27.908 358.373 27.752 358.669 27.44C358.973 27.12 359.125 26.664 359.125 26.072V22.388H360.493ZM364.698 29.108C364.178 29.108 363.71 29.016 363.294 28.832C362.886 28.64 362.562 28.384 362.322 28.064C362.082 27.736 361.954 27.372 361.938 26.972H363.354C363.378 27.252 363.51 27.488 363.75 27.68C363.998 27.864 364.306 27.956 364.674 27.956C365.058 27.956 365.354 27.884 365.562 27.74C365.778 27.588 365.886 27.396 365.886 27.164C365.886 26.916 365.766 26.732 365.526 26.612C365.294 26.492 364.922 26.36 364.41 26.216C363.914 26.08 363.51 25.948 363.198 25.82C362.886 25.692 362.614 25.496 362.382 25.232C362.158 24.968 362.046 24.62 362.046 24.188C362.046 23.836 362.15 23.516 362.358 23.228C362.566 22.932 362.862 22.7 363.246 22.532C363.638 22.364 364.086 22.28 364.59 22.28C365.342 22.28 365.946 22.472 366.402 22.856C366.866 23.232 367.114 23.748 367.146 24.404H365.778C365.754 24.108 365.634 23.872 365.418 23.696C365.202 23.52 364.91 23.432 364.542 23.432C364.182 23.432 363.906 23.5 363.714 23.636C363.522 23.772 363.426 23.952 363.426 24.176C363.426 24.352 363.49 24.5 363.618 24.62C363.746 24.74 363.902 24.836 364.086 24.908C364.27 24.972 364.542 25.056 364.902 25.16C365.382 25.288 365.774 25.42 366.078 25.556C366.39 25.684 366.658 25.876 366.882 26.132C367.106 26.388 367.222 26.728 367.23 27.152C367.23 27.528 367.126 27.864 366.918 28.16C366.71 28.456 366.414 28.688 366.03 28.856C365.654 29.024 365.21 29.108 364.698 29.108ZM369.405 21.512C369.157 21.512 368.949 21.428 368.781 21.26C368.613 21.092 368.529 20.884 368.529 20.636C368.529 20.388 368.613 20.18 368.781 20.012C368.949 19.844 369.157 19.76 369.405 19.76C369.645 19.76 369.849 19.844 370.017 20.012C370.185 20.18 370.269 20.388 370.269 20.636C370.269 20.884 370.185 21.092 370.017 21.26C369.849 21.428 369.645 21.512 369.405 21.512ZM370.077 22.388V29H368.709V22.388H370.077ZM371.417 25.688C371.417 25.008 371.553 24.412 371.825 23.9C372.105 23.38 372.489 22.98 372.977 22.7C373.465 22.42 374.025 22.28 374.657 22.28C375.457 22.28 376.117 22.472 376.637 22.856C377.165 23.232 377.521 23.772 377.705 24.476H376.229C376.109 24.148 375.917 23.892 375.653 23.708C375.389 23.524 375.057 23.432 374.657 23.432C374.097 23.432 373.649 23.632 373.313 24.032C372.985 24.424 372.821 24.976 372.821 25.688C372.821 26.4 372.985 26.956 373.313 27.356C373.649 27.756 374.097 27.956 374.657 27.956C375.449 27.956 375.973 27.608 376.229 26.912H377.705C377.513 27.584 377.153 28.12 376.625 28.52C376.097 28.912 375.441 29.108 374.657 29.108C374.025 29.108 373.465 28.968 372.977 28.688C372.489 28.4 372.105 28 371.825 27.488C371.553 26.968 371.417 26.368 371.417 25.688Z" fill="black"/>
</svg>
