<svg xmlns="http://www.w3.org/2000/svg" fill="none" viewBox="0 0 140 42" height="42" width="140">
<path fill="black" d="M0.444 20.812C0.444 19.996 0.632 19.264 1.008 18.616C1.392 17.968 1.908 17.464 2.556 17.104C3.212 16.736 3.928 16.552 4.704 16.552C5.592 16.552 6.38 16.772 7.068 17.212C7.764 17.644 8.268 18.26 8.58 19.06H6.936C6.72 18.62 6.42 18.292 6.036 18.076C5.652 17.86 5.208 17.752 4.704 17.752C4.152 17.752 3.66 17.876 3.228 18.124C2.796 18.372 2.456 18.728 2.208 19.192C1.968 19.656 1.848 20.196 1.848 20.812C1.848 21.428 1.968 21.968 2.208 22.432C2.456 22.896 2.796 23.256 3.228 23.512C3.66 23.76 4.152 23.884 4.704 23.884C5.208 23.884 5.652 23.776 6.036 23.56C6.42 23.344 6.72 23.016 6.936 22.576H8.58C8.268 23.376 7.764 23.992 7.068 24.424C6.38 24.856 5.592 25.072 4.704 25.072C3.92 25.072 3.204 24.892 2.556 24.532C1.908 24.164 1.392 23.656 1.008 23.008C0.632 22.36 0.444 21.628 0.444 20.812ZM11.5493 16.12V25H10.1813V16.12H11.5493ZM12.8893 21.664C12.8893 21 13.0253 20.412 13.2973 19.9C13.5773 19.388 13.9533 18.992 14.4253 18.712C14.9053 18.424 15.4333 18.28 16.0093 18.28C16.5293 18.28 16.9813 18.384 17.3653 18.592C17.7573 18.792 18.0693 19.044 18.3013 19.348V18.388H19.6813V25H18.3013V24.016C18.0693 24.328 17.7533 24.588 17.3533 24.796C16.9533 25.004 16.4973 25.108 15.9853 25.108C15.4173 25.108 14.8973 24.964 14.4253 24.676C13.9533 24.38 13.5773 23.972 13.2973 23.452C13.0253 22.924 12.8893 22.328 12.8893 21.664ZM18.3013 21.688C18.3013 21.232 18.2053 20.836 18.0133 20.5C17.8293 20.164 17.5853 19.908 17.2813 19.732C16.9773 19.556 16.6493 19.468 16.2973 19.468C15.9453 19.468 15.6173 19.556 15.3133 19.732C15.0093 19.9 14.7613 20.152 14.5693 20.488C14.3853 20.816 14.2933 21.208 14.2933 21.664C14.2933 22.12 14.3853 22.52 14.5693 22.864C14.7613 23.208 15.0093 23.472 15.3133 23.656C15.6253 23.832 15.9533 23.92 16.2973 23.92C16.6493 23.92 16.9773 23.832 17.2813 23.656C17.5853 23.48 17.8293 23.224 18.0133 22.888C18.2053 22.544 18.3013 22.144 18.3013 21.688ZM22.8461 19.348C23.0461 19.012 23.3101 18.752 23.6381 18.568C23.9741 18.376 24.3701 18.28 24.8261 18.28V19.696H24.4781C23.9421 19.696 23.5341 19.832 23.2541 20.104C22.9821 20.376 22.8461 20.848 22.8461 21.52V25H21.4781V18.388H22.8461V19.348ZM26.7796 17.512C26.5316 17.512 26.3236 17.428 26.1556 17.26C25.9876 17.092 25.9036 16.884 25.9036 16.636C25.9036 16.388 25.9876 16.18 26.1556 16.012C26.3236 15.844 26.5316 15.76 26.7796 15.76C27.0196 15.76 27.2236 15.844 27.3916 16.012C27.5596 16.18 27.6436 16.388 27.6436 16.636C27.6436 16.884 27.5596 17.092 27.3916 17.26C27.2236 17.428 27.0196 17.512 26.7796 17.512ZM27.4516 18.388V25H26.0836V18.388H27.4516ZM32.5837 18.28C33.1037 18.28 33.5677 18.388 33.9757 18.604C34.3917 18.82 34.7157 19.14 34.9477 19.564C35.1797 19.988 35.2957 20.5 35.2957 21.1V25H33.9397V21.304C33.9397 20.712 33.7917 20.26 33.4957 19.948C33.1997 19.628 32.7957 19.468 32.2837 19.468C31.7717 19.468 31.3637 19.628 31.0597 19.948C30.7637 20.26 30.6157 20.712 30.6157 21.304V25H29.2477V18.388H30.6157V19.144C30.8397 18.872 31.1237 18.66 31.4677 18.508C31.8197 18.356 32.1917 18.28 32.5837 18.28ZM43.1006 21.532C43.1006 21.78 43.0846 22.004 43.0526 22.204H38.0006C38.0406 22.732 38.2366 23.156 38.5886 23.476C38.9406 23.796 39.3726 23.956 39.8846 23.956C40.6206 23.956 41.1406 23.648 41.4446 23.032H42.9206C42.7206 23.64 42.3566 24.14 41.8286 24.532C41.3086 24.916 40.6606 25.108 39.8846 25.108C39.2526 25.108 38.6846 24.968 38.1806 24.688C37.6846 24.4 37.2926 24 37.0046 23.488C36.7246 22.968 36.5846 22.368 36.5846 21.688C36.5846 21.008 36.7206 20.412 36.9926 19.9C37.2726 19.38 37.6606 18.98 38.1566 18.7C38.6606 18.42 39.2366 18.28 39.8846 18.28C40.5086 18.28 41.0646 18.416 41.5526 18.688C42.0406 18.96 42.4206 19.344 42.6926 19.84C42.9646 20.328 43.1006 20.892 43.1006 21.532ZM41.6726 21.1C41.6646 20.596 41.4846 20.192 41.1326 19.888C40.7806 19.584 40.3446 19.432 39.8246 19.432C39.3526 19.432 38.9486 19.584 38.6126 19.888C38.2766 20.184 38.0766 20.588 38.0126 21.1H41.6726ZM46.0429 19.504V23.164C46.0429 23.412 46.0989 23.592 46.2109 23.704C46.3309 23.808 46.5309 23.86 46.8109 23.86H47.6509V25H46.5709C45.9549 25 45.4829 24.856 45.1549 24.568C44.8269 24.28 44.6629 23.812 44.6629 23.164V19.504H43.8829V18.388H44.6629V16.744H46.0429V18.388H47.6509V19.504H46.0429Z"></path>
</svg>
