<svg width="480" height="360" viewBox="0 0 480 360" fill="none" xmlns="http://www.w3.org/2000/svg">
<path d="M27.744 19.88V21.368H23.024V24.648H26.704V26.136H23.024V31H21.2V19.88H27.744ZM31.2584 23.464C31.525 23.016 31.877 22.6693 32.3144 22.424C32.7624 22.168 33.2904 22.04 33.8984 22.04V23.928H33.4344C32.7197 23.928 32.1757 24.1093 31.8024 24.472C31.4397 24.8347 31.2584 25.464 31.2584 26.36V31H29.4344V22.184H31.2584V23.464ZM34.967 26.552C34.967 25.6667 35.1483 24.8827 35.511 24.2C35.8843 23.5173 36.3857 22.9893 37.015 22.616C37.655 22.232 38.359 22.04 39.127 22.04C39.8203 22.04 40.423 22.1787 40.935 22.456C41.4577 22.7227 41.8737 23.0587 42.183 23.464V22.184H44.023V31H42.183V29.688C41.8737 30.104 41.4523 30.4507 40.919 30.728C40.3857 31.0053 39.7777 31.144 39.095 31.144C38.3377 31.144 37.6443 30.952 37.015 30.568C36.3857 30.1733 35.8843 29.6293 35.511 28.936C35.1483 28.232 34.967 27.4373 34.967 26.552ZM42.183 26.584C42.183 25.976 42.055 25.448 41.799 25C41.5537 24.552 41.2283 24.2107 40.823 23.976C40.4177 23.7413 39.9803 23.624 39.511 23.624C39.0417 23.624 38.6043 23.7413 38.199 23.976C37.7937 24.2 37.463 24.536 37.207 24.984C36.9617 25.4213 36.839 25.944 36.839 26.552C36.839 27.16 36.9617 27.6933 37.207 28.152C37.463 28.6107 37.7937 28.9627 38.199 29.208C38.615 29.4427 39.0523 29.56 39.511 29.56C39.9803 29.56 40.4177 29.4427 40.823 29.208C41.2283 28.9733 41.5537 28.632 41.799 28.184C42.055 27.7253 42.183 27.192 42.183 26.584ZM57.0908 22.04C57.7841 22.04 58.4028 22.184 58.9468 22.472C59.5014 22.76 59.9334 23.1867 60.2428 23.752C60.5628 24.3173 60.7228 25 60.7228 25.8V31H58.9148V26.072C58.9148 25.2827 58.7174 24.68 58.3228 24.264C57.9281 23.8373 57.3894 23.624 56.7068 23.624C56.0241 23.624 55.4801 23.8373 55.0748 24.264C54.6801 24.68 54.4828 25.2827 54.4828 26.072V31H52.6748V26.072C52.6748 25.2827 52.4774 24.68 52.0828 24.264C51.6881 23.8373 51.1494 23.624 50.4668 23.624C49.7841 23.624 49.2401 23.8373 48.8348 24.264C48.4401 24.68 48.2428 25.2827 48.2428 26.072V31H46.4188V22.184H48.2428V23.192C48.5414 22.8293 48.9201 22.5467 49.3788 22.344C49.8374 22.1413 50.3281 22.04 50.8508 22.04C51.5548 22.04 52.1841 22.1893 52.7388 22.488C53.2934 22.7867 53.7201 23.2187 54.0188 23.784C54.2854 23.2507 54.7014 22.8293 55.2668 22.52C55.8321 22.2 56.4401 22.04 57.0908 22.04ZM71.1238 26.376C71.1238 26.7067 71.1024 27.0053 71.0598 27.272H64.3238C64.3771 27.976 64.6384 28.5413 65.1078 28.968C65.5771 29.3947 66.1531 29.608 66.8358 29.608C67.8171 29.608 68.5104 29.1973 68.9158 28.376H70.8837C70.6171 29.1867 70.1318 29.8533 69.4278 30.376C68.7344 30.888 67.8704 31.144 66.8358 31.144C65.9931 31.144 65.2358 30.9573 64.5638 30.584C63.9024 30.2 63.3798 29.6667 62.9958 28.984C62.6224 28.2907 62.4358 27.4907 62.4358 26.584C62.4358 25.6773 62.6171 24.8827 62.9798 24.2C63.3531 23.5067 63.8704 22.9733 64.5318 22.6C65.2038 22.2267 65.9718 22.04 66.8358 22.04C67.6678 22.04 68.4091 22.2213 69.0598 22.584C69.7104 22.9467 70.2171 23.4587 70.5798 24.12C70.9424 24.7707 71.1238 25.5227 71.1238 26.376ZM69.2198 25.8C69.2091 25.128 68.9691 24.5893 68.4998 24.184C68.0304 23.7787 67.4491 23.576 66.7558 23.576C66.1264 23.576 65.5878 23.7787 65.1398 24.184C64.6918 24.5787 64.4251 25.1173 64.3398 25.8H69.2198Z" fill="white"/>
<path d="M25.808 60.66V61.776H22.268V64.236H25.028V65.352H22.268V69H20.9V60.66H25.808ZM28.4438 63.348C28.6438 63.012 28.9078 62.752 29.2358 62.568C29.5718 62.376 29.9678 62.28 30.4238 62.28V63.696H30.0758C29.5398 63.696 29.1318 63.832 28.8518 64.104C28.5798 64.376 28.4438 64.848 28.4438 65.52V69H27.0758V62.388H28.4438V63.348ZM31.2253 65.664C31.2253 65 31.3613 64.412 31.6333 63.9C31.9133 63.388 32.2893 62.992 32.7613 62.712C33.2413 62.424 33.7693 62.28 34.3453 62.28C34.8653 62.28 35.3173 62.384 35.7013 62.592C36.0933 62.792 36.4053 63.044 36.6373 63.348V62.388H38.0173V69H36.6373V68.016C36.4053 68.328 36.0893 68.588 35.6893 68.796C35.2893 69.004 34.8333 69.108 34.3213 69.108C33.7533 69.108 33.2333 68.964 32.7613 68.676C32.2893 68.38 31.9133 67.972 31.6333 67.452C31.3613 66.924 31.2253 66.328 31.2253 65.664ZM36.6373 65.688C36.6373 65.232 36.5413 64.836 36.3493 64.5C36.1653 64.164 35.9213 63.908 35.6173 63.732C35.3133 63.556 34.9853 63.468 34.6333 63.468C34.2813 63.468 33.9533 63.556 33.6493 63.732C33.3453 63.9 33.0973 64.152 32.9053 64.488C32.7213 64.816 32.6293 65.208 32.6293 65.664C32.6293 66.12 32.7213 66.52 32.9053 66.864C33.0973 67.208 33.3453 67.472 33.6493 67.656C33.9613 67.832 34.2893 67.92 34.6333 67.92C34.9853 67.92 35.3133 67.832 35.6173 67.656C35.9213 67.48 36.1653 67.224 36.3493 66.888C36.5413 66.544 36.6373 66.144 36.6373 65.688ZM47.8181 62.28C48.3381 62.28 48.8021 62.388 49.2101 62.604C49.6261 62.82 49.9501 63.14 50.1821 63.564C50.4221 63.988 50.5421 64.5 50.5421 65.1V69H49.1861V65.304C49.1861 64.712 49.0381 64.26 48.7421 63.948C48.4461 63.628 48.0421 63.468 47.5301 63.468C47.0181 63.468 46.6101 63.628 46.3061 63.948C46.0101 64.26 45.8621 64.712 45.8621 65.304V69H44.5061V65.304C44.5061 64.712 44.3581 64.26 44.0621 63.948C43.7661 63.628 43.3621 63.468 42.8501 63.468C42.3381 63.468 41.9301 63.628 41.6261 63.948C41.3301 64.26 41.1821 64.712 41.1821 65.304V69H39.8141V62.388H41.1821V63.144C41.4061 62.872 41.6901 62.66 42.0341 62.508C42.3781 62.356 42.7461 62.28 43.1381 62.28C43.6661 62.28 44.1381 62.392 44.5541 62.616C44.9701 62.84 45.2901 63.164 45.5141 63.588C45.7141 63.188 46.0261 62.872 46.4501 62.64C46.8741 62.4 47.3301 62.28 47.8181 62.28ZM58.3428 65.532C58.3428 65.78 58.3268 66.004 58.2948 66.204H53.2428C53.2828 66.732 53.4788 67.156 53.8308 67.476C54.1828 67.796 54.6148 67.956 55.1268 67.956C55.8628 67.956 56.3828 67.648 56.6868 67.032H58.1628C57.9628 67.64 57.5988 68.14 57.0708 68.532C56.5508 68.916 55.9028 69.108 55.1268 69.108C54.4948 69.108 53.9268 68.968 53.4228 68.688C52.9268 68.4 52.5348 68 52.2468 67.488C51.9668 66.968 51.8268 66.368 51.8268 65.688C51.8268 65.008 51.9628 64.412 52.2348 63.9C52.5148 63.38 52.9028 62.98 53.3988 62.7C53.9028 62.42 54.4788 62.28 55.1268 62.28C55.7508 62.28 56.3068 62.416 56.7948 62.688C57.2828 62.96 57.6628 63.344 57.9348 63.84C58.2068 64.328 58.3428 64.892 58.3428 65.532ZM56.9148 65.1C56.9068 64.596 56.7268 64.192 56.3748 63.888C56.0228 63.584 55.5868 63.432 55.0668 63.432C54.5948 63.432 54.1908 63.584 53.8548 63.888C53.5188 64.184 53.3188 64.588 53.2548 65.1H56.9148Z" fill="white"/>
<path d="M25.928 177.296H22.436L21.836 179H20.408L23.396 170.648H24.98L27.968 179H26.528L25.928 177.296ZM25.544 176.18L24.188 172.304L22.82 176.18H25.544ZM28.8112 175.664C28.8112 175 28.9472 174.412 29.2192 173.9C29.4992 173.388 29.8752 172.992 30.3472 172.712C30.8272 172.424 31.3592 172.28 31.9432 172.28C32.3752 172.28 32.7992 172.376 33.2152 172.568C33.6392 172.752 33.9752 173 34.2232 173.312V170.12H35.6032V179H34.2232V178.004C33.9992 178.324 33.6872 178.588 33.2872 178.796C32.8952 179.004 32.4432 179.108 31.9312 179.108C31.3552 179.108 30.8272 178.964 30.3472 178.676C29.8752 178.38 29.4992 177.972 29.2192 177.452C28.9472 176.924 28.8112 176.328 28.8112 175.664ZM34.2232 175.688C34.2232 175.232 34.1272 174.836 33.9352 174.5C33.7512 174.164 33.5072 173.908 33.2032 173.732C32.8992 173.556 32.5712 173.468 32.2192 173.468C31.8672 173.468 31.5392 173.556 31.2352 173.732C30.9312 173.9 30.6832 174.152 30.4912 174.488C30.3072 174.816 30.2152 175.208 30.2152 175.664C30.2152 176.12 30.3072 176.52 30.4912 176.864C30.6832 177.208 30.9312 177.472 31.2352 177.656C31.5472 177.832 31.8752 177.92 32.2192 177.92C32.5712 177.92 32.8992 177.832 33.2032 177.656C33.5072 177.48 33.7512 177.224 33.9352 176.888C34.1272 176.544 34.2232 176.144 34.2232 175.688ZM39.956 177.776L41.828 172.388H43.28L40.76 179H39.128L36.62 172.388H38.084L39.956 177.776ZM43.8581 175.664C43.8581 175 43.9941 174.412 44.2661 173.9C44.5461 173.388 44.9221 172.992 45.3941 172.712C45.8741 172.424 46.4021 172.28 46.9781 172.28C47.4981 172.28 47.9501 172.384 48.3341 172.592C48.7261 172.792 49.0381 173.044 49.2701 173.348V172.388H50.6501V179H49.2701V178.016C49.0381 178.328 48.7221 178.588 48.3221 178.796C47.9221 179.004 47.4661 179.108 46.9541 179.108C46.3861 179.108 45.8661 178.964 45.3941 178.676C44.9221 178.38 44.5461 177.972 44.2661 177.452C43.9941 176.924 43.8581 176.328 43.8581 175.664ZM49.2701 175.688C49.2701 175.232 49.1741 174.836 48.9821 174.5C48.7981 174.164 48.5541 173.908 48.2501 173.732C47.9461 173.556 47.6181 173.468 47.2661 173.468C46.9141 173.468 46.5861 173.556 46.2821 173.732C45.9781 173.9 45.7301 174.152 45.5381 174.488C45.3541 174.816 45.2621 175.208 45.2621 175.664C45.2621 176.12 45.3541 176.52 45.5381 176.864C45.7301 177.208 45.9781 177.472 46.2821 177.656C46.5941 177.832 46.9221 177.92 47.2661 177.92C47.6181 177.92 47.9461 177.832 48.2501 177.656C48.5541 177.48 48.7981 177.224 48.9821 176.888C49.1741 176.544 49.2701 176.144 49.2701 175.688ZM55.7829 172.28C56.3029 172.28 56.7669 172.388 57.1749 172.604C57.5909 172.82 57.9149 173.14 58.1469 173.564C58.3789 173.988 58.4949 174.5 58.4949 175.1V179H57.1389V175.304C57.1389 174.712 56.9909 174.26 56.6949 173.948C56.3989 173.628 55.9949 173.468 55.4829 173.468C54.9709 173.468 54.5629 173.628 54.2589 173.948C53.9629 174.26 53.8149 174.712 53.8149 175.304V179H52.4469V172.388H53.8149V173.144C54.0389 172.872 54.3229 172.66 54.6669 172.508C55.0189 172.356 55.3909 172.28 55.7829 172.28ZM59.7838 175.688C59.7838 175.008 59.9198 174.412 60.1918 173.9C60.4718 173.38 60.8558 172.98 61.3438 172.7C61.8318 172.42 62.3918 172.28 63.0238 172.28C63.8238 172.28 64.4838 172.472 65.0038 172.856C65.5318 173.232 65.8878 173.772 66.0718 174.476H64.5958C64.4758 174.148 64.2838 173.892 64.0198 173.708C63.7558 173.524 63.4238 173.432 63.0238 173.432C62.4638 173.432 62.0158 173.632 61.6798 174.032C61.3518 174.424 61.1878 174.976 61.1878 175.688C61.1878 176.4 61.3518 176.956 61.6798 177.356C62.0158 177.756 62.4638 177.956 63.0238 177.956C63.8158 177.956 64.3398 177.608 64.5958 176.912H66.0718C65.8798 177.584 65.5198 178.12 64.9918 178.52C64.4638 178.912 63.8078 179.108 63.0238 179.108C62.3918 179.108 61.8318 178.968 61.3438 178.688C60.8558 178.4 60.4718 178 60.1918 177.488C59.9198 176.968 59.7838 176.368 59.7838 175.688ZM73.4952 175.532C73.4952 175.78 73.4792 176.004 73.4472 176.204H68.3952C68.4352 176.732 68.6312 177.156 68.9832 177.476C69.3352 177.796 69.7672 177.956 70.2792 177.956C71.0152 177.956 71.5352 177.648 71.8392 177.032H73.3152C73.1152 177.64 72.7512 178.14 72.2232 178.532C71.7032 178.916 71.0552 179.108 70.2792 179.108C69.6472 179.108 69.0792 178.968 68.5752 178.688C68.0792 178.4 67.6872 178 67.3992 177.488C67.1192 176.968 66.9792 176.368 66.9792 175.688C66.9792 175.008 67.1152 174.412 67.3872 173.9C67.6672 173.38 68.0552 172.98 68.5512 172.7C69.0552 172.42 69.6312 172.28 70.2792 172.28C70.9032 172.28 71.4592 172.416 71.9472 172.688C72.4352 172.96 72.8152 173.344 73.0872 173.84C73.3592 174.328 73.4952 174.892 73.4952 175.532ZM72.0672 175.1C72.0592 174.596 71.8792 174.192 71.5272 173.888C71.1752 173.584 70.7392 173.432 70.2192 173.432C69.7472 173.432 69.3432 173.584 69.0072 173.888C68.6712 174.184 68.4712 174.588 68.4072 175.1H72.0672ZM74.3854 175.664C74.3854 175 74.5214 174.412 74.7934 173.9C75.0734 173.388 75.4494 172.992 75.9214 172.712C76.4014 172.424 76.9334 172.28 77.5174 172.28C77.9494 172.28 78.3734 172.376 78.7894 172.568C79.2134 172.752 79.5494 173 79.7974 173.312V170.12H81.1774V179H79.7974V178.004C79.5734 178.324 79.2614 178.588 78.8614 178.796C78.4694 179.004 78.0174 179.108 77.5054 179.108C76.9294 179.108 76.4014 178.964 75.9214 178.676C75.4494 178.38 75.0734 177.972 74.7934 177.452C74.5214 176.924 74.3854 176.328 74.3854 175.664ZM79.7974 175.688C79.7974 175.232 79.7014 174.836 79.5094 174.5C79.3254 174.164 79.0814 173.908 78.7774 173.732C78.4734 173.556 78.1454 173.468 77.7934 173.468C77.4414 173.468 77.1134 173.556 76.8094 173.732C76.5054 173.9 76.2574 174.152 76.0654 174.488C75.8814 174.816 75.7894 175.208 75.7894 175.664C75.7894 176.12 75.8814 176.52 76.0654 176.864C76.2574 177.208 76.5054 177.472 76.8094 177.656C77.1214 177.832 77.4494 177.92 77.7934 177.92C78.1454 177.92 78.4734 177.832 78.7774 177.656C79.0814 177.48 79.3254 177.224 79.5094 176.888C79.7014 176.544 79.7974 176.144 79.7974 175.688Z" fill="white"/>
<rect x="10" y="80" width="70" height="30" rx="15" fill="white" fill-opacity="0.1"/>
<rect x="90" y="80" width="70" height="30" rx="15" fill="white" fill-opacity="0.1"/>
<path d="M25.5172 99L23.5972 95.664H22.5532V99H21.1852V90.66H24.0652C24.7052 90.66 25.2452 90.772 25.6852 90.996C26.1332 91.22 26.4652 91.52 26.6812 91.896C26.9052 92.272 27.0172 92.692 27.0172 93.156C27.0172 93.7 26.8572 94.196 26.5372 94.644C26.2252 95.084 25.7412 95.384 25.0852 95.544L27.1492 99H25.5172ZM22.5532 94.572H24.0652C24.5772 94.572 24.9612 94.444 25.2172 94.188C25.4812 93.932 25.6132 93.588 25.6132 93.156C25.6132 92.724 25.4852 92.388 25.2292 92.148C24.9732 91.9 24.5852 91.776 24.0652 91.776H22.5532V94.572ZM34.8272 95.532C34.8272 95.78 34.8112 96.004 34.7792 96.204H29.7272C29.7672 96.732 29.9632 97.156 30.3152 97.476C30.6672 97.796 31.0992 97.956 31.6112 97.956C32.3472 97.956 32.8672 97.648 33.1712 97.032H34.6472C34.4472 97.64 34.0832 98.14 33.5552 98.532C33.0352 98.916 32.3872 99.108 31.6112 99.108C30.9792 99.108 30.4112 98.968 29.9072 98.688C29.4112 98.4 29.0192 98 28.7312 97.488C28.4512 96.968 28.3112 96.368 28.3112 95.688C28.3112 95.008 28.4472 94.412 28.7192 93.9C28.9992 93.38 29.3872 92.98 29.8832 92.7C30.3872 92.42 30.9632 92.28 31.6112 92.28C32.2352 92.28 32.7912 92.416 33.2792 92.688C33.7672 92.96 34.1472 93.344 34.4192 93.84C34.6912 94.328 34.8272 94.892 34.8272 95.532ZM33.3992 95.1C33.3912 94.596 33.2112 94.192 32.8592 93.888C32.5072 93.584 32.0712 93.432 31.5512 93.432C31.0792 93.432 30.6752 93.584 30.3392 93.888C30.0032 94.184 29.8032 94.588 29.7392 95.1H33.3992ZM44.1774 92.28C44.6974 92.28 45.1614 92.388 45.5694 92.604C45.9854 92.82 46.3094 93.14 46.5414 93.564C46.7814 93.988 46.9014 94.5 46.9014 95.1V99H45.5454V95.304C45.5454 94.712 45.3974 94.26 45.1014 93.948C44.8054 93.628 44.4014 93.468 43.8894 93.468C43.3774 93.468 42.9694 93.628 42.6654 93.948C42.3694 94.26 42.2214 94.712 42.2214 95.304V99H40.8654V95.304C40.8654 94.712 40.7174 94.26 40.4214 93.948C40.1254 93.628 39.7214 93.468 39.2094 93.468C38.6974 93.468 38.2894 93.628 37.9854 93.948C37.6894 94.26 37.5414 94.712 37.5414 95.304V99H36.1734V92.388H37.5414V93.144C37.7654 92.872 38.0494 92.66 38.3934 92.508C38.7374 92.356 39.1054 92.28 39.4974 92.28C40.0254 92.28 40.4974 92.392 40.9134 92.616C41.3294 92.84 41.6494 93.164 41.8734 93.588C42.0734 93.188 42.3854 92.872 42.8094 92.64C43.2334 92.4 43.6894 92.28 44.1774 92.28ZM51.5102 99.108C50.8862 99.108 50.3222 98.968 49.8182 98.688C49.3142 98.4 48.9182 98 48.6302 97.488C48.3422 96.968 48.1982 96.368 48.1982 95.688C48.1982 95.016 48.3462 94.42 48.6422 93.9C48.9382 93.38 49.3422 92.98 49.8542 92.7C50.3662 92.42 50.9382 92.28 51.5702 92.28C52.2022 92.28 52.7742 92.42 53.2862 92.7C53.7982 92.98 54.2022 93.38 54.4982 93.9C54.7942 94.42 54.9422 95.016 54.9422 95.688C54.9422 96.36 54.7902 96.956 54.4862 97.476C54.1822 97.996 53.7662 98.4 53.2382 98.688C52.7182 98.968 52.1422 99.108 51.5102 99.108ZM51.5102 97.92C51.8622 97.92 52.1902 97.836 52.4942 97.668C52.8062 97.5 53.0582 97.248 53.2502 96.912C53.4422 96.576 53.5382 96.168 53.5382 95.688C53.5382 95.208 53.4462 94.804 53.2622 94.476C53.0782 94.14 52.8342 93.888 52.5302 93.72C52.2262 93.552 51.8982 93.468 51.5462 93.468C51.1942 93.468 50.8662 93.552 50.5622 93.72C50.2662 93.888 50.0302 94.14 49.8542 94.476C49.6782 94.804 49.5902 95.208 49.5902 95.688C49.5902 96.4 49.7702 96.952 50.1302 97.344C50.4982 97.728 50.9582 97.92 51.5102 97.92ZM58.8505 97.776L60.7225 92.388H62.1745L59.6545 99H58.0225L55.5145 92.388H56.9785L58.8505 97.776ZM69.2686 95.532C69.2686 95.78 69.2526 96.004 69.2206 96.204H64.1686C64.2086 96.732 64.4046 97.156 64.7566 97.476C65.1086 97.796 65.5406 97.956 66.0526 97.956C66.7886 97.956 67.3086 97.648 67.6126 97.032H69.0886C68.8886 97.64 68.5246 98.14 67.9966 98.532C67.4766 98.916 66.8286 99.108 66.0526 99.108C65.4206 99.108 64.8526 98.968 64.3486 98.688C63.8526 98.4 63.4606 98 63.1726 97.488C62.8926 96.968 62.7526 96.368 62.7526 95.688C62.7526 95.008 62.8886 94.412 63.1606 93.9C63.4406 93.38 63.8286 92.98 64.3246 92.7C64.8286 92.42 65.4046 92.28 66.0526 92.28C66.6766 92.28 67.2326 92.416 67.7206 92.688C68.2086 92.96 68.5886 93.344 68.8606 93.84C69.1326 94.328 69.2686 94.892 69.2686 95.532ZM67.8406 95.1C67.8326 94.596 67.6526 94.192 67.3006 93.888C66.9486 93.584 66.5126 93.432 65.9926 93.432C65.5206 93.432 65.1166 93.584 64.7806 93.888C64.4446 94.184 64.2446 94.588 64.1806 95.1H67.8406Z" fill="white"/>
<rect x="10" y="190" width="150" height="30" rx="15" fill="white" fill-opacity="0.1"/>
<path d="M39.5961 201.764V204.212H42.4761V205.328H39.5961V207.884H42.8361V209H38.2281V200.648H42.8361V201.764H39.5961ZM45.8891 203.348C46.0891 203.012 46.3531 202.752 46.6811 202.568C47.0171 202.376 47.4131 202.28 47.8691 202.28V203.696H47.5211C46.9851 203.696 46.5771 203.832 46.2971 204.104C46.0251 204.376 45.8891 204.848 45.8891 205.52V209H44.5211V202.388H45.8891V203.348ZM48.6706 205.664C48.6706 205 48.8066 204.412 49.0786 203.9C49.3586 203.388 49.7346 202.992 50.2066 202.712C50.6866 202.424 51.2146 202.28 51.7906 202.28C52.3106 202.28 52.7626 202.384 53.1466 202.592C53.5386 202.792 53.8506 203.044 54.0826 203.348V202.388H55.4626V209H54.0826V208.016C53.8506 208.328 53.5346 208.588 53.1346 208.796C52.7346 209.004 52.2786 209.108 51.7666 209.108C51.1986 209.108 50.6786 208.964 50.2066 208.676C49.7346 208.38 49.3586 207.972 49.0786 207.452C48.8066 206.924 48.6706 206.328 48.6706 205.664ZM54.0826 205.688C54.0826 205.232 53.9866 204.836 53.7946 204.5C53.6106 204.164 53.3666 203.908 53.0626 203.732C52.7586 203.556 52.4306 203.468 52.0786 203.468C51.7266 203.468 51.3986 203.556 51.0946 203.732C50.7906 203.9 50.5426 204.152 50.3506 204.488C50.1666 204.816 50.0746 205.208 50.0746 205.664C50.0746 206.12 50.1666 206.52 50.3506 206.864C50.5426 207.208 50.7906 207.472 51.0946 207.656C51.4066 207.832 51.7346 207.92 52.0786 207.92C52.4306 207.92 52.7586 207.832 53.0626 207.656C53.3666 207.48 53.6106 207.224 53.7946 206.888C53.9866 206.544 54.0826 206.144 54.0826 205.688ZM59.6594 209.108C59.1394 209.108 58.6714 209.016 58.2554 208.832C57.8474 208.64 57.5234 208.384 57.2834 208.064C57.0434 207.736 56.9154 207.372 56.8994 206.972H58.3154C58.3394 207.252 58.4714 207.488 58.7114 207.68C58.9594 207.864 59.2674 207.956 59.6354 207.956C60.0194 207.956 60.3154 207.884 60.5234 207.74C60.7394 207.588 60.8474 207.396 60.8474 207.164C60.8474 206.916 60.7274 206.732 60.4874 206.612C60.2554 206.492 59.8834 206.36 59.3714 206.216C58.8754 206.08 58.4714 205.948 58.1594 205.82C57.8474 205.692 57.5754 205.496 57.3434 205.232C57.1194 204.968 57.0074 204.62 57.0074 204.188C57.0074 203.836 57.1114 203.516 57.3194 203.228C57.5274 202.932 57.8234 202.7 58.2074 202.532C58.5994 202.364 59.0474 202.28 59.5514 202.28C60.3034 202.28 60.9074 202.472 61.3634 202.856C61.8274 203.232 62.0754 203.748 62.1074 204.404H60.7394C60.7154 204.108 60.5954 203.872 60.3794 203.696C60.1634 203.52 59.8714 203.432 59.5034 203.432C59.1434 203.432 58.8674 203.5 58.6754 203.636C58.4834 203.772 58.3874 203.952 58.3874 204.176C58.3874 204.352 58.4514 204.5 58.5794 204.62C58.7074 204.74 58.8634 204.836 59.0474 204.908C59.2314 204.972 59.5034 205.056 59.8634 205.16C60.3434 205.288 60.7354 205.42 61.0394 205.556C61.3514 205.684 61.6194 205.876 61.8434 206.132C62.0674 206.388 62.1834 206.728 62.1914 207.152C62.1914 207.528 62.0874 207.864 61.8794 208.16C61.6714 208.456 61.3754 208.688 60.9914 208.856C60.6154 209.024 60.1714 209.108 59.6594 209.108ZM69.7295 205.532C69.7295 205.78 69.7135 206.004 69.6815 206.204H64.6295C64.6695 206.732 64.8655 207.156 65.2175 207.476C65.5695 207.796 66.0015 207.956 66.5135 207.956C67.2495 207.956 67.7695 207.648 68.0735 207.032H69.5495C69.3495 207.64 68.9855 208.14 68.4575 208.532C67.9375 208.916 67.2895 209.108 66.5135 209.108C65.8815 209.108 65.3135 208.968 64.8095 208.688C64.3135 208.4 63.9215 208 63.6335 207.488C63.3535 206.968 63.2135 206.368 63.2135 205.688C63.2135 205.008 63.3495 204.412 63.6215 203.9C63.9015 203.38 64.2895 202.98 64.7855 202.7C65.2895 202.42 65.8655 202.28 66.5135 202.28C67.1375 202.28 67.6935 202.416 68.1815 202.688C68.6695 202.96 69.0495 203.344 69.3215 203.84C69.5935 204.328 69.7295 204.892 69.7295 205.532ZM68.3015 205.1C68.2935 204.596 68.1135 204.192 67.7615 203.888C67.4095 203.584 66.9735 203.432 66.4535 203.432C65.9815 203.432 65.5775 203.584 65.2415 203.888C64.9055 204.184 64.7055 204.588 64.6415 205.1H68.3015ZM75.789 203.504V207.164C75.789 207.412 75.845 207.592 75.957 207.704C76.077 207.808 76.277 207.86 76.557 207.86H77.397V209H76.317C75.701 209 75.229 208.856 74.901 208.568C74.573 208.28 74.409 207.812 74.409 207.164V203.504H73.629V202.388H74.409V200.744H75.789V202.388H77.397V203.504H75.789ZM82.0778 202.28C82.5818 202.28 83.0298 202.388 83.4218 202.604C83.8218 202.82 84.1338 203.14 84.3578 203.564C84.5898 203.988 84.7058 204.5 84.7058 205.1V209H83.3498V205.304C83.3498 204.712 83.2018 204.26 82.9058 203.948C82.6098 203.628 82.2058 203.468 81.6938 203.468C81.1818 203.468 80.7738 203.628 80.4698 203.948C80.1738 204.26 80.0258 204.712 80.0258 205.304V209H78.6578V200.12H80.0258V203.156C80.2578 202.876 80.5498 202.66 80.9018 202.508C81.2618 202.356 81.6538 202.28 82.0778 202.28ZM92.5108 205.532C92.5108 205.78 92.4948 206.004 92.4628 206.204H87.4108C87.4508 206.732 87.6468 207.156 87.9988 207.476C88.3508 207.796 88.7828 207.956 89.2948 207.956C90.0308 207.956 90.5508 207.648 90.8548 207.032H92.3308C92.1308 207.64 91.7668 208.14 91.2388 208.532C90.7188 208.916 90.0708 209.108 89.2948 209.108C88.6628 209.108 88.0948 208.968 87.5908 208.688C87.0948 208.4 86.7028 208 86.4148 207.488C86.1348 206.968 85.9948 206.368 85.9948 205.688C85.9948 205.008 86.1308 204.412 86.4028 203.9C86.6828 203.38 87.0708 202.98 87.5668 202.7C88.0708 202.42 88.6468 202.28 89.2948 202.28C89.9188 202.28 90.4748 202.416 90.9628 202.688C91.4508 202.96 91.8308 203.344 92.1028 203.84C92.3748 204.328 92.5108 204.892 92.5108 205.532ZM91.0828 205.1C91.0748 204.596 90.8948 204.192 90.5428 203.888C90.1908 203.584 89.7548 203.432 89.2348 203.432C88.7628 203.432 88.3588 203.584 88.0228 203.888C87.6868 204.184 87.4868 204.588 87.4228 205.1H91.0828ZM99.7462 203.504H98.5222V209H97.1422V203.504H96.3622V202.388H97.1422V201.92C97.1422 201.16 97.3422 200.608 97.7422 200.264C98.1502 199.912 98.7862 199.736 99.6502 199.736V200.876C99.2342 200.876 98.9422 200.956 98.7742 201.116C98.6062 201.268 98.5222 201.536 98.5222 201.92V202.388H99.7462V203.504ZM102.327 203.348C102.527 203.012 102.791 202.752 103.119 202.568C103.455 202.376 103.851 202.28 104.307 202.28V203.696H103.959C103.423 203.696 103.015 203.832 102.735 204.104C102.463 204.376 102.327 204.848 102.327 205.52V209H100.959V202.388H102.327V203.348ZM105.108 205.664C105.108 205 105.244 204.412 105.516 203.9C105.796 203.388 106.172 202.992 106.644 202.712C107.124 202.424 107.652 202.28 108.228 202.28C108.748 202.28 109.2 202.384 109.584 202.592C109.976 202.792 110.288 203.044 110.52 203.348V202.388H111.9V209H110.52V208.016C110.288 208.328 109.972 208.588 109.572 208.796C109.172 209.004 108.716 209.108 108.204 209.108C107.636 209.108 107.116 208.964 106.644 208.676C106.172 208.38 105.796 207.972 105.516 207.452C105.244 206.924 105.108 206.328 105.108 205.664ZM110.52 205.688C110.52 205.232 110.424 204.836 110.232 204.5C110.048 204.164 109.804 203.908 109.5 203.732C109.196 203.556 108.868 203.468 108.516 203.468C108.164 203.468 107.836 203.556 107.532 203.732C107.228 203.9 106.98 204.152 106.788 204.488C106.604 204.816 106.512 205.208 106.512 205.664C106.512 206.12 106.604 206.52 106.788 206.864C106.98 207.208 107.228 207.472 107.532 207.656C107.844 207.832 108.172 207.92 108.516 207.92C108.868 207.92 109.196 207.832 109.5 207.656C109.804 207.48 110.048 207.224 110.232 206.888C110.424 206.544 110.52 206.144 110.52 205.688ZM121.701 202.28C122.221 202.28 122.685 202.388 123.093 202.604C123.509 202.82 123.833 203.14 124.065 203.564C124.305 203.988 124.425 204.5 124.425 205.1V209H123.069V205.304C123.069 204.712 122.921 204.26 122.625 203.948C122.329 203.628 121.925 203.468 121.413 203.468C120.901 203.468 120.493 203.628 120.189 203.948C119.893 204.26 119.745 204.712 119.745 205.304V209H118.389V205.304C118.389 204.712 118.241 204.26 117.945 203.948C117.649 203.628 117.245 203.468 116.733 203.468C116.221 203.468 115.813 203.628 115.509 203.948C115.213 204.26 115.065 204.712 115.065 205.304V209H113.697V202.388H115.065V203.144C115.289 202.872 115.573 202.66 115.917 202.508C116.261 202.356 116.629 202.28 117.021 202.28C117.549 202.28 118.021 202.392 118.437 202.616C118.853 202.84 119.173 203.164 119.397 203.588C119.597 203.188 119.909 202.872 120.333 202.64C120.757 202.4 121.213 202.28 121.701 202.28ZM132.226 205.532C132.226 205.78 132.21 206.004 132.178 206.204H127.126C127.166 206.732 127.362 207.156 127.714 207.476C128.066 207.796 128.498 207.956 129.01 207.956C129.746 207.956 130.266 207.648 130.57 207.032H132.046C131.846 207.64 131.482 208.14 130.954 208.532C130.434 208.916 129.786 209.108 129.01 209.108C128.378 209.108 127.81 208.968 127.306 208.688C126.81 208.4 126.418 208 126.13 207.488C125.85 206.968 125.71 206.368 125.71 205.688C125.71 205.008 125.846 204.412 126.118 203.9C126.398 203.38 126.786 202.98 127.282 202.7C127.786 202.42 128.362 202.28 129.01 202.28C129.634 202.28 130.19 202.416 130.678 202.688C131.166 202.96 131.546 203.344 131.818 203.84C132.09 204.328 132.226 204.892 132.226 205.532ZM130.798 205.1C130.79 204.596 130.61 204.192 130.258 203.888C129.906 203.584 129.47 203.432 128.95 203.432C128.478 203.432 128.074 203.584 127.738 203.888C127.402 204.184 127.202 204.588 127.138 205.1H130.798Z" fill="white"/>
<rect x="10" y="270" width="150" height="30" rx="15" fill="white" fill-opacity="0.1"/>
<path d="M57.3433 283.144C57.3433 283.568 57.2433 283.968 57.0433 284.344C56.8433 284.72 56.5233 285.028 56.0833 285.268C55.6433 285.5 55.0793 285.616 54.3913 285.616H52.8793V289H51.5113V280.66H54.3913C55.0313 280.66 55.5713 280.772 56.0113 280.996C56.4593 281.212 56.7913 281.508 57.0073 281.884C57.2313 282.26 57.3433 282.68 57.3433 283.144ZM54.3913 284.5C54.9113 284.5 55.2993 284.384 55.5553 284.152C55.8113 283.912 55.9393 283.576 55.9393 283.144C55.9393 282.232 55.4233 281.776 54.3913 281.776H52.8793V284.5H54.3913ZM59.344 281.512C59.096 281.512 58.888 281.428 58.72 281.26C58.552 281.092 58.468 280.884 58.468 280.636C58.468 280.388 58.552 280.18 58.72 280.012C58.888 279.844 59.096 279.76 59.344 279.76C59.584 279.76 59.788 279.844 59.956 280.012C60.124 280.18 60.208 280.388 60.208 280.636C60.208 280.884 60.124 281.092 59.956 281.26C59.788 281.428 59.584 281.512 59.344 281.512ZM60.016 282.388V289H58.648V282.388H60.016ZM61.3561 285.688C61.3561 285.008 61.4921 284.412 61.7641 283.9C62.0441 283.38 62.4281 282.98 62.9161 282.7C63.4041 282.42 63.9641 282.28 64.5961 282.28C65.3961 282.28 66.0561 282.472 66.5761 282.856C67.1041 283.232 67.4601 283.772 67.6441 284.476H66.1681C66.0481 284.148 65.8561 283.892 65.5921 283.708C65.3281 283.524 64.9961 283.432 64.5961 283.432C64.0361 283.432 63.5881 283.632 63.2521 284.032C62.9241 284.424 62.7601 284.976 62.7601 285.688C62.7601 286.4 62.9241 286.956 63.2521 287.356C63.5881 287.756 64.0361 287.956 64.5961 287.956C65.3881 287.956 65.9121 287.608 66.1681 286.912H67.6441C67.4521 287.584 67.0921 288.12 66.5641 288.52C66.0361 288.912 65.3801 289.108 64.5961 289.108C63.9641 289.108 63.4041 288.968 62.9161 288.688C62.4281 288.4 62.0441 288 61.7641 287.488C61.4921 286.968 61.3561 286.368 61.3561 285.688ZM71.6234 285.7L74.6714 289H72.8234L70.3754 286.156V289H69.0074V280.12H70.3754V285.28L72.7754 282.388H74.6714L71.6234 285.7ZM78.3131 285.664C78.3131 285 78.4491 284.412 78.7211 283.9C79.0011 283.388 79.3771 282.992 79.8491 282.712C80.3291 282.424 80.8571 282.28 81.4331 282.28C81.9531 282.28 82.4051 282.384 82.7891 282.592C83.1811 282.792 83.4931 283.044 83.7251 283.348V282.388H85.1051V289H83.7251V288.016C83.4931 288.328 83.1771 288.588 82.7771 288.796C82.3771 289.004 81.9211 289.108 81.4091 289.108C80.8411 289.108 80.3211 288.964 79.8491 288.676C79.3771 288.38 79.0011 287.972 78.7211 287.452C78.4491 286.924 78.3131 286.328 78.3131 285.664ZM83.7251 285.688C83.7251 285.232 83.6291 284.836 83.4371 284.5C83.2531 284.164 83.0091 283.908 82.7051 283.732C82.4011 283.556 82.0731 283.468 81.7211 283.468C81.3691 283.468 81.0411 283.556 80.7371 283.732C80.4331 283.9 80.1851 284.152 79.9931 284.488C79.8091 284.816 79.7171 285.208 79.7171 285.664C79.7171 286.12 79.8091 286.52 79.9931 286.864C80.1851 287.208 80.4331 287.472 80.7371 287.656C81.0491 287.832 81.3771 287.92 81.7211 287.92C82.0731 287.92 82.4011 287.832 82.7051 287.656C83.0091 287.48 83.2531 287.224 83.4371 286.888C83.6291 286.544 83.7251 286.144 83.7251 285.688ZM89.5631 285.688C89.5631 285.008 89.6991 284.412 89.9711 283.9C90.2511 283.38 90.6351 282.98 91.1231 282.7C91.6111 282.42 92.1711 282.28 92.8031 282.28C93.6031 282.28 94.2631 282.472 94.7831 282.856C95.3111 283.232 95.6671 283.772 95.8511 284.476H94.3751C94.2551 284.148 94.0631 283.892 93.7991 283.708C93.5351 283.524 93.2031 283.432 92.8031 283.432C92.2431 283.432 91.7951 283.632 91.4591 284.032C91.1311 284.424 90.9671 284.976 90.9671 285.688C90.9671 286.4 91.1311 286.956 91.4591 287.356C91.7951 287.756 92.2431 287.956 92.8031 287.956C93.5951 287.956 94.1191 287.608 94.3751 286.912H95.8511C95.6591 287.584 95.2991 288.12 94.7711 288.52C94.2431 288.912 93.5871 289.108 92.8031 289.108C92.1711 289.108 91.6111 288.968 91.1231 288.688C90.6351 288.4 90.2511 288 89.9711 287.488C89.6991 286.968 89.5631 286.368 89.5631 285.688ZM100.082 289.108C99.4585 289.108 98.8945 288.968 98.3905 288.688C97.8865 288.4 97.4905 288 97.2025 287.488C96.9145 286.968 96.7705 286.368 96.7705 285.688C96.7705 285.016 96.9185 284.42 97.2145 283.9C97.5105 283.38 97.9145 282.98 98.4265 282.7C98.9385 282.42 99.5105 282.28 100.142 282.28C100.774 282.28 101.346 282.42 101.858 282.7C102.37 282.98 102.774 283.38 103.07 283.9C103.366 284.42 103.514 285.016 103.514 285.688C103.514 286.36 103.362 286.956 103.058 287.476C102.754 287.996 102.338 288.4 101.81 288.688C101.29 288.968 100.714 289.108 100.082 289.108ZM100.082 287.92C100.434 287.92 100.762 287.836 101.066 287.668C101.378 287.5 101.63 287.248 101.822 286.912C102.014 286.576 102.11 286.168 102.11 285.688C102.11 285.208 102.018 284.804 101.834 284.476C101.65 284.14 101.406 283.888 101.102 283.72C100.798 283.552 100.47 283.468 100.118 283.468C99.7665 283.468 99.4385 283.552 99.1345 283.72C98.8385 283.888 98.6025 284.14 98.4265 284.476C98.2505 284.804 98.1625 285.208 98.1625 285.688C98.1625 286.4 98.3425 286.952 98.7025 287.344C99.0705 287.728 99.5305 287.92 100.082 287.92ZM106.235 280.12V289H104.867V280.12H106.235ZM110.899 289.108C110.275 289.108 109.711 288.968 109.207 288.688C108.703 288.4 108.307 288 108.019 287.488C107.731 286.968 107.587 286.368 107.587 285.688C107.587 285.016 107.735 284.42 108.031 283.9C108.327 283.38 108.731 282.98 109.243 282.7C109.755 282.42 110.327 282.28 110.959 282.28C111.591 282.28 112.163 282.42 112.675 282.7C113.187 282.98 113.591 283.38 113.887 283.9C114.183 284.42 114.331 285.016 114.331 285.688C114.331 286.36 114.179 286.956 113.875 287.476C113.571 287.996 113.155 288.4 112.627 288.688C112.107 288.968 111.531 289.108 110.899 289.108ZM110.899 287.92C111.251 287.92 111.579 287.836 111.883 287.668C112.195 287.5 112.447 287.248 112.639 286.912C112.831 286.576 112.927 286.168 112.927 285.688C112.927 285.208 112.835 284.804 112.651 284.476C112.467 284.14 112.223 283.888 111.919 283.72C111.615 283.552 111.287 283.468 110.935 283.468C110.583 283.468 110.255 283.552 109.951 283.72C109.655 283.888 109.419 284.14 109.243 284.476C109.067 284.804 108.979 285.208 108.979 285.688C108.979 286.4 109.159 286.952 109.519 287.344C109.887 287.728 110.347 287.92 110.899 287.92ZM117.051 283.348C117.251 283.012 117.515 282.752 117.843 282.568C118.179 282.376 118.575 282.28 119.031 282.28V283.696H118.683C118.147 283.696 117.739 283.832 117.459 284.104C117.187 284.376 117.051 284.848 117.051 285.52V289H115.683V282.388H117.051V283.348Z" fill="white"/>
<rect x="10" y="310" width="150" height="30" rx="15" fill="white" fill-opacity="0.1"/>
<path d="M31.0562 329.084C30.4962 329.084 29.9922 328.988 29.5442 328.796C29.0962 328.596 28.7442 328.316 28.4882 327.956C28.2322 327.596 28.1042 327.176 28.1042 326.696H29.5682C29.6002 327.056 29.7402 327.352 29.9882 327.584C30.2442 327.816 30.6002 327.932 31.0562 327.932C31.5282 327.932 31.8962 327.82 32.1602 327.596C32.4242 327.364 32.5562 327.068 32.5562 326.708C32.5562 326.428 32.4722 326.2 32.3042 326.024C32.1442 325.848 31.9402 325.712 31.6922 325.616C31.4522 325.52 31.1162 325.416 30.6842 325.304C30.1402 325.16 29.6962 325.016 29.3522 324.872C29.0162 324.72 28.7282 324.488 28.4882 324.176C28.2482 323.864 28.1282 323.448 28.1282 322.928C28.1282 322.448 28.2482 322.028 28.4882 321.668C28.7282 321.308 29.0642 321.032 29.4962 320.84C29.9282 320.648 30.4282 320.552 30.9962 320.552C31.8042 320.552 32.4642 320.756 32.9762 321.164C33.4962 321.564 33.7842 322.116 33.8402 322.82H32.3282C32.3042 322.516 32.1602 322.256 31.8962 322.04C31.6322 321.824 31.2842 321.716 30.8522 321.716C30.4602 321.716 30.1402 321.816 29.8922 322.016C29.6442 322.216 29.5202 322.504 29.5202 322.88C29.5202 323.136 29.5962 323.348 29.7482 323.516C29.9082 323.676 30.1082 323.804 30.3482 323.9C30.5882 323.996 30.9162 324.1 31.3322 324.212C31.8842 324.364 32.3322 324.516 32.6762 324.668C33.0282 324.82 33.3242 325.056 33.5642 325.376C33.8122 325.688 33.9362 326.108 33.9362 326.636C33.9362 327.06 33.8202 327.46 33.5882 327.836C33.3642 328.212 33.0322 328.516 32.5922 328.748C32.1602 328.972 31.6482 329.084 31.0562 329.084ZM38.9704 322.28C39.4744 322.28 39.9224 322.388 40.3144 322.604C40.7144 322.82 41.0264 323.14 41.2504 323.564C41.4824 323.988 41.5984 324.5 41.5984 325.1V329H40.2424V325.304C40.2424 324.712 40.0944 324.26 39.7984 323.948C39.5024 323.628 39.0984 323.468 38.5864 323.468C38.0744 323.468 37.6664 323.628 37.3624 323.948C37.0664 324.26 36.9184 324.712 36.9184 325.304V329H35.5504V320.12H36.9184V323.156C37.1504 322.876 37.4424 322.66 37.7944 322.508C38.1544 322.356 38.5464 322.28 38.9704 322.28ZM46.2114 329.108C45.5874 329.108 45.0234 328.968 44.5194 328.688C44.0154 328.4 43.6194 328 43.3314 327.488C43.0434 326.968 42.8994 326.368 42.8994 325.688C42.8994 325.016 43.0474 324.42 43.3434 323.9C43.6394 323.38 44.0434 322.98 44.5554 322.7C45.0674 322.42 45.6394 322.28 46.2714 322.28C46.9034 322.28 47.4754 322.42 47.9874 322.7C48.4994 322.98 48.9034 323.38 49.1994 323.9C49.4954 324.42 49.6434 325.016 49.6434 325.688C49.6434 326.36 49.4914 326.956 49.1874 327.476C48.8834 327.996 48.4674 328.4 47.9394 328.688C47.4194 328.968 46.8434 329.108 46.2114 329.108ZM46.2114 327.92C46.5634 327.92 46.8914 327.836 47.1954 327.668C47.5074 327.5 47.7594 327.248 47.9514 326.912C48.1434 326.576 48.2394 326.168 48.2394 325.688C48.2394 325.208 48.1474 324.804 47.9634 324.476C47.7794 324.14 47.5354 323.888 47.2314 323.72C46.9274 323.552 46.5994 323.468 46.2474 323.468C45.8954 323.468 45.5674 323.552 45.2634 323.72C44.9674 323.888 44.7314 324.14 44.5554 324.476C44.3794 324.804 44.2914 325.208 44.2914 325.688C44.2914 326.4 44.4714 326.952 44.8314 327.344C45.1994 327.728 45.6594 327.92 46.2114 327.92ZM59.8757 322.388L57.8237 329H56.3837L55.0517 324.116L53.7197 329H52.2797L50.2157 322.388H51.6077L52.9877 327.704L54.3917 322.388H55.8197L57.1637 327.68L58.5317 322.388H59.8757ZM65.338 317.672L62.074 331.1H60.73L63.982 317.672H65.338ZM70.4821 322.28C70.9861 322.28 71.4341 322.388 71.8261 322.604C72.2261 322.82 72.5381 323.14 72.7621 323.564C72.9941 323.988 73.1101 324.5 73.1101 325.1V329H71.7541V325.304C71.7541 324.712 71.6061 324.26 71.3101 323.948C71.0141 323.628 70.6101 323.468 70.0981 323.468C69.5861 323.468 69.1781 323.628 68.8741 323.948C68.5781 324.26 68.4301 324.712 68.4301 325.304V329H67.0621V320.12H68.4301V323.156C68.6621 322.876 68.9541 322.66 69.3061 322.508C69.6661 322.356 70.0581 322.28 70.4821 322.28ZM75.5511 321.512C75.3031 321.512 75.0951 321.428 74.9271 321.26C74.7591 321.092 74.6751 320.884 74.6751 320.636C74.6751 320.388 74.7591 320.18 74.9271 320.012C75.0951 319.844 75.3031 319.76 75.5511 319.76C75.7911 319.76 75.9951 319.844 76.1631 320.012C76.3311 320.18 76.4151 320.388 76.4151 320.636C76.4151 320.884 76.3311 321.092 76.1631 321.26C75.9951 321.428 75.7911 321.512 75.5511 321.512ZM76.2231 322.388V329H74.8551V322.388H76.2231ZM77.5631 325.664C77.5631 325 77.6991 324.412 77.9711 323.9C78.2511 323.388 78.6271 322.992 79.0991 322.712C79.5791 322.424 80.1111 322.28 80.6951 322.28C81.1271 322.28 81.5511 322.376 81.9671 322.568C82.3911 322.752 82.7271 323 82.9751 323.312V320.12H84.3551V329H82.9751V328.004C82.7511 328.324 82.4391 328.588 82.0391 328.796C81.6471 329.004 81.1951 329.108 80.6831 329.108C80.1071 329.108 79.5791 328.964 79.0991 328.676C78.6271 328.38 78.2511 327.972 77.9711 327.452C77.6991 326.924 77.5631 326.328 77.5631 325.664ZM82.9751 325.688C82.9751 325.232 82.8791 324.836 82.6871 324.5C82.5031 324.164 82.2591 323.908 81.9551 323.732C81.6511 323.556 81.3231 323.468 80.9711 323.468C80.6191 323.468 80.2911 323.556 79.9871 323.732C79.6831 323.9 79.4351 324.152 79.2431 324.488C79.0591 324.816 78.9671 325.208 78.9671 325.664C78.9671 326.12 79.0591 326.52 79.2431 326.864C79.4351 327.208 79.6831 327.472 79.9871 327.656C80.2991 327.832 80.6271 327.92 80.9711 327.92C81.3231 327.92 81.6511 327.832 81.9551 327.656C82.2591 327.48 82.5031 327.224 82.6871 326.888C82.8791 326.544 82.9751 326.144 82.9751 325.688ZM92.212 325.532C92.212 325.78 92.196 326.004 92.164 326.204H87.112C87.152 326.732 87.348 327.156 87.7 327.476C88.052 327.796 88.484 327.956 88.996 327.956C89.732 327.956 90.252 327.648 90.556 327.032H92.032C91.832 327.64 91.468 328.14 90.94 328.532C90.42 328.916 89.772 329.108 88.996 329.108C88.364 329.108 87.796 328.968 87.292 328.688C86.796 328.4 86.404 328 86.116 327.488C85.836 326.968 85.696 326.368 85.696 325.688C85.696 325.008 85.832 324.412 86.104 323.9C86.384 323.38 86.772 322.98 87.268 322.7C87.772 322.42 88.348 322.28 88.996 322.28C89.62 322.28 90.176 322.416 90.664 322.688C91.152 322.96 91.532 323.344 91.804 323.84C92.076 324.328 92.212 324.892 92.212 325.532ZM90.784 325.1C90.776 324.596 90.596 324.192 90.244 323.888C89.892 323.584 89.456 323.432 88.936 323.432C88.464 323.432 88.06 323.584 87.724 323.888C87.388 324.184 87.188 324.588 87.124 325.1H90.784ZM98.2714 323.504V327.164C98.2714 327.412 98.3274 327.592 98.4394 327.704C98.5594 327.808 98.7594 327.86 99.0394 327.86H99.8794V329H98.7994C98.1834 329 97.7114 328.856 97.3834 328.568C97.0554 328.28 96.8914 327.812 96.8914 327.164V323.504H96.1114V322.388H96.8914V320.744H98.2714V322.388H99.8794V323.504H98.2714ZM104.56 322.28C105.064 322.28 105.512 322.388 105.904 322.604C106.304 322.82 106.616 323.14 106.84 323.564C107.072 323.988 107.188 324.5 107.188 325.1V329H105.832V325.304C105.832 324.712 105.684 324.26 105.388 323.948C105.092 323.628 104.688 323.468 104.176 323.468C103.664 323.468 103.256 323.628 102.952 323.948C102.656 324.26 102.508 324.712 102.508 325.304V329H101.14V320.12H102.508V323.156C102.74 322.876 103.032 322.66 103.384 322.508C103.744 322.356 104.136 322.28 104.56 322.28ZM114.993 325.532C114.993 325.78 114.977 326.004 114.945 326.204H109.893C109.933 326.732 110.129 327.156 110.481 327.476C110.833 327.796 111.265 327.956 111.777 327.956C112.513 327.956 113.033 327.648 113.337 327.032H114.813C114.613 327.64 114.249 328.14 113.721 328.532C113.201 328.916 112.553 329.108 111.777 329.108C111.145 329.108 110.577 328.968 110.073 328.688C109.577 328.4 109.185 328 108.897 327.488C108.617 326.968 108.477 326.368 108.477 325.688C108.477 325.008 108.613 324.412 108.885 323.9C109.165 323.38 109.553 322.98 110.049 322.7C110.553 322.42 111.129 322.28 111.777 322.28C112.401 322.28 112.957 322.416 113.445 322.688C113.933 322.96 114.313 323.344 114.585 323.84C114.857 324.328 114.993 324.892 114.993 325.532ZM113.565 325.1C113.557 324.596 113.377 324.192 113.025 323.888C112.673 323.584 112.237 323.432 111.717 323.432C111.245 323.432 110.841 323.584 110.505 323.888C110.169 324.184 109.969 324.588 109.905 325.1H113.565ZM122.121 322.28C122.633 322.28 123.085 322.384 123.477 322.592C123.877 322.792 124.189 323.044 124.413 323.348V322.388H125.793V329.108C125.793 329.716 125.665 330.256 125.409 330.728C125.153 331.208 124.781 331.584 124.293 331.856C123.813 332.128 123.237 332.264 122.565 332.264C121.669 332.264 120.925 332.052 120.333 331.628C119.741 331.212 119.405 330.644 119.325 329.924H120.681C120.785 330.268 121.005 330.544 121.341 330.752C121.685 330.968 122.093 331.076 122.565 331.076C123.117 331.076 123.561 330.908 123.897 330.572C124.241 330.236 124.413 329.748 124.413 329.108V328.004C124.181 328.316 123.865 328.58 123.465 328.796C123.073 329.004 122.625 329.108 122.121 329.108C121.545 329.108 121.017 328.964 120.537 328.676C120.065 328.38 119.689 327.972 119.409 327.452C119.137 326.924 119.001 326.328 119.001 325.664C119.001 325 119.137 324.412 119.409 323.9C119.689 323.388 120.065 322.992 120.537 322.712C121.017 322.424 121.545 322.28 122.121 322.28ZM124.413 325.688C124.413 325.232 124.317 324.836 124.125 324.5C123.941 324.164 123.697 323.908 123.393 323.732C123.089 323.556 122.761 323.468 122.409 323.468C122.057 323.468 121.729 323.556 121.425 323.732C121.121 323.9 120.873 324.152 120.681 324.488C120.497 324.816 120.405 325.208 120.405 325.664C120.405 326.12 120.497 326.52 120.681 326.864C120.873 327.208 121.121 327.472 121.425 327.656C121.737 327.832 122.065 327.92 122.409 327.92C122.761 327.92 123.089 327.832 123.393 327.656C123.697 327.48 123.941 327.224 124.125 326.888C124.317 326.544 124.413 326.144 124.413 325.688ZM128.957 323.348C129.157 323.012 129.421 322.752 129.749 322.568C130.085 322.376 130.481 322.28 130.937 322.28V323.696H130.589C130.053 323.696 129.645 323.832 129.365 324.104C129.093 324.376 128.957 324.848 128.957 325.52V329H127.589V322.388H128.957V323.348ZM132.891 321.512C132.643 321.512 132.435 321.428 132.267 321.26C132.099 321.092 132.015 320.884 132.015 320.636C132.015 320.388 132.099 320.18 132.267 320.012C132.435 319.844 132.643 319.76 132.891 319.76C133.131 319.76 133.335 319.844 133.503 320.012C133.671 320.18 133.755 320.388 133.755 320.636C133.755 320.884 133.671 321.092 133.503 321.26C133.335 321.428 133.131 321.512 132.891 321.512ZM133.563 322.388V329H132.195V322.388H133.563ZM134.903 325.664C134.903 325 135.039 324.412 135.311 323.9C135.591 323.388 135.967 322.992 136.439 322.712C136.919 322.424 137.451 322.28 138.035 322.28C138.467 322.28 138.891 322.376 139.307 322.568C139.731 322.752 140.067 323 140.315 323.312V320.12H141.695V329H140.315V328.004C140.091 328.324 139.779 328.588 139.379 328.796C138.987 329.004 138.535 329.108 138.023 329.108C137.447 329.108 136.919 328.964 136.439 328.676C135.967 328.38 135.591 327.972 135.311 327.452C135.039 326.924 134.903 326.328 134.903 325.664ZM140.315 325.688C140.315 325.232 140.219 324.836 140.027 324.5C139.843 324.164 139.599 323.908 139.295 323.732C138.991 323.556 138.663 323.468 138.311 323.468C137.959 323.468 137.631 323.556 137.327 323.732C137.023 323.9 136.775 324.152 136.583 324.488C136.399 324.816 136.307 325.208 136.307 325.664C136.307 326.12 136.399 326.52 136.583 326.864C136.775 327.208 137.023 327.472 137.327 327.656C137.639 327.832 137.967 327.92 138.311 327.92C138.663 327.92 138.991 327.832 139.295 327.656C139.599 327.48 139.843 327.224 140.027 326.888C140.219 326.544 140.315 326.144 140.315 325.688Z" fill="white"/>
<rect x="10" y="230" width="70" height="30" rx="15" fill="white" fill-opacity="0.1"/>
<path d="M40.444 244.812C40.444 243.996 40.632 243.264 41.008 242.616C41.392 241.968 41.908 241.464 42.556 241.104C43.212 240.736 43.928 240.552 44.704 240.552C45.592 240.552 46.38 240.772 47.068 241.212C47.764 241.644 48.268 242.26 48.58 243.06H46.936C46.72 242.62 46.42 242.292 46.036 242.076C45.652 241.86 45.208 241.752 44.704 241.752C44.152 241.752 43.66 241.876 43.228 242.124C42.796 242.372 42.456 242.728 42.208 243.192C41.968 243.656 41.848 244.196 41.848 244.812C41.848 245.428 41.968 245.968 42.208 246.432C42.456 246.896 42.796 247.256 43.228 247.512C43.66 247.76 44.152 247.884 44.704 247.884C45.208 247.884 45.652 247.776 46.036 247.56C46.42 247.344 46.72 247.016 46.936 246.576H48.58C48.268 247.376 47.764 247.992 47.068 248.424C46.38 248.856 45.592 249.072 44.704 249.072C43.92 249.072 43.204 248.892 42.556 248.532C41.908 248.164 41.392 247.656 41.008 247.008C40.632 246.36 40.444 245.628 40.444 244.812ZM53.0493 249.108C52.4253 249.108 51.8613 248.968 51.3573 248.688C50.8533 248.4 50.4573 248 50.1693 247.488C49.8813 246.968 49.7373 246.368 49.7373 245.688C49.7373 245.016 49.8853 244.42 50.1813 243.9C50.4773 243.38 50.8813 242.98 51.3933 242.7C51.9053 242.42 52.4773 242.28 53.1093 242.28C53.7413 242.28 54.3133 242.42 54.8253 242.7C55.3373 242.98 55.7413 243.38 56.0373 243.9C56.3333 244.42 56.4813 245.016 56.4813 245.688C56.4813 246.36 56.3293 246.956 56.0253 247.476C55.7213 247.996 55.3053 248.4 54.7773 248.688C54.2573 248.968 53.6813 249.108 53.0493 249.108ZM53.0493 247.92C53.4013 247.92 53.7293 247.836 54.0333 247.668C54.3453 247.5 54.5973 247.248 54.7893 246.912C54.9813 246.576 55.0773 246.168 55.0773 245.688C55.0773 245.208 54.9853 244.804 54.8013 244.476C54.6173 244.14 54.3733 243.888 54.0693 243.72C53.7653 243.552 53.4373 243.468 53.0853 243.468C52.7333 243.468 52.4053 243.552 52.1013 243.72C51.8053 243.888 51.5693 244.14 51.3933 244.476C51.2173 244.804 51.1293 245.208 51.1293 245.688C51.1293 246.4 51.3093 246.952 51.6693 247.344C52.0373 247.728 52.4973 247.92 53.0493 247.92ZM59.2016 243.36C59.4336 243.056 59.7496 242.8 60.1496 242.592C60.5496 242.384 61.0016 242.28 61.5056 242.28C62.0816 242.28 62.6056 242.424 63.0776 242.712C63.5576 242.992 63.9336 243.388 64.2056 243.9C64.4776 244.412 64.6136 245 64.6136 245.664C64.6136 246.328 64.4776 246.924 64.2056 247.452C63.9336 247.972 63.5576 248.38 63.0776 248.676C62.6056 248.964 62.0816 249.108 61.5056 249.108C61.0016 249.108 60.5536 249.008 60.1616 248.808C59.7696 248.6 59.4496 248.344 59.2016 248.04V252.144H57.8336V242.388H59.2016V243.36ZM63.2216 245.664C63.2216 245.208 63.1256 244.816 62.9336 244.488C62.7496 244.152 62.5016 243.9 62.1896 243.732C61.8856 243.556 61.5576 243.468 61.2056 243.468C60.8616 243.468 60.5336 243.556 60.2216 243.732C59.9176 243.908 59.6696 244.164 59.4776 244.5C59.2936 244.836 59.2016 245.232 59.2016 245.688C59.2016 246.144 59.2936 246.544 59.4776 246.888C59.6696 247.224 59.9176 247.48 60.2216 247.656C60.5336 247.832 60.8616 247.92 61.2056 247.92C61.5576 247.92 61.8856 247.832 62.1896 247.656C62.5016 247.472 62.7496 247.208 62.9336 246.864C63.1256 246.52 63.2216 246.12 63.2216 245.664ZM71.9184 242.388L67.8624 252.108H66.4464L67.7904 248.892L65.1864 242.388H66.7104L68.5704 247.428L70.5024 242.388H71.9184Z" fill="white"/>
<rect x="90" y="230" width="70" height="30" rx="15" fill="white" fill-opacity="0.1"/>
<path d="M126.732 243.144C126.732 243.568 126.632 243.968 126.432 244.344C126.232 244.72 125.912 245.028 125.472 245.268C125.032 245.5 124.468 245.616 123.78 245.616H122.268V249H120.9V240.66H123.78C124.42 240.66 124.96 240.772 125.4 240.996C125.848 241.212 126.18 241.508 126.396 241.884C126.62 242.26 126.732 242.68 126.732 243.144ZM123.78 244.5C124.3 244.5 124.688 244.384 124.944 244.152C125.2 243.912 125.328 243.576 125.328 243.144C125.328 242.232 124.812 241.776 123.78 241.776H122.268V244.5H123.78ZM127.581 245.664C127.581 245 127.717 244.412 127.989 243.9C128.269 243.388 128.645 242.992 129.117 242.712C129.597 242.424 130.125 242.28 130.701 242.28C131.221 242.28 131.673 242.384 132.057 242.592C132.449 242.792 132.761 243.044 132.993 243.348V242.388H134.373V249H132.993V248.016C132.761 248.328 132.445 248.588 132.045 248.796C131.645 249.004 131.189 249.108 130.677 249.108C130.109 249.108 129.589 248.964 129.117 248.676C128.645 248.38 128.269 247.972 127.989 247.452C127.717 246.924 127.581 246.328 127.581 245.664ZM132.993 245.688C132.993 245.232 132.897 244.836 132.705 244.5C132.521 244.164 132.277 243.908 131.973 243.732C131.669 243.556 131.341 243.468 130.989 243.468C130.637 243.468 130.309 243.556 130.005 243.732C129.701 243.9 129.453 244.152 129.261 244.488C129.077 244.816 128.985 245.208 128.985 245.664C128.985 246.12 129.077 246.52 129.261 246.864C129.453 247.208 129.701 247.472 130.005 247.656C130.317 247.832 130.645 247.92 130.989 247.92C131.341 247.92 131.669 247.832 131.973 247.656C132.277 247.48 132.521 247.224 132.705 246.888C132.897 246.544 132.993 246.144 132.993 245.688ZM138.57 249.108C138.05 249.108 137.582 249.016 137.166 248.832C136.758 248.64 136.434 248.384 136.194 248.064C135.954 247.736 135.826 247.372 135.81 246.972H137.226C137.25 247.252 137.382 247.488 137.622 247.68C137.87 247.864 138.178 247.956 138.546 247.956C138.93 247.956 139.226 247.884 139.434 247.74C139.65 247.588 139.758 247.396 139.758 247.164C139.758 246.916 139.638 246.732 139.398 246.612C139.166 246.492 138.794 246.36 138.282 246.216C137.786 246.08 137.382 245.948 137.07 245.82C136.758 245.692 136.486 245.496 136.254 245.232C136.03 244.968 135.918 244.62 135.918 244.188C135.918 243.836 136.022 243.516 136.23 243.228C136.438 242.932 136.734 242.7 137.118 242.532C137.51 242.364 137.958 242.28 138.462 242.28C139.214 242.28 139.818 242.472 140.274 242.856C140.738 243.232 140.986 243.748 141.018 244.404H139.65C139.626 244.108 139.506 243.872 139.29 243.696C139.074 243.52 138.782 243.432 138.414 243.432C138.054 243.432 137.778 243.5 137.586 243.636C137.394 243.772 137.298 243.952 137.298 244.176C137.298 244.352 137.362 244.5 137.49 244.62C137.618 244.74 137.774 244.836 137.958 244.908C138.142 244.972 138.414 245.056 138.774 245.16C139.254 245.288 139.646 245.42 139.95 245.556C140.262 245.684 140.53 245.876 140.754 246.132C140.978 246.388 141.094 246.728 141.102 247.152C141.102 247.528 140.998 247.864 140.79 248.16C140.582 248.456 140.286 248.688 139.902 248.856C139.526 249.024 139.082 249.108 138.57 249.108ZM144.176 243.504V247.164C144.176 247.412 144.232 247.592 144.344 247.704C144.464 247.808 144.664 247.86 144.944 247.86H145.784V249H144.704C144.088 249 143.616 248.856 143.288 248.568C142.96 248.28 142.796 247.812 142.796 247.164V243.504H142.016V242.388H142.796V240.744H144.176V242.388H145.784V243.504H144.176ZM153.105 245.532C153.105 245.78 153.089 246.004 153.057 246.204H148.005C148.045 246.732 148.241 247.156 148.593 247.476C148.945 247.796 149.377 247.956 149.889 247.956C150.625 247.956 151.145 247.648 151.449 247.032H152.925C152.725 247.64 152.361 248.14 151.833 248.532C151.313 248.916 150.665 249.108 149.889 249.108C149.257 249.108 148.689 248.968 148.185 248.688C147.689 248.4 147.297 248 147.009 247.488C146.729 246.968 146.589 246.368 146.589 245.688C146.589 245.008 146.725 244.412 146.997 243.9C147.277 243.38 147.665 242.98 148.161 242.7C148.665 242.42 149.241 242.28 149.889 242.28C150.513 242.28 151.069 242.416 151.557 242.688C152.045 242.96 152.425 243.344 152.697 243.84C152.969 244.328 153.105 244.892 153.105 245.532ZM151.677 245.1C151.669 244.596 151.489 244.192 151.137 243.888C150.785 243.584 150.349 243.432 149.829 243.432C149.357 243.432 148.953 243.584 148.617 243.888C148.281 244.184 148.081 244.588 148.017 245.1H151.677Z" fill="white"/>
<path d="M125.928 97.296H122.436L121.836 99H120.408L123.396 90.648H124.98L127.968 99H126.528L125.928 97.296ZM125.544 96.18L124.188 92.304L122.82 96.18H125.544ZM128.811 95.664C128.811 95 128.947 94.412 129.219 93.9C129.499 93.388 129.875 92.992 130.347 92.712C130.827 92.424 131.359 92.28 131.943 92.28C132.375 92.28 132.799 92.376 133.215 92.568C133.639 92.752 133.975 93 134.223 93.312V90.12H135.603V99H134.223V98.004C133.999 98.324 133.687 98.588 133.287 98.796C132.895 99.004 132.443 99.108 131.931 99.108C131.355 99.108 130.827 98.964 130.347 98.676C129.875 98.38 129.499 97.972 129.219 97.452C128.947 96.924 128.811 96.328 128.811 95.664ZM134.223 95.688C134.223 95.232 134.127 94.836 133.935 94.5C133.751 94.164 133.507 93.908 133.203 93.732C132.899 93.556 132.571 93.468 132.219 93.468C131.867 93.468 131.539 93.556 131.235 93.732C130.931 93.9 130.683 94.152 130.491 94.488C130.307 94.816 130.215 95.208 130.215 95.664C130.215 96.12 130.307 96.52 130.491 96.864C130.683 97.208 130.931 97.472 131.235 97.656C131.547 97.832 131.875 97.92 132.219 97.92C132.571 97.92 132.899 97.832 133.203 97.656C133.507 97.48 133.751 97.224 133.935 96.888C134.127 96.544 134.223 96.144 134.223 95.688ZM136.944 95.664C136.944 95 137.08 94.412 137.352 93.9C137.632 93.388 138.008 92.992 138.48 92.712C138.96 92.424 139.492 92.28 140.076 92.28C140.508 92.28 140.932 92.376 141.348 92.568C141.772 92.752 142.108 93 142.356 93.312V90.12H143.736V99H142.356V98.004C142.132 98.324 141.82 98.588 141.42 98.796C141.028 99.004 140.576 99.108 140.064 99.108C139.488 99.108 138.96 98.964 138.48 98.676C138.008 98.38 137.632 97.972 137.352 97.452C137.08 96.924 136.944 96.328 136.944 95.664ZM142.356 95.688C142.356 95.232 142.26 94.836 142.068 94.5C141.884 94.164 141.64 93.908 141.336 93.732C141.032 93.556 140.704 93.468 140.352 93.468C140 93.468 139.672 93.556 139.368 93.732C139.064 93.9 138.816 94.152 138.624 94.488C138.44 94.816 138.348 95.208 138.348 95.664C138.348 96.12 138.44 96.52 138.624 96.864C138.816 97.208 139.064 97.472 139.368 97.656C139.68 97.832 140.008 97.92 140.352 97.92C140.704 97.92 141.032 97.832 141.336 97.656C141.64 97.48 141.884 97.224 142.068 96.888C142.26 96.544 142.356 96.144 142.356 95.688Z" fill="white"/>
<rect opacity="0.5" x="10" y="120" width="70" height="30" rx="15" fill="white" fill-opacity="0.1"/>
<path opacity="0.5" d="M26.191 133.144C26.191 133.568 26.091 133.968 25.891 134.344C25.691 134.72 25.371 135.028 24.931 135.268C24.491 135.5 23.927 135.616 23.239 135.616H21.727V139H20.359V130.66H23.239C23.879 130.66 24.419 130.772 24.859 130.996C25.307 131.212 25.639 131.508 25.855 131.884C26.079 132.26 26.191 132.68 26.191 133.144ZM23.239 134.5C23.759 134.5 24.147 134.384 24.403 134.152C24.659 133.912 24.787 133.576 24.787 133.144C24.787 132.232 24.271 131.776 23.239 131.776H21.727V134.5H23.239ZM28.8637 133.348C29.0637 133.012 29.3277 132.752 29.6557 132.568C29.9917 132.376 30.3877 132.28 30.8437 132.28V133.696H30.4957C29.9597 133.696 29.5517 133.832 29.2717 134.104C28.9997 134.376 28.8637 134.848 28.8637 135.52V139H27.4957V132.388H28.8637V133.348ZM38.1612 135.532C38.1612 135.78 38.1452 136.004 38.1132 136.204H33.0612C33.1012 136.732 33.2972 137.156 33.6492 137.476C34.0012 137.796 34.4332 137.956 34.9452 137.956C35.6812 137.956 36.2012 137.648 36.5052 137.032H37.9812C37.7812 137.64 37.4172 138.14 36.8892 138.532C36.3692 138.916 35.7212 139.108 34.9452 139.108C34.3132 139.108 33.7452 138.968 33.2412 138.688C32.7452 138.4 32.3532 138 32.0652 137.488C31.7852 136.968 31.6452 136.368 31.6452 135.688C31.6452 135.008 31.7812 134.412 32.0532 133.9C32.3332 133.38 32.7212 132.98 33.2172 132.7C33.7212 132.42 34.2972 132.28 34.9452 132.28C35.5692 132.28 36.1252 132.416 36.6132 132.688C37.1012 132.96 37.4812 133.344 37.7532 133.84C38.0252 134.328 38.1612 134.892 38.1612 135.532ZM36.7332 135.1C36.7252 134.596 36.5452 134.192 36.1932 133.888C35.8412 133.584 35.4052 133.432 34.8852 133.432C34.4132 133.432 34.0092 133.584 33.6732 133.888C33.3372 134.184 33.1372 134.588 33.0732 135.1H36.7332ZM42.0634 137.776L43.9354 132.388H45.3874L42.8674 139H41.2354L38.7274 132.388H40.1914L42.0634 137.776ZM47.1175 131.512C46.8695 131.512 46.6615 131.428 46.4935 131.26C46.3255 131.092 46.2415 130.884 46.2415 130.636C46.2415 130.388 46.3255 130.18 46.4935 130.012C46.6615 129.844 46.8695 129.76 47.1175 129.76C47.3575 129.76 47.5615 129.844 47.7295 130.012C47.8975 130.18 47.9815 130.388 47.9815 130.636C47.9815 130.884 47.8975 131.092 47.7295 131.26C47.5615 131.428 47.3575 131.512 47.1175 131.512ZM47.7895 132.388V139H46.4215V132.388H47.7895ZM52.4535 139.108C51.8295 139.108 51.2655 138.968 50.7615 138.688C50.2575 138.4 49.8615 138 49.5735 137.488C49.2855 136.968 49.1415 136.368 49.1415 135.688C49.1415 135.016 49.2895 134.42 49.5855 133.9C49.8815 133.38 50.2855 132.98 50.7975 132.7C51.3095 132.42 51.8815 132.28 52.5135 132.28C53.1455 132.28 53.7175 132.42 54.2295 132.7C54.7415 132.98 55.1455 133.38 55.4415 133.9C55.7375 134.42 55.8855 135.016 55.8855 135.688C55.8855 136.36 55.7335 136.956 55.4295 137.476C55.1255 137.996 54.7095 138.4 54.1815 138.688C53.6615 138.968 53.0855 139.108 52.4535 139.108ZM52.4535 137.92C52.8055 137.92 53.1335 137.836 53.4375 137.668C53.7495 137.5 54.0015 137.248 54.1935 136.912C54.3855 136.576 54.4815 136.168 54.4815 135.688C54.4815 135.208 54.3895 134.804 54.2055 134.476C54.0215 134.14 53.7775 133.888 53.4735 133.72C53.1695 133.552 52.8415 133.468 52.4895 133.468C52.1375 133.468 51.8095 133.552 51.5055 133.72C51.2095 133.888 50.9735 134.14 50.7975 134.476C50.6215 134.804 50.5335 135.208 50.5335 135.688C50.5335 136.4 50.7135 136.952 51.0735 137.344C51.4415 137.728 51.9015 137.92 52.4535 137.92ZM63.2259 132.388V139H61.8579V138.22C61.6419 138.492 61.3579 138.708 61.0059 138.868C60.6619 139.02 60.2939 139.096 59.9019 139.096C59.3819 139.096 58.9139 138.988 58.4979 138.772C58.0899 138.556 57.7659 138.236 57.5259 137.812C57.2939 137.388 57.1779 136.876 57.1779 136.276V132.388H58.5339V136.072C58.5339 136.664 58.6819 137.12 58.9779 137.44C59.2739 137.752 59.6779 137.908 60.1899 137.908C60.7019 137.908 61.1059 137.752 61.4019 137.44C61.7059 137.12 61.8579 136.664 61.8579 136.072V132.388H63.2259ZM67.4309 139.108C66.9109 139.108 66.4429 139.016 66.0269 138.832C65.6189 138.64 65.2949 138.384 65.0549 138.064C64.8149 137.736 64.6869 137.372 64.6709 136.972H66.0869C66.1109 137.252 66.2429 137.488 66.4829 137.68C66.7309 137.864 67.0389 137.956 67.4069 137.956C67.7909 137.956 68.0869 137.884 68.2949 137.74C68.5109 137.588 68.6189 137.396 68.6189 137.164C68.6189 136.916 68.4989 136.732 68.2589 136.612C68.0269 136.492 67.6549 136.36 67.1429 136.216C66.6469 136.08 66.2429 135.948 65.9309 135.82C65.6189 135.692 65.3469 135.496 65.1149 135.232C64.8909 134.968 64.7789 134.62 64.7789 134.188C64.7789 133.836 64.8829 133.516 65.0909 133.228C65.2989 132.932 65.5949 132.7 65.9789 132.532C66.3709 132.364 66.8189 132.28 67.3229 132.28C68.0749 132.28 68.6789 132.472 69.1349 132.856C69.5989 133.232 69.8469 133.748 69.8789 134.404H68.5109C68.4869 134.108 68.3669 133.872 68.1509 133.696C67.9349 133.52 67.6429 133.432 67.2749 133.432C66.9149 133.432 66.6389 133.5 66.4469 133.636C66.2549 133.772 66.1589 133.952 66.1589 134.176C66.1589 134.352 66.2229 134.5 66.3509 134.62C66.4789 134.74 66.6349 134.836 66.8189 134.908C67.0029 134.972 67.2749 135.056 67.6349 135.16C68.1149 135.288 68.5069 135.42 68.8109 135.556C69.1229 135.684 69.3909 135.876 69.6149 136.132C69.8389 136.388 69.9549 136.728 69.9629 137.152C69.9629 137.528 69.8589 137.864 69.6509 138.16C69.4429 138.456 69.1469 138.688 68.7629 138.856C68.3869 139.024 67.9429 139.108 67.4309 139.108Z" fill="white"/>
<rect x="90" y="120" width="70" height="30" rx="15" fill="white" fill-opacity="0.1"/>
<path d="M119.498 139H118.13L114.014 132.772V139H112.646V130.648H114.014L118.13 136.864V130.648H119.498V139ZM127.355 135.532C127.355 135.78 127.339 136.004 127.307 136.204H122.255C122.295 136.732 122.491 137.156 122.843 137.476C123.195 137.796 123.627 137.956 124.139 137.956C124.875 137.956 125.395 137.648 125.699 137.032H127.175C126.975 137.64 126.611 138.14 126.083 138.532C125.563 138.916 124.915 139.108 124.139 139.108C123.507 139.108 122.939 138.968 122.435 138.688C121.939 138.4 121.547 138 121.259 137.488C120.979 136.968 120.839 136.368 120.839 135.688C120.839 135.008 120.975 134.412 121.247 133.9C121.527 133.38 121.915 132.98 122.411 132.7C122.915 132.42 123.491 132.28 124.139 132.28C124.763 132.28 125.319 132.416 125.807 132.688C126.295 132.96 126.675 133.344 126.947 133.84C127.219 134.328 127.355 134.892 127.355 135.532ZM125.927 135.1C125.919 134.596 125.739 134.192 125.387 133.888C125.035 133.584 124.599 133.432 124.079 133.432C123.607 133.432 123.203 133.584 122.867 133.888C122.531 134.184 122.331 134.588 122.267 135.1H125.927ZM131.533 135.652L133.669 139H132.121L130.693 136.756L129.349 139H127.921L130.057 135.748L127.921 132.388H129.469L130.897 134.632L132.241 132.388H133.669L131.533 135.652ZM136.285 133.504V137.164C136.285 137.412 136.341 137.592 136.453 137.704C136.573 137.808 136.773 137.86 137.053 137.86H137.893V139H136.813C136.197 139 135.725 138.856 135.397 138.568C135.069 138.28 134.905 137.812 134.905 137.164V133.504H134.125V132.388H134.905V130.744H136.285V132.388H137.893V133.504H136.285Z" fill="white"/>
<rect x="21" y="243" width="5" height="7" rx="1" stroke="white" stroke-width="2"/>
<path d="M24 240H27C28.1046 240 29 240.895 29 242V247" stroke="white" stroke-width="2" stroke-linecap="round"/>
<path d="M109.243 242.586L104.293 247.536C103.902 247.926 103.269 247.926 102.879 247.536L100.757 245.414" stroke="white" stroke-width="2" stroke-linecap="round"/>
<rect x="99" y="94" width="12" height="2" rx="1" fill="white"/>
<rect x="106" y="89" width="12" height="2" rx="1" transform="rotate(90 106 89)" fill="white"/>
</svg>
