<svg width="250" height="28" viewBox="0 0 250 28" fill="none" xmlns="http://www.w3.org/2000/svg">
<rect width="250" height="28" rx="5" fill="#E6E6E6"/>
<path d="M13.56 8.66V9.6H12.55V18.91H13.56V19.86H11.48V8.66H13.56ZM20.5635 12.49L17.1835 20.59H16.0035L17.1235 17.91L14.9535 12.49H16.2235L17.7735 16.69L19.3835 12.49H20.5635ZM26.4738 15.11C26.4738 15.3167 26.4605 15.5033 26.4338 15.67H22.2238C22.2572 16.11 22.4205 16.4633 22.7138 16.73C23.0072 16.9967 23.3672 17.13 23.7938 17.13C24.4072 17.13 24.8405 16.8733 25.0938 16.36H26.3238C26.1572 16.8667 25.8538 17.2833 25.4138 17.61C24.9805 17.93 24.4405 18.09 23.7938 18.09C23.2672 18.09 22.7938 17.9733 22.3738 17.74C21.9605 17.5 21.6338 17.1667 21.3938 16.74C21.1605 16.3067 21.0438 15.8067 21.0438 15.24C21.0438 14.6733 21.1572 14.1767 21.3838 13.75C21.6172 13.3167 21.9405 12.9833 22.3538 12.75C22.7738 12.5167 23.2538 12.4 23.7938 12.4C24.3138 12.4 24.7772 12.5133 25.1838 12.74C25.5905 12.9667 25.9072 13.2867 26.1338 13.7C26.3605 14.1067 26.4738 14.5767 26.4738 15.11ZM25.2838 14.75C25.2772 14.33 25.1272 13.9933 24.8338 13.74C24.5405 13.4867 24.1772 13.36 23.7438 13.36C23.3505 13.36 23.0138 13.4867 22.7338 13.74C22.4538 13.9867 22.2872 14.3233 22.2338 14.75H25.2838ZM29.5957 18.09C29.1624 18.09 28.7724 18.0133 28.4257 17.86C28.0857 17.7 27.8157 17.4867 27.6157 17.22C27.4157 16.9467 27.309 16.6433 27.2957 16.31H28.4757C28.4957 16.5433 28.6057 16.74 28.8057 16.9C29.0124 17.0533 29.269 17.13 29.5757 17.13C29.8957 17.13 30.1424 17.07 30.3157 16.95C30.4957 16.8233 30.5857 16.6633 30.5857 16.47C30.5857 16.2633 30.4857 16.11 30.2857 16.01C30.0924 15.91 29.7824 15.8 29.3557 15.68C28.9424 15.5667 28.6057 15.4567 28.3457 15.35C28.0857 15.2433 27.859 15.08 27.6657 14.86C27.479 14.64 27.3857 14.35 27.3857 13.99C27.3857 13.6967 27.4724 13.43 27.6457 13.19C27.819 12.9433 28.0657 12.75 28.3857 12.61C28.7124 12.47 29.0857 12.4 29.5057 12.4C30.1324 12.4 30.6357 12.56 31.0157 12.88C31.4024 13.1933 31.609 13.6233 31.6357 14.17H30.4957C30.4757 13.9233 30.3757 13.7267 30.1957 13.58C30.0157 13.4333 29.7724 13.36 29.4657 13.36C29.1657 13.36 28.9357 13.4167 28.7757 13.53C28.6157 13.6433 28.5357 13.7933 28.5357 13.98C28.5357 14.1267 28.589 14.25 28.6957 14.35C28.8024 14.45 28.9324 14.53 29.0857 14.59C29.239 14.6433 29.4657 14.7133 29.7657 14.8C30.1657 14.9067 30.4924 15.0167 30.7457 15.13C31.0057 15.2367 31.229 15.3967 31.4157 15.61C31.6024 15.8233 31.699 16.1067 31.7057 16.46C31.7057 16.7733 31.619 17.0533 31.4457 17.3C31.2724 17.5467 31.0257 17.74 30.7057 17.88C30.3924 18.02 30.0224 18.09 29.5957 18.09ZM36.6375 8.56L33.9175 19.75H32.7975L35.5075 8.56H36.6375ZM40.8542 12.4C41.2876 12.4 41.6742 12.49 42.0142 12.67C42.3609 12.85 42.6309 13.1167 42.8242 13.47C43.0176 13.8233 43.1142 14.25 43.1142 14.75V18H41.9842V14.92C41.9842 14.4267 41.8609 14.05 41.6142 13.79C41.3676 13.5233 41.0309 13.39 40.6042 13.39C40.1776 13.39 39.8376 13.5233 39.5842 13.79C39.3376 14.05 39.2142 14.4267 39.2142 14.92V18H38.0742V12.49H39.2142V13.12C39.4009 12.8933 39.6376 12.7167 39.9242 12.59C40.2176 12.4633 40.5276 12.4 40.8542 12.4ZM46.9584 18.09C46.4384 18.09 45.9684 17.9733 45.5484 17.74C45.1284 17.5 44.7984 17.1667 44.5584 16.74C44.3184 16.3067 44.1984 15.8067 44.1984 15.24C44.1984 14.68 44.3217 14.1833 44.5684 13.75C44.815 13.3167 45.1517 12.9833 45.5784 12.75C46.005 12.5167 46.4817 12.4 47.0084 12.4C47.535 12.4 48.0117 12.5167 48.4384 12.75C48.865 12.9833 49.2017 13.3167 49.4484 13.75C49.695 14.1833 49.8184 14.68 49.8184 15.24C49.8184 15.8 49.6917 16.2967 49.4384 16.73C49.185 17.1633 48.8384 17.5 48.3984 17.74C47.965 17.9733 47.485 18.09 46.9584 18.09ZM46.9584 17.1C47.2517 17.1 47.525 17.03 47.7784 16.89C48.0384 16.75 48.2484 16.54 48.4084 16.26C48.5684 15.98 48.6484 15.64 48.6484 15.24C48.6484 14.84 48.5717 14.5033 48.4184 14.23C48.265 13.95 48.0617 13.74 47.8084 13.6C47.555 13.46 47.2817 13.39 46.9884 13.39C46.695 13.39 46.4217 13.46 46.1684 13.6C45.9217 13.74 45.725 13.95 45.5784 14.23C45.4317 14.5033 45.3584 14.84 45.3584 15.24C45.3584 15.8333 45.5084 16.2933 45.8084 16.62C46.115 16.94 46.4984 17.1 46.9584 17.1ZM53.5553 19.86H51.4753V18.91H52.4853V9.6H51.4753V8.66H53.5553V19.86ZM61.1967 8.66V9.6H60.1867V18.91H61.1967V19.86H59.1167V8.66H61.1967ZM66.0202 12.4C66.4536 12.4 66.8402 12.49 67.1802 12.67C67.5269 12.85 67.7969 13.1167 67.9902 13.47C68.1836 13.8233 68.2802 14.25 68.2802 14.75V18H67.1502V14.92C67.1502 14.4267 67.0269 14.05 66.7802 13.79C66.5336 13.5233 66.1969 13.39 65.7702 13.39C65.3436 13.39 65.0036 13.5233 64.7502 13.79C64.5036 14.05 64.3802 14.4267 64.3802 14.92V18H63.2402V12.49H64.3802V13.12C64.5669 12.8933 64.8036 12.7167 65.0902 12.59C65.3836 12.4633 65.6936 12.4 66.0202 12.4ZM74.7844 15.11C74.7844 15.3167 74.771 15.5033 74.7444 15.67H70.5344C70.5677 16.11 70.731 16.4633 71.0244 16.73C71.3177 16.9967 71.6777 17.13 72.1044 17.13C72.7177 17.13 73.151 16.8733 73.4044 16.36H74.6344C74.4677 16.8667 74.1644 17.2833 73.7244 17.61C73.291 17.93 72.751 18.09 72.1044 18.09C71.5777 18.09 71.1044 17.9733 70.6844 17.74C70.271 17.5 69.9444 17.1667 69.7044 16.74C69.471 16.3067 69.3544 15.8067 69.3544 15.24C69.3544 14.6733 69.4677 14.1767 69.6944 13.75C69.9277 13.3167 70.251 12.9833 70.6644 12.75C71.0844 12.5167 71.5644 12.4 72.1044 12.4C72.6244 12.4 73.0877 12.5133 73.4944 12.74C73.901 12.9667 74.2177 13.2867 74.4444 13.7C74.671 14.1067 74.7844 14.5767 74.7844 15.11ZM73.5944 14.75C73.5877 14.33 73.4377 13.9933 73.1444 13.74C72.851 13.4867 72.4877 13.36 72.0544 13.36C71.661 13.36 71.3244 13.4867 71.0444 13.74C70.7644 13.9867 70.5977 14.3233 70.5444 14.75H73.5944ZM83.3063 12.49L81.5963 18H80.3963L79.2863 13.93L78.1763 18H76.9763L75.2563 12.49H76.4163L77.5663 16.92L78.7363 12.49H79.9263L81.0463 16.9L82.1863 12.49H83.3063ZM87.8959 13.3C88.0892 13.0467 88.3525 12.8333 88.6859 12.66C89.0192 12.4867 89.3959 12.4 89.8159 12.4C90.2959 12.4 90.7325 12.52 91.1259 12.76C91.5259 12.9933 91.8392 13.3233 92.0659 13.75C92.2925 14.1767 92.4059 14.6667 92.4059 15.22C92.4059 15.7733 92.2925 16.27 92.0659 16.71C91.8392 17.1433 91.5259 17.4833 91.1259 17.73C90.7325 17.97 90.2959 18.09 89.8159 18.09C89.3959 18.09 89.0225 18.0067 88.6959 17.84C88.3692 17.6667 88.1025 17.4533 87.8959 17.2V20.62H86.7559V12.49H87.8959V13.3ZM91.2459 15.22C91.2459 14.84 91.1659 14.5133 91.0059 14.24C90.8525 13.96 90.6459 13.75 90.3859 13.61C90.1325 13.4633 89.8592 13.39 89.5659 13.39C89.2792 13.39 89.0059 13.4633 88.7459 13.61C88.4925 13.7567 88.2859 13.97 88.1259 14.25C87.9725 14.53 87.8959 14.86 87.8959 15.24C87.8959 15.62 87.9725 15.9533 88.1259 16.24C88.2859 16.52 88.4925 16.7333 88.7459 16.88C89.0059 17.0267 89.2792 17.1 89.5659 17.1C89.8592 17.1 90.1325 17.0267 90.3859 16.88C90.6459 16.7267 90.8525 16.5067 91.0059 16.22C91.1659 15.9333 91.2459 15.6 91.2459 15.22ZM93.1532 15.22C93.1532 14.6667 93.2665 14.1767 93.4932 13.75C93.7265 13.3233 94.0399 12.9933 94.4332 12.76C94.8332 12.52 95.2732 12.4 95.7532 12.4C96.1865 12.4 96.5632 12.4867 96.8832 12.66C97.2099 12.8267 97.4699 13.0367 97.6632 13.29V12.49H98.8132V18H97.6632V17.18C97.4699 17.44 97.2065 17.6567 96.8732 17.83C96.5399 18.0033 96.1599 18.09 95.7332 18.09C95.2599 18.09 94.8265 17.97 94.4332 17.73C94.0399 17.4833 93.7265 17.1433 93.4932 16.71C93.2665 16.27 93.1532 15.7733 93.1532 15.22ZM97.6632 15.24C97.6632 14.86 97.5832 14.53 97.4232 14.25C97.2699 13.97 97.0665 13.7567 96.8132 13.61C96.5599 13.4633 96.2865 13.39 95.9932 13.39C95.6999 13.39 95.4265 13.4633 95.1732 13.61C94.9199 13.75 94.7132 13.96 94.5532 14.24C94.3999 14.5133 94.3232 14.84 94.3232 15.22C94.3232 15.6 94.3999 15.9333 94.5532 16.22C94.7132 16.5067 94.9199 16.7267 95.1732 16.88C95.4332 17.0267 95.7065 17.1 95.9932 17.1C96.2865 17.1 96.5599 17.0267 96.8132 16.88C97.0665 16.7333 97.2699 16.52 97.4232 16.24C97.5832 15.9533 97.6632 15.62 97.6632 15.24ZM102.311 18.09C101.877 18.09 101.487 18.0133 101.141 17.86C100.801 17.7 100.531 17.4867 100.331 17.22C100.131 16.9467 100.024 16.6433 100.011 16.31H101.191C101.211 16.5433 101.321 16.74 101.521 16.9C101.727 17.0533 101.984 17.13 102.291 17.13C102.611 17.13 102.857 17.07 103.031 16.95C103.211 16.8233 103.301 16.6633 103.301 16.47C103.301 16.2633 103.201 16.11 103.001 16.01C102.807 15.91 102.497 15.8 102.071 15.68C101.657 15.5667 101.321 15.4567 101.061 15.35C100.801 15.2433 100.574 15.08 100.381 14.86C100.194 14.64 100.101 14.35 100.101 13.99C100.101 13.6967 100.187 13.43 100.361 13.19C100.534 12.9433 100.781 12.75 101.101 12.61C101.427 12.47 101.801 12.4 102.221 12.4C102.847 12.4 103.351 12.56 103.731 12.88C104.117 13.1933 104.324 13.6233 104.351 14.17H103.211C103.191 13.9233 103.091 13.7267 102.911 13.58C102.731 13.4333 102.487 13.36 102.181 13.36C101.881 13.36 101.651 13.4167 101.491 13.53C101.331 13.6433 101.251 13.7933 101.251 13.98C101.251 14.1267 101.304 14.25 101.411 14.35C101.517 14.45 101.647 14.53 101.801 14.59C101.954 14.6433 102.181 14.7133 102.481 14.8C102.881 14.9067 103.207 15.0167 103.461 15.13C103.721 15.2367 103.944 15.3967 104.131 15.61C104.317 15.8233 104.414 16.1067 104.421 16.46C104.421 16.7733 104.334 17.0533 104.161 17.3C103.987 17.5467 103.741 17.74 103.421 17.88C103.107 18.02 102.737 18.09 102.311 18.09ZM107.652 18.09C107.219 18.09 106.829 18.0133 106.482 17.86C106.142 17.7 105.872 17.4867 105.672 17.22C105.472 16.9467 105.366 16.6433 105.352 16.31H106.532C106.552 16.5433 106.662 16.74 106.862 16.9C107.069 17.0533 107.326 17.13 107.632 17.13C107.952 17.13 108.199 17.07 108.372 16.95C108.552 16.8233 108.642 16.6633 108.642 16.47C108.642 16.2633 108.542 16.11 108.342 16.01C108.149 15.91 107.839 15.8 107.412 15.68C106.999 15.5667 106.662 15.4567 106.402 15.35C106.142 15.2433 105.916 15.08 105.722 14.86C105.536 14.64 105.442 14.35 105.442 13.99C105.442 13.6967 105.529 13.43 105.702 13.19C105.876 12.9433 106.122 12.75 106.442 12.61C106.769 12.47 107.142 12.4 107.562 12.4C108.189 12.4 108.692 12.56 109.072 12.88C109.459 13.1933 109.666 13.6233 109.692 14.17H108.552C108.532 13.9233 108.432 13.7267 108.252 13.58C108.072 13.4333 107.829 13.36 107.522 13.36C107.222 13.36 106.992 13.4167 106.832 13.53C106.672 13.6433 106.592 13.7933 106.592 13.98C106.592 14.1267 106.646 14.25 106.752 14.35C106.859 14.45 106.989 14.53 107.142 14.59C107.296 14.6433 107.522 14.7133 107.822 14.8C108.222 14.9067 108.549 15.0167 108.802 15.13C109.062 15.2367 109.286 15.3967 109.472 15.61C109.659 15.8233 109.756 16.1067 109.762 16.46C109.762 16.7733 109.676 17.0533 109.502 17.3C109.329 17.5467 109.082 17.74 108.762 17.88C108.449 18.02 108.079 18.09 107.652 18.09ZM118.394 12.49L116.684 18H115.484L114.374 13.93L113.264 18H112.064L110.344 12.49H111.504L112.654 16.92L113.824 12.49H115.014L116.134 16.9L117.274 12.49H118.394ZM121.636 18.09C121.116 18.09 120.646 17.9733 120.226 17.74C119.806 17.5 119.476 17.1667 119.236 16.74C118.996 16.3067 118.876 15.8067 118.876 15.24C118.876 14.68 118.999 14.1833 119.246 13.75C119.493 13.3167 119.829 12.9833 120.256 12.75C120.683 12.5167 121.159 12.4 121.686 12.4C122.213 12.4 122.689 12.5167 123.116 12.75C123.543 12.9833 123.879 13.3167 124.126 13.75C124.373 14.1833 124.496 14.68 124.496 15.24C124.496 15.8 124.369 16.2967 124.116 16.73C123.863 17.1633 123.516 17.5 123.076 17.74C122.643 17.9733 122.163 18.09 121.636 18.09ZM121.636 17.1C121.929 17.1 122.203 17.03 122.456 16.89C122.716 16.75 122.926 16.54 123.086 16.26C123.246 15.98 123.326 15.64 123.326 15.24C123.326 14.84 123.249 14.5033 123.096 14.23C122.943 13.95 122.739 13.74 122.486 13.6C122.233 13.46 121.959 13.39 121.666 13.39C121.373 13.39 121.099 13.46 120.846 13.6C120.599 13.74 120.403 13.95 120.256 14.23C120.109 14.5033 120.036 14.84 120.036 15.24C120.036 15.8333 120.186 16.2933 120.486 16.62C120.793 16.94 121.176 17.1 121.636 17.1ZM126.763 13.29C126.93 13.01 127.15 12.7933 127.423 12.64C127.703 12.48 128.033 12.4 128.413 12.4V13.58H128.123C127.676 13.58 127.336 13.6933 127.103 13.92C126.876 14.1467 126.763 14.54 126.763 15.1V18H125.623V12.49H126.763V13.29ZM129.081 15.22C129.081 14.6667 129.194 14.1767 129.421 13.75C129.654 13.3233 129.968 12.9933 130.361 12.76C130.761 12.52 131.204 12.4 131.691 12.4C132.051 12.4 132.404 12.48 132.751 12.64C133.104 12.7933 133.384 13 133.591 13.26V10.6H134.741V18H133.591V17.17C133.404 17.4367 133.144 17.6567 132.811 17.83C132.484 18.0033 132.108 18.09 131.681 18.09C131.201 18.09 130.761 17.97 130.361 17.73C129.968 17.4833 129.654 17.1433 129.421 16.71C129.194 16.27 129.081 15.7733 129.081 15.22ZM133.591 15.24C133.591 14.86 133.511 14.53 133.351 14.25C133.198 13.97 132.994 13.7567 132.741 13.61C132.488 13.4633 132.214 13.39 131.921 13.39C131.628 13.39 131.354 13.4633 131.101 13.61C130.848 13.75 130.641 13.96 130.481 14.24C130.328 14.5133 130.251 14.84 130.251 15.22C130.251 15.6 130.328 15.9333 130.481 16.22C130.641 16.5067 130.848 16.7267 131.101 16.88C131.361 17.0267 131.634 17.1 131.921 17.1C132.214 17.1 132.488 17.0267 132.741 16.88C132.994 16.7333 133.198 16.52 133.351 16.24C133.511 15.9533 133.591 15.62 133.591 15.24ZM138.848 19.86H136.768V18.91H137.778V9.6H136.768V8.66H138.848V19.86Z" fill="black"/>
</svg>
