<svg width="480" height="360" viewBox="0 0 480 360" fill="none" xmlns="http://www.w3.org/2000/svg">
<path d="M92.856 129.592H85.872L84.672 133H81.816L87.792 116.296H90.96L96.936 133H94.056L92.856 129.592ZM92.088 127.36L89.376 119.608L86.64 127.36H92.088ZM102.27 115.24V133H99.5344V115.24H102.27ZM108.599 121.696C108.999 121.024 109.527 120.504 110.183 120.136C110.855 119.752 111.647 119.56 112.559 119.56V122.392H111.863C110.791 122.392 109.975 122.664 109.415 123.208C108.871 123.752 108.599 124.696 108.599 126.04V133H105.863V119.776H108.599V121.696ZM127.193 126.064C127.193 126.56 127.161 127.008 127.097 127.408H116.993C117.073 128.464 117.465 129.312 118.169 129.952C118.873 130.592 119.737 130.912 120.761 130.912C122.233 130.912 123.273 130.296 123.881 129.064H126.833C126.433 130.28 125.705 131.28 124.649 132.064C123.609 132.832 122.313 133.216 120.761 133.216C119.497 133.216 118.361 132.936 117.353 132.376C116.361 131.8 115.577 131 115.001 129.976C114.441 128.936 114.161 127.736 114.161 126.376C114.161 125.016 114.433 123.824 114.977 122.8C115.537 121.76 116.313 120.96 117.305 120.4C118.313 119.84 119.465 119.56 120.761 119.56C122.009 119.56 123.121 119.832 124.097 120.376C125.073 120.92 125.833 121.688 126.377 122.68C126.921 123.656 127.193 124.784 127.193 126.064ZM124.337 125.2C124.321 124.192 123.961 123.384 123.257 122.776C122.553 122.168 121.681 121.864 120.641 121.864C119.697 121.864 118.889 122.168 118.217 122.776C117.545 123.368 117.145 124.176 117.017 125.2H124.337ZM128.974 126.328C128.974 125 129.246 123.824 129.79 122.8C130.35 121.776 131.102 120.984 132.046 120.424C133.006 119.848 134.062 119.56 135.214 119.56C136.254 119.56 137.158 119.768 137.926 120.184C138.71 120.584 139.334 121.088 139.798 121.696V119.776H142.558V133H139.798V131.032C139.334 131.656 138.702 132.176 137.902 132.592C137.102 133.008 136.19 133.216 135.166 133.216C134.03 133.216 132.99 132.928 132.046 132.352C131.102 131.76 130.35 130.944 129.79 129.904C129.246 128.848 128.974 127.656 128.974 126.328ZM139.798 126.376C139.798 125.464 139.606 124.672 139.222 124C138.854 123.328 138.366 122.816 137.758 122.464C137.15 122.112 136.494 121.936 135.79 121.936C135.086 121.936 134.43 122.112 133.822 122.464C133.214 122.8 132.718 123.304 132.334 123.976C131.966 124.632 131.782 125.416 131.782 126.328C131.782 127.24 131.966 128.04 132.334 128.728C132.718 129.416 133.214 129.944 133.822 130.312C134.446 130.664 135.102 130.84 135.79 130.84C136.494 130.84 137.15 130.664 137.758 130.312C138.366 129.96 138.854 129.448 139.222 128.776C139.606 128.088 139.798 127.288 139.798 126.376ZM145.24 126.328C145.24 125 145.512 123.824 146.056 122.8C146.616 121.776 147.368 120.984 148.312 120.424C149.272 119.848 150.336 119.56 151.504 119.56C152.368 119.56 153.216 119.752 154.048 120.136C154.896 120.504 155.568 121 156.064 121.624V115.24H158.824V133H156.064V131.008C155.616 131.648 154.992 132.176 154.192 132.592C153.408 133.008 152.504 133.216 151.48 133.216C150.328 133.216 149.272 132.928 148.312 132.352C147.368 131.76 146.616 130.944 146.056 129.904C145.512 128.848 145.24 127.656 145.24 126.328ZM156.064 126.376C156.064 125.464 155.872 124.672 155.488 124C155.12 123.328 154.632 122.816 154.024 122.464C153.416 122.112 152.76 121.936 152.056 121.936C151.352 121.936 150.696 122.112 150.088 122.464C149.48 122.8 148.984 123.304 148.6 123.976C148.232 124.632 148.048 125.416 148.048 126.328C148.048 127.24 148.232 128.04 148.6 128.728C148.984 129.416 149.48 129.944 150.088 130.312C150.712 130.664 151.368 130.84 152.056 130.84C152.76 130.84 153.416 130.664 154.024 130.312C154.632 129.96 155.12 129.448 155.488 128.776C155.872 128.088 156.064 127.288 156.064 126.376ZM174.321 119.776L166.209 139.216H163.377L166.065 132.784L160.857 119.776H163.905L167.625 129.856L171.489 119.776H174.321ZM189.46 119.56C190.468 119.56 191.364 119.776 192.148 120.208C192.948 120.64 193.572 121.28 194.02 122.128C194.484 122.976 194.716 124 194.716 125.2V133H192.004V125.608C192.004 124.424 191.708 123.52 191.116 122.896C190.524 122.256 189.716 121.936 188.692 121.936C187.668 121.936 186.852 122.256 186.244 122.896C185.652 123.52 185.356 124.424 185.356 125.608V133H182.62V115.24H185.356V121.312C185.82 120.752 186.404 120.32 187.108 120.016C187.828 119.712 188.612 119.56 189.46 119.56ZM197.294 126.328C197.294 125 197.566 123.824 198.11 122.8C198.67 121.776 199.422 120.984 200.366 120.424C201.326 119.848 202.382 119.56 203.534 119.56C204.574 119.56 205.478 119.768 206.246 120.184C207.03 120.584 207.654 121.088 208.118 121.696V119.776H210.878V133H208.118V131.032C207.654 131.656 207.022 132.176 206.222 132.592C205.422 133.008 204.51 133.216 203.486 133.216C202.35 133.216 201.31 132.928 200.366 132.352C199.422 131.76 198.67 130.944 198.11 129.904C197.566 128.848 197.294 127.656 197.294 126.328ZM208.118 126.376C208.118 125.464 207.926 124.672 207.542 124C207.174 123.328 206.686 122.816 206.078 122.464C205.47 122.112 204.814 121.936 204.11 121.936C203.406 121.936 202.75 122.112 202.142 122.464C201.534 122.8 201.038 123.304 200.654 123.976C200.286 124.632 200.102 125.416 200.102 126.328C200.102 127.24 200.286 128.04 200.654 128.728C201.038 129.416 201.534 129.944 202.142 130.312C202.766 130.664 203.422 130.84 204.11 130.84C204.814 130.84 205.47 130.664 206.078 130.312C206.686 129.96 207.174 129.448 207.542 128.776C207.926 128.088 208.118 127.288 208.118 126.376ZM219.584 130.552L223.328 119.776H226.232L221.192 133H217.928L212.912 119.776H215.84L219.584 130.552ZM240.42 126.064C240.42 126.56 240.388 127.008 240.324 127.408H230.22C230.3 128.464 230.692 129.312 231.396 129.952C232.1 130.592 232.964 130.912 233.988 130.912C235.46 130.912 236.5 130.296 237.108 129.064H240.06C239.66 130.28 238.932 131.28 237.876 132.064C236.836 132.832 235.54 133.216 233.988 133.216C232.724 133.216 231.588 132.936 230.58 132.376C229.588 131.8 228.804 131 228.228 129.976C227.668 128.936 227.388 127.736 227.388 126.376C227.388 125.016 227.66 123.824 228.204 122.8C228.764 121.76 229.54 120.96 230.532 120.4C231.54 119.84 232.692 119.56 233.988 119.56C235.236 119.56 236.348 119.832 237.324 120.376C238.3 120.92 239.06 121.688 239.604 122.68C240.148 123.656 240.42 124.784 240.42 126.064ZM237.564 125.2C237.548 124.192 237.188 123.384 236.484 122.776C235.78 122.168 234.908 121.864 233.868 121.864C232.924 121.864 232.116 122.168 231.444 122.776C230.772 123.368 230.372 124.176 230.244 125.2H237.564ZM248.435 126.328C248.435 125 248.707 123.824 249.251 122.8C249.811 121.776 250.563 120.984 251.507 120.424C252.467 119.848 253.523 119.56 254.675 119.56C255.715 119.56 256.619 119.768 257.387 120.184C258.171 120.584 258.795 121.088 259.259 121.696V119.776H262.019V133H259.259V131.032C258.795 131.656 258.163 132.176 257.363 132.592C256.563 133.008 255.651 133.216 254.627 133.216C253.491 133.216 252.451 132.928 251.507 132.352C250.563 131.76 249.811 130.944 249.251 129.904C248.707 128.848 248.435 127.656 248.435 126.328ZM259.259 126.376C259.259 125.464 259.067 124.672 258.683 124C258.315 123.328 257.827 122.816 257.219 122.464C256.611 122.112 255.955 121.936 255.251 121.936C254.547 121.936 253.891 122.112 253.283 122.464C252.675 122.8 252.179 123.304 251.795 123.976C251.427 124.632 251.243 125.416 251.243 126.328C251.243 127.24 251.427 128.04 251.795 128.728C252.179 129.416 252.675 129.944 253.283 130.312C253.907 130.664 254.563 130.84 255.251 130.84C255.955 130.84 256.611 130.664 257.219 130.312C257.827 129.96 258.315 129.448 258.683 128.776C259.067 128.088 259.259 127.288 259.259 126.376ZM272.285 119.56C273.325 119.56 274.253 119.776 275.069 120.208C275.901 120.64 276.549 121.28 277.013 122.128C277.477 122.976 277.709 124 277.709 125.2V133H274.997V125.608C274.997 124.424 274.701 123.52 274.109 122.896C273.517 122.256 272.709 121.936 271.685 121.936C270.661 121.936 269.845 122.256 269.237 122.896C268.645 123.52 268.349 124.424 268.349 125.608V133H265.613V119.776H268.349V121.288C268.797 120.744 269.365 120.32 270.053 120.016C270.757 119.712 271.501 119.56 272.285 119.56ZM286.521 126.328C286.521 125 286.793 123.824 287.337 122.8C287.897 121.776 288.649 120.984 289.593 120.424C290.553 119.848 291.609 119.56 292.761 119.56C293.801 119.56 294.705 119.768 295.473 120.184C296.257 120.584 296.881 121.088 297.345 121.696V119.776H300.105V133H297.345V131.032C296.881 131.656 296.249 132.176 295.449 132.592C294.649 133.008 293.737 133.216 292.713 133.216C291.577 133.216 290.537 132.928 289.593 132.352C288.649 131.76 287.897 130.944 287.337 129.904C286.793 128.848 286.521 127.656 286.521 126.328ZM297.345 126.376C297.345 125.464 297.153 124.672 296.769 124C296.401 123.328 295.913 122.816 295.305 122.464C294.697 122.112 294.041 121.936 293.337 121.936C292.633 121.936 291.977 122.112 291.369 122.464C290.761 122.8 290.265 123.304 289.881 123.976C289.513 124.632 289.329 125.416 289.329 126.328C289.329 127.24 289.513 128.04 289.881 128.728C290.265 129.416 290.761 129.944 291.369 130.312C291.993 130.664 292.649 130.84 293.337 130.84C294.041 130.84 294.697 130.664 295.305 130.312C295.913 129.96 296.401 129.448 296.769 128.776C297.153 128.088 297.345 127.288 297.345 126.376ZM302.786 126.376C302.786 125.016 303.058 123.824 303.602 122.8C304.162 121.76 304.93 120.96 305.906 120.4C306.882 119.84 308.002 119.56 309.266 119.56C310.866 119.56 312.186 119.944 313.226 120.712C314.282 121.464 314.994 122.544 315.362 123.952H312.41C312.17 123.296 311.786 122.784 311.258 122.416C310.73 122.048 310.066 121.864 309.266 121.864C308.146 121.864 307.25 122.264 306.578 123.064C305.922 123.848 305.594 124.952 305.594 126.376C305.594 127.8 305.922 128.912 306.578 129.712C307.25 130.512 308.146 130.912 309.266 130.912C310.85 130.912 311.898 130.216 312.41 128.824H315.362C314.978 130.168 314.258 131.24 313.202 132.04C312.146 132.824 310.834 133.216 309.266 133.216C308.002 133.216 306.882 132.936 305.906 132.376C304.93 131.8 304.162 131 303.602 129.976C303.058 128.936 302.786 127.736 302.786 126.376ZM317.177 126.376C317.177 125.016 317.449 123.824 317.993 122.8C318.553 121.76 319.321 120.96 320.297 120.4C321.273 119.84 322.393 119.56 323.657 119.56C325.257 119.56 326.577 119.944 327.617 120.712C328.673 121.464 329.385 122.544 329.753 123.952H326.801C326.561 123.296 326.177 122.784 325.649 122.416C325.121 122.048 324.457 121.864 323.657 121.864C322.537 121.864 321.641 122.264 320.969 123.064C320.313 123.848 319.985 124.952 319.985 126.376C319.985 127.8 320.313 128.912 320.969 129.712C321.641 130.512 322.537 130.912 323.657 130.912C325.241 130.912 326.289 130.216 326.801 128.824H329.753C329.369 130.168 328.649 131.24 327.593 132.04C326.537 132.824 325.225 133.216 323.657 133.216C322.393 133.216 321.273 132.936 320.297 132.376C319.321 131.8 318.553 131 317.993 129.976C317.449 128.936 317.177 127.736 317.177 126.376ZM338.216 133.216C336.968 133.216 335.84 132.936 334.832 132.376C333.824 131.8 333.032 131 332.456 129.976C331.88 128.936 331.592 127.736 331.592 126.376C331.592 125.032 331.888 123.84 332.48 122.8C333.072 121.76 333.88 120.96 334.904 120.4C335.928 119.84 337.072 119.56 338.336 119.56C339.6 119.56 340.744 119.84 341.768 120.4C342.792 120.96 343.6 121.76 344.192 122.8C344.784 123.84 345.08 125.032 345.08 126.376C345.08 127.72 344.776 128.912 344.168 129.952C343.56 130.992 342.728 131.8 341.672 132.376C340.632 132.936 339.48 133.216 338.216 133.216ZM338.216 130.84C338.92 130.84 339.576 130.672 340.184 130.336C340.808 130 341.312 129.496 341.696 128.824C342.08 128.152 342.272 127.336 342.272 126.376C342.272 125.416 342.088 124.608 341.72 123.952C341.352 123.28 340.864 122.776 340.256 122.44C339.648 122.104 338.992 121.936 338.288 121.936C337.584 121.936 336.928 122.104 336.32 122.44C335.728 122.776 335.256 123.28 334.904 123.952C334.552 124.608 334.376 125.416 334.376 126.376C334.376 127.8 334.736 128.904 335.456 129.688C336.192 130.456 337.112 130.84 338.216 130.84ZM359.76 119.776V133H357.024V131.44C356.592 131.984 356.024 132.416 355.32 132.736C354.632 133.04 353.896 133.192 353.112 133.192C352.072 133.192 351.136 132.976 350.304 132.544C349.488 132.112 348.84 131.472 348.36 130.624C347.896 129.776 347.664 128.752 347.664 127.552V119.776H350.376V127.144C350.376 128.328 350.672 129.24 351.264 129.88C351.856 130.504 352.664 130.816 353.688 130.816C354.712 130.816 355.52 130.504 356.112 129.88C356.72 129.24 357.024 128.328 357.024 127.144V119.776H359.76ZM370.042 119.56C371.082 119.56 372.01 119.776 372.826 120.208C373.658 120.64 374.306 121.28 374.77 122.128C375.234 122.976 375.466 124 375.466 125.2V133H372.754V125.608C372.754 124.424 372.458 123.52 371.866 122.896C371.274 122.256 370.466 121.936 369.442 121.936C368.418 121.936 367.602 122.256 366.994 122.896C366.402 123.52 366.106 124.424 366.106 125.608V133H363.37V119.776H366.106V121.288C366.554 120.744 367.122 120.32 367.81 120.016C368.514 119.712 369.258 119.56 370.042 119.56ZM382.148 122.008V129.328C382.148 129.824 382.26 130.184 382.484 130.408C382.724 130.616 383.124 130.72 383.684 130.72H385.364V133H383.204C381.972 133 381.028 132.712 380.372 132.136C379.716 131.56 379.388 130.624 379.388 129.328V122.008H377.828V119.776H379.388V116.488H382.148V119.776H385.364V122.008H382.148ZM392.374 116.08C394.006 116.08 395.31 116.528 396.286 117.424C397.278 118.32 397.774 119.544 397.774 121.096C397.774 122.712 397.262 123.928 396.238 124.744C395.214 125.56 393.854 125.968 392.158 125.968L392.062 127.864H389.686L389.566 124.096H390.358C391.91 124.096 393.094 123.888 393.91 123.472C394.742 123.056 395.158 122.264 395.158 121.096C395.158 120.248 394.91 119.584 394.414 119.104C393.934 118.624 393.262 118.384 392.398 118.384C391.534 118.384 390.854 118.616 390.358 119.08C389.862 119.544 389.614 120.192 389.614 121.024H387.046C387.046 120.064 387.262 119.208 387.694 118.456C388.126 117.704 388.742 117.12 389.542 116.704C390.358 116.288 391.302 116.08 392.374 116.08ZM390.838 133.168C390.342 133.168 389.926 133 389.59 132.664C389.254 132.328 389.086 131.912 389.086 131.416C389.086 130.92 389.254 130.504 389.59 130.168C389.926 129.832 390.342 129.664 390.838 129.664C391.318 129.664 391.726 129.832 392.062 130.168C392.398 130.504 392.566 130.92 392.566 131.416C392.566 131.912 392.398 132.328 392.062 132.664C391.726 133 391.318 133.168 390.838 133.168ZM98.1265 169L96.2065 165.664H95.1625V169H93.7945V160.66H96.6745C97.3145 160.66 97.8545 160.772 98.2945 160.996C98.7425 161.22 99.0745 161.52 99.2905 161.896C99.5145 162.272 99.6265 162.692 99.6265 163.156C99.6265 163.7 99.4665 164.196 99.1465 164.644C98.8345 165.084 98.3505 165.384 97.6945 165.544L99.7585 169H98.1265ZM95.1625 164.572H96.6745C97.1865 164.572 97.5705 164.444 97.8265 164.188C98.0905 163.932 98.2225 163.588 98.2225 163.156C98.2225 162.724 98.0945 162.388 97.8385 162.148C97.5825 161.9 97.1945 161.776 96.6745 161.776H95.1625V164.572ZM107.437 165.532C107.437 165.78 107.421 166.004 107.389 166.204H102.337C102.377 166.732 102.573 167.156 102.925 167.476C103.277 167.796 103.709 167.956 104.221 167.956C104.957 167.956 105.477 167.648 105.781 167.032H107.257C107.057 167.64 106.693 168.14 106.165 168.532C105.645 168.916 104.997 169.108 104.221 169.108C103.589 169.108 103.021 168.968 102.517 168.688C102.021 168.4 101.629 168 101.341 167.488C101.061 166.968 100.921 166.368 100.921 165.688C100.921 165.008 101.057 164.412 101.329 163.9C101.609 163.38 101.997 162.98 102.493 162.7C102.997 162.42 103.573 162.28 104.221 162.28C104.845 162.28 105.401 162.416 105.889 162.688C106.377 162.96 106.757 163.344 107.029 163.84C107.301 164.328 107.437 164.892 107.437 165.532ZM106.009 165.1C106.001 164.596 105.821 164.192 105.469 163.888C105.117 163.584 104.681 163.432 104.161 163.432C103.689 163.432 103.285 163.584 102.949 163.888C102.613 164.184 102.413 164.588 102.349 165.1H106.009ZM111.183 169.108C110.663 169.108 110.195 169.016 109.779 168.832C109.371 168.64 109.047 168.384 108.807 168.064C108.567 167.736 108.439 167.372 108.423 166.972H109.839C109.863 167.252 109.995 167.488 110.235 167.68C110.483 167.864 110.791 167.956 111.159 167.956C111.543 167.956 111.839 167.884 112.047 167.74C112.263 167.588 112.371 167.396 112.371 167.164C112.371 166.916 112.251 166.732 112.011 166.612C111.779 166.492 111.407 166.36 110.895 166.216C110.399 166.08 109.995 165.948 109.683 165.82C109.371 165.692 109.099 165.496 108.867 165.232C108.643 164.968 108.531 164.62 108.531 164.188C108.531 163.836 108.635 163.516 108.843 163.228C109.051 162.932 109.347 162.7 109.731 162.532C110.123 162.364 110.571 162.28 111.075 162.28C111.827 162.28 112.431 162.472 112.887 162.856C113.351 163.232 113.599 163.748 113.631 164.404H112.263C112.239 164.108 112.119 163.872 111.903 163.696C111.687 163.52 111.395 163.432 111.027 163.432C110.667 163.432 110.391 163.5 110.199 163.636C110.007 163.772 109.911 163.952 109.911 164.176C109.911 164.352 109.975 164.5 110.103 164.62C110.231 164.74 110.387 164.836 110.571 164.908C110.755 164.972 111.027 165.056 111.387 165.16C111.867 165.288 112.259 165.42 112.563 165.556C112.875 165.684 113.143 165.876 113.367 166.132C113.591 166.388 113.707 166.728 113.715 167.152C113.715 167.528 113.611 167.864 113.403 168.16C113.195 168.456 112.899 168.688 112.515 168.856C112.139 169.024 111.695 169.108 111.183 169.108ZM116.789 163.504V167.164C116.789 167.412 116.845 167.592 116.957 167.704C117.077 167.808 117.277 167.86 117.557 167.86H118.397V169H117.317C116.701 169 116.229 168.856 115.901 168.568C115.573 168.28 115.409 167.812 115.409 167.164V163.504H114.629V162.388H115.409V160.744H116.789V162.388H118.397V163.504H116.789ZM122.526 169.108C121.902 169.108 121.338 168.968 120.834 168.688C120.33 168.4 119.934 168 119.646 167.488C119.358 166.968 119.214 166.368 119.214 165.688C119.214 165.016 119.362 164.42 119.658 163.9C119.954 163.38 120.358 162.98 120.87 162.7C121.382 162.42 121.954 162.28 122.586 162.28C123.218 162.28 123.79 162.42 124.302 162.7C124.814 162.98 125.218 163.38 125.514 163.9C125.81 164.42 125.958 165.016 125.958 165.688C125.958 166.36 125.806 166.956 125.502 167.476C125.198 167.996 124.782 168.4 124.254 168.688C123.734 168.968 123.158 169.108 122.526 169.108ZM122.526 167.92C122.878 167.92 123.206 167.836 123.51 167.668C123.822 167.5 124.074 167.248 124.266 166.912C124.458 166.576 124.554 166.168 124.554 165.688C124.554 165.208 124.462 164.804 124.278 164.476C124.094 164.14 123.85 163.888 123.546 163.72C123.242 163.552 122.914 163.468 122.562 163.468C122.21 163.468 121.882 163.552 121.578 163.72C121.282 163.888 121.046 164.14 120.87 164.476C120.694 164.804 120.606 165.208 120.606 165.688C120.606 166.4 120.786 166.952 121.146 167.344C121.514 167.728 121.974 167.92 122.526 167.92ZM128.678 163.348C128.878 163.012 129.142 162.752 129.47 162.568C129.806 162.376 130.202 162.28 130.658 162.28V163.696H130.31C129.774 163.696 129.366 163.832 129.086 164.104C128.814 164.376 128.678 164.848 128.678 165.52V169H127.31V162.388H128.678V163.348ZM137.976 165.532C137.976 165.78 137.96 166.004 137.928 166.204H132.876C132.916 166.732 133.112 167.156 133.464 167.476C133.816 167.796 134.248 167.956 134.76 167.956C135.496 167.956 136.016 167.648 136.32 167.032H137.796C137.596 167.64 137.232 168.14 136.704 168.532C136.184 168.916 135.536 169.108 134.76 169.108C134.128 169.108 133.56 168.968 133.056 168.688C132.56 168.4 132.168 168 131.88 167.488C131.6 166.968 131.46 166.368 131.46 165.688C131.46 165.008 131.596 164.412 131.868 163.9C132.148 163.38 132.536 162.98 133.032 162.7C133.536 162.42 134.112 162.28 134.76 162.28C135.384 162.28 135.94 162.416 136.428 162.688C136.916 162.96 137.296 163.344 137.568 163.84C137.84 164.328 137.976 164.892 137.976 165.532ZM136.548 165.1C136.54 164.596 136.36 164.192 136.008 163.888C135.656 163.584 135.22 163.432 134.7 163.432C134.228 163.432 133.824 163.584 133.488 163.888C133.152 164.184 132.952 164.588 132.888 165.1H136.548ZM148.391 162.388L144.335 172.108H142.919L144.263 168.892L141.659 162.388H143.183L145.043 167.428L146.975 162.388H148.391ZM152.291 169.108C151.667 169.108 151.103 168.968 150.599 168.688C150.095 168.4 149.699 168 149.411 167.488C149.123 166.968 148.979 166.368 148.979 165.688C148.979 165.016 149.127 164.42 149.423 163.9C149.719 163.38 150.123 162.98 150.635 162.7C151.147 162.42 151.719 162.28 152.351 162.28C152.983 162.28 153.555 162.42 154.067 162.7C154.579 162.98 154.983 163.38 155.279 163.9C155.575 164.42 155.723 165.016 155.723 165.688C155.723 166.36 155.571 166.956 155.267 167.476C154.963 167.996 154.547 168.4 154.019 168.688C153.499 168.968 152.923 169.108 152.291 169.108ZM152.291 167.92C152.643 167.92 152.971 167.836 153.275 167.668C153.587 167.5 153.839 167.248 154.031 166.912C154.223 166.576 154.319 166.168 154.319 165.688C154.319 165.208 154.227 164.804 154.043 164.476C153.859 164.14 153.615 163.888 153.311 163.72C153.007 163.552 152.679 163.468 152.327 163.468C151.975 163.468 151.647 163.552 151.343 163.72C151.047 163.888 150.811 164.14 150.635 164.476C150.459 164.804 150.371 165.208 150.371 165.688C150.371 166.4 150.551 166.952 150.911 167.344C151.279 167.728 151.739 167.92 152.291 167.92ZM163.064 162.388V169H161.696V168.22C161.48 168.492 161.196 168.708 160.844 168.868C160.5 169.02 160.132 169.096 159.74 169.096C159.22 169.096 158.752 168.988 158.336 168.772C157.928 168.556 157.604 168.236 157.364 167.812C157.132 167.388 157.016 166.876 157.016 166.276V162.388H158.372V166.072C158.372 166.664 158.52 167.12 158.816 167.44C159.112 167.752 159.516 167.908 160.028 167.908C160.54 167.908 160.944 167.752 161.24 167.44C161.544 167.12 161.696 166.664 161.696 166.072V162.388H163.064ZM166.237 163.348C166.437 163.012 166.701 162.752 167.029 162.568C167.365 162.376 167.761 162.28 168.217 162.28V163.696H167.869C167.333 163.696 166.925 163.832 166.645 164.104C166.373 164.376 166.237 164.848 166.237 165.52V169H164.869V162.388H166.237V163.348ZM175.459 169.108C174.835 169.108 174.271 168.968 173.767 168.688C173.263 168.4 172.867 168 172.579 167.488C172.291 166.968 172.147 166.368 172.147 165.688C172.147 165.016 172.295 164.42 172.591 163.9C172.887 163.38 173.291 162.98 173.803 162.7C174.315 162.42 174.887 162.28 175.519 162.28C176.151 162.28 176.723 162.42 177.235 162.7C177.747 162.98 178.151 163.38 178.447 163.9C178.743 164.42 178.891 165.016 178.891 165.688C178.891 166.36 178.739 166.956 178.435 167.476C178.131 167.996 177.715 168.4 177.187 168.688C176.667 168.968 176.091 169.108 175.459 169.108ZM175.459 167.92C175.811 167.92 176.139 167.836 176.443 167.668C176.755 167.5 177.007 167.248 177.199 166.912C177.391 166.576 177.487 166.168 177.487 165.688C177.487 165.208 177.395 164.804 177.211 164.476C177.027 164.14 176.783 163.888 176.479 163.72C176.175 163.552 175.847 163.468 175.495 163.468C175.143 163.468 174.815 163.552 174.511 163.72C174.215 163.888 173.979 164.14 173.803 164.476C173.627 164.804 173.539 165.208 173.539 165.688C173.539 166.4 173.719 166.952 174.079 167.344C174.447 167.728 174.907 167.92 175.459 167.92ZM181.612 160.12V169H180.244V160.12H181.612ZM182.952 165.664C182.952 165 183.088 164.412 183.36 163.9C183.64 163.388 184.016 162.992 184.488 162.712C184.968 162.424 185.5 162.28 186.084 162.28C186.516 162.28 186.94 162.376 187.356 162.568C187.78 162.752 188.116 163 188.364 163.312V160.12H189.744V169H188.364V168.004C188.14 168.324 187.828 168.588 187.428 168.796C187.036 169.004 186.584 169.108 186.072 169.108C185.496 169.108 184.968 168.964 184.488 168.676C184.016 168.38 183.64 167.972 183.36 167.452C183.088 166.924 182.952 166.328 182.952 165.664ZM188.364 165.688C188.364 165.232 188.268 164.836 188.076 164.5C187.892 164.164 187.648 163.908 187.344 163.732C187.04 163.556 186.712 163.468 186.36 163.468C186.008 163.468 185.68 163.556 185.376 163.732C185.072 163.9 184.824 164.152 184.632 164.488C184.448 164.816 184.356 165.208 184.356 165.664C184.356 166.12 184.448 166.52 184.632 166.864C184.824 167.208 185.072 167.472 185.376 167.656C185.688 167.832 186.016 167.92 186.36 167.92C186.712 167.92 187.04 167.832 187.344 167.656C187.648 167.48 187.892 167.224 188.076 166.888C188.268 166.544 188.364 166.144 188.364 165.688ZM197.058 169.108C196.538 169.108 196.07 169.016 195.654 168.832C195.246 168.64 194.922 168.384 194.682 168.064C194.442 167.736 194.314 167.372 194.298 166.972H195.714C195.738 167.252 195.87 167.488 196.11 167.68C196.358 167.864 196.666 167.956 197.034 167.956C197.418 167.956 197.714 167.884 197.922 167.74C198.138 167.588 198.246 167.396 198.246 167.164C198.246 166.916 198.126 166.732 197.886 166.612C197.654 166.492 197.282 166.36 196.77 166.216C196.274 166.08 195.87 165.948 195.558 165.82C195.246 165.692 194.974 165.496 194.742 165.232C194.518 164.968 194.406 164.62 194.406 164.188C194.406 163.836 194.51 163.516 194.718 163.228C194.926 162.932 195.222 162.7 195.606 162.532C195.998 162.364 196.446 162.28 196.95 162.28C197.702 162.28 198.306 162.472 198.762 162.856C199.226 163.232 199.474 163.748 199.506 164.404H198.138C198.114 164.108 197.994 163.872 197.778 163.696C197.562 163.52 197.27 163.432 196.902 163.432C196.542 163.432 196.266 163.5 196.074 163.636C195.882 163.772 195.786 163.952 195.786 164.176C195.786 164.352 195.85 164.5 195.978 164.62C196.106 164.74 196.262 164.836 196.446 164.908C196.63 164.972 196.902 165.056 197.262 165.16C197.742 165.288 198.134 165.42 198.438 165.556C198.75 165.684 199.018 165.876 199.242 166.132C199.466 166.388 199.582 166.728 199.59 167.152C199.59 167.528 199.486 167.864 199.278 168.16C199.07 168.456 198.774 168.688 198.39 168.856C198.014 169.024 197.57 169.108 197.058 169.108ZM207.128 165.532C207.128 165.78 207.112 166.004 207.08 166.204H202.028C202.068 166.732 202.264 167.156 202.616 167.476C202.968 167.796 203.4 167.956 203.912 167.956C204.648 167.956 205.168 167.648 205.472 167.032H206.948C206.748 167.64 206.384 168.14 205.856 168.532C205.336 168.916 204.688 169.108 203.912 169.108C203.28 169.108 202.712 168.968 202.208 168.688C201.712 168.4 201.32 168 201.032 167.488C200.752 166.968 200.612 166.368 200.612 165.688C200.612 165.008 200.748 164.412 201.02 163.9C201.3 163.38 201.688 162.98 202.184 162.7C202.688 162.42 203.264 162.28 203.912 162.28C204.536 162.28 205.092 162.416 205.58 162.688C206.068 162.96 206.448 163.344 206.72 163.84C206.992 164.328 207.128 164.892 207.128 165.532ZM205.7 165.1C205.692 164.596 205.512 164.192 205.16 163.888C204.808 163.584 204.372 163.432 203.852 163.432C203.38 163.432 202.976 163.584 202.64 163.888C202.304 164.184 202.104 164.588 202.04 165.1H205.7ZM210.07 163.504V167.164C210.07 167.412 210.126 167.592 210.238 167.704C210.358 167.808 210.558 167.86 210.838 167.86H211.678V169H210.598C209.982 169 209.51 168.856 209.182 168.568C208.854 168.28 208.69 167.812 208.69 167.164V163.504H207.91V162.388H208.69V160.744H210.07V162.388H211.678V163.504H210.07ZM214.535 163.504V167.164C214.535 167.412 214.591 167.592 214.703 167.704C214.823 167.808 215.023 167.86 215.303 167.86H216.143V169H215.063C214.447 169 213.975 168.856 213.647 168.568C213.319 168.28 213.155 167.812 213.155 167.164V163.504H212.375V162.388H213.155V160.744H214.535V162.388H216.143V163.504H214.535ZM218.1 161.512C217.852 161.512 217.644 161.428 217.476 161.26C217.308 161.092 217.224 160.884 217.224 160.636C217.224 160.388 217.308 160.18 217.476 160.012C217.644 159.844 217.852 159.76 218.1 159.76C218.34 159.76 218.544 159.844 218.712 160.012C218.88 160.18 218.964 160.388 218.964 160.636C218.964 160.884 218.88 161.092 218.712 161.26C218.544 161.428 218.34 161.512 218.1 161.512ZM218.772 162.388V169H217.404V162.388H218.772ZM223.904 162.28C224.424 162.28 224.888 162.388 225.296 162.604C225.712 162.82 226.036 163.14 226.268 163.564C226.5 163.988 226.616 164.5 226.616 165.1V169H225.26V165.304C225.26 164.712 225.112 164.26 224.816 163.948C224.52 163.628 224.116 163.468 223.604 163.468C223.092 163.468 222.684 163.628 222.38 163.948C222.084 164.26 221.936 164.712 221.936 165.304V169H220.568V162.388H221.936V163.144C222.16 162.872 222.444 162.66 222.788 162.508C223.14 162.356 223.512 162.28 223.904 162.28ZM231.025 162.28C231.537 162.28 231.989 162.384 232.381 162.592C232.781 162.792 233.093 163.044 233.317 163.348V162.388H234.697V169.108C234.697 169.716 234.569 170.256 234.313 170.728C234.057 171.208 233.685 171.584 233.197 171.856C232.717 172.128 232.141 172.264 231.469 172.264C230.573 172.264 229.829 172.052 229.237 171.628C228.645 171.212 228.309 170.644 228.229 169.924H229.585C229.689 170.268 229.909 170.544 230.245 170.752C230.589 170.968 230.997 171.076 231.469 171.076C232.021 171.076 232.465 170.908 232.801 170.572C233.145 170.236 233.317 169.748 233.317 169.108V168.004C233.085 168.316 232.769 168.58 232.369 168.796C231.977 169.004 231.529 169.108 231.025 169.108C230.449 169.108 229.921 168.964 229.441 168.676C228.969 168.38 228.593 167.972 228.313 167.452C228.041 166.924 227.905 166.328 227.905 165.664C227.905 165 228.041 164.412 228.313 163.9C228.593 163.388 228.969 162.992 229.441 162.712C229.921 162.424 230.449 162.28 231.025 162.28ZM233.317 165.688C233.317 165.232 233.221 164.836 233.029 164.5C232.845 164.164 232.601 163.908 232.297 163.732C231.993 163.556 231.665 163.468 231.313 163.468C230.961 163.468 230.633 163.556 230.329 163.732C230.025 163.9 229.777 164.152 229.585 164.488C229.401 164.816 229.309 165.208 229.309 165.664C229.309 166.12 229.401 166.52 229.585 166.864C229.777 167.208 230.025 167.472 230.329 167.656C230.641 167.832 230.969 167.92 231.313 167.92C231.665 167.92 231.993 167.832 232.297 167.656C232.601 167.48 232.845 167.224 233.029 166.888C233.221 166.544 233.317 166.144 233.317 165.688ZM238.894 169.108C238.374 169.108 237.906 169.016 237.49 168.832C237.082 168.64 236.758 168.384 236.518 168.064C236.278 167.736 236.15 167.372 236.134 166.972H237.55C237.574 167.252 237.706 167.488 237.946 167.68C238.194 167.864 238.502 167.956 238.87 167.956C239.254 167.956 239.55 167.884 239.758 167.74C239.974 167.588 240.082 167.396 240.082 167.164C240.082 166.916 239.962 166.732 239.722 166.612C239.49 166.492 239.118 166.36 238.606 166.216C238.11 166.08 237.706 165.948 237.394 165.82C237.082 165.692 236.81 165.496 236.578 165.232C236.354 164.968 236.242 164.62 236.242 164.188C236.242 163.836 236.346 163.516 236.554 163.228C236.762 162.932 237.058 162.7 237.442 162.532C237.834 162.364 238.282 162.28 238.786 162.28C239.538 162.28 240.142 162.472 240.598 162.856C241.062 163.232 241.31 163.748 241.342 164.404H239.974C239.95 164.108 239.83 163.872 239.614 163.696C239.398 163.52 239.106 163.432 238.738 163.432C238.378 163.432 238.102 163.5 237.91 163.636C237.718 163.772 237.622 163.952 237.622 164.176C237.622 164.352 237.686 164.5 237.814 164.62C237.942 164.74 238.098 164.836 238.282 164.908C238.466 164.972 238.738 165.056 239.098 165.16C239.578 165.288 239.97 165.42 240.274 165.556C240.586 165.684 240.854 165.876 241.078 166.132C241.302 166.388 241.418 166.728 241.426 167.152C241.426 167.528 241.322 167.864 241.114 168.16C240.906 168.456 240.61 168.688 240.226 168.856C239.85 169.024 239.406 169.108 238.894 169.108ZM254.901 162.388L252.849 169H251.409L250.077 164.116L248.745 169H247.305L245.241 162.388H246.633L248.013 167.704L249.417 162.388H250.845L252.189 167.68L253.557 162.388H254.901ZM256.619 161.512C256.371 161.512 256.163 161.428 255.995 161.26C255.827 161.092 255.743 160.884 255.743 160.636C255.743 160.388 255.827 160.18 255.995 160.012C256.163 159.844 256.371 159.76 256.619 159.76C256.859 159.76 257.063 159.844 257.231 160.012C257.399 160.18 257.483 160.388 257.483 160.636C257.483 160.884 257.399 161.092 257.231 161.26C257.063 161.428 256.859 161.512 256.619 161.512ZM257.291 162.388V169H255.923V162.388H257.291ZM260.684 163.504V167.164C260.684 167.412 260.74 167.592 260.852 167.704C260.972 167.808 261.172 167.86 261.452 167.86H262.292V169H261.212C260.596 169 260.124 168.856 259.796 168.568C259.468 168.28 259.304 167.812 259.304 167.164V163.504H258.524V162.388H259.304V160.744H260.684V162.388H262.292V163.504H260.684ZM266.972 162.28C267.476 162.28 267.924 162.388 268.316 162.604C268.716 162.82 269.028 163.14 269.252 163.564C269.484 163.988 269.6 164.5 269.6 165.1V169H268.244V165.304C268.244 164.712 268.096 164.26 267.8 163.948C267.504 163.628 267.1 163.468 266.588 163.468C266.076 163.468 265.668 163.628 265.364 163.948C265.068 164.26 264.92 164.712 264.92 165.304V169H263.552V160.12H264.92V163.156C265.152 162.876 265.444 162.66 265.796 162.508C266.156 162.356 266.548 162.28 266.972 162.28ZM280.415 162.388L276.359 172.108H274.943L276.287 168.892L273.683 162.388H275.207L277.067 167.428L278.999 162.388H280.415ZM284.315 169.108C283.691 169.108 283.127 168.968 282.623 168.688C282.119 168.4 281.723 168 281.435 167.488C281.147 166.968 281.003 166.368 281.003 165.688C281.003 165.016 281.151 164.42 281.447 163.9C281.743 163.38 282.147 162.98 282.659 162.7C283.171 162.42 283.743 162.28 284.375 162.28C285.007 162.28 285.579 162.42 286.091 162.7C286.603 162.98 287.007 163.38 287.303 163.9C287.599 164.42 287.747 165.016 287.747 165.688C287.747 166.36 287.595 166.956 287.291 167.476C286.987 167.996 286.571 168.4 286.043 168.688C285.523 168.968 284.947 169.108 284.315 169.108ZM284.315 167.92C284.667 167.92 284.995 167.836 285.299 167.668C285.611 167.5 285.863 167.248 286.055 166.912C286.247 166.576 286.343 166.168 286.343 165.688C286.343 165.208 286.251 164.804 286.067 164.476C285.883 164.14 285.639 163.888 285.335 163.72C285.031 163.552 284.703 163.468 284.351 163.468C283.999 163.468 283.671 163.552 283.367 163.72C283.071 163.888 282.835 164.14 282.659 164.476C282.483 164.804 282.395 165.208 282.395 165.688C282.395 166.4 282.575 166.952 282.935 167.344C283.303 167.728 283.763 167.92 284.315 167.92ZM295.087 162.388V169H293.719V168.22C293.503 168.492 293.219 168.708 292.867 168.868C292.523 169.02 292.155 169.096 291.763 169.096C291.243 169.096 290.775 168.988 290.359 168.772C289.951 168.556 289.627 168.236 289.387 167.812C289.155 167.388 289.039 166.876 289.039 166.276V162.388H290.395V166.072C290.395 166.664 290.543 167.12 290.839 167.44C291.135 167.752 291.539 167.908 292.051 167.908C292.563 167.908 292.967 167.752 293.263 167.44C293.567 167.12 293.719 166.664 293.719 166.072V162.388H295.087ZM298.26 163.348C298.46 163.012 298.724 162.752 299.052 162.568C299.388 162.376 299.784 162.28 300.24 162.28V163.696H299.892C299.356 163.696 298.948 163.832 298.668 164.104C298.396 164.376 298.26 164.848 298.26 165.52V169H296.892V162.388H298.26V163.348ZM305.983 163.372C306.215 163.052 306.531 162.792 306.931 162.592C307.339 162.384 307.791 162.28 308.287 162.28C308.871 162.28 309.399 162.42 309.871 162.7C310.343 162.98 310.715 163.38 310.987 163.9C311.259 164.412 311.395 165 311.395 165.664C311.395 166.328 311.259 166.924 310.987 167.452C310.715 167.972 310.339 168.38 309.859 168.676C309.387 168.964 308.863 169.108 308.287 169.108C307.775 169.108 307.319 169.008 306.919 168.808C306.527 168.608 306.215 168.352 305.983 168.04V169H304.615V160.12H305.983V163.372ZM310.003 165.664C310.003 165.208 309.907 164.816 309.715 164.488C309.531 164.152 309.283 163.9 308.971 163.732C308.667 163.556 308.339 163.468 307.987 163.468C307.643 163.468 307.315 163.556 307.003 163.732C306.699 163.908 306.451 164.164 306.259 164.5C306.075 164.836 305.983 165.232 305.983 165.688C305.983 166.144 306.075 166.544 306.259 166.888C306.451 167.224 306.699 167.48 307.003 167.656C307.315 167.832 307.643 167.92 307.987 167.92C308.339 167.92 308.667 167.832 308.971 167.656C309.283 167.472 309.531 167.208 309.715 166.864C309.907 166.52 310.003 166.12 310.003 165.664ZM312.292 165.664C312.292 165 312.428 164.412 312.7 163.9C312.98 163.388 313.356 162.992 313.828 162.712C314.308 162.424 314.836 162.28 315.412 162.28C315.932 162.28 316.384 162.384 316.768 162.592C317.16 162.792 317.472 163.044 317.704 163.348V162.388H319.084V169H317.704V168.016C317.472 168.328 317.156 168.588 316.756 168.796C316.356 169.004 315.9 169.108 315.388 169.108C314.82 169.108 314.3 168.964 313.828 168.676C313.356 168.38 312.98 167.972 312.7 167.452C312.428 166.924 312.292 166.328 312.292 165.664ZM317.704 165.688C317.704 165.232 317.608 164.836 317.416 164.5C317.232 164.164 316.988 163.908 316.684 163.732C316.38 163.556 316.052 163.468 315.7 163.468C315.348 163.468 315.02 163.556 314.716 163.732C314.412 163.9 314.164 164.152 313.972 164.488C313.788 164.816 313.696 165.208 313.696 165.664C313.696 166.12 313.788 166.52 313.972 166.864C314.164 167.208 314.412 167.472 314.716 167.656C315.028 167.832 315.356 167.92 315.7 167.92C316.052 167.92 316.38 167.832 316.684 167.656C316.988 167.48 317.232 167.224 317.416 166.888C317.608 166.544 317.704 166.144 317.704 165.688ZM320.424 165.688C320.424 165.008 320.56 164.412 320.832 163.9C321.112 163.38 321.496 162.98 321.984 162.7C322.472 162.42 323.032 162.28 323.664 162.28C324.464 162.28 325.124 162.472 325.644 162.856C326.172 163.232 326.528 163.772 326.712 164.476H325.236C325.116 164.148 324.924 163.892 324.66 163.708C324.396 163.524 324.064 163.432 323.664 163.432C323.104 163.432 322.656 163.632 322.32 164.032C321.992 164.424 321.828 164.976 321.828 165.688C321.828 166.4 321.992 166.956 322.32 167.356C322.656 167.756 323.104 167.956 323.664 167.956C324.456 167.956 324.98 167.608 325.236 166.912H326.712C326.52 167.584 326.16 168.12 325.632 168.52C325.104 168.912 324.448 169.108 323.664 169.108C323.032 169.108 322.472 168.968 321.984 168.688C321.496 168.4 321.112 168 320.832 167.488C320.56 166.968 320.424 166.368 320.424 165.688ZM330.692 165.7L333.74 169H331.892L329.444 166.156V169H328.076V160.12H329.444V165.28L331.844 162.388H333.74L330.692 165.7ZM340.708 162.388V169H339.34V168.22C339.124 168.492 338.84 168.708 338.488 168.868C338.144 169.02 337.776 169.096 337.384 169.096C336.864 169.096 336.396 168.988 335.98 168.772C335.572 168.556 335.248 168.236 335.008 167.812C334.776 167.388 334.66 166.876 334.66 166.276V162.388H336.016V166.072C336.016 166.664 336.164 167.12 336.46 167.44C336.756 167.752 337.16 167.908 337.672 167.908C338.184 167.908 338.588 167.752 338.884 167.44C339.188 167.12 339.34 166.664 339.34 166.072V162.388H340.708ZM343.881 163.36C344.113 163.056 344.429 162.8 344.829 162.592C345.229 162.384 345.681 162.28 346.185 162.28C346.761 162.28 347.285 162.424 347.757 162.712C348.237 162.992 348.613 163.388 348.885 163.9C349.157 164.412 349.293 165 349.293 165.664C349.293 166.328 349.157 166.924 348.885 167.452C348.613 167.972 348.237 168.38 347.757 168.676C347.285 168.964 346.761 169.108 346.185 169.108C345.681 169.108 345.233 169.008 344.841 168.808C344.449 168.6 344.129 168.344 343.881 168.04V172.144H342.513V162.388H343.881V163.36ZM347.901 165.664C347.901 165.208 347.805 164.816 347.613 164.488C347.429 164.152 347.181 163.9 346.869 163.732C346.565 163.556 346.237 163.468 345.885 163.468C345.541 163.468 345.213 163.556 344.901 163.732C344.597 163.908 344.349 164.164 344.157 164.5C343.973 164.836 343.881 165.232 343.881 165.688C343.881 166.144 343.973 166.544 344.157 166.888C344.349 167.224 344.597 167.48 344.901 167.656C345.213 167.832 345.541 167.92 345.885 167.92C346.237 167.92 346.565 167.832 346.869 167.656C347.181 167.472 347.429 167.208 347.613 166.864C347.805 166.52 347.901 166.12 347.901 165.664ZM353.307 165.688C353.307 165.008 353.443 164.412 353.715 163.9C353.995 163.38 354.379 162.98 354.867 162.7C355.355 162.42 355.915 162.28 356.547 162.28C357.347 162.28 358.007 162.472 358.527 162.856C359.055 163.232 359.411 163.772 359.595 164.476H358.119C357.999 164.148 357.807 163.892 357.543 163.708C357.279 163.524 356.947 163.432 356.547 163.432C355.987 163.432 355.539 163.632 355.203 164.032C354.875 164.424 354.711 164.976 354.711 165.688C354.711 166.4 354.875 166.956 355.203 167.356C355.539 167.756 355.987 167.956 356.547 167.956C357.339 167.956 357.863 167.608 358.119 166.912H359.595C359.403 167.584 359.043 168.12 358.515 168.52C357.987 168.912 357.331 169.108 356.547 169.108C355.915 169.108 355.355 168.968 354.867 168.688C354.379 168.4 353.995 168 353.715 167.488C353.443 166.968 353.307 166.368 353.307 165.688ZM363.827 169.108C363.203 169.108 362.639 168.968 362.135 168.688C361.631 168.4 361.235 168 360.947 167.488C360.659 166.968 360.515 166.368 360.515 165.688C360.515 165.016 360.663 164.42 360.959 163.9C361.255 163.38 361.659 162.98 362.171 162.7C362.683 162.42 363.255 162.28 363.887 162.28C364.519 162.28 365.091 162.42 365.603 162.7C366.115 162.98 366.519 163.38 366.815 163.9C367.111 164.42 367.259 165.016 367.259 165.688C367.259 166.36 367.107 166.956 366.803 167.476C366.499 167.996 366.083 168.4 365.555 168.688C365.035 168.968 364.459 169.108 363.827 169.108ZM363.827 167.92C364.179 167.92 364.507 167.836 364.811 167.668C365.123 167.5 365.375 167.248 365.567 166.912C365.759 166.576 365.855 166.168 365.855 165.688C365.855 165.208 365.763 164.804 365.579 164.476C365.395 164.14 365.151 163.888 364.847 163.72C364.543 163.552 364.215 163.468 363.863 163.468C363.511 163.468 363.183 163.552 362.879 163.72C362.583 163.888 362.347 164.14 362.171 164.476C361.995 164.804 361.907 165.208 361.907 165.688C361.907 166.4 362.087 166.952 362.447 167.344C362.815 167.728 363.275 167.92 363.827 167.92ZM368.155 165.664C368.155 165 368.291 164.412 368.563 163.9C368.843 163.388 369.219 162.992 369.691 162.712C370.171 162.424 370.703 162.28 371.287 162.28C371.719 162.28 372.143 162.376 372.559 162.568C372.983 162.752 373.319 163 373.567 163.312V160.12H374.947V169H373.567V168.004C373.343 168.324 373.031 168.588 372.631 168.796C372.239 169.004 371.787 169.108 371.275 169.108C370.699 169.108 370.171 168.964 369.691 168.676C369.219 168.38 368.843 167.972 368.563 167.452C368.291 166.924 368.155 166.328 368.155 165.664ZM373.567 165.688C373.567 165.232 373.471 164.836 373.279 164.5C373.095 164.164 372.851 163.908 372.547 163.732C372.243 163.556 371.915 163.468 371.563 163.468C371.211 163.468 370.883 163.556 370.579 163.732C370.275 163.9 370.027 164.152 369.835 164.488C369.651 164.816 369.559 165.208 369.559 165.664C369.559 166.12 369.651 166.52 369.835 166.864C370.027 167.208 370.275 167.472 370.579 167.656C370.891 167.832 371.219 167.92 371.563 167.92C371.915 167.92 372.243 167.832 372.547 167.656C372.851 167.48 373.095 167.224 373.279 166.888C373.471 166.544 373.567 166.144 373.567 165.688ZM382.804 165.532C382.804 165.78 382.788 166.004 382.756 166.204H377.704C377.744 166.732 377.94 167.156 378.292 167.476C378.644 167.796 379.076 167.956 379.588 167.956C380.324 167.956 380.844 167.648 381.148 167.032H382.624C382.424 167.64 382.06 168.14 381.532 168.532C381.012 168.916 380.364 169.108 379.588 169.108C378.956 169.108 378.388 168.968 377.884 168.688C377.388 168.4 376.996 168 376.708 167.488C376.428 166.968 376.288 166.368 376.288 165.688C376.288 165.008 376.424 164.412 376.696 163.9C376.976 163.38 377.364 162.98 377.86 162.7C378.364 162.42 378.94 162.28 379.588 162.28C380.212 162.28 380.768 162.416 381.256 162.688C381.744 162.96 382.124 163.344 382.396 163.84C382.668 164.328 382.804 164.892 382.804 165.532ZM381.376 165.1C381.368 164.596 381.188 164.192 380.836 163.888C380.484 163.584 380.048 163.432 379.528 163.432C379.056 163.432 378.652 163.584 378.316 163.888C377.98 164.184 377.78 164.588 377.716 165.1H381.376ZM385.866 160.66L385.71 166.48H384.57L384.414 160.66H385.866ZM385.182 169.084C384.934 169.084 384.726 169 384.558 168.832C384.39 168.664 384.306 168.456 384.306 168.208C384.306 167.96 384.39 167.752 384.558 167.584C384.726 167.416 384.934 167.332 385.182 167.332C385.422 167.332 385.626 167.416 385.794 167.584C385.962 167.752 386.046 167.96 386.046 168.208C386.046 168.456 385.962 168.664 385.794 168.832C385.626 169 385.422 169.084 385.182 169.084Z" fill="white"/>
<rect x="135" y="200" width="210" height="30" rx="15" fill="white" fill-opacity="0.1"/>
<path d="M148.477 217.896H151.297V219H147.109V210.66H148.477V217.896ZM155.309 219.108C154.685 219.108 154.121 218.968 153.617 218.688C153.113 218.4 152.717 218 152.429 217.488C152.141 216.968 151.997 216.368 151.997 215.688C151.997 215.016 152.145 214.42 152.441 213.9C152.737 213.38 153.141 212.98 153.653 212.7C154.165 212.42 154.737 212.28 155.369 212.28C156.001 212.28 156.573 212.42 157.085 212.7C157.597 212.98 158.001 213.38 158.297 213.9C158.593 214.42 158.741 215.016 158.741 215.688C158.741 216.36 158.589 216.956 158.285 217.476C157.981 217.996 157.565 218.4 157.037 218.688C156.517 218.968 155.941 219.108 155.309 219.108ZM155.309 217.92C155.661 217.92 155.989 217.836 156.293 217.668C156.605 217.5 156.857 217.248 157.049 216.912C157.241 216.576 157.337 216.168 157.337 215.688C157.337 215.208 157.245 214.804 157.061 214.476C156.877 214.14 156.633 213.888 156.329 213.72C156.025 213.552 155.697 213.468 155.345 213.468C154.993 213.468 154.665 213.552 154.361 213.72C154.065 213.888 153.829 214.14 153.653 214.476C153.477 214.804 153.389 215.208 153.389 215.688C153.389 216.4 153.569 216.952 153.929 217.344C154.297 217.728 154.757 217.92 155.309 217.92ZM162.757 212.28C163.269 212.28 163.721 212.384 164.113 212.592C164.513 212.792 164.825 213.044 165.049 213.348V212.388H166.429V219.108C166.429 219.716 166.301 220.256 166.045 220.728C165.789 221.208 165.417 221.584 164.929 221.856C164.449 222.128 163.873 222.264 163.201 222.264C162.305 222.264 161.561 222.052 160.969 221.628C160.377 221.212 160.041 220.644 159.961 219.924H161.317C161.421 220.268 161.641 220.544 161.977 220.752C162.321 220.968 162.729 221.076 163.201 221.076C163.753 221.076 164.197 220.908 164.533 220.572C164.877 220.236 165.049 219.748 165.049 219.108V218.004C164.817 218.316 164.501 218.58 164.101 218.796C163.709 219.004 163.261 219.108 162.757 219.108C162.181 219.108 161.653 218.964 161.173 218.676C160.701 218.38 160.325 217.972 160.045 217.452C159.773 216.924 159.637 216.328 159.637 215.664C159.637 215 159.773 214.412 160.045 213.9C160.325 213.388 160.701 212.992 161.173 212.712C161.653 212.424 162.181 212.28 162.757 212.28ZM165.049 215.688C165.049 215.232 164.953 214.836 164.761 214.5C164.577 214.164 164.333 213.908 164.029 213.732C163.725 213.556 163.397 213.468 163.045 213.468C162.693 213.468 162.365 213.556 162.061 213.732C161.757 213.9 161.509 214.152 161.317 214.488C161.133 214.816 161.041 215.208 161.041 215.664C161.041 216.12 161.133 216.52 161.317 216.864C161.509 217.208 161.757 217.472 162.061 217.656C162.373 217.832 162.701 217.92 163.045 217.92C163.397 217.92 163.725 217.832 164.029 217.656C164.333 217.48 164.577 217.224 164.761 216.888C164.953 216.544 165.049 216.144 165.049 215.688ZM172.039 211.512C171.791 211.512 171.583 211.428 171.415 211.26C171.247 211.092 171.163 210.884 171.163 210.636C171.163 210.388 171.247 210.18 171.415 210.012C171.583 209.844 171.791 209.76 172.039 209.76C172.279 209.76 172.483 209.844 172.651 210.012C172.819 210.18 172.903 210.388 172.903 210.636C172.903 210.884 172.819 211.092 172.651 211.26C172.483 211.428 172.279 211.512 172.039 211.512ZM172.711 212.388V219H171.343V212.388H172.711ZM177.843 212.28C178.363 212.28 178.827 212.388 179.235 212.604C179.651 212.82 179.975 213.14 180.207 213.564C180.439 213.988 180.555 214.5 180.555 215.1V219H179.199V215.304C179.199 214.712 179.051 214.26 178.755 213.948C178.459 213.628 178.055 213.468 177.543 213.468C177.031 213.468 176.623 213.628 176.319 213.948C176.023 214.26 175.875 214.712 175.875 215.304V219H174.507V212.388H175.875V213.144C176.099 212.872 176.383 212.66 176.727 212.508C177.079 212.356 177.451 212.28 177.843 212.28ZM188.442 221.232C187.658 220.48 187.054 219.524 186.63 218.364C186.214 217.204 186.006 215.96 186.006 214.632C186.006 213.272 186.23 211.988 186.678 210.78C187.134 209.572 187.802 208.576 188.682 207.792H190.098V207.924C189.178 208.772 188.486 209.788 188.022 210.972C187.558 212.156 187.326 213.376 187.326 214.632C187.326 215.84 187.542 217.008 187.974 218.136C188.406 219.264 189.034 220.252 189.858 221.1V221.232H188.442ZM194.192 219.108C193.568 219.108 193.004 218.968 192.5 218.688C191.996 218.4 191.6 218 191.312 217.488C191.024 216.968 190.88 216.368 190.88 215.688C190.88 215.016 191.028 214.42 191.324 213.9C191.62 213.38 192.024 212.98 192.536 212.7C193.048 212.42 193.62 212.28 194.252 212.28C194.884 212.28 195.456 212.42 195.968 212.7C196.48 212.98 196.884 213.38 197.18 213.9C197.476 214.42 197.624 215.016 197.624 215.688C197.624 216.36 197.472 216.956 197.168 217.476C196.864 217.996 196.448 218.4 195.92 218.688C195.4 218.968 194.824 219.108 194.192 219.108ZM194.192 217.92C194.544 217.92 194.872 217.836 195.176 217.668C195.488 217.5 195.74 217.248 195.932 216.912C196.124 216.576 196.22 216.168 196.22 215.688C196.22 215.208 196.128 214.804 195.944 214.476C195.76 214.14 195.516 213.888 195.212 213.72C194.908 213.552 194.58 213.468 194.228 213.468C193.876 213.468 193.548 213.552 193.244 213.72C192.948 213.888 192.712 214.14 192.536 214.476C192.36 214.804 192.272 215.208 192.272 215.688C192.272 216.4 192.452 216.952 192.812 217.344C193.18 217.728 193.64 217.92 194.192 217.92ZM200.344 213.36C200.576 213.056 200.892 212.8 201.292 212.592C201.692 212.384 202.144 212.28 202.648 212.28C203.224 212.28 203.748 212.424 204.22 212.712C204.7 212.992 205.076 213.388 205.348 213.9C205.62 214.412 205.756 215 205.756 215.664C205.756 216.328 205.62 216.924 205.348 217.452C205.076 217.972 204.7 218.38 204.22 218.676C203.748 218.964 203.224 219.108 202.648 219.108C202.144 219.108 201.696 219.008 201.304 218.808C200.912 218.6 200.592 218.344 200.344 218.04V222.144H198.976V212.388H200.344V213.36ZM204.364 215.664C204.364 215.208 204.268 214.816 204.076 214.488C203.892 214.152 203.644 213.9 203.332 213.732C203.028 213.556 202.7 213.468 202.348 213.468C202.004 213.468 201.676 213.556 201.364 213.732C201.06 213.908 200.812 214.164 200.62 214.5C200.436 214.836 200.344 215.232 200.344 215.688C200.344 216.144 200.436 216.544 200.62 216.888C200.812 217.224 201.06 217.48 201.364 217.656C201.676 217.832 202.004 217.92 202.348 217.92C202.7 217.92 203.028 217.832 203.332 217.656C203.644 217.472 203.892 217.208 204.076 216.864C204.268 216.52 204.364 216.12 204.364 215.664ZM213.169 215.532C213.169 215.78 213.153 216.004 213.121 216.204H208.069C208.109 216.732 208.305 217.156 208.657 217.476C209.009 217.796 209.441 217.956 209.953 217.956C210.689 217.956 211.209 217.648 211.513 217.032H212.989C212.789 217.64 212.425 218.14 211.897 218.532C211.377 218.916 210.729 219.108 209.953 219.108C209.321 219.108 208.753 218.968 208.249 218.688C207.753 218.4 207.361 218 207.073 217.488C206.793 216.968 206.653 216.368 206.653 215.688C206.653 215.008 206.789 214.412 207.061 213.9C207.341 213.38 207.729 212.98 208.225 212.7C208.729 212.42 209.305 212.28 209.953 212.28C210.577 212.28 211.133 212.416 211.621 212.688C212.109 212.96 212.489 213.344 212.761 213.84C213.033 214.328 213.169 214.892 213.169 215.532ZM211.741 215.1C211.733 214.596 211.553 214.192 211.201 213.888C210.849 213.584 210.413 213.432 209.893 213.432C209.421 213.432 209.017 213.584 208.681 213.888C208.345 214.184 208.145 214.588 208.081 215.1H211.741ZM217.851 212.28C218.371 212.28 218.835 212.388 219.243 212.604C219.659 212.82 219.983 213.14 220.215 213.564C220.447 213.988 220.563 214.5 220.563 215.1V219H219.207V215.304C219.207 214.712 219.059 214.26 218.763 213.948C218.467 213.628 218.063 213.468 217.551 213.468C217.039 213.468 216.631 213.628 216.327 213.948C216.031 214.26 215.883 214.712 215.883 215.304V219H214.515V212.388H215.883V213.144C216.107 212.872 216.391 212.66 216.735 212.508C217.087 212.356 217.459 212.28 217.851 212.28ZM229.889 214.716C230.337 214.796 230.717 215.032 231.029 215.424C231.341 215.816 231.497 216.26 231.497 216.756C231.497 217.18 231.385 217.564 231.161 217.908C230.945 218.244 230.629 218.512 230.213 218.712C229.797 218.904 229.313 219 228.761 219H225.425V210.66H228.605C229.173 210.66 229.661 210.756 230.069 210.948C230.477 211.14 230.785 211.4 230.993 211.728C231.201 212.048 231.305 212.408 231.305 212.808C231.305 213.288 231.177 213.688 230.921 214.008C230.665 214.328 230.321 214.564 229.889 214.716ZM226.793 214.164H228.485C228.933 214.164 229.281 214.064 229.529 213.864C229.785 213.656 229.913 213.36 229.913 212.976C229.913 212.6 229.785 212.308 229.529 212.1C229.281 211.884 228.933 211.776 228.485 211.776H226.793V214.164ZM228.641 217.884C229.105 217.884 229.469 217.772 229.733 217.548C229.997 217.324 230.129 217.012 230.129 216.612C230.129 216.204 229.989 215.88 229.709 215.64C229.429 215.4 229.057 215.28 228.593 215.28H226.793V217.884H228.641ZM232.528 215.664C232.528 215 232.664 214.412 232.936 213.9C233.216 213.388 233.592 212.992 234.064 212.712C234.544 212.424 235.072 212.28 235.648 212.28C236.168 212.28 236.62 212.384 237.004 212.592C237.396 212.792 237.708 213.044 237.94 213.348V212.388H239.32V219H237.94V218.016C237.708 218.328 237.392 218.588 236.992 218.796C236.592 219.004 236.136 219.108 235.624 219.108C235.056 219.108 234.536 218.964 234.064 218.676C233.592 218.38 233.216 217.972 232.936 217.452C232.664 216.924 232.528 216.328 232.528 215.664ZM237.94 215.688C237.94 215.232 237.844 214.836 237.652 214.5C237.468 214.164 237.224 213.908 236.92 213.732C236.616 213.556 236.288 213.468 235.936 213.468C235.584 213.468 235.256 213.556 234.952 213.732C234.648 213.9 234.4 214.152 234.208 214.488C234.024 214.816 233.932 215.208 233.932 215.664C233.932 216.12 234.024 216.52 234.208 216.864C234.4 217.208 234.648 217.472 234.952 217.656C235.264 217.832 235.592 217.92 235.936 217.92C236.288 217.92 236.616 217.832 236.92 217.656C237.224 217.48 237.468 217.224 237.652 216.888C237.844 216.544 237.94 216.144 237.94 215.688ZM240.661 215.688C240.661 215.008 240.797 214.412 241.069 213.9C241.349 213.38 241.733 212.98 242.221 212.7C242.709 212.42 243.269 212.28 243.901 212.28C244.701 212.28 245.361 212.472 245.881 212.856C246.409 213.232 246.765 213.772 246.949 214.476H245.473C245.353 214.148 245.161 213.892 244.897 213.708C244.633 213.524 244.301 213.432 243.901 213.432C243.341 213.432 242.893 213.632 242.557 214.032C242.229 214.424 242.065 214.976 242.065 215.688C242.065 216.4 242.229 216.956 242.557 217.356C242.893 217.756 243.341 217.956 243.901 217.956C244.693 217.956 245.217 217.608 245.473 216.912H246.949C246.757 217.584 246.397 218.12 245.869 218.52C245.341 218.912 244.685 219.108 243.901 219.108C243.269 219.108 242.709 218.968 242.221 218.688C241.733 218.4 241.349 218 241.069 217.488C240.797 216.968 240.661 216.368 240.661 215.688ZM250.928 215.7L253.976 219H252.128L249.68 216.156V219H248.312V210.12H249.68V215.28L252.08 212.388H253.976L250.928 215.7ZM260.945 212.388V219H259.577V218.22C259.361 218.492 259.077 218.708 258.725 218.868C258.381 219.02 258.013 219.096 257.621 219.096C257.101 219.096 256.633 218.988 256.217 218.772C255.809 218.556 255.485 218.236 255.245 217.812C255.013 217.388 254.897 216.876 254.897 216.276V212.388H256.253V216.072C256.253 216.664 256.401 217.12 256.697 217.44C256.993 217.752 257.397 217.908 257.909 217.908C258.421 217.908 258.825 217.752 259.121 217.44C259.425 217.12 259.577 216.664 259.577 216.072V212.388H260.945ZM264.118 213.36C264.35 213.056 264.666 212.8 265.066 212.592C265.466 212.384 265.918 212.28 266.422 212.28C266.998 212.28 267.522 212.424 267.994 212.712C268.474 212.992 268.85 213.388 269.122 213.9C269.394 214.412 269.53 215 269.53 215.664C269.53 216.328 269.394 216.924 269.122 217.452C268.85 217.972 268.474 218.38 267.994 218.676C267.522 218.964 266.998 219.108 266.422 219.108C265.918 219.108 265.47 219.008 265.078 218.808C264.686 218.6 264.366 218.344 264.118 218.04V222.144H262.75V212.388H264.118V213.36ZM268.138 215.664C268.138 215.208 268.042 214.816 267.85 214.488C267.666 214.152 267.418 213.9 267.106 213.732C266.802 213.556 266.474 213.468 266.122 213.468C265.778 213.468 265.45 213.556 265.138 213.732C264.834 213.908 264.586 214.164 264.394 214.5C264.21 214.836 264.118 215.232 264.118 215.688C264.118 216.144 264.21 216.544 264.394 216.888C264.586 217.224 264.834 217.48 265.138 217.656C265.45 217.832 265.778 217.92 266.122 217.92C266.474 217.92 266.802 217.832 267.106 217.656C267.418 217.472 267.666 217.208 267.85 216.864C268.042 216.52 268.138 216.12 268.138 215.664ZM282.784 210.66V219H281.416V213.288L278.872 219H277.924L275.368 213.288V219H274V210.66H275.476L278.404 217.2L281.32 210.66H282.784ZM284.126 215.664C284.126 215 284.262 214.412 284.534 213.9C284.814 213.388 285.19 212.992 285.662 212.712C286.142 212.424 286.67 212.28 287.246 212.28C287.766 212.28 288.218 212.384 288.602 212.592C288.994 212.792 289.306 213.044 289.538 213.348V212.388H290.918V219H289.538V218.016C289.306 218.328 288.99 218.588 288.59 218.796C288.19 219.004 287.734 219.108 287.222 219.108C286.654 219.108 286.134 218.964 285.662 218.676C285.19 218.38 284.814 217.972 284.534 217.452C284.262 216.924 284.126 216.328 284.126 215.664ZM289.538 215.688C289.538 215.232 289.442 214.836 289.25 214.5C289.066 214.164 288.822 213.908 288.518 213.732C288.214 213.556 287.886 213.468 287.534 213.468C287.182 213.468 286.854 213.556 286.55 213.732C286.246 213.9 285.998 214.152 285.806 214.488C285.622 214.816 285.53 215.208 285.53 215.664C285.53 216.12 285.622 216.52 285.806 216.864C285.998 217.208 286.246 217.472 286.55 217.656C286.862 217.832 287.19 217.92 287.534 217.92C287.886 217.92 288.214 217.832 288.518 217.656C288.822 217.48 289.066 217.224 289.25 216.888C289.442 216.544 289.538 216.144 289.538 215.688ZM296.05 212.28C296.57 212.28 297.034 212.388 297.442 212.604C297.858 212.82 298.182 213.14 298.414 213.564C298.646 213.988 298.762 214.5 298.762 215.1V219H297.406V215.304C297.406 214.712 297.258 214.26 296.962 213.948C296.666 213.628 296.262 213.468 295.75 213.468C295.238 213.468 294.83 213.628 294.526 213.948C294.23 214.26 294.082 214.712 294.082 215.304V219H292.714V212.388H294.082V213.144C294.306 212.872 294.59 212.66 294.934 212.508C295.286 212.356 295.658 212.28 296.05 212.28ZM300.051 215.664C300.051 215 300.187 214.412 300.459 213.9C300.739 213.388 301.115 212.992 301.587 212.712C302.067 212.424 302.595 212.28 303.171 212.28C303.691 212.28 304.143 212.384 304.527 212.592C304.919 212.792 305.231 213.044 305.463 213.348V212.388H306.843V219H305.463V218.016C305.231 218.328 304.915 218.588 304.515 218.796C304.115 219.004 303.659 219.108 303.147 219.108C302.579 219.108 302.059 218.964 301.587 218.676C301.115 218.38 300.739 217.972 300.459 217.452C300.187 216.924 300.051 216.328 300.051 215.664ZM305.463 215.688C305.463 215.232 305.367 214.836 305.175 214.5C304.991 214.164 304.747 213.908 304.443 213.732C304.139 213.556 303.811 213.468 303.459 213.468C303.107 213.468 302.779 213.556 302.475 213.732C302.171 213.9 301.923 214.152 301.731 214.488C301.547 214.816 301.455 215.208 301.455 215.664C301.455 216.12 301.547 216.52 301.731 216.864C301.923 217.208 302.171 217.472 302.475 217.656C302.787 217.832 303.115 217.92 303.459 217.92C303.811 217.92 304.139 217.832 304.443 217.656C304.747 217.48 304.991 217.224 305.175 216.888C305.367 216.544 305.463 216.144 305.463 215.688ZM311.304 212.28C311.816 212.28 312.268 212.384 312.66 212.592C313.06 212.792 313.372 213.044 313.596 213.348V212.388H314.976V219.108C314.976 219.716 314.848 220.256 314.592 220.728C314.336 221.208 313.964 221.584 313.476 221.856C312.996 222.128 312.42 222.264 311.748 222.264C310.852 222.264 310.108 222.052 309.516 221.628C308.924 221.212 308.588 220.644 308.508 219.924H309.864C309.968 220.268 310.188 220.544 310.524 220.752C310.868 220.968 311.276 221.076 311.748 221.076C312.3 221.076 312.744 220.908 313.08 220.572C313.424 220.236 313.596 219.748 313.596 219.108V218.004C313.364 218.316 313.048 218.58 312.648 218.796C312.256 219.004 311.808 219.108 311.304 219.108C310.728 219.108 310.2 218.964 309.72 218.676C309.248 218.38 308.872 217.972 308.592 217.452C308.32 216.924 308.184 216.328 308.184 215.664C308.184 215 308.32 214.412 308.592 213.9C308.872 213.388 309.248 212.992 309.72 212.712C310.2 212.424 310.728 212.28 311.304 212.28ZM313.596 215.688C313.596 215.232 313.5 214.836 313.308 214.5C313.124 214.164 312.88 213.908 312.576 213.732C312.272 213.556 311.944 213.468 311.592 213.468C311.24 213.468 310.912 213.556 310.608 213.732C310.304 213.9 310.056 214.152 309.864 214.488C309.68 214.816 309.588 215.208 309.588 215.664C309.588 216.12 309.68 216.52 309.864 216.864C310.056 217.208 310.304 217.472 310.608 217.656C310.92 217.832 311.248 217.92 311.592 217.92C311.944 217.92 312.272 217.832 312.576 217.656C312.88 217.48 313.124 217.224 313.308 216.888C313.5 216.544 313.596 216.144 313.596 215.688ZM322.833 215.532C322.833 215.78 322.817 216.004 322.785 216.204H317.733C317.773 216.732 317.969 217.156 318.321 217.476C318.673 217.796 319.105 217.956 319.617 217.956C320.353 217.956 320.873 217.648 321.177 217.032H322.653C322.453 217.64 322.089 218.14 321.561 218.532C321.041 218.916 320.393 219.108 319.617 219.108C318.985 219.108 318.417 218.968 317.913 218.688C317.417 218.4 317.025 218 316.737 217.488C316.457 216.968 316.317 216.368 316.317 215.688C316.317 215.008 316.453 214.412 316.725 213.9C317.005 213.38 317.393 212.98 317.889 212.7C318.393 212.42 318.969 212.28 319.617 212.28C320.241 212.28 320.797 212.416 321.285 212.688C321.773 212.96 322.153 213.344 322.425 213.84C322.697 214.328 322.833 214.892 322.833 215.532ZM321.405 215.1C321.397 214.596 321.217 214.192 320.865 213.888C320.513 213.584 320.077 213.432 319.557 213.432C319.085 213.432 318.681 213.584 318.345 213.888C318.009 214.184 317.809 214.588 317.745 215.1H321.405ZM325.547 213.348C325.747 213.012 326.011 212.752 326.339 212.568C326.675 212.376 327.071 212.28 327.527 212.28V213.696H327.179C326.643 213.696 326.235 213.832 325.955 214.104C325.683 214.376 325.547 214.848 325.547 215.52V219H324.179V212.388H325.547V213.348ZM328.449 221.232V221.1C329.273 220.252 329.901 219.264 330.333 218.136C330.765 217.008 330.981 215.84 330.981 214.632C330.981 213.376 330.749 212.156 330.285 210.972C329.821 209.788 329.129 208.772 328.209 207.924V207.792H329.625C330.505 208.576 331.169 209.572 331.617 210.78C332.073 211.988 332.301 213.272 332.301 214.632C332.301 215.96 332.089 217.204 331.665 218.364C331.249 219.524 330.649 220.48 329.865 221.232H328.449Z" fill="white"/>
<rect x="135" y="250" width="210" height="30" rx="15" fill="white" fill-opacity="0.1"/>
<path d="M194.426 260.66V269H193.058V260.66H194.426ZM198.883 265.664C198.883 265 199.019 264.412 199.291 263.9C199.571 263.388 199.947 262.992 200.419 262.712C200.899 262.424 201.427 262.28 202.003 262.28C202.523 262.28 202.975 262.384 203.359 262.592C203.751 262.792 204.063 263.044 204.295 263.348V262.388H205.675V269H204.295V268.016C204.063 268.328 203.747 268.588 203.347 268.796C202.947 269.004 202.491 269.108 201.979 269.108C201.411 269.108 200.891 268.964 200.419 268.676C199.947 268.38 199.571 267.972 199.291 267.452C199.019 266.924 198.883 266.328 198.883 265.664ZM204.295 265.688C204.295 265.232 204.199 264.836 204.007 264.5C203.823 264.164 203.579 263.908 203.275 263.732C202.971 263.556 202.643 263.468 202.291 263.468C201.939 263.468 201.611 263.556 201.307 263.732C201.003 263.9 200.755 264.152 200.563 264.488C200.379 264.816 200.287 265.208 200.287 265.664C200.287 266.12 200.379 266.52 200.563 266.864C200.755 267.208 201.003 267.472 201.307 267.656C201.619 267.832 201.947 267.92 202.291 267.92C202.643 267.92 202.971 267.832 203.275 267.656C203.579 267.48 203.823 267.224 204.007 266.888C204.199 266.544 204.295 266.144 204.295 265.688ZM215.476 262.28C215.996 262.28 216.46 262.388 216.868 262.604C217.284 262.82 217.608 263.14 217.84 263.564C218.08 263.988 218.2 264.5 218.2 265.1V269H216.844V265.304C216.844 264.712 216.696 264.26 216.4 263.948C216.104 263.628 215.7 263.468 215.188 263.468C214.676 263.468 214.268 263.628 213.964 263.948C213.668 264.26 213.52 264.712 213.52 265.304V269H212.164V265.304C212.164 264.712 212.016 264.26 211.72 263.948C211.424 263.628 211.02 263.468 210.508 263.468C209.996 263.468 209.588 263.628 209.284 263.948C208.988 264.26 208.84 264.712 208.84 265.304V269H207.472V262.388H208.84V263.144C209.064 262.872 209.348 262.66 209.692 262.508C210.036 262.356 210.404 262.28 210.796 262.28C211.324 262.28 211.796 262.392 212.212 262.616C212.628 262.84 212.948 263.164 213.172 263.588C213.372 263.188 213.684 262.872 214.108 262.64C214.532 262.4 214.988 262.28 215.476 262.28ZM222.602 265.664C222.602 265 222.738 264.412 223.01 263.9C223.29 263.388 223.666 262.992 224.138 262.712C224.618 262.424 225.146 262.28 225.722 262.28C226.242 262.28 226.694 262.384 227.078 262.592C227.47 262.792 227.782 263.044 228.014 263.348V262.388H229.394V269H228.014V268.016C227.782 268.328 227.466 268.588 227.066 268.796C226.666 269.004 226.21 269.108 225.698 269.108C225.13 269.108 224.61 268.964 224.138 268.676C223.666 268.38 223.29 267.972 223.01 267.452C222.738 266.924 222.602 266.328 222.602 265.664ZM228.014 265.688C228.014 265.232 227.918 264.836 227.726 264.5C227.542 264.164 227.298 263.908 226.994 263.732C226.69 263.556 226.362 263.468 226.01 263.468C225.658 263.468 225.33 263.556 225.026 263.732C224.722 263.9 224.474 264.152 224.282 264.488C224.098 264.816 224.006 265.208 224.006 265.664C224.006 266.12 224.098 266.52 224.282 266.864C224.474 267.208 224.722 267.472 225.026 267.656C225.338 267.832 225.666 267.92 226.01 267.92C226.362 267.92 226.69 267.832 226.994 267.656C227.298 267.48 227.542 267.224 227.726 266.888C227.918 266.544 228.014 266.144 228.014 265.688ZM237.644 262.28C238.164 262.28 238.628 262.388 239.036 262.604C239.452 262.82 239.776 263.14 240.008 263.564C240.24 263.988 240.356 264.5 240.356 265.1V269H239V265.304C239 264.712 238.852 264.26 238.556 263.948C238.26 263.628 237.856 263.468 237.344 263.468C236.832 263.468 236.424 263.628 236.12 263.948C235.824 264.26 235.676 264.712 235.676 265.304V269H234.308V262.388H235.676V263.144C235.9 262.872 236.184 262.66 236.528 262.508C236.88 262.356 237.252 262.28 237.644 262.28ZM248.161 265.532C248.161 265.78 248.145 266.004 248.113 266.204H243.061C243.101 266.732 243.297 267.156 243.649 267.476C244.001 267.796 244.433 267.956 244.945 267.956C245.681 267.956 246.201 267.648 246.505 267.032H247.981C247.781 267.64 247.417 268.14 246.889 268.532C246.369 268.916 245.721 269.108 244.945 269.108C244.313 269.108 243.745 268.968 243.241 268.688C242.745 268.4 242.353 268 242.065 267.488C241.785 266.968 241.645 266.368 241.645 265.688C241.645 265.008 241.781 264.412 242.053 263.9C242.333 263.38 242.721 262.98 243.217 262.7C243.721 262.42 244.297 262.28 244.945 262.28C245.569 262.28 246.125 262.416 246.613 262.688C247.101 262.96 247.481 263.344 247.753 263.84C248.025 264.328 248.161 264.892 248.161 265.532ZM246.733 265.1C246.725 264.596 246.545 264.192 246.193 263.888C245.841 263.584 245.405 263.432 244.885 263.432C244.413 263.432 244.009 263.584 243.673 263.888C243.337 264.184 243.137 264.588 243.073 265.1H246.733ZM258.387 262.388L256.335 269H254.895L253.563 264.116L252.231 269H250.791L248.727 262.388H250.119L251.499 267.704L252.903 262.388H254.331L255.675 267.68L257.043 262.388H258.387ZM268.515 262.388V269H267.147V268.22C266.931 268.492 266.647 268.708 266.295 268.868C265.951 269.02 265.583 269.096 265.191 269.096C264.671 269.096 264.203 268.988 263.787 268.772C263.379 268.556 263.055 268.236 262.815 267.812C262.583 267.388 262.467 266.876 262.467 266.276V262.388H263.823V266.072C263.823 266.664 263.971 267.12 264.267 267.44C264.563 267.752 264.967 267.908 265.479 267.908C265.991 267.908 266.395 267.752 266.691 267.44C266.995 267.12 267.147 266.664 267.147 266.072V262.388H268.515ZM272.72 269.108C272.2 269.108 271.732 269.016 271.316 268.832C270.908 268.64 270.584 268.384 270.344 268.064C270.104 267.736 269.976 267.372 269.96 266.972H271.376C271.4 267.252 271.532 267.488 271.772 267.68C272.02 267.864 272.328 267.956 272.696 267.956C273.08 267.956 273.376 267.884 273.584 267.74C273.8 267.588 273.908 267.396 273.908 267.164C273.908 266.916 273.788 266.732 273.548 266.612C273.316 266.492 272.944 266.36 272.432 266.216C271.936 266.08 271.532 265.948 271.22 265.82C270.908 265.692 270.636 265.496 270.404 265.232C270.18 264.968 270.068 264.62 270.068 264.188C270.068 263.836 270.172 263.516 270.38 263.228C270.588 262.932 270.884 262.7 271.268 262.532C271.66 262.364 272.108 262.28 272.612 262.28C273.364 262.28 273.968 262.472 274.424 262.856C274.888 263.232 275.136 263.748 275.168 264.404H273.8C273.776 264.108 273.656 263.872 273.44 263.696C273.224 263.52 272.932 263.432 272.564 263.432C272.204 263.432 271.928 263.5 271.736 263.636C271.544 263.772 271.448 263.952 271.448 264.176C271.448 264.352 271.512 264.5 271.64 264.62C271.768 264.74 271.924 264.836 272.108 264.908C272.292 264.972 272.564 265.056 272.924 265.16C273.404 265.288 273.796 265.42 274.1 265.556C274.412 265.684 274.68 265.876 274.904 266.132C275.128 266.388 275.244 266.728 275.252 267.152C275.252 267.528 275.148 267.864 274.94 268.16C274.732 268.456 274.436 268.688 274.052 268.856C273.676 269.024 273.232 269.108 272.72 269.108ZM282.79 265.532C282.79 265.78 282.774 266.004 282.742 266.204H277.69C277.73 266.732 277.926 267.156 278.278 267.476C278.63 267.796 279.062 267.956 279.574 267.956C280.31 267.956 280.83 267.648 281.134 267.032H282.61C282.41 267.64 282.046 268.14 281.518 268.532C280.998 268.916 280.35 269.108 279.574 269.108C278.942 269.108 278.374 268.968 277.87 268.688C277.374 268.4 276.982 268 276.694 267.488C276.414 266.968 276.274 266.368 276.274 265.688C276.274 265.008 276.41 264.412 276.682 263.9C276.962 263.38 277.35 262.98 277.846 262.7C278.35 262.42 278.926 262.28 279.574 262.28C280.198 262.28 280.754 262.416 281.242 262.688C281.73 262.96 282.11 263.344 282.382 263.84C282.654 264.328 282.79 264.892 282.79 265.532ZM281.362 265.1C281.354 264.596 281.174 264.192 280.822 263.888C280.47 263.584 280.034 263.432 279.514 263.432C279.042 263.432 278.638 263.584 278.302 263.888C277.966 264.184 277.766 264.588 277.702 265.1H281.362ZM285.504 263.348C285.704 263.012 285.968 262.752 286.296 262.568C286.632 262.376 287.028 262.28 287.484 262.28V263.696H287.136C286.6 263.696 286.192 263.832 285.912 264.104C285.64 264.376 285.504 264.848 285.504 265.52V269H284.136V262.388H285.504V263.348Z" fill="white"/>
</svg>
