<svg width="480" height="360" viewBox="0 0 480 360" fill="none" xmlns="http://www.w3.org/2000/svg">
<rect x="290" y="150" width="180" height="120" rx="15" fill="black" fill-opacity="0.5"/>
<path d="M377 200H383C384.105 200 385 200.895 385 202V208C385 209.105 384.105 210 383 210H377C375.895 210 375 209.105 375 208V202C375 200.895 375.895 200 377 200Z" stroke="white" stroke-width="2"/>
<path d="M416.53 200.26L422.756 204.152C423.383 204.544 423.383 205.456 422.756 205.848L416.53 209.74C415.864 210.156 415 209.677 415 208.892V201.108C415 200.323 415.864 199.844 416.53 200.26Z" stroke="white" stroke-width="2"/>
<rect x="424" y="199" width="2" height="12" rx="1" fill="white"/>
<path d="M343.47 209.74L337.244 205.848C336.617 205.456 336.617 204.544 337.244 204.152L343.47 200.26C344.136 199.844 345 200.323 345 201.108L345 208.892C345 209.677 344.136 210.156 343.47 209.74Z" stroke="white" stroke-width="2"/>
<rect x="336" y="211" width="2" height="12" rx="1" transform="rotate(180 336 211)" fill="white"/>
<path d="M371.305 164.05V171H370.165V167.96H366.895V171H365.755V164.05H366.895V167.03H370.165V164.05H371.305ZM375.196 171.09C374.676 171.09 374.206 170.973 373.786 170.74C373.366 170.5 373.036 170.167 372.796 169.74C372.556 169.307 372.436 168.807 372.436 168.24C372.436 167.68 372.559 167.183 372.806 166.75C373.052 166.317 373.389 165.983 373.816 165.75C374.242 165.517 374.719 165.4 375.246 165.4C375.772 165.4 376.249 165.517 376.676 165.75C377.102 165.983 377.439 166.317 377.686 166.75C377.932 167.183 378.056 167.68 378.056 168.24C378.056 168.8 377.929 169.297 377.676 169.73C377.422 170.163 377.076 170.5 376.636 170.74C376.202 170.973 375.722 171.09 375.196 171.09ZM375.196 170.1C375.489 170.1 375.762 170.03 376.016 169.89C376.276 169.75 376.486 169.54 376.646 169.26C376.806 168.98 376.886 168.64 376.886 168.24C376.886 167.84 376.809 167.503 376.656 167.23C376.502 166.95 376.299 166.74 376.046 166.6C375.792 166.46 375.519 166.39 375.226 166.39C374.932 166.39 374.659 166.46 374.406 166.6C374.159 166.74 373.962 166.95 373.816 167.23C373.669 167.503 373.596 167.84 373.596 168.24C373.596 168.833 373.746 169.293 374.046 169.62C374.352 169.94 374.736 170.1 375.196 170.1ZM385.853 165.4C386.286 165.4 386.673 165.49 387.013 165.67C387.359 165.85 387.629 166.117 387.823 166.47C388.023 166.823 388.123 167.25 388.123 167.75V171H386.993V167.92C386.993 167.427 386.869 167.05 386.623 166.79C386.376 166.523 386.039 166.39 385.613 166.39C385.186 166.39 384.846 166.523 384.593 166.79C384.346 167.05 384.223 167.427 384.223 167.92V171H383.093V167.92C383.093 167.427 382.969 167.05 382.723 166.79C382.476 166.523 382.139 166.39 381.713 166.39C381.286 166.39 380.946 166.523 380.693 166.79C380.446 167.05 380.323 167.427 380.323 167.92V171H379.183V165.49H380.323V166.12C380.509 165.893 380.746 165.717 381.033 165.59C381.319 165.463 381.626 165.4 381.953 165.4C382.393 165.4 382.786 165.493 383.133 165.68C383.479 165.867 383.746 166.137 383.933 166.49C384.099 166.157 384.359 165.893 384.713 165.7C385.066 165.5 385.446 165.4 385.853 165.4ZM394.623 168.11C394.623 168.317 394.61 168.503 394.583 168.67H390.373C390.407 169.11 390.57 169.463 390.863 169.73C391.157 169.997 391.517 170.13 391.943 170.13C392.557 170.13 392.99 169.873 393.243 169.36H394.473C394.307 169.867 394.003 170.283 393.563 170.61C393.13 170.93 392.59 171.09 391.943 171.09C391.417 171.09 390.943 170.973 390.523 170.74C390.11 170.5 389.783 170.167 389.543 169.74C389.31 169.307 389.193 168.807 389.193 168.24C389.193 167.673 389.307 167.177 389.533 166.75C389.767 166.317 390.09 165.983 390.503 165.75C390.923 165.517 391.403 165.4 391.943 165.4C392.463 165.4 392.927 165.513 393.333 165.74C393.74 165.967 394.057 166.287 394.283 166.7C394.51 167.107 394.623 167.577 394.623 168.11ZM393.433 167.75C393.427 167.33 393.277 166.993 392.983 166.74C392.69 166.487 392.327 166.36 391.893 166.36C391.5 166.36 391.163 166.487 390.883 166.74C390.603 166.987 390.437 167.323 390.383 167.75H393.433Z" fill="white"/>
<path d="M370.957 178.44V184H370.045V178.44H370.957ZM373.899 181.8L375.931 184H374.699L373.067 182.104V184H372.155V178.08H373.067V181.52L374.667 179.592H375.931L373.899 181.8ZM378.184 184.072C377.838 184.072 377.526 184.011 377.248 183.888C376.976 183.76 376.76 183.589 376.6 183.376C376.44 183.157 376.355 182.915 376.344 182.648H377.288C377.304 182.835 377.392 182.992 377.552 183.12C377.718 183.243 377.923 183.304 378.168 183.304C378.424 183.304 378.622 183.256 378.76 183.16C378.904 183.059 378.976 182.931 378.976 182.776C378.976 182.611 378.896 182.488 378.736 182.408C378.582 182.328 378.334 182.24 377.992 182.144C377.662 182.053 377.392 181.965 377.184 181.88C376.976 181.795 376.795 181.664 376.64 181.488C376.491 181.312 376.416 181.08 376.416 180.792C376.416 180.557 376.486 180.344 376.624 180.152C376.763 179.955 376.96 179.8 377.216 179.688C377.478 179.576 377.776 179.52 378.112 179.52C378.614 179.52 379.016 179.648 379.32 179.904C379.63 180.155 379.795 180.499 379.816 180.936H378.904C378.888 180.739 378.808 180.581 378.664 180.464C378.52 180.347 378.326 180.288 378.08 180.288C377.84 180.288 377.656 180.333 377.528 180.424C377.4 180.515 377.336 180.635 377.336 180.784C377.336 180.901 377.379 181 377.464 181.08C377.55 181.16 377.654 181.224 377.776 181.272C377.899 181.315 378.08 181.371 378.32 181.44C378.64 181.525 378.902 181.613 379.104 181.704C379.312 181.789 379.491 181.917 379.64 182.088C379.79 182.259 379.867 182.485 379.872 182.768C379.872 183.019 379.803 183.243 379.664 183.44C379.526 183.637 379.328 183.792 379.072 183.904C378.822 184.016 378.526 184.072 378.184 184.072ZM382.77 184.072C382.354 184.072 381.978 183.979 381.642 183.792C381.306 183.6 381.042 183.333 380.85 182.992C380.658 182.645 380.562 182.245 380.562 181.792C380.562 181.344 380.66 180.947 380.858 180.6C381.055 180.253 381.324 179.987 381.666 179.8C382.007 179.613 382.388 179.52 382.81 179.52C383.231 179.52 383.612 179.613 383.954 179.8C384.295 179.987 384.564 180.253 384.762 180.6C384.959 180.947 385.058 181.344 385.058 181.792C385.058 182.24 384.956 182.637 384.754 182.984C384.551 183.331 384.274 183.6 383.922 183.792C383.575 183.979 383.191 184.072 382.77 184.072ZM382.77 183.28C383.004 183.28 383.223 183.224 383.426 183.112C383.634 183 383.802 182.832 383.93 182.608C384.058 182.384 384.122 182.112 384.122 181.792C384.122 181.472 384.06 181.203 383.938 180.984C383.815 180.76 383.652 180.592 383.45 180.48C383.247 180.368 383.028 180.312 382.794 180.312C382.559 180.312 382.34 180.368 382.138 180.48C381.94 180.592 381.783 180.76 381.666 180.984C381.548 181.203 381.49 181.472 381.49 181.792C381.49 182.267 381.61 182.635 381.85 182.896C382.095 183.152 382.402 183.28 382.77 183.28ZM388.183 179.52C388.53 179.52 388.839 179.592 389.111 179.736C389.389 179.88 389.605 180.093 389.759 180.376C389.914 180.659 389.991 181 389.991 181.4V184H389.087V181.536C389.087 181.141 388.989 180.84 388.791 180.632C388.594 180.419 388.325 180.312 387.983 180.312C387.642 180.312 387.37 180.419 387.167 180.632C386.97 180.84 386.871 181.141 386.871 181.536V184H385.959V179.592H386.871V180.096C387.021 179.915 387.21 179.773 387.439 179.672C387.674 179.571 387.922 179.52 388.183 179.52Z" fill="#808080"/>
<rect x="305" y="235" width="150" height="20" rx="10" fill="white" fill-opacity="0.1"/>
</svg>
