<svg width="80" height="28" viewBox="0 0 80 28" fill="none" xmlns="http://www.w3.org/2000/svg">
<rect width="80" height="28" rx="5" fill="#1B1B1B"/>
<path d="M12.75 18.09C12.3167 18.09 11.9267 18.0133 11.58 17.86C11.24 17.7 10.97 17.4867 10.77 17.22C10.57 16.9467 10.4633 16.6433 10.45 16.31H11.63C11.65 16.5433 11.76 16.74 11.96 16.9C12.1667 17.0533 12.4233 17.13 12.73 17.13C13.05 17.13 13.2967 17.07 13.47 16.95C13.65 16.8233 13.74 16.6633 13.74 16.47C13.74 16.2633 13.64 16.11 13.44 16.01C13.2467 15.91 12.9367 15.8 12.51 15.68C12.0967 15.5667 11.76 15.4567 11.5 15.35C11.24 15.2433 11.0133 15.08 10.82 14.86C10.6333 14.64 10.54 14.35 10.54 13.99C10.54 13.6967 10.6267 13.43 10.8 13.19C10.9733 12.9433 11.22 12.75 11.54 12.61C11.8667 12.47 12.24 12.4 12.66 12.4C13.2867 12.4 13.79 12.56 14.17 12.88C14.5567 13.1933 14.7633 13.6233 14.79 14.17H13.65C13.63 13.9233 13.53 13.7267 13.35 13.58C13.17 13.4333 12.9267 13.36 12.62 13.36C12.32 13.36 12.09 13.4167 11.93 13.53C11.77 13.6433 11.69 13.7933 11.69 13.98C11.69 14.1267 11.7433 14.25 11.85 14.35C11.9567 14.45 12.0867 14.53 12.24 14.59C12.3933 14.6433 12.62 14.7133 12.92 14.8C13.32 14.9067 13.6467 15.0167 13.9 15.13C14.16 15.2367 14.3833 15.3967 14.57 15.61C14.7567 15.8233 14.8533 16.1067 14.86 16.46C14.86 16.7733 14.7733 17.0533 14.6 17.3C14.4267 17.5467 14.18 17.74 13.86 17.88C13.5467 18.02 13.1767 18.09 12.75 18.09ZM17.4218 13.42V16.47C17.4218 16.6767 17.4685 16.8267 17.5618 16.92C17.6618 17.0067 17.8285 17.05 18.0618 17.05H18.7618V18H17.8618C17.3485 18 16.9551 17.88 16.6818 17.64C16.4085 17.4 16.2718 17.01 16.2718 16.47V13.42H15.6218V12.49H16.2718V11.12H17.4218V12.49H18.7618V13.42H17.4218ZM19.4325 15.22C19.4325 14.6667 19.5458 14.1767 19.7725 13.75C20.0058 13.3233 20.3192 12.9933 20.7125 12.76C21.1125 12.52 21.5525 12.4 22.0325 12.4C22.4658 12.4 22.8425 12.4867 23.1625 12.66C23.4892 12.8267 23.7492 13.0367 23.9425 13.29V12.49H25.0925V18H23.9425V17.18C23.7492 17.44 23.4858 17.6567 23.1525 17.83C22.8192 18.0033 22.4392 18.09 22.0125 18.09C21.5392 18.09 21.1058 17.97 20.7125 17.73C20.3192 17.4833 20.0058 17.1433 19.7725 16.71C19.5458 16.27 19.4325 15.7733 19.4325 15.22ZM23.9425 15.24C23.9425 14.86 23.8625 14.53 23.7025 14.25C23.5492 13.97 23.3458 13.7567 23.0925 13.61C22.8392 13.4633 22.5658 13.39 22.2725 13.39C21.9792 13.39 21.7058 13.4633 21.4525 13.61C21.1992 13.75 20.9925 13.96 20.8325 14.24C20.6792 14.5133 20.6025 14.84 20.6025 15.22C20.6025 15.6 20.6792 15.9333 20.8325 16.22C20.9925 16.5067 21.1992 16.7267 21.4525 16.88C21.7125 17.0267 21.9858 17.1 22.2725 17.1C22.5658 17.1 22.8392 17.0267 23.0925 16.88C23.3458 16.7333 23.5492 16.52 23.7025 16.24C23.8625 15.9533 23.9425 15.62 23.9425 15.24ZM27.7298 13.29C27.8965 13.01 28.1165 12.7933 28.3898 12.64C28.6698 12.48 28.9998 12.4 29.3798 12.4V13.58H29.0898C28.6432 13.58 28.3032 13.6933 28.0698 13.92C27.8432 14.1467 27.7298 14.54 27.7298 15.1V18H26.5898V12.49H27.7298V13.29ZM31.7577 13.42V16.47C31.7577 16.6767 31.8044 16.8267 31.8977 16.92C31.9977 17.0067 32.1644 17.05 32.3977 17.05H33.0977V18H32.1977C31.6844 18 31.2911 17.88 31.0177 17.64C30.7444 17.4 30.6077 17.01 30.6077 16.47V13.42H29.9577V12.49H30.6077V11.12H31.7577V12.49H33.0977V13.42H31.7577Z" fill="white"/>
</svg>
